<svg width="248" height="103" viewBox="0 0 248 103" fill="none" xmlns="http://www.w3.org/2000/svg">
<path d="M44.375 1.90039L56.5325 26.2154" stroke="#555555" stroke-width="0.676328" stroke-linecap="round"/>
<path d="M92.5537 28.0166L104.711 52.3316" stroke="#555555" stroke-width="0.676328" stroke-linecap="round"/>
<path d="M140.733 1.4502L152.891 25.7652" stroke="#555555" stroke-width="0.676328" stroke-linecap="round"/>
<path d="M187.111 28.4668L199.269 52.7818" stroke="#555555" stroke-width="0.676328" stroke-linecap="round"/>
<path d="M234.842 53.2319L246.999 77.5469" stroke="#555555" stroke-width="0.676328" stroke-linecap="round"/>
<path d="M0.450195 26.2153L12.6077 50.5303" stroke="#555555" stroke-width="0.676328" stroke-linecap="round"/>
<path d="M48.6289 52.3315L60.7864 76.6465" stroke="#555555" stroke-width="0.676328" stroke-linecap="round"/>
<path d="M96.8086 25.7651L108.966 50.0801" stroke="#555555" stroke-width="0.676328" stroke-linecap="round"/>
<path d="M143.188 52.7817L155.345 77.0967" stroke="#555555" stroke-width="0.676328" stroke-linecap="round"/>
<path d="M190.917 77.5469L203.074 101.862" stroke="#555555" stroke-width="0.676328" stroke-linecap="round"/>
<path d="M11.999 2H43.999" stroke="#555555" stroke-width="0.676328" stroke-linecap="round"/>
<path d="M60.999 28H92.999" stroke="#555555" stroke-width="0.676328" stroke-linecap="round"/>
<path d="M108.999 1H140.999" stroke="#555555" stroke-width="0.676328" stroke-linecap="round"/>
<path d="M154.999 28H186.999" stroke="#555555" stroke-width="0.676328" stroke-linecap="round"/>
<path d="M202.999 53H234.999" stroke="#555555" stroke-width="0.676328" stroke-linecap="round"/>
<line x1="56.6792" y1="26.2199" x2="44.3783" y2="50.3824" stroke="#555555" stroke-width="0.676328" stroke-linecap="round"/>
<line x1="104.859" y1="52.3361" x2="92.558" y2="76.4986" stroke="#555555" stroke-width="0.676328" stroke-linecap="round"/>
<line x1="153.039" y1="25.7697" x2="140.738" y2="49.9322" stroke="#555555" stroke-width="0.676328" stroke-linecap="round"/>
<line x1="199.417" y1="52.7863" x2="187.117" y2="76.9488" stroke="#555555" stroke-width="0.676328" stroke-linecap="round"/>
<line x1="247.147" y1="77.5515" x2="234.846" y2="101.714" stroke="#555555" stroke-width="0.676328" stroke-linecap="round"/>
<line x1="12.7554" y1="1.90497" x2="0.454443" y2="26.0675" stroke="#555555" stroke-width="0.676328" stroke-linecap="round"/>
<line x1="60.935" y1="28.0212" x2="48.6341" y2="52.1837" stroke="#555555" stroke-width="0.676328" stroke-linecap="round"/>
<line x1="109.115" y1="1.45478" x2="96.8138" y2="25.6173" stroke="#555555" stroke-width="0.676328" stroke-linecap="round"/>
<line x1="155.493" y1="28.4714" x2="143.192" y2="52.6339" stroke="#555555" stroke-width="0.676328" stroke-linecap="round"/>
<line x1="203.222" y1="53.2365" x2="190.921" y2="77.399" stroke="#555555" stroke-width="0.676328" stroke-linecap="round"/>
<line x1="12.999" y1="50.6618" x2="43.999" y2="50.6618" stroke="#555555" stroke-width="0.676328"/>
<line x1="60.999" y1="76.6618" x2="92.999" y2="76.6618" stroke="#555555" stroke-width="0.676328"/>
<line x1="108.999" y1="49.6618" x2="140.999" y2="49.6618" stroke="#555555" stroke-width="0.676328"/>
<line x1="155.999" y1="76.6618" x2="186.999" y2="76.6618" stroke="#555555" stroke-width="0.676328"/>
<line x1="202.999" y1="101.662" x2="234.999" y2="101.662" stroke="#555555" stroke-width="0.676328"/>
</svg>
