<svg width="208" height="210" viewBox="0 0 208 210" fill="none" xmlns="http://www.w3.org/2000/svg">
<rect width="208" height="208" fill="#C9C8D8"/>
<path d="M101.578 23.8159H101.565L99.9224 25.015L98.1094 26.77" stroke="black" stroke-width="2.75" stroke-linecap="round" stroke-linejoin="round"/>
<path d="M92.7818 33.4571L92.6228 33.6271L89.3248 38.6931L89.3098 40.2251L88.6398 41.0331L88.4088 42.6411L87.1308 45.2861L87.3138 47.3441L84.8168 56.1161L85.2948 58.0381L84.7898 59.5571L84.5488 69.7371L84.8748 71.787L85.6848 73.1031L85.8028 76.7781L86.4518 78.6251L89.5258 83.0511L90.2608 84.8301L94.4458 89.7231L96.5188 93.3301L98.6428 95.2201L107.704 97.4241L114.762 97.6791L116.376 97.3091L123.363 92.8071L127.466 88.2271L131.028 85.381L132.292 83.5671L132.696 82.0411L133.772 80.9091L135.655 76.8071L138.697 63.8431L138.246 62.3921L138.688 59.8631L138.224 56.4741L138.4 52.5771L137.029 45.9641L136.154 44.8201L137.032 42.2441L135.841 40.6451L135.931 39.4271L135.191 39.1121L135.299 38.1281L134.081 36.9781L131.031 29.4581L129.736 27.717L124.389 25.2811L122.461 23.662L119.409 23.5751L112.566 21.2291L110.912 21.6421L108.069 21.1531L101.827 21.9871L99.5978 22.8101L97.5178 24.2071L95.6648 27.2411L94.3168 27.2841L91.3178 32.1921L90.4768 32.6521L90.7788 32.7031L90.3548 33.1921L90.7678 35.899L89.8108 37.1801L89.7858 38.2711L90.1598 38.3851" stroke="black" stroke-width="2.75" stroke-linecap="round" stroke-linejoin="round"/>
<path d="M90.459 106.144L90.453 107.52L86.754 113.839L86.191 115.766L84.575 117.252L84.517 118.493L83.618 120.604L79.533 126.394L78.366 129.281L70.151 141.575L67.028 148.07L64.108 152.696L61.56 158.997L58.076 164.649L56.718 169.249L53.361 175.015L52.989 176.933L51.439 178.817L51.323 180.978L49.986 182.837L47.72 187.647L45.535 189.987L43.698 193.027L43.696 193.387L44.218 192.947L43.464 193.027L42.62 197.517L41.35 199.187L41.687 200.087L40.737 201.577L39.946 201.837L39.75 202.597L40.17 202.937L38.78 204.167L39.115 204.227L38.405 205.547L37.909 205.747L38.669 205.697L37.936 205.807L37.178 207.287L37.586 207.767L36.868 207.637L37.77 207.707L36.832 207.747L38.959 207.547" stroke="black" stroke-width="2.75" stroke-linecap="round" stroke-linejoin="round"/>
<path d="M126.666 105.176L125.179 99.5624L125.543 98.9994L123.534 96.8589L122.926 97.2778L123.928 98.2489L124.487 99.7488L126.317 101.429L126.562 103.698L127.313 104.397L131.236 111.568L132.565 114.884L134.969 118.251L135.107 119.198L135.888 119.752L135.88 121.557L137.221 124.452L137.689 124.361L137.285 124.295L137.602 123.985L138.144 124.174L137.35 124.037L138.046 124.028L137.655 123.928L137.873 123.672L138.034 123.909L137.578 123.928L138.193 123.905L141.618 128.485L144.242 133.019L147.713 142.06L150.164 146.633L150.296 147.875L150.952 148.741L152.727 154.087L153.619 158.208L159.843 174.146L160.146 176.358L162.137 181.023L165.527 192.089L166.025 192.569L166.419 196.552L167.243 199.721L168.218 201.937L168.791 204.831L169.551 205.39L169.222 205.763L169.722 207.706L170.122 208" stroke="black" stroke-width="2.75" stroke-linecap="round" stroke-linejoin="round"/>
<path d="M107.273 68.5811L106.853 70.0771L107.308 70.3071L106.625 70.3391L106.661 70.7851L103.963 72.4991L103.431 74.3971L102.87 74.4531L102.762 74.954L103.173 75.0401L102.66 74.998L102.953 75.2831L102.445 75.3331L102.086 76.7031L101.728 76.6251L102.252 76.7061L101.16 78.3801L101.987 78.3741L101.244 78.3781L101.916 78.2501L101.75 77.9031L102.148 77.8671L101.65 77.8691L101.75 77.3641L101.255 78.0471L101.716 77.7991" stroke="black" stroke-width="2.75" stroke-linecap="round" stroke-linejoin="round"/>
<path d="M102.432 76.2281L100.598 78.0541L98.155 79.4301L95.868 78.9641L93.968 77.7341L92.351 77.2982L91.418 76.4201L91.553 75.5981L89.593 74.0142L87.222 70.5391L87.544 68.0211L86.75 68.0222L87.57 67.7191L86.848 67.7772L87.473 67.7462L87.655 67.1831L88.111 67.3881L87.249 68.0612L88.358 69.3961L88.257 74.2531L89.076 75.9901L89.075 82.6301L90.106 81.9022" stroke="black" stroke-width="2.75" stroke-linecap="round" stroke-linejoin="round"/>
<path d="M96.2748 77.0229L95.4608 78.71L95.8929 78.801L95.8109 79.163L95.1309 80.0209L95.4839 80.936L95.2328 84.168L95.7198 87.1619L96.3268 89.0109L97.0849 89.8149" stroke="black" stroke-width="2.75" stroke-linecap="round" stroke-linejoin="round"/>
<path d="M100.637 84.626L100.279 89.0629L101.482 94.6829" stroke="black" stroke-width="2.75" stroke-linecap="round" stroke-linejoin="round"/>
<path d="M105.672 78.707L104.544 86.442L104.856 89.419L104.406 91.162L104.624 93.448L105.421 92.168" stroke="black" stroke-width="2.75" stroke-linecap="round" stroke-linejoin="round"/>
<path d="M110.314 79.7871L110.394 82.2932L108.852 89.4681L109.074 93.9841L110.454 90.0681" stroke="black" stroke-width="2.75" stroke-linecap="round" stroke-linejoin="round"/>
<path d="M115.469 76.429L114.936 77.7159L114.957 78.33L115.341 78.3229L114.275 83.3359L113.844 90.0959L114.402 90.6039L114.442 89.744L116.647 86.424L117.027 84.5779" stroke="black" stroke-width="2.75" stroke-linecap="round" stroke-linejoin="round"/>
<path d="M120.162 76.0959L119.577 84.6479L118.701 90.3409L119.223 94.3179L120.235 93.9639L121.675 90.8939" stroke="black" stroke-width="2.75" stroke-linecap="round" stroke-linejoin="round"/>
<path d="M126.381 74.3589L125.688 75.5279L123.311 92.1539L123.636 92.4059L124.036 91.9589L125.834 87.5059" stroke="black" stroke-width="2.75" stroke-linecap="round" stroke-linejoin="round"/>
<path d="M130.763 72.365L130.967 75.819L130.448 80.455L129.369 84.551L129.466 86.811L129.086 87.379L129.117 87.908L129.649 87.719L130.953 83.756" stroke="black" stroke-width="2.75" stroke-linecap="round" stroke-linejoin="round"/>
<path d="M134.388 68.7749L134.134 74.2349L132.336 79.6109L132.621 80.7939L132.813 80.3559L132.389 80.3439L132.362 79.8949L133.373 79.1759L133.42 78.5659" stroke="black" stroke-width="2.75" stroke-linecap="round" stroke-linejoin="round"/>
<path d="M135.504 69.759L136.016 70.199L135.609 70.904L135.82 71.401" stroke="black" stroke-width="2.75" stroke-linecap="round" stroke-linejoin="round"/>
<path d="M110.141 69.649H109.494L109.592 70.188L109.026 70.9551L108.756 70.5901L107.062 73.2671L106.776 75.05L105.814 75.3771L106.896 74.8121L109.052 72.3921L109.911 70.4961L108.894 74.3351L109.014 75.2411L109.221 74.1501L109.955 73.7861L111.021 72.0671L114.458 69.3581L113.998 70.993L116.998 70.3561L117.512 69.6761L118.248 69.7841L118.651 71.1151L119.845 71.7751L119.661 71.1801L121.579 69.4441L122.293 68.0491L122.131 68.8071L123.372 69.8541L119.69 69.7231" stroke="black" stroke-width="2.75" stroke-linecap="round" stroke-linejoin="round"/>
<path d="M107.384 64.9021L106.343 65.7031L105.488 67.2811L105.052 70.3021L104.342 71.1291L104.574 71.5391L105.294 67.7361L106.007 66.61L105.691 66.6221L104.553 67.9901L102.084 73.0131L101.848 76.576L102.294 76.4781" stroke="black" stroke-width="2.75" stroke-linecap="round" stroke-linejoin="round"/>
<path d="M111.534 65.5469L111.116 65.6169L110.96 66.3829L111.726 66.6519L110.301 70.2119L110.89 71.9269L112.168 71.3709" stroke="black" stroke-width="2.75" stroke-linecap="round" stroke-linejoin="round"/>
<path d="M116.048 63.8701L114.711 69.0571L115.978 71.8671" stroke="black" stroke-width="2.75" stroke-linecap="round" stroke-linejoin="round"/>
<path d="M118.424 67.1321L118.066 68.5411L118.646 72.5691L119.723 73.6161L120.544 72.8171" stroke="black" stroke-width="2.75" stroke-linecap="round" stroke-linejoin="round"/>
<path d="M121.438 67.3301L122.427 71.4101L123.325 72.1421L125.613 76.2551" stroke="black" stroke-width="2.75" stroke-linecap="round" stroke-linejoin="round"/>
<path d="M100.22 48.7861L100.328 48.3131L99.522 48.0361L99.009 48.7932L96.413 50.2491L93.748 54.4622L94.182 54.8922L93.668 55.7911L94.213 56.9171L93.694 58.2191L94.241 59.0142L94.146 59.7601L96.722 62.8981L98.669 63.3721L102.362 63.1611L105.899 61.3322L108.798 57.4251L109.218 56.0651L108.829 54.6831L109.335 53.3671L108.408 51.7241L106.799 50.7861L106.239 49.7191L105.021 48.9152L101.65 47.7852L97.992 48.5201L95.654 51.1021L95.227 56.8301L95.941 57.8762L96.078 59.3972L98.732 62.4301L104.236 63.4481L106.004 63.3171L108.49 61.3181L109.523 61.0371L111.601 59.1461L112.923 55.7321L112.466 54.2131L112.973 53.1931L112.977 51.3541L112.387 49.4531L111.721 49.1321L112.037 49.0291L111.446 48.2191L109.275 47.9851L103.837 49.5761L102.843 50.3381L103.241 50.9111L102.658 51.7161L102.03 51.7791L101.921 50.6231L101.289 50.2741L101.608 50.6101L100.441 51.3001" stroke="black" stroke-width="2.75" stroke-linecap="round" stroke-linejoin="round"/>
<path d="M109.757 56.6341L107.166 57.3921L109.754 56.912L113.057 54.6531L115.029 54.3L117.469 54.8461L118.934 55.9751L118.797 56.7101L119.283 57.1391L118.958 56.9821L119.738 56.8221L118.621 56.7701" stroke="black" stroke-width="2.75" stroke-linecap="round" stroke-linejoin="round"/>
<path d="M122.686 54.3801L120.389 55.7801L119.271 55.7661L118.081 56.9641L116.956 61.4881L117.789 63.2181L120.49 64.4711L123.957 64.8661L127.704 64.23L129.499 62.8751L131.383 60.1401L131.988 57.7671L131.764 56.8881L129.877 54.2321L125.196 52.4821L121.164 52.6371L116.684 54.295L116.723 55.8661L116.176 56.2711L116.474 56.7141L115.876 57.8351L116.304 61.0231L118.98 63.7991L121.14 64.8511L125.746 65.9961L127.251 65.8651L129.192 64.4131L131.546 60.329L131.733 57.2451L131.061 54.3381L131.279 53.0361L129.936 51.1661L127.471 49.6381L123.034 49.1601L118.343 50.7141L117.246 50.3641L115.585 53.6081L115.461 54.1321L116.696 55.9881L117.433 58.1251L121.125 62.4041L125.601 64.2121L127.83 64.537L130.612 62.8911L132.017 60.92L133.953 55.1951L132.537 51.6691L131.179 50.7081L129.602 48.4701L126.556 46.7031L123.112 46.3921L121.87 46.9431L120.062 48.959" stroke="black" stroke-width="2.75" stroke-linecap="round" stroke-linejoin="round"/>
<path d="M94.6743 104.668L94.8933 103.906L94.5903 104.039L95.0713 103.768L94.7573 103.772L95.4163 103.547L94.9523 102.935L95.5163 103.145L94.7093 103.263L95.3163 103.251L92.4613 106.063L90.2433 109.049L88.0873 113.401L88.0273 113.855L88.6943 114.022" stroke="black" stroke-width="2.75" stroke-linecap="round" stroke-linejoin="round"/>
<path d="M88.3191 113.646L88.1851 113.28L87.7191 114.361L87.2871 114.271L87.5491 114.566L88.4301 114.666L89.0551 115.897L90.5671 117.324L93.2451 118.979L100.977 121.946L101.76 122.622L105.167 123.293L107.412 122.787L114.738 122.501L122.243 120.561L124.317 119.549L124.731 119.176L124.53 118.828L125.892 118.228L125.556 118.087L127.87 116.741L128.359 115.961L128.728 116.079L128.201 115.952L128.854 115.905L129.336 114.853L130.183 114.287L130.536 113.542L130.046 113.526L130.801 113.628L130.246 113.631L131.24 112.559L130.607 112.96L132.01 112.76L131.39 112.752L131.68 112.759L131.456 113.338L131.804 113.261L131.281 113.272L133.024 112.765L133.538 112.086" stroke="black" stroke-width="2.75" stroke-linecap="round" stroke-linejoin="round"/>
<path d="M82.0938 122.622L82.2288 121.973L82.7878 122.419L83.2867 121.828L83.0417 122.169L83.5738 122.57L86.3788 123.123L90.7878 125.871L99.0847 128.275L102.435 129.693L110.382 130.616L122.778 128.767L123.994 127.809L125.153 127.955L129.449 126.512L130.765 125.112L134.624 122.761L135.277 122.047L135.011 121.942L135.779 121.772L134.958 121.871L135.712 122.007L135.205 122.198L135.071 122.682L135.442 122.536L137.975 119.77" stroke="black" stroke-width="2.75" stroke-linecap="round" stroke-linejoin="round"/>
<path d="M84.8453 53.457L83.9313 53.719L84.2623 53.272L83.9923 52.907L83.3223 53.526L85.3883 54.109L84.8643 54.171L86.1913 55.001L91.5713 56.994L95.7583 57.526L96.4133 57.968" stroke="black" stroke-width="2.75" stroke-linecap="round" stroke-linejoin="round"/>
<path d="M130.457 55.7429L129.012 56.6119L129.118 56.983L129.546 56.949L129.288 56.6619L130.146 56.869L137.009 53.507L139.222 53.2529" stroke="black" stroke-width="2.75" stroke-linecap="round" stroke-linejoin="round"/>
<path d="M100.505 54.6081L100.287 53.6351L99.8824 53.6651L99.5915 53.0181L99.6974 53.756L98.2365 54.4221L92.6055 60.5421L94.9365 59.6241L98.1445 56.2471L99.7184 55.1981L100.18 54.2581L102.09 53.2861L97.1064 62.355L97.4375 63.0141L100.536 60.7491L104.295 56.5231L104.787 54.9371L101.69 58.9211L100.053 62.0871L100.055 63.2401L100.963 63.4731L104.043 61.493" stroke="black" stroke-width="2.75" stroke-linecap="round" stroke-linejoin="round"/>
<path d="M121.134 53.0869L120.828 54.5849L118.684 58.8389L126.198 55.1039L126.647 55.1949L125.682 55.5639L125.795 56.6519L124.31 59.9489L124.462 60.4649L124.784 60.3289L124.396 59.9729L127.979 57.9759" stroke="black" stroke-width="2.75" stroke-linecap="round" stroke-linejoin="round"/>
<path d="M136.703 192.234L136.128 191.578L135.265 191.497L134.925 191.886L134.867 193.164L135.478 193.391L134.913 193.367L135.442 193.966L138.506 202.707L139.71 204.657L140.62 207.579L140.878 208" stroke="black" stroke-width="2.75" stroke-linecap="round" stroke-linejoin="round"/>
<path d="M90.0488 206.767L112.707 165.699" stroke="black" stroke-width="2.75" stroke-linecap="round" stroke-linejoin="round"/>
<path d="M115.028 171.422L114.458 170.851L112.707 171.302L113.388 171.48L113.68 173.814L115.089 176.707L119.822 183.647L122.709 189.257L124.276 193.867L126.112 195.497L126.452 197.507L127.836 200.827L127.869 202.777L129.047 204.587L128.745 204.717L129.184 205.167L129.022 205.757L129.439 205.857L128.97 205.497L129.377 205.267L126.636 202.077L115.238 193.987L112.363 192.537L109.58 190.247L103.393 187.137L100.72 184.897L97.6689 181.315L89.7549 177.342L86.252 177.277L86.722 177.178L86.662 177.666L88.6979 178.933" stroke="black" stroke-width="2.75" stroke-linecap="round" stroke-linejoin="round"/>
<path d="M92.0117 175.75L93.4027 176.742L105.894 176.828L109.206 176.536L116.844 174.628L131.554 174.467L134.333 174.046" stroke="black" stroke-width="2.75" stroke-linecap="round" stroke-linejoin="round"/>
<path d="M133.295 176.861L133.826 177.21L133.088 177.292L133.201 177.707L132.312 178.045L131.239 179.313L116.006 187.887L110.293 190.327L106.137 193.887L102.067 196.317L95.3893 202.047L91.8753 202.867L90.9473 203.547L91.8483 203.397L91.2913 203.367L91.9083 202.807L91.5483 203.217" stroke="black" stroke-width="2.75" stroke-linecap="round" stroke-linejoin="round"/>
<path d="M64.9552 196.425L65.1052 196.052L65.8208 196.168L68.3414 194.427L68.7393 194.891L68.3123 194.85L69.0138 195.364L68.4997 195.422L69.0818 195.961L68.6614 196.168L68.9392 196.492L64.7031 208" stroke="black" stroke-width="2.75" stroke-linecap="round" stroke-linejoin="round"/>
</svg>
