<svg width="75" height="104" viewBox="0 0 75 104" fill="none" xmlns="http://www.w3.org/2000/svg">
<path d="M36.1834 2.93848H36.1764L35.2838 3.58988L34.2988 4.54332" stroke="#292562" stroke-width="1.49399" stroke-linecap="round" stroke-linejoin="round"/>
<path d="M31.4044 8.17634L31.318 8.26868L29.5263 11.0209L29.5181 11.8532L29.1542 12.2921L29.0287 13.1657L28.3344 14.6027L28.4338 15.7207L27.0772 20.4863L27.3369 21.5304L27.0626 22.3556L26.9316 27.8861L27.1087 28.9998L27.5488 29.7148L27.6129 31.7113L27.9655 32.7147L29.6355 35.1192L30.0348 36.0857L32.3084 38.7439L33.4346 40.7035L34.5885 41.7303L39.511 42.9276L43.3454 43.0662L44.2223 42.8652L48.0181 40.4194L50.2471 37.9312L52.1823 36.385L52.8689 35.3995L53.0884 34.5705L53.673 33.9555L54.696 31.727L56.3486 24.6841L56.1036 23.8958L56.3437 22.5219L56.0916 20.6807L56.1872 18.5636L55.4424 14.971L54.967 14.3495L55.444 12.95L54.797 12.0813L54.8459 11.4196L54.4439 11.2485L54.5026 10.7139L53.8408 10.0892L52.1839 6.00379L51.4803 5.05794L48.5755 3.73455L47.5281 2.85499L45.87 2.80774L42.1524 1.53323L41.2538 1.75761L39.7093 1.49194L36.3182 1.94502L35.1073 2.39213L33.9773 3.1511L32.9706 4.79937L32.2383 4.82272L30.609 7.48909L30.1521 7.73901L30.3162 7.7667L30.0859 8.03236L30.3102 9.50298L29.7903 10.1989L29.7767 10.7916L29.9799 10.8536" stroke="#292562" stroke-width="1.49399" stroke-linecap="round" stroke-linejoin="round"/>
<path d="M30.1437 47.665L30.1404 48.4126L28.1308 51.8455L27.825 52.8924L26.9471 53.6997L26.9156 54.3739L26.4272 55.5207L24.2079 58.6662L23.5739 60.2347L19.111 66.9136L17.4143 70.4422L15.828 72.9553L14.4437 76.3785L12.551 79.449L11.8132 81.9481L9.98946 85.0806L9.78737 86.1225L8.9453 87.1461L8.88228 88.3201L8.15592 89.33L6.92488 91.9431L5.73784 93.2144L4.73985 94.8659L4.73877 95.0615L5.02234 94.8225L4.61272 94.8659L4.1542 97.3052L3.46426 98.2125L3.64734 98.7014L3.13123 99.5109L2.70151 99.6521L2.59502 100.065L2.82321 100.25L2.06805 100.918L2.25004 100.951L1.86433 101.668L1.59486 101.776L2.00775 101.749L1.60954 101.809L1.19774 102.613L1.41939 102.874L1.02933 102.803L1.51935 102.841L1.00977 102.863L2.16531 102.754" stroke="#292562" stroke-width="1.49399" stroke-linecap="round" stroke-linejoin="round"/>
<path d="M49.8133 47.1393L49.0054 44.0893L49.2031 43.7835L48.1117 42.6206L47.7812 42.8482L48.3259 43.3758L48.6297 44.1906L49.6236 45.1035L49.7568 46.3362L50.1645 46.7156L52.2957 50.6118L53.0178 52.4131L54.324 54.2421L54.3991 54.7569L54.8233 55.0575L54.8191 56.0381L55.5476 57.6113L55.8018 57.5617L55.5822 57.526L55.7544 57.3576L56.0491 57.4599L55.6174 57.3859L55.9958 57.3805L55.7831 57.3262L55.9014 57.1876L55.9888 57.3161L55.7416 57.3267L56.0757 57.3139L57.9362 59.8021L59.3617 62.2653L61.2472 67.1768L62.579 69.6613L62.6504 70.336L63.007 70.8065L63.9715 73.711L64.456 75.9498L67.8374 84.6083L68.0021 85.81L69.0834 88.3446L70.9252 94.356L71.1959 94.6171L71.4096 96.7808L71.8573 98.5022L72.387 99.7066L72.6982 101.279L73.1112 101.582L72.9327 101.785L73.204 102.84L73.4214 103" stroke="#292562" stroke-width="1.49399" stroke-linecap="round" stroke-linejoin="round"/>
<path d="M39.278 27.2578L39.0499 28.0706L39.297 28.1955L38.926 28.2129L38.9455 28.4552L37.4798 29.3864L37.1908 30.4175L36.886 30.4479L36.8273 30.7201L37.0506 30.7668L36.7719 30.744L36.9311 30.8988L36.6551 30.926L36.4601 31.6703L36.2656 31.6279L36.5503 31.6719L35.957 32.5813L36.4063 32.5781L36.0027 32.5802L36.3677 32.5107L36.2776 32.3222L36.4938 32.3026L36.2232 32.3037L36.2776 32.0294L36.0086 32.4004L36.2591 32.2657" stroke="#292562" stroke-width="1.49399" stroke-linecap="round" stroke-linejoin="round"/>
<path d="M36.6485 31.4124L35.6521 32.4044L34.3249 33.152L33.0824 32.8988L32.0502 32.2306L31.1718 31.9937L30.6649 31.5167L30.7382 31.0702L29.6734 30.2096L28.3853 28.3218L28.5603 26.9538L28.1289 26.9544L28.5744 26.7897L28.1821 26.8213L28.5217 26.8044L28.6206 26.4985L28.8683 26.6099L28.4 26.9756L29.0025 27.7008L28.9476 30.3395L29.3925 31.2831L29.392 34.8904L29.9521 34.4949" stroke="#292562" stroke-width="1.49399" stroke-linecap="round" stroke-linejoin="round"/>
<path d="M33.3031 31.8442L32.8609 32.7607L33.0956 32.8102L33.0511 33.0068L32.6816 33.473L32.8734 33.9701L32.737 35.7259L33.0016 37.3524L33.3314 38.3569L33.7432 38.7937" stroke="#292562" stroke-width="1.49399" stroke-linecap="round" stroke-linejoin="round"/>
<path d="M35.673 35.9746L35.4785 38.3851L36.1321 41.4382" stroke="#292562" stroke-width="1.49399" stroke-linecap="round" stroke-linejoin="round"/>
<path d="M38.4085 32.7593L37.7957 36.9615L37.9652 38.5788L37.7207 39.5257L37.8391 40.7676L38.2721 40.0722" stroke="#292562" stroke-width="1.49399" stroke-linecap="round" stroke-linejoin="round"/>
<path d="M40.93 33.3457L40.9735 34.7072L40.1357 38.6051L40.2563 41.0585L41.0061 38.9311" stroke="#292562" stroke-width="1.49399" stroke-linecap="round" stroke-linejoin="round"/>
<path d="M43.7305 31.5215L43.4409 32.2207L43.4523 32.5542L43.6609 32.5504L43.0818 35.2738L42.8477 38.9463L43.1508 39.2223L43.1725 38.7551L44.3704 36.9515L44.5769 35.9486" stroke="#292562" stroke-width="1.49399" stroke-linecap="round" stroke-linejoin="round"/>
<path d="M46.281 31.3408L45.9632 35.9869L45.4873 39.0797L45.7709 41.2403L46.3207 41.0479L47.103 39.3801" stroke="#292562" stroke-width="1.49399" stroke-linecap="round" stroke-linejoin="round"/>
<path d="M49.6581 30.397L49.2816 31.0321L47.9902 40.0644L48.1668 40.2014L48.3841 39.9585L49.3609 37.5393" stroke="#292562" stroke-width="1.49399" stroke-linecap="round" stroke-linejoin="round"/>
<path d="M52.039 29.3135L52.1498 31.19L51.8679 33.7085L51.2817 35.9338L51.3344 37.1616L51.1279 37.4701L51.1448 37.7575L51.4338 37.6548L52.1422 35.5019" stroke="#292562" stroke-width="1.49399" stroke-linecap="round" stroke-linejoin="round"/>
<path d="M54.0083 27.3633L53.8704 30.3295L52.8936 33.2501L53.0484 33.8928L53.1527 33.6549L52.9224 33.6483L52.9077 33.4044L53.4569 33.0138L53.4825 32.6824" stroke="#292562" stroke-width="1.49399" stroke-linecap="round" stroke-linejoin="round"/>
<path d="M54.6152 27.8979L54.8934 28.137L54.6723 28.52L54.7869 28.79" stroke="#292562" stroke-width="1.49399" stroke-linecap="round" stroke-linejoin="round"/>
<path d="M40.8371 27.8382H40.4856L40.5388 28.131L40.2313 28.5477L40.0846 28.3494L39.1643 29.8038L39.009 30.7724L38.4863 30.9501L39.0741 30.6431L40.2454 29.3284L40.7121 28.2984L40.1596 30.384L40.2248 30.8762L40.3373 30.2835L40.736 30.0857L41.3151 29.1519L43.1824 27.6801L42.9324 28.5684L44.5622 28.2223L44.8415 27.8529L45.2413 27.9116L45.4603 28.6346L46.1089 28.9932L46.009 28.67L47.051 27.7269L47.4389 26.969L47.3508 27.3808L48.025 27.9496L46.0247 27.8784" stroke="#292562" stroke-width="1.49399" stroke-linecap="round" stroke-linejoin="round"/>
<path d="M39.3386 25.2593L38.773 25.6944L38.3085 26.5517L38.0717 28.1929L37.686 28.6422L37.812 28.8649L38.2032 26.7989L38.5905 26.1872L38.4188 26.1937L37.8006 26.9369L36.4593 29.6657L36.3311 31.6014L36.5733 31.5482" stroke="#292562" stroke-width="1.49399" stroke-linecap="round" stroke-linejoin="round"/>
<path d="M41.5927 25.6096L41.3656 25.6477L41.2809 26.0638L41.697 26.21L40.9229 28.144L41.2428 29.0757L41.9371 28.7736" stroke="#292562" stroke-width="1.49399" stroke-linecap="round" stroke-linejoin="round"/>
<path d="M44.0447 24.6987L43.3184 27.5167L44.0067 29.0433" stroke="#292562" stroke-width="1.49399" stroke-linecap="round" stroke-linejoin="round"/>
<path d="M45.3371 26.4709L45.1426 27.2364L45.4577 29.4247L46.0428 29.9935L46.4888 29.5594" stroke="#292562" stroke-width="1.49399" stroke-linecap="round" stroke-linejoin="round"/>
<path d="M46.9727 26.5784L47.51 28.7949L47.9978 29.1926L49.2408 31.427" stroke="#292562" stroke-width="1.49399" stroke-linecap="round" stroke-linejoin="round"/>
<path d="M35.4462 16.504L35.5049 16.247L35.067 16.0966L34.7883 16.5078L33.378 17.2988L31.9302 19.5876L32.166 19.8212L31.8867 20.3096L32.1828 20.9213L31.9008 21.6287L32.198 22.0606L32.1464 22.4658L33.5459 24.1706L34.6036 24.4281L36.6099 24.3135L38.5315 23.3199L40.1064 21.1973L40.3346 20.4585L40.1232 19.7076L40.3981 18.9927L39.8945 18.1001L39.0204 17.5905L38.7162 17.0109L38.0545 16.5741L36.2231 15.9602L34.2358 16.3595L32.9657 17.7622L32.7337 20.8741L33.1216 21.4423L33.196 22.2686L34.6378 23.9164L37.628 24.4694L38.5885 24.3983L39.9391 23.3122L40.5003 23.1596L41.6292 22.1323L42.3474 20.2775L42.0991 19.4523L42.3745 18.8982L42.3767 17.8991L42.0562 16.8664L41.6944 16.692L41.866 16.636L41.545 16.196L40.3655 16.0688L37.4112 16.9332L36.8712 17.3472L37.0874 17.6585L36.7707 18.0958L36.4295 18.13L36.3703 17.502L36.027 17.3124L36.2003 17.4949L35.5663 17.8698" stroke="#292562" stroke-width="1.49399" stroke-linecap="round" stroke-linejoin="round"/>
<path d="M40.6283 20.7675L39.2207 21.1793L40.6267 20.9185L42.4211 19.6913L43.4924 19.4995L44.818 19.7961L45.6139 20.4095L45.5395 20.8088L45.8035 21.0419L45.6269 20.9566L46.0507 20.8697L45.4438 20.8414" stroke="#292562" stroke-width="1.49399" stroke-linecap="round" stroke-linejoin="round"/>
<path d="M47.6517 19.543L46.4038 20.3036L45.7964 20.296L45.1499 20.9468L44.5387 23.4046L44.9913 24.3444L46.4587 25.0251L48.3422 25.2397L50.3778 24.8942L51.353 24.1581L52.3765 22.6722L52.7052 21.3831L52.5835 20.9055L51.5583 19.4626L49.0153 18.5119L46.8248 18.5961L44.391 19.4968L44.4122 20.3503L44.115 20.5703L44.2769 20.811L43.952 21.42L44.1845 23.1519L45.6383 24.66L46.8118 25.2316L49.3141 25.8536L50.1317 25.7824L51.1862 24.9936L52.4651 22.7749L52.5666 21.0995L52.2016 19.5202L52.32 18.8128L51.5904 17.7969L50.2512 16.9668L47.8407 16.7071L45.2923 17.5514L44.6963 17.3612L43.7939 19.1236L43.7266 19.4083L44.3975 20.4166L44.7979 21.5775L46.8036 23.9022L49.2353 24.8844L50.4463 25.061L51.9576 24.1667L52.7209 23.096L53.7727 19.9858L53.0034 18.0702L52.2657 17.5481L51.4089 16.3323L49.7541 15.3723L47.8831 15.2034L47.2084 15.5027L46.2262 16.5979" stroke="#292562" stroke-width="1.49399" stroke-linecap="round" stroke-linejoin="round"/>
<path d="M32.4334 46.8629L32.5524 46.4489L32.3877 46.5212L32.649 46.3739L32.4785 46.3761L32.8365 46.2539L32.5844 45.9214L32.8908 46.0355L32.4524 46.0996L32.7821 46.0931L31.2311 47.6207L30.0261 49.2429L28.8549 51.6072L28.8223 51.8539L29.1846 51.9446" stroke="#292562" stroke-width="1.49399" stroke-linecap="round" stroke-linejoin="round"/>
<path d="M28.9816 51.7406L28.9088 51.5417L28.6556 52.129L28.4209 52.0801L28.5632 52.2404L29.0419 52.2947L29.3814 52.9635L30.2028 53.7387L31.6577 54.6378L35.8583 56.2497L36.2836 56.617L38.1346 56.9815L39.3542 56.7066L43.3342 56.5512L47.4114 55.4973L48.5382 54.9475L48.7631 54.7449L48.6539 54.5558L49.3938 54.2298L49.2113 54.1532L50.4684 53.422L50.7341 52.9982L50.9345 53.0623L50.6482 52.9934L51.003 52.9678L51.2648 52.3963L51.725 52.0888L51.9168 51.6841L51.6505 51.6754L52.0607 51.7308L51.7592 51.7324L52.2992 51.15L51.9553 51.3679L52.7175 51.2592L52.3807 51.2549L52.5383 51.2587L52.4166 51.5732L52.6056 51.5314L52.3215 51.5374L53.2684 51.262L53.5476 50.8931" stroke="#292562" stroke-width="1.49399" stroke-linecap="round" stroke-linejoin="round"/>
<path d="M25.5986 56.6168L25.672 56.2642L25.9757 56.5065L26.2467 56.1854L26.1137 56.3707L26.4027 56.5885L27.9265 56.8889L30.3218 58.3819L34.8293 59.6879L36.6493 60.4582L40.9666 60.9597L47.701 59.9552L48.3616 59.4347L48.9913 59.514L51.3252 58.7301L52.0401 57.9695L54.1366 56.6923L54.4913 56.3044L54.3468 56.2474L54.764 56.155L54.318 56.2088L54.7276 56.2827L54.4522 56.3864L54.3794 56.6494L54.581 56.5701L55.9571 55.0674" stroke="#292562" stroke-width="1.49399" stroke-linecap="round" stroke-linejoin="round"/>
<path d="M27.095 19.0415L26.5984 19.1838L26.7783 18.941L26.6316 18.7427L26.2676 19.079L27.39 19.3957L27.1053 19.4294L27.8262 19.8803L30.749 20.963L33.0237 21.252L33.3795 21.4922" stroke="#292562" stroke-width="1.49399" stroke-linecap="round" stroke-linejoin="round"/>
<path d="M51.8729 20.2834L51.0879 20.7555L51.1455 20.9571L51.378 20.9386L51.2378 20.7827L51.704 20.8951L55.4324 19.0687L56.6347 18.9307" stroke="#292562" stroke-width="1.49399" stroke-linecap="round" stroke-linejoin="round"/>
<path d="M35.6004 19.667L35.482 19.1384L35.262 19.1547L35.1039 18.8032L35.1614 19.2041L34.3677 19.566L31.3086 22.8908L32.575 22.3921L34.3178 20.5574L35.1729 19.9875L35.4238 19.4769L36.4615 18.9488L33.7538 23.8757L33.9337 24.2338L35.6173 23.0032L37.6594 20.7074L37.9267 19.8458L36.2442 22.0101L35.3549 23.7301L35.3559 24.3565L35.8492 24.4831L37.5225 23.4074" stroke="#292562" stroke-width="1.49399" stroke-linecap="round" stroke-linejoin="round"/>
<path d="M46.8076 18.8403L46.6413 19.6541L45.4766 21.9652L49.5587 19.9361L49.8026 19.9855L49.2784 20.186L49.3397 20.7771L48.533 22.5682L48.6156 22.8486L48.7905 22.7747L48.5797 22.5813L50.5262 21.4964" stroke="#292562" stroke-width="1.49399" stroke-linecap="round" stroke-linejoin="round"/>
<path d="M55.2658 94.4343L54.9536 94.0781L54.4844 94.0342L54.2998 94.2452L54.2686 94.94L54.6005 95.0631L54.2936 95.0499L54.5807 95.3753L56.2455 100.124L56.8993 101.184L57.394 102.771L57.5338 103" stroke="#292562" stroke-width="1.49399" stroke-linecap="round" stroke-linejoin="round"/>
<path d="M29.9219 102.33L42.2313 80.019" stroke="#292562" stroke-width="1.49399" stroke-linecap="round" stroke-linejoin="round"/>
<path d="M43.4915 83.1281L43.1818 82.8179L42.2306 83.0629L42.6005 83.1596L42.7592 84.4276L43.5247 85.9993L46.096 89.7696L47.6644 92.8173L48.5157 95.3218L49.5131 96.2073L49.6978 97.2993L50.4497 99.1029L50.4676 100.162L51.1076 101.146L50.9435 101.216L51.182 101.461L51.094 101.781L51.3206 101.836L51.0658 101.64L51.2869 101.515L49.7978 99.782L43.6056 95.3869L42.0437 94.5992L40.5318 93.3551L37.1706 91.6656L35.7184 90.4486L34.0609 88.5026L29.7615 86.3442L27.8584 86.3089L28.1137 86.2552L28.0811 86.5203L29.1872 87.2086" stroke="#292562" stroke-width="1.49399" stroke-linecap="round" stroke-linejoin="round"/>
<path d="M30.9883 85.4794L31.744 86.0184L38.53 86.0651L40.3293 85.9064L44.4787 84.8699L52.4702 84.7824L53.98 84.5537" stroke="#292562" stroke-width="1.49399" stroke-linecap="round" stroke-linejoin="round"/>
<path d="M53.4155 86.083L53.704 86.2726L53.3031 86.3171L53.3645 86.5426L52.8815 86.7262L52.2986 87.4151L44.023 92.0731L40.9193 93.3987L38.6614 95.3327L36.4503 96.6529L32.8224 99.7658L30.9133 100.211L30.4092 100.581L30.8987 100.499L30.5961 100.483L30.9313 100.179L30.7357 100.401" stroke="#292562" stroke-width="1.49399" stroke-linecap="round" stroke-linejoin="round"/>
<path d="M16.2893 96.7116L16.3708 96.5089L16.7595 96.5719L18.1289 95.626L18.3451 95.8782L18.1131 95.8557L18.4942 96.135L18.2149 96.1665L18.5311 96.4593L18.3028 96.5719L18.4537 96.7476L16.1523 103" stroke="#292562" stroke-width="1.49399" stroke-linecap="round" stroke-linejoin="round"/>
</svg>
