<svg width="83" height="92" viewBox="0 0 83 92" fill="none" xmlns="http://www.w3.org/2000/svg">
<path d="M8.11975 60.8558C8.33429 60.0661 7.86014 58.9682 7.40761 58.1767C7.26671 57.9407 7.11387 57.712 6.94968 57.4916C3.06856 51.6056 0.99993 44.7102 1.00018 37.6599C0.937077 17.4225 17.7183 1 38.4694 1C56.5667 1 71.6731 13.5373 75.2031 30.1797C75.732 32.6471 75.9991 35.1634 76 37.6869C76 57.9531 59.866 74.6334 39.1149 74.6334C35.8156 74.6334 31.3625 73.8041 28.934 73.1244C26.5055 72.4447 24.0807 71.5433 23.4551 71.3017C22.8152 71.0557 22.1357 70.9292 21.4502 70.9285C20.7015 70.9256 19.96 71.0747 19.2706 71.3666L7.04163 75.7801C6.77372 75.8955 6.48984 75.9697 6.19968 76C5.97071 75.9993 5.74415 75.9532 5.53313 75.8643C5.32211 75.7754 5.13082 75.6456 4.97035 75.4823C4.80987 75.3189 4.6834 75.1254 4.59825 74.9128C4.51311 74.7003 4.47099 74.4729 4.47433 74.244C4.48937 74.043 4.52563 73.8442 4.5825 73.6508L8.11975 60.8558Z" fill="white" stroke="#292562" stroke-miterlimit="10" stroke-linecap="round"/>
<path d="M77.0636 49.5C76.9149 50.0475 77.2436 50.8087 77.5574 51.3575C77.6551 51.5211 77.7611 51.6797 77.8749 51.8325C80.5658 55.9134 82 60.6943 81.9999 65.5825C82.0436 79.6138 70.4087 91 56.0212 91C43.4737 91 33 82.3075 30.5525 70.7687C30.1858 69.058 30.0006 67.3134 30 65.5637C30 51.5125 41.1862 39.9475 55.5737 39.9475C57.8612 39.9475 60.9487 40.5225 62.6324 40.9938C64.3162 41.465 65.9974 42.09 66.4312 42.2575C66.8748 42.428 67.3459 42.5157 67.8212 42.5163C68.3403 42.5182 68.8544 42.4149 69.3324 42.2125L77.8111 39.1525C77.9969 39.0724 78.1937 39.021 78.3949 39C78.5536 39.0005 78.7107 39.0325 78.857 39.0941C79.0033 39.1557 79.136 39.2457 79.2472 39.359C79.3585 39.4722 79.4462 39.6064 79.5052 39.7538C79.5642 39.9011 79.5934 40.0588 79.5911 40.2175C79.5807 40.3568 79.5556 40.4947 79.5161 40.6287L77.0636 49.5Z" fill="white" stroke="#292562" stroke-miterlimit="10" stroke-linecap="round"/>
</svg>
