<svg width="90" height="60" viewBox="0 0 90 60" fill="none" xmlns="http://www.w3.org/2000/svg">
<path d="M4.71777 9.80273L13.6484 9.80273L18.1113 17.4551L13.6484 25.1074L4.71777 25.1074L0.254882 17.4551L4.71777 9.80273Z" fill="white" stroke="#292562" stroke-width="0.440818"/>
<path d="M19.0439 34.8931L27.9746 34.8931L32.4375 42.5454L27.9746 50.1978L19.0439 50.1978L14.5811 42.5454L19.0439 34.8931Z" fill="white" stroke="#292562" stroke-width="0.440818"/>
<path d="M19.0439 1.43848L27.9746 1.43848L32.4375 9.09082L27.9746 16.7432L19.0439 16.7432L14.5811 9.09082L19.0439 1.43848Z" fill="white" stroke="#292562" stroke-width="0.440818"/>
<path d="M33.3711 26.5298L42.3018 26.5298L46.7646 34.1821L42.3018 41.8345L33.3711 41.8345L28.9082 34.1821L33.3711 26.5298Z" fill="#FFDD06" stroke="white" stroke-width="0.440818"/>
<path d="M47.6973 18.166L56.6279 18.166L61.0908 25.8184L56.6279 33.4707L47.6973 33.4707L43.2344 25.8184L47.6973 18.166Z" fill="#FFDD06" stroke="white" stroke-width="0.440818"/>
<path d="M62.0244 26.5298L70.9551 26.5298L75.418 34.1821L70.9551 41.8345L62.0244 41.8345L57.5615 34.1821L62.0244 26.5298Z" fill="#FFDD06" stroke="white" stroke-width="0.440818"/>
<path d="M76.3506 18.166L85.2812 18.166L89.7441 25.8184L85.2812 33.4707L76.3506 33.4707L71.8877 25.8184L76.3506 18.166Z" fill="white" stroke="#292562" stroke-width="0.440818"/>
<path d="M33.3711 9.80273L42.3018 9.80273L46.7646 17.4551L42.3018 25.1074L33.3711 25.1074L28.9082 17.4551L33.3711 9.80273Z" fill="white" stroke="#292562" stroke-width="0.440818"/>
<path d="M33.3711 43.2573L42.3018 43.2573L46.7646 50.9097L42.3018 58.562L33.3711 58.562L28.9082 50.9097L33.3711 43.2573Z" fill="white" stroke="#292562" stroke-width="0.440818"/>
<path d="M47.6973 34.8931L56.6279 34.8931L61.0908 42.5454L56.6279 50.1978L47.6973 50.1978L43.2344 42.5454L47.6973 34.8931Z" fill="white" stroke="#292562" stroke-width="0.440818"/>
<path d="M62.0244 43.2573L70.9551 43.2573L75.418 50.9097L70.9551 58.562L62.0244 58.562L57.5615 50.9097L62.0244 43.2573Z" fill="white" stroke="#292562" stroke-width="0.440818"/>
<path d="M76.3506 34.8931L85.2812 34.8931L89.7441 42.5454L85.2812 50.1978L76.3506 50.1978L71.8877 42.5454L76.3506 34.8931Z" fill="#FFDD06" stroke="white" stroke-width="0.440818"/>
</svg>
