<svg width="108" height="72" viewBox="0 0 108 72" fill="none" xmlns="http://www.w3.org/2000/svg">
<path d="M5.63574 11.7192L16.4033 11.7192L21.7852 20.9468L16.4033 30.1733L5.63574 30.1733L0.254882 20.9468L5.63574 11.7192Z" fill="white" stroke="#292562" stroke-width="0.440818"/>
<path d="M22.8271 41.8276L33.5947 41.8276L38.9766 51.0552L33.5947 60.2817L22.8271 60.2817L17.4463 51.0552L22.8271 41.8276Z" fill="white" stroke="#292562" stroke-width="0.440818"/>
<path d="M22.8271 1.68213L33.5947 1.68213L38.9766 10.9097L33.5947 20.1362L22.8271 20.1362L17.4463 10.9097L22.8271 1.68213Z" fill="white" stroke="#292562" stroke-width="0.440818"/>
<path d="M57.6592 22.5347L67.5312 22.5347L72.458 30.9819L67.5312 39.4292L57.6592 39.4292L52.7324 30.9819L57.6592 22.5347Z" stroke="#292562" stroke-width="2"/>
<path d="M74.4033 31.7915L85.1709 31.7915L90.5527 41.019L85.1709 50.2456L74.4033 50.2456L69.0225 41.019L74.4033 31.7915Z" fill="#FFDD06" stroke="white" stroke-width="0.440818"/>
<path d="M91.5947 21.7554L102.362 21.7554L107.744 30.9829L102.362 40.2095L91.5947 40.2095L86.2139 30.9829L91.5947 21.7554Z" fill="white" stroke="#292562" stroke-width="0.440818"/>
<path d="M40.0195 11.7192L50.7871 11.7192L56.1689 20.9468L50.7871 30.1733L40.0195 30.1733L34.6387 20.9468L40.0195 11.7192Z" fill="white" stroke="#292562" stroke-width="0.440818"/>
<path d="M40.0195 51.8647L50.7871 51.8647L56.1689 61.0923L50.7871 70.3188L40.0195 70.3188L34.6387 61.0923L40.0195 51.8647Z" fill="white" stroke="#292562" stroke-width="0.440818"/>
<path d="M57.2109 41.8276L67.9785 41.8276L73.3604 51.0552L67.9785 60.2817L57.2109 60.2817L51.8301 51.0552L57.2109 41.8276Z" fill="white" stroke="#292562" stroke-width="0.440818"/>
<path d="M74.4033 51.8647L85.1709 51.8647L90.5527 61.0923L85.1709 70.3188L74.4033 70.3188L69.0225 61.0923L74.4033 51.8647Z" fill="white" stroke="#292562" stroke-width="0.440818"/>
<path d="M91.5947 41.8276L102.362 41.8276L107.744 51.0552L102.362 60.2817L91.5947 60.2817L86.2139 51.0552L91.5947 41.8276Z" fill="#FFDD06" stroke="white" stroke-width="0.440818"/>
</svg>
