<svg width="732" height="416" viewBox="0 0 732 416" fill="none" xmlns="http://www.w3.org/2000/svg">
<path d="M320.762 67.89L322.188 67.2L335.093 66.93L353.148 70.59L366.873 69.71L375.431 67.39L385.718 66.81L398.922 66.7L414.041 67.8L416.006 67.08L420.492 67.41" stroke="black" stroke-width="5.5" stroke-linecap="round" stroke-linejoin="round"/>
<path d="M230.26 231.17H508.786" stroke="black" stroke-width="5.5" stroke-linecap="round" stroke-linejoin="round"/>
<path d="M500.43 239.53V401.07" stroke="black" stroke-width="5.5" stroke-linecap="round" stroke-linejoin="round"/>
<path d="M227.475 236.74V401.07" stroke="black" stroke-width="5.5" stroke-linecap="round" stroke-linejoin="round"/>
<path d="M3.59375 409.43H728.917" stroke="black" stroke-width="5.5" stroke-linecap="round" stroke-linejoin="round"/>
<path d="M395.891 7.65698L398.372 8.29199L404.676 11.288L406.184 11.513L409.549 12.693L411.873 12.906L415.453 14.168L418.541 16.458L421.953 17.444L423.559 18.738L424.808 20.284L425.359 21.639L428.019 24.093L429.175 26.306L429.57 27.808L432.62 31.944L433.625 32.651L435.041 34.498L435.775 36.503L438.186 38.913L438.27 39.69L439.626 42.655L439.86 44.451L440.766 46.457L441.727 51.02L442.67 52.86L442.424 53.29L442.645 55.15L442.908 56.34L443.218 56.54L442.821 57.73L444.465 62.57L444.408 65.65L444.839 65.59L444.412 67.5L444.618 69.82L445.147 71.09L444.717 72.33L444.964 72.64L444.65 72.91L445.12 73.6899L444.847 74.02L444.89 78.64L444.669 78.9L445.189 81.02L444.909 83.25L445.415 84.3101L445.344 85.0699L444.842 85.62L444.743 88.1L444.434 88.6899L444.39 90.63L444.637 90.99L444.27 91.85L444.639 92.2L444.274 92.72L444.061 100.71L443.296 102.87L442.932 105.8L442.559 106.07L442.971 107.4L442.438 109.49L443.23 111.23L443.886 115.22L446.193 120.87L446.965 121.67L446.949 122.79L448.069 124.35L448.438 125.99L449.547 126.86L449.845 127.92L450.977 129.09L452.112 131.51L453.047 132.66L454.124 135.45L455.218 136.32L455.513 137.24L456.552 138.22L460.138 143.23L463.868 147.74L464.445 149.62L465.128 150.52L464.885 151.25L467.767 156.14L469.235 157.98L469.267 159.24L470.448 160.6L470.564 164.31L471.034 165.88L470.31 169.57L470.42 174.76L470.052 175.37L470.355 175.66L470.768 178.24L470.802 180.11L471.469 181.91L470.505 182.9L470.723 183.07L469.326 187.82L469.662 188.64L469.048 189.35L469.26 189.76L468.905 191.49L469.148 191.73L468.068 192.32L467.526 195.17L467.749 196.66L467.385 196.84L467.504 198.34L467.085 199.69L467.266 200.52L466.948 200.97L467.193 201.06L466.51 201.32L467.011 201.97L466.627 202.9L466.49 206.81L466.151 207.05L466.611 208.04L465.807 208.48L465.994 208.84L465.696 209.41L465.952 209.19L465.516 209.46L465.861 210.49L465.171 211.06L465.443 211.31L464.995 213.17L465.255 213.75L464.271 215.16L464.125 216.16L464.356 216.13L463.773 216.5L464.211 217.46L464.354 220.09L464.089 220.9L464.788 221.26L464.044 221.08L464.435 221.19L464.361 221.97L465.118 222.59L464.621 222.92L464.86 222.9L465.127 224.79L465.625 225.82L465.156 225.88L465.111 226.23L465.525 227.2L465.86 227.25L465.352 227.37L465.627 227.36L465.446 228.32L465.692 229.61L465.098 229.71L465.881 230.05L465.724 230.56L466.099 230.77L465.628 230.69L466.661 231.35L466.25 231.76L466.477 231.31" stroke="black" stroke-width="6" stroke-linecap="round" stroke-linejoin="round"/>
<path d="M391.768 173.77L394.644 171.94L395.785 170.28L400.527 166.73L400.924 166.05L403.615 164.18L404.463 163.21L405.87 162.61L405.681 162.34L406.153 161.43L407.983 159.49L409.15 158.77L408.572 158.62L411.265 156.44L411.067 156.02L411.925 155.5L412.797 154.15L413.409 153.87L413.961 152.72L415.432 151.8L415.593 150.81L417.696 148.46L417.689 147.81L418.573 146.94L420.291 143.67L421.742 142.3L421.786 141.66L423.768 140.45L424.596 139.1L425.278 138.99L425.42 138.09L427.017 134.96L427.165 134.46L426.934 134.55L427.097 134.69L427.866 133.78L428.231 131.98L428.755 131.56L429.03 130.33L429.828 129.47L429.488 129.23L429.549 128.62L430.247 128.19L430.284 126.56L430.855 125.46L431.404 123.01L431.977 122.49L431.739 121.91L431.916 119.9L431.659 119.53L432.391 116.89L432.112 115.95L432.866 110.84L432.797 104.99L432.294 102.23L432.945 101.3L432.561 100.47L432.152 94.23L432.543 92.5601L431.806 91.8L431.528 86.89L430.769 85.8L430.717 84.38L429.881 82.4301L429.635 80.72L429.148 80.36L429.008 79.23L428.28 78.53L428.251 78.01L426.831 76.45L427.132 75.99L426.459 75.39L426.449 74.8L426.224 74.9L426.381 73.75L425.776 73.48L425.658 72.39L425.401 72.46L424.742 71.29L425.143 70.99L424.368 70.72L424.398 70.18L423.944 69.63L424.283 69.57L423.897 69.53L424.198 69.44L423.635 69.43L424.486 69.42L423.507 69.55L424.401 69.52L423.747 69.65L423.992 69.54L423.567 69.26L422.909 69.1L423.489 68.88L422.775 69.23L423.355 69.18L422.801 69.09L422.901 69.3L423.134 69.04L422.775 69.51L423.182 69.23L422.77 69.04L423.125 69.45L422.859 69.02L422.92 69.44L422.636 69.36L423.058 69.51L422.55 69.55L423.627 69.53L422.756 69.43L423.158 69.53L422.228 69.82L423.069 69.62L423.023 69.84L422.685 69.51L422.552 69.72L422.84 69.71L422.576 69.92L422.826 71.38L421.315 72.4" stroke="black" stroke-width="6" stroke-linecap="round" stroke-linejoin="round"/>
<path d="M402.6 170.86L401.703 170.71L402.536 170.68L402.316 170.92L402.559 171.3L400.204 176.06L399.764 179.15L398.663 182.03L398.863 184.59L398.365 185.67L397.067 192.03L397.25 194.44L396.916 203.2L398.078 208.93L398.465 209.33L398.414 210.57L398.905 211.33L399.503 216.15L400.091 216.45L400.248 218.17L401.573 220.12L402.279 220.76L402.745 220.7L402.092 220.65L402.957 221.11L402.866 222.23L403.545 222.49L403.329 222.54L403.736 223.03L403.94 224.24L404.013 223.93L404.423 223.96L404.035 224.07L405.59 225.35L405.814 226.42L406.356 226.32L406.766 227.39L407.656 227.72L407.427 227.97L408.29 227.94L408.315 228.22" stroke="black" stroke-width="6" stroke-linecap="round" stroke-linejoin="round"/>
<path d="M376.791 86.8101H425.791" stroke="black" stroke-width="6" stroke-linecap="round" stroke-linejoin="round"/>
<path d="M367.523 100.23H376.523" stroke="black" stroke-width="6" stroke-linecap="round" stroke-linejoin="round"/>
<path d="M369.937 94.8L369.348 95.38L369.032 95.1899L368.879 95.5L368.338 95.45L368.385 95.73L370.719 95.3L372.487 95.33L373.241 95.71L375.368 95.58L375.525 95.28L376.736 95.12L376.335 95.08L377.114 95.37H376.321L377.047 94.9399L376.744 94.9" stroke="black" stroke-width="6" stroke-linecap="round" stroke-linejoin="round"/>
<path d="M383.706 6.67798L383.616 6.26703L382.99 6.96399L382.176 6.79102" stroke="black" stroke-width="6" stroke-linecap="round" stroke-linejoin="round"/>
<path d="M366.918 4.74701L366.118 5.03003L362.903 5.30701L358.412 5.237L354.034 5.75598L353.441 6.25L352.224 6.586L350.402 6.46301L344.701 7.914L341.287 8.362L341.31 8.66803L338.748 9.34399L336.187 10.569L334.455 10.922L319.256 18.45L317.892 20.122L316.248 21.295L315.997 21.913L314.452 23.242L311.262 25.214L310.925 25.529L310.957 26.043L309.592 26.789L308.789 28.67L307.339 30.321L306.995 31.307L304.595 33.243L303.359 35.534L302.529 36.505L301.98 36.629L302.416 36.753L301.841 37.824L300.416 40.018L298.457 42.157L298.547 42.509L297.298 43.278L297.508 43.815L297.029 44.428L297.31 44.851L296.393 46.16L296.075 48.04L294.531 50.82L294.354 52.05L293.187 54.3L293.39 54.84L291.411 57.72L291.676 58.2L291.293 58.25L290.463 59.34L289.549 61.42L287.939 63.43L288.316 63.61L288.306 64.21L286.928 65.82L285.203 69.4L285.272 70.78L284.535 71.91L284.73 73L284.197 78.9L284.203 83.87L284.59 85.85L284.035 89.35L284.807 100.14L284.565 102.02L284.583 112.89L285.065 114.72L284.628 117.51L285.299 125.56L284.883 127.63L285.489 130.16L285.279 132.81L285.636 137L286.662 140.23L286.218 141.94L286.727 144.42L286.025 146L286.115 150.46L285.791 151.33L285.525 158.63L285.8 161.39L285.331 164.05L284.697 164.79L284.459 167.54L283.578 169.18L283.618 170.56L282.88 171.32L281.74 174.73L280.424 176.66L280.615 177.38L278.463 180L277.67 181.63L277.728 182.56L277.079 183.21L277.02 183.83L276.721 183.71L277.147 183.73L276.657 183.89L275.904 185.29L274.539 186.75L273.865 188.18L272.904 188.88L273.289 189.68L272.528 190.83L271.782 194.32L271.003 194.84L271.651 195.18L271.385 195.77L271.016 195.85L270.42 199.75L269.494 201.77L269.588 202.61L268.728 206.79L268.921 207.38L268.328 207.79L268.551 209.77L268.084 211.24L268.507 213.18L268.211 214.22L268.568 215.48L269.029 215.63L268.475 215.92L268.986 216.45L269.004 217.52L269.583 218.23L269.407 218.92L269.812 219.58L270.01 221.11L270.734 222.4L270.451 222.43L270.539 222.71L271.53 223.68L271.475 224.5L272.442 225.38L272.119 225.54L272.822 225.9L273.621 227.4L274.648 228.39L274.604 229.18L275.651 229.64L274.772 229.53L275.153 229.52H274.865L275.097 229.5L275.051 230.87L275.619 230.94L275.708 230.73L275.23 230.64L275.633 230.41H275.233H275.588H275.319L275.468 230.62L275.423 230.28L275.439 230.51L275.661 230.39L275.227 230.41L275.746 230.52L275.243 230.41H275.637H275.338L275.827 229.78" stroke="black" stroke-width="6" stroke-linecap="round" stroke-linejoin="round"/>
<path d="M317.852 145.77L311.251 140.96L308.075 136.72L304.019 128.42L303.061 122.57" stroke="black" stroke-width="5.5" stroke-linecap="round" stroke-linejoin="round"/>
<path d="M319.073 63.28L318.442 62.2L318.578 62.92L319.134 63.47L318.651 63.66L319.268 64.06L318.393 64.67L316.147 69.2L315.064 70.59L314.973 71.29L314.08 71.5699L313.917 71.96L314.283 72.34L314.067 72.89L312.235 75.54L312.618 75.8101L312.169 76.26L312.513 77.12L311.457 78.52L310.797 82.42L311.012 82.91L310.198 83.6801L310.166 84.39L308.999 85.4301L309.386 86.88L309.073 87.16L309.368 87.45L307.908 90.4301L308.037 92.38L307.438 93.98L306.939 96.96L305.986 98.13L306.247 98.39L305.931 98.99L306.357 99.28L305.656 101.26L305.692 102L305.283 102.38L306.074 102.95L305.21 103.33L304.597 106.95L304.682 107.31L305.226 107.38L304.414 107.79L305.109 108.18L304.724 108.88L304.997 109.57L304.77 109.76L305.417 112.2L304.419 113.39L305.034 113.76L305.327 115.17L304.969 119.1L305.398 119.89L305.017 119.96L305.535 120.22L305.263 120.51L305.349 121.1L306.384 122.37L306.051 123.15L306.215 124.44L306.826 124.72L307.013 125L306.588 125.36L307.497 126.04L306.537 127.21L307.2 127.51L307.82 128.44L309.979 133.64L311.336 135.44L311.094 135.67L311.516 136.26L311.612 137.27L312.141 137.65L312.149 138.68L313.454 139.55L313.835 140.6L314.511 141.08L314.404 141.72L314.926 142.08L316.058 143.94L315.956 144.31L317.819 145.59L318.064 146.66L318.529 147.2L318.447 146.98L318.798 147.07L319.275 147.85L319.125 148.27L320.235 149.05L320.773 150.14L321.768 151.05L321.632 151.74L322.32 151.99L322.69 152.73L324.179 153.75L323.461 154.42L324.184 154.58L324.311 154.77L323.854 154.85L324.203 154.78L324.256 155.16L325.066 155.7L325.952 157.91L326.585 158.15L326.396 158.42L327.02 158.78L326.726 159.04L327.261 159.33L327.439 159.62L327.21 159.81L328.142 160.18L327.594 160.55L328.292 160.9L328.625 161.79L329.559 162.73L329.546 163.84L330.617 164.22L330.874 165.36L331.935 165.9L332.141 166.21L331.908 166.72L333.445 167.9L333.571 168.65L334.369 168.93L334.63 169.34L334.378 169.68L335.642 169.92L335.829 170.22L335.129 170.32L337.486 171.68L338.108 172.42L341.18 173.77L342.827 174.07L344.303 174.85L344.347 175.15L345.206 175.08L346.384 175.54L349.323 177.39L350.255 177.41L350.465 177.49L349.985 177.45L350.31 177.51L350.094 177.71L350.933 177.77L352.388 178.5L354.005 178.52L357.326 179.21L358.905 179.65L359.169 179.78L358.901 179.97L360.209 180.41L361.675 180.44L361.999 180.57L360.947 180.62L362.659 180.7L364.516 181.48L365.604 181.34L372.42 182.04L374.147 181.45L375.446 181.38L375.127 181.17L377.529 180.69L377.808 180.51L377.454 180.42L379.749 180.51L379.298 180.42L380.006 180.41L380.367 180.05L380.656 180.1L380.357 180.32L382.776 179.79L382.721 180L384.071 179.97L384.257 179.81L383.761 179.68L383.741 179.99L384.82 179.77L384.469 180L385.055 179.84L385.814 180.1L385.385 179.88L385.652 179.79L385.15 179.83L387.064 179.29L386.68 178.99L387.128 179.06L388.985 176.74" stroke="black" stroke-width="6" stroke-linecap="round" stroke-linejoin="round"/>
<path d="M342.849 179.75L342.594 179.65L342.498 178.52L341.821 177.94L342.048 176.6L341.629 176.85L341.866 177.24L341.472 177.38L341.823 177.41L341.644 177.75L342.002 178.35L342.056 179.49L343.462 182.92L343.508 184.58L344.627 187.12L344.758 188.47L345.661 189.86L346.077 191.82L345.907 193.77L347.185 197.24L347 198.01L347.34 199.26L347.104 199.58L347.703 200.04L347.396 200.97L347.642 203.98L347.29 204.54L347.702 204.84L347.308 204.93L347.669 205.06L347.348 205.19L347.551 206.67L347.206 206.83L347.932 207.55L347.458 207.81L346.962 209.51L347.368 210.32L346.924 210.25L347.465 210.81L347.173 210.9L346.765 212.5L347.243 212.65L346.723 212.5L346.738 213.45L346.107 213.97L346.01 214.75L346.357 214.89L345.926 214.86L345.743 215.86L345.459 215.77L345.906 215.69L345.344 215.77L345.669 215.76L343.86 217.38L343.873 217.92L343.28 218.03L343.681 218.59L343.384 218.72L343.246 220.26L342.696 220.52L342.763 221.02L343.15 220.97L342.764 220.83L342.798 221.39L342.133 221.82L342.515 222.09L341.722 223.31L341.938 223.32L341.462 224.39L341.118 224.54L341.39 224.81L340.817 224.79L341.294 224.74L340.779 224.92L340.457 225.7L340.172 225.46L339.448 226.7L338.826 226.82L339.019 226.99L338.081 227.93L336.302 228.85L336.642 228.96L336.117 229L336.405 228.98H336.155L336.289 229.78L335.596 230.56L335.865 230.76L335.128 231.32L334.831 232.86L334.279 233.24L333.953 234.09L333.516 233.92L334.246 233.89L333.633 233.9L334.095 233.89L333.906 233.65L334.07 233.96L333.938 233.63L333.731 233.81L334.244 233.34L333.861 233.8" stroke="black" stroke-width="6" stroke-linecap="round" stroke-linejoin="round"/>
<path d="M371.523 87.23V138.23" stroke="black" stroke-width="4" stroke-linecap="round" stroke-linejoin="round"/>
<path d="M223.211 246.74L222.147 249.14L221.039 250.51L221.203 250.86L220.885 251.29L220.519 253.85L220.103 254.4L220.34 254.56L220.198 255L217.68 259.41L217.245 261.45L215.583 265.86L214.85 266.97L214.534 268.36L212.926 270.46L207.88 279.88L202.094 287.85L199.567 292.25L198.036 293.56L197.985 294.79L197.503 295.51L193.252 300.69L193.103 301.38L191.665 302.67L191.157 303.77L189.722 304.57L186.845 307.58L182.014 310.54L179.438 313L177.407 315.47L174.602 317.14L168.069 322.32L166.729 323.76L164.973 324.71L163.888 325.79L158.372 328.64L156.952 329.9L154.856 330.45L149.115 332.95L145.159 336.38L144.032 336.75L144.053 337.18L142.379 338.62L141.985 339.34L140.462 340.1L140.393 340.57L139.387 340.72L139.016 341.5L138.336 341.9L134.445 347.99L133.208 349.08L132.564 350.24L130.906 351.22L131.406 351.42L130.247 351.56L130.446 351.67L129.887 352.24L129.29 353.93L128.755 354L129.49 354.15L128.131 355.12L127.816 355.87L125.592 357.97L125.992 358.45L125.523 358.77L125.654 359.03L124.702 360.46L124.523 361.3L124.345 361.02L124.121 361.44L123.815 362.72L121.833 365.92L122.347 366.61L121.037 367.48L121.48 367.71L120.093 371.26L120.201 372.45L119.923 372.14L120.118 372.25L119.055 372.99L118.164 373.19L118.594 373.29L118.313 373.83L117.796 374.14L116.585 376.06L115.548 376.46L114.672 378.13L112.631 380.06L112.422 380.74L111.498 381.15L111.93 381.18L110.64 383.07L110.254 384.6L110.812 386.85L110.507 388.44L110.033 389.08L110.496 390.57L109.973 391.58L110.626 392.8L110.905 394.68L111.244 394.92L110.995 395.48L111.433 397.16L111.154 398.47L111.433 399.4L111.085 399.84L111.375 400.09L111.54 401.52H111.874L112.028 402.67L112.784 402.98L112.542 403.37L113.387 403.72L113.497 404.51L115.315 405.83L115.685 406.98L116.061 407.14L115.699 407.1L116.097 407.19L115.717 407.26L116.241 407.06L115.711 407.32L116.043 407.16L115.829 406.91L116.183 407L115.612 407.02L116.19 406.58L115.507 404.72L115.581 404.13L116.015 403.81" stroke="black" stroke-width="6" stroke-linecap="round" stroke-linejoin="round"/>
<path d="M113.07 401.81L112.961 397.58L111.757 394.86L111.307 391.88L112.724 389.48L112.918 388.2L116.717 380.22L119.873 376.83L120.011 376.24L122.464 374.93L124.962 372.82L125.931 372.7L127.385 371.96L129.202 370.02L130.229 369.38L133.695 368.27L134.806 368.22L139.874 366.04L140.83 364.95L142.385 364.96L145.189 365.86L150.084 366.75L152.553 368.11L153.932 368.26L157.359 370.34L162.57 371.92L166.582 374.05L167.074 374.02L168.05 375.32L169.851 376.68L171.725 379.03L173.244 380.01L173.574 381.27L173.933 381.22L174.876 382.8L176.69 387.31L177.5 387.79L177.176 388.36L178.109 389.32L177.955 390.01L178.493 390.32L179.227 392.03L180.355 393.4L181.211 395.99L181.999 396.63L181.728 397.03L182.787 398.15L184.417 403.39L184.404 405.49L184.671 406.11L184.402 407.02L185.013 407.21L184.551 407.07L184.906 407.85L184.903 408.17L184.639 408.06L185.112 408.13L185.142 409.09L184.835 409.42L185.514 409.61L185.061 409.57L185.506 409.87L185.452 410.5L185.66 410.39L185.23 410.36L185.476 410.47L185.254 410.61L185.758 410.27L185.088 410.64L185.654 410.46L185.147 410.59L185.43 410.69L185.193 410.49L185.445 410.56L185.249 410.71L185.612 410.5L185.101 410.7L185.59 410.6L185.173 410.49L185.477 410.37L185.426 410.62L185.222 410.44L185.546 410.63L185.655 410.25L185.393 410.7L185.291 410.39L185.522 410.36L185.125 410.41H185.609L185.087 410.4L185.455 410.39L185.216 410.52L185.365 410.74L185.309 410.29L185.657 410.32L185.117 410.62L185.363 410.46L185.451 410.68L185.177 410.57L185.466 410.68L185.201 410.64L185.471 410.69L185.156 410.58L185.478 410.47L185.232 410.42L185.2 412.07" stroke="black" stroke-width="6" stroke-linecap="round" stroke-linejoin="round"/>
<path d="M510.029 258.8L510.065 256.87L511.557 262.88L512.668 264.88L513.609 265.79L514.744 268.49L514.667 269.77L515.657 271.71L517.189 277.71L517.174 280.32L517.838 285.07L519.007 287.47L520.658 295.02L523.666 302.34L524.832 303.7L525.623 307.4L526.611 309.39L527.496 312.52L529.004 320.28L528.87 321.09L530.226 324.3L530.73 329.99L531.466 332.78L533.032 336.63L532.855 338.52L533.905 340.57L533.828 342.65L536.698 351.03L537.262 351.77L537.562 353.94L539.126 357.69L539.482 359.79L540.037 360.85L540.781 364.78L541.729 367.25L541.579 367.98L542.432 369.95L543.108 372.77L544.759 385.72L545.158 386.42L545.751 386.75L545.411 387.27L546.526 389.81L546.341 390.46L547.059 391.25L546.645 390.93L547.063 391.28L546.965 391.09L546.507 391.43L546.447 391.96L547.257 394.27L546.992 395.35L547.402 396.62L547.952 397.14L547.874 398.34L548.775 400.23L548.644 400.74L548.37 400.49L548.604 400.76L548.096 402.11L547.239 404.18L546.457 405.12L546.938 404.85H546.434L546.75 404.61L546.469 404.63L546.639 404.87L545.815 404.75L544.224 405.61L542.636 406.65L540.424 408.75L539.59 409.28L539.265 409.14L539.523 409.55L539.192 409.8L539.222 410.32L538.963 410.15L540.975 410.62" stroke="black" stroke-width="6" stroke-linecap="round" stroke-linejoin="round"/>
<path d="M509.296 260.23L509.339 259.3L508.205 257.74L507.763 256.43L507.974 256.1L507.298 255.73L507.047 254.28L506.384 253.26L505.835 253.08L506.109 252.67L505.414 252.06L504.66 249.26L504.065 249.06L504.557 248.86L504.023 248.71L504.407 248.62L504.067 248.63L504.749 245.47" stroke="black" stroke-width="6" stroke-linecap="round" stroke-linejoin="round"/>
<path d="M438.783 136.94L438.178 137.07L438.257 136.4L438.014 136.48L434.624 140.19L427.615 149.19L425.392 151.38L413.573 161.55L411.817 162.6L426.543 147.49L433.727 137.24L436.023 135.18L435.058 135.58L434.562 137.05L426.644 146.62L421.869 151.57L411.576 161L408.99 164.36L408.953 164.67L410.402 164.03L410.625 163.49L420.571 153.38L431.049 143.53L432.981 141.49L437.651 135.45L427.124 148.4L421.699 153.68L411.387 162.76L409.423 165.11L409.655 165.33L410.336 165.17L411.903 164.43L425.275 152.51L432.248 147.86L437.67 141.57L427.977 153.97L420.701 160.73L409.247 173.62L408.996 174.03L409.415 174.01L411.508 172.53L416.829 167.8L423.897 160.1L431.218 153.89L435.423 149.55L442.06 140.9L444.392 138.58L429.236 155.35L425.928 158.5L418.668 164.23L407.14 175.12L403.833 178.73L403.219 179.78L403.679 178.83L406.848 176.77L413.292 169.82L427.088 156.96L427.987 155.61L423.346 158.73L416.548 164.93L413.56 168.48L409.161 171.85L408.727 172.54L407.878 172.81L407.564 172.6L406.637 173.06L404.562 174.43L404.036 175.21" stroke="black" stroke-width="6" stroke-linecap="round" stroke-linejoin="round"/>
<path d="M400.937 178.54L401.67 178.3L402.134 177.24L403.948 175.42L408.768 171.5L418.622 162.44L434.803 150L437.6 147.73L438.653 146.42L438.649 146.74L435.938 150.91L434.025 153.23L426.087 161.6L415.981 171.19L409.485 177.86L404.106 183.96L399.893 188.2L399.322 189.78L413.107 177.57L432.141 161.86L443.289 151.14L445.815 149.34L447.569 148.67L444.913 152.4L424.048 175.57L414.485 184.9L411.016 188.85L415.741 184.84L423.721 176.78L439.703 163.25L444.65 158.58L449.224 155.1L455.453 150.99L456.568 149.89L457.008 149.84L453.454 154.23L445.833 162.28L427.981 182.87L421.33 189.11L413.787 195.02L416.808 192.17L419.462 188.68L443.863 166.25L452.449 159.03L456.018 156.9L456.921 156.59L457.238 156.83L445.071 168.08L435.257 178.01L424.659 189.69L414.237 199.21L409.459 204.41L412.496 201.99L418.051 195.71L424.762 189.43L433.216 182.99L447.819 171.13L460.441 162.71L462.614 160.76L464.07 159.98L462.433 161.15L457.401 167.32L449.595 175.31L429.159 195.71L426.861 197.8L420.541 202.56L419.643 203L419.265 203.09L419.52 202.8L421.807 201L428.89 194.13L431.55 192.07L438.075 184.97L443.208 180.09L452.931 171.84L457.436 168.67L458.187 168.62L454.629 171.23L443.287 182.47L435.49 189.56L423.572 201.17L419.093 205.04L412.237 211.96L406.422 216.31L408.267 214.4L415.587 208.42L423.338 201.03L437.795 189.7L441.589 186.36L448.867 180.89L459.748 173.56L470.062 166.05L446.128 187.07L421.363 212.02L418.231 214.23L417.425 214.56L417.111 214.3L431.417 201.73L436.799 196.34L446.999 187.15L458.797 178.56L434.178 204.57L425.701 214.2L420.009 218.37L429.306 211.48L436.689 204.58L444.252 195.6L447.165 192.94L460.866 182.92L460.792 183.34L459.723 183.96L459.003 185.12L449.368 195.51L444.422 200.29L435.145 211.06L433.502 212.7L429.973 215.12L436.808 208.55L443.094 201.96L458.66 188.48L454.815 192.47L445.788 203.56L441.274 209.62L434.48 216.58L442.654 208.6L446.285 205.53L451.621 199.68L457.7 193.83L462.746 190.05L465.712 188.33L464.255 189.5L461.26 193.62L452.429 202.68L444.784 211.39L440.14 215.82L436.071 219.09L439.635 216.45L445.618 210.2L454.604 202.41L458.39 199.59L460.351 198.9L459.408 200.32L455.632 204.34L452.482 208.8L441.061 221.52L438.326 225.16L438.264 225.7L438.606 225.95L442.107 223.77L449.245 218.58L455.176 213.69L458.298 210.45L461.749 207.52L463.021 205.95L462.323 206.3L461.73 207.63L453.423 216.92L445.569 224.35L446.423 223.88L453.917 217.05L462.517 211.62L461.755 212.16L455.551 222.7L453.7 224.78L454.971 223.45" stroke="black" stroke-width="6" stroke-linecap="round" stroke-linejoin="round"/>
<path d="M399.252 205.86L399.469 205.96L403.694 202.21L407.091 199.8L420.907 191.38L424.163 188.21" stroke="black" stroke-width="6" stroke-linecap="round" stroke-linejoin="round"/>
<path d="M405.123 195.7L405.439 195.55L405.156 195.09L406.104 193.77L411.891 187.69L420.779 181.52" stroke="black" stroke-width="6" stroke-linecap="round" stroke-linejoin="round"/>
<path d="M405.003 192.47L404.576 191.92L404.707 191.58L407.301 188.99L413.162 184.72L417.195 182.42" stroke="black" stroke-width="6" stroke-linecap="round" stroke-linejoin="round"/>
<path d="M405.158 199.88L418.118 190.57" stroke="black" stroke-width="6" stroke-linecap="round" stroke-linejoin="round"/>
<path d="M410.184 203.06L414.73 199.02L419.91 195.94" stroke="black" stroke-width="6" stroke-linecap="round" stroke-linejoin="round"/>
<path d="M414.465 208.96L420.425 203.85" stroke="black" stroke-width="6" stroke-linecap="round" stroke-linejoin="round"/>
<path d="M411.941 219.52L413.984 216.76L419.284 212.13L426.117 208.9" stroke="black" stroke-width="6" stroke-linecap="round" stroke-linejoin="round"/>
<path d="M416.123 225.95L417.254 225.01L419.005 222.66L424.116 218.07L427.669 215.71L430.482 214.7L431.322 214.02" stroke="black" stroke-width="6" stroke-linecap="round" stroke-linejoin="round"/>
<path d="M426.391 224.16L431.961 219L434.865 215.65L442.689 211.56" stroke="black" stroke-width="6" stroke-linecap="round" stroke-linejoin="round"/>
<path d="M434.168 224.79H434.665L436.893 222.04L439.273 220.01L440.537 218.41L446.104 214.73" stroke="black" stroke-width="6" stroke-linecap="round" stroke-linejoin="round"/>
<path d="M460.585 182.12L458.349 183.79L455.514 186.52" stroke="black" stroke-width="6" stroke-linecap="round" stroke-linejoin="round"/>
<path d="M466.013 173L464.934 172.72L463.388 173.39L460.58 175.59L458.629 177.62" stroke="black" stroke-width="6" stroke-linecap="round" stroke-linejoin="round"/>
<path d="M465.039 160.12L461.801 160.56L458.157 162.86L454.255 166.35L453.171 166.79L452.51 166.61L452.544 166.36" stroke="black" stroke-width="6" stroke-linecap="round" stroke-linejoin="round"/>
<path d="M455.576 147.52L454.176 147.81L451.617 149.13L449.385 150.72L448.617 151L448.469 150.75" stroke="black" stroke-width="6" stroke-linecap="round" stroke-linejoin="round"/>
<path d="M453.025 140.77L452.332 140.09L451.067 139.98L450.157 141.02L447.121 142.71L445.923 144.12L445.3 144.36L445.287 143.83" stroke="black" stroke-width="6" stroke-linecap="round" stroke-linejoin="round"/>
<path d="M447.933 133.94L442.436 136.32L441.26 137.27L441.506 136.74" stroke="black" stroke-width="6" stroke-linecap="round" stroke-linejoin="round"/>
<path d="M447.28 125.9L443.546 128.27L435.52 134.58" stroke="black" stroke-width="6" stroke-linecap="round" stroke-linejoin="round"/>
<path d="M441.155 123.63L439.194 123.87L435.287 127.19" stroke="black" stroke-width="6" stroke-linecap="round" stroke-linejoin="round"/>
<path d="M328.719 22.336L327.217 25.331L325.925 29.209L319.06 52.62L317.895 61.04L318.28 62.41L319.2 62.57" stroke="black" stroke-width="6" stroke-linecap="round" stroke-linejoin="round"/>
<path d="M327.248 31.496L325.674 30.992L325.182 31.716L316.454 56.12L315.538 59.19L314.904 64.75L315.31 64.99L316.005 64.74L316.669 64L317.151 61.77L318.903 57.62" stroke="black" stroke-width="6" stroke-linecap="round" stroke-linejoin="round"/>
<path d="M333.516 24.244L332.043 26.733L329.312 34.226L325.399 49.33L324.232 55.02L325.189 56.3L325.11 56.01L326.031 54.64" stroke="black" stroke-width="6" stroke-linecap="round" stroke-linejoin="round"/>
<path d="M332.015 31.824L330.803 34.051L329.353 39.825L327.51 45.51L326.13 50.97L325.171 56.59L324.295 66.93L324.527 68.27L325.905 69.4L326.362 69.1L327.029 65.21" stroke="black" stroke-width="6" stroke-linecap="round" stroke-linejoin="round"/>
<path d="M335.421 30.785L334.199 29.96L333.893 31.652L332.554 34.803L329.736 45.329L327.982 54.21L327.078 61.57L327.301 63.26L328.034 64.47L328.304 63.15L329.102 62.07L330.348 58.57" stroke="black" stroke-width="6" stroke-linecap="round" stroke-linejoin="round"/>
<path d="M338.319 31.541L338.684 29.968L336.561 35.573L334.381 44.775L333.29 48.01L330.518 64.11L330.923 65.76L331.918 65.16L332.232 64.53L332.302 63.68L333.635 60.62L336.013 51.66" stroke="black" stroke-width="6" stroke-linecap="round" stroke-linejoin="round"/>
<path d="M344.126 24.174L340.412 34.873L338.206 46.337L336.187 54.3L336 56.35L336.266 58.97L337.296 60.76L338.481 60.47" stroke="black" stroke-width="6" stroke-linecap="round" stroke-linejoin="round"/>
<path d="M344.33 41.993L342.044 50.33L339.674 56.78L338.252 63.7L338.496 67.28L339.627 66.88L341.028 65.22" stroke="black" stroke-width="6" stroke-linecap="round" stroke-linejoin="round"/>
<path d="M350.645 32.211L348.94 32.63L348.09 33.791L343.681 48.82L343.09 55.98L343.495 60.98L344.449 62.35L344.926 62.57" stroke="black" stroke-width="6" stroke-linecap="round" stroke-linejoin="round"/>
<path d="M353.227 27.576L351.487 30.305L349.352 39.808L348.313 49.69L348.07 61.36L348.474 65.43L349.209 66.54L350.04 67.1L352.146 62.02L353.035 57.37" stroke="black" stroke-width="6" stroke-linecap="round" stroke-linejoin="round"/>
<path d="M357.376 30.072L356.898 29.81L354.635 38.059L351.828 53.36L351.801 57.39L352.255 60.41L352.528 60.65L353.42 60.26L353.818 59.63L355.107 55.85" stroke="black" stroke-width="6" stroke-linecap="round" stroke-linejoin="round"/>
<path d="M360.827 30.873L361.157 29.887L361.106 30.684L360.244 32.964L357.791 44.257L357.5 50.03L356.078 59.44L356.794 63.38L358.031 64.31L358.521 64.2L359.139 62.79" stroke="black" stroke-width="6" stroke-linecap="round" stroke-linejoin="round"/>
<path d="M367.706 29.065L365.969 33.131L365.206 35.822L364.03 41.706L363.632 47.01L362.482 54.48L362.359 60.08L363.246 70.84L363.675 73.1" stroke="black" stroke-width="6" stroke-linecap="round" stroke-linejoin="round"/>
<path d="M371.446 22.94L370.965 20.895L370.431 20.724L368.922 21.645L367.268 26.681L366.081 33.284L364.825 45.88L364.056 56.11L364.301 58.28L363.904 60.17L364.166 61.77L366.943 64.92L367.547 64.78L367.955 64.11L368.329 62.06" stroke="black" stroke-width="6" stroke-linecap="round" stroke-linejoin="round"/>
<path d="M373.995 35.159L373.059 36.699L370.107 52.07L369.226 58.93L368.039 64.87L368.078 66.78L368.752 68.06L369.286 67.69L370.623 65.25L372.779 59.68L378.087 41.007L379.753 30.032L380.374 27.692L377.612 33.235L377.109 35.04L376.099 39.839L375.309 46.794L375.756 50.54L375.418 52.57L375.578 57.55L376.615 57.18L378.002 54.79L379.568 50.11" stroke="black" stroke-width="6" stroke-linecap="round" stroke-linejoin="round"/>
<path d="M382.139 32.212L381.621 31.78L381.056 31.868L380.796 33.182L378.611 46.681L377.356 52.02L376.604 62.1L376.952 63.83L377.882 65.78L378.667 65.98L379.061 65.73L380.247 63.43L383.349 52.17" stroke="black" stroke-width="6" stroke-linecap="round" stroke-linejoin="round"/>
<path d="M385.9 26.057L385.538 25.539L384.946 25.92L384.833 29.965L383.324 38.172L383.651 46.626L383.104 51.85L383.12 54.18L384.047 59.35L384.968 61.26L385.619 61.17" stroke="black" stroke-width="6" stroke-linecap="round" stroke-linejoin="round"/>
<path d="M390.738 29.608L389.949 29.5L389.06 31.217L388.069 41.02L388.028 47.22L387.656 50.08L388.129 63.75L389.392 68.47L390.043 69.69L391.482 65.25" stroke="black" stroke-width="6" stroke-linecap="round" stroke-linejoin="round"/>
<path d="M395.361 31.782L393.631 32.157L392.706 33.596L392.598 34.422L393.063 40.093L393.096 47.2L393.751 54.57L394.376 58.41L395.243 60.96L396.229 58.72L397.791 53.22L398.451 47.75L399.091 45.151L398.958 41.135L398.504 38.236L398.79 35.348L397.904 33.07L397.346 32.503L397.628 33.137L397.192 38.008L397.389 40.749L400.428 55.26L402.048 60.32L403.249 61.05L403.7 59.8L405.184 52.38L406.048 44.57L405.965 42.328L404.754 36.315L403.29 31.483L403.313 30.526L404.557 36.371L404.392 38.841L404.941 47.59L407.032 56.93L407.798 57.89L407.958 57.58L409.147 49.36L409.08 36.973L408.856 36.907L409.08 42.145L410.098 51.11L411.018 53.89L413.002 63.05L414.713 68.18L415.472 69.78L415.75 70.01L415.84 69.78" stroke="black" stroke-width="6" stroke-linecap="round" stroke-linejoin="round"/>
<path d="M414.76 39.059L414.121 42.332L414.408 44.008L416.192 50.4L418.186 54.71L420.416 61.23L422.451 65.64L423.39 71.53" stroke="black" stroke-width="6" stroke-linecap="round" stroke-linejoin="round"/>
<path d="M421.455 43.862L421.211 44.758L422.966 47.89L425.855 56.9L428.307 72.3199L428.505 77.13L428.718 76.89" stroke="black" stroke-width="6" stroke-linecap="round" stroke-linejoin="round"/>
<path d="M426.921 38.909L426.805 39.616L431.44 62.26L435.575 77.61L435.799 82.28" stroke="black" stroke-width="6" stroke-linecap="round" stroke-linejoin="round"/>
<path d="M429.049 46.114L429.105 51.64L432.518 68.5L435.57 90.16L435.629 97.54L436.812 99.98" stroke="black" stroke-width="6" stroke-linecap="round" stroke-linejoin="round"/>
<path d="M432.604 56.3L431.921 56.93L431.921 57.52L431.621 57.77L432.322 59.31L432.999 62.67L434.662 67.29L435.186 70.01L438.248 98.35L438.318 103.33L438.553 104.56L439.444 106.13" stroke="black" stroke-width="6" stroke-linecap="round" stroke-linejoin="round"/>
<path d="M434.796 57.48L433.988 56.37L434.051 55.76L433.313 54.59L432.932 52.98L433.039 51.86L433.489 51.15L434.102 51.47L433.844 52.11L434.268 52.52L435.858 56.44L438.397 65.18L439.615 76.79L439.775 86.11L439.488 95.23L438.823 100.68L435.819 113.97" stroke="black" stroke-width="6" stroke-linecap="round" stroke-linejoin="round"/>
<path d="M441.59 102.76L441.43 105.17L442.187 107.48L442.531 126.21L443.466 129.5L444.728 131.06L445.593 131.26" stroke="black" stroke-width="6" stroke-linecap="round" stroke-linejoin="round"/>
<path d="M438.395 106.03L438.214 106.23L438.824 106.94L438.002 111.52L438.359 128.86L440.121 130.43L442.113 131.48" stroke="black" stroke-width="6" stroke-linecap="round" stroke-linejoin="round"/>
<path d="M437.813 110.33L437.222 110.45L437.518 110.77L436.851 113.59L436.645 122.25L437.316 126.11L438.432 129.03L440.595 131.78" stroke="black" stroke-width="6" stroke-linecap="round" stroke-linejoin="round"/>
<path d="M325.684 25.963L325.646 24.426L325.307 25.05L325.366 25.885L323.853 28.566L320.072 37.749L314.193 48.43L307.139 58.61L301.62 65L295.557 72.95" stroke="black" stroke-width="6" stroke-linecap="round" stroke-linejoin="round"/>
<path d="M318.194 37.302L317.972 36.826L317.3 36.637L316.561 37.297L312.585 44.442L308.782 53.1L306.558 59.58L303.673 65.89L302.844 68.84L302.107 69.7" stroke="black" stroke-width="6" stroke-linecap="round" stroke-linejoin="round"/>
<path d="M310.001 42.39L301.594 52.67L298.658 58.41L298.546 60.78L296.848 62.82" stroke="black" stroke-width="6" stroke-linecap="round" stroke-linejoin="round"/>
<path d="M310.925 34.87L307.502 41.601L303.684 48.2L299.061 57.52L296.132 64.85L294.998 68.53L293.852 74.49L294.329 74.53L294.447 74.23" stroke="black" stroke-width="6" stroke-linecap="round" stroke-linejoin="round"/>
<path d="M307.817 35.378L304.072 42.028L299.084 53.11L297.564 61.27L297.322 65.29L297.563 66.01" stroke="black" stroke-width="6" stroke-linecap="round" stroke-linejoin="round"/>
<path d="M305.864 40.645L300.951 49.14L297.434 56.92L295.227 65.07L288.767 82.6899L288.412 84.46L288.505 88.9301" stroke="black" stroke-width="6" stroke-linecap="round" stroke-linejoin="round"/>
<path d="M296.681 58.6L293.996 65.06L292.906 68.9L291.002 86.09L289.064 95.6801L289.099 99.26L289.685 100.06" stroke="black" stroke-width="6" stroke-linecap="round" stroke-linejoin="round"/>
<path d="M295.388 62.11L293.109 64.58L290.498 68.78L288.42 77.39L287.838 83.25L286.88 88.5L286.699 91.02L287.385 95.15L289.157 99.4L289.779 100.36L290.697 100.98" stroke="black" stroke-width="6" stroke-linecap="round" stroke-linejoin="round"/>
<path d="M289.14 76.38L287.755 77.3L285.551 79.84L285.492 82.41L283.977 86.3199L283.434 91.21L284.584 96.15L287.198 102.25L291.435 108.51L294.08 111.75L295.07 112.43" stroke="black" stroke-width="6" stroke-linecap="round" stroke-linejoin="round"/>
<path d="M306.444 50.13L302.249 62.3L296.808 82.28L295.564 87.35L289.39 119.18L289.082 123.74L289.639 127.1L290.393 130.26L290.75 130.79L291.463 130.74" stroke="black" stroke-width="6" stroke-linecap="round" stroke-linejoin="round"/>
<path d="M311.189 55.05L309.157 62.17L307.61 70.74L303.903 81.1899L300.343 88.64L299.001 92.62L294.552 113.86L294.238 119.47L295.016 120.43L295.317 120.34L295.167 119.53" stroke="black" stroke-width="6" stroke-linecap="round" stroke-linejoin="round"/>
<path d="M310.821 65.33L308.684 68.79L307.986 71.09L305.511 84.37L302.846 104.93L302.472 114.77L301.646 119.72L302.112 120.47L302.073 120.7L301.611 120.65" stroke="black" stroke-width="6" stroke-linecap="round" stroke-linejoin="round"/>
<path d="M299.646 63.82L297.052 73.78L294.768 87.87L292.525 111.2L292.07 125.96L292.249 131.01L292.524 131.77L292.811 131.73" stroke="black" stroke-width="6" stroke-linecap="round" stroke-linejoin="round"/>
<path d="M301.61 96.92L298.054 109.26L294.834 122.23L293.323 129.76L289.635 143.47L288.264 151.5L288.502 152.93" stroke="black" stroke-width="6" stroke-linecap="round" stroke-linejoin="round"/>
<path d="M300.997 114.26L299.263 117.09L297.591 122.74L294.646 130.71L289.799 148.63L288.67 155.57L288.828 158.52L289.314 158.5L290.34 157.27L293.055 152.76" stroke="black" stroke-width="6" stroke-linecap="round" stroke-linejoin="round"/>
<path d="M304.264 120.52L302.895 121.53L300.683 125.06L293.365 145.25L289.795 156.47L287.186 161.99L296.644 146.06L298.158 142.71L301.029 139.73L300.666 139.44L296.095 146.16L294.914 148.81L293.245 154.58L292.107 157.39L287.805 165.71L285.051 172.64L285.201 172.94L285.424 172.79L289.583 166.05L295.748 154.7L300.656 148.02L305.128 143.59L306.273 143.12L306.686 143.15L306.636 143.72L301.051 153.16L294.637 161.89L286.977 175.21L294.181 163.19" stroke="black" stroke-width="6" stroke-linecap="round" stroke-linejoin="round"/>
<path d="M310.206 145.92L310.77 140.7L310.146 142.23L306.761 146.33L298.082 160.41L292.099 169.18L289.987 173.4L289.68 174.55L290.1 175.13L294.574 169.71L299.366 161.79L303.161 156.59L306.83 152.6L311.678 148.85L309.241 151.21L308.744 152.47L301.34 162.59L295.114 171.92L291.264 178.55L285.493 187.26L283.273 189.78L284.615 187.4" stroke="black" stroke-width="6" stroke-linecap="round" stroke-linejoin="round"/>
<path d="M307.153 152.67L302.531 156.26L294.142 166.51L288.209 176.52L287.203 178.7L294.025 170.41L301.313 159.18L305.876 153.7L306.356 153.55L292.242 172.77L283.608 186.54L278.889 192.03L284 185.57L290.471 176.22L300.768 163.81L307.479 156.51L311.623 152.79L312.364 152.63L312.428 153L309.332 155.88L308.359 157.72L302.337 165.44L295.769 176.46L291.422 185.2L278.12 203.84L275.778 207.86L275.645 208.58L276.831 207.12L278.979 203.04L283.257 196.58" stroke="black" stroke-width="6" stroke-linecap="round" stroke-linejoin="round"/>
<path d="M306.653 171.96L299.406 181.09L292.21 191.43L290.582 193.49L288.341 195.48L296.825 187.34L306.306 177.2L316.735 168.09L322.407 162.32L324.085 160.15L324.626 160.1L324.584 160.66L313.505 175.14L302.018 187.87L295.839 195.43L288.142 205.55L285.294 210.35L283.242 213.11L287.511 208.24L295.536 197.75L305.013 187.21L307.266 184.26L324.055 168.62L326.208 167.27L326.418 167.43L326.028 168.77L325.101 170.97L316.291 183.32L311.923 189.97L300.648 203.08L294.216 211.19L297.891 207.05L302.828 199.55L305.651 196.31L311.45 190.05L324.895 176.64L331.062 168.97L323.408 177.99L312.232 193.08L302.291 203.49L296.79 211.41L290.278 219.12L290.525 219.36L291.052 219.03L293.817 216.33L310.134 197.74L319.357 189.47L323.577 185.02L326.598 181.5L328.522 178.61L331.626 175.34L313.482 201.19L300.755 216.35L309.649 206.61L314.544 200.71L325.343 190.04L329.205 185.83L332.776 183.24L333.943 182.69L334.644 182.79L335.006 183.06L335.046 183.6L333.308 186.13L323.369 196.78L321.656 199.04L320.249 201.67L313.534 211.02L309.563 215.67L306.495 218.6L316.319 209.74L326.511 196.35L328.678 194.04L332.961 190.32L340.105 182.67L337.837 185.31L336.379 188.27L333.497 191.69L325.374 204.29L321.35 211.21L316.979 216.71L312.589 221.58L313.643 220.81L314.723 218.99L326.456 205.66L330.294 200.74L335.719 195.02L338.217 192.86L339.846 191.91L340.329 191.92L340.311 192.18L338.768 193.72L335.232 199.74L327.723 210.73L317.108 223.57L324.313 215.02L335.042 204.66L340.627 198.16L341.708 197.48L341.904 197.58L339.99 199.21L335.962 206.53L334.377 210.04L331.416 213.71L328.18 218.77L337 208.85L343.761 199.41L344.789 198.35L346.427 197.45L341.585 203.25L336 212.1L325.526 224.93L324.699 226.35L333.373 216.45L336.685 213.09L338.146 210.95L341.514 207.42L341.966 206.55L342.189 206.91L341.66 207.26L340.72 209.5L330.653 222.68L332.991 219.62L336.299 216.18L340.815 211.55L343.978 208.88L343.313 210.05L341.579 211.33L338.689 215.58L336.034 218.67L333.899 222.32L334.661 222.5L336.499 221.48L340.191 218.8L341.325 218.32L341.474 217.92L339.918 219.72L339.438 220.53L339.705 220.62L340.62 218.85L342.235 216.88L343.069 216.45L342.869 216.21L341.968 216.8L336.993 221.4L334.246 223.13L331.955 224.18L329.309 224.48L328.812 224.78L325.597 223.72L321.262 224.15L316.53 222.18L315.148 222.01L306.973 222.81L304.064 222.73L301.15 222.11L297.468 222.92L294.508 224.28L291.556 222.65L290.224 222.53L289.35 222.12L289.465 221.92L288.334 221.64L286.642 221.89L284.614 223.2L283.835 222.73L282.889 223.03L278.864 225.65L277.707 225.84L277.263 225.27L277.815 222.49L279.28 219L284.134 211.45L292.995 196.27L294.949 193.68L300.745 187.55L304.189 181.68L307.385 177.29L306.509 178.74L305.298 179.64L302.354 183.15L297.19 190.59L285.499 203.07L283.402 204.87L282.76 205.13L282.668 204.93L284.093 203.69L285.645 199.7L288.499 194.44L294.327 185.79L298.135 179.48L305.112 169.88L312.088 161.76L308.793 165.19L294.696 181.8L288.765 188.3L274.533 202.74L276.188 201.24L279.649 195.84L282.078 192.86L292.133 181.22L303.202 169.81L310.555 161.79L312.834 158.87L313.947 157.98L314.524 157.15L314.452 155.48L313.983 154.64L313.97 155.75L313.394 156.74L313.446 156.95L313.91 156.73L312.465 156.93L317.73 148.15L319.605 145.96L318.857 146.29L316.607 146.46L315.029 147.09L309.482 150.74L301.397 156.87L301.288 156.25L302.983 153.23L304.068 149.33L303.569 148.02L300.982 145.51L300.295 144.1L300.51 142.06L300.159 140.5L300.23 138.66L301.091 135.57L301.561 134.97L300.854 136.45L300.938 136.93L299.401 138.96L298.691 141.05" stroke="black" stroke-width="6" stroke-linecap="round" stroke-linejoin="round"/>
<path d="M374.057 18.465L373.957 15.518L373.525 13.853L372.979 13.046L371.933 13.058L367.827 16.121L360.538 23.454L356.327 26.325L353.336 27.642L353.284 26.53L355.058 23.453L360.845 17.572L363.821 13.809L364.124 13.291L363.991 12.868L362.981 12.609L360.291 13.337L352.744 16.111L349.113 17.973L345.095 21.175L348.147 17.396L350.311 15.429L352.441 11.101L352.297 10.703L347.825 13.899L345.279 16.61L340.115 20.698L337.662 22.259L336.531 22.382L336.905 21.869L336.82 21.325L338.422 18.484L342.439 13.283L342.85 11.835L341.481 11.238L338.594 13.026L334.529 17.116L327.258 23.57L321.992 28.031L321.548 28.089L323.315 26.736L327.142 21.725L332.008 16.079L333.642 13.773L334.579 11.394L332.092 12.191L319.105 21.934L312.37 25.029L307.463 26.547L307.688 27.17L308.013 26.906L307.884 25.564L309.908 23.28L315.851 20.563L317.856 20.337L319.395 20.967L320.145 22.002L319.615 24.08L317.44 27.954L319.635 27.419L328.527 22.268L340.248 16.646L352.89 11.437L357.214 9.24298L362.501 8.21198L364.42 8.59497L364.689 9.04999L364.092 10.991L355.536 21.32L351.128 25.821L348.412 29.114L351.499 26.714L353.899 24.009L362.37 16.574L367.62 12.995L369.035 12.754L368.729 13.236L369.213 13.878L369.141 14.268L367.62 16.606L365.309 19.224L364.158 21.372L364.256 21.743L364.806 21.593L372.641 16.694L380.853 8.96301" stroke="black" stroke-width="6" stroke-linecap="round" stroke-linejoin="round"/>
<path d="M384.184 10.444L376.687 21.224L371.867 27.443L372.565 27.187L374.747 25.26L391.921 9.30701L392.262 9.38501L392.114 9.724L390.865 10.924L379.353 25.508L378.945 27.1L381.279 25.782L392.765 15.657L397.607 12.029L397.592 12.585L390.026 23.168L385.999 29.649L392.51 24.325L399.785 19.023L402.543 16.053L406.72 13.574L407.02 13.123L407.17 13.735L406.066 16.225L401.261 21.558L395.449 29.537L399.72 27.008L400.534 25.948L410.536 17.932L404.624 25.947L403.377 27.988L402.899 29.609L406.083 27.752L411.453 22.948L415.186 21.123L416.02 21.429L415.379 21.886L415.866 22.125L418.733 21.894L419.018 22.821L418.24 25.203L414.626 30.806L415.258 30.155L416.386 30.231L417.534 30.876L416.982 31.931L419.229 29.891" stroke="black" stroke-width="6" stroke-linecap="round" stroke-linejoin="round"/>
<path d="M359.092 167.12L396.092 148.12" stroke="black" stroke-width="4" stroke-linecap="round" stroke-linejoin="round"/>
<path d="M431.926 230.2L432.298 231.79L436.371 233.58L435.855 233.14L438.099 231.5" stroke="black" stroke-width="5.5" stroke-linecap="round" stroke-linejoin="round"/>
<path d="M313.806 81.1L313.645 81.61L314.082 86.98L313.22 88.97L314.094 90.04L314.236 93.03L313.366 99.64L314.499 102.26L313.083 105.63L314.246 114.91L314.034 119.88L312.998 122.89L313.661 123.91" stroke="black" stroke-width="5.5" stroke-linecap="round" stroke-linejoin="round"/>
<path d="M317.039 86.61H366.039" stroke="black" stroke-width="6" stroke-linecap="round" stroke-linejoin="round"/>
<path d="M363.039 89.61V122.61" stroke="black" stroke-width="6" stroke-linecap="round" stroke-linejoin="round"/>
<path d="M320.039 124.61H363.039" stroke="black" stroke-width="6" stroke-linecap="round" stroke-linejoin="round"/>
<path d="M317.076 90.8101V123.81" stroke="black" stroke-width="6" stroke-linecap="round" stroke-linejoin="round"/>
<path d="M344.168 95.6899L342.229 99.4L339.738 103.21L331.382 113.79L327.306 119.61L325.773 122.46L325.41 123.88" stroke="black" stroke-width="2" stroke-linecap="round" stroke-linejoin="round"/>
<path d="M354.867 90.96L355.457 89.75L355.182 90.03L355.165 90.41L355.478 90.1899L355.063 91.51L354.019 93.46L348.754 101.06L335.224 119.32L332.711 123.42L328.855 131.03" stroke="black" stroke-width="2" stroke-linecap="round" stroke-linejoin="round"/>
<path d="M423.594 91.42V124.42" stroke="black" stroke-width="6" stroke-linecap="round" stroke-linejoin="round"/>
<path d="M380.594 126.42H423.594" stroke="black" stroke-width="6" stroke-linecap="round" stroke-linejoin="round"/>
<path d="M377.631 92.63V125.63" stroke="black" stroke-width="6" stroke-linecap="round" stroke-linejoin="round"/>
<path d="M430.594 94.42V108.42" stroke="black" stroke-width="6" stroke-linecap="round" stroke-linejoin="round"/>
<path d="M415.973 99.53H413.255H413.614L413.438 100.02L412.144 100.96L410.679 102.64L407.992 106.2L404.805 111.69L398.957 118.87L396.841 122.05L396.576 122.68L396.927 123.08" stroke="black" stroke-width="2" stroke-linecap="round" stroke-linejoin="round"/>
<path d="M410.473 97.03L410.994 95.67L411.531 95.47L410.742 96.61L408.145 98.64L404.426 103.71L400.212 107.92L389.588 120.08" stroke="black" stroke-width="2" stroke-linecap="round" stroke-linejoin="round"/>
<path d="M360.776 98.1801L361.432 97.11L361.76 96.85L361.772 97.14L359.02 101.5L344.031 116.56L339.657 121.96L339.309 123.05" stroke="black" stroke-width="2" stroke-linecap="round" stroke-linejoin="round"/>
<path d="M364.152 97.15L363.622 98.08L361.63 99.8L359.132 103L345.615 116.51L343.338 119.16L342.648 120.41" stroke="black" stroke-width="2" stroke-linecap="round" stroke-linejoin="round"/>
<path d="M358.612 101.96L348.084 111.89L336.904 121.24L336.393 121.71L336.97 121.57" stroke="black" stroke-width="2" stroke-linecap="round" stroke-linejoin="round"/>
<path d="M348.483 96.1899L334.37 108.63L327.532 115.47L325.566 118.12" stroke="black" stroke-width="2" stroke-linecap="round" stroke-linejoin="round"/>
<path d="M344.985 96.21L339.915 101.59L331.779 109.08L325.064 116.53" stroke="black" stroke-width="2" stroke-linecap="round" stroke-linejoin="round"/>
<path d="M346.554 95.0699L333.188 112.57L329.687 116.5L329.315 117.17L329.301 117.44L329.595 117.41" stroke="black" stroke-width="2" stroke-linecap="round" stroke-linejoin="round"/>
<path d="M356.657 90.02L352.334 94.84L347.872 101.15L336.402 115.59L333.375 120.63L333.616 121.46L334.342 121.45" stroke="black" stroke-width="2" stroke-linecap="round" stroke-linejoin="round"/>
<path d="M364.458 86.71L359.986 92.08L355.071 99.1L350.299 104.27L340.862 115.44L339.75 118.21L340.16 118.98L340.868 118.82" stroke="black" stroke-width="2" stroke-linecap="round" stroke-linejoin="round"/>
<path d="M365.565 97.92L361.723 102.74L356.426 110.31L350.659 116.36L346.001 120.42L345.707 121.36L348.744 119.77" stroke="black" stroke-width="2" stroke-linecap="round" stroke-linejoin="round"/>
<path d="M374.985 95.85L366.884 105.41L361.587 112.85L358.662 117.33L358.866 117.47" stroke="black" stroke-width="2" stroke-linecap="round" stroke-linejoin="round"/>
<path d="M389.782 92.92L373.711 112.04L372.385 113.8L371.691 115.4L370.43 116.78L370.969 116.57" stroke="black" stroke-width="2" stroke-linecap="round" stroke-linejoin="round"/>
<path d="M400.635 90.36L393.122 98.36L384.753 108.11L377.18 115.67L376.494 117.07L378.693 115.49" stroke="black" stroke-width="2" stroke-linecap="round" stroke-linejoin="round"/>
<path d="M404.342 91.4399L397.426 98.39L379.255 118.46L378.938 119.05L379.509 119.19L381.102 118.17" stroke="black" stroke-width="2" stroke-linecap="round" stroke-linejoin="round"/>
<path d="M408.158 93.46L403.265 98.3L391.018 112.78L384.609 119.59L384.496 120.21L385.77 119.41" stroke="black" stroke-width="2" stroke-linecap="round" stroke-linejoin="round"/>
<path d="M417.645 91.46L405.446 105.54L396.595 116.91L389.838 124.32L386.697 126.99L386.783 127.49L387.405 127.38L389.036 126.17" stroke="black" stroke-width="2" stroke-linecap="round" stroke-linejoin="round"/>
<path d="M414.011 97.45L407.056 104.46L396.365 118.79L391.307 124.9L390.479 126.52L391.629 126.31L393.543 125.21" stroke="black" stroke-width="2" stroke-linecap="round" stroke-linejoin="round"/>
<path d="M413.609 104.17L405.193 111.25L395.485 122L392.655 124.46L392.119 125.18L392.312 125.53L392.604 125.38L393.355 124.17L396.34 121.44" stroke="black" stroke-width="2" stroke-linecap="round" stroke-linejoin="round"/>
<path d="M422.248 99.6899L413.464 110.87L406.738 117.92L403.096 121.21L402.875 121.85L405.788 119.65" stroke="black" stroke-width="2" stroke-linecap="round" stroke-linejoin="round"/>
<path d="M419.486 104.17L415.458 109.46L405.245 120.04L404.604 120.98L404.736 121.56L405.794 121.05" stroke="black" stroke-width="2" stroke-linecap="round" stroke-linejoin="round"/>
<path d="M417.098 112.91L410.572 119.83L414.087 117.99" stroke="black" stroke-width="2" stroke-linecap="round" stroke-linejoin="round"/>
<path d="M419.071 116.68L418.32 118.9L416.196 122.45L411.928 128.24L409.695 130.39" stroke="black" stroke-width="2" stroke-linecap="round" stroke-linejoin="round"/>
<path d="M344.482 90.6L341.963 92.1899L337.773 95.8101L321.285 111.75L318.111 115.08L315.6 119.51" stroke="black" stroke-width="2" stroke-linecap="round" stroke-linejoin="round"/>
<path d="M136.286 392.85L135.979 393.03L135.903 393.7L136.35 394.3L136.412 396.33L136.929 398.26L137.822 398.99L137.79 399.81L138.538 402.11L139.629 403.78L139.816 404.76L140.361 405.13L140.973 406.75L141.385 406.81L141.191 407.35L141.643 407.25L141.294 407.16L141.603 407.08L141.567 406.47L140.077 403.71L138.394 401.63L138.455 400.43L137.648 398.76L137.334 396.94L137.652 396.47L136.547 395.04L137.171 395.06L136.701 395.07L137.008 395.43L136.844 396.09L137.812 399.59L138.093 402.15L139.165 404.39L141.191 406.51L141.902 408.13L142.013 407.65L138.499 400.86L137.224 399.74L136.814 397.96L136.14 397.78L136.02 397.52L136.493 397.12L136.186 397.21L136.315 396.93L136.499 397.95L136.019 398.63L136.522 399.9L136.532 402.78L137.184 403.67L137.06 404.02L137.877 404.56L137.833 405.51L138.048 405.8L138.234 405.58L138.02 405.01L138.532 404.17L138.122 403.66L137.161 400.34L136.44 399.28L136.493 398.75L136.039 398.46L136.116 397.42L134.96 396.82L135.083 396.59L135.363 396.98L134.887 397.94L135.191 400.55L134.96 401.84L136.2 405.34L137.103 405.94L136.784 405.79L137.285 405.5" stroke="black" stroke-width="2" stroke-linecap="round" stroke-linejoin="round"/>
<path d="M127.32 400.93L127.69 403.89L129.059 408.76L129.053 407.55L128.261 406.16L128.401 405.67L127.679 405.01L128.065 405.15L127.905 405.69L128.295 405.58L127.201 404.04L127.372 403.42L127.935 403.76L127.322 403.6L127.71 403.34L127.664 401.85L127.365 401.57L127.268 401.87L127.557 401.31L126.973 399.77L127.477 399.81H127.173L127.329 399.26L126.581 397.92L126.356 396.97L126.602 396.56L125.996 396.1L126.109 395.83L125.72 395.37L125.855 394.53L125.586 394.64L125.918 395.1L125.389 396.3L126.022 398.64L125.728 401.36L125.898 402.73L127.312 407.95L128.735 411.63" stroke="black" stroke-width="2" stroke-linecap="round" stroke-linejoin="round"/>
<path d="M150.455 392.87L151.722 392.51L151.125 396.39L151.492 399.67L153.756 406.79L154.329 407.22L154.555 406.76" stroke="black" stroke-width="2" stroke-linecap="round" stroke-linejoin="round"/>
<path d="M152.458 398.16L151.983 397.72L151.346 398.15L151.661 398.44L151.359 401.13L152.126 403.98L152.744 404.41L152.248 404.06L152.433 403.15L151.312 400.33L151.353 398.45L150.553 397.75L150.786 399.93L152.358 403.96L154.004 406.37L153.717 407.94L153.886 408.61L155.274 410.48" stroke="black" stroke-width="2" stroke-linecap="round" stroke-linejoin="round"/>
<path d="M160.316 402.9L161.876 402.66L164.483 404.99L165.991 407.33" stroke="black" stroke-width="2" stroke-linecap="round" stroke-linejoin="round"/>
<path d="M379.036 250.66L377.636 251.43L340.333 280.3L324.709 293.75L306.709 308.04L288.649 323.94L257.303 346.76L243.971 356.85L245.291 355.32L252.931 348.83L262.84 339.04L276.364 327.69" stroke="black" stroke-width="2" stroke-linecap="round" stroke-linejoin="round"/>
<path d="M336.868 277.34L305.615 300.48L277.952 323.55L257.229 338.58L254.386 340.15L255.182 339.87L263.763 333.93L268.547 330.12L280.271 319.52L307.435 296.61L347.368 263.31L355.506 257.05L359.199 254.86L347.54 263.02L313.955 288.43L271.074 324.4L262.009 330.92L247.144 340.8L239.508 346.6L234.651 348.64L234.359 348.41L235.437 347.36L250.715 335.16L263.828 323.42L284.836 306.3L298.794 294.28L312.81 283.4L331.029 268.63L348.857 255.2L339.645 261.76L326.323 270.54L312.395 280.91L300.025 291.05L278.436 307.51L263.653 320.25L257.164 324.7L248.788 329.63L266.011 314.25L287.147 293.54L297.652 284.34L309.537 274.73L314.822 269.85L333.874 253.95L338.055 249.85L338.607 248.8L338.25 248.57L335.153 250.27L322.928 259.92L302.582 274.47L282.613 290.03L268.552 301.61L248.429 317.09L247.655 317.36L247.39 317.27L247.512 316.81L253.429 312.03L266.222 298.46L276.881 288.79" stroke="black" stroke-width="2" stroke-linecap="round" stroke-linejoin="round"/>
<path d="M321.769 247.31L298.463 267.59L279.44 281.67L273.847 286.49L268.338 291.83L242.767 314.24L240.848 315.85L239.83 316.19L239.745 315.74L240.52 314.73L247.132 309.24L262.155 293.72L268.851 287.95L281.471 277.27L298.836 264.34L309.661 256.95L313.669 253.22L323.867 242.61L326.836 238.99L326.784 238.57L325.684 238.84L323.831 239.8L312.176 247.19L306.302 251.35L293.915 261.09L280.764 269.48L274.815 273.65L262.923 282.87L243.187 299.31L259.433 284.16L294.921 253.54L302.99 246.15L309.49 239.64L308.212 240.26L301.085 246L289.916 254.09L277.498 263.83L262.41 274.91L253.89 281.54L247.74 286.78L243.136 289.79L242.862 289.69L243.302 289.05L257.86 274.95L281.589 255.5L284.677 252.82L291.638 245.52L292.53 245.02L279.62 257.07L274.953 260.98L253.893 274.78L250.514 277.13L240.251 285.53L235.263 288.33L236.646 286.75L242.711 281.4L252.442 271L257.742 265.9L270.729 254.26L275.721 248.11L269.239 252.54L262.276 258.02L249.677 265.58L240.671 271.41L239.487 271.7L258.044 254.23L263.067 248.52L264.723 245.6L264.465 245.19L263.849 245.35L259.697 248.54L246.524 260.09L240.834 263.9L232.055 268.36L228.511 270.54L227.027 271.03L240.863 259.55L247.154 254.91L251.972 250.21L255.793 245.47L261.265 239.69L261.326 239.35L260.942 239.28L257.871 240.61L250.865 245.11L240.798 252.45L233.43 257.13L229.967 258.68L229.573 258.66L229.675 258.4L232.734 256.24L239.468 248.82L243.037 245.86L246.87 242.25L247.288 241.49L247.119 241.04L246.433 240.75L244.099 240.86L235.906 243.42L227.376 246.94L230.785 246L235.469 243.76L242.95 240.97" stroke="black" stroke-width="2" stroke-linecap="round" stroke-linejoin="round"/>
<path d="M376.895 286.17L357.924 302.29L335.119 320.31L305.797 341.86L297.193 349.21L294.754 350.7L293.321 350.96L293.199 350.19L297.349 345.47L304.95 338.07L315.063 327.28L321.291 321.05L328.537 314.52L336.45 308.2L353.026 293.36L393.71 260.26L403.28 253.26L425.049 238.62L432.104 234.12L431.865 234.73L430.269 236.17L398.283 261.61L365.588 285.23L341.809 305.01L291.009 344.09L274.418 357.47L265.35 363.93L263.81 364.67L263.691 364.48L264.648 363.58L271.882 358.53L297.051 338.81L323.564 319.27L350.293 300.45L369.084 287.79L384.676 276.52L407.211 261.5L393.87 271.1L378.175 283.51L369.381 290.9L352.593 306.07L343.384 313.9L312.121 338.84L302.201 347.36L293.621 355.47L269.535 375.68L269.175 375.71L278.09 367.61L290.656 354.87L298.908 347.2L324.372 325.38L332.735 318.67L387.171 278.72L406.098 264.09" stroke="black" stroke-width="2" stroke-linecap="round" stroke-linejoin="round"/>
<path d="M372.109 294.99L342.825 321.12L319.812 339.77L311.851 346.83L300.154 357.73L297.468 360.67L296.252 362.36L295.862 364.13L297.294 363.79L302.38 360.26L324.797 340.91L335.068 332.32L345.475 324.17L355.88 316.46L377.179 301.43L408.38 278.16L418.869 271.36L437.762 260.07L444.837 256.26L449.721 254.02L452.247 253.04L452.826 253.21L436.647 264.16L416.952 278.73L382.883 305.94L356.294 328.46L341.203 340.31L325.048 353.53L282.257 389.12L262.964 402.58L260.035 404.94L260.355 405.02L261.733 404.16L270.868 397.33L293.985 378.07L315.348 361.61L337.494 343.2L349.406 333.98L387.492 307.46L410.704 289.98L422.255 282.37L442.576 270.07L457.281 262.02L466.688 257.52L469.44 256.56L470.448 256.68L469.496 257.81L455.445 267.25L425.97 288.93L382.59 325.26L369.626 335.22L357.148 345.53L345.471 355.91L305.779 386.88L302.855 390.21L303.21 390.36L312.708 383.69L354.058 348.86L364.411 340.97L395.58 318.83L447.731 282.57L454.03 278.71L465.312 272.63L466.319 272.12L466.294 272.36L459.717 276.79L437.914 293.91L428.386 301.01L419.421 308.37L410.97 316.33L401.504 324.44L367.774 350.9L338.503 376.44L331.538 382.27L322.561 388.39L323.472 388.11L333.917 380.81L347.94 369.65L377.608 344.67L387.661 336.57L397.492 329.04L417.536 314.64L439.246 300.19L449.094 293.06L467.532 281.35L484.247 271.61L496.004 264.12L500.718 261.64L508.86 258.07L509.475 258.36L509.014 259.04L478.36 282.09L468.973 289.66L447.263 306.25L409.285 336.66L384.394 355.59L365.885 369.17L355.584 378.44L345.004 386.32L342.997 387.98L342.638 388.64L349.281 385.74L353.62 383.26L365.762 375.33L372.123 370.62L385.375 359.63L408.814 341.38L443.687 317.69L450.731 313.77L456.695 311.07L461.369 309.39L467.067 306.41L468.627 305.75L469.528 305.81L469.372 306.45L466.587 308.14L463.84 310.39L453.443 319.85L431.374 337.73L423.371 344.67L407.421 360.72L379.947 385.5L368.027 395.26L365.052 398.08L363.533 399.97L363.082 401.16L363.356 401.83L364.281 402.1L365.526 401.85L372.547 398.05L384.501 389.05L399.994 376.54L417.364 363.95L433.139 351.72L440.352 346.61L447.2 342.16L459.113 335.33L471.457 329.26L475.568 327.64L475.493 328.1L461.424 338.62L441.011 355.17L427.265 365.58L410.968 380.14L397.454 390.25L394.39 392.87L390.921 396.48L390.474 397.52L390.627 397.83L394.508 396.07L399.907 392.58L426.91 371.8L446.405 355.7L458.956 347.54L464.289 344.75L465.944 344.22L466.742 344.34L466.518 345.01L452.809 357.52L439.766 368.73L427.733 379.64L402.351 400.27L396.367 404.77L401.711 402.46L418.96 390.66L434.365 378.87L462.801 358.39L467.88 355.3L472.246 353.25L479.989 350.52L479.787 351.07L472.341 358.09L467.561 362.15L461.394 366.74L449.35 376.5L434.029 387.29L425.079 394.08L419.763 398.93L418.137 401.05L422.992 399.56L428.535 396.42L449.76 381.37L453.508 379.17L456.646 377.64L472.1 371.44L449.745 388.97L443.141 395.64L447.511 394.37L449.388 393.41L477.479 377.37L479.96 376.5L480.156 376.71L479.745 377.22L477.558 379.08L469.271 387.96L462.86 392.67L453.334 400.5L474.628 388.38L480.823 385.53L479.591 386.44L476.888 390.62L475.021 392.65L470.391 397.34L466.277 400.89L466.049 401.7L465.67 401.9L466.109 402.19L468.269 401.74L474.87 397.66L481.655 392.78L486.547 389.94L486.87 390.24L478.901 397.93L473.174 402.89L470.241 404.69L470.609 405L474.2 403.6L481.831 399.01L487.029 397.3L491.558 396.56L492.703 396.75L492.801 397.23L490.722 398.47L486.935 402.33L486.586 402.96L486.804 404.45" stroke="black" stroke-width="2" stroke-linecap="round" stroke-linejoin="round"/>
<path d="M366.475 8.68597L367.252 6.92297L367.359 7.72302L368.063 7.89203L371.463 6.909L371.182 7.04498L371.368 7.22198L374.039 8.35797L375.647 9.81702L377.215 10.529L377.078 10.799L378.197 10.76L377.688 10.779L378.296 11.079L379.64 11.021L382.44 11.625L387.189 10.708L389.664 9.547L391.541 9.20599L397.782 9.63L398.509 9.24402L397.653 9.49103L394.941 9.10699L387.594 9.14001L387.024 8.80701L385.049 8.67999L383.652 8.06L383.737 8.25299L382.966 8.41498L382.512 8.39502L382.638 8.21301L382.559 8.44897L382.845 8.33698L382.515 8.42999L382.746 8.45398L382.608 8.276L383.297 8.33197L383.249 8.11798L386.69 7.53601L394.526 7.73602L395.502 8.05798L396.276 8.80902L396.722 9.70599L396.215 10.024L387.288 7.60797L385.289 7.52197L381.168 6.69202L379.369 6.771L380.648 6.15698L384.876 5.64899L388.96 4.73499L393.158 4.73999L394.758 5.42102L396.461 6.65198L397.62 8.43799L397.138 8.39398L396.791 7.755L395.588 7.15302L395.467 6.52197L394.077 5.91199L388.287 5.20697L385.237 4.28198L382.129 4.26599L378.118 5.92603L374.479 6.21802L372.899 5.995L368.397 4.04401L365.878 1.50403L364.027 1.52002L364.095 1.32501L363.153 1.28198L363.538 1.22101L363.07 1.31598L363.36 1.30902L364.63 3.12201L366.604 4.76801L373.214 8.12799L377.333 9.19897L383.191 9.64001L386.639 10.268L376.9 10.211L371.34 11.113L369.139 12.067L367.533 12.387L368.531 12.049L374.489 12.012L376.903 11.689L379.289 10.947L380.385 9.815L380.308 9.53497L378.009 8.453L371.206 6.91998L369.071 6.70898L363.182 6.94L361.802 6.67401L361.447 5.97101L363.857 6.66101L376.192 6.75598L378.47 5.27301L375.357 4.65601L373.922 4.70801L371.948 5.578L372.741 5.40198L375.423 6.742L379.47 7.513L381.594 8.26898L381.227 8.54797L375.292 8.75201L371.009 7.76801L369.704 7.61298L369.1 7.86401L367.57 8.77399L366.115 10.643L365.642 14.709L366.439 14.966L367.528 14.664L369.316 13.522L370.631 11.489L369.843 8.19702L369.342 7.48102L365.754 4.43701L364.082 3.90997L360.428 4.974L358.146 6.34698L352.892 8.20801L347.77 10.978L342.91 13.048L342.21 13.874L343.126 13.573L343.691 13.169L343.943 12.436L345.665 11.571L350.338 8.08698L354.654 6.52197L356.795 6.14301L365.76 5.85199L370.564 5.159L374.684 5.586L382.712 5.40997L383.701 5.49902L388.705 7.75L394.113 8.31403L396.19 9.177L395.642 9.18298L396.004 9.01898L395.47 8.95001L394.142 7.94098L388.985 5.47302L378.448 5.10199L374.197 5.66901L367.331 3.40601L361.943 2.84698L354.209 3.099L350.243 3.54303L347.33 4.78802L341.082 8.31299" stroke="black" stroke-width="2" stroke-linecap="round" stroke-linejoin="round"/>
<path d="M390.094 31.839L386.897 31.559L383.883 30.839L384.546 30.085L385.686 30.673L382.612 31.138L379.695 32.836L376.028 35.58L369.804 41.351L358.999 52.21L351.756 58.46L349.459 59.97L348.984 59.46L349.095 58.83L350.334 57.25L353.23 52.22L358.239 45.165L365.968 36.361L378.989 24.368L372.821 29.058L347.615 43.398L338.154 47.38L337.532 47.27L340.318 45.404L344.289 39.989L352.711 29.836L353.299 27.835L353.23 26.359L352.149 25.769L351.005 25.715L345.167 26.592L337.278 29.358L327.877 33.389L315.839 40.443L308.638 43.984L300.495 46.881L298.237 47.12L297.973 46.727L298.182 46.405L301.07 44.93L310.747 36.487L313.415 34.735L317.785 32.629L322.957 31.163L324.829 30.867L324.96 31.113L323.297 31.512L322.208 32.131L316.982 35.858L309.941 39.988L304.14 43.872L304.247 44.096L309.124 40.048L314.115 35.331L326.527 25.915L327.66 24.39L327.357 24.967L321.435 30.372L316.533 34.15L313.762 35.668L311.972 36.186L311.894 35.841L313.788 34.775L314.293 33.51L318.793 29.311L323.234 25.846L322.116 26.935L314.88 30.878L313.332 31.317L315.23 30.222L316.509 30.33L319.629 29.87L320.743 30.318L320.667 30.575L319.204 31.603L314.681 36.459L310.537 38.428L310.22 38.849L315.13 33.292L320.353 28.946L324.155 26.598L324.927 26.6L324.73 26.844L321.967 28.975L315.249 35.33L309.095 38.865L313.281 37.478L324.335 32.028L331.034 29.533L359.255 23.691L369.85 22.224L375.212 22.007L377.406 22.101L379.925 22.733L380.804 24.149L379.519 28.88L378.024 31.864L376.235 36.558L376.47 36.929L376.948 37.022L379.949 35.705L388.206 30.643L392.476 29.123L394.23 28.742L396.498 28.714L402.317 29.643L404.993 30.659L407.203 32.478L408.923 36.244L412.367 42.386L414.319 44.736L414.532 45.766L413.812 46.461L414.016 46.635L414.551 46.562L415.529 44.808L417.005 40.952L419.111 34.323L420.231 28.567L420.978 27.967L420.705 28.493L420.829 33.606L419.947 41.44L418.589 46.28L418.855 44.881L418.586 42.024L415.852 26.824L415.565 25.861L415.171 25.654L419.457 28.376L421.511 31.039L422.5 33.84L422.682 36.803L422.073 39.104L420.152 41.344L420.964 40.457L421.104 38.853L418.092 29.987L416.892 28.168L415.264 26.674L414.987 26.115L415.22 25.106L413.981 30.84L407.409 43.109L408.048 42.782L408.807 41.54L414.083 35.588L416.063 32.456L417.121 28.009L417.159 26.074L416.91 23.029L416.755 22.375L416.246 22.044L415.499 21.933L415.11 22.548L415.219 23.115L413.074 25.932L411.329 29.856L410.179 33.609L409.577 37.871L409.673 41.457L410.089 44.442L411.004 46.405L412.619 47.62L415.545 45.325L417.319 42.943L418.765 39.696L419.01 37.961L418.924 32.968L418.124 28.191L417.795 27.719L417.22 27.563L416.574 28.286L416.799 28.467L416.216 31.346L416.332 33.889L417.082 36.706L418.56 40.266L420.111 42.404L420.591 42.517L422.363 41.019L423.186 37.807L423.217 35.266L422.777 31.203L422.057 28.482L422.473 26.901L422.2 25.739L422.271 29.586L423.145 38.63L422.813 40.286L423.154 43.654L422.626 47.12L423.782 47.39L423.884 46.473L424.526 45.849L426.692 41.802L427.604 37.368L427.854 30.093L427.735 32.46L429.04 38.631L429.154 40.451L428.719 45.661L428.764 49.37L428.414 49.98L429.189 49.96L429.109 49.54L429.44 49.37L429.016 48.6L428.921 42.69L426.743 34.795L426.833 34.22L427.311 34.342L427.442 34.839L427.12 34.808L427.328 35.093L429.059 36.69L431.339 40.604L433.425 51.09L434.202 54.2L434.94 55.62L434.928 56.35L435.094 54.85L436.186 52.75L438.394 46.473L438.538 43.79L438.483 44.445L437.803 44.598L436.716 46.429" stroke="black" stroke-width="2" stroke-linecap="round" stroke-linejoin="round"/>
<path d="M365.95 94.5601L365.764 95.6801L363.304 99.4301L358.79 104.31L346.102 116.08L339.988 120.52L345.203 115.3" stroke="black" stroke-width="2" stroke-linecap="round" stroke-linejoin="round"/>
<path d="M365.462 97.34L367.532 95.52L367.984 95.47L361.915 102.81L350.459 112.53L347.113 116.45L346.264 116.95" stroke="black" stroke-width="2" stroke-linecap="round" stroke-linejoin="round"/>
<path d="M365.635 100.82L366.344 100.34L366.064 100.72L358.704 107.08L346.162 117.65L343.832 120.18L344.15 120.37L348.232 117.01L353.062 112.2L358.466 108.42L361.581 106.92L366.203 103.88L356.529 113.39L352.835 118.34L349.878 121.25L349.821 121.68L351.487 120.85L359.352 114.63" stroke="black" stroke-width="2" stroke-linecap="round" stroke-linejoin="round"/>
<path d="M388.748 96.36L389.865 95.85L389.63 96.26L383.185 104.48L381.147 106.34L378.015 110.08L370.584 116.56L373.545 114.82" stroke="black" stroke-width="2" stroke-linecap="round" stroke-linejoin="round"/>
<path d="M397.239 96.97L395.663 98.96L388.674 105.33L378.86 115.12L378.367 115.74L378.992 115.47" stroke="black" stroke-width="2" stroke-linecap="round" stroke-linejoin="round"/>
<path d="M405.593 91.6899L402.136 93.97L398.566 97.49L395.344 101.68L386.064 110.02L394.647 103.46" stroke="black" stroke-width="2" stroke-linecap="round" stroke-linejoin="round"/>
<path d="M411.493 88.48L404.133 95.5699L397.287 102.75L388.655 110.89L384.262 117.08L385.331 116.8L390.653 112.6L402.903 101.88L407.735 97.38L412.236 92.46L418.314 86.95L391.85 115.32L390.785 117.47L392.694 116.21L399.83 110.16L404.024 105.72" stroke="black" stroke-width="2" stroke-linecap="round" stroke-linejoin="round"/>
<path d="M413.028 96.0699L401.841 108.02L395.135 114.08L390.488 119.31L390.78 119.55L391.879 119.38L393.935 117.87L394.989 116.39" stroke="black" stroke-width="2" stroke-linecap="round" stroke-linejoin="round"/>
<path d="M417.348 94.58L411.406 100.6L408.627 102.8L402.554 108.89L396.66 114.04L392.669 118.18L389.732 121.74" stroke="black" stroke-width="2" stroke-linecap="round" stroke-linejoin="round"/>
<path d="M409.049 100.45L402.579 106.18L398.139 111.19L386.269 122.41L385.283 123.31L384.17 123.76L385.219 122.62" stroke="black" stroke-width="2" stroke-linecap="round" stroke-linejoin="round"/>
<path d="M398.832 104.1L388.492 111.41L386.656 112.98L383.365 116.67L382.145 117.33L382.411 116.58L385.287 114.39L387.995 111.42" stroke="black" stroke-width="2" stroke-linecap="round" stroke-linejoin="round"/>
<path d="M401.356 97.6899L403.403 94.79L403.205 94.29L383.952 110.28L379.039 113.51L377.873 114.06L377.979 113.76" stroke="black" stroke-width="2" stroke-linecap="round" stroke-linejoin="round"/>
<path d="M370.739 91.55L367.001 93.65L364.846 95.47L344.441 116.16L336.966 123.12L334.979 124.58L334.668 124.57L335.521 123.31L340.013 118.08L350.643 106.55L356.355 100.97L363.948 94.47L367.619 90.6801L361.908 95.6801L350.384 106.65L328.379 126.29L329.34 125.44L336.026 116.59L349.466 103.94L351.645 100.71L351.664 100.44L350.801 100.8L347.956 102.59L331.894 114.71L329.71 116.93L329.386 116.65L336.55 108.87L345.933 101.07L348.681 99.25L349.731 97.51L341.349 105L336.079 109.16L326.43 117.66L322.497 120.41L321.967 120.87L322.097 121.05L334.847 107.48L334.252 108.18L330.241 110.34L311.811 122.32" stroke="black" stroke-width="2" stroke-linecap="round" stroke-linejoin="round"/>
<path d="M369.808 256.81L368.49 256.95L367.91 257.4L372.982 252.85L374.993 251.15L384.258 244.78L385.564 243.23L385.248 243L381.545 244.23L377.584 247.23L361.751 257.35L348.061 268.25L338.404 276.58L323.076 288.36L328.867 283.6L334.353 277.92L337.823 274.81L353.372 261.9L365.154 253.84L368.483 251.07L370.337 249.94L362.095 254.5L354.989 259.5L342.362 267.63L331.096 275.84L322.914 280.57L320.672 281.08L328.213 275.63L346.985 260.63L359.531 252.38L367.514 246.13L362.166 248.88L349.753 256.22L337.069 264.84L325.312 274L322.221 276.03L317.988 278.07L316.808 278.18L316.166 277.85L316.511 277.21L320.72 274.56L323.523 272.35L338.22 259.52L342.055 256.67L349.117 252.61L363.952 243.18L363.952 242.89L363.566 242.98L361.295 243.86L357.044 245.94L329.579 264.24L316.843 274.32L312.765 276.57L307.198 279.05L306.119 279.32L306.02 279.01L320.679 268.97L325.334 265.45L337.675 254.89L346.22 249.17" stroke="black" stroke-width="2" stroke-linecap="round" stroke-linejoin="round"/>
<path d="M363.326 237.79L356.64 241.04L343.764 249.37L320.667 265.58L311.204 273.28L301.992 279.44L296.307 282.93L298.261 281.57" stroke="black" stroke-width="2" stroke-linecap="round" stroke-linejoin="round"/>
<path d="M355.922 240.33L348.424 243.18L339.449 248.54L297.956 275.35L291.158 279.06L287.908 280.21L288.944 279L312.46 260.83L317.192 257.44L326.952 251.8" stroke="black" stroke-width="2" stroke-linecap="round" stroke-linejoin="round"/>
<path d="M350.066 236.78L339.15 243.01L321.577 255.3L302.32 266.02L291.545 273.35L289.111 274.27L293.168 271.63L302.993 263.62" stroke="black" stroke-width="2" stroke-linecap="round" stroke-linejoin="round"/>
<path d="M334.933 242.15L315.347 255.11L298.185 263.94L292.889 267.05L283.866 273.44L275.895 278.24L270.954 280.53L269.936 280.68L269.826 280.36L275.801 275.45" stroke="black" stroke-width="2" stroke-linecap="round" stroke-linejoin="round"/>
<path d="M325.739 240.33L304.639 253.16L283.76 266.36L273.981 273.17L265.156 278.63L261.521 280.43L258.61 281.46L256.327 281.74L254.883 281.46L254.615 280.75L255.36 279.8L258.694 276.88" stroke="black" stroke-width="2" stroke-linecap="round" stroke-linejoin="round"/>
<path d="M289.2 250.71L272.2 260.93L265.58 265.34L258.562 270.89L254.919 273.37L248.41 276.56L246.717 276.87L246.143 276.43L246.652 275.56L250.175 273.39" stroke="black" stroke-width="2" stroke-linecap="round" stroke-linejoin="round"/>
<path d="M310.048 229.97L300.494 234.91L294.664 238.52L263.299 259.97L240.63 274.04L236.113 276.34L232.924 277.43L230.901 277.67L230.305 277.44L233.425 274.37L238.858 270.51" stroke="black" stroke-width="2" stroke-linecap="round" stroke-linejoin="round"/>
<path d="M292.573 232.72L265.755 250.71L261.35 254.03L246.071 263.57L241.189 267.06L232.727 273.84L227.021 277.68L229.728 275.76L233.847 273.52L239.515 269.42" stroke="black" stroke-width="2" stroke-linecap="round" stroke-linejoin="round"/>
<path d="M259.365 247.4L244.445 255.48L230.235 264.25L229.414 265.12L232.836 263.56L239.011 259.14" stroke="black" stroke-width="2" stroke-linecap="round" stroke-linejoin="round"/>
<path d="M277.698 232.51L274.802 234.52L258.984 243.93L235.686 255.05L230.164 256.67L233.632 254.72L239.737 249.53" stroke="black" stroke-width="2" stroke-linecap="round" stroke-linejoin="round"/>
<path d="M258.111 235.07L248.285 241.21L231.563 250.12L228.2 252.83L226.943 254.58L226.988 255.21L227.412 255.71L228.535 256" stroke="black" stroke-width="2" stroke-linecap="round" stroke-linejoin="round"/>
<path d="M295.407 285.56L277.237 297L268.075 301.95L267.768 302.01L267.972 301.69L268.844 300.85L276.34 296.71L286.29 289.42" stroke="black" stroke-width="2" stroke-linecap="round" stroke-linejoin="round"/>
<path d="M330.867 275.03L296.436 297.31L290.455 301.68L293.657 299.43L301.193 295.2" stroke="black" stroke-width="2" stroke-linecap="round" stroke-linejoin="round"/>
<path d="M387.828 241.83L376.866 250.07L363.641 258.42L352.353 266.17L320.13 291.73L314.303 295.13L321.112 291.35L343.862 276.81L350.672 273.11" stroke="black" stroke-width="2" stroke-linecap="round" stroke-linejoin="round"/>
<path d="M399.085 249.3L356.776 277.42L342.266 286.6L328.036 296.7L321.992 301.42L308.283 311.09L305.163 312.9L312.147 308.42L327.548 297.56L352.72 280.58L374.005 266.91L400.249 248.37L410.986 242.24L412.061 242.21L411.72 242.96L407.701 245.86L386.595 259.55L367.207 274.45L342.725 290.83L334.431 297.05L312.83 315.04L301.801 322.91L298.539 325.63L301.142 323.47L310.017 317.42L335.002 297.82L378.658 264.86L398.446 249.13L402.792 246.15L405.882 244.76L406.919 244.99L405.906 246.42L388.039 259.7L372.192 272.35L362.854 279.22L343.016 291.45L332.781 298.2L287.569 331.22L276.394 338.9L251.603 354.97L242.297 360.51L239.697 361.76L240.63 360.95L250.403 354.37L281.96 329.49L290.666 323.48L307.388 310.86L316.053 305.27L341.672 289.93L353.67 283.3L357.659 281.49L360.05 280.82L360.537 281.32L359.339 282.65L341.635 294.72L320.614 309.83L294.913 326.94L264.36 349.08L245.223 364.88L244.852 365.84L245.689 365.68L253.091 361.07L270.686 347.36L284.127 335.9L311.429 314.35L328.561 303.2L334.147 299.09L335.067 298.22L333.549 298.85L313.168 313.52L297.931 323.85L282.111 336.06L240.556 366.63L230.318 373.46L224.905 376.35L224.162 376.55L224.665 375.82L231.387 371.91L252.979 355.95L282.958 335.56L290.441 330.94L304.961 323.16L311.709 319.91L317.663 317.67L322.456 316.66L325.861 316.38L327.985 316.83L328.524 318.04L327.49 319.66L319.099 328.03L313.592 332.6L279.555 355.01L272.763 359.78L253.35 374.58L232.718 388.91L231.181 389.74L231.135 389.41L233.588 387.49L241.958 382.07L252.214 373.38L258.253 368.75L271.582 359.8L283.869 350.62L301.44 339.23L306.322 336.51L310.407 334.51L313.632 333.47L315.802 333.26L316.859 333.69L316.442 334.6L308.288 340.15L279.355 360.99L273.943 365.18L264.575 373.62L250.624 384.84L247.329 387.28L245.315 388.33L244.723 388.35L246.641 386.51L250.574 384.29L253.684 381.94L257.714 378.41L268.75 369.99L289.048 355.69L297.803 350.5L305.209 347.23L309.371 346.03L309.7 346.41L308.85 347.42L300.097 354.54L278.743 371.24L269.072 378.28L256.57 388.02L248.626 392.89L243.966 394.91L243.108 395.19L243.114 394.91L247.642 392.64L250.536 390.77L280.179 367.29L284.98 364.22L297.047 357.36L303.886 354.78L304.623 354.82L304.499 355.37L303.441 356.24L285.836 369.89L271.404 380.14L258.958 390.44L250.521 395.87L247.569 397.49L244.244 398.81L249.516 396.15L252.701 394.02L267.36 383.04L276.853 375.17L284.109 370.06L292.661 365.83L295.244 365.31L295.368 365.61L294.522 366.28L290.899 368.01L287.88 370.01L279.748 376.11L269.729 382.95L260.941 389.79L245.859 398.96L233.301 407.2L233.045 407.86L233.912 408.19L237.244 408.13L239.571 407.65L242.814 406.4L262.045 394.51L283.536 382.06L292.938 375.8L300.08 371.89L302.413 371.04L303.837 370.83L304.175 371.18L303.385 371.98L296.028 376.32L278.142 388.14L261.042 397.88L248.99 403.18L245.198 404.48L244.541 404.33L244.631 403.92L251.536 400.85L267.145 391.23L271.218 388.4" stroke="black" stroke-width="2" stroke-linecap="round" stroke-linejoin="round"/>
<path d="M294.695 378.17L274.104 392.16L257.938 402.71L255.762 403.7L254.678 404.12L256.493 403.05L264.29 399.33L285.152 385.55L303.856 374.09L310.212 370.59L316.475 367.37L337.354 357.86L342.122 356.1L343.134 356.18L343.118 356.93L327.034 368.3L321.488 371.82L303.626 382.26L290.902 390.46L274.529 399.7L267.243 404.18L269.791 402.97L274.298 401.82L277.787 400.47L282.213 398.34L317.005 376.39L338.004 365.44L345.67 362.08L346.182 362.16L344.126 363.82L312.734 383.83L301.739 390.49L280.216 402.54L270.198 409.66L273.916 407.43L280.694 404.56L302.324 391.35L321.221 381.62L347.382 366.63L354.202 363.74L356.095 363.25L356.764 363.7L356.255 364.71L354.73 365.96L348.616 370.24L333.866 379.34L318.641 390.34L313.284 393.7L301.406 400.08L287.413 408.35L284.061 410.81L285.798 409.72L293.136 407.12L296.738 405.25L358.104 370.12L367.772 365.83L375.469 362.95L380.619 361.35L381.568 361.34L381.195 361.95L374.212 366.38L353.929 378.19L338.515 388.3L322.93 397.99L321.366 399.24L323.071 398.05L327.754 396.38L336.436 391.14L366.263 370.92L372.039 367.41L383.753 361.11L396.025 353.35L399.905 351.58L399.988 351.87L398.925 352.73L375.609 368.44L369.807 371.95L351.265 382.15L339.735 389.82L325.897 398.37L325.501 398.83L326.288 398.74L331.706 397.29L334.696 396.1L338.518 394.01L358.935 380.71L369.106 373.2L374.028 370.04L388.752 362.14L373.156 372.98L362.472 379.71L348.293 390.18L339.65 395.29L332.519 399.96L328.805 402.76L328.676 403.22L337.826 397.84L372.801 371.85L383.084 365.4L394.964 356.48L401.935 351.75L377.194 372.37L360.675 384.13L350.854 392.13L338.968 400.96L335.86 403.6L337.571 402.3L345.878 397.61L364.41 384.22L380.774 372.94L411.55 353.83L439.878 336.74L445.75 333.7L453.767 330.16L455.992 329.51L456.856 329.61L456.69 330.24L430.026 347.45L415.742 355.93L385.935 374.39L379.005 378.94L361.233 391.76L364.163 390.53L370.092 388.95L374.799 387.02L380.879 384.02L388.063 379.86L401.901 370.72L422.455 358.19" stroke="black" stroke-width="2" stroke-linecap="round" stroke-linejoin="round"/>
<path d="M442.549 343.44L411.653 363.41L391.136 377.27L385.014 382.07L374.91 391.18L370.72 394.25L364.574 398.08L375.817 393.38L381.254 390.2L407.255 371.24L414.11 366.61L428.097 357.7L442.215 349.36" stroke="black" stroke-width="2" stroke-linecap="round" stroke-linejoin="round"/>
<path d="M461.236 338.06L445.748 348.72L426.687 362.77L399.793 380.32L378.254 396.72L373.131 399.99L375.525 398.25L381.912 394.91L386.684 391.92L413.447 373.43L421.366 368.28L438.181 358.75L473.931 336.93L488.371 329.51L490.646 328.84L491.27 329.1L490.002 330.28L470.545 341.95L442.063 360L428.944 369.72L407.742 384.23L398.588 391.16L396.388 392.94L395.906 393.67L407.648 388.74L433.737 371.45L466.422 352.24L471.751 349.33L481.755 344.69L488.684 342.06L490.72 341.74L489.988 342.45L481.688 347.36L461.098 361.47L424.852 385.3L420.566 387.92L415.81 390L415.181 389.91L415.505 389.05L416.642 388.18L420.461 386.18L423.53 383.86L430.973 376.16L443.955 364.2L447.556 360.03L459.814 344.02L485.658 308.53L491.035 301.59L503.401 287.52L503.256 287.22L502.232 287.78L485.572 299.03L472.46 307.15L445.809 325.29L433.069 335.03L426.595 338.6L420.002 341.6L408.507 346.06L404.864 347L402.698 346.88L401.94 345.9L402.53 344.31L406.937 339.43L420.662 326.38" stroke="black" stroke-width="2" stroke-linecap="round" stroke-linejoin="round"/>
<path d="M485.767 264.41L478.275 266.24L472.577 269.27L452.831 281.79L445.809 286.43L439.237 291.4L427.031 301.35L414.298 310.44L402.907 317.82L394.59 321.95L392.672 322.59L392.41 321.98L393.487 320.71L398.096 316.68" stroke="black" stroke-width="2" stroke-linecap="round" stroke-linejoin="round"/>
<path d="M482.871 249.49L472.246 254.62L459.329 262.32L452.298 266.97L438.8 277.81L432.295 282.33L404.465 299.63L390.925 308.52L385.213 311.93L379.212 315.04L378.363 315.06L378.754 314.17L380.28 312.87" stroke="black" stroke-width="2" stroke-linecap="round" stroke-linejoin="round"/>
<path d="M456.906 256.1L440.556 265.06L426.307 275.04L401.682 290.09L383.545 302.5L381.879 303.28L381.746 303.05L382.755 302L400.5 288.44" stroke="black" stroke-width="2" stroke-linecap="round" stroke-linejoin="round"/>
<path d="M454.219 252.02L444.144 258.02L411.42 278.92L390.474 291.16L383.165 295.72L376.506 300.41L369.63 304.6L356.958 311.03L352.796 312.82L348.314 314.16L347.77 313.87L348.39 312.95L362.783 302.97" stroke="black" stroke-width="2" stroke-linecap="round" stroke-linejoin="round"/>
<path d="M457.213 238.46L445.431 244.32L417.365 260.73L394.649 274.78L373.468 286.49L366.887 289.73L356.05 294.2L353.128 295.29L351.477 295.55L350.943 295.08L351.708 294.08L364.1 285.68" stroke="black" stroke-width="2" stroke-linecap="round" stroke-linejoin="round"/>
<path d="M421.515 248.51L395.908 259.55L384.857 265.33L366.722 275.76L360.287 278.49L354.905 280.46L350.82 281.53L347.828 281.91L345.751 281.83L344.787 281.26L344.814 280.4L350.537 276.16" stroke="black" stroke-width="2" stroke-linecap="round" stroke-linejoin="round"/>
<path d="M423.262 234.22L409.147 240.94L392.372 249.79L375.104 260.12L349.93 273.97L345.772 275.85L337.723 278.5L337.133 278.53L337.562 278.23L345.039 274.27" stroke="black" stroke-width="2" stroke-linecap="round" stroke-linejoin="round"/>
<path d="M395.932 241.94L384.508 246.9L373.526 252.89L353.766 261.84L347.9 264.08L345.813 264.47L344.518 264.63L343.969 264.29L344.125 263.46L350.056 257.58L356.42 252.41L367.791 245.43L374.446 241.75L380.502 239.33L386.444 237.64L380.369 240.28L374.486 243.85L355.239 254.15L344.378 259.13L344.113 259.09L344.213 258.78L344.662 258.35L354.363 252.17L367.848 244.52L374.046 241.56L385.86 236.69L372.25 244.88" stroke="black" stroke-width="2" stroke-linecap="round" stroke-linejoin="round"/>
</svg>
