<svg width="312" height="215" viewBox="0 0 312 215" fill="none" xmlns="http://www.w3.org/2000/svg">
<path d="M50.918 1H174.137" stroke="#292562" stroke-linecap="round" stroke-linejoin="round"/>
<path d="M174.182 2.6499V176.01" stroke="#292562" stroke-linecap="round" stroke-linejoin="round"/>
<path d="M50.0273 1.49023V12.6902" stroke="#292562" stroke-linecap="round" stroke-linejoin="round"/>
<path d="M127.365 174.95H175.626" stroke="#292562" stroke-linecap="round" stroke-linejoin="round"/>
<path d="M2.06836 14.79V188.15" stroke="#292562" stroke-linecap="round" stroke-linejoin="round"/>
<path d="M1 13.1304H124.219" stroke="#292562" stroke-linecap="round" stroke-linejoin="round"/>
<path d="M126.361 12.9199V186.28" stroke="#292562" stroke-linecap="round" stroke-linejoin="round"/>
<path d="M1.82031 188.18H125.039" stroke="#292562" stroke-linecap="round" stroke-linejoin="round"/>
<path d="M124.801 38.4702H155.206" stroke="#292562" stroke-linecap="round" stroke-linejoin="round"/>
<path d="M124.516 45.1802H154.921" stroke="#292562" stroke-linecap="round" stroke-linejoin="round"/>
<path d="M125.258 51.6499H155.663" stroke="#292562" stroke-linecap="round" stroke-linejoin="round"/>
<path d="M124.854 58.52H155.259" stroke="#292562" stroke-linecap="round" stroke-linejoin="round"/>
<path d="M125.598 64.9902H156.003" stroke="#292562" stroke-linecap="round" stroke-linejoin="round"/>
<path d="M127.936 76.1499H155.14" stroke="#292562" stroke-linecap="round" stroke-linejoin="round"/>
<path d="M127.469 82.8599H154.673" stroke="#292562" stroke-linecap="round" stroke-linejoin="round"/>
<path d="M127.602 90.1602H154.806" stroke="#292562" stroke-linecap="round" stroke-linejoin="round"/>
<path d="M124.795 108.85H153.587" stroke="#292562" stroke-linecap="round" stroke-linejoin="round"/>
<path d="M124.25 117.04H154.178" stroke="#292562" stroke-linecap="round" stroke-linejoin="round"/>
<path d="M124.322 126.65H154.541" stroke="#292562" stroke-linecap="round" stroke-linejoin="round"/>
<path d="M123.695 136.02H154.626" stroke="#292562" stroke-linecap="round" stroke-linejoin="round"/>
<path d="M124.152 143.7H154.769" stroke="#292562" stroke-linecap="round" stroke-linejoin="round"/>
<path d="M125.191 152.44H154.483" stroke="#292562" stroke-linecap="round" stroke-linejoin="round"/>
<path d="M125.273 161.61H156.598" stroke="#292562" stroke-linecap="round" stroke-linejoin="round"/>
<path d="M12.5273 89.8999H108.009" stroke="#292562" stroke-linecap="round" stroke-linejoin="round"/>
<path d="M12.7363 97.5H108.218" stroke="#292562" stroke-linecap="round" stroke-linejoin="round"/>
<path d="M13.2695 104.88H108.751" stroke="#292562" stroke-linecap="round" stroke-linejoin="round"/>
<path d="M12.3125 119.64H107.794" stroke="#292562" stroke-linecap="round" stroke-linejoin="round"/>
<path d="M12.5234 127.24H108.004" stroke="#292562" stroke-linecap="round" stroke-linejoin="round"/>
<path d="M13.0566 134.62H108.538" stroke="#292562" stroke-linecap="round" stroke-linejoin="round"/>
<path d="M12.0312 59.9502H107.513" stroke="#292562" stroke-linecap="round" stroke-linejoin="round"/>
<path d="M12.2402 67.5503H107.721" stroke="#292562" stroke-linecap="round" stroke-linejoin="round"/>
<path d="M12.7734 74.9302H108.254" stroke="#292562" stroke-linecap="round" stroke-linejoin="round"/>
<path d="M217.778 103.9L217.726 104.79L218.17 104.72L220.233 106.35L223.961 108.11L225.363 108.45L228.654 107.99L230.984 106.92L232.633 106.68L232.797 106.16L233.24 106.32L234.095 105.95L237.051 104.04L240.268 99.5803L240.513 98.2103L240.983 97.9503L240.786 97.5403L241.221 95.7103L240.424 94.5004L240.717 94.2404L240.095 93.1104L239.967 90.7704L239.452 89.7003L238.345 88.3503L237.386 86.2103L235.894 84.6504L233.092 82.7103L232.686 82.1003L231.131 81.4803L231.34 81.7203L229.922 81.3804L228.973 81.7303L228.217 81.5603L228.102 81.8303L226.544 81.9703L226.3 82.5104L224.462 82.5304L222.631 83.6703L221.357 83.7003L221.617 84.0304L220.822 84.3704L220.722 84.9803L219.393 85.5603L218.498 86.9303L217.817 87.1903L217.763 87.5903L218.043 87.7303L217.285 87.8203L216.924 88.6604L217.262 89.0603L216.643 89.1604L216.558 89.6104L215.96 89.4603L216.224 89.6703L216.13 90.3904L215.616 91.3904L215.965 91.8804L215.236 91.8203L215.809 92.3704L215.266 92.1903L215.514 92.5803L215.022 92.7804L215.411 93.2203L214.932 93.0304L214.953 93.9803L214.441 94.0503L215.057 94.4803L214.245 94.6304L214.643 94.8604L214.434 95.3303L215.005 95.6604L214.396 95.5903L214.532 96.1703L213.936 97.1703L214.129 98.3604L213.845 98.2003L214.15 98.4904L213.755 98.1703L214.093 98.5403L213.88 99.0503L214.116 99.2404L213.643 99.1003L214.145 99.6803L214.036 100.08L214.32 100.31L214.012 100.21L214.564 100.6L214.394 100.98L214.91 101.47L214.436 101.54L215.31 102.19L214.871 102.18L216.044 104.25L217.769 105.31L219.346 105.78L219.774 106.34L220.16 106.14L220.702 106.62L221.613 106.53L222.594 107.03L223.244 106.99L223.833 107.55L224.766 107.44L227.745 108.37L232.133 107.58L234.334 106.61L234.824 106.19L234.575 105.86L234.958 106.08L234.476 106.05" stroke="#292562" stroke-width="2" stroke-linecap="round" stroke-linejoin="round"/>
<path d="M226.9 109.31L240.624 150.94" stroke="#292562" stroke-width="2" stroke-linecap="round" stroke-linejoin="round"/>
<path d="M234.066 106.2L252.269 145.62" stroke="#292562" stroke-width="2" stroke-linecap="round" stroke-linejoin="round"/>
<path d="M238.928 149.27L251.376 145.17" stroke="#292562" stroke-width="2" stroke-linecap="round" stroke-linejoin="round"/>
<path d="M227.631 116.37L226.718 116.71L226.586 117.11L227.909 117.45L228.783 117.12L229.695 117.33L230.085 117.07L230.018 116.75L230.799 116.5L232.484 115.13H233.477L234.134 114.75L233.976 114.59L234.266 114.67L234.103 114.47L234.604 114.92L234.215 114.74L234.729 114.8L234.94 114.61L234.615 114.44L234.854 114.69L235.056 114.63L234.713 114.43L235.425 114.53L235.244 114.31L235.738 114.54L235.175 114.27L235.753 114.58L235.324 114.43L235.325 113.97" stroke="#292562" stroke-width="2" stroke-linecap="round" stroke-linejoin="round"/>
<path d="M219.36 85.8003L219.583 85.8103L218.346 88.1304L218.62 88.9303L217.876 89.5903L218.069 90.7404L217.701 91.4004L217.754 93.5703L217.379 95.7704L217.718 96.2103L217.101 96.5204L217.422 96.9904L217.002 97.0603L217.395 97.4803L217.626 98.6903L217.397 98.9403L217.672 98.9703L218.154 100.42L218.618 100.84L218.487 101.37L219.551 103.78L219.285 104.02L220.104 105.96L220.609 106.29L220.51 106.57L222.067 108.7L221.799 108.02L222.271 107.65" stroke="#292562" stroke-width="2" stroke-linecap="round" stroke-linejoin="round"/>
<path d="M222.469 85.3804L223.356 85.9904L222.868 86.0004L223.177 86.0204L222.852 86.0803L223.138 86.4904L222.434 86.4603L222.903 88.9203L222.648 89.1604L223.342 90.8403L223.352 92.1703L224.214 94.8203L224.589 97.5104L225.498 99.0703L226.292 101.95L226.777 102.33L226.514 102.57L227.165 103.16L227.07 103.74L228.196 105.34L228.77 105.64L228.504 105.52L228.748 105.6L228.638 105.93L229.702 107.37L229.101 107.11L229.238 106.49" stroke="#292562" stroke-width="2" stroke-linecap="round" stroke-linejoin="round"/>
<path d="M222.422 86.9502L224.046 87.9602L227.355 91.6902L228.652 93.7603L229.241 94.1403L229.179 94.6503L231.637 98.6202L231.538 99.1802L232.349 99.8702L232.347 100.59L234.089 103.68L233.991 104.2L234.314 104.51L233.967 104.42L234.495 105.07L234.015 104.77L234.056 104.49" stroke="#292562" stroke-width="2" stroke-linecap="round" stroke-linejoin="round"/>
<path d="M224.575 84.3298L224.832 84.1099L224.406 84.1698L224.733 84.0698L224.874 84.4198L224.415 84.2998L225.256 85.2998L227.651 86.9398L230.645 90.0598L232.434 91.4198L233.46 92.6898L234.43 94.8499L237.476 98.2198L237.847 99.0099L237.702 99.6499L238.538 100.61" stroke="#292562" stroke-width="2" stroke-linecap="round" stroke-linejoin="round"/>
<path d="M213.08 95.24L218.123 95.9L218.792 95.35L223.469 93.85L225.514 91.49L228.111 90.21L228.466 89.38L229.818 88.88L230.677 87.9199L231.668 87.52L231.663 87.23" stroke="#292562" stroke-width="2" stroke-linecap="round" stroke-linejoin="round"/>
<path d="M213.645 104.72L217.221 103.92L222.588 103.39L225.498 100.59L232.595 96.7201L233.506 95.42L234.302 95.1501L235.092 94.1401" stroke="#292562" stroke-width="2" stroke-linecap="round" stroke-linejoin="round"/>
<path d="M249.781 140.04L249.762 141.25L249.793 141.02L250.045 141.36L249.815 141.34L249.836 143.26L250.696 144.99L251.912 145.38" stroke="#292562" stroke-width="2" stroke-linecap="round" stroke-linejoin="round"/>
<path d="M244.704 149.08L242.984 148.81L243.473 148.78L243.733 149.1L243.653 148.59L243.299 148.55L243.795 148.7L243.446 148.59L243.288 148.9L247.029 151.64L247.272 152.71L248.845 154.36L249.424 155.31L249.63 156.33" stroke="#292562" stroke-width="2" stroke-linecap="round" stroke-linejoin="round"/>
<path d="M253.274 158.65L253.222 157.56L252.936 157.53L253.343 157.74L253.246 157.97L252.939 157.82L253.323 157.75L253.424 158.55L255.248 161.67L255.772 164.14L256.934 166.04L259.299 167.59L268.902 175.69L272.684 178.16L273.94 178.58L274.741 179.53L276.442 180.01L278.165 181.65L278.722 181.8L278.999 182.34L280.288 182.36L285.043 184.54L287.281 183.51L290.003 183.75L293.143 182.74L298.358 178.25L301.801 175.92L302.176 174.38L303.7 172.9L307.265 167.52L309.876 161.64L310.511 159.51L310.977 157L310.24 148.76L310.366 146.17L309.458 142.59L308.43 139.96L307.544 139.2L307.097 138.26L307.056 137.42L306.444 136.13L301.957 131.06L300.262 129.71L297.007 128.25L296.374 127.36L293.971 126.43L291.641 126.33L285.253 129.18L281.82 131.73L280.273 134.35L279.448 134.85L279.252 135.61L277.862 137.63L277.554 140.37L276.274 142.45L276.161 143.65L275.578 144.3L274.511 146.92L274.865 154.36L274.266 156.47L274.1 158.54L274.962 163.06L275.504 163.81L275.856 165.45L278.348 168.03L281.519 170.07L285.782 170.63L290.621 172.22L295.095 171.87L295.826 171.51L297.804 169.23L300.698 164.45L301.479 161.94L302.076 161.69L301.602 161.74L302.109 161.41L303.303 158.72L303.572 157.16L303.373 156.65L303.699 153.07L303.216 149.65L302.758 148.46L303.251 147.15L302.816 146.07L301.456 144.5L300.384 141.99L298.603 140.65L296.364 139.87L295.186 140.53L291.666 141.4L291.416 141.65L291.597 141.95L290.438 142.93L289.836 145.03L289.367 145.36L289.924 146.03L289.401 146.25L288.646 148.07L288.902 148.58L288.645 150.04L289.211 150.2L288.294 150.52L288.798 150.5L288.481 150.54L287.563 153.68L288.034 154.87L287.956 156.33L288.296 157.49L287.791 158.63L287.881 159.44L288.314 159.97L288.014 160.12L287.777 161.67L288.337 164.2L288.61 164.29L288.676 165.44L288.104 166.45L288.85 167.27L288.696 168.45L289.099 169.12L288.626 170.2L288.673 171.64L288.254 172.27L288.728 174.42L288.541 176.73L289.544 182.24L289.409 182.78L290.766 185.32L290.28 187.42L290.659 188.15L290.762 189.95L291.591 191.28L291.769 192.55L292.575 194.12L292.149 195.87L293.256 198.39L293.261 200.97L294.064 205.39L294.063 205.79L293.615 205.93L294.036 205.54L293.651 206.25L293.939 206.4L293.493 206.26L294 211.22L293.89 213.31" stroke="#292562" stroke-width="2" stroke-linecap="round" stroke-linejoin="round"/>
</svg>
