<svg width="242" height="156" viewBox="0 0 242 156" fill="none" xmlns="http://www.w3.org/2000/svg">
<rect x="98" width="99" height="68" rx="16" fill="#292562" fill-opacity="0.4"/>
<path d="M127.456 36.9205H131.115L132.955 39.2869L134.764 41.3949L138.175 45.6705H134.158L131.811 42.7869L130.608 41.0767L127.456 36.9205ZM138.483 33.8182C138.483 36.0388 138.062 37.928 137.22 39.4858C136.385 41.0436 135.245 42.2334 133.8 43.0554C132.361 43.8707 130.744 44.2784 128.947 44.2784C127.138 44.2784 125.514 43.8674 124.075 43.0455C122.637 42.2235 121.5 41.0336 120.665 39.4759C119.83 37.9181 119.412 36.0322 119.412 33.8182C119.412 31.5975 119.83 29.7083 120.665 28.1506C121.5 26.5928 122.637 25.4062 124.075 24.5909C125.514 23.7689 127.138 23.358 128.947 23.358C130.744 23.358 132.361 23.7689 133.8 24.5909C135.245 25.4062 136.385 26.5928 137.22 28.1506C138.062 29.7083 138.483 31.5975 138.483 33.8182ZM134.118 33.8182C134.118 32.3797 133.902 31.1667 133.472 30.179C133.047 29.1913 132.447 28.4422 131.672 27.9318C130.896 27.4214 129.988 27.1662 128.947 27.1662C127.907 27.1662 126.999 27.4214 126.223 27.9318C125.447 28.4422 124.844 29.1913 124.413 30.179C123.989 31.1667 123.777 32.3797 123.777 33.8182C123.777 35.2566 123.989 36.4697 124.413 37.4574C124.844 38.4451 125.447 39.1941 126.223 39.7045C126.999 40.215 127.907 40.4702 128.947 40.4702C129.988 40.4702 130.896 40.215 131.672 39.7045C132.447 39.1941 133.047 38.4451 133.472 37.4574C133.902 36.4697 134.118 35.2566 134.118 33.8182ZM147.837 44.2983C146.432 44.2983 145.219 44.0464 144.198 43.5426C143.177 43.0388 142.391 42.3561 141.841 41.4943C141.298 40.6259 141.026 39.6581 141.026 38.5909C141.026 37.7955 141.185 37.0895 141.503 36.473C141.821 35.8565 142.266 35.2898 142.836 34.7727C143.406 34.2491 144.069 33.7287 144.824 33.2116L148.772 30.6165C149.282 30.2917 149.657 29.9503 149.895 29.5923C150.134 29.2277 150.253 28.8333 150.253 28.4091C150.253 28.0047 150.091 27.6302 149.766 27.2855C149.441 26.9408 148.98 26.7718 148.384 26.7784C147.986 26.7784 147.641 26.8679 147.35 27.0469C147.058 27.2192 146.829 27.4479 146.664 27.733C146.505 28.0114 146.425 28.3229 146.425 28.6676C146.425 29.0919 146.544 29.5227 146.783 29.9602C147.022 30.3977 147.34 30.8617 147.738 31.3523C148.135 31.8362 148.569 32.3598 149.04 32.9233L158.695 44H154.28L146.226 35.0312C145.696 34.428 145.166 33.7983 144.635 33.142C144.112 32.4792 143.674 31.7765 143.323 31.0341C142.971 30.285 142.796 29.473 142.796 28.598C142.796 27.6103 143.025 26.7221 143.482 25.9332C143.946 25.1444 144.596 24.5213 145.431 24.0639C146.266 23.5999 147.24 23.3679 148.354 23.3679C149.441 23.3679 150.379 23.59 151.168 24.0341C151.963 24.4716 152.573 25.0549 152.998 25.7841C153.428 26.5066 153.644 27.3021 153.644 28.1705C153.644 29.1316 153.405 30.0033 152.928 30.7855C152.457 31.5611 151.794 32.2571 150.939 32.8736L146.783 35.8665C146.22 36.2775 145.802 36.6984 145.53 37.1293C145.265 37.5535 145.132 37.9612 145.132 38.3523C145.132 38.8362 145.252 39.2704 145.49 39.6548C145.729 40.0393 146.067 40.3442 146.505 40.5696C146.942 40.7884 147.456 40.8977 148.046 40.8977C148.762 40.8977 149.468 40.7353 150.164 40.4105C150.866 40.0791 151.503 39.6117 152.073 39.0085C152.65 38.3987 153.11 37.6761 153.455 36.8409C153.8 36.0057 153.972 35.081 153.972 34.0668H157.482C157.482 35.313 157.346 36.4366 157.074 37.4375C156.802 38.4318 156.425 39.3002 155.941 40.0426C155.457 40.7784 154.903 41.3816 154.28 41.8523C154.081 41.9782 153.889 42.0975 153.703 42.2102C153.518 42.3229 153.326 42.4422 153.127 42.5682C152.371 43.178 151.526 43.6188 150.591 43.8906C149.663 44.1624 148.745 44.2983 147.837 44.2983ZM164.049 44H159.436L166.466 23.6364H172.014L179.034 44H174.42L169.319 28.2898H169.16L164.049 44ZM163.761 35.9957H174.659V39.3565H163.761V35.9957Z" fill="white"/>
<rect x="130" y="76" width="112" height="80" rx="16" fill="#292562" fill-opacity="0.4"/>
<path d="M188.797 124.923C188.912 124.502 188.659 123.916 188.417 123.494C188.342 123.368 188.261 123.246 188.173 123.129C186.103 119.99 185 116.312 185 112.552C184.966 101.759 193.916 93 204.984 93C214.636 93 222.692 99.6865 224.575 108.563C224.857 109.878 225 111.22 225 112.566C225 123.375 216.395 132.271 205.328 132.271C203.568 132.271 201.193 131.829 199.898 131.466C198.603 131.104 197.31 130.623 196.976 130.494C196.635 130.363 196.272 130.296 195.907 130.295C195.507 130.294 195.112 130.373 194.744 130.529L188.222 132.883C188.079 132.944 187.928 132.984 187.773 133C187.651 133 187.53 132.975 187.418 132.928C187.305 132.88 187.203 132.811 187.118 132.724C187.032 132.637 186.964 132.534 186.919 132.42C186.874 132.307 186.851 132.186 186.853 132.063C186.861 131.956 186.88 131.85 186.911 131.747L188.797 124.923Z" stroke="white" stroke-miterlimit="10" stroke-linecap="round"/>
<rect y="16" width="154" height="104" rx="16" fill="#292562" fill-opacity="0.2"/>
<rect x="38.0326" y="43.1747" width="51.5631" height="60.1059" fill="white" stroke="#292562" stroke-width="0.349453"/>
<rect x="20.1747" y="50.5131" width="51.5631" height="60.1059" fill="white" stroke="#292562" stroke-width="0.349453"/>
<line x1="26.2295" y1="55.755" x2="65.6831" y2="55.755" stroke="#292562" stroke-width="0.349453"/>
<line x1="26.2295" y1="57.8521" x2="65.6831" y2="57.8521" stroke="#292562" stroke-width="0.349453"/>
<line x1="26.2295" y1="62.045" x2="65.6831" y2="62.045" stroke="#292562" stroke-width="0.349453"/>
<line x1="26.2295" y1="64.1417" x2="65.6831" y2="64.1417" stroke="#292562" stroke-width="0.349453"/>
<line x1="26.2295" y1="66.2388" x2="65.6831" y2="66.2388" stroke="#292562" stroke-width="0.349453"/>
<line x1="26.2295" y1="68.3355" x2="65.6831" y2="68.3355" stroke="#292562" stroke-width="0.349453"/>
<line x1="26.2295" y1="70.4317" x2="65.6831" y2="70.4317" stroke="#292562" stroke-width="0.349453"/>
<line x1="26.2295" y1="72.5284" x2="65.6831" y2="72.5284" stroke="#292562" stroke-width="0.349453"/>
<line x1="26.2295" y1="78.8189" x2="65.6831" y2="78.8189" stroke="#292562" stroke-width="0.349453"/>
<line x1="26.2295" y1="80.9161" x2="65.6831" y2="80.9161" stroke="#292562" stroke-width="0.349453"/>
<line x1="26.2295" y1="83.0123" x2="65.6831" y2="83.0123" stroke="#292562" stroke-width="0.349453"/>
<line x1="26.2295" y1="85.109" x2="65.6831" y2="85.109" stroke="#292562" stroke-width="0.349453"/>
<line x1="26.2295" y1="87.2056" x2="65.6831" y2="87.2056" stroke="#292562" stroke-width="0.349453"/>
<line x1="26.2295" y1="89.3028" x2="65.6831" y2="89.3028" stroke="#292562" stroke-width="0.349453"/>
<line x1="26.2295" y1="93.4962" x2="65.6831" y2="93.4962" stroke="#292562" stroke-width="0.349453"/>
<line x1="26.2295" y1="95.5924" x2="65.6831" y2="95.5924" stroke="#292562" stroke-width="0.349453"/>
<line x1="26.2295" y1="97.6895" x2="65.6831" y2="97.6895" stroke="#292562" stroke-width="0.349453"/>
<line x1="26.2295" y1="99.7862" x2="65.6831" y2="99.7862" stroke="#292562" stroke-width="0.349453"/>
<line x1="26.2295" y1="101.883" x2="65.6831" y2="101.883" stroke="#292562" stroke-width="0.349453"/>
<line x1="26.2295" y1="103.98" x2="65.6831" y2="103.98" stroke="#292562" stroke-width="0.349453"/>
<line x1="71.4973" y1="53.3087" x2="84.7869" y2="53.3087" stroke="#292562" stroke-width="0.349453"/>
<line x1="71.4973" y1="55.4058" x2="84.7869" y2="55.4058" stroke="#292562" stroke-width="0.349453"/>
<line x1="71.4973" y1="57.5025" x2="84.7869" y2="57.5025" stroke="#292562" stroke-width="0.349453"/>
<line x1="71.4973" y1="63.7926" x2="84.7869" y2="63.7926" stroke="#292562" stroke-width="0.349453"/>
<line x1="71.4973" y1="65.8892" x2="84.7869" y2="65.8892" stroke="#292562" stroke-width="0.349453"/>
<line x1="71.4973" y1="67.9859" x2="84.7869" y2="67.9859" stroke="#292562" stroke-width="0.349453"/>
<line x1="71.4973" y1="70.0826" x2="84.7869" y2="70.0826" stroke="#292562" stroke-width="0.349453"/>
<line x1="71.4973" y1="72.1798" x2="84.7869" y2="72.1798" stroke="#292562" stroke-width="0.349453"/>
<line x1="71.4973" y1="74.276" x2="84.7869" y2="74.276" stroke="#292562" stroke-width="0.349453"/>
<line x1="71.4973" y1="76.3726" x2="84.7869" y2="76.3726" stroke="#292562" stroke-width="0.349453"/>
<line x1="71.4973" y1="82.6632" x2="84.7869" y2="82.6632" stroke="#292562" stroke-width="0.349453"/>
<line x1="71.4973" y1="84.7594" x2="84.7869" y2="84.7594" stroke="#292562" stroke-width="0.349453"/>
<line x1="71.4973" y1="86.856" x2="84.7869" y2="86.856" stroke="#292562" stroke-width="0.349453"/>
<line x1="71.4973" y1="95.2432" x2="84.7869" y2="95.2432" stroke="#292562" stroke-width="0.349453"/>
<line x1="71.4973" y1="97.3399" x2="84.7869" y2="97.3399" stroke="#292562" stroke-width="0.349453"/>
<line x1="71.4973" y1="99.4366" x2="84.7869" y2="99.4366" stroke="#292562" stroke-width="0.349453"/>
</svg>
