<svg width="242" height="156" viewBox="0 0 242 156" fill="none" xmlns="http://www.w3.org/2000/svg">
<rect x="98" width="99" height="68" rx="16" fill="#292562" fill-opacity="0.4"/>
<path d="M127.456 36.9205H131.115L132.955 39.2869L134.764 41.3949L138.175 45.6705H134.158L131.811 42.7869L130.608 41.0767L127.456 36.9205ZM138.483 33.8182C138.483 36.0388 138.062 37.928 137.22 39.4858C136.385 41.0436 135.245 42.2334 133.8 43.0554C132.361 43.8707 130.744 44.2784 128.947 44.2784C127.138 44.2784 125.514 43.8674 124.075 43.0455C122.637 42.2235 121.5 41.0336 120.665 39.4759C119.83 37.9181 119.412 36.0322 119.412 33.8182C119.412 31.5975 119.83 29.7083 120.665 28.1506C121.5 26.5928 122.637 25.4062 124.075 24.5909C125.514 23.7689 127.138 23.358 128.947 23.358C130.744 23.358 132.361 23.7689 133.8 24.5909C135.245 25.4062 136.385 26.5928 137.22 28.1506C138.062 29.7083 138.483 31.5975 138.483 33.8182ZM134.118 33.8182C134.118 32.3797 133.902 31.1667 133.472 30.179C133.047 29.1913 132.447 28.4422 131.672 27.9318C130.896 27.4214 129.988 27.1662 128.947 27.1662C127.907 27.1662 126.999 27.4214 126.223 27.9318C125.447 28.4422 124.844 29.1913 124.413 30.179C123.989 31.1667 123.777 32.3797 123.777 33.8182C123.777 35.2566 123.989 36.4697 124.413 37.4574C124.844 38.4451 125.447 39.1941 126.223 39.7045C126.999 40.215 127.907 40.4702 128.947 40.4702C129.988 40.4702 130.896 40.215 131.672 39.7045C132.447 39.1941 133.047 38.4451 133.472 37.4574C133.902 36.4697 134.118 35.2566 134.118 33.8182ZM147.837 44.2983C146.432 44.2983 145.219 44.0464 144.198 43.5426C143.177 43.0388 142.391 42.3561 141.841 41.4943C141.298 40.6259 141.026 39.6581 141.026 38.5909C141.026 37.7955 141.185 37.0895 141.503 36.473C141.821 35.8565 142.266 35.2898 142.836 34.7727C143.406 34.2491 144.069 33.7287 144.824 33.2116L148.772 30.6165C149.282 30.2917 149.657 29.9503 149.895 29.5923C150.134 29.2277 150.253 28.8333 150.253 28.4091C150.253 28.0047 150.091 27.6302 149.766 27.2855C149.441 26.9408 148.98 26.7718 148.384 26.7784C147.986 26.7784 147.641 26.8679 147.35 27.0469C147.058 27.2192 146.829 27.4479 146.664 27.733C146.505 28.0114 146.425 28.3229 146.425 28.6676C146.425 29.0919 146.544 29.5227 146.783 29.9602C147.022 30.3977 147.34 30.8617 147.738 31.3523C148.135 31.8362 148.569 32.3598 149.04 32.9233L158.695 44H154.28L146.226 35.0312C145.696 34.428 145.166 33.7983 144.635 33.142C144.112 32.4792 143.674 31.7765 143.323 31.0341C142.971 30.285 142.796 29.473 142.796 28.598C142.796 27.6103 143.025 26.7221 143.482 25.9332C143.946 25.1444 144.596 24.5213 145.431 24.0639C146.266 23.5999 147.24 23.3679 148.354 23.3679C149.441 23.3679 150.379 23.59 151.168 24.0341C151.963 24.4716 152.573 25.0549 152.998 25.7841C153.428 26.5066 153.644 27.3021 153.644 28.1705C153.644 29.1316 153.405 30.0033 152.928 30.7855C152.457 31.5611 151.794 32.2571 150.939 32.8736L146.783 35.8665C146.22 36.2775 145.802 36.6984 145.53 37.1293C145.265 37.5535 145.132 37.9612 145.132 38.3523C145.132 38.8362 145.252 39.2704 145.49 39.6548C145.729 40.0393 146.067 40.3442 146.505 40.5696C146.942 40.7884 147.456 40.8977 148.046 40.8977C148.762 40.8977 149.468 40.7353 150.164 40.4105C150.866 40.0791 151.503 39.6117 152.073 39.0085C152.65 38.3987 153.11 37.6761 153.455 36.8409C153.8 36.0057 153.972 35.081 153.972 34.0668H157.482C157.482 35.313 157.346 36.4366 157.074 37.4375C156.802 38.4318 156.425 39.3002 155.941 40.0426C155.457 40.7784 154.903 41.3816 154.28 41.8523C154.081 41.9782 153.889 42.0975 153.703 42.2102C153.518 42.3229 153.326 42.4422 153.127 42.5682C152.371 43.178 151.526 43.6188 150.591 43.8906C149.663 44.1624 148.745 44.2983 147.837 44.2983ZM164.049 44H159.436L166.466 23.6364H172.014L179.034 44H174.42L169.319 28.2898H169.16L164.049 44ZM163.761 35.9957H174.659V39.3565H163.761V35.9957Z" fill="white"/>
<rect x="130" y="76" width="112" height="80" rx="16" fill="#292562" fill-opacity="0.4"/>
<path d="M188.797 124.923C188.912 124.502 188.659 123.916 188.417 123.494C188.342 123.368 188.261 123.246 188.173 123.129C186.103 119.99 185 116.312 185 112.552C184.966 101.759 193.916 93 204.984 93C214.636 93 222.692 99.6865 224.575 108.563C224.857 109.878 225 111.22 225 112.566C225 123.375 216.395 132.271 205.328 132.271C203.568 132.271 201.193 131.829 199.898 131.466C198.603 131.104 197.31 130.623 196.976 130.494C196.635 130.363 196.272 130.296 195.907 130.295C195.507 130.294 195.112 130.373 194.744 130.529L188.222 132.883C188.079 132.944 187.928 132.984 187.773 133C187.651 133 187.53 132.975 187.418 132.928C187.305 132.88 187.203 132.811 187.118 132.724C187.032 132.637 186.964 132.534 186.919 132.42C186.874 132.307 186.851 132.186 186.853 132.063C186.861 131.956 186.88 131.85 186.911 131.747L188.797 124.923Z" stroke="white" stroke-miterlimit="10" stroke-linecap="round"/>
<rect y="16" width="154" height="104" rx="16" fill="#292562" fill-opacity="0.2"/>
<rect width="2.71968" height="12.263" transform="matrix(0.95727 -0.289196 0.388058 0.921635 90.3305 84.6729)" fill="white"/>
<ellipse cx="90.3305" cy="80.3745" rx="4.49166" ry="3.80467" fill="white"/>
<path d="M86.7986 82.9795L86.7806 83.24L86.934 83.2195L87.6468 83.6966L88.9349 84.2117L89.4193 84.3111L90.5564 84.1765L91.3614 83.8634L91.9312 83.7931L91.9878 83.641L92.1409 83.6878L92.4363 83.5795L93.4576 83.0205L94.5691 81.7152L94.6538 81.3142L94.8162 81.2381L94.7481 81.1181L94.8984 80.5826L94.623 80.2285L94.7243 80.1524L94.5094 79.8216L94.4651 79.1368L94.2872 78.8236L93.9047 78.4286L93.5734 77.8022L93.0579 77.3457L92.0897 76.7779L91.9495 76.5994L91.4122 76.4179L91.4844 76.4882L90.9945 76.3887L90.6666 76.4911L90.4054 76.4413L90.3656 76.5204L89.8273 76.5613L89.743 76.7194L89.108 76.7252L88.4753 77.0589L88.0352 77.0676L88.125 77.1642L87.8503 77.2637L87.8158 77.4423L87.3566 77.612L87.0473 78.013L86.812 78.089L86.7934 78.2061L86.8901 78.2471L86.6282 78.2734L86.5035 78.5193L86.6203 78.6363L86.4064 78.6656L86.377 78.7973L86.1704 78.7534L86.2616 78.8149L86.2292 79.0256L86.0516 79.3183L86.1722 79.4617L85.9203 79.4441L86.1183 79.6051L85.9306 79.5524L86.0163 79.6665L85.8463 79.7251L85.9807 79.8538L85.8152 79.7982L85.8225 80.0763L85.6456 80.0967L85.8584 80.2226L85.5779 80.2665L85.7154 80.3338L85.6432 80.4714L85.8405 80.568L85.63 80.5475L85.677 80.7172L85.4711 81.0099L85.5378 81.3582L85.4397 81.3113L85.545 81.3962L85.4086 81.3025L85.5254 81.4108L85.4518 81.5601L85.5333 81.6157L85.3699 81.5747L85.5433 81.7445L85.5057 81.8615L85.6038 81.9288L85.4974 81.8996L85.6881 82.0137L85.6294 82.1249L85.8076 82.2683L85.6439 82.2888L85.9458 82.4791L85.7942 82.4761L86.1994 83.082L86.7955 83.3922L87.3403 83.5298L87.4882 83.6936L87.6216 83.6351L87.8088 83.7756L88.1236 83.7493L88.4626 83.8956L88.6871 83.8839L88.8906 84.0477L89.213 84.0156L90.2423 84.2877L91.7584 84.0565L92.5189 83.7727L92.6882 83.6497L92.6021 83.5532L92.7345 83.6175L92.5679 83.6087" stroke="#292562" stroke-width="0.698906" stroke-linecap="round" stroke-linejoin="round"/>
<path d="M89.9506 84.563L94.6924 96.7467" stroke="#292562" stroke-width="0.698906" stroke-linecap="round" stroke-linejoin="round"/>
<path d="M92.4266 83.6528L98.716 95.1898" stroke="#292562" stroke-width="0.698906" stroke-linecap="round" stroke-linejoin="round"/>
<path d="M94.1062 96.2576L98.4071 95.0576" stroke="#292562" stroke-width="0.698906" stroke-linecap="round" stroke-linejoin="round"/>
<path d="M90.203 86.6292L89.8876 86.7287L89.842 86.8457L90.2991 86.9452L90.6011 86.8487L90.9162 86.9101L91.0509 86.834L91.0278 86.7404L91.2976 86.6672L91.8798 86.2663H92.2229L92.4499 86.155L92.3953 86.1082L92.4955 86.1316L92.4392 86.0731L92.6123 86.2048L92.4779 86.1521L92.6555 86.1697L92.7284 86.1141L92.6161 86.0643L92.6987 86.1375L92.7685 86.1199L92.65 86.0614L92.896 86.0907L92.8334 86.0263L93.0041 86.0936L92.8096 86.0146L93.0093 86.1053L92.8611 86.0614L92.8614 85.9268" stroke="#292562" stroke-width="0.698906" stroke-linecap="round" stroke-linejoin="round"/>
<path d="M87.3453 77.6826L87.4223 77.6855L86.9949 78.3646L87.0896 78.5987L86.8326 78.7918L86.8992 79.1284L86.7721 79.3216L86.7904 79.9566L86.6608 80.6005L86.778 80.7293L86.5648 80.82L86.6757 80.9576L86.5306 80.978L86.6664 81.101L86.7462 81.4551L86.6671 81.5283L86.7621 81.5371L86.9286 81.9614L87.0889 82.0843L87.0437 82.2395L87.4113 82.9448L87.3194 83.015L87.6024 83.5828L87.7768 83.6794L87.7426 83.7613L88.2806 84.3847L88.188 84.1857L88.3511 84.0774" stroke="#292562" stroke-width="0.698906" stroke-linecap="round" stroke-linejoin="round"/>
<path d="M88.4194 77.5591L88.7259 77.7376L88.5573 77.7405L88.6641 77.7464L88.5518 77.7639L88.6506 77.8839L88.4073 77.8751L88.5694 78.5951L88.4813 78.6654L88.7211 79.157L88.7245 79.5463L89.0224 80.3218L89.1519 81.1091L89.466 81.5657L89.7403 82.4086L89.9079 82.5198L89.817 82.59L90.042 82.7627L90.0091 82.9324L90.3982 83.4007L90.5965 83.4885L90.5046 83.4534L90.5889 83.4768L90.5509 83.5734L90.9185 83.9948L90.7109 83.9187L90.7582 83.7373" stroke="#292562" stroke-width="0.698906" stroke-linecap="round" stroke-linejoin="round"/>
<path d="M88.4033 78.0186L88.9644 78.3142L90.1077 79.4058L90.5559 80.0116L90.7594 80.1228L90.7379 80.2721L91.5872 81.434L91.553 81.5979L91.8332 81.7998L91.8325 82.0105L92.4344 82.9149L92.4006 83.0671L92.5122 83.1578L92.3923 83.1314L92.5747 83.3217L92.4088 83.2339L92.423 83.1519" stroke="#292562" stroke-width="0.698906" stroke-linecap="round" stroke-linejoin="round"/>
<path d="M89.1473 77.2519L89.2361 77.1875L89.0889 77.205L89.2019 77.1758L89.2506 77.2782L89.092 77.2431L89.3826 77.5358L90.2101 78.0157L91.2445 78.9289L91.8626 79.3269L92.2171 79.6986L92.5523 80.3307L93.6047 81.317L93.7329 81.5482L93.6828 81.7356L93.9716 82.0165" stroke="#292562" stroke-width="0.698906" stroke-linecap="round" stroke-linejoin="round"/>
<path d="M85.1756 80.4449L86.918 80.638L87.1492 80.477L88.7651 80.038L89.4717 79.3473L90.369 78.9727L90.4917 78.7298L90.9588 78.5835L91.2556 78.3025L91.598 78.1855L91.5963 78.1006" stroke="#292562" stroke-width="0.698906" stroke-linecap="round" stroke-linejoin="round"/>
<path d="M85.3706 83.2194L86.6062 82.9853L88.4605 82.8302L89.466 82.0107L91.9181 80.8781L92.2328 80.4976L92.5079 80.4186L92.7808 80.123" stroke="#292562" stroke-width="0.698906" stroke-linecap="round" stroke-linejoin="round"/>
<path d="M97.8561 93.5562L97.8495 93.9103L97.8602 93.843L97.9473 93.9425L97.8678 93.9366L97.8751 94.4986L98.1722 95.0049L98.5923 95.119" stroke="#292562" stroke-width="0.698906" stroke-linecap="round" stroke-linejoin="round"/>
<path d="M96.1021 96.202L95.5078 96.123L95.6768 96.1142L95.7666 96.2079L95.739 96.0586L95.6166 96.0469L95.788 96.0908L95.6674 96.0586L95.6128 96.1493L96.9054 96.9512L96.9894 97.2644L97.5329 97.7473L97.7329 98.0253L97.8041 98.3238" stroke="#292562" stroke-width="0.698906" stroke-linecap="round" stroke-linejoin="round"/>
<path d="M99.0629 99.003L99.0449 98.6839L98.9461 98.6752L99.0867 98.7366L99.0532 98.8039L98.9471 98.76L99.0798 98.7396L99.1147 98.9737L99.7449 99.8868L99.926 100.61L100.327 101.166L101.145 101.619L104.463 103.99L105.769 104.713L106.203 104.836L106.48 105.114L107.068 105.254L107.663 105.734L107.855 105.778L107.951 105.936L108.397 105.942L110.039 106.58L110.813 106.279L111.753 106.349L112.838 106.053L114.64 104.739L115.83 104.057L115.959 103.607L116.486 103.173L117.717 101.599L118.62 99.878L118.839 99.2546L119 98.5201L118.745 96.1085L118.789 95.3504L118.475 94.3027L118.12 93.533L117.814 93.3106L117.659 93.0355L117.645 92.7896L117.434 92.4121L115.883 90.9283L115.298 90.5332L114.173 90.1059L113.954 89.8454L113.124 89.5732L112.319 89.5439L110.112 90.378L108.926 91.1244L108.391 91.8911L108.106 92.0375L108.039 92.2599L107.558 92.8511L107.452 93.653L107.01 94.2617L106.971 94.613L106.769 94.8032L106.401 95.5699L106.523 97.7474L106.316 98.3649L106.259 98.9707L106.556 100.294L106.744 100.513L106.865 100.993L107.726 101.748L108.822 102.345L110.295 102.509L111.967 102.974L113.513 102.872L113.765 102.767L114.449 102.099L115.448 100.7L115.718 99.9658L115.925 99.8926L115.761 99.9073L115.936 99.8107L116.349 99.0234L116.441 98.5669L116.373 98.4176L116.485 97.3699L116.318 96.369L116.16 96.0207L116.331 95.6373L116.18 95.3212L115.71 94.8617L115.34 94.1271L114.725 93.735L113.951 93.5067L113.544 93.6998L112.328 93.9545L112.241 94.0276L112.304 94.1154L111.904 94.4022L111.696 95.0168L111.533 95.1134L111.726 95.3095L111.545 95.3739L111.284 95.9065L111.373 96.0558L111.284 96.4831L111.48 96.5299L111.163 96.6236L111.337 96.6177L111.227 96.6294L110.91 97.5484L111.073 97.8967L111.046 98.324L111.163 98.6635L110.989 98.9971L111.02 99.2341L111.17 99.3893L111.066 99.4332L110.984 99.8868L111.178 100.627L111.272 100.654L111.295 100.99L111.097 101.286L111.355 101.526L111.302 101.871L111.441 102.067L111.277 102.383L111.294 102.805L111.149 102.989L111.313 103.618L111.248 104.294L111.595 105.907L111.548 106.065L112.017 106.808L111.849 107.423L111.98 107.637L112.015 108.163L112.302 108.553L112.363 108.924L112.642 109.384L112.495 109.896L112.877 110.634L112.879 111.389L113.156 112.682L113.156 112.799L113.001 112.84L113.147 112.726L113.014 112.934L113.113 112.978L112.959 112.937L113.134 114.388L113.096 115" stroke="#292562" stroke-width="0.698906" stroke-linecap="round" stroke-linejoin="round"/>
<rect x="29.0317" y="48.1747" width="42.8396" height="50.2819" fill="white" stroke="#292562" stroke-width="0.349453"/>
<rect x="14.1747" y="54.3207" width="42.8396" height="50.2819" fill="white" stroke="#292562" stroke-width="0.349453"/>
<line x1="19.1827" y1="58.6539" x2="52.0064" y2="58.6539" stroke="#292562" stroke-width="0.349453"/>
<line x1="19.1827" y1="60.4102" x2="52.0064" y2="60.4102" stroke="#292562" stroke-width="0.349453"/>
<line x1="19.1827" y1="63.922" x2="52.0064" y2="63.922" stroke="#292562" stroke-width="0.349453"/>
<line x1="19.1827" y1="65.6778" x2="52.0064" y2="65.6778" stroke="#292562" stroke-width="0.349453"/>
<line x1="19.1827" y1="67.4342" x2="52.0064" y2="67.4342" stroke="#292562" stroke-width="0.349453"/>
<line x1="19.1827" y1="69.19" x2="52.0064" y2="69.19" stroke="#292562" stroke-width="0.349453"/>
<line x1="19.1827" y1="70.9459" x2="52.0064" y2="70.9459" stroke="#292562" stroke-width="0.349453"/>
<line x1="19.1827" y1="72.7017" x2="52.0064" y2="72.7017" stroke="#292562" stroke-width="0.349453"/>
<line x1="19.1827" y1="77.9698" x2="52.0064" y2="77.9698" stroke="#292562" stroke-width="0.349453"/>
<line x1="19.1827" y1="79.7262" x2="52.0064" y2="79.7262" stroke="#292562" stroke-width="0.349453"/>
<line x1="19.1827" y1="81.482" x2="52.0064" y2="81.482" stroke="#292562" stroke-width="0.349453"/>
<line x1="19.1827" y1="83.2379" x2="52.0064" y2="83.2379" stroke="#292562" stroke-width="0.349453"/>
<line x1="19.1827" y1="84.9937" x2="52.0064" y2="84.9937" stroke="#292562" stroke-width="0.349453"/>
<line x1="19.1827" y1="86.7501" x2="52.0064" y2="86.7501" stroke="#292562" stroke-width="0.349453"/>
<line x1="19.1827" y1="90.2623" x2="52.0064" y2="90.2623" stroke="#292562" stroke-width="0.349453"/>
<line x1="19.1827" y1="92.0177" x2="52.0064" y2="92.0177" stroke="#292562" stroke-width="0.349453"/>
<line x1="19.1827" y1="93.774" x2="52.0064" y2="93.774" stroke="#292562" stroke-width="0.349453"/>
<line x1="19.1827" y1="95.5299" x2="52.0064" y2="95.5299" stroke="#292562" stroke-width="0.349453"/>
<line x1="19.1827" y1="97.2862" x2="52.0064" y2="97.2862" stroke="#292562" stroke-width="0.349453"/>
<line x1="19.1827" y1="99.0421" x2="52.0064" y2="99.0421" stroke="#292562" stroke-width="0.349453"/>
<line x1="56.8436" y1="56.6051" x2="67.9" y2="56.6051" stroke="#292562" stroke-width="0.349453"/>
<line x1="56.8436" y1="58.3614" x2="67.9" y2="58.3614" stroke="#292562" stroke-width="0.349453"/>
<line x1="56.8436" y1="60.1173" x2="67.9" y2="60.1173" stroke="#292562" stroke-width="0.349453"/>
<line x1="56.8436" y1="65.3853" x2="67.9" y2="65.3853" stroke="#292562" stroke-width="0.349453"/>
<line x1="56.8436" y1="67.1412" x2="67.9" y2="67.1412" stroke="#292562" stroke-width="0.349453"/>
<line x1="56.8436" y1="68.8975" x2="67.9" y2="68.8975" stroke="#292562" stroke-width="0.349453"/>
<line x1="56.8436" y1="70.6534" x2="67.9" y2="70.6534" stroke="#292562" stroke-width="0.349453"/>
<line x1="56.8436" y1="72.4097" x2="67.9" y2="72.4097" stroke="#292562" stroke-width="0.349453"/>
<line x1="56.8436" y1="74.1651" x2="67.9" y2="74.1651" stroke="#292562" stroke-width="0.349453"/>
<line x1="56.8436" y1="75.921" x2="67.9" y2="75.921" stroke="#292562" stroke-width="0.349453"/>
<line x1="56.8436" y1="81.1895" x2="67.9" y2="81.1895" stroke="#292562" stroke-width="0.349453"/>
<line x1="56.8436" y1="82.9449" x2="67.9" y2="82.9449" stroke="#292562" stroke-width="0.349453"/>
<line x1="56.8436" y1="84.7013" x2="67.9" y2="84.7012" stroke="#292562" stroke-width="0.349453"/>
<line x1="56.8436" y1="91.7252" x2="67.9" y2="91.7252" stroke="#292562" stroke-width="0.349453"/>
<line x1="56.8436" y1="93.4815" x2="67.9" y2="93.4815" stroke="#292562" stroke-width="0.349453"/>
<line x1="56.8436" y1="95.2374" x2="67.9" y2="95.2374" stroke="#292562" stroke-width="0.349453"/>
</svg>
