<svg width="305" height="230" viewBox="0 0 305 230" fill="none" xmlns="http://www.w3.org/2000/svg">
<rect x="220.92" y="125.307" width="8" height="41" transform="rotate(-19.629 220.92 125.307)" fill="white"/>
<circle cx="220.92" cy="110.619" r="13" fill="white"/>
<path d="M210.698 119.52L210.646 120.41L211.09 120.34L213.153 121.97L216.881 123.73L218.283 124.07L221.574 123.61L223.904 122.54L225.553 122.3L225.717 121.78L226.16 121.94L227.015 121.57L229.971 119.66L233.188 115.2L233.433 113.83L233.903 113.57L233.706 113.16L234.141 111.33L233.344 110.12L233.637 109.86L233.015 108.73L232.887 106.39L232.372 105.32L231.265 103.97L230.306 101.83L228.814 100.27L226.012 98.33L225.605 97.72L224.051 97.1L224.26 97.34L222.842 97L221.893 97.35L221.137 97.1799L221.021 97.45L219.464 97.59L219.219 98.13L217.382 98.15L215.551 99.2899L214.277 99.3199L214.536 99.65L213.742 99.99L213.642 100.6L212.312 101.18L211.418 102.55L210.737 102.81L210.683 103.21L210.963 103.35L210.204 103.44L209.844 104.28L210.182 104.68L209.562 104.78L209.478 105.23L208.88 105.08L209.144 105.29L209.049 106.01L208.536 107.01L208.885 107.5L208.156 107.44L208.729 107.99L208.186 107.81L208.434 108.2L207.941 108.4L208.331 108.84L207.852 108.65L207.872 109.6L207.361 109.67L207.977 110.1L207.165 110.25L207.562 110.48L207.354 110.95L207.924 111.28L207.316 111.21L207.452 111.79L206.855 112.79L207.049 113.98L206.765 113.82L207.07 114.11L206.674 113.79L207.012 114.16L206.799 114.67L207.036 114.86L206.562 114.72L207.064 115.3L206.956 115.7L207.24 115.93L206.932 115.83L207.484 116.22L207.314 116.6L207.829 117.09L207.355 117.16L208.23 117.81L207.79 117.8L208.964 119.87L210.689 120.93L212.266 121.4L212.693 121.96L213.079 121.76L213.622 122.24L214.533 122.15L215.514 122.65L216.163 122.61L216.753 123.17L217.686 123.06L220.665 123.99L225.053 123.2L227.254 122.23L227.743 121.81L227.495 121.48L227.878 121.7L227.396 121.67" stroke="#292562" stroke-width="2" stroke-linecap="round" stroke-linejoin="round"/>
<path d="M219.82 124.93L233.544 166.56" stroke="#292562" stroke-width="2" stroke-linecap="round" stroke-linejoin="round"/>
<path d="M226.986 121.819L245.189 161.239" stroke="#292562" stroke-width="2" stroke-linecap="round" stroke-linejoin="round"/>
<path d="M231.848 164.889L244.296 160.789" stroke="#292562" stroke-width="2" stroke-linecap="round" stroke-linejoin="round"/>
<path d="M220.551 131.99L219.638 132.33L219.506 132.73L220.829 133.07L221.703 132.74L222.615 132.95L223.005 132.69L222.938 132.37L223.719 132.12L225.404 130.75H226.397L227.054 130.37L226.896 130.21L227.186 130.29L227.023 130.09L227.524 130.54L227.135 130.36L227.649 130.42L227.86 130.23L227.535 130.06L227.774 130.31L227.976 130.25L227.633 130.05L228.345 130.15L228.164 129.93L228.658 130.16L228.095 129.89L228.673 130.2L228.244 130.05L228.245 129.59" stroke="#292562" stroke-width="2" stroke-linecap="round" stroke-linejoin="round"/>
<path d="M212.28 101.42L212.503 101.43L211.266 103.75L211.54 104.55L210.796 105.21L210.989 106.36L210.621 107.02L210.674 109.19L210.299 111.39L210.638 111.83L210.021 112.14L210.342 112.61L209.922 112.68L210.315 113.1L210.546 114.31L210.317 114.56L210.592 114.59L211.074 116.04L211.538 116.46L211.407 116.99L212.471 119.4L212.205 119.64L213.024 121.58L213.529 121.91L213.43 122.19L214.987 124.32L214.719 123.64L215.191 123.27" stroke="#292562" stroke-width="2" stroke-linecap="round" stroke-linejoin="round"/>
<path d="M215.389 101L216.276 101.61L215.788 101.62L216.097 101.64L215.772 101.7L216.058 102.11L215.354 102.08L215.823 104.54L215.568 104.78L216.262 106.46L216.272 107.79L217.134 110.44L217.509 113.13L218.418 114.69L219.212 117.57L219.697 117.95L219.434 118.19L220.085 118.78L219.99 119.36L221.116 120.96L221.69 121.26L221.424 121.14L221.668 121.22L221.558 121.55L222.622 122.99L222.021 122.73L222.158 122.11" stroke="#292562" stroke-width="2" stroke-linecap="round" stroke-linejoin="round"/>
<path d="M215.342 102.569L216.966 103.579L220.275 107.309L221.572 109.379L222.161 109.759L222.099 110.269L224.557 114.239L224.458 114.799L225.269 115.489L225.267 116.209L227.009 119.299L226.911 119.819L227.234 120.129L226.887 120.039L227.415 120.689L226.935 120.389L226.976 120.109" stroke="#292562" stroke-width="2" stroke-linecap="round" stroke-linejoin="round"/>
<path d="M217.495 99.9495L217.752 99.7295L217.326 99.7894L217.653 99.6895L217.794 100.039L217.335 99.9194L218.176 100.919L220.571 102.559L223.565 105.679L225.354 107.039L226.38 108.309L227.35 110.469L230.396 113.839L230.767 114.63L230.622 115.27L231.458 116.229" stroke="#292562" stroke-width="2" stroke-linecap="round" stroke-linejoin="round"/>
<path d="M206 110.86L211.043 111.52L211.712 110.97L216.389 109.47L218.434 107.11L221.031 105.83L221.386 105L222.738 104.5L223.597 103.54L224.588 103.14L224.583 102.85" stroke="#292562" stroke-width="2" stroke-linecap="round" stroke-linejoin="round"/>
<path d="M206.564 120.34L210.14 119.54L215.507 119.01L218.417 116.21L225.514 112.34L226.425 111.04L227.221 110.77L228.011 109.76" stroke="#292562" stroke-width="2" stroke-linecap="round" stroke-linejoin="round"/>
<path d="M242.701 155.659L242.682 156.869L242.713 156.639L242.965 156.979L242.735 156.959L242.756 158.879L243.616 160.609L244.832 160.999" stroke="#292562" stroke-width="2" stroke-linecap="round" stroke-linejoin="round"/>
<path d="M237.624 164.7L235.904 164.43L236.393 164.4L236.653 164.72L236.573 164.21L236.219 164.17L236.715 164.32L236.366 164.21L236.208 164.52L239.949 167.26L240.192 168.33L241.765 169.98L242.344 170.93L242.55 171.95" stroke="#292562" stroke-width="2" stroke-linecap="round" stroke-linejoin="round"/>
<path d="M246.193 174.269L246.141 173.179L245.855 173.149L246.262 173.359L246.165 173.589L245.858 173.439L246.242 173.369L246.343 174.169L248.167 177.289L248.691 179.759L249.853 181.659L252.218 183.209L261.821 191.309L265.603 193.779L266.859 194.199L267.66 195.149L269.361 195.629L271.084 197.269L271.641 197.419L271.918 197.959L273.207 197.979L277.962 200.159L280.2 199.129L282.922 199.369L286.062 198.359L291.277 193.869L294.72 191.539L295.095 189.999L296.619 188.519L300.184 183.139L302.795 177.259L303.43 175.129L303.896 172.619L303.159 164.379L303.285 161.789L302.377 158.209L301.349 155.579L300.463 154.819L300.016 153.879L299.975 153.039L299.363 151.749L294.876 146.679L293.181 145.329L289.926 143.869L289.293 142.979L286.89 142.049L284.56 141.949L278.172 144.799L274.739 147.349L273.192 149.969L272.367 150.469L272.171 151.229L270.781 153.249L270.473 155.989L269.193 158.069L269.08 159.269L268.497 159.919L267.43 162.539L267.784 169.979L267.185 172.089L267.019 174.159L267.881 178.679L268.423 179.429L268.775 181.069L271.267 183.649L274.438 185.689L278.701 186.249L283.54 187.839L288.014 187.489L288.745 187.129L290.723 184.849L293.617 180.069L294.398 177.559L294.995 177.309L294.521 177.359L295.028 177.029L296.222 174.339L296.491 172.779L296.292 172.269L296.618 168.689L296.135 165.269L295.677 164.079L296.17 162.769L295.735 161.689L294.375 160.119L293.303 157.609L291.522 156.269L289.283 155.489L288.105 156.149L284.585 157.019L284.335 157.269L284.516 157.569L283.357 158.549L282.755 160.649L282.286 160.979L282.843 161.649L282.32 161.869L281.565 163.689L281.821 164.199L281.564 165.659L282.13 165.819L281.213 166.139L281.717 166.119L281.4 166.159L280.482 169.299L280.953 170.489L280.875 171.949L281.215 173.109L280.71 174.249L280.8 175.059L281.233 175.589L280.933 175.739L280.696 177.289L281.256 179.819L281.529 179.909L281.595 181.059L281.023 182.069L281.769 182.889L281.615 184.069L282.018 184.739L281.545 185.819L281.592 187.259L281.173 187.889L281.647 190.039L281.46 192.349L282.463 197.859L282.328 198.399L283.685 200.939L283.199 203.039L283.578 203.769L283.681 205.569L284.51 206.899L284.688 208.169L285.494 209.739L285.068 211.489L286.175 214.009L286.18 216.589L286.983 221.009L286.982 221.409L286.534 221.549L286.955 221.159L286.57 221.869L286.858 222.019L286.412 221.879L286.919 226.839L286.809 228.929" stroke="#292562" stroke-width="2" stroke-linecap="round" stroke-linejoin="round"/>
<rect x="43.5" y="0.5" width="124" height="172" fill="white" stroke="#292562"/>
<rect x="0.5" y="21.5" width="124" height="172" fill="white" stroke="#292562"/>
<line x1="15" y1="36.5" x2="110" y2="36.5" stroke="#292562"/>
<line x1="15" y1="42.5" x2="110" y2="42.5" stroke="#292562"/>
<line x1="15" y1="54.5" x2="110" y2="54.5" stroke="#292562"/>
<line x1="15" y1="60.5" x2="110" y2="60.5" stroke="#292562"/>
<line x1="15" y1="66.5" x2="110" y2="66.5" stroke="#292562"/>
<line x1="15" y1="72.5" x2="110" y2="72.5" stroke="#292562"/>
<line x1="15" y1="78.5" x2="110" y2="78.5" stroke="#292562"/>
<line x1="15" y1="84.5" x2="110" y2="84.5" stroke="#292562"/>
<line x1="15" y1="102.5" x2="110" y2="102.5" stroke="#292562"/>
<line x1="15" y1="108.5" x2="110" y2="108.5" stroke="#292562"/>
<line x1="15" y1="114.5" x2="110" y2="114.5" stroke="#292562"/>
<line x1="15" y1="120.5" x2="110" y2="120.5" stroke="#292562"/>
<line x1="15" y1="126.5" x2="110" y2="126.5" stroke="#292562"/>
<line x1="15" y1="132.5" x2="110" y2="132.5" stroke="#292562"/>
<line x1="15" y1="144.5" x2="110" y2="144.5" stroke="#292562"/>
<line x1="15" y1="150.5" x2="110" y2="150.5" stroke="#292562"/>
<line x1="15" y1="156.5" x2="110" y2="156.5" stroke="#292562"/>
<line x1="15" y1="162.5" x2="110" y2="162.5" stroke="#292562"/>
<line x1="15" y1="168.5" x2="110" y2="168.5" stroke="#292562"/>
<line x1="15" y1="174.5" x2="110" y2="174.5" stroke="#292562"/>
<line x1="124" y1="29.5" x2="156" y2="29.5" stroke="#292562"/>
<line x1="124" y1="35.5" x2="156" y2="35.5" stroke="#292562"/>
<line x1="124" y1="41.5" x2="156" y2="41.5" stroke="#292562"/>
<line x1="124" y1="59.5" x2="156" y2="59.5" stroke="#292562"/>
<line x1="124" y1="65.5" x2="156" y2="65.5" stroke="#292562"/>
<line x1="124" y1="71.5" x2="156" y2="71.5" stroke="#292562"/>
<line x1="124" y1="77.5" x2="156" y2="77.5" stroke="#292562"/>
<line x1="124" y1="83.5" x2="156" y2="83.5" stroke="#292562"/>
<line x1="124" y1="89.5" x2="156" y2="89.5" stroke="#292562"/>
<line x1="124" y1="95.5" x2="156" y2="95.5" stroke="#292562"/>
<line x1="124" y1="113.5" x2="156" y2="113.5" stroke="#292562"/>
<line x1="124" y1="119.5" x2="156" y2="119.5" stroke="#292562"/>
<line x1="124" y1="125.5" x2="156" y2="125.5" stroke="#292562"/>
<line x1="124" y1="149.5" x2="156" y2="149.5" stroke="#292562"/>
<line x1="124" y1="155.5" x2="156" y2="155.5" stroke="#292562"/>
<line x1="124" y1="161.5" x2="156" y2="161.5" stroke="#292562"/>
</svg>
