<svg width="68" height="94" viewBox="0 0 68 94" fill="none" xmlns="http://www.w3.org/2000/svg">
<path d="M27.4572 8.65919L26.1299 10.696L26.1234 11.3717L25.8266 11.7294L25.7242 12.4398L25.1585 13.6123L25.2395 14.5214L24.1339 18.4013L24.3457 19.2559L24.122 19.9265L24.0156 24.4275L24.1598 25.3366L24.5182 25.9178L24.5704 27.5424L24.8582 28.3621L26.2189 30.3194L26.544 31.1044L28.3967 33.2704L29.3144 34.8651L30.2545 35.7047L34.2662 36.6784L37.3906 36.7927L38.1054 36.6288L41.198 34.6366L43.0144 32.6097L44.5913 31.3528L45.1511 30.548L45.33 29.8724L45.8063 29.3706L46.6399 27.5573L47.9866 21.8243L47.7873 21.1785L47.9826 20.0607L47.7773 18.5603L47.8554 16.8365L47.2479 13.9103L46.8606 13.4036L47.2494 12.2659L46.7219 11.5605L46.7617 11.019L46.4341 10.8799L46.4823 10.4427L45.943 9.93598L44.7529 7.00488" stroke="#292562" stroke-width="1.5068" stroke-linecap="round" stroke-linejoin="round"/>
<path d="M27.9208 6.33447L27.0135 7.81988L26.6412 8.02359L26.7754 8.04342L26.5875 8.26204L26.7699 9.45927L26.3464 10.0256L26.3359 10.5076L26.501 10.5572" stroke="#292562" stroke-width="1.5068" stroke-linecap="round" stroke-linejoin="round"/>
<path d="M27.543 9.52881L27.6051 9.8766L27.7766 9.77223L27.9049 9.87163L27.7781 9.95107L28.0306 9.94119L27.9322 10.2839L28.3468 10.7211L28.4234 11.1186L28.8156 11.2825L28.9185 11.4415L28.7698 11.4862L29.0925 11.7446L29.0224 12.1866L29.5891 12.3904L29.7432 12.7978L34.0194 15.7686L34.9391 16.5287L35.0171 16.936L35.5152 16.9857L38.9931 19.9565L40.296 20.667L40.9606 20.7266L42.8159 21.4569L44.5478 21.4321L45.8289 21.6903L46.6556 21.596L48.9329 20.7067" stroke="#292562" stroke-width="1.5068" stroke-linecap="round" stroke-linejoin="round"/>
<path d="M37.8438 8.79395L38.5492 9.34538L40.5943 10.2297L41.1366 11.2084L41.8043 12.038L42.4545 12.3957L42.8731 13.131L43.9797 15.148L44.526 16.9563L44.8844 17.3885L44.6881 17.7909L45.1056 18.2927L45.3229 19.4949L45.7464 19.783L45.5739 19.9669L46.0109 20.2948L46.5488 20.0314L46.0651 19.9172" stroke="#292562" stroke-width="1.5068" stroke-linecap="round" stroke-linejoin="round"/>
<path d="M33.668 10.5376L36.0715 13.0812L37.1408 15.3565L39.4917 17.3536L40.7375 18.0243L40.995 18.5758L41.601 19.1173L42.8999 19.4402" stroke="#292562" stroke-width="1.5068" stroke-linecap="round" stroke-linejoin="round"/>
<path d="M28.9829 33.3354L28.0901 33.6683L28.1632 33.8124L28.2974 33.559L28.1796 33.549L28.3277 33.6683L28.1727 33.8819L28.2994 34.1601L28.1886 35.0295L28.5435 35.8691L28.5972 36.3063L28.4177 36.3559L28.4381 36.4901L28.8239 36.9273L28.5112 37.7669L28.6991 38.0252L28.6365 38.5865L28.8149 38.8101L28.7175 40.1365L28.9129 40.6036L28.6752 40.8221L28.8522 41.3736L28.6553 42.0095L28.8666 42.4616L28.5957 42.5609L28.0499 44.1258L27.6104 44.5332L27.5339 44.9952L27.1849 45.5367L26.8235 45.6957L26.0271 46.4955L25.5822 46.6893L25.4375 47.0818L24.8932 47.3053L24.3434 47.7822L24.2782 48.0455L23.6613 48.6069L23.8259 48.7013L23.1085 49.1286L22.7944 49.5012L22.1401 49.6502L22.3743 49.6303L20.5394 51.1207L20.6766 51.1803L19.9061 52.1143L20.2063 52.0348L19.9016 51.9454L20.0771 52.0199L19.7077 52.2434L19.5865 52.8744L19.0292 53.401L18.283 55.2838L18.1856 55.2044L17.9842 55.3733L17.6611 56.3718L17.4667 56.4314L17.5865 56.4662L17.514 56.7047L16.5501 57.6486L16.7414 57.7629L16.5898 57.8672L16.5913 58.364L16.0534 59.1837L15.5931 60.5151L15.351 60.7387L15.1253 61.9161L14.6257 62.393L14.7594 62.8202L14.407 63.9728L14.0714 64.1566L13.5505 65.1601L13.63 65.3837L12.7595 67.5944L11.6838 69.7853L11.2955 70.2175L10.8864 71.4992L10.2541 72.2196L9.91752 73.0542L9.85041 73.8242L9.49248 74.2515L9.32696 74.9817L8.45054 76.0499L8.7329 76.3132L8.68019 76.4473L8.18954 76.7106L7.34395 77.7439L7.34246 78.0917L7.0765 78.5488L7.19879 78.5239L7.01934 78.5885L7.00343 78.9363L6.28906 80.2229" stroke="#292562" stroke-width="1.20544" stroke-linecap="round" stroke-linejoin="round"/>
<path d="M30.0122 4.24316L30.1051 4.38725L30.1459 4.273L29.6985 4.30278L29.1671 4.69526L29.0736 4.93372L29.1621 4.80952L28.8753 4.84433L28.6267 5.03808L28.7674 5.05791L28.6516 5.19206L28.2991 5.202L28.236 5.29637H28.4244L27.976 5.64416L27.9705 5.95714L27.7627 6.16576L27.8467 6.2751L27.5693 6.22537L27.8368 6.25521L27.4311 6.63775L27.5539 6.83151L27.196 7.25874L27.3392 7.40283L27.1095 8.56034L27.2417 8.92299L26.9375 9.06211L27.1791 9.18631L27.017 9.44962L27.1527 9.73277L26.9952 9.66819L27.3223 10.3885L27.2084 10.9648" stroke="#292562" stroke-width="1.20544" stroke-linecap="round" stroke-linejoin="round"/>
<path d="M26.3517 3.90575L26.1816 3.88586L26.4063 3.88089L26.3651 3.59774L26.1906 3.57785L26.4133 3.51326L26.198 3.49835L26.4431 3.48349L26.2522 3.50332L26.4262 3.47852L26.7662 3.87592L27.407 4.08956L27.5373 4.3926L28.1994 4.8894L28.4574 5.51536L28.8705 5.42591" stroke="#292562" stroke-width="1.20544" stroke-linecap="round" stroke-linejoin="round"/>
<path d="M25.8614 3.5628L25.9434 3.25977L26.0587 3.62739L26.186 3.61744L25.9742 3.61253L25.9394 3.98015L25.4786 4.40242L25.6083 4.62098L25.2673 5.11777L25.3593 5.54998L25.0421 5.90772L24.884 6.83673L24.6101 7.14474L24.8447 7.43285L24.5022 7.97932L24.3596 8.58048L24.5102 8.97291L24.3616 9.06733L24.3576 9.59887L24.1359 9.94667L24.3009 10.2447L24.1895 10.657L24.3069 10.8458L24.1224 11.3526L24.033 12.4753L24.1567 12.7287L23.9986 12.8231L24.2169 12.8678L24.0653 13.2056L24.0732 13.0963L23.9266 13.1659L23.9395 13.5782L23.766 13.6775L23.9877 13.7819L23.8137 13.767L23.7218 14.2638L23.944 14.4625L23.5572 14.6115L23.8684 14.5917L23.6427 14.691L23.8624 14.7656L23.6472 14.9394L23.9241 15.0189L23.6188 14.9643L23.7496 15.1679L23.9643 15.1133L23.6621 15.1034L23.5527 15.8933L23.6407 15.7492L23.5776 16.1467L23.8421 16.4696L23.5776 16.4944L23.7809 16.5838L23.5671 16.713L23.7605 16.7577L23.7536 17.7811L23.5985 17.8805L24.0066 17.955L23.8127 17.9748L23.7277 18.2381L23.9574 18.5213H23.7441L24.2571 19.5547L24.199 20.2353" stroke="#292562" stroke-width="1.20544" stroke-linecap="round" stroke-linejoin="round"/>
<path d="M27.3179 3.07L26.9317 3.20911L27.2692 3.16442L26.9963 3.21409L27.1459 3.09983L26.8203 3.05017L27.1429 3.03028L26.964 2.89116L27.1598 2.88619L26.9366 2.9011L26.9998 2.69243L26.7661 2.62287L26.9396 2.54343L26.613 2.3447L26.3535 2.46392L27.1415 2.33475L27.302 2.11619L28.0223 1.78332L28.7446 1.78829L29.7493 1.40077L30.0451 1.42564L31.2123 0.864258H33.0343L34.7121 1.28155L35.6397 1.73862L35.8037 1.85785L35.7217 1.93735L36.018 1.91746L36.2983 2.16089L37.0535 2.3447L37.1981 2.55835L38.1596 2.99055L38.087 3.06005L39.5952 3.56679L40.5368 4.00895L40.5452 4.12817L41.0796 4.23254L41.0329 4.35674L41.5136 4.39646L41.9182 4.8237L42.8682 5.14165" stroke="#292562" stroke-width="1.20544" stroke-linecap="round" stroke-linejoin="round"/>
<path d="M32.5318 4.26318L32.3906 4.56622L32.4075 4.44202L32.5721 4.47186L32.505 4.606L33.1308 5.39589L34.0082 6.38948L34.648 6.83163L34.6694 7.10484L35.3271 8.00406L35.3137 8.22262L35.5866 8.34185L35.691 8.76417L36.2821 9.15163L36.7349 10.021L37.0605 10.2943L36.9964 10.5874L37.578 10.8159L37.4547 10.9153L37.5721 11.2829L38.1641 11.9834L38.0622 12.1772L38.5743 12.4206L38.5181 12.5497L38.6916 12.5547L40.076 14.1245L39.9443 14.3382L40.7536 14.9046L41.5734 16.2856L41.8776 16.3403L41.7618 16.4247L42.1177 16.6731L42.2191 16.9663L42.1003 17.0308L42.5641 17.319L42.8604 17.8555L43.3878 18.3225L43.8353 18.3473L43.8074 18.089L44.1474 17.8257L43.9466 17.5723" stroke="#292562" stroke-width="1.20544" stroke-linecap="round" stroke-linejoin="round"/>
<path d="M27.5806 3.07629H27.4658L27.6821 3.1558L27.4549 2.71862L27.3321 2.79812L27.4479 2.8279L27.4096 2.58945H27.177L27.4772 2.58447L27.1367 2.66895L27.2819 2.63414L27.5379 2.92729L27.9818 3.94071L28.6296 4.60149L29.6889 6.28066L29.9375 6.42966L30.2333 7.20966L30.7736 7.59214L30.8069 7.99955L31.3214 8.61557L31.3975 9.18192L31.6664 9.35579L31.4562 9.36573L32.524 10.2302L32.9435 10.3295L32.7879 10.4587L33.6992 10.9406L33.6728 11.2436L33.9 11.2188L34.0571 11.4572L34.6218 11.6957L34.6482 12.0683" stroke="#292562" stroke-width="1.20544" stroke-linecap="round" stroke-linejoin="round"/>
<path d="M37.6185 37.3198L37.2397 37.6576L37.0905 37.6229L36.921 37.9259L36.5312 37.901L36.7023 37.8166L36.7381 37.5284L36.7803 37.8266L36.6068 37.916L36.9961 38.075L36.6148 38.4476L37.0055 39.2474L36.8424 39.3219L36.7813 39.6746L36.927 39.8038L36.7962 39.9826L36.7982 40.693L36.999 40.7626L36.7689 40.8471L36.7301 41.0756L36.9125 41.1352L36.8574 41.3289L37.089 41.6121L36.9324 41.627L37.0408 41.7314L36.8663 41.94L37.0652 42.094L36.9468 42.253L37.0736 42.3275L36.8554 42.4815L37.0279 42.6554L36.9165 42.5908L37.0234 42.6802L36.9185 43.018L37.1064 43.2913L36.8081 43.1919L37.0209 43.2814L37.0925 43.5248L36.9434 43.6291L37.1094 43.8179L36.8733 43.8825L37.5265 44.419L37.4315 44.5184L37.8054 44.8463L37.7373 44.9804L37.8943 45.1493L38.2538 45.204L38.2398 45.3729L39.2674 46.0088L39.9812 45.969L39.8336 46.0783L40.7195 46.3367L40.5907 46.431L40.9148 46.4111L41.3145 46.7291L42.4057 47.0967L43.3557 46.8831L43.3999 47.057" stroke="#292562" stroke-width="1.20544" stroke-linecap="round" stroke-linejoin="round"/>
<path d="M8.36981 78.3006L7.44816 78.4943L7.89755 78.3801L7.58883 78.385L7.90501 78.1465L7.75488 78.231L7.61817 78.0571L7.47052 78.5291L6.91226 79.0457L6.8715 79.4531L6.25905 80.2678L6.24165 80.705L5.6993 81.2317L5.62274 81.6489L5.13755 82.0166L4.92926 82.6276L4.00362 84.123L4.04688 84.3465L3.79683 84.5949L3.88283 84.8185L3.40312 85.4643L3.1988 85.5339L3.335 85.986L2.82895 86.5821L2.42528 87.7993L2.11061 87.9532L2.38402 87.9483L2.02411 88.4053L1.87199 89.3294L1.64083 89.3443L1.78301 89.3989L1.44199 89.7864L1.60753 89.7964L1.40022 89.7815L1.5076 89.7467L1.51059 89.8908L1.26103 90.0646L1.4912 90.0945L1.25756 90.0498L1.43603 90.1242L1.46138 90.5018L1.29782 90.3876L1.29932 90.6806L1.05573 90.939L1.29981 90.9192L1.10693 91.088L1.26302 91.0235L1.1462 91.0483L1.17155 90.5913L0.695312 90.8496" stroke="#292562" stroke-width="1.20544" stroke-linecap="round" stroke-linejoin="round"/>
<path d="M44.0469 62L50.586 80.913" stroke="#292562" stroke-width="1.20544" stroke-linecap="round" stroke-linejoin="round"/>
<path d="M25.1548 58.5229L20.1836 73.9236" stroke="#292562" stroke-width="1.20544" stroke-linecap="round" stroke-linejoin="round"/>
<path d="M26.3892 45.1349L26.2579 45.0454H26.4384H26.2227L26.4155 45.0703L26.2415 45.0951L26.5348 45.3038L26.3037 45.577L26.5145 45.7062L27.029 46.9333L27.29 47.0922L27.3665 47.3555L27.7155 47.3505L28.1853 47.9914L28.5462 48.1107L28.4482 48.215L30.6649 48.826L30.8319 49.0247L31.3469 49.0049L31.1531 49.0446L31.847 49.3129L33.8201 49.4818L33.8226 49.5861L33.7649 49.4421L34.3505 49.5315L34.9356 49.4868L35.2945 49.2731L35.5585 49.3477L36.5736 48.9701L36.3817 48.9453L37.2403 48.5975L37.1851 48.4683L37.4873 48.5081L37.718 48.2696L37.9581 48.2498L37.7821 48.1802L38.311 48.0361L38.3468 47.8275L38.6968 47.7877L38.4671 47.758L38.5989 47.6635L38.9389 47.6089L38.9096 47.3953L39.1616 47.4002L39.3445 47.286L39.2377 47.2263L39.4146 47.3158L39.187 47.1817L39.6249 47.0525L39.5235 46.8388L39.4365 46.9233H39.7532L39.7398 46.7792L39.5484 46.8587L39.5772 46.9829L39.6344 46.8438L39.4718 46.814L39.7442 46.6948L39.7935 46.3619L39.6667 46.4365L39.875 46.4662L39.2948 46.655" stroke="#292562" stroke-width="1.20544" stroke-linecap="round" stroke-linejoin="round"/>
<path d="M24.8093 46.4209L24.5647 46.714L24.6954 46.868L24.4961 46.8432L24.6412 47.0221L24.8018 46.8333L24.7442 46.9177L24.9609 46.9873L24.766 47.1164L25.1766 47.8169L25.0166 47.9958L24.9549 48.6664L25.1443 48.89L25.1926 49.7842L25.8418 50.0773L25.6414 50.1171L25.9288 50.3754L26.0173 50.7679L26.2504 50.8175L26.322 51.1007L27.0528 51.3739L26.8494 51.4087L27.2725 51.4584L27.2193 51.7267L27.4266 51.8459L28.6102 51.9751L29.4359 52.4769L30.6012 52.452L30.7439 52.3874L30.5659 52.3377L31.7147 52.1887L32.2118 51.7614L32.3545 51.3044L32.533 51.3342L32.4216 51.1107L32.7527 50.8821L32.7507 50.2164L33.042 50.281L32.7974 50.2413L32.8019 50.3506L33.0878 50.2363L32.8536 50.1866L32.9883 50.1319L32.875 50.2065L33.0907 50.2463L32.8457 50.127L32.9824 49.8786L33.1429 49.8737L32.9257 50.0177L32.9585 49.8687L32.9769 49.9979" stroke="#292562" stroke-width="1.20544" stroke-linecap="round" stroke-linejoin="round"/>
<path d="M31.2014 58.1358L30.2116 58.1805L30.4467 58.1556L29.6851 59.0499L29.6797 59.4572L30.1092 59.2237L30.0137 59.1045L30.4085 58.717L30.7599 57.9967L30.6635 58.2252L30.3548 58.3047L30.0317 58.8909L30.2742 58.7965L30.4661 59.0002L30.7351 59.0052L30.4935 58.8312L30.6341 58.2053L30.3314 57.8774L30.4905 57.9221L30.2563 58.25" stroke="#292562" stroke-width="1.20544" stroke-linecap="round" stroke-linejoin="round"/>
<path d="M38.9418 57.3751L37.607 57.3452L37.0483 57.9215L36.832 58.5475L36.9563 58.7015L37.2039 58.6866L37.7075 58.2445L37.8581 57.7328L38.3169 57.2161L38.1076 57.0521L38.5232 56.8286L38.0539 56.913" stroke="#292562" stroke-width="1.20544" stroke-linecap="round" stroke-linejoin="round"/>
<path d="M36.6562 65.5373L36.6786 65.3386L36.704 65.5671L36.9172 65.6714L37.6788 65.7758L37.6152 65.6764L37.9418 65.3137L37.8712 65.1548L37.3537 64.7871L37.1986 64.8965" stroke="#292562" stroke-width="1.20544" stroke-linecap="round" stroke-linejoin="round"/>
<path d="M27.2588 66.5067L27.388 66.1788L27.223 66.1441L27.0117 66.2186L27.2414 66.3875L27.0147 66.4571L27.5272 66.6359L28.0934 66.611L28.0532 66.4123L27.8961 66.4073L27.8255 66.5862L27.9881 66.4272L27.6515 66.3925L28.0209 66.2981L28.1044 65.9304L28.5234 65.6324L28.8307 65.5728L28.9221 65.7168" stroke="#292562" stroke-width="1.20544" stroke-linecap="round" stroke-linejoin="round"/>
<path d="M29.1187 75.126L28.2771 75.3098L27.4688 75.1607L28.5887 74.4056L28.7011 74.8229L28.7096 74.3857L28.6056 74.4155" stroke="#292562" stroke-width="1.20544" stroke-linecap="round" stroke-linejoin="round"/>
<path d="M23.709 79.9894L24.1788 79.269L24.4318 79.1896L25.5046 79.7608L25.3425 79.7708L24.7296 78.7226L24.9041 78.6133" stroke="#292562" stroke-width="1.20544" stroke-linecap="round" stroke-linejoin="round"/>
<path d="M27.5084 88.9817L27.6143 89.1258L27.4159 89.2649L26.46 88.8774L26.1582 88.48L26.1642 88.6737" stroke="#292562" stroke-width="1.20544" stroke-linecap="round" stroke-linejoin="round"/>
<path d="M34.6051 88.5149L34.6483 87.9784L34.4331 87.417L34.1835 87.8442L34.3655 87.8343L34.3073 88.0231L33.8027 87.7598L34.0314 87.5412" stroke="#292562" stroke-width="1.20544" stroke-linecap="round" stroke-linejoin="round"/>
<path d="M34.5156 72.4536L33.8455 72.5778L33.2957 73.2385L33.0108 73.2038L33.3285 72.9753L33.2122 73.0995L33.5 73.169L32.7305 73.01L33.1287 73.0399L32.9721 73.2485" stroke="#292562" stroke-width="1.20544" stroke-linecap="round" stroke-linejoin="round"/>
<path d="M32.2109 79.9598L33.2002 78.8022L33.2986 78.9165L32.976 79.0705L33.0675 79.1549L34.5688 78.4843L34.5454 78.2905L34.7979 78.2409L34.1626 78.5489L34.0324 78.2061" stroke="#292562" stroke-width="1.20544" stroke-linecap="round" stroke-linejoin="round"/>
<path d="M30.8407 2.77723L31.0345 1.90286L30.8968 1.90784L30.9993 2.03204L30.8248 2.22082L30.5171 4.31728L30.7512 6.49822L30.5961 8.42081L30.7691 9.18092L30.3644 10.6813L30.4907 11.4512L30.4634 11.7444L30.2635 11.9133L30.3883 12.0921L30.2049 11.8587L30.9963 10.398L31.2607 7.80479L30.955 6.42866L31.0037 5.9865L30.6354 5.46988L30.6135 4.57065L30.949 3.01568L31.0892 2.97099L30.8775 2.97596L31.4626 3.12496L31.5983 3.07032L31.474 2.98093L31.6003 2.76728L29.7232 1.41602L29.1828 1.43093L28.2447 1.83828L26.9433 2.67789L25.4604 4.05894L25.3928 4.35706L24.3926 5.40032L24.1356 6.11568L23.0946 7.67065L22.7551 8.56987L21.8359 10.105L21.7817 10.7955L20.9898 12.1964L21.0848 12.8969L20.5762 14.0048L20.6175 14.7301L20.173 15.6989L19.6685 17.6811L19.2559 22.2615L19.4189 23.4936L19.656 24.0699L19.5387 24.3282L19.5467 26.9016L19.8087 29.6687L20.702 33.9213L21.1041 35.1235L21.6644 35.978L21.6907 36.6288L22.6745 38.9489L22.684 39.4954L23.0757 39.6543L23.0499 39.8928L23.6399 41.3782L24.1087 41.413L23.7851 41.6167L24.1206 41.8452L24.0247 42.1085L24.3414 42.4165L24.5686 43.4051L24.3911 45.124L24.0058 45.3377L24.0963 45.4817L24.1724 45.3029L24.0575 45.3327L24.3329 45.3625L24.0704 45.3724L24.3195 45.2879L24.1192 45.3525L24.2574 45.3078L24.1032 45.2234" stroke="#292562" stroke-width="1.20544" stroke-linecap="round" stroke-linejoin="round"/>
<path d="M22.3978 18.6997L21.8261 21.3327L20.6296 29.3559L19 33.8966" stroke="#292562" stroke-width="1.20544" stroke-linecap="round" stroke-linejoin="round"/>
<path d="M22.7598 15.073L23.1635 15.0581L22.8424 16.3299L23.1307 20.0459L22.9269 21.8642L23.0427 25.153L22.8891 25.9131L22.7678 29.6142L21.9764 33.4246L21.2357 35.9285L20.75 36.7681" stroke="#292562" stroke-width="1.20544" stroke-linecap="round" stroke-linejoin="round"/>
<path d="M24.9839 28.4575L24.4281 29.0537L24.5698 29.2027L24.4435 29.8784L23.0322 35.3034L21.6254 38.5574L19.9844 41.2351" stroke="#292562" stroke-width="1.20544" stroke-linecap="round" stroke-linejoin="round"/>
<path d="M46.2178 26.8125L45.5959 27.9154L45.6392 28.4221L44.8731 30.1212L43.8535 33.5788L44.4262 40.8619L44.8403 41.8455L45.7152 41.9002" stroke="#292562" stroke-width="1.20544" stroke-linecap="round" stroke-linejoin="round"/>
<path d="M38.8086 15.3711L39.1506 15.8928L39.8217 17.9296L40.2905 18.6003L40.7473 22.0331L41.3931 23.1062L41.4577 23.7173L41.9026 24.1445L42.0021 24.4426L41.919 25.0984L42.0791 27.468L42.3501 28.402L42.3456 30.3793L42.9287 30.9953L47.1781 33.6979L47.9058 33.7078L49.2873 32.6099" stroke="#292562" stroke-width="1.20544" stroke-linecap="round" stroke-linejoin="round"/>
<path d="M42.7594 20.2051L42.5312 21.5812L42.6799 25.2326L43.3957 27.816L43.6642 29.4902L45.4399 32.4163L46.9849 33.7577L47.5829 34.0259" stroke="#292562" stroke-width="1.20544" stroke-linecap="round" stroke-linejoin="round"/>
<path d="M44.1362 19.8477L43.7266 21.9243L44.4981 24.4331L46.2295 28.318L46.7898 29.0334L47.4052 29.5054L49.1198 30.1412" stroke="#292562" stroke-width="1.20544" stroke-linecap="round" stroke-linejoin="round"/>
<path d="M44.9506 23.2456L44.9297 24.4032L45.9851 26.0227L47.2184 28.4421L48.1997 28.9936L49.3958 28.8644" stroke="#292562" stroke-width="1.20544" stroke-linecap="round" stroke-linejoin="round"/>
<path d="M44.8398 16.042L44.8652 17.3883L45.237 18.6502L45.9504 20.0263L48.1531 23.0021L49.2334 23.7622L51.2725 24.1696" stroke="#292562" stroke-width="1.20544" stroke-linecap="round" stroke-linejoin="round"/>
<path d="M45.5273 11.0242L45.8301 10.6814L46.2163 10.5522L46.0349 12.1221L46.2198 13.6969L46.9461 15.1476L47.6297 16.1064L49.2478 17.7657L51.28 19.2561L52.2891 19.5989" stroke="#292562" stroke-width="1.20544" stroke-linecap="round" stroke-linejoin="round"/>
<path d="M45.4855 11.5266L45.7494 11.2335L46.2227 11.1143L45.9657 11.5415L45.9567 11.8694L46.3042 12.3115L48.6198 13.1114L49.9322 13.787L51.5284 14.1397L51.8863 14.3931L52.1652 14.2888L50.7743 16.2064L50.2354 16.6486L46.3504 23.6087L45.1733 24.2197L44.352 24.9003L43.5417 25.0941L42.5306 24.6867L42.293 24.7264L42.3834 24.8754" stroke="#292562" stroke-width="1.20544" stroke-linecap="round" stroke-linejoin="round"/>
<path d="M44.0396 19.5791L44.0913 21.0844L45.3763 23.1163L46.467 26.0673L47.6978 27.821L48.7512 28.8146L49.3204 29.6939L50.6134 29.8678L49.9354 29.977L49.1847 30.3397L48.191 31.1147L45.8799 33.8719L45.5433 34.0905L45.4071 34.319L45.4777 34.8108L45.2361 34.9549L45.3708 35.0443L44.7718 35.1586L44.0092 35.6753L43.6026 35.0742L43.9078 34.637L45.6094 33.3801L45.8446 33.395L45.4365 33.5937L44.1981 35.1636L43.3585 35.7796L43.1328 36.2416" stroke="#292562" stroke-width="1.20544" stroke-linecap="round" stroke-linejoin="round"/>
<path d="M29.7851 7.47202L29.6072 7.47699L29.3839 6.79639L28.7029 6.856L27.8315 7.33296L27.0072 8.25202L27.0177 8.58484L26.2114 9.01711L25.6138 9.69274L24.8716 11.1185L24.801 11.6451L24.3138 12.3158L24.3666 13.2547L24.038 13.9701L24.0593 16.1262L23.8809 16.8217L24.1245 17.6415L24.0916 20.8259L24.4004 21.4221L24.1423 21.7648L24.5689 22.7137L24.8811 22.5498" stroke="#292562" stroke-width="1.20544" stroke-linecap="round" stroke-linejoin="round"/>
<path d="M24.4243 16.7476L24.2031 18.7397L24.3945 19.4203L24.2727 19.8326L24.8056 22.2819L24.914 23.807L25.173 24.12L25.2138 25.6104L25.7387 26.9815" stroke="#292562" stroke-width="1.20544" stroke-linecap="round" stroke-linejoin="round"/>
<path d="M30.7921 16.2657L28.6664 16.0024L27.6468 15.7192L26.3165 15.8484L24.0457 17.3785L22.622 19.0179L21.9951 20.4139L22.0582 21.0399L21.8887 21.5665L22.1199 21.9639L21.832 23.3152L22.6006 24.9L22.788 25.8737L23.2036 26.132L23.5545 26.7083L23.9836 27.071L26.1883 27.215L26.9971 27.4386L26.9663 27.5529L29.2624 27.6125L29.3445 27.4634L29.8809 27.3392L30.2661 26.9021L31.0431 26.4301L31.054 26.2712L31.8161 25.9035L31.9857 25.5756L32.2904 25.4266L32.958 24.2939L33.6982 22.4657L33.9169 21.0101L33.8906 20.3245L33.6584 20.1954L33.7613 19.7433L33.2652 19.1819L33.1191 18.7546L32.9814 18.7844L33.1206 18.6354L33.05 18.2181L32.7994 18.1436L33.1643 18.1187H32.9148L32.9451 18.0243L32.8705 18.1386L32.8819 17.8207L32.5022 17.8654L32.8566 17.8058L32.5136 17.8157L32.6831 17.7461L32.6488 17.463L32.4664 17.3735L32.5693 17.2195L32.3078 17.2046L32.619 17.145L32.2074 17.3885" stroke="#292562" stroke-width="1.20544" stroke-linecap="round" stroke-linejoin="round"/>
<path d="M46.1749 15.7392L44.0492 15.4809L43.0291 15.1978L41.6988 15.3269L39.4285 16.8521L38.0043 18.4965L37.3779 19.8924L37.441 20.5184L37.271 21.045L37.5027 21.4424L37.2148 22.7888L37.9829 24.3785L38.1703 25.3473L38.5859 25.6056L38.9369 26.1869L39.3664 26.5445L41.5706 26.6936L42.3794 26.9122L42.3491 27.0314L44.6448 27.091L44.7268 26.937L45.2637 26.8178L45.6489 26.3806L46.4254 25.9037L46.4364 25.7447L47.1984 25.3771L47.3685 25.0492L47.6732 24.9051L48.3403 23.7724L49.0805 21.9442L49.2993 20.4837L49.2734 19.7981L49.0408 19.6739L49.1437 19.2218L48.648 18.6554L48.5014 18.2332L48.3637 18.263L48.5029 18.1139L48.4323 17.6917L48.1817 17.6221L48.5471 17.5973H48.2971L48.3274 17.5029L48.2528 17.6171L48.2648 17.2942L47.8845 17.3439L48.2394 17.2793L47.8959 17.2892L48.0654 17.2247L48.0311 16.9365L47.8487 16.8471L47.9521 16.6931L47.6906 16.6832L48.0018 16.6236L47.5897 16.867" stroke="#292562" stroke-width="1.20544" stroke-linecap="round" stroke-linejoin="round"/>
<path d="M33.826 20.6078L33.9011 20.722L33.5531 20.5978L34.6214 20.6078L35.5252 20.3891L36.338 20.722L36.8789 20.5829L36.2903 20.6624L36.4881 20.6425L36.2853 20.6028L36.4826 20.5482L36.3723 19.9917L36.159 19.952L36.0765 19.8377L36.1933 19.7533L35.4611 19.2068L34.8725 19.2416L33.9523 19.6291L33.2832 19.644L33.5029 19.6142L33.4567 19.7085L33.6272 19.6042L33.4542 19.6191L33.5546 19.4552L34.2078 19.3906L36.0924 18.7746L36.1337 18.8889L36.3857 18.8342L36.9022 18.5858L35.7275 18.6752L35.5252 18.4964L34.5086 18.5262L36.076 17.7661" stroke="#292562" stroke-width="1.20544" stroke-linecap="round" stroke-linejoin="round"/>
<path d="M44.4603 18.1238L44.7099 17.8406L44.6771 17.5674L44.8232 17.5723L44.6975 17.6021L44.6303 17.309L43.8027 17.2991L43.6152 17.1302L41.3002 17.2345L39.3395 18.4069L39.2396 18.4864L39.4643 18.556L38.8474 18.7696L38.4745 19.1919L38.2265 19.8029L37.8725 19.9867L38.1678 20.2599L37.7448 20.3693L37.7965 20.5928L37.6483 20.6375L37.7249 20.9356L37.5718 21.5814L37.7239 21.5914L37.447 21.9839L37.5867 22.0633L37.447 22.2024L37.623 22.2919L37.3242 22.4608L37.4594 23.509L37.9218 24.1846L37.8059 24.3834L38.141 24.5821L38.0575 24.7858L38.5625 24.9298L38.6729 25.0689L38.4969 25.218L38.6898 25.3869L39.4772 25.7148L39.6189 25.9284L42.5345 26.6636L43.4263 26.5593L44.949 25.7297L45.3716 25.7495L46.1992 25.0441L47.1676 24.6318L47.3516 24.1797L47.628 24.1747L48.1102 23.6084L48.0008 23.4941L48.2852 23.36L48.4328 22.8781L48.4845 22.0882L48.0734 21.2238L48.2449 20.7965L47.875 19.6887L47.8293 18.7646L47.5246 18.6404L47.6787 18.6305L47.1781 18.0293L47.2109 17.7859L47.0195 17.5524L46.5438 17.309L46.7441 17.319L46.8008 17.1351L45.8582 16.9563L45.7036 16.7427L45.1553 16.6185L45.0748 16.4396L45.2736 16.4049L44.7651 16.3055L44.7323 16.1416L44.0651 15.9528L43.6615 15.6249L42.1433 15.292L40.2612 16.6383L39.5617 17.4382L39.4444 17.935L38.5446 19.0776L38.5844 19.9867L38.313 20.3146L38.4472 20.7369L38.2842 20.8412L38.0923 21.964L38.4159 22.3068L37.9988 23.0371L38.2598 23.2656L38.1256 23.2855L38.4711 23.2904L38.4741 23.4444L38.1783 23.5438L38.3582 23.6481L38.1276 24.2045" stroke="#292562" stroke-width="1.20544" stroke-linecap="round" stroke-linejoin="round"/>
<path d="M32.1203 21.7157L32.6572 21.0847L33.2483 20.881L33.1265 20.8264L33.3944 19.7831L33.1051 19.49L33.1827 19.028L32.4797 17.5625L31.657 16.7328L30.794 16.1416L29.9365 16.082L29.8256 16.1566L29.9295 16.2062L29.063 16.4198L27.0308 17.6718L25.2 18.3772L24.8684 18.6107L23.9388 19.8626L23.7389 19.8726L23.8523 19.8328L23.5858 20.1508L23.7409 20.3346L23.546 20.429L23.6062 20.578L23.1986 20.8066L23.4576 21.0003L23.1702 21.7306L23.2702 22.3814L22.9609 22.754L23.2935 23.678L23.2836 24.8554L23.6972 25.2032L23.6042 25.4963L23.9452 26.1719L24.7585 26.7731L24.8395 26.9121L24.6944 27.0512L24.8286 27.0959L27.1531 27.3692L28.4158 27.1904L29.7411 26.5942L30.7304 25.7546L31.3493 25.0243L31.4472 24.6865L31.9762 24.5077L31.7226 24.304L32.5339 23.524L32.6751 22.6496L32.951 22.1578L32.7924 21.512L32.9276 21.1046L32.7512 20.886L33.0097 20.5383L32.6522 19.505L31.9766 18.7002L31.9468 18.1089L31.7818 17.8308L30.0608 16.241L29.2728 16.1267L28.1553 16.3205L27.3898 16.857L27 16.8123L26.4666 17.0011L26.1683 17.4283L24.5015 17.5972L24.594 17.6966L24.0362 17.9351L23.6037 17.9599L22.1481 19.1621L22.3371 19.4205L22.2247 19.6341L20.718 21.2338L20.4883 22.6695L20.8507 23.3948L21.6749 23.8867L22.0557 24.3984" stroke="#292562" stroke-width="1.20544" stroke-linecap="round" stroke-linejoin="round"/>
<path d="M28.5233 17.5913H27.192L27.2934 17.7503L27.7667 17.6758L26.9941 18.7389L26.1853 19.4494L22.9844 24.0049" stroke="#292562" stroke-width="1.20544" stroke-linecap="round" stroke-linejoin="round"/>
<path d="M29.7778 18.124H28.4759L28.9084 18.1886L28.5231 18.3476L28.5296 18.8245L27.0476 21.5519L24.4766 25.253" stroke="#292562" stroke-width="1.20544" stroke-linecap="round" stroke-linejoin="round"/>
<path d="M31.1275 20.0264L27.9121 24.0703" stroke="#292562" stroke-width="1.20544" stroke-linecap="round" stroke-linejoin="round"/>
<path d="M44.3185 18.9937L43.2417 20.2506L42.1406 22.347" stroke="#292562" stroke-width="1.20544" stroke-linecap="round" stroke-linejoin="round"/>
<path d="M34.4464 18.9629L34.2714 19.0324L34.1437 19.3852L34.1218 20.4632L34.4663 22.7336L34.77 23.0664L34.5697 23.7371L34.8207 23.8066L34.7536 24.214L34.9082 24.4276L34.7144 24.8301L34.9073 25.3219L34.7611 25.8833L34.9097 26.2112L34.5941 27.1998L34.3415 27.3091L34.5255 27.3836L34.1094 27.8804L34.1795 28.1039L34.3649 27.8555" stroke="#292562" stroke-width="1.20544" stroke-linecap="round" stroke-linejoin="round"/>
<path d="M34.9246 26.7581L35.0365 26.6339L34.8242 26.7034L35.0589 26.6289L35.2661 25.9185" stroke="#292562" stroke-width="1.20544" stroke-linecap="round" stroke-linejoin="round"/>
<path d="M35.3498 24.1992L35.1166 23.295L35.3085 22.4604L35.2305 21.7351L34.9914 21.6357L35.0769 21.5612L34.7184 21.5513L34.801 21.7202L34.4306 23.2255L34.3789 24.4774L34.5131 24.7854L34.3948 25.0686L34.7468 26.2013L34.9208 28.7895L35.0301 28.8442L34.788 28.874L35.05 28.7796L34.8879 28.7299L34.8243 28.879" stroke="#292562" stroke-width="1.20544" stroke-linecap="round" stroke-linejoin="round"/>
<path d="M32.7651 31.343L32.7139 31.1294L32.2734 31.7405L32.9137 32.2323L34.1451 32.4907L34.3822 32.6794L35.8462 32.436" stroke="#292562" stroke-width="1.20544" stroke-linecap="round" stroke-linejoin="round"/>
<path d="M36.9844 32.0938L38.4449 31.4132L39.03 31.3287L39.5142 30.9462L39.2045 30.9959L39.545 31.0307L39.374 30.9661L39.6459 30.9015L39.47 30.7922L39.7175 30.6879L39.6072 30.6382L39.5082 30.7922L39.7215 30.7525" stroke="#292562" stroke-width="1.20544" stroke-linecap="round" stroke-linejoin="round"/>
<path d="M48.8223 75.2149L49.4829 74.6038L50.6546 73.8537L51.4227 72.8849L53.3043 71.6082L53.9575 71.5634L54.1464 71.2902L54.6912 71.2058L55.43 70.5252L55.7889 70.5599L56.2825 70.1376L57.0063 69.9688L55.2435 71.0617L53.0811 71.8317L52.4125 71.7721L51.6096 72.0752L51.1552 72.0652" stroke="#292562" stroke-width="1.20544" stroke-linecap="round" stroke-linejoin="round"/>
<path d="M50.2092 51.8313L50.1456 51.5133L49.1797 50.783L48.6711 49.0989L48.43 49.084L48.4231 48.8952L48.2207 48.8555L47.2971 47.8222L46.7771 47.6035L46.104 46.8385L45.59 46.61L45.42 46.2026L44.8125 45.825L44.7757 45.5418L43.2506 44.6874L42.3905 43.669H41.96L41.5912 42.427L41.197 42.0544L41.2835 41.9848L41.0533 41.806L40.9747 41.4085L40.2783 40.6981L39.8582 40.6931L39.4347 40.2659L39.5535 40.1765L39.3522 39.8784L39.459 39.5008L38.865 39.2276H39.028L38.9117 38.1347L39.0211 36.9622L38.9062 36.6343L39.0171 35.8742L40.0849 34.5975L40.4563 34.4534L40.2733 34.5925L40.8182 34.8956L41.8377 33.9317L42.6818 32.9034L42.5571 32.8189L43.3882 31.7806L43.5364 31.2988L43.4678 31.6714L43.7263 31.5074L43.6105 31.4627L43.7531 31.3285L43.7253 31.0354L44.3417 30.3598L43.9937 30.3399L44.3427 30.33L44.1737 30.2853L44.1906 29.9922L44.2229 30.1611L42.4671 32.3967L41.277 34.4783L39.0077 37.2901L36.7259 39.0338L37.1365 38.9395L37.0992 38.6265L39.5431 36.4902L42.0823 33.5989L41.8367 33.4946L40.1679 35.9637L39.0892 37.2404L38.8719 37.8664L37.2324 39.0736L37.6978 38.8749L38.2073 38.1347L41.2337 35.1886L41.3859 35.0943L41.3749 35.2681L40.8256 36.6542L38.8948 39.8188L36.5032 43.1722L36.2422 43.6391L36.3168 43.8229L36.7696 43.7286L36.9362 43.3311L40.0531 40.2311L42.8121 36.8082L42.6033 37.2106L41.6926 38.0105L40.6407 39.9281L38.0651 43.4106L37.56 43.8528L38.2724 43.6441L39.2448 43.0579L41.4838 40.8273L42.5357 39.8982L43.3341 39.4263L43.0761 40.3801L41.9198 42.0345L41.7179 42.5959L40.6745 43.9571L40.4229 44.1508L40.3394 44.0465L40.8927 43.5944L41.2621 43.5895L41.6826 43.3609L44.1528 41.5228L44.6793 41.3638L45.0824 41.5029L45.1873 41.6221L44.9616 42.258" stroke="#292562" stroke-width="1.20544" stroke-linecap="round" stroke-linejoin="round"/>
<path d="M23.0063 33.2659L23.483 32.019L23.0376 31.711L22.6876 31.87L21.8718 32.7691L20.5938 34.9501L24.8928 29.3313L24.698 29.4853L25.1071 29.4953L25.4267 30.1014L25.2115 31.8799L25.114 31.8501L25.2835 31.7606L25.4715 30.0318L25.3014 27.6025L24.5602 25.8935L23.2305 23.8169L23.2976 23.9361L23.143 23.9957L23.663 24.2094L23.9697 24.1597L24.0258 23.951" stroke="#292562" stroke-width="1.20544" stroke-linecap="round" stroke-linejoin="round"/>
<path d="M28.9064 19.7186L28.2125 19.7832L27.5468 19.5894L28.1891 19.3162L27.8605 19.0132L27.5264 19.1225L24.5467 22.4559L24.1699 23.3204" stroke="#292562" stroke-width="1.20544" stroke-linecap="round" stroke-linejoin="round"/>
<path d="M28.1293 18.2573L27.9787 18.3219L27.9384 18.7839L27.2772 20.1203L25.9728 21.5262L24.3438 24.0748" stroke="#292562" stroke-width="1.20544" stroke-linecap="round" stroke-linejoin="round"/>
<path d="M29.2854 17.2896L29.1045 17.5032L29.2228 17.6473L28.8848 17.7069L26.4862 20.8416L25.4785 22.5655" stroke="#292562" stroke-width="1.20544" stroke-linecap="round" stroke-linejoin="round"/>
<path d="M30.3381 18.1387L29.7708 18.8243L29.5591 19.4055L28.0578 21.2535L28.0215 21.8646" stroke="#292562" stroke-width="1.20544" stroke-linecap="round" stroke-linejoin="round"/>
<path d="M31.5493 20.2603L28.2211 23.8919L26.9883 25.7648" stroke="#292562" stroke-width="1.20544" stroke-linecap="round" stroke-linejoin="round"/>
<path d="M38.5798 18.5205L36.3398 21.2181" stroke="#292562" stroke-width="1.20544" stroke-linecap="round" stroke-linejoin="round"/>
<path d="M39.857 6.90056L42.0001 7.50664L43.22 8.27663L44.2789 9.50376L45.6261 11.9132L45.9363 12.1715L46.157 12.0871L46.2927 11.0686L45.8861 9.54348L44.6383 7.22343L43.4577 6.01128L42.1975 5.73304L40.6857 5.72807L36.0988 5.14189L33.6311 4.56559L32.3864 4.02907L31.1157 3.82537H29.8257L26.6805 4.23277L26.3215 4.30724L26.0362 4.74443L26.5452 4.75934L26.9882 4.41659L29.26 1.02344L29.3008 1.13769L27.1373 2.52377L25.8354 3.6962L23.3229 7.58614L21.6203 10.9196L21.3384 12.0573L21.2584 13.4881L21.1699 13.4135L21.5656 12.9366L21.8117 11.8188L22.3158 10.8202L23.1047 8.24188L24.346 5.94172L25.3363 4.58051L25.8945 4.09863L26.9022 3.56205L28.6083 3.02554L26.7441 4.66996L24.784 6.89559L23.6809 8.48531L22.7866 10.5718L22.6086 11.6499L22.1463 12.6683L22.2785 13.4682L22.1761 13.7762L22.3471 13.7315L22.4018 13.2198L24.09 9.71238L25.6077 6.00133L26.9121 3.95454L27.6662 1.93758L28.0838 1.92267L27.8775 2.00211L28.0376 2.02697L28.0977 2.35985L27.8626 3.02554L26.1819 4.83885L22.3526 10.4228L21.3434 12.7826L21.3991 13.5775L21.8962 14.1339L21.8644 14.3922" stroke="#292562" stroke-width="1.20544" stroke-linecap="round" stroke-linejoin="round"/>
<path d="M32.3157 2.24569L32.2153 1.72404L31.5725 1.64453L29.8465 3.25414L25.2059 10.3186L24.5323 11.953L24.5273 13.0609" stroke="#292562" stroke-width="1.20544" stroke-linecap="round" stroke-linejoin="round"/>
<path d="M32.3856 1.88849L32.4304 1.58545L32.4656 1.75932L31.1692 2.55921L29.7753 4.05948L27.3632 7.34826L25.25 11.2729" stroke="#292562" stroke-width="1.20544" stroke-linecap="round" stroke-linejoin="round"/>
<path d="M30.2892 2.95152L29.7777 2.90186L29.303 3.44832L26.0275 8.29207L23.6701 12.6887L22.0645 16.7376" stroke="#292562" stroke-width="1.20544" stroke-linecap="round" stroke-linejoin="round"/>
<path d="M31.0642 3.1001L30.667 6.45844L30.6113 10.9047L31.6498 13.8706" stroke="#292562" stroke-width="1.20544" stroke-linecap="round" stroke-linejoin="round"/>
<path d="M30.8681 5.07812L29.252 5.49542L30.6618 7.27398L32.1382 10.0113L34.0571 11.924L35.9521 12.7685" stroke="#292562" stroke-width="1.20544" stroke-linecap="round" stroke-linejoin="round"/>
<path d="M30.7972 8.45588L30.0257 8.52046L29.2383 8.38135L29.6981 8.43102L32.3219 9.76736L33.2272 10.5175L35.0143 11.4863L36.0413 11.9632L37.2235 12.152" stroke="#292562" stroke-width="1.20544" stroke-linecap="round" stroke-linejoin="round"/>
<path d="M33.325 6.41943L32.6703 6.72247L31.8242 7.40314L31.8779 8.28241L32.9512 9.94673L34.5131 11.0049L36.2058 11.601L39.5474 12.54L40.6774 12.6095" stroke="#292562" stroke-width="1.20544" stroke-linecap="round" stroke-linejoin="round"/>
<path d="M41.8306 38.5667L41.8281 37.4141L41.8336 37.8215L42.2671 37.9804L42.7552 37.8959L43.4905 38.1593L46.9474 38.3828L49.0274 39.1976L49.6965 39.3069" stroke="#292562" stroke-width="1.20544" stroke-linecap="round" stroke-linejoin="round"/>
<path d="M25.4651 31.3384L25.2176 31.6464L25.0162 33.0672L22.9273 38.214L24.1368 36.8428L26.516 32.794L26.6249 32.3469L26.529 32.1531L26.2262 32.2624L26.1566 32.5754L24.8134 34.493L21.5871 38.7456L21.1367 39.5305L21.3624 39.6696L21.947 39.312" stroke="#292562" stroke-width="1.20544" stroke-linecap="round" stroke-linejoin="round"/>
<path d="M43.8203 35.0693L44.0937 36.9671L45.5523 39.004L47.1172 39.8832L48.2173 40.1714L48.532 40.693L48.5901 41.5873L48.268 43.7384L48.3948 45.1245L49.3791 46.7043L49.2359 47.1216L49.5208 47.2209L49.2752 47.4346L49.4526 47.8419L49.5103 47.8817" stroke="#292562" stroke-width="1.20544" stroke-linecap="round" stroke-linejoin="round"/>
<path d="M22.3499 11.4263L22.0651 11.6151L21.2364 12.9415L19.9573 15.4702L19.6406 16.5681L19.8986 16.7122V16.414L20.5762 14.9883L21.0619 14.4964L21.1593 14.5759L20.9306 15.3311L20.4847 16.429L20.2312 16.5482L20.3918 16.3296L21.4302 15.8328L21.4944 15.5496L21.9458 15.49L21.6032 15.5994L21.7787 16.6774L22.2639 16.901L22.7073 16.8215L22.5398 16.742L22.8505 16.4389L22.594 16.4538L22.6636 16.1508L23.3278 15.5248" stroke="#292562" stroke-width="1.20544" stroke-linecap="round" stroke-linejoin="round"/>
<path d="M27.5361 8.23189L27.471 8.06797L28.8853 7.07935L29.528 6.42852L32.981 4.39665L34.9461 2.79201L29.1502 6.85576L26.9232 8.90255L26.8272 9.10625L26.9599 9.1957L29.9297 7.03957L33.1217 5.05239L33.5731 4.59041L33.6491 4.17311L33.3961 4.07372L32.3358 4.28239L27.2776 7.0346L26.8749 7.13399L27.1275 6.8409L27.0952 5.96156L28.1774 3.82035L29.2591 2.67776L29.9725 1.56494L29.2551 2.18594L25.8688 4.26748L25.2578 4.49598L27.9939 3.23914L29.3357 2.26538L28.6869 2.63797L30.0396 3.22422L30.2399 3.65146" stroke="#292562" stroke-width="1.20544" stroke-linecap="round" stroke-linejoin="round"/>
<path d="M45.7273 56.6656L45.0547 56.6259L45.261 56.5712L45.3937 56.8395L45.8391 57.0581L45.601 56.9239L45.7492 56.8544L45.7099 56.6308L46.2791 56.2036" stroke="#292562" stroke-width="1.20544" stroke-linecap="round" stroke-linejoin="round"/>
<path d="M18.1856 76.9888L18.0937 77.8432L17.9704 77.734L17.8983 77.8283L18.2518 77.8879L17.9257 77.9377L17.5797 79.0902L17.3604 79.2641L17.4454 79.5423L16.9722 80.511L17.1457 80.7147L16.7972 81.0178L16.6317 81.8375L16.2981 81.9418L16.4318 82.1008L15.973 82.379L16.23 82.4932L15.7289 82.9254L15.8914 83.0049L15.6076 83.0894L15.8228 83.1142L15.4828 83.2931L15.7945 83.5862L15.5907 83.6608L15.3143 84.1575L15.4396 84.3662L15.2954 84.9275L14.9947 85.2902L15.1965 85.3647L14.673 85.6628L14.7814 85.6976L14.584 85.8864L14.7849 86.0156L14.241 86.875L14.1834 86.7756L14.2435 87.1184L13.9731 87.3022L13.6897 87.9431L13.4367 88.0275L13.5113 88.3206L13.2771 88.3952L13.3954 88.4399L13.1628 88.7231L13.2856 88.6833L12.8889 88.882L12.9117 89.1354L12.779 89.1752L12.8874 89.2L12.6438 89.3838L12.8128 89.4732L12.6319 89.5527L12.4489 90.0197L12.3321 90.8543L11.8748 91.222L12.0537 91.3014L11.753 91.5399L11.8812 91.6989L11.3398 92.0565L11.5382 92.1807L11.4756 92.4043L11.651 92.3994" stroke="#292562" stroke-width="1.20544" stroke-linecap="round" stroke-linejoin="round"/>
<path d="M18.8081 77.51L19.1054 77.9968L18.9563 77.3311L18.9453 77.9869L18.663 78.2899L18.9523 78.6675L18.7554 79.194L18.8305 80.4212L18.6993 80.908L18.8842 81.1067L18.5437 81.6134L18.6938 81.9264L18.5278 82.1102L18.7798 82.3388L18.5312 82.7014L18.7097 82.9548L18.3075 84.9817L18.5019 85.1705L18.3021 85.3146L18.4522 85.4735L18.2484 85.9356L18.4194 86.1144L18.0923 86.2982L18.1808 86.7603L18.057 86.8745H18.309L18.0147 87.2521L18.052 87.5551L17.8094 87.7588L18.053 87.9774L17.7309 88.032L17.8283 88.2308L17.6971 88.3798L17.8706 88.4991L17.6384 88.7872L17.7642 89.0952L17.4132 89.3287L17.4565 89.5224L17.6493 89.5075L17.4739 89.597L17.5241 89.9695L17.359 90.2179L17.6404 90.2974L17.4271 90.2825L17.197 90.6104L17.4883 90.5607L17.1582 90.7992L17.3849 91.1023L17.1368 91.3655L17.1169 91.9071L16.8967 92.076L17.1885 92.1455L16.9837 92.2896L17.0434 92.4635L16.7461 93.1142" stroke="#292562" stroke-width="1.20544" stroke-linecap="round" stroke-linejoin="round"/>
<path d="M10.0039 69.0996L19.4491 76.0547" stroke="#292562" stroke-width="1.20544" stroke-linecap="round" stroke-linejoin="round"/>
<path d="M49.2808 63.2775L48.5182 63.9233L48.209 63.8786L48.2662 63.5358L48.0942 63.0489L48.2184 62.6565L48.043 62.4131L48.1707 62.5571L48.0579 62.731L48.3865 62.8602L48.8224 62.8353L48.473 62.8155L48.7842 62.6068L48.5122 62.4478" stroke="#292562" stroke-width="1.20544" stroke-linecap="round" stroke-linejoin="round"/>
<path d="M43.8066 64.1318L50.2692 92.4491" stroke="#292562" stroke-width="1.20544" stroke-linecap="round" stroke-linejoin="round"/>
<path d="M50.7656 80.5259L55.2397 91.4554" stroke="#292562" stroke-width="1.20544" stroke-linecap="round" stroke-linejoin="round"/>
<path d="M42.8644 44.5582L42.2972 44.4191L41.7807 44.0117L41.9835 44.2353L41.8021 44.3346L41.5923 44.2998L41.6559 44.1309L41.3984 44.121L41.7574 44.0614L41.6535 44.2402L41.9145 44.5433L43.5326 45.2885L45.01 46.7292L45.8103 46.7044L46.6639 47.2906L47.8794 49.5907L48.3571 50.2663L48.9561 50.7582L49.2211 51.6177L50.351 53.5005L50.4236 54.3451L51.2284 56.4018L51.5023 56.7396L51.7842 57.7481L52.1973 58.0362L52.2416 58.7168L52.7402 59.0646L52.9087 59.7253L53.5823 60.6295L53.4998 61.1909L53.982 61.5734L54.069 62.0305L54.2708 62.2043L54.1629 62.3981L54.3205 62.4627L54.1604 62.7558L54.8186 63.3022L54.748 63.4215L55.5703 65.6024L55.7582 65.662L55.876 66.0198L56.4014 66.5463L56.2339 66.6358L56.3905 66.7997L56.3249 66.9586L56.5864 67.212L57.3077 69.5023L57.8555 70.0537L57.8267 70.2822L58.4595 71.6335L58.4336 71.9018L58.9109 72.4483L58.8984 72.801L59.5865 74.2069L59.7555 75.2055L60.0165 75.3893L59.93 75.6278L60.2466 76.0699L60.1378 76.1494L60.2755 76.676L60.9113 77.8584L60.7771 78.0471L61.1365 78.4098L61.0097 78.5787L61.2647 79.0954L61.5272 79.2444L61.5958 79.5922L61.4392 79.93L61.9348 80.6752L62.0487 81.6738L62.4066 81.9917L62.2952 82.3792L62.4777 82.5183L62.3465 82.5382L62.6512 82.7617L62.6233 83.0847L62.9047 83.3132L62.769 83.3927L63.0265 84.3763L63.4312 84.739L63.2189 85.1364L63.3809 85.2656L63.3357 85.504L64.0371 86.592L63.9467 86.8255L64.2534 87.1434L64.0536 87.2925L64.3995 87.3918L64.1222 87.5856L64.4055 87.6104L64.4199 87.7396L64.1833 87.7098L64.5303 87.983L64.4602 88.1172L64.753 88.5494L64.6282 88.6388L64.8758 88.6934L64.746 88.8276H65.0726L64.8126 89.0263L65.099 89.1853L65.2983 89.9305L65.5176 90.0944L65.2894 90.2087L65.5712 90.2782L65.6438 90.9439L65.868 91.0284L65.6911 91.1129L65.8039 91.3066L66.128 91.3613L65.7582 91.3563L66.2279 91.6196L66.0102 91.6991L66.1787 91.704L66.0634 91.6991L66.4362 92.2903L66.1409 92.2803L66.4561 92.3747L66.2548 92.6926" stroke="#292562" stroke-width="1.20544" stroke-linecap="round" stroke-linejoin="round"/>
<path d="M32.8911 49.6156L33.0746 49.551L33.0398 49.4218L32.8723 49.6255L32.9965 49.6205L32.752 49.6106H32.9513L32.7589 49.6156L32.9041 49.7199L33.0602 49.6156L32.8335 49.6652L32.8782 49.7745L33.3043 49.9931L34.1886 51.0016L34.4322 50.9818L34.3353 51.0712L34.7235 51.1904L35.0954 51.5679L35.4031 51.5083L35.6303 51.6822L36.5102 51.5978L36.9705 51.6624L37.0888 51.871L37.6973 51.9306L39.128 51.3345L39.0673 51.1854L39.4904 51.0811L39.4705 50.9271L39.9611 50.6539L40.068 50.3508L40.4329 50.0975L41.3859 48.8256L41.4609 48.4729L41.3292 48.5077L41.6041 48.463L41.3193 48.4729L41.5261 48.5127L41.3854 48.3984L41.9839 48.0656L41.9919 47.9364H41.8253L42.0043 47.9265L41.9019 47.9016L41.9635 47.3005L42.1445 46.9528L42.0043 46.759L42.1997 46.8385L42.1042 46.4062L42.5814 46.3765L42.4348 46.7987" stroke="#292562" stroke-width="1.20544" stroke-linecap="round" stroke-linejoin="round"/>
<path d="M27.1534 34.4731L26.9933 34.8805L27.3423 34.7166L27.4671 34.8159L27.1027 34.8954L27.2682 34.965L27.0808 35.3922L27.0883 35.9387L26.8497 36.0231L26.7343 36.8329L26.195 37.7023L26.2944 37.8712L25.6814 38.7704L25.3608 39.9329L25.1033 40.2558L25.3041 40.6483L24.9865 41.1749L25.0829 41.5177L24.9601 41.8952L24.5371 42.0443L24.378 42.7L24.1796 43.1322L23.8476 43.3657L23.8814 43.6241L23.6542 44.0166L23.35 44.1308L23.4205 44.2252L22.8712 44.876L22.6311 44.9108L22.5774 45.3082L22.3299 45.4424L22.5168 45.5318L22.1991 45.6808L21.9829 46.1379L22.1116 46.2571L21.8765 46.4111L21.6001 47.0917L21.2422 50.2016L21.4753 50.7133L21.3262 52.005L21.5196 52.1342" stroke="#292562" stroke-width="1.20544" stroke-linecap="round" stroke-linejoin="round"/>
<path d="M26.2421 36.2618L26.2003 36.1077L26.4141 35.8892L26.9052 36.1425L26.3117 36.6045L25.5372 37.8614L24.9456 38.2191L24.359 39.2723L23.7212 39.8685L23.2052 40.9018L22.2189 42.2779L22.4143 42.6505L21.9152 43.4901L21.6442 45.0352L21.2147 45.527L21.3504 46.1778L21.0397 47.534L21.1103 47.8569L20.8379 48.1898L20.7802 49.1436L20.9239 49.3722L20.6888 50.0776L20.815 50.4601L20.6445 50.9868L21.0268 51.7369L21.2953 51.6822" stroke="#292562" stroke-width="1.20544" stroke-linecap="round" stroke-linejoin="round"/>
<path d="M28.8071 37.6777L27.6752 43.3313L26.3459 46.9777L25.9666 47.5341L25.3203 47.9663" stroke="#292562" stroke-width="1.20544" stroke-linecap="round" stroke-linejoin="round"/>
<path d="M28.0209 38.6016L27.0604 40.6881L26.0622 43.5198L25.5104 44.2551L23.9629 47.8419" stroke="#292562" stroke-width="1.20544" stroke-linecap="round" stroke-linejoin="round"/>
<path d="M25.3035 36.3613L25.0097 37.5735L24.2909 39.3322L23.3434 41.0412L22.8338 41.6224L22.5495 42.9289L21.857 43.8828L21.6945 44.6529L21.4136 44.9757L21.1958 45.6216L21.2555 46.2326L20.7241 46.645L20.6599 47.1865L19.9868 47.7976L20.1087 48.0509L19.8477 48.513L19.9868 49.4469L19.877 49.6208L20.2717 50.3163L20.1569 50.4604L20.3264 50.8628L20.1927 51.2404L20.39 52.224L21.0845 52.532" stroke="#292562" stroke-width="1.20544" stroke-linecap="round" stroke-linejoin="round"/>
<path d="M24.4669 29.8774L23.7421 30.3792L21.3868 34.438L20.1371 38.4918L19.9258 40.6181L20.2196 41.0255" stroke="#292562" stroke-width="1.20544" stroke-linecap="round" stroke-linejoin="round"/>
<path d="M23.8169 29.3013L23.0329 29.8278L21.6151 31.2388L20.271 33.683L19.6322 35.9732L19.6187 37.7269L19.4219 38.0945" stroke="#292562" stroke-width="1.20544" stroke-linecap="round" stroke-linejoin="round"/>
<path d="M21.518 25.2627L20.1659 27.5678L19.2402 29.8829" stroke="#292562" stroke-width="1.20544" stroke-linecap="round" stroke-linejoin="round"/>
<path d="M21.7594 17.1504L21.6704 17.0063L21.7201 17.2299L21.2926 17.7466L20.8099 18.9786L19.8947 20.1213L18.5957 22.2277" stroke="#292562" stroke-width="1.20544" stroke-linecap="round" stroke-linejoin="round"/>
<path d="M48.5974 25.7598L48.4727 26.3708L48.9782 27.1011L49.0786 27.8761L49.6324 29.0635L50.7937 29.6993L52.469 29.8633" stroke="#292562" stroke-width="1.20544" stroke-linecap="round" stroke-linejoin="round"/>
<path d="M46.3917 33.1572H46.168L46.254 33.3658L47.0255 33.8726L48.5586 34.2303L52.2079 35.5816L52.4605 35.8051" stroke="#292562" stroke-width="1.20544" stroke-linecap="round" stroke-linejoin="round"/>
<path d="M46.6601 32.7594H46.418L46.673 32.6055L47.103 33.0277L47.8034 33.2811L48.9334 34.2051L49.6497 34.5032L51.7699 34.8907L53.4929 34.6771" stroke="#292562" stroke-width="1.20544" stroke-linecap="round" stroke-linejoin="round"/>
<path d="M47.9296 35.0293L46.985 35.382L46.9945 35.5658L46.6719 35.5708L46.8633 35.5409L47.4648 36.2713L48.8015 37.0463L52.0954 38.4224" stroke="#292562" stroke-width="1.20544" stroke-linecap="round" stroke-linejoin="round"/>
<path d="M46.3405 38.9696L46.3509 38.8604L46.1133 38.9647L46.332 39.4118L46.7645 39.8738L47.2944 40.1421L50.7762 41.2598L52.6812 41.394" stroke="#292562" stroke-width="1.20544" stroke-linecap="round" stroke-linejoin="round"/>
<path d="M45.2961 40.832L45.0391 40.9562L47.4282 42.4466L52.4058 43.624" stroke="#292562" stroke-width="1.20544" stroke-linecap="round" stroke-linejoin="round"/>
<path d="M44.6055 44.4688L45.2318 44.0962L45.4078 44.4836L46.0193 45.0351L46.6148 45.2786L47.8342 46.138L48.2652 46.8733L48.6614 47.2061L50.6922 48.2196" stroke="#292562" stroke-width="1.20544" stroke-linecap="round" stroke-linejoin="round"/>
<path d="M47.5469 34.6572L48.7057 35.0199L48.1315 36.0184L48.3746 39.5904L48.7593 42.6258L50.0941 45.5569L50.199 47.5341" stroke="#292562" stroke-width="1.20544" stroke-linecap="round" stroke-linejoin="round"/>
<path d="M45.6875 36.1772L47.324 40.9614L48.1164 42.3922L48.5265 44.588L49.2493 46.1926L49.7962 50.4254L49.7445 55.428" stroke="#292562" stroke-width="1.20544" stroke-linecap="round" stroke-linejoin="round"/>
<path d="M44.3261 43.4199L44.2773 43.6832L45.0961 44.9351L45.7856 45.5114L47.9615 48.1643L49.0019 49.6397L49.086 49.9826" stroke="#292562" stroke-width="1.20544" stroke-linecap="round" stroke-linejoin="round"/>
<path d="M40.4297 38.4373L41.0918 38.3031L41.8813 37.8908L42.3043 36.1023L42.876 34.6666L44.6015 33.0421L45.3432 31.5914L46.2494 30.5482L46.2345 30.2103L46.6571 29.8527L46.6551 29.6937L47.9217 29.3658L48.3015 28.864L48.8101 27.9301L48.7718 27.4432L48.9582 27.0806L48.7723 26.7676" stroke="#292562" stroke-width="1.20544" stroke-linecap="round" stroke-linejoin="round"/>
<path d="M30.7695 1.70898L33.1979 1.78352L34.6257 2.38462L36.212 2.67777L39.6987 4.26749L42.8331 6.83594L44.2454 8.21699L45.0199 9.40931L45.3007 10.0949L45.3535 10.8252" stroke="#292562" stroke-width="1.20544" stroke-linecap="round" stroke-linejoin="round"/>
<path d="M34.9648 4.10938L37.3127 4.77009L38.6883 5.87793L41.9051 9.71815L42.6662 11.2483L43.3855 12.2369L43.9184 13.6279" stroke="#292562" stroke-width="1.20544" stroke-linecap="round" stroke-linejoin="round"/>
<path d="M36.4971 4.85889L36.166 5.11723L36.2346 6.55297L36.6353 7.79496L37.8577 10.3286L40.1678 12.9666L41.8843 14.4421L42.2915 15.1674" stroke="#292562" stroke-width="1.20544" stroke-linecap="round" stroke-linejoin="round"/>
<path d="M35.4922 5.57959L37.4394 6.65766L39.402 8.2424L40.9282 9.20124L44.2603 10.3687" stroke="#292562" stroke-width="1.20544" stroke-linecap="round" stroke-linejoin="round"/>
</svg>
