<svg width="100" height="101" viewBox="0 0 100 101" fill="none" xmlns="http://www.w3.org/2000/svg">
<path d="M45.8829 19.0601L44.5557 21.0969L44.5492 21.7726L44.2524 22.1303L44.15 22.8407L43.5843 24.0132L43.6653 24.9223L42.5597 28.8022L42.7715 29.6567L42.5478 30.3274L42.4414 34.8283L42.5856 35.7375L42.944 36.3187L42.9962 37.9432L43.284 38.763L44.6446 40.7203L44.9697 41.5053L46.8225 43.6713L47.7402 45.266L48.6802 46.1056L52.692 47.0793L55.8163 47.1936L56.5312 47.0296L59.6238 45.0375L61.4402 43.0106L63.0171 41.7537L63.5768 40.9489L63.7558 40.2732L64.232 39.7715L65.0657 37.9582L66.4124 32.2251L66.213 31.5793L66.4084 30.4615L66.2031 28.9612L66.2812 27.2374L65.6737 24.3112L65.2864 23.8045L65.6752 22.6668L65.1477 21.9614L65.1875 21.4198L64.8599 21.2808L64.9081 20.8436L64.3687 20.3369L63.1786 17.4058" stroke="black" stroke-width="1.5068" stroke-linecap="round" stroke-linejoin="round"/>
<path d="M46.3465 16.7354L45.4393 18.2208L45.067 18.4245L45.2012 18.4443L45.0133 18.6629L45.1957 19.8601L44.7722 20.4265L44.7617 20.9084L44.9268 20.9581" stroke="black" stroke-width="1.5068" stroke-linecap="round" stroke-linejoin="round"/>
<path d="M45.9668 19.9297L46.0289 20.2775L46.2004 20.1731L46.3287 20.2725L46.2019 20.352L46.4545 20.3421L46.356 20.6848L46.7706 21.122L46.8472 21.5195L47.2394 21.6834L47.3423 21.8423L47.1937 21.8871L47.5163 22.1454L47.4462 22.5875L48.0129 22.7912L48.167 23.1986L52.4432 26.1695L53.3629 26.9296L53.441 27.3369L53.9391 27.3866L57.4169 30.3574L58.7198 31.0678L59.3845 31.1275L61.2397 31.8577L62.9717 31.8329L64.2527 32.0912L65.0794 31.9969L67.3567 31.1076" stroke="black" stroke-width="1.5068" stroke-linecap="round" stroke-linejoin="round"/>
<path d="M56.2676 19.1948L56.973 19.7463L59.0181 20.6306L59.5605 21.6092L60.2281 22.4389L60.8783 22.7966L61.2969 23.5318L62.4035 25.5489L62.9498 27.3572L63.3082 27.7894L63.1119 28.1918L63.5295 28.6935L63.7467 29.8958L64.1702 30.1839L63.9977 30.3677L64.4347 30.6956L64.9726 30.4323L64.4889 30.3181" stroke="black" stroke-width="1.5068" stroke-linecap="round" stroke-linejoin="round"/>
<path d="M52.0938 20.9385L54.4973 23.4821L55.5666 25.7574L57.9175 27.7545L59.1633 28.4251L59.4208 28.9766L60.0267 29.5181L61.3257 29.8411" stroke="black" stroke-width="1.5068" stroke-linecap="round" stroke-linejoin="round"/>
<path d="M47.0444 43.7363L46.1746 44.0606L46.2458 44.2009L46.3765 43.9541L46.2617 43.9444L46.4061 44.0606L46.255 44.2687L46.3784 44.5398L46.2704 45.3867L46.6162 46.2046L46.6685 46.6306L46.4937 46.6789L46.5136 46.8096L46.8894 47.2355L46.5848 48.0535L46.7678 48.3051L46.7068 48.852L46.8807 49.0699L46.7857 50.3621L46.9761 50.8171L46.7446 51.03L46.917 51.5672L46.7252 52.1867L46.931 52.6272L46.6671 52.7239L46.1353 54.2485L45.7072 54.6454L45.6326 55.0955L45.2927 55.623L44.9406 55.7779L44.1647 56.5571L43.7313 56.7459L43.5903 57.1283L43.06 57.346L42.5244 57.8106L42.4609 58.0672L41.8599 58.6141L42.0202 58.706L41.3214 59.1223L41.0153 59.4853L40.378 59.6304L40.6061 59.6111L38.8185 61.0631L38.9522 61.1212L38.2015 62.0311L38.494 61.9536L38.1972 61.8665L38.3681 61.9391L38.0083 62.1568L37.8901 62.7715L37.3472 63.2846L36.6203 65.1188L36.5253 65.0414L36.3292 65.206L36.0144 66.1788L35.8251 66.2369L35.9418 66.2707L35.8711 66.5031L34.932 67.4226L35.1185 67.534L34.9707 67.6356L34.9722 68.1196L34.4482 68.9182L33.9997 70.2152L33.7639 70.4331L33.544 71.5801L33.0573 72.0447L33.1875 72.4609L32.8442 73.5838L32.5173 73.7629L32.0097 74.7405L32.0872 74.9583L31.2392 77.112L30.1912 79.2464L29.8129 79.6675L29.4144 80.9162L28.7983 81.618L28.4705 82.4311L28.4051 83.1813L28.0564 83.5975L27.8951 84.3089L27.0413 85.3495L27.3164 85.606L27.265 85.7367L26.787 85.9932L25.9632 86.9999L25.9618 87.3387L25.7027 87.784L25.8218 87.7598L25.647 87.8227L25.6315 88.1615L24.9355 89.415" stroke="black" stroke-width="1.20544" stroke-linecap="round" stroke-linejoin="round"/>
<path d="M48.436 14.644L48.5289 14.7881L48.5697 14.6739L48.1223 14.7037L47.5909 15.0961L47.4974 15.3346L47.5859 15.2104L47.2991 15.2452L47.0505 15.439L47.1912 15.4588L47.0754 15.5929L46.7229 15.6029L46.6598 15.6972H46.8482L46.3998 16.045L46.3943 16.358L46.1865 16.5666L46.2705 16.676L45.9932 16.6262L46.2606 16.6561L45.855 17.0386L45.9777 17.2324L45.6198 17.6596L45.763 17.8037L45.5333 18.9612L45.6656 19.3239L45.3613 19.463L45.6029 19.5872L45.4409 19.8505L45.5766 20.1336L45.419 20.0691L45.7461 20.7894L45.6322 21.3657" stroke="black" stroke-width="1.20544" stroke-linecap="round" stroke-linejoin="round"/>
<path d="M44.7755 14.3066L44.6055 14.2867L44.8302 14.2818L44.7889 13.9986L44.6144 13.9787L44.8371 13.9141L44.6219 13.8992L44.867 13.8844L44.6761 13.9042L44.8501 13.8794L45.1901 14.2768L45.8309 14.4904L45.9611 14.7935L46.6233 15.2903L46.8813 15.9162L47.2944 15.8268" stroke="black" stroke-width="1.20544" stroke-linecap="round" stroke-linejoin="round"/>
<path d="M44.2852 13.9637L44.3672 13.6606L44.4825 14.0283L44.6098 14.0183L44.398 14.0134L44.3632 14.381L43.9024 14.8033L44.0321 15.0219L43.6911 15.5187L43.7831 15.9509L43.4659 16.3086L43.3078 17.2376L43.0339 17.5456L43.2686 17.8337L42.9261 18.3802L42.7834 18.9814L42.934 19.3738L42.7854 19.4682L42.7814 19.9998L42.5597 20.3475L42.7247 20.6456L42.6134 21.0579L42.7307 21.2467L42.5463 21.7535L42.4568 22.8762L42.5806 23.1296L42.4225 23.2239L42.6407 23.2687L42.4891 23.6065L42.497 23.4972L42.3504 23.5668L42.3633 23.9791L42.1898 24.0784L42.4115 24.1828L42.2375 24.1679L42.1456 24.6647L42.3678 24.8634L41.981 25.0124L42.2922 24.9926L42.0665 25.0919L42.2863 25.1664L42.071 25.3403L42.3479 25.4198L42.0427 25.3652L42.1734 25.5688L42.3882 25.5142L42.0859 25.5043L41.9766 26.2942L42.0646 26.1501L42.0014 26.5475L42.2659 26.8705L42.0014 26.8953L42.2047 26.9847L41.991 27.1139L42.1844 27.1586L42.1774 28.182L42.0223 28.2813L42.4304 28.3559L42.2366 28.3757L42.1515 28.639L42.3812 28.9222H42.168L42.681 29.9555L42.6228 30.6361" stroke="black" stroke-width="1.20544" stroke-linecap="round" stroke-linejoin="round"/>
<path d="M45.7418 13.4709L45.3555 13.61L45.693 13.5653L45.4201 13.615L45.5698 13.5007L45.2441 13.451L45.5668 13.4312L45.3878 13.292L45.5837 13.2871L45.3605 13.302L45.4236 13.0933L45.19 13.0237L45.3635 12.9443L45.0368 12.7456L44.7773 12.8648L45.5653 12.7356L45.7259 12.5171L46.4462 12.1842L47.1685 12.1892L48.1732 11.8017L48.4689 11.8265L49.6362 11.2651H51.4581L53.1359 11.6824L54.0635 12.1395L54.2275 12.2587L54.1455 12.3382L54.4418 12.3183L54.7222 12.5618L55.4773 12.7456L55.6219 12.9592L56.5834 13.3914L56.5108 13.4609L58.0191 13.9677L58.9606 14.4098L58.969 14.5291L59.5034 14.6334L59.4567 14.7576L59.9374 14.7973L60.3421 15.2246L61.2921 15.5425" stroke="black" stroke-width="1.20544" stroke-linecap="round" stroke-linejoin="round"/>
<path d="M50.9556 14.6641L50.8145 14.9671L50.8314 14.8429L50.9959 14.8727L50.9288 15.0069L51.5547 15.7968L52.4321 16.7904L53.0719 17.2325L53.0932 17.5057L53.7509 18.4049L53.7375 18.6235L54.0104 18.7427L54.1148 19.1651L54.7059 19.5525L55.1587 20.4219L55.4844 20.6952L55.4202 20.9883L56.0019 21.2168L55.8786 21.3162L55.9959 21.6838L56.588 22.3843L56.4861 22.578L56.9981 22.8215L56.9419 22.9506L57.1154 22.9556L58.4999 24.5254L58.3681 24.7391L59.1774 25.3054L59.9972 26.6865L60.3014 26.7412L60.1856 26.8256L60.5415 27.074L60.6429 27.3671L60.5241 27.4317L60.9879 27.7198L61.2842 28.2564L61.8117 28.7234L62.2591 28.7482L62.2312 28.4898L62.5713 28.2266L62.3704 27.9732" stroke="black" stroke-width="1.20544" stroke-linecap="round" stroke-linejoin="round"/>
<path d="M46.0045 13.4772H45.8896L46.1059 13.5567L45.8787 13.1195L45.7559 13.199L45.8717 13.2288L45.8335 12.9903H45.6008L45.9011 12.9854L45.5605 13.0698L45.7057 13.035L45.9617 13.3282L46.4057 14.3416L47.0534 15.0024L48.1127 16.6815L48.3613 16.8305L48.6571 17.6105L49.1975 17.993L49.2308 18.4004L49.7453 19.0164L49.8213 19.5828L50.0903 19.7567L49.88 19.7666L50.9478 20.631L51.3674 20.7304L51.2118 20.8595L52.123 21.3415L52.0966 21.6445L52.3238 21.6196L52.4809 21.8581L53.0456 22.0966L53.072 22.4691" stroke="black" stroke-width="1.20544" stroke-linecap="round" stroke-linejoin="round"/>
<path d="M56.0442 47.7207L55.6654 48.0585L55.5163 48.0237L55.3468 48.3268L54.957 48.3019L55.128 48.2175L55.1638 47.9293L55.2061 48.2274L55.0326 48.3168L55.4218 48.4758L55.0405 48.8484L55.4313 49.6483L55.2682 49.7228L55.2071 50.0755L55.3527 50.2047L55.222 50.3835L55.224 51.0939L55.4248 51.1635L55.1947 51.2479L55.1559 51.4764L55.3383 51.5361L55.2831 51.7298L55.5148 52.013L55.3582 52.0279L55.4666 52.1322L55.2921 52.3409L55.4909 52.4949L55.3726 52.6538L55.4994 52.7284L55.2812 52.8824L55.4537 53.0563L55.3423 52.9917L55.4492 53.0811L55.3443 53.4189L55.5322 53.6922L55.2339 53.5928L55.4467 53.6822L55.5183 53.9257L55.3691 54.03L55.5352 54.2188L55.2991 54.2833L55.9523 54.8199L55.8573 54.9193L56.2312 55.2472L56.163 55.3812L56.3201 55.5502L56.6795 55.6048L56.6656 55.7737L57.6932 56.4096L58.407 56.3699L58.2594 56.4792L59.1452 56.7375L59.0165 56.8319L59.3406 56.812L59.7403 57.13L60.8315 57.4976L61.7814 57.284L61.8257 57.4579" stroke="black" stroke-width="1.20544" stroke-linecap="round" stroke-linejoin="round"/>
<path d="M26.9649 87.5423L26.067 87.7311L26.5048 87.6198L26.2041 87.6246L26.5121 87.3923L26.3658 87.4746L26.2327 87.3052L26.0888 87.7649L25.545 88.2683L25.5052 88.6651L24.9086 89.4589L24.8916 89.8848L24.3633 90.3979L24.2887 90.8044L23.816 91.1625L23.6131 91.7578L22.7113 93.2146L22.7534 93.4324L22.5098 93.6744L22.5936 93.8922L22.1263 94.5214L21.9272 94.5891L22.0599 95.0296L21.5669 95.6103L21.1737 96.7962L20.8671 96.9462L21.1335 96.9413L20.7828 97.3866L20.6346 98.2868L20.4094 98.3013L20.5479 98.3546L20.2157 98.7321L20.377 98.7418L20.175 98.7273L20.2796 98.6934L20.2825 98.8337L20.0394 99.0031L20.2637 99.0322L20.036 98.9886L20.2099 99.0612L20.2346 99.429L20.0753 99.3177L20.0767 99.6032L19.8394 99.8549L20.0772 99.8356L19.8893 100L20.0414 99.9372L19.9275 99.9614L19.9522 99.5162L19.4883 99.7678" stroke="black" stroke-width="1.20544" stroke-linecap="round" stroke-linejoin="round"/>
<path d="M62.4727 72.4009L69.0117 91.3139" stroke="black" stroke-width="1.20544" stroke-linecap="round" stroke-linejoin="round"/>
<path d="M43.3157 68.2744L38.4727 83.278" stroke="black" stroke-width="1.20544" stroke-linecap="round" stroke-linejoin="round"/>
<path d="M44.813 55.5357L44.6818 55.4463H44.8622H44.6465L44.8394 55.4712L44.6654 55.496L44.9587 55.7046L44.7275 55.9779L44.9383 56.1071L45.4528 57.3341L45.7138 57.4931L45.7903 57.7564L46.1393 57.7514L46.6091 58.3923L46.97 58.5115L46.8721 58.6158L49.0887 59.2269L49.2558 59.4256L49.7708 59.4058L49.5769 59.4455L50.2709 59.7138L52.2439 59.8827L52.2464 59.987L52.1887 59.843L52.7743 59.9324L53.3595 59.8877L53.7184 59.674L53.9823 59.7485L54.9974 59.371L54.8056 59.3462L55.6641 58.9984L55.6089 58.8692L55.9112 58.909L56.1418 58.6705L56.3819 58.6507L56.2059 58.5811L56.7349 58.437L56.7707 58.2284L57.1206 58.1886L56.891 58.1588L57.0227 58.0644L57.3627 58.0098L57.3334 57.7962L57.5854 57.8011L57.7684 57.6868L57.6615 57.6272L57.8385 57.7167L57.6108 57.5825L58.0487 57.4534L57.9473 57.2397L57.8603 57.3242H58.177L58.1636 57.1801L57.9722 57.2596L58.001 57.3838L58.0582 57.2447L57.8956 57.2149L58.1681 57.0957L58.2173 56.7628L58.0905 56.8373L58.2988 56.8671L57.7187 57.0559" stroke="black" stroke-width="1.20544" stroke-linecap="round" stroke-linejoin="round"/>
<path d="M43.2331 56.8218L42.9885 57.1149L43.1193 57.2689L42.9199 57.244L43.0651 57.4229L43.2256 57.2342L43.168 57.3186L43.3847 57.3881L43.1899 57.5173L43.6005 58.2178L43.4404 58.3966L43.3787 59.0673L43.5682 59.2908L43.6164 60.1851L44.2656 60.4782L44.0653 60.518L44.3526 60.7763L44.4411 61.1687L44.6742 61.2184L44.7458 61.5016L45.4766 61.7748L45.2733 61.8096L45.6963 61.8593L45.6431 62.1276L45.8504 62.2468L47.0341 62.376L47.8598 62.8777L49.025 62.8529L49.1677 62.7883L48.9897 62.7386L50.1386 62.5896L50.6357 62.1623L50.7783 61.7053L50.9568 61.7351L50.8455 61.5116L51.1765 61.283L51.1745 60.6173L51.4658 60.6819L51.2213 60.6422L51.2257 60.7514L51.5116 60.6372L51.2774 60.5875L51.4122 60.5328L51.2988 60.6074L51.5146 60.6471L51.2695 60.5279L51.4062 60.2795L51.5668 60.2745L51.3495 60.4186L51.3823 60.2696L51.4007 60.3987" stroke="black" stroke-width="1.20544" stroke-linecap="round" stroke-linejoin="round"/>
<path d="M49.6271 68.5367L48.6374 68.5814L48.8725 68.5565L48.1109 69.4507L48.1055 69.8581L48.535 69.6246L48.4395 69.5054L48.8342 69.1179L49.1857 68.3975L49.0893 68.6261L48.7806 68.7056L48.4574 69.2917L48.7 69.1974L48.8919 69.4011L49.1608 69.4061L48.9192 69.2321L49.0599 68.6062L48.7572 68.2783L48.9163 68.323L48.6821 68.6509" stroke="black" stroke-width="1.20544" stroke-linecap="round" stroke-linejoin="round"/>
<path d="M57.3676 67.776L56.0328 67.7461L55.4741 68.3224L55.2578 68.9484L55.3821 69.1024L55.6297 69.0875L56.1332 68.6453L56.2839 68.1336L56.7427 67.6169L56.5334 67.453L56.949 67.2295L56.4797 67.3139" stroke="black" stroke-width="1.20544" stroke-linecap="round" stroke-linejoin="round"/>
<path d="M55.082 75.9382L55.1044 75.7395L55.1298 75.968L55.343 76.0723L56.1046 76.1767L56.041 76.0773L56.3676 75.7146L56.297 75.5557L55.7795 75.188L55.6244 75.2973" stroke="black" stroke-width="1.20544" stroke-linecap="round" stroke-linejoin="round"/>
<path d="M45.3657 76.0525L45.4916 75.733L45.3308 75.6992L45.125 75.7717L45.3487 75.9363L45.1279 76.0041L45.6272 76.1783L46.1788 76.1541L46.1396 75.9605L45.9866 75.9556L45.9178 76.1299L46.0762 75.975L45.7483 75.9412L46.1081 75.8492L46.1895 75.491L46.5978 75.2007L46.8971 75.1426L46.9862 75.2829" stroke="black" stroke-width="1.20544" stroke-linecap="round" stroke-linejoin="round"/>
<path d="M47.1777 84.4497L46.3578 84.6287L45.5703 84.4835L46.6614 83.7479L46.7709 84.1544L46.7791 83.7285L46.6779 83.7575" stroke="black" stroke-width="1.20544" stroke-linecap="round" stroke-linejoin="round"/>
<path d="M41.9062 89.1873L42.3639 88.4855L42.6104 88.4081L43.6555 88.9647L43.4977 88.9743L42.9005 87.9531L43.0705 87.8467" stroke="black" stroke-width="1.20544" stroke-linecap="round" stroke-linejoin="round"/>
<path d="M45.6083 97.9478L45.7115 98.0882L45.5182 98.2237L44.5869 97.8462L44.293 97.459L44.2988 97.6477" stroke="black" stroke-width="1.20544" stroke-linecap="round" stroke-linejoin="round"/>
<path d="M53.0289 98.9158L53.0722 98.3793L52.8569 97.8179L52.6073 98.2451L52.7893 98.2352L52.7311 98.4239L52.2266 98.1607L52.4552 97.9421" stroke="black" stroke-width="1.20544" stroke-linecap="round" stroke-linejoin="round"/>
<path d="M52.9394 82.8545L52.2693 82.9787L51.7195 83.6394L51.4347 83.6047L51.7523 83.3762L51.636 83.5003L51.9238 83.5698L51.1543 83.4109L51.5525 83.4407L51.3959 83.6494" stroke="black" stroke-width="1.20544" stroke-linecap="round" stroke-linejoin="round"/>
<path d="M50.6367 90.3606L51.626 89.2031L51.7244 89.3174L51.4018 89.4714L51.4932 89.5558L52.9945 88.8852L52.9712 88.6914L53.2237 88.6417L52.5884 88.9498L52.4582 88.6069" stroke="black" stroke-width="1.20544" stroke-linecap="round" stroke-linejoin="round"/>
<path d="M49.2645 13.1781L49.4584 12.3037L49.3207 12.3087L49.4231 12.4329L49.2486 12.6217L48.9409 14.7182L49.175 16.8991L49.0199 18.8217L49.1929 19.5818L48.7883 21.0821L48.9145 21.8521L48.8872 22.1453L48.6873 22.3142L48.8121 22.493L48.6287 22.2595L49.4201 20.7989L49.6846 18.2057L49.3788 16.8295L49.4276 16.3874L49.0592 15.8708L49.0373 14.9715L49.3729 13.4166L49.5131 13.3719L49.3013 13.3768L49.8864 13.5258L50.0221 13.4712L49.8978 13.3818L50.0241 13.1682L48.147 11.8169L47.6066 11.8318L46.6686 12.2392L45.3671 13.0788L43.8842 14.4598L43.8166 14.7579L42.8164 15.8012L42.5594 16.5166L41.5184 18.0715L41.1789 18.9708L40.2597 20.5058L40.2055 21.1964L39.4136 22.5973L39.5086 23.2978L39 24.4057L39.0413 25.131L38.5969 26.0997L38.0923 28.082L37.6797 32.6624L37.8427 33.8944L38.0799 34.4707L37.9625 34.7291L37.9705 37.3025L38.2325 40.0696L39.1258 44.3222L39.528 45.5244L40.0882 46.3789L40.1146 47.0297L41.0984 49.3498L41.1078 49.8962L41.4995 50.0552L41.4737 50.2936L42.0638 51.779L42.5325 51.8139L42.2089 52.0176L42.5445 52.2461L42.4485 52.5094L42.7652 52.8174L42.9924 53.806L42.8149 55.5249L42.4296 55.7385L42.5201 55.8826L42.5962 55.7037L42.4813 55.7336L42.7567 55.7634L42.4943 55.7733L42.7433 55.6888L42.543 55.7534L42.6812 55.7087L42.5271 55.6242" stroke="black" stroke-width="1.20544" stroke-linecap="round" stroke-linejoin="round"/>
<path d="M40.8236 29.1006L40.2519 31.7336L39.0553 39.7568L37.4258 44.2975" stroke="black" stroke-width="1.20544" stroke-linecap="round" stroke-linejoin="round"/>
<path d="M41.1856 25.4739L41.5893 25.459L41.2681 26.7308L41.5565 30.4468L41.3527 32.2651L41.4685 35.5539L41.3149 36.3139L41.1936 40.0151L40.4022 43.8255L39.6615 46.3293L39.1758 47.169" stroke="black" stroke-width="1.20544" stroke-linecap="round" stroke-linejoin="round"/>
<path d="M43.4096 38.8584L42.8539 39.4546L42.9956 39.6036L42.8693 40.2793L41.458 45.7042L40.0511 48.9583L38.4102 51.636" stroke="black" stroke-width="1.20544" stroke-linecap="round" stroke-linejoin="round"/>
<path d="M64.6416 37.2134L64.0197 38.3162L64.063 38.823L63.2969 40.522L62.2773 43.9797L62.85 51.2628L63.2641 52.2464L64.139 52.301" stroke="black" stroke-width="1.20544" stroke-linecap="round" stroke-linejoin="round"/>
<path d="M57.2324 25.772L57.5744 26.2936L58.2455 28.3305L58.7143 29.0011L59.1712 32.434L59.8169 33.5071L59.8816 34.1182L60.3265 34.5454L60.4259 34.8435L60.3429 35.4993L60.503 37.8689L60.7739 38.8029L60.7694 40.7802L61.3525 41.3962L65.6019 44.0987L66.3297 44.1087L67.7112 43.0108" stroke="black" stroke-width="1.20544" stroke-linecap="round" stroke-linejoin="round"/>
<path d="M61.1852 30.606L60.957 31.9821L61.1057 35.6335L61.8215 38.2169L62.09 39.8911L63.8657 42.8172L65.4107 44.1585L66.0087 44.4268" stroke="black" stroke-width="1.20544" stroke-linecap="round" stroke-linejoin="round"/>
<path d="M62.562 30.2485L62.1523 32.3252L62.9239 34.8339L64.6553 38.7189L65.2156 39.4343L65.831 39.9063L67.5456 40.5421" stroke="black" stroke-width="1.20544" stroke-linecap="round" stroke-linejoin="round"/>
<path d="M63.3763 33.6465L63.3555 34.8041L64.4108 36.4236L65.6442 38.843L66.6255 39.3944L67.8216 39.2653" stroke="black" stroke-width="1.20544" stroke-linecap="round" stroke-linejoin="round"/>
<path d="M63.2656 26.4429L63.291 27.7892L63.6628 29.051L64.3762 30.4272L66.5789 33.403L67.6592 34.1631L69.6983 34.5705" stroke="black" stroke-width="1.20544" stroke-linecap="round" stroke-linejoin="round"/>
<path d="M63.9531 21.4251L64.2559 21.0823L64.6421 20.9531L64.4607 22.523L64.6456 24.0978L65.3719 25.5485L66.0554 26.5073L67.6735 28.1666L69.7058 29.657L70.7149 29.9997" stroke="black" stroke-width="1.20544" stroke-linecap="round" stroke-linejoin="round"/>
<path d="M63.9093 21.9275L64.1733 21.6344L64.6465 21.5151L64.3895 21.9424L64.3805 22.2703L64.728 22.7124L67.0436 23.5123L68.356 24.1879L69.9522 24.5406L70.3102 24.794L70.589 24.6897L69.1981 26.6073L68.6592 27.0494L64.7743 34.0095L63.5971 34.6206L62.7759 35.3012L61.9656 35.4949L60.9544 35.0875L60.7168 35.1273L60.8073 35.2763" stroke="black" stroke-width="1.20544" stroke-linecap="round" stroke-linejoin="round"/>
<path d="M62.4653 29.98L62.517 31.4853L63.8021 33.5172L64.8928 36.4682L66.1236 38.2219L67.177 39.2154L67.7462 40.0948L69.0392 40.2686L68.3611 40.3779L67.6105 40.7406L66.6168 41.5156L64.3057 44.2728L63.9691 44.4914L63.8329 44.7199L63.9035 45.2117L63.6619 45.3558L63.7966 45.4452L63.1976 45.5595L62.435 46.0761L62.0284 45.475L62.3336 45.0379L64.0352 43.781L64.2704 43.7959L63.8622 43.9946L62.6239 45.5644L61.7843 46.1805L61.5586 46.6425" stroke="black" stroke-width="1.20544" stroke-linecap="round" stroke-linejoin="round"/>
<path d="M48.209 17.8729L48.031 17.8779L47.8078 17.1973L47.1267 17.2569L46.2553 17.7338L45.4311 18.6529L45.4415 18.9857L44.6352 19.418L44.0376 20.0936L43.2954 21.5194L43.2249 22.046L42.7377 22.7166L42.7904 23.6556L42.4618 24.371L42.4832 26.5271L42.3047 27.2226L42.5483 28.0423L42.5155 31.2267L42.8242 31.8229L42.5662 32.1657L42.9927 33.1146L43.3049 32.9507" stroke="black" stroke-width="1.20544" stroke-linecap="round" stroke-linejoin="round"/>
<path d="M42.8501 27.1484L42.6289 29.1406L42.8203 29.8212L42.6985 30.2335L43.2314 32.6827L43.3398 34.2079L43.5988 34.5209L43.6395 36.0112L44.1645 37.3824" stroke="black" stroke-width="1.20544" stroke-linecap="round" stroke-linejoin="round"/>
<path d="M49.2179 26.6666L47.0922 26.4033L46.0726 26.1201L44.7423 26.2493L42.4715 27.7794L41.0477 29.4188L40.4209 30.8148L40.484 31.4408L40.3145 31.9673L40.5456 32.3648L40.2578 33.7161L41.0264 35.3009L41.2138 36.2746L41.6294 36.5329L41.9803 37.1092L42.4093 37.4719L44.614 37.6159L45.4229 37.8395L45.392 37.9537L47.6882 38.0134L47.7702 37.8643L48.3066 37.7401L48.6919 37.303L49.4689 36.831L49.4798 36.672L50.2419 36.3044L50.4114 35.9765L50.7162 35.8274L51.3838 34.6948L52.124 32.8666L52.3427 31.4109L52.3164 30.7254L52.0842 30.5962L52.1871 30.1441L51.691 29.5828L51.5449 29.1555L51.4072 29.1853L51.5463 29.0363L51.4758 28.6189L51.2252 28.5445L51.5901 28.5196H51.3405L51.3709 28.4252L51.2963 28.5395L51.3077 28.2215L50.9279 28.2662L51.2824 28.2066L50.9394 28.2166L51.1089 28.147L51.0746 27.8639L50.8921 27.7744L50.995 27.6204L50.7336 27.6055L51.0448 27.5459L50.6331 27.7893" stroke="black" stroke-width="1.20544" stroke-linecap="round" stroke-linejoin="round"/>
<path d="M64.6007 26.1401L62.475 25.8818L61.4549 25.5986L60.1246 25.7278L57.8543 27.2529L56.4301 28.8974L55.8037 30.2933L55.8668 30.9193L55.6968 31.4459L55.9285 31.8433L55.6406 33.1897L56.4087 34.7794L56.5961 35.7482L57.0117 36.0065L57.3626 36.5877L57.7921 36.9454L59.9964 37.0945L60.8052 37.313L60.7748 37.4323L63.0705 37.4919L63.1526 37.3379L63.6894 37.2187L64.0747 36.7815L64.8512 36.3046L64.8622 36.1456L65.6242 35.778L65.7942 35.4501L66.099 35.306L66.7661 34.1733L67.5063 32.3451L67.725 30.8845L67.6992 30.199L67.4665 30.0748L67.5694 29.6227L67.0738 29.0563L66.9272 28.634L66.7895 28.6639L66.9287 28.5148L66.8581 28.0926L66.6075 28.023L66.9729 27.9981H66.7228L66.7532 27.9038L66.6786 28.018L66.6905 27.6951L66.3102 27.7448L66.6652 27.6802L66.3217 27.6901L66.4912 27.6255L66.4569 27.3374L66.2745 27.248L66.3779 27.094L66.1164 27.084L66.4276 27.0244L66.0155 27.2679" stroke="black" stroke-width="1.20544" stroke-linecap="round" stroke-linejoin="round"/>
<path d="M52.2499 31.0086L52.3249 31.1229L51.977 30.9987L53.0453 31.0086L53.949 30.79L54.7618 31.1229L55.3027 30.9838L54.7141 31.0633L54.9119 31.0434L54.7091 31.0037L54.9065 30.949L54.7961 30.3926L54.5829 30.3528L54.5003 30.2386L54.6172 30.1542L53.8849 29.6076L53.2963 29.6425L52.3761 30.03L51.707 30.0448L51.9267 30.0151L51.8805 30.1094L52.051 30.0051L51.878 30.02L51.9785 29.856L52.6317 29.7915L54.5162 29.1754L54.5575 29.2898L54.8095 29.2351L55.326 28.9867L54.1514 29.0761L53.949 28.8973L52.9324 28.927L54.4998 28.167" stroke="black" stroke-width="1.20544" stroke-linecap="round" stroke-linejoin="round"/>
<path d="M62.8861 28.5246L63.1357 28.2414L63.1029 27.9682L63.249 27.9732L63.1232 28.003L63.0561 27.7099L62.2284 27.6999L62.041 27.531L59.7259 27.6354L57.7653 28.8078L57.6654 28.8873L57.8901 28.9568L57.2732 29.1704L56.9003 29.5928L56.6523 30.2038L56.2983 30.3876L56.5936 30.6608L56.1706 30.7702L56.2223 30.9937L56.0741 31.0384L56.1507 31.3365L55.9976 31.9823L56.1497 31.9923L55.8728 32.3847L56.0125 32.4642L55.8728 32.6033L56.0488 32.6928L55.75 32.8616L55.8852 33.9099L56.3475 34.5855L56.2317 34.7842L56.5668 34.983L56.4833 35.1867L56.9883 35.3307L57.0987 35.4698L56.9227 35.6189L57.1156 35.7878L57.903 36.1157L58.0447 36.3293L60.9603 37.0645L61.8521 36.9602L63.3748 36.1305L63.7973 36.1504L64.625 35.445L65.5934 35.0326L65.7774 34.5805L66.0538 34.5756L66.5359 34.0093L66.4266 33.895L66.7109 33.7609L66.8586 33.2789L66.9103 32.4891L66.4992 31.6246L66.6707 31.1974L66.3008 30.0896L66.2551 29.1655L65.9503 29.0413L66.1045 29.0314L65.6038 28.4302L65.6367 28.1868L65.4453 27.9533L64.9695 27.7099L65.1699 27.7198L65.2265 27.536L64.284 27.3572L64.1294 27.1435L63.5811 27.0193L63.5006 26.8405L63.6994 26.8057L63.1909 26.7064L63.158 26.5424L62.4909 26.3536L62.0873 26.0257L60.5691 25.6929L58.687 27.0392L57.9875 27.8391L57.8702 28.3359L56.9704 29.4785L57.0102 30.3876L56.7388 30.7155L56.873 31.1378L56.7099 31.2421L56.5181 32.3649L56.8417 32.7077L56.4246 33.4379L56.6856 33.6665L56.5514 33.6863L56.8969 33.6913L56.8998 33.8453L56.6041 33.9447L56.784 34.049L56.5533 34.6054" stroke="black" stroke-width="1.20544" stroke-linecap="round" stroke-linejoin="round"/>
<path d="M50.5461 32.1165L51.083 31.4856L51.6741 31.2819L51.5523 31.2273L51.8202 30.184L51.5309 29.8909L51.6084 29.4289L50.9055 27.9633L50.0828 27.1337L49.2198 26.5425L48.3623 26.4829L48.2514 26.5574L48.3553 26.6071L47.4888 26.8207L45.4566 28.0726L43.6257 28.7781L43.2942 29.0116L42.3646 30.2635L42.1647 30.2735L42.2781 30.2337L42.0116 30.5516L42.1667 30.7354L41.9718 30.8299L42.032 30.9789L41.6243 31.2074L41.8833 31.4012L41.596 32.1315L41.6959 32.7822L41.3867 33.1548L41.7193 34.0789L41.7093 35.2563L42.1229 35.6041L42.03 35.8971L42.371 36.5728L43.1843 37.1739L43.2653 37.313L43.1202 37.4521L43.2544 37.4968L45.5789 37.7701L46.8416 37.5912L48.1669 36.995L49.1562 36.1555L49.7751 35.4252L49.873 35.0874L50.4019 34.9085L50.1484 34.7048L50.9597 33.9249L51.1009 33.0505L51.3768 32.5587L51.2182 31.9128L51.3534 31.5055L51.1769 31.2869L51.4354 30.9391L51.078 29.9058L50.4024 29.101L50.3726 28.5098L50.2076 28.2316L48.4865 26.6419L47.6986 26.5276L46.5811 26.7214L45.8155 27.2579L45.4258 27.2132L44.8924 27.402L44.5941 27.8292L42.9273 27.9981L43.0198 28.0975L42.462 28.3359L42.0295 28.3608L40.5739 29.563L40.7628 29.8214L40.6505 30.035L39.1437 31.6347L38.9141 33.0704L39.2765 33.7957L40.1007 34.2875L40.4815 34.7993" stroke="black" stroke-width="1.20544" stroke-linecap="round" stroke-linejoin="round"/>
<path d="M46.949 27.9922H45.6178L45.7192 28.1512L46.1924 28.0767L45.4199 29.1398L44.6111 29.8503L41.4102 34.4058" stroke="black" stroke-width="1.20544" stroke-linecap="round" stroke-linejoin="round"/>
<path d="M48.2016 28.5249H46.8997L47.3322 28.5895L46.9469 28.7484L46.9534 29.2254L45.4715 31.9528L42.9004 35.6539" stroke="black" stroke-width="1.20544" stroke-linecap="round" stroke-linejoin="round"/>
<path d="M49.5513 30.4272L46.3359 34.4712" stroke="black" stroke-width="1.20544" stroke-linecap="round" stroke-linejoin="round"/>
<path d="M62.7423 29.3945L61.6656 30.6514L60.5645 32.7479" stroke="black" stroke-width="1.20544" stroke-linecap="round" stroke-linejoin="round"/>
<path d="M52.8722 29.3638L52.6972 29.4333L52.5695 29.7861L52.5476 30.8641L52.8921 33.1345L53.1958 33.4673L52.9955 34.138L53.2465 34.2075L53.1794 34.6149L53.334 34.8285L53.1402 35.2309L53.333 35.7228L53.1869 36.2841L53.3355 36.6121L53.0198 37.6007L52.7673 37.7099L52.9512 37.7845L52.5352 38.2813L52.6053 38.5048L52.7907 38.2564" stroke="black" stroke-width="1.20544" stroke-linecap="round" stroke-linejoin="round"/>
<path d="M53.3485 37.159L53.4603 37.0348L53.248 37.1043L53.4827 37.0298L53.69 36.3193" stroke="black" stroke-width="1.20544" stroke-linecap="round" stroke-linejoin="round"/>
<path d="M53.7756 34.6L53.5424 33.6959L53.7343 32.8613L53.6562 32.136L53.4171 32.0366L53.5026 31.9621L53.1442 31.9521L53.2267 32.121L52.8564 33.6263L52.8047 34.8783L52.9389 35.1863L52.8206 35.4694L53.1725 36.6021L53.3465 39.1904L53.4559 39.2451L53.2138 39.2749L53.4758 39.1805L53.3137 39.1308L53.2501 39.2799" stroke="black" stroke-width="1.20544" stroke-linecap="round" stroke-linejoin="round"/>
<path d="M51.1889 41.7439L51.1377 41.5303L50.6973 42.1414L51.3375 42.6332L52.5689 42.8915L52.806 43.0803L54.27 42.8368" stroke="black" stroke-width="1.20544" stroke-linecap="round" stroke-linejoin="round"/>
<path d="M55.4102 42.4947L56.8707 41.8141L57.4558 41.7296L57.94 41.3471L57.6303 41.3968L57.9708 41.4315L57.7998 41.367L58.0717 41.3024L57.8957 41.1931L58.1433 41.0888L58.0329 41.0391L57.934 41.1931L58.1473 41.1534" stroke="black" stroke-width="1.20544" stroke-linecap="round" stroke-linejoin="round"/>
<path d="M67.2461 85.6158L67.9068 85.0047L69.0785 84.2545L69.8465 83.2858L71.7281 82.0091L72.3813 81.9643L72.5702 81.6911L73.1151 81.6066L73.8538 80.926L74.2127 80.9608L74.7063 80.5385L75.4301 80.3696L73.6674 81.4626L71.5049 82.2326L70.8363 82.173L70.0334 82.476L69.5791 82.4661" stroke="black" stroke-width="1.20544" stroke-linecap="round" stroke-linejoin="round"/>
<path d="M68.635 62.2322L68.5713 61.9142L67.6054 61.1839L67.0969 59.4998L66.8558 59.4849L66.8488 59.2961L66.6465 59.2564L65.7229 58.223L65.2029 58.0044L64.5298 57.2393L64.0158 57.0108L63.8457 56.6035L63.2383 56.2259L63.2015 55.9427L61.6763 55.0882L60.8163 54.0698H60.3858L60.017 52.8279L59.6227 52.4553L59.7092 52.3857L59.4791 52.2069L59.4005 51.8094L58.7041 51.099L58.284 51.094L57.8605 50.6668L57.9793 50.5774L57.7779 50.2793L57.8848 49.9017L57.2908 49.6285H57.4538L57.3375 48.5355L57.4469 47.3631L57.332 47.0352L57.4429 46.2751L58.5107 44.9984L58.882 44.8543L58.6991 44.9934L59.2439 45.2964L60.2635 44.3326L61.1076 43.3043L60.9828 43.2198L61.814 42.1815L61.9622 41.6996L61.8936 42.0722L62.1521 41.9083L62.0362 41.8636L62.1789 41.7294L62.1511 41.4363L62.7675 40.7607L62.4195 40.7408L62.7685 40.7309L62.5995 40.6862L62.6164 40.3931L62.6487 40.562L60.8929 42.7975L59.7028 44.8791L57.4334 47.691L55.1517 49.4347L55.5623 49.3403L55.525 49.0274L57.9688 46.8911L60.5081 43.9998L60.2625 43.8954L58.5937 46.3646L57.515 47.6413L57.2977 48.2673L55.6582 49.4745L56.1235 49.2758L56.6331 48.5355L59.6595 45.5895L59.8116 45.4952L59.8007 45.669L59.2514 47.055L57.3206 50.2197L54.929 53.573L54.668 54.04L54.7425 54.2238L55.1954 54.1295L55.3619 53.732L58.4789 50.632L61.2379 47.2091L61.0291 47.6115L60.1184 48.4113L59.0665 50.329L56.4909 53.8115L55.9858 54.2537L56.6982 54.045L57.6706 53.4587L59.9096 51.2281L60.9615 50.2991L61.7598 49.8272L61.5018 50.781L60.3456 52.4354L60.1437 52.9968L59.1003 54.358L58.8487 54.5517L58.7652 54.4474L59.3185 53.9953L59.6879 53.9903L60.1084 53.7618L62.5786 51.9237L63.105 51.7647L63.5082 51.9038L63.6131 52.023L63.3874 52.6589" stroke="black" stroke-width="1.20544" stroke-linecap="round" stroke-linejoin="round"/>
<path d="M41.4301 43.6668L41.9068 42.4199L41.4614 42.1119L41.1114 42.2709L40.2957 43.17L39.0176 45.351L43.3166 39.7322L43.1218 39.8862L43.5309 39.8962L43.8506 40.5022L43.6353 42.2807L43.5379 42.251L43.7074 42.1615L43.8953 40.4327L43.7253 38.0033L42.9841 36.2944L41.6543 34.2178L41.7214 34.337L41.5668 34.3966L42.0868 34.6103L42.3935 34.5606L42.4497 34.3519" stroke="black" stroke-width="1.20544" stroke-linecap="round" stroke-linejoin="round"/>
<path d="M47.3303 30.1195L46.6363 30.1841L45.9707 29.9903L46.6129 29.7171L46.2843 29.4141L45.9503 29.5233L42.9706 32.8568L42.5938 33.7212" stroke="black" stroke-width="1.20544" stroke-linecap="round" stroke-linejoin="round"/>
<path d="M46.5551 28.6582L46.4044 28.7228L46.3642 29.1848L45.703 30.5212L44.3986 31.9271L42.7695 34.4757" stroke="black" stroke-width="1.20544" stroke-linecap="round" stroke-linejoin="round"/>
<path d="M47.7093 27.6904L47.5283 27.9041L47.6466 28.0482L47.3086 28.1078L44.91 31.2425L43.9023 32.9664" stroke="black" stroke-width="1.20544" stroke-linecap="round" stroke-linejoin="round"/>
<path d="M48.7619 28.5396L48.1947 29.2251L47.9829 29.8063L46.4816 31.6544L46.4453 32.2655" stroke="black" stroke-width="1.20544" stroke-linecap="round" stroke-linejoin="round"/>
<path d="M49.9751 30.6611L46.6469 34.2927L45.4141 36.1657" stroke="black" stroke-width="1.20544" stroke-linecap="round" stroke-linejoin="round"/>
<path d="M57.0056 28.9214L54.7656 31.619" stroke="black" stroke-width="1.20544" stroke-linecap="round" stroke-linejoin="round"/>
<path d="M58.2809 17.3014L60.4239 17.9075L61.6439 18.6775L62.7027 19.9046L64.0499 22.3141L64.3601 22.5724L64.5808 22.4879L64.7165 21.4695L64.3099 19.9444L63.0621 17.6243L61.8815 16.4122L60.6213 16.1339L59.1096 16.1289L54.5227 15.5428L52.055 14.9665L50.8102 14.4299L49.5396 14.2262H48.2495L45.1043 14.6337L44.7454 14.7081L44.46 15.1453L44.9691 15.1602L45.412 14.8175L47.6838 11.4243L47.7246 11.5386L45.5611 12.9246L44.2592 14.0971L41.7468 17.987L40.0441 21.3205L39.7623 22.4582L39.6822 23.8889L39.5938 23.8144L39.9895 23.3374L40.2355 22.2197L40.7396 21.2211L41.5285 18.6428L42.7698 16.3426L43.7601 14.9814L44.3183 14.4995L45.326 13.9629L47.0321 13.4264L45.1679 15.0708L43.2078 17.2965L42.1047 18.8862L41.2104 20.9727L41.0324 22.0508L40.5701 23.0692L40.7023 23.8691L40.5999 24.1771L40.7709 24.1324L40.8256 23.6207L42.5138 20.1133L44.0315 16.4022L45.3359 14.3554L46.0901 12.3385L46.5076 12.3235L46.3014 12.403L46.4614 12.4279L46.5216 12.7607L46.2864 13.4264L44.6057 15.2397L40.7764 20.8237L39.7672 23.1835L39.8229 23.9783L40.32 24.5347L40.2882 24.7931" stroke="black" stroke-width="1.20544" stroke-linecap="round" stroke-linejoin="round"/>
<path d="M50.7395 12.6466L50.6391 12.1249L49.9963 12.0454L48.2703 13.655L43.6297 20.7195L42.9561 22.3539L42.9512 23.4617" stroke="black" stroke-width="1.20544" stroke-linecap="round" stroke-linejoin="round"/>
<path d="M50.8114 12.2894L50.8561 11.9863L50.8914 12.1602L49.5949 12.9601L48.201 14.4604L45.789 17.7491L43.6758 21.6738" stroke="black" stroke-width="1.20544" stroke-linecap="round" stroke-linejoin="round"/>
<path d="M48.7131 13.3524L48.2015 13.3027L47.7268 13.8492L44.4513 18.6929L42.094 23.0896L40.4883 27.1385" stroke="black" stroke-width="1.20544" stroke-linecap="round" stroke-linejoin="round"/>
<path d="M49.488 13.501L49.0908 16.8593L49.0352 21.3056L50.0736 24.2715" stroke="black" stroke-width="1.20544" stroke-linecap="round" stroke-linejoin="round"/>
<path d="M49.2919 15.479L47.6758 15.8963L49.0856 17.6749L50.562 20.4122L52.4809 22.3249L54.3759 23.1694" stroke="black" stroke-width="1.20544" stroke-linecap="round" stroke-linejoin="round"/>
<path d="M49.2211 18.8568L48.4495 18.9213L47.6621 18.7822L48.122 18.8319L50.7457 20.1682L51.651 20.9184L53.4381 21.8872L54.4652 22.3641L55.6473 22.5529" stroke="black" stroke-width="1.20544" stroke-linecap="round" stroke-linejoin="round"/>
<path d="M51.7508 16.8203L51.0961 17.1234L50.25 17.804L50.3037 18.6833L51.377 20.3476L52.9389 21.4058L54.6316 22.0019L57.9732 22.9409L59.1031 23.0104" stroke="black" stroke-width="1.20544" stroke-linecap="round" stroke-linejoin="round"/>
<path d="M60.2564 48.9675L60.2539 47.8149L60.2594 48.2223L60.6929 48.3813L61.181 48.2968L61.9163 48.5601L65.3732 48.7837L67.4532 49.5985L68.1223 49.7078" stroke="black" stroke-width="1.20544" stroke-linecap="round" stroke-linejoin="round"/>
<path d="M43.8909 41.7393L43.6433 42.0473L43.442 43.4681L41.3531 48.6149L42.5626 47.2437L44.9418 43.1949L45.0507 42.7478L44.9547 42.554L44.652 42.6633L44.5824 42.9763L43.2392 44.8939L40.0129 49.1465L39.5625 49.9314L39.7882 50.0705L40.3728 49.7128" stroke="black" stroke-width="1.20544" stroke-linecap="round" stroke-linejoin="round"/>
<path d="M62.2461 45.4702L62.5195 47.3679L63.9781 49.4049L65.543 50.2841L66.6431 50.5723L66.9578 51.0939L67.0159 51.9882L66.6938 54.1393L66.8206 55.5253L67.8049 57.1052L67.6617 57.5225L67.9465 57.6218L67.701 57.8354L67.8784 58.2428L67.9361 58.2826" stroke="black" stroke-width="1.20544" stroke-linecap="round" stroke-linejoin="round"/>
<path d="M40.7757 21.8271L40.4909 22.0159L39.6622 23.3423L38.3831 25.8711L38.0664 26.969L38.3244 27.1131V26.8149L39.002 25.3891L39.4877 24.8973L39.5851 24.9768L39.3564 25.7319L38.9105 26.8298L38.657 26.9491L38.8176 26.7305L39.856 26.2337L39.9202 25.9505L40.3715 25.8909L40.029 26.0002L40.2045 27.0782L40.6897 27.3018L41.1331 27.2223L40.9656 27.1428L41.2763 26.8398L41.0198 26.8547L41.0894 26.5517L41.7535 25.9257" stroke="black" stroke-width="1.20544" stroke-linecap="round" stroke-linejoin="round"/>
<path d="M45.9619 18.6328L45.8968 18.4688L47.3111 17.4802L47.9538 16.8294L51.4068 14.7975L53.3719 13.1929L47.576 17.2566L45.3489 19.3034L45.253 19.5071L45.3857 19.5966L48.3555 17.4404L51.5475 15.4533L51.9989 14.9913L52.0749 14.574L51.8219 14.4746L50.7615 14.6833L45.7034 17.4355L45.3007 17.5349L45.5533 17.2418L45.5209 16.3624L46.6032 14.2212L47.6849 13.0786L48.3983 11.9658L47.6809 12.5868L44.2946 14.6684L43.6836 14.8969L46.4197 13.64L47.7614 12.6663L47.1127 13.0389L48.4654 13.6251L48.6657 14.0523" stroke="black" stroke-width="1.20544" stroke-linecap="round" stroke-linejoin="round"/>
<path d="M64.1511 67.0665L63.4785 67.0268L63.6848 66.9721L63.8176 67.2403L64.263 67.459L64.0248 67.3248L64.173 67.2553L64.1337 67.0317L64.7029 66.6045" stroke="black" stroke-width="1.20544" stroke-linecap="round" stroke-linejoin="round"/>
<path d="M37.9692 83.9644L37.886 84.7372L37.7745 84.6384L37.7093 84.7237L38.029 84.7776L37.7341 84.8226L37.4211 85.8651L37.2228 86.0223L37.2997 86.274L36.8717 87.1502L37.0286 87.3344L36.7134 87.6085L36.5637 88.3499L36.262 88.4443L36.3829 88.5881L35.9679 88.8397L36.2004 88.943L35.7471 89.3339L35.8942 89.4059L35.6374 89.4823L35.8321 89.5047L35.5246 89.6664L35.8065 89.9316L35.6221 89.999L35.3722 90.4484L35.4855 90.637L35.3551 91.1448L35.083 91.4728L35.2656 91.5402L34.7921 91.8098L34.8901 91.8413L34.7116 92.012L34.8933 92.1289L34.4014 92.9062L34.3492 92.8163L34.4036 93.1264L34.159 93.2927L33.9028 93.8723L33.6739 93.9487L33.7413 94.2138L33.5296 94.2812L33.6366 94.3217L33.4262 94.5778L33.5372 94.5418L33.1784 94.7215L33.1991 94.9507L33.079 94.9867L33.177 95.0091L32.9567 95.1754L33.1096 95.2563L32.9459 95.3282L32.7805 95.7505L32.6748 96.5054L32.2612 96.8379L32.423 96.9098L32.151 97.1255L32.267 97.2693L31.7773 97.5928L31.9568 97.7051L31.9001 97.9074L32.0588 97.9029" stroke="black" stroke-width="1.20544" stroke-linecap="round" stroke-linejoin="round"/>
<path d="M38.533 84.4357L38.8019 84.8761L38.667 84.2739L38.6571 84.8671L38.4017 85.1412L38.6634 85.4827L38.4854 85.9589L38.5533 87.0689L38.4346 87.5092L38.6018 87.689L38.2938 88.1472L38.4296 88.4303L38.2794 88.5966L38.5074 88.8033L38.2826 89.1313L38.444 89.3605L38.0803 91.1938L38.2561 91.3645L38.0753 91.4948L38.2111 91.6386L38.0268 92.0565L38.1814 92.2183L37.8856 92.3845L37.9656 92.8024L37.8536 92.9058H38.0816L37.8154 93.2473L37.8491 93.5214L37.6297 93.7056L37.85 93.9033L37.5587 93.9527L37.6468 94.1325L37.5281 94.2673L37.685 94.3751L37.475 94.6357L37.5888 94.9143L37.2714 95.1255L37.3105 95.3007L37.4849 95.2872L37.3262 95.3681L37.3716 95.7052L37.2224 95.9298L37.4768 96.0017L37.284 95.9882L37.0758 96.2848L37.3393 96.2398L37.0407 96.4556L37.2457 96.7297L37.0214 96.9678L37.0034 97.4576L36.8042 97.6103L37.0681 97.6733L36.8829 97.8036L36.9368 97.9608L36.668 98.5495" stroke="black" stroke-width="1.20544" stroke-linecap="round" stroke-linejoin="round"/>
<path d="M28.5547 78.5786L37.7564 85.3544" stroke="black" stroke-width="1.20544" stroke-linecap="round" stroke-linejoin="round"/>
<path d="M67.7066 73.6784L66.944 74.3242L66.6348 74.2795L66.6919 73.9367L66.52 73.4498L66.6442 73.0574L66.4688 72.814L66.5965 72.958L66.4837 73.1319L66.8122 73.261L67.2482 73.2362L66.8988 73.2163L67.2099 73.0077L66.938 72.8487" stroke="black" stroke-width="1.20544" stroke-linecap="round" stroke-linejoin="round"/>
<path d="M61.8789 73.0923L67.8788 99.3824" stroke="black" stroke-width="1.20544" stroke-linecap="round" stroke-linejoin="round"/>
<path d="M68.3418 88.313L72.4956 98.4601" stroke="black" stroke-width="1.20544" stroke-linecap="round" stroke-linejoin="round"/>
<path d="M61.0056 54.9199L60.479 54.7908L59.9995 54.4126L60.1878 54.6201L60.0193 54.7124L59.8245 54.6801L59.8836 54.5233L59.6445 54.5141L59.9778 54.4587L59.8813 54.6247L60.1236 54.9061L61.6259 55.5979L62.9976 56.9355L63.7406 56.9125L64.5331 57.4567L65.6615 59.5922L66.105 60.2195L66.6612 60.6761L66.9072 61.4741L67.9562 63.2221L68.0236 64.0062L68.7708 65.9157L69.0251 66.2293L69.2868 67.1656L69.6703 67.4331L69.7114 68.065L70.1743 68.3879L70.3308 69.0013L70.9562 69.8407L70.8796 70.3619L71.3272 70.7171L71.408 71.1414L71.5954 71.3029L71.4952 71.4828L71.6415 71.5427L71.4929 71.8148L72.104 72.3222L72.0384 72.4329L72.8018 74.4577L72.9763 74.513L73.0857 74.8451L73.5735 75.334L73.418 75.4171L73.5634 75.5692L73.5024 75.7168L73.7452 75.952L74.4149 78.0784L74.9235 78.5903L74.8967 78.8025L75.4842 80.057L75.4602 80.3061L75.9033 80.8134L75.8918 81.1409L76.5305 82.4462L76.6874 83.3733L76.9298 83.5439L76.8494 83.7653L77.1434 84.1758L77.0424 84.2496L77.1702 84.7385L77.7605 85.8362L77.6359 86.0115L77.9696 86.3482L77.8519 86.505L78.0886 86.9847L78.3323 87.1231L78.396 87.4459L78.2506 87.7596L78.7108 88.4514L78.8165 89.3785L79.1488 89.6737L79.0454 90.0334L79.2148 90.1626L79.0929 90.1811L79.3759 90.3886L79.35 90.6884L79.6112 90.9006L79.4852 90.9744L79.7243 91.8876L80.1 92.2243L79.9029 92.5933L80.0534 92.7132L80.0114 92.9346L80.6626 93.9447L80.5786 94.1615L80.8634 94.4566L80.6778 94.595L80.9991 94.6872L80.7415 94.8671L81.0046 94.8902L81.018 95.0101L80.7983 94.9824L81.1204 95.2361L81.0554 95.3607L81.3272 95.7619L81.2114 95.8449L81.4412 95.8957L81.3207 96.0202H81.624L81.3826 96.2047L81.6484 96.3523L81.8335 97.0442L82.037 97.1964L81.8252 97.3024L82.0869 97.367L82.1543 97.985L82.3624 98.0635L82.1981 98.1419L82.3029 98.3217L82.6038 98.3725L82.2604 98.3679L82.6966 98.6123L82.4944 98.6861L82.6509 98.6907L82.5438 98.6861L82.8899 99.235L82.6158 99.2258L82.9084 99.3134L82.7215 99.6086" stroke="black" stroke-width="1.20544" stroke-linecap="round" stroke-linejoin="round"/>
<path d="M51.315 60.0165L51.4984 59.9519L51.4636 59.8227L51.2961 60.0264L51.4204 60.0214L51.1758 60.0115H51.3751L51.1827 60.0165L51.3279 60.1208L51.484 60.0165L51.2573 60.0661L51.302 60.1754L51.7281 60.394L52.6125 61.4025L52.856 61.3826L52.7591 61.472L53.1473 61.5913L53.5192 61.9688L53.8269 61.9092L54.0541 62.0831L54.934 61.9987L55.3943 62.0632L55.5126 62.2719L56.1211 62.3315L57.5518 61.7353L57.4912 61.5863L57.9142 61.482L57.8943 61.328L58.385 61.0547L58.4919 60.7517L58.8567 60.4983L59.8097 59.2265L59.8848 58.8738L59.753 58.9086L60.0279 58.8639L59.7431 58.8738L59.9499 58.9136L59.8092 58.7993L60.4077 58.4665L60.4157 58.3373H60.2492L60.4281 58.3273L60.3257 58.3025L60.3874 57.7014L60.5683 57.3536L60.4281 57.1599L60.6235 57.2393L60.528 56.8071L61.0053 56.7773L60.8586 57.1996" stroke="black" stroke-width="1.20544" stroke-linecap="round" stroke-linejoin="round"/>
<path d="M45.5792 44.874L45.4191 45.2814L45.7681 45.1174L45.8929 45.2168L45.5285 45.2963L45.694 45.3658L45.5066 45.7931L45.5141 46.3395L45.2754 46.424L45.1601 47.2338L44.6207 48.1032L44.7202 48.2721L44.1072 49.1713L43.7866 50.3338L43.5291 50.6567L43.7299 51.0492L43.4122 51.5758L43.5087 51.9185L43.3859 52.2961L42.9629 52.4452L42.8038 53.1009L42.6054 53.5331L42.2734 53.7666L42.3072 54.0249L42.08 54.4174L41.7757 54.5317L41.8463 54.6261L41.297 55.2769L41.0569 55.3117L41.0032 55.7091L40.7557 55.8432L40.9426 55.9327L40.6249 56.0817L40.4087 56.5388L40.5374 56.658L40.3023 56.812L40.0259 57.4926L39.668 60.6025L39.9011 61.1142L39.752 62.4059L39.9454 62.535" stroke="black" stroke-width="1.20544" stroke-linecap="round" stroke-linejoin="round"/>
<path d="M44.6679 46.6626L44.6261 46.5086L44.8398 46.29L45.331 46.5434L44.7374 47.0054L43.9629 48.2623L43.3714 48.62L42.7848 49.6732L42.147 50.2694L41.631 51.3027L40.6447 52.6788L40.84 53.0514L40.3409 53.891L40.07 55.436L39.6405 55.9279L39.7762 56.5786L39.4655 57.9349L39.5361 58.2578L39.2637 58.5907L39.206 59.5445L39.3497 59.7731L39.1146 60.4785L39.2408 60.861L39.0703 61.3876L39.4526 62.1378L39.721 62.0831" stroke="black" stroke-width="1.20544" stroke-linecap="round" stroke-linejoin="round"/>
<path d="M47.2329 48.0786L46.1009 53.7321L44.7716 57.3786L44.3923 57.935L43.7461 58.3672" stroke="black" stroke-width="1.20544" stroke-linecap="round" stroke-linejoin="round"/>
<path d="M46.4447 49.0024L45.4843 51.089L44.4861 53.9207L43.9342 54.656L42.3867 58.2428" stroke="black" stroke-width="1.20544" stroke-linecap="round" stroke-linejoin="round"/>
<path d="M43.7293 46.7622L43.4355 47.9744L42.7167 49.733L41.7692 51.442L41.2596 52.0232L40.9753 53.3298L40.2828 54.2837L40.1202 55.0537L39.8394 55.3766L39.6216 56.0225L39.6813 56.6335L39.1499 57.0459L39.0857 57.5874L38.4126 58.1984L38.5344 58.4518L38.2734 58.9139L38.4126 59.8478L38.3028 60.0217L38.6975 60.7172L38.5826 60.8612L38.7522 61.2637L38.6184 61.6413L38.8158 62.6249L39.5103 62.9329" stroke="black" stroke-width="1.20544" stroke-linecap="round" stroke-linejoin="round"/>
<path d="M42.8927 40.2783L42.1679 40.7801L39.8126 44.8389L38.5628 48.8927L38.3516 51.019L38.6454 51.4264" stroke="black" stroke-width="1.20544" stroke-linecap="round" stroke-linejoin="round"/>
<path d="M42.2427 39.7021L41.4587 40.2287L40.0409 41.6397L38.6967 44.0839L38.0579 46.3741L38.0445 48.1278L37.8477 48.4954" stroke="black" stroke-width="1.20544" stroke-linecap="round" stroke-linejoin="round"/>
<path d="M39.9419 35.6636L38.5897 37.9687L37.6641 40.2838" stroke="black" stroke-width="1.20544" stroke-linecap="round" stroke-linejoin="round"/>
<path d="M40.1832 27.5513L40.0942 27.4072L40.1439 27.6308L39.7164 28.1474L39.2337 29.3795L38.3185 30.5221L37.0195 32.6285" stroke="black" stroke-width="1.20544" stroke-linecap="round" stroke-linejoin="round"/>
<path d="M67.0232 36.1606L66.8984 36.7717L67.404 37.502L67.5044 38.277L68.0582 39.4643L69.2195 40.1002L70.8948 40.2642" stroke="black" stroke-width="1.20544" stroke-linecap="round" stroke-linejoin="round"/>
<path d="M64.8155 43.5581H64.5918L64.6778 43.7667L65.4493 44.2735L66.9824 44.6312L70.6318 45.9825L70.8843 46.206" stroke="black" stroke-width="1.20544" stroke-linecap="round" stroke-linejoin="round"/>
<path d="M65.0858 43.1603H64.8438L65.0988 43.0063L65.5288 43.4286L66.2292 43.682L67.3592 44.606L68.0755 44.9041L70.1957 45.2916L71.9187 45.0779" stroke="black" stroke-width="1.20544" stroke-linecap="round" stroke-linejoin="round"/>
<path d="M66.3554 45.4302L65.4108 45.7829L65.4203 45.9667L65.0977 45.9717L65.289 45.9418L65.8906 46.6722L67.2273 47.4471L70.5212 48.8233" stroke="black" stroke-width="1.20544" stroke-linecap="round" stroke-linejoin="round"/>
<path d="M64.7662 49.3705L64.7767 49.2612L64.5391 49.3655L64.7578 49.8127L65.1903 50.2747L65.7202 50.5429L69.202 51.6607L71.107 51.7949" stroke="black" stroke-width="1.20544" stroke-linecap="round" stroke-linejoin="round"/>
<path d="M63.7219 51.2329L63.4648 51.3571L65.854 52.8475L70.8316 54.0249" stroke="black" stroke-width="1.20544" stroke-linecap="round" stroke-linejoin="round"/>
<path d="M63.0312 54.8697L63.6576 54.4971L63.8336 54.8845L64.445 55.436L65.0406 55.6794L66.26 56.5389L66.691 57.2741L67.0872 57.607L69.1179 58.6204" stroke="black" stroke-width="1.20544" stroke-linecap="round" stroke-linejoin="round"/>
<path d="M65.9707 45.0581L67.1295 45.4208L66.5553 46.4193L66.7984 49.9912L67.1832 53.0267L68.5179 55.9578L68.6228 57.935" stroke="black" stroke-width="1.20544" stroke-linecap="round" stroke-linejoin="round"/>
<path d="M64.1133 46.5781L65.7498 51.3623L66.5422 52.793L66.9523 54.9889L67.6751 56.5935L68.2219 60.8262L68.1702 65.8289" stroke="black" stroke-width="1.20544" stroke-linecap="round" stroke-linejoin="round"/>
<path d="M62.7518 53.8208L62.7031 54.0841L63.5219 55.336L64.2114 55.9123L66.3872 58.5652L67.4277 60.0406L67.5117 60.3834" stroke="black" stroke-width="1.20544" stroke-linecap="round" stroke-linejoin="round"/>
<path d="M58.8555 48.8382L59.5176 48.704L60.3071 48.2917L60.7301 46.5032L61.3018 45.0674L63.0273 43.443L63.769 41.9923L64.6752 40.9491L64.6603 40.6112L65.0829 40.2535L65.0809 40.0946L66.3475 39.7667L66.7273 39.2649L67.2359 38.3309L67.1976 37.8441L67.384 37.4814L67.1981 37.1685" stroke="black" stroke-width="1.20544" stroke-linecap="round" stroke-linejoin="round"/>
<path d="M49.1934 12.1099L51.6218 12.1844L53.0495 12.7855L54.6358 13.0786L58.1226 14.6684L61.2569 17.2368L62.6692 18.6179L63.4437 19.8102L63.7246 20.4958L63.7773 21.226" stroke="black" stroke-width="1.20544" stroke-linecap="round" stroke-linejoin="round"/>
<path d="M53.3906 14.5103L55.7385 15.171L57.114 16.2788L60.3309 20.119L61.092 21.6492L61.8113 22.6378L62.3442 24.0288" stroke="black" stroke-width="1.20544" stroke-linecap="round" stroke-linejoin="round"/>
<path d="M54.9209 15.2598L54.5898 15.5181L54.6584 16.9539L55.0591 18.1958L56.2815 20.7295L58.5916 23.3675L60.3082 24.843L60.7153 25.5683" stroke="black" stroke-width="1.20544" stroke-linecap="round" stroke-linejoin="round"/>
<path d="M53.918 15.9805L55.8652 17.0585L57.8278 18.6433L59.3539 19.6021L62.6861 20.7696" stroke="black" stroke-width="1.20544" stroke-linecap="round" stroke-linejoin="round"/>
</svg>
