<svg width="194" height="75" viewBox="0 0 194 75" fill="none" xmlns="http://www.w3.org/2000/svg">
<path d="M60.3047 22.8493L60.4802 23.2517L60.6611 23.1226L61.9417 23.3859L63.9903 23.3313L64.6898 23.1722L66.0464 22.2283L66.8423 21.2347L67.5198 20.7578L67.4776 20.4945L67.7102 20.4647L68.0055 20.1071L68.8904 18.5968L69.3214 15.9041L69.1225 15.2384L69.2727 15.0199L69.0942 14.8808L68.8775 13.9716L68.2516 13.6089L68.3237 13.4301L67.7943 13.0675L67.2146 12.0589L66.7473 11.7013L65.9524 11.3486L65.0482 10.6133L64.0371 10.2556L62.3598 10.0221L62.0436 9.84326L61.2134 9.91779L61.3596 9.97243L60.6547 10.1413L60.3112 10.5089L59.9383 10.6034L59.9483 10.7524L59.2866 11.1598L59.299 11.4529L58.4872 11.8702L57.9315 12.7892L57.3722 13.0873L57.5616 13.1767L57.2852 13.5046L57.3767 13.7977L56.9158 14.3492L56.8249 15.1589L56.5808 15.4272L56.6469 15.616H56.8035L56.4868 15.8247L56.5142 16.2767L56.7543 16.3811L56.5013 16.5649L56.5634 16.7785L56.2656 16.8481L56.4292 16.8829L56.5485 17.2256L56.545 17.782L56.809 17.9211L56.4724 18.0553L56.8497 18.1745L56.5674 18.2142L56.7647 18.3335L56.5927 18.5322L56.8627 18.6365L56.6091 18.6663L56.8313 19.0787L56.6176 19.2227L56.9869 19.2774L56.6623 19.5258L56.8905 19.5407L56.9014 19.7941L57.228 19.8089L56.9422 19.9183L57.1326 20.1418L57.0923 20.7231L57.4443 21.205L57.2827 21.2L57.4826 21.2596L57.2365 21.205L57.4686 21.2943L57.488 21.5676L57.6357 21.5974L57.3936 21.6421L57.7465 21.7862L57.7878 21.9899L57.9648 22.0297L57.8067 22.0545L58.1378 22.0992L58.1482 22.3078L58.4882 22.4121L58.2919 22.5463L58.8263 22.6407L58.6289 22.7351L59.6122 23.3909L60.6159 23.4753L61.4212 23.3313L61.7364 23.4852L61.8637 23.3114L62.2106 23.4008L62.5944 23.1573L63.1432 23.1623L63.4231 22.9984L63.8099 23.1126L64.1976 22.8543L65.7277 22.6009L67.4995 21.2695L68.2601 20.3455L68.3833 20.0524L68.1984 19.958L68.4171 19.9679L68.1984 20.0673" stroke="#292562" stroke-width="1.20544" stroke-linecap="round" stroke-linejoin="round"/>
<path d="M65.5625 23.207L80.9731 38.6077" stroke="#292562" stroke-width="1.20544" stroke-linecap="round" stroke-linejoin="round"/>
<path d="M68.0508 20.2261L84.9528 33.6395" stroke="#292562" stroke-width="1.20544" stroke-linecap="round" stroke-linejoin="round"/>
<path d="M79.8477 38.2449L84.4549 33.6396" stroke="#292562" stroke-width="1.20544" stroke-linecap="round" stroke-linejoin="round"/>
<path d="M67.4707 26.1776L67.1406 26.5303L67.1714 26.734L67.8361 26.5949L68.1493 26.2522L68.6011 26.1379L68.716 25.9342L68.6151 25.81L68.9049 25.5218L69.3473 24.5382L69.7878 24.3196L69.9936 24.0017L69.8887 23.9669L70.0343 23.9371L69.9185 23.8874L70.2406 23.9718L70.0289 23.9818L70.269 23.8924L70.3207 23.7582H70.1387L70.2998 23.8129L70.3759 23.7384L70.179 23.7284L70.518 23.6142L70.3883 23.5595L70.6592 23.5496L70.349 23.5545L70.6756 23.5645L70.4514 23.5943L70.3485 23.3906" stroke="#292562" stroke-width="1.20544" stroke-linecap="round" stroke-linejoin="round"/>
<path d="M56.957 14.4686L57.0565 14.4189L57.0281 15.7255L57.3279 16.0186L57.1459 16.4807L57.4889 16.9476L57.473 17.3202L57.9821 18.2691L58.3087 19.3323L58.5577 19.4515L58.3519 19.7247L58.601 19.8639L58.43 19.9881L58.6989 20.0874L59.0703 20.5693L59.025 20.7332L59.1548 20.6885L59.6917 21.2201L59.9929 21.3045L60.0521 21.5678L61.0652 22.3975L61.0016 22.5664L61.7975 23.242L62.0952 23.2719L62.1146 23.4209L63.2823 24.0171L63.0119 23.7785L63.1377 23.5053" stroke="#292562" stroke-width="1.20544" stroke-linecap="round" stroke-linejoin="round"/>
<path d="M58.2422 13.584L58.7716 13.6535L58.5574 13.7678L58.7 13.7082L58.5683 13.8075L58.7875 13.9267L58.4669 14.0659L59.2275 15.0595L59.1673 15.2184L59.8524 15.8096L60.1541 16.4008L61.1304 17.3844L61.897 18.4873L62.6506 18.9792L63.6478 20.0771L63.9486 20.1417L63.8855 20.3056L64.306 20.4199L64.394 20.6981L65.252 21.1601H65.5727L65.428 21.1651L65.5558 21.1502L65.5801 21.3191L66.375 21.7215L66.0484 21.7363L65.9719 21.4333" stroke="#292562" stroke-width="1.20544" stroke-linecap="round" stroke-linejoin="round"/>
<path d="M58.5723 14.29L59.5203 14.3795L61.8239 15.2936L62.8624 15.9195L63.2074 15.9543L63.2959 16.1978L65.2749 17.405L65.3554 17.6732L65.8709 17.8024L66.031 18.1204L67.495 19.104L67.5681 19.3524L67.7804 19.417L67.6059 19.4567L67.9862 19.6256L67.7078 19.6058L67.6631 19.4716" stroke="#292562" stroke-width="1.20544" stroke-linecap="round" stroke-linejoin="round"/>
<path d="M58.9419 12.6452L59.0075 12.4912L58.8301 12.6104L58.9529 12.4962L59.0955 12.6204L58.8639 12.67L59.4614 12.9234L60.8911 13.1172L62.9189 13.8276L64.0165 14.0313L64.7577 14.3691L65.6699 15.1044L67.7777 15.9241L68.1177 16.1874L68.1968 16.5054L68.7839 16.7438" stroke="#292562" stroke-width="1.20544" stroke-linecap="round" stroke-linejoin="round"/>
<path d="M56.2812 20.0574L58.6694 19.2228L58.8429 18.8303L60.5828 17.1164L60.9631 15.6161L61.8286 14.4635L61.8007 14.0164L62.2874 13.4898L62.4554 12.8737L62.8054 12.4763L62.7373 12.3472" stroke="#292562" stroke-width="1.20544" stroke-linecap="round" stroke-linejoin="round"/>
<path d="M58.6523 24.1357L60.0607 22.9782L62.325 21.5474L62.9902 19.6546L65.2744 16.3509L65.3868 15.566L65.6796 15.268L65.8048 14.647" stroke="#292562" stroke-width="1.20544" stroke-linecap="round" stroke-linejoin="round"/>
<path d="M82.5996 31.7227L82.8621 32.2592L82.8258 32.1549L83.0132 32.2492L82.9068 32.2889L83.3453 33.1385L84.1148 33.7147L84.7412 33.6154" stroke="#292562" stroke-width="1.20544" stroke-linecap="round" stroke-linejoin="round"/>
<path d="M110.525 39.979L109.977 40.9179" stroke="#292562" stroke-width="1.20544" stroke-linecap="round" stroke-linejoin="round"/>
<path d="M109.384 43.3121L108.836 44.6882L108.421 47.0132L107.073 49.8697L106.367 52.4382L106.544 55.0314L107.182 56.6311L107.219 57.1081L107.653 57.9675L107.679 58.7624L108.463 59.8454L109.02 61.763L110.299 63.1093L111.083 63.7006L113.684 65.2108L117.131 66.2689L119.595 66.7409L123.54 67.1234L130.361 67.3619L139.438 66.2044L142.016 65.5039L143.685 64.8531L148.197 62.3195L152.726 60.988L153.984 60.3919L155.774 59.2642L157.133 57.7638L158.001 57.1677L159.671 55.4487L162.474 50.6944L163.96 48.747L166.242 46.4568L167.53 43.7493L167.947 41.6379L168.791 39.4669L169.378 37.3108L169.577 35.1845L169.48 32.0597L169.265 29.7347L168.666 27.9164L165.943 24.2501L164.516 22.9782L163.32 21.2494L160.706 18.2289L158.245 16.5398L157.389 16.2815L153.706 15.7499L150.498 14.8656L147.617 14.6321L144.494 14.8905L141.725 15.8095L140.435 16.4603L136.501 19.918L134.686 23.013L133.368 26.9874L133.374 29.844L133.595 31.3741L135.224 35.6664L137.254 39.3278L138.142 40.4754L139.596 41.8515L143.046 44.4249L149.038 47.4305L151.026 48.2005L152.983 48.5334L155.151 48.5036L155.966 48.0515L157.187 45.95L157.477 44.8968L158.055 43.7741L158.758 42.8948L159.867 41.0368L159.681 40.5499L159.783 39.9338L159.353 36.8736L158.595 33.9823L156.322 28.9348L155.334 27.2755L154.458 26.3813L153.778 25.9888L152.632 24.7469L150.335 23.018L149.494 22.7597L147.451 22.5163L143.813 22.8491L142.197 23.3558L141.673 23.8576L141.605 24.5332L141.251 25.1592L141.322 25.7802L141.181 26.1627L141.295 26.3068L141.1 27.9661L141.486 29.685L142.043 30.8028L142.438 31.2449L142.5 31.7367L143.12 33.0979L144.041 34.5883L143.991 34.8367L144.603 35.1597L144.726 35.7011L145.675 36.8687L145.831 37.4946L146.843 38.5627L149.055 40.2171L150.103 40.7138L150.785 41.315L152.247 41.7671L152.336 42.1198L155.498 43.0836L158.902 44.718L159.927 44.8322L161.413 45.3936L162.724 45.2644L164.561 45.9004L166.108 46.0444L166.623 46.2482L168.835 46.119L171.248 46.2879L173.143 45.9799L173.391 45.8159L173.666 45.9451L173.8 45.801L173.705 45.7315L174.055 45.5923L175.198 44.2858L176.918 42.9096L177.623 42.6961L178.499 42.0601L178.399 41.5733L178.726 41.5037L179.594 40.376L180.426 39.8047L180.862 38.9949L181.504 38.205L181.986 37.8672L182.136 37.0773L182.497 36.6451L182.371 36.4712L182.447 36.1433L183.571 35.5571L184.318 34.0667L184.326 33.7339L184.929 33.4855L184.836 32.9936L185.425 31.6125L185.857 29.3571L186.313 28.6666L186.546 27.9661L186.825 26.6844L186.751 26.0485L187.015 25.4026L187.089 20.4595L186.811 16.1374L186.916 13.4746L187.834 11.5967L188.093 10.31L189.801 7.13053L189.808 6.6039L190.416 5.31722L191.04 4.79556L191.147 4.33855L191.506 3.93611L192.885 3.48401L193.221 3.10645" stroke="#292562" stroke-width="1.20544" stroke-linecap="round" stroke-linejoin="round"/>
<path d="M82.3676 36.8638L81.5449 37.132L81.7552 37.0078L81.9416 37.0923L81.793 36.8836L81.6259 36.9432L81.8805 36.9035L81.701 36.9333L81.6995 37.1022L83.9743 37.4848L84.3203 37.9021L85.3886 38.2846L85.8594 38.5777L86.1776 38.9801" stroke="#292562" stroke-width="1.20544" stroke-linecap="round" stroke-linejoin="round"/>
<path d="M87.4355 39.1401L87.9883 38.7377L91.0009 38.062L91.6422 37.5553L93.4238 36.6263L94.7427 35.121L95.1836 34.8627L95.1607 34.6242L95.6842 34.0827L96.579 33.3822L96.8231 32.7066L97.3744 32.17L97.3938 31.7726L97.793 31.4944L98.4124 30.5753L98.8146 30.2375L99 29.7308L100.711 28.5285L101.768 28.3745L104.203 28.5981L105.626 28.5087L107.646 29.07L108.471 30.0736L109.02 31.0672L109.522 31.41L109.561 31.6534L109.856 31.7627L109.878 32.1353L109.644 32.2843L110.126 32.3688L110.097 32.9053L110.411 33.4319L110.307 33.7002L110.548 33.7896L110.392 33.9684L110.76 34.5944L110.493 34.8974L110.689 35.0266L110.599 35.2154L110.8 35.6079L110.752 36.1494L110.529 36.3133L110.797 36.522L110.255 36.8946L110.47 37.1082L110.33 37.2374L110.378 37.4559L110.191 37.4112L110.303 37.7639L110.057 37.7391L110.378 37.7988L110.037 38.072L110.22 38.2508L109.717 39.4978L109.853 39.8853L109.463 40.6007L109.525 40.9832L109.182 41.2465L109.07 41.7234L109.131 42.0811L108.955 42.3395L109.085 42.6276L108.919 42.8263L108.927 43.4374L108.682 43.9639L108.828 44.108L108.362 44.9228L108.371 45.6034L108.151 45.7623L108.405 46.1548L107.98 46.4032L107.846 46.7758L107.876 47.3621L107.59 48.8127L107.669 49.1605L107.55 49.23L107.848 49.235L107.439 49.2201L107.665 49.235L107.735 49.4982" stroke="#292562" stroke-width="1.20544" stroke-linecap="round" stroke-linejoin="round"/>
<path d="M1.43555 25.1938L16.8462 73.8797" stroke="#292562" stroke-width="1.20544" stroke-linecap="round" stroke-linejoin="round"/>
<path d="M18.8281 73.025L55.6148 59.1147" stroke="#292562" stroke-width="1.20544" stroke-linecap="round" stroke-linejoin="round"/>
<path d="M37.7266 11.7808L55.6228 60.4667" stroke="#292562" stroke-width="1.20544" stroke-linecap="round" stroke-linejoin="round"/>
<path d="M1.43555 24.2003L38.2222 10.29" stroke="#292562" stroke-width="1.20544" stroke-linecap="round" stroke-linejoin="round"/>
<path d="M43.5234 2.49121L61.4196 51.1771" stroke="#292562" stroke-width="1.20544" stroke-linecap="round" stroke-linejoin="round"/>
<path d="M7.23047 14.9103L44.0171 1" stroke="#292562" stroke-width="1.20544" stroke-linecap="round" stroke-linejoin="round"/>
<path d="M7.89844 14.7617L10.384 20.2265" stroke="#292562" stroke-width="1.20544" stroke-linecap="round" stroke-linejoin="round"/>
<path d="M58.6049 50.0342L54.1309 52.5182" stroke="#292562" stroke-width="1.20544" stroke-linecap="round" stroke-linejoin="round"/>
<path d="M8.98047 33.4066L33.8363 23.4707" stroke="#292562" stroke-width="1.20544" stroke-linecap="round" stroke-linejoin="round"/>
<path d="M12.2852 39.1488L37.141 29.2129" stroke="#292562" stroke-width="1.20544" stroke-linecap="round" stroke-linejoin="round"/>
<path d="M13.7402 45.2147L38.5961 35.2788" stroke="#292562" stroke-width="1.20544" stroke-linecap="round" stroke-linejoin="round"/>
<path d="M16.332 51.4447L41.1879 41.5088" stroke="#292562" stroke-width="1.20544" stroke-linecap="round" stroke-linejoin="round"/>
<path d="M17.7871 57.5111L42.6429 47.5752" stroke="#292562" stroke-width="1.20544" stroke-linecap="round" stroke-linejoin="round"/>
</svg>
