<svg width="118" height="118" viewBox="0 0 118 118" fill="none" xmlns="http://www.w3.org/2000/svg">
<g filter="url(#filter0_d_960_112)">
<rect x="4" width="110" height="110" fill="#BFBDD0"/>
</g>
<path d="M18.4107 45.0455V37.5455H19.025V38.5859H19.0996C19.1754 38.4226 19.2795 38.2557 19.4121 38.0852C19.5447 37.9124 19.7199 37.7668 19.9377 37.6484C20.1578 37.5301 20.4348 37.4709 20.7686 37.4709C21.2185 37.4709 21.6114 37.5893 21.9476 37.826C22.2862 38.0604 22.5489 38.3894 22.736 38.8132C22.9254 39.2346 23.0201 39.7259 23.0201 40.2869C23.0201 40.8504 22.9254 41.344 22.736 41.7678C22.5489 42.1915 22.2862 42.5218 21.9476 42.7585C21.6114 42.9953 21.2208 43.1136 20.7757 43.1136C20.4467 43.1136 20.1709 43.0545 19.9483 42.9361C19.7282 42.8177 19.5494 42.6721 19.4121 42.4993C19.2772 42.3241 19.173 42.1536 19.0996 41.9879H19.0428V45.0455H18.4107ZM19.0357 40.2763C19.0357 40.7166 19.1008 41.1072 19.231 41.4482C19.3636 41.7867 19.553 42.053 19.7992 42.2472C20.0478 42.4389 20.3484 42.5348 20.7012 42.5348C21.0634 42.5348 21.3688 42.4354 21.6174 42.2365C21.8683 42.0353 22.0589 41.7642 22.1891 41.4233C22.3217 41.0824 22.388 40.7 22.388 40.2763C22.388 39.8572 22.3229 39.4796 22.1926 39.1435C22.0648 38.8073 21.8754 38.541 21.6245 38.3445C21.3735 38.1456 21.0658 38.0462 20.7012 38.0462C20.3461 38.0462 20.0442 38.142 19.7956 38.3338C19.5471 38.5232 19.3577 38.786 19.2275 39.1222C19.0996 39.456 19.0357 39.8407 19.0357 40.2763ZM26.612 43.1136C26.103 43.1136 25.6627 42.9953 25.291 42.7585C24.9193 42.5194 24.6317 42.1892 24.4281 41.7678C24.2269 41.344 24.1262 40.8563 24.1262 40.3047C24.1262 39.7554 24.2269 39.2678 24.4281 38.8416C24.6317 38.4131 24.9122 38.0781 25.2697 37.8366C25.6296 37.5928 26.045 37.4709 26.5162 37.4709C26.8121 37.4709 27.0974 37.5253 27.372 37.6342C27.6466 37.7408 27.8928 37.9053 28.1106 38.1278C28.3308 38.348 28.5048 38.6262 28.6326 38.9624C28.7605 39.2962 28.8244 39.6915 28.8244 40.1484V40.4609H24.563V39.9034H28.1781C28.1781 39.553 28.1071 39.2382 27.965 38.9588C27.8253 38.6771 27.63 38.4545 27.3791 38.2912C27.1305 38.1278 26.8429 38.0462 26.5162 38.0462C26.1705 38.0462 25.8663 38.1385 25.6035 38.3232C25.3407 38.5078 25.1348 38.7517 24.9856 39.0547C24.8388 39.3577 24.7643 39.6892 24.7619 40.049V40.3828C24.7619 40.8161 24.8365 41.1948 24.9856 41.5192C25.1371 41.8411 25.3514 42.0909 25.6284 42.2685C25.9054 42.446 26.2333 42.5348 26.612 42.5348C26.8701 42.5348 27.0962 42.4946 27.2903 42.4141C27.4868 42.3336 27.6513 42.2259 27.7839 42.0909C27.9189 41.9536 28.0207 41.8033 28.0893 41.6399L28.6895 41.8352C28.6066 42.0649 28.4705 42.2768 28.2811 42.4709C28.094 42.665 27.8597 42.8213 27.5779 42.9396C27.2986 43.0556 26.9766 43.1136 26.612 43.1136ZM32.3374 43.1136C31.8662 43.1136 31.4496 42.9941 31.0874 42.755C30.7275 42.5159 30.4458 42.1856 30.2422 41.7642C30.0386 41.3404 29.9368 40.8516 29.9368 40.2976C29.9368 39.7389 30.0386 39.2476 30.2422 38.8239C30.4458 38.3977 30.7275 38.0663 31.0874 37.8295C31.4496 37.5904 31.8662 37.4709 32.3374 37.4709C32.8085 37.4709 33.224 37.5904 33.5838 37.8295C33.9437 38.0687 34.2254 38.4001 34.429 38.8239C34.6349 39.2476 34.7379 39.7389 34.7379 40.2976C34.7379 40.8516 34.6361 41.3404 34.4325 41.7642C34.2289 42.1856 33.946 42.5159 33.5838 42.755C33.224 42.9941 32.8085 43.1136 32.3374 43.1136ZM32.3374 42.5348C32.7161 42.5348 33.0369 42.433 33.2997 42.2294C33.5625 42.0258 33.7614 41.7547 33.8963 41.4162C34.0336 41.0777 34.1023 40.7048 34.1023 40.2976C34.1023 39.8904 34.0336 39.5163 33.8963 39.1754C33.7614 38.8345 33.5625 38.5611 33.2997 38.3551C33.0369 38.1491 32.7161 38.0462 32.3374 38.0462C31.9609 38.0462 31.6402 38.1491 31.375 38.3551C31.1122 38.5611 30.9122 38.8345 30.7749 39.1754C30.6399 39.5163 30.5724 39.8904 30.5724 40.2976C30.5724 40.7048 30.6399 41.0777 30.7749 41.4162C30.9122 41.7547 31.1122 42.0258 31.375 42.2294C31.6378 42.433 31.9586 42.5348 32.3374 42.5348ZM36.1255 45.0455V37.5455H36.7399V38.5859H36.8145C36.8902 38.4226 36.9944 38.2557 37.127 38.0852C37.2595 37.9124 37.4347 37.7668 37.6525 37.6484C37.8727 37.5301 38.1497 37.4709 38.4835 37.4709C38.9333 37.4709 39.3263 37.5893 39.6625 37.826C40.001 38.0604 40.2638 38.3894 40.4508 38.8132C40.6402 39.2346 40.7349 39.7259 40.7349 40.2869C40.7349 40.8504 40.6402 41.344 40.4508 41.7678C40.2638 42.1915 40.001 42.5218 39.6625 42.7585C39.3263 42.9953 38.9357 43.1136 38.4906 43.1136C38.1615 43.1136 37.8857 43.0545 37.6632 42.9361C37.443 42.8177 37.2643 42.6721 37.127 42.4993C36.992 42.3241 36.8878 42.1536 36.8145 41.9879H36.7576V45.0455H36.1255ZM36.7505 40.2763C36.7505 40.7166 36.8156 41.1072 36.9458 41.4482C37.0784 41.7867 37.2678 42.053 37.514 42.2472C37.7626 42.4389 38.0633 42.5348 38.416 42.5348C38.7782 42.5348 39.0836 42.4354 39.3322 42.2365C39.5832 42.0353 39.7737 41.7642 39.9039 41.4233C40.0365 41.0824 40.1028 40.7 40.1028 40.2763C40.1028 39.8572 40.0377 39.4796 39.9075 39.1435C39.7797 38.8073 39.5903 38.541 39.3393 38.3445C39.0884 38.1456 38.7806 38.0462 38.416 38.0462C38.0609 38.0462 37.7591 38.142 37.5105 38.3338C37.2619 38.5232 37.0725 38.786 36.9423 39.1222C36.8145 39.456 36.7505 39.8407 36.7505 40.2763ZM42.7537 35.7273V43H42.1216V35.7273H42.7537ZM46.6316 43.1136C46.1226 43.1136 45.6822 42.9953 45.3105 42.7585C44.9389 42.5194 44.6512 42.1892 44.4476 41.7678C44.2464 41.344 44.1458 40.8563 44.1458 40.3047C44.1458 39.7554 44.2464 39.2678 44.4476 38.8416C44.6512 38.4131 44.9318 38.0781 45.2892 37.8366C45.6491 37.5928 46.0646 37.4709 46.5357 37.4709C46.8316 37.4709 47.1169 37.5253 47.3915 37.6342C47.6661 37.7408 47.9123 37.9053 48.1301 38.1278C48.3503 38.348 48.5243 38.6262 48.6522 38.9624C48.78 39.2962 48.8439 39.6915 48.8439 40.1484V40.4609H44.5826V39.9034H48.1976C48.1976 39.553 48.1266 39.2382 47.9846 38.9588C47.8449 38.6771 47.6496 38.4545 47.3986 38.2912C47.15 38.1278 46.8624 38.0462 46.5357 38.0462C46.19 38.0462 45.8858 38.1385 45.623 38.3232C45.3603 38.5078 45.1543 38.7517 45.0051 39.0547C44.8584 39.3577 44.7838 39.6892 44.7814 40.049V40.3828C44.7814 40.8161 44.856 41.1948 45.0051 41.5192C45.1567 41.8411 45.3709 42.0909 45.6479 42.2685C45.9249 42.446 46.2528 42.5348 46.6316 42.5348C46.8896 42.5348 47.1157 42.4946 47.3098 42.4141C47.5063 42.3336 47.6709 42.2259 47.8034 42.0909C47.9384 41.9536 48.0402 41.8033 48.1088 41.6399L48.709 41.8352C48.6261 42.0649 48.49 42.2768 48.3006 42.4709C48.1136 42.665 47.8792 42.8213 47.5975 42.9396C47.3181 43.0556 46.9962 43.1136 46.6316 43.1136ZM54.2603 43L52.6126 37.5455H53.2802L54.5728 42.0447H54.619L55.908 37.5455H56.5792L57.8576 42.0341H57.9073L59.1999 37.5455H59.8675L58.2198 43H57.5664L56.2738 38.5291H56.2063L54.9137 43H54.2603ZM61.7283 39.5909V43H61.0962V35.7273H61.7283V38.4013H61.7852C61.913 38.1196 62.1107 37.8946 62.3782 37.7266C62.6481 37.5585 62.989 37.4744 63.4009 37.4744C63.7702 37.4744 64.0946 37.5502 64.3739 37.7017C64.6533 37.8532 64.8711 38.0769 65.0273 38.3729C65.1836 38.6688 65.2617 39.0334 65.2617 39.4666V43H64.6261V39.5057C64.6261 39.0559 64.5006 38.7019 64.2496 38.4439C64.0011 38.1835 63.6649 38.0533 63.2411 38.0533C62.9499 38.0533 62.6907 38.1148 62.4634 38.2379C62.2362 38.361 62.0562 38.5386 61.9237 38.7706C61.7934 39.0002 61.7283 39.2737 61.7283 39.5909ZM69.0463 43.1136C68.5752 43.1136 68.1586 42.9941 67.7963 42.755C67.4365 42.5159 67.1548 42.1856 66.9512 41.7642C66.7476 41.3404 66.6458 40.8516 66.6458 40.2976C66.6458 39.7389 66.7476 39.2476 66.9512 38.8239C67.1548 38.3977 67.4365 38.0663 67.7963 37.8295C68.1586 37.5904 68.5752 37.4709 69.0463 37.4709C69.5175 37.4709 69.9329 37.5904 70.2928 37.8295C70.6526 38.0687 70.9344 38.4001 71.138 38.8239C71.3439 39.2476 71.4469 39.7389 71.4469 40.2976C71.4469 40.8516 71.3451 41.3404 71.1415 41.7642C70.9379 42.1856 70.655 42.5159 70.2928 42.755C69.9329 42.9941 69.5175 43.1136 69.0463 43.1136ZM69.0463 42.5348C69.4251 42.5348 69.7459 42.433 70.0087 42.2294C70.2715 42.0258 70.4703 41.7547 70.6053 41.4162C70.7426 41.0777 70.8113 40.7048 70.8113 40.2976C70.8113 39.8904 70.7426 39.5163 70.6053 39.1754C70.4703 38.8345 70.2715 38.5611 70.0087 38.3551C69.7459 38.1491 69.4251 38.0462 69.0463 38.0462C68.6699 38.0462 68.3491 38.1491 68.084 38.3551C67.8212 38.5611 67.6212 38.8345 67.4838 39.1754C67.3489 39.5163 67.2814 39.8904 67.2814 40.2976C67.2814 40.7048 67.3489 41.0777 67.4838 41.4162C67.6212 41.7547 67.8212 42.0258 68.084 42.2294C68.3468 42.433 68.6676 42.5348 69.0463 42.5348ZM76.2791 35.7273V43H75.647V35.7273H76.2791ZM77.9588 43V37.5455H78.5945V43H77.9588ZM78.282 36.608C78.1518 36.608 78.0405 36.5642 77.9482 36.4766C77.8558 36.3866 77.8097 36.2789 77.8097 36.1534C77.8097 36.0279 77.8558 35.9214 77.9482 35.8338C78.0405 35.7438 78.1518 35.6989 78.282 35.6989C78.4122 35.6989 78.5234 35.7438 78.6158 35.8338C78.7081 35.9214 78.7543 36.0279 78.7543 36.1534C78.7543 36.2789 78.7081 36.3866 78.6158 36.4766C78.5234 36.5642 78.4122 36.608 78.282 36.608ZM84.4885 37.5455L82.4963 43H81.8216L79.8294 37.5455H80.5147L82.1341 42.1655H82.1838L83.8031 37.5455H84.4885ZM87.7351 43.1136C87.2261 43.1136 86.7857 42.9953 86.4141 42.7585C86.0424 42.5194 85.7547 42.1892 85.5511 41.7678C85.3499 41.344 85.2493 40.8563 85.2493 40.3047C85.2493 39.7554 85.3499 39.2678 85.5511 38.8416C85.7547 38.4131 86.0353 38.0781 86.3928 37.8366C86.7526 37.5928 87.1681 37.4709 87.6392 37.4709C87.9351 37.4709 88.2204 37.5253 88.495 37.6342C88.7696 37.7408 89.0159 37.9053 89.2337 38.1278C89.4538 38.348 89.6278 38.6262 89.7557 38.9624C89.8835 39.2962 89.9474 39.6915 89.9474 40.1484V40.4609H85.6861V39.9034H89.3011C89.3011 39.553 89.2301 39.2382 89.0881 38.9588C88.9484 38.6771 88.7531 38.4545 88.5021 38.2912C88.2536 38.1278 87.9659 38.0462 87.6392 38.0462C87.2936 38.0462 86.9893 38.1385 86.7266 38.3232C86.4638 38.5078 86.2578 38.7517 86.1087 39.0547C85.9619 39.3577 85.8873 39.6892 85.8849 40.049V40.3828C85.8849 40.8161 85.9595 41.1948 86.1087 41.5192C86.2602 41.8411 86.4744 42.0909 86.7514 42.2685C87.0284 42.446 87.3563 42.5348 87.7351 42.5348C87.9931 42.5348 88.2192 42.4946 88.4134 42.4141C88.6098 42.3336 88.7744 42.2259 88.907 42.0909C89.0419 41.9536 89.1437 41.8033 89.2124 41.6399L89.8125 41.8352C89.7296 42.0649 89.5935 42.2768 89.4041 42.4709C89.2171 42.665 88.9827 42.8213 88.701 42.9396C88.4216 43.0556 88.0997 43.1136 87.7351 43.1136ZM94.16 43V37.5455H94.7956V43H94.16ZM94.4831 36.608C94.3529 36.608 94.2417 36.5642 94.1493 36.4766C94.057 36.3866 94.0108 36.2789 94.0108 36.1534C94.0108 36.0279 94.057 35.9214 94.1493 35.8338C94.2417 35.7438 94.3529 35.6989 94.4831 35.6989C94.6133 35.6989 94.7246 35.7438 94.8169 35.8338C94.9093 35.9214 94.9554 36.0279 94.9554 36.1534C94.9554 36.2789 94.9093 36.3866 94.8169 36.4766C94.7246 36.5642 94.6133 36.608 94.4831 36.608ZM97.0994 39.5909V43H96.4673V37.5455H97.0817V38.4013H97.1385C97.2663 38.1219 97.4652 37.8982 97.7351 37.7301C98.0073 37.5597 98.3435 37.4744 98.7436 37.4744C99.1106 37.4744 99.4325 37.5514 99.7095 37.7053C99.9889 37.8568 100.205 38.0805 100.359 38.3764C100.516 38.6723 100.594 39.0357 100.594 39.4666V43H99.9616V39.5057C99.9616 39.0582 99.8362 38.7043 99.5852 38.4439C99.3366 38.1835 99.0028 38.0533 98.5838 38.0533C98.2973 38.0533 98.0429 38.1148 97.8203 38.2379C97.5978 38.361 97.4214 38.5386 97.2912 38.7706C97.1634 39.0002 97.0994 39.2737 97.0994 39.5909ZM24.3531 57.0455V49.5455H24.9674V50.5859H25.042C25.1177 50.4226 25.2219 50.2557 25.3545 50.0852C25.4871 49.9124 25.6623 49.7668 25.8801 49.6484C26.1002 49.5301 26.3772 49.4709 26.711 49.4709C27.1608 49.4709 27.5538 49.5893 27.89 49.826C28.2285 50.0604 28.4913 50.3894 28.6784 50.8132C28.8678 51.2346 28.9624 51.7259 28.9624 52.2869C28.9624 52.8504 28.8678 53.344 28.6784 53.7678C28.4913 54.1915 28.2285 54.5218 27.89 54.7585C27.5538 54.9953 27.1632 55.1136 26.7181 55.1136C26.3891 55.1136 26.1133 55.0545 25.8907 54.9361C25.6705 54.8177 25.4918 54.6721 25.3545 54.4993C25.2195 54.3241 25.1154 54.1536 25.042 53.9879H24.9852V57.0455H24.3531ZM24.9781 52.2763C24.9781 52.7166 25.0432 53.1072 25.1734 53.4482C25.306 53.7867 25.4954 54.053 25.7416 54.2472C25.9901 54.4389 26.2908 54.5348 26.6436 54.5348C27.0058 54.5348 27.3112 54.4354 27.5597 54.2365C27.8107 54.0353 28.0013 53.7642 28.1315 53.4233C28.2641 53.0824 28.3303 52.7 28.3303 52.2763C28.3303 51.8572 28.2652 51.4796 28.135 51.1435C28.0072 50.8073 27.8178 50.541 27.5669 50.3445C27.3159 50.1456 27.0081 50.0462 26.6436 50.0462C26.2884 50.0462 25.9866 50.142 25.738 50.3338C25.4894 50.5232 25.3 50.786 25.1698 51.1222C25.042 51.456 24.9781 51.8407 24.9781 52.2763ZM30.9813 47.7273V55H30.3492V47.7273H30.9813ZM34.1773 55.1243C33.8482 55.1243 33.5476 55.0604 33.2753 54.9325C33.003 54.8023 32.7864 54.6153 32.6254 54.3714C32.4645 54.1252 32.384 53.8269 32.384 53.4766C32.384 53.2067 32.4349 52.9794 32.5367 52.7947C32.6385 52.6101 32.7829 52.4586 32.9699 52.3402C33.1569 52.2218 33.3783 52.1283 33.634 52.0597C33.8896 51.991 34.1714 51.9377 34.4791 51.8999C34.7845 51.862 35.0426 51.8288 35.2533 51.8004C35.4664 51.772 35.6285 51.727 35.7398 51.6655C35.8511 51.6039 35.9067 51.5045 35.9067 51.3672V51.2393C35.9067 50.8677 35.7954 50.5753 35.5729 50.3622C35.3527 50.1468 35.0355 50.0391 34.6212 50.0391C34.2282 50.0391 33.9074 50.1255 33.6588 50.2983C33.4126 50.4711 33.2398 50.6747 33.1404 50.9091L32.5402 50.6925C32.6633 50.3942 32.8338 50.1562 33.0516 49.9787C33.2694 49.7988 33.5132 49.6697 33.7831 49.5916C34.053 49.5111 34.3264 49.4709 34.6034 49.4709C34.8118 49.4709 35.0284 49.4981 35.2533 49.5526C35.4806 49.607 35.6913 49.7017 35.8854 49.8366C36.0795 49.9692 36.2369 50.1551 36.3577 50.3942C36.4784 50.6309 36.5388 50.9316 36.5388 51.2962V55H35.9067V54.1371H35.8676C35.7919 54.2981 35.6794 54.4543 35.5303 54.6058C35.3811 54.7573 35.1941 54.8816 34.9692 54.9787C34.7443 55.0758 34.4803 55.1243 34.1773 55.1243ZM34.2625 54.5455C34.5987 54.5455 34.8899 54.4709 35.1361 54.3217C35.3823 54.1726 35.5717 53.9749 35.7043 53.7287C35.8392 53.4801 35.9067 53.2067 35.9067 52.9084V52.12C35.8593 52.165 35.78 52.2053 35.6688 52.2408C35.5599 52.2763 35.4332 52.3082 35.2888 52.3366C35.1468 52.3627 35.0047 52.3852 34.8627 52.4041C34.7206 52.4231 34.5928 52.4396 34.4791 52.4538C34.1714 52.4917 33.9086 52.5509 33.6908 52.6314C33.473 52.7119 33.3061 52.8232 33.1901 52.9652C33.0741 53.1049 33.0161 53.2848 33.0161 53.505C33.0161 53.8364 33.1344 54.0933 33.3712 54.2756C33.6079 54.4555 33.905 54.5455 34.2625 54.5455ZM40.3509 55.1136C39.8633 55.1136 39.4383 54.9917 39.0761 54.7479C38.7162 54.504 38.4369 54.1702 38.238 53.7464C38.0392 53.3227 37.9397 52.8397 37.9397 52.2976C37.9397 51.7507 38.0403 51.2642 38.2416 50.8381C38.4452 50.4119 38.7269 50.0781 39.0867 49.8366C39.4466 49.5928 39.8644 49.4709 40.3403 49.4709C40.7049 49.4709 41.0351 49.5419 41.3311 49.6839C41.627 49.8236 41.8708 50.0213 42.0626 50.277C42.2567 50.5303 42.3786 50.8262 42.4284 51.1648H41.7892C41.7229 50.857 41.5631 50.5942 41.3097 50.3764C41.0588 50.1562 40.7392 50.0462 40.3509 50.0462C40.0029 50.0462 39.6952 50.1409 39.4276 50.3303C39.1601 50.5173 38.9506 50.7789 38.7991 51.1151C38.6499 51.4489 38.5754 51.8359 38.5754 52.2763C38.5754 52.719 38.6488 53.1108 38.7955 53.4517C38.9423 53.7902 39.1483 54.0554 39.4134 54.2472C39.681 54.4389 39.9935 54.5348 40.3509 54.5348C40.5924 54.5348 40.8126 54.4898 41.0115 54.3999C41.2127 54.3075 41.3808 54.1773 41.5157 54.0092C41.653 53.8411 41.7454 53.6411 41.7927 53.4091H42.4319C42.3846 53.7382 42.2674 54.0317 42.0803 54.2898C41.8957 54.5455 41.6554 54.7467 41.3595 54.8935C41.0659 55.0402 40.7297 55.1136 40.3509 55.1136ZM45.9919 55.1136C45.4829 55.1136 45.0426 54.9953 44.6709 54.7585C44.2992 54.5194 44.0116 54.1892 43.808 53.7678C43.6067 53.344 43.5061 52.8563 43.5061 52.3047C43.5061 51.7554 43.6067 51.2678 43.808 50.8416C44.0116 50.4131 44.2921 50.0781 44.6496 49.8366C45.0094 49.5928 45.4249 49.4709 45.896 49.4709C46.192 49.4709 46.4772 49.5253 46.7519 49.6342C47.0265 49.7408 47.2727 49.9053 47.4905 50.1278C47.7107 50.348 47.8847 50.6262 48.0125 50.9624C48.1404 51.2962 48.2043 51.6915 48.2043 52.1484V52.4609H43.9429V51.9034H47.558C47.558 51.553 47.4869 51.2382 47.3449 50.9588C47.2052 50.6771 47.0099 50.4545 46.759 50.2912C46.5104 50.1278 46.2227 50.0462 45.896 50.0462C45.5504 50.0462 45.2462 50.1385 44.9834 50.3232C44.7206 50.5078 44.5146 50.7517 44.3655 51.0547C44.2187 51.3577 44.1441 51.6892 44.1418 52.049V52.3828C44.1418 52.8161 44.2164 53.1948 44.3655 53.5192C44.517 53.8411 44.7313 54.0909 45.0083 54.2685C45.2852 54.446 45.6131 54.5348 45.9919 54.5348C46.25 54.5348 46.4761 54.4946 46.6702 54.4141C46.8667 54.3336 47.0312 54.2259 47.1638 54.0909C47.2987 53.9536 47.4005 53.8033 47.4692 53.6399L48.0693 53.8352C47.9865 54.0649 47.8503 54.2768 47.661 54.4709C47.4739 54.665 47.2396 54.8213 46.9578 54.9396C46.6785 55.0556 46.3565 55.1136 45.9919 55.1136ZM53.262 50.7422L52.6831 50.9055C52.6263 50.7422 52.5458 50.5942 52.4417 50.4616C52.3375 50.3291 52.2014 50.2237 52.0333 50.1456C51.8676 50.0675 51.6616 50.0284 51.4154 50.0284C51.0461 50.0284 50.743 50.116 50.5063 50.2912C50.2696 50.4664 50.1512 50.6925 50.1512 50.9695C50.1512 51.2038 50.2317 51.3944 50.3927 51.5412C50.556 51.6856 50.807 51.8004 51.1455 51.8857L51.9694 52.0881C52.4263 52.1993 52.7684 52.3757 52.9956 52.6172C53.2253 52.8587 53.3401 53.1617 53.3401 53.5263C53.3401 53.834 53.2549 54.1075 53.0844 54.3466C52.914 54.5857 52.676 54.7739 52.3706 54.9112C52.0676 55.0462 51.7161 55.1136 51.316 55.1136C50.7833 55.1136 50.3441 54.9941 49.9985 54.755C49.6528 54.5135 49.4315 54.1655 49.3344 53.7109L49.9417 53.5618C50.0198 53.8861 50.1725 54.1312 50.3998 54.2969C50.6294 54.4626 50.9313 54.5455 51.3053 54.5455C51.7243 54.5455 52.0593 54.4519 52.3103 54.2649C52.5612 54.0755 52.6867 53.8388 52.6867 53.5547C52.6867 53.3345 52.6133 53.1499 52.4665 53.0007C52.3198 52.8492 52.0972 52.7379 51.7989 52.6669L50.9076 52.4538C50.4341 52.3402 50.0837 52.1603 49.8564 51.9141C49.6292 51.6679 49.5155 51.3625 49.5155 50.9979C49.5155 50.6972 49.5972 50.4332 49.7606 50.206C49.9239 49.9763 50.1488 49.7964 50.4353 49.6662C50.7217 49.536 51.0484 49.4709 51.4154 49.4709C51.9149 49.4709 52.3138 49.5845 52.6121 49.8118C52.9128 50.0367 53.1294 50.3468 53.262 50.7422ZM58.7476 55L57.0999 49.5455H57.7675L59.0601 54.0447H59.1063L60.3953 49.5455H61.0665L62.3449 54.0341H62.3946L63.6872 49.5455H64.3548L62.7071 55H62.0537L60.7611 50.5291H60.6936L59.401 55H58.7476ZM65.5906 55V49.5455H66.2263V55H65.5906ZM65.9138 48.608C65.7836 48.608 65.6723 48.5642 65.58 48.4766C65.4877 48.3866 65.4415 48.2789 65.4415 48.1534C65.4415 48.0279 65.4877 47.9214 65.58 47.8338C65.6723 47.7438 65.7836 47.6989 65.9138 47.6989C66.044 47.6989 66.1553 47.7438 66.2476 47.8338C66.3399 47.9214 66.3861 48.0279 66.3861 48.1534C66.3861 48.2789 66.3399 48.3866 66.2476 48.4766C66.1553 48.5642 66.044 48.608 65.9138 48.608ZM70.0464 49.5455V50.0959H67.4434V49.5455H70.0464ZM68.2567 48.2386H68.8923V53.576C68.8923 53.8033 68.9314 53.982 69.0095 54.1122C69.0876 54.2401 69.1894 54.3312 69.3149 54.3857C69.4404 54.4377 69.5741 54.4638 69.7162 54.4638C69.799 54.4638 69.8701 54.459 69.9292 54.4496C69.9884 54.4377 70.0405 54.4259 70.0855 54.4141L70.2204 54.9858C70.1589 55.0095 70.0831 55.0308 69.9932 55.0497C69.9032 55.071 69.7919 55.0817 69.6594 55.0817C69.4273 55.0817 69.2036 55.0308 68.9882 54.929C68.7751 54.8272 68.5999 54.6757 68.4626 54.4744C68.3253 54.2732 68.2567 54.0234 68.2567 53.7251V48.2386ZM72.2313 51.5909V55H71.5992V47.7273H72.2313V50.4013H72.2881C72.4159 50.1196 72.6136 49.8946 72.8811 49.7266C73.151 49.5585 73.4919 49.4744 73.9039 49.4744C74.2732 49.4744 74.5975 49.5502 74.8769 49.7017C75.1562 49.8532 75.374 50.0769 75.5303 50.3729C75.6865 50.6688 75.7646 51.0334 75.7646 51.4666V55H75.129V51.5057C75.129 51.0559 75.0035 50.7019 74.7526 50.4439C74.504 50.1835 74.1678 50.0533 73.7441 50.0533C73.4529 50.0533 73.1936 50.1148 72.9664 50.2379C72.7391 50.361 72.5592 50.5386 72.4266 50.7706C72.2964 51.0002 72.2313 51.2737 72.2313 51.5909ZM80.8738 47.7273V55H80.2417V47.7273H80.8738ZM84.6665 55.1136C84.1953 55.1136 83.7787 54.9941 83.4165 54.755C83.0566 54.5159 82.7749 54.1856 82.5713 53.7642C82.3677 53.3404 82.2659 52.8516 82.2659 52.2976C82.2659 51.7389 82.3677 51.2476 82.5713 50.8239C82.7749 50.3977 83.0566 50.0663 83.4165 49.8295C83.7787 49.5904 84.1953 49.4709 84.6665 49.4709C85.1376 49.4709 85.5531 49.5904 85.9129 49.8295C86.2728 50.0687 86.5545 50.4001 86.7581 50.8239C86.964 51.2476 87.067 51.7389 87.067 52.2976C87.067 52.8516 86.9652 53.3404 86.7616 53.7642C86.558 54.1856 86.2751 54.5159 85.9129 54.755C85.5531 54.9941 85.1376 55.1136 84.6665 55.1136ZM84.6665 54.5348C85.0452 54.5348 85.366 54.433 85.6288 54.2294C85.8916 54.0258 86.0905 53.7547 86.2254 53.4162C86.3627 53.0777 86.4314 52.7048 86.4314 52.2976C86.4314 51.8904 86.3627 51.5163 86.2254 51.1754C86.0905 50.8345 85.8916 50.5611 85.6288 50.3551C85.366 50.1491 85.0452 50.0462 84.6665 50.0462C84.29 50.0462 83.9693 50.1491 83.7041 50.3551C83.4413 50.5611 83.2413 50.8345 83.104 51.1754C82.969 51.5163 82.9015 51.8904 82.9015 52.2976C82.9015 52.7048 82.969 53.0777 83.104 53.4162C83.2413 53.7547 83.4413 54.0258 83.7041 54.2294C83.9669 54.433 84.2877 54.5348 84.6665 54.5348ZM89.48 55L87.8323 49.5455H88.4999L89.7925 54.0447H89.8387L91.1278 49.5455H91.7989L93.0773 54.0341H93.127L94.4197 49.5455H95.0873L93.4395 55H92.7861L91.4935 50.5291H91.426L90.1334 55H89.48ZM51.4194 67.1136C50.9483 67.1136 50.5316 66.9941 50.1694 66.755C49.8095 66.5159 49.5278 66.1856 49.3242 65.7642C49.1206 65.3404 49.0188 64.8516 49.0188 64.2976C49.0188 63.7389 49.1206 63.2476 49.3242 62.8239C49.5278 62.3977 49.8095 62.0663 50.1694 61.8295C50.5316 61.5904 50.9483 61.4709 51.4194 61.4709C51.8905 61.4709 52.306 61.5904 52.6658 61.8295C53.0257 62.0687 53.3074 62.4001 53.511 62.8239C53.717 63.2476 53.82 63.7389 53.82 64.2976C53.82 64.8516 53.7182 65.3404 53.5146 65.7642C53.311 66.1856 53.0281 66.5159 52.6658 66.755C52.306 66.9941 51.8905 67.1136 51.4194 67.1136ZM51.4194 66.5348C51.7982 66.5348 52.119 66.433 52.3817 66.2294C52.6445 66.0258 52.8434 65.7547 52.9783 65.4162C53.1156 65.0777 53.1843 64.7048 53.1843 64.2976C53.1843 63.8904 53.1156 63.5163 52.9783 63.1754C52.8434 62.8345 52.6445 62.5611 52.3817 62.3551C52.119 62.1491 51.7982 62.0462 51.4194 62.0462C51.043 62.0462 50.7222 62.1491 50.457 62.3551C50.1942 62.5611 49.9942 62.8345 49.8569 63.1754C49.7219 63.5163 49.6545 63.8904 49.6545 64.2976C49.6545 64.7048 49.7219 65.0777 49.8569 65.4162C49.9942 65.7547 50.1942 66.0258 50.457 66.2294C50.7198 66.433 51.0406 66.5348 51.4194 66.5348ZM57.4519 61.5455V62.0959H54.7708V61.5455H57.4519ZM55.6088 67V60.7464C55.6088 60.4529 55.6763 60.2055 55.8113 60.0043C55.9486 59.803 56.1273 59.6503 56.3475 59.5462C56.5676 59.442 56.8008 59.3899 57.0471 59.3899C57.2128 59.3899 57.3501 59.4041 57.459 59.4325C57.5703 59.4586 57.6578 59.4846 57.7218 59.5107L57.5371 60.0646C57.4898 60.0504 57.4318 60.0339 57.3631 60.0149C57.2944 59.996 57.208 59.9865 57.1039 59.9865C56.8292 59.9865 56.6174 60.0634 56.4682 60.2173C56.3191 60.3712 56.2445 60.5914 56.2445 60.8778L56.2409 67H55.6088ZM60.9577 61.5455V62.0959H58.2766V61.5455H60.9577ZM59.1147 67V60.7464C59.1147 60.4529 59.1822 60.2055 59.3171 60.0043C59.4544 59.803 59.6332 59.6503 59.8533 59.5462C60.0735 59.442 60.3067 59.3899 60.5529 59.3899C60.7186 59.3899 60.8559 59.4041 60.9648 59.4325C61.0761 59.4586 61.1637 59.4846 61.2276 59.5107L61.043 60.0646C60.9956 60.0504 60.9376 60.0339 60.869 60.0149C60.8003 59.996 60.7139 59.9865 60.6097 59.9865C60.3351 59.9865 60.1232 60.0634 59.9741 60.2173C59.8249 60.3712 59.7504 60.5914 59.7504 60.8778L59.7468 67H59.1147ZM64.1999 67.1136C63.6909 67.1136 63.2506 66.9953 62.8789 66.7585C62.5072 66.5194 62.2196 66.1892 62.016 65.7678C61.8147 65.344 61.7141 64.8563 61.7141 64.3047C61.7141 63.7554 61.8147 63.2678 62.016 62.8416C62.2196 62.4131 62.5001 62.0781 62.8576 61.8366C63.2174 61.5928 63.6329 61.4709 64.104 61.4709C64.4 61.4709 64.6853 61.5253 64.9599 61.6342C65.2345 61.7408 65.4807 61.9053 65.6985 62.1278C65.9187 62.348 66.0927 62.6262 66.2205 62.9624C66.3484 63.2962 66.4123 63.6915 66.4123 64.1484V64.4609H62.1509V63.9034H65.766C65.766 63.553 65.695 63.2382 65.5529 62.9588C65.4132 62.6771 65.2179 62.4545 64.967 62.2912C64.7184 62.1278 64.4308 62.0462 64.104 62.0462C63.7584 62.0462 63.4542 62.1385 63.1914 62.3232C62.9286 62.5078 62.7227 62.7517 62.5735 63.0547C62.4267 63.3577 62.3522 63.6892 62.3498 64.049V64.3828C62.3498 64.8161 62.4244 65.1948 62.5735 65.5192C62.725 65.8411 62.9393 66.0909 63.2163 66.2685C63.4933 66.446 63.8211 66.5348 64.1999 66.5348C64.458 66.5348 64.6841 66.4946 64.8782 66.4141C65.0747 66.3336 65.2392 66.2259 65.3718 66.0909C65.5067 65.9536 65.6085 65.8033 65.6772 65.6399L66.2773 65.8352C66.1945 66.0649 66.0584 66.2768 65.869 66.4709C65.6819 66.665 65.4476 66.8213 65.1658 66.9396C64.8865 67.0556 64.5645 67.1136 64.1999 67.1136ZM67.8052 67V61.5455H68.4196V62.3835H68.4657C68.5746 62.1089 68.764 61.8875 69.0339 61.7195C69.3062 61.549 69.6139 61.4638 69.9572 61.4638C70.0093 61.4638 70.0673 61.465 70.1312 61.4673C70.1951 61.4697 70.2484 61.4721 70.291 61.4744V62.1172C70.2626 62.1125 70.2129 62.1054 70.1419 62.0959C70.0708 62.0864 69.9939 62.0817 69.911 62.0817C69.627 62.0817 69.3736 62.142 69.1511 62.2628C68.9309 62.3812 68.7569 62.5457 68.6291 62.7564C68.5012 62.9671 68.4373 63.2074 68.4373 63.4773V67H67.8052Z" fill="#222222"/>
<defs>
<filter id="filter0_d_960_112" x="0" y="0" width="118" height="118" filterUnits="userSpaceOnUse" color-interpolation-filters="sRGB">
<feFlood flood-opacity="0" result="BackgroundImageFix"/>
<feColorMatrix in="SourceAlpha" type="matrix" values="0 0 0 0 0 0 0 0 0 0 0 0 0 0 0 0 0 0 127 0" result="hardAlpha"/>
<feOffset dy="4"/>
<feGaussianBlur stdDeviation="2"/>
<feComposite in2="hardAlpha" operator="out"/>
<feColorMatrix type="matrix" values="0 0 0 0 0 0 0 0 0 0 0 0 0 0 0 0 0 0 0.25 0"/>
<feBlend mode="normal" in2="BackgroundImageFix" result="effect1_dropShadow_960_112"/>
<feBlend mode="normal" in="SourceGraphic" in2="effect1_dropShadow_960_112" result="shape"/>
</filter>
</defs>
</svg>
