<svg width="118" height="118" viewBox="0 0 118 118" fill="none" xmlns="http://www.w3.org/2000/svg">
<g filter="url(#filter0_d_960_113)">
<rect x="4" width="110" height="110" fill="#F8E8B2"/>
</g>
<path d="M24.9838 53.1591C24.6122 53.1591 24.2866 53.1106 24.0073 53.0135C23.7279 52.9188 23.4924 52.7886 23.3006 52.6229C23.1088 52.4571 22.9597 52.2713 22.8532 52.0653L23.3716 51.7244C23.4498 51.8617 23.5539 51.9967 23.6841 52.1293C23.8167 52.2618 23.9883 52.3719 24.199 52.4595C24.4121 52.5471 24.6737 52.5909 24.9838 52.5909C25.4668 52.5909 25.8562 52.4702 26.1522 52.2287C26.4505 51.9872 26.5996 51.612 26.5996 51.103V49.8743H26.5428C26.4694 50.04 26.3641 50.2057 26.2267 50.3714C26.0894 50.5348 25.9095 50.6709 25.687 50.7798C25.4668 50.8887 25.1934 50.9432 24.8667 50.9432C24.431 50.9432 24.044 50.8355 23.7054 50.62C23.3693 50.4046 23.1041 50.0968 22.91 49.6967C22.7182 49.2943 22.6223 48.8149 22.6223 48.2585C22.6223 47.7069 22.7158 47.2216 22.9029 46.8026C23.0923 46.3835 23.3562 46.0568 23.6948 45.8224C24.0333 45.5881 24.4275 45.4709 24.8773 45.4709C25.2111 45.4709 25.4881 45.5301 25.7083 45.6484C25.9284 45.7644 26.1048 45.9089 26.2374 46.0817C26.3723 46.2545 26.4777 46.4226 26.5534 46.5859H26.6174V45.5455H27.2353V51.142C27.2353 51.6037 27.137 51.9837 26.9405 52.282C26.744 52.5803 26.4765 52.8004 26.138 52.9425C25.7994 53.0869 25.4147 53.1591 24.9838 53.1591ZM24.9412 50.3643C25.2916 50.3643 25.5911 50.2803 25.8397 50.1122C26.0882 49.9418 26.2788 49.6979 26.4114 49.3807C26.544 49.0634 26.6103 48.6858 26.6103 48.2479C26.6103 47.8217 26.5452 47.4441 26.415 47.1151C26.2847 46.7836 26.0953 46.5232 25.8468 46.3338C25.6006 46.142 25.2987 46.0462 24.9412 46.0462C24.5766 46.0462 24.2689 46.1444 24.0179 46.3409C23.767 46.5374 23.5776 46.8026 23.4498 47.1364C23.3219 47.4678 23.258 47.8383 23.258 48.2479C23.258 48.6645 23.3231 49.0327 23.4533 49.3523C23.5835 49.6695 23.7741 49.9181 24.025 50.098C24.276 50.2756 24.5814 50.3643 24.9412 50.3643ZM28.9087 51V45.5455H29.5231V46.3835H29.5692C29.6781 46.1089 29.8675 45.8875 30.1374 45.7195C30.4097 45.549 30.7174 45.4638 31.0607 45.4638C31.1128 45.4638 31.1708 45.465 31.2347 45.4673C31.2987 45.4697 31.3519 45.4721 31.3945 45.4744V46.1172C31.3661 46.1125 31.3164 46.1054 31.2454 46.0959C31.1744 46.0864 31.0974 46.0817 31.0146 46.0817C30.7305 46.0817 30.4772 46.142 30.2546 46.2628C30.0344 46.3812 29.8604 46.5457 29.7326 46.7564C29.6048 46.9671 29.5408 47.2074 29.5408 47.4773V51H28.9087ZM33.9966 51.1243C33.6676 51.1243 33.3669 51.0604 33.0946 50.9325C32.8224 50.8023 32.6058 50.6153 32.4448 50.3714C32.2838 50.1252 32.2033 49.8269 32.2033 49.4766C32.2033 49.2067 32.2542 48.9794 32.356 48.7947C32.4578 48.6101 32.6022 48.4586 32.7892 48.3402C32.9763 48.2218 33.1976 48.1283 33.4533 48.0597C33.709 47.991 33.9907 47.9377 34.2985 47.8999C34.6039 47.862 34.8619 47.8288 35.0726 47.8004C35.2857 47.772 35.4479 47.727 35.5591 47.6655C35.6704 47.6039 35.726 47.5045 35.726 47.3672V47.2393C35.726 46.8677 35.6148 46.5753 35.3922 46.3622C35.1721 46.1468 34.8548 46.0391 34.4405 46.0391C34.0475 46.0391 33.7267 46.1255 33.4782 46.2983C33.2319 46.4711 33.0591 46.6747 32.9597 46.9091L32.3596 46.6925C32.4827 46.3942 32.6531 46.1562 32.8709 45.9787C33.0887 45.7988 33.3326 45.6697 33.6025 45.5916C33.8723 45.5111 34.1458 45.4709 34.4228 45.4709C34.6311 45.4709 34.8477 45.4981 35.0726 45.5526C35.2999 45.607 35.5106 45.7017 35.7047 45.8366C35.8989 45.9692 36.0563 46.1551 36.177 46.3942C36.2978 46.6309 36.3581 46.9316 36.3581 47.2962V51H35.726V50.1371H35.687C35.6112 50.2981 35.4988 50.4543 35.3496 50.6058C35.2005 50.7573 35.0134 50.8816 34.7885 50.9787C34.5636 51.0758 34.2997 51.1243 33.9966 51.1243ZM34.0819 50.5455C34.418 50.5455 34.7092 50.4709 34.9554 50.3217C35.2016 50.1726 35.391 49.9749 35.5236 49.7287C35.6586 49.4801 35.726 49.2067 35.726 48.9084V48.12C35.6787 48.165 35.5994 48.2053 35.4881 48.2408C35.3792 48.2763 35.2525 48.3082 35.1081 48.3366C34.9661 48.3627 34.824 48.3852 34.682 48.4041C34.54 48.4231 34.4121 48.4396 34.2985 48.4538C33.9907 48.4917 33.7279 48.5509 33.5101 48.6314C33.2923 48.7119 33.1254 48.8232 33.0094 48.9652C32.8934 49.1049 32.8354 49.2848 32.8354 49.505C32.8354 49.8364 32.9538 50.0933 33.1905 50.2756C33.4273 50.4555 33.7244 50.5455 34.0819 50.5455ZM40.0034 51.1136C39.5559 51.1136 39.1641 50.9953 38.8279 50.7585C38.4918 50.5218 38.229 50.1915 38.0396 49.7678C37.8526 49.344 37.7591 48.8504 37.7591 48.2869C37.7591 47.7259 37.8526 47.2346 38.0396 46.8132C38.229 46.3894 38.493 46.0604 38.8315 45.826C39.17 45.5893 39.5642 45.4709 40.014 45.4709C40.3455 45.4709 40.6213 45.5301 40.8414 45.6484C41.0616 45.7644 41.238 45.9089 41.3706 46.0817C41.5031 46.2545 41.6061 46.4226 41.6795 46.5859H41.7363V43.7273H42.372V51H41.7541V49.9879H41.6795C41.6061 50.1536 41.502 50.3241 41.367 50.4993C41.2321 50.6721 41.0533 50.8177 40.8308 50.9361C40.6106 51.0545 40.3348 51.1136 40.0034 51.1136ZM40.0779 50.5348C40.4307 50.5348 40.7314 50.4389 40.9799 50.2472C41.2285 50.053 41.4179 49.7867 41.5481 49.4482C41.6807 49.1072 41.747 48.7166 41.747 48.2763C41.747 47.8407 41.6819 47.456 41.5517 47.1222C41.4215 46.786 41.2321 46.5232 40.9835 46.3338C40.7349 46.142 40.4331 46.0462 40.0779 46.0462C39.7134 46.0462 39.4056 46.1456 39.1547 46.3445C38.9061 46.541 38.7167 46.8073 38.5865 47.1435C38.4586 47.4796 38.3947 47.8572 38.3947 48.2763C38.3947 48.7 38.4598 49.0824 38.59 49.4233C38.7202 49.7642 38.9096 50.0353 39.1582 50.2365C39.4092 50.4354 39.7157 50.5348 40.0779 50.5348ZM47.6383 48.9155V45.5455H48.2704V51H47.6383V50.0945H47.5886C47.4608 50.3738 47.2583 50.607 46.9814 50.794C46.7044 50.9787 46.3658 51.071 45.9657 51.071C45.6177 51.071 45.3088 50.9953 45.0389 50.8438C44.769 50.6899 44.5571 50.465 44.4032 50.169C44.2493 49.8731 44.1724 49.5097 44.1724 49.0788V45.5455H44.8045V49.0398C44.8045 49.4659 44.93 49.8092 45.1809 50.0696C45.4319 50.3277 45.7538 50.4567 46.1468 50.4567C46.3931 50.4567 46.6298 50.3975 46.8571 50.2791C47.0843 50.1607 47.2714 49.9879 47.4181 49.7607C47.5649 49.531 47.6383 49.2493 47.6383 48.9155ZM51.4673 51.1243C51.1383 51.1243 50.8376 51.0604 50.5653 50.9325C50.2931 50.8023 50.0765 50.6153 49.9155 50.3714C49.7545 50.1252 49.674 49.8269 49.674 49.4766C49.674 49.2067 49.7249 48.9794 49.8267 48.7947C49.9285 48.6101 50.0729 48.4586 50.2599 48.3402C50.447 48.2218 50.6683 48.1283 50.924 48.0597C51.1797 47.991 51.4614 47.9377 51.7692 47.8999C52.0746 47.862 52.3326 47.8288 52.5433 47.8004C52.7564 47.772 52.9186 47.727 53.0298 47.6655C53.1411 47.6039 53.1967 47.5045 53.1967 47.3672V47.2393C53.1967 46.8677 53.0855 46.5753 52.8629 46.3622C52.6428 46.1468 52.3255 46.0391 51.9112 46.0391C51.5182 46.0391 51.1974 46.1255 50.9489 46.2983C50.7027 46.4711 50.5298 46.6747 50.4304 46.9091L49.8303 46.6925C49.9534 46.3942 50.1238 46.1562 50.3416 45.9787C50.5594 45.7988 50.8033 45.6697 51.0732 45.5916C51.343 45.5111 51.6165 45.4709 51.8935 45.4709C52.1018 45.4709 52.3184 45.4981 52.5433 45.5526C52.7706 45.607 52.9813 45.7017 53.1754 45.8366C53.3696 45.9692 53.527 46.1551 53.6477 46.3942C53.7685 46.6309 53.8288 46.9316 53.8288 47.2962V51H53.1967V50.1371H53.1577C53.0819 50.2981 52.9695 50.4543 52.8203 50.6058C52.6712 50.7573 52.4841 50.8816 52.2592 50.9787C52.0343 51.0758 51.7704 51.1243 51.4673 51.1243ZM51.5526 50.5455C51.8887 50.5455 52.1799 50.4709 52.4261 50.3217C52.6723 50.1726 52.8617 49.9749 52.9943 49.7287C53.1293 49.4801 53.1967 49.2067 53.1967 48.9084V48.12C53.1494 48.165 53.0701 48.2053 52.9588 48.2408C52.8499 48.2763 52.7232 48.3082 52.5788 48.3366C52.4368 48.3627 52.2947 48.3852 52.1527 48.4041C52.0107 48.4231 51.8828 48.4396 51.7692 48.4538C51.4614 48.4917 51.1986 48.5509 50.9808 48.6314C50.763 48.7119 50.5961 48.8232 50.4801 48.9652C50.3641 49.1049 50.3061 49.2848 50.3061 49.505C50.3061 49.8364 50.4245 50.0933 50.6612 50.2756C50.898 50.4555 51.1951 50.5455 51.5526 50.5455ZM57.6587 45.5455V46.0959H55.0558V45.5455H57.6587ZM55.869 44.2386H56.5046V49.576C56.5046 49.8033 56.5437 49.982 56.6218 50.1122C56.6999 50.2401 56.8017 50.3312 56.9272 50.3857C57.0527 50.4377 57.1864 50.4638 57.3285 50.4638C57.4113 50.4638 57.4824 50.459 57.5415 50.4496C57.6007 50.4377 57.6528 50.4259 57.6978 50.4141L57.8327 50.9858C57.7712 51.0095 57.6954 51.0308 57.6055 51.0497C57.5155 51.071 57.4042 51.0817 57.2717 51.0817C57.0397 51.0817 56.8159 51.0308 56.6005 50.929C56.3874 50.8272 56.2122 50.6757 56.0749 50.4744C55.9376 50.2732 55.869 50.0234 55.869 49.7251V44.2386ZM61.2409 51.1136C60.7319 51.1136 60.2916 50.9953 59.9199 50.7585C59.5482 50.5194 59.2606 50.1892 59.057 49.7678C58.8558 49.344 58.7551 48.8563 58.7551 48.3047C58.7551 47.7554 58.8558 47.2678 59.057 46.8416C59.2606 46.4131 59.5411 46.0781 59.8986 45.8366C60.2585 45.5928 60.6739 45.4709 61.1451 45.4709C61.441 45.4709 61.7263 45.5253 62.0009 45.6342C62.2755 45.7408 62.5217 45.9053 62.7395 46.1278C62.9597 46.348 63.1337 46.6262 63.2615 46.9624C63.3894 47.2962 63.4533 47.6915 63.4533 48.1484V48.4609H59.1919V47.9034H62.807C62.807 47.553 62.736 47.2382 62.5939 46.9588C62.4542 46.6771 62.2589 46.4545 62.008 46.2912C61.7594 46.1278 61.4718 46.0462 61.1451 46.0462C60.7994 46.0462 60.4952 46.1385 60.2324 46.3232C59.9696 46.5078 59.7637 46.7517 59.6145 47.0547C59.4677 47.3577 59.3932 47.6892 59.3908 48.049V48.3828C59.3908 48.8161 59.4654 49.1948 59.6145 49.5192C59.766 49.8411 59.9803 50.0909 60.2573 50.2685C60.5343 50.446 60.8622 50.5348 61.2409 50.5348C61.499 50.5348 61.7251 50.4946 61.9192 50.4141C62.1157 50.3336 62.2802 50.2259 62.4128 50.0909C62.5478 49.9536 62.6496 49.8033 62.7182 49.6399L63.3184 49.8352C63.2355 50.0649 63.0994 50.2768 62.91 50.4709C62.723 50.665 62.4886 50.8213 62.2069 50.9396C61.9275 51.0556 61.6055 51.1136 61.2409 51.1136ZM66.81 51.1136C66.3626 51.1136 65.9708 50.9953 65.6346 50.7585C65.2984 50.5218 65.0356 50.1915 64.8462 49.7678C64.6592 49.344 64.5657 48.8504 64.5657 48.2869C64.5657 47.7259 64.6592 47.2346 64.8462 46.8132C65.0356 46.3894 65.2996 46.0604 65.6381 45.826C65.9767 45.5893 66.3709 45.4709 66.8207 45.4709C67.1521 45.4709 67.4279 45.5301 67.6481 45.6484C67.8683 45.7644 68.0446 45.9089 68.1772 46.0817C68.3098 46.2545 68.4128 46.4226 68.4862 46.5859H68.543V43.7273H69.1786V51H68.5607V49.9879H68.4862C68.4128 50.1536 68.3086 50.3241 68.1737 50.4993C68.0387 50.6721 67.86 50.8177 67.6374 50.9361C67.4173 51.0545 67.1415 51.1136 66.81 51.1136ZM66.8846 50.5348C67.2373 50.5348 67.538 50.4389 67.7866 50.2472C68.0352 50.053 68.2246 49.7867 68.3548 49.4482C68.4873 49.1072 68.5536 48.7166 68.5536 48.2763C68.5536 47.8407 68.4885 47.456 68.3583 47.1222C68.2281 46.786 68.0387 46.5232 67.7901 46.3338C67.5415 46.142 67.2397 46.0462 66.8846 46.0462C66.52 46.0462 66.2122 46.1456 65.9613 46.3445C65.7127 46.541 65.5233 46.8073 65.3931 47.1435C65.2653 47.4796 65.2013 47.8572 65.2013 48.2763C65.2013 48.7 65.2665 49.0824 65.3967 49.4233C65.5269 49.7642 65.7163 50.0353 65.9648 50.2365C66.2158 50.4354 66.5224 50.5348 66.8846 50.5348ZM73.7987 51V45.5455H74.4343V51H73.7987ZM74.1218 44.608C73.9916 44.608 73.8803 44.5642 73.788 44.4766C73.6957 44.3866 73.6495 44.2789 73.6495 44.1534C73.6495 44.0279 73.6957 43.9214 73.788 43.8338C73.8803 43.7438 73.9916 43.6989 74.1218 43.6989C74.252 43.6989 74.3633 43.7438 74.4556 43.8338C74.5479 43.9214 74.5941 44.0279 74.5941 44.1534C74.5941 44.2789 74.5479 44.3866 74.4556 44.4766C74.3633 44.5642 74.252 44.608 74.1218 44.608ZM76.7381 47.5909V51H76.106V45.5455H76.7203V46.4013H76.7772C76.905 46.1219 77.1039 45.8982 77.3738 45.7301C77.646 45.5597 77.9822 45.4744 78.3823 45.4744C78.7492 45.4744 79.0712 45.5514 79.3482 45.7053C79.6275 45.8568 79.8442 46.0805 79.998 46.3764C80.1543 46.6723 80.2324 47.0357 80.2324 47.4666V51H79.6003V47.5057C79.6003 47.0582 79.4748 46.7043 79.2239 46.4439C78.9753 46.1835 78.6415 46.0533 78.2225 46.0533C77.936 46.0533 77.6815 46.1148 77.459 46.2379C77.2364 46.361 77.0601 46.5386 76.9299 46.7706C76.802 47.0002 76.7381 47.2737 76.7381 47.5909ZM86.233 51.1243C85.9039 51.1243 85.6032 51.0604 85.331 50.9325C85.0587 50.8023 84.8421 50.6153 84.6811 50.3714C84.5201 50.1252 84.4396 49.8269 84.4396 49.4766C84.4396 49.2067 84.4905 48.9794 84.5923 48.7947C84.6941 48.6101 84.8385 48.4586 85.0256 48.3402C85.2126 48.2218 85.4339 48.1283 85.6896 48.0597C85.9453 47.991 86.227 47.9377 86.5348 47.8999C86.8402 47.862 87.0982 47.8288 87.3089 47.8004C87.522 47.772 87.6842 47.727 87.7955 47.6655C87.9067 47.6039 87.9624 47.5045 87.9624 47.3672V47.2393C87.9624 46.8677 87.8511 46.5753 87.6286 46.3622C87.4084 46.1468 87.0911 46.0391 86.6768 46.0391C86.2839 46.0391 85.9631 46.1255 85.7145 46.2983C85.4683 46.4711 85.2955 46.6747 85.196 46.9091L84.5959 46.6925C84.719 46.3942 84.8894 46.1562 85.1072 45.9787C85.325 45.7988 85.5689 45.6697 85.8388 45.5916C86.1087 45.5111 86.3821 45.4709 86.6591 45.4709C86.8674 45.4709 87.084 45.4981 87.3089 45.5526C87.5362 45.607 87.7469 45.7017 87.9411 45.8366C88.1352 45.9692 88.2926 46.1551 88.4134 46.3942C88.5341 46.6309 88.5945 46.9316 88.5945 47.2962V51H87.9624V50.1371H87.9233C87.8475 50.2981 87.7351 50.4543 87.5859 50.6058C87.4368 50.7573 87.2498 50.8816 87.0249 50.9787C86.8 51.0758 86.536 51.1243 86.233 51.1243ZM86.3182 50.5455C86.6544 50.5455 86.9455 50.4709 87.1918 50.3217C87.438 50.1726 87.6274 49.9749 87.7599 49.7287C87.8949 49.4801 87.9624 49.2067 87.9624 48.9084V48.12C87.915 48.165 87.8357 48.2053 87.7244 48.2408C87.6155 48.2763 87.4889 48.3082 87.3445 48.3366C87.2024 48.3627 87.0604 48.3852 86.9183 48.4041C86.7763 48.4231 86.6484 48.4396 86.5348 48.4538C86.227 48.4917 85.9643 48.5509 85.7464 48.6314C85.5286 48.7119 85.3617 48.8232 85.2457 48.9652C85.1297 49.1049 85.0717 49.2848 85.0717 49.505C85.0717 49.8364 85.1901 50.0933 85.4268 50.2756C85.6636 50.4555 85.9607 50.5455 86.3182 50.5455ZM90.2759 51V45.5455H90.8903V46.3835H90.9364C91.0453 46.1089 91.2347 45.8875 91.5046 45.7195C91.7769 45.549 92.0846 45.4638 92.4279 45.4638C92.48 45.4638 92.538 45.465 92.6019 45.4673C92.6658 45.4697 92.7191 45.4721 92.7617 45.4744V46.1172C92.7333 46.1125 92.6836 46.1054 92.6126 46.0959C92.5415 46.0864 92.4646 46.0817 92.3817 46.0817C92.0977 46.0817 91.8443 46.142 91.6218 46.2628C91.4016 46.3812 91.2276 46.5457 91.0998 46.7564C90.9719 46.9671 90.908 47.2074 90.908 47.4773V51H90.2759ZM96.3306 45.5455V46.0959H93.7276V45.5455H96.3306ZM94.5408 44.2386H95.1765V49.576C95.1765 49.8033 95.2156 49.982 95.2937 50.1122C95.3718 50.2401 95.4736 50.3312 95.5991 50.3857C95.7246 50.4377 95.8583 50.4638 96.0004 50.4638C96.0832 50.4638 96.1542 50.459 96.2134 50.4496C96.2726 50.4377 96.3247 50.4259 96.3697 50.4141L96.5046 50.9858C96.4431 51.0095 96.3673 51.0308 96.2773 51.0497C96.1874 51.071 96.0761 51.0817 95.9435 51.0817C95.7115 51.0817 95.4878 51.0308 95.2724 50.929C95.0593 50.8272 94.8841 50.6757 94.7468 50.4744C94.6095 50.2732 94.5408 50.0234 94.5408 49.7251V44.2386ZM24.2164 63V57.5455H24.8307V58.3835H24.8769C24.9858 58.1089 25.1752 57.8875 25.445 57.7195C25.7173 57.549 26.0251 57.4638 26.3683 57.4638C26.4204 57.4638 26.4784 57.465 26.5423 57.4673C26.6063 57.4697 26.6595 57.4721 26.7021 57.4744V58.1172C26.6737 58.1125 26.624 58.1054 26.553 58.0959C26.482 58.0864 26.405 58.0817 26.3222 58.0817C26.0381 58.0817 25.7848 58.142 25.5622 58.2628C25.3421 58.3812 25.1681 58.5457 25.0402 58.7564C24.9124 58.9671 24.8485 59.2074 24.8485 59.4773V63H24.2164ZM29.82 63.1136C29.311 63.1136 28.8707 62.9953 28.499 62.7585C28.1273 62.5194 27.8397 62.1892 27.6361 61.7678C27.4349 61.344 27.3343 60.8563 27.3343 60.3047C27.3343 59.7554 27.4349 59.2678 27.6361 58.8416C27.8397 58.4131 28.1202 58.0781 28.4777 57.8366C28.8376 57.5928 29.253 57.4709 29.7242 57.4709C30.0201 57.4709 30.3054 57.5253 30.58 57.6342C30.8546 57.7408 31.1008 57.9053 31.3186 58.1278C31.5388 58.348 31.7128 58.6262 31.8406 58.9624C31.9685 59.2962 32.0324 59.6915 32.0324 60.1484V60.4609H27.771V59.9034H31.3861C31.3861 59.553 31.3151 59.2382 31.173 58.9588C31.0334 58.6771 30.838 58.4545 30.5871 58.2912C30.3385 58.1278 30.0509 58.0462 29.7242 58.0462C29.3785 58.0462 29.0743 58.1385 28.8115 58.3232C28.5487 58.5078 28.3428 58.7517 28.1936 59.0547C28.0468 59.3577 27.9723 59.6892 27.9699 60.049V60.3828C27.9699 60.8161 28.0445 61.1948 28.1936 61.5192C28.3451 61.8411 28.5594 62.0909 28.8364 62.2685C29.1134 62.446 29.4413 62.5348 29.82 62.5348C30.0781 62.5348 30.3042 62.4946 30.4983 62.4141C30.6948 62.3336 30.8593 62.2259 30.9919 62.0909C31.1269 61.9536 31.2287 61.8033 31.2973 61.6399L31.8975 61.8352C31.8146 62.0649 31.6785 62.2768 31.4891 62.4709C31.3021 62.665 31.0677 62.8213 30.786 62.9396C30.5066 63.0556 30.1846 63.1136 29.82 63.1136ZM34.0574 55.7273V63H33.4253V55.7273H34.0574ZM37.2535 63.1243C36.9244 63.1243 36.6237 63.0604 36.3515 62.9325C36.0792 62.8023 35.8626 62.6153 35.7016 62.3714C35.5406 62.1252 35.4601 61.8269 35.4601 61.4766C35.4601 61.2067 35.511 60.9794 35.6128 60.7947C35.7146 60.6101 35.859 60.4586 36.0461 60.3402C36.2331 60.2218 36.4545 60.1283 36.7101 60.0597C36.9658 59.991 37.2475 59.9377 37.5553 59.8999C37.8607 59.862 38.1188 59.8288 38.3295 59.8004C38.5425 59.772 38.7047 59.727 38.816 59.6655C38.9272 59.6039 38.9829 59.5045 38.9829 59.3672V59.2393C38.9829 58.8677 38.8716 58.5753 38.6491 58.3622C38.4289 58.1468 38.1117 58.0391 37.6974 58.0391C37.3044 58.0391 36.9836 58.1255 36.735 58.2983C36.4888 58.4711 36.316 58.6747 36.2165 58.9091L35.6164 58.6925C35.7395 58.3942 35.9099 58.1562 36.1278 57.9787C36.3456 57.7988 36.5894 57.6697 36.8593 57.5916C37.1292 57.5111 37.4026 57.4709 37.6796 57.4709C37.8879 57.4709 38.1046 57.4981 38.3295 57.5526C38.5567 57.607 38.7674 57.7017 38.9616 57.8366C39.1557 57.9692 39.3131 58.1551 39.4339 58.3942C39.5546 58.6309 39.615 58.9316 39.615 59.2962V63H38.9829V62.1371H38.9438C38.868 62.2981 38.7556 62.4543 38.6064 62.6058C38.4573 62.7573 38.2703 62.8816 38.0454 62.9787C37.8205 63.0758 37.5565 63.1243 37.2535 63.1243ZM37.3387 62.5455C37.6749 62.5455 37.9661 62.4709 38.2123 62.3217C38.4585 62.1726 38.6479 61.9749 38.7805 61.7287C38.9154 61.4801 38.9829 61.2067 38.9829 60.9084V60.12C38.9355 60.165 38.8562 60.2053 38.7449 60.2408C38.636 60.2763 38.5094 60.3082 38.365 60.3366C38.2229 60.3627 38.0809 60.3852 37.9388 60.4041C37.7968 60.4231 37.6689 60.4396 37.5553 60.4538C37.2475 60.4917 36.9848 60.5509 36.767 60.6314C36.5492 60.7119 36.3823 60.8232 36.2662 60.9652C36.1502 61.1049 36.0922 61.2848 36.0922 61.505C36.0922 61.8364 36.2106 62.0933 36.4474 62.2756C36.6841 62.4555 36.9812 62.5455 37.3387 62.5455ZM43.4449 57.5455V58.0959H40.8419V57.5455H43.4449ZM41.6551 56.2386H42.2907V61.576C42.2907 61.8033 42.3298 61.982 42.4079 62.1122C42.4861 62.2401 42.5879 62.3312 42.7133 62.3857C42.8388 62.4377 42.9726 62.4638 43.1146 62.4638C43.1975 62.4638 43.2685 62.459 43.3277 62.4496C43.3869 62.4377 43.439 62.4259 43.4839 62.4141L43.6189 62.9858C43.5573 63.0095 43.4816 63.0308 43.3916 63.0497C43.3016 63.071 43.1904 63.0817 43.0578 63.0817C42.8258 63.0817 42.6021 63.0308 42.3866 62.929C42.1736 62.8272 41.9984 62.6757 41.8611 62.4744C41.7238 62.2732 41.6551 62.0234 41.6551 61.7251V56.2386ZM47.0271 63.1136C46.5181 63.1136 46.0777 62.9953 45.7061 62.7585C45.3344 62.5194 45.0467 62.1892 44.8431 61.7678C44.6419 61.344 44.5413 60.8563 44.5413 60.3047C44.5413 59.7554 44.6419 59.2678 44.8431 58.8416C45.0467 58.4131 45.3273 58.0781 45.6847 57.8366C46.0446 57.5928 46.4601 57.4709 46.9312 57.4709C47.2271 57.4709 47.5124 57.5253 47.787 57.6342C48.0616 57.7408 48.3079 57.9053 48.5257 58.1278C48.7458 58.348 48.9198 58.6262 49.0477 58.9624C49.1755 59.2962 49.2394 59.6915 49.2394 60.1484V60.4609H44.9781V59.9034H48.5931C48.5931 59.553 48.5221 59.2382 48.3801 58.9588C48.2404 58.6771 48.0451 58.4545 47.7941 58.2912C47.5455 58.1278 47.2579 58.0462 46.9312 58.0462C46.5856 58.0462 46.2813 58.1385 46.0186 58.3232C45.7558 58.5078 45.5498 58.7517 45.4007 59.0547C45.2539 59.3577 45.1793 59.6892 45.1769 60.049V60.3828C45.1769 60.8161 45.2515 61.1948 45.4007 61.5192C45.5522 61.8411 45.7664 62.0909 46.0434 62.2685C46.3204 62.446 46.6483 62.5348 47.0271 62.5348C47.2851 62.5348 47.5112 62.4946 47.7053 62.4141C47.9018 62.3336 48.0664 62.2259 48.199 62.0909C48.3339 61.9536 48.4357 61.8033 48.5044 61.6399L49.1045 61.8352C49.0216 62.0649 48.8855 62.2768 48.6961 62.4709C48.5091 62.665 48.2747 62.8213 47.993 62.9396C47.7136 63.0556 47.3917 63.1136 47.0271 63.1136ZM52.5961 63.1136C52.1487 63.1136 51.7569 62.9953 51.4207 62.7585C51.0845 62.5218 50.8218 62.1915 50.6324 61.7678C50.4453 61.344 50.3518 60.8504 50.3518 60.2869C50.3518 59.7259 50.4453 59.2346 50.6324 58.8132C50.8218 58.3894 51.0857 58.0604 51.4243 57.826C51.7628 57.5893 52.157 57.4709 52.6068 57.4709C52.9382 57.4709 53.214 57.5301 53.4342 57.6484C53.6544 57.7644 53.8308 57.9089 53.9633 58.0817C54.0959 58.2545 54.1989 58.4226 54.2723 58.5859H54.3291V55.7273H54.9648V63H54.3469V61.9879H54.2723C54.1989 62.1536 54.0947 62.3241 53.9598 62.4993C53.8248 62.6721 53.6461 62.8177 53.4236 62.9361C53.2034 63.0545 52.9276 63.1136 52.5961 63.1136ZM52.6707 62.5348C53.0235 62.5348 53.3241 62.4389 53.5727 62.2472C53.8213 62.053 54.0107 61.7867 54.1409 61.4482C54.2735 61.1072 54.3398 60.7166 54.3398 60.2763C54.3398 59.8407 54.2747 59.456 54.1444 59.1222C54.0142 58.786 53.8248 58.5232 53.5763 58.3338C53.3277 58.142 53.0258 58.0462 52.6707 58.0462C52.3061 58.0462 51.9984 58.1456 51.7474 58.3445C51.4988 58.541 51.3095 58.8073 51.1792 59.1435C51.0514 59.4796 50.9875 59.8572 50.9875 60.2763C50.9875 60.7 51.0526 61.0824 51.1828 61.4233C51.313 61.7642 51.5024 62.0353 51.751 62.2365C52.0019 62.4354 52.3085 62.5348 52.6707 62.5348ZM61.7084 63.1136C61.2207 63.1136 60.7957 62.9917 60.4335 62.7479C60.0737 62.504 59.7943 62.1702 59.5954 61.7464C59.3966 61.3227 59.2971 60.8397 59.2971 60.2976C59.2971 59.7507 59.3978 59.2642 59.599 58.8381C59.8026 58.4119 60.0843 58.0781 60.4442 57.8366C60.804 57.5928 61.2219 57.4709 61.6977 57.4709C62.0623 57.4709 62.3925 57.5419 62.6885 57.6839C62.9844 57.8236 63.2282 58.0213 63.42 58.277C63.6141 58.5303 63.7361 58.8262 63.7858 59.1648H63.1466C63.0803 58.857 62.9205 58.5942 62.6672 58.3764C62.4162 58.1562 62.0966 58.0462 61.7084 58.0462C61.3604 58.0462 61.0526 58.1409 60.7851 58.3303C60.5175 58.5173 60.308 58.7789 60.1565 59.1151C60.0074 59.4489 59.9328 59.8359 59.9328 60.2763C59.9328 60.719 60.0062 61.1108 60.153 61.4517C60.2997 61.7902 60.5057 62.0554 60.7709 62.2472C61.0384 62.4389 61.3509 62.5348 61.7084 62.5348C61.9498 62.5348 62.17 62.4898 62.3689 62.3999C62.5701 62.3075 62.7382 62.1773 62.8731 62.0092C63.0104 61.8411 63.1028 61.6411 63.1501 61.4091H63.7893C63.742 61.7382 63.6248 62.0317 63.4378 62.2898C63.2531 62.5455 63.0128 62.7467 62.7169 62.8935C62.4233 63.0402 62.0872 63.1136 61.7084 63.1136ZM67.2641 63.1136C66.793 63.1136 66.3763 62.9941 66.0141 62.755C65.6543 62.5159 65.3725 62.1856 65.1689 61.7642C64.9653 61.3404 64.8635 60.8516 64.8635 60.2976C64.8635 59.7389 64.9653 59.2476 65.1689 58.8239C65.3725 58.3977 65.6543 58.0663 66.0141 57.8295C66.3763 57.5904 66.793 57.4709 67.2641 57.4709C67.7352 57.4709 68.1507 57.5904 68.5106 57.8295C68.8704 58.0687 69.1521 58.4001 69.3557 58.8239C69.5617 59.2476 69.6647 59.7389 69.6647 60.2976C69.6647 60.8516 69.5629 61.3404 69.3593 61.7642C69.1557 62.1856 68.8728 62.5159 68.5106 62.755C68.1507 62.9941 67.7352 63.1136 67.2641 63.1136ZM67.2641 62.5348C67.6429 62.5348 67.9637 62.433 68.2265 62.2294C68.4893 62.0258 68.6881 61.7547 68.8231 61.4162C68.9604 61.0777 69.029 60.7048 69.029 60.2976C69.029 59.8904 68.9604 59.5163 68.8231 59.1754C68.6881 58.8345 68.4893 58.5611 68.2265 58.3551C67.9637 58.1491 67.6429 58.0462 67.2641 58.0462C66.8877 58.0462 66.5669 58.1491 66.3018 58.3551C66.039 58.5611 65.8389 58.8345 65.7016 59.1754C65.5667 59.5163 65.4992 59.8904 65.4992 60.2976C65.4992 60.7048 65.5667 61.0777 65.7016 61.4162C65.8389 61.7547 66.039 62.0258 66.3018 62.2294C66.5645 62.433 66.8853 62.5348 67.2641 62.5348ZM74.5182 60.9155V57.5455H75.1503V63H74.5182V62.0945H74.4685C74.3406 62.3738 74.1382 62.607 73.8612 62.794C73.5843 62.9787 73.2457 63.071 72.8456 63.071C72.4976 63.071 72.1887 62.9953 71.9188 62.8438C71.6489 62.6899 71.437 62.465 71.2831 62.169C71.1292 61.8731 71.0523 61.5097 71.0523 61.0788V57.5455H71.6844V61.0398C71.6844 61.4659 71.8099 61.8092 72.0608 62.0696C72.3118 62.3277 72.6337 62.4567 73.0267 62.4567C73.2729 62.4567 73.5097 62.3975 73.7369 62.2791C73.9642 62.1607 74.1512 61.9879 74.298 61.7607C74.4448 61.531 74.5182 61.2493 74.5182 60.9155ZM76.8238 63V57.5455H77.4381V58.3835H77.4843C77.5932 58.1089 77.7826 57.8875 78.0525 57.7195C78.3247 57.549 78.6325 57.4638 78.9758 57.4638C79.0278 57.4638 79.0858 57.465 79.1498 57.4673C79.2137 57.4697 79.267 57.4721 79.3096 57.4744V58.1172C79.2812 58.1125 79.2314 58.1054 79.1604 58.0959C79.0894 58.0864 79.0125 58.0817 78.9296 58.0817C78.6455 58.0817 78.3922 58.142 78.1697 58.2628C77.9495 58.3812 77.7755 58.5457 77.6476 58.7564C77.5198 58.9671 77.4559 59.2074 77.4559 59.4773V63H76.8238ZM84.053 58.7422L83.4742 58.9055C83.4173 58.7422 83.3369 58.5942 83.2327 58.4616C83.1285 58.3291 82.9924 58.2237 82.8243 58.1456C82.6586 58.0675 82.4526 58.0284 82.2064 58.0284C81.8371 58.0284 81.5341 58.116 81.2973 58.2912C81.0606 58.4664 80.9422 58.6925 80.9422 58.9695C80.9422 59.2038 81.0227 59.3944 81.1837 59.5412C81.347 59.6856 81.598 59.8004 81.9365 59.8857L82.7604 60.0881C83.2173 60.1993 83.5594 60.3757 83.7867 60.6172C84.0163 60.8587 84.1311 61.1617 84.1311 61.5263C84.1311 61.834 84.0459 62.1075 83.8754 62.3466C83.705 62.5857 83.4671 62.7739 83.1617 62.9112C82.8586 63.0462 82.5071 63.1136 82.107 63.1136C81.5743 63.1136 81.1352 62.9941 80.7895 62.755C80.4439 62.5135 80.2225 62.1655 80.1254 61.7109L80.7327 61.5618C80.8108 61.8861 80.9635 62.1312 81.1908 62.2969C81.4204 62.4626 81.7223 62.5455 82.0963 62.5455C82.5154 62.5455 82.8503 62.4519 83.1013 62.2649C83.3522 62.0755 83.4777 61.8388 83.4777 61.5547C83.4777 61.3345 83.4043 61.1499 83.2575 61.0007C83.1108 60.8492 82.8882 60.7379 82.5899 60.6669L81.6986 60.4538C81.2251 60.3402 80.8747 60.1603 80.6475 59.9141C80.4202 59.6679 80.3066 59.3625 80.3066 58.9979C80.3066 58.6972 80.3882 58.4332 80.5516 58.206C80.7149 57.9763 80.9398 57.7964 81.2263 57.6662C81.5128 57.536 81.8395 57.4709 82.2064 57.4709C82.7059 57.4709 83.1048 57.5845 83.4031 57.8118C83.7038 58.0367 83.9204 58.3468 84.053 58.7422ZM87.7204 63.1136C87.2114 63.1136 86.7711 62.9953 86.3994 62.7585C86.0277 62.5194 85.7401 62.1892 85.5365 61.7678C85.3353 61.344 85.2346 60.8563 85.2346 60.3047C85.2346 59.7554 85.3353 59.2678 85.5365 58.8416C85.7401 58.4131 86.0206 58.0781 86.3781 57.8366C86.738 57.5928 87.1534 57.4709 87.6246 57.4709C87.9205 57.4709 88.2058 57.5253 88.4804 57.6342C88.755 57.7408 89.0012 57.9053 89.219 58.1278C89.4392 58.348 89.6132 58.6262 89.741 58.9624C89.8689 59.2962 89.9328 59.6915 89.9328 60.1484V60.4609H85.6714V59.9034H89.2865C89.2865 59.553 89.2155 59.2382 89.0734 58.9588C88.9337 58.6771 88.7384 58.4545 88.4875 58.2912C88.2389 58.1278 87.9513 58.0462 87.6246 58.0462C87.2789 58.0462 86.9747 58.1385 86.7119 58.3232C86.4491 58.5078 86.2432 58.7517 86.094 59.0547C85.9472 59.3577 85.8727 59.6892 85.8703 60.049V60.3828C85.8703 60.8161 85.9449 61.1948 86.094 61.5192C86.2455 61.8411 86.4598 62.0909 86.7368 62.2685C87.0138 62.446 87.3416 62.5348 87.7204 62.5348C87.9785 62.5348 88.2046 62.4946 88.3987 62.4141C88.5952 62.3336 88.7597 62.2259 88.8923 62.0909C89.0273 61.9536 89.1291 61.8033 89.1977 61.6399L89.7979 61.8352C89.715 62.0649 89.5789 62.2768 89.3895 62.4709C89.2024 62.665 88.9681 62.8213 88.6863 62.9396C88.407 63.0556 88.085 63.1136 87.7204 63.1136ZM94.9905 58.7422L94.4117 58.9055C94.3548 58.7422 94.2744 58.5942 94.1702 58.4616C94.066 58.3291 93.9299 58.2237 93.7618 58.1456C93.5961 58.0675 93.3901 58.0284 93.1439 58.0284C92.7746 58.0284 92.4716 58.116 92.2348 58.2912C91.9981 58.4664 91.8797 58.6925 91.8797 58.9695C91.8797 59.2038 91.9602 59.3944 92.1212 59.5412C92.2845 59.6856 92.5355 59.8004 92.874 59.8857L93.6979 60.0881C94.1548 60.1993 94.4969 60.3757 94.7242 60.6172C94.9538 60.8587 95.0686 61.1617 95.0686 61.5263C95.0686 61.834 94.9834 62.1075 94.8129 62.3466C94.6425 62.5857 94.4046 62.7739 94.0992 62.9112C93.7961 63.0462 93.4446 63.1136 93.0445 63.1136C92.5118 63.1136 92.0727 62.9941 91.727 62.755C91.3814 62.5135 91.16 62.1655 91.0629 61.7109L91.6702 61.5618C91.7483 61.8861 91.901 62.1312 92.1283 62.2969C92.3579 62.4626 92.6598 62.5455 93.0338 62.5455C93.4529 62.5455 93.7878 62.4519 94.0388 62.2649C94.2897 62.0755 94.4152 61.8388 94.4152 61.5547C94.4152 61.3345 94.3418 61.1499 94.195 61.0007C94.0483 60.8492 93.8257 60.7379 93.5274 60.6669L92.6361 60.4538C92.1626 60.3402 91.8122 60.1603 91.585 59.9141C91.3577 59.6679 91.2441 59.3625 91.2441 58.9979C91.2441 58.6972 91.3257 58.4332 91.4891 58.206C91.6524 57.9763 91.8773 57.7964 92.1638 57.6662C92.4503 57.536 92.777 57.4709 93.1439 57.4709C93.6434 57.4709 94.0423 57.5845 94.3406 57.8118C94.6413 58.0367 94.8579 58.3468 94.9905 58.7422Z" fill="#222222"/>
<defs>
<filter id="filter0_d_960_113" x="0" y="0" width="118" height="118" filterUnits="userSpaceOnUse" color-interpolation-filters="sRGB">
<feFlood flood-opacity="0" result="BackgroundImageFix"/>
<feColorMatrix in="SourceAlpha" type="matrix" values="0 0 0 0 0 0 0 0 0 0 0 0 0 0 0 0 0 0 127 0" result="hardAlpha"/>
<feOffset dy="4"/>
<feGaussianBlur stdDeviation="2"/>
<feComposite in2="hardAlpha" operator="out"/>
<feColorMatrix type="matrix" values="0 0 0 0 0 0 0 0 0 0 0 0 0 0 0 0 0 0 0.25 0"/>
<feBlend mode="normal" in2="BackgroundImageFix" result="effect1_dropShadow_960_113"/>
<feBlend mode="normal" in="SourceGraphic" in2="effect1_dropShadow_960_113" result="shape"/>
</filter>
</defs>
</svg>
