<svg width="54" height="102" viewBox="0 0 54 102" fill="none" xmlns="http://www.w3.org/2000/svg">
<path d="M13.9414 79.0293V99.3979" stroke="#292562" stroke-width="1.20544" stroke-linecap="round" stroke-linejoin="round"/>
<path d="M22.347 45.4214L22.1173 46.6087L21.6366 47.5178L21.4681 48.8294L21.308 48.9139V49.1871L20.8059 49.5646L20.873 49.7087L20.508 50.439L19.5195 50.7321L18.9164 51.2836L17.9251 51.6611L17.2234 52.2324L17.2597 52.5653L16.584 53.1863L16.5565 53.4098L16.1625 53.5489L15.5866 54.1054L15.0571 54.2544L14.4001 54.7959L14.5387 54.8356L14.0902 54.8655L13.5141 55.1735L12.7405 55.7994L12.8587 55.8342L12.6058 55.8789L12.7169 56.013L12.2007 56.2714L11.8064 56.7632L11.1232 57.26L10.9364 57.2352L10.4762 57.9208L9.71263 58.4523L9.15049 59.5552L8.76085 59.595L8.61555 59.9377L8.20095 60.1861L8.33885 60.3799L7.86053 60.7127L7.69707 61.4927L7.04968 62.7943L7.02895 63.1868L6.70672 63.5047L6.87802 63.5345L6.81877 63.8078L6.39145 64.702L6.56529 64.7069L6.42565 64.6772L6.04207 66.6395L5.56782 67.961L5.57816 68.7707L5.10366 69.9382L4.77681 72.4818L4.6151 72.5613L4.64493 73.1426L4.37738 73.8281L4.41933 74.2852L4.14905 74.7323L4.12743 75.3583L3.78029 76.1134L3.79073 76.7841L3.58482 77.112L3.79351 77.3901L3.42321 78.1055L3.18519 79.2134L2.9339 79.4866L2.8382 81.136L2.61818 81.5582L2.59198 82.2736L2.3649 82.8648L2.54123 83.1232L2.20731 83.8286L2.29948 84.077L2.04247 84.9265L2.11972 85.2395L1.73629 87.2863L1.92768 87.634L1.75255 88.0563L1.85769 88.6127L1.67928 88.9009L1.88876 89.194L1.87787 89.5169L1.67594 89.7107L1.82707 90.2323L1.60317 90.8682L1.87877 90.9129L1.60312 91.5637L1.85486 91.9661L1.61922 92.3188L1.57856 92.7461L1.73878 93.0839L1.46144 93.5906L1.58005 93.6999L1.42535 94.2762L1.55818 94.4352L1.39766 95.394L1.45572 96.2386L1.2362 96.4025L1.47223 96.5763L1.24311 96.7602L1.37907 97.0831L1.30644 97.6445L1.42589 97.6792L1.13851 97.8183L1.22983 97.9128L1.08144 98.171L1.28267 98.34L1.11017 98.3549L1.17763 98.484L0.981125 98.6927L1.10873 99.0156L0.932058 99.1199L1.11177 99.1597L1.05688 99.3783L1.2184 99.4578L0.912473 99.4279L1.09665 99.5472L0.838202 99.7558L0.958256 99.9794L0.826172 100.238L1.19399 100.546" stroke="#292562" stroke-width="1.20544" stroke-linecap="round" stroke-linejoin="round"/>
<path d="M42.4102 79.561V99.9296" stroke="#292562" stroke-width="1.20544" stroke-linecap="round" stroke-linejoin="round"/>
<path d="M20.321 12.0422L20.242 12.1267L18.6027 14.6454L18.5953 15.4055L18.2622 15.8079L18.147 16.6028L17.5118 17.9193L17.6028 18.9427L16.3618 23.2996L16.5993 24.2534L16.3483 25.0086L16.2285 30.0659L16.3906 31.0844L16.793 31.7401L16.8517 33.5634L17.1746 34.4824L18.7025 36.6783L19.0677 37.5625L21.1484 39.9968L22.1789 41.7853L23.2348 42.7242L27.7392 43.8222L31.2478 43.9464L32.0502 43.7626L35.523 41.527L37.5632 39.2516L39.3339 37.8358L39.9623 36.9366L40.1631 36.1765L40.698 35.6151L41.6341 33.5783L43.1463 27.1398L42.9221 26.4145L43.1418 25.1625L42.9112 23.4784L42.9987 21.5409L42.3171 18.2571L41.8821 17.6858L42.3186 16.409L41.7265 15.6142L41.7713 15.0081L41.4029 14.8491L41.4571 14.3622L40.8516 13.7909L39.3354 10.055L38.6916 9.19058L36.0336 7.97843L35.0751 7.17363L33.5579 7.13385L30.1561 5.96639L29.3339 6.17507L27.9201 5.93164L24.8176 6.34396L23.7095 6.75136L22.6755 7.44683L21.7544 8.95213L21.0842 8.977L19.5932 11.4163L19.1752 11.6398L19.3255 11.6696L19.1147 11.9131L19.3198 13.2544L18.8441 13.8903L18.832 14.4318L19.0175 14.4914" stroke="#292562" stroke-width="1.65749" stroke-linecap="round" stroke-linejoin="round"/>
<path d="M31.8873 27.1489L31.2227 29.7273L31.8525 31.1233" stroke="#292562" stroke-width="1.65749" stroke-linecap="round" stroke-linejoin="round"/>
<path d="M24.019 19.6579L24.0727 19.4244L23.672 19.2853L23.417 19.6629L22.1265 20.3832L20.8014 22.4747L21.0176 22.6933L20.7617 23.1355L21.0328 23.6969L20.7749 24.3427L21.0469 24.7401L20.9997 25.1078L22.2801 26.6677L23.248 26.9012L25.0838 26.7969L26.8421 25.8877L28.2832 23.9502L28.492 23.2746L28.2987 22.589L28.5502 21.9332L28.0894 21.1185L27.2895 20.6515L27.0111 20.1199L26.4056 19.7225L24.7299 19.1611L22.9114 19.5238L21.7491 20.8055L21.5369 23.6521L21.8918 24.1738L21.9599 24.9289L23.2793 26.4342L26.0154 26.941L26.8943 26.8764L28.1301 25.8828L28.6437 25.7437L29.6767 24.8047L30.3339 23.1057L30.1067 22.3555L30.3587 21.8488L30.3607 20.9347L30.0674 19.9907L29.7363 19.8318L29.8934 19.7772L29.5996 19.3747L28.5204 19.2605L25.8171 20.0504L25.3229 20.4279L25.5208 20.7111L25.2309 21.1135L24.9188 21.1433L24.8646 20.572L24.5504 20.3981L24.709 20.5621L24.1288 20.9049" stroke="#292562" stroke-width="1.65749" stroke-linecap="round" stroke-linejoin="round"/>
<path d="M28.7607 23.5575L27.4727 23.9351L28.7592 23.6916L30.4012 22.5739L31.3815 22.395L32.5945 22.6682L33.3227 23.2296L33.2546 23.5923L33.4962 23.8059L33.3347 23.7264L33.7224 23.647L33.1671 23.6221" stroke="#292562" stroke-width="1.65749" stroke-linecap="round" stroke-linejoin="round"/>
<path d="M35.1893 22.4342L34.0474 23.1298L33.4917 23.1248L32.9001 23.7209L32.3408 25.9664L32.7549 26.8259L34.0977 27.4469L35.8212 27.6456L37.6839 27.3276L38.5762 26.657L39.5127 25.2958L39.8135 24.1184L39.7021 23.6812L38.7641 22.3597L36.4371 21.4903L34.4327 21.5698L32.2056 22.3945L32.225 23.1744L31.9531 23.3732L32.1012 23.5967L31.804 24.1531L32.0167 25.7379L33.347 27.1141L34.4208 27.6357L36.7105 28.207L37.4587 28.1424L38.4236 27.4221L39.5938 25.3901L39.6867 23.86L39.3527 22.4143L39.461 21.7685L38.7934 20.8395L37.568 20.0794L35.3623 19.841L33.0303 20.6159L32.485 20.4421L31.6593 22.0517L31.5977 22.31L32.2116 23.2341L32.578 24.2972L34.4133 26.4235L36.6384 27.3177L37.7465 27.4817L39.1295 26.662L39.8279 25.6833L40.7903 22.8416L40.0864 21.0879L39.4113 20.611L38.6274 19.4982L37.1132 18.6238L35.4006 18.4648L34.7837 18.7431L33.8849 19.7416" stroke="#292562" stroke-width="1.65749" stroke-linecap="round" stroke-linejoin="round"/>
<path d="M16.3764 21.9773L15.9219 22.1065L16.0864 21.8829L15.9524 21.7041L15.6191 22.0121L16.6461 22.3002L16.3858 22.3301L17.0457 22.7424L19.7201 23.736L21.8014 23.9993L22.127 24.2179" stroke="#292562" stroke-width="1.65749" stroke-linecap="round" stroke-linejoin="round"/>
<path d="M39.0504 23.1154L38.332 23.5427L38.3847 23.7315L38.5975 23.7116L38.4692 23.5675L38.8958 23.6718L42.3075 22.0026L43.4076 21.8784" stroke="#292562" stroke-width="1.65749" stroke-linecap="round" stroke-linejoin="round"/>
<path d="M24.1613 22.5492L24.053 22.0673L23.8516 22.0822L23.707 21.7593L23.7597 22.1269L23.0334 22.4548L20.2344 25.4952L21.3929 25.0431L22.9877 23.3639L23.7701 22.8423L23.9998 22.3753L24.9493 21.8934L22.4716 26.3993L22.6362 26.7272L24.1768 25.5995L26.0454 23.503L26.29 22.7131L24.7504 24.6904L23.9367 26.2652L23.9376 26.8365L24.389 26.9557L25.9201 25.9721" stroke="#292562" stroke-width="1.65749" stroke-linecap="round" stroke-linejoin="round"/>
<path d="M34.4172 21.7935L34.2645 22.5386L33.1992 24.65L36.9346 22.797L37.1578 22.8417L36.678 23.0256L36.7342 23.5621L35.996 25.2015L36.0716 25.4598L36.2316 25.3902L36.0387 25.2164L37.8199 24.2228" stroke="#292562" stroke-width="1.65749" stroke-linecap="round" stroke-linejoin="round"/>
<path d="M22.2109 6.96973L22.6902 8.65884L22.8965 8.87243L22.8343 9.07116L23.2768 9.28978L23.412 9.11591" stroke="#292562" stroke-width="1.20544" stroke-linecap="round" stroke-linejoin="round"/>
<path d="M34.1843 4.37127L32.8143 7.21293L32.7273 8.17674L32.3301 9.38392L32.5931 9.44353L32.4608 9.36409L32.7626 9.15541L32.9092 8.63375L34.1341 7.1732L34.5885 6.25415L35.9277 4.36133L34.5149 6.78072L34.1729 7.7495L33.4973 8.58906L33.3825 9.14049L33.4988 9.35911L34.6054 7.45138L35.7 6.0405" stroke="#292562" stroke-width="1.20544" stroke-linecap="round" stroke-linejoin="round"/>
<path d="M35.7147 6.42822L34.5778 8.0627L34.4316 9.16557L34.6802 9.0612L35.9379 7.38203" stroke="#292562" stroke-width="1.20544" stroke-linecap="round" stroke-linejoin="round"/>
<path d="M36.0025 7.5459L35.7366 7.96319L35.5039 8.60407L36.183 7.85391" stroke="#292562" stroke-width="1.20544" stroke-linecap="round" stroke-linejoin="round"/>
<path d="M36.7357 8.35547L36.6701 8.51939L36.1953 9.04105L36.332 9.19005L37.0618 8.40514" stroke="#292562" stroke-width="1.20544" stroke-linecap="round" stroke-linejoin="round"/>
<path d="M37.361 8.61377L37.3247 8.68824L37.4366 9.02111L37.2969 9.0857L37.444 8.86714" stroke="#292562" stroke-width="1.20544" stroke-linecap="round" stroke-linejoin="round"/>
<path d="M38.0864 9.11553L37.3438 10.2283L37.4904 10.288L39.6598 8.37034L39.7324 8.30078" stroke="#292562" stroke-width="1.20544" stroke-linecap="round" stroke-linejoin="round"/>
<path d="M39.9808 9.69149L39.7482 10.1386L39.4668 10.1535L40.1404 9.57227" stroke="#292562" stroke-width="1.20544" stroke-linecap="round" stroke-linejoin="round"/>
<path d="M40.2738 9.59277L38.5051 11.5253L38.26 12.1016L38.0547 12.2357L38.2784 12.2307L38.4887 11.7638L39.8518 10.8745L40.5905 10.2287" stroke="#292562" stroke-width="1.20544" stroke-linecap="round" stroke-linejoin="round"/>
<path d="M40.9649 10.3179L39.3328 12.1759L39.1777 12.5833L40.9982 11.1376" stroke="#292562" stroke-width="1.20544" stroke-linecap="round" stroke-linejoin="round"/>
<path d="M40.7422 11.9131L40.5938 12.117L40.7387 12.2016L40.7815 12.1519" stroke="#292562" stroke-width="1.20544" stroke-linecap="round" stroke-linejoin="round"/>
<path d="M41.1514 13.6071L41.1172 13.6423L41.3107 13.5469" stroke="#292562" stroke-width="1.20544" stroke-linecap="round" stroke-linejoin="round"/>
<path d="M41.95 14.3721L41.2207 14.9434L41.2744 15.1918L42.025 14.4516" stroke="#292562" stroke-width="1.20544" stroke-linecap="round" stroke-linejoin="round"/>
<path d="M42.8385 14.6695L42.0898 15.2209L42.7982 14.6695L42.9886 14.6348" stroke="#292562" stroke-width="1.20544" stroke-linecap="round" stroke-linejoin="round"/>
<path d="M43.6234 15.0576L43.6025 15.0824L42.5253 16.0661L42.655 16.2747L42.3165 16.3244L42.4368 16.4387L42.3463 16.3145L43.1611 16.1257L43.7491 15.7879L43.7616 15.4998L44.0668 15.4898L42.6689 17.5863L41.9744 18.3464L42.2165 18.3017L42.0873 18.2023L42.1733 18.098L42.9458 18.0185L42.8434 17.8893L43.5881 17.5515L42.2782 18.8283L41.9317 19.4145L43.0318 19.489L44.0464 19.2804L43.0363 20.0355L42.3721 20.7906L42.2394 20.7708L43.2486 20.11L43.4534 19.6033L44.0976 19.181L43.9425 19.1512L44.0489 19.2605L43.0706 20.8353L41.5882 22.0674L43.2655 21.044L43.8361 20.5423L43.5419 20.5571L43.7283 20.6615L43.7019 20.8254L41.5574 22.9268L42.9861 21.3669L43.3241 20.9347L43.1591 21.0042L43.0328 21.4861L41.1731 23.1603L41.3426 23.3193L41.5186 23.2398L41.5121 23.0262L41.8104 22.9715L41.6185 22.9069L42.0565 22.8473L41.872 22.7679L41.9118 22.6337L41.7229 23.2795L41.8874 23.1703L41.71 22.9219L42.1698 22.9616L40.8092 25.0482L42.4954 23.672L42.8315 23.6621L42.7554 23.8211L41.9864 23.9552L41.9108 24.2682L41.0394 25.0928L41.0046 25.4804L40.7148 25.5648L42.3274 24.0099L41.886 24.76L41.015 25.7487L40.4438 27.0006L40.2708 27.1099L40.6581 26.7124L40.9608 26.6478L42.1097 25.3959L41.9287 25.7536L41.5246 25.9175L41.6444 25.9871L41.2198 26.3448L41.2243 26.6131L40.8271 27.3583L41.7125 26.7472L41.528 26.8565L41.1209 27.8202L40.8952 27.9743L41.5176 27.8252L41.3043 27.8054L41.3297 27.4974L42.1087 26.7621L40.4548 29.112L40.1038 29.559L40.0486 29.4547L41.4793 27.86L41.4351 27.7458L41.9158 27.5719L41.5956 27.7159L41.282 28.7691L39.899 31.2581L40.072 31.2332L40.1853 30.8259L41.369 30.1602L41.5733 29.882L41.4848 29.7379L41.8248 29.4547L41.4435 30.4284L40.666 31.4866L40.6496 32.043L40.7838 31.7152L41.1761 31.5661L42.0913 30.662L42.4194 30.6023L42.307 30.6421L42.4581 30.8954L42.0421 30.9799L41.886 31.7797L41.3913 32.197L41.1825 32.7832L40.8808 33.1062L41.0279 33.2254L42.044 32.0529L41.9501 32.2964L40.6437 33.8862L40.0948 34.9642L39.891 34.7704L40.3673 34.5518L40.2773 34.4525L40.7162 33.9656L40.9499 33.9507L39.8284 34.0252L40.1113 34.5816L40.6944 34.4723L41.019 33.9855L40.848 33.9408L39.5783 34.7207L38.9609 34.5071L39.4685 34.8002L40.3618 34.6413L40.2773 34.5568L40.4533 34.5121L40.24 34.4624L40.4558 34.5618L38.8973 35.1331L38.6552 35.3765L38.6179 35.7292L38.3301 35.8932L39.8851 35.4113L40.5442 35.0337L40.2962 35.0188L40.3707 35.0933L40.0088 35.2324" stroke="#292562" stroke-width="1.20544" stroke-linecap="round" stroke-linejoin="round"/>
<path d="M17.6447 34.9489L17.3367 35.0681L17.2909 35.2569L17.0994 35.2171L17.1313 35.1078L17.5625 34.9489L19.0211 34.9687L18.815 34.9886L18.4198 34.5664L17.4029 34.1391L18.9744 34.1838L19.6994 33.8311L19.8275 33.5777L18.8805 33.1406L17.226 33.2349L18.6296 32.7878L19.4804 32.1321L17.7652 32.1171L16.6746 32.5444L16.831 32.4152L18.3271 32.4798L18.9835 32.3059L18.6122 32.1321L16.2249 31.9085L18.065 31.0093L16.9305 30.6317L16.3203 30.7509L15.8518 30.6367L16.2802 30.0902L17.0254 29.7276L17.7649 29.6282L17.8743 29.4742L15.9833 29.1463L15.748 28.9228L17.1675 28.4011L17.5765 28.0534L17.1076 27.4274L17.1732 27.338L16.1293 27.2187L16.0375 26.9803L17.4783 26.8213L17.7689 26.1357L17.5638 25.8575L17.1444 25.8774L18.0223 25.7532L18.518 25.48L18.1887 25.4899L17.7253 25.1471L16.5429 25.0974L16.6068 24.8937L16.1621 24.6453L16.5133 24.6255L16.4654 24.8043" stroke="#292562" stroke-width="1.20544" stroke-linecap="round" stroke-linejoin="round"/>
<path d="M15.6582 19.2453L15.6892 19.4689L15.5964 19.434L15.8129 19.4192L16.0121 19.7918L17.2168 19.8712L17.7081 19.6874L17.7251 19.1906L17.8733 19.0366L17.8265 18.8032L16.6934 17.889L15.8399 17.7996L16.0869 17.8195L15.8146 18.058L16.315 18.7534L16.9666 18.818L17.0192 18.1474L15.3945 15.8174L16.8799 16.6173L17.8847 16.7762L18.6117 16.6818L18.5973 16.026L17.6005 14.6748L16.3663 13.8749L16.2908 13.9842L16.4965 14.0041L16.4528 14.1581L16.8619 14.789L17.7059 15.574L18.4289 15.8174L18.1525 15.4895L18.1779 14.9431L17.8732 14.3022L17.8401 13.7209L16.8674 12.469L17.5117 13.7309L18.8515 14.8089L18.8672 14.332L18.0395 12.6429L17.7589 11.5251L17.714 11.7835L17.9856 12.012L18.3404 12.8018L19.0974 13.7657L19.5081 14.0588L19.3619 14.1581L19.4943 14.0488L19.2208 13.9147L19.335 13.6415L19.1661 12.3995L18.0846 10.9787L17.4569 9.77639L17.7831 10.0397L18.7318 11.6294L19.3327 11.8033L19.0522 11.7337L19.1465 11.5351L18.9867 10.6756L17.9207 8.54932" stroke="#292562" stroke-width="1.20544" stroke-linecap="round" stroke-linejoin="round"/>
<path d="M18.1016 8.18184L18.4575 8.5246L18.8434 9.60764L19.702 10.8993L19.6625 10.6111L19.5181 10.5565L19.8136 9.92062L19.6278 8.28117L18.9908 6.81565L19.0722 6.74609L19.1277 6.90007L18.9555 7.00444L19.6748 8.27123L20.4769 9.09592L20.4858 9.5778L20.7762 9.64239L20.6796 9.20023L20.8688 8.5246L20.6016 7.25283" stroke="#292562" stroke-width="1.20544" stroke-linecap="round" stroke-linejoin="round"/>
<path d="M20.0586 6.46729L20.4447 7.1827L20.6074 7.96264L21.2387 8.86187L21.0899 8.70783L21.182 7.29198" stroke="#292562" stroke-width="1.20544" stroke-linecap="round" stroke-linejoin="round"/>
<path d="M21.3633 7.22257L21.9663 8.02737L22.1582 8.85207L22.5797 7.47096L22.5375 7.02881" stroke="#292562" stroke-width="1.20544" stroke-linecap="round" stroke-linejoin="round"/>
<path d="M22.7031 6.74657L23.9887 8.81319L24.0846 6.79623L23.9777 5.60889" stroke="#292562" stroke-width="1.20544" stroke-linecap="round" stroke-linejoin="round"/>
<path d="M24.043 5.82227L24.2234 6.02591L24.1578 6.38856L24.5431 6.64193L25.5348 7.85911" stroke="#292562" stroke-width="1.20544" stroke-linecap="round" stroke-linejoin="round"/>
<path d="M19.2012 29.7568L18.6255 30.2835L18.7616 30.1791L18.5826 30.4275L18.6238 30.6561L18.3017 31.1976L18.2735 31.8732L17.6391 33.0804L16.0859 35.1173" stroke="#292562" stroke-width="1.20544" stroke-linecap="round" stroke-linejoin="round"/>
<path d="M19.9772 31.2324L19.7148 31.7342L18.5671 32.8868L17.7852 33.93L17.6289 34.7994L17.7656 34.5461" stroke="#292562" stroke-width="1.20544" stroke-linecap="round" stroke-linejoin="round"/>
<path d="M18.07 28.6398L17.7243 28.6249L17.6738 28.8286L17.6427 30.9102L17.8381 32.5893L18.2059 33.8263L18.4882 34.179L18.3322 33.7667L18.6638 32.5794L18.6598 31.7447L18.1619 29.1415L17.7663 28.2821L17.3007 28.1479L17.0887 28.297L16.8789 29.1415L17.0145 29.5191L17.0726 32.0527L17.6341 34.7603L17.6945 35.9874L18.0743 37.4231L18.1539 38.5707L18.2839 38.1335L18.2145 37.2641" stroke="#292562" stroke-width="1.20544" stroke-linecap="round" stroke-linejoin="round"/>
<path d="M36.1182 43.0312L35.9551 43.2648L36.1137 43.2499L35.9427 43.235L36.1077 43.3045L36.0749 43.6424L36.2464 43.9404L35.9228 44.1689L36.1913 44.9688L35.9462 45.4755L35.9268 45.9326L36.0456 45.9822L35.7598 46.2505L35.9169 46.4194L35.8328 46.7026L36.0207 47.1L35.9188 47.3882L36.1033 47.4974L35.9521 47.4627L35.8418 47.6564L36.0546 47.7558L35.8647 48.3917L36.0421 48.6401L35.9109 48.9978L36.0988 49.0177L35.884 49.1816L36.0491 49.2263L35.9253 49.425L36.235 49.6585L35.9616 49.6933L36.1276 49.7231L36.4547 50.3043L36.2539 50.4584L36.6531 50.6123L36.5164 50.6819L36.7202 50.9701L36.6223 51.2483L36.8654 51.2831L36.8957 51.7799L36.6904 51.9686L37.0886 52.0531L37.1552 52.3511" stroke="#292562" stroke-width="1.20544" stroke-linecap="round" stroke-linejoin="round"/>
<path d="M21.4055 47.7167L21.2479 47.6174L21.3881 47.6272L21.3762 47.3342L21.6566 47.0957L21.4353 46.8374L21.3966 46.1568L21.1035 46.2462L21.2266 46.2014L21.4005 46.44L21.2971 47.0708L21.6223 47.5776L22.1229 47.9502L22.6051 48.9239L23.2026 49.1028L23.0659 49.1127L23.0992 49.2916L23.296 49.535L24.1506 49.8132L24.2918 50.0715L25.283 50.156L25.9661 50.5286L25.9397 50.6726L26.5611 50.7471L27.0891 51.2092L27.4733 51.2191L28.4074 51.6066L28.9895 51.6811L30.4451 51.4029L32.3023 51.6364L33.1022 51.5818L34.0258 51.2986L34.5155 51.0105L34.4518 50.8266L34.7422 50.8465L35.2438 50.4292L35.5231 50.459L35.2149 50.5137L35.4401 50.608L35.4173 50.4242L34.9539 50.2603L35.0613 49.9324L34.8361 49.0332L34.8764 48.2135L34.7019 47.98L35.3372 47.1106L35.2472 46.9466L35.0131 46.9368L35.1727 46.9765L35.3899 46.0872L35.291 45.814L35.4709 45.9034L35.1433 45.968L35.2154 45.8736L34.9176 45.645L34.7725 45.6848L34.9703 45.6997L34.8749 45.6003L33.6609 46.1916L32.4594 46.2462L31.8067 46.425L31.5139 46.6834L30.7558 46.7331L28.3333 46.3555L27.2158 46.3455L27.0702 46.1766L26.5919 46.0971L25.6012 46.1667L25.2999 45.9531L24.2943 45.7643L24.4335 45.5954L24.2346 45.5358H23.3512L23.4432 45.4761L23.1524 45.1831L21.9817 44.8552L22.1606 44.7757L22.0552 44.7359L21.7157 44.7508L21.8286 44.7459L21.7843 44.572L21.4801 44.6117L21.5099 44.7111L21.4761 44.5322L21.6133 44.6117L21.3737 44.6167L21.4736 44.7012L21.5646 44.6068L21.4343 44.5621L21.6049 44.567L21.3931 44.7508L21.5785 44.9893L21.6049 45.4761" stroke="#292562" stroke-width="1.20544" stroke-linecap="round" stroke-linejoin="round"/>
<path d="M22.2938 42.0875L21.9747 41.6553L21.9314 41.8987L21.7793 41.8888L22.0651 41.9037L22.0119 42.0179L22.2615 42.1818L22.009 42.5097L22.3778 42.8525L22.2347 44.3131L22.0433 44.6261L22.441 44.6658" stroke="#292562" stroke-width="1.20544" stroke-linecap="round" stroke-linejoin="round"/>
<path d="M20.283 46.4295L19.8786 46.1712L20.1086 46.1562L19.901 46.2208L20.2434 47.2095L19.9234 47.7162L20.2515 48.1385L20.0086 48.3719L20.0266 48.983L19.5892 49.3556L20.0174 49.5543L19.6927 49.6637L19.7506 49.9369L19.4208 50.1455L19.5216 50.2945L18.9875 50.7218L19.0909 51.2534L18.786 51.5465L18.889 51.7899L18.5684 52.5152L18.2949 52.6295L18.3284 52.8332L18.4805 52.863L18.3509 52.8928L18.6225 52.9574L18.5424 53.0667L19.8889 53.0468L20.9457 53.4939L21.8213 54.105L22.8419 54.3832L23.4533 54.8352L24.6976 55.2923L24.9024 55.6103L25.2897 55.5755L25.2772 55.8388L25.6292 55.9282L25.5059 56.0126L26.2705 56.5542L26.9724 56.579L27.6952 56.8771L28.7769 56.9119L31.5011 56.5343L33.9544 55.7792L35.2121 55.0936L35.0555 55.0042L36.2068 54.7657L36.1889 54.6514L36.7417 54.4676L36.9679 54.1696" stroke="#292562" stroke-width="1.20544" stroke-linecap="round" stroke-linejoin="round"/>
<path d="M36.9768 52.7537L36.9648 52.7041L37.0856 50.7219L37.3526 50.6821L37.115 50.5082L37.4873 50.2847L37.4167 50.0313L37.2865 50.0462L37.4774 50.0313L36.7148 50.0214L36.8629 49.9369L36.5358 49.7332L36.6174 49.6736L36.1729 49.5296L36.3425 49.2463L36.1575 49.2017L36.2584 48.4714L36.1307 47.8603L36.5995 47.5672L36.6392 47.4082L36.4722 47.4231L36.4826 47.5275L36.8177 47.3834L36.6233 47.3983L36.7501 47.0008L36.4633 46.9462L36.6954 46.8319L36.6502 46.6282L36.8311 46.4693L36.7088 46.206L36.9112 46.1265L36.8043 45.9576L36.9773 45.7042L36.8948 45.4807L37.0936 44.5168L36.9688 44.2635L37.0926 44.1294L36.2102 44.5318L36.2361 44.6659L35.7086 45.0485L35.127 46.2755L35.0291 47.1549L32.9213 48.377L31.852 48.3819L30.7991 48.8936L29.8228 48.531L29.0363 48.9284L28.2633 48.7148H28.0153L27.7657 48.9433L27.2989 48.8737L26.8798 48.6105L26.5274 48.6303L26.7342 48.5956L25.7564 48.3124L24.6662 47.6963L24.0204 47.7063L23.8842 47.443L23.5835 47.4033L23.7376 47.3734L22.892 47.6765L21.7983 47.6218L21.1908 47.0605L21.1406 46.7624L20.5117 45.8781L20.5453 45.7141" stroke="#292562" stroke-width="1.20544" stroke-linecap="round" stroke-linejoin="round"/>
<path d="M37.0216 54.4181L37.1061 54.2642L36.6602 54.3436L37.1682 54.3386L36.7954 54.279L37.0151 54.3238L36.9062 54.4976L37.3248 54.7112L37.3661 55.054L37.7931 55.2676" stroke="#292562" stroke-width="1.20544" stroke-linecap="round" stroke-linejoin="round"/>
<path d="M40.2935 52.5558L40.119 52.6204L40.0191 52.2329L40.126 52.4664L39.9336 52.5608L40.2537 52.5708L40.114 52.7843L41.2355 53.8028L41.8723 54.1208L42.1507 54.6225L43.1484 55.2137L44.0134 56.2172L44.6627 57.0617L44.9127 58.0852L45.3397 58.3535L45.7071 59.4067L46.334 59.824L46.4289 60.4052L47.0056 61.3193L47.096 61.9254L47.53 62.4371L47.5797 63.3264L48.0659 64.2554L48.0391 64.6478L48.2782 64.9508L48.4248 65.9196L48.6968 66.2922L48.6804 66.625L49.3142 68.339L49.4877 69.4965L49.6791 69.6605L49.941 70.4802L49.8163 70.8131L50.2806 71.6924L50.3378 72.6711L50.6504 73.9081L50.8692 74.231L50.7553 74.4744L51.337 76.9683L51.2862 77.4801L51.4528 78.0265L51.7217 78.3047L51.6278 79.2288L51.7943 79.7951L51.674 80.3366L51.9181 80.5105L51.8192 81.3849L52.0414 81.8022L51.8912 82.2145L52.2273 83.079L52.271 84.2564L52.441 84.4153L52.3153 84.6836L52.5161 85.2549L52.3252 85.6573L52.619 86.0597L52.4157 86.2137L52.5932 86.9241L52.4157 87.9773L52.6011 88.4542L52.2497 90.5209L52.4371 91.2462L52.3481 91.5046L52.4868 91.6039L52.1706 91.6983L52.5469 91.8871L52.5246 92.051L52.4401 91.9815L52.6628 92.4882L52.5131 92.5727L52.5703 93.4073L52.8134 93.7252L52.705 94.7685L52.8716 94.9722L52.7423 95.3001L52.9232 95.4293L52.7473 95.6031L52.9968 95.7422L52.7065 95.9062L52.8059 96.4775L52.6334 96.8053L52.8363 96.9743L52.6513 97.0339L52.6116 96.8401" stroke="#292562" stroke-width="1.20544" stroke-linecap="round" stroke-linejoin="round"/>
<path d="M41.4199 28.6691L41.823 28.982L41.3756 29.7769L41.3125 30.5221L41.8578 32.549L41.6227 33.2545L41.6978 34.2282L41.3617 34.3524L41.5327 33.6618L41.6749 30.7059L41.4915 31.6697L41.5775 32.857L41.8046 33.642L41.6008 34.6356L41.9682 34.9088L41.923 34.6256L42.2898 33.5774L42.8665 27.2681L42.7641 31.5902L43.3437 32.9614L43.299 34.4269L43.4591 34.8342L43.8135 32.9266L43.644 32.4894" stroke="#292562" stroke-width="1.20544" stroke-linecap="round" stroke-linejoin="round"/>
<path d="M24.834 4.20752L25.2028 6.31393L25.4887 6.99453" stroke="#292562" stroke-width="1.20544" stroke-linecap="round" stroke-linejoin="round"/>
<path d="M27.1768 3.58643L27.0078 3.67581L27.2091 3.66587L27.1405 3.9888L27.4751 5.44443L27.5174 6.33366L28.2123 7.61045L28.1905 7.93338" stroke="#292562" stroke-width="1.20544" stroke-linecap="round" stroke-linejoin="round"/>
<path d="M30.011 3.49658L29.9414 7.84354L30.3411 9.39851" stroke="#292562" stroke-width="1.20544" stroke-linecap="round" stroke-linejoin="round"/>
<path d="M31.2473 3.58597L31.2265 2.97984L31.394 2.41846L31.4934 2.5526L31.1409 3.00967L30.7383 7.72425L31.2498 8.44955L31.7325 8.54895" stroke="#292562" stroke-width="1.20544" stroke-linecap="round" stroke-linejoin="round"/>
<path d="M27.4878 4.0681L27.3242 3.91406L27.4669 4.01843L27.356 4.59467L27.6876 6.63158L28.6799 8.9019" stroke="#292562" stroke-width="1.20544" stroke-linecap="round" stroke-linejoin="round"/>
<path d="M26.3242 6.79053L26.7244 8.10207L26.8686 9.29439L27.0933 9.61726L26.9078 9.62721" stroke="#292562" stroke-width="1.20544" stroke-linecap="round" stroke-linejoin="round"/>
<path d="M24.4609 5.49902L24.6747 7.04405L25.0396 7.68991L25.1345 8.87719L25.3339 9.3641L25.2697 9.74658" stroke="#292562" stroke-width="1.20544" stroke-linecap="round" stroke-linejoin="round"/>
<path d="M20.0703 5.97559L20.4354 6.14448L21.3051 7.65476" stroke="#292562" stroke-width="1.20544" stroke-linecap="round" stroke-linejoin="round"/>
<path d="M35.9106 6.42789L35.6476 5.44922L35.5954 6.42292L34.9531 9.42358L34.9536 10.1638L35.3782 11.3313" stroke="#292562" stroke-width="1.20544" stroke-linecap="round" stroke-linejoin="round"/>
<path d="M38.6278 6.5121L38.5135 6.39784L38.6075 6.0153L38.4046 5.86133L38.5632 5.98055L38.0065 6.32829L37.1017 7.44607L36.2422 9.98475L36.3177 10.8094" stroke="#292562" stroke-width="1.20544" stroke-linecap="round" stroke-linejoin="round"/>
<path d="M39.6641 6.55762L39.5254 6.64701L39.5776 6.84076L39.1878 7.03949L37.6478 9.37938L37.2734 10.3779" stroke="#292562" stroke-width="1.20544" stroke-linecap="round" stroke-linejoin="round"/>
<path d="M40.7061 7.77898L40.9278 7.73926L40.7354 7.7492L40.2656 9.07063L39.2207 10.7697L38.8086 12.5581" stroke="#292562" stroke-width="1.20544" stroke-linecap="round" stroke-linejoin="round"/>
<path d="M42.6894 9.39307L42.503 10.0439L41.5346 11.4697L41.4471 11.9516L40.7109 12.7614L40.5781 13.2829" stroke="#292562" stroke-width="1.20544" stroke-linecap="round" stroke-linejoin="round"/>
<path d="M41.2714 15.2511L41.084 15.3256L41.2132 14.476L41.7347 13.09L43.3394 10.4321" stroke="#292562" stroke-width="1.20544" stroke-linecap="round" stroke-linejoin="round"/>
<path d="M41.7734 15.0777L43.1534 11.7094L44.0855 10.1743" stroke="#292562" stroke-width="1.20544" stroke-linecap="round" stroke-linejoin="round"/>
<path d="M41.757 12.1016L41.2624 9.85616L41.0605 5.45947" stroke="#292562" stroke-width="1.20544" stroke-linecap="round" stroke-linejoin="round"/>
<path d="M40.6874 10.685L39.9154 9.13996L39.6484 7.18262" stroke="#292562" stroke-width="1.20544" stroke-linecap="round" stroke-linejoin="round"/>
<path d="M18.1177 7.35704L17.9102 6.125L17.9645 7.15334L18.3634 8.79776L19.0323 13.6117" stroke="#292562" stroke-width="1.20544" stroke-linecap="round" stroke-linejoin="round"/>
<path d="M17.8633 6.98438L17.8587 8.0525L18.1 8.72813L18.1638 10.1787L18.0176 12.772L17.7988 13.8501" stroke="#292562" stroke-width="1.20544" stroke-linecap="round" stroke-linejoin="round"/>
<path d="M40.3848 9.05566L40.868 9.87035L41.7886 13.1244" stroke="#292562" stroke-width="1.20544" stroke-linecap="round" stroke-linejoin="round"/>
<path d="M40.9863 11.6738L41.2513 14.4012" stroke="#292562" stroke-width="1.20544" stroke-linecap="round" stroke-linejoin="round"/>
<path d="M22.4373 3.67608L22.2285 3.72078L22.3677 3.53199L22.2454 3.50222L22.2116 3.10476L22.1008 3.02034L22.1052 3.12465L22.3891 3.22398L21.8984 2.97559L22.1853 3.05012L22.0704 5.93652L23.1025 10.4723L23.3535 12.9513" stroke="#292562" stroke-width="1.20544" stroke-linecap="round" stroke-linejoin="round"/>
<path d="M24.0963 2.4784L23.976 1.12216L23.8268 1.11719L23.8403 1.63885L23.453 2.13067L23.3894 2.4536L23.2949 3.56641L23.5231 4.48547L23.3576 4.92265L23.537 5.47409L23.3665 6.68133L23.5708 7.69475L24.2742 9.33917" stroke="#292562" stroke-width="1.20544" stroke-linecap="round" stroke-linejoin="round"/>
<path d="M26.043 3.10469L26.2393 2.31977L26.205 1.75342L26.3049 2.28993L26.1812 2.73209L26.7583 3.98402L26.9621 5.62347L27.7222 8.15214" stroke="#292562" stroke-width="1.20544" stroke-linecap="round" stroke-linejoin="round"/>
<path d="M28.7795 1.90201L28.7656 1.27604L29.1459 0.610352L29.2583 0.749408L28.8944 1.18659L28.958 1.84239L29.2513 3.20858L29.4949 6.16946L30.2381 9.89045" stroke="#292562" stroke-width="1.20544" stroke-linecap="round" stroke-linejoin="round"/>
<path d="M33.4336 4.69441L33.3516 4.52546L33.5121 4.14795L33.3839 4.23734L33.533 4.28203L33.4346 5.05209L33.9749 8.42535" stroke="#292562" stroke-width="1.20544" stroke-linecap="round" stroke-linejoin="round"/>
<path d="M35.3795 5.76245L35.0847 5.16626L35.0037 4.58008L35.213 5.28052L35.0022 5.68295L34.9043 6.58212L34.9873 8.09736L35.3268 8.91709" stroke="#292562" stroke-width="1.20544" stroke-linecap="round" stroke-linejoin="round"/>
<path d="M26.2914 32.2412L25.0292 35.0531L25.0078 35.6244" stroke="#292562" stroke-width="1.20544" stroke-linecap="round" stroke-linejoin="round"/>
<path d="M27.1744 32.2261L26.2806 34.099L25.6055 36.3992L25.6159 36.6675L25.9997 37.0698L25.8784 37.1294" stroke="#292562" stroke-width="1.20544" stroke-linecap="round" stroke-linejoin="round"/>
<path d="M27.8037 33.528L27.9245 33.4585L27.7346 33.5181L27.8007 33.7168L27.587 33.7615L27.579 35.5699L27.3633 36.474L27.6208 37.4825" stroke="#292562" stroke-width="1.20544" stroke-linecap="round" stroke-linejoin="round"/>
<path d="M29.3491 33.0068L29.3242 34.1693L29.5504 34.5767L29.3829 34.7009L29.4003 35.615L29.6309 36.8471L29.8879 37.2296" stroke="#292562" stroke-width="1.20544" stroke-linecap="round" stroke-linejoin="round"/>
<path d="M30.7026 32.9121L30.5182 33.0711L30.5117 33.3493L30.7464 33.4685L30.7334 33.7318L30.9855 33.8511L31.0093 34.0697L30.63 34.5665L30.6459 34.8496L30.9676 35.719L30.9422 36.6878L31.2718 37.4081" stroke="#292562" stroke-width="1.20544" stroke-linecap="round" stroke-linejoin="round"/>
<path d="M31.7871 32.6387L31.6523 32.7132L31.887 32.7877L31.8557 33.7117L32.6307 34.9339L32.7723 35.689L33.0587 36.2205" stroke="#292562" stroke-width="1.20544" stroke-linecap="round" stroke-linejoin="round"/>
<path d="M33.6083 32.7676L33.4646 32.852L33.6157 33.2445L33.3145 33.2693L33.7007 33.1302L34.0199 33.6916L34.258 34.8342L34.1476 35.0727L34.4872 35.6539L34.765 36.7618" stroke="#292562" stroke-width="1.20544" stroke-linecap="round" stroke-linejoin="round"/>
<path d="M30.3025 29.3999L30.2891 30.5674L30.5277 32.3807L30.908 33.0464L30.988 33.563" stroke="#292562" stroke-width="1.20544" stroke-linecap="round" stroke-linejoin="round"/>
<path d="M28.0861 31.1636L27.5129 32.6837L27.1172 34.6014" stroke="#292562" stroke-width="1.20544" stroke-linecap="round" stroke-linejoin="round"/>
<path d="M27.2624 31.2075L26.9368 31.3913L26.3666 32.365L26.1797 34.0939L26.2945 35.1322" stroke="#292562" stroke-width="1.20544" stroke-linecap="round" stroke-linejoin="round"/>
<path d="M32.1914 31.4663L33.3114 33.4087L33.2075 33.6571" stroke="#292562" stroke-width="1.20544" stroke-linecap="round" stroke-linejoin="round"/>
<path d="M32.5802 32.5942L32.0721 32.6638L31.6993 33.1258L31.8519 33.4438L31.7783 33.6574L30.9531 34.3678L31.1952 34.5566L31.142 34.8696" stroke="#292562" stroke-width="1.20544" stroke-linecap="round" stroke-linejoin="round"/>
<path d="M30.4286 31.8832H28.9378L28.9785 32.0471L29.3181 32.0869L29.0814 32.0571L29.2753 31.9031L29.0417 31.8435L29.1988 31.8335L28.9442 31.8037L29.0745 31.8335L28.8398 33.4928L29.2256 35.1969" stroke="#292562" stroke-width="1.20544" stroke-linecap="round" stroke-linejoin="round"/>
<path d="M29.3364 32.1962H29.1763L29.2051 32.0273L29.1251 32.1614L28.9372 32.1068L28.625 34.2977L28.6643 35.2714L29.0048 36.6624" stroke="#292562" stroke-width="1.20544" stroke-linecap="round" stroke-linejoin="round"/>
<path d="M28.3778 35.4063L28.2773 35.6547L28.3633 35.4014L29.026 35.6498L30.9687 36.852L32.5282 37.0508L33.6238 36.8172" stroke="#292562" stroke-width="1.20544" stroke-linecap="round" stroke-linejoin="round"/>
<path d="M27.9052 30.4673L27.6089 30.5219L27.6342 30.6511L27.0511 30.9939L26.8488 31.4757L26.3507 31.9577L26.1334 32.7029L25.6721 33.0258L25.8004 33.14L25.3848 33.6567L25.4653 33.8504L25.1337 33.9647L24.404 34.6205L24.5272 34.8043L24.1181 35.3706L24.2081 35.6836L23.8825 35.937L23.6071 36.7567L23.4579 36.8362L23.4838 37.636L23.3516 37.7304L23.5395 37.9589" stroke="#292562" stroke-width="1.20544" stroke-linecap="round" stroke-linejoin="round"/>
<path d="M32.4294 32.4601L31.5883 32.8575L31.9154 32.6091L31.8239 32.4253L31.5645 32.4949L31.7618 32.5694L31.7404 32.4651L31.6997 32.7035" stroke="#292562" stroke-width="1.20544" stroke-linecap="round" stroke-linejoin="round"/>
<path d="M24.4896 35.698L24.4414 35.5093L25.2303 36.0855L26.2529 36.16L27.8904 36.0706L30.208 35.6384" stroke="#292562" stroke-width="1.20544" stroke-linecap="round" stroke-linejoin="round"/>
<path d="M24.3047 36.8521L30.9844 36.8818" stroke="#292562" stroke-width="1.20544" stroke-linecap="round" stroke-linejoin="round"/>
<path d="M38.9755 37.0309L38.3799 37.3488L38.4719 37.1054L38.192 36.9067L38.279 36.708L38.277 36.8172L38.536 36.7576L38.0807 36.698L37.8555 36.5738L38.0434 36.4099L37.8709 36.4149L38.1264 36.7278L40.01 36.7576L42.6024 36.3403" stroke="#292562" stroke-width="1.20544" stroke-linecap="round" stroke-linejoin="round"/>
<path d="M15.643 35.167L15.3311 35.2266L15.2366 34.8341L15.1016 34.9136L15.355 34.8937L15.1722 34.7447L15.3767 34.7547L15.6057 34.4467L17.7981 34.5709L19.1853 34.3423" stroke="#292562" stroke-width="1.20544" stroke-linecap="round" stroke-linejoin="round"/>
</svg>
