<svg width="140" height="140" viewBox="0 0 140 140" fill="none" xmlns="http://www.w3.org/2000/svg">
<circle cx="70" cy="70" r="68.5" transform="rotate(180 70 70)" fill="black" stroke="#111111" stroke-width="3"/>
<circle cx="70" cy="78" r="22" stroke="white" stroke-width="2"/>
<circle cx="70" cy="78" r="27" transform="rotate(180 70 78)" stroke="white" stroke-width="4"/>
<path d="M93 34C93 33.4477 92.5523 33 92 33C91.4477 33 91 33.4477 91 34L93 34ZM92 34L91 34L91 78L92 78L93 78L93 34L92 34Z" fill="white"/>
<path d="M99 34C99 32.8954 98.1046 32 97 32C95.8954 32 95 32.8954 95 34L99 34ZM97 34L95 34L95 78L97 78L99 78L99 34L97 34Z" fill="white"/>
<circle cx="70" cy="70" r="64" transform="rotate(180 70 70)" stroke="white" stroke-width="2"/>
<circle cx="70" cy="70" r="68.5" transform="rotate(180 70 70)" stroke="white" stroke-width="3"/>
</svg>
