<svg width="577" height="558" viewBox="0 0 577 558" fill="none" xmlns="http://www.w3.org/2000/svg">
<ellipse cx="288.5" cy="279" rx="288.5" ry="279" fill="white"/>
<path d="M185.362 142.739L177.861 139.338L169.856 137.402L161.629 137L153.473 138.147L145.677 140.802L140.816 143.365L136.315 146.518L130.391 152.239L125.644 158.97L122.242 166.471L120.784 171.769L120 177.208L120.116 185.443L121.773 193.511L124.912 201.125L129.423 208.016L135.144 213.94L141.875 218.687L146.806 221.113L152.002 222.902L160.113 224.331L168.348 224.215L176.416 222.559L184.03 219.419L190.921 214.909L196.845 209.187L201.592 202.457L204.994 194.956L206.93 186.951L207.331 178.724L206.184 170.569L204.577 165.313L202.324 160.302L197.814 153.41L192.092 147.486L185.362 142.739Z" fill="white" stroke="#292562" stroke-width="2" stroke-linecap="round" stroke-linejoin="round"/>
<path d="M148.973 166.323L145.462 165.016L143.586 164.878L141.107 165.243L137.751 166.908L135.243 169.691L133.938 173.202L134.014 176.947L134.578 178.742L135.829 180.913L138.613 183.42L142.124 184.726L145.868 184.649L149.322 183.198L150.785 182.014L152.341 180.051L153.647 176.541L153.57 172.795L152.746 170.429L151.755 168.83L148.973 166.323Z" fill="white" stroke="#292562" stroke-width="2" stroke-linecap="round" stroke-linejoin="round"/>
<path d="M185.709 166.992L182.198 165.685L180.322 165.547L177.843 165.912L174.488 167.577L171.981 170.36L170.674 173.871L170.751 177.616L171.314 179.412L172.566 181.582L175.349 184.089L178.86 185.395L182.605 185.318L186.058 183.867L187.521 182.684L189.078 180.72L190.384 177.21L190.307 173.465L189.483 171.098L188.492 169.499L185.709 166.992Z" fill="white" stroke="#292562" stroke-width="2" stroke-linecap="round" stroke-linejoin="round"/>
<path d="M180.33 176.607L180.078 176.701L180.082 176.464L179.648 177.058L179.937 177.291L179.297 178.225L179.372 178.691L178.824 179.881L178.906 180.609L180.012 181.142L179.697 181.41L181.424 182.253L183.507 181.889L183.409 182.057L183.634 182.083L185.295 181.351L184.945 180.951L185.204 180.825L185.187 179.506L185.666 179.021L185.28 178.357L185.331 177.532L185.645 177.495L184.979 177.152L185.108 176.824L183.24 175.995L183.785 175.935L182.537 176.306L182.867 176.469L182.447 176.385L182.475 176.553L182.958 176.403L182.44 176.602L183.126 176.445L182.516 176.491L182.895 176.343L183.243 176.449L182.638 176.389L182.953 176.385L182.732 176.391L182.91 176.474L182.993 176.032L183.002 176.239L182.72 176.157L182.963 176.248L182.755 176.236L183.136 175.857L183.582 175.785" fill="white"/>
<path d="M180.33 176.607L180.078 176.701L180.082 176.464L179.648 177.058L179.937 177.291L179.297 178.225L179.372 178.691L178.824 179.881L178.906 180.609L180.012 181.142L179.697 181.41L181.424 182.253L183.507 181.889L183.409 182.057L183.634 182.083L185.295 181.351L184.945 180.951L185.204 180.825L185.187 179.506L185.666 179.021L185.28 178.357L185.331 177.532L185.645 177.495L184.979 177.152L185.108 176.824L183.24 175.995L183.785 175.935L182.537 176.306L182.867 176.469L182.447 176.385L182.475 176.553L182.958 176.403L182.44 176.602L183.126 176.445L182.516 176.491L182.895 176.343L183.243 176.449L182.638 176.389L182.953 176.385L182.732 176.391L182.91 176.474L182.993 176.032L183.002 176.239L182.72 176.157L182.963 176.248L182.755 176.236L183.136 175.857L183.582 175.785" stroke="#292562" stroke-width="5" stroke-linecap="round" stroke-linejoin="round"/>
<path d="M143.916 175.854L143.665 175.949L143.669 175.712L143.235 176.306L143.523 176.539L142.884 177.473L142.959 177.939L142.41 179.128L142.492 179.857L143.599 180.39L143.284 180.658L145.011 181.501L147.094 181.136L146.995 181.305L147.22 181.331L148.882 180.599L148.532 180.199L148.791 180.073L148.774 178.754L149.253 178.269L148.867 177.605L148.918 176.78L149.231 176.743L148.566 176.4L148.695 176.072L146.826 175.243L147.372 175.183L146.124 175.553L146.454 175.717L146.033 175.633L146.062 175.8L146.545 175.65L146.027 175.85L146.713 175.693L146.103 175.739L146.482 175.591L146.83 175.697L146.225 175.637L146.54 175.633L146.319 175.639L146.496 175.722L146.579 175.279L146.589 175.487L146.307 175.405L146.55 175.496L146.342 175.484L146.723 175.104L147.169 175.033" fill="white"/>
<path d="M143.916 175.854L143.665 175.949L143.669 175.712L143.235 176.306L143.523 176.539L142.884 177.473L142.959 177.939L142.41 179.128L142.492 179.857L143.599 180.39L143.284 180.658L145.011 181.501L147.094 181.136L146.995 181.305L147.22 181.331L148.882 180.599L148.532 180.199L148.791 180.073L148.774 178.754L149.253 178.269L148.867 177.605L148.918 176.78L149.231 176.743L148.566 176.4L148.695 176.072L146.826 175.243L147.372 175.183L146.124 175.553L146.454 175.717L146.033 175.633L146.062 175.8L146.545 175.65L146.027 175.85L146.713 175.693L146.103 175.739L146.482 175.591L146.83 175.697L146.225 175.637L146.54 175.633L146.319 175.639L146.496 175.722L146.579 175.279L146.589 175.487L146.307 175.405L146.55 175.496L146.342 175.484L146.723 175.104L147.169 175.033" stroke="#292562" stroke-width="5" stroke-linecap="round" stroke-linejoin="round"/>
<path d="M183.512 160.429L183.401 161.603L182.69 162.247L182.754 162.854L182.252 163.648L182.369 163.929L181.617 164.229L181.576 164.731L180.727 165.345L180.524 166.05L179.83 166.254L178.851 167.373L177.962 167.377L177.658 167.745L177.991 167.741L176.288 168.267L176.046 168.724L174.185 169.238L173.378 168.979L172.572 169.116L170.105 168.348L169.796 167.843L169.318 167.969L169.489 167.791L168.539 167.688L168.466 167.417L167.766 167.546L168.388 167.19L167.006 167.198L166.858 167.004L167.338 166.963L166.95 167.028L166.916 166.685L166.575 166.805L167.019 166.99L166.427 167.116L166.914 167.094L166.614 167.098L166.856 167.104L166.342 167.732" fill="white"/>
<path d="M183.512 160.429L183.401 161.603L182.69 162.247L182.754 162.854L182.252 163.648L182.369 163.929L181.617 164.229L181.576 164.731L180.727 165.345L180.524 166.05L179.83 166.254L178.851 167.373L177.962 167.377L177.658 167.745L177.991 167.741L176.288 168.267L176.046 168.724L174.185 169.238L173.378 168.979L172.572 169.116L170.105 168.348L169.796 167.843L169.318 167.969L169.489 167.791L168.539 167.688L168.466 167.417L167.766 167.546L168.388 167.19L167.006 167.198L166.858 167.004L167.338 166.963L166.95 167.028L166.916 166.685L166.575 166.805L167.019 166.99L166.427 167.116L166.914 167.094L166.614 167.098L166.856 167.104L166.342 167.732" stroke="#292562" stroke-width="5.25" stroke-linecap="round" stroke-linejoin="round"/>
<path d="M156.997 169.104L156.047 169.803L155.093 169.701L154.683 170.153L153.756 170.308L153.625 170.582L152.901 170.22L152.498 170.524L151.475 170.3L150.814 170.618L150.2 170.236L148.712 170.25L148.118 169.589L147.641 169.608L147.865 169.854L146.339 168.933L145.837 169.057L144.214 168.011L143.87 167.237L143.231 166.726L142.162 164.375L142.332 163.808L141.921 163.535L142.167 163.544L141.611 162.767L141.765 162.532L141.202 162.096L141.882 162.322L140.956 161.296L141.003 161.057L141.353 161.388L141.045 161.142L141.279 160.888L140.963 160.713L141.12 161.168L140.632 160.81L140.972 161.159L140.77 160.937L140.927 161.122L140.115 161.157" fill="white"/>
<path d="M156.997 169.104L156.047 169.803L155.093 169.701L154.683 170.153L153.756 170.308L153.625 170.582L152.901 170.22L152.498 170.524L151.475 170.3L150.814 170.618L150.2 170.236L148.712 170.25L148.118 169.589L147.641 169.608L147.865 169.854L146.339 168.933L145.837 169.057L144.214 168.011L143.87 167.237L143.231 166.726L142.162 164.375L142.332 163.808L141.921 163.535L142.167 163.544L141.611 162.767L141.765 162.532L141.202 162.096L141.882 162.322L140.956 161.296L141.003 161.057L141.353 161.388L141.045 161.142L141.279 160.888L140.963 160.713L141.12 161.168L140.632 160.81L140.972 161.159L140.77 160.937L140.927 161.122L140.115 161.157" stroke="#292562" stroke-width="5.25" stroke-linecap="round" stroke-linejoin="round"/>
<path d="M145.191 204.245L196.279 189.649Z" fill="white"/>
<path d="M145.191 204.245L196.279 189.649" stroke="#292562" stroke-width="2.5" stroke-linecap="round" stroke-linejoin="round"/>
<path d="M148.773 226.835L204.222 210.992Z" fill="white"/>
<path d="M148.773 226.835L204.222 210.992" stroke="#292562" stroke-width="2.5" stroke-linecap="round" stroke-linejoin="round"/>
<path d="M196.079 195.097L195.246 193.28L194.425 192.762L193.512 190.522L193.492 185.649" fill="white"/>
<path d="M196.079 195.097L195.246 193.28L194.425 192.762L193.512 190.522L193.492 185.649" stroke="#292562" stroke-width="2.5" stroke-linecap="round" stroke-linejoin="round"/>
<path d="M193.847 185.234L193.844 186.854L196.297 193.481L199.146 204.784L201.862 211.862" fill="white"/>
<path d="M193.847 185.234L193.844 186.854L196.297 193.481L199.146 204.784L201.862 211.862" stroke="#292562" stroke-width="2.5" stroke-linecap="round" stroke-linejoin="round"/>
<path d="M148.944 212.122L148.112 210.304L147.291 209.786L146.378 207.546L146.354 201.949L147.159 200.445L146.426 201.438L146.714 201.728L146.709 203.878L149.163 210.505L152.012 221.808L154.618 228.604" fill="white"/>
<path d="M148.944 212.122L148.112 210.304L147.291 209.786L146.378 207.546L146.354 201.949L147.159 200.445L146.426 201.438L146.714 201.728L146.709 203.878L149.163 210.505L152.012 221.808L154.618 228.604" stroke="#292562" stroke-width="2.5" stroke-linecap="round" stroke-linejoin="round"/>
<path d="M153.672 210.87L195.181 198.662Z" fill="white"/>
<path d="M153.672 210.87L195.181 198.662" stroke="#292562" stroke-width="7.25" stroke-linecap="round" stroke-linejoin="round"/>
<path d="M151.236 211.012L152.83 211.01L154.105 210.255L153.879 209.926L156.641 209.673L165.308 206.479L168.861 206.041L174.627 203.437L178.581 202.541L181.183 201.478L183.322 201.185L184.304 200.599L185.173 200.651L188.008 199.588L187.835 199.38L188.362 199.452" fill="white"/>
<path d="M151.236 211.012L152.83 211.01L154.105 210.255L153.879 209.926L156.641 209.673L165.308 206.479L168.861 206.041L174.627 203.437L178.581 202.541L181.183 201.478L183.322 201.185L184.304 200.599L185.173 200.651L188.008 199.588L187.835 199.38L188.362 199.452" stroke="#292562" stroke-width="7.25" stroke-linecap="round" stroke-linejoin="round"/>
<path d="M154.512 205.199L156.107 205.197L157.381 204.442L157.155 204.113L159.917 203.86L168.584 200.666L172.137 200.228L177.903 197.624L181.858 196.728L184.459 195.665L186.598 195.372L187.58 194.786L188.449 194.838L191.285 193.775L191.111 193.566L191.638 193.638" fill="white"/>
<path d="M154.512 205.199L156.107 205.197L157.381 204.442L157.155 204.113L159.917 203.86L168.584 200.666L172.137 200.228L177.903 197.624L181.858 196.728L184.459 195.665L186.598 195.372L187.58 194.786L188.449 194.838L191.285 193.775L191.111 193.566L191.638 193.638" stroke="#292562" stroke-width="7.25" stroke-linecap="round" stroke-linejoin="round"/>
<path d="M160.137 216.861L161.731 216.859L163.005 216.104L162.779 215.775L165.541 215.523L174.208 212.328L177.761 211.89L183.527 209.286L187.482 208.39L190.083 207.327L192.222 207.034L193.204 206.449L194.073 206.5L196.909 205.437L196.735 205.229L197.262 205.301" fill="white"/>
<path d="M160.137 216.861L161.731 216.859L163.005 216.104L162.779 215.775L165.541 215.523L174.208 212.328L177.761 211.89L183.527 209.286L187.482 208.39L190.083 207.327L192.222 207.034L193.204 206.449L194.073 206.5L196.909 205.437L196.735 205.229L197.262 205.301" stroke="#292562" stroke-width="7.25" stroke-linecap="round" stroke-linejoin="round"/>
<path d="M162.584 210.815L162.618 213.247L163.13 214.336L162.992 214.736L163.49 215.743L165.302 217.037L165.242 217.708" fill="white"/>
<path d="M162.584 210.815L162.618 213.247L163.13 214.336L162.992 214.736L163.49 215.743L165.302 217.037L165.242 217.708" stroke="white" stroke-width="2" stroke-linecap="round" stroke-linejoin="round"/>
<path d="M168.35 206.102L168.531 206.48L167.811 206.989L168.395 207.005L168.061 207.28L168.517 208.424L168.282 209.345L168.986 210.31L170.128 213.088L171.036 218.51L170.838 219.439" fill="white"/>
<path d="M168.35 206.102L168.531 206.48L167.811 206.989L168.395 207.005L168.061 207.28L168.517 208.424L168.282 209.345L168.986 210.31L170.128 213.088L171.036 218.51L170.838 219.439" stroke="white" stroke-width="2" stroke-linecap="round" stroke-linejoin="round"/>
<path d="M160.728 207.964L160.108 207.867L159.367 208.372L159.925 208.385L167.107 206.41L170.561 204.92" fill="white"/>
<path d="M160.728 207.964L160.108 207.867L159.367 208.372L159.925 208.385L167.107 206.41L170.561 204.92" stroke="white" stroke-width="2" stroke-linecap="round" stroke-linejoin="round"/>
<path d="M162.658 214.481L162.568 214.759L163.071 214.844L163.125 214.445L171.202 212.412L174.219 210.608" fill="white"/>
<path d="M162.658 214.481L162.568 214.759L163.071 214.844L163.125 214.445L171.202 212.412L174.219 210.608" stroke="white" stroke-width="2" stroke-linecap="round" stroke-linejoin="round"/>
<path d="M184.662 198.816L183.027 199.885L182.557 200.979L183.18 201.717L183.17 204.354L185.077 207.491" fill="white"/>
<path d="M184.662 198.816L183.027 199.885L182.557 200.979L183.18 201.717L183.17 204.354L185.077 207.491" stroke="white" stroke-width="2" stroke-linecap="round" stroke-linejoin="round"/>
<path d="M187.067 215.25L186.926 216.085L188.305 215.273" fill="white"/>
<path d="M187.067 215.25L186.926 216.085L188.305 215.273" stroke="white" stroke-width="2" stroke-linecap="round" stroke-linejoin="round"/>
<path d="M193.145 200.732L195.616 198.508L196.916 198.445L197.481 200.001L196.775 200.634L196.663 202.905L196.136 203.418L196.226 204.283L195.568 205.046L196.246 205.853" fill="white"/>
<path d="M193.145 200.732L195.616 198.508L196.916 198.445L197.481 200.001L196.775 200.634L196.663 202.905L196.136 203.418L196.226 204.283L195.568 205.046L196.246 205.853" stroke="white" stroke-width="2" stroke-linecap="round" stroke-linejoin="round"/>
<path d="M85.361 219.739L77.861 216.337L69.855 214.401L61.629 214L53.473 215.147L45.677 217.802L40.816 220.365L36.315 223.517L30.391 229.239L25.644 235.97L22.242 243.47L20.783 248.769L20 254.208L20.116 262.443L21.773 270.511L24.912 278.125L29.422 285.016L35.144 290.94L41.875 295.687L46.805 298.113L52.001 299.902L60.113 301.331L68.348 301.215L76.416 299.558L84.03 296.419L90.921 291.909L96.845 286.187L101.592 279.457L104.994 271.956L106.93 263.95L107.331 255.724L106.184 247.568L104.577 242.313L102.324 237.301L97.814 230.41L92.092 224.486L85.361 219.739Z" fill="white" stroke="#292562" stroke-width="2" stroke-linecap="round" stroke-linejoin="round"/>
<path d="M48.9745 243.323L45.4635 242.016L43.5875 241.878L41.1085 242.243L37.7525 243.908L35.2455 246.691L33.9395 250.202L34.0164 253.947L34.5785 255.742L35.8315 257.912L38.6145 260.42L42.1245 261.726L45.8705 261.649L49.3235 260.198L50.7865 259.014L52.3425 257.051L53.6495 253.54L53.5715 249.795L52.7485 247.429L51.7575 245.83L48.9745 243.323Z" fill="white" stroke="#292562" stroke-width="2" stroke-linecap="round" stroke-linejoin="round"/>
<path d="M85.7108 243.991L82.1998 242.685L80.3238 242.547L77.8448 242.912L74.4898 244.577L71.9818 247.36L70.6758 250.871L70.7528 254.616L71.3148 256.411L72.5678 258.582L75.3508 261.089L78.8618 262.395L82.6068 262.318L86.0598 260.867L87.5228 259.683L89.0788 257.72L90.3858 254.209L90.3078 250.464L89.4848 248.098L88.4938 246.499L85.7108 243.991Z" fill="white" stroke="#292562" stroke-width="2" stroke-linecap="round" stroke-linejoin="round"/>
<path d="M80.3302 253.606L80.0792 253.701L80.0832 253.464L79.6492 254.058L79.9372 254.291L79.2982 255.224L79.3732 255.691L78.8242 256.88L78.9062 257.609L80.0132 258.142L79.6982 258.41L81.4252 259.253L83.5082 258.888L83.4092 259.057L83.6342 259.083L85.2962 258.351L84.9462 257.951L85.2052 257.825L85.1882 256.506L85.6672 256.021L85.2802 255.357L85.3322 254.532L85.6452 254.495L84.9802 254.152L85.1092 253.824L83.2402 252.995L83.7862 252.935L82.5382 253.305L82.8682 253.469L82.4472 253.385L82.4762 253.552L82.9592 253.402L82.4412 253.602L83.1272 253.445L82.5172 253.491L82.8952 253.343L83.2442 253.449L82.6392 253.389L82.9542 253.385L82.7332 253.391L82.9102 253.474L82.9932 253.031L83.0032 253.239L82.7212 253.157L82.9642 253.248L82.7562 253.236L83.1372 252.856L83.5832 252.785" fill="white"/>
<path d="M80.3302 253.606L80.0792 253.701L80.0832 253.464L79.6492 254.058L79.9372 254.291L79.2982 255.224L79.3732 255.691L78.8242 256.88L78.9062 257.609L80.0132 258.142L79.6982 258.41L81.4252 259.253L83.5082 258.888L83.4092 259.057L83.6342 259.083L85.2962 258.351L84.9462 257.951L85.2052 257.825L85.1882 256.506L85.6672 256.021L85.2802 255.357L85.3322 254.532L85.6452 254.495L84.9802 254.152L85.1092 253.824L83.2402 252.995L83.7862 252.935L82.5382 253.305L82.8682 253.469L82.4472 253.385L82.4762 253.552L82.9592 253.402L82.4412 253.602L83.1272 253.445L82.5172 253.491L82.8952 253.343L83.2442 253.449L82.6392 253.389L82.9542 253.385L82.7332 253.391L82.9102 253.474L82.9932 253.031L83.0032 253.239L82.7212 253.157L82.9642 253.248L82.7562 253.236L83.1372 252.856L83.5832 252.785" stroke="#292562" stroke-width="5" stroke-linecap="round" stroke-linejoin="round"/>
<path d="M43.9181 252.854L43.6661 252.949L43.6711 252.712L43.2371 253.305L43.5251 253.539L42.8861 254.472L42.9601 254.939L42.4121 256.128L42.4941 256.856L43.6011 257.39L43.2861 257.658L45.0131 258.501L47.0961 258.136L46.9971 258.304L47.2221 258.33L48.8841 257.599L48.5341 257.198L48.7931 257.072L48.7761 255.754L49.2551 255.268L48.8681 254.605L48.9191 253.779L49.2331 253.743L48.5681 253.4L48.6971 253.072L46.8281 252.243L47.3731 252.183L46.1251 252.553L46.4561 252.717L46.0351 252.633L46.0641 252.8L46.5471 252.65L46.0281 252.849L46.7151 252.693L46.1051 252.739L46.4831 252.591L46.8311 252.697L46.2271 252.637L46.5421 252.633L46.3211 252.638L46.4981 252.721L46.5811 252.279L46.5911 252.487L46.3091 252.405L46.5521 252.496L46.3441 252.484L46.7251 252.104L47.1711 252.033" fill="white"/>
<path d="M43.9181 252.854L43.6661 252.949L43.6711 252.712L43.2371 253.305L43.5251 253.539L42.8861 254.472L42.9601 254.939L42.4121 256.128L42.4941 256.856L43.6011 257.39L43.2861 257.658L45.0131 258.501L47.0961 258.136L46.9971 258.304L47.2221 258.33L48.8841 257.599L48.5341 257.198L48.7931 257.072L48.7761 255.754L49.2551 255.268L48.8681 254.605L48.9191 253.779L49.2331 253.743L48.5681 253.4L48.6971 253.072L46.8281 252.243L47.3731 252.183L46.1251 252.553L46.4561 252.717L46.0351 252.633L46.0641 252.8L46.5471 252.65L46.0281 252.849L46.7151 252.693L46.1051 252.739L46.4831 252.591L46.8311 252.697L46.2271 252.637L46.5421 252.633L46.3211 252.638L46.4981 252.721L46.5811 252.279L46.5911 252.487L46.3091 252.405L46.5521 252.496L46.3441 252.484L46.7251 252.104L47.1711 252.033" stroke="#292562" stroke-width="5" stroke-linecap="round" stroke-linejoin="round"/>
<path d="M46.3282 229.135L45.7892 229.132L45.9142 229.45L45.6272 229.467L45.9182 229.374L45.7752 228.99L45.4472 229.018L45.4902 229.352L45.7462 229.307L45.3752 229.176L45.6242 229.403L44.2582 230.838L43.6222 231.834L43.5512 232.608L42.9882 232.694L43.0432 233.15L41.0642 235.307L40.1822 235.64L39.1042 236.97L38.1852 237.123L37.5042 238.07L37.1972 238.028L37.4682 238.159L36.9382 238.263L35.8792 239.479L35.2292 239.596L34.3622 240.756L33.3332 240.836L34.0522 240.98L33.5312 240.865L32.5792 241.436L32.7182 241.739L32.1822 241.804L32.5272 241.905L31.2032 242.048L31.6592 242.261L30.5522 242.116L30.6802 241.878L30.2302 241.684L30.2702 241.923L29.8242 241.791L30.6132 241.795L30.1032 241.786L30.7992 242.416" fill="white"/>
<path d="M46.3282 229.135L45.7892 229.132L45.9142 229.45L45.6272 229.467L45.9182 229.374L45.7752 228.99L45.4472 229.018L45.4902 229.352L45.7462 229.307L45.3752 229.176L45.6242 229.403L44.2582 230.838L43.6222 231.834L43.5512 232.608L42.9882 232.694L43.0432 233.15L41.0642 235.307L40.1822 235.64L39.1042 236.97L38.1852 237.123L37.5042 238.07L37.1972 238.028L37.4682 238.159L36.9382 238.263L35.8792 239.479L35.2292 239.596L34.3622 240.756L33.3332 240.836L34.0522 240.98L33.5312 240.865L32.5792 241.436L32.7182 241.739L32.1822 241.804L32.5272 241.905L31.2032 242.048L31.6592 242.261L30.5522 242.116L30.6802 241.878L30.2302 241.684L30.2702 241.923L29.8242 241.791L30.6132 241.795L30.1032 241.786L30.7992 242.416" stroke="#292562" stroke-width="6" stroke-linecap="round" stroke-linejoin="round"/>
<path d="M82.1489 230.339L82.3829 231.076L82.3169 227.994L82.6999 228.359L82.2789 228.892L82.9259 228.968L82.1109 229.604L82.0879 230.005L83.0659 230.19L83.9939 232.209L87.0259 235.137L87.6329 235.532L88.6989 235.584L88.4629 235.784L88.9009 235.854L89.1649 236.372L90.2069 236.65L90.7549 237.548L91.8179 237.552L91.0629 237.568L91.6009 237.513L93.1919 238.517L93.6289 238.338L93.1539 238.649L94.4729 238.91L94.2929 239.233L95.8779 238.908L95.2509 239.135L95.7249 238.94L95.4829 239.287L95.9119 239.002L95.2939 239.034L96.2679 238.933L95.3119 239.154L96.7999 238.412L96.0469 238.79L96.4059 238.775L96.5219 238.575L95.8619 238.543L95.5969 238.824" fill="white"/>
<path d="M82.1489 230.339L82.3829 231.076L82.3169 227.994L82.6999 228.359L82.2789 228.892L82.9259 228.968L82.1109 229.604L82.0879 230.005L83.0659 230.19L83.9939 232.209L87.0259 235.137L87.6329 235.532L88.6989 235.584L88.4629 235.784L88.9009 235.854L89.1649 236.372L90.2069 236.65L90.7549 237.548L91.8179 237.552L91.0629 237.568L91.6009 237.513L93.1919 238.517L93.6289 238.338L93.1539 238.649L94.4729 238.91L94.2929 239.233L95.8779 238.908L95.2509 239.135L95.7249 238.94L95.4829 239.287L95.9119 239.002L95.2939 239.034L96.2679 238.933L95.3119 239.154L96.7999 238.412L96.0469 238.79L96.4059 238.775L96.5219 238.575L95.8619 238.543L95.5969 238.824" stroke="#292562" stroke-width="6" stroke-linecap="round" stroke-linejoin="round"/>
<path d="M78.963 284.345L78.847 284.099L76.832 281.347L73.414 278.354L70.419 276.721L67.172 275.678L62.647 275.266L59.265 275.705L56.024 276.77L53.04 278.424L50.42 280.607L48.254 283.243L48.041 283.633" fill="white"/>
<path d="M78.963 284.345L78.847 284.099L76.832 281.347L73.414 278.354L70.419 276.721L67.172 275.678L62.647 275.266L59.265 275.705L56.024 276.77L53.04 278.424L50.42 280.607L48.254 283.243L48.041 283.633" stroke="#292562" stroke-width="2" stroke-linecap="round" stroke-linejoin="round"/>
<path d="M80.0781 283.761L79.6251 282.807L77.6111 280.054L74.1931 277.062L71.1981 275.429L67.9501 274.386L63.4261 273.974L60.0431 274.412L56.8031 275.478L53.8191 277.131L51.1981 279.315L49.0331 281.95L48.1211 283.622" fill="white"/>
<path d="M80.0781 283.761L79.6251 282.807L77.6111 280.054L74.1931 277.062L71.1981 275.429L67.9501 274.386L63.4261 273.974L60.0431 274.412L56.8031 275.478L53.8191 277.131L51.1981 279.315L49.0331 281.95L48.1211 283.622" stroke="#292562" stroke-width="2" stroke-linecap="round" stroke-linejoin="round"/>
<path d="M303.361 267.739L295.86 264.337L287.855 262.401L279.629 262L271.473 263.147L263.677 265.802L258.816 268.365L254.315 271.517L248.391 277.239L243.644 283.97L240.242 291.47L238.783 296.768L238 302.208L238.116 310.443L239.773 318.511L242.912 326.125L247.422 333.016L253.144 338.94L259.875 343.687L264.805 346.113L270.001 347.901L278.112 349.331L286.348 349.215L294.415 347.558L302.03 344.419L308.921 339.909L314.845 334.187L319.592 327.456L322.994 319.956L324.93 311.95L325.331 303.724L324.184 295.568L322.577 290.313L320.324 285.301L315.814 278.41L310.092 272.486L303.361 267.739Z" fill="white" stroke="#292562" stroke-width="2" stroke-linecap="round" stroke-linejoin="round"/>
<path d="M266.973 291.322L263.461 290.016L261.585 289.878L259.106 290.243L255.75 291.908L253.243 294.691L251.938 298.202L252.014 301.947L252.576 303.742L253.828 305.912L256.612 308.42L260.122 309.726L263.868 309.649L267.322 308.198L268.783 307.014L270.34 305.051L271.647 301.54L271.569 297.795L270.746 295.429L269.755 293.829L266.973 291.322Z" fill="white" stroke="#292562" stroke-width="2" stroke-linecap="round" stroke-linejoin="round"/>
<path d="M303.711 291.991L300.2 290.685L298.324 290.547L295.845 290.912L292.489 292.577L289.982 295.36L288.676 298.871L288.753 302.616L289.315 304.411L290.568 306.581L293.351 309.089L296.861 310.395L300.607 310.318L304.06 308.867L305.523 307.683L307.079 305.72L308.386 302.209L308.308 298.464L307.485 296.098L306.494 294.499L303.711 291.991Z" fill="white" stroke="#292562" stroke-width="2" stroke-linecap="round" stroke-linejoin="round"/>
<path d="M298.33 301.606L298.079 301.701L298.083 301.464L297.649 302.057L297.937 302.291L297.298 303.224L297.373 303.691L296.824 304.88L296.906 305.609L298.013 306.142L297.698 306.41L299.425 307.253L301.508 306.888L301.409 307.056L301.634 307.083L303.296 306.351L302.946 305.951L303.205 305.824L303.188 304.506L303.667 304.021L303.28 303.357L303.331 302.532L303.645 302.495L302.98 302.152L303.109 301.824L301.24 300.995L301.785 300.935L300.537 301.305L300.868 301.469L300.447 301.385L300.476 301.552L300.959 301.402L300.441 301.602L301.127 301.445L300.517 301.491L300.895 301.343L301.244 301.449L300.639 301.389L300.954 301.385L300.733 301.391L300.91 301.473L300.993 301.031L301.003 301.239L300.721 301.157L300.964 301.248L300.756 301.236L301.137 300.856L301.583 300.785" fill="white"/>
<path d="M298.33 301.606L298.079 301.701L298.083 301.464L297.649 302.057L297.937 302.291L297.298 303.224L297.373 303.691L296.824 304.88L296.906 305.609L298.013 306.142L297.698 306.41L299.425 307.253L301.508 306.888L301.409 307.056L301.634 307.083L303.296 306.351L302.946 305.951L303.205 305.824L303.188 304.506L303.667 304.021L303.28 303.357L303.331 302.532L303.645 302.495L302.98 302.152L303.109 301.824L301.24 300.995L301.785 300.935L300.537 301.305L300.868 301.469L300.447 301.385L300.476 301.552L300.959 301.402L300.441 301.602L301.127 301.445L300.517 301.491L300.895 301.343L301.244 301.449L300.639 301.389L300.954 301.385L300.733 301.391L300.91 301.473L300.993 301.031L301.003 301.239L300.721 301.157L300.964 301.248L300.756 301.236L301.137 300.856L301.583 300.785" stroke="#292562" stroke-width="5" stroke-linecap="round" stroke-linejoin="round"/>
<path d="M261.918 300.854L261.666 300.948L261.671 300.711L261.237 301.305L261.525 301.539L260.886 302.472L260.96 302.938L260.412 304.128L260.494 304.856L261.601 305.39L261.286 305.657L263.012 306.5L265.096 306.136L264.997 306.304L265.222 306.33L266.884 305.599L266.534 305.198L266.792 305.072L266.775 303.753L267.255 303.268L266.868 302.605L266.919 301.779L267.233 301.743L266.568 301.4L266.697 301.072L264.828 300.242L265.373 300.183L264.125 300.553L264.455 300.717L264.035 300.633L264.064 300.8L264.547 300.65L264.028 300.849L264.715 300.692L264.105 300.739L264.483 300.591L264.831 300.697L264.226 300.636L264.542 300.633L264.321 300.638L264.498 300.721L264.581 300.279L264.59 300.487L264.308 300.405L264.552 300.496L264.344 300.483L264.725 300.104L265.171 300.033" fill="white"/>
<path d="M261.918 300.854L261.666 300.948L261.671 300.711L261.237 301.305L261.525 301.539L260.886 302.472L260.96 302.938L260.412 304.128L260.494 304.856L261.601 305.39L261.286 305.657L263.012 306.5L265.096 306.136L264.997 306.304L265.222 306.33L266.884 305.599L266.534 305.198L266.792 305.072L266.775 303.753L267.255 303.268L266.868 302.605L266.919 301.779L267.233 301.743L266.568 301.4L266.697 301.072L264.828 300.242L265.373 300.183L264.125 300.553L264.455 300.717L264.035 300.633L264.064 300.8L264.547 300.65L264.028 300.849L264.715 300.692L264.105 300.739L264.483 300.591L264.831 300.697L264.226 300.636L264.542 300.633L264.321 300.638L264.498 300.721L264.581 300.279L264.59 300.487L264.308 300.405L264.552 300.496L264.344 300.483L264.725 300.104L265.171 300.033" stroke="#292562" stroke-width="5" stroke-linecap="round" stroke-linejoin="round"/>
<path d="M270.434 335.751L308.274 313.844Z" fill="white"/>
<path d="M270.434 335.751L308.274 313.844" stroke="#292562" stroke-width="2" stroke-linecap="round" stroke-linejoin="round"/>
<path d="M480.724 197.943L474.23 192.877L466.902 189.118L458.999 186.798L450.802 186L442.6 186.752L437.274 188.104L432.159 190.112L425.058 194.285L418.865 199.714L413.799 206.208L411.138 211.016L409.101 216.12L407.282 224.153L407 232.384L408.266 240.522L411.034 248.279L415.207 255.38L420.636 261.573L424.861 265.087L429.492 268.045L437.042 271.337L445.074 273.156L453.306 273.438L461.444 272.172L469.201 269.404L476.302 265.231L482.495 259.802L487.561 253.308L491.32 245.98L493.64 238.078L494.438 229.88L494.109 224.395L493.094 218.994L490.326 211.237L486.153 204.137L480.724 197.943Z" fill="white" stroke="#292562" stroke-width="2" stroke-linecap="round" stroke-linejoin="round"/>
<path d="M439.818 212.334L436.711 210.24L434.92 209.666L432.425 209.44L428.772 210.271L425.682 212.388L423.588 215.495L422.785 219.154L422.911 221.031L423.619 223.434L425.736 226.524L428.843 228.618L432.502 229.421L436.199 228.82L437.898 228.013L439.872 226.47L441.966 223.363L442.769 219.704L442.523 217.211L441.935 215.424L439.818 212.334Z" fill="white" stroke="#292562" stroke-width="2" stroke-linecap="round" stroke-linejoin="round"/>
<path d="M475.374 221.601L472.268 219.507L470.476 218.933L467.981 218.707L464.328 219.538L461.238 221.656L459.145 224.762L458.342 228.421L458.467 230.298L459.175 232.701L461.293 235.791L464.399 237.885L468.058 238.688L471.755 238.088L473.455 237.28L475.428 235.737L477.522 232.631L478.325 228.972L478.08 226.478L477.491 224.691L475.374 221.601Z" fill="white" stroke="#292562" stroke-width="2" stroke-linecap="round" stroke-linejoin="round"/>
<path d="M430.711 237.828L430.312 240.145L430.374 243.555L431.073 246.894L432.385 250.042L435.007 253.753L437.534 256.043L440.447 257.819L444.749 259.281L448.139 259.647L451.539 259.372L454.827 258.464L457.888 256.957L460.611 254.902L462.9 252.374L464.676 249.462L465.297 247.807" fill="white"/>
<path d="M430.711 237.828L430.312 240.145L430.374 243.555L431.073 246.894L432.385 250.042L435.007 253.753L437.534 256.043L440.447 257.819L444.749 259.281L448.139 259.647L451.539 259.372L454.827 258.464L457.888 256.957L460.611 254.902L462.9 252.374L464.676 249.462L465.297 247.807" stroke="#292562" stroke-width="2" stroke-linecap="round" stroke-linejoin="round"/>
<path d="M467.887 229.686L467.62 229.719L467.681 229.489L467.119 229.964L467.345 230.259L466.504 231.017L466.468 231.487L465.656 232.515L465.564 233.242L466.515 234.02L466.146 234.207L467.627 235.431L469.738 235.566L469.602 235.706L469.815 235.784L471.602 235.463L471.356 234.991L471.636 234.93L471.929 233.643L472.509 233.284L472.289 232.548L472.532 231.758L472.846 231.796L472.279 231.307L472.482 231.018L470.86 229.774L471.404 229.844L470.104 229.911L470.386 230.147L469.997 229.967L469.986 230.137L470.491 230.104L469.94 230.176L470.644 230.185L470.04 230.087L470.443 230.032L470.756 230.216L470.182 230.016L470.49 230.086L470.274 230.039L470.427 230.162L470.611 229.751L470.571 229.955L470.317 229.81L470.532 229.955L470.332 229.894L470.792 229.615L471.242 229.65" fill="white"/>
<path d="M467.887 229.686L467.62 229.719L467.681 229.489L467.119 229.964L467.345 230.259L466.504 231.017L466.468 231.487L465.656 232.515L465.564 233.242L466.515 234.02L466.146 234.207L467.627 235.431L469.738 235.566L469.602 235.706L469.815 235.784L471.602 235.463L471.356 234.991L471.636 234.93L471.929 233.643L472.509 233.284L472.289 232.548L472.532 231.758L472.846 231.796L472.279 231.307L472.482 231.018L470.86 229.774L471.404 229.844L470.104 229.911L470.386 230.147L469.997 229.967L469.986 230.137L470.491 230.104L469.94 230.176L470.644 230.185L470.04 230.087L470.443 230.032L470.756 230.216L470.182 230.016L470.49 230.086L470.274 230.039L470.427 230.162L470.611 229.751L470.571 229.955L470.317 229.81L470.532 229.955L470.332 229.894L470.792 229.615L471.242 229.65" stroke="#292562" stroke-width="5" stroke-linecap="round" stroke-linejoin="round"/>
<path d="M432.669 220.414L432.402 220.447L432.463 220.217L431.901 220.693L432.127 220.987L431.286 221.745L431.249 222.216L430.438 223.243L430.346 223.97L431.297 224.749L430.928 224.935L432.409 226.16L434.52 226.294L434.384 226.434L434.597 226.512L436.384 226.191L436.138 225.72L436.418 225.658L436.711 224.372L437.291 224.013L437.071 223.277L437.314 222.486L437.628 222.524L437.061 222.035L437.264 221.746L435.642 220.502L436.186 220.572L434.886 220.639L435.168 220.876L434.779 220.695L434.768 220.865L435.273 220.832L434.722 220.904L435.426 220.913L434.822 220.815L435.225 220.76L435.538 220.944L434.964 220.744L435.272 220.814L435.056 220.768L435.209 220.89L435.393 220.48L435.353 220.684L435.099 220.538L435.314 220.683L435.114 220.623L435.574 220.343L436.024 220.378" fill="white"/>
<path d="M432.669 220.414L432.402 220.447L432.463 220.217L431.901 220.693L432.127 220.987L431.286 221.745L431.249 222.216L430.438 223.243L430.346 223.97L431.297 224.749L430.928 224.935L432.409 226.16L434.52 226.294L434.384 226.434L434.597 226.512L436.384 226.191L436.138 225.72L436.418 225.658L436.711 224.372L437.291 224.013L437.071 223.277L437.314 222.486L437.628 222.524L437.061 222.035L437.264 221.746L435.642 220.502L436.186 220.572L434.886 220.639L435.168 220.876L434.779 220.695L434.768 220.865L435.273 220.832L434.722 220.904L435.426 220.913L434.822 220.815L435.225 220.76L435.538 220.944L434.964 220.744L435.272 220.814L435.056 220.768L435.209 220.89L435.393 220.48L435.353 220.684L435.099 220.538L435.314 220.683L435.114 220.623L435.574 220.343L436.024 220.378" stroke="#292562" stroke-width="5" stroke-linecap="round" stroke-linejoin="round"/>
<path d="M523.361 308.739L515.86 305.338L507.855 303.401L499.629 303L491.473 304.147L483.676 306.802L478.816 309.365L474.314 312.517L468.391 318.239L463.644 324.97L460.242 332.471L458.783 337.769L458 343.208L458.115 351.443L459.772 359.511L462.912 367.125L467.422 374.016L473.144 379.94L479.874 384.687L484.805 387.113L490.001 388.902L498.112 390.331L506.347 390.215L514.415 388.558L522.029 385.419L528.921 380.909L534.845 375.187L539.592 368.457L542.993 360.956L544.929 352.951L545.331 344.724L544.184 336.568L542.577 331.313L540.324 326.301L535.813 319.41L530.091 313.486L523.361 308.739Z" fill="white" stroke="#292562" stroke-width="2" stroke-linecap="round" stroke-linejoin="round"/>
<path d="M484.1 359.241L484.256 361.587L485.115 364.889L486.578 367.97L488.592 370.723L492.011 373.715L495.005 375.348L498.253 376.391L502.777 376.804L506.16 376.365L509.401 375.299L512.384 373.646L515.005 371.463L517.171 368.827L518.804 365.832L519.847 362.584L520.062 360.83" fill="white"/>
<path d="M484.1 359.241L484.256 361.587L485.115 364.889L486.578 367.97L488.592 370.723L492.011 373.715L495.005 375.348L498.253 376.391L502.777 376.804L506.16 376.365L509.401 375.299L512.384 373.646L515.005 371.463L517.171 368.827L518.804 365.832L519.847 362.584L520.062 360.83" stroke="#292562" stroke-width="2" stroke-linecap="round" stroke-linejoin="round"/>
<path d="M484.061 358.473L484.217 360.819L485.077 364.121L486.54 367.202L488.554 369.955L491.972 372.948L494.967 374.581L498.215 375.624L502.739 376.036L506.122 375.597L509.362 374.532L512.346 372.878L514.967 370.695L517.132 368.059L518.765 365.064L519.808 361.816L520.024 360.062" fill="white"/>
<path d="M484.061 358.473L484.217 360.819L485.077 364.121L486.54 367.202L488.554 369.955L491.972 372.948L494.967 374.581L498.215 375.624L502.739 376.036L506.122 375.597L509.362 374.532L512.346 372.878L514.967 370.695L517.132 368.059L518.765 365.064L519.808 361.816L520.024 360.062" stroke="#292562" stroke-width="2" stroke-linecap="round" stroke-linejoin="round"/>
<path d="M477.254 340.782L477.714 339.696L478.586 339.297L478.707 338.699L479.425 338.092L479.398 337.789L480.205 337.73L480.396 337.263L481.39 336.933L481.796 336.322L482.519 336.337L483.79 335.565L484.639 335.829L485.039 335.569L484.721 335.472L486.503 335.484L486.872 335.12L488.801 335.191L489.493 335.681L490.303 335.793L492.423 337.268L492.566 337.843L493.059 337.867L492.843 337.985L493.718 338.369L493.706 338.65L494.412 338.737L493.712 338.889L495.033 339.298L495.114 339.528L494.645 339.423L495.035 339.477L494.964 339.814L495.325 339.803L494.958 339.492L495.56 339.551L495.089 339.425L495.376 339.512L495.147 339.433L495.826 338.988" fill="white"/>
<path d="M477.254 340.782L477.714 339.696L478.586 339.297L478.707 338.699L479.425 338.092L479.398 337.789L480.205 337.73L480.396 337.263L481.39 336.933L481.796 336.322L482.519 336.337L483.79 335.565L484.639 335.829L485.039 335.569L484.721 335.472L486.503 335.484L486.872 335.12L488.801 335.191L489.493 335.681L490.303 335.793L492.423 337.268L492.566 337.843L493.059 337.867L492.843 337.985L493.718 338.369L493.706 338.65L494.412 338.737L493.712 338.889L495.033 339.298L495.114 339.528L494.645 339.423L495.035 339.477L494.964 339.814L495.325 339.803L494.958 339.492L495.56 339.551L495.089 339.425L495.376 339.512L495.147 339.433L495.826 338.988" stroke="#292562" stroke-width="5.25" stroke-linecap="round" stroke-linejoin="round"/>
<path d="M510.041 342.564L510.501 341.478L511.373 341.078L511.495 340.481L512.212 339.874L512.185 339.571L512.992 339.512L513.183 339.045L514.177 338.715L514.583 338.104L515.306 338.119L516.578 337.346L517.426 337.61L517.827 337.351L517.508 337.254L519.291 337.265L519.659 336.902L521.588 336.972L522.28 337.462L523.09 337.575L525.21 339.05L525.354 339.624L525.847 339.649L525.631 339.766L526.506 340.151L526.493 340.431L527.2 340.519L526.5 340.671L527.82 341.08L527.902 341.31L527.432 341.204L527.822 341.259L527.751 341.596L528.112 341.584L527.745 341.274L528.347 341.333L527.876 341.207L528.164 341.293L527.934 341.215L528.614 340.77" fill="white"/>
<path d="M510.041 342.564L510.501 341.478L511.373 341.078L511.495 340.481L512.212 339.874L512.185 339.571L512.992 339.512L513.183 339.045L514.177 338.715L514.583 338.104L515.306 338.119L516.578 337.346L517.426 337.61L517.827 337.351L517.508 337.254L519.291 337.265L519.659 336.902L521.588 336.972L522.28 337.462L523.09 337.575L525.21 339.05L525.354 339.624L525.847 339.649L525.631 339.766L526.506 340.151L526.493 340.431L527.2 340.519L526.5 340.671L527.82 341.08L527.902 341.31L527.432 341.204L527.822 341.259L527.751 341.596L528.112 341.584L527.745 341.274L528.347 341.333L527.876 341.207L528.164 341.293L527.934 341.215L528.614 340.77" stroke="#292562" stroke-width="5.25" stroke-linecap="round" stroke-linejoin="round"/>
</svg>
