<svg width="500" height="500" viewBox="0 0 500 500" fill="none" xmlns="http://www.w3.org/2000/svg">
<circle cx="250" cy="250" r="250" fill="white"/>
<path d="M192.362 67.739L184.861 64.338L176.856 62.402L168.629 62L160.473 63.147L152.677 65.802L147.816 68.365L143.315 71.518L137.391 77.239L132.644 83.97L129.242 91.471L127.784 96.769L127 102.208L127.116 110.443L128.773 118.511L131.912 126.125L136.423 133.016L142.144 138.94L148.875 143.687L153.806 146.113L159.002 147.902L167.113 149.331L175.348 149.215L183.416 147.559L191.03 144.419L197.921 139.909L203.845 134.187L208.592 127.457L211.994 119.956L213.93 111.951L214.331 103.724L213.184 95.569L211.577 90.313L209.324 85.302L204.814 78.41L199.092 72.486L192.362 67.739Z" fill="white" stroke="#292562" stroke-width="2" stroke-linecap="round" stroke-linejoin="round"/>
<path d="M155.973 91.3229L152.462 90.0159L150.586 89.8779L148.107 90.2429L144.751 91.908L142.243 94.6909L140.938 98.202L141.014 101.947L141.578 103.742L142.829 105.913L145.613 108.42L149.124 109.726L152.868 109.649L156.322 108.198L157.785 107.014L159.341 105.051L160.647 101.541L160.57 97.7949L159.746 95.429L158.755 93.83L155.973 91.3229Z" fill="white" stroke="#292562" stroke-width="2" stroke-linecap="round" stroke-linejoin="round"/>
<path d="M192.709 91.9921L189.198 90.6851L187.322 90.5471L184.843 90.9121L181.488 92.5771L178.981 95.3601L177.674 98.8712L177.751 102.616L178.314 104.412L179.566 106.582L182.349 109.089L185.86 110.395L189.605 110.318L193.058 108.867L194.521 107.684L196.078 105.72L197.384 102.21L197.307 98.4651L196.483 96.0981L195.492 94.4991L192.709 91.9921Z" fill="white" stroke="#292562" stroke-width="2" stroke-linecap="round" stroke-linejoin="round"/>
<path d="M187.33 101.607L187.078 101.701L187.082 101.464L186.648 102.058L186.937 102.291L186.297 103.225L186.372 103.691L185.824 104.881L185.906 105.609L187.012 106.142L186.697 106.41L188.424 107.253L190.507 106.889L190.409 107.057L190.634 107.083L192.295 106.351L191.945 105.951L192.204 105.825L192.187 104.506L192.666 104.021L192.28 103.357L192.331 102.532L192.645 102.495L191.979 102.152L192.108 101.824L190.24 100.995L190.785 100.935L189.537 101.306L189.867 101.469L189.447 101.385L189.475 101.553L189.958 101.403L189.44 101.602L190.126 101.445L189.516 101.491L189.895 101.343L190.243 101.449L189.638 101.389L189.953 101.385L189.732 101.391L189.91 101.474L189.993 101.032L190.002 101.239L189.72 101.157L189.963 101.248L189.755 101.236L190.136 100.857L190.582 100.785" fill="white"/>
<path d="M187.33 101.607L187.078 101.701L187.082 101.464L186.648 102.058L186.937 102.291L186.297 103.225L186.372 103.691L185.824 104.881L185.906 105.609L187.012 106.142L186.697 106.41L188.424 107.253L190.507 106.889L190.409 107.057L190.634 107.083L192.295 106.351L191.945 105.951L192.204 105.825L192.187 104.506L192.666 104.021L192.28 103.357L192.331 102.532L192.645 102.495L191.979 102.152L192.108 101.824L190.24 100.995L190.785 100.935L189.537 101.306L189.867 101.469L189.447 101.385L189.475 101.553L189.958 101.403L189.44 101.602L190.126 101.445L189.516 101.491L189.895 101.343L190.243 101.449L189.638 101.389L189.953 101.385L189.732 101.391L189.91 101.474L189.993 101.032L190.002 101.239L189.72 101.157L189.963 101.248L189.755 101.236L190.136 100.857L190.582 100.785" stroke="#292562" stroke-width="5" stroke-linecap="round" stroke-linejoin="round"/>
<path d="M150.916 100.854L150.665 100.949L150.669 100.712L150.235 101.306L150.523 101.539L149.884 102.473L149.959 102.939L149.41 104.128L149.492 104.857L150.599 105.39L150.284 105.658L152.011 106.501L154.094 106.136L153.995 106.305L154.22 106.331L155.882 105.599L155.532 105.199L155.791 105.073L155.774 103.754L156.253 103.269L155.867 102.605L155.918 101.78L156.231 101.743L155.566 101.4L155.695 101.072L153.826 100.243L154.372 100.183L153.124 100.553L153.454 100.717L153.033 100.633L153.062 100.8L153.545 100.65L153.027 100.85L153.713 100.693L153.103 100.739L153.482 100.591L153.83 100.697L153.225 100.637L153.54 100.633L153.319 100.639L153.496 100.722L153.579 100.279L153.589 100.487L153.307 100.405L153.55 100.496L153.342 100.484L153.723 100.104L154.169 100.033" fill="white"/>
<path d="M150.916 100.854L150.665 100.949L150.669 100.712L150.235 101.306L150.523 101.539L149.884 102.473L149.959 102.939L149.41 104.128L149.492 104.857L150.599 105.39L150.284 105.658L152.011 106.501L154.094 106.136L153.995 106.305L154.22 106.331L155.882 105.599L155.532 105.199L155.791 105.073L155.774 103.754L156.253 103.269L155.867 102.605L155.918 101.78L156.231 101.743L155.566 101.4L155.695 101.072L153.826 100.243L154.372 100.183L153.124 100.553L153.454 100.717L153.033 100.633L153.062 100.8L153.545 100.65L153.027 100.85L153.713 100.693L153.103 100.739L153.482 100.591L153.83 100.697L153.225 100.637L153.54 100.633L153.319 100.639L153.496 100.722L153.579 100.279L153.589 100.487L153.307 100.405L153.55 100.496L153.342 100.484L153.723 100.104L154.169 100.033" stroke="#292562" stroke-width="5" stroke-linecap="round" stroke-linejoin="round"/>
<path d="M190.512 85.4292L190.401 86.6032L189.69 87.2472L189.754 87.8542L189.252 88.6482L189.369 88.9292L188.617 89.2292L188.576 89.7312L187.727 90.3452L187.524 91.0502L186.83 91.2542L185.851 92.3732L184.962 92.3772L184.658 92.7452L184.991 92.7412L183.288 93.2672L183.046 93.7242L181.185 94.2382L180.378 93.9792L179.572 94.1162L177.105 93.3482L176.796 92.8432L176.318 92.9692L176.489 92.7912L175.539 92.6882L175.466 92.4172L174.766 92.5462L175.388 92.1902L174.006 92.1982L173.858 92.0042L174.338 91.9632L173.95 92.0282L173.916 91.6852L173.575 91.8052L174.019 91.9902L173.427 92.1162L173.914 92.0942L173.614 92.0982L173.856 92.1042L173.342 92.7322" fill="white"/>
<path d="M190.512 85.4292L190.401 86.6032L189.69 87.2472L189.754 87.8542L189.252 88.6482L189.369 88.9292L188.617 89.2292L188.576 89.7312L187.727 90.3452L187.524 91.0502L186.83 91.2542L185.851 92.3732L184.962 92.3772L184.658 92.7452L184.991 92.7412L183.288 93.2672L183.046 93.7242L181.185 94.2382L180.378 93.9792L179.572 94.1162L177.105 93.3482L176.796 92.8432L176.318 92.9692L176.489 92.7912L175.539 92.6882L175.466 92.4172L174.766 92.5462L175.388 92.1902L174.006 92.1982L173.858 92.0042L174.338 91.9632L173.95 92.0282L173.916 91.6852L173.575 91.8052L174.019 91.9902L173.427 92.1162L173.914 92.0942L173.614 92.0982L173.856 92.1042L173.342 92.7322" stroke="#292562" stroke-width="5.25" stroke-linecap="round" stroke-linejoin="round"/>
<path d="M163.997 94.1041L163.047 94.8032L162.093 94.7011L161.683 95.1531L160.756 95.3081L160.625 95.5822L159.901 95.2202L159.498 95.5241L158.475 95.3001L157.814 95.6181L157.2 95.2361L155.712 95.2501L155.118 94.5891L154.641 94.6082L154.865 94.8541L153.339 93.9331L152.837 94.0571L151.214 93.0111L150.87 92.2371L150.231 91.7261L149.162 89.3751L149.332 88.8081L148.921 88.5352L149.167 88.5441L148.611 87.7672L148.765 87.5321L148.202 87.0961L148.882 87.3221L147.956 86.2961L148.003 86.0571L148.353 86.3881L148.045 86.1422L148.279 85.8881L147.963 85.7131L148.12 86.1682L147.632 85.8101L147.972 86.1591L147.77 85.9371L147.927 86.1221L147.115 86.1571" fill="white"/>
<path d="M163.997 94.1041L163.047 94.8032L162.093 94.7011L161.683 95.1531L160.756 95.3081L160.625 95.5822L159.901 95.2202L159.498 95.5241L158.475 95.3001L157.814 95.6181L157.2 95.2361L155.712 95.2501L155.118 94.5891L154.641 94.6082L154.865 94.8541L153.339 93.9331L152.837 94.0571L151.214 93.0111L150.87 92.2371L150.231 91.7261L149.162 89.3751L149.332 88.8081L148.921 88.5352L149.167 88.5441L148.611 87.7672L148.765 87.5321L148.202 87.0961L148.882 87.3221L147.956 86.2961L148.003 86.0571L148.353 86.3881L148.045 86.1422L148.279 85.8881L147.963 85.7131L148.12 86.1682L147.632 85.8101L147.972 86.1591L147.77 85.9371L147.927 86.1221L147.115 86.1571" stroke="#292562" stroke-width="5.25" stroke-linecap="round" stroke-linejoin="round"/>
<path d="M152.191 129.245L203.279 114.649Z" fill="white"/>
<path d="M152.191 129.245L203.279 114.649" stroke="#292562" stroke-width="2.5" stroke-linecap="round" stroke-linejoin="round"/>
<path d="M155.773 151.835L211.222 135.992Z" fill="white"/>
<path d="M155.773 151.835L211.222 135.992" stroke="#292562" stroke-width="2.5" stroke-linecap="round" stroke-linejoin="round"/>
<path d="M203.079 120.097L202.246 118.28L201.425 117.762L200.512 115.522L200.492 110.649" fill="white"/>
<path d="M203.079 120.097L202.246 118.28L201.425 117.762L200.512 115.522L200.492 110.649" stroke="#292562" stroke-width="2.5" stroke-linecap="round" stroke-linejoin="round"/>
<path d="M200.847 110.234L200.844 111.854L203.297 118.481L206.146 129.784L208.862 136.862" fill="white"/>
<path d="M200.847 110.234L200.844 111.854L203.297 118.481L206.146 129.784L208.862 136.862" stroke="#292562" stroke-width="2.5" stroke-linecap="round" stroke-linejoin="round"/>
<path d="M155.944 137.122L155.112 135.304L154.291 134.786L153.378 132.546L153.354 126.949L154.159 125.445L153.426 126.438L153.714 126.728L153.709 128.878L156.163 135.505L159.012 146.808L161.618 153.604" fill="white"/>
<path d="M155.944 137.122L155.112 135.304L154.291 134.786L153.378 132.546L153.354 126.949L154.159 125.445L153.426 126.438L153.714 126.728L153.709 128.878L156.163 135.505L159.012 146.808L161.618 153.604" stroke="#292562" stroke-width="2.5" stroke-linecap="round" stroke-linejoin="round"/>
<path d="M160.672 135.87L202.181 123.662Z" fill="white"/>
<path d="M160.672 135.87L202.181 123.662" stroke="#292562" stroke-width="7.25" stroke-linecap="round" stroke-linejoin="round"/>
<path d="M158.236 136.012L159.83 136.01L161.105 135.255L160.879 134.926L163.641 134.673L172.308 131.479L175.861 131.041L181.627 128.437L185.581 127.541L188.183 126.478L190.322 126.185L191.304 125.599L192.173 125.651L195.008 124.588L194.835 124.38L195.362 124.452" fill="white"/>
<path d="M158.236 136.012L159.83 136.01L161.105 135.255L160.879 134.926L163.641 134.673L172.308 131.479L175.861 131.041L181.627 128.437L185.581 127.541L188.183 126.478L190.322 126.185L191.304 125.599L192.173 125.651L195.008 124.588L194.835 124.38L195.362 124.452" stroke="#292562" stroke-width="7.25" stroke-linecap="round" stroke-linejoin="round"/>
<path d="M161.512 130.199L163.107 130.197L164.381 129.442L164.155 129.113L166.917 128.86L175.584 125.666L179.137 125.228L184.903 122.624L188.858 121.728L191.459 120.665L193.598 120.372L194.58 119.786L195.449 119.838L198.285 118.775L198.111 118.566L198.638 118.638" fill="white"/>
<path d="M161.512 130.199L163.107 130.197L164.381 129.442L164.155 129.113L166.917 128.86L175.584 125.666L179.137 125.228L184.903 122.624L188.858 121.728L191.459 120.665L193.598 120.372L194.58 119.786L195.449 119.838L198.285 118.775L198.111 118.566L198.638 118.638" stroke="#292562" stroke-width="7.25" stroke-linecap="round" stroke-linejoin="round"/>
<path d="M167.137 141.861L168.731 141.859L170.005 141.104L169.779 140.775L172.541 140.523L181.208 137.328L184.761 136.89L190.527 134.286L194.482 133.39L197.083 132.327L199.222 132.034L200.204 131.449L201.073 131.5L203.909 130.437L203.735 130.229L204.262 130.301" fill="white"/>
<path d="M167.137 141.861L168.731 141.859L170.005 141.104L169.779 140.775L172.541 140.523L181.208 137.328L184.761 136.89L190.527 134.286L194.482 133.39L197.083 132.327L199.222 132.034L200.204 131.449L201.073 131.5L203.909 130.437L203.735 130.229L204.262 130.301" stroke="#292562" stroke-width="7.25" stroke-linecap="round" stroke-linejoin="round"/>
<path d="M169.584 135.815L169.618 138.247L170.13 139.336L169.992 139.736L170.49 140.743L172.302 142.037L172.242 142.708" fill="white"/>
<path d="M169.584 135.815L169.618 138.247L170.13 139.336L169.992 139.736L170.49 140.743L172.302 142.037L172.242 142.708" stroke="white" stroke-width="2" stroke-linecap="round" stroke-linejoin="round"/>
<path d="M175.35 131.102L175.531 131.48L174.811 131.989L175.395 132.005L175.061 132.28L175.517 133.424L175.282 134.345L175.986 135.31L177.128 138.088L178.036 143.51L177.838 144.439" fill="white"/>
<path d="M175.35 131.102L175.531 131.48L174.811 131.989L175.395 132.005L175.061 132.28L175.517 133.424L175.282 134.345L175.986 135.31L177.128 138.088L178.036 143.51L177.838 144.439" stroke="white" stroke-width="2" stroke-linecap="round" stroke-linejoin="round"/>
<path d="M167.728 132.964L167.108 132.867L166.367 133.372L166.925 133.385L174.107 131.41L177.561 129.92" fill="white"/>
<path d="M167.728 132.964L167.108 132.867L166.367 133.372L166.925 133.385L174.107 131.41L177.561 129.92" stroke="white" stroke-width="2" stroke-linecap="round" stroke-linejoin="round"/>
<path d="M169.658 139.481L169.568 139.759L170.071 139.844L170.125 139.445L178.202 137.412L181.219 135.608" fill="white"/>
<path d="M169.658 139.481L169.568 139.759L170.071 139.844L170.125 139.445L178.202 137.412L181.219 135.608" stroke="white" stroke-width="2" stroke-linecap="round" stroke-linejoin="round"/>
<path d="M191.662 123.816L190.027 124.885L189.557 125.979L190.18 126.717L190.17 129.354L192.077 132.491" fill="white"/>
<path d="M191.662 123.816L190.027 124.885L189.557 125.979L190.18 126.717L190.17 129.354L192.077 132.491" stroke="white" stroke-width="2" stroke-linecap="round" stroke-linejoin="round"/>
<path d="M194.067 140.25L193.926 141.085L195.305 140.273" fill="white"/>
<path d="M194.067 140.25L193.926 141.085L195.305 140.273" stroke="white" stroke-width="2" stroke-linecap="round" stroke-linejoin="round"/>
<path d="M200.145 125.732L202.616 123.508L203.916 123.445L204.481 125.001L203.775 125.634L203.663 127.905L203.136 128.418L203.226 129.283L202.568 130.046L203.246 130.853" fill="white"/>
<path d="M200.145 125.732L202.616 123.508L203.916 123.445L204.481 125.001L203.775 125.634L203.663 127.905L203.136 128.418L203.226 129.283L202.568 130.046L203.246 130.853" stroke="white" stroke-width="2" stroke-linecap="round" stroke-linejoin="round"/>
<path d="M92.361 144.739L84.861 141.337L76.855 139.401L68.629 139L60.473 140.147L52.677 142.802L47.816 145.365L43.315 148.517L37.391 154.239L32.644 160.97L29.242 168.47L27.783 173.769L27 179.208L27.116 187.443L28.773 195.511L31.912 203.125L36.422 210.016L42.144 215.94L48.875 220.687L53.805 223.113L59.001 224.902L67.113 226.331L75.348 226.215L83.416 224.558L91.03 221.419L97.921 216.909L103.845 211.187L108.592 204.457L111.994 196.956L113.93 188.95L114.331 180.724L113.184 172.568L111.577 167.313L109.324 162.301L104.814 155.41L99.092 149.486L92.361 144.739Z" fill="white" stroke="#292562" stroke-width="2" stroke-linecap="round" stroke-linejoin="round"/>
<path d="M55.9745 168.323L52.4635 167.016L50.5875 166.878L48.1085 167.243L44.7525 168.908L42.2455 171.691L40.9395 175.202L41.0164 178.947L41.5785 180.742L42.8315 182.912L45.6145 185.42L49.1245 186.726L52.8705 186.649L56.3235 185.198L57.7865 184.014L59.3425 182.051L60.6495 178.54L60.5715 174.795L59.7485 172.429L58.7575 170.83L55.9745 168.323Z" fill="white" stroke="#292562" stroke-width="2" stroke-linecap="round" stroke-linejoin="round"/>
<path d="M92.7108 168.991L89.1998 167.685L87.3238 167.547L84.8448 167.912L81.4898 169.577L78.9818 172.36L77.6758 175.871L77.7528 179.616L78.3148 181.411L79.5678 183.582L82.3508 186.089L85.8618 187.395L89.6068 187.318L93.0598 185.867L94.5228 184.683L96.0788 182.72L97.3858 179.209L97.3078 175.464L96.4848 173.098L95.4938 171.499L92.7108 168.991Z" fill="white" stroke="#292562" stroke-width="2" stroke-linecap="round" stroke-linejoin="round"/>
<path d="M87.3302 178.606L87.0792 178.701L87.0832 178.464L86.6492 179.058L86.9372 179.291L86.2982 180.224L86.3732 180.691L85.8242 181.88L85.9062 182.609L87.0132 183.142L86.6982 183.41L88.4252 184.253L90.5082 183.888L90.4092 184.057L90.6342 184.083L92.2962 183.351L91.9462 182.951L92.2052 182.825L92.1882 181.506L92.6672 181.021L92.2802 180.357L92.3322 179.532L92.6452 179.495L91.9802 179.152L92.1092 178.824L90.2402 177.995L90.7862 177.935L89.5382 178.305L89.8682 178.469L89.4472 178.385L89.4762 178.552L89.9592 178.402L89.4412 178.602L90.1272 178.445L89.5172 178.491L89.8952 178.343L90.2442 178.449L89.6392 178.389L89.9542 178.385L89.7332 178.391L89.9102 178.474L89.9932 178.031L90.0032 178.239L89.7212 178.157L89.9642 178.248L89.7562 178.236L90.1372 177.856L90.5832 177.785" fill="white"/>
<path d="M87.3302 178.606L87.0792 178.701L87.0832 178.464L86.6492 179.058L86.9372 179.291L86.2982 180.224L86.3732 180.691L85.8242 181.88L85.9062 182.609L87.0132 183.142L86.6982 183.41L88.4252 184.253L90.5082 183.888L90.4092 184.057L90.6342 184.083L92.2962 183.351L91.9462 182.951L92.2052 182.825L92.1882 181.506L92.6672 181.021L92.2802 180.357L92.3322 179.532L92.6452 179.495L91.9802 179.152L92.1092 178.824L90.2402 177.995L90.7862 177.935L89.5382 178.305L89.8682 178.469L89.4472 178.385L89.4762 178.552L89.9592 178.402L89.4412 178.602L90.1272 178.445L89.5172 178.491L89.8952 178.343L90.2442 178.449L89.6392 178.389L89.9542 178.385L89.7332 178.391L89.9102 178.474L89.9932 178.031L90.0032 178.239L89.7212 178.157L89.9642 178.248L89.7562 178.236L90.1372 177.856L90.5832 177.785" stroke="#292562" stroke-width="5" stroke-linecap="round" stroke-linejoin="round"/>
<path d="M50.9181 177.854L50.6661 177.949L50.6711 177.712L50.2371 178.305L50.5251 178.539L49.8861 179.472L49.9601 179.939L49.4121 181.128L49.4941 181.856L50.6011 182.39L50.2861 182.658L52.0131 183.501L54.0961 183.136L53.9971 183.304L54.2221 183.33L55.8841 182.599L55.5341 182.198L55.7931 182.072L55.7761 180.754L56.2551 180.268L55.8681 179.605L55.9191 178.779L56.2331 178.743L55.5681 178.4L55.6971 178.072L53.8281 177.243L54.3731 177.183L53.1251 177.553L53.4561 177.717L53.0351 177.633L53.0641 177.8L53.5471 177.65L53.0281 177.849L53.7151 177.693L53.1051 177.739L53.4831 177.591L53.8311 177.697L53.2271 177.637L53.5421 177.633L53.3211 177.638L53.4981 177.721L53.5811 177.279L53.5911 177.487L53.3091 177.405L53.5521 177.496L53.3441 177.484L53.7251 177.104L54.1711 177.033" fill="white"/>
<path d="M50.9181 177.854L50.6661 177.949L50.6711 177.712L50.2371 178.305L50.5251 178.539L49.8861 179.472L49.9601 179.939L49.4121 181.128L49.4941 181.856L50.6011 182.39L50.2861 182.658L52.0131 183.501L54.0961 183.136L53.9971 183.304L54.2221 183.33L55.8841 182.599L55.5341 182.198L55.7931 182.072L55.7761 180.754L56.2551 180.268L55.8681 179.605L55.9191 178.779L56.2331 178.743L55.5681 178.4L55.6971 178.072L53.8281 177.243L54.3731 177.183L53.1251 177.553L53.4561 177.717L53.0351 177.633L53.0641 177.8L53.5471 177.65L53.0281 177.849L53.7151 177.693L53.1051 177.739L53.4831 177.591L53.8311 177.697L53.2271 177.637L53.5421 177.633L53.3211 177.638L53.4981 177.721L53.5811 177.279L53.5911 177.487L53.3091 177.405L53.5521 177.496L53.3441 177.484L53.7251 177.104L54.1711 177.033" stroke="#292562" stroke-width="5" stroke-linecap="round" stroke-linejoin="round"/>
<path d="M53.3282 154.135L52.7892 154.132L52.9142 154.45L52.6272 154.467L52.9182 154.374L52.7752 153.99L52.4472 154.018L52.4902 154.352L52.7462 154.307L52.3752 154.176L52.6242 154.403L51.2582 155.838L50.6222 156.834L50.5512 157.608L49.9882 157.694L50.0432 158.15L48.0642 160.307L47.1822 160.64L46.1042 161.97L45.1852 162.123L44.5042 163.07L44.1972 163.028L44.4682 163.159L43.9382 163.263L42.8792 164.479L42.2292 164.596L41.3622 165.756L40.3332 165.836L41.0522 165.98L40.5312 165.865L39.5792 166.436L39.7182 166.739L39.1822 166.804L39.5272 166.905L38.2032 167.048L38.6592 167.261L37.5522 167.116L37.6802 166.878L37.2302 166.684L37.2702 166.923L36.8242 166.791L37.6132 166.795L37.1032 166.786L37.7992 167.416" fill="white"/>
<path d="M53.3282 154.135L52.7892 154.132L52.9142 154.45L52.6272 154.467L52.9182 154.374L52.7752 153.99L52.4472 154.018L52.4902 154.352L52.7462 154.307L52.3752 154.176L52.6242 154.403L51.2582 155.838L50.6222 156.834L50.5512 157.608L49.9882 157.694L50.0432 158.15L48.0642 160.307L47.1822 160.64L46.1042 161.97L45.1852 162.123L44.5042 163.07L44.1972 163.028L44.4682 163.159L43.9382 163.263L42.8792 164.479L42.2292 164.596L41.3622 165.756L40.3332 165.836L41.0522 165.98L40.5312 165.865L39.5792 166.436L39.7182 166.739L39.1822 166.804L39.5272 166.905L38.2032 167.048L38.6592 167.261L37.5522 167.116L37.6802 166.878L37.2302 166.684L37.2702 166.923L36.8242 166.791L37.6132 166.795L37.1032 166.786L37.7992 167.416" stroke="#292562" stroke-width="6" stroke-linecap="round" stroke-linejoin="round"/>
<path d="M89.1489 155.339L89.3829 156.076L89.3169 152.994L89.6999 153.359L89.2789 153.892L89.9259 153.968L89.1109 154.604L89.0879 155.005L90.0659 155.19L90.9939 157.209L94.0259 160.137L94.6329 160.532L95.6989 160.584L95.4629 160.784L95.9009 160.854L96.1649 161.372L97.2069 161.65L97.7549 162.548L98.8179 162.552L98.0629 162.568L98.6009 162.513L100.192 163.517L100.629 163.338L100.154 163.649L101.473 163.91L101.293 164.233L102.878 163.908L102.251 164.135L102.725 163.94L102.483 164.287L102.912 164.002L102.294 164.034L103.268 163.933L102.312 164.154L103.8 163.412L103.047 163.79L103.406 163.775L103.522 163.575L102.862 163.543L102.597 163.824" fill="white"/>
<path d="M89.1489 155.339L89.3829 156.076L89.3169 152.994L89.6999 153.359L89.2789 153.892L89.9259 153.968L89.1109 154.604L89.0879 155.005L90.0659 155.19L90.9939 157.209L94.0259 160.137L94.6329 160.532L95.6989 160.584L95.4629 160.784L95.9009 160.854L96.1649 161.372L97.2069 161.65L97.7549 162.548L98.8179 162.552L98.0629 162.568L98.6009 162.513L100.192 163.517L100.629 163.338L100.154 163.649L101.473 163.91L101.293 164.233L102.878 163.908L102.251 164.135L102.725 163.94L102.483 164.287L102.912 164.002L102.294 164.034L103.268 163.933L102.312 164.154L103.8 163.412L103.047 163.79L103.406 163.775L103.522 163.575L102.862 163.543L102.597 163.824" stroke="#292562" stroke-width="6" stroke-linecap="round" stroke-linejoin="round"/>
<path d="M85.963 209.345L85.847 209.099L83.832 206.347L80.414 203.354L77.419 201.721L74.172 200.678L69.647 200.266L66.265 200.705L63.024 201.77L60.04 203.424L57.42 205.607L55.254 208.243L55.041 208.633" fill="white"/>
<path d="M85.963 209.345L85.847 209.099L83.832 206.347L80.414 203.354L77.419 201.721L74.172 200.678L69.647 200.266L66.265 200.705L63.024 201.77L60.04 203.424L57.42 205.607L55.254 208.243L55.041 208.633" stroke="#292562" stroke-width="2" stroke-linecap="round" stroke-linejoin="round"/>
<path d="M87.0781 208.761L86.6251 207.807L84.6111 205.054L81.1931 202.062L78.1981 200.429L74.9501 199.386L70.4261 198.974L67.0431 199.412L63.8031 200.478L60.8191 202.131L58.1981 204.315L56.0331 206.95L55.1211 208.622" fill="white"/>
<path d="M87.0781 208.761L86.6251 207.807L84.6111 205.054L81.1931 202.062L78.1981 200.429L74.9501 199.386L70.4261 198.974L67.0431 199.412L63.8031 200.478L60.8191 202.131L58.1981 204.315L56.0331 206.95L55.1211 208.622" stroke="#292562" stroke-width="2" stroke-linecap="round" stroke-linejoin="round"/>
<path d="M288.361 205.739L280.86 202.337L272.855 200.401L264.629 200L256.473 201.147L248.677 203.802L243.816 206.365L239.315 209.517L233.391 215.239L228.644 221.97L225.242 229.47L223.783 234.768L223 240.208L223.116 248.443L224.773 256.511L227.912 264.125L232.422 271.016L238.144 276.94L244.875 281.687L249.805 284.113L255.001 285.901L263.112 287.331L271.348 287.215L279.415 285.558L287.03 282.419L293.921 277.909L299.845 272.187L304.592 265.456L307.994 257.956L309.93 249.95L310.331 241.724L309.184 233.568L307.577 228.313L305.324 223.301L300.814 216.41L295.092 210.486L288.361 205.739Z" fill="white" stroke="#292562" stroke-width="2" stroke-linecap="round" stroke-linejoin="round"/>
<path d="M251.973 229.322L248.461 228.016L246.585 227.878L244.106 228.243L240.75 229.908L238.243 232.691L236.938 236.202L237.014 239.947L237.576 241.742L238.828 243.912L241.612 246.42L245.122 247.726L248.868 247.649L252.322 246.198L253.783 245.014L255.34 243.051L256.647 239.54L256.569 235.795L255.746 233.429L254.755 231.829L251.973 229.322Z" fill="white" stroke="#292562" stroke-width="2" stroke-linecap="round" stroke-linejoin="round"/>
<path d="M288.711 229.991L285.2 228.685L283.324 228.547L280.845 228.912L277.489 230.577L274.982 233.36L273.676 236.871L273.753 240.616L274.315 242.411L275.568 244.581L278.351 247.089L281.861 248.395L285.607 248.318L289.06 246.867L290.523 245.683L292.079 243.72L293.386 240.209L293.308 236.464L292.485 234.098L291.494 232.499L288.711 229.991Z" fill="white" stroke="#292562" stroke-width="2" stroke-linecap="round" stroke-linejoin="round"/>
<path d="M283.33 239.606L283.079 239.701L283.083 239.464L282.649 240.057L282.937 240.291L282.298 241.224L282.373 241.691L281.824 242.88L281.906 243.609L283.013 244.142L282.698 244.41L284.425 245.253L286.508 244.888L286.409 245.056L286.634 245.083L288.296 244.351L287.946 243.951L288.205 243.824L288.188 242.506L288.667 242.021L288.28 241.357L288.331 240.532L288.645 240.495L287.98 240.152L288.109 239.824L286.24 238.995L286.785 238.935L285.537 239.305L285.868 239.469L285.447 239.385L285.476 239.552L285.959 239.402L285.441 239.602L286.127 239.445L285.517 239.491L285.895 239.343L286.244 239.449L285.639 239.389L285.954 239.385L285.733 239.391L285.91 239.473L285.993 239.031L286.003 239.239L285.721 239.157L285.964 239.248L285.756 239.236L286.137 238.856L286.583 238.785" fill="white"/>
<path d="M283.33 239.606L283.079 239.701L283.083 239.464L282.649 240.057L282.937 240.291L282.298 241.224L282.373 241.691L281.824 242.88L281.906 243.609L283.013 244.142L282.698 244.41L284.425 245.253L286.508 244.888L286.409 245.056L286.634 245.083L288.296 244.351L287.946 243.951L288.205 243.824L288.188 242.506L288.667 242.021L288.28 241.357L288.331 240.532L288.645 240.495L287.98 240.152L288.109 239.824L286.24 238.995L286.785 238.935L285.537 239.305L285.868 239.469L285.447 239.385L285.476 239.552L285.959 239.402L285.441 239.602L286.127 239.445L285.517 239.491L285.895 239.343L286.244 239.449L285.639 239.389L285.954 239.385L285.733 239.391L285.91 239.473L285.993 239.031L286.003 239.239L285.721 239.157L285.964 239.248L285.756 239.236L286.137 238.856L286.583 238.785" stroke="#292562" stroke-width="5" stroke-linecap="round" stroke-linejoin="round"/>
<path d="M246.918 238.854L246.666 238.948L246.671 238.711L246.237 239.305L246.525 239.539L245.886 240.472L245.96 240.938L245.412 242.128L245.494 242.856L246.601 243.39L246.286 243.657L248.012 244.5L250.096 244.136L249.997 244.304L250.222 244.33L251.884 243.599L251.534 243.198L251.792 243.072L251.775 241.753L252.255 241.268L251.868 240.605L251.919 239.779L252.233 239.743L251.568 239.4L251.697 239.072L249.828 238.242L250.373 238.183L249.125 238.553L249.455 238.717L249.035 238.633L249.064 238.8L249.547 238.65L249.028 238.849L249.715 238.692L249.105 238.739L249.483 238.591L249.831 238.697L249.226 238.636L249.542 238.633L249.321 238.638L249.498 238.721L249.581 238.279L249.59 238.487L249.308 238.405L249.552 238.496L249.344 238.483L249.725 238.104L250.171 238.033" fill="white"/>
<path d="M246.918 238.854L246.666 238.948L246.671 238.711L246.237 239.305L246.525 239.539L245.886 240.472L245.96 240.938L245.412 242.128L245.494 242.856L246.601 243.39L246.286 243.657L248.012 244.5L250.096 244.136L249.997 244.304L250.222 244.33L251.884 243.599L251.534 243.198L251.792 243.072L251.775 241.753L252.255 241.268L251.868 240.605L251.919 239.779L252.233 239.743L251.568 239.4L251.697 239.072L249.828 238.242L250.373 238.183L249.125 238.553L249.455 238.717L249.035 238.633L249.064 238.8L249.547 238.65L249.028 238.849L249.715 238.692L249.105 238.739L249.483 238.591L249.831 238.697L249.226 238.636L249.542 238.633L249.321 238.638L249.498 238.721L249.581 238.279L249.59 238.487L249.308 238.405L249.552 238.496L249.344 238.483L249.725 238.104L250.171 238.033" stroke="#292562" stroke-width="5" stroke-linecap="round" stroke-linejoin="round"/>
<path d="M255.434 273.751L293.274 251.844Z" fill="white"/>
<path d="M255.434 273.751L293.274 251.844" stroke="#292562" stroke-width="2" stroke-linecap="round" stroke-linejoin="round"/>
<path d="M383.724 150.943L377.23 145.877L369.902 142.118L361.999 139.798L353.802 139L345.6 139.752L340.274 141.104L335.159 143.112L328.058 147.285L321.865 152.714L316.799 159.208L314.138 164.016L312.101 169.12L310.282 177.153L310 185.384L311.266 193.522L314.034 201.279L318.207 208.38L323.636 214.573L327.861 218.087L332.492 221.045L340.042 224.337L348.074 226.156L356.306 226.438L364.444 225.172L372.201 222.404L379.302 218.231L385.495 212.802L390.561 206.308L394.32 198.98L396.64 191.078L397.438 182.88L397.109 177.395L396.094 171.994L393.326 164.237L389.153 157.137L383.724 150.943Z" fill="white" stroke="#292562" stroke-width="2" stroke-linecap="round" stroke-linejoin="round"/>
<path d="M342.818 165.334L339.711 163.24L337.92 162.666L335.425 162.44L331.772 163.271L328.682 165.388L326.588 168.495L325.785 172.154L325.911 174.031L326.619 176.434L328.736 179.524L331.843 181.618L335.502 182.421L339.199 181.82L340.898 181.013L342.872 179.47L344.966 176.363L345.769 172.704L345.523 170.211L344.935 168.424L342.818 165.334Z" fill="white" stroke="#292562" stroke-width="2" stroke-linecap="round" stroke-linejoin="round"/>
<path d="M378.374 174.601L375.268 172.507L373.476 171.933L370.981 171.707L367.328 172.538L364.238 174.656L362.145 177.762L361.342 181.421L361.467 183.298L362.175 185.701L364.293 188.791L367.399 190.885L371.058 191.688L374.755 191.088L376.455 190.28L378.428 188.737L380.522 185.631L381.325 181.972L381.08 179.478L380.491 177.691L378.374 174.601Z" fill="white" stroke="#292562" stroke-width="2" stroke-linecap="round" stroke-linejoin="round"/>
<path d="M333.711 190.828L333.312 193.145L333.374 196.555L334.073 199.894L335.385 203.042L338.007 206.753L340.534 209.043L343.447 210.819L347.749 212.281L351.139 212.647L354.539 212.372L357.827 211.464L360.888 209.957L363.611 207.902L365.9 205.374L367.676 202.462L368.297 200.807" fill="white"/>
<path d="M333.711 190.828L333.312 193.145L333.374 196.555L334.073 199.894L335.385 203.042L338.007 206.753L340.534 209.043L343.447 210.819L347.749 212.281L351.139 212.647L354.539 212.372L357.827 211.464L360.888 209.957L363.611 207.902L365.9 205.374L367.676 202.462L368.297 200.807" stroke="#292562" stroke-width="2" stroke-linecap="round" stroke-linejoin="round"/>
<path d="M370.887 182.686L370.62 182.719L370.681 182.489L370.119 182.964L370.345 183.259L369.504 184.017L369.468 184.487L368.656 185.515L368.564 186.242L369.515 187.02L369.146 187.207L370.627 188.431L372.738 188.566L372.602 188.706L372.815 188.784L374.602 188.463L374.356 187.991L374.636 187.93L374.929 186.643L375.509 186.284L375.289 185.548L375.532 184.758L375.846 184.796L375.279 184.307L375.482 184.018L373.86 182.774L374.404 182.844L373.104 182.911L373.386 183.147L372.997 182.967L372.986 183.137L373.491 183.104L372.94 183.176L373.644 183.185L373.04 183.087L373.443 183.032L373.756 183.216L373.182 183.016L373.49 183.086L373.274 183.039L373.427 183.162L373.611 182.751L373.571 182.955L373.317 182.81L373.532 182.955L373.332 182.894L373.792 182.615L374.242 182.65" fill="white"/>
<path d="M370.887 182.686L370.62 182.719L370.681 182.489L370.119 182.964L370.345 183.259L369.504 184.017L369.468 184.487L368.656 185.515L368.564 186.242L369.515 187.02L369.146 187.207L370.627 188.431L372.738 188.566L372.602 188.706L372.815 188.784L374.602 188.463L374.356 187.991L374.636 187.93L374.929 186.643L375.509 186.284L375.289 185.548L375.532 184.758L375.846 184.796L375.279 184.307L375.482 184.018L373.86 182.774L374.404 182.844L373.104 182.911L373.386 183.147L372.997 182.967L372.986 183.137L373.491 183.104L372.94 183.176L373.644 183.185L373.04 183.087L373.443 183.032L373.756 183.216L373.182 183.016L373.49 183.086L373.274 183.039L373.427 183.162L373.611 182.751L373.571 182.955L373.317 182.81L373.532 182.955L373.332 182.894L373.792 182.615L374.242 182.65" stroke="#292562" stroke-width="5" stroke-linecap="round" stroke-linejoin="round"/>
<path d="M335.669 173.414L335.402 173.447L335.463 173.217L334.901 173.693L335.127 173.987L334.286 174.745L334.249 175.216L333.438 176.243L333.346 176.97L334.297 177.749L333.928 177.935L335.409 179.16L337.52 179.294L337.384 179.434L337.597 179.512L339.384 179.191L339.138 178.72L339.418 178.658L339.711 177.372L340.291 177.013L340.071 176.277L340.314 175.486L340.628 175.524L340.061 175.035L340.264 174.746L338.642 173.502L339.186 173.572L337.886 173.639L338.168 173.876L337.779 173.695L337.768 173.865L338.273 173.832L337.722 173.904L338.426 173.913L337.822 173.815L338.225 173.76L338.538 173.944L337.964 173.744L338.272 173.814L338.056 173.768L338.209 173.89L338.393 173.48L338.353 173.684L338.099 173.538L338.314 173.683L338.114 173.623L338.574 173.343L339.024 173.378" fill="white"/>
<path d="M335.669 173.414L335.402 173.447L335.463 173.217L334.901 173.693L335.127 173.987L334.286 174.745L334.249 175.216L333.438 176.243L333.346 176.97L334.297 177.749L333.928 177.935L335.409 179.16L337.52 179.294L337.384 179.434L337.597 179.512L339.384 179.191L339.138 178.72L339.418 178.658L339.711 177.372L340.291 177.013L340.071 176.277L340.314 175.486L340.628 175.524L340.061 175.035L340.264 174.746L338.642 173.502L339.186 173.572L337.886 173.639L338.168 173.876L337.779 173.695L337.768 173.865L338.273 173.832L337.722 173.904L338.426 173.913L337.822 173.815L338.225 173.76L338.538 173.944L337.964 173.744L338.272 173.814L338.056 173.768L338.209 173.89L338.393 173.48L338.353 173.684L338.099 173.538L338.314 173.683L338.114 173.623L338.574 173.343L339.024 173.378" stroke="#292562" stroke-width="5" stroke-linecap="round" stroke-linejoin="round"/>
<path d="M437.361 251.739L429.86 248.338L421.855 246.401L413.629 246L405.473 247.147L397.676 249.802L392.816 252.365L388.314 255.517L382.391 261.239L377.644 267.97L374.242 275.471L372.783 280.769L372 286.208L372.115 294.443L373.772 302.511L376.912 310.125L381.422 317.016L387.144 322.94L393.874 327.687L398.805 330.113L404.001 331.902L412.112 333.331L420.347 333.215L428.415 331.558L436.029 328.419L442.921 323.909L448.845 318.187L453.592 311.457L456.993 303.956L458.929 295.951L459.331 287.724L458.184 279.568L456.577 274.313L454.324 269.301L449.813 262.41L444.091 256.486L437.361 251.739Z" fill="white" stroke="#292562" stroke-width="2" stroke-linecap="round" stroke-linejoin="round"/>
<path d="M398.1 302.241L398.256 304.587L399.115 307.889L400.578 310.97L402.592 313.723L406.011 316.715L409.005 318.348L412.253 319.391L416.777 319.804L420.16 319.365L423.401 318.299L426.384 316.646L429.005 314.463L431.171 311.827L432.804 308.832L433.847 305.584L434.062 303.83" fill="white"/>
<path d="M398.1 302.241L398.256 304.587L399.115 307.889L400.578 310.97L402.592 313.723L406.011 316.715L409.005 318.348L412.253 319.391L416.777 319.804L420.16 319.365L423.401 318.299L426.384 316.646L429.005 314.463L431.171 311.827L432.804 308.832L433.847 305.584L434.062 303.83" stroke="#292562" stroke-width="2" stroke-linecap="round" stroke-linejoin="round"/>
<path d="M398.061 301.473L398.217 303.819L399.077 307.121L400.54 310.202L402.554 312.955L405.972 315.948L408.967 317.581L412.215 318.624L416.739 319.036L420.122 318.597L423.362 317.532L426.346 315.878L428.967 313.695L431.132 311.059L432.765 308.064L433.808 304.816L434.024 303.062" fill="white"/>
<path d="M398.061 301.473L398.217 303.819L399.077 307.121L400.54 310.202L402.554 312.955L405.972 315.948L408.967 317.581L412.215 318.624L416.739 319.036L420.122 318.597L423.362 317.532L426.346 315.878L428.967 313.695L431.132 311.059L432.765 308.064L433.808 304.816L434.024 303.062" stroke="#292562" stroke-width="2" stroke-linecap="round" stroke-linejoin="round"/>
<path d="M391.254 283.782L391.714 282.696L392.586 282.297L392.707 281.699L393.425 281.092L393.398 280.789L394.205 280.73L394.396 280.263L395.39 279.933L395.796 279.322L396.519 279.337L397.79 278.565L398.639 278.829L399.039 278.569L398.721 278.472L400.503 278.484L400.872 278.12L402.801 278.191L403.493 278.681L404.303 278.793L406.423 280.268L406.566 280.843L407.059 280.867L406.843 280.985L407.718 281.369L407.706 281.65L408.412 281.737L407.712 281.889L409.033 282.298L409.114 282.528L408.645 282.423L409.035 282.477L408.964 282.814L409.325 282.803L408.958 282.492L409.56 282.551L409.089 282.425L409.376 282.512L409.147 282.433L409.826 281.988" fill="white"/>
<path d="M391.254 283.782L391.714 282.696L392.586 282.297L392.707 281.699L393.425 281.092L393.398 280.789L394.205 280.73L394.396 280.263L395.39 279.933L395.796 279.322L396.519 279.337L397.79 278.565L398.639 278.829L399.039 278.569L398.721 278.472L400.503 278.484L400.872 278.12L402.801 278.191L403.493 278.681L404.303 278.793L406.423 280.268L406.566 280.843L407.059 280.867L406.843 280.985L407.718 281.369L407.706 281.65L408.412 281.737L407.712 281.889L409.033 282.298L409.114 282.528L408.645 282.423L409.035 282.477L408.964 282.814L409.325 282.803L408.958 282.492L409.56 282.551L409.089 282.425L409.376 282.512L409.147 282.433L409.826 281.988" stroke="#292562" stroke-width="5.25" stroke-linecap="round" stroke-linejoin="round"/>
<path d="M424.041 285.564L424.501 284.478L425.373 284.078L425.495 283.481L426.212 282.874L426.185 282.571L426.992 282.512L427.183 282.045L428.177 281.715L428.583 281.104L429.306 281.119L430.578 280.346L431.426 280.61L431.827 280.351L431.508 280.254L433.291 280.265L433.659 279.902L435.588 279.972L436.28 280.462L437.09 280.575L439.21 282.05L439.354 282.624L439.847 282.649L439.631 282.766L440.506 283.151L440.493 283.431L441.2 283.519L440.5 283.671L441.82 284.08L441.902 284.31L441.432 284.204L441.822 284.259L441.751 284.596L442.112 284.584L441.745 284.274L442.347 284.333L441.876 284.207L442.164 284.293L441.934 284.215L442.614 283.77" fill="white"/>
<path d="M424.041 285.564L424.501 284.478L425.373 284.078L425.495 283.481L426.212 282.874L426.185 282.571L426.992 282.512L427.183 282.045L428.177 281.715L428.583 281.104L429.306 281.119L430.578 280.346L431.426 280.61L431.827 280.351L431.508 280.254L433.291 280.265L433.659 279.902L435.588 279.972L436.28 280.462L437.09 280.575L439.21 282.05L439.354 282.624L439.847 282.649L439.631 282.766L440.506 283.151L440.493 283.431L441.2 283.519L440.5 283.671L441.82 284.08L441.902 284.31L441.432 284.204L441.822 284.259L441.751 284.596L442.112 284.584L441.745 284.274L442.347 284.333L441.876 284.207L442.164 284.293L441.934 284.215L442.614 283.77" stroke="#292562" stroke-width="5.25" stroke-linecap="round" stroke-linejoin="round"/>
<path d="M380.139 349.967L372.638 346.565L364.633 344.629L357.49 344.281" stroke="#292562" stroke-width="2" stroke-linecap="round" stroke-linejoin="round"/>
<path d="M316.795 374.515L315.561 378.997L314.777 384.436L314.893 392.671L316.55 400.739L319.689 408.353L324.2 415.244L329.921 421.168L336.652 425.915L341.583 428.341L346.779 430.13L354.89 431.559L363.125 431.443L371.193 429.786L378.807 426.647L385.698 422.137L391.622 416.415L396.369 409.685L399.771 402.184L401.707 394.179L402.109 385.952L400.962 377.796L399.354 372.541L397.101 367.529L392.591 360.638L386.869 354.714L380.139 349.967" fill="white"/>
<path d="M316.795 374.515L315.561 378.997L314.777 384.436L314.893 392.671L316.55 400.739L319.689 408.353L324.2 415.244L329.921 421.168L336.652 425.915L341.583 428.341L346.779 430.13L354.89 431.559L363.125 431.443L371.193 429.786L378.807 426.647L385.698 422.137L391.622 416.415L396.369 409.685L399.771 402.184L401.707 394.179L402.109 385.952L400.962 377.796L399.354 372.541L397.101 367.529L392.591 360.638L386.869 354.714L380.139 349.967" stroke="#292562" stroke-width="2" stroke-linecap="round" stroke-linejoin="round"/>
<path d="M311 383.939L374 343.939" stroke="#292562" stroke-width="2" stroke-linecap="round" stroke-linejoin="round"/>
<path d="M332.428 385.458L332.888 384.372L333.76 383.973L333.882 383.375L334.599 382.768L334.572 382.465L335.38 382.406L335.57 381.94L336.565 381.61L336.97 380.998L337.694 381.013L338.965 380.241L339.813 380.505L340.214 380.245L339.895 380.148L341.678 380.16L342.046 379.796L343.975 379.867L344.667 380.357L345.477 380.469L347.598 381.944L347.741 382.519L348.234 382.543L348.018 382.661L348.893 383.045L348.881 383.326L349.587 383.413L348.887 383.565L350.207 383.974L350.289 384.204L349.819 384.099L350.209 384.153L350.138 384.491L350.499 384.479L350.132 384.168L350.734 384.227L350.263 384.101L350.551 384.188L350.321 384.109L351.001 383.664" stroke="#292562" stroke-width="5.25" stroke-linecap="round" stroke-linejoin="round"/>
<path d="M326 338L314 385" stroke="#292562" stroke-width="4" stroke-linecap="round" stroke-linejoin="round"/>
<path d="M327 340L365 350" stroke="#292562" stroke-width="4" stroke-linecap="round" stroke-linejoin="round"/>
<path d="M321 378L365 350" stroke="#292562" stroke-width="4" stroke-linecap="round" stroke-linejoin="round"/>
<path d="M323.274 371.579L322.77 372.379L323.262 372.31L322.718 372.27L323.267 372.292L323.787 371.596L324.401 371.512L328.814 369.021L342.36 360.537L347.272 358.113L342.015 360.959L333.803 366.51L329.424 369.003L322.839 372.11L322.569 372.48L323.075 372.431L343.419 358.178L345.357 356.184L344.072 357.048L342.317 357.569L320.744 370.733L318.368 371.999H317.422L318.675 371.1L319.415 369.87L320.532 368.864L326.447 364.426L333.728 360.416L342.853 355.992L347.297 352.875L349.529 351.723L350.37 350.755L346.009 353.683L335.166 359.627L326.464 364.882L318.968 370.483L325.245 364.776L334.32 358.302L339.894 354.025L341.655 352.264L321.695 367.287L317.538 369.607L317.433 369.129L319.615 367.562L327.454 360.183L332.057 357.155L340.757 350.353L341.883 349.074L342.285 349.028L341.661 349.2L341.113 350.006L339.351 350.921L330.248 357.881L320.328 363.52L321.624 361.035L322.863 359.591L331.329 351.692L332.061 350.468L333.624 349.322L327.239 354.289L324.837 355.387L325.579 355.193L326.511 353.384L329.931 350.536L333.282 346.797L331.134 349.217L329.212 350.796L324.672 353.291L326.257 351.839L327.846 349.348L330.481 346.006L331.188 345.542L331.878 344.008L330.254 345.082L327.469 346.178L328.519 345.72L328.526 344.861L328.095 343.17L328.303 343.149L327.909 343.291L327.378 342.525L328.84 342.984L333.237 342.485L337.9 343.387L341.902 344.554L343.852 345.458L350.11 349.629L352.338 349.67L353.411 349.301L353.613 349.631L353.486 349.425L354.828 349.202L354.272 349.761" stroke="#292562" stroke-width="4" stroke-linecap="round" stroke-linejoin="round"/>
<path d="M356.204 354.35L353.118 353.298L350.587 352.026L342.773 349.972L337.46 347.211L335.953 347.53L336.906 347.957L338.288 349.839L339.672 350.855L342.681 352.271L345.263 354.525L348.287 355.697L350.825 356.055L352.179 355.676L356.134 353.428" stroke="#292562" stroke-width="4" stroke-linecap="round" stroke-linejoin="round"/>
<path d="M333.748 352.027L337.406 350.892L340.227 350.772L342.691 351.127L345.407 352.249L348.225 352.766L358.141 350.692" stroke="#292562" stroke-width="4" stroke-linecap="round" stroke-linejoin="round"/>
<path d="M348.9 354.705L360.894 352.223L362.333 352.157" stroke="#292562" stroke-width="4" stroke-linecap="round" stroke-linejoin="round"/>
<path d="M328 333L368 345" stroke="#292562" stroke-width="4" stroke-linecap="round" stroke-linejoin="round"/>
<path d="M330 337L368 350" stroke="#292562" stroke-width="4" stroke-linecap="round" stroke-linejoin="round"/>
<path d="M365.215 387.24L365.674 386.154L366.547 385.755L366.668 385.157L367.385 384.55L367.359 384.247L368.166 384.188L368.357 383.721L369.351 383.391L369.757 382.78L370.48 382.795L371.751 382.022L372.599 382.287L373 382.027L372.682 381.93L374.464 381.941L374.832 381.578L376.761 381.648L377.454 382.138L378.263 382.251L380.384 383.726L380.527 384.3L381.02 384.325L380.804 384.443L381.679 384.827L381.667 385.107L382.373 385.195L381.673 385.347L382.993 385.756L383.075 385.986L382.606 385.88L382.995 385.935L382.924 386.272L383.286 386.261L382.918 385.95L383.521 386.009L383.049 385.883L383.337 385.97L383.108 385.891L383.787 385.446" stroke="#292562" stroke-width="5.25" stroke-linecap="round" stroke-linejoin="round"/>
<path d="M362.17 405.693L363.032 406.154L363.296 406.904L363.78 407.05L364.227 407.688L364.479 407.689L364.467 408.36L364.837 408.552L365.035 409.398L365.509 409.779L365.442 410.375L365.983 411.483L365.701 412.163L365.885 412.514L365.989 412.258L365.845 413.729L366.117 414.06L365.913 415.647L365.456 416.182L365.302 416.842L363.925 418.481L363.44 418.555L363.382 418.96L363.301 418.773L362.918 419.467L362.687 419.435L362.562 420.012L362.489 419.422L362.052 420.481L361.856 420.531L361.978 420.152L361.904 420.469L361.631 420.385L361.613 420.684L361.897 420.405L361.803 420.898L361.943 420.518L361.849 420.749L361.932 420.565L362.247 421.16" stroke="#292562" stroke-width="4.25" stroke-linecap="round" stroke-linejoin="round"/>
<path d="M374.691 405.004L374.656 405.326L374.988 405.427L374.495 405.32L374.507 404.573L373.894 404.125L374.187 404.106L374.261 403.374L373.907 403.019L373.886 401.527L373.594 401.387L374.091 401.082L373.266 400.614L373.809 400.499L373.707 399.967L374.191 399.521L373.765 399.086L375.135 397.278L375.212 396.769L378.104 395.453L380.52 395.5L381.727 396.173L382.632 396.233L381.875 396.351L384.271 397.141L383.855 397.235L384.374 397.616L384.884 398.819L385.301 398.92L385.295 399.474L386.021 399.823L385.749 400.698L386.682 401.398L386.386 401.713L387.209 401.97L386.86 402.31L387.849 404.502L387.622 404.962L387.828 405.168L387.384 405.388L387.803 405.593L387.475 405.83L387.787 405.934L387.464 406.344L387.737 406.578L387.086 406.699L387.109 407.599L386.381 407.92L387.059 408.024L386.242 408.106L386.304 408.991L385.44 409.585L386.068 409.742L384.764 409.753L384.99 410.18L383.308 411.665L383.083 411.959L383.31 412.043L382.688 411.901L382.935 412.105L380.972 412.557L380.773 412.943L379.786 412.806L377.42 413.171L377.541 413.488L375.878 413.248L374.803 413.338L375.224 413.465L372.555 412.939L371.253 413.253L368.811 413.149L368.768 413.534L367.817 413.468L367.937 413.736L365.319 414.594L364.713 415.222L364.335 415.049L364.77 415.217L364.113 415.03L364.65 415.246L364.207 415.156L364.937 415.225L364.472 415.142L364.739 415.031L364.43 415.168L364.998 415.244L364.607 415.063L364.586 415.281L364.822 415.276L364.685 414.987L364.952 415.148L364.726 415.245L364.626 414.947L366.185 415.206L366.471 415.516" stroke="#292562" stroke-width="4" stroke-linecap="round" stroke-linejoin="round"/>
<path d="M395.963 336.288L406.069 341.582" stroke="#292562" stroke-width="1.25" stroke-linecap="round" stroke-linejoin="round"/>
<path d="M394.129 339.533V352.196" stroke="#292562" stroke-width="1.25" stroke-linecap="round" stroke-linejoin="round"/>
<path d="M393.619 351.438L409.199 341.629" stroke="#292562" stroke-width="1.25" stroke-linecap="round" stroke-linejoin="round"/>
<path d="M341.075 448.302L330.969 443.008" stroke="#292562" stroke-width="1.25" stroke-linecap="round" stroke-linejoin="round"/>
<path d="M342.91 445.057V432.394" stroke="#292562" stroke-width="1.25" stroke-linecap="round" stroke-linejoin="round"/>
<path d="M343.42 433.152L327.84 442.961" stroke="#292562" stroke-width="1.25" stroke-linecap="round" stroke-linejoin="round"/>
<path d="M422.592 366.922L425.995 377.812" stroke="#292562" stroke-width="1.25" stroke-linecap="round" stroke-linejoin="round"/>
<path d="M418.999 367.92L410.045 376.874" stroke="#292562" stroke-width="1.25" stroke-linecap="round" stroke-linejoin="round"/>
<path d="M410.221 375.978L428.174 380.058" stroke="#292562" stroke-width="1.25" stroke-linecap="round" stroke-linejoin="round"/>
<path d="M400.107 436.818L394.812 446.925" stroke="#292562" stroke-width="1.25" stroke-linecap="round" stroke-linejoin="round"/>
<path d="M396.862 434.984H384.199" stroke="#292562" stroke-width="1.25" stroke-linecap="round" stroke-linejoin="round"/>
<path d="M384.957 434.474L394.767 450.054" stroke="#292562" stroke-width="1.25" stroke-linecap="round" stroke-linejoin="round"/>
</svg>
