<svg width="500" height="500" viewBox="0 0 500 500" fill="none" xmlns="http://www.w3.org/2000/svg">
<circle cx="250" cy="250" r="250" fill="white"/>
<path d="M192.362 67.739L184.861 64.338L176.856 62.402L168.629 62L160.473 63.147L152.677 65.802L147.816 68.365L143.315 71.518L137.391 77.239L132.644 83.97L129.242 91.471L127.784 96.769L127 102.208L127.116 110.443L128.773 118.511L131.912 126.125L136.423 133.016L142.144 138.94L148.875 143.687L153.806 146.113L159.002 147.902L167.113 149.331L175.348 149.215L183.416 147.559L191.03 144.419L197.921 139.909L203.845 134.187L208.592 127.457L211.994 119.956L213.93 111.951L214.331 103.724L213.184 95.569L211.577 90.313L209.324 85.302L204.814 78.41L199.092 72.486L192.362 67.739Z" fill="white" stroke="#292562" stroke-width="2" stroke-linecap="round" stroke-linejoin="round"/>
<path d="M155.973 91.3229L152.462 90.0159L150.586 89.8779L148.107 90.2429L144.751 91.908L142.243 94.6909L140.938 98.202L141.014 101.947L141.578 103.742L142.829 105.913L145.613 108.42L149.124 109.726L152.868 109.649L156.322 108.198L157.785 107.014L159.341 105.051L160.647 101.541L160.57 97.7949L159.746 95.429L158.755 93.83L155.973 91.3229Z" fill="white" stroke="#292562" stroke-width="2" stroke-linecap="round" stroke-linejoin="round"/>
<path d="M192.709 91.9921L189.198 90.6851L187.322 90.5471L184.843 90.9121L181.488 92.5771L178.981 95.3601L177.674 98.8712L177.751 102.616L178.314 104.412L179.566 106.582L182.349 109.089L185.86 110.395L189.605 110.318L193.058 108.867L194.521 107.684L196.078 105.72L197.384 102.21L197.307 98.4651L196.483 96.0981L195.492 94.4991L192.709 91.9921Z" fill="white" stroke="#292562" stroke-width="2" stroke-linecap="round" stroke-linejoin="round"/>
<path d="M187.33 101.607L187.078 101.701L187.082 101.464L186.648 102.058L186.937 102.291L186.297 103.225L186.372 103.691L185.824 104.881L185.906 105.609L187.012 106.142L186.697 106.41L188.424 107.253L190.507 106.889L190.409 107.057L190.634 107.083L192.295 106.351L191.945 105.951L192.204 105.825L192.187 104.506L192.666 104.021L192.28 103.357L192.331 102.532L192.645 102.495L191.979 102.152L192.108 101.824L190.24 100.995L190.785 100.935L189.537 101.306L189.867 101.469L189.447 101.385L189.475 101.553L189.958 101.403L189.44 101.602L190.126 101.445L189.516 101.491L189.895 101.343L190.243 101.449L189.638 101.389L189.953 101.385L189.732 101.391L189.91 101.474L189.993 101.032L190.002 101.239L189.72 101.157L189.963 101.248L189.755 101.236L190.136 100.857L190.582 100.785" fill="white"/>
<path d="M187.33 101.607L187.078 101.701L187.082 101.464L186.648 102.058L186.937 102.291L186.297 103.225L186.372 103.691L185.824 104.881L185.906 105.609L187.012 106.142L186.697 106.41L188.424 107.253L190.507 106.889L190.409 107.057L190.634 107.083L192.295 106.351L191.945 105.951L192.204 105.825L192.187 104.506L192.666 104.021L192.28 103.357L192.331 102.532L192.645 102.495L191.979 102.152L192.108 101.824L190.24 100.995L190.785 100.935L189.537 101.306L189.867 101.469L189.447 101.385L189.475 101.553L189.958 101.403L189.44 101.602L190.126 101.445L189.516 101.491L189.895 101.343L190.243 101.449L189.638 101.389L189.953 101.385L189.732 101.391L189.91 101.474L189.993 101.032L190.002 101.239L189.72 101.157L189.963 101.248L189.755 101.236L190.136 100.857L190.582 100.785" stroke="#292562" stroke-width="5" stroke-linecap="round" stroke-linejoin="round"/>
<path d="M150.916 100.854L150.665 100.949L150.669 100.712L150.235 101.306L150.523 101.539L149.884 102.473L149.959 102.939L149.41 104.128L149.492 104.857L150.599 105.39L150.284 105.658L152.011 106.501L154.094 106.136L153.995 106.305L154.22 106.331L155.882 105.599L155.532 105.199L155.791 105.073L155.774 103.754L156.253 103.269L155.867 102.605L155.918 101.78L156.231 101.743L155.566 101.4L155.695 101.072L153.826 100.243L154.372 100.183L153.124 100.553L153.454 100.717L153.033 100.633L153.062 100.8L153.545 100.65L153.027 100.85L153.713 100.693L153.103 100.739L153.482 100.591L153.83 100.697L153.225 100.637L153.54 100.633L153.319 100.639L153.496 100.722L153.579 100.279L153.589 100.487L153.307 100.405L153.55 100.496L153.342 100.484L153.723 100.104L154.169 100.033" fill="white"/>
<path d="M150.916 100.854L150.665 100.949L150.669 100.712L150.235 101.306L150.523 101.539L149.884 102.473L149.959 102.939L149.41 104.128L149.492 104.857L150.599 105.39L150.284 105.658L152.011 106.501L154.094 106.136L153.995 106.305L154.22 106.331L155.882 105.599L155.532 105.199L155.791 105.073L155.774 103.754L156.253 103.269L155.867 102.605L155.918 101.78L156.231 101.743L155.566 101.4L155.695 101.072L153.826 100.243L154.372 100.183L153.124 100.553L153.454 100.717L153.033 100.633L153.062 100.8L153.545 100.65L153.027 100.85L153.713 100.693L153.103 100.739L153.482 100.591L153.83 100.697L153.225 100.637L153.54 100.633L153.319 100.639L153.496 100.722L153.579 100.279L153.589 100.487L153.307 100.405L153.55 100.496L153.342 100.484L153.723 100.104L154.169 100.033" stroke="#292562" stroke-width="5" stroke-linecap="round" stroke-linejoin="round"/>
<path d="M190.512 85.4292L190.401 86.6032L189.69 87.2472L189.754 87.8542L189.252 88.6482L189.369 88.9292L188.617 89.2292L188.576 89.7312L187.727 90.3452L187.524 91.0502L186.83 91.2542L185.851 92.3732L184.962 92.3772L184.658 92.7452L184.991 92.7412L183.288 93.2672L183.046 93.7242L181.185 94.2382L180.378 93.9792L179.572 94.1162L177.105 93.3482L176.796 92.8432L176.318 92.9692L176.489 92.7912L175.539 92.6882L175.466 92.4172L174.766 92.5462L175.388 92.1902L174.006 92.1982L173.858 92.0042L174.338 91.9632L173.95 92.0282L173.916 91.6852L173.575 91.8052L174.019 91.9902L173.427 92.1162L173.914 92.0942L173.614 92.0982L173.856 92.1042L173.342 92.7322" fill="white"/>
<path d="M190.512 85.4292L190.401 86.6032L189.69 87.2472L189.754 87.8542L189.252 88.6482L189.369 88.9292L188.617 89.2292L188.576 89.7312L187.727 90.3452L187.524 91.0502L186.83 91.2542L185.851 92.3732L184.962 92.3772L184.658 92.7452L184.991 92.7412L183.288 93.2672L183.046 93.7242L181.185 94.2382L180.378 93.9792L179.572 94.1162L177.105 93.3482L176.796 92.8432L176.318 92.9692L176.489 92.7912L175.539 92.6882L175.466 92.4172L174.766 92.5462L175.388 92.1902L174.006 92.1982L173.858 92.0042L174.338 91.9632L173.95 92.0282L173.916 91.6852L173.575 91.8052L174.019 91.9902L173.427 92.1162L173.914 92.0942L173.614 92.0982L173.856 92.1042L173.342 92.7322" stroke="#292562" stroke-width="5.25" stroke-linecap="round" stroke-linejoin="round"/>
<path d="M163.997 94.1041L163.047 94.8032L162.093 94.7011L161.683 95.1531L160.756 95.3081L160.625 95.5822L159.901 95.2202L159.498 95.5241L158.475 95.3001L157.814 95.6181L157.2 95.2361L155.712 95.2501L155.118 94.5891L154.641 94.6082L154.865 94.8541L153.339 93.9331L152.837 94.0571L151.214 93.0111L150.87 92.2371L150.231 91.7261L149.162 89.3751L149.332 88.8081L148.921 88.5352L149.167 88.5441L148.611 87.7672L148.765 87.5321L148.202 87.0961L148.882 87.3221L147.956 86.2961L148.003 86.0571L148.353 86.3881L148.045 86.1422L148.279 85.8881L147.963 85.7131L148.12 86.1682L147.632 85.8101L147.972 86.1591L147.77 85.9371L147.927 86.1221L147.115 86.1571" fill="white"/>
<path d="M163.997 94.1041L163.047 94.8032L162.093 94.7011L161.683 95.1531L160.756 95.3081L160.625 95.5822L159.901 95.2202L159.498 95.5241L158.475 95.3001L157.814 95.6181L157.2 95.2361L155.712 95.2501L155.118 94.5891L154.641 94.6082L154.865 94.8541L153.339 93.9331L152.837 94.0571L151.214 93.0111L150.87 92.2371L150.231 91.7261L149.162 89.3751L149.332 88.8081L148.921 88.5352L149.167 88.5441L148.611 87.7672L148.765 87.5321L148.202 87.0961L148.882 87.3221L147.956 86.2961L148.003 86.0571L148.353 86.3881L148.045 86.1422L148.279 85.8881L147.963 85.7131L148.12 86.1682L147.632 85.8101L147.972 86.1591L147.77 85.9371L147.927 86.1221L147.115 86.1571" stroke="#292562" stroke-width="5.25" stroke-linecap="round" stroke-linejoin="round"/>
<path d="M152.191 129.245L203.279 114.649Z" fill="white"/>
<path d="M152.191 129.245L203.279 114.649" stroke="#292562" stroke-width="2.5" stroke-linecap="round" stroke-linejoin="round"/>
<path d="M155.773 151.835L211.222 135.992Z" fill="white"/>
<path d="M155.773 151.835L211.222 135.992" stroke="#292562" stroke-width="2.5" stroke-linecap="round" stroke-linejoin="round"/>
<path d="M203.079 120.097L202.246 118.28L201.425 117.762L200.512 115.522L200.492 110.649" fill="white"/>
<path d="M203.079 120.097L202.246 118.28L201.425 117.762L200.512 115.522L200.492 110.649" stroke="#292562" stroke-width="2.5" stroke-linecap="round" stroke-linejoin="round"/>
<path d="M200.847 110.234L200.844 111.854L203.297 118.481L206.146 129.784L208.862 136.862" fill="white"/>
<path d="M200.847 110.234L200.844 111.854L203.297 118.481L206.146 129.784L208.862 136.862" stroke="#292562" stroke-width="2.5" stroke-linecap="round" stroke-linejoin="round"/>
<path d="M155.944 137.122L155.112 135.304L154.291 134.786L153.378 132.546L153.354 126.949L154.159 125.445L153.426 126.438L153.714 126.728L153.709 128.878L156.163 135.505L159.012 146.808L161.618 153.604" fill="white"/>
<path d="M155.944 137.122L155.112 135.304L154.291 134.786L153.378 132.546L153.354 126.949L154.159 125.445L153.426 126.438L153.714 126.728L153.709 128.878L156.163 135.505L159.012 146.808L161.618 153.604" stroke="#292562" stroke-width="2.5" stroke-linecap="round" stroke-linejoin="round"/>
<path d="M160.672 135.87L202.181 123.662Z" fill="white"/>
<path d="M160.672 135.87L202.181 123.662" stroke="#292562" stroke-width="7.25" stroke-linecap="round" stroke-linejoin="round"/>
<path d="M158.236 136.012L159.83 136.01L161.105 135.255L160.879 134.926L163.641 134.673L172.308 131.479L175.861 131.041L181.627 128.437L185.581 127.541L188.183 126.478L190.322 126.185L191.304 125.599L192.173 125.651L195.008 124.588L194.835 124.38L195.362 124.452" fill="white"/>
<path d="M158.236 136.012L159.83 136.01L161.105 135.255L160.879 134.926L163.641 134.673L172.308 131.479L175.861 131.041L181.627 128.437L185.581 127.541L188.183 126.478L190.322 126.185L191.304 125.599L192.173 125.651L195.008 124.588L194.835 124.38L195.362 124.452" stroke="#292562" stroke-width="7.25" stroke-linecap="round" stroke-linejoin="round"/>
<path d="M161.512 130.199L163.107 130.197L164.381 129.442L164.155 129.113L166.917 128.86L175.584 125.666L179.137 125.228L184.903 122.624L188.858 121.728L191.459 120.665L193.598 120.372L194.58 119.786L195.449 119.838L198.285 118.775L198.111 118.566L198.638 118.638" fill="white"/>
<path d="M161.512 130.199L163.107 130.197L164.381 129.442L164.155 129.113L166.917 128.86L175.584 125.666L179.137 125.228L184.903 122.624L188.858 121.728L191.459 120.665L193.598 120.372L194.58 119.786L195.449 119.838L198.285 118.775L198.111 118.566L198.638 118.638" stroke="#292562" stroke-width="7.25" stroke-linecap="round" stroke-linejoin="round"/>
<path d="M167.137 141.861L168.731 141.859L170.005 141.104L169.779 140.775L172.541 140.523L181.208 137.328L184.761 136.89L190.527 134.286L194.482 133.39L197.083 132.327L199.222 132.034L200.204 131.449L201.073 131.5L203.909 130.437L203.735 130.229L204.262 130.301" fill="white"/>
<path d="M167.137 141.861L168.731 141.859L170.005 141.104L169.779 140.775L172.541 140.523L181.208 137.328L184.761 136.89L190.527 134.286L194.482 133.39L197.083 132.327L199.222 132.034L200.204 131.449L201.073 131.5L203.909 130.437L203.735 130.229L204.262 130.301" stroke="#292562" stroke-width="7.25" stroke-linecap="round" stroke-linejoin="round"/>
<path d="M169.584 135.815L169.618 138.247L170.13 139.336L169.992 139.736L170.49 140.743L172.302 142.037L172.242 142.708" fill="white"/>
<path d="M169.584 135.815L169.618 138.247L170.13 139.336L169.992 139.736L170.49 140.743L172.302 142.037L172.242 142.708" stroke="white" stroke-width="2" stroke-linecap="round" stroke-linejoin="round"/>
<path d="M175.35 131.102L175.531 131.48L174.811 131.989L175.395 132.005L175.061 132.28L175.517 133.424L175.282 134.345L175.986 135.31L177.128 138.088L178.036 143.51L177.838 144.439" fill="white"/>
<path d="M175.35 131.102L175.531 131.48L174.811 131.989L175.395 132.005L175.061 132.28L175.517 133.424L175.282 134.345L175.986 135.31L177.128 138.088L178.036 143.51L177.838 144.439" stroke="white" stroke-width="2" stroke-linecap="round" stroke-linejoin="round"/>
<path d="M167.728 132.964L167.108 132.867L166.367 133.372L166.925 133.385L174.107 131.41L177.561 129.92" fill="white"/>
<path d="M167.728 132.964L167.108 132.867L166.367 133.372L166.925 133.385L174.107 131.41L177.561 129.92" stroke="white" stroke-width="2" stroke-linecap="round" stroke-linejoin="round"/>
<path d="M169.658 139.481L169.568 139.759L170.071 139.844L170.125 139.445L178.202 137.412L181.219 135.608" fill="white"/>
<path d="M169.658 139.481L169.568 139.759L170.071 139.844L170.125 139.445L178.202 137.412L181.219 135.608" stroke="white" stroke-width="2" stroke-linecap="round" stroke-linejoin="round"/>
<path d="M191.662 123.816L190.027 124.885L189.557 125.979L190.18 126.717L190.17 129.354L192.077 132.491" fill="white"/>
<path d="M191.662 123.816L190.027 124.885L189.557 125.979L190.18 126.717L190.17 129.354L192.077 132.491" stroke="white" stroke-width="2" stroke-linecap="round" stroke-linejoin="round"/>
<path d="M194.067 140.25L193.926 141.085L195.305 140.273" fill="white"/>
<path d="M194.067 140.25L193.926 141.085L195.305 140.273" stroke="white" stroke-width="2" stroke-linecap="round" stroke-linejoin="round"/>
<path d="M200.145 125.732L202.616 123.508L203.916 123.445L204.481 125.001L203.775 125.634L203.663 127.905L203.136 128.418L203.226 129.283L202.568 130.046L203.246 130.853" fill="white"/>
<path d="M200.145 125.732L202.616 123.508L203.916 123.445L204.481 125.001L203.775 125.634L203.663 127.905L203.136 128.418L203.226 129.283L202.568 130.046L203.246 130.853" stroke="white" stroke-width="2" stroke-linecap="round" stroke-linejoin="round"/>
<path d="M92.361 144.739L84.861 141.337L76.855 139.401L68.629 139L60.473 140.147L52.677 142.802L47.816 145.365L43.315 148.517L37.391 154.239L32.644 160.97L29.242 168.47L27.783 173.769L27 179.208L27.116 187.443L28.773 195.511L31.912 203.125L36.422 210.016L42.144 215.94L48.875 220.687L53.805 223.113L59.001 224.902L67.113 226.331L75.348 226.215L83.416 224.558L91.03 221.419L97.921 216.909L103.845 211.187L108.592 204.457L111.994 196.956L113.93 188.95L114.331 180.724L113.184 172.568L111.577 167.313L109.324 162.301L104.814 155.41L99.092 149.486L92.361 144.739Z" fill="white" stroke="#292562" stroke-width="2" stroke-linecap="round" stroke-linejoin="round"/>
<path d="M55.9745 168.323L52.4635 167.016L50.5875 166.878L48.1085 167.243L44.7525 168.908L42.2455 171.691L40.9395 175.202L41.0164 178.947L41.5785 180.742L42.8315 182.912L45.6145 185.42L49.1245 186.726L52.8705 186.649L56.3235 185.198L57.7865 184.014L59.3425 182.051L60.6495 178.54L60.5715 174.795L59.7485 172.429L58.7575 170.83L55.9745 168.323Z" fill="white" stroke="#292562" stroke-width="2" stroke-linecap="round" stroke-linejoin="round"/>
<path d="M92.7108 168.991L89.1998 167.685L87.3238 167.547L84.8448 167.912L81.4898 169.577L78.9818 172.36L77.6758 175.871L77.7528 179.616L78.3148 181.411L79.5678 183.582L82.3508 186.089L85.8618 187.395L89.6068 187.318L93.0598 185.867L94.5228 184.683L96.0788 182.72L97.3858 179.209L97.3078 175.464L96.4848 173.098L95.4938 171.499L92.7108 168.991Z" fill="white" stroke="#292562" stroke-width="2" stroke-linecap="round" stroke-linejoin="round"/>
<path d="M87.3302 178.606L87.0792 178.701L87.0832 178.464L86.6492 179.058L86.9372 179.291L86.2982 180.224L86.3732 180.691L85.8242 181.88L85.9062 182.609L87.0132 183.142L86.6982 183.41L88.4252 184.253L90.5082 183.888L90.4092 184.057L90.6342 184.083L92.2962 183.351L91.9462 182.951L92.2052 182.825L92.1882 181.506L92.6672 181.021L92.2802 180.357L92.3322 179.532L92.6452 179.495L91.9802 179.152L92.1092 178.824L90.2402 177.995L90.7862 177.935L89.5382 178.305L89.8682 178.469L89.4472 178.385L89.4762 178.552L89.9592 178.402L89.4412 178.602L90.1272 178.445L89.5172 178.491L89.8952 178.343L90.2442 178.449L89.6392 178.389L89.9542 178.385L89.7332 178.391L89.9102 178.474L89.9932 178.031L90.0032 178.239L89.7212 178.157L89.9642 178.248L89.7562 178.236L90.1372 177.856L90.5832 177.785" fill="white"/>
<path d="M87.3302 178.606L87.0792 178.701L87.0832 178.464L86.6492 179.058L86.9372 179.291L86.2982 180.224L86.3732 180.691L85.8242 181.88L85.9062 182.609L87.0132 183.142L86.6982 183.41L88.4252 184.253L90.5082 183.888L90.4092 184.057L90.6342 184.083L92.2962 183.351L91.9462 182.951L92.2052 182.825L92.1882 181.506L92.6672 181.021L92.2802 180.357L92.3322 179.532L92.6452 179.495L91.9802 179.152L92.1092 178.824L90.2402 177.995L90.7862 177.935L89.5382 178.305L89.8682 178.469L89.4472 178.385L89.4762 178.552L89.9592 178.402L89.4412 178.602L90.1272 178.445L89.5172 178.491L89.8952 178.343L90.2442 178.449L89.6392 178.389L89.9542 178.385L89.7332 178.391L89.9102 178.474L89.9932 178.031L90.0032 178.239L89.7212 178.157L89.9642 178.248L89.7562 178.236L90.1372 177.856L90.5832 177.785" stroke="#292562" stroke-width="5" stroke-linecap="round" stroke-linejoin="round"/>
<path d="M50.9181 177.854L50.6661 177.949L50.6711 177.712L50.2371 178.305L50.5251 178.539L49.8861 179.472L49.9601 179.939L49.4121 181.128L49.4941 181.856L50.6011 182.39L50.2861 182.658L52.0131 183.501L54.0961 183.136L53.9971 183.304L54.2221 183.33L55.8841 182.599L55.5341 182.198L55.7931 182.072L55.7761 180.754L56.2551 180.268L55.8681 179.605L55.9191 178.779L56.2331 178.743L55.5681 178.4L55.6971 178.072L53.8281 177.243L54.3731 177.183L53.1251 177.553L53.4561 177.717L53.0351 177.633L53.0641 177.8L53.5471 177.65L53.0281 177.849L53.7151 177.693L53.1051 177.739L53.4831 177.591L53.8311 177.697L53.2271 177.637L53.5421 177.633L53.3211 177.638L53.4981 177.721L53.5811 177.279L53.5911 177.487L53.3091 177.405L53.5521 177.496L53.3441 177.484L53.7251 177.104L54.1711 177.033" fill="white"/>
<path d="M50.9181 177.854L50.6661 177.949L50.6711 177.712L50.2371 178.305L50.5251 178.539L49.8861 179.472L49.9601 179.939L49.4121 181.128L49.4941 181.856L50.6011 182.39L50.2861 182.658L52.0131 183.501L54.0961 183.136L53.9971 183.304L54.2221 183.33L55.8841 182.599L55.5341 182.198L55.7931 182.072L55.7761 180.754L56.2551 180.268L55.8681 179.605L55.9191 178.779L56.2331 178.743L55.5681 178.4L55.6971 178.072L53.8281 177.243L54.3731 177.183L53.1251 177.553L53.4561 177.717L53.0351 177.633L53.0641 177.8L53.5471 177.65L53.0281 177.849L53.7151 177.693L53.1051 177.739L53.4831 177.591L53.8311 177.697L53.2271 177.637L53.5421 177.633L53.3211 177.638L53.4981 177.721L53.5811 177.279L53.5911 177.487L53.3091 177.405L53.5521 177.496L53.3441 177.484L53.7251 177.104L54.1711 177.033" stroke="#292562" stroke-width="5" stroke-linecap="round" stroke-linejoin="round"/>
<path d="M53.3282 154.135L52.7892 154.132L52.9142 154.45L52.6272 154.467L52.9182 154.374L52.7752 153.99L52.4472 154.018L52.4902 154.352L52.7462 154.307L52.3752 154.176L52.6242 154.403L51.2582 155.838L50.6222 156.834L50.5512 157.608L49.9882 157.694L50.0432 158.15L48.0642 160.307L47.1822 160.64L46.1042 161.97L45.1852 162.123L44.5042 163.07L44.1972 163.028L44.4682 163.159L43.9382 163.263L42.8792 164.479L42.2292 164.596L41.3622 165.756L40.3332 165.836L41.0522 165.98L40.5312 165.865L39.5792 166.436L39.7182 166.739L39.1822 166.804L39.5272 166.905L38.2032 167.048L38.6592 167.261L37.5522 167.116L37.6802 166.878L37.2302 166.684L37.2702 166.923L36.8242 166.791L37.6132 166.795L37.1032 166.786L37.7992 167.416" fill="white"/>
<path d="M53.3282 154.135L52.7892 154.132L52.9142 154.45L52.6272 154.467L52.9182 154.374L52.7752 153.99L52.4472 154.018L52.4902 154.352L52.7462 154.307L52.3752 154.176L52.6242 154.403L51.2582 155.838L50.6222 156.834L50.5512 157.608L49.9882 157.694L50.0432 158.15L48.0642 160.307L47.1822 160.64L46.1042 161.97L45.1852 162.123L44.5042 163.07L44.1972 163.028L44.4682 163.159L43.9382 163.263L42.8792 164.479L42.2292 164.596L41.3622 165.756L40.3332 165.836L41.0522 165.98L40.5312 165.865L39.5792 166.436L39.7182 166.739L39.1822 166.804L39.5272 166.905L38.2032 167.048L38.6592 167.261L37.5522 167.116L37.6802 166.878L37.2302 166.684L37.2702 166.923L36.8242 166.791L37.6132 166.795L37.1032 166.786L37.7992 167.416" stroke="#292562" stroke-width="6" stroke-linecap="round" stroke-linejoin="round"/>
<path d="M89.1489 155.339L89.3829 156.076L89.3169 152.994L89.6999 153.359L89.2789 153.892L89.9259 153.968L89.1109 154.604L89.0879 155.005L90.0659 155.19L90.9939 157.209L94.0259 160.137L94.6329 160.532L95.6989 160.584L95.4629 160.784L95.9009 160.854L96.1649 161.372L97.2069 161.65L97.7549 162.548L98.8179 162.552L98.0629 162.568L98.6009 162.513L100.192 163.517L100.629 163.338L100.154 163.649L101.473 163.91L101.293 164.233L102.878 163.908L102.251 164.135L102.725 163.94L102.483 164.287L102.912 164.002L102.294 164.034L103.268 163.933L102.312 164.154L103.8 163.412L103.047 163.79L103.406 163.775L103.522 163.575L102.862 163.543L102.597 163.824" fill="white"/>
<path d="M89.1489 155.339L89.3829 156.076L89.3169 152.994L89.6999 153.359L89.2789 153.892L89.9259 153.968L89.1109 154.604L89.0879 155.005L90.0659 155.19L90.9939 157.209L94.0259 160.137L94.6329 160.532L95.6989 160.584L95.4629 160.784L95.9009 160.854L96.1649 161.372L97.2069 161.65L97.7549 162.548L98.8179 162.552L98.0629 162.568L98.6009 162.513L100.192 163.517L100.629 163.338L100.154 163.649L101.473 163.91L101.293 164.233L102.878 163.908L102.251 164.135L102.725 163.94L102.483 164.287L102.912 164.002L102.294 164.034L103.268 163.933L102.312 164.154L103.8 163.412L103.047 163.79L103.406 163.775L103.522 163.575L102.862 163.543L102.597 163.824" stroke="#292562" stroke-width="6" stroke-linecap="round" stroke-linejoin="round"/>
<path d="M85.963 209.345L85.847 209.099L83.832 206.347L80.414 203.354L77.419 201.721L74.172 200.678L69.647 200.266L66.265 200.705L63.024 201.77L60.04 203.424L57.42 205.607L55.254 208.243L55.041 208.633" fill="white"/>
<path d="M85.963 209.345L85.847 209.099L83.832 206.347L80.414 203.354L77.419 201.721L74.172 200.678L69.647 200.266L66.265 200.705L63.024 201.77L60.04 203.424L57.42 205.607L55.254 208.243L55.041 208.633" stroke="#292562" stroke-width="2" stroke-linecap="round" stroke-linejoin="round"/>
<path d="M87.0781 208.761L86.6251 207.807L84.6111 205.054L81.1931 202.062L78.1981 200.429L74.9501 199.386L70.4261 198.974L67.0431 199.412L63.8031 200.478L60.8191 202.131L58.1981 204.315L56.0331 206.95L55.1211 208.622" fill="white"/>
<path d="M87.0781 208.761L86.6251 207.807L84.6111 205.054L81.1931 202.062L78.1981 200.429L74.9501 199.386L70.4261 198.974L67.0431 199.412L63.8031 200.478L60.8191 202.131L58.1981 204.315L56.0331 206.95L55.1211 208.622" stroke="#292562" stroke-width="2" stroke-linecap="round" stroke-linejoin="round"/>
<path d="M288.361 205.739L280.86 202.337L272.855 200.401L264.629 200L256.473 201.147L248.677 203.802L243.816 206.365L239.315 209.517L233.391 215.239L228.644 221.97L225.242 229.47L223.783 234.768L223 240.208L223.116 248.443L224.773 256.511L227.912 264.125L232.422 271.016L238.144 276.94L244.875 281.687L249.805 284.113L255.001 285.901L263.112 287.331L271.348 287.215L279.415 285.558L287.03 282.419L293.921 277.909L299.845 272.187L304.592 265.456L307.994 257.956L309.93 249.95L310.331 241.724L309.184 233.568L307.577 228.313L305.324 223.301L300.814 216.41L295.092 210.486L288.361 205.739Z" fill="white" stroke="#292562" stroke-width="2" stroke-linecap="round" stroke-linejoin="round"/>
<path d="M251.973 229.322L248.461 228.016L246.585 227.878L244.106 228.243L240.75 229.908L238.243 232.691L236.938 236.202L237.014 239.947L237.576 241.742L238.828 243.912L241.612 246.42L245.122 247.726L248.868 247.649L252.322 246.198L253.783 245.014L255.34 243.051L256.647 239.54L256.569 235.795L255.746 233.429L254.755 231.829L251.973 229.322Z" fill="white" stroke="#292562" stroke-width="2" stroke-linecap="round" stroke-linejoin="round"/>
<path d="M288.711 229.991L285.2 228.685L283.324 228.547L280.845 228.912L277.489 230.577L274.982 233.36L273.676 236.871L273.753 240.616L274.315 242.411L275.568 244.581L278.351 247.089L281.861 248.395L285.607 248.318L289.06 246.867L290.523 245.683L292.079 243.72L293.386 240.209L293.308 236.464L292.485 234.098L291.494 232.499L288.711 229.991Z" fill="white" stroke="#292562" stroke-width="2" stroke-linecap="round" stroke-linejoin="round"/>
<path d="M283.33 239.606L283.079 239.701L283.083 239.464L282.649 240.057L282.937 240.291L282.298 241.224L282.373 241.691L281.824 242.88L281.906 243.609L283.013 244.142L282.698 244.41L284.425 245.253L286.508 244.888L286.409 245.056L286.634 245.083L288.296 244.351L287.946 243.951L288.205 243.824L288.188 242.506L288.667 242.021L288.28 241.357L288.331 240.532L288.645 240.495L287.98 240.152L288.109 239.824L286.24 238.995L286.785 238.935L285.537 239.305L285.868 239.469L285.447 239.385L285.476 239.552L285.959 239.402L285.441 239.602L286.127 239.445L285.517 239.491L285.895 239.343L286.244 239.449L285.639 239.389L285.954 239.385L285.733 239.391L285.91 239.473L285.993 239.031L286.003 239.239L285.721 239.157L285.964 239.248L285.756 239.236L286.137 238.856L286.583 238.785" fill="white"/>
<path d="M283.33 239.606L283.079 239.701L283.083 239.464L282.649 240.057L282.937 240.291L282.298 241.224L282.373 241.691L281.824 242.88L281.906 243.609L283.013 244.142L282.698 244.41L284.425 245.253L286.508 244.888L286.409 245.056L286.634 245.083L288.296 244.351L287.946 243.951L288.205 243.824L288.188 242.506L288.667 242.021L288.28 241.357L288.331 240.532L288.645 240.495L287.98 240.152L288.109 239.824L286.24 238.995L286.785 238.935L285.537 239.305L285.868 239.469L285.447 239.385L285.476 239.552L285.959 239.402L285.441 239.602L286.127 239.445L285.517 239.491L285.895 239.343L286.244 239.449L285.639 239.389L285.954 239.385L285.733 239.391L285.91 239.473L285.993 239.031L286.003 239.239L285.721 239.157L285.964 239.248L285.756 239.236L286.137 238.856L286.583 238.785" stroke="#292562" stroke-width="5" stroke-linecap="round" stroke-linejoin="round"/>
<path d="M246.918 238.854L246.666 238.948L246.671 238.711L246.237 239.305L246.525 239.539L245.886 240.472L245.96 240.938L245.412 242.128L245.494 242.856L246.601 243.39L246.286 243.657L248.012 244.5L250.096 244.136L249.997 244.304L250.222 244.33L251.884 243.599L251.534 243.198L251.792 243.072L251.775 241.753L252.255 241.268L251.868 240.605L251.919 239.779L252.233 239.743L251.568 239.4L251.697 239.072L249.828 238.242L250.373 238.183L249.125 238.553L249.455 238.717L249.035 238.633L249.064 238.8L249.547 238.65L249.028 238.849L249.715 238.692L249.105 238.739L249.483 238.591L249.831 238.697L249.226 238.636L249.542 238.633L249.321 238.638L249.498 238.721L249.581 238.279L249.59 238.487L249.308 238.405L249.552 238.496L249.344 238.483L249.725 238.104L250.171 238.033" fill="white"/>
<path d="M246.918 238.854L246.666 238.948L246.671 238.711L246.237 239.305L246.525 239.539L245.886 240.472L245.96 240.938L245.412 242.128L245.494 242.856L246.601 243.39L246.286 243.657L248.012 244.5L250.096 244.136L249.997 244.304L250.222 244.33L251.884 243.599L251.534 243.198L251.792 243.072L251.775 241.753L252.255 241.268L251.868 240.605L251.919 239.779L252.233 239.743L251.568 239.4L251.697 239.072L249.828 238.242L250.373 238.183L249.125 238.553L249.455 238.717L249.035 238.633L249.064 238.8L249.547 238.65L249.028 238.849L249.715 238.692L249.105 238.739L249.483 238.591L249.831 238.697L249.226 238.636L249.542 238.633L249.321 238.638L249.498 238.721L249.581 238.279L249.59 238.487L249.308 238.405L249.552 238.496L249.344 238.483L249.725 238.104L250.171 238.033" stroke="#292562" stroke-width="5" stroke-linecap="round" stroke-linejoin="round"/>
<path d="M255.434 273.751L293.274 251.844Z" fill="white"/>
<path d="M255.434 273.751L293.274 251.844" stroke="#292562" stroke-width="2" stroke-linecap="round" stroke-linejoin="round"/>
<path d="M383.724 150.943L377.23 145.877L369.902 142.118L361.999 139.798L353.802 139L345.6 139.752L340.274 141.104L335.159 143.112L328.058 147.285L321.865 152.714L316.799 159.208L314.138 164.016L312.101 169.12L310.282 177.153L310 185.384L311.266 193.522L314.034 201.279L318.207 208.38L323.636 214.573L327.861 218.087L332.492 221.045L340.042 224.337L348.074 226.156L356.306 226.438L364.444 225.172L372.201 222.404L379.302 218.231L385.495 212.802L390.561 206.308L394.32 198.98L396.64 191.078L397.438 182.88L397.109 177.395L396.094 171.994L393.326 164.237L389.153 157.137L383.724 150.943Z" fill="white" stroke="#292562" stroke-width="2" stroke-linecap="round" stroke-linejoin="round"/>
<path d="M342.818 165.334L339.711 163.24L337.92 162.666L335.425 162.44L331.772 163.271L328.682 165.388L326.588 168.495L325.785 172.154L325.911 174.031L326.619 176.434L328.736 179.524L331.843 181.618L335.502 182.421L339.199 181.82L340.898 181.013L342.872 179.47L344.966 176.363L345.769 172.704L345.523 170.211L344.935 168.424L342.818 165.334Z" fill="white" stroke="#292562" stroke-width="2" stroke-linecap="round" stroke-linejoin="round"/>
<path d="M378.374 174.601L375.268 172.507L373.476 171.933L370.981 171.707L367.328 172.538L364.238 174.656L362.145 177.762L361.342 181.421L361.467 183.298L362.175 185.701L364.293 188.791L367.399 190.885L371.058 191.688L374.755 191.088L376.455 190.28L378.428 188.737L380.522 185.631L381.325 181.972L381.08 179.478L380.491 177.691L378.374 174.601Z" fill="white" stroke="#292562" stroke-width="2" stroke-linecap="round" stroke-linejoin="round"/>
<path d="M333.711 190.828L333.312 193.145L333.374 196.555L334.073 199.894L335.385 203.042L338.007 206.753L340.534 209.043L343.447 210.819L347.749 212.281L351.139 212.647L354.539 212.372L357.827 211.464L360.888 209.957L363.611 207.902L365.9 205.374L367.676 202.462L368.297 200.807" fill="white"/>
<path d="M333.711 190.828L333.312 193.145L333.374 196.555L334.073 199.894L335.385 203.042L338.007 206.753L340.534 209.043L343.447 210.819L347.749 212.281L351.139 212.647L354.539 212.372L357.827 211.464L360.888 209.957L363.611 207.902L365.9 205.374L367.676 202.462L368.297 200.807" stroke="#292562" stroke-width="2" stroke-linecap="round" stroke-linejoin="round"/>
<path d="M370.887 182.686L370.62 182.719L370.681 182.489L370.119 182.964L370.345 183.259L369.504 184.017L369.468 184.487L368.656 185.515L368.564 186.242L369.515 187.02L369.146 187.207L370.627 188.431L372.738 188.566L372.602 188.706L372.815 188.784L374.602 188.463L374.356 187.991L374.636 187.93L374.929 186.643L375.509 186.284L375.289 185.548L375.532 184.758L375.846 184.796L375.279 184.307L375.482 184.018L373.86 182.774L374.404 182.844L373.104 182.911L373.386 183.147L372.997 182.967L372.986 183.137L373.491 183.104L372.94 183.176L373.644 183.185L373.04 183.087L373.443 183.032L373.756 183.216L373.182 183.016L373.49 183.086L373.274 183.039L373.427 183.162L373.611 182.751L373.571 182.955L373.317 182.81L373.532 182.955L373.332 182.894L373.792 182.615L374.242 182.65" fill="white"/>
<path d="M370.887 182.686L370.62 182.719L370.681 182.489L370.119 182.964L370.345 183.259L369.504 184.017L369.468 184.487L368.656 185.515L368.564 186.242L369.515 187.02L369.146 187.207L370.627 188.431L372.738 188.566L372.602 188.706L372.815 188.784L374.602 188.463L374.356 187.991L374.636 187.93L374.929 186.643L375.509 186.284L375.289 185.548L375.532 184.758L375.846 184.796L375.279 184.307L375.482 184.018L373.86 182.774L374.404 182.844L373.104 182.911L373.386 183.147L372.997 182.967L372.986 183.137L373.491 183.104L372.94 183.176L373.644 183.185L373.04 183.087L373.443 183.032L373.756 183.216L373.182 183.016L373.49 183.086L373.274 183.039L373.427 183.162L373.611 182.751L373.571 182.955L373.317 182.81L373.532 182.955L373.332 182.894L373.792 182.615L374.242 182.65" stroke="#292562" stroke-width="5" stroke-linecap="round" stroke-linejoin="round"/>
<path d="M335.669 173.414L335.402 173.447L335.463 173.217L334.901 173.693L335.127 173.987L334.286 174.745L334.249 175.216L333.438 176.243L333.346 176.97L334.297 177.749L333.928 177.935L335.409 179.16L337.52 179.294L337.384 179.434L337.597 179.512L339.384 179.191L339.138 178.72L339.418 178.658L339.711 177.372L340.291 177.013L340.071 176.277L340.314 175.486L340.628 175.524L340.061 175.035L340.264 174.746L338.642 173.502L339.186 173.572L337.886 173.639L338.168 173.876L337.779 173.695L337.768 173.865L338.273 173.832L337.722 173.904L338.426 173.913L337.822 173.815L338.225 173.76L338.538 173.944L337.964 173.744L338.272 173.814L338.056 173.768L338.209 173.89L338.393 173.48L338.353 173.684L338.099 173.538L338.314 173.683L338.114 173.623L338.574 173.343L339.024 173.378" fill="white"/>
<path d="M335.669 173.414L335.402 173.447L335.463 173.217L334.901 173.693L335.127 173.987L334.286 174.745L334.249 175.216L333.438 176.243L333.346 176.97L334.297 177.749L333.928 177.935L335.409 179.16L337.52 179.294L337.384 179.434L337.597 179.512L339.384 179.191L339.138 178.72L339.418 178.658L339.711 177.372L340.291 177.013L340.071 176.277L340.314 175.486L340.628 175.524L340.061 175.035L340.264 174.746L338.642 173.502L339.186 173.572L337.886 173.639L338.168 173.876L337.779 173.695L337.768 173.865L338.273 173.832L337.722 173.904L338.426 173.913L337.822 173.815L338.225 173.76L338.538 173.944L337.964 173.744L338.272 173.814L338.056 173.768L338.209 173.89L338.393 173.48L338.353 173.684L338.099 173.538L338.314 173.683L338.114 173.623L338.574 173.343L339.024 173.378" stroke="#292562" stroke-width="5" stroke-linecap="round" stroke-linejoin="round"/>
<path d="M423.361 226.739L415.86 223.338L407.855 221.401L399.629 221L391.473 222.147L383.676 224.802L378.816 227.365L374.314 230.517L368.391 236.239L363.644 242.97L360.242 250.471L358.783 255.769L358 261.208L358.115 269.443L359.772 277.511L362.912 285.125L367.422 292.016L373.144 297.94L379.874 302.687L384.805 305.113L390.001 306.902L398.112 308.331L406.347 308.215L414.415 306.558L422.029 303.419L428.921 298.909L434.845 293.187L439.592 286.457L442.993 278.956L444.929 270.951L445.331 262.724L444.184 254.568L442.577 249.313L440.324 244.301L435.813 237.41L430.091 231.486L423.361 226.739Z" fill="white" stroke="#292562" stroke-width="2" stroke-linecap="round" stroke-linejoin="round"/>
<path d="M384.1 277.241L384.256 279.587L385.115 282.889L386.578 285.97L388.592 288.723L392.011 291.715L395.005 293.348L398.253 294.391L402.777 294.804L406.16 294.365L409.401 293.299L412.384 291.646L415.005 289.463L417.171 286.827L418.804 283.832L419.847 280.584L420.062 278.83" fill="white"/>
<path d="M384.1 277.241L384.256 279.587L385.115 282.889L386.578 285.97L388.592 288.723L392.011 291.715L395.005 293.348L398.253 294.391L402.777 294.804L406.16 294.365L409.401 293.299L412.384 291.646L415.005 289.463L417.171 286.827L418.804 283.832L419.847 280.584L420.062 278.83" stroke="#292562" stroke-width="2" stroke-linecap="round" stroke-linejoin="round"/>
<path d="M384.061 276.473L384.217 278.819L385.077 282.121L386.54 285.202L388.554 287.955L391.972 290.948L394.967 292.581L398.215 293.624L402.739 294.036L406.122 293.597L409.362 292.532L412.346 290.878L414.967 288.695L417.132 286.059L418.765 283.064L419.808 279.816L420.024 278.062" fill="white"/>
<path d="M384.061 276.473L384.217 278.819L385.077 282.121L386.54 285.202L388.554 287.955L391.972 290.948L394.967 292.581L398.215 293.624L402.739 294.036L406.122 293.597L409.362 292.532L412.346 290.878L414.967 288.695L417.132 286.059L418.765 283.064L419.808 279.816L420.024 278.062" stroke="#292562" stroke-width="2" stroke-linecap="round" stroke-linejoin="round"/>
<path d="M377.254 258.782L377.714 257.696L378.586 257.297L378.707 256.699L379.425 256.092L379.398 255.789L380.205 255.73L380.396 255.263L381.39 254.933L381.796 254.322L382.519 254.337L383.79 253.565L384.639 253.829L385.039 253.569L384.721 253.472L386.503 253.484L386.872 253.12L388.801 253.191L389.493 253.681L390.303 253.793L392.423 255.268L392.566 255.843L393.059 255.867L392.843 255.985L393.718 256.369L393.706 256.65L394.412 256.737L393.712 256.889L395.033 257.298L395.114 257.528L394.645 257.423L395.035 257.477L394.964 257.814L395.325 257.803L394.958 257.492L395.56 257.551L395.089 257.425L395.376 257.512L395.147 257.433L395.826 256.988" fill="white"/>
<path d="M377.254 258.782L377.714 257.696L378.586 257.297L378.707 256.699L379.425 256.092L379.398 255.789L380.205 255.73L380.396 255.263L381.39 254.933L381.796 254.322L382.519 254.337L383.79 253.565L384.639 253.829L385.039 253.569L384.721 253.472L386.503 253.484L386.872 253.12L388.801 253.191L389.493 253.681L390.303 253.793L392.423 255.268L392.566 255.843L393.059 255.867L392.843 255.985L393.718 256.369L393.706 256.65L394.412 256.737L393.712 256.889L395.033 257.298L395.114 257.528L394.645 257.423L395.035 257.477L394.964 257.814L395.325 257.803L394.958 257.492L395.56 257.551L395.089 257.425L395.376 257.512L395.147 257.433L395.826 256.988" stroke="#292562" stroke-width="5.25" stroke-linecap="round" stroke-linejoin="round"/>
<path d="M410.041 260.564L410.501 259.478L411.373 259.078L411.495 258.481L412.212 257.874L412.185 257.571L412.992 257.512L413.183 257.045L414.177 256.715L414.583 256.104L415.306 256.119L416.578 255.346L417.426 255.61L417.827 255.351L417.508 255.254L419.291 255.265L419.659 254.902L421.588 254.972L422.28 255.462L423.09 255.575L425.21 257.05L425.354 257.624L425.847 257.649L425.631 257.766L426.506 258.151L426.493 258.431L427.2 258.519L426.5 258.671L427.82 259.08L427.902 259.31L427.432 259.204L427.822 259.259L427.751 259.596L428.112 259.584L427.745 259.274L428.347 259.333L427.876 259.207L428.164 259.293L427.934 259.215L428.614 258.77" fill="white"/>
<path d="M410.041 260.564L410.501 259.478L411.373 259.078L411.495 258.481L412.212 257.874L412.185 257.571L412.992 257.512L413.183 257.045L414.177 256.715L414.583 256.104L415.306 256.119L416.578 255.346L417.426 255.61L417.827 255.351L417.508 255.254L419.291 255.265L419.659 254.902L421.588 254.972L422.28 255.462L423.09 255.575L425.21 257.05L425.354 257.624L425.847 257.649L425.631 257.766L426.506 258.151L426.493 258.431L427.2 258.519L426.5 258.671L427.82 259.08L427.902 259.31L427.432 259.204L427.822 259.259L427.751 259.596L428.112 259.584L427.745 259.274L428.347 259.333L427.876 259.207L428.164 259.293L427.934 259.215L428.614 258.77" stroke="#292562" stroke-width="5.25" stroke-linecap="round" stroke-linejoin="round"/>
<path d="M380.139 349.967L372.638 346.565L364.633 344.629L357.49 344.281" stroke="#292562" stroke-width="2" stroke-linecap="round" stroke-linejoin="round"/>
<path d="M316.795 374.515L315.561 378.997L314.777 384.436L314.893 392.671L316.55 400.739L319.689 408.353L324.2 415.244L329.921 421.168L336.652 425.915L341.583 428.341L346.779 430.13L354.89 431.559L363.125 431.443L371.193 429.786L378.807 426.647L385.698 422.137L391.622 416.415L396.369 409.685L399.771 402.184L401.707 394.179L402.109 385.952L400.962 377.796L399.354 372.541L397.101 367.529L392.591 360.638L386.869 354.714L380.139 349.967" fill="white"/>
<path d="M316.795 374.515L315.561 378.997L314.777 384.436L314.893 392.671L316.55 400.739L319.689 408.353L324.2 415.244L329.921 421.168L336.652 425.915L341.583 428.341L346.779 430.13L354.89 431.559L363.125 431.443L371.193 429.786L378.807 426.647L385.698 422.137L391.622 416.415L396.369 409.685L399.771 402.184L401.707 394.179L402.109 385.952L400.962 377.796L399.354 372.541L397.101 367.529L392.591 360.638L386.869 354.714L380.139 349.967" stroke="#292562" stroke-width="2" stroke-linecap="round" stroke-linejoin="round"/>
<path d="M311 383.939L374 343.939" stroke="#292562" stroke-width="2" stroke-linecap="round" stroke-linejoin="round"/>
<path d="M332.428 385.458L332.888 384.372L333.76 383.973L333.882 383.375L334.599 382.768L334.572 382.465L335.38 382.406L335.57 381.94L336.565 381.61L336.97 380.998L337.694 381.013L338.965 380.241L339.813 380.505L340.214 380.245L339.895 380.148L341.678 380.16L342.046 379.796L343.975 379.867L344.667 380.357L345.477 380.469L347.598 381.944L347.741 382.519L348.234 382.543L348.018 382.661L348.893 383.045L348.881 383.326L349.587 383.413L348.887 383.565L350.207 383.974L350.289 384.204L349.819 384.099L350.209 384.153L350.138 384.491L350.499 384.479L350.132 384.168L350.734 384.227L350.263 384.101L350.551 384.188L350.321 384.109L351.001 383.664" stroke="#292562" stroke-width="5.25" stroke-linecap="round" stroke-linejoin="round"/>
<path d="M326 338L314 385" stroke="#292562" stroke-width="4" stroke-linecap="round" stroke-linejoin="round"/>
<path d="M327 340L365 350" stroke="#292562" stroke-width="4" stroke-linecap="round" stroke-linejoin="round"/>
<path d="M321 378L365 350" stroke="#292562" stroke-width="4" stroke-linecap="round" stroke-linejoin="round"/>
<path d="M323.274 371.579L322.77 372.379L323.262 372.31L322.718 372.27L323.267 372.292L323.787 371.596L324.401 371.512L328.814 369.021L342.36 360.537L347.272 358.113L342.015 360.959L333.803 366.51L329.424 369.003L322.839 372.11L322.569 372.48L323.075 372.431L343.419 358.178L345.357 356.184L344.072 357.048L342.317 357.569L320.744 370.733L318.368 371.999H317.422L318.675 371.1L319.415 369.87L320.532 368.864L326.447 364.426L333.728 360.416L342.853 355.992L347.297 352.875L349.529 351.723L350.37 350.755L346.009 353.683L335.166 359.627L326.464 364.882L318.968 370.483L325.245 364.776L334.32 358.302L339.894 354.025L341.655 352.264L321.695 367.287L317.538 369.607L317.433 369.129L319.615 367.562L327.454 360.183L332.057 357.155L340.757 350.353L341.883 349.074L342.285 349.028L341.661 349.2L341.113 350.006L339.351 350.921L330.248 357.881L320.328 363.52L321.624 361.035L322.863 359.591L331.329 351.692L332.061 350.468L333.624 349.322L327.239 354.289L324.837 355.387L325.579 355.193L326.511 353.384L329.931 350.536L333.282 346.797L331.134 349.217L329.212 350.796L324.672 353.291L326.257 351.839L327.846 349.348L330.481 346.006L331.188 345.542L331.878 344.008L330.254 345.082L327.469 346.178L328.519 345.72L328.526 344.861L328.095 343.17L328.303 343.149L327.909 343.291L327.378 342.525L328.84 342.984L333.237 342.485L337.9 343.387L341.902 344.554L343.852 345.458L350.11 349.629L352.338 349.67L353.411 349.301L353.613 349.631L353.486 349.425L354.828 349.202L354.272 349.761" stroke="#292562" stroke-width="4" stroke-linecap="round" stroke-linejoin="round"/>
<path d="M356.204 354.35L353.118 353.298L350.587 352.026L342.773 349.972L337.46 347.211L335.953 347.53L336.906 347.957L338.288 349.839L339.672 350.855L342.681 352.271L345.263 354.525L348.287 355.697L350.825 356.055L352.179 355.676L356.134 353.428" stroke="#292562" stroke-width="4" stroke-linecap="round" stroke-linejoin="round"/>
<path d="M333.748 352.027L337.406 350.892L340.227 350.772L342.691 351.127L345.407 352.249L348.225 352.766L358.141 350.692" stroke="#292562" stroke-width="4" stroke-linecap="round" stroke-linejoin="round"/>
<path d="M348.9 354.705L360.894 352.223L362.333 352.157" stroke="#292562" stroke-width="4" stroke-linecap="round" stroke-linejoin="round"/>
<path d="M328 333L368 345" stroke="#292562" stroke-width="4" stroke-linecap="round" stroke-linejoin="round"/>
<path d="M330 337L368 350" stroke="#292562" stroke-width="4" stroke-linecap="round" stroke-linejoin="round"/>
<path d="M365.215 387.24L365.674 386.154L366.547 385.755L366.668 385.157L367.385 384.55L367.359 384.247L368.166 384.188L368.357 383.721L369.351 383.391L369.757 382.78L370.48 382.795L371.751 382.022L372.599 382.287L373 382.027L372.682 381.93L374.464 381.941L374.832 381.578L376.761 381.648L377.454 382.138L378.263 382.251L380.384 383.726L380.527 384.3L381.02 384.325L380.804 384.443L381.679 384.827L381.667 385.107L382.373 385.195L381.673 385.347L382.993 385.756L383.075 385.986L382.606 385.88L382.995 385.935L382.924 386.272L383.286 386.261L382.918 385.95L383.521 386.009L383.049 385.883L383.337 385.97L383.108 385.891L383.787 385.446" stroke="#292562" stroke-width="5.25" stroke-linecap="round" stroke-linejoin="round"/>
<path d="M362.17 405.693L363.032 406.154L363.296 406.904L363.78 407.05L364.227 407.688L364.479 407.689L364.467 408.36L364.837 408.552L365.035 409.398L365.509 409.779L365.442 410.375L365.983 411.483L365.701 412.163L365.885 412.514L365.989 412.258L365.845 413.729L366.117 414.06L365.913 415.647L365.456 416.182L365.302 416.842L363.925 418.481L363.44 418.555L363.382 418.96L363.301 418.773L362.918 419.467L362.687 419.435L362.562 420.012L362.489 419.422L362.052 420.481L361.856 420.531L361.978 420.152L361.904 420.469L361.631 420.385L361.613 420.684L361.897 420.405L361.803 420.898L361.943 420.518L361.849 420.749L361.932 420.565L362.247 421.16" stroke="#292562" stroke-width="4.25" stroke-linecap="round" stroke-linejoin="round"/>
<path d="M374.691 405.004L374.656 405.326L374.988 405.427L374.495 405.32L374.507 404.573L373.894 404.125L374.187 404.106L374.261 403.374L373.907 403.019L373.886 401.527L373.594 401.387L374.091 401.082L373.266 400.614L373.809 400.499L373.707 399.967L374.191 399.521L373.765 399.086L375.135 397.278L375.212 396.769L378.104 395.453L380.52 395.5L381.727 396.173L382.632 396.233L381.875 396.351L384.271 397.141L383.855 397.235L384.374 397.616L384.884 398.819L385.301 398.92L385.295 399.474L386.021 399.823L385.749 400.698L386.682 401.398L386.386 401.713L387.209 401.97L386.86 402.31L387.849 404.502L387.622 404.962L387.828 405.168L387.384 405.388L387.803 405.593L387.475 405.83L387.787 405.934L387.464 406.344L387.737 406.578L387.086 406.699L387.109 407.599L386.381 407.92L387.059 408.024L386.242 408.106L386.304 408.991L385.44 409.585L386.068 409.742L384.764 409.753L384.99 410.18L383.308 411.665L383.083 411.959L383.31 412.043L382.688 411.901L382.935 412.105L380.972 412.557L380.773 412.943L379.786 412.806L377.42 413.171L377.541 413.488L375.878 413.248L374.803 413.338L375.224 413.465L372.555 412.939L371.253 413.253L368.811 413.149L368.768 413.534L367.817 413.468L367.937 413.736L365.319 414.594L364.713 415.222L364.335 415.049L364.77 415.217L364.113 415.03L364.65 415.246L364.207 415.156L364.937 415.225L364.472 415.142L364.739 415.031L364.43 415.168L364.998 415.244L364.607 415.063L364.586 415.281L364.822 415.276L364.685 414.987L364.952 415.148L364.726 415.245L364.626 414.947L366.185 415.206L366.471 415.516" stroke="#292562" stroke-width="4" stroke-linecap="round" stroke-linejoin="round"/>
<path d="M395.963 336.288L406.069 341.582" stroke="#292562" stroke-width="1.25" stroke-linecap="round" stroke-linejoin="round"/>
<path d="M394.129 339.533V352.196" stroke="#292562" stroke-width="1.25" stroke-linecap="round" stroke-linejoin="round"/>
<path d="M393.619 351.438L409.199 341.629" stroke="#292562" stroke-width="1.25" stroke-linecap="round" stroke-linejoin="round"/>
<path d="M341.075 448.302L330.969 443.008" stroke="#292562" stroke-width="1.25" stroke-linecap="round" stroke-linejoin="round"/>
<path d="M342.91 445.057V432.394" stroke="#292562" stroke-width="1.25" stroke-linecap="round" stroke-linejoin="round"/>
<path d="M343.42 433.152L327.84 442.961" stroke="#292562" stroke-width="1.25" stroke-linecap="round" stroke-linejoin="round"/>
<path d="M422.592 366.922L425.995 377.812" stroke="#292562" stroke-width="1.25" stroke-linecap="round" stroke-linejoin="round"/>
<path d="M418.999 367.92L410.045 376.874" stroke="#292562" stroke-width="1.25" stroke-linecap="round" stroke-linejoin="round"/>
<path d="M410.221 375.978L428.174 380.058" stroke="#292562" stroke-width="1.25" stroke-linecap="round" stroke-linejoin="round"/>
<path d="M400.107 436.818L394.812 446.925" stroke="#292562" stroke-width="1.25" stroke-linecap="round" stroke-linejoin="round"/>
<path d="M396.862 434.984H384.199" stroke="#292562" stroke-width="1.25" stroke-linecap="round" stroke-linejoin="round"/>
<path d="M384.957 434.474L394.767 450.054" stroke="#292562" stroke-width="1.25" stroke-linecap="round" stroke-linejoin="round"/>
<path d="M284.531 409.971L277.574 405.563L269.914 402.537L261.822 401L253.586 401.006L245.497 402.556L240.328 404.421L235.434 406.92L228.774 411.766L223.141 417.774L218.733 424.731L216.555 429.776L215.026 435.055L214 443.226L214.523 451.446L216.577 459.422L220.09 466.871L224.936 473.531L230.944 479.164L235.492 482.249L240.39 484.74L248.225 487.279L256.397 488.305L264.616 487.782L272.592 485.728L280.041 482.215L286.701 477.369L292.334 471.361L296.742 464.404L299.768 456.744L301.305 448.652L301.299 440.416L300.435 434.989L298.898 429.713L295.385 422.264L290.539 415.604L284.531 409.971Z" fill="white" stroke="#292562" stroke-width="2" stroke-linecap="round" stroke-linejoin="round"/>
<path d="M243.311 459.796L243.453 462.143L244.293 465.449L245.738 468.539L247.737 471.303L251.137 474.316L254.122 475.966L257.364 477.028L261.886 477.467L265.271 477.048L268.518 476.002L271.511 474.366L274.145 472.198L276.325 469.574L277.976 466.589L279.038 463.348L279.264 461.595" fill="white"/>
<path d="M243.311 459.796L243.453 462.143L244.293 465.449L245.738 468.539L247.737 471.303L251.137 474.316L254.122 475.966L257.364 477.028L261.886 477.467L265.271 477.048L268.518 476.002L271.511 474.366L274.145 472.198L276.325 469.574L277.976 466.589L279.038 463.348L279.264 461.595" stroke="#292562" stroke-width="2" stroke-linecap="round" stroke-linejoin="round"/>
<path d="M244.811 459.43L246.539 461.821L250.309 465.161L253.619 466.991L257.213 468.168L262.226 468.654L265.979 468.19L269.579 467.03L272.898 465.216L275.818 462.812L278.235 459.904L278.78 458.919" fill="white"/>
<path d="M244.811 459.43L246.539 461.821L250.309 465.161L253.619 466.991L257.213 468.168L262.226 468.654L265.979 468.19L269.579 467.03L272.898 465.216L275.818 462.812L278.235 459.904L278.78 458.919" stroke="#292562" stroke-width="2.25" stroke-linecap="round" stroke-linejoin="round"/>
<path d="M272.472 443.307L269.138 443.973L269.404 444.355L270.426 443.272L270.221 442.914L270.277 443.21L269.981 443.239L270.38 443.102L269.521 442.167L269.844 441.911L268.723 441.264L268.958 441.178L268.919 440.784L268.559 439.792L266.869 436.888L265.435 435.491L264.816 434.168L264.184 429.769L263.5 427.643L264.506 424.039L265.011 423.197L265.828 422.825L265.615 422.695L266.016 422.207L266.984 421.423L268.057 421.246L268.336 420.782L269.581 420.763L271.069 420.25L273.197 421.024L272.963 421.01L273.112 421.211L274.072 421.652L273.701 421.917L275.053 422.496L276.3 423.983L276.754 424.164L276.493 424.295L277.231 424.828L276.779 425.009L277.594 425.111L277.377 425.802L277.811 426.262L277.963 427.332L277.686 427.73L278.179 428.709L278.096 429.347L278.374 429.479L277.937 429.368L278.287 429.278L277.916 429.115L278.48 429.058L278.168 429.102L278.303 429.389L278.027 429.414L277.779 430.172L278.059 430.452L277.364 430.326L278.297 430.319L277.495 430.68L277.731 431.057L278.013 431.025L277.658 431.908L277.779 432.078L277.803 431.732L278.209 431.825L277.401 431.8L277.94 431.689L277.604 431.399L277.919 431.368L278.267 430.569" fill="white"/>
<path d="M272.472 443.307L269.138 443.973L269.404 444.355L270.426 443.272L270.221 442.914L270.277 443.21L269.981 443.239L270.38 443.102L269.521 442.167L269.844 441.911L268.723 441.264L268.958 441.178L268.919 440.784L268.559 439.792L266.869 436.888L265.435 435.491L264.816 434.168L264.184 429.769L263.5 427.643L264.506 424.039L265.011 423.197L265.828 422.825L265.615 422.695L266.016 422.207L266.984 421.423L268.057 421.246L268.336 420.782L269.581 420.763L271.069 420.25L273.197 421.024L272.963 421.01L273.112 421.211L274.072 421.652L273.701 421.917L275.053 422.496L276.3 423.983L276.754 424.164L276.493 424.295L277.231 424.828L276.779 425.009L277.594 425.111L277.377 425.802L277.811 426.262L277.963 427.332L277.686 427.73L278.179 428.709L278.096 429.347L278.374 429.479L277.937 429.368L278.287 429.278L277.916 429.115L278.48 429.058L278.168 429.102L278.303 429.389L278.027 429.414L277.779 430.172L278.059 430.452L277.364 430.326L278.297 430.319L277.495 430.68L277.731 431.057L278.013 431.025L277.658 431.908L277.779 432.078L277.803 431.732L278.209 431.825L277.401 431.8L277.94 431.689L277.604 431.399L277.919 431.368L278.267 430.569" stroke="#292562" stroke-width="1.75" stroke-linecap="round" stroke-linejoin="round"/>
<path d="M280.085 432.124L280.275 431.812L279.996 431.899L280.237 431.745L279.689 431.274L279.841 430.833L279.458 430.952L279.659 430.962L279.494 430.367L279.885 430.079L279.805 429.734L280.328 429.531L280.231 429.021L280.515 429.047L280.645 428.285L282.155 427.137L282.315 426.726L283.075 426.73L283.324 426.479L282.864 426.377L283.985 426.411L284.942 425.866L287.656 426.42L287.462 426.495L288.483 427.345L289.39 427.662L289.053 427.868L290.197 429.035L289.776 429.079L290.739 429.504L291.136 430.471L290.972 431.134L291.628 431.468L291.155 431.789L291.584 432.566L291.155 433.447L291.479 433.607L291.149 433.73L290.77 435.121L289.935 436.334L289.778 436.96L290 437.312L289.255 437.644L289.303 438.062L288.74 438.477L288.654 438.897L287.424 439.726L287.504 440.406L285.579 441.459L285.423 441.629L285.679 441.998L284.601 442.044L284.039 442.718L282.894 442.915L281.341 444.089L280.697 444.156L280.716 444.544L279.082 444.822L279.294 445.011L277.859 445.599L278.011 445.707L277.791 445.769L278.284 445.79L278.132 445.924L277.113 445.958L277.189 446.174L276.458 446.29L276.607 446.439L276.196 446.709L275.09 446.936L275.393 447.092L274.394 447.046L274.58 447.166L274.12 447.173L274.136 447.463L274.579 447.308L273.759 447.493L273.59 447.217L273.853 447.373L272.576 447.814L272.87 447.978L272.414 448.25L272.322 448.059L272.536 448.105L272.304 448.326L272.164 448.093L272.426 448.272L271.454 448.267L271.434 448.621L270.899 448.57L271.197 448.836L270.656 448.861L270.909 448.894L270.765 448.355L271.13 448.105" fill="white"/>
<path d="M280.085 432.124L280.275 431.812L279.996 431.899L280.237 431.745L279.689 431.274L279.841 430.833L279.458 430.952L279.659 430.962L279.494 430.367L279.885 430.079L279.805 429.734L280.328 429.531L280.231 429.021L280.515 429.047L280.645 428.285L282.155 427.137L282.315 426.726L283.075 426.73L283.324 426.479L282.864 426.377L283.985 426.411L284.942 425.866L287.656 426.42L287.462 426.495L288.483 427.345L289.39 427.662L289.053 427.868L290.197 429.035L289.776 429.079L290.739 429.504L291.136 430.471L290.972 431.134L291.628 431.468L291.155 431.789L291.584 432.566L291.155 433.447L291.479 433.607L291.149 433.73L290.77 435.121L289.935 436.334L289.778 436.96L290 437.312L289.255 437.644L289.303 438.062L288.74 438.477L288.654 438.897L287.424 439.726L287.504 440.406L285.579 441.459L285.423 441.629L285.679 441.998L284.601 442.044L284.039 442.718L282.894 442.915L281.341 444.089L280.697 444.156L280.716 444.544L279.082 444.822L279.294 445.011L277.859 445.599L278.011 445.707L277.791 445.769L278.284 445.79L278.132 445.924L277.113 445.958L277.189 446.174L276.458 446.29L276.607 446.439L276.196 446.709L275.09 446.936L275.393 447.092L274.394 447.046L274.58 447.166L274.12 447.173L274.136 447.463L274.579 447.308L273.759 447.493L273.59 447.217L273.853 447.373L272.576 447.814L272.87 447.978L272.414 448.25L272.322 448.059L272.536 448.105L272.304 448.326L272.164 448.093L272.426 448.272L271.454 448.267L271.434 448.621L270.899 448.57L271.197 448.836L270.656 448.861L270.909 448.894L270.765 448.355L271.13 448.105" stroke="#292562" stroke-width="1.75" stroke-linecap="round" stroke-linejoin="round"/>
<path d="M243.358 444.87L240.635 446.905L241.039 447.136L241.496 445.718L241.157 445.484L241.335 445.727L241.079 445.88L241.381 445.585L240.203 445.11L240.385 444.741L239.094 444.639L239.269 444.46L239.064 444.121L238.313 443.381L235.537 441.487L233.641 440.843L232.514 439.915L230.05 436.217L228.518 434.592L227.875 430.905L227.968 429.928L228.546 429.241L228.297 429.216L228.449 428.602L228.985 427.477L229.878 426.856L229.93 426.318L231.045 425.765L232.168 424.661L234.421 424.444L234.204 424.532L234.426 424.649L235.482 424.634L235.261 425.033L236.73 424.974L238.496 425.78L238.984 425.748L238.805 425.978L239.7 426.142L239.37 426.499L240.15 426.24L240.251 426.958L240.841 427.186L241.438 428.087L241.36 428.565L242.226 429.237L242.426 429.848L242.734 429.847L242.292 429.935L242.569 429.703L242.163 429.716L242.648 429.422L242.385 429.596L242.631 429.797L242.392 429.939L242.495 430.729L242.868 430.861L242.187 431.047L243.026 430.639L242.457 431.31L242.832 431.549L243.074 431.399L243.133 432.349L243.315 432.45L243.188 432.127L243.594 432.036L242.854 432.361L243.293 432.029L242.864 431.912L243.135 431.748L243.106 430.878" fill="white"/>
<path d="M243.358 444.87L240.635 446.905L241.039 447.136L241.496 445.718L241.157 445.484L241.335 445.727L241.079 445.88L241.381 445.585L240.203 445.11L240.385 444.741L239.094 444.639L239.269 444.46L239.064 444.121L238.313 443.381L235.537 441.487L233.641 440.843L232.514 439.915L230.05 436.217L228.518 434.592L227.875 430.905L227.968 429.928L228.546 429.241L228.297 429.216L228.449 428.602L228.985 427.477L229.878 426.856L229.93 426.318L231.045 425.765L232.168 424.661L234.421 424.444L234.204 424.532L234.426 424.649L235.482 424.634L235.261 425.033L236.73 424.974L238.496 425.78L238.984 425.748L238.805 425.978L239.7 426.142L239.37 426.499L240.15 426.24L240.251 426.958L240.841 427.186L241.438 428.087L241.36 428.565L242.226 429.237L242.426 429.848L242.734 429.847L242.292 429.935L242.569 429.703L242.163 429.716L242.648 429.422L242.385 429.596L242.631 429.797L242.392 429.939L242.495 430.729L242.868 430.861L242.187 431.047L243.026 430.639L242.457 431.31L242.832 431.549L243.074 431.399L243.133 432.349L243.315 432.45L243.188 432.127L243.594 432.036L242.854 432.361L243.293 432.029L242.864 431.912L243.135 431.748L243.106 430.878" stroke="#292562" stroke-width="1.75" stroke-linecap="round" stroke-linejoin="round"/>
<path d="M245.415 431.498L245.452 431.135L245.238 431.334L245.39 431.091L244.692 430.902L244.64 430.438L244.345 430.711L244.531 430.633L244.125 430.167L244.354 429.738L244.134 429.462L244.519 429.053L244.212 428.635L244.479 428.536L244.268 427.792L245.137 426.106L245.104 425.666L245.793 425.342L245.91 425.009L245.45 425.115L246.477 424.662L247.106 423.759L249.795 423.091L249.652 423.242L250.939 423.57L251.894 423.466L251.678 423.797L253.214 424.358L252.852 424.579L253.904 424.548L254.678 425.25L254.816 425.919L255.552 425.938L255.263 426.432L255.985 426.948L255.977 427.928L256.338 427.933L256.093 428.186L256.35 429.605L256.118 431.059L256.246 431.692L256.598 431.914L256.068 432.534L256.292 432.891L255.962 433.508L256.065 433.924L255.312 435.202L255.676 435.781L254.392 437.56L254.324 437.781L254.714 438.003L253.76 438.509L253.544 439.359L252.595 440.03L251.699 441.758L251.146 442.096L251.33 442.437L249.975 443.392L250.248 443.471L249.205 444.62L249.389 444.652L249.217 444.802L249.671 444.609L249.592 444.795L248.687 445.264L248.848 445.427L248.238 445.846L248.437 445.917L248.182 446.337L247.281 447.018L247.622 447.028L246.701 447.417L246.919 447.445L246.508 447.65L246.647 447.905L246.981 447.574L246.32 448.094L246.049 447.917L246.353 447.945L245.389 448.893L245.726 448.914L245.431 449.355L245.266 449.224L245.479 449.173L245.365 449.472L245.138 449.322L245.452 449.37L244.572 449.784L244.706 450.113L244.201 450.297L244.585 450.409L244.107 450.664L244.35 450.585L243.988 450.16L244.21 449.778" fill="white"/>
<path d="M245.415 431.498L245.452 431.135L245.238 431.334L245.39 431.091L244.692 430.902L244.64 430.438L244.345 430.711L244.531 430.633L244.125 430.167L244.354 429.738L244.134 429.462L244.519 429.053L244.212 428.635L244.479 428.536L244.268 427.792L245.137 426.106L245.104 425.666L245.793 425.342L245.91 425.009L245.45 425.115L246.477 424.662L247.106 423.759L249.795 423.091L249.652 423.242L250.939 423.57L251.894 423.466L251.678 423.797L253.214 424.358L252.852 424.579L253.904 424.548L254.678 425.25L254.816 425.919L255.552 425.938L255.263 426.432L255.985 426.948L255.977 427.928L256.338 427.933L256.093 428.186L256.35 429.605L256.118 431.059L256.246 431.692L256.598 431.914L256.068 432.534L256.292 432.891L255.962 433.508L256.065 433.924L255.312 435.202L255.676 435.781L254.392 437.56L254.324 437.781L254.714 438.003L253.76 438.509L253.544 439.359L252.595 440.03L251.699 441.758L251.146 442.096L251.33 442.437L249.975 443.392L250.248 443.471L249.205 444.62L249.389 444.652L249.217 444.802L249.671 444.609L249.592 444.795L248.687 445.264L248.848 445.427L248.238 445.846L248.437 445.917L248.182 446.337L247.281 447.018L247.622 447.028L246.701 447.417L246.919 447.445L246.508 447.65L246.647 447.905L246.981 447.574L246.32 448.094L246.049 447.917L246.353 447.945L245.389 448.893L245.726 448.914L245.431 449.355L245.266 449.224L245.479 449.173L245.365 449.472L245.138 449.322L245.452 449.37L244.572 449.784L244.706 450.113L244.201 450.297L244.585 450.409L244.107 450.664L244.35 450.585L243.988 450.16L244.21 449.778" stroke="#292562" stroke-width="1.75" stroke-linecap="round" stroke-linejoin="round"/>
<path d="M244.277 439.295L244.338 440.107L245.026 440.654" fill="white"/>
<path d="M244.277 439.295L244.338 440.107L245.026 440.654" stroke="#292562" stroke-width="6" stroke-linecap="round" stroke-linejoin="round"/>
<path d="M251.385 434.955L251.678 434.898L251.217 434.439L250.783 434.437L251.22 434.41L250.996 433.95L251.765 433.546L250.742 433.247L251.299 433.257L250.626 432.71L251.023 432.614L250.889 432.457L251.958 432.55L250.594 432.343L251.355 432.437L250.626 431.937L250.52 431.259L249.77 430.876L249.516 429.755L249.815 429.664L249.159 429.895L248.18 429.737L246.746 431.781L246.032 434.652L246.569 435.092L245.955 436.445L246.212 436.982L246.081 438.147L246.577 439.467" fill="white"/>
<path d="M251.385 434.955L251.678 434.898L251.217 434.439L250.783 434.437L251.22 434.41L250.996 433.95L251.765 433.546L250.742 433.247L251.299 433.257L250.626 432.71L251.023 432.614L250.889 432.457L251.958 432.55L250.594 432.343L251.355 432.437L250.626 431.937L250.52 431.259L249.77 430.876L249.516 429.755L249.815 429.664L249.159 429.895L248.18 429.737L246.746 431.781L246.032 434.652L246.569 435.092L245.955 436.445L246.212 436.982L246.081 438.147L246.577 439.467" stroke="#292562" stroke-width="6" stroke-linecap="round" stroke-linejoin="round"/>
<path d="M253.74 433.136L252.327 432.491L252.122 432.235L252.69 432.215L251.258 431.784L251.105 431.595L251.352 431.524L250.779 431.326L250.718 430.86L249.765 430.883L250.157 430.813L249.747 430.252L250.122 430.301L249.853 430.383L250.155 430.903L249.817 431.522L250.396 433.337L249.584 439.809L249.938 442.257" fill="white"/>
<path d="M253.74 433.136L252.327 432.491L252.122 432.235L252.69 432.215L251.258 431.784L251.105 431.595L251.352 431.524L250.779 431.326L250.718 430.86L249.765 430.883L250.157 430.813L249.747 430.252L250.122 430.301L249.853 430.383L250.155 430.903L249.817 431.522L250.396 433.337L249.584 439.809L249.938 442.257" stroke="#292562" stroke-width="6" stroke-linecap="round" stroke-linejoin="round"/>
<path d="M251.09 431.593L252.049 430.13L251.666 429.47L252.046 429.443L251.224 430.024L250.491 431.775L249.552 433.05L249.164 436.356L249.356 437.889L249.803 438.683" fill="white"/>
<path d="M251.09 431.593L252.049 430.13L251.666 429.47L252.046 429.443L251.224 430.024L250.491 431.775L249.552 433.05L249.164 436.356L249.356 437.889L249.803 438.683" stroke="#292562" stroke-width="6" stroke-linecap="round" stroke-linejoin="round"/>
<path d="M253.197 429.455L251.699 429.421L252.057 428.867L251.865 427.761L252.143 427.452L251.559 427.136L251.708 427.547L251.481 427.626L250.186 427.449L249.273 427.704L248.367 428.89L247.639 430.327L246.312 435.003L246.501 439.904" fill="white"/>
<path d="M253.197 429.455L251.699 429.421L252.057 428.867L251.865 427.761L252.143 427.452L251.559 427.136L251.708 427.547L251.481 427.626L250.186 427.449L249.273 427.704L248.367 428.89L247.639 430.327L246.312 435.003L246.501 439.904" stroke="#292562" stroke-width="6" stroke-linecap="round" stroke-linejoin="round"/>
<path d="M238.984 431.884L238.797 431.492L238.05 431.261L236.956 431.479L235.93 431.055L234.083 431.203L234.302 431.163L233.873 430.777L232.997 430.45L233.346 430.852L232.234 430.911L232.587 431.036L232.166 431.906L232.708 432.987L236.262 435.931L238.293 436.691L240.873 436.745" fill="white"/>
<path d="M238.984 431.884L238.797 431.492L238.05 431.261L236.956 431.479L235.93 431.055L234.083 431.203L234.302 431.163L233.873 430.777L232.997 430.45L233.346 430.852L232.234 430.911L232.587 431.036L232.166 431.906L232.708 432.987L236.262 435.931L238.293 436.691L240.873 436.745" stroke="#292562" stroke-width="6" stroke-linecap="round" stroke-linejoin="round"/>
<path d="M240.978 431.35L238.709 429.655L237.656 429.469L237.318 429.6L237.55 429.865L236.105 430.696L235.09 432.283L233.784 433.567L233.613 438.981L234.175 440.896L235.177 441.53L238.927 442.093" fill="white"/>
<path d="M240.978 431.35L238.709 429.655L237.656 429.469L237.318 429.6L237.55 429.865L236.105 430.696L235.09 432.283L233.784 433.567L233.613 438.981L234.175 440.896L235.177 441.53L238.927 442.093" stroke="#292562" stroke-width="6" stroke-linecap="round" stroke-linejoin="round"/>
<path d="M241.387 436.637L242.029 436.498L241.648 437.599L242.696 440.591L243.373 441.427L245.89 444.106L249.21 445.801" fill="white"/>
<path d="M241.387 436.637L242.029 436.498L241.648 437.599L242.696 440.591L243.373 441.427L245.89 444.106L249.21 445.801" stroke="#292562" stroke-width="6" stroke-linecap="round" stroke-linejoin="round"/>
<path d="M273.71 428.247L272.022 428.986L271.264 431.709L272.098 433.886L273.307 435.005L274.179 436.601L275.323 437.759" fill="white"/>
<path d="M273.71 428.247L272.022 428.986L271.264 431.709L272.098 433.886L273.307 435.005L274.179 436.601L275.323 437.759" stroke="#292562" stroke-width="6" stroke-linecap="round" stroke-linejoin="round"/>
<path d="M273.073 430.251L272.391 429.284L271.06 429.151L270.36 428.364L269.035 429.343L267.861 431.945L268.295 436.698" fill="white"/>
<path d="M273.073 430.251L272.391 429.284L271.06 429.151L270.36 428.364L269.035 429.343L267.861 431.945L268.295 436.698" stroke="#292562" stroke-width="6" stroke-linecap="round" stroke-linejoin="round"/>
<path d="M274.335 426.278L273.591 426.305L272.998 425.491L270.773 425.463L270.428 426.097L269.246 426.39L268.608 427.31L267.93 429.458L267.965 431.492L269.529 434.878" fill="white"/>
<path d="M274.335 426.278L273.591 426.305L272.998 425.491L270.773 425.463L270.428 426.097L269.246 426.39L268.608 427.31L267.93 429.458L267.965 431.492L269.529 434.878" stroke="#292562" stroke-width="6" stroke-linecap="round" stroke-linejoin="round"/>
<path d="M283.891 435.099L284.142 435.483L283.157 437.818L282.045 439.094L280.748 441.832L279.85 442.951" fill="white"/>
<path d="M283.891 435.099L284.142 435.483L283.157 437.818L282.045 439.094L280.748 441.832L279.85 442.951" stroke="#292562" stroke-width="6" stroke-linecap="round" stroke-linejoin="round"/>
<path d="M287.426 433.877L287.139 434.008L286.878 433.521L287.122 433.841L287.773 433.501L290.044 433.802L289.827 434.311L290.155 435.039L290 435.901L286.647 439.159L284.854 440.203" fill="white"/>
<path d="M287.426 433.877L287.139 434.008L286.878 433.521L287.122 433.841L287.773 433.501L290.044 433.802L289.827 434.311L290.155 435.039L290 435.901L286.647 439.159L284.854 440.203" stroke="#292562" stroke-width="6" stroke-linecap="round" stroke-linejoin="round"/>
<path d="M290.16 433.272L289.629 433.29L289.864 433.281L289.609 432.994L288.005 433.074L287.165 432.299L284.013 431.65L281.669 432.326L279.812 433.863L279.066 437.568" fill="white"/>
<path d="M290.16 433.272L289.629 433.29L289.864 433.281L289.609 432.994L288.005 433.074L287.165 432.299L284.013 431.65L281.669 432.326L279.812 433.863L279.066 437.568" stroke="#292562" stroke-width="6" stroke-linecap="round" stroke-linejoin="round"/>
<path d="M291.348 433.438L290.897 433.078L290.853 432.58L291.542 431.788L290.925 431.052L289.144 430.783L285.888 432.073L283.741 434.293L281.45 435.787L279.265 439.894L278.965 442.483" fill="white"/>
<path d="M291.348 433.438L290.897 433.078L290.853 432.58L291.542 431.788L290.925 431.052L289.144 430.783L285.888 432.073L283.741 434.293L281.45 435.787L279.265 439.894L278.965 442.483" stroke="#292562" stroke-width="6" stroke-linecap="round" stroke-linejoin="round"/>
<path d="M279.233 435.555L278.33 436.305L277.615 436.454L275.72 438.717L275.283 442.602L275.931 443.437L276.856 443.607" fill="white"/>
<path d="M279.233 435.555L278.33 436.305L277.615 436.454L275.72 438.717L275.283 442.602L275.931 443.437L276.856 443.607" stroke="#292562" stroke-width="6" stroke-linecap="round" stroke-linejoin="round"/>
<path d="M275.791 445.505L276.303 445.577L276.164 444.701L275.668 444.711L276.071 444.541" fill="white"/>
<path d="M275.791 445.505L276.303 445.577L276.164 444.701L275.668 444.711L276.071 444.541" stroke="#292562" stroke-width="6" stroke-linecap="round" stroke-linejoin="round"/>
<path d="M273.462 439.32L273.716 438.327L273.382 437.872L272.771 437.756L272.408 438.168L272.687 438.162L272.24 437.963L272.649 438.002L272.846 440.299L273.356 441.152L273.231 446.424L273.95 446.178" fill="white"/>
<path d="M273.462 439.32L273.716 438.327L273.382 437.872L272.771 437.756L272.408 438.168L272.687 438.162L272.24 437.963L272.649 438.002L272.846 440.299L273.356 441.152L273.231 446.424L273.95 446.178" stroke="#292562" stroke-width="2" stroke-linecap="round" stroke-linejoin="round"/>
<path d="M275.899 440.201L275.673 439.995L275.904 439.107L275.302 439.303L274.383 442.318L275.759 443.813L275.339 445.191L276.221 445.256L276.749 445.649L276.341 445.808L276.556 446.103L277.094 446.161L276.096 446.282L276.253 447.155L276.478 446.38L275.49 444.859L276.087 443.75L275.623 443.118L275.378 440.568L275.977 437.105L275.403 434.987L275.55 433.295L275.117 432.319L274.417 432.621L274.98 433.235L275.217 434.175L274.303 435.264L274.231 435.866L274.942 437.39L274.472 439.131L274.83 441.105L275.691 441.108L275.014 440.972L275.311 441.002L275.287 440.647L274.59 439.413L274.675 437.444L273.705 435.039L273.442 432.741L273.251 432.482L273.3 433.033L273.008 433.306L273.539 434.3L273.545 439.168L274.189 441.207L274.258 442.944L274.618 441.356L274.349 439.657" fill="white"/>
<path d="M275.899 440.201L275.673 439.995L275.904 439.107L275.302 439.303L274.383 442.318L275.759 443.813L275.339 445.191L276.221 445.256L276.749 445.649L276.341 445.808L276.556 446.103L277.094 446.161L276.096 446.282L276.253 447.155L276.478 446.38L275.49 444.859L276.087 443.75L275.623 443.118L275.378 440.568L275.977 437.105L275.403 434.987L275.55 433.295L275.117 432.319L274.417 432.621L274.98 433.235L275.217 434.175L274.303 435.264L274.231 435.866L274.942 437.39L274.472 439.131L274.83 441.105L275.691 441.108L275.014 440.972L275.311 441.002L275.287 440.647L274.59 439.413L274.675 437.444L273.705 435.039L273.442 432.741L273.251 432.482L273.3 433.033L273.008 433.306L273.539 434.3L273.545 439.168L274.189 441.207L274.258 442.944L274.618 441.356L274.349 439.657" stroke="#292562" stroke-width="2" stroke-linecap="round" stroke-linejoin="round"/>
<path d="M275.453 446.179L272.833 445.813L273.423 445.853L273.56 446.586L272.139 445.356L269.536 440.988L268.938 439.156L268.469 436.9L268.786 434.403L269.697 432.234L271.74 430.579" fill="white"/>
<path d="M275.453 446.179L272.833 445.813L273.423 445.853L273.56 446.586L272.139 445.356L269.536 440.988L268.938 439.156L268.469 436.9L268.786 434.403L269.697 432.234L271.74 430.579" stroke="#292562" stroke-width="2" stroke-linecap="round" stroke-linejoin="round"/>
<path d="M276.437 444.599L272.958 444.014L273.444 443.663L271.583 442.516L271.109 440.538L271.68 436.036L272.595 433.019L273.333 432.11L273.195 432.709L273.798 433.92L274.236 436.973L273.692 439.086L274.006 440.279L274.061 439.961L273.653 439.971L274.61 439.212L275.624 436.031L277.332 433.494L276.683 434.02L276.884 434.906L275.343 437.844L274.652 440.086L275.34 441.132L275.213 433.31L275.787 431.256" fill="white"/>
<path d="M276.437 444.599L272.958 444.014L273.444 443.663L271.583 442.516L271.109 440.538L271.68 436.036L272.595 433.019L273.333 432.11L273.195 432.709L273.798 433.92L274.236 436.973L273.692 439.086L274.006 440.279L274.061 439.961L273.653 439.971L274.61 439.212L275.624 436.031L277.332 433.494L276.683 434.02L276.884 434.906L275.343 437.844L274.652 440.086L275.34 441.132L275.213 433.31L275.787 431.256" stroke="#292562" stroke-width="2" stroke-linecap="round" stroke-linejoin="round"/>
<path d="M276.465 445.509L273.452 445.355L274.002 445.911L273.72 447.365L274.04 447.267L273.026 445.077L272.567 440.613L271.522 436.12L270.695 434.1L269.588 432.624L269.39 430.73L266.969 428.05L267.188 427.559L266.715 426.308L266.82 424.996L267.36 424.204L268.931 423.508L268.957 423.206L270.745 423.662L270.812 423.441L271.623 423.518L272.418 424.125L273.803 426.207L274.349 428.311L275.783 431.661L278.445 435.93L278.614 437.542" fill="white"/>
<path d="M276.465 445.509L273.452 445.355L274.002 445.911L273.72 447.365L274.04 447.267L273.026 445.077L272.567 440.613L271.522 436.12L270.695 434.1L269.588 432.624L269.39 430.73L266.969 428.05L267.188 427.559L266.715 426.308L266.82 424.996L267.36 424.204L268.931 423.508L268.957 423.206L270.745 423.662L270.812 423.441L271.623 423.518L272.418 424.125L273.803 426.207L274.349 428.311L275.783 431.661L278.445 435.93L278.614 437.542" stroke="#292562" stroke-width="2" stroke-linecap="round" stroke-linejoin="round"/>
<path d="M282.984 435.694L284.329 434.066L286.034 433.16L288.338 431.306L288.817 431.456" fill="white"/>
<path d="M282.984 435.694L284.329 434.066L286.034 433.16L288.338 431.306L288.817 431.456" stroke="#292562" stroke-width="2" stroke-linecap="round" stroke-linejoin="round"/>
<path d="M239.554 432.947L239.583 432.221L239.193 432.511L237.084 430.134L236.874 428.882L236.004 429.311L234.914 430.503L234.055 431.662L233.463 434.3L234.789 435.783L236.373 436.676" fill="white"/>
<path d="M239.554 432.947L239.583 432.221L239.193 432.511L237.084 430.134L236.874 428.882L236.004 429.311L234.914 430.503L234.055 431.662L233.463 434.3L234.789 435.783L236.373 436.676" stroke="#292562" stroke-width="2" stroke-linecap="round" stroke-linejoin="round"/>
<path d="M239.751 430.999L238.039 428.057L236.739 426.773L235.521 426.596L234.686 426.914L233.253 428.527L232.828 430.033L232.949 432.725L234.613 434.618" fill="white"/>
<path d="M239.751 430.999L238.039 428.057L236.739 426.773L235.521 426.596L234.686 426.914L233.253 428.527L232.828 430.033L232.949 432.725L234.613 434.618" stroke="#292562" stroke-width="2" stroke-linecap="round" stroke-linejoin="round"/>
<path d="M242.566 431.573L240.718 430.095L236.922 429.103L234.66 428.749L232.233 429.11L231.415 430.2L231.17 432.134L231.613 434.82L232.875 436.318" fill="white"/>
<path d="M242.566 431.573L240.718 430.095L236.922 429.103L234.66 428.749L232.233 429.11L231.415 430.2L231.17 432.134L231.613 434.82L232.875 436.318" stroke="#292562" stroke-width="2" stroke-linecap="round" stroke-linejoin="round"/>
<path d="M236.327 428.189L234.167 429.067L232.541 430.301L231.33 431.789L230.635 433.501L230.779 435.252L231.457 436.985L232.274 437.809L234.371 439.033" fill="white"/>
<path d="M236.327 428.189L234.167 429.067L232.541 430.301L231.33 431.789L230.635 433.501L230.779 435.252L231.457 436.985L232.274 437.809L234.371 439.033" stroke="#292562" stroke-width="2" stroke-linecap="round" stroke-linejoin="round"/>
<path d="M233.638 427.44L231.673 427.759L230.446 428.849L230.084 429.672L230.26 431.718L231.249 433.994L234.239 437.524" fill="white"/>
<path d="M233.638 427.44L231.673 427.759L230.446 428.849L230.084 429.672L230.26 431.718L231.249 433.994L234.239 437.524" stroke="#292562" stroke-width="2" stroke-linecap="round" stroke-linejoin="round"/>
<path d="M235.52 427.795L234.184 428.799L233.986 430.091L234.449 432.129L236.672 434.767" fill="white"/>
<path d="M235.52 427.795L234.184 428.799L233.986 430.091L234.449 432.129L236.672 434.767" stroke="#292562" stroke-width="2" stroke-linecap="round" stroke-linejoin="round"/>
<path d="M255.444 470.876L261.173 472.53L264.456 474.246L266.135 474.293L272.282 471.925L274.233 471.486L274.996 470.886L274.651 471.423L270.984 472.136L267.291 473.83L261.127 473.546L261.424 473.708L260.998 474.082L261.416 474.282L266.146 473.356L268.632 472.374L275.974 467.423L277.721 465.461L277.775 464.86L276.897 465.011L273.668 467.566L267.532 471.445L262.726 473.282L261.017 474.633L261.034 475.024L261.028 474.696L261.638 474.674L261.319 474.344L266.359 472.325L270.695 468.88L273.044 466.399L275.982 464.335L275.697 464.806L276 466.22L274.04 468.06L267.952 469.977L265.639 471.588L265.009 472.49L266.494 472.642L268.343 471.748L271.229 468.87L273.071 467.31L274.272 466.881L274.176 466.652L271.767 470.512L268.574 472.25L266.555 472.908L262.823 473.176L262.002 473.067L257.926 469.046L256.502 468.151L250.663 466.219L250.909 466.036L250.542 465.506L250.805 465.01L250.337 464.722L255.802 466.824L256.529 467.601L256.361 467.856L252.411 467.161L248.985 465.951L247.418 465.21L247.291 464.809L247.545 465.046L246.841 465.02L249.291 466.831L256.802 470.611L258.115 471.614L257.956 471.859L257.04 471.251L253.672 470.057L250.637 467.886L251.03 467.293L250.138 467.065L250.684 467.255L251.712 469.209L254.91 472.938L258.591 474.764L262.631 475.467L264.607 476.202L263.967 476.194L262.973 475.258L259.78 473.651L253.944 471.876L251.028 470.44L249.583 469.389L249.675 468.997L250.046 469.298L250.239 470.182L251.797 471.856L258.884 473.965L261.11 475.386L262.531 475.821L258.241 474.316L257.363 473.548L253.865 472.278L252.249 470.976L249.05 469.584L246.913 468.113L246.445 466.426L246.006 466.444L246.731 467.171L250.99 470.054L254.464 473.568L258.654 475.286L260.537 475.677L264.725 475.296L268.162 474.072L269.165 472.878L271.412 471.469" fill="white"/>
<path d="M255.444 470.876L261.173 472.53L264.456 474.246L266.135 474.293L272.282 471.925L274.233 471.486L274.996 470.886L274.651 471.423L270.984 472.136L267.291 473.83L261.127 473.546L261.424 473.708L260.998 474.082L261.416 474.282L266.146 473.356L268.632 472.374L275.974 467.423L277.721 465.461L277.775 464.86L276.897 465.011L273.668 467.566L267.532 471.445L262.726 473.282L261.017 474.633L261.034 475.024L261.028 474.696L261.638 474.674L261.319 474.344L266.359 472.325L270.695 468.88L273.044 466.399L275.982 464.335L275.697 464.806L276 466.22L274.04 468.06L267.952 469.977L265.639 471.588L265.009 472.49L266.494 472.642L268.343 471.748L271.229 468.87L273.071 467.31L274.272 466.881L274.176 466.652L271.767 470.512L268.574 472.25L266.555 472.908L262.823 473.176L262.002 473.067L257.926 469.046L256.502 468.151L250.663 466.219L250.909 466.036L250.542 465.506L250.805 465.01L250.337 464.722L255.802 466.824L256.529 467.601L256.361 467.856L252.411 467.161L248.985 465.951L247.418 465.21L247.291 464.809L247.545 465.046L246.841 465.02L249.291 466.831L256.802 470.611L258.115 471.614L257.956 471.859L257.04 471.251L253.672 470.057L250.637 467.886L251.03 467.293L250.138 467.065L250.684 467.255L251.712 469.209L254.91 472.938L258.591 474.764L262.631 475.467L264.607 476.202L263.967 476.194L262.973 475.258L259.78 473.651L253.944 471.876L251.028 470.44L249.583 469.389L249.675 468.997L250.046 469.298L250.239 470.182L251.797 471.856L258.884 473.965L261.11 475.386L262.531 475.821L258.241 474.316L257.363 473.548L253.865 472.278L252.249 470.976L249.05 469.584L246.913 468.113L246.445 466.426L246.006 466.444L246.731 467.171L250.99 470.054L254.464 473.568L258.654 475.286L260.537 475.677L264.725 475.296L268.162 474.072L269.165 472.878L271.412 471.469" stroke="#292562" stroke-width="2" stroke-linecap="round" stroke-linejoin="round"/>
<path d="M262.273 472.823L265.215 471.41L266.358 471.297L271.775 472.236L272.199 472.148L273.335 470.553L273.181 470.092L272.55 469.85L269.93 470.313L269.087 471L264.679 471.397L261.889 471.072L261.005 471.608L260.832 472.406L262.309 472.621L271.82 471.616L271.884 470.886L270.207 470.21L266.396 470.084L263.452 470.461L261.912 471.389L262.358 472.134L264.15 472.814L266.227 472.782L269.9 471.565L271.792 470.605L278.767 468.388" fill="white"/>
<path d="M262.273 472.823L265.215 471.41L266.358 471.297L271.775 472.236L272.199 472.148L273.335 470.553L273.181 470.092L272.55 469.85L269.93 470.313L269.087 471L264.679 471.397L261.889 471.072L261.005 471.608L260.832 472.406L262.309 472.621L271.82 471.616L271.884 470.886L270.207 470.21L266.396 470.084L263.452 470.461L261.912 471.389L262.358 472.134L264.15 472.814L266.227 472.782L269.9 471.565L271.792 470.605L278.767 468.388" stroke="#292562" stroke-width="2" stroke-linecap="round" stroke-linejoin="round"/>
<path d="M266.873 471.663L268.248 470.494L273.207 469.26L274.833 468.301L277.23 466.045L280.099 461.616L279.66 461.607L280.17 461.017L279.876 460.823L280.195 460.648L279.998 460.351L280.294 460.357L280.489 459.842L280.069 459.821L280.257 460.034L280.59 459.673L280.17 459.554L280.843 458.195L280.472 458.09L281.017 457.798L280.721 457.342L280.879 457.913L280.444 457.854L280.715 458.004L280.481 457.886L281.012 457.26L280.44 457.769" fill="white"/>
<path d="M266.873 471.663L268.248 470.494L273.207 469.26L274.833 468.301L277.23 466.045L280.099 461.616L279.66 461.607L280.17 461.017L279.876 460.823L280.195 460.648L279.998 460.351L280.294 460.357L280.489 459.842L280.069 459.821L280.257 460.034L280.59 459.673L280.17 459.554L280.843 458.195L280.472 458.09L281.017 457.798L280.721 457.342L280.879 457.913L280.444 457.854L280.715 458.004L280.481 457.886L281.012 457.26L280.44 457.769" stroke="#292562" stroke-width="2" stroke-linecap="round" stroke-linejoin="round"/>
<path d="M277.347 469.071L274.809 468.491L276.179 468.77L278.835 465.583L280.192 462.626L282.539 460.51L282.41 460.15L283.142 459.509L283.187 458.625L282.926 458.692L283.371 458.361L282.655 458.562" fill="white"/>
<path d="M277.347 469.071L274.809 468.491L276.179 468.77L278.835 465.583L280.192 462.626L282.539 460.51L282.41 460.15L283.142 459.509L283.187 458.625L282.926 458.692L283.371 458.361L282.655 458.562" stroke="#292562" stroke-width="2" stroke-linecap="round" stroke-linejoin="round"/>
<path d="M277.725 467.321L276.172 467.243L275.148 466.853L276.365 466.957L276.777 466.185L277.871 465.316L278.946 462.125L280.296 459.645" fill="white"/>
<path d="M277.725 467.321L276.172 467.243L275.148 466.853L276.365 466.957L276.777 466.185L277.871 465.316L278.946 462.125L280.296 459.645" stroke="#292562" stroke-width="2" stroke-linecap="round" stroke-linejoin="round"/>
<path d="M282.539 458.619L282.836 458.236L282.514 458.888L282.676 459.338L280.873 461.72L280.812 462.293L279.77 463.392L279.2 465.207L277.664 466.746L277.631 467.382" fill="white"/>
<path d="M282.539 458.619L282.836 458.236L282.514 458.888L282.676 459.338L280.873 461.72L280.812 462.293L279.77 463.392L279.2 465.207L277.664 466.746L277.631 467.382" stroke="#292562" stroke-width="2" stroke-linecap="round" stroke-linejoin="round"/>
<path d="M283.46 456.417L281.107 462.53L280.745 464.202L279.721 465.214L277.832 468.876L275.352 470.991" fill="white"/>
<path d="M283.46 456.417L281.107 462.53L280.745 464.202L279.721 465.214L277.832 468.876L275.352 470.991" stroke="#292562" stroke-width="2" stroke-linecap="round" stroke-linejoin="round"/>
<path d="M244.221 459.264L246.859 461.246L246.742 461.651L249.202 466.544L249.593 468.205" fill="white"/>
<path d="M244.221 459.264L246.859 461.246L246.742 461.651L249.202 466.544L249.593 468.205" stroke="#292562" stroke-width="2" stroke-linecap="round" stroke-linejoin="round"/>
<path d="M244.07 459.477L244.572 460.003L244.621 460.597L245.806 461.917L250.976 465.518L251.4 466.713" fill="white"/>
<path d="M244.07 459.477L244.572 460.003L244.621 460.597L245.806 461.917L250.976 465.518L251.4 466.713" stroke="#292562" stroke-width="2" stroke-linecap="round" stroke-linejoin="round"/>
<path d="M243.244 457.258L245.34 457.674L245.108 458.024L244.658 457.977L244.495 458.406L244.482 459.023L245.074 459.957L245.918 460.851L251.465 464.779L253.202 467.095L253.345 468.251" fill="white"/>
<path d="M243.244 457.258L245.34 457.674L245.108 458.024L244.658 457.977L244.495 458.406L244.482 459.023L245.074 459.957L245.918 460.851L251.465 464.779L253.202 467.095L253.345 468.251" stroke="#292562" stroke-width="2" stroke-linecap="round" stroke-linejoin="round"/>
</svg>
