<svg width="90" height="90" viewBox="0 0 90 90" fill="none" xmlns="http://www.w3.org/2000/svg">
<path d="M71.7849 10.108L64.8279 5.69998L57.1679 2.67398L49.0759 1.13696L40.8399 1.14297L32.7509 2.69296L27.5819 4.55798L22.6879 7.05698L16.0279 11.903L10.3949 17.911L5.98691 24.868L3.80893 29.913L2.27991 35.192L1.25391 43.363L1.77692 51.583L3.8309 59.559L7.34392 67.008L12.1899 73.668L18.1979 79.301L22.7459 82.386L27.6439 84.877L35.4789 87.416L43.6509 88.442L51.8699 87.919L59.8459 85.865L67.2949 82.352L73.9549 77.506L79.5879 71.498L83.9959 64.541L87.0219 56.881L88.5589 48.789L88.5529 40.553L87.6889 35.126L86.1519 29.85L82.6389 22.401L77.7929 15.741L71.7849 10.108Z" stroke="#292562" stroke-width="2" stroke-linecap="round" stroke-linejoin="round"/>
<path d="M30.5645 59.933L30.7065 62.28L31.5465 65.586L32.9915 68.676L34.9905 71.44L38.3905 74.453L41.3755 76.103L44.6175 77.165L49.1395 77.604L52.5245 77.185L55.7715 76.139L58.7645 74.503L61.3985 72.335L63.5785 69.711L65.2295 66.726L66.2915 63.485L66.5175 61.732" stroke="#292562" stroke-width="2" stroke-linecap="round" stroke-linejoin="round"/>
<path d="M32.0645 59.567L33.7924 61.958L37.5625 65.298L40.8725 67.128L44.4664 68.305L49.4794 68.791L53.2325 68.327L56.8324 67.167L60.1514 65.353L63.0715 62.949L65.4884 60.041L66.0334 59.056" stroke="#292562" stroke-width="2.25" stroke-linecap="round" stroke-linejoin="round"/>
<path d="M59.7259 43.444L56.3919 44.11L56.6579 44.492L57.6799 43.409L57.4749 43.051L57.5309 43.347L57.2349 43.376L57.6339 43.239L56.7749 42.304L57.0979 42.048L55.9769 41.401L56.2119 41.315L56.1729 40.921L55.8129 39.929L54.1229 37.025L52.6889 35.628L52.0699 34.305L51.4379 29.906L50.7539 27.78L51.7599 24.176L52.2649 23.334L53.0819 22.962L52.8689 22.832L53.2699 22.344L54.2379 21.56L55.3109 21.383L55.5899 20.919L56.8349 20.9L58.3229 20.387L60.4509 21.161L60.2169 21.147L60.3659 21.348L61.3259 21.789L60.9549 22.054L62.3069 22.633L63.5539 24.12L64.0079 24.301L63.7469 24.432L64.4849 24.965L64.0329 25.146L64.8479 25.248L64.6309 25.939L65.0649 26.399L65.2169 27.469L64.9399 27.867L65.4329 28.846L65.3499 29.484L65.6279 29.616L65.1909 29.505L65.5409 29.415L65.1699 29.252L65.7339 29.195L65.4219 29.239L65.5569 29.526L65.2809 29.551L65.0329 30.309L65.3129 30.589L64.6179 30.463L65.5509 30.456L64.7489 30.817L64.9849 31.194L65.2669 31.162L64.9119 32.045L65.0329 32.215L65.0569 31.869L65.4629 31.962L64.6549 31.937L65.1939 31.826L64.8579 31.536L65.1729 31.505L65.5209 30.706" stroke="#292562" stroke-width="1.75" stroke-linecap="round" stroke-linejoin="round"/>
<path d="M67.3392 32.2609L67.5292 31.9489L67.2502 32.0359L67.4912 31.8819L66.9432 31.4109L67.0952 30.9699L66.7122 31.0889L66.9132 31.0989L66.7482 30.5039L67.1392 30.2159L67.0592 29.8709L67.5822 29.6679L67.4852 29.1579L67.7692 29.1839L67.8992 28.4219L69.4092 27.2739L69.5692 26.8629L70.3292 26.8669L70.5782 26.6159L70.1182 26.5139L71.2392 26.5479L72.1962 26.0029L74.9102 26.5569L74.7162 26.6319L75.7372 27.4819L76.6442 27.799L76.3072 28.0049L77.4512 29.1719L77.0302 29.2159L77.9932 29.6409L78.3902 30.6079L78.2262 31.2709L78.8822 31.6049L78.4092 31.9259L78.8382 32.7029L78.4092 33.584L78.7332 33.7439L78.4032 33.8669L78.0242 35.2579L77.1892 36.4709L77.0322 37.0969L77.2542 37.4489L76.5092 37.7809L76.5572 38.1989L75.9942 38.614L75.9082 39.0339L74.6782 39.8629L74.7582 40.5429L72.8332 41.5959L72.6772 41.7659L72.9332 42.1349L71.8552 42.1809L71.2932 42.8549L70.1482 43.0519L68.5952 44.226L67.9512 44.2929L67.9702 44.6809L66.3362 44.959L66.5482 45.1479L65.1132 45.7359L65.2652 45.8439L65.0452 45.9059L65.5382 45.9269L65.3862 46.0609L64.3672 46.0949L64.4432 46.3109L63.7122 46.4269L63.8612 46.5759L63.4502 46.8459L62.3442 47.0729L62.6472 47.2289L61.6482 47.183L61.8342 47.3029L61.3742 47.3099L61.3902 47.5999L61.8332 47.4449L61.0132 47.6299L60.8442 47.3539L61.1072 47.5099L59.8302 47.9509L60.1242 48.1149L59.6682 48.3869L59.5762 48.196L59.7902 48.2419L59.5582 48.463L59.4182 48.2299L59.6802 48.4089L58.7082 48.4039L58.6882 48.7579L58.1532 48.7069L58.4512 48.9729L57.9102 48.9979L58.1632 49.0309L58.0192 48.4919L58.3842 48.2419" stroke="#292562" stroke-width="1.75" stroke-linecap="round" stroke-linejoin="round"/>
<path d="M30.6119 45.007L27.8889 47.0421L28.2929 47.2731L28.7499 45.8551L28.4109 45.6211L28.5889 45.8641L28.3329 46.0171L28.6349 45.722L27.4569 45.2471L27.6389 44.8781L26.3479 44.7761L26.5229 44.597L26.3179 44.2581L25.5669 43.5181L22.7909 41.6241L20.8949 40.9801L19.7679 40.0521L17.3039 36.3541L15.7719 34.7291L15.1289 31.0421L15.2219 30.0651L15.7999 29.3781L15.5509 29.3531L15.7029 28.7391L16.2389 27.6141L17.1319 26.9931L17.1839 26.455L18.2989 25.9021L19.4219 24.7981L21.6749 24.5811L21.4579 24.6691L21.6799 24.7861L22.7359 24.7711L22.5149 25.1701L23.9839 25.1111L25.7499 25.9171L26.2379 25.8851L26.0589 26.1151L26.9539 26.2791L26.6239 26.636L27.4039 26.3771L27.5049 27.0951L28.0949 27.3231L28.6919 28.2241L28.6139 28.7021L29.4799 29.3741L29.6799 29.985L29.9879 29.9841L29.5459 30.0721L29.8229 29.8401L29.4169 29.8531L29.9019 29.5591L29.6389 29.7331L29.8849 29.9341L29.6459 30.076L29.7489 30.8661L30.1219 30.998L29.4409 31.1841L30.2799 30.7761L29.7109 31.4471L30.0859 31.6861L30.3279 31.5361L30.3869 32.4861L30.5689 32.5871L30.4419 32.2641L30.8479 32.1731L30.1079 32.498L30.5469 32.166L30.1179 32.0491L30.3889 31.8851L30.3599 31.0151" stroke="#292562" stroke-width="1.75" stroke-linecap="round" stroke-linejoin="round"/>
<path d="M32.6692 31.635L32.7062 31.272L32.4922 31.471L32.6442 31.228L31.9462 31.039L31.8942 30.575L31.5992 30.848L31.7852 30.77L31.3792 30.304L31.6082 29.875L31.3882 29.599L31.7732 29.19L31.4662 28.772L31.7332 28.673L31.5222 27.929L32.3912 26.243L32.3582 25.803L33.0472 25.479L33.1642 25.146L32.7042 25.252L33.7312 24.799L34.3602 23.896L37.0492 23.228L36.9062 23.379L38.1932 23.707L39.1482 23.603L38.9322 23.934L40.4682 24.495L40.1062 24.716L41.1582 24.685L41.9322 25.387L42.0702 26.056L42.8062 26.075L42.5172 26.569L43.2392 27.085L43.2312 28.065L43.5922 28.07L43.3472 28.323L43.6042 29.742L43.3722 31.196L43.5002 31.829L43.8522 32.051L43.3222 32.671L43.5462 33.028L43.2162 33.645L43.3192 34.061L42.5662 35.339L42.9302 35.918L41.6462 37.697L41.5782 37.918L41.9682 38.14L41.0142 38.646L40.7982 39.496L39.8492 40.167L38.9532 41.895L38.4002 42.233L38.5842 42.574L37.2292 43.529L37.5022 43.608L36.4592 44.757L36.6432 44.789L36.4712 44.939L36.9252 44.746L36.8462 44.932L35.9412 45.401L36.1022 45.564L35.4922 45.983L35.6912 46.054L35.4362 46.474L34.5352 47.155L34.8762 47.165L33.9552 47.554L34.1732 47.582L33.7622 47.787L33.9012 48.042L34.2352 47.711L33.5742 48.231L33.3032 48.054L33.6072 48.082L32.6432 49.03L32.9802 49.051L32.6852 49.492L32.5202 49.361L32.7332 49.31L32.6192 49.609L32.3922 49.459L32.7062 49.507L31.8262 49.921L31.9602 50.25L31.4552 50.434L31.8392 50.546L31.3612 50.801L31.6042 50.722L31.2422 50.297L31.4642 49.915" stroke="#292562" stroke-width="1.75" stroke-linecap="round" stroke-linejoin="round"/>
<path d="M31.5312 39.432L31.5922 40.244L32.2802 40.791" stroke="#292562" stroke-width="6" stroke-linecap="round" stroke-linejoin="round"/>
<path d="M38.639 35.092L38.932 35.035L38.471 34.576L38.037 34.574L38.474 34.547L38.25 34.087L39.019 33.683L37.996 33.384L38.553 33.394L37.88 32.847L38.277 32.751L38.143 32.594L39.212 32.687L37.848 32.48L38.609 32.574L37.88 32.074L37.774 31.396L37.024 31.013L36.77 29.892L37.069 29.801L36.413 30.032L35.434 29.874L34 31.918L33.286 34.789L33.823 35.229L33.209 36.582L33.466 37.119L33.335 38.284L33.831 39.604" stroke="#292562" stroke-width="6" stroke-linecap="round" stroke-linejoin="round"/>
<path d="M40.9939 33.273L39.5809 32.628L39.3759 32.372L39.9439 32.352L38.5119 31.921L38.3589 31.732L38.6059 31.661L38.0329 31.463L37.9719 30.997L37.0189 31.02L37.4109 30.95L37.0009 30.389L37.3759 30.438L37.1069 30.52L37.4089 31.04L37.0709 31.659L37.6499 33.474L36.8379 39.946L37.1919 42.394" stroke="#292562" stroke-width="6" stroke-linecap="round" stroke-linejoin="round"/>
<path d="M38.344 31.73L39.303 30.267L38.92 29.607L39.3 29.58L38.478 30.161L37.745 31.912L36.806 33.187L36.418 36.493L36.61 38.026L37.057 38.82" stroke="#292562" stroke-width="6" stroke-linecap="round" stroke-linejoin="round"/>
<path d="M40.4514 29.5919L38.9524 29.558L39.3104 29.0039L39.1194 27.8979L39.3964 27.5889L38.8124 27.2729L38.9624 27.6839L38.7354 27.7629L37.4394 27.5859L36.5274 27.8409L35.6214 29.0269L34.8934 30.4639L33.5664 35.14L33.7554 40.0409" stroke="#292562" stroke-width="6" stroke-linecap="round" stroke-linejoin="round"/>
<path d="M26.2379 32.021L26.0509 31.629L25.3039 31.398L24.2099 31.616L23.1839 31.192L21.3369 31.34L21.5559 31.3L21.1269 30.914L20.2509 30.587L20.5999 30.989L19.4879 31.048L19.8409 31.173L19.4199 32.043L19.9619 33.124L23.5159 36.068L25.5469 36.828L28.1269 36.882" stroke="#292562" stroke-width="6" stroke-linecap="round" stroke-linejoin="round"/>
<path d="M28.2322 31.487L25.9632 29.792L24.9102 29.606L24.5722 29.737L24.8042 30.002L23.3592 30.833L22.3442 32.42L21.0382 33.704L20.8672 39.118L21.4292 41.033L22.4312 41.667L26.1812 42.23" stroke="#292562" stroke-width="6" stroke-linecap="round" stroke-linejoin="round"/>
<path d="M28.6406 36.774L29.2826 36.635L28.9016 37.736L29.9496 40.728L30.6266 41.564L33.1436 44.243L36.4636 45.938" stroke="#292562" stroke-width="6" stroke-linecap="round" stroke-linejoin="round"/>
<path d="M60.9636 28.384L59.2756 29.123L58.5176 31.846L59.3516 34.023L60.5606 35.142L61.4326 36.738L62.5766 37.896" stroke="#292562" stroke-width="6" stroke-linecap="round" stroke-linejoin="round"/>
<path d="M60.3272 30.388L59.6452 29.421L58.3142 29.288L57.6142 28.501L56.2892 29.48L55.1152 32.082L55.5492 36.835" stroke="#292562" stroke-width="6" stroke-linecap="round" stroke-linejoin="round"/>
<path d="M61.5886 26.415L60.8446 26.442L60.2516 25.628L58.0266 25.6L57.6816 26.234L56.4996 26.527L55.8616 27.447L55.1836 29.595L55.2186 31.629L56.7826 35.015" stroke="#292562" stroke-width="6" stroke-linecap="round" stroke-linejoin="round"/>
<path d="M71.1445 35.236L71.3955 35.62L70.4105 37.955L69.2985 39.231L68.0015 41.969L67.1035 43.088" stroke="#292562" stroke-width="6" stroke-linecap="round" stroke-linejoin="round"/>
<path d="M74.6794 34.0139L74.3924 34.1449L74.1314 33.6579L74.3754 33.9779L75.0264 33.6379L77.2974 33.9389L77.0804 34.4479L77.4084 35.1759L77.2534 36.0379L73.9004 39.2959L72.1074 40.3399" stroke="#292562" stroke-width="6" stroke-linecap="round" stroke-linejoin="round"/>
<path d="M77.4143 33.409L76.8833 33.427L77.1183 33.418L76.8633 33.131L75.2593 33.211L74.4193 32.436L71.2673 31.787L68.9233 32.463L67.0663 34L66.3203 37.705" stroke="#292562" stroke-width="6" stroke-linecap="round" stroke-linejoin="round"/>
<path d="M78.6018 33.575L78.1508 33.215L78.1068 32.717L78.7958 31.925L78.1788 31.189L76.3978 30.92L73.1418 32.21L70.9948 34.43L68.7038 35.924L66.5188 40.031L66.2188 42.62" stroke="#292562" stroke-width="6" stroke-linecap="round" stroke-linejoin="round"/>
<path d="M66.4871 35.692L65.5841 36.442L64.8691 36.591L62.9741 38.854L62.5371 42.739L63.1851 43.574L64.1101 43.744" stroke="#292562" stroke-width="6" stroke-linecap="round" stroke-linejoin="round"/>
<path d="M63.0449 45.642L63.5569 45.714L63.4179 44.838L62.9219 44.848L63.3249 44.678" stroke="#292562" stroke-width="6" stroke-linecap="round" stroke-linejoin="round"/>
<path d="M60.7161 39.4571L60.9701 38.4641L60.6361 38.0091L60.0251 37.8931L59.6621 38.3051L59.9411 38.2991L59.4941 38.1001L59.9032 38.1391L60.1001 40.4361L60.6101 41.2891L60.4851 46.5611L61.2041 46.3151" stroke="#292562" stroke-width="2" stroke-linecap="round" stroke-linejoin="round"/>
<path d="M63.1527 40.3381L62.9267 40.132L63.1577 39.244L62.5557 39.4401L61.6367 42.455L63.0127 43.9501L62.5927 45.3281L63.4747 45.3931L64.0027 45.7861L63.5947 45.9451L63.8097 46.2401L64.3477 46.2981L63.3497 46.4191L63.5067 47.2921L63.7317 46.5171L62.7437 44.9961L63.3407 43.8871L62.8767 43.2551L62.6317 40.705L63.2307 37.2421L62.6567 35.1241L62.8037 33.4321L62.3707 32.4561L61.6707 32.7581L62.2337 33.3721L62.4707 34.3121L61.5567 35.4011L61.4847 36.0031L62.1957 37.5271L61.7257 39.2681L62.0837 41.2421L62.9447 41.2451L62.2677 41.1091L62.5647 41.1391L62.5407 40.7841L61.8437 39.55L61.9287 37.5811L60.9587 35.1761L60.6957 32.8781L60.5047 32.619L60.5537 33.1701L60.2617 33.4431L60.7927 34.4371L60.7987 39.3051L61.4427 41.3441L61.5117 43.0811L61.8717 41.4931L61.6027 39.7941" stroke="#292562" stroke-width="2" stroke-linecap="round" stroke-linejoin="round"/>
<path d="M62.7066 46.3161L60.0867 45.9501L60.6767 45.9901L60.8137 46.7231L59.3927 45.4931L56.7897 41.1251L56.1917 39.2931L55.7227 37.037L56.0397 34.5401L56.9507 32.3711L58.9937 30.7161" stroke="#292562" stroke-width="2" stroke-linecap="round" stroke-linejoin="round"/>
<path d="M63.6913 44.7361L60.2123 44.1511L60.6983 43.8L58.8373 42.6531L58.3633 40.675L58.9343 36.1731L59.8493 33.1561L60.5873 32.2471L60.4493 32.8461L61.0523 34.0571L61.4903 37.11L60.9463 39.2231L61.2603 40.416L61.3153 40.0981L60.9073 40.1081L61.8643 39.3491L62.8783 36.1681L64.5863 33.6311L63.9373 34.1571L64.1383 35.0431L62.5973 37.981L61.9063 40.2231L62.5943 41.2691L62.4673 33.4471L63.0413 31.3931" stroke="#292562" stroke-width="2" stroke-linecap="round" stroke-linejoin="round"/>
<path d="M63.7188 45.646L60.7057 45.492L61.2558 46.048L60.9738 47.502L61.2938 47.404L60.2798 45.214L59.8208 40.75L58.7758 36.257L57.9488 34.237L56.8418 32.761L56.6438 30.867L54.2228 28.187L54.4418 27.696L53.9688 26.445L54.0738 25.133L54.6138 24.341L56.1848 23.645L56.2108 23.343L57.9987 23.799L58.0658 23.578L58.8768 23.655L59.6718 24.262L61.0568 26.344L61.6028 28.448L63.0368 31.798L65.6988 36.067L65.8678 37.679" stroke="#292562" stroke-width="2" stroke-linecap="round" stroke-linejoin="round"/>
<path d="M70.2383 35.831L71.5833 34.203L73.2883 33.297L75.5923 31.443L76.0713 31.593" stroke="#292562" stroke-width="2" stroke-linecap="round" stroke-linejoin="round"/>
<path d="M26.8078 33.084L26.8368 32.358L26.4468 32.648L24.3378 30.271L24.1278 29.019L23.2578 29.448L22.1678 30.64L21.3088 31.799L20.7168 34.437L22.0428 35.92L23.6268 36.813" stroke="#292562" stroke-width="2" stroke-linecap="round" stroke-linejoin="round"/>
<path d="M27.005 31.136L25.293 28.194L23.993 26.91L22.775 26.733L21.94 27.051L20.507 28.664L20.082 30.17L20.203 32.862L21.867 34.755" stroke="#292562" stroke-width="2" stroke-linecap="round" stroke-linejoin="round"/>
<path d="M29.8198 31.71L27.9718 30.232L24.1758 29.24L21.9138 28.886L19.4868 29.247L18.6688 30.337L18.4238 32.271L18.8668 34.957L20.1288 36.455" stroke="#292562" stroke-width="2" stroke-linecap="round" stroke-linejoin="round"/>
<path d="M23.5807 28.3259L21.4207 29.2039L19.7947 30.4379L18.5837 31.9259L17.8887 33.6379L18.0327 35.3889L18.7107 37.1219L19.5277 37.946L21.6247 39.17" stroke="#292562" stroke-width="2" stroke-linecap="round" stroke-linejoin="round"/>
<path d="M20.8919 27.577L18.9269 27.896L17.6999 28.986L17.3379 29.809L17.5139 31.855L18.5029 34.131L21.4929 37.661" stroke="#292562" stroke-width="2" stroke-linecap="round" stroke-linejoin="round"/>
<path d="M22.7742 27.932L21.4382 28.936L21.2402 30.228L21.7032 32.266L23.9262 34.904" stroke="#292562" stroke-width="2" stroke-linecap="round" stroke-linejoin="round"/>
<path d="M42.6978 71.0129L48.4268 72.6669L51.7098 74.3829L53.3888 74.4299L59.5358 72.062L61.4868 71.6229L62.2498 71.0229L61.9048 71.5599L58.2378 72.2729L54.5448 73.9669L48.3808 73.683L48.6778 73.8449L48.2518 74.2189L48.6698 74.4189L53.3998 73.493L55.8858 72.5109L63.2278 67.5599L64.9748 65.5979L65.0288 64.9969L64.1508 65.1479L60.9218 67.7029L54.7858 71.5819L49.9798 73.4189L48.2708 74.7699L48.2878 75.1609L48.2818 74.8329L48.8918 74.8109L48.5728 74.4809L53.6128 72.4619L57.9488 69.0169L60.2978 66.5359L63.2358 64.4719L62.9508 64.9429L63.2538 66.3569L61.2938 68.1969L55.2058 70.114L52.8928 71.7249L52.2628 72.627L53.7478 72.7789L55.5968 71.8849L58.4828 69.0069L60.3248 67.4469L61.5258 67.0179L61.4298 66.7889L59.0208 70.6489L55.8278 72.3869L53.8088 73.045L50.0768 73.3129L49.2558 73.2039L45.1798 69.183L43.7558 68.2879L37.9168 66.3559L38.1628 66.1729L37.7958 65.6429L38.0588 65.1469L37.5908 64.8589L43.0558 66.9609L43.7828 67.7379L43.6148 67.993L39.6648 67.2979L36.2388 66.088L34.6718 65.3469L34.5448 64.946L34.7988 65.183L34.0948 65.157L36.5448 66.9679L44.0558 70.7479L45.3688 71.7509L45.2098 71.9959L44.2938 71.3879L40.9258 70.1939L37.8908 68.0229L38.2838 67.4299L37.3918 67.2019L37.9378 67.3919L38.9658 69.3459L42.1638 73.075L45.8448 74.9009L49.8848 75.6039L51.8608 76.3389L51.2208 76.3309L50.2268 75.3949L47.0338 73.7879L41.1978 72.0129L38.2818 70.5769L36.8368 69.5259L36.9288 69.1339L37.2998 69.4349L37.4928 70.3189L39.0508 71.993L46.1378 74.1019L48.3638 75.5229L49.7848 75.9579L45.4948 74.4529L44.6168 73.6849L41.1188 72.4149L39.5028 71.1129L36.3038 69.7209L34.1668 68.2499L33.6988 66.5629L33.2598 66.5809L33.9848 67.308L38.2438 70.1909L41.7178 73.7049L45.9078 75.4229L47.7908 75.8139L51.9788 75.433L55.4158 74.209L56.4188 73.015L58.6658 71.6059" stroke="#292562" stroke-width="2" stroke-linecap="round" stroke-linejoin="round"/>
<path d="M49.5269 72.96L52.4689 71.547L53.6119 71.434L59.0289 72.373L59.4529 72.285L60.5889 70.69L60.4349 70.229L59.8039 69.987L57.1839 70.45L56.3409 71.137L51.9329 71.534L49.1429 71.209L48.2589 71.745L48.0859 72.543L49.5629 72.758L59.0739 71.753L59.1379 71.023L57.4609 70.347L53.6499 70.221L50.7059 70.598L49.1659 71.526L49.6119 72.271L51.4039 72.951L53.4809 72.919L57.1539 71.702L59.0459 70.742L66.0209 68.525" stroke="#292562" stroke-width="2" stroke-linecap="round" stroke-linejoin="round"/>
<path d="M54.127 71.8L55.502 70.631L60.461 69.397L62.0869 68.438L64.4839 66.182L67.353 61.753L66.9139 61.744L67.424 61.154L67.1299 60.96L67.4489 60.785L67.252 60.488L67.5479 60.494L67.743 59.979L67.323 59.958L67.5109 60.171L67.8439 59.81L67.424 59.691L68.0969 58.332L67.726 58.227L68.271 57.935L67.9749 57.479L68.1329 58.05L67.698 57.991L67.9689 58.141L67.7349 58.023L68.2659 57.397L67.6939 57.906" stroke="#292562" stroke-width="2" stroke-linecap="round" stroke-linejoin="round"/>
<path d="M64.6005 69.2081L62.0625 68.6281L63.4325 68.9071L66.0885 65.7201L67.4455 62.7631L69.7925 60.6471L69.6635 60.287L70.3955 59.6461L70.4405 58.7621L70.1795 58.8291L70.6245 58.498L69.9085 58.6991" stroke="#292562" stroke-width="2" stroke-linecap="round" stroke-linejoin="round"/>
<path d="M64.9793 67.458L63.4263 67.38L62.4023 66.99L63.6193 67.094L64.0313 66.322L65.1254 65.453L66.2003 62.262L67.5503 59.782" stroke="#292562" stroke-width="2" stroke-linecap="round" stroke-linejoin="round"/>
<path d="M69.7928 58.7561L70.0898 58.373L69.7678 59.0251L69.9298 59.4751L68.1268 61.8571L68.0658 62.4301L67.0238 63.5291L66.4538 65.3441L64.9178 66.8831L64.8848 67.5191" stroke="#292562" stroke-width="2" stroke-linecap="round" stroke-linejoin="round"/>
<path d="M70.7135 56.554L68.3605 62.667L67.9985 64.339L66.9745 65.351L65.0855 69.013L62.6055 71.128" stroke="#292562" stroke-width="2" stroke-linecap="round" stroke-linejoin="round"/>
<path d="M31.4746 59.401L34.1126 61.383L33.9956 61.788L36.4556 66.681L36.8466 68.342" stroke="#292562" stroke-width="2" stroke-linecap="round" stroke-linejoin="round"/>
<path d="M31.3242 59.614L31.8262 60.14L31.8752 60.734L33.0602 62.054L38.2302 65.655L38.6542 66.85" stroke="#292562" stroke-width="2" stroke-linecap="round" stroke-linejoin="round"/>
<path d="M30.498 57.395L32.5941 57.811L32.3621 58.161L31.912 58.114L31.7491 58.543L31.7361 59.16L32.328 60.094L33.1721 60.988L38.7191 64.916L40.4561 67.232L40.5991 68.388" stroke="#292562" stroke-width="2" stroke-linecap="round" stroke-linejoin="round"/>
</svg>
