<svg width="91" height="90" viewBox="0 0 91 90" fill="none" xmlns="http://www.w3.org/2000/svg">
<path d="M75.6713 13.315L69.1773 8.24895L61.8493 4.48996L53.9463 2.16995L45.7493 1.37195L37.5473 2.12395L32.2213 3.47595L27.1063 5.48395L20.0053 9.65695L13.8123 15.086L8.74628 21.58L6.08527 26.388L4.04828 31.492L2.22928 39.5249L1.94727 47.756L3.21329 55.894L5.98126 63.651L10.1543 70.752L15.5833 76.945L19.8083 80.459L24.4393 83.417L31.9893 86.709L40.0213 88.528L48.2533 88.81L56.3913 87.544L64.1483 84.776L71.2493 80.603L77.4423 75.174L82.5083 68.6799L86.2673 61.352L88.5873 53.45L89.3853 45.252L89.0563 39.767L88.0413 34.366L85.2733 26.6089L81.1003 19.509L75.6713 13.315Z" stroke="#292562" stroke-width="2" stroke-linecap="round" stroke-linejoin="round"/>
<path d="M34.7654 27.706L31.6584 25.612L29.8674 25.038L27.3724 24.812L23.7194 25.643L20.6294 27.76L18.5354 30.867L17.7324 34.526L17.8584 36.403L18.5664 38.806L20.6834 41.896L23.7904 43.99L27.4494 44.793L31.1464 44.192L32.8454 43.385L34.8194 41.842L36.9134 38.735L37.7164 35.076L37.4704 32.583L36.8824 30.796L34.7654 27.706Z" stroke="#292562" stroke-width="2" stroke-linecap="round" stroke-linejoin="round"/>
<path d="M70.3211 36.973L67.2151 34.879L65.4231 34.305L62.9281 34.079L59.2751 34.91L56.1851 37.028L54.0921 40.134L53.2891 43.793L53.4141 45.67L54.1221 48.073L56.2401 51.163L59.3461 53.257L63.0051 54.06L66.7021 53.46L68.4021 52.652L70.3751 51.109L72.4691 48.003L73.2721 44.344L73.0271 41.85L72.438 40.063L70.3211 36.973Z" stroke="#292562" stroke-width="2" stroke-linecap="round" stroke-linejoin="round"/>
<path d="M25.6578 53.2L25.2598 55.517L25.3208 58.927L26.0198 62.266L27.3328 65.414L29.9538 69.125L32.4818 71.4149L35.3938 73.1909L39.6958 74.653L43.0868 75.019L46.4868 74.744L49.7747 73.836L52.8348 72.3289L55.5578 70.274L57.8477 67.746L59.6237 64.834L60.2448 63.179" stroke="#292562" stroke-width="2" stroke-linecap="round" stroke-linejoin="round"/>
<path d="M62.8347 45.058L62.5677 45.091L62.6287 44.861L62.0667 45.336L62.2927 45.631L61.4517 46.389L61.4157 46.859L60.6037 47.887L60.5117 48.614L61.4627 49.392L61.0937 49.579L62.5747 50.803L64.6857 50.938L64.5497 51.078L64.7627 51.156L66.5497 50.835L66.3037 50.363L66.5837 50.302L66.8767 49.015L67.4567 48.656L67.2367 47.92L67.4797 47.13L67.7937 47.168L67.2267 46.679L67.4297 46.39L65.8077 45.146L66.3517 45.216L65.0517 45.283L65.3337 45.519L64.9447 45.339L64.9337 45.509L65.4387 45.476L64.8877 45.548L65.5917 45.557L64.9877 45.459L65.3907 45.404L65.7037 45.588L65.1297 45.388L65.4377 45.458L65.2217 45.411L65.3747 45.534L65.5587 45.123L65.5187 45.327L65.2647 45.182L65.4797 45.327L65.2797 45.266L65.7397 44.987L66.1897 45.022" stroke="#292562" stroke-width="5" stroke-linecap="round" stroke-linejoin="round"/>
<path d="M27.616 35.786L27.349 35.819L27.41 35.589L26.848 36.065L27.074 36.359L26.233 37.117L26.196 37.588L25.385 38.615L25.293 39.342L26.244 40.121L25.875 40.307L27.356 41.532L29.467 41.666L29.331 41.806L29.544 41.884L31.331 41.563L31.085 41.092L31.365 41.03L31.658 39.744L32.238 39.385L32.018 38.649L32.261 37.858L32.575 37.896L32.008 37.407L32.211 37.118L30.589 35.874L31.133 35.944L29.833 36.011L30.115 36.248L29.726 36.067L29.715 36.237L30.22 36.204L29.669 36.276L30.373 36.285L29.769 36.187L30.172 36.132L30.485 36.316L29.911 36.116L30.219 36.186L30.003 36.14L30.156 36.262L30.34 35.852L30.3 36.056L30.046 35.91L30.261 36.055L30.061 35.995L30.521 35.715L30.971 35.75" stroke="#292562" stroke-width="5" stroke-linecap="round" stroke-linejoin="round"/>
</svg>
