<svg width="120" height="120" viewBox="0 0 120 120" fill="none" xmlns="http://www.w3.org/2000/svg">
<path d="M70.6451 19.018L63.1441 15.616L55.1391 13.68L47.9961 13.332" stroke="#292562" stroke-width="2" stroke-linecap="round" stroke-linejoin="round"/>
<path d="M7.30118 43.566L6.0672 48.0481L5.2832 53.4871L5.3992 61.722L7.05618 69.79L10.1952 77.4041L14.7062 84.295L20.4272 90.2191L27.1582 94.9661L32.0892 97.3921L37.2852 99.1811L45.3962 100.61L53.6312 100.494L61.6992 98.8371L69.3132 95.6981L76.2042 91.188L82.1282 85.4661L86.8752 78.7361L90.2772 71.235L92.2132 63.23L92.6152 55.0031L91.4682 46.847L89.8602 41.592L87.6072 36.58L83.0972 29.6891L77.3752 23.765L70.6452 19.0181" fill="white"/>
<path d="M7.30118 43.566L6.0672 48.0481L5.2832 53.4871L5.3992 61.722L7.05618 69.79L10.1952 77.4041L14.7062 84.295L20.4272 90.2191L27.1582 94.9661L32.0892 97.3921L37.2852 99.1811L45.3962 100.61L53.6312 100.494L61.6992 98.8371L69.3132 95.6981L76.2042 91.188L82.1282 85.4661L86.8752 78.7361L90.2772 71.235L92.2132 63.23L92.6152 55.0031L91.4682 46.847L89.8602 41.592L87.6072 36.58L83.0972 29.6891L77.3752 23.765L70.6452 19.0181" stroke="#292562" stroke-width="2" stroke-linecap="round" stroke-linejoin="round"/>
<path d="M1.50586 52.9901L64.5059 12.9901" stroke="#292562" stroke-width="2" stroke-linecap="round" stroke-linejoin="round"/>
<path d="M22.9336 54.5091L23.3936 53.4231L24.2656 53.024L24.3876 52.4261L25.1046 51.8191L25.0776 51.5161L25.8856 51.4571L26.0756 50.9911L27.0706 50.661L27.4756 50.049L28.1996 50.0641L29.4706 49.2921L30.3186 49.5561L30.7196 49.2961L30.4006 49.1991L32.1836 49.2111L32.5516 48.847L34.4806 48.9181L35.1726 49.4081L35.9826 49.5201L38.1036 50.9951L38.2466 51.57L38.7396 51.5941L38.5236 51.7121L39.3986 52.096L39.3866 52.377L40.0926 52.4641L39.3926 52.6161L40.7126 53.0251L40.7946 53.2551L40.3246 53.1501L40.7146 53.204L40.6436 53.5421L41.0046 53.5301L40.6376 53.2191L41.2396 53.278L40.7686 53.152L41.0566 53.239L40.8266 53.1601L41.5066 52.7151" stroke="#292562" stroke-width="5.25" stroke-linecap="round" stroke-linejoin="round"/>
<path d="M16.5059 7.05103L4.50586 54.051" stroke="#292562" stroke-width="4" stroke-linecap="round" stroke-linejoin="round"/>
<path d="M17.5059 9.05103L55.5059 19.051" stroke="#292562" stroke-width="4" stroke-linecap="round" stroke-linejoin="round"/>
<path d="M11.5059 47.051L55.5059 19.051" stroke="#292562" stroke-width="4" stroke-linecap="round" stroke-linejoin="round"/>
<path d="M13.7798 40.63L13.2757 41.43L13.7677 41.361L13.2238 41.321L13.7727 41.343L14.2927 40.647L14.9067 40.563L19.3197 38.072L32.8658 29.588L37.7777 27.164L32.5208 30.01L24.3087 35.561L19.9297 38.054L13.3447 41.161L13.0747 41.531L13.5807 41.482L33.9247 27.229L35.8627 25.235L34.5777 26.099L32.8228 26.62L11.2497 39.784L8.87375 41.05H7.92773L9.18073 40.151L9.92075 38.921L11.0378 37.915L16.9527 33.477L24.2337 29.467L33.3587 25.043L37.8027 21.926L40.0347 20.774L40.8757 19.806L36.5147 22.734L25.6718 28.678L16.9697 33.933L9.47375 39.534L15.7507 33.827L24.8257 27.353L30.3997 23.076L32.1607 21.315L12.2007 36.338L8.04373 38.658L7.93875 38.18L10.1207 36.613L17.9597 29.234L22.5627 26.206L31.2627 19.404L32.3887 18.125L32.7907 18.079L32.1667 18.251L31.6187 19.057L29.8568 19.972L20.7538 26.932L10.8337 32.571L12.1297 30.086L13.3687 28.642L21.8347 20.743L22.5667 19.519L24.1297 18.373L17.7448 23.34L15.3427 24.438L16.0847 24.244L17.0168 22.435L20.4367 19.587L23.7878 15.848L21.6397 18.268L19.7177 19.847L15.1777 22.342L16.7627 20.89L18.3517 18.399L20.9867 15.057L21.6937 14.593L22.3837 13.059L20.7597 14.133L17.9747 15.229L19.0247 14.771L19.0317 13.912L18.6007 12.221L18.8087 12.2L18.4147 12.342L17.8837 11.576L19.3457 12.035L23.7427 11.536L28.4057 12.438L32.4077 13.605L34.3577 14.509L40.6158 18.68L42.8438 18.721L43.9167 18.352L44.1187 18.682L43.9917 18.476L45.3337 18.253L44.7777 18.812" stroke="#292562" stroke-width="4" stroke-linecap="round" stroke-linejoin="round"/>
<path d="M46.71 23.4011L43.624 22.3491L41.093 21.0771L33.279 19.0231L27.966 16.2621L26.459 16.5811L27.412 17.0081L28.794 18.8901L30.178 19.9061L33.187 21.3221L35.769 23.5761L38.793 24.7481L41.331 25.1061L42.685 24.7271L46.64 22.4791" stroke="#292562" stroke-width="4" stroke-linecap="round" stroke-linejoin="round"/>
<path d="M24.2539 21.0781L27.9119 19.9431L30.7329 19.8231L33.1969 20.178L35.9129 21.3L38.7309 21.817L48.6469 19.743" stroke="#292562" stroke-width="4" stroke-linecap="round" stroke-linejoin="round"/>
<path d="M39.4062 23.756L51.4002 21.274L52.8393 21.208" stroke="#292562" stroke-width="4" stroke-linecap="round" stroke-linejoin="round"/>
<path d="M18.5059 2.05103L58.5059 14.051" stroke="#292562" stroke-width="4" stroke-linecap="round" stroke-linejoin="round"/>
<path d="M20.5059 6.05103L58.5059 19.051" stroke="#292562" stroke-width="4" stroke-linecap="round" stroke-linejoin="round"/>
<path d="M55.7207 56.291L56.1797 55.205L57.0527 54.806L57.1737 54.208L57.8907 53.601L57.8647 53.298L58.6717 53.239L58.8627 52.772L59.8567 52.442L60.2627 51.831L60.9857 51.846L62.2567 51.073L63.1047 51.338L63.5057 51.078L63.1877 50.981L64.9697 50.992L65.3377 50.629L67.2667 50.699L67.9597 51.189L68.7687 51.302L70.8897 52.777L71.0327 53.351L71.5257 53.376L71.3097 53.494L72.1847 53.878L72.1727 54.158L72.8787 54.246L72.1787 54.398L73.4987 54.807L73.5807 55.037L73.1117 54.931L73.5007 54.986L73.4297 55.323L73.7917 55.312L73.4237 55.001L74.0267 55.06L73.5547 54.934L73.8427 55.021L73.6137 54.942L74.2927 54.497" stroke="#292562" stroke-width="5.25" stroke-linecap="round" stroke-linejoin="round"/>
<path d="M52.6761 74.744L53.5381 75.205L53.8021 75.955L54.2861 76.101L54.7331 76.739L54.9851 76.74L54.9731 77.411L55.3431 77.603L55.5411 78.449L56.0151 78.83L55.9482 79.426L56.4891 80.534L56.2071 81.214L56.3911 81.565L56.4951 81.309L56.3511 82.78L56.6231 83.111L56.4191 84.698L55.9621 85.233L55.8081 85.893L54.4311 87.532L53.9461 87.606L53.8881 88.011L53.8071 87.824L53.4241 88.518L53.1931 88.486L53.0681 89.063L52.9951 88.473L52.5581 89.532L52.3621 89.582L52.4841 89.203L52.4101 89.52L52.1371 89.436L52.1191 89.735L52.4031 89.456L52.3091 89.949L52.4491 89.569L52.3551 89.8L52.4381 89.616L52.7531 90.211" stroke="#292562" stroke-width="4.25" stroke-linecap="round" stroke-linejoin="round"/>
<path d="M65.1971 74.055L65.1621 74.377L65.4941 74.478L65.0011 74.371L65.0131 73.624L64.4001 73.176L64.6931 73.157L64.7672 72.425L64.4131 72.07L64.3922 70.578L64.1001 70.438L64.5971 70.133L63.7721 69.665L64.3151 69.55L64.2131 69.018L64.6971 68.572L64.2711 68.137L65.6411 66.329L65.7181 65.82L68.6101 64.504L71.0261 64.551L72.2331 65.224L73.1381 65.284L72.3811 65.402L74.7771 66.192L74.3611 66.286L74.8801 66.667L75.3901 67.87L75.8071 67.971L75.8011 68.525L76.5271 68.874L76.2551 69.749L77.1881 70.449L76.8922 70.764L77.7151 71.021L77.3661 71.361L78.3551 73.553L78.1281 74.013L78.3341 74.219L77.8901 74.439L78.3091 74.644L77.9811 74.881L78.2931 74.985L77.9701 75.395L78.2431 75.629L77.5921 75.75L77.6151 76.65L76.8871 76.971L77.5651 77.075L76.7481 77.157L76.8102 78.042L75.9461 78.636L76.5741 78.793L75.2701 78.804L75.4961 79.231L73.8141 80.716L73.5891 81.01L73.8161 81.094L73.1941 80.952L73.4411 81.156L71.4781 81.608L71.2791 81.994L70.2921 81.857L67.9261 82.222L68.0471 82.539L66.3841 82.299L65.3091 82.389L65.7301 82.516L63.0611 81.99L61.7591 82.304L59.3171 82.2L59.2741 82.585L58.3232 82.519L58.4431 82.787L55.8251 83.645L55.2191 84.273L54.8411 84.1L55.2761 84.268L54.6191 84.081L55.1561 84.297L54.7131 84.207L55.4431 84.276L54.9781 84.193L55.2451 84.082L54.9361 84.219L55.5042 84.295L55.1131 84.114L55.0921 84.332L55.3281 84.327L55.1911 84.038L55.4581 84.199L55.2321 84.296L55.1321 83.998L56.6911 84.257L56.9771 84.567" stroke="#292562" stroke-width="4" stroke-linecap="round" stroke-linejoin="round"/>
<path d="M86.4688 5.33899L96.5748 10.633" stroke="#292562" stroke-width="1.25" stroke-linecap="round" stroke-linejoin="round"/>
<path d="M84.6348 8.58411V21.2471" stroke="#292562" stroke-width="1.25" stroke-linecap="round" stroke-linejoin="round"/>
<path d="M84.125 20.489L99.705 10.6801" stroke="#292562" stroke-width="1.25" stroke-linecap="round" stroke-linejoin="round"/>
<path d="M31.5806 117.353L21.4746 112.059" stroke="#292562" stroke-width="1.25" stroke-linecap="round" stroke-linejoin="round"/>
<path d="M33.416 114.108V101.445" stroke="#292562" stroke-width="1.25" stroke-linecap="round" stroke-linejoin="round"/>
<path d="M33.9257 102.203L18.3457 112.012" stroke="#292562" stroke-width="1.25" stroke-linecap="round" stroke-linejoin="round"/>
<path d="M113.098 35.973L116.501 46.863" stroke="#292562" stroke-width="1.25" stroke-linecap="round" stroke-linejoin="round"/>
<path d="M109.505 36.9711L100.551 45.9251" stroke="#292562" stroke-width="1.25" stroke-linecap="round" stroke-linejoin="round"/>
<path d="M100.727 45.0291L118.68 49.109" stroke="#292562" stroke-width="1.25" stroke-linecap="round" stroke-linejoin="round"/>
<path d="M90.6124 105.869L85.3184 115.976" stroke="#292562" stroke-width="1.25" stroke-linecap="round" stroke-linejoin="round"/>
<path d="M87.3681 104.035H74.7051" stroke="#292562" stroke-width="1.25" stroke-linecap="round" stroke-linejoin="round"/>
<path d="M75.4629 103.525L85.2729 119.105" stroke="#292562" stroke-width="1.25" stroke-linecap="round" stroke-linejoin="round"/>
</svg>
