<svg width="120" height="121" viewBox="0 0 120 121" fill="none" xmlns="http://www.w3.org/2000/svg">
<path d="M70.9498 19.39L63.4488 15.988L55.4438 14.052L48.3008 13.704" stroke="#292562" stroke-width="2" stroke-linecap="round" stroke-linejoin="round"/>
<path d="M7.60587 43.938L6.37189 48.42L5.58789 53.859L5.70389 62.094L7.36087 70.162L10.4999 77.776L15.0109 84.667L20.7319 90.591L27.4629 95.338L32.3939 97.764L37.5899 99.553L45.7009 100.982L53.9359 100.866L62.0039 99.209L69.6179 96.07L76.5089 91.56L82.4329 85.838L87.1799 79.108L90.5819 71.607L92.5179 63.602L92.9199 55.375L91.7729 47.219L90.1649 41.964L87.9119 36.952L83.4019 30.061L77.6799 24.137L70.9499 19.39" stroke="#292562" stroke-width="2" stroke-linecap="round" stroke-linejoin="round"/>
<path d="M1.81055 53.3621L64.8105 13.3621" stroke="#292562" stroke-width="2" stroke-linecap="round" stroke-linejoin="round"/>
<path d="M23.2383 54.881L23.6983 53.795L24.5703 53.396L24.6923 52.798L25.4093 52.191L25.3823 51.888L26.1903 51.829L26.3803 51.363L27.3753 51.033L27.7803 50.421L28.5043 50.436L29.7753 49.664L30.6233 49.928L31.0243 49.668L30.7053 49.571L32.4883 49.583L32.8563 49.219L34.7853 49.29L35.4773 49.78L36.2873 49.892L38.4083 51.367L38.5513 51.942L39.0443 51.966L38.8283 52.084L39.7033 52.468L39.6913 52.749L40.3973 52.836L39.6973 52.988L41.0173 53.397L41.0993 53.627L40.6293 53.522L41.0193 53.576L40.9483 53.914L41.3093 53.902L40.9423 53.591L41.5443 53.65L41.0733 53.524L41.3613 53.611L41.1313 53.532L41.8113 53.087" stroke="#292562" stroke-width="5.25" stroke-linecap="round" stroke-linejoin="round"/>
<path d="M16.8105 7.42297L4.81055 54.423" stroke="#292562" stroke-width="4" stroke-linecap="round" stroke-linejoin="round"/>
<path d="M17.8105 9.42297L55.8105 19.423" stroke="#292562" stroke-width="4" stroke-linecap="round" stroke-linejoin="round"/>
<path d="M11.8105 47.423L55.8105 19.423" stroke="#292562" stroke-width="4" stroke-linecap="round" stroke-linejoin="round"/>
<path d="M14.0844 41.002L13.5804 41.802L14.0724 41.733L13.5284 41.693L14.0774 41.715L14.5974 41.019L15.2114 40.935L19.6244 38.444L33.1704 29.96L38.0824 27.536L32.8254 30.382L24.6134 35.933L20.2344 38.426L13.6494 41.533L13.3794 41.903L13.8854 41.854L34.2294 27.601L36.1674 25.607L34.8824 26.471L33.1274 26.992L11.5544 40.156L9.17844 41.422H8.23242L9.48541 40.523L10.2254 39.293L11.3424 38.287L17.2574 33.849L24.5384 29.839L33.6634 25.415L38.1074 22.298L40.3394 21.146L41.1804 20.178L36.8194 23.106L25.9764 29.05L17.2744 34.305L9.77844 39.906L16.0554 34.199L25.1304 27.725L30.7044 23.448L32.4654 21.687L12.5054 36.71L8.34842 39.03L8.24344 38.552L10.4254 36.985L18.2644 29.606L22.8674 26.578L31.5674 19.776L32.6934 18.497L33.0954 18.451L32.4714 18.623L31.9234 19.429L30.1614 20.344L21.0584 27.304L11.1384 32.943L12.4344 30.458L13.6734 29.014L22.1394 21.115L22.8714 19.891L24.4344 18.745L18.0494 23.712L15.6474 24.81L16.3894 24.616L17.3214 22.807L20.7414 19.959L24.0924 16.22L21.9444 18.64L20.0224 20.219L15.4824 22.714L17.0674 21.262L18.6564 18.771L21.2914 15.429L21.9984 14.965L22.6884 13.431L21.0644 14.505L18.2794 15.601L19.3294 15.143L19.3364 14.284L18.9054 12.593L19.1134 12.572L18.7194 12.714L18.1884 11.948L19.6504 12.407L24.0474 11.908L28.7104 12.81L32.7124 13.977L34.6624 14.881L40.9204 19.052L43.1484 19.093L44.2214 18.724L44.4234 19.054L44.2964 18.848L45.6384 18.625L45.0824 19.184" stroke="#292562" stroke-width="4" stroke-linecap="round" stroke-linejoin="round"/>
<path d="M47.0147 23.773L43.9286 22.721L41.3977 21.449L33.5837 19.395L28.2707 16.634L26.7637 16.953L27.7167 17.38L29.0987 19.262L30.4827 20.278L33.4917 21.694L36.0737 23.948L39.0977 25.12L41.6357 25.478L42.9897 25.099L46.9447 22.851" stroke="#292562" stroke-width="4" stroke-linecap="round" stroke-linejoin="round"/>
<path d="M24.5586 21.45L28.2166 20.315L31.0376 20.195L33.5016 20.55L36.2176 21.672L39.0356 22.189L48.9516 20.115" stroke="#292562" stroke-width="4" stroke-linecap="round" stroke-linejoin="round"/>
<path d="M39.7109 24.128L51.7049 21.646L53.144 21.58" stroke="#292562" stroke-width="4" stroke-linecap="round" stroke-linejoin="round"/>
<path d="M18.8105 2.42297L58.8105 14.423" stroke="#292562" stroke-width="4" stroke-linecap="round" stroke-linejoin="round"/>
<path d="M20.8105 6.42297L58.8105 19.423" stroke="#292562" stroke-width="4" stroke-linecap="round" stroke-linejoin="round"/>
<path d="M56.0254 56.663L56.4844 55.577L57.3574 55.178L57.4784 54.58L58.1954 53.973L58.1694 53.67L58.9764 53.611L59.1674 53.144L60.1614 52.814L60.5674 52.203L61.2904 52.218L62.5614 51.445L63.4094 51.71L63.8104 51.45L63.4924 51.353L65.2744 51.364L65.6424 51.001L67.5714 51.071L68.2644 51.561L69.0734 51.674L71.1944 53.149L71.3374 53.723L71.8304 53.748L71.6144 53.866L72.4894 54.25L72.4774 54.53L73.1834 54.618L72.4834 54.77L73.8034 55.179L73.8854 55.409L73.4164 55.303L73.8054 55.358L73.7344 55.695L74.0964 55.684L73.7284 55.373L74.3314 55.432L73.8594 55.306L74.1474 55.393L73.9184 55.314L74.5974 54.869" stroke="#292562" stroke-width="5.25" stroke-linecap="round" stroke-linejoin="round"/>
<path d="M52.9808 75.116L53.8428 75.577L54.1068 76.327L54.5908 76.473L55.0378 77.111L55.2898 77.112L55.2778 77.783L55.6478 77.975L55.8458 78.821L56.3198 79.202L56.2528 79.798L56.7938 80.906L56.5118 81.586L56.6958 81.937L56.7998 81.681L56.6558 83.152L56.9278 83.483L56.7238 85.07L56.2668 85.605L56.1128 86.265L54.7358 87.904L54.2508 87.978L54.1928 88.383L54.1118 88.196L53.7288 88.89L53.4978 88.858L53.3728 89.435L53.2998 88.845L52.8628 89.904L52.6668 89.954L52.7888 89.575L52.7148 89.892L52.4418 89.808L52.4238 90.107L52.7078 89.828L52.6138 90.321L52.7538 89.941L52.6598 90.172L52.7428 89.988L53.0578 90.583" stroke="#292562" stroke-width="4.25" stroke-linecap="round" stroke-linejoin="round"/>
<path d="M65.5018 74.427L65.4668 74.749L65.7988 74.85L65.3058 74.743L65.3178 73.996L64.7048 73.548L64.9978 73.529L65.0718 72.797L64.7178 72.442L64.6968 70.95L64.4048 70.81L64.9018 70.505L64.0768 70.037L64.6198 69.922L64.5178 69.39L65.0018 68.944L64.5758 68.509L65.9458 66.701L66.0228 66.192L68.9148 64.876L71.3308 64.923L72.5378 65.596L73.4428 65.656L72.6858 65.774L75.0818 66.564L74.6658 66.658L75.1848 67.039L75.6948 68.242L76.1118 68.343L76.1058 68.897L76.8318 69.246L76.5598 70.121L77.4928 70.821L77.1968 71.136L78.0198 71.393L77.6708 71.733L78.6598 73.925L78.4328 74.385L78.6388 74.591L78.1948 74.811L78.6138 75.016L78.2858 75.253L78.5978 75.357L78.2748 75.767L78.5478 76.001L77.8968 76.122L77.9198 77.022L77.1918 77.343L77.8698 77.447L77.0528 77.529L77.1148 78.414L76.2508 79.008L76.8788 79.165L75.5748 79.176L75.8008 79.603L74.1188 81.088L73.8938 81.382L74.1208 81.466L73.4988 81.324L73.7458 81.528L71.7828 81.98L71.5838 82.366L70.5968 82.229L68.2308 82.594L68.3518 82.911L66.6888 82.671L65.6138 82.761L66.0348 82.888L63.3658 82.362L62.0638 82.676L59.6218 82.572L59.5788 82.957L58.6278 82.891L58.7478 83.159L56.1298 84.017L55.5238 84.645L55.1458 84.472L55.5808 84.64L54.9238 84.453L55.4608 84.669L55.0178 84.579L55.7478 84.648L55.2828 84.565L55.5498 84.454L55.2408 84.591L55.8088 84.667L55.4178 84.486L55.3968 84.704L55.6328 84.699L55.4958 84.41L55.7628 84.571L55.5368 84.668L55.4368 84.37L56.9958 84.629L57.2818 84.939" stroke="#292562" stroke-width="4" stroke-linecap="round" stroke-linejoin="round"/>
<path d="M86.7734 5.71094L96.8795 11.0049" stroke="#292562" stroke-width="1.25" stroke-linecap="round" stroke-linejoin="round"/>
<path d="M84.9395 8.95605V21.619" stroke="#292562" stroke-width="1.25" stroke-linecap="round" stroke-linejoin="round"/>
<path d="M84.4297 20.861L100.01 11.052" stroke="#292562" stroke-width="1.25" stroke-linecap="round" stroke-linejoin="round"/>
<path d="M31.8853 117.725L21.7793 112.431" stroke="#292562" stroke-width="1.25" stroke-linecap="round" stroke-linejoin="round"/>
<path d="M33.7207 114.48V101.817" stroke="#292562" stroke-width="1.25" stroke-linecap="round" stroke-linejoin="round"/>
<path d="M34.2304 102.575L18.6504 112.384" stroke="#292562" stroke-width="1.25" stroke-linecap="round" stroke-linejoin="round"/>
<path d="M113.402 36.345L116.805 47.235" stroke="#292562" stroke-width="1.25" stroke-linecap="round" stroke-linejoin="round"/>
<path d="M109.809 37.343L100.855 46.297" stroke="#292562" stroke-width="1.25" stroke-linecap="round" stroke-linejoin="round"/>
<path d="M101.031 45.401L118.984 49.481" stroke="#292562" stroke-width="1.25" stroke-linecap="round" stroke-linejoin="round"/>
<path d="M90.9171 106.241L85.623 116.348" stroke="#292562" stroke-width="1.25" stroke-linecap="round" stroke-linejoin="round"/>
<path d="M87.6728 104.407H75.0098" stroke="#292562" stroke-width="1.25" stroke-linecap="round" stroke-linejoin="round"/>
<path d="M75.7676 103.897L85.5776 119.477" stroke="#292562" stroke-width="1.25" stroke-linecap="round" stroke-linejoin="round"/>
</svg>
