<svg width="90" height="95" viewBox="0 0 90 95" fill="none" xmlns="http://www.w3.org/2000/svg">
<path d="M66.6706 7.49487L59.1696 4.09387L51.1646 2.1579L42.9376 1.75586L34.7816 2.90289L26.9856 5.55786L22.1246 8.12085L17.6236 11.2739L11.6996 16.9949L6.95258 23.7259L3.5506 31.2269L2.09259 36.5248L1.30859 41.9639L1.42459 50.1989L3.08157 58.2668L6.22058 65.8809L10.7316 72.7719L16.4526 78.6959L23.1836 83.4429L28.1146 85.8689L33.3106 87.6579L41.4216 89.0869L49.6566 88.9709L57.7246 87.3149L65.3386 84.1749L72.2296 79.6649L78.1536 73.9429L82.9006 67.2129L86.3026 59.7119L88.2386 51.7068L88.6396 43.4799L87.4926 35.3249L85.8856 30.0688L83.6326 25.0579L79.1226 18.1659L73.4006 12.2419L66.6706 7.49487Z" fill="white" stroke="#292562" stroke-width="2" stroke-linecap="round" stroke-linejoin="round"/>
<path d="M30.2811 31.0788L26.7701 29.7718L24.8941 29.6338L22.4151 29.9988L19.0601 31.6638L16.5521 34.4468L15.2461 37.9578L15.3231 41.7028L15.8861 43.4978L17.1381 45.6688L19.9211 48.1758L23.4321 49.4818L27.1771 49.4048L30.6301 47.9538L32.0931 46.7698L33.6501 44.8068L34.9561 41.2968L34.8791 37.5508L34.0551 35.1848L33.0641 33.5858L30.2811 31.0788Z" fill="white" stroke="#292562" stroke-width="2" stroke-linecap="round" stroke-linejoin="round"/>
<path d="M67.0174 31.748L63.5064 30.441L61.6304 30.303L59.1514 30.668L55.7964 32.333L53.2894 35.116L51.9824 38.627L52.0594 42.372L52.6224 44.168L53.8744 46.338L56.6574 48.845L60.1684 50.151L63.9134 50.074L67.3664 48.623L68.8294 47.44L70.3864 45.476L71.6924 41.966L71.6154 38.221L70.7914 35.854L69.8004 34.255L67.0174 31.748Z" fill="white" stroke="#292562" stroke-width="2" stroke-linecap="round" stroke-linejoin="round"/>
<path d="M61.6388 41.363L61.3868 41.457L61.3908 41.22L60.9568 41.814L61.2458 42.047L60.6058 42.981L60.6808 43.447L60.1328 44.637L60.2148 45.365L61.3208 45.898L61.0058 46.166L62.7328 47.009L64.8158 46.645L64.7178 46.813L64.9428 46.839L66.6038 46.107L66.2538 45.707L66.5128 45.581L66.4958 44.262L66.9748 43.777L66.5888 43.113L66.6398 42.288L66.9538 42.251L66.2878 41.908L66.4168 41.58L64.5488 40.751L65.0938 40.691L63.8458 41.062L64.1758 41.225L63.7558 41.141L63.7838 41.309L64.2668 41.159L63.7488 41.358L64.4348 41.201L63.8248 41.247L64.2038 41.099L64.5518 41.205L63.9468 41.145L64.2618 41.141L64.0408 41.147L64.2188 41.23L64.3018 40.788L64.3108 40.995L64.0288 40.913L64.2718 41.004L64.0638 40.992L64.4448 40.613L64.8908 40.541" fill="white"/>
<path d="M61.6388 41.363L61.3868 41.457L61.3908 41.22L60.9568 41.814L61.2458 42.047L60.6058 42.981L60.6808 43.447L60.1328 44.637L60.2148 45.365L61.3208 45.898L61.0058 46.166L62.7328 47.009L64.8158 46.645L64.7178 46.813L64.9428 46.839L66.6038 46.107L66.2538 45.707L66.5128 45.581L66.4958 44.262L66.9748 43.777L66.5888 43.113L66.6398 42.288L66.9538 42.251L66.2878 41.908L66.4168 41.58L64.5488 40.751L65.0938 40.691L63.8458 41.062L64.1758 41.225L63.7558 41.141L63.7838 41.309L64.2668 41.159L63.7488 41.358L64.4348 41.201L63.8248 41.247L64.2038 41.099L64.5518 41.205L63.9468 41.145L64.2618 41.141L64.0408 41.147L64.2188 41.23L64.3018 40.788L64.3108 40.995L64.0288 40.913L64.2718 41.004L64.0638 40.992L64.4448 40.613L64.8908 40.541" stroke="#292562" stroke-width="5" stroke-linecap="round" stroke-linejoin="round"/>
<path d="M25.2248 40.61L24.9738 40.7051L24.9778 40.4681L24.5438 41.0621L24.8318 41.295L24.1927 42.2291L24.2678 42.6951L23.7188 43.884L23.8008 44.613L24.9078 45.1461L24.5928 45.4141L26.3198 46.2571L28.4028 45.892L28.3038 46.061L28.5288 46.087L30.1908 45.355L29.8408 44.9551L30.0998 44.829L30.0828 43.5101L30.5618 43.025L30.1758 42.361L30.2268 41.5361L30.5398 41.499L29.8748 41.1561L30.0038 40.8281L28.1348 39.999L28.6808 39.939L27.4328 40.3091L27.7628 40.473L27.3418 40.389L27.3708 40.556L27.8538 40.4061L27.3358 40.6061L28.0218 40.449L27.4118 40.4951L27.7908 40.347L28.1388 40.4531L27.5338 40.3931L27.8488 40.389L27.6278 40.3951L27.8047 40.478L27.8878 40.035L27.8978 40.243L27.6158 40.1611L27.8588 40.2521L27.6508 40.2401L28.0318 39.86L28.4778 39.7891" fill="white"/>
<path d="M25.2248 40.61L24.9738 40.7051L24.9778 40.4681L24.5438 41.0621L24.8318 41.295L24.1927 42.2291L24.2678 42.6951L23.7188 43.884L23.8008 44.613L24.9078 45.1461L24.5928 45.4141L26.3198 46.2571L28.4028 45.892L28.3038 46.061L28.5288 46.087L30.1908 45.355L29.8408 44.9551L30.0998 44.829L30.0828 43.5101L30.5618 43.025L30.1758 42.361L30.2268 41.5361L30.5398 41.499L29.8748 41.1561L30.0038 40.8281L28.1348 39.999L28.6808 39.939L27.4328 40.3091L27.7628 40.473L27.3418 40.389L27.3708 40.556L27.8538 40.4061L27.3358 40.6061L28.0218 40.449L27.4118 40.4951L27.7908 40.347L28.1388 40.4531L27.5338 40.3931L27.8488 40.389L27.6278 40.3951L27.8047 40.478L27.8878 40.035L27.8978 40.243L27.6158 40.1611L27.8588 40.2521L27.6508 40.2401L28.0318 39.86L28.4778 39.7891" stroke="#292562" stroke-width="5" stroke-linecap="round" stroke-linejoin="round"/>
<path d="M64.8204 25.1851L64.7094 26.3591L63.9984 27.0031L64.0624 27.61L63.5604 28.4041L63.6774 28.6851L62.9254 28.985L62.8844 29.4871L62.0354 30.1011L61.8324 30.806L61.1384 31.0101L60.1594 32.129L59.2704 32.1331L58.9664 32.501L59.2994 32.4971L57.5964 33.0231L57.3544 33.48L55.4934 33.9941L54.6864 33.735L53.8804 33.8721L51.4134 33.1041L51.1044 32.5991L50.6264 32.725L50.7974 32.5471L49.8474 32.444L49.7744 32.173L49.0744 32.3021L49.6964 31.946L48.3144 31.954L48.1664 31.7601L48.6464 31.7191L48.2584 31.7841L48.2244 31.441L47.8834 31.561L48.3274 31.746L47.7354 31.8721L48.2224 31.85L47.9224 31.8541L48.1644 31.86L47.6504 32.488" fill="white"/>
<path d="M64.8204 25.1851L64.7094 26.3591L63.9984 27.0031L64.0624 27.61L63.5604 28.4041L63.6774 28.6851L62.9254 28.985L62.8844 29.4871L62.0354 30.1011L61.8324 30.806L61.1384 31.0101L60.1594 32.129L59.2704 32.1331L58.9664 32.501L59.2994 32.4971L57.5964 33.0231L57.3544 33.48L55.4934 33.9941L54.6864 33.735L53.8804 33.8721L51.4134 33.1041L51.1044 32.5991L50.6264 32.725L50.7974 32.5471L49.8474 32.444L49.7744 32.173L49.0744 32.3021L49.6964 31.946L48.3144 31.954L48.1664 31.7601L48.6464 31.7191L48.2584 31.7841L48.2244 31.441L47.8834 31.561L48.3274 31.746L47.7354 31.8721L48.2224 31.85L47.9224 31.8541L48.1644 31.86L47.6504 32.488" stroke="#292562" stroke-width="5.25" stroke-linecap="round" stroke-linejoin="round"/>
<path d="M38.3058 33.86L37.3558 34.559L36.4018 34.457L35.9918 34.909L35.0648 35.064L34.9338 35.338L34.2098 34.976L33.8068 35.28L32.7838 35.056L32.1228 35.374L31.5088 34.992L30.0208 35.006L29.4268 34.345L28.9498 34.364L29.1738 34.61L27.6478 33.689L27.1458 33.813L25.5228 32.767L25.1788 31.993L24.5398 31.482L23.4708 29.131L23.6408 28.564L23.2298 28.291L23.4758 28.3L22.9198 27.523L23.0738 27.288L22.5108 26.852L23.1908 27.078L22.2648 26.052L22.3118 25.813L22.6618 26.144L22.3538 25.898L22.5878 25.644L22.2718 25.469L22.4288 25.924L21.9408 25.566L22.2808 25.915L22.0788 25.693L22.2358 25.878L21.4238 25.913" fill="white"/>
<path d="M38.3058 33.86L37.3558 34.559L36.4018 34.457L35.9918 34.909L35.0648 35.064L34.9338 35.338L34.2098 34.976L33.8068 35.28L32.7838 35.056L32.1228 35.374L31.5088 34.992L30.0208 35.006L29.4268 34.345L28.9498 34.364L29.1738 34.61L27.6478 33.689L27.1458 33.813L25.5228 32.767L25.1788 31.993L24.5398 31.482L23.4708 29.131L23.6408 28.564L23.2298 28.291L23.4758 28.3L22.9198 27.523L23.0738 27.288L22.5108 26.852L23.1908 27.078L22.2648 26.052L22.3118 25.813L22.6618 26.144L22.3538 25.898L22.5878 25.644L22.2718 25.469L22.4288 25.924L21.9408 25.566L22.2808 25.915L22.0788 25.693L22.2358 25.878L21.4238 25.913" stroke="#292562" stroke-width="5.25" stroke-linecap="round" stroke-linejoin="round"/>
<path d="M26.5 69.0008L77.588 54.4048Z" fill="white"/>
<path d="M26.5 69.0008L77.588 54.4048" stroke="#292562" stroke-width="2.5" stroke-linecap="round" stroke-linejoin="round"/>
<path d="M30.082 91.5911L85.531 75.748Z" fill="white"/>
<path d="M30.082 91.5911L85.531 75.748" stroke="#292562" stroke-width="2.5" stroke-linecap="round" stroke-linejoin="round"/>
<path d="M77.3878 59.8528L76.5548 58.0358L75.7338 57.5178L74.8208 55.2778L74.8008 50.4048" fill="white"/>
<path d="M77.3878 59.8528L76.5548 58.0358L75.7338 57.5178L74.8208 55.2778L74.8008 50.4048" stroke="#292562" stroke-width="2.5" stroke-linecap="round" stroke-linejoin="round"/>
<path d="M75.1553 49.99L75.1523 51.61L77.6053 58.237L80.4543 69.54L83.1703 76.618" fill="white"/>
<path d="M75.1553 49.99L75.1523 51.61L77.6053 58.237L80.4543 69.54L83.1703 76.618" stroke="#292562" stroke-width="2.5" stroke-linecap="round" stroke-linejoin="round"/>
<path d="M30.2521 76.8779L29.4201 75.0599L28.5991 74.5419L27.6861 72.3019L27.6621 66.705L28.4671 65.2009L27.7341 66.1939L28.0221 66.4839L28.0171 68.6339L30.4711 75.2609L33.3201 86.5639L35.9271 93.3599" fill="white"/>
<path d="M30.2521 76.8779L29.4201 75.0599L28.5991 74.5419L27.6861 72.3019L27.6621 66.705L28.4671 65.2009L27.7341 66.1939L28.0221 66.4839L28.0171 68.6339L30.4711 75.2609L33.3201 86.5639L35.9271 93.3599" stroke="#292562" stroke-width="2.5" stroke-linecap="round" stroke-linejoin="round"/>
<path d="M34.9805 75.626L76.4895 63.418Z" fill="white"/>
<path d="M34.9805 75.626L76.4895 63.418" stroke="#292562" stroke-width="7.25" stroke-linecap="round" stroke-linejoin="round"/>
<path d="M32.5449 75.768L34.1389 75.766L35.4139 75.011L35.1879 74.682L37.9499 74.429L46.6169 71.235L50.1699 70.797L55.9359 68.193L59.8899 67.297L62.4919 66.234L64.6309 65.941L65.6129 65.355L66.4819 65.407L69.3169 64.344L69.1439 64.136L69.6709 64.208" fill="white"/>
<path d="M32.5449 75.768L34.1389 75.766L35.4139 75.011L35.1879 74.682L37.9499 74.429L46.6169 71.235L50.1699 70.797L55.9359 68.193L59.8899 67.297L62.4919 66.234L64.6309 65.941L65.6129 65.355L66.4819 65.407L69.3169 64.344L69.1439 64.136L69.6709 64.208" stroke="#292562" stroke-width="7.25" stroke-linecap="round" stroke-linejoin="round"/>
<path d="M35.8203 69.9548L37.4153 69.9528L38.6893 69.1978L38.4633 68.8688L41.2253 68.6158L49.8923 65.4218L53.4453 64.9838L59.2113 62.3798L63.1663 61.4838L65.7673 60.4208L67.9063 60.1278L68.8883 59.5418L69.7573 59.5938L72.5933 58.5308L72.4193 58.3218L72.9463 58.3938" fill="white"/>
<path d="M35.8203 69.9548L37.4153 69.9528L38.6893 69.1978L38.4633 68.8688L41.2253 68.6158L49.8923 65.4218L53.4453 64.9838L59.2113 62.3798L63.1663 61.4838L65.7673 60.4208L67.9063 60.1278L68.8883 59.5418L69.7573 59.5938L72.5933 58.5308L72.4193 58.3218L72.9463 58.3938" stroke="#292562" stroke-width="7.25" stroke-linecap="round" stroke-linejoin="round"/>
<path d="M41.4453 81.6169L43.0393 81.6149L44.3133 80.8599L44.0873 80.5309L46.8493 80.2789L55.5163 77.0839L59.0693 76.6459L64.8353 74.0419L68.7903 73.1459L71.3913 72.0829L73.5303 71.7899L74.5123 71.2049L75.3813 71.2559L78.2173 70.1929L78.0433 69.9849L78.5703 70.0569" fill="white"/>
<path d="M41.4453 81.6169L43.0393 81.6149L44.3133 80.8599L44.0873 80.5309L46.8493 80.2789L55.5163 77.0839L59.0693 76.6459L64.8353 74.0419L68.7903 73.1459L71.3913 72.0829L73.5303 71.7899L74.5123 71.2049L75.3813 71.2559L78.2173 70.1929L78.0433 69.9849L78.5703 70.0569" stroke="#292562" stroke-width="7.25" stroke-linecap="round" stroke-linejoin="round"/>
<path d="M43.8926 75.5708L43.9266 78.0028L44.4386 79.0918L44.3006 79.4918L44.7986 80.4988L46.6106 81.7928L46.5506 82.4638" fill="white"/>
<path d="M43.8926 75.5708L43.9266 78.0028L44.4386 79.0918L44.3006 79.4918L44.7986 80.4988L46.6106 81.7928L46.5506 82.4638" stroke="white" stroke-width="2" stroke-linecap="round" stroke-linejoin="round"/>
<path d="M49.6581 70.8579L49.8391 71.2359L49.1191 71.7449L49.7031 71.7609L49.3691 72.0359L49.8251 73.1799L49.5901 74.101L50.2941 75.0659L51.4361 77.8439L52.3441 83.2659L52.1461 84.1949" fill="white"/>
<path d="M49.6581 70.8579L49.8391 71.2359L49.1191 71.7449L49.7031 71.7609L49.3691 72.0359L49.8251 73.1799L49.5901 74.101L50.2941 75.0659L51.4361 77.8439L52.3441 83.2659L52.1461 84.1949" stroke="white" stroke-width="2" stroke-linecap="round" stroke-linejoin="round"/>
<path d="M42.0368 72.7198L41.4168 72.6228L40.6758 73.1278L41.2338 73.1408L48.4158 71.1658L51.8698 69.6758" fill="white"/>
<path d="M42.0368 72.7198L41.4168 72.6228L40.6758 73.1278L41.2338 73.1408L48.4158 71.1658L51.8698 69.6758" stroke="white" stroke-width="2" stroke-linecap="round" stroke-linejoin="round"/>
<path d="M43.9669 79.237L43.877 79.515L44.3799 79.6L44.434 79.201L52.511 77.168L55.528 75.364" fill="white"/>
<path d="M43.9669 79.237L43.877 79.515L44.3799 79.6L44.434 79.201L52.511 77.168L55.528 75.364" stroke="white" stroke-width="2" stroke-linecap="round" stroke-linejoin="round"/>
<path d="M65.9702 63.5718L64.3352 64.6408L63.8652 65.7348L64.4882 66.4728L64.4782 69.1098L66.3852 72.2468" fill="white"/>
<path d="M65.9702 63.5718L64.3352 64.6408L63.8652 65.7348L64.4882 66.4728L64.4782 69.1098L66.3852 72.2468" stroke="white" stroke-width="2" stroke-linecap="round" stroke-linejoin="round"/>
<path d="M68.3754 80.0059L68.2344 80.8409L69.6134 80.0289" fill="white"/>
<path d="M68.3754 80.0059L68.2344 80.8409L69.6134 80.0289" stroke="white" stroke-width="2" stroke-linecap="round" stroke-linejoin="round"/>
<path d="M74.4531 65.4879L76.9241 63.2639L78.2242 63.2009L78.7891 64.757L78.0831 65.39L77.9711 67.6609L77.4441 68.174L77.5341 69.0389L76.8761 69.8019L77.5541 70.6089" fill="white"/>
<path d="M74.4531 65.4879L76.9241 63.2639L78.2242 63.2009L78.7891 64.757L78.0831 65.39L77.9711 67.6609L77.4441 68.174L77.5341 69.0389L76.8761 69.8019L77.5541 70.6089" stroke="white" stroke-width="2" stroke-linecap="round" stroke-linejoin="round"/>
</svg>
