<svg width="91" height="90" viewBox="0 0 91 90" fill="none" xmlns="http://www.w3.org/2000/svg">
<path d="M67.2028 7.37183L59.7028 3.96979L51.6968 2.03381L43.4708 1.63281L35.3148 2.77979L27.5188 5.43481L22.6578 7.9978L18.1568 11.1498L12.2328 16.8718L7.48578 23.6028L4.0838 31.1028L2.62479 36.4018L1.8418 41.8408L1.95779 50.0758L3.61481 58.1438L6.75378 65.7578L11.2638 72.6488L16.9858 78.5728L23.7168 83.3198L28.6468 85.7458L33.8428 87.5348L41.9548 88.9638L50.1898 88.8478L58.2578 87.1908L65.8718 84.0518L72.7628 79.5418L78.6868 73.8198L83.4338 67.0898L86.8358 59.5888L88.7718 51.5828L89.1728 43.3568L88.0258 35.2008L86.4188 29.9458L84.1658 24.9338L79.6558 18.0428L73.9338 12.1188L67.2028 7.37183Z" fill="white" stroke="#292562" stroke-width="2" stroke-linecap="round" stroke-linejoin="round"/>
<path d="M30.8163 30.956L27.3053 29.649L25.4293 29.511L22.9503 29.876L19.5943 31.541L17.0872 34.324L15.7812 37.835L15.8582 41.58L16.4203 43.375L17.6732 45.545L20.4563 48.053L23.9662 49.359L27.7122 49.282L31.1653 47.831L32.6283 46.647L34.1843 44.684L35.4913 41.173L35.4133 37.428L34.5903 35.062L33.5993 33.463L30.8163 30.956Z" fill="white" stroke="#292562" stroke-width="2" stroke-linecap="round" stroke-linejoin="round"/>
<path d="M67.5526 31.6239L64.0416 30.3179L62.1656 30.1799L59.6866 30.5449L56.3316 32.2099L53.8236 34.9929L52.5176 38.5039L52.5946 42.2489L53.1566 44.0439L54.4096 46.2149L57.1926 48.7219L60.7036 50.028L64.4486 49.9509L67.9016 48.4999L69.3646 47.3159L70.9206 45.3529L72.2276 41.8419L72.1496 38.0969L71.3266 35.731L70.3356 34.132L67.5526 31.6239Z" fill="white" stroke="#292562" stroke-width="2" stroke-linecap="round" stroke-linejoin="round"/>
<path d="M62.172 41.239L61.921 41.334L61.925 41.097L61.491 41.691L61.779 41.924L61.14 42.857L61.215 43.324L60.666 44.513L60.748 45.242L61.855 45.775L61.54 46.043L63.267 46.886L65.35 46.521L65.251 46.69L65.476 46.716L67.138 45.984L66.788 45.584L67.047 45.458L67.03 44.139L67.509 43.654L67.122 42.99L67.174 42.165L67.487 42.128L66.822 41.785L66.951 41.457L65.082 40.628L65.628 40.568L64.38 40.938L64.71 41.102L64.289 41.018L64.318 41.185L64.801 41.035L64.283 41.235L64.969 41.078L64.359 41.124L64.737 40.976L65.086 41.082L64.481 41.022L64.796 41.018L64.575 41.024L64.752 41.107L64.835 40.664L64.845 40.872L64.563 40.79L64.806 40.881L64.598 40.869L64.979 40.489L65.425 40.418" fill="white"/>
<path d="M62.172 41.239L61.921 41.334L61.925 41.097L61.491 41.691L61.779 41.924L61.14 42.857L61.215 43.324L60.666 44.513L60.748 45.242L61.855 45.775L61.54 46.043L63.267 46.886L65.35 46.521L65.251 46.69L65.476 46.716L67.138 45.984L66.788 45.584L67.047 45.458L67.03 44.139L67.509 43.654L67.122 42.99L67.174 42.165L67.487 42.128L66.822 41.785L66.951 41.457L65.082 40.628L65.628 40.568L64.38 40.938L64.71 41.102L64.289 41.018L64.318 41.185L64.801 41.035L64.283 41.235L64.969 41.078L64.359 41.124L64.737 40.976L65.086 41.082L64.481 41.022L64.796 41.018L64.575 41.024L64.752 41.107L64.835 40.664L64.845 40.872L64.563 40.79L64.806 40.881L64.598 40.869L64.979 40.489L65.425 40.418" stroke="#292562" stroke-width="5" stroke-linecap="round" stroke-linejoin="round"/>
<path d="M25.7599 40.487L25.5079 40.582L25.5129 40.345L25.0789 40.938L25.3669 41.172L24.7279 42.105L24.8019 42.572L24.2539 43.761L24.3359 44.489L25.4429 45.023L25.1279 45.291L26.8549 46.134L28.9379 45.769L28.8389 45.937L29.0639 45.963L30.7259 45.232L30.3759 44.831L30.6349 44.705L30.6179 43.387L31.0969 42.901L30.7099 42.238L30.7609 41.412L31.0749 41.376L30.4099 41.033L30.5389 40.705L28.6699 39.876L29.2149 39.816L27.9669 40.186L28.2979 40.35L27.8769 40.266L27.9059 40.433L28.3889 40.283L27.8699 40.482L28.5569 40.326L27.9469 40.372L28.3249 40.224L28.6729 40.33L28.0689 40.27L28.3839 40.266L28.1629 40.271L28.3399 40.354L28.4229 39.912L28.4329 40.12L28.1509 40.038L28.3939 40.129L28.1859 40.117L28.5669 39.737L29.0129 39.666" fill="white"/>
<path d="M25.7599 40.487L25.5079 40.582L25.5129 40.345L25.0789 40.938L25.3669 41.172L24.7279 42.105L24.8019 42.572L24.2539 43.761L24.3359 44.489L25.4429 45.023L25.1279 45.291L26.8549 46.134L28.9379 45.769L28.8389 45.937L29.0639 45.963L30.7259 45.232L30.3759 44.831L30.6349 44.705L30.6179 43.387L31.0969 42.901L30.7099 42.238L30.7609 41.412L31.0749 41.376L30.4099 41.033L30.5389 40.705L28.6699 39.876L29.2149 39.816L27.9669 40.186L28.2979 40.35L27.8769 40.266L27.9059 40.433L28.3889 40.283L27.8699 40.482L28.5569 40.326L27.9469 40.372L28.3249 40.224L28.6729 40.33L28.0689 40.27L28.3839 40.266L28.1629 40.271L28.3399 40.354L28.4229 39.912L28.4329 40.12L28.1509 40.038L28.3939 40.129L28.1859 40.117L28.5669 39.737L29.0129 39.666" stroke="#292562" stroke-width="5" stroke-linecap="round" stroke-linejoin="round"/>
<path d="M28.17 16.7681L27.631 16.7651L27.756 17.0831L27.469 17.1L27.76 17.0071L27.617 16.623L27.289 16.6511L27.332 16.985L27.588 16.9401L27.217 16.8091L27.466 17.0361L26.1 18.4711L25.464 19.467L25.393 20.241L24.83 20.327L24.885 20.7831L22.906 22.9401L22.024 23.2731L20.946 24.603L20.027 24.756L19.346 25.7031L19.039 25.6611L19.31 25.7921L18.78 25.8961L17.721 27.1121L17.071 27.2291L16.204 28.389L15.175 28.4691L15.894 28.613L15.373 28.498L14.421 29.069L14.56 29.3721L14.024 29.4371L14.369 29.538L13.045 29.681L13.501 29.894L12.394 29.749L12.522 29.511L12.072 29.3171L12.112 29.556L11.666 29.4241L12.455 29.428L11.945 29.4191L12.641 30.0491" fill="white"/>
<path d="M28.17 16.7681L27.631 16.7651L27.756 17.0831L27.469 17.1L27.76 17.0071L27.617 16.623L27.289 16.6511L27.332 16.985L27.588 16.9401L27.217 16.8091L27.466 17.0361L26.1 18.4711L25.464 19.467L25.393 20.241L24.83 20.327L24.885 20.7831L22.906 22.9401L22.024 23.2731L20.946 24.603L20.027 24.756L19.346 25.7031L19.039 25.6611L19.31 25.7921L18.78 25.8961L17.721 27.1121L17.071 27.2291L16.204 28.389L15.175 28.4691L15.894 28.613L15.373 28.498L14.421 29.069L14.56 29.3721L14.024 29.4371L14.369 29.538L13.045 29.681L13.501 29.894L12.394 29.749L12.522 29.511L12.072 29.3171L12.112 29.556L11.666 29.4241L12.455 29.428L11.945 29.4191L12.641 30.0491" stroke="#292562" stroke-width="6" stroke-linecap="round" stroke-linejoin="round"/>
<path d="M63.9907 17.9719L64.2247 18.7089L64.1587 15.627L64.5417 15.9919L64.1207 16.5249L64.7677 16.601L63.9527 17.2369L63.9297 17.6379L64.9077 17.8229L65.8357 19.8419L68.8677 22.77L69.4747 23.1649L70.5407 23.2169L70.3047 23.4169L70.7427 23.4869L71.0067 24.0049L72.0487 24.283L72.5967 25.1809L73.6597 25.1849L72.9047 25.2009L73.4427 25.1459L75.0337 26.1499L75.4707 25.9709L74.9957 26.2819L76.3147 26.5429L76.1347 26.8659L77.7197 26.541L77.0927 26.7679L77.5667 26.5729L77.3247 26.9199L77.7537 26.6349L77.1357 26.6669L78.1097 26.5659L77.1537 26.7869L78.6417 26.0449L77.8887 26.4229L78.2477 26.408L78.3637 26.2079L77.7037 26.1759L77.4387 26.4569" fill="white"/>
<path d="M63.9907 17.9719L64.2247 18.7089L64.1587 15.627L64.5417 15.9919L64.1207 16.5249L64.7677 16.601L63.9527 17.2369L63.9297 17.6379L64.9077 17.8229L65.8357 19.8419L68.8677 22.77L69.4747 23.1649L70.5407 23.2169L70.3047 23.4169L70.7427 23.4869L71.0067 24.0049L72.0487 24.283L72.5967 25.1809L73.6597 25.1849L72.9047 25.2009L73.4427 25.1459L75.0337 26.1499L75.4707 25.9709L74.9957 26.2819L76.3147 26.5429L76.1347 26.8659L77.7197 26.541L77.0927 26.7679L77.5667 26.5729L77.3247 26.9199L77.7537 26.6349L77.1357 26.6669L78.1097 26.5659L77.1537 26.7869L78.6417 26.0449L77.8887 26.4229L78.2477 26.408L78.3637 26.2079L77.7037 26.1759L77.4387 26.4569" stroke="#292562" stroke-width="6" stroke-linecap="round" stroke-linejoin="round"/>
<path d="M60.8048 71.9779L60.6888 71.7319L58.6738 68.9799L55.2558 65.9869L52.2608 64.3539L49.0138 63.3109L44.4888 62.8989L41.1068 63.338L37.8658 64.403L34.8818 66.0569L32.2618 68.2399L30.0958 70.8759L29.8828 71.2659" fill="white"/>
<path d="M60.8048 71.9779L60.6888 71.7319L58.6738 68.9799L55.2558 65.9869L52.2608 64.3539L49.0138 63.3109L44.4888 62.8989L41.1068 63.338L37.8658 64.403L34.8818 66.0569L32.2618 68.2399L30.0958 70.8759L29.8828 71.2659" stroke="#292562" stroke-width="2" stroke-linecap="round" stroke-linejoin="round"/>
<path d="M61.9199 71.3939L61.4669 70.4399L59.4529 67.687L56.0349 64.6949L53.0399 63.062L49.7919 62.0189L45.2679 61.6069L41.8849 62.0449L38.6449 63.1109L35.6609 64.7639L33.0399 66.9479L30.8749 69.5829L29.9629 71.2549" fill="white"/>
<path d="M61.9199 71.3939L61.4669 70.4399L59.4529 67.687L56.0349 64.6949L53.0399 63.062L49.7919 62.0189L45.2679 61.6069L41.8849 62.0449L38.6449 63.1109L35.6609 64.7639L33.0399 66.9479L30.8749 69.5829L29.9629 71.2549" stroke="#292562" stroke-width="2" stroke-linecap="round" stroke-linejoin="round"/>
</svg>
