<svg width="91" height="91" viewBox="0 0 91 91" fill="none" xmlns="http://www.w3.org/2000/svg">
<path d="M72.4802 10.736L65.5232 6.32803L57.8632 3.30203L49.7712 1.76501L41.5352 1.77103L33.4462 3.32101L28.2772 5.18604L23.3832 7.68503L16.7232 12.531L11.0902 18.539L6.68222 25.496L4.50424 30.541L2.97522 35.82L1.94922 43.991L2.47223 52.211L4.52621 60.187L8.03923 67.636L12.8852 74.296L18.8932 79.929L23.4412 83.014L28.3392 85.505L36.1742 88.044L44.3462 89.07L52.5652 88.547L60.5412 86.493L67.9902 82.98L74.6502 78.134L80.2832 72.126L84.6912 65.169L87.7172 57.509L89.2542 49.417L89.2482 41.181L88.3842 35.754L86.8472 30.478L83.3342 23.029L78.4882 16.369L72.4802 10.736Z" fill="white" stroke="#292562" stroke-width="2" stroke-linecap="round" stroke-linejoin="round"/>
<path d="M31.2598 60.561L31.4018 62.908L32.2418 66.214L33.6868 69.304L35.6858 72.068L39.0858 75.081L42.0708 76.731L45.3128 77.793L49.8348 78.232L53.2198 77.813L56.4668 76.767L59.4598 75.131L62.0938 72.963L64.2738 70.339L65.9248 67.354L66.9868 64.113L67.2128 62.36" fill="white"/>
<path d="M31.2598 60.561L31.4018 62.908L32.2418 66.214L33.6868 69.304L35.6858 72.068L39.0858 75.081L42.0708 76.731L45.3128 77.793L49.8348 78.232L53.2198 77.813L56.4668 76.767L59.4598 75.131L62.0938 72.963L64.2738 70.339L65.9248 67.354L66.9868 64.113L67.2128 62.36" stroke="#292562" stroke-width="2" stroke-linecap="round" stroke-linejoin="round"/>
<path d="M32.7598 60.1951L34.4878 62.5861L38.2578 65.9261L41.5678 67.7561L45.1618 68.9331L50.1748 69.4191L53.9278 68.9551L57.5278 67.7951L60.8468 65.9811L63.7668 63.5771L66.1838 60.6691L66.7288 59.6841" fill="white"/>
<path d="M32.7598 60.1951L34.4878 62.5861L38.2578 65.9261L41.5678 67.7561L45.1618 68.9331L50.1748 69.4191L53.9278 68.9551L57.5278 67.7951L60.8468 65.9811L63.7668 63.5771L66.1838 60.6691L66.7288 59.6841" stroke="#292562" stroke-width="2.25" stroke-linecap="round" stroke-linejoin="round"/>
<path d="M60.4212 44.072L57.0872 44.738L57.3532 45.12L58.3752 44.037L58.1702 43.679L58.2262 43.975L57.9302 44.004L58.3292 43.867L57.4702 42.932L57.7932 42.676L56.6722 42.029L56.9072 41.943L56.8682 41.549L56.5082 40.557L54.8182 37.653L53.3842 36.256L52.7652 34.933L52.1332 30.534L51.4492 28.408L52.4552 24.804L52.9602 23.962L53.7772 23.59L53.5642 23.46L53.9652 22.972L54.9332 22.188L56.0062 22.011L56.2852 21.547L57.5302 21.528L59.0182 21.015L61.1462 21.789L60.9122 21.775L61.0612 21.976L62.0212 22.417L61.6502 22.682L63.0022 23.261L64.2492 24.748L64.7032 24.929L64.4422 25.06L65.1802 25.593L64.7282 25.774L65.5432 25.876L65.3262 26.567L65.7602 27.027L65.9122 28.097L65.6352 28.495L66.1282 29.474L66.0452 30.112L66.3232 30.244L65.8862 30.133L66.2362 30.043L65.8652 29.88L66.4292 29.823L66.1172 29.867L66.2522 30.154L65.9762 30.179L65.7282 30.937L66.0082 31.217L65.3132 31.091L66.2462 31.084L65.4442 31.445L65.6802 31.822L65.9622 31.79L65.6072 32.673L65.7282 32.843L65.7522 32.497L66.1582 32.59L65.3502 32.565L65.8892 32.454L65.5532 32.164L65.8682 32.133L66.2162 31.334" fill="white"/>
<path d="M60.4212 44.072L57.0872 44.738L57.3532 45.12L58.3752 44.037L58.1702 43.679L58.2262 43.975L57.9302 44.004L58.3292 43.867L57.4702 42.932L57.7932 42.676L56.6722 42.029L56.9072 41.943L56.8682 41.549L56.5082 40.557L54.8182 37.653L53.3842 36.256L52.7652 34.933L52.1332 30.534L51.4492 28.408L52.4552 24.804L52.9602 23.962L53.7772 23.59L53.5642 23.46L53.9652 22.972L54.9332 22.188L56.0062 22.011L56.2852 21.547L57.5302 21.528L59.0182 21.015L61.1462 21.789L60.9122 21.775L61.0612 21.976L62.0212 22.417L61.6502 22.682L63.0022 23.261L64.2492 24.748L64.7032 24.929L64.4422 25.06L65.1802 25.593L64.7282 25.774L65.5432 25.876L65.3262 26.567L65.7602 27.027L65.9122 28.097L65.6352 28.495L66.1282 29.474L66.0452 30.112L66.3232 30.244L65.8862 30.133L66.2362 30.043L65.8652 29.88L66.4292 29.823L66.1172 29.867L66.2522 30.154L65.9762 30.179L65.7282 30.937L66.0082 31.217L65.3132 31.091L66.2462 31.084L65.4442 31.445L65.6802 31.822L65.9622 31.79L65.6072 32.673L65.7282 32.843L65.7522 32.497L66.1582 32.59L65.3502 32.565L65.8892 32.454L65.5532 32.164L65.8682 32.133L66.2162 31.334" stroke="#292562" stroke-width="1.75" stroke-linecap="round" stroke-linejoin="round"/>
<path d="M68.0345 32.889L68.2245 32.577L67.9455 32.664L68.1865 32.51L67.6385 32.039L67.7905 31.598L67.4075 31.717L67.6085 31.727L67.4435 31.132L67.8345 30.844L67.7545 30.499L68.2775 30.296L68.1805 29.786L68.4645 29.812L68.5945 29.05L70.1045 27.902L70.2645 27.491L71.0245 27.495L71.2735 27.244L70.8135 27.142L71.9345 27.176L72.8915 26.631L75.6055 27.185L75.4115 27.26L76.4325 28.11L77.3395 28.427L77.0025 28.633L78.1465 29.8L77.7255 29.844L78.6885 30.269L79.0855 31.236L78.9215 31.899L79.5775 32.233L79.1045 32.554L79.5335 33.331L79.1045 34.212L79.4285 34.372L79.0985 34.495L78.7195 35.886L77.8845 37.099L77.7275 37.725L77.9495 38.077L77.2045 38.409L77.2525 38.827L76.6895 39.242L76.6035 39.662L75.3735 40.491L75.4535 41.171L73.5285 42.224L73.3725 42.394L73.6285 42.763L72.5505 42.809L71.9885 43.483L70.8435 43.68L69.2905 44.854L68.6465 44.921L68.6655 45.309L67.0315 45.587L67.2435 45.776L65.8085 46.364L65.9605 46.472L65.7405 46.534L66.2335 46.555L66.0815 46.689L65.0625 46.723L65.1385 46.939L64.4075 47.055L64.5565 47.204L64.1455 47.474L63.0395 47.701L63.3425 47.857L62.3435 47.811L62.5295 47.931L62.0695 47.938L62.0855 48.228L62.5285 48.073L61.7085 48.258L61.5395 47.982L61.8025 48.138L60.5255 48.579L60.8195 48.743L60.3635 49.015L60.2715 48.824L60.4855 48.87L60.2535 49.091L60.1135 48.858L60.3755 49.037L59.4035 49.032L59.3835 49.386L58.8485 49.335L59.1465 49.601L58.6055 49.626L58.8585 49.659L58.7145 49.12L59.0795 48.87" fill="white"/>
<path d="M68.0345 32.889L68.2245 32.577L67.9455 32.664L68.1865 32.51L67.6385 32.039L67.7905 31.598L67.4075 31.717L67.6085 31.727L67.4435 31.132L67.8345 30.844L67.7545 30.499L68.2775 30.296L68.1805 29.786L68.4645 29.812L68.5945 29.05L70.1045 27.902L70.2645 27.491L71.0245 27.495L71.2735 27.244L70.8135 27.142L71.9345 27.176L72.8915 26.631L75.6055 27.185L75.4115 27.26L76.4325 28.11L77.3395 28.427L77.0025 28.633L78.1465 29.8L77.7255 29.844L78.6885 30.269L79.0855 31.236L78.9215 31.899L79.5775 32.233L79.1045 32.554L79.5335 33.331L79.1045 34.212L79.4285 34.372L79.0985 34.495L78.7195 35.886L77.8845 37.099L77.7275 37.725L77.9495 38.077L77.2045 38.409L77.2525 38.827L76.6895 39.242L76.6035 39.662L75.3735 40.491L75.4535 41.171L73.5285 42.224L73.3725 42.394L73.6285 42.763L72.5505 42.809L71.9885 43.483L70.8435 43.68L69.2905 44.854L68.6465 44.921L68.6655 45.309L67.0315 45.587L67.2435 45.776L65.8085 46.364L65.9605 46.472L65.7405 46.534L66.2335 46.555L66.0815 46.689L65.0625 46.723L65.1385 46.939L64.4075 47.055L64.5565 47.204L64.1455 47.474L63.0395 47.701L63.3425 47.857L62.3435 47.811L62.5295 47.931L62.0695 47.938L62.0855 48.228L62.5285 48.073L61.7085 48.258L61.5395 47.982L61.8025 48.138L60.5255 48.579L60.8195 48.743L60.3635 49.015L60.2715 48.824L60.4855 48.87L60.2535 49.091L60.1135 48.858L60.3755 49.037L59.4035 49.032L59.3835 49.386L58.8485 49.335L59.1465 49.601L58.6055 49.626L58.8585 49.659L58.7145 49.12L59.0795 48.87" stroke="#292562" stroke-width="1.75" stroke-linecap="round" stroke-linejoin="round"/>
<path d="M31.3072 45.6351L28.5842 47.6701L28.9882 47.9011L29.4452 46.4831L29.1062 46.2491L29.2842 46.4921L29.0282 46.6451L29.3302 46.3501L28.1522 45.8751L28.3342 45.5061L27.0432 45.4041L27.2182 45.2251L27.0132 44.8861L26.2622 44.1461L23.4862 42.2521L21.5902 41.6081L20.4632 40.6801L17.9992 36.9821L16.4672 35.3571L15.8242 31.6701L15.9172 30.6931L16.4952 30.0061L16.2462 29.9811L16.3982 29.3671L16.9342 28.2421L17.8272 27.6211L17.8792 27.0831L18.9942 26.5301L20.1172 25.4261L22.3702 25.2091L22.1532 25.2971L22.3752 25.4141L23.4312 25.3991L23.2102 25.7981L24.6792 25.7391L26.4452 26.5451L26.9332 26.5131L26.7542 26.7431L27.6492 26.9071L27.3192 27.2641L28.0992 27.0051L28.2002 27.7231L28.7902 27.9511L29.3872 28.8521L29.3092 29.3301L30.1752 30.0021L30.3752 30.6131L30.6832 30.6121L30.2412 30.7001L30.5182 30.4681L30.1122 30.4811L30.5972 30.1871L30.3342 30.3611L30.5802 30.5621L30.3412 30.7041L30.4442 31.4941L30.8172 31.6261L30.1362 31.8121L30.9752 31.4041L30.4062 32.0751L30.7812 32.3141L31.0232 32.1641L31.0822 33.1141L31.2642 33.2151L31.1372 32.8921L31.5432 32.8011L30.8032 33.1261L31.2422 32.7941L30.8132 32.6771L31.0842 32.5131L31.0552 31.6431" fill="white"/>
<path d="M31.3072 45.6351L28.5842 47.6701L28.9882 47.9011L29.4452 46.4831L29.1062 46.2491L29.2842 46.4921L29.0282 46.6451L29.3302 46.3501L28.1522 45.8751L28.3342 45.5061L27.0432 45.4041L27.2182 45.2251L27.0132 44.8861L26.2622 44.1461L23.4862 42.2521L21.5902 41.6081L20.4632 40.6801L17.9992 36.9821L16.4672 35.3571L15.8242 31.6701L15.9172 30.6931L16.4952 30.0061L16.2462 29.9811L16.3982 29.3671L16.9342 28.2421L17.8272 27.6211L17.8792 27.0831L18.9942 26.5301L20.1172 25.4261L22.3702 25.2091L22.1532 25.2971L22.3752 25.4141L23.4312 25.3991L23.2102 25.7981L24.6792 25.7391L26.4452 26.5451L26.9332 26.5131L26.7542 26.7431L27.6492 26.9071L27.3192 27.2641L28.0992 27.0051L28.2002 27.7231L28.7902 27.9511L29.3872 28.8521L29.3092 29.3301L30.1752 30.0021L30.3752 30.6131L30.6832 30.6121L30.2412 30.7001L30.5182 30.4681L30.1122 30.4811L30.5972 30.1871L30.3342 30.3611L30.5802 30.5621L30.3412 30.7041L30.4442 31.4941L30.8172 31.6261L30.1362 31.8121L30.9752 31.4041L30.4062 32.0751L30.7812 32.3141L31.0232 32.1641L31.0822 33.1141L31.2642 33.2151L31.1372 32.8921L31.5432 32.8011L30.8032 33.1261L31.2422 32.7941L30.8132 32.6771L31.0842 32.5131L31.0552 31.6431" stroke="#292562" stroke-width="1.75" stroke-linecap="round" stroke-linejoin="round"/>
<path d="M33.3645 32.2631L33.4015 31.9001L33.1875 32.0991L33.3395 31.8561L32.6415 31.6671L32.5895 31.2031L32.2945 31.4761L32.4805 31.3981L32.0745 30.9321L32.3035 30.5031L32.0835 30.2271L32.4685 29.8181L32.1615 29.4001L32.4285 29.3011L32.2175 28.5571L33.0865 26.8711L33.0535 26.4311L33.7425 26.1071L33.8595 25.7741L33.3995 25.8801L34.4265 25.4271L35.0555 24.5241L37.7445 23.8561L37.6015 24.0071L38.8885 24.3351L39.8435 24.2311L39.6275 24.5621L41.1635 25.1231L40.8015 25.3441L41.8535 25.3131L42.6275 26.0151L42.7655 26.6841L43.5015 26.7031L43.2125 27.1971L43.9345 27.7131L43.9265 28.6931L44.2875 28.6981L44.0425 28.9511L44.2995 30.3701L44.0675 31.8241L44.1955 32.4571L44.5475 32.6791L44.0175 33.2991L44.2415 33.6561L43.9115 34.2731L44.0145 34.6891L43.2615 35.9671L43.6255 36.5461L42.3415 38.3251L42.2735 38.5461L42.6635 38.7681L41.7095 39.2741L41.4935 40.1241L40.5445 40.7951L39.6485 42.5231L39.0955 42.8611L39.2795 43.2021L37.9245 44.1571L38.1975 44.2361L37.1545 45.3851L37.3385 45.4171L37.1665 45.5671L37.6205 45.3741L37.5415 45.5601L36.6365 46.0291L36.7975 46.1921L36.1875 46.6111L36.3865 46.6821L36.1315 47.1021L35.2305 47.7831L35.5715 47.7931L34.6505 48.1821L34.8685 48.2101L34.4575 48.4151L34.5965 48.6701L34.9305 48.3391L34.2695 48.8591L33.9985 48.6821L34.3025 48.7101L33.3385 49.6581L33.6755 49.6791L33.3805 50.1201L33.2155 49.9891L33.4285 49.9381L33.3145 50.2371L33.0875 50.0871L33.4015 50.1351L32.5215 50.5491L32.6555 50.8781L32.1505 51.0621L32.5345 51.1741L32.0565 51.4291L32.2995 51.3501L31.9375 50.9251L32.1595 50.5431" fill="white"/>
<path d="M33.3645 32.2631L33.4015 31.9001L33.1875 32.0991L33.3395 31.8561L32.6415 31.6671L32.5895 31.2031L32.2945 31.4761L32.4805 31.3981L32.0745 30.9321L32.3035 30.5031L32.0835 30.2271L32.4685 29.8181L32.1615 29.4001L32.4285 29.3011L32.2175 28.5571L33.0865 26.8711L33.0535 26.4311L33.7425 26.1071L33.8595 25.7741L33.3995 25.8801L34.4265 25.4271L35.0555 24.5241L37.7445 23.8561L37.6015 24.0071L38.8885 24.3351L39.8435 24.2311L39.6275 24.5621L41.1635 25.1231L40.8015 25.3441L41.8535 25.3131L42.6275 26.0151L42.7655 26.6841L43.5015 26.7031L43.2125 27.1971L43.9345 27.7131L43.9265 28.6931L44.2875 28.6981L44.0425 28.9511L44.2995 30.3701L44.0675 31.8241L44.1955 32.4571L44.5475 32.6791L44.0175 33.2991L44.2415 33.6561L43.9115 34.2731L44.0145 34.6891L43.2615 35.9671L43.6255 36.5461L42.3415 38.3251L42.2735 38.5461L42.6635 38.7681L41.7095 39.2741L41.4935 40.1241L40.5445 40.7951L39.6485 42.5231L39.0955 42.8611L39.2795 43.2021L37.9245 44.1571L38.1975 44.2361L37.1545 45.3851L37.3385 45.4171L37.1665 45.5671L37.6205 45.3741L37.5415 45.5601L36.6365 46.0291L36.7975 46.1921L36.1875 46.6111L36.3865 46.6821L36.1315 47.1021L35.2305 47.7831L35.5715 47.7931L34.6505 48.1821L34.8685 48.2101L34.4575 48.4151L34.5965 48.6701L34.9305 48.3391L34.2695 48.8591L33.9985 48.6821L34.3025 48.7101L33.3385 49.6581L33.6755 49.6791L33.3805 50.1201L33.2155 49.9891L33.4285 49.9381L33.3145 50.2371L33.0875 50.0871L33.4015 50.1351L32.5215 50.5491L32.6555 50.8781L32.1505 51.0621L32.5345 51.1741L32.0565 51.4291L32.2995 51.3501L31.9375 50.9251L32.1595 50.5431" stroke="#292562" stroke-width="1.75" stroke-linecap="round" stroke-linejoin="round"/>
<path d="M32.2266 40.0601L32.2876 40.872L32.9756 41.419" fill="white"/>
<path d="M32.2266 40.0601L32.2876 40.872L32.9756 41.419" stroke="#292562" stroke-width="6" stroke-linecap="round" stroke-linejoin="round"/>
<path d="M39.3343 35.7201L39.6273 35.6631L39.1663 35.2041L38.7323 35.2021L39.1693 35.1751L38.9453 34.7151L39.7143 34.3111L38.6913 34.0121L39.2483 34.0221L38.5753 33.4751L38.9723 33.3791L38.8383 33.2221L39.9073 33.3151L38.5433 33.1081L39.3043 33.2021L38.5753 32.7021L38.4693 32.0241L37.7193 31.6411L37.4653 30.5201L37.7643 30.4291L37.1083 30.6601L36.1293 30.5021L34.6953 32.5461L33.9813 35.4171L34.5183 35.8571L33.9043 37.2101L34.1613 37.7471L34.0303 38.9121L34.5263 40.2321" fill="white"/>
<path d="M39.3343 35.7201L39.6273 35.6631L39.1663 35.2041L38.7323 35.2021L39.1693 35.1751L38.9453 34.7151L39.7143 34.3111L38.6913 34.0121L39.2483 34.0221L38.5753 33.4751L38.9723 33.3791L38.8383 33.2221L39.9073 33.3151L38.5433 33.1081L39.3043 33.2021L38.5753 32.7021L38.4693 32.0241L37.7193 31.6411L37.4653 30.5201L37.7643 30.4291L37.1083 30.6601L36.1293 30.5021L34.6953 32.5461L33.9813 35.4171L34.5183 35.8571L33.9043 37.2101L34.1613 37.7471L34.0303 38.9121L34.5263 40.2321" stroke="#292562" stroke-width="6" stroke-linecap="round" stroke-linejoin="round"/>
<path d="M41.6892 33.9011L40.2762 33.2561L40.0712 33.0001L40.6392 32.9801L39.2072 32.5491L39.0542 32.3601L39.3012 32.2891L38.7282 32.0911L38.6672 31.6251L37.7142 31.6481L38.1062 31.5781L37.6962 31.0171L38.0712 31.0661L37.8022 31.1481L38.1042 31.6681L37.7662 32.2871L38.3452 34.1021L37.5332 40.5741L37.8872 43.0221" fill="white"/>
<path d="M41.6892 33.9011L40.2762 33.2561L40.0712 33.0001L40.6392 32.9801L39.2072 32.5491L39.0542 32.3601L39.3012 32.2891L38.7282 32.0911L38.6672 31.6251L37.7142 31.6481L38.1062 31.5781L37.6962 31.0171L38.0712 31.0661L37.8022 31.1481L38.1042 31.6681L37.7662 32.2871L38.3452 34.1021L37.5332 40.5741L37.8872 43.0221" stroke="#292562" stroke-width="6" stroke-linecap="round" stroke-linejoin="round"/>
<path d="M39.0393 32.358L39.9983 30.895L39.6153 30.235L39.9953 30.208L39.1733 30.789L38.4403 32.54L37.5013 33.815L37.1133 37.121L37.3053 38.654L37.7523 39.448" fill="white"/>
<path d="M39.0393 32.358L39.9983 30.895L39.6153 30.235L39.9953 30.208L39.1733 30.789L38.4403 32.54L37.5013 33.815L37.1133 37.121L37.3053 38.654L37.7523 39.448" stroke="#292562" stroke-width="6" stroke-linecap="round" stroke-linejoin="round"/>
<path d="M41.1467 30.22L39.6477 30.186L40.0057 29.632L39.8147 28.526L40.0917 28.217L39.5077 27.901L39.6577 28.312L39.4307 28.391L38.1347 28.214L37.2227 28.469L36.3167 29.655L35.5887 31.092L34.2617 35.768L34.4507 40.669" fill="white"/>
<path d="M41.1467 30.22L39.6477 30.186L40.0057 29.632L39.8147 28.526L40.0917 28.217L39.5077 27.901L39.6577 28.312L39.4307 28.391L38.1347 28.214L37.2227 28.469L36.3167 29.655L35.5887 31.092L34.2617 35.768L34.4507 40.669" stroke="#292562" stroke-width="6" stroke-linecap="round" stroke-linejoin="round"/>
<path d="M26.9332 32.6491L26.7462 32.2571L25.9992 32.0261L24.9052 32.2441L23.8792 31.8201L22.0322 31.9681L22.2512 31.9281L21.8222 31.5421L20.9462 31.2151L21.2952 31.6171L20.1832 31.6761L20.5362 31.8011L20.1152 32.6711L20.6572 33.7521L24.2112 36.6961L26.2422 37.4561L28.8222 37.5101" fill="white"/>
<path d="M26.9332 32.6491L26.7462 32.2571L25.9992 32.0261L24.9052 32.2441L23.8792 31.8201L22.0322 31.9681L22.2512 31.9281L21.8222 31.5421L20.9462 31.2151L21.2952 31.6171L20.1832 31.6761L20.5362 31.8011L20.1152 32.6711L20.6572 33.7521L24.2112 36.6961L26.2422 37.4561L28.8222 37.5101" stroke="#292562" stroke-width="6" stroke-linecap="round" stroke-linejoin="round"/>
<path d="M28.9275 32.115L26.6585 30.42L25.6055 30.234L25.2675 30.365L25.4995 30.63L24.0545 31.461L23.0395 33.048L21.7335 34.332L21.5625 39.746L22.1245 41.661L23.1265 42.295L26.8765 42.858" fill="white"/>
<path d="M28.9275 32.115L26.6585 30.42L25.6055 30.234L25.2675 30.365L25.4995 30.63L24.0545 31.461L23.0395 33.048L21.7335 34.332L21.5625 39.746L22.1245 41.661L23.1265 42.295L26.8765 42.858" stroke="#292562" stroke-width="6" stroke-linecap="round" stroke-linejoin="round"/>
<path d="M29.3359 37.402L29.9779 37.2631L29.5969 38.364L30.6449 41.356L31.3219 42.192L33.8389 44.8711L37.1589 46.566" fill="white"/>
<path d="M29.3359 37.402L29.9779 37.2631L29.5969 38.364L30.6449 41.356L31.3219 42.192L33.8389 44.8711L37.1589 46.566" stroke="#292562" stroke-width="6" stroke-linecap="round" stroke-linejoin="round"/>
<path d="M61.6589 29.0121L59.9709 29.7511L59.2129 32.4741L60.0469 34.6511L61.2559 35.7701L62.1279 37.3661L63.2719 38.5241" fill="white"/>
<path d="M61.6589 29.0121L59.9709 29.7511L59.2129 32.4741L60.0469 34.6511L61.2559 35.7701L62.1279 37.3661L63.2719 38.5241" stroke="#292562" stroke-width="6" stroke-linecap="round" stroke-linejoin="round"/>
<path d="M61.0226 31.016L60.3405 30.049L59.0096 29.916L58.3096 29.129L56.9845 30.108L55.8105 32.71L56.2446 37.463" fill="white"/>
<path d="M61.0226 31.016L60.3405 30.049L59.0096 29.916L58.3096 29.129L56.9845 30.108L55.8105 32.71L56.2446 37.463" stroke="#292562" stroke-width="6" stroke-linecap="round" stroke-linejoin="round"/>
<path d="M62.2839 27.043L61.5399 27.07L60.9469 26.256L58.7219 26.228L58.3769 26.862L57.1949 27.155L56.5569 28.075L55.8789 30.223L55.9139 32.257L57.4779 35.643" fill="white"/>
<path d="M62.2839 27.043L61.5399 27.07L60.9469 26.256L58.7219 26.228L58.3769 26.862L57.1949 27.155L56.5569 28.075L55.8789 30.223L55.9139 32.257L57.4779 35.643" stroke="#292562" stroke-width="6" stroke-linecap="round" stroke-linejoin="round"/>
<path d="M71.8398 35.864L72.0908 36.248L71.1058 38.583L69.9938 39.859L68.6968 42.597L67.7988 43.716" fill="white"/>
<path d="M71.8398 35.864L72.0908 36.248L71.1058 38.583L69.9938 39.859L68.6968 42.597L67.7988 43.716" stroke="#292562" stroke-width="6" stroke-linecap="round" stroke-linejoin="round"/>
<path d="M75.3747 34.642L75.0877 34.773L74.8267 34.286L75.0707 34.606L75.7217 34.266L77.9927 34.567L77.7757 35.076L78.1037 35.804L77.9487 36.666L74.5957 39.924L72.8027 40.968" fill="white"/>
<path d="M75.3747 34.642L75.0877 34.773L74.8267 34.286L75.0707 34.606L75.7217 34.266L77.9927 34.567L77.7757 35.076L78.1037 35.804L77.9487 36.666L74.5957 39.924L72.8027 40.968" stroke="#292562" stroke-width="6" stroke-linecap="round" stroke-linejoin="round"/>
<path d="M78.1096 34.037L77.5786 34.0551L77.8136 34.0461L77.5586 33.7591L75.9546 33.8391L75.1146 33.0641L71.9626 32.415L69.6186 33.0911L67.7616 34.6281L67.0156 38.333" fill="white"/>
<path d="M78.1096 34.037L77.5786 34.0551L77.8136 34.0461L77.5586 33.7591L75.9546 33.8391L75.1146 33.0641L71.9626 32.415L69.6186 33.0911L67.7616 34.6281L67.0156 38.333" stroke="#292562" stroke-width="6" stroke-linecap="round" stroke-linejoin="round"/>
<path d="M79.2971 34.2031L78.8461 33.8431L78.8021 33.3451L79.4911 32.5531L78.8741 31.8171L77.0931 31.5481L73.8371 32.8381L71.6901 35.0581L69.3991 36.5521L67.2141 40.6591L66.9141 43.2481" fill="white"/>
<path d="M79.2971 34.2031L78.8461 33.8431L78.8021 33.3451L79.4911 32.5531L78.8741 31.8171L77.0931 31.5481L73.8371 32.8381L71.6901 35.0581L69.3991 36.5521L67.2141 40.6591L66.9141 43.2481" stroke="#292562" stroke-width="6" stroke-linecap="round" stroke-linejoin="round"/>
<path d="M67.1824 36.3201L66.2794 37.0701L65.5644 37.2191L63.6694 39.4821L63.2324 43.3671L63.8804 44.2021L64.8054 44.3721" fill="white"/>
<path d="M67.1824 36.3201L66.2794 37.0701L65.5644 37.2191L63.6694 39.4821L63.2324 43.3671L63.8804 44.2021L64.8054 44.3721" stroke="#292562" stroke-width="6" stroke-linecap="round" stroke-linejoin="round"/>
<path d="M63.7402 46.27L64.2522 46.342L64.1132 45.466L63.6172 45.476L64.0202 45.306" fill="white"/>
<path d="M63.7402 46.27L64.2522 46.342L64.1132 45.466L63.6172 45.476L64.0202 45.306" stroke="#292562" stroke-width="6" stroke-linecap="round" stroke-linejoin="round"/>
<path d="M61.4115 40.0851L61.6655 39.0921L61.3315 38.6371L60.7205 38.5211L60.3575 38.9331L60.6365 38.9271L60.1895 38.7281L60.5985 38.7671L60.7955 41.0641L61.3055 41.9171L61.1805 47.1891L61.8995 46.9431" fill="white"/>
<path d="M61.4115 40.0851L61.6655 39.0921L61.3315 38.6371L60.7205 38.5211L60.3575 38.9331L60.6365 38.9271L60.1895 38.7281L60.5985 38.7671L60.7955 41.0641L61.3055 41.9171L61.1805 47.1891L61.8995 46.9431" stroke="#292562" stroke-width="2" stroke-linecap="round" stroke-linejoin="round"/>
<path d="M63.848 40.9661L63.622 40.7601L63.853 39.8721L63.251 40.0681L62.332 43.0831L63.708 44.5781L63.288 45.9561L64.17 46.0211L64.698 46.4141L64.29 46.5731L64.505 46.8681L65.043 46.9261L64.045 47.0471L64.202 47.9201L64.427 47.1451L63.439 45.6241L64.036 44.5151L63.572 43.8831L63.327 41.3331L63.926 37.8701L63.352 35.7521L63.499 34.0601L63.066 33.0841L62.366 33.3861L62.929 34.0001L63.166 34.9401L62.252 36.0291L62.18 36.6311L62.891 38.1551L62.421 39.8961L62.779 41.8701L63.64 41.8731L62.963 41.7371L63.26 41.7671L63.236 41.4121L62.539 40.1781L62.624 38.2091L61.654 35.8041L61.391 33.5061L61.2 33.2471L61.249 33.7981L60.957 34.0711L61.488 35.0651L61.494 39.9331L62.138 41.9721L62.207 43.7091L62.567 42.1211L62.298 40.4221" fill="white"/>
<path d="M63.848 40.9661L63.622 40.7601L63.853 39.8721L63.251 40.0681L62.332 43.0831L63.708 44.5781L63.288 45.9561L64.17 46.0211L64.698 46.4141L64.29 46.5731L64.505 46.8681L65.043 46.9261L64.045 47.0471L64.202 47.9201L64.427 47.1451L63.439 45.6241L64.036 44.5151L63.572 43.8831L63.327 41.3331L63.926 37.8701L63.352 35.7521L63.499 34.0601L63.066 33.0841L62.366 33.3861L62.929 34.0001L63.166 34.9401L62.252 36.0291L62.18 36.6311L62.891 38.1551L62.421 39.8961L62.779 41.8701L63.64 41.8731L62.963 41.7371L63.26 41.7671L63.236 41.4121L62.539 40.1781L62.624 38.2091L61.654 35.8041L61.391 33.5061L61.2 33.2471L61.249 33.7981L60.957 34.0711L61.488 35.0651L61.494 39.9331L62.138 41.9721L62.207 43.7091L62.567 42.1211L62.298 40.4221" stroke="#292562" stroke-width="2" stroke-linecap="round" stroke-linejoin="round"/>
<path d="M63.402 46.9441L60.782 46.5781L61.372 46.6181L61.509 47.3511L60.088 46.1211L57.485 41.7531L56.887 39.9211L56.418 37.6651L56.735 35.1681L57.646 32.9991L59.689 31.3441" fill="white"/>
<path d="M63.402 46.9441L60.782 46.5781L61.372 46.6181L61.509 47.3511L60.088 46.1211L57.485 41.7531L56.887 39.9211L56.418 37.6651L56.735 35.1681L57.646 32.9991L59.689 31.3441" stroke="#292562" stroke-width="2" stroke-linecap="round" stroke-linejoin="round"/>
<path d="M64.3866 45.3641L60.9076 44.7791L61.3936 44.4281L59.5326 43.2811L59.0586 41.3031L59.6296 36.8011L60.5446 33.7841L61.2826 32.8751L61.1446 33.4741L61.7476 34.6851L62.1856 37.7381L61.6416 39.8511L61.9556 41.0441L62.0106 40.7261L61.6026 40.7361L62.5596 39.9771L63.5736 36.7961L65.2816 34.2591L64.6326 34.7851L64.8336 35.6711L63.2926 38.6091L62.6016 40.8511L63.2896 41.8971L63.1626 34.0751L63.7366 32.0211" fill="white"/>
<path d="M64.3866 45.3641L60.9076 44.7791L61.3936 44.4281L59.5326 43.2811L59.0586 41.3031L59.6296 36.8011L60.5446 33.7841L61.2826 32.8751L61.1446 33.4741L61.7476 34.6851L62.1856 37.7381L61.6416 39.8511L61.9556 41.0441L62.0106 40.7261L61.6026 40.7361L62.5596 39.9771L63.5736 36.7961L65.2816 34.2591L64.6326 34.7851L64.8336 35.6711L63.2926 38.6091L62.6016 40.8511L63.2896 41.8971L63.1626 34.0751L63.7366 32.0211" stroke="#292562" stroke-width="2" stroke-linecap="round" stroke-linejoin="round"/>
<path d="M64.4141 46.2741L61.4011 46.1201L61.9511 46.6761L61.6691 48.1301L61.9891 48.0321L60.9751 45.8421L60.5161 41.3781L59.4711 36.8851L58.6441 34.8651L57.5371 33.3891L57.3391 31.4951L54.9181 28.8151L55.1371 28.3241L54.6641 27.0731L54.7691 25.7611L55.3091 24.9691L56.8801 24.2731L56.9061 23.9711L58.6941 24.4271L58.7611 24.2061L59.5721 24.2831L60.3671 24.8901L61.7521 26.9721L62.2981 29.0761L63.7321 32.4261L66.3941 36.6951L66.5631 38.3071" fill="white"/>
<path d="M64.4141 46.2741L61.4011 46.1201L61.9511 46.6761L61.6691 48.1301L61.9891 48.0321L60.9751 45.8421L60.5161 41.3781L59.4711 36.8851L58.6441 34.8651L57.5371 33.3891L57.3391 31.4951L54.9181 28.8151L55.1371 28.3241L54.6641 27.0731L54.7691 25.7611L55.3091 24.9691L56.8801 24.2731L56.9061 23.9711L58.6941 24.4271L58.7611 24.2061L59.5721 24.2831L60.3671 24.8901L61.7521 26.9721L62.2981 29.0761L63.7321 32.4261L66.3941 36.6951L66.5631 38.3071" stroke="#292562" stroke-width="2" stroke-linecap="round" stroke-linejoin="round"/>
<path d="M70.9336 36.459L72.2786 34.8311L73.9836 33.925L76.2876 32.071L76.7666 32.221" fill="white"/>
<path d="M70.9336 36.459L72.2786 34.8311L73.9836 33.925L76.2876 32.071L76.7666 32.221" stroke="#292562" stroke-width="2" stroke-linecap="round" stroke-linejoin="round"/>
<path d="M27.5031 33.7121L27.5321 32.9861L27.1421 33.2761L25.0331 30.8991L24.8231 29.6471L23.9531 30.0761L22.8631 31.2681L22.0041 32.4271L21.4121 35.0651L22.7381 36.5481L24.3221 37.4411" fill="white"/>
<path d="M27.5031 33.7121L27.5321 32.9861L27.1421 33.2761L25.0331 30.8991L24.8231 29.6471L23.9531 30.0761L22.8631 31.2681L22.0041 32.4271L21.4121 35.0651L22.7381 36.5481L24.3221 37.4411" stroke="#292562" stroke-width="2" stroke-linecap="round" stroke-linejoin="round"/>
<path d="M27.7003 31.7641L25.9884 28.8221L24.6884 27.5381L23.4704 27.3611L22.6353 27.6791L21.2023 29.2921L20.7773 30.7981L20.8983 33.4901L22.5623 35.3831" fill="white"/>
<path d="M27.7003 31.7641L25.9884 28.8221L24.6884 27.5381L23.4704 27.3611L22.6353 27.6791L21.2023 29.2921L20.7773 30.7981L20.8983 33.4901L22.5623 35.3831" stroke="#292562" stroke-width="2" stroke-linecap="round" stroke-linejoin="round"/>
<path d="M30.5151 32.338L28.6671 30.86L24.8711 29.868L22.6091 29.514L20.1821 29.8751L19.3641 30.9651L19.1191 32.899L19.5621 35.5851L20.8241 37.083" fill="white"/>
<path d="M30.5151 32.338L28.6671 30.86L24.8711 29.868L22.6091 29.514L20.1821 29.8751L19.3641 30.9651L19.1191 32.899L19.5621 35.5851L20.8241 37.083" stroke="#292562" stroke-width="2" stroke-linecap="round" stroke-linejoin="round"/>
<path d="M24.276 28.954L22.116 29.832L20.49 31.066L19.279 32.554L18.584 34.266L18.728 36.017L19.406 37.75L20.223 38.574L22.32 39.798" fill="white"/>
<path d="M24.276 28.954L22.116 29.832L20.49 31.066L19.279 32.554L18.584 34.266L18.728 36.017L19.406 37.75L20.223 38.574L22.32 39.798" stroke="#292562" stroke-width="2" stroke-linecap="round" stroke-linejoin="round"/>
<path d="M21.5872 28.2051L19.6222 28.5241L18.3952 29.6141L18.0332 30.4371L18.2092 32.4831L19.1982 34.7591L22.1882 38.2891" fill="white"/>
<path d="M21.5872 28.2051L19.6222 28.5241L18.3952 29.6141L18.0332 30.4371L18.2092 32.4831L19.1982 34.7591L22.1882 38.2891" stroke="#292562" stroke-width="2" stroke-linecap="round" stroke-linejoin="round"/>
<path d="M23.4695 28.5601L22.1335 29.5641L21.9355 30.856L22.3985 32.894L24.6216 35.532" fill="white"/>
<path d="M23.4695 28.5601L22.1335 29.5641L21.9355 30.856L22.3985 32.894L24.6216 35.532" stroke="#292562" stroke-width="2" stroke-linecap="round" stroke-linejoin="round"/>
<path d="M43.3931 71.641L49.1221 73.295L52.4051 75.011L54.0841 75.058L60.2311 72.69L62.1821 72.251L62.9451 71.651L62.6001 72.188L58.9331 72.901L55.2401 74.595L49.0761 74.311L49.3731 74.473L48.9471 74.847L49.3651 75.047L54.0951 74.121L56.5811 73.139L63.9231 68.188L65.6701 66.226L65.7241 65.625L64.8461 65.776L61.6171 68.331L55.4811 72.21L50.6751 74.047L48.9661 75.398L48.9831 75.789L48.9771 75.461L49.5871 75.439L49.2681 75.109L54.3081 73.09L58.6441 69.645L60.9931 67.164L63.9311 65.1L63.6461 65.571L63.9491 66.985L61.9891 68.825L55.9011 70.742L53.5881 72.353L52.9581 73.255L54.4431 73.407L56.2921 72.513L59.1781 69.635L61.0201 68.075L62.2211 67.646L62.1251 67.417L59.7161 71.277L56.5231 73.015L54.5041 73.673L50.7721 73.941L49.9511 73.832L45.8751 69.811L44.4511 68.916L38.6121 66.984L38.8581 66.801L38.4911 66.271L38.7541 65.775L38.2861 65.487L43.7511 67.589L44.4781 68.366L44.3101 68.621L40.3601 67.926L36.9341 66.716L35.3671 65.975L35.2401 65.574L35.4941 65.811L34.7901 65.785L37.2401 67.596L44.7511 71.376L46.0641 72.379L45.9051 72.624L44.9891 72.016L41.6211 70.822L38.5861 68.651L38.9791 68.058L38.0871 67.83L38.6331 68.02L39.6611 69.974L42.8591 73.703L46.5401 75.529L50.5801 76.232L52.5561 76.967L51.9161 76.959L50.9221 76.023L47.7291 74.416L41.8931 72.641L38.9771 71.205L37.5321 70.154L37.6241 69.762L37.9951 70.063L38.1881 70.947L39.7461 72.621L46.8331 74.73L49.0591 76.151L50.4801 76.586L46.1901 75.081L45.3121 74.313L41.8141 73.043L40.1981 71.741L36.9991 70.349L34.8621 68.878L34.3941 67.191L33.9551 67.209L34.6801 67.936L38.9391 70.819L42.4131 74.333L46.6031 76.051L48.4861 76.442L52.6741 76.061L56.1111 74.837L57.1141 73.643L59.3611 72.234" fill="white"/>
<path d="M43.3931 71.641L49.1221 73.295L52.4051 75.011L54.0841 75.058L60.2311 72.69L62.1821 72.251L62.9451 71.651L62.6001 72.188L58.9331 72.901L55.2401 74.595L49.0761 74.311L49.3731 74.473L48.9471 74.847L49.3651 75.047L54.0951 74.121L56.5811 73.139L63.9231 68.188L65.6701 66.226L65.7241 65.625L64.8461 65.776L61.6171 68.331L55.4811 72.21L50.6751 74.047L48.9661 75.398L48.9831 75.789L48.9771 75.461L49.5871 75.439L49.2681 75.109L54.3081 73.09L58.6441 69.645L60.9931 67.164L63.9311 65.1L63.6461 65.571L63.9491 66.985L61.9891 68.825L55.9011 70.742L53.5881 72.353L52.9581 73.255L54.4431 73.407L56.2921 72.513L59.1781 69.635L61.0201 68.075L62.2211 67.646L62.1251 67.417L59.7161 71.277L56.5231 73.015L54.5041 73.673L50.7721 73.941L49.9511 73.832L45.8751 69.811L44.4511 68.916L38.6121 66.984L38.8581 66.801L38.4911 66.271L38.7541 65.775L38.2861 65.487L43.7511 67.589L44.4781 68.366L44.3101 68.621L40.3601 67.926L36.9341 66.716L35.3671 65.975L35.2401 65.574L35.4941 65.811L34.7901 65.785L37.2401 67.596L44.7511 71.376L46.0641 72.379L45.9051 72.624L44.9891 72.016L41.6211 70.822L38.5861 68.651L38.9791 68.058L38.0871 67.83L38.6331 68.02L39.6611 69.974L42.8591 73.703L46.5401 75.529L50.5801 76.232L52.5561 76.967L51.9161 76.959L50.9221 76.023L47.7291 74.416L41.8931 72.641L38.9771 71.205L37.5321 70.154L37.6241 69.762L37.9951 70.063L38.1881 70.947L39.7461 72.621L46.8331 74.73L49.0591 76.151L50.4801 76.586L46.1901 75.081L45.3121 74.313L41.8141 73.043L40.1981 71.741L36.9991 70.349L34.8621 68.878L34.3941 67.191L33.9551 67.209L34.6801 67.936L38.9391 70.819L42.4131 74.333L46.6031 76.051L48.4861 76.442L52.6741 76.061L56.1111 74.837L57.1141 73.643L59.3611 72.234" stroke="#292562" stroke-width="2" stroke-linecap="round" stroke-linejoin="round"/>
<path d="M50.2222 73.5881L53.1642 72.1751L54.3073 72.0621L59.7243 73.0011L60.1483 72.9131L61.2843 71.3181L61.1302 70.8571L60.4993 70.6151L57.8793 71.0781L57.0363 71.7651L52.6283 72.1621L49.8383 71.8371L48.9543 72.3731L48.7812 73.1711L50.2583 73.3861L59.7693 72.3811L59.8333 71.6511L58.1562 70.9751L54.3452 70.8491L51.4012 71.2261L49.8613 72.1541L50.3073 72.8991L52.0993 73.5791L54.1763 73.5471L57.8493 72.3301L59.7413 71.3701L66.7162 69.1531" fill="white"/>
<path d="M50.2222 73.5881L53.1642 72.1751L54.3073 72.0621L59.7243 73.0011L60.1483 72.9131L61.2843 71.3181L61.1302 70.8571L60.4993 70.6151L57.8793 71.0781L57.0363 71.7651L52.6283 72.1621L49.8383 71.8371L48.9543 72.3731L48.7812 73.1711L50.2583 73.3861L59.7693 72.3811L59.8333 71.6511L58.1562 70.9751L54.3452 70.8491L51.4012 71.2261L49.8613 72.1541L50.3073 72.8991L52.0993 73.5791L54.1763 73.5471L57.8493 72.3301L59.7413 71.3701L66.7162 69.1531" stroke="#292562" stroke-width="2" stroke-linecap="round" stroke-linejoin="round"/>
<path d="M54.8223 72.428L56.1973 71.259L61.1563 70.025L62.7823 69.066L65.1793 66.81L68.0483 62.381L67.6093 62.372L68.1193 61.782L67.8253 61.588L68.1443 61.413L67.9473 61.116L68.2433 61.122L68.4383 60.607L68.0183 60.586L68.2063 60.799L68.5393 60.438L68.1193 60.319L68.7923 58.96L68.4213 58.855L68.9663 58.563L68.6703 58.107L68.8283 58.678L68.3933 58.619L68.6643 58.769L68.4303 58.651L68.9613 58.025L68.3893 58.534" fill="white"/>
<path d="M54.8223 72.428L56.1973 71.259L61.1563 70.025L62.7823 69.066L65.1793 66.81L68.0483 62.381L67.6093 62.372L68.1193 61.782L67.8253 61.588L68.1443 61.413L67.9473 61.116L68.2433 61.122L68.4383 60.607L68.0183 60.586L68.2063 60.799L68.5393 60.438L68.1193 60.319L68.7923 58.96L68.4213 58.855L68.9663 58.563L68.6703 58.107L68.8283 58.678L68.3933 58.619L68.6643 58.769L68.4303 58.651L68.9613 58.025L68.3893 58.534" stroke="#292562" stroke-width="2" stroke-linecap="round" stroke-linejoin="round"/>
<path d="M65.2958 69.8361L62.7578 69.2561L64.1278 69.5351L66.7838 66.3481L68.1408 63.3911L70.4878 61.2751L70.3588 60.9151L71.0908 60.2741L71.1358 59.3901L70.8748 59.4571L71.3198 59.1261L70.6038 59.3271" fill="white"/>
<path d="M65.2958 69.8361L62.7578 69.2561L64.1278 69.5351L66.7838 66.3481L68.1408 63.3911L70.4878 61.2751L70.3588 60.9151L71.0908 60.2741L71.1358 59.3901L70.8748 59.4571L71.3198 59.1261L70.6038 59.3271" stroke="#292562" stroke-width="2" stroke-linecap="round" stroke-linejoin="round"/>
<path d="M65.6747 68.086L64.1217 68.008L63.0977 67.618L64.3147 67.722L64.7267 66.95L65.8207 66.081L66.8957 62.89L68.2457 60.41" fill="white"/>
<path d="M65.6747 68.086L64.1217 68.008L63.0977 67.618L64.3147 67.722L64.7267 66.95L65.8207 66.081L66.8957 62.89L68.2457 60.41" stroke="#292562" stroke-width="2" stroke-linecap="round" stroke-linejoin="round"/>
<path d="M70.4881 59.3841L70.7851 59.0011L70.4631 59.6531L70.6251 60.1031L68.8221 62.4851L68.7611 63.0581L67.7191 64.1571L67.1491 65.9721L65.6131 67.5111L65.5801 68.1471" fill="white"/>
<path d="M70.4881 59.3841L70.7851 59.0011L70.4631 59.6531L70.6251 60.1031L68.8221 62.4851L68.7611 63.0581L67.7191 64.1571L67.1491 65.9721L65.6131 67.5111L65.5801 68.1471" stroke="#292562" stroke-width="2" stroke-linecap="round" stroke-linejoin="round"/>
<path d="M71.4088 57.182L69.0558 63.295L68.6938 64.967L67.6698 65.979L65.7808 69.641L63.3008 71.756" fill="white"/>
<path d="M71.4088 57.182L69.0558 63.295L68.6938 64.967L67.6698 65.979L65.7808 69.641L63.3008 71.756" stroke="#292562" stroke-width="2" stroke-linecap="round" stroke-linejoin="round"/>
<path d="M32.1699 60.0291L34.8079 62.011L34.6909 62.416L37.1509 67.3091L37.5419 68.9701" fill="white"/>
<path d="M32.1699 60.0291L34.8079 62.011L34.6909 62.416L37.1509 67.3091L37.5419 68.9701" stroke="#292562" stroke-width="2" stroke-linecap="round" stroke-linejoin="round"/>
<path d="M32.0195 60.2421L32.5215 60.7681L32.5705 61.3621L33.7555 62.682L38.9255 66.2831L39.3495 67.4781" fill="white"/>
<path d="M32.0195 60.2421L32.5215 60.7681L32.5705 61.3621L33.7555 62.682L38.9255 66.2831L39.3495 67.4781" stroke="#292562" stroke-width="2" stroke-linecap="round" stroke-linejoin="round"/>
<path d="M31.1934 58.0231L33.2894 58.4391L33.0574 58.7891L32.6074 58.7421L32.4444 59.1711L32.4314 59.7881L33.0234 60.7221L33.8674 61.6161L39.4144 65.5441L41.1514 67.8601L41.2944 69.0161" fill="white"/>
<path d="M31.1934 58.0231L33.2894 58.4391L33.0574 58.7891L32.6074 58.7421L32.4444 59.1711L32.4314 59.7881L33.0234 60.7221L33.8674 61.6161L39.4144 65.5441L41.1514 67.8601L41.2944 69.0161" stroke="#292562" stroke-width="2" stroke-linecap="round" stroke-linejoin="round"/>
</svg>
