<svg width="90" height="90" viewBox="0 0 90 90" fill="none" xmlns="http://www.w3.org/2000/svg">
<path d="M66.6657 7.38695L59.1647 3.98495L51.1597 2.04895L42.9337 1.64795L34.7777 2.79495L26.9817 5.44995L22.1207 8.01295L17.6197 11.1649L11.6957 16.8869L6.9487 23.618L3.54669 31.118L2.08771 36.4159L1.30469 41.8559L1.42068 50.091L3.0777 58.159L6.21671 65.773L10.7267 72.664L16.4487 78.588L23.1797 83.3349L28.1097 85.7609L33.3057 87.549L41.4167 88.979L49.6527 88.863L57.7197 87.2059L65.3347 84.0669L72.2257 79.557L78.1497 73.8349L82.8967 67.104L86.2987 59.604L88.2347 51.5979L88.6357 43.372L87.4887 35.216L85.8817 29.961L83.6287 24.949L79.1187 18.058L73.3967 12.134L66.6657 7.38695Z" stroke="#292562" stroke-width="2" stroke-linecap="round" stroke-linejoin="round"/>
<path d="M30.2772 30.97L26.7662 29.664L24.8902 29.526L22.4112 29.891L19.0552 31.556L16.5482 34.339L15.2422 37.85L15.3192 41.595L15.8812 43.39L17.1332 45.56L19.9172 48.068L23.4272 49.374L27.1732 49.297L30.6262 47.846L32.0882 46.662L33.6452 44.699L34.9522 41.188L34.8742 37.443L34.0512 35.077L33.0602 33.477L30.2772 30.97Z" stroke="#292562" stroke-width="2" stroke-linecap="round" stroke-linejoin="round"/>
<path d="M67.0155 31.6391L63.5045 30.3331L61.6284 30.1951L59.1494 30.5601L55.7935 32.2251L53.2865 35.0081L51.9805 38.5191L52.0575 42.2641L52.6194 44.0591L53.8725 46.2291L56.6555 48.7371L60.1655 50.0431L63.9115 49.9661L67.3645 48.5151L68.8275 47.3311L70.3835 45.3681L71.6905 41.8571L71.6125 38.1121L70.7895 35.7461L69.7985 34.1471L67.0155 31.6391Z" stroke="#292562" stroke-width="2" stroke-linecap="round" stroke-linejoin="round"/>
<path d="M61.6349 41.254L61.3839 41.349L61.3879 41.112L60.9539 41.705L61.2419 41.939L60.6029 42.872L60.6779 43.339L60.1289 44.528L60.2109 45.257L61.3179 45.79L61.0029 46.058L62.7299 46.901L64.8129 46.536L64.7139 46.704L64.9389 46.731L66.6009 45.999L66.2509 45.599L66.5099 45.472L66.4929 44.154L66.9719 43.669L66.5849 43.005L66.6359 42.18L66.9499 42.143L66.2849 41.8L66.4139 41.472L64.5449 40.643L65.0899 40.583L63.8419 40.953L64.1729 41.117L63.7519 41.033L63.7809 41.2L64.2639 41.05L63.7459 41.25L64.4319 41.093L63.8219 41.139L64.1999 40.991L64.5489 41.097L63.9439 41.037L64.2589 41.033L64.0379 41.039L64.2149 41.121L64.2979 40.679L64.3079 40.887L64.0259 40.805L64.2689 40.896L64.0609 40.884L64.4419 40.504L64.8879 40.433" stroke="#292562" stroke-width="5" stroke-linecap="round" stroke-linejoin="round"/>
<path d="M25.2228 40.502L24.9708 40.596L24.9758 40.359L24.5418 40.953L24.8298 41.187L24.1908 42.12L24.2648 42.586L23.7168 43.776L23.7988 44.504L24.9058 45.038L24.5908 45.305L26.3168 46.148L28.4008 45.784L28.3018 45.952L28.5268 45.978L30.1888 45.247L29.8388 44.846L30.0968 44.72L30.0798 43.401L30.5598 42.916L30.1728 42.253L30.2238 41.427L30.5378 41.391L29.8728 41.048L30.0018 40.72L28.1328 39.89L28.6778 39.831L27.4298 40.201L27.7598 40.365L27.3398 40.281L27.3688 40.448L27.8518 40.298L27.3328 40.497L28.0198 40.34L27.4098 40.387L27.7878 40.239L28.1358 40.345L27.5308 40.284L27.8468 40.281L27.6258 40.286L27.8028 40.369L27.8858 39.927L27.8948 40.135L27.6128 40.053L27.8568 40.144L27.6488 40.131L28.0298 39.752L28.4758 39.681" stroke="#292562" stroke-width="5" stroke-linecap="round" stroke-linejoin="round"/>
<path d="M33.7383 75.3989L71.5783 53.4919" stroke="#292562" stroke-width="2" stroke-linecap="round" stroke-linejoin="round"/>
</svg>
