<svg width="90" height="91" viewBox="0 0 90 91" fill="none" xmlns="http://www.w3.org/2000/svg">
<path d="M66.3961 7.495L58.8951 4.09399L50.8902 2.15698L42.6641 1.75598L34.5081 2.90302L26.7112 5.55798L21.8511 8.12097L17.3492 11.273L11.4261 16.995L6.67914 23.726L3.27716 31.227L1.81815 36.525L1.03516 41.964L1.15015 50.199L2.80716 58.267L5.94714 65.881L10.4572 72.772L16.1791 78.696L22.9091 83.443L27.8401 85.869L33.0361 87.658L41.1471 89.087L49.3821 88.971L57.4501 87.314L65.0641 84.175L71.9561 79.665L77.8801 73.943L82.6272 67.213L86.0282 59.712L87.9641 51.707L88.3661 43.48L87.2191 35.324L85.6122 30.069L83.3591 25.057L78.8481 18.166L73.1261 12.242L66.3961 7.495Z" stroke="#292562" stroke-width="2" stroke-linecap="round" stroke-linejoin="round"/>
<path d="M27.1348 57.9971L27.2908 60.3431L28.1497 63.6451L29.6128 66.7261L31.6268 69.4791L35.0458 72.4711L38.0398 74.1041L41.2878 75.147L45.8118 75.5601L49.1948 75.121L52.4358 74.0551L55.4188 72.402L58.0398 70.2191L60.2058 67.5831L61.8388 64.5881L62.8818 61.3401L63.0968 59.5861" stroke="#292562" stroke-width="2" stroke-linecap="round" stroke-linejoin="round"/>
<path d="M27.0957 57.229L27.2517 59.575L28.1117 62.877L29.5747 65.958L31.5887 68.711L35.0067 71.704L38.0017 73.337L41.2497 74.38L45.7737 74.792L49.1567 74.353L52.3967 73.288L55.3807 71.634L58.0017 69.451L60.1667 66.815L61.7997 63.82L62.8427 60.572L63.0587 58.818" stroke="#292562" stroke-width="2" stroke-linecap="round" stroke-linejoin="round"/>
<path d="M20.2891 39.538L20.7491 38.452L21.6211 38.053L21.7421 37.455L22.4601 36.848L22.433 36.545L23.2401 36.486L23.4311 36.019L24.425 35.689L24.8311 35.078L25.554 35.093L26.825 34.321L27.674 34.585L28.0741 34.325L27.756 34.228L29.5381 34.24L29.907 33.876L31.8361 33.947L32.528 34.437L33.338 34.549L35.4581 36.024L35.601 36.599L36.0941 36.623L35.8781 36.741L36.7531 37.125L36.7411 37.406L37.4471 37.493L36.747 37.645L38.0681 38.054L38.149 38.284L37.6801 38.179L38.0701 38.233L37.9991 38.57L38.36 38.559L37.993 38.248L38.5951 38.307L38.1241 38.181L38.411 38.268L38.1821 38.189L38.8611 37.744" stroke="#292562" stroke-width="5.25" stroke-linecap="round" stroke-linejoin="round"/>
<path d="M53.0762 41.3199L53.5362 40.2339L54.4082 39.8339L54.5302 39.2369L55.2472 38.6299L55.2202 38.327L56.0272 38.2679L56.2182 37.801L57.2122 37.4709L57.6182 36.8599L58.3412 36.8749L59.6132 36.1019L60.4612 36.366L60.8622 36.1069L60.5432 36.0099L62.3262 36.0209L62.6942 35.658L64.6232 35.728L65.3152 36.218L66.1252 36.3309L68.2452 37.806L68.3892 38.3799L68.8822 38.405L68.6662 38.5219L69.5412 38.9069L69.5282 39.187L70.2352 39.275L69.5352 39.4269L70.8552 39.8359L70.9372 40.0659L70.4672 39.96L70.8572 40.015L70.7862 40.3519L71.1472 40.34L70.7802 40.03L71.3822 40.0889L70.9112 39.963L71.1992 40.049L70.9692 39.9709L71.6492 39.5259" stroke="#292562" stroke-width="5.25" stroke-linecap="round" stroke-linejoin="round"/>
</svg>
