<svg width="90" height="90" viewBox="0 0 90 90" fill="none" xmlns="http://www.w3.org/2000/svg">
<path d="M66.361 7.015L58.86 3.61301L50.855 1.677L42.629 1.276L34.473 2.423L26.677 5.078L21.816 7.64101L17.315 10.793L11.391 16.515L6.64401 23.246L3.242 30.746L1.78302 36.044L1 41.484L1.116 49.719L2.77301 57.787L5.91202 65.401L10.422 72.292L16.144 78.216L22.875 82.963L27.805 85.389L33.001 87.177L41.112 88.607L49.348 88.491L57.415 86.834L65.03 83.695L71.921 79.185L77.845 73.463L82.592 66.732L85.994 59.232L87.93 51.226L88.331 43L87.184 34.844L85.577 29.589L83.324 24.577L78.814 17.686L73.092 11.762L66.361 7.015Z" fill="white" stroke="#292562" stroke-width="2" stroke-linecap="round" stroke-linejoin="round"/>
<path d="M29.9725 30.5981L26.4615 29.2921L24.5855 29.1541L22.1065 29.519L18.7505 31.1841L16.2435 33.967L14.9375 37.4781L15.0145 41.2231L15.5765 43.0181L16.8285 45.188L19.6125 47.696L23.1225 49.002L26.8685 48.925L30.3215 47.4741L31.7835 46.29L33.3405 44.3271L34.6475 40.816L34.5695 37.071L33.7465 34.705L32.7555 33.105L29.9725 30.5981Z" fill="white" stroke="#292562" stroke-width="2" stroke-linecap="round" stroke-linejoin="round"/>
<path d="M66.7108 31.2671L63.1998 29.9611L61.3238 29.8231L58.8448 30.1881L55.4888 31.8531L52.9818 34.6361L51.6758 38.1471L51.7528 41.8921L52.3148 43.6871L53.5678 45.8571L56.3508 48.3651L59.8608 49.6711L63.6068 49.5941L67.0598 48.1431L68.5228 46.9591L70.0788 44.9961L71.3858 41.4851L71.3078 37.7401L70.4848 35.3741L69.4938 33.7751L66.7108 31.2671Z" fill="white" stroke="#292562" stroke-width="2" stroke-linecap="round" stroke-linejoin="round"/>
<path d="M61.3302 40.882L61.0792 40.977L61.0832 40.74L60.6492 41.333L60.9372 41.567L60.2982 42.5L60.3732 42.967L59.8242 44.156L59.9062 44.885L61.0132 45.418L60.6982 45.686L62.4252 46.529L64.5082 46.164L64.4092 46.332L64.6342 46.359L66.2962 45.627L65.9462 45.227L66.2052 45.1L66.1882 43.782L66.6672 43.297L66.2802 42.633L66.3312 41.808L66.6452 41.771L65.9802 41.428L66.1092 41.1L64.2402 40.271L64.7852 40.211L63.5372 40.581L63.8682 40.745L63.4472 40.661L63.4762 40.828L63.9592 40.678L63.4412 40.878L64.1272 40.721L63.5172 40.767L63.8952 40.619L64.2442 40.725L63.6392 40.665L63.9542 40.661L63.7332 40.667L63.9102 40.749L63.9932 40.307L64.0032 40.515L63.7212 40.433L63.9642 40.524L63.7562 40.512L64.1372 40.132L64.5832 40.061" fill="white"/>
<path d="M61.3302 40.882L61.0792 40.977L61.0832 40.74L60.6492 41.333L60.9372 41.567L60.2982 42.5L60.3732 42.967L59.8242 44.156L59.9062 44.885L61.0132 45.418L60.6982 45.686L62.4252 46.529L64.5082 46.164L64.4092 46.332L64.6342 46.359L66.2962 45.627L65.9462 45.227L66.2052 45.1L66.1882 43.782L66.6672 43.297L66.2802 42.633L66.3312 41.808L66.6452 41.771L65.9802 41.428L66.1092 41.1L64.2402 40.271L64.7852 40.211L63.5372 40.581L63.8682 40.745L63.4472 40.661L63.4762 40.828L63.9592 40.678L63.4412 40.878L64.1272 40.721L63.5172 40.767L63.8952 40.619L64.2442 40.725L63.6392 40.665L63.9542 40.661L63.7332 40.667L63.9102 40.749L63.9932 40.307L64.0032 40.515L63.7212 40.433L63.9642 40.524L63.7562 40.512L64.1372 40.132L64.5832 40.061" stroke="#292562" stroke-width="5" stroke-linecap="round" stroke-linejoin="round"/>
<path d="M24.9181 40.1301L24.6661 40.2241L24.6711 39.9871L24.2371 40.5811L24.5251 40.8151L23.8861 41.7481L23.9601 42.2141L23.4121 43.4041L23.4941 44.1321L24.6011 44.6661L24.2861 44.9331L26.0121 45.7761L28.0961 45.4121L27.9971 45.5801L28.2221 45.6061L29.8841 44.8751L29.5341 44.4741L29.7921 44.3481L29.7751 43.0291L30.2551 42.5441L29.8681 41.8811L29.9191 41.0551L30.2331 41.0191L29.5681 40.6761L29.6971 40.3481L27.8281 39.5181L28.3731 39.4591L27.1251 39.8291L27.4551 39.9931L27.0351 39.9091L27.0641 40.0761L27.5471 39.9261L27.0281 40.1251L27.7151 39.9681L27.1051 40.0151L27.4831 39.8671L27.8311 39.9731L27.2261 39.9121L27.5421 39.9091L27.3211 39.9141L27.4981 39.9971L27.5811 39.5551L27.5901 39.7631L27.3081 39.6811L27.5521 39.7721L27.3441 39.7591L27.7251 39.3801L28.1711 39.3091" fill="white"/>
<path d="M24.9181 40.1301L24.6661 40.2241L24.6711 39.9871L24.2371 40.5811L24.5251 40.8151L23.8861 41.7481L23.9601 42.2141L23.4121 43.4041L23.4941 44.1321L24.6011 44.6661L24.2861 44.9331L26.0121 45.7761L28.0961 45.4121L27.9971 45.5801L28.2221 45.6061L29.8841 44.8751L29.5341 44.4741L29.7921 44.3481L29.7751 43.0291L30.2551 42.5441L29.8681 41.8811L29.9191 41.0551L30.2331 41.0191L29.5681 40.6761L29.6971 40.3481L27.8281 39.5181L28.3731 39.4591L27.1251 39.8291L27.4551 39.9931L27.0351 39.9091L27.0641 40.0761L27.5471 39.9261L27.0281 40.1251L27.7151 39.9681L27.1051 40.0151L27.4831 39.8671L27.8311 39.9731L27.2261 39.9121L27.5421 39.9091L27.3211 39.9141L27.4981 39.9971L27.5811 39.5551L27.5901 39.7631L27.3081 39.6811L27.5521 39.7721L27.3441 39.7591L27.7251 39.3801L28.1711 39.3091" stroke="#292562" stroke-width="5" stroke-linecap="round" stroke-linejoin="round"/>
<path d="M33.4336 75.027L71.2736 53.12Z" fill="white"/>
<path d="M33.4336 75.027L71.2736 53.12" stroke="#292562" stroke-width="2" stroke-linecap="round" stroke-linejoin="round"/>
</svg>
