<svg width="90" height="90" viewBox="0 0 90 90" fill="none" xmlns="http://www.w3.org/2000/svg">
<path d="M66.902 7.01678L59.401 3.61578L51.396 1.67981L43.17 1.27783L35.014 2.4248L27.218 5.07983L22.357 7.64282L17.856 10.7948L11.932 16.5168L7.18503 23.2478L3.78302 30.7488L2.32401 36.0468L1.54102 41.4858L1.65701 49.7208L3.31302 57.7888L6.453 65.4028L10.963 72.2938L16.685 78.2178L23.415 82.9648L28.346 85.3908L33.542 87.1798L41.653 88.6088L49.889 88.4928L57.956 86.8358L65.571 83.6968L72.462 79.1868L78.386 73.4648L83.133 66.7348L86.534 59.2338L88.47 51.2288L88.872 43.0018L87.725 34.8468L86.118 29.5908L83.865 24.5788L79.354 17.6878L73.633 11.7638L66.902 7.01678Z" fill="white" stroke="#292562" stroke-width="2" stroke-linecap="round" stroke-linejoin="round"/>
<path d="M30.5125 30.601L27.0016 29.294L25.1255 29.156L22.6465 29.521L19.2906 31.186L16.7835 33.969L15.4766 37.48L15.5545 41.225L16.1165 43.02L17.3686 45.191L20.1516 47.698L23.6625 49.004L27.4076 48.927L30.8615 47.476L32.3235 46.292L33.8806 44.329L35.1876 40.818L35.1096 37.073L34.2866 34.707L33.2956 33.108L30.5125 30.601Z" fill="white" stroke="#292562" stroke-width="2" stroke-linecap="round" stroke-linejoin="round"/>
<path d="M67.2498 31.27L63.7389 29.963L61.8629 29.825L59.3839 30.1899L56.0279 31.8549L53.5208 34.6379L52.2148 38.1489L52.2918 41.8939L52.8539 43.6899L54.1059 45.8599L56.8899 48.3669L60.3998 49.6729L64.1449 49.5959L67.5988 48.145L69.0609 46.9609L70.6179 44.9979L71.9249 41.4879L71.8469 37.7429L71.0239 35.3759L70.0329 33.7769L67.2498 31.27Z" fill="white" stroke="#292562" stroke-width="2" stroke-linecap="round" stroke-linejoin="round"/>
<path d="M61.8693 40.885L61.6173 40.979L61.6223 40.742L61.1883 41.336L61.4763 41.569L60.8373 42.503L60.9113 42.969L60.3633 44.159L60.4453 44.887L61.5523 45.42L61.2373 45.688L62.9643 46.531L65.0473 46.167L64.9483 46.335L65.1733 46.361L66.8353 45.629L66.4853 45.229L66.7443 45.103L66.7273 43.784L67.2063 43.299L66.8193 42.635L66.8703 41.81L67.1843 41.773L66.5193 41.43L66.6483 41.102L64.7793 40.273L65.3243 40.213L64.0763 40.583L64.4073 40.747L63.9863 40.663L64.0153 40.831L64.4983 40.68L63.9793 40.88L64.6663 40.723L64.0563 40.769L64.4343 40.621L64.7823 40.727L64.1783 40.667L64.4933 40.663L64.2723 40.669L64.4493 40.752L64.5323 40.31L64.5413 40.517L64.2603 40.435L64.5033 40.526L64.2953 40.514L64.6763 40.134L65.1223 40.063" fill="white"/>
<path d="M61.8693 40.885L61.6173 40.979L61.6223 40.742L61.1883 41.336L61.4763 41.569L60.8373 42.503L60.9113 42.969L60.3633 44.159L60.4453 44.887L61.5523 45.42L61.2373 45.688L62.9643 46.531L65.0473 46.167L64.9483 46.335L65.1733 46.361L66.8353 45.629L66.4853 45.229L66.7443 45.103L66.7273 43.784L67.2063 43.299L66.8193 42.635L66.8703 41.81L67.1843 41.773L66.5193 41.43L66.6483 41.102L64.7793 40.273L65.3243 40.213L64.0763 40.583L64.4073 40.747L63.9863 40.663L64.0153 40.831L64.4983 40.68L63.9793 40.88L64.6663 40.723L64.0563 40.769L64.4343 40.621L64.7823 40.727L64.1783 40.667L64.4933 40.663L64.2723 40.669L64.4493 40.752L64.5323 40.31L64.5413 40.517L64.2603 40.435L64.5033 40.526L64.2953 40.514L64.6763 40.134L65.1223 40.063" stroke="#292562" stroke-width="5" stroke-linecap="round" stroke-linejoin="round"/>
<path d="M25.4572 40.1321L25.2052 40.2271L25.2102 39.9901L24.7762 40.5831L25.0641 40.8171L24.4242 41.7501L24.4991 42.217L23.9512 43.4061L24.0332 44.134L25.1402 44.668L24.8252 44.936L26.5511 45.7791L28.6352 45.4141L28.5362 45.582L28.7612 45.6091L30.4232 44.8771L30.0732 44.4771L30.3311 44.3511L30.3141 43.032L30.7932 42.5471L30.4072 41.8831L30.4582 41.058L30.7722 41.0211L30.1062 40.678L30.2352 40.35L28.3672 39.5211L28.9122 39.4611L27.6642 39.8311L27.9942 39.9951L27.5742 39.9111L27.6031 40.0781L28.0862 39.928L27.5672 40.1281L28.2542 39.9711L27.6442 40.017L28.0222 39.8691L28.3701 39.975L27.7652 39.915L28.0811 39.9111L27.8592 39.9161L28.0372 39.999L28.1201 39.5571L28.1292 39.7651L27.8472 39.683L28.0912 39.774L27.8831 39.762L28.2642 39.3821L28.7102 39.311" fill="white"/>
<path d="M25.4572 40.1321L25.2052 40.2271L25.2102 39.9901L24.7762 40.5831L25.0641 40.8171L24.4242 41.7501L24.4991 42.217L23.9512 43.4061L24.0332 44.134L25.1402 44.668L24.8252 44.936L26.5511 45.7791L28.6352 45.4141L28.5362 45.582L28.7612 45.6091L30.4232 44.8771L30.0732 44.4771L30.3311 44.3511L30.3141 43.032L30.7932 42.5471L30.4072 41.8831L30.4582 41.058L30.7722 41.0211L30.1062 40.678L30.2352 40.35L28.3672 39.5211L28.9122 39.4611L27.6642 39.8311L27.9942 39.9951L27.5742 39.9111L27.6031 40.0781L28.0862 39.928L27.5672 40.1281L28.2542 39.9711L27.6442 40.017L28.0222 39.8691L28.3701 39.975L27.7652 39.915L28.0811 39.9111L27.8592 39.9161L28.0372 39.999L28.1201 39.5571L28.1292 39.7651L27.8472 39.683L28.0912 39.774L27.8831 39.762L28.2642 39.3821L28.7102 39.311" stroke="#292562" stroke-width="5" stroke-linecap="round" stroke-linejoin="round"/>
<path d="M62.7745 74.303L62.6195 71.957L61.7595 68.656L60.2965 65.575L58.2825 62.822L54.8645 59.829L51.8695 58.196L48.6215 57.153L44.0975 56.741L40.7145 57.18L37.4745 58.245L34.4905 59.899L31.8695 62.082L29.7045 64.718L28.0715 67.713L27.0285 70.961L26.8125 72.715" fill="white"/>
<path d="M62.7745 74.303L62.6195 71.957L61.7595 68.656L60.2965 65.575L58.2825 62.822L54.8645 59.829L51.8695 58.196L48.6215 57.153L44.0975 56.741L40.7145 57.18L37.4745 58.245L34.4905 59.899L31.8695 62.082L29.7045 64.718L28.0715 67.713L27.0285 70.961L26.8125 72.715" stroke="#292562" stroke-width="2" stroke-linecap="round" stroke-linejoin="round"/>
<path d="M63.5538 73.011L63.3978 70.665L62.5388 67.364L61.0758 64.282L59.0608 61.529L55.6428 58.537L52.6488 56.904L49.4008 55.861L44.8768 55.449L41.4938 55.888L38.2528 56.953L35.2698 58.606L32.6488 60.79L30.4828 63.425L28.8498 66.42L27.8068 69.668L27.5918 71.422" fill="white"/>
<path d="M63.5538 73.011L63.3978 70.665L62.5388 67.364L61.0758 64.282L59.0608 61.529L55.6428 58.537L52.6488 56.904L49.4008 55.861L44.8768 55.449L41.4938 55.888L38.2528 56.953L35.2698 58.606L32.6488 60.79L30.4828 63.425L28.8498 66.42L27.8068 69.668L27.5918 71.422" stroke="#292562" stroke-width="2" stroke-linecap="round" stroke-linejoin="round"/>
<path d="M65.0528 24.707L64.9418 25.881L64.2298 26.525L64.2938 27.131L63.7928 27.926L63.9098 28.207L63.1578 28.5071L63.1158 29.009L62.2678 29.623L62.0648 30.3281L61.3708 30.532L60.3908 31.6511L59.5018 31.6541L59.1978 32.0231L59.5308 32.019L57.8278 32.545L57.5858 33.0021L55.7258 33.5161L54.9178 33.2571L54.1118 33.394L51.6458 32.626L51.3358 32.121L50.8588 32.2471L51.0288 32.069L50.0788 31.9661L50.0068 31.6951L49.3058 31.824L49.9278 31.4681L48.5458 31.4761L48.3988 31.2811L48.8788 31.2401L48.4908 31.306L48.4568 30.9631L48.1158 31.0831L48.5588 31.2681L47.9668 31.394L48.4548 31.3721L48.1538 31.376L48.3968 31.3821L47.8828 32.0101" fill="white"/>
<path d="M65.0528 24.707L64.9418 25.881L64.2298 26.525L64.2938 27.131L63.7928 27.926L63.9098 28.207L63.1578 28.5071L63.1158 29.009L62.2678 29.623L62.0648 30.3281L61.3708 30.532L60.3908 31.6511L59.5018 31.6541L59.1978 32.0231L59.5308 32.019L57.8278 32.545L57.5858 33.0021L55.7258 33.5161L54.9178 33.2571L54.1118 33.394L51.6458 32.626L51.3358 32.121L50.8588 32.2471L51.0288 32.069L50.0788 31.9661L50.0068 31.6951L49.3058 31.824L49.9278 31.4681L48.5458 31.4761L48.3988 31.2811L48.8788 31.2401L48.4908 31.306L48.4568 30.9631L48.1158 31.0831L48.5588 31.2681L47.9668 31.394L48.4548 31.3721L48.1538 31.376L48.3968 31.3821L47.8828 32.0101" stroke="#292562" stroke-width="5.25" stroke-linecap="round" stroke-linejoin="round"/>
<path d="M38.5373 33.382L37.5872 34.081L36.6342 33.979L36.2242 34.43L35.2972 34.586L35.1653 34.86L34.4413 34.498L34.0392 34.802L33.0153 34.578L32.3542 34.896L31.7403 34.513L30.2533 34.528L29.6583 33.867L29.1823 33.886L29.4062 34.132L27.8792 33.211L27.3773 33.335L25.7552 32.289L25.4102 31.514L24.7712 31.004L23.7022 28.653L23.8733 28.086L23.4612 27.813L23.7072 27.822L23.1512 27.045L23.3052 26.81L22.7433 26.373L23.4222 26.6L22.4962 25.574L22.5432 25.335L22.8932 25.666L22.5862 25.42L22.8192 25.166L22.5033 24.991L22.6602 25.446L22.1722 25.087L22.5132 25.437L22.3102 25.215L22.4673 25.4L21.6562 25.435" fill="white"/>
<path d="M38.5373 33.382L37.5872 34.081L36.6342 33.979L36.2242 34.43L35.2972 34.586L35.1653 34.86L34.4413 34.498L34.0392 34.802L33.0153 34.578L32.3542 34.896L31.7403 34.513L30.2533 34.528L29.6583 33.867L29.1823 33.886L29.4062 34.132L27.8792 33.211L27.3773 33.335L25.7552 32.289L25.4102 31.514L24.7712 31.004L23.7022 28.653L23.8733 28.086L23.4612 27.813L23.7072 27.822L23.1512 27.045L23.3052 26.81L22.7433 26.373L23.4222 26.6L22.4962 25.574L22.5432 25.335L22.8932 25.666L22.5862 25.42L22.8192 25.166L22.5033 24.991L22.6602 25.446L22.1722 25.087L22.5132 25.437L22.3102 25.215L22.4673 25.4L21.6562 25.435" stroke="#292562" stroke-width="5.25" stroke-linecap="round" stroke-linejoin="round"/>
</svg>
