<svg width="90" height="90" viewBox="0 0 90 90" fill="none" xmlns="http://www.w3.org/2000/svg">
<path d="M66.5075 6.7439L59.0075 3.34186L51.0015 1.40588L42.7755 1.00488L34.6195 2.15186L26.8235 4.80688L21.9625 7.36987L17.4615 10.5219L11.5375 16.2439L6.79047 22.9749L3.38849 30.4749L1.92947 35.7739L1.14648 41.2129L1.26248 49.4479L2.91949 57.5159L6.05847 65.1299L10.5685 72.0209L16.2905 77.9449L23.0215 82.6919L27.9515 85.1179L33.1475 86.9069L41.2595 88.3359L49.4945 88.2198L57.5625 86.5629L65.1765 83.4239L72.0675 78.9139L77.9915 73.1919L82.7385 66.4619L86.1405 58.9609L88.0765 50.9549L88.4775 42.7289L87.3305 34.5729L85.7235 29.3179L83.4705 24.3059L78.9605 17.4149L73.2385 11.4909L66.5075 6.7439Z" stroke="#292562" stroke-width="2" stroke-linecap="round" stroke-linejoin="round"/>
<path d="M30.1209 30.3281L26.61 29.0211L24.7339 28.8831L22.2549 29.248L18.899 30.9131L16.3919 33.696L15.0859 37.207L15.1629 40.9521L15.7249 42.7471L16.9779 44.9171L19.761 47.425L23.2709 48.7311L27.0169 48.6541L30.4699 47.2031L31.933 46.019L33.489 44.0561L34.796 40.545L34.718 36.8L33.895 34.4341L32.904 32.8351L30.1209 30.3281Z" stroke="#292562" stroke-width="2" stroke-linecap="round" stroke-linejoin="round"/>
<path d="M66.8573 30.996L63.3463 29.69L61.4703 29.552L58.9913 29.917L55.6363 31.582L53.1283 34.365L51.8223 37.876L51.8993 41.621L52.4613 43.416L53.7143 45.587L56.4973 48.094L60.0083 49.4L63.7533 49.323L67.2063 47.872L68.6693 46.688L70.2253 44.725L71.5323 41.214L71.4543 37.469L70.6313 35.103L69.6403 33.504L66.8573 30.996Z" stroke="#292562" stroke-width="2" stroke-linecap="round" stroke-linejoin="round"/>
<path d="M61.4767 40.6111L61.2257 40.7061L61.2297 40.4691L60.7957 41.063L61.0837 41.2961L60.4447 42.2291L60.5197 42.696L59.9707 43.8851L60.0527 44.6141L61.1597 45.147L60.8447 45.415L62.5717 46.2581L64.6547 45.8931L64.5557 46.0621L64.7807 46.0881L66.4427 45.3561L66.0927 44.9561L66.3517 44.8301L66.3347 43.511L66.8137 43.0261L66.4267 42.3621L66.4787 41.537L66.7917 41.5001L66.1267 41.157L66.2557 40.829L64.3867 40.0001L64.9327 39.9401L63.6847 40.3101L64.0147 40.4741L63.5937 40.3901L63.6227 40.5571L64.1057 40.407L63.5877 40.6071L64.2737 40.4501L63.6637 40.496L64.0417 40.3481L64.3907 40.454L63.7857 40.394L64.1007 40.3901L63.8797 40.3961L64.0567 40.4791L64.1397 40.0361L64.1497 40.2441L63.8677 40.162L64.1107 40.2531L63.9027 40.2411L64.2837 39.8611L64.7297 39.79" stroke="#292562" stroke-width="5" stroke-linecap="round" stroke-linejoin="round"/>
<path d="M25.0646 39.8591L24.8126 39.954L24.8176 39.717L24.3836 40.3101L24.6716 40.5441L24.0326 41.4771L24.1066 41.944L23.5586 43.1331L23.6406 43.8611L24.7476 44.3951L24.4326 44.6631L26.1596 45.506L28.2426 45.1411L28.1436 45.3091L28.3686 45.3351L30.0306 44.6041L29.6806 44.2031L29.9396 44.0771L29.9226 42.759L30.4016 42.2731L30.0146 41.61L30.0656 40.7841L30.3796 40.748L29.7146 40.4051L29.8436 40.0771L27.9746 39.248L28.5196 39.188L27.2716 39.558L27.6026 39.722L27.1816 39.6381L27.2106 39.8051L27.6936 39.6551L27.1746 39.8541L27.8616 39.6981L27.2516 39.7441L27.6296 39.5961L27.9776 39.7021L27.3736 39.6421L27.6886 39.6381L27.4676 39.6431L27.6446 39.7261L27.7276 39.2841L27.7376 39.4921L27.4556 39.41L27.6986 39.501L27.4906 39.4891L27.8716 39.1091L28.3176 39.0381" stroke="#292562" stroke-width="5" stroke-linecap="round" stroke-linejoin="round"/>
<path d="M27.4747 16.1401L26.9357 16.1371L27.0607 16.4551L26.7737 16.4721L27.0647 16.3792L26.9217 15.9951L26.5937 16.0231L26.6367 16.3571L26.8927 16.3121L26.5217 16.1812L26.7707 16.4081L25.4047 17.8431L24.7687 18.8391L24.6977 19.6131L24.1347 19.6991L24.1897 20.1552L22.2107 22.3121L21.3287 22.6451L20.2507 23.9751L19.3317 24.1281L18.6507 25.0751L18.3437 25.0331L18.6147 25.1641L18.0847 25.2681L17.0257 26.4841L16.3757 26.6011L15.5087 27.7611L14.4797 27.8411L15.1987 27.9851L14.6777 27.8701L13.7257 28.4411L13.8647 28.7441L13.3287 28.8091L13.6737 28.9101L12.3497 29.0531L12.8057 29.2661L11.6987 29.1211L11.8267 28.8831L11.3767 28.6891L11.4167 28.9281L10.9707 28.7961L11.7597 28.8001L11.2497 28.7911L11.9457 29.4211" stroke="#292562" stroke-width="6" stroke-linecap="round" stroke-linejoin="round"/>
<path d="M63.2954 17.344L63.5294 18.081L63.4634 14.999L63.8464 15.364L63.4254 15.897L64.0724 15.973L63.2574 16.609L63.2344 17.01L64.2124 17.195L65.1404 19.214L68.1724 22.142L68.7794 22.537L69.8454 22.589L69.6094 22.789L70.0474 22.859L70.3114 23.377L71.3534 23.655L71.9014 24.553L72.9644 24.557L72.2094 24.573L72.7474 24.518L74.3384 25.522L74.7754 25.343L74.3004 25.654L75.6194 25.915L75.4394 26.238L77.0244 25.913L76.3974 26.14L76.8714 25.945L76.6294 26.292L77.0584 26.007L76.4404 26.039L77.4144 25.938L76.4584 26.159L77.9464 25.417L77.1934 25.795L77.5524 25.78L77.6684 25.58L77.0084 25.548L76.7434 25.829" stroke="#292562" stroke-width="6" stroke-linecap="round" stroke-linejoin="round"/>
<path d="M60.1095 71.35L59.9935 71.104L57.9785 68.352L54.5605 65.359L51.5655 63.726L48.3185 62.683L43.7935 62.271L40.4115 62.71L37.1705 63.775L34.1865 65.429L31.5665 67.612L29.4005 70.248L29.1875 70.638" stroke="#292562" stroke-width="2" stroke-linecap="round" stroke-linejoin="round"/>
<path d="M61.2246 70.766L60.7716 69.812L58.7576 67.059L55.3396 64.067L52.3446 62.434L49.0966 61.391L44.5726 60.979L41.1896 61.417L37.9496 62.483L34.9656 64.136L32.3446 66.32L30.1796 68.955L29.2676 70.627" stroke="#292562" stroke-width="2" stroke-linecap="round" stroke-linejoin="round"/>
</svg>
