<svg width="91" height="90" viewBox="0 0 91 90" fill="none" xmlns="http://www.w3.org/2000/svg">
<path d="M67.0915 7.12305L59.5905 3.72205L51.5855 1.78503L43.3595 1.38403L35.2035 2.53107L27.4065 5.18604L22.5464 7.74902L18.0445 10.9011L12.1215 16.623L7.37445 23.3541L3.97247 30.855L2.51346 36.1531L1.73047 41.592L1.84546 49.827L3.50247 57.8951L6.64246 65.509L11.1525 72.4L16.8745 78.324L23.6045 83.071L28.5355 85.4971L33.7314 87.2861L41.8425 88.715L50.0775 88.5991L58.1455 86.9421L65.7595 83.803L72.6515 79.293L78.5755 73.571L83.3225 66.8411L86.7235 59.34L88.6595 51.335L89.0615 43.108L87.9145 34.952L86.3075 29.697L84.0545 24.6851L79.5435 17.7941L73.8215 11.8701L67.0915 7.12305Z" fill="white" stroke="#292562" stroke-width="2" stroke-linecap="round" stroke-linejoin="round"/>
<path d="M27.8301 57.625L27.9861 59.971L28.8451 63.273L30.3081 66.354L32.3221 69.107L35.7411 72.099L38.7351 73.732L41.9831 74.775L46.5071 75.188L49.8901 74.749L53.1311 73.683L56.1141 72.03L58.7351 69.847L60.9011 67.211L62.5341 64.216L63.5771 60.968L63.7921 59.214" fill="white"/>
<path d="M27.8301 57.625L27.9861 59.971L28.8451 63.273L30.3081 66.354L32.3221 69.107L35.7411 72.099L38.7351 73.732L41.9831 74.775L46.5071 75.188L49.8901 74.749L53.1311 73.683L56.1141 72.03L58.7351 69.847L60.9011 67.211L62.5341 64.216L63.5771 60.968L63.7921 59.214" stroke="#292562" stroke-width="2" stroke-linecap="round" stroke-linejoin="round"/>
<path d="M27.791 56.8569L27.947 59.2029L28.807 62.5049L30.27 65.5859L32.284 68.3389L35.702 71.3319L38.697 72.9649L41.945 74.0079L46.469 74.4199L49.852 73.981L53.092 72.916L56.076 71.2619L58.697 69.0789L60.862 66.4429L62.495 63.4479L63.538 60.2L63.754 58.4459" fill="white"/>
<path d="M27.791 56.8569L27.947 59.2029L28.807 62.5049L30.27 65.5859L32.284 68.3389L35.702 71.3319L38.697 72.9649L41.945 74.0079L46.469 74.4199L49.852 73.981L53.092 72.916L56.076 71.2619L58.697 69.0789L60.862 66.4429L62.495 63.4479L63.538 60.2L63.754 58.4459" stroke="#292562" stroke-width="2" stroke-linecap="round" stroke-linejoin="round"/>
<path d="M20.9844 39.1661L21.4444 38.0801L22.3164 37.681L22.4374 37.0831L23.1554 36.4761L23.1284 36.173L23.9354 36.1141L24.1264 35.647L25.1204 35.3171L25.5264 34.7061L26.2494 34.7211L27.5204 33.949L28.3694 34.2131L28.7694 33.9531L28.4514 33.8561L30.2334 33.868L30.6024 33.504L32.5314 33.5751L33.2234 34.0651L34.0334 34.1771L36.1534 35.652L36.2964 36.2271L36.7894 36.251L36.5734 36.3691L37.4484 36.7531L37.4364 37.0341L38.1424 37.121L37.4424 37.2731L38.7634 37.6821L38.8444 37.912L38.3754 37.8071L38.7654 37.861L38.6944 38.1981L39.0554 38.1871L38.6884 37.876L39.2904 37.9351L38.8194 37.8091L39.1064 37.8961L38.8774 37.8171L39.5564 37.3721" fill="white"/>
<path d="M20.9844 39.1661L21.4444 38.0801L22.3164 37.681L22.4374 37.0831L23.1554 36.4761L23.1284 36.173L23.9354 36.1141L24.1264 35.647L25.1204 35.3171L25.5264 34.7061L26.2494 34.7211L27.5204 33.949L28.3694 34.2131L28.7694 33.9531L28.4514 33.8561L30.2334 33.868L30.6024 33.504L32.5314 33.5751L33.2234 34.0651L34.0334 34.1771L36.1534 35.652L36.2964 36.2271L36.7894 36.251L36.5734 36.3691L37.4484 36.7531L37.4364 37.0341L38.1424 37.121L37.4424 37.2731L38.7634 37.6821L38.8444 37.912L38.3754 37.8071L38.7654 37.861L38.6944 38.1981L39.0554 38.1871L38.6884 37.876L39.2904 37.9351L38.8194 37.8091L39.1064 37.8961L38.8774 37.8171L39.5564 37.3721" stroke="#292562" stroke-width="5.25" stroke-linecap="round" stroke-linejoin="round"/>
<path d="M53.7715 40.948L54.2315 39.862L55.1035 39.462L55.2255 38.865L55.9425 38.258L55.9155 37.955L56.7225 37.896L56.9135 37.429L57.9075 37.099L58.3135 36.488L59.0365 36.503L60.3085 35.73L61.1565 35.994L61.5575 35.735L61.2385 35.638L63.0215 35.649L63.3895 35.286L65.3185 35.356L66.0105 35.846L66.8205 35.959L68.9405 37.434L69.0845 38.008L69.5775 38.033L69.3615 38.15L70.2365 38.535L70.2235 38.815L70.9305 38.903L70.2305 39.055L71.5505 39.464L71.6325 39.694L71.1625 39.588L71.5525 39.643L71.4815 39.98L71.8425 39.968L71.4755 39.658L72.0775 39.717L71.6065 39.591L71.8945 39.677L71.6645 39.599L72.3445 39.154" fill="white"/>
<path d="M53.7715 40.948L54.2315 39.862L55.1035 39.462L55.2255 38.865L55.9425 38.258L55.9155 37.955L56.7225 37.896L56.9135 37.429L57.9075 37.099L58.3135 36.488L59.0365 36.503L60.3085 35.73L61.1565 35.994L61.5575 35.735L61.2385 35.638L63.0215 35.649L63.3895 35.286L65.3185 35.356L66.0105 35.846L66.8205 35.959L68.9405 37.434L69.0845 38.008L69.5775 38.033L69.3615 38.15L70.2365 38.535L70.2235 38.815L70.9305 38.903L70.2305 39.055L71.5505 39.464L71.6325 39.694L71.1625 39.588L71.5525 39.643L71.4815 39.98L71.8425 39.968L71.4755 39.658L72.0775 39.717L71.6065 39.591L71.8945 39.677L71.6645 39.599L72.3445 39.154" stroke="#292562" stroke-width="5.25" stroke-linecap="round" stroke-linejoin="round"/>
</svg>
