<svg width="90" height="94" viewBox="0 0 90 94" fill="none" xmlns="http://www.w3.org/2000/svg">
<path d="M66.9753 6.86694L59.4743 3.46594L51.4693 1.52997L43.2423 1.12793L35.0863 2.27496L27.2903 4.92993L22.4293 7.49292L17.9283 10.6459L12.0043 16.3669L7.25726 23.098L3.85529 30.5989L2.39728 35.8969L1.61328 41.3359L1.72928 49.5709L3.38626 57.6389L6.52527 65.2529L11.0363 72.1439L16.7573 78.0679L23.4883 82.8149L28.4193 85.241L33.6153 87.03L41.7263 88.4589L49.9613 88.343L58.0293 86.687L65.6433 83.5469L72.5343 79.0369L78.4583 73.3149L83.2053 66.585L86.6073 59.0839L88.5433 51.0789L88.9443 42.8519L87.7973 34.697L86.1903 29.4409L83.9373 24.4299L79.4273 17.538L73.7053 11.614L66.9753 6.86694Z" stroke="#292562" stroke-width="2" stroke-linecap="round" stroke-linejoin="round"/>
<path d="M30.5858 30.451L27.0748 29.144L25.1988 29.006L22.7198 29.371L19.3648 31.036L16.8568 33.819L15.5508 37.33L15.6278 41.075L16.1908 42.87L17.4428 45.041L20.2258 47.548L23.7368 48.854L27.4818 48.777L30.9348 47.326L32.3978 46.142L33.9548 44.179L35.2608 40.669L35.1838 36.923L34.3598 34.557L33.3688 32.958L30.5858 30.451Z" stroke="#292562" stroke-width="2" stroke-linecap="round" stroke-linejoin="round"/>
<path d="M67.3221 31.1201L63.8111 29.813L61.9351 29.675L59.4561 30.04L56.1011 31.7051L53.5941 34.488L52.2871 37.9991L52.3641 41.7441L52.9271 43.54L54.1791 45.7101L56.9621 48.217L60.4731 49.5231L64.2181 49.446L67.6711 47.9951L69.1341 46.8121L70.6911 44.8481L71.9971 41.3381L71.9201 37.5931L71.0961 35.2261L70.1051 33.6271L67.3221 31.1201Z" stroke="#292562" stroke-width="2" stroke-linecap="round" stroke-linejoin="round"/>
<path d="M61.9435 40.735L61.6915 40.829L61.6955 40.592L61.2615 41.186L61.5505 41.4191L60.9105 42.3531L60.9855 42.819L60.4375 44.009L60.5195 44.7371L61.6255 45.2701L61.3105 45.5381L63.0375 46.381L65.1205 46.0171L65.0225 46.1851L65.2475 46.2111L66.9085 45.4791L66.5585 45.079L66.8175 44.9531L66.8005 43.634L67.2795 43.149L66.8935 42.485L66.9445 41.66L67.2585 41.623L66.5925 41.2801L66.7215 40.9521L64.8535 40.123L65.3985 40.063L64.1505 40.4341L64.4805 40.597L64.0605 40.5131L64.0885 40.6811L64.5715 40.5311L64.0535 40.73L64.7395 40.5731L64.1295 40.6191L64.5085 40.4711L64.8565 40.5771L64.2515 40.5171L64.5665 40.5131L64.3455 40.519L64.5235 40.6021L64.6065 40.16L64.6155 40.3671L64.3335 40.285L64.5765 40.376L64.3685 40.3641L64.7495 39.985L65.1955 39.9131" stroke="#292562" stroke-width="5" stroke-linecap="round" stroke-linejoin="round"/>
<path d="M25.5294 39.9821L25.2784 40.0771L25.2824 39.8401L24.8484 40.4341L25.1364 40.6671L24.4974 41.6011L24.5724 42.0671L24.0234 43.2561L24.1054 43.9851L25.2125 44.5181L24.8975 44.7861L26.6245 45.6292L28.7075 45.2641L28.6085 45.4331L28.8335 45.4591L30.4955 44.7271L30.1454 44.3271L30.4044 44.2011L30.3875 42.8821L30.8665 42.3971L30.4804 41.7331L30.5315 40.9081L30.8445 40.8711L30.1794 40.5281L30.3084 40.2001L28.4395 39.3711L28.9854 39.3111L27.7375 39.6812L28.0674 39.8451L27.6465 39.7611L27.6754 39.9281L28.1584 39.7781L27.6404 39.9781L28.3264 39.8211L27.7165 39.8671L28.0955 39.7191L28.4435 39.8251L27.8384 39.7651L28.1534 39.7611L27.9325 39.7672L28.1094 39.8501L28.1924 39.4071L28.2025 39.6151L27.9204 39.5331L28.1635 39.6241L27.9554 39.6121L28.3365 39.2321L28.7824 39.1611" stroke="#292562" stroke-width="5" stroke-linecap="round" stroke-linejoin="round"/>
<path d="M65.1251 24.557L65.0141 25.731L64.3031 26.375L64.3671 26.982L63.8651 27.776L63.9821 28.057L63.2301 28.357L63.1891 28.859L62.3401 29.473L62.1371 30.178L61.4431 30.382L60.4641 31.501L59.5751 31.505L59.2711 31.873L59.6041 31.869L57.9011 32.395L57.6591 32.852L55.7981 33.366L54.9911 33.107L54.1851 33.244L51.7181 32.476L51.4091 31.971L50.9311 32.097L51.1021 31.919L50.1521 31.816L50.0791 31.545L49.3791 31.674L50.0011 31.318L48.6191 31.326L48.4711 31.132L48.9511 31.091L48.5631 31.156L48.5291 30.813L48.1881 30.933L48.6321 31.118L48.0401 31.244L48.5271 31.222L48.2271 31.226L48.4691 31.232L47.9551 31.86" stroke="#292562" stroke-width="5.25" stroke-linecap="round" stroke-linejoin="round"/>
<path d="M38.6105 33.2321L37.6605 33.9311L36.7065 33.829L36.2965 34.2811L35.3695 34.436L35.2385 34.7101L34.5145 34.3481L34.1115 34.652L33.0885 34.428L32.4275 34.746L31.8135 34.3641L30.3255 34.3781L29.7315 33.717L29.2545 33.7361L29.4785 33.9821L27.9525 33.061L27.4505 33.1851L25.8275 32.139L25.4835 31.3651L24.8445 30.8541L23.7755 28.5031L23.9455 27.936L23.5345 27.6631L23.7805 27.6721L23.2245 26.8951L23.3785 26.66L22.8155 26.2241L23.4955 26.4501L22.5695 25.4241L22.6165 25.1851L22.9665 25.5161L22.6585 25.2701L22.8925 25.0161L22.5765 24.8411L22.7335 25.2961L22.2455 24.938L22.5855 25.287L22.3835 25.0651L22.5405 25.2501L21.7285 25.285" stroke="#292562" stroke-width="5.25" stroke-linecap="round" stroke-linejoin="round"/>
<path d="M26.8047 68.3729L77.8927 53.7769" stroke="#292562" stroke-width="2.5" stroke-linecap="round" stroke-linejoin="round"/>
<path d="M30.3867 90.9631L85.8357 75.1201" stroke="#292562" stroke-width="2.5" stroke-linecap="round" stroke-linejoin="round"/>
<path d="M77.6925 59.2249L76.8595 57.4079L76.0385 56.8899L75.1255 54.6499L75.1055 49.7769" stroke="#292562" stroke-width="2.5" stroke-linecap="round" stroke-linejoin="round"/>
<path d="M75.46 49.3621L75.457 50.9821L77.91 57.6091L80.759 68.912L83.475 75.9901" stroke="#292562" stroke-width="2.5" stroke-linecap="round" stroke-linejoin="round"/>
<path d="M30.5568 76.25L29.7248 74.432L28.9038 73.914L27.9908 71.674L27.9668 66.077L28.7718 64.573L28.0388 65.566L28.3268 65.856L28.3218 68.006L30.7758 74.633L33.6248 85.936L36.2318 92.732" stroke="#292562" stroke-width="2.5" stroke-linecap="round" stroke-linejoin="round"/>
<path d="M35.2852 74.998L76.7942 62.79" stroke="#292562" stroke-width="7.25" stroke-linecap="round" stroke-linejoin="round"/>
<path d="M32.8496 75.1401L34.4436 75.1381L35.7186 74.3831L35.4926 74.0541L38.2546 73.8011L46.9216 70.6071L50.4746 70.1691L56.2406 67.5651L60.1946 66.6691L62.7966 65.6061L64.9356 65.313L65.9176 64.7271L66.7866 64.7791L69.6216 63.7161L69.4486 63.5081L69.9756 63.5801" stroke="#292562" stroke-width="7.25" stroke-linecap="round" stroke-linejoin="round"/>
<path d="M36.125 69.3269L37.72 69.3249L38.994 68.5699L38.768 68.2409L41.53 67.9879L50.197 64.7939L53.75 64.3559L59.516 61.7519L63.471 60.8559L66.072 59.7929L68.211 59.4999L69.193 58.9139L70.062 58.9659L72.898 57.9029L72.724 57.6938L73.251 57.7659" stroke="#292562" stroke-width="7.25" stroke-linecap="round" stroke-linejoin="round"/>
<path d="M41.75 80.989L43.344 80.9869L44.618 80.2319L44.392 79.903L47.154 79.6509L55.821 76.4559L59.374 76.0179L65.14 73.4139L69.095 72.5179L71.696 71.455L73.835 71.1619L74.817 70.577L75.686 70.6279L78.522 69.5649L78.348 69.3569L78.875 69.429" stroke="#292562" stroke-width="7.25" stroke-linecap="round" stroke-linejoin="round"/>
<path d="M44.1973 74.9429L44.2313 77.3749L44.7433 78.4639L44.6053 78.8639L45.1033 79.8708L46.9153 81.1649L46.8553 81.8359" stroke="white" stroke-width="2" stroke-linecap="round" stroke-linejoin="round"/>
<path d="M49.9628 70.23L50.1438 70.608L49.4238 71.117L50.0078 71.133L49.6738 71.408L50.1298 72.552L49.8948 73.473L50.5988 74.438L51.7408 77.216L52.6488 82.638L52.4508 83.567" stroke="white" stroke-width="2" stroke-linecap="round" stroke-linejoin="round"/>
<path d="M42.3415 72.0919L41.7215 71.9949L40.9805 72.4999L41.5385 72.5129L48.7205 70.5379L52.1745 69.0479" stroke="white" stroke-width="2" stroke-linecap="round" stroke-linejoin="round"/>
<path d="M44.2716 78.6091L44.1816 78.8871L44.6846 78.972L44.7386 78.5731L52.8156 76.54L55.8326 74.7361" stroke="white" stroke-width="2" stroke-linecap="round" stroke-linejoin="round"/>
<path d="M66.2749 62.9438L64.6399 64.0129L64.1699 65.1069L64.7929 65.8448L64.7829 68.4819L66.6899 71.6189" stroke="white" stroke-width="2" stroke-linecap="round" stroke-linejoin="round"/>
<path d="M68.6801 79.3779L68.5391 80.213L69.9181 79.4009" stroke="white" stroke-width="2" stroke-linecap="round" stroke-linejoin="round"/>
<path d="M74.7578 64.86L77.2288 62.636L78.5288 62.573L79.0938 64.129L78.3878 64.762L78.2758 67.033L77.7488 67.546L77.8388 68.411L77.1808 69.174L77.8588 69.981" stroke="white" stroke-width="2" stroke-linecap="round" stroke-linejoin="round"/>
</svg>
