<svg width="91" height="90" viewBox="0 0 91 90" fill="none" xmlns="http://www.w3.org/2000/svg">
<path d="M75.3666 12.943L68.8726 7.877L61.5446 4.11801L53.6416 1.798L45.4446 1L37.2426 1.752L31.9166 3.104L26.8016 5.112L19.7006 9.285L13.5076 14.714L8.44159 21.208L5.78058 26.016L3.74359 31.12L1.92459 39.153L1.64258 47.384L2.9086 55.522L5.67657 63.279L9.84958 70.38L15.2786 76.573L19.5036 80.087L24.1346 83.045L31.6846 86.337L39.7166 88.156L47.9486 88.438L56.0866 87.172L63.8436 84.404L70.9446 80.231L77.1376 74.802L82.2036 68.308L85.9626 60.98L88.2826 53.078L89.0806 44.88L88.7516 39.395L87.7366 33.994L84.9686 26.237L80.7956 19.137L75.3666 12.943Z" fill="white" stroke="#292562" stroke-width="2" stroke-linecap="round" stroke-linejoin="round"/>
<path d="M34.4607 27.3341L31.3537 25.2401L29.5627 24.6661L27.0677 24.4401L23.4147 25.2711L20.3247 27.3881L18.2307 30.4951L17.4277 34.1541L17.5537 36.0311L18.2617 38.4341L20.3787 41.5241L23.4857 43.6181L27.1447 44.4211L30.8417 43.8201L32.5407 43.0131L34.5147 41.4701L36.6087 38.3631L37.4117 34.7041L37.1657 32.2111L36.5777 30.4241L34.4607 27.3341Z" fill="white" stroke="#292562" stroke-width="2" stroke-linecap="round" stroke-linejoin="round"/>
<path d="M70.0164 36.601L66.9104 34.507L65.1184 33.933L62.6234 33.707L58.9704 34.538L55.8804 36.656L53.7874 39.762L52.9844 43.421L53.1094 45.298L53.8174 47.701L55.9354 50.791L59.0414 52.885L62.7004 53.688L66.3974 53.088L68.0974 52.28L70.0704 50.737L72.1644 47.631L72.9674 43.972L72.7224 41.478L72.1334 39.691L70.0164 36.601Z" fill="white" stroke="#292562" stroke-width="2" stroke-linecap="round" stroke-linejoin="round"/>
<path d="M25.3531 52.828L24.9551 55.145L25.0161 58.555L25.7151 61.894L27.0281 65.042L29.6491 68.753L32.1771 71.043L35.0891 72.819L39.3911 74.281L42.7821 74.647L46.1821 74.372L49.4701 73.464L52.5301 71.957L55.2531 69.902L57.5431 67.374L59.3191 64.462L59.9401 62.807" fill="white"/>
<path d="M25.3531 52.828L24.9551 55.145L25.0161 58.555L25.7151 61.894L27.0281 65.042L29.6491 68.753L32.1771 71.043L35.0891 72.819L39.3911 74.281L42.7821 74.647L46.1821 74.372L49.4701 73.464L52.5301 71.957L55.2531 69.902L57.5431 67.374L59.3191 64.462L59.9401 62.807" stroke="#292562" stroke-width="2" stroke-linecap="round" stroke-linejoin="round"/>
<path d="M62.53 44.686L62.263 44.719L62.324 44.489L61.762 44.964L61.988 45.259L61.147 46.017L61.111 46.487L60.299 47.515L60.207 48.242L61.1581 49.02L60.789 49.207L62.2701 50.431L64.381 50.566L64.245 50.706L64.458 50.784L66.245 50.463L65.999 49.991L66.2791 49.93L66.5721 48.643L67.152 48.284L66.932 47.548L67.175 46.758L67.489 46.796L66.922 46.307L67.125 46.018L65.5031 44.774L66.047 44.844L64.747 44.911L65.0291 45.147L64.64 44.967L64.629 45.137L65.134 45.104L64.583 45.176L65.287 45.185L64.683 45.087L65.086 45.032L65.399 45.216L64.825 45.016L65.133 45.086L64.917 45.039L65.07 45.162L65.254 44.751L65.2141 44.955L64.9601 44.81L65.175 44.955L64.975 44.894L65.435 44.615L65.885 44.65" fill="white"/>
<path d="M62.53 44.686L62.263 44.719L62.324 44.489L61.762 44.964L61.988 45.259L61.147 46.017L61.111 46.487L60.299 47.515L60.207 48.242L61.1581 49.02L60.789 49.207L62.2701 50.431L64.381 50.566L64.245 50.706L64.458 50.784L66.245 50.463L65.999 49.991L66.2791 49.93L66.5721 48.643L67.152 48.284L66.932 47.548L67.175 46.758L67.489 46.796L66.922 46.307L67.125 46.018L65.5031 44.774L66.047 44.844L64.747 44.911L65.0291 45.147L64.64 44.967L64.629 45.137L65.134 45.104L64.583 45.176L65.287 45.185L64.683 45.087L65.086 45.032L65.399 45.216L64.825 45.016L65.133 45.086L64.917 45.039L65.07 45.162L65.254 44.751L65.2141 44.955L64.9601 44.81L65.175 44.955L64.975 44.894L65.435 44.615L65.885 44.65" stroke="#292562" stroke-width="5" stroke-linecap="round" stroke-linejoin="round"/>
<path d="M27.3113 35.414L27.0443 35.447L27.1053 35.217L26.5433 35.693L26.7693 35.987L25.9283 36.745L25.8913 37.216L25.0803 38.243L24.9883 38.97L25.9393 39.749L25.5703 39.935L27.0513 41.16L29.1623 41.294L29.0263 41.434L29.2393 41.512L31.0263 41.191L30.7803 40.72L31.0603 40.658L31.3533 39.372L31.9333 39.013L31.7133 38.277L31.9563 37.486L32.2703 37.524L31.7033 37.035L31.9063 36.746L30.2843 35.502L30.8283 35.572L29.5283 35.639L29.8103 35.876L29.4213 35.695L29.4103 35.865L29.9153 35.832L29.3643 35.904L30.0683 35.913L29.4643 35.815L29.8673 35.76L30.1803 35.944L29.6063 35.744L29.9143 35.814L29.6983 35.768L29.8513 35.89L30.0353 35.48L29.9953 35.684L29.7413 35.538L29.9563 35.683L29.7563 35.623L30.2163 35.343L30.6663 35.378" fill="white"/>
<path d="M27.3113 35.414L27.0443 35.447L27.1053 35.217L26.5433 35.693L26.7693 35.987L25.9283 36.745L25.8913 37.216L25.0803 38.243L24.9883 38.97L25.9393 39.749L25.5703 39.935L27.0513 41.16L29.1623 41.294L29.0263 41.434L29.2393 41.512L31.0263 41.191L30.7803 40.72L31.0603 40.658L31.3533 39.372L31.9333 39.013L31.7133 38.277L31.9563 37.486L32.2703 37.524L31.7033 37.035L31.9063 36.746L30.2843 35.502L30.8283 35.572L29.5283 35.639L29.8103 35.876L29.4213 35.695L29.4103 35.865L29.9153 35.832L29.3643 35.904L30.0683 35.913L29.4643 35.815L29.8673 35.76L30.1803 35.944L29.6063 35.744L29.9143 35.814L29.6983 35.768L29.8513 35.89L30.0353 35.48L29.9953 35.684L29.7413 35.538L29.9563 35.683L29.7563 35.623L30.2163 35.343L30.6663 35.378" stroke="#292562" stroke-width="5" stroke-linecap="round" stroke-linejoin="round"/>
</svg>
