<svg width="91" height="90" viewBox="0 0 91 90" fill="none" xmlns="http://www.w3.org/2000/svg">
<path d="M67.2067 7.38885L59.7057 3.98785L51.7007 2.05188L43.4747 1.6499L35.3187 2.79688L27.5227 5.4519L22.6617 8.01489L18.1607 11.1669L12.2367 16.8889L7.48972 23.6199L4.08771 31.1208L2.62869 36.4189L1.8457 41.8578L1.9617 50.0929L3.61771 58.1609L6.75769 65.7749L11.2677 72.6659L16.9897 78.5899L23.7197 83.3369L28.6507 85.7629L33.8467 87.5519L41.9577 88.9809L50.1937 88.8649L58.2607 87.2079L65.8757 84.0688L72.7667 79.5589L78.6907 73.8369L83.4377 67.1069L86.8387 59.6059L88.7747 51.6009L89.1767 43.3739L88.0297 35.2189L86.4227 29.9629L84.1697 24.9509L79.6587 18.0599L73.9377 12.1359L67.2067 7.38885Z" stroke="#292562" stroke-width="2" stroke-linecap="round" stroke-linejoin="round"/>
<path d="M30.8172 30.9731L27.3062 29.6661L25.4302 29.5281L22.9512 29.8931L19.5952 31.558L17.0882 34.3411L15.7812 37.8521L15.8592 41.597L16.4212 43.3921L17.6732 45.563L20.4562 48.0701L23.9672 49.376L27.7122 49.2991L31.1662 47.8481L32.6282 46.6641L34.1852 44.701L35.4922 41.1901L35.4142 37.4451L34.5912 35.079L33.6003 33.48L30.8172 30.9731Z" stroke="#292562" stroke-width="2" stroke-linecap="round" stroke-linejoin="round"/>
<path d="M67.5545 31.642L64.0435 30.335L62.1675 30.197L59.6885 30.562L56.3326 32.227L53.8255 35.01L52.5195 38.521L52.5965 42.266L53.1585 44.062L54.4106 46.232L57.1945 48.739L60.7045 50.045L64.4496 49.968L67.9035 48.517L69.3655 47.333L70.9225 45.37L72.2296 41.86L72.1516 38.115L71.3286 35.748L70.3376 34.149L67.5545 31.642Z" stroke="#292562" stroke-width="2" stroke-linecap="round" stroke-linejoin="round"/>
<path d="M62.174 41.2571L61.922 41.3511L61.927 41.1141L61.493 41.7081L61.781 41.941L61.142 42.8751L61.216 43.3411L60.668 44.5311L60.75 45.259L61.857 45.7921L61.542 46.0601L63.269 46.9031L65.352 46.5391L65.253 46.707L65.478 46.733L67.14 46.001L66.79 45.6011L67.049 45.475L67.032 44.1561L67.511 43.6711L67.124 43.0071L67.175 42.1821L67.489 42.1451L66.824 41.8021L66.953 41.4741L65.084 40.6451L65.629 40.5851L64.381 40.9551L64.712 41.1191L64.291 41.035L64.32 41.2031L64.803 41.0521L64.284 41.2521L64.971 41.095L64.361 41.1411L64.739 40.993L65.087 41.0991L64.483 41.0391L64.798 41.035L64.577 41.0411L64.754 41.1241L64.837 40.6821L64.846 40.889L64.565 40.8071L64.808 40.8981L64.6 40.886L64.981 40.506L65.427 40.4351" stroke="#292562" stroke-width="5" stroke-linecap="round" stroke-linejoin="round"/>
<path d="M25.7618 40.5042L25.5099 40.5991L25.5149 40.3621L25.0808 40.9551L25.3688 41.1891L24.7289 42.1221L24.8038 42.5891L24.2559 43.7781L24.3379 44.5061L25.4449 45.0401L25.1299 45.3081L26.8558 46.1511L28.9398 45.7861L28.8409 45.9541L29.0659 45.9811L30.7278 45.2491L30.3778 44.8491L30.6358 44.7231L30.6188 43.4041L31.0978 42.9191L30.7119 42.2551L30.7628 41.4301L31.0768 41.3931L30.4109 41.0501L30.5399 40.7221L28.6718 39.8931L29.2169 39.8331L27.9688 40.2031L28.2989 40.3671L27.8788 40.2831L27.9078 40.4501L28.3908 40.3001L27.8719 40.5001L28.5588 40.3431L27.9489 40.3891L28.3268 40.2411L28.6748 40.3471L28.0699 40.2871L28.3858 40.2831L28.1638 40.2881L28.3419 40.3711L28.4248 39.9291L28.4338 40.1371L28.1519 40.0551L28.3958 40.1461L28.1878 40.1341L28.5688 39.7542L29.0149 39.6831" stroke="#292562" stroke-width="5" stroke-linecap="round" stroke-linejoin="round"/>
<path d="M63.0792 74.675L62.9242 72.329L62.0642 69.0281L60.6012 65.9471L58.5872 63.194L55.1692 60.201L52.1742 58.5681L48.9262 57.5251L44.4022 57.113L41.0192 57.5521L37.7792 58.6171L34.7952 60.2711L32.1742 62.454L30.0092 65.0901L28.3762 68.0851L27.3332 71.3331L27.1172 73.087" stroke="#292562" stroke-width="2" stroke-linecap="round" stroke-linejoin="round"/>
<path d="M63.8585 73.3831L63.7025 71.037L62.8435 67.7361L61.3805 64.6541L59.3655 61.9011L55.9475 58.9091L52.9535 57.2761L49.7055 56.233L45.1815 55.821L41.7985 56.2601L38.5575 57.3251L35.5745 58.9781L32.9535 61.162L30.7875 63.7971L29.1545 66.7921L28.1115 70.04L27.8965 71.7941" stroke="#292562" stroke-width="2" stroke-linecap="round" stroke-linejoin="round"/>
<path d="M65.3575 25.0791L65.2465 26.2531L64.5345 26.8971L64.5985 27.5031L64.0975 28.2981L64.2145 28.5791L63.4625 28.8792L63.4205 29.3811L62.5725 29.9951L62.3695 30.7001L61.6755 30.9041L60.6955 32.0231L59.8065 32.0261L59.5025 32.3951L59.8355 32.3911L58.1325 32.9171L57.8905 33.3741L56.0305 33.8881L55.2225 33.6292L54.4165 33.7661L51.9505 32.9981L51.6405 32.4931L51.1635 32.6191L51.3335 32.4411L50.3835 32.3381L50.3115 32.0671L49.6105 32.1961L50.2325 31.8401L48.8505 31.8481L48.7035 31.6531L49.1835 31.6121L48.7955 31.6781L48.7615 31.3351L48.4205 31.4551L48.8635 31.6401L48.2715 31.7661L48.7595 31.7441L48.4585 31.7481L48.7015 31.7542L48.1875 32.3821" stroke="#292562" stroke-width="5.25" stroke-linecap="round" stroke-linejoin="round"/>
<path d="M38.8419 33.7541L37.8919 34.4531L36.9389 34.3511L36.5289 34.8021L35.6019 34.9581L35.4699 35.2321L34.7459 34.8701L34.3439 35.1741L33.3199 34.9501L32.6589 35.2681L32.045 34.8851L30.558 34.9001L29.963 34.2391L29.4869 34.2581L29.7109 34.5041L28.1839 33.5831L27.6819 33.707L26.0599 32.6611L25.7149 31.886L25.0759 31.376L24.0069 29.0251L24.1779 28.4581L23.7659 28.1851L24.0119 28.194L23.4559 27.4171L23.6099 27.1821L23.0479 26.7451L23.7269 26.972L22.8009 25.946L22.8479 25.707L23.1979 26.0381L22.8909 25.7921L23.1239 25.5381L22.808 25.363L22.9649 25.8181L22.4769 25.459L22.8179 25.8091L22.6149 25.587L22.7719 25.772L21.9609 25.8071" stroke="#292562" stroke-width="5.25" stroke-linecap="round" stroke-linejoin="round"/>
</svg>
