<svg width="63" height="90" viewBox="0 0 63 90" fill="none" xmlns="http://www.w3.org/2000/svg">
<path d="M33.0773 5.3617L31.3736 4.52295L31.5729 4.59083L31.2403 4.6151L30.8418 4.90598" stroke="#292562" stroke-width="1.21208" stroke-linecap="round" stroke-linejoin="round"/>
<path d="M27.253 9.04672L25.9585 11.0345L25.9522 11.6987L25.6627 12.0478L25.5628 12.7411L25.0111 13.8853L25.0901 14.7725L24.0124 18.5591L24.2184 19.3881L24.0007 20.0427L23.8965 24.4401L24.0371 25.3273L24.3866 25.8946L24.4376 27.4799L24.7183 28.2751L26.0452 30.1902L26.3623 30.9562L28.1698 33.0701L29.0643 34.6264L29.9816 35.4409L33.8937 36.396L36.9409 36.5027L37.638 36.3427L40.6542 34.3985L42.4262 32.4253L43.9636 31.1938L44.5096 30.4132L44.6841 29.7538L45.1491 29.2642L45.9616 27.4945L47.275 21.8947L47.0806 21.2693L47.2712 20.1784L47.0709 18.7142L47.147 17.0319L46.5551 14.1762L46.1774 13.6817L46.556 12.5714L46.0421 11.8781L46.0809 11.3545L45.7609 11.2188L45.8079 10.7921L45.2824 10.2976L43.9651 7.04922L43.4061 6.29771L41.0978 5.2456L40.2649 4.54747L38.9476 4.50865L35.993 3.49537L35.2789 3.67475L34.0513 3.46631L31.3566 3.82508L30.3942 4.179L29.4958 4.78018L29.474 4.81895" stroke="#292562" stroke-width="1.21208" stroke-linecap="round" stroke-linejoin="round"/>
<path d="M27.7004 6.78223L26.8151 8.23187L26.4525 8.42581L26.5829 8.45002L26.3996 8.66337L26.578 9.83183L26.1649 10.3845L26.1543 10.8548L26.3153 10.9033" stroke="#292562" stroke-width="1.21208" stroke-linecap="round" stroke-linejoin="round"/>
<path d="M33.6561 6.37012L33.3652 6.64159" stroke="#292562" stroke-width="1.21208" stroke-linecap="round" stroke-linejoin="round"/>
<path d="M27.332 9.89951L27.3921 10.234L27.5594 10.1371L27.685 10.234L27.5609 10.3068L27.8076 10.297L27.7116 10.6316L28.1155 11.0631L28.1902 11.4509L28.5727 11.6061L28.6731 11.7661L28.5281 11.8097L28.8428 12.0618L28.7744 12.4933L29.3271 12.6873L29.4779 13.0897L33.6479 15.9841L34.5449 16.7308L34.621 17.1283L35.1068 17.172L38.4987 20.0761L39.7699 20.7694L40.4181 20.8276L42.227 21.5403L43.9162 21.5161L45.1656 21.7682L45.9718 21.6712L48.5395 20.6676L49.1422 20.0421L49.5029 19.9888L49.6323 19.7173L50.6199 19.2664L50.235 19.0434L50.1113 19.1791L50.5021 19.281L50.1419 19.2907L50.5438 19.0773L50.233 19.087L50.505 19.0676L50.7542 18.767L50.4347 19.1161L50.7983 19.1888H50.2912L50.8667 19.2373L50.2752 19.3003L50.568 19.0773L50.3649 19.0531L49.7943 16.1975L49.5198 15.6593L49.6406 15.1066L48.9065 14.452L48.7737 13.8315L48.1512 13.3854L48.2981 13.0557L47.7071 12.7309L47.6368 12.3333L46.5827 11.2473L45.3968 9.47765L44.7539 9.27892L44.5949 8.87647L43.7615 8.2026L43.7702 8.00381L43.137 7.60621L43.0575 7.36865L42.084 6.88867" stroke="#292562" stroke-width="1.21208" stroke-linecap="round" stroke-linejoin="round"/>
<path d="M33.6322 6.62744H33.6032L33.3457 6.7583" stroke="#292562" stroke-width="1.21208" stroke-linecap="round" stroke-linejoin="round"/>
<path d="M33.8984 7.21412L34.8216 7.17529" stroke="#292562" stroke-width="1.21208" stroke-linecap="round" stroke-linejoin="round"/>
<path d="M37.3789 9.18213L38.0669 9.71549L40.0615 10.5833L40.5904 11.5336L41.242 12.3432L41.8757 12.6923L42.2844 13.4099L43.3637 15.3783L43.896 17.1431L44.2456 17.5649L44.0546 17.9624L44.4613 18.4472L44.6732 19.6254L45.0863 19.9066L44.918 20.0812L45.3442 20.406L45.8693 20.1442L45.397 20.0327" stroke="#292562" stroke-width="1.21208" stroke-linecap="round" stroke-linejoin="round"/>
<path d="M33.3066 10.8838L35.6508 13.3661L36.6937 15.5867L38.9864 17.5309L40.2014 18.1854L40.4526 18.7235L41.0436 19.2568L42.3104 19.572" stroke="#292562" stroke-width="1.21208" stroke-linecap="round" stroke-linejoin="round"/>
<path d="M26.666 18.9615L26.5273 21.3808L26.9496 22.205L26.7397 22.7238L26.8585 23.8728L26.7159 24.2704L27 25.0073L26.9457 25.7976L27.2051 25.9285L26.9099 26.0303L27.2556 25.9382L27.1135 26.0012L27.178 26.3454L27.4645 26.3067L27.1615 26.2485L27.3826 26.2776L27.1033 26.4036L27.768 26.2048L31.27 26.5151L31.827 26.36L32.227 26.0061L32.6265 26.1079L33.1351 25.9818L32.9465 25.9964L33.0924 25.8655L34.4994 25.7637L35.0274 26.0933L34.7283 26.0303L34.8587 25.3709L34.4853 24.251L34.7952 23.7225L34.6051 23.2862L34.8606 22.7771L34.6342 22.4862L34.5697 21.8511L34.8107 21.3372L34.5576 21.1965L34.6672 20.8184L34.4349 20.4644L34.6958 20.1881L34.3913 20.1154L34.8272 19.9457L34.6536 19.8827L34.7559 19.5821L35.1176 19.296L34.9086 19.2815L35.071 19.2863L34.9566 19.1215L35.2073 18.8257L35.0482 18.8354L35.2499 18.7627L34.9459 18.6657L35.041 18.8112L34.6643 18.9857L34.7714 19.1796L33.5715 19.5093L32.5063 18.9906L31.2467 18.913L30.6959 18.4379L29.2628 18.1082L29.1925 17.9531L28.2577 18.1276L27.7171 17.6912L27.3094 17.7009L27.5508 17.6428L27.3065 17.5312L27.0073 17.6718L27.4252 17.5894L27.5736 17.7058L27.3341 17.8658" stroke="#292562" stroke-width="1.21208" stroke-linecap="round" stroke-linejoin="round"/>
<path d="M33.7365 22.811L33.3516 23.5044L33.9639 23.0923L36.885 23.1068L37.9929 22.748L38.2842 23.1746L39.1104 22.748" stroke="#292562" stroke-width="1.21208" stroke-linecap="round" stroke-linejoin="round"/>
<path d="M38.6726 20.27L38.133 20.9197L38.3448 21.2785L38.148 21.5985L38.0859 22.6893L38.2959 23.0578L38.1621 23.4457L38.3453 23.9548L38.2556 24.779L38.5751 25.5935L38.3691 26.1462L38.5465 26.4904L38.3448 26.4468L38.6425 26.5632L38.7143 27.1837L39.0764 27.1886L38.645 27.1255L39.0866 27.208L38.8723 27.6055L39.1249 27.4407L38.9276 27.5328L39.6733 27.8916L39.4556 27.8479L39.6166 27.688L41.777 27.1692L43.2518 27.5134L44.6864 27.1352L44.2695 27.1498L44.6064 27.0868L44.3849 27.0916L44.556 27.014L44.4324 26.6601" stroke="#292562" stroke-width="1.21208" stroke-linecap="round" stroke-linejoin="round"/>
<path d="M43.752 27.2568L44.4957 27.1841L44.439 26.4908L44.8137 24.8036L44.8268 23.5964L44.6237 23.291L44.7405 22.8013" stroke="#292562" stroke-width="1.21208" stroke-linecap="round" stroke-linejoin="round"/>
<path d="M28.7191 20.1005L28.995 20.0423L29.1681 20.3769L29.7353 20.6338L31.4579 19.7563L32.6186 19.7466L32.4387 19.6884L32.4921 19.4945L31.4429 19.2084L28.45 18.9806L28.6701 19.0097L28.4258 19.1503L28.7482 19.2182L30.0141 19.3102L32.8339 18.8787L33.1 18.6896L32.9396 18.8109L33.0409 18.6267L32.7941 18.6751L33.8714 18.5491L34.0702 18.326L34.2205 18.4376L33.9752 18.5248L34.0682 18.6267L33.8336 18.6121L34.1691 18.6363L33.9437 18.3115L34.0106 18.4521L33.7555 18.4133L33.9083 18.4085L33.6683 18.7382" stroke="#292562" stroke-width="1.21208" stroke-linecap="round" stroke-linejoin="round"/>
<path d="M30.017 19.5045L30.4349 18.0645L30.6007 17.7979L30.5454 17.9821L30.7238 18.0064L30.3985 18.6366L30.2899 19.7711L29.5515 22.7043L28.8858 23.5916L29.2485 23.4801L28.9096 23.8098L29.1549 23.8485L28.7637 23.6158" stroke="#292562" stroke-width="1.21208" stroke-linecap="round" stroke-linejoin="round"/>
<path d="M33.0261 19.5918L33.0867 19.902L32.5466 20.8087L32.3197 21.7638L31.7907 22.3796L29.4141 26.7042L30.2514 26.2776" stroke="#292562" stroke-width="1.21208" stroke-linecap="round" stroke-linejoin="round"/>
<path d="M33.2951 21.4966L32.0016 22.699L31.9555 23.3341L31.123 24.5801L31.1512 24.745L31.4808 24.7546" stroke="#292562" stroke-width="1.21208" stroke-linecap="round" stroke-linejoin="round"/>
<path d="M42.1916 22.6509L41.3237 24.0278L40.3938 26.5005L40.0215 26.8641L40.2978 26.2726L42.4912 23.7951L43.1729 23.3345L44.2739 23.0048L43.9661 23.4993L44.0858 24.1733L43.759 24.3914L44.2531 24.5563L44.2211 24.8956L45.2814 24.4108L45.6256 23.9551" stroke="#292562" stroke-width="1.21208" stroke-linecap="round" stroke-linejoin="round"/>
<path d="M28.7365 33.1328L27.8663 33.4577L27.9375 33.5982L28.068 33.351L27.9535 33.3365L28.098 33.4577L27.9463 33.6613L28.0704 33.9376L27.9618 34.7813L28.308 35.6054L28.3608 36.0321L28.1853 36.0758L28.2052 36.2115L28.5814 36.6333L28.2769 37.4575L28.4602 37.7096L28.3986 38.2527L28.5727 38.4757L28.4781 39.7702L28.6682 40.221L28.4364 40.4344L28.6095 40.9726L28.417 41.5932L28.6231 42.0392L28.3588 42.1362L27.8265 43.6633L27.3984 44.0609L27.3233 44.5069L26.9829 45.0354L26.6304 45.1906L25.8537 45.976L25.4203 46.1602L25.2787 46.5433L24.7478 46.7614L24.2121 47.2317L24.1481 47.4887L23.5464 48.0317L23.7069 48.1287L23.0073 48.5456L22.7009 48.9092L22.0633 49.0499L22.2912 49.0353L20.5017 50.4898L20.6355 50.548L19.8845 51.4595L20.1773 51.377L19.8796 51.2898L20.0513 51.3673L19.6906 51.5855L19.5723 52.2013L19.0288 52.7151L18.301 54.5527L18.206 54.4702L18.0101 54.6399L17.695 55.6144L17.5049 55.6726L17.6218 55.7066L17.551 55.9344L16.6109 56.8556L16.7976 56.972L16.6497 57.0689L16.6512 57.5586L16.1266 58.3586L15.6776 59.6579L15.442 59.8761L15.2214 61.0252L14.7341 61.4857L14.865 61.9075L14.5208 63.0324L14.194 63.2118L13.6854 64.1911L13.763 64.4093L12.9141 66.562L11.8654 68.7049L11.4862 69.1267L11.0877 70.3776L10.4705 71.0806L10.1428 71.8902L10.0773 72.6466L9.72777 73.0635L9.56632 73.7762L8.71205 74.8137L8.98694 75.0707L8.93555 75.2065L8.45702 75.4634L7.63281 76.4719L7.63087 76.8112L7.37148 77.2573L7.49075 77.233L7.31573 77.2961L7.30021 77.6355L6.60352 78.8912" stroke="#292562" stroke-width="0.969662" stroke-linecap="round" stroke-linejoin="round"/>
<path d="M29.7409 4.73682L29.8315 4.88223L29.8713 4.77073L29.4349 4.79499L28.9166 5.17797L28.826 5.41559L28.9118 5.28953L28.632 5.3283L28.3896 5.51253L28.5269 5.5368L28.4139 5.6628L28.0701 5.67736L28.0086 5.76466H28.1923L27.755 6.10887L27.7497 6.41431L27.5475 6.61796L27.6289 6.71976L27.3584 6.67614L27.6192 6.7052L27.2236 7.07853L27.3434 7.26762L26.9943 7.68457L27.1339 7.82519L26.9099 8.95482L27.0389 9.30874L26.7422 9.44451L26.9778 9.56572L26.8202 9.82269L26.9521 10.099L26.7984 10.0311L27.1179 10.739L27.0064 11.3014" stroke="#292562" stroke-width="0.969662" stroke-linecap="round" stroke-linejoin="round"/>
<path d="M26.1678 4.40669L26.002 4.38728H26.2211L26.1809 4.1061L26.0107 4.09154L26.2279 4.02851L26.018 4.01401L26.257 3.99945L26.0708 4.01886L26.2405 3.98975L26.5721 4.38249L27.1971 4.59093L27.3241 4.88182L27.9704 5.3715L28.2215 5.98239L28.6244 5.89031" stroke="#292562" stroke-width="0.969662" stroke-linecap="round" stroke-linejoin="round"/>
<path d="M25.6949 4.07705L25.7749 3.78125L25.8874 4.14008L26.0115 4.12552L25.805 4.12067L25.771 4.47944L25.3216 4.89639L25.4481 5.10489L25.1155 5.58972L25.2052 6.01637L24.8964 6.36544L24.7422 7.26722L24.4746 7.57266L24.7034 7.85384L24.3699 8.38715L24.2302 8.97383L24.3776 9.35201L24.2327 9.4441L24.2288 9.9677L24.0126 10.3071L24.173 10.5932L24.0644 11.0004L24.1788 11.1798L23.999 11.6792L23.9122 12.7749L24.0324 13.0222L23.8783 13.1143L24.0911 13.1579L23.9432 13.4876L23.9515 13.3809L23.808 13.4488L23.8206 13.8512L23.6518 13.9434L23.8676 14.05L23.6979 14.0354L23.6087 14.5203L23.8249 14.7094L23.4477 14.8597L23.7512 14.8354L23.5311 14.9324L23.7454 15.0051L23.536 15.1748L23.8055 15.2572L23.5078 15.2039L23.6354 15.4027L23.8448 15.3445L23.55 15.3397L23.4434 16.1105L23.5292 15.9651L23.4681 16.3578L23.7255 16.673L23.4676 16.6972L23.6664 16.7845L23.4574 16.9105L23.6465 16.9541L23.6392 17.9529L23.488 18.045L23.8865 18.1226L23.6974 18.142L23.6145 18.3989L23.838 18.6705L23.6305 18.6753L24.1304 19.6837L24.0736 20.3431" stroke="#292562" stroke-width="0.969662" stroke-linecap="round" stroke-linejoin="round"/>
<path d="M27.1105 3.59702L26.7338 3.72787L27.063 3.68911L26.7968 3.73758L26.9427 3.62122L26.6252 3.5776L26.9398 3.55819L26.7658 3.42243L26.9568 3.41757L26.7391 3.42728L26.8002 3.22854L26.5723 3.1558L26.7415 3.08307L26.4235 2.88912L26.1699 3.00548L26.9389 2.87942L27.0955 2.66127L27.7975 2.33641L28.502 2.34611L29.4823 1.96793L29.7703 1.9922L30.9087 1.44434H32.6856L34.3219 1.84672L35.2266 2.29279L35.3866 2.414L35.3066 2.49159L35.5955 2.46732L35.869 2.70489L36.6054 2.88912L36.7465 3.09763L37.6842 3.51457L37.6134 3.58731L39.0844 4.08185L40.0026 4.50844L40.0109 4.62965L40.5326 4.72665L40.4865 4.84786L40.9558 4.88663L41.35 5.30357L42.3119 5.62843L42.9087 6.13267L43.4566 6.32656L43.4968 6.60295L43.9075 6.89383L44.4544 7.07807L44.2454 7.24775L45.0439 7.72773L45.8235 8.93495L46.2143 8.99313L46.1343 9.31799L46.5159 9.61858L46.4567 9.81253L47.0186 10.4525L47.072 10.3604L47.1287 10.6174L47.5558 10.9567L47.5699 11.3349L48.0911 11.5094L47.9379 11.5579L48.0057 11.6888L48.4532 11.7276L48.1745 11.8779L48.2995 12.067L48.1856 12.1349L49.1243 12.8476L49.0035 13.0512L49.5034 13.2791L49.4375 13.5021L49.7259 13.7154L49.7313 14.0257L50.1254 14.2633L49.9174 14.3215L50.1943 14.6075L50.347 15.1505L50.5477 15.262L50.4207 15.4657L50.649 15.7371L50.6127 16.1978L50.9264 16.5517L50.9753 16.8813L51.2187 17.0414L51.1222 17.2353L51.6706 17.7104L51.4228 17.7056H51.5867L51.4005 17.5941L51.5106 17.4729L50.7058 16.9008L50.7101 16.4692" stroke="#292562" stroke-width="0.969662" stroke-linecap="round" stroke-linejoin="round"/>
<path d="M32.1982 4.75537L32.0605 5.05596L32.077 4.92996L32.2375 4.96387L32.1721 5.09479L32.7825 5.8608L33.6382 6.83532L34.2622 7.26197L34.283 7.52865L34.9245 8.40616L34.9118 8.61952L35.1775 8.73587L35.2793 9.15282L35.8558 9.53101L36.2975 10.3795L36.6151 10.6461L36.5525 10.9273L37.1198 11.1552L37 11.2473L37.1139 11.6109L37.6914 12.2945L37.592 12.4788L38.0918 12.7163L38.0366 12.8472L38.2063 12.8521L39.556 14.3842L39.4276 14.5878L40.2169 15.1453L41.0164 16.4883L41.3131 16.5416L41.2001 16.6289L41.5472 16.8665L41.6461 17.1574L41.5303 17.2204L41.9826 17.4967L42.2721 18.0204L42.786 18.481L43.2223 18.5052L43.1952 18.2531L43.5268 17.9913L43.3309 17.744" stroke="#292562" stroke-width="0.969662" stroke-linecap="round" stroke-linejoin="round"/>
<path d="M34.5761 4.4845L34.0903 4.52326L34.0922 4.15479L34.0462 4.31967L33.332 4.38749L33.3616 4.4845L36.4413 6.07961L38.5255 7.70378L39.0438 7.82014L39.1592 8.06741L39.6625 8.31953L39.7546 8.65889L40.3558 8.8916L40.4978 9.22616L41.228 9.78367L41.2474 10.0406L41.7676 10.4188L41.9354 10.9037L42.4454 11.243L42.6161 11.5388L42.5176 11.6794L44.0056 12.2612L43.897 12.3145L44.2815 12.4406L44.8759 13.0854L46.4215 14.1084L46.805 14.6562L47.2554 14.729L47.0872 14.8114L47.1347 15.0441L47.4202 15.209L47.5133 15.3981L47.4043 15.4271L47.9201 15.6356L47.7771 15.781L47.8256 16.0331L48.3119 16.3774L48.3075 16.6392L48.6163 16.7362L48.5145 16.8525L49.0769 17.1968L48.9659 17.2986L49.3368 17.3374L49.2156 17.4683L49.619 17.7689L49.4914 17.8174L50.0165 17.7834L50.0034 17.8852" stroke="#292562" stroke-width="0.969662" stroke-linecap="round" stroke-linejoin="round"/>
<path d="M27.367 3.59674H27.2546L27.4655 3.67912L27.2444 3.24761L27.1246 3.3252L27.2371 3.35911L27.2003 3.12641L26.9729 3.12155L27.2662 3.1167L26.9336 3.20399L27.0752 3.16523L27.3249 3.45612L27.7578 4.44519L28.39 5.09L29.4227 6.72873L29.6651 6.87414L29.9536 7.63536L30.4806 8.00869L30.5131 8.40137L31.0149 9.00256L31.0891 9.55527L31.3514 9.72495L31.1468 9.73951L32.1877 10.5831L32.5974 10.6753L32.4452 10.8062L33.3339 11.2764L33.3082 11.5673L33.5297 11.5479L33.6834 11.7806L34.2337 12.0085L34.2594 12.377" stroke="#292562" stroke-width="0.969662" stroke-linecap="round" stroke-linejoin="round"/>
<path d="M28.2249 21.5259L27.8856 20.7599L28.0441 21.3999L28.0712 23.1307L28.6162 24.8616L28.5168 24.624L28.7001 24.4155L28.5052 24.018L28.4009 23.0435L28.544 22.4665L28.4368 21.7005L28.6797 21.172L28.5323 20.818L28.2017 22.578L28.1629 23.4895L28.4111 23.3149L28.174 23.281L28.5129 22.4326L28.1847 21.7198L28.3345 21.5453L28.3185 21.1283L28.382 22.3404L28.0892 23.4798L28.2342 23.4895L28.303 23.7561L28.1769 23.7028L28.2797 23.5331L27.712 22.0641L27.8182 22.4907L27.5263 23.184L27.3789 24.7161L27.5181 24.8955L27.9127 23.4361L28.0494 21.5017L28.3583 20.7938L28.3956 19.7466L28.1653 19.8048L28.3946 20.2266L28.0315 22.0738L28.047 25.487L27.9127 25.3949L28.1411 25.1088L28.0169 25.0555L28.2477 24.8227L28.6041 23.7028L28.7311 21.8653L28.6501 20.566L28.2899 21.8314L28.1066 24.4591L28.4615 25.1088L28.655 24.2167L29.1636 23.5428L29.2232 23.1792L28.9212 21.5356L28.5876 21.5065L28.1745 23.6446L28.2715 24.8906L28.5226 25.7779L28.7384 25.9864L28.7631 25.8749L28.4518 25.7439L28.6913 25.4482L28.9202 24.6192L28.5648 21.7247L28.2923 20.7599L27.8904 20.4932L27.679 20.726L27.902 20.9053L27.6373 22.098L27.9408 24.0955L28.2729 24.9246L28.8969 25.2543L28.7549 25.2155L28.9779 25.0846L29.2222 24.3089L29.1248 21.7538L29.0249 21.8799L29.23 22.6168L29.3798 24.6046L29.6542 25.2931L29.8326 26.5488L30.0115 26.5342L29.9131 26.384L30.2069 26.156L30.6418 25.1379L31.0326 22.035L31.3666 21.3029L31.3652 21.1914L31.2275 21.2398L31.2624 22.5974L31.4791 23.4507L31.3691 24.144L31.4612 24.6482L31.4064 24.1585L31.6891 23.8725L32.153 22.5247L32.0929 21.4968L32.5496 21.1186L32.4071 21.0023L32.3125 21.2156L32.4754 21.332L32.443 22.3744L32.6762 23.5476L32.5244 24.5706L32.6878 24.3816L32.6258 24.2167L32.5487 24.3089L33.0049 23.8482L33.2895 22.3307L33.3462 20.3672L33.6696 23.4943L34.3518 23.504L34.3673 23.1695" stroke="#292562" stroke-width="0.969662" stroke-linecap="round" stroke-linejoin="round"/>
<path d="M39.7294 22.7955L39.3256 22.3737L39.6533 22.393L39.4885 23.1882L39.6063 26.0487L39.7159 25.9905L39.7188 25.7045L39.5593 25.5638L39.8705 24.7008L39.5985 21.6367L39.4492 22.1021L39.7168 22.3397L39.4662 23.0572L39.2422 25.9032L39.3139 26.0196L39.5108 25.9372L39.6334 22.684L39.6844 22.587L39.8201 22.713L39.5544 22.9215L39.6635 23.7021L39.5598 24.9335L39.7935 26.742L40.2836 25.4765L40.5542 23.0379L40.4199 23.1591L40.5973 23.3433L40.3854 24.8899L40.399 25.3214L40.5367 25.3408L40.5653 25.1275L40.4262 25.1081L40.9575 24.5796L41.2858 22.9749L41.024 23.2076L41.2319 23.5421L41.0555 24.9869L41.1418 25.7093L41.3764 25.6511L41.197 25.622L41.7187 24.9142L41.9606 23.2076L41.7376 26.2183L41.9054 27.1056L41.9393 26.8002L42.3432 26.645L42.4843 26.2814L42.9686 24.1627L43.0069 24.6233L42.6792 26.165L42.9124 26.3977L42.6089 26.1796L42.8605 26.0923L42.7213 25.942L43.0515 25.7335L43.2862 25.2827L43.547 24.2403L43.5863 27.2123L43.5077 26.7856L43.8704 26.7032L44.1821 26.359L45.2788 24.279L45.4 23.5615L45.3637 24.8463L45.2139 24.7493L45.4092 24.6039L45.2512 24.599L45.1091 25.1081L45.1911 25.2487L45.6119 24.9627" stroke="#292562" stroke-width="0.969662" stroke-linecap="round" stroke-linejoin="round"/>
<path d="M48.9414 50.8433L49.6483 52.065L51.1765 56.0455L52.2552 58.0576L52.3129 58.6054L52.6019 58.9836L53.3834 61.3399L53.7757 63.1531L56.5154 70.1686L56.6488 71.1383L57.5244 73.194L59.0172 78.0617L59.2363 78.275L59.4094 80.0252L59.7721 81.4215L60.2011 82.4009L60.4532 83.6712L60.7878 83.9184L60.6438 84.0833L60.8634 84.9366L61.0651 85.0869L60.8518 85.3099L60.8188 85.8238L61.1068 85.9887L61.1737 87.1377L61.4661 87.1087L61.0709 87.3753H61.3298L61.3497 87.9765L61.6382 88.2092L61.5941 88.4031L61.3754 88.4322L61.8418 88.3886L61.3439 88.471L61.6755 88.4467L61.356 88.2625" stroke="#292562" stroke-width="1.21208" stroke-linecap="round" stroke-linejoin="round"/>
<path d="M41.5938 46.6797L41.6253 46.6893L41.7538 46.9173L42.1431 46.8639L42.0645 46.9657L42.7477 47.2275L43.3227 47.2324L44.3621 47.5912L44.3524 47.7075L45.1728 47.7366L45.4205 48.0323L45.7381 48.0275L46.2583 48.2796L46.0227 48.3184L46.525 48.4057L46.6462 48.682L47.3031 48.9632L47.2585 49.0844L47.4917 49.2202L47.4321 49.3705L47.7026 49.4383L48.169 49.9619L48.618 50.122L48.9889 50.6795L49.242 50.8008L49.3462 51.0238L49.2323 51.0625L50.0235 51.5037L49.7564 51.5716L50.2747 52.4201L50.1001 52.3619L50.0715 52.5898L50.3406 52.7643L50.2669 52.997L50.6557 53.2879L50.7774 54.0394L50.9912 54.2042L50.8409 54.4127L51.1682 55.14L51.3374 55.8236L51.254 56.003L51.83 56.5508L51.6748 56.9581L51.9672 57.2878L51.9696 57.5835L52.6251 58.815L52.4516 59.0186L52.7497 59.232L53.4178 61.4234L53.3752 61.7628L54.1528 63.4936L54.2343 63.9154" stroke="#292562" stroke-width="0.969662" stroke-linecap="round" stroke-linejoin="round"/>
<path d="M37.1634 37.021L36.7939 37.3459L36.6485 37.3167L36.4836 37.6076L36.1035 37.5883L36.2698 37.501L36.3047 37.2198L36.3459 37.5155L36.1772 37.6028L36.5564 37.7579L36.1845 38.1216L36.566 38.9021L36.4065 38.9749L36.3469 39.3142L36.489 39.4452L36.3615 39.6197L36.3634 40.3082L36.5593 40.376L36.3348 40.4633L36.297 40.6863L36.4749 40.7445L36.4216 40.9288L36.6475 41.2051L36.4943 41.2245L36.6 41.3263L36.4298 41.5251L36.6237 41.6802L36.5084 41.8354L36.632 41.9081L36.4191 42.0584L36.5874 42.2281L36.4788 42.165L36.583 42.2475L36.4807 42.582L36.664 42.8438L36.3731 42.7517L36.5806 42.8341L36.6504 43.0765L36.505 43.1783L36.6669 43.3626L36.4366 43.4207L37.0737 43.9493L36.9811 44.0462L37.3461 44.3613L37.2792 44.4923L37.4324 44.6571L37.783 44.7153L37.7694 44.8801L38.772 45.4958L39.4678 45.4619L39.3243 45.5686L40.1877 45.8158L40.0622 45.9128L40.3783 45.8934L40.7686 46.2037L41.8328 46.5625L42.7588 46.354L42.8019 46.5237" stroke="#292562" stroke-width="0.969662" stroke-linecap="round" stroke-linejoin="round"/>
<path d="M27.9141 41.71H37.1259" stroke="#292562" stroke-width="0.969662" stroke-linecap="round" stroke-linejoin="round"/>
<path d="M27.4258 45.5884H40.5162" stroke="#292562" stroke-width="0.969662" stroke-linecap="round" stroke-linejoin="round"/>
<path d="M33.3418 41.9712L33.3418 88.9998" stroke="#292562" stroke-width="0.969662" stroke-linecap="round" stroke-linejoin="round"/>
<path d="M8.4423 77.0033L7.5898 77.1827L8.00569 77.0769L7.71999 77.0815L8.0126 76.8561L7.87366 76.9342L7.74668 76.7778L7.61005 77.2149L7.09339 77.6887L7.05613 78.0706L6.48933 78.8205L6.47276 79.2253L5.97083 79.7176L5.89999 80.1041L5.45096 80.4445L5.2582 81.0058L4.40157 82.3906L4.44158 82.5976L4.21017 82.8277L4.28976 83.0347L3.84627 83.6374L3.65718 83.7018L3.78323 84.1204L3.31443 84.6725L2.94086 85.7997L2.64964 85.9423L2.90313 85.9377L2.5696 86.3609L2.4288 87.2166L2.21487 87.2259L2.34692 87.2811L2.03085 87.6353L2.18406 87.6445L1.99221 87.6307L2.09159 87.5985L2.09434 87.7365L1.8634 87.8976L2.0764 87.9206L1.86017 87.8838L2.0258 87.9528L2.04926 88.3024L1.89789 88.192L1.89882 88.4635L1.67338 88.7027L1.89928 88.6889L1.72078 88.8453L1.86524 88.7809L1.75758 88.8039L1.78057 88.3806L1.33984 88.6199" stroke="#292562" stroke-width="0.969662" stroke-linecap="round" stroke-linejoin="round"/>
<path d="M43.4258 61.103L52.6376 87.7687" stroke="#292562" stroke-width="0.969662" stroke-linecap="round" stroke-linejoin="round"/>
<path d="M34.6291 53.7725L33.8359 54.3542L34.1661 54.1554L34.0648 54.2524L34.3188 54.4027L34.2 54.3688L34.2781 54.6258" stroke="#292562" stroke-width="0.969662" stroke-linecap="round" stroke-linejoin="round"/>
<path d="M34.8679 60.7056L34.5402 61.1177L34.2832 61.0983L34.4054 61.1953L34.2842 61.2534L34.5634 61.205" stroke="#292562" stroke-width="0.969662" stroke-linecap="round" stroke-linejoin="round"/>
<path d="M35.0193 67.6672L34.9471 67.5605L34.9253 67.7205L34.6445 67.8127L34.8501 67.7884L34.8234 67.5945L34.8632 67.7496" stroke="#292562" stroke-width="0.969662" stroke-linecap="round" stroke-linejoin="round"/>
<path d="M19.5155 72.0703L19.6857 72.2206L19.5838 72.5163L19.7254 72.5066L19.5528 72.56L19.7991 72.7781L19.4166 73.2194L18.9453 75.6047L18.7073 76.0944L18.2384 76.5599L18.3141 76.7392L18.0474 77.8398L17.6038 78.2519L17.566 78.824L16.6016 80.6469L16.4766 81.0979L16.5857 81.2821L16.1949 81.5876L16.2274 81.8057L16.0014 82.1499L15.9874 82.9208L15.6621 83.2748L14.8868 84.9765L15.0618 85.0201L14.8592 85.151L14.7874 85.5826L14.3099 86.2952L14.4286 86.3583L14.274 86.5619L14.3952 86.7801L13.6204 88.0164L13.7838 88.1473L13.875 87.9873L13.5938 88.0309L13.8769 88.0067L13.7906 87.8855L14.0384 87.8273L13.9346 87.7836L14.1309 87.3813L14.7302 86.7898" stroke="#292562" stroke-width="0.969662" stroke-linecap="round" stroke-linejoin="round"/>
<path d="M25.0046 57.709L20.1562 72.7387" stroke="#292562" stroke-width="0.969662" stroke-linecap="round" stroke-linejoin="round"/>
<path d="M34.8145 74.9014L35.0113 74.9208L34.8363 75.2165L35.0156 75.2844L35.2038 75.1341" stroke="#292562" stroke-width="0.969662" stroke-linecap="round" stroke-linejoin="round"/>
</svg>
