<svg width="118" height="118" viewBox="0 0 118 118" fill="none" xmlns="http://www.w3.org/2000/svg">
<g filter="url(#filter0_d_991_221)">
<rect x="4" width="110" height="110" fill="#C9C8D8" fill-opacity="0.5" shape-rendering="crispEdges"/>
</g>
<path d="M26.1863 20V14.5455H26.822V20H26.1863ZM26.5095 13.608C26.3793 13.608 26.268 13.5642 26.1757 13.4766C26.0834 13.3866 26.0372 13.2789 26.0372 13.1534C26.0372 13.0279 26.0834 12.9214 26.1757 12.8338C26.268 12.7438 26.3793 12.6989 26.5095 12.6989C26.6397 12.6989 26.751 12.7438 26.8433 12.8338C26.9356 12.9214 26.9818 13.0279 26.9818 13.1534C26.9818 13.2789 26.9356 13.3866 26.8433 13.4766C26.751 13.5642 26.6397 13.608 26.5095 13.608ZM29.1258 16.5909V20H28.4937V14.5455H29.108V15.4013H29.1649C29.2927 15.1219 29.4916 14.8982 29.7615 14.7301C30.0337 14.5597 30.3699 14.4744 30.77 14.4744C31.1369 14.4744 31.4589 14.5514 31.7359 14.7053C32.0152 14.8568 32.2319 15.0805 32.3857 15.3764C32.542 15.6723 32.6201 16.0357 32.6201 16.4666V20H31.988V16.5057C31.988 16.0582 31.8625 15.7043 31.6116 15.4439C31.363 15.1835 31.0292 15.0533 30.6102 15.0533C30.3237 15.0533 30.0692 15.1148 29.8467 15.2379C29.6241 15.361 29.4478 15.5386 29.3176 15.7706C29.1897 16.0002 29.1258 16.2737 29.1258 16.5909ZM36.4331 14.5455V15.0959H33.8302V14.5455H36.4331ZM34.6434 13.2386H35.279V18.576C35.279 18.8033 35.3181 18.982 35.3962 19.1122C35.4743 19.2401 35.5761 19.3312 35.7016 19.3857C35.8271 19.4377 35.9608 19.4638 36.1029 19.4638C36.1858 19.4638 36.2568 19.459 36.316 19.4496C36.3751 19.4377 36.4272 19.4259 36.4722 19.4141L36.6072 19.9858C36.5456 20.0095 36.4698 20.0308 36.3799 20.0497C36.2899 20.071 36.1787 20.0817 36.0461 20.0817C35.8141 20.0817 35.5903 20.0308 35.3749 19.929C35.1618 19.8272 34.9867 19.6757 34.8493 19.4744C34.712 19.2732 34.6434 19.0234 34.6434 18.7251V13.2386ZM37.8687 20V14.5455H38.483V15.3835H38.5292C38.6381 15.1089 38.8275 14.8875 39.0974 14.7195C39.3696 14.549 39.6774 14.4638 40.0207 14.4638C40.0728 14.4638 40.1308 14.465 40.1947 14.4673C40.2586 14.4697 40.3119 14.4721 40.3545 14.4744V15.1172C40.3261 15.1125 40.2764 15.1054 40.2053 15.0959C40.1343 15.0864 40.0574 15.0817 39.9745 15.0817C39.6904 15.0817 39.4371 15.142 39.2146 15.2628C38.9944 15.3812 38.8204 15.5457 38.6926 15.7564C38.5647 15.9671 38.5008 16.2074 38.5008 16.4773V20H37.8687ZM43.3872 20.1136C42.916 20.1136 42.4994 19.9941 42.1372 19.755C41.7773 19.5159 41.4956 19.1856 41.292 18.7642C41.0884 18.3404 40.9866 17.8516 40.9866 17.2976C40.9866 16.7389 41.0884 16.2476 41.292 15.8239C41.4956 15.3977 41.7773 15.0663 42.1372 14.8295C42.4994 14.5904 42.916 14.4709 43.3872 14.4709C43.8583 14.4709 44.2738 14.5904 44.6336 14.8295C44.9935 15.0687 45.2752 15.4001 45.4788 15.8239C45.6847 16.2476 45.7877 16.7389 45.7877 17.2976C45.7877 17.8516 45.6859 18.3404 45.4823 18.7642C45.2787 19.1856 44.9958 19.5159 44.6336 19.755C44.2738 19.9941 43.8583 20.1136 43.3872 20.1136ZM43.3872 19.5348C43.766 19.5348 44.0867 19.433 44.3495 19.2294C44.6123 19.0258 44.8112 18.7547 44.9461 18.4162C45.0834 18.0777 45.1521 17.7048 45.1521 17.2976C45.1521 16.8904 45.0834 16.5163 44.9461 16.1754C44.8112 15.8345 44.6123 15.5611 44.3495 15.3551C44.0867 15.1491 43.766 15.0462 43.3872 15.0462C43.0107 15.0462 42.69 15.1491 42.4248 15.3551C42.162 15.5611 41.962 15.8345 41.8247 16.1754C41.6897 16.5163 41.6222 16.8904 41.6222 17.2976C41.6222 17.7048 41.6897 18.0777 41.8247 18.4162C41.962 18.7547 42.162 19.0258 42.4248 19.2294C42.6876 19.433 43.0084 19.5348 43.3872 19.5348ZM49.1391 20.1136C48.6917 20.1136 48.2999 19.9953 47.9637 19.7585C47.6275 19.5218 47.3647 19.1915 47.1753 18.7678C46.9883 18.344 46.8948 17.8504 46.8948 17.2869C46.8948 16.7259 46.9883 16.2346 47.1753 15.8132C47.3647 15.3894 47.6287 15.0604 47.9672 14.826C48.3058 14.5893 48.7 14.4709 49.1498 14.4709C49.4812 14.4709 49.757 14.5301 49.9772 14.6484C50.1974 14.7644 50.3737 14.9089 50.5063 15.0817C50.6389 15.2545 50.7419 15.4226 50.8153 15.5859H50.8721V12.7273H51.5077V20H50.8898V18.9879H50.8153C50.7419 19.1536 50.6377 19.3241 50.5028 19.4993C50.3678 19.6721 50.1891 19.8177 49.9665 19.9361C49.7464 20.0545 49.4706 20.1136 49.1391 20.1136ZM49.2137 19.5348C49.5664 19.5348 49.8671 19.4389 50.1157 19.2472C50.3643 19.053 50.5537 18.7867 50.6839 18.4482C50.8164 18.1072 50.8827 17.7166 50.8827 17.2763C50.8827 16.8407 50.8176 16.456 50.6874 16.1222C50.5572 15.786 50.3678 15.5232 50.1192 15.3338C49.8706 15.142 49.5688 15.0462 49.2137 15.0462C48.8491 15.0462 48.5413 15.1456 48.2904 15.3445C48.0418 15.541 47.8524 15.8073 47.7222 16.1435C47.5944 16.4796 47.5305 16.8572 47.5305 17.2763C47.5305 17.7 47.5956 18.0824 47.7258 18.4233C47.856 18.7642 48.0454 19.0353 48.2939 19.2365C48.5449 19.4354 48.8515 19.5348 49.2137 19.5348ZM56.7741 17.9155V14.5455H57.4062V20H56.7741V19.0945H56.7243C56.5965 19.3738 56.3941 19.607 56.1171 19.794C55.8401 19.9787 55.5016 20.071 55.1015 20.071C54.7535 20.071 54.4445 19.9953 54.1746 19.8438C53.9047 19.6899 53.6929 19.465 53.539 19.169C53.3851 18.8731 53.3081 18.5097 53.3081 18.0788V14.5455H53.9403V18.0398C53.9403 18.4659 54.0657 18.8092 54.3167 19.0696C54.5676 19.3277 54.8896 19.4567 55.2826 19.4567C55.5288 19.4567 55.7655 19.3975 55.9928 19.2791C56.2201 19.1607 56.4071 18.9879 56.5539 18.7607C56.7007 18.531 56.7741 18.2493 56.7741 17.9155ZM61.2103 20.1136C60.7226 20.1136 60.2977 19.9917 59.9355 19.7479C59.5756 19.504 59.2963 19.1702 59.0974 18.7464C58.8985 18.3227 58.7991 17.8397 58.7991 17.2976C58.7991 16.7507 58.8997 16.2642 59.1009 15.8381C59.3045 15.4119 59.5863 15.0781 59.9461 14.8366C60.306 14.5928 60.7238 14.4709 61.1997 14.4709C61.5642 14.4709 61.8945 14.5419 62.1904 14.6839C62.4864 14.8236 62.7302 15.0213 62.922 15.277C63.1161 15.5303 63.238 15.8262 63.2877 16.1648H62.6485C62.5822 15.857 62.4224 15.5942 62.1691 15.3764C61.9182 15.1562 61.5986 15.0462 61.2103 15.0462C60.8623 15.0462 60.5545 15.1409 60.287 15.3303C60.0195 15.5173 59.81 15.7789 59.6585 16.1151C59.5093 16.4489 59.4347 16.8359 59.4347 17.2763C59.4347 17.719 59.5081 18.1108 59.6549 18.4517C59.8017 18.7902 60.0077 19.0554 60.2728 19.2472C60.5403 19.4389 60.8528 19.5348 61.2103 19.5348C61.4518 19.5348 61.672 19.4898 61.8708 19.3999C62.0721 19.3075 62.2401 19.1773 62.3751 19.0092C62.5124 18.8411 62.6047 18.6411 62.6521 18.4091H63.2913C63.2439 18.7382 63.1267 19.0317 62.9397 19.2898C62.7551 19.5455 62.5148 19.7467 62.2188 19.8935C61.9253 20.0402 61.5891 20.1136 61.2103 20.1136ZM66.7945 14.5455V15.0959H64.1915V14.5455H66.7945ZM65.0047 13.2386H65.6404V18.576C65.6404 18.8033 65.6794 18.982 65.7575 19.1122C65.8357 19.2401 65.9375 19.3312 66.0629 19.3857C66.1884 19.4377 66.3222 19.4638 66.4642 19.4638C66.5471 19.4638 66.6181 19.459 66.6773 19.4496C66.7365 19.4377 66.7886 19.4259 66.8335 19.4141L66.9685 19.9858C66.9069 20.0095 66.8312 20.0308 66.7412 20.0497C66.6512 20.071 66.54 20.0817 66.4074 20.0817C66.1754 20.0817 65.9517 20.0308 65.7362 19.929C65.5232 19.8272 65.348 19.6757 65.2107 19.4744C65.0734 19.2732 65.0047 19.0234 65.0047 18.7251V13.2386ZM68.2371 20V14.5455H68.8728V20H68.2371ZM68.5603 13.608C68.4301 13.608 68.3188 13.5642 68.2265 13.4766C68.1341 13.3866 68.088 13.2789 68.088 13.1534C68.088 13.0279 68.1341 12.9214 68.2265 12.8338C68.3188 12.7438 68.4301 12.6989 68.5603 12.6989C68.6905 12.6989 68.8018 12.7438 68.8941 12.8338C68.9864 12.9214 69.0326 13.0279 69.0326 13.1534C69.0326 13.2789 68.9864 13.3866 68.8941 13.4766C68.8018 13.5642 68.6905 13.608 68.5603 13.608ZM72.6645 20.1136C72.1934 20.1136 71.7767 19.9941 71.4145 19.755C71.0547 19.5159 70.7729 19.1856 70.5693 18.7642C70.3657 18.3404 70.2639 17.8516 70.2639 17.2976C70.2639 16.7389 70.3657 16.2476 70.5693 15.8239C70.7729 15.3977 71.0547 15.0663 71.4145 14.8295C71.7767 14.5904 72.1934 14.4709 72.6645 14.4709C73.1356 14.4709 73.5511 14.5904 73.911 14.8295C74.2708 15.0687 74.5525 15.4001 74.7561 15.8239C74.9621 16.2476 75.0651 16.7389 75.0651 17.2976C75.0651 17.8516 74.9633 18.3404 74.7597 18.7642C74.5561 19.1856 74.2732 19.5159 73.911 19.755C73.5511 19.9941 73.1356 20.1136 72.6645 20.1136ZM72.6645 19.5348C73.0433 19.5348 73.3641 19.433 73.6269 19.2294C73.8896 19.0258 74.0885 18.7547 74.2235 18.4162C74.3608 18.0777 74.4294 17.7048 74.4294 17.2976C74.4294 16.8904 74.3608 16.5163 74.2235 16.1754C74.0885 15.8345 73.8896 15.5611 73.6269 15.3551C73.3641 15.1491 73.0433 15.0462 72.6645 15.0462C72.2881 15.0462 71.9673 15.1491 71.7021 15.3551C71.4394 15.5611 71.2393 15.8345 71.102 16.1754C70.9671 16.5163 70.8996 16.8904 70.8996 17.2976C70.8996 17.7048 70.9671 18.0777 71.102 18.4162C71.2393 18.7547 71.4394 19.0258 71.7021 19.2294C71.9649 19.433 72.2857 19.5348 72.6645 19.5348ZM77.0848 16.5909V20H76.4527V14.5455H77.067V15.4013H77.1238C77.2517 15.1219 77.4506 14.8982 77.7204 14.7301C77.9927 14.5597 78.3289 14.4744 78.729 14.4744C79.0959 14.4744 79.4179 14.5514 79.6949 14.7053C79.9742 14.8568 80.1908 15.0805 80.3447 15.3764C80.501 15.6723 80.5791 16.0357 80.5791 16.4666V20H79.947V16.5057C79.947 16.0582 79.8215 15.7043 79.5706 15.4439C79.322 15.1835 78.9882 15.0533 78.5692 15.0533C78.2827 15.0533 78.0282 15.1148 77.8057 15.2379C77.5831 15.361 77.4068 15.5386 77.2765 15.7706C77.1487 16.0002 77.0848 16.2737 77.0848 16.5909ZM87.2046 14.5455V15.0959H84.6017V14.5455H87.2046ZM85.4149 13.2386H86.0505V18.576C86.0505 18.8033 86.0896 18.982 86.1677 19.1122C86.2458 19.2401 86.3476 19.3312 86.4731 19.3857C86.5986 19.4377 86.7323 19.4638 86.8744 19.4638C86.9572 19.4638 87.0283 19.459 87.0874 19.4496C87.1466 19.4377 87.1987 19.4259 87.2437 19.4141L87.3786 19.9858C87.3171 20.0095 87.2413 20.0308 87.1514 20.0497C87.0614 20.071 86.9501 20.0817 86.8176 20.0817C86.5856 20.0817 86.3618 20.0308 86.1464 19.929C85.9333 19.8272 85.7581 19.6757 85.6208 19.4744C85.4835 19.2732 85.4149 19.0234 85.4149 18.7251V13.2386ZM90.7016 20.1136C90.2305 20.1136 89.8138 19.9941 89.4516 19.755C89.0918 19.5159 88.81 19.1856 88.6064 18.7642C88.4028 18.3404 88.301 17.8516 88.301 17.2976C88.301 16.7389 88.4028 16.2476 88.6064 15.8239C88.81 15.3977 89.0918 15.0663 89.4516 14.8295C89.8138 14.5904 90.2305 14.4709 90.7016 14.4709C91.1727 14.4709 91.5882 14.5904 91.9481 14.8295C92.3079 15.0687 92.5896 15.4001 92.7932 15.8239C92.9992 16.2476 93.1022 16.7389 93.1022 17.2976C93.1022 17.8516 93.0004 18.3404 92.7968 18.7642C92.5932 19.1856 92.3103 19.5159 91.9481 19.755C91.5882 19.9941 91.1727 20.1136 90.7016 20.1136ZM90.7016 19.5348C91.0804 19.5348 91.4012 19.433 91.664 19.2294C91.9268 19.0258 92.1256 18.7547 92.2606 18.4162C92.3979 18.0777 92.4665 17.7048 92.4665 17.2976C92.4665 16.8904 92.3979 16.5163 92.2606 16.1754C92.1256 15.8345 91.9268 15.5611 91.664 15.3551C91.4012 15.1491 91.0804 15.0462 90.7016 15.0462C90.3252 15.0462 90.0044 15.1491 89.7393 15.3551C89.4765 15.5611 89.2764 15.8345 89.1391 16.1754C89.0042 16.5163 88.9367 16.8904 88.9367 17.2976C88.9367 17.7048 89.0042 18.0777 89.1391 18.4162C89.2764 18.7547 89.4765 19.0258 89.7393 19.2294C90.002 19.433 90.3228 19.5348 90.7016 19.5348ZM27.5327 32.1136C27.0616 32.1136 26.6449 31.9941 26.2827 31.755C25.9228 31.5159 25.6411 31.1856 25.4375 30.7642C25.2339 30.3404 25.1321 29.8516 25.1321 29.2976C25.1321 28.7389 25.2339 28.2476 25.4375 27.8239C25.6411 27.3977 25.9228 27.0663 26.2827 26.8295C26.6449 26.5904 27.0616 26.4709 27.5327 26.4709C28.0038 26.4709 28.4193 26.5904 28.7791 26.8295C29.139 27.0687 29.4207 27.4001 29.6243 27.8239C29.8303 28.2476 29.9332 28.7389 29.9332 29.2976C29.9332 29.8516 29.8314 30.3404 29.6278 30.7642C29.4242 31.1856 29.1413 31.5159 28.7791 31.755C28.4193 31.9941 28.0038 32.1136 27.5327 32.1136ZM27.5327 31.5348C27.9115 31.5348 28.2322 31.433 28.495 31.2294C28.7578 31.0258 28.9567 30.7547 29.0916 30.4162C29.2289 30.0777 29.2976 29.7048 29.2976 29.2976C29.2976 28.8904 29.2289 28.5163 29.0916 28.1754C28.9567 27.8345 28.7578 27.5611 28.495 27.3551C28.2322 27.1491 27.9115 27.0462 27.5327 27.0462C27.1563 27.0462 26.8355 27.1491 26.5703 27.3551C26.3075 27.5611 26.1075 27.8345 25.9702 28.1754C25.8352 28.5163 25.7678 28.8904 25.7678 29.2976C25.7678 29.7048 25.8352 30.0777 25.9702 30.4162C26.1075 30.7547 26.3075 31.0258 26.5703 31.2294C26.8331 31.433 27.1539 31.5348 27.5327 31.5348ZM31.9529 28.5909V32H31.3208V26.5455H31.9352V27.4013H31.992C32.1199 27.1219 32.3187 26.8982 32.5886 26.7301C32.8609 26.5597 33.197 26.4744 33.5971 26.4744C33.9641 26.4744 34.286 26.5514 34.563 26.7053C34.8424 26.8568 35.059 27.0805 35.2129 27.3764C35.3691 27.6723 35.4473 28.0357 35.4473 28.4666V32H34.8152V28.5057C34.8152 28.0582 34.6897 27.7043 34.4387 27.4439C34.1902 27.1835 33.8564 27.0533 33.4373 27.0533C33.1509 27.0533 32.8964 27.1148 32.6738 27.2379C32.4513 27.361 32.2749 27.5386 32.1447 27.7706C32.0169 28.0002 31.9529 28.2737 31.9529 28.5909ZM37.744 24.7273V32H37.1119V24.7273H37.744ZM39.4237 32V26.5455H40.0593V32H39.4237ZM39.7468 25.608C39.6166 25.608 39.5053 25.5642 39.413 25.4766C39.3207 25.3866 39.2745 25.2789 39.2745 25.1534C39.2745 25.0279 39.3207 24.9214 39.413 24.8338C39.5053 24.7438 39.6166 24.6989 39.7468 24.6989C39.877 24.6989 39.9883 24.7438 40.0806 24.8338C40.1729 24.9214 40.2191 25.0279 40.2191 25.1534C40.2191 25.2789 40.1729 25.3866 40.0806 25.4766C39.9883 25.5642 39.877 25.608 39.7468 25.608ZM42.3631 28.5909V32H41.731V26.5455H42.3453V27.4013H42.4022C42.53 27.1219 42.7289 26.8982 42.9988 26.7301C43.271 26.5597 43.6072 26.4744 44.0073 26.4744C44.3742 26.4744 44.6962 26.5514 44.9732 26.7053C45.2525 26.8568 45.4692 27.0805 45.623 27.3764C45.7793 27.6723 45.8574 28.0357 45.8574 28.4666V32H45.2253V28.5057C45.2253 28.0582 45.0998 27.7043 44.8489 27.4439C44.6003 27.1835 44.2665 27.0533 43.8475 27.0533C43.561 27.0533 43.3065 27.1148 43.084 27.2379C42.8614 27.361 42.6851 27.5386 42.5549 27.7706C42.427 28.0002 42.3631 28.2737 42.3631 28.5909ZM49.7273 32.1136C49.2183 32.1136 48.7779 31.9953 48.4062 31.7585C48.0346 31.5194 47.7469 31.1892 47.5433 30.7678C47.3421 30.344 47.2415 29.8563 47.2415 29.3047C47.2415 28.7554 47.3421 28.2678 47.5433 27.8416C47.7469 27.4131 48.0275 27.0781 48.3849 26.8366C48.7448 26.5928 49.1603 26.4709 49.6314 26.4709C49.9273 26.4709 50.2126 26.5253 50.4872 26.6342C50.7618 26.7408 51.008 26.9053 51.2259 27.1278C51.446 27.348 51.62 27.6262 51.7479 27.9624C51.8757 28.2962 51.9396 28.6915 51.9396 29.1484V29.4609H47.6783V28.9034H51.2933C51.2933 28.553 51.2223 28.2382 51.0803 27.9588C50.9406 27.6771 50.7453 27.4545 50.4943 27.2912C50.2457 27.1278 49.9581 27.0462 49.6314 27.0462C49.2857 27.0462 48.9815 27.1385 48.7188 27.3232C48.456 27.5078 48.25 27.7517 48.1009 28.0547C47.9541 28.3577 47.8795 28.6892 47.8771 29.049V29.3828C47.8771 29.8161 47.9517 30.1948 48.1009 30.5192C48.2524 30.8411 48.4666 31.0909 48.7436 31.2685C49.0206 31.446 49.3485 31.5348 49.7273 31.5348C49.9853 31.5348 50.2114 31.4946 50.4055 31.4141C50.602 31.3336 50.7666 31.2259 50.8991 31.0909C51.0341 30.9536 51.1359 30.8033 51.2045 30.6399L51.8047 30.8352C51.7218 31.0649 51.5857 31.2768 51.3963 31.4709C51.2093 31.665 50.9749 31.8213 50.6932 31.9396C50.4138 32.0556 50.0919 32.1136 49.7273 32.1136ZM56.1451 34.0455V26.5455H56.7594V27.5859H56.834C56.9097 27.4226 57.0139 27.2557 57.1465 27.0852C57.2791 26.9124 57.4542 26.7668 57.6721 26.6484C57.8922 26.5301 58.1692 26.4709 58.503 26.4709C58.9528 26.4709 59.3458 26.5893 59.682 26.826C60.0205 27.0604 60.2833 27.3894 60.4703 27.8132C60.6597 28.2346 60.7544 28.7259 60.7544 29.2869C60.7544 29.8504 60.6597 30.344 60.4703 30.7678C60.2833 31.1915 60.0205 31.5218 59.682 31.7585C59.3458 31.9953 58.9552 32.1136 58.5101 32.1136C58.181 32.1136 57.9052 32.0545 57.6827 31.9361C57.4625 31.8177 57.2838 31.6721 57.1465 31.4993C57.0115 31.3241 56.9074 31.1536 56.834 30.9879H56.7772V34.0455H56.1451ZM56.7701 29.2763C56.7701 29.7166 56.8352 30.1072 56.9654 30.4482C57.098 30.7867 57.2873 31.053 57.5336 31.2472C57.7821 31.4389 58.0828 31.5348 58.4355 31.5348C58.7978 31.5348 59.1032 31.4354 59.3517 31.2365C59.6027 31.0353 59.7933 30.7642 59.9235 30.4233C60.056 30.0824 60.1223 29.7 60.1223 29.2763C60.1223 28.8572 60.0572 28.4796 59.927 28.1435C59.7992 27.8073 59.6098 27.541 59.3588 27.3445C59.1079 27.1456 58.8001 27.0462 58.4355 27.0462C58.0804 27.0462 57.7786 27.142 57.53 27.3338C57.2814 27.5232 57.092 27.786 56.9618 28.1222C56.834 28.456 56.7701 28.8407 56.7701 29.2763ZM64.2612 32.1136C63.7901 32.1136 63.3734 31.9941 63.0112 31.755C62.6513 31.5159 62.3696 31.1856 62.166 30.7642C61.9624 30.3404 61.8606 29.8516 61.8606 29.2976C61.8606 28.7389 61.9624 28.2476 62.166 27.8239C62.3696 27.3977 62.6513 27.0663 63.0112 26.8295C63.3734 26.5904 63.7901 26.4709 64.2612 26.4709C64.7323 26.4709 65.1478 26.5904 65.5076 26.8295C65.8675 27.0687 66.1492 27.4001 66.3528 27.8239C66.5588 28.2476 66.6618 28.7389 66.6618 29.2976C66.6618 29.8516 66.56 30.3404 66.3564 30.7642C66.1528 31.1856 65.8699 31.5159 65.5076 31.755C65.1478 31.9941 64.7323 32.1136 64.2612 32.1136ZM64.2612 31.5348C64.64 31.5348 64.9608 31.433 65.2235 31.2294C65.4863 31.0258 65.6852 30.7547 65.8201 30.4162C65.9574 30.0777 66.0261 29.7048 66.0261 29.2976C66.0261 28.8904 65.9574 28.5163 65.8201 28.1754C65.6852 27.8345 65.4863 27.5611 65.2235 27.3551C64.9608 27.1491 64.64 27.0462 64.2612 27.0462C63.8848 27.0462 63.564 27.1491 63.2988 27.3551C63.036 27.5611 62.836 27.8345 62.6987 28.1754C62.5637 28.5163 62.4963 28.8904 62.4963 29.2976C62.4963 29.7048 62.5637 30.0777 62.6987 30.4162C62.836 30.7547 63.036 31.0258 63.2988 31.2294C63.5616 31.433 63.8824 31.5348 64.2612 31.5348ZM68.0494 32V26.5455H68.6637V27.3835H68.7099C68.8188 27.1089 69.0082 26.8875 69.2781 26.7195C69.5503 26.549 69.8581 26.4638 70.2013 26.4638C70.2534 26.4638 70.3114 26.465 70.3754 26.4673C70.4393 26.4697 70.4925 26.4721 70.5352 26.4744V27.1172C70.5067 27.1125 70.457 27.1054 70.386 27.0959C70.315 27.0864 70.238 27.0817 70.1552 27.0817C69.8711 27.0817 69.6178 27.142 69.3952 27.2628C69.1751 27.3812 69.0011 27.5457 68.8732 27.7564C68.7454 27.9671 68.6815 28.2074 68.6815 28.4773V32H68.0494ZM74.104 26.5455V27.0959H71.5011V26.5455H74.104ZM72.3143 25.2386H72.9499V30.576C72.9499 30.8033 72.989 30.982 73.0671 31.1122C73.1452 31.2401 73.247 31.3312 73.3725 31.3857C73.498 31.4377 73.6317 31.4638 73.7738 31.4638C73.8567 31.4638 73.9277 31.459 73.9869 31.4496C74.046 31.4377 74.0981 31.4259 74.1431 31.4141L74.2781 31.9858C74.2165 32.0095 74.1407 32.0308 74.0508 32.0497C73.9608 32.071 73.8496 32.0817 73.717 32.0817C73.485 32.0817 73.2612 32.0308 73.0458 31.929C72.8327 31.8272 72.6576 31.6757 72.5202 31.4744C72.3829 31.2732 72.3143 31.0234 72.3143 30.7251V25.2386ZM77.7839 26.5455V27.0959H75.1028V26.5455H77.7839ZM75.9409 32V25.7464C75.9409 25.4529 76.0083 25.2055 76.1433 25.0043C76.2806 24.803 76.4593 24.6503 76.6795 24.5462C76.8997 24.442 77.1329 24.3899 77.3791 24.3899C77.5448 24.3899 77.6821 24.4041 77.791 24.4325C77.9023 24.4586 77.9899 24.4846 78.0538 24.5107L77.8691 25.0646C77.8218 25.0504 77.7638 25.0339 77.6951 25.0149C77.6265 24.996 77.5401 24.9865 77.4359 24.9865C77.1613 24.9865 76.9494 25.0634 76.8002 25.2173C76.6511 25.3712 76.5765 25.5914 76.5765 25.8778L76.573 32H75.9409ZM80.9409 32.1136C80.4698 32.1136 80.0531 31.9941 79.6909 31.755C79.331 31.5159 79.0493 31.1856 78.8457 30.7642C78.6421 30.3404 78.5403 29.8516 78.5403 29.2976C78.5403 28.7389 78.6421 28.2476 78.8457 27.8239C79.0493 27.3977 79.331 27.0663 79.6909 26.8295C80.0531 26.5904 80.4698 26.4709 80.9409 26.4709C81.412 26.4709 81.8275 26.5904 82.1873 26.8295C82.5472 27.0687 82.8289 27.4001 83.0325 27.8239C83.2385 28.2476 83.3414 28.7389 83.3414 29.2976C83.3414 29.8516 83.2396 30.3404 83.036 30.7642C82.8324 31.1856 82.5495 31.5159 82.1873 31.755C81.8275 31.9941 81.412 32.1136 80.9409 32.1136ZM80.9409 31.5348C81.3197 31.5348 81.6404 31.433 81.9032 31.2294C82.166 31.0258 82.3649 30.7547 82.4998 30.4162C82.6371 30.0777 82.7058 29.7048 82.7058 29.2976C82.7058 28.8904 82.6371 28.5163 82.4998 28.1754C82.3649 27.8345 82.166 27.5611 81.9032 27.3551C81.6404 27.1491 81.3197 27.0462 80.9409 27.0462C80.5645 27.0462 80.2437 27.1491 79.9785 27.3551C79.7157 27.5611 79.5157 27.8345 79.3784 28.1754C79.2434 28.5163 79.176 28.8904 79.176 29.2976C79.176 29.7048 79.2434 30.0777 79.3784 30.4162C79.5157 30.7547 79.7157 31.0258 79.9785 31.2294C80.2413 31.433 80.5621 31.5348 80.9409 31.5348ZM85.3612 24.7273V32H84.729V24.7273H85.3612ZM87.0408 32V26.5455H87.6765V32H87.0408ZM87.364 25.608C87.2338 25.608 87.1225 25.5642 87.0302 25.4766C86.9379 25.3866 86.8917 25.2789 86.8917 25.1534C86.8917 25.0279 86.9379 24.9214 87.0302 24.8338C87.1225 24.7438 87.2338 24.6989 87.364 24.6989C87.4942 24.6989 87.6055 24.7438 87.6978 24.8338C87.7901 24.9214 87.8363 25.0279 87.8363 25.1534C87.8363 25.2789 87.7901 25.3866 87.6978 25.4766C87.6055 25.5642 87.4942 25.608 87.364 25.608ZM91.4682 32.1136C90.9971 32.1136 90.5804 31.9941 90.2182 31.755C89.8584 31.5159 89.5766 31.1856 89.373 30.7642C89.1694 30.3404 89.0676 29.8516 89.0676 29.2976C89.0676 28.7389 89.1694 28.2476 89.373 27.8239C89.5766 27.3977 89.8584 27.0663 90.2182 26.8295C90.5804 26.5904 90.9971 26.4709 91.4682 26.4709C91.9393 26.4709 92.3548 26.5904 92.7147 26.8295C93.0745 27.0687 93.3562 27.4001 93.5598 27.8239C93.7658 28.2476 93.8688 28.7389 93.8688 29.2976C93.8688 29.8516 93.767 30.3404 93.5634 30.7642C93.3598 31.1856 93.0769 31.5159 92.7147 31.755C92.3548 31.9941 91.9393 32.1136 91.4682 32.1136ZM91.4682 31.5348C91.847 31.5348 92.1678 31.433 92.4306 31.2294C92.6934 31.0258 92.8922 30.7547 93.0272 30.4162C93.1645 30.0777 93.2331 29.7048 93.2331 29.2976C93.2331 28.8904 93.1645 28.5163 93.0272 28.1754C92.8922 27.8345 92.6934 27.5611 92.4306 27.3551C92.1678 27.1491 91.847 27.0462 91.4682 27.0462C91.0918 27.0462 90.771 27.1491 90.5059 27.3551C90.2431 27.5611 90.043 27.8345 89.9057 28.1754C89.7708 28.5163 89.7033 28.8904 89.7033 29.2976C89.7033 29.7048 89.7708 30.0777 89.9057 30.4162C90.043 30.7547 90.2431 31.0258 90.5059 31.2294C90.7686 31.433 91.0894 31.5348 91.4682 31.5348ZM33.5865 46.0455V38.5455H34.2008V39.5859H34.2754C34.3511 39.4226 34.4553 39.2557 34.5879 39.0852C34.7205 38.9124 34.8957 38.7668 35.1135 38.6484C35.3336 38.5301 35.6106 38.4709 35.9444 38.4709C36.3942 38.4709 36.7872 38.5893 37.1234 38.826C37.4619 39.0604 37.7247 39.3894 37.9118 39.8132C38.1011 40.2346 38.1958 40.7259 38.1958 41.2869C38.1958 41.8504 38.1011 42.344 37.9118 42.7678C37.7247 43.1915 37.4619 43.5218 37.1234 43.7585C36.7872 43.9953 36.3966 44.1136 35.9515 44.1136C35.6225 44.1136 35.3467 44.0545 35.1241 43.9361C34.9039 43.8177 34.7252 43.6721 34.5879 43.4993C34.4529 43.3241 34.3488 43.1536 34.2754 42.9879H34.2186V46.0455H33.5865ZM34.2115 41.2763C34.2115 41.7166 34.2766 42.1072 34.4068 42.4482C34.5394 42.7867 34.7288 43.053 34.975 43.2472C35.2235 43.4389 35.5242 43.5348 35.877 43.5348C36.2392 43.5348 36.5446 43.4354 36.7931 43.2365C37.0441 43.0353 37.2347 42.7642 37.3649 42.4233C37.4975 42.0824 37.5637 41.7 37.5637 41.2763C37.5637 40.8572 37.4986 40.4796 37.3684 40.1435C37.2406 39.8073 37.0512 39.541 36.8002 39.3445C36.5493 39.1456 36.2415 39.0462 35.877 39.0462C35.5218 39.0462 35.22 39.142 34.9714 39.3338C34.7228 39.5232 34.5334 39.786 34.4032 40.1222C34.2754 40.456 34.2115 40.8407 34.2115 41.2763ZM39.5826 44V38.5455H40.1969V39.3835H40.2431C40.352 39.1089 40.5414 38.8875 40.8113 38.7195C41.0835 38.549 41.3913 38.4638 41.7346 38.4638C41.7866 38.4638 41.8446 38.465 41.9086 38.4673C41.9725 38.4697 42.0257 38.4721 42.0684 38.4744V39.1172C42.04 39.1125 41.9902 39.1054 41.9192 39.0959C41.8482 39.0864 41.7712 39.0817 41.6884 39.0817C41.4043 39.0817 41.151 39.142 40.9284 39.2628C40.7083 39.3812 40.5343 39.5457 40.4064 39.7564C40.2786 39.9671 40.2147 40.2074 40.2147 40.4773V44H39.5826ZM45.1863 44.1136C44.6773 44.1136 44.2369 43.9953 43.8652 43.7585C43.4935 43.5194 43.2059 43.1892 43.0023 42.7678C42.8011 42.344 42.7005 41.8563 42.7005 41.3047C42.7005 40.7554 42.8011 40.2678 43.0023 39.8416C43.2059 39.4131 43.4864 39.0781 43.8439 38.8366C44.2038 38.5928 44.6193 38.4709 45.0904 38.4709C45.3863 38.4709 45.6716 38.5253 45.9462 38.6342C46.2208 38.7408 46.467 38.9053 46.6848 39.1278C46.905 39.348 47.079 39.6262 47.2069 39.9624C47.3347 40.2962 47.3986 40.6915 47.3986 41.1484V41.4609H43.1373V40.9034H46.7523C46.7523 40.553 46.6813 40.2382 46.5392 39.9588C46.3996 39.6771 46.2042 39.4545 45.9533 39.2912C45.7047 39.1278 45.4171 39.0462 45.0904 39.0462C44.7447 39.0462 44.4405 39.1385 44.1777 39.3232C43.915 39.5078 43.709 39.7517 43.5598 40.0547C43.4131 40.3577 43.3385 40.6892 43.3361 41.049V41.3828C43.3361 41.8161 43.4107 42.1948 43.5598 42.5192C43.7114 42.8411 43.9256 43.0909 44.2026 43.2685C44.4796 43.446 44.8075 43.5348 45.1863 43.5348C45.4443 43.5348 45.6704 43.4946 45.8645 43.4141C46.061 43.3336 46.2256 43.2259 46.3581 43.0909C46.4931 42.9536 46.5949 42.8033 46.6635 42.6399L47.2637 42.8352C47.1808 43.0649 47.0447 43.2768 46.8553 43.4709C46.6683 43.665 46.4339 43.8213 46.1522 43.9396C45.8728 44.0556 45.5508 44.1136 45.1863 44.1136ZM48.7915 46.0455V38.5455H49.4059V39.5859H49.4805C49.5562 39.4226 49.6604 39.2557 49.793 39.0852C49.9255 38.9124 50.1007 38.7668 50.3185 38.6484C50.5387 38.5301 50.8157 38.4709 51.1495 38.4709C51.5993 38.4709 51.9923 38.5893 52.3285 38.826C52.667 39.0604 52.9298 39.3894 53.1168 39.8132C53.3062 40.2346 53.4009 40.7259 53.4009 41.2869C53.4009 41.8504 53.3062 42.344 53.1168 42.7678C52.9298 43.1915 52.667 43.5218 52.3285 43.7585C51.9923 43.9953 51.6017 44.1136 51.1566 44.1136C50.8275 44.1136 50.5517 44.0545 50.3292 43.9361C50.109 43.8177 49.9303 43.6721 49.793 43.4993C49.658 43.3241 49.5539 43.1536 49.4805 42.9879H49.4237V46.0455H48.7915ZM49.4165 41.2763C49.4165 41.7166 49.4817 42.1072 49.6119 42.4482C49.7444 42.7867 49.9338 43.053 50.18 43.2472C50.4286 43.4389 50.7293 43.5348 51.082 43.5348C51.4442 43.5348 51.7496 43.4354 51.9982 43.2365C52.2492 43.0353 52.4397 42.7642 52.57 42.4233C52.7025 42.0824 52.7688 41.7 52.7688 41.2763C52.7688 40.8572 52.7037 40.4796 52.5735 40.1435C52.4457 39.8073 52.2563 39.541 52.0053 39.3445C51.7544 39.1456 51.4466 39.0462 51.082 39.0462C50.7269 39.0462 50.4251 39.142 50.1765 39.3338C49.9279 39.5232 49.7385 39.786 49.6083 40.1222C49.4805 40.456 49.4165 40.8407 49.4165 41.2763ZM56.3111 44.1243C55.982 44.1243 55.6813 44.0604 55.4091 43.9325C55.1368 43.8023 54.9202 43.6153 54.7592 43.3714C54.5982 43.1252 54.5178 42.8269 54.5178 42.4766C54.5178 42.2067 54.5687 41.9794 54.6705 41.7947C54.7723 41.6101 54.9167 41.4586 55.1037 41.3402C55.2907 41.2218 55.5121 41.1283 55.7678 41.0597C56.0234 40.991 56.3052 40.9377 56.6129 40.8999C56.9183 40.862 57.1764 40.8288 57.3871 40.8004C57.6001 40.772 57.7623 40.727 57.8736 40.6655C57.9848 40.6039 58.0405 40.5045 58.0405 40.3672V40.2393C58.0405 39.8677 57.9292 39.5753 57.7067 39.3622C57.4865 39.1468 57.1693 39.0391 56.755 39.0391C56.362 39.0391 56.0412 39.1255 55.7926 39.2983C55.5464 39.4711 55.3736 39.6747 55.2741 39.9091L54.674 39.6925C54.7971 39.3942 54.9676 39.1562 55.1854 38.9787C55.4032 38.7988 55.647 38.6697 55.9169 38.5916C56.1868 38.5111 56.4602 38.4709 56.7372 38.4709C56.9455 38.4709 57.1622 38.4981 57.3871 38.5526C57.6143 38.607 57.825 38.7017 58.0192 38.8366C58.2133 38.9692 58.3707 39.1551 58.4915 39.3942C58.6122 39.6309 58.6726 39.9316 58.6726 40.2962V44H58.0405V43.1371H58.0014C57.9257 43.2981 57.8132 43.4543 57.6641 43.6058C57.5149 43.7573 57.3279 43.8816 57.103 43.9787C56.8781 44.0758 56.6141 44.1243 56.3111 44.1243ZM56.3963 43.5455C56.7325 43.5455 57.0237 43.4709 57.2699 43.3217C57.5161 43.1726 57.7055 42.9749 57.8381 42.7287C57.973 42.4801 58.0405 42.2067 58.0405 41.9084V41.12C57.9931 41.165 57.9138 41.2053 57.8026 41.2408C57.6937 41.2763 57.567 41.3082 57.4226 41.3366C57.2805 41.3627 57.1385 41.3852 56.9964 41.4041C56.8544 41.4231 56.7266 41.4396 56.6129 41.4538C56.3052 41.4917 56.0424 41.5509 55.8246 41.6314C55.6068 41.7119 55.4399 41.8232 55.3239 41.9652C55.2079 42.1049 55.1499 42.2848 55.1499 42.505C55.1499 42.8364 55.2682 43.0933 55.505 43.2756C55.7417 43.4555 56.0388 43.5455 56.3963 43.5455ZM60.354 44V38.5455H60.9684V39.3835H61.0146C61.1235 39.1089 61.3129 38.8875 61.5827 38.7195C61.855 38.549 62.1628 38.4638 62.506 38.4638C62.5581 38.4638 62.6161 38.465 62.68 38.4673C62.744 38.4697 62.7972 38.4721 62.8398 38.4744V39.1172C62.8114 39.1125 62.7617 39.1054 62.6907 39.0959C62.6197 39.0864 62.5427 39.0817 62.4599 39.0817C62.1758 39.0817 61.9225 39.142 61.6999 39.2628C61.4798 39.3812 61.3058 39.5457 61.1779 39.7564C61.0501 39.9671 60.9862 40.2074 60.9862 40.4773V44H60.354ZM65.4419 44.1243C65.1129 44.1243 64.8122 44.0604 64.54 43.9325C64.2677 43.8023 64.0511 43.6153 63.8901 43.3714C63.7291 43.1252 63.6486 42.8269 63.6486 42.4766C63.6486 42.2067 63.6995 41.9794 63.8013 41.7947C63.9031 41.6101 64.0475 41.4586 64.2346 41.3402C64.4216 41.2218 64.6429 41.1283 64.8986 41.0597C65.1543 40.991 65.436 40.9377 65.7438 40.8999C66.0492 40.862 66.3072 40.8288 66.5179 40.8004C66.731 40.772 66.8932 40.727 67.0044 40.6655C67.1157 40.6039 67.1713 40.5045 67.1713 40.3672V40.2393C67.1713 39.8677 67.0601 39.5753 66.8375 39.3622C66.6174 39.1468 66.3001 39.0391 65.8858 39.0391C65.4928 39.0391 65.1721 39.1255 64.9235 39.2983C64.6773 39.4711 64.5044 39.6747 64.405 39.9091L63.8049 39.6925C63.928 39.3942 64.0984 39.1562 64.3162 38.9787C64.534 38.7988 64.7779 38.6697 65.0478 38.5916C65.3176 38.5111 65.5911 38.4709 65.8681 38.4709C66.0764 38.4709 66.293 38.4981 66.5179 38.5526C66.7452 38.607 66.9559 38.7017 67.15 38.8366C67.3442 38.9692 67.5016 39.1551 67.6223 39.3942C67.7431 39.6309 67.8034 39.9316 67.8034 40.2962V44H67.1713V43.1371H67.1323C67.0565 43.2981 66.9441 43.4543 66.7949 43.6058C66.6458 43.7573 66.4587 43.8816 66.2338 43.9787C66.0089 44.0758 65.745 44.1243 65.4419 44.1243ZM65.5272 43.5455C65.8633 43.5455 66.1545 43.4709 66.4007 43.3217C66.647 43.1726 66.8364 42.9749 66.9689 42.7287C67.1039 42.4801 67.1713 42.2067 67.1713 41.9084V41.12C67.124 41.165 67.0447 41.2053 66.9334 41.2408C66.8245 41.2763 66.6979 41.3082 66.5534 41.3366C66.4114 41.3627 66.2694 41.3852 66.1273 41.4041C65.9853 41.4231 65.8574 41.4396 65.7438 41.4538C65.436 41.4917 65.1732 41.5509 64.9554 41.6314C64.7376 41.7119 64.5707 41.8232 64.4547 41.9652C64.3387 42.1049 64.2807 42.2848 64.2807 42.505C64.2807 42.8364 64.3991 43.0933 64.6358 43.2756C64.8726 43.4555 65.1697 43.5455 65.5272 43.5455ZM71.6333 38.5455V39.0959H69.0304V38.5455H71.6333ZM69.8436 37.2386H70.4792V42.576C70.4792 42.8033 70.5183 42.982 70.5964 43.1122C70.6745 43.2401 70.7763 43.3312 70.9018 43.3857C71.0273 43.4377 71.161 43.4638 71.3031 43.4638C71.3859 43.4638 71.457 43.459 71.5162 43.4496C71.5753 43.4377 71.6274 43.4259 71.6724 43.4141L71.8074 43.9858C71.7458 44.0095 71.67 44.0308 71.5801 44.0497C71.4901 44.071 71.3788 44.0817 71.2463 44.0817C71.0143 44.0817 70.7905 44.0308 70.5751 43.929C70.362 43.8272 70.1868 43.6757 70.0495 43.4744C69.9122 43.2732 69.8436 43.0234 69.8436 42.7251V37.2386ZM73.076 44V38.5455H73.7116V44H73.076ZM73.3991 37.608C73.2689 37.608 73.1577 37.5642 73.0653 37.4766C72.973 37.3866 72.9268 37.2789 72.9268 37.1534C72.9268 37.0279 72.973 36.9214 73.0653 36.8338C73.1577 36.7438 73.2689 36.6989 73.3991 36.6989C73.5294 36.6989 73.6406 36.7438 73.733 36.8338C73.8253 36.9214 73.8714 37.0279 73.8714 37.1534C73.8714 37.2789 73.8253 37.3866 73.733 37.4766C73.6406 37.5642 73.5294 37.608 73.3991 37.608ZM77.5034 44.1136C77.0323 44.1136 76.6156 43.9941 76.2534 43.755C75.8935 43.5159 75.6118 43.1856 75.4082 42.7642C75.2046 42.3404 75.1028 41.8516 75.1028 41.2976C75.1028 40.7389 75.2046 40.2476 75.4082 39.8239C75.6118 39.3977 75.8935 39.0663 76.2534 38.8295C76.6156 38.5904 77.0323 38.4709 77.5034 38.4709C77.9745 38.4709 78.39 38.5904 78.7498 38.8295C79.1097 39.0687 79.3914 39.4001 79.595 39.8239C79.801 40.2476 79.9039 40.7389 79.9039 41.2976C79.9039 41.8516 79.8021 42.3404 79.5985 42.7642C79.3949 43.1856 79.112 43.5159 78.7498 43.755C78.39 43.9941 77.9745 44.1136 77.5034 44.1136ZM77.5034 43.5348C77.8822 43.5348 78.2029 43.433 78.4657 43.2294C78.7285 43.0258 78.9274 42.7547 79.0623 42.4162C79.1996 42.0777 79.2683 41.7048 79.2683 41.2976C79.2683 40.8904 79.1996 40.5163 79.0623 40.1754C78.9274 39.8345 78.7285 39.5611 78.4657 39.3551C78.2029 39.1491 77.8822 39.0462 77.5034 39.0462C77.127 39.0462 76.8062 39.1491 76.541 39.3551C76.2782 39.5611 76.0782 39.8345 75.9409 40.1754C75.8059 40.5163 75.7385 40.8904 75.7385 41.2976C75.7385 41.7048 75.8059 42.0777 75.9409 42.4162C76.0782 42.7547 76.2782 43.0258 76.541 43.2294C76.8038 43.433 77.1246 43.5348 77.5034 43.5348ZM81.9237 40.5909V44H81.2915V38.5455H81.9059V39.4013H81.9627C82.0906 39.1219 82.2894 38.8982 82.5593 38.7301C82.8316 38.5597 83.1677 38.4744 83.5678 38.4744C83.9348 38.4744 84.2567 38.5514 84.5337 38.7053C84.8131 38.8568 85.0297 39.0805 85.1836 39.3764C85.3398 39.6723 85.418 40.0357 85.418 40.4666V44H84.7859V40.5057C84.7859 40.0582 84.6604 39.7043 84.4094 39.4439C84.1609 39.1835 83.8271 39.0533 83.408 39.0533C83.1216 39.0533 82.8671 39.1148 82.6445 39.2379C82.422 39.361 82.2456 39.5386 82.1154 39.7706C81.9876 40.0002 81.9237 40.2737 81.9237 40.5909ZM24.733 52.9318C24.733 52.0795 24.8408 51.2746 25.0562 50.517C25.2716 49.7595 25.5806 49.0492 25.983 48.3864H26.5583C26.3855 48.6657 26.2269 48.9818 26.0825 49.3345C25.9404 49.6873 25.8173 50.0637 25.7132 50.4638C25.609 50.8639 25.5285 51.2734 25.4717 51.6925C25.4149 52.1091 25.3865 52.5223 25.3865 52.9318C25.3865 53.4787 25.4362 54.0303 25.5356 54.5866C25.635 55.143 25.7723 55.6709 25.9475 56.1705C26.1251 56.67 26.3287 57.1056 26.5583 57.4773H25.983C25.5806 56.812 25.2716 56.1006 25.0562 55.343C24.8408 54.5855 24.733 53.7817 24.733 52.9318ZM27.9371 56V50.5455H28.5514V51.3835H28.6082C28.7171 51.1018 28.8982 50.8804 29.1515 50.7195C29.4072 50.5561 29.7138 50.4744 30.0713 50.4744C30.4477 50.4744 30.7567 50.5632 30.9981 50.7408C31.242 50.916 31.4243 51.1574 31.545 51.4652H31.5912C31.7143 51.1622 31.9143 50.9219 32.1913 50.7443C32.4707 50.5644 32.8092 50.4744 33.2069 50.4744C33.7136 50.4744 34.1137 50.6342 34.4072 50.9538C34.7008 51.2711 34.8476 51.7351 34.8476 52.3459V56H34.2155V52.3459C34.2155 51.915 34.1054 51.5919 33.8852 51.3764C33.665 51.161 33.375 51.0533 33.0152 51.0533C32.5985 51.0533 32.2777 51.1811 32.0528 51.4368C31.8279 51.6925 31.7155 52.0168 31.7155 52.4098V56H31.0692V52.2891C31.0692 51.9197 30.9662 51.6214 30.7602 51.3942C30.5542 51.1669 30.2642 51.0533 29.8902 51.0533C29.6392 51.0533 29.4131 51.1148 29.2119 51.2379C29.0131 51.361 28.8556 51.5327 28.7396 51.7528C28.626 51.9706 28.5692 52.2216 28.5692 52.5057V56H27.9371ZM38.0445 56.1243C37.7154 56.1243 37.4147 56.0604 37.1425 55.9325C36.8702 55.8023 36.6536 55.6153 36.4926 55.3714C36.3316 55.1252 36.2512 54.8269 36.2512 54.4766C36.2512 54.2067 36.3021 53.9794 36.4039 53.7947C36.5057 53.6101 36.6501 53.4586 36.8371 53.3402C37.0241 53.2218 37.2455 53.1283 37.5012 53.0597C37.7568 52.991 38.0386 52.9377 38.3463 52.8999C38.6517 52.862 38.9098 52.8288 39.1205 52.8004C39.3335 52.772 39.4957 52.727 39.607 52.6655C39.7182 52.6039 39.7739 52.5045 39.7739 52.3672V52.2393C39.7739 51.8677 39.6626 51.5753 39.4401 51.3622C39.2199 51.1468 38.9027 51.0391 38.4884 51.0391C38.0954 51.0391 37.7746 51.1255 37.526 51.2983C37.2798 51.4711 37.107 51.6747 37.0075 51.9091L36.4074 51.6925C36.5305 51.3942 36.701 51.1562 36.9188 50.9787C37.1366 50.7988 37.3804 50.6697 37.6503 50.5916C37.9202 50.5111 38.1936 50.4709 38.4706 50.4709C38.6789 50.4709 38.8956 50.4981 39.1205 50.5526C39.3477 50.607 39.5584 50.7017 39.7526 50.8366C39.9467 50.9692 40.1041 51.1551 40.2249 51.3942C40.3456 51.6309 40.406 51.9316 40.406 52.2962V56H39.7739V55.1371H39.7348C39.6591 55.2981 39.5466 55.4543 39.3975 55.6058C39.2483 55.7573 39.0613 55.8816 38.8364 55.9787C38.6115 56.0758 38.3475 56.1243 38.0445 56.1243ZM38.1297 55.5455C38.4659 55.5455 38.7571 55.4709 39.0033 55.3217C39.2495 55.1726 39.4389 54.9749 39.5715 54.7287C39.7064 54.4801 39.7739 54.2067 39.7739 53.9084V53.12C39.7265 53.165 39.6472 53.2053 39.536 53.2408C39.4271 53.2763 39.3004 53.3082 39.156 53.3366C39.0139 53.3627 38.8719 53.3852 38.7298 53.4041C38.5878 53.4231 38.46 53.4396 38.3463 53.4538C38.0386 53.4917 37.7758 53.5509 37.558 53.6314C37.3402 53.7119 37.1733 53.8232 37.0573 53.9652C36.9413 54.1049 36.8833 54.2848 36.8833 54.505C36.8833 54.8364 37.0016 55.0933 37.2384 55.2756C37.4751 55.4555 37.7722 55.5455 38.1297 55.5455ZM42.3325 58.0455C42.207 58.0455 42.0898 58.0336 41.9809 58.0099C41.872 57.9863 41.7856 57.9602 41.7217 57.9318L41.8921 57.3743C42.1076 57.4406 42.2993 57.4643 42.4674 57.4453C42.6355 57.4287 42.7847 57.353 42.9149 57.218C43.0451 57.0855 43.1611 56.8819 43.2629 56.6072L43.4617 56.0533L41.4553 50.5455H42.1407L43.76 55.1655H43.8097L45.4291 50.5455H46.1144L43.8062 56.8629C43.7091 57.1257 43.5896 57.3447 43.4475 57.5199C43.3055 57.6974 43.141 57.8288 42.9539 57.9141C42.7693 58.0017 42.5621 58.0455 42.3325 58.0455ZM47.4825 56V48.7273H48.1182V51.5859H48.175C48.246 51.4226 48.3478 51.2545 48.4804 51.0817C48.6153 50.9089 48.7917 50.7644 49.0095 50.6484C49.2297 50.5301 49.5067 50.4709 49.8405 50.4709C50.2879 50.4709 50.6809 50.5893 51.0194 50.826C51.358 51.0604 51.622 51.3894 51.8113 51.8132C52.0007 52.2346 52.0954 52.7259 52.0954 53.2869C52.0954 53.8504 52.0007 54.344 51.8113 54.7678C51.6243 55.1915 51.3615 55.5218 51.023 55.7585C50.6868 55.9953 50.2962 56.1136 49.8511 56.1136C49.5197 56.1136 49.2427 56.0545 49.0202 55.9361C48.8 55.8177 48.6224 55.6721 48.4875 55.4993C48.3525 55.3241 48.2484 55.1536 48.175 54.9879H48.0969V56H47.4825ZM48.1075 53.2763C48.1075 53.7166 48.1726 54.1072 48.3028 54.4482C48.4354 54.7867 48.6248 55.053 48.871 55.2472C49.1196 55.4389 49.4202 55.5348 49.773 55.5348C50.1352 55.5348 50.4418 55.4354 50.6927 55.2365C50.9437 55.0353 51.1343 54.7642 51.2645 54.4233C51.3947 54.0824 51.4598 53.7 51.4598 53.2763C51.4598 52.8572 51.3947 52.4796 51.2645 52.1435C51.1366 51.8073 50.9472 51.541 50.6963 51.3445C50.4453 51.1456 50.1376 51.0462 49.773 51.0462C49.4179 51.0462 49.116 51.142 48.8675 51.3338C48.6212 51.5232 48.433 51.786 48.3028 52.1222C48.1726 52.456 48.1075 52.8407 48.1075 53.2763ZM55.6892 56.1136C55.1802 56.1136 54.7398 55.9953 54.3682 55.7585C53.9965 55.5194 53.7088 55.1892 53.5052 54.7678C53.304 54.344 53.2034 53.8563 53.2034 53.3047C53.2034 52.7554 53.304 52.2678 53.5052 51.8416C53.7088 51.4131 53.9894 51.0781 54.3469 50.8366C54.7067 50.5928 55.1222 50.4709 55.5933 50.4709C55.8892 50.4709 56.1745 50.5253 56.4491 50.6342C56.7238 50.7408 56.97 50.9053 57.1878 51.1278C57.4079 51.348 57.5819 51.6262 57.7098 51.9624C57.8376 52.2962 57.9015 52.6915 57.9015 53.1484V53.4609H53.6402V52.9034H57.2552C57.2552 52.553 57.1842 52.2382 57.0422 51.9588C56.9025 51.6771 56.7072 51.4545 56.4562 51.2912C56.2077 51.1278 55.92 51.0462 55.5933 51.0462C55.2477 51.0462 54.9434 51.1385 54.6807 51.3232C54.4179 51.5078 54.2119 51.7517 54.0628 52.0547C53.916 52.3577 53.8414 52.6892 53.839 53.049V53.3828C53.839 53.8161 53.9136 54.1948 54.0628 54.5192C54.2143 54.8411 54.4285 55.0909 54.7055 55.2685C54.9825 55.446 55.3104 55.5348 55.6892 55.5348C55.9472 55.5348 56.1733 55.4946 56.3675 55.4141C56.564 55.3336 56.7285 55.2259 56.8611 55.0909C56.996 54.9536 57.0978 54.8033 57.1665 54.6399L57.7666 54.8352C57.6837 55.0649 57.5476 55.2768 57.3582 55.4709C57.1712 55.665 56.9368 55.8213 56.6551 55.9396C56.3757 56.0556 56.0538 56.1136 55.6892 56.1136ZM64.3513 50.5455V51.0959H61.6702V50.5455H64.3513ZM62.5083 56V49.7464C62.5083 49.4529 62.5757 49.2055 62.7107 49.0043C62.848 48.803 63.0267 48.6503 63.2469 48.5462C63.4671 48.442 63.7003 48.3899 63.9465 48.3899C64.1122 48.3899 64.2495 48.4041 64.3584 48.4325C64.4697 48.4586 64.5573 48.4846 64.6212 48.5107L64.4365 49.0646C64.3892 49.0504 64.3312 49.0339 64.2625 49.0149C64.1939 48.996 64.1075 48.9865 64.0033 48.9865C63.7287 48.9865 63.5168 49.0634 63.3676 49.2173C63.2185 49.3712 63.1439 49.5914 63.1439 49.8778L63.1404 56H62.5083ZM67.5083 56.1136C67.0371 56.1136 66.6205 55.9941 66.2583 55.755C65.8984 55.5159 65.6167 55.1856 65.4131 54.7642C65.2095 54.3404 65.1077 53.8516 65.1077 53.2976C65.1077 52.7389 65.2095 52.2476 65.4131 51.8239C65.6167 51.3977 65.8984 51.0663 66.2583 50.8295C66.6205 50.5904 67.0371 50.4709 67.5083 50.4709C67.9794 50.4709 68.3949 50.5904 68.7547 50.8295C69.1146 51.0687 69.3963 51.4001 69.5999 51.8239C69.8058 52.2476 69.9088 52.7389 69.9088 53.2976C69.9088 53.8516 69.807 54.3404 69.6034 54.7642C69.3998 55.1856 69.1169 55.5159 68.7547 55.755C68.3949 55.9941 67.9794 56.1136 67.5083 56.1136ZM67.5083 55.5348C67.887 55.5348 68.2078 55.433 68.4706 55.2294C68.7334 55.0258 68.9323 54.7547 69.0672 54.4162C69.2045 54.0777 69.2732 53.7048 69.2732 53.2976C69.2732 52.8904 69.2045 52.5163 69.0672 52.1754C68.9323 51.8345 68.7334 51.5611 68.4706 51.3551C68.2078 51.1491 67.887 51.0462 67.5083 51.0462C67.1318 51.0462 66.811 51.1491 66.5459 51.3551C66.2831 51.5611 66.0831 51.8345 65.9458 52.1754C65.8108 52.5163 65.7433 52.8904 65.7433 53.2976C65.7433 53.7048 65.8108 54.0777 65.9458 54.4162C66.0831 54.7547 66.2831 55.0258 66.5459 55.2294C66.8087 55.433 67.1295 55.5348 67.5083 55.5348ZM71.2964 56V50.5455H71.9108V51.3835H71.9569C72.0658 51.1089 72.2552 50.8875 72.5251 50.7195C72.7974 50.549 73.1051 50.4638 73.4484 50.4638C73.5005 50.4638 73.5585 50.465 73.6224 50.4673C73.6863 50.4697 73.7396 50.4721 73.7822 50.4744V51.1172C73.7538 51.1125 73.7041 51.1054 73.6331 51.0959C73.5621 51.0864 73.4851 51.0817 73.4023 51.0817C73.1182 51.0817 72.8648 51.142 72.6423 51.2628C72.4221 51.3812 72.2481 51.5457 72.1203 51.7564C71.9925 51.9671 71.9285 52.2074 71.9285 52.4773V56H71.2964ZM79.9177 50.5455V51.0959H77.2366V50.5455H79.9177ZM78.0747 56V49.7464C78.0747 49.4529 78.1421 49.2055 78.2771 49.0043C78.4144 48.803 78.5931 48.6503 78.8133 48.5462C79.0335 48.442 79.2667 48.3899 79.5129 48.3899C79.6786 48.3899 79.8159 48.4041 79.9248 48.4325C80.0361 48.4586 80.1237 48.4846 80.1876 48.5107L80.0029 49.0646C79.9556 49.0504 79.8976 49.0339 79.8289 49.0149C79.7603 48.996 79.6739 48.9865 79.5697 48.9865C79.2951 48.9865 79.0832 49.0634 78.934 49.2173C78.7849 49.3712 78.7103 49.5914 78.7103 49.8778L78.7068 56H78.0747ZM81.1792 56V50.5455H81.7936V51.3835H81.8398C81.9487 51.1089 82.1381 50.8875 82.4079 50.7195C82.6802 50.549 82.988 50.4638 83.3312 50.4638C83.3833 50.4638 83.4413 50.465 83.5052 50.4673C83.5692 50.4697 83.6224 50.4721 83.665 50.4744V51.1172C83.6366 51.1125 83.5869 51.1054 83.5159 51.0959C83.4449 51.0864 83.3679 51.0817 83.2851 51.0817C83.001 51.0817 82.7477 51.142 82.5251 51.2628C82.305 51.3812 82.1309 51.5457 82.0031 51.7564C81.8753 51.9671 81.8113 52.2074 81.8113 52.4773V56H81.1792ZM86.7829 56.1136C86.2739 56.1136 85.8336 55.9953 85.4619 55.7585C85.0902 55.5194 84.8026 55.1892 84.599 54.7678C84.3978 54.344 84.2971 53.8563 84.2971 53.3047C84.2971 52.7554 84.3978 52.2678 84.599 51.8416C84.8026 51.4131 85.0831 51.0781 85.4406 50.8366C85.8005 50.5928 86.2159 50.4709 86.6871 50.4709C86.983 50.4709 87.2683 50.5253 87.5429 50.6342C87.8175 50.7408 88.0637 50.9053 88.2815 51.1278C88.5017 51.348 88.6757 51.6262 88.8035 51.9624C88.9314 52.2962 88.9953 52.6915 88.9953 53.1484V53.4609H84.7339V52.9034H88.349C88.349 52.553 88.278 52.2382 88.1359 51.9588C87.9962 51.6771 87.8009 51.4545 87.55 51.2912C87.3014 51.1278 87.0138 51.0462 86.6871 51.0462C86.3414 51.0462 86.0372 51.1385 85.7744 51.3232C85.5116 51.5078 85.3057 51.7517 85.1565 52.0547C85.0097 52.3577 84.9352 52.6892 84.9328 53.049V53.3828C84.9328 53.8161 85.0074 54.1948 85.1565 54.5192C85.308 54.8411 85.5223 55.0909 85.7993 55.2685C86.0763 55.446 86.4041 55.5348 86.7829 55.5348C87.041 55.5348 87.2671 55.4946 87.4612 55.4141C87.6577 55.3336 87.8222 55.2259 87.9548 55.0909C88.0898 54.9536 88.1916 54.8033 88.2602 54.6399L88.8604 54.8352C88.7775 55.0649 88.6414 55.2768 88.452 55.4709C88.2649 55.665 88.0306 55.8213 87.7488 55.9396C87.4695 56.0556 87.1475 56.1136 86.7829 56.1136ZM92.5935 56.1136C92.0845 56.1136 91.6441 55.9953 91.2725 55.7585C90.9008 55.5194 90.6131 55.1892 90.4095 54.7678C90.2083 54.344 90.1077 53.8563 90.1077 53.3047C90.1077 52.7554 90.2083 52.2678 90.4095 51.8416C90.6131 51.4131 90.8937 51.0781 91.2512 50.8366C91.611 50.5928 92.0265 50.4709 92.4976 50.4709C92.7935 50.4709 93.0788 50.5253 93.3534 50.6342C93.628 50.7408 93.8743 50.9053 94.0921 51.1278C94.3122 51.348 94.4862 51.6262 94.6141 51.9624C94.7419 52.2962 94.8058 52.6915 94.8058 53.1484V53.4609H90.5445V52.9034H94.1595C94.1595 52.553 94.0885 52.2382 93.9465 51.9588C93.8068 51.6771 93.6115 51.4545 93.3605 51.2912C93.1119 51.1278 92.8243 51.0462 92.4976 51.0462C92.152 51.0462 91.8477 51.1385 91.585 51.3232C91.3222 51.5078 91.1162 51.7517 90.9671 52.0547C90.8203 52.3577 90.7457 52.6892 90.7433 53.049V53.3828C90.7433 53.8161 90.8179 54.1948 90.9671 54.5192C91.1186 54.8411 91.3328 55.0909 91.6098 55.2685C91.8868 55.446 92.2147 55.5348 92.5935 55.5348C92.8515 55.5348 93.0776 55.4946 93.2718 55.4141C93.4682 55.3336 93.6328 55.2259 93.7654 55.0909C93.9003 54.9536 94.0021 54.8033 94.0708 54.6399L94.6709 54.8352C94.588 55.0649 94.4519 55.2768 94.2625 55.4709C94.0755 55.665 93.8411 55.8213 93.5594 55.9396C93.28 56.0556 92.9581 56.1136 92.5935 56.1136ZM30.3083 62.5455V63.0959H27.6272V62.5455H30.3083ZM28.4653 68V61.7464C28.4653 61.4529 28.5328 61.2055 28.6677 61.0043C28.805 60.803 28.9838 60.6503 29.2039 60.5462C29.4241 60.442 29.6573 60.3899 29.9035 60.3899C30.0692 60.3899 30.2065 60.4041 30.3154 60.4325C30.4267 60.4586 30.5143 60.4846 30.5782 60.5107L30.3936 61.0646C30.3462 61.0504 30.2882 61.0339 30.2195 61.0149C30.1509 60.996 30.0645 60.9865 29.9603 60.9865C29.6857 60.9865 29.4738 61.0634 29.3247 61.2173C29.1755 61.3712 29.1009 61.5914 29.1009 61.8778L29.0974 68H28.4653ZM33.4653 68.1136C32.9942 68.1136 32.5775 67.9941 32.2153 67.755C31.8554 67.5159 31.5737 67.1856 31.3701 66.7642C31.1665 66.3404 31.0647 65.8516 31.0647 65.2976C31.0647 64.7389 31.1665 64.2476 31.3701 63.8239C31.5737 63.3977 31.8554 63.0663 32.2153 62.8295C32.5775 62.5904 32.9942 62.4709 33.4653 62.4709C33.9364 62.4709 34.3519 62.5904 34.7117 62.8295C35.0716 63.0687 35.3533 63.4001 35.5569 63.8239C35.7629 64.2476 35.8659 64.7389 35.8659 65.2976C35.8659 65.8516 35.7641 66.3404 35.5605 66.7642C35.3569 67.1856 35.074 67.5159 34.7117 67.755C34.3519 67.9941 33.9364 68.1136 33.4653 68.1136ZM33.4653 67.5348C33.8441 67.5348 34.1649 67.433 34.4276 67.2294C34.6904 67.0258 34.8893 66.7547 35.0242 66.4162C35.1615 66.0777 35.2302 65.7048 35.2302 65.2976C35.2302 64.8904 35.1615 64.5163 35.0242 64.1754C34.8893 63.8345 34.6904 63.5611 34.4276 63.3551C34.1649 63.1491 33.8441 63.0462 33.4653 63.0462C33.0889 63.0462 32.7681 63.1491 32.5029 63.3551C32.2401 63.5611 32.0401 63.8345 31.9028 64.1754C31.7678 64.5163 31.7004 64.8904 31.7004 65.2976C31.7004 65.7048 31.7678 66.0777 31.9028 66.4162C32.0401 66.7547 32.2401 67.0258 32.5029 67.2294C32.7657 67.433 33.0865 67.5348 33.4653 67.5348ZM37.2535 68V62.5455H37.8678V63.3835H37.914C38.0229 63.1089 38.2123 62.8875 38.4822 62.7195C38.7544 62.549 39.0622 62.4638 39.4055 62.4638C39.4575 62.4638 39.5155 62.465 39.5795 62.4673C39.6434 62.4697 39.6966 62.4721 39.7393 62.4744V63.1172C39.7108 63.1125 39.6611 63.1054 39.5901 63.0959C39.5191 63.0864 39.4421 63.0817 39.3593 63.0817C39.0752 63.0817 38.8219 63.142 38.5993 63.2628C38.3792 63.3812 38.2052 63.5457 38.0773 63.7564C37.9495 63.9671 37.8856 64.2074 37.8856 64.4773V68H37.2535ZM45.7789 62.5455V63.0959H43.1759V62.5455H45.7789ZM43.9891 61.2386H44.6247V66.576C44.6247 66.8033 44.6638 66.982 44.7419 67.1122C44.82 67.2401 44.9218 67.3312 45.0473 67.3857C45.1728 67.4377 45.3066 67.4638 45.4486 67.4638C45.5315 67.4638 45.6025 67.459 45.6617 67.4496C45.7209 67.4377 45.7729 67.4259 45.8179 67.4141L45.9529 67.9858C45.8913 68.0095 45.8155 68.0308 45.7256 68.0497C45.6356 68.071 45.5244 68.0817 45.3918 68.0817C45.1598 68.0817 44.936 68.0308 44.7206 67.929C44.5075 67.8272 44.3324 67.6757 44.195 67.4744C44.0577 67.2732 43.9891 67.0234 43.9891 66.7251V61.2386ZM47.9637 64.5909V68H47.3316V60.7273H47.9637V63.4013H48.0205C48.1483 63.1196 48.346 62.8946 48.6135 62.7266C48.8834 62.5585 49.2243 62.4744 49.6363 62.4744C50.0056 62.4744 50.3299 62.5502 50.6093 62.7017C50.8886 62.8532 51.1064 63.0769 51.2627 63.3729C51.4189 63.6688 51.4971 64.0334 51.4971 64.4666V68H50.8614V64.5057C50.8614 64.0559 50.7359 63.7019 50.485 63.4439C50.2364 63.1835 49.9002 63.0533 49.4765 63.0533C49.1853 63.0533 48.926 63.1148 48.6988 63.2379C48.4715 63.361 48.2916 63.5386 48.159 63.7706C48.0288 64.0002 47.9637 64.2737 47.9637 64.5909ZM55.2817 68.1136C54.8106 68.1136 54.3939 67.9941 54.0317 67.755C53.6718 67.5159 53.3901 67.1856 53.1865 66.7642C52.9829 66.3404 52.8811 65.8516 52.8811 65.2976C52.8811 64.7389 52.9829 64.2476 53.1865 63.8239C53.3901 63.3977 53.6718 63.0663 54.0317 62.8295C54.3939 62.5904 54.8106 62.4709 55.2817 62.4709C55.7528 62.4709 56.1683 62.5904 56.5281 62.8295C56.888 63.0687 57.1697 63.4001 57.3733 63.8239C57.5793 64.2476 57.6823 64.7389 57.6823 65.2976C57.6823 65.8516 57.5805 66.3404 57.3769 66.7642C57.1733 67.1856 56.8904 67.5159 56.5281 67.755C56.1683 67.9941 55.7528 68.1136 55.2817 68.1136ZM55.2817 67.5348C55.6605 67.5348 55.9813 67.433 56.2441 67.2294C56.5068 67.0258 56.7057 66.7547 56.8406 66.4162C56.978 66.0777 57.0466 65.7048 57.0466 65.2976C57.0466 64.8904 56.978 64.5163 56.8406 64.1754C56.7057 63.8345 56.5068 63.5611 56.2441 63.3551C55.9813 63.1491 55.6605 63.0462 55.2817 63.0462C54.9053 63.0462 54.5845 63.1491 54.3193 63.3551C54.0566 63.5611 53.8565 63.8345 53.7192 64.1754C53.5843 64.5163 53.5168 64.8904 53.5168 65.2976C53.5168 65.7048 53.5843 66.0777 53.7192 66.4162C53.8565 66.7547 54.0566 67.0258 54.3193 67.2294C54.5821 67.433 54.9029 67.5348 55.2817 67.5348ZM62.7346 63.7422L62.1558 63.9055C62.099 63.7422 62.0185 63.5942 61.9143 63.4616C61.8102 63.3291 61.674 63.2237 61.5059 63.1456C61.3402 63.0675 61.1343 63.0284 60.8881 63.0284C60.5187 63.0284 60.2157 63.116 59.979 63.2912C59.7422 63.4664 59.6238 63.6925 59.6238 63.9695C59.6238 64.2038 59.7043 64.3944 59.8653 64.5412C60.0287 64.6856 60.2796 64.8004 60.6182 64.8857L61.442 65.0881C61.8989 65.1993 62.241 65.3757 62.4683 65.6172C62.6979 65.8587 62.8128 66.1617 62.8128 66.5263C62.8128 66.834 62.7275 67.1075 62.5571 67.3466C62.3866 67.5857 62.1487 67.7739 61.8433 67.9112C61.5403 68.0462 61.1887 68.1136 60.7886 68.1136C60.2559 68.1136 59.8168 67.9941 59.4711 67.755C59.1255 67.5135 58.9041 67.1655 58.8071 66.7109L59.4143 66.5618C59.4925 66.8861 59.6452 67.1312 59.8724 67.2969C60.1021 67.4626 60.4039 67.5455 60.778 67.5455C61.197 67.5455 61.532 67.4519 61.7829 67.2649C62.0339 67.0755 62.1594 66.8388 62.1594 66.5547C62.1594 66.3345 62.086 66.1499 61.9392 66.0007C61.7924 65.8492 61.5699 65.7379 61.2716 65.6669L60.3802 65.4538C59.9068 65.3402 59.5564 65.1603 59.3291 64.9141C59.1018 64.6679 58.9882 64.3625 58.9882 63.9979C58.9882 63.6972 59.0699 63.4332 59.2332 63.206C59.3966 62.9763 59.6215 62.7964 59.9079 62.6662C60.1944 62.536 60.5211 62.4709 60.8881 62.4709C61.3876 62.4709 61.7865 62.5845 62.0848 62.8118C62.3854 63.0367 62.6021 63.3468 62.7346 63.7422ZM66.4021 68.1136C65.8931 68.1136 65.4527 67.9953 65.0811 67.7585C64.7094 67.5194 64.4217 67.1892 64.2181 66.7678C64.0169 66.344 63.9163 65.8563 63.9163 65.3047C63.9163 64.7554 64.0169 64.2678 64.2181 63.8416C64.4217 63.4131 64.7023 63.0781 65.0597 62.8366C65.4196 62.5928 65.8351 62.4709 66.3062 62.4709C66.6021 62.4709 66.8874 62.5253 67.162 62.6342C67.4366 62.7408 67.6829 62.9053 67.9007 63.1278C68.1208 63.348 68.2948 63.6262 68.4227 63.9624C68.5505 64.2962 68.6144 64.6915 68.6144 65.1484V65.4609H64.3531V64.9034H67.9681C67.9681 64.553 67.8971 64.2382 67.7551 63.9588C67.6154 63.6771 67.4201 63.4545 67.1691 63.2912C66.9205 63.1278 66.6329 63.0462 66.3062 63.0462C65.9606 63.0462 65.6563 63.1385 65.3936 63.3232C65.1308 63.5078 64.9248 63.7517 64.7757 64.0547C64.6289 64.3577 64.5543 64.6892 64.5519 65.049V65.3828C64.5519 65.8161 64.6265 66.1948 64.7757 66.5192C64.9272 66.8411 65.1414 67.0909 65.4184 67.2685C65.6954 67.446 66.0233 67.5348 66.4021 67.5348C66.6601 67.5348 66.8862 67.4946 67.0803 67.4141C67.2768 67.3336 67.4414 67.2259 67.574 67.0909C67.7089 66.9536 67.8107 66.8033 67.8794 66.6399L68.4795 66.8352C68.3966 67.0649 68.2605 67.2768 68.0711 67.4709C67.8841 67.665 67.6497 67.8213 67.368 67.9396C67.0886 68.0556 66.7667 68.1136 66.4021 68.1136ZM74.0308 68L72.3831 62.5455H73.0507L74.3433 67.0447H74.3895L75.6785 62.5455H76.3497L77.6281 67.0341H77.6778L78.9704 62.5455H79.6381L77.9903 68H77.3369L76.0443 63.5291H75.9768L74.6842 68H74.0308ZM81.4988 64.5909V68H80.8667V60.7273H81.4988V63.4013H81.5557C81.6835 63.1196 81.8812 62.8946 82.1487 62.7266C82.4186 62.5585 82.7595 62.4744 83.1714 62.4744C83.5407 62.4744 83.8651 62.5502 84.1444 62.7017C84.4238 62.8532 84.6416 63.0769 84.7979 63.3729C84.9541 63.6688 85.0322 64.0334 85.0322 64.4666V68H84.3966V64.5057C84.3966 64.0559 84.2711 63.7019 84.0202 63.4439C83.7716 63.1835 83.4354 63.0533 83.0116 63.0533C82.7204 63.0533 82.4612 63.1148 82.2339 63.2379C82.0067 63.361 81.8267 63.5386 81.6942 63.7706C81.564 64.0002 81.4988 64.2737 81.4988 64.5909ZM88.8169 68.1136C88.3457 68.1136 87.9291 67.9941 87.5669 67.755C87.207 67.5159 86.9253 67.1856 86.7217 66.7642C86.5181 66.3404 86.4163 65.8516 86.4163 65.2976C86.4163 64.7389 86.5181 64.2476 86.7217 63.8239C86.9253 63.3977 87.207 63.0663 87.5669 62.8295C87.9291 62.5904 88.3457 62.4709 88.8169 62.4709C89.288 62.4709 89.7035 62.5904 90.0633 62.8295C90.4231 63.0687 90.7049 63.4001 90.9085 63.8239C91.1144 64.2476 91.2174 64.7389 91.2174 65.2976C91.2174 65.8516 91.1156 66.3404 90.912 66.7642C90.7084 67.1856 90.4255 67.5159 90.0633 67.755C89.7035 67.9941 89.288 68.1136 88.8169 68.1136ZM88.8169 67.5348C89.1956 67.5348 89.5164 67.433 89.7792 67.2294C90.042 67.0258 90.2409 66.7547 90.3758 66.4162C90.5131 66.0777 90.5818 65.7048 90.5818 65.2976C90.5818 64.8904 90.5131 64.5163 90.3758 64.1754C90.2409 63.8345 90.042 63.5611 89.7792 63.3551C89.5164 63.1491 89.1956 63.0462 88.8169 63.0462C88.4404 63.0462 88.1196 63.1491 87.8545 63.3551C87.5917 63.5611 87.3917 63.8345 87.2544 64.1754C87.1194 64.5163 87.0519 64.8904 87.0519 65.2976C87.0519 65.7048 87.1194 66.0777 87.2544 66.4162C87.3917 66.7547 87.5917 67.0258 87.8545 67.2294C88.1173 67.433 88.4381 67.5348 88.8169 67.5348ZM30.5609 80.1136C30.0732 80.1136 29.6483 79.9917 29.286 79.7479C28.9262 79.504 28.6468 79.1702 28.448 78.7464C28.2491 78.3227 28.1497 77.8397 28.1497 77.2976C28.1497 76.7507 28.2503 76.2642 28.4515 75.8381C28.6551 75.4119 28.9368 75.0781 29.2967 74.8366C29.6565 74.5928 30.0744 74.4709 30.5502 74.4709C30.9148 74.4709 31.2451 74.5419 31.541 74.6839C31.8369 74.8236 32.0808 75.0213 32.2725 75.277C32.4667 75.5303 32.5886 75.8262 32.6383 76.1648H31.9991C31.9328 75.857 31.773 75.5942 31.5197 75.3764C31.2688 75.1562 30.9492 75.0462 30.5609 75.0462C30.2129 75.0462 29.9051 75.1409 29.6376 75.3303C29.3701 75.5173 29.1606 75.7789 29.0091 76.1151C28.8599 76.4489 28.7853 76.8359 28.7853 77.2763C28.7853 77.719 28.8587 78.1108 29.0055 78.4517C29.1523 78.7902 29.3583 79.0554 29.6234 79.2472C29.8909 79.4389 30.2034 79.5348 30.5609 79.5348C30.8024 79.5348 31.0225 79.4898 31.2214 79.3999C31.4226 79.3075 31.5907 79.1773 31.7257 79.0092C31.863 78.8411 31.9553 78.6411 32.0027 78.4091H32.6419C32.5945 78.7382 32.4773 79.0317 32.2903 79.2898C32.1056 79.5455 31.8654 79.7467 31.5694 79.8935C31.2759 80.0402 30.9397 80.1136 30.5609 80.1136ZM36.1167 80.1136C35.6455 80.1136 35.2289 79.9941 34.8667 79.755C34.5068 79.5159 34.2251 79.1856 34.0215 78.7642C33.8179 78.3404 33.7161 77.8516 33.7161 77.2976C33.7161 76.7389 33.8179 76.2476 34.0215 75.8239C34.2251 75.3977 34.5068 75.0663 34.8667 74.8295C35.2289 74.5904 35.6455 74.4709 36.1167 74.4709C36.5878 74.4709 37.0033 74.5904 37.3631 74.8295C37.723 75.0687 38.0047 75.4001 38.2083 75.8239C38.4142 76.2476 38.5172 76.7389 38.5172 77.2976C38.5172 77.8516 38.4154 78.3404 38.2118 78.7642C38.0082 79.1856 37.7253 79.5159 37.3631 79.755C37.0033 79.9941 36.5878 80.1136 36.1167 80.1136ZM36.1167 79.5348C36.4954 79.5348 36.8162 79.433 37.079 79.2294C37.3418 79.0258 37.5407 78.7547 37.6756 78.4162C37.8129 78.0777 37.8816 77.7048 37.8816 77.2976C37.8816 76.8904 37.8129 76.5163 37.6756 76.1754C37.5407 75.8345 37.3418 75.5611 37.079 75.3551C36.8162 75.1491 36.4954 75.0462 36.1167 75.0462C35.7402 75.0462 35.4194 75.1491 35.1543 75.3551C34.8915 75.5611 34.6915 75.8345 34.5542 76.1754C34.4192 76.5163 34.3517 76.8904 34.3517 77.2976C34.3517 77.7048 34.4192 78.0777 34.5542 78.4162C34.6915 78.7547 34.8915 79.0258 35.1543 79.2294C35.4171 79.433 35.7379 79.5348 36.1167 79.5348ZM39.9048 80V74.5455H40.5192V75.3835H40.576C40.6849 75.1018 40.866 74.8804 41.1193 74.7195C41.375 74.5561 41.6816 74.4744 42.0391 74.4744C42.4155 74.4744 42.7244 74.5632 42.9659 74.7408C43.2098 74.916 43.392 75.1574 43.5128 75.4652H43.5589C43.6821 75.1622 43.8821 74.9219 44.1591 74.7443C44.4384 74.5644 44.777 74.4744 45.1747 74.4744C45.6813 74.4744 46.0814 74.6342 46.375 74.9538C46.6686 75.2711 46.8153 75.7351 46.8153 76.3459V80H46.1832V76.3459C46.1832 75.915 46.0732 75.5919 45.853 75.3764C45.6328 75.161 45.3428 75.0533 44.983 75.0533C44.5663 75.0533 44.2455 75.1811 44.0206 75.4368C43.7957 75.6925 43.6832 76.0168 43.6832 76.4098V80H43.0369V76.2891C43.0369 75.9197 42.9339 75.6214 42.728 75.3942C42.522 75.1669 42.232 75.0533 41.858 75.0533C41.607 75.0533 41.3809 75.1148 41.1797 75.2379C40.9808 75.361 40.8234 75.5327 40.7074 75.7528C40.5938 75.9706 40.5369 76.2216 40.5369 76.5057V80H39.9048ZM48.4888 82.0455V74.5455H49.1032V75.5859H49.1777C49.2535 75.4226 49.3577 75.2557 49.4902 75.0852C49.6228 74.9124 49.798 74.7668 50.0158 74.6484C50.236 74.5301 50.513 74.4709 50.8468 74.4709C51.2966 74.4709 51.6896 74.5893 52.0257 74.826C52.3643 75.0604 52.6271 75.3894 52.8141 75.8132C53.0035 76.2346 53.0982 76.7259 53.0982 77.2869C53.0982 77.8504 53.0035 78.344 52.8141 78.7678C52.6271 79.1915 52.3643 79.5218 52.0257 79.7585C51.6896 79.9953 51.2989 80.1136 50.8539 80.1136C50.5248 80.1136 50.249 80.0545 50.0265 79.9361C49.8063 79.8177 49.6275 79.6721 49.4902 79.4993C49.3553 79.3241 49.2511 79.1536 49.1777 78.9879H49.1209V82.0455H48.4888ZM49.1138 77.2763C49.1138 77.7166 49.1789 78.1072 49.3091 78.4482C49.4417 78.7867 49.6311 79.053 49.8773 79.2472C50.1259 79.4389 50.4266 79.5348 50.7793 79.5348C51.1415 79.5348 51.4469 79.4354 51.6955 79.2365C51.9464 79.0353 52.137 78.7642 52.2672 78.4233C52.3998 78.0824 52.4661 77.7 52.4661 77.2763C52.4661 76.8572 52.401 76.4796 52.2708 76.1435C52.1429 75.8073 51.9535 75.541 51.7026 75.3445C51.4516 75.1456 51.1439 75.0462 50.7793 75.0462C50.4242 75.0462 50.1223 75.142 49.8738 75.3338C49.6252 75.5232 49.4358 75.786 49.3056 76.1222C49.1777 76.456 49.1138 76.8407 49.1138 77.2763ZM55.117 72.7273V80H54.4849V72.7273H55.117ZM58.9949 80.1136C58.4859 80.1136 58.0455 79.9953 57.6738 79.7585C57.3021 79.5194 57.0145 79.1892 56.8109 78.7678C56.6097 78.344 56.5091 77.8563 56.5091 77.3047C56.5091 76.7554 56.6097 76.2678 56.8109 75.8416C57.0145 75.4131 57.295 75.0781 57.6525 74.8366C58.0124 74.5928 58.4279 74.4709 58.899 74.4709C59.1949 74.4709 59.4802 74.5253 59.7548 74.6342C60.0294 74.7408 60.2756 74.9053 60.4934 75.1278C60.7136 75.348 60.8876 75.6262 61.0154 75.9624C61.1433 76.2962 61.2072 76.6915 61.2072 77.1484V77.4609H56.9458V76.9034H60.5609C60.5609 76.553 60.4899 76.2382 60.3478 75.9588C60.2082 75.6771 60.0128 75.4545 59.7619 75.2912C59.5133 75.1278 59.2257 75.0462 58.899 75.0462C58.5533 75.0462 58.2491 75.1385 57.9863 75.3232C57.7235 75.5078 57.5176 75.7517 57.3684 76.0547C57.2217 76.3577 57.1471 76.6892 57.1447 77.049V77.3828C57.1447 77.8161 57.2193 78.1948 57.3684 78.5192C57.5199 78.8411 57.7342 79.0909 58.0112 79.2685C58.2882 79.446 58.6161 79.5348 58.9949 79.5348C59.2529 79.5348 59.479 79.4946 59.6731 79.4141C59.8696 79.3336 60.0342 79.2259 60.1667 79.0909C60.3017 78.9536 60.4035 78.8033 60.4721 78.6399L61.0723 78.8352C60.9894 79.0649 60.8533 79.2768 60.6639 79.4709C60.4769 79.665 60.2425 79.8213 59.9608 79.9396C59.6814 80.0556 59.3594 80.1136 58.9949 80.1136ZM64.7486 74.5455V75.0959H62.1456V74.5455H64.7486ZM62.9588 73.2386H63.5945V78.576C63.5945 78.8033 63.6335 78.982 63.7116 79.1122C63.7898 79.2401 63.8916 79.3312 64.017 79.3857C64.1425 79.4377 64.2763 79.4638 64.4183 79.4638C64.5012 79.4638 64.5722 79.459 64.6314 79.4496C64.6906 79.4377 64.7427 79.4259 64.7876 79.4141L64.9226 79.9858C64.861 80.0095 64.7853 80.0308 64.6953 80.0497C64.6054 80.071 64.4941 80.0817 64.3615 80.0817C64.1295 80.0817 63.9058 80.0308 63.6903 79.929C63.4773 79.8272 63.3021 79.6757 63.1648 79.4744C63.0275 79.2732 62.9588 79.0234 62.9588 78.7251V73.2386ZM68.3308 80.1136C67.8218 80.1136 67.3815 79.9953 67.0098 79.7585C66.6381 79.5194 66.3504 79.1892 66.1468 78.7678C65.9456 78.344 65.845 77.8563 65.845 77.3047C65.845 76.7554 65.9456 76.2678 66.1468 75.8416C66.3504 75.4131 66.631 75.0781 66.9885 74.8366C67.3483 74.5928 67.7638 74.4709 68.2349 74.4709C68.5308 74.4709 68.8161 74.5253 69.0907 74.6342C69.3654 74.7408 69.6116 74.9053 69.8294 75.1278C70.0495 75.348 70.2235 75.6262 70.3514 75.9624C70.4792 76.2962 70.5431 76.6915 70.5431 77.1484V77.4609H66.2818V76.9034H69.8968C69.8968 76.553 69.8258 76.2382 69.6838 75.9588C69.5441 75.6771 69.3488 75.4545 69.0978 75.2912C68.8493 75.1278 68.5616 75.0462 68.2349 75.0462C67.8893 75.0462 67.585 75.1385 67.3223 75.3232C67.0595 75.5078 66.8535 75.7517 66.7044 76.0547C66.5576 76.3577 66.483 76.6892 66.4806 77.049V77.3828C66.4806 77.8161 66.5552 78.1948 66.7044 78.5192C66.8559 78.8411 67.0701 79.0909 67.3471 79.2685C67.6241 79.446 67.952 79.5348 68.3308 79.5348C68.5888 79.5348 68.8149 79.4946 69.0091 79.4141C69.2056 79.3336 69.3701 79.2259 69.5027 79.0909C69.6376 78.9536 69.7394 78.8033 69.8081 78.6399L70.4082 78.8352C70.3253 79.0649 70.1892 79.2768 69.9998 79.4709C69.8128 79.665 69.5784 79.8213 69.2967 79.9396C69.0173 80.0556 68.6954 80.1136 68.3308 80.1136ZM73.8999 80.1136C73.4524 80.1136 73.0606 79.9953 72.7244 79.7585C72.3883 79.5218 72.1255 79.1915 71.9361 78.7678C71.7491 78.344 71.6555 77.8504 71.6555 77.2869C71.6555 76.7259 71.7491 76.2346 71.9361 75.8132C72.1255 75.3894 72.3894 75.0604 72.728 74.826C73.0665 74.5893 73.4607 74.4709 73.9105 74.4709C74.242 74.4709 74.5178 74.5301 74.7379 74.6484C74.9581 74.7644 75.1345 74.9089 75.267 75.0817C75.3996 75.2545 75.5026 75.4226 75.576 75.5859H75.6328V72.7273H76.2685V80H75.6506V78.9879H75.576C75.5026 79.1536 75.3984 79.3241 75.2635 79.4993C75.1286 79.6721 74.9498 79.8177 74.7273 79.9361C74.5071 80.0545 74.2313 80.1136 73.8999 80.1136ZM73.9744 79.5348C74.3272 79.5348 74.6278 79.4389 74.8764 79.2472C75.125 79.053 75.3144 78.7867 75.4446 78.4482C75.5772 78.1072 75.6435 77.7166 75.6435 77.2763C75.6435 76.8407 75.5784 76.456 75.4482 76.1222C75.3179 75.786 75.1286 75.5232 74.88 75.3338C74.6314 75.142 74.3295 75.0462 73.9744 75.0462C73.6098 75.0462 73.3021 75.1456 73.0511 75.3445C72.8026 75.541 72.6132 75.8073 72.483 76.1435C72.3551 76.4796 72.2912 76.8572 72.2912 77.2763C72.2912 77.7 72.3563 78.0824 72.4865 78.4233C72.6167 78.7642 72.8061 79.0353 73.0547 79.2365C73.3056 79.4354 73.6122 79.5348 73.9744 79.5348ZM82.4048 80.1243C82.0758 80.1243 81.7751 80.0604 81.5028 79.9325C81.2306 79.8023 81.014 79.6153 80.853 79.3714C80.692 79.1252 80.6115 78.8269 80.6115 78.4766C80.6115 78.2067 80.6624 77.9794 80.7642 77.7947C80.866 77.6101 81.0104 77.4586 81.1974 77.3402C81.3845 77.2218 81.6058 77.1283 81.8615 77.0597C82.1172 76.991 82.3989 76.9377 82.7067 76.8999C83.0121 76.862 83.2701 76.8288 83.4808 76.8004C83.6939 76.772 83.8561 76.727 83.9673 76.6655C84.0786 76.6039 84.1342 76.5045 84.1342 76.3672V76.2393C84.1342 75.8677 84.023 75.5753 83.8004 75.3622C83.5803 75.1468 83.263 75.0391 82.8487 75.0391C82.4557 75.0391 82.1349 75.1255 81.8864 75.2983C81.6402 75.4711 81.4673 75.6747 81.3679 75.9091L80.7678 75.6925C80.8909 75.3942 81.0613 75.1562 81.2791 74.9787C81.4969 74.7988 81.7408 74.6697 82.0107 74.5916C82.2805 74.5111 82.554 74.4709 82.831 74.4709C83.0393 74.4709 83.2559 74.4981 83.4808 74.5526C83.7081 74.607 83.9188 74.7017 84.1129 74.8366C84.3071 74.9692 84.4645 75.1551 84.5852 75.3942C84.706 75.6309 84.7663 75.9316 84.7663 76.2962V80H84.1342V79.1371H84.0952C84.0194 79.2981 83.907 79.4543 83.7578 79.6058C83.6087 79.7573 83.4216 79.8816 83.1967 79.9787C82.9718 80.0758 82.7079 80.1243 82.4048 80.1243ZM82.4901 79.5455C82.8262 79.5455 83.1174 79.4709 83.3636 79.3217C83.6098 79.1726 83.7992 78.9749 83.9318 78.7287C84.0668 78.4801 84.1342 78.2067 84.1342 77.9084V77.12C84.0869 77.165 84.0076 77.2053 83.8963 77.2408C83.7874 77.2763 83.6607 77.3082 83.5163 77.3366C83.3743 77.3627 83.2322 77.3852 83.0902 77.4041C82.9482 77.4231 82.8203 77.4396 82.7067 77.4538C82.3989 77.4917 82.1361 77.5509 81.9183 77.6314C81.7005 77.7119 81.5336 77.8232 81.4176 77.9652C81.3016 78.1049 81.2436 78.2848 81.2436 78.505C81.2436 78.8364 81.362 79.0933 81.5987 79.2756C81.8355 79.4555 82.1326 79.5455 82.4901 79.5455ZM87.0799 76.5909V80H86.4478V74.5455H87.0621V75.4013H87.119C87.2468 75.1219 87.4457 74.8982 87.7156 74.7301C87.9878 74.5597 88.324 74.4744 88.7241 74.4744C89.091 74.4744 89.413 74.5514 89.69 74.7053C89.9693 74.8568 90.186 75.0805 90.3398 75.3764C90.4961 75.6723 90.5742 76.0357 90.5742 76.4666V80H89.9421V76.5057C89.9421 76.0582 89.8166 75.7043 89.5657 75.4439C89.3171 75.1835 88.9833 75.0533 88.5643 75.0533C88.2778 75.0533 88.0233 75.1148 87.8008 75.2379C87.5782 75.361 87.4019 75.5386 87.2717 75.7706C87.1438 76.0002 87.0799 76.2737 87.0799 76.5909ZM29.4809 92.1136C29.0098 92.1136 28.5931 91.9941 28.2309 91.755C27.8711 91.5159 27.5893 91.1856 27.3857 90.7642C27.1821 90.3404 27.0803 89.8516 27.0803 89.2976C27.0803 88.7389 27.1821 88.2476 27.3857 87.8239C27.5893 87.3977 27.8711 87.0663 28.2309 86.8295C28.5931 86.5904 29.0098 86.4709 29.4809 86.4709C29.952 86.4709 30.3675 86.5904 30.7274 86.8295C31.0872 87.0687 31.3689 87.4001 31.5725 87.8239C31.7785 88.2476 31.8815 88.7389 31.8815 89.2976C31.8815 89.8516 31.7797 90.3404 31.5761 90.7642C31.3725 91.1856 31.0896 91.5159 30.7274 91.755C30.3675 91.9941 29.952 92.1136 29.4809 92.1136ZM29.4809 91.5348C29.8597 91.5348 30.1805 91.433 30.4433 91.2294C30.7061 91.0258 30.9049 90.7547 31.0399 90.4162C31.1772 90.0777 31.2458 89.7048 31.2458 89.2976C31.2458 88.8904 31.1772 88.5163 31.0399 88.1754C30.9049 87.8345 30.7061 87.5611 30.4433 87.3551C30.1805 87.1491 29.8597 87.0462 29.4809 87.0462C29.1045 87.0462 28.7837 87.1491 28.5186 87.3551C28.2558 87.5611 28.0557 87.8345 27.9184 88.1754C27.7835 88.5163 27.716 88.8904 27.716 89.2976C27.716 89.7048 27.7835 90.0777 27.9184 90.4162C28.0557 90.7547 28.2558 91.0258 28.5186 91.2294C28.7813 91.433 29.1021 91.5348 29.4809 91.5348ZM33.9012 88.5909V92H33.2691V86.5455H33.8834V87.4013H33.9403C34.0681 87.1219 34.267 86.8982 34.5368 86.7301C34.8091 86.5597 35.1453 86.4744 35.5454 86.4744C35.9123 86.4744 36.2343 86.5514 36.5113 86.7053C36.7906 86.8568 37.0073 87.0805 37.1611 87.3764C37.3174 87.6723 37.3955 88.0357 37.3955 88.4666V92H36.7634V88.5057C36.7634 88.0582 36.6379 87.7043 36.387 87.4439C36.1384 87.1835 35.8046 87.0533 35.3856 87.0533C35.0991 87.0533 34.8446 87.1148 34.6221 87.2379C34.3995 87.361 34.2232 87.5386 34.093 87.7706C33.9651 88.0002 33.9012 88.2737 33.9012 88.5909ZM39.6922 84.7273V92H39.0601V84.7273H39.6922ZM41.3719 92V86.5455H42.0075V92H41.3719ZM41.695 85.608C41.5648 85.608 41.4536 85.5642 41.3612 85.4766C41.2689 85.3866 41.2227 85.2789 41.2227 85.1534C41.2227 85.0279 41.2689 84.9214 41.3612 84.8338C41.4536 84.7438 41.5648 84.6989 41.695 84.6989C41.8253 84.6989 41.9365 84.7438 42.0289 84.8338C42.1212 84.9214 42.1673 85.0279 42.1673 85.1534C42.1673 85.2789 42.1212 85.3866 42.0289 85.4766C41.9365 85.5642 41.8253 85.608 41.695 85.608ZM44.3113 88.5909V92H43.6792V86.5455H44.2936V87.4013H44.3504C44.4782 87.1219 44.6771 86.8982 44.947 86.7301C45.2193 86.5597 45.5554 86.4744 45.9555 86.4744C46.3225 86.4744 46.6444 86.5514 46.9214 86.7053C47.2008 86.8568 47.4174 87.0805 47.5713 87.3764C47.7275 87.6723 47.8057 88.0357 47.8057 88.4666V92H47.1736V88.5057C47.1736 88.0582 47.0481 87.7043 46.7971 87.4439C46.5486 87.1835 46.2148 87.0533 45.7957 87.0533C45.5093 87.0533 45.2548 87.1148 45.0322 87.2379C44.8097 87.361 44.6333 87.5386 44.5031 87.7706C44.3753 88.0002 44.3113 88.2737 44.3113 88.5909ZM51.6755 92.1136C51.1665 92.1136 50.7262 91.9953 50.3545 91.7585C49.9828 91.5194 49.6952 91.1892 49.4916 90.7678C49.2903 90.344 49.1897 89.8563 49.1897 89.3047C49.1897 88.7554 49.2903 88.2678 49.4916 87.8416C49.6952 87.4131 49.9757 87.0781 50.3332 86.8366C50.693 86.5928 51.1085 86.4709 51.5796 86.4709C51.8756 86.4709 52.1608 86.5253 52.4355 86.6342C52.7101 86.7408 52.9563 86.9053 53.1741 87.1278C53.3943 87.348 53.5683 87.6262 53.6961 87.9624C53.824 88.2962 53.8879 88.6915 53.8879 89.1484V89.4609H49.6265V88.9034H53.2416C53.2416 88.553 53.1705 88.2382 53.0285 87.9588C52.8888 87.6771 52.6935 87.4545 52.4426 87.2912C52.194 87.1278 51.9063 87.0462 51.5796 87.0462C51.234 87.0462 50.9298 87.1385 50.667 87.3232C50.4042 87.5078 50.1982 87.7517 50.0491 88.0547C49.9023 88.3577 49.8277 88.6892 49.8254 89.049V89.3828C49.8254 89.8161 49.8999 90.1948 50.0491 90.5192C50.2006 90.8411 50.4149 91.0909 50.6919 91.2685C50.9688 91.446 51.2967 91.5348 51.6755 91.5348C51.9336 91.5348 52.1597 91.4946 52.3538 91.4141C52.5503 91.3336 52.7148 91.2259 52.8474 91.0909C52.9823 90.9536 53.0841 90.8033 53.1528 90.6399L53.7529 90.8352C53.6701 91.0649 53.5339 91.2768 53.3445 91.4709C53.1575 91.665 52.9231 91.8213 52.6414 91.9396C52.3621 92.0556 52.0401 92.1136 51.6755 92.1136ZM60.224 92.1136C59.7363 92.1136 59.3113 91.9917 58.9491 91.7479C58.5893 91.504 58.3099 91.1702 58.1111 90.7464C57.9122 90.3227 57.8128 89.8397 57.8128 89.2976C57.8128 88.7507 57.9134 88.2642 58.1146 87.8381C58.3182 87.4119 58.5999 87.0781 58.9598 86.8366C59.3196 86.5928 59.7375 86.4709 60.2133 86.4709C60.5779 86.4709 60.9082 86.5419 61.2041 86.6839C61.5 86.8236 61.7439 87.0213 61.9356 87.277C62.1298 87.5303 62.2517 87.8262 62.3014 88.1648H61.6622C61.5959 87.857 61.4361 87.5942 61.1828 87.3764C60.9318 87.1562 60.6122 87.0462 60.224 87.0462C59.876 87.0462 59.5682 87.1409 59.3007 87.3303C59.0332 87.5173 58.8237 87.7789 58.6721 88.1151C58.523 88.4489 58.4484 88.8359 58.4484 89.2763C58.4484 89.719 58.5218 90.1108 58.6686 90.4517C58.8154 90.7902 59.0213 91.0554 59.2865 91.2472C59.554 91.4389 59.8665 91.5348 60.224 91.5348C60.4655 91.5348 60.6856 91.4898 60.8845 91.3999C61.0857 91.3075 61.2538 91.1773 61.3888 91.0092C61.5261 90.8411 61.6184 90.6411 61.6657 90.4091H62.305C62.2576 90.7382 62.1404 91.0317 61.9534 91.2898C61.7687 91.5455 61.5284 91.7467 61.2325 91.8935C60.939 92.0402 60.6028 92.1136 60.224 92.1136ZM65.7797 92.1136C65.3086 92.1136 64.892 91.9941 64.5297 91.755C64.1699 91.5159 63.8882 91.1856 63.6846 90.7642C63.481 90.3404 63.3792 89.8516 63.3792 89.2976C63.3792 88.7389 63.481 88.2476 63.6846 87.8239C63.8882 87.3977 64.1699 87.0663 64.5297 86.8295C64.892 86.5904 65.3086 86.4709 65.7797 86.4709C66.2509 86.4709 66.6663 86.5904 67.0262 86.8295C67.386 87.0687 67.6678 87.4001 67.8714 87.8239C68.0773 88.2476 68.1803 88.7389 68.1803 89.2976C68.1803 89.8516 68.0785 90.3404 67.8749 90.7642C67.6713 91.1856 67.3884 91.5159 67.0262 91.755C66.6663 91.9941 66.2509 92.1136 65.7797 92.1136ZM65.7797 91.5348C66.1585 91.5348 66.4793 91.433 66.7421 91.2294C67.0049 91.0258 67.2037 90.7547 67.3387 90.4162C67.476 90.0777 67.5447 89.7048 67.5447 89.2976C67.5447 88.8904 67.476 88.5163 67.3387 88.1754C67.2037 87.8345 67.0049 87.5611 66.7421 87.3551C66.4793 87.1491 66.1585 87.0462 65.7797 87.0462C65.4033 87.0462 65.0825 87.1491 64.8174 87.3551C64.5546 87.5611 64.3546 87.8345 64.2172 88.1754C64.0823 88.5163 64.0148 88.8904 64.0148 89.2976C64.0148 89.7048 64.0823 90.0777 64.2172 90.4162C64.3546 90.7547 64.5546 91.0258 64.8174 91.2294C65.0802 91.433 65.401 91.5348 65.7797 91.5348ZM73.0338 89.9155V86.5455H73.6659V92H73.0338V91.0945H72.9841C72.8563 91.3738 72.6539 91.607 72.3769 91.794C72.0999 91.9787 71.7613 92.071 71.3612 92.071C71.0132 92.071 70.7043 91.9953 70.4344 91.8438C70.1645 91.6899 69.9526 91.465 69.7987 91.169C69.6449 90.8731 69.5679 90.5097 69.5679 90.0788V86.5455H70.2V90.0398C70.2 90.4659 70.3255 90.8092 70.5764 91.0696C70.8274 91.3277 71.1494 91.4567 71.5423 91.4567C71.7886 91.4567 72.0253 91.3975 72.2526 91.2791C72.4798 91.1607 72.6669 90.9879 72.8137 90.7607C72.9604 90.531 73.0338 90.2493 73.0338 89.9155ZM75.3394 92V86.5455H75.9537V87.3835H75.9999C76.1088 87.1089 76.2982 86.8875 76.5681 86.7195C76.8403 86.549 77.1481 86.4638 77.4914 86.4638C77.5435 86.4638 77.6015 86.465 77.6654 86.4673C77.7293 86.4697 77.7826 86.4721 77.8252 86.4744V87.1172C77.7968 87.1125 77.7471 87.1054 77.676 87.0959C77.605 87.0864 77.5281 87.0817 77.4452 87.0817C77.1611 87.0817 76.9078 87.142 76.6853 87.2628C76.4651 87.3812 76.2911 87.5457 76.1633 87.7564C76.0354 87.9671 75.9715 88.2074 75.9715 88.4773V92H75.3394ZM82.5686 87.7422L81.9898 87.9055C81.933 87.7422 81.8525 87.5942 81.7483 87.4616C81.6441 87.3291 81.508 87.2237 81.3399 87.1456C81.1742 87.0675 80.9682 87.0284 80.722 87.0284C80.3527 87.0284 80.0497 87.116 79.8129 87.2912C79.5762 87.4664 79.4578 87.6925 79.4578 87.9695C79.4578 88.2038 79.5383 88.3944 79.6993 88.5412C79.8627 88.6856 80.1136 88.8004 80.4521 88.8857L81.276 89.0881C81.7329 89.1993 82.075 89.3757 82.3023 89.6172C82.5319 89.8587 82.6468 90.1617 82.6468 90.5263C82.6468 90.834 82.5615 91.1075 82.3911 91.3466C82.2206 91.5857 81.9827 91.7739 81.6773 91.9112C81.3743 92.0462 81.0227 92.1136 80.6226 92.1136C80.0899 92.1136 79.6508 91.9941 79.3051 91.755C78.9595 91.5135 78.7381 91.1655 78.6411 90.7109L79.2483 90.5618C79.3264 90.8861 79.4791 91.1312 79.7064 91.2969C79.9361 91.4626 80.2379 91.5455 80.6119 91.5455C81.031 91.5455 81.366 91.4519 81.6169 91.2649C81.8679 91.0755 81.9933 90.8388 81.9933 90.5547C81.9933 90.3345 81.92 90.1499 81.7732 90.0007C81.6264 89.8492 81.4039 89.7379 81.1056 89.6669L80.2142 89.4538C79.7407 89.3402 79.3904 89.1603 79.1631 88.9141C78.9358 88.6679 78.8222 88.3625 78.8222 87.9979C78.8222 87.6972 78.9039 87.4332 79.0672 87.206C79.2306 86.9763 79.4555 86.7964 79.7419 86.6662C80.0284 86.536 80.3551 86.4709 80.722 86.4709C81.2216 86.4709 81.6205 86.5845 81.9188 86.8118C82.2194 87.0367 82.4361 87.3468 82.5686 87.7422ZM86.2361 92.1136C85.7271 92.1136 85.2867 91.9953 84.915 91.7585C84.5434 91.5194 84.2557 91.1892 84.0521 90.7678C83.8509 90.344 83.7503 89.8563 83.7503 89.3047C83.7503 88.7554 83.8509 88.2678 84.0521 87.8416C84.2557 87.4131 84.5363 87.0781 84.8937 86.8366C85.2536 86.5928 85.6691 86.4709 86.1402 86.4709C86.4361 86.4709 86.7214 86.5253 86.996 86.6342C87.2706 86.7408 87.5168 86.9053 87.7346 87.1278C87.9548 87.348 88.1288 87.6262 88.2567 87.9624C88.3845 88.2962 88.4484 88.6915 88.4484 89.1484V89.4609H84.1871V88.9034H87.8021C87.8021 88.553 87.7311 88.2382 87.589 87.9588C87.4494 87.6771 87.2541 87.4545 87.0031 87.2912C86.7545 87.1278 86.4669 87.0462 86.1402 87.0462C85.7945 87.0462 85.4903 87.1385 85.2275 87.3232C84.9648 87.5078 84.7588 87.7517 84.6096 88.0547C84.4629 88.3577 84.3883 88.6892 84.3859 89.049V89.3828C84.3859 89.8161 84.4605 90.1948 84.6096 90.5192C84.7612 90.8411 84.9754 91.0909 85.2524 91.2685C85.5294 91.446 85.8573 91.5348 86.2361 91.5348C86.4941 91.5348 86.7202 91.4946 86.9143 91.4141C87.1108 91.3336 87.2754 91.2259 87.4079 91.0909C87.5429 90.9536 87.6447 90.8033 87.7133 90.6399L88.3135 90.8352C88.2306 91.0649 88.0945 91.2768 87.9051 91.4709C87.7181 91.665 87.4837 91.8213 87.202 91.9396C86.9226 92.0556 86.6006 92.1136 86.2361 92.1136ZM91.3754 88.9318C91.3754 89.7841 91.2677 90.589 91.0523 91.3466C90.8369 92.1042 90.5279 92.8144 90.1254 93.4773H89.5502C89.723 93.1979 89.8804 92.8819 90.0225 92.5291C90.1669 92.1764 90.2912 91.8 90.3953 91.3999C90.4995 90.9998 90.58 90.5902 90.6368 90.1712C90.6936 89.7521 90.722 89.339 90.722 88.9318C90.722 88.3849 90.6723 87.8333 90.5729 87.277C90.4735 86.7206 90.335 86.1927 90.1574 85.6932C89.9822 85.1937 89.7798 84.758 89.5502 84.3864H90.1254C90.5279 85.0516 90.8369 85.763 91.0523 86.5206C91.2677 87.2782 91.3754 88.0819 91.3754 88.9318Z" fill="#222222"/>
<defs>
<filter id="filter0_d_991_221" x="0" y="0" width="118" height="118" filterUnits="userSpaceOnUse" color-interpolation-filters="sRGB">
<feFlood flood-opacity="0" result="BackgroundImageFix"/>
<feColorMatrix in="SourceAlpha" type="matrix" values="0 0 0 0 0 0 0 0 0 0 0 0 0 0 0 0 0 0 127 0" result="hardAlpha"/>
<feOffset dy="4"/>
<feGaussianBlur stdDeviation="2"/>
<feComposite in2="hardAlpha" operator="out"/>
<feColorMatrix type="matrix" values="0 0 0 0 0 0 0 0 0 0 0 0 0 0 0 0 0 0 0.25 0"/>
<feBlend mode="normal" in2="BackgroundImageFix" result="effect1_dropShadow_991_221"/>
<feBlend mode="normal" in="SourceGraphic" in2="effect1_dropShadow_991_221" result="shape"/>
</filter>
</defs>
</svg>
