<svg width="118" height="118" viewBox="0 0 118 118" fill="none" xmlns="http://www.w3.org/2000/svg">
<g filter="url(#filter0_d_991_217)">
<rect x="4" width="110" height="110" fill="#BFBDD0"/>
</g>
<path d="M28.8892 31V25.5455H29.5036V26.3835H29.5604C29.6693 26.1018 29.8504 25.8804 30.1037 25.7195C30.3594 25.5561 30.666 25.4744 31.0234 25.4744C31.3999 25.4744 31.7088 25.5632 31.9503 25.7408C32.1941 25.916 32.3764 26.1574 32.4972 26.4652H32.5433C32.6664 26.1622 32.8665 25.9219 33.1435 25.7443C33.4228 25.5644 33.7614 25.4744 34.1591 25.4744C34.6657 25.4744 35.0658 25.6342 35.3594 25.9538C35.6529 26.2711 35.7997 26.7351 35.7997 27.3459V31H35.1676V27.3459C35.1676 26.915 35.0575 26.5919 34.8374 26.3764C34.6172 26.161 34.3272 26.0533 33.9673 26.0533C33.5507 26.0533 33.2299 26.1811 33.005 26.4368C32.7801 26.6925 32.6676 27.0168 32.6676 27.4098V31H32.0213V27.2891C32.0213 26.9197 31.9183 26.6214 31.7124 26.3942C31.5064 26.1669 31.2164 26.0533 30.8423 26.0533C30.5914 26.0533 30.3653 26.1148 30.1641 26.2379C29.9652 26.361 29.8078 26.5327 29.6918 26.7528C29.5781 26.9706 29.5213 27.2216 29.5213 27.5057V31H28.8892ZM39.5932 31.1136C39.1221 31.1136 38.7054 30.9941 38.3432 30.755C37.9834 30.5159 37.7016 30.1856 37.498 29.7642C37.2944 29.3404 37.1926 28.8516 37.1926 28.2976C37.1926 27.7389 37.2944 27.2476 37.498 26.8239C37.7016 26.3977 37.9834 26.0663 38.3432 25.8295C38.7054 25.5904 39.1221 25.4709 39.5932 25.4709C40.0643 25.4709 40.4798 25.5904 40.8397 25.8295C41.1995 26.0687 41.4812 26.4001 41.6848 26.8239C41.8908 27.2476 41.9938 27.7389 41.9938 28.2976C41.9938 28.8516 41.892 29.3404 41.6884 29.7642C41.4848 30.1856 41.2019 30.5159 40.8397 30.755C40.4798 30.9941 40.0643 31.1136 39.5932 31.1136ZM39.5932 30.5348C39.972 30.5348 40.2928 30.433 40.5556 30.2294C40.8184 30.0258 41.0172 29.7547 41.1522 29.4162C41.2895 29.0777 41.3581 28.7048 41.3581 28.2976C41.3581 27.8904 41.2895 27.5163 41.1522 27.1754C41.0172 26.8345 40.8184 26.5611 40.5556 26.3551C40.2928 26.1491 39.972 26.0462 39.5932 26.0462C39.2168 26.0462 38.896 26.1491 38.6309 26.3551C38.3681 26.5611 38.168 26.8345 38.0307 27.1754C37.8958 27.5163 37.8283 27.8904 37.8283 28.2976C37.8283 28.7048 37.8958 29.0777 38.0307 29.4162C38.168 29.7547 38.3681 30.0258 38.6309 30.2294C38.8936 30.433 39.2144 30.5348 39.5932 30.5348ZM47.0462 26.7422L46.4673 26.9055C46.4105 26.7422 46.33 26.5942 46.2259 26.4616C46.1217 26.3291 45.9856 26.2237 45.8175 26.1456C45.6518 26.0675 45.4458 26.0284 45.1996 26.0284C44.8303 26.0284 44.5272 26.116 44.2905 26.2912C44.0537 26.4664 43.9354 26.6925 43.9354 26.9695C43.9354 27.2038 44.0159 27.3944 44.1768 27.5412C44.3402 27.6856 44.5911 27.8004 44.9297 27.8857L45.7536 28.0881C46.2105 28.1993 46.5526 28.3757 46.7798 28.6172C47.0095 28.8587 47.1243 29.1617 47.1243 29.5263C47.1243 29.834 47.0391 30.1075 46.8686 30.3466C46.6982 30.5857 46.4602 30.7739 46.1548 30.9112C45.8518 31.0462 45.5002 31.1136 45.1001 31.1136C44.5675 31.1136 44.1283 30.9941 43.7827 30.755C43.437 30.5135 43.2157 30.1655 43.1186 29.7109L43.7259 29.5618C43.804 29.8861 43.9567 30.1312 44.1839 30.2969C44.4136 30.4626 44.7154 30.5455 45.0895 30.5455C45.5085 30.5455 45.8435 30.4519 46.0945 30.2649C46.3454 30.0755 46.4709 29.8388 46.4709 29.5547C46.4709 29.3345 46.3975 29.1499 46.2507 29.0007C46.1039 28.8492 45.8814 28.7379 45.5831 28.6669L44.6918 28.4538C44.2183 28.3402 43.8679 28.1603 43.6406 27.9141C43.4134 27.6679 43.2997 27.3625 43.2997 26.9979C43.2997 26.6972 43.3814 26.4332 43.5447 26.206C43.7081 25.9763 43.933 25.7964 44.2195 25.6662C44.5059 25.536 44.8326 25.4709 45.1996 25.4709C45.6991 25.4709 46.098 25.5845 46.3963 25.8118C46.697 26.0367 46.9136 26.3468 47.0462 26.7422ZM50.6568 25.5455V26.0959H48.0538V25.5455H50.6568ZM48.867 24.2386H49.5027V29.576C49.5027 29.8033 49.5417 29.982 49.6199 30.1122C49.698 30.2401 49.7998 30.3312 49.9252 30.3857C50.0507 30.4377 50.1845 30.4638 50.3265 30.4638C50.4094 30.4638 50.4804 30.459 50.5396 30.4496C50.5988 30.4377 50.6509 30.4259 50.6958 30.4141L50.8308 30.9858C50.7692 31.0095 50.6935 31.0308 50.6035 31.0497C50.5136 31.071 50.4023 31.0817 50.2697 31.0817C50.0377 31.0817 49.814 31.0308 49.5985 30.929C49.3855 30.8272 49.2103 30.6757 49.073 30.4744C48.9357 30.2732 48.867 30.0234 48.867 29.7251V24.2386ZM57.0355 31.1136C56.5478 31.1136 56.1229 30.9917 55.7607 30.7479C55.4008 30.504 55.1214 30.1702 54.9226 29.7464C54.7237 29.3227 54.6243 28.8397 54.6243 28.2976C54.6243 27.7507 54.7249 27.2642 54.9261 26.8381C55.1297 26.4119 55.4115 26.0781 55.7713 25.8366C56.1312 25.5928 56.549 25.4709 57.0249 25.4709C57.3894 25.4709 57.7197 25.5419 58.0156 25.6839C58.3116 25.8236 58.5554 26.0213 58.7472 26.277C58.9413 26.5303 59.0632 26.8262 59.1129 27.1648H58.4737C58.4074 26.857 58.2476 26.5942 57.9943 26.3764C57.7434 26.1562 57.4238 26.0462 57.0355 26.0462C56.6875 26.0462 56.3797 26.1409 56.1122 26.3303C55.8447 26.5173 55.6352 26.7789 55.4837 27.1151C55.3345 27.4489 55.2599 27.8359 55.2599 28.2763C55.2599 28.719 55.3333 29.1108 55.4801 29.4517C55.6269 29.7902 55.8329 30.0554 56.098 30.2472C56.3655 30.4389 56.678 30.5348 57.0355 30.5348C57.277 30.5348 57.4972 30.4898 57.696 30.3999C57.8973 30.3075 58.0653 30.1773 58.2003 30.0092C58.3376 29.8411 58.4299 29.6411 58.4773 29.4091H59.1165C59.0691 29.7382 58.9519 30.0317 58.7649 30.2898C58.5803 30.5455 58.34 30.7467 58.044 30.8935C57.7505 31.0402 57.4143 31.1136 57.0355 31.1136ZM62.5913 31.1136C62.1201 31.1136 61.7035 30.9941 61.3413 30.755C60.9814 30.5159 60.6997 30.1856 60.4961 29.7642C60.2925 29.3404 60.1907 28.8516 60.1907 28.2976C60.1907 27.7389 60.2925 27.2476 60.4961 26.8239C60.6997 26.3977 60.9814 26.0663 61.3413 25.8295C61.7035 25.5904 62.1201 25.4709 62.5913 25.4709C63.0624 25.4709 63.4779 25.5904 63.8377 25.8295C64.1976 26.0687 64.4793 26.4001 64.6829 26.8239C64.8888 27.2476 64.9918 27.7389 64.9918 28.2976C64.9918 28.8516 64.89 29.3404 64.6864 29.7642C64.4828 30.1856 64.1999 30.5159 63.8377 30.755C63.4779 30.9941 63.0624 31.1136 62.5913 31.1136ZM62.5913 30.5348C62.9701 30.5348 63.2908 30.433 63.5536 30.2294C63.8164 30.0258 64.0153 29.7547 64.1502 29.4162C64.2875 29.0777 64.3562 28.7048 64.3562 28.2976C64.3562 27.8904 64.2875 27.5163 64.1502 27.1754C64.0153 26.8345 63.8164 26.5611 63.5536 26.3551C63.2908 26.1491 62.9701 26.0462 62.5913 26.0462C62.2148 26.0462 61.8941 26.1491 61.6289 26.3551C61.3661 26.5611 61.1661 26.8345 61.0288 27.1754C60.8938 27.5163 60.8263 27.8904 60.8263 28.2976C60.8263 28.7048 60.8938 29.0777 61.0288 29.4162C61.1661 29.7547 61.3661 30.0258 61.6289 30.2294C61.8917 30.433 62.2125 30.5348 62.5913 30.5348ZM69.8453 28.9155V25.5455H70.4775V31H69.8453V30.0945H69.7956C69.6678 30.3738 69.4654 30.607 69.1884 30.794C68.9114 30.9787 68.5729 31.071 68.1728 31.071C67.8248 31.071 67.5158 30.9953 67.2459 30.8438C66.976 30.6899 66.7641 30.465 66.6103 30.169C66.4564 29.8731 66.3794 29.5097 66.3794 29.0788V25.5455H67.0115V29.0398C67.0115 29.4659 67.137 29.8092 67.388 30.0696C67.6389 30.3277 67.9609 30.4567 68.3539 30.4567C68.6001 30.4567 68.8368 30.3975 69.0641 30.2791C69.2914 30.1607 69.4784 29.9879 69.6252 29.7607C69.772 29.531 69.8453 29.2493 69.8453 28.9155ZM72.1509 31V25.5455H72.7653V26.3835H72.8114C72.9203 26.1089 73.1097 25.8875 73.3796 25.7195C73.6519 25.549 73.9596 25.4638 74.3029 25.4638C74.355 25.4638 74.413 25.465 74.4769 25.4673C74.5408 25.4697 74.5941 25.4721 74.6367 25.4744V26.1172C74.6083 26.1125 74.5586 26.1054 74.4876 26.0959C74.4165 26.0864 74.3396 26.0817 74.2567 26.0817C73.9727 26.0817 73.7193 26.142 73.4968 26.2628C73.2766 26.3812 73.1026 26.5457 72.9748 26.7564C72.8469 26.9671 72.783 27.2074 72.783 27.4773V31H72.1509ZM79.3801 26.7422L78.8013 26.9055C78.7445 26.7422 78.664 26.5942 78.5598 26.4616C78.4557 26.3291 78.3195 26.2237 78.1515 26.1456C77.9857 26.0675 77.7798 26.0284 77.5336 26.0284C77.1642 26.0284 76.8612 26.116 76.6245 26.2912C76.3877 26.4664 76.2694 26.6925 76.2694 26.9695C76.2694 27.2038 76.3498 27.3944 76.5108 27.5412C76.6742 27.6856 76.9251 27.8004 77.2637 27.8857L78.0875 28.0881C78.5444 28.1993 78.8865 28.3757 79.1138 28.6172C79.3435 28.8587 79.4583 29.1617 79.4583 29.5263C79.4583 29.834 79.373 30.1075 79.2026 30.3466C79.0321 30.5857 78.7942 30.7739 78.4888 30.9112C78.1858 31.0462 77.8342 31.1136 77.4341 31.1136C76.9015 31.1136 76.4623 30.9941 76.1167 30.755C75.771 30.5135 75.5497 30.1655 75.4526 29.7109L76.0598 29.5618C76.138 29.8861 76.2907 30.1312 76.5179 30.2969C76.7476 30.4626 77.0494 30.5455 77.4235 30.5455C77.8425 30.5455 78.1775 30.4519 78.4284 30.2649C78.6794 30.0755 78.8049 29.8388 78.8049 29.5547C78.8049 29.3345 78.7315 29.1499 78.5847 29.0007C78.4379 28.8492 78.2154 28.7379 77.9171 28.6669L77.0257 28.4538C76.5523 28.3402 76.2019 28.1603 75.9746 27.9141C75.7473 27.6679 75.6337 27.3625 75.6337 26.9979C75.6337 26.6972 75.7154 26.4332 75.8787 26.206C76.0421 25.9763 76.267 25.7964 76.5534 25.6662C76.8399 25.536 77.1666 25.4709 77.5336 25.4709C78.0331 25.4709 78.432 25.5845 78.7303 25.8118C79.031 26.0367 79.2476 26.3468 79.3801 26.7422ZM83.0476 31.1136C82.5386 31.1136 82.0982 30.9953 81.7266 30.7585C81.3549 30.5194 81.0672 30.1892 80.8636 29.7678C80.6624 29.344 80.5618 28.8563 80.5618 28.3047C80.5618 27.7554 80.6624 27.2678 80.8636 26.8416C81.0672 26.4131 81.3478 26.0781 81.7053 25.8366C82.0651 25.5928 82.4806 25.4709 82.9517 25.4709C83.2476 25.4709 83.5329 25.5253 83.8075 25.6342C84.0821 25.7408 84.3284 25.9053 84.5462 26.1278C84.7663 26.348 84.9403 26.6262 85.0682 26.9624C85.196 27.2962 85.2599 27.6915 85.2599 28.1484V28.4609H80.9986V27.9034H84.6136C84.6136 27.553 84.5426 27.2382 84.4006 26.9588C84.2609 26.6771 84.0656 26.4545 83.8146 26.2912C83.5661 26.1278 83.2784 26.0462 82.9517 26.0462C82.6061 26.0462 82.3018 26.1385 82.0391 26.3232C81.7763 26.5078 81.5703 26.7517 81.4212 27.0547C81.2744 27.3577 81.1998 27.6892 81.1974 28.049V28.3828C81.1974 28.8161 81.272 29.1948 81.4212 29.5192C81.5727 29.8411 81.7869 30.0909 82.0639 30.2685C82.3409 30.446 82.6688 30.5348 83.0476 30.5348C83.3056 30.5348 83.5317 30.4946 83.7259 30.4141C83.9223 30.3336 84.0869 30.2259 84.2195 30.0909C84.3544 29.9536 84.4562 29.8033 84.5249 29.6399L85.125 29.8352C85.0421 30.0649 84.906 30.2768 84.7166 30.4709C84.5296 30.665 84.2952 30.8213 84.0135 30.9396C83.7341 31.0556 83.4122 31.1136 83.0476 31.1136ZM90.3176 26.7422L89.7388 26.9055C89.682 26.7422 89.6015 26.5942 89.4973 26.4616C89.3932 26.3291 89.257 26.2237 89.089 26.1456C88.9232 26.0675 88.7173 26.0284 88.4711 26.0284C88.1017 26.0284 87.7987 26.116 87.562 26.2912C87.3252 26.4664 87.2069 26.6925 87.2069 26.9695C87.2069 27.2038 87.2873 27.3944 87.4483 27.5412C87.6117 27.6856 87.8626 27.8004 88.2012 27.8857L89.025 28.0881C89.4819 28.1993 89.824 28.3757 90.0513 28.6172C90.281 28.8587 90.3958 29.1617 90.3958 29.5263C90.3958 29.834 90.3105 30.1075 90.1401 30.3466C89.9696 30.5857 89.7317 30.7739 89.4263 30.9112C89.1233 31.0462 88.7717 31.1136 88.3716 31.1136C87.839 31.1136 87.3998 30.9941 87.0542 30.755C86.7085 30.5135 86.4872 30.1655 86.3901 29.7109L86.9973 29.5618C87.0755 29.8861 87.2282 30.1312 87.4554 30.2969C87.6851 30.4626 87.9869 30.5455 88.361 30.5455C88.78 30.5455 89.115 30.4519 89.3659 30.2649C89.6169 30.0755 89.7424 29.8388 89.7424 29.5547C89.7424 29.3345 89.669 29.1499 89.5222 29.0007C89.3754 28.8492 89.1529 28.7379 88.8546 28.6669L87.9632 28.4538C87.4898 28.3402 87.1394 28.1603 86.9121 27.9141C86.6848 27.6679 86.5712 27.3625 86.5712 26.9979C86.5712 26.6972 86.6529 26.4332 86.8162 26.206C86.9796 25.9763 87.2045 25.7964 87.4909 25.6662C87.7774 25.536 88.1041 25.4709 88.4711 25.4709C88.9706 25.4709 89.3695 25.5845 89.6678 25.8118C89.9685 26.0367 90.1851 26.3468 90.3176 26.7422ZM38.0991 43.1136C37.6516 43.1136 37.2598 42.9953 36.9237 42.7585C36.5875 42.5218 36.3247 42.1915 36.1353 41.7678C35.9483 41.344 35.8548 40.8504 35.8548 40.2869C35.8548 39.7259 35.9483 39.2346 36.1353 38.8132C36.3247 38.3894 36.5887 38.0604 36.9272 37.826C37.2657 37.5893 37.6599 37.4709 38.1097 37.4709C38.4412 37.4709 38.717 37.5301 38.9371 37.6484C39.1573 37.7644 39.3337 37.9089 39.4663 38.0817C39.5988 38.2545 39.7018 38.4226 39.7752 38.5859H39.832V35.7273H40.4677V43H39.8498V41.9879H39.7752C39.7018 42.1536 39.5977 42.3241 39.4627 42.4993C39.3278 42.6721 39.149 42.8177 38.9265 42.9361C38.7063 43.0545 38.4305 43.1136 38.0991 43.1136ZM38.1737 42.5348C38.5264 42.5348 38.8271 42.4389 39.0756 42.2472C39.3242 42.053 39.5136 41.7867 39.6438 41.4482C39.7764 41.1072 39.8427 40.7166 39.8427 40.2763C39.8427 39.8407 39.7776 39.456 39.6474 39.1222C39.5172 38.786 39.3278 38.5232 39.0792 38.3338C38.8306 38.142 38.5288 38.0462 38.1737 38.0462C37.8091 38.0462 37.5013 38.1456 37.2504 38.3445C37.0018 38.541 36.8124 38.8073 36.6822 39.1435C36.5543 39.4796 36.4904 39.8572 36.4904 40.2763C36.4904 40.7 36.5555 41.0824 36.6857 41.4233C36.8159 41.7642 37.0053 42.0353 37.2539 42.2365C37.5049 42.4354 37.8114 42.5348 38.1737 42.5348ZM44.3881 43.1136C43.917 43.1136 43.5004 42.9941 43.1381 42.755C42.7783 42.5159 42.4966 42.1856 42.293 41.7642C42.0894 41.3404 41.9876 40.8516 41.9876 40.2976C41.9876 39.7389 42.0894 39.2476 42.293 38.8239C42.4966 38.3977 42.7783 38.0663 43.1381 37.8295C43.5004 37.5904 43.917 37.4709 44.3881 37.4709C44.8593 37.4709 45.2747 37.5904 45.6346 37.8295C45.9944 38.0687 46.2762 38.4001 46.4798 38.8239C46.6857 39.2476 46.7887 39.7389 46.7887 40.2976C46.7887 40.8516 46.6869 41.3404 46.4833 41.7642C46.2797 42.1856 45.9968 42.5159 45.6346 42.755C45.2747 42.9941 44.8593 43.1136 44.3881 43.1136ZM44.3881 42.5348C44.7669 42.5348 45.0877 42.433 45.3505 42.2294C45.6133 42.0258 45.8121 41.7547 45.9471 41.4162C46.0844 41.0777 46.1531 40.7048 46.1531 40.2976C46.1531 39.8904 46.0844 39.5163 45.9471 39.1754C45.8121 38.8345 45.6133 38.5611 45.3505 38.3551C45.0877 38.1491 44.7669 38.0462 44.3881 38.0462C44.0117 38.0462 43.6909 38.1491 43.4258 38.3551C43.163 38.5611 42.9629 38.8345 42.8256 39.1754C42.6907 39.5163 42.6232 39.8904 42.6232 40.2976C42.6232 40.7048 42.6907 41.0777 42.8256 41.4162C42.9629 41.7547 43.163 42.0258 43.4258 42.2294C43.6886 42.433 44.0094 42.5348 44.3881 42.5348ZM48.8084 39.5909V43H48.1763V37.5455H48.7907V38.4013H48.8475C48.9753 38.1219 49.1742 37.8982 49.4441 37.7301C49.7163 37.5597 50.0525 37.4744 50.4526 37.4744C50.8195 37.4744 51.1415 37.5514 51.4185 37.7053C51.6979 37.8568 51.9145 38.0805 52.0684 38.3764C52.2246 38.6723 52.3027 39.0357 52.3027 39.4666V43H51.6706V39.5057C51.6706 39.0582 51.5452 38.7043 51.2942 38.4439C51.0456 38.1835 50.7118 38.0533 50.2928 38.0533C50.0063 38.0533 49.7518 38.1148 49.5293 38.2379C49.3068 38.361 49.1304 38.5386 49.0002 38.7706C48.8723 39.0002 48.8084 39.2737 48.8084 39.5909ZM54.5426 35.7273V36.3665C54.5426 36.5606 54.5071 36.7678 54.4361 36.9879C54.3674 37.2057 54.2656 37.4176 54.1307 37.6236C53.9981 37.8272 53.8371 38.0047 53.6477 38.1562L53.3033 37.8544C53.4808 37.6461 53.6312 37.4152 53.7543 37.1619C53.8774 36.9062 53.9389 36.6446 53.9389 36.3771V35.7273H54.5426ZM58.0103 37.5455V38.0959H55.4073V37.5455H58.0103ZM56.2205 36.2386H56.8562V41.576C56.8562 41.8033 56.8952 41.982 56.9734 42.1122C57.0515 42.2401 57.1533 42.3312 57.2788 42.3857C57.4042 42.4377 57.538 42.4638 57.68 42.4638C57.7629 42.4638 57.8339 42.459 57.8931 42.4496C57.9523 42.4377 58.0044 42.4259 58.0494 42.4141L58.1843 42.9858C58.1228 43.0095 58.047 43.0308 57.957 43.0497C57.8671 43.071 57.7558 43.0817 57.6232 43.0817C57.3912 43.0817 57.1675 43.0308 56.9521 42.929C56.739 42.8272 56.5638 42.6757 56.4265 42.4744C56.2892 42.2732 56.2205 42.0234 56.2205 41.7251V36.2386ZM62.8904 39.5909V43H62.2583V35.7273H62.8904V38.4013H62.9473C63.0751 38.1196 63.2728 37.8946 63.5403 37.7266C63.8102 37.5585 64.1511 37.4744 64.563 37.4744C64.9324 37.4744 65.2567 37.5502 65.536 37.7017C65.8154 37.8532 66.0332 38.0769 66.1895 38.3729C66.3457 38.6688 66.4238 39.0334 66.4238 39.4666V43H65.7882V39.5057C65.7882 39.0559 65.6627 38.7019 65.4118 38.4439C65.1632 38.1835 64.827 38.0533 64.4032 38.0533C64.112 38.0533 63.8528 38.1148 63.6255 38.2379C63.3983 38.361 63.2183 38.5386 63.0858 38.7706C62.9556 39.0002 62.8904 39.2737 62.8904 39.5909ZM69.6119 43.1243C69.2828 43.1243 68.9821 43.0604 68.7099 42.9325C68.4376 42.8023 68.221 42.6153 68.06 42.3714C67.899 42.1252 67.8185 41.8269 67.8185 41.4766C67.8185 41.2067 67.8694 40.9794 67.9712 40.7947C68.073 40.6101 68.2174 40.4586 68.4045 40.3402C68.5915 40.2218 68.8129 40.1283 69.0685 40.0597C69.3242 39.991 69.6059 39.9377 69.9137 39.8999C70.2191 39.862 70.4772 39.8288 70.6879 39.8004C70.9009 39.772 71.0631 39.727 71.1744 39.6655C71.2856 39.6039 71.3413 39.5045 71.3413 39.3672V39.2393C71.3413 38.8677 71.23 38.5753 71.0075 38.3622C70.7873 38.1468 70.4701 38.0391 70.0558 38.0391C69.6628 38.0391 69.342 38.1255 69.0934 38.2983C68.8472 38.4711 68.6744 38.6747 68.5749 38.9091L67.9748 38.6925C68.0979 38.3942 68.2683 38.1562 68.4862 37.9787C68.704 37.7988 68.9478 37.6697 69.2177 37.5916C69.4876 37.5111 69.761 37.4709 70.038 37.4709C70.2463 37.4709 70.4629 37.4981 70.6879 37.5526C70.9151 37.607 71.1258 37.7017 71.32 37.8366C71.5141 37.9692 71.6715 38.1551 71.7923 38.3942C71.913 38.6309 71.9734 38.9316 71.9734 39.2962V43H71.3413V42.1371H71.3022C71.2264 42.2981 71.114 42.4543 70.9648 42.6058C70.8157 42.7573 70.6287 42.8816 70.4038 42.9787C70.1789 43.0758 69.9149 43.1243 69.6119 43.1243ZM69.6971 42.5455C70.0333 42.5455 70.3245 42.4709 70.5707 42.3217C70.8169 42.1726 71.0063 41.9749 71.1388 41.7287C71.2738 41.4801 71.3413 41.2067 71.3413 40.9084V40.12C71.2939 40.165 71.2146 40.2053 71.1033 40.2408C70.9944 40.2763 70.8678 40.3082 70.7234 40.3366C70.5813 40.3627 70.4393 40.3852 70.2972 40.4041C70.1552 40.4231 70.0273 40.4396 69.9137 40.4538C69.6059 40.4917 69.3432 40.5509 69.1254 40.6314C68.9076 40.7119 68.7406 40.8232 68.6246 40.9652C68.5086 41.1049 68.4506 41.2848 68.4506 41.505C68.4506 41.8364 68.569 42.0933 68.8058 42.2756C69.0425 42.4555 69.3396 42.5455 69.6971 42.5455ZM77.6818 37.5455L75.6896 43H75.0149L73.0227 37.5455H73.7081L75.3274 42.1655H75.3771L76.9964 37.5455H77.6818ZM80.9284 43.1136C80.4194 43.1136 79.9791 42.9953 79.6074 42.7585C79.2357 42.5194 78.9481 42.1892 78.7445 41.7678C78.5433 41.344 78.4426 40.8563 78.4426 40.3047C78.4426 39.7554 78.5433 39.2678 78.7445 38.8416C78.9481 38.4131 79.2286 38.0781 79.5861 37.8366C79.946 37.5928 80.3614 37.4709 80.8326 37.4709C81.1285 37.4709 81.4138 37.5253 81.6884 37.6342C81.963 37.7408 82.2092 37.9053 82.427 38.1278C82.6472 38.348 82.8212 38.6262 82.949 38.9624C83.0769 39.2962 83.1408 39.6915 83.1408 40.1484V40.4609H78.8794V39.9034H82.4945C82.4945 39.553 82.4235 39.2382 82.2814 38.9588C82.1417 38.6771 81.9464 38.4545 81.6955 38.2912C81.4469 38.1278 81.1593 38.0462 80.8326 38.0462C80.4869 38.0462 80.1827 38.1385 79.9199 38.3232C79.6571 38.5078 79.4512 38.7517 79.302 39.0547C79.1552 39.3577 79.0807 39.6892 79.0783 40.049V40.3828C79.0783 40.8161 79.1529 41.1948 79.302 41.5192C79.4535 41.8411 79.6678 42.0909 79.9448 42.2685C80.2218 42.446 80.5497 42.5348 80.9284 42.5348C81.1865 42.5348 81.4126 42.4946 81.6067 42.4141C81.8032 42.3336 81.9677 42.2259 82.1003 42.0909C82.2353 41.9536 82.3371 41.8033 82.4057 41.6399L83.0059 41.8352C82.923 42.0649 82.7869 42.2768 82.5975 42.4709C82.4105 42.665 82.1761 42.8213 81.8944 42.9396C81.615 43.0556 81.293 43.1136 80.9284 43.1136ZM19.1871 55V49.5455H19.8014V50.3835H19.8582C19.9671 50.1018 20.1482 49.8804 20.4015 49.7195C20.6572 49.5561 20.9638 49.4744 21.3213 49.4744C21.6977 49.4744 22.0067 49.5632 22.2481 49.7408C22.492 49.916 22.6743 50.1574 22.795 50.4652H22.8412C22.9643 50.1622 23.1643 49.9219 23.4413 49.7443C23.7207 49.5644 24.0592 49.4744 24.4569 49.4744C24.9636 49.4744 25.3637 49.6342 25.6572 49.9538C25.9508 50.2711 26.0976 50.7351 26.0976 51.3459V55H25.4655V51.3459C25.4655 50.915 25.3554 50.5919 25.1352 50.3764C24.915 50.161 24.625 50.0533 24.2652 50.0533C23.8485 50.0533 23.5277 50.1811 23.3028 50.4368C23.0779 50.6925 22.9655 51.0168 22.9655 51.4098V55H22.3192V51.2891C22.3192 50.9197 22.2162 50.6214 22.0102 50.3942C21.8042 50.1669 21.5142 50.0533 21.1402 50.0533C20.8892 50.0533 20.6631 50.1148 20.4619 50.2379C20.2631 50.361 20.1056 50.5327 19.9896 50.7528C19.876 50.9706 19.8192 51.2216 19.8192 51.5057V55H19.1871ZM29.9763 55.1136C29.4673 55.1136 29.027 54.9953 28.6553 54.7585C28.2836 54.5194 27.9959 54.1892 27.7923 53.7678C27.5911 53.344 27.4905 52.8563 27.4905 52.3047C27.4905 51.7554 27.5911 51.2678 27.7923 50.8416C27.9959 50.4131 28.2765 50.0781 28.634 49.8366C28.9938 49.5928 29.4093 49.4709 29.8804 49.4709C30.1763 49.4709 30.4616 49.5253 30.7362 49.6342C31.0109 49.7408 31.2571 49.9053 31.4749 50.1278C31.695 50.348 31.8691 50.6262 31.9969 50.9624C32.1247 51.2962 32.1887 51.6915 32.1887 52.1484V52.4609H27.9273V51.9034H31.5423C31.5423 51.553 31.4713 51.2382 31.3293 50.9588C31.1896 50.6771 30.9943 50.4545 30.7433 50.2912C30.4948 50.1278 30.2071 50.0462 29.8804 50.0462C29.5348 50.0462 29.2306 50.1385 28.9678 50.3232C28.705 50.5078 28.499 50.7517 28.3499 51.0547C28.2031 51.3577 28.1285 51.6892 28.1262 52.049V52.3828C28.1262 52.8161 28.2007 53.1948 28.3499 53.5192C28.5014 53.8411 28.7156 54.0909 28.9926 54.2685C29.2696 54.446 29.5975 54.5348 29.9763 54.5348C30.2343 54.5348 30.4604 54.4946 30.6546 54.4141C30.8511 54.3336 31.0156 54.2259 31.1482 54.0909C31.2831 53.9536 31.3849 53.8033 31.4536 53.6399L32.0537 53.8352C31.9709 54.0649 31.8347 54.2768 31.6453 54.4709C31.4583 54.665 31.2239 54.8213 30.9422 54.9396C30.6628 55.0556 30.3409 55.1136 29.9763 55.1136ZM34.2137 51.5909V55H33.5816V49.5455H34.1959V50.4013H34.2528C34.3806 50.1219 34.5795 49.8982 34.8493 49.7301C35.1216 49.5597 35.4578 49.4744 35.8579 49.4744C36.2248 49.4744 36.5468 49.5514 36.8238 49.7053C37.1031 49.8568 37.3198 50.0805 37.4736 50.3764C37.6299 50.6723 37.708 51.0357 37.708 51.4666V55H37.0759V51.5057C37.0759 51.0582 36.9504 50.7043 36.6995 50.4439C36.4509 50.1835 36.1171 50.0533 35.6981 50.0533C35.4116 50.0533 35.1571 50.1148 34.9346 50.2379C34.712 50.361 34.5357 50.5386 34.4055 50.7706C34.2776 51.0002 34.2137 51.2737 34.2137 51.5909ZM41.521 49.5455V50.0959H38.9181V49.5455H41.521ZM39.7313 48.2386H40.3669V53.576C40.3669 53.8033 40.406 53.982 40.4841 54.1122C40.5622 54.2401 40.664 54.3312 40.7895 54.3857C40.915 54.4377 41.0487 54.4638 41.1908 54.4638C41.2736 54.4638 41.3447 54.459 41.4039 54.4496C41.463 54.4377 41.5151 54.4259 41.5601 54.4141L41.695 54.9858C41.6335 55.0095 41.5577 55.0308 41.4678 55.0497C41.3778 55.071 41.2665 55.0817 41.134 55.0817C40.902 55.0817 40.6782 55.0308 40.4628 54.929C40.2497 54.8272 40.0745 54.6757 39.9372 54.4744C39.7999 54.2732 39.7313 54.0234 39.7313 53.7251V48.2386ZM45.018 55.1136C44.5469 55.1136 44.1302 54.9941 43.768 54.755C43.4082 54.5159 43.1265 54.1856 42.9229 53.7642C42.7193 53.3404 42.6175 52.8516 42.6175 52.2976C42.6175 51.7389 42.7193 51.2476 42.9229 50.8239C43.1265 50.3977 43.4082 50.0663 43.768 49.8295C44.1302 49.5904 44.5469 49.4709 45.018 49.4709C45.4891 49.4709 45.9046 49.5904 46.2645 49.8295C46.6243 50.0687 46.906 50.4001 47.1096 50.8239C47.3156 51.2476 47.4186 51.7389 47.4186 52.2976C47.4186 52.8516 47.3168 53.3404 47.1132 53.7642C46.9096 54.1856 46.6267 54.5159 46.2645 54.755C45.9046 54.9941 45.4891 55.1136 45.018 55.1136ZM45.018 54.5348C45.3968 54.5348 45.7176 54.433 45.9804 54.2294C46.2432 54.0258 46.442 53.7547 46.577 53.4162C46.7143 53.0777 46.7829 52.7048 46.7829 52.2976C46.7829 51.8904 46.7143 51.5163 46.577 51.1754C46.442 50.8345 46.2432 50.5611 45.9804 50.3551C45.7176 50.1491 45.3968 50.0462 45.018 50.0462C44.6416 50.0462 44.3208 50.1491 44.0557 50.3551C43.7929 50.5611 43.5928 50.8345 43.4555 51.1754C43.3206 51.5163 43.2531 51.8904 43.2531 52.2976C43.2531 52.7048 43.3206 53.0777 43.4555 53.4162C43.5928 53.7547 43.7929 54.0258 44.0557 54.2294C44.3184 54.433 44.6392 54.5348 45.018 54.5348ZM48.8062 55V49.5455H49.4205V50.3835H49.4667C49.5756 50.1089 49.765 49.8875 50.0349 49.7195C50.3071 49.549 50.6149 49.4638 50.9582 49.4638C51.0103 49.4638 51.0683 49.465 51.1322 49.4673C51.1961 49.4697 51.2494 49.4721 51.292 49.4744V50.1172C51.2636 50.1125 51.2139 50.1054 51.1428 50.0959C51.0718 50.0864 50.9949 50.0817 50.912 50.0817C50.6279 50.0817 50.3746 50.142 50.1521 50.2628C49.9319 50.3812 49.7579 50.5457 49.6301 50.7564C49.5022 50.9671 49.4383 51.2074 49.4383 51.4773V55H48.8062ZM52.3778 55V49.5455H53.0134V55H52.3778ZM52.7009 48.608C52.5707 48.608 52.4594 48.5642 52.3671 48.4766C52.2748 48.3866 52.2286 48.2789 52.2286 48.1534C52.2286 48.0279 52.2748 47.9214 52.3671 47.8338C52.4594 47.7438 52.5707 47.6989 52.7009 47.6989C52.8311 47.6989 52.9424 47.7438 53.0347 47.8338C53.127 47.9214 53.1732 48.0279 53.1732 48.1534C53.1732 48.2789 53.127 48.3866 53.0347 48.4766C52.9424 48.5642 52.8311 48.608 52.7009 48.608ZM55.3172 51.5909V55H54.6851V49.5455H55.2994V50.4013H55.3563C55.4841 50.1219 55.683 49.8982 55.9529 49.7301C56.2251 49.5597 56.5613 49.4744 56.9614 49.4744C57.3283 49.4744 57.6503 49.5514 57.9273 49.7053C58.2066 49.8568 58.4233 50.0805 58.5771 50.3764C58.7334 50.6723 58.8115 51.0357 58.8115 51.4666V55H58.1794V51.5057C58.1794 51.0582 58.0539 50.7043 57.803 50.4439C57.5544 50.1835 57.2206 50.0533 56.8016 50.0533C56.5151 50.0533 56.2606 50.1148 56.0381 50.2379C55.8155 50.361 55.6392 50.5386 55.509 50.7706C55.3811 51.0002 55.3172 51.2737 55.3172 51.5909ZM62.5571 57.1591C62.1854 57.1591 61.8599 57.1106 61.5805 57.0135C61.3012 56.9188 61.0656 56.7886 60.8738 56.6229C60.6821 56.4571 60.5329 56.2713 60.4264 56.0653L60.9449 55.7244C61.023 55.8617 61.1272 55.9967 61.2574 56.1293C61.3899 56.2618 61.5616 56.3719 61.7723 56.4595C61.9854 56.5471 62.247 56.5909 62.5571 56.5909C63.04 56.5909 63.4295 56.4702 63.7254 56.2287C64.0237 55.9872 64.1729 55.612 64.1729 55.103V53.8743H64.116C64.0426 54.04 63.9373 54.2057 63.8 54.3714C63.6627 54.5348 63.4827 54.6709 63.2602 54.7798C63.04 54.8887 62.7666 54.9432 62.4399 54.9432C62.0043 54.9432 61.6172 54.8355 61.2787 54.62C60.9425 54.4046 60.6773 54.0968 60.4832 53.6967C60.2915 53.2943 60.1956 52.8149 60.1956 52.2585C60.1956 51.7069 60.2891 51.2216 60.4761 50.8026C60.6655 50.3835 60.9295 50.0568 61.268 49.8224C61.6066 49.5881 62.0007 49.4709 62.4506 49.4709C62.7844 49.4709 63.0613 49.5301 63.2815 49.6484C63.5017 49.7644 63.6781 49.9089 63.8106 50.0817C63.9456 50.2545 64.0509 50.4226 64.1267 50.5859H64.1906V49.5455H64.8085V55.142C64.8085 55.6037 64.7103 55.9837 64.5138 56.282C64.3173 56.5803 64.0497 56.8004 63.7112 56.9425C63.3727 57.0869 62.988 57.1591 62.5571 57.1591ZM62.5145 54.3643C62.8648 54.3643 63.1643 54.2803 63.4129 54.1122C63.6615 53.9418 63.8521 53.6979 63.9846 53.3807C64.1172 53.0634 64.1835 52.6858 64.1835 52.2479C64.1835 51.8217 64.1184 51.4441 63.9882 51.1151C63.858 50.7836 63.6686 50.5232 63.42 50.3338C63.1738 50.142 62.872 50.0462 62.5145 50.0462C62.1499 50.0462 61.8421 50.1444 61.5912 50.3409C61.3402 50.5374 61.1508 50.8026 61.023 51.1364C60.8952 51.4678 60.8312 51.8383 60.8312 52.2479C60.8312 52.6645 60.8963 53.0327 61.0265 53.3523C61.1568 53.6695 61.3473 53.9181 61.5983 54.098C61.8492 54.2756 62.1546 54.3643 62.5145 54.3643ZM71.4429 49.5455V50.0959H68.8399V49.5455H71.4429ZM69.6531 48.2386H70.2888V53.576C70.2888 53.8033 70.3279 53.982 70.406 54.1122C70.4841 54.2401 70.5859 54.3312 70.7114 54.3857C70.8369 54.4377 70.9706 54.4638 71.1127 54.4638C71.1955 54.4638 71.2665 54.459 71.3257 54.4496C71.3849 54.4377 71.437 54.4259 71.482 54.4141L71.6169 54.9858C71.5554 55.0095 71.4796 55.0308 71.3896 55.0497C71.2997 55.071 71.1884 55.0817 71.0558 55.0817C70.8238 55.0817 70.6001 55.0308 70.3847 54.929C70.1716 54.8272 69.9964 54.6757 69.8591 54.4744C69.7218 54.2732 69.6531 54.0234 69.6531 53.7251V48.2386ZM74.9399 55.1136C74.4688 55.1136 74.0521 54.9941 73.6899 54.755C73.33 54.5159 73.0483 54.1856 72.8447 53.7642C72.6411 53.3404 72.5393 52.8516 72.5393 52.2976C72.5393 51.7389 72.6411 51.2476 72.8447 50.8239C73.0483 50.3977 73.33 50.0663 73.6899 49.8295C74.0521 49.5904 74.4688 49.4709 74.9399 49.4709C75.411 49.4709 75.8265 49.5904 76.1863 49.8295C76.5462 50.0687 76.8279 50.4001 77.0315 50.8239C77.2375 51.2476 77.3405 51.7389 77.3405 52.2976C77.3405 52.8516 77.2387 53.3404 77.0351 53.7642C76.8315 54.1856 76.5486 54.5159 76.1863 54.755C75.8265 54.9941 75.411 55.1136 74.9399 55.1136ZM74.9399 54.5348C75.3187 54.5348 75.6395 54.433 75.9023 54.2294C76.165 54.0258 76.3639 53.7547 76.4988 53.4162C76.6362 53.0777 76.7048 52.7048 76.7048 52.2976C76.7048 51.8904 76.6362 51.5163 76.4988 51.1754C76.3639 50.8345 76.165 50.5611 75.9023 50.3551C75.6395 50.1491 75.3187 50.0462 74.9399 50.0462C74.5635 50.0462 74.2427 50.1491 73.9775 50.3551C73.7148 50.5611 73.5147 50.8345 73.3774 51.1754C73.2425 51.5163 73.175 51.8904 73.175 52.2976C73.175 52.7048 73.2425 53.0777 73.3774 53.4162C73.5147 53.7547 73.7148 54.0258 73.9775 54.2294C74.2403 54.433 74.5611 54.5348 74.9399 54.5348ZM82.1727 51.5909V55H81.5406V47.7273H82.1727V50.4013H82.2295C82.3573 50.1196 82.555 49.8946 82.8225 49.7266C83.0924 49.5585 83.4333 49.4744 83.8453 49.4744C84.2146 49.4744 84.5389 49.5502 84.8183 49.7017C85.0976 49.8532 85.3154 50.0769 85.4717 50.3729C85.6279 50.6688 85.7061 51.0334 85.7061 51.4666V55H85.0704V51.5057C85.0704 51.0559 84.9449 50.7019 84.694 50.4439C84.4454 50.1835 84.1092 50.0533 83.6855 50.0533C83.3943 50.0533 83.135 50.1148 82.9078 50.2379C82.6805 50.361 82.5006 50.5386 82.368 50.7706C82.2378 51.0002 82.1727 51.2737 82.1727 51.5909ZM89.5759 55.1136C89.0669 55.1136 88.6266 54.9953 88.2549 54.7585C87.8832 54.5194 87.5956 54.1892 87.392 53.7678C87.1907 53.344 87.0901 52.8563 87.0901 52.3047C87.0901 51.7554 87.1907 51.2678 87.392 50.8416C87.5956 50.4131 87.8761 50.0781 88.2336 49.8366C88.5934 49.5928 89.0089 49.4709 89.48 49.4709C89.776 49.4709 90.0612 49.5253 90.3358 49.6342C90.6105 49.7408 90.8567 49.9053 91.0745 50.1278C91.2947 50.348 91.4687 50.6262 91.5965 50.9624C91.7243 51.2962 91.7883 51.6915 91.7883 52.1484V52.4609H87.5269V51.9034H91.142C91.142 51.553 91.0709 51.2382 90.9289 50.9588C90.7892 50.6771 90.5939 50.4545 90.343 50.2912C90.0944 50.1278 89.8067 50.0462 89.48 50.0462C89.1344 50.0462 88.8302 50.1385 88.5674 50.3232C88.3046 50.5078 88.0986 50.7517 87.9495 51.0547C87.8027 51.3577 87.7281 51.6892 87.7258 52.049V52.3828C87.7258 52.8161 87.8003 53.1948 87.9495 53.5192C88.101 53.8411 88.3153 54.0909 88.5922 54.2685C88.8692 54.446 89.1971 54.5348 89.5759 54.5348C89.834 54.5348 90.06 54.4946 90.2542 54.4141C90.4507 54.3336 90.6152 54.2259 90.7478 54.0909C90.8827 53.9536 90.9845 53.8033 91.0532 53.6399L91.6533 53.8352C91.5705 54.0649 91.4343 54.2768 91.2449 54.4709C91.0579 54.665 90.8235 54.8213 90.5418 54.9396C90.2625 55.0556 89.9405 55.1136 89.5759 55.1136ZM93.8133 47.7273V55H93.1812V47.7273H93.8133ZM95.4859 57.0455V49.5455H96.1002V50.5859H96.1748C96.2506 50.4226 96.3547 50.2557 96.4873 50.0852C96.6199 49.9124 96.7951 49.7668 97.0129 49.6484C97.233 49.5301 97.51 49.4709 97.8438 49.4709C98.2936 49.4709 98.6866 49.5893 99.0228 49.826C99.3614 50.0604 99.6241 50.3894 99.8112 50.8132C100.001 51.2346 100.095 51.7259 100.095 52.2869C100.095 52.8504 100.001 53.344 99.8112 53.7678C99.6241 54.1915 99.3614 54.5218 99.0228 54.7585C98.6866 54.9953 98.296 55.1136 97.8509 55.1136C97.5219 55.1136 97.2461 55.0545 97.0235 54.9361C96.8034 54.8177 96.6246 54.6721 96.4873 54.4993C96.3524 54.3241 96.2482 54.1536 96.1748 53.9879H96.118V57.0455H95.4859ZM96.1109 52.2763C96.1109 52.7166 96.176 53.1072 96.3062 53.4482C96.4388 53.7867 96.6282 54.053 96.8744 54.2472C97.123 54.4389 97.4236 54.5348 97.7764 54.5348C98.1386 54.5348 98.444 54.4354 98.6926 54.2365C98.9435 54.0353 99.1341 53.7642 99.2643 53.4233C99.3969 53.0824 99.4632 52.7 99.4632 52.2763C99.4632 51.8572 99.3981 51.4796 99.2678 51.1435C99.14 50.8073 98.9506 50.541 98.6997 50.3445C98.4487 50.1456 98.141 50.0462 97.7764 50.0462C97.4213 50.0462 97.1194 50.142 96.8708 50.3338C96.6222 50.5232 96.4329 50.786 96.3026 51.1222C96.1748 51.456 96.1109 51.8407 96.1109 52.2763ZM23.1692 62.7422L22.5904 62.9055C22.5336 62.7422 22.4531 62.5942 22.3489 62.4616C22.2447 62.3291 22.1086 62.2237 21.9405 62.1456C21.7748 62.0675 21.5688 62.0284 21.3226 62.0284C20.9533 62.0284 20.6503 62.116 20.4135 62.2912C20.1768 62.4664 20.0584 62.6925 20.0584 62.9695C20.0584 63.2038 20.1389 63.3944 20.2999 63.5412C20.4632 63.6856 20.7142 63.8004 21.0527 63.8857L21.8766 64.0881C22.3335 64.1993 22.6756 64.3757 22.9029 64.6172C23.1325 64.8587 23.2473 65.1617 23.2473 65.5263C23.2473 65.834 23.1621 66.1075 22.9917 66.3466C22.8212 66.5857 22.5833 66.7739 22.2779 66.9112C21.9748 67.0462 21.6233 67.1136 21.2232 67.1136C20.6905 67.1136 20.2514 66.9941 19.9057 66.755C19.5601 66.5135 19.3387 66.1655 19.2417 65.7109L19.8489 65.5618C19.927 65.8861 20.0797 66.1312 20.307 66.2969C20.5366 66.4626 20.8385 66.5455 21.2125 66.5455C21.6316 66.5455 21.9666 66.4519 22.2175 66.2649C22.4685 66.0755 22.5939 65.8388 22.5939 65.5547C22.5939 65.3345 22.5205 65.1499 22.3738 65.0007C22.227 64.8492 22.0044 64.7379 21.7061 64.6669L20.8148 64.4538C20.3413 64.3402 19.9909 64.1603 19.7637 63.9141C19.5364 63.6679 19.4228 63.3625 19.4228 62.9979C19.4228 62.6972 19.5044 62.4332 19.6678 62.206C19.8311 61.9763 20.056 61.7964 20.3425 61.6662C20.629 61.536 20.9557 61.4709 21.3226 61.4709C21.8221 61.4709 22.2211 61.5845 22.5194 61.8118C22.82 62.0367 23.0366 62.3468 23.1692 62.7422ZM26.7798 61.5455V62.0959H24.1768V61.5455H26.7798ZM24.9901 60.2386H25.6257V65.576C25.6257 65.8033 25.6648 65.982 25.7429 66.1122C25.821 66.2401 25.9228 66.3312 26.0483 66.3857C26.1738 66.4377 26.3075 66.4638 26.4496 66.4638C26.5324 66.4638 26.6035 66.459 26.6626 66.4496C26.7218 66.4377 26.7739 66.4259 26.8189 66.4141L26.9538 66.9858C26.8923 67.0095 26.8165 67.0308 26.7266 67.0497C26.6366 67.071 26.5253 67.0817 26.3928 67.0817C26.1607 67.0817 25.937 67.0308 25.7216 66.929C25.5085 66.8272 25.3333 66.6757 25.196 66.4744C25.0587 66.2732 24.9901 66.0234 24.9901 65.7251V60.2386ZM31.6813 64.9155V61.5455H32.3134V67H31.6813V66.0945H31.6316C31.5037 66.3738 31.3013 66.607 31.0243 66.794C30.7473 66.9787 30.4088 67.071 30.0087 67.071C29.6607 67.071 29.3517 66.9953 29.0819 66.8438C28.812 66.6899 28.6001 66.465 28.4462 66.169C28.2923 65.8731 28.2154 65.5097 28.2154 65.0788V61.5455H28.8475V65.0398C28.8475 65.4659 28.973 65.8092 29.2239 66.0696C29.4748 66.3277 29.7968 66.4567 30.1898 66.4567C30.436 66.4567 30.6728 66.3975 30.9 66.2791C31.1273 66.1607 31.3143 65.9879 31.4611 65.7607C31.6079 65.531 31.6813 65.2493 31.6813 64.9155ZM35.9506 67.1136C35.5032 67.1136 35.1114 66.9953 34.7752 66.7585C34.439 66.5218 34.1763 66.1915 33.9869 65.7678C33.7998 65.344 33.7063 64.8504 33.7063 64.2869C33.7063 63.7259 33.7998 63.2346 33.9869 62.8132C34.1763 62.3894 34.4402 62.0604 34.7788 61.826C35.1173 61.5893 35.5115 61.4709 35.9613 61.4709C36.2927 61.4709 36.5685 61.5301 36.7887 61.6484C37.0089 61.7644 37.1853 61.9089 37.3178 62.0817C37.4504 62.2545 37.5534 62.4226 37.6268 62.5859H37.6836V59.7273H38.3192V67H37.7013V65.9879H37.6268C37.5534 66.1536 37.4492 66.3241 37.3143 66.4993C37.1793 66.6721 37.0006 66.8177 36.7781 66.9361C36.5579 67.0545 36.2821 67.1136 35.9506 67.1136ZM36.0252 66.5348C36.378 66.5348 36.6786 66.4389 36.9272 66.2472C37.1758 66.053 37.3652 65.7867 37.4954 65.4482C37.628 65.1072 37.6942 64.7166 37.6942 64.2763C37.6942 63.8407 37.6291 63.456 37.4989 63.1222C37.3687 62.786 37.1793 62.5232 36.9308 62.3338C36.6822 62.142 36.3803 62.0462 36.0252 62.0462C35.6606 62.0462 35.3529 62.1456 35.1019 62.3445C34.8533 62.541 34.6639 62.8073 34.5337 63.1435C34.4059 63.4796 34.342 63.8572 34.342 64.2763C34.342 64.7 34.4071 65.0824 34.5373 65.4233C34.6675 65.7642 34.8569 66.0353 35.1055 66.2365C35.3564 66.4354 35.663 66.5348 36.0252 66.5348ZM42.3249 67.1136C41.8159 67.1136 41.3756 66.9953 41.0039 66.7585C40.6322 66.5194 40.3446 66.1892 40.141 65.7678C39.9397 65.344 39.8391 64.8563 39.8391 64.3047C39.8391 63.7554 39.9397 63.2678 40.141 62.8416C40.3446 62.4131 40.6251 62.0781 40.9826 61.8366C41.3424 61.5928 41.7579 61.4709 42.229 61.4709C42.525 61.4709 42.8103 61.5253 43.0849 61.6342C43.3595 61.7408 43.6057 61.9053 43.8235 62.1278C44.0437 62.348 44.2177 62.6262 44.3455 62.9624C44.4734 63.2962 44.5373 63.6915 44.5373 64.1484V64.4609H40.2759V63.9034H43.891C43.891 63.553 43.82 63.2382 43.6779 62.9588C43.5382 62.6771 43.3429 62.4545 43.092 62.2912C42.8434 62.1278 42.5558 62.0462 42.229 62.0462C41.8834 62.0462 41.5792 62.1385 41.3164 62.3232C41.0536 62.5078 40.8477 62.7517 40.6985 63.0547C40.5517 63.3577 40.4772 63.6892 40.4748 64.049V64.3828C40.4748 64.8161 40.5494 65.1948 40.6985 65.5192C40.85 65.8411 41.0643 66.0909 41.3413 66.2685C41.6183 66.446 41.9461 66.5348 42.3249 66.5348C42.583 66.5348 42.8091 66.4946 43.0032 66.4141C43.1997 66.3336 43.3642 66.2259 43.4968 66.0909C43.6317 65.9536 43.7335 65.8033 43.8022 65.6399L44.4023 65.8352C44.3195 66.0649 44.1834 66.2768 43.994 66.4709C43.8069 66.665 43.5726 66.8213 43.2908 66.9396C43.0115 67.0556 42.6895 67.1136 42.3249 67.1136ZM46.5623 63.5909V67H45.9302V61.5455H46.5446V62.4013H46.6014C46.7292 62.1219 46.9281 61.8982 47.198 61.7301C47.4702 61.5597 47.8064 61.4744 48.2065 61.4744C48.5734 61.4744 48.8954 61.5514 49.1724 61.7053C49.4518 61.8568 49.6684 62.0805 49.8223 62.3764C49.9785 62.6723 50.0566 63.0357 50.0566 63.4666V67H49.4245V63.5057C49.4245 63.0582 49.2991 62.7043 49.0481 62.4439C48.7995 62.1835 48.4657 62.0533 48.0467 62.0533C47.7602 62.0533 47.5057 62.1148 47.2832 62.2379C47.0607 62.361 46.8843 62.5386 46.7541 62.7706C46.6262 63.0002 46.5623 63.2737 46.5623 63.5909ZM53.8697 61.5455V62.0959H51.2667V61.5455H53.8697ZM52.0799 60.2386H52.7156V65.576C52.7156 65.8033 52.7546 65.982 52.8327 66.1122C52.9109 66.2401 53.0127 66.3312 53.1381 66.3857C53.2636 66.4377 53.3974 66.4638 53.5394 66.4638C53.6223 66.4638 53.6933 66.459 53.7525 66.4496C53.8117 66.4377 53.8638 66.4259 53.9087 66.4141L54.0437 66.9858C53.9821 67.0095 53.9064 67.0308 53.8164 67.0497C53.7264 67.071 53.6152 67.0817 53.4826 67.0817C53.2506 67.0817 53.0269 67.0308 52.8114 66.929C52.5984 66.8272 52.4232 66.6757 52.2859 66.4744C52.1486 66.2732 52.0799 66.0234 52.0799 65.7251V60.2386ZM58.8723 62.7422L58.2935 62.9055C58.2367 62.7422 58.1562 62.5942 58.052 62.4616C57.9479 62.3291 57.8117 62.2237 57.6436 62.1456C57.4779 62.0675 57.272 62.0284 57.0257 62.0284C56.6564 62.0284 56.3534 62.116 56.1167 62.2912C55.8799 62.4664 55.7615 62.6925 55.7615 62.9695C55.7615 63.2038 55.842 63.3944 56.003 63.5412C56.1664 63.6856 56.4173 63.8004 56.7559 63.8857L57.5797 64.0881C58.0366 64.1993 58.3787 64.3757 58.606 64.6172C58.8356 64.8587 58.9505 65.1617 58.9505 65.5263C58.9505 65.834 58.8652 66.1075 58.6948 66.3466C58.5243 66.5857 58.2864 66.7739 57.981 66.9112C57.678 67.0462 57.3264 67.1136 56.9263 67.1136C56.3936 67.1136 55.9545 66.9941 55.6088 66.755C55.2632 66.5135 55.0418 66.1655 54.9448 65.7109L55.552 65.5618C55.6301 65.8861 55.7828 66.1312 56.0101 66.2969C56.2398 66.4626 56.5416 66.5455 56.9157 66.5455C57.3347 66.5455 57.6697 66.4519 57.9206 66.2649C58.1716 66.0755 58.2971 65.8388 58.2971 65.5547C58.2971 65.3345 58.2237 65.1499 58.0769 65.0007C57.9301 64.8492 57.7076 64.7379 57.4093 64.6669L56.5179 64.4538C56.0444 64.3402 55.6941 64.1603 55.4668 63.9141C55.2395 63.6679 55.1259 63.3625 55.1259 62.9979C55.1259 62.6972 55.2076 62.4332 55.3709 62.206C55.5343 61.9763 55.7592 61.7964 56.0456 61.6662C56.3321 61.536 56.6588 61.4709 57.0257 61.4709C57.5253 61.4709 57.9242 61.5845 58.2225 61.8118C58.5231 62.0367 58.7398 62.3468 58.8723 62.7422ZM65.2777 67.1136C64.79 67.1136 64.3651 66.9917 64.0028 66.7479C63.643 66.504 63.3636 66.1702 63.1648 65.7464C62.9659 65.3227 62.8665 64.8397 62.8665 64.2976C62.8665 63.7507 62.9671 63.2642 63.1683 62.8381C63.3719 62.4119 63.6536 62.0781 64.0135 61.8366C64.3733 61.5928 64.7912 61.4709 65.267 61.4709C65.6316 61.4709 65.9619 61.5419 66.2578 61.6839C66.5537 61.8236 66.7976 62.0213 66.9893 62.277C67.1835 62.5303 67.3054 62.8262 67.3551 63.1648H66.7159C66.6496 62.857 66.4898 62.5942 66.2365 62.3764C65.9856 62.1562 65.666 62.0462 65.2777 62.0462C64.9297 62.0462 64.6219 62.1409 64.3544 62.3303C64.0869 62.5173 63.8774 62.7789 63.7259 63.1151C63.5767 63.4489 63.5021 63.8359 63.5021 64.2763C63.5021 64.719 63.5755 65.1108 63.7223 65.4517C63.8691 65.7902 64.075 66.0554 64.3402 66.2472C64.6077 66.4389 64.9202 66.5348 65.2777 66.5348C65.5192 66.5348 65.7393 66.4898 65.9382 66.3999C66.1394 66.3075 66.3075 66.1773 66.4425 66.0092C66.5798 65.8411 66.6721 65.6411 66.7195 65.4091H67.3587C67.3113 65.7382 67.1941 66.0317 67.0071 66.2898C66.8224 66.5455 66.5821 66.7467 66.2862 66.8935C65.9927 67.0402 65.6565 67.1136 65.2777 67.1136ZM70.8335 67.1136C70.3623 67.1136 69.9457 66.9941 69.5835 66.755C69.2236 66.5159 68.9419 66.1856 68.7383 65.7642C68.5347 65.3404 68.4329 64.8516 68.4329 64.2976C68.4329 63.7389 68.5347 63.2476 68.7383 62.8239C68.9419 62.3977 69.2236 62.0663 69.5835 61.8295C69.9457 61.5904 70.3623 61.4709 70.8335 61.4709C71.3046 61.4709 71.7201 61.5904 72.0799 61.8295C72.4397 62.0687 72.7215 62.4001 72.9251 62.8239C73.131 63.2476 73.234 63.7389 73.234 64.2976C73.234 64.8516 73.1322 65.3404 72.9286 65.7642C72.725 66.1856 72.4421 66.5159 72.0799 66.755C71.7201 66.9941 71.3046 67.1136 70.8335 67.1136ZM70.8335 66.5348C71.2122 66.5348 71.533 66.433 71.7958 66.2294C72.0586 66.0258 72.2575 65.7547 72.3924 65.4162C72.5297 65.0777 72.5984 64.7048 72.5984 64.2976C72.5984 63.8904 72.5297 63.5163 72.3924 63.1754C72.2575 62.8345 72.0586 62.5611 71.7958 62.3551C71.533 62.1491 71.2122 62.0462 70.8335 62.0462C70.457 62.0462 70.1362 62.1491 69.8711 62.3551C69.6083 62.5611 69.4083 62.8345 69.271 63.1754C69.136 63.5163 69.0685 63.8904 69.0685 64.2976C69.0685 64.7048 69.136 65.0777 69.271 65.4162C69.4083 65.7547 69.6083 66.0258 69.8711 66.2294C70.1339 66.433 70.4547 66.5348 70.8335 66.5348ZM75.2537 63.5909V67H74.6216V61.5455H75.236V62.4013H75.2928C75.4206 62.1219 75.6195 61.8982 75.8894 61.7301C76.1616 61.5597 76.4978 61.4744 76.8979 61.4744C77.2649 61.4744 77.5868 61.5514 77.8638 61.7053C78.1432 61.8568 78.3598 62.0805 78.5137 62.3764C78.6699 62.6723 78.748 63.0357 78.748 63.4666V67H78.1159V63.5057C78.1159 63.0582 77.9905 62.7043 77.7395 62.4439C77.4909 62.1835 77.1571 62.0533 76.7381 62.0533C76.4516 62.0533 76.1971 62.1148 75.9746 62.2379C75.7521 62.361 75.5757 62.5386 75.4455 62.7706C75.3176 63.0002 75.2537 63.2737 75.2537 63.5909ZM81.0447 63.5909V67H80.4126V61.5455H81.027V62.4013H81.0838C81.2116 62.1219 81.4105 61.8982 81.6804 61.7301C81.9527 61.5597 82.2888 61.4744 82.6889 61.4744C83.0559 61.4744 83.3778 61.5514 83.6548 61.7053C83.9342 61.8568 84.1508 62.0805 84.3047 62.3764C84.4609 62.6723 84.5391 63.0357 84.5391 63.4666V67H83.907V63.5057C83.907 63.0582 83.7815 62.7043 83.5305 62.4439C83.282 62.1835 82.9482 62.0533 82.5291 62.0533C82.2427 62.0533 81.9882 62.1148 81.7656 62.2379C81.5431 62.361 81.3667 62.5386 81.2365 62.7706C81.1087 63.0002 81.0447 63.2737 81.0447 63.5909ZM88.4089 67.1136C87.8999 67.1136 87.4596 66.9953 87.0879 66.7585C86.7162 66.5194 86.4286 66.1892 86.225 65.7678C86.0237 65.344 85.9231 64.8563 85.9231 64.3047C85.9231 63.7554 86.0237 63.2678 86.225 62.8416C86.4286 62.4131 86.7091 62.0781 87.0666 61.8366C87.4264 61.5928 87.8419 61.4709 88.313 61.4709C88.609 61.4709 88.8942 61.5253 89.1689 61.6342C89.4435 61.7408 89.6897 61.9053 89.9075 62.1278C90.1277 62.348 90.3017 62.6262 90.4295 62.9624C90.5574 63.2962 90.6213 63.6915 90.6213 64.1484V64.4609H86.3599V63.9034H89.975C89.975 63.553 89.9039 63.2382 89.7619 62.9588C89.6222 62.6771 89.4269 62.4545 89.176 62.2912C88.9274 62.1278 88.6397 62.0462 88.313 62.0462C87.9674 62.0462 87.6632 62.1385 87.4004 62.3232C87.1376 62.5078 86.9316 62.7517 86.7825 63.0547C86.6357 63.3577 86.5611 63.6892 86.5588 64.049V64.3828C86.5588 64.8161 86.6333 65.1948 86.7825 65.5192C86.934 65.8411 87.1483 66.0909 87.4252 66.2685C87.7022 66.446 88.0301 66.5348 88.4089 66.5348C88.667 66.5348 88.8931 66.4946 89.0872 66.4141C89.2837 66.3336 89.4482 66.2259 89.5808 66.0909C89.7157 65.9536 89.8175 65.8033 89.8862 65.6399L90.4863 65.8352C90.4035 66.0649 90.2673 66.2768 90.0779 66.4709C89.8909 66.665 89.6565 66.8213 89.3748 66.9396C89.0955 67.0556 88.7735 67.1136 88.4089 67.1136ZM94.1449 67.1136C93.6572 67.1136 93.2322 66.9917 92.87 66.7479C92.5102 66.504 92.2308 66.1702 92.032 65.7464C91.8331 65.3227 91.7337 64.8397 91.7337 64.2976C91.7337 63.7507 91.8343 63.2642 92.0355 62.8381C92.2391 62.4119 92.5208 62.0781 92.8807 61.8366C93.2405 61.5928 93.6584 61.4709 94.1342 61.4709C94.4988 61.4709 94.8291 61.5419 95.125 61.6839C95.4209 61.8236 95.6648 62.0213 95.8565 62.277C96.0507 62.5303 96.1726 62.8262 96.2223 63.1648H95.5831C95.5168 62.857 95.357 62.5942 95.1037 62.3764C94.8527 62.1562 94.5331 62.0462 94.1449 62.0462C93.7969 62.0462 93.4891 62.1409 93.2216 62.3303C92.9541 62.5173 92.7446 62.7789 92.593 63.1151C92.4439 63.4489 92.3693 63.8359 92.3693 64.2763C92.3693 64.719 92.4427 65.1108 92.5895 65.4517C92.7363 65.7902 92.9422 66.0554 93.2074 66.2472C93.4749 66.4389 93.7874 66.5348 94.1449 66.5348C94.3864 66.5348 94.6065 66.4898 94.8054 66.3999C95.0066 66.3075 95.1747 66.1773 95.3097 66.0092C95.447 65.8411 95.5393 65.6411 95.5866 65.4091H96.2259C96.1785 65.7382 96.0613 66.0317 95.8743 66.2898C95.6896 66.5455 95.4493 66.7467 95.1534 66.8935C94.8598 67.0402 94.5237 67.1136 94.1449 67.1136ZM99.729 61.5455V62.0959H97.1261V61.5455H99.729ZM97.9393 60.2386H98.5749V65.576C98.5749 65.8033 98.614 65.982 98.6921 66.1122C98.7702 66.2401 98.872 66.3312 98.9975 66.3857C99.123 66.4377 99.2567 66.4638 99.3988 66.4638C99.4817 66.4638 99.5527 66.459 99.6119 66.4496C99.671 66.4377 99.7231 66.4259 99.7681 66.4141L99.9031 66.9858C99.8415 67.0095 99.7657 67.0308 99.6758 67.0497C99.5858 67.071 99.4746 67.0817 99.342 67.0817C99.11 67.0817 98.8862 67.0308 98.6708 66.929C98.4577 66.8272 98.2826 66.6757 98.1452 66.4744C98.0079 66.2732 97.9393 66.0234 97.9393 65.7251V60.2386ZM33.938 79L32.2903 73.5455H32.9579L34.2505 78.0447H34.2967L35.5858 73.5455H36.2569L37.5353 78.0341H37.585L38.8777 73.5455H39.5453L37.8975 79H37.2441L35.9515 74.5291H35.8841L34.5914 79H33.938ZM40.7811 79V73.5455H41.4167V79H40.7811ZM41.1042 72.608C40.974 72.608 40.8627 72.5642 40.7704 72.4766C40.6781 72.3866 40.6319 72.2789 40.6319 72.1534C40.6319 72.0279 40.6781 71.9214 40.7704 71.8338C40.8627 71.7438 40.974 71.6989 41.1042 71.6989C41.2344 71.6989 41.3457 71.7438 41.438 71.8338C41.5304 71.9214 41.5765 72.0279 41.5765 72.1534C41.5765 72.2789 41.5304 72.3866 41.438 72.4766C41.3457 72.5642 41.2344 72.608 41.1042 72.608ZM45.2369 73.5455V74.0959H42.6339V73.5455H45.2369ZM43.4471 72.2386H44.0827V77.576C44.0827 77.8033 44.1218 77.982 44.1999 78.1122C44.2781 78.2401 44.3799 78.3312 44.5053 78.3857C44.6308 78.4377 44.7646 78.4638 44.9066 78.4638C44.9895 78.4638 45.0605 78.459 45.1197 78.4496C45.1789 78.4377 45.2309 78.4259 45.2759 78.4141L45.4109 78.9858C45.3493 79.0095 45.2736 79.0308 45.1836 79.0497C45.0936 79.071 44.9824 79.0817 44.8498 79.0817C44.6178 79.0817 44.3941 79.0308 44.1786 78.929C43.9656 78.8272 43.7904 78.6757 43.6531 78.4744C43.5157 78.2732 43.4471 78.0234 43.4471 77.7251V72.2386ZM47.4217 75.5909V79H46.7896V71.7273H47.4217V74.4013H47.4785C47.6064 74.1196 47.804 73.8946 48.0716 73.7266C48.3414 73.5585 48.6824 73.4744 49.0943 73.4744C49.4636 73.4744 49.7879 73.5502 50.0673 73.7017C50.3467 73.8532 50.5645 74.0769 50.7207 74.3729C50.877 74.6688 50.9551 75.0334 50.9551 75.4666V79H50.3194V75.5057C50.3194 75.0559 50.194 74.7019 49.943 74.4439C49.6944 74.1835 49.3583 74.0533 48.9345 74.0533C48.6433 74.0533 48.3841 74.1148 48.1568 74.2379C47.9295 74.361 47.7496 74.5386 47.617 74.7706C47.4868 75.0002 47.4217 75.2737 47.4217 75.5909ZM57.5806 73.5455V74.0959H54.9776V73.5455H57.5806ZM55.7908 72.2386H56.4265V77.576C56.4265 77.8033 56.4656 77.982 56.5437 78.1122C56.6218 78.2401 56.7236 78.3312 56.8491 78.3857C56.9746 78.4377 57.1083 78.4638 57.2504 78.4638C57.3332 78.4638 57.4042 78.459 57.4634 78.4496C57.5226 78.4377 57.5747 78.4259 57.6197 78.4141L57.7546 78.9858C57.6931 79.0095 57.6173 79.0308 57.5273 79.0497C57.4374 79.071 57.3261 79.0817 57.1935 79.0817C56.9615 79.0817 56.7378 79.0308 56.5224 78.929C56.3093 78.8272 56.1341 78.6757 55.9968 78.4744C55.8595 78.2732 55.7908 78.0234 55.7908 77.7251V72.2386ZM59.7654 75.5909V79H59.1333V71.7273H59.7654V74.4013H59.8223C59.9501 74.1196 60.1478 73.8946 60.4153 73.7266C60.6852 73.5585 61.0261 73.4744 61.438 73.4744C61.8074 73.4744 62.1317 73.5502 62.411 73.7017C62.6904 73.8532 62.9082 74.0769 63.0645 74.3729C63.2207 74.6688 63.2988 75.0334 63.2988 75.4666V79H62.6632V75.5057C62.6632 75.0559 62.5377 74.7019 62.2868 74.4439C62.0382 74.1835 61.702 74.0533 61.2782 74.0533C60.987 74.0533 60.7278 74.1148 60.5005 74.2379C60.2733 74.361 60.0933 74.5386 59.9608 74.7706C59.8306 75.0002 59.7654 75.2737 59.7654 75.5909ZM67.1687 79.1136C66.6597 79.1136 66.2193 78.9953 65.8477 78.7585C65.476 78.5194 65.1883 78.1892 64.9847 77.7678C64.7835 77.344 64.6829 76.8563 64.6829 76.3047C64.6829 75.7554 64.7835 75.2678 64.9847 74.8416C65.1883 74.4131 65.4689 74.0781 65.8263 73.8366C66.1862 73.5928 66.6017 73.4709 67.0728 73.4709C67.3687 73.4709 67.654 73.5253 67.9286 73.6342C68.2032 73.7408 68.4495 73.9053 68.6673 74.1278C68.8874 74.348 69.0614 74.6262 69.1893 74.9624C69.3171 75.2962 69.381 75.6915 69.381 76.1484V76.4609H65.1197V75.9034H68.7347C68.7347 75.553 68.6637 75.2382 68.5217 74.9588C68.382 74.6771 68.1867 74.4545 67.9357 74.2912C67.6871 74.1278 67.3995 74.0462 67.0728 74.0462C66.7272 74.0462 66.4229 74.1385 66.1602 74.3232C65.8974 74.5078 65.6914 74.7517 65.5423 75.0547C65.3955 75.3577 65.3209 75.6892 65.3185 76.049V76.3828C65.3185 76.8161 65.3931 77.1948 65.5423 77.5192C65.6938 77.8411 65.908 78.0909 66.185 78.2685C66.462 78.446 66.7899 78.5348 67.1687 78.5348C67.4267 78.5348 67.6528 78.4946 67.8469 78.4141C68.0434 78.3336 68.208 78.2259 68.3406 78.0909C68.4755 77.9536 68.5773 77.8033 68.646 77.6399L69.2461 77.8352C69.1632 78.0649 69.0271 78.2768 68.8377 78.4709C68.6507 78.665 68.4163 78.8213 68.1346 78.9396C67.8552 79.0556 67.5333 79.1136 67.1687 79.1136ZM73.5936 73.5455H74.2292V79.5291C74.2292 79.8393 74.1712 80.1068 74.0552 80.3317C73.9416 80.5589 73.7759 80.7341 73.5581 80.8572C73.3403 80.9827 73.0775 81.0455 72.7697 81.0455C72.746 81.0455 72.7224 81.0455 72.6987 81.0455C72.675 81.0455 72.649 81.0443 72.6206 81.0419L72.6277 80.4489C72.6513 80.4489 72.6738 80.4489 72.6951 80.4489C72.7164 80.4489 72.7389 80.4489 72.7626 80.4489C73.023 80.4489 73.2266 80.3684 73.3734 80.2074C73.5202 80.0464 73.5936 79.8203 73.5936 79.5291V73.5455ZM73.9061 72.608C73.7782 72.608 73.667 72.5642 73.5723 72.4766C73.4799 72.3866 73.4338 72.2789 73.4338 72.1534C73.4338 72.0279 73.4799 71.9214 73.5723 71.8338C73.667 71.7438 73.7782 71.6989 73.9061 71.6989C74.0363 71.6989 74.1475 71.7438 74.2399 71.8338C74.3346 71.9214 74.3819 72.0279 74.3819 72.1534C74.3819 72.2789 74.3346 72.3866 74.2399 72.4766C74.1475 72.5642 74.0363 72.608 73.9061 72.608ZM78.021 79.1136C77.5498 79.1136 77.1332 78.9941 76.771 78.755C76.4111 78.5159 76.1294 78.1856 75.9258 77.7642C75.7222 77.3404 75.6204 76.8516 75.6204 76.2976C75.6204 75.7389 75.7222 75.2476 75.9258 74.8239C76.1294 74.3977 76.4111 74.0663 76.771 73.8295C77.1332 73.5904 77.5498 73.4709 78.021 73.4709C78.4921 73.4709 78.9076 73.5904 79.2674 73.8295C79.6272 74.0687 79.909 74.4001 80.1126 74.8239C80.3185 75.2476 80.4215 75.7389 80.4215 76.2976C80.4215 76.8516 80.3197 77.3404 80.1161 77.7642C79.9125 78.1856 79.6296 78.5159 79.2674 78.755C78.9076 78.9941 78.4921 79.1136 78.021 79.1136ZM78.021 78.5348C78.3997 78.5348 78.7205 78.433 78.9833 78.2294C79.2461 78.0258 79.445 77.7547 79.5799 77.4162C79.7172 77.0777 79.7859 76.7048 79.7859 76.2976C79.7859 75.8904 79.7172 75.5163 79.5799 75.1754C79.445 74.8345 79.2461 74.5611 78.9833 74.3551C78.7205 74.1491 78.3997 74.0462 78.021 74.0462C77.6445 74.0462 77.3237 74.1491 77.0586 74.3551C76.7958 74.5611 76.5958 74.8345 76.4585 75.1754C76.3235 75.5163 76.256 75.8904 76.256 76.2976C76.256 76.7048 76.3235 77.0777 76.4585 77.4162C76.5958 77.7547 76.7958 78.0258 77.0586 78.2294C77.3214 78.433 77.6422 78.5348 78.021 78.5348ZM81.9405 79V71.7273H82.5762V74.5859H82.633C82.704 74.4226 82.8058 74.2545 82.9384 74.0817C83.0733 73.9089 83.2497 73.7644 83.4675 73.6484C83.6877 73.5301 83.9647 73.4709 84.2985 73.4709C84.7459 73.4709 85.1389 73.5893 85.4775 73.826C85.816 74.0604 86.08 74.3894 86.2694 74.8132C86.4587 75.2346 86.5534 75.7259 86.5534 76.2869C86.5534 76.8504 86.4587 77.344 86.2694 77.7678C86.0823 78.1915 85.8195 78.5218 85.481 78.7585C85.1448 78.9953 84.7542 79.1136 84.3091 79.1136C83.9777 79.1136 83.7007 79.0545 83.4782 78.9361C83.258 78.8177 83.0804 78.6721 82.9455 78.4993C82.8105 78.3241 82.7064 78.1536 82.633 77.9879H82.5549V79H81.9405ZM82.5655 76.2763C82.5655 76.7166 82.6306 77.1072 82.7608 77.4482C82.8934 77.7867 83.0828 78.053 83.329 78.2472C83.5776 78.4389 83.8783 78.5348 84.231 78.5348C84.5932 78.5348 84.8998 78.4354 85.1507 78.2365C85.4017 78.0353 85.5923 77.7642 85.7225 77.4233C85.8527 77.0824 85.9178 76.7 85.9178 76.2763C85.9178 75.8572 85.8527 75.4796 85.7225 75.1435C85.5946 74.8073 85.4052 74.541 85.1543 74.3445C84.9033 74.1456 84.5956 74.0462 84.231 74.0462C83.8759 74.0462 83.574 74.142 83.3255 74.3338C83.0792 74.5232 82.891 74.786 82.7608 75.1222C82.6306 75.456 82.5655 75.8407 82.5655 76.2763ZM44.2652 91V85.5455H44.8795V86.3835H44.9363C45.0452 86.1018 45.2264 85.8804 45.4797 85.7195C45.7354 85.5561 46.0419 85.4744 46.3994 85.4744C46.7758 85.4744 47.0848 85.5632 47.3263 85.7408C47.5701 85.916 47.7524 86.1574 47.8731 86.4652H47.9193C48.0424 86.1622 48.2425 85.9219 48.5194 85.7443C48.7988 85.5644 49.1373 85.4744 49.5351 85.4744C50.0417 85.4744 50.4418 85.6342 50.7354 85.9538C51.0289 86.2711 51.1757 86.7351 51.1757 87.3459V91H50.5436V87.3459C50.5436 86.915 50.4335 86.5919 50.2133 86.3764C49.9932 86.161 49.7032 86.0533 49.3433 86.0533C48.9266 86.0533 48.6059 86.1811 48.3809 86.4368C48.156 86.6925 48.0436 87.0168 48.0436 87.4098V91H47.3973V87.2891C47.3973 86.9197 47.2943 86.6214 47.0883 86.3942C46.8824 86.1669 46.5924 86.0533 46.2183 86.0533C45.9674 86.0533 45.7413 86.1148 45.54 86.2379C45.3412 86.361 45.1837 86.5327 45.0677 86.7528C44.9541 86.9706 44.8973 87.2216 44.8973 87.5057V91H44.2652ZM54.3726 91.1243C54.0435 91.1243 53.7429 91.0604 53.4706 90.9325C53.1984 90.8023 52.9817 90.6153 52.8208 90.3714C52.6598 90.1252 52.5793 89.8269 52.5793 89.4766C52.5793 89.2067 52.6302 88.9794 52.732 88.7947C52.8338 88.6101 52.9782 88.4586 53.1652 88.3402C53.3522 88.2218 53.5736 88.1283 53.8293 88.0597C54.085 87.991 54.3667 87.9377 54.6744 87.8999C54.9798 87.862 55.2379 87.8288 55.4486 87.8004C55.6617 87.772 55.8238 87.727 55.9351 87.6655C56.0464 87.6039 56.102 87.5045 56.102 87.3672V87.2393C56.102 86.8677 55.9907 86.5753 55.7682 86.3622C55.548 86.1468 55.2308 86.0391 54.8165 86.0391C54.4235 86.0391 54.1027 86.1255 53.8541 86.2983C53.6079 86.4711 53.4351 86.6747 53.3357 86.9091L52.7355 86.6925C52.8586 86.3942 53.0291 86.1562 53.2469 85.9787C53.4647 85.7988 53.7085 85.6697 53.9784 85.5916C54.2483 85.5111 54.5218 85.4709 54.7987 85.4709C55.0071 85.4709 55.2237 85.4981 55.4486 85.5526C55.6759 85.607 55.8866 85.7017 56.0807 85.8366C56.2748 85.9692 56.4323 86.1551 56.553 86.3942C56.6737 86.6309 56.7341 86.9316 56.7341 87.2962V91H56.102V90.1371H56.0629C55.9872 90.2981 55.8747 90.4543 55.7256 90.6058C55.5764 90.7573 55.3894 90.8816 55.1645 90.9787C54.9396 91.0758 54.6756 91.1243 54.3726 91.1243ZM54.4578 90.5455C54.794 90.5455 55.0852 90.4709 55.3314 90.3217C55.5776 90.1726 55.767 89.9749 55.8996 89.7287C56.0345 89.4801 56.102 89.2067 56.102 88.9084V88.12C56.0547 88.165 55.9753 88.2053 55.8641 88.2408C55.7552 88.2763 55.6285 88.3082 55.4841 88.3366C55.3421 88.3627 55.2 88.3852 55.058 88.4041C54.9159 88.4231 54.7881 88.4396 54.6744 88.4538C54.3667 88.4917 54.1039 88.5509 53.8861 88.6314C53.6683 88.7119 53.5014 88.8232 53.3854 88.9652C53.2694 89.1049 53.2114 89.2848 53.2114 89.505C53.2114 89.8364 53.3298 90.0933 53.5665 90.2756C53.8032 90.4555 54.1003 90.5455 54.4578 90.5455ZM58.4156 91V85.5455H59.0299V86.3835H59.0761C59.185 86.1089 59.3744 85.8875 59.6443 85.7195C59.9165 85.549 60.2243 85.4638 60.5676 85.4638C60.6196 85.4638 60.6776 85.465 60.7416 85.4673C60.8055 85.4697 60.8588 85.4721 60.9014 85.4744V86.1172C60.873 86.1125 60.8232 86.1054 60.7522 86.0959C60.6812 86.0864 60.6043 86.0817 60.5214 86.0817C60.2373 86.0817 59.984 86.142 59.7615 86.2628C59.5413 86.3812 59.3673 86.5457 59.2394 86.7564C59.1116 86.9671 59.0477 87.2074 59.0477 87.4773V91H58.4156ZM62.5553 88.9403L62.5482 88.1129H62.6903L65.2471 85.5455H66.0461L63.5212 88.0739L63.4644 88.0845L62.5553 88.9403ZM61.98 91V83.7273H62.6121V91H61.98ZM65.3785 91L63.1626 88.1982L63.6171 87.7614L66.1881 91H65.3785ZM69.2146 91.1136C68.7056 91.1136 68.2652 90.9953 67.8936 90.7585C67.5219 90.5194 67.2342 90.1892 67.0306 89.7678C66.8294 89.344 66.7288 88.8563 66.7288 88.3047C66.7288 87.7554 66.8294 87.2678 67.0306 86.8416C67.2342 86.4131 67.5148 86.0781 67.8722 85.8366C68.2321 85.5928 68.6476 85.4709 69.1187 85.4709C69.4146 85.4709 69.6999 85.5253 69.9745 85.6342C70.2491 85.7408 70.4954 85.9053 70.7132 86.1278C70.9333 86.348 71.1073 86.6262 71.2352 86.9624C71.363 87.2962 71.4269 87.6915 71.4269 88.1484V88.4609H67.1656V87.9034H70.7806C70.7806 87.553 70.7096 87.2382 70.5676 86.9588C70.4279 86.6771 70.2326 86.4545 69.9816 86.2912C69.733 86.1278 69.4454 86.0462 69.1187 86.0462C68.7731 86.0462 68.4688 86.1385 68.2061 86.3232C67.9433 86.5078 67.7373 86.7517 67.5882 87.0547C67.4414 87.3577 67.3668 87.6892 67.3644 88.049V88.3828C67.3644 88.8161 67.439 89.1948 67.5882 89.5192C67.7397 89.8411 67.9539 90.0909 68.2309 90.2685C68.5079 90.446 68.8358 90.5348 69.2146 90.5348C69.4726 90.5348 69.6987 90.4946 69.8928 90.4141C70.0893 90.3336 70.2539 90.2259 70.3865 90.0909C70.5214 89.9536 70.6232 89.8033 70.6919 89.6399L71.292 89.8352C71.2091 90.0649 71.073 90.2768 70.8836 90.4709C70.6966 90.665 70.4622 90.8213 70.1805 90.9396C69.9011 91.0556 69.5792 91.1136 69.2146 91.1136ZM74.9683 85.5455V86.0959H72.3653V85.5455H74.9683ZM73.1785 84.2386H73.8142V89.576C73.8142 89.8033 73.8532 89.982 73.9314 90.1122C74.0095 90.2401 74.1113 90.3312 74.2368 90.3857C74.3622 90.4377 74.496 90.4638 74.6381 90.4638C74.7209 90.4638 74.7919 90.459 74.8511 90.4496C74.9103 90.4377 74.9624 90.4259 75.0074 90.4141L75.1423 90.9858C75.0808 91.0095 75.005 91.0308 74.915 91.0497C74.8251 91.071 74.7138 91.0817 74.5812 91.0817C74.3492 91.0817 74.1255 91.0308 73.9101 90.929C73.697 90.8272 73.5218 90.6757 73.3845 90.4744C73.2472 90.2732 73.1785 90.0234 73.1785 89.7251V84.2386Z" fill="#333333"/>
<defs>
<filter id="filter0_d_991_217" x="0" y="0" width="118" height="118" filterUnits="userSpaceOnUse" color-interpolation-filters="sRGB">
<feFlood flood-opacity="0" result="BackgroundImageFix"/>
<feColorMatrix in="SourceAlpha" type="matrix" values="0 0 0 0 0 0 0 0 0 0 0 0 0 0 0 0 0 0 127 0" result="hardAlpha"/>
<feOffset dy="4"/>
<feGaussianBlur stdDeviation="2"/>
<feComposite in2="hardAlpha" operator="out"/>
<feColorMatrix type="matrix" values="0 0 0 0 0 0 0 0 0 0 0 0 0 0 0 0 0 0 0.25 0"/>
<feBlend mode="normal" in2="BackgroundImageFix" result="effect1_dropShadow_991_217"/>
<feBlend mode="normal" in="SourceGraphic" in2="effect1_dropShadow_991_217" result="shape"/>
</filter>
</defs>
</svg>
