<svg width="118" height="118" viewBox="0 0 118 118" fill="none" xmlns="http://www.w3.org/2000/svg">
<g filter="url(#filter0_d_991_214)">
<rect x="4" width="110" height="110" fill="#C9C8D8" fill-opacity="0.5" shape-rendering="crispEdges"/>
</g>
<path d="M23.9136 23V17.5455H24.528V18.3835H24.5848C24.6937 18.1018 24.8748 17.8804 25.1281 17.7195C25.3838 17.5561 25.6904 17.4744 26.0479 17.4744C26.4243 17.4744 26.7332 17.5632 26.9747 17.7408C27.2185 17.916 27.4008 18.1574 27.5216 18.4652H27.5677C27.6908 18.1622 27.8909 17.9219 28.1679 17.7443C28.4472 17.5644 28.7858 17.4744 29.1835 17.4744C29.6901 17.4744 30.0902 17.6342 30.3838 17.9538C30.6773 18.2711 30.8241 18.7351 30.8241 19.3459V23H30.192V19.3459C30.192 18.915 30.0819 18.5919 29.8618 18.3764C29.6416 18.161 29.3516 18.0533 28.9917 18.0533C28.5751 18.0533 28.2543 18.1811 28.0294 18.4368C27.8045 18.6925 27.692 19.0168 27.692 19.4098V23H27.0457V19.2891C27.0457 18.9197 26.9427 18.6214 26.7368 18.3942C26.5308 18.1669 26.2408 18.0533 25.8667 18.0533C25.6158 18.0533 25.3897 18.1148 25.1885 18.2379C24.9896 18.361 24.8322 18.5327 24.7162 18.7528C24.6025 18.9706 24.5457 19.2216 24.5457 19.5057V23H23.9136ZM34.021 23.1243C33.692 23.1243 33.3913 23.0604 33.1191 22.9325C32.8468 22.8023 32.6302 22.6153 32.4692 22.3714C32.3082 22.1252 32.2277 21.8269 32.2277 21.4766C32.2277 21.2067 32.2786 20.9794 32.3804 20.7947C32.4822 20.6101 32.6266 20.4586 32.8137 20.3402C33.0007 20.2218 33.222 20.1283 33.4777 20.0597C33.7334 19.991 34.0151 19.9377 34.3229 19.8999C34.6283 19.862 34.8863 19.8288 35.097 19.8004C35.3101 19.772 35.4723 19.727 35.5835 19.6655C35.6948 19.6039 35.7504 19.5045 35.7504 19.3672V19.2393C35.7504 18.8677 35.6392 18.5753 35.4166 18.3622C35.1965 18.1468 34.8792 18.0391 34.4649 18.0391C34.0719 18.0391 33.7512 18.1255 33.5026 18.2983C33.2564 18.4711 33.0835 18.6747 32.9841 18.9091L32.384 18.6925C32.5071 18.3942 32.6775 18.1562 32.8953 17.9787C33.1131 17.7988 33.357 17.6697 33.6269 17.5916C33.8968 17.5111 34.1702 17.4709 34.4472 17.4709C34.6555 17.4709 34.8721 17.4981 35.097 17.5526C35.3243 17.607 35.535 17.7017 35.7291 17.8366C35.9233 17.9692 36.0807 18.1551 36.2014 18.3942C36.3222 18.6309 36.3825 18.9316 36.3825 19.2962V23H35.7504V22.1371H35.7114C35.6356 22.2981 35.5232 22.4543 35.374 22.6058C35.2249 22.7573 35.0378 22.8816 34.8129 22.9787C34.588 23.0758 34.3241 23.1243 34.021 23.1243ZM34.1063 22.5455C34.4424 22.5455 34.7336 22.4709 34.9798 22.3217C35.2261 22.1726 35.4155 21.9749 35.548 21.7287C35.683 21.4801 35.7504 21.2067 35.7504 20.9084V20.12C35.7031 20.165 35.6238 20.2053 35.5125 20.2408C35.4036 20.2763 35.277 20.3082 35.1325 20.3366C34.9905 20.3627 34.8485 20.3852 34.7064 20.4041C34.5644 20.4231 34.4365 20.4396 34.3229 20.4538C34.0151 20.4917 33.7523 20.5509 33.5345 20.6314C33.3167 20.7119 33.1498 20.8232 33.0338 20.9652C32.9178 21.1049 32.8598 21.2848 32.8598 21.505C32.8598 21.8364 32.9782 22.0933 33.2149 22.2756C33.4517 22.4555 33.7488 22.5455 34.1063 22.5455ZM38.6393 20.9403L38.6322 20.1129H38.7742L41.3311 17.5455H42.1301L39.6052 20.0739L39.5484 20.0845L38.6393 20.9403ZM38.064 23V15.7273H38.6961V23H38.064ZM41.4624 23L39.2465 20.1982L39.7011 19.7614L42.2721 23H41.4624ZM45.2986 23.1136C44.7896 23.1136 44.3492 22.9953 43.9775 22.7585C43.6059 22.5194 43.3182 22.1892 43.1146 21.7678C42.9134 21.344 42.8128 20.8563 42.8128 20.3047C42.8128 19.7554 42.9134 19.2678 43.1146 18.8416C43.3182 18.4131 43.5988 18.0781 43.9562 17.8366C44.3161 17.5928 44.7316 17.4709 45.2027 17.4709C45.4986 17.4709 45.7839 17.5253 46.0585 17.6342C46.3331 17.7408 46.5793 17.9053 46.7971 18.1278C47.0173 18.348 47.1913 18.6262 47.3192 18.9624C47.447 19.2962 47.5109 19.6915 47.5109 20.1484V20.4609H43.2496V19.9034H46.8646C46.8646 19.553 46.7936 19.2382 46.6515 18.9588C46.5119 18.6771 46.3166 18.4545 46.0656 18.2912C45.817 18.1278 45.5294 18.0462 45.2027 18.0462C44.857 18.0462 44.5528 18.1385 44.29 18.3232C44.0273 18.5078 43.8213 18.7517 43.6721 19.0547C43.5254 19.3577 43.4508 19.6892 43.4484 20.049V20.3828C43.4484 20.8161 43.523 21.1948 43.6721 21.5192C43.8237 21.8411 44.0379 22.0909 44.3149 22.2685C44.5919 22.446 44.9198 22.5348 45.2986 22.5348C45.5566 22.5348 45.7827 22.4946 45.9768 22.4141C46.1733 22.3336 46.3379 22.2259 46.4704 22.0909C46.6054 21.9536 46.7072 21.8033 46.7758 21.6399L47.376 21.8352C47.2931 22.0649 47.157 22.2768 46.9676 22.4709C46.7806 22.665 46.5462 22.8213 46.2645 22.9396C45.9851 23.0556 45.6631 23.1136 45.2986 23.1136ZM52.5686 18.7422L51.9898 18.9055C51.933 18.7422 51.8525 18.5942 51.7483 18.4616C51.6441 18.3291 51.508 18.2237 51.3399 18.1456C51.1742 18.0675 50.9682 18.0284 50.722 18.0284C50.3527 18.0284 50.0497 18.116 49.8129 18.2912C49.5762 18.4664 49.4578 18.6925 49.4578 18.9695C49.4578 19.2038 49.5383 19.3944 49.6993 19.5412C49.8627 19.6856 50.1136 19.8004 50.4521 19.8857L51.276 20.0881C51.7329 20.1993 52.075 20.3757 52.3023 20.6172C52.5319 20.8587 52.6468 21.1617 52.6468 21.5263C52.6468 21.834 52.5615 22.1075 52.3911 22.3466C52.2206 22.5857 51.9827 22.7739 51.6773 22.9112C51.3743 23.0462 51.0227 23.1136 50.6226 23.1136C50.0899 23.1136 49.6508 22.9941 49.3051 22.755C48.9595 22.5135 48.7381 22.1655 48.6411 21.7109L49.2483 21.5618C49.3264 21.8861 49.4791 22.1312 49.7064 22.2969C49.9361 22.4626 50.2379 22.5455 50.6119 22.5455C51.031 22.5455 51.366 22.4519 51.6169 22.2649C51.8679 22.0755 51.9933 21.8388 51.9933 21.5547C51.9933 21.3345 51.92 21.1499 51.7732 21.0007C51.6264 20.8492 51.4039 20.7379 51.1056 20.6669L50.2142 20.4538C49.7407 20.3402 49.3904 20.1603 49.1631 19.9141C48.9358 19.6679 48.8222 19.3625 48.8222 18.9979C48.8222 18.6972 48.9039 18.4332 49.0672 18.206C49.2306 17.9763 49.4555 17.7964 49.7419 17.6662C50.0284 17.536 50.3551 17.4709 50.722 17.4709C51.2216 17.4709 51.6205 17.5845 51.9188 17.8118C52.2194 18.0367 52.4361 18.3468 52.5686 18.7422ZM60.5081 18.7422L59.9292 18.9055C59.8724 18.7422 59.7919 18.5942 59.6878 18.4616C59.5836 18.3291 59.4475 18.2237 59.2794 18.1456C59.1137 18.0675 58.9077 18.0284 58.6615 18.0284C58.2922 18.0284 57.9891 18.116 57.7524 18.2912C57.5157 18.4664 57.3973 18.6925 57.3973 18.9695C57.3973 19.2038 57.4778 19.3944 57.6388 19.5412C57.8021 19.6856 58.0531 19.8004 58.3916 19.8857L59.2155 20.0881C59.6724 20.1993 60.0145 20.3757 60.2417 20.6172C60.4714 20.8587 60.5862 21.1617 60.5862 21.5263C60.5862 21.834 60.501 22.1075 60.3305 22.3466C60.1601 22.5857 59.9221 22.7739 59.6167 22.9112C59.3137 23.0462 58.9622 23.1136 58.5621 23.1136C58.0294 23.1136 57.5902 22.9941 57.2446 22.755C56.8989 22.5135 56.6776 22.1655 56.5805 21.7109L57.1878 21.5618C57.2659 21.8861 57.4186 22.1312 57.6459 22.2969C57.8755 22.4626 58.1773 22.5455 58.5514 22.5455C58.9704 22.5455 59.3054 22.4519 59.5564 22.2649C59.8073 22.0755 59.9328 21.8388 59.9328 21.5547C59.9328 21.3345 59.8594 21.1499 59.7126 21.0007C59.5658 20.8492 59.3433 20.7379 59.045 20.6669L58.1537 20.4538C57.6802 20.3402 57.3298 20.1603 57.1025 19.9141C56.8753 19.6679 56.7616 19.3625 56.7616 18.9979C56.7616 18.6972 56.8433 18.4332 57.0067 18.206C57.17 17.9763 57.3949 17.7964 57.6814 17.6662C57.9678 17.536 58.2945 17.4709 58.6615 17.4709C59.161 17.4709 59.5599 17.5845 59.8582 17.8118C60.1589 18.0367 60.3755 18.3468 60.5081 18.7422ZM64.1755 23.1136C63.6665 23.1136 63.2262 22.9953 62.8545 22.7585C62.4828 22.5194 62.1952 22.1892 61.9916 21.7678C61.7903 21.344 61.6897 20.8563 61.6897 20.3047C61.6897 19.7554 61.7903 19.2678 61.9916 18.8416C62.1952 18.4131 62.4757 18.0781 62.8332 17.8366C63.193 17.5928 63.6085 17.4709 64.0796 17.4709C64.3756 17.4709 64.6608 17.5253 64.9355 17.6342C65.2101 17.7408 65.4563 17.9053 65.6741 18.1278C65.8943 18.348 66.0683 18.6262 66.1961 18.9624C66.324 19.2962 66.3879 19.6915 66.3879 20.1484V20.4609H62.1265V19.9034H65.7416C65.7416 19.553 65.6705 19.2382 65.5285 18.9588C65.3888 18.6771 65.1935 18.4545 64.9426 18.2912C64.694 18.1278 64.4063 18.0462 64.0796 18.0462C63.734 18.0462 63.4298 18.1385 63.167 18.3232C62.9042 18.5078 62.6982 18.7517 62.5491 19.0547C62.4023 19.3577 62.3277 19.6892 62.3254 20.049V20.3828C62.3254 20.8161 62.3999 21.1948 62.5491 21.5192C62.7006 21.8411 62.9149 22.0909 63.1919 22.2685C63.4688 22.446 63.7967 22.5348 64.1755 22.5348C64.4336 22.5348 64.6597 22.4946 64.8538 22.4141C65.0503 22.3336 65.2148 22.2259 65.3474 22.0909C65.4823 21.9536 65.5841 21.8033 65.6528 21.6399L66.2529 21.8352C66.1701 22.0649 66.0339 22.2768 65.8445 22.4709C65.6575 22.665 65.4231 22.8213 65.1414 22.9396C64.8621 23.0556 64.5401 23.1136 64.1755 23.1136ZM68.4129 19.5909V23H67.7808V17.5455H68.3952V18.4013H68.452C68.5798 18.1219 68.7787 17.8982 69.0486 17.7301C69.3208 17.5597 69.657 17.4744 70.0571 17.4744C70.424 17.4744 70.746 17.5514 71.023 17.7053C71.3023 17.8568 71.519 18.0805 71.6729 18.3764C71.8291 18.6723 71.9072 19.0357 71.9072 19.4666V23H71.2751V19.5057C71.2751 19.0582 71.1497 18.7043 70.8987 18.4439C70.6501 18.1835 70.3163 18.0533 69.8973 18.0533C69.6108 18.0533 69.3563 18.1148 69.1338 18.2379C68.9113 18.361 68.7349 18.5386 68.6047 18.7706C68.4768 19.0002 68.4129 19.2737 68.4129 19.5909ZM77.2366 18.7422L76.6578 18.9055C76.6009 18.7422 76.5204 18.5942 76.4163 18.4616C76.3121 18.3291 76.176 18.2237 76.0079 18.1456C75.8422 18.0675 75.6362 18.0284 75.39 18.0284C75.0207 18.0284 74.7177 18.116 74.4809 18.2912C74.2442 18.4664 74.1258 18.6925 74.1258 18.9695C74.1258 19.2038 74.2063 19.3944 74.3673 19.5412C74.5306 19.6856 74.7816 19.8004 75.1201 19.8857L75.944 20.0881C76.4009 20.1993 76.743 20.3757 76.9703 20.6172C77.1999 20.8587 77.3147 21.1617 77.3147 21.5263C77.3147 21.834 77.2295 22.1075 77.059 22.3466C76.8886 22.5857 76.6507 22.7739 76.3453 22.9112C76.0422 23.0462 75.6907 23.1136 75.2906 23.1136C74.7579 23.1136 74.3187 22.9941 73.9731 22.755C73.6275 22.5135 73.4061 22.1655 73.309 21.7109L73.9163 21.5618C73.9944 21.8861 74.1471 22.1312 74.3744 22.2969C74.604 22.4626 74.9059 22.5455 75.2799 22.5455C75.699 22.5455 76.0339 22.4519 76.2849 22.2649C76.5358 22.0755 76.6613 21.8388 76.6613 21.5547C76.6613 21.3345 76.5879 21.1499 76.4411 21.0007C76.2944 20.8492 76.0718 20.7379 75.7735 20.6669L74.8822 20.4538C74.4087 20.3402 74.0583 20.1603 73.8311 19.9141C73.6038 19.6679 73.4901 19.3625 73.4901 18.9979C73.4901 18.6972 73.5718 18.4332 73.7352 18.206C73.8985 17.9763 74.1234 17.7964 74.4099 17.6662C74.6963 17.536 75.0231 17.4709 75.39 17.4709C75.8895 17.4709 76.2884 17.5845 76.5867 17.8118C76.8874 18.0367 77.104 18.3468 77.2366 18.7422ZM80.904 23.1136C80.395 23.1136 79.9547 22.9953 79.583 22.7585C79.2113 22.5194 78.9237 22.1892 78.7201 21.7678C78.5189 21.344 78.4182 20.8563 78.4182 20.3047C78.4182 19.7554 78.5189 19.2678 78.7201 18.8416C78.9237 18.4131 79.2042 18.0781 79.5617 17.8366C79.9215 17.5928 80.337 17.4709 80.8081 17.4709C81.1041 17.4709 81.3894 17.5253 81.664 17.6342C81.9386 17.7408 82.1848 17.9053 82.4026 18.1278C82.6228 18.348 82.7968 18.6262 82.9246 18.9624C83.0525 19.2962 83.1164 19.6915 83.1164 20.1484V20.4609H78.855V19.9034H82.4701C82.4701 19.553 82.3991 19.2382 82.257 18.9588C82.1173 18.6771 81.922 18.4545 81.6711 18.2912C81.4225 18.1278 81.1349 18.0462 80.8081 18.0462C80.4625 18.0462 80.1583 18.1385 79.8955 18.3232C79.6327 18.5078 79.4268 18.7517 79.2776 19.0547C79.1308 19.3577 79.0563 19.6892 79.0539 20.049V20.3828C79.0539 20.8161 79.1285 21.1948 79.2776 21.5192C79.4291 21.8411 79.6434 22.0909 79.9204 22.2685C80.1974 22.446 80.5252 22.5348 80.904 22.5348C81.1621 22.5348 81.3882 22.4946 81.5823 22.4141C81.7788 22.3336 81.9433 22.2259 82.0759 22.0909C82.2108 21.9536 82.3126 21.8033 82.3813 21.6399L82.9814 21.8352C82.8986 22.0649 82.7625 22.2768 82.5731 22.4709C82.386 22.665 82.1517 22.8213 81.8699 22.9396C81.5906 23.0556 81.2686 23.1136 80.904 23.1136ZM89.4703 17.5455V18.0959H86.8673V17.5455H89.4703ZM87.6805 16.2386H88.3161V21.576C88.3161 21.8033 88.3552 21.982 88.4333 22.1122C88.5115 22.2401 88.6133 22.3312 88.7387 22.3857C88.8642 22.4377 88.998 22.4638 89.14 22.4638C89.2229 22.4638 89.2939 22.459 89.3531 22.4496C89.4123 22.4377 89.4643 22.4259 89.5093 22.4141L89.6443 22.9858C89.5827 23.0095 89.507 23.0308 89.417 23.0497C89.327 23.071 89.2158 23.0817 89.0832 23.0817C88.8512 23.0817 88.6275 23.0308 88.412 22.929C88.199 22.8272 88.0238 22.6757 87.8865 22.4744C87.7491 22.2732 87.6805 22.0234 87.6805 21.7251V16.2386ZM92.9672 23.1136C92.4961 23.1136 92.0795 22.9941 91.7172 22.755C91.3574 22.5159 91.0757 22.1856 90.8721 21.7642C90.6685 21.3404 90.5667 20.8516 90.5667 20.2976C90.5667 19.7389 90.6685 19.2476 90.8721 18.8239C91.0757 18.3977 91.3574 18.0663 91.7172 17.8295C92.0795 17.5904 92.4961 17.4709 92.9672 17.4709C93.4384 17.4709 93.8538 17.5904 94.2137 17.8295C94.5735 18.0687 94.8553 18.4001 95.0589 18.8239C95.2648 19.2476 95.3678 19.7389 95.3678 20.2976C95.3678 20.8516 95.266 21.3404 95.0624 21.7642C94.8588 22.1856 94.5759 22.5159 94.2137 22.755C93.8538 22.9941 93.4384 23.1136 92.9672 23.1136ZM92.9672 22.5348C93.346 22.5348 93.6668 22.433 93.9296 22.2294C94.1924 22.0258 94.3912 21.7547 94.5262 21.4162C94.6635 21.0777 94.7322 20.7048 94.7322 20.2976C94.7322 19.8904 94.6635 19.5163 94.5262 19.1754C94.3912 18.8345 94.1924 18.5611 93.9296 18.3551C93.6668 18.1491 93.346 18.0462 92.9672 18.0462C92.5908 18.0462 92.27 18.1491 92.0049 18.3551C91.7421 18.5611 91.5421 18.8345 91.4047 19.1754C91.2698 19.5163 91.2023 19.8904 91.2023 20.2976C91.2023 20.7048 91.2698 21.0777 91.4047 21.4162C91.5421 21.7547 91.7421 22.0258 92.0049 22.2294C92.2677 22.433 92.5885 22.5348 92.9672 22.5348ZM33.8333 30.7422L33.2544 30.9055C33.1976 30.7422 33.1171 30.5942 33.013 30.4616C32.9088 30.3291 32.7727 30.2237 32.6046 30.1456C32.4389 30.0675 32.2329 30.0284 31.9867 30.0284C31.6174 30.0284 31.3143 30.116 31.0776 30.2912C30.8408 30.4664 30.7225 30.6925 30.7225 30.9695C30.7225 31.2038 30.803 31.3944 30.964 31.5412C31.1273 31.6856 31.3783 31.8004 31.7168 31.8857L32.5407 32.0881C32.9976 32.1993 33.3397 32.3757 33.5669 32.6172C33.7966 32.8587 33.9114 33.1617 33.9114 33.5263C33.9114 33.834 33.8262 34.1075 33.6557 34.3466C33.4853 34.5857 33.2473 34.7739 32.9419 34.9112C32.6389 35.0462 32.2873 35.1136 31.8873 35.1136C31.3546 35.1136 30.9154 34.9941 30.5698 34.755C30.2241 34.5135 30.0028 34.1655 29.9057 33.7109L30.513 33.5618C30.5911 33.8861 30.7438 34.1312 30.9711 34.2969C31.2007 34.4626 31.5025 34.5455 31.8766 34.5455C32.2956 34.5455 32.6306 34.4519 32.8816 34.2649C33.1325 34.0755 33.258 33.8388 33.258 33.5547C33.258 33.3345 33.1846 33.1499 33.0378 33.0007C32.891 32.8492 32.6685 32.7379 32.3702 32.6669L31.4789 32.4538C31.0054 32.3402 30.655 32.1603 30.4277 31.9141C30.2005 31.6679 30.0868 31.3625 30.0868 30.9979C30.0868 30.6972 30.1685 30.4332 30.3319 30.206C30.4952 29.9763 30.7201 29.7964 31.0066 29.6662C31.293 29.536 31.6197 29.4709 31.9867 29.4709C32.4862 29.4709 32.8851 29.5845 33.1834 29.8118C33.4841 30.0367 33.7007 30.3468 33.8333 30.7422ZM37.4439 29.5455V30.0959H34.8409V29.5455H37.4439ZM35.6541 28.2386H36.2898V33.576C36.2898 33.8033 36.3288 33.982 36.407 34.1122C36.4851 34.2401 36.5869 34.3312 36.7124 34.3857C36.8378 34.4377 36.9716 34.4638 37.1136 34.4638C37.1965 34.4638 37.2675 34.459 37.3267 34.4496C37.3859 34.4377 37.438 34.4259 37.483 34.4141L37.6179 34.9858C37.5563 35.0095 37.4806 35.0308 37.3906 35.0497C37.3007 35.071 37.1894 35.0817 37.0568 35.0817C36.8248 35.0817 36.6011 35.0308 36.3857 34.929C36.1726 34.8272 35.9974 34.6757 35.8601 34.4744C35.7228 34.2732 35.6541 34.0234 35.6541 33.7251V28.2386ZM38.8794 35V29.5455H39.4938V30.3835H39.54C39.6489 30.1089 39.8382 29.8875 40.1081 29.7195C40.3804 29.549 40.6882 29.4638 41.0314 29.4638C41.0835 29.4638 41.1415 29.465 41.2054 29.4673C41.2694 29.4697 41.3226 29.4721 41.3652 29.4744V30.1172C41.3368 30.1125 41.2871 30.1054 41.2161 30.0959C41.1451 30.0864 41.0681 30.0817 40.9853 30.0817C40.7012 30.0817 40.4479 30.142 40.2253 30.2628C40.0051 30.3812 39.8311 30.5457 39.7033 30.7564C39.5755 30.9671 39.5115 31.2074 39.5115 31.4773V35H38.8794ZM45.9098 32.9155V29.5455H46.5419V35H45.9098V34.0945H45.8601C45.7322 34.3738 45.5298 34.607 45.2528 34.794C44.9759 34.9787 44.6373 35.071 44.2372 35.071C43.8892 35.071 43.5803 34.9953 43.3104 34.8438C43.0405 34.6899 42.8286 34.465 42.6747 34.169C42.5208 33.8731 42.4439 33.5097 42.4439 33.0788V29.5455H43.076V33.0398C43.076 33.4659 43.2015 33.8092 43.4524 34.0696C43.7034 34.3277 44.0253 34.4567 44.4183 34.4567C44.6645 34.4567 44.9013 34.3975 45.1286 34.2791C45.3558 34.1607 45.5429 33.9879 45.6896 33.7607C45.8364 33.531 45.9098 33.2493 45.9098 32.9155ZM50.3461 35.1136C49.8584 35.1136 49.4334 34.9917 49.0712 34.7479C48.7114 34.504 48.432 34.1702 48.2331 33.7464C48.0343 33.3227 47.9348 32.8397 47.9348 32.2976C47.9348 31.7507 48.0355 31.2642 48.2367 30.8381C48.4403 30.4119 48.722 30.0781 49.0819 29.8366C49.4417 29.5928 49.8596 29.4709 50.3354 29.4709C50.7 29.4709 51.0302 29.5419 51.3262 29.6839C51.6221 29.8236 51.8659 30.0213 52.0577 30.277C52.2518 30.5303 52.3738 30.8262 52.4235 31.1648H51.7843C51.718 30.857 51.5582 30.5942 51.3049 30.3764C51.0539 30.1562 50.7343 30.0462 50.3461 30.0462C49.998 30.0462 49.6903 30.1409 49.4228 30.3303C49.1552 30.5173 48.9457 30.7789 48.7942 31.1151C48.6451 31.4489 48.5705 31.8359 48.5705 32.2763C48.5705 32.719 48.6439 33.1108 48.7907 33.4517C48.9374 33.7902 49.1434 34.0554 49.4086 34.2472C49.6761 34.4389 49.9886 34.5348 50.3461 34.5348C50.5875 34.5348 50.8077 34.4898 51.0066 34.3999C51.2078 34.3075 51.3759 34.1773 51.5108 34.0092C51.6481 33.8411 51.7405 33.6411 51.7878 33.4091H52.427C52.3797 33.7382 52.2625 34.0317 52.0755 34.2898C51.8908 34.5455 51.6505 34.7467 51.3546 34.8935C51.061 35.0402 50.7248 35.1136 50.3461 35.1136ZM55.9302 29.5455V30.0959H53.3272V29.5455H55.9302ZM54.1404 28.2386H54.7761V33.576C54.7761 33.8033 54.8152 33.982 54.8933 34.1122C54.9714 34.2401 55.0732 34.3312 55.1987 34.3857C55.3242 34.4377 55.4579 34.4638 55.6 34.4638C55.6828 34.4638 55.7538 34.459 55.813 34.4496C55.8722 34.4377 55.9243 34.4259 55.9693 34.4141L56.1042 34.9858C56.0427 35.0095 55.9669 35.0308 55.877 35.0497C55.787 35.071 55.6757 35.0817 55.5431 35.0817C55.3111 35.0817 55.0874 35.0308 54.872 34.929C54.6589 34.8272 54.4837 34.6757 54.3464 34.4744C54.2091 34.2732 54.1404 34.0234 54.1404 33.7251V28.2386ZM60.8317 32.9155V29.5455H61.4638V35H60.8317V34.0945H60.782C60.6541 34.3738 60.4517 34.607 60.1747 34.794C59.8977 34.9787 59.5592 35.071 59.1591 35.071C58.8111 35.071 58.5021 34.9953 58.2322 34.8438C57.9624 34.6899 57.7505 34.465 57.5966 34.169C57.4427 33.8731 57.3658 33.5097 57.3658 33.0788V29.5455H57.9979V33.0398C57.9979 33.4659 58.1233 33.8092 58.3743 34.0696C58.6252 34.3277 58.9472 34.4567 59.3402 34.4567C59.5864 34.4567 59.8232 34.3975 60.0504 34.2791C60.2777 34.1607 60.4647 33.9879 60.6115 33.7607C60.7583 33.531 60.8317 33.2493 60.8317 32.9155ZM63.1373 35V29.5455H63.7516V30.3835H63.7978C63.9067 30.1089 64.0961 29.8875 64.3659 29.7195C64.6382 29.549 64.946 29.4638 65.2892 29.4638C65.3413 29.4638 65.3993 29.465 65.4632 29.4673C65.5272 29.4697 65.5804 29.4721 65.623 29.4744V30.1172C65.5946 30.1125 65.5449 30.1054 65.4739 30.0959C65.4029 30.0864 65.3259 30.0817 65.2431 30.0817C64.959 30.0817 64.7057 30.142 64.4831 30.2628C64.263 30.3812 64.089 30.5457 63.9611 30.7564C63.8333 30.9671 63.7694 31.2074 63.7694 31.4773V35H63.1373ZM68.7409 35.1136C68.2319 35.1136 67.7916 34.9953 67.4199 34.7585C67.0482 34.5194 66.7606 34.1892 66.557 33.7678C66.3558 33.344 66.2551 32.8563 66.2551 32.3047C66.2551 31.7554 66.3558 31.2678 66.557 30.8416C66.7606 30.4131 67.0411 30.0781 67.3986 29.8366C67.7585 29.5928 68.1739 29.4709 68.6451 29.4709C68.941 29.4709 69.2263 29.5253 69.5009 29.6342C69.7755 29.7408 70.0217 29.9053 70.2395 30.1278C70.4597 30.348 70.6337 30.6262 70.7615 30.9624C70.8894 31.2962 70.9533 31.6915 70.9533 32.1484V32.4609H66.6919V31.9034H70.307C70.307 31.553 70.236 31.2382 70.0939 30.9588C69.9542 30.6771 69.7589 30.4545 69.508 30.2912C69.2594 30.1278 68.9718 30.0462 68.6451 30.0462C68.2994 30.0462 67.9952 30.1385 67.7324 30.3232C67.4696 30.5078 67.2637 30.7517 67.1145 31.0547C66.9677 31.3577 66.8932 31.6892 66.8908 32.049V32.3828C66.8908 32.8161 66.9654 33.1948 67.1145 33.5192C67.266 33.8411 67.4803 34.0909 67.7573 34.2685C68.0343 34.446 68.3622 34.5348 68.7409 34.5348C68.999 34.5348 69.2251 34.4946 69.4192 34.4141C69.6157 34.3336 69.7802 34.2259 69.9128 34.0909C70.0478 33.9536 70.1496 33.8033 70.2182 33.6399L70.8184 33.8352C70.7355 34.0649 70.5994 34.2768 70.41 34.4709C70.223 34.665 69.9886 34.8213 69.7069 34.9396C69.4275 35.0556 69.1055 35.1136 68.7409 35.1136ZM77.3072 29.5455V30.0959H74.7042V29.5455H77.3072ZM75.5174 28.2386H76.1531V33.576C76.1531 33.8033 76.1921 33.982 76.2702 34.1122C76.3484 34.2401 76.4502 34.3312 76.5756 34.3857C76.7011 34.4377 76.8349 34.4638 76.9769 34.4638C77.0598 34.4638 77.1308 34.459 77.19 34.4496C77.2492 34.4377 77.3013 34.4259 77.3462 34.4141L77.4812 34.9858C77.4196 35.0095 77.3439 35.0308 77.2539 35.0497C77.1639 35.071 77.0527 35.0817 76.9201 35.0817C76.6881 35.0817 76.4644 35.0308 76.2489 34.929C76.0359 34.8272 75.8607 34.6757 75.7234 34.4744C75.5861 34.2732 75.5174 34.0234 75.5174 33.7251V28.2386ZM79.492 31.5909V35H78.8599V27.7273H79.492V30.4013H79.5488C79.6767 30.1196 79.8743 29.8946 80.1419 29.7266C80.4118 29.5585 80.7527 29.4744 81.1646 29.4744C81.5339 29.4744 81.8583 29.5502 82.1376 29.7017C82.417 29.8532 82.6348 30.0769 82.791 30.3729C82.9473 30.6688 83.0254 31.0334 83.0254 31.4666V35H82.3897V31.5057C82.3897 31.0559 82.2643 30.7019 82.0133 30.4439C81.7647 30.1835 81.4286 30.0533 81.0048 30.0533C80.7136 30.0533 80.4544 30.1148 80.2271 30.2379C79.9998 30.361 79.8199 30.5386 79.6873 30.7706C79.5571 31.0002 79.492 31.2737 79.492 31.5909ZM86.8952 35.1136C86.3862 35.1136 85.9459 34.9953 85.5742 34.7585C85.2025 34.5194 84.9149 34.1892 84.7113 33.7678C84.5101 33.344 84.4094 32.8563 84.4094 32.3047C84.4094 31.7554 84.5101 31.2678 84.7113 30.8416C84.9149 30.4131 85.1954 30.0781 85.5529 29.8366C85.9128 29.5928 86.3282 29.4709 86.7994 29.4709C87.0953 29.4709 87.3806 29.5253 87.6552 29.6342C87.9298 29.7408 88.176 29.9053 88.3938 30.1278C88.614 30.348 88.788 30.6262 88.9158 30.9624C89.0437 31.2962 89.1076 31.6915 89.1076 32.1484V32.4609H84.8462V31.9034H88.4613C88.4613 31.553 88.3903 31.2382 88.2482 30.9588C88.1085 30.6771 87.9132 30.4545 87.6623 30.2912C87.4137 30.1278 87.1261 30.0462 86.7994 30.0462C86.4537 30.0462 86.1495 30.1385 85.8867 30.3232C85.6239 30.5078 85.418 30.7517 85.2688 31.0547C85.122 31.3577 85.0475 31.6892 85.0451 32.049V32.3828C85.0451 32.8161 85.1197 33.1948 85.2688 33.5192C85.4203 33.8411 85.6346 34.0909 85.9116 34.2685C86.1886 34.446 86.5165 34.5348 86.8952 34.5348C87.1533 34.5348 87.3794 34.4946 87.5735 34.4141C87.77 34.3336 87.9345 34.2259 88.0671 34.0909C88.2021 33.9536 88.3039 33.8033 88.3725 33.6399L88.9727 33.8352C88.8898 34.0649 88.7537 34.2768 88.5643 34.4709C88.3772 34.665 88.1429 34.8213 87.8612 34.9396C87.5818 35.0556 87.2598 35.1136 86.8952 35.1136ZM19.9066 47.1136C19.4189 47.1136 18.994 46.9917 18.6317 46.7479C18.2719 46.504 17.9925 46.1702 17.7937 45.7464C17.5948 45.3227 17.4954 44.8397 17.4954 44.2976C17.4954 43.7507 17.596 43.2642 17.7972 42.8381C18.0008 42.4119 18.2826 42.0781 18.6424 41.8366C19.0022 41.5928 19.4201 41.4709 19.896 41.4709C20.2605 41.4709 20.5908 41.5419 20.8867 41.6839C21.1826 41.8236 21.4265 42.0213 21.6183 42.277C21.8124 42.5303 21.9343 42.8262 21.984 43.1648H21.3448C21.2785 42.857 21.1187 42.5942 20.8654 42.3764C20.6145 42.1562 20.2949 42.0462 19.9066 42.0462C19.5586 42.0462 19.2508 42.1409 18.9833 42.3303C18.7158 42.5173 18.5063 42.7789 18.3548 43.1151C18.2056 43.4489 18.131 43.8359 18.131 44.2763C18.131 44.719 18.2044 45.1108 18.3512 45.4517C18.498 45.7902 18.704 46.0554 18.9691 46.2472C19.2366 46.4389 19.5491 46.5348 19.9066 46.5348C20.1481 46.5348 20.3683 46.4898 20.5671 46.3999C20.7683 46.3075 20.9364 46.1773 21.0714 46.0092C21.2087 45.8411 21.301 45.6411 21.3484 45.4091H21.9876C21.9402 45.7382 21.823 46.0317 21.636 46.2898C21.4513 46.5455 21.2111 46.7467 20.9151 46.8935C20.6216 47.0402 20.2854 47.1136 19.9066 47.1136ZM25.4624 47.1136C24.9912 47.1136 24.5746 46.9941 24.2124 46.755C23.8525 46.5159 23.5708 46.1856 23.3672 45.7642C23.1636 45.3404 23.0618 44.8516 23.0618 44.2976C23.0618 43.7389 23.1636 43.2476 23.3672 42.8239C23.5708 42.3977 23.8525 42.0663 24.2124 41.8295C24.5746 41.5904 24.9912 41.4709 25.4624 41.4709C25.9335 41.4709 26.349 41.5904 26.7088 41.8295C27.0687 42.0687 27.3504 42.4001 27.554 42.8239C27.7599 43.2476 27.8629 43.7389 27.8629 44.2976C27.8629 44.8516 27.7611 45.3404 27.5575 45.7642C27.3539 46.1856 27.071 46.5159 26.7088 46.755C26.349 46.9941 25.9335 47.1136 25.4624 47.1136ZM25.4624 46.5348C25.8411 46.5348 26.1619 46.433 26.4247 46.2294C26.6875 46.0258 26.8864 45.7547 27.0213 45.4162C27.1586 45.0777 27.2273 44.7048 27.2273 44.2976C27.2273 43.8904 27.1586 43.5163 27.0213 43.1754C26.8864 42.8345 26.6875 42.5611 26.4247 42.3551C26.1619 42.1491 25.8411 42.0462 25.4624 42.0462C25.0859 42.0462 24.7652 42.1491 24.5 42.3551C24.2372 42.5611 24.0372 42.8345 23.8999 43.1754C23.7649 43.5163 23.6974 43.8904 23.6974 44.2976C23.6974 44.7048 23.7649 45.0777 23.8999 45.4162C24.0372 45.7547 24.2372 46.0258 24.5 46.2294C24.7628 46.433 25.0836 46.5348 25.4624 46.5348ZM32.7164 44.9155V41.5455H33.3485V47H32.7164V46.0945H32.6667C32.5389 46.3738 32.3365 46.607 32.0595 46.794C31.7825 46.9787 31.444 47.071 31.0439 47.071C30.6958 47.071 30.3869 46.9953 30.117 46.8438C29.8471 46.6899 29.6352 46.465 29.4814 46.169C29.3275 45.8731 29.2505 45.5097 29.2505 45.0788V41.5455H29.8826V45.0398C29.8826 45.4659 30.0081 45.8092 30.2591 46.0696C30.51 46.3277 30.832 46.4567 31.225 46.4567C31.4712 46.4567 31.7079 46.3975 31.9352 46.2791C32.1625 46.1607 32.3495 45.9879 32.4963 45.7607C32.6431 45.531 32.7164 45.2493 32.7164 44.9155ZM35.022 47V41.5455H35.6364V42.3835H35.6825C35.7914 42.1089 35.9808 41.8875 36.2507 41.7195C36.523 41.549 36.8307 41.4638 37.174 41.4638C37.2261 41.4638 37.2841 41.465 37.348 41.4673C37.4119 41.4697 37.4652 41.4721 37.5078 41.4744V42.1172C37.4794 42.1125 37.4297 42.1054 37.3587 42.0959C37.2876 42.0864 37.2107 42.0817 37.1278 42.0817C36.8438 42.0817 36.5904 42.142 36.3679 42.2628C36.1477 42.3812 35.9737 42.5457 35.8459 42.7564C35.718 42.9671 35.6541 43.2074 35.6541 43.4773V47H35.022ZM42.2512 42.7422L41.6724 42.9055C41.6156 42.7422 41.5351 42.5942 41.4309 42.4616C41.3268 42.3291 41.1906 42.2237 41.0225 42.1456C40.8568 42.0675 40.6509 42.0284 40.4047 42.0284C40.0353 42.0284 39.7323 42.116 39.4956 42.2912C39.2588 42.4664 39.1404 42.6925 39.1404 42.9695C39.1404 43.2038 39.2209 43.3944 39.3819 43.5412C39.5453 43.6856 39.7962 43.8004 40.1348 43.8857L40.9586 44.0881C41.4155 44.1993 41.7576 44.3757 41.9849 44.6172C42.2145 44.8587 42.3294 45.1617 42.3294 45.5263C42.3294 45.834 42.2441 46.1075 42.0737 46.3466C41.9032 46.5857 41.6653 46.7739 41.3599 46.9112C41.0569 47.0462 40.7053 47.1136 40.3052 47.1136C39.7725 47.1136 39.3334 46.9941 38.9877 46.755C38.6421 46.5135 38.4208 46.1655 38.3237 45.7109L38.9309 45.5618C39.0091 45.8861 39.1618 46.1312 39.389 46.2969C39.6187 46.4626 39.9205 46.5455 40.2946 46.5455C40.7136 46.5455 41.0486 46.4519 41.2995 46.2649C41.5505 46.0755 41.676 45.8388 41.676 45.5547C41.676 45.3345 41.6026 45.1499 41.4558 45.0007C41.309 44.8492 41.0865 44.7379 40.7882 44.6669L39.8968 44.4538C39.4234 44.3402 39.073 44.1603 38.8457 43.9141C38.6184 43.6679 38.5048 43.3625 38.5048 42.9979C38.5048 42.6972 38.5865 42.4332 38.7498 42.206C38.9132 41.9763 39.1381 41.7964 39.4245 41.6662C39.711 41.536 40.0377 41.4709 40.4047 41.4709C40.9042 41.4709 41.3031 41.5845 41.6014 41.8118C41.902 42.0367 42.1187 42.3468 42.2512 42.7422ZM45.9187 47.1136C45.4097 47.1136 44.9693 46.9953 44.5977 46.7585C44.226 46.5194 43.9383 46.1892 43.7347 45.7678C43.5335 45.344 43.4329 44.8563 43.4329 44.3047C43.4329 43.7554 43.5335 43.2678 43.7347 42.8416C43.9383 42.4131 44.2189 42.0781 44.5763 41.8366C44.9362 41.5928 45.3517 41.4709 45.8228 41.4709C46.1187 41.4709 46.404 41.5253 46.6786 41.6342C46.9532 41.7408 47.1995 41.9053 47.4173 42.1278C47.6374 42.348 47.8114 42.6262 47.9393 42.9624C48.0671 43.2962 48.131 43.6915 48.131 44.1484V44.4609H43.8697V43.9034H47.4847C47.4847 43.553 47.4137 43.2382 47.2717 42.9588C47.132 42.6771 46.9367 42.4545 46.6857 42.2912C46.4371 42.1278 46.1495 42.0462 45.8228 42.0462C45.4772 42.0462 45.1729 42.1385 44.9102 42.3232C44.6474 42.5078 44.4414 42.7517 44.2923 43.0547C44.1455 43.3577 44.0709 43.6892 44.0685 44.049V44.3828C44.0685 44.8161 44.1431 45.1948 44.2923 45.5192C44.4438 45.8411 44.658 46.0909 44.935 46.2685C45.212 46.446 45.5399 46.5348 45.9187 46.5348C46.1767 46.5348 46.4028 46.4946 46.5969 46.4141C46.7934 46.3336 46.958 46.2259 47.0906 46.0909C47.2255 45.9536 47.3273 45.8033 47.396 45.6399L47.9961 45.8352C47.9132 46.0649 47.7771 46.2768 47.5877 46.4709C47.4007 46.665 47.1663 46.8213 46.8846 46.9396C46.6052 47.0556 46.2833 47.1136 45.9187 47.1136ZM52.3436 47V41.5455H52.9792V47H52.3436ZM52.6667 40.608C52.5365 40.608 52.4252 40.5642 52.3329 40.4766C52.2406 40.3866 52.1944 40.2789 52.1944 40.1534C52.1944 40.0279 52.2406 39.9214 52.3329 39.8338C52.4252 39.7438 52.5365 39.6989 52.6667 39.6989C52.7969 39.6989 52.9082 39.7438 53.0005 39.8338C53.0929 39.9214 53.139 40.0279 53.139 40.1534C53.139 40.2789 53.0929 40.3866 53.0005 40.4766C52.9082 40.5642 52.7969 40.608 52.6667 40.608ZM55.283 43.5909V47H54.6509V41.5455H55.2653V42.4013H55.3221C55.4499 42.1219 55.6488 41.8982 55.9187 41.7301C56.1909 41.5597 56.5271 41.4744 56.9272 41.4744C57.2942 41.4744 57.6161 41.5514 57.8931 41.7053C58.1725 41.8568 58.3891 42.0805 58.543 42.3764C58.6992 42.6723 58.7773 43.0357 58.7773 43.4666V47H58.1452V43.5057C58.1452 43.0582 58.0198 42.7043 57.7688 42.4439C57.5202 42.1835 57.1864 42.0533 56.7674 42.0533C56.4809 42.0533 56.2264 42.1148 56.0039 42.2379C55.7814 42.361 55.605 42.5386 55.4748 42.7706C55.3469 43.0002 55.283 43.2737 55.283 43.5909ZM63.2544 47V41.5455H63.8688V42.3835H63.9256C64.0345 42.1018 64.2156 41.8804 64.4689 41.7195C64.7246 41.5561 65.0312 41.4744 65.3887 41.4744C65.7651 41.4744 66.074 41.5632 66.3155 41.7408C66.5594 41.916 66.7417 42.1574 66.8624 42.4652H66.9086C67.0317 42.1622 67.2317 41.9219 67.5087 41.7443C67.7881 41.5644 68.1266 41.4744 68.5243 41.4744C69.031 41.4744 69.431 41.6342 69.7246 41.9538C70.0182 42.2711 70.165 42.7351 70.165 43.3459V47H69.5328V43.3459C69.5328 42.915 69.4228 42.5919 69.2026 42.3764C68.9824 42.161 68.6924 42.0533 68.3326 42.0533C67.9159 42.0533 67.5951 42.1811 67.3702 42.4368C67.1453 42.6925 67.0328 43.0168 67.0328 43.4098V47H66.3865V43.2891C66.3865 42.9197 66.2836 42.6214 66.0776 42.3942C65.8716 42.1669 65.5816 42.0533 65.2076 42.0533C64.9566 42.0533 64.7305 42.1148 64.5293 42.2379C64.3304 42.361 64.173 42.5327 64.057 42.7528C63.9434 42.9706 63.8865 43.2216 63.8865 43.5057V47H63.2544ZM73.9585 47.1136C73.4873 47.1136 73.0707 46.9941 72.7085 46.755C72.3486 46.5159 72.0669 46.1856 71.8633 45.7642C71.6597 45.3404 71.5579 44.8516 71.5579 44.2976C71.5579 43.7389 71.6597 43.2476 71.8633 42.8239C72.0669 42.3977 72.3486 42.0663 72.7085 41.8295C73.0707 41.5904 73.4873 41.4709 73.9585 41.4709C74.4296 41.4709 74.8451 41.5904 75.2049 41.8295C75.5647 42.0687 75.8465 42.4001 76.0501 42.8239C76.256 43.2476 76.359 43.7389 76.359 44.2976C76.359 44.8516 76.2572 45.3404 76.0536 45.7642C75.85 46.1856 75.5671 46.5159 75.2049 46.755C74.8451 46.9941 74.4296 47.1136 73.9585 47.1136ZM73.9585 46.5348C74.3372 46.5348 74.658 46.433 74.9208 46.2294C75.1836 46.0258 75.3825 45.7547 75.5174 45.4162C75.6547 45.0777 75.7234 44.7048 75.7234 44.2976C75.7234 43.8904 75.6547 43.5163 75.5174 43.1754C75.3825 42.8345 75.1836 42.5611 74.9208 42.3551C74.658 42.1491 74.3372 42.0462 73.9585 42.0462C73.582 42.0462 73.2612 42.1491 72.9961 42.3551C72.7333 42.5611 72.5333 42.8345 72.396 43.1754C72.261 43.5163 72.1935 43.8904 72.1935 44.2976C72.1935 44.7048 72.261 45.0777 72.396 45.4162C72.5333 45.7547 72.7333 46.0258 72.9961 46.2294C73.2589 46.433 73.5797 46.5348 73.9585 46.5348ZM79.7104 47.1136C79.263 47.1136 78.8712 46.9953 78.535 46.7585C78.1988 46.5218 77.936 46.1915 77.7466 45.7678C77.5596 45.344 77.4661 44.8504 77.4661 44.2869C77.4661 43.7259 77.5596 43.2346 77.7466 42.8132C77.936 42.3894 78.2 42.0604 78.5385 41.826C78.8771 41.5893 79.2712 41.4709 79.7211 41.4709C80.0525 41.4709 80.3283 41.5301 80.5485 41.6484C80.7686 41.7644 80.945 41.9089 81.0776 42.0817C81.2102 42.2545 81.3132 42.4226 81.3865 42.5859H81.4434V39.7273H82.079V47H81.4611V45.9879H81.3865C81.3132 46.1536 81.209 46.3241 81.074 46.4993C80.9391 46.6721 80.7604 46.8177 80.5378 46.9361C80.3176 47.0545 80.0418 47.1136 79.7104 47.1136ZM79.785 46.5348C80.1377 46.5348 80.4384 46.4389 80.687 46.2472C80.9355 46.053 81.1249 45.7867 81.2551 45.4482C81.3877 45.1072 81.454 44.7166 81.454 44.2763C81.454 43.8407 81.3889 43.456 81.2587 43.1222C81.1285 42.786 80.9391 42.5232 80.6905 42.3338C80.4419 42.142 80.1401 42.0462 79.785 42.0462C79.4204 42.0462 79.1126 42.1456 78.8617 42.3445C78.6131 42.541 78.4237 42.8073 78.2935 43.1435C78.1657 43.4796 78.1017 43.8572 78.1017 44.2763C78.1017 44.7 78.1668 45.0824 78.2971 45.4233C78.4273 45.7642 78.6167 46.0353 78.8652 46.2365C79.1162 46.4354 79.4228 46.5348 79.785 46.5348ZM87.3453 44.9155V41.5455H87.9775V47H87.3453V46.0945H87.2956C87.1678 46.3738 86.9654 46.607 86.6884 46.794C86.4114 46.9787 86.0729 47.071 85.6728 47.071C85.3248 47.071 85.0158 46.9953 84.7459 46.8438C84.476 46.6899 84.2641 46.465 84.1103 46.169C83.9564 45.8731 83.8794 45.5097 83.8794 45.0788V41.5455H84.5115V45.0398C84.5115 45.4659 84.637 45.8092 84.888 46.0696C85.1389 46.3277 85.4609 46.4567 85.8539 46.4567C86.1001 46.4567 86.3368 46.3975 86.5641 46.2791C86.7914 46.1607 86.9784 45.9879 87.1252 45.7607C87.272 45.531 87.3453 45.2493 87.3453 44.9155ZM90.283 39.7273V47H89.6509V39.7273H90.283ZM94.1609 47.1136C93.6519 47.1136 93.2115 46.9953 92.8398 46.7585C92.4682 46.5194 92.1805 46.1892 91.9769 45.7678C91.7757 45.344 91.6751 44.8563 91.6751 44.3047C91.6751 43.7554 91.7757 43.2678 91.9769 42.8416C92.1805 42.4131 92.4611 42.0781 92.8185 41.8366C93.1784 41.5928 93.5939 41.4709 94.065 41.4709C94.3609 41.4709 94.6462 41.5253 94.9208 41.6342C95.1954 41.7408 95.4416 41.9053 95.6594 42.1278C95.8796 42.348 96.0536 42.6262 96.1815 42.9624C96.3093 43.2962 96.3732 43.6915 96.3732 44.1484V44.4609H92.1119V43.9034H95.7269C95.7269 43.553 95.6559 43.2382 95.5138 42.9588C95.3742 42.6771 95.1789 42.4545 94.9279 42.2912C94.6793 42.1278 94.3917 42.0462 94.065 42.0462C93.7193 42.0462 93.4151 42.1385 93.1523 42.3232C92.8896 42.5078 92.6836 42.7517 92.5344 43.0547C92.3877 43.3577 92.3131 43.6892 92.3107 44.049V44.3828C92.3107 44.8161 92.3853 45.1948 92.5344 45.5192C92.686 45.8411 92.9002 46.0909 93.1772 46.2685C93.4542 46.446 93.7821 46.5348 94.1609 46.5348C94.4189 46.5348 94.645 46.4946 94.8391 46.4141C95.0356 46.3336 95.2002 46.2259 95.3327 46.0909C95.4677 45.9536 95.5695 45.8033 95.6381 45.6399L96.2383 45.8352C96.1554 46.0649 96.0193 46.2768 95.8299 46.4709C95.6429 46.665 95.4085 46.8213 95.1268 46.9396C94.8474 47.0556 94.5254 47.1136 94.1609 47.1136ZM101.431 42.7422L100.852 42.9055C100.795 42.7422 100.715 42.5942 100.611 42.4616C100.506 42.3291 100.37 42.2237 100.202 42.1456C100.037 42.0675 99.8306 42.0284 99.5843 42.0284C99.215 42.0284 98.912 42.116 98.6752 42.2912C98.4385 42.4664 98.3201 42.6925 98.3201 42.9695C98.3201 43.2038 98.4006 43.3944 98.5616 43.5412C98.725 43.6856 98.9759 43.8004 99.3145 43.8857L100.138 44.0881C100.595 44.1993 100.937 44.3757 101.165 44.6172C101.394 44.8587 101.509 45.1617 101.509 45.5263C101.509 45.834 101.424 46.1075 101.253 46.3466C101.083 46.5857 100.845 46.7739 100.54 46.9112C100.237 47.0462 99.885 47.1136 99.4849 47.1136C98.9522 47.1136 98.5131 46.9941 98.1674 46.755C97.8218 46.5135 97.6004 46.1655 97.5034 45.7109L98.1106 45.5618C98.1887 45.8861 98.3414 46.1312 98.5687 46.2969C98.7984 46.4626 99.1002 46.5455 99.4743 46.5455C99.8933 46.5455 100.228 46.4519 100.479 46.2649C100.73 46.0755 100.856 45.8388 100.856 45.5547C100.856 45.3345 100.782 45.1499 100.635 45.0007C100.489 44.8492 100.266 44.7379 99.9679 44.6669L99.0765 44.4538C98.603 44.3402 98.2527 44.1603 98.0254 43.9141C97.7981 43.6679 97.6845 43.3625 97.6845 42.9979C97.6845 42.6972 97.7662 42.4332 97.9295 42.206C98.0929 41.9763 98.3178 41.7964 98.6042 41.6662C98.8907 41.536 99.2174 41.4709 99.5843 41.4709C100.084 41.4709 100.483 41.5845 100.781 41.8118C101.082 42.0367 101.298 42.3468 101.431 42.7422ZM29.2936 55.9318C29.2936 55.0795 29.4013 54.2746 29.6167 53.517C29.8322 52.7595 30.1411 52.0492 30.5436 51.3864H31.1189C30.9461 51.6657 30.7874 51.9818 30.643 52.3345C30.501 52.6873 30.3779 53.0637 30.2737 53.4638C30.1695 53.8639 30.089 54.2734 30.0322 54.6925C29.9754 55.1091 29.947 55.5223 29.947 55.9318C29.947 56.4787 29.9967 57.0303 30.0961 57.5866C30.1956 58.143 30.3329 58.6709 30.5081 59.1705C30.6856 59.67 30.8892 60.1056 31.1189 60.4773H30.5436C30.1411 59.812 29.8322 59.1006 29.6167 58.343C29.4013 57.5855 29.2936 56.7817 29.2936 55.9318ZM34.646 53.5455V54.0959H32.0431V53.5455H34.646ZM32.8563 52.2386H33.4919V57.576C33.4919 57.8033 33.531 57.982 33.6091 58.1122C33.6872 58.2401 33.789 58.3312 33.9145 58.3857C34.04 58.4377 34.1737 58.4638 34.3158 58.4638C34.3986 58.4638 34.4697 58.459 34.5289 58.4496C34.588 58.4377 34.6401 58.4259 34.6851 58.4141L34.82 58.9858C34.7585 59.0095 34.6827 59.0308 34.5928 59.0497C34.5028 59.071 34.3915 59.0817 34.259 59.0817C34.027 59.0817 33.8032 59.0308 33.5878 58.929C33.3747 58.8272 33.1995 58.6757 33.0622 58.4744C32.9249 58.2732 32.8563 58.0234 32.8563 57.7251V52.2386ZM38.143 59.1136C37.6719 59.1136 37.2552 58.9941 36.893 58.755C36.5332 58.5159 36.2515 58.1856 36.0479 57.7642C35.8443 57.3404 35.7425 56.8516 35.7425 56.2976C35.7425 55.7389 35.8443 55.2476 36.0479 54.8239C36.2515 54.3977 36.5332 54.0663 36.893 53.8295C37.2552 53.5904 37.6719 53.4709 38.143 53.4709C38.6141 53.4709 39.0296 53.5904 39.3895 53.8295C39.7493 54.0687 40.031 54.4001 40.2346 54.8239C40.4406 55.2476 40.5436 55.7389 40.5436 56.2976C40.5436 56.8516 40.4418 57.3404 40.2382 57.7642C40.0346 58.1856 39.7517 58.5159 39.3895 58.755C39.0296 58.9941 38.6141 59.1136 38.143 59.1136ZM38.143 58.5348C38.5218 58.5348 38.8426 58.433 39.1054 58.2294C39.3682 58.0258 39.567 57.7547 39.702 57.4162C39.8393 57.0777 39.9079 56.7048 39.9079 56.2976C39.9079 55.8904 39.8393 55.5163 39.702 55.1754C39.567 54.8345 39.3682 54.5611 39.1054 54.3551C38.8426 54.1491 38.5218 54.0462 38.143 54.0462C37.7666 54.0462 37.4458 54.1491 37.1807 54.3551C36.9179 54.5611 36.7178 54.8345 36.5805 55.1754C36.4456 55.5163 36.3781 55.8904 36.3781 56.2976C36.3781 56.7048 36.4456 57.0777 36.5805 57.4162C36.7178 57.7547 36.9179 58.0258 37.1807 58.2294C37.4434 58.433 37.7642 58.5348 38.143 58.5348ZM48.4085 54.7422L47.8296 54.9055C47.7728 54.7422 47.6923 54.5942 47.5882 54.4616C47.484 54.3291 47.3479 54.2237 47.1798 54.1456C47.0141 54.0675 46.8081 54.0284 46.5619 54.0284C46.1926 54.0284 45.8895 54.116 45.6528 54.2912C45.416 54.4664 45.2977 54.6925 45.2977 54.9695C45.2977 55.2038 45.3782 55.3944 45.5392 55.5412C45.7025 55.6856 45.9535 55.8004 46.292 55.8857L47.1159 56.0881C47.5728 56.1993 47.9149 56.3757 48.1421 56.6172C48.3718 56.8587 48.4866 57.1617 48.4866 57.5263C48.4866 57.834 48.4014 58.1075 48.2309 58.3466C48.0605 58.5857 47.8225 58.7739 47.5171 58.9112C47.2141 59.0462 46.8625 59.1136 46.4624 59.1136C45.9298 59.1136 45.4906 58.9941 45.145 58.755C44.7993 58.5135 44.578 58.1655 44.4809 57.7109L45.0882 57.5618C45.1663 57.8861 45.319 58.1312 45.5463 58.2969C45.7759 58.4626 46.0777 58.5455 46.4518 58.5455C46.8708 58.5455 47.2058 58.4519 47.4568 58.2649C47.7077 58.0755 47.8332 57.8388 47.8332 57.5547C47.8332 57.3345 47.7598 57.1499 47.613 57.0007C47.4662 56.8492 47.2437 56.7379 46.9454 56.6669L46.0541 56.4538C45.5806 56.3402 45.2302 56.1603 45.0029 55.9141C44.7757 55.6679 44.662 55.3625 44.662 54.9979C44.662 54.6972 44.7437 54.4332 44.907 54.206C45.0704 53.9763 45.2953 53.7964 45.5818 53.6662C45.8682 53.536 46.1949 53.4709 46.5619 53.4709C47.0614 53.4709 47.4603 53.5845 47.7586 53.8118C48.0593 54.0367 48.2759 54.3468 48.4085 54.7422ZM52.0759 59.1136C51.5669 59.1136 51.1266 58.9953 50.7549 58.7585C50.3832 58.5194 50.0956 58.1892 49.892 57.7678C49.6907 57.344 49.5901 56.8563 49.5901 56.3047C49.5901 55.7554 49.6907 55.2678 49.892 54.8416C50.0956 54.4131 50.3761 54.0781 50.7336 53.8366C51.0934 53.5928 51.5089 53.4709 51.98 53.4709C52.276 53.4709 52.5612 53.5253 52.8358 53.6342C53.1105 53.7408 53.3567 53.9053 53.5745 54.1278C53.7947 54.348 53.9687 54.6262 54.0965 54.9624C54.2243 55.2962 54.2883 55.6915 54.2883 56.1484V56.4609H50.0269V55.9034H53.642C53.642 55.553 53.5709 55.2382 53.4289 54.9588C53.2892 54.6771 53.0939 54.4545 52.843 54.2912C52.5944 54.1278 52.3067 54.0462 51.98 54.0462C51.6344 54.0462 51.3302 54.1385 51.0674 54.3232C50.8046 54.5078 50.5986 54.7517 50.4495 55.0547C50.3027 55.3577 50.2281 55.6892 50.2258 56.049V56.3828C50.2258 56.8161 50.3003 57.1948 50.4495 57.5192C50.601 57.8411 50.8153 58.0909 51.0922 58.2685C51.3692 58.446 51.6971 58.5348 52.0759 58.5348C52.334 58.5348 52.56 58.4946 52.7542 58.4141C52.9507 58.3336 53.1152 58.2259 53.2478 58.0909C53.3827 57.9536 53.4845 57.8033 53.5532 57.6399L54.1533 57.8352C54.0705 58.0649 53.9343 58.2768 53.7449 58.4709C53.5579 58.665 53.3235 58.8213 53.0418 58.9396C52.7625 59.0556 52.4405 59.1136 52.0759 59.1136ZM56.3133 51.7273V59H55.6812V51.7273H56.3133ZM58.618 51.7273V59H57.9859V51.7273H58.618ZM61.3879 56.9155V56.7237C61.3902 56.3497 61.4317 56.0455 61.5122 55.8111C61.5927 55.5767 61.711 55.379 61.8673 55.218C62.0259 55.0547 62.2224 54.8984 62.4568 54.7493C62.632 54.6357 62.7787 54.5161 62.8971 54.3906C63.0178 54.2628 63.109 54.1231 63.1705 53.9716C63.2345 53.8177 63.2664 53.6508 63.2664 53.4709C63.2664 53.2152 63.2061 52.9915 63.0853 52.7997C62.9669 52.608 62.806 52.46 62.6024 52.3558C62.3988 52.2493 62.1727 52.196 61.9241 52.196C61.6874 52.196 61.466 52.2481 61.26 52.3523C61.0564 52.4541 60.8895 52.6056 60.7593 52.8068C60.6315 53.0057 60.5616 53.2519 60.5498 53.5455H59.8786C59.8905 53.1548 59.9875 52.8163 60.1698 52.5298C60.3521 52.2434 60.596 52.022 60.9014 51.8658C61.2068 51.7071 61.5477 51.6278 61.9241 51.6278C62.3171 51.6278 62.6627 51.7095 62.961 51.8729C63.2593 52.0339 63.4925 52.2552 63.6606 52.5369C63.8287 52.8163 63.9127 53.1371 63.9127 53.4993C63.9127 53.7384 63.8749 53.9562 63.7991 54.1527C63.7233 54.3492 63.6097 54.5303 63.4582 54.696C63.309 54.8617 63.122 55.018 62.8971 55.1648C62.684 55.3068 62.5148 55.4477 62.3893 55.5874C62.2638 55.727 62.1739 55.8868 62.1194 56.0668C62.065 56.2443 62.0354 56.4633 62.0306 56.7237V56.9155H61.3879ZM61.7288 59.0533C61.5891 59.0533 61.4684 59.0036 61.3666 58.9041C61.2671 58.8023 61.2174 58.6816 61.2174 58.5419C61.2174 58.3999 61.2671 58.2791 61.3666 58.1797C61.4684 58.0803 61.5891 58.0305 61.7288 58.0305C61.8685 58.0305 61.988 58.0803 62.0874 58.1797C62.1892 58.2791 62.2401 58.3999 62.2401 58.5419C62.2401 58.6342 62.2165 58.7195 62.1691 58.7976C62.1241 58.8757 62.0626 58.9384 61.9845 58.9858C61.9087 59.0308 61.8235 59.0533 61.7288 59.0533ZM66.7954 55.3636C66.7954 56.2159 66.6876 57.0208 66.4722 57.7784C66.2568 58.536 65.9478 59.2462 65.5454 59.9091H64.9701C65.1429 59.6297 65.3003 59.3137 65.4424 58.9609C65.5868 58.6082 65.7111 58.2318 65.8153 57.8317C65.9194 57.4316 65.9999 57.022 66.0567 56.603C66.1135 56.1839 66.142 55.7708 66.142 55.3636C66.142 54.8168 66.0922 54.2652 65.9928 53.7088C65.8934 53.1525 65.7549 52.6245 65.5773 52.125C65.4021 51.6255 65.1997 51.1899 64.9701 50.8182H65.5454C65.9478 51.4834 66.2568 52.1948 66.4722 52.9524C66.6876 53.71 66.7954 54.5137 66.7954 55.3636ZM74.4845 55.0653V55.6619H71.4589V55.0653H74.4845ZM81.1286 53.5455V54.0959H78.4475V53.5455H81.1286ZM79.2856 59V52.7464C79.2856 52.4529 79.3531 52.2055 79.488 52.0043C79.6253 51.803 79.8041 51.6503 80.0242 51.5462C80.2444 51.442 80.4776 51.3899 80.7238 51.3899C80.8895 51.3899 81.0268 51.4041 81.1357 51.4325C81.247 51.4586 81.3346 51.4846 81.3985 51.5107L81.2139 52.0646C81.1665 52.0504 81.1085 52.0339 81.0399 52.0149C80.9712 51.996 80.8848 51.9865 80.7806 51.9865C80.506 51.9865 80.2941 52.0634 80.145 52.2173C79.9958 52.3712 79.9213 52.5914 79.9213 52.8778L79.9177 59H79.2856ZM84.2856 59.1136C83.8145 59.1136 83.3978 58.9941 83.0356 58.755C82.6758 58.5159 82.394 58.1856 82.1904 57.7642C81.9868 57.3404 81.885 56.8516 81.885 56.2976C81.885 55.7389 81.9868 55.2476 82.1904 54.8239C82.394 54.3977 82.6758 54.0663 83.0356 53.8295C83.3978 53.5904 83.8145 53.4709 84.2856 53.4709C84.7567 53.4709 85.1722 53.5904 85.532 53.8295C85.8919 54.0687 86.1736 54.4001 86.3772 54.8239C86.5832 55.2476 86.6862 55.7389 86.6862 56.2976C86.6862 56.8516 86.5844 57.3404 86.3808 57.7642C86.1772 58.1856 85.8943 58.5159 85.532 58.755C85.1722 58.9941 84.7567 59.1136 84.2856 59.1136ZM84.2856 58.5348C84.6644 58.5348 84.9852 58.433 85.248 58.2294C85.5107 58.0258 85.7096 57.7547 85.8445 57.4162C85.9819 57.0777 86.0505 56.7048 86.0505 56.2976C86.0505 55.8904 85.9819 55.5163 85.8445 55.1754C85.7096 54.8345 85.5107 54.5611 85.248 54.3551C84.9852 54.1491 84.6644 54.0462 84.2856 54.0462C83.9092 54.0462 83.5884 54.1491 83.3232 54.3551C83.0605 54.5611 82.8604 54.8345 82.7231 55.1754C82.5882 55.5163 82.5207 55.8904 82.5207 56.2976C82.5207 56.7048 82.5882 57.0777 82.7231 57.4162C82.8604 57.7547 83.0605 58.0258 83.3232 58.2294C83.586 58.433 83.9068 58.5348 84.2856 58.5348ZM88.0738 59V53.5455H88.6881V54.3835H88.7343C88.8432 54.1089 89.0326 53.8875 89.3025 53.7195C89.5747 53.549 89.8825 53.4638 90.2258 53.4638C90.2778 53.4638 90.3358 53.465 90.3998 53.4673C90.4637 53.4697 90.517 53.4721 90.5596 53.4744V54.1172C90.5312 54.1125 90.4814 54.1054 90.4104 54.0959C90.3394 54.0864 90.2625 54.0817 90.1796 54.0817C89.8955 54.0817 89.6422 54.142 89.4197 54.2628C89.1995 54.3812 89.0255 54.5457 88.8976 54.7564C88.7698 54.9671 88.7059 55.2074 88.7059 55.4773V59H88.0738ZM19.397 65.5455V66.0959H16.794V65.5455H19.397ZM17.6072 64.2386H18.2429V69.576C18.2429 69.8033 18.282 69.982 18.3601 70.1122C18.4382 70.2401 18.54 70.3312 18.6655 70.3857C18.791 70.4377 18.9247 70.4638 19.0668 70.4638C19.1496 70.4638 19.2206 70.459 19.2798 70.4496C19.339 70.4377 19.3911 70.4259 19.4361 70.4141L19.571 70.9858C19.5095 71.0095 19.4337 71.0308 19.3438 71.0497C19.2538 71.071 19.1425 71.0817 19.0099 71.0817C18.7779 71.0817 18.5542 71.0308 18.3388 70.929C18.1257 70.8272 17.9505 70.6757 17.8132 70.4744C17.6759 70.2732 17.6072 70.0234 17.6072 69.7251V64.2386ZM21.5819 67.5909V71H20.9498V63.7273H21.5819V66.4013H21.6387C21.7665 66.1196 21.9642 65.8946 22.2317 65.7266C22.5016 65.5585 22.8425 65.4744 23.2544 65.4744C23.6238 65.4744 23.9481 65.5502 24.2275 65.7017C24.5068 65.8532 24.7246 66.0769 24.8809 66.3729C25.0371 66.6688 25.1152 67.0334 25.1152 67.4666V71H24.4796V67.5057C24.4796 67.0559 24.3541 66.7019 24.1032 66.4439C23.8546 66.1835 23.5184 66.0533 23.0946 66.0533C22.8034 66.0533 22.5442 66.1148 22.3169 66.2379C22.0897 66.361 21.9097 66.5386 21.7772 66.7706C21.647 67.0002 21.5819 67.2737 21.5819 67.5909ZM28.8999 71.1136C28.4287 71.1136 28.0121 70.9941 27.6499 70.755C27.29 70.5159 27.0083 70.1856 26.8047 69.7642C26.6011 69.3404 26.4993 68.8516 26.4993 68.2976C26.4993 67.7389 26.6011 67.2476 26.8047 66.8239C27.0083 66.3977 27.29 66.0663 27.6499 65.8295C28.0121 65.5904 28.4287 65.4709 28.8999 65.4709C29.371 65.4709 29.7865 65.5904 30.1463 65.8295C30.5062 66.0687 30.7879 66.4001 30.9915 66.8239C31.1974 67.2476 31.3004 67.7389 31.3004 68.2976C31.3004 68.8516 31.1986 69.3404 30.995 69.7642C30.7914 70.1856 30.5085 70.5159 30.1463 70.755C29.7865 70.9941 29.371 71.1136 28.8999 71.1136ZM28.8999 70.5348C29.2786 70.5348 29.5994 70.433 29.8622 70.2294C30.125 70.0258 30.3239 69.7547 30.4588 69.4162C30.5961 69.0777 30.6648 68.7048 30.6648 68.2976C30.6648 67.8904 30.5961 67.5163 30.4588 67.1754C30.3239 66.8345 30.125 66.5611 29.8622 66.3551C29.5994 66.1491 29.2786 66.0462 28.8999 66.0462C28.5234 66.0462 28.2027 66.1491 27.9375 66.3551C27.6747 66.5611 27.4747 66.8345 27.3374 67.1754C27.2024 67.5163 27.1349 67.8904 27.1349 68.2976C27.1349 68.7048 27.2024 69.0777 27.3374 69.4162C27.4747 69.7547 27.6747 70.0258 27.9375 70.2294C28.2003 70.433 28.5211 70.5348 28.8999 70.5348ZM36.3528 66.7422L35.774 66.9055C35.7172 66.7422 35.6367 66.5942 35.5325 66.4616C35.4283 66.3291 35.2922 66.2237 35.1241 66.1456C34.9584 66.0675 34.7524 66.0284 34.5062 66.0284C34.1369 66.0284 33.8339 66.116 33.5971 66.2912C33.3604 66.4664 33.242 66.6925 33.242 66.9695C33.242 67.2038 33.3225 67.3944 33.4835 67.5412C33.6468 67.6856 33.8978 67.8004 34.2363 67.8857L35.0602 68.0881C35.5171 68.1993 35.8592 68.3757 36.0865 68.6172C36.3161 68.8587 36.4309 69.1617 36.4309 69.5263C36.4309 69.834 36.3457 70.1075 36.1752 70.3466C36.0048 70.5857 35.7669 70.7739 35.4615 70.9112C35.1584 71.0462 34.8069 71.1136 34.4068 71.1136C33.8741 71.1136 33.435 70.9941 33.0893 70.755C32.7437 70.5135 32.5223 70.1655 32.4252 69.7109L33.0325 69.5618C33.1106 69.8861 33.2633 70.1312 33.4906 70.2969C33.7202 70.4626 34.0221 70.5455 34.3961 70.5455C34.8152 70.5455 35.1502 70.4519 35.4011 70.2649C35.652 70.0755 35.7775 69.8388 35.7775 69.5547C35.7775 69.3345 35.7041 69.1499 35.5574 69.0007C35.4106 68.8492 35.188 68.7379 34.8897 68.6669L33.9984 68.4538C33.5249 68.3402 33.1745 68.1603 32.9473 67.9141C32.72 67.6679 32.6064 67.3625 32.6064 66.9979C32.6064 66.6972 32.688 66.4332 32.8514 66.206C33.0147 65.9763 33.2396 65.7964 33.5261 65.6662C33.8126 65.536 34.1393 65.4709 34.5062 65.4709C35.0057 65.4709 35.4047 65.5845 35.7029 65.8118C36.0036 66.0367 36.2202 66.3468 36.3528 66.7422ZM40.0202 71.1136C39.5112 71.1136 39.0709 70.9953 38.6992 70.7585C38.3275 70.5194 38.0399 70.1892 37.8363 69.7678C37.6351 69.344 37.5344 68.8563 37.5344 68.3047C37.5344 67.7554 37.6351 67.2678 37.8363 66.8416C38.0399 66.4131 38.3204 66.0781 38.6779 65.8366C39.0378 65.5928 39.4532 65.4709 39.9244 65.4709C40.2203 65.4709 40.5056 65.5253 40.7802 65.6342C41.0548 65.7408 41.301 65.9053 41.5188 66.1278C41.739 66.348 41.913 66.6262 42.0408 66.9624C42.1687 67.2962 42.2326 67.6915 42.2326 68.1484V68.4609H37.9712V67.9034H41.5863C41.5863 67.553 41.5153 67.2382 41.3732 66.9588C41.2335 66.6771 41.0382 66.4545 40.7873 66.2912C40.5387 66.1278 40.2511 66.0462 39.9244 66.0462C39.5787 66.0462 39.2745 66.1385 39.0117 66.3232C38.7489 66.5078 38.543 66.7517 38.3938 67.0547C38.247 67.3577 38.1725 67.6892 38.1701 68.049V68.3828C38.1701 68.8161 38.2447 69.1948 38.3938 69.5192C38.5453 69.8411 38.7596 70.0909 39.0366 70.2685C39.3136 70.446 39.6415 70.5348 40.0202 70.5348C40.2783 70.5348 40.5044 70.4946 40.6985 70.4141C40.895 70.3336 41.0595 70.2259 41.1921 70.0909C41.3271 69.9536 41.4289 69.8033 41.4975 69.6399L42.0977 69.8352C42.0148 70.0649 41.8787 70.2768 41.6893 70.4709C41.5022 70.665 41.2679 70.8213 40.9862 70.9396C40.7068 71.0556 40.3848 71.1136 40.0202 71.1136ZM47.649 71L46.0012 65.5455H46.6689L47.9615 70.0447H48.0076L49.2967 65.5455H49.9679L51.2463 70.0341H51.296L52.5886 65.5455H53.2562L51.6085 71H50.9551L49.6625 66.5291H49.595L48.3024 71H47.649ZM55.117 67.5909V71H54.4849V63.7273H55.117V66.4013H55.1738C55.3017 66.1196 55.4993 65.8946 55.7669 65.7266C56.0368 65.5585 56.3777 65.4744 56.7896 65.4744C57.1589 65.4744 57.4833 65.5502 57.7626 65.7017C58.042 65.8532 58.2598 66.0769 58.416 66.3729C58.5723 66.6688 58.6504 67.0334 58.6504 67.4666V71H58.0147V67.5057C58.0147 67.0559 57.8893 66.7019 57.6383 66.4439C57.3897 66.1835 57.0536 66.0533 56.6298 66.0533C56.3386 66.0533 56.0794 66.1148 55.8521 66.2379C55.6248 66.361 55.4449 66.5386 55.3123 66.7706C55.1821 67.0002 55.117 67.2737 55.117 67.5909ZM62.435 71.1136C61.9639 71.1136 61.5472 70.9941 61.185 70.755C60.8252 70.5159 60.5434 70.1856 60.3398 69.7642C60.1362 69.3404 60.0344 68.8516 60.0344 68.2976C60.0344 67.7389 60.1362 67.2476 60.3398 66.8239C60.5434 66.3977 60.8252 66.0663 61.185 65.8295C61.5472 65.5904 61.9639 65.4709 62.435 65.4709C62.9061 65.4709 63.3216 65.5904 63.6815 65.8295C64.0413 66.0687 64.323 66.4001 64.5266 66.8239C64.7326 67.2476 64.8356 67.7389 64.8356 68.2976C64.8356 68.8516 64.7338 69.3404 64.5302 69.7642C64.3266 70.1856 64.0437 70.5159 63.6815 70.755C63.3216 70.9941 62.9061 71.1136 62.435 71.1136ZM62.435 70.5348C62.8138 70.5348 63.1346 70.433 63.3974 70.2294C63.6602 70.0258 63.859 69.7547 63.994 69.4162C64.1313 69.0777 64.1999 68.7048 64.1999 68.2976C64.1999 67.8904 64.1313 67.5163 63.994 67.1754C63.859 66.8345 63.6602 66.5611 63.3974 66.3551C63.1346 66.1491 62.8138 66.0462 62.435 66.0462C62.0586 66.0462 61.7378 66.1491 61.4727 66.3551C61.2099 66.5611 61.0098 66.8345 60.8725 67.1754C60.7376 67.5163 60.6701 67.8904 60.6701 68.2976C60.6701 68.7048 60.7376 69.0777 60.8725 69.4162C61.0098 69.7547 61.2099 70.0258 61.4727 70.2294C61.7354 70.433 62.0562 70.5348 62.435 70.5348ZM70.5591 71.1243C70.2301 71.1243 69.9294 71.0604 69.6571 70.9325C69.3849 70.8023 69.1683 70.6153 69.0073 70.3714C68.8463 70.1252 68.7658 69.8269 68.7658 69.4766C68.7658 69.2067 68.8167 68.9794 68.9185 68.7947C69.0203 68.6101 69.1647 68.4586 69.3517 68.3402C69.5388 68.2218 69.7601 68.1283 70.0158 68.0597C70.2715 67.991 70.5532 67.9377 70.861 67.8999C71.1664 67.862 71.4244 67.8288 71.6351 67.8004C71.8482 67.772 72.0104 67.727 72.1216 67.6655C72.2329 67.6039 72.2885 67.5045 72.2885 67.3672V67.2393C72.2885 66.8677 72.1773 66.5753 71.9547 66.3622C71.7346 66.1468 71.4173 66.0391 71.003 66.0391C70.61 66.0391 70.2892 66.1255 70.0407 66.2983C69.7944 66.4711 69.6216 66.6747 69.5222 66.9091L68.9221 66.6925C69.0452 66.3942 69.2156 66.1562 69.4334 65.9787C69.6512 65.7988 69.8951 65.6697 70.165 65.5916C70.4348 65.5111 70.7083 65.4709 70.9853 65.4709C71.1936 65.4709 71.4102 65.4981 71.6351 65.5526C71.8624 65.607 72.0731 65.7017 72.2672 65.8366C72.4614 65.9692 72.6188 66.1551 72.7395 66.3942C72.8603 66.6309 72.9206 66.9316 72.9206 67.2962V71H72.2885V70.1371H72.2495C72.1737 70.2981 72.0613 70.4543 71.9121 70.6058C71.763 70.7573 71.5759 70.8816 71.351 70.9787C71.1261 71.0758 70.8622 71.1243 70.5591 71.1243ZM70.6444 70.5455C70.9805 70.5455 71.2717 70.4709 71.5179 70.3217C71.7641 70.1726 71.9535 69.9749 72.0861 69.7287C72.2211 69.4801 72.2885 69.2067 72.2885 68.9084V68.12C72.2412 68.165 72.1619 68.2053 72.0506 68.2408C71.9417 68.2763 71.815 68.3082 71.6706 68.3366C71.5286 68.3627 71.3865 68.3852 71.2445 68.4041C71.1025 68.4231 70.9746 68.4396 70.861 68.4538C70.5532 68.4917 70.2904 68.5509 70.0726 68.6314C69.8548 68.7119 69.6879 68.8232 69.5719 68.9652C69.4559 69.1049 69.3979 69.2848 69.3979 69.505C69.3979 69.8364 69.5163 70.0933 69.753 70.2756C69.9898 70.4555 70.2869 70.5455 70.6444 70.5455ZM74.6021 71V65.5455H75.2164V66.3835H75.2626C75.3715 66.1089 75.5609 65.8875 75.8308 65.7195C76.103 65.549 76.4108 65.4638 76.7541 65.4638C76.8062 65.4638 76.8642 65.465 76.9281 65.4673C76.992 65.4697 77.0453 65.4721 77.0879 65.4744V66.1172C77.0595 66.1125 77.0098 66.1054 76.9387 66.0959C76.8677 66.0864 76.7908 66.0817 76.7079 66.0817C76.4238 66.0817 76.1705 66.142 75.948 66.2628C75.7278 66.3812 75.5538 66.5457 75.426 66.7564C75.2981 66.9671 75.2342 67.2074 75.2342 67.4773V71H74.6021ZM80.2058 71.1136C79.6968 71.1136 79.2565 70.9953 78.8848 70.7585C78.5131 70.5194 78.2254 70.1892 78.0218 69.7678C77.8206 69.344 77.72 68.8563 77.72 68.3047C77.72 67.7554 77.8206 67.2678 78.0218 66.8416C78.2254 66.4131 78.506 66.0781 78.8635 65.8366C79.2233 65.5928 79.6388 65.4709 80.1099 65.4709C80.4058 65.4709 80.6911 65.5253 80.9657 65.6342C81.2404 65.7408 81.4866 65.9053 81.7044 66.1278C81.9245 66.348 82.0985 66.6262 82.2264 66.9624C82.3542 67.2962 82.4181 67.6915 82.4181 68.1484V68.4609H78.1568V67.9034H81.7718C81.7718 67.553 81.7008 67.2382 81.5588 66.9588C81.4191 66.6771 81.2238 66.4545 80.9728 66.2912C80.7243 66.1278 80.4366 66.0462 80.1099 66.0462C79.7643 66.0462 79.46 66.1385 79.1973 66.3232C78.9345 66.5078 78.7285 66.7517 78.5794 67.0547C78.4326 67.3577 78.358 67.6892 78.3556 68.049V68.3828C78.3556 68.8161 78.4302 69.1948 78.5794 69.5192C78.7309 69.8411 78.9451 70.0909 79.2221 70.2685C79.4991 70.446 79.827 70.5348 80.2058 70.5348C80.4638 70.5348 80.6899 70.4946 80.8841 70.4141C81.0806 70.3336 81.2451 70.2259 81.3777 70.0909C81.5126 69.9536 81.6144 69.8033 81.6831 69.6399L82.2832 69.8352C82.2003 70.0649 82.0642 70.2768 81.8748 70.4709C81.6878 70.665 81.4534 70.8213 81.1717 70.9396C80.8923 71.0556 80.5704 71.1136 80.2058 71.1136ZM86.6307 65.5455H87.2663V71.5291C87.2663 71.8393 87.2083 72.1068 87.0923 72.3317C86.9787 72.5589 86.813 72.7341 86.5952 72.8572C86.3774 72.9827 86.1146 73.0455 85.8068 73.0455C85.7831 73.0455 85.7595 73.0455 85.7358 73.0455C85.7121 73.0455 85.6861 73.0443 85.6577 73.0419L85.6648 72.4489C85.6884 72.4489 85.7109 72.4489 85.7322 72.4489C85.7536 72.4489 85.776 72.4489 85.7997 72.4489C86.0601 72.4489 86.2637 72.3684 86.4105 72.2074C86.5573 72.0464 86.6307 71.8203 86.6307 71.5291V65.5455ZM86.9432 64.608C86.8153 64.608 86.7041 64.5642 86.6094 64.4766C86.517 64.3866 86.4709 64.2789 86.4709 64.1534C86.4709 64.0279 86.517 63.9214 86.6094 63.8338C86.7041 63.7438 86.8153 63.6989 86.9432 63.6989C87.0734 63.6989 87.1847 63.7438 87.277 63.8338C87.3717 63.9214 87.419 64.0279 87.419 64.1534C87.419 64.2789 87.3717 64.3866 87.277 64.4766C87.1847 64.5642 87.0734 64.608 86.9432 64.608ZM92.4039 68.9155V65.5455H93.036V71H92.4039V70.0945H92.3542C92.2264 70.3738 92.024 70.607 91.747 70.794C91.47 70.9787 91.1315 71.071 90.7314 71.071C90.3833 71.071 90.0744 70.9953 89.8045 70.8438C89.5346 70.6899 89.3227 70.465 89.1689 70.169C89.015 69.8731 88.938 69.5097 88.938 69.0788V65.5455H89.5701V69.0398C89.5701 69.4659 89.6956 69.8092 89.9466 70.0696C90.1975 70.3277 90.5195 70.4567 90.9125 70.4567C91.1587 70.4567 91.3954 70.3975 91.6227 70.2791C91.85 70.1607 92.037 69.9879 92.1838 69.7607C92.3306 69.531 92.4039 69.2493 92.4039 68.9155ZM98.3743 66.7422L97.7955 66.9055C97.7386 66.7422 97.6581 66.5942 97.554 66.4616C97.4498 66.3291 97.3137 66.2237 97.1456 66.1456C96.9799 66.0675 96.7739 66.0284 96.5277 66.0284C96.1584 66.0284 95.8554 66.116 95.6186 66.2912C95.3819 66.4664 95.2635 66.6925 95.2635 66.9695C95.2635 67.2038 95.344 67.3944 95.505 67.5412C95.6683 67.6856 95.9193 67.8004 96.2578 67.8857L97.0817 68.0881C97.5386 68.1993 97.8807 68.3757 98.108 68.6172C98.3376 68.8587 98.4524 69.1617 98.4524 69.5263C98.4524 69.834 98.3672 70.1075 98.1967 70.3466C98.0263 70.5857 97.7884 70.7739 97.483 70.9112C97.1799 71.0462 96.8284 71.1136 96.4283 71.1136C95.8956 71.1136 95.4564 70.9941 95.1108 70.755C94.7652 70.5135 94.5438 70.1655 94.4467 69.7109L95.054 69.5618C95.1321 69.8861 95.2848 70.1312 95.5121 70.2969C95.7417 70.4626 96.0436 70.5455 96.4176 70.5455C96.8366 70.5455 97.1716 70.4519 97.4226 70.2649C97.6735 70.0755 97.799 69.8388 97.799 69.5547C97.799 69.3345 97.7256 69.1499 97.5788 69.0007C97.4321 68.8492 97.2095 68.7379 96.9112 68.6669L96.0199 68.4538C95.5464 68.3402 95.196 68.1603 94.9688 67.9141C94.7415 67.6679 94.6278 67.3625 94.6278 66.9979C94.6278 66.6972 94.7095 66.4332 94.8729 66.206C95.0362 65.9763 95.2611 65.7964 95.5476 65.6662C95.834 65.536 96.1607 65.4709 96.5277 65.4709C97.0272 65.4709 97.4261 65.5845 97.7244 65.8118C98.0251 66.0367 98.2417 66.3468 98.3743 66.7422ZM101.985 65.5455V66.0959H99.3819V65.5455H101.985ZM100.195 64.2386H100.831V69.576C100.831 69.8033 100.87 69.982 100.948 70.1122C101.026 70.2401 101.128 70.3312 101.253 70.3857C101.379 70.4377 101.513 70.4638 101.655 70.4638C101.738 70.4638 101.809 70.459 101.868 70.4496C101.927 70.4377 101.979 70.4259 102.024 70.4141L102.159 70.9858C102.097 71.0095 102.022 71.0308 101.932 71.0497C101.842 71.071 101.73 71.0817 101.598 71.0817C101.366 71.0817 101.142 71.0308 100.927 70.929C100.714 70.8272 100.538 70.6757 100.401 70.4744C100.264 70.2732 100.195 70.0234 100.195 69.7251V64.2386ZM22.3192 75.7273V83H21.6871V75.7273H22.3192ZM26.1118 83.1136C25.6407 83.1136 25.224 82.9941 24.8618 82.755C24.5019 82.5159 24.2202 82.1856 24.0166 81.7642C23.813 81.3404 23.7112 80.8516 23.7112 80.2976C23.7112 79.7389 23.813 79.2476 24.0166 78.8239C24.2202 78.3977 24.5019 78.0663 24.8618 77.8295C25.224 77.5904 25.6407 77.4709 26.1118 77.4709C26.5829 77.4709 26.9984 77.5904 27.3582 77.8295C27.7181 78.0687 27.9998 78.4001 28.2034 78.8239C28.4094 79.2476 28.5123 79.7389 28.5123 80.2976C28.5123 80.8516 28.4105 81.3404 28.2069 81.7642C28.0033 82.1856 27.7204 82.5159 27.3582 82.755C26.9984 82.9941 26.5829 83.1136 26.1118 83.1136ZM26.1118 82.5348C26.4906 82.5348 26.8113 82.433 27.0741 82.2294C27.3369 82.0258 27.5358 81.7547 27.6707 81.4162C27.808 81.0777 27.8767 80.7048 27.8767 80.2976C27.8767 79.8904 27.808 79.5163 27.6707 79.1754C27.5358 78.8345 27.3369 78.5611 27.0741 78.3551C26.8113 78.1491 26.4906 78.0462 26.1118 78.0462C25.7354 78.0462 25.4146 78.1491 25.1494 78.3551C24.8866 78.5611 24.6866 78.8345 24.5493 79.1754C24.4143 79.5163 24.3469 79.8904 24.3469 80.2976C24.3469 80.7048 24.4143 81.0777 24.5493 81.4162C24.6866 81.7547 24.8866 82.0258 25.1494 82.2294C25.4122 82.433 25.733 82.5348 26.1118 82.5348ZM32.02 83.1136C31.5489 83.1136 31.1322 82.9941 30.77 82.755C30.4101 82.5159 30.1284 82.1856 29.9248 81.7642C29.7212 81.3404 29.6194 80.8516 29.6194 80.2976C29.6194 79.7389 29.7212 79.2476 29.9248 78.8239C30.1284 78.3977 30.4101 78.0663 30.77 77.8295C31.1322 77.5904 31.5489 77.4709 32.02 77.4709C32.4911 77.4709 32.9066 77.5904 33.2664 77.8295C33.6263 78.0687 33.908 78.4001 34.1116 78.8239C34.3176 79.2476 34.4205 79.7389 34.4205 80.2976C34.4205 80.8516 34.3187 81.3404 34.1151 81.7642C33.9115 82.1856 33.6286 82.5159 33.2664 82.755C32.9066 82.9941 32.4911 83.1136 32.02 83.1136ZM32.02 82.5348C32.3988 82.5348 32.7195 82.433 32.9823 82.2294C33.2451 82.0258 33.444 81.7547 33.5789 81.4162C33.7162 81.0777 33.7849 80.7048 33.7849 80.2976C33.7849 79.8904 33.7162 79.5163 33.5789 79.1754C33.444 78.8345 33.2451 78.5611 32.9823 78.3551C32.7195 78.1491 32.3988 78.0462 32.02 78.0462C31.6436 78.0462 31.3228 78.1491 31.0576 78.3551C30.7948 78.5611 30.5948 78.8345 30.4575 79.1754C30.3225 79.5163 30.2551 79.8904 30.2551 80.2976C30.2551 80.7048 30.3225 81.0777 30.4575 81.4162C30.5948 81.7547 30.7948 82.0258 31.0576 82.2294C31.3204 82.433 31.6412 82.5348 32.02 82.5348ZM36.3834 80.9403L36.3763 80.1129H36.5184L39.0752 77.5455H39.8742L37.3493 80.0739L37.2925 80.0845L36.3834 80.9403ZM35.8081 83V75.7273H36.4403V83H35.8081ZM39.2066 83L36.9907 80.1982L37.4452 79.7614L40.0162 83H39.2066ZM41.0692 83V77.5455H41.7048V83H41.0692ZM41.3923 76.608C41.2621 76.608 41.1508 76.5642 41.0585 76.4766C40.9662 76.3866 40.92 76.2789 40.92 76.1534C40.92 76.0279 40.9662 75.9214 41.0585 75.8338C41.1508 75.7438 41.2621 75.6989 41.3923 75.6989C41.5225 75.6989 41.6338 75.7438 41.7261 75.8338C41.8184 75.9214 41.8646 76.0279 41.8646 76.1534C41.8646 76.2789 41.8184 76.3866 41.7261 76.4766C41.6338 76.5642 41.5225 76.608 41.3923 76.608ZM44.0086 79.5909V83H43.3765V77.5455H43.9909V78.4013H44.0477C44.1755 78.1219 44.3744 77.8982 44.6443 77.7301C44.9165 77.5597 45.2527 77.4744 45.6528 77.4744C46.0197 77.4744 46.3417 77.5514 46.6187 77.7053C46.8981 77.8568 47.1147 78.0805 47.2686 78.3764C47.4248 78.6723 47.5029 79.0357 47.5029 79.4666V83H46.8708V79.5057C46.8708 79.0582 46.7454 78.7043 46.4944 78.4439C46.2458 78.1835 45.912 78.0533 45.493 78.0533C45.2065 78.0533 44.952 78.1148 44.7295 78.2379C44.507 78.361 44.3306 78.5386 44.2004 78.7706C44.0725 79.0002 44.0086 79.2737 44.0086 79.5909ZM51.2485 85.1591C50.8768 85.1591 50.5513 85.1106 50.2719 85.0135C49.9926 84.9188 49.757 84.7886 49.5653 84.6229C49.3735 84.4571 49.2243 84.2713 49.1178 84.0653L49.6363 83.7244C49.7144 83.8617 49.8186 83.9967 49.9488 84.1293C50.0814 84.2618 50.253 84.3719 50.4637 84.4595C50.6768 84.5471 50.9384 84.5909 51.2485 84.5909C51.7314 84.5909 52.1209 84.4702 52.4168 84.2287C52.7151 83.9872 52.8643 83.612 52.8643 83.103V81.8743H52.8074C52.734 82.04 52.6287 82.2057 52.4914 82.3714C52.3541 82.5348 52.1742 82.6709 51.9516 82.7798C51.7314 82.8887 51.458 82.9432 51.1313 82.9432C50.6957 82.9432 50.3086 82.8355 49.9701 82.62C49.6339 82.4046 49.3688 82.0968 49.1746 81.6967C48.9829 81.2943 48.887 80.8149 48.887 80.2585C48.887 79.7069 48.9805 79.2216 49.1675 78.8026C49.3569 78.3835 49.6209 78.0568 49.9594 77.8224C50.298 77.5881 50.6921 77.4709 51.142 77.4709C51.4758 77.4709 51.7528 77.5301 51.9729 77.6484C52.1931 77.7644 52.3695 77.9089 52.502 78.0817C52.637 78.2545 52.7423 78.4226 52.8181 78.5859H52.882V77.5455H53.4999V83.142C53.4999 83.6037 53.4017 83.9837 53.2052 84.282C53.0087 84.5803 52.7412 84.8004 52.4026 84.9425C52.0641 85.0869 51.6794 85.1591 51.2485 85.1591ZM51.2059 82.3643C51.5563 82.3643 51.8557 82.2803 52.1043 82.1122C52.3529 81.9418 52.5435 81.6979 52.676 81.3807C52.8086 81.0634 52.8749 80.6858 52.8749 80.2479C52.8749 79.8217 52.8098 79.4441 52.6796 79.1151C52.5494 78.7836 52.36 78.5232 52.1114 78.3338C51.8652 78.142 51.5634 78.0462 51.2059 78.0462C50.8413 78.0462 50.5335 78.1444 50.2826 78.3409C50.0316 78.5374 49.8422 78.8026 49.7144 79.1364C49.5866 79.4678 49.5226 79.8383 49.5226 80.2479C49.5226 80.6645 49.5877 81.0327 49.718 81.3523C49.8482 81.6695 50.0387 81.9181 50.2897 82.098C50.5406 82.2756 50.846 82.3643 51.2059 82.3643ZM60.2302 77.5455V78.0959H57.5491V77.5455H60.2302ZM58.3872 83V76.7464C58.3872 76.4529 58.4546 76.2055 58.5896 76.0043C58.7269 75.803 58.9056 75.6503 59.1258 75.5462C59.346 75.442 59.5792 75.3899 59.8254 75.3899C59.9911 75.3899 60.1284 75.4041 60.2373 75.4325C60.3486 75.4586 60.4362 75.4846 60.5001 75.5107L60.3154 76.0646C60.2681 76.0504 60.2101 76.0339 60.1414 76.0149C60.0728 75.996 59.9864 75.9865 59.8822 75.9865C59.6076 75.9865 59.3957 76.0634 59.2465 76.2173C59.0974 76.3712 59.0228 76.5914 59.0228 76.8778L59.0193 83H58.3872ZM63.3872 83.1136C62.916 83.1136 62.4994 82.9941 62.1372 82.755C61.7773 82.5159 61.4956 82.1856 61.292 81.7642C61.0884 81.3404 60.9866 80.8516 60.9866 80.2976C60.9866 79.7389 61.0884 79.2476 61.292 78.8239C61.4956 78.3977 61.7773 78.0663 62.1372 77.8295C62.4994 77.5904 62.916 77.4709 63.3872 77.4709C63.8583 77.4709 64.2738 77.5904 64.6336 77.8295C64.9935 78.0687 65.2752 78.4001 65.4788 78.8239C65.6847 79.2476 65.7877 79.7389 65.7877 80.2976C65.7877 80.8516 65.6859 81.3404 65.4823 81.7642C65.2787 82.1856 64.9958 82.5159 64.6336 82.755C64.2738 82.9941 63.8583 83.1136 63.3872 83.1136ZM63.3872 82.5348C63.766 82.5348 64.0867 82.433 64.3495 82.2294C64.6123 82.0258 64.8112 81.7547 64.9461 81.4162C65.0834 81.0777 65.1521 80.7048 65.1521 80.2976C65.1521 79.8904 65.0834 79.5163 64.9461 79.1754C64.8112 78.8345 64.6123 78.5611 64.3495 78.3551C64.0867 78.1491 63.766 78.0462 63.3872 78.0462C63.0107 78.0462 62.69 78.1491 62.4248 78.3551C62.162 78.5611 61.962 78.8345 61.8247 79.1754C61.6897 79.5163 61.6222 79.8904 61.6222 80.2976C61.6222 80.7048 61.6897 81.0777 61.8247 81.4162C61.962 81.7547 62.162 82.0258 62.4248 82.2294C62.6876 82.433 63.0084 82.5348 63.3872 82.5348ZM67.1753 83V77.5455H67.7897V78.3835H67.8358C67.9448 78.1089 68.1341 77.8875 68.404 77.7195C68.6763 77.549 68.984 77.4638 69.3273 77.4638C69.3794 77.4638 69.4374 77.465 69.5013 77.4673C69.5653 77.4697 69.6185 77.4721 69.6611 77.4744V78.1172C69.6327 78.1125 69.583 78.1054 69.512 78.0959C69.441 78.0864 69.364 78.0817 69.2812 78.0817C68.9971 78.0817 68.7438 78.142 68.5212 78.2628C68.301 78.3812 68.127 78.5457 67.9992 78.7564C67.8714 78.9671 67.8074 79.2074 67.8074 79.4773V83H67.1753ZM77.2171 78.7422L76.6382 78.9055C76.5814 78.7422 76.5009 78.5942 76.3968 78.4616C76.2926 78.3291 76.1565 78.2237 75.9884 78.1456C75.8227 78.0675 75.6167 78.0284 75.3705 78.0284C75.0012 78.0284 74.6981 78.116 74.4614 78.2912C74.2246 78.4664 74.1063 78.6925 74.1063 78.9695C74.1063 79.2038 74.1868 79.3944 74.3477 79.5412C74.5111 79.6856 74.762 79.8004 75.1006 79.8857L75.9244 80.0881C76.3814 80.1993 76.7235 80.3757 76.9507 80.6172C77.1804 80.8587 77.2952 81.1617 77.2952 81.5263C77.2952 81.834 77.21 82.1075 77.0395 82.3466C76.8691 82.5857 76.6311 82.7739 76.3257 82.9112C76.0227 83.0462 75.6711 83.1136 75.271 83.1136C74.7384 83.1136 74.2992 82.9941 73.9536 82.755C73.6079 82.5135 73.3866 82.1655 73.2895 81.7109L73.8968 81.5618C73.9749 81.8861 74.1276 82.1312 74.3548 82.2969C74.5845 82.4626 74.8863 82.5455 75.2604 82.5455C75.6794 82.5455 76.0144 82.4519 76.2654 82.2649C76.5163 82.0755 76.6418 81.8388 76.6418 81.5547C76.6418 81.3345 76.5684 81.1499 76.4216 81.0007C76.2748 80.8492 76.0523 80.7379 75.754 80.6669L74.8627 80.4538C74.3892 80.3402 74.0388 80.1603 73.8115 79.9141C73.5843 79.6679 73.4706 79.3625 73.4706 78.9979C73.4706 78.6972 73.5523 78.4332 73.7156 78.206C73.879 77.9763 74.1039 77.7964 74.3904 77.6662C74.6768 77.536 75.0035 77.4709 75.3705 77.4709C75.87 77.4709 76.2689 77.5845 76.5672 77.8118C76.8679 78.0367 77.0845 78.3468 77.2171 78.7422ZM80.7993 83.1136C80.3282 83.1136 79.9115 82.9941 79.5493 82.755C79.1894 82.5159 78.9077 82.1856 78.7041 81.7642C78.5005 81.3404 78.3987 80.8516 78.3987 80.2976C78.3987 79.7389 78.5005 79.2476 78.7041 78.8239C78.9077 78.3977 79.1894 78.0663 79.5493 77.8295C79.9115 77.5904 80.3282 77.4709 80.7993 77.4709C81.2704 77.4709 81.6859 77.5904 82.0457 77.8295C82.4056 78.0687 82.6873 78.4001 82.8909 78.8239C83.0969 79.2476 83.1998 79.7389 83.1998 80.2976C83.1998 80.8516 83.098 81.3404 82.8944 81.7642C82.6908 82.1856 82.4079 82.5159 82.0457 82.755C81.6859 82.9941 81.2704 83.1136 80.7993 83.1136ZM80.7993 82.5348C81.1781 82.5348 81.4988 82.433 81.7616 82.2294C82.0244 82.0258 82.2233 81.7547 82.3582 81.4162C82.4955 81.0777 82.5642 80.7048 82.5642 80.2976C82.5642 79.8904 82.4955 79.5163 82.3582 79.1754C82.2233 78.8345 82.0244 78.5611 81.7616 78.3551C81.4988 78.1491 81.1781 78.0462 80.7993 78.0462C80.4229 78.0462 80.1021 78.1491 79.8369 78.3551C79.5741 78.5611 79.3741 78.8345 79.2368 79.1754C79.1018 79.5163 79.0344 79.8904 79.0344 80.2976C79.0344 80.7048 79.1018 81.0777 79.2368 81.4162C79.3741 81.7547 79.5741 82.0258 79.8369 82.2294C80.0997 82.433 80.4205 82.5348 80.7993 82.5348ZM84.5874 83V77.5455H85.2018V78.3835H85.2586C85.3675 78.1018 85.5486 77.8804 85.8019 77.7195C86.0576 77.5561 86.3642 77.4744 86.7217 77.4744C87.0981 77.4744 87.407 77.5632 87.6485 77.7408C87.8924 77.916 88.0747 78.1574 88.1954 78.4652H88.2416C88.3647 78.1622 88.5647 77.9219 88.8417 77.7443C89.1211 77.5644 89.4596 77.4744 89.8573 77.4744C90.364 77.4744 90.7641 77.6342 91.0576 77.9538C91.3512 78.2711 91.498 78.7351 91.498 79.3459V83H90.8659V79.3459C90.8659 78.915 90.7558 78.5919 90.5356 78.3764C90.3154 78.161 90.0254 78.0533 89.6656 78.0533C89.2489 78.0533 88.9281 78.1811 88.7032 78.4368C88.4783 78.6925 88.3659 79.0168 88.3659 79.4098V83H87.7195V79.2891C87.7195 78.9197 87.6166 78.6214 87.4106 78.3942C87.2046 78.1669 86.9146 78.0533 86.5406 78.0533C86.2896 78.0533 86.0635 78.1148 85.8623 78.2379C85.6634 78.361 85.506 78.5327 85.39 78.7528C85.2764 78.9706 85.2195 79.2216 85.2195 79.5057V83H84.5874ZM95.3767 83.1136C94.8677 83.1136 94.4273 82.9953 94.0557 82.7585C93.684 82.5194 93.3963 82.1892 93.1927 81.7678C92.9915 81.344 92.8909 80.8563 92.8909 80.3047C92.8909 79.7554 92.9915 79.2678 93.1927 78.8416C93.3963 78.4131 93.6769 78.0781 94.0344 77.8366C94.3942 77.5928 94.8097 77.4709 95.2808 77.4709C95.5767 77.4709 95.862 77.5253 96.1366 77.6342C96.4113 77.7408 96.6575 77.9053 96.8753 78.1278C97.0954 78.348 97.2694 78.6262 97.3973 78.9624C97.5251 79.2962 97.589 79.6915 97.589 80.1484V80.4609H93.3277V79.9034H96.9427C96.9427 79.553 96.8717 79.2382 96.7297 78.9588C96.59 78.6771 96.3947 78.4545 96.1437 78.2912C95.8952 78.1278 95.6075 78.0462 95.2808 78.0462C94.9352 78.0462 94.6309 78.1385 94.3682 78.3232C94.1054 78.5078 93.8994 78.7517 93.7503 79.0547C93.6035 79.3577 93.5289 79.6892 93.5265 80.049V80.3828C93.5265 80.8161 93.6011 81.1948 93.7503 81.5192C93.9018 81.8411 94.116 82.0909 94.393 82.2685C94.67 82.446 94.9979 82.5348 95.3767 82.5348C95.6347 82.5348 95.8608 82.4946 96.055 82.4141C96.2515 82.3336 96.416 82.2259 96.5486 82.0909C96.6835 81.9536 96.7853 81.8033 96.854 81.6399L97.4541 81.8352C97.3712 82.0649 97.2351 82.2768 97.0457 82.4709C96.8587 82.665 96.6243 82.8213 96.3426 82.9396C96.0632 83.0556 95.7413 83.1136 95.3767 83.1136ZM34.0379 95V89.5455H34.6736V95H34.0379ZM34.3611 88.608C34.2309 88.608 34.1196 88.5642 34.0273 88.4766C33.9349 88.3866 33.8888 88.2789 33.8888 88.1534C33.8888 88.0279 33.9349 87.9214 34.0273 87.8338C34.1196 87.7438 34.2309 87.6989 34.3611 87.6989C34.4913 87.6989 34.6025 87.7438 34.6949 87.8338C34.7872 87.9214 34.8334 88.0279 34.8334 88.1534C34.8334 88.2789 34.7872 88.3866 34.6949 88.4766C34.6025 88.5642 34.4913 88.608 34.3611 88.608ZM36.9774 91.5909V95H36.3453V89.5455H36.9596V90.4013H37.0164C37.1443 90.1219 37.3431 89.8982 37.613 89.7301C37.8853 89.5597 38.2214 89.4744 38.6215 89.4744C38.9885 89.4744 39.3105 89.5514 39.5874 89.7053C39.8668 89.8568 40.0834 90.0805 40.2373 90.3764C40.3936 90.6723 40.4717 91.0357 40.4717 91.4666V95H39.8396V91.5057C39.8396 91.0582 39.7141 90.7043 39.4632 90.4439C39.2146 90.1835 38.8808 90.0533 38.4617 90.0533C38.1753 90.0533 37.9208 90.1148 37.6982 90.2379C37.4757 90.361 37.2993 90.5386 37.1691 90.7706C37.0413 91.0002 36.9774 91.2737 36.9774 91.5909ZM44.3806 89.5455V90.0959H41.6995V89.5455H44.3806ZM42.5376 95V88.7464C42.5376 88.4529 42.605 88.2055 42.74 88.0043C42.8773 87.803 43.056 87.6503 43.2762 87.5462C43.4964 87.442 43.7296 87.3899 43.9758 87.3899C44.1415 87.3899 44.2788 87.4041 44.3877 87.4325C44.499 87.4586 44.5866 87.4846 44.6505 87.5107L44.4658 88.0646C44.4185 88.0504 44.3605 88.0339 44.2918 88.0149C44.2232 87.996 44.1367 87.9865 44.0326 87.9865C43.758 87.9865 43.5461 88.0634 43.3969 88.2173C43.2478 88.3712 43.1732 88.5914 43.1732 88.8778L43.1697 95H42.5376ZM47.5376 95.1136C47.0664 95.1136 46.6498 94.9941 46.2876 94.755C45.9277 94.5159 45.646 94.1856 45.4424 93.7642C45.2388 93.3404 45.137 92.8516 45.137 92.2976C45.137 91.7389 45.2388 91.2476 45.4424 90.8239C45.646 90.3977 45.9277 90.0663 46.2876 89.8295C46.6498 89.5904 47.0664 89.4709 47.5376 89.4709C48.0087 89.4709 48.4242 89.5904 48.784 89.8295C49.1439 90.0687 49.4256 90.4001 49.6292 90.8239C49.8351 91.2476 49.9381 91.7389 49.9381 92.2976C49.9381 92.8516 49.8363 93.3404 49.6327 93.7642C49.4291 94.1856 49.1462 94.5159 48.784 94.755C48.4242 94.9941 48.0087 95.1136 47.5376 95.1136ZM47.5376 94.5348C47.9163 94.5348 48.2371 94.433 48.4999 94.2294C48.7627 94.0258 48.9616 93.7547 49.0965 93.4162C49.2338 93.0777 49.3025 92.7048 49.3025 92.2976C49.3025 91.8904 49.2338 91.5163 49.0965 91.1754C48.9616 90.8345 48.7627 90.5611 48.4999 90.3551C48.2371 90.1491 47.9163 90.0462 47.5376 90.0462C47.1611 90.0462 46.8403 90.1491 46.5752 90.3551C46.3124 90.5611 46.1124 90.8345 45.9751 91.1754C45.8401 91.5163 45.7726 91.8904 45.7726 92.2976C45.7726 92.7048 45.8401 93.0777 45.9751 93.4162C46.1124 93.7547 46.3124 94.0258 46.5752 94.2294C46.838 94.433 47.1588 94.5348 47.5376 94.5348ZM51.3257 95V89.5455H51.9401V90.3835H51.9862C52.0951 90.1089 52.2845 89.8875 52.5544 89.7195C52.8267 89.549 53.1344 89.4638 53.4777 89.4638C53.5298 89.4638 53.5878 89.465 53.6517 89.4673C53.7156 89.4697 53.7689 89.4721 53.8115 89.4744V90.1172C53.7831 90.1125 53.7334 90.1054 53.6624 90.0959C53.5914 90.0864 53.5144 90.0817 53.4316 90.0817C53.1475 90.0817 52.8941 90.142 52.6716 90.2628C52.4514 90.3812 52.2774 90.5457 52.1496 90.7564C52.0218 90.9671 51.9578 91.2074 51.9578 91.4773V95H51.3257ZM54.8902 95V89.5455H55.5045V90.3835H55.5613C55.6702 90.1018 55.8514 89.8804 56.1047 89.7195C56.3604 89.5561 56.6669 89.4744 57.0244 89.4744C57.4008 89.4744 57.7098 89.5632 57.9513 89.7408C58.1951 89.916 58.3774 90.1574 58.4981 90.4652H58.5443C58.6674 90.1622 58.8675 89.9219 59.1444 89.7443C59.4238 89.5644 59.7623 89.4744 60.1601 89.4744C60.6667 89.4744 61.0668 89.6342 61.3604 89.9538C61.6539 90.2711 61.8007 90.7351 61.8007 91.3459V95H61.1686V91.3459C61.1686 90.915 61.0585 90.5919 60.8383 90.3764C60.6182 90.161 60.3282 90.0533 59.9683 90.0533C59.5516 90.0533 59.2309 90.1811 59.0059 90.4368C58.781 90.6925 58.6686 91.0168 58.6686 91.4098V95H58.0223V91.2891C58.0223 90.9197 57.9193 90.6214 57.7133 90.3942C57.5074 90.1669 57.2174 90.0533 56.8433 90.0533C56.5924 90.0533 56.3663 90.1148 56.165 90.2379C55.9662 90.361 55.8087 90.5327 55.6927 90.7528C55.5791 90.9706 55.5223 91.2216 55.5223 91.5057V95H54.8902ZM64.9976 95.1243C64.6685 95.1243 64.3679 95.0604 64.0956 94.9325C63.8234 94.8023 63.6067 94.6153 63.4458 94.3714C63.2848 94.1252 63.2043 93.8269 63.2043 93.4766C63.2043 93.2067 63.2552 92.9794 63.357 92.7947C63.4588 92.6101 63.6032 92.4586 63.7902 92.3402C63.9772 92.2218 64.1986 92.1283 64.4543 92.0597C64.71 91.991 64.9917 91.9377 65.2994 91.8999C65.6048 91.862 65.8629 91.8288 66.0736 91.8004C66.2867 91.772 66.4488 91.727 66.5601 91.6655C66.6714 91.6039 66.727 91.5045 66.727 91.3672V91.2393C66.727 90.8677 66.6157 90.5753 66.3932 90.3622C66.173 90.1468 65.8558 90.0391 65.4415 90.0391C65.0485 90.0391 64.7277 90.1255 64.4791 90.2983C64.2329 90.4711 64.0601 90.6747 63.9607 90.9091L63.3605 90.6925C63.4836 90.3942 63.6541 90.1562 63.8719 89.9787C64.0897 89.7988 64.3335 89.6697 64.6034 89.5916C64.8733 89.5111 65.1468 89.4709 65.4237 89.4709C65.6321 89.4709 65.8487 89.4981 66.0736 89.5526C66.3009 89.607 66.5116 89.7017 66.7057 89.8366C66.8998 89.9692 67.0573 90.1551 67.178 90.3942C67.2987 90.6309 67.3591 90.9316 67.3591 91.2962V95H66.727V94.1371H66.6879C66.6122 94.2981 66.4997 94.4543 66.3506 94.6058C66.2014 94.7573 66.0144 94.8816 65.7895 94.9787C65.5646 95.0758 65.3006 95.1243 64.9976 95.1243ZM65.0828 94.5455C65.419 94.5455 65.7102 94.4709 65.9564 94.3217C66.2026 94.1726 66.392 93.9749 66.5246 93.7287C66.6595 93.4801 66.727 93.2067 66.727 92.9084V92.12C66.6797 92.165 66.6003 92.2053 66.4891 92.2408C66.3802 92.2763 66.2535 92.3082 66.1091 92.3366C65.9671 92.3627 65.825 92.3852 65.683 92.4041C65.5409 92.4231 65.4131 92.4396 65.2994 92.4538C64.9917 92.4917 64.7289 92.5509 64.5111 92.6314C64.2933 92.7119 64.1264 92.8232 64.0104 92.9652C63.8944 93.1049 63.8364 93.2848 63.8364 93.505C63.8364 93.8364 63.9548 94.0933 64.1915 94.2756C64.4282 94.4555 64.7253 94.5455 65.0828 94.5455ZM71.189 89.5455V90.0959H68.586V89.5455H71.189ZM69.3992 88.2386H70.0349V93.576C70.0349 93.8033 70.074 93.982 70.1521 94.1122C70.2302 94.2401 70.332 94.3312 70.4575 94.3857C70.5829 94.4377 70.7167 94.4638 70.8588 94.4638C70.9416 94.4638 71.0126 94.459 71.0718 94.4496C71.131 94.4377 71.1831 94.4259 71.2281 94.4141L71.363 94.9858C71.3015 95.0095 71.2257 95.0308 71.1357 95.0497C71.0458 95.071 70.9345 95.0817 70.8019 95.0817C70.5699 95.0817 70.3462 95.0308 70.1308 94.929C69.9177 94.8272 69.7425 94.6757 69.6052 94.4744C69.4679 94.2732 69.3992 94.0234 69.3992 93.7251V88.2386ZM72.6317 95V89.5455H73.2673V95H72.6317ZM72.9548 88.608C72.8246 88.608 72.7133 88.5642 72.621 88.4766C72.5287 88.3866 72.4825 88.2789 72.4825 88.1534C72.4825 88.0279 72.5287 87.9214 72.621 87.8338C72.7133 87.7438 72.8246 87.6989 72.9548 87.6989C73.085 87.6989 73.1963 87.7438 73.2886 87.8338C73.3809 87.9214 73.4271 88.0279 73.4271 88.1534C73.4271 88.2789 73.3809 88.3866 73.2886 88.4766C73.1963 88.5642 73.085 88.608 72.9548 88.608ZM77.059 95.1136C76.5879 95.1136 76.1713 94.9941 75.809 94.755C75.4492 94.5159 75.1675 94.1856 74.9639 93.7642C74.7603 93.3404 74.6585 92.8516 74.6585 92.2976C74.6585 91.7389 74.7603 91.2476 74.9639 90.8239C75.1675 90.3977 75.4492 90.0663 75.809 89.8295C76.1713 89.5904 76.5879 89.4709 77.059 89.4709C77.5302 89.4709 77.9456 89.5904 78.3055 89.8295C78.6653 90.0687 78.9471 90.4001 79.1507 90.8239C79.3566 91.2476 79.4596 91.7389 79.4596 92.2976C79.4596 92.8516 79.3578 93.3404 79.1542 93.7642C78.9506 94.1856 78.6677 94.5159 78.3055 94.755C77.9456 94.9941 77.5302 95.1136 77.059 95.1136ZM77.059 94.5348C77.4378 94.5348 77.7586 94.433 78.0214 94.2294C78.2842 94.0258 78.483 93.7547 78.618 93.4162C78.7553 93.0777 78.824 92.7048 78.824 92.2976C78.824 91.8904 78.7553 91.5163 78.618 91.1754C78.483 90.8345 78.2842 90.5611 78.0214 90.3551C77.7586 90.1491 77.4378 90.0462 77.059 90.0462C76.6826 90.0462 76.3618 90.1491 76.0967 90.3551C75.8339 90.5611 75.6338 90.8345 75.4965 91.1754C75.3616 91.5163 75.2941 91.8904 75.2941 92.2976C75.2941 92.7048 75.3616 93.0777 75.4965 93.4162C75.6338 93.7547 75.8339 94.0258 76.0967 94.2294C76.3595 94.433 76.6802 94.5348 77.059 94.5348ZM81.4793 91.5909V95H80.8472V89.5455H81.4616V90.4013H81.5184C81.6462 90.1219 81.8451 89.8982 82.115 89.7301C82.3872 89.5597 82.7234 89.4744 83.1235 89.4744C83.4904 89.4744 83.8124 89.5514 84.0894 89.7053C84.3688 89.8568 84.5854 90.0805 84.7393 90.3764C84.8955 90.6723 84.9736 91.0357 84.9736 91.4666V95H84.3415V91.5057C84.3415 91.0582 84.2161 90.7043 83.9651 90.4439C83.7165 90.1835 83.3827 90.0533 82.9637 90.0533C82.6772 90.0533 82.4227 90.1148 82.2002 90.2379C81.9777 90.361 81.8013 90.5386 81.6711 90.7706C81.5432 91.0002 81.4793 91.2737 81.4793 91.5909Z" fill="#333333"/>
<defs>
<filter id="filter0_d_991_214" x="0" y="0" width="118" height="118" filterUnits="userSpaceOnUse" color-interpolation-filters="sRGB">
<feFlood flood-opacity="0" result="BackgroundImageFix"/>
<feColorMatrix in="SourceAlpha" type="matrix" values="0 0 0 0 0 0 0 0 0 0 0 0 0 0 0 0 0 0 127 0" result="hardAlpha"/>
<feOffset dy="4"/>
<feGaussianBlur stdDeviation="2"/>
<feComposite in2="hardAlpha" operator="out"/>
<feColorMatrix type="matrix" values="0 0 0 0 0 0 0 0 0 0 0 0 0 0 0 0 0 0 0.25 0"/>
<feBlend mode="normal" in2="BackgroundImageFix" result="effect1_dropShadow_991_214"/>
<feBlend mode="normal" in="SourceGraphic" in2="effect1_dropShadow_991_214" result="shape"/>
</filter>
</defs>
</svg>
