<svg width="118" height="118" viewBox="0 0 118 118" fill="none" xmlns="http://www.w3.org/2000/svg">
<g filter="url(#filter0_d_991_206)">
<rect x="4" width="110" height="110" fill="#BFBDD0"/>
</g>
<path d="M20.1433 30.1136C19.6343 30.1136 19.194 29.9953 18.8223 29.7585C18.4506 29.5194 18.1629 29.1892 17.9593 28.7678C17.7581 28.344 17.6575 27.8563 17.6575 27.3047C17.6575 26.7554 17.7581 26.2678 17.9593 25.8416C18.1629 25.4131 18.4435 25.0781 18.801 24.8366C19.1608 24.5928 19.5763 24.4709 20.0474 24.4709C20.3433 24.4709 20.6286 24.5253 20.9032 24.6342C21.1779 24.7408 21.4241 24.9053 21.6419 25.1278C21.862 25.348 22.036 25.6262 22.1639 25.9624C22.2917 26.2962 22.3556 26.6915 22.3556 27.1484V27.4609H18.0943V26.9034H21.7093C21.7093 26.553 21.6383 26.2382 21.4963 25.9588C21.3566 25.6771 21.1613 25.4545 20.9103 25.2912C20.6618 25.1278 20.3741 25.0462 20.0474 25.0462C19.7018 25.0462 19.3975 25.1385 19.1348 25.3232C18.872 25.5078 18.666 25.7517 18.5169 26.0547C18.3701 26.3577 18.2955 26.6892 18.2931 27.049V27.3828C18.2931 27.8161 18.3677 28.1948 18.5169 28.5192C18.6684 28.8411 18.8826 29.0909 19.1596 29.2685C19.4366 29.446 19.7645 29.5348 20.1433 29.5348C20.4013 29.5348 20.6274 29.4946 20.8216 29.4141C21.0181 29.3336 21.1826 29.2259 21.3152 29.0909C21.4501 28.9536 21.5519 28.8033 21.6206 28.6399L22.2207 28.8352C22.1378 29.0649 22.0017 29.2768 21.8123 29.4709C21.6253 29.665 21.3909 29.8213 21.1092 29.9396C20.8298 30.0556 20.5079 30.1136 20.1433 30.1136ZM23.9927 24.5455L25.399 26.8714L26.8052 24.5455H27.5403L25.786 27.2727L27.5403 30H26.8052L25.399 27.7486L23.9927 30H23.2612L24.9941 27.2727L23.2612 24.5455H23.9927ZM28.8729 30V24.5455H29.5085V30H28.8729ZM29.196 23.608C29.0658 23.608 28.9545 23.5642 28.8622 23.4766C28.7699 23.3866 28.7237 23.2789 28.7237 23.1534C28.7237 23.0279 28.7699 22.9214 28.8622 22.8338C28.9545 22.7438 29.0658 22.6989 29.196 22.6989C29.3262 22.6989 29.4375 22.7438 29.5298 22.8338C29.6222 22.9214 29.6683 23.0279 29.6683 23.1534C29.6683 23.2789 29.6222 23.3866 29.5298 23.4766C29.4375 23.5642 29.3262 23.608 29.196 23.608ZM34.845 25.7422L34.2662 25.9055C34.2093 25.7422 34.1288 25.5942 34.0247 25.4616C33.9205 25.3291 33.7844 25.2237 33.6163 25.1456C33.4506 25.0675 33.2446 25.0284 32.9984 25.0284C32.6291 25.0284 32.3261 25.116 32.0893 25.2912C31.8526 25.4664 31.7342 25.6925 31.7342 25.9695C31.7342 26.2038 31.8147 26.3944 31.9757 26.5412C32.139 26.6856 32.39 26.8004 32.7285 26.8857L33.5524 27.0881C34.0093 27.1993 34.3514 27.3757 34.5787 27.6172C34.8083 27.8587 34.9231 28.1617 34.9231 28.5263C34.9231 28.834 34.8379 29.1075 34.6674 29.3466C34.497 29.5857 34.2591 29.7739 33.9537 29.9112C33.6506 30.0462 33.2991 30.1136 32.899 30.1136C32.3663 30.1136 31.9271 29.9941 31.5815 29.755C31.2359 29.5135 31.0145 29.1655 30.9174 28.7109L31.5247 28.5618C31.6028 28.8861 31.7555 29.1312 31.9828 29.2969C32.2124 29.4626 32.5143 29.5455 32.8883 29.5455C33.3074 29.5455 33.6423 29.4519 33.8933 29.2649C34.1442 29.0755 34.2697 28.8388 34.2697 28.5547C34.2697 28.3345 34.1963 28.1499 34.0495 28.0007C33.9028 27.8492 33.6802 27.7379 33.3819 27.6669L32.4906 27.4538C32.0171 27.3402 31.6667 27.1603 31.4395 26.9141C31.2122 26.6679 31.0985 26.3625 31.0985 25.9979C31.0985 25.6972 31.1802 25.4332 31.3436 25.206C31.5069 24.9763 31.7318 24.7964 32.0183 24.6662C32.3047 24.536 32.6315 24.4709 32.9984 24.4709C33.4979 24.4709 33.8968 24.5845 34.1951 24.8118C34.4958 25.0367 34.7124 25.3468 34.845 25.7422ZM38.4556 24.5455V25.0959H35.8526V24.5455H38.4556ZM36.6658 23.2386H37.3015V28.576C37.3015 28.8033 37.3406 28.982 37.4187 29.1122C37.4968 29.2401 37.5986 29.3312 37.7241 29.3857C37.8496 29.4377 37.9833 29.4638 38.1254 29.4638C38.2082 29.4638 38.2792 29.459 38.3384 29.4496C38.3976 29.4377 38.4497 29.4259 38.4947 29.4141L38.6296 29.9858C38.5681 30.0095 38.4923 30.0308 38.4023 30.0497C38.3124 30.071 38.2011 30.0817 38.0685 30.0817C37.8365 30.0817 37.6128 30.0308 37.3974 29.929C37.1843 29.8272 37.0091 29.6757 36.8718 29.4744C36.7345 29.2732 36.6658 29.0234 36.6658 28.7251V23.2386ZM39.8983 30V24.5455H40.5339V30H39.8983ZM40.2214 23.608C40.0912 23.608 39.9799 23.5642 39.8876 23.4766C39.7953 23.3866 39.7491 23.2789 39.7491 23.1534C39.7491 23.0279 39.7953 22.9214 39.8876 22.8338C39.9799 22.7438 40.0912 22.6989 40.2214 22.6989C40.3516 22.6989 40.4629 22.7438 40.5552 22.8338C40.6475 22.9214 40.6937 23.0279 40.6937 23.1534C40.6937 23.2789 40.6475 23.3866 40.5552 23.4766C40.4629 23.5642 40.3516 23.608 40.2214 23.608ZM42.8377 26.5909V30H42.2056V24.5455H42.82V25.4013H42.8768C43.0046 25.1219 43.2035 24.8982 43.4734 24.7301C43.7456 24.5597 44.0818 24.4744 44.4819 24.4744C44.8488 24.4744 45.1708 24.5514 45.4478 24.7053C45.7272 24.8568 45.9438 25.0805 46.0977 25.3764C46.2539 25.6723 46.332 26.0357 46.332 26.4666V30H45.6999V26.5057C45.6999 26.0582 45.5745 25.7043 45.3235 25.4439C45.0749 25.1835 44.7411 25.0533 44.3221 25.0533C44.0356 25.0533 43.7811 25.1148 43.5586 25.2379C43.3361 25.361 43.1597 25.5386 43.0295 25.7706C42.9016 26.0002 42.8377 26.2737 42.8377 26.5909ZM50.0776 32.1591C49.7059 32.1591 49.3804 32.1106 49.101 32.0135C48.8217 31.9188 48.5861 31.7886 48.3944 31.6229C48.2026 31.4571 48.0534 31.2713 47.9469 31.0653L48.4654 30.7244C48.5435 30.8617 48.6477 30.9967 48.7779 31.1293C48.9105 31.2618 49.0821 31.3719 49.2928 31.4595C49.5059 31.5471 49.7675 31.5909 50.0776 31.5909C50.5605 31.5909 50.95 31.4702 51.2459 31.2287C51.5442 30.9872 51.6934 30.612 51.6934 30.103V28.8743H51.6365C51.5632 29.04 51.4578 29.2057 51.3205 29.3714C51.1832 29.5348 51.0033 29.6709 50.7807 29.7798C50.5605 29.8887 50.2871 29.9432 49.9604 29.9432C49.5248 29.9432 49.1377 29.8355 48.7992 29.62C48.463 29.4046 48.1979 29.0968 48.0037 28.6967C47.812 28.2943 47.7161 27.8149 47.7161 27.2585C47.7161 26.7069 47.8096 26.2216 47.9966 25.8026C48.186 25.3835 48.45 25.0568 48.7885 24.8224C49.1271 24.5881 49.5212 24.4709 49.9711 24.4709C50.3049 24.4709 50.5819 24.5301 50.802 24.6484C51.0222 24.7644 51.1986 24.9089 51.3311 25.0817C51.4661 25.2545 51.5714 25.4226 51.6472 25.5859H51.7111V24.5455H52.329V30.142C52.329 30.6037 52.2308 30.9837 52.0343 31.282C51.8378 31.5803 51.5703 31.8004 51.2317 31.9425C50.8932 32.0869 50.5085 32.1591 50.0776 32.1591ZM50.035 29.3643C50.3854 29.3643 50.6848 29.2803 50.9334 29.1122C51.182 28.9418 51.3726 28.6979 51.5051 28.3807C51.6377 28.0634 51.704 27.6858 51.704 27.2479C51.704 26.8217 51.6389 26.4441 51.5087 26.1151C51.3785 25.7836 51.1891 25.5232 50.9405 25.3338C50.6943 25.142 50.3925 25.0462 50.035 25.0462C49.6704 25.0462 49.3626 25.1444 49.1117 25.3409C48.8607 25.5374 48.6713 25.8026 48.5435 26.1364C48.4157 26.4678 48.3517 26.8383 48.3517 27.2479C48.3517 27.6645 48.4168 28.0327 48.5471 28.3523C48.6773 28.6695 48.8678 28.9181 49.1188 29.098C49.3697 29.2756 49.6751 29.3643 50.035 29.3643ZM56.815 32.0455V24.5455H57.4293V25.5859H57.5039C57.5797 25.4226 57.6838 25.2557 57.8164 25.0852C57.949 24.9124 58.1242 24.7668 58.342 24.6484C58.5621 24.5301 58.8391 24.4709 59.1729 24.4709C59.6228 24.4709 60.0157 24.5893 60.3519 24.826C60.6905 25.0604 60.9532 25.3894 61.1403 25.8132C61.3297 26.2346 61.4244 26.7259 61.4244 27.2869C61.4244 27.8504 61.3297 28.344 61.1403 28.7678C60.9532 29.1915 60.6905 29.5218 60.3519 29.7585C60.0157 29.9953 59.6251 30.1136 59.18 30.1136C58.851 30.1136 58.5752 30.0545 58.3526 29.9361C58.1325 29.8177 57.9537 29.6721 57.8164 29.4993C57.6815 29.3241 57.5773 29.1536 57.5039 28.9879H57.4471V32.0455H56.815ZM57.44 27.2763C57.44 27.7166 57.5051 28.1072 57.6353 28.4482C57.7679 28.7867 57.9573 29.053 58.2035 29.2472C58.4521 29.4389 58.7527 29.5348 59.1055 29.5348C59.4677 29.5348 59.7731 29.4354 60.0217 29.2365C60.2726 29.0353 60.4632 28.7642 60.5934 28.4233C60.726 28.0824 60.7923 27.7 60.7923 27.2763C60.7923 26.8572 60.7272 26.4796 60.5969 26.1435C60.4691 25.8073 60.2797 25.541 60.0288 25.3445C59.7778 25.1456 59.4701 25.0462 59.1055 25.0462C58.7504 25.0462 58.4485 25.142 58.1999 25.3338C57.9513 25.5232 57.762 25.786 57.6317 26.1222C57.5039 26.456 57.44 26.8407 57.44 27.2763ZM63.4432 22.7273V30H62.8111V22.7273H63.4432ZM66.6392 30.1243C66.3101 30.1243 66.0095 30.0604 65.7372 29.9325C65.465 29.8023 65.2483 29.6153 65.0874 29.3714C64.9264 29.1252 64.8459 28.8269 64.8459 28.4766C64.8459 28.2067 64.8968 27.9794 64.9986 27.7947C65.1004 27.6101 65.2448 27.4586 65.4318 27.3402C65.6188 27.2218 65.8402 27.1283 66.0959 27.0597C66.3516 26.991 66.6333 26.9377 66.9411 26.8999C67.2464 26.862 67.5045 26.8288 67.7152 26.8004C67.9283 26.772 68.0904 26.727 68.2017 26.6655C68.313 26.6039 68.3686 26.5045 68.3686 26.3672V26.2393C68.3686 25.8677 68.2573 25.5753 68.0348 25.3622C67.8146 25.1468 67.4974 25.0391 67.0831 25.0391C66.6901 25.0391 66.3693 25.1255 66.1207 25.2983C65.8745 25.4711 65.7017 25.6747 65.6023 25.9091L65.0021 25.6925C65.1252 25.3942 65.2957 25.1562 65.5135 24.9787C65.7313 24.7988 65.9751 24.6697 66.245 24.5916C66.5149 24.5111 66.7884 24.4709 67.0653 24.4709C67.2737 24.4709 67.4903 24.4981 67.7152 24.5526C67.9425 24.607 68.1532 24.7017 68.3473 24.8366C68.5414 24.9692 68.6989 25.1551 68.8196 25.3942C68.9403 25.6309 69.0007 25.9316 69.0007 26.2962V30H68.3686V29.1371H68.3295C68.2538 29.2981 68.1413 29.4543 67.9922 29.6058C67.843 29.7573 67.656 29.8816 67.4311 29.9787C67.2062 30.0758 66.9422 30.1243 66.6392 30.1243ZM66.7244 29.5455C67.0606 29.5455 67.3518 29.4709 67.598 29.3217C67.8442 29.1726 68.0336 28.9749 68.1662 28.7287C68.3011 28.4801 68.3686 28.2067 68.3686 27.9084V27.12C68.3213 27.165 68.242 27.2053 68.1307 27.2408C68.0218 27.2763 67.8951 27.3082 67.7507 27.3366C67.6087 27.3627 67.4666 27.3852 67.3246 27.4041C67.1825 27.4231 67.0547 27.4396 66.9411 27.4538C66.6333 27.4917 66.3705 27.5509 66.1527 27.6314C65.9349 27.7119 65.768 27.8232 65.652 27.9652C65.536 28.1049 65.478 28.2848 65.478 28.505C65.478 28.8364 65.5964 29.0933 65.8331 29.2756C66.0698 29.4555 66.367 29.5455 66.7244 29.5455ZM72.8306 24.5455V25.0959H70.2276V24.5455H72.8306ZM71.0408 23.2386H71.6765V28.576C71.6765 28.8033 71.7156 28.982 71.7937 29.1122C71.8718 29.2401 71.9736 29.3312 72.0991 29.3857C72.2246 29.4377 72.3583 29.4638 72.5004 29.4638C72.5832 29.4638 72.6542 29.459 72.7134 29.4496C72.7726 29.4377 72.8247 29.4259 72.8697 29.4141L73.0046 29.9858C72.9431 30.0095 72.8673 30.0308 72.7773 30.0497C72.6874 30.071 72.5761 30.0817 72.4435 30.0817C72.2115 30.0817 71.9878 30.0308 71.7724 29.929C71.5593 29.8272 71.3841 29.6757 71.2468 29.4744C71.1095 29.2732 71.0408 29.0234 71.0408 28.7251V23.2386ZM76.5105 24.5455V25.0959H73.8294V24.5455H76.5105ZM74.6674 30V23.7464C74.6674 23.4529 74.7349 23.2055 74.8699 23.0043C75.0072 22.803 75.1859 22.6503 75.4061 22.5462C75.6262 22.442 75.8594 22.3899 76.1056 22.3899C76.2714 22.3899 76.4087 22.4041 76.5176 22.4325C76.6288 22.4586 76.7164 22.4846 76.7804 22.5107L76.5957 23.0646C76.5484 23.0504 76.4904 23.0339 76.4217 23.0149C76.353 22.996 76.2666 22.9865 76.1625 22.9865C75.8878 22.9865 75.676 23.0634 75.5268 23.2173C75.3777 23.3712 75.3031 23.5914 75.3031 23.8778L75.2995 30H74.6674ZM79.6674 30.1136C79.1963 30.1136 78.7797 29.9941 78.4174 29.755C78.0576 29.5159 77.7759 29.1856 77.5723 28.7642C77.3687 28.3404 77.2669 27.8516 77.2669 27.2976C77.2669 26.7389 77.3687 26.2476 77.5723 25.8239C77.7759 25.3977 78.0576 25.0663 78.4174 24.8295C78.7797 24.5904 79.1963 24.4709 79.6674 24.4709C80.1386 24.4709 80.554 24.5904 80.9139 24.8295C81.2737 25.0687 81.5555 25.4001 81.7591 25.8239C81.965 26.2476 82.068 26.7389 82.068 27.2976C82.068 27.8516 81.9662 28.3404 81.7626 28.7642C81.559 29.1856 81.2761 29.5159 80.9139 29.755C80.554 29.9941 80.1386 30.1136 79.6674 30.1136ZM79.6674 29.5348C80.0462 29.5348 80.367 29.433 80.6298 29.2294C80.8926 29.0258 81.0914 28.7547 81.2264 28.4162C81.3637 28.0777 81.4324 27.7048 81.4324 27.2976C81.4324 26.8904 81.3637 26.5163 81.2264 26.1754C81.0914 25.8345 80.8926 25.5611 80.6298 25.3551C80.367 25.1491 80.0462 25.0462 79.6674 25.0462C79.291 25.0462 78.9702 25.1491 78.7051 25.3551C78.4423 25.5611 78.2422 25.8345 78.1049 26.1754C77.97 26.5163 77.9025 26.8904 77.9025 27.2976C77.9025 27.7048 77.97 28.0777 78.1049 28.4162C78.2422 28.7547 78.4423 29.0258 78.7051 29.2294C78.9679 29.433 79.2886 29.5348 79.6674 29.5348ZM83.4556 30V24.5455H84.07V25.3835H84.1161C84.225 25.1089 84.4144 24.8875 84.6843 24.7195C84.9566 24.549 85.2643 24.4638 85.6076 24.4638C85.6597 24.4638 85.7177 24.465 85.7816 24.4673C85.8455 24.4697 85.8988 24.4721 85.9414 24.4744V25.1172C85.913 25.1125 85.8633 25.1054 85.7923 25.0959C85.7212 25.0864 85.6443 25.0817 85.5614 25.0817C85.2773 25.0817 85.024 25.142 84.8015 25.2628C84.5813 25.3812 84.4073 25.5457 84.2795 25.7564C84.1516 25.9671 84.0877 26.2074 84.0877 26.4773V30H83.4556ZM87.0201 30V24.5455H87.6344V25.3835H87.6912C87.8001 25.1018 87.9812 24.8804 88.2346 24.7195C88.4902 24.5561 88.7968 24.4744 89.1543 24.4744C89.5307 24.4744 89.8397 24.5632 90.0811 24.7408C90.325 24.916 90.5073 25.1574 90.628 25.4652H90.6742C90.7973 25.1622 90.9973 24.9219 91.2743 24.7443C91.5537 24.5644 91.8922 24.4744 92.29 24.4744C92.7966 24.4744 93.1967 24.6342 93.4902 24.9538C93.7838 25.2711 93.9306 25.7351 93.9306 26.3459V30H93.2985V26.3459C93.2985 25.915 93.1884 25.5919 92.9682 25.3764C92.748 25.161 92.458 25.0533 92.0982 25.0533C91.6815 25.0533 91.3607 25.1811 91.1358 25.4368C90.9109 25.6925 90.7985 26.0168 90.7985 26.4098V30H90.1522V26.2891C90.1522 25.9197 90.0492 25.6214 89.8432 25.3942C89.6373 25.1669 89.3472 25.0533 88.9732 25.0533C88.7222 25.0533 88.4962 25.1148 88.2949 25.2379C88.0961 25.361 87.9386 25.5327 87.8226 25.7528C87.709 25.9706 87.6522 26.2216 87.6522 26.5057V30H87.0201ZM99.2688 25.7422L98.69 25.9055C98.6332 25.7422 98.5527 25.5942 98.4485 25.4616C98.3443 25.3291 98.2082 25.2237 98.0401 25.1456C97.8744 25.0675 97.6684 25.0284 97.4222 25.0284C97.0529 25.0284 96.7499 25.116 96.5131 25.2912C96.2764 25.4664 96.158 25.6925 96.158 25.9695C96.158 26.2038 96.2385 26.3944 96.3995 26.5412C96.5629 26.6856 96.8138 26.8004 97.1523 26.8857L97.9762 27.0881C98.4331 27.1993 98.7752 27.3757 99.0025 27.6172C99.2321 27.8587 99.3469 28.1617 99.3469 28.5263C99.3469 28.834 99.2617 29.1075 99.0913 29.3466C98.9208 29.5857 98.6829 29.7739 98.3775 29.9112C98.0745 30.0462 97.7229 30.1136 97.3228 30.1136C96.7901 30.1136 96.351 29.9941 96.0053 29.755C95.6597 29.5135 95.4383 29.1655 95.3413 28.7109L95.9485 28.5618C96.0266 28.8861 96.1793 29.1312 96.4066 29.2969C96.6362 29.4626 96.9381 29.5455 97.3121 29.5455C97.7312 29.5455 98.0662 29.4519 98.3171 29.2649C98.5681 29.0755 98.6935 28.8388 98.6935 28.5547C98.6935 28.3345 98.6201 28.1499 98.4734 28.0007C98.3266 27.8492 98.104 27.7379 97.8058 27.6669L96.9144 27.4538C96.4409 27.3402 96.0906 27.1603 95.8633 26.9141C95.636 26.6679 95.5224 26.3625 95.5224 25.9979C95.5224 25.6972 95.604 25.4332 95.7674 25.206C95.9308 24.9763 96.1557 24.7964 96.4421 24.6662C96.7286 24.536 97.0553 24.4709 97.4222 24.4709C97.9218 24.4709 98.3207 24.5845 98.619 24.8118C98.9196 25.0367 99.1362 25.3468 99.2688 25.7422ZM22.8208 42L21.1731 36.5455H21.8407L23.1333 41.0447H23.1795L24.4686 36.5455H25.1397L26.4181 41.0341H26.4679L27.7605 36.5455H28.4281L26.7804 42H26.127L24.8343 37.5291H24.7669L23.4743 42H22.8208ZM29.6639 42V36.5455H30.2995V42H29.6639ZM29.987 35.608C29.8568 35.608 29.7456 35.5642 29.6532 35.4766C29.5609 35.3866 29.5147 35.2789 29.5147 35.1534C29.5147 35.0279 29.5609 34.9214 29.6532 34.8338C29.7456 34.7438 29.8568 34.6989 29.987 34.6989C30.1172 34.6989 30.2285 34.7438 30.3208 34.8338C30.4132 34.9214 30.4593 35.0279 30.4593 35.1534C30.4593 35.2789 30.4132 35.3866 30.3208 35.4766C30.2285 35.5642 30.1172 35.608 29.987 35.608ZM34.1197 36.5455V37.0959H31.5167V36.5455H34.1197ZM32.3299 35.2386H32.9656V40.576C32.9656 40.8033 33.0046 40.982 33.0827 41.1122C33.1609 41.2401 33.2627 41.3312 33.3881 41.3857C33.5136 41.4377 33.6474 41.4638 33.7894 41.4638C33.8723 41.4638 33.9433 41.459 34.0025 41.4496C34.0617 41.4377 34.1138 41.4259 34.1587 41.4141L34.2937 41.9858C34.2321 42.0095 34.1564 42.0308 34.0664 42.0497C33.9764 42.071 33.8652 42.0817 33.7326 42.0817C33.5006 42.0817 33.2769 42.0308 33.0614 41.929C32.8484 41.8272 32.6732 41.6757 32.5359 41.4744C32.3986 41.2732 32.3299 41.0234 32.3299 40.7251V35.2386ZM36.3045 38.5909V42H35.6724V34.7273H36.3045V37.4013H36.3613C36.4892 37.1196 36.6868 36.8946 36.9544 36.7266C37.2243 36.5585 37.5652 36.4744 37.9771 36.4744C38.3464 36.4744 38.6708 36.5502 38.9501 36.7017C39.2295 36.8532 39.4473 37.0769 39.6035 37.3729C39.7598 37.6688 39.8379 38.0334 39.8379 38.4666V42H39.2022V38.5057C39.2022 38.0559 39.0768 37.7019 38.8258 37.4439C38.5772 37.1835 38.2411 37.0533 37.8173 37.0533C37.5261 37.0533 37.2669 37.1148 37.0396 37.2379C36.8123 37.361 36.6324 37.5386 36.4998 37.7706C36.3696 38.0002 36.3045 38.2737 36.3045 38.5909ZM45.8384 42.1243C45.5094 42.1243 45.2087 42.0604 44.9364 41.9325C44.6642 41.8023 44.4476 41.6153 44.2866 41.3714C44.1256 41.1252 44.0451 40.8269 44.0451 40.4766C44.0451 40.2067 44.096 39.9794 44.1978 39.7947C44.2996 39.6101 44.444 39.4586 44.631 39.3402C44.8181 39.2218 45.0394 39.1283 45.2951 39.0597C45.5508 38.991 45.8325 38.9377 46.1403 38.8999C46.4457 38.862 46.7037 38.8288 46.9144 38.8004C47.1275 38.772 47.2897 38.727 47.4009 38.6655C47.5122 38.6039 47.5678 38.5045 47.5678 38.3672V38.2393C47.5678 37.8677 47.4566 37.5753 47.234 37.3622C47.0138 37.1468 46.6966 37.0391 46.2823 37.0391C45.8893 37.0391 45.5685 37.1255 45.32 37.2983C45.0737 37.4711 44.9009 37.6747 44.8015 37.9091L44.2013 37.6925C44.3245 37.3942 44.4949 37.1562 44.7127 36.9787C44.9305 36.7988 45.1744 36.6697 45.4442 36.5916C45.7141 36.5111 45.9876 36.4709 46.2646 36.4709C46.4729 36.4709 46.6895 36.4981 46.9144 36.5526C47.1417 36.607 47.3524 36.7017 47.5465 36.8366C47.7406 36.9692 47.8981 37.1551 48.0188 37.3942C48.1396 37.6309 48.1999 37.9316 48.1999 38.2962V42H47.5678V41.1371H47.5288C47.453 41.2981 47.3406 41.4543 47.1914 41.6058C47.0423 41.7573 46.8552 41.8816 46.6303 41.9787C46.4054 42.0758 46.1415 42.1243 45.8384 42.1243ZM45.9237 41.5455C46.2598 41.5455 46.551 41.4709 46.7972 41.3217C47.0434 41.1726 47.2328 40.9749 47.3654 40.7287C47.5004 40.4801 47.5678 40.2067 47.5678 39.9084V39.12C47.5205 39.165 47.4412 39.2053 47.3299 39.2408C47.221 39.2763 47.0943 39.3082 46.9499 39.3366C46.8079 39.3627 46.6658 39.3852 46.5238 39.4041C46.3817 39.4231 46.2539 39.4396 46.1403 39.4538C45.8325 39.4917 45.5697 39.5509 45.3519 39.6314C45.1341 39.7119 44.9672 39.8232 44.8512 39.9652C44.7352 40.1049 44.6772 40.2848 44.6772 40.505C44.6772 40.8364 44.7956 41.0933 45.0323 41.2756C45.2691 41.4555 45.5662 41.5455 45.9237 41.5455ZM49.8814 42V36.5455H50.4957V37.3835H50.5419C50.6508 37.1089 50.8402 36.8875 51.1101 36.7195C51.3823 36.549 51.6901 36.4638 52.0334 36.4638C52.0855 36.4638 52.1435 36.465 52.2074 36.4673C52.2713 36.4697 52.3246 36.4721 52.3672 36.4744V37.1172C52.3388 37.1125 52.2891 37.1054 52.218 37.0959C52.147 37.0864 52.0701 37.0817 51.9872 37.0817C51.7031 37.0817 51.4498 37.142 51.2273 37.2628C51.0071 37.3812 50.8331 37.5457 50.7053 37.7564C50.5774 37.9671 50.5135 38.2074 50.5135 38.4773V42H49.8814ZM55.9361 36.5455V37.0959H53.3331V36.5455H55.9361ZM54.1463 35.2386H54.782V40.576C54.782 40.8033 54.821 40.982 54.8991 41.1122C54.9773 41.2401 55.0791 41.3312 55.2045 41.3857C55.33 41.4377 55.4638 41.4638 55.6058 41.4638C55.6887 41.4638 55.7597 41.459 55.8189 41.4496C55.8781 41.4377 55.9302 41.4259 55.9751 41.4141L56.1101 41.9858C56.0485 42.0095 55.9728 42.0308 55.8828 42.0497C55.7929 42.071 55.6816 42.0817 55.549 42.0817C55.317 42.0817 55.0933 42.0308 54.8778 41.929C54.6648 41.8272 54.4896 41.6757 54.3523 41.4744C54.215 41.2732 54.1463 41.0234 54.1463 40.7251V35.2386ZM62.3148 42.1136C61.8271 42.1136 61.4022 41.9917 61.04 41.7479C60.6801 41.504 60.4007 41.1702 60.2019 40.7464C60.003 40.3227 59.9036 39.8397 59.9036 39.2976C59.9036 38.7507 60.0042 38.2642 60.2054 37.8381C60.409 37.4119 60.6908 37.0781 61.0506 36.8366C61.4105 36.5928 61.8283 36.4709 62.3042 36.4709C62.6687 36.4709 62.999 36.5419 63.2949 36.6839C63.5908 36.8236 63.8347 37.0213 64.0265 37.277C64.2206 37.5303 64.3425 37.8262 64.3922 38.1648H63.753C63.6867 37.857 63.5269 37.5942 63.2736 37.3764C63.0227 37.1562 62.7031 37.0462 62.3148 37.0462C61.9668 37.0462 61.659 37.1409 61.3915 37.3303C61.124 37.5173 60.9145 37.7789 60.763 38.1151C60.6138 38.4489 60.5392 38.8359 60.5392 39.2763C60.5392 39.719 60.6126 40.1108 60.7594 40.4517C60.9062 40.7902 61.1122 41.0554 61.3773 41.2472C61.6448 41.4389 61.9573 41.5348 62.3148 41.5348C62.5563 41.5348 62.7765 41.4898 62.9753 41.3999C63.1766 41.3075 63.3446 41.1773 63.4796 41.0092C63.6169 40.8411 63.7092 40.6411 63.7566 40.4091H64.3958C64.3484 40.7382 64.2312 41.0317 64.0442 41.2898C63.8596 41.5455 63.6193 41.7467 63.3233 41.8935C63.0298 42.0402 62.6936 42.1136 62.3148 42.1136ZM67.8706 42.1136C67.3994 42.1136 66.9828 41.9941 66.6206 41.755C66.2607 41.5159 65.979 41.1856 65.7754 40.7642C65.5718 40.3404 65.47 39.8516 65.47 39.2976C65.47 38.7389 65.5718 38.2476 65.7754 37.8239C65.979 37.3977 66.2607 37.0663 66.6206 36.8295C66.9828 36.5904 67.3994 36.4709 67.8706 36.4709C68.3417 36.4709 68.7572 36.5904 69.117 36.8295C69.4769 37.0687 69.7586 37.4001 69.9622 37.8239C70.1681 38.2476 70.2711 38.7389 70.2711 39.2976C70.2711 39.8516 70.1693 40.3404 69.9657 40.7642C69.7621 41.1856 69.4792 41.5159 69.117 41.755C68.7572 41.9941 68.3417 42.1136 67.8706 42.1136ZM67.8706 41.5348C68.2493 41.5348 68.5701 41.433 68.8329 41.2294C69.0957 41.0258 69.2946 40.7547 69.4295 40.4162C69.5668 40.0777 69.6355 39.7048 69.6355 39.2976C69.6355 38.8904 69.5668 38.5163 69.4295 38.1754C69.2946 37.8345 69.0957 37.5611 68.8329 37.3551C68.5701 37.1491 68.2493 37.0462 67.8706 37.0462C67.4941 37.0462 67.1734 37.1491 66.9082 37.3551C66.6454 37.5611 66.4454 37.8345 66.3081 38.1754C66.1731 38.5163 66.1056 38.8904 66.1056 39.2976C66.1056 39.7048 66.1731 40.0777 66.3081 40.4162C66.4454 40.7547 66.6454 41.0258 66.9082 41.2294C67.171 41.433 67.4918 41.5348 67.8706 41.5348ZM75.1246 39.9155V36.5455H75.7567V42H75.1246V41.0945H75.0749C74.9471 41.3738 74.7447 41.607 74.4677 41.794C74.1907 41.9787 73.8522 42.071 73.4521 42.071C73.104 42.071 72.7951 41.9953 72.5252 41.8438C72.2553 41.6899 72.0434 41.465 71.8896 41.169C71.7357 40.8731 71.6587 40.5097 71.6587 40.0788V36.5455H72.2908V40.0398C72.2908 40.4659 72.4163 40.8092 72.6673 41.0696C72.9182 41.3277 73.2402 41.4567 73.6332 41.4567C73.8794 41.4567 74.1161 41.3975 74.3434 41.2791C74.5707 41.1607 74.7577 40.9879 74.9045 40.7607C75.0513 40.531 75.1246 40.2493 75.1246 39.9155ZM77.4302 42V36.5455H78.0446V37.3835H78.0907C78.1996 37.1089 78.389 36.8875 78.6589 36.7195C78.9312 36.549 79.2389 36.4638 79.5822 36.4638C79.6343 36.4638 79.6923 36.465 79.7562 36.4673C79.8201 36.4697 79.8734 36.4721 79.916 36.4744V37.1172C79.8876 37.1125 79.8379 37.1054 79.7669 37.0959C79.6958 37.0864 79.6189 37.0817 79.536 37.0817C79.252 37.0817 78.9986 37.142 78.7761 37.2628C78.5559 37.3812 78.3819 37.5457 78.2541 37.7564C78.1262 37.9671 78.0623 38.2074 78.0623 38.4773V42H77.4302ZM84.6594 37.7422L84.0806 37.9055C84.0238 37.7422 83.9433 37.5942 83.8391 37.4616C83.735 37.3291 83.5988 37.2237 83.4308 37.1456C83.265 37.0675 83.0591 37.0284 82.8129 37.0284C82.4435 37.0284 82.1405 37.116 81.9038 37.2912C81.667 37.4664 81.5487 37.6925 81.5487 37.9695C81.5487 38.2038 81.6291 38.3944 81.7901 38.5412C81.9535 38.6856 82.2044 38.8004 82.543 38.8857L83.3668 39.0881C83.8237 39.1993 84.1658 39.3757 84.3931 39.6172C84.6228 39.8587 84.7376 40.1617 84.7376 40.5263C84.7376 40.834 84.6523 41.1075 84.4819 41.3466C84.3114 41.5857 84.0735 41.7739 83.7681 41.9112C83.4651 42.0462 83.1135 42.1136 82.7134 42.1136C82.1808 42.1136 81.7416 41.9941 81.396 41.755C81.0503 41.5135 80.829 41.1655 80.7319 40.7109L81.3391 40.5618C81.4173 40.8861 81.57 41.1312 81.7972 41.2969C82.0269 41.4626 82.3287 41.5455 82.7028 41.5455C83.1218 41.5455 83.4568 41.4519 83.7077 41.2649C83.9587 41.0755 84.0842 40.8388 84.0842 40.5547C84.0842 40.3345 84.0108 40.1499 83.864 40.0007C83.7172 39.8492 83.4947 39.7379 83.1964 39.6669L82.305 39.4538C81.8316 39.3402 81.4812 39.1603 81.2539 38.9141C81.0266 38.6679 80.913 38.3625 80.913 37.9979C80.913 37.6972 80.9947 37.4332 81.158 37.206C81.3214 36.9763 81.5463 36.7964 81.8327 36.6662C82.1192 36.536 82.4459 36.4709 82.8129 36.4709C83.3124 36.4709 83.7113 36.5845 84.0096 36.8118C84.3103 37.0367 84.5269 37.3468 84.6594 37.7422ZM88.3269 42.1136C87.8179 42.1136 87.3775 41.9953 87.0059 41.7585C86.6342 41.5194 86.3465 41.1892 86.1429 40.7678C85.9417 40.344 85.8411 39.8563 85.8411 39.3047C85.8411 38.7554 85.9417 38.2678 86.1429 37.8416C86.3465 37.4131 86.6271 37.0781 86.9846 36.8366C87.3444 36.5928 87.7599 36.4709 88.231 36.4709C88.5269 36.4709 88.8122 36.5253 89.0868 36.6342C89.3614 36.7408 89.6077 36.9053 89.8255 37.1278C90.0456 37.348 90.2196 37.6262 90.3475 37.9624C90.4753 38.2962 90.5392 38.6915 90.5392 39.1484V39.4609H86.2779V38.9034H89.8929C89.8929 38.553 89.8219 38.2382 89.6799 37.9588C89.5402 37.6771 89.3449 37.4545 89.0939 37.2912C88.8453 37.1278 88.5577 37.0462 88.231 37.0462C87.8854 37.0462 87.5811 37.1385 87.3184 37.3232C87.0556 37.5078 86.8496 37.7517 86.7005 38.0547C86.5537 38.3577 86.4791 38.6892 86.4767 39.049V39.3828C86.4767 39.8161 86.5513 40.1948 86.7005 40.5192C86.852 40.8411 87.0662 41.0909 87.3432 41.2685C87.6202 41.446 87.9481 41.5348 88.3269 41.5348C88.5849 41.5348 88.811 41.4946 89.0051 41.4141C89.2016 41.3336 89.3662 41.2259 89.4988 41.0909C89.6337 40.9536 89.7355 40.8033 89.8042 40.6399L90.4043 40.8352C90.3214 41.0649 90.1853 41.2768 89.9959 41.4709C89.8089 41.665 89.5745 41.8213 89.2928 41.9396C89.0134 42.0556 88.6915 42.1136 88.3269 42.1136ZM95.5969 37.7422L95.0181 37.9055C94.9613 37.7422 94.8808 37.5942 94.7766 37.4616C94.6725 37.3291 94.5363 37.2237 94.3683 37.1456C94.2025 37.0675 93.9966 37.0284 93.7504 37.0284C93.381 37.0284 93.078 37.116 92.8413 37.2912C92.6045 37.4664 92.4862 37.6925 92.4862 37.9695C92.4862 38.2038 92.5666 38.3944 92.7276 38.5412C92.891 38.6856 93.1419 38.8004 93.4805 38.8857L94.3043 39.0881C94.7612 39.1993 95.1033 39.3757 95.3306 39.6172C95.5603 39.8587 95.6751 40.1617 95.6751 40.5263C95.6751 40.834 95.5898 41.1075 95.4194 41.3466C95.2489 41.5857 95.011 41.7739 94.7056 41.9112C94.4026 42.0462 94.051 42.1136 93.6509 42.1136C93.1183 42.1136 92.6791 41.9941 92.3335 41.755C91.9878 41.5135 91.7665 41.1655 91.6694 40.7109L92.2766 40.5618C92.3548 40.8861 92.5075 41.1312 92.7347 41.2969C92.9644 41.4626 93.2662 41.5455 93.6403 41.5455C94.0593 41.5455 94.3943 41.4519 94.6452 41.2649C94.8962 41.0755 95.0217 40.8388 95.0217 40.5547C95.0217 40.3345 94.9483 40.1499 94.8015 40.0007C94.6547 39.8492 94.4322 39.7379 94.1339 39.6669L93.2425 39.4538C92.7691 39.3402 92.4187 39.1603 92.1914 38.9141C91.9641 38.6679 91.8505 38.3625 91.8505 37.9979C91.8505 37.6972 91.9322 37.4332 92.0955 37.206C92.2589 36.9763 92.4838 36.7964 92.7702 36.6662C93.0567 36.536 93.3834 36.4709 93.7504 36.4709C94.2499 36.4709 94.6488 36.5845 94.9471 36.8118C95.2478 37.0367 95.4644 37.3468 95.5969 37.7422ZM26.0249 54.1136C25.5774 54.1136 25.1856 53.9953 24.8494 53.7585C24.5133 53.5218 24.2505 53.1915 24.0611 52.7678C23.8741 52.344 23.7805 51.8504 23.7805 51.2869C23.7805 50.7259 23.8741 50.2346 24.0611 49.8132C24.2505 49.3894 24.5144 49.0604 24.853 48.826C25.1915 48.5893 25.5857 48.4709 26.0355 48.4709C26.367 48.4709 26.6428 48.5301 26.8629 48.6484C27.0831 48.7644 27.2595 48.9089 27.392 49.0817C27.5246 49.2545 27.6276 49.4226 27.701 49.5859H27.7578V46.7273H28.3935V54H27.7756V52.9879H27.701C27.6276 53.1536 27.5234 53.3241 27.3885 53.4993C27.2536 53.6721 27.0748 53.8177 26.8523 53.9361C26.6321 54.0545 26.3563 54.1136 26.0249 54.1136ZM26.0994 53.5348C26.4522 53.5348 26.7528 53.4389 27.0014 53.2472C27.25 53.053 27.4394 52.7867 27.5696 52.4482C27.7022 52.1072 27.7685 51.7166 27.7685 51.2763C27.7685 50.8407 27.7034 50.456 27.5732 50.1222C27.4429 49.786 27.2536 49.5232 27.005 49.3338C26.7564 49.142 26.4545 49.0462 26.0994 49.0462C25.7348 49.0462 25.4271 49.1456 25.1761 49.3445C24.9276 49.541 24.7382 49.8073 24.608 50.1435C24.4801 50.4796 24.4162 50.8572 24.4162 51.2763C24.4162 51.7 24.4813 52.0824 24.6115 52.4233C24.7417 52.7642 24.9311 53.0353 25.1797 53.2365C25.4306 53.4354 25.7372 53.5348 26.0994 53.5348ZM32.3139 54.1136C31.8428 54.1136 31.4261 53.9941 31.0639 53.755C30.7041 53.5159 30.4223 53.1856 30.2188 52.7642C30.0152 52.3404 29.9134 51.8516 29.9134 51.2976C29.9134 50.7389 30.0152 50.2476 30.2188 49.8239C30.4223 49.3977 30.7041 49.0663 31.0639 48.8295C31.4261 48.5904 31.8428 48.4709 32.3139 48.4709C32.785 48.4709 33.2005 48.5904 33.5604 48.8295C33.9202 49.0687 34.2019 49.4001 34.4055 49.8239C34.6115 50.2476 34.7145 50.7389 34.7145 51.2976C34.7145 51.8516 34.6127 52.3404 34.4091 52.7642C34.2055 53.1856 33.9226 53.5159 33.5604 53.755C33.2005 53.9941 32.785 54.1136 32.3139 54.1136ZM32.3139 53.5348C32.6927 53.5348 33.0135 53.433 33.2763 53.2294C33.5391 53.0258 33.7379 52.7547 33.8729 52.4162C34.0102 52.0777 34.0788 51.7048 34.0788 51.2976C34.0788 50.8904 34.0102 50.5163 33.8729 50.1754C33.7379 49.8345 33.5391 49.5611 33.2763 49.3551C33.0135 49.1491 32.6927 49.0462 32.3139 49.0462C31.9375 49.0462 31.6167 49.1491 31.3516 49.3551C31.0888 49.5611 30.8887 49.8345 30.7514 50.1754C30.6165 50.5163 30.549 50.8904 30.549 51.2976C30.549 51.7048 30.6165 52.0777 30.7514 52.4162C30.8887 52.7547 31.0888 53.0258 31.3516 53.2294C31.6143 53.433 31.9351 53.5348 32.3139 53.5348ZM36.7342 50.5909V54H36.1021V48.5455H36.7164V49.4013H36.7733C36.9011 49.1219 37.1 48.8982 37.3699 48.7301C37.6421 48.5597 37.9783 48.4744 38.3784 48.4744C38.7453 48.4744 39.0673 48.5514 39.3443 48.7053C39.6236 48.8568 39.8403 49.0805 39.9941 49.3764C40.1504 49.6723 40.2285 50.0357 40.2285 50.4666V54H39.5964V50.5057C39.5964 50.0582 39.4709 49.7043 39.22 49.4439C38.9714 49.1835 38.6376 49.0533 38.2186 49.0533C37.9321 49.0533 37.6776 49.1148 37.4551 49.2379C37.2325 49.361 37.0562 49.5386 36.926 49.7706C36.7981 50.0002 36.7342 50.2737 36.7342 50.5909ZM42.4684 46.7273V47.3665C42.4684 47.5606 42.4329 47.7678 42.3619 47.9879C42.2932 48.2057 42.1914 48.4176 42.0565 48.6236C41.9239 48.8272 41.7629 49.0047 41.5735 49.1562L41.229 48.8544C41.4066 48.6461 41.5569 48.4152 41.68 48.1619C41.8031 47.9062 41.8647 47.6446 41.8647 47.3771V46.7273H42.4684ZM45.9361 48.5455V49.0959H43.3331V48.5455H45.9361ZM44.1463 47.2386H44.782V52.576C44.782 52.8033 44.821 52.982 44.8991 53.1122C44.9773 53.2401 45.0791 53.3312 45.2045 53.3857C45.33 53.4377 45.4638 53.4638 45.6058 53.4638C45.6887 53.4638 45.7597 53.459 45.8189 53.4496C45.8781 53.4377 45.9302 53.4259 45.9751 53.4141L46.1101 53.9858C46.0485 54.0095 45.9728 54.0308 45.8828 54.0497C45.7929 54.071 45.6816 54.0817 45.549 54.0817C45.317 54.0817 45.0933 54.0308 44.8778 53.929C44.6648 53.8272 44.4896 53.6757 44.3523 53.4744C44.215 53.2732 44.1463 53.0234 44.1463 52.7251V47.2386ZM50.1841 54V48.5455H50.7985V49.3835H50.8553C50.9642 49.1018 51.1453 48.8804 51.3986 48.7195C51.6543 48.5561 51.9609 48.4744 52.3184 48.4744C52.6948 48.4744 53.0037 48.5632 53.2452 48.7408C53.4891 48.916 53.6713 49.1574 53.7921 49.4652H53.8382C53.9614 49.1622 54.1614 48.9219 54.4384 48.7443C54.7177 48.5644 55.0563 48.4744 55.454 48.4744C55.9606 48.4744 56.3607 48.6342 56.6543 48.9538C56.9479 49.2711 57.0946 49.7351 57.0946 50.3459V54H56.4625V50.3459C56.4625 49.915 56.3525 49.5919 56.1323 49.3764C55.9121 49.161 55.6221 49.0533 55.2623 49.0533C54.8456 49.0533 54.5248 49.1811 54.2999 49.4368C54.075 49.6925 53.9625 50.0168 53.9625 50.4098V54H53.3162V50.2891C53.3162 49.9197 53.2132 49.6214 53.0073 49.3942C52.8013 49.1669 52.5113 49.0533 52.1373 49.0533C51.8863 49.0533 51.6602 49.1148 51.459 49.2379C51.2601 49.361 51.1027 49.5327 50.9867 49.7528C50.873 49.9706 50.8162 50.2216 50.8162 50.5057V54H50.1841ZM60.2915 54.1243C59.9625 54.1243 59.6618 54.0604 59.3896 53.9325C59.1173 53.8023 58.9007 53.6153 58.7397 53.3714C58.5787 53.1252 58.4982 52.8269 58.4982 52.4766C58.4982 52.2067 58.5491 51.9794 58.6509 51.7947C58.7527 51.6101 58.8971 51.4586 59.0842 51.3402C59.2712 51.2218 59.4925 51.1283 59.7482 51.0597C60.0039 50.991 60.2856 50.9377 60.5934 50.8999C60.8988 50.862 61.1568 50.8288 61.3675 50.8004C61.5806 50.772 61.7428 50.727 61.854 50.6655C61.9653 50.6039 62.021 50.5045 62.021 50.3672V50.2393C62.021 49.8677 61.9097 49.5753 61.6871 49.3622C61.467 49.1468 61.1497 49.0391 60.7354 49.0391C60.3424 49.0391 60.0217 49.1255 59.7731 49.2983C59.5269 49.4711 59.354 49.6747 59.2546 49.9091L58.6545 49.6925C58.7776 49.3942 58.948 49.1562 59.1658 48.9787C59.3836 48.7988 59.6275 48.6697 59.8974 48.5916C60.1673 48.5111 60.4407 48.4709 60.7177 48.4709C60.926 48.4709 61.1426 48.4981 61.3675 48.5526C61.5948 48.607 61.8055 48.7017 61.9996 48.8366C62.1938 48.9692 62.3512 49.1551 62.4719 49.3942C62.5927 49.6309 62.6531 49.9316 62.6531 50.2962V54H62.021V53.1371H61.9819C61.9061 53.2981 61.7937 53.4543 61.6445 53.6058C61.4954 53.7573 61.3084 53.8816 61.0835 53.9787C60.8585 54.0758 60.5946 54.1243 60.2915 54.1243ZM60.3768 53.5455C60.7129 53.5455 61.0041 53.4709 61.2504 53.3217C61.4966 53.1726 61.686 52.9749 61.8185 52.7287C61.9535 52.4801 62.021 52.2067 62.021 51.9084V51.12C61.9736 51.165 61.8943 51.2053 61.783 51.2408C61.6741 51.2763 61.5475 51.3082 61.4031 51.3366C61.261 51.3627 61.119 51.3852 60.9769 51.4041C60.8349 51.4231 60.707 51.4396 60.5934 51.4538C60.2856 51.4917 60.0228 51.5509 59.805 51.6314C59.5872 51.7119 59.4203 51.8232 59.3043 51.9652C59.1883 52.1049 59.1303 52.2848 59.1303 52.505C59.1303 52.8364 59.2487 53.0933 59.4854 53.2756C59.7222 53.4555 60.0193 53.5455 60.3768 53.5455ZM64.9098 51.9403L64.9027 51.1129H65.0447L67.6016 48.5455H68.4006L65.8757 51.0739L65.8189 51.0845L64.9098 51.9403ZM64.3345 54V46.7273H64.9666V54H64.3345ZM67.733 54L65.517 51.1982L65.9716 50.7614L68.5426 54H67.733ZM71.5691 54.1136C71.0601 54.1136 70.6197 53.9953 70.248 53.7585C69.8764 53.5194 69.5887 53.1892 69.3851 52.7678C69.1839 52.344 69.0833 51.8563 69.0833 51.3047C69.0833 50.7554 69.1839 50.2678 69.3851 49.8416C69.5887 49.4131 69.8693 49.0781 70.2267 48.8366C70.5866 48.5928 71.0021 48.4709 71.4732 48.4709C71.7691 48.4709 72.0544 48.5253 72.329 48.6342C72.6036 48.7408 72.8498 48.9053 73.0676 49.1278C73.2878 49.348 73.4618 49.6262 73.5897 49.9624C73.7175 50.2962 73.7814 50.6915 73.7814 51.1484V51.4609H69.5201V50.9034H73.1351C73.1351 50.553 73.0641 50.2382 72.9221 49.9588C72.7824 49.6771 72.5871 49.4545 72.3361 49.2912C72.0875 49.1278 71.7999 49.0462 71.4732 49.0462C71.1275 49.0462 70.8233 49.1385 70.5605 49.3232C70.2978 49.5078 70.0918 49.7517 69.9426 50.0547C69.7959 50.3577 69.7213 50.6892 69.7189 51.049V51.3828C69.7189 51.8161 69.7935 52.1948 69.9426 52.5192C70.0942 52.8411 70.3084 53.0909 70.5854 53.2685C70.8624 53.446 71.1903 53.5348 71.5691 53.5348C71.8271 53.5348 72.0532 53.4946 72.2473 53.4141C72.4438 53.3336 72.6084 53.2259 72.7409 53.0909C72.8759 52.9536 72.9777 52.8033 73.0463 52.6399L73.6465 52.8352C73.5636 53.0649 73.4275 53.2768 73.2381 53.4709C73.0511 53.665 72.8167 53.8213 72.535 53.9396C72.2556 54.0556 71.9337 54.1136 71.5691 54.1136ZM79.5103 54.1243C79.1812 54.1243 78.8806 54.0604 78.6083 53.9325C78.3361 53.8023 78.1194 53.6153 77.9585 53.3714C77.7975 53.1252 77.717 52.8269 77.717 52.4766C77.717 52.2067 77.7679 51.9794 77.8697 51.7947C77.9715 51.6101 78.1159 51.4586 78.3029 51.3402C78.4899 51.2218 78.7113 51.1283 78.967 51.0597C79.2227 50.991 79.5044 50.9377 79.8121 50.8999C80.1175 50.862 80.3756 50.8288 80.5863 50.8004C80.7994 50.772 80.9615 50.727 81.0728 50.6655C81.1841 50.6039 81.2397 50.5045 81.2397 50.3672V50.2393C81.2397 49.8677 81.1284 49.5753 80.9059 49.3622C80.6857 49.1468 80.3685 49.0391 79.9542 49.0391C79.5612 49.0391 79.2404 49.1255 78.9918 49.2983C78.7456 49.4711 78.5728 49.6747 78.4734 49.9091L77.8732 49.6925C77.9963 49.3942 78.1668 49.1562 78.3846 48.9787C78.6024 48.7988 78.8462 48.6697 79.1161 48.5916C79.386 48.5111 79.6594 48.4709 79.9364 48.4709C80.1448 48.4709 80.3614 48.4981 80.5863 48.5526C80.8136 48.607 81.0243 48.7017 81.2184 48.8366C81.4125 48.9692 81.57 49.1551 81.6907 49.3942C81.8114 49.6309 81.8718 49.9316 81.8718 50.2962V54H81.2397V53.1371H81.2006C81.1249 53.2981 81.0124 53.4543 80.8633 53.6058C80.7141 53.7573 80.5271 53.8816 80.3022 53.9787C80.0773 54.0758 79.8133 54.1243 79.5103 54.1243ZM79.5955 53.5455C79.9317 53.5455 80.2229 53.4709 80.4691 53.3217C80.7153 53.1726 80.9047 52.9749 81.0373 52.7287C81.1722 52.4801 81.2397 52.2067 81.2397 51.9084V51.12C81.1924 51.165 81.113 51.2053 81.0018 51.2408C80.8929 51.2763 80.7662 51.3082 80.6218 51.3366C80.4798 51.3627 80.3377 51.3852 80.1957 51.4041C80.0536 51.4231 79.9258 51.4396 79.8121 51.4538C79.5044 51.4917 79.2416 51.5509 79.0238 51.6314C78.806 51.7119 78.6391 51.8232 78.5231 51.9652C78.4071 52.1049 78.3491 52.2848 78.3491 52.505C78.3491 52.8364 78.4674 53.0933 78.7042 53.2756C78.9409 53.4555 79.238 53.5455 79.5955 53.5455ZM84.1854 50.5909V54H83.5533V48.5455H84.1676V49.4013H84.2244C84.3523 49.1219 84.5511 48.8982 84.821 48.7301C85.0933 48.5597 85.4295 48.4744 85.8295 48.4744C86.1965 48.4744 86.5185 48.5514 86.7955 48.7053C87.0748 48.8568 87.2914 49.0805 87.4453 49.3764C87.6016 49.6723 87.6797 50.0357 87.6797 50.4666V54H87.0476V50.5057C87.0476 50.0582 86.9221 49.7043 86.6712 49.4439C86.4226 49.1835 86.0888 49.0533 85.6697 49.0533C85.3833 49.0533 85.1288 49.1148 84.9062 49.2379C84.6837 49.361 84.5073 49.5386 84.3771 49.7706C84.2493 50.0002 84.1854 50.2737 84.1854 50.5909ZM89.5893 56.0455C89.4638 56.0455 89.3467 56.0336 89.2377 56.0099C89.1288 55.9863 89.0424 55.9602 88.9785 55.9318L89.149 55.3743C89.3644 55.4406 89.5562 55.4643 89.7243 55.4453C89.8923 55.4287 90.0415 55.353 90.1717 55.218C90.3019 55.0855 90.4179 54.8819 90.5197 54.6072L90.7186 54.0533L88.7122 48.5455H89.3975L91.0169 53.1655H91.0666L92.6859 48.5455H93.3713L91.063 54.8629C90.966 55.1257 90.8464 55.3447 90.7044 55.5199C90.5623 55.6974 90.3978 55.8288 90.2108 55.9141C90.0261 56.0017 89.819 56.0455 89.5893 56.0455ZM16.6286 63.9403L16.6214 63.1129H16.7635L19.3203 60.5455H20.1193L17.5945 63.0739L17.5376 63.0845L16.6286 63.9403ZM16.0533 66V58.7273H16.6854V66H16.0533ZM19.4517 66L17.2358 63.1982L17.6903 62.7614L20.2614 66H19.4517ZM21.3143 66V60.5455H21.9499V66H21.3143ZM21.6374 59.608C21.5072 59.608 21.396 59.5642 21.3036 59.4766C21.2113 59.3866 21.1651 59.2789 21.1651 59.1534C21.1651 59.0279 21.2113 58.9214 21.3036 58.8338C21.396 58.7438 21.5072 58.6989 21.6374 58.6989C21.7676 58.6989 21.8789 58.7438 21.9712 58.8338C22.0636 58.9214 22.1097 59.0279 22.1097 59.1534C22.1097 59.2789 22.0636 59.3866 21.9712 59.4766C21.8789 59.5642 21.7676 59.608 21.6374 59.608ZM24.2537 62.5909V66H23.6216V60.5455H24.236V61.4013H24.2928C24.4206 61.1219 24.6195 60.8982 24.8894 60.7301C25.1616 60.5597 25.4978 60.4744 25.8979 60.4744C26.2649 60.4744 26.5868 60.5514 26.8638 60.7053C27.1432 60.8568 27.3598 61.0805 27.5137 61.3764C27.6699 61.6723 27.748 62.0357 27.748 62.4666V66H27.1159V62.5057C27.1159 62.0582 26.9905 61.7043 26.7395 61.4439C26.4909 61.1835 26.1571 61.0533 25.7381 61.0533C25.4516 61.0533 25.1971 61.1148 24.9746 61.2379C24.7521 61.361 24.5757 61.5386 24.4455 61.7706C24.3176 62.0002 24.2537 62.2737 24.2537 62.5909ZM31.3764 66.1136C30.929 66.1136 30.5372 65.9953 30.201 65.7585C29.8648 65.5218 29.602 65.1915 29.4126 64.7678C29.2256 64.344 29.1321 63.8504 29.1321 63.2869C29.1321 62.7259 29.2256 62.2346 29.4126 61.8132C29.602 61.3894 29.866 61.0604 30.2045 60.826C30.5431 60.5893 30.9373 60.4709 31.3871 60.4709C31.7185 60.4709 31.9943 60.5301 32.2145 60.6484C32.4347 60.7644 32.611 60.9089 32.7436 61.0817C32.8762 61.2545 32.9792 61.4226 33.0526 61.5859H33.1094V58.7273H33.745V66H33.1271V64.9879H33.0526C32.9792 65.1536 32.875 65.3241 32.7401 65.4993C32.6051 65.6721 32.4264 65.8177 32.2038 65.9361C31.9837 66.0545 31.7079 66.1136 31.3764 66.1136ZM31.451 65.5348C31.8037 65.5348 32.1044 65.4389 32.353 65.2472C32.6016 65.053 32.791 64.7867 32.9212 64.4482C33.0537 64.1072 33.12 63.7166 33.12 63.2763C33.12 62.8407 33.0549 62.456 32.9247 62.1222C32.7945 61.786 32.6051 61.5232 32.3565 61.3338C32.108 61.142 31.8061 61.0462 31.451 61.0462C31.0864 61.0462 30.7786 61.1456 30.5277 61.3445C30.2791 61.541 30.0897 61.8073 29.9595 62.1435C29.8317 62.4796 29.7678 62.8572 29.7678 63.2763C29.7678 63.7 29.8329 64.0824 29.9631 64.4233C30.0933 64.7642 30.2827 65.0353 30.5312 65.2365C30.7822 65.4354 31.0888 65.5348 31.451 65.5348ZM40.478 66.1136C40.0069 66.1136 39.5902 65.9941 39.228 65.755C38.8681 65.5159 38.5864 65.1856 38.3828 64.7642C38.1792 64.3404 38.0774 63.8516 38.0774 63.2976C38.0774 62.7389 38.1792 62.2476 38.3828 61.8239C38.5864 61.3977 38.8681 61.0663 39.228 60.8295C39.5902 60.5904 40.0069 60.4709 40.478 60.4709C40.9491 60.4709 41.3646 60.5904 41.7244 60.8295C42.0843 61.0687 42.366 61.4001 42.5696 61.8239C42.7756 62.2476 42.8786 62.7389 42.8786 63.2976C42.8786 63.8516 42.7768 64.3404 42.5732 64.7642C42.3696 65.1856 42.0866 65.5159 41.7244 65.755C41.3646 65.9941 40.9491 66.1136 40.478 66.1136ZM40.478 65.5348C40.8568 65.5348 41.1776 65.433 41.4403 65.2294C41.7031 65.0258 41.902 64.7547 42.0369 64.4162C42.1742 64.0777 42.2429 63.7048 42.2429 63.2976C42.2429 62.8904 42.1742 62.5163 42.0369 62.1754C41.902 61.8345 41.7031 61.5611 41.4403 61.3551C41.1776 61.1491 40.8568 61.0462 40.478 61.0462C40.1016 61.0462 39.7808 61.1491 39.5156 61.3551C39.2528 61.5611 39.0528 61.8345 38.9155 62.1754C38.7805 62.5163 38.7131 62.8904 38.7131 63.2976C38.7131 63.7048 38.7805 64.0777 38.9155 64.4162C39.0528 64.7547 39.2528 65.0258 39.5156 65.2294C39.7784 65.433 40.0992 65.5348 40.478 65.5348ZM46.5105 60.5455V61.0959H43.8294V60.5455H46.5105ZM44.6674 66V59.7464C44.6674 59.4529 44.7349 59.2055 44.8699 59.0043C45.0072 58.803 45.1859 58.6503 45.4061 58.5462C45.6262 58.442 45.8594 58.3899 46.1056 58.3899C46.2714 58.3899 46.4087 58.4041 46.5176 58.4325C46.6288 58.4586 46.7164 58.4846 46.7804 58.5107L46.5957 59.0646C46.5484 59.0504 46.4904 59.0339 46.4217 59.0149C46.353 58.996 46.2666 58.9865 46.1625 58.9865C45.8878 58.9865 45.676 59.0634 45.5268 59.2173C45.3777 59.3712 45.3031 59.5914 45.3031 59.8778L45.2995 66H44.6674ZM52.7152 66.1136C52.2275 66.1136 51.8026 65.9917 51.4403 65.7479C51.0805 65.504 50.8011 65.1702 50.6023 64.7464C50.4034 64.3227 50.304 63.8397 50.304 63.2976C50.304 62.7507 50.4046 62.2642 50.6058 61.8381C50.8094 61.4119 51.0911 61.0781 51.451 60.8366C51.8108 60.5928 52.2287 60.4709 52.7045 60.4709C53.0691 60.4709 53.3994 60.5419 53.6953 60.6839C53.9912 60.8236 54.2351 61.0213 54.4268 61.277C54.621 61.5303 54.7429 61.8262 54.7926 62.1648H54.1534C54.0871 61.857 53.9273 61.5942 53.674 61.3764C53.4231 61.1562 53.1035 61.0462 52.7152 61.0462C52.3672 61.0462 52.0594 61.1409 51.7919 61.3303C51.5244 61.5173 51.3149 61.7789 51.1634 62.1151C51.0142 62.4489 50.9396 62.8359 50.9396 63.2763C50.9396 63.719 51.013 64.1108 51.1598 64.4517C51.3066 64.7902 51.5125 65.0554 51.7777 65.2472C52.0452 65.4389 52.3577 65.5348 52.7152 65.5348C52.9567 65.5348 53.1768 65.4898 53.3757 65.3999C53.5769 65.3075 53.745 65.1773 53.88 65.0092C54.0173 64.8411 54.1096 64.6411 54.157 64.4091H54.7962C54.7488 64.7382 54.6316 65.0317 54.4446 65.2898C54.2599 65.5455 54.0196 65.7467 53.7237 65.8935C53.4302 66.0402 53.094 66.1136 52.7152 66.1136ZM58.271 66.1136C57.7998 66.1136 57.3832 65.9941 57.021 65.755C56.6611 65.5159 56.3794 65.1856 56.1758 64.7642C55.9722 64.3404 55.8704 63.8516 55.8704 63.2976C55.8704 62.7389 55.9722 62.2476 56.1758 61.8239C56.3794 61.3977 56.6611 61.0663 57.021 60.8295C57.3832 60.5904 57.7998 60.4709 58.271 60.4709C58.7421 60.4709 59.1576 60.5904 59.5174 60.8295C59.8772 61.0687 60.159 61.4001 60.3626 61.8239C60.5685 62.2476 60.6715 62.7389 60.6715 63.2976C60.6715 63.8516 60.5697 64.3404 60.3661 64.7642C60.1625 65.1856 59.8796 65.5159 59.5174 65.755C59.1576 65.9941 58.7421 66.1136 58.271 66.1136ZM58.271 65.5348C58.6497 65.5348 58.9705 65.433 59.2333 65.2294C59.4961 65.0258 59.695 64.7547 59.8299 64.4162C59.9672 64.0777 60.0359 63.7048 60.0359 63.2976C60.0359 62.8904 59.9672 62.5163 59.8299 62.1754C59.695 61.8345 59.4961 61.5611 59.2333 61.3551C58.9705 61.1491 58.6497 61.0462 58.271 61.0462C57.8945 61.0462 57.5737 61.1491 57.3086 61.3551C57.0458 61.5611 56.8458 61.8345 56.7085 62.1754C56.5735 62.5163 56.506 62.8904 56.506 63.2976C56.506 63.7048 56.5735 64.0777 56.7085 64.4162C56.8458 64.7547 57.0458 65.0258 57.3086 65.2294C57.5714 65.433 57.8922 65.5348 58.271 65.5348ZM62.6912 62.5909V66H62.0591V60.5455H62.6735V61.4013H62.7303C62.8581 61.1219 63.057 60.8982 63.3269 60.7301C63.5991 60.5597 63.9353 60.4744 64.3354 60.4744C64.7024 60.4744 65.0243 60.5514 65.3013 60.7053C65.5807 60.8568 65.7973 61.0805 65.9512 61.3764C66.1074 61.6723 66.1855 62.0357 66.1855 62.4666V66H65.5534V62.5057C65.5534 62.0582 65.428 61.7043 65.177 61.4439C64.9284 61.1835 64.5946 61.0533 64.1756 61.0533C63.8891 61.0533 63.6346 61.1148 63.4121 61.2379C63.1896 61.361 63.0132 61.5386 62.883 61.7706C62.7551 62.0002 62.6912 62.2737 62.6912 62.5909ZM68.4822 62.5909V66H67.8501V60.5455H68.4645V61.4013H68.5213C68.6491 61.1219 68.848 60.8982 69.1179 60.7301C69.3902 60.5597 69.7263 60.4744 70.1264 60.4744C70.4934 60.4744 70.8153 60.5514 71.0923 60.7053C71.3717 60.8568 71.5883 61.0805 71.7422 61.3764C71.8984 61.6723 71.9766 62.0357 71.9766 62.4666V66H71.3445V62.5057C71.3445 62.0582 71.219 61.7043 70.968 61.4439C70.7195 61.1835 70.3857 61.0533 69.9666 61.0533C69.6802 61.0533 69.4257 61.1148 69.2031 61.2379C68.9806 61.361 68.8042 61.5386 68.674 61.7706C68.5462 62.0002 68.4822 62.2737 68.4822 62.5909ZM75.8464 66.1136C75.3374 66.1136 74.8971 65.9953 74.5254 65.7585C74.1537 65.5194 73.8661 65.1892 73.6625 64.7678C73.4612 64.344 73.3606 63.8563 73.3606 63.3047C73.3606 62.7554 73.4612 62.2678 73.6625 61.8416C73.8661 61.4131 74.1466 61.0781 74.5041 60.8366C74.8639 60.5928 75.2794 60.4709 75.7505 60.4709C76.0465 60.4709 76.3317 60.5253 76.6064 60.6342C76.881 60.7408 77.1272 60.9053 77.345 61.1278C77.5652 61.348 77.7392 61.6262 77.867 61.9624C77.9949 62.2962 78.0588 62.6915 78.0588 63.1484V63.4609H73.7974V62.9034H77.4125C77.4125 62.553 77.3414 62.2382 77.1994 61.9588C77.0597 61.6771 76.8644 61.4545 76.6135 61.2912C76.3649 61.1278 76.0772 61.0462 75.7505 61.0462C75.4049 61.0462 75.1007 61.1385 74.8379 61.3232C74.5751 61.5078 74.3691 61.7517 74.22 62.0547C74.0732 62.3577 73.9986 62.6892 73.9963 63.049V63.3828C73.9963 63.8161 74.0708 64.1948 74.22 64.5192C74.3715 64.8411 74.5858 65.0909 74.8627 65.2685C75.1397 65.446 75.4676 65.5348 75.8464 65.5348C76.1045 65.5348 76.3306 65.4946 76.5247 65.4141C76.7212 65.3336 76.8857 65.2259 77.0183 65.0909C77.1532 64.9536 77.255 64.8033 77.3237 64.6399L77.9238 64.8352C77.841 65.0649 77.7048 65.2768 77.5154 65.4709C77.3284 65.665 77.094 65.8213 76.8123 65.9396C76.533 66.0556 76.211 66.1136 75.8464 66.1136ZM81.5824 66.1136C81.0947 66.1136 80.6697 65.9917 80.3075 65.7479C79.9477 65.504 79.6683 65.1702 79.4695 64.7464C79.2706 64.3227 79.1712 63.8397 79.1712 63.2976C79.1712 62.7507 79.2718 62.2642 79.473 61.8381C79.6766 61.4119 79.9583 61.0781 80.3182 60.8366C80.678 60.5928 81.0959 60.4709 81.5717 60.4709C81.9363 60.4709 82.2666 60.5419 82.5625 60.6839C82.8584 60.8236 83.1023 61.0213 83.294 61.277C83.4882 61.5303 83.6101 61.8262 83.6598 62.1648H83.0206C82.9543 61.857 82.7945 61.5942 82.5412 61.3764C82.2902 61.1562 81.9706 61.0462 81.5824 61.0462C81.2344 61.0462 80.9266 61.1409 80.6591 61.3303C80.3916 61.5173 80.1821 61.7789 80.0305 62.1151C79.8814 62.4489 79.8068 62.8359 79.8068 63.2763C79.8068 63.719 79.8802 64.1108 80.027 64.4517C80.1738 64.7902 80.3797 65.0554 80.6449 65.2472C80.9124 65.4389 81.2249 65.5348 81.5824 65.5348C81.8239 65.5348 82.044 65.4898 82.2429 65.3999C82.4441 65.3075 82.6122 65.1773 82.7472 65.0092C82.8845 64.8411 82.9768 64.6411 83.0241 64.4091H83.6634C83.616 64.7382 83.4988 65.0317 83.3118 65.2898C83.1271 65.5455 82.8868 65.7467 82.5909 65.8935C82.2973 66.0402 81.9612 66.1136 81.5824 66.1136ZM87.1665 60.5455V61.0959H84.5636V60.5455H87.1665ZM85.3768 59.2386H86.0124V64.576C86.0124 64.8033 86.0515 64.982 86.1296 65.1122C86.2077 65.2401 86.3095 65.3312 86.435 65.3857C86.5605 65.4377 86.6942 65.4638 86.8363 65.4638C86.9192 65.4638 86.9902 65.459 87.0494 65.4496C87.1085 65.4377 87.1606 65.4259 87.2056 65.4141L87.3406 65.9858C87.279 66.0095 87.2032 66.0308 87.1133 66.0497C87.0233 66.071 86.9121 66.0817 86.7795 66.0817C86.5475 66.0817 86.3237 66.0308 86.1083 65.929C85.8952 65.8272 85.7201 65.6757 85.5827 65.4744C85.4454 65.2732 85.3768 65.0234 85.3768 64.7251V59.2386ZM88.6092 66V60.5455H89.2449V66H88.6092ZM88.9324 59.608C88.8021 59.608 88.6909 59.5642 88.5985 59.4766C88.5062 59.3866 88.46 59.2789 88.46 59.1534C88.46 59.0279 88.5062 58.9214 88.5985 58.8338C88.6909 58.7438 88.8021 58.6989 88.9324 58.6989C89.0626 58.6989 89.1738 58.7438 89.2662 58.8338C89.3585 58.9214 89.4047 59.0279 89.4047 59.1534C89.4047 59.2789 89.3585 59.3866 89.2662 59.4766C89.1738 59.5642 89.0626 59.608 88.9324 59.608ZM93.0366 66.1136C92.5655 66.1136 92.1488 65.9941 91.7866 65.755C91.4267 65.5159 91.145 65.1856 90.9414 64.7642C90.7378 64.3404 90.636 63.8516 90.636 63.2976C90.636 62.7389 90.7378 62.2476 90.9414 61.8239C91.145 61.3977 91.4267 61.0663 91.7866 60.8295C92.1488 60.5904 92.5655 60.4709 93.0366 60.4709C93.5077 60.4709 93.9232 60.5904 94.283 60.8295C94.6429 61.0687 94.9246 61.4001 95.1282 61.8239C95.3342 62.2476 95.4371 62.7389 95.4371 63.2976C95.4371 63.8516 95.3353 64.3404 95.1317 64.7642C94.9281 65.1856 94.6452 65.5159 94.283 65.755C93.9232 65.9941 93.5077 66.1136 93.0366 66.1136ZM93.0366 65.5348C93.4154 65.5348 93.7362 65.433 93.9989 65.2294C94.2617 65.0258 94.4606 64.7547 94.5955 64.4162C94.7328 64.0777 94.8015 63.7048 94.8015 63.2976C94.8015 62.8904 94.7328 62.5163 94.5955 62.1754C94.4606 61.8345 94.2617 61.5611 93.9989 61.3551C93.7362 61.1491 93.4154 61.0462 93.0366 61.0462C92.6602 61.0462 92.3394 61.1491 92.0742 61.3551C91.8114 61.5611 91.6114 61.8345 91.4741 62.1754C91.3391 62.5163 91.2717 62.8904 91.2717 63.2976C91.2717 63.7048 91.3391 64.0777 91.4741 64.4162C91.6114 64.7547 91.8114 65.0258 92.0742 65.2294C92.337 65.433 92.6578 65.5348 93.0366 65.5348ZM97.4569 62.5909V66H96.8248V60.5455H97.4391V61.4013H97.4959C97.6238 61.1219 97.8226 60.8982 98.0925 60.7301C98.3648 60.5597 98.7009 60.4744 99.101 60.4744C99.468 60.4744 99.79 60.5514 100.067 60.7053C100.346 60.8568 100.563 61.0805 100.717 61.3764C100.873 61.6723 100.951 62.0357 100.951 62.4666V66H100.319V62.5057C100.319 62.0582 100.194 61.7043 99.9426 61.4439C99.6941 61.1835 99.3603 61.0533 98.9412 61.0533C98.6548 61.0533 98.4003 61.1148 98.1777 61.2379C97.9552 61.361 97.7788 61.5386 97.6486 61.7706C97.5208 62.0002 97.4569 62.2737 97.4569 62.5909ZM31.9761 78L30.3284 72.5455H30.996L32.2886 77.0447H32.3348L33.6238 72.5455H34.295L35.5734 77.0341H35.6231L36.9157 72.5455H37.5834L35.9356 78H35.2822L33.9896 73.5291H33.9221L32.6295 78H31.9761ZM38.8192 78V72.5455H39.4548V78H38.8192ZM39.1423 71.608C39.0121 71.608 38.9008 71.5642 38.8085 71.4766C38.7162 71.3866 38.67 71.2789 38.67 71.1534C38.67 71.0279 38.7162 70.9214 38.8085 70.8338C38.9008 70.7438 39.0121 70.6989 39.1423 70.6989C39.2725 70.6989 39.3838 70.7438 39.4761 70.8338C39.5684 70.9214 39.6146 71.0279 39.6146 71.1534C39.6146 71.2789 39.5684 71.3866 39.4761 71.4766C39.3838 71.5642 39.2725 71.608 39.1423 71.608ZM43.2749 72.5455V73.0959H40.672V72.5455H43.2749ZM41.4852 71.2386H42.1208V76.576C42.1208 76.8033 42.1599 76.982 42.238 77.1122C42.3161 77.2401 42.4179 77.3312 42.5434 77.3857C42.6689 77.4377 42.8026 77.4638 42.9447 77.4638C43.0276 77.4638 43.0986 77.459 43.1578 77.4496C43.2169 77.4377 43.269 77.4259 43.314 77.4141L43.449 77.9858C43.3874 78.0095 43.3116 78.0308 43.2217 78.0497C43.1317 78.071 43.0204 78.0817 42.8879 78.0817C42.6559 78.0817 42.4321 78.0308 42.2167 77.929C42.0036 77.8272 41.8285 77.6757 41.6911 77.4744C41.5538 77.2732 41.4852 77.0234 41.4852 76.7251V71.2386ZM45.4598 74.5909V78H44.8277V70.7273H45.4598V73.4013H45.5166C45.6444 73.1196 45.8421 72.8946 46.1096 72.7266C46.3795 72.5585 46.7204 72.4744 47.1324 72.4744C47.5017 72.4744 47.826 72.5502 48.1054 72.7017C48.3847 72.8532 48.6025 73.0769 48.7588 73.3729C48.915 73.6688 48.9932 74.0334 48.9932 74.4666V78H48.3575V74.5057C48.3575 74.0559 48.232 73.7019 47.9811 73.4439C47.7325 73.1835 47.3963 73.0533 46.9726 73.0533C46.6814 73.0533 46.4221 73.1148 46.1949 73.2379C45.9676 73.361 45.7877 73.5386 45.6551 73.7706C45.5249 74.0002 45.4598 74.2737 45.4598 74.5909ZM55.6009 78.1136C55.1133 78.1136 54.6883 77.9917 54.3261 77.7479C53.9662 77.504 53.6869 77.1702 53.488 76.7464C53.2892 76.3227 53.1897 75.8397 53.1897 75.2976C53.1897 74.7507 53.2903 74.2642 53.4916 73.8381C53.6952 73.4119 53.9769 73.0781 54.3367 72.8366C54.6966 72.5928 55.1144 72.4709 55.5903 72.4709C55.9549 72.4709 56.2851 72.5419 56.5811 72.6839C56.877 72.8236 57.1208 73.0213 57.3126 73.277C57.5067 73.5303 57.6286 73.8262 57.6784 74.1648H57.0392C56.9729 73.857 56.8131 73.5942 56.5597 73.3764C56.3088 73.1562 55.9892 73.0462 55.6009 73.0462C55.2529 73.0462 54.9452 73.1409 54.6776 73.3303C54.4101 73.5173 54.2006 73.7789 54.0491 74.1151C53.8999 74.4489 53.8254 74.8359 53.8254 75.2763C53.8254 75.719 53.8988 76.1108 54.0455 76.4517C54.1923 76.7902 54.3983 77.0554 54.6634 77.2472C54.931 77.4389 55.2435 77.5348 55.6009 77.5348C55.8424 77.5348 56.0626 77.4898 56.2615 77.3999C56.4627 77.3075 56.6308 77.1773 56.7657 77.0092C56.903 76.8411 56.9954 76.6411 57.0427 76.4091H57.6819C57.6346 76.7382 57.5174 77.0317 57.3303 77.2898C57.1457 77.5455 56.9054 77.7467 56.6095 77.8935C56.3159 78.0402 55.9797 78.1136 55.6009 78.1136ZM62.5026 75.9155V72.5455H63.1347V78H62.5026V77.0945H62.4529C62.325 77.3738 62.1226 77.607 61.8456 77.794C61.5686 77.9787 61.2301 78.071 60.83 78.071C60.482 78.071 60.173 77.9953 59.9031 77.8438C59.6333 77.6899 59.4214 77.465 59.2675 77.169C59.1136 76.8731 59.0367 76.5097 59.0367 76.0788V72.5455H59.6688V76.0398C59.6688 76.4659 59.7942 76.8092 60.0452 77.0696C60.2961 77.3277 60.6181 77.4567 61.0111 77.4567C61.2573 77.4567 61.4941 77.3975 61.7213 77.2791C61.9486 77.1607 62.1356 76.9879 62.2824 76.7607C62.4292 76.531 62.5026 76.2493 62.5026 75.9155ZM65.4403 70.7273V78H64.8081V70.7273H65.4403ZM69.2613 72.5455V73.0959H66.6583V72.5455H69.2613ZM67.4715 71.2386H68.1072V76.576C68.1072 76.8033 68.1462 76.982 68.2243 77.1122C68.3025 77.2401 68.4043 77.3312 68.5297 77.3857C68.6552 77.4377 68.789 77.4638 68.931 77.4638C69.0139 77.4638 69.0849 77.459 69.1441 77.4496C69.2033 77.4377 69.2554 77.4259 69.3003 77.4141L69.4353 77.9858C69.3737 78.0095 69.298 78.0308 69.208 78.0497C69.118 78.071 69.0068 78.0817 68.8742 78.0817C68.6422 78.0817 68.4185 78.0308 68.203 77.929C67.99 77.8272 67.8148 77.6757 67.6775 77.4744C67.5402 77.2732 67.4715 77.0234 67.4715 76.7251V71.2386ZM74.1627 75.9155V72.5455H74.7948V78H74.1627V77.0945H74.113C73.9852 77.3738 73.7828 77.607 73.5058 77.794C73.2288 77.9787 72.8902 78.071 72.4901 78.071C72.1421 78.071 71.8332 77.9953 71.5633 77.8438C71.2934 77.6899 71.0815 77.465 70.9276 77.169C70.7738 76.8731 70.6968 76.5097 70.6968 76.0788V72.5455H71.3289V76.0398C71.3289 76.4659 71.4544 76.8092 71.7053 77.0696C71.9563 77.3277 72.2783 77.4567 72.6713 77.4567C72.9175 77.4567 73.1542 77.3975 73.3815 77.2791C73.6088 77.1607 73.7958 76.9879 73.9426 76.7607C74.0893 76.531 74.1627 76.2493 74.1627 75.9155ZM76.4683 78V72.5455H77.0827V73.3835H77.1288C77.2377 73.1089 77.4271 72.8875 77.697 72.7195C77.9693 72.549 78.277 72.4638 78.6203 72.4638C78.6724 72.4638 78.7304 72.465 78.7943 72.4673C78.8582 72.4697 78.9115 72.4721 78.9541 72.4744V73.1172C78.9257 73.1125 78.876 73.1054 78.805 73.0959C78.7339 73.0864 78.657 73.0817 78.5741 73.0817C78.29 73.0817 78.0367 73.142 77.8142 73.2628C77.594 73.3812 77.42 73.5457 77.2922 73.7564C77.1643 73.9671 77.1004 74.2074 77.1004 74.4773V78H76.4683ZM81.5562 78.1243C81.2271 78.1243 80.9265 78.0604 80.6542 77.9325C80.382 77.8023 80.1653 77.6153 80.0044 77.3714C79.8434 77.1252 79.7629 76.8269 79.7629 76.4766C79.7629 76.2067 79.8138 75.9794 79.9156 75.7947C80.0174 75.6101 80.1618 75.4586 80.3488 75.3402C80.5358 75.2218 80.7572 75.1283 81.0129 75.0597C81.2686 74.991 81.5503 74.9377 81.858 74.8999C82.1634 74.862 82.4215 74.8288 82.6322 74.8004C82.8453 74.772 83.0074 74.727 83.1187 74.6655C83.23 74.6039 83.2856 74.5045 83.2856 74.3672V74.2393C83.2856 73.8677 83.1743 73.5753 82.9518 73.3622C82.7316 73.1468 82.4144 73.0391 82.0001 73.0391C81.6071 73.0391 81.2863 73.1255 81.0377 73.2983C80.7915 73.4711 80.6187 73.6747 80.5193 73.9091L79.9191 73.6925C80.0422 73.3942 80.2127 73.1562 80.4305 72.9787C80.6483 72.7988 80.8921 72.6697 81.162 72.5916C81.4319 72.5111 81.7053 72.4709 81.9823 72.4709C82.1907 72.4709 82.4073 72.4981 82.6322 72.5526C82.8595 72.607 83.0702 72.7017 83.2643 72.8366C83.4584 72.9692 83.6159 73.1551 83.7366 73.3942C83.8573 73.6309 83.9177 73.9316 83.9177 74.2962V78H83.2856V77.1371H83.2465C83.1708 77.2981 83.0583 77.4543 82.9092 77.6058C82.76 77.7573 82.573 77.8816 82.3481 77.9787C82.1232 78.0758 81.8592 78.1243 81.5562 78.1243ZM81.6414 77.5455C81.9776 77.5455 82.2688 77.4709 82.515 77.3217C82.7612 77.1726 82.9506 76.9749 83.0832 76.7287C83.2181 76.4801 83.2856 76.2067 83.2856 75.9084V75.12C83.2383 75.165 83.1589 75.2053 83.0477 75.2408C82.9388 75.2763 82.8121 75.3082 82.6677 75.3366C82.5257 75.3627 82.3836 75.3852 82.2416 75.4041C82.0995 75.4231 81.9717 75.4396 81.858 75.4538C81.5503 75.4917 81.2875 75.5509 81.0697 75.6314C80.8519 75.7119 80.685 75.8232 80.569 75.9652C80.453 76.1049 80.395 76.2848 80.395 76.505C80.395 76.8364 80.5133 77.0933 80.7501 77.2756C80.9868 77.4555 81.2839 77.5455 81.6414 77.5455ZM86.2313 70.7273V78H85.5992V70.7273H86.2313ZM45.9782 90.1136C45.4693 90.1136 45.0289 89.9953 44.6572 89.7585C44.2855 89.5194 43.9979 89.1892 43.7943 88.7678C43.5931 88.344 43.4925 87.8563 43.4925 87.3047C43.4925 86.7554 43.5931 86.2678 43.7943 85.8416C43.9979 85.4131 44.2784 85.0781 44.6359 84.8366C44.9958 84.5928 45.4113 84.4709 45.8824 84.4709C46.1783 84.4709 46.4636 84.5253 46.7382 84.6342C47.0128 84.7408 47.259 84.9053 47.4768 85.1278C47.697 85.348 47.871 85.6262 47.9988 85.9624C48.1267 86.2962 48.1906 86.6915 48.1906 87.1484V87.4609H43.9292V86.9034H47.5443C47.5443 86.553 47.4733 86.2382 47.3312 85.9588C47.1916 85.6771 46.9962 85.4545 46.7453 85.2912C46.4967 85.1278 46.2091 85.0462 45.8824 85.0462C45.5367 85.0462 45.2325 85.1385 44.9697 85.3232C44.7069 85.5078 44.501 85.7517 44.3518 86.0547C44.205 86.3577 44.1305 86.6892 44.1281 87.049V87.3828C44.1281 87.8161 44.2027 88.1948 44.3518 88.5192C44.5033 88.8411 44.7176 89.0909 44.9946 89.2685C45.2716 89.446 45.5995 89.5348 45.9782 89.5348C46.2363 89.5348 46.4624 89.4946 46.6565 89.4141C46.853 89.3336 47.0175 89.2259 47.1501 89.0909C47.2851 88.9536 47.3869 88.8033 47.4555 88.6399L48.0557 88.8352C47.9728 89.0649 47.8367 89.2768 47.6473 89.4709C47.4603 89.665 47.2259 89.8213 46.9442 89.9396C46.6648 90.0556 46.3428 90.1136 45.9782 90.1136ZM53.6398 84.5455L51.6476 90H50.9729L48.9807 84.5455H49.6661L51.2854 89.1655H51.3351L52.9545 84.5455H53.6398ZM56.8865 90.1136C56.3775 90.1136 55.9371 89.9953 55.5654 89.7585C55.1937 89.5194 54.9061 89.1892 54.7025 88.7678C54.5013 88.344 54.4007 87.8563 54.4007 87.3047C54.4007 86.7554 54.5013 86.2678 54.7025 85.8416C54.9061 85.4131 55.1866 85.0781 55.5441 84.8366C55.904 84.5928 56.3195 84.4709 56.7906 84.4709C57.0865 84.4709 57.3718 84.5253 57.6464 84.6342C57.921 84.7408 58.1672 84.9053 58.385 85.1278C58.6052 85.348 58.7792 85.6262 58.907 85.9624C59.0349 86.2962 59.0988 86.6915 59.0988 87.1484V87.4609H54.8374V86.9034H58.4525C58.4525 86.553 58.3815 86.2382 58.2394 85.9588C58.0998 85.6771 57.9044 85.4545 57.6535 85.2912C57.4049 85.1278 57.1173 85.0462 56.7906 85.0462C56.4449 85.0462 56.1407 85.1385 55.8779 85.3232C55.6151 85.5078 55.4092 85.7517 55.26 86.0547C55.1133 86.3577 55.0387 86.6892 55.0363 87.049V87.3828C55.0363 87.8161 55.1109 88.1948 55.26 88.5192C55.4115 88.8411 55.6258 89.0909 55.9028 89.2685C56.1798 89.446 56.5077 89.5348 56.8865 89.5348C57.1445 89.5348 57.3706 89.4946 57.5647 89.4141C57.7612 89.3336 57.9258 89.2259 58.0583 89.0909C58.1933 88.9536 58.2951 88.8033 58.3637 88.6399L58.9639 88.8352C58.881 89.0649 58.7449 89.2768 58.5555 89.4709C58.3685 89.665 58.1341 89.8213 57.8524 89.9396C57.573 90.0556 57.251 90.1136 56.8865 90.1136ZM61.1238 86.5909V90H60.4917V84.5455H61.1061V85.4013H61.1629C61.2907 85.1219 61.4896 84.8982 61.7595 84.7301C62.0318 84.5597 62.3679 84.4744 62.768 84.4744C63.135 84.4744 63.4569 84.5514 63.7339 84.7053C64.0133 84.8568 64.2299 85.0805 64.3838 85.3764C64.54 85.6723 64.6182 86.0357 64.6182 86.4666V90H63.9861V86.5057C63.9861 86.0582 63.8606 85.7043 63.6096 85.4439C63.3611 85.1835 63.0273 85.0533 62.6082 85.0533C62.3218 85.0533 62.0673 85.1148 61.8447 85.2379C61.6222 85.361 61.4458 85.5386 61.3156 85.7706C61.1878 86.0002 61.1238 86.2737 61.1238 86.5909ZM68.4312 84.5455V85.0959H65.8282V84.5455H68.4312ZM66.6414 83.2386H67.2771V88.576C67.2771 88.8033 67.3161 88.982 67.3943 89.1122C67.4724 89.2401 67.5742 89.3312 67.6997 89.3857C67.8251 89.4377 67.9589 89.4638 68.1009 89.4638C68.1838 89.4638 68.2548 89.459 68.314 89.4496C68.3732 89.4377 68.4253 89.4259 68.4703 89.4141L68.6052 89.9858C68.5436 90.0095 68.4679 90.0308 68.3779 90.0497C68.288 90.071 68.1767 90.0817 68.0441 90.0817C67.8121 90.0817 67.5884 90.0308 67.373 89.929C67.1599 89.8272 66.9847 89.6757 66.8474 89.4744C66.7101 89.2732 66.6414 89.0234 66.6414 88.7251V83.2386ZM73.4339 85.7422L72.855 85.9055C72.7982 85.7422 72.7177 85.5942 72.6135 85.4616C72.5094 85.3291 72.3733 85.2237 72.2052 85.1456C72.0394 85.0675 71.8335 85.0284 71.5873 85.0284C71.218 85.0284 70.9149 85.116 70.6782 85.2912C70.4414 85.4664 70.3231 85.6925 70.3231 85.9695C70.3231 86.2038 70.4036 86.3944 70.5645 86.5412C70.7279 86.6856 70.9788 86.8004 71.3174 86.8857L72.1412 87.0881C72.5982 87.1993 72.9403 87.3757 73.1675 87.6172C73.3972 87.8587 73.512 88.1617 73.512 88.5263C73.512 88.834 73.4268 89.1075 73.2563 89.3466C73.0858 89.5857 72.8479 89.7739 72.5425 89.9112C72.2395 90.0462 71.8879 90.1136 71.4878 90.1136C70.9552 90.1136 70.516 89.9941 70.1704 89.755C69.8247 89.5135 69.6034 89.1655 69.5063 88.7109L70.1135 88.5618C70.1917 88.8861 70.3444 89.1312 70.5716 89.2969C70.8013 89.4626 71.1031 89.5455 71.4772 89.5455C71.8962 89.5455 72.2312 89.4519 72.4822 89.2649C72.7331 89.0755 72.8586 88.8388 72.8586 88.5547C72.8586 88.3345 72.7852 88.1499 72.6384 88.0007C72.4916 87.8492 72.2691 87.7379 71.9708 87.6669L71.0795 87.4538C70.606 87.3402 70.2556 87.1603 70.0283 86.9141C69.801 86.6679 69.6874 86.3625 69.6874 85.9979C69.6874 85.6972 69.7691 85.4332 69.9324 85.206C70.0958 84.9763 70.3207 84.7964 70.6072 84.6662C70.8936 84.536 71.2203 84.4709 71.5873 84.4709C72.0868 84.4709 72.4857 84.5845 72.784 84.8118C73.0847 85.0367 73.3013 85.3468 73.4339 85.7422Z" fill="#222222"/>
<defs>
<filter id="filter0_d_991_206" x="0" y="0" width="118" height="118" filterUnits="userSpaceOnUse" color-interpolation-filters="sRGB">
<feFlood flood-opacity="0" result="BackgroundImageFix"/>
<feColorMatrix in="SourceAlpha" type="matrix" values="0 0 0 0 0 0 0 0 0 0 0 0 0 0 0 0 0 0 127 0" result="hardAlpha"/>
<feOffset dy="4"/>
<feGaussianBlur stdDeviation="2"/>
<feComposite in2="hardAlpha" operator="out"/>
<feColorMatrix type="matrix" values="0 0 0 0 0 0 0 0 0 0 0 0 0 0 0 0 0 0 0.25 0"/>
<feBlend mode="normal" in2="BackgroundImageFix" result="effect1_dropShadow_991_206"/>
<feBlend mode="normal" in="SourceGraphic" in2="effect1_dropShadow_991_206" result="shape"/>
</filter>
</defs>
</svg>
