<svg width="118" height="118" viewBox="0 0 118 118" fill="none" xmlns="http://www.w3.org/2000/svg">
<g filter="url(#filter0_d_991_208)">
<rect x="4" width="110" height="110" fill="#C9C8D8" fill-opacity="0.5" shape-rendering="crispEdges"/>
</g>
<path d="M30.325 45.5909V49H29.6929V41.7273H30.325V44.4013H30.3818C30.5097 44.1196 30.7074 43.8946 30.9749 43.7266C31.2448 43.5585 31.5857 43.4744 31.9976 43.4744C32.3669 43.4744 32.6913 43.5502 32.9706 43.7017C33.25 43.8532 33.4678 44.0769 33.624 44.3729C33.7803 44.6688 33.8584 45.0334 33.8584 45.4666V49H33.2227V45.5057C33.2227 45.0559 33.0973 44.7019 32.8463 44.4439C32.5977 44.1835 32.2616 44.0533 31.8378 44.0533C31.5466 44.0533 31.2874 44.1148 31.0601 44.2379C30.8328 44.361 30.6529 44.5386 30.5203 44.7706C30.3901 45.0002 30.325 45.2737 30.325 45.5909ZM37.0464 49.1243C36.7174 49.1243 36.4167 49.0604 36.1444 48.9325C35.8722 48.8023 35.6556 48.6153 35.4946 48.3714C35.3336 48.1252 35.2531 47.8269 35.2531 47.4766C35.2531 47.2067 35.304 46.9794 35.4058 46.7947C35.5076 46.6101 35.652 46.4586 35.839 46.3402C36.0261 46.2218 36.2474 46.1283 36.5031 46.0597C36.7588 45.991 37.0405 45.9377 37.3483 45.8999C37.6537 45.862 37.9117 45.8288 38.1224 45.8004C38.3355 45.772 38.4977 45.727 38.6089 45.6655C38.7202 45.6039 38.7758 45.5045 38.7758 45.3672V45.2393C38.7758 44.8677 38.6646 44.5753 38.442 44.3622C38.2219 44.1468 37.9046 44.0391 37.4903 44.0391C37.0973 44.0391 36.7765 44.1255 36.528 44.2983C36.2818 44.4711 36.1089 44.6747 36.0095 44.9091L35.4094 44.6925C35.5325 44.3942 35.7029 44.1562 35.9207 43.9787C36.1385 43.7988 36.3824 43.6697 36.6523 43.5916C36.9221 43.5111 37.1956 43.4709 37.4726 43.4709C37.6809 43.4709 37.8975 43.4981 38.1224 43.5526C38.3497 43.607 38.5604 43.7017 38.7545 43.8366C38.9487 43.9692 39.1061 44.1551 39.2268 44.3942C39.3476 44.6309 39.4079 44.9316 39.4079 45.2962V49H38.7758V48.1371H38.7368C38.661 48.2981 38.5486 48.4543 38.3994 48.6058C38.2503 48.7573 38.0632 48.8816 37.8383 48.9787C37.6134 49.0758 37.3495 49.1243 37.0464 49.1243ZM37.1317 48.5455C37.4678 48.5455 37.759 48.4709 38.0052 48.3217C38.2515 48.1726 38.4408 47.9749 38.5734 47.7287C38.7084 47.4801 38.7758 47.2067 38.7758 46.9084V46.12C38.7285 46.165 38.6492 46.2053 38.5379 46.2408C38.429 46.2763 38.3023 46.3082 38.1579 46.3366C38.0159 46.3627 37.8738 46.3852 37.7318 46.4041C37.5898 46.4231 37.4619 46.4396 37.3483 46.4538C37.0405 46.4917 36.7777 46.5509 36.5599 46.6314C36.3421 46.7119 36.1752 46.8232 36.0592 46.9652C35.9432 47.1049 35.8852 47.2848 35.8852 47.505C35.8852 47.8364 36.0036 48.0933 36.2403 48.2756C36.4771 48.4555 36.7742 48.5455 37.1317 48.5455ZM45.1164 43.5455L43.1242 49H42.4495L40.4573 43.5455H41.1427L42.762 48.1655H42.8117L44.431 43.5455H45.1164ZM48.363 49.1136C47.854 49.1136 47.4137 48.9953 47.042 48.7585C46.6703 48.5194 46.3827 48.1892 46.1791 47.7678C45.9778 47.344 45.8772 46.8563 45.8772 46.3047C45.8772 45.7554 45.9778 45.2678 46.1791 44.8416C46.3827 44.4131 46.6632 44.0781 47.0207 43.8366C47.3805 43.5928 47.796 43.4709 48.2671 43.4709C48.5631 43.4709 48.8483 43.5253 49.123 43.6342C49.3976 43.7408 49.6438 43.9053 49.8616 44.1278C50.0818 44.348 50.2558 44.6262 50.3836 44.9624C50.5115 45.2962 50.5754 45.6915 50.5754 46.1484V46.4609H46.314V45.9034H49.9291C49.9291 45.553 49.858 45.2382 49.716 44.9588C49.5763 44.6771 49.381 44.4545 49.1301 44.2912C48.8815 44.1278 48.5938 44.0462 48.2671 44.0462C47.9215 44.0462 47.6173 44.1385 47.3545 44.3232C47.0917 44.5078 46.8857 44.7517 46.7366 45.0547C46.5898 45.3577 46.5152 45.6892 46.5129 46.049V46.3828C46.5129 46.8161 46.5874 47.1948 46.7366 47.5192C46.8881 47.8411 47.1024 48.0909 47.3794 48.2685C47.6563 48.446 47.9842 48.5348 48.363 48.5348C48.6211 48.5348 48.8472 48.4946 49.0413 48.4141C49.2378 48.3336 49.4023 48.2259 49.5349 48.0909C49.6698 47.9536 49.7716 47.8033 49.8403 47.6399L50.4404 47.8352C50.3576 48.0649 50.2214 48.2768 50.032 48.4709C49.845 48.665 49.6106 48.8213 49.3289 48.9396C49.0496 49.0556 48.7276 49.1136 48.363 49.1136ZM56.7446 49.1136C56.2971 49.1136 55.9053 48.9953 55.5692 48.7585C55.233 48.5218 54.9702 48.1915 54.7808 47.7678C54.5938 47.344 54.5003 46.8504 54.5003 46.2869C54.5003 45.7259 54.5938 45.2346 54.7808 44.8132C54.9702 44.3894 55.2342 44.0604 55.5727 43.826C55.9113 43.5893 56.3054 43.4709 56.7552 43.4709C57.0867 43.4709 57.3625 43.5301 57.5827 43.6484C57.8028 43.7644 57.9792 43.9089 58.1118 44.0817C58.2443 44.2545 58.3473 44.4226 58.4207 44.5859H58.4775V41.7273H59.1132V49H58.4953V47.9879H58.4207C58.3473 48.1536 58.2432 48.3241 58.1082 48.4993C57.9733 48.6721 57.7945 48.8177 57.572 48.9361C57.3518 49.0545 57.076 49.1136 56.7446 49.1136ZM56.8192 48.5348C57.1719 48.5348 57.4726 48.4389 57.7211 48.2472C57.9697 48.053 58.1591 47.7867 58.2893 47.4482C58.4219 47.1072 58.4882 46.7166 58.4882 46.2763C58.4882 45.8407 58.4231 45.456 58.2929 45.1222C58.1627 44.786 57.9733 44.5232 57.7247 44.3338C57.4761 44.142 57.1743 44.0462 56.8192 44.0462C56.4546 44.0462 56.1468 44.1456 55.8959 44.3445C55.6473 44.541 55.4579 44.8073 55.3277 45.1435C55.1998 45.4796 55.1359 45.8572 55.1359 46.2763C55.1359 46.7 55.201 47.0824 55.3312 47.4233C55.4614 47.7642 55.6508 48.0353 55.8994 48.2365C56.1504 48.4354 56.4569 48.5348 56.8192 48.5348ZM60.9207 49V43.5455H61.5564V49H60.9207ZM61.2439 42.608C61.1137 42.608 61.0024 42.5642 60.9101 42.4766C60.8177 42.3866 60.7716 42.2789 60.7716 42.1534C60.7716 42.0279 60.8177 41.9214 60.9101 41.8338C61.0024 41.7438 61.1137 41.6989 61.2439 41.6989C61.3741 41.6989 61.4854 41.7438 61.5777 41.8338C61.67 41.9214 61.7162 42.0279 61.7162 42.1534C61.7162 42.2789 61.67 42.3866 61.5777 42.4766C61.4854 42.5642 61.3741 42.608 61.2439 42.608ZM66.8928 44.7422L66.314 44.9055C66.2572 44.7422 66.1767 44.5942 66.0725 44.4616C65.9684 44.3291 65.8322 44.2237 65.6642 44.1456C65.4984 44.0675 65.2925 44.0284 65.0463 44.0284C64.6769 44.0284 64.3739 44.116 64.1372 44.2912C63.9004 44.4664 63.782 44.6925 63.782 44.9695C63.782 45.2038 63.8625 45.3944 64.0235 45.5412C64.1869 45.6856 64.4378 45.8004 64.7764 45.8857L65.6002 46.0881C66.0571 46.1993 66.3992 46.3757 66.6265 46.6172C66.8561 46.8587 66.971 47.1617 66.971 47.5263C66.971 47.834 66.8857 48.1075 66.7153 48.3466C66.5448 48.5857 66.3069 48.7739 66.0015 48.9112C65.6985 49.0462 65.3469 49.1136 64.9468 49.1136C64.4142 49.1136 63.975 48.9941 63.6294 48.755C63.2837 48.5135 63.0624 48.1655 62.9653 47.7109L63.5725 47.5618C63.6507 47.8861 63.8034 48.1312 64.0306 48.2969C64.2603 48.4626 64.5621 48.5455 64.9362 48.5455C65.3552 48.5455 65.6902 48.4519 65.9411 48.2649C66.1921 48.0755 66.3176 47.8388 66.3176 47.5547C66.3176 47.3345 66.2442 47.1499 66.0974 47.0007C65.9506 46.8492 65.7281 46.7379 65.4298 46.6669L64.5384 46.4538C64.065 46.3402 63.7146 46.1603 63.4873 45.9141C63.26 45.6679 63.1464 45.3625 63.1464 44.9979C63.1464 44.6972 63.2281 44.4332 63.3914 44.206C63.5548 43.9763 63.7797 43.7964 64.0661 43.6662C64.3526 43.536 64.6793 43.4709 65.0463 43.4709C65.5458 43.4709 65.9447 43.5845 66.243 43.8118C66.5436 44.0367 66.7603 44.3468 66.8928 44.7422ZM70.4857 49.1136C69.998 49.1136 69.5731 48.9917 69.2108 48.7479C68.851 48.504 68.5716 48.1702 68.3728 47.7464C68.1739 47.3227 68.0745 46.8397 68.0745 46.2976C68.0745 45.7507 68.1751 45.2642 68.3763 44.8381C68.5799 44.4119 68.8617 44.0781 69.2215 43.8366C69.5814 43.5928 69.9992 43.4709 70.4751 43.4709C70.8396 43.4709 71.1699 43.5419 71.4658 43.6839C71.7617 43.8236 72.0056 44.0213 72.1974 44.277C72.3915 44.5303 72.5134 44.8262 72.5631 45.1648H71.9239C71.8576 44.857 71.6978 44.5942 71.4445 44.3764C71.1936 44.1562 70.874 44.0462 70.4857 44.0462C70.1377 44.0462 69.8299 44.1409 69.5624 44.3303C69.2949 44.5173 69.0854 44.7789 68.9339 45.1151C68.7847 45.4489 68.7101 45.8359 68.7101 46.2763C68.7101 46.719 68.7835 47.1108 68.9303 47.4517C69.0771 47.7902 69.2831 48.0554 69.5482 48.2472C69.8157 48.4389 70.1282 48.5348 70.4857 48.5348C70.7272 48.5348 70.9474 48.4898 71.1462 48.3999C71.3474 48.3075 71.5155 48.1773 71.6505 48.0092C71.7878 47.8411 71.8801 47.6411 71.9275 47.4091H72.5667C72.5193 47.7382 72.4021 48.0317 72.2151 48.2898C72.0305 48.5455 71.7902 48.7467 71.4942 48.8935C71.2007 49.0402 70.8645 49.1136 70.4857 49.1136ZM76.0415 49.1136C75.5703 49.1136 75.1537 48.9941 74.7915 48.755C74.4316 48.5159 74.1499 48.1856 73.9463 47.7642C73.7427 47.3404 73.6409 46.8516 73.6409 46.2976C73.6409 45.7389 73.7427 45.2476 73.9463 44.8239C74.1499 44.3977 74.4316 44.0663 74.7915 43.8295C75.1537 43.5904 75.5703 43.4709 76.0415 43.4709C76.5126 43.4709 76.9281 43.5904 77.2879 43.8295C77.6478 44.0687 77.9295 44.4001 78.1331 44.8239C78.339 45.2476 78.442 45.7389 78.442 46.2976C78.442 46.8516 78.3402 47.3404 78.1366 47.7642C77.933 48.1856 77.6501 48.5159 77.2879 48.755C76.9281 48.9941 76.5126 49.1136 76.0415 49.1136ZM76.0415 48.5348C76.4202 48.5348 76.741 48.433 77.0038 48.2294C77.2666 48.0258 77.4655 47.7547 77.6004 47.4162C77.7377 47.0777 77.8064 46.7048 77.8064 46.2976C77.8064 45.8904 77.7377 45.5163 77.6004 45.1754C77.4655 44.8345 77.2666 44.5611 77.0038 44.3551C76.741 44.1491 76.4202 44.0462 76.0415 44.0462C75.665 44.0462 75.3443 44.1491 75.0791 44.3551C74.8163 44.5611 74.6163 44.8345 74.479 45.1754C74.344 45.5163 74.2765 45.8904 74.2765 46.2976C74.2765 46.7048 74.344 47.0777 74.479 47.4162C74.6163 47.7547 74.8163 48.0258 75.0791 48.2294C75.3419 48.433 75.6627 48.5348 76.0415 48.5348ZM83.2955 46.9155V43.5455H83.9276V49H83.2955V48.0945H83.2458C83.118 48.3738 82.9156 48.607 82.6386 48.794C82.3616 48.9787 82.0231 49.071 81.623 49.071C81.2749 49.071 80.966 48.9953 80.6961 48.8438C80.4262 48.6899 80.2143 48.465 80.0605 48.169C79.9066 47.8731 79.8296 47.5097 79.8296 47.0788V43.5455H80.4617V47.0398C80.4617 47.4659 80.5872 47.8092 80.8382 48.0696C81.0891 48.3277 81.4111 48.4567 81.8041 48.4567C82.0503 48.4567 82.287 48.3975 82.5143 48.2791C82.7416 48.1607 82.9286 47.9879 83.0754 47.7607C83.2222 47.531 83.2955 47.2493 83.2955 46.9155ZM86.2332 45.5909V49H85.6011V43.5455H86.2155V44.4013H86.2723C86.4001 44.1219 86.599 43.8982 86.8689 43.7301C87.1411 43.5597 87.4773 43.4744 87.8774 43.4744C88.2443 43.4744 88.5663 43.5514 88.8433 43.7053C89.1227 43.8568 89.3393 44.0805 89.4932 44.3764C89.6494 44.6723 89.7275 45.0357 89.7275 45.4666V49H89.0954V45.5057C89.0954 45.0582 88.97 44.7043 88.719 44.4439C88.4704 44.1835 88.1366 44.0533 87.7176 44.0533C87.4311 44.0533 87.1766 44.1148 86.9541 44.2379C86.7316 44.361 86.5552 44.5386 86.425 44.7706C86.2971 45.0002 86.2332 45.2737 86.2332 45.5909ZM93.5406 43.5455V44.0959H90.9376V43.5455H93.5406ZM91.7508 42.2386H92.3865V47.576C92.3865 47.8033 92.4255 47.982 92.5036 48.1122C92.5818 48.2401 92.6836 48.3312 92.809 48.3857C92.9345 48.4377 93.0683 48.4638 93.2103 48.4638C93.2932 48.4638 93.3642 48.459 93.4234 48.4496C93.4826 48.4377 93.5347 48.4259 93.5796 48.4141L93.7146 48.9858C93.653 49.0095 93.5773 49.0308 93.4873 49.0497C93.3973 49.071 93.2861 49.0817 93.1535 49.0817C92.9215 49.0817 92.6978 49.0308 92.4823 48.929C92.2693 48.8272 92.0941 48.6757 91.9568 48.4744C91.8195 48.2732 91.7508 48.0234 91.7508 47.7251V42.2386ZM44.431 61.1136C43.9433 61.1136 43.5184 60.9917 43.1562 60.7479C42.7963 60.504 42.517 60.1702 42.3181 59.7464C42.1192 59.3227 42.0198 58.8397 42.0198 58.2976C42.0198 57.7507 42.1204 57.2642 42.3216 56.8381C42.5252 56.4119 42.807 56.0781 43.1668 55.8366C43.5267 55.5928 43.9445 55.4709 44.4204 55.4709C44.7849 55.4709 45.1152 55.5419 45.4111 55.6839C45.7071 55.8236 45.9509 56.0213 46.1427 56.277C46.3368 56.5303 46.4587 56.8262 46.5084 57.1648H45.8692C45.8029 56.857 45.6431 56.5942 45.3898 56.3764C45.1389 56.1562 44.8193 56.0462 44.431 56.0462C44.083 56.0462 43.7752 56.1409 43.5077 56.3303C43.2402 56.5173 43.0307 56.7789 42.8792 57.1151C42.73 57.4489 42.6555 57.8359 42.6555 58.2763C42.6555 58.719 42.7288 59.1108 42.8756 59.4517C43.0224 59.7902 43.2284 60.0554 43.4935 60.2472C43.761 60.4389 44.0735 60.5348 44.431 60.5348C44.6725 60.5348 44.8927 60.4898 45.0915 60.3999C45.2928 60.3075 45.4608 60.1773 45.5958 60.0092C45.7331 59.8411 45.8254 59.6411 45.8728 59.4091H46.512C46.4646 59.7382 46.3474 60.0317 46.1604 60.2898C45.9758 60.5455 45.7355 60.7467 45.4395 60.8935C45.146 61.0402 44.8098 61.1136 44.431 61.1136ZM49.9868 61.1136C49.5157 61.1136 49.099 60.9941 48.7368 60.755C48.3769 60.5159 48.0952 60.1856 47.8916 59.7642C47.688 59.3404 47.5862 58.8516 47.5862 58.2976C47.5862 57.7389 47.688 57.2476 47.8916 56.8239C48.0952 56.3977 48.3769 56.0663 48.7368 55.8295C49.099 55.5904 49.5157 55.4709 49.9868 55.4709C50.4579 55.4709 50.8734 55.5904 51.2332 55.8295C51.5931 56.0687 51.8748 56.4001 52.0784 56.8239C52.2844 57.2476 52.3873 57.7389 52.3873 58.2976C52.3873 58.8516 52.2855 59.3404 52.0819 59.7642C51.8783 60.1856 51.5954 60.5159 51.2332 60.755C50.8734 60.9941 50.4579 61.1136 49.9868 61.1136ZM49.9868 60.5348C50.3656 60.5348 50.6863 60.433 50.9491 60.2294C51.2119 60.0258 51.4108 59.7547 51.5457 59.4162C51.683 59.0777 51.7517 58.7048 51.7517 58.2976C51.7517 57.8904 51.683 57.5163 51.5457 57.1754C51.4108 56.8345 51.2119 56.5611 50.9491 56.3551C50.6863 56.1491 50.3656 56.0462 49.9868 56.0462C49.6104 56.0462 49.2896 56.1491 49.0244 56.3551C48.7616 56.5611 48.5616 56.8345 48.4243 57.1754C48.2893 57.5163 48.2219 57.8904 48.2219 58.2976C48.2219 58.7048 48.2893 59.0777 48.4243 59.4162C48.5616 59.7547 48.7616 60.0258 49.0244 60.2294C49.2872 60.433 49.608 60.5348 49.9868 60.5348ZM57.2409 58.9155V55.5455H57.873V61H57.2409V60.0945H57.1911C57.0633 60.3738 56.8609 60.607 56.5839 60.794C56.3069 60.9787 55.9684 61.071 55.5683 61.071C55.2203 61.071 54.9113 60.9953 54.6414 60.8438C54.3715 60.6899 54.1597 60.465 54.0058 60.169C53.8519 59.8731 53.7749 59.5097 53.7749 59.0788V55.5455H54.407V59.0398C54.407 59.4659 54.5325 59.8092 54.7835 60.0696C55.0344 60.3277 55.3564 60.4567 55.7494 60.4567C55.9956 60.4567 56.2323 60.3975 56.4596 60.2791C56.6869 60.1607 56.8739 59.9879 57.0207 59.7607C57.1675 59.531 57.2409 59.2493 57.2409 58.9155ZM59.5464 63.0455V55.5455H60.1608V56.5859H60.2354C60.3111 56.4226 60.4153 56.2557 60.5479 56.0852C60.6804 55.9124 60.8556 55.7668 61.0734 55.6484C61.2936 55.5301 61.5706 55.4709 61.9044 55.4709C62.3542 55.4709 62.7472 55.5893 63.0834 55.826C63.4219 56.0604 63.6847 56.3894 63.8717 56.8132C64.0611 57.2346 64.1558 57.7259 64.1558 58.2869C64.1558 58.8504 64.0611 59.344 63.8717 59.7678C63.6847 60.1915 63.4219 60.5218 63.0834 60.7585C62.7472 60.9953 62.3566 61.1136 61.9115 61.1136C61.5824 61.1136 61.3066 61.0545 61.0841 60.9361C60.8639 60.8177 60.6852 60.6721 60.5479 60.4993C60.4129 60.3241 60.3087 60.1536 60.2354 59.9879H60.1785V63.0455H59.5464ZM60.1714 58.2763C60.1714 58.7166 60.2365 59.1072 60.3667 59.4482C60.4993 59.7867 60.6887 60.053 60.9349 60.2472C61.1835 60.4389 61.4842 60.5348 61.8369 60.5348C62.1991 60.5348 62.5045 60.4354 62.7531 60.2365C63.0041 60.0353 63.1946 59.7642 63.3248 59.4233C63.4574 59.0824 63.5237 58.7 63.5237 58.2763C63.5237 57.8572 63.4586 57.4796 63.3284 57.1435C63.2006 56.8073 63.0112 56.541 62.7602 56.3445C62.5093 56.1456 62.2015 56.0462 61.8369 56.0462C61.4818 56.0462 61.18 56.142 60.9314 56.3338C60.6828 56.5232 60.4934 56.786 60.3632 57.1222C60.2354 57.456 60.1714 57.8407 60.1714 58.2763ZM67.6626 61.1136C67.1914 61.1136 66.7748 60.9941 66.4126 60.755C66.0527 60.5159 65.771 60.1856 65.5674 59.7642C65.3638 59.3404 65.262 58.8516 65.262 58.2976C65.262 57.7389 65.3638 57.2476 65.5674 56.8239C65.771 56.3977 66.0527 56.0663 66.4126 55.8295C66.7748 55.5904 67.1914 55.4709 67.6626 55.4709C68.1337 55.4709 68.5492 55.5904 68.909 55.8295C69.2689 56.0687 69.5506 56.4001 69.7542 56.8239C69.9601 57.2476 70.0631 57.7389 70.0631 58.2976C70.0631 58.8516 69.9613 59.3404 69.7577 59.7642C69.5541 60.1856 69.2712 60.5159 68.909 60.755C68.5492 60.9941 68.1337 61.1136 67.6626 61.1136ZM67.6626 60.5348C68.0413 60.5348 68.3621 60.433 68.6249 60.2294C68.8877 60.0258 69.0866 59.7547 69.2215 59.4162C69.3588 59.0777 69.4275 58.7048 69.4275 58.2976C69.4275 57.8904 69.3588 57.5163 69.2215 57.1754C69.0866 56.8345 68.8877 56.5611 68.6249 56.3551C68.3621 56.1491 68.0413 56.0462 67.6626 56.0462C67.2861 56.0462 66.9653 56.1491 66.7002 56.3551C66.4374 56.5611 66.2374 56.8345 66.1001 57.1754C65.9651 57.5163 65.8976 57.8904 65.8976 58.2976C65.8976 58.7048 65.9651 59.0777 66.1001 59.4162C66.2374 59.7547 66.4374 60.0258 66.7002 60.2294C66.963 60.433 67.2838 60.5348 67.6626 60.5348ZM72.0828 57.5909V61H71.4507V55.5455H72.0651V56.4013H72.1219C72.2497 56.1219 72.4486 55.8982 72.7185 55.7301C72.9907 55.5597 73.3269 55.4744 73.727 55.4744C74.094 55.4744 74.4159 55.5514 74.6929 55.7053C74.9723 55.8568 75.1889 56.0805 75.3428 56.3764C75.499 56.6723 75.5771 57.0357 75.5771 57.4666V61H74.945V57.5057C74.945 57.0582 74.8196 56.7043 74.5686 56.4439C74.32 56.1835 73.9862 56.0533 73.5672 56.0533C73.2807 56.0533 73.0262 56.1148 72.8037 56.2379C72.5812 56.361 72.4048 56.5386 72.2746 56.7706C72.1468 57.0002 72.0828 57.2737 72.0828 57.5909ZM80.9065 56.7422L80.3277 56.9055C80.2709 56.7422 80.1904 56.5942 80.0862 56.4616C79.982 56.3291 79.8459 56.2237 79.6778 56.1456C79.5121 56.0675 79.3061 56.0284 79.0599 56.0284C78.6906 56.0284 78.3876 56.116 78.1508 56.2912C77.9141 56.4664 77.7957 56.6925 77.7957 56.9695C77.7957 57.2038 77.8762 57.3944 78.0372 57.5412C78.2006 57.6856 78.4515 57.8004 78.79 57.8857L79.6139 58.0881C80.0708 58.1993 80.4129 58.3757 80.6402 58.6172C80.8698 58.8587 80.9846 59.1617 80.9846 59.5263C80.9846 59.834 80.8994 60.1075 80.729 60.3466C80.5585 60.5857 80.3206 60.7739 80.0152 60.9112C79.7122 61.0462 79.3606 61.1136 78.9605 61.1136C78.4278 61.1136 77.9887 60.9941 77.643 60.755C77.2974 60.5135 77.076 60.1655 76.979 59.7109L77.5862 59.5618C77.6643 59.8861 77.817 60.1312 78.0443 60.2969C78.2739 60.4626 78.5758 60.5455 78.9498 60.5455C79.3689 60.5455 79.7039 60.4519 79.9548 60.2649C80.2058 60.0755 80.3312 59.8388 80.3312 59.5547C80.3312 59.3345 80.2578 59.1499 80.1111 59.0007C79.9643 58.8492 79.7417 58.7379 79.4434 58.6669L78.5521 58.4538C78.0786 58.3402 77.7282 58.1603 77.501 57.9141C77.2737 57.6679 77.1601 57.3625 77.1601 56.9979C77.1601 56.6972 77.2417 56.4332 77.4051 56.206C77.5684 55.9763 77.7934 55.7964 78.0798 55.6662C78.3663 55.536 78.693 55.4709 79.0599 55.4709C79.5595 55.4709 79.9584 55.5845 80.2567 55.8118C80.5573 56.0367 80.7739 56.3468 80.9065 56.7422Z" fill="#222222"/>
<defs>
<filter id="filter0_d_991_208" x="0" y="0" width="118" height="118" filterUnits="userSpaceOnUse" color-interpolation-filters="sRGB">
<feFlood flood-opacity="0" result="BackgroundImageFix"/>
<feColorMatrix in="SourceAlpha" type="matrix" values="0 0 0 0 0 0 0 0 0 0 0 0 0 0 0 0 0 0 127 0" result="hardAlpha"/>
<feOffset dy="4"/>
<feGaussianBlur stdDeviation="2"/>
<feComposite in2="hardAlpha" operator="out"/>
<feColorMatrix type="matrix" values="0 0 0 0 0 0 0 0 0 0 0 0 0 0 0 0 0 0 0.25 0"/>
<feBlend mode="normal" in2="BackgroundImageFix" result="effect1_dropShadow_991_208"/>
<feBlend mode="normal" in="SourceGraphic" in2="effect1_dropShadow_991_208" result="shape"/>
</filter>
</defs>
</svg>
