<svg width="118" height="118" viewBox="0 0 118 118" fill="none" xmlns="http://www.w3.org/2000/svg">
<g filter="url(#filter0_d_991_205)">
<rect x="4" width="110" height="110" fill="#C9C8D8" fill-opacity="0.5" shape-rendering="crispEdges"/>
</g>
<path d="M16.744 49V43.5455H17.3796V49H16.744ZM17.0671 42.608C16.9369 42.608 16.8256 42.5642 16.7333 42.4766C16.641 42.3866 16.5948 42.2789 16.5948 42.1534C16.5948 42.0279 16.641 41.9214 16.7333 41.8338C16.8256 41.7438 16.9369 41.6989 17.0671 41.6989C17.1973 41.6989 17.3086 41.7438 17.4009 41.8338C17.4933 41.9214 17.5394 42.0279 17.5394 42.1534C17.5394 42.2789 17.4933 42.3866 17.4009 42.4766C17.3086 42.5642 17.1973 42.608 17.0671 42.608ZM19.6834 45.5909V49H19.0513V43.5455H19.6657V44.4013H19.7225C19.8503 44.1219 20.0492 43.8982 20.3191 43.7301C20.5913 43.5597 20.9275 43.4744 21.3276 43.4744C21.6945 43.4744 22.0165 43.5514 22.2935 43.7053C22.5729 43.8568 22.7895 44.0805 22.9434 44.3764C23.0996 44.6723 23.1777 45.0357 23.1777 45.4666V49H22.5456V45.5057C22.5456 45.0582 22.4202 44.7043 22.1692 44.4439C21.9206 44.1835 21.5868 44.0533 21.1678 44.0533C20.8813 44.0533 20.6268 44.1148 20.4043 44.2379C20.1818 44.361 20.0054 44.5386 19.8752 44.7706C19.7473 45.0002 19.6834 45.2737 19.6834 45.5909ZM26.973 49.1136C26.4853 49.1136 26.0604 48.9917 25.6982 48.7479C25.3383 48.504 25.0589 48.1702 24.8601 47.7464C24.6612 47.3227 24.5618 46.8397 24.5618 46.2976C24.5618 45.7507 24.6624 45.2642 24.8636 44.8381C25.0672 44.4119 25.349 44.0781 25.7088 43.8366C26.0687 43.5928 26.4865 43.4709 26.9624 43.4709C27.3269 43.4709 27.6572 43.5419 27.9531 43.6839C28.2491 43.8236 28.4929 44.0213 28.6847 44.277C28.8788 44.5303 29.0007 44.8262 29.0504 45.1648H28.4112C28.3449 44.857 28.1851 44.5942 27.9318 44.3764C27.6809 44.1562 27.3613 44.0462 26.973 44.0462C26.625 44.0462 26.3172 44.1409 26.0497 44.3303C25.7822 44.5173 25.5727 44.7789 25.4212 45.1151C25.272 45.4489 25.1974 45.8359 25.1974 46.2763C25.1974 46.719 25.2708 47.1108 25.4176 47.4517C25.5644 47.7902 25.7704 48.0554 26.0355 48.2472C26.303 48.4389 26.6155 48.5348 26.973 48.5348C27.2145 48.5348 27.4347 48.4898 27.6335 48.3999C27.8348 48.3075 28.0028 48.1773 28.1378 48.0092C28.2751 47.8411 28.3674 47.6411 28.4148 47.4091H29.054C29.0066 47.7382 28.8894 48.0317 28.7024 48.2898C28.5178 48.5455 28.2775 48.7467 27.9815 48.8935C27.688 49.0402 27.3518 49.1136 26.973 49.1136ZM31.0408 41.7273V49H30.4087V41.7273H31.0408ZM36.1793 46.9155V43.5455H36.8114V49H36.1793V48.0945H36.1296C36.0018 48.3738 35.7994 48.607 35.5224 48.794C35.2454 48.9787 34.9068 49.071 34.5067 49.071C34.1587 49.071 33.8498 48.9953 33.5799 48.8438C33.31 48.6899 33.0981 48.465 32.9442 48.169C32.7904 47.8731 32.7134 47.5097 32.7134 47.0788V43.5455H33.3455V47.0398C33.3455 47.4659 33.471 47.8092 33.7219 48.0696C33.9729 48.3277 34.2949 48.4567 34.6879 48.4567C34.9341 48.4567 35.1708 48.3975 35.3981 48.2791C35.6254 48.1607 35.8124 47.9879 35.9592 47.7607C36.1059 47.531 36.1793 47.2493 36.1793 46.9155ZM40.4487 49.1136C40.0012 49.1136 39.6094 48.9953 39.2733 48.7585C38.9371 48.5218 38.6743 48.1915 38.4849 47.7678C38.2979 47.344 38.2044 46.8504 38.2044 46.2869C38.2044 45.7259 38.2979 45.2346 38.4849 44.8132C38.6743 44.3894 38.9383 44.0604 39.2768 43.826C39.6154 43.5893 40.0095 43.4709 40.4593 43.4709C40.7908 43.4709 41.0666 43.5301 41.2868 43.6484C41.5069 43.7644 41.6833 43.9089 41.8159 44.0817C41.9484 44.2545 42.0514 44.4226 42.1248 44.5859H42.1816V41.7273H42.8173V49H42.1994V47.9879H42.1248C42.0514 48.1536 41.9473 48.3241 41.8123 48.4993C41.6774 48.6721 41.4986 48.8177 41.2761 48.9361C41.0559 49.0545 40.7801 49.1136 40.4487 49.1136ZM40.5233 48.5348C40.876 48.5348 41.1767 48.4389 41.4252 48.2472C41.6738 48.053 41.8632 47.7867 41.9934 47.4482C42.126 47.1072 42.1923 46.7166 42.1923 46.2763C42.1923 45.8407 42.1272 45.456 41.997 45.1222C41.8668 44.786 41.6774 44.5232 41.4288 44.3338C41.1802 44.142 40.8784 44.0462 40.5233 44.0462C40.1587 44.0462 39.8509 44.1456 39.6 44.3445C39.3514 44.541 39.162 44.8073 39.0318 45.1435C38.9039 45.4796 38.84 45.8572 38.84 46.2763C38.84 46.7 38.9051 47.0824 39.0353 47.4233C39.1655 47.7642 39.3549 48.0353 39.6035 48.2365C39.8545 48.4354 40.161 48.5348 40.5233 48.5348ZM46.823 49.1136C46.314 49.1136 45.8736 48.9953 45.502 48.7585C45.1303 48.5194 44.8426 48.1892 44.639 47.7678C44.4378 47.344 44.3372 46.8563 44.3372 46.3047C44.3372 45.7554 44.4378 45.2678 44.639 44.8416C44.8426 44.4131 45.1232 44.0781 45.4806 43.8366C45.8405 43.5928 46.256 43.4709 46.7271 43.4709C47.023 43.4709 47.3083 43.5253 47.5829 43.6342C47.8575 43.7408 48.1038 43.9053 48.3216 44.1278C48.5417 44.348 48.7157 44.6262 48.8436 44.9624C48.9714 45.2962 49.0353 45.6915 49.0353 46.1484V46.4609H44.774V45.9034H48.389C48.389 45.553 48.318 45.2382 48.176 44.9588C48.0363 44.6771 47.841 44.4545 47.59 44.2912C47.3414 44.1278 47.0538 44.0462 46.7271 44.0462C46.3815 44.0462 46.0772 44.1385 45.8145 44.3232C45.5517 44.5078 45.3457 44.7517 45.1966 45.0547C45.0498 45.3577 44.9752 45.6892 44.9728 46.049V46.3828C44.9728 46.8161 45.0474 47.1948 45.1966 47.5192C45.3481 47.8411 45.5623 48.0909 45.8393 48.2685C46.1163 48.446 46.4442 48.5348 46.823 48.5348C47.081 48.5348 47.3071 48.4946 47.5012 48.4141C47.6977 48.3336 47.8623 48.2259 47.9949 48.0909C48.1298 47.9536 48.2316 47.8033 48.3002 47.6399L48.9004 47.8352C48.8175 48.0649 48.6814 48.2768 48.492 48.4709C48.305 48.665 48.0706 48.8213 47.7889 48.9396C47.5095 49.0556 47.1876 49.1136 46.823 49.1136ZM53.2408 51.0455V43.5455H53.8551V44.5859H53.9297C54.0054 44.4226 54.1096 44.2557 54.2422 44.0852C54.3748 43.9124 54.55 43.7668 54.7678 43.6484C54.9879 43.5301 55.2649 43.4709 55.5987 43.4709C56.0485 43.4709 56.4415 43.5893 56.7777 43.826C57.1162 44.0604 57.379 44.3894 57.5661 44.8132C57.7554 45.2346 57.8501 45.7259 57.8501 46.2869C57.8501 46.8504 57.7554 47.344 57.5661 47.7678C57.379 48.1915 57.1162 48.5218 56.7777 48.7585C56.4415 48.9953 56.0509 49.1136 55.6058 49.1136C55.2768 49.1136 55.0009 49.0545 54.7784 48.9361C54.5582 48.8177 54.3795 48.6721 54.2422 48.4993C54.1072 48.3241 54.0031 48.1536 53.9297 47.9879H53.8729V51.0455H53.2408ZM53.8658 46.2763C53.8658 46.7166 53.9309 47.1072 54.0611 47.4482C54.1937 47.7867 54.383 48.053 54.6293 48.2472C54.8778 48.4389 55.1785 48.5348 55.5312 48.5348C55.8935 48.5348 56.1989 48.4354 56.4474 48.2365C56.6984 48.0353 56.889 47.7642 57.0192 47.4233C57.1518 47.0824 57.218 46.7 57.218 46.2763C57.218 45.8572 57.1529 45.4796 57.0227 45.1435C56.8949 44.8073 56.7055 44.541 56.4545 44.3445C56.2036 44.1456 55.8958 44.0462 55.5312 44.0462C55.1761 44.0462 54.8743 44.142 54.6257 44.3338C54.3771 44.5232 54.1877 44.786 54.0575 45.1222C53.9297 45.456 53.8658 45.8407 53.8658 46.2763ZM61.3569 49.1136C60.8858 49.1136 60.4691 48.9941 60.1069 48.755C59.747 48.5159 59.4653 48.1856 59.2617 47.7642C59.0581 47.3404 58.9563 46.8516 58.9563 46.2976C58.9563 45.7389 59.0581 45.2476 59.2617 44.8239C59.4653 44.3977 59.747 44.0663 60.1069 43.8295C60.4691 43.5904 60.8858 43.4709 61.3569 43.4709C61.828 43.4709 62.2435 43.5904 62.6033 43.8295C62.9632 44.0687 63.2449 44.4001 63.4485 44.8239C63.6545 45.2476 63.7575 45.7389 63.7575 46.2976C63.7575 46.8516 63.6557 47.3404 63.4521 47.7642C63.2485 48.1856 62.9656 48.5159 62.6033 48.755C62.2435 48.9941 61.828 49.1136 61.3569 49.1136ZM61.3569 48.5348C61.7357 48.5348 62.0565 48.433 62.3192 48.2294C62.582 48.0258 62.7809 47.7547 62.9158 47.4162C63.0531 47.0777 63.1218 46.7048 63.1218 46.2976C63.1218 45.8904 63.0531 45.5163 62.9158 45.1754C62.7809 44.8345 62.582 44.5611 62.3192 44.3551C62.0565 44.1491 61.7357 44.0462 61.3569 44.0462C60.9805 44.0462 60.6597 44.1491 60.3945 44.3551C60.1317 44.5611 59.9317 44.8345 59.7944 45.1754C59.6594 45.5163 59.592 45.8904 59.592 46.2976C59.592 46.7048 59.6594 47.0777 59.7944 47.4162C59.9317 47.7547 60.1317 48.0258 60.3945 48.2294C60.6573 48.433 60.9781 48.5348 61.3569 48.5348ZM65.1451 49V43.5455H65.7594V44.3835H65.8056C65.9145 44.1089 66.1039 43.8875 66.3738 43.7195C66.646 43.549 66.9538 43.4638 67.2971 43.4638C67.3491 43.4638 67.4071 43.465 67.4711 43.4673C67.535 43.4697 67.5882 43.4721 67.6309 43.4744V44.1172C67.6025 44.1125 67.5527 44.1054 67.4817 44.0959C67.4107 44.0864 67.3337 44.0817 67.2509 44.0817C66.9668 44.0817 66.7135 44.142 66.4909 44.2628C66.2708 44.3812 66.0968 44.5457 65.9689 44.7564C65.8411 44.9671 65.7772 45.2074 65.7772 45.4773V49H65.1451ZM71.1998 43.5455V44.0959H68.5968V43.5455H71.1998ZM69.41 42.2386H70.0456V47.576C70.0456 47.8033 70.0847 47.982 70.1628 48.1122C70.2409 48.2401 70.3427 48.3312 70.4682 48.3857C70.5937 48.4377 70.7275 48.4638 70.8695 48.4638C70.9524 48.4638 71.0234 48.459 71.0826 48.4496C71.1417 48.4377 71.1938 48.4259 71.2388 48.4141L71.3738 48.9858C71.3122 49.0095 71.2364 49.0308 71.1465 49.0497C71.0565 49.071 70.9453 49.0817 70.8127 49.0817C70.5807 49.0817 70.3569 49.0308 70.1415 48.929C69.9284 48.8272 69.7533 48.6757 69.6159 48.4744C69.4786 48.2732 69.41 48.0234 69.41 47.7251V42.2386ZM76.1012 46.9155V43.5455H76.7333V49H76.1012V48.0945H76.0515C75.9237 48.3738 75.7212 48.607 75.4442 48.794C75.1673 48.9787 74.8287 49.071 74.4286 49.071C74.0806 49.071 73.7717 48.9953 73.5018 48.8438C73.2319 48.6899 73.02 48.465 72.8661 48.169C72.7122 47.8731 72.6353 47.5097 72.6353 47.0788V43.5455H73.2674V47.0398C73.2674 47.4659 73.3929 47.8092 73.6438 48.0696C73.8948 48.3277 74.2167 48.4567 74.6097 48.4567C74.8559 48.4567 75.0927 48.3975 75.32 48.2791C75.5472 48.1607 75.7343 47.9879 75.881 47.7607C76.0278 47.531 76.1012 47.2493 76.1012 46.9155ZM80.4877 51.1591C80.1161 51.1591 79.7905 51.1106 79.5112 51.0135C79.2318 50.9188 78.9963 50.7886 78.8045 50.6229C78.6127 50.4571 78.4636 50.2713 78.3571 50.0653L78.8755 49.7244C78.9537 49.8617 79.0578 49.9967 79.188 50.1293C79.3206 50.2618 79.4922 50.3719 79.7029 50.4595C79.916 50.5471 80.1776 50.5909 80.4877 50.5909C80.9707 50.5909 81.3601 50.4702 81.6561 50.2287C81.9544 49.9872 82.1035 49.612 82.1035 49.103V47.8743H82.0467C81.9733 48.04 81.868 48.2057 81.7306 48.3714C81.5933 48.5348 81.4134 48.6709 81.1909 48.7798C80.9707 48.8887 80.6973 48.9432 80.3706 48.9432C79.935 48.9432 79.5479 48.8355 79.2093 48.62C78.8732 48.4046 78.608 48.0968 78.4139 47.6967C78.2221 47.2943 78.1262 46.8149 78.1262 46.2585C78.1262 45.7069 78.2198 45.2216 78.4068 44.8026C78.5962 44.3835 78.8601 44.0568 79.1987 43.8224C79.5372 43.5881 79.9314 43.4709 80.3812 43.4709C80.715 43.4709 80.992 43.5301 81.2122 43.6484C81.4324 43.7644 81.6087 43.9089 81.7413 44.0817C81.8762 44.2545 81.9816 44.4226 82.0574 44.5859H82.1213V43.5455H82.7392V49.142C82.7392 49.6037 82.6409 49.9837 82.4444 50.282C82.2479 50.5803 81.9804 50.8004 81.6419 50.9425C81.3033 51.0869 80.9186 51.1591 80.4877 51.1591ZM80.4451 48.3643C80.7955 48.3643 81.095 48.2803 81.3436 48.1122C81.5922 47.9418 81.7827 47.6979 81.9153 47.3807C82.0479 47.0634 82.1142 46.6858 82.1142 46.2479C82.1142 45.8217 82.0491 45.4441 81.9189 45.1151C81.7886 44.7836 81.5993 44.5232 81.3507 44.3338C81.1045 44.142 80.8026 44.0462 80.4451 44.0462C80.0806 44.0462 79.7728 44.1444 79.5218 44.3409C79.2709 44.5374 79.0815 44.8026 78.9537 45.1364C78.8258 45.4678 78.7619 45.8383 78.7619 46.2479C78.7619 46.6645 78.827 47.0327 78.9572 47.3523C79.0874 47.6695 79.278 47.9181 79.5289 48.098C79.7799 48.2756 80.0853 48.3643 80.4451 48.3643ZM87.8786 46.9155V43.5455H88.5107V49H87.8786V48.0945H87.8288C87.701 48.3738 87.4986 48.607 87.2216 48.794C86.9446 48.9787 86.6061 49.071 86.206 49.071C85.858 49.071 85.549 48.9953 85.2791 48.8438C85.0092 48.6899 84.7973 48.465 84.6435 48.169C84.4896 47.8731 84.4126 47.5097 84.4126 47.0788V43.5455H85.0447V47.0398C85.0447 47.4659 85.1702 47.8092 85.4212 48.0696C85.6721 48.3277 85.9941 48.4567 86.3871 48.4567C86.6333 48.4567 86.87 48.3975 87.0973 48.2791C87.3246 48.1607 87.5116 47.9879 87.6584 47.7607C87.8052 47.531 87.8786 47.2493 87.8786 46.9155ZM92.3894 49.1136C91.8804 49.1136 91.44 48.9953 91.0684 48.7585C90.6967 48.5194 90.409 48.1892 90.2054 47.7678C90.0042 47.344 89.9036 46.8563 89.9036 46.3047C89.9036 45.7554 90.0042 45.2678 90.2054 44.8416C90.409 44.4131 90.6896 44.0781 91.0471 43.8366C91.4069 43.5928 91.8224 43.4709 92.2935 43.4709C92.5894 43.4709 92.8747 43.5253 93.1493 43.6342C93.4239 43.7408 93.6702 43.9053 93.888 44.1278C94.1081 44.348 94.2821 44.6262 94.41 44.9624C94.5378 45.2962 94.6017 45.6915 94.6017 46.1484V46.4609H90.3404V45.9034H93.9554C93.9554 45.553 93.8844 45.2382 93.7424 44.9588C93.6027 44.6771 93.4074 44.4545 93.1564 44.2912C92.9078 44.1278 92.6202 44.0462 92.2935 44.0462C91.9479 44.0462 91.6436 44.1385 91.3809 44.3232C91.1181 44.5078 90.9121 44.7517 90.763 45.0547C90.6162 45.3577 90.5416 45.6892 90.5392 46.049V46.3828C90.5392 46.8161 90.6138 47.1948 90.763 47.5192C90.9145 47.8411 91.1287 48.0909 91.4057 48.2685C91.6827 48.446 92.0106 48.5348 92.3894 48.5348C92.6474 48.5348 92.8735 48.4946 93.0676 48.4141C93.2641 48.3336 93.4287 48.2259 93.5613 48.0909C93.6962 47.9536 93.798 47.8033 93.8667 47.6399L94.4668 47.8352C94.3839 48.0649 94.2478 48.2768 94.0584 48.4709C93.8714 48.665 93.637 48.8213 93.3553 48.9396C93.0759 49.0556 92.754 49.1136 92.3894 49.1136ZM99.6594 44.7422L99.0806 44.9055C99.0238 44.7422 98.9433 44.5942 98.8391 44.4616C98.735 44.3291 98.5988 44.2237 98.4308 44.1456C98.265 44.0675 98.0591 44.0284 97.8129 44.0284C97.4435 44.0284 97.1405 44.116 96.9038 44.2912C96.667 44.4664 96.5487 44.6925 96.5487 44.9695C96.5487 45.2038 96.6291 45.3944 96.7901 45.5412C96.9535 45.6856 97.2044 45.8004 97.543 45.8857L98.3668 46.0881C98.8237 46.1993 99.1658 46.3757 99.3931 46.6172C99.6228 46.8587 99.7376 47.1617 99.7376 47.5263C99.7376 47.834 99.6523 48.1075 99.4819 48.3466C99.3114 48.5857 99.0735 48.7739 98.7681 48.9112C98.4651 49.0462 98.1135 49.1136 97.7134 49.1136C97.1808 49.1136 96.7416 48.9941 96.396 48.755C96.0503 48.5135 95.829 48.1655 95.7319 47.7109L96.3391 47.5618C96.4173 47.8861 96.57 48.1312 96.7972 48.2969C97.0269 48.4626 97.3287 48.5455 97.7028 48.5455C98.1218 48.5455 98.4568 48.4519 98.7077 48.2649C98.9587 48.0755 99.0842 47.8388 99.0842 47.5547C99.0842 47.3345 99.0108 47.1499 98.864 47.0007C98.7172 46.8492 98.4947 46.7379 98.1964 46.6669L97.305 46.4538C96.8316 46.3402 96.4812 46.1603 96.2539 45.9141C96.0266 45.6679 95.913 45.3625 95.913 44.9979C95.913 44.6972 95.9947 44.4332 96.158 44.206C96.3214 43.9763 96.5463 43.7964 96.8327 43.6662C97.1192 43.536 97.4459 43.4709 97.8129 43.4709C98.3124 43.4709 98.7113 43.5845 99.0096 43.8118C99.3103 44.0367 99.5269 44.3468 99.6594 44.7422ZM103.327 49.1136C102.818 49.1136 102.378 48.9953 102.006 48.7585C101.634 48.5194 101.347 48.1892 101.143 47.7678C100.942 47.344 100.841 46.8563 100.841 46.3047C100.841 45.7554 100.942 45.2678 101.143 44.8416C101.347 44.4131 101.627 44.0781 101.985 43.8366C102.344 43.5928 102.76 43.4709 103.231 43.4709C103.527 43.4709 103.812 43.5253 104.087 43.6342C104.361 43.7408 104.608 43.9053 104.825 44.1278C105.046 44.348 105.22 44.6262 105.347 44.9624C105.475 45.2962 105.539 45.6915 105.539 46.1484V46.4609H101.278V45.9034H104.893C104.893 45.553 104.822 45.2382 104.68 44.9588C104.54 44.6771 104.345 44.4545 104.094 44.2912C103.845 44.1278 103.558 44.0462 103.231 44.0462C102.885 44.0462 102.581 44.1385 102.318 44.3232C102.056 44.5078 101.85 44.7517 101.7 45.0547C101.554 45.3577 101.479 45.6892 101.477 46.049V46.3828C101.477 46.8161 101.551 47.1948 101.7 47.5192C101.852 47.8411 102.066 48.0909 102.343 48.2685C102.62 48.446 102.948 48.5348 103.327 48.5348C103.585 48.5348 103.811 48.4946 104.005 48.4141C104.202 48.3336 104.366 48.2259 104.499 48.0909C104.634 47.9536 104.735 47.8033 104.804 47.6399L105.404 47.8352C105.321 48.0649 105.185 48.2768 104.996 48.4709C104.809 48.665 104.575 48.8213 104.293 48.9396C104.013 49.0556 103.691 49.1136 103.327 49.1136ZM19.0171 61.1243C18.6881 61.1243 18.3874 61.0604 18.1151 60.9325C17.8429 60.8023 17.6263 60.6153 17.4653 60.3714C17.3043 60.1252 17.2238 59.8269 17.2238 59.4766C17.2238 59.2067 17.2747 58.9794 17.3765 58.7947C17.4783 58.6101 17.6227 58.4586 17.8097 58.3402C17.9968 58.2218 18.2181 58.1283 18.4738 58.0597C18.7295 57.991 19.0112 57.9377 19.319 57.8999C19.6244 57.862 19.8824 57.8288 20.0931 57.8004C20.3062 57.772 20.4684 57.727 20.5796 57.6655C20.6909 57.6039 20.7465 57.5045 20.7465 57.3672V57.2393C20.7465 56.8677 20.6353 56.5753 20.4127 56.3622C20.1926 56.1468 19.8753 56.0391 19.461 56.0391C19.068 56.0391 18.7472 56.1255 18.4987 56.2983C18.2525 56.4711 18.0796 56.6747 17.9802 56.9091L17.3801 56.6925C17.5032 56.3942 17.6736 56.1562 17.8914 55.9787C18.1092 55.7988 18.3531 55.6697 18.623 55.5916C18.8928 55.5111 19.1663 55.4709 19.4433 55.4709C19.6516 55.4709 19.8682 55.4981 20.0931 55.5526C20.3204 55.607 20.5311 55.7017 20.7252 55.8366C20.9194 55.9692 21.0768 56.1551 21.1975 56.3942C21.3183 56.6309 21.3786 56.9316 21.3786 57.2962V61H20.7465V60.1371H20.7075C20.6317 60.2981 20.5193 60.4543 20.3701 60.6058C20.221 60.7573 20.0339 60.8816 19.809 60.9787C19.5841 61.0758 19.3202 61.1243 19.0171 61.1243ZM19.1024 60.5455C19.4385 60.5455 19.7297 60.4709 19.9759 60.3217C20.2222 60.1726 20.4115 59.9749 20.5441 59.7287C20.6791 59.4801 20.7465 59.2067 20.7465 58.9084V58.12C20.6992 58.165 20.6199 58.2053 20.5086 58.2408C20.3997 58.2763 20.2731 58.3082 20.1286 58.3366C19.9866 58.3627 19.8445 58.3852 19.7025 58.4041C19.5605 58.4231 19.4326 58.4396 19.319 58.4538C19.0112 58.4917 18.7484 58.5509 18.5306 58.6314C18.3128 58.7119 18.1459 58.8232 18.0299 58.9652C17.9139 59.1049 17.8559 59.2848 17.8559 59.505C17.8559 59.8364 17.9743 60.0933 18.211 60.2756C18.4478 60.4555 18.7449 60.5455 19.1024 60.5455ZM26.526 58.9155V55.5455H27.1581V61H26.526V60.0945H26.4763C26.3485 60.3738 26.146 60.607 25.8691 60.794C25.5921 60.9787 25.2535 61.071 24.8534 61.071C24.5054 61.071 24.1965 60.9953 23.9266 60.8438C23.6567 60.6899 23.4448 60.465 23.2909 60.169C23.137 59.8731 23.0601 59.5097 23.0601 59.0788V55.5455H23.6922V59.0398C23.6922 59.4659 23.8177 59.8092 24.0686 60.0696C24.3196 60.3277 24.6415 60.4567 25.0345 60.4567C25.2807 60.4567 25.5175 60.3975 25.7448 60.2791C25.972 60.1607 26.1591 59.9879 26.3058 59.7607C26.4526 59.531 26.526 59.2493 26.526 58.9155ZM30.7954 61.1136C30.3479 61.1136 29.9561 60.9953 29.6199 60.7585C29.2838 60.5218 29.021 60.1915 28.8316 59.7678C28.6446 59.344 28.551 58.8504 28.551 58.2869C28.551 57.7259 28.6446 57.2346 28.8316 56.8132C29.021 56.3894 29.2849 56.0604 29.6235 55.826C29.962 55.5893 30.3562 55.4709 30.806 55.4709C31.1375 55.4709 31.4133 55.5301 31.6334 55.6484C31.8536 55.7644 32.03 55.9089 32.1626 56.0817C32.2951 56.2545 32.3981 56.4226 32.4715 56.5859H32.5283V53.7273H33.164V61H32.5461V59.9879H32.4715C32.3981 60.1536 32.2939 60.3241 32.159 60.4993C32.0241 60.6721 31.8453 60.8177 31.6228 60.9361C31.4026 61.0545 31.1268 61.1136 30.7954 61.1136ZM30.8699 60.5348C31.2227 60.5348 31.5233 60.4389 31.7719 60.2472C32.0205 60.053 32.2099 59.7867 32.3401 59.4482C32.4727 59.1072 32.539 58.7166 32.539 58.2763C32.539 57.8407 32.4739 57.456 32.3437 57.1222C32.2135 56.786 32.0241 56.5232 31.7755 56.3338C31.5269 56.142 31.2251 56.0462 30.8699 56.0462C30.5054 56.0462 30.1976 56.1456 29.9466 56.3445C29.6981 56.541 29.5087 56.8073 29.3785 57.1435C29.2506 57.4796 29.1867 57.8572 29.1867 58.2763C29.1867 58.7 29.2518 59.0824 29.382 59.4233C29.5122 59.7642 29.7016 60.0353 29.9502 60.2365C30.2011 60.4354 30.5077 60.5348 30.8699 60.5348ZM34.9715 61V55.5455H35.6072V61H34.9715ZM35.2947 54.608C35.1644 54.608 35.0532 54.5642 34.9608 54.4766C34.8685 54.3866 34.8224 54.2789 34.8224 54.1534C34.8224 54.0279 34.8685 53.9214 34.9608 53.8338C35.0532 53.7438 35.1644 53.6989 35.2947 53.6989C35.4249 53.6989 35.5361 53.7438 35.6285 53.8338C35.7208 53.9214 35.767 54.0279 35.767 54.1534C35.767 54.2789 35.7208 54.3866 35.6285 54.4766C35.5361 54.5642 35.4249 54.608 35.2947 54.608ZM39.3989 61.1136C38.9278 61.1136 38.5111 60.9941 38.1489 60.755C37.789 60.5159 37.5073 60.1856 37.3037 59.7642C37.1001 59.3404 36.9983 58.8516 36.9983 58.2976C36.9983 57.7389 37.1001 57.2476 37.3037 56.8239C37.5073 56.3977 37.789 56.0663 38.1489 55.8295C38.5111 55.5904 38.9278 55.4709 39.3989 55.4709C39.87 55.4709 40.2855 55.5904 40.6453 55.8295C41.0052 56.0687 41.2869 56.4001 41.4905 56.8239C41.6965 57.2476 41.7994 57.7389 41.7994 58.2976C41.7994 58.8516 41.6977 59.3404 41.4941 59.7642C41.2905 60.1856 41.0075 60.5159 40.6453 60.755C40.2855 60.9941 39.87 61.1136 39.3989 61.1136ZM39.3989 60.5348C39.7777 60.5348 40.0985 60.433 40.3612 60.2294C40.624 60.0258 40.8229 59.7547 40.9578 59.4162C41.0951 59.0777 41.1638 58.7048 41.1638 58.2976C41.1638 57.8904 41.0951 57.5163 40.9578 57.1754C40.8229 56.8345 40.624 56.5611 40.3612 56.3551C40.0985 56.1491 39.7777 56.0462 39.3989 56.0462C39.0225 56.0462 38.7017 56.1491 38.4365 56.3551C38.1737 56.5611 37.9737 56.8345 37.8364 57.1754C37.7014 57.5163 37.634 57.8904 37.634 58.2976C37.634 58.7048 37.7014 59.0777 37.8364 59.4162C37.9737 59.7547 38.1737 60.0258 38.4365 60.2294C38.6993 60.433 39.0201 60.5348 39.3989 60.5348ZM47.523 61.1243C47.1939 61.1243 46.8933 61.0604 46.621 60.9325C46.3488 60.8023 46.1321 60.6153 45.9711 60.3714C45.8102 60.1252 45.7297 59.8269 45.7297 59.4766C45.7297 59.2067 45.7806 58.9794 45.8824 58.7947C45.9842 58.6101 46.1286 58.4586 46.3156 58.3402C46.5026 58.2218 46.724 58.1283 46.9797 58.0597C47.2354 57.991 47.5171 57.9377 47.8248 57.8999C48.1302 57.862 48.3883 57.8288 48.599 57.8004C48.8121 57.772 48.9742 57.727 49.0855 57.6655C49.1968 57.6039 49.2524 57.5045 49.2524 57.3672V57.2393C49.2524 56.8677 49.1411 56.5753 48.9186 56.3622C48.6984 56.1468 48.3812 56.0391 47.9669 56.0391C47.5739 56.0391 47.2531 56.1255 47.0045 56.2983C46.7583 56.4711 46.5855 56.6747 46.4861 56.9091L45.8859 56.6925C46.009 56.3942 46.1795 56.1562 46.3973 55.9787C46.6151 55.7988 46.8589 55.6697 47.1288 55.5916C47.3987 55.5111 47.6721 55.4709 47.9491 55.4709C48.1575 55.4709 48.3741 55.4981 48.599 55.5526C48.8263 55.607 49.037 55.7017 49.2311 55.8366C49.4252 55.9692 49.5827 56.1551 49.7034 56.3942C49.8241 56.6309 49.8845 56.9316 49.8845 57.2962V61H49.2524V60.1371H49.2133C49.1376 60.2981 49.0251 60.4543 48.876 60.6058C48.7268 60.7573 48.5398 60.8816 48.3149 60.9787C48.09 61.0758 47.826 61.1243 47.523 61.1243ZM47.6082 60.5455C47.9444 60.5455 48.2356 60.4709 48.4818 60.3217C48.728 60.1726 48.9174 59.9749 49.05 59.7287C49.1849 59.4801 49.2524 59.2067 49.2524 58.9084V58.12C49.205 58.165 49.1257 58.2053 49.0145 58.2408C48.9056 58.2763 48.7789 58.3082 48.6345 58.3366C48.4925 58.3627 48.3504 58.3852 48.2084 58.4041C48.0663 58.4231 47.9385 58.4396 47.8248 58.4538C47.5171 58.4917 47.2543 58.5509 47.0365 58.6314C46.8187 58.7119 46.6518 58.8232 46.5358 58.9652C46.4198 59.1049 46.3618 59.2848 46.3618 59.505C46.3618 59.8364 46.4801 60.0933 46.7169 60.2756C46.9536 60.4555 47.2507 60.5455 47.6082 60.5455ZM52.1981 57.5909V61H51.566V55.5455H52.1803V56.4013H52.2371C52.365 56.1219 52.5638 55.8982 52.8337 55.7301C53.106 55.5597 53.4421 55.4744 53.8422 55.4744C54.2092 55.4744 54.5312 55.5514 54.8081 55.7053C55.0875 55.8568 55.3041 56.0805 55.458 56.3764C55.6143 56.6723 55.6924 57.0357 55.6924 57.4666V61H55.0603V57.5057C55.0603 57.0582 54.9348 56.7043 54.6839 56.4439C54.4353 56.1835 54.1015 56.0533 53.6824 56.0533C53.396 56.0533 53.1415 56.1148 52.9189 56.2379C52.6964 56.361 52.52 56.5386 52.3898 56.7706C52.262 57.0002 52.1981 57.2737 52.1981 57.5909ZM59.3208 61.1136C58.8733 61.1136 58.4815 60.9953 58.1453 60.7585C57.8092 60.5218 57.5464 60.1915 57.357 59.7678C57.17 59.344 57.0764 58.8504 57.0764 58.2869C57.0764 57.7259 57.17 57.2346 57.357 56.8132C57.5464 56.3894 57.8103 56.0604 58.1489 55.826C58.4874 55.5893 58.8816 55.4709 59.3314 55.4709C59.6628 55.4709 59.9387 55.5301 60.1588 55.6484C60.379 55.7644 60.5554 55.9089 60.6879 56.0817C60.8205 56.2545 60.9235 56.4226 60.9969 56.5859H61.0537V53.7273H61.6894V61H61.0715V59.9879H60.9969C60.9235 60.1536 60.8193 60.3241 60.6844 60.4993C60.5494 60.6721 60.3707 60.8177 60.1482 60.9361C59.928 61.0545 59.6522 61.1136 59.3208 61.1136ZM59.3953 60.5348C59.7481 60.5348 60.0487 60.4389 60.2973 60.2472C60.5459 60.053 60.7353 59.7867 60.8655 59.4482C60.9981 59.1072 61.0644 58.7166 61.0644 58.2763C61.0644 57.8407 60.9993 57.456 60.8691 57.1222C60.7388 56.786 60.5494 56.5232 60.3009 56.3338C60.0523 56.142 59.7504 56.0462 59.3953 56.0462C59.0307 56.0462 58.723 56.1456 58.472 56.3445C58.2235 56.541 58.0341 56.8073 57.9039 57.1435C57.776 57.4796 57.7121 57.8572 57.7121 58.2763C57.7121 58.7 57.7772 59.0824 57.9074 59.4233C58.0376 59.7642 58.227 60.0353 58.4756 60.2365C58.7265 60.4354 59.0331 60.5348 59.3953 60.5348ZM69.9671 56.7422L69.3882 56.9055C69.3314 56.7422 69.2509 56.5942 69.1468 56.4616C69.0426 56.3291 68.9065 56.2237 68.7384 56.1456C68.5727 56.0675 68.3667 56.0284 68.1205 56.0284C67.7512 56.0284 67.4481 56.116 67.2114 56.2912C66.9746 56.4664 66.8563 56.6925 66.8563 56.9695C66.8563 57.2038 66.9368 57.3944 67.0977 57.5412C67.2611 57.6856 67.512 57.8004 67.8506 57.8857L68.6744 58.0881C69.1314 58.1993 69.4735 58.3757 69.7007 58.6172C69.9304 58.8587 70.0452 59.1617 70.0452 59.5263C70.0452 59.834 69.96 60.1075 69.7895 60.3466C69.6191 60.5857 69.3811 60.7739 69.0757 60.9112C68.7727 61.0462 68.4211 61.1136 68.021 61.1136C67.4884 61.1136 67.0492 60.9941 66.7036 60.755C66.3579 60.5135 66.1366 60.1655 66.0395 59.7109L66.6468 59.5618C66.7249 59.8861 66.8776 60.1312 67.1048 60.2969C67.3345 60.4626 67.6363 60.5455 68.0104 60.5455C68.4294 60.5455 68.7644 60.4519 69.0154 60.2649C69.2663 60.0755 69.3918 59.8388 69.3918 59.5547C69.3918 59.3345 69.3184 59.1499 69.1716 59.0007C69.0248 58.8492 68.8023 58.7379 68.504 58.6669L67.6127 58.4538C67.1392 58.3402 66.7888 58.1603 66.5615 57.9141C66.3343 57.6679 66.2206 57.3625 66.2206 56.9979C66.2206 56.6972 66.3023 56.4332 66.4656 56.206C66.629 55.9763 66.8539 55.7964 67.1404 55.6662C67.4268 55.536 67.7535 55.4709 68.1205 55.4709C68.62 55.4709 69.0189 55.5845 69.3172 55.8118C69.6179 56.0367 69.8345 56.3468 69.9671 56.7422ZM74.8952 58.9155V55.5455H75.5273V61H74.8952V60.0945H74.8454C74.7176 60.3738 74.5152 60.607 74.2382 60.794C73.9612 60.9787 73.6227 61.071 73.2226 61.071C72.8746 61.071 72.5656 60.9953 72.2957 60.8438C72.0258 60.6899 71.814 60.465 71.6601 60.169C71.5062 59.8731 71.4292 59.5097 71.4292 59.0788V55.5455H72.0613V59.0398C72.0613 59.4659 72.1868 59.8092 72.4378 60.0696C72.6887 60.3277 73.0107 60.4567 73.4037 60.4567C73.6499 60.4567 73.8866 60.3975 74.1139 60.2791C74.3412 60.1607 74.5282 59.9879 74.675 59.7607C74.8218 59.531 74.8952 59.2493 74.8952 58.9155ZM77.3321 61V53.7273H77.9678V56.5859H78.0246C78.0956 56.4226 78.1974 56.2545 78.33 56.0817C78.4649 55.9089 78.6413 55.7644 78.8591 55.6484C79.0793 55.5301 79.3563 55.4709 79.6901 55.4709C80.1375 55.4709 80.5305 55.5893 80.8691 55.826C81.2076 56.0604 81.4716 56.3894 81.661 56.8132C81.8503 57.2346 81.945 57.7259 81.945 58.2869C81.945 58.8504 81.8503 59.344 81.661 59.7678C81.4739 60.1915 81.2111 60.5218 80.8726 60.7585C80.5364 60.9953 80.1458 61.1136 79.7007 61.1136C79.3693 61.1136 79.0923 61.0545 78.8698 60.9361C78.6496 60.8177 78.472 60.6721 78.3371 60.4993C78.2021 60.3241 78.098 60.1536 78.0246 59.9879H77.9465V61H77.3321ZM77.9571 58.2763C77.9571 58.7166 78.0222 59.1072 78.1524 59.4482C78.285 59.7867 78.4744 60.053 78.7206 60.2472C78.9692 60.4389 79.2699 60.5348 79.6226 60.5348C79.9848 60.5348 80.2914 60.4354 80.5423 60.2365C80.7933 60.0353 80.9839 59.7642 81.1141 59.4233C81.2443 59.0824 81.3094 58.7 81.3094 58.2763C81.3094 57.8572 81.2443 57.4796 81.1141 57.1435C80.9862 56.8073 80.7968 56.541 80.5459 56.3445C80.295 56.1456 79.9872 56.0462 79.6226 56.0462C79.2675 56.0462 78.9656 56.142 78.7171 56.3338C78.4709 56.5232 78.2826 56.786 78.1524 57.1222C78.0222 57.456 77.9571 57.8407 77.9571 58.2763ZM85.482 55.5455V56.0959H82.879V55.5455H85.482ZM83.6922 54.2386H84.3279V59.576C84.3279 59.8033 84.3669 59.982 84.445 60.1122C84.5232 60.2401 84.625 60.3312 84.7504 60.3857C84.8759 60.4377 85.0097 60.4638 85.1517 60.4638C85.2346 60.4638 85.3056 60.459 85.3648 60.4496C85.424 60.4377 85.4761 60.4259 85.521 60.4141L85.656 60.9858C85.5944 61.0095 85.5187 61.0308 85.4287 61.0497C85.3387 61.071 85.2275 61.0817 85.0949 61.0817C84.8629 61.0817 84.6392 61.0308 84.4237 60.929C84.2107 60.8272 84.0355 60.6757 83.8982 60.4744C83.7609 60.2732 83.6922 60.0234 83.6922 59.7251V54.2386ZM86.9246 61V55.5455H87.5603V61H86.9246ZM87.2478 54.608C87.1176 54.608 87.0063 54.5642 86.914 54.4766C86.8216 54.3866 86.7755 54.2789 86.7755 54.1534C86.7755 54.0279 86.8216 53.9214 86.914 53.8338C87.0063 53.7438 87.1176 53.6989 87.2478 53.6989C87.378 53.6989 87.4893 53.7438 87.5816 53.8338C87.6739 53.9214 87.7201 54.0279 87.7201 54.1534C87.7201 54.2789 87.6739 54.3866 87.5816 54.4766C87.4893 54.5642 87.378 54.608 87.2478 54.608ZM91.3804 55.5455V56.0959H88.7774V55.5455H91.3804ZM89.5906 54.2386H90.2263V59.576C90.2263 59.8033 90.2654 59.982 90.3435 60.1122C90.4216 60.2401 90.5234 60.3312 90.6489 60.3857C90.7744 60.4377 90.9081 60.4638 91.0502 60.4638C91.133 60.4638 91.204 60.459 91.2632 60.4496C91.3224 60.4377 91.3745 60.4259 91.4195 60.4141L91.5544 60.9858C91.4929 61.0095 91.4171 61.0308 91.3271 61.0497C91.2372 61.071 91.1259 61.0817 90.9933 61.0817C90.7613 61.0817 90.5376 61.0308 90.3222 60.929C90.1091 60.8272 89.9339 60.6757 89.7966 60.4744C89.6593 60.2732 89.5906 60.0234 89.5906 59.7251V54.2386ZM93.5653 53.7273V61H92.9331V53.7273H93.5653ZM97.4431 61.1136C96.9341 61.1136 96.4938 60.9953 96.1221 60.7585C95.7504 60.5194 95.4627 60.1892 95.2591 59.7678C95.0579 59.344 94.9573 58.8563 94.9573 58.3047C94.9573 57.7554 95.0579 57.2678 95.2591 56.8416C95.4627 56.4131 95.7433 56.0781 96.1008 55.8366C96.4606 55.5928 96.8761 55.4709 97.3472 55.4709C97.6431 55.4709 97.9284 55.5253 98.203 55.6342C98.4777 55.7408 98.7239 55.9053 98.9417 56.1278C99.1618 56.348 99.3358 56.6262 99.4637 56.9624C99.5915 57.2962 99.6555 57.6915 99.6555 58.1484V58.4609H95.3941V57.9034H99.0091C99.0091 57.553 98.9381 57.2382 98.7961 56.9588C98.6564 56.6771 98.4611 56.4545 98.2101 56.2912C97.9616 56.1278 97.6739 56.0462 97.3472 56.0462C97.0016 56.0462 96.6974 56.1385 96.4346 56.3232C96.1718 56.5078 95.9658 56.7517 95.8167 57.0547C95.6699 57.3577 95.5953 57.6892 95.593 58.049V58.3828C95.593 58.8161 95.6675 59.1948 95.8167 59.5192C95.9682 59.8411 96.1824 60.0909 96.4594 60.2685C96.7364 60.446 97.0643 60.5348 97.4431 60.5348C97.7011 60.5348 97.9272 60.4946 98.1214 60.4141C98.3179 60.3336 98.4824 60.2259 98.615 60.0909C98.7499 59.9536 98.8517 59.8033 98.9204 59.6399L99.5205 59.8352C99.4376 60.0649 99.3015 60.2768 99.1121 60.4709C98.9251 60.665 98.6907 60.8213 98.409 60.9396C98.1296 61.0556 97.8077 61.1136 97.4431 61.1136ZM104.713 56.7422L104.134 56.9055C104.078 56.7422 103.997 56.5942 103.893 56.4616C103.789 56.3291 103.653 56.2237 103.484 56.1456C103.319 56.0675 103.113 56.0284 102.867 56.0284C102.497 56.0284 102.194 56.116 101.957 56.2912C101.721 56.4664 101.602 56.6925 101.602 56.9695C101.602 57.2038 101.683 57.3944 101.844 57.5412C102.007 57.6856 102.258 57.8004 102.597 57.8857L103.421 58.0881C103.877 58.1993 104.22 58.3757 104.447 58.6172C104.676 58.8587 104.791 59.1617 104.791 59.5263C104.791 59.834 104.706 60.1075 104.536 60.3466C104.365 60.5857 104.127 60.7739 103.822 60.9112C103.519 61.0462 103.167 61.1136 102.767 61.1136C102.234 61.1136 101.795 60.9941 101.45 60.755C101.104 60.5135 100.883 60.1655 100.786 59.7109L101.393 59.5618C101.471 59.8861 101.624 60.1312 101.851 60.2969C102.081 60.4626 102.382 60.5455 102.756 60.5455C103.176 60.5455 103.511 60.4519 103.761 60.2649C104.012 60.0755 104.138 59.8388 104.138 59.5547C104.138 59.3345 104.064 59.1499 103.918 59.0007C103.771 58.8492 103.548 58.7379 103.25 58.6669L102.359 58.4538C101.885 58.3402 101.535 58.1603 101.308 57.9141C101.08 57.6679 100.967 57.3625 100.967 56.9979C100.967 56.6972 101.048 56.4332 101.212 56.206C101.375 55.9763 101.6 55.7964 101.886 55.6662C102.173 55.536 102.5 55.4709 102.867 55.4709C103.366 55.4709 103.765 55.5845 104.063 55.8118C104.364 56.0367 104.581 56.3468 104.713 56.7422Z" fill="#222222"/>
<defs>
<filter id="filter0_d_991_205" x="0" y="0" width="118" height="118" filterUnits="userSpaceOnUse" color-interpolation-filters="sRGB">
<feFlood flood-opacity="0" result="BackgroundImageFix"/>
<feColorMatrix in="SourceAlpha" type="matrix" values="0 0 0 0 0 0 0 0 0 0 0 0 0 0 0 0 0 0 127 0" result="hardAlpha"/>
<feOffset dy="4"/>
<feGaussianBlur stdDeviation="2"/>
<feComposite in2="hardAlpha" operator="out"/>
<feColorMatrix type="matrix" values="0 0 0 0 0 0 0 0 0 0 0 0 0 0 0 0 0 0 0.25 0"/>
<feBlend mode="normal" in2="BackgroundImageFix" result="effect1_dropShadow_991_205"/>
<feBlend mode="normal" in="SourceGraphic" in2="effect1_dropShadow_991_205" result="shape"/>
</filter>
</defs>
</svg>
