<svg width="118" height="118" viewBox="0 0 118 118" fill="none" xmlns="http://www.w3.org/2000/svg">
<g filter="url(#filter0_d_991_220)">
<rect x="4" width="110" height="110" fill="#C9C8D8" fill-opacity="0.5" shape-rendering="crispEdges"/>
</g>
<path d="M22.4624 28V22.5455H23.0768V23.3835H23.1336C23.2425 23.1018 23.4236 22.8804 23.6769 22.7195C23.9326 22.5561 24.2392 22.4744 24.5967 22.4744C24.9731 22.4744 25.282 22.5632 25.5235 22.7408C25.7674 22.916 25.9497 23.1574 26.0704 23.4652H26.1166C26.2397 23.1622 26.4397 22.9219 26.7167 22.7443C26.9961 22.5644 27.3346 22.4744 27.7323 22.4744C28.239 22.4744 28.6391 22.6342 28.9326 22.9538C29.2262 23.2711 29.373 23.7351 29.373 24.3459V28H28.7409V24.3459C28.7409 23.915 28.6308 23.5919 28.4106 23.3764C28.1904 23.161 27.9004 23.0533 27.5406 23.0533C27.1239 23.0533 26.8031 23.1811 26.5782 23.4368C26.3533 23.6925 26.2409 24.0168 26.2409 24.4098V28H25.5945V24.2891C25.5945 23.9197 25.4916 23.6214 25.2856 23.3942C25.0796 23.1669 24.7896 23.0533 24.4156 23.0533C24.1646 23.0533 23.9385 23.1148 23.7373 23.2379C23.5384 23.361 23.381 23.5327 23.265 23.7528C23.1514 23.9706 23.0945 24.2216 23.0945 24.5057V28H22.4624ZM33.1665 28.1136C32.6953 28.1136 32.2787 27.9941 31.9165 27.755C31.5566 27.5159 31.2749 27.1856 31.0713 26.7642C30.8677 26.3404 30.7659 25.8516 30.7659 25.2976C30.7659 24.7389 30.8677 24.2476 31.0713 23.8239C31.2749 23.3977 31.5566 23.0663 31.9165 22.8295C32.2787 22.5904 32.6953 22.4709 33.1665 22.4709C33.6376 22.4709 34.0531 22.5904 34.4129 22.8295C34.7728 23.0687 35.0545 23.4001 35.2581 23.8239C35.464 24.2476 35.567 24.7389 35.567 25.2976C35.567 25.8516 35.4652 26.3404 35.2616 26.7642C35.058 27.1856 34.7751 27.5159 34.4129 27.755C34.0531 27.9941 33.6376 28.1136 33.1665 28.1136ZM33.1665 27.5348C33.5452 27.5348 33.866 27.433 34.1288 27.2294C34.3916 27.0258 34.5905 26.7547 34.7254 26.4162C34.8627 26.0777 34.9314 25.7048 34.9314 25.2976C34.9314 24.8904 34.8627 24.5163 34.7254 24.1754C34.5905 23.8345 34.3916 23.5611 34.1288 23.3551C33.866 23.1491 33.5452 23.0462 33.1665 23.0462C32.79 23.0462 32.4693 23.1491 32.2041 23.3551C31.9413 23.5611 31.7413 23.8345 31.604 24.1754C31.469 24.5163 31.4015 24.8904 31.4015 25.2976C31.4015 25.7048 31.469 26.0777 31.604 26.4162C31.7413 26.7547 31.9413 27.0258 32.2041 27.2294C32.4669 27.433 32.7877 27.5348 33.1665 27.5348ZM40.6194 23.7422L40.0406 23.9055C39.9838 23.7422 39.9033 23.5942 39.7991 23.4616C39.6949 23.3291 39.5588 23.2237 39.3907 23.1456C39.225 23.0675 39.019 23.0284 38.7728 23.0284C38.4035 23.0284 38.1005 23.116 37.8637 23.2912C37.627 23.4664 37.5086 23.6925 37.5086 23.9695C37.5086 24.2038 37.5891 24.3944 37.7501 24.5412C37.9134 24.6856 38.1644 24.8004 38.5029 24.8857L39.3268 25.0881C39.7837 25.1993 40.1258 25.3757 40.3531 25.6172C40.5827 25.8587 40.6975 26.1617 40.6975 26.5263C40.6975 26.834 40.6123 27.1075 40.4419 27.3466C40.2714 27.5857 40.0335 27.7739 39.7281 27.9112C39.425 28.0462 39.0735 28.1136 38.6734 28.1136C38.1407 28.1136 37.7016 27.9941 37.3559 27.755C37.0103 27.5135 36.7889 27.1655 36.6919 26.7109L37.2991 26.5618C37.3772 26.8861 37.5299 27.1312 37.7572 27.2969C37.9868 27.4626 38.2887 27.5455 38.6627 27.5455C39.0818 27.5455 39.4168 27.4519 39.6677 27.2649C39.9186 27.0755 40.0441 26.8388 40.0441 26.5547C40.0441 26.3345 39.9707 26.1499 39.824 26.0007C39.6772 25.8492 39.4546 25.7379 39.1563 25.6669L38.265 25.4538C37.7915 25.3402 37.4411 25.1603 37.2139 24.9141C36.9866 24.6679 36.873 24.3625 36.873 23.9979C36.873 23.6972 36.9546 23.4332 37.118 23.206C37.2813 22.9763 37.5062 22.7964 37.7927 22.6662C38.0792 22.536 38.4059 22.4709 38.7728 22.4709C39.2723 22.4709 39.6713 22.5845 39.9695 22.8118C40.2702 23.0367 40.4868 23.3468 40.6194 23.7422ZM44.23 22.5455V23.0959H41.627V22.5455H44.23ZM42.4403 21.2386H43.0759V26.576C43.0759 26.8033 43.115 26.982 43.1931 27.1122C43.2712 27.2401 43.373 27.3312 43.4985 27.3857C43.624 27.4377 43.7577 27.4638 43.8998 27.4638C43.9826 27.4638 44.0537 27.459 44.1128 27.4496C44.172 27.4377 44.2241 27.4259 44.2691 27.4141L44.404 27.9858C44.3425 28.0095 44.2667 28.0308 44.1768 28.0497C44.0868 28.071 43.9755 28.0817 43.843 28.0817C43.6109 28.0817 43.3872 28.0308 43.1718 27.929C42.9587 27.8272 42.7835 27.6757 42.6462 27.4744C42.5089 27.2732 42.4403 27.0234 42.4403 26.7251V21.2386ZM50.6088 28.1136C50.1211 28.1136 49.6961 27.9917 49.3339 27.7479C48.974 27.504 48.6947 27.1702 48.4958 26.7464C48.297 26.3227 48.1975 25.8397 48.1975 25.2976C48.1975 24.7507 48.2981 24.2642 48.4994 23.8381C48.703 23.4119 48.9847 23.0781 49.3445 22.8366C49.7044 22.5928 50.1222 22.4709 50.5981 22.4709C50.9627 22.4709 51.2929 22.5419 51.5889 22.6839C51.8848 22.8236 52.1286 23.0213 52.3204 23.277C52.5145 23.5303 52.6365 23.8262 52.6862 24.1648H52.047C51.9807 23.857 51.8209 23.5942 51.5676 23.3764C51.3166 23.1562 50.997 23.0462 50.6088 23.0462C50.2607 23.0462 49.953 23.1409 49.6855 23.3303C49.4179 23.5173 49.2084 23.7789 49.0569 24.1151C48.9078 24.4489 48.8332 24.8359 48.8332 25.2763C48.8332 25.719 48.9066 26.1108 49.0534 26.4517C49.2001 26.7902 49.4061 27.0554 49.6713 27.2472C49.9388 27.4389 50.2513 27.5348 50.6088 27.5348C50.8502 27.5348 51.0704 27.4898 51.2693 27.3999C51.4705 27.3075 51.6386 27.1773 51.7735 27.0092C51.9108 26.8411 52.0032 26.6411 52.0505 26.4091H52.6897C52.6424 26.7382 52.5252 27.0317 52.3382 27.2898C52.1535 27.5455 51.9132 27.7467 51.6173 27.8935C51.3237 28.0402 50.9875 28.1136 50.6088 28.1136ZM56.1645 28.1136C55.6934 28.1136 55.2767 27.9941 54.9145 27.755C54.5547 27.5159 54.2729 27.1856 54.0693 26.7642C53.8657 26.3404 53.7639 25.8516 53.7639 25.2976C53.7639 24.7389 53.8657 24.2476 54.0693 23.8239C54.2729 23.3977 54.5547 23.0663 54.9145 22.8295C55.2767 22.5904 55.6934 22.4709 56.1645 22.4709C56.6356 22.4709 57.0511 22.5904 57.411 22.8295C57.7708 23.0687 58.0525 23.4001 58.2561 23.8239C58.4621 24.2476 58.5651 24.7389 58.5651 25.2976C58.5651 25.8516 58.4633 26.3404 58.2597 26.7642C58.0561 27.1856 57.7732 27.5159 57.411 27.755C57.0511 27.9941 56.6356 28.1136 56.1645 28.1136ZM56.1645 27.5348C56.5433 27.5348 56.8641 27.433 57.1269 27.2294C57.3896 27.0258 57.5885 26.7547 57.7235 26.4162C57.8608 26.0777 57.9294 25.7048 57.9294 25.2976C57.9294 24.8904 57.8608 24.5163 57.7235 24.1754C57.5885 23.8345 57.3896 23.5611 57.1269 23.3551C56.8641 23.1491 56.5433 23.0462 56.1645 23.0462C55.7881 23.0462 55.4673 23.1491 55.2021 23.3551C54.9394 23.5611 54.7393 23.8345 54.602 24.1754C54.4671 24.5163 54.3996 24.8904 54.3996 25.2976C54.3996 25.7048 54.4671 26.0777 54.602 26.4162C54.7393 26.7547 54.9394 27.0258 55.2021 27.2294C55.4649 27.433 55.7857 27.5348 56.1645 27.5348ZM63.4186 25.9155V22.5455H64.0507V28H63.4186V27.0945H63.3689C63.241 27.3738 63.0386 27.607 62.7616 27.794C62.4846 27.9787 62.1461 28.071 61.746 28.071C61.398 28.071 61.089 27.9953 60.8192 27.8438C60.5493 27.6899 60.3374 27.465 60.1835 27.169C60.0296 26.8731 59.9527 26.5097 59.9527 26.0788V22.5455H60.5848V26.0398C60.5848 26.4659 60.7103 26.8092 60.9612 27.0696C61.2122 27.3277 61.5341 27.4567 61.9271 27.4567C62.1733 27.4567 62.4101 27.3975 62.6373 27.2791C62.8646 27.1607 63.0516 26.9879 63.1984 26.7607C63.3452 26.531 63.4186 26.2493 63.4186 25.9155ZM65.7242 28V22.5455H66.3385V23.3835H66.3847C66.4936 23.1089 66.683 22.8875 66.9529 22.7195C67.2251 22.549 67.5329 22.4638 67.8762 22.4638C67.9282 22.4638 67.9862 22.465 68.0502 22.4673C68.1141 22.4697 68.1673 22.4721 68.21 22.4744V23.1172C68.1816 23.1125 68.1318 23.1054 68.0608 23.0959C67.9898 23.0864 67.9128 23.0817 67.83 23.0817C67.5459 23.0817 67.2926 23.142 67.07 23.2628C66.8499 23.3812 66.6759 23.5457 66.548 23.7564C66.4202 23.9671 66.3563 24.2074 66.3563 24.4773V28H65.7242ZM72.9534 23.7422L72.3746 23.9055C72.3177 23.7422 72.2372 23.5942 72.1331 23.4616C72.0289 23.3291 71.8928 23.2237 71.7247 23.1456C71.559 23.0675 71.353 23.0284 71.1068 23.0284C70.7375 23.0284 70.4345 23.116 70.1977 23.2912C69.961 23.4664 69.8426 23.6925 69.8426 23.9695C69.8426 24.2038 69.9231 24.3944 70.0841 24.5412C70.2474 24.6856 70.4984 24.8004 70.8369 24.8857L71.6608 25.0881C72.1177 25.1993 72.4598 25.3757 72.6871 25.6172C72.9167 25.8587 73.0315 26.1617 73.0315 26.5263C73.0315 26.834 72.9463 27.1075 72.7758 27.3466C72.6054 27.5857 72.3675 27.7739 72.0621 27.9112C71.759 28.0462 71.4075 28.1136 71.0074 28.1136C70.4747 28.1136 70.0355 27.9941 69.6899 27.755C69.3443 27.5135 69.1229 27.1655 69.0258 26.7109L69.6331 26.5618C69.7112 26.8861 69.8639 27.1312 70.0912 27.2969C70.3208 27.4626 70.6227 27.5455 70.9967 27.5455C71.4157 27.5455 71.7507 27.4519 72.0017 27.2649C72.2526 27.0755 72.3781 26.8388 72.3781 26.5547C72.3781 26.3345 72.3047 26.1499 72.1579 26.0007C72.0112 25.8492 71.7886 25.7379 71.4903 25.6669L70.599 25.4538C70.1255 25.3402 69.7751 25.1603 69.5479 24.9141C69.3206 24.6679 69.2069 24.3625 69.2069 23.9979C69.2069 23.6972 69.2886 23.4332 69.452 23.206C69.6153 22.9763 69.8402 22.7964 70.1267 22.6662C70.4131 22.536 70.7398 22.4709 71.1068 22.4709C71.6063 22.4709 72.0052 22.5845 72.3035 22.8118C72.6042 23.0367 72.8208 23.3468 72.9534 23.7422ZM76.6208 28.1136C76.1118 28.1136 75.6715 27.9953 75.2998 27.7585C74.9281 27.5194 74.6405 27.1892 74.4369 26.7678C74.2356 26.344 74.135 25.8563 74.135 25.3047C74.135 24.7554 74.2356 24.2678 74.4369 23.8416C74.6405 23.4131 74.921 23.0781 75.2785 22.8366C75.6383 22.5928 76.0538 22.4709 76.5249 22.4709C76.8209 22.4709 77.1061 22.5253 77.3808 22.6342C77.6554 22.7408 77.9016 22.9053 78.1194 23.1278C78.3396 23.348 78.5136 23.6262 78.6414 23.9624C78.7693 24.2962 78.8332 24.6915 78.8332 25.1484V25.4609H74.5718V24.9034H78.1869C78.1869 24.553 78.1159 24.2382 77.9738 23.9588C77.8341 23.6771 77.6388 23.4545 77.3879 23.2912C77.1393 23.1278 76.8517 23.0462 76.5249 23.0462C76.1793 23.0462 75.8751 23.1385 75.6123 23.3232C75.3495 23.5078 75.1436 23.7517 74.9944 24.0547C74.8476 24.3577 74.7731 24.6892 74.7707 25.049V25.3828C74.7707 25.8161 74.8453 26.1948 74.9944 26.5192C75.1459 26.8411 75.3602 27.0909 75.6372 27.2685C75.9142 27.446 76.242 27.5348 76.6208 27.5348C76.8789 27.5348 77.105 27.4946 77.2991 27.4141C77.4956 27.3336 77.6601 27.2259 77.7927 27.0909C77.9276 26.9536 78.0294 26.8033 78.0981 26.6399L78.6982 26.8352C78.6154 27.0649 78.4793 27.2768 78.2899 27.4709C78.1028 27.665 77.8685 27.8213 77.5867 27.9396C77.3074 28.0556 76.9854 28.1136 76.6208 28.1136ZM83.8909 23.7422L83.3121 23.9055C83.2552 23.7422 83.1747 23.5942 83.0706 23.4616C82.9664 23.3291 82.8303 23.2237 82.6622 23.1456C82.4965 23.0675 82.2905 23.0284 82.0443 23.0284C81.675 23.0284 81.372 23.116 81.1352 23.2912C80.8985 23.4664 80.7801 23.6925 80.7801 23.9695C80.7801 24.2038 80.8606 24.3944 81.0216 24.5412C81.1849 24.6856 81.4359 24.8004 81.7744 24.8857L82.5983 25.0881C83.0552 25.1993 83.3973 25.3757 83.6246 25.6172C83.8542 25.8587 83.969 26.1617 83.969 26.5263C83.969 26.834 83.8838 27.1075 83.7133 27.3466C83.5429 27.5857 83.305 27.7739 82.9996 27.9112C82.6965 28.0462 82.345 28.1136 81.9449 28.1136C81.4122 28.1136 80.973 27.9941 80.6274 27.755C80.2818 27.5135 80.0604 27.1655 79.9633 26.7109L80.5706 26.5618C80.6487 26.8861 80.8014 27.1312 81.0287 27.2969C81.2583 27.4626 81.5602 27.5455 81.9342 27.5455C82.3532 27.5455 82.6882 27.4519 82.9392 27.2649C83.1901 27.0755 83.3156 26.8388 83.3156 26.5547C83.3156 26.3345 83.2422 26.1499 83.0954 26.0007C82.9487 25.8492 82.7261 25.7379 82.4278 25.6669L81.5365 25.4538C81.063 25.3402 80.7126 25.1603 80.4854 24.9141C80.2581 24.6679 80.1444 24.3625 80.1444 23.9979C80.1444 23.6972 80.2261 23.4332 80.3895 23.206C80.5528 22.9763 80.7777 22.7964 81.0642 22.6662C81.3506 22.536 81.6773 22.4709 82.0443 22.4709C82.5438 22.4709 82.9427 22.5845 83.241 22.8118C83.5417 23.0367 83.7583 23.3468 83.8909 23.7422ZM90.1294 28.1136C89.6819 28.1136 89.2901 27.9953 88.9539 27.7585C88.6177 27.5218 88.355 27.1915 88.1656 26.7678C87.9785 26.344 87.885 25.8504 87.885 25.2869C87.885 24.7259 87.9785 24.2346 88.1656 23.8132C88.355 23.3894 88.6189 23.0604 88.9575 22.826C89.296 22.5893 89.6902 22.4709 90.14 22.4709C90.4714 22.4709 90.7472 22.5301 90.9674 22.6484C91.1876 22.7644 91.364 22.9089 91.4965 23.0817C91.6291 23.2545 91.7321 23.4226 91.8055 23.5859H91.8623V20.7273H92.498V28H91.8801V26.9879H91.8055C91.7321 27.1536 91.6279 27.3241 91.493 27.4993C91.358 27.6721 91.1793 27.8177 90.9568 27.9361C90.7366 28.0545 90.4608 28.1136 90.1294 28.1136ZM90.2039 27.5348C90.5567 27.5348 90.8573 27.4389 91.1059 27.2472C91.3545 27.053 91.5439 26.7867 91.6741 26.4482C91.8067 26.1072 91.873 25.7166 91.873 25.2763C91.873 24.8407 91.8079 24.456 91.6776 24.1222C91.5474 23.786 91.358 23.5232 91.1095 23.3338C90.8609 23.142 90.559 23.0462 90.2039 23.0462C89.8393 23.0462 89.5316 23.1456 89.2806 23.3445C89.032 23.541 88.8427 23.8073 88.7124 24.1435C88.5846 24.4796 88.5207 24.8572 88.5207 25.2763C88.5207 25.7 88.5858 26.0824 88.716 26.4233C88.8462 26.7642 89.0356 27.0353 89.2842 27.2365C89.5351 27.4354 89.8417 27.5348 90.2039 27.5348ZM96.4184 28.1136C95.9473 28.1136 95.5306 27.9941 95.1684 27.755C94.8086 27.5159 94.5268 27.1856 94.3232 26.7642C94.1196 26.3404 94.0178 25.8516 94.0178 25.2976C94.0178 24.7389 94.1196 24.2476 94.3232 23.8239C94.5268 23.3977 94.8086 23.0663 95.1684 22.8295C95.5306 22.5904 95.9473 22.4709 96.4184 22.4709C96.8895 22.4709 97.305 22.5904 97.6649 22.8295C98.0247 23.0687 98.3064 23.4001 98.51 23.8239C98.716 24.2476 98.819 24.7389 98.819 25.2976C98.819 25.8516 98.7172 26.3404 98.5136 26.7642C98.31 27.1856 98.0271 27.5159 97.6649 27.755C97.305 27.9941 96.8895 28.1136 96.4184 28.1136ZM96.4184 27.5348C96.7972 27.5348 97.118 27.433 97.3808 27.2294C97.6436 27.0258 97.8424 26.7547 97.9774 26.4162C98.1147 26.0777 98.1833 25.7048 98.1833 25.2976C98.1833 24.8904 98.1147 24.5163 97.9774 24.1754C97.8424 23.8345 97.6436 23.5611 97.3808 23.3551C97.118 23.1491 96.7972 23.0462 96.4184 23.0462C96.042 23.0462 95.7212 23.1491 95.4561 23.3551C95.1933 23.5611 94.9932 23.8345 94.8559 24.1754C94.721 24.5163 94.6535 24.8904 94.6535 25.2976C94.6535 25.7048 94.721 26.0777 94.8559 26.4162C94.9932 26.7547 95.1933 27.0258 95.4561 27.2294C95.7188 27.433 96.0396 27.5348 96.4184 27.5348ZM27.1229 36.5909V40H26.4908V34.5455H27.1051V35.4013H27.1619C27.2898 35.1219 27.4886 34.8982 27.7585 34.7301C28.0308 34.5597 28.367 34.4744 28.767 34.4744C29.134 34.4744 29.456 34.5514 29.733 34.7053C30.0123 34.8568 30.2289 35.0805 30.3828 35.3764C30.5391 35.6723 30.6172 36.0357 30.6172 36.4666V40H29.9851V36.5057C29.9851 36.0582 29.8596 35.7043 29.6087 35.4439C29.3601 35.1835 29.0263 35.0533 28.6072 35.0533C28.3208 35.0533 28.0663 35.1148 27.8438 35.2379C27.6212 35.361 27.4448 35.5386 27.3146 35.7706C27.1868 36.0002 27.1229 36.2737 27.1229 36.5909ZM34.4018 40.1136C33.9307 40.1136 33.514 39.9941 33.1518 39.755C32.792 39.5159 32.5102 39.1856 32.3066 38.7642C32.103 38.3404 32.0012 37.8516 32.0012 37.2976C32.0012 36.7389 32.103 36.2476 32.3066 35.8239C32.5102 35.3977 32.792 35.0663 33.1518 34.8295C33.514 34.5904 33.9307 34.4709 34.4018 34.4709C34.8729 34.4709 35.2884 34.5904 35.6483 34.8295C36.0081 35.0687 36.2898 35.4001 36.4934 35.8239C36.6994 36.2476 36.8024 36.7389 36.8024 37.2976C36.8024 37.8516 36.7006 38.3404 36.497 38.7642C36.2934 39.1856 36.0105 39.5159 35.6483 39.755C35.2884 39.9941 34.8729 40.1136 34.4018 40.1136ZM34.4018 39.5348C34.7806 39.5348 35.1014 39.433 35.3642 39.2294C35.627 39.0258 35.8258 38.7547 35.9608 38.4162C36.0981 38.0777 36.1667 37.7048 36.1667 37.2976C36.1667 36.8904 36.0981 36.5163 35.9608 36.1754C35.8258 35.8345 35.627 35.5611 35.3642 35.3551C35.1014 35.1491 34.7806 35.0462 34.4018 35.0462C34.0254 35.0462 33.7046 35.1491 33.4395 35.3551C33.1767 35.5611 32.9766 35.8345 32.8393 36.1754C32.7044 36.5163 32.6369 36.8904 32.6369 37.2976C32.6369 37.7048 32.7044 38.0777 32.8393 38.4162C32.9766 38.7547 33.1767 39.0258 33.4395 39.2294C33.7022 39.433 34.023 39.5348 34.4018 39.5348ZM40.3384 34.5455V35.0959H37.7354V34.5455H40.3384ZM38.5487 33.2386H39.1843V38.576C39.1843 38.8033 39.2234 38.982 39.3015 39.1122C39.3796 39.2401 39.4814 39.3312 39.6069 39.3857C39.7324 39.4377 39.8661 39.4638 40.0082 39.4638C40.091 39.4638 40.1621 39.459 40.2212 39.4496C40.2804 39.4377 40.3325 39.4259 40.3775 39.4141L40.5124 39.9858C40.4509 40.0095 40.3751 40.0308 40.2852 40.0497C40.1952 40.071 40.0839 40.0817 39.9513 40.0817C39.7193 40.0817 39.4956 40.0308 39.2802 39.929C39.0671 39.8272 38.8919 39.6757 38.7546 39.4744C38.6173 39.2732 38.5487 39.0234 38.5487 38.7251V33.2386ZM46.7172 40.1136C46.2295 40.1136 45.8045 39.9917 45.4423 39.7479C45.0824 39.504 44.8031 39.1702 44.6042 38.7464C44.4054 38.3227 44.3059 37.8397 44.3059 37.2976C44.3059 36.7507 44.4065 36.2642 44.6078 35.8381C44.8114 35.4119 45.0931 35.0781 45.4529 34.8366C45.8128 34.5928 46.2306 34.4709 46.7065 34.4709C47.0711 34.4709 47.4013 34.5419 47.6973 34.6839C47.9932 34.8236 48.237 35.0213 48.4288 35.277C48.6229 35.5303 48.7449 35.8262 48.7946 36.1648H48.1554C48.0891 35.857 47.9293 35.5942 47.676 35.3764C47.425 35.1562 47.1054 35.0462 46.7172 35.0462C46.3691 35.0462 46.0614 35.1409 45.7939 35.3303C45.5263 35.5173 45.3168 35.7789 45.1653 36.1151C45.0162 36.4489 44.9416 36.8359 44.9416 37.2763C44.9416 37.719 45.015 38.1108 45.1618 38.4517C45.3085 38.7902 45.5145 39.0554 45.7797 39.2472C46.0472 39.4389 46.3597 39.5348 46.7172 39.5348C46.9586 39.5348 47.1788 39.4898 47.3777 39.3999C47.5789 39.3075 47.747 39.1773 47.8819 39.0092C48.0192 38.8411 48.1116 38.6411 48.1589 38.4091H48.7981C48.7508 38.7382 48.6336 39.0317 48.4466 39.2898C48.2619 39.5455 48.0216 39.7467 47.7257 39.8935C47.4321 40.0402 47.0959 40.1136 46.7172 40.1136ZM52.2729 40.1136C51.8018 40.1136 51.3851 39.9941 51.0229 39.755C50.6631 39.5159 50.3813 39.1856 50.1777 38.7642C49.9741 38.3404 49.8723 37.8516 49.8723 37.2976C49.8723 36.7389 49.9741 36.2476 50.1777 35.8239C50.3813 35.3977 50.6631 35.0663 51.0229 34.8295C51.3851 34.5904 51.8018 34.4709 52.2729 34.4709C52.744 34.4709 53.1595 34.5904 53.5194 34.8295C53.8792 35.0687 54.1609 35.4001 54.3645 35.8239C54.5705 36.2476 54.6735 36.7389 54.6735 37.2976C54.6735 37.8516 54.5717 38.3404 54.3681 38.7642C54.1645 39.1856 53.8816 39.5159 53.5194 39.755C53.1595 39.9941 52.744 40.1136 52.2729 40.1136ZM52.2729 39.5348C52.6517 39.5348 52.9725 39.433 53.2353 39.2294C53.498 39.0258 53.6969 38.7547 53.8319 38.4162C53.9692 38.0777 54.0378 37.7048 54.0378 37.2976C54.0378 36.8904 53.9692 36.5163 53.8319 36.1754C53.6969 35.8345 53.498 35.5611 53.2353 35.3551C52.9725 35.1491 52.6517 35.0462 52.2729 35.0462C51.8965 35.0462 51.5757 35.1491 51.3105 35.3551C51.0478 35.5611 50.8477 35.8345 50.7104 36.1754C50.5755 36.5163 50.508 36.8904 50.508 37.2976C50.508 37.7048 50.5755 38.0777 50.7104 38.4162C50.8477 38.7547 51.0478 39.0258 51.3105 39.2294C51.5733 39.433 51.8941 39.5348 52.2729 39.5348ZM56.6932 36.5909V40H56.0611V34.5455H56.6754V35.4013H56.7322C56.8601 35.1219 57.0589 34.8982 57.3288 34.7301C57.6011 34.5597 57.9373 34.4744 58.3374 34.4744C58.7043 34.4744 59.0263 34.5514 59.3033 34.7053C59.5826 34.8568 59.7992 35.0805 59.9531 35.3764C60.1094 35.6723 60.1875 36.0357 60.1875 36.4666V40H59.5554V36.5057C59.5554 36.0582 59.4299 35.7043 59.179 35.4439C58.9304 35.1835 58.5966 35.0533 58.1776 35.0533C57.8911 35.0533 57.6366 35.1148 57.4141 35.2379C57.1915 35.361 57.0152 35.5386 56.8849 35.7706C56.7571 36.0002 56.6932 36.2737 56.6932 36.5909ZM65.8791 34.5455L63.8869 40H63.2122L61.22 34.5455H61.9054L63.5247 39.1655H63.5744L65.1937 34.5455H65.8791ZM69.1257 40.1136C68.6167 40.1136 68.1764 39.9953 67.8047 39.7585C67.433 39.5194 67.1454 39.1892 66.9418 38.7678C66.7405 38.344 66.6399 37.8563 66.6399 37.3047C66.6399 36.7554 66.7405 36.2678 66.9418 35.8416C67.1454 35.4131 67.4259 35.0781 67.7834 34.8366C68.1432 34.5928 68.5587 34.4709 69.0298 34.4709C69.3258 34.4709 69.611 34.5253 69.8857 34.6342C70.1603 34.7408 70.4065 34.9053 70.6243 35.1278C70.8445 35.348 71.0185 35.6262 71.1463 35.9624C71.2741 36.2962 71.3381 36.6915 71.3381 37.1484V37.4609H67.0767V36.9034H70.6918C70.6918 36.553 70.6207 36.2382 70.4787 35.9588C70.339 35.6771 70.1437 35.4545 69.8928 35.2912C69.6442 35.1278 69.3565 35.0462 69.0298 35.0462C68.6842 35.0462 68.38 35.1385 68.1172 35.3232C67.8544 35.5078 67.6484 35.7517 67.4993 36.0547C67.3525 36.3577 67.2779 36.6892 67.2756 37.049V37.3828C67.2756 37.8161 67.3501 38.1948 67.4993 38.5192C67.6508 38.8411 67.8651 39.0909 68.142 39.2685C68.419 39.446 68.7469 39.5348 69.1257 39.5348C69.3838 39.5348 69.6098 39.4946 69.804 39.4141C70.0005 39.3336 70.165 39.2259 70.2976 39.0909C70.4325 38.9536 70.5343 38.8033 70.603 38.6399L71.2031 38.8352C71.1203 39.0649 70.9841 39.2768 70.7947 39.4709C70.6077 39.665 70.3733 39.8213 70.0916 39.9396C69.8123 40.0556 69.4903 40.1136 69.1257 40.1136ZM73.0053 42.0455C72.8799 42.0455 72.7627 42.0336 72.6538 42.0099C72.5449 41.9863 72.4585 41.9602 72.3945 41.9318L72.565 41.3743C72.7804 41.4406 72.9722 41.4643 73.1403 41.4453C73.3084 41.4287 73.4575 41.353 73.5877 41.218C73.7179 41.0855 73.8339 40.8819 73.9357 40.6072L74.1346 40.0533L72.1282 34.5455H72.8136L74.4329 39.1655H74.4826L76.1019 34.5455H76.7873L74.479 40.8629C74.382 41.1257 74.2624 41.3447 74.1204 41.5199C73.9783 41.6974 73.8138 41.8288 73.6268 41.9141C73.4421 42.0017 73.235 42.0455 73.0053 42.0455ZM82.9849 34.5455V35.0959H80.3819V34.5455H82.9849ZM81.1951 33.2386H81.8308V38.576C81.8308 38.8033 81.8699 38.982 81.948 39.1122C82.0261 39.2401 82.1279 39.3312 82.2534 39.3857C82.3788 39.4377 82.5126 39.4638 82.6547 39.4638C82.7375 39.4638 82.8085 39.459 82.8677 39.4496C82.9269 39.4377 82.979 39.4259 83.024 39.4141L83.1589 39.9858C83.0974 40.0095 83.0216 40.0308 82.9316 40.0497C82.8417 40.071 82.7304 40.0817 82.5978 40.0817C82.3658 40.0817 82.1421 40.0308 81.9267 39.929C81.7136 39.8272 81.5384 39.6757 81.4011 39.4744C81.2638 39.2732 81.1951 39.0234 81.1951 38.7251V33.2386ZM85.1697 36.5909V40H84.5376V32.7273H85.1697V35.4013H85.2266C85.3544 35.1196 85.5521 34.8946 85.8196 34.7266C86.0895 34.5585 86.4304 34.4744 86.8423 34.4744C87.2116 34.4744 87.536 34.5502 87.8153 34.7017C88.0947 34.8532 88.3125 35.0769 88.4688 35.3729C88.625 35.6688 88.7031 36.0334 88.7031 36.4666V40H88.0675V36.5057C88.0675 36.0559 87.942 35.7019 87.6911 35.4439C87.4425 35.1835 87.1063 35.0533 86.6825 35.0533C86.3913 35.0533 86.1321 35.1148 85.9048 35.2379C85.6776 35.361 85.4976 35.5386 85.3651 35.7706C85.2348 36.0002 85.1697 36.2737 85.1697 36.5909ZM92.573 40.1136C92.064 40.1136 91.6236 39.9953 91.252 39.7585C90.8803 39.5194 90.5926 39.1892 90.389 38.7678C90.1878 38.344 90.0872 37.8563 90.0872 37.3047C90.0872 36.7554 90.1878 36.2678 90.389 35.8416C90.5926 35.4131 90.8732 35.0781 91.2306 34.8366C91.5905 34.5928 92.006 34.4709 92.4771 34.4709C92.773 34.4709 93.0583 34.5253 93.3329 34.6342C93.6075 34.7408 93.8538 34.9053 94.0716 35.1278C94.2917 35.348 94.4657 35.6262 94.5936 35.9624C94.7214 36.2962 94.7853 36.6915 94.7853 37.1484V37.4609H90.524V36.9034H94.139C94.139 36.553 94.068 36.2382 93.926 35.9588C93.7863 35.6771 93.591 35.4545 93.34 35.2912C93.0914 35.1278 92.8038 35.0462 92.4771 35.0462C92.1315 35.0462 91.8272 35.1385 91.5645 35.3232C91.3017 35.5078 91.0957 35.7517 90.9466 36.0547C90.7998 36.3577 90.7252 36.6892 90.7228 37.049V37.3828C90.7228 37.8161 90.7974 38.1948 90.9466 38.5192C91.0981 38.8411 91.3123 39.0909 91.5893 39.2685C91.8663 39.446 92.1942 39.5348 92.573 39.5348C92.831 39.5348 93.0571 39.4946 93.2512 39.4141C93.4477 39.3336 93.6123 39.2259 93.7449 39.0909C93.8798 38.9536 93.9816 38.8033 94.0502 38.6399L94.6504 38.8352C94.5675 39.0649 94.4314 39.2768 94.242 39.4709C94.055 39.665 93.8206 39.8213 93.5389 39.9396C93.2595 40.0556 92.9376 40.1136 92.573 40.1136ZM30.939 52V46.5455H31.5534V47.3835H31.5995C31.7084 47.1089 31.8978 46.8875 32.1677 46.7195C32.44 46.549 32.7477 46.4638 33.091 46.4638C33.1431 46.4638 33.2011 46.465 33.265 46.4673C33.3289 46.4697 33.3822 46.4721 33.4248 46.4744V47.1172C33.3964 47.1125 33.3467 47.1054 33.2757 47.0959C33.2046 47.0864 33.1277 47.0817 33.0448 47.0817C32.7607 47.0817 32.5074 47.142 32.2849 47.2628C32.0647 47.3812 31.8907 47.5457 31.7629 47.7564C31.635 47.9671 31.5711 48.2074 31.5711 48.4773V52H30.939ZM36.5427 52.1136C36.0337 52.1136 35.5934 51.9953 35.2217 51.7585C34.85 51.5194 34.5624 51.1892 34.3588 50.7678C34.1575 50.344 34.0569 49.8563 34.0569 49.3047C34.0569 48.7554 34.1575 48.2678 34.3588 47.8416C34.5624 47.4131 34.8429 47.0781 35.2004 46.8366C35.5602 46.5928 35.9757 46.4709 36.4468 46.4709C36.7427 46.4709 37.028 46.5253 37.3026 46.6342C37.5773 46.7408 37.8235 46.9053 38.0413 47.1278C38.2615 47.348 38.4355 47.6262 38.5633 47.9624C38.6911 48.2962 38.7551 48.6915 38.7551 49.1484V49.4609H34.4937V48.9034H38.1088C38.1088 48.553 38.0377 48.2382 37.8957 47.9588C37.756 47.6771 37.5607 47.4545 37.3097 47.2912C37.0612 47.1278 36.7735 47.0462 36.4468 47.0462C36.1012 47.0462 35.797 47.1385 35.5342 47.3232C35.2714 47.5078 35.0654 47.7517 34.9163 48.0547C34.7695 48.3577 34.6949 48.6892 34.6926 49.049V49.3828C34.6926 49.8161 34.7671 50.1948 34.9163 50.5192C35.0678 50.8411 35.282 51.0909 35.559 51.2685C35.836 51.446 36.1639 51.5348 36.5427 51.5348C36.8008 51.5348 37.0268 51.4946 37.221 51.4141C37.4175 51.3336 37.582 51.2259 37.7146 51.0909C37.8495 50.9536 37.9513 50.8033 38.02 50.6399L38.6201 50.8352C38.5373 51.0649 38.4011 51.2768 38.2117 51.4709C38.0247 51.665 37.7903 51.8213 37.5086 51.9396C37.2293 52.0556 36.9073 52.1136 36.5427 52.1136ZM41.6714 52.1243C41.3424 52.1243 41.0417 52.0604 40.7694 51.9325C40.4972 51.8023 40.2806 51.6153 40.1196 51.3714C39.9586 51.1252 39.8781 50.8269 39.8781 50.4766C39.8781 50.2067 39.929 49.9794 40.0308 49.7947C40.1326 49.6101 40.277 49.4586 40.464 49.3402C40.6511 49.2218 40.8724 49.1283 41.1281 49.0597C41.3838 48.991 41.6655 48.9377 41.9733 48.8999C42.2787 48.862 42.5367 48.8288 42.7474 48.8004C42.9605 48.772 43.1227 48.727 43.2339 48.6655C43.3452 48.6039 43.4008 48.5045 43.4008 48.3672V48.2393C43.4008 47.8677 43.2896 47.5753 43.067 47.3622C42.8469 47.1468 42.5296 47.0391 42.1153 47.0391C41.7223 47.0391 41.4015 47.1255 41.153 47.2983C40.9068 47.4711 40.7339 47.6747 40.6345 47.9091L40.0344 47.6925C40.1575 47.3942 40.3279 47.1562 40.5457 46.9787C40.7635 46.7988 41.0074 46.6697 41.2773 46.5916C41.5471 46.5111 41.8206 46.4709 42.0976 46.4709C42.3059 46.4709 42.5225 46.4981 42.7474 46.5526C42.9747 46.607 43.1854 46.7017 43.3795 46.8366C43.5737 46.9692 43.7311 47.1551 43.8518 47.3942C43.9726 47.6309 44.0329 47.9316 44.0329 48.2962V52H43.4008V51.1371H43.3618C43.286 51.2981 43.1736 51.4543 43.0244 51.6058C42.8753 51.7573 42.6882 51.8816 42.4633 51.9787C42.2384 52.0758 41.9745 52.1243 41.6714 52.1243ZM41.7567 51.5455C42.0928 51.5455 42.384 51.4709 42.6302 51.3217C42.8765 51.1726 43.0658 50.9749 43.1984 50.7287C43.3334 50.4801 43.4008 50.2067 43.4008 49.9084V49.12C43.3535 49.165 43.2742 49.2053 43.1629 49.2408C43.054 49.2763 42.9273 49.3082 42.7829 49.3366C42.6409 49.3627 42.4988 49.3852 42.3568 49.4041C42.2148 49.4231 42.0869 49.4396 41.9733 49.4538C41.6655 49.4917 41.4027 49.5509 41.1849 49.6314C40.9671 49.7119 40.8002 49.8232 40.6842 49.9652C40.5682 50.1049 40.5102 50.2848 40.5102 50.505C40.5102 50.8364 40.6286 51.0933 40.8653 51.2756C41.1021 51.4555 41.3992 51.5455 41.7567 51.5455ZM46.3465 44.7273V52H45.7144V44.7273H46.3465ZM51.4637 48.5909V52H50.8316V46.5455H51.4459V47.4013H51.5028C51.6306 47.1219 51.8295 46.8982 52.0993 46.7301C52.3716 46.5597 52.7078 46.4744 53.1079 46.4744C53.4748 46.4744 53.7968 46.5514 54.0738 46.7053C54.3531 46.8568 54.5698 47.0805 54.7236 47.3764C54.8799 47.6723 54.958 48.0357 54.958 48.4666V52H54.3259V48.5057C54.3259 48.0582 54.2004 47.7043 53.9495 47.4439C53.7009 47.1835 53.3671 47.0533 52.9481 47.0533C52.6616 47.0533 52.4071 47.1148 52.1846 47.2379C51.962 47.361 51.7857 47.5386 51.6555 47.7706C51.5276 48.0002 51.4637 48.2737 51.4637 48.5909ZM58.8279 52.1136C58.3189 52.1136 57.8785 51.9953 57.5068 51.7585C57.1352 51.5194 56.8475 51.1892 56.6439 50.7678C56.4427 50.344 56.3421 49.8563 56.3421 49.3047C56.3421 48.7554 56.4427 48.2678 56.6439 47.8416C56.8475 47.4131 57.128 47.0781 57.4855 46.8366C57.8454 46.5928 58.2609 46.4709 58.732 46.4709C59.0279 46.4709 59.3132 46.5253 59.5878 46.6342C59.8624 46.7408 60.1086 46.9053 60.3264 47.1278C60.5466 47.348 60.7206 47.6262 60.8485 47.9624C60.9763 48.2962 61.0402 48.6915 61.0402 49.1484V49.4609H56.7789V48.9034H60.3939C60.3939 48.553 60.3229 48.2382 60.1808 47.9588C60.0412 47.6771 59.8459 47.4545 59.5949 47.2912C59.3463 47.1278 59.0587 47.0462 58.732 47.0462C58.3863 47.0462 58.0821 47.1385 57.8193 47.3232C57.5566 47.5078 57.3506 47.7517 57.2014 48.0547C57.0547 48.3577 56.9801 48.6892 56.9777 49.049V49.3828C56.9777 49.8161 57.0523 50.1948 57.2014 50.5192C57.353 50.8411 57.5672 51.0909 57.8442 51.2685C58.1212 51.446 58.4491 51.5348 58.8279 51.5348C59.0859 51.5348 59.312 51.4946 59.5061 51.4141C59.7026 51.3336 59.8672 51.2259 59.9997 51.0909C60.1347 50.9536 60.2365 50.8033 60.3051 50.6399L60.9053 50.8352C60.8224 51.0649 60.6863 51.2768 60.4969 51.4709C60.3099 51.665 60.0755 51.8213 59.7938 51.9396C59.5144 52.0556 59.1924 52.1136 58.8279 52.1136ZM64.6384 52.1136C64.1294 52.1136 63.6891 51.9953 63.3174 51.7585C62.9457 51.5194 62.6581 51.1892 62.4545 50.7678C62.2532 50.344 62.1526 49.8563 62.1526 49.3047C62.1526 48.7554 62.2532 48.2678 62.4545 47.8416C62.6581 47.4131 62.9386 47.0781 63.2961 46.8366C63.6559 46.5928 64.0714 46.4709 64.5425 46.4709C64.8385 46.4709 65.1237 46.5253 65.3983 46.6342C65.673 46.7408 65.9192 46.9053 66.137 47.1278C66.3572 47.348 66.5312 47.6262 66.659 47.9624C66.7868 48.2962 66.8508 48.6915 66.8508 49.1484V49.4609H62.5894V48.9034H66.2045C66.2045 48.553 66.1334 48.2382 65.9914 47.9588C65.8517 47.6771 65.6564 47.4545 65.4055 47.2912C65.1569 47.1278 64.8692 47.0462 64.5425 47.0462C64.1969 47.0462 63.8927 47.1385 63.6299 47.3232C63.3671 47.5078 63.1611 47.7517 63.012 48.0547C62.8652 48.3577 62.7906 48.6892 62.7883 49.049V49.3828C62.7883 49.8161 62.8628 50.1948 63.012 50.5192C63.1635 50.8411 63.3778 51.0909 63.6547 51.2685C63.9317 51.446 64.2596 51.5348 64.6384 51.5348C64.8965 51.5348 65.1225 51.4946 65.3167 51.4141C65.5132 51.3336 65.6777 51.2259 65.8103 51.0909C65.9452 50.9536 66.047 50.8033 66.1157 50.6399L66.7158 50.8352C66.633 51.0649 66.4968 51.2768 66.3074 51.4709C66.1204 51.665 65.886 51.8213 65.6043 51.9396C65.325 52.0556 65.003 52.1136 64.6384 52.1136ZM70.2075 52.1136C69.76 52.1136 69.3682 51.9953 69.032 51.7585C68.6959 51.5218 68.4331 51.1915 68.2437 50.7678C68.0567 50.344 67.9632 49.8504 67.9632 49.2869C67.9632 48.7259 68.0567 48.2346 68.2437 47.8132C68.4331 47.3894 68.6971 47.0604 69.0356 46.826C69.3741 46.5893 69.7683 46.4709 70.2181 46.4709C70.5496 46.4709 70.8254 46.5301 71.0455 46.6484C71.2657 46.7644 71.4421 46.9089 71.5747 47.0817C71.7072 47.2545 71.8102 47.4226 71.8836 47.5859H71.9404V44.7273H72.5761V52H71.9582V50.9879H71.8836C71.8102 51.1536 71.7061 51.3241 71.5711 51.4993C71.4362 51.6721 71.2574 51.8177 71.0349 51.9361C70.8147 52.0545 70.5389 52.1136 70.2075 52.1136ZM70.282 51.5348C70.6348 51.5348 70.9355 51.4389 71.184 51.2472C71.4326 51.053 71.622 50.7867 71.7522 50.4482C71.8848 50.1072 71.9511 49.7166 71.9511 49.2763C71.9511 48.8407 71.886 48.456 71.7558 48.1222C71.6256 47.786 71.4362 47.5232 71.1876 47.3338C70.939 47.142 70.6372 47.0462 70.282 47.0462C69.9175 47.0462 69.6097 47.1456 69.3588 47.3445C69.1102 47.541 68.9208 47.8073 68.7906 48.1435C68.6627 48.4796 68.5988 48.8572 68.5988 49.2763C68.5988 49.7 68.6639 50.0824 68.7941 50.4233C68.9243 50.7642 69.1137 51.0353 69.3623 51.2365C69.6133 51.4354 69.9198 51.5348 70.282 51.5348ZM78.0413 47.7422L77.4624 47.9055C77.4056 47.7422 77.3251 47.5942 77.221 47.4616C77.1168 47.3291 76.9807 47.2237 76.8126 47.1456C76.6469 47.0675 76.4409 47.0284 76.1947 47.0284C75.8254 47.0284 75.5223 47.116 75.2856 47.2912C75.0489 47.4664 74.9305 47.6925 74.9305 47.9695C74.9305 48.2038 75.011 48.3944 75.172 48.5412C75.3353 48.6856 75.5863 48.8004 75.9248 48.8857L76.7487 49.0881C77.2056 49.1993 77.5477 49.3757 77.7749 49.6172C78.0046 49.8587 78.1194 50.1617 78.1194 50.5263C78.1194 50.834 78.0342 51.1075 77.8637 51.3466C77.6933 51.5857 77.4553 51.7739 77.1499 51.9112C76.8469 52.0462 76.4954 52.1136 76.0953 52.1136C75.5626 52.1136 75.1234 51.9941 74.7778 51.755C74.4321 51.5135 74.2108 51.1655 74.1137 50.7109L74.721 50.5618C74.7991 50.8861 74.9518 51.1312 75.1791 51.2969C75.4087 51.4626 75.7106 51.5455 76.0846 51.5455C76.5036 51.5455 76.8386 51.4519 77.0896 51.2649C77.3405 51.0755 77.466 50.8388 77.466 50.5547C77.466 50.3345 77.3926 50.1499 77.2458 50.0007C77.099 49.8492 76.8765 49.7379 76.5782 49.6669L75.6869 49.4538C75.2134 49.3402 74.863 49.1603 74.6357 48.9141C74.4085 48.6679 74.2948 48.3625 74.2948 47.9979C74.2948 47.6972 74.3765 47.4332 74.5399 47.206C74.7032 46.9763 74.9281 46.7964 75.2146 46.6662C75.501 46.536 75.8277 46.4709 76.1947 46.4709C76.6942 46.4709 77.0931 46.5845 77.3914 46.8118C77.6921 47.0367 77.9087 47.3468 78.0413 47.7422ZM84.436 52.1136C83.9649 52.1136 83.5482 51.9941 83.186 51.755C82.8261 51.5159 82.5444 51.1856 82.3408 50.7642C82.1372 50.3404 82.0354 49.8516 82.0354 49.2976C82.0354 48.7389 82.1372 48.2476 82.3408 47.8239C82.5444 47.3977 82.8261 47.0663 83.186 46.8295C83.5482 46.5904 83.9649 46.4709 84.436 46.4709C84.9071 46.4709 85.3226 46.5904 85.6824 46.8295C86.0423 47.0687 86.324 47.4001 86.5276 47.8239C86.7336 48.2476 86.8366 48.7389 86.8366 49.2976C86.8366 49.8516 86.7348 50.3404 86.5312 50.7642C86.3276 51.1856 86.0447 51.5159 85.6824 51.755C85.3226 51.9941 84.9071 52.1136 84.436 52.1136ZM84.436 51.5348C84.8148 51.5348 85.1356 51.433 85.3983 51.2294C85.6611 51.0258 85.86 50.7547 85.9949 50.4162C86.1323 50.0777 86.2009 49.7048 86.2009 49.2976C86.2009 48.8904 86.1323 48.5163 85.9949 48.1754C85.86 47.8345 85.6611 47.5611 85.3983 47.3551C85.1356 47.1491 84.8148 47.0462 84.436 47.0462C84.0596 47.0462 83.7388 47.1491 83.4736 47.3551C83.2108 47.5611 83.0108 47.8345 82.8735 48.1754C82.7385 48.5163 82.6711 48.8904 82.6711 49.2976C82.6711 49.7048 82.7385 50.0777 82.8735 50.4162C83.0108 50.7547 83.2108 51.0258 83.4736 51.2294C83.7364 51.433 84.0572 51.5348 84.436 51.5348ZM90.4685 46.5455V47.0959H87.7874V46.5455H90.4685ZM88.6254 52V45.7464C88.6254 45.4529 88.6929 45.2055 88.8279 45.0043C88.9652 44.803 89.1439 44.6503 89.3641 44.5462C89.5843 44.442 89.8174 44.3899 90.0637 44.3899C90.2294 44.3899 90.3667 44.4041 90.4756 44.4325C90.5869 44.4586 90.6744 44.4846 90.7384 44.5107L90.5537 45.0646C90.5064 45.0504 90.4484 45.0339 90.3797 45.0149C90.3111 44.996 90.2246 44.9865 90.1205 44.9865C89.8459 44.9865 89.634 45.0634 89.4848 45.2173C89.3357 45.3712 89.2611 45.5914 89.2611 45.8778L89.2575 52H88.6254ZM21.5414 64.1136C21.0537 64.1136 20.6287 63.9917 20.2665 63.7479C19.9067 63.504 19.6273 63.1702 19.4284 62.7464C19.2296 62.3227 19.1301 61.8397 19.1301 61.2976C19.1301 60.7507 19.2308 60.2642 19.432 59.8381C19.6356 59.4119 19.9173 59.0781 20.2772 58.8366C20.637 58.5928 21.0549 58.4709 21.5307 58.4709C21.8953 58.4709 22.2256 58.5419 22.5215 58.6839C22.8174 58.8236 23.0613 59.0213 23.253 59.277C23.4471 59.5303 23.5691 59.8262 23.6188 60.1648H22.9796C22.9133 59.857 22.7535 59.5942 22.5002 59.3764C22.2492 59.1562 21.9296 59.0462 21.5414 59.0462C21.1934 59.0462 20.8856 59.1409 20.6181 59.3303C20.3506 59.5173 20.141 59.7789 19.9895 60.1151C19.8404 60.4489 19.7658 60.8359 19.7658 61.2763C19.7658 61.719 19.8392 62.1108 19.986 62.4517C20.1328 62.7902 20.3387 63.0554 20.6039 63.2472C20.8714 63.4389 21.1839 63.5348 21.5414 63.5348C21.7828 63.5348 22.003 63.4898 22.2019 63.3999C22.4031 63.3075 22.5712 63.1773 22.7061 63.0092C22.8435 62.8411 22.9358 62.6411 22.9831 62.4091H23.6223C23.575 62.7382 23.4578 63.0317 23.2708 63.2898C23.0861 63.5455 22.8458 63.7467 22.5499 63.8935C22.2563 64.0402 21.9202 64.1136 21.5414 64.1136ZM27.0971 64.1136C26.626 64.1136 26.2093 63.9941 25.8471 63.755C25.4873 63.5159 25.2056 63.1856 25.002 62.7642C24.7984 62.3404 24.6966 61.8516 24.6966 61.2976C24.6966 60.7389 24.7984 60.2476 25.002 59.8239C25.2056 59.3977 25.4873 59.0663 25.8471 58.8295C26.2093 58.5904 26.626 58.4709 27.0971 58.4709C27.5682 58.4709 27.9837 58.5904 28.3436 58.8295C28.7034 59.0687 28.9851 59.4001 29.1887 59.8239C29.3947 60.2476 29.4977 60.7389 29.4977 61.2976C29.4977 61.8516 29.3959 62.3404 29.1923 62.7642C28.9887 63.1856 28.7058 63.5159 28.3436 63.755C27.9837 63.9941 27.5682 64.1136 27.0971 64.1136ZM27.0971 63.5348C27.4759 63.5348 27.7967 63.433 28.0595 63.2294C28.3223 63.0258 28.5211 62.7547 28.6561 62.4162C28.7934 62.0777 28.862 61.7048 28.862 61.2976C28.862 60.8904 28.7934 60.5163 28.6561 60.1754C28.5211 59.8345 28.3223 59.5611 28.0595 59.3551C27.7967 59.1491 27.4759 59.0462 27.0971 59.0462C26.7207 59.0462 26.3999 59.1491 26.1348 59.3551C25.872 59.5611 25.6719 59.8345 25.5346 60.1754C25.3997 60.5163 25.3322 60.8904 25.3322 61.2976C25.3322 61.7048 25.3997 62.0777 25.5346 62.4162C25.6719 62.7547 25.872 63.0258 26.1348 63.2294C26.3975 63.433 26.7183 63.5348 27.0971 63.5348ZM30.8853 64V58.5455H31.4996V59.3835H31.5565C31.6654 59.1018 31.8465 58.8804 32.0998 58.7195C32.3555 58.5561 32.6621 58.4744 33.0195 58.4744C33.396 58.4744 33.7049 58.5632 33.9464 58.7408C34.1902 58.916 34.3725 59.1574 34.4933 59.4652H34.5394C34.6625 59.1622 34.8626 58.9219 35.1396 58.7443C35.4189 58.5644 35.7575 58.4744 36.1552 58.4744C36.6618 58.4744 37.0619 58.6342 37.3555 58.9538C37.649 59.2711 37.7958 59.7351 37.7958 60.3459V64H37.1637V60.3459C37.1637 59.915 37.0536 59.5919 36.8335 59.3764C36.6133 59.161 36.3233 59.0533 35.9634 59.0533C35.5468 59.0533 35.226 59.1811 35.0011 59.4368C34.7762 59.6925 34.6637 60.0168 34.6637 60.4098V64H34.0174V60.2891C34.0174 59.9197 33.9144 59.6214 33.7085 59.3942C33.5025 59.1669 33.2125 59.0533 32.8384 59.0533C32.5875 59.0533 32.3614 59.1148 32.1602 59.2379C31.9613 59.361 31.8039 59.5327 31.6879 59.7528C31.5742 59.9706 31.5174 60.2216 31.5174 60.5057V64H30.8853ZM39.4693 66.0455V58.5455H40.0836V59.5859H40.1582C40.234 59.4226 40.3381 59.2557 40.4707 59.0852C40.6033 58.9124 40.7785 58.7668 40.9963 58.6484C41.2164 58.5301 41.4934 58.4709 41.8272 58.4709C42.277 58.4709 42.67 58.5893 43.0062 58.826C43.3448 59.0604 43.6075 59.3894 43.7946 59.8132C43.984 60.2346 44.0787 60.7259 44.0787 61.2869C44.0787 61.8504 43.984 62.344 43.7946 62.7678C43.6075 63.1915 43.3448 63.5218 43.0062 63.7585C42.67 63.9953 42.2794 64.1136 41.8343 64.1136C41.5053 64.1136 41.2295 64.0545 41.0069 63.9361C40.7868 63.8177 40.608 63.6721 40.4707 63.4993C40.3358 63.3241 40.2316 63.1536 40.1582 62.9879H40.1014V66.0455H39.4693ZM40.0943 61.2763C40.0943 61.7166 40.1594 62.1072 40.2896 62.4482C40.4222 62.7867 40.6116 63.053 40.8578 63.2472C41.1064 63.4389 41.407 63.5348 41.7598 63.5348C42.122 63.5348 42.4274 63.4354 42.676 63.2365C42.9269 63.0353 43.1175 62.7642 43.2477 62.4233C43.3803 62.0824 43.4466 61.7 43.4466 61.2763C43.4466 60.8572 43.3815 60.4796 43.2512 60.1435C43.1234 59.8073 42.934 59.541 42.6831 59.3445C42.4321 59.1456 42.1243 59.0462 41.7598 59.0462C41.4047 59.0462 41.1028 59.142 40.8542 59.3338C40.6056 59.5232 40.4163 59.786 40.286 60.1222C40.1582 60.456 40.0943 60.8407 40.0943 61.2763ZM46.9888 64.1243C46.6597 64.1243 46.3591 64.0604 46.0868 63.9325C45.8146 63.8023 45.598 63.6153 45.437 63.3714C45.276 63.1252 45.1955 62.8269 45.1955 62.4766C45.1955 62.2067 45.2464 61.9794 45.3482 61.7947C45.45 61.6101 45.5944 61.4586 45.7814 61.3402C45.9685 61.2218 46.1898 61.1283 46.4455 61.0597C46.7012 60.991 46.9829 60.9377 47.2907 60.8999C47.5961 60.862 47.8541 60.8288 48.0648 60.8004C48.2779 60.772 48.44 60.727 48.5513 60.6655C48.6626 60.6039 48.7182 60.5045 48.7182 60.3672V60.2393C48.7182 59.8677 48.6069 59.5753 48.3844 59.3622C48.1642 59.1468 47.847 59.0391 47.4327 59.0391C47.0397 59.0391 46.7189 59.1255 46.4703 59.2983C46.2241 59.4711 46.0513 59.6747 45.9519 59.9091L45.3517 59.6925C45.4748 59.3942 45.6453 59.1562 45.8631 58.9787C46.0809 58.7988 46.3248 58.6697 46.5946 58.5916C46.8645 58.5111 47.138 58.4709 47.415 58.4709C47.6233 58.4709 47.8399 58.4981 48.0648 58.5526C48.2921 58.607 48.5028 58.7017 48.6969 58.8366C48.891 58.9692 49.0485 59.1551 49.1692 59.3942C49.29 59.6309 49.3503 59.9316 49.3503 60.2962V64H48.7182V63.1371H48.6792C48.6034 63.2981 48.4909 63.4543 48.3418 63.6058C48.1926 63.7573 48.0056 63.8816 47.7807 63.9787C47.5558 64.0758 47.2918 64.1243 46.9888 64.1243ZM47.074 63.5455C47.4102 63.5455 47.7014 63.4709 47.9476 63.3217C48.1938 63.1726 48.3832 62.9749 48.5158 62.7287C48.6507 62.4801 48.7182 62.2067 48.7182 61.9084V61.12C48.6709 61.165 48.5916 61.2053 48.4803 61.2408C48.3714 61.2763 48.2447 61.3082 48.1003 61.3366C47.9583 61.3627 47.8162 61.3852 47.6742 61.4041C47.5321 61.4231 47.4043 61.4396 47.2907 61.4538C46.9829 61.4917 46.7201 61.5509 46.5023 61.6314C46.2845 61.7119 46.1176 61.8232 46.0016 61.9652C45.8856 62.1049 45.8276 62.2848 45.8276 62.505C45.8276 62.8364 45.946 63.0933 46.1827 63.2756C46.4194 63.4555 46.7166 63.5455 47.074 63.5455ZM51.6639 60.5909V64H51.0318V58.5455H51.6461V59.4013H51.7029C51.8308 59.1219 52.0297 58.8982 52.2995 58.7301C52.5718 58.5597 52.908 58.4744 53.3081 58.4744C53.675 58.4744 53.997 58.5514 54.274 58.7053C54.5533 58.8568 54.7699 59.0805 54.9238 59.3764C55.0801 59.6723 55.1582 60.0357 55.1582 60.4666V64H54.5261V60.5057C54.5261 60.0582 54.4006 59.7043 54.1497 59.4439C53.9011 59.1835 53.5673 59.0533 53.1483 59.0533C52.8618 59.0533 52.6073 59.1148 52.3848 59.2379C52.1622 59.361 51.9859 59.5386 51.8556 59.7706C51.7278 60.0002 51.6639 60.2737 51.6639 60.5909ZM56.8299 64V58.5455H57.4656V64H56.8299ZM57.1531 57.608C57.0228 57.608 56.9116 57.5642 56.8192 57.4766C56.7269 57.3866 56.6808 57.2789 56.6808 57.1534C56.6808 57.0279 56.7269 56.9214 56.8192 56.8338C56.9116 56.7438 57.0228 56.6989 57.1531 56.6989C57.2833 56.6989 57.3945 56.7438 57.4869 56.8338C57.5792 56.9214 57.6254 57.0279 57.6254 57.1534C57.6254 57.2789 57.5792 57.3866 57.4869 57.4766C57.3945 57.5642 57.2833 57.608 57.1531 57.608ZM61.3425 64.1136C60.8335 64.1136 60.3932 63.9953 60.0215 63.7585C59.6498 63.5194 59.3622 63.1892 59.1586 62.7678C58.9573 62.344 58.8567 61.8563 58.8567 61.3047C58.8567 60.7554 58.9573 60.2678 59.1586 59.8416C59.3622 59.4131 59.6427 59.0781 60.0002 58.8366C60.36 58.5928 60.7755 58.4709 61.2466 58.4709C61.5426 58.4709 61.8278 58.5253 62.1025 58.6342C62.3771 58.7408 62.6233 58.9053 62.8411 59.1278C63.0613 59.348 63.2353 59.6262 63.3631 59.9624C63.4909 60.2962 63.5549 60.6915 63.5549 61.1484V61.4609H59.2935V60.9034H62.9086C62.9086 60.553 62.8375 60.2382 62.6955 59.9588C62.5558 59.6771 62.3605 59.4545 62.1096 59.2912C61.861 59.1278 61.5733 59.0462 61.2466 59.0462C60.901 59.0462 60.5968 59.1385 60.334 59.3232C60.0712 59.5078 59.8652 59.7517 59.7161 60.0547C59.5693 60.3577 59.4947 60.6892 59.4924 61.049V61.3828C59.4924 61.8161 59.5669 62.1948 59.7161 62.5192C59.8676 62.8411 60.0819 63.0909 60.3588 63.2685C60.6358 63.446 60.9637 63.5348 61.3425 63.5348C61.6006 63.5348 61.8266 63.4946 62.0208 63.4141C62.2173 63.3336 62.3818 63.2259 62.5144 63.0909C62.6493 62.9536 62.7511 62.8033 62.8198 62.6399L63.4199 62.8352C63.3371 63.0649 63.2009 63.2768 63.0115 63.4709C62.8245 63.665 62.5901 63.8213 62.3084 63.9396C62.0291 64.0556 61.7071 64.1136 61.3425 64.1136ZM68.6126 59.7422L68.0337 59.9055C67.9769 59.7422 67.8964 59.5942 67.7923 59.4616C67.6881 59.3291 67.552 59.2237 67.3839 59.1456C67.2182 59.0675 67.0122 59.0284 66.766 59.0284C66.3967 59.0284 66.0936 59.116 65.8569 59.2912C65.6201 59.4664 65.5018 59.6925 65.5018 59.9695C65.5018 60.2038 65.5823 60.3944 65.7433 60.5412C65.9066 60.6856 66.1576 60.8004 66.4961 60.8857L67.32 61.0881C67.7769 61.1993 68.119 61.3757 68.3462 61.6172C68.5759 61.8587 68.6907 62.1617 68.6907 62.5263C68.6907 62.834 68.6055 63.1075 68.435 63.3466C68.2646 63.5857 68.0266 63.7739 67.7212 63.9112C67.4182 64.0462 67.0666 64.1136 66.6665 64.1136C66.1339 64.1136 65.6947 63.9941 65.3491 63.755C65.0034 63.5135 64.7821 63.1655 64.685 62.7109L65.2923 62.5618C65.3704 62.8861 65.5231 63.1312 65.7504 63.2969C65.98 63.4626 66.2818 63.5455 66.6559 63.5455C67.0749 63.5455 67.4099 63.4519 67.6609 63.2649C67.9118 63.0755 68.0373 62.8388 68.0373 62.5547C68.0373 62.3345 67.9639 62.1499 67.8171 62.0007C67.6703 61.8492 67.4478 61.7379 67.1495 61.6669L66.2582 61.4538C65.7847 61.3402 65.4343 61.1603 65.207 60.9141C64.9798 60.6679 64.8661 60.3625 64.8661 59.9979C64.8661 59.6972 64.9478 59.4332 65.1112 59.206C65.2745 58.9763 65.4994 58.7964 65.7859 58.6662C66.0723 58.536 66.399 58.4709 66.766 58.4709C67.2655 58.4709 67.6644 58.5845 67.9627 58.8118C68.2634 59.0367 68.48 59.3468 68.6126 59.7422ZM75.8311 60.5838V61.1804H72.8056V60.5838H75.8311ZM81.4419 64L79.7942 58.5455H80.4618L81.7544 63.0447H81.8006L83.0897 58.5455H83.7608L85.0392 63.0341H85.089L86.3816 58.5455H87.0492L85.4015 64H84.748L83.4554 59.5291H83.388L82.0953 64H81.4419ZM88.91 60.5909V64H88.2779V56.7273H88.91V59.4013H88.9668C89.0946 59.1196 89.2923 58.8946 89.5598 58.7266C89.8297 58.5585 90.1706 58.4744 90.5826 58.4744C90.9519 58.4744 91.2762 58.5502 91.5556 58.7017C91.8349 58.8532 92.0527 59.0769 92.209 59.3729C92.3652 59.6688 92.4434 60.0334 92.4434 60.4666V64H91.8077V60.5057C91.8077 60.0559 91.6822 59.7019 91.4313 59.4439C91.1827 59.1835 90.8465 59.0533 90.4228 59.0533C90.1316 59.0533 89.8723 59.1148 89.6451 59.2379C89.4178 59.361 89.2379 59.5386 89.1053 59.7706C88.9751 60.0002 88.91 60.2737 88.91 60.5909ZM95.6314 64.1243C95.3023 64.1243 95.0017 64.0604 94.7294 63.9325C94.4571 63.8023 94.2405 63.6153 94.0795 63.3714C93.9186 63.1252 93.8381 62.8269 93.8381 62.4766C93.8381 62.2067 93.889 61.9794 93.9908 61.7947C94.0926 61.6101 94.237 61.4586 94.424 61.3402C94.611 61.2218 94.8324 61.1283 95.0881 61.0597C95.3438 60.991 95.6255 60.9377 95.9332 60.8999C96.2386 60.862 96.4967 60.8288 96.7074 60.8004C96.9205 60.772 97.0826 60.727 97.1939 60.6655C97.3052 60.6039 97.3608 60.5045 97.3608 60.3672V60.2393C97.3608 59.8677 97.2495 59.5753 97.027 59.3622C96.8068 59.1468 96.4896 59.0391 96.0753 59.0391C95.6823 59.0391 95.3615 59.1255 95.1129 59.2983C94.8667 59.4711 94.6939 59.6747 94.5945 59.9091L93.9943 59.6925C94.1174 59.3942 94.2879 59.1562 94.5057 58.9787C94.7235 58.7988 94.9673 58.6697 95.2372 58.5916C95.5071 58.5111 95.7805 58.4709 96.0575 58.4709C96.2659 58.4709 96.4825 58.4981 96.7074 58.5526C96.9347 58.607 97.1454 58.7017 97.3395 58.8366C97.5336 58.9692 97.6911 59.1551 97.8118 59.3942C97.9325 59.6309 97.9929 59.9316 97.9929 60.2962V64H97.3608V63.1371H97.3217C97.246 63.2981 97.1335 63.4543 96.9844 63.6058C96.8352 63.7573 96.6482 63.8816 96.4233 63.9787C96.1984 64.0758 95.9344 64.1243 95.6314 64.1243ZM95.7166 63.5455C96.0528 63.5455 96.344 63.4709 96.5902 63.3217C96.8364 63.1726 97.0258 62.9749 97.1584 62.7287C97.2933 62.4801 97.3608 62.2067 97.3608 61.9084V61.12C97.3134 61.165 97.2341 61.2053 97.1229 61.2408C97.014 61.2763 96.8873 61.3082 96.7429 61.3366C96.6009 61.3627 96.4588 61.3852 96.3168 61.4041C96.1747 61.4231 96.0469 61.4396 95.9332 61.4538C95.6255 61.4917 95.3627 61.5509 95.1449 61.6314C94.9271 61.7119 94.7602 61.8232 94.6442 61.9652C94.5282 62.1049 94.4702 62.2848 94.4702 62.505C94.4702 62.8364 94.5885 63.0933 94.8253 63.2756C95.062 63.4555 95.3591 63.5455 95.7166 63.5455ZM101.823 58.5455V59.0959H99.2198V58.5455H101.823ZM100.033 57.2386H100.669V62.576C100.669 62.8033 100.708 62.982 100.786 63.1122C100.864 63.2401 100.966 63.3312 101.091 63.3857C101.217 63.4377 101.35 63.4638 101.493 63.4638C101.575 63.4638 101.646 63.459 101.706 63.4496C101.765 63.4377 101.817 63.4259 101.862 63.4141L101.997 63.9858C101.935 64.0095 101.859 64.0308 101.77 64.0497C101.68 64.071 101.568 64.0817 101.436 64.0817C101.204 64.0817 100.98 64.0308 100.765 63.929C100.551 63.8272 100.376 63.6757 100.239 63.4744C100.102 63.2732 100.033 63.0234 100.033 62.7251V57.2386ZM26.2222 70.5455V71.0959H23.6192V70.5455H26.2222ZM24.4324 69.2386H25.0681V74.576C25.0681 74.8033 25.1072 74.982 25.1853 75.1122C25.2634 75.2401 25.3652 75.3312 25.4907 75.3857C25.6162 75.4377 25.7499 75.4638 25.892 75.4638C25.9748 75.4638 26.0458 75.459 26.105 75.4496C26.1642 75.4377 26.2163 75.4259 26.2613 75.4141L26.3962 75.9858C26.3347 76.0095 26.2589 76.0308 26.1689 76.0497C26.079 76.071 25.9677 76.0817 25.8351 76.0817C25.6031 76.0817 25.3794 76.0308 25.164 75.929C24.9509 75.8272 24.7757 75.6757 24.6384 75.4744C24.5011 75.2732 24.4324 75.0234 24.4324 74.7251V69.2386ZM28.407 72.5909V76H27.7749V68.7273H28.407V71.4013H28.4639C28.5917 71.1196 28.7894 70.8946 29.0569 70.7266C29.3268 70.5585 29.6677 70.4744 30.0796 70.4744C30.449 70.4744 30.7733 70.5502 31.0526 70.7017C31.332 70.8532 31.5498 71.0769 31.7061 71.3729C31.8623 71.6688 31.9404 72.0334 31.9404 72.4666V76H31.3048V72.5057C31.3048 72.0559 31.1793 71.7019 30.9284 71.4439C30.6798 71.1835 30.3436 71.0533 29.9198 71.0533C29.6286 71.0533 29.3694 71.1148 29.1421 71.2379C28.9149 71.361 28.7349 71.5386 28.6024 71.7706C28.4722 72.0002 28.407 72.2737 28.407 72.5909ZM35.8103 76.1136C35.3013 76.1136 34.8609 75.9953 34.4893 75.7585C34.1176 75.5194 33.8299 75.1892 33.6263 74.7678C33.4251 74.344 33.3245 73.8563 33.3245 73.3047C33.3245 72.7554 33.4251 72.2678 33.6263 71.8416C33.8299 71.4131 34.1105 71.0781 34.468 70.8366C34.8278 70.5928 35.2433 70.4709 35.7144 70.4709C36.0103 70.4709 36.2956 70.5253 36.5702 70.6342C36.8448 70.7408 37.0911 70.9053 37.3089 71.1278C37.529 71.348 37.703 71.6262 37.8309 71.9624C37.9587 72.2962 38.0226 72.6915 38.0226 73.1484V73.4609H33.7613V72.9034H37.3763C37.3763 72.553 37.3053 72.2382 37.1633 71.9588C37.0236 71.6771 36.8283 71.4545 36.5773 71.2912C36.3287 71.1278 36.0411 71.0462 35.7144 71.0462C35.3688 71.0462 35.0645 71.1385 34.8018 71.3232C34.539 71.5078 34.333 71.7517 34.1839 72.0547C34.0371 72.3577 33.9625 72.6892 33.9601 73.049V73.3828C33.9601 73.8161 34.0347 74.1948 34.1839 74.5192C34.3354 74.8411 34.5496 75.0909 34.8266 75.2685C35.1036 75.446 35.4315 75.5348 35.8103 75.5348C36.0683 75.5348 36.2944 75.4946 36.4885 75.4141C36.685 75.3336 36.8496 75.2259 36.9822 75.0909C37.1171 74.9536 37.2189 74.8033 37.2876 74.6399L37.8877 74.8352C37.8048 75.0649 37.6687 75.2768 37.4793 75.4709C37.2923 75.665 37.0579 75.8213 36.7762 75.9396C36.4968 76.0556 36.1749 76.1136 35.8103 76.1136ZM39.6899 78.0455C39.5644 78.0455 39.4472 78.0336 39.3383 78.0099C39.2294 77.9863 39.143 77.9602 39.0791 77.9318L39.2496 77.3743C39.465 77.4406 39.6568 77.4643 39.8248 77.4453C39.9929 77.4287 40.1421 77.353 40.2723 77.218C40.4025 77.0855 40.5185 76.8819 40.6203 76.6072L40.8192 76.0533L38.8128 70.5455H39.4981L41.1175 75.1655H41.1672L42.7865 70.5455H43.4719L41.1636 76.8629C41.0666 77.1257 40.947 77.3447 40.805 77.5199C40.6629 77.6974 40.4984 77.8288 40.3113 77.9141C40.1267 78.0017 39.9195 78.0455 39.6899 78.0455ZM49.0445 76.1243C48.7154 76.1243 48.4147 76.0604 48.1425 75.9325C47.8702 75.8023 47.6536 75.6153 47.4926 75.3714C47.3316 75.1252 47.2512 74.8269 47.2512 74.4766C47.2512 74.2067 47.3021 73.9794 47.4039 73.7947C47.5057 73.6101 47.6501 73.4586 47.8371 73.3402C48.0241 73.2218 48.2455 73.1283 48.5012 73.0597C48.7568 72.991 49.0386 72.9377 49.3463 72.8999C49.6517 72.862 49.9098 72.8288 50.1205 72.8004C50.3335 72.772 50.4957 72.727 50.607 72.6655C50.7182 72.6039 50.7739 72.5045 50.7739 72.3672V72.2393C50.7739 71.8677 50.6626 71.5753 50.4401 71.3622C50.2199 71.1468 49.9027 71.0391 49.4884 71.0391C49.0954 71.0391 48.7746 71.1255 48.526 71.2983C48.2798 71.4711 48.107 71.6747 48.0075 71.9091L47.4074 71.6925C47.5305 71.3942 47.701 71.1562 47.9188 70.9787C48.1366 70.7988 48.3804 70.6697 48.6503 70.5916C48.9202 70.5111 49.1936 70.4709 49.4706 70.4709C49.6789 70.4709 49.8956 70.4981 50.1205 70.5526C50.3477 70.607 50.5584 70.7017 50.7526 70.8366C50.9467 70.9692 51.1041 71.1551 51.2249 71.3942C51.3456 71.6309 51.406 71.9316 51.406 72.2962V76H50.7739V75.1371H50.7348C50.6591 75.2981 50.5466 75.4543 50.3975 75.6058C50.2483 75.7573 50.0613 75.8816 49.8364 75.9787C49.6115 76.0758 49.3475 76.1243 49.0445 76.1243ZM49.1297 75.5455C49.4659 75.5455 49.7571 75.4709 50.0033 75.3217C50.2495 75.1726 50.4389 74.9749 50.5715 74.7287C50.7064 74.4801 50.7739 74.2067 50.7739 73.9084V73.12C50.7265 73.165 50.6472 73.2053 50.536 73.2408C50.4271 73.2763 50.3004 73.3082 50.156 73.3366C50.0139 73.3627 49.8719 73.3852 49.7298 73.4041C49.5878 73.4231 49.46 73.4396 49.3463 73.4538C49.0386 73.4917 48.7758 73.5509 48.558 73.6314C48.3402 73.7119 48.1733 73.8232 48.0573 73.9652C47.9413 74.1049 47.8833 74.2848 47.8833 74.505C47.8833 74.8364 48.0016 75.0933 48.2384 75.2756C48.4751 75.4555 48.7722 75.5455 49.1297 75.5455ZM53.0874 76V70.5455H53.7018V71.3835H53.748C53.8569 71.1089 54.0463 70.8875 54.3161 70.7195C54.5884 70.549 54.8962 70.4638 55.2394 70.4638C55.2915 70.4638 55.3495 70.465 55.4134 70.4673C55.4774 70.4697 55.5306 70.4721 55.5732 70.4744V71.1172C55.5448 71.1125 55.4951 71.1054 55.4241 71.0959C55.3531 71.0864 55.2761 71.0817 55.1933 71.0817C54.9092 71.0817 54.6559 71.142 54.4333 71.2628C54.2132 71.3812 54.0392 71.5457 53.9113 71.7564C53.7835 71.9671 53.7195 72.2074 53.7195 72.4773V76H53.0874ZM58.6911 76.1136C58.1821 76.1136 57.7418 75.9953 57.3701 75.7585C56.9984 75.5194 56.7108 75.1892 56.5072 74.7678C56.306 74.344 56.2053 73.8563 56.2053 73.3047C56.2053 72.7554 56.306 72.2678 56.5072 71.8416C56.7108 71.4131 56.9913 71.0781 57.3488 70.8366C57.7087 70.5928 58.1241 70.4709 58.5953 70.4709C58.8912 70.4709 59.1765 70.5253 59.4511 70.6342C59.7257 70.7408 59.9719 70.9053 60.1897 71.1278C60.4099 71.348 60.5839 71.6262 60.7117 71.9624C60.8396 72.2962 60.9035 72.6915 60.9035 73.1484V73.4609H56.6421V72.9034H60.2572C60.2572 72.553 60.1862 72.2382 60.0441 71.9588C59.9044 71.6771 59.7091 71.4545 59.4582 71.2912C59.2096 71.1278 58.922 71.0462 58.5953 71.0462C58.2496 71.0462 57.9454 71.1385 57.6826 71.3232C57.4198 71.5078 57.2139 71.7517 57.0647 72.0547C56.9179 72.3577 56.8434 72.6892 56.841 73.049V73.3828C56.841 73.8161 56.9156 74.1948 57.0647 74.5192C57.2162 74.8411 57.4305 75.0909 57.7075 75.2685C57.9845 75.446 58.3124 75.5348 58.6911 75.5348C58.9492 75.5348 59.1753 75.4946 59.3694 75.4141C59.5659 75.3336 59.7304 75.2259 59.863 75.0909C59.998 74.9536 60.0998 74.8033 60.1684 74.6399L60.7686 74.8352C60.6857 75.0649 60.5496 75.2768 60.3602 75.4709C60.1731 75.665 59.9388 75.8213 59.657 75.9396C59.3777 76.0556 59.0557 76.1136 58.6911 76.1136ZM65.741 68.7273V76H65.1089V68.7273H65.741ZM69.5336 76.1136C69.0625 76.1136 68.6459 75.9941 68.2836 75.755C67.9238 75.5159 67.6421 75.1856 67.4385 74.7642C67.2349 74.3404 67.1331 73.8516 67.1331 73.2976C67.1331 72.7389 67.2349 72.2476 67.4385 71.8239C67.6421 71.3977 67.9238 71.0663 68.2836 70.8295C68.6459 70.5904 69.0625 70.4709 69.5336 70.4709C70.0048 70.4709 70.4202 70.5904 70.7801 70.8295C71.1399 71.0687 71.4217 71.4001 71.6253 71.8239C71.8312 72.2476 71.9342 72.7389 71.9342 73.2976C71.9342 73.8516 71.8324 74.3404 71.6288 74.7642C71.4252 75.1856 71.1423 75.5159 70.7801 75.755C70.4202 75.9941 70.0048 76.1136 69.5336 76.1136ZM69.5336 75.5348C69.9124 75.5348 70.2332 75.433 70.496 75.2294C70.7588 75.0258 70.9577 74.7547 71.0926 74.4162C71.2299 74.0777 71.2986 73.7048 71.2986 73.2976C71.2986 72.8904 71.2299 72.5163 71.0926 72.1754C70.9577 71.8345 70.7588 71.5611 70.496 71.3551C70.2332 71.1491 69.9124 71.0462 69.5336 71.0462C69.1572 71.0462 68.8364 71.1491 68.5713 71.3551C68.3085 71.5611 68.1085 71.8345 67.9711 72.1754C67.8362 72.5163 67.7687 72.8904 67.7687 73.2976C67.7687 73.7048 67.8362 74.0777 67.9711 74.4162C68.1085 74.7547 68.3085 75.0258 68.5713 75.2294C68.8341 75.433 69.1549 75.5348 69.5336 75.5348ZM75.4419 76.1136C74.9707 76.1136 74.5541 75.9941 74.1919 75.755C73.832 75.5159 73.5503 75.1856 73.3467 74.7642C73.1431 74.3404 73.0413 73.8516 73.0413 73.2976C73.0413 72.7389 73.1431 72.2476 73.3467 71.8239C73.5503 71.3977 73.832 71.0663 74.1919 70.8295C74.5541 70.5904 74.9707 70.4709 75.4419 70.4709C75.913 70.4709 76.3285 70.5904 76.6883 70.8295C77.0481 71.0687 77.3299 71.4001 77.5335 71.8239C77.7394 72.2476 77.8424 72.7389 77.8424 73.2976C77.8424 73.8516 77.7406 74.3404 77.537 74.7642C77.3334 75.1856 77.0505 75.5159 76.6883 75.755C76.3285 75.9941 75.913 76.1136 75.4419 76.1136ZM75.4419 75.5348C75.8206 75.5348 76.1414 75.433 76.4042 75.2294C76.667 75.0258 76.8659 74.7547 77.0008 74.4162C77.1381 74.0777 77.2068 73.7048 77.2068 73.2976C77.2068 72.8904 77.1381 72.5163 77.0008 72.1754C76.8659 71.8345 76.667 71.5611 76.4042 71.3551C76.1414 71.1491 75.8206 71.0462 75.4419 71.0462C75.0654 71.0462 74.7446 71.1491 74.4795 71.3551C74.2167 71.5611 74.0167 71.8345 73.8794 72.1754C73.7444 72.5163 73.6769 72.8904 73.6769 73.2976C73.6769 73.7048 73.7444 74.0777 73.8794 74.4162C74.0167 74.7547 74.2167 75.0258 74.4795 75.2294C74.7423 75.433 75.0631 75.5348 75.4419 75.5348ZM79.8053 73.9403L79.7982 73.1129H79.9403L82.4971 70.5455H83.2961L80.7712 73.0739L80.7144 73.0845L79.8053 73.9403ZM79.23 76V68.7273H79.8621V76H79.23ZM82.6285 76L80.4126 73.1982L80.8671 72.7614L83.4381 76H82.6285ZM84.491 76V70.5455H85.1267V76H84.491ZM84.8142 69.608C84.684 69.608 84.5727 69.5642 84.4804 69.4766C84.3881 69.3866 84.3419 69.2789 84.3419 69.1534C84.3419 69.0279 84.3881 68.9214 84.4804 68.8338C84.5727 68.7438 84.684 68.6989 84.8142 68.6989C84.9444 68.6989 85.0557 68.7438 85.148 68.8338C85.2403 68.9214 85.2865 69.0279 85.2865 69.1534C85.2865 69.2789 85.2403 69.3866 85.148 69.4766C85.0557 69.5642 84.9444 69.608 84.8142 69.608ZM87.4305 72.5909V76H86.7984V70.5455H87.4127V71.4013H87.4695C87.5974 71.1219 87.7963 70.8982 88.0661 70.7301C88.3384 70.5597 88.6746 70.4744 89.0747 70.4744C89.4416 70.4744 89.7636 70.5514 90.0406 70.7053C90.3199 70.8568 90.5365 71.0805 90.6904 71.3764C90.8467 71.6723 90.9248 72.0357 90.9248 72.4666V76H90.2927V72.5057C90.2927 72.0582 90.1672 71.7043 89.9163 71.4439C89.6677 71.1835 89.3339 71.0533 88.9149 71.0533C88.6284 71.0533 88.3739 71.1148 88.1514 71.2379C87.9288 71.361 87.7525 71.5386 87.6222 71.7706C87.4944 72.0002 87.4305 72.2737 87.4305 72.5909ZM94.6704 78.1591C94.2987 78.1591 93.9732 78.1106 93.6938 78.0135C93.4144 77.9188 93.1789 77.7886 92.9871 77.6229C92.7954 77.4571 92.6462 77.2713 92.5397 77.0653L93.0581 76.7244C93.1363 76.8617 93.2404 76.9967 93.3706 77.1293C93.5032 77.2618 93.6749 77.3719 93.8856 77.4595C94.0986 77.5471 94.3602 77.5909 94.6704 77.5909C95.1533 77.5909 95.5428 77.4702 95.8387 77.2287C96.137 76.9872 96.2861 76.612 96.2861 76.103V74.8743H96.2293C96.1559 75.04 96.0506 75.2057 95.9133 75.3714C95.776 75.5348 95.596 75.6709 95.3735 75.7798C95.1533 75.8887 94.8799 75.9432 94.5532 75.9432C94.1176 75.9432 93.7305 75.8355 93.392 75.62C93.0558 75.4046 92.7906 75.0968 92.5965 74.6967C92.4047 74.2943 92.3089 73.8149 92.3089 73.2585C92.3089 72.7069 92.4024 72.2216 92.5894 71.8026C92.7788 71.3835 93.0428 71.0568 93.3813 70.8224C93.7198 70.5881 94.114 70.4709 94.5638 70.4709C94.8976 70.4709 95.1746 70.5301 95.3948 70.6484C95.615 70.7644 95.7913 70.9089 95.9239 71.0817C96.0589 71.2545 96.1642 71.4226 96.24 71.5859H96.3039V70.5455H96.9218V76.142C96.9218 76.6037 96.8235 76.9837 96.627 77.282C96.4305 77.5803 96.163 77.8004 95.8245 77.9425C95.4859 78.0869 95.1012 78.1591 94.6704 78.1591ZM94.6278 75.3643C94.9781 75.3643 95.2776 75.2803 95.5262 75.1122C95.7748 74.9418 95.9653 74.6979 96.0979 74.3807C96.2305 74.0634 96.2968 73.6858 96.2968 73.2479C96.2968 72.8217 96.2317 72.4441 96.1015 72.1151C95.9713 71.7836 95.7819 71.5232 95.5333 71.3338C95.2871 71.142 94.9852 71.0462 94.6278 71.0462C94.2632 71.0462 93.9554 71.1444 93.7045 71.3409C93.4535 71.5374 93.2641 71.8026 93.1363 72.1364C93.0084 72.4678 92.9445 72.8383 92.9445 73.2479C92.9445 73.6645 93.0096 74.0327 93.1398 74.3523C93.27 74.6695 93.4606 74.9181 93.7116 75.098C93.9625 75.2756 94.2679 75.3643 94.6278 75.3643ZM57.2019 82.5455V83.0959H54.5208V82.5455H57.2019ZM55.3588 88V81.7464C55.3588 81.4529 55.4263 81.2055 55.5613 81.0043C55.6986 80.803 55.8773 80.6503 56.0975 80.5462C56.3176 80.442 56.5508 80.3899 56.7971 80.3899C56.9628 80.3899 57.1001 80.4041 57.209 80.4325C57.3203 80.4586 57.4078 80.4846 57.4718 80.5107L57.2871 81.0646C57.2398 81.0504 57.1818 81.0339 57.1131 81.0149C57.0444 80.996 56.958 80.9865 56.8539 80.9865C56.5792 80.9865 56.3674 81.0634 56.2182 81.2173C56.0691 81.3712 55.9945 81.5914 55.9945 81.8778L55.9909 88H55.3588ZM60.3588 88.1136C59.8877 88.1136 59.4711 87.9941 59.1088 87.755C58.749 87.5159 58.4673 87.1856 58.2637 86.7642C58.0601 86.3404 57.9583 85.8516 57.9583 85.2976C57.9583 84.7389 58.0601 84.2476 58.2637 83.8239C58.4673 83.3977 58.749 83.0663 59.1088 82.8295C59.4711 82.5904 59.8877 82.4709 60.3588 82.4709C60.83 82.4709 61.2454 82.5904 61.6053 82.8295C61.9651 83.0687 62.2469 83.4001 62.4505 83.8239C62.6564 84.2476 62.7594 84.7389 62.7594 85.2976C62.7594 85.8516 62.6576 86.3404 62.454 86.7642C62.2504 87.1856 61.9675 87.5159 61.6053 87.755C61.2454 87.9941 60.83 88.1136 60.3588 88.1136ZM60.3588 87.5348C60.7376 87.5348 61.0584 87.433 61.3212 87.2294C61.584 87.0258 61.7828 86.7547 61.9178 86.4162C62.0551 86.0777 62.1238 85.7048 62.1238 85.2976C62.1238 84.8904 62.0551 84.5163 61.9178 84.1754C61.7828 83.8345 61.584 83.5611 61.3212 83.3551C61.0584 83.1491 60.7376 83.0462 60.3588 83.0462C59.9824 83.0462 59.6616 83.1491 59.3965 83.3551C59.1337 83.5611 58.9337 83.8345 58.7963 84.1754C58.6614 84.5163 58.5939 84.8904 58.5939 85.2976C58.5939 85.7048 58.6614 86.0777 58.7963 86.4162C58.9337 86.7547 59.1337 87.0258 59.3965 87.2294C59.6593 87.433 59.9801 87.5348 60.3588 87.5348ZM64.147 88V82.5455H64.7614V83.3835H64.8075C64.9164 83.1089 65.1058 82.8875 65.3757 82.7195C65.648 82.549 65.9557 82.4638 66.299 82.4638C66.3511 82.4638 66.4091 82.465 66.473 82.4673C66.5369 82.4697 66.5902 82.4721 66.6328 82.4744V83.1172C66.6044 83.1125 66.5547 83.1054 66.4837 83.0959C66.4126 83.0864 66.3357 83.0817 66.2528 83.0817C65.9688 83.0817 65.7154 83.142 65.4929 83.2628C65.2727 83.3812 65.0987 83.5457 64.9709 83.7564C64.843 83.9671 64.7791 84.2074 64.7791 84.4773V88H64.147Z" fill="#222222"/>
<defs>
<filter id="filter0_d_991_220" x="0" y="0" width="118" height="118" filterUnits="userSpaceOnUse" color-interpolation-filters="sRGB">
<feFlood flood-opacity="0" result="BackgroundImageFix"/>
<feColorMatrix in="SourceAlpha" type="matrix" values="0 0 0 0 0 0 0 0 0 0 0 0 0 0 0 0 0 0 127 0" result="hardAlpha"/>
<feOffset dy="4"/>
<feGaussianBlur stdDeviation="2"/>
<feComposite in2="hardAlpha" operator="out"/>
<feColorMatrix type="matrix" values="0 0 0 0 0 0 0 0 0 0 0 0 0 0 0 0 0 0 0.25 0"/>
<feBlend mode="normal" in2="BackgroundImageFix" result="effect1_dropShadow_991_220"/>
<feBlend mode="normal" in="SourceGraphic" in2="effect1_dropShadow_991_220" result="shape"/>
</filter>
</defs>
</svg>
