<svg width="118" height="118" viewBox="0 0 118 118" fill="none" xmlns="http://www.w3.org/2000/svg">
<g filter="url(#filter0_d_991_211)">
<rect x="4" width="110" height="110" fill="#C9C8D8" fill-opacity="0.5" shape-rendering="crispEdges"/>
</g>
<path d="M17.2918 37.5909V41H16.6597V33.7273H17.2918V36.4013H17.3486C17.4765 36.1196 17.6742 35.8946 17.9417 35.7266C18.2116 35.5585 18.5525 35.4744 18.9644 35.4744C19.3337 35.4744 19.6581 35.5502 19.9374 35.7017C20.2168 35.8532 20.4346 36.0769 20.5908 36.3729C20.7471 36.6688 20.8252 37.0334 20.8252 37.4666V41H20.1895V37.5057C20.1895 37.0559 20.0641 36.7019 19.8131 36.4439C19.5645 36.1835 19.2284 36.0533 18.8046 36.0533C18.5134 36.0533 18.2542 36.1148 18.0269 36.2379C17.7996 36.361 17.6197 36.5386 17.4871 36.7706C17.3569 37.0002 17.2918 37.2737 17.2918 37.5909ZM24.0132 41.1243C23.6842 41.1243 23.3835 41.0604 23.1112 40.9325C22.839 40.8023 22.6224 40.6153 22.4614 40.3714C22.3004 40.1252 22.2199 39.8269 22.2199 39.4766C22.2199 39.2067 22.2708 38.9794 22.3726 38.7947C22.4744 38.6101 22.6188 38.4586 22.8058 38.3402C22.9929 38.2218 23.2142 38.1283 23.4699 38.0597C23.7256 37.991 24.0073 37.9377 24.3151 37.8999C24.6205 37.862 24.8785 37.8288 25.0892 37.8004C25.3023 37.772 25.4645 37.727 25.5757 37.6655C25.687 37.6039 25.7426 37.5045 25.7426 37.3672V37.2393C25.7426 36.8677 25.6314 36.5753 25.4088 36.3622C25.1887 36.1468 24.8714 36.0391 24.4571 36.0391C24.0641 36.0391 23.7433 36.1255 23.4948 36.2983C23.2485 36.4711 23.0757 36.6747 22.9763 36.9091L22.3762 36.6925C22.4993 36.3942 22.6697 36.1562 22.8875 35.9787C23.1053 35.7988 23.3492 35.6697 23.6191 35.5916C23.8889 35.5111 24.1624 35.4709 24.4394 35.4709C24.6477 35.4709 24.8643 35.4981 25.0892 35.5526C25.3165 35.607 25.5272 35.7017 25.7213 35.8366C25.9155 35.9692 26.0729 36.1551 26.1936 36.3942C26.3144 36.6309 26.3747 36.9316 26.3747 37.2962V41H25.7426V40.1371H25.7036C25.6278 40.2981 25.5154 40.4543 25.3662 40.6058C25.2171 40.7573 25.03 40.8816 24.8051 40.9787C24.5802 41.0758 24.3163 41.1243 24.0132 41.1243ZM24.0985 40.5455C24.4346 40.5455 24.7258 40.4709 24.972 40.3217C25.2182 40.1726 25.4076 39.9749 25.5402 39.7287C25.6752 39.4801 25.7426 39.2067 25.7426 38.9084V38.12C25.6953 38.165 25.616 38.2053 25.5047 38.2408C25.3958 38.2763 25.2691 38.3082 25.1247 38.3366C24.9827 38.3627 24.8406 38.3852 24.6986 38.4041C24.5566 38.4231 24.4287 38.4396 24.3151 38.4538C24.0073 38.4917 23.7445 38.5509 23.5267 38.6314C23.3089 38.7119 23.142 38.8232 23.026 38.9652C22.91 39.1049 22.852 39.2848 22.852 39.505C22.852 39.8364 22.9704 40.0933 23.2071 40.2756C23.4439 40.4555 23.741 40.5455 24.0985 40.5455ZM32.0832 35.5455L30.091 41H29.4163L27.4241 35.5455H28.1095L29.7288 40.1655H29.7785L31.3978 35.5455H32.0832ZM35.3298 41.1136C34.8208 41.1136 34.3805 40.9953 34.0088 40.7585C33.6371 40.5194 33.3495 40.1892 33.1459 39.7678C32.9446 39.344 32.844 38.8563 32.844 38.3047C32.844 37.7554 32.9446 37.2678 33.1459 36.8416C33.3495 36.4131 33.63 36.0781 33.9875 35.8366C34.3473 35.5928 34.7628 35.4709 35.2339 35.4709C35.5299 35.4709 35.8151 35.5253 36.0898 35.6342C36.3644 35.7408 36.6106 35.9053 36.8284 36.1278C37.0486 36.348 37.2226 36.6262 37.3504 36.9624C37.4782 37.2962 37.5422 37.6915 37.5422 38.1484V38.4609H33.2808V37.9034H36.8959C36.8959 37.553 36.8248 37.2382 36.6828 36.9588C36.5431 36.6771 36.3478 36.4545 36.0969 36.2912C35.8483 36.1278 35.5606 36.0462 35.2339 36.0462C34.8883 36.0462 34.5841 36.1385 34.3213 36.3232C34.0585 36.5078 33.8525 36.7517 33.7034 37.0547C33.5566 37.3577 33.482 37.6892 33.4797 38.049V38.3828C33.4797 38.8161 33.5542 39.1948 33.7034 39.5192C33.8549 39.8411 34.0692 40.0909 34.3461 40.2685C34.6231 40.446 34.951 40.5348 35.3298 40.5348C35.5879 40.5348 35.814 40.4946 36.0081 40.4141C36.2046 40.3336 36.3691 40.2259 36.5017 40.0909C36.6366 39.9536 36.7384 39.8033 36.8071 39.6399L37.4072 39.8352C37.3244 40.0649 37.1882 40.2768 36.9988 40.4709C36.8118 40.665 36.5774 40.8213 36.2957 40.9396C36.0164 41.0556 35.6944 41.1136 35.3298 41.1136ZM41.7476 41V35.5455H42.3619V36.3835H42.4188C42.5277 36.1018 42.7088 35.8804 42.9621 35.7195C43.2178 35.5561 43.5244 35.4744 43.8818 35.4744C44.2583 35.4744 44.5672 35.5632 44.8087 35.7408C45.0525 35.916 45.2348 36.1574 45.3556 36.4652H45.4017C45.5248 36.1622 45.7249 35.9219 46.0019 35.7443C46.2812 35.5644 46.6198 35.4744 47.0175 35.4744C47.5241 35.4744 47.9242 35.6342 48.2178 35.9538C48.5113 36.2711 48.6581 36.7351 48.6581 37.3459V41H48.026V37.3459C48.026 36.915 47.9159 36.5919 47.6958 36.3764C47.4756 36.161 47.1856 36.0533 46.8257 36.0533C46.4091 36.0533 46.0883 36.1811 45.8634 36.4368C45.6385 36.6925 45.526 37.0168 45.526 37.4098V41H44.8797V37.2891C44.8797 36.9197 44.7767 36.6214 44.5708 36.3942C44.3648 36.1669 44.0748 36.0533 43.7007 36.0533C43.4498 36.0533 43.2237 36.1148 43.0225 36.2379C42.8236 36.361 42.6662 36.5327 42.5502 36.7528C42.4365 36.9706 42.3797 37.2216 42.3797 37.5057V41H41.7476ZM52.4516 41.1136C51.9805 41.1136 51.5638 40.9941 51.2016 40.755C50.8418 40.5159 50.56 40.1856 50.3564 39.7642C50.1528 39.3404 50.051 38.8516 50.051 38.2976C50.051 37.7389 50.1528 37.2476 50.3564 36.8239C50.56 36.3977 50.8418 36.0663 51.2016 35.8295C51.5638 35.5904 51.9805 35.4709 52.4516 35.4709C52.9227 35.4709 53.3382 35.5904 53.6981 35.8295C54.0579 36.0687 54.3396 36.4001 54.5432 36.8239C54.7492 37.2476 54.8522 37.7389 54.8522 38.2976C54.8522 38.8516 54.7504 39.3404 54.5468 39.7642C54.3432 40.1856 54.0603 40.5159 53.6981 40.755C53.3382 40.9941 52.9227 41.1136 52.4516 41.1136ZM52.4516 40.5348C52.8304 40.5348 53.1512 40.433 53.414 40.2294C53.6768 40.0258 53.8756 39.7547 54.0106 39.4162C54.1479 39.0777 54.2165 38.7048 54.2165 38.2976C54.2165 37.8904 54.1479 37.5163 54.0106 37.1754C53.8756 36.8345 53.6768 36.5611 53.414 36.3551C53.1512 36.1491 52.8304 36.0462 52.4516 36.0462C52.0752 36.0462 51.7544 36.1491 51.4893 36.3551C51.2265 36.5611 51.0264 36.8345 50.8891 37.1754C50.7542 37.5163 50.6867 37.8904 50.6867 38.2976C50.6867 38.7048 50.7542 39.0777 50.8891 39.4162C51.0264 39.7547 51.2265 40.0258 51.4893 40.2294C51.752 40.433 52.0728 40.5348 52.4516 40.5348ZM56.2398 41V35.5455H56.8541V36.3835H56.9003C57.0092 36.1089 57.1986 35.8875 57.4685 35.7195C57.7407 35.549 58.0485 35.4638 58.3918 35.4638C58.4439 35.4638 58.5019 35.465 58.5658 35.4673C58.6297 35.4697 58.683 35.4721 58.7256 35.4744V36.1172C58.6972 36.1125 58.6475 36.1054 58.5764 36.0959C58.5054 36.0864 58.4285 36.0817 58.3456 36.0817C58.0615 36.0817 57.8082 36.142 57.5857 36.2628C57.3655 36.3812 57.1915 36.5457 57.0637 36.7564C56.9358 36.9671 56.8719 37.2074 56.8719 37.4773V41H56.2398ZM61.8435 41.1136C61.3345 41.1136 60.8941 40.9953 60.5225 40.7585C60.1508 40.5194 59.8631 40.1892 59.6595 39.7678C59.4583 39.344 59.3577 38.8563 59.3577 38.3047C59.3577 37.7554 59.4583 37.2678 59.6595 36.8416C59.8631 36.4131 60.1437 36.0781 60.5012 35.8366C60.861 35.5928 61.2765 35.4709 61.7476 35.4709C62.0435 35.4709 62.3288 35.5253 62.6034 35.6342C62.878 35.7408 63.1243 35.9053 63.3421 36.1278C63.5622 36.348 63.7362 36.6262 63.8641 36.9624C63.9919 37.2962 64.0558 37.6915 64.0558 38.1484V38.4609H59.7945V37.9034H63.4095C63.4095 37.553 63.3385 37.2382 63.1965 36.9588C63.0568 36.6771 62.8615 36.4545 62.6105 36.2912C62.3619 36.1278 62.0743 36.0462 61.7476 36.0462C61.402 36.0462 61.0977 36.1385 60.835 36.3232C60.5722 36.5078 60.3662 36.7517 60.2171 37.0547C60.0703 37.3577 59.9957 37.6892 59.9933 38.049V38.3828C59.9933 38.8161 60.0679 39.1948 60.2171 39.5192C60.3686 39.8411 60.5828 40.0909 60.8598 40.2685C61.1368 40.446 61.4647 40.5348 61.8435 40.5348C62.1015 40.5348 62.3276 40.4946 62.5218 40.4141C62.7182 40.3336 62.8828 40.2259 63.0154 40.0909C63.1503 39.9536 63.2521 39.8033 63.3208 39.6399L63.9209 39.8352C63.838 40.0649 63.7019 40.2768 63.5125 40.4709C63.3255 40.665 63.0911 40.8213 62.8094 40.9396C62.53 41.0556 62.2081 41.1136 61.8435 41.1136ZM70.392 41.1136C69.9043 41.1136 69.4793 40.9917 69.1171 40.7479C68.7573 40.504 68.4779 40.1702 68.279 39.7464C68.0802 39.3227 67.9807 38.8397 67.9807 38.2976C67.9807 37.7507 68.0814 37.2642 68.2826 36.8381C68.4862 36.4119 68.7679 36.0781 69.1278 35.8366C69.4876 35.5928 69.9055 35.4709 70.3813 35.4709C70.7459 35.4709 71.0761 35.5419 71.3721 35.6839C71.668 35.8236 71.9118 36.0213 72.1036 36.277C72.2977 36.5303 72.4197 36.8262 72.4694 37.1648H71.8302C71.7639 36.857 71.6041 36.5942 71.3508 36.3764C71.0998 36.1562 70.7802 36.0462 70.392 36.0462C70.0439 36.0462 69.7362 36.1409 69.4687 36.3303C69.2011 36.5173 68.9916 36.7789 68.8401 37.1151C68.691 37.4489 68.6164 37.8359 68.6164 38.2763C68.6164 38.719 68.6898 39.1108 68.8366 39.4517C68.9833 39.7902 69.1893 40.0554 69.4545 40.2472C69.722 40.4389 70.0345 40.5348 70.392 40.5348C70.6334 40.5348 70.8536 40.4898 71.0525 40.3999C71.2537 40.3075 71.4218 40.1773 71.5567 40.0092C71.694 39.8411 71.7864 39.6411 71.8337 39.4091H72.4729C72.4256 39.7382 72.3084 40.0317 72.1214 40.2898C71.9367 40.5455 71.6964 40.7467 71.4005 40.8935C71.1069 41.0402 70.7707 41.1136 70.392 41.1136ZM75.9477 41.1136C75.4766 41.1136 75.0599 40.9941 74.6977 40.755C74.3379 40.5159 74.0561 40.1856 73.8525 39.7642C73.6489 39.3404 73.5471 38.8516 73.5471 38.2976C73.5471 37.7389 73.6489 37.2476 73.8525 36.8239C74.0561 36.3977 74.3379 36.0663 74.6977 35.8295C75.0599 35.5904 75.4766 35.4709 75.9477 35.4709C76.4188 35.4709 76.8343 35.5904 77.1942 35.8295C77.554 36.0687 77.8357 36.4001 78.0393 36.8239C78.2453 37.2476 78.3483 37.7389 78.3483 38.2976C78.3483 38.8516 78.2465 39.3404 78.0429 39.7642C77.8393 40.1856 77.5564 40.5159 77.1942 40.755C76.8343 40.9941 76.4188 41.1136 75.9477 41.1136ZM75.9477 40.5348C76.3265 40.5348 76.6473 40.433 76.9101 40.2294C77.1729 40.0258 77.3717 39.7547 77.5067 39.4162C77.644 39.0777 77.7126 38.7048 77.7126 38.2976C77.7126 37.8904 77.644 37.5163 77.5067 37.1754C77.3717 36.8345 77.1729 36.5611 76.9101 36.3551C76.6473 36.1491 76.3265 36.0462 75.9477 36.0462C75.5713 36.0462 75.2505 36.1491 74.9854 36.3551C74.7226 36.5611 74.5225 36.8345 74.3852 37.1754C74.2503 37.5163 74.1828 37.8904 74.1828 38.2976C74.1828 38.7048 74.2503 39.0777 74.3852 39.4162C74.5225 39.7547 74.7226 40.0258 74.9854 40.2294C75.2481 40.433 75.5689 40.5348 75.9477 40.5348ZM83.2018 38.9155V35.5455H83.8339V41H83.2018V40.0945H83.1521C83.0242 40.3738 82.8218 40.607 82.5448 40.794C82.2678 40.9787 81.9293 41.071 81.5292 41.071C81.1812 41.071 80.8722 40.9953 80.6024 40.8438C80.3325 40.6899 80.1206 40.465 79.9667 40.169C79.8128 39.8731 79.7359 39.5097 79.7359 39.0788V35.5455H80.368V39.0398C80.368 39.4659 80.4935 39.8092 80.7444 40.0696C80.9954 40.3277 81.3173 40.4567 81.7103 40.4567C81.9565 40.4567 82.1933 40.3975 82.4205 40.2791C82.6478 40.1607 82.8348 39.9879 82.9816 39.7607C83.1284 39.531 83.2018 39.2493 83.2018 38.9155ZM85.5074 41V35.5455H86.1217V36.3835H86.1679C86.2768 36.1089 86.4662 35.8875 86.7361 35.7195C87.0083 35.549 87.3161 35.4638 87.6594 35.4638C87.7114 35.4638 87.7694 35.465 87.8334 35.4673C87.8973 35.4697 87.9506 35.4721 87.9932 35.4744V36.1172C87.9648 36.1125 87.915 36.1054 87.844 36.0959C87.773 36.0864 87.6961 36.0817 87.6132 36.0817C87.3291 36.0817 87.0758 36.142 86.8532 36.2628C86.6331 36.3812 86.4591 36.5457 86.3312 36.7564C86.2034 36.9671 86.1395 37.2074 86.1395 37.4773V41H85.5074ZM92.7366 36.7422L92.1578 36.9055C92.1009 36.7422 92.0204 36.5942 91.9163 36.4616C91.8121 36.3291 91.676 36.2237 91.5079 36.1456C91.3422 36.0675 91.1362 36.0284 90.89 36.0284C90.5207 36.0284 90.2177 36.116 89.9809 36.2912C89.7442 36.4664 89.6258 36.6925 89.6258 36.9695C89.6258 37.2038 89.7063 37.3944 89.8673 37.5412C90.0306 37.6856 90.2816 37.8004 90.6201 37.8857L91.444 38.0881C91.9009 38.1993 92.243 38.3757 92.4703 38.6172C92.6999 38.8587 92.8147 39.1617 92.8147 39.5263C92.8147 39.834 92.7295 40.1075 92.559 40.3466C92.3886 40.5857 92.1507 40.7739 91.8453 40.9112C91.5422 41.0462 91.1907 41.1136 90.7906 41.1136C90.2579 41.1136 89.8187 40.9941 89.4731 40.755C89.1275 40.5135 88.9061 40.1655 88.809 39.7109L89.4163 39.5618C89.4944 39.8861 89.6471 40.1312 89.8744 40.2969C90.104 40.4626 90.4059 40.5455 90.7799 40.5455C91.199 40.5455 91.5339 40.4519 91.7849 40.2649C92.0358 40.0755 92.1613 39.8388 92.1613 39.5547C92.1613 39.3345 92.0879 39.1499 91.9411 39.0007C91.7944 38.8492 91.5718 38.7379 91.2735 38.6669L90.3822 38.4538C89.9087 38.3402 89.5583 38.1603 89.3311 37.9141C89.1038 37.6679 88.9901 37.3625 88.9901 36.9979C88.9901 36.6972 89.0718 36.4332 89.2352 36.206C89.3985 35.9763 89.6234 35.7964 89.9099 35.6662C90.1963 35.536 90.5231 35.4709 90.89 35.4709C91.3895 35.4709 91.7884 35.5845 92.0867 35.8118C92.3874 36.0367 92.604 36.3468 92.7366 36.7422ZM96.404 41.1136C95.895 41.1136 95.4547 40.9953 95.083 40.7585C94.7113 40.5194 94.4237 40.1892 94.2201 39.7678C94.0189 39.344 93.9182 38.8563 93.9182 38.3047C93.9182 37.7554 94.0189 37.2678 94.2201 36.8416C94.4237 36.4131 94.7042 36.0781 95.0617 35.8366C95.4215 35.5928 95.837 35.4709 96.3081 35.4709C96.6041 35.4709 96.8894 35.5253 97.164 35.6342C97.4386 35.7408 97.6848 35.9053 97.9026 36.1278C98.1228 36.348 98.2968 36.6262 98.4246 36.9624C98.5525 37.2962 98.6164 37.6915 98.6164 38.1484V38.4609H94.355V37.9034H97.9701C97.9701 37.553 97.8991 37.2382 97.757 36.9588C97.6173 36.6771 97.422 36.4545 97.1711 36.2912C96.9225 36.1278 96.6349 36.0462 96.3081 36.0462C95.9625 36.0462 95.6583 36.1385 95.3955 36.3232C95.1327 36.5078 94.9268 36.7517 94.7776 37.0547C94.6308 37.3577 94.5563 37.6892 94.5539 38.049V38.3828C94.5539 38.8161 94.6285 39.1948 94.7776 39.5192C94.9291 39.8411 95.1434 40.0909 95.4204 40.2685C95.6974 40.446 96.0252 40.5348 96.404 40.5348C96.6621 40.5348 96.8882 40.4946 97.0823 40.4141C97.2788 40.3336 97.4433 40.2259 97.5759 40.0909C97.7108 39.9536 97.8126 39.8033 97.8813 39.6399L98.4814 39.8352C98.3986 40.0649 98.2625 40.2768 98.0731 40.4709C97.886 40.665 97.6517 40.8213 97.3699 40.9396C97.0906 41.0556 96.7686 41.1136 96.404 41.1136ZM19.6018 48.7422L19.023 48.9055C18.9662 48.7422 18.8857 48.5942 18.7815 48.4616C18.6773 48.3291 18.5412 48.2237 18.3731 48.1456C18.2074 48.0675 18.0015 48.0284 17.7552 48.0284C17.3859 48.0284 17.0829 48.116 16.8461 48.2912C16.6094 48.4664 16.491 48.6925 16.491 48.9695C16.491 49.2038 16.5715 49.3944 16.7325 49.5412C16.8959 49.6856 17.1468 49.8004 17.4854 49.8857L18.3092 50.0881C18.7661 50.1993 19.1082 50.3757 19.3355 50.6172C19.5651 50.8587 19.68 51.1617 19.68 51.5263C19.68 51.834 19.5947 52.1075 19.4243 52.3466C19.2538 52.5857 19.0159 52.7739 18.7105 52.9112C18.4075 53.0462 18.0559 53.1136 17.6558 53.1136C17.1231 53.1136 16.684 52.9941 16.3383 52.755C15.9927 52.5135 15.7713 52.1655 15.6743 51.7109L16.2815 51.5618C16.3596 51.8861 16.5123 52.1312 16.7396 52.2969C16.9693 52.4626 17.2711 52.5455 17.6452 52.5455C18.0642 52.5455 18.3992 52.4519 18.6501 52.2649C18.9011 52.0755 19.0265 51.8388 19.0265 51.5547C19.0265 51.3345 18.9532 51.1499 18.8064 51.0007C18.6596 50.8492 18.4371 50.7379 18.1388 50.6669L17.2474 50.4538C16.7739 50.3402 16.4236 50.1603 16.1963 49.9141C15.969 49.6679 15.8554 49.3625 15.8554 48.9979C15.8554 48.6972 15.9371 48.4332 16.1004 48.206C16.2638 47.9763 16.4887 47.7964 16.7751 47.6662C17.0616 47.536 17.3883 47.4709 17.7552 47.4709C18.2548 47.4709 18.6537 47.5845 18.952 47.8118C19.2526 48.0367 19.4693 48.3468 19.6018 48.7422ZM21.064 55.0455V47.5455H21.6784V48.5859H21.7529C21.8287 48.4226 21.9329 48.2557 22.0654 48.0852C22.198 47.9124 22.3732 47.7668 22.591 47.6484C22.8112 47.5301 23.0882 47.4709 23.422 47.4709C23.8718 47.4709 24.2648 47.5893 24.6009 47.826C24.9395 48.0604 25.2023 48.3894 25.3893 48.8132C25.5787 49.2346 25.6734 49.7259 25.6734 50.2869C25.6734 50.8504 25.5787 51.344 25.3893 51.7678C25.2023 52.1915 24.9395 52.5218 24.6009 52.7585C24.2648 52.9953 23.8741 53.1136 23.4291 53.1136C23.1 53.1136 22.8242 53.0545 22.6017 52.9361C22.3815 52.8177 22.2027 52.6721 22.0654 52.4993C21.9305 52.3241 21.8263 52.1536 21.7529 51.9879H21.6961V55.0455H21.064ZM21.689 50.2763C21.689 50.7166 21.7541 51.1072 21.8843 51.4482C22.0169 51.7867 22.2063 52.053 22.4525 52.2472C22.7011 52.4389 23.0017 52.5348 23.3545 52.5348C23.7167 52.5348 24.0221 52.4354 24.2707 52.2365C24.5216 52.0353 24.7122 51.7642 24.8424 51.4233C24.975 51.0824 25.0413 50.7 25.0413 50.2763C25.0413 49.8572 24.9762 49.4796 24.846 49.1435C24.7181 48.8073 24.5287 48.541 24.2778 48.3445C24.0268 48.1456 23.7191 48.0462 23.3545 48.0462C22.9994 48.0462 22.6975 48.142 22.449 48.3338C22.2004 48.5232 22.011 48.786 21.8808 49.1222C21.7529 49.456 21.689 49.8407 21.689 50.2763ZM29.2654 53.1136C28.7564 53.1136 28.316 52.9953 27.9443 52.7585C27.5727 52.5194 27.285 52.1892 27.0814 51.7678C26.8802 51.344 26.7796 50.8563 26.7796 50.3047C26.7796 49.7554 26.8802 49.2678 27.0814 48.8416C27.285 48.4131 27.5655 48.0781 27.923 47.8366C28.2829 47.5928 28.6984 47.4709 29.1695 47.4709C29.4654 47.4709 29.7507 47.5253 30.0253 47.6342C30.2999 47.7408 30.5461 47.9053 30.7639 48.1278C30.9841 48.348 31.1581 48.6262 31.286 48.9624C31.4138 49.2962 31.4777 49.6915 31.4777 50.1484V50.4609H27.2164V49.9034H30.8314C30.8314 49.553 30.7604 49.2382 30.6183 48.9588C30.4787 48.6771 30.2834 48.4545 30.0324 48.2912C29.7838 48.1278 29.4962 48.0462 29.1695 48.0462C28.8238 48.0462 28.5196 48.1385 28.2568 48.3232C27.9941 48.5078 27.7881 48.7517 27.6389 49.0547C27.4922 49.3577 27.4176 49.6892 27.4152 50.049V50.3828C27.4152 50.8161 27.4898 51.1948 27.6389 51.5192C27.7905 51.8411 28.0047 52.0909 28.2817 52.2685C28.5587 52.446 28.8866 52.5348 29.2654 52.5348C29.5234 52.5348 29.7495 52.4946 29.9436 52.4141C30.1401 52.3336 30.3047 52.2259 30.4372 52.0909C30.5722 51.9536 30.674 51.8033 30.7426 51.6399L31.3428 51.8352C31.2599 52.0649 31.1238 52.2768 30.9344 52.4709C30.7474 52.665 30.513 52.8213 30.2313 52.9396C29.9519 53.0556 29.6299 53.1136 29.2654 53.1136ZM35.0013 53.1136C34.5136 53.1136 34.0887 52.9917 33.7265 52.7479C33.3666 52.504 33.0873 52.1702 32.8884 51.7464C32.6895 51.3227 32.5901 50.8397 32.5901 50.2976C32.5901 49.7507 32.6907 49.2642 32.892 48.8381C33.0956 48.4119 33.3773 48.0781 33.7371 47.8366C34.097 47.5928 34.5148 47.4709 34.9907 47.4709C35.3553 47.4709 35.6855 47.5419 35.9814 47.6839C36.2774 47.8236 36.5212 48.0213 36.713 48.277C36.9071 48.5303 37.029 48.8262 37.0787 49.1648H36.4395C36.3733 48.857 36.2135 48.5942 35.9601 48.3764C35.7092 48.1562 35.3896 48.0462 35.0013 48.0462C34.6533 48.0462 34.3456 48.1409 34.078 48.3303C33.8105 48.5173 33.601 48.7789 33.4495 49.1151C33.3003 49.4489 33.2258 49.8359 33.2258 50.2763C33.2258 50.719 33.2992 51.1108 33.4459 51.4517C33.5927 51.7902 33.7987 52.0554 34.0638 52.2472C34.3314 52.4389 34.6439 52.5348 35.0013 52.5348C35.2428 52.5348 35.463 52.4898 35.6618 52.3999C35.8631 52.3075 36.0312 52.1773 36.1661 52.0092C36.3034 51.8411 36.3957 51.6411 36.4431 51.4091H37.0823C37.0349 51.7382 36.9178 52.0317 36.7307 52.2898C36.5461 52.5455 36.3058 52.7467 36.0099 52.8935C35.7163 53.0402 35.3801 53.1136 35.0013 53.1136ZM38.4442 53V47.5455H39.0798V53H38.4442ZM38.7673 46.608C38.6371 46.608 38.5258 46.5642 38.4335 46.4766C38.3412 46.3866 38.295 46.2789 38.295 46.1534C38.295 46.0279 38.3412 45.9214 38.4335 45.8338C38.5258 45.7438 38.6371 45.6989 38.7673 45.6989C38.8975 45.6989 39.0088 45.7438 39.1011 45.8338C39.1934 45.9214 39.2396 46.0279 39.2396 46.1534C39.2396 46.2789 39.1934 46.3866 39.1011 46.4766C39.0088 46.5642 38.8975 46.608 38.7673 46.608ZM42.9958 47.5455V48.0959H40.3147V47.5455H42.9958ZM41.1528 53V46.7464C41.1528 46.4529 41.2203 46.2055 41.3552 46.0043C41.4925 45.803 41.6713 45.6503 41.8914 45.5462C42.1116 45.442 42.3448 45.3899 42.591 45.3899C42.7567 45.3899 42.894 45.4041 43.0029 45.4325C43.1142 45.4586 43.2018 45.4846 43.2657 45.5107L43.0811 46.0646C43.0337 46.0504 42.9757 46.0339 42.907 46.0149C42.8384 45.996 42.752 45.9865 42.6478 45.9865C42.3732 45.9865 42.1613 46.0634 42.0122 46.2173C41.863 46.3712 41.7884 46.5914 41.7884 46.8778L41.7849 53H41.1528ZM44.2645 53V47.5455H44.9001V53H44.2645ZM44.5876 46.608C44.4574 46.608 44.3461 46.5642 44.2538 46.4766C44.1615 46.3866 44.1153 46.2789 44.1153 46.1534C44.1153 46.0279 44.1615 45.9214 44.2538 45.8338C44.3461 45.7438 44.4574 45.6989 44.5876 45.6989C44.7178 45.6989 44.8291 45.7438 44.9214 45.8338C45.0138 45.9214 45.0599 46.0279 45.0599 46.1534C45.0599 46.2789 45.0138 46.3866 44.9214 46.4766C44.8291 46.5642 44.7178 46.608 44.5876 46.608ZM48.7025 53.1136C48.2148 53.1136 47.7899 52.9917 47.4276 52.7479C47.0678 52.504 46.7884 52.1702 46.5896 51.7464C46.3907 51.3227 46.2913 50.8397 46.2913 50.2976C46.2913 49.7507 46.3919 49.2642 46.5931 48.8381C46.7967 48.4119 47.0785 48.0781 47.4383 47.8366C47.7981 47.5928 48.216 47.4709 48.6919 47.4709C49.0564 47.4709 49.3867 47.5419 49.6826 47.6839C49.9785 47.8236 50.2224 48.0213 50.4142 48.277C50.6083 48.5303 50.7302 48.8262 50.7799 49.1648H50.1407C50.0744 48.857 49.9146 48.5942 49.6613 48.3764C49.4104 48.1562 49.0908 48.0462 48.7025 48.0462C48.3545 48.0462 48.0467 48.1409 47.7792 48.3303C47.5117 48.5173 47.3022 48.7789 47.1507 49.1151C47.0015 49.4489 46.9269 49.8359 46.9269 50.2763C46.9269 50.719 47.0003 51.1108 47.1471 51.4517C47.2939 51.7902 47.4999 52.0554 47.765 52.2472C48.0325 52.4389 48.345 52.5348 48.7025 52.5348C48.944 52.5348 49.1642 52.4898 49.363 52.3999C49.5642 52.3075 49.7323 52.1773 49.8673 52.0092C50.0046 51.8411 50.0969 51.6411 50.1443 51.4091H50.7835C50.7361 51.7382 50.6189 52.0317 50.4319 52.2898C50.2472 52.5455 50.007 52.7467 49.711 52.8935C49.4175 53.0402 49.0813 53.1136 48.7025 53.1136ZM53.6617 53.1243C53.3326 53.1243 53.0319 53.0604 52.7597 52.9325C52.4874 52.8023 52.2708 52.6153 52.1098 52.3714C51.9488 52.1252 51.8683 51.8269 51.8683 51.4766C51.8683 51.2067 51.9192 50.9794 52.021 50.7947C52.1228 50.6101 52.2673 50.4586 52.4543 50.3402C52.6413 50.2218 52.8627 50.1283 53.1183 50.0597C53.374 49.991 53.6557 49.9377 53.9635 49.8999C54.2689 49.862 54.527 49.8288 54.7377 49.8004C54.9507 49.772 55.1129 49.727 55.2242 49.6655C55.3354 49.6039 55.3911 49.5045 55.3911 49.3672V49.2393C55.3911 48.8677 55.2798 48.5753 55.0573 48.3622C54.8371 48.1468 54.5199 48.0391 54.1056 48.0391C53.7126 48.0391 53.3918 48.1255 53.1432 48.2983C52.897 48.4711 52.7242 48.6747 52.6247 48.9091L52.0246 48.6925C52.1477 48.3942 52.3182 48.1562 52.536 47.9787C52.7538 47.7988 52.9976 47.6697 53.2675 47.5916C53.5374 47.5111 53.8108 47.4709 54.0878 47.4709C54.2961 47.4709 54.5128 47.4981 54.7377 47.5526C54.9649 47.607 55.1756 47.7017 55.3698 47.8366C55.5639 47.9692 55.7213 48.1551 55.8421 48.3942C55.9628 48.6309 56.0232 48.9316 56.0232 49.2962V53H55.3911V52.1371H55.352C55.2762 52.2981 55.1638 52.4543 55.0146 52.6058C54.8655 52.7573 54.6785 52.8816 54.4536 52.9787C54.2287 53.0758 53.9647 53.1243 53.6617 53.1243ZM53.7469 52.5455C54.0831 52.5455 54.3743 52.4709 54.6205 52.3217C54.8667 52.1726 55.0561 51.9749 55.1887 51.7287C55.3236 51.4801 55.3911 51.2067 55.3911 50.9084V50.12C55.3437 50.165 55.2644 50.2053 55.1531 50.2408C55.0442 50.2763 54.9176 50.3082 54.7732 50.3366C54.6311 50.3627 54.4891 50.3852 54.347 50.4041C54.205 50.4231 54.0771 50.4396 53.9635 50.4538C53.6557 50.4917 53.393 50.5509 53.1752 50.6314C52.9574 50.7119 52.7905 50.8232 52.6744 50.9652C52.5584 51.1049 52.5004 51.2848 52.5004 51.505C52.5004 51.8364 52.6188 52.0933 52.8556 52.2756C53.0923 52.4555 53.3894 52.5455 53.7469 52.5455ZM59.8531 47.5455V48.0959H57.2501V47.5455H59.8531ZM58.0633 46.2386H58.699V51.576C58.699 51.8033 58.738 51.982 58.8161 52.1122C58.8943 52.2401 58.9961 52.3312 59.1215 52.3857C59.247 52.4377 59.3808 52.4638 59.5228 52.4638C59.6057 52.4638 59.6767 52.459 59.7359 52.4496C59.7951 52.4377 59.8472 52.4259 59.8921 52.4141L60.0271 52.9858C59.9655 53.0095 59.8898 53.0308 59.7998 53.0497C59.7098 53.071 59.5986 53.0817 59.466 53.0817C59.234 53.0817 59.0103 53.0308 58.7948 52.929C58.5818 52.8272 58.4066 52.6757 58.2693 52.4744C58.132 52.2732 58.0633 52.0234 58.0633 51.7251V46.2386ZM61.2957 53V47.5455H61.9314V53H61.2957ZM61.6189 46.608C61.4887 46.608 61.3774 46.5642 61.2851 46.4766C61.1927 46.3866 61.1466 46.2789 61.1466 46.1534C61.1466 46.0279 61.1927 45.9214 61.2851 45.8338C61.3774 45.7438 61.4887 45.6989 61.6189 45.6989C61.7491 45.6989 61.8604 45.7438 61.9527 45.8338C62.045 45.9214 62.0912 46.0279 62.0912 46.1534C62.0912 46.2789 62.045 46.3866 61.9527 46.4766C61.8604 46.5642 61.7491 46.608 61.6189 46.608ZM65.7231 53.1136C65.252 53.1136 64.8353 52.9941 64.4731 52.755C64.1133 52.5159 63.8315 52.1856 63.6279 51.7642C63.4243 51.3404 63.3225 50.8516 63.3225 50.2976C63.3225 49.7389 63.4243 49.2476 63.6279 48.8239C63.8315 48.3977 64.1133 48.0663 64.4731 47.8295C64.8353 47.5904 65.252 47.4709 65.7231 47.4709C66.1942 47.4709 66.6097 47.5904 66.9695 47.8295C67.3294 48.0687 67.6111 48.4001 67.8147 48.8239C68.0207 49.2476 68.1237 49.7389 68.1237 50.2976C68.1237 50.8516 68.0219 51.3404 67.8183 51.7642C67.6147 52.1856 67.3318 52.5159 66.9695 52.755C66.6097 52.9941 66.1942 53.1136 65.7231 53.1136ZM65.7231 52.5348C66.1019 52.5348 66.4227 52.433 66.6855 52.2294C66.9482 52.0258 67.1471 51.7547 67.282 51.4162C67.4194 51.0777 67.488 50.7048 67.488 50.2976C67.488 49.8904 67.4194 49.5163 67.282 49.1754C67.1471 48.8345 66.9482 48.5611 66.6855 48.3551C66.4227 48.1491 66.1019 48.0462 65.7231 48.0462C65.3467 48.0462 65.0259 48.1491 64.7607 48.3551C64.498 48.5611 64.2979 48.8345 64.1606 49.1754C64.0257 49.5163 63.9582 49.8904 63.9582 50.2976C63.9582 50.7048 64.0257 51.0777 64.1606 51.4162C64.2979 51.7547 64.498 52.0258 64.7607 52.2294C65.0235 52.433 65.3443 52.5348 65.7231 52.5348ZM70.1434 49.5909V53H69.5113V47.5455H70.1256V48.4013H70.1824C70.3103 48.1219 70.5091 47.8982 70.779 47.7301C71.0513 47.5597 71.3875 47.4744 71.7876 47.4744C72.1545 47.4744 72.4765 47.5514 72.7535 47.7053C73.0328 47.8568 73.2494 48.0805 73.4033 48.3764C73.5596 48.6723 73.6377 49.0357 73.6377 49.4666V53H73.0056V49.5057C73.0056 49.0582 72.8801 48.7043 72.6292 48.4439C72.3806 48.1835 72.0468 48.0533 71.6278 48.0533C71.3413 48.0533 71.0868 48.1148 70.8643 48.2379C70.6417 48.361 70.4653 48.5386 70.3351 48.7706C70.2073 49.0002 70.1434 49.2737 70.1434 49.5909ZM78.9671 48.7422L78.3882 48.9055C78.3314 48.7422 78.2509 48.5942 78.1468 48.4616C78.0426 48.3291 77.9065 48.2237 77.7384 48.1456C77.5727 48.0675 77.3667 48.0284 77.1205 48.0284C76.7512 48.0284 76.4481 48.116 76.2114 48.2912C75.9746 48.4664 75.8563 48.6925 75.8563 48.9695C75.8563 49.2038 75.9368 49.3944 76.0977 49.5412C76.2611 49.6856 76.512 49.8004 76.8506 49.8857L77.6744 50.0881C78.1314 50.1993 78.4735 50.3757 78.7007 50.6172C78.9304 50.8587 79.0452 51.1617 79.0452 51.5263C79.0452 51.834 78.96 52.1075 78.7895 52.3466C78.6191 52.5857 78.3811 52.7739 78.0757 52.9112C77.7727 53.0462 77.4211 53.1136 77.021 53.1136C76.4884 53.1136 76.0492 52.9941 75.7036 52.755C75.3579 52.5135 75.1366 52.1655 75.0395 51.7109L75.6468 51.5618C75.7249 51.8861 75.8776 52.1312 76.1048 52.2969C76.3345 52.4626 76.6363 52.5455 77.0104 52.5455C77.4294 52.5455 77.7644 52.4519 78.0154 52.2649C78.2663 52.0755 78.3918 51.8388 78.3918 51.5547C78.3918 51.3345 78.3184 51.1499 78.1716 51.0007C78.0248 50.8492 77.8023 50.7379 77.504 50.6669L76.6127 50.4538C76.1392 50.3402 75.7888 50.1603 75.5615 49.9141C75.3343 49.6679 75.2206 49.3625 75.2206 48.9979C75.2206 48.6972 75.3023 48.4332 75.4656 48.206C75.629 47.9763 75.8539 47.7964 76.1404 47.6662C76.4268 47.536 76.7535 47.4709 77.1205 47.4709C77.62 47.4709 78.0189 47.5845 78.3172 47.8118C78.6179 48.0367 78.8345 48.3468 78.9671 48.7422ZM84.7652 53.1243C84.4361 53.1243 84.1354 53.0604 83.8632 52.9325C83.5909 52.8023 83.3743 52.6153 83.2133 52.3714C83.0523 52.1252 82.9719 51.8269 82.9719 51.4766C82.9719 51.2067 83.0228 50.9794 83.1246 50.7947C83.2264 50.6101 83.3708 50.4586 83.5578 50.3402C83.7448 50.2218 83.9662 50.1283 84.2219 50.0597C84.4775 49.991 84.7593 49.9377 85.067 49.8999C85.3724 49.862 85.6305 49.8288 85.8412 49.8004C86.0542 49.772 86.2164 49.727 86.3277 49.6655C86.439 49.6039 86.4946 49.5045 86.4946 49.3672V49.2393C86.4946 48.8677 86.3833 48.5753 86.1608 48.3622C85.9406 48.1468 85.6234 48.0391 85.2091 48.0391C84.8161 48.0391 84.4953 48.1255 84.2467 48.2983C84.0005 48.4711 83.8277 48.6747 83.7282 48.9091L83.1281 48.6925C83.2512 48.3942 83.4217 48.1562 83.6395 47.9787C83.8573 47.7988 84.1011 47.6697 84.371 47.5916C84.6409 47.5111 84.9143 47.4709 85.1913 47.4709C85.3997 47.4709 85.6163 47.4981 85.8412 47.5526C86.0684 47.607 86.2791 47.7017 86.4733 47.8366C86.6674 47.9692 86.8248 48.1551 86.9456 48.3942C87.0663 48.6309 87.1267 48.9316 87.1267 49.2962V53H86.4946V52.1371H86.4555C86.3798 52.2981 86.2673 52.4543 86.1182 52.6058C85.969 52.7573 85.782 52.8816 85.5571 52.9787C85.3322 53.0758 85.0682 53.1243 84.7652 53.1243ZM84.8504 52.5455C85.1866 52.5455 85.4778 52.4709 85.724 52.3217C85.9702 52.1726 86.1596 51.9749 86.2922 51.7287C86.4271 51.4801 86.4946 51.2067 86.4946 50.9084V50.12C86.4472 50.165 86.3679 50.2053 86.2567 50.2408C86.1478 50.2763 86.0211 50.3082 85.8767 50.3366C85.7346 50.3627 85.5926 50.3852 85.4506 50.4041C85.3085 50.4231 85.1807 50.4396 85.067 50.4538C84.7593 50.4917 84.4965 50.5509 84.2787 50.6314C84.0609 50.7119 83.894 50.8232 83.778 50.9652C83.662 51.1049 83.604 51.2848 83.604 51.505C83.604 51.8364 83.7223 52.0933 83.9591 52.2756C84.1958 52.4555 84.4929 52.5455 84.8504 52.5455ZM89.4403 49.5909V53H88.8081V47.5455H89.4225V48.4013H89.4793C89.6072 48.1219 89.806 47.8982 90.0759 47.7301C90.3482 47.5597 90.6843 47.4744 91.0844 47.4744C91.4514 47.4744 91.7733 47.5514 92.0503 47.7053C92.3297 47.8568 92.5463 48.0805 92.7002 48.3764C92.8564 48.6723 92.9346 49.0357 92.9346 49.4666V53H92.3025V49.5057C92.3025 49.0582 92.177 48.7043 91.926 48.4439C91.6775 48.1835 91.3437 48.0533 90.9246 48.0533C90.6382 48.0533 90.3837 48.1148 90.1611 48.2379C89.9386 48.361 89.7622 48.5386 89.632 48.7706C89.5042 49.0002 89.4403 49.2737 89.4403 49.5909ZM96.5629 53.1136C96.1155 53.1136 95.7237 52.9953 95.3875 52.7585C95.0513 52.5218 94.7886 52.1915 94.5992 51.7678C94.4121 51.344 94.3186 50.8504 94.3186 50.2869C94.3186 49.7259 94.4121 49.2346 94.5992 48.8132C94.7886 48.3894 95.0525 48.0604 95.3911 47.826C95.7296 47.5893 96.1238 47.4709 96.5736 47.4709C96.905 47.4709 97.1808 47.5301 97.401 47.6484C97.6212 47.7644 97.7976 47.9089 97.9301 48.0817C98.0627 48.2545 98.1657 48.4226 98.2391 48.5859H98.2959V45.7273H98.9316V53H98.3137V51.9879H98.2391C98.1657 52.1536 98.0615 52.3241 97.9266 52.4993C97.7916 52.6721 97.6129 52.8177 97.3904 52.9361C97.1702 53.0545 96.8944 53.1136 96.5629 53.1136ZM96.6375 52.5348C96.9903 52.5348 97.2909 52.4389 97.5395 52.2472C97.7881 52.053 97.9775 51.7867 98.1077 51.4482C98.2403 51.1072 98.3066 50.7166 98.3066 50.2763C98.3066 49.8407 98.2414 49.456 98.1112 49.1222C97.981 48.786 97.7916 48.5232 97.5431 48.3338C97.2945 48.142 96.9926 48.0462 96.6375 48.0462C96.2729 48.0462 95.9652 48.1456 95.7142 48.3445C95.4656 48.541 95.2762 48.8073 95.146 49.1435C95.0182 49.4796 94.9543 49.8572 94.9543 50.2763C94.9543 50.7 95.0194 51.0824 95.1496 51.4233C95.2798 51.7642 95.4692 52.0353 95.7178 52.2365C95.9687 52.4354 96.2753 52.5348 96.6375 52.5348ZM33.5161 65.1136C33.0686 65.1136 32.6768 64.9953 32.3406 64.7585C32.0045 64.5218 31.7417 64.1915 31.5523 63.7678C31.3653 63.344 31.2718 62.8504 31.2718 62.2869C31.2718 61.7259 31.3653 61.2346 31.5523 60.8132C31.7417 60.3894 32.0057 60.0604 32.3442 59.826C32.6827 59.5893 33.0769 59.4709 33.5267 59.4709C33.8582 59.4709 34.134 59.5301 34.3541 59.6484C34.5743 59.7644 34.7507 59.9089 34.8833 60.0817C35.0158 60.2545 35.1188 60.4226 35.1922 60.5859H35.249V57.7273H35.8847V65H35.2668V63.9879H35.1922C35.1188 64.1536 35.0146 64.3241 34.8797 64.4993C34.7448 64.6721 34.566 64.8177 34.3435 64.9361C34.1233 65.0545 33.8475 65.1136 33.5161 65.1136ZM33.5906 64.5348C33.9434 64.5348 34.2441 64.4389 34.4926 64.2472C34.7412 64.053 34.9306 63.7867 35.0608 63.4482C35.1934 63.1072 35.2597 62.7166 35.2597 62.2763C35.2597 61.8407 35.1946 61.456 35.0644 61.1222C34.9342 60.786 34.7448 60.5232 34.4962 60.3338C34.2476 60.142 33.9458 60.0462 33.5906 60.0462C33.2261 60.0462 32.9183 60.1456 32.6673 60.3445C32.4188 60.541 32.2294 60.8073 32.0992 61.1435C31.9713 61.4796 31.9074 61.8572 31.9074 62.2763C31.9074 62.7 31.9725 63.0824 32.1027 63.4233C32.2329 63.7642 32.4223 64.0353 32.6709 64.2365C32.9218 64.4354 33.2284 64.5348 33.5906 64.5348ZM39.8904 65.1136C39.3814 65.1136 38.941 64.9953 38.5693 64.7585C38.1977 64.5194 37.91 64.1892 37.7064 63.7678C37.5052 63.344 37.4046 62.8563 37.4046 62.3047C37.4046 61.7554 37.5052 61.2678 37.7064 60.8416C37.91 60.4131 38.1905 60.0781 38.548 59.8366C38.9079 59.5928 39.3234 59.4709 39.7945 59.4709C40.0904 59.4709 40.3757 59.5253 40.6503 59.6342C40.9249 59.7408 41.1711 59.9053 41.3889 60.1278C41.6091 60.348 41.7831 60.6262 41.911 60.9624C42.0388 61.2962 42.1027 61.6915 42.1027 62.1484V62.4609H37.8414V61.9034H41.4564C41.4564 61.553 41.3854 61.2382 41.2433 60.9588C41.1037 60.6771 40.9084 60.4545 40.6574 60.2912C40.4088 60.1278 40.1212 60.0462 39.7945 60.0462C39.4488 60.0462 39.1446 60.1385 38.8818 60.3232C38.6191 60.5078 38.4131 60.7517 38.2639 61.0547C38.1172 61.3577 38.0426 61.6892 38.0402 62.049V62.3828C38.0402 62.8161 38.1148 63.1948 38.2639 63.5192C38.4155 63.8411 38.6297 64.0909 38.9067 64.2685C39.1837 64.446 39.5116 64.5348 39.8904 64.5348C40.1484 64.5348 40.3745 64.4946 40.5686 64.4141C40.7651 64.3336 40.9297 64.2259 41.0622 64.0909C41.1972 63.9536 41.299 63.8033 41.3676 63.6399L41.9678 63.8352C41.8849 64.0649 41.7488 64.2768 41.5594 64.4709C41.3724 64.665 41.138 64.8213 40.8563 64.9396C40.5769 65.0556 40.2549 65.1136 39.8904 65.1136ZM45.6441 59.5455V60.0959H43.0411V59.5455H45.6441ZM43.8543 58.2386H44.49V63.576C44.49 63.8033 44.529 63.982 44.6072 64.1122C44.6853 64.2401 44.7871 64.3312 44.9126 64.3857C45.038 64.4377 45.1718 64.4638 45.3138 64.4638C45.3967 64.4638 45.4677 64.459 45.5269 64.4496C45.5861 64.4377 45.6382 64.4259 45.6831 64.4141L45.8181 64.9858C45.7565 65.0095 45.6808 65.0308 45.5908 65.0497C45.5009 65.071 45.3896 65.0817 45.257 65.0817C45.025 65.0817 44.8013 65.0308 44.5858 64.929C44.3728 64.8272 44.1976 64.6757 44.0603 64.4744C43.923 64.2732 43.8543 64.0234 43.8543 63.7251V58.2386ZM48.6031 65.1243C48.274 65.1243 47.9733 65.0604 47.7011 64.9325C47.4288 64.8023 47.2122 64.6153 47.0512 64.3714C46.8902 64.1252 46.8097 63.8269 46.8097 63.4766C46.8097 63.2067 46.8606 62.9794 46.9624 62.7947C47.0642 62.6101 47.2087 62.4586 47.3957 62.3402C47.5827 62.2218 47.8041 62.1283 48.0597 62.0597C48.3154 61.991 48.5972 61.9377 48.9049 61.8999C49.2103 61.862 49.4684 61.8288 49.6791 61.8004C49.8921 61.772 50.0543 61.727 50.1656 61.6655C50.2768 61.6039 50.3325 61.5045 50.3325 61.3672V61.2393C50.3325 60.8677 50.2212 60.5753 49.9987 60.3622C49.7785 60.1468 49.4613 60.0391 49.047 60.0391C48.654 60.0391 48.3332 60.1255 48.0846 60.2983C47.8384 60.4711 47.6656 60.6747 47.5661 60.9091L46.966 60.6925C47.0891 60.3942 47.2596 60.1562 47.4774 59.9787C47.6952 59.7988 47.939 59.6697 48.2089 59.5916C48.4788 59.5111 48.7522 59.4709 49.0292 59.4709C49.2375 59.4709 49.4542 59.4981 49.6791 59.5526C49.9063 59.607 50.117 59.7017 50.3112 59.8366C50.5053 59.9692 50.6627 60.1551 50.7835 60.3942C50.9042 60.6309 50.9646 60.9316 50.9646 61.2962V65H50.3325V64.1371H50.2934C50.2177 64.2981 50.1052 64.4543 49.9561 64.6058C49.8069 64.7573 49.6199 64.8816 49.395 64.9787C49.1701 65.0758 48.9061 65.1243 48.6031 65.1243ZM48.6883 64.5455C49.0245 64.5455 49.3157 64.4709 49.5619 64.3217C49.8081 64.1726 49.9975 63.9749 50.1301 63.7287C50.265 63.4801 50.3325 63.2067 50.3325 62.9084V62.12C50.2851 62.165 50.2058 62.2053 50.0945 62.2408C49.9856 62.2763 49.859 62.3082 49.7146 62.3366C49.5725 62.3627 49.4305 62.3852 49.2884 62.4041C49.1464 62.4231 49.0186 62.4396 48.9049 62.4538C48.5972 62.4917 48.3344 62.5509 48.1166 62.6314C47.8988 62.7119 47.7319 62.8232 47.6159 62.9652C47.4999 63.1049 47.4419 63.2848 47.4419 63.505C47.4419 63.8364 47.5602 64.0933 47.797 64.2756C48.0337 64.4555 48.3308 64.5455 48.6883 64.5455ZM52.6531 65V59.5455H53.2888V65H52.6531ZM52.9763 58.608C52.8461 58.608 52.7348 58.5642 52.6425 58.4766C52.5502 58.3866 52.504 58.2789 52.504 58.1534C52.504 58.0279 52.5502 57.9214 52.6425 57.8338C52.7348 57.7438 52.8461 57.6989 52.9763 57.6989C53.1065 57.6989 53.2178 57.7438 53.3101 57.8338C53.4024 57.9214 53.4486 58.0279 53.4486 58.1534C53.4486 58.2789 53.4024 58.3866 53.3101 58.4766C53.2178 58.5642 53.1065 58.608 52.9763 58.608ZM58.6253 60.7422L58.0464 60.9055C57.9896 60.7422 57.9091 60.5942 57.805 60.4616C57.7008 60.3291 57.5647 60.2237 57.3966 60.1456C57.2309 60.0675 57.0249 60.0284 56.7787 60.0284C56.4094 60.0284 56.1063 60.116 55.8696 60.2912C55.6328 60.4664 55.5145 60.6925 55.5145 60.9695C55.5145 61.2038 55.595 61.3944 55.7559 61.5412C55.9193 61.6856 56.1702 61.8004 56.5088 61.8857L57.3327 62.0881C57.7896 62.1993 58.1317 62.3757 58.3589 62.6172C58.5886 62.8587 58.7034 63.1617 58.7034 63.5263C58.7034 63.834 58.6182 64.1075 58.4477 64.3466C58.2773 64.5857 58.0393 64.7739 57.7339 64.9112C57.4309 65.0462 57.0793 65.1136 56.6792 65.1136C56.1466 65.1136 55.7074 64.9941 55.3618 64.755C55.0161 64.5135 54.7948 64.1655 54.6977 63.7109L55.305 63.5618C55.3831 63.8861 55.5358 64.1312 55.7631 64.2969C55.9927 64.4626 56.2945 64.5455 56.6686 64.5455C57.0876 64.5455 57.4226 64.4519 57.6736 64.2649C57.9245 64.0755 58.05 63.8388 58.05 63.5547C58.05 63.3345 57.9766 63.1499 57.8298 63.0007C57.683 62.8492 57.4605 62.7379 57.1622 62.6669L56.2709 62.4538C55.7974 62.3402 55.447 62.1603 55.2197 61.9141C54.9925 61.6679 54.8788 61.3625 54.8788 60.9979C54.8788 60.6972 54.9605 60.4332 55.1238 60.206C55.2872 59.9763 55.5121 59.7964 55.7986 59.6662C56.085 59.536 56.4117 59.4709 56.7787 59.4709C57.2782 59.4709 57.6771 59.5845 57.9754 59.8118C58.2761 60.0367 58.4927 60.3468 58.6253 60.7422ZM60.7195 57.7273V65H60.0874V57.7273H60.7195ZM63.4433 64.0057L63.3794 64.3857C63.3391 64.6413 63.2823 64.9231 63.2089 65.2308C63.1355 65.5386 63.0597 65.831 62.9816 66.108C62.9035 66.3849 62.836 66.6075 62.7792 66.7756H62.2927C62.3235 66.6146 62.3625 66.4098 62.4099 66.1612C62.4596 65.9126 62.5105 65.6368 62.5626 65.3338C62.6147 65.0331 62.662 64.723 62.7046 64.4034L62.7544 64.0057H63.4433ZM70.1345 65.1136C69.6255 65.1136 69.1852 64.9953 68.8135 64.7585C68.4418 64.5194 68.1541 64.1892 67.9506 63.7678C67.7493 63.344 67.6487 62.8563 67.6487 62.3047C67.6487 61.7554 67.7493 61.2678 67.9506 60.8416C68.1541 60.4131 68.4347 60.0781 68.7922 59.8366C69.152 59.5928 69.5675 59.4709 70.0386 59.4709C70.3345 59.4709 70.6198 59.5253 70.8944 59.6342C71.1691 59.7408 71.4153 59.9053 71.6331 60.1278C71.8532 60.348 72.0273 60.6262 72.1551 60.9624C72.2829 61.2962 72.3469 61.6915 72.3469 62.1484V62.4609H68.0855V61.9034H71.7006C71.7006 61.553 71.6295 61.2382 71.4875 60.9588C71.3478 60.6771 71.1525 60.4545 70.9015 60.2912C70.653 60.1278 70.3653 60.0462 70.0386 60.0462C69.693 60.0462 69.3888 60.1385 69.126 60.3232C68.8632 60.5078 68.6572 60.7517 68.5081 61.0547C68.3613 61.3577 68.2867 61.6892 68.2844 62.049V62.3828C68.2844 62.8161 68.3589 63.1948 68.5081 63.5192C68.6596 63.8411 68.8738 64.0909 69.1508 64.2685C69.4278 64.446 69.7557 64.5348 70.1345 64.5348C70.3925 64.5348 70.6186 64.4946 70.8128 64.4141C71.0093 64.3336 71.1738 64.2259 71.3064 64.0909C71.4413 63.9536 71.5431 63.8033 71.6118 63.6399L72.2119 63.8352C72.1291 64.0649 71.9929 64.2768 71.8035 64.4709C71.6165 64.665 71.3821 64.8213 71.1004 64.9396C70.8211 65.0556 70.4991 65.1136 70.1345 65.1136ZM74.2441 65.0533C74.1044 65.0533 73.9836 65.0036 73.8818 64.9041C73.7824 64.8023 73.7327 64.6816 73.7327 64.5419C73.7327 64.3999 73.7824 64.2791 73.8818 64.1797C73.9836 64.0803 74.1044 64.0305 74.2441 64.0305C74.3861 64.0305 74.5068 64.0803 74.6063 64.1797C74.7057 64.2791 74.7554 64.3999 74.7554 64.5419C74.7554 64.6342 74.7317 64.7195 74.6844 64.7976C74.6394 64.8757 74.5779 64.9384 74.4997 64.9858C74.424 65.0308 74.3387 65.0533 74.2441 65.0533ZM78.5063 67.1591C78.1346 67.1591 77.8091 67.1106 77.5297 67.0135C77.2504 66.9188 77.0148 66.7886 76.8231 66.6229C76.6313 66.4571 76.4822 66.2713 76.3756 66.0653L76.8941 65.7244C76.9722 65.8617 77.0764 65.9967 77.2066 66.1293C77.3392 66.2618 77.5108 66.3719 77.7215 66.4595C77.9346 66.5471 78.1962 66.5909 78.5063 66.5909C78.9893 66.5909 79.3787 66.4702 79.6746 66.2287C79.9729 65.9872 80.1221 65.612 80.1221 65.103V63.8743H80.0653C79.9919 64.04 79.8865 64.2057 79.7492 64.3714C79.6119 64.5348 79.432 64.6709 79.2094 64.7798C78.9893 64.8887 78.7158 64.9432 78.3891 64.9432C77.9535 64.9432 77.5664 64.8355 77.2279 64.62C76.8917 64.4046 76.6266 64.0968 76.4324 63.6967C76.2407 63.2943 76.1448 62.8149 76.1448 62.2585C76.1448 61.7069 76.2383 61.2216 76.4253 60.8026C76.6147 60.3835 76.8787 60.0568 77.2172 59.8224C77.5558 59.5881 77.95 59.4709 78.3998 59.4709C78.7336 59.4709 79.0106 59.5301 79.2307 59.6484C79.4509 59.7644 79.6273 59.9089 79.7599 60.0817C79.8948 60.2545 80.0001 60.4226 80.0759 60.5859H80.1398V59.5455H80.7577V65.142C80.7577 65.6037 80.6595 65.9837 80.463 66.282C80.2665 66.5803 79.999 66.8004 79.6604 66.9425C79.3219 67.0869 78.9372 67.1591 78.5063 67.1591ZM78.4637 64.3643C78.8141 64.3643 79.1135 64.2803 79.3621 64.1122C79.6107 63.9418 79.8013 63.6979 79.9339 63.3807C80.0664 63.0634 80.1327 62.6858 80.1327 62.2479C80.1327 61.8217 80.0676 61.4441 79.9374 61.1151C79.8072 60.7836 79.6178 60.5232 79.3692 60.3338C79.123 60.142 78.8212 60.0462 78.4637 60.0462C78.0991 60.0462 77.7913 60.1444 77.5404 60.3409C77.2894 60.5374 77.1001 60.8026 76.9722 61.1364C76.8444 61.4678 76.7805 61.8383 76.7805 62.2479C76.7805 62.6645 76.8456 63.0327 76.9758 63.3523C77.106 63.6695 77.2965 63.9181 77.5475 64.098C77.7984 64.2756 78.1038 64.3643 78.4637 64.3643ZM82.9355 65.0533C82.7958 65.0533 82.675 65.0036 82.5732 64.9041C82.4738 64.8023 82.4241 64.6816 82.4241 64.5419C82.4241 64.3999 82.4738 64.2791 82.5732 64.1797C82.675 64.0803 82.7958 64.0305 82.9355 64.0305C83.0775 64.0305 83.1982 64.0803 83.2977 64.1797C83.3971 64.2791 83.4468 64.3999 83.4468 64.5419C83.4468 64.6342 83.4231 64.7195 83.3758 64.7976C83.3308 64.8757 83.2693 64.9384 83.1911 64.9858C83.1154 65.0308 83.0302 65.0533 82.9355 65.0533ZM22.1782 77.1136C21.7307 77.1136 21.3389 76.9953 21.0028 76.7585C20.6666 76.5218 20.4038 76.1915 20.2144 75.7678C20.0274 75.344 19.9339 74.8504 19.9339 74.2869C19.9339 73.7259 20.0274 73.2346 20.2144 72.8132C20.4038 72.3894 20.6678 72.0604 21.0063 71.826C21.3448 71.5893 21.739 71.4709 22.1888 71.4709C22.5203 71.4709 22.7961 71.5301 23.0162 71.6484C23.2364 71.7644 23.4128 71.9089 23.5454 72.0817C23.6779 72.2545 23.7809 72.4226 23.8543 72.5859H23.9111V69.7273H24.5468V77H23.9289V75.9879H23.8543C23.7809 76.1536 23.6768 76.3241 23.5418 76.4993C23.4069 76.6721 23.2281 76.8177 23.0056 76.9361C22.7854 77.0545 22.5096 77.1136 22.1782 77.1136ZM22.2528 76.5348C22.6055 76.5348 22.9062 76.4389 23.1547 76.2472C23.4033 76.053 23.5927 75.7867 23.7229 75.4482C23.8555 75.1072 23.9218 74.7166 23.9218 74.2763C23.9218 73.8407 23.8567 73.456 23.7265 73.1222C23.5963 72.786 23.4069 72.5232 23.1583 72.3338C22.9097 72.142 22.6079 72.0462 22.2528 72.0462C21.8882 72.0462 21.5804 72.1456 21.3295 72.3445C21.0809 72.541 20.8915 72.8073 20.7613 73.1435C20.6334 73.4796 20.5695 73.8572 20.5695 74.2763C20.5695 74.7 20.6346 75.0824 20.7648 75.4233C20.895 75.7642 21.0844 76.0353 21.333 76.2365C21.584 76.4354 21.8905 76.5348 22.2528 76.5348ZM26.3543 77V71.5455H26.99V77H26.3543ZM26.6775 70.608C26.5473 70.608 26.436 70.5642 26.3437 70.4766C26.2513 70.3866 26.2052 70.2789 26.2052 70.1534C26.2052 70.0279 26.2513 69.9214 26.3437 69.8338C26.436 69.7438 26.5473 69.6989 26.6775 69.6989C26.8077 69.6989 26.9189 69.7438 27.0113 69.8338C27.1036 69.9214 27.1498 70.0279 27.1498 70.1534C27.1498 70.2789 27.1036 70.3866 27.0113 70.4766C26.9189 70.5642 26.8077 70.608 26.6775 70.608ZM30.906 71.5455V72.0959H28.2249V71.5455H30.906ZM29.0629 77V70.7464C29.0629 70.4529 29.1304 70.2055 29.2654 70.0043C29.4027 69.803 29.5814 69.6503 29.8016 69.5462C30.0218 69.442 30.2549 69.3899 30.5012 69.3899C30.6669 69.3899 30.8042 69.4041 30.9131 69.4325C31.0244 69.4586 31.1119 69.4846 31.1759 69.5107L30.9912 70.0646C30.9439 70.0504 30.8859 70.0339 30.8172 70.0149C30.7486 69.996 30.6621 69.9865 30.558 69.9865C30.2834 69.9865 30.0715 70.0634 29.9223 70.2173C29.7732 70.3712 29.6986 70.5914 29.6986 70.8778L29.695 77H29.0629ZM34.4118 71.5455V72.0959H31.7307V71.5455H34.4118ZM32.5688 77V70.7464C32.5688 70.4529 32.6363 70.2055 32.7712 70.0043C32.9085 69.803 33.0873 69.6503 33.3074 69.5462C33.5276 69.442 33.7608 69.3899 34.007 69.3899C34.1727 69.3899 34.31 69.4041 34.4189 69.4325C34.5302 69.4586 34.6178 69.4846 34.6817 69.5107L34.4971 70.0646C34.4497 70.0504 34.3917 70.0339 34.3231 70.0149C34.2544 69.996 34.168 69.9865 34.0638 69.9865C33.7892 69.9865 33.5773 70.0634 33.4282 70.2173C33.279 70.3712 33.2045 70.5914 33.2045 70.8778L33.2009 77H32.5688ZM35.6805 77V71.5455H36.3161V77H35.6805ZM36.0036 70.608C35.8734 70.608 35.7622 70.5642 35.6698 70.4766C35.5775 70.3866 35.5313 70.2789 35.5313 70.1534C35.5313 70.0279 35.5775 69.9214 35.6698 69.8338C35.7622 69.7438 35.8734 69.6989 36.0036 69.6989C36.1338 69.6989 36.2451 69.7438 36.3374 69.8338C36.4298 69.9214 36.4759 70.0279 36.4759 70.1534C36.4759 70.2789 36.4298 70.3866 36.3374 70.4766C36.2451 70.5642 36.1338 70.608 36.0036 70.608ZM40.1185 77.1136C39.6308 77.1136 39.2059 76.9917 38.8437 76.7479C38.4838 76.504 38.2045 76.1702 38.0056 75.7464C37.8067 75.3227 37.7073 74.8397 37.7073 74.2976C37.7073 73.7507 37.8079 73.2642 38.0091 72.8381C38.2127 72.4119 38.4945 72.0781 38.8543 71.8366C39.2142 71.5928 39.632 71.4709 40.1079 71.4709C40.4724 71.4709 40.8027 71.5419 41.0986 71.6839C41.3946 71.8236 41.6384 72.0213 41.8302 72.277C42.0243 72.5303 42.1462 72.8262 42.1959 73.1648H41.5567C41.4904 72.857 41.3306 72.5942 41.0773 72.3764C40.8264 72.1562 40.5068 72.0462 40.1185 72.0462C39.7705 72.0462 39.4627 72.1409 39.1952 72.3303C38.9277 72.5173 38.7182 72.7789 38.5667 73.1151C38.4175 73.4489 38.343 73.8359 38.343 74.2763C38.343 74.719 38.4163 75.1108 38.5631 75.4517C38.7099 75.7902 38.9159 76.0554 39.181 76.2472C39.4485 76.4389 39.761 76.5348 40.1185 76.5348C40.36 76.5348 40.5802 76.4898 40.779 76.3999C40.9803 76.3075 41.1483 76.1773 41.2833 76.0092C41.4206 75.8411 41.5129 75.6411 41.5603 75.4091H42.1995C42.1521 75.7382 42.0349 76.0317 41.8479 76.2898C41.6633 76.5455 41.423 76.7467 41.127 76.8935C40.8335 77.0402 40.4973 77.1136 40.1185 77.1136ZM47.0202 74.9155V71.5455H47.6523V77H47.0202V76.0945H46.9704C46.8426 76.3738 46.6402 76.607 46.3632 76.794C46.0862 76.9787 45.7477 77.071 45.3476 77.071C44.9996 77.071 44.6906 76.9953 44.4207 76.8438C44.1508 76.6899 43.939 76.465 43.7851 76.169C43.6312 75.8731 43.5542 75.5097 43.5542 75.0788V71.5455H44.1863V75.0398C44.1863 75.4659 44.3118 75.8092 44.5628 76.0696C44.8137 76.3277 45.1357 76.4567 45.5287 76.4567C45.7749 76.4567 46.0116 76.3975 46.2389 76.2791C46.4662 76.1607 46.6532 75.9879 46.8 75.7607C46.9468 75.531 47.0202 75.2493 47.0202 74.9155ZM49.9578 69.7273V77H49.3257V69.7273H49.9578ZM53.7789 71.5455V72.0959H51.1759V71.5455H53.7789ZM51.9891 70.2386H52.6247V75.576C52.6247 75.8033 52.6638 75.982 52.7419 76.1122C52.82 76.2401 52.9218 76.3312 53.0473 76.3857C53.1728 76.4377 53.3066 76.4638 53.4486 76.4638C53.5315 76.4638 53.6025 76.459 53.6617 76.4496C53.7209 76.4377 53.7729 76.4259 53.8179 76.4141L53.9529 76.9858C53.8913 77.0095 53.8155 77.0308 53.7256 77.0497C53.6356 77.071 53.5244 77.0817 53.3918 77.0817C53.1598 77.0817 52.936 77.0308 52.7206 76.929C52.5075 76.8272 52.3324 76.6757 52.195 76.4744C52.0577 76.2732 51.9891 76.0234 51.9891 75.7251V70.2386ZM55.6547 79.0455C55.5293 79.0455 55.4121 79.0336 55.3032 79.0099C55.1943 78.9863 55.1079 78.9602 55.0439 78.9318L55.2144 78.3743C55.4298 78.4406 55.6216 78.4643 55.7897 78.4453C55.9578 78.4287 56.1069 78.353 56.2371 78.218C56.3673 78.0855 56.4833 77.8819 56.5851 77.6072L56.784 77.0533L54.7776 71.5455H55.463L57.0823 76.1655H57.132L58.7513 71.5455H59.4367L57.1285 77.8629C57.0314 78.1257 56.9118 78.3447 56.7698 78.5199C56.6278 78.6974 56.4632 78.8288 56.2762 78.9141C56.0915 79.0017 55.8844 79.0455 55.6547 79.0455ZM65.4497 77.1136C65.0022 77.1136 64.6104 76.9953 64.2742 76.7585C63.9381 76.5218 63.6753 76.1915 63.4859 75.7678C63.2989 75.344 63.2053 74.8504 63.2053 74.2869C63.2053 73.7259 63.2989 73.2346 63.4859 72.8132C63.6753 72.3894 63.9392 72.0604 64.2778 71.826C64.6163 71.5893 65.0105 71.4709 65.4603 71.4709C65.7918 71.4709 66.0676 71.5301 66.2877 71.6484C66.5079 71.7644 66.6843 71.9089 66.8169 72.0817C66.9494 72.2545 67.0524 72.4226 67.1258 72.5859H67.1826V69.7273H67.8183V77H67.2004V75.9879H67.1258C67.0524 76.1536 66.9482 76.3241 66.8133 76.4993C66.6784 76.6721 66.4996 76.8177 66.2771 76.9361C66.0569 77.0545 65.7811 77.1136 65.4497 77.1136ZM65.5242 76.5348C65.877 76.5348 66.1776 76.4389 66.4262 76.2472C66.6748 76.053 66.8642 75.7867 66.9944 75.4482C67.127 75.1072 67.1933 74.7166 67.1933 74.2763C67.1933 73.8407 67.1282 73.456 66.998 73.1222C66.8677 72.786 66.6784 72.5232 66.4298 72.3338C66.1812 72.142 65.8794 72.0462 65.5242 72.0462C65.1597 72.0462 64.8519 72.1456 64.6009 72.3445C64.3524 72.541 64.163 72.8073 64.0328 73.1435C63.9049 73.4796 63.841 73.8572 63.841 74.2763C63.841 74.7 63.9061 75.0824 64.0363 75.4233C64.1665 75.7642 64.3559 76.0353 64.6045 76.2365C64.8554 76.4354 65.162 76.5348 65.5242 76.5348ZM71.824 77.1136C71.315 77.1136 70.8746 76.9953 70.5029 76.7585C70.1312 76.5194 69.8436 76.1892 69.64 75.7678C69.4388 75.344 69.3382 74.8563 69.3382 74.3047C69.3382 73.7554 69.4388 73.2678 69.64 72.8416C69.8436 72.4131 70.1241 72.0781 70.4816 71.8366C70.8415 71.5928 71.257 71.4709 71.7281 71.4709C72.024 71.4709 72.3093 71.5253 72.5839 71.6342C72.8585 71.7408 73.1047 71.9053 73.3225 72.1278C73.5427 72.348 73.7167 72.6262 73.8445 72.9624C73.9724 73.2962 74.0363 73.6915 74.0363 74.1484V74.4609H69.7749V73.9034H73.39C73.39 73.553 73.319 73.2382 73.1769 72.9588C73.0373 72.6771 72.8419 72.4545 72.591 72.2912C72.3424 72.1278 72.0548 72.0462 71.7281 72.0462C71.3824 72.0462 71.0782 72.1385 70.8154 72.3232C70.5526 72.5078 70.3467 72.7517 70.1975 73.0547C70.0508 73.3577 69.9762 73.6892 69.9738 74.049V74.3828C69.9738 74.8161 70.0484 75.1948 70.1975 75.5192C70.349 75.8411 70.5633 76.0909 70.8403 76.2685C71.1173 76.446 71.4452 76.5348 71.824 76.5348C72.082 76.5348 72.3081 76.4946 72.5022 76.4141C72.6987 76.3336 72.8633 76.2259 72.9958 76.0909C73.1308 75.9536 73.2326 75.8033 73.3012 75.6399L73.9014 75.8352C73.8185 76.0649 73.6824 76.2768 73.493 76.4709C73.306 76.665 73.0716 76.8213 72.7899 76.9396C72.5105 77.0556 72.1885 77.1136 71.824 77.1136ZM77.5102 79.1591C77.1385 79.1591 76.813 79.1106 76.5336 79.0135C76.2543 78.9188 76.0187 78.7886 75.827 78.6229C75.6352 78.4571 75.4861 78.2713 75.3795 78.0653L75.898 77.7244C75.9761 77.8617 76.0803 77.9967 76.2105 78.1293C76.3431 78.2618 76.5147 78.3719 76.7254 78.4595C76.9385 78.5471 77.2001 78.5909 77.5102 78.5909C77.9932 78.5909 78.3826 78.4702 78.6785 78.2287C78.9768 77.9872 79.126 77.612 79.126 77.103V75.8743H79.0692C78.9958 76.04 78.8904 76.2057 78.7531 76.3714C78.6158 76.5348 78.4359 76.6709 78.2133 76.7798C77.9932 76.8887 77.7197 76.9432 77.393 76.9432C76.9574 76.9432 76.5703 76.8355 76.2318 76.62C75.8956 76.4046 75.6305 76.0968 75.4363 75.6967C75.2446 75.2943 75.1487 74.8149 75.1487 74.2585C75.1487 73.7069 75.2422 73.2216 75.4292 72.8026C75.6186 72.3835 75.8826 72.0568 76.2211 71.8224C76.5597 71.5881 76.9539 71.4709 77.4037 71.4709C77.7375 71.4709 78.0145 71.5301 78.2346 71.6484C78.4548 71.7644 78.6312 71.9089 78.7638 72.0817C78.8987 72.2545 79.0041 72.4226 79.0798 72.5859H79.1437V71.5455H79.7616V77.142C79.7616 77.6037 79.6634 77.9837 79.4669 78.282C79.2704 78.5803 79.0029 78.8004 78.6643 78.9425C78.3258 79.0869 77.9411 79.1591 77.5102 79.1591ZM77.4676 76.3643C77.818 76.3643 78.1175 76.2803 78.366 76.1122C78.6146 75.9418 78.8052 75.6979 78.9378 75.3807C79.0703 75.0634 79.1366 74.6858 79.1366 74.2479C79.1366 73.8217 79.0715 73.4441 78.9413 73.1151C78.8111 72.7836 78.6217 72.5232 78.3731 72.3338C78.1269 72.142 77.8251 72.0462 77.4676 72.0462C77.103 72.0462 76.7952 72.1444 76.5443 72.3409C76.2934 72.5374 76.104 72.8026 75.9761 73.1364C75.8483 73.4678 75.7844 73.8383 75.7844 74.2479C75.7844 74.6645 75.8495 75.0327 75.9797 75.3523C76.1099 75.6695 76.3005 75.9181 76.5514 76.098C76.8023 76.2756 77.1077 76.3643 77.4676 76.3643ZM81.4351 77V71.5455H82.0494V72.3835H82.0956C82.2045 72.1089 82.3939 71.8875 82.6638 71.7195C82.936 71.549 83.2438 71.4638 83.5871 71.4638C83.6392 71.4638 83.6972 71.465 83.7611 71.4673C83.825 71.4697 83.8783 71.4721 83.9209 71.4744V72.1172C83.8925 72.1125 83.8428 72.1054 83.7718 72.0959C83.7007 72.0864 83.6238 72.0817 83.5409 72.0817C83.2568 72.0817 83.0035 72.142 82.781 72.2628C82.5608 72.3812 82.3868 72.5457 82.259 72.7564C82.1311 72.9671 82.0672 73.2074 82.0672 73.4773V77H81.4351ZM87.0388 77.1136C86.5298 77.1136 86.0895 76.9953 85.7178 76.7585C85.3461 76.5194 85.0584 76.1892 84.8548 75.7678C84.6536 75.344 84.553 74.8563 84.553 74.3047C84.553 73.7554 84.6536 73.2678 84.8548 72.8416C85.0584 72.4131 85.339 72.0781 85.6965 71.8366C86.0563 71.5928 86.4718 71.4709 86.9429 71.4709C87.2388 71.4709 87.5241 71.5253 87.7987 71.6342C88.0734 71.7408 88.3196 71.9053 88.5374 72.1278C88.7575 72.348 88.9316 72.6262 89.0594 72.9624C89.1872 73.2962 89.2512 73.6915 89.2512 74.1484V74.4609H84.9898V73.9034H88.6048C88.6048 73.553 88.5338 73.2382 88.3918 72.9588C88.2521 72.6771 88.0568 72.4545 87.8058 72.2912C87.5573 72.1278 87.2696 72.0462 86.9429 72.0462C86.5973 72.0462 86.2931 72.1385 86.0303 72.3232C85.7675 72.5078 85.5615 72.7517 85.4124 73.0547C85.2656 73.3577 85.191 73.6892 85.1887 74.049V74.3828C85.1887 74.8161 85.2632 75.1948 85.4124 75.5192C85.5639 75.8411 85.7781 76.0909 86.0551 76.2685C86.3321 76.446 86.66 76.5348 87.0388 76.5348C87.2968 76.5348 87.5229 76.4946 87.7171 76.4141C87.9136 76.3336 88.0781 76.2259 88.2107 76.0909C88.3456 75.9536 88.4474 75.8033 88.5161 75.6399L89.1162 75.8352C89.0334 76.0649 88.8972 76.2768 88.7078 76.4709C88.5208 76.665 88.2864 76.8213 88.0047 76.9396C87.7253 77.0556 87.4034 77.1136 87.0388 77.1136ZM92.8493 77.1136C92.3403 77.1136 91.9 76.9953 91.5283 76.7585C91.1566 76.5194 90.869 76.1892 90.6654 75.7678C90.4642 75.344 90.3635 74.8563 90.3635 74.3047C90.3635 73.7554 90.4642 73.2678 90.6654 72.8416C90.869 72.4131 91.1495 72.0781 91.507 71.8366C91.8669 71.5928 92.2823 71.4709 92.7535 71.4709C93.0494 71.4709 93.3347 71.5253 93.6093 71.6342C93.8839 71.7408 94.1301 71.9053 94.3479 72.1278C94.5681 72.348 94.7421 72.6262 94.8699 72.9624C94.9978 73.2962 95.0617 73.6915 95.0617 74.1484V74.4609H90.8003V73.9034H94.4154C94.4154 73.553 94.3444 73.2382 94.2023 72.9588C94.0626 72.6771 93.8673 72.4545 93.6164 72.2912C93.3678 72.1278 93.0802 72.0462 92.7535 72.0462C92.4078 72.0462 92.1036 72.1385 91.8408 72.3232C91.578 72.5078 91.3721 72.7517 91.2229 73.0547C91.0761 73.3577 91.0016 73.6892 90.9992 74.049V74.3828C90.9992 74.8161 91.0738 75.1948 91.2229 75.5192C91.3744 75.8411 91.5887 76.0909 91.8657 76.2685C92.1427 76.446 92.4706 76.5348 92.8493 76.5348C93.1074 76.5348 93.3335 76.4946 93.5276 76.4141C93.7241 76.3336 93.8886 76.2259 94.0212 76.0909C94.1562 75.9536 94.258 75.8033 94.3266 75.6399L94.9268 75.8352C94.8439 76.0649 94.7078 76.2768 94.5184 76.4709C94.3314 76.665 94.097 76.8213 93.8153 76.9396C93.5359 77.0556 93.2139 77.1136 92.8493 77.1136Z" fill="#222222"/>
<defs>
<filter id="filter0_d_991_211" x="0" y="0" width="118" height="118" filterUnits="userSpaceOnUse" color-interpolation-filters="sRGB">
<feFlood flood-opacity="0" result="BackgroundImageFix"/>
<feColorMatrix in="SourceAlpha" type="matrix" values="0 0 0 0 0 0 0 0 0 0 0 0 0 0 0 0 0 0 127 0" result="hardAlpha"/>
<feOffset dy="4"/>
<feGaussianBlur stdDeviation="2"/>
<feComposite in2="hardAlpha" operator="out"/>
<feColorMatrix type="matrix" values="0 0 0 0 0 0 0 0 0 0 0 0 0 0 0 0 0 0 0.25 0"/>
<feBlend mode="normal" in2="BackgroundImageFix" result="effect1_dropShadow_991_211"/>
<feBlend mode="normal" in="SourceGraphic" in2="effect1_dropShadow_991_211" result="shape"/>
</filter>
</defs>
</svg>
