<svg width="118" height="118" viewBox="0 0 118 118" fill="none" xmlns="http://www.w3.org/2000/svg">
<g filter="url(#filter0_d_991_204)">
<rect x="4" width="110" height="110" fill="#BFBDD0"/>
</g>
<path d="M34.1578 25.5455V26.0959H31.5548V25.5455H34.1578ZM32.368 24.2386H33.0036V29.576C33.0036 29.8033 33.0427 29.982 33.1208 30.1122C33.199 30.2401 33.3008 30.3312 33.4262 30.3857C33.5517 30.4377 33.6855 30.4638 33.8275 30.4638C33.9104 30.4638 33.9814 30.459 34.0406 30.4496C34.0998 30.4377 34.1518 30.4259 34.1968 30.4141L34.3318 30.9858C34.2702 31.0095 34.1945 31.0308 34.1045 31.0497C34.0145 31.071 33.9033 31.0817 33.7707 31.0817C33.5387 31.0817 33.315 31.0308 33.0995 30.929C32.8865 30.8272 32.7113 30.6757 32.574 30.4744C32.4366 30.2732 32.368 30.0234 32.368 29.7251V24.2386ZM36.3426 27.5909V31H35.7105V23.7273H36.3426V26.4013H36.3994C36.5273 26.1196 36.7249 25.8946 36.9925 25.7266C37.2623 25.5585 37.6032 25.4744 38.0152 25.4744C38.3845 25.4744 38.7088 25.5502 38.9882 25.7017C39.2675 25.8532 39.4854 26.0769 39.6416 26.3729C39.7979 26.6688 39.876 27.0334 39.876 27.4666V31H39.2403V27.5057C39.2403 27.0559 39.1148 26.7019 38.8639 26.4439C38.6153 26.1835 38.2791 26.0533 37.8554 26.0533C37.5642 26.0533 37.305 26.1148 37.0777 26.2379C36.8504 26.361 36.6705 26.5386 36.5379 26.7706C36.4077 27.0002 36.3426 27.2737 36.3426 27.5909ZM43.7458 31.1136C43.2368 31.1136 42.7965 30.9953 42.4248 30.7585C42.0531 30.5194 41.7655 30.1892 41.5619 29.7678C41.3606 29.344 41.26 28.8563 41.26 28.3047C41.26 27.7554 41.3606 27.2678 41.5619 26.8416C41.7655 26.4131 42.046 26.0781 42.4035 25.8366C42.7633 25.5928 43.1788 25.4709 43.6499 25.4709C43.9459 25.4709 44.2311 25.5253 44.5058 25.6342C44.7804 25.7408 45.0266 25.9053 45.2444 26.1278C45.4646 26.348 45.6386 26.6262 45.7664 26.9624C45.8943 27.2962 45.9582 27.6915 45.9582 28.1484V28.4609H41.6968V27.9034H45.3119C45.3119 27.553 45.2409 27.2382 45.0988 26.9588C44.9591 26.6771 44.7638 26.4545 44.5129 26.2912C44.2643 26.1278 43.9767 26.0462 43.6499 26.0462C43.3043 26.0462 43.0001 26.1385 42.7373 26.3232C42.4745 26.5078 42.2686 26.7517 42.1194 27.0547C41.9726 27.3577 41.8981 27.6892 41.8957 28.049V28.3828C41.8957 28.8161 41.9703 29.1948 42.1194 29.5192C42.2709 29.8411 42.4852 30.0909 42.7622 30.2685C43.0392 30.446 43.367 30.5348 43.7458 30.5348C44.0039 30.5348 44.23 30.4946 44.4241 30.4141C44.6206 30.3336 44.7851 30.2259 44.9177 30.0909C45.0526 29.9536 45.1544 29.8033 45.2231 29.6399L45.8232 29.8352C45.7404 30.0649 45.6043 30.2768 45.4149 30.4709C45.2278 30.665 44.9935 30.8213 44.7117 30.9396C44.4324 31.0556 44.1104 31.1136 43.7458 31.1136ZM47.3511 31V25.5455H47.9655V26.3835H48.0116C48.1205 26.1089 48.3099 25.8875 48.5798 25.7195C48.8521 25.549 49.1598 25.4638 49.5031 25.4638C49.5552 25.4638 49.6132 25.465 49.6771 25.4673C49.741 25.4697 49.7943 25.4721 49.8369 25.4744V26.1172C49.8085 26.1125 49.7588 26.1054 49.6878 26.0959C49.6167 26.0864 49.5398 26.0817 49.4569 26.0817C49.1729 26.0817 48.9195 26.142 48.697 26.2628C48.4768 26.3812 48.3028 26.5457 48.175 26.7564C48.0471 26.9671 47.9832 27.2074 47.9832 27.4773V31H47.3511ZM52.9548 31.1136C52.4458 31.1136 52.0055 30.9953 51.6338 30.7585C51.2621 30.5194 50.9745 30.1892 50.7709 29.7678C50.5696 29.344 50.469 28.8563 50.469 28.3047C50.469 27.7554 50.5696 27.2678 50.7709 26.8416C50.9745 26.4131 51.255 26.0781 51.6125 25.8366C51.9723 25.5928 52.3878 25.4709 52.8589 25.4709C53.1549 25.4709 53.4401 25.5253 53.7148 25.6342C53.9894 25.7408 54.2356 25.9053 54.4534 26.1278C54.6736 26.348 54.8476 26.6262 54.9754 26.9624C55.1032 27.2962 55.1672 27.6915 55.1672 28.1484V28.4609H50.9058V27.9034H54.5209C54.5209 27.553 54.4498 27.2382 54.3078 26.9588C54.1681 26.6771 53.9728 26.4545 53.7219 26.2912C53.4733 26.1278 53.1856 26.0462 52.8589 26.0462C52.5133 26.0462 52.2091 26.1385 51.9463 26.3232C51.6835 26.5078 51.4775 26.7517 51.3284 27.0547C51.1816 27.3577 51.107 27.6892 51.1047 28.049V28.3828C51.1047 28.8161 51.1792 29.1948 51.3284 29.5192C51.4799 29.8411 51.6942 30.0909 51.9711 30.2685C52.2481 30.446 52.576 30.5348 52.9548 30.5348C53.2129 30.5348 53.439 30.4946 53.6331 30.4141C53.8296 30.3336 53.9941 30.2259 54.1267 30.0909C54.2616 29.9536 54.3634 29.8033 54.4321 29.6399L55.0322 29.8352C54.9494 30.0649 54.8132 30.2768 54.6238 30.4709C54.4368 30.665 54.2024 30.8213 53.9207 30.9396C53.6414 31.0556 53.3194 31.1136 52.9548 31.1136ZM60.896 31.1243C60.567 31.1243 60.2663 31.0604 59.9941 30.9325C59.7218 30.8023 59.5052 30.6153 59.3442 30.3714C59.1832 30.1252 59.1027 29.8269 59.1027 29.4766C59.1027 29.2067 59.1536 28.9794 59.2554 28.7947C59.3572 28.6101 59.5016 28.4586 59.6887 28.3402C59.8757 28.2218 60.097 28.1283 60.3527 28.0597C60.6084 27.991 60.8901 27.9377 61.1979 27.8999C61.5033 27.862 61.7613 27.8288 61.972 27.8004C62.1851 27.772 62.3473 27.727 62.4585 27.6655C62.5698 27.6039 62.6254 27.5045 62.6254 27.3672V27.2393C62.6254 26.8677 62.5142 26.5753 62.2916 26.3622C62.0715 26.1468 61.7542 26.0391 61.3399 26.0391C60.9469 26.0391 60.6262 26.1255 60.3776 26.2983C60.1314 26.4711 59.9585 26.6747 59.8591 26.9091L59.259 26.6925C59.3821 26.3942 59.5525 26.1562 59.7703 25.9787C59.9881 25.7988 60.232 25.6697 60.5019 25.5916C60.7718 25.5111 61.0452 25.4709 61.3222 25.4709C61.5305 25.4709 61.7471 25.4981 61.972 25.5526C62.1993 25.607 62.41 25.7017 62.6041 25.8366C62.7983 25.9692 62.9557 26.1551 63.0764 26.3942C63.1972 26.6309 63.2575 26.9316 63.2575 27.2962V31H62.6254V30.1371H62.5864C62.5106 30.2981 62.3982 30.4543 62.249 30.6058C62.0999 30.7573 61.9128 30.8816 61.6879 30.9787C61.463 31.0758 61.1991 31.1243 60.896 31.1243ZM60.9813 30.5455C61.3174 30.5455 61.6086 30.4709 61.8548 30.3217C62.1011 30.1726 62.2905 29.9749 62.423 29.7287C62.558 29.4801 62.6254 29.2067 62.6254 28.9084V28.12C62.5781 28.165 62.4988 28.2053 62.3875 28.2408C62.2786 28.2763 62.152 28.3082 62.0075 28.3366C61.8655 28.3627 61.7235 28.3852 61.5814 28.4041C61.4394 28.4231 61.3115 28.4396 61.1979 28.4538C60.8901 28.4917 60.6273 28.5509 60.4095 28.6314C60.1917 28.7119 60.0248 28.8232 59.9088 28.9652C59.7928 29.1049 59.7348 29.2848 59.7348 29.505C59.7348 29.8364 59.8532 30.0933 60.0899 30.2756C60.3267 30.4555 60.6238 30.5455 60.9813 30.5455ZM64.939 31V25.5455H65.5534V26.3835H65.5995C65.7084 26.1089 65.8978 25.8875 66.1677 25.7195C66.44 25.549 66.7477 25.4638 67.091 25.4638C67.1431 25.4638 67.2011 25.465 67.265 25.4673C67.3289 25.4697 67.3822 25.4721 67.4248 25.4744V26.1172C67.3964 26.1125 67.3467 26.1054 67.2757 26.0959C67.2046 26.0864 67.1277 26.0817 67.0448 26.0817C66.7607 26.0817 66.5074 26.142 66.2849 26.2628C66.0647 26.3812 65.8907 26.5457 65.7629 26.7564C65.635 26.9671 65.5711 27.2074 65.5711 27.4773V31H64.939ZM70.5427 31.1136C70.0337 31.1136 69.5934 30.9953 69.2217 30.7585C68.85 30.5194 68.5624 30.1892 68.3588 29.7678C68.1575 29.344 68.0569 28.8563 68.0569 28.3047C68.0569 27.7554 68.1575 27.2678 68.3588 26.8416C68.5624 26.4131 68.8429 26.0781 69.2004 25.8366C69.5602 25.5928 69.9757 25.4709 70.4468 25.4709C70.7427 25.4709 71.028 25.5253 71.3026 25.6342C71.5773 25.7408 71.8235 25.9053 72.0413 26.1278C72.2615 26.348 72.4355 26.6262 72.5633 26.9624C72.6911 27.2962 72.7551 27.6915 72.7551 28.1484V28.4609H68.4937V27.9034H72.1088C72.1088 27.553 72.0377 27.2382 71.8957 26.9588C71.756 26.6771 71.5607 26.4545 71.3097 26.2912C71.0612 26.1278 70.7735 26.0462 70.4468 26.0462C70.1012 26.0462 69.797 26.1385 69.5342 26.3232C69.2714 26.5078 69.0654 26.7517 68.9163 27.0547C68.7695 27.3577 68.6949 27.6892 68.6926 28.049V28.3828C68.6926 28.8161 68.7671 29.1948 68.9163 29.5192C69.0678 29.8411 69.282 30.0909 69.559 30.2685C69.836 30.446 70.1639 30.5348 70.5427 30.5348C70.8008 30.5348 71.0268 30.4946 71.221 30.4141C71.4175 30.3336 71.582 30.2259 71.7146 30.0909C71.8495 29.9536 71.9513 29.8033 72.02 29.6399L72.6201 29.8352C72.5373 30.0649 72.4011 30.2768 72.2117 30.4709C72.0247 30.665 71.7903 30.8213 71.5086 30.9396C71.2293 31.0556 70.9073 31.1136 70.5427 31.1136ZM77.5926 27.5909V31H76.9605V25.5455H77.5748V26.4013H77.6317C77.7595 26.1219 77.9584 25.8982 78.2282 25.7301C78.5005 25.5597 78.8367 25.4744 79.2368 25.4744C79.6037 25.4744 79.9257 25.5514 80.2027 25.7053C80.482 25.8568 80.6987 26.0805 80.8525 26.3764C81.0088 26.6723 81.0869 27.0357 81.0869 27.4666V31H80.4548V27.5057C80.4548 27.0582 80.3293 26.7043 80.0784 26.4439C79.8298 26.1835 79.496 26.0533 79.077 26.0533C78.7905 26.0533 78.536 26.1148 78.3135 26.2379C78.0909 26.361 77.9146 26.5386 77.7844 26.7706C77.6565 27.0002 77.5926 27.2737 77.5926 27.5909ZM84.8715 31.1136C84.4004 31.1136 83.9838 30.9941 83.6215 30.755C83.2617 30.5159 82.98 30.1856 82.7764 29.7642C82.5728 29.3404 82.471 28.8516 82.471 28.2976C82.471 27.7389 82.5728 27.2476 82.7764 26.8239C82.98 26.3977 83.2617 26.0663 83.6215 25.8295C83.9838 25.5904 84.4004 25.4709 84.8715 25.4709C85.3427 25.4709 85.7581 25.5904 86.118 25.8295C86.4778 26.0687 86.7596 26.4001 86.9632 26.8239C87.1691 27.2476 87.2721 27.7389 87.2721 28.2976C87.2721 28.8516 87.1703 29.3404 86.9667 29.7642C86.7631 30.1856 86.4802 30.5159 86.118 30.755C85.7581 30.9941 85.3427 31.1136 84.8715 31.1136ZM84.8715 30.5348C85.2503 30.5348 85.5711 30.433 85.8339 30.2294C86.0967 30.0258 86.2955 29.7547 86.4305 29.4162C86.5678 29.0777 86.6365 28.7048 86.6365 28.2976C86.6365 27.8904 86.5678 27.5163 86.4305 27.1754C86.2955 26.8345 86.0967 26.5611 85.8339 26.3551C85.5711 26.1491 85.2503 26.0462 84.8715 26.0462C84.4951 26.0462 84.1743 26.1491 83.9092 26.3551C83.6464 26.5611 83.4463 26.8345 83.309 27.1754C83.1741 27.5163 83.1066 27.8904 83.1066 28.2976C83.1066 28.7048 83.1741 29.0777 83.309 29.4162C83.4463 29.7547 83.6464 30.0258 83.9092 30.2294C84.172 30.433 84.4927 30.5348 84.8715 30.5348ZM20.4442 43V37.5455H21.0798V43H20.4442ZM20.7673 36.608C20.6371 36.608 20.5258 36.5642 20.4335 36.4766C20.3412 36.3866 20.295 36.2789 20.295 36.1534C20.295 36.0279 20.3412 35.9214 20.4335 35.8338C20.5258 35.7438 20.6371 35.6989 20.7673 35.6989C20.8975 35.6989 21.0088 35.7438 21.1011 35.8338C21.1934 35.9214 21.2396 36.0279 21.2396 36.1534C21.2396 36.2789 21.1934 36.3866 21.1011 36.4766C21.0088 36.5642 20.8975 36.608 20.7673 36.608ZM23.3836 39.5909V43H22.7515V37.5455H23.3659V38.4013H23.4227C23.5505 38.1219 23.7494 37.8982 24.0193 37.7301C24.2915 37.5597 24.6277 37.4744 25.0278 37.4744C25.3947 37.4744 25.7167 37.5514 25.9937 37.7053C26.2731 37.8568 26.4897 38.0805 26.6436 38.3764C26.7998 38.6723 26.8779 39.0357 26.8779 39.4666V43H26.2458V39.5057C26.2458 39.0582 26.1204 38.7043 25.8694 38.4439C25.6208 38.1835 25.287 38.0533 24.868 38.0533C24.5815 38.0533 24.327 38.1148 24.1045 38.2379C23.882 38.361 23.7056 38.5386 23.5754 38.7706C23.4475 39.0002 23.3836 39.2737 23.3836 39.5909ZM30.6732 43.1136C30.1855 43.1136 29.7606 42.9917 29.3983 42.7479C29.0385 42.504 28.7591 42.1702 28.5603 41.7464C28.3614 41.3227 28.262 40.8397 28.262 40.2976C28.262 39.7507 28.3626 39.2642 28.5638 38.8381C28.7674 38.4119 29.0492 38.0781 29.409 37.8366C29.7689 37.5928 30.1867 37.4709 30.6626 37.4709C31.0271 37.4709 31.3574 37.5419 31.6533 37.6839C31.9492 37.8236 32.1931 38.0213 32.3849 38.277C32.579 38.5303 32.7009 38.8262 32.7506 39.1648H32.1114C32.0451 38.857 31.8853 38.5942 31.632 38.3764C31.3811 38.1562 31.0615 38.0462 30.6732 38.0462C30.3252 38.0462 30.0174 38.1409 29.7499 38.3303C29.4824 38.5173 29.2729 38.7789 29.1214 39.1151C28.9722 39.4489 28.8976 39.8359 28.8976 40.2763C28.8976 40.719 28.971 41.1108 29.1178 41.4517C29.2646 41.7902 29.4706 42.0554 29.7357 42.2472C30.0032 42.4389 30.3157 42.5348 30.6732 42.5348C30.9147 42.5348 31.1349 42.4898 31.3337 42.3999C31.5349 42.3075 31.703 42.1773 31.838 42.0092C31.9753 41.8411 32.0676 41.6411 32.115 41.4091H32.7542C32.7068 41.7382 32.5896 42.0317 32.4026 42.2898C32.218 42.5455 31.9777 42.7467 31.6817 42.8935C31.3882 43.0402 31.052 43.1136 30.6732 43.1136ZM36.3142 43.1136C35.8052 43.1136 35.3648 42.9953 34.9932 42.7585C34.6215 42.5194 34.3338 42.1892 34.1302 41.7678C33.929 41.344 33.8284 40.8563 33.8284 40.3047C33.8284 39.7554 33.929 39.2678 34.1302 38.8416C34.3338 38.4131 34.6144 38.0781 34.9719 37.8366C35.3317 37.5928 35.7472 37.4709 36.2183 37.4709C36.5142 37.4709 36.7995 37.5253 37.0741 37.6342C37.3488 37.7408 37.595 37.9053 37.8128 38.1278C38.0329 38.348 38.2069 38.6262 38.3348 38.9624C38.4626 39.2962 38.5265 39.6915 38.5265 40.1484V40.4609H34.2652V39.9034H37.8802C37.8802 39.553 37.8092 39.2382 37.6672 38.9588C37.5275 38.6771 37.3322 38.4545 37.0812 38.2912C36.8327 38.1278 36.545 38.0462 36.2183 38.0462C35.8727 38.0462 35.5684 38.1385 35.3057 38.3232C35.0429 38.5078 34.8369 38.7517 34.6878 39.0547C34.541 39.3577 34.4664 39.6892 34.464 40.049V40.3828C34.464 40.8161 34.5386 41.1948 34.6878 41.5192C34.8393 41.8411 35.0535 42.0909 35.3305 42.2685C35.6075 42.446 35.9354 42.5348 36.3142 42.5348C36.5722 42.5348 36.7983 42.4946 36.9925 42.4141C37.189 42.3336 37.3535 42.2259 37.4861 42.0909C37.621 41.9536 37.7228 41.8033 37.7915 41.6399L38.3916 41.8352C38.3087 42.0649 38.1726 42.2768 37.9832 42.4709C37.7962 42.665 37.5618 42.8213 37.2801 42.9396C37.0007 43.0556 36.6788 43.1136 36.3142 43.1136ZM40.5516 39.5909V43H39.9195V37.5455H40.5338V38.4013H40.5906C40.7185 38.1219 40.9173 37.8982 41.1872 37.7301C41.4595 37.5597 41.7957 37.4744 42.1958 37.4744C42.5627 37.4744 42.8847 37.5514 43.1617 37.7053C43.441 37.8568 43.6576 38.0805 43.8115 38.3764C43.9678 38.6723 44.0459 39.0357 44.0459 39.4666V43H43.4138V39.5057C43.4138 39.0582 43.2883 38.7043 43.0374 38.4439C42.7888 38.1835 42.455 38.0533 42.036 38.0533C41.7495 38.0533 41.495 38.1148 41.2725 38.2379C41.0499 38.361 40.8736 38.5386 40.7433 38.7706C40.6155 39.0002 40.5516 39.2737 40.5516 39.5909ZM47.8589 37.5455V38.0959H45.2559V37.5455H47.8589ZM46.0692 36.2386H46.7048V41.576C46.7048 41.8033 46.7439 41.982 46.822 42.1122C46.9001 42.2401 47.0019 42.3312 47.1274 42.3857C47.2529 42.4377 47.3866 42.4638 47.5287 42.4638C47.6115 42.4638 47.6826 42.459 47.7417 42.4496C47.8009 42.4377 47.853 42.4259 47.898 42.4141L48.0329 42.9858C47.9714 43.0095 47.8956 43.0308 47.8057 43.0497C47.7157 43.071 47.6044 43.0817 47.4719 43.0817C47.2398 43.0817 47.0161 43.0308 46.8007 42.929C46.5876 42.8272 46.4124 42.6757 46.2751 42.4744C46.1378 42.2732 46.0692 42.0234 46.0692 41.7251V36.2386ZM49.3016 43V37.5455H49.9372V43H49.3016ZM49.6247 36.608C49.4945 36.608 49.3833 36.5642 49.2909 36.4766C49.1986 36.3866 49.1524 36.2789 49.1524 36.1534C49.1524 36.0279 49.1986 35.9214 49.2909 35.8338C49.3833 35.7438 49.4945 35.6989 49.6247 35.6989C49.7549 35.6989 49.8662 35.7438 49.9585 35.8338C50.0509 35.9214 50.097 36.0279 50.097 36.1534C50.097 36.2789 50.0509 36.3866 49.9585 36.4766C49.8662 36.5642 49.7549 36.608 49.6247 36.608ZM55.8312 37.5455L53.839 43H53.1643L51.1721 37.5455H51.8575L53.4768 42.1655H53.5265L55.1459 37.5455H55.8312ZM59.0779 43.1136C58.5689 43.1136 58.1285 42.9953 57.7568 42.7585C57.3852 42.5194 57.0975 42.1892 56.8939 41.7678C56.6927 41.344 56.5921 40.8563 56.5921 40.3047C56.5921 39.7554 56.6927 39.2678 56.8939 38.8416C57.0975 38.4131 57.378 38.0781 57.7355 37.8366C58.0954 37.5928 58.5109 37.4709 58.982 37.4709C59.2779 37.4709 59.5632 37.5253 59.8378 37.6342C60.1124 37.7408 60.3586 37.9053 60.5764 38.1278C60.7966 38.348 60.9706 38.6262 61.0985 38.9624C61.2263 39.2962 61.2902 39.6915 61.2902 40.1484V40.4609H57.0289V39.9034H60.6439C60.6439 39.553 60.5729 39.2382 60.4308 38.9588C60.2912 38.6771 60.0959 38.4545 59.8449 38.2912C59.5963 38.1278 59.3087 38.0462 58.982 38.0462C58.6363 38.0462 58.3321 38.1385 58.0693 38.3232C57.8066 38.5078 57.6006 38.7517 57.4514 39.0547C57.3047 39.3577 57.2301 39.6892 57.2277 40.049V40.3828C57.2277 40.8161 57.3023 41.1948 57.4514 41.5192C57.603 41.8411 57.8172 42.0909 58.0942 42.2685C58.3712 42.446 58.6991 42.5348 59.0779 42.5348C59.3359 42.5348 59.562 42.4946 59.7561 42.4141C59.9526 42.3336 60.1172 42.2259 60.2497 42.0909C60.3847 41.9536 60.4865 41.8033 60.5551 41.6399L61.1553 41.8352C61.0724 42.0649 60.9363 42.2768 60.7469 42.4709C60.5599 42.665 60.3255 42.8213 60.0438 42.9396C59.7644 43.0556 59.4424 43.1136 59.0779 43.1136ZM66.3479 38.7422L65.7691 38.9055C65.7123 38.7422 65.6318 38.5942 65.5276 38.4616C65.4234 38.3291 65.2873 38.2237 65.1192 38.1456C64.9535 38.0675 64.7475 38.0284 64.5013 38.0284C64.132 38.0284 63.829 38.116 63.5922 38.2912C63.3555 38.4664 63.2371 38.6925 63.2371 38.9695C63.2371 39.2038 63.3176 39.3944 63.4786 39.5412C63.642 39.6856 63.8929 39.8004 64.2314 39.8857L65.0553 40.0881C65.5122 40.1993 65.8543 40.3757 66.0816 40.6172C66.3112 40.8587 66.426 41.1617 66.426 41.5263C66.426 41.834 66.3408 42.1075 66.1704 42.3466C65.9999 42.5857 65.762 42.7739 65.4566 42.9112C65.1536 43.0462 64.802 43.1136 64.4019 43.1136C63.8692 43.1136 63.4301 42.9941 63.0844 42.755C62.7388 42.5135 62.5174 42.1655 62.4204 41.7109L63.0276 41.5618C63.1057 41.8861 63.2584 42.1312 63.4857 42.2969C63.7153 42.4626 64.0172 42.5455 64.3912 42.5455C64.8103 42.5455 65.1453 42.4519 65.3962 42.2649C65.6472 42.0755 65.7726 41.8388 65.7726 41.5547C65.7726 41.3345 65.6992 41.1499 65.5525 41.0007C65.4057 40.8492 65.1831 40.7379 64.8849 40.6669L63.9935 40.4538C63.52 40.3402 63.1697 40.1603 62.9424 39.9141C62.7151 39.6679 62.6015 39.3625 62.6015 38.9979C62.6015 38.6972 62.6831 38.4332 62.8465 38.206C63.0099 37.9763 63.2348 37.7964 63.5212 37.6662C63.8077 37.536 64.1344 37.4709 64.5013 37.4709C65.0009 37.4709 65.3998 37.5845 65.6981 37.8118C65.9987 38.0367 66.2153 38.3468 66.3479 38.7422ZM72.771 37.5455V38.0959H70.1681V37.5455H72.771ZM70.9813 36.2386H71.6169V41.576C71.6169 41.8033 71.656 41.982 71.7341 42.1122C71.8122 42.2401 71.914 42.3312 72.0395 42.3857C72.165 42.4377 72.2987 42.4638 72.4408 42.4638C72.5236 42.4638 72.5947 42.459 72.6539 42.4496C72.713 42.4377 72.7651 42.4259 72.8101 42.4141L72.945 42.9858C72.8835 43.0095 72.8077 43.0308 72.7178 43.0497C72.6278 43.071 72.5165 43.0817 72.384 43.0817C72.152 43.0817 71.9282 43.0308 71.7128 42.929C71.4997 42.8272 71.3245 42.6757 71.1872 42.4744C71.0499 42.2732 70.9813 42.0234 70.9813 41.7251V36.2386ZM76.268 43.1136C75.7969 43.1136 75.3802 42.9941 75.018 42.755C74.6582 42.5159 74.3765 42.1856 74.1729 41.7642C73.9693 41.3404 73.8675 40.8516 73.8675 40.2976C73.8675 39.7389 73.9693 39.2476 74.1729 38.8239C74.3765 38.3977 74.6582 38.0663 75.018 37.8295C75.3802 37.5904 75.7969 37.4709 76.268 37.4709C76.7391 37.4709 77.1546 37.5904 77.5145 37.8295C77.8743 38.0687 78.156 38.4001 78.3596 38.8239C78.5656 39.2476 78.6686 39.7389 78.6686 40.2976C78.6686 40.8516 78.5668 41.3404 78.3632 41.7642C78.1596 42.1856 77.8767 42.5159 77.5145 42.755C77.1546 42.9941 76.7391 43.1136 76.268 43.1136ZM76.268 42.5348C76.6468 42.5348 76.9676 42.433 77.2304 42.2294C77.4932 42.0258 77.692 41.7547 77.827 41.4162C77.9643 41.0777 78.0329 40.7048 78.0329 40.2976C78.0329 39.8904 77.9643 39.5163 77.827 39.1754C77.692 38.8345 77.4932 38.5611 77.2304 38.3551C76.9676 38.1491 76.6468 38.0462 76.268 38.0462C75.8916 38.0462 75.5708 38.1491 75.3057 38.3551C75.0429 38.5611 74.8428 38.8345 74.7055 39.1754C74.5706 39.5163 74.5031 39.8904 74.5031 40.2976C74.5031 40.7048 74.5706 41.0777 74.7055 41.4162C74.8428 41.7547 75.0429 42.0258 75.3057 42.2294C75.5684 42.433 75.8892 42.5348 76.268 42.5348ZM83.0001 43V35.7273H83.6357V38.5859H83.6926C83.7636 38.4226 83.8654 38.2545 83.998 38.0817C84.1329 37.9089 84.3093 37.7644 84.5271 37.6484C84.7472 37.5301 85.0242 37.4709 85.358 37.4709C85.8055 37.4709 86.1985 37.5893 86.537 37.826C86.8756 38.0604 87.1395 38.3894 87.3289 38.8132C87.5183 39.2346 87.613 39.7259 87.613 40.2869C87.613 40.8504 87.5183 41.344 87.3289 41.7678C87.1419 42.1915 86.8791 42.5218 86.5406 42.7585C86.2044 42.9953 85.8138 43.1136 85.3687 43.1136C85.0373 43.1136 84.7603 43.0545 84.5377 42.9361C84.3176 42.8177 84.14 42.6721 84.0051 42.4993C83.8701 42.3241 83.766 42.1536 83.6926 41.9879H83.6144V43H83.0001ZM83.6251 40.2763C83.6251 40.7166 83.6902 41.1072 83.8204 41.4482C83.953 41.7867 84.1424 42.053 84.3886 42.2472C84.6372 42.4389 84.9378 42.5348 85.2906 42.5348C85.6528 42.5348 85.9594 42.4354 86.2103 42.2365C86.4613 42.0353 86.6518 41.7642 86.782 41.4233C86.9123 41.0824 86.9774 40.7 86.9774 40.2763C86.9774 39.8572 86.9123 39.4796 86.782 39.1435C86.6542 38.8073 86.4648 38.541 86.2139 38.3445C85.9629 38.1456 85.6552 38.0462 85.2906 38.0462C84.9355 38.0462 84.6336 38.142 84.385 38.3338C84.1388 38.5232 83.9506 38.786 83.8204 39.1222C83.6902 39.456 83.6251 39.8407 83.6251 40.2763ZM92.4674 40.9155V37.5455H93.0995V43H92.4674V42.0945H92.4177C92.2899 42.3738 92.0874 42.607 91.8105 42.794C91.5335 42.9787 91.1949 43.071 90.7948 43.071C90.4468 43.071 90.1379 42.9953 89.868 42.8438C89.5981 42.6899 89.3862 42.465 89.2323 42.169C89.0785 41.8731 89.0015 41.5097 89.0015 41.0788V37.5455H89.6336V41.0398C89.6336 41.4659 89.7591 41.8092 90.01 42.0696C90.261 42.3277 90.5829 42.4567 90.9759 42.4567C91.2222 42.4567 91.4589 42.3975 91.6862 42.2791C91.9134 42.1607 92.1005 41.9879 92.2472 41.7607C92.394 41.531 92.4674 41.2493 92.4674 40.9155ZM95.2133 45.0455C95.0879 45.0455 94.9707 45.0336 94.8618 45.0099C94.7529 44.9863 94.6665 44.9602 94.6025 44.9318L94.773 44.3743C94.9884 44.4406 95.1802 44.4643 95.3483 44.4453C95.5164 44.4287 95.6655 44.353 95.7957 44.218C95.9259 44.0855 96.0419 43.8819 96.1437 43.6072L96.3426 43.0533L94.3362 37.5455H95.0216L96.6409 42.1655H96.6906L98.3099 37.5455H98.9953L96.6871 43.8629C96.59 44.1257 96.4704 44.3447 96.3284 44.5199C96.1863 44.6974 96.0218 44.8288 95.8348 44.9141C95.6501 45.0017 95.443 45.0455 95.2133 45.0455ZM15.6958 55V49.5455H16.3102V50.3835H16.367C16.4759 50.1018 16.657 49.8804 16.9103 49.7195C17.166 49.5561 17.4726 49.4744 17.8301 49.4744C18.2065 49.4744 18.5154 49.5632 18.7569 49.7408C19.0008 49.916 19.1831 50.1574 19.3038 50.4652H19.35C19.4731 50.1622 19.6731 49.9219 19.9501 49.7443C20.2295 49.5644 20.568 49.4744 20.9657 49.4744C21.4724 49.4744 21.8725 49.6342 22.166 49.9538C22.4596 50.2711 22.6064 50.7351 22.6064 51.3459V55H21.9743V51.3459C21.9743 50.915 21.8642 50.5919 21.644 50.3764C21.4238 50.161 21.1338 50.0533 20.774 50.0533C20.3573 50.0533 20.0365 50.1811 19.8116 50.4368C19.5867 50.6925 19.4743 51.0168 19.4743 51.4098V55H18.8279V51.2891C18.8279 50.9197 18.725 50.6214 18.519 50.3942C18.313 50.1669 18.023 50.0533 17.649 50.0533C17.398 50.0533 17.1719 50.1148 16.9707 50.2379C16.7718 50.361 16.6144 50.5327 16.4984 50.7528C16.3848 50.9706 16.3279 51.2216 16.3279 51.5057V55H15.6958ZM26.3999 55.1136C25.9287 55.1136 25.5121 54.9941 25.1499 54.755C24.79 54.5159 24.5083 54.1856 24.3047 53.7642C24.1011 53.3404 23.9993 52.8516 23.9993 52.2976C23.9993 51.7389 24.1011 51.2476 24.3047 50.8239C24.5083 50.3977 24.79 50.0663 25.1499 49.8295C25.5121 49.5904 25.9287 49.4709 26.3999 49.4709C26.871 49.4709 27.2865 49.5904 27.6463 49.8295C28.0062 50.0687 28.2879 50.4001 28.4915 50.8239C28.6974 51.2476 28.8004 51.7389 28.8004 52.2976C28.8004 52.8516 28.6986 53.3404 28.495 53.7642C28.2914 54.1856 28.0085 54.5159 27.6463 54.755C27.2865 54.9941 26.871 55.1136 26.3999 55.1136ZM26.3999 54.5348C26.7786 54.5348 27.0994 54.433 27.3622 54.2294C27.625 54.0258 27.8239 53.7547 27.9588 53.4162C28.0961 53.0777 28.1648 52.7048 28.1648 52.2976C28.1648 51.8904 28.0961 51.5163 27.9588 51.1754C27.8239 50.8345 27.625 50.5611 27.3622 50.3551C27.0994 50.1491 26.7786 50.0462 26.3999 50.0462C26.0234 50.0462 25.7027 50.1491 25.4375 50.3551C25.1747 50.5611 24.9747 50.8345 24.8374 51.1754C24.7024 51.5163 24.6349 51.8904 24.6349 52.2976C24.6349 52.7048 24.7024 53.0777 24.8374 53.4162C24.9747 53.7547 25.1747 54.0258 25.4375 54.2294C25.7003 54.433 26.0211 54.5348 26.3999 54.5348ZM30.188 55V49.5455H30.8024V50.3835H30.8485C30.9574 50.1089 31.1468 49.8875 31.4167 49.7195C31.689 49.549 31.9967 49.4638 32.34 49.4638C32.3921 49.4638 32.4501 49.465 32.514 49.4673C32.5779 49.4697 32.6312 49.4721 32.6738 49.4744V50.1172C32.6454 50.1125 32.5957 50.1054 32.5247 50.0959C32.4537 50.0864 32.3767 50.0817 32.2939 50.0817C32.0098 50.0817 31.7565 50.142 31.5339 50.2628C31.3137 50.3812 31.1397 50.5457 31.0119 50.7564C30.8841 50.9671 30.8201 51.2074 30.8201 51.4773V55H30.188ZM35.7917 55.1136C35.2827 55.1136 34.8424 54.9953 34.4707 54.7585C34.099 54.5194 33.8114 54.1892 33.6078 53.7678C33.4065 53.344 33.3059 52.8563 33.3059 52.3047C33.3059 51.7554 33.4065 51.2678 33.6078 50.8416C33.8114 50.4131 34.0919 50.0781 34.4494 49.8366C34.8092 49.5928 35.2247 49.4709 35.6958 49.4709C35.9918 49.4709 36.277 49.5253 36.5517 49.6342C36.8263 49.7408 37.0725 49.9053 37.2903 50.1278C37.5105 50.348 37.6845 50.6262 37.8123 50.9624C37.9402 51.2962 38.0041 51.6915 38.0041 52.1484V52.4609H33.7427V51.9034H37.3578C37.3578 51.553 37.2868 51.2382 37.1447 50.9588C37.005 50.6771 36.8097 50.4545 36.5588 50.2912C36.3102 50.1278 36.0225 50.0462 35.6958 50.0462C35.3502 50.0462 35.046 50.1385 34.7832 50.3232C34.5204 50.5078 34.3145 50.7517 34.1653 51.0547C34.0185 51.3577 33.944 51.6892 33.9416 52.049V52.3828C33.9416 52.8161 34.0162 53.1948 34.1653 53.5192C34.3168 53.8411 34.5311 54.0909 34.8081 54.2685C35.085 54.446 35.4129 54.5348 35.7917 54.5348C36.0498 54.5348 36.2759 54.4946 36.47 54.4141C36.6665 54.3336 36.831 54.2259 36.9636 54.0909C37.0985 53.9536 37.2003 53.8033 37.269 53.6399L37.8691 53.8352C37.7863 54.0649 37.6502 54.2768 37.4608 54.4709C37.2737 54.665 37.0394 54.8213 36.7576 54.9396C36.4783 55.0556 36.1563 55.1136 35.7917 55.1136ZM44.3402 55.1136C43.8525 55.1136 43.4276 54.9917 43.0653 54.7479C42.7055 54.504 42.4261 54.1702 42.2273 53.7464C42.0284 53.3227 41.929 52.8397 41.929 52.2976C41.929 51.7507 42.0296 51.2642 42.2308 50.8381C42.4344 50.4119 42.7161 50.0781 43.076 49.8366C43.4358 49.5928 43.8537 49.4709 44.3295 49.4709C44.6941 49.4709 45.0244 49.5419 45.3203 49.6839C45.6162 49.8236 45.8601 50.0213 46.0518 50.277C46.246 50.5303 46.3679 50.8262 46.4176 51.1648H45.7784C45.7121 50.857 45.5523 50.5942 45.299 50.3764C45.0481 50.1562 44.7285 50.0462 44.3402 50.0462C43.9922 50.0462 43.6844 50.1409 43.4169 50.3303C43.1494 50.5173 42.9399 50.7789 42.7884 51.1151C42.6392 51.4489 42.5646 51.8359 42.5646 52.2763C42.5646 52.719 42.638 53.1108 42.7848 53.4517C42.9316 53.7902 43.1375 54.0554 43.4027 54.2472C43.6702 54.4389 43.9827 54.5348 44.3402 54.5348C44.5817 54.5348 44.8018 54.4898 45.0007 54.3999C45.2019 54.3075 45.37 54.1773 45.505 54.0092C45.6423 53.8411 45.7346 53.6411 45.782 53.4091H46.4212C46.3738 53.7382 46.2566 54.0317 46.0696 54.2898C45.8849 54.5455 45.6446 54.7467 45.3487 54.8935C45.0552 55.0402 44.719 55.1136 44.3402 55.1136ZM49.896 55.1136C49.4248 55.1136 49.0082 54.9941 48.646 54.755C48.2861 54.5159 48.0044 54.1856 47.8008 53.7642C47.5972 53.3404 47.4954 52.8516 47.4954 52.2976C47.4954 51.7389 47.5972 51.2476 47.8008 50.8239C48.0044 50.3977 48.2861 50.0663 48.646 49.8295C49.0082 49.5904 49.4248 49.4709 49.896 49.4709C50.3671 49.4709 50.7826 49.5904 51.1424 49.8295C51.5022 50.0687 51.784 50.4001 51.9876 50.8239C52.1935 51.2476 52.2965 51.7389 52.2965 52.2976C52.2965 52.8516 52.1947 53.3404 51.9911 53.7642C51.7875 54.1856 51.5046 54.5159 51.1424 54.755C50.7826 54.9941 50.3671 55.1136 49.896 55.1136ZM49.896 54.5348C50.2747 54.5348 50.5955 54.433 50.8583 54.2294C51.1211 54.0258 51.32 53.7547 51.4549 53.4162C51.5922 53.0777 51.6609 52.7048 51.6609 52.2976C51.6609 51.8904 51.5922 51.5163 51.4549 51.1754C51.32 50.8345 51.1211 50.5611 50.8583 50.3551C50.5955 50.1491 50.2747 50.0462 49.896 50.0462C49.5195 50.0462 49.1987 50.1491 48.9336 50.3551C48.6708 50.5611 48.4708 50.8345 48.3335 51.1754C48.1985 51.5163 48.131 51.8904 48.131 52.2976C48.131 52.7048 48.1985 53.0777 48.3335 53.4162C48.4708 53.7547 48.6708 54.0258 48.9336 54.2294C49.1964 54.433 49.5172 54.5348 49.896 54.5348ZM57.15 52.9155V49.5455H57.7821V55H57.15V54.0945H57.1003C56.9725 54.3738 56.7701 54.607 56.4931 54.794C56.2161 54.9787 55.8775 55.071 55.4775 55.071C55.1294 55.071 54.8205 54.9953 54.5506 54.8438C54.2807 54.6899 54.0688 54.465 53.915 54.169C53.7611 53.8731 53.6841 53.5097 53.6841 53.0788V49.5455H54.3162V53.0398C54.3162 53.4659 54.4417 53.8092 54.6926 54.0696C54.9436 54.3277 55.2656 54.4567 55.6586 54.4567C55.9048 54.4567 56.1415 54.3975 56.3688 54.2791C56.5961 54.1607 56.7831 53.9879 56.9299 53.7607C57.0766 53.531 57.15 53.2493 57.15 52.9155ZM59.4556 55V49.5455H60.07V50.3835H60.1161C60.225 50.1089 60.4144 49.8875 60.6843 49.7195C60.9566 49.549 61.2643 49.4638 61.6076 49.4638C61.6597 49.4638 61.7177 49.465 61.7816 49.4673C61.8455 49.4697 61.8988 49.4721 61.9414 49.4744V50.1172C61.913 50.1125 61.8633 50.1054 61.7923 50.0959C61.7212 50.0864 61.6443 50.0817 61.5614 50.0817C61.2773 50.0817 61.024 50.142 60.8015 50.2628C60.5813 50.3812 60.4073 50.5457 60.2795 50.7564C60.1516 50.9671 60.0877 51.2074 60.0877 51.4773V55H59.4556ZM66.6848 50.7422L66.106 50.9055C66.0492 50.7422 65.9687 50.5942 65.8645 50.4616C65.7604 50.3291 65.6242 50.2237 65.4561 50.1456C65.2904 50.0675 65.0845 50.0284 64.8382 50.0284C64.4689 50.0284 64.1659 50.116 63.9292 50.2912C63.6924 50.4664 63.574 50.6925 63.574 50.9695C63.574 51.2038 63.6545 51.3944 63.8155 51.5412C63.9789 51.6856 64.2298 51.8004 64.5684 51.8857L65.3922 52.0881C65.8491 52.1993 66.1912 52.3757 66.4185 52.6172C66.6481 52.8587 66.763 53.1617 66.763 53.5263C66.763 53.834 66.6777 54.1075 66.5073 54.3466C66.3368 54.5857 66.0989 54.7739 65.7935 54.9112C65.4905 55.0462 65.1389 55.1136 64.7388 55.1136C64.2061 55.1136 63.767 54.9941 63.4213 54.755C63.0757 54.5135 62.8543 54.1655 62.7573 53.7109L63.3645 53.5618C63.4426 53.8861 63.5953 54.1312 63.8226 54.2969C64.0523 54.4626 64.3541 54.5455 64.7282 54.5455C65.1472 54.5455 65.4822 54.4519 65.7331 54.2649C65.9841 54.0755 66.1096 53.8388 66.1096 53.5547C66.1096 53.3345 66.0362 53.1499 65.8894 53.0007C65.7426 52.8492 65.5201 52.7379 65.2218 52.6669L64.3304 52.4538C63.8569 52.3402 63.5066 52.1603 63.2793 51.9141C63.052 51.6679 62.9384 51.3625 62.9384 50.9979C62.9384 50.6972 63.0201 50.4332 63.1834 50.206C63.3468 49.9763 63.5717 49.7964 63.8581 49.6662C64.1446 49.536 64.4713 49.4709 64.8382 49.4709C65.3378 49.4709 65.7367 49.5845 66.035 49.8118C66.3356 50.0367 66.5523 50.3468 66.6848 50.7422ZM70.3523 55.1136C69.8433 55.1136 69.4029 54.9953 69.0312 54.7585C68.6596 54.5194 68.3719 54.1892 68.1683 53.7678C67.9671 53.344 67.8665 52.8563 67.8665 52.3047C67.8665 51.7554 67.9671 51.2678 68.1683 50.8416C68.3719 50.4131 68.6525 50.0781 69.0099 49.8366C69.3698 49.5928 69.7853 49.4709 70.2564 49.4709C70.5523 49.4709 70.8376 49.5253 71.1122 49.6342C71.3868 49.7408 71.633 49.9053 71.8509 50.1278C72.071 50.348 72.245 50.6262 72.3729 50.9624C72.5007 51.2962 72.5646 51.6915 72.5646 52.1484V52.4609H68.3033V51.9034H71.9183C71.9183 51.553 71.8473 51.2382 71.7053 50.9588C71.5656 50.6771 71.3703 50.4545 71.1193 50.2912C70.8707 50.1278 70.5831 50.0462 70.2564 50.0462C69.9107 50.0462 69.6065 50.1385 69.3438 50.3232C69.081 50.5078 68.875 50.7517 68.7259 51.0547C68.5791 51.3577 68.5045 51.6892 68.5021 52.049V52.3828C68.5021 52.8161 68.5767 53.1948 68.7259 53.5192C68.8774 53.8411 69.0916 54.0909 69.3686 54.2685C69.6456 54.446 69.9735 54.5348 70.3523 54.5348C70.6103 54.5348 70.8364 54.4946 71.0305 54.4141C71.227 54.3336 71.3916 54.2259 71.5241 54.0909C71.6591 53.9536 71.7609 53.8033 71.8295 53.6399L72.4297 53.8352C72.3468 54.0649 72.2107 54.2768 72.0213 54.4709C71.8343 54.665 71.5999 54.8213 71.3182 54.9396C71.0388 55.0556 70.7169 55.1136 70.3523 55.1136ZM77.6223 50.7422L77.0435 50.9055C76.9867 50.7422 76.9062 50.5942 76.802 50.4616C76.6979 50.3291 76.5617 50.2237 76.3936 50.1456C76.2279 50.0675 76.022 50.0284 75.7757 50.0284C75.4064 50.0284 75.1034 50.116 74.8667 50.2912C74.6299 50.4664 74.5115 50.6925 74.5115 50.9695C74.5115 51.2038 74.592 51.3944 74.753 51.5412C74.9164 51.6856 75.1673 51.8004 75.5059 51.8857L76.3297 52.0881C76.7866 52.1993 77.1287 52.3757 77.356 52.6172C77.5856 52.8587 77.7005 53.1617 77.7005 53.5263C77.7005 53.834 77.6152 54.1075 77.4448 54.3466C77.2743 54.5857 77.0364 54.7739 76.731 54.9112C76.428 55.0462 76.0764 55.1136 75.6763 55.1136C75.1436 55.1136 74.7045 54.9941 74.3588 54.755C74.0132 54.5135 73.7918 54.1655 73.6948 53.7109L74.302 53.5618C74.3801 53.8861 74.5328 54.1312 74.7601 54.2969C74.9898 54.4626 75.2916 54.5455 75.6657 54.5455C76.0847 54.5455 76.4197 54.4519 76.6706 54.2649C76.9216 54.0755 77.0471 53.8388 77.0471 53.5547C77.0471 53.3345 76.9737 53.1499 76.8269 53.0007C76.6801 52.8492 76.4576 52.7379 76.1593 52.6669L75.2679 52.4538C74.7944 52.3402 74.4441 52.1603 74.2168 51.9141C73.9895 51.6679 73.8759 51.3625 73.8759 50.9979C73.8759 50.6972 73.9576 50.4332 74.1209 50.206C74.2843 49.9763 74.5092 49.7964 74.7956 49.6662C75.0821 49.536 75.4088 49.4709 75.7757 49.4709C76.2753 49.4709 76.6742 49.5845 76.9725 49.8118C77.2731 50.0367 77.4898 50.3468 77.6223 50.7422ZM84.017 55.1136C83.5459 55.1136 83.1293 54.9941 82.767 54.755C82.4072 54.5159 82.1255 54.1856 81.9219 53.7642C81.7183 53.3404 81.6165 52.8516 81.6165 52.2976C81.6165 51.7389 81.7183 51.2476 81.9219 50.8239C82.1255 50.3977 82.4072 50.0663 82.767 49.8295C83.1293 49.5904 83.5459 49.4709 84.017 49.4709C84.4882 49.4709 84.9036 49.5904 85.2635 49.8295C85.6233 50.0687 85.9051 50.4001 86.1087 50.8239C86.3146 51.2476 86.4176 51.7389 86.4176 52.2976C86.4176 52.8516 86.3158 53.3404 86.1122 53.7642C85.9086 54.1856 85.6257 54.5159 85.2635 54.755C84.9036 54.9941 84.4882 55.1136 84.017 55.1136ZM84.017 54.5348C84.3958 54.5348 84.7166 54.433 84.9794 54.2294C85.2422 54.0258 85.4411 53.7547 85.576 53.4162C85.7133 53.0777 85.782 52.7048 85.782 52.2976C85.782 51.8904 85.7133 51.5163 85.576 51.1754C85.4411 50.8345 85.2422 50.5611 84.9794 50.3551C84.7166 50.1491 84.3958 50.0462 84.017 50.0462C83.6406 50.0462 83.3198 50.1491 83.0547 50.3551C82.7919 50.5611 82.5919 50.8345 82.4545 51.1754C82.3196 51.5163 82.2521 51.8904 82.2521 52.2976C82.2521 52.7048 82.3196 53.0777 82.4545 53.4162C82.5919 53.7547 82.7919 54.0258 83.0547 54.2294C83.3175 54.433 83.6383 54.5348 84.017 54.5348ZM88.4373 51.5909V55H87.8052V49.5455H88.4196V50.4013H88.4764C88.6042 50.1219 88.8031 49.8982 89.073 49.7301C89.3452 49.5597 89.6814 49.4744 90.0815 49.4744C90.4484 49.4744 90.7704 49.5514 91.0474 49.7053C91.3268 49.8568 91.5434 50.0805 91.6973 50.3764C91.8535 50.6723 91.9316 51.0357 91.9316 51.4666V55H91.2995V51.5057C91.2995 51.0582 91.1741 50.7043 90.9231 50.4439C90.6745 50.1835 90.3407 50.0533 89.9217 50.0533C89.6352 50.0533 89.3807 50.1148 89.1582 50.2379C88.9357 50.361 88.7593 50.5386 88.6291 50.7706C88.5012 51.0002 88.4373 51.2737 88.4373 51.5909ZM95.7269 55.1136C95.2392 55.1136 94.8143 54.9917 94.4521 54.7479C94.0922 54.504 93.8129 54.1702 93.614 53.7464C93.4151 53.3227 93.3157 52.8397 93.3157 52.2976C93.3157 51.7507 93.4163 51.2642 93.6175 50.8381C93.8211 50.4119 94.1029 50.0781 94.4627 49.8366C94.8226 49.5928 95.2404 49.4709 95.7163 49.4709C96.0808 49.4709 96.4111 49.5419 96.707 49.6839C97.003 49.8236 97.2468 50.0213 97.4386 50.277C97.6327 50.5303 97.7546 50.8262 97.8043 51.1648H97.1651C97.0988 50.857 96.939 50.5942 96.6857 50.3764C96.4348 50.1562 96.1152 50.0462 95.7269 50.0462C95.3789 50.0462 95.0711 50.1409 94.8036 50.3303C94.5361 50.5173 94.3266 50.7789 94.1751 51.1151C94.0259 51.4489 93.9513 51.8359 93.9513 52.2763C93.9513 52.719 94.0247 53.1108 94.1715 53.4517C94.3183 53.7902 94.5243 54.0554 94.7894 54.2472C95.0569 54.4389 95.3694 54.5348 95.7269 54.5348C95.9684 54.5348 96.1886 54.4898 96.3874 54.3999C96.5887 54.3075 96.7567 54.1773 96.8917 54.0092C97.029 53.8411 97.1213 53.6411 97.1687 53.4091H97.8079C97.7605 53.7382 97.6433 54.0317 97.4563 54.2898C97.2717 54.5455 97.0314 54.7467 96.7354 54.8935C96.4419 55.0402 96.1057 55.1136 95.7269 55.1136ZM101.368 55.1136C100.859 55.1136 100.419 54.9953 100.047 54.7585C99.6752 54.5194 99.3875 54.1892 99.1839 53.7678C98.9827 53.344 98.8821 52.8563 98.8821 52.3047C98.8821 51.7554 98.9827 51.2678 99.1839 50.8416C99.3875 50.4131 99.6681 50.0781 100.026 49.8366C100.385 49.5928 100.801 49.4709 101.272 49.4709C101.568 49.4709 101.853 49.5253 102.128 49.6342C102.402 49.7408 102.649 49.9053 102.866 50.1278C103.087 50.348 103.261 50.6262 103.388 50.9624C103.516 51.2962 103.58 51.6915 103.58 52.1484V52.4609H99.3189V51.9034H102.934C102.934 51.553 102.863 51.2382 102.721 50.9588C102.581 50.6771 102.386 50.4545 102.135 50.2912C101.886 50.1278 101.599 50.0462 101.272 50.0462C100.926 50.0462 100.622 50.1385 100.359 50.3232C100.097 50.5078 99.8906 50.7517 99.7415 51.0547C99.5947 51.3577 99.5201 51.6892 99.5178 52.049V52.3828C99.5178 52.8161 99.5923 53.1948 99.7415 53.5192C99.893 53.8411 100.107 54.0909 100.384 54.2685C100.661 54.446 100.989 54.5348 101.368 54.5348C101.626 54.5348 101.852 54.4946 102.046 54.4141C102.243 54.3336 102.407 54.2259 102.54 54.0909C102.675 53.9536 102.777 53.8033 102.845 53.6399L103.445 53.8352C103.362 54.0649 103.226 54.2768 103.037 54.4709C102.85 54.665 102.616 54.8213 102.334 54.9396C102.054 55.0556 101.732 55.1136 101.368 55.1136ZM18.6451 61.5455V62.0959H16.0421V61.5455H18.6451ZM16.8553 60.2386H17.4909V65.576C17.4909 65.8033 17.53 65.982 17.6081 66.1122C17.6863 66.2401 17.7881 66.3312 17.9135 66.3857C18.039 66.4377 18.1728 66.4638 18.3148 66.4638C18.3977 66.4638 18.4687 66.459 18.5279 66.4496C18.5871 66.4377 18.6391 66.4259 18.6841 66.4141L18.8191 66.9858C18.7575 67.0095 18.6818 67.0308 18.5918 67.0497C18.5018 67.071 18.3906 67.0817 18.258 67.0817C18.026 67.0817 17.8023 67.0308 17.5868 66.929C17.3738 66.8272 17.1986 66.6757 17.0613 66.4744C16.9239 66.2732 16.8553 66.0234 16.8553 65.7251V60.2386ZM20.8299 63.5909V67H20.1978V59.7273H20.8299V62.4013H20.8867C21.0146 62.1196 21.2122 61.8946 21.4798 61.7266C21.7496 61.5585 22.0906 61.4744 22.5025 61.4744C22.8718 61.4744 23.1961 61.5502 23.4755 61.7017C23.7549 61.8532 23.9727 62.0769 24.1289 62.3729C24.2852 62.6688 24.3633 63.0334 24.3633 63.4666V67H23.7276V63.5057C23.7276 63.0559 23.6022 62.7019 23.3512 62.4439C23.1026 62.1835 22.7665 62.0533 22.3427 62.0533C22.0515 62.0533 21.7923 62.1148 21.565 62.2379C21.3377 62.361 21.1578 62.5386 21.0252 62.7706C20.895 63.0002 20.8299 63.2737 20.8299 63.5909ZM28.2331 67.1136C27.7241 67.1136 27.2838 66.9953 26.9121 66.7585C26.5404 66.5194 26.2528 66.1892 26.0492 65.7678C25.848 65.344 25.7473 64.8563 25.7473 64.3047C25.7473 63.7554 25.848 63.2678 26.0492 62.8416C26.2528 62.4131 26.5333 62.0781 26.8908 61.8366C27.2507 61.5928 27.6661 61.4709 28.1373 61.4709C28.4332 61.4709 28.7185 61.5253 28.9931 61.6342C29.2677 61.7408 29.5139 61.9053 29.7317 62.1278C29.9519 62.348 30.1259 62.6262 30.2537 62.9624C30.3816 63.2962 30.4455 63.6915 30.4455 64.1484V64.4609H26.1841V63.9034H29.7992C29.7992 63.553 29.7282 63.2382 29.5861 62.9588C29.4464 62.6771 29.2511 62.4545 29.0002 62.2912C28.7516 62.1278 28.464 62.0462 28.1373 62.0462C27.7916 62.0462 27.4874 62.1385 27.2246 62.3232C26.9618 62.5078 26.7559 62.7517 26.6067 63.0547C26.4599 63.3577 26.3854 63.6892 26.383 64.049V64.3828C26.383 64.8161 26.4576 65.1948 26.6067 65.5192C26.7582 65.8411 26.9725 66.0909 27.2495 66.2685C27.5265 66.446 27.8543 66.5348 28.2331 66.5348C28.4912 66.5348 28.7173 66.4946 28.9114 66.4141C29.1079 66.3336 29.2724 66.2259 29.405 66.0909C29.54 65.9536 29.6417 65.8033 29.7104 65.6399L30.3105 65.8352C30.2277 66.0649 30.0916 66.2768 29.9022 66.4709C29.7151 66.665 29.4808 66.8213 29.199 66.9396C28.9197 67.0556 28.5977 67.1136 28.2331 67.1136ZM34.6509 69.0455V61.5455H35.2653V62.5859H35.3398C35.4156 62.4226 35.5198 62.2557 35.6523 62.0852C35.7849 61.9124 35.9601 61.7668 36.1779 61.6484C36.3981 61.5301 36.6751 61.4709 37.0089 61.4709C37.4587 61.4709 37.8517 61.5893 38.1879 61.826C38.5264 62.0604 38.7892 62.3894 38.9762 62.8132C39.1656 63.2346 39.2603 63.7259 39.2603 64.2869C39.2603 64.8504 39.1656 65.344 38.9762 65.7678C38.7892 66.1915 38.5264 66.5218 38.1879 66.7585C37.8517 66.9953 37.4611 67.1136 37.016 67.1136C36.6869 67.1136 36.4111 67.0545 36.1886 66.9361C35.9684 66.8177 35.7897 66.6721 35.6523 66.4993C35.5174 66.3241 35.4132 66.1536 35.3398 65.9879H35.283V69.0455H34.6509ZM35.2759 64.2763C35.2759 64.7166 35.341 65.1072 35.4712 65.4482C35.6038 65.7867 35.7932 66.053 36.0394 66.2472C36.288 66.4389 36.5887 66.5348 36.9414 66.5348C37.3036 66.5348 37.609 66.4354 37.8576 66.2365C38.1085 66.0353 38.2991 65.7642 38.4293 65.4233C38.5619 65.0824 38.6282 64.7 38.6282 64.2763C38.6282 63.8572 38.5631 63.4796 38.4329 63.1435C38.305 62.8073 38.1156 62.541 37.8647 62.3445C37.6138 62.1456 37.306 62.0462 36.9414 62.0462C36.5863 62.0462 36.2844 62.142 36.0359 62.3338C35.7873 62.5232 35.5979 62.786 35.4677 63.1222C35.3398 63.456 35.2759 63.8407 35.2759 64.2763ZM44.1129 64.9155V61.5455H44.745V67H44.1129V66.0945H44.0632C43.9354 66.3738 43.733 66.607 43.456 66.794C43.179 66.9787 42.8404 67.071 42.4403 67.071C42.0923 67.071 41.7834 66.9953 41.5135 66.8438C41.2436 66.6899 41.0317 66.465 40.8778 66.169C40.724 65.8731 40.647 65.5097 40.647 65.0788V61.5455H41.2791V65.0398C41.2791 65.4659 41.4046 65.8092 41.6555 66.0696C41.9065 66.3277 42.2285 66.4567 42.6214 66.4567C42.8677 66.4567 43.1044 66.3975 43.3317 66.2791C43.5589 66.1607 43.746 65.9879 43.8928 65.7607C44.0395 65.531 44.1129 65.2493 44.1129 64.9155ZM46.4185 67V61.5455H47.0328V62.3835H47.079C47.1879 62.1089 47.3773 61.8875 47.6472 61.7195C47.9194 61.549 48.2272 61.4638 48.5705 61.4638C48.6226 61.4638 48.6806 61.465 48.7445 61.4673C48.8084 61.4697 48.8617 61.4721 48.9043 61.4744V62.1172C48.8759 62.1125 48.8262 62.1054 48.7551 62.0959C48.6841 62.0864 48.6072 62.0817 48.5243 62.0817C48.2402 62.0817 47.9869 62.142 47.7644 62.2628C47.5442 62.3812 47.3702 62.5457 47.2424 62.7564C47.1145 62.9671 47.0506 63.2074 47.0506 63.4773V67H46.4185ZM51.9476 67.1136C51.4599 67.1136 51.035 66.9917 50.6728 66.7479C50.3129 66.504 50.0336 66.1702 49.8347 65.7464C49.6358 65.3227 49.5364 64.8397 49.5364 64.2976C49.5364 63.7507 49.637 63.2642 49.8382 62.8381C50.0418 62.4119 50.3236 62.0781 50.6834 61.8366C51.0433 61.5928 51.4611 61.4709 51.937 61.4709C52.3016 61.4709 52.6318 61.5419 52.9277 61.6839C53.2237 61.8236 53.4675 62.0213 53.6593 62.277C53.8534 62.5303 53.9753 62.8262 54.025 63.1648H53.3858C53.3195 62.857 53.1597 62.5942 52.9064 62.3764C52.6555 62.1562 52.3359 62.0462 51.9476 62.0462C51.5996 62.0462 51.2918 62.1409 51.0243 62.3303C50.7568 62.5173 50.5473 62.7789 50.3958 63.1151C50.2466 63.4489 50.1721 63.8359 50.1721 64.2763C50.1721 64.719 50.2454 65.1108 50.3922 65.4517C50.539 65.7902 50.745 66.0554 51.0101 66.2472C51.2776 66.4389 51.5901 66.5348 51.9476 66.5348C52.1891 66.5348 52.4093 66.4898 52.6081 66.3999C52.8094 66.3075 52.9775 66.1773 53.1124 66.0092C53.2497 65.8411 53.342 65.6411 53.3894 65.4091H54.0286C53.9812 65.7382 53.8641 66.0317 53.677 66.2898C53.4924 66.5455 53.2521 66.7467 52.9561 66.8935C52.6626 67.0402 52.3264 67.1136 51.9476 67.1136ZM56.0154 63.5909V67H55.3833V59.7273H56.0154V62.4013H56.0723C56.2001 62.1196 56.3978 61.8946 56.6653 61.7266C56.9352 61.5585 57.2761 61.4744 57.688 61.4744C58.0574 61.4744 58.3817 61.5502 58.661 61.7017C58.9404 61.8532 59.1582 62.0769 59.3145 62.3729C59.4707 62.6688 59.5488 63.0334 59.5488 63.4666V67H58.9132V63.5057C58.9132 63.0559 58.7877 62.7019 58.5368 62.4439C58.2882 62.1835 57.952 62.0533 57.5282 62.0533C57.237 62.0533 56.9778 62.1148 56.7505 62.2379C56.5233 62.361 56.3433 62.5386 56.2108 62.7706C56.0806 63.0002 56.0154 63.2737 56.0154 63.5909ZM62.7369 67.1243C62.4078 67.1243 62.1071 67.0604 61.8349 66.9325C61.5626 66.8023 61.346 66.6153 61.185 66.3714C61.024 66.1252 60.9435 65.8269 60.9435 65.4766C60.9435 65.2067 60.9944 64.9794 61.0962 64.7947C61.198 64.6101 61.3424 64.4586 61.5295 64.3402C61.7165 64.2218 61.9379 64.1283 62.1935 64.0597C62.4492 63.991 62.7309 63.9377 63.0387 63.8999C63.3441 63.862 63.6022 63.8288 63.8129 63.8004C64.0259 63.772 64.1881 63.727 64.2994 63.6655C64.4106 63.6039 64.4663 63.5045 64.4663 63.3672V63.2393C64.4663 62.8677 64.355 62.5753 64.1325 62.3622C63.9123 62.1468 63.5951 62.0391 63.1808 62.0391C62.7878 62.0391 62.467 62.1255 62.2184 62.2983C61.9722 62.4711 61.7994 62.6747 61.6999 62.9091L61.0998 62.6925C61.2229 62.3942 61.3933 62.1562 61.6112 61.9787C61.829 61.7988 62.0728 61.6697 62.3427 61.5916C62.6126 61.5111 62.886 61.4709 63.163 61.4709C63.3713 61.4709 63.5879 61.4981 63.8129 61.5526C64.0401 61.607 64.2508 61.7017 64.445 61.8366C64.6391 61.9692 64.7965 62.1551 64.9173 62.3942C65.038 62.6309 65.0984 62.9316 65.0984 63.2962V67H64.4663V66.1371H64.4272C64.3514 66.2981 64.239 66.4543 64.0898 66.6058C63.9407 66.7573 63.7537 66.8816 63.5288 66.9787C63.3039 67.0758 63.0399 67.1243 62.7369 67.1243ZM62.8221 66.5455C63.1583 66.5455 63.4495 66.4709 63.6957 66.3217C63.9419 66.1726 64.1313 65.9749 64.2638 65.7287C64.3988 65.4801 64.4663 65.2067 64.4663 64.9084V64.12C64.4189 64.165 64.3396 64.2053 64.2283 64.2408C64.1194 64.2763 63.9928 64.3082 63.8484 64.3366C63.7063 64.3627 63.5643 64.3852 63.4222 64.4041C63.2802 64.4231 63.1523 64.4396 63.0387 64.4538C62.7309 64.4917 62.4682 64.5509 62.2504 64.6314C62.0326 64.7119 61.8656 64.8232 61.7496 64.9652C61.6336 65.1049 61.5756 65.2848 61.5756 65.505C61.5756 65.8364 61.694 66.0933 61.9308 66.2756C62.1675 66.4555 62.4646 66.5455 62.8221 66.5455ZM70.4446 62.7422L69.8658 62.9055C69.8089 62.7422 69.7285 62.5942 69.6243 62.4616C69.5201 62.3291 69.384 62.2237 69.2159 62.1456C69.0502 62.0675 68.8442 62.0284 68.598 62.0284C68.2287 62.0284 67.9257 62.116 67.6889 62.2912C67.4522 62.4664 67.3338 62.6925 67.3338 62.9695C67.3338 63.2038 67.4143 63.3944 67.5753 63.5412C67.7386 63.6856 67.9896 63.8004 68.3281 63.8857L69.152 64.0881C69.6089 64.1993 69.951 64.3757 70.1783 64.6172C70.4079 64.8587 70.5227 65.1617 70.5227 65.5263C70.5227 65.834 70.4375 66.1075 70.267 66.3466C70.0966 66.5857 69.8587 66.7739 69.5533 66.9112C69.2502 67.0462 68.8987 67.1136 68.4986 67.1136C67.9659 67.1136 67.5268 66.9941 67.1811 66.755C66.8355 66.5135 66.6141 66.1655 66.517 65.7109L67.1243 65.5618C67.2024 65.8861 67.3551 66.1312 67.5824 66.2969C67.812 66.4626 68.1139 66.5455 68.4879 66.5455C68.907 66.5455 69.242 66.4519 69.4929 66.2649C69.7438 66.0755 69.8693 65.8388 69.8693 65.5547C69.8693 65.3345 69.7959 65.1499 69.6491 65.0007C69.5024 64.8492 69.2798 64.7379 68.9815 64.6669L68.0902 64.4538C67.6167 64.3402 67.2663 64.1603 67.0391 63.9141C66.8118 63.6679 66.6982 63.3625 66.6982 62.9979C66.6982 62.6972 66.7798 62.4332 66.9432 62.206C67.1065 61.9763 67.3314 61.7964 67.6179 61.6662C67.9044 61.536 68.2311 61.4709 68.598 61.4709C69.0975 61.4709 69.4964 61.5845 69.7947 61.8118C70.0954 62.0367 70.312 62.3468 70.4446 62.7422ZM74.112 67.1136C73.603 67.1136 73.1627 66.9953 72.791 66.7585C72.4193 66.5194 72.1317 66.1892 71.9281 65.7678C71.7269 65.344 71.6262 64.8563 71.6262 64.3047C71.6262 63.7554 71.7269 63.2678 71.9281 62.8416C72.1317 62.4131 72.4122 62.0781 72.7697 61.8366C73.1296 61.5928 73.545 61.4709 74.0162 61.4709C74.3121 61.4709 74.5974 61.5253 74.872 61.6342C75.1466 61.7408 75.3928 61.9053 75.6106 62.1278C75.8308 62.348 76.0048 62.6262 76.1326 62.9624C76.2605 63.2962 76.3244 63.6915 76.3244 64.1484V64.4609H72.063V63.9034H75.6781C75.6781 63.553 75.6071 63.2382 75.465 62.9588C75.3253 62.6771 75.13 62.4545 74.8791 62.2912C74.6305 62.1278 74.3429 62.0462 74.0162 62.0462C73.6705 62.0462 73.3663 62.1385 73.1035 62.3232C72.8407 62.5078 72.6348 62.7517 72.4856 63.0547C72.3388 63.3577 72.2643 63.6892 72.2619 64.049V64.3828C72.2619 64.8161 72.3365 65.1948 72.4856 65.5192C72.6371 65.8411 72.8514 66.0909 73.1284 66.2685C73.4054 66.446 73.7333 66.5348 74.112 66.5348C74.3701 66.5348 74.5962 66.4946 74.7903 66.4141C74.9868 66.3336 75.1513 66.2259 75.2839 66.0909C75.4189 65.9536 75.5207 65.8033 75.5893 65.6399L76.1895 65.8352C76.1066 66.0649 75.9705 66.2768 75.7811 66.4709C75.594 66.665 75.3597 66.8213 75.0779 66.9396C74.7986 67.0556 74.4766 67.1136 74.112 67.1136ZM79.6811 67.1136C79.2337 67.1136 78.8419 66.9953 78.5057 66.7585C78.1695 66.5218 77.9067 66.1915 77.7173 65.7678C77.5303 65.344 77.4368 64.8504 77.4368 64.2869C77.4368 63.7259 77.5303 63.2346 77.7173 62.8132C77.9067 62.3894 78.1707 62.0604 78.5092 61.826C78.8478 61.5893 79.242 61.4709 79.6918 61.4709C80.0232 61.4709 80.299 61.5301 80.5192 61.6484C80.7393 61.7644 80.9157 61.9089 81.0483 62.0817C81.1809 62.2545 81.2839 62.4226 81.3572 62.5859H81.4141V59.7273H82.0497V67H81.4318V65.9879H81.3572C81.2839 66.1536 81.1797 66.3241 81.0447 66.4993C80.9098 66.6721 80.7311 66.8177 80.5085 66.9361C80.2884 67.0545 80.0125 67.1136 79.6811 67.1136ZM79.7557 66.5348C80.1084 66.5348 80.4091 66.4389 80.6577 66.2472C80.9063 66.053 81.0956 65.7867 81.2259 65.4482C81.3584 65.1072 81.4247 64.7166 81.4247 64.2763C81.4247 63.8407 81.3596 63.456 81.2294 63.1222C81.0992 62.786 80.9098 62.5232 80.6612 62.3338C80.4126 62.142 80.1108 62.0462 79.7557 62.0462C79.3911 62.0462 79.0833 62.1456 78.8324 62.3445C78.5838 62.541 78.3944 62.8073 78.2642 63.1435C78.1364 63.4796 78.0724 63.8572 78.0724 64.2763C78.0724 64.7 78.1375 65.0824 78.2678 65.4233C78.398 65.7642 78.5874 66.0353 78.8359 66.2365C79.0869 66.4354 79.3935 66.5348 79.7557 66.5348ZM88.7827 67.1136C88.3116 67.1136 87.8949 66.9941 87.5327 66.755C87.1728 66.5159 86.8911 66.1856 86.6875 65.7642C86.4839 65.3404 86.3821 64.8516 86.3821 64.2976C86.3821 63.7389 86.4839 63.2476 86.6875 62.8239C86.8911 62.3977 87.1728 62.0663 87.5327 61.8295C87.8949 61.5904 88.3116 61.4709 88.7827 61.4709C89.2538 61.4709 89.6693 61.5904 90.0291 61.8295C90.389 62.0687 90.6707 62.4001 90.8743 62.8239C91.0803 63.2476 91.1832 63.7389 91.1832 64.2976C91.1832 64.8516 91.0814 65.3404 90.8778 65.7642C90.6742 66.1856 90.3913 66.5159 90.0291 66.755C89.6693 66.9941 89.2538 67.1136 88.7827 67.1136ZM88.7827 66.5348C89.1615 66.5348 89.4822 66.433 89.745 66.2294C90.0078 66.0258 90.2067 65.7547 90.3416 65.4162C90.4789 65.0777 90.5476 64.7048 90.5476 64.2976C90.5476 63.8904 90.4789 63.5163 90.3416 63.1754C90.2067 62.8345 90.0078 62.5611 89.745 62.3551C89.4822 62.1491 89.1615 62.0462 88.7827 62.0462C88.4063 62.0462 88.0855 62.1491 87.8203 62.3551C87.5575 62.5611 87.3575 62.8345 87.2202 63.1754C87.0852 63.5163 87.0178 63.8904 87.0178 64.2976C87.0178 64.7048 87.0852 65.0777 87.2202 65.4162C87.3575 65.7547 87.5575 66.0258 87.8203 66.2294C88.0831 66.433 88.4039 66.5348 88.7827 66.5348ZM93.2029 63.5909V67H92.5708V61.5455H93.1852V62.4013H93.242C93.3699 62.1219 93.5687 61.8982 93.8386 61.7301C94.1109 61.5597 94.447 61.4744 94.8471 61.4744C95.2141 61.4744 95.536 61.5514 95.813 61.7053C96.0924 61.8568 96.309 62.0805 96.4629 62.3764C96.6191 62.6723 96.6973 63.0357 96.6973 63.4666V67H96.0652V63.5057C96.0652 63.0582 95.9397 62.7043 95.6887 62.4439C95.4402 62.1835 95.1064 62.0533 94.6873 62.0533C94.4009 62.0533 94.1464 62.1148 93.9238 62.2379C93.7013 62.361 93.5249 62.5386 93.3947 62.7706C93.2669 63.0002 93.2029 63.2737 93.2029 63.5909ZM100.567 67.1136C100.058 67.1136 99.6178 66.9953 99.2461 66.7585C98.8744 66.5194 98.5868 66.1892 98.3832 65.7678C98.1819 65.344 98.0813 64.8563 98.0813 64.3047C98.0813 63.7554 98.1819 63.2678 98.3832 62.8416C98.5868 62.4131 98.8673 62.0781 99.2248 61.8366C99.5846 61.5928 100 61.4709 100.471 61.4709C100.767 61.4709 101.052 61.5253 101.327 61.6342C101.602 61.7408 101.848 61.9053 102.066 62.1278C102.286 62.348 102.46 62.6262 102.588 62.9624C102.716 63.2962 102.779 63.6915 102.779 64.1484V64.4609H98.5181V63.9034H102.133C102.133 63.553 102.062 63.2382 101.92 62.9588C101.78 62.6771 101.585 62.4545 101.334 62.2912C101.086 62.1278 100.798 62.0462 100.471 62.0462C100.126 62.0462 99.8214 62.1385 99.5586 62.3232C99.2958 62.5078 99.0898 62.7517 98.9407 63.0547C98.7939 63.3577 98.7193 63.6892 98.717 64.049V64.3828C98.717 64.8161 98.7915 65.1948 98.9407 65.5192C99.0922 65.8411 99.3065 66.0909 99.5835 66.2685C99.8604 66.446 100.188 66.5348 100.567 66.5348C100.825 66.5348 101.051 66.4946 101.245 66.4141C101.442 66.3336 101.606 66.2259 101.739 66.0909C101.874 65.9536 101.976 65.8033 102.044 65.6399L102.645 65.8352C102.562 66.0649 102.426 66.2768 102.236 66.4709C102.049 66.665 101.815 66.8213 101.533 66.9396C101.254 67.0556 100.932 67.1136 100.567 67.1136ZM30.3953 79V73.5455H31.031V79H30.3953ZM30.7185 72.608C30.5883 72.608 30.477 72.5642 30.3847 72.4766C30.2923 72.3866 30.2462 72.2789 30.2462 72.1534C30.2462 72.0279 30.2923 71.9214 30.3847 71.8338C30.477 71.7438 30.5883 71.6989 30.7185 71.6989C30.8487 71.6989 30.96 71.7438 31.0523 71.8338C31.1446 71.9214 31.1908 72.0279 31.1908 72.1534C31.1908 72.2789 31.1446 72.3866 31.0523 72.4766C30.96 72.5642 30.8487 72.608 30.7185 72.608ZM36.3675 74.7422L35.7886 74.9055C35.7318 74.7422 35.6513 74.5942 35.5471 74.4616C35.443 74.3291 35.3068 74.2237 35.1388 74.1456C34.973 74.0675 34.7671 74.0284 34.5209 74.0284C34.1515 74.0284 33.8485 74.116 33.6118 74.2912C33.375 74.4664 33.2567 74.6925 33.2567 74.9695C33.2567 75.2038 33.3372 75.3944 33.4981 75.5412C33.6615 75.6856 33.9124 75.8004 34.251 75.8857L35.0748 76.0881C35.5318 76.1993 35.8738 76.3757 36.1011 76.6172C36.3308 76.8587 36.4456 77.1617 36.4456 77.5263C36.4456 77.834 36.3604 78.1075 36.1899 78.3466C36.0194 78.5857 35.7815 78.7739 35.4761 78.9112C35.1731 79.0462 34.8215 79.1136 34.4214 79.1136C33.8888 79.1136 33.4496 78.9941 33.104 78.755C32.7583 78.5135 32.537 78.1655 32.4399 77.7109L33.0471 77.5618C33.1253 77.8861 33.278 78.1312 33.5052 78.2969C33.7349 78.4626 34.0367 78.5455 34.4108 78.5455C34.8298 78.5455 35.1648 78.4519 35.4157 78.2649C35.6667 78.0755 35.7922 77.8388 35.7922 77.5547C35.7922 77.3345 35.7188 77.1499 35.572 77.0007C35.4252 76.8492 35.2027 76.7379 34.9044 76.6669L34.0131 76.4538C33.5396 76.3402 33.1892 76.1603 32.9619 75.9141C32.7346 75.6679 32.621 75.3625 32.621 74.9979C32.621 74.6972 32.7027 74.4332 32.866 74.206C33.0294 73.9763 33.2543 73.7964 33.5407 73.6662C33.8272 73.536 34.1539 73.4709 34.5209 73.4709C35.0204 73.4709 35.4193 73.5845 35.7176 73.8118C36.0183 74.0367 36.2349 74.3468 36.3675 74.7422ZM42.7728 79.1136C42.2851 79.1136 41.8602 78.9917 41.498 78.7479C41.1381 78.504 40.8588 78.1702 40.6599 77.7464C40.461 77.3227 40.3616 76.8397 40.3616 76.2976C40.3616 75.7507 40.4622 75.2642 40.6634 74.8381C40.867 74.4119 41.1488 74.0781 41.5086 73.8366C41.8685 73.5928 42.2863 73.4709 42.7622 73.4709C43.1267 73.4709 43.457 73.5419 43.7529 73.6839C44.0489 73.8236 44.2927 74.0213 44.4845 74.277C44.6786 74.5303 44.8005 74.8262 44.8502 75.1648H44.211C44.1447 74.857 43.9849 74.5942 43.7316 74.3764C43.4807 74.1562 43.1611 74.0462 42.7728 74.0462C42.4248 74.0462 42.117 74.1409 41.8495 74.3303C41.582 74.5173 41.3725 74.7789 41.221 75.1151C41.0718 75.4489 40.9972 75.8359 40.9972 76.2763C40.9972 76.719 41.0706 77.1108 41.2174 77.4517C41.3642 77.7902 41.5702 78.0554 41.8353 78.2472C42.1028 78.4389 42.4153 78.5348 42.7728 78.5348C43.0143 78.5348 43.2345 78.4898 43.4333 78.3999C43.6346 78.3075 43.8026 78.1773 43.9376 78.0092C44.0749 77.8411 44.1672 77.6411 44.2146 77.4091H44.8538C44.8064 77.7382 44.6892 78.0317 44.5022 78.2898C44.3176 78.5455 44.0773 78.7467 43.7813 78.8935C43.4878 79.0402 43.1516 79.1136 42.7728 79.1136ZM48.3286 79.1136C47.8575 79.1136 47.4408 78.9941 47.0786 78.755C46.7187 78.5159 46.437 78.1856 46.2334 77.7642C46.0298 77.3404 45.928 76.8516 45.928 76.2976C45.928 75.7389 46.0298 75.2476 46.2334 74.8239C46.437 74.3977 46.7187 74.0663 47.0786 73.8295C47.4408 73.5904 47.8575 73.4709 48.3286 73.4709C48.7997 73.4709 49.2152 73.5904 49.575 73.8295C49.9349 74.0687 50.2166 74.4001 50.4202 74.8239C50.6262 75.2476 50.7291 75.7389 50.7291 76.2976C50.7291 76.8516 50.6273 77.3404 50.4237 77.7642C50.2201 78.1856 49.9372 78.5159 49.575 78.755C49.2152 78.9941 48.7997 79.1136 48.3286 79.1136ZM48.3286 78.5348C48.7074 78.5348 49.0281 78.433 49.2909 78.2294C49.5537 78.0258 49.7526 77.7547 49.8875 77.4162C50.0248 77.0777 50.0935 76.7048 50.0935 76.2976C50.0935 75.8904 50.0248 75.5163 49.8875 75.1754C49.7526 74.8345 49.5537 74.5611 49.2909 74.3551C49.0281 74.1491 48.7074 74.0462 48.3286 74.0462C47.9521 74.0462 47.6314 74.1491 47.3662 74.3551C47.1034 74.5611 46.9034 74.8345 46.7661 75.1754C46.6311 75.5163 46.5637 75.8904 46.5637 76.2976C46.5637 76.7048 46.6311 77.0777 46.7661 77.4162C46.9034 77.7547 47.1034 78.0258 47.3662 78.2294C47.629 78.433 47.9498 78.5348 48.3286 78.5348ZM52.1167 79V73.5455H52.7311V74.3835H52.7879C52.8968 74.1018 53.0779 73.8804 53.3312 73.7195C53.5869 73.5561 53.8935 73.4744 54.251 73.4744C54.6274 73.4744 54.9363 73.5632 55.1778 73.7408C55.4217 73.916 55.604 74.1574 55.7247 74.4652H55.7709C55.894 74.1622 56.094 73.9219 56.371 73.7443C56.6504 73.5644 56.9889 73.4744 57.3866 73.4744C57.8933 73.4744 58.2934 73.6342 58.5869 73.9538C58.8805 74.2711 59.0273 74.7351 59.0273 75.3459V79H58.3952V75.3459C58.3952 74.915 58.2851 74.5919 58.0649 74.3764C57.8447 74.161 57.5547 74.0533 57.1949 74.0533C56.7782 74.0533 56.4574 74.1811 56.2325 74.4368C56.0076 74.6925 55.8952 75.0168 55.8952 75.4098V79H55.2488V75.2891C55.2488 74.9197 55.1459 74.6214 54.9399 74.3942C54.7339 74.1669 54.4439 74.0533 54.0699 74.0533C53.8189 74.0533 53.5928 74.1148 53.3916 74.2379C53.1927 74.361 53.0353 74.5327 52.9193 74.7528C52.8057 74.9706 52.7488 75.2216 52.7488 75.5057V79H52.1167ZM60.7007 81.0455V73.5455H61.3151V74.5859H61.3896C61.4654 74.4226 61.5696 74.2557 61.7021 74.0852C61.8347 73.9124 62.0099 73.7668 62.2277 73.6484C62.4479 73.5301 62.7249 73.4709 63.0587 73.4709C63.5085 73.4709 63.9015 73.5893 64.2377 73.826C64.5762 74.0604 64.839 74.3894 65.026 74.8132C65.2154 75.2346 65.3101 75.7259 65.3101 76.2869C65.3101 76.8504 65.2154 77.344 65.026 77.7678C64.839 78.1915 64.5762 78.5218 64.2377 78.7585C63.9015 78.9953 63.5109 79.1136 63.0658 79.1136C62.7367 79.1136 62.4609 79.0545 62.2384 78.9361C62.0182 78.8177 61.8395 78.6721 61.7021 78.4993C61.5672 78.3241 61.463 78.1536 61.3896 77.9879H61.3328V81.0455H60.7007ZM61.3257 76.2763C61.3257 76.7166 61.3908 77.1072 61.521 77.4482C61.6536 77.7867 61.843 78.053 62.0892 78.2472C62.3378 78.4389 62.6385 78.5348 62.9912 78.5348C63.3534 78.5348 63.6588 78.4354 63.9074 78.2365C64.1584 78.0353 64.3489 77.7642 64.4791 77.4233C64.6117 77.0824 64.678 76.7 64.678 76.2763C64.678 75.8572 64.6129 75.4796 64.4827 75.1435C64.3548 74.8073 64.1655 74.541 63.9145 74.3445C63.6636 74.1456 63.3558 74.0462 62.9912 74.0462C62.6361 74.0462 62.3343 74.142 62.0857 74.3338C61.8371 74.5232 61.6477 74.786 61.5175 75.1222C61.3896 75.456 61.3257 75.8407 61.3257 76.2763ZM67.3289 71.7273V79H66.6968V71.7273H67.3289ZM71.2068 79.1136C70.6978 79.1136 70.2574 78.9953 69.8857 78.7585C69.5141 78.5194 69.2264 78.1892 69.0228 77.7678C68.8216 77.344 68.721 76.8563 68.721 76.3047C68.721 75.7554 68.8216 75.2678 69.0228 74.8416C69.2264 74.4131 69.507 74.0781 69.8644 73.8366C70.2243 73.5928 70.6398 73.4709 71.1109 73.4709C71.4068 73.4709 71.6921 73.5253 71.9667 73.6342C72.2413 73.7408 72.4875 73.9053 72.7053 74.1278C72.9255 74.348 73.0995 74.6262 73.2274 74.9624C73.3552 75.2962 73.4191 75.6915 73.4191 76.1484V76.4609H69.1578V75.9034H72.7728C72.7728 75.553 72.7018 75.2382 72.5597 74.9588C72.4201 74.6771 72.2248 74.4545 71.9738 74.2912C71.7252 74.1278 71.4376 74.0462 71.1109 74.0462C70.7652 74.0462 70.461 74.1385 70.1982 74.3232C69.9355 74.5078 69.7295 74.7517 69.5803 75.0547C69.4336 75.3577 69.359 75.6892 69.3566 76.049V76.3828C69.3566 76.8161 69.4312 77.1948 69.5803 77.5192C69.7319 77.8411 69.9461 78.0909 70.2231 78.2685C70.5001 78.446 70.828 78.5348 71.2068 78.5348C71.4648 78.5348 71.6909 78.4946 71.885 78.4141C72.0815 78.3336 72.2461 78.2259 72.3786 78.0909C72.5136 77.9536 72.6154 77.8033 72.684 77.6399L73.2842 77.8352C73.2013 78.0649 73.0652 78.2768 72.8758 78.4709C72.6888 78.665 72.4544 78.8213 72.1727 78.9396C71.8933 79.0556 71.5713 79.1136 71.2068 79.1136ZM76.9605 73.5455V74.0959H74.3575V73.5455H76.9605ZM75.1707 72.2386H75.8064V77.576C75.8064 77.8033 75.8454 77.982 75.9236 78.1122C76.0017 78.2401 76.1035 78.3312 76.229 78.3857C76.3544 78.4377 76.4882 78.4638 76.6302 78.4638C76.7131 78.4638 76.7841 78.459 76.8433 78.4496C76.9025 78.4377 76.9546 78.4259 76.9996 78.4141L77.1345 78.9858C77.0729 79.0095 76.9972 79.0308 76.9072 79.0497C76.8173 79.071 76.706 79.0817 76.5734 79.0817C76.3414 79.0817 76.1177 79.0308 75.9023 78.929C75.6892 78.8272 75.514 78.6757 75.3767 78.4744C75.2394 78.2732 75.1707 78.0234 75.1707 77.7251V72.2386ZM80.5427 79.1136C80.0337 79.1136 79.5934 78.9953 79.2217 78.7585C78.85 78.5194 78.5624 78.1892 78.3588 77.7678C78.1575 77.344 78.0569 76.8563 78.0569 76.3047C78.0569 75.7554 78.1575 75.2678 78.3588 74.8416C78.5624 74.4131 78.8429 74.0781 79.2004 73.8366C79.5602 73.5928 79.9757 73.4709 80.4468 73.4709C80.7427 73.4709 81.028 73.5253 81.3026 73.6342C81.5773 73.7408 81.8235 73.9053 82.0413 74.1278C82.2615 74.348 82.4355 74.6262 82.5633 74.9624C82.6911 75.2962 82.7551 75.6915 82.7551 76.1484V76.4609H78.4937V75.9034H82.1088C82.1088 75.553 82.0377 75.2382 81.8957 74.9588C81.756 74.6771 81.5607 74.4545 81.3097 74.2912C81.0612 74.1278 80.7735 74.0462 80.4468 74.0462C80.1012 74.0462 79.797 74.1385 79.5342 74.3232C79.2714 74.5078 79.0654 74.7517 78.9163 75.0547C78.7695 75.3577 78.6949 75.6892 78.6926 76.049V76.3828C78.6926 76.8161 78.7671 77.1948 78.9163 77.5192C79.0678 77.8411 79.282 78.0909 79.559 78.2685C79.836 78.446 80.1639 78.5348 80.5427 78.5348C80.8008 78.5348 81.0268 78.4946 81.221 78.4141C81.4175 78.3336 81.582 78.2259 81.7146 78.0909C81.8495 77.9536 81.9513 77.8033 82.02 77.6399L82.6201 77.8352C82.5373 78.0649 82.4011 78.2768 82.2117 78.4709C82.0247 78.665 81.7903 78.8213 81.5086 78.9396C81.2293 79.0556 80.9073 79.1136 80.5427 79.1136ZM86.1118 79.1136C85.6643 79.1136 85.2725 78.9953 84.9363 78.7585C84.6002 78.5218 84.3374 78.1915 84.148 77.7678C83.961 77.344 83.8675 76.8504 83.8675 76.2869C83.8675 75.7259 83.961 75.2346 84.148 74.8132C84.3374 74.3894 84.6014 74.0604 84.9399 73.826C85.2784 73.5893 85.6726 73.4709 86.1224 73.4709C86.4539 73.4709 86.7297 73.5301 86.9498 73.6484C87.17 73.7644 87.3464 73.9089 87.479 74.0817C87.6115 74.2545 87.7145 74.4226 87.7879 74.5859H87.8447V71.7273H88.4804V79H87.8625V77.9879H87.7879C87.7145 78.1536 87.6104 78.3241 87.4754 78.4993C87.3405 78.6721 87.1617 78.8177 86.9392 78.9361C86.719 79.0545 86.4432 79.1136 86.1118 79.1136ZM86.1863 78.5348C86.5391 78.5348 86.8398 78.4389 87.0883 78.2472C87.3369 78.053 87.5263 77.7867 87.6565 77.4482C87.7891 77.1072 87.8554 76.7166 87.8554 76.2763C87.8554 75.8407 87.7903 75.456 87.6601 75.1222C87.5299 74.786 87.3405 74.5232 87.0919 74.3338C86.8433 74.142 86.5415 74.0462 86.1863 74.0462C85.8218 74.0462 85.514 74.1456 85.2631 74.3445C85.0145 74.541 84.8251 74.8073 84.6949 75.1435C84.567 75.4796 84.5031 75.8572 84.5031 76.2763C84.5031 76.7 84.5682 77.0824 84.6984 77.4233C84.8286 77.7642 85.018 78.0353 85.2666 78.2365C85.5175 78.4354 85.8241 78.5348 86.1863 78.5348Z" fill="#222222"/>
<defs>
<filter id="filter0_d_991_204" x="0" y="0" width="118" height="118" filterUnits="userSpaceOnUse" color-interpolation-filters="sRGB">
<feFlood flood-opacity="0" result="BackgroundImageFix"/>
<feColorMatrix in="SourceAlpha" type="matrix" values="0 0 0 0 0 0 0 0 0 0 0 0 0 0 0 0 0 0 127 0" result="hardAlpha"/>
<feOffset dy="4"/>
<feGaussianBlur stdDeviation="2"/>
<feComposite in2="hardAlpha" operator="out"/>
<feColorMatrix type="matrix" values="0 0 0 0 0 0 0 0 0 0 0 0 0 0 0 0 0 0 0.25 0"/>
<feBlend mode="normal" in2="BackgroundImageFix" result="effect1_dropShadow_991_204"/>
<feBlend mode="normal" in="SourceGraphic" in2="effect1_dropShadow_991_204" result="shape"/>
</filter>
</defs>
</svg>
