<svg width="118" height="118" viewBox="0 0 118 118" fill="none" xmlns="http://www.w3.org/2000/svg">
<g filter="url(#filter0_d_991_209)">
<rect x="4" width="110" height="110" fill="#C9C8D8" fill-opacity="0.5" shape-rendering="crispEdges"/>
</g>
<path d="M23.4598 44.7273V52H22.8277V44.7273H23.4598ZM25.1395 52V46.5455H25.7751V52H25.1395ZM25.4626 45.608C25.3324 45.608 25.2211 45.5642 25.1288 45.4766C25.0365 45.3866 24.9903 45.2789 24.9903 45.1534C24.9903 45.0279 25.0365 44.9214 25.1288 44.8338C25.2211 44.7438 25.3324 44.6989 25.4626 44.6989C25.5928 44.6989 25.7041 44.7438 25.7964 44.8338C25.8888 44.9214 25.9349 45.0279 25.9349 45.1534C25.9349 45.2789 25.8888 45.3866 25.7964 45.4766C25.7041 45.5642 25.5928 45.608 25.4626 45.608ZM31.6691 46.5455L29.6769 52H29.0022L27.01 46.5455H27.6954L29.3147 51.1655H29.3644L30.9838 46.5455H31.6691ZM34.9157 52.1136C34.4068 52.1136 33.9664 51.9953 33.5947 51.7585C33.223 51.5194 32.9354 51.1892 32.7318 50.7678C32.5306 50.344 32.43 49.8563 32.43 49.3047C32.43 48.7554 32.5306 48.2678 32.7318 47.8416C32.9354 47.4131 33.2159 47.0781 33.5734 46.8366C33.9333 46.5928 34.3488 46.4709 34.8199 46.4709C35.1158 46.4709 35.4011 46.5253 35.6757 46.6342C35.9503 46.7408 36.1965 46.9053 36.4143 47.1278C36.6345 47.348 36.8085 47.6262 36.9363 47.9624C37.0642 48.2962 37.1281 48.6915 37.1281 49.1484V49.4609H32.8667V48.9034H36.4818C36.4818 48.553 36.4108 48.2382 36.2687 47.9588C36.1291 47.6771 35.9337 47.4545 35.6828 47.2912C35.4342 47.1278 35.1466 47.0462 34.8199 47.0462C34.4742 47.0462 34.17 47.1385 33.9072 47.3232C33.6444 47.5078 33.4385 47.7517 33.2893 48.0547C33.1425 48.3577 33.068 48.6892 33.0656 49.049V49.3828C33.0656 49.8161 33.1402 50.1948 33.2893 50.5192C33.4408 50.8411 33.6551 51.0909 33.9321 51.2685C34.2091 51.446 34.537 51.5348 34.9157 51.5348C35.1738 51.5348 35.3999 51.4946 35.594 51.4141C35.7905 51.3336 35.955 51.2259 36.0876 51.0909C36.2226 50.9536 36.3244 50.8033 36.393 50.6399L36.9932 50.8352C36.9103 51.0649 36.7742 51.2768 36.5848 51.4709C36.3978 51.665 36.1634 51.8213 35.8817 51.9396C35.6023 52.0556 35.2803 52.1136 34.9157 52.1136ZM43.4642 52.1136C42.9765 52.1136 42.5516 51.9917 42.1894 51.7479C41.8295 51.504 41.5502 51.1702 41.3513 50.7464C41.1524 50.3227 41.053 49.8397 41.053 49.2976C41.053 48.7507 41.1536 48.2642 41.3548 47.8381C41.5584 47.4119 41.8402 47.0781 42.2 46.8366C42.5599 46.5928 42.9777 46.4709 43.4536 46.4709C43.8182 46.4709 44.1484 46.5419 44.4443 46.6839C44.7403 46.8236 44.9841 47.0213 45.1759 47.277C45.37 47.5303 45.4919 47.8262 45.5416 48.1648H44.9024C44.8361 47.857 44.6763 47.5942 44.423 47.3764C44.1721 47.1562 43.8525 47.0462 43.4642 47.0462C43.1162 47.0462 42.8084 47.1409 42.5409 47.3303C42.2734 47.5173 42.0639 47.7789 41.9124 48.1151C41.7632 48.4489 41.6887 48.8359 41.6887 49.2763C41.6887 49.719 41.762 50.1108 41.9088 50.4517C42.0556 50.7902 42.2616 51.0554 42.5267 51.2472C42.7942 51.4389 43.1067 51.5348 43.4642 51.5348C43.7057 51.5348 43.9259 51.4898 44.1247 51.3999C44.326 51.3075 44.4941 51.1773 44.629 51.0092C44.7663 50.8411 44.8586 50.6411 44.906 50.4091H45.5452C45.4978 50.7382 45.3807 51.0317 45.1936 51.2898C45.009 51.5455 44.7687 51.7467 44.4727 51.8935C44.1792 52.0402 43.843 52.1136 43.4642 52.1136ZM47.532 44.7273V52H46.8999V44.7273H47.532ZM50.7281 52.1243C50.399 52.1243 50.0983 52.0604 49.8261 51.9325C49.5538 51.8023 49.3372 51.6153 49.1762 51.3714C49.0152 51.1252 48.9347 50.8269 48.9347 50.4766C48.9347 50.2067 48.9856 49.9794 49.0874 49.7947C49.1892 49.6101 49.3337 49.4586 49.5207 49.3402C49.7077 49.2218 49.9291 49.1283 50.1847 49.0597C50.4404 48.991 50.7222 48.9377 51.0299 48.8999C51.3353 48.862 51.5934 48.8288 51.8041 48.8004C52.0171 48.772 52.1793 48.727 52.2906 48.6655C52.4018 48.6039 52.4575 48.5045 52.4575 48.3672V48.2393C52.4575 47.8677 52.3462 47.5753 52.1237 47.3622C51.9035 47.1468 51.5863 47.0391 51.172 47.0391C50.779 47.0391 50.4582 47.1255 50.2096 47.2983C49.9634 47.4711 49.7906 47.6747 49.6911 47.9091L49.091 47.6925C49.2141 47.3942 49.3846 47.1562 49.6024 46.9787C49.8202 46.7988 50.064 46.6697 50.3339 46.5916C50.6038 46.5111 50.8772 46.4709 51.1542 46.4709C51.3625 46.4709 51.5792 46.4981 51.8041 46.5526C52.0313 46.607 52.242 46.7017 52.4362 46.8366C52.6303 46.9692 52.7877 47.1551 52.9085 47.3942C53.0292 47.6309 53.0896 47.9316 53.0896 48.2962V52H52.4575V51.1371H52.4184C52.3427 51.2981 52.2302 51.4543 52.0811 51.6058C51.9319 51.7573 51.7449 51.8816 51.52 51.9787C51.2951 52.0758 51.0311 52.1243 50.7281 52.1243ZM50.8133 51.5455C51.1495 51.5455 51.4407 51.4709 51.6869 51.3217C51.9331 51.1726 52.1225 50.9749 52.2551 50.7287C52.39 50.4801 52.4575 50.2067 52.4575 49.9084V49.12C52.4101 49.165 52.3308 49.2053 52.2195 49.2408C52.1106 49.2763 51.984 49.3082 51.8396 49.3366C51.6975 49.3627 51.5555 49.3852 51.4134 49.4041C51.2714 49.4231 51.1436 49.4396 51.0299 49.4538C50.7222 49.4917 50.4594 49.5509 50.2416 49.6314C50.0238 49.7119 49.8569 49.8232 49.7409 49.9652C49.6249 50.1049 49.5669 50.2848 49.5669 50.505C49.5669 50.8364 49.6852 51.0933 49.922 51.2756C50.1587 51.4555 50.4558 51.5455 50.8133 51.5455ZM58.4358 47.7422L57.857 47.9055C57.8002 47.7422 57.7197 47.5942 57.6155 47.4616C57.5113 47.3291 57.3752 47.2237 57.2071 47.1456C57.0414 47.0675 56.8354 47.0284 56.5892 47.0284C56.2199 47.0284 55.9169 47.116 55.6801 47.2912C55.4434 47.4664 55.325 47.6925 55.325 47.9695C55.325 48.2038 55.4055 48.3944 55.5665 48.5412C55.7298 48.6856 55.9808 48.8004 56.3193 48.8857L57.1432 49.0881C57.6001 49.1993 57.9422 49.3757 58.1695 49.6172C58.3991 49.8587 58.5139 50.1617 58.5139 50.5263C58.5139 50.834 58.4287 51.1075 58.2583 51.3466C58.0878 51.5857 57.8499 51.7739 57.5445 51.9112C57.2414 52.0462 56.8899 52.1136 56.4898 52.1136C55.9571 52.1136 55.518 51.9941 55.1723 51.755C54.8267 51.5135 54.6053 51.1655 54.5083 50.7109L55.1155 50.5618C55.1936 50.8861 55.3463 51.1312 55.5736 51.2969C55.8032 51.4626 56.1051 51.5455 56.4791 51.5455C56.8982 51.5455 57.2332 51.4519 57.4841 51.2649C57.7351 51.0755 57.8605 50.8388 57.8605 50.5547C57.8605 50.3345 57.7871 50.1499 57.6404 50.0007C57.4936 49.8492 57.271 49.7379 56.9727 49.6669L56.0814 49.4538C55.6079 49.3402 55.2575 49.1603 55.0303 48.9141C54.803 48.6679 54.6894 48.3625 54.6894 47.9979C54.6894 47.6972 54.771 47.4332 54.9344 47.206C55.0977 46.9763 55.3227 46.7964 55.6091 46.6662C55.8956 46.536 56.2223 46.4709 56.5892 46.4709C57.0887 46.4709 57.4877 46.5845 57.786 46.8118C58.0866 47.0367 58.3032 47.3468 58.4358 47.7422ZM63.5628 47.7422L62.9839 47.9055C62.9271 47.7422 62.8466 47.5942 62.7425 47.4616C62.6383 47.3291 62.5022 47.2237 62.3341 47.1456C62.1684 47.0675 61.9624 47.0284 61.7162 47.0284C61.3469 47.0284 61.0438 47.116 60.8071 47.2912C60.5703 47.4664 60.452 47.6925 60.452 47.9695C60.452 48.2038 60.5325 48.3944 60.6934 48.5412C60.8568 48.6856 61.1077 48.8004 61.4463 48.8857L62.2702 49.0881C62.7271 49.1993 63.0692 49.3757 63.2964 49.6172C63.5261 49.8587 63.6409 50.1617 63.6409 50.5263C63.6409 50.834 63.5557 51.1075 63.3852 51.3466C63.2148 51.5857 62.9768 51.7739 62.6714 51.9112C62.3684 52.0462 62.0168 52.1136 61.6167 52.1136C61.0841 52.1136 60.6449 51.9941 60.2993 51.755C59.9536 51.5135 59.7323 51.1655 59.6352 50.7109L60.2425 50.5618C60.3206 50.8861 60.4733 51.1312 60.7006 51.2969C60.9302 51.4626 61.232 51.5455 61.6061 51.5455C62.0251 51.5455 62.3601 51.4519 62.6111 51.2649C62.862 51.0755 62.9875 50.8388 62.9875 50.5547C62.9875 50.3345 62.9141 50.1499 62.7673 50.0007C62.6205 49.8492 62.398 49.7379 62.0997 49.6669L61.2084 49.4538C60.7349 49.3402 60.3845 49.1603 60.1572 48.9141C59.93 48.6679 59.8163 48.3625 59.8163 47.9979C59.8163 47.6972 59.898 47.4332 60.0613 47.206C60.2247 46.9763 60.4496 46.7964 60.7361 46.6662C61.0225 46.536 61.3492 46.4709 61.7162 46.4709C62.2157 46.4709 62.6146 46.5845 62.9129 46.8118C63.2136 47.0367 63.4302 47.3468 63.5628 47.7422ZM67.2302 52.1136C66.7212 52.1136 66.2809 51.9953 65.9092 51.7585C65.5375 51.5194 65.2499 51.1892 65.0463 50.7678C64.845 50.344 64.7444 49.8563 64.7444 49.3047C64.7444 48.7554 64.845 48.2678 65.0463 47.8416C65.2499 47.4131 65.5304 47.0781 65.8879 46.8366C66.2477 46.5928 66.6632 46.4709 67.1343 46.4709C67.4302 46.4709 67.7155 46.5253 67.9901 46.6342C68.2648 46.7408 68.511 46.9053 68.7288 47.1278C68.949 47.348 69.123 47.6262 69.2508 47.9624C69.3786 48.2962 69.4426 48.6915 69.4426 49.1484V49.4609H65.1812V48.9034H68.7963C68.7963 48.553 68.7252 48.2382 68.5832 47.9588C68.4435 47.6771 68.2482 47.4545 67.9972 47.2912C67.7487 47.1278 67.461 47.0462 67.1343 47.0462C66.7887 47.0462 66.4845 47.1385 66.2217 47.3232C65.9589 47.5078 65.7529 47.7517 65.6038 48.0547C65.457 48.3577 65.3824 48.6892 65.3801 49.049V49.3828C65.3801 49.8161 65.4546 50.1948 65.6038 50.5192C65.7553 50.8411 65.9695 51.0909 66.2465 51.2685C66.5235 51.446 66.8514 51.5348 67.2302 51.5348C67.4883 51.5348 67.7143 51.4946 67.9085 51.4141C68.105 51.3336 68.2695 51.2259 68.4021 51.0909C68.537 50.9536 68.6388 50.8033 68.7075 50.6399L69.3076 50.8352C69.2248 51.0649 69.0886 51.2768 68.8992 51.4709C68.7122 51.665 68.4778 51.8213 68.1961 51.9396C67.9168 52.0556 67.5948 52.1136 67.2302 52.1136ZM74.5003 47.7422L73.9214 47.9055C73.8646 47.7422 73.7841 47.5942 73.68 47.4616C73.5758 47.3291 73.4397 47.2237 73.2716 47.1456C73.1059 47.0675 72.8999 47.0284 72.6537 47.0284C72.2844 47.0284 71.9813 47.116 71.7446 47.2912C71.5078 47.4664 71.3895 47.6925 71.3895 47.9695C71.3895 48.2038 71.47 48.3944 71.6309 48.5412C71.7943 48.6856 72.0452 48.8004 72.3838 48.8857L73.2077 49.0881C73.6646 49.1993 74.0067 49.3757 74.2339 49.6172C74.4636 49.8587 74.5784 50.1617 74.5784 50.5263C74.5784 50.834 74.4932 51.1075 74.3227 51.3466C74.1523 51.5857 73.9143 51.7739 73.6089 51.9112C73.3059 52.0462 72.9543 52.1136 72.5542 52.1136C72.0216 52.1136 71.5824 51.9941 71.2368 51.755C70.8911 51.5135 70.6698 51.1655 70.5727 50.7109L71.18 50.5618C71.2581 50.8861 71.4108 51.1312 71.6381 51.2969C71.8677 51.4626 72.1695 51.5455 72.5436 51.5455C72.9626 51.5455 73.2976 51.4519 73.5486 51.2649C73.7995 51.0755 73.925 50.8388 73.925 50.5547C73.925 50.3345 73.8516 50.1499 73.7048 50.0007C73.558 49.8492 73.3355 49.7379 73.0372 49.6669L72.1459 49.4538C71.6724 49.3402 71.322 49.1603 71.0947 48.9141C70.8675 48.6679 70.7538 48.3625 70.7538 47.9979C70.7538 47.6972 70.8355 47.4332 70.9988 47.206C71.1622 46.9763 71.3871 46.7964 71.6736 46.6662C71.96 46.536 72.2867 46.4709 72.6537 46.4709C73.1532 46.4709 73.5521 46.5845 73.8504 46.8118C74.1511 47.0367 74.3677 47.3468 74.5003 47.7422ZM78.7749 52V46.5455H79.3893V47.3835H79.4461C79.555 47.1018 79.7361 46.8804 79.9894 46.7195C80.2451 46.5561 80.5517 46.4744 80.9092 46.4744C81.2856 46.4744 81.5945 46.5632 81.836 46.7408C82.0799 46.916 82.2622 47.1574 82.3829 47.4652H82.4291C82.5522 47.1622 82.7522 46.9219 83.0292 46.7443C83.3086 46.5644 83.6471 46.4744 84.0448 46.4744C84.5515 46.4744 84.9516 46.6342 85.2451 46.9538C85.5387 47.2711 85.6855 47.7351 85.6855 48.3459V52H85.0534V48.3459C85.0534 47.915 84.9433 47.5919 84.7231 47.3764C84.5029 47.161 84.2129 47.0533 83.8531 47.0533C83.4364 47.0533 83.1156 47.1811 82.8907 47.4368C82.6658 47.6925 82.5534 48.0168 82.5534 48.4098V52H81.907V48.2891C81.907 47.9197 81.8041 47.6214 81.5981 47.3942C81.3921 47.1669 81.1021 47.0533 80.7281 47.0533C80.4771 47.0533 80.251 47.1148 80.0498 47.2379C79.8509 47.361 79.6935 47.5327 79.5775 47.7528C79.4639 47.9706 79.407 48.2216 79.407 48.5057V52H78.7749ZM90.8248 49.9155V46.5455H91.4569V52H90.8248V51.0945H90.7751C90.6473 51.3738 90.4449 51.607 90.1679 51.794C89.8909 51.9787 89.5523 52.071 89.1523 52.071C88.8042 52.071 88.4953 51.9953 88.2254 51.8438C87.9555 51.6899 87.7436 51.465 87.5898 51.169C87.4359 50.8731 87.3589 50.5097 87.3589 50.0788V46.5455H87.991V50.0398C87.991 50.4659 88.1165 50.8092 88.3675 51.0696C88.6184 51.3277 88.9404 51.4567 89.3334 51.4567C89.5796 51.4567 89.8163 51.3975 90.0436 51.2791C90.2709 51.1607 90.4579 50.9879 90.6047 50.7607C90.7515 50.531 90.8248 50.2493 90.8248 49.9155ZM96.7952 47.7422L96.2164 47.9055C96.1595 47.7422 96.079 47.5942 95.9749 47.4616C95.8707 47.3291 95.7346 47.2237 95.5665 47.1456C95.4008 47.0675 95.1948 47.0284 94.9486 47.0284C94.5793 47.0284 94.2762 47.116 94.0395 47.2912C93.8028 47.4664 93.6844 47.6925 93.6844 47.9695C93.6844 48.2038 93.7649 48.3944 93.9259 48.5412C94.0892 48.6856 94.3402 48.8004 94.6787 48.8857L95.5026 49.0881C95.9595 49.1993 96.3016 49.3757 96.5289 49.6172C96.7585 49.8587 96.8733 50.1617 96.8733 50.5263C96.8733 50.834 96.7881 51.1075 96.6176 51.3466C96.4472 51.5857 96.2093 51.7739 95.9039 51.9112C95.6008 52.0462 95.2493 52.1136 94.8492 52.1136C94.3165 52.1136 93.8773 51.9941 93.5317 51.755C93.186 51.5135 92.9647 51.1655 92.8676 50.7109L93.4749 50.5618C93.553 50.8861 93.7057 51.1312 93.933 51.2969C94.1626 51.4626 94.4645 51.5455 94.8385 51.5455C95.2575 51.5455 95.5925 51.4519 95.8435 51.2649C96.0944 51.0755 96.2199 50.8388 96.2199 50.5547C96.2199 50.3345 96.1465 50.1499 95.9997 50.0007C95.853 49.8492 95.6304 49.7379 95.3321 49.6669L94.4408 49.4538C93.9673 49.3402 93.6169 49.1603 93.3896 48.9141C93.1624 48.6679 93.0487 48.3625 93.0487 47.9979C93.0487 47.6972 93.1304 47.4332 93.2938 47.206C93.4571 46.9763 93.682 46.7964 93.9685 46.6662C94.2549 46.536 94.5816 46.4709 94.9486 46.4709C95.4481 46.4709 95.847 46.5845 96.1453 46.8118C96.446 47.0367 96.6626 47.3468 96.7952 47.7422ZM100.406 46.5455V47.0959H97.8028V46.5455H100.406ZM98.616 45.2386H99.2517V50.576C99.2517 50.8033 99.2907 50.982 99.3689 51.1122C99.447 51.2401 99.5488 51.3312 99.6743 51.3857C99.7997 51.4377 99.9335 51.4638 100.076 51.4638C100.158 51.4638 100.229 51.459 100.289 51.4496C100.348 51.4377 100.4 51.4259 100.445 51.4141L100.58 51.9858C100.518 52.0095 100.443 52.0308 100.353 52.0497C100.263 52.071 100.151 52.0817 100.019 52.0817C99.7867 52.0817 99.563 52.0308 99.3476 51.929C99.1345 51.8272 98.9593 51.6757 98.822 51.4744C98.6847 51.2732 98.616 51.0234 98.616 50.7251V45.2386ZM34.0089 64V56.7273H34.6445V59.5859H34.7013C34.7724 59.4226 34.8742 59.2545 35.0067 59.0817C35.1417 58.9089 35.3181 58.7644 35.5359 58.6484C35.756 58.5301 36.033 58.4709 36.3668 58.4709C36.8143 58.4709 37.2073 58.5893 37.5458 58.826C37.8844 59.0604 38.1483 59.3894 38.3377 59.8132C38.5271 60.2346 38.6218 60.7259 38.6218 61.2869C38.6218 61.8504 38.5271 62.344 38.3377 62.7678C38.1507 63.1915 37.8879 63.5218 37.5494 63.7585C37.2132 63.9953 36.8226 64.1136 36.3775 64.1136C36.046 64.1136 35.7691 64.0545 35.5465 63.9361C35.3263 63.8177 35.1488 63.6721 35.0138 63.4993C34.8789 63.3241 34.7747 63.1536 34.7013 62.9879H34.6232V64H34.0089ZM34.6339 61.2763C34.6339 61.7166 34.699 62.1072 34.8292 62.4482C34.9618 62.7867 35.1512 63.053 35.3974 63.2472C35.646 63.4389 35.9466 63.5348 36.2994 63.5348C36.6616 63.5348 36.9682 63.4354 37.2191 63.2365C37.4701 63.0353 37.6606 62.7642 37.7908 62.4233C37.921 62.0824 37.9862 61.7 37.9862 61.2763C37.9862 60.8572 37.921 60.4796 37.7908 60.1435C37.663 59.8073 37.4736 59.541 37.2227 59.3445C36.9717 59.1456 36.6639 59.0462 36.2994 59.0462C35.9442 59.0462 35.6424 59.142 35.3938 59.3338C35.1476 59.5232 34.9594 59.786 34.8292 60.1222C34.699 60.456 34.6339 60.8407 34.6339 61.2763ZM42.2156 64.1136C41.7066 64.1136 41.2662 63.9953 40.8945 63.7585C40.5228 63.5194 40.2352 63.1892 40.0316 62.7678C39.8304 62.344 39.7298 61.8563 39.7298 61.3047C39.7298 60.7554 39.8304 60.2678 40.0316 59.8416C40.2352 59.4131 40.5157 59.0781 40.8732 58.8366C41.2331 58.5928 41.6486 58.4709 42.1197 58.4709C42.4156 58.4709 42.7009 58.5253 42.9755 58.6342C43.2501 58.7408 43.4963 58.9053 43.7141 59.1278C43.9343 59.348 44.1083 59.6262 44.2362 59.9624C44.364 60.2962 44.4279 60.6915 44.4279 61.1484V61.4609H40.1665V60.9034H43.7816C43.7816 60.553 43.7106 60.2382 43.5685 59.9588C43.4289 59.6771 43.2335 59.4545 42.9826 59.2912C42.734 59.1278 42.4464 59.0462 42.1197 59.0462C41.774 59.0462 41.4698 59.1385 41.207 59.3232C40.9442 59.5078 40.7383 59.7517 40.5891 60.0547C40.4424 60.3577 40.3678 60.6892 40.3654 61.049V61.3828C40.3654 61.8161 40.44 62.1948 40.5891 62.5192C40.7406 62.8411 40.9549 63.0909 41.2319 63.2685C41.5089 63.446 41.8368 63.5348 42.2156 63.5348C42.4736 63.5348 42.6997 63.4946 42.8938 63.4141C43.0903 63.3336 43.2549 63.2259 43.3874 63.0909C43.5224 62.9536 43.6242 62.8033 43.6928 62.6399L44.293 62.8352C44.2101 63.0649 44.074 63.2768 43.8846 63.4709C43.6976 63.665 43.4632 63.8213 43.1815 63.9396C42.9021 64.0556 42.5801 64.1136 42.2156 64.1136ZM48.6333 64V58.5455H49.2477V59.3835H49.2939C49.4028 59.1089 49.5922 58.8875 49.862 58.7195C50.1343 58.549 50.4421 58.4638 50.7853 58.4638C50.8374 58.4638 50.8954 58.465 50.9593 58.4673C51.0233 58.4697 51.0765 58.4721 51.1191 58.4744V59.1172C51.0907 59.1125 51.041 59.1054 50.97 59.0959C50.899 59.0864 50.822 59.0817 50.7392 59.0817C50.4551 59.0817 50.2018 59.142 49.9792 59.2628C49.7591 59.3812 49.585 59.5457 49.4572 59.7564C49.3294 59.9671 49.2654 60.2074 49.2654 60.4773V64H48.6333ZM54.237 64.1136C53.728 64.1136 53.2877 63.9953 52.916 63.7585C52.5443 63.5194 52.2567 63.1892 52.0531 62.7678C51.8519 62.344 51.7512 61.8563 51.7512 61.3047C51.7512 60.7554 51.8519 60.2678 52.0531 59.8416C52.2567 59.4131 52.5372 59.0781 52.8947 58.8366C53.2546 58.5928 53.67 58.4709 54.1412 58.4709C54.4371 58.4709 54.7224 58.5253 54.997 58.6342C55.2716 58.7408 55.5178 58.9053 55.7356 59.1278C55.9558 59.348 56.1298 59.6262 56.2576 59.9624C56.3855 60.2962 56.4494 60.6915 56.4494 61.1484V61.4609H52.188V60.9034H55.8031C55.8031 60.553 55.7321 60.2382 55.59 59.9588C55.4503 59.6771 55.255 59.4545 55.0041 59.2912C54.7555 59.1278 54.4679 59.0462 54.1412 59.0462C53.7955 59.0462 53.4913 59.1385 53.2285 59.3232C52.9657 59.5078 52.7598 59.7517 52.6106 60.0547C52.4638 60.3577 52.3893 60.6892 52.3869 61.049V61.3828C52.3869 61.8161 52.4615 62.1948 52.6106 62.5192C52.7621 62.8411 52.9764 63.0909 53.2534 63.2685C53.5304 63.446 53.8583 63.5348 54.237 63.5348C54.4951 63.5348 54.7212 63.4946 54.9153 63.4141C55.1118 63.3336 55.2763 63.2259 55.4089 63.0909C55.5439 62.9536 55.6457 62.8033 55.7143 62.6399L56.3145 62.8352C56.2316 63.0649 56.0955 63.2768 55.9061 63.4709C55.719 63.665 55.4847 63.8213 55.2029 63.9396C54.9236 64.0556 54.6016 64.1136 54.237 64.1136ZM59.973 64.1136C59.4853 64.1136 59.0604 63.9917 58.6982 63.7479C58.3383 63.504 58.0589 63.1702 57.8601 62.7464C57.6612 62.3227 57.5618 61.8397 57.5618 61.2976C57.5618 60.7507 57.6624 60.2642 57.8636 59.8381C58.0672 59.4119 58.349 59.0781 58.7088 58.8366C59.0687 58.5928 59.4865 58.4709 59.9624 58.4709C60.3269 58.4709 60.6572 58.5419 60.9531 58.6839C61.2491 58.8236 61.4929 59.0213 61.6847 59.277C61.8788 59.5303 62.0007 59.8262 62.0504 60.1648H61.4112C61.3449 59.857 61.1851 59.5942 60.9318 59.3764C60.6809 59.1562 60.3613 59.0462 59.973 59.0462C59.625 59.0462 59.3172 59.1409 59.0497 59.3303C58.7822 59.5173 58.5727 59.7789 58.4212 60.1151C58.272 60.4489 58.1974 60.8359 58.1974 61.2763C58.1974 61.719 58.2708 62.1108 58.4176 62.4517C58.5644 62.7902 58.7704 63.0554 59.0355 63.2472C59.303 63.4389 59.6155 63.5348 59.973 63.5348C60.2145 63.5348 60.4347 63.4898 60.6335 63.3999C60.8348 63.3075 61.0028 63.1773 61.1378 63.0092C61.2751 62.8411 61.3674 62.6411 61.4148 62.4091H62.054C62.0066 62.7382 61.8894 63.0317 61.7024 63.2898C61.5178 63.5455 61.2775 63.7467 60.9815 63.8935C60.688 64.0402 60.3518 64.1136 59.973 64.1136ZM65.5288 64.1136C65.0576 64.1136 64.641 63.9941 64.2788 63.755C63.9189 63.5159 63.6372 63.1856 63.4336 62.7642C63.23 62.3404 63.1282 61.8516 63.1282 61.2976C63.1282 60.7389 63.23 60.2476 63.4336 59.8239C63.6372 59.3977 63.9189 59.0663 64.2788 58.8295C64.641 58.5904 65.0576 58.4709 65.5288 58.4709C65.9999 58.4709 66.4154 58.5904 66.7752 58.8295C67.1351 59.0687 67.4168 59.4001 67.6204 59.8239C67.8263 60.2476 67.9293 60.7389 67.9293 61.2976C67.9293 61.8516 67.8275 62.3404 67.6239 62.7642C67.4203 63.1856 67.1374 63.5159 66.7752 63.755C66.4154 63.9941 65.9999 64.1136 65.5288 64.1136ZM65.5288 63.5348C65.9076 63.5348 66.2283 63.433 66.4911 63.2294C66.7539 63.0258 66.9528 62.7547 67.0877 62.4162C67.225 62.0777 67.2937 61.7048 67.2937 61.2976C67.2937 60.8904 67.225 60.5163 67.0877 60.1754C66.9528 59.8345 66.7539 59.5611 66.4911 59.3551C66.2283 59.1491 65.9076 59.0462 65.5288 59.0462C65.1523 59.0462 64.8316 59.1491 64.5664 59.3551C64.3036 59.5611 64.1036 59.8345 63.9663 60.1754C63.8313 60.5163 63.7638 60.8904 63.7638 61.2976C63.7638 61.7048 63.8313 62.0777 63.9663 62.4162C64.1036 62.7547 64.3036 63.0258 64.5664 63.2294C64.8292 63.433 65.15 63.5348 65.5288 63.5348ZM69.3169 64V58.5455H69.9313V59.3835H69.9775C70.0864 59.1089 70.2757 58.8875 70.5456 58.7195C70.8179 58.549 71.1257 58.4638 71.4689 58.4638C71.521 58.4638 71.579 58.465 71.6429 58.4673C71.7069 58.4697 71.7601 58.4721 71.8027 58.4744V59.1172C71.7743 59.1125 71.7246 59.1054 71.6536 59.0959C71.5826 59.0864 71.5056 59.0817 71.4228 59.0817C71.1387 59.0817 70.8854 59.142 70.6628 59.2628C70.4426 59.3812 70.2686 59.5457 70.1408 59.7564C70.013 59.9671 69.949 60.2074 69.949 60.4773V64H69.3169ZM74.6792 64.1136C74.2317 64.1136 73.8399 63.9953 73.5037 63.7585C73.1676 63.5218 72.9048 63.1915 72.7154 62.7678C72.5283 62.344 72.4348 61.8504 72.4348 61.2869C72.4348 60.7259 72.5283 60.2346 72.7154 59.8132C72.9048 59.3894 73.1687 59.0604 73.5073 58.826C73.8458 58.5893 74.24 58.4709 74.6898 58.4709C75.0212 58.4709 75.2971 58.5301 75.5172 58.6484C75.7374 58.7644 75.9138 58.9089 76.0463 59.0817C76.1789 59.2545 76.2819 59.4226 76.3553 59.5859H76.4121V56.7273H77.0478V64H76.4299V62.9879H76.3553C76.2819 63.1536 76.1777 63.3241 76.0428 63.4993C75.9078 63.6721 75.7291 63.8177 75.5066 63.9361C75.2864 64.0545 75.0106 64.1136 74.6792 64.1136ZM74.7537 63.5348C75.1065 63.5348 75.4071 63.4389 75.6557 63.2472C75.9043 63.053 76.0937 62.7867 76.2239 62.4482C76.3565 62.1072 76.4228 61.7166 76.4228 61.2763C76.4228 60.8407 76.3577 60.456 76.2275 60.1222C76.0972 59.786 75.9078 59.5232 75.6593 59.3338C75.4107 59.142 75.1088 59.0462 74.7537 59.0462C74.3891 59.0462 74.0814 59.1456 73.8304 59.3445C73.5819 59.541 73.3925 59.8073 73.2623 60.1435C73.1344 60.4796 73.0705 60.8572 73.0705 61.2763C73.0705 61.7 73.1356 62.0824 73.2658 62.4233C73.396 62.7642 73.5854 63.0353 73.834 63.2365C74.0849 63.4354 74.3915 63.5348 74.7537 63.5348ZM81.0534 64.1136C80.5444 64.1136 80.1041 63.9953 79.7324 63.7585C79.3607 63.5194 79.0731 63.1892 78.8695 62.7678C78.6683 62.344 78.5676 61.8563 78.5676 61.3047C78.5676 60.7554 78.6683 60.2678 78.8695 59.8416C79.0731 59.4131 79.3536 59.0781 79.7111 58.8366C80.071 58.5928 80.4864 58.4709 80.9576 58.4709C81.2535 58.4709 81.5388 58.5253 81.8134 58.6342C82.088 58.7408 82.3342 58.9053 82.552 59.1278C82.7722 59.348 82.9462 59.6262 83.074 59.9624C83.2019 60.2962 83.2658 60.6915 83.2658 61.1484V61.4609H79.0044V60.9034H82.6195C82.6195 60.553 82.5485 60.2382 82.4064 59.9588C82.2667 59.6771 82.0714 59.4545 81.8205 59.2912C81.5719 59.1278 81.2843 59.0462 80.9576 59.0462C80.6119 59.0462 80.3077 59.1385 80.0449 59.3232C79.7821 59.5078 79.5762 59.7517 79.427 60.0547C79.2802 60.3577 79.2057 60.6892 79.2033 61.049V61.3828C79.2033 61.8161 79.2779 62.1948 79.427 62.5192C79.5785 62.8411 79.7928 63.0909 80.0698 63.2685C80.3468 63.446 80.6747 63.5348 81.0534 63.5348C81.3115 63.5348 81.5376 63.4946 81.7317 63.4141C81.9282 63.3336 82.0927 63.2259 82.2253 63.0909C82.3603 62.9536 82.4621 62.8033 82.5307 62.6399L83.1309 62.8352C83.048 63.0649 82.9119 63.2768 82.7225 63.4709C82.5355 63.665 82.3011 63.8213 82.0194 63.9396C81.74 64.0556 81.418 64.1136 81.0534 64.1136ZM86.6225 64.1136C86.1751 64.1136 85.7833 63.9953 85.4471 63.7585C85.1109 63.5218 84.8481 63.1915 84.6587 62.7678C84.4717 62.344 84.3782 61.8504 84.3782 61.2869C84.3782 60.7259 84.4717 60.2346 84.6587 59.8132C84.8481 59.3894 85.1121 59.0604 85.4506 58.826C85.7892 58.5893 86.1834 58.4709 86.6332 58.4709C86.9646 58.4709 87.2404 58.5301 87.4606 58.6484C87.6808 58.7644 87.8571 58.9089 87.9897 59.0817C88.1223 59.2545 88.2253 59.4226 88.2987 59.5859H88.3555V56.7273H88.9911V64H88.3732V62.9879H88.2987C88.2253 63.1536 88.1211 63.3241 87.9862 63.4993C87.8512 63.6721 87.6725 63.8177 87.4499 63.9361C87.2298 64.0545 86.954 64.1136 86.6225 64.1136ZM86.6971 63.5348C87.0498 63.5348 87.3505 63.4389 87.5991 63.2472C87.8477 63.053 88.0371 62.7867 88.1673 62.4482C88.2998 62.1072 88.3661 61.7166 88.3661 61.2763C88.3661 60.8407 88.301 60.456 88.1708 60.1222C88.0406 59.786 87.8512 59.5232 87.6026 59.3338C87.354 59.142 87.0522 59.0462 86.6971 59.0462C86.3325 59.0462 86.0247 59.1456 85.7738 59.3445C85.5252 59.541 85.3358 59.8073 85.2056 60.1435C85.0778 60.4796 85.0138 60.8572 85.0138 61.2763C85.0138 61.7 85.079 62.0824 85.2092 62.4233C85.3394 62.7642 85.5288 63.0353 85.7773 63.2365C86.0283 63.4354 86.3349 63.5348 86.6971 63.5348Z" fill="#222222"/>
<defs>
<filter id="filter0_d_991_209" x="0" y="0" width="118" height="118" filterUnits="userSpaceOnUse" color-interpolation-filters="sRGB">
<feFlood flood-opacity="0" result="BackgroundImageFix"/>
<feColorMatrix in="SourceAlpha" type="matrix" values="0 0 0 0 0 0 0 0 0 0 0 0 0 0 0 0 0 0 127 0" result="hardAlpha"/>
<feOffset dy="4"/>
<feGaussianBlur stdDeviation="2"/>
<feComposite in2="hardAlpha" operator="out"/>
<feColorMatrix type="matrix" values="0 0 0 0 0 0 0 0 0 0 0 0 0 0 0 0 0 0 0.25 0"/>
<feBlend mode="normal" in2="BackgroundImageFix" result="effect1_dropShadow_991_209"/>
<feBlend mode="normal" in="SourceGraphic" in2="effect1_dropShadow_991_209" result="shape"/>
</filter>
</defs>
</svg>
