<svg width="118" height="118" viewBox="0 0 118 118" fill="none" xmlns="http://www.w3.org/2000/svg">
<g filter="url(#filter0_d_991_203)">
<rect x="4" width="110" height="110" fill="#C9C8D8" fill-opacity="0.5" shape-rendering="crispEdges"/>
</g>
<path d="M24.0621 40L22.4143 34.5455H23.0819L24.3746 39.0447H24.4207L25.7098 34.5455H26.3809L27.6594 39.0341H27.7091L29.0017 34.5455H29.6693L28.0216 40H27.3682L26.0756 35.5291H26.0081L24.7155 40H24.0621ZM32.8325 40.1136C32.3614 40.1136 31.9447 39.9941 31.5825 39.755C31.2226 39.5159 30.9409 39.1856 30.7373 38.7642C30.5337 38.3404 30.4319 37.8516 30.4319 37.2976C30.4319 36.7389 30.5337 36.2476 30.7373 35.8239C30.9409 35.3977 31.2226 35.0663 31.5825 34.8295C31.9447 34.5904 32.3614 34.4709 32.8325 34.4709C33.3036 34.4709 33.7191 34.5904 34.0789 34.8295C34.4388 35.0687 34.7205 35.4001 34.9241 35.8239C35.1301 36.2476 35.233 36.7389 35.233 37.2976C35.233 37.8516 35.1312 38.3404 34.9276 38.7642C34.724 39.1856 34.4411 39.5159 34.0789 39.755C33.7191 39.9941 33.3036 40.1136 32.8325 40.1136ZM32.8325 39.5348C33.2113 39.5348 33.532 39.433 33.7948 39.2294C34.0576 39.0258 34.2565 38.7547 34.3914 38.4162C34.5287 38.0777 34.5974 37.7048 34.5974 37.2976C34.5974 36.8904 34.5287 36.5163 34.3914 36.1754C34.2565 35.8345 34.0576 35.5611 33.7948 35.3551C33.532 35.1491 33.2113 35.0462 32.8325 35.0462C32.4561 35.0462 32.1353 35.1491 31.8701 35.3551C31.6073 35.5611 31.4073 35.8345 31.27 36.1754C31.135 36.5163 31.0676 36.8904 31.0676 37.2976C31.0676 37.7048 31.135 38.0777 31.27 38.4162C31.4073 38.7547 31.6073 39.0258 31.8701 39.2294C32.1329 39.433 32.4537 39.5348 32.8325 39.5348ZM36.6206 40V34.5455H37.235V35.3835H37.2812C37.3901 35.1089 37.5795 34.8875 37.8493 34.7195C38.1216 34.549 38.4294 34.4638 38.7726 34.4638C38.8247 34.4638 38.8827 34.465 38.9466 34.4673C39.0106 34.4697 39.0638 34.4721 39.1064 34.4744V35.1172C39.078 35.1125 39.0283 35.1054 38.9573 35.0959C38.8863 35.0864 38.8093 35.0817 38.7265 35.0817C38.4424 35.0817 38.1891 35.142 37.9665 35.2628C37.7464 35.3812 37.5724 35.5457 37.4445 35.7564C37.3167 35.9671 37.2528 36.2074 37.2528 36.4773V40H36.6206ZM40.7604 37.9403L40.7533 37.1129H40.8953L43.4521 34.5455H44.2512L41.7263 37.0739L41.6695 37.0845L40.7604 37.9403ZM40.1851 40V32.7273H40.8172V40H40.1851ZM43.5835 40L41.3676 37.1982L41.8222 36.7614L44.3932 40H43.5835ZM50.3715 40.1136C49.9004 40.1136 49.4838 39.9941 49.1215 39.755C48.7617 39.5159 48.48 39.1856 48.2764 38.7642C48.0728 38.3404 47.971 37.8516 47.971 37.2976C47.971 36.7389 48.0728 36.2476 48.2764 35.8239C48.48 35.3977 48.7617 35.0663 49.1215 34.8295C49.4838 34.5904 49.9004 34.4709 50.3715 34.4709C50.8427 34.4709 51.2581 34.5904 51.618 34.8295C51.9778 35.0687 52.2596 35.4001 52.4632 35.8239C52.6691 36.2476 52.7721 36.7389 52.7721 37.2976C52.7721 37.8516 52.6703 38.3404 52.4667 38.7642C52.2631 39.1856 51.9802 39.5159 51.618 39.755C51.2581 39.9941 50.8427 40.1136 50.3715 40.1136ZM50.3715 39.5348C50.7503 39.5348 51.0711 39.433 51.3339 39.2294C51.5967 39.0258 51.7955 38.7547 51.9305 38.4162C52.0678 38.0777 52.1365 37.7048 52.1365 37.2976C52.1365 36.8904 52.0678 36.5163 51.9305 36.1754C51.7955 35.8345 51.5967 35.5611 51.3339 35.3551C51.0711 35.1491 50.7503 35.0462 50.3715 35.0462C49.9951 35.0462 49.6743 35.1491 49.4092 35.3551C49.1464 35.5611 48.9463 35.8345 48.809 36.1754C48.6741 36.5163 48.6066 36.8904 48.6066 37.2976C48.6066 37.7048 48.6741 38.0777 48.809 38.4162C48.9463 38.7547 49.1464 39.0258 49.4092 39.2294C49.672 39.433 49.9927 39.5348 50.3715 39.5348ZM54.7918 36.5909V40H54.1597V34.5455H54.7741V35.4013H54.8309C54.9587 35.1219 55.1576 34.8982 55.4275 34.7301C55.6997 34.5597 56.0359 34.4744 56.436 34.4744C56.8029 34.4744 57.1249 34.5514 57.4019 34.7053C57.6813 34.8568 57.8979 35.0805 58.0518 35.3764C58.208 35.6723 58.2861 36.0357 58.2861 36.4666V40H57.654V36.5057C57.654 36.0582 57.5286 35.7043 57.2776 35.4439C57.029 35.1835 56.6952 35.0533 56.2762 35.0533C55.9897 35.0533 55.7352 35.1148 55.5127 35.2379C55.2902 35.361 55.1138 35.5386 54.9836 35.7706C54.8557 36.0002 54.7918 36.2737 54.7918 36.5909ZM62.7632 40V34.5455H63.3776V35.3835H63.4344C63.5433 35.1018 63.7244 34.8804 63.9777 34.7195C64.2334 34.5561 64.54 34.4744 64.8975 34.4744C65.2739 34.4744 65.5828 34.5632 65.8243 34.7408C66.0682 34.916 66.2504 35.1574 66.3712 35.4652H66.4173C66.5405 35.1622 66.7405 34.9219 67.0175 34.7443C67.2968 34.5644 67.6354 34.4744 68.0331 34.4744C68.5397 34.4744 68.9398 34.6342 69.2334 34.9538C69.527 35.2711 69.6737 35.7351 69.6737 36.3459V40H69.0416V36.3459C69.0416 35.915 68.9316 35.5919 68.7114 35.3764C68.4912 35.161 68.2012 35.0533 67.8414 35.0533C67.4247 35.0533 67.1039 35.1811 66.879 35.4368C66.6541 35.6925 66.5416 36.0168 66.5416 36.4098V40H65.8953V36.2891C65.8953 35.9197 65.7923 35.6214 65.5864 35.3942C65.3804 35.1669 65.0904 35.0533 64.7164 35.0533C64.4654 35.0533 64.2393 35.1148 64.0381 35.2379C63.8392 35.361 63.6818 35.5327 63.5658 35.7528C63.4521 35.9706 63.3953 36.2216 63.3953 36.5057V40H62.7632ZM73.4672 40.1136C72.9961 40.1136 72.5795 39.9941 72.2172 39.755C71.8574 39.5159 71.5757 39.1856 71.3721 38.7642C71.1685 38.3404 71.0667 37.8516 71.0667 37.2976C71.0667 36.7389 71.1685 36.2476 71.3721 35.8239C71.5757 35.3977 71.8574 35.0663 72.2172 34.8295C72.5795 34.5904 72.9961 34.4709 73.4672 34.4709C73.9384 34.4709 74.3538 34.5904 74.7137 34.8295C75.0735 35.0687 75.3553 35.4001 75.5589 35.8239C75.7648 36.2476 75.8678 36.7389 75.8678 37.2976C75.8678 37.8516 75.766 38.3404 75.5624 38.7642C75.3588 39.1856 75.0759 39.5159 74.7137 39.755C74.3538 39.9941 73.9384 40.1136 73.4672 40.1136ZM73.4672 39.5348C73.846 39.5348 74.1668 39.433 74.4296 39.2294C74.6924 39.0258 74.8912 38.7547 75.0262 38.4162C75.1635 38.0777 75.2322 37.7048 75.2322 37.2976C75.2322 36.8904 75.1635 36.5163 75.0262 36.1754C74.8912 35.8345 74.6924 35.5611 74.4296 35.3551C74.1668 35.1491 73.846 35.0462 73.4672 35.0462C73.0908 35.0462 72.77 35.1491 72.5049 35.3551C72.2421 35.5611 72.0421 35.8345 71.9047 36.1754C71.7698 36.5163 71.7023 36.8904 71.7023 37.2976C71.7023 37.7048 71.7698 38.0777 71.9047 38.4162C72.0421 38.7547 72.2421 39.0258 72.5049 39.2294C72.7677 39.433 73.0885 39.5348 73.4672 39.5348ZM77.3868 40V32.7273H78.0225V35.5859H78.0793C78.1503 35.4226 78.2521 35.2545 78.3847 35.0817C78.5196 34.9089 78.696 34.7644 78.9138 34.6484C79.134 34.5301 79.411 34.4709 79.7448 34.4709C80.1922 34.4709 80.5852 34.5893 80.9237 34.826C81.2623 35.0604 81.5262 35.3894 81.7156 35.8132C81.905 36.2346 81.9997 36.7259 81.9997 37.2869C81.9997 37.8504 81.905 38.344 81.7156 38.7678C81.5286 39.1915 81.2658 39.5218 80.9273 39.7585C80.5911 39.9953 80.2005 40.1136 79.7554 40.1136C79.424 40.1136 79.147 40.0545 78.9244 39.9361C78.7043 39.8177 78.5267 39.6721 78.3918 39.4993C78.2568 39.3241 78.1527 39.1536 78.0793 38.9879H78.0012V40H77.3868ZM78.0118 37.2763C78.0118 37.7166 78.0769 38.1072 78.2071 38.4482C78.3397 38.7867 78.5291 39.053 78.7753 39.2472C79.0239 39.4389 79.3245 39.5348 79.6773 39.5348C80.0395 39.5348 80.3461 39.4354 80.597 39.2365C80.848 39.0353 81.0386 38.7642 81.1688 38.4233C81.299 38.0824 81.3641 37.7 81.3641 37.2763C81.3641 36.8572 81.299 36.4796 81.1688 36.1435C81.0409 35.8073 80.8515 35.541 80.6006 35.3445C80.3496 35.1456 80.0419 35.0462 79.6773 35.0462C79.3222 35.0462 79.0203 35.142 78.7718 35.3338C78.5255 35.5232 78.3373 35.786 78.2071 36.1222C78.0769 36.456 78.0118 36.8407 78.0118 37.2763ZM83.3953 40V34.5455H84.031V40H83.3953ZM83.7185 33.608C83.5883 33.608 83.477 33.5642 83.3847 33.4766C83.2923 33.3866 83.2462 33.2789 83.2462 33.1534C83.2462 33.0279 83.2923 32.9214 83.3847 32.8338C83.477 32.7438 83.5883 32.6989 83.7185 32.6989C83.8487 32.6989 83.96 32.7438 84.0523 32.8338C84.1446 32.9214 84.1908 33.0279 84.1908 33.1534C84.1908 33.2789 84.1446 33.3866 84.0523 33.4766C83.96 33.5642 83.8487 33.608 83.7185 33.608ZM86.3348 32.7273V40H85.7027V32.7273H86.3348ZM90.2126 40.1136C89.7036 40.1136 89.2633 39.9953 88.8916 39.7585C88.5199 39.5194 88.2323 39.1892 88.0287 38.7678C87.8274 38.344 87.7268 37.8563 87.7268 37.3047C87.7268 36.7554 87.8274 36.2678 88.0287 35.8416C88.2323 35.4131 88.5128 35.0781 88.8703 34.8366C89.2301 34.5928 89.6456 34.4709 90.1167 34.4709C90.4127 34.4709 90.6979 34.5253 90.9726 34.6342C91.2472 34.7408 91.4934 34.9053 91.7112 35.1278C91.9314 35.348 92.1054 35.6262 92.2332 35.9624C92.3611 36.2962 92.425 36.6915 92.425 37.1484V37.4609H88.1636V36.9034H91.7787C91.7787 36.553 91.7077 36.2382 91.5656 35.9588C91.4259 35.6771 91.2306 35.4545 90.9797 35.2912C90.7311 35.1278 90.4434 35.0462 90.1167 35.0462C89.7711 35.0462 89.4669 35.1385 89.2041 35.3232C88.9413 35.5078 88.7354 35.7517 88.5862 36.0547C88.4394 36.3577 88.3648 36.6892 88.3625 37.049V37.3828C88.3625 37.8161 88.4371 38.1948 88.5862 38.5192C88.7377 38.8411 88.952 39.0909 89.229 39.2685C89.5059 39.446 89.8338 39.5348 90.2126 39.5348C90.4707 39.5348 90.6968 39.4946 90.8909 39.4141C91.0874 39.3336 91.2519 39.2259 91.3845 39.0909C91.5194 38.9536 91.6212 38.8033 91.6899 38.6399L92.29 38.8352C92.2072 39.0649 92.0711 39.2768 91.8817 39.4709C91.6946 39.665 91.4603 39.8213 91.1785 39.9396C90.8992 40.0556 90.5772 40.1136 90.2126 40.1136ZM22.0543 48.9318C22.0543 48.0795 22.1621 47.2746 22.3775 46.517C22.5929 45.7595 22.9019 45.0492 23.3043 44.3864H23.8796C23.7068 44.6657 23.5482 44.9818 23.4038 45.3345C23.2617 45.6873 23.1386 46.0637 23.0344 46.4638C22.9303 46.8639 22.8498 47.2734 22.793 47.6925C22.7362 48.1091 22.7077 48.5223 22.7077 48.9318C22.7077 49.4787 22.7575 50.0303 22.8569 50.5866C22.9563 51.143 23.0936 51.6709 23.2688 52.1705C23.4464 52.67 23.65 53.1056 23.8796 53.4773H23.3043C22.9019 52.812 22.5929 52.1006 22.3775 51.343C22.1621 50.5855 22.0543 49.7817 22.0543 48.9318ZM25.3897 52V44.7273H26.0254V47.5859H26.0822C26.1532 47.4226 26.255 47.2545 26.3876 47.0817C26.5225 46.9089 26.6989 46.7644 26.9167 46.6484C27.1369 46.5301 27.4139 46.4709 27.7477 46.4709C28.1951 46.4709 28.5881 46.5893 28.9267 46.826C29.2652 47.0604 29.5292 47.3894 29.7186 47.8132C29.908 48.2346 30.0027 48.7259 30.0027 49.2869C30.0027 49.8504 29.908 50.344 29.7186 50.7678C29.5315 51.1915 29.2688 51.5218 28.9302 51.7585C28.594 51.9953 28.2034 52.1136 27.7583 52.1136C27.4269 52.1136 27.1499 52.0545 26.9274 51.9361C26.7072 51.8177 26.5297 51.6721 26.3947 51.4993C26.2598 51.3241 26.1556 51.1536 26.0822 50.9879H26.0041V52H25.3897ZM26.0147 49.2763C26.0147 49.7166 26.0798 50.1072 26.21 50.4482C26.3426 50.7867 26.532 51.053 26.7782 51.2472C27.0268 51.4389 27.3275 51.5348 27.6802 51.5348C28.0424 51.5348 28.349 51.4354 28.6 51.2365C28.8509 51.0353 29.0415 50.7642 29.1717 50.4233C29.3019 50.0824 29.367 49.7 29.367 49.2763C29.367 48.8572 29.3019 48.4796 29.1717 48.1435C29.0439 47.8073 28.8545 47.541 28.6035 47.3445C28.3526 47.1456 28.0448 47.0462 27.6802 47.0462C27.3251 47.0462 27.0233 47.142 26.7747 47.3338C26.5285 47.5232 26.3403 47.786 26.21 48.1222C26.0798 48.456 26.0147 48.8407 26.0147 49.2763ZM33.5964 52.1136C33.0874 52.1136 32.6471 51.9953 32.2754 51.7585C31.9037 51.5194 31.6161 51.1892 31.4125 50.7678C31.2112 50.344 31.1106 49.8563 31.1106 49.3047C31.1106 48.7554 31.2112 48.2678 31.4125 47.8416C31.6161 47.4131 31.8966 47.0781 32.2541 46.8366C32.6139 46.5928 33.0294 46.4709 33.5005 46.4709C33.7965 46.4709 34.0817 46.5253 34.3564 46.6342C34.631 46.7408 34.8772 46.9053 35.095 47.1278C35.3152 47.348 35.4892 47.6262 35.617 47.9624C35.7449 48.2962 35.8088 48.6915 35.8088 49.1484V49.4609H31.5474V48.9034H35.1625C35.1625 48.553 35.0914 48.2382 34.9494 47.9588C34.8097 47.6771 34.6144 47.4545 34.3635 47.2912C34.1149 47.1278 33.8272 47.0462 33.5005 47.0462C33.1549 47.0462 32.8507 47.1385 32.5879 47.3232C32.3251 47.5078 32.1191 47.7517 31.97 48.0547C31.8232 48.3577 31.7486 48.6892 31.7463 49.049V49.3828C31.7463 49.8161 31.8208 50.1948 31.97 50.5192C32.1215 50.8411 32.3358 51.0909 32.6127 51.2685C32.8897 51.446 33.2176 51.5348 33.5964 51.5348C33.8545 51.5348 34.0806 51.4946 34.2747 51.4141C34.4712 51.3336 34.6357 51.2259 34.7683 51.0909C34.9032 50.9536 35.005 50.8033 35.0737 50.6399L35.6738 50.8352C35.591 51.0649 35.4548 51.2768 35.2654 51.4709C35.0784 51.665 34.844 51.8213 34.5623 51.9396C34.283 52.0556 33.961 52.1136 33.5964 52.1136ZM41.5376 52.1243C41.2086 52.1243 40.9079 52.0604 40.6357 51.9325C40.3634 51.8023 40.1468 51.6153 39.9858 51.3714C39.8248 51.1252 39.7443 50.8269 39.7443 50.4766C39.7443 50.2067 39.7952 49.9794 39.897 49.7947C39.9988 49.6101 40.1432 49.4586 40.3303 49.3402C40.5173 49.2218 40.7386 49.1283 40.9943 49.0597C41.25 48.991 41.5317 48.9377 41.8395 48.8999C42.1449 48.862 42.4029 48.8288 42.6136 48.8004C42.8267 48.772 42.9889 48.727 43.1001 48.6655C43.2114 48.6039 43.267 48.5045 43.267 48.3672V48.2393C43.267 47.8677 43.1558 47.5753 42.9332 47.3622C42.7131 47.1468 42.3958 47.0391 41.9815 47.0391C41.5885 47.0391 41.2678 47.1255 41.0192 47.2983C40.773 47.4711 40.6001 47.6747 40.5007 47.9091L39.9006 47.6925C40.0237 47.3942 40.1941 47.1562 40.4119 46.9787C40.6297 46.7988 40.8736 46.6697 41.1435 46.5916C41.4134 46.5111 41.6868 46.4709 41.9638 46.4709C42.1721 46.4709 42.3887 46.4981 42.6136 46.5526C42.8409 46.607 43.0516 46.7017 43.2457 46.8366C43.4399 46.9692 43.5973 47.1551 43.718 47.3942C43.8388 47.6309 43.8991 47.9316 43.8991 48.2962V52H43.267V51.1371H43.228C43.1522 51.2981 43.0398 51.4543 42.8906 51.6058C42.7415 51.7573 42.5545 51.8816 42.3295 51.9787C42.1046 52.0758 41.8407 52.1243 41.5376 52.1243ZM41.6229 51.5455C41.959 51.5455 42.2502 51.4709 42.4964 51.3217C42.7427 51.1726 42.9321 50.9749 43.0646 50.7287C43.1996 50.4801 43.267 50.2067 43.267 49.9084V49.12C43.2197 49.165 43.1404 49.2053 43.0291 49.2408C42.9202 49.2763 42.7936 49.3082 42.6491 49.3366C42.5071 49.3627 42.3651 49.3852 42.223 49.4041C42.081 49.4231 41.9531 49.4396 41.8395 49.4538C41.5317 49.4917 41.2689 49.5509 41.0511 49.6314C40.8333 49.7119 40.6664 49.8232 40.5504 49.9652C40.4344 50.1049 40.3764 50.2848 40.3764 50.505C40.3764 50.8364 40.4948 51.0933 40.7315 51.2756C40.9683 51.4555 41.2654 51.5455 41.6229 51.5455ZM45.712 52V44.7273H46.3477V47.5859H46.4045C46.4755 47.4226 46.5773 47.2545 46.7099 47.0817C46.8448 46.9089 47.0212 46.7644 47.239 46.6484C47.4592 46.5301 47.7362 46.4709 48.07 46.4709C48.5174 46.4709 48.9104 46.5893 49.2489 46.826C49.5875 47.0604 49.8514 47.3894 50.0408 47.8132C50.2302 48.2346 50.3249 48.7259 50.3249 49.2869C50.3249 49.8504 50.2302 50.344 50.0408 50.7678C49.8538 51.1915 49.591 51.5218 49.2525 51.7585C48.9163 51.9953 48.5257 52.1136 48.0806 52.1136C47.7492 52.1136 47.4722 52.0545 47.2496 51.9361C47.0295 51.8177 46.8519 51.6721 46.717 51.4993C46.582 51.3241 46.4779 51.1536 46.4045 50.9879H46.3263V52H45.712ZM46.337 49.2763C46.337 49.7166 46.4021 50.1072 46.5323 50.4482C46.6649 50.7867 46.8543 51.053 47.1005 51.2472C47.3491 51.4389 47.6497 51.5348 48.0025 51.5348C48.3647 51.5348 48.6713 51.4354 48.9222 51.2365C49.1732 51.0353 49.3638 50.7642 49.494 50.4233C49.6242 50.0824 49.6893 49.7 49.6893 49.2763C49.6893 48.8572 49.6242 48.4796 49.494 48.1435C49.3661 47.8073 49.1767 47.541 48.9258 47.3445C48.6748 47.1456 48.3671 47.0462 48.0025 47.0462C47.6474 47.0462 47.3455 47.142 47.0969 47.3338C46.8507 47.5232 46.6625 47.786 46.5323 48.1222C46.4021 48.456 46.337 48.8407 46.337 49.2763ZM52.3455 44.7273V52H51.7134V44.7273H52.3455ZM56.2234 52.1136C55.7144 52.1136 55.274 51.9953 54.9023 51.7585C54.5307 51.5194 54.243 51.1892 54.0394 50.7678C53.8382 50.344 53.7376 49.8563 53.7376 49.3047C53.7376 48.7554 53.8382 48.2678 54.0394 47.8416C54.243 47.4131 54.5236 47.0781 54.881 46.8366C55.2409 46.5928 55.6564 46.4709 56.1275 46.4709C56.4234 46.4709 56.7087 46.5253 56.9833 46.6342C57.2579 46.7408 57.5041 46.9053 57.7219 47.1278C57.9421 47.348 58.1161 47.6262 58.244 47.9624C58.3718 48.2962 58.4357 48.6915 58.4357 49.1484V49.4609H54.1744V48.9034H57.7894C57.7894 48.553 57.7184 48.2382 57.5763 47.9588C57.4367 47.6771 57.2414 47.4545 56.9904 47.2912C56.7418 47.1278 56.4542 47.0462 56.1275 47.0462C55.7818 47.0462 55.4776 47.1385 55.2148 47.3232C54.9521 47.5078 54.7461 47.7517 54.5969 48.0547C54.4502 48.3577 54.3756 48.6892 54.3732 49.049V49.3828C54.3732 49.8161 54.4478 50.1948 54.5969 50.5192C54.7485 50.8411 54.9627 51.0909 55.2397 51.2685C55.5167 51.446 55.8446 51.5348 56.2234 51.5348C56.4814 51.5348 56.7075 51.4946 56.9016 51.4141C57.0981 51.3336 57.2627 51.2259 57.3952 51.0909C57.5302 50.9536 57.632 50.8033 57.7006 50.6399L58.3008 50.8352C58.2179 51.0649 58.0818 51.2768 57.8924 51.4709C57.7054 51.665 57.471 51.8213 57.1893 51.9396C56.9099 52.0556 56.5879 52.1136 56.2234 52.1136ZM64.7896 46.5455V47.0959H62.1866V46.5455H64.7896ZM62.9998 45.2386H63.6355V50.576C63.6355 50.8033 63.6745 50.982 63.7527 51.1122C63.8308 51.2401 63.9326 51.3312 64.0581 51.3857C64.1835 51.4377 64.3173 51.4638 64.4593 51.4638C64.5422 51.4638 64.6132 51.459 64.6724 51.4496C64.7316 51.4377 64.7837 51.4259 64.8287 51.4141L64.9636 51.9858C64.902 52.0095 64.8263 52.0308 64.7363 52.0497C64.6464 52.071 64.5351 52.0817 64.4025 52.0817C64.1705 52.0817 63.9468 52.0308 63.7314 51.929C63.5183 51.8272 63.3431 51.6757 63.2058 51.4744C63.0685 51.2732 62.9998 51.0234 62.9998 50.7251V45.2386ZM68.2866 52.1136C67.8155 52.1136 67.3988 51.9941 67.0366 51.755C66.6767 51.5159 66.395 51.1856 66.1914 50.7642C65.9878 50.3404 65.886 49.8516 65.886 49.2976C65.886 48.7389 65.9878 48.2476 66.1914 47.8239C66.395 47.3977 66.6767 47.0663 67.0366 46.8295C67.3988 46.5904 67.8155 46.4709 68.2866 46.4709C68.7577 46.4709 69.1732 46.5904 69.533 46.8295C69.8929 47.0687 70.1746 47.4001 70.3782 47.8239C70.5842 48.2476 70.6871 48.7389 70.6871 49.2976C70.6871 49.8516 70.5853 50.3404 70.3817 50.7642C70.1781 51.1856 69.8952 51.5159 69.533 51.755C69.1732 51.9941 68.7577 52.1136 68.2866 52.1136ZM68.2866 51.5348C68.6654 51.5348 68.9862 51.433 69.2489 51.2294C69.5117 51.0258 69.7106 50.7547 69.8455 50.4162C69.9828 50.0777 70.0515 49.7048 70.0515 49.2976C70.0515 48.8904 69.9828 48.5163 69.8455 48.1754C69.7106 47.8345 69.5117 47.5611 69.2489 47.3551C68.9862 47.1491 68.6654 47.0462 68.2866 47.0462C67.9102 47.0462 67.5894 47.1491 67.3242 47.3551C67.0614 47.5611 66.8614 47.8345 66.7241 48.1754C66.5891 48.5163 66.5217 48.8904 66.5217 49.2976C66.5217 49.7048 66.5891 50.0777 66.7241 50.4162C66.8614 50.7547 67.0614 51.0258 67.3242 51.2294C67.587 51.433 67.9078 51.5348 68.2866 51.5348ZM77.0357 46.5455V47.0959H74.4327V46.5455H77.0357ZM75.2459 45.2386H75.8816V50.576C75.8816 50.8033 75.9206 50.982 75.9988 51.1122C76.0769 51.2401 76.1787 51.3312 76.3042 51.3857C76.4296 51.4377 76.5634 51.4638 76.7054 51.4638C76.7883 51.4638 76.8593 51.459 76.9185 51.4496C76.9777 51.4377 77.0298 51.4259 77.0748 51.4141L77.2097 51.9858C77.1481 52.0095 77.0724 52.0308 76.9824 52.0497C76.8925 52.071 76.7812 52.0817 76.6486 52.0817C76.4166 52.0817 76.1929 52.0308 75.9775 51.929C75.7644 51.8272 75.5892 51.6757 75.4519 51.4744C75.3146 51.2732 75.2459 51.0234 75.2459 50.7251V45.2386ZM79.9947 52.1243C79.6656 52.1243 79.3649 52.0604 79.0927 51.9325C78.8204 51.8023 78.6038 51.6153 78.4428 51.3714C78.2818 51.1252 78.2013 50.8269 78.2013 50.4766C78.2013 50.2067 78.2522 49.9794 78.354 49.7947C78.4558 49.6101 78.6003 49.4586 78.7873 49.3402C78.9743 49.2218 79.1957 49.1283 79.4513 49.0597C79.707 48.991 79.9888 48.9377 80.2965 48.8999C80.6019 48.862 80.86 48.8288 81.0707 48.8004C81.2837 48.772 81.4459 48.727 81.5572 48.6655C81.6684 48.6039 81.7241 48.5045 81.7241 48.3672V48.2393C81.7241 47.8677 81.6128 47.5753 81.3903 47.3622C81.1701 47.1468 80.8529 47.0391 80.4386 47.0391C80.0456 47.0391 79.7248 47.1255 79.4762 47.2983C79.23 47.4711 79.0572 47.6747 78.9577 47.9091L78.3576 47.6925C78.4807 47.3942 78.6512 47.1562 78.869 46.9787C79.0868 46.7988 79.3306 46.6697 79.6005 46.5916C79.8704 46.5111 80.1438 46.4709 80.4208 46.4709C80.6291 46.4709 80.8458 46.4981 81.0707 46.5526C81.2979 46.607 81.5086 46.7017 81.7028 46.8366C81.8969 46.9692 82.0543 47.1551 82.1751 47.3942C82.2958 47.6309 82.3562 47.9316 82.3562 48.2962V52H81.7241V51.1371H81.685C81.6093 51.2981 81.4968 51.4543 81.3477 51.6058C81.1985 51.7573 81.0115 51.8816 80.7866 51.9787C80.5617 52.0758 80.2977 52.1243 79.9947 52.1243ZM80.0799 51.5455C80.4161 51.5455 80.7073 51.4709 80.9535 51.3217C81.1997 51.1726 81.3891 50.9749 81.5217 50.7287C81.6566 50.4801 81.7241 50.2067 81.7241 49.9084V49.12C81.6767 49.165 81.5974 49.2053 81.4862 49.2408C81.3772 49.2763 81.2506 49.3082 81.1062 49.3366C80.9641 49.3627 80.8221 49.3852 80.68 49.4041C80.538 49.4231 80.4102 49.4396 80.2965 49.4538C79.9888 49.4917 79.726 49.5509 79.5082 49.6314C79.2904 49.7119 79.1235 49.8232 79.0075 49.9652C78.8915 50.1049 78.8335 50.2848 78.8335 50.505C78.8335 50.8364 78.9518 51.0933 79.1886 51.2756C79.4253 51.4555 79.7224 51.5455 80.0799 51.5455ZM84.6129 49.9403L84.6058 49.1129H84.7479L87.3047 46.5455H88.1037L85.5788 49.0739L85.522 49.0845L84.6129 49.9403ZM84.0376 52V44.7273H84.6697V52H84.0376ZM87.4361 52L85.2202 49.1982L85.6747 48.7614L88.2457 52H87.4361ZM91.2722 52.1136C90.7632 52.1136 90.3229 51.9953 89.9512 51.7585C89.5795 51.5194 89.2918 51.1892 89.0882 50.7678C88.887 50.344 88.7864 49.8563 88.7864 49.3047C88.7864 48.7554 88.887 48.2678 89.0882 47.8416C89.2918 47.4131 89.5724 47.0781 89.9299 46.8366C90.2897 46.5928 90.7052 46.4709 91.1763 46.4709C91.4722 46.4709 91.7575 46.5253 92.0321 46.6342C92.3068 46.7408 92.553 46.9053 92.7708 47.1278C92.9909 47.348 93.165 47.6262 93.2928 47.9624C93.4206 48.2962 93.4846 48.6915 93.4846 49.1484V49.4609H89.2232V48.9034H92.8382C92.8382 48.553 92.7672 48.2382 92.6252 47.9588C92.4855 47.6771 92.2902 47.4545 92.0392 47.2912C91.7907 47.1278 91.503 47.0462 91.1763 47.0462C90.8307 47.0462 90.5265 47.1385 90.2637 47.3232C90.0009 47.5078 89.7949 47.7517 89.6458 48.0547C89.499 48.3577 89.4244 48.6892 89.4221 49.049V49.3828C89.4221 49.8161 89.4966 50.1948 89.6458 50.5192C89.7973 50.8411 90.0115 51.0909 90.2885 51.2685C90.5655 51.446 90.8934 51.5348 91.2722 51.5348C91.5302 51.5348 91.7563 51.4946 91.9505 51.4141C92.147 51.3336 92.3115 51.2259 92.4441 51.0909C92.579 50.9536 92.6808 50.8033 92.7495 50.6399L93.3496 50.8352C93.2667 51.0649 93.1306 51.2768 92.9412 51.4709C92.7542 51.665 92.5198 51.8213 92.2381 51.9396C91.9587 52.0556 91.6368 52.1136 91.2722 52.1136ZM17.4476 64.1136C16.9599 64.1136 16.535 63.9917 16.1728 63.7479C15.8129 63.504 15.5336 63.1702 15.3347 62.7464C15.1358 62.3227 15.0364 61.8397 15.0364 61.2976C15.0364 60.7507 15.137 60.2642 15.3382 59.8381C15.5418 59.4119 15.8236 59.0781 16.1834 58.8366C16.5433 58.5928 16.9611 58.4709 17.437 58.4709C17.8016 58.4709 18.1318 58.5419 18.4277 58.6839C18.7237 58.8236 18.9675 59.0213 19.1593 59.277C19.3534 59.5303 19.4753 59.8262 19.525 60.1648H18.8858C18.8195 59.857 18.6597 59.5942 18.4064 59.3764C18.1555 59.1562 17.8359 59.0462 17.4476 59.0462C17.0996 59.0462 16.7918 59.1409 16.5243 59.3303C16.2568 59.5173 16.0473 59.7789 15.8958 60.1151C15.7466 60.4489 15.6721 60.8359 15.6721 61.2763C15.6721 61.719 15.7454 62.1108 15.8922 62.4517C16.039 62.7902 16.245 63.0554 16.5101 63.2472C16.7776 63.4389 17.0901 63.5348 17.4476 63.5348C17.6891 63.5348 17.9093 63.4898 18.1081 63.3999C18.3094 63.3075 18.4775 63.1773 18.6124 63.0092C18.7497 62.8411 18.842 62.6411 18.8894 62.4091H19.5286C19.4812 62.7382 19.3641 63.0317 19.177 63.2898C18.9924 63.5455 18.7521 63.7467 18.4561 63.8935C18.1626 64.0402 17.8264 64.1136 17.4476 64.1136ZM21.5154 56.7273V64H20.8833V56.7273H21.5154ZM24.7115 64.1243C24.3824 64.1243 24.0817 64.0604 23.8095 63.9325C23.5372 63.8023 23.3206 63.6153 23.1596 63.3714C22.9986 63.1252 22.9181 62.8269 22.9181 62.4766C22.9181 62.2067 22.969 61.9794 23.0708 61.7947C23.1726 61.6101 23.3171 61.4586 23.5041 61.3402C23.6911 61.2218 23.9125 61.1283 24.1681 61.0597C24.4238 60.991 24.7056 60.9377 25.0133 60.8999C25.3187 60.862 25.5768 60.8288 25.7875 60.8004C26.0005 60.772 26.1627 60.727 26.274 60.6655C26.3852 60.6039 26.4409 60.5045 26.4409 60.3672V60.2393C26.4409 59.8677 26.3296 59.5753 26.1071 59.3622C25.8869 59.1468 25.5697 59.0391 25.1554 59.0391C24.7624 59.0391 24.4416 59.1255 24.193 59.2983C23.9468 59.4711 23.774 59.6747 23.6745 59.9091L23.0744 59.6925C23.1975 59.3942 23.368 59.1562 23.5858 58.9787C23.8036 58.7988 24.0474 58.6697 24.3173 58.5916C24.5872 58.5111 24.8606 58.4709 25.1376 58.4709C25.3459 58.4709 25.5626 58.4981 25.7875 58.5526C26.0147 58.607 26.2254 58.7017 26.4196 58.8366C26.6137 58.9692 26.7711 59.1551 26.8919 59.3942C27.0126 59.6309 27.073 59.9316 27.073 60.2962V64H26.4409V63.1371H26.4018C26.3261 63.2981 26.2136 63.4543 26.0645 63.6058C25.9153 63.7573 25.7283 63.8816 25.5034 63.9787C25.2785 64.0758 25.0145 64.1243 24.7115 64.1243ZM24.7967 63.5455C25.1329 63.5455 25.4241 63.4709 25.6703 63.3217C25.9165 63.1726 26.1059 62.9749 26.2385 62.7287C26.3734 62.4801 26.4409 62.2067 26.4409 61.9084V61.12C26.3935 61.165 26.3142 61.2053 26.2029 61.2408C26.094 61.2763 25.9674 61.3082 25.823 61.3366C25.6809 61.3627 25.5389 61.3852 25.3968 61.4041C25.2548 61.4231 25.127 61.4396 25.0133 61.4538C24.7056 61.4917 24.4428 61.5509 24.225 61.6314C24.0072 61.7119 23.8403 61.8232 23.7243 61.9652C23.6083 62.1049 23.5502 62.2848 23.5502 62.505C23.5502 62.8364 23.6686 63.0933 23.9054 63.2756C24.1421 63.4555 24.4392 63.5455 24.7967 63.5455ZM32.4192 59.7422L31.8404 59.9055C31.7836 59.7422 31.7031 59.5942 31.5989 59.4616C31.4947 59.3291 31.3586 59.2237 31.1905 59.1456C31.0248 59.0675 30.8188 59.0284 30.5726 59.0284C30.2033 59.0284 29.9003 59.116 29.6635 59.2912C29.4268 59.4664 29.3084 59.6925 29.3084 59.9695C29.3084 60.2038 29.3889 60.3944 29.5499 60.5412C29.7132 60.6856 29.9642 60.8004 30.3027 60.8857L31.1266 61.0881C31.5835 61.1993 31.9256 61.3757 32.1529 61.6172C32.3825 61.8587 32.4973 62.1617 32.4973 62.5263C32.4973 62.834 32.4121 63.1075 32.2417 63.3466C32.0712 63.5857 31.8333 63.7739 31.5279 63.9112C31.2248 64.0462 30.8733 64.1136 30.4732 64.1136C29.9405 64.1136 29.5014 63.9941 29.1557 63.755C28.8101 63.5135 28.5887 63.1655 28.4917 62.7109L29.0989 62.5618C29.177 62.8861 29.3297 63.1312 29.557 63.2969C29.7866 63.4626 30.0885 63.5455 30.4625 63.5455C30.8816 63.5455 31.2166 63.4519 31.4675 63.2649C31.7185 63.0755 31.8439 62.8388 31.8439 62.5547C31.8439 62.3345 31.7705 62.1499 31.6238 62.0007C31.477 61.8492 31.2544 61.7379 30.9561 61.6669L30.0648 61.4538C29.5913 61.3402 29.2409 61.1603 29.0137 60.9141C28.7864 60.6679 28.6728 60.3625 28.6728 59.9979C28.6728 59.6972 28.7544 59.4332 28.9178 59.206C29.0811 58.9763 29.306 58.7964 29.5925 58.6662C29.879 58.536 30.2057 58.4709 30.5726 58.4709C31.0721 58.4709 31.4711 58.5845 31.7694 58.8118C32.07 59.0367 32.2866 59.3468 32.4192 59.7422ZM37.5462 59.7422L36.9673 59.9055C36.9105 59.7422 36.83 59.5942 36.7259 59.4616C36.6217 59.3291 36.4856 59.2237 36.3175 59.1456C36.1518 59.0675 35.9458 59.0284 35.6996 59.0284C35.3303 59.0284 35.0272 59.116 34.7905 59.2912C34.5537 59.4664 34.4354 59.6925 34.4354 59.9695C34.4354 60.2038 34.5159 60.3944 34.6768 60.5412C34.8402 60.6856 35.0911 60.8004 35.4297 60.8857L36.2536 61.0881C36.7105 61.1993 37.0526 61.3757 37.2798 61.6172C37.5095 61.8587 37.6243 62.1617 37.6243 62.5263C37.6243 62.834 37.5391 63.1075 37.3686 63.3466C37.1982 63.5857 36.9602 63.7739 36.6548 63.9112C36.3518 64.0462 36.0002 64.1136 35.6001 64.1136C35.0675 64.1136 34.6283 63.9941 34.2827 63.755C33.937 63.5135 33.7157 63.1655 33.6186 62.7109L34.2259 62.5618C34.304 62.8861 34.4567 63.1312 34.6839 63.2969C34.9136 63.4626 35.2154 63.5455 35.5895 63.5455C36.0085 63.5455 36.3435 63.4519 36.5945 63.2649C36.8454 63.0755 36.9709 62.8388 36.9709 62.5547C36.9709 62.3345 36.8975 62.1499 36.7507 62.0007C36.6039 61.8492 36.3814 61.7379 36.0831 61.6669L35.1918 61.4538C34.7183 61.3402 34.3679 61.1603 34.1406 60.9141C33.9134 60.6679 33.7997 60.3625 33.7997 59.9979C33.7997 59.6972 33.8814 59.4332 34.0447 59.206C34.2081 58.9763 34.433 58.7964 34.7195 58.6662C35.0059 58.536 35.3326 58.4709 35.6996 58.4709C36.1991 58.4709 36.598 58.5845 36.8963 58.8118C37.197 59.0367 37.4136 59.3468 37.5462 59.7422ZM41.2136 64.1136C40.7046 64.1136 40.2643 63.9953 39.8926 63.7585C39.5209 63.5194 39.2333 63.1892 39.0297 62.7678C38.8284 62.344 38.7278 61.8563 38.7278 61.3047C38.7278 60.7554 38.8284 60.2678 39.0297 59.8416C39.2333 59.4131 39.5138 59.0781 39.8713 58.8366C40.2311 58.5928 40.6466 58.4709 41.1177 58.4709C41.4136 58.4709 41.6989 58.5253 41.9735 58.6342C42.2482 58.7408 42.4944 58.9053 42.7122 59.1278C42.9324 59.348 43.1064 59.6262 43.2342 59.9624C43.362 60.2962 43.426 60.6915 43.426 61.1484V61.4609H39.1646V60.9034H42.7797C42.7797 60.553 42.7086 60.2382 42.5666 59.9588C42.4269 59.6771 42.2316 59.4545 41.9806 59.2912C41.7321 59.1278 41.4444 59.0462 41.1177 59.0462C40.7721 59.0462 40.4679 59.1385 40.2051 59.3232C39.9423 59.5078 39.7363 59.7517 39.5872 60.0547C39.4404 60.3577 39.3658 60.6892 39.3635 61.049V61.3828C39.3635 61.8161 39.438 62.1948 39.5872 62.5192C39.7387 62.8411 39.9529 63.0909 40.2299 63.2685C40.5069 63.446 40.8348 63.5348 41.2136 63.5348C41.4717 63.5348 41.6977 63.4946 41.8919 63.4141C42.0884 63.3336 42.2529 63.2259 42.3855 63.0909C42.5204 62.9536 42.6222 62.8033 42.6909 62.6399L43.291 62.8352C43.2082 63.0649 43.072 63.2768 42.8826 63.4709C42.6956 63.665 42.4612 63.8213 42.1795 63.9396C41.9002 64.0556 41.5782 64.1136 41.2136 64.1136ZM48.4837 59.7422L47.9048 59.9055C47.848 59.7422 47.7675 59.5942 47.6634 59.4616C47.5592 59.3291 47.4231 59.2237 47.255 59.1456C47.0893 59.0675 46.8833 59.0284 46.6371 59.0284C46.2678 59.0284 45.9647 59.116 45.728 59.2912C45.4912 59.4664 45.3729 59.6925 45.3729 59.9695C45.3729 60.2038 45.4534 60.3944 45.6143 60.5412C45.7777 60.6856 46.0286 60.8004 46.3672 60.8857L47.1911 61.0881C47.648 61.1993 47.9901 61.3757 48.2173 61.6172C48.447 61.8587 48.5618 62.1617 48.5618 62.5263C48.5618 62.834 48.4766 63.1075 48.3061 63.3466C48.1357 63.5857 47.8977 63.7739 47.5923 63.9112C47.2893 64.0462 46.9377 64.1136 46.5376 64.1136C46.005 64.1136 45.5658 63.9941 45.2202 63.755C44.8745 63.5135 44.6532 63.1655 44.5561 62.7109L45.1634 62.5618C45.2415 62.8861 45.3942 63.1312 45.6214 63.2969C45.8511 63.4626 46.1529 63.5455 46.527 63.5455C46.946 63.5455 47.281 63.4519 47.532 63.2649C47.7829 63.0755 47.9084 62.8388 47.9084 62.5547C47.9084 62.3345 47.835 62.1499 47.6882 62.0007C47.5414 61.8492 47.3189 61.7379 47.0206 61.6669L46.1293 61.4538C45.6558 61.3402 45.3054 61.1603 45.0781 60.9141C44.8509 60.6679 44.7372 60.3625 44.7372 59.9979C44.7372 59.6972 44.8189 59.4332 44.9822 59.206C45.1456 58.9763 45.3705 58.7964 45.657 58.6662C45.9434 58.536 46.2701 58.4709 46.6371 58.4709C47.1366 58.4709 47.5355 58.5845 47.8338 58.8118C48.1345 59.0367 48.3511 59.3468 48.4837 59.7422ZM52.7654 64V58.5455H53.4011V64H52.7654ZM53.0886 57.608C52.9584 57.608 52.8471 57.5642 52.7548 57.4766C52.6625 57.3866 52.6163 57.2789 52.6163 57.1534C52.6163 57.0279 52.6625 56.9214 52.7548 56.8338C52.8471 56.7438 52.9584 56.6989 53.0886 56.6989C53.2188 56.6989 53.3301 56.7438 53.4224 56.8338C53.5147 56.9214 53.5609 57.0279 53.5609 57.1534C53.5609 57.2789 53.5147 57.3866 53.4224 57.4766C53.3301 57.5642 53.2188 57.608 53.0886 57.608ZM55.7049 60.5909V64H55.0728V58.5455H55.6871V59.4013H55.744C55.8718 59.1219 56.0707 58.8982 56.3406 58.7301C56.6128 58.5597 56.949 58.4744 57.3491 58.4744C57.716 58.4744 58.038 58.5514 58.315 58.7053C58.5943 58.8568 58.811 59.0805 58.9648 59.3764C59.1211 59.6723 59.1992 60.0357 59.1992 60.4666V64H58.5671V60.5057C58.5671 60.0582 58.4416 59.7043 58.1907 59.4439C57.9421 59.1835 57.6083 59.0533 57.1893 59.0533C56.9028 59.0533 56.6483 59.1148 56.4258 59.2379C56.2032 59.361 56.0269 59.5386 55.8967 59.7706C55.7688 60.0002 55.7049 60.2737 55.7049 60.5909ZM64.1167 66.0455C63.9912 66.0455 63.874 66.0336 63.7651 66.0099C63.6562 65.9863 63.5698 65.9602 63.5059 65.9318L63.6763 65.3743C63.8917 65.4406 64.0835 65.4643 64.2516 65.4453C64.4197 65.4287 64.5688 65.353 64.699 65.218C64.8292 65.0855 64.9453 64.8819 65.0471 64.6072L65.2459 64.0533L63.2395 58.5455H63.9249L65.5442 63.1655H65.5939L67.2132 58.5455H67.8986L65.5904 64.8629C65.4933 65.1257 65.3738 65.3447 65.2317 65.5199C65.0897 65.6974 64.9251 65.8288 64.7381 65.9141C64.5534 66.0017 64.3463 66.0455 64.1167 66.0455ZM71.06 64.1136C70.5889 64.1136 70.1722 63.9941 69.81 63.755C69.4502 63.5159 69.1684 63.1856 68.9648 62.7642C68.7612 62.3404 68.6594 61.8516 68.6594 61.2976C68.6594 60.7389 68.7612 60.2476 68.9648 59.8239C69.1684 59.3977 69.4502 59.0663 69.81 58.8295C70.1722 58.5904 70.5889 58.4709 71.06 58.4709C71.5311 58.4709 71.9466 58.5904 72.3065 58.8295C72.6663 59.0687 72.948 59.4001 73.1516 59.8239C73.3576 60.2476 73.4606 60.7389 73.4606 61.2976C73.4606 61.8516 73.3588 62.3404 73.1552 62.7642C72.9516 63.1856 72.6687 63.5159 72.3065 63.755C71.9466 63.9941 71.5311 64.1136 71.06 64.1136ZM71.06 63.5348C71.4388 63.5348 71.7596 63.433 72.0224 63.2294C72.2852 63.0258 72.484 62.7547 72.619 62.4162C72.7563 62.0777 72.8249 61.7048 72.8249 61.2976C72.8249 60.8904 72.7563 60.5163 72.619 60.1754C72.484 59.8345 72.2852 59.5611 72.0224 59.3551C71.7596 59.1491 71.4388 59.0462 71.06 59.0462C70.6836 59.0462 70.3628 59.1491 70.0977 59.3551C69.8349 59.5611 69.6348 59.8345 69.4975 60.1754C69.3626 60.5163 69.2951 60.8904 69.2951 61.2976C69.2951 61.7048 69.3626 62.0777 69.4975 62.4162C69.6348 62.7547 69.8349 63.0258 70.0977 63.2294C70.3604 63.433 70.6812 63.5348 71.06 63.5348ZM78.3141 61.9155V58.5455H78.9462V64H78.3141V63.0945H78.2644C78.1365 63.3738 77.9341 63.607 77.6571 63.794C77.3801 63.9787 77.0416 64.071 76.6415 64.071C76.2935 64.071 75.9846 63.9953 75.7147 63.8438C75.4448 63.6899 75.2329 63.465 75.079 63.169C74.9251 62.8731 74.8482 62.5097 74.8482 62.0788V58.5455H75.4803V62.0398C75.4803 62.4659 75.6058 62.8092 75.8567 63.0696C76.1077 63.3277 76.4296 63.4567 76.8226 63.4567C77.0688 63.4567 77.3056 63.3975 77.5328 63.2791C77.7601 63.1607 77.9471 62.9879 78.0939 62.7607C78.2407 62.531 78.3141 62.2493 78.3141 61.9155ZM80.6197 64V58.5455H81.234V59.3835H81.2802C81.3891 59.1089 81.5785 58.8875 81.8484 58.7195C82.1206 58.549 82.4284 58.4638 82.7717 58.4638C82.8237 58.4638 82.8817 58.465 82.9457 58.4673C83.0096 58.4697 83.0629 58.4721 83.1055 58.4744V59.1172C83.0771 59.1125 83.0273 59.1054 82.9563 59.0959C82.8853 59.0864 82.8084 59.0817 82.7255 59.0817C82.4414 59.0817 82.1881 59.142 81.9656 59.2628C81.7454 59.3812 81.5714 59.5457 81.4435 59.7564C81.3157 59.9671 81.2518 60.2074 81.2518 60.4773V64H80.6197ZM87.0037 58.5455H87.6394V64.5291C87.6394 64.8393 87.5814 65.1068 87.4654 65.3317C87.3517 65.5589 87.186 65.7341 86.9682 65.8572C86.7504 65.9827 86.4876 66.0455 86.1799 66.0455C86.1562 66.0455 86.1325 66.0455 86.1088 66.0455C86.0852 66.0455 86.0591 66.0443 86.0307 66.0419L86.0378 65.4489C86.0615 65.4489 86.084 65.4489 86.1053 65.4489C86.1266 65.4489 86.1491 65.4489 86.1728 65.4489C86.4332 65.4489 86.6368 65.3684 86.7836 65.2074C86.9303 65.0464 87.0037 64.8203 87.0037 64.5291V58.5455ZM87.3162 57.608C87.1884 57.608 87.0771 57.5642 86.9824 57.4766C86.8901 57.3866 86.8439 57.2789 86.8439 57.1534C86.8439 57.0279 86.8901 56.9214 86.9824 56.8338C87.0771 56.7438 87.1884 56.6989 87.3162 56.6989C87.4464 56.6989 87.5577 56.7438 87.65 56.8338C87.7447 56.9214 87.7921 57.0279 87.7921 57.1534C87.7921 57.2789 87.7447 57.3866 87.65 57.4766C87.5577 57.5642 87.4464 57.608 87.3162 57.608ZM91.4311 64.1136C90.96 64.1136 90.5433 63.9941 90.1811 63.755C89.8213 63.5159 89.5395 63.1856 89.3359 62.7642C89.1323 62.3404 89.0305 61.8516 89.0305 61.2976C89.0305 60.7389 89.1323 60.2476 89.3359 59.8239C89.5395 59.3977 89.8213 59.0663 90.1811 58.8295C90.5433 58.5904 90.96 58.4709 91.4311 58.4709C91.9022 58.4709 92.3177 58.5904 92.6776 58.8295C93.0374 59.0687 93.3191 59.4001 93.5227 59.8239C93.7287 60.2476 93.8317 60.7389 93.8317 61.2976C93.8317 61.8516 93.7299 62.3404 93.5263 62.7642C93.3227 63.1856 93.0398 63.5159 92.6776 63.755C92.3177 63.9941 91.9022 64.1136 91.4311 64.1136ZM91.4311 63.5348C91.8099 63.5348 92.1307 63.433 92.3935 63.2294C92.6563 63.0258 92.8551 62.7547 92.9901 62.4162C93.1274 62.0777 93.196 61.7048 93.196 61.2976C93.196 60.8904 93.1274 60.5163 92.9901 60.1754C92.8551 59.8345 92.6563 59.5611 92.3935 59.3551C92.1307 59.1491 91.8099 59.0462 91.4311 59.0462C91.0547 59.0462 90.7339 59.1491 90.4688 59.3551C90.206 59.5611 90.0059 59.8345 89.8686 60.1754C89.7337 60.5163 89.6662 60.8904 89.6662 61.2976C89.6662 61.7048 89.7337 62.0777 89.8686 62.4162C90.0059 62.7547 90.206 63.0258 90.4688 63.2294C90.7315 63.433 91.0523 63.5348 91.4311 63.5348ZM95.3507 64V56.7273H95.9863V59.5859H96.0431C96.1142 59.4226 96.216 59.2545 96.3485 59.0817C96.4835 58.9089 96.6599 58.7644 96.8777 58.6484C97.0978 58.5301 97.3748 58.4709 97.7086 58.4709C98.1561 58.4709 98.5491 58.5893 98.8876 58.826C99.2261 59.0604 99.4901 59.3894 99.6795 59.8132C99.8689 60.2346 99.9636 60.7259 99.9636 61.2869C99.9636 61.8504 99.8689 62.344 99.6795 62.7678C99.4925 63.1915 99.2297 63.5218 98.8912 63.7585C98.555 63.9953 98.1644 64.1136 97.7193 64.1136C97.3878 64.1136 97.1109 64.0545 96.8883 63.9361C96.6681 63.8177 96.4906 63.6721 96.3556 63.4993C96.2207 63.3241 96.1165 63.1536 96.0431 62.9879H95.965V64H95.3507ZM95.9757 61.2763C95.9757 61.7166 96.0408 62.1072 96.171 62.4482C96.3036 62.7867 96.493 63.053 96.7392 63.2472C96.9877 63.4389 97.2884 63.5348 97.6412 63.5348C98.0034 63.5348 98.31 63.4354 98.5609 63.2365C98.8118 63.0353 99.0024 62.7642 99.1326 62.4233C99.2628 62.0824 99.3279 61.7 99.3279 61.2763C99.3279 60.8572 99.2628 60.4796 99.1326 60.1435C99.0048 59.8073 98.8154 59.541 98.5645 59.3445C98.3135 59.1456 98.0057 59.0462 97.6412 59.0462C97.286 59.0462 96.9842 59.142 96.7356 59.3338C96.4894 59.5232 96.3012 59.786 96.171 60.1222C96.0408 60.456 95.9757 60.8407 95.9757 61.2763ZM37.5226 70.5455L35.5305 76H34.8557L32.8635 70.5455H33.5489L35.1682 75.1655H35.218L36.8373 70.5455H37.5226ZM40.1167 76.1243C39.7877 76.1243 39.487 76.0604 39.2148 75.9325C38.9425 75.8023 38.7259 75.6153 38.5649 75.3714C38.4039 75.1252 38.3234 74.8269 38.3234 74.4766C38.3234 74.2067 38.3743 73.9794 38.4761 73.7947C38.5779 73.6101 38.7223 73.4586 38.9094 73.3402C39.0964 73.2218 39.3177 73.1283 39.5734 73.0597C39.8291 72.991 40.1108 72.9377 40.4186 72.8999C40.724 72.862 40.982 72.8288 41.1927 72.8004C41.4058 72.772 41.568 72.727 41.6792 72.6655C41.7905 72.6039 41.8461 72.5045 41.8461 72.3672V72.2393C41.8461 71.8677 41.7349 71.5753 41.5123 71.3622C41.2922 71.1468 40.9749 71.0391 40.5606 71.0391C40.1676 71.0391 39.8469 71.1255 39.5983 71.2983C39.3521 71.4711 39.1792 71.6747 39.0798 71.9091L38.4797 71.6925C38.6028 71.3942 38.7732 71.1562 38.991 70.9787C39.2088 70.7988 39.4527 70.6697 39.7226 70.5916C39.9925 70.5111 40.2659 70.4709 40.5429 70.4709C40.7512 70.4709 40.9678 70.4981 41.1927 70.5526C41.42 70.607 41.6307 70.7017 41.8248 70.8366C42.019 70.9692 42.1764 71.1551 42.2971 71.3942C42.4179 71.6309 42.4782 71.9316 42.4782 72.2962V76H41.8461V75.1371H41.8071C41.7313 75.2981 41.6189 75.4543 41.4697 75.6058C41.3206 75.7573 41.1336 75.8816 40.9086 75.9787C40.6837 76.0758 40.4198 76.1243 40.1167 76.1243ZM40.202 75.5455C40.5381 75.5455 40.8293 75.4709 41.0756 75.3217C41.3218 75.1726 41.5112 74.9749 41.6437 74.7287C41.7787 74.4801 41.8461 74.2067 41.8461 73.9084V73.12C41.7988 73.165 41.7195 73.2053 41.6082 73.2408C41.4993 73.2763 41.3727 73.3082 41.2282 73.3366C41.0862 73.3627 40.9442 73.3852 40.8021 73.4041C40.6601 73.4231 40.5322 73.4396 40.4186 73.4538C40.1108 73.4917 39.848 73.5509 39.6302 73.6314C39.4124 73.7119 39.2455 73.8232 39.1295 73.9652C39.0135 74.1049 38.9555 74.2848 38.9555 74.505C38.9555 74.8364 39.0739 75.0933 39.3106 75.2756C39.5474 75.4555 39.8445 75.5455 40.202 75.5455ZM46.2904 76.1136C45.8027 76.1136 45.3778 75.9917 45.0155 75.7479C44.6557 75.504 44.3763 75.1702 44.1775 74.7464C43.9786 74.3227 43.8792 73.8397 43.8792 73.2976C43.8792 72.7507 43.9798 72.2642 44.181 71.8381C44.3846 71.4119 44.6663 71.0781 45.0262 70.8366C45.386 70.5928 45.8039 70.4709 46.2797 70.4709C46.6443 70.4709 46.9746 70.5419 47.2705 70.6839C47.5664 70.8236 47.8103 71.0213 48.002 71.277C48.1962 71.5303 48.3181 71.8262 48.3678 72.1648H47.7286C47.6623 71.857 47.5025 71.5942 47.2492 71.3764C46.9983 71.1562 46.6787 71.0462 46.2904 71.0462C45.9424 71.0462 45.6346 71.1409 45.3671 71.3303C45.0996 71.5173 44.8901 71.7789 44.7385 72.1151C44.5894 72.4489 44.5148 72.8359 44.5148 73.2763C44.5148 73.719 44.5882 74.1108 44.735 74.4517C44.8818 74.7902 45.0877 75.0554 45.3529 75.2472C45.6204 75.4389 45.9329 75.5348 46.2904 75.5348C46.5319 75.5348 46.752 75.4898 46.9509 75.3999C47.1521 75.3075 47.3202 75.1773 47.4552 75.0092C47.5925 74.8411 47.6848 74.6411 47.7322 74.4091H48.3714C48.324 74.7382 48.2068 75.0317 48.0198 75.2898C47.8351 75.5455 47.5948 75.7467 47.2989 75.8935C47.0054 76.0402 46.6692 76.1136 46.2904 76.1136ZM51.2496 76.1243C50.9205 76.1243 50.6198 76.0604 50.3476 75.9325C50.0753 75.8023 49.8587 75.6153 49.6977 75.3714C49.5367 75.1252 49.4562 74.8269 49.4562 74.4766C49.4562 74.2067 49.5071 73.9794 49.6089 73.7947C49.7107 73.6101 49.8551 73.4586 50.0422 73.3402C50.2292 73.2218 50.4506 73.1283 50.7062 73.0597C50.9619 72.991 51.2436 72.9377 51.5514 72.8999C51.8568 72.862 52.1148 72.8288 52.3256 72.8004C52.5386 72.772 52.7008 72.727 52.8121 72.6655C52.9233 72.6039 52.979 72.5045 52.979 72.3672V72.2393C52.979 71.8677 52.8677 71.5753 52.6452 71.3622C52.425 71.1468 52.1077 71.0391 51.6934 71.0391C51.3005 71.0391 50.9797 71.1255 50.7311 71.2983C50.4849 71.4711 50.3121 71.6747 50.2126 71.9091L49.6125 71.6925C49.7356 71.3942 49.906 71.1562 50.1238 70.9787C50.3416 70.7988 50.5855 70.6697 50.8554 70.5916C51.1253 70.5111 51.3987 70.4709 51.6757 70.4709C51.884 70.4709 52.1006 70.4981 52.3256 70.5526C52.5528 70.607 52.7635 70.7017 52.9577 70.8366C53.1518 70.9692 53.3092 71.1551 53.43 71.3942C53.5507 71.6309 53.6111 71.9316 53.6111 72.2962V76H52.979V75.1371H52.9399C52.8641 75.2981 52.7517 75.4543 52.6025 75.6058C52.4534 75.7573 52.2664 75.8816 52.0415 75.9787C51.8166 76.0758 51.5526 76.1243 51.2496 76.1243ZM51.3348 75.5455C51.671 75.5455 51.9622 75.4709 52.2084 75.3217C52.4546 75.1726 52.644 74.9749 52.7765 74.7287C52.9115 74.4801 52.979 74.2067 52.979 73.9084V73.12C52.9316 73.165 52.8523 73.2053 52.741 73.2408C52.6321 73.2763 52.5055 73.3082 52.3611 73.3366C52.219 73.3627 52.077 73.3852 51.9349 73.4041C51.7929 73.4231 51.665 73.4396 51.5514 73.4538C51.2436 73.4917 50.9809 73.5509 50.7631 73.6314C50.5452 73.7119 50.3783 73.8232 50.2623 73.9652C50.1463 74.1049 50.0883 74.2848 50.0883 74.505C50.0883 74.8364 50.2067 75.0933 50.4434 75.2756C50.6802 75.4555 50.9773 75.5455 51.3348 75.5455ZM55.9246 72.5909V76H55.2925V70.5455H55.9069V71.4013H55.9637C56.0915 71.1219 56.2904 70.8982 56.5603 70.7301C56.8325 70.5597 57.1687 70.4744 57.5688 70.4744C57.9358 70.4744 58.2577 70.5514 58.5347 70.7053C58.8141 70.8568 59.0307 71.0805 59.1846 71.3764C59.3408 71.6723 59.4189 72.0357 59.4189 72.4666V76H58.7868V72.5057C58.7868 72.0582 58.6614 71.7043 58.4104 71.4439C58.1618 71.1835 57.828 71.0533 57.409 71.0533C57.1225 71.0533 56.868 71.1148 56.6455 71.2379C56.423 71.361 56.2466 71.5386 56.1164 71.7706C55.9885 72.0002 55.9246 72.2737 55.9246 72.5909ZM63.2142 76.1136C62.7265 76.1136 62.3016 75.9917 61.9394 75.7479C61.5795 75.504 61.3002 75.1702 61.1013 74.7464C60.9024 74.3227 60.803 73.8397 60.803 73.2976C60.803 72.7507 60.9036 72.2642 61.1048 71.8381C61.3084 71.4119 61.5902 71.0781 61.95 70.8366C62.3099 70.5928 62.7277 70.4709 63.2036 70.4709C63.5682 70.4709 63.8984 70.5419 64.1943 70.6839C64.4903 70.8236 64.7341 71.0213 64.9259 71.277C65.12 71.5303 65.2419 71.8262 65.2916 72.1648H64.6524C64.5861 71.857 64.4263 71.5942 64.173 71.3764C63.9221 71.1562 63.6025 71.0462 63.2142 71.0462C62.8662 71.0462 62.5584 71.1409 62.2909 71.3303C62.0234 71.5173 61.8139 71.7789 61.6624 72.1151C61.5132 72.4489 61.4387 72.8359 61.4387 73.2763C61.4387 73.719 61.512 74.1108 61.6588 74.4517C61.8056 74.7902 62.0116 75.0554 62.2767 75.2472C62.5442 75.4389 62.8567 75.5348 63.2142 75.5348C63.4557 75.5348 63.6759 75.4898 63.8747 75.3999C64.076 75.3075 64.2441 75.1773 64.379 75.0092C64.5163 74.8411 64.6086 74.6411 64.656 74.4091H65.2952C65.2478 74.7382 65.1307 75.0317 64.9436 75.2898C64.759 75.5455 64.5187 75.7467 64.2227 75.8935C63.9292 76.0402 63.593 76.1136 63.2142 76.1136ZM66.657 76V70.5455H67.2927V76H66.657ZM66.9802 69.608C66.85 69.608 66.7387 69.5642 66.6464 69.4766C66.5541 69.3866 66.5079 69.2789 66.5079 69.1534C66.5079 69.0279 66.5541 68.9214 66.6464 68.8338C66.7387 68.7438 66.85 68.6989 66.9802 68.6989C67.1104 68.6989 67.2217 68.7438 67.314 68.8338C67.4063 68.9214 67.4525 69.0279 67.4525 69.1534C67.4525 69.2789 67.4063 69.3866 67.314 69.4766C67.2217 69.5642 67.1104 69.608 66.9802 69.608ZM71.1697 76.1136C70.6607 76.1136 70.2203 75.9953 69.8486 75.7585C69.4769 75.5194 69.1893 75.1892 68.9857 74.7678C68.7845 74.344 68.6839 73.8563 68.6839 73.3047C68.6839 72.7554 68.7845 72.2678 68.9857 71.8416C69.1893 71.4131 69.4698 71.0781 69.8273 70.8366C70.1872 70.5928 70.6027 70.4709 71.0738 70.4709C71.3697 70.4709 71.655 70.5253 71.9296 70.6342C72.2042 70.7408 72.4504 70.9053 72.6682 71.1278C72.8884 71.348 73.0624 71.6262 73.1903 71.9624C73.3181 72.2962 73.382 72.6915 73.382 73.1484V73.4609H69.1206V72.9034H72.7357C72.7357 72.553 72.6647 72.2382 72.5226 71.9588C72.383 71.6771 72.1876 71.4545 71.9367 71.2912C71.6881 71.1278 71.4005 71.0462 71.0738 71.0462C70.7281 71.0462 70.4239 71.1385 70.1611 71.3232C69.8983 71.5078 69.6924 71.7517 69.5432 72.0547C69.3965 72.3577 69.3219 72.6892 69.3195 73.049V73.3828C69.3195 73.8161 69.3941 74.1948 69.5432 74.5192C69.6948 74.8411 69.909 75.0909 70.186 75.2685C70.463 75.446 70.7909 75.5348 71.1697 75.5348C71.4277 75.5348 71.6538 75.4946 71.8479 75.4141C72.0444 75.3336 72.209 75.2259 72.3415 75.0909C72.4765 74.9536 72.5783 74.8033 72.6469 74.6399L73.2471 74.8352C73.1642 75.0649 73.0281 75.2768 72.8387 75.4709C72.6517 75.665 72.4173 75.8213 72.1356 75.9396C71.8562 76.0556 71.5342 76.1136 71.1697 76.1136ZM78.4397 71.7422L77.8609 71.9055C77.8041 71.7422 77.7236 71.5942 77.6194 71.4616C77.5152 71.3291 77.3791 71.2237 77.211 71.1456C77.0453 71.0675 76.8393 71.0284 76.5931 71.0284C76.2238 71.0284 75.9208 71.116 75.684 71.2912C75.4473 71.4664 75.3289 71.6925 75.3289 71.9695C75.3289 72.2038 75.4094 72.3944 75.5704 72.5412C75.7338 72.6856 75.9847 72.8004 76.3232 72.8857L77.1471 73.0881C77.604 73.1993 77.9461 73.3757 78.1734 73.6172C78.403 73.8587 78.5178 74.1617 78.5178 74.5263C78.5178 74.834 78.4326 75.1075 78.2622 75.3466C78.0917 75.5857 77.8538 75.7739 77.5484 75.9112C77.2454 76.0462 76.8938 76.1136 76.4937 76.1136C75.961 76.1136 75.5219 75.9941 75.1762 75.755C74.8306 75.5135 74.6092 75.1655 74.5122 74.7109L75.1194 74.5618C75.1975 74.8861 75.3502 75.1312 75.5775 75.2969C75.8071 75.4626 76.109 75.5455 76.483 75.5455C76.9021 75.5455 77.2371 75.4519 77.488 75.2649C77.739 75.0755 77.8644 74.8388 77.8644 74.5547C77.8644 74.3345 77.791 74.1499 77.6443 74.0007C77.4975 73.8492 77.2749 73.7379 76.9767 73.6669L76.0853 73.4538C75.6118 73.3402 75.2615 73.1603 75.0342 72.9141C74.8069 72.6679 74.6933 72.3625 74.6933 71.9979C74.6933 71.6972 74.7749 71.4332 74.9383 71.206C75.1017 70.9763 75.3266 70.7964 75.613 70.6662C75.8995 70.536 76.2262 70.4709 76.5931 70.4709C77.0927 70.4709 77.4916 70.5845 77.7899 70.8118C78.0905 71.0367 78.3071 71.3468 78.4397 71.7422ZM81.436 72.9318C81.436 73.7841 81.3283 74.589 81.1128 75.3466C80.8974 76.1042 80.5885 76.8144 80.186 77.4773H79.6107C79.7835 77.1979 79.941 76.8819 80.083 76.5291C80.2274 76.1764 80.3517 75.8 80.4559 75.3999C80.56 74.9998 80.6405 74.5902 80.6974 74.1712C80.7542 73.7521 80.7826 73.339 80.7826 72.9318C80.7826 72.3849 80.7329 71.8333 80.6334 71.277C80.534 70.7206 80.3955 70.1927 80.218 69.6932C80.0428 69.1937 79.8403 68.758 79.6107 68.3864H80.186C80.5885 69.0516 80.8974 69.763 81.1128 70.5206C81.3283 71.2782 81.436 72.0819 81.436 72.9318Z" fill="#222222"/>
<defs>
<filter id="filter0_d_991_203" x="0" y="0" width="118" height="118" filterUnits="userSpaceOnUse" color-interpolation-filters="sRGB">
<feFlood flood-opacity="0" result="BackgroundImageFix"/>
<feColorMatrix in="SourceAlpha" type="matrix" values="0 0 0 0 0 0 0 0 0 0 0 0 0 0 0 0 0 0 127 0" result="hardAlpha"/>
<feOffset dy="4"/>
<feGaussianBlur stdDeviation="2"/>
<feComposite in2="hardAlpha" operator="out"/>
<feColorMatrix type="matrix" values="0 0 0 0 0 0 0 0 0 0 0 0 0 0 0 0 0 0 0.25 0"/>
<feBlend mode="normal" in2="BackgroundImageFix" result="effect1_dropShadow_991_203"/>
<feBlend mode="normal" in="SourceGraphic" in2="effect1_dropShadow_991_203" result="shape"/>
</filter>
</defs>
</svg>
