<svg width="118" height="118" viewBox="0 0 118 118" fill="none" xmlns="http://www.w3.org/2000/svg">
<g filter="url(#filter0_d_991_202)">
<rect x="4" width="110" height="110" fill="#C9C8D8" fill-opacity="0.5" shape-rendering="crispEdges"/>
</g>
<path d="M31.0882 58.1136C30.6006 58.1136 30.1756 57.9917 29.8134 57.7479C29.4535 57.504 29.1742 57.1702 28.9753 56.7464C28.7765 56.3227 28.677 55.8397 28.677 55.2976C28.677 54.7507 28.7776 54.2642 28.9789 53.8381C29.1825 53.4119 29.4642 53.0781 29.824 52.8366C30.1839 52.5928 30.6017 52.4709 31.0776 52.4709C31.4422 52.4709 31.7724 52.5419 32.0684 52.6839C32.3643 52.8236 32.6081 53.0213 32.7999 53.277C32.994 53.5303 33.1159 53.8262 33.1657 54.1648H32.5265C32.4602 53.857 32.3004 53.5942 32.0471 53.3764C31.7961 53.1562 31.4765 53.0462 31.0882 53.0462C30.7402 53.0462 30.4325 53.1409 30.165 53.3303C29.8974 53.5173 29.6879 53.7789 29.5364 54.1151C29.3873 54.4489 29.3127 54.8359 29.3127 55.2763C29.3127 55.719 29.3861 56.1108 29.5328 56.4517C29.6796 56.7902 29.8856 57.0554 30.1507 57.2472C30.4183 57.4389 30.7308 57.5348 31.0882 57.5348C31.3297 57.5348 31.5499 57.4898 31.7488 57.3999C31.95 57.3075 32.1181 57.1773 32.253 57.0092C32.3903 56.8411 32.4827 56.6411 32.53 56.4091H33.1692C33.1219 56.7382 33.0047 57.0317 32.8176 57.2898C32.633 57.5455 32.3927 57.7467 32.0968 57.8935C31.8032 58.0402 31.467 58.1136 31.0882 58.1136ZM36.644 58.1136C36.1729 58.1136 35.7562 57.9941 35.394 57.755C35.0342 57.5159 34.7524 57.1856 34.5488 56.7642C34.3452 56.3404 34.2434 55.8516 34.2434 55.2976C34.2434 54.7389 34.3452 54.2476 34.5488 53.8239C34.7524 53.3977 35.0342 53.0663 35.394 52.8295C35.7562 52.5904 36.1729 52.4709 36.644 52.4709C37.1151 52.4709 37.5306 52.5904 37.8904 52.8295C38.2503 53.0687 38.532 53.4001 38.7356 53.8239C38.9416 54.2476 39.0446 54.7389 39.0446 55.2976C39.0446 55.8516 38.9428 56.3404 38.7392 56.7642C38.5356 57.1856 38.2527 57.5159 37.8904 57.755C37.5306 57.9941 37.1151 58.1136 36.644 58.1136ZM36.644 57.5348C37.0228 57.5348 37.3436 57.433 37.6064 57.2294C37.8691 57.0258 38.068 56.7547 38.2029 56.4162C38.3403 56.0777 38.4089 55.7048 38.4089 55.2976C38.4089 54.8904 38.3403 54.5163 38.2029 54.1754C38.068 53.8345 37.8691 53.5611 37.6064 53.3551C37.3436 53.1491 37.0228 53.0462 36.644 53.0462C36.2676 53.0462 35.9468 53.1491 35.6816 53.3551C35.4189 53.5611 35.2188 53.8345 35.0815 54.1754C34.9466 54.5163 34.8791 54.8904 34.8791 55.2976C34.8791 55.7048 34.9466 56.0777 35.0815 56.4162C35.2188 56.7547 35.4189 57.0258 35.6816 57.2294C35.9444 57.433 36.2652 57.5348 36.644 57.5348ZM43.8981 55.9155V52.5455H44.5302V58H43.8981V57.0945H43.8484C43.7205 57.3738 43.5181 57.607 43.2411 57.794C42.9641 57.9787 42.6256 58.071 42.2255 58.071C41.8775 58.071 41.5685 57.9953 41.2987 57.8438C41.0288 57.6899 40.8169 57.465 40.663 57.169C40.5091 56.8731 40.4322 56.5097 40.4322 56.0788V52.5455H41.0643V56.0398C41.0643 56.4659 41.1897 56.8092 41.4407 57.0696C41.6916 57.3277 42.0136 57.4567 42.4066 57.4567C42.6528 57.4567 42.8896 57.3975 43.1168 57.2791C43.3441 57.1607 43.5311 56.9879 43.6779 56.7607C43.8247 56.531 43.8981 56.2493 43.8981 55.9155ZM46.2037 58V52.5455H46.818V53.3835H46.8642C46.9731 53.1089 47.1625 52.8875 47.4324 52.7195C47.7046 52.549 48.0124 52.4638 48.3556 52.4638C48.4077 52.4638 48.4657 52.465 48.5297 52.4673C48.5936 52.4697 48.6468 52.4721 48.6895 52.4744V53.1172C48.661 53.1125 48.6113 53.1054 48.5403 53.0959C48.4693 53.0864 48.3923 53.0817 48.3095 53.0817C48.0254 53.0817 47.7721 53.142 47.5495 53.2628C47.3294 53.3812 47.1554 53.5457 47.0275 53.7564C46.8997 53.9671 46.8358 54.2074 46.8358 54.4773V58H46.2037ZM53.4329 53.7422L52.854 53.9055C52.7972 53.7422 52.7167 53.5942 52.6126 53.4616C52.5084 53.3291 52.3723 53.2237 52.2042 53.1456C52.0385 53.0675 51.8325 53.0284 51.5863 53.0284C51.217 53.0284 50.9139 53.116 50.6772 53.2912C50.4405 53.4664 50.3221 53.6925 50.3221 53.9695C50.3221 54.2038 50.4026 54.3944 50.5636 54.5412C50.7269 54.6856 50.9779 54.8004 51.3164 54.8857L52.1403 55.0881C52.5972 55.1993 52.9393 55.3757 53.1665 55.6172C53.3962 55.8587 53.511 56.1617 53.511 56.5263C53.511 56.834 53.4258 57.1075 53.2553 57.3466C53.0849 57.5857 52.8469 57.7739 52.5415 57.9112C52.2385 58.0462 51.887 58.1136 51.4869 58.1136C50.9542 58.1136 50.515 57.9941 50.1694 57.755C49.8237 57.5135 49.6024 57.1655 49.5053 56.7109L50.1126 56.5618C50.1907 56.8861 50.3434 57.1312 50.5707 57.2969C50.8003 57.4626 51.1022 57.5455 51.4762 57.5455C51.8952 57.5455 52.2302 57.4519 52.4812 57.2649C52.7321 57.0755 52.8576 56.8388 52.8576 56.5547C52.8576 56.3345 52.7842 56.1499 52.6374 56.0007C52.4906 55.8492 52.2681 55.7379 51.9698 55.6669L51.0785 55.4538C50.605 55.3402 50.2546 55.1603 50.0273 54.9141C49.8001 54.6679 49.6864 54.3625 49.6864 53.9979C49.6864 53.6972 49.7681 53.4332 49.9315 53.206C50.0948 52.9763 50.3197 52.7964 50.6062 52.6662C50.8926 52.536 51.2193 52.4709 51.5863 52.4709C52.0858 52.4709 52.4847 52.5845 52.783 52.8118C53.0837 53.0367 53.3003 53.3468 53.4329 53.7422ZM57.1003 58.1136C56.5913 58.1136 56.151 57.9953 55.7793 57.7585C55.4076 57.5194 55.12 57.1892 54.9164 56.7678C54.7151 56.344 54.6145 55.8563 54.6145 55.3047C54.6145 54.7554 54.7151 54.2678 54.9164 53.8416C55.12 53.4131 55.4005 53.0781 55.758 52.8366C56.1178 52.5928 56.5333 52.4709 57.0044 52.4709C57.3004 52.4709 57.5856 52.5253 57.8603 52.6342C58.1349 52.7408 58.3811 52.9053 58.5989 53.1278C58.8191 53.348 58.9931 53.6262 59.1209 53.9624C59.2488 54.2962 59.3127 54.6915 59.3127 55.1484V55.4609H55.0513V54.9034H58.6664C58.6664 54.553 58.5953 54.2382 58.4533 53.9588C58.3136 53.6771 58.1183 53.4545 57.8674 53.2912C57.6188 53.1278 57.3311 53.0462 57.0044 53.0462C56.6588 53.0462 56.3546 53.1385 56.0918 53.3232C55.829 53.5078 55.623 53.7517 55.4739 54.0547C55.3271 54.3577 55.2525 54.6892 55.2502 55.049V55.3828C55.2502 55.8161 55.3248 56.1948 55.4739 56.5192C55.6254 56.8411 55.8397 57.0909 56.1167 57.2685C56.3936 57.446 56.7215 57.5348 57.1003 57.5348C57.3584 57.5348 57.5845 57.4946 57.7786 57.4141C57.9751 57.3336 58.1396 57.2259 58.2722 57.0909C58.4071 56.9536 58.5089 56.8033 58.5776 56.6399L59.1777 56.8352C59.0949 57.0649 58.9587 57.2768 58.7694 57.4709C58.5823 57.665 58.348 57.8213 58.0662 57.9396C57.7869 58.0556 57.4649 58.1136 57.1003 58.1136ZM64.3704 53.7422L63.7915 53.9055C63.7347 53.7422 63.6542 53.5942 63.5501 53.4616C63.4459 53.3291 63.3098 53.2237 63.1417 53.1456C62.976 53.0675 62.77 53.0284 62.5238 53.0284C62.1545 53.0284 61.8514 53.116 61.6147 53.2912C61.378 53.4664 61.2596 53.6925 61.2596 53.9695C61.2596 54.2038 61.3401 54.3944 61.5011 54.5412C61.6644 54.6856 61.9154 54.8004 62.2539 54.8857L63.0778 55.0881C63.5347 55.1993 63.8768 55.3757 64.104 55.6172C64.3337 55.8587 64.4485 56.1617 64.4485 56.5263C64.4485 56.834 64.3633 57.1075 64.1928 57.3466C64.0224 57.5857 63.7844 57.7739 63.479 57.9112C63.176 58.0462 62.8245 58.1136 62.4244 58.1136C61.8917 58.1136 61.4525 57.9941 61.1069 57.755C60.7612 57.5135 60.5399 57.1655 60.4428 56.7109L61.0501 56.5618C61.1282 56.8861 61.2809 57.1312 61.5082 57.2969C61.7378 57.4626 62.0397 57.5455 62.4137 57.5455C62.8327 57.5455 63.1677 57.4519 63.4187 57.2649C63.6696 57.0755 63.7951 56.8388 63.7951 56.5547C63.7951 56.3345 63.7217 56.1499 63.5749 56.0007C63.4281 55.8492 63.2056 55.7379 62.9073 55.6669L62.016 55.4538C61.5425 55.3402 61.1921 55.1603 60.9648 54.9141C60.7376 54.6679 60.6239 54.3625 60.6239 53.9979C60.6239 53.6972 60.7056 53.4332 60.869 53.206C61.0323 52.9763 61.2572 52.7964 61.5437 52.6662C61.8301 52.536 62.1568 52.4709 62.5238 52.4709C63.0233 52.4709 63.4222 52.5845 63.7205 52.8118C64.0212 53.0367 64.2378 53.3468 64.3704 53.7422ZM68.6451 58V52.5455H69.2594V53.3835H69.3162C69.4251 53.1018 69.6062 52.8804 69.8596 52.7195C70.1152 52.5561 70.4218 52.4744 70.7793 52.4744C71.1557 52.4744 71.4647 52.5632 71.7061 52.7408C71.95 52.916 72.1323 53.1574 72.253 53.4652H72.2992C72.4223 53.1622 72.6223 52.9219 72.8993 52.7443C73.1787 52.5644 73.5172 52.4744 73.915 52.4744C74.4216 52.4744 74.8217 52.6342 75.1152 52.9538C75.4088 53.2711 75.5556 53.7351 75.5556 54.3459V58H74.9235V54.3459C74.9235 53.915 74.8134 53.5919 74.5932 53.3764C74.373 53.161 74.083 53.0533 73.7232 53.0533C73.3065 53.0533 72.9857 53.1811 72.7608 53.4368C72.5359 53.6925 72.4235 54.0168 72.4235 54.4098V58H71.7772V54.2891C71.7772 53.9197 71.6742 53.6214 71.4682 53.3942C71.2623 53.1669 70.9722 53.0533 70.5982 53.0533C70.3472 53.0533 70.1212 53.1148 69.9199 53.2379C69.7211 53.361 69.5636 53.5327 69.4476 53.7528C69.334 53.9706 69.2772 54.2216 69.2772 54.5057V58H68.6451ZM80.695 55.9155V52.5455H81.3271V58H80.695V57.0945H80.6452C80.5174 57.3738 80.315 57.607 80.038 57.794C79.761 57.9787 79.4225 58.071 79.0224 58.071C78.6744 58.071 78.3654 57.9953 78.0955 57.8438C77.8256 57.6899 77.6138 57.465 77.4599 57.169C77.306 56.8731 77.229 56.5097 77.229 56.0788V52.5455H77.8612V56.0398C77.8612 56.4659 77.9866 56.8092 78.2376 57.0696C78.4885 57.3277 78.8105 57.4567 79.2035 57.4567C79.4497 57.4567 79.6864 57.3975 79.9137 57.2791C80.141 57.1607 80.328 56.9879 80.4748 56.7607C80.6216 56.531 80.695 56.2493 80.695 55.9155ZM86.6653 53.7422L86.0865 53.9055C86.0297 53.7422 85.9492 53.5942 85.845 53.4616C85.7408 53.3291 85.6047 53.2237 85.4366 53.1456C85.2709 53.0675 85.0649 53.0284 84.8187 53.0284C84.4494 53.0284 84.1464 53.116 83.9096 53.2912C83.6729 53.4664 83.5545 53.6925 83.5545 53.9695C83.5545 54.2038 83.635 54.3944 83.796 54.5412C83.9593 54.6856 84.2103 54.8004 84.5488 54.8857L85.3727 55.0881C85.8296 55.1993 86.1717 55.3757 86.399 55.6172C86.6286 55.8587 86.7434 56.1617 86.7434 56.5263C86.7434 56.834 86.6582 57.1075 86.4877 57.3466C86.3173 57.5857 86.0794 57.7739 85.774 57.9112C85.4709 58.0462 85.1194 58.1136 84.7193 58.1136C84.1866 58.1136 83.7475 57.9941 83.4018 57.755C83.0562 57.5135 82.8348 57.1655 82.7377 56.7109L83.345 56.5618C83.4231 56.8861 83.5758 57.1312 83.8031 57.2969C84.0327 57.4626 84.3346 57.5455 84.7086 57.5455C85.1277 57.5455 85.4627 57.4519 85.7136 57.2649C85.9645 57.0755 86.09 56.8388 86.09 56.5547C86.09 56.3345 86.0166 56.1499 85.8699 56.0007C85.7231 55.8492 85.5005 55.7379 85.2022 55.6669L84.3109 55.4538C83.8374 55.3402 83.487 55.1603 83.2598 54.9141C83.0325 54.6679 82.9189 54.3625 82.9189 53.9979C82.9189 53.6972 83.0005 53.4332 83.1639 53.206C83.3272 52.9763 83.5521 52.7964 83.8386 52.6662C84.1251 52.536 84.4518 52.4709 84.8187 52.4709C85.3182 52.4709 85.7172 52.5845 86.0154 52.8118C86.3161 53.0367 86.5327 53.3468 86.6653 53.7422ZM90.2759 52.5455V53.0959H87.6729V52.5455H90.2759ZM88.4862 51.2386H89.1218V56.576C89.1218 56.8033 89.1609 56.982 89.239 57.1122C89.3171 57.2401 89.4189 57.3312 89.5444 57.3857C89.6699 57.4377 89.8036 57.4638 89.9457 57.4638C90.0285 57.4638 90.0996 57.459 90.1587 57.4496C90.2179 57.4377 90.27 57.4259 90.315 57.4141L90.4499 57.9858C90.3884 58.0095 90.3126 58.0308 90.2227 58.0497C90.1327 58.071 90.0214 58.0817 89.8888 58.0817C89.6568 58.0817 89.4331 58.0308 89.2177 57.929C89.0046 57.8272 88.8294 57.6757 88.6921 57.4744C88.5548 57.2732 88.4862 57.0234 88.4862 56.7251V51.2386ZM34.2749 70L32.6272 64.5455H33.2948L34.5874 69.0447H34.6336L35.9227 64.5455H36.5938L37.8722 69.0341H37.922L39.2146 64.5455H39.8822L38.2345 70H37.5811L36.2884 65.5291H36.221L34.9284 70H34.2749ZM43.0454 70.1136C42.5742 70.1136 42.1576 69.9941 41.7954 69.755C41.4355 69.5159 41.1538 69.1856 40.9502 68.7642C40.7466 68.3404 40.6448 67.8516 40.6448 67.2976C40.6448 66.7389 40.7466 66.2476 40.9502 65.8239C41.1538 65.3977 41.4355 65.0663 41.7954 64.8295C42.1576 64.5904 42.5742 64.4709 43.0454 64.4709C43.5165 64.4709 43.932 64.5904 44.2918 64.8295C44.6517 65.0687 44.9334 65.4001 45.137 65.8239C45.343 66.2476 45.4459 66.7389 45.4459 67.2976C45.4459 67.8516 45.3441 68.3404 45.1405 68.7642C44.9369 69.1856 44.654 69.5159 44.2918 69.755C43.932 69.9941 43.5165 70.1136 43.0454 70.1136ZM43.0454 69.5348C43.4242 69.5348 43.7449 69.433 44.0077 69.2294C44.2705 69.0258 44.4694 68.7547 44.6043 68.4162C44.7416 68.0777 44.8103 67.7048 44.8103 67.2976C44.8103 66.8904 44.7416 66.5163 44.6043 66.1754C44.4694 65.8345 44.2705 65.5611 44.0077 65.3551C43.7449 65.1491 43.4242 65.0462 43.0454 65.0462C42.6689 65.0462 42.3482 65.1491 42.083 65.3551C41.8202 65.5611 41.6202 65.8345 41.4829 66.1754C41.3479 66.5163 41.2805 66.8904 41.2805 67.2976C41.2805 67.7048 41.3479 68.0777 41.4829 68.4162C41.6202 68.7547 41.8202 69.0258 42.083 69.2294C42.3458 69.433 42.6666 69.5348 43.0454 69.5348ZM46.8335 70V64.5455H47.4479V65.3835H47.4941C47.603 65.1089 47.7923 64.8875 48.0622 64.7195C48.3345 64.549 48.6423 64.4638 48.9855 64.4638C49.0376 64.4638 49.0956 64.465 49.1595 64.4673C49.2235 64.4697 49.2767 64.4721 49.3193 64.4744V65.1172C49.2909 65.1125 49.2412 65.1054 49.1702 65.0959C49.0992 65.0864 49.0222 65.0817 48.9394 65.0817C48.6553 65.0817 48.402 65.142 48.1794 65.2628C47.9593 65.3812 47.7852 65.5457 47.6574 65.7564C47.5296 65.9671 47.4656 66.2074 47.4656 66.4773V70H46.8335ZM50.9733 67.9403L50.9662 67.1129H51.1082L53.665 64.5455H54.464L51.9392 67.0739L51.8824 67.0845L50.9733 67.9403ZM50.398 70V62.7273H51.0301V70H50.398ZM53.7964 70L51.5805 67.1982L52.0351 66.7614L54.6061 70H53.7964ZM60.5844 70.1136C60.1133 70.1136 59.6966 69.9941 59.3344 69.755C58.9746 69.5159 58.6929 69.1856 58.4893 68.7642C58.2857 68.3404 58.1839 67.8516 58.1839 67.2976C58.1839 66.7389 58.2857 66.2476 58.4893 65.8239C58.6929 65.3977 58.9746 65.0663 59.3344 64.8295C59.6966 64.5904 60.1133 64.4709 60.5844 64.4709C61.0555 64.4709 61.471 64.5904 61.8309 64.8295C62.1907 65.0687 62.4724 65.4001 62.676 65.8239C62.882 66.2476 62.985 66.7389 62.985 67.2976C62.985 67.8516 62.8832 68.3404 62.6796 68.7642C62.476 69.1856 62.1931 69.5159 61.8309 69.755C61.471 69.9941 61.0555 70.1136 60.5844 70.1136ZM60.5844 69.5348C60.9632 69.5348 61.284 69.433 61.5468 69.2294C61.8096 69.0258 62.0084 68.7547 62.1434 68.4162C62.2807 68.0777 62.3493 67.7048 62.3493 67.2976C62.3493 66.8904 62.2807 66.5163 62.1434 66.1754C62.0084 65.8345 61.8096 65.5611 61.5468 65.3551C61.284 65.1491 60.9632 65.0462 60.5844 65.0462C60.208 65.0462 59.8872 65.1491 59.6221 65.3551C59.3593 65.5611 59.1592 65.8345 59.0219 66.1754C58.887 66.5163 58.8195 66.8904 58.8195 67.2976C58.8195 67.7048 58.887 68.0777 59.0219 68.4162C59.1592 68.7547 59.3593 69.0258 59.6221 69.2294C59.8849 69.433 60.2056 69.5348 60.5844 69.5348ZM66.6169 64.5455V65.0959H63.9358V64.5455H66.6169ZM64.7739 70V63.7464C64.7739 63.4529 64.8414 63.2055 64.9763 63.0043C65.1136 62.803 65.2923 62.6503 65.5125 62.5462C65.7327 62.442 65.9659 62.3899 66.2121 62.3899C66.3778 62.3899 66.5151 62.4041 66.624 62.4325C66.7353 62.4586 66.8229 62.4846 66.8868 62.5107L66.7021 63.0646C66.6548 63.0504 66.5968 63.0339 66.5281 63.0149C66.4595 62.996 66.3731 62.9865 66.2689 62.9865C65.9943 62.9865 65.7824 63.0634 65.6333 63.2173C65.4841 63.3712 65.4095 63.5914 65.4095 63.8778L65.406 70H64.7739ZM70.1228 64.5455V65.0959H67.4417V64.5455H70.1228ZM68.2797 70V63.7464C68.2797 63.4529 68.3472 63.2055 68.4822 63.0043C68.6195 62.803 68.7982 62.6503 69.0184 62.5462C69.2385 62.442 69.4717 62.3899 69.718 62.3899C69.8837 62.3899 70.021 62.4041 70.1299 62.4325C70.2412 62.4586 70.3287 62.4846 70.3927 62.5107L70.208 63.0646C70.1607 63.0504 70.1027 63.0339 70.034 63.0149C69.9653 62.996 69.8789 62.9865 69.7748 62.9865C69.5001 62.9865 69.2883 63.0634 69.1391 63.2173C68.99 63.3712 68.9154 63.5914 68.9154 63.8778L68.9118 70H68.2797ZM72.0164 62.7273V70H71.3843V62.7273H72.0164ZM73.6961 70V64.5455H74.3318V70H73.6961ZM74.0193 63.608C73.8891 63.608 73.7778 63.5642 73.6855 63.4766C73.5931 63.3866 73.547 63.2789 73.547 63.1534C73.547 63.0279 73.5931 62.9214 73.6855 62.8338C73.7778 62.7438 73.8891 62.6989 74.0193 62.6989C74.1495 62.6989 74.2607 62.7438 74.3531 62.8338C74.4454 62.9214 74.4916 63.0279 74.4916 63.1534C74.4916 63.2789 74.4454 63.3866 74.3531 63.4766C74.2607 63.5642 74.1495 63.608 74.0193 63.608ZM76.6356 66.5909V70H76.0035V64.5455H76.6178V65.4013H76.6746C76.8025 65.1219 77.0013 64.8982 77.2712 64.7301C77.5435 64.5597 77.8796 64.4744 78.2797 64.4744C78.6467 64.4744 78.9687 64.5514 79.2456 64.7053C79.525 64.8568 79.7416 65.0805 79.8955 65.3764C80.0518 65.6723 80.1299 66.0357 80.1299 66.4666V70H79.4978V66.5057C79.4978 66.0582 79.3723 65.7043 79.1214 65.4439C78.8728 65.1835 78.539 65.0533 78.1199 65.0533C77.8335 65.0533 77.579 65.1148 77.3564 65.2379C77.1339 65.361 76.9575 65.5386 76.8273 65.7706C76.6995 66.0002 76.6356 66.2737 76.6356 66.5909ZM83.9997 70.1136C83.4907 70.1136 83.0504 69.9953 82.6787 69.7585C82.307 69.5194 82.0194 69.1892 81.8158 68.7678C81.6146 68.344 81.5139 67.8563 81.5139 67.3047C81.5139 66.7554 81.6146 66.2678 81.8158 65.8416C82.0194 65.4131 82.2999 65.0781 82.6574 64.8366C83.0173 64.5928 83.4327 64.4709 83.9039 64.4709C84.1998 64.4709 84.4851 64.5253 84.7597 64.6342C85.0343 64.7408 85.2805 64.9053 85.4983 65.1278C85.7185 65.348 85.8925 65.6262 86.0203 65.9624C86.1482 66.2962 86.2121 66.6915 86.2121 67.1484V67.4609H81.9507V66.9034H85.5658C85.5658 66.553 85.4948 66.2382 85.3527 65.9588C85.213 65.6771 85.0177 65.4545 84.7668 65.2912C84.5182 65.1278 84.2306 65.0462 83.9039 65.0462C83.5582 65.0462 83.254 65.1385 82.9912 65.3232C82.7284 65.5078 82.5225 65.7517 82.3733 66.0547C82.2265 66.3577 82.152 66.6892 82.1496 67.049V67.3828C82.1496 67.8161 82.2242 68.1948 82.3733 68.5192C82.5248 68.8411 82.7391 69.0909 83.0161 69.2685C83.2931 69.446 83.6209 69.5348 83.9997 69.5348C84.2578 69.5348 84.4839 69.4946 84.678 69.4141C84.8745 69.3336 85.039 69.2259 85.1716 69.0909C85.3066 68.9536 85.4084 68.8033 85.477 68.6399L86.0771 68.8352C85.9943 69.0649 85.8582 69.2768 85.6688 69.4709C85.4817 69.665 85.2474 69.8213 84.9656 69.9396C84.6863 70.0556 84.3643 70.1136 83.9997 70.1136Z" fill="#222222"/>
<defs>
<filter id="filter0_d_991_202" x="0" y="0" width="118" height="118" filterUnits="userSpaceOnUse" color-interpolation-filters="sRGB">
<feFlood flood-opacity="0" result="BackgroundImageFix"/>
<feColorMatrix in="SourceAlpha" type="matrix" values="0 0 0 0 0 0 0 0 0 0 0 0 0 0 0 0 0 0 127 0" result="hardAlpha"/>
<feOffset dy="4"/>
<feGaussianBlur stdDeviation="2"/>
<feComposite in2="hardAlpha" operator="out"/>
<feColorMatrix type="matrix" values="0 0 0 0 0 0 0 0 0 0 0 0 0 0 0 0 0 0 0.25 0"/>
<feBlend mode="normal" in2="BackgroundImageFix" result="effect1_dropShadow_991_202"/>
<feBlend mode="normal" in="SourceGraphic" in2="effect1_dropShadow_991_202" result="shape"/>
</filter>
</defs>
</svg>
