<svg width="118" height="118" viewBox="0 0 118 118" fill="none" xmlns="http://www.w3.org/2000/svg">
<g filter="url(#filter0_d_991_223)">
<rect x="4" width="110" height="110" fill="#C9C8D8" fill-opacity="0.5" shape-rendering="crispEdges"/>
</g>
<path d="M21.8182 39.5909V43H21.1861V35.7273H21.8182V38.4013H21.875C22.0028 38.1196 22.2005 37.8946 22.468 37.7266C22.7379 37.5585 23.0788 37.4744 23.4908 37.4744C23.8601 37.4744 24.1844 37.5502 24.4638 37.7017C24.7431 37.8532 24.9609 38.0769 25.1172 38.3729C25.2734 38.6688 25.3516 39.0334 25.3516 39.4666V43H24.7159V39.5057C24.7159 39.0559 24.5904 38.7019 24.3395 38.4439C24.0909 38.1835 23.7547 38.0533 23.331 38.0533C23.0398 38.0533 22.7805 38.1148 22.5533 38.2379C22.326 38.361 22.1461 38.5386 22.0135 38.7706C21.8833 39.0002 21.8182 39.2737 21.8182 39.5909ZM29.2214 43.1136C28.7124 43.1136 28.2721 42.9953 27.9004 42.7585C27.5287 42.5194 27.2411 42.1892 27.0375 41.7678C26.8362 41.344 26.7356 40.8563 26.7356 40.3047C26.7356 39.7554 26.8362 39.2678 27.0375 38.8416C27.2411 38.4131 27.5216 38.0781 27.8791 37.8366C28.2389 37.5928 28.6544 37.4709 29.1255 37.4709C29.4215 37.4709 29.7067 37.5253 29.9814 37.6342C30.256 37.7408 30.5022 37.9053 30.72 38.1278C30.9402 38.348 31.1142 38.6262 31.242 38.9624C31.3699 39.2962 31.4338 39.6915 31.4338 40.1484V40.4609H27.1724V39.9034H30.7875C30.7875 39.553 30.7164 39.2382 30.5744 38.9588C30.4347 38.6771 30.2394 38.4545 29.9885 38.2912C29.7399 38.1278 29.4522 38.0462 29.1255 38.0462C28.7799 38.0462 28.4757 38.1385 28.2129 38.3232C27.9501 38.5078 27.7441 38.7517 27.595 39.0547C27.4482 39.3577 27.3736 39.6892 27.3713 40.049V40.3828C27.3713 40.8161 27.4458 41.1948 27.595 41.5192C27.7465 41.8411 27.9608 42.0909 28.2377 42.2685C28.5147 42.446 28.8426 42.5348 29.2214 42.5348C29.4795 42.5348 29.7056 42.4946 29.8997 42.4141C30.0962 42.3336 30.2607 42.2259 30.3933 42.0909C30.5282 41.9536 30.63 41.8033 30.6987 41.6399L31.2988 41.8352C31.216 42.0649 31.0798 42.2768 30.8904 42.4709C30.7034 42.665 30.469 42.8213 30.1873 42.9396C29.908 43.0556 29.586 43.1136 29.2214 43.1136ZM33.4588 35.7273V43H32.8267V35.7273H33.4588ZM35.1314 45.0455V37.5455H35.7457V38.5859H35.8203C35.8961 38.4226 36.0002 38.2557 36.1328 38.0852C36.2654 37.9124 36.4406 37.7668 36.6584 37.6484C36.8786 37.5301 37.1555 37.4709 37.4893 37.4709C37.9392 37.4709 38.3321 37.5893 38.6683 37.826C39.0069 38.0604 39.2696 38.3894 39.4567 38.8132C39.6461 39.2346 39.7408 39.7259 39.7408 40.2869C39.7408 40.8504 39.6461 41.344 39.4567 41.7678C39.2696 42.1915 39.0069 42.5218 38.6683 42.7585C38.3321 42.9953 37.9415 43.1136 37.4964 43.1136C37.1674 43.1136 36.8916 43.0545 36.669 42.9361C36.4489 42.8177 36.2701 42.6721 36.1328 42.4993C35.9979 42.3241 35.8937 42.1536 35.8203 41.9879H35.7635V45.0455H35.1314ZM35.7564 40.2763C35.7564 40.7166 35.8215 41.1072 35.9517 41.4482C36.0843 41.7867 36.2737 42.053 36.5199 42.2472C36.7685 42.4389 37.0691 42.5348 37.4219 42.5348C37.7841 42.5348 38.0895 42.4354 38.3381 42.2365C38.589 42.0353 38.7796 41.7642 38.9098 41.4233C39.0424 41.0824 39.1087 40.7 39.1087 40.2763C39.1087 39.8572 39.0436 39.4796 38.9134 39.1435C38.7855 38.8073 38.5961 38.541 38.3452 38.3445C38.0942 38.1456 37.7865 38.0462 37.4219 38.0462C37.0668 38.0462 36.7649 38.142 36.5163 38.3338C36.2678 38.5232 36.0784 38.786 35.9482 39.1222C35.8203 39.456 35.7564 39.8407 35.7564 40.2763ZM43.94 45.0455V37.5455H44.5543V38.5859H44.6289C44.7047 38.4226 44.8088 38.2557 44.9414 38.0852C45.074 37.9124 45.2492 37.7668 45.467 37.6484C45.6871 37.5301 45.9641 37.4709 46.2979 37.4709C46.7478 37.4709 47.1407 37.5893 47.4769 37.826C47.8155 38.0604 48.0782 38.3894 48.2653 38.8132C48.4547 39.2346 48.5494 39.7259 48.5494 40.2869C48.5494 40.8504 48.4547 41.344 48.2653 41.7678C48.0782 42.1915 47.8155 42.5218 47.4769 42.7585C47.1407 42.9953 46.7501 43.1136 46.305 43.1136C45.976 43.1136 45.7002 43.0545 45.4776 42.9361C45.2575 42.8177 45.0787 42.6721 44.9414 42.4993C44.8065 42.3241 44.7023 42.1536 44.6289 41.9879H44.5721V45.0455H43.94ZM44.565 40.2763C44.565 40.7166 44.6301 41.1072 44.7603 41.4482C44.8929 41.7867 45.0823 42.053 45.3285 42.2472C45.5771 42.4389 45.8777 42.5348 46.2305 42.5348C46.5927 42.5348 46.8981 42.4354 47.1467 42.2365C47.3976 42.0353 47.5882 41.7642 47.7184 41.4233C47.851 41.0824 47.9173 40.7 47.9173 40.2763C47.9173 39.8572 47.8522 39.4796 47.7219 39.1435C47.5941 38.8073 47.4047 38.541 47.1538 38.3445C46.9028 38.1456 46.5951 38.0462 46.2305 38.0462C45.8754 38.0462 45.5735 38.142 45.3249 38.3338C45.0763 38.5232 44.887 38.786 44.7567 39.1222C44.6289 39.456 44.565 39.8407 44.565 40.2763ZM49.9361 43V37.5455H50.5504V38.3835H50.5966C50.7055 38.1089 50.8949 37.8875 51.1648 37.7195C51.437 37.549 51.7448 37.4638 52.0881 37.4638C52.1402 37.4638 52.1982 37.465 52.2621 37.4673C52.326 37.4697 52.3793 37.4721 52.4219 37.4744V38.1172C52.3935 38.1125 52.3438 38.1054 52.2727 38.0959C52.2017 38.0864 52.1248 38.0817 52.0419 38.0817C51.7578 38.0817 51.5045 38.142 51.282 38.2628C51.0618 38.3812 50.8878 38.5457 50.7599 38.7564C50.6321 38.9671 50.5682 39.2074 50.5682 39.4773V43H49.9361ZM55.5398 43.1136C55.0308 43.1136 54.5904 42.9953 54.2188 42.7585C53.8471 42.5194 53.5594 42.1892 53.3558 41.7678C53.1546 41.344 53.054 40.8563 53.054 40.3047C53.054 39.7554 53.1546 39.2678 53.3558 38.8416C53.5594 38.4131 53.84 38.0781 54.1974 37.8366C54.5573 37.5928 54.9728 37.4709 55.4439 37.4709C55.7398 37.4709 56.0251 37.5253 56.2997 37.6342C56.5743 37.7408 56.8205 37.9053 57.0384 38.1278C57.2585 38.348 57.4325 38.6262 57.5604 38.9624C57.6882 39.2962 57.7521 39.6915 57.7521 40.1484V40.4609H53.4908V39.9034H57.1058C57.1058 39.553 57.0348 39.2382 56.8928 38.9588C56.7531 38.6771 56.5578 38.4545 56.3068 38.2912C56.0582 38.1278 55.7706 38.0462 55.4439 38.0462C55.0982 38.0462 54.794 38.1385 54.5312 38.3232C54.2685 38.5078 54.0625 38.7517 53.9134 39.0547C53.7666 39.3577 53.692 39.6892 53.6896 40.049V40.3828C53.6896 40.8161 53.7642 41.1948 53.9134 41.5192C54.0649 41.8411 54.2791 42.0909 54.5561 42.2685C54.8331 42.446 55.161 42.5348 55.5398 42.5348C55.7978 42.5348 56.0239 42.4946 56.218 42.4141C56.4145 42.3336 56.5791 42.2259 56.7116 42.0909C56.8466 41.9536 56.9484 41.8033 57.017 41.6399L57.6172 41.8352C57.5343 42.0649 57.3982 42.2768 57.2088 42.4709C57.0218 42.665 56.7874 42.8213 56.5057 42.9396C56.2263 43.0556 55.9044 43.1136 55.5398 43.1136ZM59.1451 45.0455V37.5455H59.7594V38.5859H59.834C59.9097 38.4226 60.0139 38.2557 60.1465 38.0852C60.2791 37.9124 60.4542 37.7668 60.6721 37.6484C60.8922 37.5301 61.1692 37.4709 61.503 37.4709C61.9528 37.4709 62.3458 37.5893 62.682 37.826C63.0205 38.0604 63.2833 38.3894 63.4703 38.8132C63.6597 39.2346 63.7544 39.7259 63.7544 40.2869C63.7544 40.8504 63.6597 41.344 63.4703 41.7678C63.2833 42.1915 63.0205 42.5218 62.682 42.7585C62.3458 42.9953 61.9552 43.1136 61.5101 43.1136C61.181 43.1136 60.9052 43.0545 60.6827 42.9361C60.4625 42.8177 60.2838 42.6721 60.1465 42.4993C60.0115 42.3241 59.9074 42.1536 59.834 41.9879H59.7772V45.0455H59.1451ZM59.7701 40.2763C59.7701 40.7166 59.8352 41.1072 59.9654 41.4482C60.098 41.7867 60.2873 42.053 60.5336 42.2472C60.7821 42.4389 61.0828 42.5348 61.4355 42.5348C61.7978 42.5348 62.1032 42.4354 62.3517 42.2365C62.6027 42.0353 62.7933 41.7642 62.9235 41.4233C63.056 41.0824 63.1223 40.7 63.1223 40.2763C63.1223 39.8572 63.0572 39.4796 62.927 39.1435C62.7992 38.8073 62.6098 38.541 62.3588 38.3445C62.1079 38.1456 61.8001 38.0462 61.4355 38.0462C61.0804 38.0462 60.7786 38.142 60.53 38.3338C60.2814 38.5232 60.092 38.786 59.9618 39.1222C59.834 39.456 59.7701 39.8407 59.7701 40.2763ZM66.6646 43.1243C66.3355 43.1243 66.0349 43.0604 65.7626 42.9325C65.4904 42.8023 65.2737 42.6153 65.1127 42.3714C64.9518 42.1252 64.8713 41.8269 64.8713 41.4766C64.8713 41.2067 64.9222 40.9794 65.024 40.7947C65.1258 40.6101 65.2702 40.4586 65.4572 40.3402C65.6442 40.2218 65.8656 40.1283 66.1213 40.0597C66.377 39.991 66.6587 39.9377 66.9664 39.8999C67.2718 39.862 67.5299 39.8288 67.7406 39.8004C67.9537 39.772 68.1158 39.727 68.2271 39.6655C68.3384 39.6039 68.394 39.5045 68.394 39.3672V39.2393C68.394 38.8677 68.2827 38.5753 68.0602 38.3622C67.84 38.1468 67.5228 38.0391 67.1085 38.0391C66.7155 38.0391 66.3947 38.1255 66.1461 38.2983C65.8999 38.4711 65.7271 38.6747 65.6277 38.9091L65.0275 38.6925C65.1506 38.3942 65.3211 38.1562 65.5389 37.9787C65.7567 37.7988 66.0005 37.6697 66.2704 37.5916C66.5403 37.5111 66.8137 37.4709 67.0907 37.4709C67.2991 37.4709 67.5157 37.4981 67.7406 37.5526C67.9679 37.607 68.1786 37.7017 68.3727 37.8366C68.5668 37.9692 68.7243 38.1551 68.845 38.3942C68.9657 38.6309 69.0261 38.9316 69.0261 39.2962V43H68.394V42.1371H68.3549C68.2792 42.2981 68.1667 42.4543 68.0176 42.6058C67.8684 42.7573 67.6814 42.8816 67.4565 42.9787C67.2316 43.0758 66.9676 43.1243 66.6646 43.1243ZM66.7498 42.5455C67.086 42.5455 67.3772 42.4709 67.6234 42.3217C67.8696 42.1726 68.059 41.9749 68.1916 41.7287C68.3265 41.4801 68.394 41.2067 68.394 40.9084V40.12C68.3467 40.165 68.2673 40.2053 68.1561 40.2408C68.0472 40.2763 67.9205 40.3082 67.7761 40.3366C67.6341 40.3627 67.492 40.3852 67.35 40.4041C67.2079 40.4231 67.0801 40.4396 66.9664 40.4538C66.6587 40.4917 66.3959 40.5509 66.1781 40.6314C65.9603 40.7119 65.7934 40.8232 65.6774 40.9652C65.5614 41.1049 65.5034 41.2848 65.5034 41.505C65.5034 41.8364 65.6217 42.0933 65.8585 42.2756C66.0952 42.4555 66.3923 42.5455 66.7498 42.5455ZM70.7076 43V37.5455H71.3219V38.3835H71.3681C71.477 38.1089 71.6664 37.8875 71.9363 37.7195C72.2085 37.549 72.5163 37.4638 72.8596 37.4638C72.9116 37.4638 72.9696 37.465 73.0336 37.4673C73.0975 37.4697 73.1507 37.4721 73.1934 37.4744V38.1172C73.165 38.1125 73.1152 38.1054 73.0442 38.0959C72.9732 38.0864 72.8962 38.0817 72.8134 38.0817C72.5293 38.0817 72.276 38.142 72.0534 38.2628C71.8333 38.3812 71.6593 38.5457 71.5314 38.7564C71.4036 38.9671 71.3397 39.2074 71.3397 39.4773V43H70.7076ZM76.3113 43.1136C75.8023 43.1136 75.3619 42.9953 74.9902 42.7585C74.6185 42.5194 74.3309 42.1892 74.1273 41.7678C73.9261 41.344 73.8255 40.8563 73.8255 40.3047C73.8255 39.7554 73.9261 39.2678 74.1273 38.8416C74.3309 38.4131 74.6114 38.0781 74.9689 37.8366C75.3288 37.5928 75.7443 37.4709 76.2154 37.4709C76.5113 37.4709 76.7966 37.5253 77.0712 37.6342C77.3458 37.7408 77.592 37.9053 77.8098 38.1278C78.03 38.348 78.204 38.6262 78.3319 38.9624C78.4597 39.2962 78.5236 39.6915 78.5236 40.1484V40.4609H74.2623V39.9034H77.8773C77.8773 39.553 77.8063 39.2382 77.6642 38.9588C77.5246 38.6771 77.3292 38.4545 77.0783 38.2912C76.8297 38.1278 76.5421 38.0462 76.2154 38.0462C75.8697 38.0462 75.5655 38.1385 75.3027 38.3232C75.04 38.5078 74.834 38.7517 74.6848 39.0547C74.5381 39.3577 74.4635 39.6892 74.4611 40.049V40.3828C74.4611 40.8161 74.5357 41.1948 74.6848 41.5192C74.8364 41.8411 75.0506 42.0909 75.3276 42.2685C75.6046 42.446 75.9325 42.5348 76.3113 42.5348C76.5693 42.5348 76.7954 42.4946 76.9895 42.4141C77.186 42.3336 77.3506 42.2259 77.4831 42.0909C77.6181 41.9536 77.7199 41.8033 77.7885 41.6399L78.3887 41.8352C78.3058 42.0649 78.1697 42.2768 77.9803 42.4709C77.7933 42.665 77.5589 42.8213 77.2772 42.9396C76.9978 43.0556 76.6758 43.1136 76.3113 43.1136ZM84.9734 37.5455V38.0959H82.2923V37.5455H84.9734ZM83.1303 43V36.7464C83.1303 36.4529 83.1978 36.2055 83.3327 36.0043C83.4701 35.803 83.6488 35.6503 83.869 35.5462C84.0891 35.442 84.3223 35.3899 84.5685 35.3899C84.7343 35.3899 84.8716 35.4041 84.9805 35.4325C85.0917 35.4586 85.1793 35.4846 85.2433 35.5107L85.0586 36.0646C85.0112 36.0504 84.9532 36.0339 84.8846 36.0149C84.8159 35.996 84.7295 35.9865 84.6254 35.9865C84.3507 35.9865 84.1388 36.0634 83.9897 36.2173C83.8406 36.3712 83.766 36.5914 83.766 36.8778L83.7624 43H83.1303ZM88.1303 43.1136C87.6592 43.1136 87.2425 42.9941 86.8803 42.755C86.5205 42.5159 86.2388 42.1856 86.0352 41.7642C85.8316 41.3404 85.7298 40.8516 85.7298 40.2976C85.7298 39.7389 85.8316 39.2476 86.0352 38.8239C86.2388 38.3977 86.5205 38.0663 86.8803 37.8295C87.2425 37.5904 87.6592 37.4709 88.1303 37.4709C88.6014 37.4709 89.0169 37.5904 89.3768 37.8295C89.7366 38.0687 90.0183 38.4001 90.2219 38.8239C90.4279 39.2476 90.5309 39.7389 90.5309 40.2976C90.5309 40.8516 90.4291 41.3404 90.2255 41.7642C90.0219 42.1856 89.739 42.5159 89.3768 42.755C89.0169 42.9941 88.6014 43.1136 88.1303 43.1136ZM88.1303 42.5348C88.5091 42.5348 88.8299 42.433 89.0927 42.2294C89.3555 42.0258 89.5543 41.7547 89.6893 41.4162C89.8266 41.0777 89.8952 40.7048 89.8952 40.2976C89.8952 39.8904 89.8266 39.5163 89.6893 39.1754C89.5543 38.8345 89.3555 38.5611 89.0927 38.3551C88.8299 38.1491 88.5091 38.0462 88.1303 38.0462C87.7539 38.0462 87.4331 38.1491 87.168 38.3551C86.9052 38.5611 86.7051 38.8345 86.5678 39.1754C86.4329 39.5163 86.3654 39.8904 86.3654 40.2976C86.3654 40.7048 86.4329 41.0777 86.5678 41.4162C86.7051 41.7547 86.9052 42.0258 87.168 42.2294C87.4308 42.433 87.7515 42.5348 88.1303 42.5348ZM91.9185 43V37.5455H92.5328V38.3835H92.579C92.6879 38.1089 92.8773 37.8875 93.1472 37.7195C93.4194 37.549 93.7272 37.4638 94.0705 37.4638C94.1226 37.4638 94.1806 37.465 94.2445 37.4673C94.3084 37.4697 94.3617 37.4721 94.4043 37.4744V38.1172C94.3759 38.1125 94.3262 38.1054 94.2551 38.0959C94.1841 38.0864 94.1072 38.0817 94.0243 38.0817C93.7402 38.0817 93.4869 38.142 93.2644 38.2628C93.0442 38.3812 92.8702 38.5457 92.7424 38.7564C92.6145 38.9671 92.5506 39.2074 92.5506 39.4773V43H91.9185ZM16.1248 55V49.5455H16.7605V55H16.1248ZM16.448 48.608C16.3178 48.608 16.2065 48.5642 16.1142 48.4766C16.0218 48.3866 15.9757 48.2789 15.9757 48.1534C15.9757 48.0279 16.0218 47.9214 16.1142 47.8338C16.2065 47.7438 16.3178 47.6989 16.448 47.6989C16.5782 47.6989 16.6895 47.7438 16.7818 47.8338C16.8741 47.9214 16.9203 48.0279 16.9203 48.1534C16.9203 48.2789 16.8741 48.3866 16.7818 48.4766C16.6895 48.5642 16.5782 48.608 16.448 48.608ZM19.0643 51.5909V55H18.4322V49.5455H19.0465V50.4013H19.1033C19.2312 50.1219 19.43 49.8982 19.6999 49.7301C19.9722 49.5597 20.3084 49.4744 20.7085 49.4744C21.0754 49.4744 21.3974 49.5514 21.6744 49.7053C21.9537 49.8568 22.1703 50.0805 22.3242 50.3764C22.4805 50.6723 22.5586 51.0357 22.5586 51.4666V55H21.9265V51.5057C21.9265 51.0582 21.801 50.7043 21.5501 50.4439C21.3015 50.1835 20.9677 50.0533 20.5487 50.0533C20.2622 50.0533 20.0077 50.1148 19.7852 50.2379C19.5626 50.361 19.3862 50.5386 19.256 50.7706C19.1282 51.0002 19.0643 51.2737 19.0643 51.5909ZM26.3716 49.5455V50.0959H23.7686V49.5455H26.3716ZM24.5819 48.2386H25.2175V53.576C25.2175 53.8033 25.2566 53.982 25.3347 54.1122C25.4128 54.2401 25.5146 54.3312 25.6401 54.3857C25.7656 54.4377 25.8993 54.4638 26.0414 54.4638C26.1242 54.4638 26.1953 54.459 26.2544 54.4496C26.3136 54.4377 26.3657 54.4259 26.4107 54.4141L26.5456 54.9858C26.4841 55.0095 26.4083 55.0308 26.3184 55.0497C26.2284 55.071 26.1171 55.0817 25.9846 55.0817C25.7525 55.0817 25.5288 55.0308 25.3134 54.929C25.1003 54.8272 24.9251 54.6757 24.7878 54.4744C24.6505 54.2732 24.5819 54.0234 24.5819 53.7251V48.2386ZM29.9538 55.1136C29.4448 55.1136 29.0045 54.9953 28.6328 54.7585C28.2611 54.5194 27.9735 54.1892 27.7699 53.7678C27.5687 53.344 27.468 52.8563 27.468 52.3047C27.468 51.7554 27.5687 51.2678 27.7699 50.8416C27.9735 50.4131 28.254 50.0781 28.6115 49.8366C28.9714 49.5928 29.3868 49.4709 29.858 49.4709C30.1539 49.4709 30.4392 49.5253 30.7138 49.6342C30.9884 49.7408 31.2346 49.9053 31.4524 50.1278C31.6726 50.348 31.8466 50.6262 31.9744 50.9624C32.1023 51.2962 32.1662 51.6915 32.1662 52.1484V52.4609H27.9048V51.9034H31.5199C31.5199 51.553 31.4489 51.2382 31.3068 50.9588C31.1671 50.6771 30.9718 50.4545 30.7209 50.2912C30.4723 50.1278 30.1847 50.0462 29.858 50.0462C29.5123 50.0462 29.2081 50.1385 28.9453 50.3232C28.6825 50.5078 28.4766 50.7517 28.3274 51.0547C28.1806 51.3577 28.1061 51.6892 28.1037 52.049V52.3828C28.1037 52.8161 28.1783 53.1948 28.3274 53.5192C28.4789 53.8411 28.6932 54.0909 28.9702 54.2685C29.2472 54.446 29.575 54.5348 29.9538 54.5348C30.2119 54.5348 30.438 54.4946 30.6321 54.4141C30.8286 54.3336 30.9931 54.2259 31.1257 54.0909C31.2607 53.9536 31.3625 53.8033 31.4311 53.6399L32.0312 53.8352C31.9484 54.0649 31.8123 54.2768 31.6229 54.4709C31.4358 54.665 31.2015 54.8213 30.9197 54.9396C30.6404 55.0556 30.3184 55.1136 29.9538 55.1136ZM33.5591 55V49.5455H34.1735V50.3835H34.2196C34.3285 50.1089 34.5179 49.8875 34.7878 49.7195C35.0601 49.549 35.3678 49.4638 35.7111 49.4638C35.7632 49.4638 35.8212 49.465 35.8851 49.4673C35.949 49.4697 36.0023 49.4721 36.0449 49.4744V50.1172C36.0165 50.1125 35.9668 50.1054 35.8958 50.0959C35.8248 50.0864 35.7478 50.0817 35.665 50.0817C35.3809 50.0817 35.1275 50.142 34.905 50.2628C34.6848 50.3812 34.5108 50.5457 34.383 50.7564C34.2551 50.9671 34.1912 51.2074 34.1912 51.4773V55H33.5591ZM41.5119 49.5455L39.5197 55H38.845L36.8528 49.5455H37.5382L39.1575 54.1655H39.2072L40.8265 49.5455H41.5119ZM42.7557 55V49.5455H43.3913V55H42.7557ZM43.0788 48.608C42.9486 48.608 42.8374 48.5642 42.745 48.4766C42.6527 48.3866 42.6065 48.2789 42.6065 48.1534C42.6065 48.0279 42.6527 47.9214 42.745 47.8338C42.8374 47.7438 42.9486 47.6989 43.0788 47.6989C43.209 47.6989 43.3203 47.7438 43.4126 47.8338C43.505 47.9214 43.5511 48.0279 43.5511 48.1534C43.5511 48.2789 43.505 48.3866 43.4126 48.4766C43.3203 48.5642 43.209 48.608 43.0788 48.608ZM47.2683 55.1136C46.7593 55.1136 46.319 54.9953 45.9473 54.7585C45.5756 54.5194 45.2879 54.1892 45.0843 53.7678C44.8831 53.344 44.7825 52.8563 44.7825 52.3047C44.7825 51.7554 44.8831 51.2678 45.0843 50.8416C45.2879 50.4131 45.5685 50.0781 45.926 49.8366C46.2858 49.5928 46.7013 49.4709 47.1724 49.4709C47.4683 49.4709 47.7536 49.5253 48.0282 49.6342C48.3029 49.7408 48.5491 49.9053 48.7669 50.1278C48.987 50.348 49.161 50.6262 49.2889 50.9624C49.4167 51.2962 49.4806 51.6915 49.4806 52.1484V52.4609H45.2193V51.9034H48.8343C48.8343 51.553 48.7633 51.2382 48.6213 50.9588C48.4816 50.6771 48.2863 50.4545 48.0353 50.2912C47.7868 50.1278 47.4991 50.0462 47.1724 50.0462C46.8268 50.0462 46.5225 50.1385 46.2598 50.3232C45.997 50.5078 45.791 50.7517 45.6419 51.0547C45.4951 51.3577 45.4205 51.6892 45.4181 52.049V52.3828C45.4181 52.8161 45.4927 53.1948 45.6419 53.5192C45.7934 53.8411 46.0076 54.0909 46.2846 54.2685C46.5616 54.446 46.8895 54.5348 47.2683 54.5348C47.5263 54.5348 47.7524 54.4946 47.9466 54.4141C48.1431 54.3336 48.3076 54.2259 48.4402 54.0909C48.5751 53.9536 48.6769 53.8033 48.7456 53.6399L49.3457 53.8352C49.2628 54.0649 49.1267 54.2768 48.9373 54.4709C48.7503 54.665 48.5159 54.8213 48.2342 54.9396C47.9548 55.0556 47.6329 55.1136 47.2683 55.1136ZM52.0845 55L50.4368 49.5455H51.1044L52.397 54.0447H52.4432L53.7322 49.5455H54.4034L55.6818 54.0341H55.7315L57.0241 49.5455H57.6918L56.044 55H55.3906L54.098 50.5291H54.0305L52.7379 55H52.0845ZM62.5852 50.7422L62.0064 50.9055C61.9496 50.7422 61.8691 50.5942 61.7649 50.4616C61.6607 50.3291 61.5246 50.2237 61.3565 50.1456C61.1908 50.0675 60.9848 50.0284 60.7386 50.0284C60.3693 50.0284 60.0663 50.116 59.8295 50.2912C59.5928 50.4664 59.4744 50.6925 59.4744 50.9695C59.4744 51.2038 59.5549 51.3944 59.7159 51.5412C59.8793 51.6856 60.1302 51.8004 60.4688 51.8857L61.2926 52.0881C61.7495 52.1993 62.0916 52.3757 62.3189 52.6172C62.5485 52.8587 62.6634 53.1617 62.6634 53.5263C62.6634 53.834 62.5781 54.1075 62.4077 54.3466C62.2372 54.5857 61.9993 54.7739 61.6939 54.9112C61.3909 55.0462 61.0393 55.1136 60.6392 55.1136C60.1065 55.1136 59.6674 54.9941 59.3217 54.755C58.9761 54.5135 58.7547 54.1655 58.6577 53.7109L59.2649 53.5618C59.343 53.8861 59.4957 54.1312 59.723 54.2969C59.9527 54.4626 60.2545 54.5455 60.6286 54.5455C61.0476 54.5455 61.3826 54.4519 61.6335 54.2649C61.8845 54.0755 62.0099 53.8388 62.0099 53.5547C62.0099 53.3345 61.9366 53.1499 61.7898 53.0007C61.643 52.8492 61.4205 52.7379 61.1222 52.6669L60.2308 52.4538C59.7573 52.3402 59.407 52.1603 59.1797 51.9141C58.9524 51.6679 58.8388 51.3625 58.8388 50.9979C58.8388 50.6972 58.9205 50.4332 59.0838 50.206C59.2472 49.9763 59.4721 49.7964 59.7585 49.6662C60.045 49.536 60.3717 49.4709 60.7386 49.4709C61.2382 49.4709 61.6371 49.5845 61.9354 49.8118C62.236 50.0367 62.4527 50.3468 62.5852 50.7422ZM66.867 55V49.5455H67.5027V55H66.867ZM67.1902 48.608C67.06 48.608 66.9487 48.5642 66.8564 48.4766C66.764 48.3866 66.7179 48.2789 66.7179 48.1534C66.7179 48.0279 66.764 47.9214 66.8564 47.8338C66.9487 47.7438 67.06 47.6989 67.1902 47.6989C67.3204 47.6989 67.4316 47.7438 67.524 47.8338C67.6163 47.9214 67.6625 48.0279 67.6625 48.1534C67.6625 48.2789 67.6163 48.3866 67.524 48.4766C67.4316 48.5642 67.3204 48.608 67.1902 48.608ZM69.8065 51.5909V55H69.1744V49.5455H69.7887V50.4013H69.8455C69.9734 50.1219 70.1722 49.8982 70.4421 49.7301C70.7144 49.5597 71.0505 49.4744 71.4506 49.4744C71.8176 49.4744 72.1396 49.5514 72.4165 49.7053C72.6959 49.8568 72.9125 50.0805 73.0664 50.3764C73.2227 50.6723 73.3008 51.0357 73.3008 51.4666V55H72.6687V51.5057C72.6687 51.0582 72.5432 50.7043 72.2923 50.4439C72.0437 50.1835 71.7099 50.0533 71.2908 50.0533C71.0044 50.0533 70.7499 50.1148 70.5273 50.2379C70.3048 50.361 70.1284 50.5386 69.9982 50.7706C69.8704 51.0002 69.8065 51.2737 69.8065 51.5909ZM79.9831 55.1136C79.4741 55.1136 79.0338 54.9953 78.6621 54.7585C78.2904 54.5194 78.0028 54.1892 77.7992 53.7678C77.598 53.344 77.4973 52.8563 77.4973 52.3047C77.4973 51.7554 77.598 51.2678 77.7992 50.8416C78.0028 50.4131 78.2833 50.0781 78.6408 49.8366C79.0007 49.5928 79.4161 49.4709 79.8873 49.4709C80.1832 49.4709 80.4685 49.5253 80.7431 49.6342C81.0177 49.7408 81.2639 49.9053 81.4817 50.1278C81.7019 50.348 81.8759 50.6262 82.0037 50.9624C82.1316 51.2962 82.1955 51.6915 82.1955 52.1484V52.4609H77.9341V51.9034H81.5492C81.5492 51.553 81.4782 51.2382 81.3361 50.9588C81.1964 50.6771 81.0011 50.4545 80.7502 50.2912C80.5016 50.1278 80.214 50.0462 79.8873 50.0462C79.5416 50.0462 79.2374 50.1385 78.9746 50.3232C78.7118 50.5078 78.5059 50.7517 78.3567 51.0547C78.2099 51.3577 78.1354 51.6892 78.133 52.049V52.3828C78.133 52.8161 78.2076 53.1948 78.3567 53.5192C78.5082 53.8411 78.7225 54.0909 78.9995 54.2685C79.2765 54.446 79.6043 54.5348 79.9831 54.5348C80.2412 54.5348 80.4673 54.4946 80.6614 54.4141C80.8579 54.3336 81.0224 54.2259 81.155 54.0909C81.29 53.9536 81.3917 53.8033 81.4604 53.6399L82.0605 53.8352C81.9777 54.0649 81.8416 54.2768 81.6522 54.4709C81.4651 54.665 81.2308 54.8213 80.949 54.9396C80.6697 55.0556 80.3477 55.1136 79.9831 55.1136ZM85.1119 55.1243C84.7828 55.1243 84.4821 55.0604 84.2099 54.9325C83.9376 54.8023 83.721 54.6153 83.56 54.3714C83.399 54.1252 83.3185 53.8269 83.3185 53.4766C83.3185 53.2067 83.3694 52.9794 83.4712 52.7947C83.573 52.6101 83.7174 52.4586 83.9045 52.3402C84.0915 52.2218 84.3129 52.1283 84.5685 52.0597C84.8242 51.991 85.1059 51.9377 85.4137 51.8999C85.7191 51.862 85.9772 51.8288 86.1879 51.8004C86.4009 51.772 86.5631 51.727 86.6744 51.6655C86.7856 51.6039 86.8413 51.5045 86.8413 51.3672V51.2393C86.8413 50.8677 86.73 50.5753 86.5075 50.3622C86.2873 50.1468 85.9701 50.0391 85.5558 50.0391C85.1628 50.0391 84.842 50.1255 84.5934 50.2983C84.3472 50.4711 84.1744 50.6747 84.0749 50.9091L83.4748 50.6925C83.5979 50.3942 83.7683 50.1562 83.9862 49.9787C84.204 49.7988 84.4478 49.6697 84.7177 49.5916C84.9876 49.5111 85.261 49.4709 85.538 49.4709C85.7463 49.4709 85.9629 49.4981 86.1879 49.5526C86.4151 49.607 86.6258 49.7017 86.82 49.8366C87.0141 49.9692 87.1715 50.1551 87.2923 50.3942C87.413 50.6309 87.4734 50.9316 87.4734 51.2962V55H86.8413V54.1371H86.8022C86.7264 54.2981 86.614 54.4543 86.4648 54.6058C86.3157 54.7573 86.1287 54.8816 85.9038 54.9787C85.6789 55.0758 85.4149 55.1243 85.1119 55.1243ZM85.1971 54.5455C85.5333 54.5455 85.8245 54.4709 86.0707 54.3217C86.3169 54.1726 86.5063 53.9749 86.6388 53.7287C86.7738 53.4801 86.8413 53.2067 86.8413 52.9084V52.12C86.7939 52.165 86.7146 52.2053 86.6033 52.2408C86.4944 52.2763 86.3678 52.3082 86.2234 52.3366C86.0813 52.3627 85.9393 52.3852 85.7972 52.4041C85.6552 52.4231 85.5273 52.4396 85.4137 52.4538C85.1059 52.4917 84.8432 52.5509 84.6254 52.6314C84.4076 52.7119 84.2406 52.8232 84.1246 52.9652C84.0086 53.1049 83.9506 53.2848 83.9506 53.505C83.9506 53.8364 84.069 54.0933 84.3058 54.2756C84.5425 54.4555 84.8396 54.5455 85.1971 54.5455ZM91.2855 55.1136C90.7978 55.1136 90.3729 54.9917 90.0107 54.7479C89.6508 54.504 89.3714 54.1702 89.1726 53.7464C88.9737 53.3227 88.8743 52.8397 88.8743 52.2976C88.8743 51.7507 88.9749 51.2642 89.1761 50.8381C89.3797 50.4119 89.6615 50.0781 90.0213 49.8366C90.3812 49.5928 90.799 49.4709 91.2749 49.4709C91.6394 49.4709 91.9697 49.5419 92.2656 49.6839C92.5616 49.8236 92.8054 50.0213 92.9972 50.277C93.1913 50.5303 93.3132 50.8262 93.3629 51.1648H92.7237C92.6574 50.857 92.4976 50.5942 92.2443 50.3764C91.9934 50.1562 91.6738 50.0462 91.2855 50.0462C90.9375 50.0462 90.6297 50.1409 90.3622 50.3303C90.0947 50.5173 89.8852 50.7789 89.7337 51.1151C89.5845 51.4489 89.5099 51.8359 89.5099 52.2763C89.5099 52.719 89.5833 53.1108 89.7301 53.4517C89.8769 53.7902 90.0829 54.0554 90.348 54.2472C90.6155 54.4389 90.928 54.5348 91.2855 54.5348C91.527 54.5348 91.7472 54.4898 91.946 54.3999C92.1473 54.3075 92.3153 54.1773 92.4503 54.0092C92.5876 53.8411 92.6799 53.6411 92.7273 53.4091H93.3665C93.3191 53.7382 93.2019 54.0317 93.0149 54.2898C92.8303 54.5455 92.59 54.7467 92.294 54.8935C92.0005 55.0402 91.6643 55.1136 91.2855 55.1136ZM95.3533 51.5909V55H94.7212V47.7273H95.3533V50.4013H95.4102C95.538 50.1196 95.7357 49.8946 96.0032 49.7266C96.2731 49.5585 96.614 49.4744 97.0259 49.4744C97.3952 49.4744 97.7196 49.5502 97.9989 49.7017C98.2783 49.8532 98.4961 50.0769 98.6523 50.3729C98.8086 50.6688 98.8867 51.0334 98.8867 51.4666V55H98.2511V51.5057C98.2511 51.0559 98.1256 50.7019 97.8746 50.4439C97.6261 50.1835 97.2899 50.0533 96.8661 50.0533C96.5749 50.0533 96.3157 50.1148 96.0884 50.2379C95.8612 50.361 95.6812 50.5386 95.5487 50.7706C95.4184 51.0002 95.3533 51.2737 95.3533 51.5909ZM39.5867 61.5455H40.2224V67.5291C40.2224 67.8393 40.1644 68.1068 40.0484 68.3317C39.9347 68.5589 39.769 68.7341 39.5512 68.8572C39.3334 68.9827 39.0706 69.0455 38.7629 69.0455C38.7392 69.0455 38.7155 69.0455 38.6919 69.0455C38.6682 69.0455 38.6421 69.0443 38.6137 69.0419L38.6208 68.4489C38.6445 68.4489 38.667 68.4489 38.6883 68.4489C38.7096 68.4489 38.7321 68.4489 38.7558 68.4489C39.0162 68.4489 39.2198 68.3684 39.3666 68.2074C39.5133 68.0464 39.5867 67.8203 39.5867 67.5291V61.5455ZM39.8992 60.608C39.7714 60.608 39.6601 60.5642 39.5654 60.4766C39.4731 60.3866 39.4269 60.2789 39.4269 60.1534C39.4269 60.0279 39.4731 59.9214 39.5654 59.8338C39.6601 59.7438 39.7714 59.6989 39.8992 59.6989C40.0294 59.6989 40.1407 59.7438 40.233 59.8338C40.3277 59.9214 40.3751 60.0279 40.3751 60.1534C40.3751 60.2789 40.3277 60.3866 40.233 60.4766C40.1407 60.5642 40.0294 60.608 39.8992 60.608ZM44.0141 67.1136C43.543 67.1136 43.1263 66.9941 42.7641 66.755C42.4043 66.5159 42.1225 66.1856 41.9189 65.7642C41.7153 65.3404 41.6135 64.8516 41.6135 64.2976C41.6135 63.7389 41.7153 63.2476 41.9189 62.8239C42.1225 62.3977 42.4043 62.0663 42.7641 61.8295C43.1263 61.5904 43.543 61.4709 44.0141 61.4709C44.4852 61.4709 44.9007 61.5904 45.2606 61.8295C45.6204 62.0687 45.9021 62.4001 46.1057 62.8239C46.3117 63.2476 46.4147 63.7389 46.4147 64.2976C46.4147 64.8516 46.3129 65.3404 46.1093 65.7642C45.9057 66.1856 45.6228 66.5159 45.2606 66.755C44.9007 66.9941 44.4852 67.1136 44.0141 67.1136ZM44.0141 66.5348C44.3929 66.5348 44.7137 66.433 44.9765 66.2294C45.2393 66.0258 45.4381 65.7547 45.5731 65.4162C45.7104 65.0777 45.779 64.7048 45.779 64.2976C45.779 63.8904 45.7104 63.5163 45.5731 63.1754C45.4381 62.8345 45.2393 62.5611 44.9765 62.3551C44.7137 62.1491 44.3929 62.0462 44.0141 62.0462C43.6377 62.0462 43.3169 62.1491 43.0518 62.3551C42.789 62.5611 42.5889 62.8345 42.4516 63.1754C42.3167 63.5163 42.2492 63.8904 42.2492 64.2976C42.2492 64.7048 42.3167 65.0777 42.4516 65.4162C42.5889 65.7547 42.789 66.0258 43.0518 66.2294C43.3145 66.433 43.6353 66.5348 44.0141 66.5348ZM47.9337 67V59.7273H48.5693V62.5859H48.6262C48.6972 62.4226 48.799 62.2545 48.9316 62.0817C49.0665 61.9089 49.2429 61.7644 49.4607 61.6484C49.6808 61.5301 49.9578 61.4709 50.2916 61.4709C50.7391 61.4709 51.1321 61.5893 51.4706 61.826C51.8092 62.0604 52.0731 62.3894 52.2625 62.8132C52.4519 63.2346 52.5466 63.7259 52.5466 64.2869C52.5466 64.8504 52.4519 65.344 52.2625 65.7678C52.0755 66.1915 51.8127 66.5218 51.4742 66.7585C51.138 66.9953 50.7474 67.1136 50.3023 67.1136C49.9709 67.1136 49.6939 67.0545 49.4713 66.9361C49.2512 66.8177 49.0736 66.6721 48.9387 66.4993C48.8037 66.3241 48.6995 66.1536 48.6262 65.9879H48.548V67H47.9337ZM48.5587 64.2763C48.5587 64.7166 48.6238 65.1072 48.754 65.4482C48.8866 65.7867 49.076 66.053 49.3222 66.2472C49.5708 66.4389 49.8714 66.5348 50.2242 66.5348C50.5864 66.5348 50.893 66.4354 51.1439 66.2365C51.3949 66.0353 51.5854 65.7642 51.7156 65.4233C51.8459 65.0824 51.911 64.7 51.911 64.2763C51.911 63.8572 51.8459 63.4796 51.7156 63.1435C51.5878 62.8073 51.3984 62.541 51.1475 62.3445C50.8965 62.1456 50.5887 62.0462 50.2242 62.0462C49.8691 62.0462 49.5672 62.142 49.3186 62.3338C49.0724 62.5232 48.8842 62.786 48.754 63.1222C48.6238 63.456 48.5587 63.8407 48.5587 64.2763ZM58.271 67.1243C57.942 67.1243 57.6413 67.0604 57.3691 66.9325C57.0968 66.8023 56.8802 66.6153 56.7192 66.3714C56.5582 66.1252 56.4777 65.8269 56.4777 65.4766C56.4777 65.2067 56.5286 64.9794 56.6304 64.7947C56.7322 64.6101 56.8766 64.4586 57.0637 64.3402C57.2507 64.2218 57.472 64.1283 57.7277 64.0597C57.9834 63.991 58.2651 63.9377 58.5729 63.8999C58.8783 63.862 59.1363 63.8288 59.347 63.8004C59.5601 63.772 59.7223 63.727 59.8335 63.6655C59.9448 63.6039 60.0004 63.5045 60.0004 63.3672V63.2393C60.0004 62.8677 59.8892 62.5753 59.6666 62.3622C59.4465 62.1468 59.1292 62.0391 58.7149 62.0391C58.3219 62.0391 58.0012 62.1255 57.7526 62.2983C57.5064 62.4711 57.3335 62.6747 57.2341 62.9091L56.634 62.6925C56.7571 62.3942 56.9275 62.1562 57.1453 61.9787C57.3631 61.7988 57.607 61.6697 57.8769 61.5916C58.1468 61.5111 58.4202 61.4709 58.6972 61.4709C58.9055 61.4709 59.1221 61.4981 59.347 61.5526C59.5743 61.607 59.785 61.7017 59.9791 61.8366C60.1733 61.9692 60.3307 62.1551 60.4514 62.3942C60.5722 62.6309 60.6325 62.9316 60.6325 63.2962V67H60.0004V66.1371H59.9614C59.8856 66.2981 59.7732 66.4543 59.624 66.6058C59.4749 66.7573 59.2878 66.8816 59.0629 66.9787C58.838 67.0758 58.5741 67.1243 58.271 67.1243ZM58.3563 66.5455C58.6924 66.5455 58.9836 66.4709 59.2298 66.3217C59.4761 66.1726 59.6655 65.9749 59.798 65.7287C59.933 65.4801 60.0004 65.2067 60.0004 64.9084V64.12C59.9531 64.165 59.8738 64.2053 59.7625 64.2408C59.6536 64.2763 59.527 64.3082 59.3825 64.3366C59.2405 64.3627 59.0985 64.3852 58.9564 64.4041C58.8144 64.4231 58.6865 64.4396 58.5729 64.4538C58.2651 64.4917 58.0023 64.5509 57.7845 64.6314C57.5667 64.7119 57.3998 64.8232 57.2838 64.9652C57.1678 65.1049 57.1098 65.2848 57.1098 65.505C57.1098 65.8364 57.2282 66.0933 57.4649 66.2756C57.7017 66.4555 57.9988 66.5455 58.3563 66.5455ZM62.314 67V61.5455H62.9284V62.3835H62.9745C63.0834 62.1089 63.2728 61.8875 63.5427 61.7195C63.815 61.549 64.1227 61.4638 64.466 61.4638C64.5181 61.4638 64.5761 61.465 64.64 61.4673C64.7039 61.4697 64.7572 61.4721 64.7998 61.4744V62.1172C64.7714 62.1125 64.7217 62.1054 64.6507 62.0959C64.5796 62.0864 64.5027 62.0817 64.4198 62.0817C64.1357 62.0817 63.8824 62.142 63.6599 62.2628C63.4397 62.3812 63.2657 62.5457 63.1379 62.7564C63.01 62.9671 62.9461 63.2074 62.9461 63.4773V67H62.314ZM67.9177 67.1136C67.4087 67.1136 66.9684 66.9953 66.5967 66.7585C66.225 66.5194 65.9374 66.1892 65.7338 65.7678C65.5325 65.344 65.4319 64.8563 65.4319 64.3047C65.4319 63.7554 65.5325 63.2678 65.7338 62.8416C65.9374 62.4131 66.2179 62.0781 66.5754 61.8366C66.9352 61.5928 67.3507 61.4709 67.8218 61.4709C68.1177 61.4709 68.403 61.5253 68.6776 61.6342C68.9523 61.7408 69.1985 61.9053 69.4163 62.1278C69.6365 62.348 69.8105 62.6262 69.9383 62.9624C70.0661 63.2962 70.1301 63.6915 70.1301 64.1484V64.4609H65.8687V63.9034H69.4838C69.4838 63.553 69.4127 63.2382 69.2707 62.9588C69.131 62.6771 68.9357 62.4545 68.6847 62.2912C68.4362 62.1278 68.1485 62.0462 67.8218 62.0462C67.4762 62.0462 67.172 62.1385 66.9092 62.3232C66.6464 62.5078 66.4404 62.7517 66.2913 63.0547C66.1445 63.3577 66.0699 63.6892 66.0676 64.049V64.3828C66.0676 64.8161 66.1421 65.1948 66.2913 65.5192C66.4428 65.8411 66.657 66.0909 66.934 66.2685C67.211 66.446 67.5389 66.5348 67.9177 66.5348C68.1758 66.5348 68.4018 66.4946 68.596 66.4141C68.7925 66.3336 68.957 66.2259 69.0896 66.0909C69.2245 65.9536 69.3263 65.8033 69.395 65.6399L69.9951 65.8352C69.9123 66.0649 69.7761 66.2768 69.5867 66.4709C69.3997 66.665 69.1653 66.8213 68.8836 66.9396C68.6043 67.0556 68.2823 67.1136 67.9177 67.1136ZM73.0464 67.1243C72.7174 67.1243 72.4167 67.0604 72.1444 66.9325C71.8722 66.8023 71.6556 66.6153 71.4946 66.3714C71.3336 66.1252 71.2531 65.8269 71.2531 65.4766C71.2531 65.2067 71.304 64.9794 71.4058 64.7947C71.5076 64.6101 71.652 64.4586 71.839 64.3402C72.0261 64.2218 72.2474 64.1283 72.5031 64.0597C72.7588 63.991 73.0405 63.9377 73.3483 63.8999C73.6537 63.862 73.9117 63.8288 74.1224 63.8004C74.3355 63.772 74.4977 63.727 74.6089 63.6655C74.7202 63.6039 74.7758 63.5045 74.7758 63.3672V63.2393C74.7758 62.8677 74.6646 62.5753 74.442 62.3622C74.2219 62.1468 73.9046 62.0391 73.4903 62.0391C73.0973 62.0391 72.7765 62.1255 72.528 62.2983C72.2818 62.4711 72.1089 62.6747 72.0095 62.9091L71.4094 62.6925C71.5325 62.3942 71.7029 62.1562 71.9207 61.9787C72.1385 61.7988 72.3824 61.6697 72.6523 61.5916C72.9221 61.5111 73.1956 61.4709 73.4726 61.4709C73.6809 61.4709 73.8975 61.4981 74.1224 61.5526C74.3497 61.607 74.5604 61.7017 74.7545 61.8366C74.9487 61.9692 75.1061 62.1551 75.2268 62.3942C75.3476 62.6309 75.4079 62.9316 75.4079 63.2962V67H74.7758V66.1371H74.7368C74.661 66.2981 74.5486 66.4543 74.3994 66.6058C74.2503 66.7573 74.0632 66.8816 73.8383 66.9787C73.6134 67.0758 73.3495 67.1243 73.0464 67.1243ZM73.1317 66.5455C73.4678 66.5455 73.759 66.4709 74.0052 66.3217C74.2515 66.1726 74.4408 65.9749 74.5734 65.7287C74.7084 65.4801 74.7758 65.2067 74.7758 64.9084V64.12C74.7285 64.165 74.6492 64.2053 74.5379 64.2408C74.429 64.2763 74.3023 64.3082 74.1579 64.3366C74.0159 64.3627 73.8738 64.3852 73.7318 64.4041C73.5898 64.4231 73.4619 64.4396 73.3483 64.4538C73.0405 64.4917 72.7777 64.5509 72.5599 64.6314C72.3421 64.7119 72.1752 64.8232 72.0592 64.9652C71.9432 65.1049 71.8852 65.2848 71.8852 65.505C71.8852 65.8364 72.0036 66.0933 72.2403 66.2756C72.4771 66.4555 72.7742 66.5455 73.1317 66.5455Z" fill="#222222"/>
<defs>
<filter id="filter0_d_991_223" x="0" y="0" width="118" height="118" filterUnits="userSpaceOnUse" color-interpolation-filters="sRGB">
<feFlood flood-opacity="0" result="BackgroundImageFix"/>
<feColorMatrix in="SourceAlpha" type="matrix" values="0 0 0 0 0 0 0 0 0 0 0 0 0 0 0 0 0 0 127 0" result="hardAlpha"/>
<feOffset dy="4"/>
<feGaussianBlur stdDeviation="2"/>
<feComposite in2="hardAlpha" operator="out"/>
<feColorMatrix type="matrix" values="0 0 0 0 0 0 0 0 0 0 0 0 0 0 0 0 0 0 0.25 0"/>
<feBlend mode="normal" in2="BackgroundImageFix" result="effect1_dropShadow_991_223"/>
<feBlend mode="normal" in="SourceGraphic" in2="effect1_dropShadow_991_223" result="shape"/>
</filter>
</defs>
</svg>
