<svg width="118" height="118" viewBox="0 0 118 118" fill="none" xmlns="http://www.w3.org/2000/svg">
<g filter="url(#filter0_d_991_207)">
<rect x="4" width="110" height="110" fill="#C9C8D8" fill-opacity="0.5" shape-rendering="crispEdges"/>
</g>
<path d="M20.1433 35.1136C19.6343 35.1136 19.194 34.9953 18.8223 34.7585C18.4506 34.5194 18.1629 34.1892 17.9593 33.7678C17.7581 33.344 17.6575 32.8563 17.6575 32.3047C17.6575 31.7554 17.7581 31.2678 17.9593 30.8416C18.1629 30.4131 18.4435 30.0781 18.801 29.8366C19.1608 29.5928 19.5763 29.4709 20.0474 29.4709C20.3433 29.4709 20.6286 29.5253 20.9032 29.6342C21.1779 29.7408 21.4241 29.9053 21.6419 30.1278C21.862 30.348 22.036 30.6262 22.1639 30.9624C22.2917 31.2962 22.3556 31.6915 22.3556 32.1484V32.4609H18.0943V31.9034H21.7093C21.7093 31.553 21.6383 31.2382 21.4963 30.9588C21.3566 30.6771 21.1613 30.4545 20.9103 30.2912C20.6618 30.1278 20.3741 30.0462 20.0474 30.0462C19.7018 30.0462 19.3975 30.1385 19.1348 30.3232C18.872 30.5078 18.666 30.7517 18.5169 31.0547C18.3701 31.3577 18.2955 31.6892 18.2931 32.049V32.3828C18.2931 32.8161 18.3677 33.1948 18.5169 33.5192C18.6684 33.8411 18.8826 34.0909 19.1596 34.2685C19.4366 34.446 19.7645 34.5348 20.1433 34.5348C20.4013 34.5348 20.6274 34.4946 20.8216 34.4141C21.0181 34.3336 21.1826 34.2259 21.3152 34.0909C21.4501 33.9536 21.5519 33.8033 21.6206 33.6399L22.2207 33.8352C22.1378 34.0649 22.0017 34.2768 21.8123 34.4709C21.6253 34.665 21.3909 34.8213 21.1092 34.9396C20.8298 35.0556 20.5079 35.1136 20.1433 35.1136ZM23.9927 29.5455L25.399 31.8714L26.8052 29.5455H27.5403L25.786 32.2727L27.5403 35H26.8052L25.399 32.7486L23.9927 35H23.2612L24.9941 32.2727L23.2612 29.5455H23.9927ZM28.8729 35V29.5455H29.5085V35H28.8729ZM29.196 28.608C29.0658 28.608 28.9545 28.5642 28.8622 28.4766C28.7699 28.3866 28.7237 28.2789 28.7237 28.1534C28.7237 28.0279 28.7699 27.9214 28.8622 27.8338C28.9545 27.7438 29.0658 27.6989 29.196 27.6989C29.3262 27.6989 29.4375 27.7438 29.5298 27.8338C29.6222 27.9214 29.6683 28.0279 29.6683 28.1534C29.6683 28.2789 29.6222 28.3866 29.5298 28.4766C29.4375 28.5642 29.3262 28.608 29.196 28.608ZM34.845 30.7422L34.2662 30.9055C34.2093 30.7422 34.1288 30.5942 34.0247 30.4616C33.9205 30.3291 33.7844 30.2237 33.6163 30.1456C33.4506 30.0675 33.2446 30.0284 32.9984 30.0284C32.6291 30.0284 32.3261 30.116 32.0893 30.2912C31.8526 30.4664 31.7342 30.6925 31.7342 30.9695C31.7342 31.2038 31.8147 31.3944 31.9757 31.5412C32.139 31.6856 32.39 31.8004 32.7285 31.8857L33.5524 32.0881C34.0093 32.1993 34.3514 32.3757 34.5787 32.6172C34.8083 32.8587 34.9231 33.1617 34.9231 33.5263C34.9231 33.834 34.8379 34.1075 34.6674 34.3466C34.497 34.5857 34.2591 34.7739 33.9537 34.9112C33.6506 35.0462 33.2991 35.1136 32.899 35.1136C32.3663 35.1136 31.9271 34.9941 31.5815 34.755C31.2359 34.5135 31.0145 34.1655 30.9174 33.7109L31.5247 33.5618C31.6028 33.8861 31.7555 34.1312 31.9828 34.2969C32.2124 34.4626 32.5143 34.5455 32.8883 34.5455C33.3074 34.5455 33.6423 34.4519 33.8933 34.2649C34.1442 34.0755 34.2697 33.8388 34.2697 33.5547C34.2697 33.3345 34.1963 33.1499 34.0495 33.0007C33.9028 32.8492 33.6802 32.7379 33.3819 32.6669L32.4906 32.4538C32.0171 32.3402 31.6667 32.1603 31.4395 31.9141C31.2122 31.6679 31.0985 31.3625 31.0985 30.9979C31.0985 30.6972 31.1802 30.4332 31.3436 30.206C31.5069 29.9763 31.7318 29.7964 32.0183 29.6662C32.3047 29.536 32.6315 29.4709 32.9984 29.4709C33.4979 29.4709 33.8968 29.5845 34.1951 29.8118C34.4958 30.0367 34.7124 30.3468 34.845 30.7422ZM38.4556 29.5455V30.0959H35.8526V29.5455H38.4556ZM36.6658 28.2386H37.3015V33.576C37.3015 33.8033 37.3406 33.982 37.4187 34.1122C37.4968 34.2401 37.5986 34.3312 37.7241 34.3857C37.8496 34.4377 37.9833 34.4638 38.1254 34.4638C38.2082 34.4638 38.2792 34.459 38.3384 34.4496C38.3976 34.4377 38.4497 34.4259 38.4947 34.4141L38.6296 34.9858C38.5681 35.0095 38.4923 35.0308 38.4023 35.0497C38.3124 35.071 38.2011 35.0817 38.0685 35.0817C37.8365 35.0817 37.6128 35.0308 37.3974 34.929C37.1843 34.8272 37.0091 34.6757 36.8718 34.4744C36.7345 34.2732 36.6658 34.0234 36.6658 33.7251V28.2386ZM39.8983 35V29.5455H40.5339V35H39.8983ZM40.2214 28.608C40.0912 28.608 39.9799 28.5642 39.8876 28.4766C39.7953 28.3866 39.7491 28.2789 39.7491 28.1534C39.7491 28.0279 39.7953 27.9214 39.8876 27.8338C39.9799 27.7438 40.0912 27.6989 40.2214 27.6989C40.3516 27.6989 40.4629 27.7438 40.5552 27.8338C40.6475 27.9214 40.6937 28.0279 40.6937 28.1534C40.6937 28.2789 40.6475 28.3866 40.5552 28.4766C40.4629 28.5642 40.3516 28.608 40.2214 28.608ZM42.8377 31.5909V35H42.2056V29.5455H42.82V30.4013H42.8768C43.0046 30.1219 43.2035 29.8982 43.4734 29.7301C43.7456 29.5597 44.0818 29.4744 44.4819 29.4744C44.8488 29.4744 45.1708 29.5514 45.4478 29.7053C45.7272 29.8568 45.9438 30.0805 46.0977 30.3764C46.2539 30.6723 46.332 31.0357 46.332 31.4666V35H45.6999V31.5057C45.6999 31.0582 45.5745 30.7043 45.3235 30.4439C45.0749 30.1835 44.7411 30.0533 44.3221 30.0533C44.0356 30.0533 43.7811 30.1148 43.5586 30.2379C43.3361 30.361 43.1597 30.5386 43.0295 30.7706C42.9016 31.0002 42.8377 31.2737 42.8377 31.5909ZM50.0776 37.1591C49.7059 37.1591 49.3804 37.1106 49.101 37.0135C48.8217 36.9188 48.5861 36.7886 48.3944 36.6229C48.2026 36.4571 48.0534 36.2713 47.9469 36.0653L48.4654 35.7244C48.5435 35.8617 48.6477 35.9967 48.7779 36.1293C48.9105 36.2618 49.0821 36.3719 49.2928 36.4595C49.5059 36.5471 49.7675 36.5909 50.0776 36.5909C50.5605 36.5909 50.95 36.4702 51.2459 36.2287C51.5442 35.9872 51.6934 35.612 51.6934 35.103V33.8743H51.6365C51.5632 34.04 51.4578 34.2057 51.3205 34.3714C51.1832 34.5348 51.0033 34.6709 50.7807 34.7798C50.5605 34.8887 50.2871 34.9432 49.9604 34.9432C49.5248 34.9432 49.1377 34.8355 48.7992 34.62C48.463 34.4046 48.1979 34.0968 48.0037 33.6967C47.812 33.2943 47.7161 32.8149 47.7161 32.2585C47.7161 31.7069 47.8096 31.2216 47.9966 30.8026C48.186 30.3835 48.45 30.0568 48.7885 29.8224C49.1271 29.5881 49.5212 29.4709 49.9711 29.4709C50.3049 29.4709 50.5819 29.5301 50.802 29.6484C51.0222 29.7644 51.1986 29.9089 51.3311 30.0817C51.4661 30.2545 51.5714 30.4226 51.6472 30.5859H51.7111V29.5455H52.329V35.142C52.329 35.6037 52.2308 35.9837 52.0343 36.282C51.8378 36.5803 51.5703 36.8004 51.2317 36.9425C50.8932 37.0869 50.5085 37.1591 50.0776 37.1591ZM50.035 34.3643C50.3854 34.3643 50.6848 34.2803 50.9334 34.1122C51.182 33.9418 51.3726 33.6979 51.5051 33.3807C51.6377 33.0634 51.704 32.6858 51.704 32.2479C51.704 31.8217 51.6389 31.4441 51.5087 31.1151C51.3785 30.7836 51.1891 30.5232 50.9405 30.3338C50.6943 30.142 50.3925 30.0462 50.035 30.0462C49.6704 30.0462 49.3626 30.1444 49.1117 30.3409C48.8607 30.5374 48.6713 30.8026 48.5435 31.1364C48.4157 31.4678 48.3517 31.8383 48.3517 32.2479C48.3517 32.6645 48.4168 33.0327 48.5471 33.3523C48.6773 33.6695 48.8678 33.9181 49.1188 34.098C49.3697 34.2756 49.6751 34.3643 50.035 34.3643ZM56.815 37.0455V29.5455H57.4293V30.5859H57.5039C57.5797 30.4226 57.6838 30.2557 57.8164 30.0852C57.949 29.9124 58.1242 29.7668 58.342 29.6484C58.5621 29.5301 58.8391 29.4709 59.1729 29.4709C59.6228 29.4709 60.0157 29.5893 60.3519 29.826C60.6905 30.0604 60.9532 30.3894 61.1403 30.8132C61.3297 31.2346 61.4244 31.7259 61.4244 32.2869C61.4244 32.8504 61.3297 33.344 61.1403 33.7678C60.9532 34.1915 60.6905 34.5218 60.3519 34.7585C60.0157 34.9953 59.6251 35.1136 59.18 35.1136C58.851 35.1136 58.5752 35.0545 58.3526 34.9361C58.1325 34.8177 57.9537 34.6721 57.8164 34.4993C57.6815 34.3241 57.5773 34.1536 57.5039 33.9879H57.4471V37.0455H56.815ZM57.44 32.2763C57.44 32.7166 57.5051 33.1072 57.6353 33.4482C57.7679 33.7867 57.9573 34.053 58.2035 34.2472C58.4521 34.4389 58.7527 34.5348 59.1055 34.5348C59.4677 34.5348 59.7731 34.4354 60.0217 34.2365C60.2726 34.0353 60.4632 33.7642 60.5934 33.4233C60.726 33.0824 60.7923 32.7 60.7923 32.2763C60.7923 31.8572 60.7272 31.4796 60.5969 31.1435C60.4691 30.8073 60.2797 30.541 60.0288 30.3445C59.7778 30.1456 59.4701 30.0462 59.1055 30.0462C58.7504 30.0462 58.4485 30.142 58.1999 30.3338C57.9513 30.5232 57.762 30.786 57.6317 31.1222C57.5039 31.456 57.44 31.8407 57.44 32.2763ZM63.4432 27.7273V35H62.8111V27.7273H63.4432ZM66.6392 35.1243C66.3101 35.1243 66.0095 35.0604 65.7372 34.9325C65.465 34.8023 65.2483 34.6153 65.0874 34.3714C64.9264 34.1252 64.8459 33.8269 64.8459 33.4766C64.8459 33.2067 64.8968 32.9794 64.9986 32.7947C65.1004 32.6101 65.2448 32.4586 65.4318 32.3402C65.6188 32.2218 65.8402 32.1283 66.0959 32.0597C66.3516 31.991 66.6333 31.9377 66.9411 31.8999C67.2464 31.862 67.5045 31.8288 67.7152 31.8004C67.9283 31.772 68.0904 31.727 68.2017 31.6655C68.313 31.6039 68.3686 31.5045 68.3686 31.3672V31.2393C68.3686 30.8677 68.2573 30.5753 68.0348 30.3622C67.8146 30.1468 67.4974 30.0391 67.0831 30.0391C66.6901 30.0391 66.3693 30.1255 66.1207 30.2983C65.8745 30.4711 65.7017 30.6747 65.6023 30.9091L65.0021 30.6925C65.1252 30.3942 65.2957 30.1562 65.5135 29.9787C65.7313 29.7988 65.9751 29.6697 66.245 29.5916C66.5149 29.5111 66.7884 29.4709 67.0653 29.4709C67.2737 29.4709 67.4903 29.4981 67.7152 29.5526C67.9425 29.607 68.1532 29.7017 68.3473 29.8366C68.5414 29.9692 68.6989 30.1551 68.8196 30.3942C68.9403 30.6309 69.0007 30.9316 69.0007 31.2962V35H68.3686V34.1371H68.3295C68.2538 34.2981 68.1413 34.4543 67.9922 34.6058C67.843 34.7573 67.656 34.8816 67.4311 34.9787C67.2062 35.0758 66.9422 35.1243 66.6392 35.1243ZM66.7244 34.5455C67.0606 34.5455 67.3518 34.4709 67.598 34.3217C67.8442 34.1726 68.0336 33.9749 68.1662 33.7287C68.3011 33.4801 68.3686 33.2067 68.3686 32.9084V32.12C68.3213 32.165 68.242 32.2053 68.1307 32.2408C68.0218 32.2763 67.8951 32.3082 67.7507 32.3366C67.6087 32.3627 67.4666 32.3852 67.3246 32.4041C67.1825 32.4231 67.0547 32.4396 66.9411 32.4538C66.6333 32.4917 66.3705 32.5509 66.1527 32.6314C65.9349 32.7119 65.768 32.8232 65.652 32.9652C65.536 33.1049 65.478 33.2848 65.478 33.505C65.478 33.8364 65.5964 34.0933 65.8331 34.2756C66.0698 34.4555 66.367 34.5455 66.7244 34.5455ZM72.8306 29.5455V30.0959H70.2276V29.5455H72.8306ZM71.0408 28.2386H71.6765V33.576C71.6765 33.8033 71.7156 33.982 71.7937 34.1122C71.8718 34.2401 71.9736 34.3312 72.0991 34.3857C72.2246 34.4377 72.3583 34.4638 72.5004 34.4638C72.5832 34.4638 72.6542 34.459 72.7134 34.4496C72.7726 34.4377 72.8247 34.4259 72.8697 34.4141L73.0046 34.9858C72.9431 35.0095 72.8673 35.0308 72.7773 35.0497C72.6874 35.071 72.5761 35.0817 72.4435 35.0817C72.2115 35.0817 71.9878 35.0308 71.7724 34.929C71.5593 34.8272 71.3841 34.6757 71.2468 34.4744C71.1095 34.2732 71.0408 34.0234 71.0408 33.7251V28.2386ZM76.5105 29.5455V30.0959H73.8294V29.5455H76.5105ZM74.6674 35V28.7464C74.6674 28.4529 74.7349 28.2055 74.8699 28.0043C75.0072 27.803 75.1859 27.6503 75.4061 27.5462C75.6262 27.442 75.8594 27.3899 76.1056 27.3899C76.2714 27.3899 76.4087 27.4041 76.5176 27.4325C76.6288 27.4586 76.7164 27.4846 76.7804 27.5107L76.5957 28.0646C76.5484 28.0504 76.4904 28.0339 76.4217 28.0149C76.353 27.996 76.2666 27.9865 76.1625 27.9865C75.8878 27.9865 75.676 28.0634 75.5268 28.2173C75.3777 28.3712 75.3031 28.5914 75.3031 28.8778L75.2995 35H74.6674ZM79.6674 35.1136C79.1963 35.1136 78.7797 34.9941 78.4174 34.755C78.0576 34.5159 77.7759 34.1856 77.5723 33.7642C77.3687 33.3404 77.2669 32.8516 77.2669 32.2976C77.2669 31.7389 77.3687 31.2476 77.5723 30.8239C77.7759 30.3977 78.0576 30.0663 78.4174 29.8295C78.7797 29.5904 79.1963 29.4709 79.6674 29.4709C80.1386 29.4709 80.554 29.5904 80.9139 29.8295C81.2737 30.0687 81.5555 30.4001 81.7591 30.8239C81.965 31.2476 82.068 31.7389 82.068 32.2976C82.068 32.8516 81.9662 33.3404 81.7626 33.7642C81.559 34.1856 81.2761 34.5159 80.9139 34.755C80.554 34.9941 80.1386 35.1136 79.6674 35.1136ZM79.6674 34.5348C80.0462 34.5348 80.367 34.433 80.6298 34.2294C80.8926 34.0258 81.0914 33.7547 81.2264 33.4162C81.3637 33.0777 81.4324 32.7048 81.4324 32.2976C81.4324 31.8904 81.3637 31.5163 81.2264 31.1754C81.0914 30.8345 80.8926 30.5611 80.6298 30.3551C80.367 30.1491 80.0462 30.0462 79.6674 30.0462C79.291 30.0462 78.9702 30.1491 78.7051 30.3551C78.4423 30.5611 78.2422 30.8345 78.1049 31.1754C77.97 31.5163 77.9025 31.8904 77.9025 32.2976C77.9025 32.7048 77.97 33.0777 78.1049 33.4162C78.2422 33.7547 78.4423 34.0258 78.7051 34.2294C78.9679 34.433 79.2886 34.5348 79.6674 34.5348ZM83.4556 35V29.5455H84.07V30.3835H84.1161C84.225 30.1089 84.4144 29.8875 84.6843 29.7195C84.9566 29.549 85.2643 29.4638 85.6076 29.4638C85.6597 29.4638 85.7177 29.465 85.7816 29.4673C85.8455 29.4697 85.8988 29.4721 85.9414 29.4744V30.1172C85.913 30.1125 85.8633 30.1054 85.7923 30.0959C85.7212 30.0864 85.6443 30.0817 85.5614 30.0817C85.2773 30.0817 85.024 30.142 84.8015 30.2628C84.5813 30.3812 84.4073 30.5457 84.2795 30.7564C84.1516 30.9671 84.0877 31.2074 84.0877 31.4773V35H83.4556ZM87.0201 35V29.5455H87.6344V30.3835H87.6912C87.8001 30.1018 87.9812 29.8804 88.2346 29.7195C88.4902 29.5561 88.7968 29.4744 89.1543 29.4744C89.5307 29.4744 89.8397 29.5632 90.0811 29.7408C90.325 29.916 90.5073 30.1574 90.628 30.4652H90.6742C90.7973 30.1622 90.9973 29.9219 91.2743 29.7443C91.5537 29.5644 91.8922 29.4744 92.29 29.4744C92.7966 29.4744 93.1967 29.6342 93.4902 29.9538C93.7838 30.2711 93.9306 30.7351 93.9306 31.3459V35H93.2985V31.3459C93.2985 30.915 93.1884 30.5919 92.9682 30.3764C92.748 30.161 92.458 30.0533 92.0982 30.0533C91.6815 30.0533 91.3607 30.1811 91.1358 30.4368C90.9109 30.6925 90.7985 31.0168 90.7985 31.4098V35H90.1522V31.2891C90.1522 30.9197 90.0492 30.6214 89.8432 30.3942C89.6373 30.1669 89.3472 30.0533 88.9732 30.0533C88.7222 30.0533 88.4962 30.1148 88.2949 30.2379C88.0961 30.361 87.9386 30.5327 87.8226 30.7528C87.709 30.9706 87.6522 31.2216 87.6522 31.5057V35H87.0201ZM99.2688 30.7422L98.69 30.9055C98.6332 30.7422 98.5527 30.5942 98.4485 30.4616C98.3443 30.3291 98.2082 30.2237 98.0401 30.1456C97.8744 30.0675 97.6684 30.0284 97.4222 30.0284C97.0529 30.0284 96.7499 30.116 96.5131 30.2912C96.2764 30.4664 96.158 30.6925 96.158 30.9695C96.158 31.2038 96.2385 31.3944 96.3995 31.5412C96.5629 31.6856 96.8138 31.8004 97.1523 31.8857L97.9762 32.0881C98.4331 32.1993 98.7752 32.3757 99.0025 32.6172C99.2321 32.8587 99.3469 33.1617 99.3469 33.5263C99.3469 33.834 99.2617 34.1075 99.0913 34.3466C98.9208 34.5857 98.6829 34.7739 98.3775 34.9112C98.0745 35.0462 97.7229 35.1136 97.3228 35.1136C96.7901 35.1136 96.351 34.9941 96.0053 34.755C95.6597 34.5135 95.4383 34.1655 95.3413 33.7109L95.9485 33.5618C96.0266 33.8861 96.1793 34.1312 96.4066 34.2969C96.6362 34.4626 96.9381 34.5455 97.3121 34.5455C97.7312 34.5455 98.0662 34.4519 98.3171 34.2649C98.5681 34.0755 98.6935 33.8388 98.6935 33.5547C98.6935 33.3345 98.6201 33.1499 98.4734 33.0007C98.3266 32.8492 98.104 32.7379 97.8058 32.6669L96.9144 32.4538C96.4409 32.3402 96.0906 32.1603 95.8633 31.9141C95.636 31.6679 95.5224 31.3625 95.5224 30.9979C95.5224 30.6972 95.604 30.4332 95.7674 30.206C95.9308 29.9763 96.1557 29.7964 96.4421 29.6662C96.7286 29.536 97.0553 29.4709 97.4222 29.4709C97.9218 29.4709 98.3207 29.5845 98.619 29.8118C98.9196 30.0367 99.1362 30.3468 99.2688 30.7422ZM27.3823 47.1136C26.9348 47.1136 26.543 46.9953 26.2069 46.7585C25.8707 46.5218 25.6079 46.1915 25.4185 45.7678C25.2315 45.344 25.138 44.8504 25.138 44.2869C25.138 43.7259 25.2315 43.2346 25.4185 42.8132C25.6079 42.3894 25.8719 42.0604 26.2104 41.826C26.5489 41.5893 26.9431 41.4709 27.3929 41.4709C27.7244 41.4709 28.0002 41.5301 28.2203 41.6484C28.4405 41.7644 28.6169 41.9089 28.7495 42.0817C28.882 42.2545 28.985 42.4226 29.0584 42.5859H29.1152V39.7273H29.7509V47H29.133V45.9879H29.0584C28.985 46.1536 28.8809 46.3241 28.7459 46.4993C28.611 46.6721 28.4322 46.8177 28.2097 46.9361C27.9895 47.0545 27.7137 47.1136 27.3823 47.1136ZM27.4569 46.5348C27.8096 46.5348 28.1103 46.4389 28.3588 46.2472C28.6074 46.053 28.7968 45.7867 28.927 45.4482C29.0596 45.1072 29.1259 44.7166 29.1259 44.2763C29.1259 43.8407 29.0608 43.456 28.9306 43.1222C28.8004 42.786 28.611 42.5232 28.3624 42.3338C28.1138 42.142 27.812 42.0462 27.4569 42.0462C27.0923 42.0462 26.7845 42.1456 26.5336 42.3445C26.285 42.541 26.0956 42.8073 25.9654 43.1435C25.8375 43.4796 25.7736 43.8572 25.7736 44.2763C25.7736 44.7 25.8387 45.0824 25.9689 45.4233C26.0991 45.7642 26.2885 46.0353 26.5371 46.2365C26.7881 46.4354 27.0946 46.5348 27.4569 46.5348ZM33.6713 47.1136C33.2002 47.1136 32.7836 46.9941 32.4213 46.755C32.0615 46.5159 31.7798 46.1856 31.5762 45.7642C31.3726 45.3404 31.2708 44.8516 31.2708 44.2976C31.2708 43.7389 31.3726 43.2476 31.5762 42.8239C31.7798 42.3977 32.0615 42.0663 32.4213 41.8295C32.7836 41.5904 33.2002 41.4709 33.6713 41.4709C34.1425 41.4709 34.5579 41.5904 34.9178 41.8295C35.2776 42.0687 35.5594 42.4001 35.763 42.8239C35.9689 43.2476 36.0719 43.7389 36.0719 44.2976C36.0719 44.8516 35.9701 45.3404 35.7665 45.7642C35.5629 46.1856 35.28 46.5159 34.9178 46.755C34.5579 46.9941 34.1425 47.1136 33.6713 47.1136ZM33.6713 46.5348C34.0501 46.5348 34.3709 46.433 34.6337 46.2294C34.8965 46.0258 35.0953 45.7547 35.2303 45.4162C35.3676 45.0777 35.4363 44.7048 35.4363 44.2976C35.4363 43.8904 35.3676 43.5163 35.2303 43.1754C35.0953 42.8345 34.8965 42.5611 34.6337 42.3551C34.3709 42.1491 34.0501 42.0462 33.6713 42.0462C33.2949 42.0462 32.9741 42.1491 32.709 42.3551C32.4462 42.5611 32.2462 42.8345 32.1088 43.1754C31.9739 43.5163 31.9064 43.8904 31.9064 44.2976C31.9064 44.7048 31.9739 45.0777 32.1088 45.4162C32.2462 45.7547 32.4462 46.0258 32.709 46.2294C32.9718 46.433 33.2926 46.5348 33.6713 46.5348ZM38.0916 43.5909V47H37.4595V41.5455H38.0739V42.4013H38.1307C38.2585 42.1219 38.4574 41.8982 38.7273 41.7301C38.9995 41.5597 39.3357 41.4744 39.7358 41.4744C40.1027 41.4744 40.4247 41.5514 40.7017 41.7053C40.9811 41.8568 41.1977 42.0805 41.3516 42.3764C41.5078 42.6723 41.5859 43.0357 41.5859 43.4666V47H40.9538V43.5057C40.9538 43.0582 40.8284 42.7043 40.5774 42.4439C40.3288 42.1835 39.995 42.0533 39.576 42.0533C39.2895 42.0533 39.035 42.1148 38.8125 42.2379C38.59 42.361 38.4136 42.5386 38.2834 42.7706C38.1555 43.0002 38.0916 43.2737 38.0916 43.5909ZM43.8258 39.7273V40.3665C43.8258 40.5606 43.7903 40.7678 43.7193 40.9879C43.6506 41.2057 43.5488 41.4176 43.4139 41.6236C43.2813 41.8272 43.1203 42.0047 42.9309 42.1562L42.5865 41.8544C42.764 41.6461 42.9144 41.4152 43.0375 41.1619C43.1606 40.9062 43.2221 40.6446 43.2221 40.3771V39.7273H43.8258ZM47.2935 41.5455V42.0959H44.6905V41.5455H47.2935ZM45.5037 40.2386H46.1394V45.576C46.1394 45.8033 46.1784 45.982 46.2566 46.1122C46.3347 46.2401 46.4365 46.3312 46.562 46.3857C46.6874 46.4377 46.8212 46.4638 46.9632 46.4638C47.0461 46.4638 47.1171 46.459 47.1763 46.4496C47.2355 46.4377 47.2876 46.4259 47.3326 46.4141L47.4675 46.9858C47.406 47.0095 47.3302 47.0308 47.2402 47.0497C47.1503 47.071 47.039 47.0817 46.9064 47.0817C46.6744 47.0817 46.4507 47.0308 46.2353 46.929C46.0222 46.8272 45.847 46.6757 45.7097 46.4744C45.5724 46.2732 45.5037 46.0234 45.5037 45.7251V40.2386ZM52.1737 43.5909V47H51.5415V39.7273H52.1737V42.4013H52.2305C52.3583 42.1196 52.556 41.8946 52.8235 41.7266C53.0934 41.5585 53.4343 41.4744 53.8462 41.4744C54.2156 41.4744 54.5399 41.5502 54.8192 41.7017C55.0986 41.8532 55.3164 42.0769 55.4727 42.3729C55.6289 42.6688 55.707 43.0334 55.707 43.4666V47H55.0714V43.5057C55.0714 43.0559 54.9459 42.7019 54.695 42.4439C54.4464 42.1835 54.1102 42.0533 53.6864 42.0533C53.3952 42.0533 53.136 42.1148 52.9087 42.2379C52.6815 42.361 52.5015 42.5386 52.369 42.7706C52.2388 43.0002 52.1737 43.2737 52.1737 43.5909ZM58.8951 47.1243C58.566 47.1243 58.2653 47.0604 57.9931 46.9325C57.7208 46.8023 57.5042 46.6153 57.3432 46.3714C57.1822 46.1252 57.1017 45.8269 57.1017 45.4766C57.1017 45.2067 57.1526 44.9794 57.2544 44.7947C57.3562 44.6101 57.5007 44.4586 57.6877 44.3402C57.8747 44.2218 58.0961 44.1283 58.3517 44.0597C58.6074 43.991 58.8891 43.9377 59.1969 43.8999C59.5023 43.862 59.7604 43.8288 59.9711 43.8004C60.1841 43.772 60.3463 43.727 60.4576 43.6655C60.5688 43.6039 60.6245 43.5045 60.6245 43.3672V43.2393C60.6245 42.8677 60.5132 42.5753 60.2907 42.3622C60.0705 42.1468 59.7533 42.0391 59.339 42.0391C58.946 42.0391 58.6252 42.1255 58.3766 42.2983C58.1304 42.4711 57.9576 42.6747 57.8581 42.9091L57.258 42.6925C57.3811 42.3942 57.5516 42.1562 57.7694 41.9787C57.9872 41.7988 58.231 41.6697 58.5009 41.5916C58.7708 41.5111 59.0442 41.4709 59.3212 41.4709C59.5295 41.4709 59.7462 41.4981 59.9711 41.5526C60.1983 41.607 60.409 41.7017 60.6032 41.8366C60.7973 41.9692 60.9547 42.1551 61.0755 42.3942C61.1962 42.6309 61.2566 42.9316 61.2566 43.2962V47H60.6245V46.1371H60.5854C60.5096 46.2981 60.3972 46.4543 60.248 46.6058C60.0989 46.7573 59.9119 46.8816 59.687 46.9787C59.4621 47.0758 59.1981 47.1243 58.8951 47.1243ZM58.9803 46.5455C59.3165 46.5455 59.6077 46.4709 59.8539 46.3217C60.1001 46.1726 60.2895 45.9749 60.4221 45.7287C60.557 45.4801 60.6245 45.2067 60.6245 44.9084V44.12C60.5771 44.165 60.4978 44.2053 60.3865 44.2408C60.2776 44.2763 60.151 44.3082 60.0066 44.3366C59.8645 44.3627 59.7225 44.3852 59.5804 44.4041C59.4384 44.4231 59.3105 44.4396 59.1969 44.4538C58.8891 44.4917 58.6264 44.5509 58.4086 44.6314C58.1908 44.7119 58.0239 44.8232 57.9078 44.9652C57.7918 45.1049 57.7338 45.2848 57.7338 45.505C57.7338 45.8364 57.8522 46.0933 58.089 46.2756C58.3257 46.4555 58.6228 46.5455 58.9803 46.5455ZM66.965 41.5455L64.9728 47H64.2981L62.3059 41.5455H62.9913L64.6106 46.1655H64.6603L66.2797 41.5455H66.965ZM70.2116 47.1136C69.7027 47.1136 69.2623 46.9953 68.8906 46.7585C68.5189 46.5194 68.2313 46.1892 68.0277 45.7678C67.8265 45.344 67.7259 44.8563 67.7259 44.3047C67.7259 43.7554 67.8265 43.2678 68.0277 42.8416C68.2313 42.4131 68.5118 42.0781 68.8693 41.8366C69.2292 41.5928 69.6446 41.4709 70.1158 41.4709C70.4117 41.4709 70.697 41.5253 70.9716 41.6342C71.2462 41.7408 71.4924 41.9053 71.7102 42.1278C71.9304 42.348 72.1044 42.6262 72.2322 42.9624C72.3601 43.2962 72.424 43.6915 72.424 44.1484V44.4609H68.1626V43.9034H71.7777C71.7777 43.553 71.7067 43.2382 71.5646 42.9588C71.425 42.6771 71.2296 42.4545 70.9787 42.2912C70.7301 42.1278 70.4425 42.0462 70.1158 42.0462C69.7701 42.0462 69.4659 42.1385 69.2031 42.3232C68.9403 42.5078 68.7344 42.7517 68.5852 43.0547C68.4384 43.3577 68.3639 43.6892 68.3615 44.049V44.3828C68.3615 44.8161 68.4361 45.1948 68.5852 45.5192C68.7367 45.8411 68.951 46.0909 69.228 46.2685C69.505 46.446 69.8329 46.5348 70.2116 46.5348C70.4697 46.5348 70.6958 46.4946 70.8899 46.4141C71.0864 46.3336 71.2509 46.2259 71.3835 46.0909C71.5185 45.9536 71.6203 45.8033 71.6889 45.6399L72.2891 45.8352C72.2062 46.0649 72.0701 46.2768 71.8807 46.4709C71.6937 46.665 71.4593 46.8213 71.1776 46.9396C70.8982 47.0556 70.5762 47.1136 70.2116 47.1136ZM78.1529 47.1243C77.8238 47.1243 77.5231 47.0604 77.2509 46.9325C76.9786 46.8023 76.762 46.6153 76.601 46.3714C76.44 46.1252 76.3596 45.8269 76.3596 45.4766C76.3596 45.2067 76.4105 44.9794 76.5123 44.7947C76.6141 44.6101 76.7585 44.4586 76.9455 44.3402C77.1325 44.2218 77.3539 44.1283 77.6096 44.0597C77.8652 43.991 78.147 43.9377 78.4547 43.8999C78.7601 43.862 79.0182 43.8288 79.2289 43.8004C79.4419 43.772 79.6041 43.727 79.7154 43.6655C79.8266 43.6039 79.8823 43.5045 79.8823 43.3672V43.2393C79.8823 42.8677 79.771 42.5753 79.5485 42.3622C79.3283 42.1468 79.0111 42.0391 78.5968 42.0391C78.2038 42.0391 77.883 42.1255 77.6344 42.2983C77.3882 42.4711 77.2154 42.6747 77.1159 42.9091L76.5158 42.6925C76.6389 42.3942 76.8094 42.1562 77.0272 41.9787C77.245 41.7988 77.4888 41.6697 77.7587 41.5916C78.0286 41.5111 78.302 41.4709 78.579 41.4709C78.7873 41.4709 79.004 41.4981 79.2289 41.5526C79.4561 41.607 79.6668 41.7017 79.861 41.8366C80.0551 41.9692 80.2125 42.1551 80.3333 42.3942C80.454 42.6309 80.5144 42.9316 80.5144 43.2962V47H79.8823V46.1371H79.8432C79.7675 46.2981 79.655 46.4543 79.5059 46.6058C79.3567 46.7573 79.1697 46.8816 78.9448 46.9787C78.7199 47.0758 78.4559 47.1243 78.1529 47.1243ZM78.2381 46.5455C78.5743 46.5455 78.8655 46.4709 79.1117 46.3217C79.3579 46.1726 79.5473 45.9749 79.6799 45.7287C79.8148 45.4801 79.8823 45.2067 79.8823 44.9084V44.12C79.8349 44.165 79.7556 44.2053 79.6444 44.2408C79.5355 44.2763 79.4088 44.3082 79.2644 44.3366C79.1223 44.3627 78.9803 44.3852 78.8382 44.4041C78.6962 44.4231 78.5684 44.4396 78.4547 44.4538C78.147 44.4917 77.8842 44.5509 77.6664 44.6314C77.4486 44.7119 77.2817 44.8232 77.1657 44.9652C77.0497 45.1049 76.9917 45.2848 76.9917 45.505C76.9917 45.8364 77.11 46.0933 77.3468 46.2756C77.5835 46.4555 77.8806 46.5455 78.2381 46.5455ZM82.8279 43.5909V47H82.1958V41.5455H82.8102V42.4013H82.867C82.9949 42.1219 83.1937 41.8982 83.4636 41.7301C83.7359 41.5597 84.072 41.4744 84.4721 41.4744C84.8391 41.4744 85.161 41.5514 85.438 41.7053C85.7174 41.8568 85.934 42.0805 86.0879 42.3764C86.2441 42.6723 86.3223 43.0357 86.3223 43.4666V47H85.6902V43.5057C85.6902 43.0582 85.5647 42.7043 85.3137 42.4439C85.0652 42.1835 84.7314 42.0533 84.3123 42.0533C84.0259 42.0533 83.7714 42.1148 83.5488 42.2379C83.3263 42.361 83.1499 42.5386 83.0197 42.7706C82.8919 43.0002 82.8279 43.2737 82.8279 43.5909ZM88.2319 49.0455C88.1064 49.0455 87.9892 49.0336 87.8803 49.0099C87.7714 48.9863 87.685 48.9602 87.6211 48.9318L87.7915 48.3743C88.007 48.4406 88.1987 48.4643 88.3668 48.4453C88.5349 48.4287 88.6841 48.353 88.8143 48.218C88.9445 48.0855 89.0605 47.8819 89.1623 47.6072L89.3612 47.0533L87.3548 41.5455H88.0401L89.6594 46.1655H89.7092L91.3285 41.5455H92.0138L89.7056 47.8629C89.6085 48.1257 89.489 48.3447 89.3469 48.5199C89.2049 48.6974 89.0404 48.8288 88.8533 48.9141C88.6687 49.0017 88.4615 49.0455 88.2319 49.0455ZM24.097 59.1136C23.6093 59.1136 23.1844 58.9917 22.8222 58.7479C22.4623 58.504 22.183 58.1702 21.9841 57.7464C21.7852 57.3227 21.6858 56.8397 21.6858 56.2976C21.6858 55.7507 21.7864 55.2642 21.9877 54.8381C22.1913 54.4119 22.473 54.0781 22.8328 53.8366C23.1927 53.5928 23.6105 53.4709 24.0864 53.4709C24.451 53.4709 24.7812 53.5419 25.0771 53.6839C25.3731 53.8236 25.6169 54.0213 25.8087 54.277C26.0028 54.5303 26.1247 54.8262 26.1744 55.1648H25.5352C25.469 54.857 25.3092 54.5942 25.0558 54.3764C24.8049 54.1562 24.4853 54.0462 24.097 54.0462C23.749 54.0462 23.4413 54.1409 23.1737 54.3303C22.9062 54.5173 22.6967 54.7789 22.5452 55.1151C22.396 55.4489 22.3215 55.8359 22.3215 56.2763C22.3215 56.719 22.3949 57.1108 22.5416 57.4517C22.6884 57.7902 22.8944 58.0554 23.1595 58.2472C23.4271 58.4389 23.7396 58.5348 24.097 58.5348C24.3385 58.5348 24.5587 58.4898 24.7575 58.3999C24.9588 58.3075 25.1269 58.1773 25.2618 58.0092C25.3991 57.8411 25.4914 57.6411 25.5388 57.4091H26.178C26.1307 57.7382 26.0135 58.0317 25.8264 58.2898C25.6418 58.5455 25.4015 58.7467 25.1056 58.8935C24.812 59.0402 24.4758 59.1136 24.097 59.1136ZM29.6528 59.1136C29.1817 59.1136 28.765 58.9941 28.4028 58.755C28.0429 58.5159 27.7612 58.1856 27.5576 57.7642C27.354 57.3404 27.2522 56.8516 27.2522 56.2976C27.2522 55.7389 27.354 55.2476 27.5576 54.8239C27.7612 54.3977 28.0429 54.0663 28.4028 53.8295C28.765 53.5904 29.1817 53.4709 29.6528 53.4709C30.1239 53.4709 30.5394 53.5904 30.8992 53.8295C31.2591 54.0687 31.5408 54.4001 31.7444 54.8239C31.9504 55.2476 32.0534 55.7389 32.0534 56.2976C32.0534 56.8516 31.9516 57.3404 31.748 57.7642C31.5444 58.1856 31.2615 58.5159 30.8992 58.755C30.5394 58.9941 30.1239 59.1136 29.6528 59.1136ZM29.6528 58.5348C30.0316 58.5348 30.3524 58.433 30.6151 58.2294C30.8779 58.0258 31.0768 57.7547 31.2117 57.4162C31.349 57.0777 31.4177 56.7048 31.4177 56.2976C31.4177 55.8904 31.349 55.5163 31.2117 55.1754C31.0768 54.8345 30.8779 54.5611 30.6151 54.3551C30.3524 54.1491 30.0316 54.0462 29.6528 54.0462C29.2764 54.0462 28.9556 54.1491 28.6904 54.3551C28.4276 54.5611 28.2276 54.8345 28.0903 55.1754C27.9553 55.5163 27.8879 55.8904 27.8879 56.2976C27.8879 56.7048 27.9553 57.0777 28.0903 57.4162C28.2276 57.7547 28.4276 58.0258 28.6904 58.2294C28.9532 58.433 29.274 58.5348 29.6528 58.5348ZM34.0731 55.5909V59H33.441V53.5455H34.0553V54.4013H34.1121C34.24 54.1219 34.4388 53.8982 34.7087 53.7301C34.981 53.5597 35.3171 53.4744 35.7172 53.4744C36.0842 53.4744 36.4062 53.5514 36.6831 53.7053C36.9625 53.8568 37.1791 54.0805 37.333 54.3764C37.4893 54.6723 37.5674 55.0357 37.5674 55.4666V59H36.9353V55.5057C36.9353 55.0582 36.8098 54.7043 36.5589 54.4439C36.3103 54.1835 35.9765 54.0533 35.5574 54.0533C35.271 54.0533 35.0165 54.1148 34.7939 54.2379C34.5714 54.361 34.395 54.5386 34.2648 54.7706C34.137 55.0002 34.0731 55.2737 34.0731 55.5909ZM39.8641 55.5909V59H39.232V53.5455H39.8463V54.4013H39.9031C40.031 54.1219 40.2298 53.8982 40.4997 53.7301C40.772 53.5597 41.1082 53.4744 41.5083 53.4744C41.8752 53.4744 42.1972 53.5514 42.4742 53.7053C42.7535 53.8568 42.9701 54.0805 43.124 54.3764C43.2803 54.6723 43.3584 55.0357 43.3584 55.4666V59H42.7263V55.5057C42.7263 55.0582 42.6008 54.7043 42.3499 54.4439C42.1013 54.1835 41.7675 54.0533 41.3485 54.0533C41.062 54.0533 40.8075 54.1148 40.585 54.2379C40.3624 54.361 40.1861 54.5386 40.0558 54.7706C39.928 55.0002 39.8641 55.2737 39.8641 55.5909ZM47.2282 59.1136C46.7193 59.1136 46.2789 58.9953 45.9072 58.7585C45.5355 58.5194 45.2479 58.1892 45.0443 57.7678C44.8431 57.344 44.7425 56.8563 44.7425 56.3047C44.7425 55.7554 44.8431 55.2678 45.0443 54.8416C45.2479 54.4131 45.5284 54.0781 45.8859 53.8366C46.2458 53.5928 46.6613 53.4709 47.1324 53.4709C47.4283 53.4709 47.7136 53.5253 47.9882 53.6342C48.2628 53.7408 48.509 53.9053 48.7268 54.1278C48.947 54.348 49.121 54.6262 49.2488 54.9624C49.3767 55.2962 49.4406 55.6915 49.4406 56.1484V56.4609H45.1792V55.9034H48.7943C48.7943 55.553 48.7233 55.2382 48.5812 54.9588C48.4416 54.6771 48.2462 54.4545 47.9953 54.2912C47.7467 54.1278 47.4591 54.0462 47.1324 54.0462C46.7867 54.0462 46.4825 54.1385 46.2197 54.3232C45.9569 54.5078 45.751 54.7517 45.6018 55.0547C45.455 55.3577 45.3805 55.6892 45.3781 56.049V56.3828C45.3781 56.8161 45.4527 57.1948 45.6018 57.5192C45.7533 57.8411 45.9676 58.0909 46.2446 58.2685C46.5216 58.446 46.8495 58.5348 47.2282 58.5348C47.4863 58.5348 47.7124 58.4946 47.9065 58.4141C48.103 58.3336 48.2675 58.2259 48.4001 58.0909C48.5351 57.9536 48.6369 57.8033 48.7055 57.6399L49.3057 57.8352C49.2228 58.0649 49.0867 58.2768 48.8973 58.4709C48.7103 58.665 48.4759 58.8213 48.1942 58.9396C47.9148 59.0556 47.5928 59.1136 47.2282 59.1136ZM52.9642 59.1136C52.4765 59.1136 52.0516 58.9917 51.6894 58.7479C51.3295 58.504 51.0502 58.1702 50.8513 57.7464C50.6524 57.3227 50.553 56.8397 50.553 56.2976C50.553 55.7507 50.6536 55.2642 50.8548 54.8381C51.0584 54.4119 51.3402 54.0781 51.7 53.8366C52.0599 53.5928 52.4777 53.4709 52.9536 53.4709C53.3182 53.4709 53.6484 53.5419 53.9443 53.6839C54.2403 53.8236 54.4841 54.0213 54.6759 54.277C54.87 54.5303 54.9919 54.8262 55.0416 55.1648H54.4024C54.3361 54.857 54.1763 54.5942 53.923 54.3764C53.6721 54.1562 53.3525 54.0462 52.9642 54.0462C52.6162 54.0462 52.3084 54.1409 52.0409 54.3303C51.7734 54.5173 51.5639 54.7789 51.4124 55.1151C51.2632 55.4489 51.1887 55.8359 51.1887 56.2763C51.1887 56.719 51.262 57.1108 51.4088 57.4517C51.5556 57.7902 51.7616 58.0554 52.0267 58.2472C52.2942 58.4389 52.6067 58.5348 52.9642 58.5348C53.2057 58.5348 53.4259 58.4898 53.6247 58.3999C53.826 58.3075 53.9941 58.1773 54.129 58.0092C54.2663 57.8411 54.3586 57.6411 54.406 57.4091H55.0452C54.9978 57.7382 54.8807 58.0317 54.6936 58.2898C54.509 58.5455 54.2687 58.7467 53.9727 58.8935C53.6792 59.0402 53.343 59.1136 52.9642 59.1136ZM58.5484 53.5455V54.0959H55.9454V53.5455H58.5484ZM56.7586 52.2386H57.3943V57.576C57.3943 57.8033 57.4333 57.982 57.5115 58.1122C57.5896 58.2401 57.6914 58.3312 57.8169 58.3857C57.9423 58.4377 58.0761 58.4638 58.2181 58.4638C58.301 58.4638 58.372 58.459 58.4312 58.4496C58.4904 58.4377 58.5425 58.4259 58.5874 58.4141L58.7224 58.9858C58.6608 59.0095 58.5851 59.0308 58.4951 59.0497C58.4052 59.071 58.2939 59.0817 58.1613 59.0817C57.9293 59.0817 57.7056 59.0308 57.4901 58.929C57.2771 58.8272 57.1019 58.6757 56.9646 58.4744C56.8273 58.2732 56.7586 58.0234 56.7586 57.7251V52.2386ZM59.991 59V53.5455H60.6267V59H59.991ZM60.3142 52.608C60.184 52.608 60.0727 52.5642 59.9804 52.4766C59.8881 52.3866 59.8419 52.2789 59.8419 52.1534C59.8419 52.0279 59.8881 51.9214 59.9804 51.8338C60.0727 51.7438 60.184 51.6989 60.3142 51.6989C60.4444 51.6989 60.5557 51.7438 60.648 51.8338C60.7403 51.9214 60.7865 52.0279 60.7865 52.1534C60.7865 52.2789 60.7403 52.3866 60.648 52.4766C60.5557 52.5642 60.4444 52.608 60.3142 52.608ZM64.4184 59.1136C63.9473 59.1136 63.5306 58.9941 63.1684 58.755C62.8086 58.5159 62.5268 58.1856 62.3232 57.7642C62.1196 57.3404 62.0178 56.8516 62.0178 56.2976C62.0178 55.7389 62.1196 55.2476 62.3232 54.8239C62.5268 54.3977 62.8086 54.0663 63.1684 53.8295C63.5306 53.5904 63.9473 53.4709 64.4184 53.4709C64.8895 53.4709 65.305 53.5904 65.6649 53.8295C66.0247 54.0687 66.3064 54.4001 66.51 54.8239C66.716 55.2476 66.819 55.7389 66.819 56.2976C66.819 56.8516 66.7172 57.3404 66.5136 57.7642C66.31 58.1856 66.0271 58.5159 65.6649 58.755C65.305 58.9941 64.8895 59.1136 64.4184 59.1136ZM64.4184 58.5348C64.7972 58.5348 65.118 58.433 65.3808 58.2294C65.6436 58.0258 65.8424 57.7547 65.9774 57.4162C66.1147 57.0777 66.1833 56.7048 66.1833 56.2976C66.1833 55.8904 66.1147 55.5163 65.9774 55.1754C65.8424 54.8345 65.6436 54.5611 65.3808 54.3551C65.118 54.1491 64.7972 54.0462 64.4184 54.0462C64.042 54.0462 63.7212 54.1491 63.4561 54.3551C63.1933 54.5611 62.9932 54.8345 62.8559 55.1754C62.721 55.5163 62.6535 55.8904 62.6535 56.2976C62.6535 56.7048 62.721 57.0777 62.8559 57.4162C62.9932 57.7547 63.1933 58.0258 63.4561 58.2294C63.7188 58.433 64.0396 58.5348 64.4184 58.5348ZM68.8387 55.5909V59H68.2066V53.5455H68.8209V54.4013H68.8778C69.0056 54.1219 69.2045 53.8982 69.4743 53.7301C69.7466 53.5597 70.0828 53.4744 70.4829 53.4744C70.8498 53.4744 71.1718 53.5514 71.4488 53.7053C71.7281 53.8568 71.9448 54.0805 72.0986 54.3764C72.2549 54.6723 72.333 55.0357 72.333 55.4666V59H71.7009V55.5057C71.7009 55.0582 71.5754 54.7043 71.3245 54.4439C71.0759 54.1835 70.7421 54.0533 70.3231 54.0533C70.0366 54.0533 69.7821 54.1148 69.5596 54.2379C69.337 54.361 69.1607 54.5386 69.0305 54.7706C68.9026 55.0002 68.8387 55.2737 68.8387 55.5909ZM78.021 59L76.3733 53.5455H77.0409L78.3335 58.0447H78.3797L79.6688 53.5455H80.3399L81.6183 58.0341H81.6681L82.9607 53.5455H83.6283L81.9806 59H81.3271L80.0345 54.5291H79.9671L78.6744 59H78.021ZM84.8641 59V53.5455H85.4997V59H84.8641ZM85.1872 52.608C85.057 52.608 84.9458 52.5642 84.8534 52.4766C84.7611 52.3866 84.7149 52.2789 84.7149 52.1534C84.7149 52.0279 84.7611 51.9214 84.8534 51.8338C84.9458 51.7438 85.057 51.6989 85.1872 51.6989C85.3174 51.6989 85.4287 51.7438 85.521 51.8338C85.6134 51.9214 85.6595 52.0279 85.6595 52.1534C85.6595 52.2789 85.6134 52.3866 85.521 52.4766C85.4287 52.5642 85.3174 52.608 85.1872 52.608ZM89.3199 53.5455V54.0959H86.7169V53.5455H89.3199ZM87.5301 52.2386H88.1657V57.576C88.1657 57.8033 88.2048 57.982 88.2829 58.1122C88.3611 58.2401 88.4629 58.3312 88.5883 58.3857C88.7138 58.4377 88.8476 58.4638 88.9896 58.4638C89.0725 58.4638 89.1435 58.459 89.2027 58.4496C89.2619 58.4377 89.314 58.4259 89.3589 58.4141L89.4939 58.9858C89.4323 59.0095 89.3566 59.0308 89.2666 59.0497C89.1766 59.071 89.0654 59.0817 88.9328 59.0817C88.7008 59.0817 88.4771 59.0308 88.2616 58.929C88.0486 58.8272 87.8734 58.6757 87.7361 58.4744C87.5988 58.2732 87.5301 58.0234 87.5301 57.7251V52.2386ZM91.5047 55.5909V59H90.8726V51.7273H91.5047V54.4013H91.5615C91.6894 54.1196 91.887 53.8946 92.1546 53.7266C92.4244 53.5585 92.7654 53.4744 93.1773 53.4744C93.5466 53.4744 93.8709 53.5502 94.1503 53.7017C94.4297 53.8532 94.6475 54.0769 94.8037 54.3729C94.96 54.6688 95.0381 55.0334 95.0381 55.4666V59H94.4024V55.5057C94.4024 55.0559 94.277 54.7019 94.026 54.4439C93.7774 54.1835 93.4413 54.0533 93.0175 54.0533C92.7263 54.0533 92.4671 54.1148 92.2398 54.2379C92.0125 54.361 91.8326 54.5386 91.7 54.7706C91.5698 55.0002 91.5047 55.2737 91.5047 55.5909ZM38.4458 65.5455V66.0959H35.8429V65.5455H38.4458ZM36.6561 64.2386H37.2917V69.576C37.2917 69.8033 37.3308 69.982 37.4089 70.1122C37.487 70.2401 37.5888 70.3312 37.7143 70.3857C37.8398 70.4377 37.9735 70.4638 38.1156 70.4638C38.1984 70.4638 38.2695 70.459 38.3287 70.4496C38.3878 70.4377 38.4399 70.4259 38.4849 70.4141L38.6199 70.9858C38.5583 71.0095 38.4825 71.0308 38.3926 71.0497C38.3026 71.071 38.1913 71.0817 38.0588 71.0817C37.8268 71.0817 37.603 71.0308 37.3876 70.929C37.1745 70.8272 36.9993 70.6757 36.862 70.4744C36.7247 70.2732 36.6561 70.0234 36.6561 69.7251V64.2386ZM40.6307 67.5909V71H39.9986V63.7273H40.6307V66.4013H40.6875C40.8153 66.1196 41.013 65.8946 41.2805 65.7266C41.5504 65.5585 41.8913 65.4744 42.3033 65.4744C42.6726 65.4744 42.9969 65.5502 43.2763 65.7017C43.5556 65.8532 43.7734 66.0769 43.9297 66.3729C44.0859 66.6688 44.1641 67.0334 44.1641 67.4666V71H43.5284V67.5057C43.5284 67.0559 43.4029 66.7019 43.152 66.4439C42.9034 66.1835 42.5672 66.0533 42.1435 66.0533C41.8523 66.0533 41.593 66.1148 41.3658 66.2379C41.1385 66.361 40.9586 66.5386 40.826 66.7706C40.6958 67.0002 40.6307 67.2737 40.6307 67.5909ZM48.0339 71.1136C47.5249 71.1136 47.0846 70.9953 46.7129 70.7585C46.3412 70.5194 46.0536 70.1892 45.85 69.7678C45.6487 69.344 45.5481 68.8563 45.5481 68.3047C45.5481 67.7554 45.6487 67.2678 45.85 66.8416C46.0536 66.4131 46.3341 66.0781 46.6916 65.8366C47.0514 65.5928 47.4669 65.4709 47.938 65.4709C48.234 65.4709 48.5192 65.5253 48.7939 65.6342C49.0685 65.7408 49.3147 65.9053 49.5325 66.1278C49.7527 66.348 49.9267 66.6262 50.0545 66.9624C50.1824 67.2962 50.2463 67.6915 50.2463 68.1484V68.4609H45.9849V67.9034H49.6C49.6 67.553 49.5289 67.2382 49.3869 66.9588C49.2472 66.6771 49.0519 66.4545 48.801 66.2912C48.5524 66.1278 48.2647 66.0462 47.938 66.0462C47.5924 66.0462 47.2882 66.1385 47.0254 66.3232C46.7626 66.5078 46.5566 66.7517 46.4075 67.0547C46.2607 67.3577 46.1861 67.6892 46.1838 68.049V68.3828C46.1838 68.8161 46.2583 69.1948 46.4075 69.5192C46.559 69.8411 46.7733 70.0909 47.0502 70.2685C47.3272 70.446 47.6551 70.5348 48.0339 70.5348C48.292 70.5348 48.5181 70.4946 48.7122 70.4141C48.9087 70.3336 49.0732 70.2259 49.2058 70.0909C49.3407 69.9536 49.4425 69.8033 49.5112 69.6399L50.1113 69.8352C50.0285 70.0649 49.8923 70.2768 49.7029 70.4709C49.5159 70.665 49.2815 70.8213 48.9998 70.9396C48.7205 71.0556 48.3985 71.1136 48.0339 71.1136ZM56.5717 71.1136C56.1006 71.1136 55.6839 70.9941 55.3217 70.755C54.9619 70.5159 54.6802 70.1856 54.4766 69.7642C54.273 69.3404 54.1712 68.8516 54.1712 68.2976C54.1712 67.7389 54.273 67.2476 54.4766 66.8239C54.6802 66.3977 54.9619 66.0663 55.3217 65.8295C55.6839 65.5904 56.1006 65.4709 56.5717 65.4709C57.0429 65.4709 57.4583 65.5904 57.8182 65.8295C58.178 66.0687 58.4598 66.4001 58.6634 66.8239C58.8693 67.2476 58.9723 67.7389 58.9723 68.2976C58.9723 68.8516 58.8705 69.3404 58.6669 69.7642C58.4633 70.1856 58.1804 70.5159 57.8182 70.755C57.4583 70.9941 57.0429 71.1136 56.5717 71.1136ZM56.5717 70.5348C56.9505 70.5348 57.2713 70.433 57.5341 70.2294C57.7969 70.0258 57.9957 69.7547 58.1307 69.4162C58.268 69.0777 58.3366 68.7048 58.3366 68.2976C58.3366 67.8904 58.268 67.5163 58.1307 67.1754C57.9957 66.8345 57.7969 66.5611 57.5341 66.3551C57.2713 66.1491 56.9505 66.0462 56.5717 66.0462C56.1953 66.0462 55.8745 66.1491 55.6094 66.3551C55.3466 66.5611 55.1465 66.8345 55.0092 67.1754C54.8743 67.5163 54.8068 67.8904 54.8068 68.2976C54.8068 68.7048 54.8743 69.0777 55.0092 69.4162C55.1465 69.7547 55.3466 70.0258 55.6094 70.2294C55.8722 70.433 56.1929 70.5348 56.5717 70.5348ZM60.992 67.5909V71H60.3599V65.5455H60.9743V66.4013H61.0311C61.1589 66.1219 61.3578 65.8982 61.6277 65.7301C61.8999 65.5597 62.2361 65.4744 62.6362 65.4744C63.0031 65.4744 63.3251 65.5514 63.6021 65.7053C63.8815 65.8568 64.0981 66.0805 64.252 66.3764C64.4082 66.6723 64.4863 67.0357 64.4863 67.4666V71H63.8542V67.5057C63.8542 67.0582 63.7288 66.7043 63.4778 66.4439C63.2292 66.1835 62.8954 66.0533 62.4764 66.0533C62.1899 66.0533 61.9354 66.1148 61.7129 66.2379C61.4904 66.361 61.314 66.5386 61.1838 66.7706C61.0559 67.0002 60.992 67.2737 60.992 67.5909ZM66.783 63.7273V71H66.1509V63.7273H66.783ZM68.4627 71V65.5455H69.0984V71H68.4627ZM68.7859 64.608C68.6557 64.608 68.5444 64.5642 68.4521 64.4766C68.3597 64.3866 68.3136 64.2789 68.3136 64.1534C68.3136 64.0279 68.3597 63.9214 68.4521 63.8338C68.5444 63.7438 68.6557 63.6989 68.7859 63.6989C68.9161 63.6989 69.0273 63.7438 69.1197 63.8338C69.212 63.9214 69.2582 64.0279 69.2582 64.1534C69.2582 64.2789 69.212 64.3866 69.1197 64.4766C69.0273 64.5642 68.9161 64.608 68.7859 64.608ZM71.4022 67.5909V71H70.7701V65.5455H71.3844V66.4013H71.4412C71.5691 66.1219 71.7679 65.8982 72.0378 65.7301C72.3101 65.5597 72.6462 65.4744 73.0463 65.4744C73.4133 65.4744 73.7353 65.5514 74.0123 65.7053C74.2916 65.8568 74.5082 66.0805 74.6621 66.3764C74.8184 66.6723 74.8965 67.0357 74.8965 67.4666V71H74.2644V67.5057C74.2644 67.0582 74.1389 66.7043 73.888 66.4439C73.6394 66.1835 73.3056 66.0533 72.8865 66.0533C72.6001 66.0533 72.3456 66.1148 72.123 66.2379C71.9005 66.361 71.7241 66.5386 71.5939 66.7706C71.4661 67.0002 71.4022 67.2737 71.4022 67.5909ZM78.7663 71.1136C78.2573 71.1136 77.817 70.9953 77.4453 70.7585C77.0736 70.5194 76.786 70.1892 76.5824 69.7678C76.3812 69.344 76.2805 68.8563 76.2805 68.3047C76.2805 67.7554 76.3812 67.2678 76.5824 66.8416C76.786 66.4131 77.0665 66.0781 77.424 65.8366C77.7839 65.5928 78.1993 65.4709 78.6705 65.4709C78.9664 65.4709 79.2517 65.5253 79.5263 65.6342C79.8009 65.7408 80.0471 65.9053 80.2649 66.1278C80.4851 66.348 80.6591 66.6262 80.7869 66.9624C80.9148 67.2962 80.9787 67.6915 80.9787 68.1484V68.4609H76.7173V67.9034H80.3324C80.3324 67.553 80.2614 67.2382 80.1193 66.9588C79.9796 66.6771 79.7843 66.4545 79.5334 66.2912C79.2848 66.1278 78.9972 66.0462 78.6705 66.0462C78.3248 66.0462 78.0206 66.1385 77.7578 66.3232C77.495 66.5078 77.2891 66.7517 77.1399 67.0547C76.9931 67.3577 76.9186 67.6892 76.9162 68.049V68.3828C76.9162 68.8161 76.9908 69.1948 77.1399 69.5192C77.2914 69.8411 77.5057 70.0909 77.7827 70.2685C78.0597 70.446 78.3875 70.5348 78.7663 70.5348C79.0244 70.5348 79.2505 70.4946 79.4446 70.4141C79.6411 70.3336 79.8056 70.2259 79.9382 70.0909C80.0732 69.9536 80.175 69.8033 80.2436 69.6399L80.8438 69.8352C80.7609 70.0649 80.6248 70.2768 80.4354 70.4709C80.2483 70.665 80.014 70.8213 79.7322 70.9396C79.4529 71.0556 79.1309 71.1136 78.7663 71.1136ZM35.6839 83.1136C35.1963 83.1136 34.7713 82.9917 34.4091 82.7479C34.0492 82.504 33.7699 82.1702 33.571 81.7464C33.3722 81.3227 33.2727 80.8397 33.2727 80.2976C33.2727 79.7507 33.3733 79.2642 33.5746 78.8381C33.7782 78.4119 34.0599 78.0781 34.4197 77.8366C34.7796 77.5928 35.1974 77.4709 35.6733 77.4709C36.0379 77.4709 36.3681 77.5419 36.6641 77.6839C36.96 77.8236 37.2038 78.0213 37.3956 78.277C37.5897 78.5303 37.7116 78.8262 37.7614 79.1648H37.1222C37.0559 78.857 36.8961 78.5942 36.6428 78.3764C36.3918 78.1562 36.0722 78.0462 35.6839 78.0462C35.3359 78.0462 35.0282 78.1409 34.7607 78.3303C34.4931 78.5173 34.2836 78.7789 34.1321 79.1151C33.983 79.4489 33.9084 79.8359 33.9084 80.2763C33.9084 80.719 33.9818 81.1108 34.1286 81.4517C34.2753 81.7902 34.4813 82.0554 34.7464 82.2472C35.014 82.4389 35.3265 82.5348 35.6839 82.5348C35.9254 82.5348 36.1456 82.4898 36.3445 82.3999C36.5457 82.3075 36.7138 82.1773 36.8487 82.0092C36.986 81.8411 37.0784 81.6411 37.1257 81.4091H37.7649C37.7176 81.7382 37.6004 82.0317 37.4134 82.2898C37.2287 82.5455 36.9884 82.7467 36.6925 82.8935C36.3989 83.0402 36.0627 83.1136 35.6839 83.1136ZM41.2397 83.1136C40.7686 83.1136 40.3519 82.9941 39.9897 82.755C39.6299 82.5159 39.3481 82.1856 39.1445 81.7642C38.9409 81.3404 38.8391 80.8516 38.8391 80.2976C38.8391 79.7389 38.9409 79.2476 39.1445 78.8239C39.3481 78.3977 39.6299 78.0663 39.9897 77.8295C40.3519 77.5904 40.7686 77.4709 41.2397 77.4709C41.7108 77.4709 42.1263 77.5904 42.4862 77.8295C42.846 78.0687 43.1277 78.4001 43.3313 78.8239C43.5373 79.2476 43.6403 79.7389 43.6403 80.2976C43.6403 80.8516 43.5385 81.3404 43.3349 81.7642C43.1313 82.1856 42.8484 82.5159 42.4862 82.755C42.1263 82.9941 41.7108 83.1136 41.2397 83.1136ZM41.2397 82.5348C41.6185 82.5348 41.9393 82.433 42.2021 82.2294C42.4648 82.0258 42.6637 81.7547 42.7987 81.4162C42.936 81.0777 43.0046 80.7048 43.0046 80.2976C43.0046 79.8904 42.936 79.5163 42.7987 79.1754C42.6637 78.8345 42.4648 78.5611 42.2021 78.3551C41.9393 78.1491 41.6185 78.0462 41.2397 78.0462C40.8633 78.0462 40.5425 78.1491 40.2773 78.3551C40.0146 78.5611 39.8145 78.8345 39.6772 79.1754C39.5423 79.5163 39.4748 79.8904 39.4748 80.2976C39.4748 80.7048 39.5423 81.0777 39.6772 81.4162C39.8145 81.7547 40.0146 82.0258 40.2773 82.2294C40.5401 82.433 40.8609 82.5348 41.2397 82.5348ZM45.0279 83V77.5455H45.6422V78.3835H45.699C45.8079 78.1018 45.9891 77.8804 46.2424 77.7195C46.498 77.5561 46.8046 77.4744 47.1621 77.4744C47.5385 77.4744 47.8475 77.5632 48.089 77.7408C48.3328 77.916 48.5151 78.1574 48.6358 78.4652H48.682C48.8051 78.1622 49.0051 77.9219 49.2821 77.7443C49.5615 77.5644 49.9 77.4744 50.2978 77.4744C50.8044 77.4744 51.2045 77.6342 51.498 77.9538C51.7916 78.2711 51.9384 78.7351 51.9384 79.3459V83H51.3063V79.3459C51.3063 78.915 51.1962 78.5919 50.976 78.3764C50.7559 78.161 50.4659 78.0533 50.106 78.0533C49.6893 78.0533 49.3685 78.1811 49.1436 78.4368C48.9187 78.6925 48.8063 79.0168 48.8063 79.4098V83H48.16V79.2891C48.16 78.9197 48.057 78.6214 47.851 78.3942C47.6451 78.1669 47.3551 78.0533 46.981 78.0533C46.7301 78.0533 46.504 78.1148 46.3027 78.2379C46.1039 78.361 45.9464 78.5327 45.8304 78.7528C45.7168 78.9706 45.66 79.2216 45.66 79.5057V83H45.0279ZM53.6119 83V77.5455H54.2262V78.3835H54.283C54.3919 78.1018 54.573 77.8804 54.8263 77.7195C55.082 77.5561 55.3886 77.4744 55.7461 77.4744C56.1225 77.4744 56.4315 77.5632 56.6729 77.7408C56.9168 77.916 57.0991 78.1574 57.2198 78.4652H57.266C57.3891 78.1622 57.5891 77.9219 57.8661 77.7443C58.1455 77.5644 58.484 77.4744 58.8817 77.4744C59.3884 77.4744 59.7885 77.6342 60.082 77.9538C60.3756 78.2711 60.5224 78.7351 60.5224 79.3459V83H59.8903V79.3459C59.8903 78.915 59.7802 78.5919 59.56 78.3764C59.3398 78.161 59.0498 78.0533 58.69 78.0533C58.2733 78.0533 57.9525 78.1811 57.7276 78.4368C57.5027 78.6925 57.3903 79.0168 57.3903 79.4098V83H56.744V79.2891C56.744 78.9197 56.641 78.6214 56.435 78.3942C56.229 78.1669 55.939 78.0533 55.565 78.0533C55.314 78.0533 55.0879 78.1148 54.8867 78.2379C54.6879 78.361 54.5304 78.5327 54.4144 78.7528C54.3008 78.9706 54.244 79.2216 54.244 79.5057V83H53.6119ZM65.6618 80.9155V77.5455H66.2939V83H65.6618V82.0945H65.612C65.4842 82.3738 65.2818 82.607 65.0048 82.794C64.7278 82.9787 64.3893 83.071 63.9892 83.071C63.6412 83.071 63.3322 82.9953 63.0623 82.8438C62.7924 82.6899 62.5806 82.465 62.4267 82.169C62.2728 81.8731 62.1958 81.5097 62.1958 81.0788V77.5455H62.8279V81.0398C62.8279 81.4659 62.9534 81.8092 63.2044 82.0696C63.4553 82.3277 63.7773 82.4567 64.1703 82.4567C64.4165 82.4567 64.6532 82.3975 64.8805 82.2791C65.1078 82.1607 65.2948 81.9879 65.4416 81.7607C65.5884 81.531 65.6618 81.2493 65.6618 80.9155ZM68.5994 79.5909V83H67.9673V77.5455H68.5817V78.4013H68.6385C68.7663 78.1219 68.9652 77.8982 69.2351 77.7301C69.5073 77.5597 69.8435 77.4744 70.2436 77.4744C70.6106 77.4744 70.9325 77.5514 71.2095 77.7053C71.4889 77.8568 71.7055 78.0805 71.8594 78.3764C72.0156 78.6723 72.0938 79.0357 72.0938 79.4666V83H71.4616V79.5057C71.4616 79.0582 71.3362 78.7043 71.0852 78.4439C70.8366 78.1835 70.5028 78.0533 70.0838 78.0533C69.7973 78.0533 69.5429 78.1148 69.3203 78.2379C69.0978 78.361 68.9214 78.5386 68.7912 78.7706C68.6634 79.0002 68.5994 79.2737 68.5994 79.5909ZM73.7654 83V77.5455H74.4011V83H73.7654ZM74.0886 76.608C73.9584 76.608 73.8471 76.5642 73.7548 76.4766C73.6625 76.3866 73.6163 76.2789 73.6163 76.1534C73.6163 76.0279 73.6625 75.9214 73.7548 75.8338C73.8471 75.7438 73.9584 75.6989 74.0886 75.6989C74.2188 75.6989 74.3301 75.7438 74.4224 75.8338C74.5147 75.9214 74.5609 76.0279 74.5609 76.1534C74.5609 76.2789 74.5147 76.3866 74.4224 76.4766C74.3301 76.5642 74.2188 76.608 74.0886 76.608ZM78.2212 77.5455V78.0959H75.6183V77.5455H78.2212ZM76.4315 76.2386H77.0671V81.576C77.0671 81.8033 77.1062 81.982 77.1843 82.1122C77.2624 82.2401 77.3642 82.3312 77.4897 82.3857C77.6152 82.4377 77.7489 82.4638 77.891 82.4638C77.9738 82.4638 78.0449 82.459 78.104 82.4496C78.1632 82.4377 78.2153 82.4259 78.2603 82.4141L78.3952 82.9858C78.3337 83.0095 78.2579 83.0308 78.168 83.0497C78.078 83.071 77.9667 83.0817 77.8342 83.0817C77.6022 83.0817 77.3784 83.0308 77.163 82.929C76.9499 82.8272 76.7747 82.6757 76.6374 82.4744C76.5001 82.2732 76.4315 82.0234 76.4315 81.7251V76.2386ZM80.0971 85.0455C79.9717 85.0455 79.8545 85.0336 79.7456 85.0099C79.6367 84.9863 79.5502 84.9602 79.4863 84.9318L79.6568 84.3743C79.8722 84.4406 80.064 84.4643 80.2321 84.4453C80.4002 84.4287 80.5493 84.353 80.6795 84.218C80.8097 84.0855 80.9257 83.8819 81.0275 83.6072L81.2264 83.0533L79.22 77.5455H79.9054L81.5247 82.1655H81.5744L83.1937 77.5455H83.8791L81.5708 83.8629C81.4738 84.1257 81.3542 84.3447 81.2122 84.5199C81.0701 84.6974 80.9056 84.8288 80.7186 84.9141C80.5339 85.0017 80.3268 85.0455 80.0971 85.0455Z" fill="#222222"/>
<defs>
<filter id="filter0_d_991_207" x="0" y="0" width="118" height="118" filterUnits="userSpaceOnUse" color-interpolation-filters="sRGB">
<feFlood flood-opacity="0" result="BackgroundImageFix"/>
<feColorMatrix in="SourceAlpha" type="matrix" values="0 0 0 0 0 0 0 0 0 0 0 0 0 0 0 0 0 0 127 0" result="hardAlpha"/>
<feOffset dy="4"/>
<feGaussianBlur stdDeviation="2"/>
<feComposite in2="hardAlpha" operator="out"/>
<feColorMatrix type="matrix" values="0 0 0 0 0 0 0 0 0 0 0 0 0 0 0 0 0 0 0.25 0"/>
<feBlend mode="normal" in2="BackgroundImageFix" result="effect1_dropShadow_991_207"/>
<feBlend mode="normal" in="SourceGraphic" in2="effect1_dropShadow_991_207" result="shape"/>
</filter>
</defs>
</svg>
