<svg width="118" height="118" viewBox="0 0 118 118" fill="none" xmlns="http://www.w3.org/2000/svg">
<g filter="url(#filter0_d_991_210)">
<rect x="4" width="110" height="110" fill="#C9C8D8" fill-opacity="0.5" shape-rendering="crispEdges"/>
</g>
<path d="M37.6102 43.5909V47H36.9781V39.7273H37.6102V42.4013H37.667C37.7948 42.1196 37.9925 41.8946 38.26 41.7266C38.5299 41.5585 38.8708 41.4744 39.2828 41.4744C39.6521 41.4744 39.9764 41.5502 40.2558 41.7017C40.5351 41.8532 40.7529 42.0769 40.9092 42.3729C41.0654 42.6688 41.1436 43.0334 41.1436 43.4666V47H40.5079V43.5057C40.5079 43.0559 40.3824 42.7019 40.1315 42.4439C39.8829 42.1835 39.5467 42.0533 39.123 42.0533C38.8318 42.0533 38.5725 42.1148 38.3453 42.2379C38.118 42.361 37.9381 42.5386 37.8055 42.7706C37.6753 43.0002 37.6102 43.2737 37.6102 43.5909ZM44.3316 47.1243C44.0025 47.1243 43.7019 47.0604 43.4296 46.9325C43.1573 46.8023 42.9407 46.6153 42.7797 46.3714C42.6188 46.1252 42.5383 45.8269 42.5383 45.4766C42.5383 45.2067 42.5892 44.9794 42.691 44.7947C42.7928 44.6101 42.9372 44.4586 43.1242 44.3402C43.3112 44.2218 43.5326 44.1283 43.7883 44.0597C44.0439 43.991 44.3257 43.9377 44.6334 43.8999C44.9388 43.862 45.1969 43.8288 45.4076 43.8004C45.6206 43.772 45.7828 43.727 45.8941 43.6655C46.0054 43.6039 46.061 43.5045 46.061 43.3672V43.2393C46.061 42.8677 45.9497 42.5753 45.7272 42.3622C45.507 42.1468 45.1898 42.0391 44.7755 42.0391C44.3825 42.0391 44.0617 42.1255 43.8131 42.2983C43.5669 42.4711 43.3941 42.6747 43.2947 42.9091L42.6945 42.6925C42.8176 42.3942 42.9881 42.1562 43.2059 41.9787C43.4237 41.7988 43.6675 41.6697 43.9374 41.5916C44.2073 41.5111 44.4807 41.4709 44.7577 41.4709C44.9661 41.4709 45.1827 41.4981 45.4076 41.5526C45.6349 41.607 45.8456 41.7017 46.0397 41.8366C46.2338 41.9692 46.3912 42.1551 46.512 42.3942C46.6327 42.6309 46.6931 42.9316 46.6931 43.2962V47H46.061V46.1371H46.0219C45.9462 46.2981 45.8337 46.4543 45.6846 46.6058C45.5354 46.7573 45.3484 46.8816 45.1235 46.9787C44.8986 47.0758 44.6346 47.1243 44.3316 47.1243ZM44.4168 46.5455C44.753 46.5455 45.0442 46.4709 45.2904 46.3217C45.5366 46.1726 45.726 45.9749 45.8586 45.7287C45.9935 45.4801 46.061 45.2067 46.061 44.9084V44.12C46.0136 44.165 45.9343 44.2053 45.8231 44.2408C45.7142 44.2763 45.5875 44.3082 45.4431 44.3366C45.301 44.3627 45.159 44.3852 45.017 44.4041C44.8749 44.4231 44.7471 44.4396 44.6334 44.4538C44.3257 44.4917 44.0629 44.5509 43.8451 44.6314C43.6273 44.7119 43.4604 44.8232 43.3444 44.9652C43.2284 45.1049 43.1704 45.2848 43.1704 45.505C43.1704 45.8364 43.2887 46.0933 43.5255 46.2756C43.7622 46.4555 44.0593 46.5455 44.4168 46.5455ZM52.4015 41.5455L50.4094 47H49.7346L47.7425 41.5455H48.4278L50.0471 46.1655H50.0969L51.7162 41.5455H52.4015ZM55.6482 47.1136C55.1392 47.1136 54.6988 46.9953 54.3271 46.7585C53.9555 46.5194 53.6678 46.1892 53.4642 45.7678C53.263 45.344 53.1624 44.8563 53.1624 44.3047C53.1624 43.7554 53.263 43.2678 53.4642 42.8416C53.6678 42.4131 53.9484 42.0781 54.3058 41.8366C54.6657 41.5928 55.0812 41.4709 55.5523 41.4709C55.8482 41.4709 56.1335 41.5253 56.4081 41.6342C56.6827 41.7408 56.9289 41.9053 57.1468 42.1278C57.3669 42.348 57.5409 42.6262 57.6688 42.9624C57.7966 43.2962 57.8605 43.6915 57.8605 44.1484V44.4609H53.5992V43.9034H57.2142C57.2142 43.553 57.1432 43.2382 57.0012 42.9588C56.8615 42.6771 56.6662 42.4545 56.4152 42.2912C56.1666 42.1278 55.879 42.0462 55.5523 42.0462C55.2066 42.0462 54.9024 42.1385 54.6396 42.3232C54.3769 42.5078 54.1709 42.7517 54.0218 43.0547C53.875 43.3577 53.8004 43.6892 53.798 44.049V44.3828C53.798 44.8161 53.8726 45.1948 54.0218 45.5192C54.1733 45.8411 54.3875 46.0909 54.6645 46.2685C54.9415 46.446 55.2694 46.5348 55.6482 46.5348C55.9062 46.5348 56.1323 46.4946 56.3264 46.4141C56.5229 46.3336 56.6875 46.2259 56.82 46.0909C56.955 45.9536 57.0568 45.8033 57.1254 45.6399L57.7256 45.8352C57.6427 46.0649 57.5066 46.2768 57.3172 46.4709C57.1302 46.665 56.8958 46.8213 56.6141 46.9396C56.3347 47.0556 56.0128 47.1136 55.6482 47.1136ZM66.2883 41.5455L64.2961 47H63.6214L61.6292 41.5455H62.3145L63.9339 46.1655H63.9836L65.6029 41.5455H66.2883ZM67.532 47V41.5455H68.1677V47H67.532ZM67.8552 40.608C67.725 40.608 67.6137 40.5642 67.5214 40.4766C67.4291 40.3866 67.3829 40.2789 67.3829 40.1534C67.3829 40.0279 67.4291 39.9214 67.5214 39.8338C67.6137 39.7438 67.725 39.6989 67.8552 39.6989C67.9854 39.6989 68.0967 39.7438 68.189 39.8338C68.2813 39.9214 68.3275 40.0279 68.3275 40.1534C68.3275 40.2789 68.2813 40.3866 68.189 40.4766C68.0967 40.5642 67.9854 40.608 67.8552 40.608ZM71.8032 47.1136C71.3557 47.1136 70.9639 46.9953 70.6278 46.7585C70.2916 46.5218 70.0288 46.1915 69.8394 45.7678C69.6524 45.344 69.5589 44.8504 69.5589 44.2869C69.5589 43.7259 69.6524 43.2346 69.8394 42.8132C70.0288 42.3894 70.2928 42.0604 70.6313 41.826C70.9698 41.5893 71.364 41.4709 71.8138 41.4709C72.1453 41.4709 72.4211 41.5301 72.6412 41.6484C72.8614 41.7644 73.0378 41.9089 73.1704 42.0817C73.3029 42.2545 73.4059 42.4226 73.4793 42.5859H73.5361V39.7273H74.1718V47H73.5539V45.9879H73.4793C73.4059 46.1536 73.3018 46.3241 73.1668 46.4993C73.0319 46.6721 72.8531 46.8177 72.6306 46.9361C72.4104 47.0545 72.1346 47.1136 71.8032 47.1136ZM71.8778 46.5348C72.2305 46.5348 72.5312 46.4389 72.7797 46.2472C73.0283 46.053 73.2177 45.7867 73.3479 45.4482C73.4805 45.1072 73.5468 44.7166 73.5468 44.2763C73.5468 43.8407 73.4817 43.456 73.3515 43.1222C73.2213 42.786 73.0319 42.5232 72.7833 42.3338C72.5347 42.142 72.2329 42.0462 71.8778 42.0462C71.5132 42.0462 71.2054 42.1456 70.9545 42.3445C70.7059 42.541 70.5165 42.8073 70.3863 43.1435C70.2584 43.4796 70.1945 43.8572 70.1945 44.2763C70.1945 44.7 70.2596 45.0824 70.3898 45.4233C70.52 45.7642 70.7094 46.0353 70.958 46.2365C71.209 46.4354 71.5155 46.5348 71.8778 46.5348ZM78.1775 47.1136C77.6685 47.1136 77.2281 46.9953 76.8564 46.7585C76.4848 46.5194 76.1971 46.1892 75.9935 45.7678C75.7923 45.344 75.6917 44.8563 75.6917 44.3047C75.6917 43.7554 75.7923 43.2678 75.9935 42.8416C76.1971 42.4131 76.4777 42.0781 76.8351 41.8366C77.195 41.5928 77.6105 41.4709 78.0816 41.4709C78.3775 41.4709 78.6628 41.5253 78.9374 41.6342C79.212 41.7408 79.4582 41.9053 79.676 42.1278C79.8962 42.348 80.0702 42.6262 80.1981 42.9624C80.3259 43.2962 80.3898 43.6915 80.3898 44.1484V44.4609H76.1285V43.9034H79.7435C79.7435 43.553 79.6725 43.2382 79.5305 42.9588C79.3908 42.6771 79.1955 42.4545 78.9445 42.2912C78.6959 42.1278 78.4083 42.0462 78.0816 42.0462C77.7359 42.0462 77.4317 42.1385 77.1689 42.3232C76.9062 42.5078 76.7002 42.7517 76.551 43.0547C76.4043 43.3577 76.3297 43.6892 76.3273 44.049V44.3828C76.3273 44.8161 76.4019 45.1948 76.551 45.5192C76.7026 45.8411 76.9168 46.0909 77.1938 46.2685C77.4708 46.446 77.7987 46.5348 78.1775 46.5348C78.4355 46.5348 78.6616 46.4946 78.8557 46.4141C79.0522 46.3336 79.2168 46.2259 79.3493 46.0909C79.4843 45.9536 79.5861 45.8033 79.6547 45.6399L80.2549 45.8352C80.172 46.0649 80.0359 46.2768 79.8465 46.4709C79.6595 46.665 79.4251 46.8213 79.1434 46.9396C78.864 47.0556 78.5421 47.1136 78.1775 47.1136ZM83.9028 47.1136C83.4317 47.1136 83.015 46.9941 82.6528 46.755C82.2929 46.5159 82.0112 46.1856 81.8076 45.7642C81.604 45.3404 81.5022 44.8516 81.5022 44.2976C81.5022 43.7389 81.604 43.2476 81.8076 42.8239C82.0112 42.3977 82.2929 42.0663 82.6528 41.8295C83.015 41.5904 83.4317 41.4709 83.9028 41.4709C84.3739 41.4709 84.7894 41.5904 85.1492 41.8295C85.5091 42.0687 85.7908 42.4001 85.9944 42.8239C86.2004 43.2476 86.3034 43.7389 86.3034 44.2976C86.3034 44.8516 86.2016 45.3404 85.998 45.7642C85.7944 46.1856 85.5115 46.5159 85.1492 46.755C84.7894 46.9941 84.3739 47.1136 83.9028 47.1136ZM83.9028 46.5348C84.2816 46.5348 84.6024 46.433 84.8651 46.2294C85.1279 46.0258 85.3268 45.7547 85.4617 45.4162C85.599 45.0777 85.6677 44.7048 85.6677 44.2976C85.6677 43.8904 85.599 43.5163 85.4617 43.1754C85.3268 42.8345 85.1279 42.5611 84.8651 42.3551C84.6024 42.1491 84.2816 42.0462 83.9028 42.0462C83.5264 42.0462 83.2056 42.1491 82.9404 42.3551C82.6776 42.5611 82.4776 42.8345 82.3403 43.1754C82.2053 43.5163 82.1379 43.8904 82.1379 44.2976C82.1379 44.7048 82.2053 45.0777 82.3403 45.4162C82.4776 45.7547 82.6776 46.0258 82.9404 46.2294C83.2032 46.433 83.524 46.5348 83.9028 46.5348ZM26.2869 59V53.5455H26.9226V59H26.2869ZM26.6101 52.608C26.4799 52.608 26.3686 52.5642 26.2763 52.4766C26.1839 52.3866 26.1378 52.2789 26.1378 52.1534C26.1378 52.0279 26.1839 51.9214 26.2763 51.8338C26.3686 51.7438 26.4799 51.6989 26.6101 51.6989C26.7403 51.6989 26.8516 51.7438 26.9439 51.8338C27.0362 51.9214 27.0824 52.0279 27.0824 52.1534C27.0824 52.2789 27.0362 52.3866 26.9439 52.4766C26.8516 52.5642 26.7403 52.608 26.6101 52.608ZM29.2264 55.5909V59H28.5943V53.5455H29.2086V54.4013H29.2654C29.3933 54.1219 29.5922 53.8982 29.862 53.7301C30.1343 53.5597 30.4705 53.4744 30.8706 53.4744C31.2375 53.4744 31.5595 53.5514 31.8365 53.7053C32.1158 53.8568 32.3324 54.0805 32.4863 54.3764C32.6426 54.6723 32.7207 55.0357 32.7207 55.4666V59H32.0886V55.5057C32.0886 55.0582 31.9631 54.7043 31.7122 54.4439C31.4636 54.1835 31.1298 54.0533 30.7108 54.0533C30.4243 54.0533 30.1698 54.1148 29.9473 54.2379C29.7247 54.361 29.5484 54.5386 29.4181 54.7706C29.2903 55.0002 29.2264 55.2737 29.2264 55.5909ZM36.5337 53.5455V54.0959H33.9308V53.5455H36.5337ZM34.744 52.2386H35.3796V57.576C35.3796 57.8033 35.4187 57.982 35.4968 58.1122C35.5749 58.2401 35.6767 58.3312 35.8022 58.3857C35.9277 58.4377 36.0614 58.4638 36.2035 58.4638C36.2863 58.4638 36.3574 58.459 36.4165 58.4496C36.4757 58.4377 36.5278 58.4259 36.5728 58.4141L36.7077 58.9858C36.6462 59.0095 36.5704 59.0308 36.4805 59.0497C36.3905 59.071 36.2792 59.0817 36.1467 59.0817C35.9147 59.0817 35.6909 59.0308 35.4755 58.929C35.2624 58.8272 35.0872 58.6757 34.9499 58.4744C34.8126 58.2732 34.744 58.0234 34.744 57.7251V52.2386ZM37.9693 59V53.5455H38.5836V54.3835H38.6298C38.7387 54.1089 38.9281 53.8875 39.198 53.7195C39.4702 53.549 39.778 53.4638 40.1213 53.4638C40.1734 53.4638 40.2314 53.465 40.2953 53.4673C40.3592 53.4697 40.4125 53.4721 40.4551 53.4744V54.1172C40.4267 54.1125 40.377 54.1054 40.3059 54.0959C40.2349 54.0864 40.158 54.0817 40.0751 54.0817C39.791 54.0817 39.5377 54.142 39.3152 54.2628C39.095 54.3812 38.921 54.5457 38.7931 54.7564C38.6653 54.9671 38.6014 55.2074 38.6014 55.4773V59H37.9693ZM43.4877 59.1136C43.0166 59.1136 42.6 58.9941 42.2377 58.755C41.8779 58.5159 41.5962 58.1856 41.3926 57.7642C41.189 57.3404 41.0872 56.8516 41.0872 56.2976C41.0872 55.7389 41.189 55.2476 41.3926 54.8239C41.5962 54.3977 41.8779 54.0663 42.2377 53.8295C42.6 53.5904 43.0166 53.4709 43.4877 53.4709C43.9589 53.4709 44.3743 53.5904 44.7342 53.8295C45.094 54.0687 45.3758 54.4001 45.5794 54.8239C45.7853 55.2476 45.8883 55.7389 45.8883 56.2976C45.8883 56.8516 45.7865 57.3404 45.5829 57.7642C45.3793 58.1856 45.0964 58.5159 44.7342 58.755C44.3743 58.9941 43.9589 59.1136 43.4877 59.1136ZM43.4877 58.5348C43.8665 58.5348 44.1873 58.433 44.4501 58.2294C44.7129 58.0258 44.9118 57.7547 45.0467 57.4162C45.184 57.0777 45.2527 56.7048 45.2527 56.2976C45.2527 55.8904 45.184 55.5163 45.0467 55.1754C44.9118 54.8345 44.7129 54.5611 44.4501 54.3551C44.1873 54.1491 43.8665 54.0462 43.4877 54.0462C43.1113 54.0462 42.7905 54.1491 42.5254 54.3551C42.2626 54.5611 42.0626 54.8345 41.9252 55.1754C41.7903 55.5163 41.7228 55.8904 41.7228 56.2976C41.7228 56.7048 41.7903 57.0777 41.9252 57.4162C42.0626 57.7547 42.2626 58.0258 42.5254 58.2294C42.7882 58.433 43.109 58.5348 43.4877 58.5348ZM49.2397 59.1136C48.7923 59.1136 48.4004 58.9953 48.0643 58.7585C47.7281 58.5218 47.4653 58.1915 47.2759 57.7678C47.0889 57.344 46.9954 56.8504 46.9954 56.2869C46.9954 55.7259 47.0889 55.2346 47.2759 54.8132C47.4653 54.3894 47.7293 54.0604 48.0678 53.826C48.4064 53.5893 48.8005 53.4709 49.2504 53.4709C49.5818 53.4709 49.8576 53.5301 50.0778 53.6484C50.2979 53.7644 50.4743 53.9089 50.6069 54.0817C50.7395 54.2545 50.8424 54.4226 50.9158 54.5859H50.9727V51.7273H51.6083V59H50.9904V57.9879H50.9158C50.8424 58.1536 50.7383 58.3241 50.6033 58.4993C50.4684 58.6721 50.2897 58.8177 50.0671 58.9361C49.8469 59.0545 49.5711 59.1136 49.2397 59.1136ZM49.3143 58.5348C49.667 58.5348 49.9677 58.4389 50.2163 58.2472C50.4648 58.053 50.6542 57.7867 50.7844 57.4482C50.917 57.1072 50.9833 56.7166 50.9833 56.2763C50.9833 55.8407 50.9182 55.456 50.788 55.1222C50.6578 54.786 50.4684 54.5232 50.2198 54.3338C49.9712 54.142 49.6694 54.0462 49.3143 54.0462C48.9497 54.0462 48.6419 54.1456 48.391 54.3445C48.1424 54.541 47.953 54.8073 47.8228 55.1435C47.695 55.4796 47.631 55.8572 47.631 56.2763C47.631 56.7 47.6961 57.0824 47.8263 57.4233C47.9566 57.7642 48.146 58.0353 48.3945 58.2365C48.6455 58.4354 48.9521 58.5348 49.3143 58.5348ZM56.8746 56.9155V53.5455H57.5067V59H56.8746V58.0945H56.8249C56.6971 58.3738 56.4947 58.607 56.2177 58.794C55.9407 58.9787 55.6022 59.071 55.2021 59.071C54.854 59.071 54.5451 58.9953 54.2752 58.8438C54.0053 58.6899 53.7934 58.465 53.6396 58.169C53.4857 57.8731 53.4087 57.5097 53.4087 57.0788V53.5455H54.0408V57.0398C54.0408 57.4659 54.1663 57.8092 54.4173 58.0696C54.6682 58.3277 54.9902 58.4567 55.3832 58.4567C55.6294 58.4567 55.8661 58.3975 56.0934 58.2791C56.3207 58.1607 56.5077 57.9879 56.6545 57.7607C56.8013 57.531 56.8746 57.2493 56.8746 56.9155ZM61.3109 59.1136C60.8232 59.1136 60.3983 58.9917 60.036 58.7479C59.6762 58.504 59.3968 58.1702 59.198 57.7464C58.9991 57.3227 58.8997 56.8397 58.8997 56.2976C58.8997 55.7507 59.0003 55.2642 59.2015 54.8381C59.4051 54.4119 59.6868 54.0781 60.0467 53.8366C60.4065 53.5928 60.8244 53.4709 61.3002 53.4709C61.6648 53.4709 61.9951 53.5419 62.291 53.6839C62.5869 53.8236 62.8308 54.0213 63.0225 54.277C63.2167 54.5303 63.3386 54.8262 63.3883 55.1648H62.7491C62.6828 54.857 62.523 54.5942 62.2697 54.3764C62.0188 54.1562 61.6992 54.0462 61.3109 54.0462C60.9629 54.0462 60.6551 54.1409 60.3876 54.3303C60.1201 54.5173 59.9106 54.7789 59.7591 55.1151C59.6099 55.4489 59.5353 55.8359 59.5353 56.2763C59.5353 56.719 59.6087 57.1108 59.7555 57.4517C59.9023 57.7902 60.1083 58.0554 60.3734 58.2472C60.6409 58.4389 60.9534 58.5348 61.3109 58.5348C61.5524 58.5348 61.7725 58.4898 61.9714 58.3999C62.1726 58.3075 62.3407 58.1773 62.4757 58.0092C62.613 57.8411 62.7053 57.6411 62.7527 57.4091H63.3919C63.3445 57.7382 63.2273 58.0317 63.0403 58.2898C62.8556 58.5455 62.6154 58.7467 62.3194 58.8935C62.0259 59.0402 61.6897 59.1136 61.3109 59.1136ZM66.8951 53.5455V54.0959H64.2921V53.5455H66.8951ZM65.1053 52.2386H65.7409V57.576C65.7409 57.8033 65.78 57.982 65.8581 58.1122C65.9363 58.2401 66.0381 58.3312 66.1635 58.3857C66.289 58.4377 66.4228 58.4638 66.5648 58.4638C66.6477 58.4638 66.7187 58.459 66.7779 58.4496C66.8371 58.4377 66.8891 58.4259 66.9341 58.4141L67.0691 58.9858C67.0075 59.0095 66.9318 59.0308 66.8418 59.0497C66.7518 59.071 66.6406 59.0817 66.508 59.0817C66.276 59.0817 66.0523 59.0308 65.8368 58.929C65.6238 58.8272 65.4486 58.6757 65.3113 58.4744C65.1739 58.2732 65.1053 58.0234 65.1053 57.7251V52.2386ZM68.3377 59V53.5455H68.9734V59H68.3377ZM68.6609 52.608C68.5307 52.608 68.4194 52.5642 68.3271 52.4766C68.2347 52.3866 68.1886 52.2789 68.1886 52.1534C68.1886 52.0279 68.2347 51.9214 68.3271 51.8338C68.4194 51.7438 68.5307 51.6989 68.6609 51.6989C68.7911 51.6989 68.9023 51.7438 68.9947 51.8338C69.087 51.9214 69.1332 52.0279 69.1332 52.1534C69.1332 52.2789 69.087 52.3866 68.9947 52.4766C68.9023 52.5642 68.7911 52.608 68.6609 52.608ZM72.7651 59.1136C72.294 59.1136 71.8773 58.9941 71.5151 58.755C71.1552 58.5159 70.8735 58.1856 70.6699 57.7642C70.4663 57.3404 70.3645 56.8516 70.3645 56.2976C70.3645 55.7389 70.4663 55.2476 70.6699 54.8239C70.8735 54.3977 71.1552 54.0663 71.5151 53.8295C71.8773 53.5904 72.294 53.4709 72.7651 53.4709C73.2362 53.4709 73.6517 53.5904 74.0115 53.8295C74.3714 54.0687 74.6531 54.4001 74.8567 54.8239C75.0627 55.2476 75.1657 55.7389 75.1657 56.2976C75.1657 56.8516 75.0639 57.3404 74.8603 57.7642C74.6567 58.1856 74.3738 58.5159 74.0115 58.755C73.6517 58.9941 73.2362 59.1136 72.7651 59.1136ZM72.7651 58.5348C73.1439 58.5348 73.4647 58.433 73.7275 58.2294C73.9902 58.0258 74.1891 57.7547 74.324 57.4162C74.4614 57.0777 74.53 56.7048 74.53 56.2976C74.53 55.8904 74.4614 55.5163 74.324 55.1754C74.1891 54.8345 73.9902 54.5611 73.7275 54.3551C73.4647 54.1491 73.1439 54.0462 72.7651 54.0462C72.3887 54.0462 72.0679 54.1491 71.8027 54.3551C71.54 54.5611 71.3399 54.8345 71.2026 55.1754C71.0676 55.5163 71.0002 55.8904 71.0002 56.2976C71.0002 56.7048 71.0676 57.0777 71.2026 57.4162C71.3399 57.7547 71.54 58.0258 71.8027 58.2294C72.0655 58.433 72.3863 58.5348 72.7651 58.5348ZM77.1854 55.5909V59H76.5533V53.5455H77.1676V54.4013H77.2244C77.3523 54.1219 77.5511 53.8982 77.821 53.7301C78.0933 53.5597 78.4295 53.4744 78.8295 53.4744C79.1965 53.4744 79.5185 53.5514 79.7955 53.7053C80.0748 53.8568 80.2914 54.0805 80.4453 54.3764C80.6016 54.6723 80.6797 55.0357 80.6797 55.4666V59H80.0476V55.5057C80.0476 55.0582 79.9221 54.7043 79.6712 54.4439C79.4226 54.1835 79.0888 54.0533 78.6697 54.0533C78.3833 54.0533 78.1288 54.1148 77.9062 54.2379C77.6837 54.361 77.5073 54.5386 77.3771 54.7706C77.2493 55.0002 77.1854 55.2737 77.1854 55.5909ZM86.0091 54.7422L85.4302 54.9055C85.3734 54.7422 85.2929 54.5942 85.1887 54.4616C85.0846 54.3291 84.9484 54.2237 84.7804 54.1456C84.6146 54.0675 84.4087 54.0284 84.1625 54.0284C83.7931 54.0284 83.4901 54.116 83.2534 54.2912C83.0166 54.4664 82.8983 54.6925 82.8983 54.9695C82.8983 55.2038 82.9788 55.3944 83.1397 55.5412C83.3031 55.6856 83.554 55.8004 83.8926 55.8857L84.7164 56.0881C85.1734 56.1993 85.5154 56.3757 85.7427 56.6172C85.9724 56.8587 86.0872 57.1617 86.0872 57.5263C86.0872 57.834 86.002 58.1075 85.8315 58.3466C85.661 58.5857 85.4231 58.7739 85.1177 58.9112C84.8147 59.0462 84.4631 59.1136 84.063 59.1136C83.5304 59.1136 83.0912 58.9941 82.7456 58.755C82.3999 58.5135 82.1786 58.1655 82.0815 57.7109L82.6887 57.5618C82.7669 57.8861 82.9196 58.1312 83.1468 58.2969C83.3765 58.4626 83.6783 58.5455 84.0524 58.5455C84.4714 58.5455 84.8064 58.4519 85.0574 58.2649C85.3083 58.0755 85.4338 57.8388 85.4338 57.5547C85.4338 57.3345 85.3604 57.1499 85.2136 57.0007C85.0668 56.8492 84.8443 56.7379 84.546 56.6669L83.6547 56.4538C83.1812 56.3402 82.8308 56.1603 82.6035 55.9141C82.3762 55.6679 82.2626 55.3625 82.2626 54.9979C82.2626 54.6972 82.3443 54.4332 82.5076 54.206C82.671 53.9763 82.8959 53.7964 83.1824 53.6662C83.4688 53.536 83.7955 53.4709 84.1625 53.4709C84.662 53.4709 85.0609 53.5845 85.3592 53.8118C85.6599 54.0367 85.8765 54.3468 86.0091 54.7422ZM90.2908 59V53.5455H90.9265V59H90.2908ZM90.614 52.608C90.4838 52.608 90.3725 52.5642 90.2802 52.4766C90.1879 52.3866 90.1417 52.2789 90.1417 52.1534C90.1417 52.0279 90.1879 51.9214 90.2802 51.8338C90.3725 51.7438 90.4838 51.6989 90.614 51.6989C90.7442 51.6989 90.8555 51.7438 90.9478 51.8338C91.0401 51.9214 91.0863 52.0279 91.0863 52.1534C91.0863 52.2789 91.0401 52.3866 90.9478 52.4766C90.8555 52.5642 90.7442 52.608 90.614 52.608ZM93.2303 55.5909V59H92.5982V53.5455H93.2125V54.4013H93.2694C93.3972 54.1219 93.5961 53.8982 93.8659 53.7301C94.1382 53.5597 94.4744 53.4744 94.8745 53.4744C95.2414 53.4744 95.5634 53.5514 95.8404 53.7053C96.1197 53.8568 96.3364 54.0805 96.4902 54.3764C96.6465 54.6723 96.7246 55.0357 96.7246 55.4666V59H96.0925V55.5057C96.0925 55.0582 95.967 54.7043 95.7161 54.4439C95.4675 54.1835 95.1337 54.0533 94.7147 54.0533C94.4282 54.0533 94.1737 54.1148 93.9512 54.2379C93.7286 54.361 93.5523 54.5386 93.4221 54.7706C93.2942 55.0002 93.2303 55.2737 93.2303 55.5909ZM35.8728 71.1136C35.3638 71.1136 34.9234 70.9953 34.5518 70.7585C34.1801 70.5194 33.8924 70.1892 33.6888 69.7678C33.4876 69.344 33.387 68.8563 33.387 68.3047C33.387 67.7554 33.4876 67.2678 33.6888 66.8416C33.8924 66.4131 34.173 66.0781 34.5305 65.8366C34.8903 65.5928 35.3058 65.4709 35.7769 65.4709C36.0728 65.4709 36.3581 65.5253 36.6327 65.6342C36.9073 65.7408 37.1536 65.9053 37.3714 66.1278C37.5915 66.348 37.7655 66.6262 37.8934 66.9624C38.0212 67.2962 38.0851 67.6915 38.0851 68.1484V68.4609H33.8238V67.9034H37.4388C37.4388 67.553 37.3678 67.2382 37.2258 66.9588C37.0861 66.6771 36.8908 66.4545 36.6398 66.2912C36.3912 66.1278 36.1036 66.0462 35.7769 66.0462C35.4313 66.0462 35.127 66.1385 34.8643 66.3232C34.6015 66.5078 34.3955 66.7517 34.2464 67.0547C34.0996 67.3577 34.025 67.6892 34.0226 68.049V68.3828C34.0226 68.8161 34.0972 69.1948 34.2464 69.5192C34.3979 69.8411 34.6121 70.0909 34.8891 70.2685C35.1661 70.446 35.494 70.5348 35.8728 70.5348C36.1308 70.5348 36.3569 70.4946 36.551 70.4141C36.7475 70.3336 36.9121 70.2259 37.0447 70.0909C37.1796 69.9536 37.2814 69.8033 37.3501 69.6399L37.9502 69.8352C37.8673 70.0649 37.7312 70.2768 37.5418 70.4709C37.3548 70.665 37.1204 70.8213 36.8387 70.9396C36.5593 71.0556 36.2374 71.1136 35.8728 71.1136ZM41.0015 71.1243C40.6724 71.1243 40.3718 71.0604 40.0995 70.9325C39.8273 70.8023 39.6106 70.6153 39.4497 70.3714C39.2887 70.1252 39.2082 69.8269 39.2082 69.4766C39.2082 69.2067 39.2591 68.9794 39.3609 68.7947C39.4627 68.6101 39.6071 68.4586 39.7941 68.3402C39.9811 68.2218 40.2025 68.1283 40.4582 68.0597C40.7139 67.991 40.9956 67.9377 41.3034 67.8999C41.6088 67.862 41.8668 67.8288 42.0775 67.8004C42.2906 67.772 42.4527 67.727 42.564 67.6655C42.6753 67.6039 42.7309 67.5045 42.7309 67.3672V67.2393C42.7309 66.8677 42.6196 66.5753 42.3971 66.3622C42.1769 66.1468 41.8597 66.0391 41.4454 66.0391C41.0524 66.0391 40.7316 66.1255 40.483 66.2983C40.2368 66.4711 40.064 66.6747 39.9646 66.9091L39.3644 66.6925C39.4875 66.3942 39.658 66.1562 39.8758 65.9787C40.0936 65.7988 40.3374 65.6697 40.6073 65.5916C40.8772 65.5111 41.1507 65.4709 41.4276 65.4709C41.636 65.4709 41.8526 65.4981 42.0775 65.5526C42.3048 65.607 42.5155 65.7017 42.7096 65.8366C42.9037 65.9692 43.0612 66.1551 43.1819 66.3942C43.3026 66.6309 43.363 66.9316 43.363 67.2962V71H42.7309V70.1371H42.6919C42.6161 70.2981 42.5036 70.4543 42.3545 70.6058C42.2053 70.7573 42.0183 70.8816 41.7934 70.9787C41.5685 71.0758 41.3045 71.1243 41.0015 71.1243ZM41.0867 70.5455C41.4229 70.5455 41.7141 70.4709 41.9603 70.3217C42.2065 70.1726 42.3959 69.9749 42.5285 69.7287C42.6634 69.4801 42.7309 69.2067 42.7309 68.9084V68.12C42.6836 68.165 42.6043 68.2053 42.493 68.2408C42.3841 68.2763 42.2574 68.3082 42.113 68.3366C41.971 68.3627 41.8289 68.3852 41.6869 68.4041C41.5448 68.4231 41.417 68.4396 41.3034 68.4538C40.9956 68.4917 40.7328 68.5509 40.515 68.6314C40.2972 68.7119 40.1303 68.8232 40.0143 68.9652C39.8983 69.1049 39.8403 69.2848 39.8403 69.505C39.8403 69.8364 39.9587 70.0933 40.1954 70.2756C40.4321 70.4555 40.7293 70.5455 41.0867 70.5455ZM47.1752 71.1136C46.6875 71.1136 46.2625 70.9917 45.9003 70.7479C45.5405 70.504 45.2611 70.1702 45.0622 69.7464C44.8634 69.3227 44.7639 68.8397 44.7639 68.2976C44.7639 67.7507 44.8646 67.2642 45.0658 66.8381C45.2694 66.4119 45.5511 66.0781 45.911 65.8366C46.2708 65.5928 46.6887 65.4709 47.1645 65.4709C47.5291 65.4709 47.8593 65.5419 48.1553 65.6839C48.4512 65.8236 48.695 66.0213 48.8868 66.277C49.0809 66.5303 49.2029 66.8262 49.2526 67.1648H48.6134C48.5471 66.857 48.3873 66.5942 48.134 66.3764C47.883 66.1562 47.5634 66.0462 47.1752 66.0462C46.8271 66.0462 46.5194 66.1409 46.2519 66.3303C45.9843 66.5173 45.7748 66.7789 45.6233 67.1151C45.4742 67.4489 45.3996 67.8359 45.3996 68.2763C45.3996 68.719 45.473 69.1108 45.6198 69.4517C45.7665 69.7902 45.9725 70.0554 46.2377 70.2472C46.5052 70.4389 46.8177 70.5348 47.1752 70.5348C47.4166 70.5348 47.6368 70.4898 47.8357 70.3999C48.0369 70.3075 48.205 70.1773 48.3399 70.0092C48.4772 69.8411 48.5696 69.6411 48.6169 69.4091H49.2561C49.2088 69.7382 49.0916 70.0317 48.9046 70.2898C48.7199 70.5455 48.4796 70.7467 48.1837 70.8935C47.8901 71.0402 47.5539 71.1136 47.1752 71.1136ZM51.243 67.5909V71H50.6109V63.7273H51.243V66.4013H51.2998C51.4276 66.1196 51.6253 65.8946 51.8928 65.7266C52.1627 65.5585 52.5036 65.4744 52.9156 65.4744C53.2849 65.4744 53.6092 65.5502 53.8886 65.7017C54.1679 65.8532 54.3857 66.0769 54.542 66.3729C54.6982 66.6688 54.7764 67.0334 54.7764 67.4666V71H54.1407V67.5057C54.1407 67.0559 54.0152 66.7019 53.7643 66.4439C53.5157 66.1835 53.1795 66.0533 52.7558 66.0533C52.4646 66.0533 52.2053 66.1148 51.9781 66.2379C51.7508 66.361 51.5709 66.5386 51.4383 66.7706C51.3081 67.0002 51.243 67.2737 51.243 67.5909ZM61.3841 71.1136C60.8965 71.1136 60.4715 70.9917 60.1093 70.7479C59.7494 70.504 59.4701 70.1702 59.2712 69.7464C59.0724 69.3227 58.9729 68.8397 58.9729 68.2976C58.9729 67.7507 59.0735 67.2642 59.2748 66.8381C59.4784 66.4119 59.7601 66.0781 60.1199 65.8366C60.4798 65.5928 60.8976 65.4709 61.3735 65.4709C61.7381 65.4709 62.0683 65.5419 62.3643 65.6839C62.6602 65.8236 62.904 66.0213 63.0958 66.277C63.2899 66.5303 63.4118 66.8262 63.4616 67.1648H62.8224C62.7561 66.857 62.5963 66.5942 62.343 66.3764C62.092 66.1562 61.7724 66.0462 61.3841 66.0462C61.0361 66.0462 60.7284 66.1409 60.4608 66.3303C60.1933 66.5173 59.9838 66.7789 59.8323 67.1151C59.6831 67.4489 59.6086 67.8359 59.6086 68.2763C59.6086 68.719 59.682 69.1108 59.8287 69.4517C59.9755 69.7902 60.1815 70.0554 60.4466 70.2472C60.7142 70.4389 61.0267 70.5348 61.3841 70.5348C61.6256 70.5348 61.8458 70.4898 62.0447 70.3999C62.2459 70.3075 62.414 70.1773 62.5489 70.0092C62.6862 69.8411 62.7786 69.6411 62.8259 69.4091H63.4651C63.4178 69.7382 63.3006 70.0317 63.1135 70.2898C62.9289 70.5455 62.6886 70.7467 62.3927 70.8935C62.0991 71.0402 61.7629 71.1136 61.3841 71.1136ZM66.9399 71.1136C66.4688 71.1136 66.0521 70.9941 65.6899 70.755C65.33 70.5159 65.0483 70.1856 64.8447 69.7642C64.6411 69.3404 64.5393 68.8516 64.5393 68.2976C64.5393 67.7389 64.6411 67.2476 64.8447 66.8239C65.0483 66.3977 65.33 66.0663 65.6899 65.8295C66.0521 65.5904 66.4688 65.4709 66.9399 65.4709C67.411 65.4709 67.8265 65.5904 68.1863 65.8295C68.5462 66.0687 68.8279 66.4001 69.0315 66.8239C69.2375 67.2476 69.3405 67.7389 69.3405 68.2976C69.3405 68.8516 69.2387 69.3404 69.0351 69.7642C68.8315 70.1856 68.5486 70.5159 68.1863 70.755C67.8265 70.9941 67.411 71.1136 66.9399 71.1136ZM66.9399 70.5348C67.3187 70.5348 67.6395 70.433 67.9023 70.2294C68.165 70.0258 68.3639 69.7547 68.4988 69.4162C68.6362 69.0777 68.7048 68.7048 68.7048 68.2976C68.7048 67.8904 68.6362 67.5163 68.4988 67.1754C68.3639 66.8345 68.165 66.5611 67.9023 66.3551C67.6395 66.1491 67.3187 66.0462 66.9399 66.0462C66.5635 66.0462 66.2427 66.1491 65.9775 66.3551C65.7148 66.5611 65.5147 66.8345 65.3774 67.1754C65.2425 67.5163 65.175 67.8904 65.175 68.2976C65.175 68.7048 65.2425 69.0777 65.3774 69.4162C65.5147 69.7547 65.7148 70.0258 65.9775 70.2294C66.2403 70.433 66.5611 70.5348 66.9399 70.5348ZM74.194 68.9155V65.5455H74.8261V71H74.194V70.0945H74.1443C74.0164 70.3738 73.814 70.607 73.537 70.794C73.26 70.9787 72.9215 71.071 72.5214 71.071C72.1734 71.071 71.8644 70.9953 71.5945 70.8438C71.3247 70.6899 71.1128 70.465 70.9589 70.169C70.805 69.8731 70.7281 69.5097 70.7281 69.0788V65.5455H71.3602V69.0398C71.3602 69.4659 71.4856 69.8092 71.7366 70.0696C71.9875 70.3277 72.3095 70.4567 72.7025 70.4567C72.9487 70.4567 73.1855 70.3975 73.4127 70.2791C73.64 70.1607 73.827 69.9879 73.9738 69.7607C74.1206 69.531 74.194 69.2493 74.194 68.9155ZM76.4996 71V65.5455H77.1139V66.3835H77.1601C77.269 66.1089 77.4584 65.8875 77.7282 65.7195C78.0005 65.549 78.3083 65.4638 78.6515 65.4638C78.7036 65.4638 78.7616 65.465 78.8256 65.4673C78.8895 65.4697 78.9427 65.4721 78.9854 65.4744V66.1172C78.9569 66.1125 78.9072 66.1054 78.8362 66.0959C78.7652 66.0864 78.6882 66.0817 78.6054 66.0817C78.3213 66.0817 78.068 66.142 77.8454 66.2628C77.6253 66.3812 77.4513 66.5457 77.3234 66.7564C77.1956 66.9671 77.1317 67.2074 77.1317 67.4773V71H76.4996ZM83.7288 66.7422L83.1499 66.9055C83.0931 66.7422 83.0126 66.5942 82.9085 66.4616C82.8043 66.3291 82.6682 66.2237 82.5001 66.1456C82.3344 66.0675 82.1284 66.0284 81.8822 66.0284C81.5129 66.0284 81.2098 66.116 80.9731 66.2912C80.7364 66.4664 80.618 66.6925 80.618 66.9695C80.618 67.2038 80.6985 67.3944 80.8595 67.5412C81.0228 67.6856 81.2738 67.8004 81.6123 67.8857L82.4362 68.0881C82.8931 68.1993 83.2352 68.3757 83.4624 68.6172C83.6921 68.8587 83.8069 69.1617 83.8069 69.5263C83.8069 69.834 83.7217 70.1075 83.5512 70.3466C83.3808 70.5857 83.1428 70.7739 82.8374 70.9112C82.5344 71.0462 82.1829 71.1136 81.7828 71.1136C81.2501 71.1136 80.8109 70.9941 80.4653 70.755C80.1196 70.5135 79.8983 70.1655 79.8012 69.7109L80.4085 69.5618C80.4866 69.8861 80.6393 70.1312 80.8666 70.2969C81.0962 70.4626 81.3981 70.5455 81.7721 70.5455C82.1911 70.5455 82.5261 70.4519 82.7771 70.2649C83.028 70.0755 83.1535 69.8388 83.1535 69.5547C83.1535 69.3345 83.0801 69.1499 82.9333 69.0007C82.7865 68.8492 82.564 68.7379 82.2657 68.6669L81.3744 68.4538C80.9009 68.3402 80.5505 68.1603 80.3232 67.9141C80.096 67.6679 79.9823 67.3625 79.9823 66.9979C79.9823 66.6972 80.064 66.4332 80.2274 66.206C80.3907 65.9763 80.6156 65.7964 80.9021 65.6662C81.1885 65.536 81.5152 65.4709 81.8822 65.4709C82.3817 65.4709 82.7806 65.5845 83.0789 65.8118C83.3796 66.0367 83.5962 66.3468 83.7288 66.7422ZM87.3962 71.1136C86.8872 71.1136 86.4469 70.9953 86.0752 70.7585C85.7035 70.5194 85.4159 70.1892 85.2123 69.7678C85.011 69.344 84.9104 68.8563 84.9104 68.3047C84.9104 67.7554 85.011 67.2678 85.2123 66.8416C85.4159 66.4131 85.6964 66.0781 86.0539 65.8366C86.4137 65.5928 86.8292 65.4709 87.3003 65.4709C87.5963 65.4709 87.8815 65.5253 88.1562 65.6342C88.4308 65.7408 88.677 65.9053 88.8948 66.1278C89.115 66.348 89.289 66.6262 89.4168 66.9624C89.5447 67.2962 89.6086 67.6915 89.6086 68.1484V68.4609H85.3472V67.9034H88.9623C88.9623 67.553 88.8912 67.2382 88.7492 66.9588C88.6095 66.6771 88.4142 66.4545 88.1633 66.2912C87.9147 66.1278 87.627 66.0462 87.3003 66.0462C86.9547 66.0462 86.6505 66.1385 86.3877 66.3232C86.1249 66.5078 85.9189 66.7517 85.7698 67.0547C85.623 67.3577 85.5484 67.6892 85.5461 68.049V68.3828C85.5461 68.8161 85.6206 69.1948 85.7698 69.5192C85.9213 69.8411 86.1356 70.0909 86.4126 70.2685C86.6895 70.446 87.0174 70.5348 87.3962 70.5348C87.6543 70.5348 87.8804 70.4946 88.0745 70.4141C88.271 70.3336 88.4355 70.2259 88.5681 70.0909C88.703 69.9536 88.8048 69.8033 88.8735 69.6399L89.4736 69.8352C89.3908 70.0649 89.2546 70.2768 89.0653 70.4709C88.8782 70.665 88.6439 70.8213 88.3621 70.9396C88.0828 71.0556 87.7608 71.1136 87.3962 71.1136Z" fill="#222222"/>
<defs>
<filter id="filter0_d_991_210" x="0" y="0" width="118" height="118" filterUnits="userSpaceOnUse" color-interpolation-filters="sRGB">
<feFlood flood-opacity="0" result="BackgroundImageFix"/>
<feColorMatrix in="SourceAlpha" type="matrix" values="0 0 0 0 0 0 0 0 0 0 0 0 0 0 0 0 0 0 127 0" result="hardAlpha"/>
<feOffset dy="4"/>
<feGaussianBlur stdDeviation="2"/>
<feComposite in2="hardAlpha" operator="out"/>
<feColorMatrix type="matrix" values="0 0 0 0 0 0 0 0 0 0 0 0 0 0 0 0 0 0 0.25 0"/>
<feBlend mode="normal" in2="BackgroundImageFix" result="effect1_dropShadow_991_210"/>
<feBlend mode="normal" in="SourceGraphic" in2="effect1_dropShadow_991_210" result="shape"/>
</filter>
</defs>
</svg>
