<svg width="118" height="118" viewBox="0 0 118 118" fill="none" xmlns="http://www.w3.org/2000/svg">
<g filter="url(#filter0_d_991_219)">
<rect x="4" width="110" height="110" fill="#C9C8D8" fill-opacity="0.5" shape-rendering="crispEdges"/>
</g>
<path d="M30.5982 40.0455V32.5455H31.2125V33.5859H31.2871C31.3629 33.4226 31.467 33.2557 31.5996 33.0852C31.7322 32.9124 31.9074 32.7668 32.1252 32.6484C32.3453 32.5301 32.6223 32.4709 32.9561 32.4709C33.406 32.4709 33.7989 32.5893 34.1351 32.826C34.4737 33.0604 34.7364 33.3894 34.9235 33.8132C35.1129 34.2346 35.2076 34.7259 35.2076 35.2869C35.2076 35.8504 35.1129 36.344 34.9235 36.7678C34.7364 37.1915 34.4737 37.5218 34.1351 37.7585C33.7989 37.9953 33.4083 38.1136 32.9632 38.1136C32.6342 38.1136 32.3584 38.0545 32.1358 37.9361C31.9157 37.8177 31.7369 37.6721 31.5996 37.4993C31.4647 37.3241 31.3605 37.1536 31.2871 36.9879H31.2303V40.0455H30.5982ZM31.2232 35.2763C31.2232 35.7166 31.2883 36.1072 31.4185 36.4482C31.5511 36.7867 31.7405 37.053 31.9867 37.2472C32.2353 37.4389 32.5359 37.5348 32.8887 37.5348C33.2509 37.5348 33.5563 37.4354 33.8049 37.2365C34.0558 37.0353 34.2464 36.7642 34.3766 36.4233C34.5092 36.0824 34.5755 35.7 34.5755 35.2763C34.5755 34.8572 34.5104 34.4796 34.3801 34.1435C34.2523 33.8073 34.0629 33.541 33.812 33.3445C33.561 33.1456 33.2533 33.0462 32.8887 33.0462C32.5336 33.0462 32.2317 33.142 31.9831 33.3338C31.7346 33.5232 31.5452 33.786 31.415 34.1222C31.2871 34.456 31.2232 34.8407 31.2232 35.2763ZM38.7995 38.1136C38.2905 38.1136 37.8502 37.9953 37.4785 37.7585C37.1068 37.5194 36.8192 37.1892 36.6156 36.7678C36.4144 36.344 36.3137 35.8563 36.3137 35.3047C36.3137 34.7554 36.4144 34.2678 36.6156 33.8416C36.8192 33.4131 37.0997 33.0781 37.4572 32.8366C37.8171 32.5928 38.2325 32.4709 38.7037 32.4709C38.9996 32.4709 39.2849 32.5253 39.5595 32.6342C39.8341 32.7408 40.0803 32.9053 40.2981 33.1278C40.5183 33.348 40.6923 33.6262 40.8201 33.9624C40.948 34.2962 41.0119 34.6915 41.0119 35.1484V35.4609H36.7505V34.9034H40.3656C40.3656 34.553 40.2946 34.2382 40.1525 33.9588C40.0128 33.6771 39.8175 33.4545 39.5666 33.2912C39.318 33.1278 39.0304 33.0462 38.7037 33.0462C38.358 33.0462 38.0538 33.1385 37.791 33.3232C37.5282 33.5078 37.3223 33.7517 37.1731 34.0547C37.0263 34.3577 36.9518 34.6892 36.9494 35.049V35.3828C36.9494 35.8161 37.024 36.1948 37.1731 36.5192C37.3246 36.8411 37.5389 37.0909 37.8159 37.2685C38.0929 37.446 38.4208 37.5348 38.7995 37.5348C39.0576 37.5348 39.2837 37.4946 39.4778 37.4141C39.6743 37.3336 39.8388 37.2259 39.9714 37.0909C40.1064 36.9536 40.2082 36.8033 40.2768 36.6399L40.877 36.8352C40.7941 37.0649 40.658 37.2768 40.4686 37.4709C40.2815 37.665 40.0472 37.8213 39.7654 37.9396C39.4861 38.0556 39.1641 38.1136 38.7995 38.1136ZM42.4048 38V32.5455H43.0192V33.3835H43.0653C43.1742 33.1089 43.3636 32.8875 43.6335 32.7195C43.9058 32.549 44.2135 32.4638 44.5568 32.4638C44.6089 32.4638 44.6669 32.465 44.7308 32.4673C44.7947 32.4697 44.848 32.4721 44.8906 32.4744V33.1172C44.8622 33.1125 44.8125 33.1054 44.7415 33.0959C44.6705 33.0864 44.5935 33.0817 44.5107 33.0817C44.2266 33.0817 43.9732 33.142 43.7507 33.2628C43.5305 33.3812 43.3565 33.5457 43.2287 33.7564C43.1009 33.9671 43.0369 34.2074 43.0369 34.4773V38H42.4048ZM49.6341 33.7422L49.0552 33.9055C48.9984 33.7422 48.9179 33.5942 48.8137 33.4616C48.7096 33.3291 48.5734 33.2237 48.4054 33.1456C48.2396 33.0675 48.0337 33.0284 47.7875 33.0284C47.4181 33.0284 47.1151 33.116 46.8784 33.2912C46.6416 33.4664 46.5233 33.6925 46.5233 33.9695C46.5233 34.2038 46.6038 34.3944 46.7647 34.5412C46.9281 34.6856 47.179 34.8004 47.5176 34.8857L48.3414 35.0881C48.7984 35.1993 49.1404 35.3757 49.3677 35.6172C49.5974 35.8587 49.7122 36.1617 49.7122 36.5263C49.7122 36.834 49.627 37.1075 49.4565 37.3466C49.286 37.5857 49.0481 37.7739 48.7427 37.9112C48.4397 38.0462 48.0881 38.1136 47.688 38.1136C47.1554 38.1136 46.7162 37.9941 46.3706 37.755C46.0249 37.5135 45.8036 37.1655 45.7065 36.7109L46.3137 36.5618C46.3919 36.8861 46.5446 37.1312 46.7718 37.2969C47.0015 37.4626 47.3033 37.5455 47.6774 37.5455C48.0964 37.5455 48.4314 37.4519 48.6824 37.2649C48.9333 37.0755 49.0588 36.8388 49.0588 36.5547C49.0588 36.3345 48.9854 36.1499 48.8386 36.0007C48.6918 35.8492 48.4693 35.7379 48.171 35.6669L47.2797 35.4538C46.8062 35.3402 46.4558 35.1603 46.2285 34.9141C46.0012 34.6679 45.8876 34.3625 45.8876 33.9979C45.8876 33.6972 45.9693 33.4332 46.1326 33.206C46.296 32.9763 46.5209 32.7964 46.8074 32.6662C47.0938 32.536 47.4205 32.4709 47.7875 32.4709C48.287 32.4709 48.6859 32.5845 48.9842 32.8118C49.2849 33.0367 49.5015 33.3468 49.6341 33.7422ZM53.2163 38.1136C52.7451 38.1136 52.3285 37.9941 51.9663 37.755C51.6064 37.5159 51.3247 37.1856 51.1211 36.7642C50.9175 36.3404 50.8157 35.8516 50.8157 35.2976C50.8157 34.7389 50.9175 34.2476 51.1211 33.8239C51.3247 33.3977 51.6064 33.0663 51.9663 32.8295C52.3285 32.5904 52.7451 32.4709 53.2163 32.4709C53.6874 32.4709 54.1029 32.5904 54.4627 32.8295C54.8226 33.0687 55.1043 33.4001 55.3079 33.8239C55.5138 34.2476 55.6168 34.7389 55.6168 35.2976C55.6168 35.8516 55.515 36.3404 55.3114 36.7642C55.1078 37.1856 54.8249 37.5159 54.4627 37.755C54.1029 37.9941 53.6874 38.1136 53.2163 38.1136ZM53.2163 37.5348C53.5951 37.5348 53.9158 37.433 54.1786 37.2294C54.4414 37.0258 54.6403 36.7547 54.7752 36.4162C54.9125 36.0777 54.9812 35.7048 54.9812 35.2976C54.9812 34.8904 54.9125 34.5163 54.7752 34.1754C54.6403 33.8345 54.4414 33.5611 54.1786 33.3551C53.9158 33.1491 53.5951 33.0462 53.2163 33.0462C52.8398 33.0462 52.5191 33.1491 52.2539 33.3551C51.9911 33.5611 51.7911 33.8345 51.6538 34.1754C51.5188 34.5163 51.4513 34.8904 51.4513 35.2976C51.4513 35.7048 51.5188 36.0777 51.6538 36.4162C51.7911 36.7547 51.9911 37.0258 52.2539 37.2294C52.5167 37.433 52.8375 37.5348 53.2163 37.5348ZM57.6365 34.5909V38H57.0044V32.5455H57.6188V33.4013H57.6756C57.8034 33.1219 58.0023 32.8982 58.2722 32.7301C58.5444 32.5597 58.8806 32.4744 59.2807 32.4744C59.6477 32.4744 59.9696 32.5514 60.2466 32.7053C60.526 32.8568 60.7426 33.0805 60.8965 33.3764C61.0527 33.6723 61.1309 34.0357 61.1309 34.4666V38H60.4988V34.5057C60.4988 34.0582 60.3733 33.7043 60.1223 33.4439C59.8738 33.1835 59.54 33.0533 59.1209 33.0533C58.8345 33.0533 58.58 33.1148 58.3574 33.2379C58.1349 33.361 57.9585 33.5386 57.8283 33.7706C57.7005 34.0002 57.6365 34.2737 57.6365 34.5909ZM64.3189 38.1243C63.9898 38.1243 63.6892 38.0604 63.4169 37.9325C63.1446 37.8023 62.928 37.6153 62.767 37.3714C62.6061 37.1252 62.5256 36.8269 62.5256 36.4766C62.5256 36.2067 62.5765 35.9794 62.6783 35.7947C62.7801 35.6101 62.9245 35.4586 63.1115 35.3402C63.2985 35.2218 63.5199 35.1283 63.7756 35.0597C64.0313 34.991 64.313 34.9377 64.6207 34.8999C64.9261 34.862 65.1842 34.8288 65.3949 34.8004C65.608 34.772 65.7701 34.727 65.8814 34.6655C65.9927 34.6039 66.0483 34.5045 66.0483 34.3672V34.2393C66.0483 33.8677 65.937 33.5753 65.7145 33.3622C65.4943 33.1468 65.1771 33.0391 64.7628 33.0391C64.3698 33.0391 64.049 33.1255 63.8004 33.2983C63.5542 33.4711 63.3814 33.6747 63.282 33.9091L62.6818 33.6925C62.8049 33.3942 62.9754 33.1562 63.1932 32.9787C63.411 32.7988 63.6548 32.6697 63.9247 32.5916C64.1946 32.5111 64.468 32.4709 64.745 32.4709C64.9534 32.4709 65.17 32.4981 65.3949 32.5526C65.6222 32.607 65.8329 32.7017 66.027 32.8366C66.2211 32.9692 66.3786 33.1551 66.4993 33.3942C66.62 33.6309 66.6804 33.9316 66.6804 34.2962V38H66.0483V37.1371H66.0092C65.9335 37.2981 65.821 37.4543 65.6719 37.6058C65.5227 37.7573 65.3357 37.8816 65.1108 37.9787C64.8859 38.0758 64.6219 38.1243 64.3189 38.1243ZM64.4041 37.5455C64.7403 37.5455 65.0315 37.4709 65.2777 37.3217C65.5239 37.1726 65.7133 36.9749 65.8459 36.7287C65.9808 36.4801 66.0483 36.2067 66.0483 35.9084V35.12C66.0009 35.165 65.9216 35.2053 65.8104 35.2408C65.7015 35.2763 65.5748 35.3082 65.4304 35.3366C65.2884 35.3627 65.1463 35.3852 65.0043 35.4041C64.8622 35.4231 64.7344 35.4396 64.6207 35.4538C64.313 35.4917 64.0502 35.5509 63.8324 35.6314C63.6146 35.7119 63.4477 35.8232 63.3317 35.9652C63.2157 36.1049 63.1577 36.2848 63.1577 36.505C63.1577 36.8364 63.276 37.0933 63.5128 37.2756C63.7495 37.4555 64.0466 37.5455 64.4041 37.5455ZM68.994 30.7273V38H68.3619V30.7273H68.994ZM70.6737 38V32.5455H71.3093V38H70.6737ZM70.9968 31.608C70.8666 31.608 70.7553 31.5642 70.663 31.4766C70.5707 31.3866 70.5245 31.2789 70.5245 31.1534C70.5245 31.0279 70.5707 30.9214 70.663 30.8338C70.7553 30.7438 70.8666 30.6989 70.9968 30.6989C71.127 30.6989 71.2383 30.7438 71.3306 30.8338C71.4229 30.9214 71.4691 31.0279 71.4691 31.1534C71.4691 31.2789 71.4229 31.3866 71.3306 31.4766C71.2383 31.5642 71.127 31.608 70.9968 31.608ZM72.8105 38V37.4993L75.964 33.1882V33.142H72.9455V32.5455H76.7772V33.0675L73.6806 37.3572V37.4034H76.8908V38H72.8105ZM80.3327 38.1136C79.8237 38.1136 79.3834 37.9953 79.0117 37.7585C78.64 37.5194 78.3524 37.1892 78.1488 36.7678C77.9476 36.344 77.8469 35.8563 77.8469 35.3047C77.8469 34.7554 77.9476 34.2678 78.1488 33.8416C78.3524 33.4131 78.6329 33.0781 78.9904 32.8366C79.3503 32.5928 79.7657 32.4709 80.2369 32.4709C80.5328 32.4709 80.8181 32.5253 81.0927 32.6342C81.3673 32.7408 81.6135 32.9053 81.8313 33.1278C82.0515 33.348 82.2255 33.6262 82.3533 33.9624C82.4812 34.2962 82.5451 34.6915 82.5451 35.1484V35.4609H78.2837V34.9034H81.8988C81.8988 34.553 81.8278 34.2382 81.6857 33.9588C81.546 33.6771 81.3507 33.4545 81.0998 33.2912C80.8512 33.1278 80.5636 33.0462 80.2369 33.0462C79.8912 33.0462 79.587 33.1385 79.3242 33.3232C79.0614 33.5078 78.8555 33.7517 78.7063 34.0547C78.5595 34.3577 78.485 34.6892 78.4826 35.049V35.3828C78.4826 35.8161 78.5572 36.1948 78.7063 36.5192C78.8578 36.8411 79.0721 37.0909 79.3491 37.2685C79.6261 37.446 79.954 37.5348 80.3327 37.5348C80.5908 37.5348 80.8169 37.4946 81.011 37.4141C81.2075 37.3336 81.372 37.2259 81.5046 37.0909C81.6396 36.9536 81.7414 36.8033 81.81 36.6399L82.4102 36.8352C82.3273 37.0649 82.1912 37.2768 82.0018 37.4709C81.8147 37.665 81.5804 37.8213 81.2987 37.9396C81.0193 38.0556 80.6973 38.1136 80.3327 38.1136ZM85.9018 38.1136C85.4544 38.1136 85.0626 37.9953 84.7264 37.7585C84.3902 37.5218 84.1274 37.1915 83.938 36.7678C83.751 36.344 83.6575 35.8504 83.6575 35.2869C83.6575 34.7259 83.751 34.2346 83.938 33.8132C84.1274 33.3894 84.3914 33.0604 84.7299 32.826C85.0685 32.5893 85.4627 32.4709 85.9125 32.4709C86.2439 32.4709 86.5197 32.5301 86.7399 32.6484C86.96 32.7644 87.1364 32.9089 87.269 33.0817C87.4016 33.2545 87.5046 33.4226 87.5779 33.5859H87.6348V30.7273H88.2704V38H87.6525V36.9879H87.5779C87.5046 37.1536 87.4004 37.3241 87.2654 37.4993C87.1305 37.6721 86.9518 37.8177 86.7292 37.9361C86.5091 38.0545 86.2333 38.1136 85.9018 38.1136ZM85.9764 37.5348C86.3291 37.5348 86.6298 37.4389 86.8784 37.2472C87.127 37.053 87.3163 36.7867 87.4466 36.4482C87.5791 36.1072 87.6454 35.7166 87.6454 35.2763C87.6454 34.8407 87.5803 34.456 87.4501 34.1222C87.3199 33.786 87.1305 33.5232 86.8819 33.3338C86.6333 33.142 86.3315 33.0462 85.9764 33.0462C85.6118 33.0462 85.304 33.1456 85.0531 33.3445C84.8045 33.541 84.6151 33.8073 84.4849 34.1435C84.3571 34.4796 84.2931 34.8572 84.2931 35.2763C84.2931 35.7 84.3583 36.0824 84.4885 36.4233C84.6187 36.7642 84.8081 37.0353 85.0566 37.2365C85.3076 37.4354 85.6142 37.5348 85.9764 37.5348ZM29.449 44.5455V45.0959H26.7678V44.5455H29.449ZM27.6059 50V43.7464C27.6059 43.4529 27.6734 43.2055 27.8083 43.0043C27.9456 42.803 28.1244 42.6503 28.3445 42.5462C28.5647 42.442 28.7979 42.3899 29.0441 42.3899C29.2098 42.3899 29.3472 42.4041 29.4561 42.4325C29.5673 42.4586 29.6549 42.4846 29.7188 42.5107L29.5342 43.0646C29.4868 43.0504 29.4288 43.0339 29.3602 43.0149C29.2915 42.996 29.2051 42.9865 29.1009 42.9865C28.8263 42.9865 28.6144 43.0634 28.4653 43.2173C28.3161 43.3712 28.2416 43.5914 28.2416 43.8778L28.238 50H27.6059ZM32.6911 50.1136C32.1821 50.1136 31.7418 49.9953 31.3701 49.7585C30.9984 49.5194 30.7108 49.1892 30.5072 48.7678C30.306 48.344 30.2053 47.8563 30.2053 47.3047C30.2053 46.7554 30.306 46.2678 30.5072 45.8416C30.7108 45.4131 30.9913 45.0781 31.3488 44.8366C31.7087 44.5928 32.1241 44.4709 32.5953 44.4709C32.8912 44.4709 33.1765 44.5253 33.4511 44.6342C33.7257 44.7408 33.9719 44.9053 34.1897 45.1278C34.4099 45.348 34.5839 45.6262 34.7117 45.9624C34.8396 46.2962 34.9035 46.6915 34.9035 47.1484V47.4609H30.6421V46.9034H34.2572C34.2572 46.553 34.1862 46.2382 34.0441 45.9588C33.9044 45.6771 33.7091 45.4545 33.4582 45.2912C33.2096 45.1278 32.922 45.0462 32.5953 45.0462C32.2496 45.0462 31.9454 45.1385 31.6826 45.3232C31.4198 45.5078 31.2139 45.7517 31.0647 46.0547C30.9179 46.3577 30.8434 46.6892 30.841 47.049V47.3828C30.841 47.8161 30.9156 48.1948 31.0647 48.5192C31.2162 48.8411 31.4305 49.0909 31.7075 49.2685C31.9845 49.446 32.3124 49.5348 32.6911 49.5348C32.9492 49.5348 33.1753 49.4946 33.3694 49.4141C33.5659 49.3336 33.7304 49.2259 33.863 49.0909C33.998 48.9536 34.0998 48.8033 34.1684 48.6399L34.7686 48.8352C34.6857 49.0649 34.5496 49.2768 34.3602 49.4709C34.1731 49.665 33.9388 49.8213 33.657 49.9396C33.3777 50.0556 33.0557 50.1136 32.6911 50.1136ZM38.5017 50.1136C37.9927 50.1136 37.5523 49.9953 37.1807 49.7585C36.809 49.5194 36.5213 49.1892 36.3177 48.7678C36.1165 48.344 36.0159 47.8563 36.0159 47.3047C36.0159 46.7554 36.1165 46.2678 36.3177 45.8416C36.5213 45.4131 36.8019 45.0781 37.1594 44.8366C37.5192 44.5928 37.9347 44.4709 38.4058 44.4709C38.7017 44.4709 38.987 44.5253 39.2616 44.6342C39.5363 44.7408 39.7825 44.9053 40.0003 45.1278C40.2204 45.348 40.3944 45.6262 40.5223 45.9624C40.6501 46.2962 40.714 46.6915 40.714 47.1484V47.4609H36.4527V46.9034H40.0677C40.0677 46.553 39.9967 46.2382 39.8547 45.9588C39.715 45.6771 39.5197 45.4545 39.2687 45.2912C39.0202 45.1278 38.7325 45.0462 38.4058 45.0462C38.0602 45.0462 37.7559 45.1385 37.4932 45.3232C37.2304 45.5078 37.0244 45.7517 36.8753 46.0547C36.7285 46.3577 36.6539 46.6892 36.6515 47.049V47.3828C36.6515 47.8161 36.7261 48.1948 36.8753 48.5192C37.0268 48.8411 37.241 49.0909 37.518 49.2685C37.795 49.446 38.1229 49.5348 38.5017 49.5348C38.7597 49.5348 38.9858 49.4946 39.18 49.4141C39.3765 49.3336 39.541 49.2259 39.6736 49.0909C39.8085 48.9536 39.9103 48.8033 39.979 48.6399L40.5791 48.8352C40.4962 49.0649 40.3601 49.2768 40.1707 49.4709C39.9837 49.665 39.7493 49.8213 39.4676 49.9396C39.1882 50.0556 38.8663 50.1136 38.5017 50.1136ZM44.0708 50.1136C43.6233 50.1136 43.2315 49.9953 42.8953 49.7585C42.5592 49.5218 42.2964 49.1915 42.107 48.7678C41.92 48.344 41.8264 47.8504 41.8264 47.2869C41.8264 46.7259 41.92 46.2346 42.107 45.8132C42.2964 45.3894 42.5603 45.0604 42.8989 44.826C43.2374 44.5893 43.6316 44.4709 44.0814 44.4709C44.4128 44.4709 44.6887 44.5301 44.9088 44.6484C45.129 44.7644 45.3054 44.9089 45.4379 45.0817C45.5705 45.2545 45.6735 45.4226 45.7469 45.5859H45.8037V42.7273H46.4394V50H45.8215V48.9879H45.7469C45.6735 49.1536 45.5693 49.3241 45.4344 49.4993C45.2994 49.6721 45.1207 49.8177 44.8982 49.9361C44.678 50.0545 44.4022 50.1136 44.0708 50.1136ZM44.1453 49.5348C44.4981 49.5348 44.7987 49.4389 45.0473 49.2472C45.2959 49.053 45.4853 48.7867 45.6155 48.4482C45.7481 48.1072 45.8144 47.7166 45.8144 47.2763C45.8144 46.8407 45.7493 46.456 45.6191 46.1222C45.4888 45.786 45.2994 45.5232 45.0509 45.3338C44.8023 45.142 44.5004 45.0462 44.1453 45.0462C43.7807 45.0462 43.473 45.1456 43.222 45.3445C42.9735 45.541 42.7841 45.8073 42.6539 46.1435C42.526 46.4796 42.4621 46.8572 42.4621 47.2763C42.4621 47.7 42.5272 48.0824 42.6574 48.4233C42.7876 48.7642 42.977 49.0353 43.2256 49.2365C43.4765 49.4354 43.7831 49.5348 44.1453 49.5348ZM48.3712 50V42.7273H49.0068V45.5859H49.0637C49.1347 45.4226 49.2365 45.2545 49.3691 45.0817C49.504 44.9089 49.6804 44.7644 49.8982 44.6484C50.1183 44.5301 50.3953 44.4709 50.7291 44.4709C51.1766 44.4709 51.5696 44.5893 51.9081 44.826C52.2467 45.0604 52.5106 45.3894 52.7 45.8132C52.8894 46.2346 52.9841 46.7259 52.9841 47.2869C52.9841 47.8504 52.8894 48.344 52.7 48.7678C52.513 49.1915 52.2502 49.5218 51.9117 49.7585C51.5755 49.9953 51.1849 50.1136 50.7398 50.1136C50.4084 50.1136 50.1314 50.0545 49.9088 49.9361C49.6887 49.8177 49.5111 49.6721 49.3762 49.4993C49.2412 49.3241 49.137 49.1536 49.0637 48.9879H48.9855V50H48.3712ZM48.9962 47.2763C48.9962 47.7166 49.0613 48.1072 49.1915 48.4482C49.3241 48.7867 49.5135 49.053 49.7597 49.2472C50.0083 49.4389 50.3089 49.5348 50.6617 49.5348C51.0239 49.5348 51.3305 49.4354 51.5814 49.2365C51.8324 49.0353 52.0229 48.7642 52.1531 48.4233C52.2834 48.0824 52.3485 47.7 52.3485 47.2763C52.3485 46.8572 52.2834 46.4796 52.1531 46.1435C52.0253 45.8073 51.8359 45.541 51.585 45.3445C51.334 45.1456 51.0262 45.0462 50.6617 45.0462C50.3066 45.0462 50.0047 45.142 49.7561 45.3338C49.5099 45.5232 49.3217 45.786 49.1915 46.1222C49.0613 46.456 48.9962 46.8407 48.9962 47.2763ZM55.896 50.1243C55.567 50.1243 55.2663 50.0604 54.9941 49.9325C54.7218 49.8023 54.5052 49.6153 54.3442 49.3714C54.1832 49.1252 54.1027 48.8269 54.1027 48.4766C54.1027 48.2067 54.1536 47.9794 54.2554 47.7947C54.3572 47.6101 54.5016 47.4586 54.6887 47.3402C54.8757 47.2218 55.097 47.1283 55.3527 47.0597C55.6084 46.991 55.8901 46.9377 56.1979 46.8999C56.5033 46.862 56.7613 46.8288 56.972 46.8004C57.1851 46.772 57.3473 46.727 57.4585 46.6655C57.5698 46.6039 57.6254 46.5045 57.6254 46.3672V46.2393C57.6254 45.8677 57.5142 45.5753 57.2916 45.3622C57.0715 45.1468 56.7542 45.0391 56.3399 45.0391C55.9469 45.0391 55.6262 45.1255 55.3776 45.2983C55.1314 45.4711 54.9585 45.6747 54.8591 45.9091L54.259 45.6925C54.3821 45.3942 54.5525 45.1562 54.7703 44.9787C54.9881 44.7988 55.232 44.6697 55.5019 44.5916C55.7718 44.5111 56.0452 44.4709 56.3222 44.4709C56.5305 44.4709 56.7471 44.4981 56.972 44.5526C57.1993 44.607 57.41 44.7017 57.6041 44.8366C57.7983 44.9692 57.9557 45.1551 58.0764 45.3942C58.1972 45.6309 58.2575 45.9316 58.2575 46.2962V50H57.6254V49.1371H57.5864C57.5106 49.2981 57.3982 49.4543 57.249 49.6058C57.0999 49.7573 56.9128 49.8816 56.6879 49.9787C56.463 50.0758 56.1991 50.1243 55.896 50.1243ZM55.9813 49.5455C56.3174 49.5455 56.6086 49.4709 56.8548 49.3217C57.1011 49.1726 57.2905 48.9749 57.423 48.7287C57.558 48.4801 57.6254 48.2067 57.6254 47.9084V47.12C57.5781 47.165 57.4988 47.2053 57.3875 47.2408C57.2786 47.2763 57.152 47.3082 57.0075 47.3366C56.8655 47.3627 56.7235 47.3852 56.5814 47.4041C56.4394 47.4231 56.3115 47.4396 56.1979 47.4538C55.8901 47.4917 55.6273 47.5509 55.4095 47.6314C55.1917 47.7119 55.0248 47.8232 54.9088 47.9652C54.7928 48.1049 54.7348 48.2848 54.7348 48.505C54.7348 48.8364 54.8532 49.0933 55.0899 49.2756C55.3267 49.4555 55.6238 49.5455 55.9813 49.5455ZM62.0697 50.1136C61.582 50.1136 61.157 49.9917 60.7948 49.7479C60.435 49.504 60.1556 49.1702 59.9568 48.7464C59.7579 48.3227 59.6585 47.8397 59.6585 47.2976C59.6585 46.7507 59.7591 46.2642 59.9603 45.8381C60.1639 45.4119 60.4456 45.0781 60.8055 44.8366C61.1653 44.5928 61.5832 44.4709 62.059 44.4709C62.4236 44.4709 62.7539 44.5419 63.0498 44.6839C63.3457 44.8236 63.5896 45.0213 63.7813 45.277C63.9755 45.5303 64.0974 45.8262 64.1471 46.1648H63.5079C63.4416 45.857 63.2818 45.5942 63.0285 45.3764C62.7776 45.1562 62.4579 45.0462 62.0697 45.0462C61.7217 45.0462 61.4139 45.1409 61.1464 45.3303C60.8789 45.5173 60.6694 45.7789 60.5178 46.1151C60.3687 46.4489 60.2941 46.8359 60.2941 47.2763C60.2941 47.719 60.3675 48.1108 60.5143 48.4517C60.6611 48.7902 60.867 49.0554 61.1322 49.2472C61.3997 49.4389 61.7122 49.5348 62.0697 49.5348C62.3112 49.5348 62.5313 49.4898 62.7302 49.3999C62.9314 49.3075 63.0995 49.1773 63.2345 49.0092C63.3718 48.8411 63.4641 48.6411 63.5115 48.4091H64.1507C64.1033 48.7382 63.9861 49.0317 63.7991 49.2898C63.6144 49.5455 63.3741 49.7467 63.0782 49.8935C62.7847 50.0402 62.4485 50.1136 62.0697 50.1136ZM66.0807 47.9403L66.0736 47.1129H66.2156L68.7725 44.5455H69.5715L67.0466 47.0739L66.9898 47.0845L66.0807 47.9403ZM65.5054 50V42.7273H66.1375V50H65.5054ZM68.9039 50L66.6879 47.1982L67.1425 46.7614L69.7135 50H68.9039ZM74.7828 50L73.135 44.5455H73.8026L75.0953 49.0447H75.1414L76.4305 44.5455H77.1017L78.3801 49.0341H78.4298L79.7224 44.5455H80.39L78.7423 50H78.0889L76.7963 45.5291H76.7288L75.4362 50H74.7828ZM81.6258 50V44.5455H82.2615V50H81.6258ZM81.949 43.608C81.8187 43.608 81.7075 43.5642 81.6151 43.4766C81.5228 43.3866 81.4767 43.2789 81.4767 43.1534C81.4767 43.0279 81.5228 42.9214 81.6151 42.8338C81.7075 42.7438 81.8187 42.6989 81.949 42.6989C82.0792 42.6989 82.1904 42.7438 82.2828 42.8338C82.3751 42.9214 82.4213 43.0279 82.4213 43.1534C82.4213 43.2789 82.3751 43.3866 82.2828 43.4766C82.1904 43.5642 82.0792 43.608 81.949 43.608ZM86.0816 44.5455V45.0959H83.4786V44.5455H86.0816ZM84.2918 43.2386H84.9275V48.576C84.9275 48.8033 84.9665 48.982 85.0447 49.1122C85.1228 49.2401 85.2246 49.3312 85.3501 49.3857C85.4755 49.4377 85.6093 49.4638 85.7513 49.4638C85.8342 49.4638 85.9052 49.459 85.9644 49.4496C86.0236 49.4377 86.0757 49.4259 86.1206 49.4141L86.2556 49.9858C86.194 50.0095 86.1183 50.0308 86.0283 50.0497C85.9384 50.071 85.8271 50.0817 85.6945 50.0817C85.4625 50.0817 85.2388 50.0308 85.0233 49.929C84.8103 49.8272 84.6351 49.6757 84.4978 49.4744C84.3605 49.2732 84.2918 49.0234 84.2918 48.7251V43.2386ZM88.2664 46.5909V50H87.6343V42.7273H88.2664V45.4013H88.3232C88.4511 45.1196 88.6488 44.8946 88.9163 44.7266C89.1862 44.5585 89.5271 44.4744 89.939 44.4744C90.3083 44.4744 90.6327 44.5502 90.912 44.7017C91.1914 44.8532 91.4092 45.0769 91.5654 45.3729C91.7217 45.6688 91.7998 46.0334 91.7998 46.4666V50H91.1642V46.5057C91.1642 46.0559 91.0387 45.7019 90.7877 45.4439C90.5392 45.1835 90.203 45.0533 89.7792 45.0533C89.488 45.0533 89.2288 45.1148 89.0015 45.2379C88.7742 45.361 88.5943 45.5386 88.4617 45.7706C88.3315 46.0002 88.2664 46.2737 88.2664 46.5909ZM27.103 64.1591C26.7313 64.1591 26.4058 64.1106 26.1264 64.0135C25.8471 63.9188 25.6115 63.7886 25.4197 63.6229C25.228 63.4571 25.0788 63.2713 24.9723 63.0653L25.4908 62.7244C25.5689 62.8617 25.6731 62.9967 25.8033 63.1293C25.9358 63.2618 26.1075 63.3719 26.3182 63.4595C26.5313 63.5471 26.7929 63.5909 27.103 63.5909C27.5859 63.5909 27.9754 63.4702 28.2713 63.2287C28.5696 62.9872 28.7188 62.612 28.7188 62.103V60.8743H28.6619C28.5885 61.04 28.4832 61.2057 28.3459 61.3714C28.2086 61.5348 28.0286 61.6709 27.8061 61.7798C27.5859 61.8887 27.3125 61.9432 26.9858 61.9432C26.5502 61.9432 26.1631 61.8355 25.8246 61.62C25.4884 61.4046 25.2232 61.0968 25.0291 60.6967C24.8374 60.2943 24.7415 59.8149 24.7415 59.2585C24.7415 58.7069 24.835 58.2216 25.022 57.8026C25.2114 57.3835 25.4754 57.0568 25.8139 56.8224C26.1525 56.5881 26.5466 56.4709 26.9964 56.4709C27.3303 56.4709 27.6072 56.5301 27.8274 56.6484C28.0476 56.7644 28.224 56.9089 28.3565 57.0817C28.4915 57.2545 28.5968 57.4226 28.6726 57.5859H28.7365V56.5455H29.3544V62.142C29.3544 62.6037 29.2562 62.9837 29.0597 63.282C28.8632 63.5803 28.5956 63.8004 28.2571 63.9425C27.9186 64.0869 27.5339 64.1591 27.103 64.1591ZM27.0604 61.3643C27.4107 61.3643 27.7102 61.2803 27.9588 61.1122C28.2074 60.9418 28.398 60.6979 28.5305 60.3807C28.6631 60.0634 28.7294 59.6858 28.7294 59.2479C28.7294 58.8217 28.6643 58.4441 28.5341 58.1151C28.4039 57.7836 28.2145 57.5232 27.9659 57.3338C27.7197 57.142 27.4179 57.0462 27.0604 57.0462C26.6958 57.0462 26.388 57.1444 26.1371 57.3409C25.8861 57.5374 25.6967 57.8026 25.5689 58.1364C25.4411 58.4678 25.3771 58.8383 25.3771 59.2479C25.3771 59.6645 25.4422 60.0327 25.5724 60.3523C25.7027 60.6695 25.8932 60.9181 26.1442 61.098C26.3951 61.2756 26.7005 61.3643 27.0604 61.3643ZM33.1479 62.1136C32.6768 62.1136 32.2601 61.9941 31.8979 61.755C31.5381 61.5159 31.2563 61.1856 31.0527 60.7642C30.8491 60.3404 30.7473 59.8516 30.7473 59.2976C30.7473 58.7389 30.8491 58.2476 31.0527 57.8239C31.2563 57.3977 31.5381 57.0663 31.8979 56.8295C32.2601 56.5904 32.6768 56.4709 33.1479 56.4709C33.619 56.4709 34.0345 56.5904 34.3944 56.8295C34.7542 57.0687 35.0359 57.4001 35.2395 57.8239C35.4455 58.2476 35.5485 58.7389 35.5485 59.2976C35.5485 59.8516 35.4467 60.3404 35.2431 60.7642C35.0395 61.1856 34.7566 61.5159 34.3944 61.755C34.0345 61.9941 33.619 62.1136 33.1479 62.1136ZM33.1479 61.5348C33.5267 61.5348 33.8475 61.433 34.1103 61.2294C34.373 61.0258 34.5719 60.7547 34.7069 60.4162C34.8442 60.0777 34.9128 59.7048 34.9128 59.2976C34.9128 58.8904 34.8442 58.5163 34.7069 58.1754C34.5719 57.8345 34.373 57.5611 34.1103 57.3551C33.8475 57.1491 33.5267 57.0462 33.1479 57.0462C32.7715 57.0462 32.4507 57.1491 32.1855 57.3551C31.9228 57.5611 31.7227 57.8345 31.5854 58.1754C31.4505 58.5163 31.383 58.8904 31.383 59.2976C31.383 59.7048 31.4505 60.0777 31.5854 60.4162C31.7227 60.7547 31.9228 61.0258 32.1855 61.2294C32.4483 61.433 32.7691 61.5348 33.1479 61.5348ZM39.0561 62.1136C38.585 62.1136 38.1683 61.9941 37.8061 61.755C37.4463 61.5159 37.1645 61.1856 36.9609 60.7642C36.7573 60.3404 36.6555 59.8516 36.6555 59.2976C36.6555 58.7389 36.7573 58.2476 36.9609 57.8239C37.1645 57.3977 37.4463 57.0663 37.8061 56.8295C38.1683 56.5904 38.585 56.4709 39.0561 56.4709C39.5272 56.4709 39.9427 56.5904 40.3026 56.8295C40.6624 57.0687 40.9441 57.4001 41.1477 57.8239C41.3537 58.2476 41.4567 58.7389 41.4567 59.2976C41.4567 59.8516 41.3549 60.3404 41.1513 60.7642C40.9477 61.1856 40.6648 61.5159 40.3026 61.755C39.9427 61.9941 39.5272 62.1136 39.0561 62.1136ZM39.0561 61.5348C39.4349 61.5348 39.7557 61.433 40.0185 61.2294C40.2813 61.0258 40.4801 60.7547 40.6151 60.4162C40.7524 60.0777 40.821 59.7048 40.821 59.2976C40.821 58.8904 40.7524 58.5163 40.6151 58.1754C40.4801 57.8345 40.2813 57.5611 40.0185 57.3551C39.7557 57.1491 39.4349 57.0462 39.0561 57.0462C38.6797 57.0462 38.3589 57.1491 38.0938 57.3551C37.831 57.5611 37.6309 57.8345 37.4936 58.1754C37.3587 58.5163 37.2912 58.8904 37.2912 59.2976C37.2912 59.7048 37.3587 60.0777 37.4936 60.4162C37.6309 60.7547 37.831 61.0258 38.0938 61.2294C38.3565 61.433 38.6773 61.5348 39.0561 61.5348ZM44.8081 62.1136C44.3606 62.1136 43.9688 61.9953 43.6326 61.7585C43.2965 61.5218 43.0337 61.1915 42.8443 60.7678C42.6573 60.344 42.5637 59.8504 42.5637 59.2869C42.5637 58.7259 42.6573 58.2346 42.8443 57.8132C43.0337 57.3894 43.2976 57.0604 43.6362 56.826C43.9747 56.5893 44.3689 56.4709 44.8187 56.4709C45.1502 56.4709 45.426 56.5301 45.6461 56.6484C45.8663 56.7644 46.0427 56.9089 46.1752 57.0817C46.3078 57.2545 46.4108 57.4226 46.4842 57.5859H46.541V54.7273H47.1767V62H46.5588V60.9879H46.4842C46.4108 61.1536 46.3066 61.3241 46.1717 61.4993C46.0368 61.6721 45.858 61.8177 45.6355 61.9361C45.4153 62.0545 45.1395 62.1136 44.8081 62.1136ZM44.8826 61.5348C45.2354 61.5348 45.536 61.4389 45.7846 61.2472C46.0332 61.053 46.2226 60.7867 46.3528 60.4482C46.4854 60.1072 46.5517 59.7166 46.5517 59.2763C46.5517 58.8407 46.4866 58.456 46.3564 58.1222C46.2261 57.786 46.0368 57.5232 45.7882 57.3338C45.5396 57.142 45.2377 57.0462 44.8826 57.0462C44.5181 57.0462 44.2103 57.1456 43.9593 57.3445C43.7108 57.541 43.5214 57.8073 43.3912 58.1435C43.2633 58.4796 43.1994 58.8572 43.1994 59.2763C43.1994 59.7 43.2645 60.0824 43.3947 60.4233C43.5249 60.7642 43.7143 61.0353 43.9629 61.2365C44.2138 61.4354 44.5204 61.5348 44.8826 61.5348ZM53.9203 62.1136C53.4326 62.1136 53.0076 61.9917 52.6454 61.7479C52.2856 61.504 52.0062 61.1702 51.8074 60.7464C51.6085 60.3227 51.5091 59.8397 51.5091 59.2976C51.5091 58.7507 51.6097 58.2642 51.8109 57.8381C52.0145 57.4119 52.2962 57.0781 52.6561 56.8366C53.0159 56.5928 53.4338 56.4709 53.9096 56.4709C54.2742 56.4709 54.6045 56.5419 54.9004 56.6839C55.1963 56.8236 55.4402 57.0213 55.6319 57.277C55.8261 57.5303 55.948 57.8262 55.9977 58.1648H55.3585C55.2922 57.857 55.1324 57.5942 54.8791 57.3764C54.6281 57.1562 54.3085 57.0462 53.9203 57.0462C53.5723 57.0462 53.2645 57.1409 52.997 57.3303C52.7295 57.5173 52.5199 57.7789 52.3684 58.1151C52.2193 58.4489 52.1447 58.8359 52.1447 59.2763C52.1447 59.719 52.2181 60.1108 52.3649 60.4517C52.5117 60.7902 52.7176 61.0554 52.9828 61.2472C53.2503 61.4389 53.5628 61.5348 53.9203 61.5348C54.1618 61.5348 54.3819 61.4898 54.5808 61.3999C54.782 61.3075 54.9501 61.1773 55.085 61.0092C55.2224 60.8411 55.3147 60.6411 55.362 60.4091H56.0012C55.9539 60.7382 55.8367 61.0317 55.6497 61.2898C55.465 61.5455 55.2247 61.7467 54.9288 61.8935C54.6352 62.0402 54.2991 62.1136 53.9203 62.1136ZM60.8219 59.9155V56.5455H61.454V62H60.8219V61.0945H60.7722C60.6444 61.3738 60.4419 61.607 60.165 61.794C59.888 61.9787 59.5494 62.071 59.1493 62.071C58.8013 62.071 58.4924 61.9953 58.2225 61.8438C57.9526 61.6899 57.7407 61.465 57.5868 61.169C57.4329 60.8731 57.356 60.5097 57.356 60.0788V56.5455H57.9881V60.0398C57.9881 60.4659 58.1136 60.8092 58.3645 61.0696C58.6155 61.3277 58.9374 61.4567 59.3304 61.4567C59.5766 61.4567 59.8134 61.3975 60.0407 61.2791C60.2679 61.1607 60.455 60.9879 60.6017 60.7607C60.7485 60.531 60.8219 60.2493 60.8219 59.9155ZM66.7923 57.7422L66.2134 57.9055C66.1566 57.7422 66.0761 57.5942 65.9719 57.4616C65.8678 57.3291 65.7317 57.2237 65.5636 57.1456C65.3978 57.0675 65.1919 57.0284 64.9457 57.0284C64.5763 57.0284 64.2733 57.116 64.0366 57.2912C63.7998 57.4664 63.6815 57.6925 63.6815 57.9695C63.6815 58.2038 63.762 58.3944 63.9229 58.5412C64.0863 58.6856 64.3372 58.8004 64.6758 58.8857L65.4996 59.0881C65.9566 59.1993 66.2987 59.3757 66.5259 59.6172C66.7556 59.8587 66.8704 60.1617 66.8704 60.5263C66.8704 60.834 66.7852 61.1075 66.6147 61.3466C66.4442 61.5857 66.2063 61.7739 65.9009 61.9112C65.5979 62.0462 65.2463 62.1136 64.8462 62.1136C64.3136 62.1136 63.8744 61.9941 63.5288 61.755C63.1831 61.5135 62.9618 61.1655 62.8647 60.7109L63.4719 60.5618C63.5501 60.8861 63.7028 61.1312 63.93 61.2969C64.1597 61.4626 64.4615 61.5455 64.8356 61.5455C65.2546 61.5455 65.5896 61.4519 65.8406 61.2649C66.0915 61.0755 66.217 60.8388 66.217 60.5547C66.217 60.3345 66.1436 60.1499 65.9968 60.0007C65.85 59.8492 65.6275 59.7379 65.3292 59.6669L64.4379 59.4538C63.9644 59.3402 63.614 59.1603 63.3867 58.9141C63.1594 58.6679 63.0458 58.3625 63.0458 57.9979C63.0458 57.6972 63.1275 57.4332 63.2908 57.206C63.4542 56.9763 63.6791 56.7964 63.9656 56.6662C64.252 56.536 64.5787 56.4709 64.9457 56.4709C65.4452 56.4709 65.8441 56.5845 66.1424 56.8118C66.4431 57.0367 66.6597 57.3468 66.7923 57.7422ZM70.4029 56.5455V57.0959H67.7999V56.5455H70.4029ZM68.6131 55.2386H69.2488V60.576C69.2488 60.8033 69.2878 60.982 69.3659 61.1122C69.4441 61.2401 69.5459 61.3312 69.6713 61.3857C69.7968 61.4377 69.9306 61.4638 70.0726 61.4638C70.1555 61.4638 70.2265 61.459 70.2857 61.4496C70.3449 61.4377 70.397 61.4259 70.4419 61.4141L70.5769 61.9858C70.5153 62.0095 70.4396 62.0308 70.3496 62.0497C70.2596 62.071 70.1484 62.0817 70.0158 62.0817C69.7838 62.0817 69.5601 62.0308 69.3446 61.929C69.1316 61.8272 68.9564 61.6757 68.8191 61.4744C68.6818 61.2732 68.6131 61.0234 68.6131 60.7251V55.2386ZM73.8999 62.1136C73.4287 62.1136 73.0121 61.9941 72.6499 61.755C72.29 61.5159 72.0083 61.1856 71.8047 60.7642C71.6011 60.3404 71.4993 59.8516 71.4993 59.2976C71.4993 58.7389 71.6011 58.2476 71.8047 57.8239C72.0083 57.3977 72.29 57.0663 72.6499 56.8295C73.0121 56.5904 73.4287 56.4709 73.8999 56.4709C74.371 56.4709 74.7865 56.5904 75.1463 56.8295C75.5062 57.0687 75.7879 57.4001 75.9915 57.8239C76.1974 58.2476 76.3004 58.7389 76.3004 59.2976C76.3004 59.8516 76.1986 60.3404 75.995 60.7642C75.7914 61.1856 75.5085 61.5159 75.1463 61.755C74.7865 61.9941 74.371 62.1136 73.8999 62.1136ZM73.8999 61.5348C74.2786 61.5348 74.5994 61.433 74.8622 61.2294C75.125 61.0258 75.3239 60.7547 75.4588 60.4162C75.5961 60.0777 75.6648 59.7048 75.6648 59.2976C75.6648 58.8904 75.5961 58.5163 75.4588 58.1754C75.3239 57.8345 75.125 57.5611 74.8622 57.3551C74.5994 57.1491 74.2786 57.0462 73.8999 57.0462C73.5234 57.0462 73.2027 57.1491 72.9375 57.3551C72.6747 57.5611 72.4747 57.8345 72.3374 58.1754C72.2024 58.5163 72.1349 58.8904 72.1349 59.2976C72.1349 59.7048 72.2024 60.0777 72.3374 60.4162C72.4747 60.7547 72.6747 61.0258 72.9375 61.2294C73.2003 61.433 73.5211 61.5348 73.8999 61.5348ZM77.688 62V56.5455H78.3024V57.3835H78.3592C78.4681 57.1018 78.6492 56.8804 78.9025 56.7195C79.1582 56.5561 79.4648 56.4744 79.8223 56.4744C80.1987 56.4744 80.5076 56.5632 80.7491 56.7408C80.993 56.916 81.1752 57.1574 81.296 57.4652H81.3422C81.4653 57.1622 81.6653 56.9219 81.9423 56.7443C82.2217 56.5644 82.5602 56.4744 82.9579 56.4744C83.4645 56.4744 83.8646 56.6342 84.1582 56.9538C84.4518 57.2711 84.5985 57.7351 84.5985 58.3459V62H83.9664V58.3459C83.9664 57.915 83.8564 57.5919 83.6362 57.3764C83.416 57.161 83.126 57.0533 82.7662 57.0533C82.3495 57.0533 82.0287 57.1811 81.8038 57.4368C81.5789 57.6925 81.4664 58.0168 81.4664 58.4098V62H80.8201V58.2891C80.8201 57.9197 80.7172 57.6214 80.5112 57.3942C80.3052 57.1669 80.0152 57.0533 79.6412 57.0533C79.3902 57.0533 79.1641 57.1148 78.9629 57.2379C78.764 57.361 78.6066 57.5327 78.4906 57.7528C78.377 57.9706 78.3201 58.2216 78.3201 58.5057V62H77.688ZM88.4773 62.1136C87.9683 62.1136 87.5279 61.9953 87.1562 61.7585C86.7846 61.5194 86.4969 61.1892 86.2933 60.7678C86.0921 60.344 85.9915 59.8563 85.9915 59.3047C85.9915 58.7554 86.0921 58.2678 86.2933 57.8416C86.4969 57.4131 86.7775 57.0781 87.1349 56.8366C87.4948 56.5928 87.9103 56.4709 88.3814 56.4709C88.6773 56.4709 88.9626 56.5253 89.2372 56.6342C89.5118 56.7408 89.758 56.9053 89.9759 57.1278C90.196 57.348 90.37 57.6262 90.4979 57.9624C90.6257 58.2962 90.6896 58.6915 90.6896 59.1484V59.4609H86.4283V58.9034H90.0433C90.0433 58.553 89.9723 58.2382 89.8303 57.9588C89.6906 57.6771 89.4953 57.4545 89.2443 57.2912C88.9957 57.1278 88.7081 57.0462 88.3814 57.0462C88.0357 57.0462 87.7315 57.1385 87.4688 57.3232C87.206 57.5078 87 57.7517 86.8509 58.0547C86.7041 58.3577 86.6295 58.6892 86.6271 59.049V59.3828C86.6271 59.8161 86.7017 60.1948 86.8509 60.5192C87.0024 60.8411 87.2166 61.0909 87.4936 61.2685C87.7706 61.446 88.0985 61.5348 88.4773 61.5348C88.7353 61.5348 88.9614 61.4946 89.1555 61.4141C89.352 61.3336 89.5166 61.2259 89.6491 61.0909C89.7841 60.9536 89.8859 60.8033 89.9545 60.6399L90.5547 60.8352C90.4718 61.0649 90.3357 61.2768 90.1463 61.4709C89.9593 61.665 89.7249 61.8213 89.4432 61.9396C89.1638 62.0556 88.8419 62.1136 88.4773 62.1136ZM92.0826 62V56.5455H92.6969V57.3835H92.7431C92.852 57.1089 93.0414 56.8875 93.3113 56.7195C93.5835 56.549 93.8913 56.4638 94.2346 56.4638C94.2866 56.4638 94.3446 56.465 94.4086 56.4673C94.4725 56.4697 94.5257 56.4721 94.5684 56.4744V57.1172C94.54 57.1125 94.4902 57.1054 94.4192 57.0959C94.3482 57.0864 94.2712 57.0817 94.1884 57.0817C93.9043 57.0817 93.651 57.142 93.4284 57.2628C93.2083 57.3812 93.0343 57.5457 92.9064 57.7564C92.7786 57.9671 92.7147 58.2074 92.7147 58.4773V62H92.0826ZM47.0901 69.7422L46.5113 69.9055C46.4545 69.7422 46.374 69.5942 46.2698 69.4616C46.1656 69.3291 46.0295 69.2237 45.8614 69.1456C45.6957 69.0675 45.4897 69.0284 45.2435 69.0284C44.8742 69.0284 44.5712 69.116 44.3344 69.2912C44.0977 69.4664 43.9793 69.6925 43.9793 69.9695C43.9793 70.2038 44.0598 70.3944 44.2208 70.5412C44.3841 70.6856 44.6351 70.8004 44.9736 70.8857L45.7975 71.0881C46.2544 71.1993 46.5965 71.3757 46.8238 71.6172C47.0534 71.8587 47.1682 72.1617 47.1682 72.5263C47.1682 72.834 47.083 73.1075 46.9126 73.3466C46.7421 73.5857 46.5042 73.7739 46.1988 73.9112C45.8957 74.0462 45.5442 74.1136 45.1441 74.1136C44.6114 74.1136 44.1723 73.9941 43.8266 73.755C43.481 73.5135 43.2596 73.1655 43.1626 72.7109L43.7698 72.5618C43.8479 72.8861 44.0006 73.1312 44.2279 73.2969C44.4575 73.4626 44.7594 73.5455 45.1334 73.5455C45.5525 73.5455 45.8875 73.4519 46.1384 73.2649C46.3894 73.0755 46.5148 72.8388 46.5148 72.5547C46.5148 72.3345 46.4414 72.1499 46.2947 72.0007C46.1479 71.8492 45.9253 71.7379 45.627 71.6669L44.7357 71.4538C44.2622 71.3402 43.9118 71.1603 43.6846 70.9141C43.4573 70.6679 43.3437 70.3625 43.3437 69.9979C43.3437 69.6972 43.4253 69.4332 43.5887 69.206C43.752 68.9763 43.9769 68.7964 44.2634 68.6662C44.5499 68.536 44.8766 68.4709 45.2435 68.4709C45.743 68.4709 46.142 68.5845 46.4403 68.8118C46.7409 69.0367 46.9575 69.3468 47.0901 69.7422ZM50.7575 74.1136C50.2485 74.1136 49.8082 73.9953 49.4365 73.7585C49.0648 73.5194 48.7772 73.1892 48.5736 72.7678C48.3724 72.344 48.2718 71.8563 48.2718 71.3047C48.2718 70.7554 48.3724 70.2678 48.5736 69.8416C48.7772 69.4131 49.0577 69.0781 49.4152 68.8366C49.7751 68.5928 50.1905 68.4709 50.6617 68.4709C50.9576 68.4709 51.2429 68.5253 51.5175 68.6342C51.7921 68.7408 52.0383 68.9053 52.2561 69.1278C52.4763 69.348 52.6503 69.6262 52.7781 69.9624C52.906 70.2962 52.9699 70.6915 52.9699 71.1484V71.4609H48.7085V70.9034H52.3236C52.3236 70.553 52.2526 70.2382 52.1105 69.9588C51.9709 69.6771 51.7755 69.4545 51.5246 69.2912C51.276 69.1278 50.9884 69.0462 50.6617 69.0462C50.316 69.0462 50.0118 69.1385 49.749 69.3232C49.4862 69.5078 49.2803 69.7517 49.1311 70.0547C48.9843 70.3577 48.9098 70.6892 48.9074 71.049V71.3828C48.9074 71.8161 48.982 72.1948 49.1311 72.5192C49.2826 72.8411 49.4969 73.0909 49.7739 73.2685C50.0509 73.446 50.3788 73.5348 50.7575 73.5348C51.0156 73.5348 51.2417 73.4946 51.4358 73.4141C51.6323 73.3336 51.7968 73.2259 51.9294 73.0909C52.0644 72.9536 52.1662 72.8033 52.2348 72.6399L52.835 72.8352C52.7521 73.0649 52.616 73.2768 52.4266 73.4709C52.2396 73.665 52.0052 73.8213 51.7235 73.9396C51.4441 74.0556 51.1221 74.1136 50.7575 74.1136ZM54.3628 74V68.5455H54.9772V69.3835H55.0233C55.1323 69.1089 55.3216 68.8875 55.5915 68.7195C55.8638 68.549 56.1715 68.4638 56.5148 68.4638C56.5669 68.4638 56.6249 68.465 56.6888 68.4673C56.7528 68.4697 56.806 68.4721 56.8486 68.4744V69.1172C56.8202 69.1125 56.7705 69.1054 56.6995 69.0959C56.6285 69.0864 56.5515 69.0817 56.4687 69.0817C56.1846 69.0817 55.9313 69.142 55.7087 69.2628C55.4885 69.3812 55.3145 69.5457 55.1867 69.7564C55.0589 69.9671 54.9949 70.2074 54.9949 70.4773V74H54.3628ZM62.3156 68.5455L60.3234 74H59.6487L57.6565 68.5455H58.3419L59.9612 73.1655H60.0109L61.6302 68.5455H62.3156ZM63.5594 74V68.5455H64.195V74H63.5594ZM63.8825 67.608C63.7523 67.608 63.6411 67.5642 63.5487 67.4766C63.4564 67.3866 63.4102 67.2789 63.4102 67.1534C63.4102 67.0279 63.4564 66.9214 63.5487 66.8338C63.6411 66.7438 63.7523 66.6989 63.8825 66.6989C64.0128 66.6989 64.124 66.7438 64.2164 66.8338C64.3087 66.9214 64.3548 67.0279 64.3548 67.1534C64.3548 67.2789 64.3087 67.3866 64.2164 67.4766C64.124 67.5642 64.0128 67.608 63.8825 67.608ZM67.9974 74.1136C67.5097 74.1136 67.0848 73.9917 66.7226 73.7479C66.3627 73.504 66.0834 73.1702 65.8845 72.7464C65.6856 72.3227 65.5862 71.8397 65.5862 71.2976C65.5862 70.7507 65.6868 70.2642 65.8881 69.8381C66.0916 69.4119 66.3734 69.0781 66.7332 68.8366C67.0931 68.5928 67.5109 68.4709 67.9868 68.4709C68.3514 68.4709 68.6816 68.5419 68.9775 68.6839C69.2735 68.8236 69.5173 69.0213 69.7091 69.277C69.9032 69.5303 70.0251 69.8262 70.0748 70.1648H69.4356C69.3693 69.857 69.2095 69.5942 68.9562 69.3764C68.7053 69.1562 68.3857 69.0462 67.9974 69.0462C67.6494 69.0462 67.3416 69.1409 67.0741 69.3303C66.8066 69.5173 66.5971 69.7789 66.4456 70.1151C66.2964 70.4489 66.2219 70.8359 66.2219 71.2763C66.2219 71.719 66.2952 72.1108 66.442 72.4517C66.5888 72.7902 66.7948 73.0554 67.0599 73.2472C67.3274 73.4389 67.6399 73.5348 67.9974 73.5348C68.2389 73.5348 68.4591 73.4898 68.6579 73.3999C68.8592 73.3075 69.0273 73.1773 69.1622 73.0092C69.2995 72.8411 69.3918 72.6411 69.4392 72.4091H70.0784C70.031 72.7382 69.9139 73.0317 69.7268 73.2898C69.5422 73.5455 69.3019 73.7467 69.0059 73.8935C68.7124 74.0402 68.3762 74.1136 67.9974 74.1136ZM73.6384 74.1136C73.1294 74.1136 72.6891 73.9953 72.3174 73.7585C71.9457 73.5194 71.6581 73.1892 71.4545 72.7678C71.2532 72.344 71.1526 71.8563 71.1526 71.3047C71.1526 70.7554 71.2532 70.2678 71.4545 69.8416C71.6581 69.4131 71.9386 69.0781 72.2961 68.8366C72.6559 68.5928 73.0714 68.4709 73.5425 68.4709C73.8385 68.4709 74.1237 68.5253 74.3983 68.6342C74.673 68.7408 74.9192 68.9053 75.137 69.1278C75.3572 69.348 75.5312 69.6262 75.659 69.9624C75.7868 70.2962 75.8508 70.6915 75.8508 71.1484V71.4609H71.5894V70.9034H75.2045C75.2045 70.553 75.1334 70.2382 74.9914 69.9588C74.8517 69.6771 74.6564 69.4545 74.4055 69.2912C74.1569 69.1278 73.8692 69.0462 73.5425 69.0462C73.1969 69.0462 72.8927 69.1385 72.6299 69.3232C72.3671 69.5078 72.1611 69.7517 72.012 70.0547C71.8652 70.3577 71.7906 70.6892 71.7883 71.049V71.3828C71.7883 71.8161 71.8628 72.1948 72.012 72.5192C72.1635 72.8411 72.3778 73.0909 72.6547 73.2685C72.9317 73.446 73.2596 73.5348 73.6384 73.5348C73.8965 73.5348 74.1225 73.4946 74.3167 73.4141C74.5132 73.3336 74.6777 73.2259 74.8103 73.0909C74.9452 72.9536 75.047 72.8033 75.1157 72.6399L75.7158 72.8352C75.633 73.0649 75.4968 73.2768 75.3074 73.4709C75.1204 73.665 74.886 73.8213 74.6043 73.9396C74.325 74.0556 74.003 74.1136 73.6384 74.1136Z" fill="#333333"/>
<defs>
<filter id="filter0_d_991_219" x="0" y="0" width="118" height="118" filterUnits="userSpaceOnUse" color-interpolation-filters="sRGB">
<feFlood flood-opacity="0" result="BackgroundImageFix"/>
<feColorMatrix in="SourceAlpha" type="matrix" values="0 0 0 0 0 0 0 0 0 0 0 0 0 0 0 0 0 0 127 0" result="hardAlpha"/>
<feOffset dy="4"/>
<feGaussianBlur stdDeviation="2"/>
<feComposite in2="hardAlpha" operator="out"/>
<feColorMatrix type="matrix" values="0 0 0 0 0 0 0 0 0 0 0 0 0 0 0 0 0 0 0.25 0"/>
<feBlend mode="normal" in2="BackgroundImageFix" result="effect1_dropShadow_991_219"/>
<feBlend mode="normal" in="SourceGraphic" in2="effect1_dropShadow_991_219" result="shape"/>
</filter>
</defs>
</svg>
