<svg width="118" height="118" viewBox="0 0 118 118" fill="none" xmlns="http://www.w3.org/2000/svg">
<g filter="url(#filter0_d_991_222)">
<rect x="4" width="110" height="110" fill="#C9C8D8" fill-opacity="0.5" shape-rendering="crispEdges"/>
</g>
<path d="M27.8758 43.5909V47H27.2437V39.7273H27.8758V42.4013H27.9326C28.0605 42.1196 28.2581 41.8946 28.5257 41.7266C28.7955 41.5585 29.1365 41.4744 29.5484 41.4744C29.9177 41.4744 30.242 41.5502 30.5214 41.7017C30.8008 41.8532 31.0186 42.0769 31.1748 42.3729C31.3311 42.6688 31.4092 43.0334 31.4092 43.4666V47H30.7735V43.5057C30.7735 43.0559 30.6481 42.7019 30.3971 42.4439C30.1485 42.1835 29.8124 42.0533 29.3886 42.0533C29.0974 42.0533 28.8382 42.1148 28.6109 42.2379C28.3836 42.361 28.2037 42.5386 28.0711 42.7706C27.9409 43.0002 27.8758 43.2737 27.8758 43.5909ZM35.279 47.1136C34.77 47.1136 34.3297 46.9953 33.958 46.7585C33.5863 46.5194 33.2987 46.1892 33.0951 45.7678C32.8939 45.344 32.7932 44.8563 32.7932 44.3047C32.7932 43.7554 32.8939 43.2678 33.0951 42.8416C33.2987 42.4131 33.5792 42.0781 33.9367 41.8366C34.2965 41.5928 34.712 41.4709 35.1831 41.4709C35.4791 41.4709 35.7644 41.5253 36.039 41.6342C36.3136 41.7408 36.5598 41.9053 36.7776 42.1278C36.9978 42.348 37.1718 42.6262 37.2996 42.9624C37.4275 43.2962 37.4914 43.6915 37.4914 44.1484V44.4609H33.23V43.9034H36.8451C36.8451 43.553 36.7741 43.2382 36.632 42.9588C36.4923 42.6771 36.297 42.4545 36.0461 42.2912C35.7975 42.1278 35.5099 42.0462 35.1831 42.0462C34.8375 42.0462 34.5333 42.1385 34.2705 42.3232C34.0077 42.5078 33.8018 42.7517 33.6526 43.0547C33.5058 43.3577 33.4313 43.6892 33.4289 44.049V44.3828C33.4289 44.8161 33.5035 45.1948 33.6526 45.5192C33.8041 45.8411 34.0184 46.0909 34.2954 46.2685C34.5724 46.446 34.9002 46.5348 35.279 46.5348C35.5371 46.5348 35.7632 46.4946 35.9573 46.4141C36.1538 46.3336 36.3183 46.2259 36.4509 46.0909C36.5858 45.9536 36.6876 45.8033 36.7563 45.6399L37.3564 45.8352C37.2736 46.0649 37.1375 46.2768 36.9481 46.4709C36.761 46.665 36.5267 46.8213 36.2449 46.9396C35.9656 47.0556 35.6436 47.1136 35.279 47.1136ZM39.5164 39.7273V47H38.8843V39.7273H39.5164ZM41.189 49.0455V41.5455H41.8034V42.5859H41.8779C41.9537 42.4226 42.0579 42.2557 42.1904 42.0852C42.323 41.9124 42.4982 41.7668 42.716 41.6484C42.9362 41.5301 43.2132 41.4709 43.547 41.4709C43.9968 41.4709 44.3898 41.5893 44.7259 41.826C45.0645 42.0604 45.3273 42.3894 45.5143 42.8132C45.7037 43.2346 45.7984 43.7259 45.7984 44.2869C45.7984 44.8504 45.7037 45.344 45.5143 45.7678C45.3273 46.1915 45.0645 46.5218 44.7259 46.7585C44.3898 46.9953 43.9991 47.1136 43.5541 47.1136C43.225 47.1136 42.9492 47.0545 42.7267 46.9361C42.5065 46.8177 42.3277 46.6721 42.1904 46.4993C42.0555 46.3241 41.9513 46.1536 41.8779 45.9879H41.8211V49.0455H41.189ZM41.814 44.2763C41.814 44.7166 41.8791 45.1072 42.0093 45.4482C42.1419 45.7867 42.3313 46.053 42.5775 46.2472C42.8261 46.4389 43.1267 46.5348 43.4795 46.5348C43.8417 46.5348 44.1471 46.4354 44.3957 46.2365C44.6466 46.0353 44.8372 45.7642 44.9674 45.4233C45.1 45.0824 45.1663 44.7 45.1663 44.2763C45.1663 43.8572 45.1012 43.4796 44.971 43.1435C44.8431 42.8073 44.6537 42.541 44.4028 42.3445C44.1518 42.1456 43.8441 42.0462 43.4795 42.0462C43.1244 42.0462 42.8225 42.142 42.574 42.3338C42.3254 42.5232 42.136 42.786 42.0058 43.1222C41.8779 43.456 41.814 43.8407 41.814 44.2763ZM50.0047 47V41.5455H50.6404V47H50.0047ZM50.3279 40.608C50.1977 40.608 50.0864 40.5642 49.9941 40.4766C49.9017 40.3866 49.8556 40.2789 49.8556 40.1534C49.8556 40.0279 49.9017 39.9214 49.9941 39.8338C50.0864 39.7438 50.1977 39.6989 50.3279 39.6989C50.4581 39.6989 50.5693 39.7438 50.6617 39.8338C50.754 39.9214 50.8002 40.0279 50.8002 40.1534C50.8002 40.2789 50.754 40.3866 50.6617 40.4766C50.5693 40.5642 50.4581 40.608 50.3279 40.608ZM52.9442 43.5909V47H52.3121V41.5455H52.9264V42.4013H52.9832C53.1111 42.1219 53.3099 41.8982 53.5798 41.7301C53.8521 41.5597 54.1882 41.4744 54.5883 41.4744C54.9553 41.4744 55.2773 41.5514 55.5542 41.7053C55.8336 41.8568 56.0502 42.0805 56.2041 42.3764C56.3604 42.6723 56.4385 43.0357 56.4385 43.4666V47H55.8064V43.5057C55.8064 43.0582 55.6809 42.7043 55.43 42.4439C55.1814 42.1835 54.8476 42.0533 54.4285 42.0533C54.1421 42.0533 53.8876 42.1148 53.665 42.2379C53.4425 42.361 53.2661 42.5386 53.1359 42.7706C53.0081 43.0002 52.9442 43.2737 52.9442 43.5909ZM63.064 41.5455V42.0959H60.461V41.5455H63.064ZM61.2742 40.2386H61.9099V45.576C61.9099 45.8033 61.949 45.982 62.0271 46.1122C62.1052 46.2401 62.207 46.3312 62.3325 46.3857C62.4579 46.4377 62.5917 46.4638 62.7338 46.4638C62.8166 46.4638 62.8876 46.459 62.9468 46.4496C63.006 46.4377 63.0581 46.4259 63.1031 46.4141L63.238 46.9858C63.1765 47.0095 63.1007 47.0308 63.0107 47.0497C62.9208 47.071 62.8095 47.0817 62.6769 47.0817C62.4449 47.0817 62.2212 47.0308 62.0058 46.929C61.7927 46.8272 61.6175 46.6757 61.4802 46.4744C61.3429 46.2732 61.2742 46.0234 61.2742 45.7251V40.2386ZM65.2488 43.5909V47H64.6167V39.7273H65.2488V42.4013H65.3057C65.4335 42.1196 65.6312 41.8946 65.8987 41.7266C66.1686 41.5585 66.5095 41.4744 66.9214 41.4744C67.2907 41.4744 67.6151 41.5502 67.8944 41.7017C68.1738 41.8532 68.3916 42.0769 68.5479 42.3729C68.7041 42.6688 68.7822 43.0334 68.7822 43.4666V47H68.1466V43.5057C68.1466 43.0559 68.0211 42.7019 67.7702 42.4439C67.5216 42.1835 67.1854 42.0533 66.7616 42.0533C66.4704 42.0533 66.2112 42.1148 65.9839 42.2379C65.7567 42.361 65.5767 42.5386 65.4442 42.7706C65.314 43.0002 65.2488 43.2737 65.2488 43.5909ZM72.6521 47.1136C72.1431 47.1136 71.7027 46.9953 71.3311 46.7585C70.9594 46.5194 70.6717 46.1892 70.4681 45.7678C70.2669 45.344 70.1663 44.8563 70.1663 44.3047C70.1663 43.7554 70.2669 43.2678 70.4681 42.8416C70.6717 42.4131 70.9523 42.0781 71.3097 41.8366C71.6696 41.5928 72.0851 41.4709 72.5562 41.4709C72.8521 41.4709 73.1374 41.5253 73.412 41.6342C73.6866 41.7408 73.9329 41.9053 74.1507 42.1278C74.3708 42.348 74.5448 42.6262 74.6727 42.9624C74.8005 43.2962 74.8644 43.6915 74.8644 44.1484V44.4609H70.6031V43.9034H74.2181C74.2181 43.553 74.1471 43.2382 74.0051 42.9588C73.8654 42.6771 73.6701 42.4545 73.4191 42.2912C73.1705 42.1278 72.8829 42.0462 72.5562 42.0462C72.2106 42.0462 71.9063 42.1385 71.6436 42.3232C71.3808 42.5078 71.1748 42.7517 71.0257 43.0547C70.8789 43.3577 70.8043 43.6892 70.8019 44.049V44.3828C70.8019 44.8161 70.8765 45.1948 71.0257 45.5192C71.1772 45.8411 71.3914 46.0909 71.6684 46.2685C71.9454 46.446 72.2733 46.5348 72.6521 46.5348C72.9101 46.5348 73.1362 46.4946 73.3303 46.4141C73.5268 46.3336 73.6914 46.2259 73.824 46.0909C73.9589 45.9536 74.0607 45.8033 74.1294 45.6399L74.7295 45.8352C74.6466 46.0649 74.5105 46.2768 74.3211 46.4709C74.1341 46.665 73.8997 46.8213 73.618 46.9396C73.3386 47.0556 73.0167 47.1136 72.6521 47.1136ZM79.077 41.5455H79.7126V47.5291C79.7126 47.8393 79.6546 48.1068 79.5386 48.3317C79.425 48.5589 79.2593 48.7341 79.0415 48.8572C78.8237 48.9827 78.5609 49.0455 78.2531 49.0455C78.2294 49.0455 78.2058 49.0455 78.1821 49.0455C78.1584 49.0455 78.1324 49.0443 78.104 49.0419L78.1111 48.4489C78.1347 48.4489 78.1572 48.4489 78.1785 48.4489C78.1998 48.4489 78.2223 48.4489 78.246 48.4489C78.5064 48.4489 78.71 48.3684 78.8568 48.2074C79.0036 48.0464 79.077 47.8203 79.077 47.5291V41.5455ZM79.3895 40.608C79.2616 40.608 79.1504 40.5642 79.0557 40.4766C78.9633 40.3866 78.9172 40.2789 78.9172 40.1534C78.9172 40.0279 78.9633 39.9214 79.0557 39.8338C79.1504 39.7438 79.2616 39.6989 79.3895 39.6989C79.5197 39.6989 79.6309 39.7438 79.7233 39.8338C79.818 39.9214 79.8653 40.0279 79.8653 40.1534C79.8653 40.2789 79.818 40.3866 79.7233 40.4766C79.6309 40.5642 79.5197 40.608 79.3895 40.608ZM83.5044 47.1136C83.0332 47.1136 82.6166 46.9941 82.2544 46.755C81.8945 46.5159 81.6128 46.1856 81.4092 45.7642C81.2056 45.3404 81.1038 44.8516 81.1038 44.2976C81.1038 43.7389 81.2056 43.2476 81.4092 42.8239C81.6128 42.3977 81.8945 42.0663 82.2544 41.8295C82.6166 41.5904 83.0332 41.4709 83.5044 41.4709C83.9755 41.4709 84.391 41.5904 84.7508 41.8295C85.1106 42.0687 85.3924 42.4001 85.596 42.8239C85.8019 43.2476 85.9049 43.7389 85.9049 44.2976C85.9049 44.8516 85.8031 45.3404 85.5995 45.7642C85.3959 46.1856 85.113 46.5159 84.7508 46.755C84.391 46.9941 83.9755 47.1136 83.5044 47.1136ZM83.5044 46.5348C83.8831 46.5348 84.2039 46.433 84.4667 46.2294C84.7295 46.0258 84.9284 45.7547 85.0633 45.4162C85.2006 45.0777 85.2693 44.7048 85.2693 44.2976C85.2693 43.8904 85.2006 43.5163 85.0633 43.1754C84.9284 42.8345 84.7295 42.5611 84.4667 42.3551C84.2039 42.1491 83.8831 42.0462 83.5044 42.0462C83.1279 42.0462 82.8071 42.1491 82.542 42.3551C82.2792 42.5611 82.0792 42.8345 81.9419 43.1754C81.8069 43.5163 81.7394 43.8904 81.7394 44.2976C81.7394 44.7048 81.8069 45.0777 81.9419 45.4162C82.0792 45.7547 82.2792 46.0258 82.542 46.2294C82.8048 46.433 83.1256 46.5348 83.5044 46.5348ZM87.4239 47V39.7273H88.0596V42.5859H88.1164C88.1874 42.4226 88.2892 42.2545 88.4218 42.0817C88.5567 41.9089 88.7331 41.7644 88.9509 41.6484C89.1711 41.5301 89.4481 41.4709 89.7819 41.4709C90.2293 41.4709 90.6223 41.5893 90.9608 41.826C91.2994 42.0604 91.5634 42.3894 91.7528 42.8132C91.9421 43.2346 92.0368 43.7259 92.0368 44.2869C92.0368 44.8504 91.9421 45.344 91.7528 45.7678C91.5657 46.1915 91.3029 46.5218 90.9644 46.7585C90.6282 46.9953 90.2376 47.1136 89.7925 47.1136C89.4611 47.1136 89.1841 47.0545 88.9616 46.9361C88.7414 46.8177 88.5638 46.6721 88.4289 46.4993C88.2939 46.3241 88.1898 46.1536 88.1164 45.9879H88.0383V47H87.4239ZM88.0489 44.2763C88.0489 44.7166 88.114 45.1072 88.2442 45.4482C88.3768 45.7867 88.5662 46.053 88.8124 46.2472C89.061 46.4389 89.3617 46.5348 89.7144 46.5348C90.0766 46.5348 90.3832 46.4354 90.6341 46.2365C90.8851 46.0353 91.0757 45.7642 91.2059 45.4233C91.3361 45.0824 91.4012 44.7 91.4012 44.2763C91.4012 43.8572 91.3361 43.4796 91.2059 43.1435C91.078 42.8073 90.8886 42.541 90.6377 42.3445C90.3867 42.1456 90.079 42.0462 89.7144 42.0462C89.3593 42.0462 89.0574 42.142 88.8089 42.3338C88.5626 42.5232 88.3744 42.786 88.2442 43.1222C88.114 43.456 88.0489 43.8407 88.0489 44.2763ZM48.3499 54.7422L47.771 54.9055C47.7142 54.7422 47.6337 54.5942 47.5296 54.4616C47.4254 54.3291 47.2893 54.2237 47.1212 54.1456C46.9555 54.0675 46.7495 54.0284 46.5033 54.0284C46.134 54.0284 45.8309 54.116 45.5942 54.2912C45.3575 54.4664 45.2391 54.6925 45.2391 54.9695C45.2391 55.2038 45.3196 55.3944 45.4806 55.5412C45.6439 55.6856 45.8949 55.8004 46.2334 55.8857L47.0573 56.0881C47.5142 56.1993 47.8563 56.3757 48.0835 56.6172C48.3132 56.8587 48.428 57.1617 48.428 57.5263C48.428 57.834 48.3428 58.1075 48.1723 58.3466C48.0019 58.5857 47.7639 58.7739 47.4585 58.9112C47.1555 59.0462 46.8039 59.1136 46.4039 59.1136C45.8712 59.1136 45.432 58.9941 45.0864 58.755C44.7407 58.5135 44.5194 58.1655 44.4223 57.7109L45.0296 57.5618C45.1077 57.8861 45.2604 58.1312 45.4877 58.2969C45.7173 58.4626 46.0191 58.5455 46.3932 58.5455C46.8122 58.5455 47.1472 58.4519 47.3982 58.2649C47.6491 58.0755 47.7746 57.8388 47.7746 57.5547C47.7746 57.3345 47.7012 57.1499 47.5544 57.0007C47.4076 56.8492 47.1851 56.7379 46.8868 56.6669L45.9955 56.4538C45.522 56.3402 45.1716 56.1603 44.9443 55.9141C44.7171 55.6679 44.6034 55.3625 44.6034 54.9979C44.6034 54.6972 44.6851 54.4332 44.8485 54.206C45.0118 53.9763 45.2367 53.7964 45.5232 53.6662C45.8096 53.536 46.1363 53.4709 46.5033 53.4709C47.0028 53.4709 47.4017 53.5845 47.7 53.8118C48.0007 54.0367 48.2173 54.3468 48.3499 54.7422ZM52.0173 59.1136C51.5083 59.1136 51.068 58.9953 50.6963 58.7585C50.3246 58.5194 50.037 58.1892 49.8334 57.7678C49.6321 57.344 49.5315 56.8563 49.5315 56.3047C49.5315 55.7554 49.6321 55.2678 49.8334 54.8416C50.037 54.4131 50.3175 54.0781 50.675 53.8366C51.0348 53.5928 51.4503 53.4709 51.9214 53.4709C52.2174 53.4709 52.5026 53.5253 52.7773 53.6342C53.0519 53.7408 53.2981 53.9053 53.5159 54.1278C53.7361 54.348 53.9101 54.6262 54.0379 54.9624C54.1657 55.2962 54.2297 55.6915 54.2297 56.1484V56.4609H49.9683V55.9034H53.5834C53.5834 55.553 53.5123 55.2382 53.3703 54.9588C53.2306 54.6771 53.0353 54.4545 52.7844 54.2912C52.5358 54.1278 52.2481 54.0462 51.9214 54.0462C51.5758 54.0462 51.2716 54.1385 51.0088 54.3232C50.746 54.5078 50.54 54.7517 50.3909 55.0547C50.2441 55.3577 50.1695 55.6892 50.1672 56.049V56.3828C50.1672 56.8161 50.2417 57.1948 50.3909 57.5192C50.5424 57.8411 50.7567 58.0909 51.0336 58.2685C51.3106 58.446 51.6385 58.5348 52.0173 58.5348C52.2754 58.5348 52.5015 58.4946 52.6956 58.4141C52.8921 58.3336 53.0566 58.2259 53.1892 58.0909C53.3241 57.9536 53.4259 57.8033 53.4946 57.6399L54.0947 57.8352C54.0119 58.0649 53.8757 58.2768 53.6863 58.4709C53.4993 58.665 53.2649 58.8213 52.9832 58.9396C52.7039 59.0556 52.3819 59.1136 52.0173 59.1136ZM57.146 59.1243C56.817 59.1243 56.5163 59.0604 56.2441 58.9325C55.9718 58.8023 55.7552 58.6153 55.5942 58.3714C55.4332 58.1252 55.3527 57.8269 55.3527 57.4766C55.3527 57.2067 55.4036 56.9794 55.5054 56.7947C55.6072 56.6101 55.7516 56.4586 55.9387 56.3402C56.1257 56.2218 56.347 56.1283 56.6027 56.0597C56.8584 55.991 57.1401 55.9377 57.4479 55.8999C57.7533 55.862 58.0113 55.8288 58.222 55.8004C58.4351 55.772 58.5973 55.727 58.7085 55.6655C58.8198 55.6039 58.8754 55.5045 58.8754 55.3672V55.2393C58.8754 54.8677 58.7642 54.5753 58.5416 54.3622C58.3215 54.1468 58.0042 54.0391 57.5899 54.0391C57.1969 54.0391 56.8762 54.1255 56.6276 54.2983C56.3814 54.4711 56.2085 54.6747 56.1091 54.9091L55.509 54.6925C55.6321 54.3942 55.8025 54.1562 56.0203 53.9787C56.2381 53.7988 56.482 53.6697 56.7519 53.5916C57.0218 53.5111 57.2952 53.4709 57.5722 53.4709C57.7805 53.4709 57.9971 53.4981 58.222 53.5526C58.4493 53.607 58.66 53.7017 58.8541 53.8366C59.0483 53.9692 59.2057 54.1551 59.3264 54.3942C59.4472 54.6309 59.5075 54.9316 59.5075 55.2962V59H58.8754V58.1371H58.8364C58.7606 58.2981 58.6482 58.4543 58.499 58.6058C58.3499 58.7573 58.1628 58.8816 57.9379 58.9787C57.713 59.0758 57.4491 59.1243 57.146 59.1243ZM57.2313 58.5455C57.5674 58.5455 57.8586 58.4709 58.1048 58.3217C58.3511 58.1726 58.5405 57.9749 58.673 57.7287C58.808 57.4801 58.8754 57.2067 58.8754 56.9084V56.12C58.8281 56.165 58.7488 56.2053 58.6375 56.2408C58.5286 56.2763 58.402 56.3082 58.2575 56.3366C58.1155 56.3627 57.9735 56.3852 57.8314 56.4041C57.6894 56.4231 57.5615 56.4396 57.4479 56.4538C57.1401 56.4917 56.8773 56.5509 56.6595 56.6314C56.4417 56.7119 56.2748 56.8232 56.1588 56.9652C56.0428 57.1049 55.9848 57.2848 55.9848 57.505C55.9848 57.8364 56.1032 58.0933 56.3399 58.2756C56.5767 58.4555 56.8738 58.5455 57.2313 58.5455ZM61.189 59V53.5455H61.8034V54.3835H61.8495C61.9584 54.1089 62.1478 53.8875 62.4177 53.7195C62.69 53.549 62.9977 53.4638 63.341 53.4638C63.3931 53.4638 63.4511 53.465 63.515 53.4673C63.5789 53.4697 63.6322 53.4721 63.6748 53.4744V54.1172C63.6464 54.1125 63.5967 54.1054 63.5257 54.0959C63.4546 54.0864 63.3777 54.0817 63.2948 54.0817C63.0107 54.0817 62.7574 54.142 62.5349 54.2628C62.3147 54.3812 62.1407 54.5457 62.0129 54.7564C61.885 54.9671 61.8211 55.2074 61.8211 55.4773V59H61.189ZM66.7181 59.1136C66.2304 59.1136 65.8055 58.9917 65.4433 58.7479C65.0834 58.504 64.8041 58.1702 64.6052 57.7464C64.4063 57.3227 64.3069 56.8397 64.3069 56.2976C64.3069 55.7507 64.4075 55.2642 64.6088 54.8381C64.8124 54.4119 65.0941 54.0781 65.4539 53.8366C65.8138 53.5928 66.2316 53.4709 66.7075 53.4709C67.0721 53.4709 67.4023 53.5419 67.6982 53.6839C67.9942 53.8236 68.238 54.0213 68.4298 54.277C68.6239 54.5303 68.7458 54.8262 68.7955 55.1648H68.1563C68.0901 54.857 67.9302 54.5942 67.6769 54.3764C67.426 54.1562 67.1064 54.0462 66.7181 54.0462C66.3701 54.0462 66.0624 54.1409 65.7948 54.3303C65.5273 54.5173 65.3178 54.7789 65.1663 55.1151C65.0171 55.4489 64.9426 55.8359 64.9426 56.2763C64.9426 56.719 65.016 57.1108 65.1627 57.4517C65.3095 57.7902 65.5155 58.0554 65.7806 58.2472C66.0481 58.4389 66.3606 58.5348 66.7181 58.5348C66.9596 58.5348 67.1798 58.4898 67.3786 58.3999C67.5799 58.3075 67.748 58.1773 67.8829 58.0092C68.0202 57.8411 68.1125 57.6411 68.1599 57.4091H68.7991C68.7517 57.7382 68.6346 58.0317 68.4475 58.2898C68.2629 58.5455 68.0226 58.7467 67.7267 58.8935C67.4331 59.0402 67.0969 59.1136 66.7181 59.1136ZM70.786 55.5909V59H70.1539V51.7273H70.786V54.4013H70.8428C70.9706 54.1196 71.1683 53.8946 71.4358 53.7266C71.7057 53.5585 72.0466 53.4744 72.4585 53.4744C72.8279 53.4744 73.1522 53.5502 73.4316 53.7017C73.7109 53.8532 73.9287 54.0769 74.085 54.3729C74.2412 54.6688 74.3193 55.0334 74.3193 55.4666V59H73.6837V55.5057C73.6837 55.0559 73.5582 54.7019 73.3073 54.4439C73.0587 54.1835 72.7225 54.0533 72.2987 54.0533C72.0075 54.0533 71.7483 54.1148 71.521 54.2379C71.2938 54.361 71.1138 54.5386 70.9813 54.7706C70.8511 55.0002 70.786 55.2737 70.786 55.5909Z" fill="#222222"/>
<defs>
<filter id="filter0_d_991_222" x="0" y="0" width="118" height="118" filterUnits="userSpaceOnUse" color-interpolation-filters="sRGB">
<feFlood flood-opacity="0" result="BackgroundImageFix"/>
<feColorMatrix in="SourceAlpha" type="matrix" values="0 0 0 0 0 0 0 0 0 0 0 0 0 0 0 0 0 0 127 0" result="hardAlpha"/>
<feOffset dy="4"/>
<feGaussianBlur stdDeviation="2"/>
<feComposite in2="hardAlpha" operator="out"/>
<feColorMatrix type="matrix" values="0 0 0 0 0 0 0 0 0 0 0 0 0 0 0 0 0 0 0.25 0"/>
<feBlend mode="normal" in2="BackgroundImageFix" result="effect1_dropShadow_991_222"/>
<feBlend mode="normal" in="SourceGraphic" in2="effect1_dropShadow_991_222" result="shape"/>
</filter>
</defs>
</svg>
