<svg width="98" height="98" viewBox="0 0 98 98" fill="none" xmlns="http://www.w3.org/2000/svg">
<path d="M10.1133 77.6154C10.3879 76.6046 9.78098 75.1992 9.20175 74.1862C9.02139 73.8841 8.82575 73.5914 8.61559 73.3092C3.64776 65.7752 0.999911 56.9491 1.00023 47.9246C0.919458 22.0208 22.3994 1 48.9609 1C72.1254 1 91.4616 17.0477 95.98 38.35C96.657 41.5083 96.9989 44.7292 97 47.9592C97 73.9 76.3485 95.2508 49.787 95.2508C45.564 95.2508 39.864 94.1892 36.7555 93.3192C33.6471 92.4492 30.5432 91.2954 29.7425 90.9862C28.9235 90.6714 28.0537 90.5094 27.1763 90.5085C26.218 90.5048 25.2688 90.6956 24.3863 91.0692L8.73329 96.7185C8.39036 96.8663 8.027 96.9612 7.6556 97C7.36251 96.9991 7.07252 96.9401 6.80241 96.8263C6.5323 96.7126 6.28745 96.5463 6.08204 96.3373C5.87663 96.1282 5.71475 95.8805 5.60576 95.6084C5.49678 95.3364 5.44286 95.0454 5.44714 94.7523C5.46639 94.4951 5.5128 94.2406 5.5856 93.9931L10.1133 77.6154Z" stroke="#CFCFDD" stroke-miterlimit="10" stroke-linecap="round"/>
<path d="M26.2553 18.1136C25.7842 18.1136 25.3675 17.9941 25.0053 17.755C24.6455 17.5159 24.3638 17.1856 24.1602 16.7642C23.9566 16.3404 23.8548 15.8516 23.8548 15.2976C23.8548 14.7389 23.9566 14.2476 24.1602 13.8239C24.3638 13.3977 24.6455 13.0663 25.0053 12.8295C25.3675 12.5904 25.7842 12.4709 26.2553 12.4709C26.7264 12.4709 27.1419 12.5904 27.5018 12.8295C27.8616 13.0687 28.1433 13.4001 28.3469 13.8239C28.5529 14.2476 28.6559 14.7389 28.6559 15.2976C28.6559 15.8516 28.5541 16.3404 28.3505 16.7642C28.1469 17.1856 27.864 17.5159 27.5018 17.755C27.1419 17.9941 26.7264 18.1136 26.2553 18.1136ZM26.2553 17.5348C26.6341 17.5348 26.9549 17.433 27.2177 17.2294C27.4805 17.0258 27.6793 16.7547 27.8143 16.4162C27.9516 16.0777 28.0202 15.7048 28.0202 15.2976C28.0202 14.8904 27.9516 14.5163 27.8143 14.1754C27.6793 13.8345 27.4805 13.5611 27.2177 13.3551C26.9549 13.1491 26.6341 13.0462 26.2553 13.0462C25.8789 13.0462 25.5581 13.1491 25.293 13.3551C25.0302 13.5611 24.8301 13.8345 24.6928 14.1754C24.5579 14.5163 24.4904 14.8904 24.4904 15.2976C24.4904 15.7048 24.5579 16.0777 24.6928 16.4162C24.8301 16.7547 25.0302 17.0258 25.293 17.2294C25.5558 17.433 25.8765 17.5348 26.2553 17.5348ZM30.0435 18V12.5455H30.6578V13.3835H30.704C30.8129 13.1089 31.0023 12.8875 31.2722 12.7195C31.5444 12.549 31.8522 12.4638 32.1955 12.4638C32.2476 12.4638 32.3056 12.465 32.3695 12.4673C32.4334 12.4697 32.4867 12.4721 32.5293 12.4744V13.1172C32.5009 13.1125 32.4512 13.1054 32.3801 13.0959C32.3091 13.0864 32.2322 13.0817 32.1493 13.0817C31.8652 13.0817 31.6119 13.142 31.3894 13.2628C31.1692 13.3812 30.9952 13.5457 30.8674 13.7564C30.7395 13.9671 30.6756 14.2074 30.6756 14.4773V18H30.0435ZM35.5229 20.1591C35.1512 20.1591 34.8257 20.1106 34.5463 20.0135C34.267 19.9188 34.0314 19.7886 33.8397 19.6229C33.6479 19.4571 33.4988 19.2713 33.3922 19.0653L33.9107 18.7244C33.9888 18.8617 34.093 18.9967 34.2232 19.1293C34.3558 19.2618 34.5274 19.3719 34.7381 19.4595C34.9512 19.5471 35.2128 19.5909 35.5229 19.5909C36.0059 19.5909 36.3953 19.4702 36.6912 19.2287C36.9895 18.9872 37.1387 18.612 37.1387 18.103V16.8743H37.0819C37.0085 17.04 36.9031 17.2057 36.7658 17.3714C36.6285 17.5348 36.4486 17.6709 36.226 17.7798C36.0059 17.8887 35.7324 17.9432 35.4057 17.9432C34.9701 17.9432 34.583 17.8355 34.2445 17.62C33.9083 17.4046 33.6432 17.0968 33.449 16.6967C33.2573 16.2943 33.1614 15.8149 33.1614 15.2585C33.1614 14.7069 33.2549 14.2216 33.4419 13.8026C33.6313 13.3835 33.8953 13.0568 34.2338 12.8224C34.5724 12.5881 34.9666 12.4709 35.4164 12.4709C35.7502 12.4709 36.0272 12.5301 36.2473 12.6484C36.4675 12.7644 36.6439 12.9089 36.7765 13.0817C36.9114 13.2545 37.0167 13.4226 37.0925 13.5859H37.1564V12.5455H37.7743V18.142C37.7743 18.6037 37.6761 18.9837 37.4796 19.282C37.2831 19.5803 37.0156 19.8004 36.677 19.9425C36.3385 20.0869 35.9538 20.1591 35.5229 20.1591ZM35.4803 17.3643C35.8307 17.3643 36.1301 17.2803 36.3787 17.1122C36.6273 16.9418 36.8179 16.6979 36.9505 16.3807C37.083 16.0634 37.1493 15.6858 37.1493 15.2479C37.1493 14.8217 37.0842 14.4441 36.954 14.1151C36.8238 13.7836 36.6344 13.5232 36.3858 13.3338C36.1396 13.142 35.8378 13.0462 35.4803 13.0462C35.1157 13.0462 34.8079 13.1444 34.557 13.3409C34.306 13.5374 34.1167 13.8026 33.9888 14.1364C33.861 14.4678 33.7971 14.8383 33.7971 15.2479C33.7971 15.6645 33.8622 16.0327 33.9924 16.3523C34.1226 16.6695 34.3132 16.9181 34.5641 17.098C34.815 17.2756 35.1204 17.3643 35.4803 17.3643ZM40.9712 18.1243C40.6422 18.1243 40.3415 18.0604 40.0692 17.9325C39.797 17.8023 39.5804 17.6153 39.4194 17.3714C39.2584 17.1252 39.1779 16.8269 39.1779 16.4766C39.1779 16.2067 39.2288 15.9794 39.3306 15.7947C39.4324 15.6101 39.5768 15.4586 39.7638 15.3402C39.9509 15.2218 40.1722 15.1283 40.4279 15.0597C40.6836 14.991 40.9653 14.9377 41.2731 14.8999C41.5785 14.862 41.8365 14.8288 42.0472 14.8004C42.2603 14.772 42.4225 14.727 42.5337 14.6655C42.645 14.6039 42.7006 14.5045 42.7006 14.3672V14.2393C42.7006 13.8677 42.5894 13.5753 42.3668 13.3622C42.1467 13.1468 41.8294 13.0391 41.4151 13.0391C41.0221 13.0391 40.7013 13.1255 40.4528 13.2983C40.2066 13.4711 40.0337 13.6747 39.9343 13.9091L39.3342 13.6925C39.4573 13.3942 39.6277 13.1562 39.8455 12.9787C40.0633 12.7988 40.3072 12.6697 40.5771 12.5916C40.8469 12.5111 41.1204 12.4709 41.3974 12.4709C41.6057 12.4709 41.8223 12.4981 42.0472 12.5526C42.2745 12.607 42.4852 12.7017 42.6793 12.8366C42.8735 12.9692 43.0309 13.1551 43.1516 13.3942C43.2724 13.6309 43.3327 13.9316 43.3327 14.2962V18H42.7006V17.1371H42.6616C42.5858 17.2981 42.4734 17.4543 42.3242 17.6058C42.1751 17.7573 41.988 17.8816 41.7631 17.9787C41.5382 18.0758 41.2743 18.1243 40.9712 18.1243ZM41.0565 17.5455C41.3926 17.5455 41.6838 17.4709 41.93 17.3217C42.1763 17.1726 42.3656 16.9749 42.4982 16.7287C42.6332 16.4801 42.7006 16.2067 42.7006 15.9084V15.12C42.6533 15.165 42.574 15.2053 42.4627 15.2408C42.3538 15.2763 42.2272 15.3082 42.0827 15.3366C41.9407 15.3627 41.7987 15.3852 41.6566 15.4041C41.5146 15.4231 41.3867 15.4396 41.2731 15.4538C40.9653 15.4917 40.7025 15.5509 40.4847 15.6314C40.2669 15.7119 40.1 15.8232 39.984 15.9652C39.868 16.1049 39.81 16.2848 39.81 16.505C39.81 16.8364 39.9284 17.0933 40.1651 17.2756C40.4019 17.4555 40.699 17.5455 41.0565 17.5455ZM45.6463 14.5909V18H45.0142V12.5455H45.6286V13.4013H45.6854C45.8132 13.1219 46.0121 12.8982 46.282 12.7301C46.5542 12.5597 46.8904 12.4744 47.2905 12.4744C47.6574 12.4744 47.9794 12.5514 48.2564 12.7053C48.5357 12.8568 48.7524 13.0805 48.9062 13.3764C49.0625 13.6723 49.1406 14.0357 49.1406 14.4666V18H48.5085V14.5057C48.5085 14.0582 48.383 13.7043 48.1321 13.4439C47.8835 13.1835 47.5497 13.0533 47.1307 13.0533C46.8442 13.0533 46.5897 13.1148 46.3672 13.2379C46.1446 13.361 45.9683 13.5386 45.8381 13.7706C45.7102 14.0002 45.6463 14.2737 45.6463 14.5909ZM50.8123 18V12.5455H51.448V18H50.8123ZM51.1355 11.608C51.0053 11.608 50.894 11.5642 50.8017 11.4766C50.7093 11.3866 50.6632 11.2789 50.6632 11.1534C50.6632 11.0279 50.7093 10.9214 50.8017 10.8338C50.894 10.7438 51.0053 10.6989 51.1355 10.6989C51.2657 10.6989 51.377 10.7438 51.4693 10.8338C51.5616 10.9214 51.6078 11.0279 51.6078 11.1534C51.6078 11.2789 51.5616 11.3866 51.4693 11.4766C51.377 11.5642 51.2657 11.608 51.1355 11.608ZM52.9492 18V17.4993L56.1026 13.1882V13.142H53.0842V12.5455H56.9158V13.0675L53.8192 17.3572V17.4034H57.0295V18H52.9492ZM58.4295 18V12.5455H59.0652V18H58.4295ZM58.7527 11.608C58.6225 11.608 58.5112 11.5642 58.4189 11.4766C58.3265 11.3866 58.2804 11.2789 58.2804 11.1534C58.2804 11.0279 58.3265 10.9214 58.4189 10.8338C58.5112 10.7438 58.6225 10.6989 58.7527 10.6989C58.8829 10.6989 58.9941 10.7438 59.0865 10.8338C59.1788 10.9214 59.225 11.0279 59.225 11.1534C59.225 11.2789 59.1788 11.3866 59.0865 11.4766C58.9941 11.5642 58.8829 11.608 58.7527 11.608ZM61.369 14.5909V18H60.7369V12.5455H61.3512V13.4013H61.408C61.5359 13.1219 61.7347 12.8982 62.0046 12.7301C62.2769 12.5597 62.613 12.4744 63.0131 12.4744C63.3801 12.4744 63.7021 12.5514 63.979 12.7053C64.2584 12.8568 64.475 13.0805 64.6289 13.3764C64.7852 13.6723 64.8633 14.0357 64.8633 14.4666V18H64.2312V14.5057C64.2312 14.0582 64.1057 13.7043 63.8548 13.4439C63.6062 13.1835 63.2724 13.0533 62.8533 13.0533C62.5669 13.0533 62.3124 13.1148 62.0898 13.2379C61.8673 13.361 61.6909 13.5386 61.5607 13.7706C61.4329 14.0002 61.369 14.2737 61.369 14.5909ZM68.6088 20.1591C68.2372 20.1591 67.9116 20.1106 67.6323 20.0135C67.3529 19.9188 67.1174 19.7886 66.9256 19.6229C66.7338 19.4571 66.5847 19.2713 66.4782 19.0653L66.9966 18.7244C67.0748 18.8617 67.1789 18.9967 67.3091 19.1293C67.4417 19.2618 67.6133 19.3719 67.824 19.4595C68.0371 19.5471 68.2987 19.5909 68.6088 19.5909C69.0918 19.5909 69.4812 19.4702 69.7772 19.2287C70.0755 18.9872 70.2246 18.612 70.2246 18.103V16.8743H70.1678C70.0944 17.04 69.9891 17.2057 69.8517 17.3714C69.7144 17.5348 69.5345 17.6709 69.312 17.7798C69.0918 17.8887 68.8184 17.9432 68.4917 17.9432C68.056 17.9432 67.669 17.8355 67.3304 17.62C66.9943 17.4046 66.7291 17.0968 66.535 16.6967C66.3432 16.2943 66.2473 15.8149 66.2473 15.2585C66.2473 14.7069 66.3408 14.2216 66.5279 13.8026C66.7173 13.3835 66.9812 13.0568 67.3198 12.8224C67.6583 12.5881 68.0525 12.4709 68.5023 12.4709C68.8361 12.4709 69.1131 12.5301 69.3333 12.6484C69.5534 12.7644 69.7298 12.9089 69.8624 13.0817C69.9973 13.2545 70.1027 13.4226 70.1784 13.5859H70.2424V12.5455H70.8603V18.142C70.8603 18.6037 70.762 18.9837 70.5655 19.282C70.369 19.5803 70.1015 19.8004 69.763 19.9425C69.4244 20.0869 69.0397 20.1591 68.6088 20.1591ZM68.5662 17.3643C68.9166 17.3643 69.2161 17.2803 69.4647 17.1122C69.7132 16.9418 69.9038 16.6979 70.0364 16.3807C70.169 16.0634 70.2353 15.6858 70.2353 15.2479C70.2353 14.8217 70.1702 14.4441 70.04 14.1151C69.9097 13.7836 69.7203 13.5232 69.4718 13.3338C69.2256 13.142 68.9237 13.0462 68.5662 13.0462C68.2016 13.0462 67.8939 13.1444 67.6429 13.3409C67.392 13.5374 67.2026 13.8026 67.0748 14.1364C66.9469 14.4678 66.883 14.8383 66.883 15.2479C66.883 15.6645 66.9481 16.0327 67.0783 16.3523C67.2085 16.6695 67.3991 16.9181 67.65 17.098C67.901 17.2756 68.2064 17.3643 68.5662 17.3643ZM24.9232 30.1136C24.4355 30.1136 24.0106 29.9917 23.6483 29.7479C23.2885 29.504 23.0091 29.1702 22.8103 28.7464C22.6114 28.3227 22.512 27.8397 22.512 27.2976C22.512 26.7507 22.6126 26.2642 22.8138 25.8381C23.0174 25.4119 23.2992 25.0781 23.659 24.8366C24.0189 24.5928 24.4367 24.4709 24.9126 24.4709C25.2771 24.4709 25.6074 24.5419 25.9033 24.6839C26.1992 24.8236 26.4431 25.0213 26.6349 25.277C26.829 25.5303 26.9509 25.8262 27.0006 26.1648H26.3614C26.2951 25.857 26.1353 25.5942 25.882 25.3764C25.6311 25.1562 25.3115 25.0462 24.9232 25.0462C24.5752 25.0462 24.2674 25.1409 23.9999 25.3303C23.7324 25.5173 23.5229 25.7789 23.3714 26.1151C23.2222 26.4489 23.1476 26.8359 23.1476 27.2763C23.1476 27.719 23.221 28.1108 23.3678 28.4517C23.5146 28.7902 23.7206 29.0554 23.9857 29.2472C24.2532 29.4389 24.5657 29.5348 24.9232 29.5348C25.1647 29.5348 25.3849 29.4898 25.5837 29.3999C25.7849 29.3075 25.953 29.1773 26.088 29.0092C26.2253 28.8411 26.3176 28.6411 26.365 28.4091H27.0042C26.9568 28.7382 26.8396 29.0317 26.6526 29.2898C26.468 29.5455 26.2277 29.7467 25.9317 29.8935C25.6382 30.0402 25.302 30.1136 24.9232 30.1136ZM30.479 30.1136C30.0078 30.1136 29.5912 29.9941 29.229 29.755C28.8691 29.5159 28.5874 29.1856 28.3838 28.7642C28.1802 28.3404 28.0784 27.8516 28.0784 27.2976C28.0784 26.7389 28.1802 26.2476 28.3838 25.8239C28.5874 25.3977 28.8691 25.0663 29.229 24.8295C29.5912 24.5904 30.0078 24.4709 30.479 24.4709C30.9501 24.4709 31.3656 24.5904 31.7254 24.8295C32.0853 25.0687 32.367 25.4001 32.5706 25.8239C32.7765 26.2476 32.8795 26.7389 32.8795 27.2976C32.8795 27.8516 32.7777 28.3404 32.5741 28.7642C32.3705 29.1856 32.0876 29.5159 31.7254 29.755C31.3656 29.9941 30.9501 30.1136 30.479 30.1136ZM30.479 29.5348C30.8577 29.5348 31.1785 29.433 31.4413 29.2294C31.7041 29.0258 31.903 28.7547 32.0379 28.4162C32.1752 28.0777 32.2439 27.7048 32.2439 27.2976C32.2439 26.8904 32.1752 26.5163 32.0379 26.1754C31.903 25.8345 31.7041 25.5611 31.4413 25.3551C31.1785 25.1491 30.8577 25.0462 30.479 25.0462C30.1025 25.0462 29.7818 25.1491 29.5166 25.3551C29.2538 25.5611 29.0538 25.8345 28.9165 26.1754C28.7815 26.5163 28.714 26.8904 28.714 27.2976C28.714 27.7048 28.7815 28.0777 28.9165 28.4162C29.0538 28.7547 29.2538 29.0258 29.5166 29.2294C29.7794 29.433 30.1002 29.5348 30.479 29.5348ZM37.733 27.9155V24.5455H38.3651V30H37.733V29.0945H37.6833C37.5555 29.3738 37.3531 29.607 37.0761 29.794C36.7991 29.9787 36.4606 30.071 36.0605 30.071C35.7124 30.071 35.4035 29.9953 35.1336 29.8438C34.8637 29.6899 34.6518 29.465 34.498 29.169C34.3441 28.8731 34.2671 28.5097 34.2671 28.0788V24.5455H34.8992V28.0398C34.8992 28.4659 35.0247 28.8092 35.2757 29.0696C35.5266 29.3277 35.8486 29.4567 36.2416 29.4567C36.4878 29.4567 36.7245 29.3975 36.9518 29.2791C37.1791 29.1607 37.3661 28.9879 37.5129 28.7607C37.6597 28.531 37.733 28.2493 37.733 27.9155ZM40.0386 30V24.5455H40.653V25.3835H40.6991C40.808 25.1089 40.9974 24.8875 41.2673 24.7195C41.5396 24.549 41.8473 24.4638 42.1906 24.4638C42.2427 24.4638 42.3007 24.465 42.3646 24.4673C42.4285 24.4697 42.4818 24.4721 42.5244 24.4744V25.1172C42.496 25.1125 42.4463 25.1054 42.3753 25.0959C42.3042 25.0864 42.2273 25.0817 42.1444 25.0817C41.8604 25.0817 41.607 25.142 41.3845 25.2628C41.1643 25.3812 40.9903 25.5457 40.8625 25.7564C40.7346 25.9671 40.6707 26.2074 40.6707 26.4773V30H40.0386ZM47.2678 25.7422L46.689 25.9055C46.6322 25.7422 46.5517 25.5942 46.4475 25.4616C46.3434 25.3291 46.2072 25.2237 46.0392 25.1456C45.8734 25.0675 45.6675 25.0284 45.4213 25.0284C45.0519 25.0284 44.7489 25.116 44.5122 25.2912C44.2754 25.4664 44.157 25.6925 44.157 25.9695C44.157 26.2038 44.2375 26.3944 44.3985 26.5412C44.5619 26.6856 44.8128 26.8004 45.1514 26.8857L45.9752 27.0881C46.4321 27.1993 46.7742 27.3757 47.0015 27.6172C47.2311 27.8587 47.346 28.1617 47.346 28.5263C47.346 28.834 47.2607 29.1075 47.0903 29.3466C46.9198 29.5857 46.6819 29.7739 46.3765 29.9112C46.0735 30.0462 45.7219 30.1136 45.3218 30.1136C44.7892 30.1136 44.35 29.9941 44.0044 29.755C43.6587 29.5135 43.4374 29.1655 43.3403 28.7109L43.9475 28.5618C44.0257 28.8861 44.1784 29.1312 44.4056 29.2969C44.6353 29.4626 44.9371 29.5455 45.3112 29.5455C45.7302 29.5455 46.0652 29.4519 46.3161 29.2649C46.5671 29.0755 46.6926 28.8388 46.6926 28.5547C46.6926 28.3345 46.6192 28.1499 46.4724 28.0007C46.3256 27.8492 46.1031 27.7379 45.8048 27.6669L44.9134 27.4538C44.44 27.3402 44.0896 27.1603 43.8623 26.9141C43.635 26.6679 43.5214 26.3625 43.5214 25.9979C43.5214 25.6972 43.6031 25.4332 43.7664 25.206C43.9298 24.9763 44.1547 24.7964 44.4411 24.6662C44.7276 24.536 45.0543 24.4709 45.4213 24.4709C45.9208 24.4709 46.3197 24.5845 46.618 24.8118C46.9186 25.0367 47.1353 25.3468 47.2678 25.7422ZM50.9353 30.1136C50.4263 30.1136 49.9859 29.9953 49.6143 29.7585C49.2426 29.5194 48.9549 29.1892 48.7513 28.7678C48.5501 28.344 48.4495 27.8563 48.4495 27.3047C48.4495 26.7554 48.5501 26.2678 48.7513 25.8416C48.9549 25.4131 49.2355 25.0781 49.593 24.8366C49.9528 24.5928 50.3683 24.4709 50.8394 24.4709C51.1353 24.4709 51.4206 24.5253 51.6952 24.6342C51.9698 24.7408 52.2161 24.9053 52.4339 25.1278C52.654 25.348 52.828 25.6262 52.9559 25.9624C53.0837 26.2962 53.1476 26.6915 53.1476 27.1484V27.4609H48.8863V26.9034H52.5013C52.5013 26.553 52.4303 26.2382 52.2883 25.9588C52.1486 25.6771 51.9533 25.4545 51.7023 25.2912C51.4537 25.1278 51.1661 25.0462 50.8394 25.0462C50.4938 25.0462 50.1895 25.1385 49.9268 25.3232C49.664 25.5078 49.458 25.7517 49.3089 26.0547C49.1621 26.3577 49.0875 26.6892 49.0851 27.049V27.3828C49.0851 27.8161 49.1597 28.1948 49.3089 28.5192C49.4604 28.8411 49.6746 29.0909 49.9516 29.2685C50.2286 29.446 50.5565 29.5348 50.9353 29.5348C51.1933 29.5348 51.4194 29.4946 51.6135 29.4141C51.81 29.3336 51.9746 29.2259 52.1072 29.0909C52.2421 28.9536 52.3439 28.8033 52.4126 28.6399L53.0127 28.8352C52.9298 29.0649 52.7937 29.2768 52.6043 29.4709C52.4173 29.665 52.1829 29.8213 51.9012 29.9396C51.6218 30.0556 51.2999 30.1136 50.9353 30.1136ZM58.2053 25.7422L57.6265 25.9055C57.5697 25.7422 57.4892 25.5942 57.385 25.4616C57.2809 25.3291 57.1447 25.2237 56.9767 25.1456C56.8109 25.0675 56.605 25.0284 56.3588 25.0284C55.9894 25.0284 55.6864 25.116 55.4497 25.2912C55.2129 25.4664 55.0945 25.6925 55.0945 25.9695C55.0945 26.2038 55.175 26.3944 55.336 26.5412C55.4994 26.6856 55.7503 26.8004 56.0889 26.8857L56.9127 27.0881C57.3696 27.1993 57.7117 27.3757 57.939 27.6172C58.1686 27.8587 58.2835 28.1617 58.2835 28.5263C58.2835 28.834 58.1982 29.1075 58.0278 29.3466C57.8573 29.5857 57.6194 29.7739 57.314 29.9112C57.011 30.0462 56.6594 30.1136 56.2593 30.1136C55.7267 30.1136 55.2875 29.9941 54.9419 29.755C54.5962 29.5135 54.3749 29.1655 54.2778 28.7109L54.885 28.5618C54.9632 28.8861 55.1159 29.1312 55.3431 29.2969C55.5728 29.4626 55.8746 29.5455 56.2487 29.5455C56.6677 29.5455 57.0027 29.4519 57.2536 29.2649C57.5046 29.0755 57.6301 28.8388 57.6301 28.5547C57.6301 28.3345 57.5567 28.1499 57.4099 28.0007C57.2631 27.8492 57.0406 27.7379 56.7423 27.6669L55.8509 27.4538C55.3775 27.3402 55.0271 27.1603 54.7998 26.9141C54.5725 26.6679 54.4589 26.3625 54.4589 25.9979C54.4589 25.6972 54.5406 25.4332 54.7039 25.206C54.8673 24.9763 55.0922 24.7964 55.3786 24.6662C55.6651 24.536 55.9918 24.4709 56.3588 24.4709C56.8583 24.4709 57.2572 24.5845 57.5555 24.8118C57.8561 25.0367 58.0728 25.3468 58.2053 25.7422ZM62.6114 30V22.7273H63.2471V25.5859H63.3039C63.3749 25.4226 63.4767 25.2545 63.6093 25.0817C63.7442 24.9089 63.9206 24.7644 64.1384 24.6484C64.3586 24.5301 64.6356 24.4709 64.9694 24.4709C65.4168 24.4709 65.8098 24.5893 66.1483 24.826C66.4869 25.0604 66.7509 25.3894 66.9403 25.8132C67.1296 26.2346 67.2243 26.7259 67.2243 27.2869C67.2243 27.8504 67.1296 28.344 66.9403 28.7678C66.7532 29.1915 66.4904 29.5218 66.1519 29.7585C65.8157 29.9953 65.4251 30.1136 64.98 30.1136C64.6486 30.1136 64.3716 30.0545 64.1491 29.9361C63.9289 29.8177 63.7513 29.6721 63.6164 29.4993C63.4814 29.3241 63.3773 29.1536 63.3039 28.9879H63.2258V30H62.6114ZM63.2364 27.2763C63.2364 27.7166 63.3015 28.1072 63.4317 28.4482C63.5643 28.7867 63.7537 29.053 63.9999 29.2472C64.2485 29.4389 64.5492 29.5348 64.9019 29.5348C65.2641 29.5348 65.5707 29.4354 65.8216 29.2365C66.0726 29.0353 66.2632 28.7642 66.3934 28.4233C66.5236 28.0824 66.5887 27.7 66.5887 27.2763C66.5887 26.8572 66.5236 26.4796 66.3934 26.1435C66.2655 25.8073 66.0761 25.541 65.8252 25.3445C65.5742 25.1456 65.2665 25.0462 64.9019 25.0462C64.5468 25.0462 64.2449 25.142 63.9964 25.3338C63.7501 25.5232 63.5619 25.786 63.4317 26.1222C63.3015 26.456 63.2364 26.8407 63.2364 27.2763ZM68.8579 32.0455C68.7324 32.0455 68.6152 32.0336 68.5063 32.0099C68.3974 31.9863 68.311 31.9602 68.2471 31.9318L68.4175 31.3743C68.633 31.4406 68.8247 31.4643 68.9928 31.4453C69.1609 31.4287 69.31 31.353 69.4403 31.218C69.5705 31.0855 69.6865 30.8819 69.7883 30.6072L69.9871 30.0533L67.9807 24.5455H68.6661L70.2854 29.1655H70.3351L71.9545 24.5455H72.6398L70.3316 30.8629C70.2345 31.1257 70.115 31.3447 69.9729 31.5199C69.8309 31.6974 69.6663 31.8288 69.4793 31.9141C69.2947 32.0017 69.0875 32.0455 68.8579 32.0455ZM7.48979 42V36.5455H8.10414V37.3835H8.16096C8.26986 37.1018 8.45096 36.8804 8.70428 36.7195C8.95996 36.5561 9.26654 36.4744 9.62402 36.4744C10.0004 36.4744 10.3094 36.5632 10.5509 36.7408C10.7947 36.916 10.977 37.1574 11.0977 37.4652H11.1439C11.267 37.1622 11.4671 36.9219 11.7441 36.7443C12.0234 36.5644 12.3619 36.4744 12.7597 36.4744C13.2663 36.4744 13.6664 36.6342 13.96 36.9538C14.2535 37.2711 14.4003 37.7351 14.4003 38.3459V42H13.7682V38.3459C13.7682 37.915 13.6581 37.5919 13.4379 37.3764C13.2178 37.161 12.9278 37.0533 12.5679 37.0533C12.1512 37.0533 11.8305 37.1811 11.6056 37.4368C11.3807 37.6925 11.2682 38.0168 11.2682 38.4098V42H10.6219V38.2891C10.6219 37.9197 10.5189 37.6214 10.3129 37.3942C10.107 37.1669 9.81697 37.0533 9.44292 37.0533C9.19197 37.0533 8.96588 37.1148 8.76465 37.2379C8.56578 37.361 8.40835 37.5327 8.29235 37.7528C8.17871 37.9706 8.12189 38.2216 8.12189 38.5057V42H7.48979ZM18.1938 42.1136C17.7227 42.1136 17.306 41.9941 16.9438 41.755C16.584 41.5159 16.3022 41.1856 16.0986 40.7642C15.895 40.3404 15.7932 39.8516 15.7932 39.2976C15.7932 38.7389 15.895 38.2476 16.0986 37.8239C16.3022 37.3977 16.584 37.0663 16.9438 36.8295C17.306 36.5904 17.7227 36.4709 18.1938 36.4709C18.6649 36.4709 19.0804 36.5904 19.4403 36.8295C19.8001 37.0687 20.0818 37.4001 20.2854 37.8239C20.4914 38.2476 20.5944 38.7389 20.5944 39.2976C20.5944 39.8516 20.4926 40.3404 20.289 40.7642C20.0854 41.1856 19.8025 41.5159 19.4403 41.755C19.0804 41.9941 18.6649 42.1136 18.1938 42.1136ZM18.1938 41.5348C18.5726 41.5348 18.8934 41.433 19.1562 41.2294C19.4189 41.0258 19.6178 40.7547 19.7528 40.4162C19.8901 40.0777 19.9587 39.7048 19.9587 39.2976C19.9587 38.8904 19.8901 38.5163 19.7528 38.1754C19.6178 37.8345 19.4189 37.5611 19.1562 37.3551C18.8934 37.1491 18.5726 37.0462 18.1938 37.0462C17.8174 37.0462 17.4966 37.1491 17.2314 37.3551C16.9687 37.5611 16.7686 37.8345 16.6313 38.1754C16.4964 38.5163 16.4289 38.8904 16.4289 39.2976C16.4289 39.7048 16.4964 40.0777 16.6313 40.4162C16.7686 40.7547 16.9687 41.0258 17.2314 41.2294C17.4942 41.433 17.815 41.5348 18.1938 41.5348ZM23.9458 42.1136C23.4983 42.1136 23.1065 41.9953 22.7703 41.7585C22.4342 41.5218 22.1714 41.1915 21.982 40.7678C21.795 40.344 21.7014 39.8504 21.7014 39.2869C21.7014 38.7259 21.795 38.2346 21.982 37.8132C22.1714 37.3894 22.4353 37.0604 22.7739 36.826C23.1124 36.5893 23.5066 36.4709 23.9564 36.4709C24.2878 36.4709 24.5637 36.5301 24.7838 36.6484C25.004 36.7644 25.1804 36.9089 25.3129 37.0817C25.4455 37.2545 25.5485 37.4226 25.6219 37.5859H25.6787V34.7273H26.3144V42H25.6965V40.9879H25.6219C25.5485 41.1536 25.4443 41.3241 25.3094 41.4993C25.1744 41.6721 24.9957 41.8177 24.7732 41.9361C24.553 42.0545 24.2772 42.1136 23.9458 42.1136ZM24.0203 41.5348C24.3731 41.5348 24.6737 41.4389 24.9223 41.2472C25.1709 41.053 25.3603 40.7867 25.4905 40.4482C25.6231 40.1072 25.6894 39.7166 25.6894 39.2763C25.6894 38.8407 25.6243 38.456 25.4941 38.1222C25.3638 37.786 25.1744 37.5232 24.9259 37.3338C24.6773 37.142 24.3754 37.0462 24.0203 37.0462C23.6557 37.0462 23.348 37.1456 23.097 37.3445C22.8485 37.541 22.6591 37.8073 22.5289 38.1435C22.401 38.4796 22.3371 38.8572 22.3371 39.2763C22.3371 39.7 22.4022 40.0824 22.5324 40.4233C22.6626 40.7642 22.852 41.0353 23.1006 41.2365C23.3515 41.4354 23.6581 41.5348 24.0203 41.5348ZM31.5807 39.9155V36.5455H32.2128V42H31.5807V41.0945H31.531C31.4031 41.3738 31.2007 41.607 30.9237 41.794C30.6468 41.9787 30.3082 42.071 29.9081 42.071C29.5601 42.071 29.2512 41.9953 28.9813 41.8438C28.7114 41.6899 28.4995 41.465 28.3456 41.169C28.1917 40.8731 28.1148 40.5097 28.1148 40.0788V36.5455H28.7469V40.0398C28.7469 40.4659 28.8724 40.8092 29.1233 41.0696C29.3743 41.3277 29.6962 41.4567 30.0892 41.4567C30.3354 41.4567 30.5722 41.3975 30.7994 41.2791C31.0267 41.1607 31.2137 40.9879 31.3605 40.7607C31.5073 40.531 31.5807 40.2493 31.5807 39.9155ZM34.5184 34.7273V42H33.8863V34.7273H34.5184ZM38.3962 42.1136C37.8872 42.1136 37.4469 41.9953 37.0752 41.7585C36.7035 41.5194 36.4159 41.1892 36.2123 40.7678C36.011 40.344 35.9104 39.8563 35.9104 39.3047C35.9104 38.7554 36.011 38.2678 36.2123 37.8416C36.4159 37.4131 36.6964 37.0781 37.0539 36.8366C37.4137 36.5928 37.8292 36.4709 38.3003 36.4709C38.5963 36.4709 38.8815 36.5253 39.1562 36.6342C39.4308 36.7408 39.677 36.9053 39.8948 37.1278C40.115 37.348 40.289 37.6262 40.4168 37.9624C40.5447 38.2962 40.6086 38.6915 40.6086 39.1484V39.4609H36.3472V38.9034H39.9623C39.9623 38.553 39.8912 38.2382 39.7492 37.9588C39.6095 37.6771 39.4142 37.4545 39.1633 37.2912C38.9147 37.1278 38.627 37.0462 38.3003 37.0462C37.9547 37.0462 37.6505 37.1385 37.3877 37.3232C37.1249 37.5078 36.9189 37.7517 36.7698 38.0547C36.623 38.3577 36.5484 38.6892 36.5461 39.049V39.3828C36.5461 39.8161 36.6206 40.1948 36.7698 40.5192C36.9213 40.8411 37.1356 41.0909 37.4126 41.2685C37.6895 41.446 38.0174 41.5348 38.3962 41.5348C38.6543 41.5348 38.8804 41.4946 39.0745 41.4141C39.271 41.3336 39.4355 41.2259 39.5681 41.0909C39.703 40.9536 39.8048 40.8033 39.8735 40.6399L40.4736 40.8352C40.3908 41.0649 40.2546 41.2768 40.0653 41.4709C39.8782 41.665 39.6439 41.8213 39.3621 41.9396C39.0828 42.0556 38.7608 42.1136 38.3962 42.1136ZM45.6663 37.7422L45.0874 37.9055C45.0306 37.7422 44.9501 37.5942 44.846 37.4616C44.7418 37.3291 44.6057 37.2237 44.4376 37.1456C44.2719 37.0675 44.0659 37.0284 43.8197 37.0284C43.4504 37.0284 43.1473 37.116 42.9106 37.2912C42.6739 37.4664 42.5555 37.6925 42.5555 37.9695C42.5555 38.2038 42.636 38.3944 42.797 38.5412C42.9603 38.6856 43.2113 38.8004 43.5498 38.8857L44.3737 39.0881C44.8306 39.1993 45.1727 39.3757 45.3999 39.6172C45.6296 39.8587 45.7444 40.1617 45.7444 40.5263C45.7444 40.834 45.6592 41.1075 45.4887 41.3466C45.3183 41.5857 45.0803 41.7739 44.7749 41.9112C44.4719 42.0462 44.1204 42.1136 43.7203 42.1136C43.1876 42.1136 42.7484 41.9941 42.4028 41.755C42.0571 41.5135 41.8358 41.1655 41.7387 40.7109L42.346 40.5618C42.4241 40.8861 42.5768 41.1312 42.8041 41.2969C43.0337 41.4626 43.3356 41.5455 43.7096 41.5455C44.1286 41.5455 44.4636 41.4519 44.7146 41.2649C44.9655 41.0755 45.091 40.8388 45.091 40.5547C45.091 40.3345 45.0176 40.1499 44.8708 40.0007C44.724 39.8492 44.5015 39.7379 44.2032 39.6669L43.3119 39.4538C42.8384 39.3402 42.488 39.1603 42.2607 38.9141C42.0335 38.6679 41.9198 38.3625 41.9198 37.9979C41.9198 37.6972 42.0015 37.4332 42.1649 37.206C42.3282 36.9763 42.5531 36.7964 42.8396 36.6662C43.126 36.536 43.4527 36.4709 43.8197 36.4709C44.3192 36.4709 44.7181 36.5845 45.0164 36.8118C45.3171 37.0367 45.5337 37.3468 45.6663 37.7422ZM49.49 34.3864L47.1462 43.0938H46.5532L48.8969 34.3864H49.49ZM55.5464 36.5455V37.0959H52.9434V36.5455H55.5464ZM53.7567 35.2386H54.3923V40.576C54.3923 40.8033 54.4314 40.982 54.5095 41.1122C54.5876 41.2401 54.6894 41.3312 54.8149 41.3857C54.9404 41.4377 55.0741 41.4638 55.2162 41.4638C55.299 41.4638 55.3701 41.459 55.4292 41.4496C55.4884 41.4377 55.5405 41.4259 55.5855 41.4141L55.7204 41.9858C55.6589 42.0095 55.5831 42.0308 55.4932 42.0497C55.4032 42.071 55.2919 42.0817 55.1594 42.0817C54.9273 42.0817 54.7036 42.0308 54.4882 41.929C54.2751 41.8272 54.0999 41.6757 53.9626 41.4744C53.8253 41.2732 53.7567 41.0234 53.7567 40.7251V35.2386ZM59.0434 42.1136C58.5723 42.1136 58.1556 41.9941 57.7934 41.755C57.4336 41.5159 57.1518 41.1856 56.9482 40.7642C56.7446 40.3404 56.6428 39.8516 56.6428 39.2976C56.6428 38.7389 56.7446 38.2476 56.9482 37.8239C57.1518 37.3977 57.4336 37.0663 57.7934 36.8295C58.1556 36.5904 58.5723 36.4709 59.0434 36.4709C59.5145 36.4709 59.93 36.5904 60.2899 36.8295C60.6497 37.0687 60.9314 37.4001 61.135 37.8239C61.341 38.2476 61.444 38.7389 61.444 39.2976C61.444 39.8516 61.3422 40.3404 61.1386 40.7642C60.935 41.1856 60.6521 41.5159 60.2899 41.755C59.93 41.9941 59.5145 42.1136 59.0434 42.1136ZM59.0434 41.5348C59.4222 41.5348 59.743 41.433 60.0058 41.2294C60.2686 41.0258 60.4674 40.7547 60.6024 40.4162C60.7397 40.0777 60.8083 39.7048 60.8083 39.2976C60.8083 38.8904 60.7397 38.5163 60.6024 38.1754C60.4674 37.8345 60.2686 37.5611 60.0058 37.3551C59.743 37.1491 59.4222 37.0462 59.0434 37.0462C58.667 37.0462 58.3462 37.1491 58.0811 37.3551C57.8183 37.5611 57.6182 37.8345 57.4809 38.1754C57.346 38.5163 57.2785 38.8904 57.2785 39.2976C57.2785 39.7048 57.346 40.0777 57.4809 40.4162C57.6182 40.7547 57.8183 41.0258 58.0811 41.2294C58.3438 41.433 58.6646 41.5348 59.0434 41.5348ZM62.8316 44.0455V36.5455H63.4459V37.5859H63.5205C63.5963 37.4226 63.7004 37.2557 63.833 37.0852C63.9656 36.9124 64.1408 36.7668 64.3586 36.6484C64.5787 36.5301 64.8557 36.4709 65.1895 36.4709C65.6394 36.4709 66.0323 36.5893 66.3685 36.826C66.7071 37.0604 66.9698 37.3894 67.1569 37.8132C67.3463 38.2346 67.441 38.7259 67.441 39.2869C67.441 39.8504 67.3463 40.344 67.1569 40.7678C66.9698 41.1915 66.7071 41.5218 66.3685 41.7585C66.0323 41.9953 65.6417 42.1136 65.1966 42.1136C64.8676 42.1136 64.5918 42.0545 64.3692 41.9361C64.1491 41.8177 63.9703 41.6721 63.833 41.4993C63.6981 41.3241 63.5939 41.1536 63.5205 40.9879H63.4637V44.0455H62.8316ZM63.4566 39.2763C63.4566 39.7166 63.5217 40.1072 63.6519 40.4482C63.7845 40.7867 63.9739 41.053 64.2201 41.2472C64.4687 41.4389 64.7693 41.5348 65.1221 41.5348C65.4843 41.5348 65.7897 41.4354 66.0383 41.2365C66.2892 41.0353 66.4798 40.7642 66.61 40.4233C66.7426 40.0824 66.8089 39.7 66.8089 39.2763C66.8089 38.8572 66.7438 38.4796 66.6135 38.1435C66.4857 37.8073 66.2963 37.541 66.0454 37.3445C65.7944 37.1456 65.4867 37.0462 65.1221 37.0462C64.767 37.0462 64.4651 37.142 64.2165 37.3338C63.968 37.5232 63.7786 37.786 63.6483 38.1222C63.5205 38.456 63.4566 38.8407 63.4566 39.2763ZM68.8348 42V36.5455H69.4704V42H68.8348ZM69.1579 35.608C69.0277 35.608 68.9165 35.5642 68.8241 35.4766C68.7318 35.3866 68.6856 35.2789 68.6856 35.1534C68.6856 35.0279 68.7318 34.9214 68.8241 34.8338C68.9165 34.7438 69.0277 34.6989 69.1579 34.6989C69.2881 34.6989 69.3994 34.7438 69.4917 34.8338C69.5841 34.9214 69.6302 35.0279 69.6302 35.1534C69.6302 35.2789 69.5841 35.3866 69.4917 35.4766C69.3994 35.5642 69.2881 35.608 69.1579 35.608ZM73.2728 42.1136C72.7851 42.1136 72.3602 41.9917 71.998 41.7479C71.6381 41.504 71.3588 41.1702 71.1599 40.7464C70.961 40.3227 70.8616 39.8397 70.8616 39.2976C70.8616 38.7507 70.9622 38.2642 71.1634 37.8381C71.367 37.4119 71.6488 37.0781 72.0086 36.8366C72.3685 36.5928 72.7863 36.4709 73.2622 36.4709C73.6267 36.4709 73.957 36.5419 74.2529 36.6839C74.5489 36.8236 74.7927 37.0213 74.9845 37.277C75.1786 37.5303 75.3005 37.8262 75.3502 38.1648H74.711C74.6447 37.857 74.4849 37.5942 74.2316 37.3764C73.9807 37.1562 73.6611 37.0462 73.2728 37.0462C72.9248 37.0462 72.617 37.1409 72.3495 37.3303C72.082 37.5173 71.8725 37.7789 71.721 38.1151C71.5718 38.4489 71.4972 38.8359 71.4972 39.2763C71.4972 39.719 71.5706 40.1108 71.7174 40.4517C71.8642 40.7902 72.0702 41.0554 72.3353 41.2472C72.6028 41.4389 72.9153 41.5348 73.2728 41.5348C73.5143 41.5348 73.7345 41.4898 73.9333 41.3999C74.1346 41.3075 74.3026 41.1773 74.4376 41.0092C74.5749 40.8411 74.6672 40.6411 74.7146 40.4091H75.3538C75.3064 40.7382 75.1892 41.0317 75.0022 41.2898C74.8176 41.5455 74.5773 41.7467 74.2813 41.8935C73.9878 42.0402 73.6516 42.1136 73.2728 42.1136ZM80.3733 37.7422L79.7945 37.9055C79.7377 37.7422 79.6572 37.5942 79.553 37.4616C79.4488 37.3291 79.3127 37.2237 79.1446 37.1456C78.9789 37.0675 78.7729 37.0284 78.5267 37.0284C78.1574 37.0284 77.8544 37.116 77.6176 37.2912C77.3809 37.4664 77.2625 37.6925 77.2625 37.9695C77.2625 38.2038 77.343 38.3944 77.504 38.5412C77.6673 38.6856 77.9183 38.8004 78.2568 38.8857L79.0807 39.0881C79.5376 39.1993 79.8797 39.3757 80.107 39.6172C80.3366 39.8587 80.4514 40.1617 80.4514 40.5263C80.4514 40.834 80.3662 41.1075 80.1958 41.3466C80.0253 41.5857 79.7874 41.7739 79.482 41.9112C79.1789 42.0462 78.8274 42.1136 78.4273 42.1136C77.8946 42.1136 77.4555 41.9941 77.1098 41.755C76.7642 41.5135 76.5428 41.1655 76.4458 40.7109L77.053 40.5618C77.1311 40.8861 77.2838 41.1312 77.5111 41.2969C77.7407 41.4626 78.0426 41.5455 78.4166 41.5455C78.8357 41.5455 79.1707 41.4519 79.4216 41.2649C79.6726 41.0755 79.798 40.8388 79.798 40.5547C79.798 40.3345 79.7246 40.1499 79.5779 40.0007C79.4311 39.8492 79.2085 39.7379 78.9102 39.6669L78.0189 39.4538C77.5454 39.3402 77.195 39.1603 76.9678 38.9141C76.7405 38.6679 76.6269 38.3625 76.6269 37.9979C76.6269 37.6972 76.7085 37.4332 76.8719 37.206C77.0352 36.9763 77.2602 36.7964 77.5466 36.6662C77.8331 36.536 78.1598 36.4709 78.5267 36.4709C79.0262 36.4709 79.4252 36.5845 79.7235 36.8118C80.0241 37.0367 80.2407 37.3468 80.3733 37.7422ZM87.5919 38.5838V39.1804H84.5663V38.5838H87.5919ZM7.29448 54V48.5455H7.90882V49.3835H7.96564C8.07454 49.1018 8.25565 48.8804 8.50897 48.7195C8.76465 48.5561 9.07123 48.4744 9.42871 48.4744C9.80513 48.4744 10.1141 48.5632 10.3556 48.7408C10.5994 48.916 10.7817 49.1574 10.9024 49.4652H10.9486C11.0717 49.1622 11.2718 48.9219 11.5487 48.7443C11.8281 48.5644 12.1666 48.4744 12.5644 48.4744C13.071 48.4744 13.4711 48.6342 13.7646 48.9538C14.0582 49.2711 14.205 49.7351 14.205 50.3459V54H13.5729V50.3459C13.5729 49.915 13.4628 49.5919 13.2426 49.3764C13.0225 49.161 12.7325 49.0533 12.3726 49.0533C11.9559 49.0533 11.6352 49.1811 11.4102 49.4368C11.1853 49.6925 11.0729 50.0168 11.0729 50.4098V54H10.4266V50.2891C10.4266 49.9197 10.3236 49.6214 10.1176 49.3942C9.91167 49.1669 9.62166 49.0533 9.2476 49.0533C8.99666 49.0533 8.77057 49.1148 8.56934 49.2379C8.37047 49.361 8.21304 49.5327 8.09703 49.7528C7.9834 49.9706 7.92658 50.2216 7.92658 50.5057V54H7.29448ZM17.4019 54.1243C17.0728 54.1243 16.7722 54.0604 16.4999 53.9325C16.2277 53.8023 16.011 53.6153 15.8501 53.3714C15.6891 53.1252 15.6086 52.8269 15.6086 52.4766C15.6086 52.2067 15.6595 51.9794 15.7613 51.7947C15.8631 51.6101 16.0075 51.4586 16.1945 51.3402C16.3815 51.2218 16.6029 51.1283 16.8586 51.0597C17.1143 50.991 17.396 50.9377 17.7037 50.8999C18.0091 50.862 18.2672 50.8288 18.4779 50.8004C18.691 50.772 18.8531 50.727 18.9644 50.6655C19.0757 50.6039 19.1313 50.5045 19.1313 50.3672V50.2393C19.1313 49.8677 19.02 49.5753 18.7975 49.3622C18.5773 49.1468 18.2601 49.0391 17.8458 49.0391C17.4528 49.0391 17.132 49.1255 16.8834 49.2983C16.6372 49.4711 16.4644 49.6747 16.365 49.9091L15.7648 49.6925C15.8879 49.3942 16.0584 49.1562 16.2762 48.9787C16.494 48.7988 16.7378 48.6697 17.0077 48.5916C17.2776 48.5111 17.551 48.4709 17.828 48.4709C18.0364 48.4709 18.253 48.4981 18.4779 48.5526C18.7052 48.607 18.9159 48.7017 19.11 48.8366C19.3041 48.9692 19.4616 49.1551 19.5823 49.3942C19.703 49.6309 19.7634 49.9316 19.7634 50.2962V54H19.1313V53.1371H19.0922C19.0165 53.2981 18.904 53.4543 18.7549 53.6058C18.6057 53.7573 18.4187 53.8816 18.1938 53.9787C17.9689 54.0758 17.7049 54.1243 17.4019 54.1243ZM17.4871 53.5455C17.8233 53.5455 18.1145 53.4709 18.3607 53.3217C18.6069 53.1726 18.7963 52.9749 18.9289 52.7287C19.0638 52.4801 19.1313 52.2067 19.1313 51.9084V51.12C19.084 51.165 19.0046 51.2053 18.8934 51.2408C18.7845 51.2763 18.6578 51.3082 18.5134 51.3366C18.3714 51.3627 18.2293 51.3852 18.0873 51.4041C17.9452 51.4231 17.8174 51.4396 17.7037 51.4538C17.396 51.4917 17.1332 51.5509 16.9154 51.6314C16.6976 51.7119 16.5307 51.8232 16.4147 51.9652C16.2987 52.1049 16.2407 52.2848 16.2407 52.505C16.2407 52.8364 16.359 53.0933 16.5958 53.2756C16.8325 53.4555 17.1296 53.5455 17.4871 53.5455ZM22.0202 51.9403L22.0131 51.1129H22.1551L24.7119 48.5455H25.5109L22.9861 51.0739L22.9292 51.0845L22.0202 51.9403ZM21.4449 54V46.7273H22.077V54H21.4449ZM24.8433 54L22.6274 51.1982L23.0819 50.7614L25.653 54H24.8433ZM28.6794 54.1136C28.1704 54.1136 27.7301 53.9953 27.3584 53.7585C26.9867 53.5194 26.6991 53.1892 26.4955 52.7678C26.2942 52.344 26.1936 51.8563 26.1936 51.3047C26.1936 50.7554 26.2942 50.2678 26.4955 49.8416C26.6991 49.4131 26.9796 49.0781 27.3371 48.8366C27.6969 48.5928 28.1124 48.4709 28.5835 48.4709C28.8795 48.4709 29.1647 48.5253 29.4394 48.6342C29.714 48.7408 29.9602 48.9053 30.178 49.1278C30.3982 49.348 30.5722 49.6262 30.7 49.9624C30.8279 50.2962 30.8918 50.6915 30.8918 51.1484V51.4609H26.6304V50.9034H30.2455C30.2455 50.553 30.1744 50.2382 30.0324 49.9588C29.8927 49.6771 29.6974 49.4545 29.4465 49.2912C29.1979 49.1278 28.9102 49.0462 28.5835 49.0462C28.2379 49.0462 27.9337 49.1385 27.6709 49.3232C27.4081 49.5078 27.2021 49.7517 27.053 50.0547C26.9062 50.3577 26.8316 50.6892 26.8293 51.049V51.3828C26.8293 51.8161 26.9039 52.1948 27.053 52.5192C27.2045 52.8411 27.4188 53.0909 27.6958 53.2685C27.9727 53.446 28.3006 53.5348 28.6794 53.5348C28.9375 53.5348 29.1636 53.4946 29.3577 53.4141C29.5542 53.3336 29.7187 53.2259 29.8513 53.0909C29.9862 52.9536 30.088 52.8033 30.1567 52.6399L30.7568 52.8352C30.674 53.0649 30.5378 53.2768 30.3485 53.4709C30.1614 53.665 29.9271 53.8213 29.6453 53.9396C29.366 54.0556 29.044 54.1136 28.6794 54.1136ZM35.9495 49.7422L35.3706 49.9055C35.3138 49.7422 35.2333 49.5942 35.1292 49.4616C35.025 49.3291 34.8889 49.2237 34.7208 49.1456C34.5551 49.0675 34.3491 49.0284 34.1029 49.0284C33.7336 49.0284 33.4305 49.116 33.1938 49.2912C32.9571 49.4664 32.8387 49.6925 32.8387 49.9695C32.8387 50.2038 32.9192 50.3944 33.0802 50.5412C33.2435 50.6856 33.4945 50.8004 33.833 50.8857L34.6569 51.0881C35.1138 51.1993 35.4559 51.3757 35.6831 51.6172C35.9128 51.8587 36.0276 52.1617 36.0276 52.5263C36.0276 52.834 35.9424 53.1075 35.7719 53.3466C35.6015 53.5857 35.3635 53.7739 35.0581 53.9112C34.7551 54.0462 34.4036 54.1136 34.0035 54.1136C33.4708 54.1136 33.0316 53.9941 32.686 53.755C32.3403 53.5135 32.119 53.1655 32.0219 52.7109L32.6292 52.5618C32.7073 52.8861 32.86 53.1312 33.0873 53.2969C33.3169 53.4626 33.6188 53.5455 33.9928 53.5455C34.4118 53.5455 34.7468 53.4519 34.9978 53.2649C35.2487 53.0755 35.3742 52.8388 35.3742 52.5547C35.3742 52.3345 35.3008 52.1499 35.154 52.0007C35.0073 51.8492 34.7847 51.7379 34.4864 51.6669L33.5951 51.4538C33.1216 51.3402 32.7712 51.1603 32.5439 50.9141C32.3167 50.6679 32.203 50.3625 32.203 49.9979C32.203 49.6972 32.2847 49.4332 32.4481 49.206C32.6114 48.9763 32.8363 48.7964 33.1228 48.6662C33.4092 48.536 33.7359 48.4709 34.1029 48.4709C34.6024 48.4709 35.0013 48.5845 35.2996 48.8118C35.6003 49.0367 35.8169 49.3468 35.9495 49.7422ZM40.2313 54V48.5455H40.8669V54H40.2313ZM40.5544 47.608C40.4242 47.608 40.3129 47.5642 40.2206 47.4766C40.1283 47.3866 40.0821 47.2789 40.0821 47.1534C40.0821 47.0279 40.1283 46.9214 40.2206 46.8338C40.3129 46.7438 40.4242 46.6989 40.5544 46.6989C40.6846 46.6989 40.7959 46.7438 40.8882 46.8338C40.9806 46.9214 41.0267 47.0279 41.0267 47.1534C41.0267 47.2789 40.9806 47.3866 40.8882 47.4766C40.7959 47.5642 40.6846 47.608 40.5544 47.608ZM44.6871 48.5455V49.0959H42.0841V48.5455H44.6871ZM42.8973 47.2386H43.5329V52.576C43.5329 52.8033 43.572 52.982 43.6501 53.1122C43.7282 53.2401 43.83 53.3312 43.9555 53.3857C44.081 53.4377 44.2148 53.4638 44.3568 53.4638C44.4397 53.4638 44.5107 53.459 44.5699 53.4496C44.6291 53.4377 44.6811 53.4259 44.7261 53.4141L44.8611 53.9858C44.7995 54.0095 44.7238 54.0308 44.6338 54.0497C44.5438 54.071 44.4326 54.0817 44.3 54.0817C44.068 54.0817 43.8443 54.0308 43.6288 53.929C43.4157 53.8272 43.2406 53.6757 43.1032 53.4744C42.9659 53.2732 42.8973 53.0234 42.8973 52.7251V47.2386ZM51.1404 54.1136C50.6314 54.1136 50.191 53.9953 49.8193 53.7585C49.4477 53.5194 49.16 53.1892 48.9564 52.7678C48.7552 52.344 48.6546 51.8563 48.6546 51.3047C48.6546 50.7554 48.7552 50.2678 48.9564 49.8416C49.16 49.4131 49.4405 49.0781 49.798 48.8366C50.1579 48.5928 50.5734 48.4709 51.0445 48.4709C51.3404 48.4709 51.6257 48.5253 51.9003 48.6342C52.1749 48.7408 52.4211 48.9053 52.6389 49.1278C52.8591 49.348 53.0331 49.6262 53.161 49.9624C53.2888 50.2962 53.3527 50.6915 53.3527 51.1484V51.4609H49.0914V50.9034H52.7064C52.7064 50.553 52.6354 50.2382 52.4933 49.9588C52.3537 49.6771 52.1584 49.4545 51.9074 49.2912C51.6588 49.1278 51.3712 49.0462 51.0445 49.0462C50.6988 49.0462 50.3946 49.1385 50.1318 49.3232C49.8691 49.5078 49.6631 49.7517 49.5139 50.0547C49.3672 50.3577 49.2926 50.6892 49.2902 51.049V51.3828C49.2902 51.8161 49.3648 52.1948 49.5139 52.5192C49.6655 52.8411 49.8797 53.0909 50.1567 53.2685C50.4337 53.446 50.7616 53.5348 51.1404 53.5348C51.3984 53.5348 51.6245 53.4946 51.8186 53.4141C52.0151 53.3336 52.1797 53.2259 52.3122 53.0909C52.4472 52.9536 52.549 52.8033 52.6176 52.6399L53.2178 52.8352C53.1349 53.0649 52.9988 53.2768 52.8094 53.4709C52.6224 53.665 52.388 53.8213 52.1063 53.9396C51.8269 54.0556 51.5049 54.1136 51.1404 54.1136ZM56.2691 54.1243C55.94 54.1243 55.6394 54.0604 55.3671 53.9325C55.0948 53.8023 54.8782 53.6153 54.7172 53.3714C54.5563 53.1252 54.4758 52.8269 54.4758 52.4766C54.4758 52.2067 54.5267 51.9794 54.6285 51.7947C54.7303 51.6101 54.8747 51.4586 55.0617 51.3402C55.2487 51.2218 55.4701 51.1283 55.7258 51.0597C55.9814 50.991 56.2632 50.9377 56.5709 50.8999C56.8763 50.862 57.1344 50.8288 57.3451 50.8004C57.5581 50.772 57.7203 50.727 57.8316 50.6655C57.9429 50.6039 57.9985 50.5045 57.9985 50.3672V50.2393C57.9985 49.8677 57.8872 49.5753 57.6647 49.3622C57.4445 49.1468 57.1273 49.0391 56.713 49.0391C56.32 49.0391 55.9992 49.1255 55.7506 49.2983C55.5044 49.4711 55.3316 49.6747 55.2322 49.9091L54.632 49.6925C54.7551 49.3942 54.9256 49.1562 55.1434 48.9787C55.3612 48.7988 55.605 48.6697 55.8749 48.5916C56.1448 48.5111 56.4182 48.4709 56.6952 48.4709C56.9036 48.4709 57.1202 48.4981 57.3451 48.5526C57.5724 48.607 57.7831 48.7017 57.9772 48.8366C58.1713 48.9692 58.3287 49.1551 58.4495 49.3942C58.5702 49.6309 58.6306 49.9316 58.6306 50.2962V54H57.9985V53.1371H57.9594C57.8837 53.2981 57.7712 53.4543 57.6221 53.6058C57.4729 53.7573 57.2859 53.8816 57.061 53.9787C56.8361 54.0758 56.5721 54.1243 56.2691 54.1243ZM56.3543 53.5455C56.6905 53.5455 56.9817 53.4709 57.2279 53.3217C57.4741 53.1726 57.6635 52.9749 57.7961 52.7287C57.931 52.4801 57.9985 52.2067 57.9985 51.9084V51.12C57.9511 51.165 57.8718 51.2053 57.7606 51.2408C57.6517 51.2763 57.525 51.3082 57.3806 51.3366C57.2385 51.3627 57.0965 51.3852 56.9545 51.4041C56.8124 51.4231 56.6846 51.4396 56.5709 51.4538C56.2632 51.4917 56.0004 51.5509 55.7826 51.6314C55.5648 51.7119 55.3979 51.8232 55.2819 51.9652C55.1659 52.1049 55.1079 52.2848 55.1079 52.505C55.1079 52.8364 55.2262 53.0933 55.463 53.2756C55.6997 53.4555 55.9968 53.5455 56.3543 53.5455ZM63.9768 49.7422L63.398 49.9055C63.3412 49.7422 63.2607 49.5942 63.1565 49.4616C63.0523 49.3291 62.9162 49.2237 62.7481 49.1456C62.5824 49.0675 62.3765 49.0284 62.1302 49.0284C61.7609 49.0284 61.4579 49.116 61.2211 49.2912C60.9844 49.4664 60.866 49.6925 60.866 49.9695C60.866 50.2038 60.9465 50.3944 61.1075 50.5412C61.2709 50.6856 61.5218 50.8004 61.8604 50.8857L62.6842 51.0881C63.1411 51.1993 63.4832 51.3757 63.7105 51.6172C63.9401 51.8587 64.055 52.1617 64.055 52.5263C64.055 52.834 63.9697 53.1075 63.7993 53.3466C63.6288 53.5857 63.3909 53.7739 63.0855 53.9112C62.7825 54.0462 62.4309 54.1136 62.0308 54.1136C61.4981 54.1136 61.059 53.9941 60.7133 53.755C60.3677 53.5135 60.1463 53.1655 60.0493 52.7109L60.6565 52.5618C60.7346 52.8861 60.8873 53.1312 61.1146 53.2969C61.3443 53.4626 61.6461 53.5455 62.0202 53.5455C62.4392 53.5455 62.7742 53.4519 63.0251 53.2649C63.2761 53.0755 63.4015 52.8388 63.4015 52.5547C63.4015 52.3345 63.3282 52.1499 63.1814 52.0007C63.0346 51.8492 62.8121 51.7379 62.5138 51.6669L61.6224 51.4538C61.1489 51.3402 60.7986 51.1603 60.5713 50.9141C60.344 50.6679 60.2304 50.3625 60.2304 49.9979C60.2304 49.6972 60.3121 49.4332 60.4754 49.206C60.6388 48.9763 60.8637 48.7964 61.1501 48.6662C61.4366 48.536 61.7633 48.4709 62.1302 48.4709C62.6298 48.4709 63.0287 48.5845 63.327 48.8118C63.6276 49.0367 63.8443 49.3468 63.9768 49.7422ZM65.4461 54V48.5455H66.0818V54H65.4461ZM65.7693 47.608C65.6391 47.608 65.5278 47.5642 65.4355 47.4766C65.3431 47.3866 65.297 47.2789 65.297 47.1534C65.297 47.0279 65.3431 46.9214 65.4355 46.8338C65.5278 46.7438 65.6391 46.6989 65.7693 46.6989C65.8995 46.6989 66.0107 46.7438 66.1031 46.8338C66.1954 46.9214 66.2416 47.0279 66.2416 47.1534C66.2416 47.2789 66.1954 47.3866 66.1031 47.4766C66.0107 47.5642 65.8995 47.608 65.7693 47.608ZM69.9587 54.1136C69.4497 54.1136 69.0094 53.9953 68.6377 53.7585C68.266 53.5194 67.9784 53.1892 67.7748 52.7678C67.5735 52.344 67.4729 51.8563 67.4729 51.3047C67.4729 50.7554 67.5735 50.2678 67.7748 49.8416C67.9784 49.4131 68.2589 49.0781 68.6164 48.8366C68.9762 48.5928 69.3917 48.4709 69.8628 48.4709C70.1588 48.4709 70.444 48.5253 70.7187 48.6342C70.9933 48.7408 71.2395 48.9053 71.4573 49.1278C71.6775 49.348 71.8515 49.6262 71.9793 49.9624C72.1072 50.2962 72.1711 50.6915 72.1711 51.1484V51.4609H67.9097V50.9034H71.5248C71.5248 50.553 71.4537 50.2382 71.3117 49.9588C71.172 49.6771 70.9767 49.4545 70.7258 49.2912C70.4772 49.1278 70.1895 49.0462 69.8628 49.0462C69.5172 49.0462 69.213 49.1385 68.9502 49.3232C68.6874 49.5078 68.4814 49.7517 68.3323 50.0547C68.1855 50.3577 68.1109 50.6892 68.1086 51.049V51.3828C68.1086 51.8161 68.1831 52.1948 68.3323 52.5192C68.4838 52.8411 68.6981 53.0909 68.9751 53.2685C69.252 53.446 69.5799 53.5348 69.9587 53.5348C70.2168 53.5348 70.4429 53.4946 70.637 53.4141C70.8335 53.3336 70.998 53.2259 71.1306 53.0909C71.2655 52.9536 71.3673 52.8033 71.436 52.6399L72.0361 52.8352C71.9533 53.0649 71.8171 53.2768 71.6278 53.4709C71.4407 53.665 71.2064 53.8213 70.9246 53.9396C70.6453 54.0556 70.3233 54.1136 69.9587 54.1136ZM73.564 54V48.5455H74.1784V49.3835H74.2245C74.3334 49.1089 74.5228 48.8875 74.7927 48.7195C75.065 48.549 75.3727 48.4638 75.716 48.4638C75.7681 48.4638 75.8261 48.465 75.89 48.4673C75.9539 48.4697 76.0072 48.4721 76.0498 48.4744V49.1172C76.0214 49.1125 75.9717 49.1054 75.9007 49.0959C75.8296 49.0864 75.7527 49.0817 75.6698 49.0817C75.3857 49.0817 75.1324 49.142 74.9099 49.2628C74.6897 49.3812 74.5157 49.5457 74.3879 49.7564C74.26 49.9671 74.1961 50.2074 74.1961 50.4773V54H73.564ZM82.0894 48.5455V49.0959H79.4864V48.5455H82.0894ZM80.2996 47.2386H80.9353V52.576C80.9353 52.8033 80.9743 52.982 81.0525 53.1122C81.1306 53.2401 81.2324 53.3312 81.3579 53.3857C81.4833 53.4377 81.6171 53.4638 81.7591 53.4638C81.842 53.4638 81.913 53.459 81.9722 53.4496C82.0314 53.4377 82.0835 53.4259 82.1285 53.4141L82.2634 53.9858C82.2019 54.0095 82.1261 54.0308 82.0361 54.0497C81.9462 54.071 81.8349 54.0817 81.7023 54.0817C81.4703 54.0817 81.2466 54.0308 81.0312 53.929C80.8181 53.8272 80.6429 53.6757 80.5056 53.4744C80.3683 53.2732 80.2996 53.0234 80.2996 52.7251V47.2386ZM85.5864 54.1136C85.1153 54.1136 84.6986 53.9941 84.3364 53.755C83.9765 53.5159 83.6948 53.1856 83.4912 52.7642C83.2876 52.3404 83.1858 51.8516 83.1858 51.2976C83.1858 50.7389 83.2876 50.2476 83.4912 49.8239C83.6948 49.3977 83.9765 49.0663 84.3364 48.8295C84.6986 48.5904 85.1153 48.4709 85.5864 48.4709C86.0575 48.4709 86.473 48.5904 86.8328 48.8295C87.1927 49.0687 87.4744 49.4001 87.678 49.8239C87.884 50.2476 87.9869 50.7389 87.9869 51.2976C87.9869 51.8516 87.8852 52.3404 87.6816 52.7642C87.478 53.1856 87.195 53.5159 86.8328 53.755C86.473 53.9941 86.0575 54.1136 85.5864 54.1136ZM85.5864 53.5348C85.9652 53.5348 86.286 53.433 86.5487 53.2294C86.8115 53.0258 87.0104 52.7547 87.1453 52.4162C87.2826 52.0777 87.3513 51.7048 87.3513 51.2976C87.3513 50.8904 87.2826 50.5163 87.1453 50.1754C87.0104 49.8345 86.8115 49.5611 86.5487 49.3551C86.286 49.1491 85.9652 49.0462 85.5864 49.0462C85.21 49.0462 84.8892 49.1491 84.624 49.3551C84.3612 49.5611 84.1612 49.8345 84.0239 50.1754C83.8889 50.5163 83.8215 50.8904 83.8215 51.2976C83.8215 51.7048 83.8889 52.0777 84.0239 52.4162C84.1612 52.7547 84.3612 53.0258 84.624 53.2294C84.8868 53.433 85.2076 53.5348 85.5864 53.5348ZM13.552 61.7422L12.9732 61.9055C12.9164 61.7422 12.8359 61.5942 12.7317 61.4616C12.6275 61.3291 12.4914 61.2237 12.3233 61.1456C12.1576 61.0675 11.9516 61.0284 11.7054 61.0284C11.3361 61.0284 11.0331 61.116 10.7963 61.2912C10.5596 61.4664 10.4412 61.6925 10.4412 61.9695C10.4412 62.2038 10.5217 62.3944 10.6827 62.5412C10.8461 62.6856 11.097 62.8004 11.4355 62.8857L12.2594 63.0881C12.7163 63.1993 13.0584 63.3757 13.2857 63.6172C13.5153 63.8587 13.6301 64.1617 13.6301 64.5263C13.6301 64.834 13.5449 65.1075 13.3745 65.3466C13.204 65.5857 12.9661 65.7739 12.6607 65.9112C12.3577 66.0462 12.0061 66.1136 11.606 66.1136C11.0733 66.1136 10.6342 65.9941 10.2885 65.755C9.94289 65.5135 9.72153 65.1655 9.62447 64.7109L10.2317 64.5618C10.3098 64.8861 10.4625 65.1312 10.6898 65.2969C10.9194 65.4626 11.2213 65.5455 11.5953 65.5455C12.0144 65.5455 12.3494 65.4519 12.6003 65.2649C12.8513 65.0755 12.9767 64.8388 12.9767 64.5547C12.9767 64.3345 12.9034 64.1499 12.7566 64.0007C12.6098 63.8492 12.3873 63.7379 12.089 63.6669L11.1976 63.4538C10.7241 63.3402 10.3738 63.1603 10.1465 62.9141C9.91921 62.6679 9.80558 62.3625 9.80558 61.9979C9.80558 61.6972 9.88725 61.4332 10.0506 61.206C10.214 60.9763 10.4389 60.7964 10.7253 60.6662C11.0118 60.536 11.3385 60.4709 11.7054 60.4709C12.205 60.4709 12.6039 60.5845 12.9022 60.8118C13.2028 61.0367 13.4194 61.3468 13.552 61.7422ZM17.2195 66.1136C16.7105 66.1136 16.2701 65.9953 15.8984 65.7585C15.5268 65.5194 15.2391 65.1892 15.0355 64.7678C14.8343 64.344 14.7337 63.8563 14.7337 63.3047C14.7337 62.7554 14.8343 62.2678 15.0355 61.8416C15.2391 61.4131 15.5196 61.0781 15.8771 60.8366C16.237 60.5928 16.6525 60.4709 17.1236 60.4709C17.4195 60.4709 17.7048 60.5253 17.9794 60.6342C18.254 60.7408 18.5002 60.9053 18.718 61.1278C18.9382 61.348 19.1122 61.6262 19.2401 61.9624C19.3679 62.2962 19.4318 62.6915 19.4318 63.1484V63.4609H15.1705V62.9034H18.7855C18.7855 62.553 18.7145 62.2382 18.5724 61.9588C18.4328 61.6771 18.2375 61.4545 17.9865 61.2912C17.7379 61.1278 17.4503 61.0462 17.1236 61.0462C16.7779 61.0462 16.4737 61.1385 16.2109 61.3232C15.9482 61.5078 15.7422 61.7517 15.593 62.0547C15.4463 62.3577 15.3717 62.6892 15.3693 63.049V63.3828C15.3693 63.8161 15.4439 64.1948 15.593 64.5192C15.7446 64.8411 15.9588 65.0909 16.2358 65.2685C16.5128 65.446 16.8407 65.5348 17.2195 65.5348C17.4775 65.5348 17.7036 65.4946 17.8977 65.4141C18.0942 65.3336 18.2588 65.2259 18.3913 65.0909C18.5263 64.9536 18.6281 64.8033 18.6967 64.6399L19.2969 64.8352C19.214 65.0649 19.0779 65.2768 18.8885 65.4709C18.7015 65.665 18.4671 65.8213 18.1854 65.9396C17.906 66.0556 17.584 66.1136 17.2195 66.1136ZM22.3482 66.1243C22.0191 66.1243 21.7185 66.0604 21.4462 65.9325C21.1739 65.8023 20.9573 65.6153 20.7963 65.3714C20.6354 65.1252 20.5549 64.8269 20.5549 64.4766C20.5549 64.2067 20.6058 63.9794 20.7076 63.7947C20.8094 63.6101 20.9538 63.4586 21.1408 63.3402C21.3278 63.2218 21.5492 63.1283 21.8049 63.0597C22.0605 62.991 22.3423 62.9377 22.65 62.8999C22.9554 62.862 23.2135 62.8288 23.4242 62.8004C23.6373 62.772 23.7994 62.727 23.9107 62.6655C24.022 62.6039 24.0776 62.5045 24.0776 62.3672V62.2393C24.0776 61.8677 23.9663 61.5753 23.7438 61.3622C23.5236 61.1468 23.2064 61.0391 22.7921 61.0391C22.3991 61.0391 22.0783 61.1255 21.8297 61.2983C21.5835 61.4711 21.4107 61.6747 21.3113 61.9091L20.7111 61.6925C20.8342 61.3942 21.0047 61.1562 21.2225 60.9787C21.4403 60.7988 21.6841 60.6697 21.954 60.5916C22.2239 60.5111 22.4973 60.4709 22.7743 60.4709C22.9827 60.4709 23.1993 60.4981 23.4242 60.5526C23.6515 60.607 23.8622 60.7017 24.0563 60.8366C24.2504 60.9692 24.4078 61.1551 24.5286 61.3942C24.6493 61.6309 24.7097 61.9316 24.7097 62.2962V66H24.0776V65.1371H24.0385C23.9628 65.2981 23.8503 65.4543 23.7012 65.6058C23.552 65.7573 23.365 65.8816 23.1401 65.9787C22.9152 66.0758 22.6512 66.1243 22.3482 66.1243ZM22.4334 65.5455C22.7696 65.5455 23.0608 65.4709 23.307 65.3217C23.5532 65.1726 23.7426 64.9749 23.8752 64.7287C24.0101 64.4801 24.0776 64.2067 24.0776 63.9084V63.12C24.0302 63.165 23.9509 63.2053 23.8397 63.2408C23.7308 63.2763 23.6041 63.3082 23.4597 63.3366C23.3176 63.3627 23.1756 63.3852 23.0336 63.4041C22.8915 63.4231 22.7637 63.4396 22.65 63.4538C22.3423 63.4917 22.0795 63.5509 21.8617 63.6314C21.6439 63.7119 21.477 63.8232 21.361 63.9652C21.245 64.1049 21.187 64.2848 21.187 64.505C21.187 64.8364 21.3053 65.0933 21.5421 65.2756C21.7788 65.4555 22.0759 65.5455 22.4334 65.5455ZM26.3912 66V60.5455H27.0055V61.3835H27.0517C27.1606 61.1089 27.35 60.8875 27.6199 60.7195C27.8921 60.549 28.1999 60.4638 28.5431 60.4638C28.5952 60.4638 28.6532 60.465 28.7172 60.4673C28.7811 60.4697 28.8343 60.4721 28.877 60.4744V61.1172C28.8485 61.1125 28.7988 61.1054 28.7278 61.0959C28.6568 61.0864 28.5798 61.0817 28.497 61.0817C28.2129 61.0817 27.9596 61.142 27.737 61.2628C27.5169 61.3812 27.3429 61.5457 27.215 61.7564C27.0872 61.9671 27.0233 62.2074 27.0233 62.4773V66H26.3912ZM31.9203 66.1136C31.4326 66.1136 31.0076 65.9917 30.6454 65.7479C30.2856 65.504 30.0062 65.1702 29.8074 64.7464C29.6085 64.3227 29.5091 63.8397 29.5091 63.2976C29.5091 62.7507 29.6097 62.2642 29.8109 61.8381C30.0145 61.4119 30.2962 61.0781 30.6561 60.8366C31.0159 60.5928 31.4338 60.4709 31.9096 60.4709C32.2742 60.4709 32.6045 60.5419 32.9004 60.6839C33.1963 60.8236 33.4402 61.0213 33.6319 61.277C33.8261 61.5303 33.948 61.8262 33.9977 62.1648H33.3585C33.2922 61.857 33.1324 61.5942 32.8791 61.3764C32.6281 61.1562 32.3085 61.0462 31.9203 61.0462C31.5723 61.0462 31.2645 61.1409 30.997 61.3303C30.7295 61.5173 30.5199 61.7789 30.3684 62.1151C30.2193 62.4489 30.1447 62.8359 30.1447 63.2763C30.1447 63.719 30.2181 64.1108 30.3649 64.4517C30.5117 64.7902 30.7176 65.0554 30.9828 65.2472C31.2503 65.4389 31.5628 65.5348 31.9203 65.5348C32.1618 65.5348 32.3819 65.4898 32.5808 65.3999C32.782 65.3075 32.9501 65.1773 33.085 65.0092C33.2224 64.8411 33.3147 64.6411 33.362 64.4091H34.0012C33.9539 64.7382 33.8367 65.0317 33.6497 65.2898C33.465 65.5455 33.2247 65.7467 32.9288 65.8935C32.6352 66.0402 32.2991 66.1136 31.9203 66.1136ZM35.9881 62.5909V66H35.356V58.7273H35.9881V61.4013H36.0449C36.1728 61.1196 36.3704 60.8946 36.638 60.7266C36.9078 60.5585 37.2488 60.4744 37.6607 60.4744C38.03 60.4744 38.3543 60.5502 38.6337 60.7017C38.9131 60.8532 39.1309 61.0769 39.2871 61.3729C39.4434 61.6688 39.5215 62.0334 39.5215 62.4666V66H38.8858V62.5057C38.8858 62.0559 38.7604 61.7019 38.5094 61.4439C38.2608 61.1835 37.9247 61.0533 37.5009 61.0533C37.2097 61.0533 36.9505 61.1148 36.7232 61.2379C36.4959 61.361 36.316 61.5386 36.1834 61.7706C36.0532 62.0002 35.9881 62.2737 35.9881 62.5909ZM45.2095 66L43.5618 60.5455H44.2294L45.522 65.0447H45.5682L46.8572 60.5455H47.5284L48.8068 65.0341H48.8565L50.1491 60.5455H50.8168L49.169 66H48.5156L47.223 61.5291H47.1555L45.8629 66H45.2095ZM52.6776 62.5909V66H52.0455V58.7273H52.6776V61.4013H52.7344C52.8622 61.1196 53.0599 60.8946 53.3274 60.7266C53.5973 60.5585 53.9382 60.4744 54.3501 60.4744C54.7195 60.4744 55.0438 60.5502 55.3232 60.7017C55.6025 60.8532 55.8203 61.0769 55.9766 61.3729C56.1328 61.6688 56.2109 62.0334 56.2109 62.4666V66H55.5753V62.5057C55.5753 62.0559 55.4498 61.7019 55.1989 61.4439C54.9503 61.1835 54.6141 61.0533 54.1903 61.0533C53.8991 61.0533 53.6399 61.1148 53.4126 61.2379C53.1854 61.361 53.0054 61.5386 52.8729 61.7706C52.7427 62.0002 52.6776 62.2737 52.6776 62.5909ZM59.399 66.1243C59.0699 66.1243 58.7692 66.0604 58.497 65.9325C58.2247 65.8023 58.0081 65.6153 57.8471 65.3714C57.6861 65.1252 57.6056 64.8269 57.6056 64.4766C57.6056 64.2067 57.6565 63.9794 57.7583 63.7947C57.8601 63.6101 58.0046 63.4586 58.1916 63.3402C58.3786 63.2218 58.6 63.1283 58.8556 63.0597C59.1113 62.991 59.3931 62.9377 59.7008 62.8999C60.0062 62.862 60.2643 62.8288 60.475 62.8004C60.688 62.772 60.8502 62.727 60.9615 62.6655C61.0727 62.6039 61.1284 62.5045 61.1284 62.3672V62.2393C61.1284 61.8677 61.0171 61.5753 60.7946 61.3622C60.5744 61.1468 60.2572 61.0391 59.8429 61.0391C59.4499 61.0391 59.1291 61.1255 58.8805 61.2983C58.6343 61.4711 58.4615 61.6747 58.362 61.9091L57.7619 61.6925C57.885 61.3942 58.0555 61.1562 58.2733 60.9787C58.4911 60.7988 58.7349 60.6697 59.0048 60.5916C59.2747 60.5111 59.5481 60.4709 59.8251 60.4709C60.0334 60.4709 60.2501 60.4981 60.475 60.5526C60.7022 60.607 60.9129 60.7017 61.1071 60.8366C61.3012 60.9692 61.4586 61.1551 61.5794 61.3942C61.7001 61.6309 61.7605 61.9316 61.7605 62.2962V66H61.1284V65.1371H61.0893C61.0136 65.2981 60.9011 65.4543 60.752 65.6058C60.6028 65.7573 60.4158 65.8816 60.1909 65.9787C59.966 66.0758 59.702 66.1243 59.399 66.1243ZM59.4842 65.5455C59.8204 65.5455 60.1116 65.4709 60.3578 65.3217C60.604 65.1726 60.7934 64.9749 60.926 64.7287C61.0609 64.4801 61.1284 64.2067 61.1284 63.9084V63.12C61.081 63.165 61.0017 63.2053 60.8904 63.2408C60.7815 63.2763 60.6549 63.3082 60.5105 63.3366C60.3684 63.3627 60.2264 63.3852 60.0843 63.4041C59.9423 63.4231 59.8145 63.4396 59.7008 63.4538C59.3931 63.4917 59.1303 63.5509 58.9125 63.6314C58.6947 63.7119 58.5278 63.8232 58.4118 63.9652C58.2958 64.1049 58.2377 64.2848 58.2377 64.505C58.2377 64.8364 58.3561 65.0933 58.5929 65.2756C58.8296 65.4555 59.1267 65.5455 59.4842 65.5455ZM65.5904 60.5455V61.0959H62.9874V60.5455H65.5904ZM63.8006 59.2386H64.4363V64.576C64.4363 64.8033 64.4753 64.982 64.5534 65.1122C64.6316 65.2401 64.7334 65.3312 64.8588 65.3857C64.9843 65.4377 65.1181 65.4638 65.2601 65.4638C65.343 65.4638 65.414 65.459 65.4732 65.4496C65.5324 65.4377 65.5845 65.4259 65.6294 65.4141L65.7644 65.9858C65.7028 66.0095 65.6271 66.0308 65.5371 66.0497C65.4471 66.071 65.3359 66.0817 65.2033 66.0817C64.9713 66.0817 64.7476 66.0308 64.5321 65.929C64.3191 65.8272 64.1439 65.6757 64.0066 65.4744C63.8693 65.2732 63.8006 65.0234 63.8006 64.7251V59.2386ZM70.2788 68.0455C70.1533 68.0455 70.0361 68.0336 69.9272 68.0099C69.8183 67.9863 69.7319 67.9602 69.668 67.9318L69.8384 67.3743C70.0539 67.4406 70.2456 67.4643 70.4137 67.4453C70.5818 67.4287 70.7309 67.353 70.8612 67.218C70.9914 67.0855 71.1074 66.8819 71.2092 66.6072L71.408 66.0533L69.4016 60.5455H70.087L71.7063 65.1655H71.756L73.3754 60.5455H74.0607L71.7525 66.8629C71.6554 67.1257 71.5359 67.3447 71.3938 67.5199C71.2518 67.6974 71.0872 67.8288 70.9002 67.9141C70.7156 68.0017 70.5084 68.0455 70.2788 68.0455ZM77.2221 66.1136C76.751 66.1136 76.3343 65.9941 75.9721 65.755C75.6123 65.5159 75.3306 65.1856 75.127 64.7642C74.9234 64.3404 74.8216 63.8516 74.8216 63.2976C74.8216 62.7389 74.9234 62.2476 75.127 61.8239C75.3306 61.3977 75.6123 61.0663 75.9721 60.8295C76.3343 60.5904 76.751 60.4709 77.2221 60.4709C77.6932 60.4709 78.1087 60.5904 78.4686 60.8295C78.8284 61.0687 79.1101 61.4001 79.3137 61.8239C79.5197 62.2476 79.6227 62.7389 79.6227 63.2976C79.6227 63.8516 79.5209 64.3404 79.3173 64.7642C79.1137 65.1856 78.8308 65.5159 78.4686 65.755C78.1087 65.9941 77.6932 66.1136 77.2221 66.1136ZM77.2221 65.5348C77.6009 65.5348 77.9217 65.433 78.1845 65.2294C78.4473 65.0258 78.6461 64.7547 78.7811 64.4162C78.9184 64.0777 78.987 63.7048 78.987 63.2976C78.987 62.8904 78.9184 62.5163 78.7811 62.1754C78.6461 61.8345 78.4473 61.5611 78.1845 61.3551C77.9217 61.1491 77.6009 61.0462 77.2221 61.0462C76.8457 61.0462 76.5249 61.1491 76.2598 61.3551C75.997 61.5611 75.7969 61.8345 75.6596 62.1754C75.5247 62.5163 75.4572 62.8904 75.4572 63.2976C75.4572 63.7048 75.5247 64.0777 75.6596 64.4162C75.7969 64.7547 75.997 65.0258 76.2598 65.2294C76.5225 65.433 76.8433 65.5348 77.2221 65.5348ZM84.4762 63.9155V60.5455H85.1083V66H84.4762V65.0945H84.4265C84.2987 65.3738 84.0962 65.607 83.8192 65.794C83.5423 65.9787 83.2037 66.071 82.8036 66.071C82.4556 66.071 82.1467 65.9953 81.8768 65.8438C81.6069 65.6899 81.395 65.465 81.2411 65.169C81.0872 64.8731 81.0103 64.5097 81.0103 64.0788V60.5455H81.6424V64.0398C81.6424 64.4659 81.7679 64.8092 82.0188 65.0696C82.2698 65.3277 82.5917 65.4567 82.9847 65.4567C83.2309 65.4567 83.4677 65.3975 83.695 65.2791C83.9222 65.1607 84.1093 64.9879 84.256 64.7607C84.4028 64.531 84.4762 64.2493 84.4762 63.9155ZM21.6499 78L20.0022 72.5455H20.6698L21.9624 77.0447H22.0086L23.2977 72.5455H23.9688L25.2472 77.0341H25.297L26.5896 72.5455H27.2572L25.6095 78H24.9561L23.6634 73.5291H23.596L22.3034 78H21.6499ZM30.0093 78.1243C29.6802 78.1243 29.3796 78.0604 29.1073 77.9325C28.8351 77.8023 28.6185 77.6153 28.4575 77.3714C28.2965 77.1252 28.216 76.8269 28.216 76.4766C28.216 76.2067 28.2669 75.9794 28.3687 75.7947C28.4705 75.6101 28.6149 75.4586 28.8019 75.3402C28.989 75.2218 29.2103 75.1283 29.466 75.0597C29.7217 74.991 30.0034 74.9377 30.3112 74.8999C30.6166 74.862 30.8746 74.8288 31.0853 74.8004C31.2984 74.772 31.4606 74.727 31.5718 74.6655C31.6831 74.6039 31.7387 74.5045 31.7387 74.3672V74.2393C31.7387 73.8677 31.6275 73.5753 31.4049 73.3622C31.1847 73.1468 30.8675 73.0391 30.4532 73.0391C30.0602 73.0391 29.7394 73.1255 29.4909 73.2983C29.2446 73.4711 29.0718 73.6747 28.9724 73.9091L28.3722 73.6925C28.4954 73.3942 28.6658 73.1562 28.8836 72.9787C29.1014 72.7988 29.3453 72.6697 29.6151 72.5916C29.885 72.5111 30.1585 72.4709 30.4355 72.4709C30.6438 72.4709 30.8604 72.4981 31.0853 72.5526C31.3126 72.607 31.5233 72.7017 31.7174 72.8366C31.9115 72.9692 32.069 73.1551 32.1897 73.3942C32.3105 73.6309 32.3708 73.9316 32.3708 74.2962V78H31.7387V77.1371H31.6997C31.6239 77.2981 31.5115 77.4543 31.3623 77.6058C31.2132 77.7573 31.0261 77.8816 30.8012 77.9787C30.5763 78.0758 30.3124 78.1243 30.0093 78.1243ZM30.0945 77.5455C30.4307 77.5455 30.7219 77.4709 30.9681 77.3217C31.2143 77.1726 31.4037 76.9749 31.5363 76.7287C31.6713 76.4801 31.7387 76.2067 31.7387 75.9084V75.12C31.6914 75.165 31.6121 75.2053 31.5008 75.2408C31.3919 75.2763 31.2652 75.3082 31.1208 75.3366C30.9788 75.3627 30.8367 75.3852 30.6947 75.4041C30.5526 75.4231 30.4248 75.4396 30.3112 75.4538C30.0034 75.4917 29.7406 75.5509 29.5228 75.6314C29.305 75.7119 29.1381 75.8232 29.0221 75.9652C28.9061 76.1049 28.8481 76.2848 28.8481 76.505C28.8481 76.8364 28.9665 77.0933 29.2032 77.2756C29.44 77.4555 29.7371 77.5455 30.0945 77.5455ZM34.6844 74.5909V78H34.0523V72.5455H34.6666V73.4013H34.7235C34.8513 73.1219 35.0502 72.8982 35.32 72.7301C35.5923 72.5597 35.9285 72.4744 36.3286 72.4744C36.6955 72.4744 37.0175 72.5514 37.2945 72.7053C37.5738 72.8568 37.7905 73.0805 37.9443 73.3764C38.1006 73.6723 38.1787 74.0357 38.1787 74.4666V78H37.5466V74.5057C37.5466 74.0582 37.4211 73.7043 37.1702 73.4439C36.9216 73.1835 36.5878 73.0533 36.1688 73.0533C35.8823 73.0533 35.6278 73.1148 35.4053 73.2379C35.1827 73.361 35.0064 73.5386 34.8762 73.7706C34.7483 74.0002 34.6844 74.2737 34.6844 74.5909ZM41.9917 72.5455V73.0959H39.3888V72.5455H41.9917ZM40.202 71.2386H40.8376V76.576C40.8376 76.8033 40.8767 76.982 40.9548 77.1122C41.0329 77.2401 41.1347 77.3312 41.2602 77.3857C41.3857 77.4377 41.5194 77.4638 41.6615 77.4638C41.7443 77.4638 41.8154 77.459 41.8746 77.4496C41.9337 77.4377 41.9858 77.4259 42.0308 77.4141L42.1657 77.9858C42.1042 78.0095 42.0284 78.0308 41.9385 78.0497C41.8485 78.071 41.7372 78.0817 41.6047 78.0817C41.3727 78.0817 41.1489 78.0308 40.9335 77.929C40.7204 77.8272 40.5452 77.6757 40.4079 77.4744C40.2706 77.2732 40.202 77.0234 40.202 76.7251V71.2386ZM48.3882 72.5455V73.0959H45.7852V72.5455H48.3882ZM46.5985 71.2386H47.2341V76.576C47.2341 76.8033 47.2732 76.982 47.3513 77.1122C47.4294 77.2401 47.5312 77.3312 47.6567 77.3857C47.7822 77.4377 47.9159 77.4638 48.058 77.4638C48.1408 77.4638 48.2119 77.459 48.271 77.4496C48.3302 77.4377 48.3823 77.4259 48.4273 77.4141L48.5622 77.9858C48.5007 78.0095 48.4249 78.0308 48.335 78.0497C48.245 78.071 48.1337 78.0817 48.0012 78.0817C47.7691 78.0817 47.5454 78.0308 47.33 77.929C47.1169 77.8272 46.9417 77.6757 46.8044 77.4744C46.6671 77.2732 46.5985 77.0234 46.5985 76.7251V71.2386ZM51.8852 78.1136C51.4141 78.1136 50.9974 77.9941 50.6352 77.755C50.2754 77.5159 49.9936 77.1856 49.79 76.7642C49.5864 76.3404 49.4846 75.8516 49.4846 75.2976C49.4846 74.7389 49.5864 74.2476 49.79 73.8239C49.9936 73.3977 50.2754 73.0663 50.6352 72.8295C50.9974 72.5904 51.4141 72.4709 51.8852 72.4709C52.3563 72.4709 52.7718 72.5904 53.1317 72.8295C53.4915 73.0687 53.7732 73.4001 53.9768 73.8239C54.1828 74.2476 54.2858 74.7389 54.2858 75.2976C54.2858 75.8516 54.184 76.3404 53.9804 76.7642C53.7768 77.1856 53.4939 77.5159 53.1317 77.755C52.7718 77.9941 52.3563 78.1136 51.8852 78.1136ZM51.8852 77.5348C52.264 77.5348 52.5848 77.433 52.8476 77.2294C53.1104 77.0258 53.3092 76.7547 53.4442 76.4162C53.5815 76.0777 53.6501 75.7048 53.6501 75.2976C53.6501 74.8904 53.5815 74.5163 53.4442 74.1754C53.3092 73.8345 53.1104 73.5611 52.8476 73.3551C52.5848 73.1491 52.264 73.0462 51.8852 73.0462C51.5088 73.0462 51.188 73.1491 50.9229 73.3551C50.6601 73.5611 50.46 73.8345 50.3227 74.1754C50.1878 74.5163 50.1203 74.8904 50.1203 75.2976C50.1203 75.7048 50.1878 76.0777 50.3227 76.4162C50.46 76.7547 50.6601 77.0258 50.9229 77.2294C51.1856 77.433 51.5064 77.5348 51.8852 77.5348ZM60.7302 72.5455V73.0959H58.0491V72.5455H60.7302ZM58.8872 78V71.7464C58.8872 71.4529 58.9546 71.2055 59.0896 71.0043C59.2269 70.803 59.4056 70.6503 59.6258 70.5462C59.846 70.442 60.0792 70.3899 60.3254 70.3899C60.4911 70.3899 60.6284 70.4041 60.7373 70.4325C60.8486 70.4586 60.9362 70.4846 61.0001 70.5107L60.8154 71.0646C60.7681 71.0504 60.7101 71.0339 60.6414 71.0149C60.5728 70.996 60.4864 70.9865 60.3822 70.9865C60.1076 70.9865 59.8957 71.0634 59.7465 71.2173C59.5974 71.3712 59.5228 71.5914 59.5228 71.8778L59.5193 78H58.8872ZM61.9988 78V72.5455H62.6345V78H61.9988ZM62.322 71.608C62.1918 71.608 62.0805 71.5642 61.9882 71.4766C61.8959 71.3866 61.8497 71.2789 61.8497 71.1534C61.8497 71.0279 61.8959 70.9214 61.9882 70.8338C62.0805 70.7438 62.1918 70.6989 62.322 70.6989C62.4522 70.6989 62.5635 70.7438 62.6558 70.8338C62.7481 70.9214 62.7943 71.0279 62.7943 71.1534C62.7943 71.2789 62.7481 71.3866 62.6558 71.4766C62.5635 71.5642 62.4522 71.608 62.322 71.608ZM64.9383 74.5909V78H64.3062V72.5455H64.9205V73.4013H64.9774C65.1052 73.1219 65.3041 72.8982 65.574 72.7301C65.8462 72.5597 66.1824 72.4744 66.5825 72.4744C66.9494 72.4744 67.2714 72.5514 67.5484 72.7053C67.8277 72.8568 68.0444 73.0805 68.1982 73.3764C68.3545 73.6723 68.4326 74.0357 68.4326 74.4666V78H67.8005V74.5057C67.8005 74.0582 67.675 73.7043 67.4241 73.4439C67.1755 73.1835 66.8417 73.0533 66.4227 73.0533C66.1362 73.0533 65.8817 73.1148 65.6592 73.2379C65.4366 73.361 65.2603 73.5386 65.1301 73.7706C65.0022 74.0002 64.9383 74.2737 64.9383 74.5909ZM72.061 78.1136C71.6135 78.1136 71.2217 77.9953 70.8856 77.7585C70.5494 77.5218 70.2866 77.1915 70.0972 76.7678C69.9102 76.344 69.8167 75.8504 69.8167 75.2869C69.8167 74.7259 69.9102 74.2346 70.0972 73.8132C70.2866 73.3894 70.5506 73.0604 70.8891 72.826C71.2277 72.5893 71.6218 72.4709 72.0716 72.4709C72.4031 72.4709 72.6789 72.5301 72.8991 72.6484C73.1192 72.7644 73.2956 72.9089 73.4282 73.0817C73.5608 73.2545 73.6637 73.4226 73.7371 73.5859H73.7939V70.7273H74.4296V78H73.8117V76.9879H73.7371C73.6637 77.1536 73.5596 77.3241 73.4246 77.4993C73.2897 77.6721 73.1109 77.8177 72.8884 77.9361C72.6682 78.0545 72.3924 78.1136 72.061 78.1136ZM72.1356 77.5348C72.4883 77.5348 72.789 77.4389 73.0376 77.2472C73.2861 77.053 73.4755 76.7867 73.6057 76.4482C73.7383 76.1072 73.8046 75.7166 73.8046 75.2763C73.8046 74.8407 73.7395 74.456 73.6093 74.1222C73.4791 73.786 73.2897 73.5232 73.0411 73.3338C72.7925 73.142 72.4907 73.0462 72.1356 73.0462C71.771 73.0462 71.4632 73.1456 71.2123 73.3445C70.9637 73.541 70.7743 73.8073 70.6441 74.1435C70.5162 74.4796 70.4523 74.8572 70.4523 75.2763C70.4523 75.7 70.5174 76.0824 70.6476 76.4233C70.7778 76.7642 70.9672 77.0353 71.2158 77.2365C71.4668 77.4354 71.7733 77.5348 72.1356 77.5348Z" fill="#333333"/>
</svg>
