<svg width="115" height="120" viewBox="0 0 115 120" fill="none" xmlns="http://www.w3.org/2000/svg">
<path d="M103.273 23.8173C102.95 25.0071 103.664 26.6613 104.346 27.8538C104.558 28.2094 104.788 28.5539 105.036 28.886C110.883 37.7542 114 48.1433 114 58.7658C114.095 89.2568 88.8111 114 57.546 114C30.2794 114 7.51922 95.1105 2.20062 70.0359C1.40375 66.3184 1.00131 62.5271 0.999998 58.7251C0.999998 28.1906 25.3085 3.05899 56.5736 3.05899C61.5445 3.05899 68.2539 4.30852 71.9128 5.33258C75.5717 6.35664 79.2251 7.71481 80.1677 8.0788C81.1317 8.44935 82.1555 8.63993 83.1883 8.64109C84.3163 8.64537 85.4336 8.42083 86.4723 7.98102L104.897 1.3314C105.301 1.15742 105.729 1.04569 106.166 1C106.511 1.00104 106.852 1.07053 107.17 1.20443C107.488 1.33834 107.776 1.53399 108.018 1.78007C108.26 2.02615 108.45 2.31776 108.579 2.63801C108.707 2.95826 108.77 3.30077 108.765 3.64572C108.743 3.94853 108.688 4.24809 108.602 4.5394L103.273 23.8173Z" stroke="#CFCFDD" stroke-miterlimit="10" stroke-linecap="round"/>
<path d="M17.1509 28.5455V29.0959H14.5479V28.5455H17.1509ZM15.3612 27.2386H15.9968V32.576C15.9968 32.8033 16.0359 32.982 16.114 33.1122C16.1921 33.2401 16.2939 33.3312 16.4194 33.3857C16.5449 33.4377 16.6786 33.4638 16.8207 33.4638C16.9035 33.4638 16.9746 33.459 17.0337 33.4496C17.0929 33.4377 17.145 33.4259 17.19 33.4141L17.3249 33.9858C17.2634 34.0095 17.1876 34.0308 17.0977 34.0497C17.0077 34.071 16.8964 34.0817 16.7638 34.0817C16.5318 34.0817 16.3081 34.0308 16.0927 33.929C15.8796 33.8272 15.7044 33.6757 15.5671 33.4744C15.4298 33.2732 15.3612 33.0234 15.3612 32.7251V27.2386ZM19.3358 30.5909V34H18.7037V26.7273H19.3358V29.4013H19.3926C19.5204 29.1196 19.7181 28.8946 19.9856 28.7266C20.2555 28.5585 20.5964 28.4744 21.0083 28.4744C21.3777 28.4744 21.702 28.5502 21.9814 28.7017C22.2607 28.8532 22.4785 29.0769 22.6348 29.3729C22.791 29.6688 22.8691 30.0334 22.8691 30.4666V34H22.2335V30.5057C22.2335 30.0559 22.108 29.7019 21.8571 29.4439C21.6085 29.1835 21.2723 29.0533 20.8485 29.0533C20.5574 29.0533 20.2981 29.1148 20.0708 29.2379C19.8436 29.361 19.6636 29.5386 19.5311 29.7706C19.4009 30.0002 19.3358 30.2737 19.3358 30.5909ZM26.739 34.1136C26.23 34.1136 25.7897 33.9953 25.418 33.7585C25.0463 33.5194 24.7586 33.1892 24.555 32.7678C24.3538 32.344 24.2532 31.8563 24.2532 31.3047C24.2532 30.7554 24.3538 30.2678 24.555 29.8416C24.7586 29.4131 25.0392 29.0781 25.3967 28.8366C25.7565 28.5928 26.172 28.4709 26.6431 28.4709C26.939 28.4709 27.2243 28.5253 27.4989 28.6342C27.7736 28.7408 28.0198 28.9053 28.2376 29.1278C28.4577 29.348 28.6317 29.6262 28.7596 29.9624C28.8874 30.2962 28.9513 30.6915 28.9513 31.1484V31.4609H24.69V30.9034H28.305C28.305 30.553 28.234 30.2382 28.092 29.9588C27.9523 29.6771 27.757 29.4545 27.506 29.2912C27.2575 29.1278 26.9698 29.0462 26.6431 29.0462C26.2975 29.0462 25.9933 29.1385 25.7305 29.3232C25.4677 29.5078 25.2617 29.7517 25.1126 30.0547C24.9658 30.3577 24.8912 30.6892 24.8888 31.049V31.3828C24.8888 31.8161 24.9634 32.1948 25.1126 32.5192C25.2641 32.8411 25.4783 33.0909 25.7553 33.2685C26.0323 33.446 26.3602 33.5348 26.739 33.5348C26.997 33.5348 27.2231 33.4946 27.4173 33.4141C27.6138 33.3336 27.7783 33.2259 27.9109 33.0909C28.0458 32.9536 28.1476 32.8033 28.2163 32.6399L28.8164 32.8352C28.7335 33.0649 28.5974 33.2768 28.408 33.4709C28.221 33.665 27.9866 33.8213 27.7049 33.9396C27.4255 34.0556 27.1036 34.1136 26.739 34.1136ZM33.1568 36.0455V28.5455H33.7711V29.5859H33.8457C33.9215 29.4226 34.0256 29.2557 34.1582 29.0852C34.2908 28.9124 34.466 28.7668 34.6838 28.6484C34.9039 28.5301 35.1809 28.4709 35.5147 28.4709C35.9645 28.4709 36.3575 28.5893 36.6937 28.826C37.0323 29.0604 37.295 29.3894 37.4821 29.8132C37.6715 30.2346 37.7662 30.7259 37.7662 31.2869C37.7662 31.8504 37.6715 32.344 37.4821 32.7678C37.295 33.1915 37.0323 33.5218 36.6937 33.7585C36.3575 33.9953 35.9669 34.1136 35.5218 34.1136C35.1928 34.1136 34.917 34.0545 34.6944 33.9361C34.4743 33.8177 34.2955 33.6721 34.1582 33.4993C34.0233 33.3241 33.9191 33.1536 33.8457 32.9879H33.7889V36.0455H33.1568ZM33.7818 31.2763C33.7818 31.7166 33.8469 32.1072 33.9771 32.4482C34.1097 32.7867 34.2991 33.053 34.5453 33.2472C34.7939 33.4389 35.0945 33.5348 35.4473 33.5348C35.8095 33.5348 36.1149 33.4354 36.3635 33.2365C36.6144 33.0353 36.805 32.7642 36.9352 32.4233C37.0678 32.0824 37.1341 31.7 37.1341 31.2763C37.1341 30.8572 37.069 30.4796 36.9387 30.1435C36.8109 29.8073 36.6215 29.541 36.3706 29.3445C36.1196 29.1456 35.8118 29.0462 35.4473 29.0462C35.0922 29.0462 34.7903 29.142 34.5417 29.3338C34.2931 29.5232 34.1038 29.786 33.9735 30.1222C33.8457 30.456 33.7818 30.8407 33.7818 31.2763ZM39.785 26.7273V34H39.1529V26.7273H39.785ZM42.981 34.1243C42.6519 34.1243 42.3513 34.0604 42.079 33.9325C41.8068 33.8023 41.5901 33.6153 41.4292 33.3714C41.2682 33.1252 41.1877 32.8269 41.1877 32.4766C41.1877 32.2067 41.2386 31.9794 41.3404 31.7947C41.4422 31.6101 41.5866 31.4586 41.7736 31.3402C41.9606 31.2218 42.182 31.1283 42.4377 31.0597C42.6934 30.991 42.9751 30.9377 43.2828 30.8999C43.5882 30.862 43.8463 30.8288 44.057 30.8004C44.2701 30.772 44.4322 30.727 44.5435 30.6655C44.6548 30.6039 44.7104 30.5045 44.7104 30.3672V30.2393C44.7104 29.8677 44.5991 29.5753 44.3766 29.3622C44.1564 29.1468 43.8392 29.0391 43.4249 29.0391C43.0319 29.0391 42.7111 29.1255 42.4625 29.2983C42.2163 29.4711 42.0435 29.6747 41.9441 29.9091L41.3439 29.6925C41.467 29.3942 41.6375 29.1562 41.8553 28.9787C42.0731 28.7988 42.3169 28.6697 42.5868 28.5916C42.8567 28.5111 43.1301 28.4709 43.4071 28.4709C43.6155 28.4709 43.8321 28.4981 44.057 28.5526C44.2843 28.607 44.495 28.7017 44.6891 28.8366C44.8832 28.9692 45.0407 29.1551 45.1614 29.3942C45.2821 29.6309 45.3425 29.9316 45.3425 30.2962V34H44.7104V33.1371H44.6713C44.5956 33.2981 44.4831 33.4543 44.334 33.6058C44.1848 33.7573 43.9978 33.8816 43.7729 33.9787C43.548 34.0758 43.284 34.1243 42.981 34.1243ZM43.0662 33.5455C43.4024 33.5455 43.6936 33.4709 43.9398 33.3217C44.186 33.1726 44.3754 32.9749 44.508 32.7287C44.6429 32.4801 44.7104 32.2067 44.7104 31.9084V31.12C44.6631 31.165 44.5837 31.2053 44.4725 31.2408C44.3636 31.2763 44.2369 31.3082 44.0925 31.3366C43.9505 31.3627 43.8084 31.3852 43.6664 31.4041C43.5243 31.4231 43.3965 31.4396 43.2828 31.4538C42.9751 31.4917 42.7123 31.5509 42.4945 31.6314C42.2767 31.7119 42.1098 31.8232 41.9938 31.9652C41.8778 32.1049 41.8198 32.2848 41.8198 32.505C41.8198 32.8364 41.9382 33.0933 42.1749 33.2756C42.4116 33.4555 42.7087 33.5455 43.0662 33.5455ZM49.1724 28.5455V29.0959H46.5694V28.5455H49.1724ZM47.3826 27.2386H48.0183V32.576C48.0183 32.8033 48.0574 32.982 48.1355 33.1122C48.2136 33.2401 48.3154 33.3312 48.4409 33.3857C48.5663 33.4377 48.7001 33.4638 48.8422 33.4638C48.925 33.4638 48.996 33.459 49.0552 33.4496C49.1144 33.4377 49.1665 33.4259 49.2115 33.4141L49.3464 33.9858C49.2849 34.0095 49.2091 34.0308 49.1191 34.0497C49.0292 34.071 48.9179 34.0817 48.7853 34.0817C48.5533 34.0817 48.3296 34.0308 48.1142 33.929C47.9011 33.8272 47.7259 33.6757 47.5886 33.4744C47.4513 33.2732 47.3826 33.0234 47.3826 32.7251V27.2386ZM52.8523 28.5455V29.0959H50.1712V28.5455H52.8523ZM51.0092 34V27.7464C51.0092 27.4529 51.0767 27.2055 51.2116 27.0043C51.349 26.803 51.5277 26.6503 51.7479 26.5462C51.968 26.442 52.2012 26.3899 52.4474 26.3899C52.6132 26.3899 52.7505 26.4041 52.8594 26.4325C52.9706 26.4586 53.0582 26.4846 53.1222 26.5107L52.9375 27.0646C52.8902 27.0504 52.8321 27.0339 52.7635 27.0149C52.6948 26.996 52.6084 26.9865 52.5043 26.9865C52.2296 26.9865 52.0178 27.0634 51.8686 27.2173C51.7195 27.3712 51.6449 27.5914 51.6449 27.8778L51.6413 34H51.0092ZM56.0092 34.1136C55.5381 34.1136 55.1214 33.9941 54.7592 33.755C54.3994 33.5159 54.1177 33.1856 53.9141 32.7642C53.7105 32.3404 53.6087 31.8516 53.6087 31.2976C53.6087 30.7389 53.7105 30.2476 53.9141 29.8239C54.1177 29.3977 54.3994 29.0663 54.7592 28.8295C55.1214 28.5904 55.5381 28.4709 56.0092 28.4709C56.4804 28.4709 56.8958 28.5904 57.2557 28.8295C57.6155 29.0687 57.8973 29.4001 58.1009 29.8239C58.3068 30.2476 58.4098 30.7389 58.4098 31.2976C58.4098 31.8516 58.308 32.3404 58.1044 32.7642C57.9008 33.1856 57.6179 33.5159 57.2557 33.755C56.8958 33.9941 56.4804 34.1136 56.0092 34.1136ZM56.0092 33.5348C56.388 33.5348 56.7088 33.433 56.9716 33.2294C57.2344 33.0258 57.4332 32.7547 57.5682 32.4162C57.7055 32.0777 57.7741 31.7048 57.7741 31.2976C57.7741 30.8904 57.7055 30.5163 57.5682 30.1754C57.4332 29.8345 57.2344 29.5611 56.9716 29.3551C56.7088 29.1491 56.388 29.0462 56.0092 29.0462C55.6328 29.0462 55.312 29.1491 55.0469 29.3551C54.7841 29.5611 54.584 29.8345 54.4467 30.1754C54.3118 30.5163 54.2443 30.8904 54.2443 31.2976C54.2443 31.7048 54.3118 32.0777 54.4467 32.4162C54.584 32.7547 54.7841 33.0258 55.0469 33.2294C55.3097 33.433 55.6304 33.5348 56.0092 33.5348ZM59.7974 34V28.5455H60.4118V29.3835H60.4579C60.5668 29.1089 60.7562 28.8875 61.0261 28.7195C61.2984 28.549 61.6061 28.4638 61.9494 28.4638C62.0015 28.4638 62.0595 28.465 62.1234 28.4673C62.1873 28.4697 62.2406 28.4721 62.2832 28.4744V29.1172C62.2548 29.1125 62.2051 29.1054 62.1341 29.0959C62.063 29.0864 61.9861 29.0817 61.9032 29.0817C61.6191 29.0817 61.3658 29.142 61.1433 29.2628C60.9231 29.3812 60.7491 29.5457 60.6213 29.7564C60.4934 29.9671 60.4295 30.2074 60.4295 30.4773V34H59.7974ZM63.3619 34V28.5455H63.9762V29.3835H64.033C64.1419 29.1018 64.323 28.8804 64.5763 28.7195C64.832 28.5561 65.1386 28.4744 65.4961 28.4744C65.8725 28.4744 66.1815 28.5632 66.4229 28.7408C66.6668 28.916 66.8491 29.1574 66.9698 29.4652H67.016C67.1391 29.1622 67.3391 28.9219 67.6161 28.7443C67.8955 28.5644 68.234 28.4744 68.6317 28.4744C69.1384 28.4744 69.5385 28.6342 69.832 28.9538C70.1256 29.2711 70.2724 29.7351 70.2724 30.3459V34H69.6403V30.3459C69.6403 29.915 69.5302 29.5919 69.31 29.3764C69.0898 29.161 68.7998 29.0533 68.44 29.0533C68.0233 29.0533 67.7025 29.1811 67.4776 29.4368C67.2527 29.6925 67.1403 30.0168 67.1403 30.4098V34H66.494V30.2891C66.494 29.9197 66.391 29.6214 66.185 29.3942C65.979 29.1669 65.689 29.0533 65.315 29.0533C65.064 29.0533 64.8379 29.1148 64.6367 29.2379C64.4379 29.361 64.2804 29.5327 64.1644 29.7528C64.0508 29.9706 63.994 30.2216 63.994 30.5057V34H63.3619ZM75.3904 30.5909V34H74.7583V26.7273H75.3904V29.4013H75.4473C75.5751 29.1196 75.7728 28.8946 76.0403 28.7266C76.3102 28.5585 76.6511 28.4744 77.063 28.4744C77.4324 28.4744 77.7567 28.5502 78.036 28.7017C78.3154 28.8532 78.5332 29.0769 78.6895 29.3729C78.8457 29.6688 78.9238 30.0334 78.9238 30.4666V34H78.2882V30.5057C78.2882 30.0559 78.1627 29.7019 77.9118 29.4439C77.6632 29.1835 77.327 29.0533 76.9032 29.0533C76.612 29.0533 76.3528 29.1148 76.1255 29.2379C75.8983 29.361 75.7183 29.5386 75.5858 29.7706C75.4556 30.0002 75.3904 30.2737 75.3904 30.5909ZM82.1119 34.1243C81.7828 34.1243 81.4821 34.0604 81.2099 33.9325C80.9376 33.8023 80.721 33.6153 80.56 33.3714C80.399 33.1252 80.3185 32.8269 80.3185 32.4766C80.3185 32.2067 80.3694 31.9794 80.4712 31.7947C80.573 31.6101 80.7174 31.4586 80.9045 31.3402C81.0915 31.2218 81.3129 31.1283 81.5685 31.0597C81.8242 30.991 82.1059 30.9377 82.4137 30.8999C82.7191 30.862 82.9772 30.8288 83.1879 30.8004C83.4009 30.772 83.5631 30.727 83.6744 30.6655C83.7856 30.6039 83.8413 30.5045 83.8413 30.3672V30.2393C83.8413 29.8677 83.73 29.5753 83.5075 29.3622C83.2873 29.1468 82.9701 29.0391 82.5558 29.0391C82.1628 29.0391 81.842 29.1255 81.5934 29.2983C81.3472 29.4711 81.1744 29.6747 81.0749 29.9091L80.4748 29.6925C80.5979 29.3942 80.7683 29.1562 80.9862 28.9787C81.204 28.7988 81.4478 28.6697 81.7177 28.5916C81.9876 28.5111 82.261 28.4709 82.538 28.4709C82.7463 28.4709 82.9629 28.4981 83.1879 28.5526C83.4151 28.607 83.6258 28.7017 83.82 28.8366C84.0141 28.9692 84.1715 29.1551 84.2923 29.3942C84.413 29.6309 84.4734 29.9316 84.4734 30.2962V34H83.8413V33.1371H83.8022C83.7264 33.2981 83.614 33.4543 83.4648 33.6058C83.3157 33.7573 83.1287 33.8816 82.9038 33.9787C82.6789 34.0758 82.4149 34.1243 82.1119 34.1243ZM82.1971 33.5455C82.5333 33.5455 82.8245 33.4709 83.0707 33.3217C83.3169 33.1726 83.5063 32.9749 83.6388 32.7287C83.7738 32.4801 83.8413 32.2067 83.8413 31.9084V31.12C83.7939 31.165 83.7146 31.2053 83.6033 31.2408C83.4944 31.2763 83.3678 31.3082 83.2234 31.3366C83.0813 31.3627 82.9393 31.3852 82.7972 31.4041C82.6552 31.4231 82.5273 31.4396 82.4137 31.4538C82.1059 31.4917 81.8432 31.5509 81.6254 31.6314C81.4076 31.7119 81.2406 31.8232 81.1246 31.9652C81.0086 32.1049 80.9506 32.2848 80.9506 32.505C80.9506 32.8364 81.069 33.0933 81.3058 33.2756C81.5425 33.4555 81.8396 33.5455 82.1971 33.5455ZM88.1186 34.1136C87.6712 34.1136 87.2794 33.9953 86.9432 33.7585C86.607 33.5218 86.3442 33.1915 86.1548 32.7678C85.9678 32.344 85.8743 31.8504 85.8743 31.2869C85.8743 30.7259 85.9678 30.2346 86.1548 29.8132C86.3442 29.3894 86.6082 29.0604 86.9467 28.826C87.2853 28.5893 87.6795 28.4709 88.1293 28.4709C88.4607 28.4709 88.7365 28.5301 88.9567 28.6484C89.1768 28.7644 89.3532 28.9089 89.4858 29.0817C89.6184 29.2545 89.7214 29.4226 89.7947 29.5859H89.8516V26.7273H90.4872V34H89.8693V32.9879H89.7947C89.7214 33.1536 89.6172 33.3241 89.4822 33.4993C89.3473 33.6721 89.1686 33.8177 88.946 33.9361C88.7259 34.0545 88.45 34.1136 88.1186 34.1136ZM88.1932 33.5348C88.5459 33.5348 88.8466 33.4389 89.0952 33.2472C89.3438 33.053 89.5331 32.7867 89.6634 32.4482C89.7959 32.1072 89.8622 31.7166 89.8622 31.2763C89.8622 30.8407 89.7971 30.456 89.6669 30.1222C89.5367 29.786 89.3473 29.5232 89.0987 29.3338C88.8501 29.142 88.5483 29.0462 88.1932 29.0462C87.8286 29.0462 87.5208 29.1456 87.2699 29.3445C87.0213 29.541 86.8319 29.8073 86.7017 30.1435C86.5739 30.4796 86.5099 30.8572 86.5099 31.2763C86.5099 31.7 86.575 32.0824 86.7053 32.4233C86.8355 32.7642 87.0249 33.0353 87.2734 33.2365C87.5244 33.4354 87.831 33.5348 88.1932 33.5348ZM96.6236 34.1243C96.2945 34.1243 95.9938 34.0604 95.7216 33.9325C95.4493 33.8023 95.2327 33.6153 95.0717 33.3714C94.9107 33.1252 94.8303 32.8269 94.8303 32.4766C94.8303 32.2067 94.8812 31.9794 94.983 31.7947C95.0848 31.6101 95.2292 31.4586 95.4162 31.3402C95.6032 31.2218 95.8246 31.1283 96.0803 31.0597C96.3359 30.991 96.6177 30.9377 96.9254 30.8999C97.2308 30.862 97.4889 30.8288 97.6996 30.8004C97.9126 30.772 98.0748 30.727 98.1861 30.6655C98.2973 30.6039 98.353 30.5045 98.353 30.3672V30.2393C98.353 29.8677 98.2417 29.5753 98.0192 29.3622C97.799 29.1468 97.4818 29.0391 97.0675 29.0391C96.6745 29.0391 96.3537 29.1255 96.1051 29.2983C95.8589 29.4711 95.6861 29.6747 95.5866 29.9091L94.9865 29.6925C95.1096 29.3942 95.2801 29.1562 95.4979 28.9787C95.7157 28.7988 95.9595 28.6697 96.2294 28.5916C96.4993 28.5111 96.7727 28.4709 97.0497 28.4709C97.258 28.4709 97.4747 28.4981 97.6996 28.5526C97.9268 28.607 98.1375 28.7017 98.3317 28.8366C98.5258 28.9692 98.6832 29.1551 98.804 29.3942C98.9247 29.6309 98.9851 29.9316 98.9851 30.2962V34H98.353V33.1371H98.3139C98.2382 33.2981 98.1257 33.4543 97.9766 33.6058C97.8274 33.7573 97.6404 33.8816 97.4155 33.9787C97.1906 34.0758 96.9266 34.1243 96.6236 34.1243ZM96.7088 33.5455C97.045 33.5455 97.3362 33.4709 97.5824 33.3217C97.8286 33.1726 98.018 32.9749 98.1506 32.7287C98.2855 32.4801 98.353 32.2067 98.353 31.9084V31.12C98.3056 31.165 98.2263 31.2053 98.1151 31.2408C98.0062 31.2763 97.8795 31.3082 97.7351 31.3366C97.593 31.3627 97.451 31.3852 97.3089 31.4041C97.1669 31.4231 97.0391 31.4396 96.9254 31.4538C96.6177 31.4917 96.3549 31.5509 96.1371 31.6314C95.9193 31.7119 95.7524 31.8232 95.6364 31.9652C95.5204 32.1049 95.4624 32.2848 95.4624 32.505C95.4624 32.8364 95.5807 33.0933 95.8175 33.2756C96.0542 33.4555 96.3513 33.5455 96.7088 33.5455ZM16.4513 43.7273H17.19L18.1204 44.9595L18.2766 45.1655L19.4201 46.6818H18.6815L17.8434 45.5632L17.6942 45.3643L16.4513 43.7273ZM19.69 42.3636C19.69 43.1212 19.555 43.7805 19.2852 44.3416C19.0153 44.9003 18.6436 45.3336 18.1701 45.6413C17.699 45.9467 17.1568 46.0994 16.5437 46.0994C15.9305 46.0994 15.3872 45.9467 14.9137 45.6413C14.4426 45.3336 14.0721 44.9003 13.8022 44.3416C13.5347 43.7805 13.4009 43.1212 13.4009 42.3636C13.4009 41.6061 13.5347 40.9479 13.8022 40.3892C14.0721 39.8281 14.4438 39.3949 14.9173 39.0895C15.3907 38.7817 15.9329 38.6278 16.5437 38.6278C17.1568 38.6278 17.699 38.7817 18.1701 39.0895C18.6436 39.3949 19.0153 39.8281 19.2852 40.3892C19.555 40.9479 19.69 41.6061 19.69 42.3636ZM19.0437 42.3636C19.0437 41.7126 18.9348 41.1551 18.717 40.6911C18.4992 40.2247 18.2021 39.8684 17.8256 39.6222C17.4492 39.3759 17.0219 39.2528 16.5437 39.2528C16.0678 39.2528 15.6417 39.3759 15.2653 39.6222C14.8888 39.8684 14.5906 40.2235 14.3704 40.6875C14.1526 41.1515 14.0437 41.7102 14.0437 42.3636C14.0437 43.0147 14.1526 43.5722 14.3704 44.0362C14.5882 44.5002 14.8853 44.8565 15.2617 45.1051C15.6381 45.3513 16.0655 45.4744 16.5437 45.4744C17.0219 45.4744 17.4492 45.3513 17.8256 45.1051C18.2044 44.8589 18.5027 44.5038 18.7205 44.0398C18.9383 43.5734 19.046 43.0147 19.0437 42.3636ZM23.1106 46.0994C22.6632 46.0994 22.2725 46.013 21.9387 45.8402C21.6049 45.665 21.3457 45.4271 21.161 45.1264C20.9764 44.8258 20.8841 44.486 20.8841 44.1072C20.8841 43.8326 20.9397 43.5852 21.051 43.3651C21.1646 43.1425 21.3279 42.9318 21.541 42.733C21.7541 42.5317 22.0121 42.3234 22.3152 42.108L23.3699 41.3232C23.6208 41.1432 23.8114 40.9669 23.9416 40.794C24.0742 40.6188 24.1404 40.4046 24.1404 40.1513C24.1404 39.9074 24.0481 39.6896 23.8635 39.4979C23.6812 39.3037 23.4444 39.2067 23.1532 39.2067C22.9496 39.2067 22.7673 39.2576 22.6064 39.3594C22.4477 39.4612 22.3211 39.5937 22.2264 39.7571C22.1341 39.9181 22.0879 40.0874 22.0879 40.2649C22.0879 40.4306 22.1305 40.5975 22.2157 40.7656C22.301 40.9313 22.4158 41.1065 22.5602 41.2912C22.7046 41.4735 22.8656 41.6747 23.0431 41.8949L26.367 46H25.6L22.7022 42.4453C22.4584 42.147 22.2418 41.8807 22.0524 41.6463C21.863 41.4096 21.7138 41.1823 21.6049 40.9645C21.496 40.7443 21.4416 40.5088 21.4416 40.2578C21.4416 39.9477 21.5138 39.6719 21.6582 39.4304C21.8026 39.1866 22.0015 38.9948 22.2548 38.8551C22.5105 38.7154 22.8029 38.6456 23.1319 38.6456C23.4681 38.6456 23.7593 38.7143 24.0055 38.8516C24.2541 38.9889 24.4458 39.1712 24.5808 39.3984C24.7181 39.6257 24.7868 39.8767 24.7868 40.1513C24.7868 40.4804 24.7015 40.7715 24.5311 41.0249C24.363 41.2782 24.118 41.5268 23.796 41.7706L22.475 42.7578C22.1127 43.0301 21.8642 43.2822 21.7292 43.5142C21.5943 43.7462 21.5268 43.9439 21.5268 44.1072C21.5268 44.3629 21.5931 44.5985 21.7257 44.8139C21.8583 45.0294 22.0417 45.2022 22.2761 45.3324C22.5128 45.4626 22.7839 45.5289 23.0893 45.5312C23.3923 45.5289 23.6776 45.4685 23.9451 45.3501C24.2127 45.2294 24.4518 45.0578 24.6625 44.8352C24.8755 44.6127 25.046 44.3464 25.1738 44.0362C25.304 43.7261 25.3798 43.3804 25.4011 42.9993L26.0154 43.0064C26.006 43.397 25.9527 43.7285 25.8556 44.0007C25.7609 44.2706 25.652 44.4931 25.5289 44.6683C25.4058 44.8435 25.2981 44.9844 25.2058 45.0909C25.1797 45.1264 25.1537 45.1619 25.1277 45.1974C25.1016 45.233 25.0744 45.2685 25.046 45.304C24.8092 45.5644 24.5145 45.7621 24.1618 45.897C23.8114 46.032 23.461 46.0994 23.1106 46.0994ZM27.5176 46H26.8216L29.4672 38.7273H30.1774L32.823 46H32.127L29.8471 39.5902H29.7974L27.5176 46ZM28.0183 43.2124H31.6262V43.8089H28.0183V43.2124ZM40.4153 41.7422L39.8365 41.9055C39.7797 41.7422 39.6992 41.5942 39.595 41.4616C39.4908 41.3291 39.3547 41.2237 39.1866 41.1456C39.0209 41.0675 38.8149 41.0284 38.5687 41.0284C38.1994 41.0284 37.8964 41.116 37.6596 41.2912C37.4229 41.4664 37.3045 41.6925 37.3045 41.9695C37.3045 42.2038 37.385 42.3944 37.546 42.5412C37.7093 42.6856 37.9603 42.8004 38.2988 42.8857L39.1227 43.0881C39.5796 43.1993 39.9217 43.3757 40.149 43.6172C40.3786 43.8587 40.4934 44.1617 40.4934 44.5263C40.4934 44.834 40.4082 45.1075 40.2377 45.3466C40.0673 45.5857 39.8294 45.7739 39.524 45.9112C39.2209 46.0462 38.8694 46.1136 38.4693 46.1136C37.9366 46.1136 37.4975 45.9941 37.1518 45.755C36.8062 45.5135 36.5848 45.1655 36.4877 44.7109L37.095 44.5618C37.1731 44.8861 37.3258 45.1312 37.5531 45.2969C37.7827 45.4626 38.0846 45.5455 38.4586 45.5455C38.8777 45.5455 39.2127 45.4519 39.4636 45.2649C39.7145 45.0755 39.84 44.8388 39.84 44.5547C39.84 44.3345 39.7666 44.1499 39.6199 44.0007C39.4731 43.8492 39.2505 43.7379 38.9522 43.6669L38.0609 43.4538C37.5874 43.3402 37.237 43.1603 37.0098 42.9141C36.7825 42.6679 36.6689 42.3625 36.6689 41.9979C36.6689 41.6972 36.7505 41.4332 36.9139 41.206C37.0772 40.9763 37.3021 40.7964 37.5886 40.6662C37.8751 40.536 38.2018 40.4709 38.5687 40.4709C39.0682 40.4709 39.4672 40.5845 39.7654 40.8118C40.0661 41.0367 40.2827 41.3468 40.4153 41.7422ZM44.0827 46.1136C43.5737 46.1136 43.1334 45.9953 42.7617 45.7585C42.39 45.5194 42.1024 45.1892 41.8988 44.7678C41.6976 44.344 41.5969 43.8563 41.5969 43.3047C41.5969 42.7554 41.6976 42.2678 41.8988 41.8416C42.1024 41.4131 42.3829 41.0781 42.7404 40.8366C43.1003 40.5928 43.5157 40.4709 43.9869 40.4709C44.2828 40.4709 44.5681 40.5253 44.8427 40.6342C45.1173 40.7408 45.3635 40.9053 45.5813 41.1278C45.8015 41.348 45.9755 41.6262 46.1033 41.9624C46.2312 42.2962 46.2951 42.6915 46.2951 43.1484V43.4609H42.0337V42.9034H45.6488C45.6488 42.553 45.5778 42.2382 45.4357 41.9588C45.296 41.6771 45.1007 41.4545 44.8498 41.2912C44.6012 41.1278 44.3136 41.0462 43.9869 41.0462C43.6412 41.0462 43.337 41.1385 43.0742 41.3232C42.8114 41.5078 42.6055 41.7517 42.4563 42.0547C42.3095 42.3577 42.235 42.6892 42.2326 43.049V43.3828C42.2326 43.8161 42.3072 44.1948 42.4563 44.5192C42.6078 44.8411 42.8221 45.0909 43.0991 45.2685C43.3761 45.446 43.704 45.5348 44.0827 45.5348C44.3408 45.5348 44.5669 45.4946 44.761 45.4141C44.9575 45.3336 45.122 45.2259 45.2546 45.0909C45.3896 44.9536 45.4914 44.8033 45.56 44.6399L46.1602 44.8352C46.0773 45.0649 45.9412 45.2768 45.7518 45.4709C45.5647 45.665 45.3304 45.8213 45.0487 45.9396C44.7693 46.0556 44.4473 46.1136 44.0827 46.1136ZM49.8187 46.1136C49.331 46.1136 48.9061 45.9917 48.5439 45.7479C48.184 45.504 47.9047 45.1702 47.7058 44.7464C47.5069 44.3227 47.4075 43.8397 47.4075 43.2976C47.4075 42.7507 47.5081 42.2642 47.7093 41.8381C47.9129 41.4119 48.1947 41.0781 48.5545 40.8366C48.9144 40.5928 49.3322 40.4709 49.8081 40.4709C50.1726 40.4709 50.5029 40.5419 50.7988 40.6839C51.0948 40.8236 51.3386 41.0213 51.5304 41.277C51.7245 41.5303 51.8464 41.8262 51.8961 42.1648H51.2569C51.1906 41.857 51.0308 41.5942 50.7775 41.3764C50.5266 41.1562 50.207 41.0462 49.8187 41.0462C49.4707 41.0462 49.1629 41.1409 48.8954 41.3303C48.6279 41.5173 48.4184 41.7789 48.2669 42.1151C48.1177 42.4489 48.0431 42.8359 48.0431 43.2763C48.0431 43.719 48.1165 44.1108 48.2633 44.4517C48.4101 44.7902 48.6161 45.0554 48.8812 45.2472C49.1487 45.4389 49.4612 45.5348 49.8187 45.5348C50.0602 45.5348 50.2804 45.4898 50.4792 45.3999C50.6805 45.3075 50.8485 45.1773 50.9835 45.0092C51.1208 44.8411 51.2131 44.6411 51.2605 44.4091H51.8997C51.8523 44.7382 51.7351 45.0317 51.5481 45.2898C51.3635 45.5455 51.1232 45.7467 50.8272 45.8935C50.5337 46.0402 50.1975 46.1136 49.8187 46.1136ZM55.4029 40.5455V41.0959H52.7999V40.5455H55.4029ZM53.6131 39.2386H54.2488V44.576C54.2488 44.8033 54.2878 44.982 54.3659 45.1122C54.4441 45.2401 54.5459 45.3312 54.6713 45.3857C54.7968 45.4377 54.9306 45.4638 55.0726 45.4638C55.1555 45.4638 55.2265 45.459 55.2857 45.4496C55.3449 45.4377 55.397 45.4259 55.4419 45.4141L55.5769 45.9858C55.5153 46.0095 55.4396 46.0308 55.3496 46.0497C55.2596 46.071 55.1484 46.0817 55.0158 46.0817C54.7838 46.0817 54.5601 46.0308 54.3446 45.929C54.1316 45.8272 53.9564 45.6757 53.8191 45.4744C53.6818 45.2732 53.6131 45.0234 53.6131 44.7251V39.2386ZM56.8455 46V40.5455H57.4812V46H56.8455ZM57.1687 39.608C57.0385 39.608 56.9272 39.5642 56.8349 39.4766C56.7425 39.3866 56.6964 39.2789 56.6964 39.1534C56.6964 39.0279 56.7425 38.9214 56.8349 38.8338C56.9272 38.7438 57.0385 38.6989 57.1687 38.6989C57.2989 38.6989 57.4102 38.7438 57.5025 38.8338C57.5948 38.9214 57.641 39.0279 57.641 39.1534C57.641 39.2789 57.5948 39.3866 57.5025 39.4766C57.4102 39.5642 57.2989 39.608 57.1687 39.608ZM61.2729 46.1136C60.8018 46.1136 60.3851 45.9941 60.0229 45.755C59.6631 45.5159 59.3813 45.1856 59.1777 44.7642C58.9741 44.3404 58.8723 43.8516 58.8723 43.2976C58.8723 42.7389 58.9741 42.2476 59.1777 41.8239C59.3813 41.3977 59.6631 41.0663 60.0229 40.8295C60.3851 40.5904 60.8018 40.4709 61.2729 40.4709C61.744 40.4709 62.1595 40.5904 62.5194 40.8295C62.8792 41.0687 63.1609 41.4001 63.3645 41.8239C63.5705 42.2476 63.6735 42.7389 63.6735 43.2976C63.6735 43.8516 63.5717 44.3404 63.3681 44.7642C63.1645 45.1856 62.8816 45.5159 62.5194 45.755C62.1595 45.9941 61.744 46.1136 61.2729 46.1136ZM61.2729 45.5348C61.6517 45.5348 61.9725 45.433 62.2353 45.2294C62.498 45.0258 62.6969 44.7547 62.8319 44.4162C62.9692 44.0777 63.0378 43.7048 63.0378 43.2976C63.0378 42.8904 62.9692 42.5163 62.8319 42.1754C62.6969 41.8345 62.498 41.5611 62.2353 41.3551C61.9725 41.1491 61.6517 41.0462 61.2729 41.0462C60.8965 41.0462 60.5757 41.1491 60.3105 41.3551C60.0478 41.5611 59.8477 41.8345 59.7104 42.1754C59.5755 42.5163 59.508 42.8904 59.508 43.2976C59.508 43.7048 59.5755 44.0777 59.7104 44.4162C59.8477 44.7547 60.0478 45.0258 60.3105 45.2294C60.5733 45.433 60.8941 45.5348 61.2729 45.5348ZM65.6932 42.5909V46H65.0611V40.5455H65.6754V41.4013H65.7322C65.8601 41.1219 66.0589 40.8982 66.3288 40.7301C66.6011 40.5597 66.9373 40.4744 67.3374 40.4744C67.7043 40.4744 68.0263 40.5514 68.3033 40.7053C68.5826 40.8568 68.7992 41.0805 68.9531 41.3764C69.1094 41.6723 69.1875 42.0357 69.1875 42.4666V46H68.5554V42.5057C68.5554 42.0582 68.4299 41.7043 68.179 41.4439C67.9304 41.1835 67.5966 41.0533 67.1776 41.0533C66.8911 41.0533 66.6366 41.1148 66.4141 41.2379C66.1915 41.361 66.0152 41.5386 65.8849 41.7706C65.7571 42.0002 65.6932 42.2737 65.6932 42.5909ZM75.188 46.1243C74.859 46.1243 74.5583 46.0604 74.286 45.9325C74.0138 45.8023 73.7972 45.6153 73.6362 45.3714C73.4752 45.1252 73.3947 44.8269 73.3947 44.4766C73.3947 44.2067 73.4456 43.9794 73.5474 43.7947C73.6492 43.6101 73.7936 43.4586 73.9806 43.3402C74.1677 43.2218 74.389 43.1283 74.6447 43.0597C74.9004 42.991 75.1821 42.9377 75.4899 42.8999C75.7953 42.862 76.0533 42.8288 76.264 42.8004C76.4771 42.772 76.6393 42.727 76.7505 42.6655C76.8618 42.6039 76.9174 42.5045 76.9174 42.3672V42.2393C76.9174 41.8677 76.8062 41.5753 76.5836 41.3622C76.3635 41.1468 76.0462 41.0391 75.6319 41.0391C75.2389 41.0391 74.9181 41.1255 74.6696 41.2983C74.4234 41.4711 74.2505 41.6747 74.1511 41.9091L73.551 41.6925C73.6741 41.3942 73.8445 41.1562 74.0623 40.9787C74.2801 40.7988 74.524 40.6697 74.7939 40.5916C75.0637 40.5111 75.3372 40.4709 75.6142 40.4709C75.8225 40.4709 76.0391 40.4981 76.264 40.5526C76.4913 40.607 76.702 40.7017 76.8961 40.8366C77.0903 40.9692 77.2477 41.1551 77.3684 41.3942C77.4892 41.6309 77.5495 41.9316 77.5495 42.2962V46H76.9174V45.1371H76.8784C76.8026 45.2981 76.6902 45.4543 76.541 45.6058C76.3919 45.7573 76.2048 45.8816 75.9799 45.9787C75.755 46.0758 75.4911 46.1243 75.188 46.1243ZM75.2733 45.5455C75.6094 45.5455 75.9006 45.4709 76.1468 45.3217C76.3931 45.1726 76.5824 44.9749 76.715 44.7287C76.85 44.4801 76.9174 44.2067 76.9174 43.9084V43.12C76.8701 43.165 76.7908 43.2053 76.6795 43.2408C76.5706 43.2763 76.444 43.3082 76.2995 43.3366C76.1575 43.3627 76.0154 43.3852 75.8734 43.4041C75.7314 43.4231 75.6035 43.4396 75.4899 43.4538C75.1821 43.4917 74.9193 43.5509 74.7015 43.6314C74.4837 43.7119 74.3168 43.8232 74.2008 43.9652C74.0848 44.1049 74.0268 44.2848 74.0268 44.505C74.0268 44.8364 74.1452 45.0933 74.3819 45.2756C74.6187 45.4555 74.9158 45.5455 75.2733 45.5455ZM79.8631 42.5909V46H79.231V40.5455H79.8453V41.4013H79.9022C80.03 41.1219 80.2289 40.8982 80.4988 40.7301C80.771 40.5597 81.1072 40.4744 81.5073 40.4744C81.8742 40.4744 82.1962 40.5514 82.4732 40.7053C82.7525 40.8568 82.9692 41.0805 83.123 41.3764C83.2793 41.6723 83.3574 42.0357 83.3574 42.4666V46H82.7253V42.5057C82.7253 42.0582 82.5998 41.7043 82.3489 41.4439C82.1003 41.1835 81.7665 41.0533 81.3475 41.0533C81.061 41.0533 80.8065 41.1148 80.584 41.2379C80.3614 41.361 80.1851 41.5386 80.0549 41.7706C79.927 42.0002 79.8631 42.2737 79.8631 42.5909ZM86.9858 46.1136C86.5384 46.1136 86.1465 45.9953 85.8104 45.7585C85.4742 45.5218 85.2114 45.1915 85.022 44.7678C84.835 44.344 84.7415 43.8504 84.7415 43.2869C84.7415 42.7259 84.835 42.2346 85.022 41.8132C85.2114 41.3894 85.4754 41.0604 85.8139 40.826C86.1525 40.5893 86.5466 40.4709 86.9964 40.4709C87.3279 40.4709 87.6037 40.5301 87.8239 40.6484C88.044 40.7644 88.2204 40.9089 88.353 41.0817C88.4856 41.2545 88.5885 41.4226 88.6619 41.5859H88.7188V38.7273H89.3544V46H88.7365V44.9879H88.6619C88.5885 45.1536 88.4844 45.3241 88.3494 45.4993C88.2145 45.6721 88.0357 45.8177 87.8132 45.9361C87.593 46.0545 87.3172 46.1136 86.9858 46.1136ZM87.0604 45.5348C87.4131 45.5348 87.7138 45.4389 87.9624 45.2472C88.2109 45.053 88.4003 44.7867 88.5305 44.4482C88.6631 44.1072 88.7294 43.7166 88.7294 43.2763C88.7294 42.8407 88.6643 42.456 88.5341 42.1222C88.4039 41.786 88.2145 41.5232 87.9659 41.3338C87.7173 41.142 87.4155 41.0462 87.0604 41.0462C86.6958 41.0462 86.388 41.1456 86.1371 41.3445C85.8885 41.541 85.6991 41.8073 85.5689 42.1435C85.4411 42.4796 85.3771 42.8572 85.3771 43.2763C85.3771 43.7 85.4422 44.0824 85.5724 44.4233C85.7027 44.7642 85.892 45.0353 86.1406 45.2365C86.3916 45.4354 86.6982 45.5348 87.0604 45.5348ZM93.9744 46V40.5455H94.6101V46H93.9744ZM94.2976 39.608C94.1674 39.608 94.0561 39.5642 93.9638 39.4766C93.8714 39.3866 93.8253 39.2789 93.8253 39.1534C93.8253 39.0279 93.8714 38.9214 93.9638 38.8338C94.0561 38.7438 94.1674 38.6989 94.2976 38.6989C94.4278 38.6989 94.5391 38.7438 94.6314 38.8338C94.7237 38.9214 94.7699 39.0279 94.7699 39.1534C94.7699 39.2789 94.7237 39.3866 94.6314 39.4766C94.5391 39.5642 94.4278 39.608 94.2976 39.608ZM96.9139 42.5909V46H96.2818V40.5455H96.8961V41.4013H96.9529C97.0808 41.1219 97.2797 40.8982 97.5495 40.7301C97.8218 40.5597 98.158 40.4744 98.5581 40.4744C98.925 40.4744 99.247 40.5514 99.524 40.7053C99.8033 40.8568 100.02 41.0805 100.174 41.3764C100.33 41.6723 100.408 42.0357 100.408 42.4666V46H99.7761V42.5057C99.7761 42.0582 99.6506 41.7043 99.3997 41.4439C99.1511 41.1835 98.8173 41.0533 98.3983 41.0533C98.1118 41.0533 97.8573 41.1148 97.6348 41.2379C97.4122 41.361 97.2359 41.5386 97.1056 41.7706C96.9778 42.0002 96.9139 42.2737 96.9139 42.5909ZM11.1517 58.1136C10.664 58.1136 10.2391 57.9917 9.87686 57.7479C9.51702 57.504 9.23766 57.1702 9.0388 56.7464C8.83993 56.3227 8.7405 55.8397 8.7405 55.2976C8.7405 54.7507 8.84112 54.2642 9.04235 53.8381C9.24595 53.4119 9.52767 53.0781 9.88752 52.8366C10.2474 52.5928 10.6652 52.4709 11.1411 52.4709C11.5057 52.4709 11.8359 52.5419 12.1318 52.6839C12.4278 52.8236 12.6716 53.0213 12.8634 53.277C13.0575 53.5303 13.1794 53.8262 13.2291 54.1648H12.5899C12.5236 53.857 12.3638 53.5942 12.1105 53.3764C11.8596 53.1562 11.54 53.0462 11.1517 53.0462C10.8037 53.0462 10.4959 53.1409 10.2284 53.3303C9.96091 53.5173 9.75139 53.7789 9.59988 54.1151C9.45073 54.4489 9.37615 54.8359 9.37615 55.2763C9.37615 55.719 9.44954 56.1108 9.59632 56.4517C9.7431 56.7902 9.94907 57.0554 10.2142 57.2472C10.4817 57.4389 10.7942 57.5348 11.1517 57.5348C11.3932 57.5348 11.6134 57.4898 11.8122 57.3999C12.0135 57.3075 12.1816 57.1773 12.3165 57.0092C12.4538 56.8411 12.5461 56.6411 12.5935 56.4091H13.2327C13.1853 56.7382 13.0682 57.0317 12.8811 57.2898C12.6965 57.5455 12.4562 57.7467 12.1602 57.8935C11.8667 58.0402 11.5305 58.1136 11.1517 58.1136ZM16.1109 58.1243C15.7818 58.1243 15.4811 58.0604 15.2089 57.9325C14.9366 57.8023 14.72 57.6153 14.559 57.3714C14.3981 57.1252 14.3176 56.8269 14.3176 56.4766C14.3176 56.2067 14.3685 55.9794 14.4703 55.7947C14.5721 55.6101 14.7165 55.4586 14.9035 55.3402C15.0905 55.2218 15.3119 55.1283 15.5676 55.0597C15.8232 54.991 16.105 54.9377 16.4127 54.8999C16.7181 54.862 16.9762 54.8288 17.1869 54.8004C17.3999 54.772 17.5621 54.727 17.6734 54.6655C17.7847 54.6039 17.8403 54.5045 17.8403 54.3672V54.2393C17.8403 53.8677 17.729 53.5753 17.5065 53.3622C17.2863 53.1468 16.9691 53.0391 16.5548 53.0391C16.1618 53.0391 15.841 53.1255 15.5924 53.2983C15.3462 53.4711 15.1734 53.6747 15.074 53.9091L14.4738 53.6925C14.5969 53.3942 14.7674 53.1562 14.9852 52.9787C15.203 52.7988 15.4468 52.6697 15.7167 52.5916C15.9866 52.5111 16.26 52.4709 16.537 52.4709C16.7454 52.4709 16.962 52.4981 17.1869 52.5526C17.4142 52.607 17.6249 52.7017 17.819 52.8366C18.0131 52.9692 18.1705 53.1551 18.2913 53.3942C18.412 53.6309 18.4724 53.9316 18.4724 54.2962V58H17.8403V57.1371H17.8012C17.7255 57.2981 17.613 57.4543 17.4639 57.6058C17.3147 57.7573 17.1277 57.8816 16.9028 57.9787C16.6779 58.0758 16.4139 58.1243 16.1109 58.1243ZM16.1961 57.5455C16.5323 57.5455 16.8235 57.4709 17.0697 57.3217C17.3159 57.1726 17.5053 56.9749 17.6379 56.7287C17.7728 56.4801 17.8403 56.2067 17.8403 55.9084V55.12C17.7929 55.165 17.7136 55.2053 17.6024 55.2408C17.4935 55.2763 17.3668 55.3082 17.2224 55.3366C17.0803 55.3627 16.9383 55.3852 16.7963 55.4041C16.6542 55.4231 16.5264 55.4396 16.4127 55.4538C16.105 55.4917 15.8422 55.5509 15.6244 55.6314C15.4066 55.7119 15.2397 55.8232 15.1237 55.9652C15.0077 56.1049 14.9497 56.2848 14.9497 56.505C14.9497 56.8364 15.068 57.0933 15.3048 57.2756C15.5415 57.4555 15.8386 57.5455 16.1961 57.5455ZM23.8186 53.7422L23.2398 53.9055C23.183 53.7422 23.1025 53.5942 22.9983 53.4616C22.8941 53.3291 22.758 53.2237 22.5899 53.1456C22.4242 53.0675 22.2182 53.0284 21.972 53.0284C21.6027 53.0284 21.2997 53.116 21.0629 53.2912C20.8262 53.4664 20.7078 53.6925 20.7078 53.9695C20.7078 54.2038 20.7883 54.3944 20.9493 54.5412C21.1127 54.6856 21.3636 54.8004 21.7021 54.8857L22.526 55.0881C22.9829 55.1993 23.325 55.3757 23.5523 55.6172C23.7819 55.8587 23.8968 56.1617 23.8968 56.5263C23.8968 56.834 23.8115 57.1075 23.6411 57.3466C23.4706 57.5857 23.2327 57.7739 22.9273 57.9112C22.6243 58.0462 22.2727 58.1136 21.8726 58.1136C21.3399 58.1136 20.9008 57.9941 20.5551 57.755C20.2095 57.5135 19.9881 57.1655 19.8911 56.7109L20.4983 56.5618C20.5764 56.8861 20.7291 57.1312 20.9564 57.2969C21.1861 57.4626 21.4879 57.5455 21.8619 57.5455C22.281 57.5455 22.616 57.4519 22.8669 57.2649C23.1179 57.0755 23.2433 56.8388 23.2433 56.5547C23.2433 56.3345 23.17 56.1499 23.0232 56.0007C22.8764 55.8492 22.6539 55.7379 22.3556 55.6669L21.4642 55.4538C20.9907 55.3402 20.6404 55.1603 20.4131 54.9141C20.1858 54.6679 20.0722 54.3625 20.0722 53.9979C20.0722 53.6972 20.1539 53.4332 20.3172 53.206C20.4806 52.9763 20.7055 52.7964 20.9919 52.6662C21.2784 52.536 21.6051 52.4709 21.972 52.4709C22.4716 52.4709 22.8705 52.5845 23.1688 52.8118C23.4694 53.0367 23.6861 53.3468 23.8186 53.7422ZM27.4861 58.1136C26.9771 58.1136 26.5367 57.9953 26.165 57.7585C25.7934 57.5194 25.5057 57.1892 25.3021 56.7678C25.1009 56.344 25.0003 55.8563 25.0003 55.3047C25.0003 54.7554 25.1009 54.2678 25.3021 53.8416C25.5057 53.4131 25.7863 53.0781 26.1437 52.8366C26.5036 52.5928 26.9191 52.4709 27.3902 52.4709C27.6861 52.4709 27.9714 52.5253 28.246 52.6342C28.5206 52.7408 28.7668 52.9053 28.9846 53.1278C29.2048 53.348 29.3788 53.6262 29.5067 53.9624C29.6345 54.2962 29.6984 54.6915 29.6984 55.1484V55.4609H25.4371V54.9034H29.0521C29.0521 54.553 28.9811 54.2382 28.839 53.9588C28.6994 53.6771 28.5041 53.4545 28.2531 53.2912C28.0045 53.1278 27.7169 53.0462 27.3902 53.0462C27.0445 53.0462 26.7403 53.1385 26.4775 53.3232C26.2148 53.5078 26.0088 53.7517 25.8596 54.0547C25.7129 54.3577 25.6383 54.6892 25.6359 55.049V55.3828C25.6359 55.8161 25.7105 56.1948 25.8596 56.5192C26.0112 56.8411 26.2254 57.0909 26.5024 57.2685C26.7794 57.446 27.1073 57.5348 27.4861 57.5348C27.7441 57.5348 27.9702 57.4946 28.1643 57.4141C28.3608 57.3336 28.5254 57.2259 28.6579 57.0909C28.7929 56.9536 28.8947 56.8033 28.9633 56.6399L29.5635 56.8352C29.4806 57.0649 29.3445 57.2768 29.1551 57.4709C28.9681 57.665 28.7337 57.8213 28.452 57.9396C28.1726 58.0556 27.8506 58.1136 27.4861 58.1136ZM36.0239 58.1136C35.5528 58.1136 35.1361 57.9941 34.7739 57.755C34.414 57.5159 34.1323 57.1856 33.9287 56.7642C33.7251 56.3404 33.6233 55.8516 33.6233 55.2976C33.6233 54.7389 33.7251 54.2476 33.9287 53.8239C34.1323 53.3977 34.414 53.0663 34.7739 52.8295C35.1361 52.5904 35.5528 52.4709 36.0239 52.4709C36.495 52.4709 36.9105 52.5904 37.2703 52.8295C37.6302 53.0687 37.9119 53.4001 38.1155 53.8239C38.3215 54.2476 38.4244 54.7389 38.4244 55.2976C38.4244 55.8516 38.3227 56.3404 38.1191 56.7642C37.9155 57.1856 37.6325 57.5159 37.2703 57.755C36.9105 57.9941 36.495 58.1136 36.0239 58.1136ZM36.0239 57.5348C36.4027 57.5348 36.7235 57.433 36.9862 57.2294C37.249 57.0258 37.4479 56.7547 37.5828 56.4162C37.7201 56.0777 37.7888 55.7048 37.7888 55.2976C37.7888 54.8904 37.7201 54.5163 37.5828 54.1754C37.4479 53.8345 37.249 53.5611 36.9862 53.3551C36.7235 53.1491 36.4027 53.0462 36.0239 53.0462C35.6475 53.0462 35.3267 53.1491 35.0615 53.3551C34.7987 53.5611 34.5987 53.8345 34.4614 54.1754C34.3264 54.5163 34.259 54.8904 34.259 55.2976C34.259 55.7048 34.3264 56.0777 34.4614 56.4162C34.5987 56.7547 34.7987 57.0258 35.0615 57.2294C35.3243 57.433 35.6451 57.5348 36.0239 57.5348ZM42.0564 52.5455V53.0959H39.3753V52.5455H42.0564ZM40.2133 58V51.7464C40.2133 51.4529 40.2808 51.2055 40.4157 51.0043C40.5531 50.803 40.7318 50.6503 40.952 50.5462C41.1721 50.442 41.4053 50.3899 41.6515 50.3899C41.8173 50.3899 41.9546 50.4041 42.0635 50.4325C42.1747 50.4586 42.2623 50.4846 42.3263 50.5107L42.1416 51.0646C42.0943 51.0504 42.0363 51.0339 41.9676 51.0149C41.8989 50.996 41.8125 50.9865 41.7084 50.9865C41.4337 50.9865 41.2219 51.0634 41.0727 51.2173C40.9236 51.3712 40.849 51.5914 40.849 51.8778L40.8454 58H40.2133ZM48.0942 58.1136C47.6468 58.1136 47.2549 57.9953 46.9188 57.7585C46.5826 57.5218 46.3198 57.1915 46.1304 56.7678C45.9434 56.344 45.8499 55.8504 45.8499 55.2869C45.8499 54.7259 45.9434 54.2346 46.1304 53.8132C46.3198 53.3894 46.5838 53.0604 46.9223 52.826C47.2609 52.5893 47.655 52.4709 48.1048 52.4709C48.4363 52.4709 48.7121 52.5301 48.9323 52.6484C49.1524 52.7644 49.3288 52.9089 49.4614 53.0817C49.594 53.2545 49.6969 53.4226 49.7703 53.5859H49.8271V50.7273H50.4628V58H49.8449V56.9879H49.7703C49.6969 57.1536 49.5928 57.3241 49.4578 57.4993C49.3229 57.6721 49.1441 57.8177 48.9216 57.9361C48.7014 58.0545 48.4256 58.1136 48.0942 58.1136ZM48.1688 57.5348C48.5215 57.5348 48.8222 57.4389 49.0708 57.2472C49.3193 57.053 49.5087 56.7867 49.6389 56.4482C49.7715 56.1072 49.8378 55.7166 49.8378 55.2763C49.8378 54.8407 49.7727 54.456 49.6425 54.1222C49.5123 53.786 49.3229 53.5232 49.0743 53.3338C48.8257 53.142 48.5239 53.0462 48.1688 53.0462C47.8042 53.0462 47.4964 53.1456 47.2455 53.3445C46.9969 53.541 46.8075 53.8073 46.6773 54.1435C46.5494 54.4796 46.4855 54.8572 46.4855 55.2763C46.4855 55.7 46.5506 56.0824 46.6808 56.4233C46.8111 56.7642 47.0004 57.0353 47.249 57.2365C47.5 57.4354 47.8066 57.5348 48.1688 57.5348ZM54.3833 58.1136C53.9121 58.1136 53.4955 57.9941 53.1333 57.755C52.7734 57.5159 52.4917 57.1856 52.2881 56.7642C52.0845 56.3404 51.9827 55.8516 51.9827 55.2976C51.9827 54.7389 52.0845 54.2476 52.2881 53.8239C52.4917 53.3977 52.7734 53.0663 53.1333 52.8295C53.4955 52.5904 53.9121 52.4709 54.3833 52.4709C54.8544 52.4709 55.2699 52.5904 55.6297 52.8295C55.9896 53.0687 56.2713 53.4001 56.4749 53.8239C56.6808 54.2476 56.7838 54.7389 56.7838 55.2976C56.7838 55.8516 56.682 56.3404 56.4784 56.7642C56.2748 57.1856 55.9919 57.5159 55.6297 57.755C55.2699 57.9941 54.8544 58.1136 54.3833 58.1136ZM54.3833 57.5348C54.762 57.5348 55.0828 57.433 55.3456 57.2294C55.6084 57.0258 55.8073 56.7547 55.9422 56.4162C56.0795 56.0777 56.1482 55.7048 56.1482 55.2976C56.1482 54.8904 56.0795 54.5163 55.9422 54.1754C55.8073 53.8345 55.6084 53.5611 55.3456 53.3551C55.0828 53.1491 54.762 53.0462 54.3833 53.0462C54.0068 53.0462 53.686 53.1491 53.4209 53.3551C53.1581 53.5611 52.9581 53.8345 52.8208 54.1754C52.6858 54.5163 52.6183 54.8904 52.6183 55.2976C52.6183 55.7048 52.6858 56.0777 52.8208 56.4162C52.9581 56.7547 53.1581 57.0258 53.4209 57.2294C53.6837 57.433 54.0045 57.5348 54.3833 57.5348ZM61.6373 55.9155V52.5455H62.2694V58H61.6373V57.0945H61.5876C61.4598 57.3738 61.2574 57.607 60.9804 57.794C60.7034 57.9787 60.3648 58.071 59.9648 58.071C59.6167 58.071 59.3078 57.9953 59.0379 57.8438C58.768 57.6899 58.5561 57.465 58.4023 57.169C58.2484 56.8731 58.1714 56.5097 58.1714 56.0788V52.5455H58.8035V56.0398C58.8035 56.4659 58.929 56.8092 59.18 57.0696C59.4309 57.3277 59.7529 57.4567 60.1459 57.4567C60.3921 57.4567 60.6288 57.3975 60.8561 57.2791C61.0834 57.1607 61.2704 56.9879 61.4172 56.7607C61.564 56.531 61.6373 56.2493 61.6373 55.9155ZM64.0743 58V50.7273H64.71V53.5859H64.7668C64.8378 53.4226 64.9396 53.2545 65.0722 53.0817C65.2071 52.9089 65.3835 52.7644 65.6013 52.6484C65.8215 52.5301 66.0985 52.4709 66.4323 52.4709C66.8797 52.4709 67.2727 52.5893 67.6112 52.826C67.9498 53.0604 68.2137 53.3894 68.4031 53.8132C68.5925 54.2346 68.6872 54.7259 68.6872 55.2869C68.6872 55.8504 68.5925 56.344 68.4031 56.7678C68.2161 57.1915 67.9533 57.5218 67.6148 57.7585C67.2786 57.9953 66.888 58.1136 66.4429 58.1136C66.1115 58.1136 65.8345 58.0545 65.6119 57.9361C65.3918 57.8177 65.2142 57.6721 65.0793 57.4993C64.9443 57.3241 64.8402 57.1536 64.7668 56.9879H64.6887V58H64.0743ZM64.6993 55.2763C64.6993 55.7166 64.7644 56.1072 64.8946 56.4482C65.0272 56.7867 65.2166 57.053 65.4628 57.2472C65.7114 57.4389 66.012 57.5348 66.3648 57.5348C66.727 57.5348 67.0336 57.4354 67.2845 57.2365C67.5355 57.0353 67.7261 56.7642 67.8563 56.4233C67.9865 56.0824 68.0516 55.7 68.0516 55.2763C68.0516 54.8572 67.9865 54.4796 67.8563 54.1435C67.7284 53.8073 67.539 53.541 67.2881 53.3445C67.0371 53.1456 66.7294 53.0462 66.3648 53.0462C66.0097 53.0462 65.7078 53.142 65.4593 53.3338C65.213 53.5232 65.0248 53.786 64.8946 54.1222C64.7644 54.456 64.6993 54.8407 64.6993 55.2763ZM72.2242 52.5455V53.0959H69.6212V52.5455H72.2242ZM70.4344 51.2386H71.07V56.576C71.07 56.8033 71.1091 56.982 71.1872 57.1122C71.2654 57.2401 71.3672 57.3312 71.4926 57.3857C71.6181 57.4377 71.7519 57.4638 71.8939 57.4638C71.9768 57.4638 72.0478 57.459 72.107 57.4496C72.1662 57.4377 72.2182 57.4259 72.2632 57.4141L72.3982 57.9858C72.3366 58.0095 72.2609 58.0308 72.1709 58.0497C72.0809 58.071 71.9697 58.0817 71.8371 58.0817C71.6051 58.0817 71.3814 58.0308 71.1659 57.929C70.9529 57.8272 70.7777 57.6757 70.6404 57.4744C70.503 57.2732 70.4344 57.0234 70.4344 56.7251V51.2386ZM74.7108 57.0057L74.6469 57.3857C74.6067 57.6413 74.5499 57.9231 74.4765 58.2308C74.4031 58.5386 74.3273 58.831 74.2492 59.108C74.1711 59.3849 74.1036 59.6075 74.0468 59.7756H73.5603C73.5911 59.6146 73.6301 59.4098 73.6775 59.1612C73.7272 58.9126 73.7781 58.6368 73.8302 58.3338C73.8823 58.0331 73.9296 57.723 73.9722 57.4034L74.0219 57.0057H74.7108ZM79.2039 58V52.5455H79.8396V58H79.2039ZM79.5271 51.608C79.3969 51.608 79.2856 51.5642 79.1933 51.4766C79.1009 51.3866 79.0548 51.2789 79.0548 51.1534C79.0548 51.0279 79.1009 50.9214 79.1933 50.8338C79.2856 50.7438 79.3969 50.6989 79.5271 50.6989C79.6573 50.6989 79.7686 50.7438 79.8609 50.8338C79.9532 50.9214 79.9994 51.0279 79.9994 51.1534C79.9994 51.2789 79.9532 51.3866 79.8609 51.4766C79.7686 51.5642 79.6573 51.608 79.5271 51.608ZM83.6597 52.5455V53.0959H81.0567V52.5455H83.6597ZM81.8699 51.2386H82.5056V56.576C82.5056 56.8033 82.5447 56.982 82.6228 57.1122C82.7009 57.2401 82.8027 57.3312 82.9282 57.3857C83.0537 57.4377 83.1874 57.4638 83.3295 57.4638C83.4123 57.4638 83.4833 57.459 83.5425 57.4496C83.6017 57.4377 83.6538 57.4259 83.6988 57.4141L83.8337 57.9858C83.7722 58.0095 83.6964 58.0308 83.6064 58.0497C83.5165 58.071 83.4052 58.0817 83.2726 58.0817C83.0406 58.0817 82.8169 58.0308 82.6015 57.929C82.3884 57.8272 82.2132 57.6757 82.0759 57.4744C81.9386 57.2732 81.8699 57.0234 81.8699 56.7251V51.2386ZM89.1187 58L87.471 52.5455H88.1386L89.4312 57.0447H89.4774L90.7664 52.5455H91.4376L92.716 57.0341H92.7657L94.0583 52.5455H94.7259L93.0782 58H92.4248L91.1322 53.5291H91.0647L89.7721 58H89.1187ZM97.4781 58.1243C97.149 58.1243 96.8483 58.0604 96.5761 57.9325C96.3038 57.8023 96.0872 57.6153 95.9262 57.3714C95.7652 57.1252 95.6847 56.8269 95.6847 56.4766C95.6847 56.2067 95.7356 55.9794 95.8374 55.7947C95.9392 55.6101 96.0837 55.4586 96.2707 55.3402C96.4577 55.2218 96.6791 55.1283 96.9347 55.0597C97.1904 54.991 97.4722 54.9377 97.7799 54.8999C98.0853 54.862 98.3434 54.8288 98.5541 54.8004C98.7671 54.772 98.9293 54.727 99.0406 54.6655C99.1518 54.6039 99.2075 54.5045 99.2075 54.3672V54.2393C99.2075 53.8677 99.0962 53.5753 98.8737 53.3622C98.6535 53.1468 98.3363 53.0391 97.922 53.0391C97.529 53.0391 97.2082 53.1255 96.9596 53.2983C96.7134 53.4711 96.5406 53.6747 96.4411 53.9091L95.841 53.6925C95.9641 53.3942 96.1346 53.1562 96.3524 52.9787C96.5702 52.7988 96.814 52.6697 97.0839 52.5916C97.3538 52.5111 97.6272 52.4709 97.9042 52.4709C98.1125 52.4709 98.3292 52.4981 98.5541 52.5526C98.7813 52.607 98.992 52.7017 99.1862 52.8366C99.3803 52.9692 99.5377 53.1551 99.6585 53.3942C99.7792 53.6309 99.8396 53.9316 99.8396 54.2962V58H99.2075V57.1371H99.1684C99.0927 57.2981 98.9802 57.4543 98.8311 57.6058C98.6819 57.7573 98.4949 57.8816 98.27 57.9787C98.0451 58.0758 97.7811 58.1243 97.4781 58.1243ZM97.5633 57.5455C97.8995 57.5455 98.1907 57.4709 98.4369 57.3217C98.6831 57.1726 98.8725 56.9749 99.0051 56.7287C99.14 56.4801 99.2075 56.2067 99.2075 55.9084V55.12C99.1601 55.165 99.0808 55.2053 98.9695 55.2408C98.8606 55.2763 98.734 55.3082 98.5896 55.3366C98.4475 55.3627 98.3055 55.3852 98.1634 55.4041C98.0214 55.4231 97.8936 55.4396 97.7799 55.4538C97.4722 55.4917 97.2094 55.5509 96.9916 55.6314C96.7738 55.7119 96.6069 55.8232 96.4909 55.9652C96.3749 56.1049 96.3169 56.2848 96.3169 56.505C96.3169 56.8364 96.4352 57.0933 96.672 57.2756C96.9087 57.4555 97.2058 57.5455 97.5633 57.5455ZM105.186 53.7422L104.607 53.9055C104.55 53.7422 104.47 53.5942 104.366 53.4616C104.261 53.3291 104.125 53.2237 103.957 53.1456C103.791 53.0675 103.585 53.0284 103.339 53.0284C102.97 53.0284 102.667 53.116 102.43 53.2912C102.193 53.4664 102.075 53.6925 102.075 53.9695C102.075 54.2038 102.156 54.3944 102.316 54.5412C102.48 54.6856 102.731 54.8004 103.069 54.8857L103.893 55.0881C104.35 55.1993 104.692 55.3757 104.919 55.6172C105.149 55.8587 105.264 56.1617 105.264 56.5263C105.264 56.834 105.179 57.1075 105.008 57.3466C104.838 57.5857 104.6 57.7739 104.294 57.9112C103.991 58.0462 103.64 58.1136 103.24 58.1136C102.707 58.1136 102.268 57.9941 101.922 57.755C101.577 57.5135 101.355 57.1655 101.258 56.7109L101.866 56.5618C101.944 56.8861 102.096 57.1312 102.324 57.2969C102.553 57.4626 102.855 57.5455 103.229 57.5455C103.648 57.5455 103.983 57.4519 104.234 57.2649C104.485 57.0755 104.611 56.8388 104.611 56.5547C104.611 56.3345 104.537 56.1499 104.39 56.0007C104.244 55.8492 104.021 55.7379 103.723 55.6669L102.831 55.4538C102.358 55.3402 102.008 55.1603 101.78 54.9141C101.553 54.6679 101.439 54.3625 101.439 53.9979C101.439 53.6972 101.521 53.4332 101.684 53.206C101.848 52.9763 102.073 52.7964 102.359 52.6662C102.646 52.536 102.972 52.4709 103.339 52.4709C103.839 52.4709 104.238 52.5845 104.536 52.8118C104.837 53.0367 105.053 53.3468 105.186 53.7422ZM8.78178 72.0455V64.5455H9.39613V65.5859H9.4707C9.54646 65.4226 9.65063 65.2557 9.7832 65.0852C9.91578 64.9124 10.091 64.7668 10.3088 64.6484C10.5289 64.5301 10.8059 64.4709 11.1397 64.4709C11.5895 64.4709 11.9825 64.5893 12.3187 64.826C12.6573 65.0604 12.92 65.3894 13.1071 65.8132C13.2965 66.2346 13.3912 66.7259 13.3912 67.2869C13.3912 67.8504 13.2965 68.344 13.1071 68.7678C12.92 69.1915 12.6573 69.5218 12.3187 69.7585C11.9825 69.9953 11.5919 70.1136 11.1468 70.1136C10.8178 70.1136 10.542 70.0545 10.3194 69.9361C10.0993 69.8177 9.92051 69.6721 9.7832 69.4993C9.64826 69.3241 9.54409 69.1536 9.4707 68.9879H9.41388V72.0455H8.78178ZM9.40678 67.2763C9.40678 67.7166 9.47189 68.1072 9.6021 68.4482C9.73467 68.7867 9.92406 69.053 10.1703 69.2472C10.4189 69.4389 10.7195 69.5348 11.0723 69.5348C11.4345 69.5348 11.7399 69.4354 11.9885 69.2365C12.2394 69.0353 12.43 68.7642 12.5602 68.4233C12.6928 68.0824 12.7591 67.7 12.7591 67.2763C12.7591 66.8572 12.694 66.4796 12.5637 66.1435C12.4359 65.8073 12.2465 65.541 11.9956 65.3445C11.7446 65.1456 11.4368 65.0462 11.0723 65.0462C10.7172 65.0462 10.4153 65.142 10.1667 65.3338C9.91815 65.5232 9.72875 65.786 9.59854 66.1222C9.4707 66.456 9.40678 66.8407 9.40678 67.2763ZM16.8979 70.1136C16.4268 70.1136 16.0101 69.9941 15.6479 69.755C15.2881 69.5159 15.0063 69.1856 14.8027 68.7642C14.5991 68.3404 14.4973 67.8516 14.4973 67.2976C14.4973 66.7389 14.5991 66.2476 14.8027 65.8239C15.0063 65.3977 15.2881 65.0663 15.6479 64.8295C16.0101 64.5904 16.4268 64.4709 16.8979 64.4709C17.369 64.4709 17.7845 64.5904 18.1444 64.8295C18.5042 65.0687 18.7859 65.4001 18.9895 65.8239C19.1955 66.2476 19.2985 66.7389 19.2985 67.2976C19.2985 67.8516 19.1967 68.3404 18.9931 68.7642C18.7895 69.1856 18.5066 69.5159 18.1444 69.755C17.7845 69.9941 17.369 70.1136 16.8979 70.1136ZM16.8979 69.5348C17.2767 69.5348 17.5975 69.433 17.8603 69.2294C18.123 69.0258 18.3219 68.7547 18.4569 68.4162C18.5942 68.0777 18.6628 67.7048 18.6628 67.2976C18.6628 66.8904 18.5942 66.5163 18.4569 66.1754C18.3219 65.8345 18.123 65.5611 17.8603 65.3551C17.5975 65.1491 17.2767 65.0462 16.8979 65.0462C16.5215 65.0462 16.2007 65.1491 15.9355 65.3551C15.6728 65.5611 15.4727 65.8345 15.3354 66.1754C15.2005 66.5163 15.133 66.8904 15.133 67.2976C15.133 67.7048 15.2005 68.0777 15.3354 68.4162C15.4727 68.7547 15.6728 69.0258 15.9355 69.2294C16.1983 69.433 16.5191 69.5348 16.8979 69.5348ZM24.3509 65.7422L23.772 65.9055C23.7152 65.7422 23.6347 65.5942 23.5305 65.4616C23.4264 65.3291 23.2902 65.2237 23.1222 65.1456C22.9564 65.0675 22.7505 65.0284 22.5043 65.0284C22.1349 65.0284 21.8319 65.116 21.5952 65.2912C21.3584 65.4664 21.2401 65.6925 21.2401 65.9695C21.2401 66.2038 21.3205 66.3944 21.4815 66.5412C21.6449 66.6856 21.8958 66.8004 22.2344 66.8857L23.0582 67.0881C23.5152 67.1993 23.8572 67.3757 24.0845 67.6172C24.3142 67.8587 24.429 68.1617 24.429 68.5263C24.429 68.834 24.3438 69.1075 24.1733 69.3466C24.0028 69.5857 23.7649 69.7739 23.4595 69.9112C23.1565 70.0462 22.8049 70.1136 22.4048 70.1136C21.8722 70.1136 21.433 69.9941 21.0874 69.755C20.7417 69.5135 20.5204 69.1655 20.4233 68.7109L21.0305 68.5618C21.1087 68.8861 21.2614 69.1312 21.4886 69.2969C21.7183 69.4626 22.0201 69.5455 22.3942 69.5455C22.8132 69.5455 23.1482 69.4519 23.3991 69.2649C23.6501 69.0755 23.7756 68.8388 23.7756 68.5547C23.7756 68.3345 23.7022 68.1499 23.5554 68.0007C23.4086 67.8492 23.1861 67.7379 22.8878 67.6669L21.9964 67.4538C21.523 67.3402 21.1726 67.1603 20.9453 66.9141C20.718 66.6679 20.6044 66.3625 20.6044 65.9979C20.6044 65.6972 20.6861 65.4332 20.8494 65.206C21.0128 64.9763 21.2377 64.7964 21.5241 64.6662C21.8106 64.536 22.1373 64.4709 22.5043 64.4709C23.0038 64.4709 23.4027 64.5845 23.701 64.8118C24.0017 65.0367 24.2183 65.3468 24.3509 65.7422ZM29.4778 65.7422L28.899 65.9055C28.8422 65.7422 28.7617 65.5942 28.6575 65.4616C28.5533 65.3291 28.4172 65.2237 28.2491 65.1456C28.0834 65.0675 27.8774 65.0284 27.6312 65.0284C27.2619 65.0284 26.9589 65.116 26.7221 65.2912C26.4854 65.4664 26.367 65.6925 26.367 65.9695C26.367 66.2038 26.4475 66.3944 26.6085 66.5412C26.7718 66.6856 27.0228 66.8004 27.3613 66.8857L28.1852 67.0881C28.6421 67.1993 28.9842 67.3757 29.2115 67.6172C29.4411 67.8587 29.5559 68.1617 29.5559 68.5263C29.5559 68.834 29.4707 69.1075 29.3002 69.3466C29.1298 69.5857 28.8919 69.7739 28.5865 69.9112C28.2834 70.0462 27.9319 70.1136 27.5318 70.1136C26.9991 70.1136 26.56 69.9941 26.2143 69.755C25.8687 69.5135 25.6473 69.1655 25.5502 68.7109L26.1575 68.5618C26.2356 68.8861 26.3883 69.1312 26.6156 69.2969C26.8452 69.4626 27.1471 69.5455 27.5211 69.5455C27.9402 69.5455 28.2752 69.4519 28.5261 69.2649C28.777 69.0755 28.9025 68.8388 28.9025 68.5547C28.9025 68.3345 28.8291 68.1499 28.6824 68.0007C28.5356 67.8492 28.313 67.7379 28.0147 67.6669L27.1234 67.4538C26.6499 67.3402 26.2995 67.1603 26.0723 66.9141C25.845 66.6679 25.7314 66.3625 25.7314 65.9979C25.7314 65.6972 25.813 65.4332 25.9764 65.206C26.1397 64.9763 26.3646 64.7964 26.6511 64.6662C26.9376 64.536 27.2643 64.4709 27.6312 64.4709C28.1307 64.4709 28.5297 64.5845 28.8279 64.8118C29.1286 65.0367 29.3452 65.3468 29.4778 65.7422ZM30.9471 70V64.5455H31.5827V70H30.9471ZM31.2702 63.608C31.14 63.608 31.0288 63.5642 30.9364 63.4766C30.8441 63.3866 30.7979 63.2789 30.7979 63.1534C30.7979 63.0279 30.8441 62.9214 30.9364 62.8338C31.0288 62.7438 31.14 62.6989 31.2702 62.6989C31.4004 62.6989 31.5117 62.7438 31.604 62.8338C31.6964 62.9214 31.7425 63.0279 31.7425 63.1534C31.7425 63.2789 31.6964 63.3866 31.604 63.4766C31.5117 63.5642 31.4004 63.608 31.2702 63.608ZM33.3858 70V62.7273H34.0215V65.5859H34.0783C34.1493 65.4226 34.2511 65.2545 34.3837 65.0817C34.5186 64.9089 34.695 64.7644 34.9128 64.6484C35.133 64.5301 35.41 64.4709 35.7438 64.4709C36.1912 64.4709 36.5842 64.5893 36.9228 64.826C37.2613 65.0604 37.5253 65.3894 37.7147 65.8132C37.9041 66.2346 37.9988 66.7259 37.9988 67.2869C37.9988 67.8504 37.9041 68.344 37.7147 68.7678C37.5276 69.1915 37.2649 69.5218 36.9263 69.7585C36.5901 69.9953 36.1995 70.1136 35.7544 70.1136C35.423 70.1136 35.146 70.0545 34.9235 69.9361C34.7033 69.8177 34.5257 69.6721 34.3908 69.4993C34.2559 69.3241 34.1517 69.1536 34.0783 68.9879H34.0002V70H33.3858ZM34.0108 67.2763C34.0108 67.7166 34.0759 68.1072 34.2061 68.4482C34.3387 68.7867 34.5281 69.053 34.7743 69.2472C35.0229 69.4389 35.3236 69.5348 35.6763 69.5348C36.0385 69.5348 36.3451 69.4354 36.5961 69.2365C36.847 69.0353 37.0376 68.7642 37.1678 68.4233C37.298 68.0824 37.3631 67.7 37.3631 67.2763C37.3631 66.8572 37.298 66.4796 37.1678 66.1435C37.04 65.8073 36.8506 65.541 36.5996 65.3445C36.3487 65.1456 36.0409 65.0462 35.6763 65.0462C35.3212 65.0462 35.0194 65.142 34.7708 65.3338C34.5246 65.5232 34.3364 65.786 34.2061 66.1222C34.0759 66.456 34.0108 66.8407 34.0108 67.2763ZM40.0194 62.7273V70H39.3873V62.7273H40.0194ZM43.8972 70.1136C43.3882 70.1136 42.9479 69.9953 42.5762 69.7585C42.2045 69.5194 41.9168 69.1892 41.7132 68.7678C41.512 68.344 41.4114 67.8563 41.4114 67.3047C41.4114 66.7554 41.512 66.2678 41.7132 65.8416C41.9168 65.4131 42.1974 65.0781 42.5549 64.8366C42.9147 64.5928 43.3302 64.4709 43.8013 64.4709C44.0972 64.4709 44.3825 64.5253 44.6571 64.6342C44.9318 64.7408 45.178 64.9053 45.3958 65.1278C45.6159 65.348 45.79 65.6262 45.9178 65.9624C46.0456 66.2962 46.1096 66.6915 46.1096 67.1484V67.4609H41.8482V66.9034H45.4632C45.4632 66.553 45.3922 66.2382 45.2502 65.9588C45.1105 65.6771 44.9152 65.4545 44.6642 65.2912C44.4157 65.1278 44.128 65.0462 43.8013 65.0462C43.4557 65.0462 43.1515 65.1385 42.8887 65.3232C42.6259 65.5078 42.4199 65.7517 42.2708 66.0547C42.124 66.3577 42.0494 66.6892 42.0471 67.049V67.3828C42.0471 67.8161 42.1216 68.1948 42.2708 68.5192C42.4223 68.8411 42.6365 69.0909 42.9135 69.2685C43.1905 69.446 43.5184 69.5348 43.8972 69.5348C44.1552 69.5348 44.3813 69.4946 44.5755 69.4141C44.772 69.3336 44.9365 69.2259 45.0691 69.0909C45.204 68.9536 45.3058 68.8033 45.3745 68.6399L45.9746 68.8352C45.8917 69.0649 45.7556 69.2768 45.5662 69.4709C45.3792 69.665 45.1448 69.8213 44.8631 69.9396C44.5837 70.0556 44.2618 70.1136 43.8972 70.1136ZM52.4634 64.5455V65.0959H49.8604V64.5455H52.4634ZM50.6737 63.2386H51.3093V68.576C51.3093 68.8033 51.3484 68.982 51.4265 69.1122C51.5046 69.2401 51.6064 69.3312 51.7319 69.3857C51.8574 69.4377 51.9911 69.4638 52.1332 69.4638C52.216 69.4638 52.2871 69.459 52.3462 69.4496C52.4054 69.4377 52.4575 69.4259 52.5025 69.4141L52.6374 69.9858C52.5759 70.0095 52.5001 70.0308 52.4102 70.0497C52.3202 70.071 52.2089 70.0817 52.0763 70.0817C51.8443 70.0817 51.6206 70.0308 51.4052 69.929C51.1921 69.8272 51.0169 69.6757 50.8796 69.4744C50.7423 69.2732 50.6737 69.0234 50.6737 68.7251V63.2386ZM55.9604 70.1136C55.4893 70.1136 55.0726 69.9941 54.7104 69.755C54.3506 69.5159 54.0688 69.1856 53.8652 68.7642C53.6616 68.3404 53.5598 67.8516 53.5598 67.2976C53.5598 66.7389 53.6616 66.2476 53.8652 65.8239C54.0688 65.3977 54.3506 65.0663 54.7104 64.8295C55.0726 64.5904 55.4893 64.4709 55.9604 64.4709C56.4315 64.4709 56.847 64.5904 57.2069 64.8295C57.5667 65.0687 57.8484 65.4001 58.052 65.8239C58.258 66.2476 58.361 66.7389 58.361 67.2976C58.361 67.8516 58.2592 68.3404 58.0556 68.7642C57.852 69.1856 57.5691 69.5159 57.2069 69.755C56.847 69.9941 56.4315 70.1136 55.9604 70.1136ZM55.9604 69.5348C56.3392 69.5348 56.66 69.433 56.9228 69.2294C57.1855 69.0258 57.3844 68.7547 57.5194 68.4162C57.6567 68.0777 57.7253 67.7048 57.7253 67.2976C57.7253 66.8904 57.6567 66.5163 57.5194 66.1754C57.3844 65.8345 57.1855 65.5611 56.9228 65.3551C56.66 65.1491 56.3392 65.0462 55.9604 65.0462C55.584 65.0462 55.2632 65.1491 54.998 65.3551C54.7353 65.5611 54.5352 65.8345 54.3979 66.1754C54.263 66.5163 54.1955 66.8904 54.1955 67.2976C54.1955 67.7048 54.263 68.0777 54.3979 68.4162C54.5352 68.7547 54.7353 69.0258 54.998 69.2294C55.2608 69.433 55.5816 69.5348 55.9604 69.5348ZM62.5611 70V64.5455H63.1754V65.3835H63.2216C63.3305 65.1089 63.5199 64.8875 63.7898 64.7195C64.062 64.549 64.3698 64.4638 64.7131 64.4638C64.7652 64.4638 64.8232 64.465 64.8871 64.4673C64.951 64.4697 65.0043 64.4721 65.0469 64.4744V65.1172C65.0185 65.1125 64.9688 65.1054 64.8977 65.0959C64.8267 65.0864 64.7498 65.0817 64.6669 65.0817C64.3828 65.0817 64.1295 65.142 63.907 65.2628C63.6868 65.3812 63.5128 65.5457 63.3849 65.7564C63.2571 65.9671 63.1932 66.2074 63.1932 66.4773V70H62.5611ZM68.1648 70.1136C67.6558 70.1136 67.2154 69.9953 66.8438 69.7585C66.4721 69.5194 66.1844 69.1892 65.9808 68.7678C65.7796 68.344 65.679 67.8563 65.679 67.3047C65.679 66.7554 65.7796 66.2678 65.9808 65.8416C66.1844 65.4131 66.465 65.0781 66.8224 64.8366C67.1823 64.5928 67.5978 64.4709 68.0689 64.4709C68.3648 64.4709 68.6501 64.5253 68.9247 64.6342C69.1993 64.7408 69.4455 64.9053 69.6634 65.1278C69.8835 65.348 70.0575 65.6262 70.1854 65.9624C70.3132 66.2962 70.3771 66.6915 70.3771 67.1484V67.4609H66.1158V66.9034H69.7308C69.7308 66.553 69.6598 66.2382 69.5178 65.9588C69.3781 65.6771 69.1828 65.4545 68.9318 65.2912C68.6832 65.1278 68.3956 65.0462 68.0689 65.0462C67.7232 65.0462 67.419 65.1385 67.1562 65.3232C66.8935 65.5078 66.6875 65.7517 66.5384 66.0547C66.3916 66.3577 66.317 66.6892 66.3146 67.049V67.3828C66.3146 67.8161 66.3892 68.1948 66.5384 68.5192C66.6899 68.8411 66.9041 69.0909 67.1811 69.2685C67.4581 69.446 67.786 69.5348 68.1648 69.5348C68.4228 69.5348 68.6489 69.4946 68.843 69.4141C69.0395 69.3336 69.2041 69.2259 69.3366 69.0909C69.4716 68.9536 69.5734 68.8033 69.642 68.6399L70.2422 68.8352C70.1593 69.0649 70.0232 69.2768 69.8338 69.4709C69.6468 69.665 69.4124 69.8213 69.1307 69.9396C68.8513 70.0556 68.5294 70.1136 68.1648 70.1136ZM73.2935 70.1243C72.9644 70.1243 72.6638 70.0604 72.3915 69.9325C72.1193 69.8023 71.9026 69.6153 71.7417 69.3714C71.5807 69.1252 71.5002 68.8269 71.5002 68.4766C71.5002 68.2067 71.5511 67.9794 71.6529 67.7947C71.7547 67.6101 71.8991 67.4586 72.0861 67.3402C72.2731 67.2218 72.4945 67.1283 72.7502 67.0597C73.0059 66.991 73.2876 66.9377 73.5953 66.8999C73.9007 66.862 74.1588 66.8288 74.3695 66.8004C74.5826 66.772 74.7447 66.727 74.856 66.6655C74.9673 66.6039 75.0229 66.5045 75.0229 66.3672V66.2393C75.0229 65.8677 74.9116 65.5753 74.6891 65.3622C74.4689 65.1468 74.1517 65.0391 73.7374 65.0391C73.3444 65.0391 73.0236 65.1255 72.775 65.2983C72.5288 65.4711 72.356 65.6747 72.2566 65.9091L71.6564 65.6925C71.7795 65.3942 71.95 65.1562 72.1678 64.9787C72.3856 64.7988 72.6294 64.6697 72.8993 64.5916C73.1692 64.5111 73.4426 64.4709 73.7196 64.4709C73.928 64.4709 74.1446 64.4981 74.3695 64.5526C74.5968 64.607 74.8075 64.7017 75.0016 64.8366C75.1957 64.9692 75.3532 65.1551 75.4739 65.3942C75.5946 65.6309 75.655 65.9316 75.655 66.2962V70H75.0229V69.1371H74.9838C74.9081 69.2981 74.7956 69.4543 74.6465 69.6058C74.4973 69.7573 74.3103 69.8816 74.0854 69.9787C73.8605 70.0758 73.5965 70.1243 73.2935 70.1243ZM73.3787 69.5455C73.7149 69.5455 74.0061 69.4709 74.2523 69.3217C74.4985 69.1726 74.6879 68.9749 74.8205 68.7287C74.9554 68.4801 75.0229 68.2067 75.0229 67.9084V67.12C74.9756 67.165 74.8962 67.2053 74.785 67.2408C74.6761 67.2763 74.5494 67.3082 74.405 67.3366C74.263 67.3627 74.1209 67.3852 73.9789 67.4041C73.8368 67.4231 73.709 67.4396 73.5953 67.4538C73.2876 67.4917 73.0248 67.5509 72.807 67.6314C72.5892 67.7119 72.4223 67.8232 72.3063 67.9652C72.1903 68.1049 72.1323 68.2848 72.1323 68.505C72.1323 68.8364 72.2507 69.0933 72.4874 69.2756C72.7241 69.4555 73.0212 69.5455 73.3787 69.5455ZM79.4672 70.1136C78.9795 70.1136 78.5545 69.9917 78.1923 69.7479C77.8324 69.504 77.5531 69.1702 77.3542 68.7464C77.1554 68.3227 77.0559 67.8397 77.0559 67.2976C77.0559 66.7507 77.1565 66.2642 77.3578 65.8381C77.5614 65.4119 77.8431 65.0781 78.2029 64.8366C78.5628 64.5928 78.9806 64.4709 79.4565 64.4709C79.8211 64.4709 80.1513 64.5419 80.4473 64.6839C80.7432 64.8236 80.987 65.0213 81.1788 65.277C81.3729 65.5303 81.4949 65.8262 81.5446 66.1648H80.9054C80.8391 65.857 80.6793 65.5942 80.426 65.3764C80.175 65.1562 79.8554 65.0462 79.4672 65.0462C79.1191 65.0462 78.8114 65.1409 78.5439 65.3303C78.2763 65.5173 78.0668 65.7789 77.9153 66.1151C77.7662 66.4489 77.6916 66.8359 77.6916 67.2763C77.6916 67.719 77.765 68.1108 77.9118 68.4517C78.0585 68.7902 78.2645 69.0554 78.5297 69.2472C78.7972 69.4389 79.1097 69.5348 79.4672 69.5348C79.7086 69.5348 79.9288 69.4898 80.1277 69.3999C80.3289 69.3075 80.497 69.1773 80.6319 69.0092C80.7692 68.8411 80.8616 68.6411 80.9089 68.4091H81.5481C81.5008 68.7382 81.3836 69.0317 81.1966 69.2898C81.0119 69.5455 80.7716 69.7467 80.4757 69.8935C80.1821 70.0402 79.8459 70.1136 79.4672 70.1136ZM83.535 66.5909V70H82.9029V62.7273H83.535V65.4013H83.5918C83.7196 65.1196 83.9173 64.8946 84.1848 64.7266C84.4547 64.5585 84.7956 64.4744 85.2076 64.4744C85.5769 64.4744 85.9012 64.5502 86.1806 64.7017C86.4599 64.8532 86.6777 65.0769 86.834 65.3729C86.9902 65.6688 87.0684 66.0334 87.0684 66.4666V70H86.4327V66.5057C86.4327 66.0559 86.3072 65.7019 86.0563 65.4439C85.8077 65.1835 85.4715 65.0533 85.0478 65.0533C84.7566 65.0533 84.4973 65.1148 84.2701 65.2379C84.0428 65.361 83.8629 65.5386 83.7303 65.7706C83.6001 66.0002 83.535 66.2737 83.535 66.5909ZM93.6939 64.5455V65.0959H91.0909V64.5455H93.6939ZM91.9041 63.2386H92.5398V68.576C92.5398 68.8033 92.5788 68.982 92.657 69.1122C92.7351 69.2401 92.8369 69.3312 92.9624 69.3857C93.0878 69.4377 93.2216 69.4638 93.3636 69.4638C93.4465 69.4638 93.5175 69.459 93.5767 69.4496C93.6359 69.4377 93.688 69.4259 93.733 69.4141L93.8679 69.9858C93.8063 70.0095 93.7306 70.0308 93.6406 70.0497C93.5507 70.071 93.4394 70.0817 93.3068 70.0817C93.0748 70.0817 92.8511 70.0308 92.6357 69.929C92.4226 69.8272 92.2474 69.6757 92.1101 69.4744C91.9728 69.2732 91.9041 69.0234 91.9041 68.7251V63.2386ZM95.8787 66.5909V70H95.2466V62.7273H95.8787V65.4013H95.9355C96.0634 65.1196 96.2611 64.8946 96.5286 64.7266C96.7985 64.5585 97.1394 64.4744 97.5513 64.4744C97.9206 64.4744 98.245 64.5502 98.5243 64.7017C98.8037 64.8532 99.0215 65.0769 99.1777 65.3729C99.334 65.6688 99.4121 66.0334 99.4121 66.4666V70H98.7765V66.5057C98.7765 66.0559 98.651 65.7019 98.4 65.4439C98.1515 65.1835 97.8153 65.0533 97.3915 65.0533C97.1003 65.0533 96.8411 65.1148 96.6138 65.2379C96.3865 65.361 96.2066 65.5386 96.074 65.7706C95.9438 66.0002 95.8787 66.2737 95.8787 66.5909ZM103.282 70.1136C102.773 70.1136 102.333 69.9953 101.961 69.7585C101.589 69.5194 101.302 69.1892 101.098 68.7678C100.897 68.344 100.796 67.8563 100.796 67.3047C100.796 66.7554 100.897 66.2678 101.098 65.8416C101.302 65.4131 101.582 65.0781 101.94 64.8366C102.299 64.5928 102.715 64.4709 103.186 64.4709C103.482 64.4709 103.767 64.5253 104.042 64.6342C104.317 64.7408 104.563 64.9053 104.781 65.1278C105.001 65.348 105.175 65.6262 105.303 65.9624C105.43 66.2962 105.494 66.6915 105.494 67.1484V67.4609H101.233V66.9034H104.848C104.848 66.553 104.777 66.2382 104.635 65.9588C104.495 65.6771 104.3 65.4545 104.049 65.2912C103.8 65.1278 103.513 65.0462 103.186 65.0462C102.84 65.0462 102.536 65.1385 102.273 65.3232C102.011 65.5078 101.805 65.7517 101.656 66.0547C101.509 66.3577 101.434 66.6892 101.432 67.049V67.3828C101.432 67.8161 101.506 68.1948 101.656 68.5192C101.807 68.8411 102.021 69.0909 102.298 69.2685C102.575 69.446 102.903 69.5348 103.282 69.5348C103.54 69.5348 103.766 69.4946 103.96 69.4141C104.157 69.3336 104.321 69.2259 104.454 69.0909C104.589 68.9536 104.691 68.8033 104.759 68.6399L105.359 68.8352C105.277 69.0649 105.14 69.2768 104.951 69.4709C104.764 69.665 104.53 69.8213 104.248 69.9396C103.969 70.0556 103.647 70.1136 103.282 70.1136ZM16.3941 76.5455V77.0959H13.7911V76.5455H16.3941ZM14.6043 75.2386H15.24V80.576C15.24 80.8033 15.279 80.982 15.3572 81.1122C15.4353 81.2401 15.5371 81.3312 15.6626 81.3857C15.788 81.4377 15.9218 81.4638 16.0638 81.4638C16.1467 81.4638 16.2177 81.459 16.2769 81.4496C16.3361 81.4377 16.3882 81.4259 16.4331 81.4141L16.5681 81.9858C16.5065 82.0095 16.4308 82.0308 16.3408 82.0497C16.2509 82.071 16.1396 82.0817 16.007 82.0817C15.775 82.0817 15.5513 82.0308 15.3358 81.929C15.1228 81.8272 14.9476 81.6757 14.8103 81.4744C14.673 81.2732 14.6043 81.0234 14.6043 80.7251V75.2386ZM19.9763 82.1136C19.4673 82.1136 19.027 81.9953 18.6553 81.7585C18.2836 81.5194 17.9959 81.1892 17.7923 80.7678C17.5911 80.344 17.4905 79.8563 17.4905 79.3047C17.4905 78.7554 17.5911 78.2678 17.7923 77.8416C17.9959 77.4131 18.2765 77.0781 18.634 76.8366C18.9938 76.5928 19.4093 76.4709 19.8804 76.4709C20.1763 76.4709 20.4616 76.5253 20.7362 76.6342C21.0109 76.7408 21.2571 76.9053 21.4749 77.1278C21.695 77.348 21.8691 77.6262 21.9969 77.9624C22.1247 78.2962 22.1887 78.6915 22.1887 79.1484V79.4609H17.9273V78.9034H21.5423C21.5423 78.553 21.4713 78.2382 21.3293 77.9588C21.1896 77.6771 20.9943 77.4545 20.7433 77.2912C20.4948 77.1278 20.2071 77.0462 19.8804 77.0462C19.5348 77.0462 19.2306 77.1385 18.9678 77.3232C18.705 77.5078 18.499 77.7517 18.3499 78.0547C18.2031 78.3577 18.1285 78.6892 18.1262 79.049V79.3828C18.1262 79.8161 18.2007 80.1948 18.3499 80.5192C18.5014 80.8411 18.7156 81.0909 18.9926 81.2685C19.2696 81.446 19.5975 81.5348 19.9763 81.5348C20.2343 81.5348 20.4604 81.4946 20.6546 81.4141C20.8511 81.3336 21.0156 81.2259 21.1482 81.0909C21.2831 80.9536 21.3849 80.8033 21.4536 80.6399L22.0537 80.8352C21.9709 81.0649 21.8347 81.2768 21.6453 81.4709C21.4583 81.665 21.2239 81.8213 20.9422 81.9396C20.6628 82.0556 20.3409 82.1136 19.9763 82.1136ZM25.105 82.1243C24.776 82.1243 24.4753 82.0604 24.203 81.9325C23.9308 81.8023 23.7142 81.6153 23.5532 81.3714C23.3922 81.1252 23.3117 80.8269 23.3117 80.4766C23.3117 80.2067 23.3626 79.9794 23.4644 79.7947C23.5662 79.6101 23.7106 79.4586 23.8976 79.3402C24.0847 79.2218 24.306 79.1283 24.5617 79.0597C24.8174 78.991 25.0991 78.9377 25.4069 78.8999C25.7123 78.862 25.9703 78.8288 26.181 78.8004C26.3941 78.772 26.5563 78.727 26.6675 78.6655C26.7788 78.6039 26.8344 78.5045 26.8344 78.3672V78.2393C26.8344 77.8677 26.7232 77.5753 26.5006 77.3622C26.2805 77.1468 25.9632 77.0391 25.5489 77.0391C25.1559 77.0391 24.8351 77.1255 24.5866 77.2983C24.3403 77.4711 24.1675 77.6747 24.0681 77.9091L23.468 77.6925C23.5911 77.3942 23.7615 77.1562 23.9793 76.9787C24.1971 76.7988 24.441 76.6697 24.7108 76.5916C24.9807 76.5111 25.2542 76.4709 25.5312 76.4709C25.7395 76.4709 25.9561 76.4981 26.181 76.5526C26.4083 76.607 26.619 76.7017 26.8131 76.8366C27.0073 76.9692 27.1647 77.1551 27.2854 77.3942C27.4062 77.6309 27.4665 77.9316 27.4665 78.2962V82H26.8344V81.1371H26.7954C26.7196 81.2981 26.6072 81.4543 26.458 81.6058C26.3089 81.7573 26.1218 81.8816 25.8969 81.9787C25.672 82.0758 25.4081 82.1243 25.105 82.1243ZM25.1903 81.5455C25.5264 81.5455 25.8176 81.4709 26.0638 81.3217C26.31 81.1726 26.4994 80.9749 26.632 80.7287C26.767 80.4801 26.8344 80.2067 26.8344 79.9084V79.12C26.7871 79.165 26.7078 79.2053 26.5965 79.2408C26.4876 79.2763 26.3609 79.3082 26.2165 79.3366C26.0745 79.3627 25.9324 79.3852 25.7904 79.4041C25.6483 79.4231 25.5205 79.4396 25.4069 79.4538C25.0991 79.4917 24.8363 79.5509 24.6185 79.6314C24.4007 79.7119 24.2338 79.8232 24.1178 79.9652C24.0018 80.1049 23.9438 80.2848 23.9438 80.505C23.9438 80.8364 24.0622 81.0933 24.2989 81.2756C24.5357 81.4555 24.8328 81.5455 25.1903 81.5455ZM31.2787 82.1136C30.791 82.1136 30.366 81.9917 30.0038 81.7479C29.644 81.504 29.3646 81.1702 29.1657 80.7464C28.9669 80.3227 28.8675 79.8397 28.8675 79.2976C28.8675 78.7507 28.9681 78.2642 29.1693 77.8381C29.3729 77.4119 29.6546 77.0781 30.0145 76.8366C30.3743 76.5928 30.7922 76.4709 31.268 76.4709C31.6326 76.4709 31.9629 76.5419 32.2588 76.6839C32.5547 76.8236 32.7986 77.0213 32.9903 77.277C33.1845 77.5303 33.3064 77.8262 33.3561 78.1648H32.7169C32.6506 77.857 32.4908 77.5942 32.2375 77.3764C31.9865 77.1562 31.6669 77.0462 31.2787 77.0462C30.9307 77.0462 30.6229 77.1409 30.3554 77.3303C30.0879 77.5173 29.8783 77.7789 29.7268 78.1151C29.5777 78.4489 29.5031 78.8359 29.5031 79.2763C29.5031 79.719 29.5765 80.1108 29.7233 80.4517C29.8701 80.7902 30.076 81.0554 30.3412 81.2472C30.6087 81.4389 30.9212 81.5348 31.2787 81.5348C31.5202 81.5348 31.7403 81.4898 31.9392 81.3999C32.1404 81.3075 32.3085 81.1773 32.4434 81.0092C32.5808 80.8411 32.6731 80.6411 32.7204 80.4091H33.3596C33.3123 80.7382 33.1951 81.0317 33.0081 81.2898C32.8234 81.5455 32.5831 81.7467 32.2872 81.8935C31.9936 82.0402 31.6575 82.1136 31.2787 82.1136ZM35.3465 78.5909V82H34.7144V74.7273H35.3465V77.4013H35.4033C35.5312 77.1196 35.7288 76.8946 35.9964 76.7266C36.2662 76.5585 36.6072 76.4744 37.0191 76.4744C37.3884 76.4744 37.7127 76.5502 37.9921 76.7017C38.2715 76.8532 38.4893 77.0769 38.6455 77.3729C38.8018 77.6688 38.8799 78.0334 38.8799 78.4666V82H38.2442V78.5057C38.2442 78.0559 38.1188 77.7019 37.8678 77.4439C37.6192 77.1835 37.2831 77.0533 36.8593 77.0533C36.5681 77.0533 36.3089 77.1148 36.0816 77.2379C35.8543 77.361 35.6744 77.5386 35.5418 77.7706C35.4116 78.0002 35.3465 78.2737 35.3465 78.5909ZM42.7497 82.1136C42.2407 82.1136 41.8004 81.9953 41.4287 81.7585C41.057 81.5194 40.7694 81.1892 40.5658 80.7678C40.3646 80.344 40.2639 79.8563 40.2639 79.3047C40.2639 78.7554 40.3646 78.2678 40.5658 77.8416C40.7694 77.4131 41.0499 77.0781 41.4074 76.8366C41.7673 76.5928 42.1827 76.4709 42.6539 76.4709C42.9498 76.4709 43.2351 76.5253 43.5097 76.6342C43.7843 76.7408 44.0305 76.9053 44.2483 77.1278C44.4685 77.348 44.6425 77.6262 44.7703 77.9624C44.8982 78.2962 44.9621 78.6915 44.9621 79.1484V79.4609H40.7007V78.9034H44.3158C44.3158 78.553 44.2448 78.2382 44.1027 77.9588C43.963 77.6771 43.7677 77.4545 43.5168 77.2912C43.2682 77.1278 42.9806 77.0462 42.6539 77.0462C42.3082 77.0462 42.004 77.1385 41.7412 77.3232C41.4784 77.5078 41.2725 77.7517 41.1233 78.0547C40.9765 78.3577 40.902 78.6892 40.8996 79.049V79.3828C40.8996 79.8161 40.9742 80.1948 41.1233 80.5192C41.2748 80.8411 41.4891 81.0909 41.7661 81.2685C42.0431 81.446 42.3709 81.5348 42.7497 81.5348C43.0078 81.5348 43.2339 81.4946 43.428 81.4141C43.6245 81.3336 43.789 81.2259 43.9216 81.0909C44.0566 80.9536 44.1584 80.8033 44.227 80.6399L44.8271 80.8352C44.7443 81.0649 44.6082 81.2768 44.4188 81.4709C44.2317 81.665 43.9974 81.8213 43.7156 81.9396C43.4363 82.0556 43.1143 82.1136 42.7497 82.1136ZM46.355 82V76.5455H46.9694V77.3835H47.0155C47.1244 77.1089 47.3138 76.8875 47.5837 76.7195C47.856 76.549 48.1637 76.4638 48.507 76.4638C48.5591 76.4638 48.6171 76.465 48.681 76.4673C48.7449 76.4697 48.7982 76.4721 48.8408 76.4744V77.1172C48.8124 77.1125 48.7627 77.1054 48.6917 77.0959C48.6206 77.0864 48.5437 77.0817 48.4608 77.0817C48.1768 77.0817 47.9234 77.142 47.7009 77.2628C47.4807 77.3812 47.3067 77.5457 47.1789 77.7564C47.051 77.9671 46.9871 78.2074 46.9871 78.4773V82H46.355ZM53.9429 82L52.2952 76.5455H52.9628L54.2554 81.0447H54.3016L55.5906 76.5455H56.2618L57.5402 81.0341H57.5899L58.8825 76.5455H59.5502L57.9024 82H57.249L55.9564 77.5291H55.8889L54.5963 82H53.9429ZM61.411 78.5909V82H60.7789V74.7273H61.411V77.4013H61.4678C61.5956 77.1196 61.7933 76.8946 62.0608 76.7266C62.3307 76.5585 62.6716 76.4744 63.0835 76.4744C63.4529 76.4744 63.7772 76.5502 64.0566 76.7017C64.3359 76.8532 64.5537 77.0769 64.71 77.3729C64.8662 77.6688 64.9443 78.0334 64.9443 78.4666V82H64.3087V78.5057C64.3087 78.0559 64.1832 77.7019 63.9323 77.4439C63.6837 77.1835 63.3475 77.0533 62.9237 77.0533C62.6325 77.0533 62.3733 77.1148 62.146 77.2379C61.9188 77.361 61.7388 77.5386 61.6063 77.7706C61.4761 78.0002 61.411 78.2737 61.411 78.5909ZM68.729 82.1136C68.2578 82.1136 67.8412 81.9941 67.479 81.755C67.1191 81.5159 66.8374 81.1856 66.6338 80.7642C66.4302 80.3404 66.3284 79.8516 66.3284 79.2976C66.3284 78.7389 66.4302 78.2476 66.6338 77.8239C66.8374 77.3977 67.1191 77.0663 67.479 76.8295C67.8412 76.5904 68.2578 76.4709 68.729 76.4709C69.2001 76.4709 69.6156 76.5904 69.9754 76.8295C70.3353 77.0687 70.617 77.4001 70.8206 77.8239C71.0265 78.2476 71.1295 78.7389 71.1295 79.2976C71.1295 79.8516 71.0277 80.3404 70.8241 80.7642C70.6205 81.1856 70.3376 81.5159 69.9754 81.755C69.6156 81.9941 69.2001 82.1136 68.729 82.1136ZM68.729 81.5348C69.1077 81.5348 69.4285 81.433 69.6913 81.2294C69.9541 81.0258 70.153 80.7547 70.2879 80.4162C70.4252 80.0777 70.4939 79.7048 70.4939 79.2976C70.4939 78.8904 70.4252 78.5163 70.2879 78.1754C70.153 77.8345 69.9541 77.5611 69.6913 77.3551C69.4285 77.1491 69.1077 77.0462 68.729 77.0462C68.3525 77.0462 68.0318 77.1491 67.7666 77.3551C67.5038 77.5611 67.3038 77.8345 67.1665 78.1754C67.0315 78.5163 66.964 78.8904 66.964 79.2976C66.964 79.7048 67.0315 80.0777 67.1665 80.4162C67.3038 80.7547 67.5038 81.0258 67.7666 81.2294C68.0294 81.433 68.3502 81.5348 68.729 81.5348ZM75.3296 82V76.5455H75.944V77.3835H76.0008C76.1097 77.1018 76.2908 76.8804 76.5441 76.7195C76.7998 76.5561 77.1064 76.4744 77.4639 76.4744C77.8403 76.4744 78.1492 76.5632 78.3907 76.7408C78.6346 76.916 78.8169 77.1574 78.9376 77.4652H78.9838C79.1069 77.1622 79.3069 76.9219 79.5839 76.7443C79.8633 76.5644 80.2018 76.4744 80.5995 76.4744C81.1061 76.4744 81.5062 76.6342 81.7998 76.9538C82.0934 77.2711 82.2401 77.7351 82.2401 78.3459V82H81.608V78.3459C81.608 77.915 81.498 77.5919 81.2778 77.3764C81.0576 77.161 80.7676 77.0533 80.4078 77.0533C79.9911 77.0533 79.6703 77.1811 79.4454 77.4368C79.2205 77.6925 79.108 78.0168 79.108 78.4098V82H78.4617V78.2891C78.4617 77.9197 78.3588 77.6214 78.1528 77.3942C77.9468 77.1669 77.6568 77.0533 77.2828 77.0533C77.0318 77.0533 76.8057 77.1148 76.6045 77.2379C76.4056 77.361 76.2482 77.5327 76.1322 77.7528C76.0186 77.9706 75.9617 78.2216 75.9617 78.5057V82H75.3296ZM85.4371 82.1243C85.108 82.1243 84.8073 82.0604 84.5351 81.9325C84.2628 81.8023 84.0462 81.6153 83.8852 81.3714C83.7242 81.1252 83.6437 80.8269 83.6437 80.4766C83.6437 80.2067 83.6946 79.9794 83.7964 79.7947C83.8982 79.6101 84.0426 79.4586 84.2297 79.3402C84.4167 79.2218 84.6381 79.1283 84.8937 79.0597C85.1494 78.991 85.4311 78.9377 85.7389 78.8999C86.0443 78.862 86.3023 78.8288 86.5131 78.8004C86.7261 78.772 86.8883 78.727 86.9996 78.6655C87.1108 78.6039 87.1665 78.5045 87.1665 78.3672V78.2393C87.1665 77.8677 87.0552 77.5753 86.8327 77.3622C86.6125 77.1468 86.2952 77.0391 85.8809 77.0391C85.488 77.0391 85.1672 77.1255 84.9186 77.2983C84.6724 77.4711 84.4996 77.6747 84.4001 77.9091L83.8 77.6925C83.9231 77.3942 84.0935 77.1562 84.3113 76.9787C84.5291 76.7988 84.773 76.6697 85.0429 76.5916C85.3128 76.5111 85.5862 76.4709 85.8632 76.4709C86.0715 76.4709 86.2881 76.4981 86.5131 76.5526C86.7403 76.607 86.951 76.7017 87.1452 76.8366C87.3393 76.9692 87.4967 77.1551 87.6175 77.3942C87.7382 77.6309 87.7986 77.9316 87.7986 78.2962V82H87.1665V81.1371H87.1274C87.0516 81.2981 86.9392 81.4543 86.79 81.6058C86.6409 81.7573 86.4539 81.8816 86.229 81.9787C86.0041 82.0758 85.7401 82.1243 85.4371 82.1243ZM85.5223 81.5455C85.8585 81.5455 86.1497 81.4709 86.3959 81.3217C86.6421 81.1726 86.8315 80.9749 86.964 80.7287C87.099 80.4801 87.1665 80.2067 87.1665 79.9084V79.12C87.1191 79.165 87.0398 79.2053 86.9285 79.2408C86.8196 79.2763 86.693 79.3082 86.5486 79.3366C86.4065 79.3627 86.2645 79.3852 86.1224 79.4041C85.9804 79.4231 85.8525 79.4396 85.7389 79.4538C85.4311 79.4917 85.1684 79.5509 84.9506 79.6314C84.7327 79.7119 84.5658 79.8232 84.4498 79.9652C84.3338 80.1049 84.2758 80.2848 84.2758 80.505C84.2758 80.8364 84.3942 81.0933 84.6309 81.2756C84.8677 81.4555 85.1648 81.5455 85.5223 81.5455ZM91.4438 82.1136C90.9964 82.1136 90.6046 81.9953 90.2684 81.7585C89.9322 81.5218 89.6694 81.1915 89.48 80.7678C89.293 80.344 89.1995 79.8504 89.1995 79.2869C89.1995 78.7259 89.293 78.2346 89.48 77.8132C89.6694 77.3894 89.9334 77.0604 90.2719 76.826C90.6105 76.5893 91.0046 76.4709 91.4545 76.4709C91.7859 76.4709 92.0617 76.5301 92.2819 76.6484C92.502 76.7644 92.6784 76.9089 92.811 77.0817C92.9436 77.2545 93.0465 77.4226 93.1199 77.5859H93.1768V74.7273H93.8124V82H93.1945V80.9879H93.1199C93.0465 81.1536 92.9424 81.3241 92.8074 81.4993C92.6725 81.6721 92.4938 81.8177 92.2712 81.9361C92.051 82.0545 91.7752 82.1136 91.4438 82.1136ZM91.5184 81.5348C91.8711 81.5348 92.1718 81.4389 92.4204 81.2472C92.6689 81.053 92.8583 80.7867 92.9885 80.4482C93.1211 80.1072 93.1874 79.7166 93.1874 79.2763C93.1874 78.8407 93.1223 78.456 92.9921 78.1222C92.8619 77.786 92.6725 77.5232 92.4239 77.3338C92.1753 77.142 91.8735 77.0462 91.5184 77.0462C91.1538 77.0462 90.846 77.1456 90.5951 77.3445C90.3465 77.541 90.1571 77.8073 90.0269 78.1435C89.8991 78.4796 89.8351 78.8572 89.8351 79.2763C89.8351 79.7 89.9002 80.0824 90.0305 80.4233C90.1607 80.7642 90.3501 81.0353 90.5986 81.2365C90.8496 81.4354 91.1562 81.5348 91.5184 81.5348ZM97.8181 82.1136C97.3091 82.1136 96.8688 81.9953 96.4971 81.7585C96.1254 81.5194 95.8377 81.1892 95.6341 80.7678C95.4329 80.344 95.3323 79.8563 95.3323 79.3047C95.3323 78.7554 95.4329 78.2678 95.6341 77.8416C95.8377 77.4131 96.1183 77.0781 96.4758 76.8366C96.8356 76.5928 97.2511 76.4709 97.7222 76.4709C98.0181 76.4709 98.3034 76.5253 98.578 76.6342C98.8527 76.7408 99.0989 76.9053 99.3167 77.1278C99.5368 77.348 99.7108 77.6262 99.8387 77.9624C99.9665 78.2962 100.03 78.6915 100.03 79.1484V79.4609H95.7691V78.9034H99.3841C99.3841 78.553 99.3131 78.2382 99.1711 77.9588C99.0314 77.6771 98.8361 77.4545 98.5851 77.2912C98.3366 77.1278 98.0489 77.0462 97.7222 77.0462C97.3766 77.0462 97.0724 77.1385 96.8096 77.3232C96.5468 77.5078 96.3408 77.7517 96.1917 78.0547C96.0449 78.3577 95.9703 78.6892 95.968 79.049V79.3828C95.968 79.8161 96.0425 80.1948 96.1917 80.5192C96.3432 80.8411 96.5574 81.0909 96.8344 81.2685C97.1114 81.446 97.4393 81.5348 97.8181 81.5348C98.0761 81.5348 98.3022 81.4946 98.4964 81.4141C98.6929 81.3336 98.8574 81.2259 98.99 81.0909C99.1249 80.9536 99.2267 80.8033 99.2954 80.6399L99.8955 80.8352C99.8126 81.0649 99.6765 81.2768 99.4871 81.4709C99.3001 81.665 99.0657 81.8213 98.784 81.9396C98.5046 82.0556 98.1827 82.1136 97.8181 82.1136ZM35.0318 88.5455V89.0959H32.4288V88.5455H35.0318ZM33.242 87.2386H33.8777V92.576C33.8777 92.8033 33.9167 92.982 33.9949 93.1122C34.073 93.2401 34.1748 93.3312 34.3002 93.3857C34.4257 93.4377 34.5595 93.4638 34.7015 93.4638C34.7844 93.4638 34.8554 93.459 34.9146 93.4496C34.9738 93.4377 35.0259 93.4259 35.0708 93.4141L35.2058 93.9858C35.1442 94.0095 35.0685 94.0308 34.9785 94.0497C34.8886 94.071 34.7773 94.0817 34.6447 94.0817C34.4127 94.0817 34.189 94.0308 33.9735 93.929C33.7605 93.8272 33.5853 93.6757 33.448 93.4744C33.3107 93.2732 33.242 93.0234 33.242 92.7251V87.2386ZM37.2166 90.5909V94H36.5845V86.7273H37.2166V89.4013H37.2734C37.4013 89.1196 37.599 88.8946 37.8665 88.7266C38.1364 88.5585 38.4773 88.4744 38.8892 88.4744C39.2585 88.4744 39.5829 88.5502 39.8622 88.7017C40.1416 88.8532 40.3594 89.0769 40.5156 89.3729C40.6719 89.6688 40.75 90.0334 40.75 90.4666V94H40.1143V90.5057C40.1143 90.0559 39.9889 89.7019 39.7379 89.4439C39.4893 89.1835 39.1532 89.0533 38.7294 89.0533C38.4382 89.0533 38.179 89.1148 37.9517 89.2379C37.7244 89.361 37.5445 89.5386 37.4119 89.7706C37.2817 90.0002 37.2166 90.2737 37.2166 90.5909ZM44.6199 94.1136C44.1109 94.1136 43.6705 93.9953 43.2988 93.7585C42.9271 93.5194 42.6395 93.1892 42.4359 92.7678C42.2347 92.344 42.1341 91.8563 42.1341 91.3047C42.1341 90.7554 42.2347 90.2678 42.4359 89.8416C42.6395 89.4131 42.92 89.0781 43.2775 88.8366C43.6374 88.5928 44.0529 88.4709 44.524 88.4709C44.8199 88.4709 45.1052 88.5253 45.3798 88.6342C45.6544 88.7408 45.9006 88.9053 46.1184 89.1278C46.3386 89.348 46.5126 89.6262 46.6404 89.9624C46.7683 90.2962 46.8322 90.6915 46.8322 91.1484V91.4609H42.5708V90.9034H46.1859C46.1859 90.553 46.1149 90.2382 45.9728 89.9588C45.8332 89.6771 45.6378 89.4545 45.3869 89.2912C45.1383 89.1278 44.8507 89.0462 44.524 89.0462C44.1783 89.0462 43.8741 89.1385 43.6113 89.3232C43.3485 89.5078 43.1426 89.7517 42.9934 90.0547C42.8467 90.3577 42.7721 90.6892 42.7697 91.049V91.3828C42.7697 91.8161 42.8443 92.1948 42.9934 92.5192C43.1449 92.8411 43.3592 93.0909 43.6362 93.2685C43.9132 93.446 44.2411 93.5348 44.6199 93.5348C44.8779 93.5348 45.104 93.4946 45.2981 93.4141C45.4946 93.3336 45.6592 93.2259 45.7917 93.0909C45.9267 92.9536 46.0285 92.8033 46.0971 92.6399L46.6973 92.8352C46.6144 93.0649 46.4783 93.2768 46.2889 93.4709C46.1019 93.665 45.8675 93.8213 45.5858 93.9396C45.3064 94.0556 44.9844 94.1136 44.6199 94.1136ZM53.1683 94.1136C52.6806 94.1136 52.2557 93.9917 51.8935 93.7479C51.5336 93.504 51.2543 93.1702 51.0554 92.7464C50.8565 92.3227 50.7571 91.8397 50.7571 91.2976C50.7571 90.7507 50.8577 90.2642 51.0589 89.8381C51.2625 89.4119 51.5443 89.0781 51.9041 88.8366C52.264 88.5928 52.6818 88.4709 53.1577 88.4709C53.5223 88.4709 53.8525 88.5419 54.1484 88.6839C54.4444 88.8236 54.6882 89.0213 54.88 89.277C55.0741 89.5303 55.196 89.8262 55.2457 90.1648H54.6065C54.5402 89.857 54.3804 89.5942 54.1271 89.3764C53.8762 89.1562 53.5566 89.0462 53.1683 89.0462C52.8203 89.0462 52.5125 89.1409 52.245 89.3303C51.9775 89.5173 51.768 89.7789 51.6165 90.1151C51.4673 90.4489 51.3928 90.8359 51.3928 91.2763C51.3928 91.719 51.4661 92.1108 51.6129 92.4517C51.7597 92.7902 51.9657 93.0554 52.2308 93.2472C52.4983 93.4389 52.8108 93.5348 53.1683 93.5348C53.4098 93.5348 53.63 93.4898 53.8288 93.3999C54.0301 93.3075 54.1982 93.1773 54.3331 93.0092C54.4704 92.8411 54.5627 92.6411 54.6101 92.4091H55.2493C55.2019 92.7382 55.0848 93.0317 54.8977 93.2898C54.7131 93.5455 54.4728 93.7467 54.1768 93.8935C53.8833 94.0402 53.5471 94.1136 53.1683 94.1136ZM58.7241 94.1136C58.253 94.1136 57.8363 93.9941 57.4741 93.755C57.1142 93.5159 56.8325 93.1856 56.6289 92.7642C56.4253 92.3404 56.3235 91.8516 56.3235 91.2976C56.3235 90.7389 56.4253 90.2476 56.6289 89.8239C56.8325 89.3977 57.1142 89.0663 57.4741 88.8295C57.8363 88.5904 58.253 88.4709 58.7241 88.4709C59.1952 88.4709 59.6107 88.5904 59.9705 88.8295C60.3304 89.0687 60.6121 89.4001 60.8157 89.8239C61.0217 90.2476 61.1246 90.7389 61.1246 91.2976C61.1246 91.8516 61.0228 92.3404 60.8192 92.7642C60.6156 93.1856 60.3327 93.5159 59.9705 93.755C59.6107 93.9941 59.1952 94.1136 58.7241 94.1136ZM58.7241 93.5348C59.1029 93.5348 59.4237 93.433 59.6864 93.2294C59.9492 93.0258 60.1481 92.7547 60.283 92.4162C60.4203 92.0777 60.489 91.7048 60.489 91.2976C60.489 90.8904 60.4203 90.5163 60.283 90.1754C60.1481 89.8345 59.9492 89.5611 59.6864 89.3551C59.4237 89.1491 59.1029 89.0462 58.7241 89.0462C58.3477 89.0462 58.0269 89.1491 57.7617 89.3551C57.4989 89.5611 57.2989 89.8345 57.1616 90.1754C57.0266 90.5163 56.9592 90.8904 56.9592 91.2976C56.9592 91.7048 57.0266 92.0777 57.1616 92.4162C57.2989 92.7547 57.4989 93.0258 57.7617 93.2294C58.0245 93.433 58.3453 93.5348 58.7241 93.5348ZM65.9782 91.9155V88.5455H66.6103V94H65.9782V93.0945H65.9284C65.8006 93.3738 65.5982 93.607 65.3212 93.794C65.0442 93.9787 64.7057 94.071 64.3056 94.071C63.9576 94.071 63.6486 93.9953 63.3787 93.8438C63.1088 93.6899 62.897 93.465 62.7431 93.169C62.5892 92.8731 62.5123 92.5097 62.5123 92.0788V88.5455H63.1444V92.0398C63.1444 92.4659 63.2698 92.8092 63.5208 93.0696C63.7717 93.3277 64.0937 93.4567 64.4867 93.4567C64.7329 93.4567 64.9696 93.3975 65.1969 93.2791C65.4242 93.1607 65.6112 92.9879 65.758 92.7607C65.9048 92.531 65.9782 92.2493 65.9782 91.9155ZM68.2837 94V88.5455H68.8981V89.3835H68.9442C69.0531 89.1089 69.2425 88.8875 69.5124 88.7195C69.7847 88.549 70.0924 88.4638 70.4357 88.4638C70.4878 88.4638 70.5458 88.465 70.6097 88.4673C70.6737 88.4697 70.7269 88.4721 70.7695 88.4744V89.1172C70.7411 89.1125 70.6914 89.1054 70.6204 89.0959C70.5494 89.0864 70.4724 89.0817 70.3896 89.0817C70.1055 89.0817 69.8522 89.142 69.6296 89.2628C69.4094 89.3812 69.2354 89.5457 69.1076 89.7564C68.9798 89.9671 68.9158 90.2074 68.9158 90.4773V94H68.2837ZM75.513 89.7422L74.9341 89.9055C74.8773 89.7422 74.7968 89.5942 74.6926 89.4616C74.5885 89.3291 74.4524 89.2237 74.2843 89.1456C74.1185 89.0675 73.9126 89.0284 73.6664 89.0284C73.2971 89.0284 72.994 89.116 72.7573 89.2912C72.5205 89.4664 72.4022 89.6925 72.4022 89.9695C72.4022 90.2038 72.4827 90.3944 72.6436 90.5412C72.807 90.6856 73.0579 90.8004 73.3965 90.8857L74.2203 91.0881C74.6773 91.1993 75.0194 91.3757 75.2466 91.6172C75.4763 91.8587 75.5911 92.1617 75.5911 92.5263C75.5911 92.834 75.5059 93.1075 75.3354 93.3466C75.165 93.5857 74.927 93.7739 74.6216 93.9112C74.3186 94.0462 73.967 94.1136 73.5669 94.1136C73.0343 94.1136 72.5951 93.9941 72.2495 93.755C71.9038 93.5135 71.6825 93.1655 71.5854 92.7109L72.1926 92.5618C72.2708 92.8861 72.4235 93.1312 72.6507 93.2969C72.8804 93.4626 73.1822 93.5455 73.5563 93.5455C73.9753 93.5455 74.3103 93.4519 74.5613 93.2649C74.8122 93.0755 74.9377 92.8388 74.9377 92.5547C74.9377 92.3345 74.8643 92.1499 74.7175 92.0007C74.5707 91.8492 74.3482 91.7379 74.0499 91.6669L73.1586 91.4538C72.6851 91.3402 72.3347 91.1603 72.1074 90.9141C71.8801 90.6679 71.7665 90.3625 71.7665 89.9979C71.7665 89.6972 71.8482 89.4332 72.0115 89.206C72.1749 88.9763 72.3998 88.7964 72.6863 88.6662C72.9727 88.536 73.2994 88.4709 73.6664 88.4709C74.1659 88.4709 74.5648 88.5845 74.8631 88.8118C75.1638 89.0367 75.3804 89.3468 75.513 89.7422ZM79.1804 94.1136C78.6714 94.1136 78.2311 93.9953 77.8594 93.7585C77.4877 93.5194 77.2 93.1892 76.9964 92.7678C76.7952 92.344 76.6946 91.8563 76.6946 91.3047C76.6946 90.7554 76.7952 90.2678 76.9964 89.8416C77.2 89.4131 77.4806 89.0781 77.8381 88.8366C78.1979 88.5928 78.6134 88.4709 79.0845 88.4709C79.3804 88.4709 79.6657 88.5253 79.9403 88.6342C80.215 88.7408 80.4612 88.9053 80.679 89.1278C80.8991 89.348 81.0732 89.6262 81.201 89.9624C81.3288 90.2962 81.3928 90.6915 81.3928 91.1484V91.4609H77.1314V90.9034H80.7464C80.7464 90.553 80.6754 90.2382 80.5334 89.9588C80.3937 89.6771 80.1984 89.4545 79.9474 89.2912C79.6989 89.1278 79.4112 89.0462 79.0845 89.0462C78.7389 89.0462 78.4347 89.1385 78.1719 89.3232C77.9091 89.5078 77.7031 89.7517 77.554 90.0547C77.4072 90.3577 77.3326 90.6892 77.3303 91.049V91.3828C77.3303 91.8161 77.4048 92.1948 77.554 92.5192C77.7055 92.8411 77.9197 93.0909 78.1967 93.2685C78.4737 93.446 78.8016 93.5348 79.1804 93.5348C79.4384 93.5348 79.6645 93.4946 79.8587 93.4141C80.0552 93.3336 80.2197 93.2259 80.3523 93.0909C80.4872 92.9536 80.589 92.8033 80.6577 92.6399L81.2578 92.8352C81.175 93.0649 81.0388 93.2768 80.8494 93.4709C80.6624 93.665 80.428 93.8213 80.1463 93.9396C79.867 94.0556 79.545 94.1136 79.1804 94.1136Z" fill="#333333"/>
</svg>
