<svg width="90" height="90" viewBox="0 0 90 90" fill="none" xmlns="http://www.w3.org/2000/svg">
<path d="M9.35384 71.2308C9.60557 70.3042 9.04923 69.016 8.51827 68.0873C8.35294 67.8104 8.17361 67.5421 7.98096 67.2835C3.42711 60.3773 0.999918 52.2866 1.00021 44.0142C0.92617 20.269 20.6161 1 44.9641 1C66.1983 1 83.9231 15.7104 88.065 35.2375C88.6856 38.1326 88.999 41.0851 89 44.046C89 67.825 70.0695 87.3965 45.7215 87.3965C41.8503 87.3965 36.6253 86.4235 33.7759 85.626C30.9265 84.8285 28.0813 83.7708 27.3473 83.4873C26.5965 83.1987 25.7992 83.0503 24.995 83.0494C24.1165 83.0461 23.2464 83.221 22.4375 83.5635L8.08885 88.7419C7.7745 88.8774 7.44141 88.9644 7.10096 89C6.8323 88.9992 6.56647 88.9451 6.31888 88.8408C6.07128 88.7365 5.84683 88.5841 5.65854 88.3925C5.47025 88.2009 5.32185 87.9738 5.22195 87.7244C5.12205 87.475 5.07263 87.2083 5.07654 86.9396C5.09419 86.7038 5.13674 86.4705 5.20347 86.2437L9.35384 71.2308Z" stroke="#C9C8D8" stroke-miterlimit="10" stroke-linecap="round"/>
<path d="M16.4302 27.0455V19.5455H17.0446V20.5859H17.1191C17.1949 20.4226 17.2991 20.2557 17.4316 20.0852C17.5642 19.9124 17.7394 19.7668 17.9572 19.6484C18.1774 19.5301 18.4544 19.4709 18.7882 19.4709C19.238 19.4709 19.631 19.5893 19.9672 19.826C20.3057 20.0604 20.5685 20.3894 20.7555 20.8132C20.9449 21.2346 21.0396 21.7259 21.0396 22.2869C21.0396 22.8504 20.9449 23.344 20.7555 23.7678C20.5685 24.1915 20.3057 24.5218 19.9672 24.7585C19.631 24.9953 19.2404 25.1136 18.7953 25.1136C18.4662 25.1136 18.1904 25.0545 17.9679 24.9361C17.7477 24.8177 17.569 24.6721 17.4316 24.4993C17.2967 24.3241 17.1925 24.1536 17.1191 23.9879H17.0623V27.0455H16.4302ZM17.0552 22.2763C17.0552 22.7166 17.1203 23.1072 17.2505 23.4482C17.3831 23.7867 17.5725 24.053 17.8187 24.2472C18.0673 24.4389 18.368 24.5348 18.7207 24.5348C19.0829 24.5348 19.3883 24.4354 19.6369 24.2365C19.8878 24.0353 20.0784 23.7642 20.2086 23.4233C20.3412 23.0824 20.4075 22.7 20.4075 22.2763C20.4075 21.8572 20.3424 21.4796 20.2122 21.1435C20.0843 20.8073 19.8949 20.541 19.644 20.3445C19.3931 20.1456 19.0853 20.0462 18.7207 20.0462C18.3656 20.0462 18.0637 20.142 17.8152 20.3338C17.5666 20.5232 17.3772 20.786 17.247 21.1222C17.1191 21.456 17.0552 21.8407 17.0552 22.2763ZM24.5463 25.1136C24.0752 25.1136 23.6586 24.9941 23.2963 24.755C22.9365 24.5159 22.6548 24.1856 22.4512 23.7642C22.2476 23.3404 22.1458 22.8516 22.1458 22.2976C22.1458 21.7389 22.2476 21.2476 22.4512 20.8239C22.6548 20.3977 22.9365 20.0663 23.2963 19.8295C23.6586 19.5904 24.0752 19.4709 24.5463 19.4709C25.0175 19.4709 25.4329 19.5904 25.7928 19.8295C26.1526 20.0687 26.4344 20.4001 26.638 20.8239C26.8439 21.2476 26.9469 21.7389 26.9469 22.2976C26.9469 22.8516 26.8451 23.3404 26.6415 23.7642C26.4379 24.1856 26.155 24.5159 25.7928 24.755C25.4329 24.9941 25.0175 25.1136 24.5463 25.1136ZM24.5463 24.5348C24.9251 24.5348 25.2459 24.433 25.5087 24.2294C25.7715 24.0258 25.9703 23.7547 26.1053 23.4162C26.2426 23.0777 26.3113 22.7048 26.3113 22.2976C26.3113 21.8904 26.2426 21.5163 26.1053 21.1754C25.9703 20.8345 25.7715 20.5611 25.5087 20.3551C25.2459 20.1491 24.9251 20.0462 24.5463 20.0462C24.1699 20.0462 23.8491 20.1491 23.584 20.3551C23.3212 20.5611 23.1212 20.8345 22.9838 21.1754C22.8489 21.5163 22.7814 21.8904 22.7814 22.2976C22.7814 22.7048 22.8489 23.0777 22.9838 23.4162C23.1212 23.7547 23.3212 24.0258 23.584 24.2294C23.8468 24.433 24.1676 24.5348 24.5463 24.5348ZM31.9993 20.7422L31.4205 20.9055C31.3636 20.7422 31.2831 20.5942 31.179 20.4616C31.0748 20.3291 30.9387 20.2237 30.7706 20.1456C30.6049 20.0675 30.3989 20.0284 30.1527 20.0284C29.7834 20.0284 29.4804 20.116 29.2436 20.2912C29.0069 20.4664 28.8885 20.6925 28.8885 20.9695C28.8885 21.2038 28.969 21.3944 29.13 21.5412C29.2933 21.6856 29.5443 21.8004 29.8828 21.8857L30.7067 22.0881C31.1636 22.1993 31.5057 22.3757 31.733 22.6172C31.9626 22.8587 32.0774 23.1617 32.0774 23.5263C32.0774 23.834 31.9922 24.1075 31.8217 24.3466C31.6513 24.5857 31.4134 24.7739 31.108 24.9112C30.8049 25.0462 30.4534 25.1136 30.0533 25.1136C29.5206 25.1136 29.0814 24.9941 28.7358 24.755C28.3902 24.5135 28.1688 24.1655 28.0717 23.7109L28.679 23.5618C28.7571 23.8861 28.9098 24.1312 29.1371 24.2969C29.3667 24.4626 29.6686 24.5455 30.0426 24.5455C30.4616 24.5455 30.7966 24.4519 31.0476 24.2649C31.2985 24.0755 31.424 23.8388 31.424 23.5547C31.424 23.3345 31.3506 23.1499 31.2038 23.0007C31.0571 22.8492 30.8345 22.7379 30.5362 22.6669L29.6449 22.4538C29.1714 22.3402 28.821 22.1603 28.5938 21.9141C28.3665 21.6679 28.2528 21.3625 28.2528 20.9979C28.2528 20.6972 28.3345 20.4332 28.4979 20.206C28.6612 19.9763 28.8861 19.7964 29.1726 19.6662C29.459 19.536 29.7857 19.4709 30.1527 19.4709C30.6522 19.4709 31.0511 19.5845 31.3494 19.8118C31.6501 20.0367 31.8667 20.3468 31.9993 20.7422ZM37.1262 20.7422L36.5474 20.9055C36.4906 20.7422 36.4101 20.5942 36.3059 20.4616C36.2018 20.3291 36.0656 20.2237 35.8975 20.1456C35.7318 20.0675 35.5259 20.0284 35.2797 20.0284C34.9103 20.0284 34.6073 20.116 34.3706 20.2912C34.1338 20.4664 34.0154 20.6925 34.0154 20.9695C34.0154 21.2038 34.0959 21.3944 34.2569 21.5412C34.4203 21.6856 34.6712 21.8004 35.0098 21.8857L35.8336 22.0881C36.2905 22.1993 36.6326 22.3757 36.8599 22.6172C37.0895 22.8587 37.2044 23.1617 37.2044 23.5263C37.2044 23.834 37.1191 24.1075 36.9487 24.3466C36.7782 24.5857 36.5403 24.7739 36.2349 24.9112C35.9319 25.0462 35.5803 25.1136 35.1802 25.1136C34.6475 25.1136 34.2084 24.9941 33.8627 24.755C33.5171 24.5135 33.2958 24.1655 33.1987 23.7109L33.8059 23.5618C33.8841 23.8861 34.0368 24.1312 34.264 24.2969C34.4937 24.4626 34.7955 24.5455 35.1696 24.5455C35.5886 24.5455 35.9236 24.4519 36.1745 24.2649C36.4255 24.0755 36.551 23.8388 36.551 23.5547C36.551 23.3345 36.4776 23.1499 36.3308 23.0007C36.184 22.8492 35.9615 22.7379 35.6632 22.6669L34.7718 22.4538C34.2984 22.3402 33.948 22.1603 33.7207 21.9141C33.4934 21.6679 33.3798 21.3625 33.3798 20.9979C33.3798 20.6972 33.4615 20.4332 33.6248 20.206C33.7882 19.9763 34.0131 19.7964 34.2995 19.6662C34.586 19.536 34.9127 19.4709 35.2797 19.4709C35.7792 19.4709 36.1781 19.5845 36.4764 19.8118C36.777 20.0367 36.9937 20.3468 37.1262 20.7422ZM38.5955 25V19.5455H39.2312V25H38.5955ZM38.9187 18.608C38.7885 18.608 38.6772 18.5642 38.5849 18.4766C38.4925 18.3866 38.4464 18.2789 38.4464 18.1534C38.4464 18.0279 38.4925 17.9214 38.5849 17.8338C38.6772 17.7438 38.7885 17.6989 38.9187 17.6989C39.0489 17.6989 39.1602 17.7438 39.2525 17.8338C39.3448 17.9214 39.391 18.0279 39.391 18.1534C39.391 18.2789 39.3448 18.3866 39.2525 18.4766C39.1602 18.5642 39.0489 18.608 38.9187 18.608ZM41.0343 25V17.7273H41.6699V20.5859H41.7267C41.7978 20.4226 41.8996 20.2545 42.0321 20.0817C42.1671 19.9089 42.3435 19.7644 42.5613 19.6484C42.7814 19.5301 43.0584 19.4709 43.3922 19.4709C43.8397 19.4709 44.2327 19.5893 44.5712 19.826C44.9097 20.0604 45.1737 20.3894 45.3631 20.8132C45.5525 21.2346 45.6472 21.7259 45.6472 22.2869C45.6472 22.8504 45.5525 23.344 45.3631 23.7678C45.1761 24.1915 44.9133 24.5218 44.5748 24.7585C44.2386 24.9953 43.848 25.1136 43.4029 25.1136C43.0714 25.1136 42.7944 25.0545 42.5719 24.9361C42.3517 24.8177 42.1742 24.6721 42.0392 24.4993C41.9043 24.3241 41.8001 24.1536 41.7267 23.9879H41.6486V25H41.0343ZM41.6593 22.2763C41.6593 22.7166 41.7244 23.1072 41.8546 23.4482C41.9872 23.7867 42.1766 24.053 42.4228 24.2472C42.6713 24.4389 42.972 24.5348 43.3248 24.5348C43.687 24.5348 43.9935 24.4354 44.2445 24.2365C44.4954 24.0353 44.686 23.7642 44.8162 23.4233C44.9464 23.0824 45.0115 22.7 45.0115 22.2763C45.0115 21.8572 44.9464 21.4796 44.8162 21.1435C44.6884 20.8073 44.499 20.541 44.248 20.3445C43.9971 20.1456 43.6893 20.0462 43.3248 20.0462C42.9696 20.0462 42.6678 20.142 42.4192 20.3338C42.173 20.5232 41.9848 20.786 41.8546 21.1222C41.7244 21.456 41.6593 21.8407 41.6593 22.2763ZM47.0428 25V19.5455H47.6784V25H47.0428ZM47.3659 18.608C47.2357 18.608 47.1245 18.5642 47.0321 18.4766C46.9398 18.3866 46.8936 18.2789 46.8936 18.1534C46.8936 18.0279 46.9398 17.9214 47.0321 17.8338C47.1245 17.7438 47.2357 17.6989 47.3659 17.6989C47.4962 17.6989 47.6074 17.7438 47.6998 17.8338C47.7921 17.9214 47.8382 18.0279 47.8382 18.1534C47.8382 18.2789 47.7921 18.3866 47.6998 18.4766C47.6074 18.5642 47.4962 18.608 47.3659 18.608ZM49.9822 17.7273V25H49.3501V17.7273H49.9822ZM51.6619 25V19.5455H52.2976V25H51.6619ZM51.9851 18.608C51.8549 18.608 51.7436 18.5642 51.6513 18.4766C51.5589 18.3866 51.5128 18.2789 51.5128 18.1534C51.5128 18.0279 51.5589 17.9214 51.6513 17.8338C51.7436 17.7438 51.8549 17.6989 51.9851 17.6989C52.1153 17.6989 52.2266 17.7438 52.3189 17.8338C52.4112 17.9214 52.4574 18.0279 52.4574 18.1534C52.4574 18.2789 52.4112 18.3866 52.3189 18.4766C52.2266 18.5642 52.1153 18.608 51.9851 18.608ZM56.1177 19.5455V20.0959H53.5147V19.5455H56.1177ZM54.3279 18.2386H54.9636V23.576C54.9636 23.8033 55.0027 23.982 55.0808 24.1122C55.1589 24.2401 55.2607 24.3312 55.3862 24.3857C55.5117 24.4377 55.6454 24.4638 55.7875 24.4638C55.8703 24.4638 55.9413 24.459 56.0005 24.4496C56.0597 24.4377 56.1118 24.4259 56.1568 24.4141L56.2917 24.9858C56.2302 25.0095 56.1544 25.0308 56.0645 25.0497C55.9745 25.071 55.8632 25.0817 55.7306 25.0817C55.4986 25.0817 55.2749 25.0308 55.0595 24.929C54.8464 24.8272 54.6712 24.6757 54.5339 24.4744C54.3966 24.2732 54.3279 24.0234 54.3279 23.7251V18.2386ZM57.9936 27.0455C57.8681 27.0455 57.7509 27.0336 57.642 27.0099C57.5331 26.9863 57.4467 26.9602 57.3828 26.9318L57.5533 26.3743C57.7687 26.4406 57.9605 26.4643 58.1286 26.4453C58.2966 26.4287 58.4458 26.353 58.576 26.218C58.7062 26.0855 58.8222 25.8819 58.924 25.6072L59.1229 25.0533L57.1165 19.5455H57.8018L59.4212 24.1655H59.4709L61.0902 19.5455H61.7756L59.4673 25.8629C59.3703 26.1257 59.2507 26.3447 59.1087 26.5199C58.9666 26.6974 58.8021 26.8288 58.6151 26.9141C58.4304 27.0017 58.2232 27.0455 57.9936 27.0455ZM67.9448 25.1136C67.4737 25.1136 67.057 24.9941 66.6948 24.755C66.3349 24.5159 66.0532 24.1856 65.8496 23.7642C65.646 23.3404 65.5442 22.8516 65.5442 22.2976C65.5442 21.7389 65.646 21.2476 65.8496 20.8239C66.0532 20.3977 66.3349 20.0663 66.6948 19.8295C67.057 19.5904 67.4737 19.4709 67.9448 19.4709C68.4159 19.4709 68.8314 19.5904 69.1912 19.8295C69.5511 20.0687 69.8328 20.4001 70.0364 20.8239C70.2424 21.2476 70.3453 21.7389 70.3453 22.2976C70.3453 22.8516 70.2435 23.3404 70.04 23.7642C69.8364 24.1856 69.5534 24.5159 69.1912 24.755C68.8314 24.9941 68.4159 25.1136 67.9448 25.1136ZM67.9448 24.5348C68.3236 24.5348 68.6444 24.433 68.9071 24.2294C69.1699 24.0258 69.3688 23.7547 69.5037 23.4162C69.641 23.0777 69.7097 22.7048 69.7097 22.2976C69.7097 21.8904 69.641 21.5163 69.5037 21.1754C69.3688 20.8345 69.1699 20.5611 68.9071 20.3551C68.6444 20.1491 68.3236 20.0462 67.9448 20.0462C67.5684 20.0462 67.2476 20.1491 66.9824 20.3551C66.7196 20.5611 66.5196 20.8345 66.3823 21.1754C66.2473 21.5163 66.1799 21.8904 66.1799 22.2976C66.1799 22.7048 66.2473 23.0777 66.3823 23.4162C66.5196 23.7547 66.7196 24.0258 66.9824 24.2294C67.2452 24.433 67.566 24.5348 67.9448 24.5348ZM73.9773 19.5455V20.0959H71.2962V19.5455H73.9773ZM72.1342 25V18.7464C72.1342 18.4529 72.2017 18.2055 72.3366 18.0043C72.474 17.803 72.6527 17.6503 72.8729 17.5462C73.093 17.442 73.3262 17.3899 73.5724 17.3899C73.7382 17.3899 73.8755 17.4041 73.9844 17.4325C74.0956 17.4586 74.1832 17.4846 74.2472 17.5107L74.0625 18.0646C74.0152 18.0504 73.9571 18.0339 73.8885 18.0149C73.8198 17.996 73.7334 17.9865 73.6293 17.9865C73.3546 17.9865 73.1428 18.0634 72.9936 18.2173C72.8445 18.3712 72.7699 18.5914 72.7699 18.8778L72.7663 25H72.1342ZM9.79936 31.5455V32.0959H7.19638V31.5455H9.79936ZM8.00959 30.2386H8.64524V35.576C8.64524 35.8033 8.6843 35.982 8.76243 36.1122C8.84055 36.2401 8.94235 36.3312 9.06783 36.3857C9.1933 36.4377 9.32706 36.4638 9.46911 36.4638C9.55197 36.4638 9.62299 36.459 9.68217 36.4496C9.74136 36.4377 9.79344 36.4259 9.83842 36.4141L9.97337 36.9858C9.91181 37.0095 9.83606 37.0308 9.74609 37.0497C9.65613 37.071 9.54486 37.0817 9.41229 37.0817C9.18028 37.0817 8.95656 37.0308 8.74112 36.929C8.52805 36.8272 8.35286 36.6757 8.21555 36.4744C8.07824 36.2732 8.00959 36.0234 8.00959 35.7251V30.2386ZM12.7583 37.1243C12.4293 37.1243 12.1286 37.0604 11.8564 36.9325C11.5841 36.8023 11.3675 36.6153 11.2065 36.3714C11.0455 36.1252 10.965 35.8269 10.965 35.4766C10.965 35.2067 11.0159 34.9794 11.1177 34.7947C11.2195 34.6101 11.3639 34.4586 11.551 34.3402C11.738 34.2218 11.9593 34.1283 12.215 34.0597C12.4707 33.991 12.7524 33.9377 13.0602 33.8999C13.3656 33.862 13.6236 33.8288 13.8343 33.8004C14.0474 33.772 14.2096 33.727 14.3208 33.6655C14.4321 33.6039 14.4877 33.5045 14.4877 33.3672V33.2393C14.4877 32.8677 14.3765 32.5753 14.1539 32.3622C13.9338 32.1468 13.6165 32.0391 13.2022 32.0391C12.8092 32.0391 12.4885 32.1255 12.2399 32.2983C11.9937 32.4711 11.8208 32.6747 11.7214 32.9091L11.1213 32.6925C11.2444 32.3942 11.4148 32.1562 11.6326 31.9787C11.8504 31.7988 12.0943 31.6697 12.3642 31.5916C12.6341 31.5111 12.9075 31.4709 13.1845 31.4709C13.3928 31.4709 13.6094 31.4981 13.8343 31.5526C14.0616 31.607 14.2723 31.7017 14.4664 31.8366C14.6606 31.9692 14.818 32.1551 14.9387 32.3942C15.0595 32.6309 15.1199 32.9316 15.1199 33.2962V37H14.4877V36.1371H14.4487C14.3729 36.2981 14.2605 36.4543 14.1113 36.6058C13.9622 36.7573 13.7752 36.8816 13.5502 36.9787C13.3253 37.0758 13.0614 37.1243 12.7583 37.1243ZM12.8436 36.5455C13.1797 36.5455 13.4709 36.4709 13.7172 36.3217C13.9634 36.1726 14.1528 35.9749 14.2853 35.7287C14.4203 35.4801 14.4877 35.2067 14.4877 34.9084V34.12C14.4404 34.165 14.3611 34.2053 14.2498 34.2408C14.1409 34.2763 14.0143 34.3082 13.8699 34.3366C13.7278 34.3627 13.5858 34.3852 13.4437 34.4041C13.3017 34.4231 13.1738 34.4396 13.0602 34.4538C12.7524 34.4917 12.4896 34.5509 12.2718 34.6314C12.054 34.7119 11.8871 34.8232 11.7711 34.9652C11.6551 35.1049 11.5971 35.2848 11.5971 35.505C11.5971 35.8364 11.7155 36.0933 11.9522 36.2756C12.189 36.4555 12.4861 36.5455 12.8436 36.5455ZM17.3766 34.9403L17.3695 34.1129H17.5115L20.0684 31.5455H20.8674L18.3425 34.0739L18.2857 34.0845L17.3766 34.9403ZM16.8013 37V29.7273H17.4334V37H16.8013ZM20.1998 37L17.9838 34.1982L18.4384 33.7614L21.0094 37H20.1998ZM22.0623 37V31.5455H22.698V37H22.0623ZM22.3855 30.608C22.2553 30.608 22.144 30.5642 22.0517 30.4766C21.9593 30.3866 21.9132 30.2789 21.9132 30.1534C21.9132 30.0279 21.9593 29.9214 22.0517 29.8338C22.144 29.7438 22.2553 29.6989 22.3855 29.6989C22.5157 29.6989 22.627 29.7438 22.7193 29.8338C22.8116 29.9214 22.8578 30.0279 22.8578 30.1534C22.8578 30.2789 22.8116 30.3866 22.7193 30.4766C22.627 30.5642 22.5157 30.608 22.3855 30.608ZM25.0018 33.5909V37H24.3697V31.5455H24.984V32.4013H25.0408C25.1687 32.1219 25.3675 31.8982 25.6374 31.7301C25.9097 31.5597 26.2459 31.4744 26.646 31.4744C27.0129 31.4744 27.3349 31.5514 27.6119 31.7053C27.8912 31.8568 28.1078 32.0805 28.2617 32.3764C28.418 32.6723 28.4961 33.0357 28.4961 33.4666V37H27.864V33.5057C27.864 33.0582 27.7385 32.7043 27.4876 32.4439C27.239 32.1835 26.9052 32.0533 26.4862 32.0533C26.1997 32.0533 25.9452 32.1148 25.7227 32.2379C25.5001 32.361 25.3237 32.5386 25.1935 32.7706C25.0657 33.0002 25.0018 33.2737 25.0018 33.5909ZM32.2417 39.1591C31.87 39.1591 31.5444 39.1106 31.2651 39.0135C30.9857 38.9188 30.7502 38.7886 30.5584 38.6229C30.3667 38.4571 30.2175 38.2713 30.111 38.0653L30.6294 37.7244C30.7076 37.8617 30.8117 37.9967 30.9419 38.1293C31.0745 38.2618 31.2462 38.3719 31.4569 38.4595C31.6699 38.5471 31.9315 38.5909 32.2417 38.5909C32.7246 38.5909 33.1141 38.4702 33.41 38.2287C33.7083 37.9872 33.8574 37.612 33.8574 37.103V35.8743H33.8006C33.7272 36.04 33.6219 36.2057 33.4846 36.3714C33.3472 36.5348 33.1673 36.6709 32.9448 36.7798C32.7246 36.8887 32.4512 36.9432 32.1245 36.9432C31.6889 36.9432 31.3018 36.8355 30.9632 36.62C30.6271 36.4046 30.3619 36.0968 30.1678 35.6967C29.976 35.2943 29.8801 34.8149 29.8801 34.2585C29.8801 33.7069 29.9737 33.2216 30.1607 32.8026C30.3501 32.3835 30.6141 32.0568 30.9526 31.8224C31.2911 31.5881 31.6853 31.4709 32.1351 31.4709C32.4689 31.4709 32.7459 31.5301 32.9661 31.6484C33.1863 31.7644 33.3626 31.9089 33.4952 32.0817C33.6301 32.2545 33.7355 32.4226 33.8113 32.5859H33.8752V31.5455H34.4931V37.142C34.4931 37.6037 34.3948 37.9837 34.1983 38.282C34.0018 38.5803 33.7343 38.8004 33.3958 38.9425C33.0572 39.0869 32.6725 39.1591 32.2417 39.1591ZM32.199 36.3643C32.5494 36.3643 32.8489 36.2803 33.0975 36.1122C33.3461 35.9418 33.5366 35.6979 33.6692 35.3807C33.8018 35.0634 33.8681 34.6858 33.8681 34.2479C33.8681 33.8217 33.803 33.4441 33.6728 33.1151C33.5426 32.7836 33.3532 32.5232 33.1046 32.3338C32.8584 32.142 32.5565 32.0462 32.199 32.0462C31.8345 32.0462 31.5267 32.1444 31.2757 32.3409C31.0248 32.5374 30.8354 32.8026 30.7076 33.1364C30.5797 33.4678 30.5158 33.8383 30.5158 34.2479C30.5158 34.6645 30.5809 35.0327 30.7111 35.3523C30.8413 35.6695 31.0319 35.9181 31.2828 36.098C31.5338 36.2756 31.8392 36.3643 32.199 36.3643ZM38.9862 31.5455H39.6218V37.5291C39.6218 37.8393 39.5638 38.1068 39.4478 38.3317C39.3342 38.5589 39.1684 38.7341 38.9506 38.8572C38.7328 38.9827 38.4701 39.0455 38.1623 39.0455C38.1386 39.0455 38.1149 39.0455 38.0913 39.0455C38.0676 39.0455 38.0415 39.0443 38.0131 39.0419L38.0202 38.4489C38.0439 38.4489 38.0664 38.4489 38.0877 38.4489C38.109 38.4489 38.1315 38.4489 38.1552 38.4489C38.4156 38.4489 38.6192 38.3684 38.766 38.2074C38.9128 38.0464 38.9862 37.8203 38.9862 37.5291V31.5455ZM39.2987 30.608C39.1708 30.608 39.0595 30.5642 38.9648 30.4766C38.8725 30.3866 38.8263 30.2789 38.8263 30.1534C38.8263 30.0279 38.8725 29.9214 38.9648 29.8338C39.0595 29.7438 39.1708 29.6989 39.2987 29.6989C39.4289 29.6989 39.5401 29.7438 39.6325 29.8338C39.7272 29.9214 39.7745 30.0279 39.7745 30.1534C39.7745 30.2789 39.7272 30.3866 39.6325 30.4766C39.5401 30.5642 39.4289 30.608 39.2987 30.608ZM44.7594 34.9155V31.5455H45.3915V37H44.7594V36.0945H44.7097C44.5819 36.3738 44.3794 36.607 44.1025 36.794C43.8255 36.9787 43.4869 37.071 43.0868 37.071C42.7388 37.071 42.4299 36.9953 42.16 36.8438C41.8901 36.6899 41.6782 36.465 41.5243 36.169C41.3704 35.8731 41.2935 35.5097 41.2935 35.0788V31.5455H41.9256V35.0398C41.9256 35.4659 42.0511 35.8092 42.302 36.0696C42.553 36.3277 42.8749 36.4567 43.2679 36.4567C43.5141 36.4567 43.7509 36.3975 43.9782 36.2791C44.2054 36.1607 44.3925 35.9879 44.5392 35.7607C44.686 35.531 44.7594 35.2493 44.7594 34.9155ZM50.7298 32.7422L50.1509 32.9055C50.0941 32.7422 50.0136 32.5942 49.9094 32.4616C49.8053 32.3291 49.6692 32.2237 49.5011 32.1456C49.3353 32.0675 49.1294 32.0284 48.8832 32.0284C48.5138 32.0284 48.2108 32.116 47.9741 32.2912C47.7373 32.4664 47.619 32.6925 47.619 32.9695C47.619 33.2038 47.6995 33.3944 47.8604 33.5412C48.0238 33.6856 48.2747 33.8004 48.6133 33.8857L49.4371 34.0881C49.8941 34.1993 50.2362 34.3757 50.4634 34.6172C50.6931 34.8587 50.8079 35.1617 50.8079 35.5263C50.8079 35.834 50.7227 36.1075 50.5522 36.3466C50.3817 36.5857 50.1438 36.7739 49.8384 36.9112C49.5354 37.0462 49.1838 37.1136 48.7837 37.1136C48.2511 37.1136 47.8119 36.9941 47.4663 36.755C47.1206 36.5135 46.8993 36.1655 46.8022 35.7109L47.4094 35.5618C47.4876 35.8861 47.6403 36.1312 47.8675 36.2969C48.0972 36.4626 48.399 36.5455 48.7731 36.5455C49.1921 36.5455 49.5271 36.4519 49.7781 36.2649C50.029 36.0755 50.1545 35.8388 50.1545 35.5547C50.1545 35.3345 50.0811 35.1499 49.9343 35.0007C49.7875 34.8492 49.565 34.7379 49.2667 34.6669L48.3754 34.4538C47.9019 34.3402 47.5515 34.1603 47.3242 33.9141C47.0969 33.6679 46.9833 33.3625 46.9833 32.9979C46.9833 32.6972 47.065 32.4332 47.2283 32.206C47.3917 31.9763 47.6166 31.7964 47.9031 31.6662C48.1895 31.536 48.5162 31.4709 48.8832 31.4709C49.3827 31.4709 49.7816 31.5845 50.0799 31.8118C50.3806 32.0367 50.5972 32.3468 50.7298 32.7422ZM54.3404 31.5455V32.0959H51.7374V31.5455H54.3404ZM52.5506 30.2386H53.1863V35.576C53.1863 35.8033 53.2253 35.982 53.3034 36.1122C53.3816 36.2401 53.4834 36.3312 53.6088 36.3857C53.7343 36.4377 53.8681 36.4638 54.0101 36.4638C54.093 36.4638 54.164 36.459 54.2232 36.4496C54.2824 36.4377 54.3345 36.4259 54.3794 36.4141L54.5144 36.9858C54.4528 37.0095 54.3771 37.0308 54.2871 37.0497C54.1971 37.071 54.0859 37.0817 53.9533 37.0817C53.7213 37.0817 53.4976 37.0308 53.2821 36.929C53.0691 36.8272 52.8939 36.6757 52.7566 36.4744C52.6193 36.2732 52.5506 36.0234 52.5506 35.7251V30.2386ZM62.2532 32.7422L61.6744 32.9055C61.6175 32.7422 61.5371 32.5942 61.4329 32.4616C61.3287 32.3291 61.1926 32.2237 61.0245 32.1456C60.8588 32.0675 60.6528 32.0284 60.4066 32.0284C60.0373 32.0284 59.7343 32.116 59.4975 32.2912C59.2608 32.4664 59.1424 32.6925 59.1424 32.9695C59.1424 33.2038 59.2229 33.3944 59.3839 33.5412C59.5472 33.6856 59.7982 33.8004 60.1367 33.8857L60.9606 34.0881C61.4175 34.1993 61.7596 34.3757 61.9869 34.6172C62.2165 34.8587 62.3313 35.1617 62.3313 35.5263C62.3313 35.834 62.2461 36.1075 62.0756 36.3466C61.9052 36.5857 61.6673 36.7739 61.3619 36.9112C61.0588 37.0462 60.7073 37.1136 60.3072 37.1136C59.7745 37.1136 59.3353 36.9941 58.9897 36.755C58.6441 36.5135 58.4227 36.1655 58.3256 35.7109L58.9329 35.5618C59.011 35.8861 59.1637 36.1312 59.391 36.2969C59.6206 36.4626 59.9225 36.5455 60.2965 36.5455C60.7156 36.5455 61.0505 36.4519 61.3015 36.2649C61.5524 36.0755 61.6779 35.8388 61.6779 35.5547C61.6779 35.3345 61.6045 35.1499 61.4577 35.0007C61.311 34.8492 61.0884 34.7379 60.7901 34.6669L59.8988 34.4538C59.4253 34.3402 59.0749 34.1603 58.8477 33.9141C58.6204 33.6679 58.5067 33.3625 58.5067 32.9979C58.5067 32.6972 58.5884 32.4332 58.7518 32.206C58.9151 31.9763 59.14 31.7964 59.4265 31.6662C59.7129 31.536 60.0397 31.4709 60.4066 31.4709C60.9061 31.4709 61.305 31.5845 61.6033 31.8118C61.904 32.0367 62.1206 32.3468 62.2532 32.7422ZM65.8354 37.1136C65.3643 37.1136 64.9476 36.9941 64.5854 36.755C64.2256 36.5159 63.9438 36.1856 63.7402 35.7642C63.5366 35.3404 63.4348 34.8516 63.4348 34.2976C63.4348 33.7389 63.5366 33.2476 63.7402 32.8239C63.9438 32.3977 64.2256 32.0663 64.5854 31.8295C64.9476 31.5904 65.3643 31.4709 65.8354 31.4709C66.3065 31.4709 66.722 31.5904 67.0819 31.8295C67.4417 32.0687 67.7234 32.4001 67.927 32.8239C68.133 33.2476 68.236 33.7389 68.236 34.2976C68.236 34.8516 68.1342 35.3404 67.9306 35.7642C67.727 36.1856 67.4441 36.5159 67.0819 36.755C66.722 36.9941 66.3065 37.1136 65.8354 37.1136ZM65.8354 36.5348C66.2142 36.5348 66.535 36.433 66.7978 36.2294C67.0605 36.0258 67.2594 35.7547 67.3944 35.4162C67.5317 35.0777 67.6003 34.7048 67.6003 34.2976C67.6003 33.8904 67.5317 33.5163 67.3944 33.1754C67.2594 32.8345 67.0605 32.5611 66.7978 32.3551C66.535 32.1491 66.2142 32.0462 65.8354 32.0462C65.459 32.0462 65.1382 32.1491 64.873 32.3551C64.6103 32.5611 64.4102 32.8345 64.2729 33.1754C64.138 33.5163 64.0705 33.8904 64.0705 34.2976C64.0705 34.7048 64.138 35.0777 64.2729 35.4162C64.4102 35.7547 64.6103 36.0258 64.873 36.2294C65.1358 36.433 65.4566 36.5348 65.8354 36.5348ZM69.6236 37V31.5455H70.2379V32.3835H70.2947C70.4036 32.1018 70.5848 31.8804 70.8381 31.7195C71.0938 31.5561 71.4003 31.4744 71.7578 31.4744C72.1342 31.4744 72.4432 31.5632 72.6847 31.7408C72.9285 31.916 73.1108 32.1574 73.2315 32.4652H73.2777C73.4008 32.1622 73.6009 31.9219 73.8778 31.7443C74.1572 31.5644 74.4957 31.4744 74.8935 31.4744C75.4001 31.4744 75.8002 31.6342 76.0938 31.9538C76.3873 32.2711 76.5341 32.7351 76.5341 33.3459V37H75.902V33.3459C75.902 32.915 75.7919 32.5919 75.5717 32.3764C75.3516 32.161 75.0616 32.0533 74.7017 32.0533C74.285 32.0533 73.9643 32.1811 73.7393 32.4368C73.5144 32.6925 73.402 33.0168 73.402 33.4098V37H72.7557V33.2891C72.7557 32.9197 72.6527 32.6214 72.4467 32.3942C72.2408 32.1669 71.9508 32.0533 71.5767 32.0533C71.3258 32.0533 71.0997 32.1148 70.8984 32.2379C70.6996 32.361 70.5421 32.5327 70.4261 32.7528C70.3125 32.9706 70.2557 33.2216 70.2557 33.5057V37H69.6236ZM80.4128 37.1136C79.9038 37.1136 79.4635 36.9953 79.0918 36.7585C78.7201 36.5194 78.4325 36.1892 78.2289 35.7678C78.0276 35.344 77.927 34.8563 77.927 34.3047C77.927 33.7554 78.0276 33.2678 78.2289 32.8416C78.4325 32.4131 78.713 32.0781 79.0705 31.8366C79.4303 31.5928 79.8458 31.4709 80.3169 31.4709C80.6129 31.4709 80.8981 31.5253 81.1728 31.6342C81.4474 31.7408 81.6936 31.9053 81.9114 32.1278C82.1316 32.348 82.3056 32.6262 82.4334 32.9624C82.5613 33.2962 82.6252 33.6915 82.6252 34.1484V34.4609H78.3638V33.9034H81.9789C81.9789 33.553 81.9078 33.2382 81.7658 32.9588C81.6261 32.6771 81.4308 32.4545 81.1799 32.2912C80.9313 32.1278 80.6436 32.0462 80.3169 32.0462C79.9713 32.0462 79.6671 32.1385 79.4043 32.3232C79.1415 32.5078 78.9355 32.7517 78.7864 33.0547C78.6396 33.3577 78.565 33.6892 78.5627 34.049V34.3828C78.5627 34.8161 78.6373 35.1948 78.7864 35.5192C78.9379 35.8411 79.1522 36.0909 79.4292 36.2685C79.7061 36.446 80.034 36.5348 80.4128 36.5348C80.6709 36.5348 80.897 36.4946 81.0911 36.4141C81.2876 36.3336 81.4521 36.2259 81.5847 36.0909C81.7196 35.9536 81.8214 35.8033 81.8901 35.6399L82.4902 35.8352C82.4074 36.0649 82.2712 36.2768 82.0819 36.4709C81.8948 36.665 81.6605 36.8213 81.3787 36.9396C81.0994 37.0556 80.7774 37.1136 80.4128 37.1136ZM10.8656 49.1136C10.3779 49.1136 9.95295 48.9917 9.59073 48.7479C9.23088 48.504 8.95153 48.1702 8.75266 47.7464C8.5538 47.3227 8.45437 46.8397 8.45437 46.2976C8.45437 45.7507 8.55498 45.2642 8.75621 44.8381C8.95981 44.4119 9.24154 44.0781 9.60138 43.8366C9.96123 43.5928 10.3791 43.4709 10.8549 43.4709C11.2195 43.4709 11.5498 43.5419 11.8457 43.6839C12.1416 43.8236 12.3855 44.0213 12.5772 44.277C12.7714 44.5303 12.8933 44.8262 12.943 45.1648H12.3038C12.2375 44.857 12.0777 44.5942 11.8244 44.3764C11.5734 44.1562 11.2538 44.0462 10.8656 44.0462C10.5176 44.0462 10.2098 44.1409 9.94229 44.3303C9.67478 44.5173 9.46526 44.7789 9.31374 45.1151C9.1646 45.4489 9.09002 45.8359 9.09002 46.2763C9.09002 46.719 9.16341 47.1108 9.31019 47.4517C9.45697 47.7902 9.66294 48.0554 9.92809 48.2472C10.1956 48.4389 10.5081 48.5348 10.8656 48.5348C11.1071 48.5348 11.3272 48.4898 11.5261 48.3999C11.7273 48.3075 11.8954 48.1773 12.0304 48.0092C12.1677 47.8411 12.26 47.6411 12.3074 47.4091H12.9466C12.8992 47.7382 12.782 48.0317 12.595 48.2898C12.4103 48.5455 12.17 48.7467 11.8741 48.8935C11.5806 49.0402 11.2444 49.1136 10.8656 49.1136ZM16.4213 49.1136C15.9502 49.1136 15.5336 48.9941 15.1713 48.755C14.8115 48.5159 14.5298 48.1856 14.3262 47.7642C14.1226 47.3404 14.0208 46.8516 14.0208 46.2976C14.0208 45.7389 14.1226 45.2476 14.3262 44.8239C14.5298 44.3977 14.8115 44.0663 15.1713 43.8295C15.5336 43.5904 15.9502 43.4709 16.4213 43.4709C16.8925 43.4709 17.3079 43.5904 17.6678 43.8295C18.0276 44.0687 18.3094 44.4001 18.513 44.8239C18.7189 45.2476 18.8219 45.7389 18.8219 46.2976C18.8219 46.8516 18.7201 47.3404 18.5165 47.7642C18.3129 48.1856 18.03 48.5159 17.6678 48.755C17.3079 48.9941 16.8925 49.1136 16.4213 49.1136ZM16.4213 48.5348C16.8001 48.5348 17.1209 48.433 17.3837 48.2294C17.6465 48.0258 17.8453 47.7547 17.9803 47.4162C18.1176 47.0777 18.1863 46.7048 18.1863 46.2976C18.1863 45.8904 18.1176 45.5163 17.9803 45.1754C17.8453 44.8345 17.6465 44.5611 17.3837 44.3551C17.1209 44.1491 16.8001 44.0462 16.4213 44.0462C16.0449 44.0462 15.7241 44.1491 15.459 44.3551C15.1962 44.5611 14.9962 44.8345 14.8588 45.1754C14.7239 45.5163 14.6564 45.8904 14.6564 46.2976C14.6564 46.7048 14.7239 47.0777 14.8588 47.4162C14.9962 47.7547 15.1962 48.0258 15.459 48.2294C15.7218 48.433 16.0426 48.5348 16.4213 48.5348ZM23.6754 46.9155V43.5455H24.3075V49H23.6754V48.0945H23.6257C23.4979 48.3738 23.2955 48.607 23.0185 48.794C22.7415 48.9787 22.4029 49.071 22.0028 49.071C21.6548 49.071 21.3459 48.9953 21.076 48.8438C20.8061 48.6899 20.5942 48.465 20.4403 48.169C20.2865 47.8731 20.2095 47.5097 20.2095 47.0788V43.5455H20.8416V47.0398C20.8416 47.4659 20.9671 47.8092 21.218 48.0696C21.469 48.3277 21.791 48.4567 22.1839 48.4567C22.4302 48.4567 22.6669 48.3975 22.8942 48.2791C23.1214 48.1607 23.3085 47.9879 23.4553 47.7607C23.602 47.531 23.6754 47.2493 23.6754 46.9155ZM25.981 49V43.5455H26.5953V44.3835H26.6415C26.7504 44.1089 26.9398 43.8875 27.2097 43.7195C27.4819 43.549 27.7897 43.4638 28.133 43.4638C28.1851 43.4638 28.2431 43.465 28.307 43.4673C28.3709 43.4697 28.4242 43.4721 28.4668 43.4744V44.1172C28.4384 44.1125 28.3887 44.1054 28.3176 44.0959C28.2466 44.0864 28.1697 44.0817 28.0868 44.0817C27.8027 44.0817 27.5494 44.142 27.3269 44.2628C27.1067 44.3812 26.9327 44.5457 26.8049 44.7564C26.677 44.9671 26.6131 45.2074 26.6131 45.4773V49H25.981ZM33.2102 44.7422L32.6314 44.9055C32.5746 44.7422 32.4941 44.5942 32.3899 44.4616C32.2857 44.3291 32.1496 44.2237 31.9815 44.1456C31.8158 44.0675 31.6098 44.0284 31.3636 44.0284C30.9943 44.0284 30.6913 44.116 30.4545 44.2912C30.2178 44.4664 30.0994 44.6925 30.0994 44.9695C30.0994 45.2038 30.1799 45.3944 30.3409 45.5412C30.5043 45.6856 30.7552 45.8004 31.0938 45.8857L31.9176 46.0881C32.3745 46.1993 32.7166 46.3757 32.9439 46.6172C33.1735 46.8587 33.2884 47.1617 33.2884 47.5263C33.2884 47.834 33.2031 48.1075 33.0327 48.3466C32.8622 48.5857 32.6243 48.7739 32.3189 48.9112C32.0159 49.0462 31.6643 49.1136 31.2642 49.1136C30.7315 49.1136 30.2924 48.9941 29.9467 48.755C29.6011 48.5135 29.3797 48.1655 29.2827 47.7109L29.8899 47.5618C29.968 47.8861 30.1207 48.1312 30.348 48.2969C30.5777 48.4626 30.8795 48.5455 31.2536 48.5455C31.6726 48.5455 32.0076 48.4519 32.2585 48.2649C32.5095 48.0755 32.6349 47.8388 32.6349 47.5547C32.6349 47.3345 32.5616 47.1499 32.4148 47.0007C32.268 46.8492 32.0455 46.7379 31.7472 46.6669L30.8558 46.4538C30.3823 46.3402 30.032 46.1603 29.8047 45.9141C29.5774 45.6679 29.4638 45.3625 29.4638 44.9979C29.4638 44.6972 29.5455 44.4332 29.7088 44.206C29.8722 43.9763 30.0971 43.7964 30.3835 43.6662C30.67 43.536 30.9967 43.4709 31.3636 43.4709C31.8632 43.4709 32.2621 43.5845 32.5604 43.8118C32.861 44.0367 33.0777 44.3468 33.2102 44.7422ZM36.8777 49.1136C36.3687 49.1136 35.9283 48.9953 35.5566 48.7585C35.185 48.5194 34.8973 48.1892 34.6937 47.7678C34.4925 47.344 34.3919 46.8563 34.3919 46.3047C34.3919 45.7554 34.4925 45.2678 34.6937 44.8416C34.8973 44.4131 35.1779 44.0781 35.5353 43.8366C35.8952 43.5928 36.3107 43.4709 36.7818 43.4709C37.0777 43.4709 37.363 43.5253 37.6376 43.6342C37.9122 43.7408 38.1584 43.9053 38.3762 44.1278C38.5964 44.348 38.7704 44.6262 38.8983 44.9624C39.0261 45.2962 39.09 45.6915 39.09 46.1484V46.4609H34.8287V45.9034H38.4437C38.4437 45.553 38.3727 45.2382 38.2306 44.9588C38.091 44.6771 37.8957 44.4545 37.6447 44.2912C37.3961 44.1278 37.1085 44.0462 36.7818 44.0462C36.4361 44.0462 36.1319 44.1385 35.8691 44.3232C35.6064 44.5078 35.4004 44.7517 35.2512 45.0547C35.1045 45.3577 35.0299 45.6892 35.0275 46.049V46.3828C35.0275 46.8161 35.1021 47.1948 35.2512 47.5192C35.4028 47.8411 35.617 48.0909 35.894 48.2685C36.171 48.446 36.4989 48.5348 36.8777 48.5348C37.1357 48.5348 37.3618 48.4946 37.5559 48.4141C37.7524 48.3336 37.917 48.2259 38.0495 48.0909C38.1845 47.9536 38.2863 47.8033 38.3549 47.6399L38.9551 47.8352C38.8722 48.0649 38.7361 48.2768 38.5467 48.4709C38.3597 48.665 38.1253 48.8213 37.8436 48.9396C37.5642 49.0556 37.2422 49.1136 36.8777 49.1136ZM43.2955 49V43.5455H43.9098V44.3835H43.9666C44.0755 44.1018 44.2566 43.8804 44.5099 43.7195C44.7656 43.5561 45.0722 43.4744 45.4297 43.4744C45.8061 43.4744 46.1151 43.5632 46.3565 43.7408C46.6004 43.916 46.7827 44.1574 46.9034 44.4652H46.9496C47.0727 44.1622 47.2727 43.9219 47.5497 43.7443C47.8291 43.5644 48.1676 43.4744 48.5653 43.4744C49.072 43.4744 49.4721 43.6342 49.7656 43.9538C50.0592 44.2711 50.206 44.7351 50.206 45.3459V49H49.5739V45.3459C49.5739 44.915 49.4638 44.5919 49.2436 44.3764C49.0234 44.161 48.7334 44.0533 48.3736 44.0533C47.9569 44.0533 47.6361 44.1811 47.4112 44.4368C47.1863 44.6925 47.0739 45.0168 47.0739 45.4098V49H46.4276V45.2891C46.4276 44.9197 46.3246 44.6214 46.1186 44.3942C45.9126 44.1669 45.6226 44.0533 45.2486 44.0533C44.9976 44.0533 44.7715 44.1148 44.5703 44.2379C44.3714 44.361 44.214 44.5327 44.098 44.7528C43.9844 44.9706 43.9276 45.2216 43.9276 45.5057V49H43.2955ZM53.9995 49.1136C53.5283 49.1136 53.1117 48.9941 52.7495 48.755C52.3896 48.5159 52.1079 48.1856 51.9043 47.7642C51.7007 47.3404 51.5989 46.8516 51.5989 46.2976C51.5989 45.7389 51.7007 45.2476 51.9043 44.8239C52.1079 44.3977 52.3896 44.0663 52.7495 43.8295C53.1117 43.5904 53.5283 43.4709 53.9995 43.4709C54.4706 43.4709 54.8861 43.5904 55.2459 43.8295C55.6058 44.0687 55.8875 44.4001 56.0911 44.8239C56.2971 45.2476 56.4 45.7389 56.4 46.2976C56.4 46.8516 56.2982 47.3404 56.0946 47.7642C55.891 48.1856 55.6081 48.5159 55.2459 48.755C54.8861 48.9941 54.4706 49.1136 53.9995 49.1136ZM53.9995 48.5348C54.3783 48.5348 54.699 48.433 54.9618 48.2294C55.2246 48.0258 55.4235 47.7547 55.5584 47.4162C55.6957 47.0777 55.7644 46.7048 55.7644 46.2976C55.7644 45.8904 55.6957 45.5163 55.5584 45.1754C55.4235 44.8345 55.2246 44.5611 54.9618 44.3551C54.699 44.1491 54.3783 44.0462 53.9995 44.0462C53.623 44.0462 53.3023 44.1491 53.0371 44.3551C52.7743 44.5611 52.5743 44.8345 52.437 45.1754C52.302 45.5163 52.2346 45.8904 52.2346 46.2976C52.2346 46.7048 52.302 47.0777 52.437 47.4162C52.5743 47.7547 52.7743 48.0258 53.0371 48.2294C53.2999 48.433 53.6207 48.5348 53.9995 48.5348ZM59.7514 49.1136C59.304 49.1136 58.9122 48.9953 58.576 48.7585C58.2398 48.5218 57.977 48.1915 57.7876 47.7678C57.6006 47.344 57.5071 46.8504 57.5071 46.2869C57.5071 45.7259 57.6006 45.2346 57.7876 44.8132C57.977 44.3894 58.241 44.0604 58.5795 43.826C58.9181 43.5893 59.3123 43.4709 59.7621 43.4709C60.0935 43.4709 60.3693 43.5301 60.5895 43.6484C60.8097 43.7644 60.986 43.9089 61.1186 44.0817C61.2512 44.2545 61.3542 44.4226 61.4276 44.5859H61.4844V41.7273H62.12V49H61.5021V47.9879H61.4276C61.3542 48.1536 61.25 48.3241 61.1151 48.4993C60.9801 48.6721 60.8014 48.8177 60.5788 48.9361C60.3587 49.0545 60.0829 49.1136 59.7514 49.1136ZM59.826 48.5348C60.1787 48.5348 60.4794 48.4389 60.728 48.2472C60.9766 48.053 61.166 47.7867 61.2962 47.4482C61.4287 47.1072 61.495 46.7166 61.495 46.2763C61.495 45.8407 61.4299 45.456 61.2997 45.1222C61.1695 44.786 60.9801 44.5232 60.7315 44.3338C60.483 44.142 60.1811 44.0462 59.826 44.0462C59.4614 44.0462 59.1536 44.1456 58.9027 44.3445C58.6541 44.541 58.4647 44.8073 58.3345 45.1435C58.2067 45.4796 58.1428 45.8572 58.1428 46.2763C58.1428 46.7 58.2079 47.0824 58.3381 47.4233C58.4683 47.7642 58.6577 48.0353 58.9062 48.2365C59.1572 48.4354 59.4638 48.5348 59.826 48.5348ZM67.3864 46.9155V43.5455H68.0185V49H67.3864V48.0945H67.3366C67.2088 48.3738 67.0064 48.607 66.7294 48.794C66.4524 48.9787 66.1139 49.071 65.7138 49.071C65.3658 49.071 65.0568 48.9953 64.7869 48.8438C64.517 48.6899 64.3052 48.465 64.1513 48.169C63.9974 47.8731 63.9205 47.5097 63.9205 47.0788V43.5455H64.5526V47.0398C64.5526 47.4659 64.678 47.8092 64.929 48.0696C65.1799 48.3277 65.5019 48.4567 65.8949 48.4567C66.1411 48.4567 66.3778 48.3975 66.6051 48.2791C66.8324 48.1607 67.0194 47.9879 67.1662 47.7607C67.313 47.531 67.3864 47.2493 67.3864 46.9155ZM70.324 41.7273V49H69.6919V41.7273H70.324ZM74.2019 49.1136C73.6929 49.1136 73.2525 48.9953 72.8809 48.7585C72.5092 48.5194 72.2215 48.1892 72.0179 47.7678C71.8167 47.344 71.7161 46.8563 71.7161 46.3047C71.7161 45.7554 71.8167 45.2678 72.0179 44.8416C72.2215 44.4131 72.5021 44.0781 72.8596 43.8366C73.2194 43.5928 73.6349 43.4709 74.106 43.4709C74.4019 43.4709 74.6872 43.5253 74.9618 43.6342C75.2364 43.7408 75.4827 43.9053 75.7005 44.1278C75.9206 44.348 76.0946 44.6262 76.2225 44.9624C76.3503 45.2962 76.4142 45.6915 76.4142 46.1484V46.4609H72.1529V45.9034H75.7679C75.7679 45.553 75.6969 45.2382 75.5549 44.9588C75.4152 44.6771 75.2199 44.4545 74.9689 44.2912C74.7203 44.1278 74.4327 44.0462 74.106 44.0462C73.7604 44.0462 73.4561 44.1385 73.1934 44.3232C72.9306 44.5078 72.7246 44.7517 72.5755 45.0547C72.4287 45.3577 72.3541 45.6892 72.3517 46.049V46.3828C72.3517 46.8161 72.4263 47.1948 72.5755 47.5192C72.727 47.8411 72.9412 48.0909 73.2182 48.2685C73.4952 48.446 73.8231 48.5348 74.2019 48.5348C74.4599 48.5348 74.686 48.4946 74.8801 48.4141C75.0766 48.3336 75.2412 48.2259 75.3738 48.0909C75.5087 47.9536 75.6105 47.8033 75.6792 47.6399L76.2793 47.8352C76.1964 48.0649 76.0603 48.2768 75.8709 48.4709C75.6839 48.665 75.4495 48.8213 75.1678 48.9396C74.8884 49.0556 74.5665 49.1136 74.2019 49.1136ZM81.4719 44.7422L80.8931 44.9055C80.8363 44.7422 80.7558 44.5942 80.6516 44.4616C80.5475 44.3291 80.4113 44.2237 80.2433 44.1456C80.0775 44.0675 79.8716 44.0284 79.6254 44.0284C79.256 44.0284 78.953 44.116 78.7163 44.2912C78.4795 44.4664 78.3612 44.6925 78.3612 44.9695C78.3612 45.2038 78.4416 45.3944 78.6026 45.5412C78.766 45.6856 79.0169 45.8004 79.3555 45.8857L80.1793 46.0881C80.6362 46.1993 80.9783 46.3757 81.2056 46.6172C81.4353 46.8587 81.5501 47.1617 81.5501 47.5263C81.5501 47.834 81.4648 48.1075 81.2944 48.3466C81.1239 48.5857 80.886 48.7739 80.5806 48.9112C80.2776 49.0462 79.926 49.1136 79.5259 49.1136C78.9933 49.1136 78.5541 48.9941 78.2085 48.755C77.8628 48.5135 77.6415 48.1655 77.5444 47.7109L78.1516 47.5618C78.2298 47.8861 78.3825 48.1312 78.6097 48.2969C78.8394 48.4626 79.1412 48.5455 79.5153 48.5455C79.9343 48.5455 80.2693 48.4519 80.5202 48.2649C80.7712 48.0755 80.8967 47.8388 80.8967 47.5547C80.8967 47.3345 80.8233 47.1499 80.6765 47.0007C80.5297 46.8492 80.3072 46.7379 80.0089 46.6669L79.1175 46.4538C78.6441 46.3402 78.2937 46.1603 78.0664 45.9141C77.8391 45.6679 77.7255 45.3625 77.7255 44.9979C77.7255 44.6972 77.8072 44.4332 77.9705 44.206C78.1339 43.9763 78.3588 43.7964 78.6452 43.6662C78.9317 43.536 79.2584 43.4709 79.6254 43.4709C80.1249 43.4709 80.5238 43.5845 80.8221 43.8118C81.1228 44.0367 81.3394 44.3468 81.4719 44.7422ZM16.3814 55.5455V56.0959H13.7784V55.5455H16.3814ZM14.5916 54.2386H15.2273V59.576C15.2273 59.8033 15.2663 59.982 15.3445 60.1122C15.4226 60.2401 15.5244 60.3312 15.6499 60.3857C15.7753 60.4377 15.9091 60.4638 16.0511 60.4638C16.134 60.4638 16.205 60.459 16.2642 60.4496C16.3234 60.4377 16.3755 60.4259 16.4205 60.4141L16.5554 60.9858C16.4938 61.0095 16.4181 61.0308 16.3281 61.0497C16.2382 61.071 16.1269 61.0817 15.9943 61.0817C15.7623 61.0817 15.5386 61.0308 15.3232 60.929C15.1101 60.8272 14.9349 60.6757 14.7976 60.4744C14.6603 60.2732 14.5916 60.0234 14.5916 59.7251V54.2386ZM19.8784 61.1136C19.4073 61.1136 18.9906 60.9941 18.6284 60.755C18.2685 60.5159 17.9868 60.1856 17.7832 59.7642C17.5796 59.3404 17.4778 58.8516 17.4778 58.2976C17.4778 57.7389 17.5796 57.2476 17.7832 56.8239C17.9868 56.3977 18.2685 56.0663 18.6284 55.8295C18.9906 55.5904 19.4073 55.4709 19.8784 55.4709C20.3495 55.4709 20.765 55.5904 21.1248 55.8295C21.4847 56.0687 21.7664 56.4001 21.97 56.8239C22.176 57.2476 22.2789 57.7389 22.2789 58.2976C22.2789 58.8516 22.1771 59.3404 21.9735 59.7642C21.7699 60.1856 21.487 60.5159 21.1248 60.755C20.765 60.9941 20.3495 61.1136 19.8784 61.1136ZM19.8784 60.5348C20.2572 60.5348 20.5779 60.433 20.8407 60.2294C21.1035 60.0258 21.3024 59.7547 21.4373 59.4162C21.5746 59.0777 21.6433 58.7048 21.6433 58.2976C21.6433 57.8904 21.5746 57.5163 21.4373 57.1754C21.3024 56.8345 21.1035 56.5611 20.8407 56.3551C20.5779 56.1491 20.2572 56.0462 19.8784 56.0462C19.502 56.0462 19.1812 56.1491 18.916 56.3551C18.6532 56.5611 18.4532 56.8345 18.3159 57.1754C18.1809 57.5163 18.1135 57.8904 18.1135 58.2976C18.1135 58.7048 18.1809 59.0777 18.3159 59.4162C18.4532 59.7547 18.6532 60.0258 18.916 60.2294C19.1788 60.433 19.4996 60.5348 19.8784 60.5348ZM26.479 61V55.5455H27.0934V56.3835H27.1502C27.2591 56.1018 27.4402 55.8804 27.6935 55.7195C27.9492 55.5561 28.2558 55.4744 28.6133 55.4744C28.9897 55.4744 29.2987 55.5632 29.5401 55.7408C29.784 55.916 29.9663 56.1574 30.087 56.4652H30.1332C30.2563 56.1622 30.4563 55.9219 30.7333 55.7443C31.0127 55.5644 31.3512 55.4744 31.7489 55.4744C32.2556 55.4744 32.6557 55.6342 32.9492 55.9538C33.2428 56.2711 33.3896 56.7351 33.3896 57.3459V61H32.7575V57.3459C32.7575 56.915 32.6474 56.5919 32.4272 56.3764C32.207 56.161 31.917 56.0533 31.5572 56.0533C31.1405 56.0533 30.8197 56.1811 30.5948 56.4368C30.3699 56.6925 30.2575 57.0168 30.2575 57.4098V61H29.6112V57.2891C29.6112 56.9197 29.5082 56.6214 29.3022 56.3942C29.0962 56.1669 28.8062 56.0533 28.4322 56.0533C28.1812 56.0533 27.9551 56.1148 27.7539 56.2379C27.555 56.361 27.3976 56.5327 27.2816 56.7528C27.168 56.9706 27.1112 57.2216 27.1112 57.5057V61H26.479ZM37.2683 61.1136C36.7593 61.1136 36.319 60.9953 35.9473 60.7585C35.5756 60.5194 35.2879 60.1892 35.0843 59.7678C34.8831 59.344 34.7825 58.8563 34.7825 58.3047C34.7825 57.7554 34.8831 57.2678 35.0843 56.8416C35.2879 56.4131 35.5685 56.0781 35.926 55.8366C36.2858 55.5928 36.7013 55.4709 37.1724 55.4709C37.4683 55.4709 37.7536 55.5253 38.0282 55.6342C38.3029 55.7408 38.5491 55.9053 38.7669 56.1278C38.987 56.348 39.161 56.6262 39.2889 56.9624C39.4167 57.2962 39.4806 57.6915 39.4806 58.1484V58.4609H35.2193V57.9034H38.8343C38.8343 57.553 38.7633 57.2382 38.6213 56.9588C38.4816 56.6771 38.2863 56.4545 38.0353 56.2912C37.7868 56.1278 37.4991 56.0462 37.1724 56.0462C36.8268 56.0462 36.5225 56.1385 36.2598 56.3232C35.997 56.5078 35.791 56.7517 35.6419 57.0547C35.4951 57.3577 35.4205 57.6892 35.4181 58.049V58.3828C35.4181 58.8161 35.4927 59.1948 35.6419 59.5192C35.7934 59.8411 36.0076 60.0909 36.2846 60.2685C36.5616 60.446 36.8895 60.5348 37.2683 60.5348C37.5263 60.5348 37.7524 60.4946 37.9466 60.4141C38.1431 60.3336 38.3076 60.2259 38.4402 60.0909C38.5751 59.9536 38.6769 59.8033 38.7456 59.6399L39.3457 59.8352C39.2628 60.0649 39.1267 60.2768 38.9373 60.4709C38.7503 60.665 38.5159 60.8213 38.2342 60.9396C37.9548 61.0556 37.6329 61.1136 37.2683 61.1136ZM43.0788 61.1136C42.5698 61.1136 42.1295 60.9953 41.7578 60.7585C41.3861 60.5194 41.0985 60.1892 40.8949 59.7678C40.6937 59.344 40.593 58.8563 40.593 58.3047C40.593 57.7554 40.6937 57.2678 40.8949 56.8416C41.0985 56.4131 41.379 56.0781 41.7365 55.8366C42.0964 55.5928 42.5118 55.4709 42.983 55.4709C43.2789 55.4709 43.5642 55.5253 43.8388 55.6342C44.1134 55.7408 44.3596 55.9053 44.5774 56.1278C44.7976 56.348 44.9716 56.6262 45.0994 56.9624C45.2273 57.2962 45.2912 57.6915 45.2912 58.1484V58.4609H41.0298V57.9034H44.6449C44.6449 57.553 44.5739 57.2382 44.4318 56.9588C44.2921 56.6771 44.0968 56.4545 43.8459 56.2912C43.5973 56.1278 43.3097 56.0462 42.983 56.0462C42.6373 56.0462 42.3331 56.1385 42.0703 56.3232C41.8075 56.5078 41.6016 56.7517 41.4524 57.0547C41.3056 57.3577 41.2311 57.6892 41.2287 58.049V58.3828C41.2287 58.8161 41.3033 59.1948 41.4524 59.5192C41.6039 59.8411 41.8182 60.0909 42.0952 60.2685C42.3722 60.446 42.7 60.5348 43.0788 60.5348C43.3369 60.5348 43.563 60.4946 43.7571 60.4141C43.9536 60.3336 44.1181 60.2259 44.2507 60.0909C44.3857 59.9536 44.4875 59.8033 44.5561 59.6399L45.1562 59.8352C45.0734 60.0649 44.9373 60.2768 44.7479 60.4709C44.5608 60.665 44.3265 60.8213 44.0447 60.9396C43.7654 61.0556 43.4434 61.1136 43.0788 61.1136ZM48.8326 55.5455V56.0959H46.2296V55.5455H48.8326ZM47.0428 54.2386H47.6784V59.576C47.6784 59.8033 47.7175 59.982 47.7956 60.1122C47.8738 60.2401 47.9756 60.3312 48.101 60.3857C48.2265 60.4377 48.3603 60.4638 48.5023 60.4638C48.5852 60.4638 48.6562 60.459 48.7154 60.4496C48.7746 60.4377 48.8266 60.4259 48.8716 60.4141L49.0066 60.9858C48.945 61.0095 48.8693 61.0308 48.7793 61.0497C48.6893 61.071 48.5781 61.0817 48.4455 61.0817C48.2135 61.0817 47.9898 61.0308 47.7743 60.929C47.5613 60.8272 47.3861 60.6757 47.2488 60.4744C47.1114 60.2732 47.0428 60.0234 47.0428 59.7251V54.2386ZM56.7454 56.7422L56.1665 56.9055C56.1097 56.7422 56.0292 56.5942 55.9251 56.4616C55.8209 56.3291 55.6848 56.2237 55.5167 56.1456C55.351 56.0675 55.145 56.0284 54.8988 56.0284C54.5295 56.0284 54.2264 56.116 53.9897 56.2912C53.753 56.4664 53.6346 56.6925 53.6346 56.9695C53.6346 57.2038 53.7151 57.3944 53.8761 57.5412C54.0394 57.6856 54.2904 57.8004 54.6289 57.8857L55.4528 58.0881C55.9097 58.1993 56.2518 58.3757 56.479 58.6172C56.7087 58.8587 56.8235 59.1617 56.8235 59.5263C56.8235 59.834 56.7383 60.1075 56.5678 60.3466C56.3974 60.5857 56.1594 60.7739 55.854 60.9112C55.551 61.0462 55.1995 61.1136 54.7994 61.1136C54.2667 61.1136 53.8275 60.9941 53.4819 60.755C53.1362 60.5135 52.9149 60.1655 52.8178 59.7109L53.4251 59.5618C53.5032 59.8861 53.6559 60.1312 53.8832 60.2969C54.1128 60.4626 54.4147 60.5455 54.7887 60.5455C55.2077 60.5455 55.5427 60.4519 55.7937 60.2649C56.0446 60.0755 56.1701 59.8388 56.1701 59.5547C56.1701 59.3345 56.0967 59.1499 55.9499 59.0007C55.8031 58.8492 55.5806 58.7379 55.2823 58.6669L54.391 58.4538C53.9175 58.3402 53.5671 58.1603 53.3398 57.9141C53.1126 57.6679 52.9989 57.3625 52.9989 56.9979C52.9989 56.6972 53.0806 56.4332 53.244 56.206C53.4073 55.9763 53.6322 55.7964 53.9187 55.6662C54.2051 55.536 54.5318 55.4709 54.8988 55.4709C55.3983 55.4709 55.7972 55.5845 56.0955 55.8118C56.3962 56.0367 56.6128 56.3468 56.7454 56.7422ZM58.8397 57.5909V61H58.2076V53.7273H58.8397V56.4013H58.8965C59.0243 56.1196 59.222 55.8946 59.4895 55.7266C59.7594 55.5585 60.1003 55.4744 60.5123 55.4744C60.8816 55.4744 61.2059 55.5502 61.4853 55.7017C61.7646 55.8532 61.9824 56.0769 62.1387 56.3729C62.2949 56.6688 62.373 57.0334 62.373 57.4666V61H61.7374V57.5057C61.7374 57.0559 61.6119 56.7019 61.361 56.4439C61.1124 56.1835 60.7762 56.0533 60.3525 56.0533C60.0613 56.0533 59.802 56.1148 59.5748 56.2379C59.3475 56.361 59.1676 56.5386 59.035 56.7706C58.9048 57.0002 58.8397 57.2737 58.8397 57.5909ZM66.1577 61.1136C65.6866 61.1136 65.2699 60.9941 64.9077 60.755C64.5478 60.5159 64.2661 60.1856 64.0625 59.7642C63.8589 59.3404 63.7571 58.8516 63.7571 58.2976C63.7571 57.7389 63.8589 57.2476 64.0625 56.8239C64.2661 56.3977 64.5478 56.0663 64.9077 55.8295C65.2699 55.5904 65.6866 55.4709 66.1577 55.4709C66.6288 55.4709 67.0443 55.5904 67.4041 55.8295C67.764 56.0687 68.0457 56.4001 68.2493 56.8239C68.4553 57.2476 68.5582 57.7389 68.5582 58.2976C68.5582 58.8516 68.4564 59.3404 68.2528 59.7642C68.0492 60.1856 67.7663 60.5159 67.4041 60.755C67.0443 60.9941 66.6288 61.1136 66.1577 61.1136ZM66.1577 60.5348C66.5365 60.5348 66.8572 60.433 67.12 60.2294C67.3828 60.0258 67.5817 59.7547 67.7166 59.4162C67.8539 59.0777 67.9226 58.7048 67.9226 58.2976C67.9226 57.8904 67.8539 57.5163 67.7166 57.1754C67.5817 56.8345 67.3828 56.5611 67.12 56.3551C66.8572 56.1491 66.5365 56.0462 66.1577 56.0462C65.7813 56.0462 65.4605 56.1491 65.1953 56.3551C64.9325 56.5611 64.7325 56.8345 64.5952 57.1754C64.4602 57.5163 64.3928 57.8904 64.3928 58.2976C64.3928 58.7048 64.4602 59.0777 64.5952 59.4162C64.7325 59.7547 64.9325 60.0258 65.1953 60.2294C65.4581 60.433 65.7789 60.5348 66.1577 60.5348ZM69.9458 61V55.5455H70.5602V56.3835H70.6064C70.7153 56.1089 70.9047 55.8875 71.1745 55.7195C71.4468 55.549 71.7546 55.4638 72.0978 55.4638C72.1499 55.4638 72.2079 55.465 72.2718 55.4673C72.3358 55.4697 72.389 55.4721 72.4316 55.4744V56.1172C72.4032 56.1125 72.3535 56.1054 72.2825 56.0959C72.2115 56.0864 72.1345 56.0817 72.0517 56.0817C71.7676 56.0817 71.5143 56.142 71.2917 56.2628C71.0716 56.3812 70.8975 56.5457 70.7697 56.7564C70.6419 56.9671 70.5779 57.2074 70.5779 57.4773V61H69.9458ZM76.0005 55.5455V56.0959H73.3975V55.5455H76.0005ZM74.2108 54.2386H74.8464V59.576C74.8464 59.8033 74.8855 59.982 74.9636 60.1122C75.0417 60.2401 75.1435 60.3312 75.269 60.3857C75.3945 60.4377 75.5282 60.4638 75.6703 60.4638C75.7531 60.4638 75.8242 60.459 75.8833 60.4496C75.9425 60.4377 75.9946 60.4259 76.0396 60.4141L76.1745 60.9858C76.113 61.0095 76.0372 61.0308 75.9473 61.0497C75.8573 61.071 75.746 61.0817 75.6135 61.0817C75.3815 61.0817 75.1577 61.0308 74.9423 60.929C74.7292 60.8272 74.554 60.6757 74.4167 60.4744C74.2794 60.2732 74.2108 60.0234 74.2108 59.7251V54.2386ZM21.4986 67.5455V68.0959H18.8956V67.5455H21.4986ZM19.7088 66.2386H20.3445V71.576C20.3445 71.8033 20.3835 71.982 20.4616 72.1122C20.5398 72.2401 20.6416 72.3312 20.767 72.3857C20.8925 72.4377 21.0263 72.4638 21.1683 72.4638C21.2512 72.4638 21.3222 72.459 21.3814 72.4496C21.4406 72.4377 21.4927 72.4259 21.5376 72.4141L21.6726 72.9858C21.611 73.0095 21.5353 73.0308 21.4453 73.0497C21.3554 73.071 21.2441 73.0817 21.1115 73.0817C20.8795 73.0817 20.6558 73.0308 20.4403 72.929C20.2273 72.8272 20.0521 72.6757 19.9148 72.4744C19.7775 72.2732 19.7088 72.0234 19.7088 71.7251V66.2386ZM25.0808 73.1136C24.5718 73.1136 24.1315 72.9953 23.7598 72.7585C23.3881 72.5194 23.1004 72.1892 22.8968 71.7678C22.6956 71.344 22.595 70.8563 22.595 70.3047C22.595 69.7554 22.6956 69.2678 22.8968 68.8416C23.1004 68.4131 23.381 68.0781 23.7385 67.8366C24.0983 67.5928 24.5138 67.4709 24.9849 67.4709C25.2808 67.4709 25.5661 67.5253 25.8407 67.6342C26.1154 67.7408 26.3616 67.9053 26.5794 68.1278C26.7995 68.348 26.9735 68.6262 27.1014 68.9624C27.2292 69.2962 27.2931 69.6915 27.2931 70.1484V70.4609H23.0318V69.9034H26.6468C26.6468 69.553 26.5758 69.2382 26.4338 68.9588C26.2941 68.6771 26.0988 68.4545 25.8478 68.2912C25.5993 68.1278 25.3116 68.0462 24.9849 68.0462C24.6393 68.0462 24.335 68.1385 24.0723 68.3232C23.8095 68.5078 23.6035 68.7517 23.4544 69.0547C23.3076 69.3577 23.233 69.6892 23.2306 70.049V70.3828C23.2306 70.8161 23.3052 71.1948 23.4544 71.5192C23.6059 71.8411 23.8201 72.0909 24.0971 72.2685C24.3741 72.446 24.702 72.5348 25.0808 72.5348C25.3388 72.5348 25.5649 72.4946 25.7591 72.4141C25.9556 72.3336 26.1201 72.2259 26.2527 72.0909C26.3876 71.9536 26.4894 71.8033 26.5581 71.6399L27.1582 71.8352C27.0753 72.0649 26.9392 72.2768 26.7498 72.4709C26.5628 72.665 26.3284 72.8213 26.0467 72.9396C25.7673 73.0556 25.4454 73.1136 25.0808 73.1136ZM28.6861 73V67.5455H29.3004V68.3835H29.3466C29.4555 68.1089 29.6449 67.8875 29.9148 67.7195C30.187 67.549 30.4948 67.4638 30.8381 67.4638C30.8902 67.4638 30.9482 67.465 31.0121 67.4673C31.076 67.4697 31.1293 67.4721 31.1719 67.4744V68.1172C31.1435 68.1125 31.0938 68.1054 31.0227 68.0959C30.9517 68.0864 30.8748 68.0817 30.7919 68.0817C30.5078 68.0817 30.2545 68.142 30.032 68.2628C29.8118 68.3812 29.6378 68.5457 29.5099 68.7564C29.3821 68.9671 29.3182 69.2074 29.3182 69.4773V73H28.6861ZM32.2505 73V67.5455H32.8649V68.3835H32.9217C33.0306 68.1018 33.2117 67.8804 33.465 67.7195C33.7207 67.5561 34.0273 67.4744 34.3848 67.4744C34.7612 67.4744 35.0701 67.5632 35.3116 67.7408C35.5555 67.916 35.7377 68.1574 35.8585 68.4652H35.9047C36.0278 68.1622 36.2278 67.9219 36.5048 67.7443C36.7842 67.5644 37.1227 67.4744 37.5204 67.4744C38.027 67.4744 38.4271 67.6342 38.7207 67.9538C39.0143 68.2711 39.161 68.7351 39.161 69.3459V73H38.5289V69.3459C38.5289 68.915 38.4189 68.5919 38.1987 68.3764C37.9785 68.161 37.6885 68.0533 37.3287 68.0533C36.912 68.0533 36.5912 68.1811 36.3663 68.4368C36.1414 68.6925 36.0289 69.0168 36.0289 69.4098V73H35.3826V69.2891C35.3826 68.9197 35.2797 68.6214 35.0737 68.3942C34.8677 68.1669 34.5777 68.0533 34.2037 68.0533C33.9527 68.0533 33.7266 68.1148 33.5254 68.2379C33.3265 68.361 33.1691 68.5327 33.0531 68.7528C32.9395 68.9706 32.8826 69.2216 32.8826 69.5057V73H32.2505ZM44.2791 69.5909V73H43.647V67.5455H44.2614V68.4013H44.3182C44.446 68.1219 44.6449 67.8982 44.9148 67.7301C45.187 67.5597 45.5232 67.4744 45.9233 67.4744C46.2902 67.4744 46.6122 67.5514 46.8892 67.7053C47.1686 67.8568 47.3852 68.0805 47.5391 68.3764C47.6953 68.6723 47.7734 69.0357 47.7734 69.4666V73H47.1413V69.5057C47.1413 69.0582 47.0159 68.7043 46.7649 68.4439C46.5163 68.1835 46.1825 68.0533 45.7635 68.0533C45.477 68.0533 45.2225 68.1148 45 68.2379C44.7775 68.361 44.6011 68.5386 44.4709 68.7706C44.343 69.0002 44.2791 69.2737 44.2791 69.5909ZM51.6433 73.1136C51.1343 73.1136 50.694 72.9953 50.3223 72.7585C49.9506 72.5194 49.6629 72.1892 49.4593 71.7678C49.2581 71.344 49.1575 70.8563 49.1575 70.3047C49.1575 69.7554 49.2581 69.2678 49.4593 68.8416C49.6629 68.4131 49.9435 68.0781 50.301 67.8366C50.6608 67.5928 51.0763 67.4709 51.5474 67.4709C51.8433 67.4709 52.1286 67.5253 52.4032 67.6342C52.6779 67.7408 52.9241 67.9053 53.1419 68.1278C53.362 68.348 53.536 68.6262 53.6639 68.9624C53.7917 69.2962 53.8556 69.6915 53.8556 70.1484V70.4609H49.5943V69.9034H53.2093C53.2093 69.553 53.1383 69.2382 52.9963 68.9588C52.8566 68.6771 52.6613 68.4545 52.4103 68.2912C52.1618 68.1278 51.8741 68.0462 51.5474 68.0462C51.2018 68.0462 50.8975 68.1385 50.6348 68.3232C50.372 68.5078 50.166 68.7517 50.0169 69.0547C49.8701 69.3577 49.7955 69.6892 49.7931 70.049V70.3828C49.7931 70.8161 49.8677 71.1948 50.0169 71.5192C50.1684 71.8411 50.3826 72.0909 50.6596 72.2685C50.9366 72.446 51.2645 72.5348 51.6433 72.5348C51.9013 72.5348 52.1274 72.4946 52.3216 72.4141C52.5181 72.3336 52.6826 72.2259 52.8152 72.0909C52.9501 71.9536 53.0519 71.8033 53.1206 71.6399L53.7207 71.8352C53.6378 72.0649 53.5017 72.2768 53.3123 72.4709C53.1253 72.665 52.8909 72.8213 52.6092 72.9396C52.3298 73.0556 52.0079 73.1136 51.6433 73.1136ZM57.4538 73.1136C56.9448 73.1136 56.5045 72.9953 56.1328 72.7585C55.7611 72.5194 55.4735 72.1892 55.2699 71.7678C55.0687 71.344 54.968 70.8563 54.968 70.3047C54.968 69.7554 55.0687 69.2678 55.2699 68.8416C55.4735 68.4131 55.754 68.0781 56.1115 67.8366C56.4714 67.5928 56.8868 67.4709 57.358 67.4709C57.6539 67.4709 57.9392 67.5253 58.2138 67.6342C58.4884 67.7408 58.7346 67.9053 58.9524 68.1278C59.1726 68.348 59.3466 68.6262 59.4744 68.9624C59.6023 69.2962 59.6662 69.6915 59.6662 70.1484V70.4609H55.4048V69.9034H59.0199C59.0199 69.553 58.9489 69.2382 58.8068 68.9588C58.6671 68.6771 58.4718 68.4545 58.2209 68.2912C57.9723 68.1278 57.6847 68.0462 57.358 68.0462C57.0123 68.0462 56.7081 68.1385 56.4453 68.3232C56.1825 68.5078 55.9766 68.7517 55.8274 69.0547C55.6806 69.3577 55.6061 69.6892 55.6037 70.049V70.3828C55.6037 70.8161 55.6783 71.1948 55.8274 71.5192C55.9789 71.8411 56.1932 72.0909 56.4702 72.2685C56.7472 72.446 57.075 72.5348 57.4538 72.5348C57.7119 72.5348 57.938 72.4946 58.1321 72.4141C58.3286 72.3336 58.4931 72.2259 58.6257 72.0909C58.7607 71.9536 58.8625 71.8033 58.9311 71.6399L59.5312 71.8352C59.4484 72.0649 59.3123 72.2768 59.1229 72.4709C58.9358 72.665 58.7015 72.8213 58.4197 72.9396C58.1404 73.0556 57.8184 73.1136 57.4538 73.1136ZM63.0229 73.1136C62.5755 73.1136 62.1837 72.9953 61.8475 72.7585C61.5113 72.5218 61.2485 72.1915 61.0591 71.7678C60.8721 71.344 60.7786 70.8504 60.7786 70.2869C60.7786 69.7259 60.8721 69.2346 61.0591 68.8132C61.2485 68.3894 61.5125 68.0604 61.851 67.826C62.1896 67.5893 62.5837 67.4709 63.0336 67.4709C63.365 67.4709 63.6408 67.5301 63.861 67.6484C64.0811 67.7644 64.2575 67.9089 64.3901 68.0817C64.5227 68.2545 64.6257 68.4226 64.699 68.5859H64.7559V65.7273H65.3915V73H64.7736V71.9879H64.699C64.6257 72.1536 64.5215 72.3241 64.3865 72.4993C64.2516 72.6721 64.0729 72.8177 63.8503 72.9361C63.6301 73.0545 63.3543 73.1136 63.0229 73.1136ZM63.0975 72.5348C63.4502 72.5348 63.7509 72.4389 63.9995 72.2472C64.248 72.053 64.4374 71.7867 64.5676 71.4482C64.7002 71.1072 64.7665 70.7166 64.7665 70.2763C64.7665 69.8407 64.7014 69.456 64.5712 69.1222C64.441 68.786 64.2516 68.5232 64.003 68.3338C63.7544 68.142 63.4526 68.0462 63.0975 68.0462C62.7329 68.0462 62.4251 68.1456 62.1742 68.3445C61.9256 68.541 61.7362 68.8073 61.606 69.1435C61.4782 69.4796 61.4142 69.8572 61.4142 70.2763C61.4142 70.7 61.4793 71.0824 61.6096 71.4233C61.7398 71.7642 61.9292 72.0353 62.1777 72.2365C62.4287 72.4354 62.7353 72.5348 63.0975 72.5348ZM70.8567 68.7422L70.2779 68.9055C70.2211 68.7422 70.1406 68.5942 70.0364 68.4616C69.9322 68.3291 69.7961 68.2237 69.628 68.1456C69.4623 68.0675 69.2563 68.0284 69.0101 68.0284C68.6408 68.0284 68.3378 68.116 68.101 68.2912C67.8643 68.4664 67.7459 68.6925 67.7459 68.9695C67.7459 69.2038 67.8264 69.3944 67.9874 69.5412C68.1507 69.6856 68.4017 69.8004 68.7402 69.8857L69.5641 70.0881C70.021 70.1993 70.3631 70.3757 70.5904 70.6172C70.82 70.8587 70.9348 71.1617 70.9348 71.5263C70.9348 71.834 70.8496 72.1075 70.6792 72.3466C70.5087 72.5857 70.2708 72.7739 69.9654 72.9112C69.6623 73.0462 69.3108 73.1136 68.9107 73.1136C68.378 73.1136 67.9389 72.9941 67.5932 72.755C67.2476 72.5135 67.0262 72.1655 66.9292 71.7109L67.5364 71.5618C67.6145 71.8861 67.7672 72.1312 67.9945 72.2969C68.2241 72.4626 68.526 72.5455 68.9 72.5455C69.3191 72.5455 69.6541 72.4519 69.905 72.2649C70.156 72.0755 70.2814 71.8388 70.2814 71.5547C70.2814 71.3345 70.208 71.1499 70.0613 71.0007C69.9145 70.8492 69.6919 70.7379 69.3936 70.6669L68.5023 70.4538C68.0288 70.3402 67.6784 70.1603 67.4512 69.9141C67.2239 69.6679 67.1103 69.3625 67.1103 68.9979C67.1103 68.6972 67.1919 68.4332 67.3553 68.206C67.5186 67.9763 67.7435 67.7964 68.03 67.6662C68.3165 67.536 68.6432 67.4709 69.0101 67.4709C69.5096 67.4709 69.9086 67.5845 70.2069 67.8118C70.5075 68.0367 70.7241 68.3468 70.8567 68.7422Z" fill="#333333"/>
</svg>
