<svg width="124" height="124" viewBox="0 0 124 124" fill="none" xmlns="http://www.w3.org/2000/svg">
<path d="M111.419 25.6346C111.07 26.9191 111.841 28.7051 112.577 29.9926C112.806 30.3765 113.055 30.7484 113.322 31.107C119.635 40.6815 123 51.8981 123 63.3666C123.102 96.2861 95.8049 123 62.0497 123C32.6114 123 8.03845 102.606 2.29626 75.5344C1.43592 71.5207 1.00142 67.4275 1 63.3226C1 30.3563 27.2446 3.22298 60.9998 3.22298C66.3666 3.22298 73.6104 4.57203 77.5607 5.67765C81.511 6.78328 85.4555 8.24962 86.4731 8.6426C87.5139 9.04266 88.6192 9.24842 89.7343 9.24967C90.9522 9.2543 92.1583 9.01187 93.2799 8.53703L113.172 1.35779C113.608 1.16996 114.07 1.04933 114.542 1.00001C114.914 1.00113 115.283 1.07615 115.626 1.22072C115.969 1.36529 116.281 1.57653 116.542 1.84221C116.803 2.10789 117.008 2.42272 117.147 2.76847C117.285 3.11423 117.354 3.48402 117.348 3.85645C117.324 4.18337 117.265 4.50679 117.172 4.8213L111.419 25.6346Z" stroke="#CFCFDD" stroke-miterlimit="10" stroke-linecap="round"/>
<path d="M30.6159 21.5455V22.0959H27.9348V21.5455H30.6159ZM28.7729 27V20.7464C28.7729 20.4529 28.8404 20.2055 28.9753 20.0043C29.1126 19.803 29.2914 19.6503 29.5115 19.5462C29.7317 19.442 29.9649 19.3899 30.2111 19.3899C30.3768 19.3899 30.5141 19.4041 30.623 19.4325C30.7343 19.4586 30.8219 19.4846 30.8858 19.5107L30.7012 20.0646C30.6538 20.0504 30.5958 20.0339 30.5272 20.0149C30.4585 19.996 30.3721 19.9865 30.2679 19.9865C29.9933 19.9865 29.7814 20.0634 29.6323 20.2173C29.4831 20.3712 29.4086 20.5914 29.4086 20.8778L29.405 27H28.7729ZM31.8775 27V21.5455H32.4918V22.3835H32.538C32.6469 22.1089 32.8363 21.8875 33.1062 21.7195C33.3784 21.549 33.6862 21.4638 34.0295 21.4638C34.0816 21.4638 34.1396 21.465 34.2035 21.4673C34.2674 21.4697 34.3207 21.4721 34.3633 21.4744V22.1172C34.3349 22.1125 34.2852 22.1054 34.2141 22.0959C34.1431 22.0864 34.0662 22.0817 33.9833 22.0817C33.6992 22.0817 33.4459 22.142 33.2234 22.2628C33.0032 22.3812 32.8292 22.5457 32.7013 22.7564C32.5735 22.9671 32.5096 23.2074 32.5096 23.4773V27H31.8775ZM37.396 27.1136C36.9248 27.1136 36.5082 26.9941 36.146 26.755C35.7861 26.5159 35.5044 26.1856 35.3008 25.7642C35.0972 25.3404 34.9954 24.8516 34.9954 24.2976C34.9954 23.7389 35.0972 23.2476 35.3008 22.8239C35.5044 22.3977 35.7861 22.0663 36.146 21.8295C36.5082 21.5904 36.9248 21.4709 37.396 21.4709C37.8671 21.4709 38.2826 21.5904 38.6424 21.8295C39.0022 22.0687 39.284 22.4001 39.4876 22.8239C39.6935 23.2476 39.7965 23.7389 39.7965 24.2976C39.7965 24.8516 39.6947 25.3404 39.4911 25.7642C39.2875 26.1856 39.0046 26.5159 38.6424 26.755C38.2826 26.9941 37.8671 27.1136 37.396 27.1136ZM37.396 26.5348C37.7747 26.5348 38.0955 26.433 38.3583 26.2294C38.6211 26.0258 38.82 25.7547 38.9549 25.4162C39.0922 25.0777 39.1609 24.7048 39.1609 24.2976C39.1609 23.8904 39.0922 23.5163 38.9549 23.1754C38.82 22.8345 38.6211 22.5611 38.3583 22.3551C38.0955 22.1491 37.7747 22.0462 37.396 22.0462C37.0195 22.0462 36.6987 22.1491 36.4336 22.3551C36.1708 22.5611 35.9708 22.8345 35.8335 23.1754C35.6985 23.5163 35.631 23.8904 35.631 24.2976C35.631 24.7048 35.6985 25.0777 35.8335 25.4162C35.9708 25.7547 36.1708 26.0258 36.4336 26.2294C36.6964 26.433 37.0172 26.5348 37.396 26.5348ZM41.1841 27V21.5455H41.7985V22.3835H41.8553C41.9642 22.1018 42.1453 21.8804 42.3986 21.7195C42.6543 21.5561 42.9609 21.4744 43.3184 21.4744C43.6948 21.4744 44.0037 21.5632 44.2452 21.7408C44.4891 21.916 44.6713 22.1574 44.7921 22.4652H44.8382C44.9614 22.1622 45.1614 21.9219 45.4384 21.7443C45.7177 21.5644 46.0563 21.4744 46.454 21.4744C46.9606 21.4744 47.3607 21.6342 47.6543 21.9538C47.9479 22.2711 48.0946 22.7351 48.0946 23.3459V27H47.4625V23.3459C47.4625 22.915 47.3525 22.5919 47.1323 22.3764C46.9121 22.161 46.6221 22.0533 46.2623 22.0533C45.8456 22.0533 45.5248 22.1811 45.2999 22.4368C45.075 22.6925 44.9625 23.0168 44.9625 23.4098V27H44.3162V23.2891C44.3162 22.9197 44.2132 22.6214 44.0073 22.3942C43.8013 22.1669 43.5113 22.0533 43.1373 22.0533C42.8863 22.0533 42.6602 22.1148 42.459 22.2379C42.2601 22.361 42.1027 22.5327 41.9867 22.7528C41.873 22.9706 41.8162 23.2216 41.8162 23.5057V27H41.1841ZM54.729 21.5455V22.0959H52.1261V21.5455H54.729ZM52.9393 20.2386H53.5749V25.576C53.5749 25.8033 53.614 25.982 53.6921 26.1122C53.7702 26.2401 53.872 26.3312 53.9975 26.3857C54.123 26.4377 54.2567 26.4638 54.3988 26.4638C54.4817 26.4638 54.5527 26.459 54.6119 26.4496C54.671 26.4377 54.7231 26.4259 54.7681 26.4141L54.9031 26.9858C54.8415 27.0095 54.7657 27.0308 54.6758 27.0497C54.5858 27.071 54.4746 27.0817 54.342 27.0817C54.11 27.0817 53.8862 27.0308 53.6708 26.929C53.4577 26.8272 53.2826 26.6757 53.1452 26.4744C53.0079 26.2732 52.9393 26.0234 52.9393 25.7251V20.2386ZM56.9139 23.5909V27H56.2818V19.7273H56.9139V22.4013H56.9707C57.0985 22.1196 57.2962 21.8946 57.5637 21.7266C57.8336 21.5585 58.1745 21.4744 58.5865 21.4744C58.9558 21.4744 59.2801 21.5502 59.5595 21.7017C59.8388 21.8532 60.0566 22.0769 60.2129 22.3729C60.3691 22.6688 60.4473 23.0334 60.4473 23.4666V27H59.8116V23.5057C59.8116 23.0559 59.6861 22.7019 59.4352 22.4439C59.1866 22.1835 58.8504 22.0533 58.4267 22.0533C58.1355 22.0533 57.8762 22.1148 57.649 22.2379C57.4217 22.361 57.2418 22.5386 57.1092 22.7706C56.979 23.0002 56.9139 23.2737 56.9139 23.5909ZM64.3171 27.1136C63.8081 27.1136 63.3678 26.9953 62.9961 26.7585C62.6244 26.5194 62.3368 26.1892 62.1332 25.7678C61.9319 25.344 61.8313 24.8563 61.8313 24.3047C61.8313 23.7554 61.9319 23.2678 62.1332 22.8416C62.3368 22.4131 62.6173 22.0781 62.9748 21.8366C63.3346 21.5928 63.7501 21.4709 64.2212 21.4709C64.5172 21.4709 64.8024 21.5253 65.0771 21.6342C65.3517 21.7408 65.5979 21.9053 65.8157 22.1278C66.0359 22.348 66.2099 22.6262 66.3377 22.9624C66.4656 23.2962 66.5295 23.6915 66.5295 24.1484V24.4609H62.2681V23.9034H65.8832C65.8832 23.553 65.8121 23.2382 65.6701 22.9588C65.5304 22.6771 65.3351 22.4545 65.0842 22.2912C64.8356 22.1278 64.5479 22.0462 64.2212 22.0462C63.8756 22.0462 63.5714 22.1385 63.3086 22.3232C63.0458 22.5078 62.8398 22.7517 62.6907 23.0547C62.5439 23.3577 62.4693 23.6892 62.467 24.049V24.3828C62.467 24.8161 62.5415 25.1948 62.6907 25.5192C62.8422 25.8411 63.0565 26.0909 63.3335 26.2685C63.6104 26.446 63.9383 26.5348 64.3171 26.5348C64.5752 26.5348 64.8013 26.4946 64.9954 26.4141C65.1919 26.3336 65.3564 26.2259 65.489 26.0909C65.6239 25.9536 65.7257 25.8033 65.7944 25.6399L66.3945 25.8352C66.3117 26.0649 66.1755 26.2768 65.9862 26.4709C65.7991 26.665 65.5647 26.8213 65.283 26.9396C65.0037 27.0556 64.6817 27.1136 64.3171 27.1136ZM74.2008 24.9155V21.5455H74.8329V27H74.2008V26.0945H74.1511C74.0233 26.3738 73.8208 26.607 73.5439 26.794C73.2669 26.9787 72.9283 27.071 72.5282 27.071C72.1802 27.071 71.8713 26.9953 71.6014 26.8438C71.3315 26.6899 71.1196 26.465 70.9657 26.169C70.8118 25.8731 70.7349 25.5097 70.7349 25.0788V21.5455H71.367V25.0398C71.367 25.4659 71.4925 25.8092 71.7434 26.0696C71.9944 26.3277 72.3163 26.4567 72.7093 26.4567C72.9556 26.4567 73.1923 26.3975 73.4196 26.2791C73.6468 26.1607 73.8339 25.9879 73.9806 25.7607C74.1274 25.531 74.2008 25.2493 74.2008 24.9155ZM80.1712 22.7422L79.5923 22.9055C79.5355 22.7422 79.455 22.5942 79.3509 22.4616C79.2467 22.3291 79.1106 22.2237 78.9425 22.1456C78.7768 22.0675 78.5708 22.0284 78.3246 22.0284C77.9553 22.0284 77.6522 22.116 77.4155 22.2912C77.1787 22.4664 77.0604 22.6925 77.0604 22.9695C77.0604 23.2038 77.1409 23.3944 77.3018 23.5412C77.4652 23.6856 77.7161 23.8004 78.0547 23.8857L78.8786 24.0881C79.3355 24.1993 79.6776 24.3757 79.9048 24.6172C80.1345 24.8587 80.2493 25.1617 80.2493 25.5263C80.2493 25.834 80.1641 26.1075 79.9936 26.3466C79.8232 26.5857 79.5852 26.7739 79.2798 26.9112C78.9768 27.0462 78.6252 27.1136 78.2251 27.1136C77.6925 27.1136 77.2533 26.9941 76.9077 26.755C76.562 26.5135 76.3407 26.1655 76.2436 25.7109L76.8509 25.5618C76.929 25.8861 77.0817 26.1312 77.3089 26.2969C77.5386 26.4626 77.8404 26.5455 78.2145 26.5455C78.6335 26.5455 78.9685 26.4519 79.2195 26.2649C79.4704 26.0755 79.5959 25.8388 79.5959 25.5547C79.5959 25.3345 79.5225 25.1499 79.3757 25.0007C79.2289 24.8492 79.0064 24.7379 78.7081 24.6669L77.8168 24.4538C77.3433 24.3402 76.9929 24.1603 76.7656 23.9141C76.5384 23.6679 76.4247 23.3625 76.4247 22.9979C76.4247 22.6972 76.5064 22.4332 76.6697 22.206C76.8331 21.9763 77.058 21.7964 77.3445 21.6662C77.6309 21.536 77.9576 21.4709 78.3246 21.4709C78.8241 21.4709 79.223 21.5845 79.5213 21.8118C79.822 22.0367 80.0386 22.3468 80.1712 22.7422ZM83.8386 27.1136C83.3296 27.1136 82.8893 26.9953 82.5176 26.7585C82.1459 26.5194 81.8583 26.1892 81.6547 25.7678C81.4534 25.344 81.3528 24.8563 81.3528 24.3047C81.3528 23.7554 81.4534 23.2678 81.6547 22.8416C81.8583 22.4131 82.1388 22.0781 82.4963 21.8366C82.8561 21.5928 83.2716 21.4709 83.7427 21.4709C84.0386 21.4709 84.3239 21.5253 84.5985 21.6342C84.8732 21.7408 85.1194 21.9053 85.3372 22.1278C85.5574 22.348 85.7314 22.6262 85.8592 22.9624C85.987 23.2962 86.051 23.6915 86.051 24.1484V24.4609H81.7896V23.9034H85.4047C85.4047 23.553 85.3336 23.2382 85.1916 22.9588C85.0519 22.6771 84.8566 22.4545 84.6056 22.2912C84.3571 22.1278 84.0694 22.0462 83.7427 22.0462C83.3971 22.0462 83.0929 22.1385 82.8301 22.3232C82.5673 22.5078 82.3613 22.7517 82.2122 23.0547C82.0654 23.3577 81.9908 23.6892 81.9885 24.049V24.3828C81.9885 24.8161 82.063 25.1948 82.2122 25.5192C82.3637 25.8411 82.5779 26.0909 82.8549 26.2685C83.1319 26.446 83.4598 26.5348 83.8386 26.5348C84.0967 26.5348 84.3227 26.4946 84.5169 26.4141C84.7134 26.3336 84.8779 26.2259 85.0105 26.0909C85.1454 25.9536 85.2472 25.8033 85.3159 25.6399L85.916 25.8352C85.8332 26.0649 85.697 26.2768 85.5076 26.4709C85.3206 26.665 85.0862 26.8213 84.8045 26.9396C84.5252 27.0556 84.2032 27.1136 83.8386 27.1136ZM87.4439 27V21.5455H88.0582V22.3835H88.1044C88.2133 22.1089 88.4027 21.8875 88.6726 21.7195C88.9448 21.549 89.2526 21.4638 89.5959 21.4638C89.648 21.4638 89.706 21.465 89.7699 21.4673C89.8338 21.4697 89.8871 21.4721 89.9297 21.4744V22.1172C89.9013 22.1125 89.8516 22.1054 89.7805 22.0959C89.7095 22.0864 89.6326 22.0817 89.5497 22.0817C89.2656 22.0817 89.0123 22.142 88.7898 22.2628C88.5696 22.3812 88.3956 22.5457 88.2678 22.7564C88.1399 22.9671 88.076 23.2074 88.076 23.4773V27H87.4439ZM91.7496 19.7273V20.3665C91.7496 20.5606 91.7141 20.7678 91.6431 20.9879C91.5745 21.2057 91.4727 21.4176 91.3377 21.6236C91.2051 21.8272 91.0442 22.0047 90.8548 22.1562L90.5103 21.8544C90.6879 21.6461 90.8382 21.4152 90.9613 21.1619C91.0844 20.9062 91.146 20.6446 91.146 20.3771V19.7273H91.7496ZM95.8352 22.7422L95.2564 22.9055C95.1996 22.7422 95.1191 22.5942 95.0149 22.4616C94.9107 22.3291 94.7746 22.2237 94.6065 22.1456C94.4408 22.0675 94.2348 22.0284 93.9886 22.0284C93.6193 22.0284 93.3163 22.116 93.0795 22.2912C92.8428 22.4664 92.7244 22.6925 92.7244 22.9695C92.7244 23.2038 92.8049 23.3944 92.9659 23.5412C93.1293 23.6856 93.3802 23.8004 93.7188 23.8857L94.5426 24.0881C94.9995 24.1993 95.3416 24.3757 95.5689 24.6172C95.7985 24.8587 95.9134 25.1617 95.9134 25.5263C95.9134 25.834 95.8281 26.1075 95.6577 26.3466C95.4872 26.5857 95.2493 26.7739 94.9439 26.9112C94.6409 27.0462 94.2893 27.1136 93.8892 27.1136C93.3565 27.1136 92.9174 26.9941 92.5717 26.755C92.2261 26.5135 92.0047 26.1655 91.9077 25.7109L92.5149 25.5618C92.593 25.8861 92.7457 26.1312 92.973 26.2969C93.2027 26.4626 93.5045 26.5455 93.8786 26.5455C94.2976 26.5455 94.6326 26.4519 94.8835 26.2649C95.1345 26.0755 95.2599 25.8388 95.2599 25.5547C95.2599 25.3345 95.1866 25.1499 95.0398 25.0007C94.893 24.8492 94.6705 24.7379 94.3722 24.6669L93.4808 24.4538C93.0073 24.3402 92.657 24.1603 92.4297 23.9141C92.2024 23.6679 92.0888 23.3625 92.0888 22.9979C92.0888 22.6972 92.1705 22.4332 92.3338 22.206C92.4972 21.9763 92.7221 21.7964 93.0085 21.6662C93.295 21.536 93.6217 21.4709 93.9886 21.4709C94.4882 21.4709 94.8871 21.5845 95.1854 21.8118C95.486 22.0367 95.7027 22.3468 95.8352 22.7422ZM28.9234 41.0455V33.5455H29.5377V34.5859H29.6123C29.6881 34.4226 29.7922 34.2557 29.9248 34.0852C30.0574 33.9124 30.2326 33.7668 30.4504 33.6484C30.6705 33.5301 30.9475 33.4709 31.2813 33.4709C31.7311 33.4709 32.1241 33.5893 32.4603 33.826C32.7989 34.0604 33.0616 34.3894 33.2487 34.8132C33.4381 35.2346 33.5328 35.7259 33.5328 36.2869C33.5328 36.8504 33.4381 37.344 33.2487 37.7678C33.0616 38.1915 32.7989 38.5218 32.4603 38.7585C32.1241 38.9953 31.7335 39.1136 31.2884 39.1136C30.9594 39.1136 30.6836 39.0545 30.461 38.9361C30.2409 38.8177 30.0621 38.6721 29.9248 38.4993C29.7899 38.3241 29.6857 38.1536 29.6123 37.9879H29.5555V41.0455H28.9234ZM29.5484 36.2763C29.5484 36.7166 29.6135 37.1072 29.7437 37.4482C29.8763 37.7867 30.0657 38.053 30.3119 38.2472C30.5605 38.4389 30.8611 38.5348 31.2139 38.5348C31.5761 38.5348 31.8815 38.4354 32.1301 38.2365C32.381 38.0353 32.5716 37.7642 32.7018 37.4233C32.8344 37.0824 32.9007 36.7 32.9007 36.2763C32.9007 35.8572 32.8356 35.4796 32.7053 35.1435C32.5775 34.8073 32.3881 34.541 32.1372 34.3445C31.8862 34.1456 31.5785 34.0462 31.2139 34.0462C30.8588 34.0462 30.5569 34.142 30.3083 34.3338C30.0597 34.5232 29.8704 34.786 29.7401 35.1222C29.6123 35.456 29.5484 35.8407 29.5484 36.2763ZM37.1247 39.1136C36.6157 39.1136 36.1754 38.9953 35.8037 38.7585C35.432 38.5194 35.1444 38.1892 34.9408 37.7678C34.7396 37.344 34.6389 36.8563 34.6389 36.3047C34.6389 35.7554 34.7396 35.2678 34.9408 34.8416C35.1444 34.4131 35.4249 34.0781 35.7824 33.8366C36.1423 33.5928 36.5577 33.4709 37.0289 33.4709C37.3248 33.4709 37.6101 33.5253 37.8847 33.6342C38.1593 33.7408 38.4055 33.9053 38.6233 34.1278C38.8435 34.348 39.0175 34.6262 39.1453 34.9624C39.2732 35.2962 39.3371 35.6915 39.3371 36.1484V36.4609H35.0757V35.9034H38.6908C38.6908 35.553 38.6198 35.2382 38.4777 34.9588C38.338 34.6771 38.1427 34.4545 37.8918 34.2912C37.6432 34.1278 37.3556 34.0462 37.0289 34.0462C36.6832 34.0462 36.379 34.1385 36.1162 34.3232C35.8534 34.5078 35.6475 34.7517 35.4983 35.0547C35.3515 35.3577 35.277 35.6892 35.2746 36.049V36.3828C35.2746 36.8161 35.3492 37.1948 35.4983 37.5192C35.6498 37.8411 35.8641 38.0909 36.1411 38.2685C36.4181 38.446 36.7459 38.5348 37.1247 38.5348C37.3828 38.5348 37.6089 38.4946 37.803 38.4141C37.9995 38.3336 38.164 38.2259 38.2966 38.0909C38.4316 37.9536 38.5334 37.8033 38.602 37.6399L39.2021 37.8352C39.1193 38.0649 38.9832 38.2768 38.7938 38.4709C38.6067 38.665 38.3724 38.8213 38.0906 38.9396C37.8113 39.0556 37.4893 39.1136 37.1247 39.1136ZM40.73 39V33.5455H41.3444V34.3835H41.3905C41.4994 34.1089 41.6888 33.8875 41.9587 33.7195C42.231 33.549 42.5387 33.4638 42.882 33.4638C42.9341 33.4638 42.9921 33.465 43.056 33.4673C43.1199 33.4697 43.1732 33.4721 43.2158 33.4744V34.1172C43.1874 34.1125 43.1377 34.1054 43.0667 34.0959C42.9956 34.0864 42.9187 34.0817 42.8358 34.0817C42.5518 34.0817 42.2984 34.142 42.0759 34.2628C41.8557 34.3812 41.6817 34.5457 41.5539 34.7564C41.426 34.9671 41.3621 35.2074 41.3621 35.4773V39H40.73ZM47.9593 34.7422L47.3804 34.9055C47.3236 34.7422 47.2431 34.5942 47.1389 34.4616C47.0348 34.3291 46.8986 34.2237 46.7306 34.1456C46.5648 34.0675 46.3589 34.0284 46.1127 34.0284C45.7433 34.0284 45.4403 34.116 45.2036 34.2912C44.9668 34.4664 44.8485 34.6925 44.8485 34.9695C44.8485 35.2038 44.9289 35.3944 45.0899 35.5412C45.2533 35.6856 45.5042 35.8004 45.8428 35.8857L46.6666 36.0881C47.1236 36.1993 47.4656 36.3757 47.6929 36.6172C47.9226 36.8587 48.0374 37.1617 48.0374 37.5263C48.0374 37.834 47.9521 38.1075 47.7817 38.3466C47.6112 38.5857 47.3733 38.7739 47.0679 38.9112C46.7649 39.0462 46.4133 39.1136 46.0132 39.1136C45.4806 39.1136 45.0414 38.9941 44.6958 38.755C44.3501 38.5135 44.1288 38.1655 44.0317 37.7109L44.6389 37.5618C44.7171 37.8861 44.8698 38.1312 45.097 38.2969C45.3267 38.4626 45.6285 38.5455 46.0026 38.5455C46.4216 38.5455 46.7566 38.4519 47.0075 38.2649C47.2585 38.0755 47.384 37.8388 47.384 37.5547C47.384 37.3345 47.3106 37.1499 47.1638 37.0007C47.017 36.8492 46.7945 36.7379 46.4962 36.6669L45.6048 36.4538C45.1314 36.3402 44.781 36.1603 44.5537 35.9141C44.3264 35.6679 44.2128 35.3625 44.2128 34.9979C44.2128 34.6972 44.2945 34.4332 44.4578 34.206C44.6212 33.9763 44.8461 33.7964 45.1325 33.6662C45.419 33.536 45.7457 33.4709 46.1127 33.4709C46.6122 33.4709 47.0111 33.5845 47.3094 33.8118C47.6101 34.0367 47.8267 34.3468 47.9593 34.7422ZM49.4214 41.0455V33.5455H50.0358V34.5859H50.1104C50.1861 34.4226 50.2903 34.2557 50.4229 34.0852C50.5554 33.9124 50.7306 33.7668 50.9484 33.6484C51.1686 33.5301 51.4456 33.4709 51.7794 33.4709C52.2292 33.4709 52.6222 33.5893 52.9584 33.826C53.2969 34.0604 53.5597 34.3894 53.7467 34.8132C53.9361 35.2346 54.0308 35.7259 54.0308 36.2869C54.0308 36.8504 53.9361 37.344 53.7467 37.7678C53.5597 38.1915 53.2969 38.5218 52.9584 38.7585C52.6222 38.9953 52.2316 39.1136 51.7865 39.1136C51.4574 39.1136 51.1816 39.0545 50.9591 38.9361C50.7389 38.8177 50.5602 38.6721 50.4229 38.4993C50.2879 38.3241 50.1837 38.1536 50.1104 37.9879H50.0535V41.0455H49.4214ZM50.0464 36.2763C50.0464 36.7166 50.1115 37.1072 50.2417 37.4482C50.3743 37.7867 50.5637 38.053 50.8099 38.2472C51.0585 38.4389 51.3592 38.5348 51.7119 38.5348C52.0741 38.5348 52.3795 38.4354 52.6281 38.2365C52.8791 38.0353 53.0696 37.7642 53.1998 37.4233C53.3324 37.0824 53.3987 36.7 53.3987 36.2763C53.3987 35.8572 53.3336 35.4796 53.2034 35.1435C53.0756 34.8073 52.8862 34.541 52.6352 34.3445C52.3843 34.1456 52.0765 34.0462 51.7119 34.0462C51.3568 34.0462 51.055 34.142 50.8064 34.3338C50.5578 34.5232 50.3684 34.786 50.2382 35.1222C50.1104 35.456 50.0464 35.8407 50.0464 36.2763ZM57.6228 39.1136C57.1138 39.1136 56.6734 38.9953 56.3018 38.7585C55.9301 38.5194 55.6424 38.1892 55.4388 37.7678C55.2376 37.344 55.137 36.8563 55.137 36.3047C55.137 35.7554 55.2376 35.2678 55.4388 34.8416C55.6424 34.4131 55.923 34.0781 56.2805 33.8366C56.6403 33.5928 57.0558 33.4709 57.5269 33.4709C57.8228 33.4709 58.1081 33.5253 58.3827 33.6342C58.6573 33.7408 58.9036 33.9053 59.1214 34.1278C59.3415 34.348 59.5155 34.6262 59.6434 34.9624C59.7712 35.2962 59.8351 35.6915 59.8351 36.1484V36.4609H55.5738V35.9034H59.1888C59.1888 35.553 59.1178 35.2382 58.9758 34.9588C58.8361 34.6771 58.6408 34.4545 58.3898 34.2912C58.1412 34.1278 57.8536 34.0462 57.5269 34.0462C57.1813 34.0462 56.877 34.1385 56.6143 34.3232C56.3515 34.5078 56.1455 34.7517 55.9964 35.0547C55.8496 35.3577 55.775 35.6892 55.7726 36.049V36.3828C55.7726 36.8161 55.8472 37.1948 55.9964 37.5192C56.1479 37.8411 56.3621 38.0909 56.6391 38.2685C56.9161 38.446 57.244 38.5348 57.6228 38.5348C57.8808 38.5348 58.1069 38.4946 58.301 38.4141C58.4975 38.3336 58.6621 38.2259 58.7947 38.0909C58.9296 37.9536 59.0314 37.8033 59.1001 37.6399L59.7002 37.8352C59.6173 38.0649 59.4812 38.2768 59.2918 38.4709C59.1048 38.665 58.8704 38.8213 58.5887 38.9396C58.3093 39.0556 57.9874 39.1136 57.6228 39.1136ZM63.3588 39.1136C62.8711 39.1136 62.4461 38.9917 62.0839 38.7479C61.724 38.504 61.4447 38.1702 61.2458 37.7464C61.047 37.3227 60.9475 36.8397 60.9475 36.2976C60.9475 35.7507 61.0481 35.2642 61.2494 34.8381C61.453 34.4119 61.7347 34.0781 62.0945 33.8366C62.4544 33.5928 62.8722 33.4709 63.3481 33.4709C63.7127 33.4709 64.0429 33.5419 64.3389 33.6839C64.6348 33.8236 64.8786 34.0213 65.0704 34.277C65.2645 34.5303 65.3865 34.8262 65.4362 35.1648H64.797C64.7307 34.857 64.5709 34.5942 64.3176 34.3764C64.0666 34.1562 63.747 34.0462 63.3588 34.0462C63.0107 34.0462 62.703 34.1409 62.4355 34.3303C62.1679 34.5173 61.9584 34.7789 61.8069 35.1151C61.6578 35.4489 61.5832 35.8359 61.5832 36.2763C61.5832 36.719 61.6566 37.1108 61.8034 37.4517C61.9501 37.7902 62.1561 38.0554 62.4213 38.2472C62.6888 38.4389 63.0013 38.5348 63.3588 38.5348C63.6002 38.5348 63.8204 38.4898 64.0193 38.3999C64.2205 38.3075 64.3886 38.1773 64.5235 38.0092C64.6608 37.8411 64.7532 37.6411 64.8005 37.4091H65.4397C65.3924 37.7382 65.2752 38.0317 65.0882 38.2898C64.9035 38.5455 64.6632 38.7467 64.3673 38.8935C64.0737 39.0402 63.7375 39.1136 63.3588 39.1136ZM68.9429 33.5455V34.0959H66.3399V33.5455H68.9429ZM67.1531 32.2386H67.7888V37.576C67.7888 37.8033 67.8279 37.982 67.906 38.1122C67.9841 38.2401 68.0859 38.3312 68.2114 38.3857C68.3369 38.4377 68.4706 38.4638 68.6127 38.4638C68.6955 38.4638 68.7665 38.459 68.8257 38.4496C68.8849 38.4377 68.937 38.4259 68.982 38.4141L69.1169 38.9858C69.0554 39.0095 68.9796 39.0308 68.8896 39.0497C68.7997 39.071 68.6884 39.0817 68.5558 39.0817C68.3238 39.0817 68.1001 39.0308 67.8847 38.929C67.6716 38.8272 67.4964 38.6757 67.3591 38.4744C67.2218 38.2732 67.1531 38.0234 67.1531 37.7251V32.2386ZM70.3856 39V33.5455H71.0212V39H70.3856ZM70.7087 32.608C70.5785 32.608 70.4672 32.5642 70.3749 32.4766C70.2826 32.3866 70.2364 32.2789 70.2364 32.1534C70.2364 32.0279 70.2826 31.9214 70.3749 31.8338C70.4672 31.7438 70.5785 31.6989 70.7087 31.6989C70.8389 31.6989 70.9502 31.7438 71.0425 31.8338C71.1349 31.9214 71.181 32.0279 71.181 32.1534C71.181 32.2789 71.1349 32.3866 71.0425 32.4766C70.9502 32.5642 70.8389 32.608 70.7087 32.608ZM76.9152 33.5455L74.923 39H74.2483L72.2561 33.5455H72.9415L74.5608 38.1655H74.6105L76.2298 33.5455H76.9152ZM80.1618 39.1136C79.6528 39.1136 79.2125 38.9953 78.8408 38.7585C78.4691 38.5194 78.1815 38.1892 77.9779 37.7678C77.7767 37.344 77.676 36.8563 77.676 36.3047C77.676 35.7554 77.7767 35.2678 77.9779 34.8416C78.1815 34.4131 78.462 34.0781 78.8195 33.8366C79.1794 33.5928 79.5948 33.4709 80.066 33.4709C80.3619 33.4709 80.6472 33.5253 80.9218 33.6342C81.1964 33.7408 81.4426 33.9053 81.6604 34.1278C81.8806 34.348 82.0546 34.6262 82.1824 34.9624C82.3103 35.2962 82.3742 35.6915 82.3742 36.1484V36.4609H78.1128V35.9034H81.7279C81.7279 35.553 81.6569 35.2382 81.5148 34.9588C81.3751 34.6771 81.1798 34.4545 80.9289 34.2912C80.6803 34.1278 80.3927 34.0462 80.066 34.0462C79.7203 34.0462 79.4161 34.1385 79.1533 34.3232C78.8905 34.5078 78.6846 34.7517 78.5354 35.0547C78.3886 35.3577 78.3141 35.6892 78.3117 36.049V36.3828C78.3117 36.8161 78.3863 37.1948 78.5354 37.5192C78.6869 37.8411 78.9012 38.0909 79.1782 38.2685C79.4552 38.446 79.7831 38.5348 80.1618 38.5348C80.4199 38.5348 80.646 38.4946 80.8401 38.4141C81.0366 38.3336 81.2011 38.2259 81.3337 38.0909C81.4687 37.9536 81.5705 37.8033 81.6391 37.6399L82.2393 37.8352C82.1564 38.0649 82.0203 38.2768 81.8309 38.4709C81.6439 38.665 81.4095 38.8213 81.1278 38.9396C80.8484 39.0556 80.5264 39.1136 80.1618 39.1136ZM84.8183 38.0057L84.7544 38.3857C84.7141 38.6413 84.6573 38.9231 84.5839 39.2308C84.5105 39.5386 84.4347 39.831 84.3566 40.108C84.2785 40.3849 84.211 40.6075 84.1542 40.7756H83.6677C83.6985 40.6146 83.7375 40.4098 83.7849 40.1612C83.8346 39.9126 83.8855 39.6368 83.9376 39.3338C83.9897 39.0331 84.037 38.723 84.0796 38.4034L84.1294 38.0057H84.8183ZM89.3113 39V33.5455H89.947V39H89.3113ZM89.6345 32.608C89.5043 32.608 89.393 32.5642 89.3007 32.4766C89.2084 32.3866 89.1622 32.2789 89.1622 32.1534C89.1622 32.0279 89.2084 31.9214 89.3007 31.8338C89.393 31.7438 89.5043 31.6989 89.6345 31.6989C89.7647 31.6989 89.876 31.7438 89.9683 31.8338C90.0606 31.9214 90.1068 32.0279 90.1068 32.1534C90.1068 32.2789 90.0606 32.3866 89.9683 32.4766C89.876 32.5642 89.7647 32.608 89.6345 32.608ZM95.2835 34.7422L94.7046 34.9055C94.6478 34.7422 94.5673 34.5942 94.4632 34.4616C94.359 34.3291 94.2229 34.2237 94.0548 34.1456C93.8891 34.0675 93.6831 34.0284 93.4369 34.0284C93.0676 34.0284 92.7645 34.116 92.5278 34.2912C92.291 34.4664 92.1727 34.6925 92.1727 34.9695C92.1727 35.2038 92.2532 35.3944 92.4142 35.5412C92.5775 35.6856 92.8285 35.8004 93.167 35.8857L93.9909 36.0881C94.4478 36.1993 94.7899 36.3757 95.0171 36.6172C95.2468 36.8587 95.3616 37.1617 95.3616 37.5263C95.3616 37.834 95.2764 38.1075 95.1059 38.3466C94.9355 38.5857 94.6975 38.7739 94.3921 38.9112C94.0891 39.0462 93.7375 39.1136 93.3374 39.1136C92.8048 39.1136 92.3656 38.9941 92.02 38.755C91.6743 38.5135 91.453 38.1655 91.3559 37.7109L91.9632 37.5618C92.0413 37.8861 92.194 38.1312 92.4213 38.2969C92.6509 38.4626 92.9527 38.5455 93.3268 38.5455C93.7458 38.5455 94.0808 38.4519 94.3318 38.2649C94.5827 38.0755 94.7082 37.8388 94.7082 37.5547C94.7082 37.3345 94.6348 37.1499 94.488 37.0007C94.3412 36.8492 94.1187 36.7379 93.8204 36.6669L92.9291 36.4538C92.4556 36.3402 92.1052 36.1603 91.8779 35.9141C91.6507 35.6679 91.537 35.3625 91.537 34.9979C91.537 34.6972 91.6187 34.4332 91.782 34.206C91.9454 33.9763 92.1703 33.7964 92.4568 33.6662C92.7432 33.536 93.0699 33.4709 93.4369 33.4709C93.9364 33.4709 94.3353 33.5845 94.6336 33.8118C94.9343 34.0367 95.1509 34.3468 95.2835 34.7422ZM20.0806 53.0455V45.5455H20.695V46.5859H20.7695C20.8453 46.4226 20.9495 46.2557 21.082 46.0852C21.2146 45.9124 21.3898 45.7668 21.6076 45.6484C21.8278 45.5301 22.1048 45.4709 22.4386 45.4709C22.8884 45.4709 23.2814 45.5893 23.6175 45.826C23.9561 46.0604 24.2189 46.3894 24.4059 46.8132C24.5953 47.2346 24.69 47.7259 24.69 48.2869C24.69 48.8504 24.5953 49.344 24.4059 49.7678C24.2189 50.1915 23.9561 50.5218 23.6175 50.7585C23.2814 50.9953 22.8907 51.1136 22.4457 51.1136C22.1166 51.1136 21.8408 51.0545 21.6183 50.9361C21.3981 50.8177 21.2193 50.6721 21.082 50.4993C20.9471 50.3241 20.8429 50.1536 20.7695 49.9879H20.7127V53.0455H20.0806ZM20.7056 48.2763C20.7056 48.7166 20.7707 49.1072 20.9009 49.4482C21.0335 49.7867 21.2229 50.053 21.4691 50.2472C21.7177 50.4389 22.0183 50.5348 22.3711 50.5348C22.7333 50.5348 23.0387 50.4354 23.2873 50.2365C23.5382 50.0353 23.7288 49.7642 23.859 49.4233C23.9916 49.0824 24.0579 48.7 24.0579 48.2763C24.0579 47.8572 23.9928 47.4796 23.8626 47.1435C23.7347 46.8073 23.5453 46.541 23.2944 46.3445C23.0434 46.1456 22.7357 46.0462 22.3711 46.0462C22.016 46.0462 21.7141 46.142 21.4656 46.3338C21.217 46.5232 21.0276 46.786 20.8974 47.1222C20.7695 47.456 20.7056 47.8407 20.7056 48.2763ZM28.1967 51.1136C27.7256 51.1136 27.3089 50.9941 26.9467 50.755C26.5869 50.5159 26.3052 50.1856 26.1016 49.7642C25.898 49.3404 25.7962 48.8516 25.7962 48.2976C25.7962 47.7389 25.898 47.2476 26.1016 46.8239C26.3052 46.3977 26.5869 46.0663 26.9467 45.8295C27.3089 45.5904 27.7256 45.4709 28.1967 45.4709C28.6679 45.4709 29.0833 45.5904 29.4432 45.8295C29.803 46.0687 30.0848 46.4001 30.2884 46.8239C30.4943 47.2476 30.5973 47.7389 30.5973 48.2976C30.5973 48.8516 30.4955 49.3404 30.2919 49.7642C30.0883 50.1856 29.8054 50.5159 29.4432 50.755C29.0833 50.9941 28.6679 51.1136 28.1967 51.1136ZM28.1967 50.5348C28.5755 50.5348 28.8963 50.433 29.1591 50.2294C29.4219 50.0258 29.6207 49.7547 29.7557 49.4162C29.893 49.0777 29.9616 48.7048 29.9616 48.2976C29.9616 47.8904 29.893 47.5163 29.7557 47.1754C29.6207 46.8345 29.4219 46.5611 29.1591 46.3551C28.8963 46.1491 28.5755 46.0462 28.1967 46.0462C27.8203 46.0462 27.4995 46.1491 27.2344 46.3551C26.9716 46.5611 26.7715 46.8345 26.6342 47.1754C26.4993 47.5163 26.4318 47.8904 26.4318 48.2976C26.4318 48.7048 26.4993 49.0777 26.6342 49.4162C26.7715 49.7547 26.9716 50.0258 27.2344 50.2294C27.4972 50.433 27.8179 50.5348 28.1967 50.5348ZM31.992 51V45.5455H32.6277V51H31.992ZM32.3152 44.608C32.185 44.608 32.0737 44.5642 31.9814 44.4766C31.889 44.3866 31.8429 44.2789 31.8429 44.1534C31.8429 44.0279 31.889 43.9214 31.9814 43.8338C32.0737 43.7438 32.185 43.6989 32.3152 43.6989C32.4454 43.6989 32.5566 43.7438 32.649 43.8338C32.7413 43.9214 32.7875 44.0279 32.7875 44.1534C32.7875 44.2789 32.7413 44.3866 32.649 44.4766C32.5566 44.5642 32.4454 44.608 32.3152 44.608ZM34.9315 47.5909V51H34.2994V45.5455H34.9137V46.4013H34.9705C35.0984 46.1219 35.2972 45.8982 35.5671 45.7301C35.8394 45.5597 36.1755 45.4744 36.5756 45.4744C36.9426 45.4744 37.2646 45.5514 37.5415 45.7053C37.8209 45.8568 38.0375 46.0805 38.1914 46.3764C38.3477 46.6723 38.4258 47.0357 38.4258 47.4666V51H37.7937V47.5057C37.7937 47.0582 37.6682 46.7043 37.4173 46.4439C37.1687 46.1835 36.8349 46.0533 36.4158 46.0533C36.1294 46.0533 35.8749 46.1148 35.6523 46.2379C35.4298 46.361 35.2534 46.5386 35.1232 46.7706C34.9954 47.0002 34.9315 47.2737 34.9315 47.5909ZM42.2388 45.5455V46.0959H39.6358V45.5455H42.2388ZM40.449 44.2386H41.0847V49.576C41.0847 49.8033 41.1238 49.982 41.2019 50.1122C41.28 50.2401 41.3818 50.3312 41.5073 50.3857C41.6328 50.4377 41.7665 50.4638 41.9086 50.4638C41.9914 50.4638 42.0624 50.459 42.1216 50.4496C42.1808 50.4377 42.2329 50.4259 42.2779 50.4141L42.4128 50.9858C42.3513 51.0095 42.2755 51.0308 42.1855 51.0497C42.0956 51.071 41.9843 51.0817 41.8517 51.0817C41.6197 51.0817 41.396 51.0308 41.1806 50.929C40.9675 50.8272 40.7923 50.6757 40.655 50.4744C40.5177 50.2732 40.449 50.0234 40.449 49.7251V44.2386ZM44.4237 43.7273V51H43.7915V43.7273H44.4237ZM48.3015 51.1136C47.7925 51.1136 47.3522 50.9953 46.9805 50.7585C46.6088 50.5194 46.3211 50.1892 46.1175 49.7678C45.9163 49.344 45.8157 48.8563 45.8157 48.3047C45.8157 47.7554 45.9163 47.2678 46.1175 46.8416C46.3211 46.4131 46.6017 46.0781 46.9592 45.8366C47.319 45.5928 47.7345 45.4709 48.2056 45.4709C48.5015 45.4709 48.7868 45.5253 49.0614 45.6342C49.3361 45.7408 49.5823 45.9053 49.8001 46.1278C50.0202 46.348 50.1942 46.6262 50.3221 46.9624C50.4499 47.2962 50.5138 47.6915 50.5138 48.1484V48.4609H46.2525V47.9034H49.8675C49.8675 47.553 49.7965 47.2382 49.6545 46.9588C49.5148 46.6771 49.3195 46.4545 49.0685 46.2912C48.82 46.1278 48.5323 46.0462 48.2056 46.0462C47.86 46.0462 47.5558 46.1385 47.293 46.3232C47.0302 46.5078 46.8242 46.7517 46.6751 47.0547C46.5283 47.3577 46.4537 47.6892 46.4513 48.049V48.3828C46.4513 48.8161 46.5259 49.1948 46.6751 49.5192C46.8266 49.8411 47.0408 50.0909 47.3178 50.2685C47.5948 50.446 47.9227 50.5348 48.3015 50.5348C48.5595 50.5348 48.7856 50.4946 48.9798 50.4141C49.1763 50.3336 49.3408 50.2259 49.4734 50.0909C49.6083 49.9536 49.7101 49.8033 49.7788 49.6399L50.3789 49.8352C50.296 50.0649 50.1599 50.2768 49.9705 50.4709C49.7835 50.665 49.5491 50.8213 49.2674 50.9396C48.988 51.0556 48.6661 51.1136 48.3015 51.1136ZM55.5716 46.7422L54.9927 46.9055C54.9359 46.7422 54.8554 46.5942 54.7512 46.4616C54.6471 46.3291 54.5109 46.2237 54.3429 46.1456C54.1771 46.0675 53.9712 46.0284 53.725 46.0284C53.3556 46.0284 53.0526 46.116 52.8159 46.2912C52.5791 46.4664 52.4608 46.6925 52.4608 46.9695C52.4608 47.2038 52.5413 47.3944 52.7022 47.5412C52.8656 47.6856 53.1165 47.8004 53.4551 47.8857L54.2789 48.0881C54.7359 48.1993 55.0779 48.3757 55.3052 48.6172C55.5349 48.8587 55.6497 49.1617 55.6497 49.5263C55.6497 49.834 55.5645 50.1075 55.394 50.3466C55.2235 50.5857 54.9856 50.7739 54.6802 50.9112C54.3772 51.0462 54.0256 51.1136 53.6255 51.1136C53.0929 51.1136 52.6537 50.9941 52.3081 50.755C51.9624 50.5135 51.7411 50.1655 51.644 49.7109L52.2512 49.5618C52.3294 49.8861 52.4821 50.1312 52.7093 50.2969C52.939 50.4626 53.2408 50.5455 53.6149 50.5455C54.0339 50.5455 54.3689 50.4519 54.6199 50.2649C54.8708 50.0755 54.9963 49.8388 54.9963 49.5547C54.9963 49.3345 54.9229 49.1499 54.7761 49.0007C54.6293 48.8492 54.4068 48.7379 54.1085 48.6669L53.2172 48.4538C52.7437 48.3402 52.3933 48.1603 52.166 47.9141C51.9387 47.6679 51.8251 47.3625 51.8251 46.9979C51.8251 46.6972 51.9068 46.4332 52.0701 46.206C52.2335 45.9763 52.4584 45.7964 52.7449 45.6662C53.0313 45.536 53.358 45.4709 53.725 45.4709C54.2245 45.4709 54.6234 45.5845 54.9217 45.8118C55.2224 46.0367 55.439 46.3468 55.5716 46.7422ZM60.6985 46.7422L60.1197 46.9055C60.0629 46.7422 59.9824 46.5942 59.8782 46.4616C59.774 46.3291 59.6379 46.2237 59.4698 46.1456C59.3041 46.0675 59.0981 46.0284 58.8519 46.0284C58.4826 46.0284 58.1796 46.116 57.9428 46.2912C57.7061 46.4664 57.5877 46.6925 57.5877 46.9695C57.5877 47.2038 57.6682 47.3944 57.8292 47.5412C57.9925 47.6856 58.2435 47.8004 58.582 47.8857L59.4059 48.0881C59.8628 48.1993 60.2049 48.3757 60.4322 48.6172C60.6618 48.8587 60.7766 49.1617 60.7766 49.5263C60.7766 49.834 60.6914 50.1075 60.521 50.3466C60.3505 50.5857 60.1126 50.7739 59.8072 50.9112C59.5041 51.0462 59.1526 51.1136 58.7525 51.1136C58.2198 51.1136 57.7807 50.9941 57.435 50.755C57.0894 50.5135 56.868 50.1655 56.771 49.7109L57.3782 49.5618C57.4563 49.8861 57.609 50.1312 57.8363 50.2969C58.0659 50.4626 58.3678 50.5455 58.7418 50.5455C59.1609 50.5455 59.4959 50.4519 59.7468 50.2649C59.9978 50.0755 60.1232 49.8388 60.1232 49.5547C60.1232 49.3345 60.0498 49.1499 59.9031 49.0007C59.7563 48.8492 59.5337 48.7379 59.2354 48.6669L58.3441 48.4538C57.8706 48.3402 57.5202 48.1603 57.293 47.9141C57.0657 47.6679 56.9521 47.3625 56.9521 46.9979C56.9521 46.6972 57.0337 46.4332 57.1971 46.206C57.3604 45.9763 57.5853 45.7964 57.8718 45.6662C58.1583 45.536 58.485 45.4709 58.8519 45.4709C59.3514 45.4709 59.7504 45.5845 60.0487 45.8118C60.3493 46.0367 60.5659 46.3468 60.6985 46.7422ZM67.1216 45.5455V46.0959H64.5186V45.5455H67.1216ZM65.3319 44.2386H65.9675V49.576C65.9675 49.8033 66.0066 49.982 66.0847 50.1122C66.1628 50.2401 66.2646 50.3312 66.3901 50.3857C66.5156 50.4377 66.6493 50.4638 66.7914 50.4638C66.8742 50.4638 66.9453 50.459 67.0044 50.4496C67.0636 50.4377 67.1157 50.4259 67.1607 50.4141L67.2956 50.9858C67.2341 51.0095 67.1583 51.0308 67.0684 51.0497C66.9784 51.071 66.8671 51.0817 66.7346 51.0817C66.5025 51.0817 66.2788 51.0308 66.0634 50.929C65.8503 50.8272 65.6751 50.6757 65.5378 50.4744C65.4005 50.2732 65.3319 50.0234 65.3319 49.7251V44.2386ZM70.6186 51.1136C70.1475 51.1136 69.7308 50.9941 69.3686 50.755C69.0088 50.5159 68.727 50.1856 68.5234 49.7642C68.3198 49.3404 68.218 48.8516 68.218 48.2976C68.218 47.7389 68.3198 47.2476 68.5234 46.8239C68.727 46.3977 69.0088 46.0663 69.3686 45.8295C69.7308 45.5904 70.1475 45.4709 70.6186 45.4709C71.0897 45.4709 71.5052 45.5904 71.8651 45.8295C72.2249 46.0687 72.5066 46.4001 72.7102 46.8239C72.9162 47.2476 73.0192 47.7389 73.0192 48.2976C73.0192 48.8516 72.9174 49.3404 72.7138 49.7642C72.5102 50.1856 72.2273 50.5159 71.8651 50.755C71.5052 50.9941 71.0897 51.1136 70.6186 51.1136ZM70.6186 50.5348C70.9974 50.5348 71.3182 50.433 71.581 50.2294C71.8438 50.0258 72.0426 49.7547 72.1776 49.4162C72.3149 49.0777 72.3835 48.7048 72.3835 48.2976C72.3835 47.8904 72.3149 47.5163 72.1776 47.1754C72.0426 46.8345 71.8438 46.5611 71.581 46.3551C71.3182 46.1491 70.9974 46.0462 70.6186 46.0462C70.2422 46.0462 69.9214 46.1491 69.6562 46.3551C69.3935 46.5611 69.1934 46.8345 69.0561 47.1754C68.9212 47.5163 68.8537 47.8904 68.8537 48.2976C68.8537 48.7048 68.9212 49.0777 69.0561 49.4162C69.1934 49.7547 69.3935 50.0258 69.6562 50.2294C69.919 50.433 70.2398 50.5348 70.6186 50.5348ZM79.3677 45.5455V46.0959H76.7647V45.5455H79.3677ZM77.5779 44.2386H78.2136V49.576C78.2136 49.8033 78.2527 49.982 78.3308 50.1122C78.4089 50.2401 78.5107 50.3312 78.6362 50.3857C78.7617 50.4377 78.8954 50.4638 79.0375 50.4638C79.1203 50.4638 79.1913 50.459 79.2505 50.4496C79.3097 50.4377 79.3618 50.4259 79.4068 50.4141L79.5417 50.9858C79.4802 51.0095 79.4044 51.0308 79.3145 51.0497C79.2245 51.071 79.1132 51.0817 78.9806 51.0817C78.7486 51.0817 78.5249 51.0308 78.3095 50.929C78.0964 50.8272 77.9212 50.6757 77.7839 50.4744C77.6466 50.2732 77.5779 50.0234 77.5779 49.7251V44.2386ZM82.3267 51.1243C81.9976 51.1243 81.697 51.0604 81.4247 50.9325C81.1525 50.8023 80.9358 50.6153 80.7749 50.3714C80.6139 50.1252 80.5334 49.8269 80.5334 49.4766C80.5334 49.2067 80.5843 48.9794 80.6861 48.7947C80.7879 48.6101 80.9323 48.4586 81.1193 48.3402C81.3063 48.2218 81.5277 48.1283 81.7834 48.0597C82.0391 47.991 82.3208 47.9377 82.6286 47.8999C82.9339 47.862 83.192 47.8288 83.4027 47.8004C83.6158 47.772 83.7779 47.727 83.8892 47.6655C84.0005 47.6039 84.0561 47.5045 84.0561 47.3672V47.2393C84.0561 46.8677 83.9448 46.5753 83.7223 46.3622C83.5021 46.1468 83.1849 46.0391 82.7706 46.0391C82.3776 46.0391 82.0568 46.1255 81.8082 46.2983C81.562 46.4711 81.3892 46.6747 81.2898 46.9091L80.6896 46.6925C80.8127 46.3942 80.9832 46.1562 81.201 45.9787C81.4188 45.7988 81.6626 45.6697 81.9325 45.5916C82.2024 45.5111 82.4759 45.4709 82.7528 45.4709C82.9612 45.4709 83.1778 45.4981 83.4027 45.5526C83.63 45.607 83.8407 45.7017 84.0348 45.8366C84.2289 45.9692 84.3864 46.1551 84.5071 46.3942C84.6278 46.6309 84.6882 46.9316 84.6882 47.2962V51H84.0561V50.1371H84.017C83.9413 50.2981 83.8288 50.4543 83.6797 50.6058C83.5305 50.7573 83.3435 50.8816 83.1186 50.9787C82.8937 51.0758 82.6297 51.1243 82.3267 51.1243ZM82.4119 50.5455C82.7481 50.5455 83.0393 50.4709 83.2855 50.3217C83.5317 50.1726 83.7211 49.9749 83.8537 49.7287C83.9886 49.4801 84.0561 49.2067 84.0561 48.9084V48.12C84.0088 48.165 83.9295 48.2053 83.8182 48.2408C83.7093 48.2763 83.5826 48.3082 83.4382 48.3366C83.2962 48.3627 83.1541 48.3852 83.0121 48.4041C82.87 48.4231 82.7422 48.4396 82.6286 48.4538C82.3208 48.4917 82.058 48.5509 81.8402 48.6314C81.6224 48.7119 81.4555 48.8232 81.3395 48.9652C81.2235 49.1049 81.1655 49.2848 81.1655 49.505C81.1655 49.8364 81.2839 50.0933 81.5206 50.2756C81.7573 50.4555 82.0545 50.5455 82.4119 50.5455ZM86.945 48.9403L86.9379 48.1129H87.0799L89.6367 45.5455H90.4357L87.9109 48.0739L87.854 48.0845L86.945 48.9403ZM86.3697 51V43.7273H87.0018V51H86.3697ZM89.7681 51L87.5522 48.1982L88.0067 47.7614L90.5778 51H89.7681ZM93.6042 51.1136C93.0952 51.1136 92.6549 50.9953 92.2832 50.7585C91.9115 50.5194 91.6239 50.1892 91.4203 49.7678C91.219 49.344 91.1184 48.8563 91.1184 48.3047C91.1184 47.7554 91.219 47.2678 91.4203 46.8416C91.6239 46.4131 91.9044 46.0781 92.2619 45.8366C92.6217 45.5928 93.0372 45.4709 93.5083 45.4709C93.8043 45.4709 94.0895 45.5253 94.3642 45.6342C94.6388 45.7408 94.885 45.9053 95.1028 46.1278C95.323 46.348 95.497 46.6262 95.6248 46.9624C95.7527 47.2962 95.8166 47.6915 95.8166 48.1484V48.4609H91.5552V47.9034H95.1703C95.1703 47.553 95.0993 47.2382 94.9572 46.9588C94.8175 46.6771 94.6222 46.4545 94.3713 46.2912C94.1227 46.1278 93.835 46.0462 93.5083 46.0462C93.1627 46.0462 92.8585 46.1385 92.5957 46.3232C92.3329 46.5078 92.127 46.7517 91.9778 47.0547C91.831 47.3577 91.7565 47.6892 91.7541 48.049V48.3828C91.7541 48.8161 91.8287 49.1948 91.9778 49.5192C92.1293 49.8411 92.3436 50.0909 92.6206 50.2685C92.8975 50.446 93.2254 50.5348 93.6042 50.5348C93.8623 50.5348 94.0884 50.4946 94.2825 50.4141C94.479 50.3336 94.6435 50.2259 94.7761 50.0909C94.911 49.9536 95.0128 49.8033 95.0815 49.6399L95.6816 49.8352C95.5988 50.0649 95.4627 50.2768 95.2733 50.4709C95.0862 50.665 94.8519 50.8213 94.5701 50.9396C94.2908 51.0556 93.9688 51.1136 93.6042 51.1136ZM101.545 51.1243C101.216 51.1243 100.916 51.0604 100.643 50.9325C100.371 50.8023 100.155 50.6153 99.9936 50.3714C99.8326 50.1252 99.7521 49.8269 99.7521 49.4766C99.7521 49.2067 99.803 48.9794 99.9048 48.7947C100.007 48.6101 100.151 48.4586 100.338 48.3402C100.525 48.2218 100.746 48.1283 101.002 48.0597C101.258 47.991 101.54 47.9377 101.847 47.8999C102.153 47.862 102.411 47.8288 102.621 47.8004C102.835 47.772 102.997 47.727 103.108 47.6655C103.219 47.6039 103.275 47.5045 103.275 47.3672V47.2393C103.275 46.8677 103.164 46.5753 102.941 46.3622C102.721 46.1468 102.404 46.0391 101.989 46.0391C101.596 46.0391 101.276 46.1255 101.027 46.2983C100.781 46.4711 100.608 46.6747 100.509 46.9091L99.9084 46.6925C100.031 46.3942 100.202 46.1562 100.42 45.9787C100.638 45.7988 100.881 45.6697 101.151 45.5916C101.421 45.5111 101.695 45.4709 101.972 45.4709C102.18 45.4709 102.397 45.4981 102.621 45.5526C102.849 45.607 103.059 45.7017 103.254 45.8366C103.448 45.9692 103.605 46.1551 103.726 46.3942C103.847 46.6309 103.907 46.9316 103.907 47.2962V51H103.275V50.1371H103.236C103.16 50.2981 103.048 50.4543 102.898 50.6058C102.749 50.7573 102.562 50.8816 102.337 50.9787C102.112 51.0758 101.848 51.1243 101.545 51.1243ZM101.631 50.5455C101.967 50.5455 102.258 50.4709 102.504 50.3217C102.75 50.1726 102.94 49.9749 103.072 49.7287C103.207 49.4801 103.275 49.2067 103.275 48.9084V48.12C103.228 48.165 103.148 48.2053 103.037 48.2408C102.928 48.2763 102.801 48.3082 102.657 48.3366C102.515 48.3627 102.373 48.3852 102.231 48.4041C102.089 48.4231 101.961 48.4396 101.847 48.4538C101.54 48.4917 101.277 48.5509 101.059 48.6314C100.841 48.7119 100.674 48.8232 100.558 48.9652C100.442 49.1049 100.384 49.2848 100.384 49.505C100.384 49.8364 100.503 50.0933 100.739 50.2756C100.976 50.4555 101.273 50.5455 101.631 50.5455ZM11.7794 63V55.7273H12.415V58.5859H12.4719C12.5429 58.4226 12.6447 58.2545 12.7773 58.0817C12.9122 57.9089 13.0886 57.7644 13.3064 57.6484C13.5265 57.5301 13.8035 57.4709 14.1373 57.4709C14.5848 57.4709 14.9778 57.5893 15.3163 57.826C15.6549 58.0604 15.9188 58.3894 16.1082 58.8132C16.2976 59.2346 16.3923 59.7259 16.3923 60.2869C16.3923 60.8504 16.2976 61.344 16.1082 61.7678C15.9212 62.1915 15.6584 62.5218 15.3199 62.7585C14.9837 62.9953 14.5931 63.1136 14.148 63.1136C13.8166 63.1136 13.5396 63.0545 13.317 62.9361C13.0969 62.8177 12.9193 62.6721 12.7844 62.4993C12.6494 62.3241 12.5452 62.1536 12.4719 61.9879H12.3937V63H11.7794ZM12.4044 60.2763C12.4044 60.7166 12.4695 61.1072 12.5997 61.4482C12.7323 61.7867 12.9217 62.053 13.1679 62.2472C13.4165 62.4389 13.7171 62.5348 14.0699 62.5348C14.4321 62.5348 14.7387 62.4354 14.9896 62.2365C15.2406 62.0353 15.4311 61.7642 15.5613 61.4233C15.6916 61.0824 15.7567 60.7 15.7567 60.2763C15.7567 59.8572 15.6916 59.4796 15.5613 59.1435C15.4335 58.8073 15.2441 58.541 14.9932 58.3445C14.7422 58.1456 14.4345 58.0462 14.0699 58.0462C13.7148 58.0462 13.4129 58.142 13.1643 58.3338C12.9181 58.5232 12.7299 58.786 12.5997 59.1222C12.4695 59.456 12.4044 59.8407 12.4044 60.2763ZM17.7808 63V57.5455H18.3952V58.3835H18.4413C18.5502 58.1089 18.7396 57.8875 19.0095 57.7195C19.2818 57.549 19.5895 57.4638 19.9328 57.4638C19.9849 57.4638 20.0429 57.465 20.1068 57.4673C20.1707 57.4697 20.224 57.4721 20.2666 57.4744V58.1172C20.2382 58.1125 20.1885 58.1054 20.1175 58.0959C20.0464 58.0864 19.9695 58.0817 19.8866 58.0817C19.6025 58.0817 19.3492 58.142 19.1267 58.2628C18.9065 58.3812 18.7325 58.5457 18.6047 58.7564C18.4768 58.9671 18.4129 59.2074 18.4129 59.4773V63H17.7808ZM23.3845 63.1136C22.8755 63.1136 22.4352 62.9953 22.0635 62.7585C21.6918 62.5194 21.4041 62.1892 21.2006 61.7678C20.9993 61.344 20.8987 60.8563 20.8987 60.3047C20.8987 59.7554 20.9993 59.2678 21.2006 58.8416C21.4041 58.4131 21.6847 58.0781 22.0422 57.8366C22.402 57.5928 22.8175 57.4709 23.2886 57.4709C23.5845 57.4709 23.8698 57.5253 24.1444 57.6342C24.4191 57.7408 24.6653 57.9053 24.8831 58.1278C25.1032 58.348 25.2773 58.6262 25.4051 58.9624C25.5329 59.2962 25.5969 59.6915 25.5969 60.1484V60.4609H21.3355V59.9034H24.9506C24.9506 59.553 24.8795 59.2382 24.7375 58.9588C24.5978 58.6771 24.4025 58.4545 24.1515 58.2912C23.903 58.1278 23.6153 58.0462 23.2886 58.0462C22.943 58.0462 22.6388 58.1385 22.376 58.3232C22.1132 58.5078 21.9072 58.7517 21.7581 59.0547C21.6113 59.3577 21.5367 59.6892 21.5344 60.049V60.3828C21.5344 60.8161 21.6089 61.1948 21.7581 61.5192C21.9096 61.8411 22.1238 62.0909 22.4008 62.2685C22.6778 62.446 23.0057 62.5348 23.3845 62.5348C23.6425 62.5348 23.8686 62.4946 24.0628 62.4141C24.2593 62.3336 24.4238 62.2259 24.5564 62.0909C24.6913 61.9536 24.7931 61.8033 24.8618 61.6399L25.4619 61.8352C25.3791 62.0649 25.2429 62.2768 25.0535 62.4709C24.8665 62.665 24.6321 62.8213 24.3504 62.9396C24.0711 63.0556 23.7491 63.1136 23.3845 63.1136ZM28.5132 63.1243C28.1842 63.1243 27.8835 63.0604 27.6112 62.9325C27.339 62.8023 27.1224 62.6153 26.9614 62.3714C26.8004 62.1252 26.7199 61.8269 26.7199 61.4766C26.7199 61.2067 26.7708 60.9794 26.8726 60.7947C26.9744 60.6101 27.1188 60.4586 27.3058 60.3402C27.4929 60.2218 27.7142 60.1283 27.9699 60.0597C28.2256 59.991 28.5073 59.9377 28.8151 59.8999C29.1205 59.862 29.3785 59.8288 29.5892 59.8004C29.8023 59.772 29.9645 59.727 30.0757 59.6655C30.187 59.6039 30.2426 59.5045 30.2426 59.3672V59.2393C30.2426 58.8677 30.1314 58.5753 29.9088 58.3622C29.6887 58.1468 29.3714 58.0391 28.9571 58.0391C28.5641 58.0391 28.2433 58.1255 27.9948 58.2983C27.7485 58.4711 27.5757 58.6747 27.4763 58.9091L26.8762 58.6925C26.9993 58.3942 27.1697 58.1562 27.3875 57.9787C27.6053 57.7988 27.8492 57.6697 28.1191 57.5916C28.3889 57.5111 28.6624 57.4709 28.9394 57.4709C29.1477 57.4709 29.3643 57.4981 29.5892 57.5526C29.8165 57.607 30.0272 57.7017 30.2213 57.8366C30.4155 57.9692 30.5729 58.1551 30.6936 58.3942C30.8144 58.6309 30.8747 58.9316 30.8747 59.2962V63H30.2426V62.1371H30.2036C30.1278 62.2981 30.0154 62.4543 29.8662 62.6058C29.7171 62.7573 29.53 62.8816 29.3051 62.9787C29.0802 63.0758 28.8163 63.1243 28.5132 63.1243ZM28.5985 62.5455C28.9346 62.5455 29.2258 62.4709 29.472 62.3217C29.7182 62.1726 29.9076 61.9749 30.0402 61.7287C30.1752 61.4801 30.2426 61.2067 30.2426 60.9084V60.12C30.1953 60.165 30.116 60.2053 30.0047 60.2408C29.8958 60.2763 29.7691 60.3082 29.6247 60.3366C29.4827 60.3627 29.3406 60.3852 29.1986 60.4041C29.0566 60.4231 28.9287 60.4396 28.8151 60.4538C28.5073 60.4917 28.2445 60.5509 28.0267 60.6314C27.8089 60.7119 27.642 60.8232 27.526 60.9652C27.41 61.1049 27.352 61.2848 27.352 61.505C27.352 61.8364 27.4704 62.0933 27.7071 62.2756C27.9439 62.4555 28.241 62.5455 28.5985 62.5455ZM33.1315 60.9403L33.1244 60.1129H33.2664L35.8232 57.5455H36.6222L34.0974 60.0739L34.0406 60.0845L33.1315 60.9403ZM32.5562 63V55.7273H33.1883V63H32.5562ZM35.9546 63L33.7387 60.1982L34.1933 59.7614L36.7643 63H35.9546ZM40.6297 63V57.5455H41.2654V63H40.6297ZM40.9529 56.608C40.8227 56.608 40.7114 56.5642 40.6191 56.4766C40.5267 56.3866 40.4806 56.2789 40.4806 56.1534C40.4806 56.0279 40.5267 55.9214 40.6191 55.8338C40.7114 55.7438 40.8227 55.6989 40.9529 55.6989C41.0831 55.6989 41.1943 55.7438 41.2867 55.8338C41.379 55.9214 41.4252 56.0279 41.4252 56.1534C41.4252 56.2789 41.379 56.3866 41.2867 56.4766C41.1943 56.5642 41.0831 56.608 40.9529 56.608ZM43.5692 59.5909V63H42.9371V57.5455H43.5514V58.4013H43.6082C43.7361 58.1219 43.9349 57.8982 44.2048 57.7301C44.4771 57.5597 44.8132 57.4744 45.2133 57.4744C45.5803 57.4744 45.9023 57.5514 46.1792 57.7053C46.4586 57.8568 46.6752 58.0805 46.8291 58.3764C46.9854 58.6723 47.0635 59.0357 47.0635 59.4666V63H46.4314V59.5057C46.4314 59.0582 46.3059 58.7043 46.055 58.4439C45.8064 58.1835 45.4726 58.0533 45.0535 58.0533C44.7671 58.0533 44.5126 58.1148 44.29 58.2379C44.0675 58.361 43.8911 58.5386 43.7609 58.7706C43.6331 59.0002 43.5692 59.2737 43.5692 59.5909ZM53.6713 63.1136C53.1836 63.1136 52.7586 62.9917 52.3964 62.7479C52.0365 62.504 51.7572 62.1702 51.5583 61.7464C51.3595 61.3227 51.26 60.8397 51.26 60.2976C51.26 59.7507 51.3606 59.2642 51.5619 58.8381C51.7655 58.4119 52.0472 58.0781 52.407 57.8366C52.7669 57.5928 53.1847 57.4709 53.6606 57.4709C54.0252 57.4709 54.3554 57.5419 54.6514 57.6839C54.9473 57.8236 55.1911 58.0213 55.3829 58.277C55.577 58.5303 55.699 58.8262 55.7487 59.1648H55.1095C55.0432 58.857 54.8834 58.5942 54.6301 58.3764C54.3791 58.1562 54.0595 58.0462 53.6713 58.0462C53.3232 58.0462 53.0155 58.1409 52.748 58.3303C52.4804 58.5173 52.2709 58.7789 52.1194 59.1151C51.9703 59.4489 51.8957 59.8359 51.8957 60.2763C51.8957 60.719 51.9691 61.1108 52.1159 61.4517C52.2626 61.7902 52.4686 62.0554 52.7338 62.2472C53.0013 62.4389 53.3138 62.5348 53.6713 62.5348C53.9127 62.5348 54.1329 62.4898 54.3318 62.3999C54.533 62.3075 54.7011 62.1773 54.836 62.0092C54.9733 61.8411 55.0657 61.6411 55.113 61.4091H55.7522C55.7049 61.7382 55.5877 62.0317 55.4007 62.2898C55.216 62.5455 54.9757 62.7467 54.6798 62.8935C54.3862 63.0402 54.05 63.1136 53.6713 63.1136ZM57.7391 55.7273V63H57.107V55.7273H57.7391ZM60.9351 63.1243C60.606 63.1243 60.3054 63.0604 60.0331 62.9325C59.7609 62.8023 59.5442 62.6153 59.3833 62.3714C59.2223 62.1252 59.1418 61.8269 59.1418 61.4766C59.1418 61.2067 59.1927 60.9794 59.2945 60.7947C59.3963 60.6101 59.5407 60.4586 59.7277 60.3402C59.9147 60.2218 60.1361 60.1283 60.3918 60.0597C60.6475 59.991 60.9292 59.9377 61.2369 59.8999C61.5423 59.862 61.8004 59.8288 62.0111 59.8004C62.2242 59.772 62.3863 59.727 62.4976 59.6655C62.6089 59.6039 62.6645 59.5045 62.6645 59.3672V59.2393C62.6645 58.8677 62.5532 58.5753 62.3307 58.3622C62.1105 58.1468 61.7933 58.0391 61.379 58.0391C60.986 58.0391 60.6652 58.1255 60.4166 58.2983C60.1704 58.4711 59.9976 58.6747 59.8982 58.9091L59.298 58.6925C59.4211 58.3942 59.5916 58.1562 59.8094 57.9787C60.0272 57.7988 60.271 57.6697 60.5409 57.5916C60.8108 57.5111 61.0843 57.4709 61.3612 57.4709C61.5696 57.4709 61.7862 57.4981 62.0111 57.5526C62.2384 57.607 62.4491 57.7017 62.6432 57.8366C62.8373 57.9692 62.9948 58.1551 63.1155 58.3942C63.2362 58.6309 63.2966 58.9316 63.2966 59.2962V63H62.6645V62.1371H62.6254C62.5497 62.2981 62.4372 62.4543 62.2881 62.6058C62.1389 62.7573 61.9519 62.8816 61.727 62.9787C61.5021 63.0758 61.2381 63.1243 60.9351 63.1243ZM61.0203 62.5455C61.3565 62.5455 61.6477 62.4709 61.8939 62.3217C62.1401 62.1726 62.3295 61.9749 62.4621 61.7287C62.597 61.4801 62.6645 61.2067 62.6645 60.9084V60.12C62.6172 60.165 62.5378 60.2053 62.4266 60.2408C62.3177 60.2763 62.191 60.3082 62.0466 60.3366C61.9046 60.3627 61.7625 60.3852 61.6205 60.4041C61.4784 60.4231 61.3506 60.4396 61.2369 60.4538C60.9292 60.4917 60.6664 60.5509 60.4486 60.6314C60.2308 60.7119 60.0639 60.8232 59.9479 60.9652C59.8319 61.1049 59.7739 61.2848 59.7739 61.505C59.7739 61.8364 59.8923 62.0933 60.129 62.2756C60.3657 62.4555 60.6628 62.5455 61.0203 62.5455ZM68.6428 58.7422L68.064 58.9055C68.0072 58.7422 67.9267 58.5942 67.8225 58.4616C67.7184 58.3291 67.5822 58.2237 67.4142 58.1456C67.2484 58.0675 67.0425 58.0284 66.7963 58.0284C66.4269 58.0284 66.1239 58.116 65.8872 58.2912C65.6504 58.4664 65.532 58.6925 65.532 58.9695C65.532 59.2038 65.6125 59.3944 65.7735 59.5412C65.9369 59.6856 66.1878 59.8004 66.5264 59.8857L67.3502 60.0881C67.8071 60.1993 68.1492 60.3757 68.3765 60.6172C68.6061 60.8587 68.721 61.1617 68.721 61.5263C68.721 61.834 68.6357 62.1075 68.4653 62.3466C68.2948 62.5857 68.0569 62.7739 67.7515 62.9112C67.4485 63.0462 67.0969 63.1136 66.6968 63.1136C66.1642 63.1136 65.725 62.9941 65.3794 62.755C65.0337 62.5135 64.8124 62.1655 64.7153 61.7109L65.3225 61.5618C65.4007 61.8861 65.5534 62.1312 65.7806 62.2969C66.0103 62.4626 66.3121 62.5455 66.6862 62.5455C67.1052 62.5455 67.4402 62.4519 67.6911 62.2649C67.9421 62.0755 68.0676 61.8388 68.0676 61.5547C68.0676 61.3345 67.9942 61.1499 67.8474 61.0007C67.7006 60.8492 67.4781 60.7379 67.1798 60.6669L66.2884 60.4538C65.815 60.3402 65.4646 60.1603 65.2373 59.9141C65.01 59.6679 64.8964 59.3625 64.8964 58.9979C64.8964 58.6972 64.9781 58.4332 65.1414 58.206C65.3048 57.9763 65.5297 57.7964 65.8161 57.6662C66.1026 57.536 66.4293 57.4709 66.7963 57.4709C67.2958 57.4709 67.6947 57.5845 67.993 57.8118C68.2936 58.0367 68.5103 58.3468 68.6428 58.7422ZM73.7698 58.7422L73.191 58.9055C73.1341 58.7422 73.0537 58.5942 72.9495 58.4616C72.8453 58.3291 72.7092 58.2237 72.5411 58.1456C72.3754 58.0675 72.1694 58.0284 71.9232 58.0284C71.5539 58.0284 71.2509 58.116 71.0141 58.2912C70.7774 58.4664 70.659 58.6925 70.659 58.9695C70.659 59.2038 70.7395 59.3944 70.9005 59.5412C71.0638 59.6856 71.3148 59.8004 71.6533 59.8857L72.4772 60.0881C72.9341 60.1993 73.2762 60.3757 73.5035 60.6172C73.7331 60.8587 73.8479 61.1617 73.8479 61.5263C73.8479 61.834 73.7627 62.1075 73.5922 62.3466C73.4218 62.5857 73.1839 62.7739 72.8785 62.9112C72.5754 63.0462 72.2239 63.1136 71.8238 63.1136C71.2911 63.1136 70.8519 62.9941 70.5063 62.755C70.1607 62.5135 69.9393 62.1655 69.8422 61.7109L70.4495 61.5618C70.5276 61.8861 70.6803 62.1312 70.9076 62.2969C71.1372 62.4626 71.4391 62.5455 71.8131 62.5455C72.2322 62.5455 72.5671 62.4519 72.8181 62.2649C73.069 62.0755 73.1945 61.8388 73.1945 61.5547C73.1945 61.3345 73.1211 61.1499 72.9743 61.0007C72.8276 60.8492 72.605 60.7379 72.3067 60.6669L71.4154 60.4538C70.9419 60.3402 70.5915 60.1603 70.3643 59.9141C70.137 59.6679 70.0233 59.3625 70.0233 58.9979C70.0233 58.6972 70.105 58.4332 70.2684 58.206C70.4317 57.9763 70.6566 57.7964 70.9431 57.6662C71.2296 57.536 71.5563 57.4709 71.9232 57.4709C72.4227 57.4709 72.8216 57.5845 73.1199 57.8118C73.4206 58.0367 73.6372 58.3468 73.7698 58.7422ZM80.1752 63.1136C79.6875 63.1136 79.2625 62.9917 78.9003 62.7479C78.5405 62.504 78.2611 62.1702 78.0622 61.7464C77.8634 61.3227 77.7639 60.8397 77.7639 60.2976C77.7639 59.7507 77.8646 59.2642 78.0658 58.8381C78.2694 58.4119 78.5511 58.0781 78.911 57.8366C79.2708 57.5928 79.6887 57.4709 80.1645 57.4709C80.5291 57.4709 80.8593 57.5419 81.1553 57.6839C81.4512 57.8236 81.695 58.0213 81.8868 58.277C82.0809 58.5303 82.2029 58.8262 82.2526 59.1648H81.6134C81.5471 58.857 81.3873 58.5942 81.134 58.3764C80.883 58.1562 80.5634 58.0462 80.1752 58.0462C79.8271 58.0462 79.5194 58.1409 79.2519 58.3303C78.9843 58.5173 78.7748 58.7789 78.6233 59.1151C78.4742 59.4489 78.3996 59.8359 78.3996 60.2763C78.3996 60.719 78.473 61.1108 78.6198 61.4517C78.7665 61.7902 78.9725 62.0554 79.2377 62.2472C79.5052 62.4389 79.8177 62.5348 80.1752 62.5348C80.4166 62.5348 80.6368 62.4898 80.8357 62.3999C81.0369 62.3075 81.205 62.1773 81.3399 62.0092C81.4772 61.8411 81.5696 61.6411 81.6169 61.4091H82.2561C82.2088 61.7382 82.0916 62.0317 81.9046 62.2898C81.7199 62.5455 81.4796 62.7467 81.1837 62.8935C80.8901 63.0402 80.5539 63.1136 80.1752 63.1136ZM85.7309 63.1136C85.2598 63.1136 84.8431 62.9941 84.4809 62.755C84.1211 62.5159 83.8393 62.1856 83.6357 61.7642C83.4321 61.3404 83.3303 60.8516 83.3303 60.2976C83.3303 59.7389 83.4321 59.2476 83.6357 58.8239C83.8393 58.3977 84.1211 58.0663 84.4809 57.8295C84.8431 57.5904 85.2598 57.4709 85.7309 57.4709C86.202 57.4709 86.6175 57.5904 86.9774 57.8295C87.3372 58.0687 87.6189 58.4001 87.8225 58.8239C88.0285 59.2476 88.1315 59.7389 88.1315 60.2976C88.1315 60.8516 88.0297 61.3404 87.8261 61.7642C87.6225 62.1856 87.3396 62.5159 86.9774 62.755C86.6175 62.9941 86.202 63.1136 85.7309 63.1136ZM85.7309 62.5348C86.1097 62.5348 86.4305 62.433 86.6933 62.2294C86.9561 62.0258 87.1549 61.7547 87.2899 61.4162C87.4272 61.0777 87.4958 60.7048 87.4958 60.2976C87.4958 59.8904 87.4272 59.5163 87.2899 59.1754C87.1549 58.8345 86.9561 58.5611 86.6933 58.3551C86.4305 58.1491 86.1097 58.0462 85.7309 58.0462C85.3545 58.0462 85.0337 58.1491 84.7686 58.3551C84.5058 58.5611 84.3057 58.8345 84.1684 59.1754C84.0335 59.5163 83.966 59.8904 83.966 60.2976C83.966 60.7048 84.0335 61.0777 84.1684 61.4162C84.3057 61.7547 84.5058 62.0258 84.7686 62.2294C85.0313 62.433 85.3521 62.5348 85.7309 62.5348ZM90.1512 59.5909V63H89.5191V57.5455H90.1334V58.4013H90.1903C90.3181 58.1219 90.517 57.8982 90.7868 57.7301C91.0591 57.5597 91.3953 57.4744 91.7954 57.4744C92.1623 57.4744 92.4843 57.5514 92.7613 57.7053C93.0406 57.8568 93.2573 58.0805 93.4111 58.3764C93.5674 58.6723 93.6455 59.0357 93.6455 59.4666V63H93.0134V59.5057C93.0134 59.0582 92.8879 58.7043 92.637 58.4439C92.3884 58.1835 92.0546 58.0533 91.6356 58.0533C91.3491 58.0533 91.0946 58.1148 90.8721 58.2379C90.6495 58.361 90.4732 58.5386 90.343 58.7706C90.2151 59.0002 90.1512 59.2737 90.1512 59.5909ZM97.4585 57.5455V58.0959H94.8556V57.5455H97.4585ZM95.6688 56.2386H96.3044V61.576C96.3044 61.8033 96.3435 61.982 96.4216 62.1122C96.4997 62.2401 96.6015 62.3312 96.727 62.3857C96.8525 62.4377 96.9862 62.4638 97.1283 62.4638C97.2111 62.4638 97.2822 62.459 97.3414 62.4496C97.4005 62.4377 97.4526 62.4259 97.4976 62.4141L97.6325 62.9858C97.571 63.0095 97.4952 63.0308 97.4053 63.0497C97.3153 63.071 97.204 63.0817 97.0715 63.0817C96.8395 63.0817 96.6157 63.0308 96.4003 62.929C96.1872 62.8272 96.012 62.6757 95.8747 62.4744C95.7374 62.2732 95.6688 62.0234 95.6688 61.7251V56.2386ZM101.041 63.1136C100.532 63.1136 100.091 62.9953 99.7197 62.7585C99.348 62.5194 99.0604 62.1892 98.8568 61.7678C98.6556 61.344 98.555 60.8563 98.555 60.3047C98.555 59.7554 98.6556 59.2678 98.8568 58.8416C99.0604 58.4131 99.3409 58.0781 99.6984 57.8366C100.058 57.5928 100.474 57.4709 100.945 57.4709C101.241 57.4709 101.526 57.5253 101.801 57.6342C102.075 57.7408 102.322 57.9053 102.539 58.1278C102.759 58.348 102.934 58.6262 103.061 58.9624C103.189 59.2962 103.253 59.6915 103.253 60.1484V60.4609H98.9917V59.9034H102.607C102.607 59.553 102.536 59.2382 102.394 58.9588C102.254 58.6771 102.059 58.4545 101.808 58.2912C101.559 58.1278 101.272 58.0462 100.945 58.0462C100.599 58.0462 100.295 58.1385 100.032 58.3232C99.7694 58.5078 99.5635 58.7517 99.4143 59.0547C99.2675 59.3577 99.193 59.6892 99.1906 60.049V60.3828C99.1906 60.8161 99.2652 61.1948 99.4143 61.5192C99.5658 61.8411 99.7801 62.0909 100.057 62.2685C100.334 62.446 100.662 62.5348 101.041 62.5348C101.299 62.5348 101.525 62.4946 101.719 62.4141C101.916 62.3336 102.08 62.2259 102.213 62.0909C102.348 61.9536 102.449 61.8033 102.518 61.6399L103.118 61.8352C103.035 62.0649 102.899 62.2768 102.71 62.4709C102.523 62.665 102.288 62.8213 102.007 62.9396C101.727 63.0556 101.405 63.1136 101.041 63.1136ZM105.278 59.5909V63H104.646V57.5455H105.26V58.4013H105.317C105.445 58.1219 105.644 57.8982 105.914 57.7301C106.186 57.5597 106.522 57.4744 106.922 57.4744C107.289 57.4744 107.611 57.5514 107.888 57.7053C108.168 57.8568 108.384 58.0805 108.538 58.3764C108.694 58.6723 108.772 59.0357 108.772 59.4666V63H108.14V59.5057C108.14 59.0582 108.015 58.7043 107.764 58.4439C107.515 58.1835 107.182 58.0533 106.763 58.0533C106.476 58.0533 106.222 58.1148 105.999 58.2379C105.776 58.361 105.6 58.5386 105.47 58.7706C105.342 59.0002 105.278 59.2737 105.278 59.5909ZM112.585 57.5455V58.0959H109.983V57.5455H112.585ZM110.796 56.2386H111.431V61.576C111.431 61.8033 111.47 61.982 111.549 62.1122C111.627 62.2401 111.728 62.3312 111.854 62.3857C111.979 62.4377 112.113 62.4638 112.255 62.4638C112.338 62.4638 112.409 62.459 112.468 62.4496C112.527 62.4377 112.58 62.4259 112.625 62.4141L112.759 62.9858C112.698 63.0095 112.622 63.0308 112.532 63.0497C112.442 63.071 112.331 63.0817 112.198 63.0817C111.966 63.0817 111.743 63.0308 111.527 62.929C111.314 62.8272 111.139 62.6757 111.002 62.4744C110.864 62.2732 110.796 62.0234 110.796 61.7251V56.2386ZM23.5665 71.5838V72.1804H20.5409V71.5838H23.5665ZM30.1148 69.5455V70.0959H27.5118V69.5455H30.1148ZM28.325 68.2386H28.9607V73.576C28.9607 73.8033 28.9997 73.982 29.0779 74.1122C29.156 74.2401 29.2578 74.3312 29.3833 74.3857C29.5087 74.4377 29.6425 74.4638 29.7845 74.4638C29.8674 74.4638 29.9384 74.459 29.9976 74.4496C30.0568 74.4377 30.1089 74.4259 30.1539 74.4141L30.2888 74.9858C30.2272 75.0095 30.1515 75.0308 30.0615 75.0497C29.9716 75.071 29.8603 75.0817 29.7277 75.0817C29.4957 75.0817 29.272 75.0308 29.0566 74.929C28.8435 74.8272 28.6683 74.6757 28.531 74.4744C28.3937 74.2732 28.325 74.0234 28.325 73.7251V68.2386ZM32.2996 71.5909V75H31.6675V67.7273H32.2996V70.4013H32.3564C32.4843 70.1196 32.682 69.8946 32.9495 69.7266C33.2194 69.5585 33.5603 69.4744 33.9722 69.4744C34.3415 69.4744 34.6659 69.5502 34.9452 69.7017C35.2246 69.8532 35.4424 70.0769 35.5986 70.3729C35.7549 70.6688 35.833 71.0334 35.833 71.4666V75H35.1974V71.5057C35.1974 71.0559 35.0719 70.7019 34.8209 70.4439C34.5724 70.1835 34.2362 70.0533 33.8124 70.0533C33.5212 70.0533 33.262 70.1148 33.0347 70.2379C32.8074 70.361 32.6275 70.5386 32.4949 70.7706C32.3647 71.0002 32.2996 71.2737 32.2996 71.5909ZM39.7029 75.1136C39.1939 75.1136 38.7535 74.9953 38.3818 74.7585C38.0102 74.5194 37.7225 74.1892 37.5189 73.7678C37.3177 73.344 37.2171 72.8563 37.2171 72.3047C37.2171 71.7554 37.3177 71.2678 37.5189 70.8416C37.7225 70.4131 38.003 70.0781 38.3605 69.8366C38.7204 69.5928 39.1359 69.4709 39.607 69.4709C39.9029 69.4709 40.1882 69.5253 40.4628 69.6342C40.7374 69.7408 40.9836 69.9053 41.2014 70.1278C41.4216 70.348 41.5956 70.6262 41.7235 70.9624C41.8513 71.2962 41.9152 71.6915 41.9152 72.1484V72.4609H37.6539V71.9034H41.2689C41.2689 71.553 41.1979 71.2382 41.0558 70.9588C40.9162 70.6771 40.7209 70.4545 40.4699 70.2912C40.2213 70.1278 39.9337 70.0462 39.607 70.0462C39.2613 70.0462 38.9571 70.1385 38.6943 70.3232C38.4316 70.5078 38.2256 70.7517 38.0764 71.0547C37.9297 71.3577 37.8551 71.6892 37.8527 72.049V72.3828C37.8527 72.8161 37.9273 73.1948 38.0764 73.5192C38.228 73.8411 38.4422 74.0909 38.7192 74.2685C38.9962 74.446 39.3241 74.5348 39.7029 74.5348C39.9609 74.5348 40.187 74.4946 40.3811 74.4141C40.5776 74.3336 40.7422 74.2259 40.8747 74.0909C41.0097 73.9536 41.1115 73.8033 41.1801 73.6399L41.7803 73.8352C41.6974 74.0649 41.5613 74.2768 41.3719 74.4709C41.1849 74.665 40.9505 74.8213 40.6688 74.9396C40.3894 75.0556 40.0674 75.1136 39.7029 75.1136ZM50.343 69.5455L48.3508 75H47.676L45.6839 69.5455H46.3692L47.9885 74.1655H48.0383L49.6576 69.5455H50.343ZM51.5867 75V69.5455H52.2224V75H51.5867ZM51.9099 68.608C51.7797 68.608 51.6684 68.5642 51.5761 68.4766C51.4838 68.3866 51.4376 68.2789 51.4376 68.1534C51.4376 68.0279 51.4838 67.9214 51.5761 67.8338C51.6684 67.7438 51.7797 67.6989 51.9099 67.6989C52.0401 67.6989 52.1514 67.7438 52.2437 67.8338C52.336 67.9214 52.3822 68.0279 52.3822 68.1534C52.3822 68.2789 52.336 68.3866 52.2437 68.4766C52.1514 68.5642 52.0401 68.608 51.9099 68.608ZM55.8579 75.1136C55.4104 75.1136 55.0186 74.9953 54.6824 74.7585C54.3463 74.5218 54.0835 74.1915 53.8941 73.7678C53.7071 73.344 53.6135 72.8504 53.6135 72.2869C53.6135 71.7259 53.7071 71.2346 53.8941 70.8132C54.0835 70.3894 54.3474 70.0604 54.686 69.826C55.0245 69.5893 55.4187 69.4709 55.8685 69.4709C56.2 69.4709 56.4758 69.5301 56.6959 69.6484C56.9161 69.7644 57.0925 69.9089 57.2251 70.0817C57.3576 70.2545 57.4606 70.4226 57.534 70.5859H57.5908V67.7273H58.2265V75H57.6086V73.9879H57.534C57.4606 74.1536 57.3564 74.3241 57.2215 74.4993C57.0866 74.6721 56.9078 74.8177 56.6853 74.9361C56.4651 75.0545 56.1893 75.1136 55.8579 75.1136ZM55.9324 74.5348C56.2852 74.5348 56.5858 74.4389 56.8344 74.2472C57.083 74.053 57.2724 73.7867 57.4026 73.4482C57.5352 73.1072 57.6015 72.7166 57.6015 72.2763C57.6015 71.8407 57.5364 71.456 57.4062 71.1222C57.276 70.786 57.0866 70.5232 56.838 70.3338C56.5894 70.142 56.2876 70.0462 55.9324 70.0462C55.5679 70.0462 55.2601 70.1456 55.0091 70.3445C54.7606 70.541 54.5712 70.8073 54.441 71.1435C54.3131 71.4796 54.2492 71.8572 54.2492 72.2763C54.2492 72.7 54.3143 73.0824 54.4445 73.4233C54.5747 73.7642 54.7641 74.0353 55.0127 74.2365C55.2636 74.4354 55.5702 74.5348 55.9324 74.5348ZM62.2322 75.1136C61.7232 75.1136 61.2828 74.9953 60.9111 74.7585C60.5394 74.5194 60.2518 74.1892 60.0482 73.7678C59.847 73.344 59.7464 72.8563 59.7464 72.3047C59.7464 71.7554 59.847 71.2678 60.0482 70.8416C60.2518 70.4131 60.5323 70.0781 60.8898 69.8366C61.2497 69.5928 61.6652 69.4709 62.1363 69.4709C62.4322 69.4709 62.7175 69.5253 62.9921 69.6342C63.2667 69.7408 63.5129 69.9053 63.7307 70.1278C63.9509 70.348 64.1249 70.6262 64.2528 70.9624C64.3806 71.2962 64.4445 71.6915 64.4445 72.1484V72.4609H60.1831V71.9034H63.7982C63.7982 71.553 63.7272 71.2382 63.5851 70.9588C63.4455 70.6771 63.2501 70.4545 62.9992 70.2912C62.7506 70.1278 62.463 70.0462 62.1363 70.0462C61.7906 70.0462 61.4864 70.1385 61.2236 70.3232C60.9608 70.5078 60.7549 70.7517 60.6057 71.0547C60.459 71.3577 60.3844 71.6892 60.382 72.049V72.3828C60.382 72.8161 60.4566 73.1948 60.6057 73.5192C60.7573 73.8411 60.9715 74.0909 61.2485 74.2685C61.5255 74.446 61.8534 74.5348 62.2322 74.5348C62.4902 74.5348 62.7163 74.4946 62.9104 74.4141C63.1069 74.3336 63.2715 74.2259 63.404 74.0909C63.539 73.9536 63.6408 73.8033 63.7094 73.6399L64.3096 73.8352C64.2267 74.0649 64.0906 74.2768 63.9012 74.4709C63.7142 74.665 63.4798 74.8213 63.1981 74.9396C62.9187 75.0556 62.5967 75.1136 62.2322 75.1136ZM67.9575 75.1136C67.4864 75.1136 67.0697 74.9941 66.7075 74.755C66.3476 74.5159 66.0659 74.1856 65.8623 73.7642C65.6587 73.3404 65.5569 72.8516 65.5569 72.2976C65.5569 71.7389 65.6587 71.2476 65.8623 70.8239C66.0659 70.3977 66.3476 70.0663 66.7075 69.8295C67.0697 69.5904 67.4864 69.4709 67.9575 69.4709C68.4286 69.4709 68.8441 69.5904 69.2039 69.8295C69.5638 70.0687 69.8455 70.4001 70.0491 70.8239C70.2551 71.2476 70.358 71.7389 70.358 72.2976C70.358 72.8516 70.2562 73.3404 70.0526 73.7642C69.849 74.1856 69.5661 74.5159 69.2039 74.755C68.8441 74.9941 68.4286 75.1136 67.9575 75.1136ZM67.9575 74.5348C68.3363 74.5348 68.657 74.433 68.9198 74.2294C69.1826 74.0258 69.3815 73.7547 69.5164 73.4162C69.6537 73.0777 69.7224 72.7048 69.7224 72.2976C69.7224 71.8904 69.6537 71.5163 69.5164 71.1754C69.3815 70.8345 69.1826 70.5611 68.9198 70.3551C68.657 70.1491 68.3363 70.0462 67.9575 70.0462C67.5811 70.0462 67.2603 70.1491 66.9951 70.3551C66.7323 70.5611 66.5323 70.8345 66.395 71.1754C66.26 71.5163 66.1926 71.8904 66.1926 72.2976C66.1926 72.7048 66.26 73.0777 66.395 73.4162C66.5323 73.7547 66.7323 74.0258 66.9951 74.2294C67.2579 74.433 67.5787 74.5348 67.9575 74.5348ZM76.8025 69.5455V70.0959H74.1214V69.5455H76.8025ZM74.9594 75V68.7464C74.9594 68.4529 75.0269 68.2055 75.1618 68.0043C75.2992 67.803 75.4779 67.6503 75.6981 67.5462C75.9182 67.442 76.1514 67.3899 76.3976 67.3899C76.5634 67.3899 76.7007 67.4041 76.8096 67.4325C76.9208 67.4586 77.0084 67.4846 77.0724 67.5107L76.8877 68.0646C76.8403 68.0504 76.7823 68.0339 76.7137 68.0149C76.645 67.996 76.5586 67.9865 76.4545 67.9865C76.1798 67.9865 75.968 68.0634 75.8188 68.2173C75.6697 68.3712 75.5951 68.5914 75.5951 68.8778L75.5915 75H74.9594ZM79.9594 75.1136C79.4883 75.1136 79.0716 74.9941 78.7094 74.755C78.3496 74.5159 78.0679 74.1856 77.8643 73.7642C77.6607 73.3404 77.5589 72.8516 77.5589 72.2976C77.5589 71.7389 77.6607 71.2476 77.8643 70.8239C78.0679 70.3977 78.3496 70.0663 78.7094 69.8295C79.0716 69.5904 79.4883 69.4709 79.9594 69.4709C80.4305 69.4709 80.846 69.5904 81.2059 69.8295C81.5657 70.0687 81.8474 70.4001 82.051 70.8239C82.257 71.2476 82.36 71.7389 82.36 72.2976C82.36 72.8516 82.2582 73.3404 82.0546 73.7642C81.851 74.1856 81.5681 74.5159 81.2059 74.755C80.846 74.9941 80.4305 75.1136 79.9594 75.1136ZM79.9594 74.5348C80.3382 74.5348 80.659 74.433 80.9218 74.2294C81.1846 74.0258 81.3834 73.7547 81.5184 73.4162C81.6557 73.0777 81.7243 72.7048 81.7243 72.2976C81.7243 71.8904 81.6557 71.5163 81.5184 71.1754C81.3834 70.8345 81.1846 70.5611 80.9218 70.3551C80.659 70.1491 80.3382 70.0462 79.9594 70.0462C79.583 70.0462 79.2622 70.1491 78.9971 70.3551C78.7343 70.5611 78.5342 70.8345 78.3969 71.1754C78.262 71.5163 78.1945 71.8904 78.1945 72.2976C78.1945 72.7048 78.262 73.0777 78.3969 73.4162C78.5342 73.7547 78.7343 74.0258 78.9971 74.2294C79.2599 74.433 79.5806 74.5348 79.9594 74.5348ZM83.7476 75V69.5455H84.3619V70.3835H84.4081C84.517 70.1089 84.7064 69.8875 84.9763 69.7195C85.2485 69.549 85.5563 69.4638 85.8996 69.4638C85.9517 69.4638 86.0097 69.465 86.0736 69.4673C86.1375 69.4697 86.1908 69.4721 86.2334 69.4744V70.1172C86.205 70.1125 86.1553 70.1054 86.0843 70.0959C86.0132 70.0864 85.9363 70.0817 85.8534 70.0817C85.5693 70.0817 85.316 70.142 85.0935 70.2628C84.8733 70.3812 84.6993 70.5457 84.5715 70.7564C84.4436 70.9671 84.3797 71.2074 84.3797 71.4773V75H83.7476ZM87.3121 75V69.5455H87.9264V70.3835H87.9832C88.0921 70.1018 88.2732 69.8804 88.5265 69.7195C88.7822 69.5561 89.0888 69.4744 89.4463 69.4744C89.8227 69.4744 90.1317 69.5632 90.3731 69.7408C90.617 69.916 90.7993 70.1574 90.92 70.4652H90.9662C91.0893 70.1622 91.2893 69.9219 91.5663 69.7443C91.8457 69.5644 92.1842 69.4744 92.5819 69.4744C93.0886 69.4744 93.4887 69.6342 93.7822 69.9538C94.0758 70.2711 94.2226 70.7351 94.2226 71.3459V75H93.5905V71.3459C93.5905 70.915 93.4804 70.5919 93.2602 70.3764C93.04 70.161 92.75 70.0533 92.3902 70.0533C91.9735 70.0533 91.6527 70.1811 91.4278 70.4368C91.2029 70.6925 91.0905 71.0168 91.0905 71.4098V75H90.4442V71.2891C90.4442 70.9197 90.3412 70.6214 90.1352 70.3942C89.9292 70.1669 89.6392 70.0533 89.2652 70.0533C89.0142 70.0533 88.7881 70.1148 88.5869 70.2379C88.3881 70.361 88.2306 70.5327 88.1146 70.7528C88.001 70.9706 87.9442 71.2216 87.9442 71.5057V75H87.3121ZM97.4195 75.1243C97.0904 75.1243 96.7897 75.0604 96.5175 74.9325C96.2452 74.8023 96.0286 74.6153 95.8676 74.3714C95.7066 74.1252 95.6262 73.8269 95.6262 73.4766C95.6262 73.2067 95.6771 72.9794 95.7789 72.7947C95.8807 72.6101 96.0251 72.4586 96.2121 72.3402C96.3991 72.2218 96.6205 72.1283 96.8762 72.0597C97.1318 71.991 97.4136 71.9377 97.7213 71.8999C98.0267 71.862 98.2848 71.8288 98.4955 71.8004C98.7085 71.772 98.8707 71.727 98.982 71.6655C99.0932 71.6039 99.1489 71.5045 99.1489 71.3672V71.2393C99.1489 70.8677 99.0376 70.5753 98.8151 70.3622C98.5949 70.1468 98.2777 70.0391 97.8634 70.0391C97.4704 70.0391 97.1496 70.1255 96.901 70.2983C96.6548 70.4711 96.482 70.6747 96.3825 70.9091L95.7824 70.6925C95.9055 70.3942 96.076 70.1562 96.2938 69.9787C96.5116 69.7988 96.7554 69.6697 97.0253 69.5916C97.2952 69.5111 97.5686 69.4709 97.8456 69.4709C98.0539 69.4709 98.2706 69.4981 98.4955 69.5526C98.7227 69.607 98.9334 69.7017 99.1276 69.8366C99.3217 69.9692 99.4791 70.1551 99.5999 70.3942C99.7206 70.6309 99.781 70.9316 99.781 71.2962V75H99.1489V74.1371H99.1098C99.0341 74.2981 98.9216 74.4543 98.7725 74.6058C98.6233 74.7573 98.4363 74.8816 98.2114 74.9787C97.9865 75.0758 97.7225 75.1243 97.4195 75.1243ZM97.5047 74.5455C97.8409 74.5455 98.1321 74.4709 98.3783 74.3217C98.6245 74.1726 98.8139 73.9749 98.9465 73.7287C99.0814 73.4801 99.1489 73.2067 99.1489 72.9084V72.12C99.1015 72.165 99.0222 72.2053 98.911 72.2408C98.8021 72.2763 98.6754 72.3082 98.531 72.3366C98.3889 72.3627 98.2469 72.3852 98.1048 72.4041C97.9628 72.4231 97.835 72.4396 97.7213 72.4538C97.4136 72.4917 97.1508 72.5509 96.933 72.6314C96.7152 72.7119 96.5483 72.8232 96.4323 72.9652C96.3163 73.1049 96.2583 73.2848 96.2583 73.505C96.2583 73.8364 96.3766 74.0933 96.6134 74.2756C96.8501 74.4555 97.1472 74.5455 97.5047 74.5455ZM103.611 69.5455V70.0959H101.008V69.5455H103.611ZM101.821 68.2386H102.457V73.576C102.457 73.8033 102.496 73.982 102.574 74.1122C102.652 74.2401 102.754 74.3312 102.879 74.3857C103.005 74.4377 103.139 74.4638 103.281 74.4638C103.363 74.4638 103.435 74.459 103.494 74.4496C103.553 74.4377 103.605 74.4259 103.65 74.4141L103.785 74.9858C103.723 75.0095 103.648 75.0308 103.558 75.0497C103.468 75.071 103.356 75.0817 103.224 75.0817C102.992 75.0817 102.768 75.0308 102.553 74.929C102.34 74.8272 102.164 74.6757 102.027 74.4744C101.89 74.2732 101.821 74.0234 101.821 73.7251V68.2386ZM14.9559 87V81.5455H15.5915V87H14.9559ZM15.279 80.608C15.1488 80.608 15.0376 80.5642 14.9452 80.4766C14.8529 80.3866 14.8067 80.2789 14.8067 80.1534C14.8067 80.0279 14.8529 79.9214 14.9452 79.8338C15.0376 79.7438 15.1488 79.6989 15.279 79.6989C15.4092 79.6989 15.5205 79.7438 15.6128 79.8338C15.7052 79.9214 15.7513 80.0279 15.7513 80.1534C15.7513 80.2789 15.7052 80.3866 15.6128 80.4766C15.5205 80.5642 15.4092 80.608 15.279 80.608ZM19.4117 81.5455V82.0959H16.8087V81.5455H19.4117ZM17.6219 80.2386H18.2575V85.576C18.2575 85.8033 18.2966 85.982 18.3747 86.1122C18.4529 86.2401 18.5547 86.3312 18.6801 86.3857C18.8056 86.4377 18.9394 86.4638 19.0814 86.4638C19.1643 86.4638 19.2353 86.459 19.2945 86.4496C19.3537 86.4377 19.4057 86.4259 19.4507 86.4141L19.5857 86.9858C19.5241 87.0095 19.4484 87.0308 19.3584 87.0497C19.2684 87.071 19.1572 87.0817 19.0246 87.0817C18.7926 87.0817 18.5689 87.0308 18.3534 86.929C18.1404 86.8272 17.9652 86.6757 17.8279 86.4744C17.6905 86.2732 17.6219 86.0234 17.6219 85.7251V80.2386ZM24.4143 82.7422L23.8355 82.9055C23.7787 82.7422 23.6982 82.5942 23.594 82.4616C23.4898 82.3291 23.3537 82.2237 23.1856 82.1456C23.0199 82.0675 22.814 82.0284 22.5677 82.0284C22.1984 82.0284 21.8954 82.116 21.6586 82.2912C21.4219 82.4664 21.3035 82.6925 21.3035 82.9695C21.3035 83.2038 21.384 83.3944 21.545 83.5412C21.7084 83.6856 21.9593 83.8004 22.2979 83.8857L23.1217 84.0881C23.5786 84.1993 23.9207 84.3757 24.148 84.6172C24.3776 84.8587 24.4925 85.1617 24.4925 85.5263C24.4925 85.834 24.4072 86.1075 24.2368 86.3466C24.0663 86.5857 23.8284 86.7739 23.523 86.9112C23.22 87.0462 22.8684 87.1136 22.4683 87.1136C21.9356 87.1136 21.4965 86.9941 21.1508 86.755C20.8052 86.5135 20.5838 86.1655 20.4868 85.7109L21.094 85.5618C21.1721 85.8861 21.3248 86.1312 21.5521 86.2969C21.7818 86.4626 22.0836 86.5455 22.4577 86.5455C22.8767 86.5455 23.2117 86.4519 23.4626 86.2649C23.7136 86.0755 23.839 85.8388 23.839 85.5547C23.839 85.3345 23.7657 85.1499 23.6189 85.0007C23.4721 84.8492 23.2496 84.7379 22.9513 84.6669L22.0599 84.4538C21.5864 84.3402 21.2361 84.1603 21.0088 83.9141C20.7815 83.6679 20.6679 83.3625 20.6679 82.9979C20.6679 82.6972 20.7496 82.4332 20.9129 82.206C21.0763 81.9763 21.3012 81.7964 21.5876 81.6662C21.8741 81.536 22.2008 81.4709 22.5677 81.4709C23.0673 81.4709 23.4662 81.5845 23.7645 81.8118C24.0651 82.0367 24.2818 82.3468 24.4143 82.7422ZM28.0818 87.1136C27.5728 87.1136 27.1324 86.9953 26.7607 86.7585C26.3891 86.5194 26.1014 86.1892 25.8978 85.7678C25.6966 85.344 25.596 84.8563 25.596 84.3047C25.596 83.7554 25.6966 83.2678 25.8978 82.8416C26.1014 82.4131 26.382 82.0781 26.7394 81.8366C27.0993 81.5928 27.5148 81.4709 27.9859 81.4709C28.2818 81.4709 28.5671 81.5253 28.8417 81.6342C29.1163 81.7408 29.3625 81.9053 29.5803 82.1278C29.8005 82.348 29.9745 82.6262 30.1024 82.9624C30.2302 83.2962 30.2941 83.6915 30.2941 84.1484V84.4609H26.0328V83.9034H29.6478C29.6478 83.553 29.5768 83.2382 29.4347 82.9588C29.2951 82.6771 29.0998 82.4545 28.8488 82.2912C28.6002 82.1278 28.3126 82.0462 27.9859 82.0462C27.6402 82.0462 27.336 82.1385 27.0732 82.3232C26.8105 82.5078 26.6045 82.7517 26.4553 83.0547C26.3086 83.3577 26.234 83.6892 26.2316 84.049V84.3828C26.2316 84.8161 26.3062 85.1948 26.4553 85.5192C26.6069 85.8411 26.8211 86.0909 27.0981 86.2685C27.3751 86.446 27.703 86.5348 28.0818 86.5348C28.3398 86.5348 28.5659 86.4946 28.76 86.4141C28.9565 86.3336 29.1211 86.2259 29.2536 86.0909C29.3886 85.9536 29.4904 85.8033 29.559 85.6399L30.1592 85.8352C30.0763 86.0649 29.9402 86.2768 29.7508 86.4709C29.5638 86.665 29.3294 86.8213 29.0477 86.9396C28.7683 87.0556 28.4463 87.1136 28.0818 87.1136ZM32.3192 79.7273V87H31.6871V79.7273H32.3192ZM36.2361 81.5455V82.0959H33.555V81.5455H36.2361ZM34.393 87V80.7464C34.393 80.4529 34.4605 80.2055 34.5954 80.0043C34.7327 79.803 34.9115 79.6503 35.1317 79.5462C35.3518 79.442 35.585 79.3899 35.8312 79.3899C35.997 79.3899 36.1343 79.4041 36.2432 79.4325C36.3544 79.4586 36.442 79.4846 36.5059 79.5107L36.3213 80.0646C36.2739 80.0504 36.2159 80.0339 36.1473 80.0149C36.0786 79.996 35.9922 79.9865 35.8881 79.9865C35.6134 79.9865 35.4015 80.0634 35.2524 80.2173C35.1032 80.3712 35.0287 80.5914 35.0287 80.8778L35.0251 87H34.393ZM41.8335 87.1243C41.5045 87.1243 41.2038 87.0604 40.9316 86.9325C40.6593 86.8023 40.4427 86.6153 40.2817 86.3714C40.1207 86.1252 40.0402 85.8269 40.0402 85.4766C40.0402 85.2067 40.0911 84.9794 40.1929 84.7947C40.2947 84.6101 40.4391 84.4586 40.6262 84.3402C40.8132 84.2218 41.0345 84.1283 41.2902 84.0597C41.5459 83.991 41.8276 83.9377 42.1354 83.8999C42.4408 83.862 42.6988 83.8288 42.9095 83.8004C43.1226 83.772 43.2848 83.727 43.396 83.6655C43.5073 83.6039 43.5629 83.5045 43.5629 83.3672V83.2393C43.5629 82.8677 43.4517 82.5753 43.2291 82.3622C43.009 82.1468 42.6917 82.0391 42.2774 82.0391C41.8844 82.0391 41.5637 82.1255 41.3151 82.2983C41.0689 82.4711 40.896 82.6747 40.7966 82.9091L40.1965 82.6925C40.3196 82.3942 40.49 82.1562 40.7078 81.9787C40.9256 81.7988 41.1695 81.6697 41.4394 81.5916C41.7093 81.5111 41.9827 81.4709 42.2597 81.4709C42.468 81.4709 42.6846 81.4981 42.9095 81.5526C43.1368 81.607 43.3475 81.7017 43.5416 81.8366C43.7358 81.9692 43.8932 82.1551 44.0139 82.3942C44.1347 82.6309 44.195 82.9316 44.195 83.2962V87H43.5629V86.1371H43.5239C43.4481 86.2981 43.3357 86.4543 43.1865 86.6058C43.0374 86.7573 42.8503 86.8816 42.6254 86.9787C42.4005 87.0758 42.1366 87.1243 41.8335 87.1243ZM41.9188 86.5455C42.2549 86.5455 42.5461 86.4709 42.7923 86.3217C43.0386 86.1726 43.228 85.9749 43.3605 85.7287C43.4955 85.4801 43.5629 85.2067 43.5629 84.9084V84.12C43.5156 84.165 43.4363 84.2053 43.325 84.2408C43.2161 84.2763 43.0895 84.3082 42.945 84.3366C42.803 84.3627 42.661 84.3852 42.5189 84.4041C42.3769 84.4231 42.249 84.4396 42.1354 84.4538C41.8276 84.4917 41.5648 84.5509 41.347 84.6314C41.1292 84.7119 40.9623 84.8232 40.8463 84.9652C40.7303 85.1049 40.6723 85.2848 40.6723 85.505C40.6723 85.8364 40.7907 86.0933 41.0274 86.2756C41.2642 86.4555 41.5613 86.5455 41.9188 86.5455ZM46.5086 79.7273V87H45.8765V79.7273H46.5086ZM50.3012 87.1136C49.8301 87.1136 49.4134 86.9941 49.0512 86.755C48.6914 86.5159 48.4097 86.1856 48.2061 85.7642C48.0025 85.3404 47.9007 84.8516 47.9007 84.2976C47.9007 83.7389 48.0025 83.2476 48.2061 82.8239C48.4097 82.3977 48.6914 82.0663 49.0512 81.8295C49.4134 81.5904 49.8301 81.4709 50.3012 81.4709C50.7723 81.4709 51.1878 81.5904 51.5477 81.8295C51.9075 82.0687 52.1892 82.4001 52.3928 82.8239C52.5988 83.2476 52.7018 83.7389 52.7018 84.2976C52.7018 84.8516 52.6 85.3404 52.3964 85.7642C52.1928 86.1856 51.9099 86.5159 51.5477 86.755C51.1878 86.9941 50.7723 87.1136 50.3012 87.1136ZM50.3012 86.5348C50.68 86.5348 51.0008 86.433 51.2636 86.2294C51.5264 86.0258 51.7252 85.7547 51.8602 85.4162C51.9975 85.0777 52.0661 84.7048 52.0661 84.2976C52.0661 83.8904 51.9975 83.5163 51.8602 83.1754C51.7252 82.8345 51.5264 82.5611 51.2636 82.3551C51.0008 82.1491 50.68 82.0462 50.3012 82.0462C49.9248 82.0462 49.604 82.1491 49.3389 82.3551C49.0761 82.5611 48.876 82.8345 48.7387 83.1754C48.6038 83.5163 48.5363 83.8904 48.5363 84.2976C48.5363 84.7048 48.6038 85.0777 48.7387 85.4162C48.876 85.7547 49.0761 86.0258 49.3389 86.2294C49.6017 86.433 49.9224 86.5348 50.3012 86.5348ZM55.1148 87L53.4671 81.5455H54.1347L55.4273 86.0447H55.4735L56.7625 81.5455H57.4337L58.7121 86.0341H58.7618L60.0544 81.5455H60.722L59.0743 87H58.4209L57.1283 82.5291H57.0608L55.7682 87H55.1148ZM65.6155 82.7422L65.0367 82.9055C64.9798 82.7422 64.8994 82.5942 64.7952 82.4616C64.691 82.3291 64.5549 82.2237 64.3868 82.1456C64.2211 82.0675 64.0151 82.0284 63.7689 82.0284C63.3996 82.0284 63.0966 82.116 62.8598 82.2912C62.6231 82.4664 62.5047 82.6925 62.5047 82.9695C62.5047 83.2038 62.5852 83.3944 62.7462 83.5412C62.9095 83.6856 63.1605 83.8004 63.499 83.8857L64.3229 84.0881C64.7798 84.1993 65.1219 84.3757 65.3492 84.6172C65.5788 84.8587 65.6936 85.1617 65.6936 85.5263C65.6936 85.834 65.6084 86.1075 65.4379 86.3466C65.2675 86.5857 65.0296 86.7739 64.7242 86.9112C64.4211 87.0462 64.0696 87.1136 63.6695 87.1136C63.1368 87.1136 62.6977 86.9941 62.352 86.755C62.0064 86.5135 61.785 86.1655 61.6879 85.7109L62.2952 85.5618C62.3733 85.8861 62.526 86.1312 62.7533 86.2969C62.9829 86.4626 63.2848 86.5455 63.6588 86.5455C64.0779 86.5455 64.4128 86.4519 64.6638 86.2649C64.9147 86.0755 65.0402 85.8388 65.0402 85.5547C65.0402 85.3345 64.9668 85.1499 64.82 85.0007C64.6733 84.8492 64.4507 84.7379 64.1524 84.6669L63.2611 84.4538C62.7876 84.3402 62.4372 84.1603 62.21 83.9141C61.9827 83.6679 61.8691 83.3625 61.8691 82.9979C61.8691 82.6972 61.9507 82.4332 62.1141 82.206C62.2774 81.9763 62.5023 81.7964 62.7888 81.6662C63.0753 81.536 63.402 81.4709 63.7689 81.4709C64.2684 81.4709 64.6673 81.5845 64.9656 81.8118C65.2663 82.0367 65.4829 82.3468 65.6155 82.7422ZM73.555 82.7422L72.9761 82.9055C72.9193 82.7422 72.8388 82.5942 72.7346 82.4616C72.6305 82.3291 72.4943 82.2237 72.3263 82.1456C72.1605 82.0675 71.9546 82.0284 71.7084 82.0284C71.339 82.0284 71.036 82.116 70.7993 82.2912C70.5625 82.4664 70.4442 82.6925 70.4442 82.9695C70.4442 83.2038 70.5247 83.3944 70.6856 83.5412C70.849 83.6856 71.0999 83.8004 71.4385 83.8857L72.2623 84.0881C72.7193 84.1993 73.0613 84.3757 73.2886 84.6172C73.5183 84.8587 73.6331 85.1617 73.6331 85.5263C73.6331 85.834 73.5479 86.1075 73.3774 86.3466C73.2069 86.5857 72.969 86.7739 72.6636 86.9112C72.3606 87.0462 72.009 87.1136 71.6089 87.1136C71.0763 87.1136 70.6371 86.9941 70.2915 86.755C69.9458 86.5135 69.7245 86.1655 69.6274 85.7109L70.2346 85.5618C70.3128 85.8861 70.4655 86.1312 70.6927 86.2969C70.9224 86.4626 71.2242 86.5455 71.5983 86.5455C72.0173 86.5455 72.3523 86.4519 72.6032 86.2649C72.8542 86.0755 72.9797 85.8388 72.9797 85.5547C72.9797 85.3345 72.9063 85.1499 72.7595 85.0007C72.6127 84.8492 72.3902 84.7379 72.0919 84.6669L71.2006 84.4538C70.7271 84.3402 70.3767 84.1603 70.1494 83.9141C69.9221 83.6679 69.8085 83.3625 69.8085 82.9979C69.8085 82.6972 69.8902 82.4332 70.0535 82.206C70.2169 81.9763 70.4418 81.7964 70.7282 81.6662C71.0147 81.536 71.3414 81.4709 71.7084 81.4709C72.2079 81.4709 72.6068 81.5845 72.9051 81.8118C73.2058 82.0367 73.4224 82.3468 73.555 82.7422ZM77.1656 81.5455V82.0959H74.5626V81.5455H77.1656ZM75.3758 80.2386H76.0115V85.576C76.0115 85.8033 76.0505 85.982 76.1286 86.1122C76.2068 86.2401 76.3086 86.3312 76.434 86.3857C76.5595 86.4377 76.6933 86.4638 76.8353 86.4638C76.9182 86.4638 76.9892 86.459 77.0484 86.4496C77.1076 86.4377 77.1597 86.4259 77.2046 86.4141L77.3396 86.9858C77.278 87.0095 77.2023 87.0308 77.1123 87.0497C77.0223 87.071 76.9111 87.0817 76.7785 87.0817C76.5465 87.0817 76.3228 87.0308 76.1073 86.929C75.8943 86.8272 75.7191 86.6757 75.5818 86.4744C75.4445 86.2732 75.3758 86.0234 75.3758 85.7251V80.2386ZM82.067 84.9155V81.5455H82.6991V87H82.067V86.0945H82.0173C81.8895 86.3738 81.6871 86.607 81.4101 86.794C81.1331 86.9787 80.7945 87.071 80.3944 87.071C80.0464 87.071 79.7375 86.9953 79.4676 86.8438C79.1977 86.6899 78.9858 86.465 78.8319 86.169C78.6781 85.8731 78.6011 85.5097 78.6011 85.0788V81.5455H79.2332V85.0398C79.2332 85.4659 79.3587 85.8092 79.6096 86.0696C79.8606 86.3277 80.1826 86.4567 80.5756 86.4567C80.8218 86.4567 81.0585 86.3975 81.2858 86.2791C81.5131 86.1607 81.7001 85.9879 81.8469 85.7607C81.9936 85.531 82.067 85.2493 82.067 84.9155ZM86.3364 87.1136C85.8889 87.1136 85.4971 86.9953 85.161 86.7585C84.8248 86.5218 84.562 86.1915 84.3726 85.7678C84.1856 85.344 84.0921 84.8504 84.0921 84.2869C84.0921 83.7259 84.1856 83.2346 84.3726 82.8132C84.562 82.3894 84.826 82.0604 85.1645 81.826C85.503 81.5893 85.8972 81.4709 86.347 81.4709C86.6785 81.4709 86.9543 81.5301 87.1744 81.6484C87.3946 81.7644 87.571 81.9089 87.7036 82.0817C87.8361 82.2545 87.9391 82.4226 88.0125 82.5859H88.0693V79.7273H88.705V87H88.0871V85.9879H88.0125C87.9391 86.1536 87.835 86.3241 87.7 86.4993C87.5651 86.6721 87.3863 86.8177 87.1638 86.9361C86.9436 87.0545 86.6678 87.1136 86.3364 87.1136ZM86.411 86.5348C86.7637 86.5348 87.0644 86.4389 87.3129 86.2472C87.5615 86.053 87.7509 85.7867 87.8811 85.4482C88.0137 85.1072 88.08 84.7166 88.08 84.2763C88.08 83.8407 88.0149 83.456 87.8847 83.1222C87.7545 82.786 87.5651 82.5232 87.3165 82.3338C87.0679 82.142 86.7661 82.0462 86.411 82.0462C86.0464 82.0462 85.7386 82.1456 85.4877 82.3445C85.2391 82.541 85.0497 82.8073 84.9195 83.1435C84.7916 83.4796 84.7277 83.8572 84.7277 84.2763C84.7277 84.7 84.7928 85.0824 84.923 85.4233C85.0532 85.7642 85.2426 86.0353 85.4912 86.2365C85.7422 86.4354 86.0487 86.5348 86.411 86.5348ZM92.7107 87.1136C92.2017 87.1136 91.7613 86.9953 91.3896 86.7585C91.018 86.5194 90.7303 86.1892 90.5267 85.7678C90.3255 85.344 90.2249 84.8563 90.2249 84.3047C90.2249 83.7554 90.3255 83.2678 90.5267 82.8416C90.7303 82.4131 91.0109 82.0781 91.3683 81.8366C91.7282 81.5928 92.1437 81.4709 92.6148 81.4709C92.9107 81.4709 93.196 81.5253 93.4706 81.6342C93.7452 81.7408 93.9914 81.9053 94.2093 82.1278C94.4294 82.348 94.6034 82.6262 94.7313 82.9624C94.8591 83.2962 94.923 83.6915 94.923 84.1484V84.4609H90.6617V83.9034H94.2767C94.2767 83.553 94.2057 83.2382 94.0637 82.9588C93.924 82.6771 93.7287 82.4545 93.4777 82.2912C93.2291 82.1278 92.9415 82.0462 92.6148 82.0462C92.2691 82.0462 91.9649 82.1385 91.7021 82.3232C91.4394 82.5078 91.2334 82.7517 91.0843 83.0547C90.9375 83.3577 90.8629 83.6892 90.8605 84.049V84.3828C90.8605 84.8161 90.9351 85.1948 91.0843 85.5192C91.2358 85.8411 91.45 86.0909 91.727 86.2685C92.004 86.446 92.3319 86.5348 92.7107 86.5348C92.9687 86.5348 93.1948 86.4946 93.3889 86.4141C93.5854 86.3336 93.75 86.2259 93.8825 86.0909C94.0175 85.9536 94.1193 85.8033 94.1879 85.6399L94.7881 85.8352C94.7052 86.0649 94.5691 86.2768 94.3797 86.4709C94.1927 86.665 93.9583 86.8213 93.6766 86.9396C93.3972 87.0556 93.0753 87.1136 92.7107 87.1136ZM96.9481 83.5909V87H96.316V81.5455H96.9303V82.4013H96.9871C97.115 82.1219 97.3138 81.8982 97.5837 81.7301C97.856 81.5597 98.1921 81.4744 98.5922 81.4744C98.9592 81.4744 99.2812 81.5514 99.5581 81.7053C99.8375 81.8568 100.054 82.0805 100.208 82.3764C100.364 82.6723 100.442 83.0357 100.442 83.4666V87H99.8103V83.5057C99.8103 83.0582 99.6848 82.7043 99.4339 82.4439C99.1853 82.1835 98.8515 82.0533 98.4324 82.0533C98.146 82.0533 97.8915 82.1148 97.6689 82.2379C97.4464 82.361 97.27 82.5386 97.1398 82.7706C97.012 83.0002 96.9481 83.2737 96.9481 83.5909ZM104.255 81.5455V82.0959H101.652V81.5455H104.255ZM102.466 80.2386H103.101V85.576C103.101 85.8033 103.14 85.982 103.218 86.1122C103.297 86.2401 103.398 86.3312 103.524 86.3857C103.649 86.4377 103.783 86.4638 103.925 86.4638C104.008 86.4638 104.079 86.459 104.138 86.4496C104.197 86.4377 104.249 86.4259 104.294 86.4141L104.429 86.9858C104.368 87.0095 104.292 87.0308 104.202 87.0497C104.112 87.071 104.001 87.0817 103.868 87.0817C103.636 87.0817 103.413 87.0308 103.197 86.929C102.984 86.8272 102.809 86.6757 102.672 86.4744C102.534 86.2732 102.466 86.0234 102.466 85.7251V80.2386ZM109.258 82.7422L108.679 82.9055C108.622 82.7422 108.542 82.5942 108.438 82.4616C108.334 82.3291 108.197 82.2237 108.029 82.1456C107.864 82.0675 107.658 82.0284 107.411 82.0284C107.042 82.0284 106.739 82.116 106.502 82.2912C106.266 82.4664 106.147 82.6925 106.147 82.9695C106.147 83.2038 106.228 83.3944 106.389 83.5412C106.552 83.6856 106.803 83.8004 107.142 83.8857L107.965 84.0881C108.422 84.1993 108.764 84.3757 108.992 84.6172C109.221 84.8587 109.336 85.1617 109.336 85.5263C109.336 85.834 109.251 86.1075 109.081 86.3466C108.91 86.5857 108.672 86.7739 108.367 86.9112C108.064 87.0462 107.712 87.1136 107.312 87.1136C106.779 87.1136 106.34 86.9941 105.995 86.755C105.649 86.5135 105.428 86.1655 105.331 85.7109L105.938 85.5618C106.016 85.8861 106.169 86.1312 106.396 86.2969C106.626 86.4626 106.927 86.5455 107.301 86.5455C107.72 86.5455 108.055 86.4519 108.306 86.2649C108.557 86.0755 108.683 85.8388 108.683 85.5547C108.683 85.3345 108.609 85.1499 108.463 85.0007C108.316 84.8492 108.093 84.7379 107.795 84.6669L106.904 84.4538C106.43 84.3402 106.08 84.1603 105.853 83.9141C105.625 83.6679 105.512 83.3625 105.512 82.9979C105.512 82.6972 105.593 82.4332 105.757 82.206C105.92 81.9763 106.145 81.7964 106.431 81.6662C106.718 81.536 107.045 81.4709 107.411 81.4709C107.911 81.4709 108.31 81.5845 108.608 81.8118C108.909 82.0367 109.126 82.3468 109.258 82.7422ZM24.4849 93.5455V94.0959H21.8819V93.5455H24.4849ZM22.6951 92.2386H23.3308V97.576C23.3308 97.8033 23.3699 97.982 23.448 98.1122C23.5261 98.2401 23.6279 98.3312 23.7534 98.3857C23.8788 98.4377 24.0126 98.4638 24.1547 98.4638C24.2375 98.4638 24.3085 98.459 24.3677 98.4496C24.4269 98.4377 24.479 98.4259 24.524 98.4141L24.6589 98.9858C24.5974 99.0095 24.5216 99.0308 24.4316 99.0497C24.3417 99.071 24.2304 99.0817 24.0978 99.0817C23.8658 99.0817 23.6421 99.0308 23.4267 98.929C23.2136 98.8272 23.0384 98.6757 22.9011 98.4744C22.7638 98.2732 22.6951 98.0234 22.6951 97.7251V92.2386ZM27.9819 99.1136C27.5108 99.1136 27.0941 98.9941 26.7319 98.755C26.372 98.5159 26.0903 98.1856 25.8867 97.7642C25.6831 97.3404 25.5813 96.8516 25.5813 96.2976C25.5813 95.7389 25.6831 95.2476 25.8867 94.8239C26.0903 94.3977 26.372 94.0663 26.7319 93.8295C27.0941 93.5904 27.5108 93.4709 27.9819 93.4709C28.453 93.4709 28.8685 93.5904 29.2283 93.8295C29.5882 94.0687 29.8699 94.4001 30.0735 94.8239C30.2795 95.2476 30.3825 95.7389 30.3825 96.2976C30.3825 96.8516 30.2807 97.3404 30.0771 97.7642C29.8735 98.1856 29.5906 98.5159 29.2283 98.755C28.8685 98.9941 28.453 99.1136 27.9819 99.1136ZM27.9819 98.5348C28.3607 98.5348 28.6815 98.433 28.9442 98.2294C29.207 98.0258 29.4059 97.7547 29.5408 97.4162C29.6781 97.0777 29.7468 96.7048 29.7468 96.2976C29.7468 95.8904 29.6781 95.5163 29.5408 95.1754C29.4059 94.8345 29.207 94.5611 28.9442 94.3551C28.6815 94.1491 28.3607 94.0462 27.9819 94.0462C27.6055 94.0462 27.2847 94.1491 27.0195 94.3551C26.7567 94.5611 26.5567 94.8345 26.4194 95.1754C26.2844 95.5163 26.217 95.8904 26.217 96.2976C26.217 96.7048 26.2844 97.0777 26.4194 97.4162C26.5567 97.7547 26.7567 98.0258 27.0195 98.2294C27.2823 98.433 27.6031 98.5348 27.9819 98.5348ZM36.731 93.5455V94.0959H34.128V93.5455H36.731ZM34.9412 92.2386H35.5769V97.576C35.5769 97.8033 35.6159 97.982 35.6941 98.1122C35.7722 98.2401 35.874 98.3312 35.9995 98.3857C36.1249 98.4377 36.2587 98.4638 36.4007 98.4638C36.4836 98.4638 36.5546 98.459 36.6138 98.4496C36.673 98.4377 36.7251 98.4259 36.7701 98.4141L36.905 98.9858C36.8435 99.0095 36.7677 99.0308 36.6777 99.0497C36.5878 99.071 36.4765 99.0817 36.3439 99.0817C36.1119 99.0817 35.8882 99.0308 35.6728 98.929C35.4597 98.8272 35.2845 98.6757 35.1472 98.4744C35.0099 98.2732 34.9412 98.0234 34.9412 97.7251V92.2386ZM39.69 99.1243C39.3609 99.1243 39.0603 99.0604 38.788 98.9325C38.5157 98.8023 38.2991 98.6153 38.1381 98.3714C37.9772 98.1252 37.8967 97.8269 37.8967 97.4766C37.8967 97.2067 37.9476 96.9794 38.0494 96.7947C38.1512 96.6101 38.2956 96.4586 38.4826 96.3402C38.6696 96.2218 38.891 96.1283 39.1467 96.0597C39.4023 95.991 39.6841 95.9377 39.9918 95.8999C40.2972 95.862 40.5553 95.8288 40.766 95.8004C40.979 95.772 41.1412 95.727 41.2525 95.6655C41.3638 95.6039 41.4194 95.5045 41.4194 95.3672V95.2393C41.4194 94.8677 41.3081 94.5753 41.0856 94.3622C40.8654 94.1468 40.5482 94.0391 40.1339 94.0391C39.7409 94.0391 39.4201 94.1255 39.1715 94.2983C38.9253 94.4711 38.7525 94.6747 38.6531 94.9091L38.0529 94.6925C38.176 94.3942 38.3465 94.1562 38.5643 93.9787C38.7821 93.7988 39.0259 93.6697 39.2958 93.5916C39.5657 93.5111 39.8391 93.4709 40.1161 93.4709C40.3245 93.4709 40.5411 93.4981 40.766 93.5526C40.9933 93.607 41.204 93.7017 41.3981 93.8366C41.5922 93.9692 41.7496 94.1551 41.8704 94.3942C41.9911 94.6309 42.0515 94.9316 42.0515 95.2962V99H41.4194V98.1371H41.3803C41.3046 98.2981 41.1921 98.4543 41.043 98.6058C40.8938 98.7573 40.7068 98.8816 40.4819 98.9787C40.257 99.0758 39.993 99.1243 39.69 99.1243ZM39.7752 98.5455C40.1114 98.5455 40.4026 98.4709 40.6488 98.3217C40.895 98.1726 41.0844 97.9749 41.217 97.7287C41.3519 97.4801 41.4194 97.2067 41.4194 96.9084V96.12C41.372 96.165 41.2927 96.2053 41.1815 96.2408C41.0726 96.2763 40.9459 96.3082 40.8015 96.3366C40.6594 96.3627 40.5174 96.3852 40.3754 96.4041C40.2333 96.4231 40.1055 96.4396 39.9918 96.4538C39.6841 96.4917 39.4213 96.5509 39.2035 96.6314C38.9857 96.7119 38.8188 96.8232 38.7028 96.9652C38.5868 97.1049 38.5288 97.2848 38.5288 97.505C38.5288 97.8364 38.6471 98.0933 38.8839 98.2756C39.1206 98.4555 39.4177 98.5455 39.7752 98.5455ZM44.3082 96.9403L44.3011 96.1129H44.4432L47 93.5455H47.799L45.2741 96.0739L45.2173 96.0845L44.3082 96.9403ZM43.733 99V91.7273H44.3651V99H43.733ZM47.1314 99L44.9155 96.1982L45.37 95.7614L47.9411 99H47.1314ZM50.9675 99.1136C50.4585 99.1136 50.0182 98.9953 49.6465 98.7585C49.2748 98.5194 48.9872 98.1892 48.7836 97.7678C48.5823 97.344 48.4817 96.8563 48.4817 96.3047C48.4817 95.7554 48.5823 95.2678 48.7836 94.8416C48.9872 94.4131 49.2677 94.0781 49.6252 93.8366C49.985 93.5928 50.4005 93.4709 50.8716 93.4709C51.1676 93.4709 51.4528 93.5253 51.7275 93.6342C52.0021 93.7408 52.2483 93.9053 52.4661 94.1278C52.6863 94.348 52.8603 94.6262 52.9881 94.9624C53.1159 95.2962 53.1799 95.6915 53.1799 96.1484V96.4609H48.9185V95.9034H52.5336C52.5336 95.553 52.4625 95.2382 52.3205 94.9588C52.1808 94.6771 51.9855 94.4545 51.7346 94.2912C51.486 94.1278 51.1983 94.0462 50.8716 94.0462C50.526 94.0462 50.2218 94.1385 49.959 94.3232C49.6962 94.5078 49.4902 94.7517 49.3411 95.0547C49.1943 95.3577 49.1197 95.6892 49.1174 96.049V96.3828C49.1174 96.8161 49.1919 97.1948 49.3411 97.5192C49.4926 97.8411 49.7069 98.0909 49.9838 98.2685C50.2608 98.446 50.5887 98.5348 50.9675 98.5348C51.2256 98.5348 51.4516 98.4946 51.6458 98.4141C51.8423 98.3336 52.0068 98.2259 52.1394 98.0909C52.2743 97.9536 52.3761 97.8033 52.4448 97.6399L53.0449 97.8352C52.9621 98.0649 52.8259 98.2768 52.6365 98.4709C52.4495 98.665 52.2151 98.8213 51.9334 98.9396C51.6541 99.0556 51.3321 99.1136 50.9675 99.1136ZM59.5337 93.5455V94.0959H56.9308V93.5455H59.5337ZM57.744 92.2386H58.3796V97.576C58.3796 97.8033 58.4187 97.982 58.4968 98.1122C58.5749 98.2401 58.6767 98.3312 58.8022 98.3857C58.9277 98.4377 59.0614 98.4638 59.2035 98.4638C59.2863 98.4638 59.3574 98.459 59.4165 98.4496C59.4757 98.4377 59.5278 98.4259 59.5728 98.4141L59.7077 98.9858C59.6462 99.0095 59.5704 99.0308 59.4805 99.0497C59.3905 99.071 59.2792 99.0817 59.1467 99.0817C58.9147 99.0817 58.6909 99.0308 58.4755 98.929C58.2624 98.8272 58.0872 98.6757 57.9499 98.4744C57.8126 98.2732 57.744 98.0234 57.744 97.7251V92.2386ZM61.7186 95.5909V99H61.0865V91.7273H61.7186V94.4013H61.7754C61.9032 94.1196 62.1009 93.8946 62.3684 93.7266C62.6383 93.5585 62.9792 93.4744 63.3912 93.4744C63.7605 93.4744 64.0848 93.5502 64.3642 93.7017C64.6435 93.8532 64.8613 94.0769 65.0176 94.3729C65.1738 94.6688 65.252 95.0334 65.252 95.4666V99H64.6163V95.5057C64.6163 95.0559 64.4908 94.7019 64.2399 94.4439C63.9913 94.1835 63.6551 94.0533 63.2314 94.0533C62.9402 94.0533 62.6809 94.1148 62.4537 94.2379C62.2264 94.361 62.0465 94.5386 61.9139 94.7706C61.7837 95.0002 61.7186 95.2737 61.7186 95.5909ZM66.9237 99V93.5455H67.5593V99H66.9237ZM67.2468 92.608C67.1166 92.608 67.0053 92.5642 66.913 92.4766C66.8207 92.3866 66.7745 92.2789 66.7745 92.1534C66.7745 92.0279 66.8207 91.9214 66.913 91.8338C67.0053 91.7438 67.1166 91.6989 67.2468 91.6989C67.377 91.6989 67.4883 91.7438 67.5806 91.8338C67.6729 91.9214 67.7191 92.0279 67.7191 92.1534C67.7191 92.2789 67.6729 92.3866 67.5806 92.4766C67.4883 92.5642 67.377 92.608 67.2468 92.608ZM72.8958 94.7422L72.3169 94.9055C72.2601 94.7422 72.1796 94.5942 72.0755 94.4616C71.9713 94.3291 71.8352 94.2237 71.6671 94.1456C71.5014 94.0675 71.2954 94.0284 71.0492 94.0284C70.6799 94.0284 70.3768 94.116 70.1401 94.2912C69.9033 94.4664 69.785 94.6925 69.785 94.9695C69.785 95.2038 69.8655 95.3944 70.0265 95.5412C70.1898 95.6856 70.4408 95.8004 70.7793 95.8857L71.6032 96.0881C72.0601 96.1993 72.4022 96.3757 72.6294 96.6172C72.8591 96.8587 72.9739 97.1617 72.9739 97.5263C72.9739 97.834 72.8887 98.1075 72.7182 98.3466C72.5478 98.5857 72.3098 98.7739 72.0044 98.9112C71.7014 99.0462 71.3498 99.1136 70.9498 99.1136C70.4171 99.1136 69.9779 98.9941 69.6323 98.755C69.2866 98.5135 69.0653 98.1655 68.9682 97.7109L69.5755 97.5618C69.6536 97.8861 69.8063 98.1312 70.0336 98.2969C70.2632 98.4626 70.565 98.5455 70.9391 98.5455C71.3581 98.5455 71.6931 98.4519 71.9441 98.2649C72.195 98.0755 72.3205 97.8388 72.3205 97.5547C72.3205 97.3345 72.2471 97.1499 72.1003 97.0007C71.9535 96.8492 71.731 96.7379 71.4327 96.6669L70.5414 96.4538C70.0679 96.3402 69.7175 96.1603 69.4902 95.9141C69.263 95.6679 69.1493 95.3625 69.1493 94.9979C69.1493 94.6972 69.231 94.4332 69.3944 94.206C69.5577 93.9763 69.7826 93.7964 70.0691 93.6662C70.3555 93.536 70.6822 93.4709 71.0492 93.4709C71.5487 93.4709 71.9476 93.5845 72.2459 93.8118C72.5466 94.0367 72.7632 94.3468 72.8958 94.7422ZM77.3018 99V91.7273H77.9375V94.5859H77.9943C78.0653 94.4226 78.1671 94.2545 78.2997 94.0817C78.4347 93.9089 78.611 93.7644 78.8288 93.6484C79.049 93.5301 79.326 93.4709 79.6598 93.4709C80.1072 93.4709 80.5002 93.5893 80.8388 93.826C81.1773 94.0604 81.4413 94.3894 81.6307 94.8132C81.8201 95.2346 81.9148 95.7259 81.9148 96.2869C81.9148 96.8504 81.8201 97.344 81.6307 97.7678C81.4437 98.1915 81.1809 98.5218 80.8423 98.7585C80.5062 98.9953 80.1155 99.1136 79.6705 99.1136C79.339 99.1136 79.062 99.0545 78.8395 98.9361C78.6193 98.8177 78.4418 98.6721 78.3068 98.4993C78.1719 98.3241 78.0677 98.1536 77.9943 97.9879H77.9162V99H77.3018ZM77.9268 96.2763C77.9268 96.7166 77.992 97.1072 78.1222 97.4482C78.2547 97.7867 78.4441 98.053 78.6903 98.2472C78.9389 98.4389 79.2396 98.5348 79.5923 98.5348C79.9545 98.5348 80.2611 98.4354 80.5121 98.2365C80.763 98.0353 80.9536 97.7642 81.0838 97.4233C81.214 97.0824 81.2791 96.7 81.2791 96.2763C81.2791 95.8572 81.214 95.4796 81.0838 95.1435C80.956 94.8073 80.7666 94.541 80.5156 94.3445C80.2647 94.1456 79.9569 94.0462 79.5923 94.0462C79.2372 94.0462 78.9354 94.142 78.6868 94.3338C78.4406 94.5232 78.2524 94.786 78.1222 95.1222C77.992 95.456 77.9268 95.8407 77.9268 96.2763ZM83.3033 99V93.5455H83.9176V94.3835H83.9638C84.0727 94.1089 84.2621 93.8875 84.532 93.7195C84.8042 93.549 85.112 93.4638 85.4553 93.4638C85.5073 93.4638 85.5653 93.465 85.6293 93.4673C85.6932 93.4697 85.7464 93.4721 85.7891 93.4744V94.1172C85.7607 94.1125 85.7109 94.1054 85.6399 94.0959C85.5689 94.0864 85.492 94.0817 85.4091 94.0817C85.125 94.0817 84.8717 94.142 84.6491 94.2628C84.429 94.3812 84.255 94.5457 84.1271 94.7564C83.9993 94.9671 83.9354 95.2074 83.9354 95.4773V99H83.3033ZM88.907 99.1136C88.398 99.1136 87.9576 98.9953 87.5859 98.7585C87.2143 98.5194 86.9266 98.1892 86.723 97.7678C86.5218 97.344 86.4212 96.8563 86.4212 96.3047C86.4212 95.7554 86.5218 95.2678 86.723 94.8416C86.9266 94.4131 87.2071 94.0781 87.5646 93.8366C87.9245 93.5928 88.34 93.4709 88.8111 93.4709C89.107 93.4709 89.3923 93.5253 89.6669 93.6342C89.9415 93.7408 90.1877 93.9053 90.4055 94.1278C90.6257 94.348 90.7997 94.6262 90.9276 94.9624C91.0554 95.2962 91.1193 95.6915 91.1193 96.1484V96.4609H86.858V95.9034H90.473C90.473 95.553 90.402 95.2382 90.2599 94.9588C90.1203 94.6771 89.925 94.4545 89.674 94.2912C89.4254 94.1278 89.1378 94.0462 88.8111 94.0462C88.4654 94.0462 88.1612 94.1385 87.8984 94.3232C87.6357 94.5078 87.4297 94.7517 87.2805 95.0547C87.1338 95.3577 87.0592 95.6892 87.0568 96.049V96.3828C87.0568 96.8161 87.1314 97.1948 87.2805 97.5192C87.4321 97.8411 87.6463 98.0909 87.9233 98.2685C88.2003 98.446 88.5282 98.5348 88.907 98.5348C89.165 98.5348 89.3911 98.4946 89.5852 98.4141C89.7817 98.3336 89.9463 98.2259 90.0788 98.0909C90.2138 97.9536 90.3156 97.8033 90.3842 97.6399L90.9844 97.8352C90.9015 98.0649 90.7654 98.2768 90.576 98.4709C90.389 98.665 90.1546 98.8213 89.8729 98.9396C89.5935 99.0556 89.2715 99.1136 88.907 99.1136ZM94.0357 99.1243C93.7066 99.1243 93.406 99.0604 93.1337 98.9325C92.8614 98.8023 92.6448 98.6153 92.4838 98.3714C92.3229 98.1252 92.2424 97.8269 92.2424 97.4766C92.2424 97.2067 92.2933 96.9794 92.3951 96.7947C92.4969 96.6101 92.6413 96.4586 92.8283 96.3402C93.0153 96.2218 93.2367 96.1283 93.4924 96.0597C93.748 95.991 94.0298 95.9377 94.3375 95.8999C94.6429 95.862 94.901 95.8288 95.1117 95.8004C95.3248 95.772 95.4869 95.727 95.5982 95.6655C95.7095 95.6039 95.7651 95.5045 95.7651 95.3672V95.2393C95.7651 94.8677 95.6538 94.5753 95.4313 94.3622C95.2111 94.1468 94.8939 94.0391 94.4796 94.0391C94.0866 94.0391 93.7658 94.1255 93.5172 94.2983C93.271 94.4711 93.0982 94.6747 92.9988 94.9091L92.3986 94.6925C92.5217 94.3942 92.6922 94.1562 92.91 93.9787C93.1278 93.7988 93.3716 93.6697 93.6415 93.5916C93.9114 93.5111 94.1848 93.4709 94.4618 93.4709C94.6702 93.4709 94.8868 93.4981 95.1117 93.5526C95.339 93.607 95.5497 93.7017 95.7438 93.8366C95.9379 93.9692 96.0953 94.1551 96.2161 94.3942C96.3368 94.6309 96.3972 94.9316 96.3972 95.2962V99H95.7651V98.1371H95.726C95.6503 98.2981 95.5378 98.4543 95.3887 98.6058C95.2395 98.7573 95.0525 98.8816 94.8276 98.9787C94.6027 99.0758 94.3387 99.1243 94.0357 99.1243ZM94.1209 98.5455C94.4571 98.5455 94.7483 98.4709 94.9945 98.3217C95.2407 98.1726 95.4301 97.9749 95.5627 97.7287C95.6976 97.4801 95.7651 97.2067 95.7651 96.9084V96.12C95.7177 96.165 95.6384 96.2053 95.5272 96.2408C95.4183 96.2763 95.2916 96.3082 95.1472 96.3366C95.0051 96.3627 94.8631 96.3852 94.7211 96.4041C94.579 96.4231 94.4512 96.4396 94.3375 96.4538C94.0298 96.4917 93.767 96.5509 93.5492 96.6314C93.3314 96.7119 93.1645 96.8232 93.0485 96.9652C92.9325 97.1049 92.8745 97.2848 92.8745 97.505C92.8745 97.8364 92.9928 98.0933 93.2296 98.2756C93.4663 98.4555 93.7634 98.5455 94.1209 98.5455ZM98.6539 96.9403L98.6468 96.1129H98.7889L101.346 93.5455H102.145L99.6199 96.0739L99.563 96.0845L98.6539 96.9403ZM98.0787 99V91.7273H98.7108V99H98.0787ZM101.477 99L99.2612 96.1982L99.7157 95.7614L102.287 99H101.477Z" fill="#333333"/>
</svg>
