<svg width="83" height="73" viewBox="0 0 83 73" fill="none" xmlns="http://www.w3.org/2000/svg">
<path d="M71.26 15.3365C71.0569 16.0841 71.5057 17.1235 71.9341 17.8727C72.0675 18.0961 72.2122 18.3126 72.3676 18.5213C76.0418 24.0933 78.0001 30.621 77.9998 37.2953C78.0596 56.4534 62.1734 72 42.5289 72C25.3968 72 11.0962 60.1314 7.75438 44.3766C7.25369 42.0407 7.00083 39.6586 7 37.2697C7 18.0844 22.2735 2.2937 41.9179 2.2937C45.0412 2.2937 49.2568 3.0788 51.5558 3.72224C53.8548 4.36567 56.1503 5.21904 56.7425 5.44774C57.3483 5.68056 57.9915 5.80031 58.6404 5.80103C59.3492 5.80373 60.0512 5.66264 60.7039 5.3863L72.2806 1.20822C72.5342 1.09891 72.803 1.0287 73.0776 1C73.2944 1.00065 73.5089 1.04432 73.7086 1.12845C73.9084 1.21258 74.0895 1.33552 74.2414 1.49014C74.3933 1.64475 74.5131 1.82797 74.5937 2.02919C74.6743 2.23041 74.7141 2.44562 74.711 2.66235C74.6967 2.85261 74.6624 3.04083 74.6086 3.22387L71.26 15.3365Z" stroke="#C9C8D8" stroke-miterlimit="10" stroke-linecap="round"/>
<path d="M22.6492 27V21.5455H23.2849V27H22.6492ZM22.9724 20.608C22.8422 20.608 22.7309 20.5642 22.6386 20.4766C22.5463 20.3866 22.5001 20.2789 22.5001 20.1534C22.5001 20.0279 22.5463 19.9214 22.6386 19.8338C22.7309 19.7438 22.8422 19.6989 22.9724 19.6989C23.1026 19.6989 23.2139 19.7438 23.3062 19.8338C23.3985 19.9214 23.4447 20.0279 23.4447 20.1534C23.4447 20.2789 23.3985 20.3866 23.3062 20.4766C23.2139 20.5642 23.1026 20.608 22.9724 20.608ZM25.5887 23.5909V27H24.9566V21.5455H25.5709V22.4013H25.6278C25.7556 22.1219 25.9545 21.8982 26.2243 21.7301C26.4966 21.5597 26.8328 21.4744 27.2329 21.4744C27.5998 21.4744 27.9218 21.5514 28.1988 21.7053C28.4781 21.8568 28.6948 22.0805 28.8486 22.3764C29.0049 22.6723 29.083 23.0357 29.083 23.4666V27H28.4509V23.5057C28.4509 23.0582 28.3254 22.7043 28.0745 22.4439C27.8259 22.1835 27.4921 22.0533 27.0731 22.0533C26.7866 22.0533 26.5321 22.1148 26.3096 22.2379C26.087 22.361 25.9107 22.5386 25.7805 22.7706C25.6526 23.0002 25.5887 23.2737 25.5887 23.5909ZM32.8783 27.1136C32.3906 27.1136 31.9656 26.9917 31.6034 26.7479C31.2436 26.504 30.9642 26.1702 30.7654 25.7464C30.5665 25.3227 30.4671 24.8397 30.4671 24.2976C30.4671 23.7507 30.5677 23.2642 30.7689 22.8381C30.9725 22.4119 31.2542 22.0781 31.6141 21.8366C31.9739 21.5928 32.3918 21.4709 32.8676 21.4709C33.2322 21.4709 33.5625 21.5419 33.8584 21.6839C34.1543 21.8236 34.3982 22.0213 34.5899 22.277C34.7841 22.5303 34.906 22.8262 34.9557 23.1648H34.3165C34.2502 22.857 34.0904 22.5942 33.8371 22.3764C33.5861 22.1562 33.2665 22.0462 32.8783 22.0462C32.5303 22.0462 32.2225 22.1409 31.955 22.3303C31.6875 22.5173 31.478 22.7789 31.3264 23.1151C31.1773 23.4489 31.1027 23.8359 31.1027 24.2763C31.1027 24.719 31.1761 25.1108 31.3229 25.4517C31.4697 25.7902 31.6756 26.0554 31.9408 26.2472C32.2083 26.4389 32.5208 26.5348 32.8783 26.5348C33.1198 26.5348 33.3399 26.4898 33.5388 26.3999C33.74 26.3075 33.9081 26.1773 34.0431 26.0092C34.1804 25.8411 34.2727 25.6411 34.32 25.4091H34.9593C34.9119 25.7382 34.7947 26.0317 34.6077 26.2898C34.423 26.5455 34.1827 26.7467 33.8868 26.8935C33.5932 27.0402 33.2571 27.1136 32.8783 27.1136ZM36.314 27V21.5455H36.9284V22.3835H36.9745C37.0834 22.1089 37.2728 21.8875 37.5427 21.7195C37.815 21.549 38.1227 21.4638 38.466 21.4638C38.5181 21.4638 38.5761 21.465 38.64 21.4673C38.7039 21.4697 38.7572 21.4721 38.7998 21.4744V22.1172C38.7714 22.1125 38.7217 22.1054 38.6507 22.0959C38.5796 22.0864 38.5027 22.0817 38.4198 22.0817C38.1357 22.0817 37.8824 22.142 37.6599 22.2628C37.4397 22.3812 37.2657 22.5457 37.1379 22.7564C37.01 22.9671 36.9461 23.2074 36.9461 23.4773V27H36.314ZM41.9177 27.1136C41.4087 27.1136 40.9684 26.9953 40.5967 26.7585C40.225 26.5194 39.9374 26.1892 39.7338 25.7678C39.5325 25.344 39.4319 24.8563 39.4319 24.3047C39.4319 23.7554 39.5325 23.2678 39.7338 22.8416C39.9374 22.4131 40.2179 22.0781 40.5754 21.8366C40.9352 21.5928 41.3507 21.4709 41.8218 21.4709C42.1177 21.4709 42.403 21.5253 42.6776 21.6342C42.9523 21.7408 43.1985 21.9053 43.4163 22.1278C43.6365 22.348 43.8105 22.6262 43.9383 22.9624C44.0661 23.2962 44.1301 23.6915 44.1301 24.1484V24.4609H39.8687V23.9034H43.4838C43.4838 23.553 43.4127 23.2382 43.2707 22.9588C43.131 22.6771 42.9357 22.4545 42.6847 22.2912C42.4362 22.1278 42.1485 22.0462 41.8218 22.0462C41.4762 22.0462 41.172 22.1385 40.9092 22.3232C40.6464 22.5078 40.4404 22.7517 40.2913 23.0547C40.1445 23.3577 40.0699 23.6892 40.0676 24.049V24.3828C40.0676 24.8161 40.1421 25.1948 40.2913 25.5192C40.4428 25.8411 40.657 26.0909 40.934 26.2685C41.211 26.446 41.5389 26.5348 41.9177 26.5348C42.1758 26.5348 42.4018 26.4946 42.596 26.4141C42.7925 26.3336 42.957 26.2259 43.0896 26.0909C43.2245 25.9536 43.3263 25.8033 43.395 25.6399L43.9951 25.8352C43.9123 26.0649 43.7761 26.2768 43.5867 26.4709C43.3997 26.665 43.1653 26.8213 42.8836 26.9396C42.6043 27.0556 42.2823 27.1136 41.9177 27.1136ZM47.0464 27.1243C46.7174 27.1243 46.4167 27.0604 46.1444 26.9325C45.8722 26.8023 45.6556 26.6153 45.4946 26.3714C45.3336 26.1252 45.2531 25.8269 45.2531 25.4766C45.2531 25.2067 45.304 24.9794 45.4058 24.7947C45.5076 24.6101 45.652 24.4586 45.839 24.3402C46.0261 24.2218 46.2474 24.1283 46.5031 24.0597C46.7588 23.991 47.0405 23.9377 47.3483 23.8999C47.6537 23.862 47.9117 23.8288 48.1224 23.8004C48.3355 23.772 48.4977 23.727 48.6089 23.6655C48.7202 23.6039 48.7758 23.5045 48.7758 23.3672V23.2393C48.7758 22.8677 48.6646 22.5753 48.442 22.3622C48.2219 22.1468 47.9046 22.0391 47.4903 22.0391C47.0973 22.0391 46.7765 22.1255 46.528 22.2983C46.2818 22.4711 46.1089 22.6747 46.0095 22.9091L45.4094 22.6925C45.5325 22.3942 45.7029 22.1562 45.9207 21.9787C46.1385 21.7988 46.3824 21.6697 46.6523 21.5916C46.9221 21.5111 47.1956 21.4709 47.4726 21.4709C47.6809 21.4709 47.8975 21.4981 48.1224 21.5526C48.3497 21.607 48.5604 21.7017 48.7545 21.8366C48.9487 21.9692 49.1061 22.1551 49.2268 22.3942C49.3476 22.6309 49.4079 22.9316 49.4079 23.2962V27H48.7758V26.1371H48.7368C48.661 26.2981 48.5486 26.4543 48.3994 26.6058C48.2503 26.7573 48.0632 26.8816 47.8383 26.9787C47.6134 27.0758 47.3495 27.1243 47.0464 27.1243ZM47.1317 26.5455C47.4678 26.5455 47.759 26.4709 48.0052 26.3217C48.2515 26.1726 48.4408 25.9749 48.5734 25.7287C48.7084 25.4801 48.7758 25.2067 48.7758 24.9084V24.12C48.7285 24.165 48.6492 24.2053 48.5379 24.2408C48.429 24.2763 48.3023 24.3082 48.1579 24.3366C48.0159 24.3627 47.8738 24.3852 47.7318 24.4041C47.5898 24.4231 47.4619 24.4396 47.3483 24.4538C47.0405 24.4917 46.7777 24.5509 46.5599 24.6314C46.3421 24.7119 46.1752 24.8232 46.0592 24.9652C45.9432 25.1049 45.8852 25.2848 45.8852 25.505C45.8852 25.8364 46.0036 26.0933 46.2403 26.2756C46.4771 26.4555 46.7742 26.5455 47.1317 26.5455ZM54.7542 22.7422L54.1753 22.9055C54.1185 22.7422 54.038 22.5942 53.9339 22.4616C53.8297 22.3291 53.6936 22.2237 53.5255 22.1456C53.3598 22.0675 53.1538 22.0284 52.9076 22.0284C52.5383 22.0284 52.2352 22.116 51.9985 22.2912C51.7617 22.4664 51.6434 22.6925 51.6434 22.9695C51.6434 23.2038 51.7239 23.3944 51.8849 23.5412C52.0482 23.6856 52.2992 23.8004 52.6377 23.8857L53.4616 24.0881C53.9185 24.1993 54.2606 24.3757 54.4878 24.6172C54.7175 24.8587 54.8323 25.1617 54.8323 25.5263C54.8323 25.834 54.7471 26.1075 54.5766 26.3466C54.4062 26.5857 54.1682 26.7739 53.8628 26.9112C53.5598 27.0462 53.2082 27.1136 52.8081 27.1136C52.2755 27.1136 51.8363 26.9941 51.4907 26.755C51.145 26.5135 50.9237 26.1655 50.8266 25.7109L51.4339 25.5618C51.512 25.8861 51.6647 26.1312 51.892 26.2969C52.1216 26.4626 52.4234 26.5455 52.7975 26.5455C53.2165 26.5455 53.5515 26.4519 53.8025 26.2649C54.0534 26.0755 54.1789 25.8388 54.1789 25.5547C54.1789 25.3345 54.1055 25.1499 53.9587 25.0007C53.8119 24.8492 53.5894 24.7379 53.2911 24.6669L52.3998 24.4538C51.9263 24.3402 51.5759 24.1603 51.3486 23.9141C51.1214 23.6679 51.0077 23.3625 51.0077 22.9979C51.0077 22.6972 51.0894 22.4332 51.2528 22.206C51.4161 21.9763 51.641 21.7964 51.9275 21.6662C52.2139 21.536 52.5406 21.4709 52.9076 21.4709C53.4071 21.4709 53.806 21.5845 54.1043 21.8118C54.405 22.0367 54.6216 22.3468 54.7542 22.7422ZM58.4216 27.1136C57.9126 27.1136 57.4723 26.9953 57.1006 26.7585C56.7289 26.5194 56.4413 26.1892 56.2377 25.7678C56.0364 25.344 55.9358 24.8563 55.9358 24.3047C55.9358 23.7554 56.0364 23.2678 56.2377 22.8416C56.4413 22.4131 56.7218 22.0781 57.0793 21.8366C57.4391 21.5928 57.8546 21.4709 58.3257 21.4709C58.6217 21.4709 58.9069 21.5253 59.1816 21.6342C59.4562 21.7408 59.7024 21.9053 59.9202 22.1278C60.1404 22.348 60.3144 22.6262 60.4422 22.9624C60.57 23.2962 60.634 23.6915 60.634 24.1484V24.4609H56.3726V23.9034H59.9877C59.9877 23.553 59.9166 23.2382 59.7746 22.9588C59.6349 22.6771 59.4396 22.4545 59.1887 22.2912C58.9401 22.1278 58.6524 22.0462 58.3257 22.0462C57.9801 22.0462 57.6759 22.1385 57.4131 22.3232C57.1503 22.5078 56.9443 22.7517 56.7952 23.0547C56.6484 23.3577 56.5738 23.6892 56.5715 24.049V24.3828C56.5715 24.8161 56.646 25.1948 56.7952 25.5192C56.9467 25.8411 57.161 26.0909 57.4379 26.2685C57.7149 26.446 58.0428 26.5348 58.4216 26.5348C58.6797 26.5348 58.9057 26.4946 59.0999 26.4141C59.2964 26.3336 59.4609 26.2259 59.5935 26.0909C59.7284 25.9536 59.8302 25.8033 59.8989 25.6399L60.499 25.8352C60.4162 26.0649 60.28 26.2768 60.0906 26.4709C59.9036 26.665 59.6692 26.8213 59.3875 26.9396C59.1082 27.0556 58.7862 27.1136 58.4216 27.1136ZM11.3473 36.9403L11.3402 36.1129H11.4822L14.0391 33.5455H14.8381L12.3132 36.0739L12.2564 36.0845L11.3473 36.9403ZM10.772 39V31.7273H11.4041V39H10.772ZM14.1705 39L11.9545 36.1982L12.4091 35.7614L14.9801 39H14.1705ZM16.658 35.5909V39H16.0259V33.5455H16.6403V34.4013H16.6971C16.8249 34.1219 17.0238 33.8982 17.2937 33.7301C17.5659 33.5597 17.9021 33.4744 18.3022 33.4744C18.6692 33.4744 18.9911 33.5514 19.2681 33.7053C19.5475 33.8568 19.7641 34.0805 19.918 34.3764C20.0742 34.6723 20.1523 35.0357 20.1523 35.4666V39H19.5202V35.5057C19.5202 35.0582 19.3948 34.7043 19.1438 34.4439C18.8952 34.1835 18.5614 34.0533 18.1424 34.0533C17.8559 34.0533 17.6014 34.1148 17.3789 34.2379C17.1564 34.361 16.98 34.5386 16.8498 34.7706C16.7219 35.0002 16.658 35.2737 16.658 35.5909ZM23.937 39.1136C23.4658 39.1136 23.0492 38.9941 22.687 38.755C22.3271 38.5159 22.0454 38.1856 21.8418 37.7642C21.6382 37.3404 21.5364 36.8516 21.5364 36.2976C21.5364 35.7389 21.6382 35.2476 21.8418 34.8239C22.0454 34.3977 22.3271 34.0663 22.687 33.8295C23.0492 33.5904 23.4658 33.4709 23.937 33.4709C24.4081 33.4709 24.8236 33.5904 25.1834 33.8295C25.5433 34.0687 25.825 34.4001 26.0286 34.8239C26.2346 35.2476 26.3375 35.7389 26.3375 36.2976C26.3375 36.8516 26.2357 37.3404 26.0321 37.7642C25.8285 38.1856 25.5456 38.5159 25.1834 38.755C24.8236 38.9941 24.4081 39.1136 23.937 39.1136ZM23.937 38.5348C24.3158 38.5348 24.6365 38.433 24.8993 38.2294C25.1621 38.0258 25.361 37.7547 25.4959 37.4162C25.6332 37.0777 25.7019 36.7048 25.7019 36.2976C25.7019 35.8904 25.6332 35.5163 25.4959 35.1754C25.361 34.8345 25.1621 34.5611 24.8993 34.3551C24.6365 34.1491 24.3158 34.0462 23.937 34.0462C23.5605 34.0462 23.2398 34.1491 22.9746 34.3551C22.7118 34.5611 22.5118 34.8345 22.3745 35.1754C22.2395 35.5163 22.1721 35.8904 22.1721 36.2976C22.1721 36.7048 22.2395 37.0777 22.3745 37.4162C22.5118 37.7547 22.7118 38.0258 22.9746 38.2294C23.2374 38.433 23.5582 38.5348 23.937 38.5348ZM28.7505 39L27.1028 33.5455H27.7704L29.063 38.0447H29.1092L30.3983 33.5455H31.0694L32.3478 38.0341H32.3975L33.6902 33.5455H34.3578L32.71 39H32.0566L30.764 34.5291H30.6966L29.4039 39H28.7505ZM36.2186 31.7273V39H35.5865V31.7273H36.2186ZM40.0964 39.1136C39.5874 39.1136 39.1471 38.9953 38.7754 38.7585C38.4037 38.5194 38.1161 38.1892 37.9125 37.7678C37.7112 37.344 37.6106 36.8563 37.6106 36.3047C37.6106 35.7554 37.7112 35.2678 37.9125 34.8416C38.1161 34.4131 38.3966 34.0781 38.7541 33.8366C39.1139 33.5928 39.5294 33.4709 40.0005 33.4709C40.2965 33.4709 40.5817 33.5253 40.8564 33.6342C41.131 33.7408 41.3772 33.9053 41.595 34.1278C41.8152 34.348 41.9892 34.6262 42.117 34.9624C42.2449 35.2962 42.3088 35.6915 42.3088 36.1484V36.4609H38.0474V35.9034H41.6625C41.6625 35.553 41.5914 35.2382 41.4494 34.9588C41.3097 34.6771 41.1144 34.4545 40.8635 34.2912C40.6149 34.1278 40.3272 34.0462 40.0005 34.0462C39.6549 34.0462 39.3507 34.1385 39.0879 34.3232C38.8251 34.5078 38.6191 34.7517 38.47 35.0547C38.3232 35.3577 38.2486 35.6892 38.2463 36.049V36.3828C38.2463 36.8161 38.3208 37.1948 38.47 37.5192C38.6215 37.8411 38.8358 38.0909 39.1127 38.2685C39.3897 38.446 39.7176 38.5348 40.0964 38.5348C40.3545 38.5348 40.5806 38.4946 40.7747 38.4141C40.9712 38.3336 41.1357 38.2259 41.2683 38.0909C41.4032 37.9536 41.505 37.8033 41.5737 37.6399L42.1738 37.8352C42.091 38.0649 41.9548 38.2768 41.7654 38.4709C41.5784 38.665 41.344 38.8213 41.0623 38.9396C40.783 39.0556 40.461 39.1136 40.0964 39.1136ZM45.6655 39.1136C45.218 39.1136 44.8262 38.9953 44.4901 38.7585C44.1539 38.5218 43.8911 38.1915 43.7017 37.7678C43.5147 37.344 43.4212 36.8504 43.4212 36.2869C43.4212 35.7259 43.5147 35.2346 43.7017 34.8132C43.8911 34.3894 44.1551 34.0604 44.4936 33.826C44.8321 33.5893 45.2263 33.4709 45.6761 33.4709C46.0076 33.4709 46.2834 33.5301 46.5036 33.6484C46.7237 33.7644 46.9001 33.9089 47.0327 34.0817C47.1652 34.2545 47.2682 34.4226 47.3416 34.5859H47.3984V31.7273H48.0341V39H47.4162V37.9879H47.3416C47.2682 38.1536 47.1641 38.3241 47.0291 38.4993C46.8942 38.6721 46.7154 38.8177 46.4929 38.9361C46.2727 39.0545 45.9969 39.1136 45.6655 39.1136ZM45.7401 38.5348C46.0928 38.5348 46.3935 38.4389 46.642 38.2472C46.8906 38.053 47.08 37.7867 47.2102 37.4482C47.3428 37.1072 47.4091 36.7166 47.4091 36.2763C47.4091 35.8407 47.344 35.456 47.2138 35.1222C47.0836 34.786 46.8942 34.5232 46.6456 34.3338C46.397 34.142 46.0952 34.0462 45.7401 34.0462C45.3755 34.0462 45.0677 34.1456 44.8168 34.3445C44.5682 34.541 44.3788 34.8073 44.2486 35.1435C44.1207 35.4796 44.0568 35.8572 44.0568 36.2763C44.0568 36.7 44.1219 37.0824 44.2521 37.4233C44.3823 37.7642 44.5717 38.0353 44.8203 38.2365C45.0713 38.4354 45.3778 38.5348 45.7401 38.5348ZM51.9155 41.1591C51.5438 41.1591 51.2183 41.1106 50.9389 41.0135C50.6596 40.9188 50.424 40.7886 50.2322 40.6229C50.0405 40.4571 49.8913 40.2713 49.7848 40.0653L50.3033 39.7244C50.3814 39.8617 50.4856 39.9967 50.6158 40.1293C50.7483 40.2618 50.92 40.3719 51.1307 40.4595C51.3438 40.5471 51.6054 40.5909 51.9155 40.5909C52.3984 40.5909 52.7879 40.4702 53.0838 40.2287C53.3821 39.9872 53.5312 39.612 53.5312 39.103V37.8743H53.4744C53.401 38.04 53.2957 38.2057 53.1584 38.3714C53.0211 38.5348 52.8411 38.6709 52.6186 38.7798C52.3984 38.8887 52.125 38.9432 51.7983 38.9432C51.3627 38.9432 50.9756 38.8355 50.6371 38.62C50.3009 38.4046 50.0357 38.0968 49.8416 37.6967C49.6499 37.2943 49.554 36.8149 49.554 36.2585C49.554 35.7069 49.6475 35.2216 49.8345 34.8026C50.0239 34.3835 50.2879 34.0568 50.6264 33.8224C50.965 33.5881 51.3591 33.4709 51.8089 33.4709C52.1428 33.4709 52.4197 33.5301 52.6399 33.6484C52.8601 33.7644 53.0365 33.9089 53.169 34.0817C53.304 34.2545 53.4093 34.4226 53.4851 34.5859H53.549V33.5455H54.1669V39.142C54.1669 39.6037 54.0687 39.9837 53.8722 40.282C53.6757 40.5803 53.4081 40.8004 53.0696 40.9425C52.7311 41.0869 52.3464 41.1591 51.9155 41.1591ZM51.8729 38.3643C52.2232 38.3643 52.5227 38.2803 52.7713 38.1122C53.0199 37.9418 53.2105 37.6979 53.343 37.3807C53.4756 37.0634 53.5419 36.6858 53.5419 36.2479C53.5419 35.8217 53.4768 35.4441 53.3466 35.1151C53.2164 34.7836 53.027 34.5232 52.7784 34.3338C52.5322 34.142 52.2304 34.0462 51.8729 34.0462C51.5083 34.0462 51.2005 34.1444 50.9496 34.3409C50.6986 34.5374 50.5092 34.8026 50.3814 35.1364C50.2536 35.4678 50.1896 35.8383 50.1896 36.2479C50.1896 36.6645 50.2547 37.0327 50.3849 37.3523C50.5152 37.6695 50.7057 37.9181 50.9567 38.098C51.2076 38.2756 51.513 38.3643 51.8729 38.3643ZM58.0456 39.1136C57.5366 39.1136 57.0963 38.9953 56.7246 38.7585C56.3529 38.5194 56.0653 38.1892 55.8617 37.7678C55.6605 37.344 55.5598 36.8563 55.5598 36.3047C55.5598 35.7554 55.6605 35.2678 55.8617 34.8416C56.0653 34.4131 56.3458 34.0781 56.7033 33.8366C57.0632 33.5928 57.4786 33.4709 57.9498 33.4709C58.2457 33.4709 58.531 33.5253 58.8056 33.6342C59.0802 33.7408 59.3264 33.9053 59.5442 34.1278C59.7644 34.348 59.9384 34.6262 60.0662 34.9624C60.1941 35.2962 60.258 35.6915 60.258 36.1484V36.4609H55.9966V35.9034H59.6117C59.6117 35.553 59.5407 35.2382 59.3986 34.9588C59.2589 34.6771 59.0636 34.4545 58.8127 34.2912C58.5641 34.1278 58.2765 34.0462 57.9498 34.0462C57.6041 34.0462 57.2999 34.1385 57.0371 34.3232C56.7743 34.5078 56.5684 34.7517 56.4192 35.0547C56.2724 35.3577 56.1979 35.6892 56.1955 36.049V36.3828C56.1955 36.8161 56.2701 37.1948 56.4192 37.5192C56.5707 37.8411 56.785 38.0909 57.062 38.2685C57.339 38.446 57.6668 38.5348 58.0456 38.5348C58.3037 38.5348 58.5298 38.4946 58.7239 38.4141C58.9204 38.3336 59.0849 38.2259 59.2175 38.0909C59.3525 37.9536 59.4542 37.8033 59.5229 37.6399L60.123 37.8352C60.0402 38.0649 59.9041 38.2768 59.7147 38.4709C59.5276 38.665 59.2933 38.8213 59.0115 38.9396C58.7322 39.0556 58.4102 39.1136 58.0456 39.1136ZM66.6119 33.5455V34.0959H64.0089V33.5455H66.6119ZM64.8221 32.2386H65.4577V37.576C65.4577 37.8033 65.4968 37.982 65.5749 38.1122C65.6531 38.2401 65.7549 38.3312 65.8803 38.3857C66.0058 38.4377 66.1396 38.4638 66.2816 38.4638C66.3645 38.4638 66.4355 38.459 66.4947 38.4496C66.5539 38.4377 66.6059 38.4259 66.6509 38.4141L66.7859 38.9858C66.7243 39.0095 66.6486 39.0308 66.5586 39.0497C66.4686 39.071 66.3574 39.0817 66.2248 39.0817C65.9928 39.0817 65.7691 39.0308 65.5536 38.929C65.3406 38.8272 65.1654 38.6757 65.0281 38.4744C64.8907 38.2732 64.8221 38.0234 64.8221 37.7251V32.2386ZM70.1088 39.1136C69.6377 39.1136 69.2211 38.9941 68.8588 38.755C68.499 38.5159 68.2173 38.1856 68.0137 37.7642C67.8101 37.3404 67.7083 36.8516 67.7083 36.2976C67.7083 35.7389 67.8101 35.2476 68.0137 34.8239C68.2173 34.3977 68.499 34.0663 68.8588 33.8295C69.2211 33.5904 69.6377 33.4709 70.1088 33.4709C70.58 33.4709 70.9954 33.5904 71.3553 33.8295C71.7151 34.0687 71.9969 34.4001 72.2005 34.8239C72.4064 35.2476 72.5094 35.7389 72.5094 36.2976C72.5094 36.8516 72.4076 37.3404 72.204 37.7642C72.0004 38.1856 71.7175 38.5159 71.3553 38.755C70.9954 38.9941 70.58 39.1136 70.1088 39.1136ZM70.1088 38.5348C70.4876 38.5348 70.8084 38.433 71.0712 38.2294C71.334 38.0258 71.5328 37.7547 71.6678 37.4162C71.8051 37.0777 71.8738 36.7048 71.8738 36.2976C71.8738 35.8904 71.8051 35.5163 71.6678 35.1754C71.5328 34.8345 71.334 34.5611 71.0712 34.3551C70.8084 34.1491 70.4876 34.0462 70.1088 34.0462C69.7324 34.0462 69.4116 34.1491 69.1465 34.3551C68.8837 34.5611 68.6837 34.8345 68.5463 35.1754C68.4114 35.5163 68.3439 35.8904 68.3439 36.2976C68.3439 36.7048 68.4114 37.0777 68.5463 37.4162C68.6837 37.7547 68.8837 38.0258 69.1465 38.2294C69.4093 38.433 69.7301 38.5348 70.1088 38.5348ZM15.5132 51.1243C15.1842 51.1243 14.8835 51.0604 14.6112 50.9325C14.339 50.8023 14.1224 50.6153 13.9614 50.3714C13.8004 50.1252 13.7199 49.8269 13.7199 49.4766C13.7199 49.2067 13.7708 48.9794 13.8726 48.7947C13.9744 48.6101 14.1188 48.4586 14.3058 48.3402C14.4929 48.2218 14.7142 48.1283 14.9699 48.0597C15.2256 47.991 15.5073 47.9377 15.8151 47.8999C16.1205 47.862 16.3785 47.8288 16.5892 47.8004C16.8023 47.772 16.9645 47.727 17.0757 47.6655C17.187 47.6039 17.2426 47.5045 17.2426 47.3672V47.2393C17.2426 46.8677 17.1314 46.5753 16.9088 46.3622C16.6887 46.1468 16.3714 46.0391 15.9571 46.0391C15.5641 46.0391 15.2433 46.1255 14.9948 46.2983C14.7485 46.4711 14.5757 46.6747 14.4763 46.9091L13.8762 46.6925C13.9993 46.3942 14.1697 46.1562 14.3875 45.9787C14.6053 45.7988 14.8492 45.6697 15.1191 45.5916C15.3889 45.5111 15.6624 45.4709 15.9394 45.4709C16.1477 45.4709 16.3643 45.4981 16.5892 45.5526C16.8165 45.607 17.0272 45.7017 17.2213 45.8366C17.4155 45.9692 17.5729 46.1551 17.6936 46.3942C17.8144 46.6309 17.8747 46.9316 17.8747 47.2962V51H17.2426V50.1371H17.2036C17.1278 50.2981 17.0154 50.4543 16.8662 50.6058C16.7171 50.7573 16.53 50.8816 16.3051 50.9787C16.0802 51.0758 15.8163 51.1243 15.5132 51.1243ZM15.5985 50.5455C15.9346 50.5455 16.2258 50.4709 16.472 50.3217C16.7182 50.1726 16.9076 49.9749 17.0402 49.7287C17.1752 49.4801 17.2426 49.2067 17.2426 48.9084V48.12C17.1953 48.165 17.116 48.2053 17.0047 48.2408C16.8958 48.2763 16.7691 48.3082 16.6247 48.3366C16.4827 48.3627 16.3406 48.3852 16.1986 48.4041C16.0566 48.4231 15.9287 48.4396 15.8151 48.4538C15.5073 48.4917 15.2445 48.5509 15.0267 48.6314C14.8089 48.7119 14.642 48.8232 14.526 48.9652C14.41 49.1049 14.352 49.2848 14.352 49.505C14.352 49.8364 14.4704 50.0933 14.7071 50.2756C14.9439 50.4555 15.241 50.5455 15.5985 50.5455ZM19.5562 53.0455V45.5455H20.1705V46.5859H20.2451C20.3209 46.4226 20.425 46.2557 20.5576 46.0852C20.6902 45.9124 20.8654 45.7668 21.0832 45.6484C21.3034 45.5301 21.5803 45.4709 21.9142 45.4709C22.364 45.4709 22.757 45.5893 23.0931 45.826C23.4317 46.0604 23.6945 46.3894 23.8815 46.8132C24.0709 47.2346 24.1656 47.7259 24.1656 48.2869C24.1656 48.8504 24.0709 49.344 23.8815 49.7678C23.6945 50.1915 23.4317 50.5218 23.0931 50.7585C22.757 50.9953 22.3663 51.1136 21.9213 51.1136C21.5922 51.1136 21.3164 51.0545 21.0938 50.9361C20.8737 50.8177 20.6949 50.6721 20.5576 50.4993C20.4227 50.3241 20.3185 50.1536 20.2451 49.9879H20.1883V53.0455H19.5562ZM20.1812 48.2763C20.1812 48.7166 20.2463 49.1072 20.3765 49.4482C20.5091 49.7867 20.6985 50.053 20.9447 50.2472C21.1933 50.4389 21.4939 50.5348 21.8467 50.5348C22.2089 50.5348 22.5143 50.4354 22.7629 50.2365C23.0138 50.0353 23.2044 49.7642 23.3346 49.4233C23.4672 49.0824 23.5335 48.7 23.5335 48.2763C23.5335 47.8572 23.4684 47.4796 23.3382 47.1435C23.2103 46.8073 23.0209 46.541 22.77 46.3445C22.519 46.1456 22.2113 46.0462 21.8467 46.0462C21.4916 46.0462 21.1897 46.142 20.9411 46.3338C20.6926 46.5232 20.5032 46.786 20.373 47.1222C20.2451 47.456 20.1812 47.8407 20.1812 48.2763ZM26.1844 43.7273V51H25.5523V43.7273H26.1844ZM28.2973 53.0455C28.1718 53.0455 28.0547 53.0336 27.9458 53.0099C27.8369 52.9863 27.7504 52.9602 27.6865 52.9318L27.857 52.3743C28.0724 52.4406 28.2642 52.4643 28.4323 52.4453C28.6003 52.4287 28.7495 52.353 28.8797 52.218C29.0099 52.0855 29.1259 51.8819 29.2277 51.6072L29.4266 51.0533L27.4202 45.5455H28.1056L29.7249 50.1655H29.7746L31.3939 45.5455H32.0793L29.771 51.8629C29.674 52.1257 29.5544 52.3447 29.4124 52.5199C29.2703 52.6974 29.1058 52.8288 28.9188 52.9141C28.7341 53.0017 28.527 53.0455 28.2973 53.0455ZM37.6519 51.1243C37.3228 51.1243 37.0222 51.0604 36.7499 50.9325C36.4777 50.8023 36.261 50.6153 36.1001 50.3714C35.9391 50.1252 35.8586 49.8269 35.8586 49.4766C35.8586 49.2067 35.9095 48.9794 36.0113 48.7947C36.1131 48.6101 36.2575 48.4586 36.4445 48.3402C36.6315 48.2218 36.8529 48.1283 37.1086 48.0597C37.3643 47.991 37.646 47.9377 37.9537 47.8999C38.2591 47.862 38.5172 47.8288 38.7279 47.8004C38.941 47.772 39.1031 47.727 39.2144 47.6655C39.3257 47.6039 39.3813 47.5045 39.3813 47.3672V47.2393C39.3813 46.8677 39.27 46.5753 39.0475 46.3622C38.8273 46.1468 38.5101 46.0391 38.0958 46.0391C37.7028 46.0391 37.382 46.1255 37.1334 46.2983C36.8872 46.4711 36.7144 46.6747 36.615 46.9091L36.0148 46.6925C36.1379 46.3942 36.3084 46.1562 36.5262 45.9787C36.744 45.7988 36.9878 45.6697 37.2577 45.5916C37.5276 45.5111 37.801 45.4709 38.078 45.4709C38.2864 45.4709 38.503 45.4981 38.7279 45.5526C38.9552 45.607 39.1659 45.7017 39.36 45.8366C39.5541 45.9692 39.7116 46.1551 39.8323 46.3942C39.953 46.6309 40.0134 46.9316 40.0134 47.2962V51H39.3813V50.1371H39.3422C39.2665 50.2981 39.154 50.4543 39.0049 50.6058C38.8557 50.7573 38.6687 50.8816 38.4438 50.9787C38.2189 51.0758 37.9549 51.1243 37.6519 51.1243ZM37.7371 50.5455C38.0733 50.5455 38.3645 50.4709 38.6107 50.3217C38.8569 50.1726 39.0463 49.9749 39.1789 49.7287C39.3138 49.4801 39.3813 49.2067 39.3813 48.9084V48.12C39.334 48.165 39.2546 48.2053 39.1434 48.2408C39.0345 48.2763 38.9078 48.3082 38.7634 48.3366C38.6214 48.3627 38.4793 48.3852 38.3373 48.4041C38.1952 48.4231 38.0674 48.4396 37.9537 48.4538C37.646 48.4917 37.3832 48.5509 37.1654 48.6314C36.9476 48.7119 36.7807 48.8232 36.6647 48.9652C36.5487 49.1049 36.4907 49.2848 36.4907 49.505C36.4907 49.8364 36.609 50.0933 36.8458 50.2756C37.0825 50.4555 37.3796 50.5455 37.7371 50.5455ZM43.8433 45.5455V46.0959H41.2403V45.5455H43.8433ZM42.0535 44.2386H42.6892V49.576C42.6892 49.8033 42.7282 49.982 42.8064 50.1122C42.8845 50.2401 42.9863 50.3312 43.1118 50.3857C43.2372 50.4377 43.371 50.4638 43.5131 50.4638C43.5959 50.4638 43.6669 50.459 43.7261 50.4496C43.7853 50.4377 43.8374 50.4259 43.8824 50.4141L44.0173 50.9858C43.9558 51.0095 43.88 51.0308 43.79 51.0497C43.7001 51.071 43.5888 51.0817 43.4562 51.0817C43.2242 51.0817 43.0005 51.0308 42.7851 50.929C42.572 50.8272 42.3968 50.6757 42.2595 50.4744C42.1222 50.2732 42.0535 50.0234 42.0535 49.7251V44.2386ZM49.3023 51L47.6546 45.5455H48.3222L49.6148 50.0447H49.661L50.95 45.5455H51.6212L52.8996 50.0341H52.9493L54.2419 45.5455H54.9095L53.2618 51H52.6084L51.3158 46.5291H51.2483L49.9557 51H49.3023ZM58.0727 51.1136C57.6016 51.1136 57.1849 50.9941 56.8227 50.755C56.4629 50.5159 56.1811 50.1856 55.9775 49.7642C55.7739 49.3404 55.6721 48.8516 55.6721 48.2976C55.6721 47.7389 55.7739 47.2476 55.9775 46.8239C56.1811 46.3977 56.4629 46.0663 56.8227 45.8295C57.1849 45.5904 57.6016 45.4709 58.0727 45.4709C58.5438 45.4709 58.9593 45.5904 59.3192 45.8295C59.679 46.0687 59.9607 46.4001 60.1643 46.8239C60.3703 47.2476 60.4733 47.7389 60.4733 48.2976C60.4733 48.8516 60.3715 49.3404 60.1679 49.7642C59.9643 50.1856 59.6814 50.5159 59.3192 50.755C58.9593 50.9941 58.5438 51.1136 58.0727 51.1136ZM58.0727 50.5348C58.4515 50.5348 58.7723 50.433 59.0351 50.2294C59.2979 50.0258 59.4967 49.7547 59.6317 49.4162C59.769 49.0777 59.8376 48.7048 59.8376 48.2976C59.8376 47.8904 59.769 47.5163 59.6317 47.1754C59.4967 46.8345 59.2979 46.5611 59.0351 46.3551C58.7723 46.1491 58.4515 46.0462 58.0727 46.0462C57.6963 46.0462 57.3755 46.1491 57.1104 46.3551C56.8476 46.5611 56.6475 46.8345 56.5102 47.1754C56.3753 47.5163 56.3078 47.8904 56.3078 48.2976C56.3078 48.7048 56.3753 49.0777 56.5102 49.4162C56.6475 49.7547 56.8476 50.0258 57.1104 50.2294C57.3731 50.433 57.6939 50.5348 58.0727 50.5348ZM61.8609 51V45.5455H62.4752V46.3835H62.5214C62.6303 46.1089 62.8197 45.8875 63.0896 45.7195C63.3618 45.549 63.6696 45.4638 64.0129 45.4638C64.065 45.4638 64.123 45.465 64.1869 45.4673C64.2508 45.4697 64.3041 45.4721 64.3467 45.4744V46.1172C64.3183 46.1125 64.2686 46.1054 64.1975 46.0959C64.1265 46.0864 64.0496 46.0817 63.9667 46.0817C63.6826 46.0817 63.4293 46.142 63.2068 46.2628C62.9866 46.3812 62.8126 46.5457 62.6847 46.7564C62.5569 46.9671 62.493 47.2074 62.493 47.4773V51H61.8609ZM66.0006 48.9403L65.9935 48.1129H66.1356L68.6924 45.5455H69.4914L66.9665 48.0739L66.9097 48.0845L66.0006 48.9403ZM65.4253 51V43.7273H66.0574V51H65.4253ZM68.8238 51L66.6079 48.1982L67.0624 47.7614L69.6334 51H68.8238Z" fill="#333333"/>
</svg>
