<svg width="112" height="112" viewBox="0 0 112 112" fill="none" xmlns="http://www.w3.org/2000/svg">
<path d="M11.4423 88.7885C11.757 87.6303 11.0615 86.02 10.3978 84.8591C10.1912 84.513 9.96701 84.1776 9.7262 83.8543C4.03389 75.2216 0.999898 65.1083 1.00026 54.7678C0.907712 25.0863 25.5202 1 55.9552 1C82.4979 1 104.654 19.388 109.831 43.7969C110.607 47.4158 110.999 51.1064 111 54.8075C111 84.5313 87.3368 108.996 56.9018 108.996C52.0629 108.996 45.5316 107.779 41.9699 106.782C38.4081 105.786 34.8516 104.463 33.9341 104.109C32.9957 103.748 31.999 103.563 30.9937 103.562C29.8956 103.558 28.808 103.776 27.7968 104.204L9.86106 110.677C9.46812 110.847 9.05177 110.956 8.6262 111C8.29038 110.999 7.95809 110.931 7.6486 110.801C7.3391 110.671 7.05854 110.48 6.82318 110.241C6.58781 110.001 6.40232 109.717 6.27744 109.405C6.15256 109.094 6.09078 108.76 6.09568 108.425C6.11774 108.13 6.17092 107.838 6.25434 107.555L11.4423 88.7885Z" stroke="#CFCFDD" stroke-miterlimit="10" stroke-linecap="round"/>
<path d="M14.6802 38L13.0325 32.5455H13.7001L14.9927 37.0447H15.0389L16.3279 32.5455H16.9991L18.2775 37.0341H18.3272L19.6199 32.5455H20.2875L18.6397 38H17.9863L16.6937 33.5291H16.6262L15.3336 38H14.6802ZM23.0396 38.1243C22.7105 38.1243 22.4099 38.0604 22.1376 37.9325C21.8654 37.8023 21.6487 37.6153 21.4877 37.3714C21.3268 37.1252 21.2463 36.8269 21.2463 36.4766C21.2463 36.2067 21.2972 35.9794 21.399 35.7947C21.5008 35.6101 21.6452 35.4586 21.8322 35.3402C22.0192 35.2218 22.2406 35.1283 22.4963 35.0597C22.752 34.991 23.0337 34.9377 23.3414 34.8999C23.6468 34.862 23.9049 34.8288 24.1156 34.8004C24.3287 34.772 24.4908 34.727 24.6021 34.6655C24.7134 34.6039 24.769 34.5045 24.769 34.3672V34.2393C24.769 33.8677 24.6577 33.5753 24.4352 33.3622C24.215 33.1468 23.8978 33.0391 23.4835 33.0391C23.0905 33.0391 22.7697 33.1255 22.5211 33.2983C22.2749 33.4711 22.1021 33.6747 22.0027 33.9091L21.4025 33.6925C21.5256 33.3942 21.6961 33.1562 21.9139 32.9787C22.1317 32.7988 22.3755 32.6697 22.6454 32.5916C22.9153 32.5111 23.1887 32.4709 23.4657 32.4709C23.6741 32.4709 23.8907 32.4981 24.1156 32.5526C24.3429 32.607 24.5536 32.7017 24.7477 32.8366C24.9418 32.9692 25.0993 33.1551 25.22 33.3942C25.3407 33.6309 25.4011 33.9316 25.4011 34.2962V38H24.769V37.1371H24.7299C24.6542 37.2981 24.5417 37.4543 24.3926 37.6058C24.2434 37.7573 24.0564 37.8816 23.8315 37.9787C23.6066 38.0758 23.3426 38.1243 23.0396 38.1243ZM23.1248 37.5455C23.461 37.5455 23.7522 37.4709 23.9984 37.3217C24.2446 37.1726 24.434 36.9749 24.5666 36.7287C24.7015 36.4801 24.769 36.2067 24.769 35.9084V35.12C24.7217 35.165 24.6423 35.2053 24.5311 35.2408C24.4222 35.2763 24.2955 35.3082 24.1511 35.3366C24.0091 35.3627 23.867 35.3852 23.725 35.4041C23.5829 35.4231 23.4551 35.4396 23.3414 35.4538C23.0337 35.4917 22.7709 35.5509 22.5531 35.6314C22.3353 35.7119 22.1684 35.8232 22.0524 35.9652C21.9364 36.1049 21.8784 36.2848 21.8784 36.505C21.8784 36.8364 21.9967 37.0933 22.2335 37.2756C22.4702 37.4555 22.7673 37.5455 23.1248 37.5455ZM30.7473 33.7422L30.1685 33.9055C30.1117 33.7422 30.0312 33.5942 29.927 33.4616C29.8229 33.3291 29.6867 33.2237 29.5186 33.1456C29.3529 33.0675 29.147 33.0284 28.9007 33.0284C28.5314 33.0284 28.2284 33.116 27.9917 33.2912C27.7549 33.4664 27.6365 33.6925 27.6365 33.9695C27.6365 34.2038 27.717 34.3944 27.878 34.5412C28.0414 34.6856 28.2923 34.8004 28.6309 34.8857L29.4547 35.0881C29.9116 35.1993 30.2537 35.3757 30.481 35.6172C30.7106 35.8587 30.8255 36.1617 30.8255 36.5263C30.8255 36.834 30.7402 37.1075 30.5698 37.3466C30.3993 37.5857 30.1614 37.7739 29.856 37.9112C29.553 38.0462 29.2014 38.1136 28.8013 38.1136C28.2686 38.1136 27.8295 37.9941 27.4838 37.755C27.1382 37.5135 26.9168 37.1655 26.8198 36.7109L27.427 36.5618C27.5051 36.8861 27.6578 37.1312 27.8851 37.2969C28.1148 37.4626 28.4166 37.5455 28.7907 37.5455C29.2097 37.5455 29.5447 37.4519 29.7956 37.2649C30.0466 37.0755 30.1721 36.8388 30.1721 36.5547C30.1721 36.3345 30.0987 36.1499 29.9519 36.0007C29.8051 35.8492 29.5826 35.7379 29.2843 35.6669L28.3929 35.4538C27.9194 35.3402 27.5691 35.1603 27.3418 34.9141C27.1145 34.6679 27.0009 34.3625 27.0009 33.9979C27.0009 33.6972 27.0826 33.4332 27.2459 33.206C27.4093 32.9763 27.6342 32.7964 27.9206 32.6662C28.2071 32.536 28.5338 32.4709 28.9007 32.4709C29.4003 32.4709 29.7992 32.5845 30.0975 32.8118C30.3981 33.0367 30.6148 33.3468 30.7473 33.7422ZM39.2443 32.5455L37.2521 38H36.5774L34.5852 32.5455H35.2706L36.8899 37.1655H36.9396L38.5589 32.5455H39.2443ZM42.4909 38.1136C41.9819 38.1136 41.5416 37.9953 41.1699 37.7585C40.7982 37.5194 40.5106 37.1892 40.307 36.7678C40.1058 36.344 40.0051 35.8563 40.0051 35.3047C40.0051 34.7554 40.1058 34.2678 40.307 33.8416C40.5106 33.4131 40.7911 33.0781 41.1486 32.8366C41.5085 32.5928 41.9239 32.4709 42.3951 32.4709C42.691 32.4709 42.9763 32.5253 43.2509 32.6342C43.5255 32.7408 43.7717 32.9053 43.9895 33.1278C44.2097 33.348 44.3837 33.6262 44.5115 33.9624C44.6394 34.2962 44.7033 34.6915 44.7033 35.1484V35.4609H40.4419V34.9034H44.057C44.057 34.553 43.986 34.2382 43.8439 33.9588C43.7042 33.6771 43.5089 33.4545 43.258 33.2912C43.0094 33.1278 42.7218 33.0462 42.3951 33.0462C42.0494 33.0462 41.7452 33.1385 41.4824 33.3232C41.2196 33.5078 41.0137 33.7517 40.8645 34.0547C40.7177 34.3577 40.6432 34.6892 40.6408 35.049V35.3828C40.6408 35.8161 40.7154 36.1948 40.8645 36.5192C41.016 36.8411 41.2303 37.0909 41.5073 37.2685C41.7843 37.446 42.1122 37.5348 42.4909 37.5348C42.749 37.5348 42.9751 37.4946 43.1692 37.4141C43.3657 37.3336 43.5302 37.2259 43.6628 37.0909C43.7978 36.9536 43.8996 36.8033 43.9682 36.6399L44.5684 36.8352C44.4855 37.0649 44.3494 37.2768 44.16 37.4709C43.973 37.665 43.7386 37.8213 43.4569 37.9396C43.1775 38.0556 42.8555 38.1136 42.4909 38.1136ZM46.0962 38V32.5455H46.7106V33.3835H46.7567C46.8656 33.1089 47.055 32.8875 47.3249 32.7195C47.5972 32.549 47.9049 32.4638 48.2482 32.4638C48.3003 32.4638 48.3583 32.465 48.4222 32.4673C48.4862 32.4697 48.5394 32.4721 48.582 32.4744V33.1172C48.5536 33.1125 48.5039 33.1054 48.4329 33.0959C48.3619 33.0864 48.2849 33.0817 48.2021 33.0817C47.918 33.0817 47.6647 33.142 47.4421 33.2628C47.2219 33.3812 47.0479 33.5457 46.9201 33.7564C46.7923 33.9671 46.7283 34.2074 46.7283 34.4773V38H46.0962ZM50.267 40.0455C50.1416 40.0455 50.0244 40.0336 49.9155 40.0099C49.8066 39.9863 49.7202 39.9602 49.6562 39.9318L49.8267 39.3743C50.0421 39.4406 50.2339 39.4643 50.402 39.4453C50.5701 39.4287 50.7192 39.353 50.8494 39.218C50.9796 39.0855 51.0956 38.8819 51.1974 38.6072L51.3963 38.0533L49.3899 32.5455H50.0753L51.6946 37.1655H51.7443L53.3636 32.5455H54.049L51.7408 38.8629C51.6437 39.1257 51.5241 39.3447 51.3821 39.5199C51.2401 39.6974 51.0755 39.8288 50.8885 39.9141C50.7038 40.0017 50.4967 40.0455 50.267 40.0455ZM61.5641 35.9155V32.5455H62.1962V38H61.5641V37.0945H61.5144C61.3865 37.3738 61.1841 37.607 60.9071 37.794C60.6301 37.9787 60.2916 38.071 59.8915 38.071C59.5435 38.071 59.2346 37.9953 58.9647 37.8438C58.6948 37.6899 58.4829 37.465 58.329 37.169C58.1751 36.8731 58.0982 36.5097 58.0982 36.0788V32.5455H58.7303V36.0398C58.7303 36.4659 58.8558 36.8092 59.1067 37.0696C59.3577 37.3277 59.6796 37.4567 60.0726 37.4567C60.3188 37.4567 60.5556 37.3975 60.7828 37.2791C61.0101 37.1607 61.1971 36.9879 61.3439 36.7607C61.4907 36.531 61.5641 36.2493 61.5641 35.9155ZM67.5344 33.7422L66.9556 33.9055C66.8988 33.7422 66.8183 33.5942 66.7141 33.4616C66.61 33.3291 66.4738 33.2237 66.3058 33.1456C66.14 33.0675 65.9341 33.0284 65.6879 33.0284C65.3185 33.0284 65.0155 33.116 64.7788 33.2912C64.542 33.4664 64.4237 33.6925 64.4237 33.9695C64.4237 34.2038 64.5041 34.3944 64.6651 34.5412C64.8285 34.6856 65.0794 34.8004 65.418 34.8857L66.2418 35.0881C66.6987 35.1993 67.0408 35.3757 67.2681 35.6172C67.4978 35.8587 67.6126 36.1617 67.6126 36.5263C67.6126 36.834 67.5273 37.1075 67.3569 37.3466C67.1864 37.5857 66.9485 37.7739 66.6431 37.9112C66.3401 38.0462 65.9885 38.1136 65.5884 38.1136C65.0558 38.1136 64.6166 37.9941 64.271 37.755C63.9253 37.5135 63.704 37.1655 63.6069 36.7109L64.2141 36.5618C64.2923 36.8861 64.445 37.1312 64.6722 37.2969C64.9019 37.4626 65.2037 37.5455 65.5778 37.5455C65.9968 37.5455 66.3318 37.4519 66.5827 37.2649C66.8337 37.0755 66.9592 36.8388 66.9592 36.5547C66.9592 36.3345 66.8858 36.1499 66.739 36.0007C66.5922 35.8492 66.3697 35.7379 66.0714 35.6669L65.18 35.4538C64.7066 35.3402 64.3562 35.1603 64.1289 34.9141C63.9016 34.6679 63.788 34.3625 63.788 33.9979C63.788 33.6972 63.8697 33.4332 64.033 33.206C64.1964 32.9763 64.4213 32.7964 64.7077 32.6662C64.9942 32.536 65.3209 32.4709 65.6879 32.4709C66.1874 32.4709 66.5863 32.5845 66.8846 32.8118C67.1853 33.0367 67.4019 33.3468 67.5344 33.7422ZM71.2019 38.1136C70.6929 38.1136 70.2525 37.9953 69.8809 37.7585C69.5092 37.5194 69.2215 37.1892 69.0179 36.7678C68.8167 36.344 68.7161 35.8563 68.7161 35.3047C68.7161 34.7554 68.8167 34.2678 69.0179 33.8416C69.2215 33.4131 69.5021 33.0781 69.8596 32.8366C70.2194 32.5928 70.6349 32.4709 71.106 32.4709C71.4019 32.4709 71.6872 32.5253 71.9618 32.6342C72.2364 32.7408 72.4827 32.9053 72.7005 33.1278C72.9206 33.348 73.0946 33.6262 73.2225 33.9624C73.3503 34.2962 73.4142 34.6915 73.4142 35.1484V35.4609H69.1529V34.9034H72.7679C72.7679 34.553 72.6969 34.2382 72.5549 33.9588C72.4152 33.6771 72.2199 33.4545 71.9689 33.2912C71.7203 33.1278 71.4327 33.0462 71.106 33.0462C70.7604 33.0462 70.4561 33.1385 70.1934 33.3232C69.9306 33.5078 69.7246 33.7517 69.5755 34.0547C69.4287 34.3577 69.3541 34.6892 69.3517 35.049V35.3828C69.3517 35.8161 69.4263 36.1948 69.5755 36.5192C69.727 36.8411 69.9412 37.0909 70.2182 37.2685C70.4952 37.446 70.8231 37.5348 71.2019 37.5348C71.4599 37.5348 71.686 37.4946 71.8801 37.4141C72.0766 37.3336 72.2412 37.2259 72.3738 37.0909C72.5087 36.9536 72.6105 36.8033 72.6792 36.6399L73.2793 36.8352C73.1964 37.0649 73.0603 37.2768 72.8709 37.4709C72.6839 37.665 72.4495 37.8213 72.1678 37.9396C71.8884 38.0556 71.5665 38.1136 71.2019 38.1136ZM77.0515 32.5455V33.0959H74.3704V32.5455H77.0515ZM75.2085 38V31.7464C75.2085 31.4529 75.2759 31.2055 75.4109 31.0043C75.5482 30.803 75.7269 30.6503 75.9471 30.5462C76.1673 30.442 76.4004 30.3899 76.6467 30.3899C76.8124 30.3899 76.9497 30.4041 77.0586 30.4325C77.1699 30.4586 77.2575 30.4846 77.3214 30.5107L77.1367 31.0646C77.0894 31.0504 77.0314 31.0339 76.9627 31.0149C76.8941 30.996 76.8076 30.9865 76.7035 30.9865C76.4289 30.9865 76.217 31.0634 76.0678 31.2173C75.9187 31.3712 75.8441 31.5914 75.8441 31.8778L75.8406 38H75.2085ZM81.7789 35.9155V32.5455H82.411V38H81.7789V37.0945H81.7292C81.6014 37.3738 81.399 37.607 81.122 37.794C80.845 37.9787 80.5065 38.071 80.1064 38.071C79.7583 38.071 79.4494 37.9953 79.1795 37.8438C78.9096 37.6899 78.6977 37.465 78.5439 37.169C78.39 36.8731 78.313 36.5097 78.313 36.0788V32.5455H78.9451V36.0398C78.9451 36.4659 79.0706 36.8092 79.3216 37.0696C79.5725 37.3277 79.8945 37.4567 80.2875 37.4567C80.5337 37.4567 80.7704 37.3975 80.9977 37.2791C81.225 37.1607 81.412 36.9879 81.5588 36.7607C81.7056 36.531 81.7789 36.2493 81.7789 35.9155ZM84.7166 30.7273V38H84.0845V30.7273H84.7166ZM87.0213 30.7273V38H86.3892V30.7273H87.0213ZM93.0298 38.1243C92.7008 38.1243 92.4001 38.0604 92.1278 37.9325C91.8556 37.8023 91.639 37.6153 91.478 37.3714C91.317 37.1252 91.2365 36.8269 91.2365 36.4766C91.2365 36.2067 91.2874 35.9794 91.3892 35.7947C91.491 35.6101 91.6354 35.4586 91.8224 35.3402C92.0095 35.2218 92.2308 35.1283 92.4865 35.0597C92.7422 34.991 93.0239 34.9377 93.3317 34.8999C93.6371 34.862 93.8951 34.8288 94.1058 34.8004C94.3189 34.772 94.4811 34.727 94.5923 34.6655C94.7036 34.6039 94.7592 34.5045 94.7592 34.3672V34.2393C94.7592 33.8677 94.648 33.5753 94.4254 33.3622C94.2053 33.1468 93.888 33.0391 93.4737 33.0391C93.0807 33.0391 92.7599 33.1255 92.5114 33.2983C92.2652 33.4711 92.0923 33.6747 91.9929 33.9091L91.3928 33.6925C91.5159 33.3942 91.6863 33.1562 91.9041 32.9787C92.1219 32.7988 92.3658 32.6697 92.6357 32.5916C92.9055 32.5111 93.179 32.4709 93.456 32.4709C93.6643 32.4709 93.8809 32.4981 94.1058 32.5526C94.3331 32.607 94.5438 32.7017 94.7379 32.8366C94.9321 32.9692 95.0895 33.1551 95.2102 33.3942C95.331 33.6309 95.3913 33.9316 95.3913 34.2962V38H94.7592V37.1371H94.7202C94.6444 37.2981 94.532 37.4543 94.3828 37.6058C94.2337 37.7573 94.0466 37.8816 93.8217 37.9787C93.5968 38.0758 93.3329 38.1243 93.0298 38.1243ZM93.1151 37.5455C93.4512 37.5455 93.7424 37.4709 93.9886 37.3217C94.2348 37.1726 94.4242 36.9749 94.5568 36.7287C94.6918 36.4801 94.7592 36.2067 94.7592 35.9084V35.12C94.7119 35.165 94.6326 35.2053 94.5213 35.2408C94.4124 35.2763 94.2857 35.3082 94.1413 35.3366C93.9993 35.3627 93.8572 35.3852 93.7152 35.4041C93.5732 35.4231 93.4453 35.4396 93.3317 35.4538C93.0239 35.4917 92.7611 35.5509 92.5433 35.6314C92.3255 35.7119 92.1586 35.8232 92.0426 35.9652C91.9266 36.1049 91.8686 36.2848 91.8686 36.505C91.8686 36.8364 91.987 37.0933 92.2237 37.2756C92.4605 37.4555 92.7576 37.5455 93.1151 37.5455ZM100.738 33.7422L100.159 33.9055C100.102 33.7422 100.021 33.5942 99.9173 33.4616C99.8131 33.3291 99.677 33.2237 99.5089 33.1456C99.3432 33.0675 99.1372 33.0284 98.891 33.0284C98.5217 33.0284 98.2186 33.116 97.9819 33.2912C97.7451 33.4664 97.6268 33.6925 97.6268 33.9695C97.6268 34.2038 97.7073 34.3944 97.8683 34.5412C98.0316 34.6856 98.2826 34.8004 98.6211 34.8857L99.445 35.0881C99.9019 35.1993 100.244 35.3757 100.471 35.6172C100.701 35.8587 100.816 36.1617 100.816 36.5263C100.816 36.834 100.73 37.1075 100.56 37.3466C100.39 37.5857 100.152 37.7739 99.8462 37.9112C99.5432 38.0462 99.1916 38.1136 98.7915 38.1136C98.2589 38.1136 97.8197 37.9941 97.4741 37.755C97.1284 37.5135 96.9071 37.1655 96.81 36.7109L97.4173 36.5618C97.4954 36.8861 97.6481 37.1312 97.8754 37.2969C98.105 37.4626 98.4068 37.5455 98.7809 37.5455C99.1999 37.5455 99.5349 37.4519 99.7859 37.2649C100.037 37.0755 100.162 36.8388 100.162 36.5547C100.162 36.3345 100.089 36.1499 99.9421 36.0007C99.7953 35.8492 99.5728 35.7379 99.2745 35.6669L98.3832 35.4538C97.9097 35.3402 97.5593 35.1603 97.332 34.9141C97.1048 34.6679 96.9911 34.3625 96.9911 33.9979C96.9911 33.6972 97.0728 33.4332 97.2362 33.206C97.3995 32.9763 97.6244 32.7964 97.9109 32.6662C98.1973 32.536 98.524 32.4709 98.891 32.4709C99.3905 32.4709 99.7894 32.5845 100.088 32.8118C100.388 33.0367 100.605 33.3468 100.738 33.7422ZM19.0672 50V44.5455H19.7029V50H19.0672ZM19.3904 43.608C19.2602 43.608 19.1489 43.5642 19.0566 43.4766C18.9642 43.3866 18.9181 43.2789 18.9181 43.1534C18.9181 43.0279 18.9642 42.9214 19.0566 42.8338C19.1489 42.7438 19.2602 42.6989 19.3904 42.6989C19.5206 42.6989 19.6318 42.7438 19.7242 42.8338C19.8165 42.9214 19.8627 43.0279 19.8627 43.1534C19.8627 43.2789 19.8165 43.3866 19.7242 43.4766C19.6318 43.5642 19.5206 43.608 19.3904 43.608ZM23.523 44.5455V45.0959H20.92V44.5455H23.523ZM21.7332 43.2386H22.3689V48.576C22.3689 48.8033 22.4079 48.982 22.4861 49.1122C22.5642 49.2401 22.666 49.3312 22.7915 49.3857C22.9169 49.4377 23.0507 49.4638 23.1927 49.4638C23.2756 49.4638 23.3466 49.459 23.4058 49.4496C23.465 49.4377 23.5171 49.4259 23.5621 49.4141L23.697 49.9858C23.6354 50.0095 23.5597 50.0308 23.4697 50.0497C23.3798 50.071 23.2685 50.0817 23.1359 50.0817C22.9039 50.0817 22.6802 50.0308 22.4648 49.929C22.2517 49.8272 22.0765 49.6757 21.9392 49.4744C21.8019 49.2732 21.7332 49.0234 21.7332 48.7251V43.2386ZM29.9017 50.1136C29.414 50.1136 28.9891 49.9917 28.6269 49.7479C28.267 49.504 27.9877 49.1702 27.7888 48.7464C27.5899 48.3227 27.4905 47.8397 27.4905 47.2976C27.4905 46.7507 27.5911 46.2642 27.7923 45.8381C27.9959 45.4119 28.2777 45.0781 28.6375 44.8366C28.9974 44.5928 29.4152 44.4709 29.8911 44.4709C30.2557 44.4709 30.5859 44.5419 30.8818 44.6839C31.1778 44.8236 31.4216 45.0213 31.6134 45.277C31.8075 45.5303 31.9294 45.8262 31.9791 46.1648H31.3399C31.2736 45.857 31.1138 45.5942 30.8605 45.3764C30.6096 45.1562 30.29 45.0462 29.9017 45.0462C29.5537 45.0462 29.2459 45.1409 28.9784 45.3303C28.7109 45.5173 28.5014 45.7789 28.3499 46.1151C28.2007 46.4489 28.1262 46.8359 28.1262 47.2763C28.1262 47.719 28.1995 48.1108 28.3463 48.4517C28.4931 48.7902 28.6991 49.0554 28.9642 49.2472C29.2317 49.4389 29.5442 49.5348 29.9017 49.5348C30.1432 49.5348 30.3634 49.4898 30.5622 49.3999C30.7635 49.3075 30.9316 49.1773 31.0665 49.0092C31.2038 48.8411 31.2961 48.6411 31.3435 48.4091H31.9827C31.9353 48.7382 31.8182 49.0317 31.6311 49.2898C31.4465 49.5455 31.2062 49.7467 30.9102 49.8935C30.6167 50.0402 30.2805 50.1136 29.9017 50.1136ZM35.4575 50.1136C34.9864 50.1136 34.5697 49.9941 34.2075 49.755C33.8476 49.5159 33.5659 49.1856 33.3623 48.7642C33.1587 48.3404 33.0569 47.8516 33.0569 47.2976C33.0569 46.7389 33.1587 46.2476 33.3623 45.8239C33.5659 45.3977 33.8476 45.0663 34.2075 44.8295C34.5697 44.5904 34.9864 44.4709 35.4575 44.4709C35.9286 44.4709 36.3441 44.5904 36.7039 44.8295C37.0638 45.0687 37.3455 45.4001 37.5491 45.8239C37.7551 46.2476 37.858 46.7389 37.858 47.2976C37.858 47.8516 37.7562 48.3404 37.5526 48.7642C37.349 49.1856 37.0661 49.5159 36.7039 49.755C36.3441 49.9941 35.9286 50.1136 35.4575 50.1136ZM35.4575 49.5348C35.8363 49.5348 36.157 49.433 36.4198 49.2294C36.6826 49.0258 36.8815 48.7547 37.0164 48.4162C37.1537 48.0777 37.2224 47.7048 37.2224 47.2976C37.2224 46.8904 37.1537 46.5163 37.0164 46.1754C36.8815 45.8345 36.6826 45.5611 36.4198 45.3551C36.157 45.1491 35.8363 45.0462 35.4575 45.0462C35.0811 45.0462 34.7603 45.1491 34.4951 45.3551C34.2323 45.5611 34.0323 45.8345 33.895 46.1754C33.76 46.5163 33.6926 46.8904 33.6926 47.2976C33.6926 47.7048 33.76 48.0777 33.895 48.4162C34.0323 48.7547 34.2323 49.0258 34.4951 49.2294C34.7579 49.433 35.0787 49.5348 35.4575 49.5348ZM43.2726 44.5455L41.2805 50H40.6057L38.6135 44.5455H39.2989L40.9182 49.1655H40.968L42.5873 44.5455H43.2726ZM46.5193 50.1136C46.0103 50.1136 45.5699 49.9953 45.1982 49.7585C44.8266 49.5194 44.5389 49.1892 44.3353 48.7678C44.1341 48.344 44.0335 47.8563 44.0335 47.3047C44.0335 46.7554 44.1341 46.2678 44.3353 45.8416C44.5389 45.4131 44.8195 45.0781 45.1769 44.8366C45.5368 44.5928 45.9523 44.4709 46.4234 44.4709C46.7193 44.4709 47.0046 44.5253 47.2792 44.6342C47.5538 44.7408 47.8 44.9053 48.0178 45.1278C48.238 45.348 48.412 45.6262 48.5399 45.9624C48.6677 46.2962 48.7316 46.6915 48.7316 47.1484V47.4609H44.4703V46.9034H48.0853C48.0853 46.553 48.0143 46.2382 47.8722 45.9588C47.7326 45.6771 47.5373 45.4545 47.2863 45.2912C47.0377 45.1278 46.7501 45.0462 46.4234 45.0462C46.0777 45.0462 45.7735 45.1385 45.5107 45.3232C45.248 45.5078 45.042 45.7517 44.8928 46.0547C44.7461 46.3577 44.6715 46.6892 44.6691 47.049V47.3828C44.6691 47.8161 44.7437 48.1948 44.8928 48.5192C45.0444 48.8411 45.2586 49.0909 45.5356 49.2685C45.8126 49.446 46.1405 49.5348 46.5193 49.5348C46.7773 49.5348 47.0034 49.4946 47.1975 49.4141C47.394 49.3336 47.5586 49.2259 47.6911 49.0909C47.8261 48.9536 47.9279 48.8033 47.9965 48.6399L48.5967 48.8352C48.5138 49.0649 48.3777 49.2768 48.1883 49.4709C48.0013 49.665 47.7669 49.8213 47.4852 49.9396C47.2058 50.0556 46.8838 50.1136 46.5193 50.1136ZM50.1246 50V44.5455H50.7389V45.3835H50.7851C50.894 45.1089 51.0834 44.8875 51.3532 44.7195C51.6255 44.549 51.9333 44.4638 52.2765 44.4638C52.3286 44.4638 52.3866 44.465 52.4506 44.4673C52.5145 44.4697 52.5677 44.4721 52.6104 44.4744V45.1172C52.5819 45.1125 52.5322 45.1054 52.4612 45.0959C52.3902 45.0864 52.3132 45.0817 52.2304 45.0817C51.9463 45.0817 51.693 45.142 51.4704 45.2628C51.2503 45.3812 51.0763 45.5457 50.9484 45.7564C50.8206 45.9671 50.7567 46.2074 50.7567 46.4773V50H50.1246ZM55.7282 50.1136C55.2193 50.1136 54.7789 49.9953 54.4072 49.7585C54.0355 49.5194 53.7479 49.1892 53.5443 48.7678C53.3431 48.344 53.2425 47.8563 53.2425 47.3047C53.2425 46.7554 53.3431 46.2678 53.5443 45.8416C53.7479 45.4131 54.0284 45.0781 54.3859 44.8366C54.7458 44.5928 55.1613 44.4709 55.6324 44.4709C55.9283 44.4709 56.2136 44.5253 56.4882 44.6342C56.7628 44.7408 57.009 44.9053 57.2268 45.1278C57.447 45.348 57.621 45.6262 57.7488 45.9624C57.8767 46.2962 57.9406 46.6915 57.9406 47.1484V47.4609H53.6792V46.9034H57.2943C57.2943 46.553 57.2233 46.2382 57.0812 45.9588C56.9416 45.6771 56.7462 45.4545 56.4953 45.2912C56.2467 45.1278 55.9591 45.0462 55.6324 45.0462C55.2867 45.0462 54.9825 45.1385 54.7197 45.3232C54.4569 45.5078 54.251 45.7517 54.1018 46.0547C53.955 46.3577 53.8805 46.6892 53.8781 47.049V47.3828C53.8781 47.8161 53.9527 48.1948 54.1018 48.5192C54.2533 48.8411 54.4676 49.0909 54.7446 49.2685C55.0216 49.446 55.3495 49.5348 55.7282 49.5348C55.9863 49.5348 56.2124 49.4946 56.4065 49.4141C56.603 49.3336 56.7675 49.2259 56.9001 49.0909C57.0351 48.9536 57.1369 48.8033 57.2055 48.6399L57.8057 48.8352C57.7228 49.0649 57.5867 49.2768 57.3973 49.4709C57.2103 49.665 56.9759 49.8213 56.6942 49.9396C56.4148 50.0556 56.0928 50.1136 55.7282 50.1136ZM61.2973 50.1136C60.8499 50.1136 60.4581 49.9953 60.1219 49.7585C59.7857 49.5218 59.5229 49.1915 59.3335 48.7678C59.1465 48.344 59.053 47.8504 59.053 47.2869C59.053 46.7259 59.1465 46.2346 59.3335 45.8132C59.5229 45.3894 59.7869 45.0604 60.1254 44.826C60.464 44.5893 60.8582 44.4709 61.308 44.4709C61.6394 44.4709 61.9152 44.5301 62.1354 44.6484C62.3556 44.7644 62.5319 44.9089 62.6645 45.0817C62.7971 45.2545 62.9001 45.4226 62.9735 45.5859H63.0303V42.7273H63.6659V50H63.048V48.9879H62.9735C62.9001 49.1536 62.7959 49.3241 62.661 49.4993C62.526 49.6721 62.3473 49.8177 62.1247 49.9361C61.9046 50.0545 61.6288 50.1136 61.2973 50.1136ZM61.3719 49.5348C61.7246 49.5348 62.0253 49.4389 62.2739 49.2472C62.5225 49.053 62.7119 48.7867 62.8421 48.4482C62.9746 48.1072 63.0409 47.7166 63.0409 47.2763C63.0409 46.8407 62.9758 46.456 62.8456 46.1222C62.7154 45.786 62.526 45.5232 62.2774 45.3338C62.0289 45.142 61.727 45.0462 61.3719 45.0462C61.0073 45.0462 60.6995 45.1456 60.4486 45.3445C60.2 45.541 60.0106 45.8073 59.8804 46.1435C59.7526 46.4796 59.6887 46.8572 59.6887 47.2763C59.6887 47.7 59.7538 48.0824 59.884 48.4233C60.0142 48.7642 60.2036 49.0353 60.4521 49.2365C60.7031 49.4354 61.0097 49.5348 61.3719 49.5348ZM69.8023 50.1243C69.4732 50.1243 69.1726 50.0604 68.9003 49.9325C68.628 49.8023 68.4114 49.6153 68.2504 49.3714C68.0895 49.1252 68.009 48.8269 68.009 48.4766C68.009 48.2067 68.0599 47.9794 68.1617 47.7947C68.2635 47.6101 68.4079 47.4586 68.5949 47.3402C68.7819 47.2218 69.0033 47.1283 69.259 47.0597C69.5146 46.991 69.7964 46.9377 70.1041 46.8999C70.4095 46.862 70.6676 46.8288 70.8783 46.8004C71.0914 46.772 71.2535 46.727 71.3648 46.6655C71.4761 46.6039 71.5317 46.5045 71.5317 46.3672V46.2393C71.5317 45.8677 71.4204 45.5753 71.1979 45.3622C70.9777 45.1468 70.6605 45.0391 70.2462 45.0391C69.8532 45.0391 69.5324 45.1255 69.2838 45.2983C69.0376 45.4711 68.8648 45.6747 68.7654 45.9091L68.1652 45.6925C68.2883 45.3942 68.4588 45.1562 68.6766 44.9787C68.8944 44.7988 69.1382 44.6697 69.4081 44.5916C69.678 44.5111 69.9514 44.4709 70.2284 44.4709C70.4368 44.4709 70.6534 44.4981 70.8783 44.5526C71.1056 44.607 71.3163 44.7017 71.5104 44.8366C71.7045 44.9692 71.8619 45.1551 71.9827 45.3942C72.1034 45.6309 72.1638 45.9316 72.1638 46.2962V50H71.5317V49.1371H71.4926C71.4169 49.2981 71.3044 49.4543 71.1553 49.6058C71.0061 49.7573 70.8191 49.8816 70.5942 49.9787C70.3693 50.0758 70.1053 50.1243 69.8023 50.1243ZM69.8875 49.5455C70.2237 49.5455 70.5149 49.4709 70.7611 49.3217C71.0073 49.1726 71.1967 48.9749 71.3293 48.7287C71.4642 48.4801 71.5317 48.2067 71.5317 47.9084V47.12C71.4843 47.165 71.405 47.2053 71.2938 47.2408C71.1849 47.2763 71.0582 47.3082 70.9138 47.3366C70.7718 47.3627 70.6297 47.3852 70.4877 47.4041C70.3456 47.4231 70.2178 47.4396 70.1041 47.4538C69.7964 47.4917 69.5336 47.5509 69.3158 47.6314C69.098 47.7119 68.9311 47.8232 68.8151 47.9652C68.6991 48.1049 68.6411 48.2848 68.6411 48.505C68.6411 48.8364 68.7594 49.0933 68.9962 49.2756C69.2329 49.4555 69.53 49.5455 69.8875 49.5455ZM74.4774 42.7273V50H73.8453V42.7273H74.4774ZM76.782 42.7273V50H76.1499V42.7273H76.782ZM83.4156 44.5455V45.0959H80.8126V44.5455H83.4156ZM81.6258 43.2386H82.2615V48.576C82.2615 48.8033 82.3005 48.982 82.3786 49.1122C82.4568 49.2401 82.5586 49.3312 82.684 49.3857C82.8095 49.4377 82.9433 49.4638 83.0853 49.4638C83.1682 49.4638 83.2392 49.459 83.2984 49.4496C83.3576 49.4377 83.4097 49.4259 83.4546 49.4141L83.5896 49.9858C83.528 50.0095 83.4523 50.0308 83.3623 50.0497C83.2723 50.071 83.1611 50.0817 83.0285 50.0817C82.7965 50.0817 82.5728 50.0308 82.3573 49.929C82.1443 49.8272 81.9691 49.6757 81.8318 49.4744C81.6945 49.2732 81.6258 49.0234 81.6258 48.7251V43.2386ZM85.6004 46.5909V50H84.9683V42.7273H85.6004V45.4013H85.6572C85.7851 45.1196 85.9827 44.8946 86.2503 44.7266C86.5202 44.5585 86.8611 44.4744 87.273 44.4744C87.6423 44.4744 87.9666 44.5502 88.246 44.7017C88.5254 44.8532 88.7432 45.0769 88.8994 45.3729C89.0557 45.6688 89.1338 46.0334 89.1338 46.4666V50H88.4981V46.5057C88.4981 46.0559 88.3727 45.7019 88.1217 45.4439C87.8731 45.1835 87.537 45.0533 87.1132 45.0533C86.822 45.0533 86.5628 45.1148 86.3355 45.2379C86.1082 45.361 85.9283 45.5386 85.7957 45.7706C85.6655 46.0002 85.6004 46.2737 85.6004 46.5909ZM93.0036 50.1136C92.4946 50.1136 92.0543 49.9953 91.6826 49.7585C91.3109 49.5194 91.0233 49.1892 90.8197 48.7678C90.6185 48.344 90.5178 47.8563 90.5178 47.3047C90.5178 46.7554 90.6185 46.2678 90.8197 45.8416C91.0233 45.4131 91.3038 45.0781 91.6613 44.8366C92.0212 44.5928 92.4366 44.4709 92.9078 44.4709C93.2037 44.4709 93.489 44.5253 93.7636 44.6342C94.0382 44.7408 94.2844 44.9053 94.5022 45.1278C94.7224 45.348 94.8964 45.6262 95.0242 45.9624C95.1521 46.2962 95.216 46.6915 95.216 47.1484V47.4609H90.9546V46.9034H94.5697C94.5697 46.553 94.4987 46.2382 94.3566 45.9588C94.2169 45.6771 94.0216 45.4545 93.7707 45.2912C93.5221 45.1278 93.2345 45.0462 92.9078 45.0462C92.5621 45.0462 92.2579 45.1385 91.9951 45.3232C91.7323 45.5078 91.5264 45.7517 91.3772 46.0547C91.2304 46.3577 91.1559 46.6892 91.1535 47.049V47.3828C91.1535 47.8161 91.2281 48.1948 91.3772 48.5192C91.5287 48.8411 91.743 49.0909 92.02 49.2685C92.297 49.446 92.6249 49.5348 93.0036 49.5348C93.2617 49.5348 93.4878 49.4946 93.6819 49.4141C93.8784 49.3336 94.0429 49.2259 94.1755 49.0909C94.3105 48.9536 94.4123 48.8033 94.4809 48.6399L95.0811 48.8352C94.9982 49.0649 94.8621 49.2768 94.6727 49.4709C94.4856 49.665 94.2513 49.8213 93.9695 49.9396C93.6902 50.0556 93.3682 50.1136 93.0036 50.1136ZM19.5067 62V56.5455H20.1423V62H19.5067ZM19.8298 55.608C19.6996 55.608 19.5883 55.5642 19.496 55.4766C19.4037 55.3866 19.3575 55.2789 19.3575 55.1534C19.3575 55.0279 19.4037 54.9214 19.496 54.8338C19.5883 54.7438 19.6996 54.6989 19.8298 54.6989C19.96 54.6989 20.0713 54.7438 20.1636 54.8338C20.2559 54.9214 20.3021 55.0279 20.3021 55.1534C20.3021 55.2789 20.2559 55.3866 20.1636 55.4766C20.0713 55.5642 19.96 55.608 19.8298 55.608ZM21.814 62V56.5455H22.4284V57.3835H22.4852C22.5941 57.1018 22.7752 56.8804 23.0285 56.7195C23.2842 56.5561 23.5908 56.4744 23.9482 56.4744C24.3247 56.4744 24.6336 56.5632 24.8751 56.7408C25.1189 56.916 25.3012 57.1574 25.422 57.4652H25.4681C25.5912 57.1622 25.7913 56.9219 26.0683 56.7443C26.3476 56.5644 26.6862 56.4744 27.0839 56.4744C27.5905 56.4744 27.9906 56.6342 28.2842 56.9538C28.5777 57.2711 28.7245 57.7351 28.7245 58.3459V62H28.0924V58.3459C28.0924 57.915 27.9823 57.5919 27.7622 57.3764C27.542 57.161 27.252 57.0533 26.8921 57.0533C26.4755 57.0533 26.1547 57.1811 25.9298 57.4368C25.7049 57.6925 25.5924 58.0168 25.5924 58.4098V62H24.9461V58.2891C24.9461 57.9197 24.8431 57.6214 24.6372 57.3942C24.4312 57.1669 24.1412 57.0533 23.7671 57.0533C23.5162 57.0533 23.2901 57.1148 23.0889 57.2379C22.89 57.361 22.7326 57.5327 22.6166 57.7528C22.5029 57.9706 22.4461 58.2216 22.4461 58.5057V62H21.814ZM30.398 64.0455V56.5455H31.0123V57.5859H31.0869C31.1627 57.4226 31.2668 57.2557 31.3994 57.0852C31.532 56.9124 31.7072 56.7668 31.925 56.6484C32.1452 56.5301 32.4221 56.4709 32.7559 56.4709C33.2058 56.4709 33.5988 56.5893 33.9349 56.826C34.2735 57.0604 34.5363 57.3894 34.7233 57.8132C34.9127 58.2346 35.0074 58.7259 35.0074 59.2869C35.0074 59.8504 34.9127 60.344 34.7233 60.7678C34.5363 61.1915 34.2735 61.5218 33.9349 61.7585C33.5988 61.9953 33.2081 62.1136 32.7631 62.1136C32.434 62.1136 32.1582 62.0545 31.9356 61.9361C31.7155 61.8177 31.5367 61.6721 31.3994 61.4993C31.2645 61.3241 31.1603 61.1536 31.0869 60.9879H31.0301V64.0455H30.398ZM31.023 59.2763C31.023 59.7166 31.0881 60.1072 31.2183 60.4482C31.3509 60.7867 31.5403 61.053 31.7865 61.2472C32.0351 61.4389 32.3357 61.5348 32.6885 61.5348C33.0507 61.5348 33.3561 61.4354 33.6047 61.2365C33.8556 61.0353 34.0462 60.7642 34.1764 60.4233C34.309 60.0824 34.3753 59.7 34.3753 59.2763C34.3753 58.8572 34.3102 58.4796 34.18 58.1435C34.0521 57.8073 33.8627 57.541 33.6118 57.3445C33.3608 57.1456 33.0531 57.0462 32.6885 57.0462C32.3334 57.0462 32.0315 57.142 31.7829 57.3338C31.5344 57.5232 31.345 57.786 31.2148 58.1222C31.0869 58.456 31.023 58.8407 31.023 59.2763ZM38.5141 62.1136C38.043 62.1136 37.6263 61.9941 37.2641 61.755C36.9043 61.5159 36.6225 61.1856 36.4189 60.7642C36.2153 60.3404 36.1135 59.8516 36.1135 59.2976C36.1135 58.7389 36.2153 58.2476 36.4189 57.8239C36.6225 57.3977 36.9043 57.0663 37.2641 56.8295C37.6263 56.5904 38.043 56.4709 38.5141 56.4709C38.9852 56.4709 39.4007 56.5904 39.7606 56.8295C40.1204 57.0687 40.4021 57.4001 40.6057 57.8239C40.8117 58.2476 40.9147 58.7389 40.9147 59.2976C40.9147 59.8516 40.8129 60.3404 40.6093 60.7642C40.4057 61.1856 40.1228 61.5159 39.7606 61.755C39.4007 61.9941 38.9852 62.1136 38.5141 62.1136ZM38.5141 61.5348C38.8929 61.5348 39.2137 61.433 39.4765 61.2294C39.7393 61.0258 39.9381 60.7547 40.0731 60.4162C40.2104 60.0777 40.279 59.7048 40.279 59.2976C40.279 58.8904 40.2104 58.5163 40.0731 58.1754C39.9381 57.8345 39.7393 57.5611 39.4765 57.3551C39.2137 57.1491 38.8929 57.0462 38.5141 57.0462C38.1377 57.0462 37.8169 57.1491 37.5518 57.3551C37.289 57.5611 37.0889 57.8345 36.9516 58.1754C36.8167 58.5163 36.7492 58.8904 36.7492 59.2976C36.7492 59.7048 36.8167 60.0777 36.9516 60.4162C37.0889 60.7547 37.289 61.0258 37.5518 61.2294C37.8145 61.433 38.1353 61.5348 38.5141 61.5348ZM42.3023 62V56.5455H42.9166V57.3835H42.9628C43.0717 57.1089 43.2611 56.8875 43.531 56.7195C43.8032 56.549 44.111 56.4638 44.4543 56.4638C44.5064 56.4638 44.5644 56.465 44.6283 56.4673C44.6922 56.4697 44.7455 56.4721 44.7881 56.4744V57.1172C44.7597 57.1125 44.71 57.1054 44.6389 57.0959C44.5679 57.0864 44.491 57.0817 44.4081 57.0817C44.124 57.0817 43.8707 57.142 43.6482 57.2628C43.428 57.3812 43.254 57.5457 43.1262 57.7564C42.9983 57.9671 42.9344 58.2074 42.9344 58.4773V62H42.3023ZM48.357 56.5455V57.0959H45.754V56.5455H48.357ZM46.5672 55.2386H47.2029V60.576C47.2029 60.8033 47.2419 60.982 47.32 61.1122C47.3982 61.2401 47.5 61.3312 47.6254 61.3857C47.7509 61.4377 47.8847 61.4638 48.0267 61.4638C48.1096 61.4638 48.1806 61.459 48.2398 61.4496C48.299 61.4377 48.3511 61.4259 48.396 61.4141L48.531 61.9858C48.4694 62.0095 48.3937 62.0308 48.3037 62.0497C48.2137 62.071 48.1025 62.0817 47.9699 62.0817C47.7379 62.0817 47.5142 62.0308 47.2987 61.929C47.0857 61.8272 46.9105 61.6757 46.7732 61.4744C46.6359 61.2732 46.5672 61.0234 46.5672 60.7251V55.2386ZM51.316 62.1243C50.9869 62.1243 50.6862 62.0604 50.414 61.9325C50.1417 61.8023 49.9251 61.6153 49.7641 61.3714C49.6031 61.1252 49.5226 60.8269 49.5226 60.4766C49.5226 60.2067 49.5735 59.9794 49.6753 59.7947C49.7771 59.6101 49.9215 59.4586 50.1086 59.3402C50.2956 59.2218 50.517 59.1283 50.7726 59.0597C51.0283 58.991 51.31 58.9377 51.6178 58.8999C51.9232 58.862 52.1813 58.8288 52.392 58.8004C52.605 58.772 52.7672 58.727 52.8785 58.6655C52.9897 58.6039 53.0454 58.5045 53.0454 58.3672V58.2393C53.0454 57.8677 52.9341 57.5753 52.7116 57.3622C52.4914 57.1468 52.1742 57.0391 51.7599 57.0391C51.3669 57.0391 51.0461 57.1255 50.7975 57.2983C50.5513 57.4711 50.3785 57.6747 50.279 57.9091L49.6789 57.6925C49.802 57.3942 49.9724 57.1562 50.1903 56.9787C50.4081 56.7988 50.6519 56.6697 50.9218 56.5916C51.1917 56.5111 51.4651 56.4709 51.7421 56.4709C51.9504 56.4709 52.1671 56.4981 52.392 56.5526C52.6192 56.607 52.8299 56.7017 53.0241 56.8366C53.2182 56.9692 53.3756 57.1551 53.4964 57.3942C53.6171 57.6309 53.6775 57.9316 53.6775 58.2962V62H53.0454V61.1371H53.0063C52.9305 61.2981 52.8181 61.4543 52.6689 61.6058C52.5198 61.7573 52.3328 61.8816 52.1079 61.9787C51.883 62.0758 51.619 62.1243 51.316 62.1243ZM51.4012 61.5455C51.7374 61.5455 52.0286 61.4709 52.2748 61.3217C52.521 61.1726 52.7104 60.9749 52.843 60.7287C52.9779 60.4801 53.0454 60.2067 53.0454 59.9084V59.12C52.998 59.165 52.9187 59.2053 52.8074 59.2408C52.6985 59.2763 52.5719 59.3082 52.4275 59.3366C52.2854 59.3627 52.1434 59.3852 52.0013 59.4041C51.8593 59.4231 51.7314 59.4396 51.6178 59.4538C51.31 59.4917 51.0473 59.5509 50.8295 59.6314C50.6117 59.7119 50.4448 59.8232 50.3287 59.9652C50.2127 60.1049 50.1547 60.2848 50.1547 60.505C50.1547 60.8364 50.2731 61.0933 50.5099 61.2756C50.7466 61.4555 51.0437 61.5455 51.4012 61.5455ZM55.991 58.5909V62H55.3589V56.5455H55.9733V57.4013H56.0301C56.1579 57.1219 56.3568 56.8982 56.6267 56.7301C56.8989 56.5597 57.2351 56.4744 57.6352 56.4744C58.0022 56.4744 58.3241 56.5514 58.6011 56.7053C58.8805 56.8568 59.0971 57.0805 59.251 57.3764C59.4072 57.6723 59.4854 58.0357 59.4854 58.4666V62H58.8532V58.5057C58.8532 58.0582 58.7278 57.7043 58.4768 57.4439C58.2282 57.1835 57.8944 57.0533 57.4754 57.0533C57.189 57.0533 56.9345 57.1148 56.7119 57.2379C56.4894 57.361 56.313 57.5386 56.1828 57.7706C56.055 58.0002 55.991 58.2737 55.991 58.5909ZM63.2984 56.5455V57.0959H60.6954V56.5455H63.2984ZM61.5086 55.2386H62.1443V60.576C62.1443 60.8033 62.1833 60.982 62.2615 61.1122C62.3396 61.2401 62.4414 61.3312 62.5669 61.3857C62.6923 61.4377 62.8261 61.4638 62.9681 61.4638C63.051 61.4638 63.122 61.459 63.1812 61.4496C63.2404 61.4377 63.2925 61.4259 63.3374 61.4141L63.4724 61.9858C63.4108 62.0095 63.3351 62.0308 63.2451 62.0497C63.1552 62.071 63.0439 62.0817 62.9113 62.0817C62.6793 62.0817 62.4556 62.0308 62.2401 61.929C62.0271 61.8272 61.8519 61.6757 61.7146 61.4744C61.5773 61.2732 61.5086 61.0234 61.5086 60.7251V55.2386ZM67.5464 64.0455V56.5455H68.1608V57.5859H68.2354C68.3111 57.4226 68.4153 57.2557 68.5479 57.0852C68.6804 56.9124 68.8556 56.7668 69.0734 56.6484C69.2936 56.5301 69.5706 56.4709 69.9044 56.4709C70.3542 56.4709 70.7472 56.5893 71.0834 56.826C71.4219 57.0604 71.6847 57.3894 71.8717 57.8132C72.0611 58.2346 72.1558 58.7259 72.1558 59.2869C72.1558 59.8504 72.0611 60.344 71.8717 60.7678C71.6847 61.1915 71.4219 61.5218 71.0834 61.7585C70.7472 61.9953 70.3566 62.1136 69.9115 62.1136C69.5824 62.1136 69.3066 62.0545 69.0841 61.9361C68.8639 61.8177 68.6852 61.6721 68.5479 61.4993C68.4129 61.3241 68.3087 61.1536 68.2354 60.9879H68.1785V64.0455H67.5464ZM68.1714 59.2763C68.1714 59.7166 68.2365 60.1072 68.3667 60.4482C68.4993 60.7867 68.6887 61.053 68.9349 61.2472C69.1835 61.4389 69.4842 61.5348 69.8369 61.5348C70.1991 61.5348 70.5045 61.4354 70.7531 61.2365C71.0041 61.0353 71.1946 60.7642 71.3248 60.4233C71.4574 60.0824 71.5237 59.7 71.5237 59.2763C71.5237 58.8572 71.4586 58.4796 71.3284 58.1435C71.2006 57.8073 71.0112 57.541 70.7602 57.3445C70.5093 57.1456 70.2015 57.0462 69.8369 57.0462C69.4818 57.0462 69.18 57.142 68.9314 57.3338C68.6828 57.5232 68.4934 57.786 68.3632 58.1222C68.2354 58.456 68.1714 58.8407 68.1714 59.2763ZM75.6626 62.1136C75.1914 62.1136 74.7748 61.9941 74.4126 61.755C74.0527 61.5159 73.771 61.1856 73.5674 60.7642C73.3638 60.3404 73.262 59.8516 73.262 59.2976C73.262 58.7389 73.3638 58.2476 73.5674 57.8239C73.771 57.3977 74.0527 57.0663 74.4126 56.8295C74.7748 56.5904 75.1914 56.4709 75.6626 56.4709C76.1337 56.4709 76.5492 56.5904 76.909 56.8295C77.2689 57.0687 77.5506 57.4001 77.7542 57.8239C77.9601 58.2476 78.0631 58.7389 78.0631 59.2976C78.0631 59.8516 77.9613 60.3404 77.7577 60.7642C77.5541 61.1856 77.2712 61.5159 76.909 61.755C76.5492 61.9941 76.1337 62.1136 75.6626 62.1136ZM75.6626 61.5348C76.0413 61.5348 76.3621 61.433 76.6249 61.2294C76.8877 61.0258 77.0866 60.7547 77.2215 60.4162C77.3588 60.0777 77.4275 59.7048 77.4275 59.2976C77.4275 58.8904 77.3588 58.5163 77.2215 58.1754C77.0866 57.8345 76.8877 57.5611 76.6249 57.3551C76.3621 57.1491 76.0413 57.0462 75.6626 57.0462C75.2861 57.0462 74.9653 57.1491 74.7002 57.3551C74.4374 57.5611 74.2374 57.8345 74.1001 58.1754C73.9651 58.5163 73.8976 58.8904 73.8976 59.2976C73.8976 59.7048 73.9651 60.0777 74.1001 60.4162C74.2374 60.7547 74.4374 61.0258 74.7002 61.2294C74.963 61.433 75.2838 61.5348 75.6626 61.5348ZM79.4578 62V56.5455H80.0935V62H79.4578ZM79.781 55.608C79.6508 55.608 79.5395 55.5642 79.4472 55.4766C79.3548 55.3866 79.3087 55.2789 79.3087 55.1534C79.3087 55.0279 79.3548 54.9214 79.4472 54.8338C79.5395 54.7438 79.6508 54.6989 79.781 54.6989C79.9112 54.6989 80.0225 54.7438 80.1148 54.8338C80.2071 54.9214 80.2533 55.0279 80.2533 55.1534C80.2533 55.2789 80.2071 55.3866 80.1148 55.4766C80.0225 55.5642 79.9112 55.608 79.781 55.608ZM82.3973 58.5909V62H81.7652V56.5455H82.3795V57.4013H82.4363C82.5642 57.1219 82.7631 56.8982 83.0329 56.7301C83.3052 56.5597 83.6414 56.4744 84.0415 56.4744C84.4084 56.4744 84.7304 56.5514 85.0074 56.7053C85.2867 56.8568 85.5033 57.0805 85.6572 57.3764C85.8135 57.6723 85.8916 58.0357 85.8916 58.4666V62H85.2595V58.5057C85.2595 58.0582 85.134 57.7043 84.8831 57.4439C84.6345 57.1835 84.3007 57.0533 83.8817 57.0533C83.5952 57.0533 83.3407 57.1148 83.1182 57.2379C82.8956 57.361 82.7193 57.5386 82.589 57.7706C82.4612 58.0002 82.3973 58.2737 82.3973 58.5909ZM89.7046 56.5455V57.0959H87.1017V56.5455H89.7046ZM87.9149 55.2386H88.5505V60.576C88.5505 60.8033 88.5896 60.982 88.6677 61.1122C88.7458 61.2401 88.8476 61.3312 88.9731 61.3857C89.0986 61.4377 89.2323 61.4638 89.3744 61.4638C89.4572 61.4638 89.5283 61.459 89.5874 61.4496C89.6466 61.4377 89.6987 61.4259 89.7437 61.4141L89.8786 61.9858C89.8171 62.0095 89.7413 62.0308 89.6514 62.0497C89.5614 62.071 89.4501 62.0817 89.3176 62.0817C89.0856 62.0817 88.8618 62.0308 88.6464 61.929C88.4333 61.8272 88.2581 61.6757 88.1208 61.4744C87.9835 61.2732 87.9149 61.0234 87.9149 60.7251V55.2386ZM94.7073 57.7422L94.1285 57.9055C94.0716 57.7422 93.9912 57.5942 93.887 57.4616C93.7828 57.3291 93.6467 57.2237 93.4786 57.1456C93.3129 57.0675 93.1069 57.0284 92.8607 57.0284C92.4914 57.0284 92.1884 57.116 91.9516 57.2912C91.7149 57.4664 91.5965 57.6925 91.5965 57.9695C91.5965 58.2038 91.677 58.3944 91.838 58.5412C92.0013 58.6856 92.2523 58.8004 92.5908 58.8857L93.4147 59.0881C93.8716 59.1993 94.2137 59.3757 94.441 59.6172C94.6706 59.8587 94.7854 60.1617 94.7854 60.5263C94.7854 60.834 94.7002 61.1075 94.5297 61.3466C94.3593 61.5857 94.1214 61.7739 93.816 61.9112C93.5129 62.0462 93.1614 62.1136 92.7613 62.1136C92.2286 62.1136 91.7894 61.9941 91.4438 61.755C91.0982 61.5135 90.8768 61.1655 90.7797 60.7109L91.387 60.5618C91.4651 60.8861 91.6178 61.1312 91.8451 61.2969C92.0747 61.4626 92.3766 61.5455 92.7506 61.5455C93.1697 61.5455 93.5046 61.4519 93.7556 61.2649C94.0065 61.0755 94.132 60.8388 94.132 60.5547C94.132 60.3345 94.0586 60.1499 93.9118 60.0007C93.7651 59.8492 93.5425 59.7379 93.2442 59.6669L92.3529 59.4538C91.8794 59.3402 91.529 59.1603 91.3018 58.9141C91.0745 58.6679 90.9608 58.3625 90.9608 57.9979C90.9608 57.6972 91.0425 57.4332 91.2059 57.206C91.3692 56.9763 91.5941 56.7964 91.8806 56.6662C92.1671 56.536 92.4938 56.4709 92.8607 56.4709C93.3602 56.4709 93.7591 56.5845 94.0574 56.8118C94.3581 57.0367 94.5747 57.3468 94.7073 57.7422ZM30.6501 68.5455V69.0959H27.969V68.5455H30.6501ZM28.8071 74V67.7464C28.8071 67.4529 28.8746 67.2055 29.0095 67.0043C29.1468 66.803 29.3256 66.6503 29.5457 66.5462C29.7659 66.442 29.9991 66.3899 30.2453 66.3899C30.411 66.3899 30.5483 66.4041 30.6572 66.4325C30.7685 66.4586 30.8561 66.4846 30.92 66.5107L30.7354 67.0646C30.688 67.0504 30.63 67.0339 30.5613 67.0149C30.4927 66.996 30.4063 66.9865 30.3021 66.9865C30.0275 66.9865 29.8156 67.0634 29.6665 67.2173C29.5173 67.3712 29.4427 67.5914 29.4427 67.8778L29.4392 74H28.8071ZM33.8071 74.1136C33.336 74.1136 32.9193 73.9941 32.5571 73.755C32.1972 73.5159 31.9155 73.1856 31.7119 72.7642C31.5083 72.3404 31.4065 71.8516 31.4065 71.2976C31.4065 70.7389 31.5083 70.2476 31.7119 69.8239C31.9155 69.3977 32.1972 69.0663 32.5571 68.8295C32.9193 68.5904 33.336 68.4709 33.8071 68.4709C34.2782 68.4709 34.6937 68.5904 35.0535 68.8295C35.4134 69.0687 35.6951 69.4001 35.8987 69.8239C36.1047 70.2476 36.2077 70.7389 36.2077 71.2976C36.2077 71.8516 36.1059 72.3404 35.9023 72.7642C35.6987 73.1856 35.4157 73.5159 35.0535 73.755C34.6937 73.9941 34.2782 74.1136 33.8071 74.1136ZM33.8071 73.5348C34.1859 73.5348 34.5067 73.433 34.7694 73.2294C35.0322 73.0258 35.2311 72.7547 35.366 72.4162C35.5033 72.0777 35.572 71.7048 35.572 71.2976C35.572 70.8904 35.5033 70.5163 35.366 70.1754C35.2311 69.8345 35.0322 69.5611 34.7694 69.3551C34.5067 69.1491 34.1859 69.0462 33.8071 69.0462C33.4307 69.0462 33.1099 69.1491 32.8447 69.3551C32.5819 69.5611 32.3819 69.8345 32.2446 70.1754C32.1096 70.5163 32.0422 70.8904 32.0422 71.2976C32.0422 71.7048 32.1096 72.0777 32.2446 72.4162C32.3819 72.7547 32.5819 73.0258 32.8447 73.2294C33.1075 73.433 33.4283 73.5348 33.8071 73.5348ZM37.5953 74V68.5455H38.2096V69.3835H38.2558C38.3647 69.1089 38.5541 68.8875 38.824 68.7195C39.0962 68.549 39.404 68.4638 39.7472 68.4638C39.7993 68.4638 39.8573 68.465 39.9213 68.4673C39.9852 68.4697 40.0384 68.4721 40.0811 68.4744V69.1172C40.0526 69.1125 40.0029 69.1054 39.9319 69.0959C39.8609 69.0864 39.7839 69.0817 39.7011 69.0817C39.417 69.0817 39.1637 69.142 38.9411 69.2628C38.721 69.3812 38.547 69.5457 38.4191 69.7564C38.2913 69.9671 38.2274 70.2074 38.2274 70.4773V74H37.5953ZM45.4956 74.1243C45.1666 74.1243 44.8659 74.0604 44.5937 73.9325C44.3214 73.8023 44.1048 73.6153 43.9438 73.3714C43.7828 73.1252 43.7023 72.8269 43.7023 72.4766C43.7023 72.2067 43.7532 71.9794 43.855 71.7947C43.9568 71.6101 44.1012 71.4586 44.2883 71.3402C44.4753 71.2218 44.6966 71.1283 44.9523 71.0597C45.208 70.991 45.4897 70.9377 45.7975 70.8999C46.1029 70.862 46.3609 70.8288 46.5716 70.8004C46.7847 70.772 46.9469 70.727 47.0581 70.6655C47.1694 70.6039 47.2251 70.5045 47.2251 70.3672V70.2393C47.2251 69.8677 47.1138 69.5753 46.8912 69.3622C46.6711 69.1468 46.3538 69.0391 45.9395 69.0391C45.5465 69.0391 45.2258 69.1255 44.9772 69.2983C44.731 69.4711 44.5581 69.6747 44.4587 69.9091L43.8586 69.6925C43.9817 69.3942 44.1521 69.1562 44.3699 68.9787C44.5877 68.7988 44.8316 68.6697 45.1015 68.5916C45.3714 68.5111 45.6448 68.4709 45.9218 68.4709C46.1301 68.4709 46.3467 68.4981 46.5716 68.5526C46.7989 68.607 47.0096 68.7017 47.2037 68.8366C47.3979 68.9692 47.5553 69.1551 47.676 69.3942C47.7968 69.6309 47.8572 69.9316 47.8572 70.2962V74H47.2251V73.1371H47.186C47.1102 73.2981 46.9978 73.4543 46.8486 73.6058C46.6995 73.7573 46.5125 73.8816 46.2876 73.9787C46.0626 74.0758 45.7987 74.1243 45.4956 74.1243ZM45.5809 73.5455C45.9171 73.5455 46.2082 73.4709 46.4545 73.3217C46.7007 73.1726 46.8901 72.9749 47.0226 72.7287C47.1576 72.4801 47.2251 72.2067 47.2251 71.9084V71.12C47.1777 71.165 47.0984 71.2053 46.9871 71.2408C46.8782 71.2763 46.7516 71.3082 46.6072 71.3366C46.4651 71.3627 46.3231 71.3852 46.181 71.4041C46.039 71.4231 45.9111 71.4396 45.7975 71.4538C45.4897 71.4917 45.2269 71.5509 45.0091 71.6314C44.7913 71.7119 44.6244 71.8232 44.5084 71.9652C44.3924 72.1049 44.3344 72.2848 44.3344 72.505C44.3344 72.8364 44.4528 73.0933 44.6895 73.2756C44.9263 73.4555 45.2234 73.5455 45.5809 73.5455ZM54.4321 76.1591C54.0604 76.1591 53.7349 76.1106 53.4555 76.0135C53.1762 75.9188 52.9406 75.7886 52.7488 75.6229C52.5571 75.4571 52.4079 75.2713 52.3014 75.0653L52.8199 74.7244C52.898 74.8617 53.0022 74.9967 53.1324 75.1293C53.2649 75.2618 53.4366 75.3719 53.6473 75.4595C53.8604 75.5471 54.122 75.5909 54.4321 75.5909C54.915 75.5909 55.3045 75.4702 55.6004 75.2287C55.8987 74.9872 56.0479 74.612 56.0479 74.103V72.8743H55.991C55.9176 73.04 55.8123 73.2057 55.675 73.3714C55.5377 73.5348 55.3577 73.6709 55.1352 73.7798C54.915 73.8887 54.6416 73.9432 54.3149 73.9432C53.8793 73.9432 53.4922 73.8355 53.1537 73.62C52.8175 73.4046 52.5523 73.0968 52.3582 72.6967C52.1665 72.2943 52.0706 71.8149 52.0706 71.2585C52.0706 70.7069 52.1641 70.2216 52.3511 69.8026C52.5405 69.3835 52.8045 69.0568 53.143 68.8224C53.4816 68.5881 53.8757 68.4709 54.3256 68.4709C54.6594 68.4709 54.9363 68.5301 55.1565 68.6484C55.3767 68.7644 55.5531 68.9089 55.6856 69.0817C55.8206 69.2545 55.9259 69.4226 56.0017 69.5859H56.0656V68.5455H56.6835V74.142C56.6835 74.6037 56.5853 74.9837 56.3888 75.282C56.1923 75.5803 55.9247 75.8004 55.5862 75.9425C55.2477 76.0869 54.863 76.1591 54.4321 76.1591ZM54.3895 73.3643C54.7398 73.3643 55.0393 73.2803 55.2879 73.1122C55.5365 72.9418 55.7271 72.6979 55.8596 72.3807C55.9922 72.0634 56.0585 71.6858 56.0585 71.2479C56.0585 70.8217 55.9934 70.4441 55.8632 70.1151C55.733 69.7836 55.5436 69.5232 55.295 69.3338C55.0488 69.142 54.747 69.0462 54.3895 69.0462C54.0249 69.0462 53.7171 69.1444 53.4662 69.3409C53.2152 69.5374 53.0258 69.8026 52.898 70.1364C52.7702 70.4678 52.7062 70.8383 52.7062 71.2479C52.7062 71.6645 52.7713 72.0327 52.9015 72.3523C53.0318 72.6695 53.2223 72.9181 53.4733 73.098C53.7242 73.2756 54.0296 73.3643 54.3895 73.3643ZM58.357 74V68.5455H58.9713V69.3835H59.0175C59.1264 69.1089 59.3158 68.8875 59.5857 68.7195C59.8579 68.549 60.1657 68.4638 60.509 68.4638C60.561 68.4638 60.6191 68.465 60.683 68.4673C60.7469 68.4697 60.8002 68.4721 60.8428 68.4744V69.1172C60.8144 69.1125 60.7646 69.1054 60.6936 69.0959C60.6226 69.0864 60.5457 69.0817 60.4628 69.0817C60.1787 69.0817 59.9254 69.142 59.7029 69.2628C59.4827 69.3812 59.3087 69.5457 59.1808 69.7564C59.053 69.9671 58.9891 70.2074 58.9891 70.4773V74H58.357ZM63.4449 74.1243C63.1158 74.1243 62.8151 74.0604 62.5429 73.9325C62.2706 73.8023 62.054 73.6153 61.893 73.3714C61.732 73.1252 61.6515 72.8269 61.6515 72.4766C61.6515 72.2067 61.7024 71.9794 61.8042 71.7947C61.906 71.6101 62.0505 71.4586 62.2375 71.3402C62.4245 71.2218 62.6459 71.1283 62.9015 71.0597C63.1572 70.991 63.439 70.9377 63.7467 70.8999C64.0521 70.862 64.3102 70.8288 64.5209 70.8004C64.7339 70.772 64.8961 70.727 65.0074 70.6655C65.1186 70.6039 65.1743 70.5045 65.1743 70.3672V70.2393C65.1743 69.8677 65.063 69.5753 64.8405 69.3622C64.6203 69.1468 64.3031 69.0391 63.8888 69.0391C63.4958 69.0391 63.175 69.1255 62.9264 69.2983C62.6802 69.4711 62.5074 69.6747 62.4079 69.9091L61.8078 69.6925C61.9309 69.3942 62.1014 69.1562 62.3192 68.9787C62.537 68.7988 62.7808 68.6697 63.0507 68.5916C63.3206 68.5111 63.594 68.4709 63.871 68.4709C64.0793 68.4709 64.296 68.4981 64.5209 68.5526C64.7481 68.607 64.9588 68.7017 65.153 68.8366C65.3471 68.9692 65.5045 69.1551 65.6253 69.3942C65.746 69.6309 65.8064 69.9316 65.8064 70.2962V74H65.1743V73.1371H65.1352C65.0595 73.2981 64.947 73.4543 64.7979 73.6058C64.6487 73.7573 64.4617 73.8816 64.2368 73.9787C64.0119 74.0758 63.7479 74.1243 63.4449 74.1243ZM63.5301 73.5455C63.8663 73.5455 64.1575 73.4709 64.4037 73.3217C64.6499 73.1726 64.8393 72.9749 64.9719 72.7287C65.1068 72.4801 65.1743 72.2067 65.1743 71.9084V71.12C65.1269 71.165 65.0476 71.2053 64.9363 71.2408C64.8274 71.2763 64.7008 71.3082 64.5564 71.3366C64.4143 71.3627 64.2723 71.3852 64.1302 71.4041C63.9882 71.4231 63.8604 71.4396 63.7467 71.4538C63.439 71.4917 63.1762 71.5509 62.9584 71.6314C62.7406 71.7119 62.5737 71.8232 62.4577 71.9652C62.3416 72.1049 62.2836 72.2848 62.2836 72.505C62.2836 72.8364 62.402 73.0933 62.6388 73.2756C62.8755 73.4555 63.1726 73.5455 63.5301 73.5455ZM69.4516 74.1136C69.0042 74.1136 68.6124 73.9953 68.2762 73.7585C67.94 73.5218 67.6772 73.1915 67.4878 72.7678C67.3008 72.344 67.2073 71.8504 67.2073 71.2869C67.2073 70.7259 67.3008 70.2346 67.4878 69.8132C67.6772 69.3894 67.9412 69.0604 68.2797 68.826C68.6183 68.5893 69.0125 68.4709 69.4623 68.4709C69.7937 68.4709 70.0695 68.5301 70.2897 68.6484C70.5099 68.7644 70.6862 68.9089 70.8188 69.0817C70.9514 69.2545 71.0544 69.4226 71.1278 69.5859H71.1846V66.7273H71.8202V74H71.2023V72.9879H71.1278C71.0544 73.1536 70.9502 73.3241 70.8153 73.4993C70.6803 73.6721 70.5016 73.8177 70.279 73.9361C70.0589 74.0545 69.7831 74.1136 69.4516 74.1136ZM69.5262 73.5348C69.8789 73.5348 70.1796 73.4389 70.4282 73.2472C70.6768 73.053 70.8662 72.7867 70.9964 72.4482C71.1289 72.1072 71.1952 71.7166 71.1952 71.2763C71.1952 70.8407 71.1301 70.456 70.9999 70.1222C70.8697 69.786 70.6803 69.5232 70.4317 69.3338C70.1831 69.142 69.8813 69.0462 69.5262 69.0462C69.1616 69.0462 68.8538 69.1456 68.6029 69.3445C68.3543 69.541 68.1649 69.8073 68.0347 70.1435C67.9069 70.4796 67.843 70.8572 67.843 71.2763C67.843 71.7 67.9081 72.0824 68.0383 72.4233C68.1685 72.7642 68.3579 73.0353 68.6064 73.2365C68.8574 73.4354 69.164 73.5348 69.5262 73.5348ZM77.0866 71.9155V68.5455H77.7187V74H77.0866V73.0945H77.0368C76.909 73.3738 76.7066 73.607 76.4296 73.794C76.1526 73.9787 75.8141 74.071 75.414 74.071C75.066 74.071 74.757 73.9953 74.4871 73.8438C74.2172 73.6899 74.0054 73.465 73.8515 73.169C73.6976 72.8731 73.6206 72.5097 73.6206 72.0788V68.5455H74.2528V72.0398C74.2528 72.4659 74.3782 72.8092 74.6292 73.0696C74.8801 73.3277 75.2021 73.4567 75.5951 73.4567C75.8413 73.4567 76.078 73.3975 76.3053 73.2791C76.5326 73.1607 76.7196 72.9879 76.8664 72.7607C77.0132 72.531 77.0866 72.2493 77.0866 71.9155ZM80.9156 74.1243C80.5865 74.1243 80.2858 74.0604 80.0136 73.9325C79.7413 73.8023 79.5247 73.6153 79.3637 73.3714C79.2027 73.1252 79.1222 72.8269 79.1222 72.4766C79.1222 72.2067 79.1731 71.9794 79.2749 71.7947C79.3767 71.6101 79.5212 71.4586 79.7082 71.3402C79.8952 71.2218 80.1166 71.1283 80.3722 71.0597C80.6279 70.991 80.9097 70.9377 81.2174 70.8999C81.5228 70.862 81.7809 70.8288 81.9916 70.8004C82.2046 70.772 82.3668 70.727 82.4781 70.6655C82.5893 70.6039 82.645 70.5045 82.645 70.3672V70.2393C82.645 69.8677 82.5337 69.5753 82.3112 69.3622C82.091 69.1468 81.7738 69.0391 81.3595 69.0391C80.9665 69.0391 80.6457 69.1255 80.3971 69.2983C80.1509 69.4711 79.9781 69.6747 79.8786 69.9091L79.2785 69.6925C79.4016 69.3942 79.5721 69.1562 79.7899 68.9787C80.0077 68.7988 80.2515 68.6697 80.5214 68.5916C80.7913 68.5111 81.0647 68.4709 81.3417 68.4709C81.55 68.4709 81.7667 68.4981 81.9916 68.5526C82.2188 68.607 82.4295 68.7017 82.6237 68.8366C82.8178 68.9692 82.9752 69.1551 83.096 69.3942C83.2167 69.6309 83.2771 69.9316 83.2771 70.2962V74H82.645V73.1371H82.6059C82.5302 73.2981 82.4177 73.4543 82.2686 73.6058C82.1194 73.7573 81.9324 73.8816 81.7075 73.9787C81.4826 74.0758 81.2186 74.1243 80.9156 74.1243ZM81.0008 73.5455C81.337 73.5455 81.6282 73.4709 81.8744 73.3217C82.1206 73.1726 82.31 72.9749 82.4426 72.7287C82.5775 72.4801 82.645 72.2067 82.645 71.9084V71.12C82.5976 71.165 82.5183 71.2053 82.407 71.2408C82.2981 71.2763 82.1715 71.3082 82.0271 71.3366C81.885 71.3627 81.743 71.3852 81.6009 71.4041C81.4589 71.4231 81.3311 71.4396 81.2174 71.4538C80.9097 71.4917 80.6469 71.5509 80.4291 71.6314C80.2113 71.7119 80.0444 71.8232 79.9284 71.9652C79.8124 72.1049 79.7544 72.2848 79.7544 72.505C79.7544 72.8364 79.8727 73.0933 80.1095 73.2756C80.3462 73.4555 80.6433 73.5455 81.0008 73.5455ZM85.5906 66.7273V74H84.9585V66.7273H85.5906ZM29.8094 86V80.5455H30.445V86H29.8094ZM30.1325 79.608C30.0023 79.608 29.8911 79.5642 29.7987 79.4766C29.7064 79.3866 29.6602 79.2789 29.6602 79.1534C29.6602 79.0279 29.7064 78.9214 29.7987 78.8338C29.8911 78.7438 30.0023 78.6989 30.1325 78.6989C30.2628 78.6989 30.374 78.7438 30.4664 78.8338C30.5587 78.9214 30.6048 79.0279 30.6048 79.1534C30.6048 79.2789 30.5587 79.3866 30.4664 79.4766C30.374 79.5642 30.2628 79.608 30.1325 79.608ZM32.7488 82.5909V86H32.1167V80.5455H32.7311V81.4013H32.7879C32.9157 81.1219 33.1146 80.8982 33.3845 80.7301C33.6568 80.5597 33.9929 80.4744 34.393 80.4744C34.76 80.4744 35.0819 80.5514 35.3589 80.7053C35.6383 80.8568 35.8549 81.0805 36.0088 81.3764C36.165 81.6723 36.2432 82.0357 36.2432 82.4666V86H35.6111V82.5057C35.6111 82.0582 35.4856 81.7043 35.2346 81.4439C34.9861 81.1835 34.6523 81.0533 34.2332 81.0533C33.9468 81.0533 33.6923 81.1148 33.4697 81.2379C33.2472 81.361 33.0708 81.5386 32.9406 81.7706C32.8128 82.0002 32.7488 82.2737 32.7488 82.5909ZM40.0562 80.5455V81.0959H37.4532V80.5455H40.0562ZM38.2664 79.2386H38.9021V84.576C38.9021 84.8033 38.9411 84.982 39.0193 85.1122C39.0974 85.2401 39.1992 85.3312 39.3247 85.3857C39.4501 85.4377 39.5839 85.4638 39.7259 85.4638C39.8088 85.4638 39.8798 85.459 39.939 85.4496C39.9982 85.4377 40.0503 85.4259 40.0953 85.4141L40.2302 85.9858C40.1686 86.0095 40.0929 86.0308 40.0029 86.0497C39.913 86.071 39.8017 86.0817 39.6691 86.0817C39.4371 86.0817 39.2134 86.0308 38.998 85.929C38.7849 85.8272 38.6097 85.6757 38.4724 85.4744C38.3351 85.2732 38.2664 85.0234 38.2664 84.7251V79.2386ZM41.4917 86V80.5455H42.1061V81.3835H42.1523C42.2612 81.1089 42.4506 80.8875 42.7204 80.7195C42.9927 80.549 43.3005 80.4638 43.6437 80.4638C43.6958 80.4638 43.7538 80.465 43.8177 80.4673C43.8817 80.4697 43.9349 80.4721 43.9775 80.4744V81.1172C43.9491 81.1125 43.8994 81.1054 43.8284 81.0959C43.7574 81.0864 43.6804 81.0817 43.5976 81.0817C43.3135 81.0817 43.0602 81.142 42.8376 81.2628C42.6175 81.3812 42.4434 81.5457 42.3156 81.7564C42.1878 81.9671 42.1238 82.2074 42.1238 82.4773V86H41.4917ZM47.0102 86.1136C46.5391 86.1136 46.1224 85.9941 45.7602 85.755C45.4004 85.5159 45.1186 85.1856 44.915 84.7642C44.7114 84.3404 44.6096 83.8516 44.6096 83.2976C44.6096 82.7389 44.7114 82.2476 44.915 81.8239C45.1186 81.3977 45.4004 81.0663 45.7602 80.8295C46.1224 80.5904 46.5391 80.4709 47.0102 80.4709C47.4813 80.4709 47.8968 80.5904 48.2567 80.8295C48.6165 81.0687 48.8982 81.4001 49.1018 81.8239C49.3078 82.2476 49.4108 82.7389 49.4108 83.2976C49.4108 83.8516 49.309 84.3404 49.1054 84.7642C48.9018 85.1856 48.6189 85.5159 48.2567 85.755C47.8968 85.9941 47.4813 86.1136 47.0102 86.1136ZM47.0102 85.5348C47.389 85.5348 47.7098 85.433 47.9726 85.2294C48.2354 85.0258 48.4342 84.7547 48.5692 84.4162C48.7065 84.0777 48.7751 83.7048 48.7751 83.2976C48.7751 82.8904 48.7065 82.5163 48.5692 82.1754C48.4342 81.8345 48.2354 81.5611 47.9726 81.3551C47.7098 81.1491 47.389 81.0462 47.0102 81.0462C46.6338 81.0462 46.313 81.1491 46.0479 81.3551C45.7851 81.5611 45.585 81.8345 45.4477 82.1754C45.3128 82.5163 45.2453 82.8904 45.2453 83.2976C45.2453 83.7048 45.3128 84.0777 45.4477 84.4162C45.585 84.7547 45.7851 85.0258 46.0479 85.2294C46.3106 85.433 46.6314 85.5348 47.0102 85.5348ZM52.7622 86.1136C52.3147 86.1136 51.9229 85.9953 51.5867 85.7585C51.2506 85.5218 50.9878 85.1915 50.7984 84.7678C50.6114 84.344 50.5178 83.8504 50.5178 83.2869C50.5178 82.7259 50.6114 82.2346 50.7984 81.8132C50.9878 81.3894 51.2517 81.0604 51.5903 80.826C51.9288 80.5893 52.323 80.4709 52.7728 80.4709C53.1043 80.4709 53.3801 80.5301 53.6002 80.6484C53.8204 80.7644 53.9968 80.9089 54.1294 81.0817C54.2619 81.2545 54.3649 81.4226 54.4383 81.5859H54.4951V78.7273H55.1308V86H54.5129V84.9879H54.4383C54.3649 85.1536 54.2607 85.3241 54.1258 85.4993C53.9909 85.6721 53.8121 85.8177 53.5896 85.9361C53.3694 86.0545 53.0936 86.1136 52.7622 86.1136ZM52.8367 85.5348C53.1895 85.5348 53.4901 85.4389 53.7387 85.2472C53.9873 85.053 54.1767 84.7867 54.3069 84.4482C54.4395 84.1072 54.5058 83.7166 54.5058 83.2763C54.5058 82.8407 54.4407 82.456 54.3105 82.1222C54.1802 81.786 53.9909 81.5232 53.7423 81.3338C53.4937 81.142 53.1919 81.0462 52.8367 81.0462C52.4722 81.0462 52.1644 81.1456 51.9134 81.3445C51.6649 81.541 51.4755 81.8073 51.3453 82.1435C51.2174 82.4796 51.1535 82.8572 51.1535 83.2763C51.1535 83.7 51.2186 84.0824 51.3488 84.4233C51.479 84.7642 51.6684 85.0353 51.917 85.2365C52.1679 85.4354 52.4745 85.5348 52.8367 85.5348ZM60.3971 83.9155V80.5455H61.0292V86H60.3971V85.0945H60.3474C60.2195 85.3738 60.0171 85.607 59.7401 85.794C59.4632 85.9787 59.1246 86.071 58.7245 86.071C58.3765 86.071 58.0676 85.9953 57.7977 85.8438C57.5278 85.6899 57.3159 85.465 57.162 85.169C57.0081 84.8731 56.9312 84.5097 56.9312 84.0788V80.5455H57.5633V84.0398C57.5633 84.4659 57.6888 84.8092 57.9397 85.0696C58.1907 85.3277 58.5126 85.4567 58.9056 85.4567C59.1518 85.4567 59.3886 85.3975 59.6159 85.2791C59.8431 85.1607 60.0302 84.9879 60.1769 84.7607C60.3237 84.531 60.3971 84.2493 60.3971 83.9155ZM64.8334 86.1136C64.3457 86.1136 63.9207 85.9917 63.5585 85.7479C63.1987 85.504 62.9193 85.1702 62.7204 84.7464C62.5216 84.3227 62.4221 83.8397 62.4221 83.2976C62.4221 82.7507 62.5228 82.2642 62.724 81.8381C62.9276 81.4119 63.2093 81.0781 63.5692 80.8366C63.929 80.5928 64.3469 80.4709 64.8227 80.4709C65.1873 80.4709 65.5175 80.5419 65.8135 80.6839C66.1094 80.8236 66.3532 81.0213 66.545 81.277C66.7391 81.5303 66.8611 81.8262 66.9108 82.1648H66.2716C66.2053 81.857 66.0455 81.5942 65.7922 81.3764C65.5412 81.1562 65.2216 81.0462 64.8334 81.0462C64.4854 81.0462 64.1776 81.1409 63.9101 81.3303C63.6425 81.5173 63.433 81.7789 63.2815 82.1151C63.1324 82.4489 63.0578 82.8359 63.0578 83.2763C63.0578 83.719 63.1312 84.1108 63.278 84.4517C63.4247 84.7902 63.6307 85.0554 63.8959 85.2472C64.1634 85.4389 64.4759 85.5348 64.8334 85.5348C65.0748 85.5348 65.295 85.4898 65.4939 85.3999C65.6951 85.3075 65.8632 85.1773 65.9981 85.0092C66.1354 84.8411 66.2278 84.6411 66.2751 84.4091H66.9143C66.867 84.7382 66.7498 85.0317 66.5628 85.2898C66.3781 85.5455 66.1378 85.7467 65.8419 85.8935C65.5483 86.0402 65.2122 86.1136 64.8334 86.1136ZM70.4175 80.5455V81.0959H67.8145V80.5455H70.4175ZM68.6278 79.2386H69.2634V84.576C69.2634 84.8033 69.3025 84.982 69.3806 85.1122C69.4587 85.2401 69.5605 85.3312 69.686 85.3857C69.8115 85.4377 69.9452 85.4638 70.0873 85.4638C70.1701 85.4638 70.2412 85.459 70.3003 85.4496C70.3595 85.4377 70.4116 85.4259 70.4566 85.4141L70.5915 85.9858C70.53 86.0095 70.4542 86.0308 70.3643 86.0497C70.2743 86.071 70.163 86.0817 70.0305 86.0817C69.7984 86.0817 69.5747 86.0308 69.3593 85.929C69.1462 85.8272 68.971 85.6757 68.8337 85.4744C68.6964 85.2732 68.6278 85.0234 68.6278 84.7251V79.2386ZM71.8602 86V80.5455H72.4958V86H71.8602ZM72.1833 79.608C72.0531 79.608 71.9419 79.5642 71.8495 79.4766C71.7572 79.3866 71.711 79.2789 71.711 79.1534C71.711 79.0279 71.7572 78.9214 71.8495 78.8338C71.9419 78.7438 72.0531 78.6989 72.1833 78.6989C72.3135 78.6989 72.4248 78.7438 72.5171 78.8338C72.6095 78.9214 72.6556 79.0279 72.6556 79.1534C72.6556 79.2789 72.6095 79.3866 72.5171 79.4766C72.4248 79.5642 72.3135 79.608 72.1833 79.608ZM76.2876 86.1136C75.8164 86.1136 75.3998 85.9941 75.0376 85.755C74.6777 85.5159 74.396 85.1856 74.1924 84.7642C73.9888 84.3404 73.887 83.8516 73.887 83.2976C73.887 82.7389 73.9888 82.2476 74.1924 81.8239C74.396 81.3977 74.6777 81.0663 75.0376 80.8295C75.3998 80.5904 75.8164 80.4709 76.2876 80.4709C76.7587 80.4709 77.1742 80.5904 77.534 80.8295C77.8939 81.0687 78.1756 81.4001 78.3792 81.8239C78.5851 82.2476 78.6881 82.7389 78.6881 83.2976C78.6881 83.8516 78.5863 84.3404 78.3827 84.7642C78.1791 85.1856 77.8962 85.5159 77.534 85.755C77.1742 85.9941 76.7587 86.1136 76.2876 86.1136ZM76.2876 85.5348C76.6663 85.5348 76.9871 85.433 77.2499 85.2294C77.5127 85.0258 77.7116 84.7547 77.8465 84.4162C77.9838 84.0777 78.0525 83.7048 78.0525 83.2976C78.0525 82.8904 77.9838 82.5163 77.8465 82.1754C77.7116 81.8345 77.5127 81.5611 77.2499 81.3551C76.9871 81.1491 76.6663 81.0462 76.2876 81.0462C75.9111 81.0462 75.5903 81.1491 75.3252 81.3551C75.0624 81.5611 74.8624 81.8345 74.7251 82.1754C74.5901 82.5163 74.5226 82.8904 74.5226 83.2976C74.5226 83.7048 74.5901 84.0777 74.7251 84.4162C74.8624 84.7547 75.0624 85.0258 75.3252 85.2294C75.588 85.433 75.9088 85.5348 76.2876 85.5348ZM80.7078 82.5909V86H80.0757V80.5455H80.6901V81.4013H80.7469C80.8747 81.1219 81.0736 80.8982 81.3435 80.7301C81.6157 80.5597 81.9519 80.4744 82.352 80.4744C82.719 80.4744 83.0409 80.5514 83.3179 80.7053C83.5973 80.8568 83.8139 81.0805 83.9678 81.3764C84.124 81.6723 84.2021 82.0357 84.2021 82.4666V86H83.57V82.5057C83.57 82.0582 83.4446 81.7043 83.1936 81.4439C82.945 81.1835 82.6112 81.0533 82.1922 81.0533C81.9057 81.0533 81.6512 81.1148 81.4287 81.2379C81.2062 81.361 81.0298 81.5386 80.8996 81.7706C80.7718 82.0002 80.7078 82.2737 80.7078 82.5909Z" fill="#333333"/>
</svg>
