<svg width="58" height="56" viewBox="0 0 58 56" fill="none" xmlns="http://www.w3.org/2000/svg">
<path d="M7.12622 44.0962C7.28069 43.5276 6.9393 42.7371 6.61348 42.1672C6.51203 41.9973 6.40199 41.8327 6.28377 41.6739C3.48936 37.4361 1.99995 32.4713 2.00013 27.3951C1.9547 12.8242 14.0372 1 28.978 1C42.0081 1 52.8846 10.0268 55.4262 22.0094C55.8071 23.7859 55.9994 25.5977 56 27.4146C56 42.0063 44.3835 54.0161 29.4427 54.0161C27.0672 54.0161 23.861 53.4189 22.1125 52.9296C20.364 52.4402 18.6181 51.7912 18.1676 51.6172C17.707 51.4401 17.2177 51.3491 16.7242 51.3485C16.1851 51.3465 15.6512 51.4538 15.1548 51.6639L6.34997 54.8416C6.15708 54.9248 5.95268 54.9782 5.74377 55C5.57891 54.9995 5.41579 54.9663 5.26386 54.9023C5.11192 54.8383 4.97419 54.7448 4.85865 54.6272C4.74311 54.5096 4.65205 54.3703 4.59074 54.2172C4.52944 54.0642 4.49911 53.9005 4.50152 53.7357C4.51234 53.591 4.53845 53.4478 4.5794 53.3086L7.12622 44.0962Z" stroke="#C9C8D8" stroke-miterlimit="10" stroke-linecap="round"/>
<path d="M9.80034 27.0455V19.5455H10.4147V20.5859H10.4893C10.565 20.4226 10.6692 20.2557 10.8018 20.0852C10.9343 19.9124 11.1095 19.7668 11.3273 19.6484C11.5475 19.5301 11.8245 19.4709 12.1583 19.4709C12.6081 19.4709 13.0011 19.5893 13.3373 19.826C13.6758 20.0604 13.9386 20.3894 14.1256 20.8132C14.315 21.2346 14.4097 21.7259 14.4097 22.2869C14.4097 22.8504 14.315 23.344 14.1256 23.7678C13.9386 24.1915 13.6758 24.5218 13.3373 24.7585C13.0011 24.9953 12.6105 25.1136 12.1654 25.1136C11.8363 25.1136 11.5605 25.0545 11.338 24.9361C11.1178 24.8177 10.9391 24.6721 10.8018 24.4993C10.6668 24.3241 10.5626 24.1536 10.4893 23.9879H10.4324V27.0455H9.80034ZM10.4253 22.2763C10.4253 22.7166 10.4904 23.1072 10.6206 23.4482C10.7532 23.7867 10.9426 24.053 11.1888 24.2472C11.4374 24.4389 11.7381 24.5348 12.0908 24.5348C12.453 24.5348 12.7584 24.4354 13.007 24.2365C13.258 24.0353 13.4485 23.7642 13.5787 23.4233C13.7113 23.0824 13.7776 22.7 13.7776 22.2763C13.7776 21.8572 13.7125 21.4796 13.5823 21.1435C13.4545 20.8073 13.2651 20.541 13.0141 20.3445C12.7632 20.1456 12.4554 20.0462 12.0908 20.0462C11.7357 20.0462 11.4339 20.142 11.1853 20.3338C10.9367 20.5232 10.7473 20.786 10.6171 21.1222C10.4893 21.456 10.4253 21.8407 10.4253 22.2763ZM18.0017 25.1136C17.4927 25.1136 17.0523 24.9953 16.6807 24.7585C16.309 24.5194 16.0213 24.1892 15.8177 23.7678C15.6165 23.344 15.5159 22.8563 15.5159 22.3047C15.5159 21.7554 15.6165 21.2678 15.8177 20.8416C16.0213 20.4131 16.3019 20.0781 16.6594 19.8366C17.0192 19.5928 17.4347 19.4709 17.9058 19.4709C18.2017 19.4709 18.487 19.5253 18.7616 19.6342C19.0363 19.7408 19.2825 19.9053 19.5003 20.1278C19.7204 20.348 19.8944 20.6262 20.0223 20.9624C20.1501 21.2962 20.214 21.6915 20.214 22.1484V22.4609H15.9527V21.9034H19.5677C19.5677 21.553 19.4967 21.2382 19.3547 20.9588C19.215 20.6771 19.0197 20.4545 18.7687 20.2912C18.5202 20.1278 18.2325 20.0462 17.9058 20.0462C17.5602 20.0462 17.2559 20.1385 16.9932 20.3232C16.7304 20.5078 16.5244 20.7517 16.3753 21.0547C16.2285 21.3577 16.1539 21.6892 16.1515 22.049V22.3828C16.1515 22.8161 16.2261 23.1948 16.3753 23.5192C16.5268 23.8411 16.741 24.0909 17.018 24.2685C17.295 24.446 17.6229 24.5348 18.0017 24.5348C18.2597 24.5348 18.4858 24.4946 18.68 24.4141C18.8765 24.3336 19.041 24.2259 19.1736 24.0909C19.3085 23.9536 19.4103 23.8033 19.479 23.6399L20.0791 23.8352C19.9962 24.0649 19.8601 24.2768 19.6707 24.4709C19.4837 24.665 19.2493 24.8213 18.9676 24.9396C18.6882 25.0556 18.3663 25.1136 18.0017 25.1136ZM21.607 25V19.5455H22.2213V20.3835H22.2675C22.3764 20.1089 22.5658 19.8875 22.8357 19.7195C23.1079 19.549 23.4157 19.4638 23.759 19.4638C23.811 19.4638 23.8691 19.465 23.933 19.4673C23.9969 19.4697 24.0502 19.4721 24.0928 19.4744V20.1172C24.0644 20.1125 24.0146 20.1054 23.9436 20.0959C23.8726 20.0864 23.7957 20.0817 23.7128 20.0817C23.4287 20.0817 23.1754 20.142 22.9529 20.2628C22.7327 20.3812 22.5587 20.5457 22.4308 20.7564C22.303 20.9671 22.2391 21.2074 22.2391 21.4773V25H21.607ZM28.8362 20.7422L28.2574 20.9055C28.2006 20.7422 28.1201 20.5942 28.0159 20.4616C27.9117 20.3291 27.7756 20.2237 27.6075 20.1456C27.4418 20.0675 27.2358 20.0284 26.9896 20.0284C26.6203 20.0284 26.3173 20.116 26.0805 20.2912C25.8438 20.4664 25.7254 20.6925 25.7254 20.9695C25.7254 21.2038 25.8059 21.3944 25.9669 21.5412C26.1302 21.6856 26.3812 21.8004 26.7197 21.8857L27.5436 22.0881C28.0005 22.1993 28.3426 22.3757 28.5699 22.6172C28.7995 22.8587 28.9143 23.1617 28.9143 23.5263C28.9143 23.834 28.8291 24.1075 28.6586 24.3466C28.4882 24.5857 28.2503 24.7739 27.9449 24.9112C27.6418 25.0462 27.2903 25.1136 26.8902 25.1136C26.3575 25.1136 25.9184 24.9941 25.5727 24.755C25.2271 24.5135 25.0057 24.1655 24.9086 23.7109L25.5159 23.5618C25.594 23.8861 25.7467 24.1312 25.974 24.2969C26.2036 24.4626 26.5055 24.5455 26.8795 24.5455C27.2986 24.5455 27.6336 24.4519 27.8845 24.2649C28.1354 24.0755 28.2609 23.8388 28.2609 23.5547C28.2609 23.3345 28.1875 23.1499 28.0407 23.0007C27.894 22.8492 27.6714 22.7379 27.3731 22.6669L26.4818 22.4538C26.0083 22.3402 25.6579 22.1603 25.4307 21.9141C25.2034 21.6679 25.0898 21.3625 25.0898 20.9979C25.0898 20.6972 25.1714 20.4332 25.3348 20.206C25.4981 19.9763 25.723 19.7964 26.0095 19.6662C26.296 19.536 26.6227 19.4709 26.9896 19.4709C27.4891 19.4709 27.8881 19.5845 28.1863 19.8118C28.487 20.0367 28.7036 20.3468 28.8362 20.7422ZM32.4184 25.1136C31.9473 25.1136 31.5306 24.9941 31.1684 24.755C30.8086 24.5159 30.5268 24.1856 30.3232 23.7642C30.1196 23.3404 30.0178 22.8516 30.0178 22.2976C30.0178 21.7389 30.1196 21.2476 30.3232 20.8239C30.5268 20.3977 30.8086 20.0663 31.1684 19.8295C31.5306 19.5904 31.9473 19.4709 32.4184 19.4709C32.8895 19.4709 33.305 19.5904 33.6649 19.8295C34.0247 20.0687 34.3064 20.4001 34.51 20.8239C34.716 21.2476 34.819 21.7389 34.819 22.2976C34.819 22.8516 34.7172 23.3404 34.5136 23.7642C34.31 24.1856 34.0271 24.5159 33.6649 24.755C33.305 24.9941 32.8895 25.1136 32.4184 25.1136ZM32.4184 24.5348C32.7972 24.5348 33.118 24.433 33.3808 24.2294C33.6436 24.0258 33.8424 23.7547 33.9774 23.4162C34.1147 23.0777 34.1833 22.7048 34.1833 22.2976C34.1833 21.8904 34.1147 21.5163 33.9774 21.1754C33.8424 20.8345 33.6436 20.5611 33.3808 20.3551C33.118 20.1491 32.7972 20.0462 32.4184 20.0462C32.042 20.0462 31.7212 20.1491 31.4561 20.3551C31.1933 20.5611 30.9932 20.8345 30.8559 21.1754C30.721 21.5163 30.6535 21.8904 30.6535 22.2976C30.6535 22.7048 30.721 23.0777 30.8559 23.4162C30.9932 23.7547 31.1933 24.0258 31.4561 24.2294C31.7188 24.433 32.0396 24.5348 32.4184 24.5348ZM36.8387 21.5909V25H36.2066V19.5455H36.8209V20.4013H36.8778C37.0056 20.1219 37.2045 19.8982 37.4743 19.7301C37.7466 19.5597 38.0828 19.4744 38.4829 19.4744C38.8498 19.4744 39.1718 19.5514 39.4488 19.7053C39.7281 19.8568 39.9448 20.0805 40.0986 20.3764C40.2549 20.6723 40.333 21.0357 40.333 21.4666V25H39.7009V21.5057C39.7009 21.0582 39.5754 20.7043 39.3245 20.4439C39.0759 20.1835 38.7421 20.0533 38.3231 20.0533C38.0366 20.0533 37.7821 20.1148 37.5596 20.2379C37.337 20.361 37.1607 20.5386 37.0305 20.7706C36.9026 21.0002 36.8387 21.2737 36.8387 21.5909ZM43.521 25.1243C43.192 25.1243 42.8913 25.0604 42.6191 24.9325C42.3468 24.8023 42.1302 24.6153 41.9692 24.3714C41.8082 24.1252 41.7277 23.8269 41.7277 23.4766C41.7277 23.2067 41.7786 22.9794 41.8804 22.7947C41.9822 22.6101 42.1266 22.4586 42.3137 22.3402C42.5007 22.2218 42.722 22.1283 42.9777 22.0597C43.2334 21.991 43.5151 21.9377 43.8229 21.8999C44.1283 21.862 44.3863 21.8288 44.597 21.8004C44.8101 21.772 44.9723 21.727 45.0835 21.6655C45.1948 21.6039 45.2504 21.5045 45.2504 21.3672V21.2393C45.2504 20.8677 45.1392 20.5753 44.9166 20.3622C44.6965 20.1468 44.3792 20.0391 43.9649 20.0391C43.5719 20.0391 43.2512 20.1255 43.0026 20.2983C42.7564 20.4711 42.5835 20.6747 42.4841 20.9091L41.884 20.6925C42.0071 20.3942 42.1775 20.1562 42.3953 19.9787C42.6131 19.7988 42.857 19.6697 43.1269 19.5916C43.3968 19.5111 43.6702 19.4709 43.9472 19.4709C44.1555 19.4709 44.3721 19.4981 44.597 19.5526C44.8243 19.607 45.035 19.7017 45.2291 19.8366C45.4233 19.9692 45.5807 20.1551 45.7014 20.3942C45.8222 20.6309 45.8825 20.9316 45.8825 21.2962V25H45.2504V24.1371H45.2114C45.1356 24.2981 45.0232 24.4543 44.874 24.6058C44.7249 24.7573 44.5378 24.8816 44.3129 24.9787C44.088 25.0758 43.8241 25.1243 43.521 25.1243ZM43.6063 24.5455C43.9424 24.5455 44.2336 24.4709 44.4798 24.3217C44.7261 24.1726 44.9155 23.9749 45.048 23.7287C45.183 23.4801 45.2504 23.2067 45.2504 22.9084V22.12C45.2031 22.165 45.1238 22.2053 45.0125 22.2408C44.9036 22.2763 44.777 22.3082 44.6325 22.3366C44.4905 22.3627 44.3485 22.3852 44.2064 22.4041C44.0644 22.4231 43.9365 22.4396 43.8229 22.4538C43.5151 22.4917 43.2523 22.5509 43.0345 22.6314C42.8167 22.7119 42.6498 22.8232 42.5338 22.9652C42.4178 23.1049 42.3598 23.2848 42.3598 23.505C42.3598 23.8364 42.4782 24.0933 42.7149 24.2756C42.9517 24.4555 43.2488 24.5455 43.6063 24.5455ZM48.1961 17.7273V25H47.564V17.7273H48.1961ZM12.161 37V31.5455H12.7966V37H12.161ZM12.4841 30.608C12.3539 30.608 12.2426 30.5642 12.1503 30.4766C12.058 30.3866 12.0118 30.2789 12.0118 30.1534C12.0118 30.0279 12.058 29.9214 12.1503 29.8338C12.2426 29.7438 12.3539 29.6989 12.4841 29.6989C12.6143 29.6989 12.7256 29.7438 12.8179 29.8338C12.9102 29.9214 12.9564 30.0279 12.9564 30.1534C12.9564 30.2789 12.9102 30.3866 12.8179 30.4766C12.7256 30.5642 12.6143 30.608 12.4841 30.608ZM15.1004 33.5909V37H14.4683V31.5455H15.0827V32.4013H15.1395C15.2673 32.1219 15.4662 31.8982 15.7361 31.7301C16.0083 31.5597 16.3445 31.4744 16.7446 31.4744C17.1115 31.4744 17.4335 31.5514 17.7105 31.7053C17.9898 31.8568 18.2065 32.0805 18.3604 32.3764C18.5166 32.6723 18.5947 33.0357 18.5947 33.4666V37H17.9626V33.5057C17.9626 33.0582 17.8372 32.7043 17.5862 32.4439C17.3376 32.1835 17.0038 32.0533 16.5848 32.0533C16.2983 32.0533 16.0438 32.1148 15.8213 32.2379C15.5988 32.361 15.4224 32.5386 15.2922 32.7706C15.1643 33.0002 15.1004 33.2737 15.1004 33.5909ZM22.4078 31.5455V32.0959H19.8048V31.5455H22.4078ZM20.618 30.2386H21.2536V35.576C21.2536 35.8033 21.2927 35.982 21.3708 36.1122C21.449 36.2401 21.5508 36.3312 21.6762 36.3857C21.8017 36.4377 21.9355 36.4638 22.0775 36.4638C22.1604 36.4638 22.2314 36.459 22.2906 36.4496C22.3498 36.4377 22.4018 36.4259 22.4468 36.4141L22.5818 36.9858C22.5202 37.0095 22.4445 37.0308 22.3545 37.0497C22.2645 37.071 22.1533 37.0817 22.0207 37.0817C21.7887 37.0817 21.565 37.0308 21.3495 36.929C21.1365 36.8272 20.9613 36.6757 20.824 36.4744C20.6866 36.2732 20.618 36.0234 20.618 35.7251V30.2386ZM25.99 37.1136C25.481 37.1136 25.0406 36.9953 24.6689 36.7585C24.2973 36.5194 24.0096 36.1892 23.806 35.7678C23.6048 35.344 23.5042 34.8563 23.5042 34.3047C23.5042 33.7554 23.6048 33.2678 23.806 32.8416C24.0096 32.4131 24.2902 32.0781 24.6476 31.8366C25.0075 31.5928 25.423 31.4709 25.8941 31.4709C26.19 31.4709 26.4753 31.5253 26.7499 31.6342C27.0245 31.7408 27.2707 31.9053 27.4885 32.1278C27.7087 32.348 27.8827 32.6262 28.0106 32.9624C28.1384 33.2962 28.2023 33.6915 28.2023 34.1484V34.4609H23.941V33.9034H27.556C27.556 33.553 27.485 33.2382 27.343 32.9588C27.2033 32.6771 27.008 32.4545 26.757 32.2912C26.5084 32.1278 26.2208 32.0462 25.8941 32.0462C25.5484 32.0462 25.2442 32.1385 24.9814 32.3232C24.7187 32.5078 24.5127 32.7517 24.3635 33.0547C24.2168 33.3577 24.1422 33.6892 24.1398 34.049V34.3828C24.1398 34.8161 24.2144 35.1948 24.3635 35.5192C24.5151 35.8411 24.7293 36.0909 25.0063 36.2685C25.2833 36.446 25.6112 36.5348 25.99 36.5348C26.248 36.5348 26.4741 36.4946 26.6682 36.4141C26.8647 36.3336 27.0293 36.2259 27.1618 36.0909C27.2968 35.9536 27.3986 35.8033 27.4672 35.6399L28.0674 35.8352C27.9845 36.0649 27.8484 36.2768 27.659 36.4709C27.472 36.665 27.2376 36.8213 26.9559 36.9396C26.6765 37.0556 26.3546 37.1136 25.99 37.1136ZM29.5953 37V31.5455H30.2096V32.3835H30.2558C30.3647 32.1089 30.5541 31.8875 30.824 31.7195C31.0962 31.549 31.404 31.4638 31.7472 31.4638C31.7993 31.4638 31.8573 31.465 31.9213 31.4673C31.9852 31.4697 32.0384 31.4721 32.0811 31.4744V32.1172C32.0526 32.1125 32.0029 32.1054 31.9319 32.0959C31.8609 32.0864 31.7839 32.0817 31.7011 32.0817C31.417 32.0817 31.1637 32.142 30.9411 32.2628C30.721 32.3812 30.547 32.5457 30.4191 32.7564C30.2913 32.9671 30.2274 33.2074 30.2274 33.4773V37H29.5953ZM35.199 37.1136C34.69 37.1136 34.2496 36.9953 33.8779 36.7585C33.5062 36.5194 33.2186 36.1892 33.015 35.7678C32.8138 35.344 32.7132 34.8563 32.7132 34.3047C32.7132 33.7554 32.8138 33.2678 33.015 32.8416C33.2186 32.4131 33.4991 32.0781 33.8566 31.8366C34.2165 31.5928 34.632 31.4709 35.1031 31.4709C35.399 31.4709 35.6843 31.5253 35.9589 31.6342C36.2335 31.7408 36.4797 31.9053 36.6975 32.1278C36.9177 32.348 37.0917 32.6262 37.2195 32.9624C37.3474 33.2962 37.4113 33.6915 37.4113 34.1484V34.4609H33.1499V33.9034H36.765C36.765 33.553 36.694 33.2382 36.5519 32.9588C36.4123 32.6771 36.2169 32.4545 35.966 32.2912C35.7174 32.1278 35.4298 32.0462 35.1031 32.0462C34.7574 32.0462 34.4532 32.1385 34.1904 32.3232C33.9276 32.5078 33.7217 32.7517 33.5725 33.0547C33.4258 33.3577 33.3512 33.6892 33.3488 34.049V34.3828C33.3488 34.8161 33.4234 35.1948 33.5725 35.5192C33.724 35.8411 33.9383 36.0909 34.2153 36.2685C34.4923 36.446 34.8202 36.5348 35.199 36.5348C35.457 36.5348 35.6831 36.4946 35.8772 36.4141C36.0737 36.3336 36.2383 36.2259 36.3708 36.0909C36.5058 35.9536 36.6076 35.8033 36.6762 35.6399L37.2764 35.8352C37.1935 36.0649 37.0574 36.2768 36.868 36.4709C36.681 36.665 36.4466 36.8213 36.1649 36.9396C35.8855 37.0556 35.5635 37.1136 35.199 37.1136ZM42.469 32.7422L41.8902 32.9055C41.8334 32.7422 41.7529 32.5942 41.6487 32.4616C41.5445 32.3291 41.4084 32.2237 41.2403 32.1456C41.0746 32.0675 40.8686 32.0284 40.6224 32.0284C40.2531 32.0284 39.9501 32.116 39.7133 32.2912C39.4766 32.4664 39.3582 32.6925 39.3582 32.9695C39.3582 33.2038 39.4387 33.3944 39.5997 33.5412C39.7631 33.6856 40.014 33.8004 40.3525 33.8857L41.1764 34.0881C41.6333 34.1993 41.9754 34.3757 42.2027 34.6172C42.4323 34.8587 42.5471 35.1617 42.5471 35.5263C42.5471 35.834 42.4619 36.1075 42.2915 36.3466C42.121 36.5857 41.8831 36.7739 41.5777 36.9112C41.2747 37.0462 40.9231 37.1136 40.523 37.1136C39.9903 37.1136 39.5512 36.9941 39.2055 36.755C38.8599 36.5135 38.6385 36.1655 38.5415 35.7109L39.1487 35.5618C39.2268 35.8861 39.3795 36.1312 39.6068 36.2969C39.8364 36.4626 40.1383 36.5455 40.5123 36.5455C40.9314 36.5455 41.2664 36.4519 41.5173 36.2649C41.7683 36.0755 41.8937 35.8388 41.8937 35.5547C41.8937 35.3345 41.8203 35.1499 41.6736 35.0007C41.5268 34.8492 41.3042 34.7379 41.0059 34.6669L40.1146 34.4538C39.6411 34.3402 39.2907 34.1603 39.0635 33.9141C38.8362 33.6679 38.7226 33.3625 38.7226 32.9979C38.7226 32.6972 38.8042 32.4332 38.9676 32.206C39.1309 31.9763 39.3559 31.7964 39.6423 31.6662C39.9288 31.536 40.2555 31.4709 40.6224 31.4709C41.122 31.4709 41.5209 31.5845 41.8192 31.8118C42.1198 32.0367 42.3364 32.3468 42.469 32.7422ZM46.0796 31.5455V32.0959H43.4767V31.5455H46.0796ZM44.2899 30.2386H44.9255V35.576C44.9255 35.8033 44.9646 35.982 45.0427 36.1122C45.1208 36.2401 45.2226 36.3312 45.3481 36.3857C45.4736 36.4377 45.6073 36.4638 45.7494 36.4638C45.8322 36.4638 45.9033 36.459 45.9624 36.4496C46.0216 36.4377 46.0737 36.4259 46.1187 36.4141L46.2536 36.9858C46.1921 37.0095 46.1163 37.0308 46.0264 37.0497C45.9364 37.071 45.8251 37.0817 45.6926 37.0817C45.4606 37.0817 45.2368 37.0308 45.0214 36.929C44.8083 36.8272 44.6331 36.6757 44.4958 36.4744C44.3585 36.2732 44.2899 36.0234 44.2899 35.7251V30.2386Z" fill="#333333"/>
</svg>
