<svg width="118" height="118" viewBox="0 0 118 118" fill="none" xmlns="http://www.w3.org/2000/svg">
<path d="M105.988 24.4231C105.656 25.6444 106.39 27.3426 107.09 28.5667C107.307 28.9317 107.544 29.2854 107.798 29.6264C113.801 38.7299 117 49.3949 117 60.2994C117.097 91.5999 91.1424 117 59.0473 117C31.0568 117 7.6923 97.609 2.23251 71.8687C1.41448 68.0525 1.00135 64.1606 1 60.2576C1 28.9125 25.9539 3.11365 58.049 3.11365C63.1519 3.11365 70.0394 4.39635 73.7954 5.4476C77.5515 6.49885 81.3019 7.89308 82.2695 8.26673C83.2591 8.64712 84.3101 8.84276 85.3703 8.84395C86.5283 8.84835 87.6752 8.61784 88.7415 8.16635L107.656 1.3402C108.07 1.1616 108.509 1.0469 108.958 1C109.312 1.00107 109.662 1.0724 109.989 1.20986C110.315 1.34732 110.611 1.54817 110.859 1.80078C111.107 2.0534 111.303 2.35275 111.435 2.6815C111.566 3.01025 111.632 3.36186 111.626 3.71596C111.603 4.02681 111.547 4.33432 111.459 4.63337L105.988 24.4231Z" stroke="#CFCFDD" stroke-miterlimit="10" stroke-linecap="round"/>
<path d="M29.5171 24.5455V25.0959H26.9142V24.5455H29.5171ZM27.7274 23.2386H28.363V28.576C28.363 28.8033 28.4021 28.982 28.4802 29.1122C28.5583 29.2401 28.6601 29.3312 28.7856 29.3857C28.9111 29.4377 29.0448 29.4638 29.1869 29.4638C29.2697 29.4638 29.3408 29.459 29.3999 29.4496C29.4591 29.4377 29.5112 29.4259 29.5562 29.4141L29.6911 29.9858C29.6296 30.0095 29.5538 30.0308 29.4639 30.0497C29.3739 30.071 29.2626 30.0817 29.1301 30.0817C28.8981 30.0817 28.6743 30.0308 28.4589 29.929C28.2458 29.8272 28.0706 29.6757 27.9333 29.4744C27.796 29.2732 27.7274 29.0234 27.7274 28.7251V23.2386ZM31.702 26.5909V30H31.0699V22.7273H31.702V25.4013H31.7588C31.8866 25.1196 32.0843 24.8946 32.3518 24.7266C32.6217 24.5585 32.9626 24.4744 33.3746 24.4744C33.7439 24.4744 34.0682 24.5502 34.3476 24.7017C34.6269 24.8532 34.8447 25.0769 35.001 25.3729C35.1572 25.6688 35.2354 26.0334 35.2354 26.4666V30H34.5997V26.5057C34.5997 26.0559 34.4742 25.7019 34.2233 25.4439C33.9747 25.1835 33.6385 25.0533 33.2148 25.0533C32.9236 25.0533 32.6643 25.1148 32.4371 25.2379C32.2098 25.361 32.0299 25.5386 31.8973 25.7706C31.7671 26.0002 31.702 26.2737 31.702 26.5909ZM39.1052 30.1136C38.5962 30.1136 38.1559 29.9953 37.7842 29.7585C37.4125 29.5194 37.1249 29.1892 36.9213 28.7678C36.72 28.344 36.6194 27.8563 36.6194 27.3047C36.6194 26.7554 36.72 26.2678 36.9213 25.8416C37.1249 25.4131 37.4054 25.0781 37.7629 24.8366C38.1227 24.5928 38.5382 24.4709 39.0093 24.4709C39.3052 24.4709 39.5905 24.5253 39.8651 24.6342C40.1398 24.7408 40.386 24.9053 40.6038 25.1278C40.824 25.348 40.998 25.6262 41.1258 25.9624C41.2536 26.2962 41.3176 26.6915 41.3176 27.1484V27.4609H37.0562V26.9034H40.6713C40.6713 26.553 40.6002 26.2382 40.4582 25.9588C40.3185 25.6771 40.1232 25.4545 39.8722 25.2912C39.6237 25.1278 39.336 25.0462 39.0093 25.0462C38.6637 25.0462 38.3595 25.1385 38.0967 25.3232C37.8339 25.5078 37.6279 25.7517 37.4788 26.0547C37.332 26.3577 37.2574 26.6892 37.2551 27.049V27.3828C37.2551 27.8161 37.3296 28.1948 37.4788 28.5192C37.6303 28.8411 37.8445 29.0909 38.1215 29.2685C38.3985 29.446 38.7264 29.5348 39.1052 29.5348C39.3633 29.5348 39.5893 29.4946 39.7835 29.4141C39.98 29.3336 40.1445 29.2259 40.2771 29.0909C40.412 28.9536 40.5138 28.8033 40.5825 28.6399L41.1826 28.8352C41.0998 29.0649 40.9636 29.2768 40.7742 29.4709C40.5872 29.665 40.3528 29.8213 40.0711 29.9396C39.7918 30.0556 39.4698 30.1136 39.1052 30.1136ZM42.7105 30V24.5455H43.3248V25.3835H43.371C43.4799 25.1089 43.6693 24.8875 43.9392 24.7195C44.2114 24.549 44.5192 24.4638 44.8625 24.4638C44.9146 24.4638 44.9726 24.465 45.0365 24.4673C45.1004 24.4697 45.1537 24.4721 45.1963 24.4744V25.1172C45.1679 25.1125 45.1182 25.1054 45.0471 25.0959C44.9761 25.0864 44.8992 25.0817 44.8163 25.0817C44.5322 25.0817 44.2789 25.142 44.0564 25.2628C43.8362 25.3812 43.6622 25.5457 43.5344 25.7564C43.4065 25.9671 43.3426 26.2074 43.3426 26.4773V30H42.7105ZM48.3142 30.1136C47.8052 30.1136 47.3648 29.9953 46.9932 29.7585C46.6215 29.5194 46.3338 29.1892 46.1302 28.7678C45.929 28.344 45.8284 27.8563 45.8284 27.3047C45.8284 26.7554 45.929 26.2678 46.1302 25.8416C46.3338 25.4131 46.6144 25.0781 46.9719 24.8366C47.3317 24.5928 47.7472 24.4709 48.2183 24.4709C48.5142 24.4709 48.7995 24.5253 49.0741 24.6342C49.3488 24.7408 49.595 24.9053 49.8128 25.1278C50.0329 25.348 50.2069 25.6262 50.3348 25.9624C50.4626 26.2962 50.5265 26.6915 50.5265 27.1484V27.4609H46.2652V26.9034H49.8802C49.8802 26.553 49.8092 26.2382 49.6672 25.9588C49.5275 25.6771 49.3322 25.4545 49.0812 25.2912C48.8327 25.1278 48.545 25.0462 48.2183 25.0462C47.8727 25.0462 47.5684 25.1385 47.3057 25.3232C47.0429 25.5078 46.8369 25.7517 46.6878 26.0547C46.541 26.3577 46.4664 26.6892 46.464 27.049V27.3828C46.464 27.8161 46.5386 28.1948 46.6878 28.5192C46.8393 28.8411 47.0535 29.0909 47.3305 29.2685C47.6075 29.446 47.9354 29.5348 48.3142 29.5348C48.5722 29.5348 48.7983 29.4946 48.9925 29.4141C49.189 29.3336 49.3535 29.2259 49.4861 29.0909C49.621 28.9536 49.7228 28.8033 49.7915 28.6399L50.3916 28.8352C50.3087 29.0649 50.1726 29.2768 49.9832 29.4709C49.7962 29.665 49.5618 29.8213 49.2801 29.9396C49.0007 30.0556 48.6788 30.1136 48.3142 30.1136ZM56.2554 30.1243C55.9263 30.1243 55.6257 30.0604 55.3534 29.9325C55.0812 29.8023 54.8646 29.6153 54.7036 29.3714C54.5426 29.1252 54.4621 28.8269 54.4621 28.4766C54.4621 28.2067 54.513 27.9794 54.6148 27.7947C54.7166 27.6101 54.861 27.4586 55.048 27.3402C55.2351 27.2218 55.4564 27.1283 55.7121 27.0597C55.9678 26.991 56.2495 26.9377 56.5573 26.8999C56.8627 26.862 57.1207 26.8288 57.3314 26.8004C57.5445 26.772 57.7066 26.727 57.8179 26.6655C57.9292 26.6039 57.9848 26.5045 57.9848 26.3672V26.2393C57.9848 25.8677 57.8736 25.5753 57.651 25.3622C57.4308 25.1468 57.1136 25.0391 56.6993 25.0391C56.3063 25.0391 55.9855 25.1255 55.7369 25.2983C55.4907 25.4711 55.3179 25.6747 55.2185 25.9091L54.6183 25.6925C54.7414 25.3942 54.9119 25.1562 55.1297 24.9787C55.3475 24.7988 55.5914 24.6697 55.8612 24.5916C56.1311 24.5111 56.4046 24.4709 56.6816 24.4709C56.8899 24.4709 57.1065 24.4981 57.3314 24.5526C57.5587 24.607 57.7694 24.7017 57.9635 24.8366C58.1576 24.9692 58.3151 25.1551 58.4358 25.3942C58.5566 25.6309 58.6169 25.9316 58.6169 26.2962V30H57.9848V29.1371H57.9458C57.87 29.2981 57.7575 29.4543 57.6084 29.6058C57.4593 29.7573 57.2722 29.8816 57.0473 29.9787C56.8224 30.0758 56.5584 30.1243 56.2554 30.1243ZM56.3406 29.5455C56.6768 29.5455 56.968 29.4709 57.2142 29.3217C57.4604 29.1726 57.6498 28.9749 57.7824 28.7287C57.9173 28.4801 57.9848 28.2067 57.9848 27.9084V27.12C57.9375 27.165 57.8582 27.2053 57.7469 27.2408C57.638 27.2763 57.5113 27.3082 57.3669 27.3366C57.2249 27.3627 57.0828 27.3852 56.9408 27.4041C56.7987 27.4231 56.6709 27.4396 56.5573 27.4538C56.2495 27.4917 55.9867 27.5509 55.7689 27.6314C55.5511 27.7119 55.3842 27.8232 55.2682 27.9652C55.1522 28.1049 55.0942 28.2848 55.0942 28.505C55.0942 28.8364 55.2126 29.0933 55.4493 29.2756C55.686 29.4555 55.9832 29.5455 56.3406 29.5455ZM60.2984 30V24.5455H60.9127V25.3835H60.9589C61.0678 25.1089 61.2572 24.8875 61.5271 24.7195C61.7993 24.549 62.1071 24.4638 62.4504 24.4638C62.5025 24.4638 62.5605 24.465 62.6244 24.4673C62.6883 24.4697 62.7416 24.4721 62.7842 24.4744V25.1172C62.7558 25.1125 62.7061 25.1054 62.635 25.0959C62.564 25.0864 62.4871 25.0817 62.4042 25.0817C62.1201 25.0817 61.8668 25.142 61.6443 25.2628C61.4241 25.3812 61.2501 25.5457 61.1222 25.7564C60.9944 25.9671 60.9305 26.2074 60.9305 26.4773V30H60.2984ZM65.9021 30.1136C65.3931 30.1136 64.9527 29.9953 64.5811 29.7585C64.2094 29.5194 63.9217 29.1892 63.7181 28.7678C63.5169 28.344 63.4163 27.8563 63.4163 27.3047C63.4163 26.7554 63.5169 26.2678 63.7181 25.8416C63.9217 25.4131 64.2023 25.0781 64.5597 24.8366C64.9196 24.5928 65.3351 24.4709 65.8062 24.4709C66.1021 24.4709 66.3874 24.5253 66.662 24.6342C66.9366 24.7408 67.1829 24.9053 67.4007 25.1278C67.6208 25.348 67.7948 25.6262 67.9227 25.9624C68.0505 26.2962 68.1144 26.6915 68.1144 27.1484V27.4609H63.8531V26.9034H67.4681C67.4681 26.553 67.3971 26.2382 67.2551 25.9588C67.1154 25.6771 66.9201 25.4545 66.6691 25.2912C66.4205 25.1278 66.1329 25.0462 65.8062 25.0462C65.4606 25.0462 65.1563 25.1385 64.8936 25.3232C64.6308 25.5078 64.4248 25.7517 64.2757 26.0547C64.1289 26.3577 64.0543 26.6892 64.0519 27.049V27.3828C64.0519 27.8161 64.1265 28.1948 64.2757 28.5192C64.4272 28.8411 64.6414 29.0909 64.9184 29.2685C65.1954 29.446 65.5233 29.5348 65.9021 29.5348C66.1601 29.5348 66.3862 29.4946 66.5803 29.4141C66.7768 29.3336 66.9414 29.2259 67.074 29.0909C67.2089 28.9536 67.3107 28.8033 67.3794 28.6399L67.9795 28.8352C67.8966 29.0649 67.7605 29.2768 67.5711 29.4709C67.3841 29.665 67.1497 29.8213 66.868 29.9396C66.5886 30.0556 66.2667 30.1136 65.9021 30.1136ZM72.952 26.5909V30H72.3199V22.7273H72.952V25.4013H73.0088C73.1366 25.1196 73.3343 24.8946 73.6018 24.7266C73.8717 24.5585 74.2126 24.4744 74.6246 24.4744C74.9939 24.4744 75.3182 24.5502 75.5976 24.7017C75.8769 24.8532 76.0947 25.0769 76.251 25.3729C76.4072 25.6688 76.4854 26.0334 76.4854 26.4666V30H75.8497V26.5057C75.8497 26.0559 75.7242 25.7019 75.4733 25.4439C75.2247 25.1835 74.8885 25.0533 74.4648 25.0533C74.1736 25.0533 73.9143 25.1148 73.6871 25.2379C73.4598 25.361 73.2799 25.5386 73.1473 25.7706C73.0171 26.0002 72.952 26.2737 72.952 26.5909ZM78.157 30V24.5455H78.7927V30H78.157ZM78.4802 23.608C78.35 23.608 78.2387 23.5642 78.1464 23.4766C78.0541 23.3866 78.0079 23.2789 78.0079 23.1534C78.0079 23.0279 78.0541 22.9214 78.1464 22.8338C78.2387 22.7438 78.35 22.6989 78.4802 22.6989C78.6104 22.6989 78.7217 22.7438 78.814 22.8338C78.9063 22.9214 78.9525 23.0279 78.9525 23.1534C78.9525 23.2789 78.9063 23.3866 78.814 23.4766C78.7217 23.5642 78.6104 23.608 78.4802 23.608ZM82.5454 32.1591C82.1737 32.1591 81.8482 32.1106 81.5688 32.0135C81.2894 31.9188 81.0539 31.7886 80.8621 31.6229C80.6704 31.4571 80.5212 31.2713 80.4147 31.0653L80.9331 30.7244C81.0113 30.8617 81.1154 30.9967 81.2456 31.1293C81.3782 31.2618 81.5499 31.3719 81.7606 31.4595C81.9736 31.5471 82.2352 31.5909 82.5454 31.5909C83.0283 31.5909 83.4178 31.4702 83.7137 31.2287C84.012 30.9872 84.1611 30.612 84.1611 30.103V28.8743H84.1043C84.0309 29.04 83.9256 29.2057 83.7883 29.3714C83.651 29.5348 83.471 29.6709 83.2485 29.7798C83.0283 29.8887 82.7549 29.9432 82.4282 29.9432C81.9926 29.9432 81.6055 29.8355 81.267 29.62C80.9308 29.4046 80.6656 29.0968 80.4715 28.6967C80.2797 28.2943 80.1839 27.8149 80.1839 27.2585C80.1839 26.7069 80.2774 26.2216 80.4644 25.8026C80.6538 25.3835 80.9178 25.0568 81.2563 24.8224C81.5948 24.5881 81.989 24.4709 82.4388 24.4709C82.7726 24.4709 83.0496 24.5301 83.2698 24.6484C83.49 24.7644 83.6663 24.9089 83.7989 25.0817C83.9339 25.2545 84.0392 25.4226 84.115 25.5859H84.1789V24.5455H84.7968V30.142C84.7968 30.6037 84.6985 30.9837 84.502 31.282C84.3055 31.5803 84.038 31.8004 83.6995 31.9425C83.3609 32.0869 82.9762 32.1591 82.5454 32.1591ZM82.5028 29.3643C82.8531 29.3643 83.1526 29.2803 83.4012 29.1122C83.6498 28.9418 83.8403 28.6979 83.9729 28.3807C84.1055 28.0634 84.1718 27.6858 84.1718 27.2479C84.1718 26.8217 84.1067 26.4441 83.9765 26.1151C83.8463 25.7836 83.6569 25.5232 83.4083 25.3338C83.1621 25.142 82.8602 25.0462 82.5028 25.0462C82.1382 25.0462 81.8304 25.1444 81.5795 25.3409C81.3285 25.5374 81.1391 25.8026 81.0113 26.1364C80.8834 26.4678 80.8195 26.8383 80.8195 27.2479C80.8195 27.6645 80.8846 28.0327 81.0148 28.3523C81.145 28.6695 81.3356 28.9181 81.5866 29.098C81.8375 29.2756 82.1429 29.3643 82.5028 29.3643ZM87.1024 26.5909V30H86.4703V22.7273H87.1024V25.4013H87.1592C87.287 25.1196 87.4847 24.8946 87.7522 24.7266C88.0221 24.5585 88.363 24.4744 88.7749 24.4744C89.1443 24.4744 89.4686 24.5502 89.748 24.7017C90.0273 24.8532 90.2451 25.0769 90.4014 25.3729C90.5576 25.6688 90.6357 26.0334 90.6357 26.4666V30H90.0001V26.5057C90.0001 26.0559 89.8746 25.7019 89.6237 25.4439C89.3751 25.1835 89.0389 25.0533 88.6151 25.0533C88.324 25.0533 88.0647 25.1148 87.8374 25.2379C87.6102 25.361 87.4302 25.5386 87.2977 25.7706C87.1675 26.0002 87.1024 26.2737 87.1024 26.5909ZM28.1895 44.0455V40.9879H28.1326C28.0592 41.1536 27.9551 41.3241 27.8201 41.4993C27.6852 41.6721 27.5065 41.8177 27.2839 41.9361C27.0614 42.0545 26.7856 42.1136 26.4565 42.1136C26.0114 42.1136 25.6196 41.9953 25.2811 41.7585C24.9449 41.5218 24.6821 41.1915 24.4927 40.7678C24.3057 40.344 24.2122 39.8504 24.2122 39.2869C24.2122 38.7259 24.3057 38.2346 24.4927 37.8132C24.6821 37.3894 24.9461 37.0604 25.2846 36.826C25.6232 36.5893 26.0173 36.4709 26.4672 36.4709C26.801 36.4709 27.0768 36.5301 27.2946 36.6484C27.5147 36.7668 27.6911 36.9124 27.8237 37.0852C27.9563 37.2557 28.0592 37.4226 28.1326 37.5859H28.2072V36.5455H28.8251V44.0455H28.1895ZM26.5311 41.5348C26.8838 41.5348 27.1845 41.4389 27.4331 41.2472C27.6816 41.053 27.871 40.7867 28.0012 40.4482C28.1338 40.1072 28.2001 39.7166 28.2001 39.2763C28.2001 38.8407 28.135 38.456 28.0048 38.1222C27.8746 37.786 27.6852 37.5232 27.4366 37.3338C27.1904 37.142 26.8886 37.0462 26.5311 37.0462C26.1665 37.0462 25.8587 37.1456 25.6078 37.3445C25.3568 37.541 25.1674 37.8073 25.0396 38.1435C24.9118 38.4796 24.8478 38.8572 24.8478 39.2763C24.8478 39.7 24.9129 40.0824 25.0431 40.4233C25.1734 40.7642 25.3639 41.0353 25.6149 41.2365C25.8658 41.4354 26.1712 41.5348 26.5311 41.5348ZM33.9547 39.9155V36.5455H34.5868V42H33.9547V41.0945H33.905C33.7772 41.3738 33.5748 41.607 33.2978 41.794C33.0208 41.9787 32.6822 42.071 32.2821 42.071C31.9341 42.071 31.6252 41.9953 31.3553 41.8438C31.0854 41.6899 30.8735 41.465 30.7196 41.169C30.5658 40.8731 30.4888 40.5097 30.4888 40.0788V36.5455H31.1209V40.0398C31.1209 40.4659 31.2464 40.8092 31.4973 41.0696C31.7483 41.3277 32.0703 41.4567 32.4632 41.4567C32.7095 41.4567 32.9462 41.3975 33.1735 41.2791C33.4007 41.1607 33.5878 40.9879 33.7346 40.7607C33.8813 40.531 33.9547 40.2493 33.9547 39.9155ZM37.7837 42.1243C37.4547 42.1243 37.154 42.0604 36.8817 41.9325C36.6095 41.8023 36.3929 41.6153 36.2319 41.3714C36.0709 41.1252 35.9904 40.8269 35.9904 40.4766C35.9904 40.2067 36.0413 39.9794 36.1431 39.7947C36.2449 39.6101 36.3893 39.4586 36.5763 39.3402C36.7634 39.2218 36.9847 39.1283 37.2404 39.0597C37.4961 38.991 37.7778 38.9377 38.0856 38.8999C38.391 38.862 38.649 38.8288 38.8597 38.8004C39.0728 38.772 39.235 38.727 39.3462 38.6655C39.4575 38.6039 39.5131 38.5045 39.5131 38.3672V38.2393C39.5131 37.8677 39.4019 37.5753 39.1793 37.3622C38.9592 37.1468 38.6419 37.0391 38.2276 37.0391C37.8346 37.0391 37.5138 37.1255 37.2653 37.2983C37.0191 37.4711 36.8462 37.6747 36.7468 37.9091L36.1467 37.6925C36.2698 37.3942 36.4402 37.1562 36.658 36.9787C36.8758 36.7988 37.1197 36.6697 37.3896 36.5916C37.6594 36.5111 37.9329 36.4709 38.2099 36.4709C38.4182 36.4709 38.6348 36.4981 38.8597 36.5526C39.087 36.607 39.2977 36.7017 39.4918 36.8366C39.686 36.9692 39.8434 37.1551 39.9641 37.3942C40.0849 37.6309 40.1452 37.9316 40.1452 38.2962V42H39.5131V41.1371H39.4741C39.3983 41.2981 39.2859 41.4543 39.1367 41.6058C38.9876 41.7573 38.8005 41.8816 38.5756 41.9787C38.3507 42.0758 38.0868 42.1243 37.7837 42.1243ZM37.869 41.5455C38.2051 41.5455 38.4963 41.4709 38.7425 41.3217C38.9888 41.1726 39.1781 40.9749 39.3107 40.7287C39.4457 40.4801 39.5131 40.2067 39.5131 39.9084V39.12C39.4658 39.165 39.3865 39.2053 39.2752 39.2408C39.1663 39.2763 39.0397 39.3082 38.8952 39.3366C38.7532 39.3627 38.6112 39.3852 38.4691 39.4041C38.3271 39.4231 38.1992 39.4396 38.0856 39.4538C37.7778 39.4917 37.515 39.5509 37.2972 39.6314C37.0794 39.7119 36.9125 39.8232 36.7965 39.9652C36.6805 40.1049 36.6225 40.2848 36.6225 40.505C36.6225 40.8364 36.7409 41.0933 36.9776 41.2756C37.2144 41.4555 37.5115 41.5455 37.869 41.5455ZM42.4588 34.7273V42H41.8267V34.7273H42.4588ZM44.1385 42V36.5455H44.7741V42H44.1385ZM44.4616 35.608C44.3314 35.608 44.2202 35.5642 44.1278 35.4766C44.0355 35.3866 43.9893 35.2789 43.9893 35.1534C43.9893 35.0279 44.0355 34.9214 44.1278 34.8338C44.2202 34.7438 44.3314 34.6989 44.4616 34.6989C44.5919 34.6989 44.7031 34.7438 44.7955 34.8338C44.8878 34.9214 44.9339 35.0279 44.9339 35.1534C44.9339 35.2789 44.8878 35.3866 44.7955 35.4766C44.7031 35.5642 44.5919 35.608 44.4616 35.608ZM48.5943 36.5455V37.0959H45.9913V36.5455H48.5943ZM46.8045 35.2386H47.4402V40.576C47.4402 40.8033 47.4792 40.982 47.5574 41.1122C47.6355 41.2401 47.7373 41.3312 47.8627 41.3857C47.9882 41.4377 48.122 41.4638 48.264 41.4638C48.3469 41.4638 48.4179 41.459 48.4771 41.4496C48.5363 41.4377 48.5884 41.4259 48.6333 41.4141L48.7683 41.9858C48.7067 42.0095 48.631 42.0308 48.541 42.0497C48.4511 42.071 48.3398 42.0817 48.2072 42.0817C47.9752 42.0817 47.7515 42.0308 47.536 41.929C47.323 41.8272 47.1478 41.6757 47.0105 41.4744C46.8732 41.2732 46.8045 41.0234 46.8045 40.7251V35.2386ZM50.4702 44.0455C50.3447 44.0455 50.2275 44.0336 50.1186 44.0099C50.0097 43.9863 49.9233 43.9602 49.8594 43.9318L50.0298 43.3743C50.2453 43.4406 50.437 43.4643 50.6051 43.4453C50.7732 43.4287 50.9223 43.353 51.0526 43.218C51.1828 43.0855 51.2988 42.8819 51.4006 42.6072L51.5994 42.0533L49.593 36.5455H50.2784L51.8977 41.1655H51.9474L53.5668 36.5455H54.2521L51.9439 42.8629C51.8468 43.1257 51.7273 43.3447 51.5852 43.5199C51.4432 43.6974 51.2786 43.8288 51.0916 43.9141C50.907 44.0017 50.6998 44.0455 50.4702 44.0455ZM60.432 42.1136C59.9443 42.1136 59.5194 41.9917 59.1571 41.7479C58.7973 41.504 58.5179 41.1702 58.3191 40.7464C58.1202 40.3227 58.0208 39.8397 58.0208 39.2976C58.0208 38.7507 58.1214 38.2642 58.3226 37.8381C58.5262 37.4119 58.8079 37.0781 59.1678 36.8366C59.5276 36.5928 59.9455 36.4709 60.4213 36.4709C60.7859 36.4709 61.1162 36.5419 61.4121 36.6839C61.708 36.8236 61.9519 37.0213 62.1436 37.277C62.3378 37.5303 62.4597 37.8262 62.5094 38.1648H61.8702C61.8039 37.857 61.6441 37.5942 61.3908 37.3764C61.1399 37.1562 60.8203 37.0462 60.432 37.0462C60.084 37.0462 59.7762 37.1409 59.5087 37.3303C59.2412 37.5173 59.0317 37.7789 58.8801 38.1151C58.731 38.4489 58.6564 38.8359 58.6564 39.2763C58.6564 39.719 58.7298 40.1108 58.8766 40.4517C59.0234 40.7902 59.2293 41.0554 59.4945 41.2472C59.762 41.4389 60.0745 41.5348 60.432 41.5348C60.6735 41.5348 60.8936 41.4898 61.0925 41.3999C61.2937 41.3075 61.4618 41.1773 61.5968 41.0092C61.7341 40.8411 61.8264 40.6411 61.8738 40.4091H62.513C62.4656 40.7382 62.3484 41.0317 62.1614 41.2898C61.9767 41.5455 61.7364 41.7467 61.4405 41.8935C61.147 42.0402 60.8108 42.1136 60.432 42.1136ZM65.9877 42.1136C65.5166 42.1136 65.1 41.9941 64.7377 41.755C64.3779 41.5159 64.0962 41.1856 63.8926 40.7642C63.689 40.3404 63.5872 39.8516 63.5872 39.2976C63.5872 38.7389 63.689 38.2476 63.8926 37.8239C64.0962 37.3977 64.3779 37.0663 64.7377 36.8295C65.1 36.5904 65.5166 36.4709 65.9877 36.4709C66.4589 36.4709 66.8743 36.5904 67.2342 36.8295C67.594 37.0687 67.8758 37.4001 68.0794 37.8239C68.2853 38.2476 68.3883 38.7389 68.3883 39.2976C68.3883 39.8516 68.2865 40.3404 68.0829 40.7642C67.8793 41.1856 67.5964 41.5159 67.2342 41.755C66.8743 41.9941 66.4589 42.1136 65.9877 42.1136ZM65.9877 41.5348C66.3665 41.5348 66.6873 41.433 66.9501 41.2294C67.2129 41.0258 67.4118 40.7547 67.5467 40.4162C67.684 40.0777 67.7527 39.7048 67.7527 39.2976C67.7527 38.8904 67.684 38.5163 67.5467 38.1754C67.4118 37.8345 67.2129 37.5611 66.9501 37.3551C66.6873 37.1491 66.3665 37.0462 65.9877 37.0462C65.6113 37.0462 65.2905 37.1491 65.0254 37.3551C64.7626 37.5611 64.5626 37.8345 64.4252 38.1754C64.2903 38.5163 64.2228 38.8904 64.2228 39.2976C64.2228 39.7048 64.2903 40.0777 64.4252 40.4162C64.5626 40.7547 64.7626 41.0258 65.0254 41.2294C65.2882 41.433 65.609 41.5348 65.9877 41.5348ZM73.2418 39.9155V36.5455H73.8739V42H73.2418V41.0945H73.1921C73.0643 41.3738 72.8619 41.607 72.5849 41.794C72.3079 41.9787 71.9693 42.071 71.5692 42.071C71.2212 42.071 70.9123 41.9953 70.6424 41.8438C70.3725 41.6899 70.1606 41.465 70.0067 41.169C69.8529 40.8731 69.7759 40.5097 69.7759 40.0788V36.5455H70.408V40.0398C70.408 40.4659 70.5335 40.8092 70.7844 41.0696C71.0354 41.3277 71.3574 41.4567 71.7504 41.4567C71.9966 41.4567 72.2333 41.3975 72.4606 41.2791C72.6879 41.1607 72.8749 40.9879 73.0217 40.7607C73.1684 40.531 73.2418 40.2493 73.2418 39.9155ZM75.5474 42V36.5455H76.1618V37.3835H76.2079C76.3168 37.1089 76.5062 36.8875 76.7761 36.7195C77.0484 36.549 77.3561 36.4638 77.6994 36.4638C77.7515 36.4638 77.8095 36.465 77.8734 36.4673C77.9373 36.4697 77.9906 36.4721 78.0332 36.4744V37.1172C78.0048 37.1125 77.9551 37.1054 77.8841 37.0959C77.813 37.0864 77.7361 37.0817 77.6532 37.0817C77.3691 37.0817 77.1158 37.142 76.8933 37.2628C76.6731 37.3812 76.4991 37.5457 76.3713 37.7564C76.2434 37.9671 76.1795 38.2074 76.1795 38.4773V42H75.5474ZM82.7766 37.7422L82.1978 37.9055C82.141 37.7422 82.0605 37.5942 81.9563 37.4616C81.8522 37.3291 81.716 37.2237 81.5479 37.1456C81.3822 37.0675 81.1763 37.0284 80.93 37.0284C80.5607 37.0284 80.2577 37.116 80.021 37.2912C79.7842 37.4664 79.6658 37.6925 79.6658 37.9695C79.6658 38.2038 79.7463 38.3944 79.9073 38.5412C80.0707 38.6856 80.3216 38.8004 80.6602 38.8857L81.484 39.0881C81.9409 39.1993 82.283 39.3757 82.5103 39.6172C82.7399 39.8587 82.8548 40.1617 82.8548 40.5263C82.8548 40.834 82.7695 41.1075 82.5991 41.3466C82.4286 41.5857 82.1907 41.7739 81.8853 41.9112C81.5823 42.0462 81.2307 42.1136 80.8306 42.1136C80.2979 42.1136 79.8588 41.9941 79.5131 41.755C79.1675 41.5135 78.9461 41.1655 78.8491 40.7109L79.4563 40.5618C79.5344 40.8861 79.6871 41.1312 79.9144 41.2969C80.1441 41.4626 80.4459 41.5455 80.82 41.5455C81.239 41.5455 81.574 41.4519 81.8249 41.2649C82.0759 41.0755 82.2013 40.8388 82.2013 40.5547C82.2013 40.3345 82.128 40.1499 81.9812 40.0007C81.8344 39.8492 81.6119 39.7379 81.3136 39.6669L80.4222 39.4538C79.9487 39.3402 79.5984 39.1603 79.3711 38.9141C79.1438 38.6679 79.0302 38.3625 79.0302 37.9979C79.0302 37.6972 79.1119 37.4332 79.2752 37.206C79.4386 36.9763 79.6635 36.7964 79.9499 36.6662C80.2364 36.536 80.5631 36.4709 80.93 36.4709C81.4296 36.4709 81.8285 36.5845 82.1268 36.8118C82.4274 37.0367 82.6441 37.3468 82.7766 37.7422ZM86.4441 42.1136C85.9351 42.1136 85.4947 41.9953 85.123 41.7585C84.7514 41.5194 84.4637 41.1892 84.2601 40.7678C84.0589 40.344 83.9583 39.8563 83.9583 39.3047C83.9583 38.7554 84.0589 38.2678 84.2601 37.8416C84.4637 37.4131 84.7443 37.0781 85.1017 36.8366C85.4616 36.5928 85.8771 36.4709 86.3482 36.4709C86.6441 36.4709 86.9294 36.5253 87.204 36.6342C87.4786 36.7408 87.7248 36.9053 87.9426 37.1278C88.1628 37.348 88.3368 37.6262 88.4647 37.9624C88.5925 38.2962 88.6564 38.6915 88.6564 39.1484V39.4609H84.3951V38.9034H88.0101C88.0101 38.553 87.9391 38.2382 87.7971 37.9588C87.6574 37.6771 87.4621 37.4545 87.2111 37.2912C86.9625 37.1278 86.6749 37.0462 86.3482 37.0462C86.0025 37.0462 85.6983 37.1385 85.4355 37.3232C85.1728 37.5078 84.9668 37.7517 84.8176 38.0547C84.6709 38.3577 84.5963 38.6892 84.5939 39.049V39.3828C84.5939 39.8161 84.6685 40.1948 84.8176 40.5192C84.9692 40.8411 85.1834 41.0909 85.4604 41.2685C85.7374 41.446 86.0653 41.5348 86.4441 41.5348C86.7021 41.5348 86.9282 41.4946 87.1223 41.4141C87.3188 41.3336 87.4834 41.2259 87.6159 41.0909C87.7509 40.9536 87.8527 40.8033 87.9213 40.6399L88.5215 40.8352C88.4386 41.0649 88.3025 41.2768 88.1131 41.4709C87.9261 41.665 87.6917 41.8213 87.41 41.9396C87.1306 42.0556 86.8087 42.1136 86.4441 42.1136ZM93.7141 37.7422L93.1353 37.9055C93.0785 37.7422 92.998 37.5942 92.8938 37.4616C92.7897 37.3291 92.6535 37.2237 92.4854 37.1456C92.3197 37.0675 92.1138 37.0284 91.8675 37.0284C91.4982 37.0284 91.1952 37.116 90.9585 37.2912C90.7217 37.4664 90.6033 37.6925 90.6033 37.9695C90.6033 38.2038 90.6838 38.3944 90.8448 38.5412C91.0082 38.6856 91.2591 38.8004 91.5977 38.8857L92.4215 39.0881C92.8784 39.1993 93.2205 39.3757 93.4478 39.6172C93.6774 39.8587 93.7923 40.1617 93.7923 40.5263C93.7923 40.834 93.707 41.1075 93.5366 41.3466C93.3661 41.5857 93.1282 41.7739 92.8228 41.9112C92.5198 42.0462 92.1682 42.1136 91.7681 42.1136C91.2354 42.1136 90.7963 41.9941 90.4506 41.755C90.105 41.5135 89.8836 41.1655 89.7866 40.7109L90.3938 40.5618C90.4719 40.8861 90.6246 41.1312 90.8519 41.2969C91.0816 41.4626 91.3834 41.5455 91.7575 41.5455C92.1765 41.5455 92.5115 41.4519 92.7624 41.2649C93.0134 41.0755 93.1388 40.8388 93.1388 40.5547C93.1388 40.3345 93.0655 40.1499 92.9187 40.0007C92.7719 39.8492 92.5494 39.7379 92.2511 39.6669L91.3597 39.4538C90.8862 39.3402 90.5359 39.1603 90.3086 38.9141C90.0813 38.6679 89.9677 38.3625 89.9677 37.9979C89.9677 37.6972 90.0494 37.4332 90.2127 37.206C90.3761 36.9763 90.601 36.7964 90.8874 36.6662C91.1739 36.536 91.5006 36.4709 91.8675 36.4709C92.3671 36.4709 92.766 36.5845 93.0643 36.8118C93.3649 37.0367 93.5816 37.3468 93.7141 37.7422ZM16.524 54.1243C16.1949 54.1243 15.8942 54.0604 15.622 53.9325C15.3497 53.8023 15.1331 53.6153 14.9721 53.3714C14.8111 53.1252 14.7306 52.8269 14.7306 52.4766C14.7306 52.2067 14.7815 51.9794 14.8833 51.7947C14.9851 51.6101 15.1296 51.4586 15.3166 51.3402C15.5036 51.2218 15.725 51.1283 15.9806 51.0597C16.2363 50.991 16.5181 50.9377 16.8258 50.8999C17.1312 50.862 17.3893 50.8288 17.6 50.8004C17.813 50.772 17.9752 50.727 18.0865 50.6655C18.1977 50.6039 18.2534 50.5045 18.2534 50.3672V50.2393C18.2534 49.8677 18.1421 49.5753 17.9196 49.3622C17.6994 49.1468 17.3822 49.0391 16.9679 49.0391C16.5749 49.0391 16.2541 49.1255 16.0055 49.2983C15.7593 49.4711 15.5865 49.6747 15.487 49.9091L14.8869 49.6925C15.01 49.3942 15.1805 49.1562 15.3983 48.9787C15.6161 48.7988 15.8599 48.6697 16.1298 48.5916C16.3997 48.5111 16.6731 48.4709 16.9501 48.4709C17.1584 48.4709 17.3751 48.4981 17.6 48.5526C17.8272 48.607 18.0379 48.7017 18.2321 48.8366C18.4262 48.9692 18.5836 49.1551 18.7044 49.3942C18.8251 49.6309 18.8855 49.9316 18.8855 50.2962V54H18.2534V53.1371H18.2143C18.1386 53.2981 18.0261 53.4543 17.877 53.6058C17.7278 53.7573 17.5408 53.8816 17.3159 53.9787C17.091 54.0758 16.827 54.1243 16.524 54.1243ZM16.6092 53.5455C16.9454 53.5455 17.2366 53.4709 17.4828 53.3217C17.729 53.1726 17.9184 52.9749 18.051 52.7287C18.1859 52.4801 18.2534 52.2067 18.2534 51.9084V51.12C18.206 51.165 18.1267 51.2053 18.0154 51.2408C17.9065 51.2763 17.7799 51.3082 17.6355 51.3366C17.4934 51.3627 17.3514 51.3852 17.2093 51.4041C17.0673 51.4231 16.9395 51.4396 16.8258 51.4538C16.5181 51.4917 16.2553 51.5509 16.0375 51.6314C15.8197 51.7119 15.6528 51.8232 15.5368 51.9652C15.4208 52.1049 15.3627 52.2848 15.3627 52.505C15.3627 52.8364 15.4811 53.0933 15.7179 53.2756C15.9546 53.4555 16.2517 53.5455 16.6092 53.5455ZM21.199 50.5909V54H20.5669V48.5455H21.1813V49.4013H21.2381C21.3659 49.1219 21.5648 48.8982 21.8347 48.7301C22.1069 48.5597 22.4431 48.4744 22.8432 48.4744C23.2102 48.4744 23.5321 48.5514 23.8091 48.7053C24.0885 48.8568 24.3051 49.0805 24.459 49.3764C24.6152 49.6723 24.6934 50.0357 24.6934 50.4666V54H24.0613V50.5057C24.0613 50.0582 23.9358 49.7043 23.6848 49.4439C23.4363 49.1835 23.1025 49.0533 22.6834 49.0533C22.397 49.0533 22.1425 49.1148 21.9199 49.2379C21.6974 49.361 21.521 49.5386 21.3908 49.7706C21.263 50.0002 21.199 50.2737 21.199 50.5909ZM28.3217 54.1136C27.8743 54.1136 27.4825 53.9953 27.1463 53.7585C26.8101 53.5218 26.5473 53.1915 26.358 52.7678C26.1709 52.344 26.0774 51.8504 26.0774 51.2869C26.0774 50.7259 26.1709 50.2346 26.358 49.8132C26.5473 49.3894 26.8113 49.0604 27.1499 48.826C27.4884 48.5893 27.8826 48.4709 28.3324 48.4709C28.6638 48.4709 28.9396 48.5301 29.1598 48.6484C29.38 48.7644 29.5563 48.9089 29.6889 49.0817C29.8215 49.2545 29.9245 49.4226 29.9979 49.5859H30.0547V46.7273H30.6903V54H30.0724V52.9879H29.9979C29.9245 53.1536 29.8203 53.3241 29.6854 53.4993C29.5504 53.6721 29.3717 53.8177 29.1491 53.9361C28.929 54.0545 28.6532 54.1136 28.3217 54.1136ZM28.3963 53.5348C28.7491 53.5348 29.0497 53.4389 29.2983 53.2472C29.5469 53.053 29.7363 52.7867 29.8665 52.4482C29.9991 52.1072 30.0653 51.7166 30.0653 51.2763C30.0653 50.8407 30.0002 50.456 29.87 50.1222C29.7398 49.786 29.5504 49.5232 29.3018 49.3338C29.0533 49.142 28.7514 49.0462 28.3963 49.0462C28.0317 49.0462 27.724 49.1456 27.473 49.3445C27.2244 49.541 27.035 49.8073 26.9048 50.1435C26.777 50.4796 26.7131 50.8572 26.7131 51.2763C26.7131 51.7 26.7782 52.0824 26.9084 52.4233C27.0386 52.7642 27.228 53.0353 27.4766 53.2365C27.7275 53.4354 28.0341 53.5348 28.3963 53.5348ZM35.4347 54V46.7273H36.0703V49.5859H36.1271C36.1982 49.4226 36.3 49.2545 36.4325 49.0817C36.5675 48.9089 36.7438 48.7644 36.9616 48.6484C37.1818 48.5301 37.4588 48.4709 37.7926 48.4709C38.2401 48.4709 38.633 48.5893 38.9716 48.826C39.3101 49.0604 39.5741 49.3894 39.7635 49.8132C39.9529 50.2346 40.0476 50.7259 40.0476 51.2869C40.0476 51.8504 39.9529 52.344 39.7635 52.7678C39.5765 53.1915 39.3137 53.5218 38.9751 53.7585C38.639 53.9953 38.2483 54.1136 37.8033 54.1136C37.4718 54.1136 37.1948 54.0545 36.9723 53.9361C36.7521 53.8177 36.5746 53.6721 36.4396 53.4993C36.3047 53.3241 36.2005 53.1536 36.1271 52.9879H36.049V54H35.4347ZM36.0597 51.2763C36.0597 51.7166 36.1248 52.1072 36.255 52.4482C36.3875 52.7867 36.5769 53.053 36.8232 53.2472C37.0717 53.4389 37.3724 53.5348 37.7251 53.5348C38.0874 53.5348 38.3939 53.4354 38.6449 53.2365C38.8958 53.0353 39.0864 52.7642 39.2166 52.4233C39.3468 52.0824 39.4119 51.7 39.4119 51.2763C39.4119 50.8572 39.3468 50.4796 39.2166 50.1435C39.0888 49.8073 38.8994 49.541 38.6484 49.3445C38.3975 49.1456 38.0897 49.0462 37.7251 49.0462C37.37 49.0462 37.0682 49.142 36.8196 49.3338C36.5734 49.5232 36.3852 49.786 36.255 50.1222C36.1248 50.456 36.0597 50.8407 36.0597 51.2763ZM43.6413 54.1136C43.1323 54.1136 42.692 53.9953 42.3203 53.7585C41.9486 53.5194 41.661 53.1892 41.4574 52.7678C41.2562 52.344 41.1555 51.8563 41.1555 51.3047C41.1555 50.7554 41.2562 50.2678 41.4574 49.8416C41.661 49.4131 41.9415 49.0781 42.299 48.8366C42.6589 48.5928 43.0743 48.4709 43.5455 48.4709C43.8414 48.4709 44.1267 48.5253 44.4013 48.6342C44.6759 48.7408 44.9221 48.9053 45.1399 49.1278C45.3601 49.348 45.5341 49.6262 45.6619 49.9624C45.7898 50.2962 45.8537 50.6915 45.8537 51.1484V51.4609H41.5923V50.9034H45.2074C45.2074 50.553 45.1364 50.2382 44.9943 49.9588C44.8546 49.6771 44.6593 49.4545 44.4084 49.2912C44.1598 49.1278 43.8722 49.0462 43.5455 49.0462C43.1998 49.0462 42.8956 49.1385 42.6328 49.3232C42.37 49.5078 42.1641 49.7517 42.0149 50.0547C41.8681 50.3577 41.7936 50.6892 41.7912 51.049V51.3828C41.7912 51.8161 41.8658 52.1948 42.0149 52.5192C42.1664 52.8411 42.3807 53.0909 42.6577 53.2685C42.9347 53.446 43.2625 53.5348 43.6413 53.5348C43.8994 53.5348 44.1255 53.4946 44.3196 53.4141C44.5161 53.3336 44.6806 53.2259 44.8132 53.0909C44.9482 52.9536 45.05 52.8033 45.1186 52.6399L45.7188 52.8352C45.6359 53.0649 45.4998 53.2768 45.3104 53.4709C45.1233 53.665 44.889 53.8213 44.6072 53.9396C44.3279 54.0556 44.0059 54.1136 43.6413 54.1136ZM49.3773 54.1136C48.8896 54.1136 48.4647 53.9917 48.1025 53.7479C47.7426 53.504 47.4632 53.1702 47.2644 52.7464C47.0655 52.3227 46.9661 51.8397 46.9661 51.2976C46.9661 50.7507 47.0667 50.2642 47.2679 49.8381C47.4715 49.4119 47.7533 49.0781 48.1131 48.8366C48.473 48.5928 48.8908 48.4709 49.3667 48.4709C49.7312 48.4709 50.0615 48.5419 50.3574 48.6839C50.6533 48.8236 50.8972 49.0213 51.089 49.277C51.2831 49.5303 51.405 49.8262 51.4547 50.1648H50.8155C50.7492 49.857 50.5894 49.5942 50.3361 49.3764C50.0852 49.1562 49.7656 49.0462 49.3773 49.0462C49.0293 49.0462 48.7215 49.1409 48.454 49.3303C48.1865 49.5173 47.977 49.7789 47.8255 50.1151C47.6763 50.4489 47.6017 50.8359 47.6017 51.2763C47.6017 51.719 47.6751 52.1108 47.8219 52.4517C47.9687 52.7902 48.1747 53.0554 48.4398 53.2472C48.7073 53.4389 49.0198 53.5348 49.3773 53.5348C49.6188 53.5348 49.839 53.4898 50.0378 53.3999C50.2391 53.3075 50.4071 53.1773 50.5421 53.0092C50.6794 52.8411 50.7717 52.6411 50.8191 52.4091H51.4583C51.4109 52.7382 51.2937 53.0317 51.1067 53.2898C50.9221 53.5455 50.6818 53.7467 50.3858 53.8935C50.0923 54.0402 49.7561 54.1136 49.3773 54.1136ZM54.3365 54.1243C54.0074 54.1243 53.7067 54.0604 53.4345 53.9325C53.1622 53.8023 52.9456 53.6153 52.7846 53.3714C52.6236 53.1252 52.5431 52.8269 52.5431 52.4766C52.5431 52.2067 52.594 51.9794 52.6958 51.7947C52.7976 51.6101 52.9421 51.4586 53.1291 51.3402C53.3161 51.2218 53.5375 51.1283 53.7931 51.0597C54.0488 50.991 54.3306 50.9377 54.6383 50.8999C54.9437 50.862 55.2018 50.8288 55.4125 50.8004C55.6255 50.772 55.7877 50.727 55.899 50.6655C56.0102 50.6039 56.0659 50.5045 56.0659 50.3672V50.2393C56.0659 49.8677 55.9546 49.5753 55.7321 49.3622C55.5119 49.1468 55.1947 49.0391 54.7804 49.0391C54.3874 49.0391 54.0666 49.1255 53.818 49.2983C53.5718 49.4711 53.399 49.6747 53.2995 49.9091L52.6994 49.6925C52.8225 49.3942 52.993 49.1562 53.2108 48.9787C53.4286 48.7988 53.6724 48.6697 53.9423 48.5916C54.2122 48.5111 54.4856 48.4709 54.7626 48.4709C54.9709 48.4709 55.1876 48.4981 55.4125 48.5526C55.6397 48.607 55.8504 48.7017 56.0446 48.8366C56.2387 48.9692 56.3961 49.1551 56.5169 49.3942C56.6376 49.6309 56.698 49.9316 56.698 50.2962V54H56.0659V53.1371H56.0268C55.9511 53.2981 55.8386 53.4543 55.6895 53.6058C55.5403 53.7573 55.3533 53.8816 55.1284 53.9787C54.9035 54.0758 54.6395 54.1243 54.3365 54.1243ZM54.4217 53.5455C54.7579 53.5455 55.0491 53.4709 55.2953 53.3217C55.5415 53.1726 55.7309 52.9749 55.8635 52.7287C55.9984 52.4801 56.0659 52.2067 56.0659 51.9084V51.12C56.0185 51.165 55.9392 51.2053 55.8279 51.2408C55.719 51.2763 55.5924 51.3082 55.448 51.3366C55.3059 51.3627 55.1639 51.3852 55.0218 51.4041C54.8798 51.4231 54.752 51.4396 54.6383 51.4538C54.3306 51.4917 54.0678 51.5509 53.85 51.6314C53.6322 51.7119 53.4653 51.8232 53.3493 51.9652C53.2333 52.1049 53.1752 52.2848 53.1752 52.505C53.1752 52.8364 53.2936 53.0933 53.5304 53.2756C53.7671 53.4555 54.0642 53.5455 54.4217 53.5455ZM61.8453 51.9155V48.5455H62.4775V54H61.8453V53.0945H61.7956C61.6678 53.3738 61.4654 53.607 61.1884 53.794C60.9114 53.9787 60.5729 54.071 60.1728 54.071C59.8248 54.071 59.5158 53.9953 59.2459 53.8438C58.976 53.6899 58.7641 53.465 58.6103 53.169C58.4564 52.8731 58.3794 52.5097 58.3794 52.0788V48.5455H59.0115V52.0398C59.0115 52.4659 59.137 52.8092 59.388 53.0696C59.6389 53.3277 59.9609 53.4567 60.3539 53.4567C60.6001 53.4567 60.8368 53.3975 61.0641 53.2791C61.2914 53.1607 61.4784 52.9879 61.6252 52.7607C61.772 52.531 61.8453 52.2493 61.8453 51.9155ZM67.8157 49.7422L67.2369 49.9055C67.18 49.7422 67.0996 49.5942 66.9954 49.4616C66.8912 49.3291 66.7551 49.2237 66.587 49.1456C66.4213 49.0675 66.2153 49.0284 65.9691 49.0284C65.5998 49.0284 65.2968 49.116 65.06 49.2912C64.8233 49.4664 64.7049 49.6925 64.7049 49.9695C64.7049 50.2038 64.7854 50.3944 64.9464 50.5412C65.1097 50.6856 65.3607 50.8004 65.6992 50.8857L66.5231 51.0881C66.98 51.1993 67.3221 51.3757 67.5494 51.6172C67.779 51.8587 67.8938 52.1617 67.8938 52.5263C67.8938 52.834 67.8086 53.1075 67.6381 53.3466C67.4677 53.5857 67.2298 53.7739 66.9244 53.9112C66.6213 54.0462 66.2698 54.1136 65.8697 54.1136C65.337 54.1136 64.8978 53.9941 64.5522 53.755C64.2066 53.5135 63.9852 53.1655 63.8881 52.7109L64.4954 52.5618C64.5735 52.8861 64.7262 53.1312 64.9535 53.2969C65.1831 53.4626 65.485 53.5455 65.859 53.5455C66.2781 53.5455 66.613 53.4519 66.864 53.2649C67.1149 53.0755 67.2404 52.8388 67.2404 52.5547C67.2404 52.3345 67.167 52.1499 67.0202 52.0007C66.8735 51.8492 66.6509 51.7379 66.3526 51.6669L65.4613 51.4538C64.9878 51.3402 64.6374 51.1603 64.4102 50.9141C64.1829 50.6679 64.0692 50.3625 64.0692 49.9979C64.0692 49.6972 64.1509 49.4332 64.3143 49.206C64.4776 48.9763 64.7025 48.7964 64.989 48.6662C65.2754 48.536 65.6022 48.4709 65.9691 48.4709C66.4686 48.4709 66.8675 48.5845 67.1658 48.8118C67.4665 49.0367 67.6831 49.3468 67.8157 49.7422ZM71.2417 54.1136C70.7942 54.1136 70.4024 53.9953 70.0662 53.7585C69.7301 53.5218 69.4673 53.1915 69.2779 52.7678C69.0908 52.344 68.9973 51.8504 68.9973 51.2869C68.9973 50.7259 69.0908 50.2346 69.2779 49.8132C69.4673 49.3894 69.7312 49.0604 70.0698 48.826C70.4083 48.5893 70.8025 48.4709 71.2523 48.4709C71.5837 48.4709 71.8596 48.5301 72.0797 48.6484C72.2999 48.7644 72.4763 48.9089 72.6088 49.0817C72.7414 49.2545 72.8444 49.4226 72.9178 49.5859H72.9746V46.7273H73.6103V54H72.9924V52.9879H72.9178C72.8444 53.1536 72.7402 53.3241 72.6053 53.4993C72.4703 53.6721 72.2916 53.8177 72.0691 53.9361C71.8489 54.0545 71.5731 54.1136 71.2417 54.1136ZM71.3162 53.5348C71.669 53.5348 71.9696 53.4389 72.2182 53.2472C72.4668 53.053 72.6562 52.7867 72.7864 52.4482C72.919 52.1072 72.9853 51.7166 72.9853 51.2763C72.9853 50.8407 72.9202 50.456 72.79 50.1222C72.6597 49.786 72.4703 49.5232 72.2218 49.3338C71.9732 49.142 71.6713 49.0462 71.3162 49.0462C70.9516 49.0462 70.6439 49.1456 70.3929 49.3445C70.1444 49.541 69.955 49.8073 69.8248 50.1435C69.6969 50.4796 69.633 50.8572 69.633 51.2763C69.633 51.7 69.6981 52.0824 69.8283 52.4233C69.9585 52.7642 70.1479 53.0353 70.3965 53.2365C70.6474 53.4354 70.954 53.5348 71.3162 53.5348ZM77.6159 54.1136C77.1069 54.1136 76.6666 53.9953 76.2949 53.7585C75.9232 53.5194 75.6356 53.1892 75.432 52.7678C75.2308 52.344 75.1301 51.8563 75.1301 51.3047C75.1301 50.7554 75.2308 50.2678 75.432 49.8416C75.6356 49.4131 75.9161 49.0781 76.2736 48.8366C76.6335 48.5928 77.0489 48.4709 77.5201 48.4709C77.816 48.4709 78.1013 48.5253 78.3759 48.6342C78.6505 48.7408 78.8967 48.9053 79.1145 49.1278C79.3347 49.348 79.5087 49.6262 79.6365 49.9624C79.7644 50.2962 79.8283 50.6915 79.8283 51.1484V51.4609H75.5669V50.9034H79.182C79.182 50.553 79.111 50.2382 78.9689 49.9588C78.8292 49.6771 78.6339 49.4545 78.383 49.2912C78.1344 49.1278 77.8468 49.0462 77.5201 49.0462C77.1744 49.0462 76.8702 49.1385 76.6074 49.3232C76.3446 49.5078 76.1387 49.7517 75.9895 50.0547C75.8427 50.3577 75.7682 50.6892 75.7658 51.049V51.3828C75.7658 51.8161 75.8404 52.1948 75.9895 52.5192C76.141 52.8411 76.3553 53.0909 76.6323 53.2685C76.9093 53.446 77.2372 53.5348 77.6159 53.5348C77.874 53.5348 78.1001 53.4946 78.2942 53.4141C78.4907 53.3336 78.6552 53.2259 78.7878 53.0909C78.9228 52.9536 79.0246 52.8033 79.0932 52.6399L79.6934 52.8352C79.6105 53.0649 79.4744 53.2768 79.285 53.4709C79.098 53.665 78.8636 53.8213 78.5819 53.9396C78.3025 54.0556 77.9805 54.1136 77.6159 54.1136ZM86.1822 48.5455V49.0959H83.5792V48.5455H86.1822ZM84.3924 47.2386H85.0281V52.576C85.0281 52.8033 85.0671 52.982 85.1452 53.1122C85.2234 53.2401 85.3252 53.3312 85.4506 53.3857C85.5761 53.4377 85.7099 53.4638 85.8519 53.4638C85.9348 53.4638 86.0058 53.459 86.065 53.4496C86.1242 53.4377 86.1763 53.4259 86.2212 53.4141L86.3562 53.9858C86.2946 54.0095 86.2189 54.0308 86.1289 54.0497C86.0389 54.071 85.9277 54.0817 85.7951 54.0817C85.5631 54.0817 85.3394 54.0308 85.1239 53.929C84.9109 53.8272 84.7357 53.6757 84.5984 53.4744C84.4611 53.2732 84.3924 53.0234 84.3924 52.7251V47.2386ZM88.367 50.5909V54H87.7349V46.7273H88.367V49.4013H88.4238C88.5517 49.1196 88.7493 48.8946 89.0169 48.7266C89.2868 48.5585 89.6277 48.4744 90.0396 48.4744C90.4089 48.4744 90.7333 48.5502 91.0126 48.7017C91.292 48.8532 91.5098 49.0769 91.666 49.3729C91.8223 49.6688 91.9004 50.0334 91.9004 50.4666V54H91.2647V50.5057C91.2647 50.0559 91.1393 49.7019 90.8883 49.4439C90.6397 49.1835 90.3036 49.0533 89.8798 49.0533C89.5886 49.0533 89.3294 49.1148 89.1021 49.2379C88.8748 49.361 88.6949 49.5386 88.5623 49.7706C88.4321 50.0002 88.367 50.2737 88.367 50.5909ZM95.7702 54.1136C95.2612 54.1136 94.8209 53.9953 94.4492 53.7585C94.0775 53.5194 93.7899 53.1892 93.5863 52.7678C93.3851 52.344 93.2844 51.8563 93.2844 51.3047C93.2844 50.7554 93.3851 50.2678 93.5863 49.8416C93.7899 49.4131 94.0704 49.0781 94.4279 48.8366C94.7878 48.5928 95.2032 48.4709 95.6744 48.4709C95.9703 48.4709 96.2556 48.5253 96.5302 48.6342C96.8048 48.7408 97.051 48.9053 97.2688 49.1278C97.489 49.348 97.663 49.6262 97.7908 49.9624C97.9187 50.2962 97.9826 50.6915 97.9826 51.1484V51.4609H93.7212V50.9034H97.3363C97.3363 50.553 97.2653 50.2382 97.1232 49.9588C96.9835 49.6771 96.7882 49.4545 96.5373 49.2912C96.2887 49.1278 96.0011 49.0462 95.6744 49.0462C95.3287 49.0462 95.0245 49.1385 94.7617 49.3232C94.4989 49.5078 94.293 49.7517 94.1438 50.0547C93.997 50.3577 93.9225 50.6892 93.9201 51.049V51.3828C93.9201 51.8161 93.9947 52.1948 94.1438 52.5192C94.2953 52.8411 94.5096 53.0909 94.7866 53.2685C95.0636 53.446 95.3915 53.5348 95.7702 53.5348C96.0283 53.5348 96.2544 53.4946 96.4485 53.4141C96.645 53.3336 96.8095 53.2259 96.9421 53.0909C97.0771 52.9536 97.1789 52.8033 97.2475 52.6399L97.8477 52.8352C97.7648 53.0649 97.6287 53.2768 97.4393 53.4709C97.2522 53.665 97.0179 53.8213 96.7362 53.9396C96.4568 54.0556 96.1348 54.1136 95.7702 54.1136ZM99.6499 56.0455C99.5244 56.0455 99.4072 56.0336 99.2983 56.0099C99.1894 55.9863 99.103 55.9602 99.0391 55.9318L99.2095 55.3743C99.425 55.4406 99.6167 55.4643 99.7848 55.4453C99.9529 55.4287 100.102 55.353 100.232 55.218C100.362 55.0855 100.478 54.8819 100.58 54.6072L100.779 54.0533L98.7727 48.5455H99.4581L101.077 53.1655H101.127L102.746 48.5455H103.432L101.124 54.8629C101.027 55.1257 100.907 55.3447 100.765 55.5199C100.623 55.6974 100.458 55.8288 100.271 55.9141C100.087 56.0017 99.8795 56.0455 99.6499 56.0455ZM19.5318 66.1243C19.2027 66.1243 18.902 66.0604 18.6298 65.9325C18.3575 65.8023 18.1409 65.6153 17.9799 65.3714C17.819 65.1252 17.7385 64.8269 17.7385 64.4766C17.7385 64.2067 17.7894 63.9794 17.8912 63.7947C17.993 63.6101 18.1374 63.4586 18.3244 63.3402C18.5114 63.2218 18.7328 63.1283 18.9885 63.0597C19.2441 62.991 19.5259 62.9377 19.8336 62.8999C20.139 62.862 20.3971 62.8288 20.6078 62.8004C20.8208 62.772 20.983 62.727 21.0943 62.6655C21.2056 62.6039 21.2612 62.5045 21.2612 62.3672V62.2393C21.2612 61.8677 21.1499 61.5753 20.9274 61.3622C20.7072 61.1468 20.39 61.0391 19.9757 61.0391C19.5827 61.0391 19.2619 61.1255 19.0133 61.2983C18.7671 61.4711 18.5943 61.6747 18.4949 61.9091L17.8947 61.6925C18.0178 61.3942 18.1883 61.1562 18.4061 60.9787C18.6239 60.7988 18.8677 60.6697 19.1376 60.5916C19.4075 60.5111 19.6809 60.4709 19.9579 60.4709C20.1663 60.4709 20.3829 60.4981 20.6078 60.5526C20.835 60.607 21.0458 60.7017 21.2399 60.8366C21.434 60.9692 21.5914 61.1551 21.7122 61.3942C21.8329 61.6309 21.8933 61.9316 21.8933 62.2962V66H21.2612V65.1371H21.2221C21.1464 65.2981 21.0339 65.4543 20.8848 65.6058C20.7356 65.7573 20.5486 65.8816 20.3237 65.9787C20.0988 66.0758 19.8348 66.1243 19.5318 66.1243ZM19.617 65.5455C19.9532 65.5455 20.2444 65.4709 20.4906 65.3217C20.7368 65.1726 20.9262 64.9749 21.0588 64.7287C21.1937 64.4801 21.2612 64.2067 21.2612 63.9084V63.12C21.2138 63.165 21.1345 63.2053 21.0233 63.2408C20.9144 63.2763 20.7877 63.3082 20.6433 63.3366C20.5012 63.3627 20.3592 63.3852 20.2172 63.4041C20.0751 63.4231 19.9473 63.4396 19.8336 63.4538C19.5259 63.4917 19.2631 63.5509 19.0453 63.6314C18.8275 63.7119 18.6606 63.8232 18.5446 63.9652C18.4286 64.1049 18.3706 64.2848 18.3706 64.505C18.3706 64.8364 18.4889 65.0933 18.7257 65.2756C18.9624 65.4555 19.2595 65.5455 19.617 65.5455ZM23.5748 66V60.5455H24.1891V61.3835H24.2353C24.3442 61.1089 24.5336 60.8875 24.8034 60.7195C25.0757 60.549 25.3835 60.4638 25.7267 60.4638C25.7788 60.4638 25.8368 60.465 25.9007 60.4673C25.9647 60.4697 26.0179 60.4721 26.0605 60.4744V61.1172C26.0321 61.1125 25.9824 61.1054 25.9114 61.0959C25.8404 61.0864 25.7634 61.0817 25.6806 61.0817C25.3965 61.0817 25.1432 61.142 24.9206 61.2628C24.7005 61.3812 24.5265 61.5457 24.3986 61.7564C24.2708 61.9671 24.2069 62.2074 24.2069 62.4773V66H23.5748ZM29.1784 66.1136C28.6694 66.1136 28.2291 65.9953 27.8574 65.7585C27.4857 65.5194 27.1981 65.1892 26.9945 64.7678C26.7933 64.344 26.6926 63.8563 26.6926 63.3047C26.6926 62.7554 26.7933 62.2678 26.9945 61.8416C27.1981 61.4131 27.4786 61.0781 27.8361 60.8366C28.196 60.5928 28.6114 60.4709 29.0826 60.4709C29.3785 60.4709 29.6638 60.5253 29.9384 60.6342C30.213 60.7408 30.4592 60.9053 30.677 61.1278C30.8972 61.348 31.0712 61.6262 31.199 61.9624C31.3269 62.2962 31.3908 62.6915 31.3908 63.1484V63.4609H27.1294V62.9034H30.7445C30.7445 62.553 30.6735 62.2382 30.5314 61.9588C30.3917 61.6771 30.1964 61.4545 29.9455 61.2912C29.6969 61.1278 29.4093 61.0462 29.0826 61.0462C28.7369 61.0462 28.4327 61.1385 28.1699 61.3232C27.9071 61.5078 27.7012 61.7517 27.552 62.0547C27.4052 62.3577 27.3307 62.6892 27.3283 63.049V63.3828C27.3283 63.8161 27.4029 64.1948 27.552 64.5192C27.7035 64.8411 27.9178 65.0909 28.1948 65.2685C28.4718 65.446 28.7997 65.5348 29.1784 65.5348C29.4365 65.5348 29.6626 65.4946 29.8567 65.4141C30.0532 65.3336 30.2177 65.2259 30.3503 65.0909C30.4853 64.9536 30.5871 64.8033 30.6557 64.6399L31.2559 64.8352C31.173 65.0649 31.0369 65.2768 30.8475 65.4709C30.6605 65.665 30.4261 65.8213 30.1444 65.9396C29.865 66.0556 29.543 66.1136 29.1784 66.1136ZM37.7163 66.1136C37.2451 66.1136 36.8285 65.9941 36.4663 65.755C36.1064 65.5159 35.8247 65.1856 35.6211 64.7642C35.4175 64.3404 35.3157 63.8516 35.3157 63.2976C35.3157 62.7389 35.4175 62.2476 35.6211 61.8239C35.8247 61.3977 36.1064 61.0663 36.4663 60.8295C36.8285 60.5904 37.2451 60.4709 37.7163 60.4709C38.1874 60.4709 38.6029 60.5904 38.9627 60.8295C39.3226 61.0687 39.6043 61.4001 39.8079 61.8239C40.0138 62.2476 40.1168 62.7389 40.1168 63.2976C40.1168 63.8516 40.015 64.3404 39.8114 64.7642C39.6078 65.1856 39.3249 65.5159 38.9627 65.755C38.6029 65.9941 38.1874 66.1136 37.7163 66.1136ZM37.7163 65.5348C38.0951 65.5348 38.4158 65.433 38.6786 65.2294C38.9414 65.0258 39.1403 64.7547 39.2752 64.4162C39.4125 64.0777 39.4812 63.7048 39.4812 63.2976C39.4812 62.8904 39.4125 62.5163 39.2752 62.1754C39.1403 61.8345 38.9414 61.5611 38.6786 61.3551C38.4158 61.1491 38.0951 61.0462 37.7163 61.0462C37.3398 61.0462 37.0191 61.1491 36.7539 61.3551C36.4911 61.5611 36.2911 61.8345 36.1538 62.1754C36.0188 62.5163 35.9513 62.8904 35.9513 63.2976C35.9513 63.7048 36.0188 64.0777 36.1538 64.4162C36.2911 64.7547 36.4911 65.0258 36.7539 65.2294C37.0167 65.433 37.3375 65.5348 37.7163 65.5348ZM42.1365 62.5909V66H41.5044V60.5455H42.1188V61.4013H42.1756C42.3034 61.1219 42.5023 60.8982 42.7722 60.7301C43.0444 60.5597 43.3806 60.4744 43.7807 60.4744C44.1477 60.4744 44.4696 60.5514 44.7466 60.7053C45.026 60.8568 45.2426 61.0805 45.3965 61.3764C45.5527 61.6723 45.6309 62.0357 45.6309 62.4666V66H44.9988V62.5057C44.9988 62.0582 44.8733 61.7043 44.6223 61.4439C44.3738 61.1835 44.04 61.0533 43.6209 61.0533C43.3345 61.0533 43.08 61.1148 42.8574 61.2379C42.6349 61.361 42.4585 61.5386 42.3283 61.7706C42.2005 62.0002 42.1365 62.2737 42.1365 62.5909ZM47.9276 58.7273V66H47.2955V58.7273H47.9276ZM49.6072 66V60.5455H50.2429V66H49.6072ZM49.9304 59.608C49.8002 59.608 49.6889 59.5642 49.5966 59.4766C49.5043 59.3866 49.4581 59.2789 49.4581 59.1534C49.4581 59.0279 49.5043 58.9214 49.5966 58.8338C49.6889 58.7438 49.8002 58.6989 49.9304 58.6989C50.0606 58.6989 50.1719 58.7438 50.2642 58.8338C50.3565 58.9214 50.4027 59.0279 50.4027 59.1534C50.4027 59.2789 50.3565 59.3866 50.2642 59.4766C50.1719 59.5642 50.0606 59.608 49.9304 59.608ZM52.5467 62.5909V66H51.9146V60.5455H52.5289V61.4013H52.5858C52.7136 61.1219 52.9125 60.8982 53.1824 60.7301C53.4546 60.5597 53.7908 60.4744 54.1909 60.4744C54.5578 60.4744 54.8798 60.5514 55.1568 60.7053C55.4361 60.8568 55.6528 61.0805 55.8066 61.3764C55.9629 61.6723 56.041 62.0357 56.041 62.4666V66H55.4089V62.5057C55.4089 62.0582 55.2834 61.7043 55.0325 61.4439C54.7839 61.1835 54.4501 61.0533 54.0311 61.0533C53.7446 61.0533 53.4901 61.1148 53.2676 61.2379C53.045 61.361 52.8687 61.5386 52.7385 61.7706C52.6106 62.0002 52.5467 62.2737 52.5467 62.5909ZM59.9109 66.1136C59.4019 66.1136 58.9615 65.9953 58.5898 65.7585C58.2182 65.5194 57.9305 65.1892 57.7269 64.7678C57.5257 64.344 57.4251 63.8563 57.4251 63.3047C57.4251 62.7554 57.5257 62.2678 57.7269 61.8416C57.9305 61.4131 58.2111 61.0781 58.5685 60.8366C58.9284 60.5928 59.3439 60.4709 59.815 60.4709C60.1109 60.4709 60.3962 60.5253 60.6708 60.6342C60.9454 60.7408 61.1916 60.9053 61.4094 61.1278C61.6296 61.348 61.8036 61.6262 61.9315 61.9624C62.0593 62.2962 62.1232 62.6915 62.1232 63.1484V63.4609H57.8619V62.9034H61.4769C61.4769 62.553 61.4059 62.2382 61.2638 61.9588C61.1242 61.6771 60.9289 61.4545 60.6779 61.2912C60.4293 61.1278 60.1417 61.0462 59.815 61.0462C59.4693 61.0462 59.1651 61.1385 58.9023 61.3232C58.6396 61.5078 58.4336 61.7517 58.2844 62.0547C58.1377 62.3577 58.0631 62.6892 58.0607 63.049V63.3828C58.0607 63.8161 58.1353 64.1948 58.2844 64.5192C58.436 64.8411 58.6502 65.0909 58.9272 65.2685C59.2042 65.446 59.5321 65.5348 59.9109 65.5348C60.1689 65.5348 60.395 65.4946 60.5891 65.4141C60.7856 65.3336 60.9502 65.2259 61.0827 65.0909C61.2177 64.9536 61.3195 64.8033 61.3881 64.6399L61.9883 64.8352C61.9054 65.0649 61.7693 65.2768 61.5799 65.4709C61.3929 65.665 61.1585 65.8213 60.8768 65.9396C60.5974 66.0556 60.2754 66.1136 59.9109 66.1136ZM66.3358 66V60.5455H66.9714V66H66.3358ZM66.6589 59.608C66.5287 59.608 66.4174 59.5642 66.3251 59.4766C66.2328 59.3866 66.1866 59.2789 66.1866 59.1534C66.1866 59.0279 66.2328 58.9214 66.3251 58.8338C66.4174 58.7438 66.5287 58.6989 66.6589 58.6989C66.7891 58.6989 66.9004 58.7438 66.9927 58.8338C67.085 58.9214 67.1312 59.0279 67.1312 59.1534C67.1312 59.2789 67.085 59.3866 66.9927 59.4766C66.9004 59.5642 66.7891 59.608 66.6589 59.608ZM70.7915 60.5455V61.0959H68.1886V60.5455H70.7915ZM69.0018 59.2386H69.6374V64.576C69.6374 64.8033 69.6765 64.982 69.7546 65.1122C69.8327 65.2401 69.9345 65.3312 70.06 65.3857C70.1855 65.4377 70.3192 65.4638 70.4613 65.4638C70.5442 65.4638 70.6152 65.459 70.6744 65.4496C70.7335 65.4377 70.7856 65.4259 70.8306 65.4141L70.9656 65.9858C70.904 66.0095 70.8282 66.0308 70.7383 66.0497C70.6483 66.071 70.5371 66.0817 70.4045 66.0817C70.1725 66.0817 69.9487 66.0308 69.7333 65.929C69.5202 65.8272 69.3451 65.6757 69.2077 65.4744C69.0704 65.2732 69.0018 65.0234 69.0018 64.7251V59.2386ZM73.0368 58.7273V59.3665C73.0368 59.5606 73.0012 59.7678 72.9302 59.9879C72.8616 60.2057 72.7598 60.4176 72.6248 60.6236C72.4922 60.8272 72.3313 61.0047 72.1419 61.1562L71.7974 60.8544C71.975 60.6461 72.1253 60.4152 72.2484 60.1619C72.3715 59.9062 72.4331 59.6446 72.4331 59.3771V58.7273H73.0368ZM77.1223 61.7422L76.5435 61.9055C76.4867 61.7422 76.4062 61.5942 76.302 61.4616C76.1979 61.3291 76.0617 61.2237 75.8936 61.1456C75.7279 61.0675 75.522 61.0284 75.2757 61.0284C74.9064 61.0284 74.6034 61.116 74.3667 61.2912C74.1299 61.4664 74.0115 61.6925 74.0115 61.9695C74.0115 62.2038 74.092 62.3944 74.253 62.5412C74.4164 62.6856 74.6673 62.8004 75.0059 62.8857L75.8297 63.0881C76.2866 63.1993 76.6287 63.3757 76.856 63.6172C77.0856 63.8587 77.2005 64.1617 77.2005 64.5263C77.2005 64.834 77.1152 65.1075 76.9448 65.3466C76.7743 65.5857 76.5364 65.7739 76.231 65.9112C75.928 66.0462 75.5764 66.1136 75.1763 66.1136C74.6436 66.1136 74.2045 65.9941 73.8588 65.755C73.5132 65.5135 73.2918 65.1655 73.1948 64.7109L73.802 64.5618C73.8801 64.8861 74.0328 65.1312 74.2601 65.2969C74.4898 65.4626 74.7916 65.5455 75.1657 65.5455C75.5847 65.5455 75.9197 65.4519 76.1706 65.2649C76.4216 65.0755 76.5471 64.8388 76.5471 64.5547C76.5471 64.3345 76.4737 64.1499 76.3269 64.0007C76.1801 63.8492 75.9576 63.7379 75.6593 63.6669L74.7679 63.4538C74.2944 63.3402 73.9441 63.1603 73.7168 62.9141C73.4895 62.6679 73.3759 62.3625 73.3759 61.9979C73.3759 61.6972 73.4576 61.4332 73.6209 61.206C73.7843 60.9763 74.0092 60.7964 74.2956 60.6662C74.5821 60.536 74.9088 60.4709 75.2757 60.4709C75.7753 60.4709 76.1742 60.5845 76.4725 60.8118C76.7731 61.0367 76.9898 61.3468 77.1223 61.7422ZM85.6193 60.5455L83.6271 66H82.9524L80.9602 60.5455H81.6456L83.2649 65.1655H83.3146L84.9339 60.5455H85.6193ZM88.8659 66.1136C88.3569 66.1136 87.9166 65.9953 87.5449 65.7585C87.1732 65.5194 86.8856 65.1892 86.682 64.7678C86.4808 64.344 86.3801 63.8563 86.3801 63.3047C86.3801 62.7554 86.4808 62.2678 86.682 61.8416C86.8856 61.4131 87.1661 61.0781 87.5236 60.8366C87.8835 60.5928 88.2989 60.4709 88.7701 60.4709C89.066 60.4709 89.3513 60.5253 89.6259 60.6342C89.9005 60.7408 90.1467 60.9053 90.3645 61.1278C90.5847 61.348 90.7587 61.6262 90.8865 61.9624C91.0144 62.2962 91.0783 62.6915 91.0783 63.1484V63.4609H86.8169V62.9034H90.432C90.432 62.553 90.361 62.2382 90.2189 61.9588C90.0792 61.6771 89.8839 61.4545 89.633 61.2912C89.3844 61.1278 89.0968 61.0462 88.7701 61.0462C88.4244 61.0462 88.1202 61.1385 87.8574 61.3232C87.5946 61.5078 87.3887 61.7517 87.2395 62.0547C87.0927 62.3577 87.0182 62.6892 87.0158 63.049V63.3828C87.0158 63.8161 87.0904 64.1948 87.2395 64.5192C87.391 64.8411 87.6053 65.0909 87.8823 65.2685C88.1593 65.446 88.4872 65.5348 88.8659 65.5348C89.124 65.5348 89.3501 65.4946 89.5442 65.4141C89.7407 65.3336 89.9052 65.2259 90.0378 65.0909C90.1728 64.9536 90.2746 64.8033 90.3432 64.6399L90.9434 64.8352C90.8605 65.0649 90.7244 65.2768 90.535 65.4709C90.348 65.665 90.1136 65.8213 89.8319 65.9396C89.5525 66.0556 89.2305 66.1136 88.8659 66.1136ZM92.4712 66V60.5455H93.0856V61.3835H93.1317C93.2406 61.1089 93.43 60.8875 93.6999 60.7195C93.9722 60.549 94.2799 60.4638 94.6232 60.4638C94.6753 60.4638 94.7333 60.465 94.7972 60.4673C94.8612 60.4697 94.9144 60.4721 94.957 60.4744V61.1172C94.9286 61.1125 94.8789 61.1054 94.8079 61.0959C94.7369 61.0864 94.6599 61.0817 94.5771 61.0817C94.293 61.0817 94.0397 61.142 93.8171 61.2628C93.5969 61.3812 93.4229 61.5457 93.2951 61.7564C93.1673 61.9671 93.1033 62.2074 93.1033 62.4773V66H92.4712ZM96.642 68.0455C96.5166 68.0455 96.3994 68.0336 96.2905 68.0099C96.1816 67.9863 96.0952 67.9602 96.0312 67.9318L96.2017 67.3743C96.4171 67.4406 96.6089 67.4643 96.777 67.4453C96.9451 67.4287 97.0942 67.353 97.2244 67.218C97.3546 67.0855 97.4706 66.8819 97.5724 66.6072L97.7713 66.0533L95.7649 60.5455H96.4503L98.0696 65.1655H98.1193L99.7386 60.5455H100.424L98.1158 66.8629C98.0187 67.1257 97.8991 67.3447 97.7571 67.5199C97.6151 67.6974 97.4505 67.8288 97.2635 67.9141C97.0788 68.0017 96.8717 68.0455 96.642 68.0455ZM30.1244 78.1136C29.6367 78.1136 29.2117 77.9917 28.8495 77.7479C28.4897 77.504 28.2103 77.1702 28.0115 76.7464C27.8126 76.3227 27.7132 75.8397 27.7132 75.2976C27.7132 74.7507 27.8138 74.2642 28.015 73.8381C28.2186 73.4119 28.5003 73.0781 28.8602 72.8366C29.22 72.5928 29.6379 72.4709 30.1137 72.4709C30.4783 72.4709 30.8086 72.5419 31.1045 72.6839C31.4004 72.8236 31.6443 73.0213 31.836 73.277C32.0302 73.5303 32.1521 73.8262 32.2018 74.1648H31.5626C31.4963 73.857 31.3365 73.5942 31.0832 73.3764C30.8322 73.1562 30.5126 73.0462 30.1244 73.0462C29.7764 73.0462 29.4686 73.1409 29.2011 73.3303C28.9336 73.5173 28.724 73.7789 28.5725 74.1151C28.4234 74.4489 28.3488 74.8359 28.3488 75.2763C28.3488 75.719 28.4222 76.1108 28.569 76.4517C28.7158 76.7902 28.9217 77.0554 29.1869 77.2472C29.4544 77.4389 29.7669 77.5348 30.1244 77.5348C30.3659 77.5348 30.586 77.4898 30.7849 77.3999C30.9861 77.3075 31.1542 77.1773 31.2892 77.0092C31.4265 76.8411 31.5188 76.6411 31.5661 76.4091H32.2053C32.158 76.7382 32.0408 77.0317 31.8538 77.2898C31.6691 77.5455 31.4288 77.7467 31.1329 77.8935C30.8393 78.0402 30.5032 78.1136 30.1244 78.1136ZM35.6801 78.1136C35.209 78.1136 34.7923 77.9941 34.4301 77.755C34.0703 77.5159 33.7886 77.1856 33.585 76.7642C33.3814 76.3404 33.2796 75.8516 33.2796 75.2976C33.2796 74.7389 33.3814 74.2476 33.585 73.8239C33.7886 73.3977 34.0703 73.0663 34.4301 72.8295C34.7923 72.5904 35.209 72.4709 35.6801 72.4709C36.1512 72.4709 36.5667 72.5904 36.9266 72.8295C37.2864 73.0687 37.5682 73.4001 37.7718 73.8239C37.9777 74.2476 38.0807 74.7389 38.0807 75.2976C38.0807 75.8516 37.9789 76.3404 37.7753 76.7642C37.5717 77.1856 37.2888 77.5159 36.9266 77.755C36.5667 77.9941 36.1512 78.1136 35.6801 78.1136ZM35.6801 77.5348C36.0589 77.5348 36.3797 77.433 36.6425 77.2294C36.9053 77.0258 37.1041 76.7547 37.2391 76.4162C37.3764 76.0777 37.445 75.7048 37.445 75.2976C37.445 74.8904 37.3764 74.5163 37.2391 74.1754C37.1041 73.8345 36.9053 73.5611 36.6425 73.3551C36.3797 73.1491 36.0589 73.0462 35.6801 73.0462C35.3037 73.0462 34.9829 73.1491 34.7178 73.3551C34.455 73.5611 34.2549 73.8345 34.1176 74.1754C33.9827 74.5163 33.9152 74.8904 33.9152 75.2976C33.9152 75.7048 33.9827 76.0777 34.1176 76.4162C34.2549 76.7547 34.455 77.0258 34.7178 77.2294C34.9806 77.433 35.3013 77.5348 35.6801 77.5348ZM40.1004 74.5909V78H39.4683V72.5455H40.0827V73.4013H40.1395C40.2673 73.1219 40.4662 72.8982 40.7361 72.7301C41.0083 72.5597 41.3445 72.4744 41.7446 72.4744C42.1115 72.4744 42.4335 72.5514 42.7105 72.7053C42.9898 72.8568 43.2065 73.0805 43.3604 73.3764C43.5166 73.6723 43.5947 74.0357 43.5947 74.4666V78H42.9626V74.5057C42.9626 74.0582 42.8372 73.7043 42.5862 73.4439C42.3376 73.1835 42.0038 73.0533 41.5848 73.0533C41.2983 73.0533 41.0438 73.1148 40.8213 73.2379C40.5988 73.361 40.4224 73.5386 40.2922 73.7706C40.1643 74.0002 40.1004 74.2737 40.1004 74.5909ZM49.2863 72.5455L47.2941 78H46.6194L44.6272 72.5455H45.3126L46.9319 77.1655H46.9816L48.6009 72.5455H49.2863ZM52.5329 78.1136C52.0239 78.1136 51.5836 77.9953 51.2119 77.7585C50.8402 77.5194 50.5526 77.1892 50.349 76.7678C50.1478 76.344 50.0471 75.8563 50.0471 75.3047C50.0471 74.7554 50.1478 74.2678 50.349 73.8416C50.5526 73.4131 50.8331 73.0781 51.1906 72.8366C51.5505 72.5928 51.9659 72.4709 52.4371 72.4709C52.733 72.4709 53.0183 72.5253 53.2929 72.6342C53.5675 72.7408 53.8137 72.9053 54.0315 73.1278C54.2517 73.348 54.4257 73.6262 54.5535 73.9624C54.6814 74.2962 54.7453 74.6915 54.7453 75.1484V75.4609H50.4839V74.9034H54.099C54.099 74.553 54.028 74.2382 53.8859 73.9588C53.7462 73.6771 53.5509 73.4545 53.3 73.2912C53.0514 73.1278 52.7638 73.0462 52.4371 73.0462C52.0914 73.0462 51.7872 73.1385 51.5244 73.3232C51.2616 73.5078 51.0557 73.7517 50.9065 74.0547C50.7597 74.3577 50.6852 74.6892 50.6828 75.049V75.3828C50.6828 75.8161 50.7574 76.1948 50.9065 76.5192C51.058 76.8411 51.2723 77.0909 51.5493 77.2685C51.8263 77.446 52.1541 77.5348 52.5329 77.5348C52.791 77.5348 53.0171 77.4946 53.2112 77.4141C53.4077 77.3336 53.5722 77.2259 53.7048 77.0909C53.8398 76.9536 53.9416 76.8033 54.0102 76.6399L54.6104 76.8352C54.5275 77.0649 54.3914 77.2768 54.202 77.4709C54.0149 77.665 53.7806 77.8213 53.4988 77.9396C53.2195 78.0556 52.8975 78.1136 52.5329 78.1136ZM56.7703 74.5909V78H56.1382V72.5455H56.7526V73.4013H56.8094C56.9372 73.1219 57.1361 72.8982 57.406 72.7301C57.6782 72.5597 58.0144 72.4744 58.4145 72.4744C58.7815 72.4744 59.1034 72.5514 59.3804 72.7053C59.6598 72.8568 59.8764 73.0805 60.0303 73.3764C60.1865 73.6723 60.2646 74.0357 60.2646 74.4666V78H59.6325V74.5057C59.6325 74.0582 59.5071 73.7043 59.2561 73.4439C59.0075 73.1835 58.6737 73.0533 58.2547 73.0533C57.9682 73.0533 57.7137 73.1148 57.4912 73.2379C57.2687 73.361 57.0923 73.5386 56.9621 73.7706C56.8343 74.0002 56.7703 74.2737 56.7703 74.5909ZM61.9363 78V72.5455H62.572V78H61.9363ZM62.2595 71.608C62.1293 71.608 62.018 71.5642 61.9257 71.4766C61.8334 71.3866 61.7872 71.2789 61.7872 71.1534C61.7872 71.0279 61.8334 70.9214 61.9257 70.8338C62.018 70.7438 62.1293 70.6989 62.2595 70.6989C62.3897 70.6989 62.501 70.7438 62.5933 70.8338C62.6856 70.9214 62.7318 71.0279 62.7318 71.1534C62.7318 71.2789 62.6856 71.3866 62.5933 71.4766C62.501 71.5642 62.3897 71.608 62.2595 71.608ZM66.449 78.1136C65.94 78.1136 65.4996 77.9953 65.1279 77.7585C64.7562 77.5194 64.4686 77.1892 64.265 76.7678C64.0638 76.344 63.9632 75.8563 63.9632 75.3047C63.9632 74.7554 64.0638 74.2678 64.265 73.8416C64.4686 73.4131 64.7491 73.0781 65.1066 72.8366C65.4665 72.5928 65.882 72.4709 66.3531 72.4709C66.649 72.4709 66.9343 72.5253 67.2089 72.6342C67.4835 72.7408 67.7297 72.9053 67.9475 73.1278C68.1677 73.348 68.3417 73.6262 68.4695 73.9624C68.5974 74.2962 68.6613 74.6915 68.6613 75.1484V75.4609H64.3999V74.9034H68.015C68.015 74.553 67.944 74.2382 67.8019 73.9588C67.6623 73.6771 67.4669 73.4545 67.216 73.2912C66.9674 73.1278 66.6798 73.0462 66.3531 73.0462C66.0074 73.0462 65.7032 73.1385 65.4404 73.3232C65.1776 73.5078 64.9717 73.7517 64.8225 74.0547C64.6758 74.3577 64.6012 74.6892 64.5988 75.049V75.3828C64.5988 75.8161 64.6734 76.1948 64.8225 76.5192C64.974 76.8411 65.1883 77.0909 65.4653 77.2685C65.7423 77.446 66.0702 77.5348 66.449 77.5348C66.707 77.5348 66.9331 77.4946 67.1272 77.4141C67.3237 77.3336 67.4883 77.2259 67.6208 77.0909C67.7558 76.9536 67.8576 76.8033 67.9262 76.6399L68.5264 76.8352C68.4435 77.0649 68.3074 77.2768 68.118 77.4709C67.931 77.665 67.6966 77.8213 67.4149 77.9396C67.1355 78.0556 66.8135 78.1136 66.449 78.1136ZM70.6863 74.5909V78H70.0542V72.5455H70.6686V73.4013H70.7254C70.8532 73.1219 71.0521 72.8982 71.322 72.7301C71.5943 72.5597 71.9304 72.4744 72.3305 72.4744C72.6975 72.4744 73.0194 72.5514 73.2964 72.7053C73.5758 72.8568 73.7924 73.0805 73.9463 73.3764C74.1025 73.6723 74.1807 74.0357 74.1807 74.4666V78H73.5486V74.5057C73.5486 74.0582 73.4231 73.7043 73.1721 73.4439C72.9236 73.1835 72.5898 73.0533 72.1707 73.0533C71.8843 73.0533 71.6298 73.1148 71.4072 73.2379C71.1847 73.361 71.0083 73.5386 70.8781 73.7706C70.7503 74.0002 70.6863 74.2737 70.6863 74.5909ZM77.9937 72.5455V73.0959H75.3907V72.5455H77.9937ZM76.2039 71.2386H76.8396V76.576C76.8396 76.8033 76.8786 76.982 76.9568 77.1122C77.0349 77.2401 77.1367 77.3312 77.2622 77.3857C77.3876 77.4377 77.5214 77.4638 77.6634 77.4638C77.7463 77.4638 77.8173 77.459 77.8765 77.4496C77.9357 77.4377 77.9878 77.4259 78.0328 77.4141L78.1677 77.9858C78.1061 78.0095 78.0304 78.0308 77.9404 78.0497C77.8505 78.071 77.7392 78.0817 77.6066 78.0817C77.3746 78.0817 77.1509 78.0308 76.9355 77.929C76.7224 77.8272 76.5472 77.6757 76.4099 77.4744C76.2726 77.2732 76.2039 77.0234 76.2039 76.7251V71.2386ZM84.3902 72.5455V73.0959H81.7872V72.5455H84.3902ZM82.6004 71.2386H83.2361V76.576C83.2361 76.8033 83.2751 76.982 83.3532 77.1122C83.4314 77.2401 83.5332 77.3312 83.6586 77.3857C83.7841 77.4377 83.9179 77.4638 84.0599 77.4638C84.1428 77.4638 84.2138 77.459 84.273 77.4496C84.3322 77.4377 84.3843 77.4259 84.4292 77.4141L84.5642 77.9858C84.5026 78.0095 84.4269 78.0308 84.3369 78.0497C84.247 78.071 84.1357 78.0817 84.0031 78.0817C83.7711 78.0817 83.5474 78.0308 83.3319 77.929C83.1189 77.8272 82.9437 77.6757 82.8064 77.4744C82.6691 77.2732 82.6004 77.0234 82.6004 76.7251V71.2386ZM87.8872 78.1136C87.416 78.1136 86.9994 77.9941 86.6372 77.755C86.2773 77.5159 85.9956 77.1856 85.792 76.7642C85.5884 76.3404 85.4866 75.8516 85.4866 75.2976C85.4866 74.7389 85.5884 74.2476 85.792 73.8239C85.9956 73.3977 86.2773 73.0663 86.6372 72.8295C86.9994 72.5904 87.416 72.4709 87.8872 72.4709C88.3583 72.4709 88.7738 72.5904 89.1336 72.8295C89.4935 73.0687 89.7752 73.4001 89.9788 73.8239C90.1847 74.2476 90.2877 74.7389 90.2877 75.2976C90.2877 75.8516 90.1859 76.3404 89.9823 76.7642C89.7787 77.1856 89.4958 77.5159 89.1336 77.755C88.7738 77.9941 88.3583 78.1136 87.8872 78.1136ZM87.8872 77.5348C88.266 77.5348 88.5867 77.433 88.8495 77.2294C89.1123 77.0258 89.3112 76.7547 89.4461 76.4162C89.5834 76.0777 89.6521 75.7048 89.6521 75.2976C89.6521 74.8904 89.5834 74.5163 89.4461 74.1754C89.3112 73.8345 89.1123 73.5611 88.8495 73.3551C88.5867 73.1491 88.266 73.0462 87.8872 73.0462C87.5107 73.0462 87.19 73.1491 86.9248 73.3551C86.662 73.5611 86.462 73.8345 86.3247 74.1754C86.1897 74.5163 86.1222 74.8904 86.1222 75.2976C86.1222 75.7048 86.1897 76.0777 86.3247 76.4162C86.462 76.7547 86.662 77.0258 86.9248 77.2294C87.1876 77.433 87.5084 77.5348 87.8872 77.5348ZM20.8617 90.1136C20.374 90.1136 19.949 89.9917 19.5868 89.7479C19.227 89.504 18.9476 89.1702 18.7488 88.7464C18.5499 88.3227 18.4505 87.8397 18.4505 87.2976C18.4505 86.7507 18.5511 86.2642 18.7523 85.8381C18.9559 85.4119 19.2376 85.0781 19.5975 84.8366C19.9573 84.5928 20.3752 84.4709 20.851 84.4709C21.2156 84.4709 21.5459 84.5419 21.8418 84.6839C22.1377 84.8236 22.3816 85.0213 22.5733 85.277C22.7675 85.5303 22.8894 85.8262 22.9391 86.1648H22.2999C22.2336 85.857 22.0738 85.5942 21.8205 85.3764C21.5695 85.1562 21.2499 85.0462 20.8617 85.0462C20.5137 85.0462 20.2059 85.1409 19.9384 85.3303C19.6709 85.5173 19.4614 85.7789 19.3098 86.1151C19.1607 86.4489 19.0861 86.8359 19.0861 87.2763C19.0861 87.719 19.1595 88.1108 19.3063 88.4517C19.4531 88.7902 19.659 89.0554 19.9242 89.2472C20.1917 89.4389 20.5042 89.5348 20.8617 89.5348C21.1032 89.5348 21.3233 89.4898 21.5222 89.3999C21.7234 89.3075 21.8915 89.1773 22.0265 89.0092C22.1638 88.8411 22.2561 88.6411 22.3034 88.4091H22.9426C22.8953 88.7382 22.7781 89.0317 22.5911 89.2898C22.4064 89.5455 22.1661 89.7467 21.8702 89.8935C21.5766 90.0402 21.2405 90.1136 20.8617 90.1136ZM26.4174 90.1136C25.9463 90.1136 25.5297 89.9941 25.1674 89.755C24.8076 89.5159 24.5259 89.1856 24.3223 88.7642C24.1187 88.3404 24.0169 87.8516 24.0169 87.2976C24.0169 86.7389 24.1187 86.2476 24.3223 85.8239C24.5259 85.3977 24.8076 85.0663 25.1674 84.8295C25.5297 84.5904 25.9463 84.4709 26.4174 84.4709C26.8886 84.4709 27.304 84.5904 27.6639 84.8295C28.0237 85.0687 28.3055 85.4001 28.5091 85.8239C28.715 86.2476 28.818 86.7389 28.818 87.2976C28.818 87.8516 28.7162 88.3404 28.5126 88.7642C28.309 89.1856 28.0261 89.5159 27.6639 89.755C27.304 89.9941 26.8886 90.1136 26.4174 90.1136ZM26.4174 89.5348C26.7962 89.5348 27.117 89.433 27.3798 89.2294C27.6426 89.0258 27.8414 88.7547 27.9764 88.4162C28.1137 88.0777 28.1824 87.7048 28.1824 87.2976C28.1824 86.8904 28.1137 86.5163 27.9764 86.1754C27.8414 85.8345 27.6426 85.5611 27.3798 85.3551C27.117 85.1491 26.7962 85.0462 26.4174 85.0462C26.041 85.0462 25.7202 85.1491 25.4551 85.3551C25.1923 85.5611 24.9922 85.8345 24.8549 86.1754C24.72 86.5163 24.6525 86.8904 24.6525 87.2976C24.6525 87.7048 24.72 88.0777 24.8549 88.4162C24.9922 88.7547 25.1923 89.0258 25.4551 89.2294C25.7179 89.433 26.0386 89.5348 26.4174 89.5348ZM30.2056 90V84.5455H30.82V85.3835H30.8768C30.9857 85.1018 31.1668 84.8804 31.4201 84.7195C31.6758 84.5561 31.9824 84.4744 32.3398 84.4744C32.7163 84.4744 33.0252 84.5632 33.2667 84.7408C33.5105 84.916 33.6928 85.1574 33.8136 85.4652H33.8597C33.9828 85.1622 34.1829 84.9219 34.4599 84.7443C34.7392 84.5644 35.0778 84.4744 35.4755 84.4744C35.9821 84.4744 36.3822 84.6342 36.6758 84.9538C36.9693 85.2711 37.1161 85.7351 37.1161 86.3459V90H36.484V86.3459C36.484 85.915 36.3739 85.5919 36.1538 85.3764C35.9336 85.161 35.6436 85.0533 35.2837 85.0533C34.8671 85.0533 34.5463 85.1811 34.3214 85.4368C34.0965 85.6925 33.984 86.0168 33.984 86.4098V90H33.3377V86.2891C33.3377 85.9197 33.2347 85.6214 33.0288 85.3942C32.8228 85.1669 32.5328 85.0533 32.1587 85.0533C31.9078 85.0533 31.6817 85.1148 31.4805 85.2379C31.2816 85.361 31.1242 85.5327 31.0082 85.7528C30.8945 85.9706 30.8377 86.2216 30.8377 86.5057V90H30.2056ZM38.7896 92.0455V84.5455H39.4039V85.5859H39.4785C39.5543 85.4226 39.6584 85.2557 39.791 85.0852C39.9236 84.9124 40.0988 84.7668 40.3166 84.6484C40.5368 84.5301 40.8137 84.4709 41.1475 84.4709C41.5974 84.4709 41.9904 84.5893 42.3265 84.826C42.6651 85.0604 42.9279 85.3894 43.1149 85.8132C43.3043 86.2346 43.399 86.7259 43.399 87.2869C43.399 87.8504 43.3043 88.344 43.1149 88.7678C42.9279 89.1915 42.6651 89.5218 42.3265 89.7585C41.9904 89.9953 41.5997 90.1136 41.1547 90.1136C40.8256 90.1136 40.5498 90.0545 40.3272 89.9361C40.1071 89.8177 39.9283 89.6721 39.791 89.4993C39.6561 89.3241 39.5519 89.1536 39.4785 88.9879H39.4217V92.0455H38.7896ZM39.4146 87.2763C39.4146 87.7166 39.4797 88.1072 39.6099 88.4482C39.7425 88.7867 39.9319 89.053 40.1781 89.2472C40.4267 89.4389 40.7273 89.5348 41.0801 89.5348C41.4423 89.5348 41.7477 89.4354 41.9963 89.2365C42.2472 89.0353 42.4378 88.7642 42.568 88.4233C42.7006 88.0824 42.7669 87.7 42.7669 87.2763C42.7669 86.8572 42.7018 86.4796 42.5716 86.1435C42.4437 85.8073 42.2543 85.541 42.0034 85.3445C41.7524 85.1456 41.4447 85.0462 41.0801 85.0462C40.725 85.0462 40.4231 85.142 40.1745 85.3338C39.926 85.5232 39.7366 85.786 39.6064 86.1222C39.4785 86.456 39.4146 86.8407 39.4146 87.2763ZM45.4178 82.7273V90H44.7857V82.7273H45.4178ZM49.2956 90.1136C48.7866 90.1136 48.3463 89.9953 47.9746 89.7585C47.6029 89.5194 47.3153 89.1892 47.1117 88.7678C46.9105 88.344 46.8098 87.8563 46.8098 87.3047C46.8098 86.7554 46.9105 86.2678 47.1117 85.8416C47.3153 85.4131 47.5958 85.0781 47.9533 84.8366C48.3132 84.5928 48.7286 84.4709 49.1998 84.4709C49.4957 84.4709 49.781 84.5253 50.0556 84.6342C50.3302 84.7408 50.5764 84.9053 50.7942 85.1278C51.0144 85.348 51.1884 85.6262 51.3162 85.9624C51.4441 86.2962 51.508 86.6915 51.508 87.1484V87.4609H47.2466V86.9034H50.8617C50.8617 86.553 50.7907 86.2382 50.6486 85.9588C50.5089 85.6771 50.3136 85.4545 50.0627 85.2912C49.8141 85.1278 49.5265 85.0462 49.1998 85.0462C48.8541 85.0462 48.5499 85.1385 48.2871 85.3232C48.0243 85.5078 47.8184 85.7517 47.6692 86.0547C47.5224 86.3577 47.4479 86.6892 47.4455 87.049V87.3828C47.4455 87.8161 47.5201 88.1948 47.6692 88.5192C47.8207 88.8411 48.035 89.0909 48.312 89.2685C48.589 89.446 48.9168 89.5348 49.2956 89.5348C49.5537 89.5348 49.7798 89.4946 49.9739 89.4141C50.1704 89.3336 50.3349 89.2259 50.4675 89.0909C50.6025 88.9536 50.7042 88.8033 50.7729 88.6399L51.373 88.8352C51.2902 89.0649 51.1541 89.2768 50.9647 89.4709C50.7776 89.665 50.5433 89.8213 50.2615 89.9396C49.9822 90.0556 49.6602 90.1136 49.2956 90.1136ZM55.0494 84.5455V85.0959H52.4464V84.5455H55.0494ZM53.2596 83.2386H53.8952V88.576C53.8952 88.8033 53.9343 88.982 54.0124 89.1122C54.0906 89.2401 54.1924 89.3312 54.3178 89.3857C54.4433 89.4377 54.5771 89.4638 54.7191 89.4638C54.802 89.4638 54.873 89.459 54.9322 89.4496C54.9914 89.4377 55.0434 89.4259 55.0884 89.4141L55.2234 89.9858C55.1618 90.0095 55.0861 90.0308 54.9961 90.0497C54.9061 90.071 54.7949 90.0817 54.6623 90.0817C54.4303 90.0817 54.2066 90.0308 53.9911 89.929C53.7781 89.8272 53.6029 89.6757 53.4656 89.4744C53.3282 89.2732 53.2596 89.0234 53.2596 88.7251V83.2386ZM58.6316 90.1136C58.1226 90.1136 57.6822 89.9953 57.3105 89.7585C56.9389 89.5194 56.6512 89.1892 56.4476 88.7678C56.2464 88.344 56.1458 87.8563 56.1458 87.3047C56.1458 86.7554 56.2464 86.2678 56.4476 85.8416C56.6512 85.4131 56.9318 85.0781 57.2892 84.8366C57.6491 84.5928 58.0646 84.4709 58.5357 84.4709C58.8316 84.4709 59.1169 84.5253 59.3915 84.6342C59.6661 84.7408 59.9123 84.9053 60.1301 85.1278C60.3503 85.348 60.5243 85.6262 60.6522 85.9624C60.78 86.2962 60.8439 86.6915 60.8439 87.1484V87.4609H56.5826V86.9034H60.1976C60.1976 86.553 60.1266 86.2382 59.9846 85.9588C59.8449 85.6771 59.6496 85.4545 59.3986 85.2912C59.15 85.1278 58.8624 85.0462 58.5357 85.0462C58.19 85.0462 57.8858 85.1385 57.623 85.3232C57.3603 85.5078 57.1543 85.7517 57.0051 86.0547C56.8584 86.3577 56.7838 86.6892 56.7814 87.049V87.3828C56.7814 87.8161 56.856 88.1948 57.0051 88.5192C57.1567 88.8411 57.3709 89.0909 57.6479 89.2685C57.9249 89.446 58.2528 89.5348 58.6316 89.5348C58.8896 89.5348 59.1157 89.4946 59.3098 89.4141C59.5063 89.3336 59.6709 89.2259 59.8034 89.0909C59.9384 88.9536 60.0402 88.8033 60.1088 88.6399L60.709 88.8352C60.6261 89.0649 60.49 89.2768 60.3006 89.4709C60.1136 89.665 59.8792 89.8213 59.5975 89.9396C59.3181 90.0556 58.9962 90.1136 58.6316 90.1136ZM67.1978 84.5455V85.0959H64.5948V84.5455H67.1978ZM65.408 83.2386H66.0437V88.576C66.0437 88.8033 66.0827 88.982 66.1609 89.1122C66.239 89.2401 66.3408 89.3312 66.4663 89.3857C66.5917 89.4377 66.7255 89.4638 66.8675 89.4638C66.9504 89.4638 67.0214 89.459 67.0806 89.4496C67.1398 89.4377 67.1919 89.4259 67.2369 89.4141L67.3718 89.9858C67.3103 90.0095 67.2345 90.0308 67.1445 90.0497C67.0546 90.071 66.9433 90.0817 66.8107 90.0817C66.5787 90.0817 66.355 90.0308 66.1396 89.929C65.9265 89.8272 65.7513 89.6757 65.614 89.4744C65.4767 89.2732 65.408 89.0234 65.408 88.7251V83.2386ZM69.3826 86.5909V90H68.7505V82.7273H69.3826V85.4013H69.4395C69.5673 85.1196 69.765 84.8946 70.0325 84.7266C70.3024 84.5585 70.6433 84.4744 71.0552 84.4744C71.4245 84.4744 71.7489 84.5502 72.0282 84.7017C72.3076 84.8532 72.5254 85.0769 72.6816 85.3729C72.8379 85.6688 72.916 86.0334 72.916 86.4666V90H72.2804V86.5057C72.2804 86.0559 72.1549 85.7019 71.9039 85.4439C71.6554 85.1835 71.3192 85.0533 70.8954 85.0533C70.6042 85.0533 70.345 85.1148 70.1177 85.2379C69.8904 85.361 69.7105 85.5386 69.5779 85.7706C69.4477 86.0002 69.3826 86.2737 69.3826 86.5909ZM76.7859 90.1136C76.2769 90.1136 75.8365 89.9953 75.4648 89.7585C75.0932 89.5194 74.8055 89.1892 74.6019 88.7678C74.4007 88.344 74.3001 87.8563 74.3001 87.3047C74.3001 86.7554 74.4007 86.2678 74.6019 85.8416C74.8055 85.4131 75.0861 85.0781 75.4435 84.8366C75.8034 84.5928 76.2189 84.4709 76.69 84.4709C76.9859 84.4709 77.2712 84.5253 77.5458 84.6342C77.8204 84.7408 78.0666 84.9053 78.2844 85.1278C78.5046 85.348 78.6786 85.6262 78.8065 85.9624C78.9343 86.2962 78.9982 86.6915 78.9982 87.1484V87.4609H74.7369V86.9034H78.3519C78.3519 86.553 78.2809 86.2382 78.1388 85.9588C77.9992 85.6771 77.8039 85.4545 77.5529 85.2912C77.3043 85.1278 77.0167 85.0462 76.69 85.0462C76.3443 85.0462 76.0401 85.1385 75.7773 85.3232C75.5146 85.5078 75.3086 85.7517 75.1594 86.0547C75.0127 86.3577 74.9381 86.6892 74.9357 87.049V87.3828C74.9357 87.8161 75.0103 88.1948 75.1594 88.5192C75.311 88.8411 75.5252 89.0909 75.8022 89.2685C76.0792 89.446 76.4071 89.5348 76.7859 89.5348C77.0439 89.5348 77.27 89.4946 77.4641 89.4141C77.6606 89.3336 77.8252 89.2259 77.9577 89.0909C78.0927 88.9536 78.1945 88.8033 78.2631 88.6399L78.8633 88.8352C78.7804 89.0649 78.6443 89.2768 78.4549 89.4709C78.2679 89.665 78.0335 89.8213 77.7518 89.9396C77.4724 90.0556 77.1504 90.1136 76.7859 90.1136ZM80.3912 90V84.5455H81.0055V85.3835H81.0623C81.1712 85.1018 81.3523 84.8804 81.6056 84.7195C81.8613 84.5561 82.1679 84.4744 82.5254 84.4744C82.9018 84.4744 83.2108 84.5632 83.4522 84.7408C83.6961 84.916 83.8784 85.1574 83.9991 85.4652H84.0453C84.1684 85.1622 84.3684 84.9219 84.6454 84.7443C84.9248 84.5644 85.2633 84.4744 85.661 84.4744C86.1677 84.4744 86.5678 84.6342 86.8613 84.9538C87.1549 85.2711 87.3017 85.7351 87.3017 86.3459V90H86.6696V86.3459C86.6696 85.915 86.5595 85.5919 86.3393 85.3764C86.1191 85.161 85.8291 85.0533 85.4693 85.0533C85.0526 85.0533 84.7318 85.1811 84.5069 85.4368C84.282 85.6925 84.1696 86.0168 84.1696 86.4098V90H83.5233V86.2891C83.5233 85.9197 83.4203 85.6214 83.2143 85.3942C83.0083 85.1669 82.7183 85.0533 82.3443 85.0533C82.0933 85.0533 81.8672 85.1148 81.666 85.2379C81.4672 85.361 81.3097 85.5327 81.1937 85.7528C81.0801 85.9706 81.0233 86.2216 81.0233 86.5057V90H80.3912ZM93.3111 90.1243C92.982 90.1243 92.6813 90.0604 92.4091 89.9325C92.1368 89.8023 91.9202 89.6153 91.7592 89.3714C91.5982 89.1252 91.5178 88.8269 91.5178 88.4766C91.5178 88.2067 91.5687 87.9794 91.6705 87.7947C91.7723 87.6101 91.9167 87.4586 92.1037 87.3402C92.2907 87.2218 92.5121 87.1283 92.7678 87.0597C93.0234 86.991 93.3052 86.9377 93.6129 86.8999C93.9183 86.862 94.1764 86.8288 94.3871 86.8004C94.6001 86.772 94.7623 86.727 94.8736 86.6655C94.9848 86.6039 95.0405 86.5045 95.0405 86.3672V86.2393C95.0405 85.8677 94.9292 85.5753 94.7067 85.3622C94.4865 85.1468 94.1693 85.0391 93.755 85.0391C93.362 85.0391 93.0412 85.1255 92.7926 85.2983C92.5464 85.4711 92.3736 85.6747 92.2741 85.9091L91.674 85.6925C91.7971 85.3942 91.9676 85.1562 92.1854 84.9787C92.4032 84.7988 92.647 84.6697 92.9169 84.5916C93.1868 84.5111 93.4602 84.4709 93.7372 84.4709C93.9455 84.4709 94.1622 84.4981 94.3871 84.5526C94.6143 84.607 94.825 84.7017 95.0192 84.8366C95.2133 84.9692 95.3707 85.1551 95.4915 85.3942C95.6122 85.6309 95.6726 85.9316 95.6726 86.2962V90H95.0405V89.1371H95.0014C94.9257 89.2981 94.8132 89.4543 94.6641 89.6058C94.5149 89.7573 94.3279 89.8816 94.103 89.9787C93.8781 90.0758 93.6141 90.1243 93.3111 90.1243ZM93.3963 89.5455C93.7325 89.5455 94.0237 89.4709 94.2699 89.3217C94.5161 89.1726 94.7055 88.9749 94.8381 88.7287C94.973 88.4801 95.0405 88.2067 95.0405 87.9084V87.12C94.9931 87.165 94.9138 87.2053 94.8026 87.2408C94.6937 87.2763 94.567 87.3082 94.4226 87.3366C94.2805 87.3627 94.1385 87.3852 93.9964 87.4041C93.8544 87.4231 93.7266 87.4396 93.6129 87.4538C93.3052 87.4917 93.0424 87.5509 92.8246 87.6314C92.6068 87.7119 92.4399 87.8232 92.3239 87.9652C92.2079 88.1049 92.1499 88.2848 92.1499 88.505C92.1499 88.8364 92.2682 89.0933 92.505 89.2756C92.7417 89.4555 93.0388 89.5455 93.3963 89.5455ZM99.5025 84.5455V85.0959H96.8995V84.5455H99.5025ZM97.7127 83.2386H98.3484V88.576C98.3484 88.8033 98.3874 88.982 98.4656 89.1122C98.5437 89.2401 98.6455 89.3312 98.771 89.3857C98.8964 89.4377 99.0302 89.4638 99.1722 89.4638C99.2551 89.4638 99.3261 89.459 99.3853 89.4496C99.4445 89.4377 99.4966 89.4259 99.5415 89.4141L99.6765 89.9858C99.6149 90.0095 99.5392 90.0308 99.4492 90.0497C99.3593 90.071 99.248 90.0817 99.1154 90.0817C98.8834 90.0817 98.6597 90.0308 98.4442 89.929C98.2312 89.8272 98.056 89.6757 97.9187 89.4744C97.7814 89.2732 97.7127 89.0234 97.7127 88.7251V83.2386ZM47.4002 98.5909V102H46.7681V94.7273H47.4002V97.4013H47.457C47.5849 97.1196 47.7826 96.8946 48.0501 96.7266C48.32 96.5585 48.6609 96.4744 49.0728 96.4744C49.4421 96.4744 49.7665 96.5502 50.0458 96.7017C50.3252 96.8532 50.543 97.0769 50.6992 97.3729C50.8555 97.6688 50.9336 98.0334 50.9336 98.4666V102H50.2979V98.5057C50.2979 98.0559 50.1725 97.7019 49.9215 97.4439C49.6729 97.1835 49.3368 97.0533 48.913 97.0533C48.6218 97.0533 48.3626 97.1148 48.1353 97.2379C47.908 97.361 47.7281 97.5386 47.5955 97.7706C47.4653 98.0002 47.4002 98.2737 47.4002 98.5909ZM54.7182 102.114C54.2471 102.114 53.8304 101.994 53.4682 101.755C53.1084 101.516 52.8266 101.186 52.623 100.764C52.4194 100.34 52.3176 99.8516 52.3176 99.2976C52.3176 98.7389 52.4194 98.2476 52.623 97.8239C52.8266 97.3977 53.1084 97.0663 53.4682 96.8295C53.8304 96.5904 54.2471 96.4709 54.7182 96.4709C55.1893 96.4709 55.6048 96.5904 55.9647 96.8295C56.3245 97.0687 56.6062 97.4001 56.8098 97.8239C57.0158 98.2476 57.1188 98.7389 57.1188 99.2976C57.1188 99.8516 57.017 100.34 56.8134 100.764C56.6098 101.186 56.3269 101.516 55.9647 101.755C55.6048 101.994 55.1893 102.114 54.7182 102.114ZM54.7182 101.535C55.097 101.535 55.4178 101.433 55.6806 101.229C55.9434 101.026 56.1422 100.755 56.2772 100.416C56.4145 100.078 56.4831 99.7048 56.4831 99.2976C56.4831 98.8904 56.4145 98.5163 56.2772 98.1754C56.1422 97.8345 55.9434 97.5611 55.6806 97.3551C55.4178 97.1491 55.097 97.0462 54.7182 97.0462C54.3418 97.0462 54.021 97.1491 53.7559 97.3551C53.4931 97.5611 53.293 97.8345 53.1557 98.1754C53.0208 98.5163 52.9533 98.8904 52.9533 99.2976C52.9533 99.7048 53.0208 100.078 53.1557 100.416C53.293 100.755 53.4931 101.026 53.7559 101.229C54.0186 101.433 54.3394 101.535 54.7182 101.535ZM58.5064 102V96.5455H59.1207V97.3835H59.1776C59.2865 97.1018 59.4676 96.8804 59.7209 96.7195C59.9766 96.5561 60.2831 96.4744 60.6406 96.4744C61.017 96.4744 61.326 96.5632 61.5675 96.7408C61.8113 96.916 61.9936 97.1574 62.1143 97.4652H62.1605C62.2836 97.1622 62.4837 96.9219 62.7607 96.7443C63.04 96.5644 63.3786 96.4744 63.7763 96.4744C64.2829 96.4744 64.683 96.6342 64.9766 96.9538C65.2701 97.2711 65.4169 97.7351 65.4169 98.3459V102H64.7848V98.3459C64.7848 97.915 64.6747 97.5919 64.4545 97.3764C64.2344 97.161 63.9444 97.0533 63.5845 97.0533C63.1679 97.0533 62.8471 97.1811 62.6222 97.4368C62.3973 97.6925 62.2848 98.0168 62.2848 98.4098V102H61.6385V98.2891C61.6385 97.9197 61.5355 97.6214 61.3295 97.3942C61.1236 97.1669 60.8336 97.0533 60.4595 97.0533C60.2086 97.0533 59.9825 97.1148 59.7812 97.2379C59.5824 97.361 59.425 97.5327 59.3089 97.7528C59.1953 97.9706 59.1385 98.2216 59.1385 98.5057V102H58.5064ZM69.2956 102.114C68.7866 102.114 68.3463 101.995 67.9746 101.759C67.6029 101.519 67.3153 101.189 67.1117 100.768C66.9105 100.344 66.8098 99.8563 66.8098 99.3047C66.8098 98.7554 66.9105 98.2678 67.1117 97.8416C67.3153 97.4131 67.5958 97.0781 67.9533 96.8366C68.3132 96.5928 68.7286 96.4709 69.1998 96.4709C69.4957 96.4709 69.781 96.5253 70.0556 96.6342C70.3302 96.7408 70.5764 96.9053 70.7942 97.1278C71.0144 97.348 71.1884 97.6262 71.3162 97.9624C71.4441 98.2962 71.508 98.6915 71.508 99.1484V99.4609H67.2466V98.9034H70.8617C70.8617 98.553 70.7907 98.2382 70.6486 97.9588C70.5089 97.6771 70.3136 97.4545 70.0627 97.2912C69.8141 97.1278 69.5265 97.0462 69.1998 97.0462C68.8541 97.0462 68.5499 97.1385 68.2871 97.3232C68.0243 97.5078 67.8184 97.7517 67.6692 98.0547C67.5224 98.3577 67.4479 98.6892 67.4455 99.049V99.3828C67.4455 99.8161 67.5201 100.195 67.6692 100.519C67.8207 100.841 68.035 101.091 68.312 101.268C68.589 101.446 68.9168 101.535 69.2956 101.535C69.5537 101.535 69.7798 101.495 69.9739 101.414C70.1704 101.334 70.3349 101.226 70.4675 101.091C70.6025 100.954 70.7042 100.803 70.7729 100.64L71.373 100.835C71.2902 101.065 71.1541 101.277 70.9647 101.471C70.7776 101.665 70.5433 101.821 70.2615 101.94C69.9822 102.056 69.6602 102.114 69.2956 102.114Z" fill="#333333"/>
</svg>
