<svg width="54" height="54" viewBox="0 0 54 54" fill="none" xmlns="http://www.w3.org/2000/svg">
<path d="M48.0636 11.5C47.9149 12.0475 48.2436 12.8087 48.5574 13.3575C48.6551 13.5211 48.7611 13.6797 48.8749 13.8325C51.5658 17.9134 53 22.6943 52.9999 27.5825C53.0436 41.6138 41.4087 53 27.0212 53C14.4737 53 3.99999 44.3075 1.5525 32.7687C1.1858 31.058 1.0006 29.3134 0.999999 27.5637C0.999999 13.5125 12.1862 1.9475 26.5737 1.9475C28.8612 1.9475 31.9487 2.5225 33.6324 2.99375C35.3162 3.465 36.9974 4.09 37.4312 4.2575C37.8748 4.42802 38.3459 4.51572 38.8212 4.51625C39.3403 4.51822 39.8544 4.41489 40.3324 4.2125L48.8111 1.1525C48.9969 1.07244 49.1937 1.02102 49.3949 1C49.5536 1.00048 49.7107 1.03246 49.857 1.09407C50.0033 1.15569 50.136 1.24573 50.2472 1.35897C50.3585 1.47221 50.4462 1.6064 50.5052 1.75377C50.5642 1.90114 50.5934 2.05876 50.5911 2.2175C50.5807 2.35684 50.5556 2.49469 50.5161 2.62875L48.0636 11.5Z" stroke="#C9C8D8" stroke-miterlimit="10" stroke-linecap="round"/>
<path d="M9.9676 25V19.5455H10.6032V25H9.9676ZM10.2907 18.608C10.1605 18.608 10.0493 18.5642 9.95694 18.4766C9.86461 18.3866 9.81845 18.2789 9.81845 18.1534C9.81845 18.0279 9.86461 17.9214 9.95694 17.8338C10.0493 17.7438 10.1605 17.6989 10.2907 17.6989C10.421 17.6989 10.5322 17.7438 10.6246 17.8338C10.7169 17.9214 10.7631 18.0279 10.7631 18.1534C10.7631 18.2789 10.7169 18.3866 10.6246 18.4766C10.5322 18.5642 10.421 18.608 10.2907 18.608ZM12.907 21.5909V25H12.2749V19.5455H12.8893V20.4013H12.9461C13.074 20.1219 13.2728 19.8982 13.5427 19.7301C13.815 19.5597 14.1511 19.4744 14.5512 19.4744C14.9182 19.4744 15.2401 19.5514 15.5171 19.7053C15.7965 19.8568 16.0131 20.0805 16.167 20.3764C16.3232 20.6723 16.4014 21.0357 16.4014 21.4666V25H15.7693V21.5057C15.7693 21.0582 15.6438 20.7043 15.3928 20.4439C15.1443 20.1835 14.8105 20.0533 14.3914 20.0533C14.105 20.0533 13.8505 20.1148 13.6279 20.2379C13.4054 20.361 13.229 20.5386 13.0988 20.7706C12.971 21.0002 12.907 21.2737 12.907 21.5909ZM20.2144 19.5455V20.0959H17.6114V19.5455H20.2144ZM18.4246 18.2386H19.0603V23.576C19.0603 23.8033 19.0993 23.982 19.1775 24.1122C19.2556 24.2401 19.3574 24.3312 19.4829 24.3857C19.6083 24.4377 19.7421 24.4638 19.8841 24.4638C19.967 24.4638 20.038 24.459 20.0972 24.4496C20.1564 24.4377 20.2085 24.4259 20.2535 24.4141L20.3884 24.9858C20.3269 25.0095 20.2511 25.0308 20.1611 25.0497C20.0712 25.071 19.9599 25.0817 19.8273 25.0817C19.5953 25.0817 19.3716 25.0308 19.1562 24.929C18.9431 24.8272 18.7679 24.6757 18.6306 24.4744C18.4933 24.2732 18.4246 24.0234 18.4246 23.7251V18.2386ZM25.1159 22.9155V19.5455H25.748V25H25.1159V24.0945H25.0661C24.9383 24.3738 24.7359 24.607 24.4589 24.794C24.1819 24.9787 23.8434 25.071 23.4433 25.071C23.0953 25.071 22.7863 24.9953 22.5164 24.8438C22.2465 24.6899 22.0347 24.465 21.8808 24.169C21.7269 23.8731 21.6499 23.5097 21.6499 23.0788V19.5455H22.282V23.0398C22.282 23.4659 22.4075 23.8092 22.6585 24.0696C22.9094 24.3277 23.2314 24.4567 23.6244 24.4567C23.8706 24.4567 24.1073 24.3975 24.3346 24.2791C24.5619 24.1607 24.7489 23.9879 24.8957 23.7607C25.0425 23.531 25.1159 23.2493 25.1159 22.9155ZM27.4285 25V19.5455H28.0642V25H27.4285ZM27.7517 18.608C27.6215 18.608 27.5102 18.5642 27.4179 18.4766C27.3256 18.3866 27.2794 18.2789 27.2794 18.1534C27.2794 18.0279 27.3256 17.9214 27.4179 17.8338C27.5102 17.7438 27.6215 17.6989 27.7517 17.6989C27.8819 17.6989 27.9932 17.7438 28.0855 17.8338C28.1778 17.9214 28.224 18.0279 28.224 18.1534C28.224 18.2789 28.1778 18.3866 28.0855 18.4766C27.9932 18.5642 27.8819 18.608 27.7517 18.608ZM31.8843 19.5455V20.0959H29.2813V19.5455H31.8843ZM30.0945 18.2386H30.7302V23.576C30.7302 23.8033 30.7693 23.982 30.8474 24.1122C30.9255 24.2401 31.0273 24.3312 31.1528 24.3857C31.2783 24.4377 31.412 24.4638 31.5541 24.4638C31.6369 24.4638 31.7079 24.459 31.7671 24.4496C31.8263 24.4377 31.8784 24.4259 31.9234 24.4141L32.0583 24.9858C31.9968 25.0095 31.921 25.0308 31.8311 25.0497C31.7411 25.071 31.6298 25.0817 31.4972 25.0817C31.2652 25.0817 31.0415 25.0308 30.8261 24.929C30.613 24.8272 30.4378 24.6757 30.3005 24.4744C30.1632 24.2732 30.0945 24.0234 30.0945 23.7251V18.2386ZM33.327 25V19.5455H33.9626V25H33.327ZM33.6501 18.608C33.5199 18.608 33.4086 18.5642 33.3163 18.4766C33.224 18.3866 33.1778 18.2789 33.1778 18.1534C33.1778 18.0279 33.224 17.9214 33.3163 17.8338C33.4086 17.7438 33.5199 17.6989 33.6501 17.6989C33.7803 17.6989 33.8916 17.7438 33.9839 17.8338C34.0763 17.9214 34.1224 18.0279 34.1224 18.1534C34.1224 18.2789 34.0763 18.3866 33.9839 18.4766C33.8916 18.5642 33.7803 18.608 33.6501 18.608ZM39.8566 19.5455L37.8644 25H37.1897L35.1975 19.5455H35.8829L37.5022 24.1655H37.5519L39.1713 19.5455H39.8566ZM43.1032 25.1136C42.5943 25.1136 42.1539 24.9953 41.7822 24.7585C41.4105 24.5194 41.1229 24.1892 40.9193 23.7678C40.7181 23.344 40.6175 22.8563 40.6175 22.3047C40.6175 21.7554 40.7181 21.2678 40.9193 20.8416C41.1229 20.4131 41.4034 20.0781 41.7609 19.8366C42.1208 19.5928 42.5363 19.4709 43.0074 19.4709C43.3033 19.4709 43.5886 19.5253 43.8632 19.6342C44.1378 19.7408 44.384 19.9053 44.6018 20.1278C44.822 20.348 44.996 20.6262 45.1238 20.9624C45.2517 21.2962 45.3156 21.6915 45.3156 22.1484V22.4609H41.0542V21.9034H44.6693C44.6693 21.553 44.5983 21.2382 44.4562 20.9588C44.3166 20.6771 44.1212 20.4545 43.8703 20.2912C43.6217 20.1278 43.3341 20.0462 43.0074 20.0462C42.6617 20.0462 42.3575 20.1385 42.0947 20.3232C41.8319 20.5078 41.626 20.7517 41.4768 21.0547C41.33 21.3577 41.2555 21.6892 41.2531 22.049V22.3828C41.2531 22.8161 41.3277 23.1948 41.4768 23.5192C41.6283 23.8411 41.8426 24.0909 42.1196 24.2685C42.3966 24.446 42.7245 24.5348 43.1032 24.5348C43.3613 24.5348 43.5874 24.4946 43.7815 24.4141C43.978 24.3336 44.1425 24.2259 44.2751 24.0909C44.4101 23.9536 44.5119 23.8033 44.5805 23.6399L45.1807 23.8352C45.0978 24.0649 44.9617 24.2768 44.7723 24.4709C44.5853 24.665 44.3509 24.8213 44.0692 24.9396C43.7898 25.0556 43.4678 25.1136 43.1032 25.1136ZM8.93999 39.0455V31.5455H9.55433V32.5859H9.62891C9.70466 32.4226 9.80883 32.2557 9.94141 32.0852C10.074 31.9124 10.2492 31.7668 10.467 31.6484C10.6871 31.5301 10.9641 31.4709 11.2979 31.4709C11.7478 31.4709 12.1407 31.5893 12.4769 31.826C12.8155 32.0604 13.0782 32.3894 13.2653 32.8132C13.4547 33.2346 13.5494 33.7259 13.5494 34.2869C13.5494 34.8504 13.4547 35.344 13.2653 35.7678C13.0782 36.1915 12.8155 36.5218 12.4769 36.7585C12.1407 36.9953 11.7501 37.1136 11.305 37.1136C10.976 37.1136 10.7002 37.0545 10.4776 36.9361C10.2575 36.8177 10.0787 36.6721 9.94141 36.4993C9.80646 36.3241 9.7023 36.1536 9.62891 35.9879H9.57209V39.0455H8.93999ZM9.56499 34.2763C9.56499 34.7166 9.63009 35.1072 9.7603 35.4482C9.89287 35.7867 10.0823 36.053 10.3285 36.2472C10.5771 36.4389 10.8777 36.5348 11.2305 36.5348C11.5927 36.5348 11.8981 36.4354 12.1467 36.2365C12.3976 36.0353 12.5882 35.7642 12.7184 35.4233C12.851 35.0824 12.9173 34.7 12.9173 34.2763C12.9173 33.8572 12.8522 33.4796 12.7219 33.1435C12.5941 32.8073 12.4047 32.541 12.1538 32.3445C11.9028 32.1456 11.5951 32.0462 11.2305 32.0462C10.8754 32.0462 10.5735 32.142 10.3249 32.3338C10.0763 32.5232 9.88696 32.786 9.75675 33.1222C9.62891 33.456 9.56499 33.8407 9.56499 34.2763ZM15.5682 29.7273V37H14.9361V29.7273H15.5682ZM18.7642 37.1243C18.4351 37.1243 18.1345 37.0604 17.8622 36.9325C17.59 36.8023 17.3733 36.6153 17.2124 36.3714C17.0514 36.1252 16.9709 35.8269 16.9709 35.4766C16.9709 35.2067 17.0218 34.9794 17.1236 34.7947C17.2254 34.6101 17.3698 34.4586 17.5568 34.3402C17.7438 34.2218 17.9652 34.1283 18.2209 34.0597C18.4766 33.991 18.7583 33.9377 19.0661 33.8999C19.3714 33.862 19.6295 33.8288 19.8402 33.8004C20.0533 33.772 20.2154 33.727 20.3267 33.6655C20.438 33.6039 20.4936 33.5045 20.4936 33.3672V33.2393C20.4936 32.8677 20.3823 32.5753 20.1598 32.3622C19.9396 32.1468 19.6224 32.0391 19.2081 32.0391C18.8151 32.0391 18.4943 32.1255 18.2457 32.2983C17.9995 32.4711 17.8267 32.6747 17.7273 32.9091L17.1271 32.6925C17.2502 32.3942 17.4207 32.1562 17.6385 31.9787C17.8563 31.7988 18.1001 31.6697 18.37 31.5916C18.6399 31.5111 18.9134 31.4709 19.1903 31.4709C19.3987 31.4709 19.6153 31.4981 19.8402 31.5526C20.0675 31.607 20.2782 31.7017 20.4723 31.8366C20.6664 31.9692 20.8239 32.1551 20.9446 32.3942C21.0653 32.6309 21.1257 32.9316 21.1257 33.2962V37H20.4936V36.1371H20.4545C20.3788 36.2981 20.2663 36.4543 20.1172 36.6058C19.968 36.7573 19.781 36.8816 19.5561 36.9787C19.3312 37.0758 19.0672 37.1243 18.7642 37.1243ZM18.8494 36.5455C19.1856 36.5455 19.4768 36.4709 19.723 36.3217C19.9692 36.1726 20.1586 35.9749 20.2912 35.7287C20.4261 35.4801 20.4936 35.2067 20.4936 34.9084V34.12C20.4463 34.165 20.367 34.2053 20.2557 34.2408C20.1468 34.2763 20.0201 34.3082 19.8757 34.3366C19.7337 34.3627 19.5916 34.3852 19.4496 34.4041C19.3075 34.4231 19.1797 34.4396 19.0661 34.4538C18.7583 34.4917 18.4955 34.5509 18.2777 34.6314C18.0599 34.7119 17.893 34.8232 17.777 34.9652C17.661 35.1049 17.603 35.2848 17.603 35.505C17.603 35.8364 17.7214 36.0933 17.9581 36.2756C18.1948 36.4555 18.492 36.5455 18.8494 36.5455ZM24.9556 31.5455V32.0959H22.3526V31.5455H24.9556ZM23.1658 30.2386H23.8015V35.576C23.8015 35.8033 23.8406 35.982 23.9187 36.1122C23.9968 36.2401 24.0986 36.3312 24.2241 36.3857C24.3496 36.4377 24.4833 36.4638 24.6254 36.4638C24.7082 36.4638 24.7792 36.459 24.8384 36.4496C24.8976 36.4377 24.9497 36.4259 24.9947 36.4141L25.1296 36.9858C25.0681 37.0095 24.9923 37.0308 24.9023 37.0497C24.8124 37.071 24.7011 37.0817 24.5685 37.0817C24.3365 37.0817 24.1128 37.0308 23.8974 36.929C23.6843 36.8272 23.5091 36.6757 23.3718 36.4744C23.2345 36.2732 23.1658 36.0234 23.1658 35.7251V30.2386ZM28.6355 31.5455V32.0959H25.9544V31.5455H28.6355ZM26.7924 37V30.7464C26.7924 30.4529 26.8599 30.2055 26.9949 30.0043C27.1322 29.803 27.3109 29.6503 27.5311 29.5462C27.7512 29.442 27.9844 29.3899 28.2306 29.3899C28.3964 29.3899 28.5337 29.4041 28.6426 29.4325C28.7538 29.4586 28.8414 29.4846 28.9054 29.5107L28.7207 30.0646C28.6734 30.0504 28.6154 30.0339 28.5467 30.0149C28.478 29.996 28.3916 29.9865 28.2875 29.9865C28.0128 29.9865 27.801 30.0634 27.6518 30.2173C27.5027 30.3712 27.4281 30.5914 27.4281 30.8778L27.4245 37H26.7924ZM31.7924 37.1136C31.3213 37.1136 30.9047 36.9941 30.5424 36.755C30.1826 36.5159 29.9009 36.1856 29.6973 35.7642C29.4937 35.3404 29.3919 34.8516 29.3919 34.2976C29.3919 33.7389 29.4937 33.2476 29.6973 32.8239C29.9009 32.3977 30.1826 32.0663 30.5424 31.8295C30.9047 31.5904 31.3213 31.4709 31.7924 31.4709C32.2636 31.4709 32.679 31.5904 33.0389 31.8295C33.3987 32.0687 33.6805 32.4001 33.8841 32.8239C34.09 33.2476 34.193 33.7389 34.193 34.2976C34.193 34.8516 34.0912 35.3404 33.8876 35.7642C33.684 36.1856 33.4011 36.5159 33.0389 36.755C32.679 36.9941 32.2636 37.1136 31.7924 37.1136ZM31.7924 36.5348C32.1712 36.5348 32.492 36.433 32.7548 36.2294C33.0176 36.0258 33.2164 35.7547 33.3514 35.4162C33.4887 35.0777 33.5574 34.7048 33.5574 34.2976C33.5574 33.8904 33.4887 33.5163 33.3514 33.1754C33.2164 32.8345 33.0176 32.5611 32.7548 32.3551C32.492 32.1491 32.1712 32.0462 31.7924 32.0462C31.416 32.0462 31.0952 32.1491 30.8301 32.3551C30.5673 32.5611 30.3672 32.8345 30.2299 33.1754C30.095 33.5163 30.0275 33.8904 30.0275 34.2976C30.0275 34.7048 30.095 35.0777 30.2299 35.4162C30.3672 35.7547 30.5673 36.0258 30.8301 36.2294C31.0929 36.433 31.4136 36.5348 31.7924 36.5348ZM35.5806 37V31.5455H36.195V32.3835H36.2411C36.35 32.1089 36.5394 31.8875 36.8093 31.7195C37.0816 31.549 37.3893 31.4638 37.7326 31.4638C37.7847 31.4638 37.8427 31.465 37.9066 31.4673C37.9705 31.4697 38.0238 31.4721 38.0664 31.4744V32.1172C38.038 32.1125 37.9883 32.1054 37.9173 32.0959C37.8462 32.0864 37.7693 32.0817 37.6864 32.0817C37.4023 32.0817 37.149 32.142 36.9265 32.2628C36.7063 32.3812 36.5323 32.5457 36.4045 32.7564C36.2766 32.9671 36.2127 33.2074 36.2127 33.4773V37H35.5806ZM39.1451 37V31.5455H39.7594V32.3835H39.8162C39.9251 32.1018 40.1062 31.8804 40.3596 31.7195C40.6152 31.5561 40.9218 31.4744 41.2793 31.4744C41.6557 31.4744 41.9647 31.5632 42.2061 31.7408C42.45 31.916 42.6323 32.1574 42.753 32.4652H42.7992C42.9223 32.1622 43.1223 31.9219 43.3993 31.7443C43.6787 31.5644 44.0172 31.4744 44.415 31.4744C44.9216 31.4744 45.3217 31.6342 45.6152 31.9538C45.9088 32.2711 46.0556 32.7351 46.0556 33.3459V37H45.4235V33.3459C45.4235 32.915 45.3134 32.5919 45.0932 32.3764C44.873 32.161 44.583 32.0533 44.2232 32.0533C43.8065 32.0533 43.4857 32.1811 43.2608 32.4368C43.0359 32.6925 42.9235 33.0168 42.9235 33.4098V37H42.2772V33.2891C42.2772 32.9197 42.1742 32.6214 41.9682 32.3942C41.7623 32.1669 41.4722 32.0533 41.0982 32.0533C40.8472 32.0533 40.6212 32.1148 40.4199 32.2379C40.2211 32.361 40.0636 32.5327 39.9476 32.7528C39.834 32.9706 39.7772 33.2216 39.7772 33.5057V37H39.1451Z" fill="#333333"/>
</svg>
