<svg width="103" height="103" viewBox="0 0 103 103" fill="none" xmlns="http://www.w3.org/2000/svg">
<path d="M92.4121 21.3942C92.1231 22.4576 92.7617 23.9362 93.3711 25.0021C93.5608 25.3199 93.7667 25.6278 93.9878 25.9247C99.2143 33.8511 102 43.1369 102 52.6314C102.085 79.8844 79.486 102 51.5412 102C27.1701 102 6.82691 85.1165 2.07312 62.7047C1.36087 59.3819 1.00117 55.9932 0.999998 52.595C0.999998 25.3031 22.7271 2.84033 50.672 2.84033C55.115 2.84033 61.1119 3.95717 64.3822 4.87248C67.6526 5.78779 70.9181 7.00173 71.7605 7.32707C72.6222 7.65826 73.5372 7.82861 74.4603 7.82964C75.4686 7.83347 76.4672 7.63277 77.3956 7.23967L93.8639 1.2962C94.2247 1.1407 94.607 1.04083 94.9978 0.999999C95.3061 1.00093 95.6112 1.06304 95.8954 1.18272C96.1796 1.3024 96.4372 1.47728 96.6533 1.69723C96.8694 1.91718 97.0397 2.17782 97.1544 2.46406C97.269 2.7503 97.3257 3.05644 97.3212 3.36476C97.301 3.63541 97.2522 3.90316 97.1756 4.16353L92.4121 21.3942Z" stroke="#CFCFDD" stroke-miterlimit="10" stroke-linecap="round"/>
<path d="M15.3077 27.7273V35H14.6436V27.7273H15.3077ZM21.1333 35L19.4856 29.5455H20.1532L21.4458 34.0447H21.492L22.7811 29.5455H23.4522L24.7306 34.0341H24.7804L26.073 29.5455H26.7406L25.0929 35H24.4395L23.1468 30.5291H23.0794L21.7868 35H21.1333ZM27.9764 35V29.5455H28.612V35H27.9764ZM28.2995 28.608C28.1693 28.608 28.0581 28.5642 27.9657 28.4766C27.8734 28.3866 27.8272 28.2789 27.8272 28.1534C27.8272 28.0279 27.8734 27.9214 27.9657 27.8338C28.0581 27.7438 28.1693 27.6989 28.2995 27.6989C28.4297 27.6989 28.541 27.7438 28.6333 27.8338C28.7257 27.9214 28.7718 28.0279 28.7718 28.1534C28.7718 28.2789 28.7257 28.3866 28.6333 28.4766C28.541 28.5642 28.4297 28.608 28.2995 28.608ZM33.9485 30.7422L33.3697 30.9055C33.3129 30.7422 33.2324 30.5942 33.1282 30.4616C33.024 30.3291 32.8879 30.2237 32.7198 30.1456C32.5541 30.0675 32.3481 30.0284 32.1019 30.0284C31.7326 30.0284 31.4296 30.116 31.1928 30.2912C30.9561 30.4664 30.8377 30.6925 30.8377 30.9695C30.8377 31.2038 30.9182 31.3944 31.0792 31.5412C31.2425 31.6856 31.4935 31.8004 31.832 31.8857L32.6559 32.0881C33.1128 32.1993 33.4549 32.3757 33.6822 32.6172C33.9118 32.8587 34.0266 33.1617 34.0266 33.5263C34.0266 33.834 33.9414 34.1075 33.771 34.3466C33.6005 34.5857 33.3626 34.7739 33.0572 34.9112C32.7541 35.0462 32.4026 35.1136 32.0025 35.1136C31.4698 35.1136 31.0307 34.9941 30.685 34.755C30.3394 34.5135 30.118 34.1655 30.021 33.7109L30.6282 33.5618C30.7063 33.8861 30.859 34.1312 31.0863 34.2969C31.3159 34.4626 31.6178 34.5455 31.9918 34.5455C32.4109 34.5455 32.7459 34.4519 32.9968 34.2649C33.2478 34.0755 33.3732 33.8388 33.3732 33.5547C33.3732 33.3345 33.2998 33.1499 33.1531 33.0007C33.0063 32.8492 32.7837 32.7379 32.4854 32.6669L31.5941 32.4538C31.1206 32.3402 30.7702 32.1603 30.543 31.9141C30.3157 31.6679 30.2021 31.3625 30.2021 30.9979C30.2021 30.6972 30.2837 30.4332 30.4471 30.206C30.6104 29.9763 30.8353 29.7964 31.1218 29.6662C31.4083 29.536 31.735 29.4709 32.1019 29.4709C32.6014 29.4709 33.0004 29.5845 33.2987 29.8118C33.5993 30.0367 33.8159 30.3468 33.9485 30.7422ZM36.0428 31.5909V35H35.4107V27.7273H36.0428V30.4013H36.0996C36.2275 30.1196 36.4251 29.8946 36.6926 29.7266C36.9625 29.5585 37.3034 29.4744 37.7154 29.4744C38.0847 29.4744 38.409 29.5502 38.6884 29.7017C38.9677 29.8532 39.1855 30.0769 39.3418 30.3729C39.498 30.6688 39.5762 31.0334 39.5762 31.4666V35H38.9405V31.5057C38.9405 31.0559 38.815 30.7019 38.5641 30.4439C38.3155 30.1835 37.9793 30.0533 37.5556 30.0533C37.2644 30.0533 37.0051 30.1148 36.7779 30.2379C36.5506 30.361 36.3707 30.5386 36.2381 30.7706C36.1079 31.0002 36.0428 31.2737 36.0428 31.5909ZM46.2017 29.5455V30.0959H43.5987V29.5455H46.2017ZM44.4119 28.2386H45.0476V33.576C45.0476 33.8033 45.0866 33.982 45.1648 34.1122C45.2429 34.2401 45.3447 34.3312 45.4702 34.3857C45.5956 34.4377 45.7294 34.4638 45.8714 34.4638C45.9543 34.4638 46.0253 34.459 46.0845 34.4496C46.1437 34.4377 46.1958 34.4259 46.2408 34.4141L46.3757 34.9858C46.3142 35.0095 46.2384 35.0308 46.1484 35.0497C46.0585 35.071 45.9472 35.0817 45.8146 35.0817C45.5826 35.0817 45.3589 35.0308 45.1435 34.929C44.9304 34.8272 44.7552 34.6757 44.6179 34.4744C44.4806 34.2732 44.4119 34.0234 44.4119 33.7251V28.2386ZM48.3865 31.5909V35H47.7544V27.7273H48.3865V30.4013H48.4434C48.5712 30.1196 48.7689 29.8946 49.0364 29.7266C49.3063 29.5585 49.6472 29.4744 50.0591 29.4744C50.4284 29.4744 50.7528 29.5502 51.0321 29.7017C51.3115 29.8532 51.5293 30.0769 51.6855 30.3729C51.8418 30.6688 51.9199 31.0334 51.9199 31.4666V35H51.2843V31.5057C51.2843 31.0559 51.1588 30.7019 50.9078 30.4439C50.6593 30.1835 50.3231 30.0533 49.8993 30.0533C49.6081 30.0533 49.3489 30.1148 49.1216 30.2379C48.8944 30.361 48.7144 30.5386 48.5819 30.7706C48.4516 31.0002 48.3865 31.2737 48.3865 31.5909ZM55.7898 35.1136C55.2808 35.1136 54.8404 34.9953 54.4688 34.7585C54.0971 34.5194 53.8094 34.1892 53.6058 33.7678C53.4046 33.344 53.304 32.8563 53.304 32.3047C53.304 31.7554 53.4046 31.2678 53.6058 30.8416C53.8094 30.4131 54.09 30.0781 54.4474 29.8366C54.8073 29.5928 55.2228 29.4709 55.6939 29.4709C55.9898 29.4709 56.2751 29.5253 56.5497 29.6342C56.8243 29.7408 57.0705 29.9053 57.2884 30.1278C57.5085 30.348 57.6825 30.6262 57.8104 30.9624C57.9382 31.2962 58.0021 31.6915 58.0021 32.1484V32.4609H53.7408V31.9034H57.3558C57.3558 31.553 57.2848 31.2382 57.1428 30.9588C57.0031 30.6771 56.8078 30.4545 56.5568 30.2912C56.3082 30.1278 56.0206 30.0462 55.6939 30.0462C55.3482 30.0462 55.044 30.1385 54.7812 30.3232C54.5185 30.5078 54.3125 30.7517 54.1634 31.0547C54.0166 31.3577 53.942 31.6892 53.9396 32.049V32.3828C53.9396 32.8161 54.0142 33.1948 54.1634 33.5192C54.3149 33.8411 54.5291 34.0909 54.8061 34.2685C55.0831 34.446 55.411 34.5348 55.7898 34.5348C56.0478 34.5348 56.2739 34.4946 56.468 34.4141C56.6645 34.3336 56.8291 34.2259 56.9616 34.0909C57.0966 33.9536 57.1984 33.8033 57.267 33.6399L57.8672 33.8352C57.7843 34.0649 57.6482 34.2768 57.4588 34.4709C57.2718 34.665 57.0374 34.8213 56.7557 34.9396C56.4763 35.0556 56.1544 35.1136 55.7898 35.1136ZM59.3951 35V29.5455H60.0094V30.3835H60.0556C60.1645 30.1089 60.3539 29.8875 60.6238 29.7195C60.896 29.549 61.2038 29.4638 61.5471 29.4638C61.5991 29.4638 61.6571 29.465 61.7211 29.4673C61.785 29.4697 61.8382 29.4721 61.8809 29.4744V30.1172C61.8525 30.1125 61.8027 30.1054 61.7317 30.0959C61.6607 30.0864 61.5837 30.0817 61.5009 30.0817C61.2168 30.0817 60.9635 30.142 60.7409 30.2628C60.5208 30.3812 60.3468 30.5457 60.2189 30.7564C60.0911 30.9671 60.0272 31.2074 60.0272 31.4773V35H59.3951ZM64.9988 35.1136C64.4898 35.1136 64.0494 34.9953 63.6777 34.7585C63.306 34.5194 63.0184 34.1892 62.8148 33.7678C62.6136 33.344 62.513 32.8563 62.513 32.3047C62.513 31.7554 62.6136 31.2678 62.8148 30.8416C63.0184 30.4131 63.2989 30.0781 63.6564 29.8366C64.0163 29.5928 64.4318 29.4709 64.9029 29.4709C65.1988 29.4709 65.4841 29.5253 65.7587 29.6342C66.0333 29.7408 66.2795 29.9053 66.4973 30.1278C66.7175 30.348 66.8915 30.6262 67.0194 30.9624C67.1472 31.2962 67.2111 31.6915 67.2111 32.1484V32.4609H62.9498V31.9034H66.5648C66.5648 31.553 66.4938 31.2382 66.3517 30.9588C66.2121 30.6771 66.0167 30.4545 65.7658 30.2912C65.5172 30.1278 65.2296 30.0462 64.9029 30.0462C64.5572 30.0462 64.253 30.1385 63.9902 30.3232C63.7275 30.5078 63.5215 30.7517 63.3723 31.0547C63.2256 31.3577 63.151 31.6892 63.1486 32.049V32.3828C63.1486 32.8161 63.2232 33.1948 63.3723 33.5192C63.5239 33.8411 63.7381 34.0909 64.0151 34.2685C64.2921 34.446 64.62 34.5348 64.9988 34.5348C65.2568 34.5348 65.4829 34.4946 65.677 34.4141C65.8735 34.3336 66.0381 34.2259 66.1706 34.0909C66.3056 33.9536 66.4074 33.8033 66.476 33.6399L67.0762 33.8352C66.9933 34.0649 66.8572 34.2768 66.6678 34.4709C66.4808 34.665 66.2464 34.8213 65.9647 34.9396C65.6853 35.0556 65.3633 35.1136 64.9988 35.1136ZM72.6275 35L70.9798 29.5455H71.6474L72.94 34.0447H72.9862L74.2752 29.5455H74.9464L76.2248 34.0341H76.2745L77.5671 29.5455H78.2347L76.587 35H75.9336L74.641 30.5291H74.5735L73.2809 35H72.6275ZM80.9869 35.1243C80.6578 35.1243 80.3571 35.0604 80.0849 34.9325C79.8126 34.8023 79.596 34.6153 79.435 34.3714C79.274 34.1252 79.1935 33.8269 79.1935 33.4766C79.1935 33.2067 79.2444 32.9794 79.3462 32.7947C79.448 32.6101 79.5924 32.4586 79.7795 32.3402C79.9665 32.2218 80.1879 32.1283 80.4435 32.0597C80.6992 31.991 80.9809 31.9377 81.2887 31.8999C81.5941 31.862 81.8522 31.8288 82.0629 31.8004C82.2759 31.772 82.4381 31.727 82.5494 31.6655C82.6606 31.6039 82.7163 31.5045 82.7163 31.3672V31.2393C82.7163 30.8677 82.605 30.5753 82.3825 30.3622C82.1623 30.1468 81.8451 30.0391 81.4308 30.0391C81.0378 30.0391 80.717 30.1255 80.4684 30.2983C80.2222 30.4711 80.0494 30.6747 79.9499 30.9091L79.3498 30.6925C79.4729 30.3942 79.6433 30.1562 79.8612 29.9787C80.079 29.7988 80.3228 29.6697 80.5927 29.5916C80.8626 29.5111 81.136 29.4709 81.413 29.4709C81.6213 29.4709 81.8379 29.4981 82.0629 29.5526C82.2901 29.607 82.5008 29.7017 82.695 29.8366C82.8891 29.9692 83.0465 30.1551 83.1673 30.3942C83.288 30.6309 83.3484 30.9316 83.3484 31.2962V35H82.7163V34.1371H82.6772C82.6014 34.2981 82.489 34.4543 82.3398 34.6058C82.1907 34.7573 82.0037 34.8816 81.7788 34.9787C81.5539 35.0758 81.2899 35.1243 80.9869 35.1243ZM81.0721 34.5455C81.4083 34.5455 81.6995 34.4709 81.9457 34.3217C82.1919 34.1726 82.3813 33.9749 82.5138 33.7287C82.6488 33.4801 82.7163 33.2067 82.7163 32.9084V32.12C82.6689 32.165 82.5896 32.2053 82.4783 32.2408C82.3694 32.2763 82.2428 32.3082 82.0984 32.3366C81.9563 32.3627 81.8143 32.3852 81.6722 32.4041C81.5302 32.4231 81.4023 32.4396 81.2887 32.4538C80.9809 32.4917 80.7182 32.5509 80.5004 32.6314C80.2826 32.7119 80.1156 32.8232 79.9996 32.9652C79.8836 33.1049 79.8256 33.2848 79.8256 33.505C79.8256 33.8364 79.944 34.0933 80.1808 34.2756C80.4175 34.4555 80.7146 34.5455 81.0721 34.5455ZM88.6946 30.7422L88.1158 30.9055C88.0589 30.7422 87.9785 30.5942 87.8743 30.4616C87.7701 30.3291 87.634 30.2237 87.4659 30.1456C87.3002 30.0675 87.0942 30.0284 86.848 30.0284C86.4787 30.0284 86.1757 30.116 85.9389 30.2912C85.7022 30.4664 85.5838 30.6925 85.5838 30.9695C85.5838 31.2038 85.6643 31.3944 85.8253 31.5412C85.9886 31.6856 86.2396 31.8004 86.5781 31.8857L87.402 32.0881C87.8589 32.1993 88.201 32.3757 88.4283 32.6172C88.6579 32.8587 88.7727 33.1617 88.7727 33.5263C88.7727 33.834 88.6875 34.1075 88.517 34.3466C88.3466 34.5857 88.1087 34.7739 87.8033 34.9112C87.5002 35.0462 87.1487 35.1136 86.7486 35.1136C86.2159 35.1136 85.7768 34.9941 85.4311 34.755C85.0855 34.5135 84.8641 34.1655 84.767 33.7109L85.3743 33.5618C85.4524 33.8861 85.6051 34.1312 85.8324 34.2969C86.062 34.4626 86.3639 34.5455 86.7379 34.5455C87.157 34.5455 87.492 34.4519 87.7429 34.2649C87.9938 34.0755 88.1193 33.8388 88.1193 33.5547C88.1193 33.3345 88.0459 33.1499 87.8991 33.0007C87.7524 32.8492 87.5298 32.7379 87.2315 32.6669L86.3402 32.4538C85.8667 32.3402 85.5163 32.1603 85.2891 31.9141C85.0618 31.6679 84.9482 31.3625 84.9482 30.9979C84.9482 30.6972 85.0298 30.4332 85.1932 30.206C85.3565 29.9763 85.5814 29.7964 85.8679 29.6662C86.1544 29.536 86.4811 29.4709 86.848 29.4709C87.3475 29.4709 87.7464 29.5845 88.0447 29.8118C88.3454 30.0367 88.562 30.3468 88.6946 30.7422ZM13.0376 47V41.5455H13.652V42.3835H13.7088C13.8177 42.1018 13.9988 41.8804 14.2521 41.7195C14.5078 41.5561 14.8144 41.4744 15.1719 41.4744C15.5483 41.4744 15.8572 41.5632 16.0987 41.7408C16.3426 41.916 16.5249 42.1574 16.6456 42.4652H16.6918C16.8149 42.1622 17.0149 41.9219 17.2919 41.7443C17.5713 41.5644 17.9098 41.4744 18.3075 41.4744C18.8142 41.4744 19.2143 41.6342 19.5078 41.9538C19.8014 42.2711 19.9482 42.7351 19.9482 43.3459V47H19.3161V43.3459C19.3161 42.915 19.206 42.5919 18.9858 42.3764C18.7656 42.161 18.4756 42.0533 18.1158 42.0533C17.6991 42.0533 17.3783 42.1811 17.1534 42.4368C16.9285 42.6925 16.8161 43.0168 16.8161 43.4098V47H16.1697V43.2891C16.1697 42.9197 16.0668 42.6214 15.8608 42.3942C15.6548 42.1669 15.3648 42.0533 14.9908 42.0533C14.7398 42.0533 14.5137 42.1148 14.3125 42.2379C14.1136 42.361 13.9562 42.5327 13.8402 42.7528C13.7266 42.9706 13.6697 43.2216 13.6697 43.5057V47H13.0376ZM23.7417 47.1136C23.2705 47.1136 22.8539 46.9941 22.4917 46.755C22.1318 46.5159 21.8501 46.1856 21.6465 45.7642C21.4429 45.3404 21.3411 44.8516 21.3411 44.2976C21.3411 43.7389 21.4429 43.2476 21.6465 42.8239C21.8501 42.3977 22.1318 42.0663 22.4917 41.8295C22.8539 41.5904 23.2705 41.4709 23.7417 41.4709C24.2128 41.4709 24.6283 41.5904 24.9881 41.8295C25.348 42.0687 25.6297 42.4001 25.8333 42.8239C26.0392 43.2476 26.1422 43.7389 26.1422 44.2976C26.1422 44.8516 26.0404 45.3404 25.8368 45.7642C25.6332 46.1856 25.3503 46.5159 24.9881 46.755C24.6283 46.9941 24.2128 47.1136 23.7417 47.1136ZM23.7417 46.5348C24.1204 46.5348 24.4412 46.433 24.704 46.2294C24.9668 46.0258 25.1657 45.7547 25.3006 45.4162C25.4379 45.0777 25.5066 44.7048 25.5066 44.2976C25.5066 43.8904 25.4379 43.5163 25.3006 43.1754C25.1657 42.8345 24.9668 42.5611 24.704 42.3551C24.4412 42.1491 24.1204 42.0462 23.7417 42.0462C23.3652 42.0462 23.0444 42.1491 22.7793 42.3551C22.5165 42.5611 22.3165 42.8345 22.1792 43.1754C22.0442 43.5163 21.9767 43.8904 21.9767 44.2976C21.9767 44.7048 22.0442 45.0777 22.1792 45.4162C22.3165 45.7547 22.5165 46.0258 22.7793 46.2294C23.0421 46.433 23.3629 46.5348 23.7417 46.5348ZM27.5298 47V41.5455H28.1442V42.3835H28.1903C28.2992 42.1089 28.4886 41.8875 28.7585 41.7195C29.0308 41.549 29.3385 41.4638 29.6818 41.4638C29.7339 41.4638 29.7919 41.465 29.8558 41.4673C29.9197 41.4697 29.973 41.4721 30.0156 41.4744V42.1172C29.9872 42.1125 29.9375 42.1054 29.8665 42.0959C29.7955 42.0864 29.7185 42.0817 29.6357 42.0817C29.3516 42.0817 29.0982 42.142 28.8757 42.2628C28.6555 42.3812 28.4815 42.5457 28.3537 42.7564C28.2259 42.9671 28.1619 43.2074 28.1619 43.4773V47H27.5298ZM33.1335 47.1136C32.6245 47.1136 32.1842 46.9953 31.8125 46.7585C31.4408 46.5194 31.1532 46.1892 30.9496 45.7678C30.7483 45.344 30.6477 44.8563 30.6477 44.3047C30.6477 43.7554 30.7483 43.2678 30.9496 42.8416C31.1532 42.4131 31.4337 42.0781 31.7912 41.8366C32.151 41.5928 32.5665 41.4709 33.0376 41.4709C33.3336 41.4709 33.6188 41.5253 33.8935 41.6342C34.1681 41.7408 34.4143 41.9053 34.6321 42.1278C34.8523 42.348 35.0263 42.6262 35.1541 42.9624C35.282 43.2962 35.3459 43.6915 35.3459 44.1484V44.4609H31.0845V43.9034H34.6996C34.6996 43.553 34.6286 43.2382 34.4865 42.9588C34.3468 42.6771 34.1515 42.4545 33.9006 42.2912C33.652 42.1278 33.3643 42.0462 33.0376 42.0462C32.692 42.0462 32.3878 42.1385 32.125 42.3232C31.8622 42.5078 31.6563 42.7517 31.5071 43.0547C31.3603 43.3577 31.2857 43.6892 31.2834 44.049V44.3828C31.2834 44.8161 31.358 45.1948 31.5071 45.5192C31.6586 45.8411 31.8729 46.0909 32.1499 46.2685C32.4268 46.446 32.7547 46.5348 33.1335 46.5348C33.3916 46.5348 33.6177 46.4946 33.8118 46.4141C34.0083 46.3336 34.1728 46.2259 34.3054 46.0909C34.4403 45.9536 34.5421 45.8033 34.6108 45.6399L35.2109 45.8352C35.1281 46.0649 34.992 46.2768 34.8026 46.4709C34.6155 46.665 34.3812 46.8213 34.0994 46.9396C33.8201 47.0556 33.4981 47.1136 33.1335 47.1136ZM41.7956 41.5455V42.0959H39.1145V41.5455H41.7956ZM39.9526 47V40.7464C39.9526 40.4529 40.0201 40.2055 40.155 40.0043C40.2923 39.803 40.4711 39.6503 40.6912 39.5462C40.9114 39.442 41.1446 39.3899 41.3908 39.3899C41.5565 39.3899 41.6938 39.4041 41.8027 39.4325C41.914 39.4586 42.0016 39.4846 42.0655 39.5107L41.8809 40.0646C41.8335 40.0504 41.7755 40.0339 41.7069 40.0149C41.6382 39.996 41.5518 39.9865 41.4476 39.9865C41.173 39.9865 40.9611 40.0634 40.812 40.2173C40.6628 40.3712 40.5882 40.5914 40.5882 40.8778L40.5847 47H39.9526ZM43.6893 39.7273V47H43.0572V39.7273H43.6893ZM47.5671 47.1136C47.0581 47.1136 46.6178 46.9953 46.2461 46.7585C45.8744 46.5194 45.5868 46.1892 45.3832 45.7678C45.1819 45.344 45.0813 44.8563 45.0813 44.3047C45.0813 43.7554 45.1819 43.2678 45.3832 42.8416C45.5868 42.4131 45.8673 42.0781 46.2248 41.8366C46.5846 41.5928 47.0001 41.4709 47.4712 41.4709C47.7672 41.4709 48.0524 41.5253 48.3271 41.6342C48.6017 41.7408 48.8479 41.9053 49.0657 42.1278C49.2859 42.348 49.4599 42.6262 49.5877 42.9624C49.7156 43.2962 49.7795 43.6915 49.7795 44.1484V44.4609H45.5181V43.9034H49.1332C49.1332 43.553 49.0621 43.2382 48.9201 42.9588C48.7804 42.6771 48.5851 42.4545 48.3342 42.2912C48.0856 42.1278 47.7979 42.0462 47.4712 42.0462C47.1256 42.0462 46.8214 42.1385 46.5586 42.3232C46.2958 42.5078 46.0898 42.7517 45.9407 43.0547C45.7939 43.3577 45.7193 43.6892 45.717 44.049V44.3828C45.717 44.8161 45.7915 45.1948 45.9407 45.5192C46.0922 45.8411 46.3065 46.0909 46.5835 46.2685C46.8604 46.446 47.1883 46.5348 47.5671 46.5348C47.8252 46.5348 48.0513 46.4946 48.2454 46.4141C48.4419 46.3336 48.6064 46.2259 48.739 46.0909C48.8739 45.9536 48.9757 45.8033 49.0444 45.6399L49.6445 45.8352C49.5617 46.0649 49.4255 46.2768 49.2362 46.4709C49.0491 46.665 48.8147 46.8213 48.533 46.9396C48.2537 47.0556 47.9317 47.1136 47.5671 47.1136ZM51.4165 41.5455L52.8228 43.8714L54.229 41.5455H54.9641L53.2099 44.2727L54.9641 47H54.229L52.8228 44.7486L51.4165 47H50.685L52.418 44.2727L50.685 41.5455H51.4165ZM56.2967 47V41.5455H56.9324V47H56.2967ZM56.6199 40.608C56.4896 40.608 56.3784 40.5642 56.286 40.4766C56.1937 40.3866 56.1475 40.2789 56.1475 40.1534C56.1475 40.0279 56.1937 39.9214 56.286 39.8338C56.3784 39.7438 56.4896 39.6989 56.6199 39.6989C56.7501 39.6989 56.8613 39.7438 56.9537 39.8338C57.046 39.9214 57.0922 40.0279 57.0922 40.1534C57.0922 40.2789 57.046 40.3866 56.9537 40.4766C56.8613 40.5642 56.7501 40.608 56.6199 40.608ZM58.7354 47V39.7273H59.3711V42.5859H59.4279C59.4989 42.4226 59.6007 42.2545 59.7333 42.0817C59.8683 41.9089 60.0446 41.7644 60.2624 41.6484C60.4826 41.5301 60.7596 41.4709 61.0934 41.4709C61.5408 41.4709 61.9338 41.5893 62.2724 41.826C62.6109 42.0604 62.8749 42.3894 63.0643 42.8132C63.2537 43.2346 63.3484 43.7259 63.3484 44.2869C63.3484 44.8504 63.2537 45.344 63.0643 45.7678C62.8772 46.1915 62.6145 46.5218 62.2759 46.7585C61.9397 46.9953 61.5491 47.1136 61.104 47.1136C60.7726 47.1136 60.4956 47.0545 60.2731 46.9361C60.0529 46.8177 59.8754 46.6721 59.7404 46.4993C59.6055 46.3241 59.5013 46.1536 59.4279 45.9879H59.3498V47H58.7354ZM59.3604 44.2763C59.3604 44.7166 59.4255 45.1072 59.5558 45.4482C59.6883 45.7867 59.8777 46.053 60.1239 46.2472C60.3725 46.4389 60.6732 46.5348 61.0259 46.5348C61.3881 46.5348 61.6947 46.4354 61.9457 46.2365C62.1966 46.0353 62.3872 45.7642 62.5174 45.4233C62.6476 45.0824 62.7127 44.7 62.7127 44.2763C62.7127 43.8572 62.6476 43.4796 62.5174 43.1435C62.3896 42.8073 62.2002 42.541 61.9492 42.3445C61.6983 42.1456 61.3905 42.0462 61.0259 42.0462C60.6708 42.0462 60.369 42.142 60.1204 42.3338C59.8742 42.5232 59.686 42.786 59.5558 43.1222C59.4255 43.456 59.3604 43.8407 59.3604 44.2763ZM64.744 47V41.5455H65.3796V47H64.744ZM65.0671 40.608C64.9369 40.608 64.8256 40.5642 64.7333 40.4766C64.641 40.3866 64.5948 40.2789 64.5948 40.1534C64.5948 40.0279 64.641 39.9214 64.7333 39.8338C64.8256 39.7438 64.9369 39.6989 65.0671 39.6989C65.1973 39.6989 65.3086 39.7438 65.4009 39.8338C65.4933 39.9214 65.5394 40.0279 65.5394 40.1534C65.5394 40.2789 65.4933 40.3866 65.4009 40.4766C65.3086 40.5642 65.1973 40.608 65.0671 40.608ZM67.6834 39.7273V47H67.0513V39.7273H67.6834ZM69.3631 47V41.5455H69.9988V47H69.3631ZM69.6863 40.608C69.556 40.608 69.4448 40.5642 69.3525 40.4766C69.2601 40.3866 69.214 40.2789 69.214 40.1534C69.214 40.0279 69.2601 39.9214 69.3525 39.8338C69.4448 39.7438 69.556 39.6989 69.6863 39.6989C69.8165 39.6989 69.9277 39.7438 70.0201 39.8338C70.1124 39.9214 70.1586 40.0279 70.1586 40.1534C70.1586 40.2789 70.1124 40.3866 70.0201 40.4766C69.9277 40.5642 69.8165 40.608 69.6863 40.608ZM73.8189 41.5455V42.0959H71.2159V41.5455H73.8189ZM72.0291 40.2386H72.6648V45.576C72.6648 45.8033 72.7038 45.982 72.782 46.1122C72.8601 46.2401 72.9619 46.3312 73.0874 46.3857C73.2128 46.4377 73.3466 46.4638 73.4886 46.4638C73.5715 46.4638 73.6425 46.459 73.7017 46.4496C73.7609 46.4377 73.813 46.4259 73.858 46.4141L73.9929 46.9858C73.9313 47.0095 73.8556 47.0308 73.7656 47.0497C73.6757 47.071 73.5644 47.0817 73.4318 47.0817C73.1998 47.0817 72.9761 47.0308 72.7607 46.929C72.5476 46.8272 72.3724 46.6757 72.2351 46.4744C72.0978 46.2732 72.0291 46.0234 72.0291 45.7251V40.2386ZM75.6948 49.0455C75.5693 49.0455 75.4521 49.0336 75.3432 49.0099C75.2343 48.9863 75.1479 48.9602 75.084 48.9318L75.2544 48.3743C75.4699 48.4406 75.6616 48.4643 75.8297 48.4453C75.9978 48.4287 76.147 48.353 76.2772 48.218C76.4074 48.0855 76.5234 47.8819 76.6252 47.6072L76.824 47.0533L74.8176 41.5455H75.503L77.1223 46.1655H77.1721L78.7914 41.5455H79.4767L77.1685 47.8629C77.0714 48.1257 76.9519 48.3447 76.8098 48.5199C76.6678 48.6974 76.5033 48.8288 76.3162 48.9141C76.1316 49.0017 75.9244 49.0455 75.6948 49.0455ZM83.533 47V41.5455H84.1687V47H83.533ZM83.8562 40.608C83.726 40.608 83.6147 40.5642 83.5224 40.4766C83.43 40.3866 83.3839 40.2789 83.3839 40.1534C83.3839 40.0279 83.43 39.9214 83.5224 39.8338C83.6147 39.7438 83.726 39.6989 83.8562 39.6989C83.9864 39.6989 84.0977 39.7438 84.19 39.8338C84.2823 39.9214 84.3285 40.0279 84.3285 40.1534C84.3285 40.2789 84.2823 40.3866 84.19 40.4766C84.0977 40.5642 83.9864 40.608 83.8562 40.608ZM86.4725 43.5909V47H85.8404V41.5455H86.4547V42.4013H86.5115C86.6394 42.1219 86.8382 41.8982 87.1081 41.7301C87.3804 41.5597 87.7166 41.4744 88.1167 41.4744C88.4836 41.4744 88.8056 41.5514 89.0826 41.7053C89.3619 41.8568 89.5785 42.0805 89.7324 42.3764C89.8887 42.6723 89.9668 43.0357 89.9668 43.4666V47H89.3347V43.5057C89.3347 43.0582 89.2092 42.7043 88.9583 42.4439C88.7097 42.1835 88.3759 42.0533 87.9569 42.0533C87.6704 42.0533 87.4159 42.1148 87.1934 42.2379C86.9708 42.361 86.7944 42.5386 86.6642 42.7706C86.5364 43.0002 86.4725 43.2737 86.4725 43.5909ZM19.8909 54.7422L19.3121 54.9055C19.2552 54.7422 19.1747 54.5942 19.0706 54.4616C18.9664 54.3291 18.8303 54.2237 18.6622 54.1456C18.4965 54.0675 18.2905 54.0284 18.0443 54.0284C17.675 54.0284 17.372 54.116 17.1352 54.2912C16.8985 54.4664 16.7801 54.6925 16.7801 54.9695C16.7801 55.2038 16.8606 55.3944 17.0216 55.5412C17.1849 55.6856 17.4359 55.8004 17.7744 55.8857L18.5983 56.0881C19.0552 56.1993 19.3973 56.3757 19.6246 56.6172C19.8542 56.8587 19.969 57.1617 19.969 57.5263C19.969 57.834 19.8838 58.1075 19.7133 58.3466C19.5429 58.5857 19.305 58.7739 18.9996 58.9112C18.6965 59.0462 18.345 59.1136 17.9449 59.1136C17.4122 59.1136 16.973 58.9941 16.6274 58.755C16.2818 58.5135 16.0604 58.1655 15.9633 57.7109L16.5706 57.5618C16.6487 57.8861 16.8014 58.1312 17.0287 58.2969C17.2583 58.4626 17.5602 58.5455 17.9342 58.5455C18.3532 58.5455 18.6882 58.4519 18.9392 58.2649C19.1901 58.0755 19.3156 57.8388 19.3156 57.5547C19.3156 57.3345 19.2422 57.1499 19.0954 57.0007C18.9487 56.8492 18.7261 56.7379 18.4278 56.6669L17.5365 56.4538C17.063 56.3402 16.7126 56.1603 16.4854 55.9141C16.2581 55.6679 16.1444 55.3625 16.1444 54.9979C16.1444 54.6972 16.2261 54.4332 16.3895 54.206C16.5528 53.9763 16.7777 53.7964 17.0642 53.6662C17.3506 53.536 17.6773 53.4709 18.0443 53.4709C18.5438 53.4709 18.9427 53.5845 19.241 53.8118C19.5417 54.0367 19.7583 54.3468 19.8909 54.7422ZM23.4838 59.1136C22.9961 59.1136 22.5711 58.9917 22.2089 58.7479C21.849 58.504 21.5697 58.1702 21.3708 57.7464C21.172 57.3227 21.0725 56.8397 21.0725 56.2976C21.0725 55.7507 21.1731 55.2642 21.3744 54.8381C21.578 54.4119 21.8597 54.0781 22.2195 53.8366C22.5794 53.5928 22.9972 53.4709 23.4731 53.4709C23.8377 53.4709 24.1679 53.5419 24.4639 53.6839C24.7598 53.8236 25.0036 54.0213 25.1954 54.277C25.3895 54.5303 25.5115 54.8262 25.5612 55.1648H24.922C24.8557 54.857 24.6959 54.5942 24.4426 54.3764C24.1916 54.1562 23.872 54.0462 23.4838 54.0462C23.1357 54.0462 22.828 54.1409 22.5605 54.3303C22.2929 54.5173 22.0834 54.7789 21.9319 55.1151C21.7828 55.4489 21.7082 55.8359 21.7082 56.2763C21.7082 56.719 21.7816 57.1108 21.9284 57.4517C22.0751 57.7902 22.2811 58.0554 22.5463 58.2472C22.8138 58.4389 23.1263 58.5348 23.4838 58.5348C23.7252 58.5348 23.9454 58.4898 24.1443 58.3999C24.3455 58.3075 24.5136 58.1773 24.6485 58.0092C24.7858 57.8411 24.8782 57.6411 24.9255 57.4091H25.5647C25.5174 57.7382 25.4002 58.0317 25.2132 58.2898C25.0285 58.5455 24.7882 58.7467 24.4923 58.8935C24.1987 59.0402 23.8625 59.1136 23.4838 59.1136ZM27.5516 55.5909V59H26.9195V51.7273H27.5516V54.4013H27.6084C27.7362 54.1196 27.9339 53.8946 28.2014 53.7266C28.4713 53.5585 28.8122 53.4744 29.2242 53.4744C29.5935 53.4744 29.9178 53.5502 30.1972 53.7017C30.4765 53.8532 30.6943 54.0769 30.8506 54.3729C31.0068 54.6688 31.085 55.0334 31.085 55.4666V59H30.4493V55.5057C30.4493 55.0559 30.3238 54.7019 30.0729 54.4439C29.8243 54.1835 29.4881 54.0533 29.0644 54.0533C28.7732 54.0533 28.5139 54.1148 28.2867 54.2379C28.0594 54.361 27.8795 54.5386 27.7469 54.7706C27.6167 55.0002 27.5516 55.2737 27.5516 55.5909ZM34.9548 59.1136C34.4458 59.1136 34.0055 58.9953 33.6338 58.7585C33.2621 58.5194 32.9745 58.1892 32.7709 57.7678C32.5696 57.344 32.469 56.8563 32.469 56.3047C32.469 55.7554 32.5696 55.2678 32.7709 54.8416C32.9745 54.4131 33.255 54.0781 33.6125 53.8366C33.9723 53.5928 34.3878 53.4709 34.8589 53.4709C35.1549 53.4709 35.4401 53.5253 35.7148 53.6342C35.9894 53.7408 36.2356 53.9053 36.4534 54.1278C36.6736 54.348 36.8476 54.6262 36.9754 54.9624C37.1032 55.2962 37.1672 55.6915 37.1672 56.1484V56.4609H32.9058V55.9034H36.5209C36.5209 55.553 36.4498 55.2382 36.3078 54.9588C36.1681 54.6771 35.9728 54.4545 35.7219 54.2912C35.4733 54.1278 35.1856 54.0462 34.8589 54.0462C34.5133 54.0462 34.2091 54.1385 33.9463 54.3232C33.6835 54.5078 33.4775 54.7517 33.3284 55.0547C33.1816 55.3577 33.107 55.6892 33.1047 56.049V56.3828C33.1047 56.8161 33.1792 57.1948 33.3284 57.5192C33.4799 57.8411 33.6942 58.0909 33.9711 58.2685C34.2481 58.446 34.576 58.5348 34.9548 58.5348C35.2129 58.5348 35.439 58.4946 35.6331 58.4141C35.8296 58.3336 35.9941 58.2259 36.1267 58.0909C36.2616 57.9536 36.3634 57.8033 36.4321 57.6399L37.0322 57.8352C36.9494 58.0649 36.8132 58.2768 36.6238 58.4709C36.4368 58.665 36.2024 58.8213 35.9207 58.9396C35.6414 59.0556 35.3194 59.1136 34.9548 59.1136ZM40.5239 59.1136C40.0764 59.1136 39.6846 58.9953 39.3485 58.7585C39.0123 58.5218 38.7495 58.1915 38.5601 57.7678C38.3731 57.344 38.2796 56.8504 38.2796 56.2869C38.2796 55.7259 38.3731 55.2346 38.5601 54.8132C38.7495 54.3894 39.0135 54.0604 39.352 53.826C39.6905 53.5893 40.0847 53.4709 40.5345 53.4709C40.866 53.4709 41.1418 53.5301 41.3619 53.6484C41.5821 53.7644 41.7585 53.9089 41.8911 54.0817C42.0236 54.2545 42.1266 54.4226 42.2 54.5859H42.2568V51.7273H42.8925V59H42.2746V57.9879H42.2C42.1266 58.1536 42.0225 58.3241 41.8875 58.4993C41.7526 58.6721 41.5738 58.8177 41.3513 58.9361C41.1311 59.0545 40.8553 59.1136 40.5239 59.1136ZM40.5985 58.5348C40.9512 58.5348 41.2519 58.4389 41.5004 58.2472C41.749 58.053 41.9384 57.7867 42.0686 57.4482C42.2012 57.1072 42.2675 56.7166 42.2675 56.2763C42.2675 55.8407 42.2024 55.456 42.0722 55.1222C41.942 54.786 41.7526 54.5232 41.504 54.3338C41.2554 54.142 40.9536 54.0462 40.5985 54.0462C40.2339 54.0462 39.9261 54.1456 39.6752 54.3445C39.4266 54.541 39.2372 54.8073 39.107 55.1435C38.9791 55.4796 38.9152 55.8572 38.9152 56.2763C38.9152 56.7 38.9803 57.0824 39.1105 57.4233C39.2407 57.7642 39.4301 58.0353 39.6787 58.2365C39.9297 58.4354 40.2362 58.5348 40.5985 58.5348ZM48.1588 56.9155V53.5455H48.7909V59H48.1588V58.0945H48.1091C47.9813 58.3738 47.7789 58.607 47.5019 58.794C47.2249 58.9787 46.8863 59.071 46.4862 59.071C46.1382 59.071 45.8293 58.9953 45.5594 58.8438C45.2895 58.6899 45.0776 58.465 44.9237 58.169C44.7699 57.8731 44.6929 57.5097 44.6929 57.0788V53.5455H45.325V57.0398C45.325 57.4659 45.4505 57.8092 45.7014 58.0696C45.9524 58.3277 46.2744 58.4567 46.6673 58.4567C46.9136 58.4567 47.1503 58.3975 47.3776 58.2791C47.6048 58.1607 47.7919 57.9879 47.9387 57.7607C48.0854 57.531 48.1588 57.2493 48.1588 56.9155ZM51.0965 51.7273V59H50.4644V51.7273H51.0965ZM53.4012 51.7273V59H52.7691V51.7273H53.4012ZM55.0809 59V53.5455H55.7165V59H55.0809ZM55.404 52.608C55.2738 52.608 55.1626 52.5642 55.0702 52.4766C54.9779 52.3866 54.9317 52.2789 54.9317 52.1534C54.9317 52.0279 54.9779 51.9214 55.0702 51.8338C55.1626 51.7438 55.2738 51.6989 55.404 51.6989C55.5342 51.6989 55.6455 51.7438 55.7378 51.8338C55.8302 51.9214 55.8763 52.0279 55.8763 52.1534C55.8763 52.2789 55.8302 52.3866 55.7378 52.4766C55.6455 52.5642 55.5342 52.608 55.404 52.608ZM58.0203 55.5909V59H57.3882V53.5455H58.0026V54.4013H58.0594C58.1872 54.1219 58.3861 53.8982 58.656 53.7301C58.9282 53.5597 59.2644 53.4744 59.6645 53.4744C60.0315 53.4744 60.3534 53.5514 60.6304 53.7053C60.9098 53.8568 61.1264 54.0805 61.2803 54.3764C61.4365 54.6723 61.5146 55.0357 61.5146 55.4666V59H60.8825V55.5057C60.8825 55.0582 60.7571 54.7043 60.5061 54.4439C60.2575 54.1835 59.9237 54.0533 59.5047 54.0533C59.2182 54.0533 58.9637 54.1148 58.7412 54.2379C58.5187 54.361 58.3423 54.5386 58.2121 54.7706C58.0843 55.0002 58.0203 55.2737 58.0203 55.5909ZM65.2602 61.1591C64.8885 61.1591 64.563 61.1106 64.2836 61.0135C64.0043 60.9188 63.7687 60.7886 63.577 60.6229C63.3852 60.4571 63.2361 60.2713 63.1295 60.0653L63.648 59.7244C63.7261 59.8617 63.8303 59.9967 63.9605 60.1293C64.0931 60.2618 64.2647 60.3719 64.4754 60.4595C64.6885 60.5471 64.9501 60.5909 65.2602 60.5909C65.7432 60.5909 66.1326 60.4702 66.4285 60.2287C66.7268 59.9872 66.876 59.612 66.876 59.103V57.8743H66.8192C66.7458 58.04 66.6404 58.2057 66.5031 58.3714C66.3658 58.5348 66.1859 58.6709 65.9633 58.7798C65.7432 58.8887 65.4697 58.9432 65.143 58.9432C64.7074 58.9432 64.3203 58.8355 63.9818 58.62C63.6456 58.4046 63.3805 58.0968 63.1863 57.6967C62.9946 57.2943 62.8987 56.8149 62.8987 56.2585C62.8987 55.7069 62.9922 55.2216 63.1792 54.8026C63.3686 54.3835 63.6326 54.0568 63.9711 53.8224C64.3097 53.5881 64.7039 53.4709 65.1537 53.4709C65.4875 53.4709 65.7645 53.5301 65.9846 53.6484C66.2048 53.7644 66.3812 53.9089 66.5138 54.0817C66.6487 54.2545 66.7541 54.4226 66.8298 54.5859H66.8937V53.5455H67.5116V59.142C67.5116 59.6037 67.4134 59.9837 67.2169 60.282C67.0204 60.5803 66.7529 60.8004 66.4143 60.9425C66.0758 61.0869 65.6911 61.1591 65.2602 61.1591ZM65.2176 58.3643C65.568 58.3643 65.8675 58.2803 66.116 58.1122C66.3646 57.9418 66.5552 57.6979 66.6878 57.3807C66.8203 57.0634 66.8866 56.6858 66.8866 56.2479C66.8866 55.8217 66.8215 55.4441 66.6913 55.1151C66.5611 54.7836 66.3717 54.5232 66.1231 54.3338C65.8769 54.142 65.5751 54.0462 65.2176 54.0462C64.853 54.0462 64.5452 54.1444 64.2943 54.3409C64.0434 54.5374 63.854 54.8026 63.7261 55.1364C63.5983 55.4678 63.5344 55.8383 63.5344 56.2479C63.5344 56.6645 63.5995 57.0327 63.7297 57.3523C63.8599 57.6695 64.0505 57.9181 64.3014 58.098C64.5523 58.2756 64.8577 58.3643 65.2176 58.3643ZM75.6624 54.7422L75.0835 54.9055C75.0267 54.7422 74.9462 54.5942 74.8421 54.4616C74.7379 54.3291 74.6018 54.2237 74.4337 54.1456C74.268 54.0675 74.062 54.0284 73.8158 54.0284C73.4465 54.0284 73.1434 54.116 72.9067 54.2912C72.67 54.4664 72.5516 54.6925 72.5516 54.9695C72.5516 55.2038 72.6321 55.3944 72.7931 55.5412C72.9564 55.6856 73.2074 55.8004 73.5459 55.8857L74.3698 56.0881C74.8267 56.1993 75.1688 56.3757 75.396 56.6172C75.6257 56.8587 75.7405 57.1617 75.7405 57.5263C75.7405 57.834 75.6553 58.1075 75.4848 58.3466C75.3144 58.5857 75.0764 58.7739 74.771 58.9112C74.468 59.0462 74.1164 59.1136 73.7164 59.1136C73.1837 59.1136 72.7445 58.9941 72.3989 58.755C72.0532 58.5135 71.8319 58.1655 71.7348 57.7109L72.3421 57.5618C72.4202 57.8861 72.5729 58.1312 72.8002 58.2969C73.0298 58.4626 73.3316 58.5455 73.7057 58.5455C74.1247 58.5455 74.4597 58.4519 74.7107 58.2649C74.9616 58.0755 75.0871 57.8388 75.0871 57.5547C75.0871 57.3345 75.0137 57.1499 74.8669 57.0007C74.7201 56.8492 74.4976 56.7379 74.1993 56.6669L73.308 56.4538C72.8345 56.3402 72.4841 56.1603 72.2568 55.9141C72.0296 55.6679 71.9159 55.3625 71.9159 54.9979C71.9159 54.6972 71.9976 54.4332 72.161 54.206C72.3243 53.9763 72.5492 53.7964 72.8357 53.6662C73.1221 53.536 73.4488 53.4709 73.8158 53.4709C74.3153 53.4709 74.7142 53.5845 75.0125 53.8118C75.3132 54.0367 75.5298 54.3468 75.6624 54.7422ZM79.2446 59.1136C78.7735 59.1136 78.3568 58.9941 77.9946 58.755C77.6347 58.5159 77.353 58.1856 77.1494 57.7642C76.9458 57.3404 76.844 56.8516 76.844 56.2976C76.844 55.7389 76.9458 55.2476 77.1494 54.8239C77.353 54.3977 77.6347 54.0663 77.9946 53.8295C78.3568 53.5904 78.7735 53.4709 79.2446 53.4709C79.7157 53.4709 80.1312 53.5904 80.491 53.8295C80.8509 54.0687 81.1326 54.4001 81.3362 54.8239C81.5422 55.2476 81.6452 55.7389 81.6452 56.2976C81.6452 56.8516 81.5434 57.3404 81.3398 57.7642C81.1362 58.1856 80.8532 58.5159 80.491 58.755C80.1312 58.9941 79.7157 59.1136 79.2446 59.1136ZM79.2446 58.5348C79.6234 58.5348 79.9442 58.433 80.2069 58.2294C80.4697 58.0258 80.6686 57.7547 80.8035 57.4162C80.9408 57.0777 81.0095 56.7048 81.0095 56.2976C81.0095 55.8904 80.9408 55.5163 80.8035 55.1754C80.6686 54.8345 80.4697 54.5611 80.2069 54.3551C79.9442 54.1491 79.6234 54.0462 79.2446 54.0462C78.8682 54.0462 78.5474 54.1491 78.2822 54.3551C78.0194 54.5611 77.8194 54.8345 77.6821 55.1754C77.5471 55.5163 77.4797 55.8904 77.4797 56.2976C77.4797 56.7048 77.5471 57.0777 77.6821 57.4162C77.8194 57.7547 78.0194 58.0258 78.2822 58.2294C78.545 58.433 78.8658 58.5348 79.2446 58.5348ZM86.6407 51.7273V59H85.9767V51.7273H86.6407ZM14.0648 71.1136C13.5771 71.1136 13.1522 70.9917 12.79 70.7479C12.4301 70.504 12.1507 70.1702 11.9519 69.7464C11.753 69.3227 11.6536 68.8397 11.6536 68.2976C11.6536 67.7507 11.7542 67.2642 11.9554 66.8381C12.159 66.4119 12.4408 66.0781 12.8006 65.8366C13.1605 65.5928 13.5783 65.4709 14.0542 65.4709C14.4187 65.4709 14.749 65.5419 15.0449 65.6839C15.3408 65.8236 15.5847 66.0213 15.7765 66.277C15.9706 66.5303 16.0925 66.8262 16.1422 67.1648H15.503C15.4367 66.857 15.2769 66.5942 15.0236 66.3764C14.7727 66.1562 14.4531 66.0462 14.0648 66.0462C13.7168 66.0462 13.409 66.1409 13.1415 66.3303C12.874 66.5173 12.6645 66.7789 12.513 67.1151C12.3638 67.4489 12.2892 67.8359 12.2892 68.2763C12.2892 68.719 12.3626 69.1108 12.5094 69.4517C12.6562 69.7902 12.8622 70.0554 13.1273 70.2472C13.3948 70.4389 13.7073 70.5348 14.0648 70.5348C14.3063 70.5348 14.5265 70.4898 14.7253 70.3999C14.9266 70.3075 15.0946 70.1773 15.2296 70.0092C15.3669 69.8411 15.4592 69.6411 15.5066 69.4091H16.1458C16.0984 69.7382 15.9812 70.0317 15.7942 70.2898C15.6096 70.5455 15.3693 70.7467 15.0733 70.8935C14.7798 71.0402 14.4436 71.1136 14.0648 71.1136ZM19.024 71.1243C18.6949 71.1243 18.3942 71.0604 18.122 70.9325C17.8497 70.8023 17.6331 70.6153 17.4721 70.3714C17.3111 70.1252 17.2306 69.8269 17.2306 69.4766C17.2306 69.2067 17.2815 68.9794 17.3833 68.7947C17.4851 68.6101 17.6296 68.4586 17.8166 68.3402C18.0036 68.2218 18.225 68.1283 18.4806 68.0597C18.7363 67.991 19.0181 67.9377 19.3258 67.8999C19.6312 67.862 19.8893 67.8288 20.1 67.8004C20.313 67.772 20.4752 67.727 20.5865 67.6655C20.6977 67.6039 20.7534 67.5045 20.7534 67.3672V67.2393C20.7534 66.8677 20.6421 66.5753 20.4196 66.3622C20.1994 66.1468 19.8822 66.0391 19.4679 66.0391C19.0749 66.0391 18.7541 66.1255 18.5055 66.2983C18.2593 66.4711 18.0865 66.6747 17.987 66.9091L17.3869 66.6925C17.51 66.3942 17.6805 66.1562 17.8983 65.9787C18.1161 65.7988 18.3599 65.6697 18.6298 65.5916C18.8997 65.5111 19.1731 65.4709 19.4501 65.4709C19.6584 65.4709 19.8751 65.4981 20.1 65.5526C20.3272 65.607 20.5379 65.7017 20.7321 65.8366C20.9262 65.9692 21.0836 66.1551 21.2044 66.3942C21.3251 66.6309 21.3855 66.9316 21.3855 67.2962V71H20.7534V70.1371H20.7143C20.6386 70.2981 20.5261 70.4543 20.377 70.6058C20.2278 70.7573 20.0408 70.8816 19.8159 70.9787C19.591 71.0758 19.327 71.1243 19.024 71.1243ZM19.1092 70.5455C19.4454 70.5455 19.7366 70.4709 19.9828 70.3217C20.229 70.1726 20.4184 69.9749 20.551 69.7287C20.6859 69.4801 20.7534 69.2067 20.7534 68.9084V68.12C20.706 68.165 20.6267 68.2053 20.5154 68.2408C20.4065 68.2763 20.2799 68.3082 20.1355 68.3366C19.9934 68.3627 19.8514 68.3852 19.7093 68.4041C19.5673 68.4231 19.4395 68.4396 19.3258 68.4538C19.0181 68.4917 18.7553 68.5509 18.5375 68.6314C18.3197 68.7119 18.1528 68.8232 18.0368 68.9652C17.9208 69.1049 17.8627 69.2848 17.8627 69.505C17.8627 69.8364 17.9811 70.0933 18.2179 70.2756C18.4546 70.4555 18.7517 70.5455 19.1092 70.5455ZM23.699 67.5909V71H23.0669V65.5455H23.6813V66.4013H23.7381C23.8659 66.1219 24.0648 65.8982 24.3347 65.7301C24.6069 65.5597 24.9431 65.4744 25.3432 65.4744C25.7102 65.4744 26.0321 65.5514 26.3091 65.7053C26.5885 65.8568 26.8051 66.0805 26.959 66.3764C27.1152 66.6723 27.1934 67.0357 27.1934 67.4666V71H26.5613V67.5057C26.5613 67.0582 26.4358 66.7043 26.1848 66.4439C25.9363 66.1835 25.6025 66.0533 25.1834 66.0533C24.897 66.0533 24.6425 66.1148 24.4199 66.2379C24.1974 66.361 24.021 66.5386 23.8908 66.7706C23.763 67.0002 23.699 67.2737 23.699 67.5909ZM31.6705 73.0455V65.5455H32.2848V66.5859H32.3594C32.4351 66.4226 32.5393 66.2557 32.6719 66.0852C32.8045 65.9124 32.9796 65.7668 33.1974 65.6484C33.4176 65.5301 33.6946 65.4709 34.0284 65.4709C34.4782 65.4709 34.8712 65.5893 35.2074 65.826C35.5459 66.0604 35.8087 66.3894 35.9957 66.8132C36.1851 67.2346 36.2798 67.7259 36.2798 68.2869C36.2798 68.8504 36.1851 69.344 35.9957 69.7678C35.8087 70.1915 35.5459 70.5218 35.2074 70.7585C34.8712 70.9953 34.4806 71.1136 34.0355 71.1136C33.7064 71.1136 33.4306 71.0545 33.2081 70.9361C32.9879 70.8177 32.8092 70.6721 32.6719 70.4993C32.5369 70.3241 32.4328 70.1536 32.3594 69.9879H32.3026V73.0455H31.6705ZM32.2955 68.2763C32.2955 68.7166 32.3606 69.1072 32.4908 69.4482C32.6233 69.7867 32.8127 70.053 33.0589 70.2472C33.3075 70.4389 33.6082 70.5348 33.9609 70.5348C34.3232 70.5348 34.6286 70.4354 34.8771 70.2365C35.1281 70.0353 35.3187 69.7642 35.4489 69.4233C35.5814 69.0824 35.6477 68.7 35.6477 68.2763C35.6477 67.8572 35.5826 67.4796 35.4524 67.1435C35.3246 66.8073 35.1352 66.541 34.8842 66.3445C34.6333 66.1456 34.3255 66.0462 33.9609 66.0462C33.6058 66.0462 33.304 66.142 33.0554 66.3338C32.8068 66.5232 32.6174 66.786 32.4872 67.1222C32.3594 67.456 32.2955 67.8407 32.2955 68.2763ZM39.19 71.1243C38.8609 71.1243 38.5603 71.0604 38.288 70.9325C38.0157 70.8023 37.7991 70.6153 37.6381 70.3714C37.4772 70.1252 37.3967 69.8269 37.3967 69.4766C37.3967 69.2067 37.4476 68.9794 37.5494 68.7947C37.6512 68.6101 37.7956 68.4586 37.9826 68.3402C38.1696 68.2218 38.391 68.1283 38.6467 68.0597C38.9023 67.991 39.1841 67.9377 39.4918 67.8999C39.7972 67.862 40.0553 67.8288 40.266 67.8004C40.479 67.772 40.6412 67.727 40.7525 67.6655C40.8638 67.6039 40.9194 67.5045 40.9194 67.3672V67.2393C40.9194 66.8677 40.8081 66.5753 40.5856 66.3622C40.3654 66.1468 40.0482 66.0391 39.6339 66.0391C39.2409 66.0391 38.9201 66.1255 38.6715 66.2983C38.4253 66.4711 38.2525 66.6747 38.1531 66.9091L37.5529 66.6925C37.676 66.3942 37.8465 66.1562 38.0643 65.9787C38.2821 65.7988 38.5259 65.6697 38.7958 65.5916C39.0657 65.5111 39.3391 65.4709 39.6161 65.4709C39.8245 65.4709 40.0411 65.4981 40.266 65.5526C40.4933 65.607 40.704 65.7017 40.8981 65.8366C41.0922 65.9692 41.2496 66.1551 41.3704 66.3942C41.4911 66.6309 41.5515 66.9316 41.5515 67.2962V71H40.9194V70.1371H40.8803C40.8046 70.2981 40.6921 70.4543 40.543 70.6058C40.3938 70.7573 40.2068 70.8816 39.9819 70.9787C39.757 71.0758 39.493 71.1243 39.19 71.1243ZM39.2752 70.5455C39.6114 70.5455 39.9026 70.4709 40.1488 70.3217C40.395 70.1726 40.5844 69.9749 40.717 69.7287C40.8519 69.4801 40.9194 69.2067 40.9194 68.9084V68.12C40.872 68.165 40.7927 68.2053 40.6815 68.2408C40.5726 68.2763 40.4459 68.3082 40.3015 68.3366C40.1594 68.3627 40.0174 68.3852 39.8754 68.4041C39.7333 68.4231 39.6055 68.4396 39.4918 68.4538C39.1841 68.4917 38.9213 68.5509 38.7035 68.6314C38.4857 68.7119 38.3188 68.8232 38.2028 68.9652C38.0868 69.1049 38.0288 69.2848 38.0288 69.505C38.0288 69.8364 38.1471 70.0933 38.3839 70.2756C38.6206 70.4555 38.9177 70.5455 39.2752 70.5455ZM43.233 71V65.5455H43.8473V66.3835H43.8935C44.0024 66.1089 44.1918 65.8875 44.4616 65.7195C44.7339 65.549 45.0417 65.4638 45.3849 65.4638C45.437 65.4638 45.495 65.465 45.5589 65.4673C45.6229 65.4697 45.6761 65.4721 45.7188 65.4744V66.1172C45.6903 66.1125 45.6406 66.1054 45.5696 66.0959C45.4986 66.0864 45.4216 66.0817 45.3388 66.0817C45.0547 66.0817 44.8014 66.142 44.5788 66.2628C44.3587 66.3812 44.1847 66.5457 44.0568 66.7564C43.929 66.9671 43.8651 67.2074 43.8651 67.4773V71H43.233ZM49.2876 65.5455V66.0959H46.6847V65.5455H49.2876ZM47.4979 64.2386H48.1335V69.576C48.1335 69.8033 48.1726 69.982 48.2507 70.1122C48.3288 70.2401 48.4306 70.3312 48.5561 70.3857C48.6816 70.4377 48.8153 70.4638 48.9574 70.4638C49.0402 70.4638 49.1113 70.459 49.1705 70.4496C49.2296 70.4377 49.2817 70.4259 49.3267 70.4141L49.4616 70.9858C49.4001 71.0095 49.3243 71.0308 49.2344 71.0497C49.1444 71.071 49.0331 71.0817 48.9006 71.0817C48.6686 71.0817 48.4448 71.0308 48.2294 70.929C48.0163 70.8272 47.8411 70.6757 47.7038 70.4744C47.5665 70.2732 47.4979 70.0234 47.4979 69.7251V64.2386ZM50.7303 71V65.5455H51.3659V71H50.7303ZM51.0534 64.608C50.9232 64.608 50.812 64.5642 50.7196 64.4766C50.6273 64.3866 50.5811 64.2789 50.5811 64.1534C50.5811 64.0279 50.6273 63.9214 50.7196 63.8338C50.812 63.7438 50.9232 63.6989 51.0534 63.6989C51.1837 63.6989 51.2949 63.7438 51.3873 63.8338C51.4796 63.9214 51.5257 64.0279 51.5257 64.1534C51.5257 64.2789 51.4796 64.3866 51.3873 64.4766C51.2949 64.5642 51.1837 64.608 51.0534 64.608ZM55.1683 71.1136C54.6806 71.1136 54.2557 70.9917 53.8935 70.7479C53.5336 70.504 53.2543 70.1702 53.0554 69.7464C52.8565 69.3227 52.7571 68.8397 52.7571 68.2976C52.7571 67.7507 52.8577 67.2642 53.0589 66.8381C53.2625 66.4119 53.5443 66.0781 53.9041 65.8366C54.264 65.5928 54.6818 65.4709 55.1577 65.4709C55.5223 65.4709 55.8525 65.5419 56.1484 65.6839C56.4444 65.8236 56.6882 66.0213 56.88 66.277C57.0741 66.5303 57.196 66.8262 57.2457 67.1648H56.6065C56.5402 66.857 56.3804 66.5942 56.1271 66.3764C55.8762 66.1562 55.5566 66.0462 55.1683 66.0462C54.8203 66.0462 54.5125 66.1409 54.245 66.3303C53.9775 66.5173 53.768 66.7789 53.6165 67.1151C53.4673 67.4489 53.3928 67.8359 53.3928 68.2763C53.3928 68.719 53.4661 69.1108 53.6129 69.4517C53.7597 69.7902 53.9657 70.0554 54.2308 70.2472C54.4983 70.4389 54.8108 70.5348 55.1683 70.5348C55.4098 70.5348 55.63 70.4898 55.8288 70.3999C56.0301 70.3075 56.1982 70.1773 56.3331 70.0092C56.4704 69.8411 56.5627 69.6411 56.6101 69.4091H57.2493C57.2019 69.7382 57.0848 70.0317 56.8977 70.2898C56.7131 70.5455 56.4728 70.7467 56.1768 70.8935C55.8833 71.0402 55.5471 71.1136 55.1683 71.1136ZM58.6112 71V65.5455H59.2468V71H58.6112ZM58.9343 64.608C58.8041 64.608 58.6928 64.5642 58.6005 64.4766C58.5082 64.3866 58.462 64.2789 58.462 64.1534C58.462 64.0279 58.5082 63.9214 58.6005 63.8338C58.6928 63.7438 58.8041 63.6989 58.9343 63.6989C59.0645 63.6989 59.1758 63.7438 59.2681 63.8338C59.3604 63.9214 59.4066 64.0279 59.4066 64.1534C59.4066 64.2789 59.3604 64.3866 59.2681 64.4766C59.1758 64.5642 59.0645 64.608 58.9343 64.608ZM60.9185 73.0455V65.5455H61.5328V66.5859H61.6074C61.6832 66.4226 61.7873 66.2557 61.9199 66.0852C62.0525 65.9124 62.2277 65.7668 62.4455 65.6484C62.6657 65.5301 62.9426 65.4709 63.2765 65.4709C63.7263 65.4709 64.1193 65.5893 64.4554 65.826C64.794 66.0604 65.0568 66.3894 65.2438 66.8132C65.4332 67.2346 65.5279 67.7259 65.5279 68.2869C65.5279 68.8504 65.4332 69.344 65.2438 69.7678C65.0568 70.1915 64.794 70.5218 64.4554 70.7585C64.1193 70.9953 63.7286 71.1136 63.2836 71.1136C62.9545 71.1136 62.6787 71.0545 62.4561 70.9361C62.236 70.8177 62.0572 70.6721 61.9199 70.4993C61.785 70.3241 61.6808 70.1536 61.6074 69.9879H61.5506V73.0455H60.9185ZM61.5435 68.2763C61.5435 68.7166 61.6086 69.1072 61.7388 69.4482C61.8714 69.7867 62.0608 70.053 62.307 70.2472C62.5556 70.4389 62.8562 70.5348 63.209 70.5348C63.5712 70.5348 63.8766 70.4354 64.1252 70.2365C64.3761 70.0353 64.5667 69.7642 64.6969 69.4233C64.8295 69.0824 64.8958 68.7 64.8958 68.2763C64.8958 67.8572 64.8307 67.4796 64.7005 67.1435C64.5726 66.8073 64.3832 66.541 64.1323 66.3445C63.8813 66.1456 63.5736 66.0462 63.209 66.0462C62.8539 66.0462 62.552 66.142 62.3034 66.3338C62.0549 66.5232 61.8655 66.786 61.7353 67.1222C61.6074 67.456 61.5435 67.8407 61.5435 68.2763ZM68.438 71.1243C68.109 71.1243 67.8083 71.0604 67.536 70.9325C67.2638 70.8023 67.0472 70.6153 66.8862 70.3714C66.7252 70.1252 66.6447 69.8269 66.6447 69.4766C66.6447 69.2067 66.6956 68.9794 66.7974 68.7947C66.8992 68.6101 67.0436 68.4586 67.2306 68.3402C67.4177 68.2218 67.639 68.1283 67.8947 68.0597C68.1504 67.991 68.4321 67.9377 68.7399 67.8999C69.0453 67.862 69.3033 67.8288 69.514 67.8004C69.7271 67.772 69.8893 67.727 70.0005 67.6655C70.1118 67.6039 70.1674 67.5045 70.1674 67.3672V67.2393C70.1674 66.8677 70.0562 66.5753 69.8336 66.3622C69.6135 66.1468 69.2962 66.0391 68.8819 66.0391C68.4889 66.0391 68.1681 66.1255 67.9196 66.2983C67.6734 66.4711 67.5005 66.6747 67.4011 66.9091L66.801 66.6925C66.9241 66.3942 67.0945 66.1562 67.3123 65.9787C67.5301 65.7988 67.774 65.6697 68.0439 65.5916C68.3137 65.5111 68.5872 65.4709 68.8642 65.4709C69.0725 65.4709 69.2891 65.4981 69.514 65.5526C69.7413 65.607 69.952 65.7017 70.1461 65.8366C70.3403 65.9692 70.4977 66.1551 70.6184 66.3942C70.7392 66.6309 70.7995 66.9316 70.7995 67.2962V71H70.1674V70.1371H70.1284C70.0526 70.2981 69.9402 70.4543 69.791 70.6058C69.6419 70.7573 69.4548 70.8816 69.2299 70.9787C69.005 71.0758 68.7411 71.1243 68.438 71.1243ZM68.5233 70.5455C68.8594 70.5455 69.1506 70.4709 69.3968 70.3217C69.6431 70.1726 69.8324 69.9749 69.965 69.7287C70.1 69.4801 70.1674 69.2067 70.1674 68.9084V68.12C70.1201 68.165 70.0408 68.2053 69.9295 68.2408C69.8206 68.2763 69.694 68.3082 69.5495 68.3366C69.4075 68.3627 69.2654 68.3852 69.1234 68.4041C68.9814 68.4231 68.8535 68.4396 68.7399 68.4538C68.4321 68.4917 68.1693 68.5509 67.9515 68.6314C67.7337 68.7119 67.5668 68.8232 67.4508 68.9652C67.3348 69.1049 67.2768 69.2848 67.2768 69.505C67.2768 69.8364 67.3952 70.0933 67.6319 70.2756C67.8687 70.4555 68.1658 70.5455 68.5233 70.5455ZM74.6294 65.5455V66.0959H72.0265V65.5455H74.6294ZM72.8397 64.2386H73.4753V69.576C73.4753 69.8033 73.5144 69.982 73.5925 70.1122C73.6706 70.2401 73.7724 70.3312 73.8979 70.3857C74.0234 70.4377 74.1571 70.4638 74.2992 70.4638C74.382 70.4638 74.4531 70.459 74.5123 70.4496C74.5714 70.4377 74.6235 70.4259 74.6685 70.4141L74.8034 70.9858C74.7419 71.0095 74.6661 71.0308 74.5762 71.0497C74.4862 71.071 74.3749 71.0817 74.2424 71.0817C74.0104 71.0817 73.7866 71.0308 73.5712 70.929C73.3581 70.8272 73.1829 70.6757 73.0456 70.4744C72.9083 70.2732 72.8397 70.0234 72.8397 69.7251V64.2386ZM78.2116 71.1136C77.7027 71.1136 77.2623 70.9953 76.8906 70.7585C76.5189 70.5194 76.2313 70.1892 76.0277 69.7678C75.8265 69.344 75.7259 68.8563 75.7259 68.3047C75.7259 67.7554 75.8265 67.2678 76.0277 66.8416C76.2313 66.4131 76.5118 66.0781 76.8693 65.8366C77.2292 65.5928 77.6446 65.4709 78.1158 65.4709C78.4117 65.4709 78.697 65.5253 78.9716 65.6342C79.2462 65.7408 79.4924 65.9053 79.7102 66.1278C79.9304 66.348 80.1044 66.6262 80.2322 66.9624C80.3601 67.2962 80.424 67.6915 80.424 68.1484V68.4609H76.1626V67.9034H79.7777C79.7777 67.553 79.7067 67.2382 79.5646 66.9588C79.425 66.6771 79.2296 66.4545 78.9787 66.2912C78.7301 66.1278 78.4425 66.0462 78.1158 66.0462C77.7701 66.0462 77.4659 66.1385 77.2031 66.3232C76.9403 66.5078 76.7344 66.7517 76.5852 67.0547C76.4384 67.3577 76.3639 67.6892 76.3615 68.049V68.3828C76.3615 68.8161 76.4361 69.1948 76.5852 69.5192C76.7367 69.8411 76.951 70.0909 77.228 70.2685C77.505 70.446 77.8329 70.5348 78.2116 70.5348C78.4697 70.5348 78.6958 70.4946 78.8899 70.4141C79.0864 70.3336 79.2509 70.2259 79.3835 70.0909C79.5185 69.9536 79.6203 69.8033 79.6889 69.6399L80.2891 69.8352C80.2062 70.0649 80.0701 70.2768 79.8807 70.4709C79.6937 70.665 79.4593 70.8213 79.1776 70.9396C78.8982 71.0556 78.5762 71.1136 78.2116 71.1136ZM84.6365 71V65.5455H85.2722V71H84.6365ZM84.9597 64.608C84.8295 64.608 84.7182 64.5642 84.6259 64.4766C84.5336 64.3866 84.4874 64.2789 84.4874 64.1534C84.4874 64.0279 84.5336 63.9214 84.6259 63.8338C84.7182 63.7438 84.8295 63.6989 84.9597 63.6989C85.0899 63.6989 85.2012 63.7438 85.2935 63.8338C85.3858 63.9214 85.432 64.0279 85.432 64.1534C85.432 64.2789 85.3858 64.3866 85.2935 64.4766C85.2012 64.5642 85.0899 64.608 84.9597 64.608ZM87.576 67.5909V71H86.9439V65.5455H87.5582V66.4013H87.6151C87.7429 66.1219 87.9418 65.8982 88.2116 65.7301C88.4839 65.5597 88.8201 65.4744 89.2202 65.4744C89.5871 65.4744 89.9091 65.5514 90.1861 65.7053C90.4654 65.8568 90.6821 66.0805 90.8359 66.3764C90.9922 66.6723 91.0703 67.0357 91.0703 67.4666V71H90.4382V67.5057C90.4382 67.0582 90.3127 66.7043 90.0618 66.4439C89.8132 66.1835 89.4794 66.0533 89.0604 66.0533C88.7739 66.0533 88.5194 66.1148 88.2969 66.2379C88.0743 66.361 87.898 66.5386 87.7678 66.7706C87.6399 67.0002 87.576 67.2737 87.576 67.5909ZM20.6402 83V77.5455H21.2545V78.3835H21.3113C21.4202 78.1018 21.6014 77.8804 21.8547 77.7195C22.1104 77.5561 22.4169 77.4744 22.7744 77.4744C23.1508 77.4744 23.4598 77.5632 23.7013 77.7408C23.9451 77.916 24.1274 78.1574 24.2481 78.4652H24.2943C24.4174 78.1622 24.6175 77.9219 24.8944 77.7443C25.1738 77.5644 25.5123 77.4744 25.9101 77.4744C26.4167 77.4744 26.8168 77.6342 27.1104 77.9538C27.4039 78.2711 27.5507 78.7351 27.5507 79.3459V83H26.9186V79.3459C26.9186 78.915 26.8085 78.5919 26.5883 78.3764C26.3682 78.161 26.0782 78.0533 25.7183 78.0533C25.3016 78.0533 24.9809 78.1811 24.7559 78.4368C24.531 78.6925 24.4186 79.0168 24.4186 79.4098V83H23.7723V79.2891C23.7723 78.9197 23.6693 78.6214 23.4633 78.3942C23.2574 78.1669 22.9674 78.0533 22.5933 78.0533C22.3424 78.0533 22.1163 78.1148 21.915 78.2379C21.7162 78.361 21.5587 78.5327 21.4427 78.7528C21.3291 78.9706 21.2723 79.2216 21.2723 79.5057V83H20.6402ZM31.3442 83.1136C30.8731 83.1136 30.4564 82.9941 30.0942 82.755C29.7343 82.5159 29.4526 82.1856 29.249 81.7642C29.0454 81.3404 28.9436 80.8516 28.9436 80.2976C28.9436 79.7389 29.0454 79.2476 29.249 78.8239C29.4526 78.3977 29.7343 78.0663 30.0942 77.8295C30.4564 77.5904 30.8731 77.4709 31.3442 77.4709C31.8153 77.4709 32.2308 77.5904 32.5906 77.8295C32.9505 78.0687 33.2322 78.4001 33.4358 78.8239C33.6418 79.2476 33.7448 79.7389 33.7448 80.2976C33.7448 80.8516 33.643 81.3404 33.4394 81.7642C33.2358 82.1856 32.9529 82.5159 32.5906 82.755C32.2308 82.9941 31.8153 83.1136 31.3442 83.1136ZM31.3442 82.5348C31.723 82.5348 32.0438 82.433 32.3066 82.2294C32.5693 82.0258 32.7682 81.7547 32.9031 81.4162C33.0405 81.0777 33.1091 80.7048 33.1091 80.2976C33.1091 79.8904 33.0405 79.5163 32.9031 79.1754C32.7682 78.8345 32.5693 78.5611 32.3066 78.3551C32.0438 78.1491 31.723 78.0462 31.3442 78.0462C30.9678 78.0462 30.647 78.1491 30.3818 78.3551C30.1191 78.5611 29.919 78.8345 29.7817 79.1754C29.6468 79.5163 29.5793 79.8904 29.5793 80.2976C29.5793 80.7048 29.6468 81.0777 29.7817 81.4162C29.919 81.7547 30.1191 82.0258 30.3818 82.2294C30.6446 82.433 30.9654 82.5348 31.3442 82.5348ZM35.1324 83V77.5455H35.7467V78.3835H35.7929C35.9018 78.1089 36.0912 77.8875 36.3611 77.7195C36.6333 77.549 36.9411 77.4638 37.2844 77.4638C37.3364 77.4638 37.3944 77.465 37.4584 77.4673C37.5223 77.4697 37.5756 77.4721 37.6182 77.4744V78.1172C37.5898 78.1125 37.54 78.1054 37.469 78.0959C37.398 78.0864 37.3211 78.0817 37.2382 78.0817C36.9541 78.0817 36.7008 78.142 36.4782 78.2628C36.2581 78.3812 36.0841 78.5457 35.9562 78.7564C35.8284 78.9671 35.7645 79.2074 35.7645 79.4773V83H35.1324ZM40.7361 83.1136C40.2271 83.1136 39.7867 82.9953 39.415 82.7585C39.0434 82.5194 38.7557 82.1892 38.5521 81.7678C38.3509 81.344 38.2503 80.8563 38.2503 80.3047C38.2503 79.7554 38.3509 79.2678 38.5521 78.8416C38.7557 78.4131 39.0363 78.0781 39.3937 77.8366C39.7536 77.5928 40.1691 77.4709 40.6402 77.4709C40.9361 77.4709 41.2214 77.5253 41.496 77.6342C41.7706 77.7408 42.0168 77.9053 42.2346 78.1278C42.4548 78.348 42.6288 78.6262 42.7567 78.9624C42.8845 79.2962 42.9484 79.6915 42.9484 80.1484V80.4609H38.6871V79.9034H42.3021C42.3021 79.553 42.2311 79.2382 42.089 78.9588C41.9494 78.6771 41.7541 78.4545 41.5031 78.2912C41.2545 78.1278 40.9669 78.0462 40.6402 78.0462C40.2945 78.0462 39.9903 78.1385 39.7275 78.3232C39.4648 78.5078 39.2588 78.7517 39.1096 79.0547C38.9629 79.3577 38.8883 79.6892 38.8859 80.049V80.3828C38.8859 80.8161 38.9605 81.1948 39.1096 81.5192C39.2612 81.8411 39.4754 82.0909 39.7524 82.2685C40.0294 82.446 40.3573 82.5348 40.7361 82.5348C40.9941 82.5348 41.2202 82.4946 41.4143 82.4141C41.6108 82.3336 41.7754 82.2259 41.9079 82.0909C42.0429 81.9536 42.1447 81.8033 42.2133 81.6399L42.8135 81.8352C42.7306 82.0649 42.5945 82.2768 42.4051 82.4709C42.2181 82.665 41.9837 82.8213 41.702 82.9396C41.4226 83.0556 41.1006 83.1136 40.7361 83.1136ZM49.2845 83.1136C48.7968 83.1136 48.3719 82.9917 48.0097 82.7479C47.6498 82.504 47.3705 82.1702 47.1716 81.7464C46.9727 81.3227 46.8733 80.8397 46.8733 80.2976C46.8733 79.7507 46.9739 79.2642 47.1752 78.8381C47.3788 78.4119 47.6605 78.0781 48.0203 77.8366C48.3802 77.5928 48.798 77.4709 49.2739 77.4709C49.6385 77.4709 49.9687 77.5419 50.2646 77.6839C50.5606 77.8236 50.8044 78.0213 50.9962 78.277C51.1903 78.5303 51.3122 78.8262 51.3619 79.1648H50.7227C50.6565 78.857 50.4967 78.5942 50.2433 78.3764C49.9924 78.1562 49.6728 78.0462 49.2845 78.0462C48.9365 78.0462 48.6288 78.1409 48.3612 78.3303C48.0937 78.5173 47.8842 78.7789 47.7327 79.1151C47.5835 79.4489 47.509 79.8359 47.509 80.2763C47.509 80.719 47.5824 81.1108 47.7291 81.4517C47.8759 81.7902 48.0819 82.0554 48.347 82.2472C48.6146 82.4389 48.9271 82.5348 49.2845 82.5348C49.526 82.5348 49.7462 82.4898 49.945 82.3999C50.1463 82.3075 50.3144 82.1773 50.4493 82.0092C50.5866 81.8411 50.6789 81.6411 50.7263 81.4091H51.3655C51.3182 81.7382 51.201 82.0317 51.0139 82.2898C50.8293 82.5455 50.589 82.7467 50.2931 82.8935C49.9995 83.0402 49.6633 83.1136 49.2845 83.1136ZM54.8403 83.1136C54.3692 83.1136 53.9525 82.9941 53.5903 82.755C53.2304 82.5159 52.9487 82.1856 52.7451 81.7642C52.5415 81.3404 52.4397 80.8516 52.4397 80.2976C52.4397 79.7389 52.5415 79.2476 52.7451 78.8239C52.9487 78.3977 53.2304 78.0663 53.5903 77.8295C53.9525 77.5904 54.3692 77.4709 54.8403 77.4709C55.3114 77.4709 55.7269 77.5904 56.0867 77.8295C56.4466 78.0687 56.7283 78.4001 56.9319 78.8239C57.1379 79.2476 57.2409 79.7389 57.2409 80.2976C57.2409 80.8516 57.1391 81.3404 56.9355 81.7642C56.7319 82.1856 56.449 82.5159 56.0867 82.755C55.7269 82.9941 55.3114 83.1136 54.8403 83.1136ZM54.8403 82.5348C55.2191 82.5348 55.5399 82.433 55.8026 82.2294C56.0654 82.0258 56.2643 81.7547 56.3992 81.4162C56.5365 81.0777 56.6052 80.7048 56.6052 80.2976C56.6052 79.8904 56.5365 79.5163 56.3992 79.1754C56.2643 78.8345 56.0654 78.5611 55.8026 78.3551C55.5399 78.1491 55.2191 78.0462 54.8403 78.0462C54.4639 78.0462 54.1431 78.1491 53.8779 78.3551C53.6151 78.5611 53.4151 78.8345 53.2778 79.1754C53.1428 79.5163 53.0754 79.8904 53.0754 80.2976C53.0754 80.7048 53.1428 81.0777 53.2778 81.4162C53.4151 81.7547 53.6151 82.0258 53.8779 82.2294C54.1407 82.433 54.4615 82.5348 54.8403 82.5348ZM62.0944 80.9155V77.5455H62.7265V83H62.0944V82.0945H62.0447C61.9168 82.3738 61.7144 82.607 61.4374 82.794C61.1604 82.9787 60.8219 83.071 60.4218 83.071C60.0738 83.071 59.7648 82.9953 59.4949 82.8438C59.2251 82.6899 59.0132 82.465 58.8593 82.169C58.7054 81.8731 58.6285 81.5097 58.6285 81.0788V77.5455H59.2606V81.0398C59.2606 81.4659 59.386 81.8092 59.637 82.0696C59.8879 82.3277 60.2099 82.4567 60.6029 82.4567C60.8491 82.4567 61.0858 82.3975 61.3131 82.2791C61.5404 82.1607 61.7274 81.9879 61.8742 81.7607C62.021 81.531 62.0944 81.2493 62.0944 80.9155ZM64.3999 83V77.5455H65.0143V78.3835H65.0605C65.1694 78.1089 65.3588 77.8875 65.6286 77.7195C65.9009 77.549 66.2087 77.4638 66.5519 77.4638C66.604 77.4638 66.662 77.465 66.7259 77.4673C66.7899 77.4697 66.8431 77.4721 66.8857 77.4744V78.1172C66.8573 78.1125 66.8076 78.1054 66.7366 78.0959C66.6656 78.0864 66.5886 78.0817 66.5058 78.0817C66.2217 78.0817 65.9684 78.142 65.7458 78.2628C65.5257 78.3812 65.3517 78.5457 65.2238 78.7564C65.096 78.9671 65.032 79.2074 65.032 79.4773V83H64.3999ZM71.6292 78.7422L71.0503 78.9055C70.9935 78.7422 70.913 78.5942 70.8089 78.4616C70.7047 78.3291 70.5686 78.2237 70.4005 78.1456C70.2348 78.0675 70.0288 78.0284 69.7826 78.0284C69.4133 78.0284 69.1102 78.116 68.8735 78.2912C68.6367 78.4664 68.5184 78.6925 68.5184 78.9695C68.5184 79.2038 68.5989 79.3944 68.7599 79.5412C68.9232 79.6856 69.1742 79.8004 69.5127 79.8857L70.3366 80.0881C70.7935 80.1993 71.1356 80.3757 71.3628 80.6172C71.5925 80.8587 71.7073 81.1617 71.7073 81.5263C71.7073 81.834 71.6221 82.1075 71.4516 82.3466C71.2812 82.5857 71.0432 82.7739 70.7378 82.9112C70.4348 83.0462 70.0832 83.1136 69.6831 83.1136C69.1505 83.1136 68.7113 82.9941 68.3657 82.755C68.02 82.5135 67.7987 82.1655 67.7016 81.7109L68.3089 81.5618C68.387 81.8861 68.5397 82.1312 68.767 82.2969C68.9966 82.4626 69.2984 82.5455 69.6725 82.5455C70.0915 82.5455 70.4265 82.4519 70.6775 82.2649C70.9284 82.0755 71.0539 81.8388 71.0539 81.5547C71.0539 81.3345 70.9805 81.1499 70.8337 81.0007C70.6869 80.8492 70.4644 80.7379 70.1661 80.6669L69.2748 80.4538C68.8013 80.3402 68.4509 80.1603 68.2236 79.9141C67.9964 79.6679 67.8827 79.3625 67.8827 78.9979C67.8827 78.6972 67.9644 78.4332 68.1278 78.206C68.2911 77.9763 68.516 77.7964 68.8025 77.6662C69.0889 77.536 69.4156 77.4709 69.7826 77.4709C70.2821 77.4709 70.681 77.5845 70.9793 77.8118C71.28 78.0367 71.4966 78.3468 71.6292 78.7422ZM75.2966 83.1136C74.7876 83.1136 74.3473 82.9953 73.9756 82.7585C73.6039 82.5194 73.3163 82.1892 73.1127 81.7678C72.9114 81.344 72.8108 80.8563 72.8108 80.3047C72.8108 79.7554 72.9114 79.2678 73.1127 78.8416C73.3163 78.4131 73.5968 78.0781 73.9543 77.8366C74.3141 77.5928 74.7296 77.4709 75.2007 77.4709C75.4967 77.4709 75.7819 77.5253 76.0566 77.6342C76.3312 77.7408 76.5774 77.9053 76.7952 78.1278C77.0154 78.348 77.1894 78.6262 77.3172 78.9624C77.445 79.2962 77.509 79.6915 77.509 80.1484V80.4609H73.2476V79.9034H76.8627C76.8627 79.553 76.7916 79.2382 76.6496 78.9588C76.5099 78.6771 76.3146 78.4545 76.0637 78.2912C75.8151 78.1278 75.5274 78.0462 75.2007 78.0462C74.8551 78.0462 74.5509 78.1385 74.2881 78.3232C74.0253 78.5078 73.8193 78.7517 73.6702 79.0547C73.5234 79.3577 73.4488 79.6892 73.4465 80.049V80.3828C73.4465 80.8161 73.521 81.1948 73.6702 81.5192C73.8217 81.8411 74.036 82.0909 74.3129 82.2685C74.5899 82.446 74.9178 82.5348 75.2966 82.5348C75.5547 82.5348 75.7807 82.4946 75.9749 82.4141C76.1714 82.3336 76.3359 82.2259 76.4685 82.0909C76.6034 81.9536 76.7052 81.8033 76.7739 81.6399L77.374 81.8352C77.2912 82.0649 77.155 82.2768 76.9656 82.4709C76.7786 82.665 76.5442 82.8213 76.2625 82.9396C75.9832 83.0556 75.6612 83.1136 75.2966 83.1136ZM82.5667 78.7422L81.9878 78.9055C81.931 78.7422 81.8505 78.5942 81.7464 78.4616C81.6422 78.3291 81.5061 78.2237 81.338 78.1456C81.1723 78.0675 80.9663 78.0284 80.7201 78.0284C80.3508 78.0284 80.0477 78.116 79.811 78.2912C79.5742 78.4664 79.4559 78.6925 79.4559 78.9695C79.4559 79.2038 79.5364 79.3944 79.6974 79.5412C79.8607 79.6856 80.1117 79.8004 80.4502 79.8857L81.2741 80.0881C81.731 80.1993 82.0731 80.3757 82.3003 80.6172C82.53 80.8587 82.6448 81.1617 82.6448 81.5263C82.6448 81.834 82.5596 82.1075 82.3891 82.3466C82.2187 82.5857 81.9807 82.7739 81.6753 82.9112C81.3723 83.0462 81.0207 83.1136 80.6206 83.1136C80.088 83.1136 79.6488 82.9941 79.3032 82.755C78.9575 82.5135 78.7362 82.1655 78.6391 81.7109L79.2464 81.5618C79.3245 81.8861 79.4772 82.1312 79.7045 82.2969C79.9341 82.4626 80.2359 82.5455 80.61 82.5455C81.029 82.5455 81.364 82.4519 81.615 82.2649C81.8659 82.0755 81.9914 81.8388 81.9914 81.5547C81.9914 81.3345 81.918 81.1499 81.7712 81.0007C81.6244 80.8492 81.4019 80.7379 81.1036 80.6669L80.2123 80.4538C79.7388 80.3402 79.3884 80.1603 79.1611 79.9141C78.9339 79.6679 78.8202 79.3625 78.8202 78.9979C78.8202 78.6972 78.9019 78.4332 79.0653 78.206C79.2286 77.9763 79.4535 77.7964 79.74 77.6662C80.0264 77.536 80.3531 77.4709 80.7201 77.4709C81.2196 77.4709 81.6185 77.5845 81.9168 77.8118C82.2175 78.0367 82.4341 78.3468 82.5667 78.7422Z" fill="#333333"/>
</svg>
