<svg width="105" height="105" viewBox="0 0 105 105" fill="none" xmlns="http://www.w3.org/2000/svg">
<path d="M94.2222 21.7981C93.9276 22.8825 94.5787 24.3904 95.2002 25.4774C95.3937 25.8015 95.6036 26.1155 95.8291 26.4182C101.159 34.5016 104 43.9713 104 53.6538C104.086 81.4465 81.0402 104 52.542 104C27.6883 104 6.94229 86.7822 2.09437 63.9266C1.36802 60.538 1.0012 57.0822 0.999998 53.6167C0.999998 25.7844 23.1573 2.87677 51.6556 2.87677C56.1866 2.87677 62.3022 4.01572 65.6373 4.94916C68.9724 5.8826 72.3026 7.12057 73.1617 7.45235C74.0404 7.79011 74.9736 7.96383 75.915 7.96488C76.9432 7.96879 77.9616 7.76411 78.9084 7.36322L95.7028 1.30207C96.0708 1.14349 96.4606 1.04164 96.8591 0.999998C97.1736 1.00095 97.4847 1.06428 97.7745 1.18634C98.0643 1.30839 98.327 1.48673 98.5474 1.71104C98.7678 1.93534 98.9415 2.20114 99.0584 2.49305C99.1753 2.78495 99.2332 3.09716 99.2286 3.41158C99.2079 3.68759 99.1581 3.96064 99.08 4.22618L94.2222 21.7981Z" stroke="#CFCFDD" stroke-miterlimit="10" stroke-linecap="round"/>
<path d="M23.2989 19.7273V27H22.6349V19.7273H23.2989ZM28.5457 23.5909V27H27.9136V19.7273H28.5457V22.4013H28.6025C28.7304 22.1196 28.9281 21.8946 29.1956 21.7266C29.4655 21.5585 29.8064 21.4744 30.2183 21.4744C30.5876 21.4744 30.912 21.5502 31.1913 21.7017C31.4707 21.8532 31.6885 22.0769 31.8447 22.3729C32.001 22.6688 32.0791 23.0334 32.0791 23.4666V27H31.4434V23.5057C31.4434 23.0559 31.318 22.7019 31.067 22.4439C30.8184 22.1835 30.4823 22.0533 30.0585 22.0533C29.7673 22.0533 29.5081 22.1148 29.2808 22.2379C29.0535 22.361 28.8736 22.5386 28.741 22.7706C28.6108 23.0002 28.5457 23.2737 28.5457 23.5909ZM35.2671 27.1243C34.9381 27.1243 34.6374 27.0604 34.3651 26.9325C34.0929 26.8023 33.8763 26.6153 33.7153 26.3714C33.5543 26.1252 33.4738 25.8269 33.4738 25.4766C33.4738 25.2067 33.5247 24.9794 33.6265 24.7947C33.7283 24.6101 33.8727 24.4586 34.0597 24.3402C34.2468 24.2218 34.4681 24.1283 34.7238 24.0597C34.9795 23.991 35.2612 23.9377 35.569 23.8999C35.8744 23.862 36.1324 23.8288 36.3431 23.8004C36.5562 23.772 36.7184 23.727 36.8296 23.6655C36.9409 23.6039 36.9965 23.5045 36.9965 23.3672V23.2393C36.9965 22.8677 36.8853 22.5753 36.6627 22.3622C36.4426 22.1468 36.1253 22.0391 35.711 22.0391C35.318 22.0391 34.9972 22.1255 34.7487 22.2983C34.5025 22.4711 34.3296 22.6747 34.2302 22.9091L33.6301 22.6925C33.7532 22.3942 33.9236 22.1562 34.1414 21.9787C34.3592 21.7988 34.6031 21.6697 34.873 21.5916C35.1428 21.5111 35.4163 21.4709 35.6933 21.4709C35.9016 21.4709 36.1182 21.4981 36.3431 21.5526C36.5704 21.607 36.7811 21.7017 36.9752 21.8366C37.1694 21.9692 37.3268 22.1551 37.4475 22.3942C37.5683 22.6309 37.6286 22.9316 37.6286 23.2962V27H36.9965V26.1371H36.9575C36.8817 26.2981 36.7693 26.4543 36.6201 26.6058C36.471 26.7573 36.2839 26.8816 36.059 26.9787C35.8341 27.0758 35.5702 27.1243 35.2671 27.1243ZM35.3524 26.5455C35.6885 26.5455 35.9797 26.4709 36.2259 26.3217C36.4722 26.1726 36.6615 25.9749 36.7941 25.7287C36.9291 25.4801 36.9965 25.2067 36.9965 24.9084V24.12C36.9492 24.165 36.8699 24.2053 36.7586 24.2408C36.6497 24.2763 36.5231 24.3082 36.3786 24.3366C36.2366 24.3627 36.0945 24.3852 35.9525 24.4041C35.8105 24.4231 35.6826 24.4396 35.569 24.4538C35.2612 24.4917 34.9984 24.5509 34.7806 24.6314C34.5628 24.7119 34.3959 24.8232 34.2799 24.9652C34.1639 25.1049 34.1059 25.2848 34.1059 25.505C34.1059 25.8364 34.2243 26.0933 34.461 26.2756C34.6978 26.4555 34.9949 26.5455 35.3524 26.5455ZM41.2739 27.1136C40.8264 27.1136 40.4346 26.9953 40.0985 26.7585C39.7623 26.5218 39.4995 26.1915 39.3101 25.7678C39.1231 25.344 39.0296 24.8504 39.0296 24.2869C39.0296 23.7259 39.1231 23.2346 39.3101 22.8132C39.4995 22.3894 39.7635 22.0604 40.102 21.826C40.4405 21.5893 40.8347 21.4709 41.2845 21.4709C41.616 21.4709 41.8918 21.5301 42.1119 21.6484C42.3321 21.7644 42.5085 21.9089 42.6411 22.0817C42.7736 22.2545 42.8766 22.4226 42.95 22.5859H43.0068V19.7273H43.6425V27H43.0246V25.9879H42.95C42.8766 26.1536 42.7725 26.3241 42.6375 26.4993C42.5026 26.6721 42.3238 26.8177 42.1013 26.9361C41.8811 27.0545 41.6053 27.1136 41.2739 27.1136ZM41.3485 26.5348C41.7012 26.5348 42.0019 26.4389 42.2504 26.2472C42.499 26.053 42.6884 25.7867 42.8186 25.4482C42.9512 25.1072 43.0175 24.7166 43.0175 24.2763C43.0175 23.8407 42.9524 23.456 42.8222 23.1222C42.692 22.786 42.5026 22.5232 42.254 22.3338C42.0054 22.142 41.7036 22.0462 41.3485 22.0462C40.9839 22.0462 40.6761 22.1456 40.4252 22.3445C40.1766 22.541 39.9872 22.8073 39.857 23.1435C39.7291 23.4796 39.6652 23.8572 39.6652 24.2763C39.6652 24.7 39.7303 25.0824 39.8605 25.4233C39.9907 25.7642 40.1801 26.0353 40.4287 26.2365C40.6797 26.4354 40.9862 26.5348 41.3485 26.5348ZM50.4039 21.5455V22.0959H47.8009V21.5455H50.4039ZM48.6141 20.2386H49.2497V25.576C49.2497 25.8033 49.2888 25.982 49.3669 26.1122C49.445 26.2401 49.5468 26.3312 49.6723 26.3857C49.7978 26.4377 49.9316 26.4638 50.0736 26.4638C50.1565 26.4638 50.2275 26.459 50.2867 26.4496C50.3459 26.4377 50.3979 26.4259 50.4429 26.4141L50.5779 26.9858C50.5163 27.0095 50.4405 27.0308 50.3506 27.0497C50.2606 27.071 50.1494 27.0817 50.0168 27.0817C49.7848 27.0817 49.561 27.0308 49.3456 26.929C49.1325 26.8272 48.9574 26.6757 48.82 26.4744C48.6827 26.2732 48.6141 26.0234 48.6141 25.7251V20.2386ZM51.8394 27V21.5455H52.4537V22.3835H52.4999C52.6088 22.1089 52.7982 21.8875 53.0681 21.7195C53.3403 21.549 53.6481 21.4638 53.9914 21.4638C54.0435 21.4638 54.1015 21.465 54.1654 21.4673C54.2293 21.4697 54.2826 21.4721 54.3252 21.4744V22.1172C54.2968 22.1125 54.2471 22.1054 54.176 22.0959C54.105 22.0864 54.0281 22.0817 53.9452 22.0817C53.6611 22.0817 53.4078 22.142 53.1853 22.2628C52.9651 22.3812 52.7911 22.5457 52.6633 22.7564C52.5354 22.9671 52.4715 23.2074 52.4715 23.4773V27H51.8394ZM57.3579 27.1136C56.8867 27.1136 56.4701 26.9941 56.1079 26.755C55.748 26.5159 55.4663 26.1856 55.2627 25.7642C55.0591 25.3404 54.9573 24.8516 54.9573 24.2976C54.9573 23.7389 55.0591 23.2476 55.2627 22.8239C55.4663 22.3977 55.748 22.0663 56.1079 21.8295C56.4701 21.5904 56.8867 21.4709 57.3579 21.4709C57.829 21.4709 58.2445 21.5904 58.6043 21.8295C58.9642 22.0687 59.2459 22.4001 59.4495 22.8239C59.6555 23.2476 59.7584 23.7389 59.7584 24.2976C59.7584 24.8516 59.6566 25.3404 59.453 25.7642C59.2494 26.1856 58.9665 26.5159 58.6043 26.755C58.2445 26.9941 57.829 27.1136 57.3579 27.1136ZM57.3579 26.5348C57.7367 26.5348 58.0574 26.433 58.3202 26.2294C58.583 26.0258 58.7819 25.7547 58.9168 25.4162C59.0541 25.0777 59.1228 24.7048 59.1228 24.2976C59.1228 23.8904 59.0541 23.5163 58.9168 23.1754C58.7819 22.8345 58.583 22.5611 58.3202 22.3551C58.0574 22.1491 57.7367 22.0462 57.3579 22.0462C56.9814 22.0462 56.6607 22.1491 56.3955 22.3551C56.1327 22.5611 55.9327 22.8345 55.7954 23.1754C55.6604 23.5163 55.593 23.8904 55.593 24.2976C55.593 24.7048 55.6604 25.0777 55.7954 25.4162C55.9327 25.7547 56.1327 26.0258 56.3955 26.2294C56.6583 26.433 56.9791 26.5348 57.3579 26.5348ZM64.6119 24.9155V21.5455H65.2441V27H64.6119V26.0945H64.5622C64.4344 26.3738 64.232 26.607 63.955 26.794C63.678 26.9787 63.3395 27.071 62.9394 27.071C62.5914 27.071 62.2824 26.9953 62.0125 26.8438C61.7426 26.6899 61.5307 26.465 61.3769 26.169C61.223 25.8731 61.146 25.5097 61.146 25.0788V21.5455H61.7781V25.0398C61.7781 25.4659 61.9036 25.8092 62.1546 26.0696C62.4055 26.3277 62.7275 26.4567 63.1205 26.4567C63.3667 26.4567 63.6034 26.3975 63.8307 26.2791C64.058 26.1607 64.245 25.9879 64.3918 25.7607C64.5386 25.531 64.6119 25.2493 64.6119 24.9155ZM67.0489 27V19.7273H67.6846V22.5859H67.7414C67.8124 22.4226 67.9142 22.2545 68.0468 22.0817C68.1817 21.9089 68.3581 21.7644 68.5759 21.6484C68.7961 21.5301 69.0731 21.4709 69.4069 21.4709C69.8543 21.4709 70.2473 21.5893 70.5858 21.826C70.9244 22.0604 71.1884 22.3894 71.3778 22.8132C71.5671 23.2346 71.6618 23.7259 71.6618 24.2869C71.6618 24.8504 71.5671 25.344 71.3778 25.7678C71.1907 26.1915 70.9279 26.5218 70.5894 26.7585C70.2532 26.9953 69.8626 27.1136 69.4175 27.1136C69.0861 27.1136 68.8091 27.0545 68.5866 26.9361C68.3664 26.8177 68.1888 26.6721 68.0539 26.4993C67.9189 26.3241 67.8148 26.1536 67.7414 25.9879H67.6633V27H67.0489ZM67.6739 24.2763C67.6739 24.7166 67.739 25.1072 67.8692 25.4482C68.0018 25.7867 68.1912 26.053 68.4374 26.2472C68.686 26.4389 68.9867 26.5348 69.3394 26.5348C69.7016 26.5348 70.0082 26.4354 70.2591 26.2365C70.5101 26.0353 70.7007 25.7642 70.8309 25.4233C70.9611 25.0824 71.0262 24.7 71.0262 24.2763C71.0262 23.8572 70.9611 23.4796 70.8309 23.1435C70.703 22.8073 70.5136 22.541 70.2627 22.3445C70.0117 22.1456 69.704 22.0462 69.3394 22.0462C68.9843 22.0462 68.6824 22.142 68.4339 22.3338C68.1876 22.5232 67.9994 22.786 67.8692 23.1222C67.739 23.456 67.6739 23.8407 67.6739 24.2763ZM73.6824 19.7273V27H73.0503V19.7273H73.6824ZM77.5603 27.1136C77.0513 27.1136 76.6109 26.9953 76.2393 26.7585C75.8676 26.5194 75.5799 26.1892 75.3763 25.7678C75.1751 25.344 75.0745 24.8563 75.0745 24.3047C75.0745 23.7554 75.1751 23.2678 75.3763 22.8416C75.5799 22.4131 75.8605 22.0781 76.218 21.8366C76.5778 21.5928 76.9933 21.4709 77.4644 21.4709C77.7603 21.4709 78.0456 21.5253 78.3202 21.6342C78.5948 21.7408 78.8411 21.9053 79.0589 22.1278C79.279 22.348 79.453 22.6262 79.5809 22.9624C79.7087 23.2962 79.7726 23.6915 79.7726 24.1484V24.4609H75.5113V23.9034H79.1263C79.1263 23.553 79.0553 23.2382 78.9133 22.9588C78.7736 22.6771 78.5783 22.4545 78.3273 22.2912C78.0787 22.1278 77.7911 22.0462 77.4644 22.0462C77.1188 22.0462 76.8145 22.1385 76.5518 22.3232C76.289 22.5078 76.083 22.7517 75.9339 23.0547C75.7871 23.3577 75.7125 23.6892 75.7101 24.049V24.3828C75.7101 24.8161 75.7847 25.1948 75.9339 25.5192C76.0854 25.8411 76.2996 26.0909 76.5766 26.2685C76.8536 26.446 77.1815 26.5348 77.5603 26.5348C77.8183 26.5348 78.0444 26.4946 78.2385 26.4141C78.435 26.3336 78.5996 26.2259 78.7322 26.0909C78.8671 25.9536 78.9689 25.8033 79.0376 25.6399L79.6377 25.8352C79.5548 26.0649 79.4187 26.2768 79.2293 26.4709C79.0423 26.665 78.8079 26.8213 78.5262 26.9396C78.2468 27.0556 77.9249 27.1136 77.5603 27.1136ZM16.4128 33.5455V34.0959H13.7317V33.5455H16.4128ZM14.5698 39V32.7464C14.5698 32.4529 14.6373 32.2055 14.7722 32.0043C14.9095 31.803 15.0882 31.6503 15.3084 31.5462C15.5286 31.442 15.7618 31.3899 16.008 31.3899C16.1737 31.3899 16.311 31.4041 16.4199 31.4325C16.5312 31.4586 16.6188 31.4846 16.6827 31.5107L16.498 32.0646C16.4507 32.0504 16.3927 32.0339 16.324 32.0149C16.2554 31.996 16.169 31.9865 16.0648 31.9865C15.7902 31.9865 15.5783 32.0634 15.4292 32.2173C15.28 32.3712 15.2054 32.5914 15.2054 32.8778L15.2019 39H14.5698ZM17.6815 39V33.5455H18.3171V39H17.6815ZM18.0046 32.608C17.8744 32.608 17.7631 32.5642 17.6708 32.4766C17.5785 32.3866 17.5323 32.2789 17.5323 32.1534C17.5323 32.0279 17.5785 31.9214 17.6708 31.8338C17.7631 31.7438 17.8744 31.6989 18.0046 31.6989C18.1348 31.6989 18.2461 31.7438 18.3384 31.8338C18.4308 31.9214 18.4769 32.0279 18.4769 32.1534C18.4769 32.2789 18.4308 32.3866 18.3384 32.4766C18.2461 32.5642 18.1348 32.608 18.0046 32.608ZM20.6209 35.5909V39H19.9888V33.5455H20.6032V34.4013H20.66C20.7878 34.1219 20.9867 33.8982 21.2566 33.7301C21.5288 33.5597 21.865 33.4744 22.2651 33.4744C22.632 33.4744 22.954 33.5514 23.231 33.7053C23.5104 33.8568 23.727 34.0805 23.8809 34.3764C24.0371 34.6723 24.1152 35.0357 24.1152 35.4666V39H23.4831V35.5057C23.4831 35.0582 23.3577 34.7043 23.1067 34.4439C22.8581 34.1835 22.5243 34.0533 22.1053 34.0533C21.8188 34.0533 21.5643 34.1148 21.3418 34.2379C21.1193 34.361 20.9429 34.5386 20.8127 34.7706C20.6848 35.0002 20.6209 35.2737 20.6209 35.5909ZM27.7436 39.1136C27.2962 39.1136 26.9044 38.9953 26.5682 38.7585C26.232 38.5218 25.9692 38.1915 25.7798 37.7678C25.5928 37.344 25.4993 36.8504 25.4993 36.2869C25.4993 35.7259 25.5928 35.2346 25.7798 34.8132C25.9692 34.3894 26.2332 34.0604 26.5717 33.826C26.9103 33.5893 27.3045 33.4709 27.7543 33.4709C28.0857 33.4709 28.3615 33.5301 28.5817 33.6484C28.8018 33.7644 28.9782 33.9089 29.1108 34.0817C29.2434 34.2545 29.3464 34.4226 29.4197 34.5859H29.4766V31.7273H30.1122V39H29.4943V37.9879H29.4197C29.3464 38.1536 29.2422 38.3241 29.1072 38.4993C28.9723 38.6721 28.7936 38.8177 28.571 38.9361C28.3509 39.0545 28.075 39.1136 27.7436 39.1136ZM27.8182 38.5348C28.1709 38.5348 28.4716 38.4389 28.7202 38.2472C28.9688 38.053 29.1581 37.7867 29.2884 37.4482C29.4209 37.1072 29.4872 36.7166 29.4872 36.2763C29.4872 35.8407 29.4221 35.456 29.2919 35.1222C29.1617 34.786 28.9723 34.5232 28.7237 34.3338C28.4751 34.142 28.1733 34.0462 27.8182 34.0462C27.4536 34.0462 27.1458 34.1456 26.8949 34.3445C26.6463 34.541 26.4569 34.8073 26.3267 35.1435C26.1989 35.4796 26.1349 35.8572 26.1349 36.2763C26.1349 36.7 26.2 37.0824 26.3303 37.4233C26.4605 37.7642 26.6499 38.0353 26.8984 38.2365C27.1494 38.4354 27.456 38.5348 27.8182 38.5348ZM31.9197 39V33.5455H32.5554V39H31.9197ZM32.2429 32.608C32.1127 32.608 32.0014 32.5642 31.9091 32.4766C31.8168 32.3866 31.7706 32.2789 31.7706 32.1534C31.7706 32.0279 31.8168 31.9214 31.9091 31.8338C32.0014 31.7438 32.1127 31.6989 32.2429 31.6989C32.3731 31.6989 32.4844 31.7438 32.5767 31.8338C32.669 31.9214 32.7152 32.0279 32.7152 32.1534C32.7152 32.2789 32.669 32.3866 32.5767 32.4766C32.4844 32.5642 32.3731 32.608 32.2429 32.608ZM34.8592 35.5909V39H34.2271V33.5455H34.8414V34.4013H34.8983C35.0261 34.1219 35.225 33.8982 35.4949 33.7301C35.7671 33.5597 36.1033 33.4744 36.5034 33.4744C36.8703 33.4744 37.1923 33.5514 37.4693 33.7053C37.7486 33.8568 37.9653 34.0805 38.1191 34.3764C38.2754 34.6723 38.3535 35.0357 38.3535 35.4666V39H37.7214V35.5057C37.7214 35.0582 37.5959 34.7043 37.345 34.4439C37.0964 34.1835 36.7626 34.0533 36.3436 34.0533C36.0571 34.0533 35.8026 34.1148 35.5801 34.2379C35.3575 34.361 35.1812 34.5386 35.051 34.7706C34.9231 35.0002 34.8592 35.2737 34.8592 35.5909ZM42.0991 41.1591C41.7274 41.1591 41.4019 41.1106 41.1225 41.0135C40.8432 40.9188 40.6076 40.7886 40.4158 40.6229C40.2241 40.4571 40.0749 40.2713 39.9684 40.0653L40.4869 39.7244C40.565 39.8617 40.6692 39.9967 40.7994 40.1293C40.9319 40.2618 41.1036 40.3719 41.3143 40.4595C41.5273 40.5471 41.7889 40.5909 42.0991 40.5909C42.582 40.5909 42.9715 40.4702 43.2674 40.2287C43.5657 39.9872 43.7148 39.612 43.7148 39.103V37.8743H43.658C43.5846 38.04 43.4793 38.2057 43.342 38.3714C43.2047 38.5348 43.0247 38.6709 42.8022 38.7798C42.582 38.8887 42.3086 38.9432 41.9819 38.9432C41.5463 38.9432 41.1592 38.8355 40.8207 38.62C40.4845 38.4046 40.2193 38.0968 40.0252 37.6967C39.8335 37.2943 39.7376 36.8149 39.7376 36.2585C39.7376 35.7069 39.8311 35.2216 40.0181 34.8026C40.2075 34.3835 40.4715 34.0568 40.81 33.8224C41.1486 33.5881 41.5427 33.4709 41.9925 33.4709C42.3263 33.4709 42.6033 33.5301 42.8235 33.6484C43.0437 33.7644 43.2201 33.9089 43.3526 34.0817C43.4876 34.2545 43.5929 34.4226 43.6687 34.5859H43.7326V33.5455H44.3505V39.142C44.3505 39.6037 44.2522 39.9837 44.0558 40.282C43.8593 40.5803 43.5917 40.8004 43.2532 40.9425C42.9147 41.0869 42.5299 41.1591 42.0991 41.1591ZM42.0565 38.3643C42.4068 38.3643 42.7063 38.2803 42.9549 38.1122C43.2035 37.9418 43.3941 37.6979 43.5266 37.3807C43.6592 37.0634 43.7255 36.6858 43.7255 36.2479C43.7255 35.8217 43.6604 35.4441 43.5302 35.1151C43.4 34.7836 43.2106 34.5232 42.962 34.3338C42.7158 34.142 42.4139 34.0462 42.0565 34.0462C41.6919 34.0462 41.3841 34.1444 41.1332 34.3409C40.8822 34.5374 40.6928 34.8026 40.565 35.1364C40.4371 35.4678 40.3732 35.8383 40.3732 36.2479C40.3732 36.6645 40.4383 37.0327 40.5685 37.3523C40.6987 37.6695 40.8893 37.9181 41.1403 38.098C41.3912 38.2756 41.6966 38.3643 42.0565 38.3643ZM50.9849 33.5455V34.0959H48.3819V33.5455H50.9849ZM49.1951 32.2386H49.8308V37.576C49.8308 37.8033 49.8699 37.982 49.948 38.1122C50.0261 38.2401 50.1279 38.3312 50.2534 38.3857C50.3788 38.4377 50.5126 38.4638 50.6547 38.4638C50.7375 38.4638 50.8085 38.459 50.8677 38.4496C50.9269 38.4377 50.979 38.4259 51.024 38.4141L51.1589 38.9858C51.0974 39.0095 51.0216 39.0308 50.9316 39.0497C50.8417 39.071 50.7304 39.0817 50.5978 39.0817C50.3658 39.0817 50.1421 39.0308 49.9267 38.929C49.7136 38.8272 49.5384 38.6757 49.4011 38.4744C49.2638 38.2732 49.1951 38.0234 49.1951 37.7251V32.2386ZM54.4819 39.1136C54.0108 39.1136 53.5941 38.9941 53.2319 38.755C52.872 38.5159 52.5903 38.1856 52.3867 37.7642C52.1831 37.3404 52.0813 36.8516 52.0813 36.2976C52.0813 35.7389 52.1831 35.2476 52.3867 34.8239C52.5903 34.3977 52.872 34.0663 53.2319 33.8295C53.5941 33.5904 54.0108 33.4709 54.4819 33.4709C54.953 33.4709 55.3685 33.5904 55.7283 33.8295C56.0882 34.0687 56.3699 34.4001 56.5735 34.8239C56.7795 35.2476 56.8825 35.7389 56.8825 36.2976C56.8825 36.8516 56.7807 37.3404 56.5771 37.7642C56.3735 38.1856 56.0906 38.5159 55.7283 38.755C55.3685 38.9941 54.953 39.1136 54.4819 39.1136ZM54.4819 38.5348C54.8607 38.5348 55.1815 38.433 55.4442 38.2294C55.707 38.0258 55.9059 37.7547 56.0408 37.4162C56.1781 37.0777 56.2468 36.7048 56.2468 36.2976C56.2468 35.8904 56.1781 35.5163 56.0408 35.1754C55.9059 34.8345 55.707 34.5611 55.4442 34.3551C55.1815 34.1491 54.8607 34.0462 54.4819 34.0462C54.1055 34.0462 53.7847 34.1491 53.5195 34.3551C53.2567 34.5611 53.0567 34.8345 52.9194 35.1754C52.7844 35.5163 52.717 35.8904 52.717 36.2976C52.717 36.7048 52.7844 37.0777 52.9194 37.4162C53.0567 37.7547 53.2567 38.0258 53.5195 38.2294C53.7823 38.433 54.1031 38.5348 54.4819 38.5348ZM58.2701 41.0455V33.5455H58.8844V34.5859H58.959C59.0347 34.4226 59.1389 34.2557 59.2715 34.0852C59.4041 33.9124 59.5792 33.7668 59.7971 33.6484C60.0172 33.5301 60.2942 33.4709 60.628 33.4709C61.0778 33.4709 61.4708 33.5893 61.807 33.826C62.1455 34.0604 62.4083 34.3894 62.5953 34.8132C62.7847 35.2346 62.8794 35.7259 62.8794 36.2869C62.8794 36.8504 62.7847 37.344 62.5953 37.7678C62.4083 38.1915 62.1455 38.5218 61.807 38.7585C61.4708 38.9953 61.0802 39.1136 60.6351 39.1136C60.306 39.1136 60.0302 39.0545 59.8077 38.9361C59.5875 38.8177 59.4088 38.6721 59.2715 38.4993C59.1365 38.3241 59.0324 38.1536 58.959 37.9879H58.9022V41.0455H58.2701ZM58.8951 36.2763C58.8951 36.7166 58.9602 37.1072 59.0904 37.4482C59.223 37.7867 59.4123 38.053 59.6586 38.2472C59.9071 38.4389 60.2078 38.5348 60.5605 38.5348C60.9228 38.5348 61.2282 38.4354 61.4767 38.2365C61.7277 38.0353 61.9183 37.7642 62.0485 37.4233C62.181 37.0824 62.2473 36.7 62.2473 36.2763C62.2473 35.8572 62.1822 35.4796 62.052 35.1435C61.9242 34.8073 61.7348 34.541 61.4838 34.3445C61.2329 34.1456 60.9251 34.0462 60.5605 34.0462C60.2054 34.0462 59.9036 34.142 59.655 34.3338C59.4064 34.5232 59.217 34.786 59.0868 35.1222C58.959 35.456 58.8951 35.8407 58.8951 36.2763ZM64.2733 39V33.5455H64.9089V39H64.2733ZM64.5964 32.608C64.4662 32.608 64.3549 32.5642 64.2626 32.4766C64.1703 32.3866 64.1241 32.2789 64.1241 32.1534C64.1241 32.0279 64.1703 31.9214 64.2626 31.8338C64.3549 31.7438 64.4662 31.6989 64.5964 31.6989C64.7266 31.6989 64.8379 31.7438 64.9302 31.8338C65.0225 31.9214 65.0687 32.0279 65.0687 32.1534C65.0687 32.2789 65.0225 32.3866 64.9302 32.4766C64.8379 32.5642 64.7266 32.608 64.5964 32.608ZM68.7113 39.1136C68.2236 39.1136 67.7987 38.9917 67.4364 38.7479C67.0766 38.504 66.7972 38.1702 66.5984 37.7464C66.3995 37.3227 66.3001 36.8397 66.3001 36.2976C66.3001 35.7507 66.4007 35.2642 66.6019 34.8381C66.8055 34.4119 67.0872 34.0781 67.4471 33.8366C67.8069 33.5928 68.2248 33.4709 68.7006 33.4709C69.0652 33.4709 69.3955 33.5419 69.6914 33.6839C69.9873 33.8236 70.2312 34.0213 70.4229 34.277C70.6171 34.5303 70.739 34.8262 70.7887 35.1648H70.1495C70.0832 34.857 69.9234 34.5942 69.6701 34.3764C69.4192 34.1562 69.0996 34.0462 68.7113 34.0462C68.3633 34.0462 68.0555 34.1409 67.788 34.3303C67.5205 34.5173 67.311 34.7789 67.1594 35.1151C67.0103 35.4489 66.9357 35.8359 66.9357 36.2763C66.9357 36.719 67.0091 37.1108 67.1559 37.4517C67.3027 37.7902 67.5086 38.0554 67.7738 38.2472C68.0413 38.4389 68.3538 38.5348 68.7113 38.5348C68.9528 38.5348 69.1729 38.4898 69.3718 38.3999C69.573 38.3075 69.7411 38.1773 69.8761 38.0092C70.0134 37.8411 70.1057 37.6411 70.1531 37.4091H70.7923C70.7449 37.7382 70.6277 38.0317 70.4407 38.2898C70.256 38.5455 70.0157 38.7467 69.7198 38.8935C69.4263 39.0402 69.0901 39.1136 68.7113 39.1136ZM75.8118 34.7422L75.233 34.9055C75.1761 34.7422 75.0956 34.5942 74.9915 34.4616C74.8873 34.3291 74.7512 34.2237 74.5831 34.1456C74.4174 34.0675 74.2114 34.0284 73.9652 34.0284C73.5959 34.0284 73.2929 34.116 73.0561 34.2912C72.8194 34.4664 72.701 34.6925 72.701 34.9695C72.701 35.2038 72.7815 35.3944 72.9425 35.5412C73.1058 35.6856 73.3568 35.8004 73.6953 35.8857L74.5192 36.0881C74.9761 36.1993 75.3182 36.3757 75.5455 36.6172C75.7751 36.8587 75.8899 37.1617 75.8899 37.5263C75.8899 37.834 75.8047 38.1075 75.6342 38.3466C75.4638 38.5857 75.2259 38.7739 74.9205 38.9112C74.6174 39.0462 74.2659 39.1136 73.8658 39.1136C73.3331 39.1136 72.8939 38.9941 72.5483 38.755C72.2027 38.5135 71.9813 38.1655 71.8842 37.7109L72.4915 37.5618C72.5696 37.8861 72.7223 38.1312 72.9496 38.2969C73.1792 38.4626 73.4811 38.5455 73.8551 38.5455C74.2741 38.5455 74.6091 38.4519 74.8601 38.2649C75.111 38.0755 75.2365 37.8388 75.2365 37.5547C75.2365 37.3345 75.1631 37.1499 75.0163 37.0007C74.8696 36.8492 74.647 36.7379 74.3487 36.6669L73.4574 36.4538C72.9839 36.3402 72.6335 36.1603 72.4062 35.9141C72.179 35.6679 72.0653 35.3625 72.0653 34.9979C72.0653 34.6972 72.147 34.4332 72.3104 34.206C72.4737 33.9763 72.6986 33.7964 72.9851 33.6662C73.2715 33.536 73.5982 33.4709 73.9652 33.4709C74.4647 33.4709 74.8636 33.5845 75.1619 33.8118C75.4626 34.0367 75.6792 34.3468 75.8118 34.7422ZM82.2065 39.1136C81.7354 39.1136 81.3187 38.9941 80.9565 38.755C80.5967 38.5159 80.3149 38.1856 80.1113 37.7642C79.9077 37.3404 79.8059 36.8516 79.8059 36.2976C79.8059 35.7389 79.9077 35.2476 80.1113 34.8239C80.3149 34.3977 80.5967 34.0663 80.9565 33.8295C81.3187 33.5904 81.7354 33.4709 82.2065 33.4709C82.6776 33.4709 83.0931 33.5904 83.4529 33.8295C83.8128 34.0687 84.0945 34.4001 84.2981 34.8239C84.5041 35.2476 84.6071 35.7389 84.6071 36.2976C84.6071 36.8516 84.5053 37.3404 84.3017 37.7642C84.0981 38.1856 83.8152 38.5159 83.4529 38.755C83.0931 38.9941 82.6776 39.1136 82.2065 39.1136ZM82.2065 38.5348C82.5853 38.5348 82.9061 38.433 83.1689 38.2294C83.4316 38.0258 83.6305 37.7547 83.7654 37.4162C83.9028 37.0777 83.9714 36.7048 83.9714 36.2976C83.9714 35.8904 83.9028 35.5163 83.7654 35.1754C83.6305 34.8345 83.4316 34.5611 83.1689 34.3551C82.9061 34.1491 82.5853 34.0462 82.2065 34.0462C81.8301 34.0462 81.5093 34.1491 81.2441 34.3551C80.9814 34.5611 80.7813 34.8345 80.644 35.1754C80.5091 35.5163 80.4416 35.8904 80.4416 36.2976C80.4416 36.7048 80.5091 37.0777 80.644 37.4162C80.7813 37.7547 80.9814 38.0258 81.2441 38.2294C81.5069 38.433 81.8277 38.5348 82.2065 38.5348ZM88.239 33.5455V34.0959H85.5579V33.5455H88.239ZM86.396 39V32.7464C86.396 32.4529 86.4634 32.2055 86.5984 32.0043C86.7357 31.803 86.9144 31.6503 87.1346 31.5462C87.3548 31.442 87.5879 31.3899 87.8342 31.3899C87.9999 31.3899 88.1372 31.4041 88.2461 31.4325C88.3574 31.4586 88.445 31.4846 88.5089 31.5107L88.3242 32.0646C88.2769 32.0504 88.2189 32.0339 88.1502 32.0149C88.0816 31.996 87.9951 31.9865 87.891 31.9865C87.6164 31.9865 87.4045 32.0634 87.2553 32.2173C87.1062 32.3712 87.0316 32.5914 87.0316 32.8778L87.0281 39H86.396ZM15.4145 53.1591C15.0428 53.1591 14.7173 53.1106 14.4379 53.0135C14.1586 52.9188 13.923 52.7886 13.7313 52.6229C13.5395 52.4571 13.3904 52.2713 13.2838 52.0653L13.8023 51.7244C13.8804 51.8617 13.9846 51.9967 14.1148 52.1293C14.2474 52.2618 14.419 52.3719 14.6297 52.4595C14.8428 52.5471 15.1044 52.5909 15.4145 52.5909C15.8975 52.5909 16.2869 52.4702 16.5828 52.2287C16.8811 51.9872 17.0303 51.612 17.0303 51.103V49.8743H16.9735C16.9001 50.04 16.7947 50.2057 16.6574 50.3714C16.5201 50.5348 16.3402 50.6709 16.1176 50.7798C15.8975 50.8887 15.624 50.9432 15.2973 50.9432C14.8617 50.9432 14.4746 50.8355 14.1361 50.62C13.7999 50.4046 13.5348 50.0968 13.3406 49.6967C13.1489 49.2943 13.053 48.8149 13.053 48.2585C13.053 47.7069 13.1465 47.2216 13.3335 46.8026C13.5229 46.3835 13.7869 46.0568 14.1254 45.8224C14.464 45.5881 14.8582 45.4709 15.308 45.4709C15.6418 45.4709 15.9188 45.5301 16.1389 45.6484C16.3591 45.7644 16.5355 45.9089 16.6681 46.0817C16.803 46.2545 16.9084 46.4226 16.9841 46.5859H17.048V45.5455H17.6659V51.142C17.6659 51.6037 17.5677 51.9837 17.3712 52.282C17.1747 52.5803 16.9072 52.8004 16.5686 52.9425C16.2301 53.0869 15.8454 53.1591 15.4145 53.1591ZM15.3719 50.3643C15.7223 50.3643 16.0218 50.2803 16.2703 50.1122C16.5189 49.9418 16.7095 49.6979 16.8421 49.3807C16.9746 49.0634 17.0409 48.6858 17.0409 48.2479C17.0409 47.8217 16.9758 47.4441 16.8456 47.1151C16.7154 46.7836 16.526 46.5232 16.2774 46.3338C16.0312 46.142 15.7294 46.0462 15.3719 46.0462C15.0073 46.0462 14.6995 46.1444 14.4486 46.3409C14.1977 46.5374 14.0083 46.8026 13.8804 47.1364C13.7526 47.4678 13.6887 47.8383 13.6887 48.2479C13.6887 48.6645 13.7538 49.0327 13.884 49.3523C14.0142 49.6695 14.2048 49.9181 14.4557 50.098C14.7066 50.2756 15.012 50.3643 15.3719 50.3643ZM19.3394 51V45.5455H19.9537V46.3835H19.9999C20.1088 46.1089 20.2982 45.8875 20.5681 45.7195C20.8403 45.549 21.1481 45.4638 21.4914 45.4638C21.5435 45.4638 21.6015 45.465 21.6654 45.4673C21.7293 45.4697 21.7826 45.4721 21.8252 45.4744V46.1172C21.7968 46.1125 21.7471 46.1054 21.676 46.0959C21.605 46.0864 21.5281 46.0817 21.4452 46.0817C21.1611 46.0817 20.9078 46.142 20.6853 46.2628C20.4651 46.3812 20.2911 46.5457 20.1633 46.7564C20.0354 46.9671 19.9715 47.2074 19.9715 47.4773V51H19.3394ZM24.9431 51.1136C24.4341 51.1136 23.9938 50.9953 23.6221 50.7585C23.2504 50.5194 22.9627 50.1892 22.7591 49.7678C22.5579 49.344 22.4573 48.8563 22.4573 48.3047C22.4573 47.7554 22.5579 47.2678 22.7591 46.8416C22.9627 46.4131 23.2433 46.0781 23.6008 45.8366C23.9606 45.5928 24.3761 45.4709 24.8472 45.4709C25.1431 45.4709 25.4284 45.5253 25.703 45.6342C25.9777 45.7408 26.2239 45.9053 26.4417 46.1278C26.6618 46.348 26.8358 46.6262 26.9637 46.9624C27.0915 47.2962 27.1555 47.6915 27.1555 48.1484V48.4609H22.8941V47.9034H26.5091C26.5091 47.553 26.4381 47.2382 26.2961 46.9588C26.1564 46.6771 25.9611 46.4545 25.7101 46.2912C25.4616 46.1278 25.1739 46.0462 24.8472 46.0462C24.5016 46.0462 24.1974 46.1385 23.9346 46.3232C23.6718 46.5078 23.4658 46.7517 23.3167 47.0547C23.1699 47.3577 23.0953 47.6892 23.093 48.049V48.3828C23.093 48.8161 23.1675 49.1948 23.3167 49.5192C23.4682 49.8411 23.6824 50.0909 23.9594 50.2685C24.2364 50.446 24.5643 50.5348 24.9431 50.5348C25.2011 50.5348 25.4272 50.4946 25.6214 50.4141C25.8179 50.3336 25.9824 50.2259 26.115 50.0909C26.2499 49.9536 26.3517 49.8033 26.4204 49.6399L27.0205 49.8352C26.9376 50.0649 26.8015 50.2768 26.6121 50.4709C26.4251 50.665 26.1907 50.8213 25.909 50.9396C25.6296 51.0556 25.3077 51.1136 24.9431 51.1136ZM30.0718 51.1243C29.7427 51.1243 29.4421 51.0604 29.1698 50.9325C28.8976 50.8023 28.681 50.6153 28.52 50.3714C28.359 50.1252 28.2785 49.8269 28.2785 49.4766C28.2785 49.2067 28.3294 48.9794 28.4312 48.7947C28.533 48.6101 28.6774 48.4586 28.8644 48.3402C29.0515 48.2218 29.2728 48.1283 29.5285 48.0597C29.7842 47.991 30.0659 47.9377 30.3737 47.8999C30.6791 47.862 30.9371 47.8288 31.1478 47.8004C31.3609 47.772 31.5231 47.727 31.6343 47.6655C31.7456 47.6039 31.8012 47.5045 31.8012 47.3672V47.2393C31.8012 46.8677 31.69 46.5753 31.4674 46.3622C31.2472 46.1468 30.93 46.0391 30.5157 46.0391C30.1227 46.0391 29.8019 46.1255 29.5534 46.2983C29.3071 46.4711 29.1343 46.6747 29.0349 46.9091L28.4347 46.6925C28.5579 46.3942 28.7283 46.1562 28.9461 45.9787C29.1639 45.7988 29.4078 45.6697 29.6776 45.5916C29.9475 45.5111 30.221 45.4709 30.498 45.4709C30.7063 45.4709 30.9229 45.4981 31.1478 45.5526C31.3751 45.607 31.5858 45.7017 31.7799 45.8366C31.974 45.9692 32.1315 46.1551 32.2522 46.3942C32.373 46.6309 32.4333 46.9316 32.4333 47.2962V51H31.8012V50.1371H31.7622C31.6864 50.2981 31.574 50.4543 31.4248 50.6058C31.2757 50.7573 31.0886 50.8816 30.8637 50.9787C30.6388 51.0758 30.3749 51.1243 30.0718 51.1243ZM30.157 50.5455C30.4932 50.5455 30.7844 50.4709 31.0306 50.3217C31.2768 50.1726 31.4662 49.9749 31.5988 49.7287C31.7338 49.4801 31.8012 49.2067 31.8012 48.9084V48.12C31.7539 48.165 31.6746 48.2053 31.5633 48.2408C31.4544 48.2763 31.3277 48.3082 31.1833 48.3366C31.0413 48.3627 30.8992 48.3852 30.7572 48.4041C30.6151 48.4231 30.4873 48.4396 30.3737 48.4538C30.0659 48.4917 29.8031 48.5509 29.5853 48.6314C29.3675 48.7119 29.2006 48.8232 29.0846 48.9652C28.9686 49.1049 28.9106 49.2848 28.9106 49.505C28.9106 49.8364 29.029 50.0933 29.2657 50.2756C29.5025 50.4555 29.7996 50.5455 30.157 50.5455ZM36.2632 45.5455V46.0959H33.6602V45.5455H36.2632ZM34.4735 44.2386H35.1091V49.576C35.1091 49.8033 35.1482 49.982 35.2263 50.1122C35.3044 50.2401 35.4062 50.3312 35.5317 50.3857C35.6572 50.4377 35.7909 50.4638 35.933 50.4638C36.0158 50.4638 36.0869 50.459 36.146 50.4496C36.2052 50.4377 36.2573 50.4259 36.3023 50.4141L36.4372 50.9858C36.3757 51.0095 36.2999 51.0308 36.21 51.0497C36.12 51.071 36.0087 51.0817 35.8762 51.0817C35.6441 51.0817 35.4204 51.0308 35.205 50.929C34.9919 50.8272 34.8167 50.6757 34.6794 50.4744C34.5421 50.2732 34.4735 50.0234 34.4735 49.7251V44.2386ZM39.8454 51.1136C39.3364 51.1136 38.8961 50.9953 38.5244 50.7585C38.1527 50.5194 37.8651 50.1892 37.6615 49.7678C37.4603 49.344 37.3596 48.8563 37.3596 48.3047C37.3596 47.7554 37.4603 47.2678 37.6615 46.8416C37.8651 46.4131 38.1456 46.0781 38.5031 45.8366C38.863 45.5928 39.2784 45.4709 39.7496 45.4709C40.0455 45.4709 40.3308 45.5253 40.6054 45.6342C40.88 45.7408 41.1262 45.9053 41.344 46.1278C41.5642 46.348 41.7382 46.6262 41.866 46.9624C41.9939 47.2962 42.0578 47.6915 42.0578 48.1484V48.4609H37.7964V47.9034H41.4115C41.4115 47.553 41.3405 47.2382 41.1984 46.9588C41.0587 46.6771 40.8634 46.4545 40.6125 46.2912C40.3639 46.1278 40.0763 46.0462 39.7496 46.0462C39.4039 46.0462 39.0997 46.1385 38.8369 46.3232C38.5741 46.5078 38.3682 46.7517 38.219 47.0547C38.0722 47.3577 37.9977 47.6892 37.9953 48.049V48.3828C37.9953 48.8161 38.0699 49.1948 38.219 49.5192C38.3705 49.8411 38.5848 50.0909 38.8618 50.2685C39.1388 50.446 39.4666 50.5348 39.8454 50.5348C40.1035 50.5348 40.3296 50.4946 40.5237 50.4141C40.7202 50.3336 40.8847 50.2259 41.0173 50.0909C41.1523 49.9536 41.2541 49.8033 41.3227 49.6399L41.9229 49.8352C41.84 50.0649 41.7039 50.2768 41.5145 50.4709C41.3274 50.665 41.0931 50.8213 40.8113 50.9396C40.532 51.0556 40.21 51.1136 39.8454 51.1136ZM47.1155 46.7422L46.5367 46.9055C46.4798 46.7422 46.3994 46.5942 46.2952 46.4616C46.191 46.3291 46.0549 46.2237 45.8868 46.1456C45.7211 46.0675 45.5151 46.0284 45.2689 46.0284C44.8996 46.0284 44.5966 46.116 44.3598 46.2912C44.1231 46.4664 44.0047 46.6925 44.0047 46.9695C44.0047 47.2038 44.0852 47.3944 44.2462 47.5412C44.4095 47.6856 44.6605 47.8004 44.999 47.8857L45.8229 48.0881C46.2798 48.1993 46.6219 48.3757 46.8492 48.6172C47.0788 48.8587 47.1936 49.1617 47.1936 49.5263C47.1936 49.834 47.1084 50.1075 46.9379 50.3466C46.7675 50.5857 46.5296 50.7739 46.2242 50.9112C45.9211 51.0462 45.5696 51.1136 45.1695 51.1136C44.6368 51.1136 44.1977 50.9941 43.852 50.755C43.5064 50.5135 43.285 50.1655 43.1879 49.7109L43.7952 49.5618C43.8733 49.8861 44.026 50.1312 44.2533 50.2969C44.4829 50.4626 44.7848 50.5455 45.1588 50.5455C45.5779 50.5455 45.9128 50.4519 46.1638 50.2649C46.4147 50.0755 46.5402 49.8388 46.5402 49.5547C46.5402 49.3345 46.4668 49.1499 46.32 49.0007C46.1733 48.8492 45.9507 48.7379 45.6524 48.6669L44.7611 48.4538C44.2876 48.3402 43.9372 48.1603 43.71 47.9141C43.4827 47.6679 43.3691 47.3625 43.3691 46.9979C43.3691 46.6972 43.4507 46.4332 43.6141 46.206C43.7774 45.9763 44.0023 45.7964 44.2888 45.6662C44.5753 45.536 44.902 45.4709 45.2689 45.4709C45.7684 45.4709 46.1673 45.5845 46.4656 45.8118C46.7663 46.0367 46.9829 46.3468 47.1155 46.7422ZM50.7261 45.5455V46.0959H48.1231V45.5455H50.7261ZM48.9363 44.2386H49.572V49.576C49.572 49.8033 49.6111 49.982 49.6892 50.1122C49.7673 50.2401 49.8691 50.3312 49.9946 50.3857C50.1201 50.4377 50.2538 50.4638 50.3959 50.4638C50.4787 50.4638 50.5497 50.459 50.6089 50.4496C50.6681 50.4377 50.7202 50.4259 50.7652 50.4141L50.9001 50.9858C50.8386 51.0095 50.7628 51.0308 50.6729 51.0497C50.5829 51.071 50.4716 51.0817 50.339 51.0817C50.107 51.0817 49.8833 51.0308 49.6679 50.929C49.4548 50.8272 49.2796 50.6757 49.1423 50.4744C49.005 50.2732 48.9363 50.0234 48.9363 49.7251V44.2386ZM54.9813 51V45.5455H55.6169V51H54.9813ZM55.3044 44.608C55.1742 44.608 55.0629 44.5642 54.9706 44.4766C54.8783 44.3866 54.8321 44.2789 54.8321 44.1534C54.8321 44.0279 54.8783 43.9214 54.9706 43.8338C55.0629 43.7438 55.1742 43.6989 55.3044 43.6989C55.4346 43.6989 55.5459 43.7438 55.6382 43.8338C55.7306 43.9214 55.7767 44.0279 55.7767 44.1534C55.7767 44.2789 55.7306 44.3866 55.6382 44.4766C55.5459 44.5642 55.4346 44.608 55.3044 44.608ZM57.9207 47.5909V51H57.2886V45.5455H57.903V46.4013H57.9598C58.0876 46.1219 58.2865 45.8982 58.5564 45.7301C58.8286 45.5597 59.1648 45.4744 59.5649 45.4744C59.9318 45.4744 60.2538 45.5514 60.5308 45.7053C60.8102 45.8568 61.0268 46.0805 61.1807 46.3764C61.3369 46.6723 61.415 47.0357 61.415 47.4666V51H60.7829V47.5057C60.7829 47.0582 60.6575 46.7043 60.4065 46.4439C60.1579 46.1835 59.8241 46.0533 59.4051 46.0533C59.1186 46.0533 58.8641 46.1148 58.6416 46.2379C58.4191 46.361 58.2427 46.5386 58.1125 46.7706C57.9846 47.0002 57.9207 47.2737 57.9207 47.5909ZM65.2281 45.5455V46.0959H62.6251V45.5455H65.2281ZM63.4383 44.2386H64.074V49.576C64.074 49.8033 64.113 49.982 64.1911 50.1122C64.2693 50.2401 64.3711 50.3312 64.4965 50.3857C64.622 50.4377 64.7558 50.4638 64.8978 50.4638C64.9807 50.4638 65.0517 50.459 65.1109 50.4496C65.1701 50.4377 65.2222 50.4259 65.2671 50.4141L65.4021 50.9858C65.3405 51.0095 65.2648 51.0308 65.1748 51.0497C65.0848 51.071 64.9736 51.0817 64.841 51.0817C64.609 51.0817 64.3853 51.0308 64.1698 50.929C63.9568 50.8272 63.7816 50.6757 63.6443 50.4744C63.507 50.2732 63.4383 50.0234 63.4383 49.7251V44.2386ZM68.8103 51.1136C68.3013 51.1136 67.8609 50.9953 67.4893 50.7585C67.1176 50.5194 66.8299 50.1892 66.6263 49.7678C66.4251 49.344 66.3245 48.8563 66.3245 48.3047C66.3245 47.7554 66.4251 47.2678 66.6263 46.8416C66.8299 46.4131 67.1105 46.0781 67.468 45.8366C67.8278 45.5928 68.2433 45.4709 68.7144 45.4709C69.0103 45.4709 69.2956 45.5253 69.5702 45.6342C69.8448 45.7408 70.0911 45.9053 70.3089 46.1278C70.529 46.348 70.703 46.6262 70.8309 46.9624C70.9587 47.2962 71.0226 47.6915 71.0226 48.1484V48.4609H66.7613V47.9034H70.3763C70.3763 47.553 70.3053 47.2382 70.1633 46.9588C70.0236 46.6771 69.8283 46.4545 69.5773 46.2912C69.3287 46.1278 69.0411 46.0462 68.7144 46.0462C68.3688 46.0462 68.0645 46.1385 67.8018 46.3232C67.539 46.5078 67.333 46.7517 67.1839 47.0547C67.0371 47.3577 66.9625 47.6892 66.9601 48.049V48.3828C66.9601 48.8161 67.0347 49.1948 67.1839 49.5192C67.3354 49.8411 67.5496 50.0909 67.8266 50.2685C68.1036 50.446 68.4315 50.5348 68.8103 50.5348C69.0683 50.5348 69.2944 50.4946 69.4885 50.4141C69.685 50.3336 69.8496 50.2259 69.9822 50.0909C70.1171 49.9536 70.2189 49.8033 70.2876 49.6399L70.8877 49.8352C70.8048 50.0649 70.6687 50.2768 70.4793 50.4709C70.2923 50.665 70.0579 50.8213 69.7762 50.9396C69.4968 51.0556 69.1749 51.1136 68.8103 51.1136ZM72.4156 51V45.5455H73.0299V46.3835H73.0761C73.185 46.1089 73.3744 45.8875 73.6443 45.7195C73.9165 45.549 74.2243 45.4638 74.5676 45.4638C74.6196 45.4638 74.6776 45.465 74.7416 45.4673C74.8055 45.4697 74.8588 45.4721 74.9014 45.4744V46.1172C74.873 46.1125 74.8232 46.1054 74.7522 46.0959C74.6812 46.0864 74.6043 46.0817 74.5214 46.0817C74.2373 46.0817 73.984 46.142 73.7615 46.2628C73.5413 46.3812 73.3673 46.5457 73.2394 46.7564C73.1116 46.9671 73.0477 47.2074 73.0477 47.4773V51H72.4156ZM78.0193 51.1136C77.5103 51.1136 77.0699 50.9953 76.6982 50.7585C76.3266 50.5194 76.0389 50.1892 75.8353 49.7678C75.6341 49.344 75.5335 48.8563 75.5335 48.3047C75.5335 47.7554 75.6341 47.2678 75.8353 46.8416C76.0389 46.4131 76.3195 46.0781 76.6769 45.8366C77.0368 45.5928 77.4523 45.4709 77.9234 45.4709C78.2193 45.4709 78.5046 45.5253 78.7792 45.6342C79.0538 45.7408 79.3 45.9053 79.5178 46.1278C79.738 46.348 79.912 46.6262 80.0399 46.9624C80.1677 47.2962 80.2316 47.6915 80.2316 48.1484V48.4609H75.9703V47.9034H79.5853C79.5853 47.553 79.5143 47.2382 79.3722 46.9588C79.2326 46.6771 79.0373 46.4545 78.7863 46.2912C78.5377 46.1278 78.2501 46.0462 77.9234 46.0462C77.5777 46.0462 77.2735 46.1385 77.0107 46.3232C76.748 46.5078 76.542 46.7517 76.3928 47.0547C76.2461 47.3577 76.1715 47.6892 76.1691 48.049V48.3828C76.1691 48.8161 76.2437 49.1948 76.3928 49.5192C76.5444 49.8411 76.7586 50.0909 77.0356 50.2685C77.3126 50.446 77.6405 50.5348 78.0193 50.5348C78.2773 50.5348 78.5034 50.4946 78.6975 50.4141C78.894 50.3336 79.0586 50.2259 79.1911 50.0909C79.3261 49.9536 79.4279 49.8033 79.4965 49.6399L80.0967 49.8352C80.0138 50.0649 79.8777 50.2768 79.6883 50.4709C79.5013 50.665 79.2669 50.8213 78.9852 50.9396C78.7058 51.0556 78.3838 51.1136 78.0193 51.1136ZM85.2893 46.7422L84.7105 46.9055C84.6537 46.7422 84.5732 46.5942 84.469 46.4616C84.3648 46.3291 84.2287 46.2237 84.0606 46.1456C83.8949 46.0675 83.689 46.0284 83.4427 46.0284C83.0734 46.0284 82.7704 46.116 82.5336 46.2912C82.2969 46.4664 82.1785 46.6925 82.1785 46.9695C82.1785 47.2038 82.259 47.3944 82.42 47.5412C82.5834 47.6856 82.8343 47.8004 83.1729 47.8857L83.9967 48.0881C84.4536 48.1993 84.7957 48.3757 85.023 48.6172C85.2526 48.8587 85.3675 49.1617 85.3675 49.5263C85.3675 49.834 85.2822 50.1075 85.1118 50.3466C84.9413 50.5857 84.7034 50.7739 84.398 50.9112C84.095 51.0462 83.7434 51.1136 83.3433 51.1136C82.8106 51.1136 82.3715 50.9941 82.0258 50.755C81.6802 50.5135 81.4588 50.1655 81.3618 49.7109L81.969 49.5618C82.0471 49.8861 82.1998 50.1312 82.4271 50.2969C82.6568 50.4626 82.9586 50.5455 83.3327 50.5455C83.7517 50.5455 84.0867 50.4519 84.3376 50.2649C84.5886 50.0755 84.714 49.8388 84.714 49.5547C84.714 49.3345 84.6407 49.1499 84.4939 49.0007C84.3471 48.8492 84.1246 48.7379 83.8263 48.6669L82.9349 48.4538C82.4614 48.3402 82.1111 48.1603 81.8838 47.9141C81.6565 47.6679 81.5429 47.3625 81.5429 46.9979C81.5429 46.6972 81.6246 46.4332 81.7879 46.206C81.9513 45.9763 82.1762 45.7964 82.4626 45.6662C82.7491 45.536 83.0758 45.4709 83.4427 45.4709C83.9423 45.4709 84.3412 45.5845 84.6395 45.8118C84.9401 46.0367 85.1568 46.3468 85.2893 46.7422ZM88.8999 45.5455V46.0959H86.297V45.5455H88.8999ZM87.1102 44.2386H87.7458V49.576C87.7458 49.8033 87.7849 49.982 87.863 50.1122C87.9411 50.2401 88.0429 50.3312 88.1684 50.3857C88.2939 50.4377 88.4276 50.4638 88.5697 50.4638C88.6526 50.4638 88.7236 50.459 88.7828 50.4496C88.8419 50.4377 88.894 50.4259 88.939 50.4141L89.074 50.9858C89.0124 51.0095 88.9366 51.0308 88.8467 51.0497C88.7567 51.071 88.6454 51.0817 88.5129 51.0817C88.2809 51.0817 88.0571 51.0308 87.8417 50.929C87.6286 50.8272 87.4535 50.6757 87.3161 50.4744C87.1788 50.2732 87.1102 50.0234 87.1102 49.7251V44.2386ZM18.3917 63V55.7273H19.0273V58.5859H19.0842C19.1552 58.4226 19.257 58.2545 19.3896 58.0817C19.5245 57.9089 19.7009 57.7644 19.9187 57.6484C20.1388 57.5301 20.4158 57.4709 20.7496 57.4709C21.1971 57.4709 21.5901 57.5893 21.9286 57.826C22.2672 58.0604 22.5311 58.3894 22.7205 58.8132C22.9099 59.2346 23.0046 59.7259 23.0046 60.2869C23.0046 60.8504 22.9099 61.344 22.7205 61.7678C22.5335 62.1915 22.2707 62.5218 21.9322 62.7585C21.596 62.9953 21.2054 63.1136 20.7603 63.1136C20.4289 63.1136 20.1519 63.0545 19.9293 62.9361C19.7092 62.8177 19.5316 62.6721 19.3967 62.4993C19.2617 62.3241 19.1576 62.1536 19.0842 61.9879H19.006V63H18.3917ZM19.0167 60.2763C19.0167 60.7166 19.0818 61.1072 19.212 61.4482C19.3446 61.7867 19.534 62.053 19.7802 62.2472C20.0288 62.4389 20.3294 62.5348 20.6822 62.5348C21.0444 62.5348 21.351 62.4354 21.6019 62.2365C21.8529 62.0353 22.0434 61.7642 22.1737 61.4233C22.3039 61.0824 22.369 60.7 22.369 60.2763C22.369 59.8572 22.3039 59.4796 22.1737 59.1435C22.0458 58.8073 21.8564 58.541 21.6055 58.3445C21.3545 58.1456 21.0468 58.0462 20.6822 58.0462C20.3271 58.0462 20.0252 58.142 19.7766 58.3338C19.5304 58.5232 19.3422 58.786 19.212 59.1222C19.0818 59.456 19.0167 59.8407 19.0167 60.2763ZM26.5984 63.1136C26.0894 63.1136 25.649 62.9953 25.2773 62.7585C24.9057 62.5194 24.618 62.1892 24.4144 61.7678C24.2132 61.344 24.1126 60.8563 24.1126 60.3047C24.1126 59.7554 24.2132 59.2678 24.4144 58.8416C24.618 58.4131 24.8986 58.0781 25.256 57.8366C25.6159 57.5928 26.0314 57.4709 26.5025 57.4709C26.7984 57.4709 27.0837 57.5253 27.3583 57.6342C27.6329 57.7408 27.8791 57.9053 28.0969 58.1278C28.3171 58.348 28.4911 58.6262 28.619 58.9624C28.7468 59.2962 28.8107 59.6915 28.8107 60.1484V60.4609H24.5494V59.9034H28.1644C28.1644 59.553 28.0934 59.2382 27.9513 58.9588C27.8117 58.6771 27.6164 58.4545 27.3654 58.2912C27.1168 58.1278 26.8292 58.0462 26.5025 58.0462C26.1568 58.0462 25.8526 58.1385 25.5898 58.3232C25.3271 58.5078 25.1211 58.7517 24.9719 59.0547C24.8252 59.3577 24.7506 59.6892 24.7482 60.049V60.3828C24.7482 60.8161 24.8228 61.1948 24.9719 61.5192C25.1235 61.8411 25.3377 62.0909 25.6147 62.2685C25.8917 62.446 26.2196 62.5348 26.5984 62.5348C26.8564 62.5348 27.0825 62.4946 27.2766 62.4141C27.4731 62.3336 27.6377 62.2259 27.7702 62.0909C27.9052 61.9536 28.007 61.8033 28.0756 61.6399L28.6758 61.8352C28.5929 62.0649 28.4568 62.2768 28.2674 62.4709C28.0804 62.665 27.846 62.8213 27.5643 62.9396C27.2849 63.0556 26.9629 63.1136 26.5984 63.1136ZM32.3343 63.1136C31.8467 63.1136 31.4217 62.9917 31.0595 62.7479C30.6996 62.504 30.4203 62.1702 30.2214 61.7464C30.0225 61.3227 29.9231 60.8397 29.9231 60.2976C29.9231 59.7507 30.0237 59.2642 30.225 58.8381C30.4286 58.4119 30.7103 58.0781 31.0701 57.8366C31.43 57.5928 31.8478 57.4709 32.3237 57.4709C32.6883 57.4709 33.0185 57.5419 33.3145 57.6839C33.6104 57.8236 33.8542 58.0213 34.046 58.277C34.2401 58.5303 34.362 58.8262 34.4118 59.1648H33.7725C33.7063 58.857 33.5465 58.5942 33.2931 58.3764C33.0422 58.1562 32.7226 58.0462 32.3343 58.0462C31.9863 58.0462 31.6786 58.1409 31.411 58.3303C31.1435 58.5173 30.934 58.7789 30.7825 59.1151C30.6333 59.4489 30.5588 59.8359 30.5588 60.2763C30.5588 60.719 30.6322 61.1108 30.7789 61.4517C30.9257 61.7902 31.1317 62.0554 31.3968 62.2472C31.6644 62.4389 31.9769 62.5348 32.3343 62.5348C32.5758 62.5348 32.796 62.4898 32.9949 62.3999C33.1961 62.3075 33.3642 62.1773 33.4991 62.0092C33.6364 61.8411 33.7288 61.6411 33.7761 61.4091H34.4153C34.368 61.7382 34.2508 62.0317 34.0637 62.2898C33.8791 62.5455 33.6388 62.7467 33.3429 62.8935C33.0493 63.0402 32.7131 63.1136 32.3343 63.1136ZM37.2935 63.1243C36.9644 63.1243 36.6638 63.0604 36.3915 62.9325C36.1193 62.8023 35.9026 62.6153 35.7417 62.3714C35.5807 62.1252 35.5002 61.8269 35.5002 61.4766C35.5002 61.2067 35.5511 60.9794 35.6529 60.7947C35.7547 60.6101 35.8991 60.4586 36.0861 60.3402C36.2731 60.2218 36.4945 60.1283 36.7502 60.0597C37.0059 59.991 37.2876 59.9377 37.5953 59.8999C37.9007 59.862 38.1588 59.8288 38.3695 59.8004C38.5826 59.772 38.7447 59.727 38.856 59.6655C38.9673 59.6039 39.0229 59.5045 39.0229 59.3672V59.2393C39.0229 58.8677 38.9116 58.5753 38.6891 58.3622C38.4689 58.1468 38.1517 58.0391 37.7374 58.0391C37.3444 58.0391 37.0236 58.1255 36.775 58.2983C36.5288 58.4711 36.356 58.6747 36.2566 58.9091L35.6564 58.6925C35.7795 58.3942 35.95 58.1562 36.1678 57.9787C36.3856 57.7988 36.6294 57.6697 36.8993 57.5916C37.1692 57.5111 37.4426 57.4709 37.7196 57.4709C37.928 57.4709 38.1446 57.4981 38.3695 57.5526C38.5968 57.607 38.8075 57.7017 39.0016 57.8366C39.1957 57.9692 39.3532 58.1551 39.4739 58.3942C39.5946 58.6309 39.655 58.9316 39.655 59.2962V63H39.0229V62.1371H38.9838C38.9081 62.2981 38.7956 62.4543 38.6465 62.6058C38.4973 62.7573 38.3103 62.8816 38.0854 62.9787C37.8605 63.0758 37.5965 63.1243 37.2935 63.1243ZM37.3787 62.5455C37.7149 62.5455 38.0061 62.4709 38.2523 62.3217C38.4985 62.1726 38.6879 61.9749 38.8205 61.7287C38.9554 61.4801 39.0229 61.2067 39.0229 60.9084V60.12C38.9756 60.165 38.8962 60.2053 38.785 60.2408C38.6761 60.2763 38.5494 60.3082 38.405 60.3366C38.263 60.3627 38.1209 60.3852 37.9789 60.4041C37.8368 60.4231 37.709 60.4396 37.5953 60.4538C37.2876 60.4917 37.0248 60.5509 36.807 60.6314C36.5892 60.7119 36.4223 60.8232 36.3063 60.9652C36.1903 61.1049 36.1323 61.2848 36.1323 61.505C36.1323 61.8364 36.2507 62.0933 36.4874 62.2756C36.7241 62.4555 37.0212 62.5455 37.3787 62.5455ZM44.8024 60.9155V57.5455H45.4345V63H44.8024V62.0945H44.7527C44.6248 62.3738 44.4224 62.607 44.1454 62.794C43.8684 62.9787 43.5299 63.071 43.1298 63.071C42.7818 63.071 42.4728 62.9953 42.2029 62.8438C41.9331 62.6899 41.7212 62.465 41.5673 62.169C41.4134 61.8731 41.3365 61.5097 41.3365 61.0788V57.5455H41.9686V61.0398C41.9686 61.4659 42.094 61.8092 42.345 62.0696C42.5959 62.3277 42.9179 62.4567 43.3109 62.4567C43.5571 62.4567 43.7939 62.3975 44.0211 62.2791C44.2484 62.1607 44.4354 61.9879 44.5822 61.7607C44.729 61.531 44.8024 61.2493 44.8024 60.9155ZM50.7727 58.7422L50.1939 58.9055C50.1371 58.7422 50.0566 58.5942 49.9524 58.4616C49.8482 58.3291 49.7121 58.2237 49.544 58.1456C49.3783 58.0675 49.1723 58.0284 48.9261 58.0284C48.5568 58.0284 48.2538 58.116 48.017 58.2912C47.7803 58.4664 47.6619 58.6925 47.6619 58.9695C47.6619 59.2038 47.7424 59.3944 47.9034 59.5412C48.0668 59.6856 48.3177 59.8004 48.6562 59.8857L49.4801 60.0881C49.937 60.1993 50.2791 60.3757 50.5064 60.6172C50.736 60.8587 50.8509 61.1617 50.8509 61.5263C50.8509 61.834 50.7656 62.1075 50.5952 62.3466C50.4247 62.5857 50.1868 62.7739 49.8814 62.9112C49.5784 63.0462 49.2268 63.1136 48.8267 63.1136C48.294 63.1136 47.8549 62.9941 47.5092 62.755C47.1636 62.5135 46.9422 62.1655 46.8452 61.7109L47.4524 61.5618C47.5305 61.8861 47.6832 62.1312 47.9105 62.2969C48.1402 62.4626 48.442 62.5455 48.8161 62.5455C49.2351 62.5455 49.5701 62.4519 49.821 62.2649C50.072 62.0755 50.1974 61.8388 50.1974 61.5547C50.1974 61.3345 50.1241 61.1499 49.9773 61.0007C49.8305 60.8492 49.608 60.7379 49.3097 60.6669L48.4183 60.4538C47.9448 60.3402 47.5945 60.1603 47.3672 59.9141C47.1399 59.6679 47.0263 59.3625 47.0263 58.9979C47.0263 58.6972 47.108 58.4332 47.2713 58.206C47.4347 57.9763 47.6596 57.7964 47.946 57.6662C48.2325 57.536 48.5592 57.4709 48.9261 57.4709C49.4257 57.4709 49.8246 57.5845 50.1229 57.8118C50.4235 58.0367 50.6402 58.3468 50.7727 58.7422ZM54.4402 63.1136C53.9312 63.1136 53.4908 62.9953 53.1191 62.7585C52.7475 62.5194 52.4598 62.1892 52.2562 61.7678C52.055 61.344 51.9544 60.8563 51.9544 60.3047C51.9544 59.7554 52.055 59.2678 52.2562 58.8416C52.4598 58.4131 52.7404 58.0781 53.0978 57.8366C53.4577 57.5928 53.8732 57.4709 54.3443 57.4709C54.6402 57.4709 54.9255 57.5253 55.2001 57.6342C55.4747 57.7408 55.7209 57.9053 55.9387 58.1278C56.1589 58.348 56.3329 58.6262 56.4608 58.9624C56.5886 59.2962 56.6525 59.6915 56.6525 60.1484V60.4609H52.3912V59.9034H56.0062C56.0062 59.553 55.9352 59.2382 55.7931 58.9588C55.6535 58.6771 55.4582 58.4545 55.2072 58.2912C54.9586 58.1278 54.671 58.0462 54.3443 58.0462C53.9986 58.0462 53.6944 58.1385 53.4316 58.3232C53.1689 58.5078 52.9629 58.7517 52.8137 59.0547C52.667 59.3577 52.5924 59.6892 52.59 60.049V60.3828C52.59 60.8161 52.6646 61.1948 52.8137 61.5192C52.9653 61.8411 53.1795 62.0909 53.4565 62.2685C53.7335 62.446 54.0614 62.5348 54.4402 62.5348C54.6982 62.5348 54.9243 62.4946 55.1184 62.4141C55.3149 62.3336 55.4795 62.2259 55.612 62.0909C55.747 61.9536 55.8488 61.8033 55.9174 61.6399L56.5176 61.8352C56.4347 62.0649 56.2986 62.2768 56.1092 62.4709C55.9222 62.665 55.6878 62.8213 55.4061 62.9396C55.1267 63.0556 54.8047 63.1136 54.4402 63.1136ZM63.0064 57.5455V58.0959H60.4034V57.5455H63.0064ZM61.2166 56.2386H61.8523V61.576C61.8523 61.8033 61.8913 61.982 61.9695 62.1122C62.0476 62.2401 62.1494 62.3312 62.2749 62.3857C62.4003 62.4377 62.5341 62.4638 62.6761 62.4638C62.759 62.4638 62.83 62.459 62.8892 62.4496C62.9484 62.4377 63.0005 62.4259 63.0455 62.4141L63.1804 62.9858C63.1188 63.0095 63.0431 63.0308 62.9531 63.0497C62.8632 63.071 62.7519 63.0817 62.6193 63.0817C62.3873 63.0817 62.1636 63.0308 61.9482 62.929C61.7351 62.8272 61.5599 62.6757 61.4226 62.4744C61.2853 62.2732 61.2166 62.0234 61.2166 61.7251V56.2386ZM65.1912 59.5909V63H64.5591V55.7273H65.1912V58.4013H65.248C65.3759 58.1196 65.5736 57.8946 65.8411 57.7266C66.111 57.5585 66.4519 57.4744 66.8638 57.4744C67.2331 57.4744 67.5575 57.5502 67.8368 57.7017C68.1162 57.8532 68.334 58.0769 68.4902 58.3729C68.6465 58.6688 68.7246 59.0334 68.7246 59.4666V63H68.089V59.5057C68.089 59.0559 67.9635 58.7019 67.7125 58.4439C67.464 58.1835 67.1278 58.0533 66.704 58.0533C66.4128 58.0533 66.1536 58.1148 65.9263 58.2379C65.699 58.361 65.5191 58.5386 65.3865 58.7706C65.2563 59.0002 65.1912 59.2737 65.1912 59.5909ZM72.5945 63.1136C72.0855 63.1136 71.6451 62.9953 71.2734 62.7585C70.9018 62.5194 70.6141 62.1892 70.4105 61.7678C70.2093 61.344 70.1087 60.8563 70.1087 60.3047C70.1087 59.7554 70.2093 59.2678 70.4105 58.8416C70.6141 58.4131 70.8946 58.0781 71.2521 57.8366C71.612 57.5928 72.0275 57.4709 72.4986 57.4709C72.7945 57.4709 73.0798 57.5253 73.3544 57.6342C73.629 57.7408 73.8752 57.9053 74.093 58.1278C74.3132 58.348 74.4872 58.6262 74.6151 58.9624C74.7429 59.2962 74.8068 59.6915 74.8068 60.1484V60.4609H70.5455V59.9034H74.1605C74.1605 59.553 74.0895 59.2382 73.9474 58.9588C73.8078 58.6771 73.6125 58.4545 73.3615 58.2912C73.1129 58.1278 72.8253 58.0462 72.4986 58.0462C72.1529 58.0462 71.8487 58.1385 71.5859 58.3232C71.3232 58.5078 71.1172 58.7517 70.968 59.0547C70.8213 59.3577 70.7467 59.6892 70.7443 60.049V60.3828C70.7443 60.8161 70.8189 61.1948 70.968 61.5192C71.1196 61.8411 71.3338 62.0909 71.6108 62.2685C71.8878 62.446 72.2157 62.5348 72.5945 62.5348C72.8525 62.5348 73.0786 62.4946 73.2727 62.4141C73.4692 62.3336 73.6338 62.2259 73.7663 62.0909C73.9013 61.9536 74.0031 61.8033 74.0717 61.6399L74.6719 61.8352C74.589 62.0649 74.4529 62.2768 74.2635 62.4709C74.0765 62.665 73.8421 62.8213 73.5604 62.9396C73.281 63.0556 72.959 63.1136 72.5945 63.1136ZM76.1998 63V57.5455H76.8141V58.3835H76.8603C76.9692 58.1089 77.1586 57.8875 77.4284 57.7195C77.7007 57.549 78.0085 57.4638 78.3517 57.4638C78.4038 57.4638 78.4618 57.465 78.5257 57.4673C78.5897 57.4697 78.6429 57.4721 78.6855 57.4744V58.1172C78.6571 58.1125 78.6074 58.1054 78.5364 58.0959C78.4654 58.0864 78.3884 58.0817 78.3056 58.0817C78.0215 58.0817 77.7682 58.142 77.5456 58.2628C77.3255 58.3812 77.1515 58.5457 77.0236 58.7564C76.8958 58.9671 76.8319 59.2074 76.8319 59.4773V63H76.1998ZM81.8034 63.1136C81.2944 63.1136 80.8541 62.9953 80.4824 62.7585C80.1107 62.5194 79.8231 62.1892 79.6195 61.7678C79.4183 61.344 79.3176 60.8563 79.3176 60.3047C79.3176 59.7554 79.4183 59.2678 79.6195 58.8416C79.8231 58.4131 80.1036 58.0781 80.4611 57.8366C80.821 57.5928 81.2364 57.4709 81.7076 57.4709C82.0035 57.4709 82.2888 57.5253 82.5634 57.6342C82.838 57.7408 83.0842 57.9053 83.302 58.1278C83.5222 58.348 83.6962 58.6262 83.824 58.9624C83.9519 59.2962 84.0158 59.6915 84.0158 60.1484V60.4609H79.7544V59.9034H83.3695C83.3695 59.553 83.2985 59.2382 83.1564 58.9588C83.0167 58.6771 82.8214 58.4545 82.5705 58.2912C82.3219 58.1278 82.0343 58.0462 81.7076 58.0462C81.3619 58.0462 81.0577 58.1385 80.7949 58.3232C80.5321 58.5078 80.3262 58.7517 80.177 59.0547C80.0302 59.3577 79.9557 59.6892 79.9533 60.049V60.3828C79.9533 60.8161 80.0279 61.1948 80.177 61.5192C80.3285 61.8411 80.5428 62.0909 80.8198 62.2685C81.0968 62.446 81.4247 62.5348 81.8034 62.5348C82.0615 62.5348 82.2876 62.4946 82.4817 62.4141C82.6782 62.3336 82.8427 62.2259 82.9753 62.0909C83.1103 61.9536 83.2121 61.8033 83.2807 61.6399L83.8809 61.8352C83.798 62.0649 83.6619 62.2768 83.4725 62.4709C83.2855 62.665 83.0511 62.8213 82.7694 62.9396C82.49 63.0556 82.168 63.1136 81.8034 63.1136ZM20.6724 75L19.0247 69.5455H19.6923L20.9849 74.0447H21.0311L22.3201 69.5455H22.9913L24.2697 74.0341H24.3194L25.612 69.5455H26.2797L24.6319 75H23.9785L22.6859 70.5291H22.6184L21.3258 75H20.6724ZM29.5281 75.1136C29.0191 75.1136 28.5787 74.9953 28.207 74.7585C27.8353 74.5194 27.5477 74.1892 27.3441 73.7678C27.1429 73.344 27.0423 72.8563 27.0423 72.3047C27.0423 71.7554 27.1429 71.2678 27.3441 70.8416C27.5477 70.4131 27.8282 70.0781 28.1857 69.8366C28.5456 69.5928 28.9611 69.4709 29.4322 69.4709C29.7281 69.4709 30.0134 69.5253 30.288 69.6342C30.5626 69.7408 30.8088 69.9053 31.0266 70.1278C31.2468 70.348 31.4208 70.6262 31.5487 70.9624C31.6765 71.2962 31.7404 71.6915 31.7404 72.1484V72.4609H27.479V71.9034H31.0941C31.0941 71.553 31.0231 71.2382 30.881 70.9588C30.7414 70.6771 30.546 70.4545 30.2951 70.2912C30.0465 70.1278 29.7589 70.0462 29.4322 70.0462C29.0865 70.0462 28.7823 70.1385 28.5195 70.3232C28.2567 70.5078 28.0508 70.7517 27.9016 71.0547C27.7549 71.3577 27.6803 71.6892 27.6779 72.049V72.3828C27.6779 72.8161 27.7525 73.1948 27.9016 73.5192C28.0531 73.8411 28.2674 74.0909 28.5444 74.2685C28.8214 74.446 29.1493 74.5348 29.5281 74.5348C29.7861 74.5348 30.0122 74.4946 30.2063 74.4141C30.4028 74.3336 30.5674 74.2259 30.6999 74.0909C30.8349 73.9536 30.9367 73.8033 31.0053 73.6399L31.6055 73.8352C31.5226 74.0649 31.3865 74.2768 31.1971 74.4709C31.0101 74.665 30.7757 74.8213 30.494 74.9396C30.2146 75.0556 29.8926 75.1136 29.5281 75.1136ZM33.1333 75V69.5455H33.7477V70.3835H33.7939C33.9028 70.1089 34.0922 69.8875 34.362 69.7195C34.6343 69.549 34.9421 69.4638 35.2853 69.4638C35.3374 69.4638 35.3954 69.465 35.4593 69.4673C35.5233 69.4697 35.5765 69.4721 35.6191 69.4744V70.1172C35.5907 70.1125 35.541 70.1054 35.47 70.0959C35.399 70.0864 35.322 70.0817 35.2392 70.0817C34.9551 70.0817 34.7018 70.142 34.4792 70.2628C34.2591 70.3812 34.085 70.5457 33.9572 70.7564C33.8294 70.9671 33.7654 71.2074 33.7654 71.4773V75H33.1333ZM38.737 75.1136C38.228 75.1136 37.7877 74.9953 37.416 74.7585C37.0443 74.5194 36.7567 74.1892 36.5531 73.7678C36.3519 73.344 36.2512 72.8563 36.2512 72.3047C36.2512 71.7554 36.3519 71.2678 36.5531 70.8416C36.7567 70.4131 37.0372 70.0781 37.3947 69.8366C37.7546 69.5928 38.17 69.4709 38.6412 69.4709C38.9371 69.4709 39.2224 69.5253 39.497 69.6342C39.7716 69.7408 40.0178 69.9053 40.2356 70.1278C40.4558 70.348 40.6298 70.6262 40.7576 70.9624C40.8855 71.2962 40.9494 71.6915 40.9494 72.1484V72.4609H36.688V71.9034H40.3031C40.3031 71.553 40.2321 71.2382 40.09 70.9588C39.9503 70.6771 39.755 70.4545 39.5041 70.2912C39.2555 70.1278 38.9679 70.0462 38.6412 70.0462C38.2955 70.0462 37.9913 70.1385 37.7285 70.3232C37.4657 70.5078 37.2598 70.7517 37.1106 71.0547C36.9638 71.3577 36.8893 71.6892 36.8869 72.049V72.3828C36.8869 72.8161 36.9615 73.1948 37.1106 73.5192C37.2621 73.8411 37.4764 74.0909 37.7534 74.2685C38.0304 74.446 38.3583 74.5348 38.737 74.5348C38.9951 74.5348 39.2212 74.4946 39.4153 74.4141C39.6118 74.3336 39.7763 74.2259 39.9089 74.0909C40.0439 73.9536 40.1457 73.8033 40.2143 73.6399L40.8145 73.8352C40.7316 74.0649 40.5955 74.2768 40.4061 74.4709C40.219 74.665 39.9847 74.8213 39.7029 74.9396C39.4236 75.0556 39.1016 75.1136 38.737 75.1136ZM48.8196 70.7422L48.2408 70.9055C48.1839 70.7422 48.1035 70.5942 47.9993 70.4616C47.8951 70.3291 47.759 70.2237 47.5909 70.1456C47.4252 70.0675 47.2192 70.0284 46.973 70.0284C46.6037 70.0284 46.3007 70.116 46.0639 70.2912C45.8272 70.4664 45.7088 70.6925 45.7088 70.9695C45.7088 71.2038 45.7893 71.3944 45.9503 71.5412C46.1136 71.6856 46.3646 71.8004 46.7031 71.8857L47.527 72.0881C47.9839 72.1993 48.326 72.3757 48.5533 72.6172C48.7829 72.8587 48.8977 73.1617 48.8977 73.5263C48.8977 73.834 48.8125 74.1075 48.642 74.3466C48.4716 74.5857 48.2337 74.7739 47.9283 74.9112C47.6252 75.0462 47.2737 75.1136 46.8736 75.1136C46.3409 75.1136 45.9018 74.9941 45.5561 74.755C45.2105 74.5135 44.9891 74.1655 44.892 73.7109L45.4993 73.5618C45.5774 73.8861 45.7301 74.1312 45.9574 74.2969C46.187 74.4626 46.4889 74.5455 46.8629 74.5455C47.282 74.5455 47.617 74.4519 47.8679 74.2649C48.1188 74.0755 48.2443 73.8388 48.2443 73.5547C48.2443 73.3345 48.1709 73.1499 48.0241 73.0007C47.8774 72.8492 47.6548 72.7379 47.3565 72.6669L46.4652 72.4538C45.9917 72.3402 45.6413 72.1603 45.4141 71.9141C45.1868 71.6679 45.0732 71.3625 45.0732 70.9979C45.0732 70.6972 45.1548 70.4332 45.3182 70.206C45.4815 69.9763 45.7064 69.7964 45.9929 69.6662C46.2794 69.536 46.6061 69.4709 46.973 69.4709C47.4725 69.4709 47.8714 69.5845 48.1697 69.8118C48.4704 70.0367 48.687 70.3468 48.8196 70.7422ZM52.4018 75.1136C51.9307 75.1136 51.514 74.9941 51.1518 74.755C50.792 74.5159 50.5102 74.1856 50.3066 73.7642C50.103 73.3404 50.0012 72.8516 50.0012 72.2976C50.0012 71.7389 50.103 71.2476 50.3066 70.8239C50.5102 70.3977 50.792 70.0663 51.1518 69.8295C51.514 69.5904 51.9307 69.4709 52.4018 69.4709C52.8729 69.4709 53.2884 69.5904 53.6483 69.8295C54.0081 70.0687 54.2898 70.4001 54.4934 70.8239C54.6994 71.2476 54.8024 71.7389 54.8024 72.2976C54.8024 72.8516 54.7006 73.3404 54.497 73.7642C54.2934 74.1856 54.0105 74.5159 53.6483 74.755C53.2884 74.9941 52.8729 75.1136 52.4018 75.1136ZM52.4018 74.5348C52.7806 74.5348 53.1014 74.433 53.3642 74.2294C53.627 74.0258 53.8258 73.7547 53.9608 73.4162C54.0981 73.0777 54.1667 72.7048 54.1667 72.2976C54.1667 71.8904 54.0981 71.5163 53.9608 71.1754C53.8258 70.8345 53.627 70.5611 53.3642 70.3551C53.1014 70.1491 52.7806 70.0462 52.4018 70.0462C52.0254 70.0462 51.7046 70.1491 51.4395 70.3551C51.1767 70.5611 50.9766 70.8345 50.8393 71.1754C50.7044 71.5163 50.6369 71.8904 50.6369 72.2976C50.6369 72.7048 50.7044 73.0777 50.8393 73.4162C50.9766 73.7547 51.1767 74.0258 51.4395 74.2294C51.7022 74.433 52.023 74.5348 52.4018 74.5348ZM59.0025 75V69.5455H59.6168V70.3835H59.6737C59.7826 70.1018 59.9637 69.8804 60.217 69.7195C60.4727 69.5561 60.7792 69.4744 61.1367 69.4744C61.5131 69.4744 61.8221 69.5632 62.0636 69.7408C62.3074 69.916 62.4897 70.1574 62.6104 70.4652H62.6566C62.7797 70.1622 62.9798 69.9219 63.2567 69.7443C63.5361 69.5644 63.8746 69.4744 64.2724 69.4744C64.779 69.4744 65.1791 69.6342 65.4727 69.9538C65.7662 70.2711 65.913 70.7351 65.913 71.3459V75H65.2809V71.3459C65.2809 70.915 65.1708 70.5919 64.9506 70.3764C64.7305 70.161 64.4405 70.0533 64.0806 70.0533C63.6639 70.0533 63.3432 70.1811 63.1183 70.4368C62.8933 70.6925 62.7809 71.0168 62.7809 71.4098V75H62.1346V71.2891C62.1346 70.9197 62.0316 70.6214 61.8256 70.3942C61.6197 70.1669 61.3297 70.0533 60.9556 70.0533C60.7047 70.0533 60.4786 70.1148 60.2773 70.2379C60.0785 70.361 59.921 70.5327 59.805 70.7528C59.6914 70.9706 59.6346 71.2216 59.6346 71.5057V75H59.0025ZM69.1099 75.1243C68.7808 75.1243 68.4802 75.0604 68.2079 74.9325C67.9357 74.8023 67.719 74.6153 67.5581 74.3714C67.3971 74.1252 67.3166 73.8269 67.3166 73.4766C67.3166 73.2067 67.3675 72.9794 67.4693 72.7947C67.5711 72.6101 67.7155 72.4586 67.9025 72.3402C68.0895 72.2218 68.3109 72.1283 68.5666 72.0597C68.8223 71.991 69.104 71.9377 69.4118 71.8999C69.7172 71.862 69.9752 71.8288 70.1859 71.8004C70.399 71.772 70.5611 71.727 70.6724 71.6655C70.7837 71.6039 70.8393 71.5045 70.8393 71.3672V71.2393C70.8393 70.8677 70.728 70.5753 70.5055 70.3622C70.2853 70.1468 69.9681 70.0391 69.5538 70.0391C69.1608 70.0391 68.84 70.1255 68.5914 70.2983C68.3452 70.4711 68.1724 70.6747 68.073 70.9091L67.4728 70.6925C67.5959 70.3942 67.7664 70.1562 67.9842 69.9787C68.202 69.7988 68.4458 69.6697 68.7157 69.5916C68.9856 69.5111 69.2591 69.4709 69.536 69.4709C69.7444 69.4709 69.961 69.4981 70.1859 69.5526C70.4132 69.607 70.6239 69.7017 70.818 69.8366C71.0121 69.9692 71.1696 70.1551 71.2903 70.3942C71.411 70.6309 71.4714 70.9316 71.4714 71.2962V75H70.8393V74.1371H70.8002C70.7245 74.2981 70.612 74.4543 70.4629 74.6058C70.3137 74.7573 70.1267 74.8816 69.9018 74.9787C69.6769 75.0758 69.4129 75.1243 69.1099 75.1243ZM69.1951 74.5455C69.5313 74.5455 69.8225 74.4709 70.0687 74.3217C70.3149 74.1726 70.5043 73.9749 70.6369 73.7287C70.7718 73.4801 70.8393 73.2067 70.8393 72.9084V72.12C70.792 72.165 70.7127 72.2053 70.6014 72.2408C70.4925 72.2763 70.3658 72.3082 70.2214 72.3366C70.0794 72.3627 69.9373 72.3852 69.7953 72.4041C69.6532 72.4231 69.5254 72.4396 69.4118 72.4538C69.104 72.4917 68.8412 72.5509 68.6234 72.6314C68.4056 72.7119 68.2387 72.8232 68.1227 72.9652C68.0067 73.1049 67.9487 73.2848 67.9487 73.505C67.9487 73.8364 68.0671 74.0933 68.3038 74.2756C68.5405 74.4555 68.8377 74.5455 69.1951 74.5455ZM73.785 71.5909V75H73.1529V69.5455H73.7672V70.4013H73.824C73.9519 70.1219 74.1507 69.8982 74.4206 69.7301C74.6929 69.5597 75.0291 69.4744 75.4292 69.4744C75.7961 69.4744 76.1181 69.5514 76.3951 69.7053C76.6744 69.8568 76.891 70.0805 77.0449 70.3764C77.2012 70.6723 77.2793 71.0357 77.2793 71.4666V75H76.6472V71.5057C76.6472 71.0582 76.5217 70.7043 76.2708 70.4439C76.0222 70.1835 75.6884 70.0533 75.2694 70.0533C74.9829 70.0533 74.7284 70.1148 74.5059 70.2379C74.2833 70.361 74.1069 70.5386 73.9767 70.7706C73.8489 71.0002 73.785 71.2737 73.785 71.5909ZM79.1889 77.0455C79.0634 77.0455 78.9463 77.0336 78.8374 77.0099C78.7285 76.9863 78.642 76.9602 78.5781 76.9318L78.7486 76.3743C78.964 76.4406 79.1558 76.4643 79.3239 76.4453C79.492 76.4287 79.6411 76.353 79.7713 76.218C79.9015 76.0855 80.0175 75.8819 80.1193 75.6072L80.3182 75.0533L78.3118 69.5455H78.9972L80.6165 74.1655H80.6662L82.2855 69.5455H82.9709L80.6626 75.8629C80.5656 76.1257 80.446 76.3447 80.304 76.5199C80.1619 76.6974 79.9974 76.8288 79.8104 76.9141C79.6257 77.0017 79.4186 77.0455 79.1889 77.0455ZM40.6808 81.5455L38.6887 87H38.0139L36.0218 81.5455H36.7071L38.3264 86.1655H38.3762L39.9955 81.5455H40.6808ZM41.9246 87V81.5455H42.5603V87H41.9246ZM42.2478 80.608C42.1176 80.608 42.0063 80.5642 41.914 80.4766C41.8216 80.3866 41.7755 80.2789 41.7755 80.1534C41.7755 80.0279 41.8216 79.9214 41.914 79.8338C42.0063 79.7438 42.1176 79.6989 42.2478 79.6989C42.378 79.6989 42.4893 79.7438 42.5816 79.8338C42.6739 79.9214 42.7201 80.0279 42.7201 80.1534C42.7201 80.2789 42.6739 80.3866 42.5816 80.4766C42.4893 80.5642 42.378 80.608 42.2478 80.608ZM46.1958 87.1136C45.7483 87.1136 45.3565 86.9953 45.0203 86.7585C44.6842 86.5218 44.4214 86.1915 44.232 85.7678C44.045 85.344 43.9514 84.8504 43.9514 84.2869C43.9514 83.7259 44.045 83.2346 44.232 82.8132C44.4214 82.3894 44.6853 82.0604 45.0239 81.826C45.3624 81.5893 45.7566 81.4709 46.2064 81.4709C46.5378 81.4709 46.8137 81.5301 47.0338 81.6484C47.254 81.7644 47.4304 81.9089 47.5629 82.0817C47.6955 82.2545 47.7985 82.4226 47.8719 82.5859H47.9287V79.7273H48.5644V87H47.9465V85.9879H47.8719C47.7985 86.1536 47.6943 86.3241 47.5594 86.4993C47.4244 86.6721 47.2457 86.8177 47.0232 86.9361C46.803 87.0545 46.5272 87.1136 46.1958 87.1136ZM46.2703 86.5348C46.6231 86.5348 46.9237 86.4389 47.1723 86.2472C47.4209 86.053 47.6103 85.7867 47.7405 85.4482C47.8731 85.1072 47.9394 84.7166 47.9394 84.2763C47.9394 83.8407 47.8743 83.456 47.7441 83.1222C47.6138 82.786 47.4244 82.5232 47.1759 82.3338C46.9273 82.142 46.6254 82.0462 46.2703 82.0462C45.9057 82.0462 45.598 82.1456 45.347 82.3445C45.0985 82.541 44.9091 82.8073 44.7789 83.1435C44.651 83.4796 44.5871 83.8572 44.5871 84.2763C44.5871 84.7 44.6522 85.0824 44.7824 85.4233C44.9126 85.7642 45.102 86.0353 45.3506 86.2365C45.6015 86.4354 45.9081 86.5348 46.2703 86.5348ZM52.57 87.1136C52.061 87.1136 51.6207 86.9953 51.249 86.7585C50.8773 86.5194 50.5897 86.1892 50.3861 85.7678C50.1849 85.344 50.0843 84.8563 50.0843 84.3047C50.0843 83.7554 50.1849 83.2678 50.3861 82.8416C50.5897 82.4131 50.8702 82.0781 51.2277 81.8366C51.5876 81.5928 52.003 81.4709 52.4742 81.4709C52.7701 81.4709 53.0554 81.5253 53.33 81.6342C53.6046 81.7408 53.8508 81.9053 54.0686 82.1278C54.2888 82.348 54.4628 82.6262 54.5906 82.9624C54.7185 83.2962 54.7824 83.6915 54.7824 84.1484V84.4609H50.521V83.9034H54.1361C54.1361 83.553 54.0651 83.2382 53.923 82.9588C53.7834 82.6771 53.588 82.4545 53.3371 82.2912C53.0885 82.1278 52.8009 82.0462 52.4742 82.0462C52.1285 82.0462 51.8243 82.1385 51.5615 82.3232C51.2987 82.5078 51.0928 82.7517 50.9436 83.0547C50.7968 83.3577 50.7223 83.6892 50.7199 84.049V84.3828C50.7199 84.8161 50.7945 85.1948 50.9436 85.5192C51.0951 85.8411 51.3094 86.0909 51.5864 86.2685C51.8634 86.446 52.1913 86.5348 52.57 86.5348C52.8281 86.5348 53.0542 86.4946 53.2483 86.4141C53.4448 86.3336 53.6093 86.2259 53.7419 86.0909C53.8769 85.9536 53.9787 85.8033 54.0473 85.6399L54.6475 85.8352C54.5646 86.0649 54.4285 86.2768 54.2391 86.4709C54.0521 86.665 53.8177 86.8213 53.536 86.9396C53.2566 87.0556 52.9346 87.1136 52.57 87.1136ZM58.2954 87.1136C57.8242 87.1136 57.4076 86.9941 57.0454 86.755C56.6855 86.5159 56.4038 86.1856 56.2002 85.7642C55.9966 85.3404 55.8948 84.8516 55.8948 84.2976C55.8948 83.7389 55.9966 83.2476 56.2002 82.8239C56.4038 82.3977 56.6855 82.0663 57.0454 81.8295C57.4076 81.5904 57.8242 81.4709 58.2954 81.4709C58.7665 81.4709 59.182 81.5904 59.5418 81.8295C59.9017 82.0687 60.1834 82.4001 60.387 82.8239C60.593 83.2476 60.6959 83.7389 60.6959 84.2976C60.6959 84.8516 60.5941 85.3404 60.3905 85.7642C60.1869 86.1856 59.904 86.5159 59.5418 86.755C59.182 86.9941 58.7665 87.1136 58.2954 87.1136ZM58.2954 86.5348C58.6742 86.5348 58.9949 86.433 59.2577 86.2294C59.5205 86.0258 59.7194 85.7547 59.8543 85.4162C59.9916 85.0777 60.0603 84.7048 60.0603 84.2976C60.0603 83.8904 59.9916 83.5163 59.8543 83.1754C59.7194 82.8345 59.5205 82.5611 59.2577 82.3551C58.9949 82.1491 58.6742 82.0462 58.2954 82.0462C57.9189 82.0462 57.5982 82.1491 57.333 82.3551C57.0702 82.5611 56.8702 82.8345 56.7329 83.1754C56.5979 83.5163 56.5305 83.8904 56.5305 84.2976C56.5305 84.7048 56.5979 85.0777 56.7329 85.4162C56.8702 85.7547 57.0702 86.0258 57.333 86.2294C57.5958 86.433 57.9166 86.5348 58.2954 86.5348ZM65.7483 82.7422L65.1695 82.9055C65.1127 82.7422 65.0322 82.5942 64.928 82.4616C64.8238 82.3291 64.6877 82.2237 64.5196 82.1456C64.3539 82.0675 64.1479 82.0284 63.9017 82.0284C63.5324 82.0284 63.2294 82.116 62.9926 82.2912C62.7559 82.4664 62.6375 82.6925 62.6375 82.9695C62.6375 83.2038 62.718 83.3944 62.879 83.5412C63.0423 83.6856 63.2933 83.8004 63.6318 83.8857L64.4557 84.0881C64.9126 84.1993 65.2547 84.3757 65.482 84.6172C65.7116 84.8587 65.8264 85.1617 65.8264 85.5263C65.8264 85.834 65.7412 86.1075 65.5708 86.3466C65.4003 86.5857 65.1624 86.7739 64.857 86.9112C64.5539 87.0462 64.2024 87.1136 63.8023 87.1136C63.2696 87.1136 62.8305 86.9941 62.4848 86.755C62.1392 86.5135 61.9178 86.1655 61.8208 85.7109L62.428 85.5618C62.5061 85.8861 62.6588 86.1312 62.8861 86.2969C63.1157 86.4626 63.4176 86.5455 63.7916 86.5455C64.2107 86.5455 64.5457 86.4519 64.7966 86.2649C65.0476 86.0755 65.173 85.8388 65.173 85.5547C65.173 85.3345 65.0996 85.1499 64.9529 85.0007C64.8061 84.8492 64.5835 84.7379 64.2852 84.6669L63.3939 84.4538C62.9204 84.3402 62.57 84.1603 62.3428 83.9141C62.1155 83.6679 62.0019 83.3625 62.0019 82.9979C62.0019 82.6972 62.0835 82.4332 62.2469 82.206C62.4102 81.9763 62.6352 81.7964 62.9216 81.6662C63.2081 81.536 63.5348 81.4709 63.9017 81.4709C64.4012 81.4709 64.8002 81.5845 65.0985 81.8118C65.3991 82.0367 65.6157 82.3468 65.7483 82.7422Z" fill="#333333"/>
</svg>
