<svg width="104" height="104" viewBox="0 0 104 104" fill="none" xmlns="http://www.w3.org/2000/svg">
<path d="M10.6829 82.4038C10.9746 81.3299 10.3298 79.8367 9.71436 78.7603C9.52273 78.4393 9.31486 78.1283 9.09157 77.8286C3.81324 69.8237 0.999905 60.4459 1.00024 50.8574C0.914424 23.3346 23.7369 1 51.9584 1C76.5708 1 97.1154 18.0507 101.916 40.6844C102.636 44.0401 102.999 47.4623 103 50.8942C103 78.4563 81.0578 101.141 52.8362 101.141C48.3492 101.141 42.293 100.014 38.9902 99.0892C35.6875 98.1648 32.3897 96.9388 31.5389 96.6103C30.6687 96.2758 29.7446 96.1038 28.8123 96.1027C27.7941 96.0989 26.7856 96.3016 25.848 96.6986L9.21662 102.701C8.85226 102.858 8.46618 102.959 8.07157 103C7.76017 102.999 7.45205 102.936 7.16506 102.815C6.87807 102.695 6.61792 102.518 6.39967 102.296C6.18142 102.074 6.00942 101.811 5.89362 101.521C5.77783 101.232 5.72054 100.923 5.72509 100.612C5.74554 100.338 5.79485 100.068 5.8722 99.8051L10.6829 82.4038Z" stroke="#CFCFDD" stroke-miterlimit="10" stroke-linecap="round"/>
<path d="M23.0245 21.7273V29H22.3604V21.7273H23.0245ZM28.2713 25.5909V29H27.6392V21.7273H28.2713V24.4013H28.3281C28.456 24.1196 28.6536 23.8946 28.9212 23.7266C29.1911 23.5585 29.532 23.4744 29.9439 23.4744C30.3132 23.4744 30.6375 23.5502 30.9169 23.7017C31.1963 23.8532 31.4141 24.0769 31.5703 24.3729C31.7266 24.6688 31.8047 25.0334 31.8047 25.4666V29H31.169V25.5057C31.169 25.0559 31.0436 24.7019 30.7926 24.4439C30.544 24.1835 30.2079 24.0533 29.7841 24.0533C29.4929 24.0533 29.2337 24.1148 29.0064 24.2379C28.7791 24.361 28.5992 24.5386 28.4666 24.7706C28.3364 25.0002 28.2713 25.2737 28.2713 25.5909ZM34.9927 29.1243C34.6636 29.1243 34.363 29.0604 34.0907 28.9325C33.8185 28.8023 33.6019 28.6153 33.4409 28.3714C33.2799 28.1252 33.1994 27.8269 33.1994 27.4766C33.1994 27.2067 33.2503 26.9794 33.3521 26.7947C33.4539 26.6101 33.5983 26.4586 33.7853 26.3402C33.9724 26.2218 34.1937 26.1283 34.4494 26.0597C34.7051 25.991 34.9868 25.9377 35.2946 25.8999C35.6 25.862 35.858 25.8288 36.0687 25.8004C36.2818 25.772 36.444 25.727 36.5552 25.6655C36.6665 25.6039 36.7221 25.5045 36.7221 25.3672V25.2393C36.7221 24.8677 36.6109 24.5753 36.3883 24.3622C36.1681 24.1468 35.8509 24.0391 35.4366 24.0391C35.0436 24.0391 34.7228 24.1255 34.4743 24.2983C34.228 24.4711 34.0552 24.6747 33.9558 24.9091L33.3556 24.6925C33.4788 24.3942 33.6492 24.1562 33.867 23.9787C34.0848 23.7988 34.3287 23.6697 34.5985 23.5916C34.8684 23.5111 35.1419 23.4709 35.4189 23.4709C35.6272 23.4709 35.8438 23.4981 36.0687 23.5526C36.296 23.607 36.5067 23.7017 36.7008 23.8366C36.8949 23.9692 37.0524 24.1551 37.1731 24.3942C37.2939 24.6309 37.3542 24.9316 37.3542 25.2962V29H36.7221V28.1371H36.6831C36.6073 28.2981 36.4949 28.4543 36.3457 28.6058C36.1966 28.7573 36.0095 28.8816 35.7846 28.9787C35.5597 29.0758 35.2958 29.1243 34.9927 29.1243ZM35.0779 28.5455C35.4141 28.5455 35.7053 28.4709 35.9515 28.3217C36.1977 28.1726 36.3871 27.9749 36.5197 27.7287C36.6547 27.4801 36.7221 27.2067 36.7221 26.9084V26.12C36.6748 26.165 36.5955 26.2053 36.4842 26.2408C36.3753 26.2763 36.2486 26.3082 36.1042 26.3366C35.9622 26.3627 35.8201 26.3852 35.6781 26.4041C35.536 26.4231 35.4082 26.4396 35.2946 26.4538C34.9868 26.4917 34.724 26.5509 34.5062 26.6314C34.2884 26.7119 34.1215 26.8232 34.0055 26.9652C33.8895 27.1049 33.8315 27.2848 33.8315 27.505C33.8315 27.8364 33.9499 28.0933 34.1866 28.2756C34.4234 28.4555 34.7205 28.5455 35.0779 28.5455ZM40.9995 29.1136C40.552 29.1136 40.1602 28.9953 39.824 28.7585C39.4879 28.5218 39.2251 28.1915 39.0357 27.7678C38.8487 27.344 38.7551 26.8504 38.7551 26.2869C38.7551 25.7259 38.8487 25.2346 39.0357 24.8132C39.2251 24.3894 39.4891 24.0604 39.8276 23.826C40.1661 23.5893 40.5603 23.4709 41.0101 23.4709C41.3416 23.4709 41.6174 23.5301 41.8375 23.6484C42.0577 23.7644 42.2341 23.9089 42.3667 24.0817C42.4992 24.2545 42.6022 24.4226 42.6756 24.5859H42.7324V21.7273H43.3681V29H42.7502V27.9879H42.6756C42.6022 28.1536 42.498 28.3241 42.3631 28.4993C42.2282 28.6721 42.0494 28.8177 41.8269 28.9361C41.6067 29.0545 41.3309 29.1136 40.9995 29.1136ZM41.074 28.5348C41.4268 28.5348 41.7275 28.4389 41.976 28.2472C42.2246 28.053 42.414 27.7867 42.5442 27.4482C42.6768 27.1072 42.7431 26.7166 42.7431 26.2763C42.7431 25.8407 42.678 25.456 42.5478 25.1222C42.4176 24.786 42.2282 24.5232 41.9796 24.3338C41.731 24.142 41.4292 24.0462 41.074 24.0462C40.7095 24.0462 40.4017 24.1456 40.1507 24.3445C39.9022 24.541 39.7128 24.8073 39.5826 25.1435C39.4547 25.4796 39.3908 25.8572 39.3908 26.2763C39.3908 26.7 39.4559 27.0824 39.5861 27.4233C39.7163 27.7642 39.9057 28.0353 40.1543 28.2365C40.4052 28.4354 40.7118 28.5348 41.074 28.5348ZM49.9448 29.1136C49.4973 29.1136 49.1055 28.9953 48.7694 28.7585C48.4332 28.5218 48.1704 28.1915 47.981 27.7678C47.794 27.344 47.7005 26.8504 47.7005 26.2869C47.7005 25.7259 47.794 25.2346 47.981 24.8132C48.1704 24.3894 48.4344 24.0604 48.7729 23.826C49.1114 23.5893 49.5056 23.4709 49.9554 23.4709C50.2869 23.4709 50.5627 23.5301 50.7828 23.6484C51.003 23.7644 51.1794 23.9089 51.312 24.0817C51.4445 24.2545 51.5475 24.4226 51.6209 24.5859H51.6777V21.7273H52.3134V29H51.6955V27.9879H51.6209C51.5475 28.1536 51.4434 28.3241 51.3084 28.4993C51.1735 28.6721 50.9947 28.8177 50.7722 28.9361C50.552 29.0545 50.2762 29.1136 49.9448 29.1136ZM50.0194 28.5348C50.3721 28.5348 50.6728 28.4389 50.9213 28.2472C51.1699 28.053 51.3593 27.7867 51.4895 27.4482C51.6221 27.1072 51.6884 26.7166 51.6884 26.2763C51.6884 25.8407 51.6233 25.456 51.4931 25.1222C51.3629 24.786 51.1735 24.5232 50.9249 24.3338C50.6763 24.142 50.3745 24.0462 50.0194 24.0462C49.6548 24.0462 49.347 24.1456 49.0961 24.3445C48.8475 24.541 48.6581 24.8073 48.5279 25.1435C48.4 25.4796 48.3361 25.8572 48.3361 26.2763C48.3361 26.7 48.4012 27.0824 48.5314 27.4233C48.6616 27.7642 48.851 28.0353 49.0996 28.2365C49.3506 28.4354 49.6571 28.5348 50.0194 28.5348ZM54.1209 29V23.5455H54.7566V29H54.1209ZM54.4441 22.608C54.3139 22.608 54.2026 22.5642 54.1103 22.4766C54.0179 22.3866 53.9718 22.2789 53.9718 22.1534C53.9718 22.0279 54.0179 21.9214 54.1103 21.8338C54.2026 21.7438 54.3139 21.6989 54.4441 21.6989C54.5743 21.6989 54.6855 21.7438 54.7779 21.8338C54.8702 21.9214 54.9164 22.0279 54.9164 22.1534C54.9164 22.2789 54.8702 22.3866 54.7779 22.4766C54.6855 22.5642 54.5743 22.608 54.4441 22.608ZM58.6726 23.5455V24.0959H55.9915V23.5455H58.6726ZM56.8295 29V22.7464C56.8295 22.4529 56.897 22.2055 57.032 22.0043C57.1693 21.803 57.348 21.6503 57.5682 21.5462C57.7884 21.442 58.0215 21.3899 58.2678 21.3899C58.4335 21.3899 58.5708 21.4041 58.6797 21.4325C58.791 21.4586 58.8786 21.4846 58.9425 21.5107L58.7578 22.0646C58.7105 22.0504 58.6525 22.0339 58.5838 22.0149C58.5152 21.996 58.4287 21.9865 58.3246 21.9865C58.05 21.9865 57.8381 22.0634 57.6889 22.2173C57.5398 22.3712 57.4652 22.5914 57.4652 22.8778L57.4616 29H56.8295ZM62.1784 23.5455V24.0959H59.4973V23.5455H62.1784ZM60.3354 29V22.7464C60.3354 22.4529 60.4029 22.2055 60.5378 22.0043C60.6751 21.803 60.8539 21.6503 61.074 21.5462C61.2942 21.442 61.5274 21.3899 61.7736 21.3899C61.9393 21.3899 62.0766 21.4041 62.1855 21.4325C62.2968 21.4586 62.3844 21.4846 62.4483 21.5107L62.2637 22.0646C62.2163 22.0504 62.1583 22.0339 62.0897 22.0149C62.021 21.996 61.9346 21.9865 61.8304 21.9865C61.5558 21.9865 61.3439 22.0634 61.1948 22.2173C61.0456 22.3712 60.9711 22.5914 60.9711 22.8778L60.9675 29H60.3354ZM63.4471 29V23.5455H64.0827V29H63.4471ZM63.7702 22.608C63.64 22.608 63.5288 22.5642 63.4364 22.4766C63.3441 22.3866 63.2979 22.2789 63.2979 22.1534C63.2979 22.0279 63.3441 21.9214 63.4364 21.8338C63.5288 21.7438 63.64 21.6989 63.7702 21.6989C63.9004 21.6989 64.0117 21.7438 64.104 21.8338C64.1964 21.9214 64.2425 22.0279 64.2425 22.1534C64.2425 22.2789 64.1964 22.3866 64.104 22.4766C64.0117 22.5642 63.9004 22.608 63.7702 22.608ZM67.8851 29.1136C67.3974 29.1136 66.9725 28.9917 66.6103 28.7479C66.2504 28.504 65.9711 28.1702 65.7722 27.7464C65.5733 27.3227 65.4739 26.8397 65.4739 26.2976C65.4739 25.7507 65.5745 25.2642 65.7757 24.8381C65.9793 24.4119 66.2611 24.0781 66.6209 23.8366C66.9808 23.5928 67.3986 23.4709 67.8745 23.4709C68.2391 23.4709 68.5693 23.5419 68.8652 23.6839C69.1612 23.8236 69.405 24.0213 69.5968 24.277C69.7909 24.5303 69.9128 24.8262 69.9625 25.1648H69.3233C69.257 24.857 69.0972 24.5942 68.8439 24.3764C68.593 24.1562 68.2734 24.0462 67.8851 24.0462C67.5371 24.0462 67.2293 24.1409 66.9618 24.3303C66.6943 24.5173 66.4848 24.7789 66.3333 25.1151C66.1841 25.4489 66.1096 25.8359 66.1096 26.2763C66.1096 26.719 66.1829 27.1108 66.3297 27.4517C66.4765 27.7902 66.6825 28.0554 66.9476 28.2472C67.2151 28.4389 67.5276 28.5348 67.8851 28.5348C68.1266 28.5348 68.3468 28.4898 68.5456 28.3999C68.7469 28.3075 68.915 28.1773 69.0499 28.0092C69.1872 27.8411 69.2795 27.6411 69.3269 27.4091H69.9661C69.9187 27.7382 69.8016 28.0317 69.6145 28.2898C69.4299 28.5455 69.1896 28.7467 68.8936 28.8935C68.6001 29.0402 68.2639 29.1136 67.8851 29.1136ZM74.7868 26.9155V23.5455H75.4189V29H74.7868V28.0945H74.737C74.6092 28.3738 74.4068 28.607 74.1298 28.794C73.8528 28.9787 73.5143 29.071 73.1142 29.071C72.7662 29.071 72.4572 28.9953 72.1873 28.8438C71.9174 28.6899 71.7056 28.465 71.5517 28.169C71.3978 27.8731 71.3208 27.5097 71.3208 27.0788V23.5455H71.9529V27.0398C71.9529 27.4659 72.0784 27.8092 72.3294 28.0696C72.5803 28.3277 72.9023 28.4567 73.2953 28.4567C73.5415 28.4567 73.7782 28.3975 74.0055 28.2791C74.2328 28.1607 74.4198 27.9879 74.5666 27.7607C74.7134 27.531 74.7868 27.2493 74.7868 26.9155ZM77.7244 21.7273V29H77.0923V21.7273H77.7244ZM81.5455 23.5455V24.0959H78.9425V23.5455H81.5455ZM79.7557 22.2386H80.3913V27.576C80.3913 27.8033 80.4304 27.982 80.5085 28.1122C80.5866 28.2401 80.6884 28.3312 80.8139 28.3857C80.9394 28.4377 81.0732 28.4638 81.2152 28.4638C81.2981 28.4638 81.3691 28.459 81.4283 28.4496C81.4875 28.4377 81.5395 28.4259 81.5845 28.4141L81.7195 28.9858C81.6579 29.0095 81.5821 29.0308 81.4922 29.0497C81.4022 29.071 81.291 29.0817 81.1584 29.0817C80.9264 29.0817 80.7027 29.0308 80.4872 28.929C80.2741 28.8272 80.099 28.6757 79.9616 28.4744C79.8243 28.2732 79.7557 28.0234 79.7557 27.7251V22.2386ZM83.4213 31.0455C83.2959 31.0455 83.1787 31.0336 83.0698 31.0099C82.9609 30.9863 82.8745 30.9602 82.8105 30.9318L82.981 30.3743C83.1964 30.4406 83.3882 30.4643 83.5563 30.4453C83.7244 30.4287 83.8735 30.353 84.0037 30.218C84.1339 30.0855 84.2499 29.8819 84.3517 29.6072L84.5506 29.0533L82.5442 23.5455H83.2296L84.8489 28.1655H84.8986L86.5179 23.5455H87.2033L84.8951 29.8629C84.798 30.1257 84.6784 30.3447 84.5364 30.5199C84.3944 30.6974 84.2298 30.8288 84.0428 30.9141C83.8581 31.0017 83.651 31.0455 83.4213 31.0455ZM19.5661 35.5455V36.0959H16.885V35.5455H19.5661ZM17.7231 41V34.7464C17.7231 34.4529 17.7906 34.2055 17.9255 34.0043C18.0628 33.803 18.2416 33.6503 18.4617 33.5462C18.6819 33.442 18.9151 33.3899 19.1613 33.3899C19.327 33.3899 19.4643 33.4041 19.5732 33.4325C19.6845 33.4586 19.7721 33.4846 19.836 33.5107L19.6514 34.0646C19.604 34.0504 19.546 34.0339 19.4774 34.0149C19.4087 33.996 19.3223 33.9865 19.2181 33.9865C18.9435 33.9865 18.7316 34.0634 18.5825 34.2173C18.4333 34.3712 18.3588 34.5914 18.3588 34.8778L18.3552 41H17.7231ZM20.8348 41V35.5455H21.4704V41H20.8348ZM21.1579 34.608C21.0277 34.608 20.9165 34.5642 20.8241 34.4766C20.7318 34.3866 20.6856 34.2789 20.6856 34.1534C20.6856 34.0279 20.7318 33.9214 20.8241 33.8338C20.9165 33.7438 21.0277 33.6989 21.1579 33.6989C21.2881 33.6989 21.3994 33.7438 21.4917 33.8338C21.5841 33.9214 21.6302 34.0279 21.6302 34.1534C21.6302 34.2789 21.5841 34.3866 21.4917 34.4766C21.3994 34.5642 21.2881 34.608 21.1579 34.608ZM23.7742 37.5909V41H23.1421V35.5455H23.7565V36.4013H23.8133C23.9411 36.1219 24.14 35.8982 24.4099 35.7301C24.6821 35.5597 25.0183 35.4744 25.4184 35.4744C25.7854 35.4744 26.1073 35.5514 26.3843 35.7053C26.6637 35.8568 26.8803 36.0805 27.0342 36.3764C27.1904 36.6723 27.2686 37.0357 27.2686 37.4666V41H26.6365V37.5057C26.6365 37.0582 26.511 36.7043 26.26 36.4439C26.0115 36.1835 25.6776 36.0533 25.2586 36.0533C24.9722 36.0533 24.7177 36.1148 24.4951 36.2379C24.2726 36.361 24.0962 36.5386 23.966 36.7706C23.8382 37.0002 23.7742 37.2737 23.7742 37.5909ZM30.8969 41.1136C30.4495 41.1136 30.0577 40.9953 29.7215 40.7585C29.3853 40.5218 29.1225 40.1915 28.9331 39.7678C28.7461 39.344 28.6526 38.8504 28.6526 38.2869C28.6526 37.7259 28.7461 37.2346 28.9331 36.8132C29.1225 36.3894 29.3865 36.0604 29.7251 35.826C30.0636 35.5893 30.4578 35.4709 30.9076 35.4709C31.239 35.4709 31.5148 35.5301 31.735 35.6484C31.9552 35.7644 32.1315 35.9089 32.2641 36.0817C32.3967 36.2545 32.4997 36.4226 32.5731 36.5859H32.6299V33.7273H33.2655V41H32.6476V39.9879H32.5731C32.4997 40.1536 32.3955 40.3241 32.2606 40.4993C32.1256 40.6721 31.9469 40.8177 31.7243 40.9361C31.5042 41.0545 31.2284 41.1136 30.8969 41.1136ZM30.9715 40.5348C31.3242 40.5348 31.6249 40.4389 31.8735 40.2472C32.1221 40.053 32.3115 39.7867 32.4417 39.4482C32.5742 39.1072 32.6405 38.7166 32.6405 38.2763C32.6405 37.8407 32.5754 37.456 32.4452 37.1222C32.315 36.786 32.1256 36.5232 31.877 36.3338C31.6285 36.142 31.3266 36.0462 30.9715 36.0462C30.6069 36.0462 30.2992 36.1456 30.0482 36.3445C29.7996 36.541 29.6102 36.8073 29.48 37.1435C29.3522 37.4796 29.2883 37.8572 29.2883 38.2763C29.2883 38.7 29.3534 39.0824 29.4836 39.4233C29.6138 39.7642 29.8032 40.0353 30.0518 40.2365C30.3027 40.4354 30.6093 40.5348 30.9715 40.5348ZM35.0731 41V35.5455H35.7087V41H35.0731ZM35.3962 34.608C35.266 34.608 35.1547 34.5642 35.0624 34.4766C34.9701 34.3866 34.9239 34.2789 34.9239 34.1534C34.9239 34.0279 34.9701 33.9214 35.0624 33.8338C35.1547 33.7438 35.266 33.6989 35.3962 33.6989C35.5264 33.6989 35.6377 33.7438 35.73 33.8338C35.8224 33.9214 35.8685 34.0279 35.8685 34.1534C35.8685 34.2789 35.8224 34.3866 35.73 34.4766C35.6377 34.5642 35.5264 34.608 35.3962 34.608ZM38.0125 37.5909V41H37.3804V35.5455H37.9948V36.4013H38.0516C38.1794 36.1219 38.3783 35.8982 38.6482 35.7301C38.9204 35.5597 39.2566 35.4744 39.6567 35.4744C40.0236 35.4744 40.3456 35.5514 40.6226 35.7053C40.902 35.8568 41.1186 36.0805 41.2725 36.3764C41.4287 36.6723 41.5068 37.0357 41.5068 37.4666V41H40.8747V37.5057C40.8747 37.0582 40.7493 36.7043 40.4983 36.4439C40.2497 36.1835 39.9159 36.0533 39.4969 36.0533C39.2104 36.0533 38.9559 36.1148 38.7334 36.2379C38.5109 36.361 38.3345 36.5386 38.2043 36.7706C38.0764 37.0002 38.0125 37.2737 38.0125 37.5909ZM45.2524 43.1591C44.8807 43.1591 44.5552 43.1106 44.2758 43.0135C43.9965 42.9188 43.7609 42.7886 43.5692 42.6229C43.3774 42.4571 43.2282 42.2713 43.1217 42.0653L43.6402 41.7244C43.7183 41.8617 43.8225 41.9967 43.9527 42.1293C44.0853 42.2618 44.2569 42.3719 44.4676 42.4595C44.6807 42.5471 44.9423 42.5909 45.2524 42.5909C45.7354 42.5909 46.1248 42.4702 46.4207 42.2287C46.719 41.9872 46.8682 41.612 46.8682 41.103V39.8743H46.8113C46.738 40.04 46.6326 40.2057 46.4953 40.3714C46.358 40.5348 46.1781 40.6709 45.9555 40.7798C45.7354 40.8887 45.4619 40.9432 45.1352 40.9432C44.6996 40.9432 44.3125 40.8355 43.974 40.62C43.6378 40.4046 43.3727 40.0968 43.1785 39.6967C42.9868 39.2943 42.8909 38.8149 42.8909 38.2585C42.8909 37.7069 42.9844 37.2216 43.1714 36.8026C43.3608 36.3835 43.6248 36.0568 43.9633 35.8224C44.3019 35.5881 44.6961 35.4709 45.1459 35.4709C45.4797 35.4709 45.7567 35.5301 45.9768 35.6484C46.197 35.7644 46.3734 35.9089 46.5059 36.0817C46.6409 36.2545 46.7462 36.4226 46.822 36.5859H46.8859V35.5455H47.5038V41.142C47.5038 41.6037 47.4056 41.9837 47.2091 42.282C47.0126 42.5803 46.7451 42.8004 46.4065 42.9425C46.068 43.0869 45.6833 43.1591 45.2524 43.1591ZM45.2098 40.3643C45.5602 40.3643 45.8596 40.2803 46.1082 40.1122C46.3568 39.9418 46.5474 39.6979 46.68 39.3807C46.8125 39.0634 46.8788 38.6858 46.8788 38.2479C46.8788 37.8217 46.8137 37.4441 46.6835 37.1151C46.5533 36.7836 46.3639 36.5232 46.1153 36.3338C45.8691 36.142 45.5673 36.0462 45.2098 36.0462C44.8452 36.0462 44.5374 36.1444 44.2865 36.3409C44.0355 36.5374 43.8461 36.8026 43.7183 37.1364C43.5905 37.4678 43.5265 37.8383 43.5265 38.2479C43.5265 38.6645 43.5916 39.0327 43.7219 39.3523C43.8521 39.6695 44.0426 39.9181 44.2936 40.098C44.5445 40.2756 44.8499 40.3643 45.2098 40.3643ZM54.1382 35.5455V36.0959H51.5352V35.5455H54.1382ZM52.3485 34.2386H52.9841V39.576C52.9841 39.8033 53.0232 39.982 53.1013 40.1122C53.1794 40.2401 53.2812 40.3312 53.4067 40.3857C53.5322 40.4377 53.6659 40.4638 53.808 40.4638C53.8908 40.4638 53.9619 40.459 54.021 40.4496C54.0802 40.4377 54.1323 40.4259 54.1773 40.4141L54.3122 40.9858C54.2507 41.0095 54.1749 41.0308 54.085 41.0497C53.995 41.071 53.8837 41.0817 53.7512 41.0817C53.5191 41.0817 53.2954 41.0308 53.08 40.929C52.8669 40.8272 52.6917 40.6757 52.5544 40.4744C52.4171 40.2732 52.3485 40.0234 52.3485 39.7251V34.2386ZM56.3231 37.5909V41H55.691V33.7273H56.3231V36.4013H56.3799C56.5077 36.1196 56.7054 35.8946 56.9729 35.7266C57.2428 35.5585 57.5837 35.4744 57.9956 35.4744C58.365 35.4744 58.6893 35.5502 58.9687 35.7017C59.248 35.8532 59.4658 36.0769 59.6221 36.3729C59.7783 36.6688 59.8564 37.0334 59.8564 37.4666V41H59.2208V37.5057C59.2208 37.0559 59.0953 36.7019 58.8444 36.4439C58.5958 36.1835 58.2596 36.0533 57.8358 36.0533C57.5447 36.0533 57.2854 36.1148 57.0581 36.2379C56.8309 36.361 56.651 36.5386 56.5184 36.7706C56.3882 37.0002 56.3231 37.2737 56.3231 37.5909ZM63.7263 41.1136C63.2173 41.1136 62.777 40.9953 62.4053 40.7585C62.0336 40.5194 61.7459 40.1892 61.5423 39.7678C61.3411 39.344 61.2405 38.8563 61.2405 38.3047C61.2405 37.7554 61.3411 37.2678 61.5423 36.8416C61.7459 36.4131 62.0265 36.0781 62.384 35.8366C62.7438 35.5928 63.1593 35.4709 63.6304 35.4709C63.9263 35.4709 64.2116 35.5253 64.4862 35.6342C64.7609 35.7408 65.0071 35.9053 65.2249 36.1278C65.445 36.348 65.6191 36.6262 65.7469 36.9624C65.8747 37.2962 65.9387 37.6915 65.9387 38.1484V38.4609H61.6773V37.9034H65.2923C65.2923 37.553 65.2213 37.2382 65.0793 36.9588C64.9396 36.6771 64.7443 36.4545 64.4933 36.2912C64.2448 36.1278 63.9571 36.0462 63.6304 36.0462C63.2848 36.0462 62.9806 36.1385 62.7178 36.3232C62.455 36.5078 62.249 36.7517 62.0999 37.0547C61.9531 37.3577 61.8785 37.6892 61.8762 38.049V38.3828C61.8762 38.8161 61.9507 39.1948 62.0999 39.5192C62.2514 39.8411 62.4656 40.0909 62.7426 40.2685C63.0196 40.446 63.3475 40.5348 63.7263 40.5348C63.9843 40.5348 64.2104 40.4946 64.4046 40.4141C64.6011 40.3336 64.7656 40.2259 64.8982 40.0909C65.0331 39.9536 65.1349 39.8033 65.2036 39.6399L65.8037 39.8352C65.7209 40.0649 65.5847 40.2768 65.3953 40.4709C65.2083 40.665 64.9739 40.8213 64.6922 40.9396C64.4128 41.0556 64.0909 41.1136 63.7263 41.1136ZM70.1441 41V35.5455H70.7584V36.3835H70.8153C70.9242 36.1018 71.1053 35.8804 71.3586 35.7195C71.6143 35.5561 71.9208 35.4744 72.2783 35.4744C72.6547 35.4744 72.9637 35.5632 73.2052 35.7408C73.449 35.916 73.6313 36.1574 73.752 36.4652H73.7982C73.9213 36.1622 74.1214 35.9219 74.3983 35.7443C74.6777 35.5644 75.0162 35.4744 75.414 35.4744C75.9206 35.4744 76.3207 35.6342 76.6143 35.9538C76.9078 36.2711 77.0546 36.7351 77.0546 37.3459V41H76.4225V37.3459C76.4225 36.915 76.3124 36.5919 76.0922 36.3764C75.8721 36.161 75.5821 36.0533 75.2222 36.0533C74.8055 36.0533 74.4848 36.1811 74.2599 36.4368C74.0349 36.6925 73.9225 37.0168 73.9225 37.4098V41H73.2762V37.2891C73.2762 36.9197 73.1732 36.6214 72.9672 36.3942C72.7613 36.1669 72.4713 36.0533 72.0972 36.0533C71.8463 36.0533 71.6202 36.1148 71.4189 36.2379C71.2201 36.361 71.0626 36.5327 70.9466 36.7528C70.833 36.9706 70.7762 37.2216 70.7762 37.5057V41H70.1441ZM80.8481 41.1136C80.377 41.1136 79.9603 40.9941 79.5981 40.755C79.2383 40.5159 78.9565 40.1856 78.7529 39.7642C78.5493 39.3404 78.4475 38.8516 78.4475 38.2976C78.4475 37.7389 78.5493 37.2476 78.7529 36.8239C78.9565 36.3977 79.2383 36.0663 79.5981 35.8295C79.9603 35.5904 80.377 35.4709 80.8481 35.4709C81.3192 35.4709 81.7347 35.5904 82.0945 35.8295C82.4544 36.0687 82.7361 36.4001 82.9397 36.8239C83.1457 37.2476 83.2487 37.7389 83.2487 38.2976C83.2487 38.8516 83.1469 39.3404 82.9433 39.7642C82.7397 40.1856 82.4568 40.5159 82.0945 40.755C81.7347 40.9941 81.3192 41.1136 80.8481 41.1136ZM80.8481 40.5348C81.2269 40.5348 81.5477 40.433 81.8105 40.2294C82.0732 40.0258 82.2721 39.7547 82.407 39.4162C82.5444 39.0777 82.613 38.7048 82.613 38.2976C82.613 37.8904 82.5444 37.5163 82.407 37.1754C82.2721 36.8345 82.0732 36.5611 81.8105 36.3551C81.5477 36.1491 81.2269 36.0462 80.8481 36.0462C80.4717 36.0462 80.1509 36.1491 79.8857 36.3551C79.623 36.5611 79.4229 36.8345 79.2856 37.1754C79.1507 37.5163 79.0832 37.8904 79.0832 38.2976C79.0832 38.7048 79.1507 39.0777 79.2856 39.4162C79.4229 39.7547 79.623 40.0258 79.8857 40.2294C80.1485 40.433 80.4693 40.5348 80.8481 40.5348ZM88.301 36.7422L87.7222 36.9055C87.6654 36.7422 87.5849 36.5942 87.4807 36.4616C87.3766 36.3291 87.2404 36.2237 87.0724 36.1456C86.9066 36.0675 86.7007 36.0284 86.4545 36.0284C86.0851 36.0284 85.7821 36.116 85.5454 36.2912C85.3086 36.4664 85.1903 36.6925 85.1903 36.9695C85.1903 37.2038 85.2707 37.3944 85.4317 37.5412C85.5951 37.6856 85.846 37.8004 86.1846 37.8857L87.0084 38.0881C87.4653 38.1993 87.8074 38.3757 88.0347 38.6172C88.2644 38.8587 88.3792 39.1617 88.3792 39.5263C88.3792 39.834 88.2939 40.1075 88.1235 40.3466C87.953 40.5857 87.7151 40.7739 87.4097 40.9112C87.1067 41.0462 86.7551 41.1136 86.355 41.1136C85.8224 41.1136 85.3832 40.9941 85.0376 40.755C84.6919 40.5135 84.4706 40.1655 84.3735 39.7109L84.9807 39.5618C85.0589 39.8861 85.2116 40.1312 85.4388 40.2969C85.6685 40.4626 85.9703 40.5455 86.3444 40.5455C86.7634 40.5455 87.0984 40.4519 87.3493 40.2649C87.6003 40.0755 87.7258 39.8388 87.7258 39.5547C87.7258 39.3345 87.6524 39.1499 87.5056 39.0007C87.3588 38.8492 87.1363 38.7379 86.838 38.6669L85.9466 38.4538C85.4732 38.3402 85.1228 38.1603 84.8955 37.9141C84.6682 37.6679 84.5546 37.3625 84.5546 36.9979C84.5546 36.6972 84.6363 36.4332 84.7996 36.206C84.963 35.9763 85.1879 35.7964 85.4743 35.6662C85.7608 35.536 86.0875 35.4709 86.4545 35.4709C86.954 35.4709 87.3529 35.5845 87.6512 35.8118C87.9519 36.0367 88.1685 36.3468 88.301 36.7422ZM91.9117 35.5455V36.0959H89.3087V35.5455H91.9117ZM90.1219 34.2386H90.7575V39.576C90.7575 39.8033 90.7966 39.982 90.8747 40.1122C90.9529 40.2401 91.0547 40.3312 91.1801 40.3857C91.3056 40.4377 91.4394 40.4638 91.5814 40.4638C91.6643 40.4638 91.7353 40.459 91.7945 40.4496C91.8537 40.4377 91.9057 40.4259 91.9507 40.4141L92.0857 40.9858C92.0241 41.0095 91.9484 41.0308 91.8584 41.0497C91.7684 41.071 91.6572 41.0817 91.5246 41.0817C91.2926 41.0817 91.0689 41.0308 90.8534 40.929C90.6404 40.8272 90.4652 40.6757 90.3279 40.4744C90.1905 40.2732 90.1219 40.0234 90.1219 39.7251V34.2386ZM23.4134 48.7422L22.8345 48.9055C22.7777 48.7422 22.6972 48.5942 22.593 48.4616C22.4889 48.3291 22.3527 48.2237 22.1847 48.1456C22.0189 48.0675 21.813 48.0284 21.5668 48.0284C21.1974 48.0284 20.8944 48.116 20.6577 48.2912C20.4209 48.4664 20.3026 48.6925 20.3026 48.9695C20.3026 49.2038 20.383 49.3944 20.544 49.5412C20.7074 49.6856 20.9583 49.8004 21.2969 49.8857L22.1207 50.0881C22.5777 50.1993 22.9197 50.3757 23.147 50.6172C23.3767 50.8587 23.4915 51.1617 23.4915 51.5263C23.4915 51.834 23.4063 52.1075 23.2358 52.3466C23.0653 52.5857 22.8274 52.7739 22.522 52.9112C22.219 53.0462 21.8674 53.1136 21.4673 53.1136C20.9347 53.1136 20.4955 52.9941 20.1499 52.755C19.8042 52.5135 19.5829 52.1655 19.4858 51.7109L20.093 51.5618C20.1712 51.8861 20.3239 52.1312 20.5511 52.2969C20.7808 52.4626 21.0826 52.5455 21.4567 52.5455C21.8757 52.5455 22.2107 52.4519 22.4616 52.2649C22.7126 52.0755 22.8381 51.8388 22.8381 51.5547C22.8381 51.3345 22.7647 51.1499 22.6179 51.0007C22.4711 50.8492 22.2486 50.7379 21.9503 50.6669L21.0589 50.4538C20.5855 50.3402 20.2351 50.1603 20.0078 49.9141C19.7805 49.6679 19.6669 49.3625 19.6669 48.9979C19.6669 48.6972 19.7486 48.4332 19.9119 48.206C20.0753 47.9763 20.3002 47.7964 20.5866 47.6662C20.8731 47.536 21.1998 47.4709 21.5668 47.4709C22.0663 47.4709 22.4652 47.5845 22.7635 47.8118C23.0642 48.0367 23.2808 48.3468 23.4134 48.7422ZM28.3414 50.9155V47.5455H28.9735V53H28.3414V52.0945H28.2917C28.1639 52.3738 27.9615 52.607 27.6845 52.794C27.4075 52.9787 27.069 53.071 26.6689 53.071C26.3208 53.071 26.0119 52.9953 25.742 52.8438C25.4721 52.6899 25.2602 52.465 25.1064 52.169C24.9525 51.8731 24.8755 51.5097 24.8755 51.0788V47.5455H25.5076V51.0398C25.5076 51.4659 25.6331 51.8092 25.8841 52.0696C26.135 52.3277 26.457 52.4567 26.85 52.4567C27.0962 52.4567 27.3329 52.3975 27.5602 52.2791C27.7875 52.1607 27.9745 51.9879 28.1213 51.7607C28.2681 51.531 28.3414 51.2493 28.3414 50.9155ZM30.6541 53V47.5455H31.2898V53H30.6541ZM30.9773 46.608C30.8471 46.608 30.7358 46.5642 30.6435 46.4766C30.5511 46.3866 30.505 46.2789 30.505 46.1534C30.505 46.0279 30.5511 45.9214 30.6435 45.8338C30.7358 45.7438 30.8471 45.6989 30.9773 45.6989C31.1075 45.6989 31.2188 45.7438 31.3111 45.8338C31.4034 45.9214 31.4496 46.0279 31.4496 46.1534C31.4496 46.2789 31.4034 46.3866 31.3111 46.4766C31.2188 46.5642 31.1075 46.608 30.9773 46.608ZM35.1099 47.5455V48.0959H32.5069V47.5455H35.1099ZM33.3201 46.2386H33.9558V51.576C33.9558 51.8033 33.9949 51.982 34.073 52.1122C34.1511 52.2401 34.2529 52.3312 34.3784 52.3857C34.5038 52.4377 34.6376 52.4638 34.7797 52.4638C34.8625 52.4638 34.9335 52.459 34.9927 52.4496C35.0519 52.4377 35.104 52.4259 35.149 52.4141L35.2839 52.9858C35.2224 53.0095 35.1466 53.0308 35.0566 53.0497C34.9667 53.071 34.8554 53.0817 34.7228 53.0817C34.4908 53.0817 34.2671 53.0308 34.0517 52.929C33.8386 52.8272 33.6634 52.6757 33.5261 52.4744C33.3888 52.2732 33.3201 52.0234 33.3201 51.7251V46.2386ZM38.0689 53.1243C37.7398 53.1243 37.4392 53.0604 37.1669 52.9325C36.8946 52.8023 36.678 52.6153 36.517 52.3714C36.3561 52.1252 36.2756 51.8269 36.2756 51.4766C36.2756 51.2067 36.3265 50.9794 36.4283 50.7947C36.5301 50.6101 36.6745 50.4586 36.8615 50.3402C37.0485 50.2218 37.2699 50.1283 37.5256 50.0597C37.7813 49.991 38.063 49.9377 38.3707 49.8999C38.6761 49.862 38.9342 49.8288 39.1449 49.8004C39.358 49.772 39.5201 49.727 39.6314 49.6655C39.7427 49.6039 39.7983 49.5045 39.7983 49.3672V49.2393C39.7983 48.8677 39.687 48.5753 39.4645 48.3622C39.2443 48.1468 38.9271 48.0391 38.5128 48.0391C38.1198 48.0391 37.799 48.1255 37.5504 48.2983C37.3042 48.4711 37.1314 48.6747 37.032 48.9091L36.4318 48.6925C36.5549 48.3942 36.7254 48.1562 36.9432 47.9787C37.161 47.7988 37.4048 47.6697 37.6747 47.5916C37.9446 47.5111 38.218 47.4709 38.495 47.4709C38.7034 47.4709 38.92 47.4981 39.1449 47.5526C39.3722 47.607 39.5829 47.7017 39.777 47.8366C39.9711 47.9692 40.1286 48.1551 40.2493 48.3942C40.37 48.6309 40.4304 48.9316 40.4304 49.2962V53H39.7983V52.1371H39.7592C39.6835 52.2981 39.571 52.4543 39.4219 52.6058C39.2727 52.7573 39.0857 52.8816 38.8608 52.9787C38.6359 53.0758 38.3719 53.1243 38.0689 53.1243ZM38.1541 52.5455C38.4903 52.5455 38.7815 52.4709 39.0277 52.3217C39.2739 52.1726 39.4633 51.9749 39.5959 51.7287C39.7308 51.4801 39.7983 51.2067 39.7983 50.9084V50.12C39.7509 50.165 39.6716 50.2053 39.5604 50.2408C39.4515 50.2763 39.3248 50.3082 39.1804 50.3366C39.0384 50.3627 38.8963 50.3852 38.7543 50.4041C38.6122 50.4231 38.4844 50.4396 38.3707 50.4538C38.063 50.4917 37.8002 50.5509 37.5824 50.6314C37.3646 50.7119 37.1977 50.8232 37.0817 50.9652C36.9657 51.1049 36.9077 51.2848 36.9077 51.505C36.9077 51.8364 37.026 52.0933 37.2628 52.2756C37.4995 52.4555 37.7966 52.5455 38.1541 52.5455ZM42.2433 53V45.7273H42.8789V48.5859H42.9357C43.0067 48.4226 43.1085 48.2545 43.2411 48.0817C43.3761 47.9089 43.5524 47.7644 43.7702 47.6484C43.9904 47.5301 44.2674 47.4709 44.6012 47.4709C45.0487 47.4709 45.4416 47.5893 45.7802 47.826C46.1187 48.0604 46.3827 48.3894 46.5721 48.8132C46.7615 49.2346 46.8562 49.7259 46.8562 50.2869C46.8562 50.8504 46.7615 51.344 46.5721 51.7678C46.3851 52.1915 46.1223 52.5218 45.7837 52.7585C45.4476 52.9953 45.0569 53.1136 44.6119 53.1136C44.2804 53.1136 44.0034 53.0545 43.7809 52.9361C43.5607 52.8177 43.3832 52.6721 43.2482 52.4993C43.1133 52.3241 43.0091 52.1536 42.9357 51.9879H42.8576V53H42.2433ZM42.8683 50.2763C42.8683 50.7166 42.9334 51.1072 43.0636 51.4482C43.1961 51.7867 43.3855 52.053 43.6317 52.2472C43.8803 52.4389 44.181 52.5348 44.5337 52.5348C44.896 52.5348 45.2025 52.4354 45.4535 52.2365C45.7044 52.0353 45.895 51.7642 46.0252 51.4233C46.1554 51.0824 46.2205 50.7 46.2205 50.2763C46.2205 49.8572 46.1554 49.4796 46.0252 49.1435C45.8974 48.8073 45.708 48.541 45.457 48.3445C45.2061 48.1456 44.8983 48.0462 44.5337 48.0462C44.1786 48.0462 43.8768 48.142 43.6282 48.3338C43.382 48.5232 43.1938 48.786 43.0636 49.1222C42.9334 49.456 42.8683 49.8407 42.8683 50.2763ZM48.8768 45.7273V53H48.2447V45.7273H48.8768ZM52.7546 53.1136C52.2456 53.1136 51.8053 52.9953 51.4336 52.7585C51.0619 52.5194 50.7743 52.1892 50.5707 51.7678C50.3694 51.344 50.2688 50.8563 50.2688 50.3047C50.2688 49.7554 50.3694 49.2678 50.5707 48.8416C50.7743 48.4131 51.0548 48.0781 51.4123 47.8366C51.7721 47.5928 52.1876 47.4709 52.6587 47.4709C52.9547 47.4709 53.2399 47.5253 53.5146 47.6342C53.7892 47.7408 54.0354 47.9053 54.2532 48.1278C54.4734 48.348 54.6474 48.6262 54.7752 48.9624C54.9031 49.2962 54.967 49.6915 54.967 50.1484V50.4609H50.7056V49.9034H54.3207C54.3207 49.553 54.2496 49.2382 54.1076 48.9588C53.9679 48.6771 53.7726 48.4545 53.5217 48.2912C53.2731 48.1278 52.9854 48.0462 52.6587 48.0462C52.3131 48.0462 52.0089 48.1385 51.7461 48.3232C51.4833 48.5078 51.2773 48.7517 51.1282 49.0547C50.9814 49.3577 50.9068 49.6892 50.9045 50.049V50.3828C50.9045 50.8161 50.979 51.1948 51.1282 51.5192C51.2797 51.8411 51.494 52.0909 51.771 52.2685C52.0479 52.446 52.3758 52.5348 52.7546 52.5348C53.0127 52.5348 53.2388 52.4946 53.4329 52.4141C53.6294 52.3336 53.7939 52.2259 53.9265 52.0909C54.0614 51.9536 54.1632 51.8033 54.2319 51.6399L54.832 51.8352C54.7492 52.0649 54.613 52.2768 54.4237 52.4709C54.2366 52.665 54.0022 52.8213 53.7205 52.9396C53.4412 53.0556 53.1192 53.1136 52.7546 53.1136ZM61.3031 53.1136C60.8154 53.1136 60.3904 52.9917 60.0282 52.7479C59.6684 52.504 59.389 52.1702 59.1902 51.7464C58.9913 51.3227 58.8919 50.8397 58.8919 50.2976C58.8919 49.7507 58.9925 49.2642 59.1937 48.8381C59.3973 48.4119 59.679 48.0781 60.0389 47.8366C60.3987 47.5928 60.8166 47.4709 61.2924 47.4709C61.657 47.4709 61.9873 47.5419 62.2832 47.6839C62.5791 47.8236 62.823 48.0213 63.0147 48.277C63.2089 48.5303 63.3308 48.8262 63.3805 49.1648H62.7413C62.675 48.857 62.5152 48.5942 62.2619 48.3764C62.0109 48.1562 61.6913 48.0462 61.3031 48.0462C60.9551 48.0462 60.6473 48.1409 60.3798 48.3303C60.1123 48.5173 59.9028 48.7789 59.7512 49.1151C59.6021 49.4489 59.5275 49.8359 59.5275 50.2763C59.5275 50.719 59.6009 51.1108 59.7477 51.4517C59.8945 51.7902 60.1004 52.0554 60.3656 52.2472C60.6331 52.4389 60.9456 52.5348 61.3031 52.5348C61.5446 52.5348 61.7647 52.4898 61.9636 52.3999C62.1648 52.3075 62.3329 52.1773 62.4679 52.0092C62.6052 51.8411 62.6975 51.6411 62.7449 51.4091H63.3841C63.3367 51.7382 63.2195 52.0317 63.0325 52.2898C62.8478 52.5455 62.6075 52.7467 62.3116 52.8935C62.0181 53.0402 61.6819 53.1136 61.3031 53.1136ZM66.8588 53.1136C66.3877 53.1136 65.9711 52.9941 65.6088 52.755C65.249 52.5159 64.9673 52.1856 64.7637 51.7642C64.5601 51.3404 64.4583 50.8516 64.4583 50.2976C64.4583 49.7389 64.5601 49.2476 64.7637 48.8239C64.9673 48.3977 65.249 48.0663 65.6088 47.8295C65.9711 47.5904 66.3877 47.4709 66.8588 47.4709C67.33 47.4709 67.7454 47.5904 68.1053 47.8295C68.4651 48.0687 68.7469 48.4001 68.9505 48.8239C69.1564 49.2476 69.2594 49.7389 69.2594 50.2976C69.2594 50.8516 69.1576 51.3404 68.954 51.7642C68.7504 52.1856 68.4675 52.5159 68.1053 52.755C67.7454 52.9941 67.33 53.1136 66.8588 53.1136ZM66.8588 52.5348C67.2376 52.5348 67.5584 52.433 67.8212 52.2294C68.084 52.0258 68.2828 51.7547 68.4178 51.4162C68.5551 51.0777 68.6238 50.7048 68.6238 50.2976C68.6238 49.8904 68.5551 49.5163 68.4178 49.1754C68.2828 48.8345 68.084 48.5611 67.8212 48.3551C67.5584 48.1491 67.2376 48.0462 66.8588 48.0462C66.4824 48.0462 66.1616 48.1491 65.8965 48.3551C65.6337 48.5611 65.4337 48.8345 65.2963 49.1754C65.1614 49.5163 65.0939 49.8904 65.0939 50.2976C65.0939 50.7048 65.1614 51.0777 65.2963 51.4162C65.4337 51.7547 65.6337 52.0258 65.8965 52.2294C66.1593 52.433 66.4801 52.5348 66.8588 52.5348ZM74.1129 50.9155V47.5455H74.745V53H74.1129V52.0945H74.0632C73.9354 52.3738 73.733 52.607 73.456 52.794C73.179 52.9787 72.8404 53.071 72.4403 53.071C72.0923 53.071 71.7834 52.9953 71.5135 52.8438C71.2436 52.6899 71.0317 52.465 70.8778 52.169C70.724 51.8731 70.647 51.5097 70.647 51.0788V47.5455H71.2791V51.0398C71.2791 51.4659 71.4046 51.8092 71.6555 52.0696C71.9065 52.3277 72.2285 52.4567 72.6214 52.4567C72.8677 52.4567 73.1044 52.3975 73.3317 52.2791C73.5589 52.1607 73.746 51.9879 73.8928 51.7607C74.0395 51.531 74.1129 51.2493 74.1129 50.9155ZM76.4185 53V47.5455H77.0328V48.3835H77.079C77.1879 48.1089 77.3773 47.8875 77.6472 47.7195C77.9194 47.549 78.2272 47.4638 78.5705 47.4638C78.6226 47.4638 78.6806 47.465 78.7445 47.4673C78.8084 47.4697 78.8617 47.4721 78.9043 47.4744V48.1172C78.8759 48.1125 78.8262 48.1054 78.7551 48.0959C78.6841 48.0864 78.6072 48.0817 78.5243 48.0817C78.2402 48.0817 77.9869 48.142 77.7644 48.2628C77.5442 48.3812 77.3702 48.5457 77.2424 48.7564C77.1145 48.9671 77.0506 49.2074 77.0506 49.4773V53H76.4185ZM83.6477 48.7422L83.0689 48.9055C83.0121 48.7422 82.9316 48.5942 82.8274 48.4616C82.7232 48.3291 82.5871 48.2237 82.419 48.1456C82.2533 48.0675 82.0473 48.0284 81.8011 48.0284C81.4318 48.0284 81.1288 48.116 80.892 48.2912C80.6553 48.4664 80.5369 48.6925 80.5369 48.9695C80.5369 49.2038 80.6174 49.3944 80.7784 49.5412C80.9418 49.6856 81.1927 49.8004 81.5312 49.8857L82.3551 50.0881C82.812 50.1993 83.1541 50.3757 83.3814 50.6172C83.611 50.8587 83.7259 51.1617 83.7259 51.5263C83.7259 51.834 83.6406 52.1075 83.4702 52.3466C83.2997 52.5857 83.0618 52.7739 82.7564 52.9112C82.4534 53.0462 82.1018 53.1136 81.7017 53.1136C81.169 53.1136 80.7299 52.9941 80.3842 52.755C80.0386 52.5135 79.8172 52.1655 79.7202 51.7109L80.3274 51.5618C80.4055 51.8861 80.5582 52.1312 80.7855 52.2969C81.0152 52.4626 81.317 52.5455 81.6911 52.5455C82.1101 52.5455 82.4451 52.4519 82.696 52.2649C82.947 52.0755 83.0724 51.8388 83.0724 51.5547C83.0724 51.3345 82.9991 51.1499 82.8523 51.0007C82.7055 50.8492 82.483 50.7379 82.1847 50.6669L81.2933 50.4538C80.8198 50.3402 80.4695 50.1603 80.2422 49.9141C80.0149 49.6679 79.9013 49.3625 79.9013 48.9979C79.9013 48.6972 79.983 48.4332 80.1463 48.206C80.3097 47.9763 80.5346 47.7964 80.821 47.6662C81.1075 47.536 81.4342 47.4709 81.8011 47.4709C82.3007 47.4709 82.6996 47.5845 82.9979 47.8118C83.2985 48.0367 83.5152 48.3468 83.6477 48.7422ZM87.3152 53.1136C86.8062 53.1136 86.3658 52.9953 85.9941 52.7585C85.6225 52.5194 85.3348 52.1892 85.1312 51.7678C84.93 51.344 84.8294 50.8563 84.8294 50.3047C84.8294 49.7554 84.93 49.2678 85.1312 48.8416C85.3348 48.4131 85.6154 48.0781 85.9728 47.8366C86.3327 47.5928 86.7482 47.4709 87.2193 47.4709C87.5152 47.4709 87.8005 47.5253 88.0751 47.6342C88.3497 47.7408 88.5959 47.9053 88.8137 48.1278C89.0339 48.348 89.2079 48.6262 89.3358 48.9624C89.4636 49.2962 89.5275 49.6915 89.5275 50.1484V50.4609H85.2662V49.9034H88.8812C88.8812 49.553 88.8102 49.2382 88.6681 48.9588C88.5285 48.6771 88.3332 48.4545 88.0822 48.2912C87.8336 48.1278 87.546 48.0462 87.2193 48.0462C86.8736 48.0462 86.5694 48.1385 86.3066 48.3232C86.0439 48.5078 85.8379 48.7517 85.6887 49.0547C85.542 49.3577 85.4674 49.6892 85.465 50.049V50.3828C85.465 50.8161 85.5396 51.1948 85.6887 51.5192C85.8403 51.8411 86.0545 52.0909 86.3315 52.2685C86.6085 52.446 86.9364 52.5348 87.3152 52.5348C87.5732 52.5348 87.7993 52.4946 87.9934 52.4141C88.1899 52.3336 88.3545 52.2259 88.487 52.0909C88.622 51.9536 88.7238 51.8033 88.7924 51.6399L89.3926 51.8352C89.3097 52.0649 89.1736 52.2768 88.9842 52.4709C88.7972 52.665 88.5628 52.8213 88.2811 52.9396C88.0017 53.0556 87.6797 53.1136 87.3152 53.1136ZM29.1893 57.7273V65H28.5572V57.7273H29.1893ZM33.0671 65.1136C32.5581 65.1136 32.1178 64.9953 31.7461 64.7585C31.3744 64.5194 31.0868 64.1892 30.8832 63.7678C30.6819 63.344 30.5813 62.8563 30.5813 62.3047C30.5813 61.7554 30.6819 61.2678 30.8832 60.8416C31.0868 60.4131 31.3673 60.0781 31.7248 59.8366C32.0846 59.5928 32.5001 59.4709 32.9712 59.4709C33.2672 59.4709 33.5524 59.5253 33.8271 59.6342C34.1017 59.7408 34.3479 59.9053 34.5657 60.1278C34.7859 60.348 34.9599 60.6262 35.0877 60.9624C35.2156 61.2962 35.2795 61.6915 35.2795 62.1484V62.4609H31.0181V61.9034H34.6332C34.6332 61.553 34.5621 61.2382 34.4201 60.9588C34.2804 60.6771 34.0851 60.4545 33.8342 60.2912C33.5856 60.1278 33.2979 60.0462 32.9712 60.0462C32.6256 60.0462 32.3214 60.1385 32.0586 60.3232C31.7958 60.5078 31.5898 60.7517 31.4407 61.0547C31.2939 61.3577 31.2193 61.6892 31.217 62.049V62.3828C31.217 62.8161 31.2915 63.1948 31.4407 63.5192C31.5922 63.8411 31.8065 64.0909 32.0835 64.2685C32.3604 64.446 32.6883 64.5348 33.0671 64.5348C33.3252 64.5348 33.5513 64.4946 33.7454 64.4141C33.9419 64.3336 34.1064 64.2259 34.239 64.0909C34.3739 63.9536 34.4757 63.8033 34.5444 63.6399L35.1445 63.8352C35.0617 64.0649 34.9255 64.2768 34.7362 64.4709C34.5491 64.665 34.3147 64.8213 34.033 64.9396C33.7537 65.0556 33.4317 65.1136 33.0671 65.1136ZM40.7287 59.5455L38.7365 65H38.0618L36.0696 59.5455H36.755L38.3743 64.1655H38.424L40.0433 59.5455H40.7287ZM43.9753 65.1136C43.4663 65.1136 43.026 64.9953 42.6543 64.7585C42.2826 64.5194 41.995 64.1892 41.7914 63.7678C41.5901 63.344 41.4895 62.8563 41.4895 62.3047C41.4895 61.7554 41.5901 61.2678 41.7914 60.8416C41.995 60.4131 42.2755 60.0781 42.633 59.8366C42.9928 59.5928 43.4083 59.4709 43.8794 59.4709C44.1754 59.4709 44.4606 59.5253 44.7353 59.6342C45.0099 59.7408 45.2561 59.9053 45.4739 60.1278C45.6941 60.348 45.8681 60.6262 45.9959 60.9624C46.1238 61.2962 46.1877 61.6915 46.1877 62.1484V62.4609H41.9263V61.9034H45.5414C45.5414 61.553 45.4703 61.2382 45.3283 60.9588C45.1886 60.6771 44.9933 60.4545 44.7424 60.2912C44.4938 60.1278 44.2061 60.0462 43.8794 60.0462C43.5338 60.0462 43.2296 60.1385 42.9668 60.3232C42.704 60.5078 42.498 60.7517 42.3489 61.0547C42.2021 61.3577 42.1275 61.6892 42.1252 62.049V62.3828C42.1252 62.8161 42.1998 63.1948 42.3489 63.5192C42.5004 63.8411 42.7147 64.0909 42.9917 64.2685C43.2686 64.446 43.5965 64.5348 43.9753 64.5348C44.2334 64.5348 44.4595 64.4946 44.6536 64.4141C44.8501 64.3336 45.0146 64.2259 45.1472 64.0909C45.2821 63.9536 45.3839 63.8033 45.4526 63.6399L46.0527 63.8352C45.9699 64.0649 45.8337 64.2768 45.6444 64.4709C45.4573 64.665 45.223 64.8213 44.9412 64.9396C44.6619 65.0556 44.3399 65.1136 43.9753 65.1136ZM48.2127 57.7273V65H47.5806V57.7273H48.2127ZM54.9421 59.5455V60.0959H52.261V59.5455H54.9421ZM53.0991 65V58.7464C53.0991 58.4529 53.1665 58.2055 53.3015 58.0043C53.4388 57.803 53.6175 57.6503 53.8377 57.5462C54.0579 57.442 54.2911 57.3899 54.5373 57.3899C54.703 57.3899 54.8403 57.4041 54.9492 57.4325C55.0605 57.4586 55.1481 57.4846 55.212 57.5107L55.0273 58.0646C54.98 58.0504 54.922 58.0339 54.8533 58.0149C54.7847 57.996 54.6983 57.9865 54.5941 57.9865C54.3195 57.9865 54.1076 58.0634 53.9585 58.2173C53.8093 58.3712 53.7347 58.5914 53.7347 58.8778L53.7312 65H53.0991ZM58.0991 65.1136C57.628 65.1136 57.2113 64.9941 56.8491 64.755C56.4892 64.5159 56.2075 64.1856 56.0039 63.7642C55.8003 63.3404 55.6985 62.8516 55.6985 62.2976C55.6985 61.7389 55.8003 61.2476 56.0039 60.8239C56.2075 60.3977 56.4892 60.0663 56.8491 59.8295C57.2113 59.5904 57.628 59.4709 58.0991 59.4709C58.5702 59.4709 58.9857 59.5904 59.3455 59.8295C59.7054 60.0687 59.9871 60.4001 60.1907 60.8239C60.3967 61.2476 60.4996 61.7389 60.4996 62.2976C60.4996 62.8516 60.3978 63.3404 60.1942 63.7642C59.9906 64.1856 59.7077 64.5159 59.3455 64.755C58.9857 64.9941 58.5702 65.1136 58.0991 65.1136ZM58.0991 64.5348C58.4779 64.5348 58.7987 64.433 59.0614 64.2294C59.3242 64.0258 59.5231 63.7547 59.658 63.4162C59.7953 63.0777 59.864 62.7048 59.864 62.2976C59.864 61.8904 59.7953 61.5163 59.658 61.1754C59.5231 60.8345 59.3242 60.5611 59.0614 60.3551C58.7987 60.1491 58.4779 60.0462 58.0991 60.0462C57.7227 60.0462 57.4019 60.1491 57.1367 60.3551C56.8739 60.5611 56.6739 60.8345 56.5366 61.1754C56.4016 61.5163 56.3342 61.8904 56.3342 62.2976C56.3342 62.7048 56.4016 63.0777 56.5366 63.4162C56.6739 63.7547 56.8739 64.0258 57.1367 64.2294C57.3995 64.433 57.7203 64.5348 58.0991 64.5348ZM61.8873 65V59.5455H62.5016V60.3835H62.5478C62.6567 60.1089 62.8461 59.8875 63.1159 59.7195C63.3882 59.549 63.696 59.4638 64.0392 59.4638C64.0913 59.4638 64.1493 59.465 64.2132 59.4673C64.2772 59.4697 64.3304 59.4721 64.373 59.4744V60.1172C64.3446 60.1125 64.2949 60.1054 64.2239 60.0959C64.1529 60.0864 64.0759 60.0817 63.9931 60.0817C63.709 60.0817 63.4557 60.142 63.2331 60.2628C63.013 60.3812 62.839 60.5457 62.7111 60.7564C62.5833 60.9671 62.5194 61.2074 62.5194 61.4773V65H61.8873ZM68.2642 65V59.5455H68.8786V60.3835H68.9354C69.0443 60.1018 69.2254 59.8804 69.4787 59.7195C69.7344 59.5561 70.041 59.4744 70.3984 59.4744C70.7749 59.4744 71.0838 59.5632 71.3253 59.7408C71.5691 59.916 71.7514 60.1574 71.8722 60.4652H71.9183C72.0414 60.1622 72.2415 59.9219 72.5185 59.7443C72.7978 59.5644 73.1364 59.4744 73.5341 59.4744C74.0407 59.4744 74.4408 59.6342 74.7344 59.9538C75.0279 60.2711 75.1747 60.7351 75.1747 61.3459V65H74.5426V61.3459C74.5426 60.915 74.4325 60.5919 74.2124 60.3764C73.9922 60.161 73.7022 60.0533 73.3423 60.0533C72.9257 60.0533 72.6049 60.1811 72.38 60.4368C72.1551 60.6925 72.0426 61.0168 72.0426 61.4098V65H71.3963V61.2891C71.3963 60.9197 71.2933 60.6214 71.0874 60.3942C70.8814 60.1669 70.5914 60.0533 70.2173 60.0533C69.9664 60.0533 69.7403 60.1148 69.5391 60.2379C69.3402 60.361 69.1828 60.5327 69.0668 60.7528C68.9531 60.9706 68.8963 61.2216 68.8963 61.5057V65H68.2642ZM77.0932 67.0455C76.9677 67.0455 76.8506 67.0336 76.7417 67.0099C76.6328 66.9863 76.5463 66.9602 76.4824 66.9318L76.6529 66.3743C76.8683 66.4406 77.0601 66.4643 77.2282 66.4453C77.3962 66.4287 77.5454 66.353 77.6756 66.218C77.8058 66.0855 77.9218 65.8819 78.0236 65.6072L78.2225 65.0533L76.2161 59.5455H76.9015L78.5208 64.1655H78.5705L80.1898 59.5455H80.8752L78.5669 65.8629C78.4699 66.1257 78.3503 66.3447 78.2083 66.5199C78.0662 66.6974 77.9017 66.8288 77.7147 66.9141C77.53 67.0017 77.3229 67.0455 77.0932 67.0455ZM30.4703 74.9403L30.4632 74.1129H30.6053L33.1621 71.5455H33.9611L31.4363 74.0739L31.3794 74.0845L30.4703 74.9403ZM29.8951 77V69.7273H30.5272V77H29.8951ZM33.2935 77L31.0776 74.1982L31.5321 73.7614L34.1032 77H33.2935ZM35.7811 73.5909V77H35.149V71.5455H35.7633V72.4013H35.8201C35.948 72.1219 36.1468 71.8982 36.4167 71.7301C36.689 71.5597 37.0252 71.4744 37.4252 71.4744C37.7922 71.4744 38.1142 71.5514 38.3912 71.7053C38.6705 71.8568 38.8871 72.0805 39.041 72.3764C39.1973 72.6723 39.2754 73.0357 39.2754 73.4666V77H38.6433V73.5057C38.6433 73.0582 38.5178 72.7043 38.2669 72.4439C38.0183 72.1835 37.6845 72.0533 37.2654 72.0533C36.979 72.0533 36.7245 72.1148 36.502 72.2379C36.2794 72.361 36.103 72.5386 35.9728 72.7706C35.845 73.0002 35.7811 73.2737 35.7811 73.5909ZM43.06 77.1136C42.5889 77.1136 42.1722 76.9941 41.81 76.755C41.4502 76.5159 41.1684 76.1856 40.9648 75.7642C40.7612 75.3404 40.6594 74.8516 40.6594 74.2976C40.6594 73.7389 40.7612 73.2476 40.9648 72.8239C41.1684 72.3977 41.4502 72.0663 41.81 71.8295C42.1722 71.5904 42.5889 71.4709 43.06 71.4709C43.5311 71.4709 43.9466 71.5904 44.3065 71.8295C44.6663 72.0687 44.948 72.4001 45.1516 72.8239C45.3576 73.2476 45.4606 73.7389 45.4606 74.2976C45.4606 74.8516 45.3588 75.3404 45.1552 75.7642C44.9516 76.1856 44.6687 76.5159 44.3065 76.755C43.9466 76.9941 43.5311 77.1136 43.06 77.1136ZM43.06 76.5348C43.4388 76.5348 43.7596 76.433 44.0224 76.2294C44.2852 76.0258 44.484 75.7547 44.619 75.4162C44.7563 75.0777 44.8249 74.7048 44.8249 74.2976C44.8249 73.8904 44.7563 73.5163 44.619 73.1754C44.484 72.8345 44.2852 72.5611 44.0224 72.3551C43.7596 72.1491 43.4388 72.0462 43.06 72.0462C42.6836 72.0462 42.3628 72.1491 42.0977 72.3551C41.8349 72.5611 41.6348 72.8345 41.4975 73.1754C41.3626 73.5163 41.2951 73.8904 41.2951 74.2976C41.2951 74.7048 41.3626 75.0777 41.4975 75.4162C41.6348 75.7547 41.8349 76.0258 42.0977 76.2294C42.3604 76.433 42.6812 76.5348 43.06 76.5348ZM47.8736 77L46.2259 71.5455H46.8935L48.1861 76.0447H48.2322L49.5213 71.5455H50.1925L51.4709 76.0341H51.5206L52.8132 71.5455H53.4808L51.8331 77H51.1797L49.8871 72.5291H49.8196L48.527 77H47.8736ZM55.3416 69.7273V77H54.7095V69.7273H55.3416ZM59.2195 77.1136C58.7105 77.1136 58.2701 76.9953 57.8984 76.7585C57.5268 76.5194 57.2391 76.1892 57.0355 75.7678C56.8343 75.344 56.7337 74.8563 56.7337 74.3047C56.7337 73.7554 56.8343 73.2678 57.0355 72.8416C57.2391 72.4131 57.5196 72.0781 57.8771 71.8366C58.237 71.5928 58.6525 71.4709 59.1236 71.4709C59.4195 71.4709 59.7048 71.5253 59.9794 71.6342C60.254 71.7408 60.5002 71.9053 60.718 72.1278C60.9382 72.348 61.1122 72.6262 61.2401 72.9624C61.3679 73.2962 61.4318 73.6915 61.4318 74.1484V74.4609H57.1705V73.9034H60.7855C60.7855 73.553 60.7145 73.2382 60.5724 72.9588C60.4328 72.6771 60.2375 72.4545 59.9865 72.2912C59.7379 72.1278 59.4503 72.0462 59.1236 72.0462C58.7779 72.0462 58.4737 72.1385 58.2109 72.3232C57.9482 72.5078 57.7422 72.7517 57.593 73.0547C57.4463 73.3577 57.3717 73.6892 57.3693 74.049V74.3828C57.3693 74.8161 57.4439 75.1948 57.593 75.5192C57.7446 75.8411 57.9588 76.0909 58.2358 76.2685C58.5128 76.446 58.8407 76.5348 59.2195 76.5348C59.4775 76.5348 59.7036 76.4946 59.8977 76.4141C60.0942 76.3336 60.2588 76.2259 60.3913 76.0909C60.5263 75.9536 60.6281 75.8033 60.6967 75.6399L61.2969 75.8352C61.214 76.0649 61.0779 76.2768 60.8885 76.4709C60.7015 76.665 60.4671 76.8213 60.1854 76.9396C59.906 77.0556 59.584 77.1136 59.2195 77.1136ZM64.7885 77.1136C64.3411 77.1136 63.9493 76.9953 63.6131 76.7585C63.2769 76.5218 63.0141 76.1915 62.8248 75.7678C62.6377 75.344 62.5442 74.8504 62.5442 74.2869C62.5442 73.7259 62.6377 73.2346 62.8248 72.8132C63.0141 72.3894 63.2781 72.0604 63.6167 71.826C63.9552 71.5893 64.3494 71.4709 64.7992 71.4709C65.1306 71.4709 65.4064 71.5301 65.6266 71.6484C65.8468 71.7644 66.0231 71.9089 66.1557 72.0817C66.2883 72.2545 66.3913 72.4226 66.4647 72.5859H66.5215V69.7273H67.1571V77H66.5392V75.9879H66.4647C66.3913 76.1536 66.2871 76.3241 66.1522 76.4993C66.0172 76.6721 65.8385 76.8177 65.6159 76.9361C65.3958 77.0545 65.12 77.1136 64.7885 77.1136ZM64.8631 76.5348C65.2158 76.5348 65.5165 76.4389 65.7651 76.2472C66.0137 76.053 66.2031 75.7867 66.3333 75.4482C66.4658 75.1072 66.5321 74.7166 66.5321 74.2763C66.5321 73.8407 66.467 73.456 66.3368 73.1222C66.2066 72.786 66.0172 72.5232 65.7686 72.3338C65.5201 72.142 65.2182 72.0462 64.8631 72.0462C64.4985 72.0462 64.1908 72.1456 63.9398 72.3445C63.6912 72.541 63.5018 72.8073 63.3716 73.1435C63.2438 73.4796 63.1799 73.8572 63.1799 74.2763C63.1799 74.7 63.245 75.0824 63.3752 75.4233C63.5054 75.7642 63.6948 76.0353 63.9434 76.2365C64.1943 76.4354 64.5009 76.5348 64.8631 76.5348ZM71.0385 79.1591C70.6668 79.1591 70.3413 79.1106 70.062 79.0135C69.7826 78.9188 69.5471 78.7886 69.3553 78.6229C69.1635 78.4571 69.0144 78.2713 68.9078 78.0653L69.4263 77.7244C69.5044 77.8617 69.6086 77.9967 69.7388 78.1293C69.8714 78.2618 70.043 78.3719 70.2537 78.4595C70.4668 78.5471 70.7284 78.5909 71.0385 78.5909C71.5215 78.5909 71.9109 78.4702 72.2069 78.2287C72.5051 77.9872 72.6543 77.612 72.6543 77.103V75.8743H72.5975C72.5241 76.04 72.4187 76.2057 72.2814 76.3714C72.1441 76.5348 71.9642 76.6709 71.7417 76.7798C71.5215 76.8887 71.248 76.9432 70.9213 76.9432C70.4857 76.9432 70.0987 76.8355 69.7601 76.62C69.4239 76.4046 69.1588 76.0968 68.9647 75.6967C68.7729 75.2943 68.677 74.8149 68.677 74.2585C68.677 73.7069 68.7705 73.2216 68.9576 72.8026C69.147 72.3835 69.4109 72.0568 69.7495 71.8224C70.088 71.5881 70.4822 71.4709 70.932 71.4709C71.2658 71.4709 71.5428 71.5301 71.763 71.6484C71.9831 71.7644 72.1595 71.9089 72.2921 72.0817C72.427 72.2545 72.5324 72.4226 72.6081 72.5859H72.6721V71.5455H73.29V77.142C73.29 77.6037 73.1917 77.9837 72.9952 78.282C72.7987 78.5803 72.5312 78.8004 72.1926 78.9425C71.8541 79.0869 71.4694 79.1591 71.0385 79.1591ZM70.9959 76.3643C71.3463 76.3643 71.6458 76.2803 71.8944 76.1122C72.1429 75.9418 72.3335 75.6979 72.4661 75.3807C72.5987 75.0634 72.665 74.6858 72.665 74.2479C72.665 73.8217 72.5998 73.4441 72.4696 73.1151C72.3394 72.7836 72.15 72.5232 71.9015 72.3338C71.6552 72.142 71.3534 72.0462 70.9959 72.0462C70.6313 72.0462 70.3236 72.1444 70.0726 72.3409C69.8217 72.5374 69.6323 72.8026 69.5044 73.1364C69.3766 73.4678 69.3127 73.8383 69.3127 74.2479C69.3127 74.6645 69.3778 75.0327 69.508 75.3523C69.6382 75.6695 69.8288 75.9181 70.0797 76.098C70.3307 76.2756 70.6361 76.3643 70.9959 76.3643ZM77.1687 77.1136C76.6597 77.1136 76.2193 76.9953 75.8477 76.7585C75.476 76.5194 75.1883 76.1892 74.9847 75.7678C74.7835 75.344 74.6829 74.8563 74.6829 74.3047C74.6829 73.7554 74.7835 73.2678 74.9847 72.8416C75.1883 72.4131 75.4689 72.0781 75.8263 71.8366C76.1862 71.5928 76.6017 71.4709 77.0728 71.4709C77.3687 71.4709 77.654 71.5253 77.9286 71.6342C78.2032 71.7408 78.4495 71.9053 78.6673 72.1278C78.8874 72.348 79.0614 72.6262 79.1893 72.9624C79.3171 73.2962 79.381 73.6915 79.381 74.1484V74.4609H75.1197V73.9034H78.7347C78.7347 73.553 78.6637 73.2382 78.5217 72.9588C78.382 72.6771 78.1867 72.4545 77.9357 72.2912C77.6871 72.1278 77.3995 72.0462 77.0728 72.0462C76.7272 72.0462 76.4229 72.1385 76.1602 72.3232C75.8974 72.5078 75.6914 72.7517 75.5423 73.0547C75.3955 73.3577 75.3209 73.6892 75.3185 74.049V74.3828C75.3185 74.8161 75.3931 75.1948 75.5423 75.5192C75.6938 75.8411 75.908 76.0909 76.185 76.2685C76.462 76.446 76.7899 76.5348 77.1687 76.5348C77.4267 76.5348 77.6528 76.4946 77.8469 76.4141C78.0434 76.3336 78.208 76.2259 78.3406 76.0909C78.4755 75.9536 78.5773 75.8033 78.646 75.6399L79.2461 75.8352C79.1632 76.0649 79.0271 76.2768 78.8377 76.4709C78.6507 76.665 78.4163 76.8213 78.1346 76.9396C77.8552 77.0556 77.5333 77.1136 77.1687 77.1136Z" fill="#333333"/>
</svg>
