<svg width="77" height="77" viewBox="0 0 77 77" fill="none" xmlns="http://www.w3.org/2000/svg">
<path d="M8.11975 60.8558C8.33429 60.0661 7.86014 58.9682 7.40761 58.1767C7.26671 57.9407 7.11387 57.712 6.94968 57.4916C3.06856 51.6057 0.99993 44.7102 1.00018 37.6599C0.937077 17.4225 17.7183 1 38.4694 1C56.5668 1 71.6731 13.5373 75.2031 30.1797C75.732 32.6471 75.9991 35.1634 76 37.6869C76 57.9531 59.866 74.6334 39.1149 74.6334C35.8156 74.6334 31.3625 73.8041 28.934 73.1244C26.5055 72.4447 24.0807 71.5433 23.4551 71.3017C22.8152 71.0557 22.1357 70.9293 21.4502 70.9285C20.7015 70.9256 19.96 71.0747 19.2706 71.3666L7.04163 75.78C6.77372 75.8955 6.48984 75.9697 6.19968 76C5.97071 75.9993 5.74415 75.9532 5.53313 75.8643C5.32211 75.7754 5.13082 75.6456 4.97035 75.4823C4.80987 75.3189 4.6834 75.1254 4.59825 74.9128C4.51311 74.7003 4.47099 74.4729 4.47433 74.244C4.48937 74.043 4.52563 73.8442 4.5825 73.6508L8.11975 60.8558Z" stroke="#CFCFDD" stroke-miterlimit="10" stroke-linecap="round"/>
<path d="M29.4379 20.1591C29.0663 20.1591 28.7407 20.1106 28.4614 20.0135C28.182 19.9188 27.9465 19.7886 27.7547 19.6229C27.5629 19.4571 27.4138 19.2713 27.3073 19.0653L27.8257 18.7244C27.9039 18.8617 28.008 18.9967 28.1382 19.1293C28.2708 19.2618 28.4424 19.3719 28.6531 19.4595C28.8662 19.5471 29.1278 19.5909 29.4379 19.5909C29.9209 19.5909 30.3103 19.4702 30.6063 19.2287C30.9046 18.9872 31.0537 18.612 31.0537 18.103V16.8743H30.9969C30.9235 17.04 30.8182 17.2057 30.6808 17.3714C30.5435 17.5348 30.3636 17.6709 30.1411 17.7798C29.9209 17.8887 29.6475 17.9432 29.3208 17.9432C28.8852 17.9432 28.4981 17.8355 28.1595 17.62C27.8234 17.4046 27.5582 17.0968 27.3641 16.6967C27.1723 16.2943 27.0764 15.8149 27.0764 15.2585C27.0764 14.7069 27.17 14.2216 27.357 13.8026C27.5464 13.3835 27.8103 13.0568 28.1489 12.8224C28.4874 12.5881 28.8816 12.4709 29.3314 12.4709C29.6652 12.4709 29.9422 12.5301 30.1624 12.6484C30.3825 12.7644 30.5589 12.9089 30.6915 13.0817C30.8264 13.2545 30.9318 13.4226 31.0075 13.5859H31.0715V12.5455H31.6894V18.142C31.6894 18.6037 31.5911 18.9837 31.3946 19.282C31.1981 19.5803 30.9306 19.8004 30.5921 19.9425C30.2535 20.0869 29.8688 20.1591 29.4379 20.1591ZM29.3953 17.3643C29.7457 17.3643 30.0452 17.2803 30.2938 17.1122C30.5423 16.9418 30.7329 16.6979 30.8655 16.3807C30.9981 16.0634 31.0644 15.6858 31.0644 15.2479C31.0644 14.8217 30.9993 14.4441 30.8691 14.1151C30.7388 13.7836 30.5494 13.5232 30.3009 13.3338C30.0547 13.142 29.7528 13.0462 29.3953 13.0462C29.0307 13.0462 28.723 13.1444 28.472 13.3409C28.2211 13.5374 28.0317 13.8026 27.9039 14.1364C27.776 14.4678 27.7121 14.8383 27.7121 15.2479C27.7121 15.6645 27.7772 16.0327 27.9074 16.3523C28.0376 16.6695 28.2282 16.9181 28.4791 17.098C28.7301 17.2756 29.0355 17.3643 29.3953 17.3643ZM35.4829 18.1136C35.0117 18.1136 34.5951 17.9941 34.2329 17.755C33.873 17.5159 33.5913 17.1856 33.3877 16.7642C33.1841 16.3404 33.0823 15.8516 33.0823 15.2976C33.0823 14.7389 33.1841 14.2476 33.3877 13.8239C33.5913 13.3977 33.873 13.0663 34.2329 12.8295C34.5951 12.5904 35.0117 12.4709 35.4829 12.4709C35.954 12.4709 36.3695 12.5904 36.7293 12.8295C37.0892 13.0687 37.3709 13.4001 37.5745 13.8239C37.7805 14.2476 37.8834 14.7389 37.8834 15.2976C37.8834 15.8516 37.7816 16.3404 37.578 16.7642C37.3744 17.1856 37.0915 17.5159 36.7293 17.755C36.3695 17.9941 35.954 18.1136 35.4829 18.1136ZM35.4829 17.5348C35.8617 17.5348 36.1824 17.433 36.4452 17.2294C36.708 17.0258 36.9069 16.7547 37.0418 16.4162C37.1791 16.0777 37.2478 15.7048 37.2478 15.2976C37.2478 14.8904 37.1791 14.5163 37.0418 14.1754C36.9069 13.8345 36.708 13.5611 36.4452 13.3551C36.1824 13.1491 35.8617 13.0462 35.4829 13.0462C35.1064 13.0462 34.7857 13.1491 34.5205 13.3551C34.2577 13.5611 34.0577 13.8345 33.9204 14.1754C33.7854 14.5163 33.718 14.8904 33.718 15.2976C33.718 15.7048 33.7854 16.0777 33.9204 16.4162C34.0577 16.7547 34.2577 17.0258 34.5205 17.2294C34.7833 17.433 35.1041 17.5348 35.4829 17.5348ZM41.3911 18.1136C40.92 18.1136 40.5033 17.9941 40.1411 17.755C39.7812 17.5159 39.4995 17.1856 39.2959 16.7642C39.0923 16.3404 38.9905 15.8516 38.9905 15.2976C38.9905 14.7389 39.0923 14.2476 39.2959 13.8239C39.4995 13.3977 39.7812 13.0663 40.1411 12.8295C40.5033 12.5904 40.92 12.4709 41.3911 12.4709C41.8622 12.4709 42.2777 12.5904 42.6375 12.8295C42.9974 13.0687 43.2791 13.4001 43.4827 13.8239C43.6887 14.2476 43.7916 14.7389 43.7916 15.2976C43.7916 15.8516 43.6898 16.3404 43.4862 16.7642C43.2826 17.1856 42.9997 17.5159 42.6375 17.755C42.2777 17.9941 41.8622 18.1136 41.3911 18.1136ZM41.3911 17.5348C41.7699 17.5348 42.0906 17.433 42.3534 17.2294C42.6162 17.0258 42.8151 16.7547 42.95 16.4162C43.0873 16.0777 43.156 15.7048 43.156 15.2976C43.156 14.8904 43.0873 14.5163 42.95 14.1754C42.8151 13.8345 42.6162 13.5611 42.3534 13.3551C42.0906 13.1491 41.7699 13.0462 41.3911 13.0462C41.0146 13.0462 40.6939 13.1491 40.4287 13.3551C40.1659 13.5611 39.9659 13.8345 39.8286 14.1754C39.6936 14.5163 39.6262 14.8904 39.6262 15.2976C39.6262 15.7048 39.6936 16.0777 39.8286 16.4162C39.9659 16.7547 40.1659 17.0258 40.4287 17.2294C40.6915 17.433 41.0123 17.5348 41.3911 17.5348ZM47.143 18.1136C46.6956 18.1136 46.3038 17.9953 45.9676 17.7585C45.6314 17.5218 45.3686 17.1915 45.1792 16.7678C44.9922 16.344 44.8987 15.8504 44.8987 15.2869C44.8987 14.7259 44.9922 14.2346 45.1792 13.8132C45.3686 13.3894 45.6326 13.0604 45.9711 12.826C46.3097 12.5893 46.7039 12.4709 47.1537 12.4709C47.4851 12.4709 47.7609 12.5301 47.9811 12.6484C48.2013 12.7644 48.3776 12.9089 48.5102 13.0817C48.6428 13.2545 48.7458 13.4226 48.8192 13.5859H48.876V10.7273H49.5116V18H48.8937V16.9879H48.8192C48.7458 17.1536 48.6416 17.3241 48.5067 17.4993C48.3717 17.6721 48.193 17.8177 47.9704 17.9361C47.7503 18.0545 47.4745 18.1136 47.143 18.1136ZM47.2176 17.5348C47.5703 17.5348 47.871 17.4389 48.1196 17.2472C48.3682 17.053 48.5576 16.7867 48.6878 16.4482C48.8203 16.1072 48.8866 15.7166 48.8866 15.2763C48.8866 14.8407 48.8215 14.456 48.6913 14.1222C48.5611 13.786 48.3717 13.5232 48.1231 13.3338C47.8746 13.142 47.5727 13.0462 47.2176 13.0462C46.853 13.0462 46.5452 13.1456 46.2943 13.3445C46.0457 13.541 45.8563 13.8073 45.7261 14.1435C45.5983 14.4796 45.5344 14.8572 45.5344 15.2763C45.5344 15.7 45.5995 16.0824 45.7297 16.4233C45.8599 16.7642 46.0493 17.0353 46.2979 17.2365C46.5488 17.4354 46.8554 17.5348 47.2176 17.5348ZM21.7484 30.1136C21.2607 30.1136 20.8358 29.9917 20.4735 29.7479C20.1137 29.504 19.8343 29.1702 19.6355 28.7464C19.4366 28.3227 19.3372 27.8397 19.3372 27.2976C19.3372 26.7507 19.4378 26.2642 19.639 25.8381C19.8426 25.4119 20.1243 25.0781 20.4842 24.8366C20.844 24.5928 21.2619 24.4709 21.7377 24.4709C22.1023 24.4709 22.4326 24.5419 22.7285 24.6839C23.0244 24.8236 23.2683 25.0213 23.46 25.277C23.6542 25.5303 23.7761 25.8262 23.8258 26.1648H23.1866C23.1203 25.857 22.9605 25.5942 22.7072 25.3764C22.4563 25.1562 22.1367 25.0462 21.7484 25.0462C21.4004 25.0462 21.0926 25.1409 20.8251 25.3303C20.5576 25.5173 20.3481 25.7789 20.1966 26.1151C20.0474 26.4489 19.9728 26.8359 19.9728 27.2763C19.9728 27.719 20.0462 28.1108 20.193 28.4517C20.3398 28.7902 20.5458 29.0554 20.8109 29.2472C21.0784 29.4389 21.3909 29.5348 21.7484 29.5348C21.9899 29.5348 22.21 29.4898 22.4089 29.3999C22.6101 29.3075 22.7782 29.1773 22.9132 29.0092C23.0505 28.8411 23.1428 28.6411 23.1902 28.4091H23.8294C23.782 28.7382 23.6648 29.0317 23.4778 29.2898C23.2931 29.5455 23.0529 29.7467 22.7569 29.8935C22.4634 30.0402 22.1272 30.1136 21.7484 30.1136ZM27.3042 30.1136C26.833 30.1136 26.4164 29.9941 26.0542 29.755C25.6943 29.5159 25.4126 29.1856 25.209 28.7642C25.0054 28.3404 24.9036 27.8516 24.9036 27.2976C24.9036 26.7389 25.0054 26.2476 25.209 25.8239C25.4126 25.3977 25.6943 25.0663 26.0542 24.8295C26.4164 24.5904 26.833 24.4709 27.3042 24.4709C27.7753 24.4709 28.1908 24.5904 28.5506 24.8295C28.9105 25.0687 29.1922 25.4001 29.3958 25.8239C29.6017 26.2476 29.7047 26.7389 29.7047 27.2976C29.7047 27.8516 29.6029 28.3404 29.3993 28.7642C29.1957 29.1856 28.9128 29.5159 28.5506 29.755C28.1908 29.9941 27.7753 30.1136 27.3042 30.1136ZM27.3042 29.5348C27.6829 29.5348 28.0037 29.433 28.2665 29.2294C28.5293 29.0258 28.7282 28.7547 28.8631 28.4162C29.0004 28.0777 29.0691 27.7048 29.0691 27.2976C29.0691 26.8904 29.0004 26.5163 28.8631 26.1754C28.7282 25.8345 28.5293 25.5611 28.2665 25.3551C28.0037 25.1491 27.6829 25.0462 27.3042 25.0462C26.9277 25.0462 26.6069 25.1491 26.3418 25.3551C26.079 25.5611 25.879 25.8345 25.7417 26.1754C25.6067 26.5163 25.5392 26.8904 25.5392 27.2976C25.5392 27.7048 25.6067 28.0777 25.7417 28.4162C25.879 28.7547 26.079 29.0258 26.3418 29.2294C26.6046 29.433 26.9254 29.5348 27.3042 29.5348ZM31.7244 26.5909V30H31.0923V24.5455H31.7067V25.4013H31.7635C31.8913 25.1219 32.0902 24.8982 32.3601 24.7301C32.6323 24.5597 32.9685 24.4744 33.3686 24.4744C33.7356 24.4744 34.0575 24.5514 34.3345 24.7053C34.6139 24.8568 34.8305 25.0805 34.9844 25.3764C35.1406 25.6723 35.2188 26.0357 35.2188 26.4666V30H34.5866V26.5057C34.5866 26.0582 34.4612 25.7043 34.2102 25.4439C33.9616 25.1835 33.6278 25.0533 33.2088 25.0533C32.9223 25.0533 32.6679 25.1148 32.4453 25.2379C32.2228 25.361 32.0464 25.5386 31.9162 25.7706C31.7884 26.0002 31.7244 26.2737 31.7244 26.5909ZM39.0318 24.5455V25.0959H36.4288V24.5455H39.0318ZM37.242 23.2386H37.8777V28.576C37.8777 28.8033 37.9167 28.982 37.9949 29.1122C38.073 29.2401 38.1748 29.3312 38.3002 29.3857C38.4257 29.4377 38.5595 29.4638 38.7015 29.4638C38.7844 29.4638 38.8554 29.459 38.9146 29.4496C38.9738 29.4377 39.0259 29.4259 39.0708 29.4141L39.2058 29.9858C39.1442 30.0095 39.0685 30.0308 38.9785 30.0497C38.8886 30.071 38.7773 30.0817 38.6447 30.0817C38.4127 30.0817 38.189 30.0308 37.9735 29.929C37.7605 29.8272 37.5853 29.6757 37.448 29.4744C37.3107 29.2732 37.242 29.0234 37.242 28.7251V23.2386ZM42.614 30.1136C42.105 30.1136 41.6647 29.9953 41.293 29.7585C40.9213 29.5194 40.6336 29.1892 40.43 28.7678C40.2288 28.344 40.1282 27.8563 40.1282 27.3047C40.1282 26.7554 40.2288 26.2678 40.43 25.8416C40.6336 25.4131 40.9142 25.0781 41.2717 24.8366C41.6315 24.5928 42.047 24.4709 42.5181 24.4709C42.814 24.4709 43.0993 24.5253 43.3739 24.6342C43.6486 24.7408 43.8948 24.9053 44.1126 25.1278C44.3327 25.348 44.5067 25.6262 44.6346 25.9624C44.7624 26.2962 44.8263 26.6915 44.8263 27.1484V27.4609H40.565V26.9034H44.18C44.18 26.553 44.109 26.2382 43.967 25.9588C43.8273 25.6771 43.632 25.4545 43.381 25.2912C43.1325 25.1278 42.8448 25.0462 42.5181 25.0462C42.1725 25.0462 41.8683 25.1385 41.6055 25.3232C41.3427 25.5078 41.1367 25.7517 40.9876 26.0547C40.8408 26.3577 40.7662 26.6892 40.7638 27.049V27.3828C40.7638 27.8161 40.8384 28.1948 40.9876 28.5192C41.1391 28.8411 41.3533 29.0909 41.6303 29.2685C41.9073 29.446 42.2352 29.5348 42.614 29.5348C42.872 29.5348 43.0981 29.4946 43.2923 29.4141C43.4888 29.3336 43.6533 29.2259 43.7859 29.0909C43.9208 28.9536 44.0226 28.8033 44.0913 28.6399L44.6914 28.8352C44.6085 29.0649 44.4724 29.2768 44.283 29.4709C44.096 29.665 43.8616 29.8213 43.5799 29.9396C43.3005 30.0556 42.9786 30.1136 42.614 30.1136ZM46.8514 26.5909V30H46.2193V24.5455H46.8336V25.4013H46.8904C47.0183 25.1219 47.2172 24.8982 47.487 24.7301C47.7593 24.5597 48.0955 24.4744 48.4956 24.4744C48.8625 24.4744 49.1845 24.5514 49.4615 24.7053C49.7408 24.8568 49.9574 25.0805 50.1113 25.3764C50.2676 25.6723 50.3457 26.0357 50.3457 26.4666V30H49.7136V26.5057C49.7136 26.0582 49.5881 25.7043 49.3372 25.4439C49.0886 25.1835 48.7548 25.0533 48.3358 25.0533C48.0493 25.0533 47.7948 25.1148 47.5723 25.2379C47.3497 25.361 47.1734 25.5386 47.0431 25.7706C46.9153 26.0002 46.8514 26.2737 46.8514 26.5909ZM54.1587 24.5455V25.0959H51.5558V24.5455H54.1587ZM52.369 23.2386H53.0046V28.576C53.0046 28.8033 53.0437 28.982 53.1218 29.1122C53.1999 29.2401 53.3017 29.3312 53.4272 29.3857C53.5527 29.4377 53.6864 29.4638 53.8285 29.4638C53.9113 29.4638 53.9824 29.459 54.0415 29.4496C54.1007 29.4377 54.1528 29.4259 54.1978 29.4141L54.3327 29.9858C54.2712 30.0095 54.1954 30.0308 54.1055 30.0497C54.0155 30.071 53.9042 30.0817 53.7717 30.0817C53.5397 30.0817 53.3159 30.0308 53.1005 29.929C52.8874 29.8272 52.7122 29.6757 52.5749 29.4744C52.4376 29.2732 52.369 29.0234 52.369 28.7251V23.2386ZM57.9558 22.3864L55.612 31.0938H55.019L57.3627 22.3864H57.9558ZM22.1031 44.0455V36.5455H22.7174V37.5859H22.792C22.8677 37.4226 22.9719 37.2557 23.1045 37.0852C23.2371 36.9124 23.4123 36.7668 23.6301 36.6484C23.8502 36.5301 24.1272 36.4709 24.461 36.4709C24.9108 36.4709 25.3038 36.5893 25.64 36.826C25.9785 37.0604 26.2413 37.3894 26.4284 37.8132C26.6178 38.2346 26.7124 38.7259 26.7124 39.2869C26.7124 39.8504 26.6178 40.344 26.4284 40.7678C26.2413 41.1915 25.9785 41.5218 25.64 41.7585C25.3038 41.9953 24.9132 42.1136 24.4681 42.1136C24.1391 42.1136 23.8633 42.0545 23.6407 41.9361C23.4205 41.8177 23.2418 41.6721 23.1045 41.4993C22.9695 41.3241 22.8654 41.1536 22.792 40.9879H22.7352V44.0455H22.1031ZM22.7281 39.2763C22.7281 39.7166 22.7932 40.1072 22.9234 40.4482C23.056 40.7867 23.2454 41.053 23.4916 41.2472C23.7401 41.4389 24.0408 41.5348 24.3936 41.5348C24.7558 41.5348 25.0612 41.4354 25.3097 41.2365C25.5607 41.0353 25.7513 40.7642 25.8815 40.4233C26.0141 40.0824 26.0803 39.7 26.0803 39.2763C26.0803 38.8572 26.0152 38.4796 25.885 38.1435C25.7572 37.8073 25.5678 37.541 25.3169 37.3445C25.0659 37.1456 24.7581 37.0462 24.3936 37.0462C24.0384 37.0462 23.7366 37.142 23.488 37.3338C23.2394 37.5232 23.05 37.786 22.9198 38.1222C22.792 38.456 22.7281 38.8407 22.7281 39.2763ZM28.0992 42V36.5455H28.7135V37.3835H28.7597C28.8686 37.1089 29.058 36.8875 29.3279 36.7195C29.6001 36.549 29.9079 36.4638 30.2512 36.4638C30.3032 36.4638 30.3612 36.465 30.4252 36.4673C30.4891 36.4697 30.5423 36.4721 30.585 36.4744V37.1172C30.5566 37.1125 30.5068 37.1054 30.4358 37.0959C30.3648 37.0864 30.2878 37.0817 30.205 37.0817C29.9209 37.0817 29.6676 37.142 29.445 37.2628C29.2249 37.3812 29.0509 37.5457 28.923 37.7564C28.7952 37.9671 28.7313 38.2074 28.7313 38.4773V42H28.0992ZM33.1871 42.1243C32.858 42.1243 32.5573 42.0604 32.2851 41.9325C32.0128 41.8023 31.7962 41.6153 31.6352 41.3714C31.4742 41.1252 31.3937 40.8269 31.3937 40.4766C31.3937 40.2067 31.4446 39.9794 31.5464 39.7947C31.6482 39.6101 31.7926 39.4586 31.9797 39.3402C32.1667 39.2218 32.3881 39.1283 32.6437 39.0597C32.8994 38.991 33.1811 38.9377 33.4889 38.8999C33.7943 38.862 34.0523 38.8288 34.2631 38.8004C34.4761 38.772 34.6383 38.727 34.7496 38.6655C34.8608 38.6039 34.9165 38.5045 34.9165 38.3672V38.2393C34.9165 37.8677 34.8052 37.5753 34.5827 37.3622C34.3625 37.1468 34.0452 37.0391 33.6309 37.0391C33.238 37.0391 32.9172 37.1255 32.6686 37.2983C32.4224 37.4711 32.2496 37.6747 32.1501 37.9091L31.55 37.6925C31.6731 37.3942 31.8435 37.1562 32.0613 36.9787C32.2791 36.7988 32.523 36.6697 32.7929 36.5916C33.0628 36.5111 33.3362 36.4709 33.6132 36.4709C33.8215 36.4709 34.0381 36.4981 34.2631 36.5526C34.4903 36.607 34.701 36.7017 34.8952 36.8366C35.0893 36.9692 35.2467 37.1551 35.3675 37.3942C35.4882 37.6309 35.5486 37.9316 35.5486 38.2962V42H34.9165V41.1371H34.8774C34.8016 41.2981 34.6892 41.4543 34.54 41.6058C34.3909 41.7573 34.2039 41.8816 33.979 41.9787C33.7541 42.0758 33.4901 42.1243 33.1871 42.1243ZM33.2723 41.5455C33.6085 41.5455 33.8997 41.4709 34.1459 41.3217C34.3921 41.1726 34.5815 40.9749 34.714 40.7287C34.849 40.4801 34.9165 40.2067 34.9165 39.9084V39.12C34.8691 39.165 34.7898 39.2053 34.6785 39.2408C34.5696 39.2763 34.443 39.3082 34.2986 39.3366C34.1565 39.3627 34.0145 39.3852 33.8724 39.4041C33.7304 39.4231 33.6025 39.4396 33.4889 39.4538C33.1811 39.4917 32.9184 39.5509 32.7006 39.6314C32.4827 39.7119 32.3158 39.8232 32.1998 39.9652C32.0838 40.1049 32.0258 40.2848 32.0258 40.505C32.0258 40.8364 32.1442 41.0933 32.3809 41.2756C32.6177 41.4555 32.9148 41.5455 33.2723 41.5455ZM39.3785 36.5455V37.0959H36.7755V36.5455H39.3785ZM37.5887 35.2386H38.2243V40.576C38.2243 40.8033 38.2634 40.982 38.3415 41.1122C38.4197 41.2401 38.5215 41.3312 38.6469 41.3857C38.7724 41.4377 38.9062 41.4638 39.0482 41.4638C39.1311 41.4638 39.2021 41.459 39.2613 41.4496C39.3205 41.4377 39.3725 41.4259 39.4175 41.4141L39.5525 41.9858C39.4909 42.0095 39.4152 42.0308 39.3252 42.0497C39.2352 42.071 39.124 42.0817 38.9914 42.0817C38.7594 42.0817 38.5357 42.0308 38.3202 41.929C38.1072 41.8272 37.932 41.6757 37.7947 41.4744C37.6573 41.2732 37.5887 41.0234 37.5887 40.7251V35.2386ZM40.8211 42V36.5455H41.4568V42H40.8211ZM41.1443 35.608C41.0141 35.608 40.9028 35.5642 40.8105 35.4766C40.7181 35.3866 40.672 35.2789 40.672 35.1534C40.672 35.0279 40.7181 34.9214 40.8105 34.8338C40.9028 34.7438 41.0141 34.6989 41.1443 34.6989C41.2745 34.6989 41.3857 34.7438 41.4781 34.8338C41.5704 34.9214 41.6166 35.0279 41.6166 35.1534C41.6166 35.2789 41.5704 35.3866 41.4781 35.4766C41.3857 35.5642 41.2745 35.608 41.1443 35.608ZM45.2591 42.1136C44.7715 42.1136 44.3465 41.9917 43.9843 41.7479C43.6244 41.504 43.3451 41.1702 43.1462 40.7464C42.9474 40.3227 42.8479 39.8397 42.8479 39.2976C42.8479 38.7507 42.9485 38.2642 43.1498 37.8381C43.3534 37.4119 43.6351 37.0781 43.9949 36.8366C44.3548 36.5928 44.7726 36.4709 45.2485 36.4709C45.6131 36.4709 45.9433 36.5419 46.2393 36.6839C46.5352 36.8236 46.779 37.0213 46.9708 37.277C47.1649 37.5303 47.2868 37.8262 47.3366 38.1648H46.6974C46.6311 37.857 46.4713 37.5942 46.218 37.3764C45.967 37.1562 45.6474 37.0462 45.2591 37.0462C44.9111 37.0462 44.6034 37.1409 44.3358 37.3303C44.0683 37.5173 43.8588 37.7789 43.7073 38.1151C43.5581 38.4489 43.4836 38.8359 43.4836 39.2763C43.4836 39.719 43.557 40.1108 43.7037 40.4517C43.8505 40.7902 44.0565 41.0554 44.3216 41.2472C44.5892 41.4389 44.9017 41.5348 45.2591 41.5348C45.5006 41.5348 45.7208 41.4898 45.9197 41.3999C46.1209 41.3075 46.289 41.1773 46.4239 41.0092C46.5612 40.8411 46.6536 40.6411 46.7009 40.4091H47.3401C47.2928 40.7382 47.1756 41.0317 46.9885 41.2898C46.8039 41.5455 46.5636 41.7467 46.2677 41.8935C45.9741 42.0402 45.6379 42.1136 45.2591 42.1136ZM50.2183 42.1243C49.8892 42.1243 49.5886 42.0604 49.3163 41.9325C49.0441 41.8023 48.8274 41.6153 48.6665 41.3714C48.5055 41.1252 48.425 40.8269 48.425 40.4766C48.425 40.2067 48.4759 39.9794 48.5777 39.7947C48.6795 39.6101 48.8239 39.4586 49.0109 39.3402C49.1979 39.2218 49.4193 39.1283 49.675 39.0597C49.9307 38.991 50.2124 38.9377 50.5202 38.8999C50.8256 38.862 51.0836 38.8288 51.2943 38.8004C51.5074 38.772 51.6695 38.727 51.7808 38.6655C51.8921 38.6039 51.9477 38.5045 51.9477 38.3672V38.2393C51.9477 37.8677 51.8364 37.5753 51.6139 37.3622C51.3937 37.1468 51.0765 37.0391 50.6622 37.0391C50.2692 37.0391 49.9484 37.1255 49.6998 37.2983C49.4536 37.4711 49.2808 37.6747 49.1814 37.9091L48.5812 37.6925C48.7043 37.3942 48.8748 37.1562 49.0926 36.9787C49.3104 36.7988 49.5542 36.6697 49.8241 36.5916C50.094 36.5111 50.3675 36.4709 50.6444 36.4709C50.8528 36.4709 51.0694 36.4981 51.2943 36.5526C51.5216 36.607 51.7323 36.7017 51.9264 36.8366C52.1205 36.9692 52.278 37.1551 52.3987 37.3942C52.5194 37.6309 52.5798 37.9316 52.5798 38.2962V42H51.9477V41.1371H51.9086C51.8329 41.2981 51.7204 41.4543 51.5713 41.6058C51.4221 41.7573 51.2351 41.8816 51.0102 41.9787C50.7853 42.0758 50.5213 42.1243 50.2183 42.1243ZM50.3035 41.5455C50.6397 41.5455 50.9309 41.4709 51.1771 41.3217C51.4233 41.1726 51.6127 40.9749 51.7453 40.7287C51.8802 40.4801 51.9477 40.2067 51.9477 39.9084V39.12C51.9004 39.165 51.8211 39.2053 51.7098 39.2408C51.6009 39.2763 51.4742 39.3082 51.3298 39.3366C51.1878 39.3627 51.0457 39.3852 50.9037 39.4041C50.7616 39.4231 50.6338 39.4396 50.5202 39.4538C50.2124 39.4917 49.9496 39.5509 49.7318 39.6314C49.514 39.7119 49.3471 39.8232 49.2311 39.9652C49.1151 40.1049 49.0571 40.2848 49.0571 40.505C49.0571 40.8364 49.1755 41.0933 49.4122 41.2756C49.6489 41.4555 49.9461 41.5455 50.3035 41.5455ZM54.8934 34.7273V42H54.2613V34.7273H54.8934ZM19.6111 54.1136C19.1021 54.1136 18.6617 53.9953 18.29 53.7585C17.9184 53.5194 17.6307 53.1892 17.4271 52.7678C17.2259 52.344 17.1253 51.8563 17.1253 51.3047C17.1253 50.7554 17.2259 50.2678 17.4271 49.8416C17.6307 49.4131 17.9113 49.0781 18.2687 48.8366C18.6286 48.5928 19.0441 48.4709 19.5152 48.4709C19.8111 48.4709 20.0964 48.5253 20.371 48.6342C20.6456 48.7408 20.8918 48.9053 21.1096 49.1278C21.3298 49.348 21.5038 49.6262 21.6317 49.9624C21.7595 50.2962 21.8234 50.6915 21.8234 51.1484V51.4609H17.5621V50.9034H21.1771C21.1771 50.553 21.1061 50.2382 20.964 49.9588C20.8244 49.6771 20.6291 49.4545 20.3781 49.2912C20.1295 49.1278 19.8419 49.0462 19.5152 49.0462C19.1695 49.0462 18.8653 49.1385 18.6025 49.3232C18.3398 49.5078 18.1338 49.7517 17.9846 50.0547C17.8379 50.3577 17.7633 50.6892 17.7609 51.049V51.3828C17.7609 51.8161 17.8355 52.1948 17.9846 52.5192C18.1362 52.8411 18.3504 53.0909 18.6274 53.2685C18.9044 53.446 19.2323 53.5348 19.6111 53.5348C19.8691 53.5348 20.0952 53.4946 20.2893 53.4141C20.4858 53.3336 20.6504 53.2259 20.7829 53.0909C20.9179 52.9536 21.0197 52.8033 21.0883 52.6399L21.6885 52.8352C21.6056 53.0649 21.4695 53.2768 21.2801 53.4709C21.0931 53.665 20.8587 53.8213 20.577 53.9396C20.2976 54.0556 19.9756 54.1136 19.6111 54.1136ZM23.4605 48.5455L24.8667 50.8714L26.273 48.5455H27.0081L25.2538 51.2727L27.0081 54H26.273L24.8667 51.7486L23.4605 54H22.729L24.4619 51.2727L22.729 48.5455H23.4605ZM30.3142 54.1136C29.8052 54.1136 29.3648 53.9953 28.9932 53.7585C28.6215 53.5194 28.3338 53.1892 28.1302 52.7678C27.929 52.344 27.8284 51.8563 27.8284 51.3047C27.8284 50.7554 27.929 50.2678 28.1302 49.8416C28.3338 49.4131 28.6144 49.0781 28.9719 48.8366C29.3317 48.5928 29.7472 48.4709 30.2183 48.4709C30.5142 48.4709 30.7995 48.5253 31.0741 48.6342C31.3488 48.7408 31.595 48.9053 31.8128 49.1278C32.0329 49.348 32.2069 49.6262 32.3348 49.9624C32.4626 50.2962 32.5265 50.6915 32.5265 51.1484V51.4609H28.2652V50.9034H31.8802C31.8802 50.553 31.8092 50.2382 31.6672 49.9588C31.5275 49.6771 31.3322 49.4545 31.0812 49.2912C30.8327 49.1278 30.545 49.0462 30.2183 49.0462C29.8727 49.0462 29.5684 49.1385 29.3057 49.3232C29.0429 49.5078 28.8369 49.7517 28.6878 50.0547C28.541 50.3577 28.4664 50.6892 28.464 51.049V51.3828C28.464 51.8161 28.5386 52.1948 28.6878 52.5192C28.8393 52.8411 29.0535 53.0909 29.3305 53.2685C29.6075 53.446 29.9354 53.5348 30.3142 53.5348C30.5722 53.5348 30.7983 53.4946 30.9925 53.4141C31.189 53.3336 31.3535 53.2259 31.4861 53.0909C31.621 52.9536 31.7228 52.8033 31.7915 52.6399L32.3916 52.8352C32.3087 53.0649 32.1726 53.2768 31.9832 53.4709C31.7962 53.665 31.5618 53.8213 31.2801 53.9396C31.0007 54.0556 30.6788 54.1136 30.3142 54.1136ZM33.9195 54V48.5455H34.5338V49.3835H34.58C34.6889 49.1089 34.8783 48.8875 35.1482 48.7195C35.4204 48.549 35.7282 48.4638 36.0715 48.4638C36.1235 48.4638 36.1816 48.465 36.2455 48.4673C36.3094 48.4697 36.3627 48.4721 36.4053 48.4744V49.1172C36.3769 49.1125 36.3271 49.1054 36.2561 49.0959C36.1851 49.0864 36.1082 49.0817 36.0253 49.0817C35.7412 49.0817 35.4879 49.142 35.2654 49.2628C35.0452 49.3812 34.8712 49.5457 34.7433 49.7564C34.6155 49.9671 34.5516 50.2074 34.5516 50.4773V54H33.9195ZM39.4486 54.1136C38.9609 54.1136 38.536 53.9917 38.1737 53.7479C37.8139 53.504 37.5345 53.1702 37.3357 52.7464C37.1368 52.3227 37.0374 51.8397 37.0374 51.2976C37.0374 50.7507 37.138 50.2642 37.3392 49.8381C37.5428 49.4119 37.8245 49.0781 38.1844 48.8366C38.5442 48.5928 38.9621 48.4709 39.4379 48.4709C39.8025 48.4709 40.1328 48.5419 40.4287 48.6839C40.7246 48.8236 40.9685 49.0213 41.1602 49.277C41.3544 49.5303 41.4763 49.8262 41.526 50.1648H40.8868C40.8205 49.857 40.6607 49.5942 40.4074 49.3764C40.1565 49.1562 39.8369 49.0462 39.4486 49.0462C39.1006 49.0462 38.7928 49.1409 38.5253 49.3303C38.2578 49.5173 38.0483 49.7789 37.8968 50.1151C37.7476 50.4489 37.673 50.8359 37.673 51.2763C37.673 51.719 37.7464 52.1108 37.8932 52.4517C38.04 52.7902 38.2459 53.0554 38.5111 53.2472C38.7786 53.4389 39.0911 53.5348 39.4486 53.5348C39.6901 53.5348 39.9102 53.4898 40.1091 53.3999C40.3103 53.3075 40.4784 53.1773 40.6134 53.0092C40.7507 52.8411 40.843 52.6411 40.8904 52.4091H41.5296C41.4822 52.7382 41.365 53.0317 41.178 53.2898C40.9933 53.5455 40.753 53.7467 40.4571 53.8935C40.1636 54.0402 39.8274 54.1136 39.4486 54.1136ZM42.8914 54V48.5455H43.5271V54H42.8914ZM43.2146 47.608C43.0844 47.608 42.9731 47.5642 42.8808 47.4766C42.7884 47.3866 42.7423 47.2789 42.7423 47.1534C42.7423 47.0279 42.7884 46.9214 42.8808 46.8338C42.9731 46.7438 43.0844 46.6989 43.2146 46.6989C43.3448 46.6989 43.4561 46.7438 43.5484 46.8338C43.6407 46.9214 43.6869 47.0279 43.6869 47.1534C43.6869 47.2789 43.6407 47.3866 43.5484 47.4766C43.4561 47.5642 43.3448 47.608 43.2146 47.608ZM48.8635 49.7422L48.2847 49.9055C48.2279 49.7422 48.1474 49.5942 48.0432 49.4616C47.9391 49.3291 47.8029 49.2237 47.6349 49.1456C47.4691 49.0675 47.2632 49.0284 47.017 49.0284C46.6476 49.0284 46.3446 49.116 46.1079 49.2912C45.8711 49.4664 45.7528 49.6925 45.7528 49.9695C45.7528 50.2038 45.8332 50.3944 45.9942 50.5412C46.1576 50.6856 46.4085 50.8004 46.7471 50.8857L47.5709 51.0881C48.0278 51.1993 48.3699 51.3757 48.5972 51.6172C48.8269 51.8587 48.9417 52.1617 48.9417 52.5263C48.9417 52.834 48.8564 53.1075 48.686 53.3466C48.5155 53.5857 48.2776 53.7739 47.9722 53.9112C47.6692 54.0462 47.3176 54.1136 46.9175 54.1136C46.3849 54.1136 45.9457 53.9941 45.6001 53.755C45.2544 53.5135 45.0331 53.1655 44.936 52.7109L45.5432 52.5618C45.6214 52.8861 45.7741 53.1312 46.0013 53.2969C46.231 53.4626 46.5328 53.5455 46.9069 53.5455C47.3259 53.5455 47.6609 53.4519 47.9118 53.2649C48.1628 53.0755 48.2883 52.8388 48.2883 52.5547C48.2883 52.3345 48.2149 52.1499 48.0681 52.0007C47.9213 51.8492 47.6988 51.7379 47.4005 51.6669L46.5091 51.4538C46.0357 51.3402 45.6853 51.1603 45.458 50.9141C45.2307 50.6679 45.1171 50.3625 45.1171 49.9979C45.1171 49.6972 45.1988 49.4332 45.3621 49.206C45.5255 48.9763 45.7504 48.7964 46.0368 48.6662C46.3233 48.536 46.65 48.4709 47.017 48.4709C47.5165 48.4709 47.9154 48.5845 48.2137 48.8118C48.5144 49.0367 48.731 49.3468 48.8635 49.7422ZM52.531 54.1136C52.022 54.1136 51.5816 53.9953 51.21 53.7585C50.8383 53.5194 50.5506 53.1892 50.347 52.7678C50.1458 52.344 50.0452 51.8563 50.0452 51.3047C50.0452 50.7554 50.1458 50.2678 50.347 49.8416C50.5506 49.4131 50.8312 49.0781 51.1887 48.8366C51.5485 48.5928 51.964 48.4709 52.4351 48.4709C52.731 48.4709 53.0163 48.5253 53.2909 48.6342C53.5655 48.7408 53.8118 48.9053 54.0296 49.1278C54.2497 49.348 54.4237 49.6262 54.5516 49.9624C54.6794 50.2962 54.7433 50.6915 54.7433 51.1484V51.4609H50.482V50.9034H54.097C54.097 50.553 54.026 50.2382 53.884 49.9588C53.7443 49.6771 53.549 49.4545 53.298 49.2912C53.0494 49.1278 52.7618 49.0462 52.4351 49.0462C52.0895 49.0462 51.7852 49.1385 51.5225 49.3232C51.2597 49.5078 51.0537 49.7517 50.9046 50.0547C50.7578 50.3577 50.6832 50.6892 50.6808 51.049V51.3828C50.6808 51.8161 50.7554 52.1948 50.9046 52.5192C51.0561 52.8411 51.2703 53.0909 51.5473 53.2685C51.8243 53.446 52.1522 53.5348 52.531 53.5348C52.789 53.5348 53.0151 53.4946 53.2093 53.4141C53.4057 53.3336 53.5703 53.2259 53.7029 53.0909C53.8378 52.9536 53.9396 52.8033 54.0083 52.6399L54.6084 52.8352C54.5255 53.0649 54.3894 53.2768 54.2 53.4709C54.013 53.665 53.7786 53.8213 53.4969 53.9396C53.2175 54.0556 52.8956 54.1136 52.531 54.1136ZM59.801 49.7422L59.2222 49.9055C59.1654 49.7422 59.0849 49.5942 58.9807 49.4616C58.8766 49.3291 58.7404 49.2237 58.5724 49.1456C58.4066 49.0675 58.2007 49.0284 57.9545 49.0284C57.5851 49.0284 57.2821 49.116 57.0454 49.2912C56.8086 49.4664 56.6903 49.6925 56.6903 49.9695C56.6903 50.2038 56.7707 50.3944 56.9317 50.5412C57.0951 50.6856 57.346 50.8004 57.6846 50.8857L58.5084 51.0881C58.9653 51.1993 59.3074 51.3757 59.5347 51.6172C59.7644 51.8587 59.8792 52.1617 59.8792 52.5263C59.8792 52.834 59.7939 53.1075 59.6235 53.3466C59.453 53.5857 59.2151 53.7739 58.9097 53.9112C58.6067 54.0462 58.2551 54.1136 57.855 54.1136C57.3224 54.1136 56.8832 53.9941 56.5376 53.755C56.1919 53.5135 55.9706 53.1655 55.8735 52.7109L56.4807 52.5618C56.5589 52.8861 56.7116 53.1312 56.9388 53.2969C57.1685 53.4626 57.4703 53.5455 57.8444 53.5455C58.2634 53.5455 58.5984 53.4519 58.8493 53.2649C59.1003 53.0755 59.2258 52.8388 59.2258 52.5547C59.2258 52.3345 59.1524 52.1499 59.0056 52.0007C58.8588 51.8492 58.6363 51.7379 58.338 51.6669L57.4466 51.4538C56.9732 51.3402 56.6228 51.1603 56.3955 50.9141C56.1682 50.6679 56.0546 50.3625 56.0546 49.9979C56.0546 49.6972 56.1363 49.4332 56.2996 49.206C56.463 48.9763 56.6879 48.7964 56.9743 48.6662C57.2608 48.536 57.5875 48.4709 57.9545 48.4709C58.454 48.4709 58.8529 48.5845 59.1512 48.8118C59.4519 49.0367 59.6685 49.3468 59.801 49.7422ZM28.8658 66V60.5455H29.4801V61.3835H29.5263C29.6352 61.1089 29.8246 60.8875 30.0945 60.7195C30.3667 60.549 30.6745 60.4638 31.0178 60.4638C31.0698 60.4638 31.1278 60.465 31.1918 60.4673C31.2557 60.4697 31.3089 60.4721 31.3516 60.4744V61.1172C31.3232 61.1125 31.2734 61.1054 31.2024 61.0959C31.1314 61.0864 31.0545 61.0817 30.9716 61.0817C30.6875 61.0817 30.4342 61.142 30.2116 61.2628C29.9915 61.3812 29.8175 61.5457 29.6896 61.7564C29.5618 61.9671 29.4979 62.2074 29.4979 62.4773V66H28.8658ZM33.9537 66.1243C33.6246 66.1243 33.3239 66.0604 33.0517 65.9325C32.7794 65.8023 32.5628 65.6153 32.4018 65.3714C32.2408 65.1252 32.1603 64.8269 32.1603 64.4766C32.1603 64.2067 32.2112 63.9794 32.313 63.7947C32.4148 63.6101 32.5592 63.4586 32.7463 63.3402C32.9333 63.2218 33.1547 63.1283 33.4103 63.0597C33.666 62.991 33.9477 62.9377 34.2555 62.8999C34.5609 62.862 34.819 62.8288 35.0297 62.8004C35.2427 62.772 35.4049 62.727 35.5162 62.6655C35.6274 62.6039 35.6831 62.5045 35.6831 62.3672V62.2393C35.6831 61.8677 35.5718 61.5753 35.3493 61.3622C35.1291 61.1468 34.8118 61.0391 34.3975 61.0391C34.0046 61.0391 33.6838 61.1255 33.4352 61.2983C33.189 61.4711 33.0162 61.6747 32.9167 61.9091L32.3166 61.6925C32.4397 61.3942 32.6101 61.1562 32.8279 60.9787C33.0458 60.7988 33.2896 60.6697 33.5595 60.5916C33.8294 60.5111 34.1028 60.4709 34.3798 60.4709C34.5881 60.4709 34.8047 60.4981 35.0297 60.5526C35.2569 60.607 35.4676 60.7017 35.6618 60.8366C35.8559 60.9692 36.0133 61.1551 36.1341 61.3942C36.2548 61.6309 36.3152 61.9316 36.3152 62.2962V66H35.6831V65.1371H35.644C35.5682 65.2981 35.4558 65.4543 35.3066 65.6058C35.1575 65.7573 34.9705 65.8816 34.7456 65.9787C34.5207 66.0758 34.2567 66.1243 33.9537 66.1243ZM34.0389 65.5455C34.3751 65.5455 34.6663 65.4709 34.9125 65.3217C35.1587 65.1726 35.3481 64.9749 35.4806 64.7287C35.6156 64.4801 35.6831 64.2067 35.6831 63.9084V63.12C35.6357 63.165 35.5564 63.2053 35.4451 63.2408C35.3362 63.2763 35.2096 63.3082 35.0652 63.3366C34.9231 63.3627 34.7811 63.3852 34.639 63.4041C34.497 63.4231 34.3691 63.4396 34.2555 63.4538C33.9477 63.4917 33.685 63.5509 33.4672 63.6314C33.2493 63.7119 33.0824 63.8232 32.9664 63.9652C32.8504 64.1049 32.7924 64.2848 32.7924 64.505C32.7924 64.8364 32.9108 65.0933 33.1475 65.2756C33.3843 65.4555 33.6814 65.5455 34.0389 65.5455ZM40.1451 60.5455V61.0959H37.5421V60.5455H40.1451ZM38.3553 59.2386H38.9909V64.576C38.9909 64.8033 39.03 64.982 39.1081 65.1122C39.1863 65.2401 39.2881 65.3312 39.4135 65.3857C39.539 65.4377 39.6728 65.4638 39.8148 65.4638C39.8977 65.4638 39.9687 65.459 40.0279 65.4496C40.0871 65.4377 40.1391 65.4259 40.1841 65.4141L40.3191 65.9858C40.2575 66.0095 40.1818 66.0308 40.0918 66.0497C40.0018 66.071 39.8906 66.0817 39.758 66.0817C39.526 66.0817 39.3023 66.0308 39.0868 65.929C38.8738 65.8272 38.6986 65.6757 38.5613 65.4744C38.4239 65.2732 38.3553 65.0234 38.3553 64.7251V59.2386ZM41.5877 66V60.5455H42.2234V66H41.5877ZM41.9109 59.608C41.7807 59.608 41.6694 59.5642 41.5771 59.4766C41.4847 59.3866 41.4386 59.2789 41.4386 59.1534C41.4386 59.0279 41.4847 58.9214 41.5771 58.8338C41.6694 58.7438 41.7807 58.6989 41.9109 58.6989C42.0411 58.6989 42.1523 58.7438 42.2447 58.8338C42.337 58.9214 42.3832 59.0279 42.3832 59.1534C42.3832 59.2789 42.337 59.3866 42.2447 59.4766C42.1523 59.5642 42.0411 59.608 41.9109 59.608ZM46.0151 66.1136C45.544 66.1136 45.1273 65.9941 44.7651 65.755C44.4052 65.5159 44.1235 65.1856 43.9199 64.7642C43.7163 64.3404 43.6145 63.8516 43.6145 63.2976C43.6145 62.7389 43.7163 62.2476 43.9199 61.8239C44.1235 61.3977 44.4052 61.0663 44.7651 60.8295C45.1273 60.5904 45.544 60.4709 46.0151 60.4709C46.4862 60.4709 46.9017 60.5904 47.2615 60.8295C47.6214 61.0687 47.9031 61.4001 48.1067 61.8239C48.3127 62.2476 48.4157 62.7389 48.4157 63.2976C48.4157 63.8516 48.3139 64.3404 48.1103 64.7642C47.9067 65.1856 47.6238 65.5159 47.2615 65.755C46.9017 65.9941 46.4862 66.1136 46.0151 66.1136ZM46.0151 65.5348C46.3939 65.5348 46.7147 65.433 46.9775 65.2294C47.2402 65.0258 47.4391 64.7547 47.574 64.4162C47.7114 64.0777 47.78 63.7048 47.78 63.2976C47.78 62.8904 47.7114 62.5163 47.574 62.1754C47.4391 61.8345 47.2402 61.5611 46.9775 61.3551C46.7147 61.1491 46.3939 61.0462 46.0151 61.0462C45.6387 61.0462 45.3179 61.1491 45.0527 61.3551C44.79 61.5611 44.5899 61.8345 44.4526 62.1754C44.3176 62.5163 44.2502 62.8904 44.2502 63.2976C44.2502 63.7048 44.3176 64.0777 44.4526 64.4162C44.5899 64.7547 44.79 65.0258 45.0527 65.2294C45.3155 65.433 45.6363 65.5348 46.0151 65.5348Z" fill="#333333"/>
</svg>
