<svg width="104" height="104" viewBox="0 0 104 104" fill="none" xmlns="http://www.w3.org/2000/svg">
<path d="M10.6829 82.4038C10.9746 81.3299 10.3298 79.8367 9.71436 78.7603C9.52273 78.4393 9.31486 78.1283 9.09157 77.8286C3.81324 69.8237 0.999905 60.4459 1.00024 50.8574C0.914424 23.3346 23.7369 1 51.9584 1C76.5708 1 97.1154 18.0507 101.916 40.6844C102.636 44.0401 102.999 47.4623 103 50.8942C103 78.4563 81.0578 101.141 52.8362 101.141C48.3492 101.141 42.293 100.014 38.9902 99.0892C35.6875 98.1648 32.3897 96.9388 31.5389 96.6103C30.6687 96.2758 29.7446 96.1038 28.8123 96.1027C27.7941 96.0989 26.7856 96.3016 25.848 96.6986L9.21662 102.701C8.85226 102.858 8.46618 102.959 8.07157 103C7.76017 102.999 7.45205 102.936 7.16506 102.815C6.87807 102.695 6.61792 102.518 6.39967 102.296C6.18142 102.074 6.00942 101.811 5.89362 101.521C5.77783 101.232 5.72054 100.923 5.72509 100.612C5.74554 100.338 5.79485 100.068 5.8722 99.8051L10.6829 82.4038Z" stroke="#CFCFDD" stroke-miterlimit="10" stroke-linecap="round"/>
<path d="M39.2827 17.1136C38.8116 17.1136 38.3949 16.9941 38.0327 16.755C37.6728 16.5159 37.3911 16.1856 37.1875 15.7642C36.9839 15.3404 36.8821 14.8516 36.8821 14.2976C36.8821 13.7389 36.9839 13.2476 37.1875 12.8239C37.3911 12.3977 37.6728 12.0663 38.0327 11.8295C38.3949 11.5904 38.8116 11.4709 39.2827 11.4709C39.7538 11.4709 40.1693 11.5904 40.5291 11.8295C40.889 12.0687 41.1707 12.4001 41.3743 12.8239C41.5803 13.2476 41.6832 13.7389 41.6832 14.2976C41.6832 14.8516 41.5814 15.3404 41.3778 15.7642C41.1742 16.1856 40.8913 16.5159 40.5291 16.755C40.1693 16.9941 39.7538 17.1136 39.2827 17.1136ZM39.2827 16.5348C39.6615 16.5348 39.9822 16.433 40.245 16.2294C40.5078 16.0258 40.7067 15.7547 40.8416 15.4162C40.9789 15.0777 41.0476 14.7048 41.0476 14.2976C41.0476 13.8904 40.9789 13.5163 40.8416 13.1754C40.7067 12.8345 40.5078 12.5611 40.245 12.3551C39.9822 12.1491 39.6615 12.0462 39.2827 12.0462C38.9063 12.0462 38.5855 12.1491 38.3203 12.3551C38.0575 12.5611 37.8575 12.8345 37.7202 13.1754C37.5852 13.5163 37.5178 13.8904 37.5178 14.2976C37.5178 14.7048 37.5852 15.0777 37.7202 15.4162C37.8575 15.7547 38.0575 16.0258 38.3203 16.2294C38.5831 16.433 38.9039 16.5348 39.2827 16.5348ZM43.7029 13.5909V17H43.0708V11.5455H43.6852V12.4013H43.742C43.8699 12.1219 44.0687 11.8982 44.3386 11.7301C44.6109 11.5597 44.947 11.4744 45.3471 11.4744C45.7141 11.4744 46.036 11.5514 46.313 11.7053C46.5924 11.8568 46.809 12.0805 46.9629 12.3764C47.1191 12.6723 47.1973 13.0357 47.1973 13.4666V17H46.5652V13.5057C46.5652 13.0582 46.4397 12.7043 46.1887 12.4439C45.9402 12.1835 45.6064 12.0533 45.1873 12.0533C44.9009 12.0533 44.6464 12.1148 44.4238 12.2379C44.2013 12.361 44.0249 12.5386 43.8947 12.7706C43.7669 13.0002 43.7029 13.2737 43.7029 13.5909ZM51.8058 17V9.72727H52.4414V12.5859H52.4982C52.5692 12.4226 52.671 12.2545 52.8036 12.0817C52.9386 11.9089 53.1149 11.7644 53.3327 11.6484C53.5529 11.5301 53.8299 11.4709 54.1637 11.4709C54.6112 11.4709 55.0041 11.5893 55.3427 11.826C55.6812 12.0604 55.9452 12.3894 56.1346 12.8132C56.324 13.2346 56.4187 13.7259 56.4187 14.2869C56.4187 14.8504 56.324 15.344 56.1346 15.7678C55.9476 16.1915 55.6848 16.5218 55.3462 16.7585C55.0101 16.9953 54.6194 17.1136 54.1744 17.1136C53.8429 17.1136 53.5659 17.0545 53.3434 16.9361C53.1232 16.8177 52.9457 16.6721 52.8107 16.4993C52.6758 16.3241 52.5716 16.1536 52.4982 15.9879H52.4201V17H51.8058ZM52.4308 14.2763C52.4308 14.7166 52.4959 15.1072 52.6261 15.4482C52.7586 15.7867 52.948 16.053 53.1942 16.2472C53.4428 16.4389 53.7435 16.5348 54.0962 16.5348C54.4585 16.5348 54.765 16.4354 55.016 16.2365C55.2669 16.0353 55.4575 15.7642 55.5877 15.4233C55.7179 15.0824 55.783 14.7 55.783 14.2763C55.783 13.8572 55.7179 13.4796 55.5877 13.1435C55.4599 12.8073 55.2705 12.541 55.0195 12.3445C54.7686 12.1456 54.4608 12.0462 54.0962 12.0462C53.7411 12.0462 53.4393 12.142 53.1907 12.3338C52.9445 12.5232 52.7563 12.786 52.6261 13.1222C52.4959 13.456 52.4308 13.8407 52.4308 14.2763ZM59.3306 17.1243C59.0015 17.1243 58.7009 17.0604 58.4286 16.9325C58.1564 16.8023 57.9397 16.6153 57.7788 16.3714C57.6178 16.1252 57.5373 15.8269 57.5373 15.4766C57.5373 15.2067 57.5882 14.9794 57.69 14.7947C57.7918 14.6101 57.9362 14.4586 58.1232 14.3402C58.3103 14.2218 58.5316 14.1283 58.7873 14.0597C59.043 13.991 59.3247 13.9377 59.6325 13.8999C59.9379 13.862 60.1959 13.8288 60.4066 13.8004C60.6197 13.772 60.7818 13.727 60.8931 13.6655C61.0044 13.6039 61.06 13.5045 61.06 13.3672V13.2393C61.06 12.8677 60.9487 12.5753 60.7262 12.3622C60.506 12.1468 60.1888 12.0391 59.7745 12.0391C59.3815 12.0391 59.0607 12.1255 58.8121 12.2983C58.5659 12.4711 58.3931 12.6747 58.2937 12.9091L57.6935 12.6925C57.8166 12.3942 57.9871 12.1562 58.2049 11.9787C58.4227 11.7988 58.6665 11.6697 58.9364 11.5916C59.2063 11.5111 59.4798 11.4709 59.7567 11.4709C59.9651 11.4709 60.1817 11.4981 60.4066 11.5526C60.6339 11.607 60.8446 11.7017 61.0387 11.8366C61.2328 11.9692 61.3903 12.1551 61.511 12.3942C61.6317 12.6309 61.6921 12.9316 61.6921 13.2962V17H61.06V16.1371H61.021C60.9452 16.2981 60.8327 16.4543 60.6836 16.6058C60.5344 16.7573 60.3474 16.8816 60.1225 16.9787C59.8976 17.0758 59.6336 17.1243 59.3306 17.1243ZM59.4158 16.5455C59.752 16.5455 60.0432 16.4709 60.2894 16.3217C60.5356 16.1726 60.725 15.9749 60.8576 15.7287C60.9925 15.4801 61.06 15.2067 61.06 14.9084V14.12C61.0127 14.165 60.9334 14.2053 60.8221 14.2408C60.7132 14.2763 60.5865 14.3082 60.4421 14.3366C60.3001 14.3627 60.158 14.3852 60.016 14.4041C59.8739 14.4231 59.7461 14.4396 59.6325 14.4538C59.3247 14.4917 59.0619 14.5509 58.8441 14.6314C58.6263 14.7119 58.4594 14.8232 58.3434 14.9652C58.2274 15.1049 58.1694 15.2848 58.1694 15.505C58.1694 15.8364 58.2878 16.0933 58.5245 16.2756C58.7612 16.4555 59.0584 16.5455 59.4158 16.5455ZM65.3374 17.1136C64.8899 17.1136 64.4981 16.9953 64.1619 16.7585C63.8258 16.5218 63.563 16.1915 63.3736 15.7678C63.1866 15.344 63.093 14.8504 63.093 14.2869C63.093 13.7259 63.1866 13.2346 63.3736 12.8132C63.563 12.3894 63.8269 12.0604 64.1655 11.826C64.504 11.5893 64.8982 11.4709 65.348 11.4709C65.6795 11.4709 65.9553 11.5301 66.1754 11.6484C66.3956 11.7644 66.572 11.9089 66.7045 12.0817C66.8371 12.2545 66.9401 12.4226 67.0135 12.5859H67.0703V9.72727H67.706V17H67.0881V15.9879H67.0135C66.9401 16.1536 66.8359 16.3241 66.701 16.4993C66.5661 16.6721 66.3873 16.8177 66.1648 16.9361C65.9446 17.0545 65.6688 17.1136 65.3374 17.1136ZM65.4119 16.5348C65.7647 16.5348 66.0653 16.4389 66.3139 16.2472C66.5625 16.053 66.7519 15.7867 66.8821 15.4482C67.0147 15.1072 67.081 14.7166 67.081 14.2763C67.081 13.8407 67.0159 13.456 66.8857 13.1222C66.7554 12.786 66.5661 12.5232 66.3175 12.3338C66.0689 12.142 65.767 12.0462 65.4119 12.0462C65.0473 12.0462 64.7396 12.1456 64.4886 12.3445C64.2401 12.541 64.0507 12.8073 63.9205 13.1435C63.7926 13.4796 63.7287 13.8572 63.7287 14.2763C63.7287 14.7 63.7938 15.0824 63.924 15.4233C64.0542 15.7642 64.2436 16.0353 64.4922 16.2365C64.7431 16.4354 65.0497 16.5348 65.4119 16.5348ZM20.0142 29L18.3665 23.5455H19.0341L20.3267 28.0447H20.3729L21.6619 23.5455H22.3331L23.6115 28.0341H23.6612L24.9538 23.5455H25.6214L23.9737 29H23.3203L22.0277 24.5291H21.9602L20.6676 29H20.0142ZM27.4822 25.5909V29H26.8501V21.7273H27.4822V24.4013H27.5391C27.6669 24.1196 27.8646 23.8946 28.1321 23.7266C28.402 23.5585 28.7429 23.4744 29.1548 23.4744C29.5241 23.4744 29.8485 23.5502 30.1278 23.7017C30.4072 23.8532 30.625 24.0769 30.7812 24.3729C30.9375 24.6688 31.0156 25.0334 31.0156 25.4666V29H30.38V25.5057C30.38 25.0559 30.2545 24.7019 30.0036 24.4439C29.755 24.1835 29.4188 24.0533 28.995 24.0533C28.7038 24.0533 28.4446 24.1148 28.2173 24.2379C27.9901 24.361 27.8101 24.5386 27.6776 24.7706C27.5473 25.0002 27.4822 25.2737 27.4822 25.5909ZM34.8855 29.1136C34.3765 29.1136 33.9361 28.9953 33.5645 28.7585C33.1928 28.5194 32.9051 28.1892 32.7015 27.7678C32.5003 27.344 32.3997 26.8563 32.3997 26.3047C32.3997 25.7554 32.5003 25.2678 32.7015 24.8416C32.9051 24.4131 33.1857 24.0781 33.5431 23.8366C33.903 23.5928 34.3185 23.4709 34.7896 23.4709C35.0855 23.4709 35.3708 23.5253 35.6454 23.6342C35.92 23.7408 36.1663 23.9053 36.3841 24.1278C36.6042 24.348 36.7782 24.6262 36.9061 24.9624C37.0339 25.2962 37.0978 25.6915 37.0978 26.1484V26.4609H32.8365V25.9034H36.4515C36.4515 25.553 36.3805 25.2382 36.2385 24.9588C36.0988 24.6771 35.9035 24.4545 35.6525 24.2912C35.4039 24.1278 35.1163 24.0462 34.7896 24.0462C34.444 24.0462 34.1397 24.1385 33.877 24.3232C33.6142 24.5078 33.4082 24.7517 33.2591 25.0547C33.1123 25.3577 33.0377 25.6892 33.0353 26.049V26.3828C33.0353 26.8161 33.1099 27.1948 33.2591 27.5192C33.4106 27.8411 33.6248 28.0909 33.9018 28.2685C34.1788 28.446 34.5067 28.5348 34.8855 28.5348C35.1435 28.5348 35.3696 28.4946 35.5637 28.4141C35.7602 28.3336 35.9248 28.2259 36.0574 28.0909C36.1923 27.9536 36.2941 27.8033 36.3627 27.6399L36.9629 27.8352C36.88 28.0649 36.7439 28.2768 36.5545 28.4709C36.3675 28.665 36.1331 28.8213 35.8514 28.9396C35.572 29.0556 35.2501 29.1136 34.8855 29.1136ZM40.0142 29.1243C39.6851 29.1243 39.3845 29.0604 39.1122 28.9325C38.84 28.8023 38.6233 28.6153 38.4624 28.3714C38.3014 28.1252 38.2209 27.8269 38.2209 27.4766C38.2209 27.2067 38.2718 26.9794 38.3736 26.7947C38.4754 26.6101 38.6198 26.4586 38.8068 26.3402C38.9938 26.2218 39.2152 26.1283 39.4709 26.0597C39.7266 25.991 40.0083 25.9377 40.3161 25.8999C40.6214 25.862 40.8795 25.8288 41.0902 25.8004C41.3033 25.772 41.4654 25.727 41.5767 25.6655C41.688 25.6039 41.7436 25.5045 41.7436 25.3672V25.2393C41.7436 24.8677 41.6323 24.5753 41.4098 24.3622C41.1896 24.1468 40.8724 24.0391 40.4581 24.0391C40.0651 24.0391 39.7443 24.1255 39.4957 24.2983C39.2495 24.4711 39.0767 24.6747 38.9773 24.9091L38.3771 24.6925C38.5002 24.3942 38.6707 24.1562 38.8885 23.9787C39.1063 23.7988 39.3501 23.6697 39.62 23.5916C39.8899 23.5111 40.1634 23.4709 40.4403 23.4709C40.6487 23.4709 40.8653 23.4981 41.0902 23.5526C41.3175 23.607 41.5282 23.7017 41.7223 23.8366C41.9164 23.9692 42.0739 24.1551 42.1946 24.3942C42.3153 24.6309 42.3757 24.9316 42.3757 25.2962V29H41.7436V28.1371H41.7045C41.6288 28.2981 41.5163 28.4543 41.3672 28.6058C41.218 28.7573 41.031 28.8816 40.8061 28.9787C40.5812 29.0758 40.3172 29.1243 40.0142 29.1243ZM40.0994 28.5455C40.4356 28.5455 40.7268 28.4709 40.973 28.3217C41.2192 28.1726 41.4086 27.9749 41.5412 27.7287C41.6761 27.4801 41.7436 27.2067 41.7436 26.9084V26.12C41.6963 26.165 41.617 26.2053 41.5057 26.2408C41.3968 26.2763 41.2701 26.3082 41.1257 26.3366C40.9837 26.3627 40.8416 26.3852 40.6996 26.4041C40.5575 26.4231 40.4297 26.4396 40.3161 26.4538C40.0083 26.4917 39.7455 26.5509 39.5277 26.6314C39.3099 26.7119 39.143 26.8232 39.027 26.9652C38.911 27.1049 38.853 27.2848 38.853 27.505C38.853 27.8364 38.9714 28.0933 39.2081 28.2756C39.4448 28.4555 39.742 28.5455 40.0994 28.5455ZM46.2056 23.5455V24.0959H43.6026V23.5455H46.2056ZM44.4158 22.2386H45.0515V27.576C45.0515 27.8033 45.0906 27.982 45.1687 28.1122C45.2468 28.2401 45.3486 28.3312 45.4741 28.3857C45.5996 28.4377 45.7333 28.4638 45.8754 28.4638C45.9582 28.4638 46.0292 28.459 46.0884 28.4496C46.1476 28.4377 46.1997 28.4259 46.2447 28.4141L46.3796 28.9858C46.3181 29.0095 46.2423 29.0308 46.1523 29.0497C46.0624 29.071 45.9511 29.0817 45.8185 29.0817C45.5865 29.0817 45.3628 29.0308 45.1474 28.929C44.9343 28.8272 44.7591 28.6757 44.6218 28.4744C44.4845 28.2732 44.4158 28.0234 44.4158 27.7251V22.2386ZM48.3904 25.5909V29H47.7583V21.7273H48.3904V24.4013H48.4473C48.5751 24.1196 48.7728 23.8946 49.0403 23.7266C49.3102 23.5585 49.6511 23.4744 50.063 23.4744C50.4324 23.4744 50.7567 23.5502 51.036 23.7017C51.3154 23.8532 51.5332 24.0769 51.6895 24.3729C51.8457 24.6688 51.9238 25.0334 51.9238 25.4666V29H51.2882V25.5057C51.2882 25.0559 51.1627 24.7019 50.9118 24.4439C50.6632 24.1835 50.327 24.0533 49.9032 24.0533C49.612 24.0533 49.3528 24.1148 49.1255 24.2379C48.8983 24.361 48.7183 24.5386 48.5858 24.7706C48.4556 25.0002 48.3904 25.2737 48.3904 25.5909ZM55.7937 29.1136C55.2847 29.1136 54.8443 28.9953 54.4727 28.7585C54.101 28.5194 53.8133 28.1892 53.6097 27.7678C53.4085 27.344 53.3079 26.8563 53.3079 26.3047C53.3079 25.7554 53.4085 25.2678 53.6097 24.8416C53.8133 24.4131 54.0939 24.0781 54.4513 23.8366C54.8112 23.5928 55.2267 23.4709 55.6978 23.4709C55.9937 23.4709 56.279 23.5253 56.5536 23.6342C56.8282 23.7408 57.0745 23.9053 57.2923 24.1278C57.5124 24.348 57.6864 24.6262 57.8143 24.9624C57.9421 25.2962 58.006 25.6915 58.006 26.1484V26.4609H53.7447V25.9034H57.3597C57.3597 25.553 57.2887 25.2382 57.1467 24.9588C57.007 24.6771 56.8117 24.4545 56.5607 24.2912C56.3121 24.1278 56.0245 24.0462 55.6978 24.0462C55.3522 24.0462 55.0479 24.1385 54.7852 24.3232C54.5224 24.5078 54.3164 24.7517 54.1673 25.0547C54.0205 25.3577 53.9459 25.6892 53.9435 26.049V26.3828C53.9435 26.8161 54.0181 27.1948 54.1673 27.5192C54.3188 27.8411 54.533 28.0909 54.81 28.2685C55.087 28.446 55.4149 28.5348 55.7937 28.5348C56.0517 28.5348 56.2778 28.4946 56.4719 28.4141C56.6684 28.3336 56.833 28.2259 56.9656 28.0909C57.1005 27.9536 57.2023 27.8033 57.271 27.6399L57.8711 27.8352C57.7882 28.0649 57.6521 28.2768 57.4627 28.4709C57.2757 28.665 57.0413 28.8213 56.7596 28.9396C56.4802 29.0556 56.1583 29.1136 55.7937 29.1136ZM59.399 29V23.5455H60.0133V24.3835H60.0595C60.1684 24.1089 60.3578 23.8875 60.6277 23.7195C60.8999 23.549 61.2077 23.4638 61.551 23.4638C61.603 23.4638 61.661 23.465 61.725 23.4673C61.7889 23.4697 61.8422 23.4721 61.8848 23.4744V24.1172C61.8564 24.1125 61.8066 24.1054 61.7356 24.0959C61.6646 24.0864 61.5877 24.0817 61.5048 24.0817C61.2207 24.0817 60.9674 24.142 60.7449 24.2628C60.5247 24.3812 60.3507 24.5457 60.2228 24.7564C60.095 24.9671 60.0311 25.2074 60.0311 25.4773V29H59.399ZM67.7397 29.1136C67.2923 29.1136 66.9004 28.9953 66.5643 28.7585C66.2281 28.5218 65.9653 28.1915 65.7759 27.7678C65.5889 27.344 65.4954 26.8504 65.4954 26.2869C65.4954 25.7259 65.5889 25.2346 65.7759 24.8132C65.9653 24.3894 66.2293 24.0604 66.5678 23.826C66.9064 23.5893 67.3005 23.4709 67.7504 23.4709C68.0818 23.4709 68.3576 23.5301 68.5778 23.6484C68.7979 23.7644 68.9743 23.9089 69.1069 24.0817C69.2395 24.2545 69.3424 24.4226 69.4158 24.5859H69.4727V21.7273H70.1083V29H69.4904V27.9879H69.4158C69.3424 28.1536 69.2383 28.3241 69.1033 28.4993C68.9684 28.6721 68.7897 28.8177 68.5671 28.9361C68.3469 29.0545 68.0711 29.1136 67.7397 29.1136ZM67.8143 28.5348C68.167 28.5348 68.4677 28.4389 68.7163 28.2472C68.9648 28.053 69.1542 27.7867 69.2844 27.4482C69.417 27.1072 69.4833 26.7166 69.4833 26.2763C69.4833 25.8407 69.4182 25.456 69.288 25.1222C69.1578 24.786 68.9684 24.5232 68.7198 24.3338C68.4712 24.142 68.1694 24.0462 67.8143 24.0462C67.4497 24.0462 67.1419 24.1456 66.891 24.3445C66.6424 24.541 66.453 24.8073 66.3228 25.1435C66.195 25.4796 66.131 25.8572 66.131 26.2763C66.131 26.7 66.1961 27.0824 66.3263 27.4233C66.4566 27.7642 66.646 28.0353 66.8945 28.2365C67.1455 28.4354 67.4521 28.5348 67.8143 28.5348ZM73.4322 29.1243C73.1031 29.1243 72.8024 29.0604 72.5302 28.9325C72.2579 28.8023 72.0413 28.6153 71.8803 28.3714C71.7193 28.1252 71.6388 27.8269 71.6388 27.4766C71.6388 27.2067 71.6897 26.9794 71.7915 26.7947C71.8933 26.6101 72.0378 26.4586 72.2248 26.3402C72.4118 26.2218 72.6332 26.1283 72.8888 26.0597C73.1445 25.991 73.4263 25.9377 73.734 25.8999C74.0394 25.862 74.2975 25.8288 74.5082 25.8004C74.7212 25.772 74.8834 25.727 74.9947 25.6655C75.1059 25.6039 75.1616 25.5045 75.1616 25.3672V25.2393C75.1616 24.8677 75.0503 24.5753 74.8278 24.3622C74.6076 24.1468 74.2904 24.0391 73.8761 24.0391C73.4831 24.0391 73.1623 24.1255 72.9137 24.2983C72.6675 24.4711 72.4947 24.6747 72.3952 24.9091L71.7951 24.6925C71.9182 24.3942 72.0887 24.1562 72.3065 23.9787C72.5243 23.7988 72.7681 23.6697 73.038 23.5916C73.3079 23.5111 73.5813 23.4709 73.8583 23.4709C74.0666 23.4709 74.2833 23.4981 74.5082 23.5526C74.7354 23.607 74.9461 23.7017 75.1403 23.8366C75.3344 23.9692 75.4918 24.1551 75.6126 24.3942C75.7333 24.6309 75.7937 24.9316 75.7937 25.2962V29H75.1616V28.1371H75.1225C75.0468 28.2981 74.9343 28.4543 74.7852 28.6058C74.636 28.7573 74.449 28.8816 74.2241 28.9787C73.9992 29.0758 73.7352 29.1243 73.4322 29.1243ZM73.5174 28.5455C73.8536 28.5455 74.1448 28.4709 74.391 28.3217C74.6372 28.1726 74.8266 27.9749 74.9592 27.7287C75.0941 27.4801 75.1616 27.2067 75.1616 26.9084V26.12C75.1142 26.165 75.0349 26.2053 74.9237 26.2408C74.8147 26.2763 74.6881 26.3082 74.5437 26.3366C74.4016 26.3627 74.2596 26.3852 74.1175 26.4041C73.9755 26.4231 73.8477 26.4396 73.734 26.4538C73.4263 26.4917 73.1635 26.5509 72.9457 26.6314C72.7279 26.7119 72.561 26.8232 72.445 26.9652C72.329 27.1049 72.271 27.2848 72.271 27.505C72.271 27.8364 72.3893 28.0933 72.6261 28.2756C72.8628 28.4555 73.1599 28.5455 73.5174 28.5455ZM77.7202 31.0455C77.5947 31.0455 77.4775 31.0336 77.3686 31.0099C77.2597 30.9863 77.1733 30.9602 77.1094 30.9318L77.2798 30.3743C77.4953 30.4406 77.687 30.4643 77.8551 30.4453C78.0232 30.4287 78.1723 30.353 78.3026 30.218C78.4328 30.0855 78.5488 29.8819 78.6506 29.6072L78.8494 29.0533L76.843 23.5455H77.5284L79.1477 28.1655H79.1974L80.8168 23.5455H81.5021L79.1939 29.8629C79.0968 30.1257 78.9773 30.3447 78.8352 30.5199C78.6932 30.6974 78.5286 30.8288 78.3416 30.9141C78.157 31.0017 77.9498 31.0455 77.7202 31.0455ZM86.4036 24.7422L85.8248 24.9055C85.7679 24.7422 85.6874 24.5942 85.5833 24.4616C85.4791 24.3291 85.343 24.2237 85.1749 24.1456C85.0092 24.0675 84.8032 24.0284 84.557 24.0284C84.1877 24.0284 83.8846 24.116 83.6479 24.2912C83.4112 24.4664 83.2928 24.6925 83.2928 24.9695C83.2928 25.2038 83.3733 25.3944 83.5343 25.5412C83.6976 25.6856 83.9486 25.8004 84.2871 25.8857L85.111 26.0881C85.5679 26.1993 85.91 26.3757 86.1373 26.6172C86.3669 26.8587 86.4817 27.1617 86.4817 27.5263C86.4817 27.834 86.3965 28.1075 86.226 28.3466C86.0556 28.5857 85.8176 28.7739 85.5123 28.9112C85.2092 29.0462 84.8577 29.1136 84.4576 29.1136C83.9249 29.1136 83.4857 28.9941 83.1401 28.755C82.7944 28.5135 82.5731 28.1655 82.476 27.7109L83.0833 27.5618C83.1614 27.8861 83.3141 28.1312 83.5414 28.2969C83.771 28.4626 84.0729 28.5455 84.4469 28.5455C84.8659 28.5455 85.2009 28.4519 85.4519 28.2649C85.7028 28.0755 85.8283 27.8388 85.8283 27.5547C85.8283 27.3345 85.7549 27.1499 85.6081 27.0007C85.4614 26.8492 85.2388 26.7379 84.9405 26.6669L84.0492 26.4538C83.5757 26.3402 83.2253 26.1603 82.998 25.9141C82.7708 25.6679 82.6571 25.3625 82.6571 24.9979C82.6571 24.6972 82.7388 24.4332 82.9022 24.206C83.0655 23.9763 83.2904 23.7964 83.5769 23.6662C83.8633 23.536 84.19 23.4709 84.557 23.4709C85.0565 23.4709 85.4554 23.5845 85.7537 23.8118C86.0544 24.0367 86.271 24.3468 86.4036 24.7422ZM36.0494 35.5455V36.0959H33.4464V35.5455H36.0494ZM34.2596 34.2386H34.8952V39.576C34.8952 39.8033 34.9343 39.982 35.0124 40.1122C35.0906 40.2401 35.1924 40.3312 35.3178 40.3857C35.4433 40.4377 35.5771 40.4638 35.7191 40.4638C35.802 40.4638 35.873 40.459 35.9322 40.4496C35.9914 40.4377 36.0434 40.4259 36.0884 40.4141L36.2234 40.9858C36.1618 41.0095 36.0861 41.0308 35.9961 41.0497C35.9061 41.071 35.7949 41.0817 35.6623 41.0817C35.4303 41.0817 35.2066 41.0308 34.9911 40.929C34.7781 40.8272 34.6029 40.6757 34.4656 40.4744C34.3282 40.2732 34.2596 40.0234 34.2596 39.7251V34.2386ZM38.2342 37.5909V41H37.6021V33.7273H38.2342V36.4013H38.291C38.4189 36.1196 38.6165 35.8946 38.8841 35.7266C39.1539 35.5585 39.4949 35.4744 39.9068 35.4744C40.2761 35.4744 40.6004 35.5502 40.8798 35.7017C41.1592 35.8532 41.377 36.0769 41.5332 36.3729C41.6895 36.6688 41.7676 37.0334 41.7676 37.4666V41H41.1319V37.5057C41.1319 37.0559 41.0065 36.7019 40.7555 36.4439C40.5069 36.1835 40.1708 36.0533 39.747 36.0533C39.4558 36.0533 39.1966 36.1148 38.9693 36.2379C38.742 36.361 38.5621 36.5386 38.4295 36.7706C38.2993 37.0002 38.2342 37.2737 38.2342 37.5909ZM45.6374 41.1136C45.1284 41.1136 44.6881 40.9953 44.3164 40.7585C43.9447 40.5194 43.6571 40.1892 43.4535 39.7678C43.2522 39.344 43.1516 38.8563 43.1516 38.3047C43.1516 37.7554 43.2522 37.2678 43.4535 36.8416C43.6571 36.4131 43.9376 36.0781 44.2951 35.8366C44.6549 35.5928 45.0704 35.4709 45.5415 35.4709C45.8375 35.4709 46.1228 35.5253 46.3974 35.6342C46.672 35.7408 46.9182 35.9053 47.136 36.1278C47.3562 36.348 47.5302 36.6262 47.658 36.9624C47.7859 37.2962 47.8498 37.6915 47.8498 38.1484V38.4609H43.5884V37.9034H47.2035C47.2035 37.553 47.1325 37.2382 46.9904 36.9588C46.8507 36.6771 46.6554 36.4545 46.4045 36.2912C46.1559 36.1278 45.8683 36.0462 45.5415 36.0462C45.1959 36.0462 44.8917 36.1385 44.6289 36.3232C44.3661 36.5078 44.1602 36.7517 44.011 37.0547C43.8642 37.3577 43.7897 37.6892 43.7873 38.049V38.3828C43.7873 38.8161 43.8619 39.1948 44.011 39.5192C44.1625 39.8411 44.3768 40.0909 44.6538 40.2685C44.9308 40.446 45.2586 40.5348 45.6374 40.5348C45.8955 40.5348 46.1216 40.4946 46.3157 40.4141C46.5122 40.3336 46.6767 40.2259 46.8093 40.0909C46.9442 39.9536 47.046 39.8033 47.1147 39.6399L47.7148 39.8352C47.632 40.0649 47.4959 40.2768 47.3065 40.4709C47.1194 40.665 46.8851 40.8213 46.6033 40.9396C46.324 41.0556 46.002 41.1136 45.6374 41.1136ZM53.2662 41L51.6184 35.5455H52.286L53.5787 40.0447H53.6248L54.9139 35.5455H55.585L56.8635 40.0341H56.9132L58.2058 35.5455H58.8734L57.2257 41H56.5723L55.2797 36.5291H55.2122L53.9196 41H53.2662ZM60.1092 41V35.5455H60.7449V41H60.1092ZM60.4324 34.608C60.3021 34.608 60.1909 34.5642 60.0985 34.4766C60.0062 34.3866 59.96 34.2789 59.96 34.1534C59.96 34.0279 60.0062 33.9214 60.0985 33.8338C60.1909 33.7438 60.3021 33.6989 60.4324 33.6989C60.5626 33.6989 60.6738 33.7438 60.7662 33.8338C60.8585 33.9214 60.9047 34.0279 60.9047 34.1534C60.9047 34.2789 60.8585 34.3866 60.7662 34.4766C60.6738 34.5642 60.5626 34.608 60.4324 34.608ZM65.3604 37.5838V38.1804H62.3349V37.5838H65.3604ZM69.1921 35.5455V36.0959H66.511V35.5455H69.1921ZM67.3491 41V34.7464C67.3491 34.4529 67.4165 34.2055 67.5515 34.0043C67.6888 33.803 67.8675 33.6503 68.0877 33.5462C68.3079 33.442 68.5411 33.3899 68.7873 33.3899C68.953 33.3899 69.0903 33.4041 69.1992 33.4325C69.3105 33.4586 69.3981 33.4846 69.462 33.5107L69.2773 34.0646C69.23 34.0504 69.172 34.0339 69.1033 34.0149C69.0347 33.996 68.9483 33.9865 68.8441 33.9865C68.5695 33.9865 68.3576 34.0634 68.2085 34.2173C68.0593 34.3712 67.9847 34.5914 67.9847 34.8778L67.9812 41H67.3491ZM70.4608 41V35.5455H71.0964V41H70.4608ZM70.7839 34.608C70.6537 34.608 70.5424 34.5642 70.4501 34.4766C70.3578 34.3866 70.3116 34.2789 70.3116 34.1534C70.3116 34.0279 70.3578 33.9214 70.4501 33.8338C70.5424 33.7438 70.6537 33.6989 70.7839 33.6989C70.9141 33.6989 71.0254 33.7438 71.1177 33.8338C71.21 33.9214 71.2562 34.0279 71.2562 34.1534C71.2562 34.2789 71.21 34.3866 71.1177 34.4766C71.0254 34.5642 70.9141 34.608 70.7839 34.608ZM17.9461 49.5909V53H17.314V47.5455H17.9284V48.4013H17.9852C18.113 48.1219 18.3119 47.8982 18.5818 47.7301C18.854 47.5597 19.1902 47.4744 19.5903 47.4744C19.9572 47.4744 20.2792 47.5514 20.5562 47.7053C20.8356 47.8568 21.0522 48.0805 21.2061 48.3764C21.3623 48.6723 21.4404 49.0357 21.4404 49.4666V53H20.8083V49.5057C20.8083 49.0582 20.6829 48.7043 20.4319 48.4439C20.1833 48.1835 19.8495 48.0533 19.4305 48.0533C19.144 48.0533 18.8895 48.1148 18.667 48.2379C18.4445 48.361 18.2681 48.5386 18.1379 48.7706C18.01 49.0002 17.9461 49.2737 17.9461 49.5909ZM25.3103 53.1136C24.8013 53.1136 24.3609 52.9953 23.9893 52.7585C23.6176 52.5194 23.3299 52.1892 23.1263 51.7678C22.9251 51.344 22.8245 50.8563 22.8245 50.3047C22.8245 49.7554 22.9251 49.2678 23.1263 48.8416C23.3299 48.4131 23.6105 48.0781 23.968 47.8366C24.3278 47.5928 24.7433 47.4709 25.2144 47.4709C25.5103 47.4709 25.7956 47.5253 26.0702 47.6342C26.3448 47.7408 26.5911 47.9053 26.8089 48.1278C27.029 48.348 27.203 48.6262 27.3309 48.9624C27.4587 49.2962 27.5226 49.6915 27.5226 50.1484V50.4609H23.2613V49.9034H26.8763C26.8763 49.553 26.8053 49.2382 26.6633 48.9588C26.5236 48.6771 26.3283 48.4545 26.0773 48.2912C25.8287 48.1278 25.5411 48.0462 25.2144 48.0462C24.8688 48.0462 24.5645 48.1385 24.3018 48.3232C24.039 48.5078 23.833 48.7517 23.6839 49.0547C23.5371 49.3577 23.4625 49.6892 23.4601 50.049V50.3828C23.4601 50.8161 23.5347 51.1948 23.6839 51.5192C23.8354 51.8411 24.0496 52.0909 24.3266 52.2685C24.6036 52.446 24.9315 52.5348 25.3103 52.5348C25.5683 52.5348 25.7944 52.4946 25.9885 52.4141C26.185 52.3336 26.3496 52.2259 26.4822 52.0909C26.6171 51.9536 26.7189 51.8033 26.7876 51.6399L27.3877 51.8352C27.3048 52.0649 27.1687 52.2768 26.9793 52.4709C26.7923 52.665 26.5579 52.8213 26.2762 52.9396C25.9968 53.0556 25.6749 53.1136 25.3103 53.1136ZM31.064 47.5455V48.0959H28.461V47.5455H31.064ZM29.2742 46.2386H29.9099V51.576C29.9099 51.8033 29.949 51.982 30.0271 52.1122C30.1052 52.2401 30.207 52.3312 30.3325 52.3857C30.4579 52.4377 30.5917 52.4638 30.7338 52.4638C30.8166 52.4638 30.8876 52.459 30.9468 52.4496C31.006 52.4377 31.0581 52.4259 31.1031 52.4141L31.238 52.9858C31.1765 53.0095 31.1007 53.0308 31.0107 53.0497C30.9208 53.071 30.8095 53.0817 30.6769 53.0817C30.4449 53.0817 30.2212 53.0308 30.0058 52.929C29.7927 52.8272 29.6175 52.6757 29.4802 52.4744C29.3429 52.2732 29.2742 52.0234 29.2742 51.7251V46.2386ZM33.7105 53L32.0628 47.5455H32.7304L34.023 52.0447H34.0692L35.3582 47.5455H36.0294L37.3078 52.0341H37.3575L38.6501 47.5455H39.3177L37.67 53H37.0166L35.724 48.5291H35.6565L34.3639 53H33.7105ZM42.4809 53.1136C42.0098 53.1136 41.5931 52.9941 41.2309 52.755C40.8711 52.5159 40.5893 52.1856 40.3857 51.7642C40.1821 51.3404 40.0803 50.8516 40.0803 50.2976C40.0803 49.7389 40.1821 49.2476 40.3857 48.8239C40.5893 48.3977 40.8711 48.0663 41.2309 47.8295C41.5931 47.5904 42.0098 47.4709 42.4809 47.4709C42.952 47.4709 43.3675 47.5904 43.7274 47.8295C44.0872 48.0687 44.3689 48.4001 44.5725 48.8239C44.7785 49.2476 44.8815 49.7389 44.8815 50.2976C44.8815 50.8516 44.7797 51.3404 44.5761 51.7642C44.3725 52.1856 44.0896 52.5159 43.7274 52.755C43.3675 52.9941 42.952 53.1136 42.4809 53.1136ZM42.4809 52.5348C42.8597 52.5348 43.1805 52.433 43.4433 52.2294C43.7061 52.0258 43.9049 51.7547 44.0399 51.4162C44.1772 51.0777 44.2458 50.7048 44.2458 50.2976C44.2458 49.8904 44.1772 49.5163 44.0399 49.1754C43.9049 48.8345 43.7061 48.5611 43.4433 48.3551C43.1805 48.1491 42.8597 48.0462 42.4809 48.0462C42.1045 48.0462 41.7837 48.1491 41.5186 48.3551C41.2558 48.5611 41.0557 48.8345 40.9184 49.1754C40.7835 49.5163 40.716 49.8904 40.716 50.2976C40.716 50.7048 40.7835 51.0777 40.9184 51.4162C41.0557 51.7547 41.2558 52.0258 41.5186 52.2294C41.7813 52.433 42.1021 52.5348 42.4809 52.5348ZM46.2691 53V47.5455H46.8834V48.3835H46.9296C47.0385 48.1089 47.2279 47.8875 47.4978 47.7195C47.77 47.549 48.0778 47.4638 48.4211 47.4638C48.4732 47.4638 48.5312 47.465 48.5951 47.4673C48.659 47.4697 48.7123 47.4721 48.7549 47.4744V48.1172C48.7265 48.1125 48.6768 48.1054 48.6057 48.0959C48.5347 48.0864 48.4578 48.0817 48.3749 48.0817C48.0908 48.0817 47.8375 48.142 47.615 48.2628C47.3948 48.3812 47.2208 48.5457 47.093 48.7564C46.9651 48.9671 46.9012 49.2074 46.9012 49.4773V53H46.2691ZM50.4088 50.9403L50.4017 50.1129H50.5438L53.1006 47.5455H53.8996L51.3747 50.0739L51.3179 50.0845L50.4088 50.9403ZM49.8335 53V45.7273H50.4656V53H49.8335ZM53.232 53L51.0161 50.1982L51.4706 49.7614L54.0416 53H53.232ZM57.907 53V47.5455H58.5427V53H57.907ZM58.2302 46.608C58.1 46.608 57.9887 46.5642 57.8964 46.4766C57.8041 46.3866 57.7579 46.2789 57.7579 46.1534C57.7579 46.0279 57.8041 45.9214 57.8964 45.8338C57.9887 45.7438 58.1 45.6989 58.2302 45.6989C58.3604 45.6989 58.4717 45.7438 58.564 45.8338C58.6563 45.9214 58.7025 46.0279 58.7025 46.1534C58.7025 46.2789 58.6563 46.3866 58.564 46.4766C58.4717 46.5642 58.3604 46.608 58.2302 46.608ZM63.8792 48.7422L63.3003 48.9055C63.2435 48.7422 63.163 48.5942 63.0589 48.4616C62.9547 48.3291 62.8186 48.2237 62.6505 48.1456C62.4848 48.0675 62.2788 48.0284 62.0326 48.0284C61.6633 48.0284 61.3602 48.116 61.1235 48.2912C60.8867 48.4664 60.7684 48.6925 60.7684 48.9695C60.7684 49.2038 60.8489 49.3944 61.0099 49.5412C61.1732 49.6856 61.4242 49.8004 61.7627 49.8857L62.5866 50.0881C63.0435 50.1993 63.3856 50.3757 63.6128 50.6172C63.8425 50.8587 63.9573 51.1617 63.9573 51.5263C63.9573 51.834 63.8721 52.1075 63.7016 52.3466C63.5312 52.5857 63.2932 52.7739 62.9878 52.9112C62.6848 53.0462 62.3332 53.1136 61.9331 53.1136C61.4005 53.1136 60.9613 52.9941 60.6157 52.755C60.27 52.5135 60.0487 52.1655 59.9516 51.7109L60.5589 51.5618C60.637 51.8861 60.7897 52.1312 61.017 52.2969C61.2466 52.4626 61.5484 52.5455 61.9225 52.5455C62.3415 52.5455 62.6765 52.4519 62.9275 52.2649C63.1784 52.0755 63.3039 51.8388 63.3039 51.5547C63.3039 51.3345 63.2305 51.1499 63.0837 51.0007C62.9369 50.8492 62.7144 50.7379 62.4161 50.6669L61.5248 50.4538C61.0513 50.3402 60.7009 50.1603 60.4736 49.9141C60.2464 49.6679 60.1327 49.3625 60.1327 48.9979C60.1327 48.6972 60.2144 48.4332 60.3778 48.206C60.5411 47.9763 60.766 47.7964 61.0525 47.6662C61.3389 47.536 61.6656 47.4709 62.0326 47.4709C62.5321 47.4709 62.931 47.5845 63.2293 47.8118C63.53 48.0367 63.7466 48.3468 63.8792 48.7422ZM71.8186 48.7422L71.2398 48.9055C71.183 48.7422 71.1025 48.5942 70.9983 48.4616C70.8941 48.3291 70.758 48.2237 70.5899 48.1456C70.4242 48.0675 70.2182 48.0284 69.972 48.0284C69.6027 48.0284 69.2997 48.116 69.0629 48.2912C68.8262 48.4664 68.7078 48.6925 68.7078 48.9695C68.7078 49.2038 68.7883 49.3944 68.9493 49.5412C69.1127 49.6856 69.3636 49.8004 69.7021 49.8857L70.526 50.0881C70.9829 50.1993 71.325 50.3757 71.5523 50.6172C71.7819 50.8587 71.8968 51.1617 71.8968 51.5263C71.8968 51.834 71.8115 52.1075 71.6411 52.3466C71.4706 52.5857 71.2327 52.7739 70.9273 52.9112C70.6243 53.0462 70.2727 53.1136 69.8726 53.1136C69.3399 53.1136 68.9008 52.9941 68.5551 52.755C68.2095 52.5135 67.9881 52.1655 67.8911 51.7109L68.4983 51.5618C68.5764 51.8861 68.7291 52.1312 68.9564 52.2969C69.1861 52.4626 69.4879 52.5455 69.8619 52.5455C70.281 52.5455 70.616 52.4519 70.8669 52.2649C71.1179 52.0755 71.2433 51.8388 71.2433 51.5547C71.2433 51.3345 71.17 51.1499 71.0232 51.0007C70.8764 50.8492 70.6539 50.7379 70.3556 50.6669L69.4642 50.4538C68.9907 50.3402 68.6404 50.1603 68.4131 49.9141C68.1858 49.6679 68.0722 49.3625 68.0722 48.9979C68.0722 48.6972 68.1539 48.4332 68.3172 48.206C68.4806 47.9763 68.7055 47.7964 68.9919 47.6662C69.2784 47.536 69.6051 47.4709 69.972 47.4709C70.4716 47.4709 70.8705 47.5845 71.1688 47.8118C71.4694 48.0367 71.6861 48.3468 71.8186 48.7422ZM73.9129 45.7273V53H73.2808V45.7273H73.9129ZM77.7055 53.1136C77.2344 53.1136 76.8177 52.9941 76.4555 52.755C76.0957 52.5159 75.814 52.1856 75.6104 51.7642C75.4068 51.3404 75.305 50.8516 75.305 50.2976C75.305 49.7389 75.4068 49.2476 75.6104 48.8239C75.814 48.3977 76.0957 48.0663 76.4555 47.8295C76.8177 47.5904 77.2344 47.4709 77.7055 47.4709C78.1766 47.4709 78.5921 47.5904 78.952 47.8295C79.3118 48.0687 79.5935 48.4001 79.7971 48.8239C80.0031 49.2476 80.1061 49.7389 80.1061 50.2976C80.1061 50.8516 80.0043 51.3404 79.8007 51.7642C79.5971 52.1856 79.3142 52.5159 78.952 52.755C78.5921 52.9941 78.1766 53.1136 77.7055 53.1136ZM77.7055 52.5348C78.0843 52.5348 78.4051 52.433 78.6679 52.2294C78.9307 52.0258 79.1295 51.7547 79.2645 51.4162C79.4018 51.0777 79.4704 50.7048 79.4704 50.2976C79.4704 49.8904 79.4018 49.5163 79.2645 49.1754C79.1295 48.8345 78.9307 48.5611 78.6679 48.3551C78.4051 48.1491 78.0843 48.0462 77.7055 48.0462C77.3291 48.0462 77.0083 48.1491 76.7432 48.3551C76.4804 48.5611 76.2803 48.8345 76.143 49.1754C76.0081 49.5163 75.9406 49.8904 75.9406 50.2976C75.9406 50.7048 76.0081 51.0777 76.143 51.4162C76.2803 51.7547 76.4804 52.0258 76.7432 52.2294C77.0059 52.433 77.3267 52.5348 77.7055 52.5348ZM82.5191 53L80.8714 47.5455H81.539L82.8316 52.0447H82.8778L84.1668 47.5455H84.838L86.1164 52.0341H86.1661L87.4587 47.5455H88.1263L86.4786 53H85.8252L84.5326 48.5291H84.4651L83.1725 53H82.5191ZM24.2085 65.1243C23.8795 65.1243 23.5788 65.0604 23.3066 64.9325C23.0343 64.8023 22.8177 64.6153 22.6567 64.3714C22.4957 64.1252 22.4152 63.8269 22.4152 63.4766C22.4152 63.2067 22.4661 62.9794 22.5679 62.7947C22.6697 62.6101 22.8141 62.4586 23.0012 62.3402C23.1882 62.2218 23.4095 62.1283 23.6652 62.0597C23.9209 61.991 24.2026 61.9377 24.5104 61.8999C24.8158 61.862 25.0738 61.8288 25.2845 61.8004C25.4976 61.772 25.6598 61.727 25.771 61.6655C25.8823 61.6039 25.9379 61.5045 25.9379 61.3672V61.2393C25.9379 60.8677 25.8267 60.5753 25.6041 60.3622C25.384 60.1468 25.0667 60.0391 24.6524 60.0391C24.2594 60.0391 23.9387 60.1255 23.6901 60.2983C23.4439 60.4711 23.271 60.6747 23.1716 60.9091L22.5715 60.6925C22.6946 60.3942 22.865 60.1562 23.0828 59.9787C23.3006 59.7988 23.5445 59.6697 23.8144 59.5916C24.0843 59.5111 24.3577 59.4709 24.6347 59.4709C24.843 59.4709 25.0596 59.4981 25.2845 59.5526C25.5118 59.607 25.7225 59.7017 25.9166 59.8366C26.1108 59.9692 26.2682 60.1551 26.3889 60.3942C26.5097 60.6309 26.57 60.9316 26.57 61.2962V65H25.9379V64.1371H25.8989C25.8231 64.2981 25.7107 64.4543 25.5615 64.6058C25.4124 64.7573 25.2253 64.8816 25.0004 64.9787C24.7755 65.0758 24.5116 65.1243 24.2085 65.1243ZM24.2938 64.5455C24.6299 64.5455 24.9211 64.4709 25.1673 64.3217C25.4136 64.1726 25.603 63.9749 25.7355 63.7287C25.8705 63.4801 25.9379 63.2067 25.9379 62.9084V62.12C25.8906 62.165 25.8113 62.2053 25.7 62.2408C25.5911 62.2763 25.4645 62.3082 25.32 62.3366C25.178 62.3627 25.036 62.3852 24.8939 62.4041C24.7519 62.4231 24.624 62.4396 24.5104 62.4538C24.2026 62.4917 23.9398 62.5509 23.722 62.6314C23.5042 62.7119 23.3373 62.8232 23.2213 62.9652C23.1053 63.1049 23.0473 63.2848 23.0473 63.505C23.0473 63.8364 23.1657 64.0933 23.4024 64.2756C23.6392 64.4555 23.9363 64.5455 24.2938 64.5455ZM28.8836 61.5909V65H28.2515V59.5455H28.8659V60.4013H28.9227C29.0505 60.1219 29.2494 59.8982 29.5193 59.7301C29.7915 59.5597 30.1277 59.4744 30.5278 59.4744C30.8947 59.4744 31.2167 59.5514 31.4937 59.7053C31.7731 59.8568 31.9897 60.0805 32.1436 60.3764C32.2998 60.6723 32.3779 61.0357 32.3779 61.4666V65H31.7458V61.5057C31.7458 61.0582 31.6204 60.7043 31.3694 60.4439C31.1208 60.1835 30.787 60.0533 30.368 60.0533C30.0815 60.0533 29.827 60.1148 29.6045 60.2379C29.382 60.361 29.2056 60.5386 29.0754 60.7706C28.9475 61.0002 28.8836 61.2737 28.8836 61.5909ZM36.0063 65.1136C35.5589 65.1136 35.1671 64.9953 34.8309 64.7585C34.4947 64.5218 34.2319 64.1915 34.0425 63.7678C33.8555 63.344 33.762 62.8504 33.762 62.2869C33.762 61.7259 33.8555 61.2346 34.0425 60.8132C34.2319 60.3894 34.4959 60.0604 34.8344 59.826C35.173 59.5893 35.5671 59.4709 36.017 59.4709C36.3484 59.4709 36.6242 59.5301 36.8444 59.6484C37.0645 59.7644 37.2409 59.9089 37.3735 60.0817C37.5061 60.2545 37.609 60.4226 37.6824 60.5859H37.7393V57.7273H38.3749V65H37.757V63.9879H37.6824C37.609 64.1536 37.5049 64.3241 37.3699 64.4993C37.235 64.6721 37.0563 64.8177 36.8337 64.9361C36.6135 65.0545 36.3377 65.1136 36.0063 65.1136ZM36.0809 64.5348C36.4336 64.5348 36.7343 64.4389 36.9829 64.2472C37.2314 64.053 37.4208 63.7867 37.551 63.4482C37.6836 63.1072 37.7499 62.7166 37.7499 62.2763C37.7499 61.8407 37.6848 61.456 37.5546 61.1222C37.4244 60.786 37.235 60.5232 36.9864 60.3338C36.7378 60.142 36.436 60.0462 36.0809 60.0462C35.7163 60.0462 35.4085 60.1456 35.1576 60.3445C34.909 60.541 34.7196 60.8073 34.5894 61.1435C34.4616 61.4796 34.3976 61.8572 34.3976 62.2763C34.3976 62.7 34.4627 63.0824 34.593 63.4233C34.7232 63.7642 34.9126 64.0353 35.1611 64.2365C35.4121 64.4354 35.7187 64.5348 36.0809 64.5348ZM44.1988 65L42.551 59.5455H43.2187L44.5113 64.0447H44.5574L45.8465 59.5455H46.5177L47.7961 64.0341H47.8458L49.1384 59.5455H49.806L48.1583 65H47.5049L46.2123 60.5291H46.1448L44.8522 65H44.1988ZM53.0544 65.1136C52.5454 65.1136 52.1051 64.9953 51.7334 64.7585C51.3617 64.5194 51.0741 64.1892 50.8705 63.7678C50.6692 63.344 50.5686 62.8563 50.5686 62.3047C50.5686 61.7554 50.6692 61.2678 50.8705 60.8416C51.0741 60.4131 51.3546 60.0781 51.7121 59.8366C52.0719 59.5928 52.4874 59.4709 52.9585 59.4709C53.2545 59.4709 53.5397 59.5253 53.8144 59.6342C54.089 59.7408 54.3352 59.9053 54.553 60.1278C54.7732 60.348 54.9472 60.6262 55.075 60.9624C55.2029 61.2962 55.2668 61.6915 55.2668 62.1484V62.4609H51.0054V61.9034H54.6205C54.6205 61.553 54.5494 61.2382 54.4074 60.9588C54.2677 60.6771 54.0724 60.4545 53.8215 60.2912C53.5729 60.1278 53.2852 60.0462 52.9585 60.0462C52.6129 60.0462 52.3087 60.1385 52.0459 60.3232C51.7831 60.5078 51.5771 60.7517 51.428 61.0547C51.2812 61.3577 51.2066 61.6892 51.2043 62.049V62.3828C51.2043 62.8161 51.2789 63.1948 51.428 63.5192C51.5795 63.8411 51.7938 64.0909 52.0708 64.2685C52.3477 64.446 52.6756 64.5348 53.0544 64.5348C53.3125 64.5348 53.5386 64.4946 53.7327 64.4141C53.9292 64.3336 54.0937 64.2259 54.2263 64.0909C54.3612 63.9536 54.463 63.8033 54.5317 63.6399L55.1318 63.8352C55.049 64.0649 54.9128 64.2768 54.7235 64.4709C54.5364 64.665 54.3021 64.8213 54.0203 64.9396C53.741 65.0556 53.419 65.1136 53.0544 65.1136ZM58.1831 65.1243C57.8541 65.1243 57.5534 65.0604 57.2812 64.9325C57.0089 64.8023 56.7923 64.6153 56.6313 64.3714C56.4703 64.1252 56.3898 63.8269 56.3898 63.4766C56.3898 63.2067 56.4407 62.9794 56.5425 62.7947C56.6443 62.6101 56.7887 62.4586 56.9758 62.3402C57.1628 62.2218 57.3841 62.1283 57.6398 62.0597C57.8955 61.991 58.1772 61.9377 58.485 61.8999C58.7904 61.862 59.0484 61.8288 59.2591 61.8004C59.4722 61.772 59.6344 61.727 59.7456 61.6655C59.8569 61.6039 59.9126 61.5045 59.9126 61.3672V61.2393C59.9126 60.8677 59.8013 60.5753 59.5787 60.3622C59.3586 60.1468 59.0413 60.0391 58.627 60.0391C58.234 60.0391 57.9133 60.1255 57.6647 60.2983C57.4185 60.4711 57.2456 60.6747 57.1462 60.9091L56.5461 60.6925C56.6692 60.3942 56.8396 60.1562 57.0574 59.9787C57.2752 59.7988 57.5191 59.6697 57.789 59.5916C58.0589 59.5111 58.3323 59.4709 58.6093 59.4709C58.8176 59.4709 59.0342 59.4981 59.2591 59.5526C59.4864 59.607 59.6971 59.7017 59.8912 59.8366C60.0854 59.9692 60.2428 60.1551 60.3635 60.3942C60.4843 60.6309 60.5447 60.9316 60.5447 61.2962V65H59.9126V64.1371H59.8735C59.7977 64.2981 59.6853 64.4543 59.5361 64.6058C59.387 64.7573 59.2 64.8816 58.9751 64.9787C58.7501 65.0758 58.4862 65.1243 58.1831 65.1243ZM58.2684 64.5455C58.6046 64.5455 58.8957 64.4709 59.142 64.3217C59.3882 64.1726 59.5776 63.9749 59.7101 63.7287C59.8451 63.4801 59.9126 63.2067 59.9126 62.9084V62.12C59.8652 62.165 59.7859 62.2053 59.6746 62.2408C59.5657 62.2763 59.4391 62.3082 59.2947 62.3366C59.1526 62.3627 59.0106 62.3852 58.8685 62.4041C58.7265 62.4231 58.5986 62.4396 58.485 62.4538C58.1772 62.4917 57.9144 62.5509 57.6966 62.6314C57.4788 62.7119 57.3119 62.8232 57.1959 62.9652C57.0799 63.1049 57.0219 63.2848 57.0219 63.505C57.0219 63.8364 57.1403 64.0933 57.377 64.2756C57.6138 64.4555 57.9109 64.5455 58.2684 64.5455ZM62.8014 62.9403L62.7943 62.1129H62.9363L65.4932 59.5455H66.2922L63.7673 62.0739L63.7105 62.0845L62.8014 62.9403ZM62.2261 65V57.7273H62.8582V65H62.2261ZM65.6246 65L63.4086 62.1982L63.8632 61.7614L66.4342 65H65.6246ZM69.4607 65.1136C68.9517 65.1136 68.5113 64.9953 68.1396 64.7585C67.768 64.5194 67.4803 64.1892 67.2767 63.7678C67.0755 63.344 66.9749 62.8563 66.9749 62.3047C66.9749 61.7554 67.0755 61.2678 67.2767 60.8416C67.4803 60.4131 67.7609 60.0781 68.1183 59.8366C68.4782 59.5928 68.8937 59.4709 69.3648 59.4709C69.6607 59.4709 69.946 59.5253 70.2206 59.6342C70.4952 59.7408 70.7414 59.9053 70.9593 60.1278C71.1794 60.348 71.3534 60.6262 71.4813 60.9624C71.6091 61.2962 71.673 61.6915 71.673 62.1484V62.4609H67.4117V61.9034H71.0267C71.0267 61.553 70.9557 61.2382 70.8137 60.9588C70.674 60.6771 70.4787 60.4545 70.2277 60.2912C69.9791 60.1278 69.6915 60.0462 69.3648 60.0462C69.0191 60.0462 68.7149 60.1385 68.4521 60.3232C68.1894 60.5078 67.9834 60.7517 67.8343 61.0547C67.6875 61.3577 67.6129 61.6892 67.6105 62.049V62.3828C67.6105 62.8161 67.6851 63.1948 67.8343 63.5192C67.9858 63.8411 68.2 64.0909 68.477 64.2685C68.754 64.446 69.0819 64.5348 69.4607 64.5348C69.7187 64.5348 69.9448 64.4946 70.1389 64.4141C70.3354 64.3336 70.5 64.2259 70.6325 64.0909C70.7675 63.9536 70.8693 63.8033 70.9379 63.6399L71.5381 63.8352C71.4552 64.0649 71.3191 64.2768 71.1297 64.4709C70.9427 64.665 70.7083 64.8213 70.4266 64.9396C70.1472 65.0556 69.8253 65.1136 69.4607 65.1136ZM73.6981 61.5909V65H73.066V59.5455H73.6803V60.4013H73.7371C73.865 60.1219 74.0638 59.8982 74.3337 59.7301C74.606 59.5597 74.9421 59.4744 75.3422 59.4744C75.7092 59.4744 76.0312 59.5514 76.3081 59.7053C76.5875 59.8568 76.8041 60.0805 76.958 60.3764C77.1143 60.6723 77.1924 61.0357 77.1924 61.4666V65H76.5603V61.5057C76.5603 61.0582 76.4348 60.7043 76.1839 60.4439C75.9353 60.1835 75.6015 60.0533 75.1824 60.0533C74.896 60.0533 74.6415 60.1148 74.4189 60.2379C74.1964 60.361 74.02 60.5386 73.8898 60.7706C73.762 61.0002 73.6981 61.2737 73.6981 61.5909ZM82.5218 60.7422L81.9429 60.9055C81.8861 60.7422 81.8056 60.5942 81.7014 60.4616C81.5973 60.3291 81.4611 60.2237 81.2931 60.1456C81.1273 60.0675 80.9214 60.0284 80.6752 60.0284C80.3058 60.0284 80.0028 60.116 79.7661 60.2912C79.5293 60.4664 79.411 60.6925 79.411 60.9695C79.411 61.2038 79.4914 61.3944 79.6524 61.5412C79.8158 61.6856 80.0667 61.8004 80.4053 61.8857L81.2291 62.0881C81.6861 62.1993 82.0281 62.3757 82.2554 62.6172C82.4851 62.8587 82.5999 63.1617 82.5999 63.5263C82.5999 63.834 82.5146 64.1075 82.3442 64.3466C82.1737 64.5857 81.9358 64.7739 81.6304 64.9112C81.3274 65.0462 80.9758 65.1136 80.5757 65.1136C80.0431 65.1136 79.6039 64.9941 79.2583 64.755C78.9126 64.5135 78.6913 64.1655 78.5942 63.7109L79.2014 63.5618C79.2796 63.8861 79.4323 64.1312 79.6595 64.2969C79.8892 64.4626 80.191 64.5455 80.5651 64.5455C80.9841 64.5455 81.3191 64.4519 81.57 64.2649C81.821 64.0755 81.9465 63.8388 81.9465 63.5547C81.9465 63.3345 81.8731 63.1499 81.7263 63.0007C81.5795 62.8492 81.357 62.7379 81.0587 62.6669L80.1673 62.4538C79.6939 62.3402 79.3435 62.1603 79.1162 61.9141C78.8889 61.6679 78.7753 61.3625 78.7753 60.9979C78.7753 60.6972 78.857 60.4332 79.0203 60.206C79.1837 59.9763 79.4086 59.7964 79.695 59.6662C79.9815 59.536 80.3082 59.4709 80.6752 59.4709C81.1747 59.4709 81.5736 59.5845 81.8719 59.8118C82.1726 60.0367 82.3892 60.3468 82.5218 60.7422ZM24.3404 71.5455V72.0959H21.7374V71.5455H24.3404ZM22.5506 70.2386H23.1863V75.576C23.1863 75.8033 23.2253 75.982 23.3034 76.1122C23.3816 76.2401 23.4834 76.3312 23.6088 76.3857C23.7343 76.4377 23.8681 76.4638 24.0101 76.4638C24.093 76.4638 24.164 76.459 24.2232 76.4496C24.2824 76.4377 24.3345 76.4259 24.3794 76.4141L24.5144 76.9858C24.4528 77.0095 24.3771 77.0308 24.2871 77.0497C24.1971 77.071 24.0859 77.0817 23.9533 77.0817C23.7213 77.0817 23.4976 77.0308 23.2821 76.929C23.0691 76.8272 22.8939 76.6757 22.7566 76.4744C22.6193 76.2732 22.5506 76.0234 22.5506 75.7251V70.2386ZM26.5252 73.5909V77H25.8931V69.7273H26.5252V72.4013H26.582C26.7099 72.1196 26.9076 71.8946 27.1751 71.7266C27.445 71.5585 27.7859 71.4744 28.1978 71.4744C28.5671 71.4744 28.8915 71.5502 29.1708 71.7017C29.4502 71.8532 29.668 72.0769 29.8242 72.3729C29.9805 72.6688 30.0586 73.0334 30.0586 73.4666V77H29.4229V73.5057C29.4229 73.0559 29.2975 72.7019 29.0465 72.4439C28.7979 72.1835 28.4618 72.0533 28.038 72.0533C27.7468 72.0533 27.4876 72.1148 27.2603 72.2379C27.033 72.361 26.8531 72.5386 26.7205 72.7706C26.5903 73.0002 26.5252 73.2737 26.5252 73.5909ZM33.9284 77.1136C33.4194 77.1136 32.9791 76.9953 32.6074 76.7585C32.2357 76.5194 31.9481 76.1892 31.7445 75.7678C31.5433 75.344 31.4426 74.8563 31.4426 74.3047C31.4426 73.7554 31.5433 73.2678 31.7445 72.8416C31.9481 72.4131 32.2286 72.0781 32.5861 71.8366C32.946 71.5928 33.3614 71.4709 33.8326 71.4709C34.1285 71.4709 34.4138 71.5253 34.6884 71.6342C34.963 71.7408 35.2092 71.9053 35.427 72.1278C35.6472 72.348 35.8212 72.6262 35.949 72.9624C36.0769 73.2962 36.1408 73.6915 36.1408 74.1484V74.4609H31.8794V73.9034H35.4945C35.4945 73.553 35.4235 73.2382 35.2814 72.9588C35.1417 72.6771 34.9464 72.4545 34.6955 72.2912C34.4469 72.1278 34.1593 72.0462 33.8326 72.0462C33.4869 72.0462 33.1827 72.1385 32.9199 72.3232C32.6571 72.5078 32.4512 72.7517 32.302 73.0547C32.1552 73.3577 32.0807 73.6892 32.0783 74.049V74.3828C32.0783 74.8161 32.1529 75.1948 32.302 75.5192C32.4535 75.8411 32.6678 76.0909 32.9448 76.2685C33.2218 76.446 33.5497 76.5348 33.9284 76.5348C34.1865 76.5348 34.4126 76.4946 34.6067 76.4141C34.8032 76.3336 34.9677 76.2259 35.1003 76.0909C35.2353 75.9536 35.3371 75.8033 35.4057 75.6399L36.0059 75.8352C35.923 76.0649 35.7869 76.2768 35.5975 76.4709C35.4105 76.665 35.1761 76.8213 34.8944 76.9396C34.615 77.0556 34.293 77.1136 33.9284 77.1136ZM40.9783 69.7273V77H40.3462V69.7273H40.9783ZM42.658 77V71.5455H43.2937V77H42.658ZM42.9812 70.608C42.851 70.608 42.7397 70.5642 42.6474 70.4766C42.555 70.3866 42.5089 70.2789 42.5089 70.1534C42.5089 70.0279 42.555 69.9214 42.6474 69.8338C42.7397 69.7438 42.851 69.6989 42.9812 69.6989C43.1114 69.6989 43.2227 69.7438 43.315 69.8338C43.4073 69.9214 43.4535 70.0279 43.4535 70.1534C43.4535 70.2789 43.4073 70.3866 43.315 70.4766C43.2227 70.5642 43.1114 70.608 42.9812 70.608ZM49.1877 71.5455L47.1955 77H46.5208L44.5286 71.5455H45.214L46.8333 76.1655H46.883L48.5023 71.5455H49.1877ZM52.4343 77.1136C51.9253 77.1136 51.485 76.9953 51.1133 76.7585C50.7416 76.5194 50.454 76.1892 50.2504 75.7678C50.0491 75.344 49.9485 74.8563 49.9485 74.3047C49.9485 73.7554 50.0491 73.2678 50.2504 72.8416C50.454 72.4131 50.7345 72.0781 51.092 71.8366C51.4518 71.5928 51.8673 71.4709 52.3384 71.4709C52.6344 71.4709 52.9196 71.5253 53.1942 71.6342C53.4689 71.7408 53.7151 71.9053 53.9329 72.1278C54.1531 72.348 54.3271 72.6262 54.4549 72.9624C54.5827 73.2962 54.6467 73.6915 54.6467 74.1484V74.4609H50.3853V73.9034H54.0004C54.0004 73.553 53.9293 73.2382 53.7873 72.9588C53.6476 72.6771 53.4523 72.4545 53.2013 72.2912C52.9528 72.1278 52.6651 72.0462 52.3384 72.0462C51.9928 72.0462 51.6886 72.1385 51.4258 72.3232C51.163 72.5078 50.957 72.7517 50.8079 73.0547C50.6611 73.3577 50.5865 73.6892 50.5842 74.049V74.3828C50.5842 74.8161 50.6587 75.1948 50.8079 75.5192C50.9594 75.8411 51.1737 76.0909 51.4506 76.2685C51.7276 76.446 52.0555 76.5348 52.4343 76.5348C52.6924 76.5348 52.9184 76.4946 53.1126 76.4141C53.3091 76.3336 53.4736 76.2259 53.6062 76.0909C53.7411 75.9536 53.8429 75.8033 53.9116 75.6399L54.5117 75.8352C54.4289 76.0649 54.2927 76.2768 54.1033 76.4709C53.9163 76.665 53.6819 76.8213 53.4002 76.9396C53.1209 77.0556 52.7989 77.1136 52.4343 77.1136ZM63.0744 71.5455L61.0822 77H60.4075L58.4153 71.5455H59.1007L60.72 76.1655H60.7697L62.389 71.5455H63.0744ZM64.3182 77V71.5455H64.9538V77H64.3182ZM64.6413 70.608C64.5111 70.608 64.3999 70.5642 64.3075 70.4766C64.2152 70.3866 64.169 70.2789 64.169 70.1534C64.169 70.0279 64.2152 69.9214 64.3075 69.8338C64.3999 69.7438 64.5111 69.6989 64.6413 69.6989C64.7715 69.6989 64.8828 69.7438 64.9751 69.8338C65.0675 69.9214 65.1136 70.0279 65.1136 70.1534C65.1136 70.2789 65.0675 70.3866 64.9751 70.4766C64.8828 70.5642 64.7715 70.608 64.6413 70.608ZM68.5893 77.1136C68.1419 77.1136 67.7501 76.9953 67.4139 76.7585C67.0777 76.5218 66.8149 76.1915 66.6255 75.7678C66.4385 75.344 66.345 74.8504 66.345 74.2869C66.345 73.7259 66.4385 73.2346 66.6255 72.8132C66.8149 72.3894 67.0789 72.0604 67.4174 71.826C67.756 71.5893 68.1502 71.4709 68.6 71.4709C68.9314 71.4709 69.2072 71.5301 69.4274 71.6484C69.6475 71.7644 69.8239 71.9089 69.9565 72.0817C70.0891 72.2545 70.1921 72.4226 70.2654 72.5859H70.3223V69.7273H70.9579V77H70.34V75.9879H70.2654C70.1921 76.1536 70.0879 76.3241 69.9529 76.4993C69.818 76.6721 69.6393 76.8177 69.4167 76.9361C69.1966 77.0545 68.9208 77.1136 68.5893 77.1136ZM68.6639 76.5348C69.0166 76.5348 69.3173 76.4389 69.5659 76.2472C69.8145 76.053 70.0038 75.7867 70.1341 75.4482C70.2666 75.1072 70.3329 74.7166 70.3329 74.2763C70.3329 73.8407 70.2678 73.456 70.1376 73.1222C70.0074 72.786 69.818 72.5232 69.5694 72.3338C69.3208 72.142 69.019 72.0462 68.6639 72.0462C68.2993 72.0462 67.9915 72.1456 67.7406 72.3445C67.492 72.541 67.3026 72.8073 67.1724 73.1435C67.0446 73.4796 66.9806 73.8572 66.9806 74.2763C66.9806 74.7 67.0458 75.0824 67.176 75.4233C67.3062 75.7642 67.4956 76.0353 67.7441 76.2365C67.9951 76.4354 68.3017 76.5348 68.6639 76.5348ZM74.9636 77.1136C74.4546 77.1136 74.0143 76.9953 73.6426 76.7585C73.2709 76.5194 72.9833 76.1892 72.7797 75.7678C72.5784 75.344 72.4778 74.8563 72.4778 74.3047C72.4778 73.7554 72.5784 73.2678 72.7797 72.8416C72.9833 72.4131 73.2638 72.0781 73.6213 71.8366C73.9811 71.5928 74.3966 71.4709 74.8677 71.4709C75.1636 71.4709 75.4489 71.5253 75.7235 71.6342C75.9982 71.7408 76.2444 71.9053 76.4622 72.1278C76.6824 72.348 76.8564 72.6262 76.9842 72.9624C77.112 73.2962 77.176 73.6915 77.176 74.1484V74.4609H72.9146V73.9034H76.5297C76.5297 73.553 76.4586 73.2382 76.3166 72.9588C76.1769 72.6771 75.9816 72.4545 75.7306 72.2912C75.4821 72.1278 75.1944 72.0462 74.8677 72.0462C74.5221 72.0462 74.2179 72.1385 73.9551 72.3232C73.6923 72.5078 73.4863 72.7517 73.3372 73.0547C73.1904 73.3577 73.1158 73.6892 73.1135 74.049V74.3828C73.1135 74.8161 73.188 75.1948 73.3372 75.5192C73.4887 75.8411 73.7029 76.0909 73.9799 76.2685C74.2569 76.446 74.5848 76.5348 74.9636 76.5348C75.2217 76.5348 75.4477 76.4946 75.6419 76.4141C75.8384 76.3336 76.0029 76.2259 76.1355 76.0909C76.2704 75.9536 76.3722 75.8033 76.4409 75.6399L77.041 75.8352C76.9582 76.0649 76.822 76.2768 76.6326 76.4709C76.4456 76.665 76.2112 76.8213 75.9295 76.9396C75.6502 77.0556 75.3282 77.1136 74.9636 77.1136ZM80.6889 77.1136C80.2178 77.1136 79.8011 76.9941 79.4389 76.755C79.0791 76.5159 78.7973 76.1856 78.5938 75.7642C78.3902 75.3404 78.2884 74.8516 78.2884 74.2976C78.2884 73.7389 78.3902 73.2476 78.5938 72.8239C78.7973 72.3977 79.0791 72.0663 79.4389 71.8295C79.8011 71.5904 80.2178 71.4709 80.6889 71.4709C81.16 71.4709 81.5755 71.5904 81.9354 71.8295C82.2952 72.0687 82.5769 72.4001 82.7805 72.8239C82.9865 73.2476 83.0895 73.7389 83.0895 74.2976C83.0895 74.8516 82.9877 75.3404 82.7841 75.7642C82.5805 76.1856 82.2976 76.5159 81.9354 76.755C81.5755 76.9941 81.16 77.1136 80.6889 77.1136ZM80.6889 76.5348C81.0677 76.5348 81.3885 76.433 81.6513 76.2294C81.9141 76.0258 82.1129 75.7547 82.2479 75.4162C82.3852 75.0777 82.4538 74.7048 82.4538 74.2976C82.4538 73.8904 82.3852 73.5163 82.2479 73.1754C82.1129 72.8345 81.9141 72.5611 81.6513 72.3551C81.3885 72.1491 81.0677 72.0462 80.6889 72.0462C80.3125 72.0462 79.9917 72.1491 79.7266 72.3551C79.4638 72.5611 79.2637 72.8345 79.1264 73.1754C78.9915 73.5163 78.924 73.8904 78.924 74.2976C78.924 74.7048 78.9915 75.0777 79.1264 75.4162C79.2637 75.7547 79.4638 76.0258 79.7266 76.2294C79.9893 76.433 80.3101 76.5348 80.6889 76.5348ZM26.0835 83.5455V84.0959H23.4806V83.5455H26.0835ZM24.2938 82.2386H24.9294V87.576C24.9294 87.8033 24.9685 87.982 25.0466 88.1122C25.1247 88.2401 25.2265 88.3312 25.352 88.3857C25.4775 88.4377 25.6112 88.4638 25.7533 88.4638C25.8361 88.4638 25.9072 88.459 25.9664 88.4496C26.0255 88.4377 26.0776 88.4259 26.1226 88.4141L26.2575 88.9858C26.196 89.0095 26.1202 89.0308 26.0303 89.0497C25.9403 89.071 25.829 89.0817 25.6965 89.0817C25.4645 89.0817 25.2407 89.0308 25.0253 88.929C24.8122 88.8272 24.637 88.6757 24.4997 88.4744C24.3624 88.2732 24.2938 88.0234 24.2938 87.7251V82.2386ZM27.5191 89V83.5455H28.1334V84.3835H28.1796C28.2885 84.1089 28.4779 83.8875 28.7478 83.7195C29.02 83.549 29.3278 83.4638 29.6711 83.4638C29.7232 83.4638 29.7812 83.465 29.8451 83.4673C29.909 83.4697 29.9623 83.4721 30.0049 83.4744V84.1172C29.9765 84.1125 29.9268 84.1054 29.8557 84.0959C29.7847 84.0864 29.7078 84.0817 29.6249 84.0817C29.3408 84.0817 29.0875 84.142 28.865 84.2628C28.6448 84.3812 28.4708 84.5457 28.343 84.7564C28.2151 84.9671 28.1512 85.2074 28.1512 85.4773V89H27.5191ZM32.607 89.1243C32.2779 89.1243 31.9772 89.0604 31.705 88.9325C31.4327 88.8023 31.2161 88.6153 31.0551 88.3714C30.8941 88.1252 30.8137 87.8269 30.8137 87.4766C30.8137 87.2067 30.8646 86.9794 30.9664 86.7947C31.0682 86.6101 31.2126 86.4586 31.3996 86.3402C31.5866 86.2218 31.808 86.1283 32.0637 86.0597C32.3193 85.991 32.6011 85.9377 32.9088 85.8999C33.2142 85.862 33.4723 85.8288 33.683 85.8004C33.896 85.772 34.0582 85.727 34.1695 85.6655C34.2807 85.6039 34.3364 85.5045 34.3364 85.3672V85.2393C34.3364 84.8677 34.2251 84.5753 34.0026 84.3622C33.7824 84.1468 33.4652 84.0391 33.0509 84.0391C32.6579 84.0391 32.3371 84.1255 32.0885 84.2983C31.8423 84.4711 31.6695 84.6747 31.57 84.9091L30.9699 84.6925C31.093 84.3942 31.2635 84.1562 31.4813 83.9787C31.6991 83.7988 31.9429 83.6697 32.2128 83.5916C32.4827 83.5111 32.7561 83.4709 33.0331 83.4709C33.2414 83.4709 33.4581 83.4981 33.683 83.5526C33.9102 83.607 34.1209 83.7017 34.3151 83.8366C34.5092 83.9692 34.6666 84.1551 34.7874 84.3942C34.9081 84.6309 34.9685 84.9316 34.9685 85.2962V89H34.3364V88.1371H34.2973C34.2216 88.2981 34.1091 88.4543 33.96 88.6058C33.8108 88.7573 33.6238 88.8816 33.3989 88.9787C33.174 89.0758 32.91 89.1243 32.607 89.1243ZM32.6922 88.5455C33.0284 88.5455 33.3196 88.4709 33.5658 88.3217C33.812 88.1726 34.0014 87.9749 34.134 87.7287C34.2689 87.4801 34.3364 87.2067 34.3364 86.9084V86.12C34.289 86.165 34.2097 86.2053 34.0985 86.2408C33.9896 86.2763 33.8629 86.3082 33.7185 86.3366C33.5764 86.3627 33.4344 86.3852 33.2923 86.4041C33.1503 86.4231 33.0225 86.4396 32.9088 86.4538C32.6011 86.4917 32.3383 86.5509 32.1205 86.6314C31.9027 86.7119 31.7358 86.8232 31.6198 86.9652C31.5038 87.1049 31.4458 87.2848 31.4458 87.505C31.4458 87.8364 31.5641 88.0933 31.8009 88.2756C32.0376 88.4555 32.3347 88.5455 32.6922 88.5455ZM37.282 85.5909V89H36.6499V83.5455H37.2643V84.4013H37.3211C37.449 84.1219 37.6478 83.8982 37.9177 83.7301C38.19 83.5597 38.5261 83.4744 38.9262 83.4744C39.2932 83.4744 39.6151 83.5514 39.8921 83.7053C40.1715 83.8568 40.3881 84.0805 40.542 84.3764C40.6982 84.6723 40.7764 85.0357 40.7764 85.4666V89H40.1443V85.5057C40.1443 85.0582 40.0188 84.7043 39.7678 84.4439C39.5193 84.1835 39.1855 84.0533 38.7664 84.0533C38.48 84.0533 38.2255 84.1148 38.0029 84.2379C37.7804 84.361 37.604 84.5386 37.4738 84.7706C37.346 85.0002 37.282 85.2737 37.282 85.5909ZM46.1057 84.7422L45.5269 84.9055C45.4701 84.7422 45.3896 84.5942 45.2854 84.4616C45.1813 84.3291 45.0451 84.2237 44.877 84.1456C44.7113 84.0675 44.5054 84.0284 44.2591 84.0284C43.8898 84.0284 43.5868 84.116 43.3501 84.2912C43.1133 84.4664 42.9949 84.6925 42.9949 84.9695C42.9949 85.2038 43.0754 85.3944 43.2364 85.5412C43.3998 85.6856 43.6507 85.8004 43.9893 85.8857L44.8131 86.0881C45.27 86.1993 45.6121 86.3757 45.8394 86.6172C46.069 86.8587 46.1839 87.1617 46.1839 87.5263C46.1839 87.834 46.0986 88.1075 45.9282 88.3466C45.7577 88.5857 45.5198 88.7739 45.2144 88.9112C44.9114 89.0462 44.5598 89.1136 44.1597 89.1136C43.627 89.1136 43.1879 88.9941 42.8422 88.755C42.4966 88.5135 42.2752 88.1655 42.1782 87.7109L42.7854 87.5618C42.8635 87.8861 43.0162 88.1312 43.2435 88.2969C43.4732 88.4626 43.775 88.5455 44.1491 88.5455C44.5681 88.5455 44.9031 88.4519 45.154 88.2649C45.405 88.0755 45.5305 87.8388 45.5305 87.5547C45.5305 87.3345 45.4571 87.1499 45.3103 87.0007C45.1635 86.8492 44.941 86.7379 44.6427 86.6669L43.7513 86.4538C43.2778 86.3402 42.9275 86.1603 42.7002 85.9141C42.4729 85.6679 42.3593 85.3625 42.3593 84.9979C42.3593 84.6972 42.441 84.4332 42.6043 84.206C42.7677 83.9763 42.9926 83.7964 43.279 83.6662C43.5655 83.536 43.8922 83.4709 44.2591 83.4709C44.7587 83.4709 45.1576 83.5845 45.4559 83.8118C45.7565 84.0367 45.9732 84.3468 46.1057 84.7422ZM47.5679 89V83.5455H48.1823V84.3835H48.2391C48.348 84.1018 48.5291 83.8804 48.7824 83.7195C49.0381 83.5561 49.3447 83.4744 49.7021 83.4744C50.0786 83.4744 50.3875 83.5632 50.629 83.7408C50.8728 83.916 51.0551 84.1574 51.1759 84.4652H51.222C51.3451 84.1622 51.5452 83.9219 51.8222 83.7443C52.1015 83.5644 52.4401 83.4744 52.8378 83.4744C53.3444 83.4744 53.7445 83.6342 54.0381 83.9538C54.3316 84.2711 54.4784 84.7351 54.4784 85.3459V89H53.8463V85.3459C53.8463 84.915 53.7362 84.5919 53.5161 84.3764C53.2959 84.161 53.0059 84.0533 52.646 84.0533C52.2294 84.0533 51.9086 84.1811 51.6837 84.4368C51.4588 84.6925 51.3463 85.0168 51.3463 85.4098V89H50.7V85.2891C50.7 84.9197 50.597 84.6214 50.3911 84.3942C50.1851 84.1669 49.8951 84.0533 49.521 84.0533C49.2701 84.0533 49.044 84.1148 48.8428 84.2379C48.6439 84.361 48.4865 84.5327 48.3705 84.7528C48.2568 84.9706 48.2 85.2216 48.2 85.5057V89H47.5679ZM56.159 89V83.5455H56.7947V89H56.159ZM56.4822 82.608C56.3519 82.608 56.2407 82.5642 56.1483 82.4766C56.056 82.3866 56.0099 82.2789 56.0099 82.1534C56.0099 82.0279 56.056 81.9214 56.1483 81.8338C56.2407 81.7438 56.3519 81.6989 56.4822 81.6989C56.6124 81.6989 56.7236 81.7438 56.816 81.8338C56.9083 81.9214 56.9545 82.0279 56.9545 82.1534C56.9545 82.2789 56.9083 82.3866 56.816 82.4766C56.7236 82.5642 56.6124 82.608 56.4822 82.608ZM62.1311 84.7422L61.5523 84.9055C61.4955 84.7422 61.415 84.5942 61.3108 84.4616C61.2066 84.3291 61.0705 84.2237 60.9024 84.1456C60.7367 84.0675 60.5307 84.0284 60.2845 84.0284C59.9152 84.0284 59.6122 84.116 59.3754 84.2912C59.1387 84.4664 59.0203 84.6925 59.0203 84.9695C59.0203 85.2038 59.1008 85.3944 59.2618 85.5412C59.4252 85.6856 59.6761 85.8004 60.0146 85.8857L60.8385 86.0881C61.2954 86.1993 61.6375 86.3757 61.8648 86.6172C62.0944 86.8587 62.2093 87.1617 62.2093 87.5263C62.2093 87.834 62.124 88.1075 61.9536 88.3466C61.7831 88.5857 61.5452 88.7739 61.2398 88.9112C60.9368 89.0462 60.5852 89.1136 60.1851 89.1136C59.6524 89.1136 59.2133 88.9941 58.8676 88.755C58.522 88.5135 58.3006 88.1655 58.2036 87.7109L58.8108 87.5618C58.8889 87.8861 59.0416 88.1312 59.2689 88.2969C59.4986 88.4626 59.8004 88.5455 60.1744 88.5455C60.5935 88.5455 60.9285 88.4519 61.1794 88.2649C61.4304 88.0755 61.5558 87.8388 61.5558 87.5547C61.5558 87.3345 61.4825 87.1499 61.3357 87.0007C61.1889 86.8492 60.9664 86.7379 60.6681 86.6669L59.7767 86.4538C59.3032 86.3402 58.9529 86.1603 58.7256 85.9141C58.4983 85.6679 58.3847 85.3625 58.3847 84.9979C58.3847 84.6972 58.4664 84.4332 58.6297 84.206C58.7931 83.9763 59.018 83.7964 59.3044 83.6662C59.5909 83.536 59.9176 83.4709 60.2845 83.4709C60.7841 83.4709 61.183 83.5845 61.4813 83.8118C61.7819 84.0367 61.9986 84.3468 62.1311 84.7422ZM67.2581 84.7422L66.6792 84.9055C66.6224 84.7422 66.5419 84.5942 66.4378 84.4616C66.3336 84.3291 66.1975 84.2237 66.0294 84.1456C65.8637 84.0675 65.6577 84.0284 65.4115 84.0284C65.0422 84.0284 64.7391 84.116 64.5024 84.2912C64.2657 84.4664 64.1473 84.6925 64.1473 84.9695C64.1473 85.2038 64.2278 85.3944 64.3888 85.5412C64.5521 85.6856 64.8031 85.8004 65.1416 85.8857L65.9655 86.0881C66.4224 86.1993 66.7645 86.3757 66.9917 86.6172C67.2214 86.8587 67.3362 87.1617 67.3362 87.5263C67.3362 87.834 67.251 88.1075 67.0805 88.3466C66.9101 88.5857 66.6721 88.7739 66.3667 88.9112C66.0637 89.0462 65.7122 89.1136 65.3121 89.1136C64.7794 89.1136 64.3402 88.9941 63.9946 88.755C63.6489 88.5135 63.4276 88.1655 63.3305 87.7109L63.9378 87.5618C64.0159 87.8861 64.1686 88.1312 64.3959 88.2969C64.6255 88.4626 64.9273 88.5455 65.3014 88.5455C65.7204 88.5455 66.0554 88.4519 66.3064 88.2649C66.5573 88.0755 66.6828 87.8388 66.6828 87.5547C66.6828 87.3345 66.6094 87.1499 66.4626 87.0007C66.3158 86.8492 66.0933 86.7379 65.795 86.6669L64.9037 86.4538C64.4302 86.3402 64.0798 86.1603 63.8525 85.9141C63.6253 85.6679 63.5116 85.3625 63.5116 84.9979C63.5116 84.6972 63.5933 84.4332 63.7567 84.206C63.92 83.9763 64.1449 83.7964 64.4314 83.6662C64.7178 83.536 65.0445 83.4709 65.4115 83.4709C65.911 83.4709 66.3099 83.5845 66.6082 83.8118C66.9089 84.0367 67.1255 84.3468 67.2581 84.7422ZM68.7274 89V83.5455H69.363V89H68.7274ZM69.0505 82.608C68.9203 82.608 68.809 82.5642 68.7167 82.4766C68.6244 82.3866 68.5782 82.2789 68.5782 82.1534C68.5782 82.0279 68.6244 81.9214 68.7167 81.8338C68.809 81.7438 68.9203 81.6989 69.0505 81.6989C69.1807 81.6989 69.292 81.7438 69.3843 81.8338C69.4767 81.9214 69.5228 82.0279 69.5228 82.1534C69.5228 82.2789 69.4767 82.3866 69.3843 82.4766C69.292 82.5642 69.1807 82.608 69.0505 82.608ZM73.1547 89.1136C72.6836 89.1136 72.267 88.9941 71.9047 88.755C71.5449 88.5159 71.2632 88.1856 71.0596 87.7642C70.856 87.3404 70.7542 86.8516 70.7542 86.2976C70.7542 85.7389 70.856 85.2476 71.0596 84.8239C71.2632 84.3977 71.5449 84.0663 71.9047 83.8295C72.267 83.5904 72.6836 83.4709 73.1547 83.4709C73.6259 83.4709 74.0413 83.5904 74.4012 83.8295C74.761 84.0687 75.0428 84.4001 75.2464 84.8239C75.4523 85.2476 75.5553 85.7389 75.5553 86.2976C75.5553 86.8516 75.4535 87.3404 75.2499 87.7642C75.0463 88.1856 74.7634 88.5159 74.4012 88.755C74.0413 88.9941 73.6259 89.1136 73.1547 89.1136ZM73.1547 88.5348C73.5335 88.5348 73.8543 88.433 74.1171 88.2294C74.3799 88.0258 74.5787 87.7547 74.7137 87.4162C74.851 87.0777 74.9197 86.7048 74.9197 86.2976C74.9197 85.8904 74.851 85.5163 74.7137 85.1754C74.5787 84.8345 74.3799 84.5611 74.1171 84.3551C73.8543 84.1491 73.5335 84.0462 73.1547 84.0462C72.7783 84.0462 72.4575 84.1491 72.1924 84.3551C71.9296 84.5611 71.7296 84.8345 71.5922 85.1754C71.4573 85.5163 71.3898 85.8904 71.3898 86.2976C71.3898 86.7048 71.4573 87.0777 71.5922 87.4162C71.7296 87.7547 71.9296 88.0258 72.1924 88.2294C72.4552 88.433 72.776 88.5348 73.1547 88.5348ZM77.575 85.5909V89H76.9429V83.5455H77.5573V84.4013H77.6141C77.7419 84.1219 77.9408 83.8982 78.2107 83.7301C78.4829 83.5597 78.8191 83.4744 79.2192 83.4744C79.5861 83.4744 79.9081 83.5514 80.1851 83.7053C80.4645 83.8568 80.6811 84.0805 80.835 84.3764C80.9912 84.6723 81.0693 85.0357 81.0693 85.4666V89H80.4372V85.5057C80.4372 85.0582 80.3118 84.7043 80.0608 84.4439C79.8122 84.1835 79.4784 84.0533 79.0594 84.0533C78.7729 84.0533 78.5184 84.1148 78.2959 84.2379C78.0734 84.361 77.897 84.5386 77.7668 84.7706C77.6389 85.0002 77.575 85.2737 77.575 85.5909Z" fill="#333333"/>
</svg>
