<svg width="84" height="84" viewBox="0 0 84 84" fill="none" xmlns="http://www.w3.org/2000/svg">
<path d="M75.2157 17.5577C74.9812 18.4211 75.4996 19.6215 75.9943 20.4868C76.1484 20.7448 76.3155 20.9949 76.495 21.2359C80.7384 27.6712 83.0001 35.2102 82.9998 42.9186C83.0688 65.0448 64.7213 83 42.0334 83C22.247 83 5.73076 69.2926 1.87125 51.0969C1.29299 48.3992 1.00095 45.648 1 42.889C1 20.7312 18.6398 2.49413 41.3277 2.49413C44.9349 2.49413 49.8037 3.40086 52.4588 4.14399C55.114 4.88711 57.7652 5.87269 58.4491 6.13683C59.1487 6.40572 59.8916 6.54402 60.6411 6.54485C61.4597 6.54797 62.2704 6.38502 63.0242 6.06586L76.3945 1.24048C76.6874 1.11423 76.9978 1.03315 77.315 1C77.5654 1.00076 77.8131 1.05118 78.0438 1.14835C78.2745 1.24551 78.4836 1.38749 78.6591 1.56606C78.8345 1.74463 78.9728 1.95624 79.0659 2.18864C79.159 2.42103 79.2051 2.66958 79.2014 2.9199C79.185 3.13963 79.1453 3.35702 79.0831 3.56841L75.2157 17.5577Z" stroke="#C9C8D8" stroke-miterlimit="10" stroke-linecap="round"/>
<path d="M12.3367 22.5909V26H11.7046V18.7273H12.3367V21.4013H12.3936C12.5214 21.1196 12.7191 20.8946 12.9866 20.7266C13.2565 20.5585 13.5974 20.4744 14.0093 20.4744C14.3786 20.4744 14.703 20.5502 14.9823 20.7017C15.2617 20.8532 15.4795 21.0769 15.6357 21.3729C15.792 21.6688 15.8701 22.0334 15.8701 22.4666V26H15.2345V22.5057C15.2345 22.0559 15.109 21.7019 14.858 21.4439C14.6095 21.1835 14.2733 21.0533 13.8495 21.0533C13.5583 21.0533 13.2991 21.1148 13.0718 21.2379C12.8445 21.361 12.6646 21.5386 12.532 21.7706C12.4018 22.0002 12.3367 22.2737 12.3367 22.5909ZM19.0581 26.1243C18.7291 26.1243 18.4284 26.0604 18.1562 25.9325C17.8839 25.8023 17.6673 25.6153 17.5063 25.3714C17.3453 25.1252 17.2648 24.8269 17.2648 24.4766C17.2648 24.2067 17.3157 23.9794 17.4175 23.7947C17.5193 23.6101 17.6637 23.4586 17.8508 23.3402C18.0378 23.2218 18.2591 23.1283 18.5148 23.0597C18.7705 22.991 19.0522 22.9377 19.36 22.8999C19.6654 22.862 19.9234 22.8288 20.1341 22.8004C20.3472 22.772 20.5094 22.727 20.6206 22.6655C20.7319 22.6039 20.7876 22.5045 20.7876 22.3672V22.2393C20.7876 21.8677 20.6763 21.5753 20.4537 21.3622C20.2336 21.1468 19.9163 21.0391 19.502 21.0391C19.109 21.0391 18.7883 21.1255 18.5397 21.2983C18.2935 21.4711 18.1206 21.6747 18.0212 21.9091L17.4211 21.6925C17.5442 21.3942 17.7146 21.1562 17.9324 20.9787C18.1502 20.7988 18.3941 20.6697 18.664 20.5916C18.9339 20.5111 19.2073 20.4709 19.4843 20.4709C19.6926 20.4709 19.9092 20.4981 20.1341 20.5526C20.3614 20.607 20.5721 20.7017 20.7662 20.8366C20.9604 20.9692 21.1178 21.1551 21.2385 21.3942C21.3593 21.6309 21.4197 21.9316 21.4197 22.2962V26H20.7876V25.1371H20.7485C20.6727 25.2981 20.5603 25.4543 20.4111 25.6058C20.262 25.7573 20.075 25.8816 19.8501 25.9787C19.6251 26.0758 19.3612 26.1243 19.0581 26.1243ZM19.1434 25.5455C19.4796 25.5455 19.7707 25.4709 20.017 25.3217C20.2632 25.1726 20.4526 24.9749 20.5851 24.7287C20.7201 24.4801 20.7876 24.2067 20.7876 23.9084V23.12C20.7402 23.165 20.6609 23.2053 20.5496 23.2408C20.4407 23.2763 20.3141 23.3082 20.1697 23.3366C20.0276 23.3627 19.8856 23.3852 19.7435 23.4041C19.6015 23.4231 19.4736 23.4396 19.36 23.4538C19.0522 23.4917 18.7894 23.5509 18.5716 23.6314C18.3538 23.7119 18.1869 23.8232 18.0709 23.9652C17.9549 24.1049 17.8969 24.2848 17.8969 24.505C17.8969 24.8364 18.0153 25.0933 18.252 25.2756C18.4888 25.4555 18.7859 25.5455 19.1434 25.5455ZM27.1281 20.5455L25.1359 26H24.4612L22.469 20.5455H23.1544L24.7737 25.1655H24.8234L26.4427 20.5455H27.1281ZM30.3747 26.1136C29.8657 26.1136 29.4254 25.9953 29.0537 25.7585C28.682 25.5194 28.3944 25.1892 28.1908 24.7678C27.9896 24.344 27.8889 23.8563 27.8889 23.3047C27.8889 22.7554 27.9896 22.2678 28.1908 21.8416C28.3944 21.4131 28.6749 21.0781 29.0324 20.8366C29.3923 20.5928 29.8077 20.4709 30.2789 20.4709C30.5748 20.4709 30.8601 20.5253 31.1347 20.6342C31.4093 20.7408 31.6555 20.9053 31.8733 21.1278C32.0935 21.348 32.2675 21.6262 32.3953 21.9624C32.5232 22.2962 32.5871 22.6915 32.5871 23.1484V23.4609H28.3257V22.9034H31.9408C31.9408 22.553 31.8698 22.2382 31.7277 21.9588C31.588 21.6771 31.3927 21.4545 31.1418 21.2912C30.8932 21.1278 30.6056 21.0462 30.2789 21.0462C29.9332 21.0462 29.629 21.1385 29.3662 21.3232C29.1034 21.5078 28.8975 21.7517 28.7483 22.0547C28.6015 22.3577 28.527 22.6892 28.5246 23.049V23.3828C28.5246 23.8161 28.5992 24.1948 28.7483 24.5192C28.8998 24.8411 29.1141 25.0909 29.3911 25.2685C29.6681 25.446 29.9959 25.5348 30.3747 25.5348C30.6328 25.5348 30.8589 25.4946 31.053 25.4141C31.2495 25.3336 31.414 25.2259 31.5466 25.0909C31.6816 24.9536 31.7834 24.8033 31.852 24.6399L32.4521 24.8352C32.3693 25.0649 32.2332 25.2768 32.0438 25.4709C31.8567 25.665 31.6224 25.8213 31.3406 25.9396C31.0613 26.0556 30.7393 26.1136 30.3747 26.1136ZM38.316 26.1243C37.9869 26.1243 37.6862 26.0604 37.414 25.9325C37.1417 25.8023 36.9251 25.6153 36.7641 25.3714C36.6031 25.1252 36.5226 24.8269 36.5226 24.4766C36.5226 24.2067 36.5735 23.9794 36.6753 23.7947C36.7771 23.6101 36.9215 23.4586 37.1086 23.3402C37.2956 23.2218 37.517 23.1283 37.7726 23.0597C38.0283 22.991 38.31 22.9377 38.6178 22.8999C38.9232 22.862 39.1813 22.8288 39.392 22.8004C39.605 22.772 39.7672 22.727 39.8785 22.6655C39.9897 22.6039 40.0454 22.5045 40.0454 22.3672V22.2393C40.0454 21.8677 39.9341 21.5753 39.7116 21.3622C39.4914 21.1468 39.1742 21.0391 38.7599 21.0391C38.3669 21.0391 38.0461 21.1255 37.7975 21.2983C37.5513 21.4711 37.3785 21.6747 37.279 21.9091L36.6789 21.6925C36.802 21.3942 36.9724 21.1562 37.1903 20.9787C37.4081 20.7988 37.6519 20.6697 37.9218 20.5916C38.1917 20.5111 38.4651 20.4709 38.7421 20.4709C38.9504 20.4709 39.1671 20.4981 39.392 20.5526C39.6192 20.607 39.8299 20.7017 40.0241 20.8366C40.2182 20.9692 40.3756 21.1551 40.4964 21.3942C40.6171 21.6309 40.6775 21.9316 40.6775 22.2962V26H40.0454V25.1371H40.0063C39.9305 25.2981 39.8181 25.4543 39.6689 25.6058C39.5198 25.7573 39.3328 25.8816 39.1079 25.9787C38.883 26.0758 38.619 26.1243 38.316 26.1243ZM38.4012 25.5455C38.7374 25.5455 39.0286 25.4709 39.2748 25.3217C39.521 25.1726 39.7104 24.9749 39.843 24.7287C39.9779 24.4801 40.0454 24.2067 40.0454 23.9084V23.12C39.998 23.165 39.9187 23.2053 39.8074 23.2408C39.6985 23.2763 39.5719 23.3082 39.4275 23.3366C39.2854 23.3627 39.1434 23.3852 39.0013 23.4041C38.8593 23.4231 38.7314 23.4396 38.6178 23.4538C38.31 23.4917 38.0473 23.5509 37.8295 23.6314C37.6117 23.7119 37.4448 23.8232 37.3287 23.9652C37.2127 24.1049 37.1547 24.2848 37.1547 24.505C37.1547 24.8364 37.2731 25.0933 37.5099 25.2756C37.7466 25.4555 38.0437 25.5455 38.4012 25.5455ZM42.991 22.5909V26H42.3589V20.5455H42.9733V21.4013H43.0301C43.1579 21.1219 43.3568 20.8982 43.6267 20.7301C43.8989 20.5597 44.2351 20.4744 44.6352 20.4744C45.0022 20.4744 45.3241 20.5514 45.6011 20.7053C45.8805 20.8568 46.0971 21.0805 46.251 21.3764C46.4072 21.6723 46.4854 22.0357 46.4854 22.4666V26H45.8532V22.5057C45.8532 22.0582 45.7278 21.7043 45.4768 21.4439C45.2282 21.1835 44.8944 21.0533 44.4754 21.0533C44.189 21.0533 43.9345 21.1148 43.7119 21.2379C43.4894 21.361 43.313 21.5386 43.1828 21.7706C43.055 22.0002 42.991 22.2737 42.991 22.5909ZM50.27 26.1136C49.7989 26.1136 49.3822 25.9941 49.02 25.755C48.6601 25.5159 48.3784 25.1856 48.1748 24.7642C47.9712 24.3404 47.8694 23.8516 47.8694 23.2976C47.8694 22.7389 47.9712 22.2476 48.1748 21.8239C48.3784 21.3977 48.6601 21.0663 49.02 20.8295C49.3822 20.5904 49.7989 20.4709 50.27 20.4709C50.7411 20.4709 51.1566 20.5904 51.5164 20.8295C51.8763 21.0687 52.158 21.4001 52.3616 21.8239C52.5676 22.2476 52.6705 22.7389 52.6705 23.2976C52.6705 23.8516 52.5687 24.3404 52.3651 24.7642C52.1615 25.1856 51.8786 25.5159 51.5164 25.755C51.1566 25.9941 50.7411 26.1136 50.27 26.1136ZM50.27 25.5348C50.6488 25.5348 50.9695 25.433 51.2323 25.2294C51.4951 25.0258 51.694 24.7547 51.8289 24.4162C51.9662 24.0777 52.0349 23.7048 52.0349 23.2976C52.0349 22.8904 51.9662 22.5163 51.8289 22.1754C51.694 21.8345 51.4951 21.5611 51.2323 21.3551C50.9695 21.1491 50.6488 21.0462 50.27 21.0462C49.8936 21.0462 49.5728 21.1491 49.3076 21.3551C49.0448 21.5611 48.8448 21.8345 48.7075 22.1754C48.5725 22.5163 48.5051 22.8904 48.5051 23.2976C48.5051 23.7048 48.5725 24.0777 48.7075 24.4162C48.8448 24.7547 49.0448 25.0258 49.3076 25.2294C49.5704 25.433 49.8912 25.5348 50.27 25.5348ZM56.2066 20.5455V21.0959H53.6036V20.5455H56.2066ZM54.4168 19.2386H55.0525V24.576C55.0525 24.8033 55.0915 24.982 55.1697 25.1122C55.2478 25.2401 55.3496 25.3312 55.4751 25.3857C55.6005 25.4377 55.7343 25.4638 55.8763 25.4638C55.9592 25.4638 56.0302 25.459 56.0894 25.4496C56.1486 25.4377 56.2007 25.4259 56.2456 25.4141L56.3806 25.9858C56.319 26.0095 56.2433 26.0308 56.1533 26.0497C56.0634 26.071 55.9521 26.0817 55.8195 26.0817C55.5875 26.0817 55.3638 26.0308 55.1483 25.929C54.9353 25.8272 54.7601 25.6757 54.6228 25.4744C54.4855 25.2732 54.4168 25.0234 54.4168 24.7251V19.2386ZM58.3914 22.5909V26H57.7593V18.7273H58.3914V21.4013H58.4482C58.5761 21.1196 58.7738 20.8946 59.0413 20.7266C59.3112 20.5585 59.6521 20.4744 60.064 20.4744C60.4333 20.4744 60.7577 20.5502 61.037 20.7017C61.3164 20.8532 61.5342 21.0769 61.6904 21.3729C61.8467 21.6688 61.9248 22.0334 61.9248 22.4666V26H61.2892V22.5057C61.2892 22.0559 61.1637 21.7019 60.9127 21.4439C60.6642 21.1835 60.328 21.0533 59.9042 21.0533C59.613 21.0533 59.3538 21.1148 59.1265 21.2379C58.8992 21.361 58.7193 21.5386 58.5867 21.7706C58.4565 22.0002 58.3914 22.2737 58.3914 22.5909ZM65.7947 26.1136C65.2857 26.1136 64.8453 25.9953 64.4736 25.7585C64.1019 25.5194 63.8143 25.1892 63.6107 24.7678C63.4095 24.344 63.3089 23.8563 63.3089 23.3047C63.3089 22.7554 63.4095 22.2678 63.6107 21.8416C63.8143 21.4131 64.0948 21.0781 64.4523 20.8366C64.8122 20.5928 65.2277 20.4709 65.6988 20.4709C65.9947 20.4709 66.28 20.5253 66.5546 20.6342C66.8292 20.7408 67.0754 20.9053 67.2932 21.1278C67.5134 21.348 67.6874 21.6262 67.8153 21.9624C67.9431 22.2962 68.007 22.6915 68.007 23.1484V23.4609H63.7456V22.9034H67.3607C67.3607 22.553 67.2897 22.2382 67.1476 21.9588C67.008 21.6771 66.8126 21.4545 66.5617 21.2912C66.3131 21.1278 66.0255 21.0462 65.6988 21.0462C65.3531 21.0462 65.0489 21.1385 64.7861 21.3232C64.5233 21.5078 64.3174 21.7517 64.1682 22.0547C64.0215 22.3577 63.9469 22.6892 63.9445 23.049V23.3828C63.9445 23.8161 64.0191 24.1948 64.1682 24.5192C64.3198 24.8411 64.534 25.0909 64.811 25.2685C65.088 25.446 65.4159 25.5348 65.7947 25.5348C66.0527 25.5348 66.2788 25.4946 66.4729 25.4141C66.6694 25.3336 66.834 25.2259 66.9665 25.0909C67.1015 24.9536 67.2033 24.8033 67.2719 24.6399L67.8721 24.8352C67.7892 25.0649 67.6531 25.2768 67.4637 25.4709C67.2767 25.665 67.0423 25.8213 66.7606 25.9396C66.4812 26.0556 66.1592 26.1136 65.7947 26.1136ZM69.3999 26V20.5455H70.0143V21.3835H70.0605C70.1694 21.1089 70.3588 20.8875 70.6286 20.7195C70.9009 20.549 71.2087 20.4638 71.5519 20.4638C71.604 20.4638 71.662 20.465 71.7259 20.4673C71.7899 20.4697 71.8431 20.4721 71.8857 20.4744V21.1172C71.8573 21.1125 71.8076 21.1054 71.7366 21.0959C71.6656 21.0864 71.5886 21.0817 71.5058 21.0817C71.2217 21.0817 70.9684 21.142 70.7458 21.2628C70.5257 21.3812 70.3517 21.5457 70.2238 21.7564C70.096 21.9671 70.032 22.2074 70.032 22.4773V26H69.3999ZM8.79936 40.0455V32.5455H9.41371V33.5859H9.48828C9.56404 33.4226 9.66821 33.2557 9.80078 33.0852C9.93336 32.9124 10.1085 32.7668 10.3263 32.6484C10.5465 32.5301 10.8235 32.4709 11.1573 32.4709C11.6071 32.4709 12.0001 32.5893 12.3363 32.826C12.6748 33.0604 12.9376 33.3894 13.1246 33.8132C13.314 34.2346 13.4087 34.7259 13.4087 35.2869C13.4087 35.8504 13.314 36.344 13.1246 36.7678C12.9376 37.1915 12.6748 37.5218 12.3363 37.7585C12.0001 37.9953 11.6095 38.1136 11.1644 38.1136C10.8353 38.1136 10.5595 38.0545 10.337 37.9361C10.1168 37.8177 9.93809 37.6721 9.80078 37.4993C9.66584 37.3241 9.56167 37.1536 9.48828 36.9879H9.43146V40.0455H8.79936ZM9.42436 35.2763C9.42436 35.7166 9.48946 36.1072 9.61967 36.4482C9.75225 36.7867 9.94164 37.053 10.1879 37.2472C10.4364 37.4389 10.7371 37.5348 11.0898 37.5348C11.4521 37.5348 11.7575 37.4354 12.006 37.2365C12.257 37.0353 12.4476 36.7642 12.5778 36.4233C12.7103 36.0824 12.7766 35.7 12.7766 35.2763C12.7766 34.8572 12.7115 34.4796 12.5813 34.1435C12.4535 33.8073 12.2641 33.541 12.0131 33.3445C11.7622 33.1456 11.4544 33.0462 11.0898 33.0462C10.7347 33.0462 10.4329 33.142 10.1843 33.3338C9.93572 33.5232 9.74633 33.786 9.61612 34.1222C9.48828 34.456 9.42436 34.8407 9.42436 35.2763ZM17.0007 38.1136C16.4917 38.1136 16.0514 37.9953 15.6797 37.7585C15.308 37.5194 15.0204 37.1892 14.8168 36.7678C14.6155 36.344 14.5149 35.8563 14.5149 35.3047C14.5149 34.7554 14.6155 34.2678 14.8168 33.8416C15.0204 33.4131 15.3009 33.0781 15.6584 32.8366C16.0182 32.5928 16.4337 32.4709 16.9048 32.4709C17.2008 32.4709 17.486 32.5253 17.7607 32.6342C18.0353 32.7408 18.2815 32.9053 18.4993 33.1278C18.7195 33.348 18.8935 33.6262 19.0213 33.9624C19.1491 34.2962 19.2131 34.6915 19.2131 35.1484V35.4609H14.9517V34.9034H18.5668C18.5668 34.553 18.4957 34.2382 18.3537 33.9588C18.214 33.6771 18.0187 33.4545 17.7678 33.2912C17.5192 33.1278 17.2315 33.0462 16.9048 33.0462C16.5592 33.0462 16.255 33.1385 15.9922 33.3232C15.7294 33.5078 15.5234 33.7517 15.3743 34.0547C15.2275 34.3577 15.1529 34.6892 15.1506 35.049V35.3828C15.1506 35.8161 15.2251 36.1948 15.3743 36.5192C15.5258 36.8411 15.7401 37.0909 16.017 37.2685C16.294 37.446 16.6219 37.5348 17.0007 37.5348C17.2588 37.5348 17.4848 37.4946 17.679 37.4141C17.8755 37.3336 18.04 37.2259 18.1726 37.0909C18.3075 36.9536 18.4093 36.8033 18.478 36.6399L19.0781 36.8352C18.9953 37.0649 18.8591 37.2768 18.6697 37.4709C18.4827 37.665 18.2483 37.8213 17.9666 37.9396C17.6873 38.0556 17.3653 38.1136 17.0007 38.1136ZM20.606 38V32.5455H21.2203V33.3835H21.2665C21.3754 33.1089 21.5648 32.8875 21.8347 32.7195C22.1069 32.549 22.4147 32.4638 22.758 32.4638C22.8101 32.4638 22.8681 32.465 22.932 32.4673C22.9959 32.4697 23.0492 32.4721 23.0918 32.4744V33.1172C23.0634 33.1125 23.0137 33.1054 22.9426 33.0959C22.8716 33.0864 22.7947 33.0817 22.7118 33.0817C22.4277 33.0817 22.1744 33.142 21.9519 33.2628C21.7317 33.3812 21.5577 33.5457 21.4299 33.7564C21.302 33.9671 21.2381 34.2074 21.2381 34.4773V38H20.606ZM27.8352 33.7422L27.2564 33.9055C27.1996 33.7422 27.1191 33.5942 27.0149 33.4616C26.9107 33.3291 26.7746 33.2237 26.6065 33.1456C26.4408 33.0675 26.2348 33.0284 25.9886 33.0284C25.6193 33.0284 25.3163 33.116 25.0795 33.2912C24.8428 33.4664 24.7244 33.6925 24.7244 33.9695C24.7244 34.2038 24.8049 34.3944 24.9659 34.5412C25.1293 34.6856 25.3802 34.8004 25.7188 34.8857L26.5426 35.0881C26.9995 35.1993 27.3416 35.3757 27.5689 35.6172C27.7985 35.8587 27.9134 36.1617 27.9134 36.5263C27.9134 36.834 27.8281 37.1075 27.6577 37.3466C27.4872 37.5857 27.2493 37.7739 26.9439 37.9112C26.6409 38.0462 26.2893 38.1136 25.8892 38.1136C25.3565 38.1136 24.9174 37.9941 24.5717 37.755C24.2261 37.5135 24.0047 37.1655 23.9077 36.7109L24.5149 36.5618C24.593 36.8861 24.7457 37.1312 24.973 37.2969C25.2027 37.4626 25.5045 37.5455 25.8786 37.5455C26.2976 37.5455 26.6326 37.4519 26.8835 37.2649C27.1345 37.0755 27.2599 36.8388 27.2599 36.5547C27.2599 36.3345 27.1866 36.1499 27.0398 36.0007C26.893 35.8492 26.6705 35.7379 26.3722 35.6669L25.4808 35.4538C25.0073 35.3402 24.657 35.1603 24.4297 34.9141C24.2024 34.6679 24.0888 34.3625 24.0888 33.9979C24.0888 33.6972 24.1705 33.4332 24.3338 33.206C24.4972 32.9763 24.7221 32.7964 25.0085 32.6662C25.295 32.536 25.6217 32.4709 25.9886 32.4709C26.4882 32.4709 26.8871 32.5845 27.1854 32.8118C27.486 33.0367 27.7027 33.3468 27.8352 33.7422ZM29.2974 40.0455V32.5455H29.9118V33.5859H29.9863C30.0621 33.4226 30.1663 33.2557 30.2988 33.0852C30.4314 32.9124 30.6066 32.7668 30.8244 32.6484C31.0446 32.5301 31.3216 32.4709 31.6554 32.4709C32.1052 32.4709 32.4982 32.5893 32.8343 32.826C33.1729 33.0604 33.4357 33.3894 33.6227 33.8132C33.8121 34.2346 33.9068 34.7259 33.9068 35.2869C33.9068 35.8504 33.8121 36.344 33.6227 36.7678C33.4357 37.1915 33.1729 37.5218 32.8343 37.7585C32.4982 37.9953 32.1075 38.1136 31.6625 38.1136C31.3334 38.1136 31.0576 38.0545 30.835 37.9361C30.6149 37.8177 30.4361 37.6721 30.2988 37.4993C30.1639 37.3241 30.0597 37.1536 29.9863 36.9879H29.9295V40.0455H29.2974ZM29.9224 35.2763C29.9224 35.7166 29.9875 36.1072 30.1177 36.4482C30.2503 36.7867 30.4397 37.053 30.6859 37.2472C30.9345 37.4389 31.2351 37.5348 31.5879 37.5348C31.9501 37.5348 32.2555 37.4354 32.5041 37.2365C32.755 37.0353 32.9456 36.7642 33.0758 36.4233C33.2084 36.0824 33.2747 35.7 33.2747 35.2763C33.2747 34.8572 33.2096 34.4796 33.0794 34.1435C32.9515 33.8073 32.7621 33.541 32.5112 33.3445C32.2602 33.1456 31.9525 33.0462 31.5879 33.0462C31.2328 33.0462 30.9309 33.142 30.6824 33.3338C30.4338 33.5232 30.2444 33.786 30.1142 34.1222C29.9863 34.456 29.9224 34.8407 29.9224 35.2763ZM37.4988 38.1136C36.9898 38.1136 36.5494 37.9953 36.1777 37.7585C35.806 37.5194 35.5184 37.1892 35.3148 36.7678C35.1136 36.344 35.013 35.8563 35.013 35.3047C35.013 34.7554 35.1136 34.2678 35.3148 33.8416C35.5184 33.4131 35.7989 33.0781 36.1564 32.8366C36.5163 32.5928 36.9318 32.4709 37.4029 32.4709C37.6988 32.4709 37.9841 32.5253 38.2587 32.6342C38.5333 32.7408 38.7795 32.9053 38.9973 33.1278C39.2175 33.348 39.3915 33.6262 39.5194 33.9624C39.6472 34.2962 39.7111 34.6915 39.7111 35.1484V35.4609H35.4498V34.9034H39.0648C39.0648 34.553 38.9938 34.2382 38.8517 33.9588C38.7121 33.6771 38.5167 33.4545 38.2658 33.2912C38.0172 33.1278 37.7296 33.0462 37.4029 33.0462C37.0572 33.0462 36.753 33.1385 36.4902 33.3232C36.2275 33.5078 36.0215 33.7517 35.8723 34.0547C35.7256 34.3577 35.651 34.6892 35.6486 35.049V35.3828C35.6486 35.8161 35.7232 36.1948 35.8723 36.5192C36.0239 36.8411 36.2381 37.0909 36.5151 37.2685C36.7921 37.446 37.12 37.5348 37.4988 37.5348C37.7568 37.5348 37.9829 37.4946 38.177 37.4141C38.3735 37.3336 38.5381 37.2259 38.6706 37.0909C38.8056 36.9536 38.9074 36.8033 38.976 36.6399L39.5762 36.8352C39.4933 37.0649 39.3572 37.2768 39.1678 37.4709C38.9808 37.665 38.7464 37.8213 38.4647 37.9396C38.1853 38.0556 37.8633 38.1136 37.4988 38.1136ZM43.2347 38.1136C42.747 38.1136 42.3221 37.9917 41.9599 37.7479C41.6 37.504 41.3207 37.1702 41.1218 36.7464C40.9229 36.3227 40.8235 35.8397 40.8235 35.2976C40.8235 34.7507 40.9241 34.2642 41.1254 33.8381C41.329 33.4119 41.6107 33.0781 41.9705 32.8366C42.3304 32.5928 42.7482 32.4709 43.2241 32.4709C43.5887 32.4709 43.9189 32.5419 44.2148 32.6839C44.5108 32.8236 44.7546 33.0213 44.9464 33.277C45.1405 33.5303 45.2624 33.8262 45.3121 34.1648H44.6729C44.6067 33.857 44.4469 33.5942 44.1935 33.3764C43.9426 33.1562 43.623 33.0462 43.2347 33.0462C42.8867 33.0462 42.579 33.1409 42.3114 33.3303C42.0439 33.5173 41.8344 33.7789 41.6829 34.1151C41.5337 34.4489 41.4592 34.8359 41.4592 35.2763C41.4592 35.719 41.5326 36.1108 41.6793 36.4517C41.8261 36.7902 42.0321 37.0554 42.2972 37.2472C42.5647 37.4389 42.8772 37.5348 43.2347 37.5348C43.4762 37.5348 43.6964 37.4898 43.8952 37.3999C44.0965 37.3075 44.2646 37.1773 44.3995 37.0092C44.5368 36.8411 44.6291 36.6411 44.6765 36.4091H45.3157C45.2683 36.7382 45.1512 37.0317 44.9641 37.2898C44.7795 37.5455 44.5392 37.7467 44.2433 37.8935C43.9497 38.0402 43.6135 38.1136 43.2347 38.1136ZM48.8189 32.5455V33.0959H46.2159V32.5455H48.8189ZM47.0291 31.2386H47.6648V36.576C47.6648 36.8033 47.7038 36.982 47.782 37.1122C47.8601 37.2401 47.9619 37.3312 48.0874 37.3857C48.2128 37.4377 48.3466 37.4638 48.4886 37.4638C48.5715 37.4638 48.6425 37.459 48.7017 37.4496C48.7609 37.4377 48.813 37.4259 48.858 37.4141L48.9929 37.9858C48.9313 38.0095 48.8556 38.0308 48.7656 38.0497C48.6757 38.071 48.5644 38.0817 48.4318 38.0817C48.1998 38.0817 47.9761 38.0308 47.7607 37.929C47.5476 37.8272 47.3724 37.6757 47.2351 37.4744C47.0978 37.2732 47.0291 37.0234 47.0291 36.7251V31.2386ZM50.2615 38V32.5455H50.8972V38H50.2615ZM50.5847 31.608C50.4545 31.608 50.3432 31.5642 50.2509 31.4766C50.1586 31.3866 50.1124 31.2789 50.1124 31.1534C50.1124 31.0279 50.1586 30.9214 50.2509 30.8338C50.3432 30.7438 50.4545 30.6989 50.5847 30.6989C50.7149 30.6989 50.8262 30.7438 50.9185 30.8338C51.0108 30.9214 51.057 31.0279 51.057 31.1534C51.057 31.2789 51.0108 31.3866 50.9185 31.4766C50.8262 31.5642 50.7149 31.608 50.5847 31.608ZM56.7912 32.5455L54.799 38H54.1243L52.1321 32.5455H52.8175L54.4368 37.1655H54.4865L56.1058 32.5455H56.7912ZM60.0378 38.1136C59.5288 38.1136 59.0885 37.9953 58.7168 37.7585C58.3451 37.5194 58.0575 37.1892 57.8539 36.7678C57.6526 36.344 57.552 35.8563 57.552 35.3047C57.552 34.7554 57.6526 34.2678 57.8539 33.8416C58.0575 33.4131 58.338 33.0781 58.6955 32.8366C59.0553 32.5928 59.4708 32.4709 59.9419 32.4709C60.2379 32.4709 60.5231 32.5253 60.7978 32.6342C61.0724 32.7408 61.3186 32.9053 61.5364 33.1278C61.7566 33.348 61.9306 33.6262 62.0584 33.9624C62.1863 34.2962 62.2502 34.6915 62.2502 35.1484V35.4609H57.9888V34.9034H61.6039C61.6039 34.553 61.5328 34.2382 61.3908 33.9588C61.2511 33.6771 61.0558 33.4545 60.8049 33.2912C60.5563 33.1278 60.2686 33.0462 59.9419 33.0462C59.5963 33.0462 59.2921 33.1385 59.0293 33.3232C58.7665 33.5078 58.5605 33.7517 58.4114 34.0547C58.2646 34.3577 58.19 34.6892 58.1877 35.049V35.3828C58.1877 35.8161 58.2623 36.1948 58.4114 36.5192C58.5629 36.8411 58.7772 37.0909 59.0542 37.2685C59.3311 37.446 59.659 37.5348 60.0378 37.5348C60.2959 37.5348 60.522 37.4946 60.7161 37.4141C60.9126 37.3336 61.0771 37.2259 61.2097 37.0909C61.3446 36.9536 61.4464 36.8033 61.5151 36.6399L62.1152 36.8352C62.0324 37.0649 61.8962 37.2768 61.7069 37.4709C61.5198 37.665 61.2855 37.8213 61.0037 37.9396C60.7244 38.0556 60.4024 38.1136 60.0378 38.1136ZM68.5756 38.1136C68.1045 38.1136 67.6879 37.9941 67.3256 37.755C66.9658 37.5159 66.6841 37.1856 66.4805 36.7642C66.2769 36.3404 66.1751 35.8516 66.1751 35.2976C66.1751 34.7389 66.2769 34.2476 66.4805 33.8239C66.6841 33.3977 66.9658 33.0663 67.3256 32.8295C67.6879 32.5904 68.1045 32.4709 68.5756 32.4709C69.0468 32.4709 69.4622 32.5904 69.8221 32.8295C70.1819 33.0687 70.4637 33.4001 70.6673 33.8239C70.8732 34.2476 70.9762 34.7389 70.9762 35.2976C70.9762 35.8516 70.8744 36.3404 70.6708 36.7642C70.4672 37.1856 70.1843 37.5159 69.8221 37.755C69.4622 37.9941 69.0468 38.1136 68.5756 38.1136ZM68.5756 37.5348C68.9544 37.5348 69.2752 37.433 69.538 37.2294C69.8008 37.0258 69.9996 36.7547 70.1346 36.4162C70.2719 36.0777 70.3406 35.7048 70.3406 35.2976C70.3406 34.8904 70.2719 34.5163 70.1346 34.1754C69.9996 33.8345 69.8008 33.5611 69.538 33.3551C69.2752 33.1491 68.9544 33.0462 68.5756 33.0462C68.1992 33.0462 67.8784 33.1491 67.6133 33.3551C67.3505 33.5611 67.1504 33.8345 67.0131 34.1754C66.8782 34.5163 66.8107 34.8904 66.8107 35.2976C66.8107 35.7048 66.8782 36.0777 67.0131 36.4162C67.1504 36.7547 67.3505 37.0258 67.6133 37.2294C67.8761 37.433 68.1969 37.5348 68.5756 37.5348ZM74.6081 32.5455V33.0959H71.927V32.5455H74.6081ZM72.7651 38V31.7464C72.7651 31.4529 72.8326 31.2055 72.9675 31.0043C73.1048 30.803 73.2836 30.6503 73.5037 30.5462C73.7239 30.442 73.9571 30.3899 74.2033 30.3899C74.369 30.3899 74.5063 30.4041 74.6152 30.4325C74.7265 30.4586 74.8141 30.4846 74.878 30.5107L74.6934 31.0646C74.646 31.0504 74.588 31.0339 74.5194 31.0149C74.4507 30.996 74.3643 30.9865 74.2601 30.9865C73.9855 30.9865 73.7736 31.0634 73.6245 31.2173C73.4753 31.3712 73.4007 31.5914 73.4007 31.8778L73.3972 38H72.7651ZM12.9888 44.5455V45.0959H10.3858V44.5455H12.9888ZM11.199 43.2386H11.8347V48.576C11.8347 48.8033 11.8738 48.982 11.9519 49.1122C12.03 49.2401 12.1318 49.3312 12.2573 49.3857C12.3828 49.4377 12.5165 49.4638 12.6586 49.4638C12.7414 49.4638 12.8124 49.459 12.8716 49.4496C12.9308 49.4377 12.9829 49.4259 13.0279 49.4141L13.1628 49.9858C13.1013 50.0095 13.0255 50.0308 12.9355 50.0497C12.8456 50.071 12.7343 50.0817 12.6017 50.0817C12.3697 50.0817 12.146 50.0308 11.9306 49.929C11.7175 49.8272 11.5423 49.6757 11.405 49.4744C11.2677 49.2732 11.199 49.0234 11.199 48.7251V43.2386ZM15.1737 46.5909V50H14.5415V42.7273H15.1737V45.4013H15.2305C15.3583 45.1196 15.556 44.8946 15.8235 44.7266C16.0934 44.5585 16.4343 44.4744 16.8462 44.4744C17.2156 44.4744 17.5399 44.5502 17.8192 44.7017C18.0986 44.8532 18.3164 45.0769 18.4727 45.3729C18.6289 45.6688 18.707 46.0334 18.707 46.4666V50H18.0714V46.5057C18.0714 46.0559 17.9459 45.7019 17.695 45.4439C17.4464 45.1835 17.1102 45.0533 16.6864 45.0533C16.3952 45.0533 16.136 45.1148 15.9087 45.2379C15.6815 45.361 15.5015 45.5386 15.369 45.7706C15.2388 46.0002 15.1737 46.2737 15.1737 46.5909ZM22.5769 50.1136C22.0679 50.1136 21.6275 49.9953 21.2559 49.7585C20.8842 49.5194 20.5965 49.1892 20.3929 48.7678C20.1917 48.344 20.0911 47.8563 20.0911 47.3047C20.0911 46.7554 20.1917 46.2678 20.3929 45.8416C20.5965 45.4131 20.8771 45.0781 21.2346 44.8366C21.5944 44.5928 22.0099 44.4709 22.481 44.4709C22.7769 44.4709 23.0622 44.5253 23.3368 44.6342C23.6114 44.7408 23.8577 44.9053 24.0755 45.1278C24.2956 45.348 24.4696 45.6262 24.5975 45.9624C24.7253 46.2962 24.7892 46.6915 24.7892 47.1484V47.4609H20.5279V46.9034H24.1429C24.1429 46.553 24.0719 46.2382 23.9299 45.9588C23.7902 45.6771 23.5949 45.4545 23.3439 45.2912C23.0953 45.1278 22.8077 45.0462 22.481 45.0462C22.1354 45.0462 21.8311 45.1385 21.5684 45.3232C21.3056 45.5078 21.0996 45.7517 20.9505 46.0547C20.8037 46.3577 20.7291 46.6892 20.7267 47.049V47.3828C20.7267 47.8161 20.8013 48.1948 20.9505 48.5192C21.102 48.8411 21.3162 49.0909 21.5932 49.2685C21.8702 49.446 22.1981 49.5348 22.5769 49.5348C22.8349 49.5348 23.061 49.4946 23.2551 49.4141C23.4516 49.3336 23.6162 49.2259 23.7488 49.0909C23.8837 48.9536 23.9855 48.8033 24.0542 48.6399L24.6543 48.8352C24.5714 49.0649 24.4353 49.2768 24.2459 49.4709C24.0589 49.665 23.8245 49.8213 23.5428 49.9396C23.2634 50.0556 22.9415 50.1136 22.5769 50.1136ZM29.0018 50V44.5455H29.6374V50H29.0018ZM29.3249 43.608C29.1947 43.608 29.0835 43.5642 28.9911 43.4766C28.8988 43.3866 28.8526 43.2789 28.8526 43.1534C28.8526 43.0279 28.8988 42.9214 28.9911 42.8338C29.0835 42.7438 29.1947 42.6989 29.3249 42.6989C29.4551 42.6989 29.5664 42.7438 29.6587 42.8338C29.7511 42.9214 29.7972 43.0279 29.7972 43.1534C29.7972 43.2789 29.7511 43.3866 29.6587 43.4766C29.5664 43.5642 29.4551 43.608 29.3249 43.608ZM31.9412 46.5909V50H31.3091V44.5455H31.9235V45.4013H31.9803C32.1081 45.1219 32.307 44.8982 32.5769 44.7301C32.8491 44.5597 33.1853 44.4744 33.5854 44.4744C33.9524 44.4744 34.2743 44.5514 34.5513 44.7053C34.8307 44.8568 35.0473 45.0805 35.2012 45.3764C35.3574 45.6723 35.4355 46.0357 35.4355 46.4666V50H34.8034V46.5057C34.8034 46.0582 34.678 45.7043 34.427 45.4439C34.1784 45.1835 33.8446 45.0533 33.4256 45.0533C33.1391 45.0533 32.8846 45.1148 32.6621 45.2379C32.4396 45.361 32.2632 45.5386 32.133 45.7706C32.0051 46.0002 31.9412 46.2737 31.9412 46.5909ZM40.044 46.5838V47.1804H37.0185V46.5838H40.044ZM41.6314 52.0455V44.5455H42.2457V45.5859H42.3203C42.3961 45.4226 42.5002 45.2557 42.6328 45.0852C42.7654 44.9124 42.9406 44.7668 43.1584 44.6484C43.3786 44.5301 43.6555 44.4709 43.9893 44.4709C44.4392 44.4709 44.8321 44.5893 45.1683 44.826C45.5069 45.0604 45.7696 45.3894 45.9567 45.8132C46.1461 46.2346 46.2408 46.7259 46.2408 47.2869C46.2408 47.8504 46.1461 48.344 45.9567 48.7678C45.7696 49.1915 45.5069 49.5218 45.1683 49.7585C44.8321 49.9953 44.4415 50.1136 43.9964 50.1136C43.6674 50.1136 43.3916 50.0545 43.169 49.9361C42.9489 49.8177 42.7701 49.6721 42.6328 49.4993C42.4979 49.3241 42.3937 49.1536 42.3203 48.9879H42.2635V52.0455H41.6314ZM42.2564 47.2763C42.2564 47.7166 42.3215 48.1072 42.4517 48.4482C42.5843 48.7867 42.7737 49.053 43.0199 49.2472C43.2685 49.4389 43.5691 49.5348 43.9219 49.5348C44.2841 49.5348 44.5895 49.4354 44.8381 49.2365C45.089 49.0353 45.2796 48.7642 45.4098 48.4233C45.5424 48.0824 45.6087 47.7 45.6087 47.2763C45.6087 46.8572 45.5436 46.4796 45.4134 46.1435C45.2855 45.8073 45.0961 45.541 44.8452 45.3445C44.5942 45.1456 44.2865 45.0462 43.9219 45.0462C43.5668 45.0462 43.2649 45.142 43.0163 45.3338C42.7678 45.5232 42.5784 45.786 42.4482 46.1222C42.3203 46.456 42.2564 46.8407 42.2564 47.2763ZM49.8327 50.1136C49.3237 50.1136 48.8834 49.9953 48.5117 49.7585C48.14 49.5194 47.8524 49.1892 47.6488 48.7678C47.4476 48.344 47.3469 47.8563 47.3469 47.3047C47.3469 46.7554 47.4476 46.2678 47.6488 45.8416C47.8524 45.4131 48.1329 45.0781 48.4904 44.8366C48.8503 44.5928 49.2657 44.4709 49.7369 44.4709C50.0328 44.4709 50.3181 44.5253 50.5927 44.6342C50.8673 44.7408 51.1135 44.9053 51.3313 45.1278C51.5515 45.348 51.7255 45.6262 51.8533 45.9624C51.9812 46.2962 52.0451 46.6915 52.0451 47.1484V47.4609H47.7837V46.9034H51.3988C51.3988 46.553 51.3278 46.2382 51.1857 45.9588C51.046 45.6771 50.8507 45.4545 50.5998 45.2912C50.3512 45.1278 50.0636 45.0462 49.7369 45.0462C49.3912 45.0462 49.087 45.1385 48.8242 45.3232C48.5614 45.5078 48.3555 45.7517 48.2063 46.0547C48.0595 46.3577 47.985 46.6892 47.9826 47.049V47.3828C47.9826 47.8161 48.0572 48.1948 48.2063 48.5192C48.3578 48.8411 48.5721 49.0909 48.8491 49.2685C49.1261 49.446 49.454 49.5348 49.8327 49.5348C50.0908 49.5348 50.3169 49.4946 50.511 49.4141C50.7075 49.3336 50.872 49.2259 51.0046 49.0909C51.1396 48.9536 51.2414 48.8033 51.31 48.6399L51.9102 48.8352C51.8273 49.0649 51.6912 49.2768 51.5018 49.4709C51.3147 49.665 51.0804 49.8213 50.7987 49.9396C50.5193 50.0556 50.1973 50.1136 49.8327 50.1136ZM53.438 50V44.5455H54.0524V45.3835H54.0985C54.2074 45.1089 54.3968 44.8875 54.6667 44.7195C54.939 44.549 55.2467 44.4638 55.59 44.4638C55.6421 44.4638 55.7001 44.465 55.764 44.4673C55.8279 44.4697 55.8812 44.4721 55.9238 44.4744V45.1172C55.8954 45.1125 55.8457 45.1054 55.7747 45.0959C55.7037 45.0864 55.6267 45.0817 55.5439 45.0817C55.2598 45.0817 55.0065 45.142 54.7839 45.2628C54.5637 45.3812 54.3897 45.5457 54.2619 45.7564C54.1341 45.9671 54.0701 46.2074 54.0701 46.4773V50H53.438ZM60.6673 45.7422L60.0884 45.9055C60.0316 45.7422 59.9511 45.5942 59.8469 45.4616C59.7428 45.3291 59.6067 45.2237 59.4386 45.1456C59.2728 45.0675 59.0669 45.0284 58.8207 45.0284C58.4513 45.0284 58.1483 45.116 57.9116 45.2912C57.6748 45.4664 57.5565 45.6925 57.5565 45.9695C57.5565 46.2038 57.637 46.3944 57.7979 46.5412C57.9613 46.6856 58.2122 46.8004 58.5508 46.8857L59.3746 47.0881C59.8316 47.1993 60.1737 47.3757 60.4009 47.6172C60.6306 47.8587 60.7454 48.1617 60.7454 48.5263C60.7454 48.834 60.6602 49.1075 60.4897 49.3466C60.3192 49.5857 60.0813 49.7739 59.7759 49.9112C59.4729 50.0462 59.1213 50.1136 58.7212 50.1136C58.1886 50.1136 57.7494 49.9941 57.4038 49.755C57.0581 49.5135 56.8368 49.1655 56.7397 48.7109L57.3469 48.5618C57.4251 48.8861 57.5778 49.1312 57.805 49.2969C58.0347 49.4626 58.3365 49.5455 58.7106 49.5455C59.1296 49.5455 59.4646 49.4519 59.7156 49.2649C59.9665 49.0755 60.092 48.8388 60.092 48.5547C60.092 48.3345 60.0186 48.1499 59.8718 48.0007C59.725 47.8492 59.5025 47.7379 59.2042 47.6669L58.3129 47.4538C57.8394 47.3402 57.489 47.1603 57.2617 46.9141C57.0344 46.6679 56.9208 46.3625 56.9208 45.9979C56.9208 45.6972 57.0025 45.4332 57.1658 45.206C57.3292 44.9763 57.5541 44.7964 57.8406 44.6662C58.127 44.536 58.4537 44.4709 58.8207 44.4709C59.3202 44.4709 59.7191 44.5845 60.0174 44.8118C60.3181 45.0367 60.5347 45.3468 60.6673 45.7422ZM64.2495 50.1136C63.7783 50.1136 63.3617 49.9941 62.9995 49.755C62.6396 49.5159 62.3579 49.1856 62.1543 48.7642C61.9507 48.3404 61.8489 47.8516 61.8489 47.2976C61.8489 46.7389 61.9507 46.2476 62.1543 45.8239C62.3579 45.3977 62.6396 45.0663 62.9995 44.8295C63.3617 44.5904 63.7783 44.4709 64.2495 44.4709C64.7206 44.4709 65.1361 44.5904 65.4959 44.8295C65.8558 45.0687 66.1375 45.4001 66.3411 45.8239C66.5471 46.2476 66.65 46.7389 66.65 47.2976C66.65 47.8516 66.5482 48.3404 66.3446 48.7642C66.141 49.1856 65.8581 49.5159 65.4959 49.755C65.1361 49.9941 64.7206 50.1136 64.2495 50.1136ZM64.2495 49.5348C64.6283 49.5348 64.949 49.433 65.2118 49.2294C65.4746 49.0258 65.6735 48.7547 65.8084 48.4162C65.9457 48.0777 66.0144 47.7048 66.0144 47.2976C66.0144 46.8904 65.9457 46.5163 65.8084 46.1754C65.6735 45.8345 65.4746 45.5611 65.2118 45.3551C64.949 45.1491 64.6283 45.0462 64.2495 45.0462C63.873 45.0462 63.5523 45.1491 63.2871 45.3551C63.0243 45.5611 62.8243 45.8345 62.687 46.1754C62.552 46.5163 62.4846 46.8904 62.4846 47.2976C62.4846 47.7048 62.552 48.0777 62.687 48.4162C62.8243 48.7547 63.0243 49.0258 63.2871 49.2294C63.5499 49.433 63.8707 49.5348 64.2495 49.5348ZM68.6697 46.5909V50H68.0376V44.5455H68.652V45.4013H68.7088C68.8366 45.1219 69.0355 44.8982 69.3054 44.7301C69.5777 44.5597 69.9138 44.4744 70.3139 44.4744C70.6809 44.4744 71.0028 44.5514 71.2798 44.7053C71.5592 44.8568 71.7758 45.0805 71.9297 45.3764C72.0859 45.6723 72.1641 46.0357 72.1641 46.4666V50H71.532V46.5057C71.532 46.0582 71.4065 45.7043 71.1555 45.4439C70.907 45.1835 70.5732 45.0533 70.1541 45.0533C69.8677 45.0533 69.6132 45.1148 69.3906 45.2379C69.1681 45.361 68.9917 45.5386 68.8615 45.7706C68.7337 46.0002 68.6697 46.2737 68.6697 46.5909ZM13.2689 62.1136C12.7812 62.1136 12.3563 61.9917 11.9941 61.7479C11.6342 61.504 11.3548 61.1702 11.156 60.7464C10.9571 60.3227 10.8577 59.8397 10.8577 59.2976C10.8577 58.7507 10.9583 58.2642 11.1595 57.8381C11.3631 57.4119 11.6449 57.0781 12.0047 56.8366C12.3646 56.5928 12.7824 56.4709 13.2583 56.4709C13.6228 56.4709 13.9531 56.5419 14.249 56.6839C14.545 56.8236 14.7888 57.0213 14.9806 57.277C15.1747 57.5303 15.2966 57.8262 15.3463 58.1648H14.7071C14.6408 57.857 14.481 57.5942 14.2277 57.3764C13.9768 57.1562 13.6572 57.0462 13.2689 57.0462C12.9209 57.0462 12.6131 57.1409 12.3456 57.3303C12.0781 57.5173 11.8686 57.7789 11.7171 58.1151C11.5679 58.4489 11.4933 58.8359 11.4933 59.2763C11.4933 59.719 11.5667 60.1108 11.7135 60.4517C11.8603 60.7902 12.0663 61.0554 12.3314 61.2472C12.5989 61.4389 12.9114 61.5348 13.2689 61.5348C13.5104 61.5348 13.7306 61.4898 13.9294 61.3999C14.1307 61.3075 14.2987 61.1773 14.4337 61.0092C14.571 60.8411 14.6633 60.6411 14.7107 60.4091H15.3499C15.3025 60.7382 15.1853 61.0317 14.9983 61.2898C14.8137 61.5455 14.5734 61.7467 14.2774 61.8935C13.9839 62.0402 13.6477 62.1136 13.2689 62.1136ZM18.8247 62.1136C18.3535 62.1136 17.9369 61.9941 17.5747 61.755C17.2148 61.5159 16.9331 61.1856 16.7295 60.7642C16.5259 60.3404 16.4241 59.8516 16.4241 59.2976C16.4241 58.7389 16.5259 58.2476 16.7295 57.8239C16.9331 57.3977 17.2148 57.0663 17.5747 56.8295C17.9369 56.5904 18.3535 56.4709 18.8247 56.4709C19.2958 56.4709 19.7113 56.5904 20.0711 56.8295C20.431 57.0687 20.7127 57.4001 20.9163 57.8239C21.1222 58.2476 21.2252 58.7389 21.2252 59.2976C21.2252 59.8516 21.1234 60.3404 20.9198 60.7642C20.7162 61.1856 20.4333 61.5159 20.0711 61.755C19.7113 61.9941 19.2958 62.1136 18.8247 62.1136ZM18.8247 61.5348C19.2035 61.5348 19.5242 61.433 19.787 61.2294C20.0498 61.0258 20.2487 60.7547 20.3836 60.4162C20.5209 60.0777 20.5896 59.7048 20.5896 59.2976C20.5896 58.8904 20.5209 58.5163 20.3836 58.1754C20.2487 57.8345 20.0498 57.5611 19.787 57.3551C19.5242 57.1491 19.2035 57.0462 18.8247 57.0462C18.4482 57.0462 18.1275 57.1491 17.8623 57.3551C17.5995 57.5611 17.3995 57.8345 17.2622 58.1754C17.1272 58.5163 17.0597 58.8904 17.0597 59.2976C17.0597 59.7048 17.1272 60.0777 17.2622 60.4162C17.3995 60.7547 17.5995 61.0258 17.8623 61.2294C18.1251 61.433 18.4459 61.5348 18.8247 61.5348ZM26.0787 59.9155V56.5455H26.7108V62H26.0787V61.0945H26.029C25.9012 61.3738 25.6988 61.607 25.4218 61.794C25.1448 61.9787 24.8063 62.071 24.4062 62.071C24.0581 62.071 23.7492 61.9953 23.4793 61.8438C23.2094 61.6899 22.9975 61.465 22.8437 61.169C22.6898 60.8731 22.6128 60.5097 22.6128 60.0788V56.5455H23.2449V60.0398C23.2449 60.4659 23.3704 60.8092 23.6214 61.0696C23.8723 61.3277 24.1943 61.4567 24.5873 61.4567C24.8335 61.4567 25.0702 61.3975 25.2975 61.2791C25.5248 61.1607 25.7118 60.9879 25.8586 60.7607C26.0054 60.531 26.0787 60.2493 26.0787 59.9155ZM28.3843 62V56.5455H28.9987V57.3835H29.0448C29.1537 57.1089 29.3431 56.8875 29.613 56.7195C29.8853 56.549 30.193 56.4638 30.5363 56.4638C30.5884 56.4638 30.6464 56.465 30.7103 56.4673C30.7742 56.4697 30.8275 56.4721 30.8701 56.4744V57.1172C30.8417 57.1125 30.792 57.1054 30.721 57.0959C30.6499 57.0864 30.573 57.0817 30.4901 57.0817C30.2061 57.0817 29.9527 57.142 29.7302 57.2628C29.51 57.3812 29.336 57.5457 29.2082 57.7564C29.0803 57.9671 29.0164 58.2074 29.0164 58.4773V62H28.3843ZM35.6135 57.7422L35.0347 57.9055C34.9779 57.7422 34.8974 57.5942 34.7932 57.4616C34.6891 57.3291 34.5529 57.2237 34.3849 57.1456C34.2191 57.0675 34.0132 57.0284 33.767 57.0284C33.3976 57.0284 33.0946 57.116 32.8579 57.2912C32.6211 57.4664 32.5028 57.6925 32.5028 57.9695C32.5028 58.2038 32.5832 58.3944 32.7442 58.5412C32.9076 58.6856 33.1585 58.8004 33.4971 58.8857L34.3209 59.0881C34.7778 59.1993 35.1199 59.3757 35.3472 59.6172C35.5769 59.8587 35.6917 60.1617 35.6917 60.5263C35.6917 60.834 35.6064 61.1075 35.436 61.3466C35.2655 61.5857 35.0276 61.7739 34.7222 61.9112C34.4192 62.0462 34.0676 62.1136 33.6675 62.1136C33.1349 62.1136 32.6957 61.9941 32.3501 61.755C32.0044 61.5135 31.7831 61.1655 31.686 60.7109L32.2932 60.5618C32.3714 60.8861 32.5241 61.1312 32.7513 61.2969C32.981 61.4626 33.2828 61.5455 33.6569 61.5455C34.0759 61.5455 34.4109 61.4519 34.6618 61.2649C34.9128 61.0755 35.0383 60.8388 35.0383 60.5547C35.0383 60.3345 34.9649 60.1499 34.8181 60.0007C34.6713 59.8492 34.4488 59.7379 34.1505 59.6669L33.2591 59.4538C32.7857 59.3402 32.4353 59.1603 32.208 58.9141C31.9807 58.6679 31.8671 58.3625 31.8671 57.9979C31.8671 57.6972 31.9488 57.4332 32.1121 57.206C32.2755 56.9763 32.5004 56.7964 32.7868 56.6662C33.0733 56.536 33.4 56.4709 33.767 56.4709C34.2665 56.4709 34.6654 56.5845 34.9637 56.8118C35.2644 57.0367 35.481 57.3468 35.6135 57.7422ZM39.281 62.1136C38.772 62.1136 38.3316 61.9953 37.96 61.7585C37.5883 61.5194 37.3006 61.1892 37.097 60.7678C36.8958 60.344 36.7952 59.8563 36.7952 59.3047C36.7952 58.7554 36.8958 58.2678 37.097 57.8416C37.3006 57.4131 37.5812 57.0781 37.9387 56.8366C38.2985 56.5928 38.714 56.4709 39.1851 56.4709C39.481 56.4709 39.7663 56.5253 40.0409 56.6342C40.3155 56.7408 40.5618 56.9053 40.7796 57.1278C40.9997 57.348 41.1737 57.6262 41.3016 57.9624C41.4294 58.2962 41.4933 58.6915 41.4933 59.1484V59.4609H37.232V58.9034H40.847C40.847 58.553 40.776 58.2382 40.634 57.9588C40.4943 57.6771 40.299 57.4545 40.048 57.2912C39.7994 57.1278 39.5118 57.0462 39.1851 57.0462C38.8395 57.0462 38.5352 57.1385 38.2725 57.3232C38.0097 57.5078 37.8037 57.7517 37.6546 58.0547C37.5078 58.3577 37.4332 58.6892 37.4308 59.049V59.3828C37.4308 59.8161 37.5054 60.1948 37.6546 60.5192C37.8061 60.8411 38.0203 61.0909 38.2973 61.2685C38.5743 61.446 38.9022 61.5348 39.281 61.5348C39.539 61.5348 39.7651 61.4946 39.9593 61.4141C40.1557 61.3336 40.3203 61.2259 40.4529 61.0909C40.5878 60.9536 40.6896 60.8033 40.7583 60.6399L41.3584 60.8352C41.2755 61.0649 41.1394 61.2768 40.95 61.4709C40.763 61.665 40.5286 61.8213 40.2469 61.9396C39.9675 62.0556 39.6456 62.1136 39.281 62.1136ZM46.1391 64.0455C46.0136 64.0455 45.8965 64.0336 45.7876 64.0099C45.6787 63.9863 45.5922 63.9602 45.5283 63.9318L45.6988 63.3743C45.9142 63.4406 46.106 63.4643 46.2741 63.4453C46.4421 63.4287 46.5913 63.353 46.7215 63.218C46.8517 63.0855 46.9677 62.8819 47.0695 62.6072L47.2684 62.0533L45.262 56.5455H45.9474L47.5667 61.1655H47.6164L49.2357 56.5455H49.9211L47.6128 62.8629C47.5158 63.1257 47.3962 63.3447 47.2542 63.5199C47.1121 63.6974 46.9476 63.8288 46.7606 63.9141C46.5759 64.0017 46.3688 64.0455 46.1391 64.0455ZM53.0825 62.1136C52.6114 62.1136 52.1947 61.9941 51.8325 61.755C51.4726 61.5159 51.1909 61.1856 50.9873 60.7642C50.7837 60.3404 50.6819 59.8516 50.6819 59.2976C50.6819 58.7389 50.7837 58.2476 50.9873 57.8239C51.1909 57.3977 51.4726 57.0663 51.8325 56.8295C52.1947 56.5904 52.6114 56.4709 53.0825 56.4709C53.5536 56.4709 53.9691 56.5904 54.3289 56.8295C54.6888 57.0687 54.9705 57.4001 55.1741 57.8239C55.3801 58.2476 55.483 58.7389 55.483 59.2976C55.483 59.8516 55.3812 60.3404 55.1776 60.7642C54.974 61.1856 54.6911 61.5159 54.3289 61.755C53.9691 61.9941 53.5536 62.1136 53.0825 62.1136ZM53.0825 61.5348C53.4613 61.5348 53.782 61.433 54.0448 61.2294C54.3076 61.0258 54.5065 60.7547 54.6414 60.4162C54.7787 60.0777 54.8474 59.7048 54.8474 59.2976C54.8474 58.8904 54.7787 58.5163 54.6414 58.1754C54.5065 57.8345 54.3076 57.5611 54.0448 57.3551C53.782 57.1491 53.4613 57.0462 53.0825 57.0462C52.7061 57.0462 52.3853 57.1491 52.1201 57.3551C51.8573 57.5611 51.6573 57.8345 51.52 58.1754C51.385 58.5163 51.3176 58.8904 51.3176 59.2976C51.3176 59.7048 51.385 60.0777 51.52 60.4162C51.6573 60.7547 51.8573 61.0258 52.1201 61.2294C52.3829 61.433 52.7037 61.5348 53.0825 61.5348ZM60.3366 59.9155V56.5455H60.9687V62H60.3366V61.0945H60.2868C60.159 61.3738 59.9566 61.607 59.6796 61.794C59.4026 61.9787 59.0641 62.071 58.664 62.071C58.316 62.071 58.007 61.9953 57.7371 61.8438C57.4672 61.6899 57.2554 61.465 57.1015 61.169C56.9476 60.8731 56.8706 60.5097 56.8706 60.0788V56.5455H57.5028V60.0398C57.5028 60.4659 57.6282 60.8092 57.8792 61.0696C58.1301 61.3277 58.4521 61.4567 58.8451 61.4567C59.0913 61.4567 59.328 61.3975 59.5553 61.2791C59.7826 61.1607 59.9696 60.9879 60.1164 60.7607C60.2632 60.531 60.3366 60.2493 60.3366 59.9155ZM63.3639 54.7273V55.3665C63.3639 55.5606 63.3284 55.7678 63.2574 55.9879C63.1887 56.2057 63.0869 56.4176 62.952 56.6236C62.8194 56.8272 62.6584 57.0047 62.469 57.1562L62.1246 56.8544C62.3021 56.6461 62.4524 56.4152 62.5756 56.1619C62.6987 55.9062 62.7602 55.6446 62.7602 55.3771V54.7273H63.3639ZM64.3218 62V56.5455H64.9362V57.3835H64.9823C65.0912 57.1089 65.2806 56.8875 65.5505 56.7195C65.8228 56.549 66.1305 56.4638 66.4738 56.4638C66.5259 56.4638 66.5839 56.465 66.6478 56.4673C66.7117 56.4697 66.765 56.4721 66.8076 56.4744V57.1172C66.7792 57.1125 66.7295 57.1054 66.6585 57.0959C66.5874 57.0864 66.5105 57.0817 66.4276 57.0817C66.1436 57.0817 65.8902 57.142 65.6677 57.2628C65.4475 57.3812 65.2735 57.5457 65.1457 57.7564C65.0178 57.9671 64.9539 58.2074 64.9539 58.4773V62H64.3218ZM69.9255 62.1136C69.4165 62.1136 68.9762 61.9953 68.6045 61.7585C68.2328 61.5194 67.9452 61.1892 67.7416 60.7678C67.5403 60.344 67.4397 59.8563 67.4397 59.3047C67.4397 58.7554 67.5403 58.2678 67.7416 57.8416C67.9452 57.4131 68.2257 57.0781 68.5832 56.8366C68.943 56.5928 69.3585 56.4709 69.8296 56.4709C70.1256 56.4709 70.4108 56.5253 70.6855 56.6342C70.9601 56.7408 71.2063 56.9053 71.4241 57.1278C71.6443 57.348 71.8183 57.6262 71.9461 57.9624C72.074 58.2962 72.1379 58.6915 72.1379 59.1484V59.4609H67.8765V58.9034H71.4916C71.4916 58.553 71.4205 58.2382 71.2785 57.9588C71.1388 57.6771 70.9435 57.4545 70.6926 57.2912C70.444 57.1278 70.1563 57.0462 69.8296 57.0462C69.484 57.0462 69.1798 57.1385 68.917 57.3232C68.6542 57.5078 68.4482 57.7517 68.2991 58.0547C68.1523 58.3577 68.0777 58.6892 68.0754 59.049V59.3828C68.0754 59.8161 68.1499 60.1948 68.2991 60.5192C68.4506 60.8411 68.6649 61.0909 68.9419 61.2685C69.2188 61.446 69.5467 61.5348 69.9255 61.5348C70.1836 61.5348 70.4097 61.4946 70.6038 61.4141C70.8003 61.3336 70.9648 61.2259 71.0974 61.0909C71.2323 60.9536 71.3341 60.8033 71.4028 60.6399L72.0029 60.8352C71.9201 61.0649 71.7839 61.2768 71.5945 61.4709C71.4075 61.665 71.1731 61.8213 70.8914 61.9396C70.6121 62.0556 70.2901 62.1136 69.9255 62.1136ZM30.2251 68.5455V69.0959H27.6222V68.5455H30.2251ZM28.4354 67.2386H29.071V72.576C29.071 72.8033 29.1101 72.982 29.1882 73.1122C29.2663 73.2401 29.3681 73.3312 29.4936 73.3857C29.6191 73.4377 29.7528 73.4638 29.8949 73.4638C29.9777 73.4638 30.0488 73.459 30.108 73.4496C30.1671 73.4377 30.2192 73.4259 30.2642 73.4141L30.3991 73.9858C30.3376 74.0095 30.2618 74.0308 30.1719 74.0497C30.0819 74.071 29.9706 74.0817 29.8381 74.0817C29.6061 74.0817 29.3823 74.0308 29.1669 73.929C28.9538 73.8272 28.7786 73.6757 28.6413 73.4744C28.504 73.2732 28.4354 73.0234 28.4354 72.7251V67.2386ZM33.1841 74.1243C32.8551 74.1243 32.5544 74.0604 32.2821 73.9325C32.0099 73.8023 31.7933 73.6153 31.6323 73.3714C31.4713 73.1252 31.3908 72.8269 31.3908 72.4766C31.3908 72.2067 31.4417 71.9794 31.5435 71.7947C31.6453 71.6101 31.7897 71.4586 31.9767 71.3402C32.1638 71.2218 32.3851 71.1283 32.6408 71.0597C32.8965 70.991 33.1782 70.9377 33.486 70.8999C33.7914 70.862 34.0494 70.8288 34.2601 70.8004C34.4732 70.772 34.6354 70.727 34.7466 70.6655C34.8579 70.6039 34.9135 70.5045 34.9135 70.3672V70.2393C34.9135 69.8677 34.8023 69.5753 34.5797 69.3622C34.3596 69.1468 34.0423 69.0391 33.628 69.0391C33.235 69.0391 32.9142 69.1255 32.6657 69.2983C32.4194 69.4711 32.2466 69.6747 32.1472 69.9091L31.5471 69.6925C31.6702 69.3942 31.8406 69.1562 32.0584 68.9787C32.2762 68.7988 32.5201 68.6697 32.79 68.5916C33.0598 68.5111 33.3333 68.4709 33.6103 68.4709C33.8186 68.4709 34.0352 68.4981 34.2601 68.5526C34.4874 68.607 34.6981 68.7017 34.8922 68.8366C35.0864 68.9692 35.2438 69.1551 35.3645 69.3942C35.4853 69.6309 35.5456 69.9316 35.5456 70.2962V74H34.9135V73.1371H34.8745C34.7987 73.2981 34.6863 73.4543 34.5371 73.6058C34.388 73.7573 34.2009 73.8816 33.976 73.9787C33.7511 74.0758 33.4872 74.1243 33.1841 74.1243ZM33.2694 73.5455C33.6055 73.5455 33.8967 73.4709 34.1429 73.3217C34.3891 73.1726 34.5785 72.9749 34.7111 72.7287C34.8461 72.4801 34.9135 72.2067 34.9135 71.9084V71.12C34.8662 71.165 34.7869 71.2053 34.6756 71.2408C34.5667 71.2763 34.44 71.3082 34.2956 71.3366C34.1536 71.3627 34.0115 71.3852 33.8695 71.4041C33.7275 71.4231 33.5996 71.4396 33.486 71.4538C33.1782 71.4917 32.9154 71.5509 32.6976 71.6314C32.4798 71.7119 32.3129 71.8232 32.1969 71.9652C32.0809 72.1049 32.0229 72.2848 32.0229 72.505C32.0229 72.8364 32.1413 73.0933 32.378 73.2756C32.6148 73.4555 32.9119 73.5455 33.2694 73.5455ZM37.8024 71.9403L37.7953 71.1129H37.9373L40.4941 68.5455H41.2931L38.7683 71.0739L38.7115 71.0845L37.8024 71.9403ZM37.2271 74V66.7273H37.8592V74H37.2271ZM40.6255 74L38.4096 71.1982L38.8642 70.7614L41.4352 74H40.6255ZM42.4881 74V68.5455H43.1238V74H42.4881ZM42.8113 67.608C42.681 67.608 42.5698 67.5642 42.4775 67.4766C42.3851 67.3866 42.339 67.2789 42.339 67.1534C42.339 67.0279 42.3851 66.9214 42.4775 66.8338C42.5698 66.7438 42.681 66.6989 42.8113 66.6989C42.9415 66.6989 43.0527 66.7438 43.1451 66.8338C43.2374 66.9214 43.2836 67.0279 43.2836 67.1534C43.2836 67.2789 43.2374 67.3866 43.1451 67.4766C43.0527 67.5642 42.9415 67.608 42.8113 67.608ZM45.4276 70.5909V74H44.7955V68.5455H45.4098V69.4013H45.4666C45.5945 69.1219 45.7933 68.8982 46.0632 68.7301C46.3355 68.5597 46.6716 68.4744 47.0717 68.4744C47.4387 68.4744 47.7607 68.5514 48.0376 68.7053C48.317 68.8568 48.5336 69.0805 48.6875 69.3764C48.8438 69.6723 48.9219 70.0357 48.9219 70.4666V74H48.2898V70.5057C48.2898 70.0582 48.1643 69.7043 47.9134 69.4439C47.6648 69.1835 47.331 69.0533 46.9119 69.0533C46.6255 69.0533 46.371 69.1148 46.1484 69.2379C45.9259 69.361 45.7495 69.5386 45.6193 69.7706C45.4915 70.0002 45.4276 70.2737 45.4276 70.5909ZM52.6674 76.1591C52.2958 76.1591 51.9702 76.1106 51.6909 76.0135C51.4115 75.9188 51.176 75.7886 50.9842 75.6229C50.7924 75.4571 50.6433 75.2713 50.5368 75.0653L51.0552 74.7244C51.1333 74.8617 51.2375 74.9967 51.3677 75.1293C51.5003 75.2618 51.6719 75.3719 51.8826 75.4595C52.0957 75.5471 52.3573 75.5909 52.6674 75.5909C53.1504 75.5909 53.5398 75.4702 53.8358 75.2287C54.1341 74.9872 54.2832 74.612 54.2832 74.103V72.8743H54.2264C54.153 73.04 54.0476 73.2057 53.9103 73.3714C53.773 73.5348 53.5931 73.6709 53.3706 73.7798C53.1504 73.8887 52.877 73.9432 52.5502 73.9432C52.1146 73.9432 51.7276 73.8355 51.389 73.62C51.0529 73.4046 50.7877 73.0968 50.5936 72.6967C50.4018 72.2943 50.3059 71.8149 50.3059 71.2585C50.3059 70.7069 50.3994 70.2216 50.5865 69.8026C50.7759 69.3835 51.0398 69.0568 51.3784 68.8224C51.7169 68.5881 52.1111 68.4709 52.5609 68.4709C52.8947 68.4709 53.1717 68.5301 53.3919 68.6484C53.612 68.7644 53.7884 68.9089 53.921 69.0817C54.0559 69.2545 54.1613 69.4226 54.237 69.5859H54.301V68.5455H54.9189V74.142C54.9189 74.6037 54.8206 74.9837 54.6241 75.282C54.4276 75.5803 54.1601 75.8004 53.8216 75.9425C53.483 76.0869 53.0983 76.1591 52.6674 76.1591ZM52.6248 73.3643C52.9752 73.3643 53.2747 73.2803 53.5233 73.1122C53.7718 72.9418 53.9624 72.6979 54.095 72.3807C54.2276 72.0634 54.2939 71.6858 54.2939 71.2479C54.2939 70.8217 54.2288 70.4441 54.0985 70.1151C53.9683 69.7836 53.7789 69.5232 53.5304 69.3338C53.2842 69.142 52.9823 69.0462 52.6248 69.0462C52.2602 69.0462 51.9525 69.1444 51.7015 69.3409C51.4506 69.5374 51.2612 69.8026 51.1333 70.1364C51.0055 70.4678 50.9416 70.8383 50.9416 71.2479C50.9416 71.6645 51.0067 72.0327 51.1369 72.3523C51.2671 72.6695 51.4577 72.9181 51.7086 73.098C51.9596 73.2756 52.265 73.3643 52.6248 73.3643Z" fill="#333333"/>
</svg>
