<svg width="118" height="32" viewBox="0 0 118 32" fill="none" xmlns="http://www.w3.org/2000/svg">
<g filter="url(#filter0_d_996_246)">
<rect x="4" width="110" height="24" fill="#BFBDD0"/>
</g>
<path d="M36.299 11.0391L35.4886 11.2678C35.4091 11.0391 35.2964 10.8319 35.1506 10.6463C35.0047 10.4607 34.8142 10.3132 34.5788 10.2038C34.3468 10.0945 34.0585 10.0398 33.7138 10.0398C33.1967 10.0398 32.7725 10.1624 32.4411 10.4077C32.1096 10.6529 31.9439 10.9695 31.9439 11.3572C31.9439 11.6854 32.0566 11.9522 32.282 12.1577C32.5107 12.3598 32.862 12.5206 33.3359 12.6399L34.4893 12.9233C35.129 13.0791 35.608 13.326 35.9261 13.6641C36.2476 14.0021 36.4084 14.4264 36.4084 14.9368C36.4084 15.3677 36.2891 15.7505 36.0504 16.0852C35.8118 16.42 35.4787 16.6835 35.0511 16.8757C34.6269 17.0646 34.1347 17.1591 33.5746 17.1591C32.8288 17.1591 32.214 16.9917 31.7301 16.657C31.2462 16.3189 30.9363 15.8317 30.8004 15.1953L31.6506 14.9865C31.7599 15.4406 31.9737 15.7836 32.2919 16.0156C32.6134 16.2476 33.036 16.3636 33.5597 16.3636C34.1463 16.3636 34.6153 16.2327 34.9666 15.9709C35.3179 15.7057 35.4936 15.3743 35.4936 14.9766C35.4936 14.6683 35.3909 14.4098 35.1854 14.201C34.9799 13.9889 34.6683 13.8331 34.2507 13.7337L33.0028 13.4354C32.34 13.2763 31.8494 13.0244 31.5312 12.6797C31.2131 12.335 31.054 11.9074 31.054 11.397C31.054 10.9761 31.1683 10.6065 31.397 10.2884C31.6257 9.96686 31.9406 9.71496 32.3416 9.53267C32.7427 9.35038 33.2 9.25923 33.7138 9.25923C34.4131 9.25923 34.9716 9.41832 35.3892 9.73651C35.8101 10.0514 36.1134 10.4856 36.299 11.0391ZM41.4334 17.1591C40.7208 17.1591 40.1043 16.9934 39.584 16.6619C39.0636 16.3272 38.6609 15.8648 38.3759 15.2749C38.0942 14.6816 37.9533 13.9988 37.9533 13.2266C37.9533 12.4576 38.0942 11.7749 38.3759 11.1783C38.6609 10.5784 39.0537 10.1094 39.5542 9.77131C40.0579 9.42992 40.6396 9.25923 41.2992 9.25923C41.7135 9.25923 42.1129 9.33546 42.4973 9.48793C42.8818 9.63707 43.2265 9.86742 43.5314 10.179C43.8397 10.4872 44.0833 10.8767 44.2623 11.3473C44.4412 11.8146 44.5307 12.3681 44.5307 13.0078V13.4453H38.5648V12.6648H43.6259C43.6259 12.1742 43.5265 11.7334 43.3276 11.3423C43.132 10.9479 42.8586 10.6364 42.5073 10.4077C42.1593 10.179 41.7566 10.0646 41.2992 10.0646C40.8153 10.0646 40.3894 10.1939 40.0215 10.4524C39.6536 10.7109 39.3652 11.0523 39.1564 11.4766C38.9509 11.9008 38.8465 12.3648 38.8432 12.8686V13.3359C38.8432 13.9425 38.9476 14.4728 39.1564 14.9268C39.3685 15.3776 39.6685 15.7273 40.0563 15.9759C40.4441 16.2244 40.9031 16.3487 41.4334 16.3487C41.7947 16.3487 42.1112 16.2924 42.383 16.1797C42.6581 16.067 42.8884 15.9162 43.074 15.7273C43.263 15.535 43.4055 15.3246 43.5016 15.0959L44.3418 15.3693C44.2258 15.6908 44.0352 15.9875 43.7701 16.2592C43.5082 16.531 43.1801 16.7498 42.7857 16.9155C42.3946 17.0779 41.9438 17.1591 41.4334 17.1591ZM47.3658 6.81818V17H46.4808V6.81818H47.3658ZM52.7947 17.1591C52.0821 17.1591 51.4657 16.9934 50.9453 16.6619C50.425 16.3272 50.0223 15.8648 49.7372 15.2749C49.4555 14.6816 49.3146 13.9988 49.3146 13.2266C49.3146 12.4576 49.4555 11.7749 49.7372 11.1783C50.0223 10.5784 50.415 10.1094 50.9155 9.77131C51.4193 9.42992 52.0009 9.25923 52.6605 9.25923C53.0748 9.25923 53.4742 9.33546 53.8587 9.48793C54.2431 9.63707 54.5878 9.86742 54.8928 10.179C55.201 10.4872 55.4446 10.8767 55.6236 11.3473C55.8026 11.8146 55.892 12.3681 55.892 13.0078V13.4453H49.9261V12.6648H54.9872C54.9872 12.1742 54.8878 11.7334 54.6889 11.3423C54.4934 10.9479 54.2199 10.6364 53.8686 10.4077C53.5206 10.179 53.1179 10.0646 52.6605 10.0646C52.1766 10.0646 51.7507 10.1939 51.3828 10.4524C51.0149 10.7109 50.7266 11.0523 50.5178 11.4766C50.3123 11.9008 50.2079 12.3648 50.2045 12.8686V13.3359C50.2045 13.9425 50.3089 14.4728 50.5178 14.9268C50.7299 15.3776 51.0298 15.7273 51.4176 15.9759C51.8054 16.2244 52.2644 16.3487 52.7947 16.3487C53.156 16.3487 53.4725 16.2924 53.7443 16.1797C54.0194 16.067 54.2498 15.9162 54.4354 15.7273C54.6243 15.535 54.7668 15.3246 54.8629 15.0959L55.7031 15.3693C55.5871 15.6908 55.3965 15.9875 55.1314 16.2592C54.8696 16.531 54.5414 16.7498 54.147 16.9155C53.7559 17.0779 53.3052 17.1591 52.7947 17.1591ZM60.8251 17.1591C60.1423 17.1591 59.5474 16.9884 59.0403 16.647C58.5365 16.3056 58.1454 15.8383 57.867 15.245C57.5886 14.6518 57.4494 13.9756 57.4494 13.2166C57.4494 12.451 57.5903 11.7699 57.872 11.1733C58.157 10.5767 58.5514 10.1094 59.0552 9.77131C59.559 9.42992 60.144 9.25923 60.8102 9.25923C61.3206 9.25923 61.783 9.35866 62.1973 9.55753C62.6116 9.75308 62.9529 10.0298 63.2214 10.3878C63.4932 10.7424 63.6639 11.1567 63.7335 11.6307H62.8386C62.7458 11.1998 62.5221 10.8319 62.1674 10.527C61.8161 10.2187 61.3687 10.0646 60.8251 10.0646C60.3379 10.0646 59.907 10.1972 59.5325 10.4624C59.158 10.7242 58.8646 11.0904 58.6525 11.5611C58.4437 12.0284 58.3393 12.5703 58.3393 13.1868C58.3393 13.8066 58.4421 14.3551 58.6475 14.8324C58.853 15.3063 59.1414 15.6776 59.5126 15.946C59.8871 16.2145 60.3246 16.3487 60.8251 16.3487C61.1632 16.3487 61.4714 16.2857 61.7498 16.1598C62.0315 16.0305 62.2669 15.8482 62.4558 15.6129C62.648 15.3776 62.7773 15.0975 62.8436 14.7727H63.7385C63.6722 15.2334 63.5081 15.6444 63.2463 16.0057C62.9877 16.3636 62.6513 16.6454 62.237 16.8509C61.8261 17.0563 61.3554 17.1591 60.8251 17.1591ZM68.6429 9.36364V10.1342H64.9988V9.36364H68.6429ZM66.1373 7.53409H67.0272V15.0064C67.0272 15.3246 67.0819 15.5748 67.1912 15.7571C67.3006 15.9361 67.4431 16.0637 67.6188 16.1399C67.7944 16.2128 67.9817 16.2493 68.1806 16.2493C68.2966 16.2493 68.396 16.2427 68.4789 16.2294C68.5617 16.2128 68.6346 16.1963 68.6976 16.1797L68.8865 16.9801C68.8004 17.0133 68.6943 17.0431 68.5684 17.0696C68.4424 17.0994 68.2866 17.1143 68.101 17.1143C67.7762 17.1143 67.463 17.0431 67.1614 16.9006C66.8631 16.758 66.6178 16.5459 66.4256 16.2642C66.2334 15.9825 66.1373 15.6328 66.1373 15.2152V7.53409ZM73.658 17.1591C72.9454 17.1591 72.329 16.9934 71.8086 16.6619C71.2882 16.3272 70.8855 15.8648 70.6005 15.2749C70.3188 14.6816 70.1779 13.9988 70.1779 13.2266C70.1779 12.4576 70.3188 11.7749 70.6005 11.1783C70.8855 10.5784 71.2783 10.1094 71.7788 9.77131C72.2826 9.42992 72.8642 9.25923 73.5238 9.25923C73.9381 9.25923 74.3375 9.33546 74.7219 9.48793C75.1064 9.63707 75.4511 9.86742 75.756 10.179C76.0643 10.4872 76.3079 10.8767 76.4869 11.3473C76.6658 11.8146 76.7553 12.3681 76.7553 13.0078V13.4453H70.7894V12.6648H75.8505C75.8505 12.1742 75.7511 11.7334 75.5522 11.3423C75.3567 10.9479 75.0832 10.6364 74.7319 10.4077C74.3839 10.179 73.9812 10.0646 73.5238 10.0646C73.0399 10.0646 72.614 10.1939 72.2461 10.4524C71.8782 10.7109 71.5898 11.0523 71.381 11.4766C71.1755 11.9008 71.0711 12.3648 71.0678 12.8686V13.3359C71.0678 13.9425 71.1722 14.4728 71.381 14.9268C71.5932 15.3776 71.8931 15.7273 72.2809 15.9759C72.6687 16.2244 73.1277 16.3487 73.658 16.3487C74.0193 16.3487 74.3358 16.2924 74.6076 16.1797C74.8827 16.067 75.113 15.9162 75.2987 15.7273C75.4876 15.535 75.6301 15.3246 75.7262 15.0959L76.5664 15.3693C76.4504 15.6908 76.2598 15.9875 75.9947 16.2592C75.7328 16.531 75.4047 16.7498 75.0103 16.9155C74.6192 17.0779 74.1684 17.1591 73.658 17.1591ZM81.4547 17.1591C80.8283 17.1591 80.2798 16.9934 79.8091 16.6619C79.3385 16.3305 78.9706 15.8681 78.7054 15.2749C78.4436 14.6816 78.3127 13.9905 78.3127 13.2017C78.3127 12.4162 78.4436 11.7285 78.7054 11.1385C78.9706 10.5452 79.3401 10.0845 79.8141 9.75639C80.2881 9.42495 80.8399 9.25923 81.4696 9.25923C81.9337 9.25923 82.3198 9.34209 82.628 9.50781C82.9363 9.67022 83.1832 9.8724 83.3688 10.1143C83.5544 10.3563 83.6986 10.5916 83.8013 10.8203H83.8809V6.81818H84.7708V17H83.9057V15.5831H83.8013C83.6986 15.8151 83.5527 16.0537 83.3638 16.299C83.1749 16.541 82.9247 16.7448 82.6131 16.9105C82.3049 17.0762 81.9187 17.1591 81.4547 17.1591ZM81.5591 16.3487C82.053 16.3487 82.4739 16.2145 82.8219 15.946C83.1699 15.6742 83.4351 15.3014 83.6174 14.8274C83.803 14.3501 83.8958 13.8033 83.8958 13.1868C83.8958 12.5769 83.8046 12.0384 83.6223 11.571C83.44 11.1004 83.1749 10.7325 82.8269 10.4673C82.4789 10.1989 82.0563 10.0646 81.5591 10.0646C81.0487 10.0646 80.6178 10.2038 80.2665 10.4822C79.9185 10.7573 79.6533 11.1302 79.4711 11.6009C79.2921 12.0715 79.2026 12.6001 79.2026 13.1868C79.2026 13.7801 79.2937 14.3153 79.476 14.7926C79.6583 15.2699 79.9235 15.6494 80.2715 15.9311C80.6228 16.2095 81.052 16.3487 81.5591 16.3487Z" fill="#111111"/>
<defs>
<filter id="filter0_d_996_246" x="0" y="0" width="118" height="32" filterUnits="userSpaceOnUse" color-interpolation-filters="sRGB">
<feFlood flood-opacity="0" result="BackgroundImageFix"/>
<feColorMatrix in="SourceAlpha" type="matrix" values="0 0 0 0 0 0 0 0 0 0 0 0 0 0 0 0 0 0 127 0" result="hardAlpha"/>
<feOffset dy="4"/>
<feGaussianBlur stdDeviation="2"/>
<feComposite in2="hardAlpha" operator="out"/>
<feColorMatrix type="matrix" values="0 0 0 0 0 0 0 0 0 0 0 0 0 0 0 0 0 0 0.25 0"/>
<feBlend mode="normal" in2="BackgroundImageFix" result="effect1_dropShadow_996_246"/>
<feBlend mode="normal" in="SourceGraphic" in2="effect1_dropShadow_996_246" result="shape"/>
</filter>
</defs>
</svg>
