<svg width="118" height="118" viewBox="0 0 118 118" fill="none" xmlns="http://www.w3.org/2000/svg">
<g filter="url(#filter0_d_954_120)">
<rect x="4" width="110" height="110" fill="#BFBDD0"/>
</g>
<path d="M21.1433 31.1136C20.6343 31.1136 20.194 30.9953 19.8223 30.7585C19.4506 30.5194 19.1629 30.1892 18.9593 29.7678C18.7581 29.344 18.6575 28.8563 18.6575 28.3047C18.6575 27.7554 18.7581 27.2678 18.9593 26.8416C19.1629 26.4131 19.4435 26.0781 19.801 25.8366C20.1608 25.5928 20.5763 25.4709 21.0474 25.4709C21.3433 25.4709 21.6286 25.5253 21.9032 25.6342C22.1779 25.7408 22.4241 25.9053 22.6419 26.1278C22.862 26.348 23.036 26.6262 23.1639 26.9624C23.2917 27.2962 23.3556 27.6915 23.3556 28.1484V28.4609H19.0943V27.9034H22.7093C22.7093 27.553 22.6383 27.2382 22.4963 26.9588C22.3566 26.6771 22.1613 26.4545 21.9103 26.2912C21.6618 26.1278 21.3741 26.0462 21.0474 26.0462C20.7018 26.0462 20.3975 26.1385 20.1348 26.3232C19.872 26.5078 19.666 26.7517 19.5169 27.0547C19.3701 27.3577 19.2955 27.6892 19.2931 28.049V28.3828C19.2931 28.8161 19.3677 29.1948 19.5169 29.5192C19.6684 29.8411 19.8826 30.0909 20.1596 30.2685C20.4366 30.446 20.7645 30.5348 21.1433 30.5348C21.4013 30.5348 21.6274 30.4946 21.8216 30.4141C22.0181 30.3336 22.1826 30.2259 22.3152 30.0909C22.4501 29.9536 22.5519 29.8033 22.6206 29.6399L23.2207 29.8352C23.1378 30.0649 23.0017 30.2768 22.8123 30.4709C22.6253 30.665 22.3909 30.8213 22.1092 30.9396C21.8298 31.0556 21.5079 31.1136 21.1433 31.1136ZM24.9927 25.5455L26.399 27.8714L27.8052 25.5455H28.5403L26.786 28.2727L28.5403 31H27.8052L26.399 28.7486L24.9927 31H24.2612L25.9941 28.2727L24.2612 25.5455H24.9927ZM29.8729 31V25.5455H30.5085V31H29.8729ZM30.196 24.608C30.0658 24.608 29.9545 24.5642 29.8622 24.4766C29.7699 24.3866 29.7237 24.2789 29.7237 24.1534C29.7237 24.0279 29.7699 23.9214 29.8622 23.8338C29.9545 23.7438 30.0658 23.6989 30.196 23.6989C30.3262 23.6989 30.4375 23.7438 30.5298 23.8338C30.6222 23.9214 30.6683 24.0279 30.6683 24.1534C30.6683 24.2789 30.6222 24.3866 30.5298 24.4766C30.4375 24.5642 30.3262 24.608 30.196 24.608ZM35.845 26.7422L35.2662 26.9055C35.2093 26.7422 35.1288 26.5942 35.0247 26.4616C34.9205 26.3291 34.7844 26.2237 34.6163 26.1456C34.4506 26.0675 34.2446 26.0284 33.9984 26.0284C33.6291 26.0284 33.3261 26.116 33.0893 26.2912C32.8526 26.4664 32.7342 26.6925 32.7342 26.9695C32.7342 27.2038 32.8147 27.3944 32.9757 27.5412C33.139 27.6856 33.39 27.8004 33.7285 27.8857L34.5524 28.0881C35.0093 28.1993 35.3514 28.3757 35.5787 28.6172C35.8083 28.8587 35.9231 29.1617 35.9231 29.5263C35.9231 29.834 35.8379 30.1075 35.6674 30.3466C35.497 30.5857 35.2591 30.7739 34.9537 30.9112C34.6506 31.0462 34.2991 31.1136 33.899 31.1136C33.3663 31.1136 32.9271 30.9941 32.5815 30.755C32.2359 30.5135 32.0145 30.1655 31.9174 29.7109L32.5247 29.5618C32.6028 29.8861 32.7555 30.1312 32.9828 30.2969C33.2124 30.4626 33.5143 30.5455 33.8883 30.5455C34.3074 30.5455 34.6423 30.4519 34.8933 30.2649C35.1442 30.0755 35.2697 29.8388 35.2697 29.5547C35.2697 29.3345 35.1963 29.1499 35.0495 29.0007C34.9028 28.8492 34.6802 28.7379 34.3819 28.6669L33.4906 28.4538C33.0171 28.3402 32.6667 28.1603 32.4395 27.9141C32.2122 27.6679 32.0985 27.3625 32.0985 26.9979C32.0985 26.6972 32.1802 26.4332 32.3436 26.206C32.5069 25.9763 32.7318 25.7964 33.0183 25.6662C33.3047 25.536 33.6315 25.4709 33.9984 25.4709C34.4979 25.4709 34.8968 25.5845 35.1951 25.8118C35.4958 26.0367 35.7124 26.3468 35.845 26.7422ZM39.4556 25.5455V26.0959H36.8526V25.5455H39.4556ZM37.6658 24.2386H38.3015V29.576C38.3015 29.8033 38.3406 29.982 38.4187 30.1122C38.4968 30.2401 38.5986 30.3312 38.7241 30.3857C38.8496 30.4377 38.9833 30.4638 39.1254 30.4638C39.2082 30.4638 39.2792 30.459 39.3384 30.4496C39.3976 30.4377 39.4497 30.4259 39.4947 30.4141L39.6296 30.9858C39.5681 31.0095 39.4923 31.0308 39.4023 31.0497C39.3124 31.071 39.2011 31.0817 39.0685 31.0817C38.8365 31.0817 38.6128 31.0308 38.3974 30.929C38.1843 30.8272 38.0091 30.6757 37.8718 30.4744C37.7345 30.2732 37.6658 30.0234 37.6658 29.7251V24.2386ZM40.8983 31V25.5455H41.5339V31H40.8983ZM41.2214 24.608C41.0912 24.608 40.9799 24.5642 40.8876 24.4766C40.7953 24.3866 40.7491 24.2789 40.7491 24.1534C40.7491 24.0279 40.7953 23.9214 40.8876 23.8338C40.9799 23.7438 41.0912 23.6989 41.2214 23.6989C41.3516 23.6989 41.4629 23.7438 41.5552 23.8338C41.6475 23.9214 41.6937 24.0279 41.6937 24.1534C41.6937 24.2789 41.6475 24.3866 41.5552 24.4766C41.4629 24.5642 41.3516 24.608 41.2214 24.608ZM43.8377 27.5909V31H43.2056V25.5455H43.82V26.4013H43.8768C44.0046 26.1219 44.2035 25.8982 44.4734 25.7301C44.7456 25.5597 45.0818 25.4744 45.4819 25.4744C45.8488 25.4744 46.1708 25.5514 46.4478 25.7053C46.7272 25.8568 46.9438 26.0805 47.0977 26.3764C47.2539 26.6723 47.332 27.0357 47.332 27.4666V31H46.6999V27.5057C46.6999 27.0582 46.5745 26.7043 46.3235 26.4439C46.0749 26.1835 45.7411 26.0533 45.3221 26.0533C45.0356 26.0533 44.7811 26.1148 44.5586 26.2379C44.3361 26.361 44.1597 26.5386 44.0295 26.7706C43.9016 27.0002 43.8377 27.2737 43.8377 27.5909ZM51.0776 33.1591C50.7059 33.1591 50.3804 33.1106 50.101 33.0135C49.8217 32.9188 49.5861 32.7886 49.3944 32.6229C49.2026 32.4571 49.0534 32.2713 48.9469 32.0653L49.4654 31.7244C49.5435 31.8617 49.6477 31.9967 49.7779 32.1293C49.9105 32.2618 50.0821 32.3719 50.2928 32.4595C50.5059 32.5471 50.7675 32.5909 51.0776 32.5909C51.5605 32.5909 51.95 32.4702 52.2459 32.2287C52.5442 31.9872 52.6934 31.612 52.6934 31.103V29.8743H52.6365C52.5632 30.04 52.4578 30.2057 52.3205 30.3714C52.1832 30.5348 52.0033 30.6709 51.7807 30.7798C51.5605 30.8887 51.2871 30.9432 50.9604 30.9432C50.5248 30.9432 50.1377 30.8355 49.7992 30.62C49.463 30.4046 49.1979 30.0968 49.0037 29.6967C48.812 29.2943 48.7161 28.8149 48.7161 28.2585C48.7161 27.7069 48.8096 27.2216 48.9966 26.8026C49.186 26.3835 49.45 26.0568 49.7885 25.8224C50.1271 25.5881 50.5212 25.4709 50.9711 25.4709C51.3049 25.4709 51.5819 25.5301 51.802 25.6484C52.0222 25.7644 52.1986 25.9089 52.3311 26.0817C52.4661 26.2545 52.5714 26.4226 52.6472 26.5859H52.7111V25.5455H53.329V31.142C53.329 31.6037 53.2308 31.9837 53.0343 32.282C52.8378 32.5803 52.5703 32.8004 52.2317 32.9425C51.8932 33.0869 51.5085 33.1591 51.0776 33.1591ZM51.035 30.3643C51.3854 30.3643 51.6848 30.2803 51.9334 30.1122C52.182 29.9418 52.3726 29.6979 52.5051 29.3807C52.6377 29.0634 52.704 28.6858 52.704 28.2479C52.704 27.8217 52.6389 27.4441 52.5087 27.1151C52.3785 26.7836 52.1891 26.5232 51.9405 26.3338C51.6943 26.142 51.3925 26.0462 51.035 26.0462C50.6704 26.0462 50.3626 26.1444 50.1117 26.3409C49.8607 26.5374 49.6713 26.8026 49.5435 27.1364C49.4157 27.4678 49.3517 27.8383 49.3517 28.2479C49.3517 28.6645 49.4168 29.0327 49.5471 29.3523C49.6773 29.6695 49.8678 29.9181 50.1188 30.098C50.3697 30.2756 50.6751 30.3643 51.035 30.3643ZM57.815 33.0455V25.5455H58.4293V26.5859H58.5039C58.5797 26.4226 58.6838 26.2557 58.8164 26.0852C58.949 25.9124 59.1242 25.7668 59.342 25.6484C59.5621 25.5301 59.8391 25.4709 60.1729 25.4709C60.6228 25.4709 61.0157 25.5893 61.3519 25.826C61.6905 26.0604 61.9532 26.3894 62.1403 26.8132C62.3297 27.2346 62.4244 27.7259 62.4244 28.2869C62.4244 28.8504 62.3297 29.344 62.1403 29.7678C61.9532 30.1915 61.6905 30.5218 61.3519 30.7585C61.0157 30.9953 60.6251 31.1136 60.18 31.1136C59.851 31.1136 59.5752 31.0545 59.3526 30.9361C59.1325 30.8177 58.9537 30.6721 58.8164 30.4993C58.6815 30.3241 58.5773 30.1536 58.5039 29.9879H58.4471V33.0455H57.815ZM58.44 28.2763C58.44 28.7166 58.5051 29.1072 58.6353 29.4482C58.7679 29.7867 58.9573 30.053 59.2035 30.2472C59.4521 30.4389 59.7527 30.5348 60.1055 30.5348C60.4677 30.5348 60.7731 30.4354 61.0217 30.2365C61.2726 30.0353 61.4632 29.7642 61.5934 29.4233C61.726 29.0824 61.7923 28.7 61.7923 28.2763C61.7923 27.8572 61.7272 27.4796 61.5969 27.1435C61.4691 26.8073 61.2797 26.541 61.0288 26.3445C60.7778 26.1456 60.4701 26.0462 60.1055 26.0462C59.7504 26.0462 59.4485 26.142 59.1999 26.3338C58.9513 26.5232 58.762 26.786 58.6317 27.1222C58.5039 27.456 58.44 27.8407 58.44 28.2763ZM64.4432 23.7273V31H63.8111V23.7273H64.4432ZM67.6392 31.1243C67.3101 31.1243 67.0095 31.0604 66.7372 30.9325C66.465 30.8023 66.2483 30.6153 66.0874 30.3714C65.9264 30.1252 65.8459 29.8269 65.8459 29.4766C65.8459 29.2067 65.8968 28.9794 65.9986 28.7947C66.1004 28.6101 66.2448 28.4586 66.4318 28.3402C66.6188 28.2218 66.8402 28.1283 67.0959 28.0597C67.3516 27.991 67.6333 27.9377 67.9411 27.8999C68.2464 27.862 68.5045 27.8288 68.7152 27.8004C68.9283 27.772 69.0904 27.727 69.2017 27.6655C69.313 27.6039 69.3686 27.5045 69.3686 27.3672V27.2393C69.3686 26.8677 69.2573 26.5753 69.0348 26.3622C68.8146 26.1468 68.4974 26.0391 68.0831 26.0391C67.6901 26.0391 67.3693 26.1255 67.1207 26.2983C66.8745 26.4711 66.7017 26.6747 66.6023 26.9091L66.0021 26.6925C66.1252 26.3942 66.2957 26.1562 66.5135 25.9787C66.7313 25.7988 66.9751 25.6697 67.245 25.5916C67.5149 25.5111 67.7884 25.4709 68.0653 25.4709C68.2737 25.4709 68.4903 25.4981 68.7152 25.5526C68.9425 25.607 69.1532 25.7017 69.3473 25.8366C69.5414 25.9692 69.6989 26.1551 69.8196 26.3942C69.9403 26.6309 70.0007 26.9316 70.0007 27.2962V31H69.3686V30.1371H69.3295C69.2538 30.2981 69.1413 30.4543 68.9922 30.6058C68.843 30.7573 68.656 30.8816 68.4311 30.9787C68.2062 31.0758 67.9422 31.1243 67.6392 31.1243ZM67.7244 30.5455C68.0606 30.5455 68.3518 30.4709 68.598 30.3217C68.8442 30.1726 69.0336 29.9749 69.1662 29.7287C69.3011 29.4801 69.3686 29.2067 69.3686 28.9084V28.12C69.3213 28.165 69.242 28.2053 69.1307 28.2408C69.0218 28.2763 68.8951 28.3082 68.7507 28.3366C68.6087 28.3627 68.4666 28.3852 68.3246 28.4041C68.1825 28.4231 68.0547 28.4396 67.9411 28.4538C67.6333 28.4917 67.3705 28.5509 67.1527 28.6314C66.9349 28.7119 66.768 28.8232 66.652 28.9652C66.536 29.1049 66.478 29.2848 66.478 29.505C66.478 29.8364 66.5964 30.0933 66.8331 30.2756C67.0698 30.4555 67.367 30.5455 67.7244 30.5455ZM73.8306 25.5455V26.0959H71.2276V25.5455H73.8306ZM72.0408 24.2386H72.6765V29.576C72.6765 29.8033 72.7156 29.982 72.7937 30.1122C72.8718 30.2401 72.9736 30.3312 73.0991 30.3857C73.2246 30.4377 73.3583 30.4638 73.5004 30.4638C73.5832 30.4638 73.6542 30.459 73.7134 30.4496C73.7726 30.4377 73.8247 30.4259 73.8697 30.4141L74.0046 30.9858C73.9431 31.0095 73.8673 31.0308 73.7773 31.0497C73.6874 31.071 73.5761 31.0817 73.4435 31.0817C73.2115 31.0817 72.9878 31.0308 72.7724 30.929C72.5593 30.8272 72.3841 30.6757 72.2468 30.4744C72.1095 30.2732 72.0408 30.0234 72.0408 29.7251V24.2386ZM77.5105 25.5455V26.0959H74.8294V25.5455H77.5105ZM75.6674 31V24.7464C75.6674 24.4529 75.7349 24.2055 75.8699 24.0043C76.0072 23.803 76.1859 23.6503 76.4061 23.5462C76.6262 23.442 76.8594 23.3899 77.1056 23.3899C77.2714 23.3899 77.4087 23.4041 77.5176 23.4325C77.6288 23.4586 77.7164 23.4846 77.7804 23.5107L77.5957 24.0646C77.5484 24.0504 77.4904 24.0339 77.4217 24.0149C77.353 23.996 77.2666 23.9865 77.1625 23.9865C76.8878 23.9865 76.676 24.0634 76.5268 24.2173C76.3777 24.3712 76.3031 24.5914 76.3031 24.8778L76.2995 31H75.6674ZM80.6674 31.1136C80.1963 31.1136 79.7797 30.9941 79.4174 30.755C79.0576 30.5159 78.7759 30.1856 78.5723 29.7642C78.3687 29.3404 78.2669 28.8516 78.2669 28.2976C78.2669 27.7389 78.3687 27.2476 78.5723 26.8239C78.7759 26.3977 79.0576 26.0663 79.4174 25.8295C79.7797 25.5904 80.1963 25.4709 80.6674 25.4709C81.1386 25.4709 81.554 25.5904 81.9139 25.8295C82.2737 26.0687 82.5555 26.4001 82.7591 26.8239C82.965 27.2476 83.068 27.7389 83.068 28.2976C83.068 28.8516 82.9662 29.3404 82.7626 29.7642C82.559 30.1856 82.2761 30.5159 81.9139 30.755C81.554 30.9941 81.1386 31.1136 80.6674 31.1136ZM80.6674 30.5348C81.0462 30.5348 81.367 30.433 81.6298 30.2294C81.8926 30.0258 82.0914 29.7547 82.2264 29.4162C82.3637 29.0777 82.4324 28.7048 82.4324 28.2976C82.4324 27.8904 82.3637 27.5163 82.2264 27.1754C82.0914 26.8345 81.8926 26.5611 81.6298 26.3551C81.367 26.1491 81.0462 26.0462 80.6674 26.0462C80.291 26.0462 79.9702 26.1491 79.7051 26.3551C79.4423 26.5611 79.2422 26.8345 79.1049 27.1754C78.97 27.5163 78.9025 27.8904 78.9025 28.2976C78.9025 28.7048 78.97 29.0777 79.1049 29.4162C79.2422 29.7547 79.4423 30.0258 79.7051 30.2294C79.9679 30.433 80.2886 30.5348 80.6674 30.5348ZM84.4556 31V25.5455H85.07V26.3835H85.1161C85.225 26.1089 85.4144 25.8875 85.6843 25.7195C85.9566 25.549 86.2643 25.4638 86.6076 25.4638C86.6597 25.4638 86.7177 25.465 86.7816 25.4673C86.8455 25.4697 86.8988 25.4721 86.9414 25.4744V26.1172C86.913 26.1125 86.8633 26.1054 86.7923 26.0959C86.7212 26.0864 86.6443 26.0817 86.5614 26.0817C86.2773 26.0817 86.024 26.142 85.8015 26.2628C85.5813 26.3812 85.4073 26.5457 85.2795 26.7564C85.1516 26.9671 85.0877 27.2074 85.0877 27.4773V31H84.4556ZM88.0201 31V25.5455H88.6344V26.3835H88.6912C88.8001 26.1018 88.9812 25.8804 89.2346 25.7195C89.4902 25.5561 89.7968 25.4744 90.1543 25.4744C90.5307 25.4744 90.8397 25.5632 91.0811 25.7408C91.325 25.916 91.5073 26.1574 91.628 26.4652H91.6742C91.7973 26.1622 91.9973 25.9219 92.2743 25.7443C92.5537 25.5644 92.8922 25.4744 93.29 25.4744C93.7966 25.4744 94.1967 25.6342 94.4902 25.9538C94.7838 26.2711 94.9306 26.7351 94.9306 27.3459V31H94.2985V27.3459C94.2985 26.915 94.1884 26.5919 93.9682 26.3764C93.748 26.161 93.458 26.0533 93.0982 26.0533C92.6815 26.0533 92.3607 26.1811 92.1358 26.4368C91.9109 26.6925 91.7985 27.0168 91.7985 27.4098V31H91.1522V27.2891C91.1522 26.9197 91.0492 26.6214 90.8432 26.3942C90.6373 26.1669 90.3472 26.0533 89.9732 26.0533C89.7222 26.0533 89.4962 26.1148 89.2949 26.2379C89.0961 26.361 88.9386 26.5327 88.8226 26.7528C88.709 26.9706 88.6522 27.2216 88.6522 27.5057V31H88.0201ZM100.269 26.7422L99.69 26.9055C99.6332 26.7422 99.5527 26.5942 99.4485 26.4616C99.3443 26.3291 99.2082 26.2237 99.0401 26.1456C98.8744 26.0675 98.6684 26.0284 98.4222 26.0284C98.0529 26.0284 97.7499 26.116 97.5131 26.2912C97.2764 26.4664 97.158 26.6925 97.158 26.9695C97.158 27.2038 97.2385 27.3944 97.3995 27.5412C97.5629 27.6856 97.8138 27.8004 98.1523 27.8857L98.9762 28.0881C99.4331 28.1993 99.7752 28.3757 100.002 28.6172C100.232 28.8587 100.347 29.1617 100.347 29.5263C100.347 29.834 100.262 30.1075 100.091 30.3466C99.9208 30.5857 99.6829 30.7739 99.3775 30.9112C99.0745 31.0462 98.7229 31.1136 98.3228 31.1136C97.7901 31.1136 97.351 30.9941 97.0053 30.755C96.6597 30.5135 96.4383 30.1655 96.3413 29.7109L96.9485 29.5618C97.0266 29.8861 97.1793 30.1312 97.4066 30.2969C97.6362 30.4626 97.9381 30.5455 98.3121 30.5455C98.7312 30.5455 99.0662 30.4519 99.3171 30.2649C99.5681 30.0755 99.6935 29.8388 99.6935 29.5547C99.6935 29.3345 99.6201 29.1499 99.4734 29.0007C99.3266 28.8492 99.104 28.7379 98.8058 28.6669L97.9144 28.4538C97.4409 28.3402 97.0906 28.1603 96.8633 27.9141C96.636 27.6679 96.5224 27.3625 96.5224 26.9979C96.5224 26.6972 96.604 26.4332 96.7674 26.206C96.9308 25.9763 97.1557 25.7964 97.4421 25.6662C97.7286 25.536 98.0553 25.4709 98.4222 25.4709C98.9218 25.4709 99.3207 25.5845 99.619 25.8118C99.9196 26.0367 100.136 26.3468 100.269 26.7422ZM23.8208 43L22.1731 37.5455H22.8407L24.1333 42.0447H24.1795L25.4686 37.5455H26.1397L27.4181 42.0341H27.4679L28.7605 37.5455H29.4281L27.7804 43H27.127L25.8343 38.5291H25.7669L24.4743 43H23.8208ZM30.6639 43V37.5455H31.2995V43H30.6639ZM30.987 36.608C30.8568 36.608 30.7456 36.5642 30.6532 36.4766C30.5609 36.3866 30.5147 36.2789 30.5147 36.1534C30.5147 36.0279 30.5609 35.9214 30.6532 35.8338C30.7456 35.7438 30.8568 35.6989 30.987 35.6989C31.1172 35.6989 31.2285 35.7438 31.3208 35.8338C31.4132 35.9214 31.4593 36.0279 31.4593 36.1534C31.4593 36.2789 31.4132 36.3866 31.3208 36.4766C31.2285 36.5642 31.1172 36.608 30.987 36.608ZM35.1197 37.5455V38.0959H32.5167V37.5455H35.1197ZM33.3299 36.2386H33.9656V41.576C33.9656 41.8033 34.0046 41.982 34.0827 42.1122C34.1609 42.2401 34.2627 42.3312 34.3881 42.3857C34.5136 42.4377 34.6474 42.4638 34.7894 42.4638C34.8723 42.4638 34.9433 42.459 35.0025 42.4496C35.0617 42.4377 35.1138 42.4259 35.1587 42.4141L35.2937 42.9858C35.2321 43.0095 35.1564 43.0308 35.0664 43.0497C34.9764 43.071 34.8652 43.0817 34.7326 43.0817C34.5006 43.0817 34.2769 43.0308 34.0614 42.929C33.8484 42.8272 33.6732 42.6757 33.5359 42.4744C33.3986 42.2732 33.3299 42.0234 33.3299 41.7251V36.2386ZM37.3045 39.5909V43H36.6724V35.7273H37.3045V38.4013H37.3613C37.4892 38.1196 37.6868 37.8946 37.9544 37.7266C38.2243 37.5585 38.5652 37.4744 38.9771 37.4744C39.3464 37.4744 39.6708 37.5502 39.9501 37.7017C40.2295 37.8532 40.4473 38.0769 40.6035 38.3729C40.7598 38.6688 40.8379 39.0334 40.8379 39.4666V43H40.2022V39.5057C40.2022 39.0559 40.0768 38.7019 39.8258 38.4439C39.5772 38.1835 39.2411 38.0533 38.8173 38.0533C38.5261 38.0533 38.2669 38.1148 38.0396 38.2379C37.8123 38.361 37.6324 38.5386 37.4998 38.7706C37.3696 39.0002 37.3045 39.2737 37.3045 39.5909ZM46.8384 43.1243C46.5094 43.1243 46.2087 43.0604 45.9364 42.9325C45.6642 42.8023 45.4476 42.6153 45.2866 42.3714C45.1256 42.1252 45.0451 41.8269 45.0451 41.4766C45.0451 41.2067 45.096 40.9794 45.1978 40.7947C45.2996 40.6101 45.444 40.4586 45.631 40.3402C45.8181 40.2218 46.0394 40.1283 46.2951 40.0597C46.5508 39.991 46.8325 39.9377 47.1403 39.8999C47.4457 39.862 47.7037 39.8288 47.9144 39.8004C48.1275 39.772 48.2897 39.727 48.4009 39.6655C48.5122 39.6039 48.5678 39.5045 48.5678 39.3672V39.2393C48.5678 38.8677 48.4566 38.5753 48.234 38.3622C48.0138 38.1468 47.6966 38.0391 47.2823 38.0391C46.8893 38.0391 46.5685 38.1255 46.32 38.2983C46.0737 38.4711 45.9009 38.6747 45.8015 38.9091L45.2013 38.6925C45.3245 38.3942 45.4949 38.1562 45.7127 37.9787C45.9305 37.7988 46.1744 37.6697 46.4442 37.5916C46.7141 37.5111 46.9876 37.4709 47.2646 37.4709C47.4729 37.4709 47.6895 37.4981 47.9144 37.5526C48.1417 37.607 48.3524 37.7017 48.5465 37.8366C48.7406 37.9692 48.8981 38.1551 49.0188 38.3942C49.1396 38.6309 49.1999 38.9316 49.1999 39.2962V43H48.5678V42.1371H48.5288C48.453 42.2981 48.3406 42.4543 48.1914 42.6058C48.0423 42.7573 47.8552 42.8816 47.6303 42.9787C47.4054 43.0758 47.1415 43.1243 46.8384 43.1243ZM46.9237 42.5455C47.2598 42.5455 47.551 42.4709 47.7972 42.3217C48.0434 42.1726 48.2328 41.9749 48.3654 41.7287C48.5004 41.4801 48.5678 41.2067 48.5678 40.9084V40.12C48.5205 40.165 48.4412 40.2053 48.3299 40.2408C48.221 40.2763 48.0943 40.3082 47.9499 40.3366C47.8079 40.3627 47.6658 40.3852 47.5238 40.4041C47.3817 40.4231 47.2539 40.4396 47.1403 40.4538C46.8325 40.4917 46.5697 40.5509 46.3519 40.6314C46.1341 40.7119 45.9672 40.8232 45.8512 40.9652C45.7352 41.1049 45.6772 41.2848 45.6772 41.505C45.6772 41.8364 45.7956 42.0933 46.0323 42.2756C46.2691 42.4555 46.5662 42.5455 46.9237 42.5455ZM50.8814 43V37.5455H51.4957V38.3835H51.5419C51.6508 38.1089 51.8402 37.8875 52.1101 37.7195C52.3823 37.549 52.6901 37.4638 53.0334 37.4638C53.0855 37.4638 53.1435 37.465 53.2074 37.4673C53.2713 37.4697 53.3246 37.4721 53.3672 37.4744V38.1172C53.3388 38.1125 53.2891 38.1054 53.218 38.0959C53.147 38.0864 53.0701 38.0817 52.9872 38.0817C52.7031 38.0817 52.4498 38.142 52.2273 38.2628C52.0071 38.3812 51.8331 38.5457 51.7053 38.7564C51.5774 38.9671 51.5135 39.2074 51.5135 39.4773V43H50.8814ZM56.9361 37.5455V38.0959H54.3331V37.5455H56.9361ZM55.1463 36.2386H55.782V41.576C55.782 41.8033 55.821 41.982 55.8991 42.1122C55.9773 42.2401 56.0791 42.3312 56.2045 42.3857C56.33 42.4377 56.4638 42.4638 56.6058 42.4638C56.6887 42.4638 56.7597 42.459 56.8189 42.4496C56.8781 42.4377 56.9302 42.4259 56.9751 42.4141L57.1101 42.9858C57.0485 43.0095 56.9728 43.0308 56.8828 43.0497C56.7929 43.071 56.6816 43.0817 56.549 43.0817C56.317 43.0817 56.0933 43.0308 55.8778 42.929C55.6648 42.8272 55.4896 42.6757 55.3523 42.4744C55.215 42.2732 55.1463 42.0234 55.1463 41.7251V36.2386ZM63.3148 43.1136C62.8271 43.1136 62.4022 42.9917 62.04 42.7479C61.6801 42.504 61.4007 42.1702 61.2019 41.7464C61.003 41.3227 60.9036 40.8397 60.9036 40.2976C60.9036 39.7507 61.0042 39.2642 61.2054 38.8381C61.409 38.4119 61.6908 38.0781 62.0506 37.8366C62.4105 37.5928 62.8283 37.4709 63.3042 37.4709C63.6687 37.4709 63.999 37.5419 64.2949 37.6839C64.5908 37.8236 64.8347 38.0213 65.0265 38.277C65.2206 38.5303 65.3425 38.8262 65.3922 39.1648H64.753C64.6867 38.857 64.5269 38.5942 64.2736 38.3764C64.0227 38.1562 63.7031 38.0462 63.3148 38.0462C62.9668 38.0462 62.659 38.1409 62.3915 38.3303C62.124 38.5173 61.9145 38.7789 61.763 39.1151C61.6138 39.4489 61.5392 39.8359 61.5392 40.2763C61.5392 40.719 61.6126 41.1108 61.7594 41.4517C61.9062 41.7902 62.1122 42.0554 62.3773 42.2472C62.6448 42.4389 62.9573 42.5348 63.3148 42.5348C63.5563 42.5348 63.7765 42.4898 63.9753 42.3999C64.1766 42.3075 64.3446 42.1773 64.4796 42.0092C64.6169 41.8411 64.7092 41.6411 64.7566 41.4091H65.3958C65.3484 41.7382 65.2312 42.0317 65.0442 42.2898C64.8596 42.5455 64.6193 42.7467 64.3233 42.8935C64.0298 43.0402 63.6936 43.1136 63.3148 43.1136ZM68.8706 43.1136C68.3994 43.1136 67.9828 42.9941 67.6206 42.755C67.2607 42.5159 66.979 42.1856 66.7754 41.7642C66.5718 41.3404 66.47 40.8516 66.47 40.2976C66.47 39.7389 66.5718 39.2476 66.7754 38.8239C66.979 38.3977 67.2607 38.0663 67.6206 37.8295C67.9828 37.5904 68.3994 37.4709 68.8706 37.4709C69.3417 37.4709 69.7572 37.5904 70.117 37.8295C70.4769 38.0687 70.7586 38.4001 70.9622 38.8239C71.1681 39.2476 71.2711 39.7389 71.2711 40.2976C71.2711 40.8516 71.1693 41.3404 70.9657 41.7642C70.7621 42.1856 70.4792 42.5159 70.117 42.755C69.7572 42.9941 69.3417 43.1136 68.8706 43.1136ZM68.8706 42.5348C69.2493 42.5348 69.5701 42.433 69.8329 42.2294C70.0957 42.0258 70.2946 41.7547 70.4295 41.4162C70.5668 41.0777 70.6355 40.7048 70.6355 40.2976C70.6355 39.8904 70.5668 39.5163 70.4295 39.1754C70.2946 38.8345 70.0957 38.5611 69.8329 38.3551C69.5701 38.1491 69.2493 38.0462 68.8706 38.0462C68.4941 38.0462 68.1734 38.1491 67.9082 38.3551C67.6454 38.5611 67.4454 38.8345 67.3081 39.1754C67.1731 39.5163 67.1056 39.8904 67.1056 40.2976C67.1056 40.7048 67.1731 41.0777 67.3081 41.4162C67.4454 41.7547 67.6454 42.0258 67.9082 42.2294C68.171 42.433 68.4918 42.5348 68.8706 42.5348ZM76.1246 40.9155V37.5455H76.7567V43H76.1246V42.0945H76.0749C75.9471 42.3738 75.7447 42.607 75.4677 42.794C75.1907 42.9787 74.8522 43.071 74.4521 43.071C74.104 43.071 73.7951 42.9953 73.5252 42.8438C73.2553 42.6899 73.0434 42.465 72.8896 42.169C72.7357 41.8731 72.6587 41.5097 72.6587 41.0788V37.5455H73.2908V41.0398C73.2908 41.4659 73.4163 41.8092 73.6673 42.0696C73.9182 42.3277 74.2402 42.4567 74.6332 42.4567C74.8794 42.4567 75.1161 42.3975 75.3434 42.2791C75.5707 42.1607 75.7577 41.9879 75.9045 41.7607C76.0513 41.531 76.1246 41.2493 76.1246 40.9155ZM78.4302 43V37.5455H79.0446V38.3835H79.0907C79.1996 38.1089 79.389 37.8875 79.6589 37.7195C79.9312 37.549 80.2389 37.4638 80.5822 37.4638C80.6343 37.4638 80.6923 37.465 80.7562 37.4673C80.8201 37.4697 80.8734 37.4721 80.916 37.4744V38.1172C80.8876 38.1125 80.8379 38.1054 80.7669 38.0959C80.6958 38.0864 80.6189 38.0817 80.536 38.0817C80.252 38.0817 79.9986 38.142 79.7761 38.2628C79.5559 38.3812 79.3819 38.5457 79.2541 38.7564C79.1262 38.9671 79.0623 39.2074 79.0623 39.4773V43H78.4302ZM85.6594 38.7422L85.0806 38.9055C85.0238 38.7422 84.9433 38.5942 84.8391 38.4616C84.735 38.3291 84.5988 38.2237 84.4308 38.1456C84.265 38.0675 84.0591 38.0284 83.8129 38.0284C83.4435 38.0284 83.1405 38.116 82.9038 38.2912C82.667 38.4664 82.5487 38.6925 82.5487 38.9695C82.5487 39.2038 82.6291 39.3944 82.7901 39.5412C82.9535 39.6856 83.2044 39.8004 83.543 39.8857L84.3668 40.0881C84.8237 40.1993 85.1658 40.3757 85.3931 40.6172C85.6228 40.8587 85.7376 41.1617 85.7376 41.5263C85.7376 41.834 85.6523 42.1075 85.4819 42.3466C85.3114 42.5857 85.0735 42.7739 84.7681 42.9112C84.4651 43.0462 84.1135 43.1136 83.7134 43.1136C83.1808 43.1136 82.7416 42.9941 82.396 42.755C82.0503 42.5135 81.829 42.1655 81.7319 41.7109L82.3391 41.5618C82.4173 41.8861 82.57 42.1312 82.7972 42.2969C83.0269 42.4626 83.3287 42.5455 83.7028 42.5455C84.1218 42.5455 84.4568 42.4519 84.7077 42.2649C84.9587 42.0755 85.0842 41.8388 85.0842 41.5547C85.0842 41.3345 85.0108 41.1499 84.864 41.0007C84.7172 40.8492 84.4947 40.7379 84.1964 40.6669L83.305 40.4538C82.8316 40.3402 82.4812 40.1603 82.2539 39.9141C82.0266 39.6679 81.913 39.3625 81.913 38.9979C81.913 38.6972 81.9947 38.4332 82.158 38.206C82.3214 37.9763 82.5463 37.7964 82.8327 37.6662C83.1192 37.536 83.4459 37.4709 83.8129 37.4709C84.3124 37.4709 84.7113 37.5845 85.0096 37.8118C85.3103 38.0367 85.5269 38.3468 85.6594 38.7422ZM89.3269 43.1136C88.8179 43.1136 88.3775 42.9953 88.0059 42.7585C87.6342 42.5194 87.3465 42.1892 87.1429 41.7678C86.9417 41.344 86.8411 40.8563 86.8411 40.3047C86.8411 39.7554 86.9417 39.2678 87.1429 38.8416C87.3465 38.4131 87.6271 38.0781 87.9846 37.8366C88.3444 37.5928 88.7599 37.4709 89.231 37.4709C89.5269 37.4709 89.8122 37.5253 90.0868 37.6342C90.3614 37.7408 90.6077 37.9053 90.8255 38.1278C91.0456 38.348 91.2196 38.6262 91.3475 38.9624C91.4753 39.2962 91.5392 39.6915 91.5392 40.1484V40.4609H87.2779V39.9034H90.8929C90.8929 39.553 90.8219 39.2382 90.6799 38.9588C90.5402 38.6771 90.3449 38.4545 90.0939 38.2912C89.8453 38.1278 89.5577 38.0462 89.231 38.0462C88.8854 38.0462 88.5811 38.1385 88.3184 38.3232C88.0556 38.5078 87.8496 38.7517 87.7005 39.0547C87.5537 39.3577 87.4791 39.6892 87.4767 40.049V40.3828C87.4767 40.8161 87.5513 41.1948 87.7005 41.5192C87.852 41.8411 88.0662 42.0909 88.3432 42.2685C88.6202 42.446 88.9481 42.5348 89.3269 42.5348C89.5849 42.5348 89.811 42.4946 90.0051 42.4141C90.2016 42.3336 90.3662 42.2259 90.4988 42.0909C90.6337 41.9536 90.7355 41.8033 90.8042 41.6399L91.4043 41.8352C91.3214 42.0649 91.1853 42.2768 90.9959 42.4709C90.8089 42.665 90.5745 42.8213 90.2928 42.9396C90.0134 43.0556 89.6915 43.1136 89.3269 43.1136ZM96.5969 38.7422L96.0181 38.9055C95.9613 38.7422 95.8808 38.5942 95.7766 38.4616C95.6725 38.3291 95.5363 38.2237 95.3683 38.1456C95.2025 38.0675 94.9966 38.0284 94.7504 38.0284C94.381 38.0284 94.078 38.116 93.8413 38.2912C93.6045 38.4664 93.4862 38.6925 93.4862 38.9695C93.4862 39.2038 93.5666 39.3944 93.7276 39.5412C93.891 39.6856 94.1419 39.8004 94.4805 39.8857L95.3043 40.0881C95.7612 40.1993 96.1033 40.3757 96.3306 40.6172C96.5603 40.8587 96.6751 41.1617 96.6751 41.5263C96.6751 41.834 96.5898 42.1075 96.4194 42.3466C96.2489 42.5857 96.011 42.7739 95.7056 42.9112C95.4026 43.0462 95.051 43.1136 94.6509 43.1136C94.1183 43.1136 93.6791 42.9941 93.3335 42.755C92.9878 42.5135 92.7665 42.1655 92.6694 41.7109L93.2766 41.5618C93.3548 41.8861 93.5075 42.1312 93.7347 42.2969C93.9644 42.4626 94.2662 42.5455 94.6403 42.5455C95.0593 42.5455 95.3943 42.4519 95.6452 42.2649C95.8962 42.0755 96.0217 41.8388 96.0217 41.5547C96.0217 41.3345 95.9483 41.1499 95.8015 41.0007C95.6547 40.8492 95.4322 40.7379 95.1339 40.6669L94.2425 40.4538C93.7691 40.3402 93.4187 40.1603 93.1914 39.9141C92.9641 39.6679 92.8505 39.3625 92.8505 38.9979C92.8505 38.6972 92.9322 38.4332 93.0955 38.206C93.2589 37.9763 93.4838 37.7964 93.7702 37.6662C94.0567 37.536 94.3834 37.4709 94.7504 37.4709C95.2499 37.4709 95.6488 37.5845 95.9471 37.8118C96.2478 38.0367 96.4644 38.3468 96.5969 38.7422ZM27.0249 55.1136C26.5774 55.1136 26.1856 54.9953 25.8494 54.7585C25.5133 54.5218 25.2505 54.1915 25.0611 53.7678C24.8741 53.344 24.7805 52.8504 24.7805 52.2869C24.7805 51.7259 24.8741 51.2346 25.0611 50.8132C25.2505 50.3894 25.5144 50.0604 25.853 49.826C26.1915 49.5893 26.5857 49.4709 27.0355 49.4709C27.367 49.4709 27.6428 49.5301 27.8629 49.6484C28.0831 49.7644 28.2595 49.9089 28.392 50.0817C28.5246 50.2545 28.6276 50.4226 28.701 50.5859H28.7578V47.7273H29.3935V55H28.7756V53.9879H28.701C28.6276 54.1536 28.5234 54.3241 28.3885 54.4993C28.2536 54.6721 28.0748 54.8177 27.8523 54.9361C27.6321 55.0545 27.3563 55.1136 27.0249 55.1136ZM27.0994 54.5348C27.4522 54.5348 27.7528 54.4389 28.0014 54.2472C28.25 54.053 28.4394 53.7867 28.5696 53.4482C28.7022 53.1072 28.7685 52.7166 28.7685 52.2763C28.7685 51.8407 28.7034 51.456 28.5732 51.1222C28.4429 50.786 28.2536 50.5232 28.005 50.3338C27.7564 50.142 27.4545 50.0462 27.0994 50.0462C26.7348 50.0462 26.4271 50.1456 26.1761 50.3445C25.9276 50.541 25.7382 50.8073 25.608 51.1435C25.4801 51.4796 25.4162 51.8572 25.4162 52.2763C25.4162 52.7 25.4813 53.0824 25.6115 53.4233C25.7417 53.7642 25.9311 54.0353 26.1797 54.2365C26.4306 54.4354 26.7372 54.5348 27.0994 54.5348ZM33.3139 55.1136C32.8428 55.1136 32.4261 54.9941 32.0639 54.755C31.7041 54.5159 31.4223 54.1856 31.2188 53.7642C31.0152 53.3404 30.9134 52.8516 30.9134 52.2976C30.9134 51.7389 31.0152 51.2476 31.2188 50.8239C31.4223 50.3977 31.7041 50.0663 32.0639 49.8295C32.4261 49.5904 32.8428 49.4709 33.3139 49.4709C33.785 49.4709 34.2005 49.5904 34.5604 49.8295C34.9202 50.0687 35.2019 50.4001 35.4055 50.8239C35.6115 51.2476 35.7145 51.7389 35.7145 52.2976C35.7145 52.8516 35.6127 53.3404 35.4091 53.7642C35.2055 54.1856 34.9226 54.5159 34.5604 54.755C34.2005 54.9941 33.785 55.1136 33.3139 55.1136ZM33.3139 54.5348C33.6927 54.5348 34.0135 54.433 34.2763 54.2294C34.5391 54.0258 34.7379 53.7547 34.8729 53.4162C35.0102 53.0777 35.0788 52.7048 35.0788 52.2976C35.0788 51.8904 35.0102 51.5163 34.8729 51.1754C34.7379 50.8345 34.5391 50.5611 34.2763 50.3551C34.0135 50.1491 33.6927 50.0462 33.3139 50.0462C32.9375 50.0462 32.6167 50.1491 32.3516 50.3551C32.0888 50.5611 31.8887 50.8345 31.7514 51.1754C31.6165 51.5163 31.549 51.8904 31.549 52.2976C31.549 52.7048 31.6165 53.0777 31.7514 53.4162C31.8887 53.7547 32.0888 54.0258 32.3516 54.2294C32.6143 54.433 32.9351 54.5348 33.3139 54.5348ZM37.7342 51.5909V55H37.1021V49.5455H37.7164V50.4013H37.7733C37.9011 50.1219 38.1 49.8982 38.3699 49.7301C38.6421 49.5597 38.9783 49.4744 39.3784 49.4744C39.7453 49.4744 40.0673 49.5514 40.3443 49.7053C40.6236 49.8568 40.8403 50.0805 40.9941 50.3764C41.1504 50.6723 41.2285 51.0357 41.2285 51.4666V55H40.5964V51.5057C40.5964 51.0582 40.4709 50.7043 40.22 50.4439C39.9714 50.1835 39.6376 50.0533 39.2186 50.0533C38.9321 50.0533 38.6776 50.1148 38.4551 50.2379C38.2325 50.361 38.0562 50.5386 37.926 50.7706C37.7981 51.0002 37.7342 51.2737 37.7342 51.5909ZM43.4684 47.7273V48.3665C43.4684 48.5606 43.4329 48.7678 43.3619 48.9879C43.2932 49.2057 43.1914 49.4176 43.0565 49.6236C42.9239 49.8272 42.7629 50.0047 42.5735 50.1562L42.229 49.8544C42.4066 49.6461 42.5569 49.4152 42.68 49.1619C42.8031 48.9062 42.8647 48.6446 42.8647 48.3771V47.7273H43.4684ZM46.9361 49.5455V50.0959H44.3331V49.5455H46.9361ZM45.1463 48.2386H45.782V53.576C45.782 53.8033 45.821 53.982 45.8991 54.1122C45.9773 54.2401 46.0791 54.3312 46.2045 54.3857C46.33 54.4377 46.4638 54.4638 46.6058 54.4638C46.6887 54.4638 46.7597 54.459 46.8189 54.4496C46.8781 54.4377 46.9302 54.4259 46.9751 54.4141L47.1101 54.9858C47.0485 55.0095 46.9728 55.0308 46.8828 55.0497C46.7929 55.071 46.6816 55.0817 46.549 55.0817C46.317 55.0817 46.0933 55.0308 45.8778 54.929C45.6648 54.8272 45.4896 54.6757 45.3523 54.4744C45.215 54.2732 45.1463 54.0234 45.1463 53.7251V48.2386ZM51.1841 55V49.5455H51.7985V50.3835H51.8553C51.9642 50.1018 52.1453 49.8804 52.3986 49.7195C52.6543 49.5561 52.9609 49.4744 53.3184 49.4744C53.6948 49.4744 54.0037 49.5632 54.2452 49.7408C54.4891 49.916 54.6713 50.1574 54.7921 50.4652H54.8382C54.9614 50.1622 55.1614 49.9219 55.4384 49.7443C55.7177 49.5644 56.0563 49.4744 56.454 49.4744C56.9606 49.4744 57.3607 49.6342 57.6543 49.9538C57.9479 50.2711 58.0946 50.7351 58.0946 51.3459V55H57.4625V51.3459C57.4625 50.915 57.3525 50.5919 57.1323 50.3764C56.9121 50.161 56.6221 50.0533 56.2623 50.0533C55.8456 50.0533 55.5248 50.1811 55.2999 50.4368C55.075 50.6925 54.9625 51.0168 54.9625 51.4098V55H54.3162V51.2891C54.3162 50.9197 54.2132 50.6214 54.0073 50.3942C53.8013 50.1669 53.5113 50.0533 53.1373 50.0533C52.8863 50.0533 52.6602 50.1148 52.459 50.2379C52.2601 50.361 52.1027 50.5327 51.9867 50.7528C51.873 50.9706 51.8162 51.2216 51.8162 51.5057V55H51.1841ZM61.2915 55.1243C60.9625 55.1243 60.6618 55.0604 60.3896 54.9325C60.1173 54.8023 59.9007 54.6153 59.7397 54.3714C59.5787 54.1252 59.4982 53.8269 59.4982 53.4766C59.4982 53.2067 59.5491 52.9794 59.6509 52.7947C59.7527 52.6101 59.8971 52.4586 60.0842 52.3402C60.2712 52.2218 60.4925 52.1283 60.7482 52.0597C61.0039 51.991 61.2856 51.9377 61.5934 51.8999C61.8988 51.862 62.1568 51.8288 62.3675 51.8004C62.5806 51.772 62.7428 51.727 62.854 51.6655C62.9653 51.6039 63.021 51.5045 63.021 51.3672V51.2393C63.021 50.8677 62.9097 50.5753 62.6871 50.3622C62.467 50.1468 62.1497 50.0391 61.7354 50.0391C61.3424 50.0391 61.0217 50.1255 60.7731 50.2983C60.5269 50.4711 60.354 50.6747 60.2546 50.9091L59.6545 50.6925C59.7776 50.3942 59.948 50.1562 60.1658 49.9787C60.3836 49.7988 60.6275 49.6697 60.8974 49.5916C61.1673 49.5111 61.4407 49.4709 61.7177 49.4709C61.926 49.4709 62.1426 49.4981 62.3675 49.5526C62.5948 49.607 62.8055 49.7017 62.9996 49.8366C63.1938 49.9692 63.3512 50.1551 63.4719 50.3942C63.5927 50.6309 63.6531 50.9316 63.6531 51.2962V55H63.021V54.1371H62.9819C62.9061 54.2981 62.7937 54.4543 62.6445 54.6058C62.4954 54.7573 62.3084 54.8816 62.0835 54.9787C61.8585 55.0758 61.5946 55.1243 61.2915 55.1243ZM61.3768 54.5455C61.7129 54.5455 62.0041 54.4709 62.2504 54.3217C62.4966 54.1726 62.686 53.9749 62.8185 53.7287C62.9535 53.4801 63.021 53.2067 63.021 52.9084V52.12C62.9736 52.165 62.8943 52.2053 62.783 52.2408C62.6741 52.2763 62.5475 52.3082 62.4031 52.3366C62.261 52.3627 62.119 52.3852 61.9769 52.4041C61.8349 52.4231 61.707 52.4396 61.5934 52.4538C61.2856 52.4917 61.0228 52.5509 60.805 52.6314C60.5872 52.7119 60.4203 52.8232 60.3043 52.9652C60.1883 53.1049 60.1303 53.2848 60.1303 53.505C60.1303 53.8364 60.2487 54.0933 60.4854 54.2756C60.7222 54.4555 61.0193 54.5455 61.3768 54.5455ZM65.9098 52.9403L65.9027 52.1129H66.0447L68.6016 49.5455H69.4006L66.8757 52.0739L66.8189 52.0845L65.9098 52.9403ZM65.3345 55V47.7273H65.9666V55H65.3345ZM68.733 55L66.517 52.1982L66.9716 51.7614L69.5426 55H68.733ZM72.5691 55.1136C72.0601 55.1136 71.6197 54.9953 71.248 54.7585C70.8764 54.5194 70.5887 54.1892 70.3851 53.7678C70.1839 53.344 70.0833 52.8563 70.0833 52.3047C70.0833 51.7554 70.1839 51.2678 70.3851 50.8416C70.5887 50.4131 70.8693 50.0781 71.2267 49.8366C71.5866 49.5928 72.0021 49.4709 72.4732 49.4709C72.7691 49.4709 73.0544 49.5253 73.329 49.6342C73.6036 49.7408 73.8498 49.9053 74.0676 50.1278C74.2878 50.348 74.4618 50.6262 74.5897 50.9624C74.7175 51.2962 74.7814 51.6915 74.7814 52.1484V52.4609H70.5201V51.9034H74.1351C74.1351 51.553 74.0641 51.2382 73.9221 50.9588C73.7824 50.6771 73.5871 50.4545 73.3361 50.2912C73.0875 50.1278 72.7999 50.0462 72.4732 50.0462C72.1275 50.0462 71.8233 50.1385 71.5605 50.3232C71.2978 50.5078 71.0918 50.7517 70.9426 51.0547C70.7959 51.3577 70.7213 51.6892 70.7189 52.049V52.3828C70.7189 52.8161 70.7935 53.1948 70.9426 53.5192C71.0942 53.8411 71.3084 54.0909 71.5854 54.2685C71.8624 54.446 72.1903 54.5348 72.5691 54.5348C72.8271 54.5348 73.0532 54.4946 73.2473 54.4141C73.4438 54.3336 73.6084 54.2259 73.7409 54.0909C73.8759 53.9536 73.9777 53.8033 74.0463 53.6399L74.6465 53.8352C74.5636 54.0649 74.4275 54.2768 74.2381 54.4709C74.0511 54.665 73.8167 54.8213 73.535 54.9396C73.2556 55.0556 72.9337 55.1136 72.5691 55.1136ZM80.5103 55.1243C80.1812 55.1243 79.8806 55.0604 79.6083 54.9325C79.3361 54.8023 79.1194 54.6153 78.9585 54.3714C78.7975 54.1252 78.717 53.8269 78.717 53.4766C78.717 53.2067 78.7679 52.9794 78.8697 52.7947C78.9715 52.6101 79.1159 52.4586 79.3029 52.3402C79.4899 52.2218 79.7113 52.1283 79.967 52.0597C80.2227 51.991 80.5044 51.9377 80.8121 51.8999C81.1175 51.862 81.3756 51.8288 81.5863 51.8004C81.7994 51.772 81.9615 51.727 82.0728 51.6655C82.1841 51.6039 82.2397 51.5045 82.2397 51.3672V51.2393C82.2397 50.8677 82.1284 50.5753 81.9059 50.3622C81.6857 50.1468 81.3685 50.0391 80.9542 50.0391C80.5612 50.0391 80.2404 50.1255 79.9918 50.2983C79.7456 50.4711 79.5728 50.6747 79.4734 50.9091L78.8732 50.6925C78.9963 50.3942 79.1668 50.1562 79.3846 49.9787C79.6024 49.7988 79.8462 49.6697 80.1161 49.5916C80.386 49.5111 80.6594 49.4709 80.9364 49.4709C81.1448 49.4709 81.3614 49.4981 81.5863 49.5526C81.8136 49.607 82.0243 49.7017 82.2184 49.8366C82.4125 49.9692 82.57 50.1551 82.6907 50.3942C82.8114 50.6309 82.8718 50.9316 82.8718 51.2962V55H82.2397V54.1371H82.2006C82.1249 54.2981 82.0124 54.4543 81.8633 54.6058C81.7141 54.7573 81.5271 54.8816 81.3022 54.9787C81.0773 55.0758 80.8133 55.1243 80.5103 55.1243ZM80.5955 54.5455C80.9317 54.5455 81.2229 54.4709 81.4691 54.3217C81.7153 54.1726 81.9047 53.9749 82.0373 53.7287C82.1722 53.4801 82.2397 53.2067 82.2397 52.9084V52.12C82.1924 52.165 82.113 52.2053 82.0018 52.2408C81.8929 52.2763 81.7662 52.3082 81.6218 52.3366C81.4798 52.3627 81.3377 52.3852 81.1957 52.4041C81.0536 52.4231 80.9258 52.4396 80.8121 52.4538C80.5044 52.4917 80.2416 52.5509 80.0238 52.6314C79.806 52.7119 79.6391 52.8232 79.5231 52.9652C79.4071 53.1049 79.3491 53.2848 79.3491 53.505C79.3491 53.8364 79.4674 54.0933 79.7042 54.2756C79.9409 54.4555 80.238 54.5455 80.5955 54.5455ZM85.1854 51.5909V55H84.5533V49.5455H85.1676V50.4013H85.2244C85.3523 50.1219 85.5511 49.8982 85.821 49.7301C86.0933 49.5597 86.4295 49.4744 86.8295 49.4744C87.1965 49.4744 87.5185 49.5514 87.7955 49.7053C88.0748 49.8568 88.2914 50.0805 88.4453 50.3764C88.6016 50.6723 88.6797 51.0357 88.6797 51.4666V55H88.0476V51.5057C88.0476 51.0582 87.9221 50.7043 87.6712 50.4439C87.4226 50.1835 87.0888 50.0533 86.6697 50.0533C86.3833 50.0533 86.1288 50.1148 85.9062 50.2379C85.6837 50.361 85.5073 50.5386 85.3771 50.7706C85.2493 51.0002 85.1854 51.2737 85.1854 51.5909ZM90.5893 57.0455C90.4638 57.0455 90.3467 57.0336 90.2377 57.0099C90.1288 56.9863 90.0424 56.9602 89.9785 56.9318L90.149 56.3743C90.3644 56.4406 90.5562 56.4643 90.7243 56.4453C90.8923 56.4287 91.0415 56.353 91.1717 56.218C91.3019 56.0855 91.4179 55.8819 91.5197 55.6072L91.7186 55.0533L89.7122 49.5455H90.3975L92.0169 54.1655H92.0666L93.6859 49.5455H94.3713L92.063 55.8629C91.966 56.1257 91.8464 56.3447 91.7044 56.5199C91.5623 56.6974 91.3978 56.8288 91.2108 56.9141C91.0261 57.0017 90.819 57.0455 90.5893 57.0455ZM17.6286 64.9403L17.6214 64.1129H17.7635L20.3203 61.5455H21.1193L18.5945 64.0739L18.5376 64.0845L17.6286 64.9403ZM17.0533 67V59.7273H17.6854V67H17.0533ZM20.4517 67L18.2358 64.1982L18.6903 63.7614L21.2614 67H20.4517ZM22.3143 67V61.5455H22.9499V67H22.3143ZM22.6374 60.608C22.5072 60.608 22.396 60.5642 22.3036 60.4766C22.2113 60.3866 22.1651 60.2789 22.1651 60.1534C22.1651 60.0279 22.2113 59.9214 22.3036 59.8338C22.396 59.7438 22.5072 59.6989 22.6374 59.6989C22.7676 59.6989 22.8789 59.7438 22.9712 59.8338C23.0636 59.9214 23.1097 60.0279 23.1097 60.1534C23.1097 60.2789 23.0636 60.3866 22.9712 60.4766C22.8789 60.5642 22.7676 60.608 22.6374 60.608ZM25.2537 63.5909V67H24.6216V61.5455H25.236V62.4013H25.2928C25.4206 62.1219 25.6195 61.8982 25.8894 61.7301C26.1616 61.5597 26.4978 61.4744 26.8979 61.4744C27.2649 61.4744 27.5868 61.5514 27.8638 61.7053C28.1432 61.8568 28.3598 62.0805 28.5137 62.3764C28.6699 62.6723 28.748 63.0357 28.748 63.4666V67H28.1159V63.5057C28.1159 63.0582 27.9905 62.7043 27.7395 62.4439C27.4909 62.1835 27.1571 62.0533 26.7381 62.0533C26.4516 62.0533 26.1971 62.1148 25.9746 62.2379C25.7521 62.361 25.5757 62.5386 25.4455 62.7706C25.3176 63.0002 25.2537 63.2737 25.2537 63.5909ZM32.3764 67.1136C31.929 67.1136 31.5372 66.9953 31.201 66.7585C30.8648 66.5218 30.602 66.1915 30.4126 65.7678C30.2256 65.344 30.1321 64.8504 30.1321 64.2869C30.1321 63.7259 30.2256 63.2346 30.4126 62.8132C30.602 62.3894 30.866 62.0604 31.2045 61.826C31.5431 61.5893 31.9373 61.4709 32.3871 61.4709C32.7185 61.4709 32.9943 61.5301 33.2145 61.6484C33.4347 61.7644 33.611 61.9089 33.7436 62.0817C33.8762 62.2545 33.9792 62.4226 34.0526 62.5859H34.1094V59.7273H34.745V67H34.1271V65.9879H34.0526C33.9792 66.1536 33.875 66.3241 33.7401 66.4993C33.6051 66.6721 33.4264 66.8177 33.2038 66.9361C32.9837 67.0545 32.7079 67.1136 32.3764 67.1136ZM32.451 66.5348C32.8037 66.5348 33.1044 66.4389 33.353 66.2472C33.6016 66.053 33.791 65.7867 33.9212 65.4482C34.0537 65.1072 34.12 64.7166 34.12 64.2763C34.12 63.8407 34.0549 63.456 33.9247 63.1222C33.7945 62.786 33.6051 62.5232 33.3565 62.3338C33.108 62.142 32.8061 62.0462 32.451 62.0462C32.0864 62.0462 31.7786 62.1456 31.5277 62.3445C31.2791 62.541 31.0897 62.8073 30.9595 63.1435C30.8317 63.4796 30.7678 63.8572 30.7678 64.2763C30.7678 64.7 30.8329 65.0824 30.9631 65.4233C31.0933 65.7642 31.2827 66.0353 31.5312 66.2365C31.7822 66.4354 32.0888 66.5348 32.451 66.5348ZM41.478 67.1136C41.0069 67.1136 40.5902 66.9941 40.228 66.755C39.8681 66.5159 39.5864 66.1856 39.3828 65.7642C39.1792 65.3404 39.0774 64.8516 39.0774 64.2976C39.0774 63.7389 39.1792 63.2476 39.3828 62.8239C39.5864 62.3977 39.8681 62.0663 40.228 61.8295C40.5902 61.5904 41.0069 61.4709 41.478 61.4709C41.9491 61.4709 42.3646 61.5904 42.7244 61.8295C43.0843 62.0687 43.366 62.4001 43.5696 62.8239C43.7756 63.2476 43.8786 63.7389 43.8786 64.2976C43.8786 64.8516 43.7768 65.3404 43.5732 65.7642C43.3696 66.1856 43.0866 66.5159 42.7244 66.755C42.3646 66.9941 41.9491 67.1136 41.478 67.1136ZM41.478 66.5348C41.8568 66.5348 42.1776 66.433 42.4403 66.2294C42.7031 66.0258 42.902 65.7547 43.0369 65.4162C43.1742 65.0777 43.2429 64.7048 43.2429 64.2976C43.2429 63.8904 43.1742 63.5163 43.0369 63.1754C42.902 62.8345 42.7031 62.5611 42.4403 62.3551C42.1776 62.1491 41.8568 62.0462 41.478 62.0462C41.1016 62.0462 40.7808 62.1491 40.5156 62.3551C40.2528 62.5611 40.0528 62.8345 39.9155 63.1754C39.7805 63.5163 39.7131 63.8904 39.7131 64.2976C39.7131 64.7048 39.7805 65.0777 39.9155 65.4162C40.0528 65.7547 40.2528 66.0258 40.5156 66.2294C40.7784 66.433 41.0992 66.5348 41.478 66.5348ZM47.5105 61.5455V62.0959H44.8294V61.5455H47.5105ZM45.6674 67V60.7464C45.6674 60.4529 45.7349 60.2055 45.8699 60.0043C46.0072 59.803 46.1859 59.6503 46.4061 59.5462C46.6262 59.442 46.8594 59.3899 47.1056 59.3899C47.2714 59.3899 47.4087 59.4041 47.5176 59.4325C47.6288 59.4586 47.7164 59.4846 47.7804 59.5107L47.5957 60.0646C47.5484 60.0504 47.4904 60.0339 47.4217 60.0149C47.353 59.996 47.2666 59.9865 47.1625 59.9865C46.8878 59.9865 46.676 60.0634 46.5268 60.2173C46.3777 60.3712 46.3031 60.5914 46.3031 60.8778L46.2995 67H45.6674ZM53.7152 67.1136C53.2275 67.1136 52.8026 66.9917 52.4403 66.7479C52.0805 66.504 51.8011 66.1702 51.6023 65.7464C51.4034 65.3227 51.304 64.8397 51.304 64.2976C51.304 63.7507 51.4046 63.2642 51.6058 62.8381C51.8094 62.4119 52.0911 62.0781 52.451 61.8366C52.8108 61.5928 53.2287 61.4709 53.7045 61.4709C54.0691 61.4709 54.3994 61.5419 54.6953 61.6839C54.9912 61.8236 55.2351 62.0213 55.4268 62.277C55.621 62.5303 55.7429 62.8262 55.7926 63.1648H55.1534C55.0871 62.857 54.9273 62.5942 54.674 62.3764C54.4231 62.1562 54.1035 62.0462 53.7152 62.0462C53.3672 62.0462 53.0594 62.1409 52.7919 62.3303C52.5244 62.5173 52.3149 62.7789 52.1634 63.1151C52.0142 63.4489 51.9396 63.8359 51.9396 64.2763C51.9396 64.719 52.013 65.1108 52.1598 65.4517C52.3066 65.7902 52.5125 66.0554 52.7777 66.2472C53.0452 66.4389 53.3577 66.5348 53.7152 66.5348C53.9567 66.5348 54.1768 66.4898 54.3757 66.3999C54.5769 66.3075 54.745 66.1773 54.88 66.0092C55.0173 65.8411 55.1096 65.6411 55.157 65.4091H55.7962C55.7488 65.7382 55.6316 66.0317 55.4446 66.2898C55.2599 66.5455 55.0196 66.7467 54.7237 66.8935C54.4302 67.0402 54.094 67.1136 53.7152 67.1136ZM59.271 67.1136C58.7998 67.1136 58.3832 66.9941 58.021 66.755C57.6611 66.5159 57.3794 66.1856 57.1758 65.7642C56.9722 65.3404 56.8704 64.8516 56.8704 64.2976C56.8704 63.7389 56.9722 63.2476 57.1758 62.8239C57.3794 62.3977 57.6611 62.0663 58.021 61.8295C58.3832 61.5904 58.7998 61.4709 59.271 61.4709C59.7421 61.4709 60.1576 61.5904 60.5174 61.8295C60.8772 62.0687 61.159 62.4001 61.3626 62.8239C61.5685 63.2476 61.6715 63.7389 61.6715 64.2976C61.6715 64.8516 61.5697 65.3404 61.3661 65.7642C61.1625 66.1856 60.8796 66.5159 60.5174 66.755C60.1576 66.9941 59.7421 67.1136 59.271 67.1136ZM59.271 66.5348C59.6497 66.5348 59.9705 66.433 60.2333 66.2294C60.4961 66.0258 60.695 65.7547 60.8299 65.4162C60.9672 65.0777 61.0359 64.7048 61.0359 64.2976C61.0359 63.8904 60.9672 63.5163 60.8299 63.1754C60.695 62.8345 60.4961 62.5611 60.2333 62.3551C59.9705 62.1491 59.6497 62.0462 59.271 62.0462C58.8945 62.0462 58.5737 62.1491 58.3086 62.3551C58.0458 62.5611 57.8458 62.8345 57.7085 63.1754C57.5735 63.5163 57.506 63.8904 57.506 64.2976C57.506 64.7048 57.5735 65.0777 57.7085 65.4162C57.8458 65.7547 58.0458 66.0258 58.3086 66.2294C58.5714 66.433 58.8922 66.5348 59.271 66.5348ZM63.6912 63.5909V67H63.0591V61.5455H63.6735V62.4013H63.7303C63.8581 62.1219 64.057 61.8982 64.3269 61.7301C64.5991 61.5597 64.9353 61.4744 65.3354 61.4744C65.7024 61.4744 66.0243 61.5514 66.3013 61.7053C66.5807 61.8568 66.7973 62.0805 66.9512 62.3764C67.1074 62.6723 67.1855 63.0357 67.1855 63.4666V67H66.5534V63.5057C66.5534 63.0582 66.428 62.7043 66.177 62.4439C65.9284 62.1835 65.5946 62.0533 65.1756 62.0533C64.8891 62.0533 64.6346 62.1148 64.4121 62.2379C64.1896 62.361 64.0132 62.5386 63.883 62.7706C63.7551 63.0002 63.6912 63.2737 63.6912 63.5909ZM69.4822 63.5909V67H68.8501V61.5455H69.4645V62.4013H69.5213C69.6491 62.1219 69.848 61.8982 70.1179 61.7301C70.3902 61.5597 70.7263 61.4744 71.1264 61.4744C71.4934 61.4744 71.8153 61.5514 72.0923 61.7053C72.3717 61.8568 72.5883 62.0805 72.7422 62.3764C72.8984 62.6723 72.9766 63.0357 72.9766 63.4666V67H72.3445V63.5057C72.3445 63.0582 72.219 62.7043 71.968 62.4439C71.7195 62.1835 71.3857 62.0533 70.9666 62.0533C70.6802 62.0533 70.4257 62.1148 70.2031 62.2379C69.9806 62.361 69.8042 62.5386 69.674 62.7706C69.5462 63.0002 69.4822 63.2737 69.4822 63.5909ZM76.8464 67.1136C76.3374 67.1136 75.8971 66.9953 75.5254 66.7585C75.1537 66.5194 74.8661 66.1892 74.6625 65.7678C74.4612 65.344 74.3606 64.8563 74.3606 64.3047C74.3606 63.7554 74.4612 63.2678 74.6625 62.8416C74.8661 62.4131 75.1466 62.0781 75.5041 61.8366C75.8639 61.5928 76.2794 61.4709 76.7505 61.4709C77.0465 61.4709 77.3317 61.5253 77.6064 61.6342C77.881 61.7408 78.1272 61.9053 78.345 62.1278C78.5652 62.348 78.7392 62.6262 78.867 62.9624C78.9949 63.2962 79.0588 63.6915 79.0588 64.1484V64.4609H74.7974V63.9034H78.4125C78.4125 63.553 78.3414 63.2382 78.1994 62.9588C78.0597 62.6771 77.8644 62.4545 77.6135 62.2912C77.3649 62.1278 77.0772 62.0462 76.7505 62.0462C76.4049 62.0462 76.1007 62.1385 75.8379 62.3232C75.5751 62.5078 75.3691 62.7517 75.22 63.0547C75.0732 63.3577 74.9986 63.6892 74.9963 64.049V64.3828C74.9963 64.8161 75.0708 65.1948 75.22 65.5192C75.3715 65.8411 75.5858 66.0909 75.8627 66.2685C76.1397 66.446 76.4676 66.5348 76.8464 66.5348C77.1045 66.5348 77.3306 66.4946 77.5247 66.4141C77.7212 66.3336 77.8857 66.2259 78.0183 66.0909C78.1532 65.9536 78.255 65.8033 78.3237 65.6399L78.9238 65.8352C78.841 66.0649 78.7048 66.2768 78.5154 66.4709C78.3284 66.665 78.094 66.8213 77.8123 66.9396C77.533 67.0556 77.211 67.1136 76.8464 67.1136ZM82.5824 67.1136C82.0947 67.1136 81.6697 66.9917 81.3075 66.7479C80.9477 66.504 80.6683 66.1702 80.4695 65.7464C80.2706 65.3227 80.1712 64.8397 80.1712 64.2976C80.1712 63.7507 80.2718 63.2642 80.473 62.8381C80.6766 62.4119 80.9583 62.0781 81.3182 61.8366C81.678 61.5928 82.0959 61.4709 82.5717 61.4709C82.9363 61.4709 83.2666 61.5419 83.5625 61.6839C83.8584 61.8236 84.1023 62.0213 84.294 62.277C84.4882 62.5303 84.6101 62.8262 84.6598 63.1648H84.0206C83.9543 62.857 83.7945 62.5942 83.5412 62.3764C83.2902 62.1562 82.9706 62.0462 82.5824 62.0462C82.2344 62.0462 81.9266 62.1409 81.6591 62.3303C81.3916 62.5173 81.1821 62.7789 81.0305 63.1151C80.8814 63.4489 80.8068 63.8359 80.8068 64.2763C80.8068 64.719 80.8802 65.1108 81.027 65.4517C81.1738 65.7902 81.3797 66.0554 81.6449 66.2472C81.9124 66.4389 82.2249 66.5348 82.5824 66.5348C82.8239 66.5348 83.044 66.4898 83.2429 66.3999C83.4441 66.3075 83.6122 66.1773 83.7472 66.0092C83.8845 65.8411 83.9768 65.6411 84.0241 65.4091H84.6634C84.616 65.7382 84.4988 66.0317 84.3118 66.2898C84.1271 66.5455 83.8868 66.7467 83.5909 66.8935C83.2973 67.0402 82.9612 67.1136 82.5824 67.1136ZM88.1665 61.5455V62.0959H85.5636V61.5455H88.1665ZM86.3768 60.2386H87.0124V65.576C87.0124 65.8033 87.0515 65.982 87.1296 66.1122C87.2077 66.2401 87.3095 66.3312 87.435 66.3857C87.5605 66.4377 87.6942 66.4638 87.8363 66.4638C87.9192 66.4638 87.9902 66.459 88.0494 66.4496C88.1085 66.4377 88.1606 66.4259 88.2056 66.4141L88.3406 66.9858C88.279 67.0095 88.2032 67.0308 88.1133 67.0497C88.0233 67.071 87.9121 67.0817 87.7795 67.0817C87.5475 67.0817 87.3237 67.0308 87.1083 66.929C86.8952 66.8272 86.7201 66.6757 86.5827 66.4744C86.4454 66.2732 86.3768 66.0234 86.3768 65.7251V60.2386ZM89.6092 67V61.5455H90.2449V67H89.6092ZM89.9324 60.608C89.8021 60.608 89.6909 60.5642 89.5985 60.4766C89.5062 60.3866 89.46 60.2789 89.46 60.1534C89.46 60.0279 89.5062 59.9214 89.5985 59.8338C89.6909 59.7438 89.8021 59.6989 89.9324 59.6989C90.0626 59.6989 90.1738 59.7438 90.2662 59.8338C90.3585 59.9214 90.4047 60.0279 90.4047 60.1534C90.4047 60.2789 90.3585 60.3866 90.2662 60.4766C90.1738 60.5642 90.0626 60.608 89.9324 60.608ZM94.0366 67.1136C93.5655 67.1136 93.1488 66.9941 92.7866 66.755C92.4267 66.5159 92.145 66.1856 91.9414 65.7642C91.7378 65.3404 91.636 64.8516 91.636 64.2976C91.636 63.7389 91.7378 63.2476 91.9414 62.8239C92.145 62.3977 92.4267 62.0663 92.7866 61.8295C93.1488 61.5904 93.5655 61.4709 94.0366 61.4709C94.5077 61.4709 94.9232 61.5904 95.283 61.8295C95.6429 62.0687 95.9246 62.4001 96.1282 62.8239C96.3342 63.2476 96.4371 63.7389 96.4371 64.2976C96.4371 64.8516 96.3353 65.3404 96.1317 65.7642C95.9281 66.1856 95.6452 66.5159 95.283 66.755C94.9232 66.9941 94.5077 67.1136 94.0366 67.1136ZM94.0366 66.5348C94.4154 66.5348 94.7362 66.433 94.9989 66.2294C95.2617 66.0258 95.4606 65.7547 95.5955 65.4162C95.7328 65.0777 95.8015 64.7048 95.8015 64.2976C95.8015 63.8904 95.7328 63.5163 95.5955 63.1754C95.4606 62.8345 95.2617 62.5611 94.9989 62.3551C94.7362 62.1491 94.4154 62.0462 94.0366 62.0462C93.6602 62.0462 93.3394 62.1491 93.0742 62.3551C92.8114 62.5611 92.6114 62.8345 92.4741 63.1754C92.3391 63.5163 92.2717 63.8904 92.2717 64.2976C92.2717 64.7048 92.3391 65.0777 92.4741 65.4162C92.6114 65.7547 92.8114 66.0258 93.0742 66.2294C93.337 66.433 93.6578 66.5348 94.0366 66.5348ZM98.4569 63.5909V67H97.8248V61.5455H98.4391V62.4013H98.4959C98.6238 62.1219 98.8226 61.8982 99.0925 61.7301C99.3648 61.5597 99.7009 61.4744 100.101 61.4744C100.468 61.4744 100.79 61.5514 101.067 61.7053C101.346 61.8568 101.563 62.0805 101.717 62.3764C101.873 62.6723 101.951 63.0357 101.951 63.4666V67H101.319V63.5057C101.319 63.0582 101.194 62.7043 100.943 62.4439C100.694 62.1835 100.36 62.0533 99.9412 62.0533C99.6548 62.0533 99.4003 62.1148 99.1777 62.2379C98.9552 62.361 98.7788 62.5386 98.6486 62.7706C98.5208 63.0002 98.4569 63.2737 98.4569 63.5909ZM32.9761 79L31.3284 73.5455H31.996L33.2886 78.0447H33.3348L34.6238 73.5455H35.295L36.5734 78.0341H36.6231L37.9157 73.5455H38.5834L36.9356 79H36.2822L34.9896 74.5291H34.9221L33.6295 79H32.9761ZM39.8192 79V73.5455H40.4548V79H39.8192ZM40.1423 72.608C40.0121 72.608 39.9008 72.5642 39.8085 72.4766C39.7162 72.3866 39.67 72.2789 39.67 72.1534C39.67 72.0279 39.7162 71.9214 39.8085 71.8338C39.9008 71.7438 40.0121 71.6989 40.1423 71.6989C40.2725 71.6989 40.3838 71.7438 40.4761 71.8338C40.5684 71.9214 40.6146 72.0279 40.6146 72.1534C40.6146 72.2789 40.5684 72.3866 40.4761 72.4766C40.3838 72.5642 40.2725 72.608 40.1423 72.608ZM44.2749 73.5455V74.0959H41.672V73.5455H44.2749ZM42.4852 72.2386H43.1208V77.576C43.1208 77.8033 43.1599 77.982 43.238 78.1122C43.3161 78.2401 43.4179 78.3312 43.5434 78.3857C43.6689 78.4377 43.8026 78.4638 43.9447 78.4638C44.0276 78.4638 44.0986 78.459 44.1578 78.4496C44.2169 78.4377 44.269 78.4259 44.314 78.4141L44.449 78.9858C44.3874 79.0095 44.3116 79.0308 44.2217 79.0497C44.1317 79.071 44.0204 79.0817 43.8879 79.0817C43.6559 79.0817 43.4321 79.0308 43.2167 78.929C43.0036 78.8272 42.8285 78.6757 42.6911 78.4744C42.5538 78.2732 42.4852 78.0234 42.4852 77.7251V72.2386ZM46.4598 75.5909V79H45.8277V71.7273H46.4598V74.4013H46.5166C46.6444 74.1196 46.8421 73.8946 47.1096 73.7266C47.3795 73.5585 47.7204 73.4744 48.1324 73.4744C48.5017 73.4744 48.826 73.5502 49.1054 73.7017C49.3847 73.8532 49.6025 74.0769 49.7588 74.3729C49.915 74.6688 49.9932 75.0334 49.9932 75.4666V79H49.3575V75.5057C49.3575 75.0559 49.232 74.7019 48.9811 74.4439C48.7325 74.1835 48.3963 74.0533 47.9726 74.0533C47.6814 74.0533 47.4221 74.1148 47.1949 74.2379C46.9676 74.361 46.7877 74.5386 46.6551 74.7706C46.5249 75.0002 46.4598 75.2737 46.4598 75.5909ZM56.6009 79.1136C56.1133 79.1136 55.6883 78.9917 55.3261 78.7479C54.9662 78.504 54.6869 78.1702 54.488 77.7464C54.2892 77.3227 54.1897 76.8397 54.1897 76.2976C54.1897 75.7507 54.2903 75.2642 54.4916 74.8381C54.6952 74.4119 54.9769 74.0781 55.3367 73.8366C55.6966 73.5928 56.1144 73.4709 56.5903 73.4709C56.9549 73.4709 57.2851 73.5419 57.5811 73.6839C57.877 73.8236 58.1208 74.0213 58.3126 74.277C58.5067 74.5303 58.6286 74.8262 58.6784 75.1648H58.0392C57.9729 74.857 57.8131 74.5942 57.5597 74.3764C57.3088 74.1562 56.9892 74.0462 56.6009 74.0462C56.2529 74.0462 55.9452 74.1409 55.6776 74.3303C55.4101 74.5173 55.2006 74.7789 55.0491 75.1151C54.8999 75.4489 54.8254 75.8359 54.8254 76.2763C54.8254 76.719 54.8988 77.1108 55.0455 77.4517C55.1923 77.7902 55.3983 78.0554 55.6634 78.2472C55.931 78.4389 56.2435 78.5348 56.6009 78.5348C56.8424 78.5348 57.0626 78.4898 57.2615 78.3999C57.4627 78.3075 57.6308 78.1773 57.7657 78.0092C57.903 77.8411 57.9954 77.6411 58.0427 77.4091H58.6819C58.6346 77.7382 58.5174 78.0317 58.3303 78.2898C58.1457 78.5455 57.9054 78.7467 57.6095 78.8935C57.3159 79.0402 56.9797 79.1136 56.6009 79.1136ZM63.5026 76.9155V73.5455H64.1347V79H63.5026V78.0945H63.4529C63.325 78.3738 63.1226 78.607 62.8456 78.794C62.5686 78.9787 62.2301 79.071 61.83 79.071C61.482 79.071 61.173 78.9953 60.9031 78.8438C60.6333 78.6899 60.4214 78.465 60.2675 78.169C60.1136 77.8731 60.0367 77.5097 60.0367 77.0788V73.5455H60.6688V77.0398C60.6688 77.4659 60.7942 77.8092 61.0452 78.0696C61.2961 78.3277 61.6181 78.4567 62.0111 78.4567C62.2573 78.4567 62.4941 78.3975 62.7213 78.2791C62.9486 78.1607 63.1356 77.9879 63.2824 77.7607C63.4292 77.531 63.5026 77.2493 63.5026 76.9155ZM66.4403 71.7273V79H65.8081V71.7273H66.4403ZM70.2613 73.5455V74.0959H67.6583V73.5455H70.2613ZM68.4715 72.2386H69.1072V77.576C69.1072 77.8033 69.1462 77.982 69.2243 78.1122C69.3025 78.2401 69.4043 78.3312 69.5297 78.3857C69.6552 78.4377 69.789 78.4638 69.931 78.4638C70.0139 78.4638 70.0849 78.459 70.1441 78.4496C70.2033 78.4377 70.2554 78.4259 70.3003 78.4141L70.4353 78.9858C70.3737 79.0095 70.298 79.0308 70.208 79.0497C70.118 79.071 70.0068 79.0817 69.8742 79.0817C69.6422 79.0817 69.4185 79.0308 69.203 78.929C68.99 78.8272 68.8148 78.6757 68.6775 78.4744C68.5402 78.2732 68.4715 78.0234 68.4715 77.7251V72.2386ZM75.1627 76.9155V73.5455H75.7948V79H75.1627V78.0945H75.113C74.9852 78.3738 74.7828 78.607 74.5058 78.794C74.2288 78.9787 73.8902 79.071 73.4901 79.071C73.1421 79.071 72.8332 78.9953 72.5633 78.8438C72.2934 78.6899 72.0815 78.465 71.9276 78.169C71.7738 77.8731 71.6968 77.5097 71.6968 77.0788V73.5455H72.3289V77.0398C72.3289 77.4659 72.4544 77.8092 72.7053 78.0696C72.9563 78.3277 73.2783 78.4567 73.6713 78.4567C73.9175 78.4567 74.1542 78.3975 74.3815 78.2791C74.6088 78.1607 74.7958 77.9879 74.9426 77.7607C75.0893 77.531 75.1627 77.2493 75.1627 76.9155ZM77.4683 79V73.5455H78.0827V74.3835H78.1288C78.2377 74.1089 78.4271 73.8875 78.697 73.7195C78.9693 73.549 79.277 73.4638 79.6203 73.4638C79.6724 73.4638 79.7304 73.465 79.7943 73.4673C79.8582 73.4697 79.9115 73.4721 79.9541 73.4744V74.1172C79.9257 74.1125 79.876 74.1054 79.805 74.0959C79.7339 74.0864 79.657 74.0817 79.5741 74.0817C79.29 74.0817 79.0367 74.142 78.8142 74.2628C78.594 74.3812 78.42 74.5457 78.2922 74.7564C78.1643 74.9671 78.1004 75.2074 78.1004 75.4773V79H77.4683ZM82.5562 79.1243C82.2271 79.1243 81.9265 79.0604 81.6542 78.9325C81.382 78.8023 81.1653 78.6153 81.0044 78.3714C80.8434 78.1252 80.7629 77.8269 80.7629 77.4766C80.7629 77.2067 80.8138 76.9794 80.9156 76.7947C81.0174 76.6101 81.1618 76.4586 81.3488 76.3402C81.5358 76.2218 81.7572 76.1283 82.0129 76.0597C82.2686 75.991 82.5503 75.9377 82.858 75.8999C83.1634 75.862 83.4215 75.8288 83.6322 75.8004C83.8453 75.772 84.0074 75.727 84.1187 75.6655C84.23 75.6039 84.2856 75.5045 84.2856 75.3672V75.2393C84.2856 74.8677 84.1743 74.5753 83.9518 74.3622C83.7316 74.1468 83.4144 74.0391 83.0001 74.0391C82.6071 74.0391 82.2863 74.1255 82.0377 74.2983C81.7915 74.4711 81.6187 74.6747 81.5193 74.9091L80.9191 74.6925C81.0422 74.3942 81.2127 74.1562 81.4305 73.9787C81.6483 73.7988 81.8921 73.6697 82.162 73.5916C82.4319 73.5111 82.7053 73.4709 82.9823 73.4709C83.1907 73.4709 83.4073 73.4981 83.6322 73.5526C83.8595 73.607 84.0702 73.7017 84.2643 73.8366C84.4584 73.9692 84.6159 74.1551 84.7366 74.3942C84.8573 74.6309 84.9177 74.9316 84.9177 75.2962V79H84.2856V78.1371H84.2465C84.1708 78.2981 84.0583 78.4543 83.9092 78.6058C83.76 78.7573 83.573 78.8816 83.3481 78.9787C83.1232 79.0758 82.8592 79.1243 82.5562 79.1243ZM82.6414 78.5455C82.9776 78.5455 83.2688 78.4709 83.515 78.3217C83.7612 78.1726 83.9506 77.9749 84.0832 77.7287C84.2181 77.4801 84.2856 77.2067 84.2856 76.9084V76.12C84.2383 76.165 84.1589 76.2053 84.0477 76.2408C83.9388 76.2763 83.8121 76.3082 83.6677 76.3366C83.5257 76.3627 83.3836 76.3852 83.2416 76.4041C83.0995 76.4231 82.9717 76.4396 82.858 76.4538C82.5503 76.4917 82.2875 76.5509 82.0697 76.6314C81.8519 76.7119 81.685 76.8232 81.569 76.9652C81.453 77.1049 81.395 77.2848 81.395 77.505C81.395 77.8364 81.5133 78.0933 81.7501 78.2756C81.9868 78.4555 82.2839 78.5455 82.6414 78.5455ZM87.2313 71.7273V79H86.5992V71.7273H87.2313ZM46.9782 91.1136C46.4693 91.1136 46.0289 90.9953 45.6572 90.7585C45.2855 90.5194 44.9979 90.1892 44.7943 89.7678C44.5931 89.344 44.4925 88.8563 44.4925 88.3047C44.4925 87.7554 44.5931 87.2678 44.7943 86.8416C44.9979 86.4131 45.2784 86.0781 45.6359 85.8366C45.9958 85.5928 46.4113 85.4709 46.8824 85.4709C47.1783 85.4709 47.4636 85.5253 47.7382 85.6342C48.0128 85.7408 48.259 85.9053 48.4768 86.1278C48.697 86.348 48.871 86.6262 48.9988 86.9624C49.1267 87.2962 49.1906 87.6915 49.1906 88.1484V88.4609H44.9292V87.9034H48.5443C48.5443 87.553 48.4733 87.2382 48.3312 86.9588C48.1916 86.6771 47.9962 86.4545 47.7453 86.2912C47.4967 86.1278 47.2091 86.0462 46.8824 86.0462C46.5367 86.0462 46.2325 86.1385 45.9697 86.3232C45.7069 86.5078 45.501 86.7517 45.3518 87.0547C45.205 87.3577 45.1305 87.6892 45.1281 88.049V88.3828C45.1281 88.8161 45.2027 89.1948 45.3518 89.5192C45.5033 89.8411 45.7176 90.0909 45.9946 90.2685C46.2716 90.446 46.5995 90.5348 46.9782 90.5348C47.2363 90.5348 47.4624 90.4946 47.6565 90.4141C47.853 90.3336 48.0175 90.2259 48.1501 90.0909C48.2851 89.9536 48.3869 89.8033 48.4555 89.6399L49.0557 89.8352C48.9728 90.0649 48.8367 90.2768 48.6473 90.4709C48.4603 90.665 48.2259 90.8213 47.9442 90.9396C47.6648 91.0556 47.3428 91.1136 46.9782 91.1136ZM54.6398 85.5455L52.6476 91H51.9729L49.9807 85.5455H50.6661L52.2854 90.1655H52.3351L53.9545 85.5455H54.6398ZM57.8865 91.1136C57.3775 91.1136 56.9371 90.9953 56.5654 90.7585C56.1937 90.5194 55.9061 90.1892 55.7025 89.7678C55.5013 89.344 55.4007 88.8563 55.4007 88.3047C55.4007 87.7554 55.5013 87.2678 55.7025 86.8416C55.9061 86.4131 56.1866 86.0781 56.5441 85.8366C56.904 85.5928 57.3195 85.4709 57.7906 85.4709C58.0865 85.4709 58.3718 85.5253 58.6464 85.6342C58.921 85.7408 59.1672 85.9053 59.385 86.1278C59.6052 86.348 59.7792 86.6262 59.907 86.9624C60.0349 87.2962 60.0988 87.6915 60.0988 88.1484V88.4609H55.8374V87.9034H59.4525C59.4525 87.553 59.3815 87.2382 59.2394 86.9588C59.0998 86.6771 58.9044 86.4545 58.6535 86.2912C58.4049 86.1278 58.1173 86.0462 57.7906 86.0462C57.4449 86.0462 57.1407 86.1385 56.8779 86.3232C56.6151 86.5078 56.4092 86.7517 56.26 87.0547C56.1133 87.3577 56.0387 87.6892 56.0363 88.049V88.3828C56.0363 88.8161 56.1109 89.1948 56.26 89.5192C56.4115 89.8411 56.6258 90.0909 56.9028 90.2685C57.1798 90.446 57.5077 90.5348 57.8865 90.5348C58.1445 90.5348 58.3706 90.4946 58.5647 90.4141C58.7612 90.3336 58.9258 90.2259 59.0583 90.0909C59.1933 89.9536 59.2951 89.8033 59.3637 89.6399L59.9639 89.8352C59.881 90.0649 59.7449 90.2768 59.5555 90.4709C59.3685 90.665 59.1341 90.8213 58.8524 90.9396C58.573 91.0556 58.251 91.1136 57.8865 91.1136ZM62.1238 87.5909V91H61.4917V85.5455H62.1061V86.4013H62.1629C62.2907 86.1219 62.4896 85.8982 62.7595 85.7301C63.0318 85.5597 63.3679 85.4744 63.768 85.4744C64.135 85.4744 64.4569 85.5514 64.7339 85.7053C65.0133 85.8568 65.2299 86.0805 65.3838 86.3764C65.54 86.6723 65.6182 87.0357 65.6182 87.4666V91H64.9861V87.5057C64.9861 87.0582 64.8606 86.7043 64.6096 86.4439C64.3611 86.1835 64.0273 86.0533 63.6082 86.0533C63.3218 86.0533 63.0673 86.1148 62.8447 86.2379C62.6222 86.361 62.4458 86.5386 62.3156 86.7706C62.1878 87.0002 62.1238 87.2737 62.1238 87.5909ZM69.4312 85.5455V86.0959H66.8282V85.5455H69.4312ZM67.6414 84.2386H68.2771V89.576C68.2771 89.8033 68.3161 89.982 68.3943 90.1122C68.4724 90.2401 68.5742 90.3312 68.6997 90.3857C68.8251 90.4377 68.9589 90.4638 69.1009 90.4638C69.1838 90.4638 69.2548 90.459 69.314 90.4496C69.3732 90.4377 69.4253 90.4259 69.4703 90.4141L69.6052 90.9858C69.5436 91.0095 69.4679 91.0308 69.3779 91.0497C69.288 91.071 69.1767 91.0817 69.0441 91.0817C68.8121 91.0817 68.5884 91.0308 68.373 90.929C68.1599 90.8272 67.9847 90.6757 67.8474 90.4744C67.7101 90.2732 67.6414 90.0234 67.6414 89.7251V84.2386ZM74.4339 86.7422L73.855 86.9055C73.7982 86.7422 73.7177 86.5942 73.6135 86.4616C73.5094 86.3291 73.3733 86.2237 73.2052 86.1456C73.0394 86.0675 72.8335 86.0284 72.5873 86.0284C72.218 86.0284 71.9149 86.116 71.6782 86.2912C71.4414 86.4664 71.3231 86.6925 71.3231 86.9695C71.3231 87.2038 71.4036 87.3944 71.5645 87.5412C71.7279 87.6856 71.9788 87.8004 72.3174 87.8857L73.1412 88.0881C73.5982 88.1993 73.9403 88.3757 74.1675 88.6172C74.3972 88.8587 74.512 89.1617 74.512 89.5263C74.512 89.834 74.4268 90.1075 74.2563 90.3466C74.0858 90.5857 73.8479 90.7739 73.5425 90.9112C73.2395 91.0462 72.8879 91.1136 72.4878 91.1136C71.9552 91.1136 71.516 90.9941 71.1704 90.755C70.8247 90.5135 70.6034 90.1655 70.5063 89.7109L71.1135 89.5618C71.1917 89.8861 71.3444 90.1312 71.5716 90.2969C71.8013 90.4626 72.1031 90.5455 72.4772 90.5455C72.8962 90.5455 73.2312 90.4519 73.4822 90.2649C73.7331 90.0755 73.8586 89.8388 73.8586 89.5547C73.8586 89.3345 73.7852 89.1499 73.6384 89.0007C73.4916 88.8492 73.2691 88.7379 72.9708 88.6669L72.0795 88.4538C71.606 88.3402 71.2556 88.1603 71.0283 87.9141C70.801 87.6679 70.6874 87.3625 70.6874 86.9979C70.6874 86.6972 70.7691 86.4332 70.9324 86.206C71.0958 85.9763 71.3207 85.7964 71.6072 85.6662C71.8936 85.536 72.2203 85.4709 72.5873 85.4709C73.0868 85.4709 73.4857 85.5845 73.784 85.8118C74.0847 86.0367 74.3013 86.3468 74.4339 86.7422Z" fill="#222222"/>
<defs>
<filter id="filter0_d_954_120" x="0" y="0" width="118" height="118" filterUnits="userSpaceOnUse" color-interpolation-filters="sRGB">
<feFlood flood-opacity="0" result="BackgroundImageFix"/>
<feColorMatrix in="SourceAlpha" type="matrix" values="0 0 0 0 0 0 0 0 0 0 0 0 0 0 0 0 0 0 127 0" result="hardAlpha"/>
<feOffset dy="4"/>
<feGaussianBlur stdDeviation="2"/>
<feComposite in2="hardAlpha" operator="out"/>
<feColorMatrix type="matrix" values="0 0 0 0 0 0 0 0 0 0 0 0 0 0 0 0 0 0 0.25 0"/>
<feBlend mode="normal" in2="BackgroundImageFix" result="effect1_dropShadow_954_120"/>
<feBlend mode="normal" in="SourceGraphic" in2="effect1_dropShadow_954_120" result="shape"/>
</filter>
</defs>
</svg>
