<svg width="118" height="118" viewBox="0 0 118 118" fill="none" xmlns="http://www.w3.org/2000/svg">
<g filter="url(#filter0_d_954_121)">
<rect x="4" width="110" height="110" fill="#BFBDD0"/>
</g>
<path d="M35.1578 25.5455V26.0959H32.5548V25.5455H35.1578ZM33.368 24.2386H34.0036V29.576C34.0036 29.8033 34.0427 29.982 34.1208 30.1122C34.199 30.2401 34.3008 30.3312 34.4262 30.3857C34.5517 30.4377 34.6855 30.4638 34.8275 30.4638C34.9104 30.4638 34.9814 30.459 35.0406 30.4496C35.0998 30.4377 35.1518 30.4259 35.1968 30.4141L35.3318 30.9858C35.2702 31.0095 35.1945 31.0308 35.1045 31.0497C35.0145 31.071 34.9033 31.0817 34.7707 31.0817C34.5387 31.0817 34.315 31.0308 34.0995 30.929C33.8865 30.8272 33.7113 30.6757 33.574 30.4744C33.4366 30.2732 33.368 30.0234 33.368 29.7251V24.2386ZM37.3426 27.5909V31H36.7105V23.7273H37.3426V26.4013H37.3994C37.5273 26.1196 37.7249 25.8946 37.9925 25.7266C38.2623 25.5585 38.6032 25.4744 39.0152 25.4744C39.3845 25.4744 39.7088 25.5502 39.9882 25.7017C40.2675 25.8532 40.4854 26.0769 40.6416 26.3729C40.7979 26.6688 40.876 27.0334 40.876 27.4666V31H40.2403V27.5057C40.2403 27.0559 40.1148 26.7019 39.8639 26.4439C39.6153 26.1835 39.2791 26.0533 38.8554 26.0533C38.5642 26.0533 38.305 26.1148 38.0777 26.2379C37.8504 26.361 37.6705 26.5386 37.5379 26.7706C37.4077 27.0002 37.3426 27.2737 37.3426 27.5909ZM44.7458 31.1136C44.2368 31.1136 43.7965 30.9953 43.4248 30.7585C43.0531 30.5194 42.7655 30.1892 42.5619 29.7678C42.3606 29.344 42.26 28.8563 42.26 28.3047C42.26 27.7554 42.3606 27.2678 42.5619 26.8416C42.7655 26.4131 43.046 26.0781 43.4035 25.8366C43.7633 25.5928 44.1788 25.4709 44.6499 25.4709C44.9459 25.4709 45.2311 25.5253 45.5058 25.6342C45.7804 25.7408 46.0266 25.9053 46.2444 26.1278C46.4646 26.348 46.6386 26.6262 46.7664 26.9624C46.8943 27.2962 46.9582 27.6915 46.9582 28.1484V28.4609H42.6968V27.9034H46.3119C46.3119 27.553 46.2409 27.2382 46.0988 26.9588C45.9591 26.6771 45.7638 26.4545 45.5129 26.2912C45.2643 26.1278 44.9767 26.0462 44.6499 26.0462C44.3043 26.0462 44.0001 26.1385 43.7373 26.3232C43.4745 26.5078 43.2686 26.7517 43.1194 27.0547C42.9726 27.3577 42.8981 27.6892 42.8957 28.049V28.3828C42.8957 28.8161 42.9703 29.1948 43.1194 29.5192C43.2709 29.8411 43.4852 30.0909 43.7622 30.2685C44.0392 30.446 44.367 30.5348 44.7458 30.5348C45.0039 30.5348 45.23 30.4946 45.4241 30.4141C45.6206 30.3336 45.7851 30.2259 45.9177 30.0909C46.0526 29.9536 46.1544 29.8033 46.2231 29.6399L46.8232 29.8352C46.7404 30.0649 46.6043 30.2768 46.4149 30.4709C46.2278 30.665 45.9935 30.8213 45.7117 30.9396C45.4324 31.0556 45.1104 31.1136 44.7458 31.1136ZM48.3511 31V25.5455H48.9655V26.3835H49.0116C49.1205 26.1089 49.3099 25.8875 49.5798 25.7195C49.8521 25.549 50.1598 25.4638 50.5031 25.4638C50.5552 25.4638 50.6132 25.465 50.6771 25.4673C50.741 25.4697 50.7943 25.4721 50.8369 25.4744V26.1172C50.8085 26.1125 50.7588 26.1054 50.6878 26.0959C50.6167 26.0864 50.5398 26.0817 50.4569 26.0817C50.1729 26.0817 49.9195 26.142 49.697 26.2628C49.4768 26.3812 49.3028 26.5457 49.175 26.7564C49.0471 26.9671 48.9832 27.2074 48.9832 27.4773V31H48.3511ZM53.9548 31.1136C53.4458 31.1136 53.0055 30.9953 52.6338 30.7585C52.2621 30.5194 51.9745 30.1892 51.7709 29.7678C51.5696 29.344 51.469 28.8563 51.469 28.3047C51.469 27.7554 51.5696 27.2678 51.7709 26.8416C51.9745 26.4131 52.255 26.0781 52.6125 25.8366C52.9723 25.5928 53.3878 25.4709 53.8589 25.4709C54.1549 25.4709 54.4401 25.5253 54.7148 25.6342C54.9894 25.7408 55.2356 25.9053 55.4534 26.1278C55.6736 26.348 55.8476 26.6262 55.9754 26.9624C56.1032 27.2962 56.1672 27.6915 56.1672 28.1484V28.4609H51.9058V27.9034H55.5209C55.5209 27.553 55.4498 27.2382 55.3078 26.9588C55.1681 26.6771 54.9728 26.4545 54.7219 26.2912C54.4733 26.1278 54.1856 26.0462 53.8589 26.0462C53.5133 26.0462 53.2091 26.1385 52.9463 26.3232C52.6835 26.5078 52.4775 26.7517 52.3284 27.0547C52.1816 27.3577 52.107 27.6892 52.1047 28.049V28.3828C52.1047 28.8161 52.1792 29.1948 52.3284 29.5192C52.4799 29.8411 52.6942 30.0909 52.9711 30.2685C53.2481 30.446 53.576 30.5348 53.9548 30.5348C54.2129 30.5348 54.439 30.4946 54.6331 30.4141C54.8296 30.3336 54.9941 30.2259 55.1267 30.0909C55.2616 29.9536 55.3634 29.8033 55.4321 29.6399L56.0322 29.8352C55.9494 30.0649 55.8132 30.2768 55.6238 30.4709C55.4368 30.665 55.2024 30.8213 54.9207 30.9396C54.6414 31.0556 54.3194 31.1136 53.9548 31.1136ZM61.896 31.1243C61.567 31.1243 61.2663 31.0604 60.9941 30.9325C60.7218 30.8023 60.5052 30.6153 60.3442 30.3714C60.1832 30.1252 60.1027 29.8269 60.1027 29.4766C60.1027 29.2067 60.1536 28.9794 60.2554 28.7947C60.3572 28.6101 60.5016 28.4586 60.6887 28.3402C60.8757 28.2218 61.097 28.1283 61.3527 28.0597C61.6084 27.991 61.8901 27.9377 62.1979 27.8999C62.5033 27.862 62.7613 27.8288 62.972 27.8004C63.1851 27.772 63.3473 27.727 63.4585 27.6655C63.5698 27.6039 63.6254 27.5045 63.6254 27.3672V27.2393C63.6254 26.8677 63.5142 26.5753 63.2916 26.3622C63.0715 26.1468 62.7542 26.0391 62.3399 26.0391C61.9469 26.0391 61.6262 26.1255 61.3776 26.2983C61.1314 26.4711 60.9585 26.6747 60.8591 26.9091L60.259 26.6925C60.3821 26.3942 60.5525 26.1562 60.7703 25.9787C60.9881 25.7988 61.232 25.6697 61.5019 25.5916C61.7718 25.5111 62.0452 25.4709 62.3222 25.4709C62.5305 25.4709 62.7471 25.4981 62.972 25.5526C63.1993 25.607 63.41 25.7017 63.6041 25.8366C63.7983 25.9692 63.9557 26.1551 64.0764 26.3942C64.1972 26.6309 64.2575 26.9316 64.2575 27.2962V31H63.6254V30.1371H63.5864C63.5106 30.2981 63.3982 30.4543 63.249 30.6058C63.0999 30.7573 62.9128 30.8816 62.6879 30.9787C62.463 31.0758 62.1991 31.1243 61.896 31.1243ZM61.9813 30.5455C62.3174 30.5455 62.6086 30.4709 62.8548 30.3217C63.1011 30.1726 63.2905 29.9749 63.423 29.7287C63.558 29.4801 63.6254 29.2067 63.6254 28.9084V28.12C63.5781 28.165 63.4988 28.2053 63.3875 28.2408C63.2786 28.2763 63.152 28.3082 63.0075 28.3366C62.8655 28.3627 62.7235 28.3852 62.5814 28.4041C62.4394 28.4231 62.3115 28.4396 62.1979 28.4538C61.8901 28.4917 61.6273 28.5509 61.4095 28.6314C61.1917 28.7119 61.0248 28.8232 60.9088 28.9652C60.7928 29.1049 60.7348 29.2848 60.7348 29.505C60.7348 29.8364 60.8532 30.0933 61.0899 30.2756C61.3267 30.4555 61.6238 30.5455 61.9813 30.5455ZM65.939 31V25.5455H66.5534V26.3835H66.5995C66.7084 26.1089 66.8978 25.8875 67.1677 25.7195C67.44 25.549 67.7477 25.4638 68.091 25.4638C68.1431 25.4638 68.2011 25.465 68.265 25.4673C68.3289 25.4697 68.3822 25.4721 68.4248 25.4744V26.1172C68.3964 26.1125 68.3467 26.1054 68.2757 26.0959C68.2046 26.0864 68.1277 26.0817 68.0448 26.0817C67.7607 26.0817 67.5074 26.142 67.2849 26.2628C67.0647 26.3812 66.8907 26.5457 66.7629 26.7564C66.635 26.9671 66.5711 27.2074 66.5711 27.4773V31H65.939ZM71.5427 31.1136C71.0337 31.1136 70.5934 30.9953 70.2217 30.7585C69.85 30.5194 69.5624 30.1892 69.3588 29.7678C69.1575 29.344 69.0569 28.8563 69.0569 28.3047C69.0569 27.7554 69.1575 27.2678 69.3588 26.8416C69.5624 26.4131 69.8429 26.0781 70.2004 25.8366C70.5602 25.5928 70.9757 25.4709 71.4468 25.4709C71.7427 25.4709 72.028 25.5253 72.3026 25.6342C72.5773 25.7408 72.8235 25.9053 73.0413 26.1278C73.2615 26.348 73.4355 26.6262 73.5633 26.9624C73.6911 27.2962 73.7551 27.6915 73.7551 28.1484V28.4609H69.4937V27.9034H73.1088C73.1088 27.553 73.0377 27.2382 72.8957 26.9588C72.756 26.6771 72.5607 26.4545 72.3097 26.2912C72.0612 26.1278 71.7735 26.0462 71.4468 26.0462C71.1012 26.0462 70.797 26.1385 70.5342 26.3232C70.2714 26.5078 70.0654 26.7517 69.9163 27.0547C69.7695 27.3577 69.6949 27.6892 69.6926 28.049V28.3828C69.6926 28.8161 69.7671 29.1948 69.9163 29.5192C70.0678 29.8411 70.282 30.0909 70.559 30.2685C70.836 30.446 71.1639 30.5348 71.5427 30.5348C71.8008 30.5348 72.0268 30.4946 72.221 30.4141C72.4175 30.3336 72.582 30.2259 72.7146 30.0909C72.8495 29.9536 72.9513 29.8033 73.02 29.6399L73.6201 29.8352C73.5373 30.0649 73.4011 30.2768 73.2117 30.4709C73.0247 30.665 72.7903 30.8213 72.5086 30.9396C72.2293 31.0556 71.9073 31.1136 71.5427 31.1136ZM78.5926 27.5909V31H77.9605V25.5455H78.5748V26.4013H78.6317C78.7595 26.1219 78.9584 25.8982 79.2282 25.7301C79.5005 25.5597 79.8367 25.4744 80.2368 25.4744C80.6037 25.4744 80.9257 25.5514 81.2027 25.7053C81.482 25.8568 81.6987 26.0805 81.8525 26.3764C82.0088 26.6723 82.0869 27.0357 82.0869 27.4666V31H81.4548V27.5057C81.4548 27.0582 81.3293 26.7043 81.0784 26.4439C80.8298 26.1835 80.496 26.0533 80.077 26.0533C79.7905 26.0533 79.536 26.1148 79.3135 26.2379C79.0909 26.361 78.9146 26.5386 78.7844 26.7706C78.6565 27.0002 78.5926 27.2737 78.5926 27.5909ZM85.8715 31.1136C85.4004 31.1136 84.9838 30.9941 84.6215 30.755C84.2617 30.5159 83.98 30.1856 83.7764 29.7642C83.5728 29.3404 83.471 28.8516 83.471 28.2976C83.471 27.7389 83.5728 27.2476 83.7764 26.8239C83.98 26.3977 84.2617 26.0663 84.6215 25.8295C84.9838 25.5904 85.4004 25.4709 85.8715 25.4709C86.3427 25.4709 86.7581 25.5904 87.118 25.8295C87.4778 26.0687 87.7596 26.4001 87.9632 26.8239C88.1691 27.2476 88.2721 27.7389 88.2721 28.2976C88.2721 28.8516 88.1703 29.3404 87.9667 29.7642C87.7631 30.1856 87.4802 30.5159 87.118 30.755C86.7581 30.9941 86.3427 31.1136 85.8715 31.1136ZM85.8715 30.5348C86.2503 30.5348 86.5711 30.433 86.8339 30.2294C87.0967 30.0258 87.2955 29.7547 87.4305 29.4162C87.5678 29.0777 87.6365 28.7048 87.6365 28.2976C87.6365 27.8904 87.5678 27.5163 87.4305 27.1754C87.2955 26.8345 87.0967 26.5611 86.8339 26.3551C86.5711 26.1491 86.2503 26.0462 85.8715 26.0462C85.4951 26.0462 85.1743 26.1491 84.9092 26.3551C84.6464 26.5611 84.4463 26.8345 84.309 27.1754C84.1741 27.5163 84.1066 27.8904 84.1066 28.2976C84.1066 28.7048 84.1741 29.0777 84.309 29.4162C84.4463 29.7547 84.6464 30.0258 84.9092 30.2294C85.172 30.433 85.4927 30.5348 85.8715 30.5348ZM21.4442 43V37.5455H22.0798V43H21.4442ZM21.7673 36.608C21.6371 36.608 21.5258 36.5642 21.4335 36.4766C21.3412 36.3866 21.295 36.2789 21.295 36.1534C21.295 36.0279 21.3412 35.9214 21.4335 35.8338C21.5258 35.7438 21.6371 35.6989 21.7673 35.6989C21.8975 35.6989 22.0088 35.7438 22.1011 35.8338C22.1934 35.9214 22.2396 36.0279 22.2396 36.1534C22.2396 36.2789 22.1934 36.3866 22.1011 36.4766C22.0088 36.5642 21.8975 36.608 21.7673 36.608ZM24.3836 39.5909V43H23.7515V37.5455H24.3659V38.4013H24.4227C24.5505 38.1219 24.7494 37.8982 25.0193 37.7301C25.2915 37.5597 25.6277 37.4744 26.0278 37.4744C26.3947 37.4744 26.7167 37.5514 26.9937 37.7053C27.2731 37.8568 27.4897 38.0805 27.6436 38.3764C27.7998 38.6723 27.8779 39.0357 27.8779 39.4666V43H27.2458V39.5057C27.2458 39.0582 27.1204 38.7043 26.8694 38.4439C26.6208 38.1835 26.287 38.0533 25.868 38.0533C25.5815 38.0533 25.327 38.1148 25.1045 38.2379C24.882 38.361 24.7056 38.5386 24.5754 38.7706C24.4475 39.0002 24.3836 39.2737 24.3836 39.5909ZM31.6732 43.1136C31.1855 43.1136 30.7606 42.9917 30.3983 42.7479C30.0385 42.504 29.7591 42.1702 29.5603 41.7464C29.3614 41.3227 29.262 40.8397 29.262 40.2976C29.262 39.7507 29.3626 39.2642 29.5638 38.8381C29.7674 38.4119 30.0492 38.0781 30.409 37.8366C30.7689 37.5928 31.1867 37.4709 31.6626 37.4709C32.0271 37.4709 32.3574 37.5419 32.6533 37.6839C32.9492 37.8236 33.1931 38.0213 33.3849 38.277C33.579 38.5303 33.7009 38.8262 33.7506 39.1648H33.1114C33.0451 38.857 32.8853 38.5942 32.632 38.3764C32.3811 38.1562 32.0615 38.0462 31.6732 38.0462C31.3252 38.0462 31.0174 38.1409 30.7499 38.3303C30.4824 38.5173 30.2729 38.7789 30.1214 39.1151C29.9722 39.4489 29.8976 39.8359 29.8976 40.2763C29.8976 40.719 29.971 41.1108 30.1178 41.4517C30.2646 41.7902 30.4706 42.0554 30.7357 42.2472C31.0032 42.4389 31.3157 42.5348 31.6732 42.5348C31.9147 42.5348 32.1349 42.4898 32.3337 42.3999C32.5349 42.3075 32.703 42.1773 32.838 42.0092C32.9753 41.8411 33.0676 41.6411 33.115 41.4091H33.7542C33.7068 41.7382 33.5896 42.0317 33.4026 42.2898C33.218 42.5455 32.9777 42.7467 32.6817 42.8935C32.3882 43.0402 32.052 43.1136 31.6732 43.1136ZM37.3142 43.1136C36.8052 43.1136 36.3648 42.9953 35.9932 42.7585C35.6215 42.5194 35.3338 42.1892 35.1302 41.7678C34.929 41.344 34.8284 40.8563 34.8284 40.3047C34.8284 39.7554 34.929 39.2678 35.1302 38.8416C35.3338 38.4131 35.6144 38.0781 35.9719 37.8366C36.3317 37.5928 36.7472 37.4709 37.2183 37.4709C37.5142 37.4709 37.7995 37.5253 38.0741 37.6342C38.3488 37.7408 38.595 37.9053 38.8128 38.1278C39.0329 38.348 39.2069 38.6262 39.3348 38.9624C39.4626 39.2962 39.5265 39.6915 39.5265 40.1484V40.4609H35.2652V39.9034H38.8802C38.8802 39.553 38.8092 39.2382 38.6672 38.9588C38.5275 38.6771 38.3322 38.4545 38.0812 38.2912C37.8327 38.1278 37.545 38.0462 37.2183 38.0462C36.8727 38.0462 36.5684 38.1385 36.3057 38.3232C36.0429 38.5078 35.8369 38.7517 35.6878 39.0547C35.541 39.3577 35.4664 39.6892 35.464 40.049V40.3828C35.464 40.8161 35.5386 41.1948 35.6878 41.5192C35.8393 41.8411 36.0535 42.0909 36.3305 42.2685C36.6075 42.446 36.9354 42.5348 37.3142 42.5348C37.5722 42.5348 37.7983 42.4946 37.9925 42.4141C38.189 42.3336 38.3535 42.2259 38.4861 42.0909C38.621 41.9536 38.7228 41.8033 38.7915 41.6399L39.3916 41.8352C39.3087 42.0649 39.1726 42.2768 38.9832 42.4709C38.7962 42.665 38.5618 42.8213 38.2801 42.9396C38.0007 43.0556 37.6788 43.1136 37.3142 43.1136ZM41.5516 39.5909V43H40.9195V37.5455H41.5338V38.4013H41.5906C41.7185 38.1219 41.9173 37.8982 42.1872 37.7301C42.4595 37.5597 42.7957 37.4744 43.1958 37.4744C43.5627 37.4744 43.8847 37.5514 44.1617 37.7053C44.441 37.8568 44.6576 38.0805 44.8115 38.3764C44.9678 38.6723 45.0459 39.0357 45.0459 39.4666V43H44.4138V39.5057C44.4138 39.0582 44.2883 38.7043 44.0374 38.4439C43.7888 38.1835 43.455 38.0533 43.036 38.0533C42.7495 38.0533 42.495 38.1148 42.2725 38.2379C42.0499 38.361 41.8736 38.5386 41.7433 38.7706C41.6155 39.0002 41.5516 39.2737 41.5516 39.5909ZM48.8589 37.5455V38.0959H46.2559V37.5455H48.8589ZM47.0692 36.2386H47.7048V41.576C47.7048 41.8033 47.7439 41.982 47.822 42.1122C47.9001 42.2401 48.0019 42.3312 48.1274 42.3857C48.2529 42.4377 48.3866 42.4638 48.5287 42.4638C48.6115 42.4638 48.6826 42.459 48.7417 42.4496C48.8009 42.4377 48.853 42.4259 48.898 42.4141L49.0329 42.9858C48.9714 43.0095 48.8956 43.0308 48.8057 43.0497C48.7157 43.071 48.6044 43.0817 48.4719 43.0817C48.2398 43.0817 48.0161 43.0308 47.8007 42.929C47.5876 42.8272 47.4124 42.6757 47.2751 42.4744C47.1378 42.2732 47.0692 42.0234 47.0692 41.7251V36.2386ZM50.3016 43V37.5455H50.9372V43H50.3016ZM50.6247 36.608C50.4945 36.608 50.3833 36.5642 50.2909 36.4766C50.1986 36.3866 50.1524 36.2789 50.1524 36.1534C50.1524 36.0279 50.1986 35.9214 50.2909 35.8338C50.3833 35.7438 50.4945 35.6989 50.6247 35.6989C50.7549 35.6989 50.8662 35.7438 50.9585 35.8338C51.0509 35.9214 51.097 36.0279 51.097 36.1534C51.097 36.2789 51.0509 36.3866 50.9585 36.4766C50.8662 36.5642 50.7549 36.608 50.6247 36.608ZM56.8312 37.5455L54.839 43H54.1643L52.1721 37.5455H52.8575L54.4768 42.1655H54.5265L56.1459 37.5455H56.8312ZM60.0779 43.1136C59.5689 43.1136 59.1285 42.9953 58.7568 42.7585C58.3852 42.5194 58.0975 42.1892 57.8939 41.7678C57.6927 41.344 57.5921 40.8563 57.5921 40.3047C57.5921 39.7554 57.6927 39.2678 57.8939 38.8416C58.0975 38.4131 58.378 38.0781 58.7355 37.8366C59.0954 37.5928 59.5109 37.4709 59.982 37.4709C60.2779 37.4709 60.5632 37.5253 60.8378 37.6342C61.1124 37.7408 61.3586 37.9053 61.5764 38.1278C61.7966 38.348 61.9706 38.6262 62.0985 38.9624C62.2263 39.2962 62.2902 39.6915 62.2902 40.1484V40.4609H58.0289V39.9034H61.6439C61.6439 39.553 61.5729 39.2382 61.4308 38.9588C61.2912 38.6771 61.0959 38.4545 60.8449 38.2912C60.5963 38.1278 60.3087 38.0462 59.982 38.0462C59.6363 38.0462 59.3321 38.1385 59.0693 38.3232C58.8066 38.5078 58.6006 38.7517 58.4514 39.0547C58.3047 39.3577 58.2301 39.6892 58.2277 40.049V40.3828C58.2277 40.8161 58.3023 41.1948 58.4514 41.5192C58.603 41.8411 58.8172 42.0909 59.0942 42.2685C59.3712 42.446 59.6991 42.5348 60.0779 42.5348C60.3359 42.5348 60.562 42.4946 60.7561 42.4141C60.9526 42.3336 61.1172 42.2259 61.2497 42.0909C61.3847 41.9536 61.4865 41.8033 61.5551 41.6399L62.1553 41.8352C62.0724 42.0649 61.9363 42.2768 61.7469 42.4709C61.5599 42.665 61.3255 42.8213 61.0438 42.9396C60.7644 43.0556 60.4424 43.1136 60.0779 43.1136ZM67.3479 38.7422L66.7691 38.9055C66.7123 38.7422 66.6318 38.5942 66.5276 38.4616C66.4234 38.3291 66.2873 38.2237 66.1192 38.1456C65.9535 38.0675 65.7475 38.0284 65.5013 38.0284C65.132 38.0284 64.829 38.116 64.5922 38.2912C64.3555 38.4664 64.2371 38.6925 64.2371 38.9695C64.2371 39.2038 64.3176 39.3944 64.4786 39.5412C64.642 39.6856 64.8929 39.8004 65.2314 39.8857L66.0553 40.0881C66.5122 40.1993 66.8543 40.3757 67.0816 40.6172C67.3112 40.8587 67.426 41.1617 67.426 41.5263C67.426 41.834 67.3408 42.1075 67.1704 42.3466C66.9999 42.5857 66.762 42.7739 66.4566 42.9112C66.1536 43.0462 65.802 43.1136 65.4019 43.1136C64.8692 43.1136 64.4301 42.9941 64.0844 42.755C63.7388 42.5135 63.5174 42.1655 63.4204 41.7109L64.0276 41.5618C64.1057 41.8861 64.2584 42.1312 64.4857 42.2969C64.7153 42.4626 65.0172 42.5455 65.3912 42.5455C65.8103 42.5455 66.1453 42.4519 66.3962 42.2649C66.6472 42.0755 66.7726 41.8388 66.7726 41.5547C66.7726 41.3345 66.6992 41.1499 66.5525 41.0007C66.4057 40.8492 66.1831 40.7379 65.8849 40.6669L64.9935 40.4538C64.52 40.3402 64.1697 40.1603 63.9424 39.9141C63.7151 39.6679 63.6015 39.3625 63.6015 38.9979C63.6015 38.6972 63.6831 38.4332 63.8465 38.206C64.0099 37.9763 64.2348 37.7964 64.5212 37.6662C64.8077 37.536 65.1344 37.4709 65.5013 37.4709C66.0009 37.4709 66.3998 37.5845 66.6981 37.8118C66.9987 38.0367 67.2153 38.3468 67.3479 38.7422ZM73.771 37.5455V38.0959H71.1681V37.5455H73.771ZM71.9813 36.2386H72.6169V41.576C72.6169 41.8033 72.656 41.982 72.7341 42.1122C72.8122 42.2401 72.914 42.3312 73.0395 42.3857C73.165 42.4377 73.2987 42.4638 73.4408 42.4638C73.5236 42.4638 73.5947 42.459 73.6539 42.4496C73.713 42.4377 73.7651 42.4259 73.8101 42.4141L73.945 42.9858C73.8835 43.0095 73.8077 43.0308 73.7178 43.0497C73.6278 43.071 73.5165 43.0817 73.384 43.0817C73.152 43.0817 72.9282 43.0308 72.7128 42.929C72.4997 42.8272 72.3245 42.6757 72.1872 42.4744C72.0499 42.2732 71.9813 42.0234 71.9813 41.7251V36.2386ZM77.268 43.1136C76.7969 43.1136 76.3802 42.9941 76.018 42.755C75.6582 42.5159 75.3765 42.1856 75.1729 41.7642C74.9693 41.3404 74.8675 40.8516 74.8675 40.2976C74.8675 39.7389 74.9693 39.2476 75.1729 38.8239C75.3765 38.3977 75.6582 38.0663 76.018 37.8295C76.3802 37.5904 76.7969 37.4709 77.268 37.4709C77.7391 37.4709 78.1546 37.5904 78.5145 37.8295C78.8743 38.0687 79.156 38.4001 79.3596 38.8239C79.5656 39.2476 79.6686 39.7389 79.6686 40.2976C79.6686 40.8516 79.5668 41.3404 79.3632 41.7642C79.1596 42.1856 78.8767 42.5159 78.5145 42.755C78.1546 42.9941 77.7391 43.1136 77.268 43.1136ZM77.268 42.5348C77.6468 42.5348 77.9676 42.433 78.2304 42.2294C78.4932 42.0258 78.692 41.7547 78.827 41.4162C78.9643 41.0777 79.0329 40.7048 79.0329 40.2976C79.0329 39.8904 78.9643 39.5163 78.827 39.1754C78.692 38.8345 78.4932 38.5611 78.2304 38.3551C77.9676 38.1491 77.6468 38.0462 77.268 38.0462C76.8916 38.0462 76.5708 38.1491 76.3057 38.3551C76.0429 38.5611 75.8428 38.8345 75.7055 39.1754C75.5706 39.5163 75.5031 39.8904 75.5031 40.2976C75.5031 40.7048 75.5706 41.0777 75.7055 41.4162C75.8428 41.7547 76.0429 42.0258 76.3057 42.2294C76.5684 42.433 76.8892 42.5348 77.268 42.5348ZM84.0001 43V35.7273H84.6357V38.5859H84.6926C84.7636 38.4226 84.8654 38.2545 84.998 38.0817C85.1329 37.9089 85.3093 37.7644 85.5271 37.6484C85.7472 37.5301 86.0242 37.4709 86.358 37.4709C86.8055 37.4709 87.1985 37.5893 87.537 37.826C87.8756 38.0604 88.1395 38.3894 88.3289 38.8132C88.5183 39.2346 88.613 39.7259 88.613 40.2869C88.613 40.8504 88.5183 41.344 88.3289 41.7678C88.1419 42.1915 87.8791 42.5218 87.5406 42.7585C87.2044 42.9953 86.8138 43.1136 86.3687 43.1136C86.0373 43.1136 85.7603 43.0545 85.5377 42.9361C85.3176 42.8177 85.14 42.6721 85.0051 42.4993C84.8701 42.3241 84.766 42.1536 84.6926 41.9879H84.6144V43H84.0001ZM84.6251 40.2763C84.6251 40.7166 84.6902 41.1072 84.8204 41.4482C84.953 41.7867 85.1424 42.053 85.3886 42.2472C85.6372 42.4389 85.9378 42.5348 86.2906 42.5348C86.6528 42.5348 86.9594 42.4354 87.2103 42.2365C87.4613 42.0353 87.6518 41.7642 87.782 41.4233C87.9123 41.0824 87.9774 40.7 87.9774 40.2763C87.9774 39.8572 87.9123 39.4796 87.782 39.1435C87.6542 38.8073 87.4648 38.541 87.2139 38.3445C86.9629 38.1456 86.6552 38.0462 86.2906 38.0462C85.9355 38.0462 85.6336 38.142 85.385 38.3338C85.1388 38.5232 84.9506 38.786 84.8204 39.1222C84.6902 39.456 84.6251 39.8407 84.6251 40.2763ZM93.4674 40.9155V37.5455H94.0995V43H93.4674V42.0945H93.4177C93.2899 42.3738 93.0874 42.607 92.8105 42.794C92.5335 42.9787 92.1949 43.071 91.7948 43.071C91.4468 43.071 91.1379 42.9953 90.868 42.8438C90.5981 42.6899 90.3862 42.465 90.2323 42.169C90.0785 41.8731 90.0015 41.5097 90.0015 41.0788V37.5455H90.6336V41.0398C90.6336 41.4659 90.7591 41.8092 91.01 42.0696C91.261 42.3277 91.5829 42.4567 91.9759 42.4567C92.2222 42.4567 92.4589 42.3975 92.6862 42.2791C92.9134 42.1607 93.1005 41.9879 93.2472 41.7607C93.394 41.531 93.4674 41.2493 93.4674 40.9155ZM96.2133 45.0455C96.0879 45.0455 95.9707 45.0336 95.8618 45.0099C95.7529 44.9863 95.6665 44.9602 95.6025 44.9318L95.773 44.3743C95.9884 44.4406 96.1802 44.4643 96.3483 44.4453C96.5164 44.4287 96.6655 44.353 96.7957 44.218C96.9259 44.0855 97.0419 43.8819 97.1437 43.6072L97.3426 43.0533L95.3362 37.5455H96.0216L97.6409 42.1655H97.6906L99.3099 37.5455H99.9953L97.6871 43.8629C97.59 44.1257 97.4704 44.3447 97.3284 44.5199C97.1863 44.6974 97.0218 44.8288 96.8348 44.9141C96.6501 45.0017 96.443 45.0455 96.2133 45.0455ZM29.6402 55V49.5455H30.2545V50.3835H30.3113C30.4202 50.1018 30.6014 49.8804 30.8547 49.7195C31.1104 49.5561 31.4169 49.4744 31.7744 49.4744C32.1508 49.4744 32.4598 49.5632 32.7013 49.7408C32.9451 49.916 33.1274 50.1574 33.2481 50.4652H33.2943C33.4174 50.1622 33.6175 49.9219 33.8944 49.7443C34.1738 49.5644 34.5123 49.4744 34.9101 49.4744C35.4167 49.4744 35.8168 49.6342 36.1104 49.9538C36.4039 50.2711 36.5507 50.7351 36.5507 51.3459V55H35.9186V51.3459C35.9186 50.915 35.8085 50.5919 35.5883 50.3764C35.3682 50.161 35.0782 50.0533 34.7183 50.0533C34.3016 50.0533 33.9809 50.1811 33.7559 50.4368C33.531 50.6925 33.4186 51.0168 33.4186 51.4098V55H32.7723V51.2891C32.7723 50.9197 32.6693 50.6214 32.4633 50.3942C32.2574 50.1669 31.9674 50.0533 31.5933 50.0533C31.3424 50.0533 31.1163 50.1148 30.915 50.2379C30.7162 50.361 30.5587 50.5327 30.4427 50.7528C30.3291 50.9706 30.2723 51.2216 30.2723 51.5057V55H29.6402ZM40.3442 55.1136C39.8731 55.1136 39.4564 54.9941 39.0942 54.755C38.7343 54.5159 38.4526 54.1856 38.249 53.7642C38.0454 53.3404 37.9436 52.8516 37.9436 52.2976C37.9436 51.7389 38.0454 51.2476 38.249 50.8239C38.4526 50.3977 38.7343 50.0663 39.0942 49.8295C39.4564 49.5904 39.8731 49.4709 40.3442 49.4709C40.8153 49.4709 41.2308 49.5904 41.5906 49.8295C41.9505 50.0687 42.2322 50.4001 42.4358 50.8239C42.6418 51.2476 42.7448 51.7389 42.7448 52.2976C42.7448 52.8516 42.643 53.3404 42.4394 53.7642C42.2358 54.1856 41.9529 54.5159 41.5906 54.755C41.2308 54.9941 40.8153 55.1136 40.3442 55.1136ZM40.3442 54.5348C40.723 54.5348 41.0438 54.433 41.3066 54.2294C41.5693 54.0258 41.7682 53.7547 41.9031 53.4162C42.0405 53.0777 42.1091 52.7048 42.1091 52.2976C42.1091 51.8904 42.0405 51.5163 41.9031 51.1754C41.7682 50.8345 41.5693 50.5611 41.3066 50.3551C41.0438 50.1491 40.723 50.0462 40.3442 50.0462C39.9678 50.0462 39.647 50.1491 39.3818 50.3551C39.1191 50.5611 38.919 50.8345 38.7817 51.1754C38.6468 51.5163 38.5793 51.8904 38.5793 52.2976C38.5793 52.7048 38.6468 53.0777 38.7817 53.4162C38.919 53.7547 39.1191 54.0258 39.3818 54.2294C39.6446 54.433 39.9654 54.5348 40.3442 54.5348ZM44.1324 55V49.5455H44.7467V50.3835H44.7929C44.9018 50.1089 45.0912 49.8875 45.3611 49.7195C45.6333 49.549 45.9411 49.4638 46.2844 49.4638C46.3364 49.4638 46.3944 49.465 46.4584 49.4673C46.5223 49.4697 46.5756 49.4721 46.6182 49.4744V50.1172C46.5898 50.1125 46.54 50.1054 46.469 50.0959C46.398 50.0864 46.3211 50.0817 46.2382 50.0817C45.9541 50.0817 45.7008 50.142 45.4782 50.2628C45.2581 50.3812 45.0841 50.5457 44.9562 50.7564C44.8284 50.9671 44.7645 51.2074 44.7645 51.4773V55H44.1324ZM49.7361 55.1136C49.2271 55.1136 48.7867 54.9953 48.415 54.7585C48.0434 54.5194 47.7557 54.1892 47.5521 53.7678C47.3509 53.344 47.2503 52.8563 47.2503 52.3047C47.2503 51.7554 47.3509 51.2678 47.5521 50.8416C47.7557 50.4131 48.0363 50.0781 48.3937 49.8366C48.7536 49.5928 49.1691 49.4709 49.6402 49.4709C49.9361 49.4709 50.2214 49.5253 50.496 49.6342C50.7706 49.7408 51.0168 49.9053 51.2346 50.1278C51.4548 50.348 51.6288 50.6262 51.7567 50.9624C51.8845 51.2962 51.9484 51.6915 51.9484 52.1484V52.4609H47.6871V51.9034H51.3021C51.3021 51.553 51.2311 51.2382 51.089 50.9588C50.9494 50.6771 50.7541 50.4545 50.5031 50.2912C50.2545 50.1278 49.9669 50.0462 49.6402 50.0462C49.2945 50.0462 48.9903 50.1385 48.7275 50.3232C48.4648 50.5078 48.2588 50.7517 48.1096 51.0547C47.9629 51.3577 47.8883 51.6892 47.8859 52.049V52.3828C47.8859 52.8161 47.9605 53.1948 48.1096 53.5192C48.2612 53.8411 48.4754 54.0909 48.7524 54.2685C49.0294 54.446 49.3573 54.5348 49.7361 54.5348C49.9941 54.5348 50.2202 54.4946 50.4143 54.4141C50.6108 54.3336 50.7754 54.2259 50.9079 54.0909C51.0429 53.9536 51.1447 53.8033 51.2133 53.6399L51.8135 53.8352C51.7306 54.0649 51.5945 54.2768 51.4051 54.4709C51.2181 54.665 50.9837 54.8213 50.702 54.9396C50.4226 55.0556 50.1006 55.1136 49.7361 55.1136ZM58.2845 55.1136C57.7968 55.1136 57.3719 54.9917 57.0097 54.7479C56.6498 54.504 56.3705 54.1702 56.1716 53.7464C55.9727 53.3227 55.8733 52.8397 55.8733 52.2976C55.8733 51.7507 55.9739 51.2642 56.1752 50.8381C56.3788 50.4119 56.6605 50.0781 57.0203 49.8366C57.3802 49.5928 57.798 49.4709 58.2739 49.4709C58.6385 49.4709 58.9687 49.5419 59.2646 49.6839C59.5606 49.8236 59.8044 50.0213 59.9962 50.277C60.1903 50.5303 60.3122 50.8262 60.3619 51.1648H59.7227C59.6565 50.857 59.4967 50.5942 59.2433 50.3764C58.9924 50.1562 58.6728 50.0462 58.2845 50.0462C57.9365 50.0462 57.6288 50.1409 57.3612 50.3303C57.0937 50.5173 56.8842 50.7789 56.7327 51.1151C56.5835 51.4489 56.509 51.8359 56.509 52.2763C56.509 52.719 56.5824 53.1108 56.7291 53.4517C56.8759 53.7902 57.0819 54.0554 57.347 54.2472C57.6146 54.4389 57.9271 54.5348 58.2845 54.5348C58.526 54.5348 58.7462 54.4898 58.945 54.3999C59.1463 54.3075 59.3144 54.1773 59.4493 54.0092C59.5866 53.8411 59.6789 53.6411 59.7263 53.4091H60.3655C60.3182 53.7382 60.201 54.0317 60.0139 54.2898C59.8293 54.5455 59.589 54.7467 59.2931 54.8935C58.9995 55.0402 58.6633 55.1136 58.2845 55.1136ZM63.8403 55.1136C63.3692 55.1136 62.9525 54.9941 62.5903 54.755C62.2304 54.5159 61.9487 54.1856 61.7451 53.7642C61.5415 53.3404 61.4397 52.8516 61.4397 52.2976C61.4397 51.7389 61.5415 51.2476 61.7451 50.8239C61.9487 50.3977 62.2304 50.0663 62.5903 49.8295C62.9525 49.5904 63.3692 49.4709 63.8403 49.4709C64.3114 49.4709 64.7269 49.5904 65.0867 49.8295C65.4466 50.0687 65.7283 50.4001 65.9319 50.8239C66.1379 51.2476 66.2409 51.7389 66.2409 52.2976C66.2409 52.8516 66.1391 53.3404 65.9355 53.7642C65.7319 54.1856 65.449 54.5159 65.0867 54.755C64.7269 54.9941 64.3114 55.1136 63.8403 55.1136ZM63.8403 54.5348C64.2191 54.5348 64.5399 54.433 64.8026 54.2294C65.0654 54.0258 65.2643 53.7547 65.3992 53.4162C65.5365 53.0777 65.6052 52.7048 65.6052 52.2976C65.6052 51.8904 65.5365 51.5163 65.3992 51.1754C65.2643 50.8345 65.0654 50.5611 64.8026 50.3551C64.5399 50.1491 64.2191 50.0462 63.8403 50.0462C63.4639 50.0462 63.1431 50.1491 62.8779 50.3551C62.6151 50.5611 62.4151 50.8345 62.2778 51.1754C62.1428 51.5163 62.0754 51.8904 62.0754 52.2976C62.0754 52.7048 62.1428 53.0777 62.2778 53.4162C62.4151 53.7547 62.6151 54.0258 62.8779 54.2294C63.1407 54.433 63.4615 54.5348 63.8403 54.5348ZM71.0944 52.9155V49.5455H71.7265V55H71.0944V54.0945H71.0447C70.9168 54.3738 70.7144 54.607 70.4374 54.794C70.1604 54.9787 69.8219 55.071 69.4218 55.071C69.0738 55.071 68.7648 54.9953 68.4949 54.8438C68.2251 54.6899 68.0132 54.465 67.8593 54.169C67.7054 53.8731 67.6285 53.5097 67.6285 53.0788V49.5455H68.2606V53.0398C68.2606 53.4659 68.386 53.8092 68.637 54.0696C68.8879 54.3277 69.2099 54.4567 69.6029 54.4567C69.8491 54.4567 70.0858 54.3975 70.3131 54.2791C70.5404 54.1607 70.7274 53.9879 70.8742 53.7607C71.021 53.531 71.0944 53.2493 71.0944 52.9155ZM73.3999 55V49.5455H74.0143V50.3835H74.0605C74.1694 50.1089 74.3588 49.8875 74.6286 49.7195C74.9009 49.549 75.2087 49.4638 75.5519 49.4638C75.604 49.4638 75.662 49.465 75.7259 49.4673C75.7899 49.4697 75.8431 49.4721 75.8857 49.4744V50.1172C75.8573 50.1125 75.8076 50.1054 75.7366 50.0959C75.6656 50.0864 75.5886 50.0817 75.5058 50.0817C75.2217 50.0817 74.9684 50.142 74.7458 50.2628C74.5257 50.3812 74.3517 50.5457 74.2238 50.7564C74.096 50.9671 74.032 51.2074 74.032 51.4773V55H73.3999ZM80.6292 50.7422L80.0503 50.9055C79.9935 50.7422 79.913 50.5942 79.8089 50.4616C79.7047 50.3291 79.5686 50.2237 79.4005 50.1456C79.2348 50.0675 79.0288 50.0284 78.7826 50.0284C78.4133 50.0284 78.1102 50.116 77.8735 50.2912C77.6367 50.4664 77.5184 50.6925 77.5184 50.9695C77.5184 51.2038 77.5989 51.3944 77.7599 51.5412C77.9232 51.6856 78.1742 51.8004 78.5127 51.8857L79.3366 52.0881C79.7935 52.1993 80.1356 52.3757 80.3628 52.6172C80.5925 52.8587 80.7073 53.1617 80.7073 53.5263C80.7073 53.834 80.6221 54.1075 80.4516 54.3466C80.2812 54.5857 80.0432 54.7739 79.7378 54.9112C79.4348 55.0462 79.0832 55.1136 78.6831 55.1136C78.1505 55.1136 77.7113 54.9941 77.3657 54.755C77.02 54.5135 76.7987 54.1655 76.7016 53.7109L77.3089 53.5618C77.387 53.8861 77.5397 54.1312 77.767 54.2969C77.9966 54.4626 78.2984 54.5455 78.6725 54.5455C79.0915 54.5455 79.4265 54.4519 79.6775 54.2649C79.9284 54.0755 80.0539 53.8388 80.0539 53.5547C80.0539 53.3345 79.9805 53.1499 79.8337 53.0007C79.6869 52.8492 79.4644 52.7379 79.1661 52.6669L78.2748 52.4538C77.8013 52.3402 77.4509 52.1603 77.2236 51.9141C76.9964 51.6679 76.8827 51.3625 76.8827 50.9979C76.8827 50.6972 76.9644 50.4332 77.1278 50.206C77.2911 49.9763 77.516 49.7964 77.8025 49.6662C78.0889 49.536 78.4156 49.4709 78.7826 49.4709C79.2821 49.4709 79.681 49.5845 79.9793 49.8118C80.28 50.0367 80.4966 50.3468 80.6292 50.7422ZM84.2966 55.1136C83.7876 55.1136 83.3473 54.9953 82.9756 54.7585C82.6039 54.5194 82.3163 54.1892 82.1127 53.7678C81.9114 53.344 81.8108 52.8563 81.8108 52.3047C81.8108 51.7554 81.9114 51.2678 82.1127 50.8416C82.3163 50.4131 82.5968 50.0781 82.9543 49.8366C83.3141 49.5928 83.7296 49.4709 84.2007 49.4709C84.4967 49.4709 84.7819 49.5253 85.0566 49.6342C85.3312 49.7408 85.5774 49.9053 85.7952 50.1278C86.0154 50.348 86.1894 50.6262 86.3172 50.9624C86.445 51.2962 86.509 51.6915 86.509 52.1484V52.4609H82.2476V51.9034H85.8627C85.8627 51.553 85.7916 51.2382 85.6496 50.9588C85.5099 50.6771 85.3146 50.4545 85.0637 50.2912C84.8151 50.1278 84.5274 50.0462 84.2007 50.0462C83.8551 50.0462 83.5509 50.1385 83.2881 50.3232C83.0253 50.5078 82.8193 50.7517 82.6702 51.0547C82.5234 51.3577 82.4488 51.6892 82.4465 52.049V52.3828C82.4465 52.8161 82.521 53.1948 82.6702 53.5192C82.8217 53.8411 83.036 54.0909 83.3129 54.2685C83.5899 54.446 83.9178 54.5348 84.2966 54.5348C84.5547 54.5348 84.7807 54.4946 84.9749 54.4141C85.1714 54.3336 85.3359 54.2259 85.4685 54.0909C85.6034 53.9536 85.7052 53.8033 85.7739 53.6399L86.374 53.8352C86.2912 54.0649 86.155 54.2768 85.9656 54.4709C85.7786 54.665 85.5442 54.8213 85.2625 54.9396C84.9832 55.0556 84.6612 55.1136 84.2966 55.1136ZM91.5667 50.7422L90.9878 50.9055C90.931 50.7422 90.8505 50.5942 90.7464 50.4616C90.6422 50.3291 90.5061 50.2237 90.338 50.1456C90.1723 50.0675 89.9663 50.0284 89.7201 50.0284C89.3508 50.0284 89.0477 50.116 88.811 50.2912C88.5742 50.4664 88.4559 50.6925 88.4559 50.9695C88.4559 51.2038 88.5364 51.3944 88.6974 51.5412C88.8607 51.6856 89.1117 51.8004 89.4502 51.8857L90.2741 52.0881C90.731 52.1993 91.0731 52.3757 91.3003 52.6172C91.53 52.8587 91.6448 53.1617 91.6448 53.5263C91.6448 53.834 91.5596 54.1075 91.3891 54.3466C91.2187 54.5857 90.9807 54.7739 90.6753 54.9112C90.3723 55.0462 90.0207 55.1136 89.6206 55.1136C89.088 55.1136 88.6488 54.9941 88.3032 54.755C87.9575 54.5135 87.7362 54.1655 87.6391 53.7109L88.2464 53.5618C88.3245 53.8861 88.4772 54.1312 88.7045 54.2969C88.9341 54.4626 89.2359 54.5455 89.61 54.5455C90.029 54.5455 90.364 54.4519 90.615 54.2649C90.8659 54.0755 90.9914 53.8388 90.9914 53.5547C90.9914 53.3345 90.918 53.1499 90.7712 53.0007C90.6244 52.8492 90.4019 52.7379 90.1036 52.6669L89.2123 52.4538C88.7388 52.3402 88.3884 52.1603 88.1611 51.9141C87.9339 51.6679 87.8202 51.3625 87.8202 50.9979C87.8202 50.6972 87.9019 50.4332 88.0653 50.206C88.2286 49.9763 88.4535 49.7964 88.74 49.6662C89.0264 49.536 89.3531 49.4709 89.7201 49.4709C90.2196 49.4709 90.6185 49.5845 90.9168 49.8118C91.2175 50.0367 91.4341 50.3468 91.5667 50.7422ZM42.8393 67.1136C42.3682 67.1136 41.9515 66.9941 41.5893 66.755C41.2295 66.5159 40.9477 66.1856 40.7441 65.7642C40.5405 65.3404 40.4387 64.8516 40.4387 64.2976C40.4387 63.7389 40.5405 63.2476 40.7441 62.8239C40.9477 62.3977 41.2295 62.0663 41.5893 61.8295C41.9515 61.5904 42.3682 61.4709 42.8393 61.4709C43.3104 61.4709 43.7259 61.5904 44.0858 61.8295C44.4456 62.0687 44.7273 62.4001 44.9309 62.8239C45.1369 63.2476 45.2399 63.7389 45.2399 64.2976C45.2399 64.8516 45.1381 65.3404 44.9345 65.7642C44.7309 66.1856 44.448 66.5159 44.0858 66.755C43.7259 66.9941 43.3104 67.1136 42.8393 67.1136ZM42.8393 66.5348C43.2181 66.5348 43.5389 66.433 43.8017 66.2294C44.0645 66.0258 44.2633 65.7547 44.3983 65.4162C44.5356 65.0777 44.6042 64.7048 44.6042 64.2976C44.6042 63.8904 44.5356 63.5163 44.3983 63.1754C44.2633 62.8345 44.0645 62.5611 43.8017 62.3551C43.5389 62.1491 43.2181 62.0462 42.8393 62.0462C42.4629 62.0462 42.1421 62.1491 41.877 62.3551C41.6142 62.5611 41.4141 62.8345 41.2768 63.1754C41.1419 63.5163 41.0744 63.8904 41.0744 64.2976C41.0744 64.7048 41.1419 65.0777 41.2768 65.4162C41.4141 65.7547 41.6142 66.0258 41.877 66.2294C42.1397 66.433 42.4605 66.5348 42.8393 66.5348ZM47.2596 63.5909V67H46.6275V61.5455H47.2418V62.4013H47.2987C47.4265 62.1219 47.6254 61.8982 47.8952 61.7301C48.1675 61.5597 48.5037 61.4744 48.9038 61.4744C49.2707 61.4744 49.5927 61.5514 49.8697 61.7053C50.149 61.8568 50.3656 62.0805 50.5195 62.3764C50.6758 62.6723 50.7539 63.0357 50.7539 63.4666V67H50.1218V63.5057C50.1218 63.0582 49.9963 62.7043 49.7454 62.4439C49.4968 62.1835 49.163 62.0533 48.744 62.0533C48.4575 62.0533 48.203 62.1148 47.9805 62.2379C47.7579 62.361 47.5816 62.5386 47.4513 62.7706C47.3235 63.0002 47.2596 63.2737 47.2596 63.5909ZM54.5492 67.1136C54.0615 67.1136 53.6365 66.9917 53.2743 66.7479C52.9145 66.504 52.6351 66.1702 52.4363 65.7464C52.2374 65.3227 52.138 64.8397 52.138 64.2976C52.138 63.7507 52.2386 63.2642 52.4398 62.8381C52.6434 62.4119 52.9251 62.0781 53.285 61.8366C53.6448 61.5928 54.0627 61.4709 54.5385 61.4709C54.9031 61.4709 55.2334 61.5419 55.5293 61.6839C55.8252 61.8236 56.0691 62.0213 56.2608 62.277C56.455 62.5303 56.5769 62.8262 56.6266 63.1648H55.9874C55.9211 62.857 55.7613 62.5942 55.508 62.3764C55.257 62.1562 54.9374 62.0462 54.5492 62.0462C54.2012 62.0462 53.8934 62.1409 53.6259 62.3303C53.3584 62.5173 53.1489 62.7789 52.9973 63.1151C52.8482 63.4489 52.7736 63.8359 52.7736 64.2763C52.7736 64.719 52.847 65.1108 52.9938 65.4517C53.1406 65.7902 53.3465 66.0554 53.6117 66.2472C53.8792 66.4389 54.1917 66.5348 54.5492 66.5348C54.7907 66.5348 55.0108 66.4898 55.2097 66.3999C55.4109 66.3075 55.579 66.1773 55.714 66.0092C55.8513 65.8411 55.9436 65.6411 55.9909 65.4091H56.6301C56.5828 65.7382 56.4656 66.0317 56.2786 66.2898C56.0939 66.5455 55.8536 66.7467 55.5577 66.8935C55.2641 67.0402 54.928 67.1136 54.5492 67.1136ZM60.1902 67.1136C59.6812 67.1136 59.2408 66.9953 58.8691 66.7585C58.4975 66.5194 58.2098 66.1892 58.0062 65.7678C57.805 65.344 57.7044 64.8563 57.7044 64.3047C57.7044 63.7554 57.805 63.2678 58.0062 62.8416C58.2098 62.4131 58.4904 62.0781 58.8478 61.8366C59.2077 61.5928 59.6232 61.4709 60.0943 61.4709C60.3902 61.4709 60.6755 61.5253 60.9501 61.6342C61.2247 61.7408 61.4709 61.9053 61.6887 62.1278C61.9089 62.348 62.0829 62.6262 62.2108 62.9624C62.3386 63.2962 62.4025 63.6915 62.4025 64.1484V64.4609H58.1412V63.9034H61.7562C61.7562 63.553 61.6852 63.2382 61.5431 62.9588C61.4035 62.6771 61.2082 62.4545 60.9572 62.2912C60.7086 62.1278 60.421 62.0462 60.0943 62.0462C59.7486 62.0462 59.4444 62.1385 59.1816 62.3232C58.9189 62.5078 58.7129 62.7517 58.5637 63.0547C58.417 63.3577 58.3424 63.6892 58.34 64.049V64.3828C58.34 64.8161 58.4146 65.1948 58.5637 65.5192C58.7153 65.8411 58.9295 66.0909 59.2065 66.2685C59.4835 66.446 59.8114 66.5348 60.1902 66.5348C60.4482 66.5348 60.6743 66.4946 60.8684 66.4141C61.0649 66.3336 61.2295 66.2259 61.362 66.0909C61.497 65.9536 61.5988 65.8033 61.6674 65.6399L62.2676 65.8352C62.1847 66.0649 62.0486 66.2768 61.8592 66.4709C61.6722 66.665 61.4378 66.8213 61.1561 66.9396C60.8767 67.0556 60.5547 67.1136 60.1902 67.1136ZM68.7564 61.5455V62.0959H66.1534V61.5455H68.7564ZM66.9666 60.2386H67.6023V65.576C67.6023 65.8033 67.6413 65.982 67.7195 66.1122C67.7976 66.2401 67.8994 66.3312 68.0249 66.3857C68.1503 66.4377 68.2841 66.4638 68.4261 66.4638C68.509 66.4638 68.58 66.459 68.6392 66.4496C68.6984 66.4377 68.7505 66.4259 68.7955 66.4141L68.9304 66.9858C68.8688 67.0095 68.7931 67.0308 68.7031 67.0497C68.6132 67.071 68.5019 67.0817 68.3693 67.0817C68.1373 67.0817 67.9136 67.0308 67.6982 66.929C67.4851 66.8272 67.3099 66.6757 67.1726 66.4744C67.0353 66.2732 66.9666 66.0234 66.9666 65.7251V60.2386ZM70.9412 63.5909V67H70.3091V59.7273H70.9412V62.4013H70.998C71.1259 62.1196 71.3236 61.8946 71.5911 61.7266C71.861 61.5585 72.2019 61.4744 72.6138 61.4744C72.9831 61.4744 73.3075 61.5502 73.5868 61.7017C73.8662 61.8532 74.084 62.0769 74.2402 62.3729C74.3965 62.6688 74.4746 63.0334 74.4746 63.4666V67H73.839V63.5057C73.839 63.0559 73.7135 62.7019 73.4625 62.4439C73.214 62.1835 72.8778 62.0533 72.454 62.0533C72.1628 62.0533 71.9036 62.1148 71.6763 62.2379C71.449 62.361 71.2691 62.5386 71.1365 62.7706C71.0063 63.0002 70.9412 63.2737 70.9412 63.5909ZM78.3445 67.1136C77.8355 67.1136 77.3951 66.9953 77.0234 66.7585C76.6518 66.5194 76.3641 66.1892 76.1605 65.7678C75.9593 65.344 75.8587 64.8563 75.8587 64.3047C75.8587 63.7554 75.9593 63.2678 76.1605 62.8416C76.3641 62.4131 76.6446 62.0781 77.0021 61.8366C77.362 61.5928 77.7775 61.4709 78.2486 61.4709C78.5445 61.4709 78.8298 61.5253 79.1044 61.6342C79.379 61.7408 79.6252 61.9053 79.843 62.1278C80.0632 62.348 80.2372 62.6262 80.3651 62.9624C80.4929 63.2962 80.5568 63.6915 80.5568 64.1484V64.4609H76.2955V63.9034H79.9105C79.9105 63.553 79.8395 63.2382 79.6974 62.9588C79.5578 62.6771 79.3625 62.4545 79.1115 62.2912C78.8629 62.1278 78.5753 62.0462 78.2486 62.0462C77.9029 62.0462 77.5987 62.1385 77.3359 62.3232C77.0732 62.5078 76.8672 62.7517 76.718 63.0547C76.5713 63.3577 76.4967 63.6892 76.4943 64.049V64.3828C76.4943 64.8161 76.5689 65.1948 76.718 65.5192C76.8696 65.8411 77.0838 66.0909 77.3608 66.2685C77.6378 66.446 77.9657 66.5348 78.3445 66.5348C78.6025 66.5348 78.8286 66.4946 79.0227 66.4141C79.2192 66.3336 79.3838 66.2259 79.5163 66.0909C79.6513 65.9536 79.7531 65.8033 79.8217 65.6399L80.4219 65.8352C80.339 66.0649 80.2029 66.2768 80.0135 66.4709C79.8265 66.665 79.5921 66.8213 79.3104 66.9396C79.031 67.0556 78.709 67.1136 78.3445 67.1136ZM21.4468 81.0455V73.5455H22.0612V74.5859H22.1357C22.2115 74.4226 22.3157 74.2557 22.4482 74.0852C22.5808 73.9124 22.756 73.7668 22.9738 73.6484C23.194 73.5301 23.471 73.4709 23.8048 73.4709C24.2546 73.4709 24.6476 73.5893 24.9838 73.826C25.3223 74.0604 25.5851 74.3894 25.7721 74.8132C25.9615 75.2346 26.0562 75.7259 26.0562 76.2869C26.0562 76.8504 25.9615 77.344 25.7721 77.7678C25.5851 78.1915 25.3223 78.5218 24.9838 78.7585C24.6476 78.9953 24.257 79.1136 23.8119 79.1136C23.4828 79.1136 23.207 79.0545 22.9845 78.9361C22.7643 78.8177 22.5856 78.6721 22.4482 78.4993C22.3133 78.3241 22.2091 78.1536 22.1357 77.9879H22.0789V81.0455H21.4468ZM22.0718 76.2763C22.0718 76.7166 22.1369 77.1072 22.2671 77.4482C22.3997 77.7867 22.5891 78.053 22.8353 78.2472C23.0839 78.4389 23.3846 78.5348 23.7373 78.5348C24.0995 78.5348 24.4049 78.4354 24.6535 78.2365C24.9044 78.0353 25.095 77.7642 25.2252 77.4233C25.3578 77.0824 25.4241 76.7 25.4241 76.2763C25.4241 75.8572 25.359 75.4796 25.2288 75.1435C25.1009 74.8073 24.9115 74.541 24.6606 74.3445C24.4097 74.1456 24.1019 74.0462 23.7373 74.0462C23.3822 74.0462 23.0803 74.142 22.8318 74.3338C22.5832 74.5232 22.3938 74.786 22.2636 75.1222C22.1357 75.456 22.0718 75.8407 22.0718 76.2763ZM30.9088 76.9155V73.5455H31.5409V79H30.9088V78.0945H30.8591C30.7313 78.3738 30.5289 78.607 30.2519 78.794C29.9749 78.9787 29.6363 79.071 29.2362 79.071C28.8882 79.071 28.5793 78.9953 28.3094 78.8438C28.0395 78.6899 27.8276 78.465 27.6737 78.169C27.5199 77.8731 27.4429 77.5097 27.4429 77.0788V73.5455H28.075V77.0398C28.075 77.4659 28.2005 77.8092 28.4514 78.0696C28.7024 78.3277 29.0244 78.4567 29.4173 78.4567C29.6636 78.4567 29.9003 78.3975 30.1276 78.2791C30.3548 78.1607 30.5419 77.9879 30.6887 77.7607C30.8354 77.531 30.9088 77.2493 30.9088 76.9155ZM33.2144 79V73.5455H33.8287V74.3835H33.8749C33.9838 74.1089 34.1732 73.8875 34.4431 73.7195C34.7153 73.549 35.0231 73.4638 35.3664 73.4638C35.4185 73.4638 35.4765 73.465 35.5404 73.4673C35.6043 73.4697 35.6576 73.4721 35.7002 73.4744V74.1172C35.6718 74.1125 35.6221 74.1054 35.551 74.0959C35.48 74.0864 35.4031 74.0817 35.3202 74.0817C35.0361 74.0817 34.7828 74.142 34.5603 74.2628C34.3401 74.3812 34.1661 74.5457 34.0383 74.7564C33.9104 74.9671 33.8465 75.2074 33.8465 75.4773V79H33.2144ZM38.7435 79.1136C38.2558 79.1136 37.8309 78.9917 37.4687 78.7479C37.1088 78.504 36.8295 78.1702 36.6306 77.7464C36.4317 77.3227 36.3323 76.8397 36.3323 76.2976C36.3323 75.7507 36.4329 75.2642 36.6341 74.8381C36.8377 74.4119 37.1195 74.0781 37.4793 73.8366C37.8392 73.5928 38.257 73.4709 38.7329 73.4709C39.0974 73.4709 39.4277 73.5419 39.7236 73.6839C40.0196 73.8236 40.2634 74.0213 40.4552 74.277C40.6493 74.5303 40.7712 74.8262 40.8209 75.1648H40.1817C40.1154 74.857 39.9556 74.5942 39.7023 74.3764C39.4514 74.1562 39.1318 74.0462 38.7435 74.0462C38.3955 74.0462 38.0877 74.1409 37.8202 74.3303C37.5527 74.5173 37.3432 74.7789 37.1917 75.1151C37.0425 75.4489 36.968 75.8359 36.968 76.2763C36.968 76.719 37.0413 77.1108 37.1881 77.4517C37.3349 77.7902 37.5409 78.0554 37.806 78.2472C38.0735 78.4389 38.386 78.5348 38.7435 78.5348C38.985 78.5348 39.2052 78.4898 39.404 78.3999C39.6053 78.3075 39.7733 78.1773 39.9083 78.0092C40.0456 77.8411 40.1379 77.6411 40.1853 77.4091H40.8245C40.7771 77.7382 40.6599 78.0317 40.4729 78.2898C40.2883 78.5455 40.048 78.7467 39.752 78.8935C39.4585 79.0402 39.1223 79.1136 38.7435 79.1136ZM42.8113 75.5909V79H42.1792V71.7273H42.8113V74.4013H42.8682C42.996 74.1196 43.1937 73.8946 43.4612 73.7266C43.7311 73.5585 44.072 73.4744 44.4839 73.4744C44.8532 73.4744 45.1776 73.5502 45.4569 73.7017C45.7363 73.8532 45.9541 74.0769 46.1104 74.3729C46.2666 74.6688 46.3447 75.0334 46.3447 75.4666V79H45.7091V75.5057C45.7091 75.0559 45.5836 74.7019 45.3327 74.4439C45.0841 74.1835 44.7479 74.0533 44.3241 74.0533C44.0329 74.0533 43.7737 74.1148 43.5464 74.2379C43.3192 74.361 43.1392 74.5386 43.0067 74.7706C42.8765 75.0002 42.8113 75.2737 42.8113 75.5909ZM49.5328 79.1243C49.2037 79.1243 48.903 79.0604 48.6308 78.9325C48.3585 78.8023 48.1419 78.6153 47.9809 78.3714C47.8199 78.1252 47.7394 77.8269 47.7394 77.4766C47.7394 77.2067 47.7903 76.9794 47.8921 76.7947C47.9939 76.6101 48.1383 76.4586 48.3254 76.3402C48.5124 76.2218 48.7338 76.1283 48.9894 76.0597C49.2451 75.991 49.5268 75.9377 49.8346 75.8999C50.14 75.862 50.3981 75.8288 50.6088 75.8004C50.8218 75.772 50.984 75.727 51.0953 75.6655C51.2065 75.6039 51.2622 75.5045 51.2622 75.3672V75.2393C51.2622 74.8677 51.1509 74.5753 50.9284 74.3622C50.7082 74.1468 50.391 74.0391 49.9767 74.0391C49.5837 74.0391 49.2629 74.1255 49.0143 74.2983C48.7681 74.4711 48.5953 74.6747 48.4958 74.9091L47.8957 74.6925C48.0188 74.3942 48.1892 74.1562 48.407 73.9787C48.6249 73.7988 48.8687 73.6697 49.1386 73.5916C49.4085 73.5111 49.6819 73.4709 49.9589 73.4709C50.1672 73.4709 50.3838 73.4981 50.6088 73.5526C50.836 73.607 51.0467 73.7017 51.2409 73.8366C51.435 73.9692 51.5924 74.1551 51.7132 74.3942C51.8339 74.6309 51.8943 74.9316 51.8943 75.2962V79H51.2622V78.1371H51.2231C51.1473 78.2981 51.0349 78.4543 50.8857 78.6058C50.7366 78.7573 50.5496 78.8816 50.3247 78.9787C50.0998 79.0758 49.8358 79.1243 49.5328 79.1243ZM49.618 78.5455C49.9542 78.5455 50.2454 78.4709 50.4916 78.3217C50.7378 78.1726 50.9272 77.9749 51.0597 77.7287C51.1947 77.4801 51.2622 77.2067 51.2622 76.9084V76.12C51.2148 76.165 51.1355 76.2053 51.0242 76.2408C50.9153 76.2763 50.7887 76.3082 50.6443 76.3366C50.5022 76.3627 50.3602 76.3852 50.2181 76.4041C50.0761 76.4231 49.9482 76.4396 49.8346 76.4538C49.5268 76.4917 49.2641 76.5509 49.0463 76.6314C48.8285 76.7119 48.6615 76.8232 48.5455 76.9652C48.4295 77.1049 48.3715 77.2848 48.3715 77.505C48.3715 77.8364 48.4899 78.0933 48.7267 78.2756C48.9634 78.4555 49.2605 78.5455 49.618 78.5455ZM57.2405 74.7422L56.6617 74.9055C56.6048 74.7422 56.5244 74.5942 56.4202 74.4616C56.316 74.3291 56.1799 74.2237 56.0118 74.1456C55.8461 74.0675 55.6401 74.0284 55.3939 74.0284C55.0246 74.0284 54.7216 74.116 54.4848 74.2912C54.2481 74.4664 54.1297 74.6925 54.1297 74.9695C54.1297 75.2038 54.2102 75.3944 54.3712 75.5412C54.5345 75.6856 54.7855 75.8004 55.124 75.8857L55.9479 76.0881C56.4048 76.1993 56.7469 76.3757 56.9742 76.6172C57.2038 76.8587 57.3186 77.1617 57.3186 77.5263C57.3186 77.834 57.2334 78.1075 57.0629 78.3466C56.8925 78.5857 56.6546 78.7739 56.3492 78.9112C56.0461 79.0462 55.6946 79.1136 55.2945 79.1136C54.7618 79.1136 54.3227 78.9941 53.977 78.755C53.6314 78.5135 53.41 78.1655 53.3129 77.7109L53.9202 77.5618C53.9983 77.8861 54.151 78.1312 54.3783 78.2969C54.6079 78.4626 54.9098 78.5455 55.2838 78.5455C55.7029 78.5455 56.0378 78.4519 56.2888 78.2649C56.5397 78.0755 56.6652 77.8388 56.6652 77.5547C56.6652 77.3345 56.5918 77.1499 56.445 77.0007C56.2983 76.8492 56.0757 76.7379 55.7774 76.6669L54.8861 76.4538C54.4126 76.3402 54.0622 76.1603 53.835 75.9141C53.6077 75.6679 53.4941 75.3625 53.4941 74.9979C53.4941 74.6972 53.5757 74.4332 53.7391 74.206C53.9024 73.9763 54.1273 73.7964 54.4138 73.6662C54.7003 73.536 55.027 73.4709 55.3939 73.4709C55.8934 73.4709 56.2923 73.5845 56.5906 73.8118C56.8913 74.0367 57.1079 74.3468 57.2405 74.7422ZM60.9079 79.1136C60.3989 79.1136 59.9586 78.9953 59.5869 78.7585C59.2152 78.5194 58.9276 78.1892 58.724 77.7678C58.5228 77.344 58.4221 76.8563 58.4221 76.3047C58.4221 75.7554 58.5228 75.2678 58.724 74.8416C58.9276 74.4131 59.2081 74.0781 59.5656 73.8366C59.9255 73.5928 60.3409 73.4709 60.8121 73.4709C61.108 73.4709 61.3933 73.5253 61.6679 73.6342C61.9425 73.7408 62.1887 73.9053 62.4065 74.1278C62.6267 74.348 62.8007 74.6262 62.9285 74.9624C63.0564 75.2962 63.1203 75.6915 63.1203 76.1484V76.4609H58.8589V75.9034H62.474C62.474 75.553 62.403 75.2382 62.2609 74.9588C62.1212 74.6771 61.9259 74.4545 61.675 74.2912C61.4264 74.1278 61.1388 74.0462 60.8121 74.0462C60.4664 74.0462 60.1622 74.1385 59.8994 74.3232C59.6366 74.5078 59.4307 74.7517 59.2815 75.0547C59.1347 75.3577 59.0602 75.6892 59.0578 76.049V76.3828C59.0578 76.8161 59.1324 77.1948 59.2815 77.5192C59.433 77.8411 59.6473 78.0909 59.9243 78.2685C60.2013 78.446 60.5291 78.5348 60.9079 78.5348C61.166 78.5348 61.3921 78.4946 61.5862 78.4141C61.7827 78.3336 61.9472 78.2259 62.0798 78.0909C62.2148 77.9536 62.3166 77.8033 62.3852 77.6399L62.9854 77.8352C62.9025 78.0649 62.7664 78.2768 62.577 78.4709C62.3899 78.665 62.1556 78.8213 61.8738 78.9396C61.5945 79.0556 61.2725 79.1136 60.9079 79.1136ZM66.477 79.1136C66.0296 79.1136 65.6378 78.9953 65.3016 78.7585C64.9654 78.5218 64.7026 78.1915 64.5132 77.7678C64.3262 77.344 64.2327 76.8504 64.2327 76.2869C64.2327 75.7259 64.3262 75.2346 64.5132 74.8132C64.7026 74.3894 64.9666 74.0604 65.3051 73.826C65.6437 73.5893 66.0378 73.4709 66.4877 73.4709C66.8191 73.4709 67.0949 73.5301 67.3151 73.6484C67.5352 73.7644 67.7116 73.9089 67.8442 74.0817C67.9768 74.2545 68.0798 74.4226 68.1531 74.5859H68.21V71.7273H68.8456V79H68.2277V77.9879H68.1531C68.0798 78.1536 67.9756 78.3241 67.8406 78.4993C67.7057 78.6721 67.527 78.8177 67.3044 78.9361C67.0843 79.0545 66.8084 79.1136 66.477 79.1136ZM66.5516 78.5348C66.9043 78.5348 67.205 78.4389 67.4536 78.2472C67.7021 78.053 67.8915 77.7867 68.0218 77.4482C68.1543 77.1072 68.2206 76.7166 68.2206 76.2763C68.2206 75.8407 68.1555 75.456 68.0253 75.1222C67.8951 74.786 67.7057 74.5232 67.4571 74.3338C67.2085 74.142 66.9067 74.0462 66.5516 74.0462C66.187 74.0462 65.8792 74.1456 65.6283 74.3445C65.3797 74.541 65.1903 74.8073 65.0601 75.1435C64.9323 75.4796 64.8683 75.8572 64.8683 76.2763C64.8683 76.7 64.9334 77.0824 65.0637 77.4233C65.1939 77.7642 65.3833 78.0353 65.6318 78.2365C65.8828 78.4354 66.1894 78.5348 66.5516 78.5348ZM75.5786 79.1136C75.1075 79.1136 74.6908 78.9941 74.3286 78.755C73.9687 78.5159 73.687 78.1856 73.4834 77.7642C73.2798 77.3404 73.178 76.8516 73.178 76.2976C73.178 75.7389 73.2798 75.2476 73.4834 74.8239C73.687 74.3977 73.9687 74.0663 74.3286 73.8295C74.6908 73.5904 75.1075 73.4709 75.5786 73.4709C76.0497 73.4709 76.4652 73.5904 76.825 73.8295C77.1849 74.0687 77.4666 74.4001 77.6702 74.8239C77.8762 75.2476 77.9791 75.7389 77.9791 76.2976C77.9791 76.8516 77.8773 77.3404 77.6737 77.7642C77.4701 78.1856 77.1872 78.5159 76.825 78.755C76.4652 78.9941 76.0497 79.1136 75.5786 79.1136ZM75.5786 78.5348C75.9574 78.5348 76.2781 78.433 76.5409 78.2294C76.8037 78.0258 77.0026 77.7547 77.1375 77.4162C77.2748 77.0777 77.3435 76.7048 77.3435 76.2976C77.3435 75.8904 77.2748 75.5163 77.1375 75.1754C77.0026 74.8345 76.8037 74.5611 76.5409 74.3551C76.2781 74.1491 75.9574 74.0462 75.5786 74.0462C75.2021 74.0462 74.8814 74.1491 74.6162 74.3551C74.3534 74.5611 74.1534 74.8345 74.0161 75.1754C73.8811 75.5163 73.8137 75.8904 73.8137 76.2976C73.8137 76.7048 73.8811 77.0777 74.0161 77.4162C74.1534 77.7547 74.3534 78.0258 74.6162 78.2294C74.879 78.433 75.1998 78.5348 75.5786 78.5348ZM79.9988 75.5909V79H79.3667V73.5455H79.9811V74.4013H80.0379C80.1657 74.1219 80.3646 73.8982 80.6345 73.7301C80.9068 73.5597 81.2429 73.4744 81.643 73.4744C82.01 73.4744 82.3319 73.5514 82.6089 73.7053C82.8883 73.8568 83.1049 74.0805 83.2588 74.3764C83.415 74.6723 83.4932 75.0357 83.4932 75.4666V79H82.8611V75.5057C82.8611 75.0582 82.7356 74.7043 82.4846 74.4439C82.2361 74.1835 81.9023 74.0533 81.4832 74.0533C81.1968 74.0533 80.9423 74.1148 80.7197 74.2379C80.4972 74.361 80.3208 74.5386 80.1906 74.7706C80.0628 75.0002 79.9988 75.2737 79.9988 75.5909ZM87.363 79.1136C86.854 79.1136 86.4137 78.9953 86.042 78.7585C85.6703 78.5194 85.3827 78.1892 85.1791 77.7678C84.9778 77.344 84.8772 76.8563 84.8772 76.3047C84.8772 75.7554 84.9778 75.2678 85.1791 74.8416C85.3827 74.4131 85.6632 74.0781 86.0207 73.8366C86.3805 73.5928 86.796 73.4709 87.2671 73.4709C87.5631 73.4709 87.8483 73.5253 88.123 73.6342C88.3976 73.7408 88.6438 73.9053 88.8616 74.1278C89.0818 74.348 89.2558 74.6262 89.3836 74.9624C89.5115 75.2962 89.5754 75.6915 89.5754 76.1484V76.4609H85.314V75.9034H88.9291C88.9291 75.553 88.858 75.2382 88.716 74.9588C88.5763 74.6771 88.381 74.4545 88.1301 74.2912C87.8815 74.1278 87.5938 74.0462 87.2671 74.0462C86.9215 74.0462 86.6173 74.1385 86.3545 74.3232C86.0917 74.5078 85.8857 74.7517 85.7366 75.0547C85.5898 75.3577 85.5152 75.6892 85.5129 76.049V76.3828C85.5129 76.8161 85.5874 77.1948 85.7366 77.5192C85.8881 77.8411 86.1024 78.0909 86.3794 78.2685C86.6563 78.446 86.9842 78.5348 87.363 78.5348C87.6211 78.5348 87.8472 78.4946 88.0413 78.4141C88.2378 78.3336 88.4023 78.2259 88.5349 78.0909C88.6698 77.9536 88.7716 77.8033 88.8403 77.6399L89.4404 77.8352C89.3576 78.0649 89.2214 78.2768 89.032 78.4709C88.845 78.665 88.6106 78.8213 88.3289 78.9396C88.0496 79.0556 87.7276 79.1136 87.363 79.1136ZM93.7879 79V73.5455H94.4236V79H93.7879ZM94.1111 72.608C93.9809 72.608 93.8696 72.5642 93.7773 72.4766C93.6849 72.3866 93.6388 72.2789 93.6388 72.1534C93.6388 72.0279 93.6849 71.9214 93.7773 71.8338C93.8696 71.7438 93.9809 71.6989 94.1111 71.6989C94.2413 71.6989 94.3525 71.7438 94.4449 71.8338C94.5372 71.9214 94.5834 72.0279 94.5834 72.1534C94.5834 72.2789 94.5372 72.3866 94.4449 72.4766C94.3525 72.5642 94.2413 72.608 94.1111 72.608ZM99.76 74.7422L99.1812 74.9055C99.1244 74.7422 99.0439 74.5942 98.9397 74.4616C98.8356 74.3291 98.6994 74.2237 98.5313 74.1456C98.3656 74.0675 98.1597 74.0284 97.9134 74.0284C97.5441 74.0284 97.2411 74.116 97.0044 74.2912C96.7676 74.4664 96.6492 74.6925 96.6492 74.9695C96.6492 75.2038 96.7297 75.3944 96.8907 75.5412C97.0541 75.6856 97.305 75.8004 97.6436 75.8857L98.4674 76.0881C98.9243 76.1993 99.2664 76.3757 99.4937 76.6172C99.7233 76.8587 99.8382 77.1617 99.8382 77.5263C99.8382 77.834 99.7529 78.1075 99.5825 78.3466C99.412 78.5857 99.1741 78.7739 98.8687 78.9112C98.5657 79.0462 98.2141 79.1136 97.814 79.1136C97.2813 79.1136 96.8422 78.9941 96.4965 78.755C96.1509 78.5135 95.9295 78.1655 95.8325 77.7109L96.4397 77.5618C96.5178 77.8861 96.6705 78.1312 96.8978 78.2969C97.1275 78.4626 97.4293 78.5455 97.8034 78.5455C98.2224 78.5455 98.5574 78.4519 98.8083 78.2649C99.0593 78.0755 99.1847 77.8388 99.1847 77.5547C99.1847 77.3345 99.1114 77.1499 98.9646 77.0007C98.8178 76.8492 98.5953 76.7379 98.297 76.6669L97.4056 76.4538C96.9321 76.3402 96.5818 76.1603 96.3545 75.9141C96.1272 75.6679 96.0136 75.3625 96.0136 74.9979C96.0136 74.6972 96.0953 74.4332 96.2586 74.206C96.422 73.9763 96.6469 73.7964 96.9333 73.6662C97.2198 73.536 97.5465 73.4709 97.9134 73.4709C98.413 73.4709 98.8119 73.5845 99.1102 73.8118C99.4108 74.0367 99.6275 74.3468 99.76 74.7422ZM38.6459 91.1136C38.1582 91.1136 37.7332 90.9917 37.371 90.7479C37.0112 90.504 36.7318 90.1702 36.5329 89.7464C36.3341 89.3227 36.2346 88.8397 36.2346 88.2976C36.2346 87.7507 36.3353 87.2642 36.5365 86.8381C36.7401 86.4119 37.0218 86.0781 37.3817 85.8366C37.7415 85.5928 38.1594 85.4709 38.6352 85.4709C38.9998 85.4709 39.33 85.5419 39.626 85.6839C39.9219 85.8236 40.1657 86.0213 40.3575 86.277C40.5516 86.5303 40.6736 86.8262 40.7233 87.1648H40.0841C40.0178 86.857 39.858 86.5942 39.6047 86.3764C39.3537 86.1562 39.0341 86.0462 38.6459 86.0462C38.2979 86.0462 37.9901 86.1409 37.7226 86.3303C37.455 86.5173 37.2455 86.7789 37.094 87.1151C36.9449 87.4489 36.8703 87.8359 36.8703 88.2763C36.8703 88.719 36.9437 89.1108 37.0905 89.4517C37.2372 89.7902 37.4432 90.0554 37.7084 90.2472C37.9759 90.4389 38.2884 90.5348 38.6459 90.5348C38.8873 90.5348 39.1075 90.4898 39.3064 90.3999C39.5076 90.3075 39.6757 90.1773 39.8106 90.0092C39.9479 89.8411 40.0403 89.6411 40.0876 89.4091H40.7268C40.6795 89.7382 40.5623 90.0317 40.3753 90.2898C40.1906 90.5455 39.9503 90.7467 39.6544 90.8935C39.3608 91.0402 39.0247 91.1136 38.6459 91.1136ZM44.2016 91.1136C43.7305 91.1136 43.3138 90.9941 42.9516 90.755C42.5918 90.5159 42.31 90.1856 42.1064 89.7642C41.9028 89.3404 41.801 88.8516 41.801 88.2976C41.801 87.7389 41.9028 87.2476 42.1064 86.8239C42.31 86.3977 42.5918 86.0663 42.9516 85.8295C43.3138 85.5904 43.7305 85.4709 44.2016 85.4709C44.6727 85.4709 45.0882 85.5904 45.4481 85.8295C45.8079 86.0687 46.0896 86.4001 46.2932 86.8239C46.4992 87.2476 46.6022 87.7389 46.6022 88.2976C46.6022 88.8516 46.5004 89.3404 46.2968 89.7642C46.0932 90.1856 45.8103 90.5159 45.4481 90.755C45.0882 90.9941 44.6727 91.1136 44.2016 91.1136ZM44.2016 90.5348C44.5804 90.5348 44.9012 90.433 45.164 90.2294C45.4268 90.0258 45.6256 89.7547 45.7606 89.4162C45.8979 89.0777 45.9665 88.7048 45.9665 88.2976C45.9665 87.8904 45.8979 87.5163 45.7606 87.1754C45.6256 86.8345 45.4268 86.5611 45.164 86.3551C44.9012 86.1491 44.5804 86.0462 44.2016 86.0462C43.8252 86.0462 43.5044 86.1491 43.2393 86.3551C42.9765 86.5611 42.7764 86.8345 42.6391 87.1754C42.5042 87.5163 42.4367 87.8904 42.4367 88.2976C42.4367 88.7048 42.5042 89.0777 42.6391 89.4162C42.7764 89.7547 42.9765 90.0258 43.2393 90.2294C43.502 90.433 43.8228 90.5348 44.2016 90.5348ZM47.9898 91V85.5455H48.6041V86.3835H48.661C48.7699 86.1018 48.951 85.8804 49.2043 85.7195C49.46 85.5561 49.7665 85.4744 50.124 85.4744C50.5004 85.4744 50.8094 85.5632 51.0509 85.7408C51.2947 85.916 51.477 86.1574 51.5977 86.4652H51.6439C51.767 86.1622 51.9671 85.9219 52.2441 85.7443C52.5234 85.5644 52.8619 85.4744 53.2597 85.4744C53.7663 85.4744 54.1664 85.6342 54.46 85.9538C54.7535 86.2711 54.9003 86.7351 54.9003 87.3459V91H54.2682V87.3459C54.2682 86.915 54.1581 86.5919 53.9379 86.3764C53.7178 86.161 53.4278 86.0533 53.0679 86.0533C52.6512 86.0533 52.3305 86.1811 52.1056 86.4368C51.8807 86.6925 51.7682 87.0168 51.7682 87.4098V91H51.1219V87.2891C51.1219 86.9197 51.0189 86.6214 50.8129 86.3942C50.607 86.1669 50.317 86.0533 49.9429 86.0533C49.692 86.0533 49.4659 86.1148 49.2646 86.2379C49.0658 86.361 48.9084 86.5327 48.7923 86.7528C48.6787 86.9706 48.6219 87.2216 48.6219 87.5057V91H47.9898ZM56.5738 93.0455V85.5455H57.1881V86.5859H57.2627C57.3385 86.4226 57.4426 86.2557 57.5752 86.0852C57.7078 85.9124 57.883 85.7668 58.1008 85.6484C58.3209 85.5301 58.5979 85.4709 58.9317 85.4709C59.3815 85.4709 59.7745 85.5893 60.1107 85.826C60.4492 86.0604 60.712 86.3894 60.8991 86.8132C61.0885 87.2346 61.1832 87.7259 61.1832 88.2869C61.1832 88.8504 61.0885 89.344 60.8991 89.7678C60.712 90.1915 60.4492 90.5218 60.1107 90.7585C59.7745 90.9953 59.3839 91.1136 58.9388 91.1136C58.6098 91.1136 58.334 91.0545 58.1114 90.9361C57.8912 90.8177 57.7125 90.6721 57.5752 90.4993C57.4403 90.3241 57.3361 90.1536 57.2627 89.9879H57.2059V93.0455H56.5738ZM57.1988 88.2763C57.1988 88.7166 57.2639 89.1072 57.3941 89.4482C57.5267 89.7867 57.7161 90.053 57.9623 90.2472C58.2108 90.4389 58.5115 90.5348 58.8643 90.5348C59.2265 90.5348 59.5319 90.4354 59.7805 90.2365C60.0314 90.0353 60.222 89.7642 60.3522 89.4233C60.4848 89.0824 60.551 88.7 60.551 88.2763C60.551 87.8572 60.4859 87.4796 60.3557 87.1435C60.2279 86.8073 60.0385 86.541 59.7876 86.3445C59.5366 86.1456 59.2288 86.0462 58.8643 86.0462C58.5091 86.0462 58.2073 86.142 57.9587 86.3338C57.7101 86.5232 57.5207 86.786 57.3905 87.1222C57.2627 87.456 57.1988 87.8407 57.1988 88.2763ZM63.202 83.7273V91H62.5699V83.7273H63.202ZM67.0798 91.1136C66.5708 91.1136 66.1305 90.9953 65.7588 90.7585C65.3871 90.5194 65.0995 90.1892 64.8959 89.7678C64.6946 89.344 64.594 88.8563 64.594 88.3047C64.594 87.7554 64.6946 87.2678 64.8959 86.8416C65.0995 86.4131 65.38 86.0781 65.7375 85.8366C66.0973 85.5928 66.5128 85.4709 66.9839 85.4709C67.2799 85.4709 67.5651 85.5253 67.8398 85.6342C68.1144 85.7408 68.3606 85.9053 68.5784 86.1278C68.7986 86.348 68.9726 86.6262 69.1004 86.9624C69.2282 87.2962 69.2922 87.6915 69.2922 88.1484V88.4609H65.0308V87.9034H68.6459C68.6459 87.553 68.5748 87.2382 68.4328 86.9588C68.2931 86.6771 68.0978 86.4545 67.8469 86.2912C67.5983 86.1278 67.3106 86.0462 66.9839 86.0462C66.6383 86.0462 66.3341 86.1385 66.0713 86.3232C65.8085 86.5078 65.6025 86.7517 65.4534 87.0547C65.3066 87.3577 65.232 87.6892 65.2297 88.049V88.3828C65.2297 88.8161 65.3042 89.1948 65.4534 89.5192C65.6049 89.8411 65.8192 90.0909 66.0961 90.2685C66.3731 90.446 66.701 90.5348 67.0798 90.5348C67.3379 90.5348 67.564 90.4946 67.7581 90.4141C67.9546 90.3336 68.1191 90.2259 68.2517 90.0909C68.3866 89.9536 68.4884 89.8033 68.5571 89.6399L69.1572 89.8352C69.0744 90.0649 68.9382 90.2768 68.7488 90.4709C68.5618 90.665 68.3274 90.8213 68.0457 90.9396C67.7664 91.0556 67.4444 91.1136 67.0798 91.1136ZM72.8335 85.5455V86.0959H70.2306V85.5455H72.8335ZM71.0438 84.2386H71.6794V89.576C71.6794 89.8033 71.7185 89.982 71.7966 90.1122C71.8747 90.2401 71.9765 90.3312 72.102 90.3857C72.2275 90.4377 72.3612 90.4638 72.5033 90.4638C72.5861 90.4638 72.6572 90.459 72.7164 90.4496C72.7755 90.4377 72.8276 90.4259 72.8726 90.4141L73.0075 90.9858C72.946 91.0095 72.8702 91.0308 72.7803 91.0497C72.6903 91.071 72.579 91.0817 72.4465 91.0817C72.2145 91.0817 71.9907 91.0308 71.7753 90.929C71.5622 90.8272 71.387 90.6757 71.2497 90.4744C71.1124 90.2732 71.0438 90.0234 71.0438 89.7251V84.2386ZM76.4157 91.1136C75.9068 91.1136 75.4664 90.9953 75.0947 90.7585C74.723 90.5194 74.4354 90.1892 74.2318 89.7678C74.0306 89.344 73.93 88.8563 73.93 88.3047C73.93 87.7554 74.0306 87.2678 74.2318 86.8416C74.4354 86.4131 74.7159 86.0781 75.0734 85.8366C75.4333 85.5928 75.8488 85.4709 76.3199 85.4709C76.6158 85.4709 76.9011 85.5253 77.1757 85.6342C77.4503 85.7408 77.6965 85.9053 77.9143 86.1278C78.1345 86.348 78.3085 86.6262 78.4363 86.9624C78.5642 87.2962 78.6281 87.6915 78.6281 88.1484V88.4609H74.3667V87.9034H77.9818C77.9818 87.553 77.9108 87.2382 77.7687 86.9588C77.6291 86.6771 77.4337 86.4545 77.1828 86.2912C76.9342 86.1278 76.6466 86.0462 76.3199 86.0462C75.9742 86.0462 75.67 86.1385 75.4072 86.3232C75.1444 86.5078 74.9385 86.7517 74.7893 87.0547C74.6425 87.3577 74.568 87.6892 74.5656 88.049V88.3828C74.5656 88.8161 74.6402 89.1948 74.7893 89.5192C74.9408 89.8411 75.1551 90.0909 75.4321 90.2685C75.7091 90.446 76.037 90.5348 76.4157 90.5348C76.6738 90.5348 76.8999 90.4946 77.094 90.4141C77.2905 90.3336 77.455 90.2259 77.5876 90.0909C77.7226 89.9536 77.8244 89.8033 77.893 89.6399L78.4932 89.8352C78.4103 90.0649 78.2742 90.2768 78.0848 90.4709C77.8978 90.665 77.6634 90.8213 77.3817 90.9396C77.1023 91.0556 76.7803 91.1136 76.4157 91.1136ZM81.9848 91.1136C81.5374 91.1136 81.1456 90.9953 80.8094 90.7585C80.4732 90.5218 80.2104 90.1915 80.021 89.7678C79.834 89.344 79.7405 88.8504 79.7405 88.2869C79.7405 87.7259 79.834 87.2346 80.021 86.8132C80.2104 86.3894 80.4744 86.0604 80.8129 85.826C81.1515 85.5893 81.5457 85.4709 81.9955 85.4709C82.3269 85.4709 82.6027 85.5301 82.8229 85.6484C83.0431 85.7644 83.2194 85.9089 83.352 86.0817C83.4846 86.2545 83.5876 86.4226 83.661 86.5859H83.7178V83.7273H84.3534V91H83.7355V89.9879H83.661C83.5876 90.1536 83.4834 90.3241 83.3485 90.4993C83.2135 90.6721 83.0348 90.8177 82.8122 90.9361C82.5921 91.0545 82.3163 91.1136 81.9848 91.1136ZM82.0594 90.5348C82.4121 90.5348 82.7128 90.4389 82.9614 90.2472C83.21 90.053 83.3994 89.7867 83.5296 89.4482C83.6621 89.1072 83.7284 88.7166 83.7284 88.2763C83.7284 87.8407 83.6633 87.456 83.5331 87.1222C83.4029 86.786 83.2135 86.5232 82.9649 86.3338C82.7164 86.142 82.4145 86.0462 82.0594 86.0462C81.6948 86.0462 81.387 86.1456 81.1361 86.3445C80.8875 86.541 80.6981 86.8073 80.5679 87.1435C80.4401 87.4796 80.3762 87.8572 80.3762 88.2763C80.3762 88.7 80.4413 89.0824 80.5715 89.4233C80.7017 89.7642 80.8911 90.0353 81.1396 90.2365C81.3906 90.4354 81.6972 90.5348 82.0594 90.5348Z" fill="#222222"/>
<defs>
<filter id="filter0_d_954_121" x="0" y="0" width="118" height="118" filterUnits="userSpaceOnUse" color-interpolation-filters="sRGB">
<feFlood flood-opacity="0" result="BackgroundImageFix"/>
<feColorMatrix in="SourceAlpha" type="matrix" values="0 0 0 0 0 0 0 0 0 0 0 0 0 0 0 0 0 0 127 0" result="hardAlpha"/>
<feOffset dy="4"/>
<feGaussianBlur stdDeviation="2"/>
<feComposite in2="hardAlpha" operator="out"/>
<feColorMatrix type="matrix" values="0 0 0 0 0 0 0 0 0 0 0 0 0 0 0 0 0 0 0.25 0"/>
<feBlend mode="normal" in2="BackgroundImageFix" result="effect1_dropShadow_954_121"/>
<feBlend mode="normal" in="SourceGraphic" in2="effect1_dropShadow_954_121" result="shape"/>
</filter>
</defs>
</svg>
