<svg width="118" height="118" viewBox="0 0 118 118" fill="none" xmlns="http://www.w3.org/2000/svg">
<g filter="url(#filter0_d_954_119)">
<rect x="4" width="110" height="110" fill="#7F7CA1" fill-opacity="0.5" shape-rendering="crispEdges"/>
</g>
<path d="M28.8892 31V25.5455H29.5036V26.3835H29.5604C29.6693 26.1018 29.8504 25.8804 30.1037 25.7195C30.3594 25.5561 30.666 25.4744 31.0234 25.4744C31.3999 25.4744 31.7088 25.5632 31.9503 25.7408C32.1941 25.916 32.3764 26.1574 32.4972 26.4652H32.5433C32.6664 26.1622 32.8665 25.9219 33.1435 25.7443C33.4228 25.5644 33.7614 25.4744 34.1591 25.4744C34.6657 25.4744 35.0658 25.6342 35.3594 25.9538C35.6529 26.2711 35.7997 26.7351 35.7997 27.3459V31H35.1676V27.3459C35.1676 26.915 35.0575 26.5919 34.8374 26.3764C34.6172 26.161 34.3272 26.0533 33.9673 26.0533C33.5507 26.0533 33.2299 26.1811 33.005 26.4368C32.7801 26.6925 32.6676 27.0168 32.6676 27.4098V31H32.0213V27.2891C32.0213 26.9197 31.9183 26.6214 31.7124 26.3942C31.5064 26.1669 31.2164 26.0533 30.8423 26.0533C30.5914 26.0533 30.3653 26.1148 30.1641 26.2379C29.9652 26.361 29.8078 26.5327 29.6918 26.7528C29.5781 26.9706 29.5213 27.2216 29.5213 27.5057V31H28.8892ZM39.5932 31.1136C39.1221 31.1136 38.7054 30.9941 38.3432 30.755C37.9834 30.5159 37.7016 30.1856 37.498 29.7642C37.2944 29.3404 37.1926 28.8516 37.1926 28.2976C37.1926 27.7389 37.2944 27.2476 37.498 26.8239C37.7016 26.3977 37.9834 26.0663 38.3432 25.8295C38.7054 25.5904 39.1221 25.4709 39.5932 25.4709C40.0643 25.4709 40.4798 25.5904 40.8397 25.8295C41.1995 26.0687 41.4812 26.4001 41.6848 26.8239C41.8908 27.2476 41.9938 27.7389 41.9938 28.2976C41.9938 28.8516 41.892 29.3404 41.6884 29.7642C41.4848 30.1856 41.2019 30.5159 40.8397 30.755C40.4798 30.9941 40.0643 31.1136 39.5932 31.1136ZM39.5932 30.5348C39.972 30.5348 40.2928 30.433 40.5556 30.2294C40.8184 30.0258 41.0172 29.7547 41.1522 29.4162C41.2895 29.0777 41.3581 28.7048 41.3581 28.2976C41.3581 27.8904 41.2895 27.5163 41.1522 27.1754C41.0172 26.8345 40.8184 26.5611 40.5556 26.3551C40.2928 26.1491 39.972 26.0462 39.5932 26.0462C39.2168 26.0462 38.896 26.1491 38.6309 26.3551C38.3681 26.5611 38.168 26.8345 38.0307 27.1754C37.8958 27.5163 37.8283 27.8904 37.8283 28.2976C37.8283 28.7048 37.8958 29.0777 38.0307 29.4162C38.168 29.7547 38.3681 30.0258 38.6309 30.2294C38.8936 30.433 39.2144 30.5348 39.5932 30.5348ZM47.0462 26.7422L46.4673 26.9055C46.4105 26.7422 46.33 26.5942 46.2259 26.4616C46.1217 26.3291 45.9856 26.2237 45.8175 26.1456C45.6518 26.0675 45.4458 26.0284 45.1996 26.0284C44.8303 26.0284 44.5272 26.116 44.2905 26.2912C44.0537 26.4664 43.9354 26.6925 43.9354 26.9695C43.9354 27.2038 44.0159 27.3944 44.1768 27.5412C44.3402 27.6856 44.5911 27.8004 44.9297 27.8857L45.7536 28.0881C46.2105 28.1993 46.5526 28.3757 46.7798 28.6172C47.0095 28.8587 47.1243 29.1617 47.1243 29.5263C47.1243 29.834 47.0391 30.1075 46.8686 30.3466C46.6982 30.5857 46.4602 30.7739 46.1548 30.9112C45.8518 31.0462 45.5002 31.1136 45.1001 31.1136C44.5675 31.1136 44.1283 30.9941 43.7827 30.755C43.437 30.5135 43.2157 30.1655 43.1186 29.7109L43.7259 29.5618C43.804 29.8861 43.9567 30.1312 44.1839 30.2969C44.4136 30.4626 44.7154 30.5455 45.0895 30.5455C45.5085 30.5455 45.8435 30.4519 46.0945 30.2649C46.3454 30.0755 46.4709 29.8388 46.4709 29.5547C46.4709 29.3345 46.3975 29.1499 46.2507 29.0007C46.1039 28.8492 45.8814 28.7379 45.5831 28.6669L44.6918 28.4538C44.2183 28.3402 43.8679 28.1603 43.6406 27.9141C43.4134 27.6679 43.2997 27.3625 43.2997 26.9979C43.2997 26.6972 43.3814 26.4332 43.5447 26.206C43.7081 25.9763 43.933 25.7964 44.2195 25.6662C44.5059 25.536 44.8326 25.4709 45.1996 25.4709C45.6991 25.4709 46.098 25.5845 46.3963 25.8118C46.697 26.0367 46.9136 26.3468 47.0462 26.7422ZM50.6568 25.5455V26.0959H48.0538V25.5455H50.6568ZM48.867 24.2386H49.5027V29.576C49.5027 29.8033 49.5417 29.982 49.6199 30.1122C49.698 30.2401 49.7998 30.3312 49.9252 30.3857C50.0507 30.4377 50.1845 30.4638 50.3265 30.4638C50.4094 30.4638 50.4804 30.459 50.5396 30.4496C50.5988 30.4377 50.6509 30.4259 50.6958 30.4141L50.8308 30.9858C50.7692 31.0095 50.6935 31.0308 50.6035 31.0497C50.5136 31.071 50.4023 31.0817 50.2697 31.0817C50.0377 31.0817 49.814 31.0308 49.5985 30.929C49.3855 30.8272 49.2103 30.6757 49.073 30.4744C48.9357 30.2732 48.867 30.0234 48.867 29.7251V24.2386ZM57.0355 31.1136C56.5478 31.1136 56.1229 30.9917 55.7607 30.7479C55.4008 30.504 55.1214 30.1702 54.9226 29.7464C54.7237 29.3227 54.6243 28.8397 54.6243 28.2976C54.6243 27.7507 54.7249 27.2642 54.9261 26.8381C55.1297 26.4119 55.4115 26.0781 55.7713 25.8366C56.1312 25.5928 56.549 25.4709 57.0249 25.4709C57.3894 25.4709 57.7197 25.5419 58.0156 25.6839C58.3116 25.8236 58.5554 26.0213 58.7472 26.277C58.9413 26.5303 59.0632 26.8262 59.1129 27.1648H58.4737C58.4074 26.857 58.2476 26.5942 57.9943 26.3764C57.7434 26.1562 57.4238 26.0462 57.0355 26.0462C56.6875 26.0462 56.3797 26.1409 56.1122 26.3303C55.8447 26.5173 55.6352 26.7789 55.4837 27.1151C55.3345 27.4489 55.2599 27.8359 55.2599 28.2763C55.2599 28.719 55.3333 29.1108 55.4801 29.4517C55.6269 29.7902 55.8329 30.0554 56.098 30.2472C56.3655 30.4389 56.678 30.5348 57.0355 30.5348C57.277 30.5348 57.4972 30.4898 57.696 30.3999C57.8973 30.3075 58.0653 30.1773 58.2003 30.0092C58.3376 29.8411 58.4299 29.6411 58.4773 29.4091H59.1165C59.0691 29.7382 58.9519 30.0317 58.7649 30.2898C58.5803 30.5455 58.34 30.7467 58.044 30.8935C57.7505 31.0402 57.4143 31.1136 57.0355 31.1136ZM62.5913 31.1136C62.1201 31.1136 61.7035 30.9941 61.3413 30.755C60.9814 30.5159 60.6997 30.1856 60.4961 29.7642C60.2925 29.3404 60.1907 28.8516 60.1907 28.2976C60.1907 27.7389 60.2925 27.2476 60.4961 26.8239C60.6997 26.3977 60.9814 26.0663 61.3413 25.8295C61.7035 25.5904 62.1201 25.4709 62.5913 25.4709C63.0624 25.4709 63.4779 25.5904 63.8377 25.8295C64.1976 26.0687 64.4793 26.4001 64.6829 26.8239C64.8888 27.2476 64.9918 27.7389 64.9918 28.2976C64.9918 28.8516 64.89 29.3404 64.6864 29.7642C64.4828 30.1856 64.1999 30.5159 63.8377 30.755C63.4779 30.9941 63.0624 31.1136 62.5913 31.1136ZM62.5913 30.5348C62.9701 30.5348 63.2908 30.433 63.5536 30.2294C63.8164 30.0258 64.0153 29.7547 64.1502 29.4162C64.2875 29.0777 64.3562 28.7048 64.3562 28.2976C64.3562 27.8904 64.2875 27.5163 64.1502 27.1754C64.0153 26.8345 63.8164 26.5611 63.5536 26.3551C63.2908 26.1491 62.9701 26.0462 62.5913 26.0462C62.2148 26.0462 61.8941 26.1491 61.6289 26.3551C61.3661 26.5611 61.1661 26.8345 61.0288 27.1754C60.8938 27.5163 60.8263 27.8904 60.8263 28.2976C60.8263 28.7048 60.8938 29.0777 61.0288 29.4162C61.1661 29.7547 61.3661 30.0258 61.6289 30.2294C61.8917 30.433 62.2125 30.5348 62.5913 30.5348ZM69.8453 28.9155V25.5455H70.4775V31H69.8453V30.0945H69.7956C69.6678 30.3738 69.4654 30.607 69.1884 30.794C68.9114 30.9787 68.5729 31.071 68.1728 31.071C67.8248 31.071 67.5158 30.9953 67.2459 30.8438C66.976 30.6899 66.7641 30.465 66.6103 30.169C66.4564 29.8731 66.3794 29.5097 66.3794 29.0788V25.5455H67.0115V29.0398C67.0115 29.4659 67.137 29.8092 67.388 30.0696C67.6389 30.3277 67.9609 30.4567 68.3539 30.4567C68.6001 30.4567 68.8368 30.3975 69.0641 30.2791C69.2914 30.1607 69.4784 29.9879 69.6252 29.7607C69.772 29.531 69.8453 29.2493 69.8453 28.9155ZM72.1509 31V25.5455H72.7653V26.3835H72.8114C72.9203 26.1089 73.1097 25.8875 73.3796 25.7195C73.6519 25.549 73.9596 25.4638 74.3029 25.4638C74.355 25.4638 74.413 25.465 74.4769 25.4673C74.5408 25.4697 74.5941 25.4721 74.6367 25.4744V26.1172C74.6083 26.1125 74.5586 26.1054 74.4876 26.0959C74.4165 26.0864 74.3396 26.0817 74.2567 26.0817C73.9727 26.0817 73.7193 26.142 73.4968 26.2628C73.2766 26.3812 73.1026 26.5457 72.9748 26.7564C72.8469 26.9671 72.783 27.2074 72.783 27.4773V31H72.1509ZM79.3801 26.7422L78.8013 26.9055C78.7445 26.7422 78.664 26.5942 78.5598 26.4616C78.4557 26.3291 78.3195 26.2237 78.1515 26.1456C77.9857 26.0675 77.7798 26.0284 77.5336 26.0284C77.1642 26.0284 76.8612 26.116 76.6245 26.2912C76.3877 26.4664 76.2694 26.6925 76.2694 26.9695C76.2694 27.2038 76.3498 27.3944 76.5108 27.5412C76.6742 27.6856 76.9251 27.8004 77.2637 27.8857L78.0875 28.0881C78.5444 28.1993 78.8865 28.3757 79.1138 28.6172C79.3435 28.8587 79.4583 29.1617 79.4583 29.5263C79.4583 29.834 79.373 30.1075 79.2026 30.3466C79.0321 30.5857 78.7942 30.7739 78.4888 30.9112C78.1858 31.0462 77.8342 31.1136 77.4341 31.1136C76.9015 31.1136 76.4623 30.9941 76.1167 30.755C75.771 30.5135 75.5497 30.1655 75.4526 29.7109L76.0598 29.5618C76.138 29.8861 76.2907 30.1312 76.5179 30.2969C76.7476 30.4626 77.0494 30.5455 77.4235 30.5455C77.8425 30.5455 78.1775 30.4519 78.4284 30.2649C78.6794 30.0755 78.8049 29.8388 78.8049 29.5547C78.8049 29.3345 78.7315 29.1499 78.5847 29.0007C78.4379 28.8492 78.2154 28.7379 77.9171 28.6669L77.0257 28.4538C76.5523 28.3402 76.2019 28.1603 75.9746 27.9141C75.7473 27.6679 75.6337 27.3625 75.6337 26.9979C75.6337 26.6972 75.7154 26.4332 75.8787 26.206C76.0421 25.9763 76.267 25.7964 76.5534 25.6662C76.8399 25.536 77.1666 25.4709 77.5336 25.4709C78.0331 25.4709 78.432 25.5845 78.7303 25.8118C79.031 26.0367 79.2476 26.3468 79.3801 26.7422ZM83.0476 31.1136C82.5386 31.1136 82.0982 30.9953 81.7266 30.7585C81.3549 30.5194 81.0672 30.1892 80.8636 29.7678C80.6624 29.344 80.5618 28.8563 80.5618 28.3047C80.5618 27.7554 80.6624 27.2678 80.8636 26.8416C81.0672 26.4131 81.3478 26.0781 81.7053 25.8366C82.0651 25.5928 82.4806 25.4709 82.9517 25.4709C83.2476 25.4709 83.5329 25.5253 83.8075 25.6342C84.0821 25.7408 84.3284 25.9053 84.5462 26.1278C84.7663 26.348 84.9403 26.6262 85.0682 26.9624C85.196 27.2962 85.2599 27.6915 85.2599 28.1484V28.4609H80.9986V27.9034H84.6136C84.6136 27.553 84.5426 27.2382 84.4006 26.9588C84.2609 26.6771 84.0656 26.4545 83.8146 26.2912C83.5661 26.1278 83.2784 26.0462 82.9517 26.0462C82.6061 26.0462 82.3018 26.1385 82.0391 26.3232C81.7763 26.5078 81.5703 26.7517 81.4212 27.0547C81.2744 27.3577 81.1998 27.6892 81.1974 28.049V28.3828C81.1974 28.8161 81.272 29.1948 81.4212 29.5192C81.5727 29.8411 81.7869 30.0909 82.0639 30.2685C82.3409 30.446 82.6688 30.5348 83.0476 30.5348C83.3056 30.5348 83.5317 30.4946 83.7259 30.4141C83.9223 30.3336 84.0869 30.2259 84.2195 30.0909C84.3544 29.9536 84.4562 29.8033 84.5249 29.6399L85.125 29.8352C85.0421 30.0649 84.906 30.2768 84.7166 30.4709C84.5296 30.665 84.2952 30.8213 84.0135 30.9396C83.7341 31.0556 83.4122 31.1136 83.0476 31.1136ZM90.3176 26.7422L89.7388 26.9055C89.682 26.7422 89.6015 26.5942 89.4973 26.4616C89.3932 26.3291 89.257 26.2237 89.089 26.1456C88.9232 26.0675 88.7173 26.0284 88.4711 26.0284C88.1017 26.0284 87.7987 26.116 87.562 26.2912C87.3252 26.4664 87.2069 26.6925 87.2069 26.9695C87.2069 27.2038 87.2873 27.3944 87.4483 27.5412C87.6117 27.6856 87.8626 27.8004 88.2012 27.8857L89.025 28.0881C89.4819 28.1993 89.824 28.3757 90.0513 28.6172C90.281 28.8587 90.3958 29.1617 90.3958 29.5263C90.3958 29.834 90.3105 30.1075 90.1401 30.3466C89.9696 30.5857 89.7317 30.7739 89.4263 30.9112C89.1233 31.0462 88.7717 31.1136 88.3716 31.1136C87.839 31.1136 87.3998 30.9941 87.0542 30.755C86.7085 30.5135 86.4872 30.1655 86.3901 29.7109L86.9973 29.5618C87.0755 29.8861 87.2282 30.1312 87.4554 30.2969C87.6851 30.4626 87.9869 30.5455 88.361 30.5455C88.78 30.5455 89.115 30.4519 89.3659 30.2649C89.6169 30.0755 89.7424 29.8388 89.7424 29.5547C89.7424 29.3345 89.669 29.1499 89.5222 29.0007C89.3754 28.8492 89.1529 28.7379 88.8546 28.6669L87.9632 28.4538C87.4898 28.3402 87.1394 28.1603 86.9121 27.9141C86.6848 27.6679 86.5712 27.3625 86.5712 26.9979C86.5712 26.6972 86.6529 26.4332 86.8162 26.206C86.9796 25.9763 87.2045 25.7964 87.4909 25.6662C87.7774 25.536 88.1041 25.4709 88.4711 25.4709C88.9706 25.4709 89.3695 25.5845 89.6678 25.8118C89.9685 26.0367 90.1851 26.3468 90.3176 26.7422ZM38.0991 43.1136C37.6516 43.1136 37.2598 42.9953 36.9237 42.7585C36.5875 42.5218 36.3247 42.1915 36.1353 41.7678C35.9483 41.344 35.8548 40.8504 35.8548 40.2869C35.8548 39.7259 35.9483 39.2346 36.1353 38.8132C36.3247 38.3894 36.5887 38.0604 36.9272 37.826C37.2657 37.5893 37.6599 37.4709 38.1097 37.4709C38.4412 37.4709 38.717 37.5301 38.9371 37.6484C39.1573 37.7644 39.3337 37.9089 39.4663 38.0817C39.5988 38.2545 39.7018 38.4226 39.7752 38.5859H39.832V35.7273H40.4677V43H39.8498V41.9879H39.7752C39.7018 42.1536 39.5977 42.3241 39.4627 42.4993C39.3278 42.6721 39.149 42.8177 38.9265 42.9361C38.7063 43.0545 38.4305 43.1136 38.0991 43.1136ZM38.1737 42.5348C38.5264 42.5348 38.8271 42.4389 39.0756 42.2472C39.3242 42.053 39.5136 41.7867 39.6438 41.4482C39.7764 41.1072 39.8427 40.7166 39.8427 40.2763C39.8427 39.8407 39.7776 39.456 39.6474 39.1222C39.5172 38.786 39.3278 38.5232 39.0792 38.3338C38.8306 38.142 38.5288 38.0462 38.1737 38.0462C37.8091 38.0462 37.5013 38.1456 37.2504 38.3445C37.0018 38.541 36.8124 38.8073 36.6822 39.1435C36.5543 39.4796 36.4904 39.8572 36.4904 40.2763C36.4904 40.7 36.5555 41.0824 36.6857 41.4233C36.8159 41.7642 37.0053 42.0353 37.2539 42.2365C37.5049 42.4354 37.8114 42.5348 38.1737 42.5348ZM44.3881 43.1136C43.917 43.1136 43.5004 42.9941 43.1381 42.755C42.7783 42.5159 42.4966 42.1856 42.293 41.7642C42.0894 41.3404 41.9876 40.8516 41.9876 40.2976C41.9876 39.7389 42.0894 39.2476 42.293 38.8239C42.4966 38.3977 42.7783 38.0663 43.1381 37.8295C43.5004 37.5904 43.917 37.4709 44.3881 37.4709C44.8593 37.4709 45.2747 37.5904 45.6346 37.8295C45.9944 38.0687 46.2762 38.4001 46.4798 38.8239C46.6857 39.2476 46.7887 39.7389 46.7887 40.2976C46.7887 40.8516 46.6869 41.3404 46.4833 41.7642C46.2797 42.1856 45.9968 42.5159 45.6346 42.755C45.2747 42.9941 44.8593 43.1136 44.3881 43.1136ZM44.3881 42.5348C44.7669 42.5348 45.0877 42.433 45.3505 42.2294C45.6133 42.0258 45.8121 41.7547 45.9471 41.4162C46.0844 41.0777 46.1531 40.7048 46.1531 40.2976C46.1531 39.8904 46.0844 39.5163 45.9471 39.1754C45.8121 38.8345 45.6133 38.5611 45.3505 38.3551C45.0877 38.1491 44.7669 38.0462 44.3881 38.0462C44.0117 38.0462 43.6909 38.1491 43.4258 38.3551C43.163 38.5611 42.9629 38.8345 42.8256 39.1754C42.6907 39.5163 42.6232 39.8904 42.6232 40.2976C42.6232 40.7048 42.6907 41.0777 42.8256 41.4162C42.9629 41.7547 43.163 42.0258 43.4258 42.2294C43.6886 42.433 44.0094 42.5348 44.3881 42.5348ZM48.8084 39.5909V43H48.1763V37.5455H48.7907V38.4013H48.8475C48.9753 38.1219 49.1742 37.8982 49.4441 37.7301C49.7163 37.5597 50.0525 37.4744 50.4526 37.4744C50.8195 37.4744 51.1415 37.5514 51.4185 37.7053C51.6979 37.8568 51.9145 38.0805 52.0684 38.3764C52.2246 38.6723 52.3027 39.0357 52.3027 39.4666V43H51.6706V39.5057C51.6706 39.0582 51.5452 38.7043 51.2942 38.4439C51.0456 38.1835 50.7118 38.0533 50.2928 38.0533C50.0063 38.0533 49.7518 38.1148 49.5293 38.2379C49.3068 38.361 49.1304 38.5386 49.0002 38.7706C48.8723 39.0002 48.8084 39.2737 48.8084 39.5909ZM54.5426 35.7273V36.3665C54.5426 36.5606 54.5071 36.7678 54.4361 36.9879C54.3674 37.2057 54.2656 37.4176 54.1307 37.6236C53.9981 37.8272 53.8371 38.0047 53.6477 38.1562L53.3033 37.8544C53.4808 37.6461 53.6312 37.4152 53.7543 37.1619C53.8774 36.9062 53.9389 36.6446 53.9389 36.3771V35.7273H54.5426ZM58.0103 37.5455V38.0959H55.4073V37.5455H58.0103ZM56.2205 36.2386H56.8562V41.576C56.8562 41.8033 56.8952 41.982 56.9734 42.1122C57.0515 42.2401 57.1533 42.3312 57.2788 42.3857C57.4042 42.4377 57.538 42.4638 57.68 42.4638C57.7629 42.4638 57.8339 42.459 57.8931 42.4496C57.9523 42.4377 58.0044 42.4259 58.0494 42.4141L58.1843 42.9858C58.1228 43.0095 58.047 43.0308 57.957 43.0497C57.8671 43.071 57.7558 43.0817 57.6232 43.0817C57.3912 43.0817 57.1675 43.0308 56.9521 42.929C56.739 42.8272 56.5638 42.6757 56.4265 42.4744C56.2892 42.2732 56.2205 42.0234 56.2205 41.7251V36.2386ZM62.8904 39.5909V43H62.2583V35.7273H62.8904V38.4013H62.9473C63.0751 38.1196 63.2728 37.8946 63.5403 37.7266C63.8102 37.5585 64.1511 37.4744 64.563 37.4744C64.9324 37.4744 65.2567 37.5502 65.536 37.7017C65.8154 37.8532 66.0332 38.0769 66.1895 38.3729C66.3457 38.6688 66.4238 39.0334 66.4238 39.4666V43H65.7882V39.5057C65.7882 39.0559 65.6627 38.7019 65.4118 38.4439C65.1632 38.1835 64.827 38.0533 64.4032 38.0533C64.112 38.0533 63.8528 38.1148 63.6255 38.2379C63.3983 38.361 63.2183 38.5386 63.0858 38.7706C62.9556 39.0002 62.8904 39.2737 62.8904 39.5909ZM69.6119 43.1243C69.2828 43.1243 68.9821 43.0604 68.7099 42.9325C68.4376 42.8023 68.221 42.6153 68.06 42.3714C67.899 42.1252 67.8185 41.8269 67.8185 41.4766C67.8185 41.2067 67.8694 40.9794 67.9712 40.7947C68.073 40.6101 68.2174 40.4586 68.4045 40.3402C68.5915 40.2218 68.8129 40.1283 69.0685 40.0597C69.3242 39.991 69.6059 39.9377 69.9137 39.8999C70.2191 39.862 70.4772 39.8288 70.6879 39.8004C70.9009 39.772 71.0631 39.727 71.1744 39.6655C71.2856 39.6039 71.3413 39.5045 71.3413 39.3672V39.2393C71.3413 38.8677 71.23 38.5753 71.0075 38.3622C70.7873 38.1468 70.4701 38.0391 70.0558 38.0391C69.6628 38.0391 69.342 38.1255 69.0934 38.2983C68.8472 38.4711 68.6744 38.6747 68.5749 38.9091L67.9748 38.6925C68.0979 38.3942 68.2683 38.1562 68.4862 37.9787C68.704 37.7988 68.9478 37.6697 69.2177 37.5916C69.4876 37.5111 69.761 37.4709 70.038 37.4709C70.2463 37.4709 70.4629 37.4981 70.6879 37.5526C70.9151 37.607 71.1258 37.7017 71.32 37.8366C71.5141 37.9692 71.6715 38.1551 71.7923 38.3942C71.913 38.6309 71.9734 38.9316 71.9734 39.2962V43H71.3413V42.1371H71.3022C71.2264 42.2981 71.114 42.4543 70.9648 42.6058C70.8157 42.7573 70.6287 42.8816 70.4038 42.9787C70.1789 43.0758 69.9149 43.1243 69.6119 43.1243ZM69.6971 42.5455C70.0333 42.5455 70.3245 42.4709 70.5707 42.3217C70.8169 42.1726 71.0063 41.9749 71.1388 41.7287C71.2738 41.4801 71.3413 41.2067 71.3413 40.9084V40.12C71.2939 40.165 71.2146 40.2053 71.1033 40.2408C70.9944 40.2763 70.8678 40.3082 70.7234 40.3366C70.5813 40.3627 70.4393 40.3852 70.2972 40.4041C70.1552 40.4231 70.0273 40.4396 69.9137 40.4538C69.6059 40.4917 69.3432 40.5509 69.1254 40.6314C68.9076 40.7119 68.7406 40.8232 68.6246 40.9652C68.5086 41.1049 68.4506 41.2848 68.4506 41.505C68.4506 41.8364 68.569 42.0933 68.8058 42.2756C69.0425 42.4555 69.3396 42.5455 69.6971 42.5455ZM77.6818 37.5455L75.6896 43H75.0149L73.0227 37.5455H73.7081L75.3274 42.1655H75.3771L76.9964 37.5455H77.6818ZM80.9284 43.1136C80.4194 43.1136 79.9791 42.9953 79.6074 42.7585C79.2357 42.5194 78.9481 42.1892 78.7445 41.7678C78.5433 41.344 78.4426 40.8563 78.4426 40.3047C78.4426 39.7554 78.5433 39.2678 78.7445 38.8416C78.9481 38.4131 79.2286 38.0781 79.5861 37.8366C79.946 37.5928 80.3614 37.4709 80.8326 37.4709C81.1285 37.4709 81.4138 37.5253 81.6884 37.6342C81.963 37.7408 82.2092 37.9053 82.427 38.1278C82.6472 38.348 82.8212 38.6262 82.949 38.9624C83.0769 39.2962 83.1408 39.6915 83.1408 40.1484V40.4609H78.8794V39.9034H82.4945C82.4945 39.553 82.4235 39.2382 82.2814 38.9588C82.1417 38.6771 81.9464 38.4545 81.6955 38.2912C81.4469 38.1278 81.1593 38.0462 80.8326 38.0462C80.4869 38.0462 80.1827 38.1385 79.9199 38.3232C79.6571 38.5078 79.4512 38.7517 79.302 39.0547C79.1552 39.3577 79.0807 39.6892 79.0783 40.049V40.3828C79.0783 40.8161 79.1529 41.1948 79.302 41.5192C79.4535 41.8411 79.6678 42.0909 79.9448 42.2685C80.2218 42.446 80.5497 42.5348 80.9284 42.5348C81.1865 42.5348 81.4126 42.4946 81.6067 42.4141C81.8032 42.3336 81.9677 42.2259 82.1003 42.0909C82.2353 41.9536 82.3371 41.8033 82.4057 41.6399L83.0059 41.8352C82.923 42.0649 82.7869 42.2768 82.5975 42.4709C82.4105 42.665 82.1761 42.8213 81.8944 42.9396C81.615 43.0556 81.293 43.1136 80.9284 43.1136ZM27.9859 55V49.5455H28.6002V50.3835H28.657C28.766 50.1018 28.9471 49.8804 29.2004 49.7195C29.4561 49.5561 29.7626 49.4744 30.1201 49.4744C30.4965 49.4744 30.8055 49.5632 31.047 49.7408C31.2908 49.916 31.4731 50.1574 31.5938 50.4652H31.64C31.7631 50.1622 31.9632 49.9219 32.2401 49.7443C32.5195 49.5644 32.858 49.4744 33.2558 49.4744C33.7624 49.4744 34.1625 49.6342 34.4561 49.9538C34.7496 50.2711 34.8964 50.7351 34.8964 51.3459V55H34.2643V51.3459C34.2643 50.915 34.1542 50.5919 33.934 50.3764C33.7139 50.161 33.4239 50.0533 33.064 50.0533C32.6473 50.0533 32.3266 50.1811 32.1017 50.4368C31.8767 50.6925 31.7643 51.0168 31.7643 51.4098V55H31.118V51.2891C31.118 50.9197 31.015 50.6214 30.809 50.3942C30.6031 50.1669 30.3131 50.0533 29.939 50.0533C29.6881 50.0533 29.462 50.1148 29.2607 50.2379C29.0619 50.361 28.9044 50.5327 28.7884 50.7528C28.6748 50.9706 28.618 51.2216 28.618 51.5057V55H27.9859ZM38.7751 55.1136C38.2661 55.1136 37.8258 54.9953 37.4541 54.7585C37.0824 54.5194 36.7948 54.1892 36.5912 53.7678C36.3899 53.344 36.2893 52.8563 36.2893 52.3047C36.2893 51.7554 36.3899 51.2678 36.5912 50.8416C36.7948 50.4131 37.0753 50.0781 37.4328 49.8366C37.7926 49.5928 38.2081 49.4709 38.6792 49.4709C38.9752 49.4709 39.2604 49.5253 39.5351 49.6342C39.8097 49.7408 40.0559 49.9053 40.2737 50.1278C40.4939 50.348 40.6679 50.6262 40.7957 50.9624C40.9236 51.2962 40.9875 51.6915 40.9875 52.1484V52.4609H36.7261V51.9034H40.3412C40.3412 51.553 40.2702 51.2382 40.1281 50.9588C39.9884 50.6771 39.7931 50.4545 39.5422 50.2912C39.2936 50.1278 39.0059 50.0462 38.6792 50.0462C38.3336 50.0462 38.0294 50.1385 37.7666 50.3232C37.5038 50.5078 37.2979 50.7517 37.1487 51.0547C37.0019 51.3577 36.9273 51.6892 36.925 52.049V52.3828C36.925 52.8161 36.9996 53.1948 37.1487 53.5192C37.3002 53.8411 37.5145 54.0909 37.7915 54.2685C38.0684 54.446 38.3963 54.5348 38.7751 54.5348C39.0332 54.5348 39.2593 54.4946 39.4534 54.4141C39.6499 54.3336 39.8144 54.2259 39.947 54.0909C40.0819 53.9536 40.1837 53.8033 40.2524 53.6399L40.8525 53.8352C40.7697 54.0649 40.6336 54.2768 40.4442 54.4709C40.2571 54.665 40.0228 54.8213 39.741 54.9396C39.4617 55.0556 39.1397 55.1136 38.7751 55.1136ZM43.0125 51.5909V55H42.3804V49.5455H42.9948V50.4013H43.0516C43.1794 50.1219 43.3783 49.8982 43.6482 49.7301C43.9204 49.5597 44.2566 49.4744 44.6567 49.4744C45.0236 49.4744 45.3456 49.5514 45.6226 49.7053C45.902 49.8568 46.1186 50.0805 46.2725 50.3764C46.4287 50.6723 46.5068 51.0357 46.5068 51.4666V55H45.8747V51.5057C45.8747 51.0582 45.7493 50.7043 45.4983 50.4439C45.2497 50.1835 44.9159 50.0533 44.4969 50.0533C44.2104 50.0533 43.9559 50.1148 43.7334 50.2379C43.5109 50.361 43.3345 50.5386 43.2043 50.7706C43.0764 51.0002 43.0125 51.2737 43.0125 51.5909ZM50.3199 49.5455V50.0959H47.7169V49.5455H50.3199ZM48.5301 48.2386H49.1657V53.576C49.1657 53.8033 49.2048 53.982 49.2829 54.1122C49.3611 54.2401 49.4629 54.3312 49.5883 54.3857C49.7138 54.4377 49.8476 54.4638 49.9896 54.4638C50.0725 54.4638 50.1435 54.459 50.2027 54.4496C50.2619 54.4377 50.314 54.4259 50.3589 54.4141L50.4939 54.9858C50.4323 55.0095 50.3566 55.0308 50.2666 55.0497C50.1766 55.071 50.0654 55.0817 49.9328 55.0817C49.7008 55.0817 49.4771 55.0308 49.2616 54.929C49.0486 54.8272 48.8734 54.6757 48.7361 54.4744C48.5988 54.2732 48.5301 54.0234 48.5301 53.7251V48.2386ZM53.8169 55.1136C53.3457 55.1136 52.9291 54.9941 52.5669 54.755C52.207 54.5159 51.9253 54.1856 51.7217 53.7642C51.5181 53.3404 51.4163 52.8516 51.4163 52.2976C51.4163 51.7389 51.5181 51.2476 51.7217 50.8239C51.9253 50.3977 52.207 50.0663 52.5669 49.8295C52.9291 49.5904 53.3457 49.4709 53.8169 49.4709C54.288 49.4709 54.7035 49.5904 55.0633 49.8295C55.4231 50.0687 55.7049 50.4001 55.9085 50.8239C56.1144 51.2476 56.2174 51.7389 56.2174 52.2976C56.2174 52.8516 56.1156 53.3404 55.912 53.7642C55.7084 54.1856 55.4255 54.5159 55.0633 54.755C54.7035 54.9941 54.288 55.1136 53.8169 55.1136ZM53.8169 54.5348C54.1956 54.5348 54.5164 54.433 54.7792 54.2294C55.042 54.0258 55.2409 53.7547 55.3758 53.4162C55.5131 53.0777 55.5818 52.7048 55.5818 52.2976C55.5818 51.8904 55.5131 51.5163 55.3758 51.1754C55.2409 50.8345 55.042 50.5611 54.7792 50.3551C54.5164 50.1491 54.1956 50.0462 53.8169 50.0462C53.4404 50.0462 53.1196 50.1491 52.8545 50.3551C52.5917 50.5611 52.3917 50.8345 52.2544 51.1754C52.1194 51.5163 52.0519 51.8904 52.0519 52.2976C52.0519 52.7048 52.1194 53.0777 52.2544 53.4162C52.3917 53.7547 52.5917 54.0258 52.8545 54.2294C53.1173 54.433 53.4381 54.5348 53.8169 54.5348ZM57.605 55V49.5455H58.2194V50.3835H58.2655C58.3744 50.1089 58.5638 49.8875 58.8337 49.7195C59.106 49.549 59.4137 49.4638 59.757 49.4638C59.8091 49.4638 59.8671 49.465 59.931 49.4673C59.9949 49.4697 60.0482 49.4721 60.0908 49.4744V50.1172C60.0624 50.1125 60.0127 50.1054 59.9417 50.0959C59.8706 50.0864 59.7937 50.0817 59.7108 50.0817C59.4268 50.0817 59.1734 50.142 58.9509 50.2628C58.7307 50.3812 58.5567 50.5457 58.4289 50.7564C58.301 50.9671 58.2371 51.2074 58.2371 51.4773V55H57.605ZM64.8343 50.7422L64.2554 50.9055C64.1986 50.7422 64.1181 50.5942 64.0139 50.4616C63.9098 50.3291 63.7736 50.2237 63.6056 50.1456C63.4398 50.0675 63.2339 50.0284 62.9877 50.0284C62.6183 50.0284 62.3153 50.116 62.0786 50.2912C61.8418 50.4664 61.7235 50.6925 61.7235 50.9695C61.7235 51.2038 61.8039 51.3944 61.9649 51.5412C62.1283 51.6856 62.3792 51.8004 62.7178 51.8857L63.5416 52.0881C63.9986 52.1993 64.3406 52.3757 64.5679 52.6172C64.7976 52.8587 64.9124 53.1617 64.9124 53.5263C64.9124 53.834 64.8271 54.1075 64.6567 54.3466C64.4862 54.5857 64.2483 54.7739 63.9429 54.9112C63.6399 55.0462 63.2883 55.1136 62.8882 55.1136C62.3556 55.1136 61.9164 54.9941 61.5708 54.755C61.2251 54.5135 61.0038 54.1655 60.9067 53.7109L61.5139 53.5618C61.5921 53.8861 61.7448 54.1312 61.972 54.2969C62.2017 54.4626 62.5035 54.5455 62.8776 54.5455C63.2966 54.5455 63.6316 54.4519 63.8825 54.2649C64.1335 54.0755 64.259 53.8388 64.259 53.5547C64.259 53.3345 64.1856 53.1499 64.0388 53.0007C63.892 52.8492 63.6695 52.7379 63.3712 52.6669L62.4798 52.4538C62.0064 52.3402 61.656 52.1603 61.4287 51.9141C61.2014 51.6679 61.0878 51.3625 61.0878 50.9979C61.0878 50.6972 61.1695 50.4332 61.3328 50.206C61.4962 49.9763 61.7211 49.7964 62.0075 49.6662C62.294 49.536 62.6207 49.4709 62.9877 49.4709C63.4872 49.4709 63.8861 49.5845 64.1844 49.8118C64.4851 50.0367 64.7017 50.3468 64.8343 50.7422ZM66.9285 51.5909V55H66.2964V47.7273H66.9285V50.4013H66.9854C67.1132 50.1196 67.3109 49.8946 67.5784 49.7266C67.8483 49.5585 68.1892 49.4744 68.6011 49.4744C68.9704 49.4744 69.2948 49.5502 69.5741 49.7017C69.8535 49.8532 70.0713 50.0769 70.2275 50.3729C70.3838 50.6688 70.4619 51.0334 70.4619 51.4666V55H69.8263V51.5057C69.8263 51.0559 69.7008 50.7019 69.4498 50.4439C69.2013 50.1835 68.8651 50.0533 68.4413 50.0533C68.1501 50.0533 67.8909 50.1148 67.6636 50.2379C67.4363 50.361 67.2564 50.5386 67.1238 50.7706C66.9936 51.0002 66.9285 51.2737 66.9285 51.5909ZM72.1336 55V49.5455H72.7693V55H72.1336ZM72.4568 48.608C72.3266 48.608 72.2153 48.5642 72.123 48.4766C72.0306 48.3866 71.9845 48.2789 71.9845 48.1534C71.9845 48.0279 72.0306 47.9214 72.123 47.8338C72.2153 47.7438 72.3266 47.6989 72.4568 47.6989C72.587 47.6989 72.6982 47.7438 72.7906 47.8338C72.8829 47.9214 72.9291 48.0279 72.9291 48.1534C72.9291 48.2789 72.8829 48.3866 72.7906 48.4766C72.6982 48.5642 72.587 48.608 72.4568 48.608ZM74.441 57.0455V49.5455H75.0553V50.5859H75.1299C75.2056 50.4226 75.3098 50.2557 75.4424 50.0852C75.575 49.9124 75.7501 49.7668 75.968 49.6484C76.1881 49.5301 76.4651 49.4709 76.7989 49.4709C77.2487 49.4709 77.6417 49.5893 77.9779 49.826C78.3164 50.0604 78.5792 50.3894 78.7662 50.8132C78.9556 51.2346 79.0503 51.7259 79.0503 52.2869C79.0503 52.8504 78.9556 53.344 78.7662 53.7678C78.5792 54.1915 78.3164 54.5218 77.9779 54.7585C77.6417 54.9953 77.2511 55.1136 76.806 55.1136C76.4769 55.1136 76.2011 55.0545 75.9786 54.9361C75.7584 54.8177 75.5797 54.6721 75.4424 54.4993C75.3074 54.3241 75.2033 54.1536 75.1299 53.9879H75.0731V57.0455H74.441ZM75.066 52.2763C75.066 52.7166 75.1311 53.1072 75.2613 53.4482C75.3939 53.7867 75.5832 54.053 75.8295 54.2472C76.078 54.4389 76.3787 54.5348 76.7314 54.5348C77.0937 54.5348 77.3991 54.4354 77.6476 54.2365C77.8986 54.0353 78.0892 53.7642 78.2194 53.4233C78.3519 53.0824 78.4182 52.7 78.4182 52.2763C78.4182 51.8572 78.3531 51.4796 78.2229 51.1435C78.0951 50.8073 77.9057 50.541 77.6547 50.3445C77.4038 50.1456 77.096 50.0462 76.7314 50.0462C76.3763 50.0462 76.0745 50.142 75.8259 50.3338C75.5773 50.5232 75.3879 50.786 75.2577 51.1222C75.1299 51.456 75.066 51.8407 75.066 52.2763ZM85.398 49.5455V50.0959H82.795V49.5455H85.398ZM83.6082 48.2386H84.2439V53.576C84.2439 53.8033 84.2829 53.982 84.3611 54.1122C84.4392 54.2401 84.541 54.3312 84.6665 54.3857C84.7919 54.4377 84.9257 54.4638 85.0677 54.4638C85.1506 54.4638 85.2216 54.459 85.2808 54.4496C85.34 54.4377 85.3921 54.4259 85.4371 54.4141L85.572 54.9858C85.5104 55.0095 85.4347 55.0308 85.3447 55.0497C85.2548 55.071 85.1435 55.0817 85.0109 55.0817C84.7789 55.0817 84.5552 55.0308 84.3398 54.929C84.1267 54.8272 83.9515 54.6757 83.8142 54.4744C83.6769 54.2732 83.6082 54.0234 83.6082 53.7251V48.2386ZM88.895 55.1136C88.4239 55.1136 88.0072 54.9941 87.645 54.755C87.2851 54.5159 87.0034 54.1856 86.7998 53.7642C86.5962 53.3404 86.4944 52.8516 86.4944 52.2976C86.4944 51.7389 86.5962 51.2476 86.7998 50.8239C87.0034 50.3977 87.2851 50.0663 87.645 49.8295C88.0072 49.5904 88.4239 49.4709 88.895 49.4709C89.3661 49.4709 89.7816 49.5904 90.1414 49.8295C90.5013 50.0687 90.783 50.4001 90.9866 50.8239C91.1926 51.2476 91.2955 51.7389 91.2955 52.2976C91.2955 52.8516 91.1937 53.3404 90.9901 53.7642C90.7865 54.1856 90.5036 54.5159 90.1414 54.755C89.7816 54.9941 89.3661 55.1136 88.895 55.1136ZM88.895 54.5348C89.2738 54.5348 89.5945 54.433 89.8573 54.2294C90.1201 54.0258 90.319 53.7547 90.4539 53.4162C90.5912 53.0777 90.6599 52.7048 90.6599 52.2976C90.6599 51.8904 90.5912 51.5163 90.4539 51.1754C90.319 50.8345 90.1201 50.5611 89.8573 50.3551C89.5945 50.1491 89.2738 50.0462 88.895 50.0462C88.5186 50.0462 88.1978 50.1491 87.9326 50.3551C87.6698 50.5611 87.4698 50.8345 87.3325 51.1754C87.1975 51.5163 87.1301 51.8904 87.1301 52.2976C87.1301 52.7048 87.1975 53.0777 87.3325 53.4162C87.4698 53.7547 87.6698 54.0258 87.9326 54.2294C88.1954 54.433 88.5162 54.5348 88.895 54.5348ZM29.1746 63.5909V67H28.5425V59.7273H29.1746V62.4013H29.2314C29.3593 62.1196 29.557 61.8946 29.8245 61.7266C30.0944 61.5585 30.4353 61.4744 30.8472 61.4744C31.2165 61.4744 31.5409 61.5502 31.8202 61.7017C32.0996 61.8532 32.3174 62.0769 32.4736 62.3729C32.6299 62.6688 32.708 63.0334 32.708 63.4666V67H32.0724V63.5057C32.0724 63.0559 31.9469 62.7019 31.6959 62.4439C31.4474 62.1835 31.1112 62.0533 30.6874 62.0533C30.3962 62.0533 30.137 62.1148 29.9097 62.2379C29.6824 62.361 29.5025 62.5386 29.3699 62.7706C29.2397 63.0002 29.1746 63.2737 29.1746 63.5909ZM36.5779 67.1136C36.0689 67.1136 35.6285 66.9953 35.2568 66.7585C34.8852 66.5194 34.5975 66.1892 34.3939 65.7678C34.1927 65.344 34.0921 64.8563 34.0921 64.3047C34.0921 63.7554 34.1927 63.2678 34.3939 62.8416C34.5975 62.4131 34.878 62.0781 35.2355 61.8366C35.5954 61.5928 36.0109 61.4709 36.482 61.4709C36.7779 61.4709 37.0632 61.5253 37.3378 61.6342C37.6124 61.7408 37.8586 61.9053 38.0764 62.1278C38.2966 62.348 38.4706 62.6262 38.5985 62.9624C38.7263 63.2962 38.7902 63.6915 38.7902 64.1484V64.4609H34.5289V63.9034H38.1439C38.1439 63.553 38.0729 63.2382 37.9308 62.9588C37.7912 62.6771 37.5959 62.4545 37.3449 62.2912C37.0963 62.1278 36.8087 62.0462 36.482 62.0462C36.1363 62.0462 35.8321 62.1385 35.5693 62.3232C35.3066 62.5078 35.1006 62.7517 34.9514 63.0547C34.8047 63.3577 34.7301 63.6892 34.7277 64.049V64.3828C34.7277 64.8161 34.8023 65.1948 34.9514 65.5192C35.103 65.8411 35.3172 66.0909 35.5942 66.2685C35.8712 66.446 36.1991 66.5348 36.5779 66.5348C36.8359 66.5348 37.062 66.4946 37.2561 66.4141C37.4526 66.3336 37.6172 66.2259 37.7497 66.0909C37.8847 65.9536 37.9865 65.8033 38.0551 65.6399L38.6553 65.8352C38.5724 66.0649 38.4363 66.2768 38.2469 66.4709C38.0599 66.665 37.8255 66.8213 37.5438 66.9396C37.2644 67.0556 36.9424 67.1136 36.5779 67.1136ZM40.8153 59.7273V67H40.1831V59.7273H40.8153ZM42.4878 69.0455V61.5455H43.1022V62.5859H43.1768C43.2525 62.4226 43.3567 62.2557 43.4893 62.0852C43.6218 61.9124 43.797 61.7668 44.0148 61.6484C44.235 61.5301 44.512 61.4709 44.8458 61.4709C45.2956 61.4709 45.6886 61.5893 46.0248 61.826C46.3633 62.0604 46.6261 62.3894 46.8131 62.8132C47.0025 63.2346 47.0972 63.7259 47.0972 64.2869C47.0972 64.8504 47.0025 65.344 46.8131 65.7678C46.6261 66.1915 46.3633 66.5218 46.0248 66.7585C45.6886 66.9953 45.298 67.1136 44.8529 67.1136C44.5238 67.1136 44.248 67.0545 44.0255 66.9361C43.8053 66.8177 43.6266 66.6721 43.4893 66.4993C43.3543 66.3241 43.2501 66.1536 43.1768 65.9879H43.1199V69.0455H42.4878ZM43.1128 64.2763C43.1128 64.7166 43.1779 65.1072 43.3081 65.4482C43.4407 65.7867 43.6301 66.053 43.8763 66.2472C44.1249 66.4389 44.4256 66.5348 44.7783 66.5348C45.1405 66.5348 45.4459 66.4354 45.6945 66.2365C45.9455 66.0353 46.136 65.7642 46.2662 65.4233C46.3988 65.0824 46.4651 64.7 46.4651 64.2763C46.4651 63.8572 46.4 63.4796 46.2698 63.1435C46.142 62.8073 45.9526 62.541 45.7016 62.3445C45.4507 62.1456 45.1429 62.0462 44.7783 62.0462C44.4232 62.0462 44.1214 62.142 43.8728 62.3338C43.6242 62.5232 43.4348 62.786 43.3046 63.1222C43.1768 63.456 43.1128 63.8407 43.1128 64.2763ZM54.9612 62.7422L54.3824 62.9055C54.3256 62.7422 54.2451 62.5942 54.1409 62.4616C54.0367 62.3291 53.9006 62.2237 53.7325 62.1456C53.5668 62.0675 53.3608 62.0284 53.1146 62.0284C52.7453 62.0284 52.4423 62.116 52.2055 62.2912C51.9688 62.4664 51.8504 62.6925 51.8504 62.9695C51.8504 63.2038 51.9309 63.3944 52.0919 63.5412C52.2552 63.6856 52.5062 63.8004 52.8447 63.8857L53.6686 64.0881C54.1255 64.1993 54.4676 64.3757 54.6949 64.6172C54.9245 64.8587 55.0393 65.1617 55.0393 65.5263C55.0393 65.834 54.9541 66.1075 54.7836 66.3466C54.6132 66.5857 54.3753 66.7739 54.0699 66.9112C53.7668 67.0462 53.4153 67.1136 53.0152 67.1136C52.4825 67.1136 52.0434 66.9941 51.6977 66.755C51.3521 66.5135 51.1307 66.1655 51.0336 65.7109L51.6409 65.5618C51.719 65.8861 51.8717 66.1312 52.099 66.2969C52.3286 66.4626 52.6305 66.5455 53.0045 66.5455C53.4236 66.5455 53.7586 66.4519 54.0095 66.2649C54.2604 66.0755 54.3859 65.8388 54.3859 65.5547C54.3859 65.3345 54.3125 65.1499 54.1657 65.0007C54.019 64.8492 53.7964 64.7379 53.4981 64.6669L52.6068 64.4538C52.1333 64.3402 51.7829 64.1603 51.5557 63.9141C51.3284 63.6679 51.2148 63.3625 51.2148 62.9979C51.2148 62.6972 51.2964 62.4332 51.4598 62.206C51.6231 61.9763 51.848 61.7964 52.1345 61.6662C52.421 61.536 52.7477 61.4709 53.1146 61.4709C53.6141 61.4709 54.0131 61.5845 54.3113 61.8118C54.612 62.0367 54.8286 62.3468 54.9612 62.7422ZM58.5718 61.5455V62.0959H55.9688V61.5455H58.5718ZM56.782 60.2386H57.4177V65.576C57.4177 65.8033 57.4568 65.982 57.5349 66.1122C57.613 66.2401 57.7148 66.3312 57.8403 66.3857C57.9658 66.4377 58.0995 66.4638 58.2416 66.4638C58.3244 66.4638 58.3954 66.459 58.4546 66.4496C58.5138 66.4377 58.5659 66.4259 58.6109 66.4141L58.7458 66.9858C58.6843 67.0095 58.6085 67.0308 58.5186 67.0497C58.4286 67.071 58.3173 67.0817 58.1847 67.0817C57.9527 67.0817 57.729 67.0308 57.5136 66.929C57.3005 66.8272 57.1253 66.6757 56.988 66.4744C56.8507 66.2732 56.782 66.0234 56.782 65.7251V60.2386ZM63.4733 64.9155V61.5455H64.1054V67H63.4733V66.0945H63.4236C63.2957 66.3738 63.0933 66.607 62.8163 66.794C62.5393 66.9787 62.2008 67.071 61.8007 67.071C61.4527 67.071 61.1437 66.9953 60.8738 66.8438C60.604 66.6899 60.3921 66.465 60.2382 66.169C60.0843 65.8731 60.0074 65.5097 60.0074 65.0788V61.5455H60.6395V65.0398C60.6395 65.4659 60.7649 65.8092 61.0159 66.0696C61.2668 66.3277 61.5888 66.4567 61.9818 66.4567C62.228 66.4567 62.4648 66.3975 62.692 66.2791C62.9193 66.1607 63.1063 65.9879 63.2531 65.7607C63.3999 65.531 63.4733 65.2493 63.4733 64.9155ZM67.7426 67.1136C67.2952 67.1136 66.9034 66.9953 66.5672 66.7585C66.231 66.5218 65.9682 66.1915 65.7789 65.7678C65.5918 65.344 65.4983 64.8504 65.4983 64.2869C65.4983 63.7259 65.5918 63.2346 65.7789 62.8132C65.9682 62.3894 66.2322 62.0604 66.5708 61.826C66.9093 61.5893 67.3035 61.4709 67.7533 61.4709C68.0847 61.4709 68.3605 61.5301 68.5807 61.6484C68.8009 61.7644 68.9772 61.9089 69.1098 62.0817C69.2424 62.2545 69.3454 62.4226 69.4188 62.5859H69.4756V59.7273H70.1112V67H69.4933V65.9879H69.4188C69.3454 66.1536 69.2412 66.3241 69.1063 66.4993C68.9713 66.6721 68.7926 66.8177 68.57 66.9361C68.3499 67.0545 68.0741 67.1136 67.7426 67.1136ZM67.8172 66.5348C68.17 66.5348 68.4706 66.4389 68.7192 66.2472C68.9678 66.053 69.1572 65.7867 69.2874 65.4482C69.42 65.1072 69.4862 64.7166 69.4862 64.2763C69.4862 63.8407 69.4211 63.456 69.2909 63.1222C69.1607 62.786 68.9713 62.5232 68.7227 62.3338C68.4742 62.142 68.1723 62.0462 67.8172 62.0462C67.4526 62.0462 67.1449 62.1456 66.8939 62.3445C66.6453 62.541 66.4559 62.8073 66.3257 63.1435C66.1979 63.4796 66.134 63.8572 66.134 64.2763C66.134 64.7 66.1991 65.0824 66.3293 65.4233C66.4595 65.7642 66.6489 66.0353 66.8975 66.2365C67.1484 66.4354 67.455 66.5348 67.8172 66.5348ZM74.1169 67.1136C73.6079 67.1136 73.1676 66.9953 72.7959 66.7585C72.4242 66.5194 72.1366 66.1892 71.933 65.7678C71.7317 65.344 71.6311 64.8563 71.6311 64.3047C71.6311 63.7554 71.7317 63.2678 71.933 62.8416C72.1366 62.4131 72.4171 62.0781 72.7746 61.8366C73.1344 61.5928 73.5499 61.4709 74.021 61.4709C74.317 61.4709 74.6022 61.5253 74.8769 61.6342C75.1515 61.7408 75.3977 61.9053 75.6155 62.1278C75.8357 62.348 76.0097 62.6262 76.1375 62.9624C76.2654 63.2962 76.3293 63.6915 76.3293 64.1484V64.4609H72.0679V63.9034H75.683C75.683 63.553 75.6119 63.2382 75.4699 62.9588C75.3302 62.6771 75.1349 62.4545 74.884 62.2912C74.6354 62.1278 74.3477 62.0462 74.021 62.0462C73.6754 62.0462 73.3712 62.1385 73.1084 62.3232C72.8456 62.5078 72.6396 62.7517 72.4905 63.0547C72.3437 63.3577 72.2691 63.6892 72.2668 64.049V64.3828C72.2668 64.8161 72.3414 65.1948 72.4905 65.5192C72.642 65.8411 72.8563 66.0909 73.1333 66.2685C73.4102 66.446 73.7381 66.5348 74.1169 66.5348C74.375 66.5348 74.6011 66.4946 74.7952 66.4141C74.9917 66.3336 75.1562 66.2259 75.2888 66.0909C75.4237 65.9536 75.5255 65.8033 75.5942 65.6399L76.1943 65.8352C76.1115 66.0649 75.9753 66.2768 75.786 66.4709C75.5989 66.665 75.3646 66.8213 75.0828 66.9396C74.8035 67.0556 74.4815 67.1136 74.1169 67.1136ZM78.3543 63.5909V67H77.7222V61.5455H78.3366V62.4013H78.3934C78.5212 62.1219 78.7201 61.8982 78.99 61.7301C79.2622 61.5597 79.5984 61.4744 79.9985 61.4744C80.3654 61.4744 80.6874 61.5514 80.9644 61.7053C81.2438 61.8568 81.4604 62.0805 81.6143 62.3764C81.7705 62.6723 81.8486 63.0357 81.8486 63.4666V67H81.2165V63.5057C81.2165 63.0582 81.0911 62.7043 80.8401 62.4439C80.5915 62.1835 80.2577 62.0533 79.8387 62.0533C79.5522 62.0533 79.2977 62.1148 79.0752 62.2379C78.8527 62.361 78.6763 62.5386 78.5461 62.7706C78.4182 63.0002 78.3543 63.2737 78.3543 63.5909ZM85.6617 61.5455V62.0959H83.0587V61.5455H85.6617ZM83.8719 60.2386H84.5075V65.576C84.5075 65.8033 84.5466 65.982 84.6247 66.1122C84.7029 66.2401 84.8047 66.3312 84.9301 66.3857C85.0556 66.4377 85.1894 66.4638 85.3314 66.4638C85.4143 66.4638 85.4853 66.459 85.5445 66.4496C85.6037 66.4377 85.6557 66.4259 85.7007 66.4141L85.8357 66.9858C85.7741 67.0095 85.6984 67.0308 85.6084 67.0497C85.5184 67.071 85.4072 67.0817 85.2746 67.0817C85.0426 67.0817 84.8189 67.0308 84.6034 66.929C84.3904 66.8272 84.2152 66.6757 84.0779 66.4744C83.9405 66.2732 83.8719 66.0234 83.8719 65.7251V60.2386ZM90.6643 62.7422L90.0855 62.9055C90.0287 62.7422 89.9482 62.5942 89.844 62.4616C89.7398 62.3291 89.6037 62.2237 89.4356 62.1456C89.2699 62.0675 89.064 62.0284 88.8177 62.0284C88.4484 62.0284 88.1454 62.116 87.9086 62.2912C87.6719 62.4664 87.5535 62.6925 87.5535 62.9695C87.5535 63.2038 87.634 63.3944 87.795 63.5412C87.9584 63.6856 88.2093 63.8004 88.5479 63.8857L89.3717 64.0881C89.8286 64.1993 90.1707 64.3757 90.398 64.6172C90.6276 64.8587 90.7425 65.1617 90.7425 65.5263C90.7425 65.834 90.6572 66.1075 90.4868 66.3466C90.3163 66.5857 90.0784 66.7739 89.773 66.9112C89.47 67.0462 89.1184 67.1136 88.7183 67.1136C88.1856 67.1136 87.7465 66.9941 87.4008 66.755C87.0552 66.5135 86.8338 66.1655 86.7368 65.7109L87.344 65.5618C87.4221 65.8861 87.5748 66.1312 87.8021 66.2969C88.0318 66.4626 88.3336 66.5455 88.7077 66.5455C89.1267 66.5455 89.4617 66.4519 89.7126 66.2649C89.9636 66.0755 90.089 65.8388 90.089 65.5547C90.089 65.3345 90.0157 65.1499 89.8689 65.0007C89.7221 64.8492 89.4996 64.7379 89.2013 64.6669L88.3099 64.4538C87.8364 64.3402 87.4861 64.1603 87.2588 63.9141C87.0315 63.6679 86.9179 63.3625 86.9179 62.9979C86.9179 62.6972 86.9996 62.4332 87.1629 62.206C87.3263 61.9763 87.5512 61.7964 87.8376 61.6662C88.1241 61.536 88.4508 61.4709 88.8177 61.4709C89.3173 61.4709 89.7162 61.5845 90.0145 61.8118C90.3151 62.0367 90.5318 62.3468 90.6643 62.7422ZM23.5199 79.1136C23.0322 79.1136 22.6072 78.9917 22.245 78.7479C21.8852 78.504 21.6058 78.1702 21.407 77.7464C21.2081 77.3227 21.1087 76.8397 21.1087 76.2976C21.1087 75.7507 21.2093 75.2642 21.4105 74.8381C21.6141 74.4119 21.8958 74.0781 22.2557 73.8366C22.6155 73.5928 23.0334 73.4709 23.5092 73.4709C23.8738 73.4709 24.2041 73.5419 24.5 73.6839C24.7959 73.8236 25.0398 74.0213 25.2315 74.277C25.4257 74.5303 25.5476 74.8262 25.5973 75.1648H24.9581C24.8918 74.857 24.732 74.5942 24.4787 74.3764C24.2277 74.1562 23.9081 74.0462 23.5199 74.0462C23.1719 74.0462 22.8641 74.1409 22.5966 74.3303C22.3291 74.5173 22.1196 74.7789 21.968 75.1151C21.8189 75.4489 21.7443 75.8359 21.7443 76.2763C21.7443 76.719 21.8177 77.1108 21.9645 77.4517C22.1113 77.7902 22.3172 78.0554 22.5824 78.2472C22.8499 78.4389 23.1624 78.5348 23.5199 78.5348C23.7614 78.5348 23.9815 78.4898 24.1804 78.3999C24.3816 78.3075 24.5497 78.1773 24.6847 78.0092C24.822 77.8411 24.9143 77.6411 24.9616 77.4091H25.6009C25.5535 77.7382 25.4363 78.0317 25.2493 78.2898C25.0646 78.5455 24.8243 78.7467 24.5284 78.8935C24.2348 79.0402 23.8987 79.1136 23.5199 79.1136ZM29.0756 79.1136C28.6045 79.1136 28.1879 78.9941 27.8256 78.755C27.4658 78.5159 27.1841 78.1856 26.9805 77.7642C26.7769 77.3404 26.6751 76.8516 26.6751 76.2976C26.6751 75.7389 26.7769 75.2476 26.9805 74.8239C27.1841 74.3977 27.4658 74.0663 27.8256 73.8295C28.1879 73.5904 28.6045 73.4709 29.0756 73.4709C29.5468 73.4709 29.9622 73.5904 30.3221 73.8295C30.6819 74.0687 30.9637 74.4001 31.1673 74.8239C31.3732 75.2476 31.4762 75.7389 31.4762 76.2976C31.4762 76.8516 31.3744 77.3404 31.1708 77.7642C30.9672 78.1856 30.6843 78.5159 30.3221 78.755C29.9622 78.9941 29.5468 79.1136 29.0756 79.1136ZM29.0756 78.5348C29.4544 78.5348 29.7752 78.433 30.038 78.2294C30.3008 78.0258 30.4996 77.7547 30.6346 77.4162C30.7719 77.0777 30.8406 76.7048 30.8406 76.2976C30.8406 75.8904 30.7719 75.5163 30.6346 75.1754C30.4996 74.8345 30.3008 74.5611 30.038 74.3551C29.7752 74.1491 29.4544 74.0462 29.0756 74.0462C28.6992 74.0462 28.3784 74.1491 28.1133 74.3551C27.8505 74.5611 27.6504 74.8345 27.5131 75.1754C27.3782 75.5163 27.3107 75.8904 27.3107 76.2976C27.3107 76.7048 27.3782 77.0777 27.5131 77.4162C27.6504 77.7547 27.8505 78.0258 28.1133 78.2294C28.3761 78.433 28.6969 78.5348 29.0756 78.5348ZM33.4959 75.5909V79H32.8638V73.5455H33.4782V74.4013H33.535C33.6628 74.1219 33.8617 73.8982 34.1316 73.7301C34.4038 73.5597 34.74 73.4744 35.1401 73.4744C35.507 73.4744 35.829 73.5514 36.106 73.7053C36.3854 73.8568 36.602 74.0805 36.7559 74.3764C36.9121 74.6723 36.9902 75.0357 36.9902 75.4666V79H36.3581V75.5057C36.3581 75.0582 36.2327 74.7043 35.9817 74.4439C35.7331 74.1835 35.3993 74.0533 34.9803 74.0533C34.6938 74.0533 34.4393 74.1148 34.2168 74.2379C33.9943 74.361 33.8179 74.5386 33.6877 74.7706C33.5598 75.0002 33.4959 75.2737 33.4959 75.5909ZM39.2869 75.5909V79H38.6548V73.5455H39.2692V74.4013H39.326C39.4538 74.1219 39.6527 73.8982 39.9226 73.7301C40.1948 73.5597 40.531 73.4744 40.9311 73.4744C41.2981 73.4744 41.62 73.5514 41.897 73.7053C42.1764 73.8568 42.393 74.0805 42.5469 74.3764C42.7031 74.6723 42.7812 75.0357 42.7812 75.4666V79H42.1491V75.5057C42.1491 75.0582 42.0237 74.7043 41.7727 74.4439C41.5241 74.1835 41.1903 74.0533 40.7713 74.0533C40.4848 74.0533 40.2304 74.1148 40.0078 74.2379C39.7853 74.361 39.6089 74.5386 39.4787 74.7706C39.3509 75.0002 39.2869 75.2737 39.2869 75.5909ZM46.6511 79.1136C46.1421 79.1136 45.7018 78.9953 45.3301 78.7585C44.9584 78.5194 44.6708 78.1892 44.4672 77.7678C44.2659 77.344 44.1653 76.8563 44.1653 76.3047C44.1653 75.7554 44.2659 75.2678 44.4672 74.8416C44.6708 74.4131 44.9513 74.0781 45.3088 73.8366C45.6686 73.5928 46.0841 73.4709 46.5552 73.4709C46.8511 73.4709 47.1364 73.5253 47.411 73.6342C47.6857 73.7408 47.9319 73.9053 48.1497 74.1278C48.3699 74.348 48.5439 74.6262 48.6717 74.9624C48.7995 75.2962 48.8635 75.6915 48.8635 76.1484V76.4609H44.6021V75.9034H48.2172C48.2172 75.553 48.1461 75.2382 48.0041 74.9588C47.8644 74.6771 47.6691 74.4545 47.4181 74.2912C47.1696 74.1278 46.8819 74.0462 46.5552 74.0462C46.2096 74.0462 45.9054 74.1385 45.6426 74.3232C45.3798 74.5078 45.1738 74.7517 45.0247 75.0547C44.8779 75.3577 44.8033 75.6892 44.801 76.049V76.3828C44.801 76.8161 44.8755 77.1948 45.0247 77.5192C45.1762 77.8411 45.3904 78.0909 45.6674 78.2685C45.9444 78.446 46.2723 78.5348 46.6511 78.5348C46.9092 78.5348 47.1352 78.4946 47.3294 78.4141C47.5259 78.3336 47.6904 78.2259 47.823 78.0909C47.9579 77.9536 48.0597 77.8033 48.1284 77.6399L48.7285 77.8352C48.6457 78.0649 48.5095 78.2768 48.3201 78.4709C48.1331 78.665 47.8987 78.8213 47.617 78.9396C47.3377 79.0556 47.0157 79.1136 46.6511 79.1136ZM52.3871 79.1136C51.8994 79.1136 51.4744 78.9917 51.1122 78.7479C50.7524 78.504 50.473 78.1702 50.2741 77.7464C50.0753 77.3227 49.9759 76.8397 49.9759 76.2976C49.9759 75.7507 50.0765 75.2642 50.2777 74.8381C50.4813 74.4119 50.763 74.0781 51.1229 73.8366C51.4827 73.5928 51.9006 73.4709 52.3764 73.4709C52.741 73.4709 53.0713 73.5419 53.3672 73.6839C53.6631 73.8236 53.907 74.0213 54.0987 74.277C54.2929 74.5303 54.4148 74.8262 54.4645 75.1648H53.8253C53.759 74.857 53.5992 74.5942 53.3459 74.3764C53.0949 74.1562 52.7753 74.0462 52.3871 74.0462C52.0391 74.0462 51.7313 74.1409 51.4638 74.3303C51.1963 74.5173 50.9867 74.7789 50.8352 75.1151C50.6861 75.4489 50.6115 75.8359 50.6115 76.2763C50.6115 76.719 50.6849 77.1108 50.8317 77.4517C50.9785 77.7902 51.1844 78.0554 51.4496 78.2472C51.7171 78.4389 52.0296 78.5348 52.3871 78.5348C52.6286 78.5348 52.8487 78.4898 53.0476 78.3999C53.2488 78.3075 53.4169 78.1773 53.5518 78.0092C53.6892 77.8411 53.7815 77.6411 53.8288 77.4091H54.468C54.4207 77.7382 54.3035 78.0317 54.1165 78.2898C53.9318 78.5455 53.6915 78.7467 53.3956 78.8935C53.102 79.0402 52.7659 79.1136 52.3871 79.1136ZM57.9712 73.5455V74.0959H55.3683V73.5455H57.9712ZM56.1815 72.2386H56.8171V77.576C56.8171 77.8033 56.8562 77.982 56.9343 78.1122C57.0124 78.2401 57.1142 78.3312 57.2397 78.3857C57.3652 78.4377 57.4989 78.4638 57.641 78.4638C57.7238 78.4638 57.7949 78.459 57.854 78.4496C57.9132 78.4377 57.9653 78.4259 58.0103 78.4141L58.1452 78.9858C58.0837 79.0095 58.0079 79.0308 57.918 79.0497C57.828 79.071 57.7167 79.0817 57.5842 79.0817C57.3522 79.0817 57.1284 79.0308 56.913 78.929C56.6999 78.8272 56.5247 78.6757 56.3874 78.4744C56.2501 78.2732 56.1815 78.0234 56.1815 77.7251V72.2386ZM63.4302 79L61.7825 73.5455H62.4501L63.7427 78.0447H63.7889L65.0779 73.5455H65.7491L67.0275 78.0341H67.0772L68.3699 73.5455H69.0375L67.3897 79H66.7363L65.4437 74.5291H65.3762L64.0836 79H63.4302ZM70.2733 79V73.5455H70.9089V79H70.2733ZM70.5964 72.608C70.4662 72.608 70.3549 72.5642 70.2626 72.4766C70.1703 72.3866 70.1241 72.2789 70.1241 72.1534C70.1241 72.0279 70.1703 71.9214 70.2626 71.8338C70.3549 71.7438 70.4662 71.6989 70.5964 71.6989C70.7266 71.6989 70.8379 71.7438 70.9302 71.8338C71.0225 71.9214 71.0687 72.0279 71.0687 72.1534C71.0687 72.2789 71.0225 72.3866 70.9302 72.4766C70.8379 72.5642 70.7266 72.608 70.5964 72.608ZM74.729 73.5455V74.0959H72.1261V73.5455H74.729ZM72.9393 72.2386H73.5749V77.576C73.5749 77.8033 73.614 77.982 73.6921 78.1122C73.7702 78.2401 73.872 78.3312 73.9975 78.3857C74.123 78.4377 74.2567 78.4638 74.3988 78.4638C74.4817 78.4638 74.5527 78.459 74.6119 78.4496C74.671 78.4377 74.7231 78.4259 74.7681 78.4141L74.9031 78.9858C74.8415 79.0095 74.7657 79.0308 74.6758 79.0497C74.5858 79.071 74.4746 79.0817 74.342 79.0817C74.11 79.0817 73.8862 79.0308 73.6708 78.929C73.4577 78.8272 73.2826 78.6757 73.1452 78.4744C73.0079 78.2732 72.9393 78.0234 72.9393 77.7251V72.2386ZM76.9139 75.5909V79H76.2818V71.7273H76.9139V74.4013H76.9707C77.0985 74.1196 77.2962 73.8946 77.5637 73.7266C77.8336 73.5585 78.1745 73.4744 78.5865 73.4744C78.9558 73.4744 79.2801 73.5502 79.5595 73.7017C79.8388 73.8532 80.0566 74.0769 80.2129 74.3729C80.3691 74.6688 80.4473 75.0334 80.4473 75.4666V79H79.8116V75.5057C79.8116 75.0559 79.6861 74.7019 79.4352 74.4439C79.1866 74.1835 78.8504 74.0533 78.4267 74.0533C78.1355 74.0533 77.8762 74.1148 77.649 74.2379C77.4217 74.361 77.2418 74.5386 77.1092 74.7706C76.979 75.0002 76.9139 75.2737 76.9139 75.5909ZM84.9315 73.5455H85.5671V79.5291C85.5671 79.8393 85.5091 80.1068 85.3931 80.3317C85.2795 80.5589 85.1138 80.7341 84.896 80.8572C84.6781 80.9827 84.4154 81.0455 84.1076 81.0455C84.0839 81.0455 84.0603 81.0455 84.0366 81.0455C84.0129 81.0455 83.9869 81.0443 83.9585 81.0419L83.9656 80.4489C83.9892 80.4489 84.0117 80.4489 84.033 80.4489C84.0543 80.4489 84.0768 80.4489 84.1005 80.4489C84.3609 80.4489 84.5645 80.3684 84.7113 80.2074C84.8581 80.0464 84.9315 79.8203 84.9315 79.5291V73.5455ZM85.244 72.608C85.1161 72.608 85.0049 72.5642 84.9102 72.4766C84.8178 72.3866 84.7717 72.2789 84.7717 72.1534C84.7717 72.0279 84.8178 71.9214 84.9102 71.8338C85.0049 71.7438 85.1161 71.6989 85.244 71.6989C85.3742 71.6989 85.4854 71.7438 85.5778 71.8338C85.6725 71.9214 85.7198 72.0279 85.7198 72.1534C85.7198 72.2789 85.6725 72.3866 85.5778 72.4766C85.4854 72.5642 85.3742 72.608 85.244 72.608ZM89.3588 79.1136C88.8877 79.1136 88.4711 78.9941 88.1088 78.755C87.749 78.5159 87.4673 78.1856 87.2637 77.7642C87.0601 77.3404 86.9583 76.8516 86.9583 76.2976C86.9583 75.7389 87.0601 75.2476 87.2637 74.8239C87.4673 74.3977 87.749 74.0663 88.1088 73.8295C88.4711 73.5904 88.8877 73.4709 89.3588 73.4709C89.83 73.4709 90.2454 73.5904 90.6053 73.8295C90.9651 74.0687 91.2469 74.4001 91.4505 74.8239C91.6564 75.2476 91.7594 75.7389 91.7594 76.2976C91.7594 76.8516 91.6576 77.3404 91.454 77.7642C91.2504 78.1856 90.9675 78.5159 90.6053 78.755C90.2454 78.9941 89.83 79.1136 89.3588 79.1136ZM89.3588 78.5348C89.7376 78.5348 90.0584 78.433 90.3212 78.2294C90.584 78.0258 90.7828 77.7547 90.9178 77.4162C91.0551 77.0777 91.1238 76.7048 91.1238 76.2976C91.1238 75.8904 91.0551 75.5163 90.9178 75.1754C90.7828 74.8345 90.584 74.5611 90.3212 74.3551C90.0584 74.1491 89.7376 74.0462 89.3588 74.0462C88.9824 74.0462 88.6616 74.1491 88.3965 74.3551C88.1337 74.5611 87.9337 74.8345 87.7963 75.1754C87.6614 75.5163 87.5939 75.8904 87.5939 76.2976C87.5939 76.7048 87.6614 77.0777 87.7963 77.4162C87.9337 77.7547 88.1337 78.0258 88.3965 78.2294C88.6593 78.433 88.9801 78.5348 89.3588 78.5348ZM93.2784 79V71.7273H93.9141V74.5859H93.9709C94.0419 74.4226 94.1437 74.2545 94.2763 74.0817C94.4112 73.9089 94.5876 73.7644 94.8054 73.6484C95.0256 73.5301 95.3026 73.4709 95.6364 73.4709C96.0838 73.4709 96.4768 73.5893 96.8153 73.826C97.1539 74.0604 97.4179 74.3894 97.6072 74.8132C97.7966 75.2346 97.8913 75.7259 97.8913 76.2869C97.8913 76.8504 97.7966 77.344 97.6072 77.7678C97.4202 78.1915 97.1574 78.5218 96.8189 78.7585C96.4827 78.9953 96.0921 79.1136 95.647 79.1136C95.3156 79.1136 95.0386 79.0545 94.8161 78.9361C94.5959 78.8177 94.4183 78.6721 94.2834 78.4993C94.1484 78.3241 94.0443 78.1536 93.9709 77.9879H93.8928V79H93.2784ZM93.9034 76.2763C93.9034 76.7166 93.9685 77.1072 94.0987 77.4482C94.2313 77.7867 94.4207 78.053 94.6669 78.2472C94.9155 78.4389 95.2161 78.5348 95.5689 78.5348C95.9311 78.5348 96.2377 78.4354 96.4886 78.2365C96.7396 78.0353 96.9302 77.7642 97.0604 77.4233C97.1906 77.0824 97.2557 76.7 97.2557 76.2763C97.2557 75.8572 97.1906 75.4796 97.0604 75.1435C96.9325 74.8073 96.7431 74.541 96.4922 74.3445C96.2412 74.1456 95.9335 74.0462 95.5689 74.0462C95.2138 74.0462 94.9119 74.142 94.6634 74.3338C94.4171 74.5232 94.2289 74.786 94.0987 75.1222C93.9685 75.456 93.9034 75.8407 93.9034 76.2763ZM44.2652 91V85.5455H44.8795V86.3835H44.9363C45.0452 86.1018 45.2264 85.8804 45.4797 85.7195C45.7354 85.5561 46.0419 85.4744 46.3994 85.4744C46.7758 85.4744 47.0848 85.5632 47.3263 85.7408C47.5701 85.916 47.7524 86.1574 47.8731 86.4652H47.9193C48.0424 86.1622 48.2425 85.9219 48.5194 85.7443C48.7988 85.5644 49.1373 85.4744 49.5351 85.4744C50.0417 85.4744 50.4418 85.6342 50.7354 85.9538C51.0289 86.2711 51.1757 86.7351 51.1757 87.3459V91H50.5436V87.3459C50.5436 86.915 50.4335 86.5919 50.2133 86.3764C49.9932 86.161 49.7032 86.0533 49.3433 86.0533C48.9266 86.0533 48.6059 86.1811 48.3809 86.4368C48.156 86.6925 48.0436 87.0168 48.0436 87.4098V91H47.3973V87.2891C47.3973 86.9197 47.2943 86.6214 47.0883 86.3942C46.8824 86.1669 46.5924 86.0533 46.2183 86.0533C45.9674 86.0533 45.7413 86.1148 45.54 86.2379C45.3412 86.361 45.1837 86.5327 45.0677 86.7528C44.9541 86.9706 44.8973 87.2216 44.8973 87.5057V91H44.2652ZM54.3726 91.1243C54.0435 91.1243 53.7429 91.0604 53.4706 90.9325C53.1984 90.8023 52.9817 90.6153 52.8208 90.3714C52.6598 90.1252 52.5793 89.8269 52.5793 89.4766C52.5793 89.2067 52.6302 88.9794 52.732 88.7947C52.8338 88.6101 52.9782 88.4586 53.1652 88.3402C53.3522 88.2218 53.5736 88.1283 53.8293 88.0597C54.085 87.991 54.3667 87.9377 54.6744 87.8999C54.9798 87.862 55.2379 87.8288 55.4486 87.8004C55.6617 87.772 55.8238 87.727 55.9351 87.6655C56.0464 87.6039 56.102 87.5045 56.102 87.3672V87.2393C56.102 86.8677 55.9907 86.5753 55.7682 86.3622C55.548 86.1468 55.2308 86.0391 54.8165 86.0391C54.4235 86.0391 54.1027 86.1255 53.8541 86.2983C53.6079 86.4711 53.4351 86.6747 53.3357 86.9091L52.7355 86.6925C52.8586 86.3942 53.0291 86.1562 53.2469 85.9787C53.4647 85.7988 53.7085 85.6697 53.9784 85.5916C54.2483 85.5111 54.5218 85.4709 54.7987 85.4709C55.0071 85.4709 55.2237 85.4981 55.4486 85.5526C55.6759 85.607 55.8866 85.7017 56.0807 85.8366C56.2748 85.9692 56.4323 86.1551 56.553 86.3942C56.6737 86.6309 56.7341 86.9316 56.7341 87.2962V91H56.102V90.1371H56.0629C55.9872 90.2981 55.8747 90.4543 55.7256 90.6058C55.5764 90.7573 55.3894 90.8816 55.1645 90.9787C54.9396 91.0758 54.6756 91.1243 54.3726 91.1243ZM54.4578 90.5455C54.794 90.5455 55.0852 90.4709 55.3314 90.3217C55.5776 90.1726 55.767 89.9749 55.8996 89.7287C56.0345 89.4801 56.102 89.2067 56.102 88.9084V88.12C56.0547 88.165 55.9753 88.2053 55.8641 88.2408C55.7552 88.2763 55.6285 88.3082 55.4841 88.3366C55.3421 88.3627 55.2 88.3852 55.058 88.4041C54.9159 88.4231 54.7881 88.4396 54.6744 88.4538C54.3667 88.4917 54.1039 88.5509 53.8861 88.6314C53.6683 88.7119 53.5014 88.8232 53.3854 88.9652C53.2694 89.1049 53.2114 89.2848 53.2114 89.505C53.2114 89.8364 53.3298 90.0933 53.5665 90.2756C53.8032 90.4555 54.1003 90.5455 54.4578 90.5455ZM58.4156 91V85.5455H59.0299V86.3835H59.0761C59.185 86.1089 59.3744 85.8875 59.6443 85.7195C59.9165 85.549 60.2243 85.4638 60.5676 85.4638C60.6196 85.4638 60.6776 85.465 60.7416 85.4673C60.8055 85.4697 60.8588 85.4721 60.9014 85.4744V86.1172C60.873 86.1125 60.8232 86.1054 60.7522 86.0959C60.6812 86.0864 60.6043 86.0817 60.5214 86.0817C60.2373 86.0817 59.984 86.142 59.7615 86.2628C59.5413 86.3812 59.3673 86.5457 59.2394 86.7564C59.1116 86.9671 59.0477 87.2074 59.0477 87.4773V91H58.4156ZM62.5553 88.9403L62.5482 88.1129H62.6903L65.2471 85.5455H66.0461L63.5212 88.0739L63.4644 88.0845L62.5553 88.9403ZM61.98 91V83.7273H62.6121V91H61.98ZM65.3785 91L63.1626 88.1982L63.6171 87.7614L66.1881 91H65.3785ZM69.2146 91.1136C68.7056 91.1136 68.2652 90.9953 67.8936 90.7585C67.5219 90.5194 67.2342 90.1892 67.0306 89.7678C66.8294 89.344 66.7288 88.8563 66.7288 88.3047C66.7288 87.7554 66.8294 87.2678 67.0306 86.8416C67.2342 86.4131 67.5148 86.0781 67.8722 85.8366C68.2321 85.5928 68.6476 85.4709 69.1187 85.4709C69.4146 85.4709 69.6999 85.5253 69.9745 85.6342C70.2491 85.7408 70.4954 85.9053 70.7132 86.1278C70.9333 86.348 71.1073 86.6262 71.2352 86.9624C71.363 87.2962 71.4269 87.6915 71.4269 88.1484V88.4609H67.1656V87.9034H70.7806C70.7806 87.553 70.7096 87.2382 70.5676 86.9588C70.4279 86.6771 70.2326 86.4545 69.9816 86.2912C69.733 86.1278 69.4454 86.0462 69.1187 86.0462C68.7731 86.0462 68.4688 86.1385 68.2061 86.3232C67.9433 86.5078 67.7373 86.7517 67.5882 87.0547C67.4414 87.3577 67.3668 87.6892 67.3644 88.049V88.3828C67.3644 88.8161 67.439 89.1948 67.5882 89.5192C67.7397 89.8411 67.9539 90.0909 68.2309 90.2685C68.5079 90.446 68.8358 90.5348 69.2146 90.5348C69.4726 90.5348 69.6987 90.4946 69.8928 90.4141C70.0893 90.3336 70.2539 90.2259 70.3865 90.0909C70.5214 89.9536 70.6232 89.8033 70.6919 89.6399L71.292 89.8352C71.2091 90.0649 71.073 90.2768 70.8836 90.4709C70.6966 90.665 70.4622 90.8213 70.1805 90.9396C69.9011 91.0556 69.5792 91.1136 69.2146 91.1136ZM74.9683 85.5455V86.0959H72.3653V85.5455H74.9683ZM73.1785 84.2386H73.8142V89.576C73.8142 89.8033 73.8532 89.982 73.9314 90.1122C74.0095 90.2401 74.1113 90.3312 74.2368 90.3857C74.3622 90.4377 74.496 90.4638 74.6381 90.4638C74.7209 90.4638 74.7919 90.459 74.8511 90.4496C74.9103 90.4377 74.9624 90.4259 75.0074 90.4141L75.1423 90.9858C75.0808 91.0095 75.005 91.0308 74.915 91.0497C74.8251 91.071 74.7138 91.0817 74.5812 91.0817C74.3492 91.0817 74.1255 91.0308 73.9101 90.929C73.697 90.8272 73.5218 90.6757 73.3845 90.4744C73.2472 90.2732 73.1785 90.0234 73.1785 89.7251V84.2386Z" fill="#222222"/>
<defs>
<filter id="filter0_d_954_119" x="0" y="0" width="118" height="118" filterUnits="userSpaceOnUse" color-interpolation-filters="sRGB">
<feFlood flood-opacity="0" result="BackgroundImageFix"/>
<feColorMatrix in="SourceAlpha" type="matrix" values="0 0 0 0 0 0 0 0 0 0 0 0 0 0 0 0 0 0 127 0" result="hardAlpha"/>
<feOffset dy="4"/>
<feGaussianBlur stdDeviation="2"/>
<feComposite in2="hardAlpha" operator="out"/>
<feColorMatrix type="matrix" values="0 0 0 0 0 0 0 0 0 0 0 0 0 0 0 0 0 0 0.25 0"/>
<feBlend mode="normal" in2="BackgroundImageFix" result="effect1_dropShadow_954_119"/>
<feBlend mode="normal" in="SourceGraphic" in2="effect1_dropShadow_954_119" result="shape"/>
</filter>
</defs>
</svg>
