<svg width="182" height="82" viewBox="0 0 182 82" fill="none" xmlns="http://www.w3.org/2000/svg">
<path d="M72.051 5.28353L67.5635 1V3.44773C63.269 3.44773 62.2601 6.52703 62.2601 9.56706C63.4995 7.98011 64.5956 7.11933 67.5635 7.11933V9.56706L72.051 5.28353Z" stroke="#555555" stroke-width="0.5" stroke-linejoin="round"/>
<path d="M117.742 76.7165L122.229 81L122.229 78.5523C126.524 78.5523 127.533 75.473 127.533 72.4329C126.293 74.0199 125.197 74.8807 122.229 74.8807L122.229 72.4329L117.742 76.7165Z" stroke="#555555" stroke-width="0.5" stroke-linejoin="round"/>
<rect x="67.1077" y="67.6399" width="38.4637" height="38.4637" transform="rotate(-135 67.1077 67.6399)" stroke="#555555" stroke-width="0.7"/>
<rect x="123.242" y="68.9454" width="38.4637" height="38.4637" transform="rotate(-135 123.242 68.9454)" stroke="#555555" stroke-width="0.7"/>
<path d="M28.2386 16.9236C27.8807 16.9236 27.5672 16.8289 27.2983 16.6396C27.0294 16.4502 26.8191 16.186 26.6676 15.8469C26.518 15.5079 26.4432 15.113 26.4432 14.6623C26.4432 14.2134 26.518 13.8204 26.6676 13.4833C26.8191 13.1443 27.0303 12.881 27.3011 12.6935C27.572 12.5041 27.8873 12.4094 28.2472 12.4094C28.5123 12.4094 28.733 12.4568 28.9091 12.5515C29.0852 12.6443 29.2263 12.7598 29.3324 12.8981C29.4384 13.0363 29.5208 13.1708 29.5795 13.3015H29.625V11.0146H30.1335V16.8327H29.6392V16.0231H29.5795C29.5208 16.1556 29.4375 16.292 29.3295 16.4322C29.2216 16.5704 29.0786 16.6869 28.9006 16.7816C28.7244 16.8763 28.5038 16.9236 28.2386 16.9236ZM28.2983 16.4606C28.5805 16.4606 28.821 16.3839 29.0199 16.2305C29.2188 16.0752 29.3703 15.8621 29.4744 15.5913C29.5805 15.3185 29.6335 15.006 29.6335 14.6538C29.6335 14.3053 29.5814 13.9975 29.4773 13.7305C29.3731 13.4615 29.2216 13.2513 29.0227 13.0998C28.8239 12.9464 28.5824 12.8697 28.2983 12.8697C28.0066 12.8697 27.7604 12.9492 27.5597 13.1083C27.3608 13.2655 27.2093 13.4786 27.1051 13.7475C27.0028 14.0164 26.9517 14.3185 26.9517 14.6538C26.9517 14.9928 27.0038 15.2986 27.108 15.5714C27.2121 15.8441 27.3636 16.061 27.5625 16.2219C27.7633 16.381 28.0085 16.4606 28.2983 16.4606ZM31.5795 16.8327V12.4691H32.0881V16.8327H31.5795ZM31.8381 11.7191C31.7339 11.7191 31.6449 11.6841 31.571 11.614C31.4972 11.542 31.4602 11.4558 31.4602 11.3555C31.4602 11.2551 31.4972 11.1699 31.571 11.0998C31.6449 11.0278 31.7339 10.9918 31.8381 10.9918C31.9422 10.9918 32.0313 11.0278 32.1051 11.0998C32.179 11.1699 32.2159 11.2551 32.2159 11.3555C32.2159 11.4558 32.179 11.542 32.1051 11.614C32.0313 11.6841 31.9422 11.7191 31.8381 11.7191ZM36.3572 13.4265L35.8942 13.5572C35.8487 13.4265 35.7843 13.3081 35.701 13.2021C35.6177 13.096 35.5088 13.0117 35.3743 12.9492C35.2417 12.8867 35.0769 12.8555 34.88 12.8555C34.5845 12.8555 34.3421 12.9255 34.1527 13.0657C33.9633 13.2058 33.8686 13.3867 33.8686 13.6083C33.8686 13.7958 33.933 13.9483 34.0618 14.0657C34.1925 14.1812 34.3932 14.2731 34.6641 14.3413L35.3232 14.5032C35.6887 14.5922 35.9624 14.7333 36.1442 14.9265C36.3279 15.1197 36.4197 15.3621 36.4197 15.6538C36.4197 15.9 36.3516 16.1187 36.2152 16.31C36.0788 16.5013 35.8885 16.6519 35.6442 16.7617C35.4018 16.8697 35.1205 16.9236 34.8004 16.9236C34.3743 16.9236 34.023 16.828 33.7464 16.6367C33.4699 16.4435 33.2929 16.1651 33.2152 15.8015L33.701 15.6822C33.7635 15.9416 33.8857 16.1377 34.0675 16.2702C34.2512 16.4028 34.4927 16.4691 34.7919 16.4691C35.1271 16.4691 35.3951 16.3943 35.5959 16.2447C35.7966 16.0931 35.897 15.9038 35.897 15.6765C35.897 15.5003 35.8383 15.3526 35.7209 15.2333C35.6035 15.1121 35.4254 15.0231 35.1868 14.9663L34.4737 14.7958C34.0949 14.7049 33.8146 14.561 33.6328 14.364C33.451 14.167 33.3601 13.9227 33.3601 13.631C33.3601 13.3905 33.4254 13.1793 33.5561 12.9975C33.6868 12.8138 33.8667 12.6699 34.0959 12.5657C34.325 12.4615 34.5864 12.4094 34.88 12.4094C35.2796 12.4094 35.5987 12.5003 35.8374 12.6822C36.0779 12.8621 36.2512 13.1102 36.3572 13.4265ZM39.2315 16.9236C38.8414 16.9236 38.5014 16.8261 38.2116 16.631C37.9238 16.436 37.7003 16.1689 37.5412 15.8299C37.3821 15.4909 37.3026 15.1045 37.3026 14.6708C37.3026 14.2333 37.383 13.8441 37.544 13.5032C37.7069 13.1623 37.9323 12.8952 38.2202 12.7021C38.508 12.507 38.8423 12.4094 39.223 12.4094C39.5147 12.4094 39.7789 12.4663 40.0156 12.5799C40.2524 12.6916 40.4474 12.8498 40.6009 13.0543C40.7562 13.257 40.8537 13.4937 40.8935 13.7646H40.3821C40.3291 13.5183 40.2012 13.3081 39.9986 13.1339C39.7978 12.9577 39.5421 12.8697 39.2315 12.8697C38.9531 12.8697 38.7069 12.9454 38.4929 13.0969C38.2789 13.2466 38.1113 13.4558 37.9901 13.7248C37.8707 13.9918 37.8111 14.3015 37.8111 14.6538C37.8111 15.0079 37.8698 15.3214 37.9872 15.5941C38.1046 15.8649 38.2694 16.0771 38.4815 16.2305C38.6955 16.3839 38.9455 16.4606 39.2315 16.4606C39.4247 16.4606 39.6009 16.4246 39.7599 16.3526C39.9209 16.2788 40.0554 16.1746 40.1634 16.0401C40.2732 15.9056 40.3471 15.7456 40.3849 15.56H40.8963C40.8584 15.8233 40.7647 16.0581 40.6151 16.2646C40.4673 16.4691 40.2751 16.6301 40.0384 16.7475C39.8035 16.8649 39.5346 16.9236 39.2315 16.9236ZM43.6761 16.9236C43.2992 16.9236 42.9659 16.828 42.6761 16.6367C42.3883 16.4454 42.1629 16.1812 42 15.8441C41.8371 15.5051 41.7557 15.114 41.7557 14.6708C41.7557 14.2238 41.8371 13.8308 42 13.4918C42.1629 13.1509 42.3883 12.8858 42.6761 12.6964C42.9659 12.5051 43.2992 12.4094 43.6761 12.4094C44.053 12.4094 44.3854 12.5051 44.6733 12.6964C44.9612 12.8877 45.1866 13.1528 45.3494 13.4918C45.5142 13.8308 45.5966 14.2238 45.5966 14.6708C45.5966 15.114 45.5152 15.5051 45.3523 15.8441C45.1894 16.1812 44.9631 16.4454 44.6733 16.6367C44.3854 16.828 44.053 16.9236 43.6761 16.9236ZM43.6761 16.4606C43.9792 16.4606 44.2358 16.3791 44.446 16.2163C44.6563 16.0534 44.8153 15.8365 44.9233 15.5657C45.0331 15.2949 45.0881 14.9966 45.0881 14.6708C45.0881 14.345 45.0331 14.0458 44.9233 13.7731C44.8153 13.5003 44.6563 13.2816 44.446 13.1168C44.2358 12.9521 43.9792 12.8697 43.6761 12.8697C43.375 12.8697 43.1184 12.9521 42.9062 13.1168C42.696 13.2816 42.536 13.5003 42.4261 13.7731C42.3182 14.0458 42.2642 14.345 42.2642 14.6708C42.2642 14.9966 42.3182 15.2949 42.4261 15.5657C42.536 15.8365 42.696 16.0534 42.9062 16.2163C43.1165 16.3791 43.3731 16.4606 43.6761 16.4606ZM49.9283 12.4691L48.3345 16.8327H47.7947L46.201 12.4691H46.7493L48.0447 16.1651H48.0845L49.38 12.4691H49.9283ZM52.5256 16.9236C52.1184 16.9236 51.7661 16.8289 51.4688 16.6396C51.1714 16.4483 50.9413 16.1841 50.7784 15.8469C50.6174 15.5079 50.5369 15.1178 50.5369 14.6765C50.5369 14.2371 50.6174 13.8469 50.7784 13.506C50.9413 13.1632 51.1657 12.8952 51.4517 12.7021C51.7396 12.507 52.072 12.4094 52.4489 12.4094C52.6856 12.4094 52.9138 12.453 53.1335 12.5401C53.3532 12.6253 53.5502 12.757 53.7244 12.935C53.9006 13.1111 54.0398 13.3337 54.142 13.6026C54.2443 13.8697 54.2955 14.186 54.2955 14.5515V14.8015H50.8864V14.3555H53.7784C53.7784 14.0752 53.7216 13.8233 53.608 13.5998C53.4962 13.3744 53.34 13.1964 53.1392 13.0657C52.9403 12.935 52.7102 12.8697 52.4489 12.8697C52.1723 12.8697 51.929 12.9435 51.7188 13.0913C51.5085 13.239 51.3438 13.4341 51.2244 13.6765C51.107 13.9189 51.0473 14.1841 51.0455 14.4719V14.739C51.0455 15.0856 51.1051 15.3886 51.2244 15.6481C51.3456 15.9056 51.517 16.1055 51.7386 16.2475C51.9602 16.3896 52.2225 16.4606 52.5256 16.4606C52.732 16.4606 52.9129 16.4284 53.0682 16.364C53.2254 16.2996 53.357 16.2134 53.4631 16.1055C53.571 15.9956 53.6525 15.8753 53.7074 15.7447L54.1875 15.9009C54.1212 16.0846 54.0123 16.2541 53.8608 16.4094C53.7112 16.5647 53.5237 16.6897 53.2983 16.7844C53.0748 16.8772 52.8172 16.9236 52.5256 16.9236ZM55.4098 16.8327V12.4691H55.9013V13.1396H55.9382C56.0253 12.9199 56.1768 12.7428 56.3928 12.6083C56.6106 12.4719 56.8568 12.4038 57.1314 12.4038C57.1731 12.4038 57.2195 12.4047 57.2706 12.4066C57.3217 12.4085 57.3643 12.4104 57.3984 12.4123V12.9265C57.3757 12.9227 57.3359 12.917 57.2791 12.9094C57.2223 12.9019 57.1607 12.8981 57.0945 12.8981C56.8672 12.8981 56.6645 12.9464 56.4865 13.043C56.3104 13.1377 56.1712 13.2693 56.0689 13.4378C55.9666 13.6064 55.9155 13.7986 55.9155 14.0146V16.8327H55.4098ZM58.7464 18.4691C58.6461 18.4691 58.5523 18.4596 58.4652 18.4407C58.3781 18.4217 58.3089 18.4009 58.2578 18.3782L58.3942 17.9322C58.5665 17.9852 58.7199 18.0041 58.8544 17.989C58.9889 17.9757 59.1082 17.9151 59.2124 17.8072C59.3165 17.7011 59.4093 17.5382 59.4908 17.3185L59.6499 16.8753L58.0447 12.4691H58.593L59.8885 16.1651H59.9283L61.2237 12.4691H61.772L59.9254 17.5231C59.8478 17.7333 59.7521 17.9085 59.6385 18.0486C59.5249 18.1907 59.3932 18.2958 59.2436 18.364C59.0959 18.4341 58.9302 18.4691 58.7464 18.4691Z" fill="#555555"/>
<path d="M90.2386 73.0909C89.8807 73.0909 89.5672 72.9962 89.2983 72.8068C89.0294 72.6174 88.8191 72.3532 88.6676 72.0142C88.518 71.6752 88.4432 71.2803 88.4432 70.8295C88.4432 70.3807 88.518 69.9877 88.6676 69.6506C88.8191 69.3116 89.0303 69.0483 89.3011 68.8608C89.572 68.6714 89.8873 68.5767 90.2472 68.5767C90.5123 68.5767 90.733 68.6241 90.9091 68.7188C91.0852 68.8116 91.2263 68.9271 91.3324 69.0653C91.4384 69.2036 91.5208 69.3381 91.5795 69.4688H91.625V67.1818H92.1335V73H91.6392V72.1903H91.5795C91.5208 72.3229 91.4375 72.4593 91.3295 72.5994C91.2216 72.7377 91.0786 72.8542 90.9006 72.9489C90.7244 73.0436 90.5038 73.0909 90.2386 73.0909ZM90.2983 72.6278C90.5805 72.6278 90.821 72.5511 91.0199 72.3977C91.2188 72.2424 91.3703 72.0294 91.4744 71.7585C91.5805 71.4858 91.6335 71.1733 91.6335 70.821C91.6335 70.4725 91.5814 70.1648 91.4773 69.8977C91.3731 69.6288 91.2216 69.4186 91.0227 69.267C90.8239 69.1136 90.5824 69.0369 90.2983 69.0369C90.0066 69.0369 89.7604 69.1165 89.5597 69.2756C89.3608 69.4328 89.2093 69.6458 89.1051 69.9148C89.0028 70.1837 88.9517 70.4858 88.9517 70.821C88.9517 71.16 89.0038 71.4659 89.108 71.7386C89.2121 72.0114 89.3636 72.2282 89.5625 72.3892C89.7633 72.5483 90.0085 72.6278 90.2983 72.6278ZM95.3381 73.0909C94.9309 73.0909 94.5786 72.9962 94.2812 72.8068C93.9839 72.6155 93.7538 72.3513 93.5909 72.0142C93.4299 71.6752 93.3494 71.285 93.3494 70.8438C93.3494 70.4044 93.4299 70.0142 93.5909 69.6733C93.7538 69.3305 93.9782 69.0625 94.2642 68.8693C94.5521 68.6742 94.8845 68.5767 95.2614 68.5767C95.4981 68.5767 95.7263 68.6203 95.946 68.7074C96.1657 68.7926 96.3627 68.9242 96.5369 69.1023C96.7131 69.2784 96.8523 69.5009 96.9545 69.7699C97.0568 70.0369 97.108 70.3532 97.108 70.7188V70.9688H93.6989V70.5227H96.5909C96.5909 70.2424 96.5341 69.9905 96.4205 69.767C96.3087 69.5417 96.1525 69.3636 95.9517 69.233C95.7528 69.1023 95.5227 69.0369 95.2614 69.0369C94.9848 69.0369 94.7415 69.1108 94.5312 69.2585C94.321 69.4062 94.1563 69.6013 94.0369 69.8438C93.9195 70.0862 93.8598 70.3513 93.858 70.6392V70.9062C93.858 71.2528 93.9176 71.5559 94.0369 71.8153C94.1581 72.0729 94.3295 72.2727 94.5511 72.4148C94.7727 72.5568 95.035 72.6278 95.3381 72.6278C95.5445 72.6278 95.7254 72.5956 95.8807 72.5312C96.0379 72.4669 96.1695 72.3807 96.2756 72.2727C96.3835 72.1629 96.465 72.0426 96.5199 71.9119L97 72.0682C96.9337 72.2519 96.8248 72.4214 96.6733 72.5767C96.5237 72.732 96.3362 72.857 96.1108 72.9517C95.8873 73.0445 95.6297 73.0909 95.3381 73.0909ZM101.467 68.6364L99.8736 73H99.3338L97.7401 68.6364H98.2884L99.5838 72.3324H99.6236L100.919 68.6364H101.467ZM104.065 73.0909C103.657 73.0909 103.305 72.9962 103.008 72.8068C102.71 72.6155 102.48 72.3513 102.317 72.0142C102.156 71.6752 102.076 71.285 102.076 70.8438C102.076 70.4044 102.156 70.0142 102.317 69.6733C102.48 69.3305 102.705 69.0625 102.991 68.8693C103.279 68.6742 103.611 68.5767 103.988 68.5767C104.225 68.5767 104.453 68.6203 104.673 68.7074C104.892 68.7926 105.089 68.9242 105.263 69.1023C105.44 69.2784 105.579 69.5009 105.681 69.7699C105.783 70.0369 105.835 70.3532 105.835 70.7188V70.9688H102.425V70.5227H105.317C105.317 70.2424 105.261 69.9905 105.147 69.767C105.035 69.5417 104.879 69.3636 104.678 69.233C104.479 69.1023 104.249 69.0369 103.988 69.0369C103.711 69.0369 103.468 69.1108 103.258 69.2585C103.048 69.4062 102.883 69.6013 102.763 69.8438C102.646 70.0862 102.586 70.3513 102.585 70.6392V70.9062C102.585 71.2528 102.644 71.5559 102.763 71.8153C102.885 72.0729 103.056 72.2727 103.278 72.4148C103.499 72.5568 103.762 72.6278 104.065 72.6278C104.271 72.6278 104.452 72.5956 104.607 72.5312C104.764 72.4669 104.896 72.3807 105.002 72.2727C105.11 72.1629 105.192 72.0426 105.246 71.9119L105.727 72.0682C105.66 72.2519 105.551 72.4214 105.4 72.5767C105.25 72.732 105.063 72.857 104.837 72.9517C104.614 73.0445 104.356 73.0909 104.065 73.0909ZM107.455 67.1818V73H106.949V67.1818H107.455ZM110.489 73.0909C110.112 73.0909 109.778 72.9953 109.489 72.804C109.201 72.6127 108.975 72.3485 108.812 72.0114C108.65 71.6723 108.568 71.2812 108.568 70.8381C108.568 70.3911 108.65 69.9981 108.812 69.6591C108.975 69.3182 109.201 69.053 109.489 68.8636C109.778 68.6723 110.112 68.5767 110.489 68.5767C110.866 68.5767 111.198 68.6723 111.486 68.8636C111.774 69.0549 111.999 69.3201 112.162 69.6591C112.327 69.9981 112.409 70.3911 112.409 70.8381C112.409 71.2812 112.328 71.6723 112.165 72.0114C112.002 72.3485 111.776 72.6127 111.486 72.804C111.198 72.9953 110.866 73.0909 110.489 73.0909ZM110.489 72.6278C110.792 72.6278 111.048 72.5464 111.259 72.3835C111.469 72.2206 111.628 72.0038 111.736 71.733C111.846 71.4621 111.901 71.1638 111.901 70.8381C111.901 70.5123 111.846 70.2131 111.736 69.9403C111.628 69.6676 111.469 69.4489 111.259 69.2841C111.048 69.1193 110.792 69.0369 110.489 69.0369C110.188 69.0369 109.931 69.1193 109.719 69.2841C109.509 69.4489 109.348 69.6676 109.239 69.9403C109.131 70.2131 109.077 70.5123 109.077 70.8381C109.077 71.1638 109.131 71.4621 109.239 71.733C109.348 72.0038 109.509 72.2206 109.719 72.3835C109.929 72.5464 110.186 72.6278 110.489 72.6278ZM113.519 74.6364V68.6364H114.011V69.4688H114.07C114.131 69.3381 114.214 69.2045 114.32 69.0682C114.426 68.9299 114.567 68.8134 114.741 68.7188C114.917 68.6241 115.138 68.5767 115.406 68.5767C115.765 68.5767 116.08 68.6714 116.349 68.8608C116.62 69.0483 116.83 69.3116 116.979 69.6506C117.131 69.9877 117.207 70.3807 117.207 70.8295C117.207 71.2803 117.131 71.6752 116.979 72.0142C116.83 72.3532 116.62 72.6174 116.349 72.8068C116.08 72.9962 115.767 73.0909 115.411 73.0909C115.148 73.0909 114.927 73.0436 114.749 72.9489C114.573 72.8542 114.43 72.7377 114.32 72.5994C114.212 72.4593 114.129 72.3229 114.07 72.1903H114.025V74.6364H113.519ZM114.019 70.821C114.019 71.1733 114.071 71.4858 114.175 71.7585C114.281 72.0294 114.433 72.2424 114.63 72.3977C114.829 72.5511 115.069 72.6278 115.352 72.6278C115.641 72.6278 115.886 72.5483 116.085 72.3892C116.285 72.2282 116.438 72.0114 116.542 71.7386C116.648 71.4659 116.701 71.16 116.701 70.821C116.701 70.4858 116.649 70.1837 116.545 69.9148C116.442 69.6458 116.291 69.4328 116.09 69.2756C115.889 69.1165 115.643 69.0369 115.352 69.0369C115.067 69.0369 114.826 69.1136 114.627 69.267C114.428 69.4186 114.277 69.6288 114.173 69.8977C114.07 70.1648 114.019 70.4725 114.019 70.821Z" fill="#555555"/>
<path d="M76.2386 16.9236C75.8807 16.9236 75.5672 16.8289 75.2983 16.6396C75.0294 16.4502 74.8191 16.186 74.6676 15.8469C74.518 15.5079 74.4432 15.113 74.4432 14.6623C74.4432 14.2134 74.518 13.8204 74.6676 13.4833C74.8191 13.1443 75.0303 12.881 75.3011 12.6935C75.572 12.5041 75.8873 12.4094 76.2472 12.4094C76.5123 12.4094 76.733 12.4568 76.9091 12.5515C77.0852 12.6443 77.2263 12.7598 77.3324 12.8981C77.4384 13.0363 77.5208 13.1708 77.5795 13.3015H77.625V11.0146H78.1335V16.8327H77.6392V16.0231H77.5795C77.5208 16.1556 77.4375 16.292 77.3295 16.4322C77.2216 16.5704 77.0786 16.6869 76.9006 16.7816C76.7244 16.8763 76.5038 16.9236 76.2386 16.9236ZM76.2983 16.4606C76.5805 16.4606 76.821 16.3839 77.0199 16.2305C77.2188 16.0752 77.3703 15.8621 77.4744 15.5913C77.5805 15.3185 77.6335 15.006 77.6335 14.6538C77.6335 14.3053 77.5814 13.9975 77.4773 13.7305C77.3731 13.4615 77.2216 13.2513 77.0227 13.0998C76.8239 12.9464 76.5824 12.8697 76.2983 12.8697C76.0066 12.8697 75.7604 12.9492 75.5597 13.1083C75.3608 13.2655 75.2093 13.4786 75.1051 13.7475C75.0028 14.0164 74.9517 14.3185 74.9517 14.6538C74.9517 14.9928 75.0038 15.2986 75.108 15.5714C75.2121 15.8441 75.3636 16.061 75.5625 16.2219C75.7633 16.381 76.0085 16.4606 76.2983 16.4606ZM81.3381 16.9236C80.9309 16.9236 80.5786 16.8289 80.2812 16.6396C79.9839 16.4483 79.7538 16.1841 79.5909 15.8469C79.4299 15.5079 79.3494 15.1178 79.3494 14.6765C79.3494 14.2371 79.4299 13.8469 79.5909 13.506C79.7538 13.1632 79.9782 12.8952 80.2642 12.7021C80.5521 12.507 80.8845 12.4094 81.2614 12.4094C81.4981 12.4094 81.7263 12.453 81.946 12.5401C82.1657 12.6253 82.3627 12.757 82.5369 12.935C82.7131 13.1111 82.8523 13.3337 82.9545 13.6026C83.0568 13.8697 83.108 14.186 83.108 14.5515V14.8015H79.6989V14.3555H82.5909C82.5909 14.0752 82.5341 13.8233 82.4205 13.5998C82.3087 13.3744 82.1525 13.1964 81.9517 13.0657C81.7528 12.935 81.5227 12.8697 81.2614 12.8697C80.9848 12.8697 80.7415 12.9435 80.5312 13.0913C80.321 13.239 80.1563 13.4341 80.0369 13.6765C79.9195 13.9189 79.8598 14.1841 79.858 14.4719V14.739C79.858 15.0856 79.9176 15.3886 80.0369 15.6481C80.1581 15.9056 80.3295 16.1055 80.5511 16.2475C80.7727 16.3896 81.035 16.4606 81.3381 16.4606C81.5445 16.4606 81.7254 16.4284 81.8807 16.364C82.0379 16.2996 82.1695 16.2134 82.2756 16.1055C82.3835 15.9956 82.465 15.8753 82.5199 15.7447L83 15.9009C82.9337 16.0846 82.8248 16.2541 82.6733 16.4094C82.5237 16.5647 82.3362 16.6897 82.1108 16.7844C81.8873 16.8772 81.6297 16.9236 81.3381 16.9236ZM86.0178 12.4691V12.9094H83.8729V12.4691H86.0178ZM84.5433 16.8327V11.8299C84.5433 11.595 84.5973 11.3971 84.7053 11.2361C84.8151 11.0752 84.9581 10.953 85.1342 10.8697C85.3104 10.7863 85.4969 10.7447 85.6939 10.7447C85.8265 10.7447 85.9363 10.756 86.0234 10.7788C86.1125 10.7996 86.1825 10.8204 86.2337 10.8413L86.0859 11.2844C86.0481 11.2731 86.0017 11.2598 85.9467 11.2447C85.8918 11.2295 85.8227 11.2219 85.7393 11.2219C85.5196 11.2219 85.3501 11.2835 85.2308 11.4066C85.1115 11.5297 85.0518 11.7058 85.0518 11.935L85.049 16.8327H84.5433ZM87.0327 16.8327V12.4691H87.5412V16.8327H87.0327ZM87.2912 11.7191C87.187 11.7191 87.098 11.6841 87.0241 11.614C86.9503 11.542 86.9134 11.4558 86.9134 11.3555C86.9134 11.2551 86.9503 11.1699 87.0241 11.0998C87.098 11.0278 87.187 10.9918 87.2912 10.9918C87.3954 10.9918 87.4844 11.0278 87.5582 11.0998C87.6321 11.1699 87.669 11.2551 87.669 11.3555C87.669 11.4558 87.6321 11.542 87.5582 11.614C87.4844 11.6841 87.3954 11.7191 87.2912 11.7191ZM89.3842 14.1055V16.8327H88.8786V12.4691H89.37V13.1538H89.4155C89.5178 12.9303 89.6768 12.7513 89.8928 12.6168C90.1106 12.4805 90.3795 12.4123 90.6996 12.4123C90.9931 12.4123 91.2507 12.4738 91.4723 12.5969C91.6958 12.7181 91.8691 12.8971 91.9922 13.1339C92.1172 13.3706 92.1797 13.6613 92.1797 14.006V16.8327H91.674V14.0373C91.674 13.6793 91.5736 13.3962 91.3729 13.1878C91.174 12.9795 90.907 12.8753 90.5717 12.8753C90.3426 12.8753 90.139 12.9246 89.9609 13.0231C89.7829 13.1216 89.6418 13.2636 89.5376 13.4492C89.4354 13.6329 89.3842 13.8517 89.3842 14.1055ZM95.2756 16.9236C94.8684 16.9236 94.5161 16.8289 94.2188 16.6396C93.9214 16.4483 93.6913 16.1841 93.5284 15.8469C93.3674 15.5079 93.2869 15.1178 93.2869 14.6765C93.2869 14.2371 93.3674 13.8469 93.5284 13.506C93.6913 13.1632 93.9157 12.8952 94.2017 12.7021C94.4896 12.507 94.822 12.4094 95.1989 12.4094C95.4356 12.4094 95.6638 12.453 95.8835 12.5401C96.1032 12.6253 96.3002 12.757 96.4744 12.935C96.6506 13.1111 96.7898 13.3337 96.892 13.6026C96.9943 13.8697 97.0455 14.186 97.0455 14.5515V14.8015H93.6364V14.3555H96.5284C96.5284 14.0752 96.4716 13.8233 96.358 13.5998C96.2462 13.3744 96.09 13.1964 95.8892 13.0657C95.6903 12.935 95.4602 12.8697 95.1989 12.8697C94.9223 12.8697 94.679 12.9435 94.4688 13.0913C94.2585 13.239 94.0938 13.4341 93.9744 13.6765C93.857 13.9189 93.7973 14.1841 93.7955 14.4719V14.739C93.7955 15.0856 93.8551 15.3886 93.9744 15.6481C94.0956 15.9056 94.267 16.1055 94.4886 16.2475C94.7102 16.3896 94.9725 16.4606 95.2756 16.4606C95.482 16.4606 95.6629 16.4284 95.8182 16.364C95.9754 16.2996 96.107 16.2134 96.2131 16.1055C96.321 15.9956 96.4025 15.8753 96.4574 15.7447L96.9375 15.9009C96.8712 16.0846 96.7623 16.2541 96.6108 16.4094C96.4612 16.5647 96.2737 16.6897 96.0483 16.7844C95.8248 16.8772 95.5672 16.9236 95.2756 16.9236Z" fill="#555555"/>
<path d="M130.239 73.0909C129.881 73.0909 129.567 72.9962 129.298 72.8068C129.029 72.6174 128.819 72.3532 128.668 72.0142C128.518 71.6752 128.443 71.2803 128.443 70.8295C128.443 70.3807 128.518 69.9877 128.668 69.6506C128.819 69.3116 129.03 69.0483 129.301 68.8608C129.572 68.6714 129.887 68.5767 130.247 68.5767C130.512 68.5767 130.733 68.6241 130.909 68.7188C131.085 68.8116 131.226 68.9271 131.332 69.0653C131.438 69.2036 131.521 69.3381 131.58 69.4688H131.625V67.1818H132.134V73H131.639V72.1903H131.58C131.521 72.3229 131.438 72.4593 131.33 72.5994C131.222 72.7377 131.079 72.8542 130.901 72.9489C130.724 73.0436 130.504 73.0909 130.239 73.0909ZM130.298 72.6278C130.58 72.6278 130.821 72.5511 131.02 72.3977C131.219 72.2424 131.37 72.0294 131.474 71.7585C131.58 71.4858 131.634 71.1733 131.634 70.821C131.634 70.4725 131.581 70.1648 131.477 69.8977C131.373 69.6288 131.222 69.4186 131.023 69.267C130.824 69.1136 130.582 69.0369 130.298 69.0369C130.007 69.0369 129.76 69.1165 129.56 69.2756C129.361 69.4328 129.209 69.6458 129.105 69.9148C129.003 70.1837 128.952 70.4858 128.952 70.821C128.952 71.16 129.004 71.4659 129.108 71.7386C129.212 72.0114 129.364 72.2282 129.562 72.3892C129.763 72.5483 130.009 72.6278 130.298 72.6278ZM135.338 73.0909C134.931 73.0909 134.579 72.9962 134.281 72.8068C133.984 72.6155 133.754 72.3513 133.591 72.0142C133.43 71.6752 133.349 71.285 133.349 70.8438C133.349 70.4044 133.43 70.0142 133.591 69.6733C133.754 69.3305 133.978 69.0625 134.264 68.8693C134.552 68.6742 134.884 68.5767 135.261 68.5767C135.498 68.5767 135.726 68.6203 135.946 68.7074C136.166 68.7926 136.363 68.9242 136.537 69.1023C136.713 69.2784 136.852 69.5009 136.955 69.7699C137.057 70.0369 137.108 70.3532 137.108 70.7188V70.9688H133.699V70.5227H136.591C136.591 70.2424 136.534 69.9905 136.42 69.767C136.309 69.5417 136.152 69.3636 135.952 69.233C135.753 69.1023 135.523 69.0369 135.261 69.0369C134.985 69.0369 134.741 69.1108 134.531 69.2585C134.321 69.4062 134.156 69.6013 134.037 69.8438C133.92 70.0862 133.86 70.3513 133.858 70.6392V70.9062C133.858 71.2528 133.918 71.5559 134.037 71.8153C134.158 72.0729 134.33 72.2727 134.551 72.4148C134.773 72.5568 135.035 72.6278 135.338 72.6278C135.545 72.6278 135.725 72.5956 135.881 72.5312C136.038 72.4669 136.17 72.3807 136.276 72.2727C136.384 72.1629 136.465 72.0426 136.52 71.9119L137 72.0682C136.934 72.2519 136.825 72.4214 136.673 72.5767C136.524 72.732 136.336 72.857 136.111 72.9517C135.887 73.0445 135.63 73.0909 135.338 73.0909ZM138.728 67.1818V73H138.222V67.1818H138.728ZM140.072 73V68.6364H140.58V73H140.072ZM140.33 67.8864C140.226 67.8864 140.137 67.8513 140.063 67.7812C139.989 67.7093 139.952 67.6231 139.952 67.5227C139.952 67.4223 139.989 67.3371 140.063 67.267C140.137 67.1951 140.226 67.1591 140.33 67.1591C140.434 67.1591 140.523 67.1951 140.597 67.267C140.671 67.3371 140.708 67.4223 140.708 67.5227C140.708 67.6231 140.671 67.7093 140.597 67.7812C140.523 67.8513 140.434 67.8864 140.33 67.8864ZM145.295 68.6364L143.702 73H143.162L141.568 68.6364H142.116L143.412 72.3324H143.452L144.747 68.6364H145.295ZM147.893 73.0909C147.486 73.0909 147.133 72.9962 146.836 72.8068C146.539 72.6155 146.308 72.3513 146.146 72.0142C145.985 71.6752 145.904 71.285 145.904 70.8438C145.904 70.4044 145.985 70.0142 146.146 69.6733C146.308 69.3305 146.533 69.0625 146.819 68.8693C147.107 68.6742 147.439 68.5767 147.816 68.5767C148.053 68.5767 148.281 68.6203 148.501 68.7074C148.72 68.7926 148.917 68.9242 149.092 69.1023C149.268 69.2784 149.407 69.5009 149.509 69.7699C149.612 70.0369 149.663 70.3532 149.663 70.7188V70.9688H146.254V70.5227H149.146C149.146 70.2424 149.089 69.9905 148.975 69.767C148.863 69.5417 148.707 69.3636 148.506 69.233C148.308 69.1023 148.077 69.0369 147.816 69.0369C147.54 69.0369 147.296 69.1108 147.086 69.2585C146.876 69.4062 146.711 69.6013 146.592 69.8438C146.474 70.0862 146.415 70.3513 146.413 70.6392V70.9062C146.413 71.2528 146.472 71.5559 146.592 71.8153C146.713 72.0729 146.884 72.2727 147.106 72.4148C147.327 72.5568 147.59 72.6278 147.893 72.6278C148.099 72.6278 148.28 72.5956 148.435 72.5312C148.593 72.4669 148.724 72.3807 148.83 72.2727C148.938 72.1629 149.02 72.0426 149.075 71.9119L149.555 72.0682C149.488 72.2519 149.379 72.4214 149.228 72.5767C149.078 72.732 148.891 72.857 148.665 72.9517C148.442 73.0445 148.184 73.0909 147.893 73.0909ZM150.777 73V68.6364H151.268V69.3068H151.305C151.393 69.0871 151.544 68.91 151.76 68.7756C151.978 68.6392 152.224 68.571 152.499 68.571C152.54 68.571 152.587 68.572 152.638 68.5739C152.689 68.5758 152.732 68.5777 152.766 68.5795V69.0938C152.743 69.09 152.703 69.0843 152.646 69.0767C152.589 69.0691 152.528 69.0653 152.462 69.0653C152.234 69.0653 152.032 69.1136 151.854 69.2102C151.678 69.3049 151.538 69.4366 151.436 69.6051C151.334 69.7737 151.283 69.9659 151.283 70.1818V73H150.777Z" fill="#555555"/>
<circle cx="94.8965" cy="41.4691" r="6.52728" fill="#999999"/>
<circle cx="147.767" cy="41.4691" r="6.52728" fill="#999999"/>
<circle cx="40.72" cy="40.1637" r="6.52728" fill="#999999"/>
<path d="M81.2893 42.6364V36.6364H81.7808V37.4688H81.8404C81.901 37.3381 81.9844 37.2045 82.0904 37.0682C82.1965 36.9299 82.3366 36.8134 82.5109 36.7188C82.687 36.6241 82.9086 36.5767 83.1757 36.5767C83.5355 36.5767 83.8499 36.6714 84.1188 36.8608C84.3897 37.0483 84.5999 37.3116 84.7495 37.6506C84.901 37.9877 84.9768 38.3807 84.9768 38.8295C84.9768 39.2803 84.901 39.6752 84.7495 40.0142C84.5999 40.3532 84.3897 40.6174 84.1188 40.8068C83.8499 40.9962 83.5374 41.0909 83.1813 41.0909C82.9181 41.0909 82.6974 41.0436 82.5194 40.9489C82.3433 40.8542 82.2003 40.7377 82.0904 40.5994C81.9825 40.4593 81.8991 40.3229 81.8404 40.1903H81.795V42.6364H81.2893ZM81.7893 38.821C81.7893 39.1733 81.8414 39.4858 81.9455 39.7585C82.0516 40.0294 82.2031 40.2424 82.4001 40.3977C82.599 40.5511 82.8395 40.6278 83.1217 40.6278C83.4115 40.6278 83.6558 40.5483 83.8546 40.3892C84.0554 40.2282 84.2079 40.0114 84.312 39.7386C84.4181 39.4659 84.4711 39.16 84.4711 38.821C84.4711 38.4858 84.419 38.1837 84.3149 37.9148C84.2126 37.6458 84.0611 37.4328 83.8603 37.2756C83.6596 37.1165 83.4133 37.0369 83.1217 37.0369C82.8376 37.0369 82.5961 37.1136 82.3972 37.267C82.1984 37.4186 82.0469 37.6288 81.9427 37.8977C81.8404 38.1648 81.7893 38.4725 81.7893 38.821ZM86.0862 41V36.6364H86.5776V37.3068H86.6146C86.7017 37.0871 86.8532 36.91 87.0691 36.7756C87.2869 36.6392 87.5331 36.571 87.8078 36.571C87.8494 36.571 87.8958 36.572 87.947 36.5739C87.9981 36.5758 88.0407 36.5777 88.0748 36.5795V37.0938C88.0521 37.09 88.0123 37.0843 87.9555 37.0767C87.8987 37.0691 87.8371 37.0653 87.7708 37.0653C87.5436 37.0653 87.3409 37.1136 87.1629 37.2102C86.9867 37.3049 86.8475 37.4366 86.7453 37.6051C86.643 37.7737 86.5919 37.9659 86.5919 38.1818V41H86.0862ZM90.5009 41.0909C90.124 41.0909 89.7907 40.9953 89.5009 40.804C89.2131 40.6127 88.9877 40.3485 88.8248 40.0114C88.6619 39.6723 88.5805 39.2812 88.5805 38.8381C88.5805 38.3911 88.6619 37.9981 88.8248 37.6591C88.9877 37.3182 89.2131 37.053 89.5009 36.8636C89.7907 36.6723 90.124 36.5767 90.5009 36.5767C90.8778 36.5767 91.2102 36.6723 91.4981 36.8636C91.786 37.0549 92.0114 37.3201 92.1742 37.6591C92.339 37.9981 92.4214 38.3911 92.4214 38.8381C92.4214 39.2812 92.34 39.6723 92.1771 40.0114C92.0142 40.3485 91.7879 40.6127 91.4981 40.804C91.2102 40.9953 90.8778 41.0909 90.5009 41.0909ZM90.5009 40.6278C90.804 40.6278 91.0606 40.5464 91.2708 40.3835C91.4811 40.2206 91.6401 40.0038 91.7481 39.733C91.858 39.4621 91.9129 39.1638 91.9129 38.8381C91.9129 38.5123 91.858 38.2131 91.7481 37.9403C91.6401 37.6676 91.4811 37.4489 91.2708 37.2841C91.0606 37.1193 90.804 37.0369 90.5009 37.0369C90.1998 37.0369 89.9432 37.1193 89.7311 37.2841C89.5208 37.4489 89.3608 37.6676 89.2509 37.9403C89.143 38.2131 89.089 38.5123 89.089 38.8381C89.089 39.1638 89.143 39.4621 89.2509 39.733C89.3608 40.0038 89.5208 40.2206 89.7311 40.3835C89.9413 40.5464 90.1979 40.6278 90.5009 40.6278ZM93.6366 41V35.1818H94.1451V37.4688H94.1906C94.2474 37.3381 94.3288 37.2036 94.4349 37.0653C94.5428 36.9271 94.6839 36.8116 94.8582 36.7188C95.0343 36.6241 95.2559 36.5767 95.523 36.5767C95.8809 36.5767 96.1953 36.6714 96.4661 36.8608C96.737 37.0483 96.9481 37.3116 97.0997 37.6506C97.2512 37.9877 97.3269 38.3807 97.3269 38.8295C97.3269 39.2803 97.2512 39.6752 97.0997 40.0142C96.95 40.3532 96.7398 40.6174 96.469 40.8068C96.2 40.9962 95.8875 41.0909 95.5315 41.0909C95.2663 41.0909 95.0447 41.0436 94.8667 40.9489C94.6906 40.8542 94.5485 40.7377 94.4406 40.5994C94.3326 40.4593 94.2493 40.3229 94.1906 40.1903H94.1281V41H93.6366ZM94.1366 38.821C94.1366 39.1733 94.1887 39.4858 94.2928 39.7585C94.3989 40.0294 94.5504 40.2424 94.7474 40.3977C94.9463 40.5511 95.1868 40.6278 95.469 40.6278C95.7588 40.6278 96.004 40.5483 96.2048 40.3892C96.4055 40.2282 96.558 40.0114 96.6622 39.7386C96.7663 39.4659 96.8184 39.16 96.8184 38.821C96.8184 38.4858 96.7663 38.1837 96.6622 37.9148C96.5599 37.6458 96.4084 37.4328 96.2076 37.2756C96.0069 37.1165 95.7606 37.0369 95.469 37.0369C95.1849 37.0369 94.9434 37.1136 94.7446 37.267C94.5476 37.4186 94.397 37.6288 94.2928 37.8977C94.1887 38.1648 94.1366 38.4725 94.1366 38.821ZM98.9434 35.1818V41H98.4377V35.1818H98.9434ZM102.046 41.0909C101.638 41.0909 101.286 40.9962 100.989 40.8068C100.692 40.6155 100.461 40.3513 100.299 40.0142C100.138 39.6752 100.057 39.285 100.057 38.8438C100.057 38.4044 100.138 38.0142 100.299 37.6733C100.461 37.3305 100.686 37.0625 100.972 36.8693C101.26 36.6742 101.592 36.5767 101.969 36.5767C102.206 36.5767 102.434 36.6203 102.654 36.7074C102.873 36.7926 103.07 36.9242 103.245 37.1023C103.421 37.2784 103.56 37.5009 103.662 37.7699C103.764 38.0369 103.816 38.3532 103.816 38.7188V38.9688H100.406V38.5227H103.299C103.299 38.2424 103.242 37.9905 103.128 37.767C103.016 37.5417 102.86 37.3636 102.659 37.233C102.46 37.1023 102.23 37.0369 101.969 37.0369C101.692 37.0369 101.449 37.1108 101.239 37.2585C101.029 37.4062 100.864 37.6013 100.745 37.8438C100.627 38.0862 100.567 38.3513 100.566 38.6392V38.9062C100.566 39.2528 100.625 39.5559 100.745 39.8153C100.866 40.0729 101.037 40.2727 101.259 40.4148C101.48 40.5568 101.743 40.6278 102.046 40.6278C102.252 40.6278 102.433 40.5956 102.588 40.5312C102.745 40.4669 102.877 40.3807 102.983 40.2727C103.091 40.1629 103.173 40.0426 103.228 39.9119L103.708 40.0682C103.641 40.2519 103.532 40.4214 103.381 40.5767C103.231 40.732 103.044 40.857 102.818 40.9517C102.595 41.0445 102.337 41.0909 102.046 41.0909ZM104.93 41V36.6364H105.421V37.3068H105.467C105.554 37.0814 105.699 36.9044 105.902 36.7756C106.106 36.6449 106.351 36.5795 106.637 36.5795C106.938 36.5795 107.186 36.6506 107.379 36.7926C107.574 36.9328 107.72 37.1259 107.816 37.3722H107.853C107.952 37.1297 108.112 36.9375 108.333 36.7955C108.557 36.6515 108.828 36.5795 109.146 36.5795C109.551 36.5795 109.871 36.7074 110.106 36.9631C110.341 37.2169 110.458 37.5881 110.458 38.0767V41H109.953V38.0767C109.953 37.732 109.865 37.4735 109.688 37.3011C109.512 37.1288 109.28 37.0426 108.992 37.0426C108.659 37.0426 108.402 37.1449 108.223 37.3494C108.043 37.554 107.953 37.8134 107.953 38.1278V41H107.436V38.0312C107.436 37.7358 107.353 37.4972 107.188 37.3153C107.024 37.1335 106.792 37.0426 106.492 37.0426C106.292 37.0426 106.111 37.0919 105.95 37.1903C105.791 37.2888 105.665 37.4261 105.572 37.6023C105.481 37.7765 105.436 37.9773 105.436 38.2045V41H104.93ZM80.7275 51.0909C80.3696 51.0909 80.0561 50.9962 79.7872 50.8068C79.5182 50.6174 79.308 50.3532 79.1565 50.0142C79.0069 49.6752 78.9321 49.2803 78.9321 48.8295C78.9321 48.3807 79.0069 47.9877 79.1565 47.6506C79.308 47.3116 79.5192 47.0483 79.79 46.8608C80.0608 46.6714 80.3762 46.5767 80.736 46.5767C81.0012 46.5767 81.2218 46.6241 81.398 46.7188C81.5741 46.8116 81.7152 46.9271 81.8213 47.0653C81.9273 47.2036 82.0097 47.3381 82.0684 47.4688H82.1139V45.1818H82.6224V51H82.1281V50.1903H82.0684C82.0097 50.3229 81.9264 50.4593 81.8184 50.5994C81.7105 50.7377 81.5675 50.8542 81.3894 50.9489C81.2133 51.0436 80.9927 51.0909 80.7275 51.0909ZM80.7872 50.6278C81.0694 50.6278 81.3099 50.5511 81.5088 50.3977C81.7076 50.2424 81.8591 50.0294 81.9633 49.7585C82.0694 49.4858 82.1224 49.1733 82.1224 48.821C82.1224 48.4725 82.0703 48.1648 81.9661 47.8977C81.862 47.6288 81.7105 47.4186 81.5116 47.267C81.3127 47.1136 81.0713 47.0369 80.7872 47.0369C80.4955 47.0369 80.2493 47.1165 80.0485 47.2756C79.8497 47.4328 79.6981 47.6458 79.594 47.9148C79.4917 48.1837 79.4406 48.4858 79.4406 48.821C79.4406 49.16 79.4927 49.4659 79.5968 49.7386C79.701 50.0114 79.8525 50.2282 80.0514 50.3892C80.2521 50.5483 80.4974 50.6278 80.7872 50.6278ZM85.8269 51.0909C85.4197 51.0909 85.0675 50.9962 84.7701 50.8068C84.4728 50.6155 84.2427 50.3513 84.0798 50.0142C83.9188 49.6752 83.8383 49.285 83.8383 48.8438C83.8383 48.4044 83.9188 48.0142 84.0798 47.6733C84.2427 47.3305 84.4671 47.0625 84.7531 46.8693C85.041 46.6742 85.3733 46.5767 85.7502 46.5767C85.987 46.5767 86.2152 46.6203 86.4349 46.7074C86.6546 46.7926 86.8516 46.9242 87.0258 47.1023C87.2019 47.2784 87.3411 47.5009 87.4434 47.7699C87.5457 48.0369 87.5968 48.3532 87.5968 48.7188V48.9688H84.1877V48.5227H87.0798C87.0798 48.2424 87.023 47.9905 86.9093 47.767C86.7976 47.5417 86.6413 47.3636 86.4406 47.233C86.2417 47.1023 86.0116 47.0369 85.7502 47.0369C85.4737 47.0369 85.2303 47.1108 85.0201 47.2585C84.8099 47.4062 84.6451 47.6013 84.5258 47.8438C84.4084 48.0862 84.3487 48.3513 84.3468 48.6392V48.9062C84.3468 49.2528 84.4065 49.5559 84.5258 49.8153C84.647 50.0729 84.8184 50.2727 85.04 50.4148C85.2616 50.5568 85.5239 50.6278 85.8269 50.6278C86.0334 50.6278 86.2142 50.5956 86.3696 50.5312C86.5267 50.4669 86.6584 50.3807 86.7644 50.2727C86.8724 50.1629 86.9538 50.0426 87.0088 49.9119L87.4889 50.0682C87.4226 50.2519 87.3137 50.4214 87.1622 50.5767C87.0125 50.732 86.825 50.857 86.5997 50.9517C86.3762 51.0445 86.1186 51.0909 85.8269 51.0909ZM90.5066 46.6364V47.0767H88.3617V46.6364H90.5066ZM89.0322 51V45.9972C89.0322 45.7623 89.0862 45.5644 89.1941 45.4034C89.304 45.2424 89.447 45.1203 89.6231 45.0369C89.7992 44.9536 89.9858 44.9119 90.1828 44.9119C90.3153 44.9119 90.4252 44.9233 90.5123 44.946C90.6013 44.9669 90.6714 44.9877 90.7225 45.0085L90.5748 45.4517C90.5369 45.4403 90.4905 45.4271 90.4356 45.4119C90.3807 45.3968 90.3115 45.3892 90.2282 45.3892C90.0085 45.3892 89.839 45.4508 89.7197 45.5739C89.6004 45.697 89.5407 45.8731 89.5407 46.1023L89.5379 51H89.0322ZM91.5215 51V46.6364H92.0301V51H91.5215ZM91.7801 45.8864C91.6759 45.8864 91.5869 45.8513 91.513 45.7812C91.4392 45.7093 91.4022 45.6231 91.4022 45.5227C91.4022 45.4223 91.4392 45.3371 91.513 45.267C91.5869 45.1951 91.6759 45.1591 91.7801 45.1591C91.8842 45.1591 91.9732 45.1951 92.0471 45.267C92.121 45.3371 92.1579 45.4223 92.1579 45.5227C92.1579 45.6231 92.121 45.7093 92.0471 45.7812C91.9732 45.8513 91.8842 45.8864 91.7801 45.8864ZM93.8731 48.2727V51H93.3674V46.6364H93.8589V47.321H93.9044C94.0066 47.0975 94.1657 46.9186 94.3816 46.7841C94.5994 46.6477 94.8684 46.5795 95.1884 46.5795C95.482 46.5795 95.7396 46.6411 95.9612 46.7642C96.1847 46.8854 96.358 47.0644 96.4811 47.3011C96.6061 47.5379 96.6686 47.8286 96.6686 48.1733V51H96.1629V48.2045C96.1629 47.8466 96.0625 47.5634 95.8617 47.3551C95.6629 47.1468 95.3958 47.0426 95.0606 47.0426C94.8314 47.0426 94.6278 47.0919 94.4498 47.1903C94.2718 47.2888 94.1307 47.4309 94.0265 47.6165C93.9242 47.8002 93.8731 48.0189 93.8731 48.2727ZM98.0059 51V46.6364H98.5144V51H98.0059ZM98.2644 45.8864C98.1603 45.8864 98.0713 45.8513 97.9974 45.7812C97.9235 45.7093 97.8866 45.6231 97.8866 45.5227C97.8866 45.4223 97.9235 45.3371 97.9974 45.267C98.0713 45.1951 98.1603 45.1591 98.2644 45.1591C98.3686 45.1591 98.4576 45.1951 98.5315 45.267C98.6053 45.3371 98.6423 45.4223 98.6423 45.5227C98.6423 45.6231 98.6053 45.7093 98.5315 45.7812C98.4576 45.8513 98.3686 45.8864 98.2644 45.8864ZM101.571 46.6364V47.0767H99.4882V46.6364H101.571ZM100.139 45.5909H100.647V49.8608C100.647 50.0426 100.678 50.1856 100.741 50.2898C100.803 50.392 100.885 50.465 100.985 50.5085C101.086 50.5502 101.193 50.571 101.306 50.571C101.373 50.571 101.429 50.5672 101.477 50.5597C101.524 50.5502 101.566 50.5407 101.602 50.5312L101.71 50.9886C101.661 51.0076 101.6 51.0246 101.528 51.0398C101.456 51.0568 101.367 51.0653 101.261 51.0653C101.075 51.0653 100.896 51.0246 100.724 50.9432C100.553 50.8617 100.413 50.7405 100.303 50.5795C100.194 50.4186 100.139 50.2188 100.139 49.9801V45.5909ZM102.725 51V46.6364H103.233V51H102.725ZM102.983 45.8864C102.879 45.8864 102.79 45.8513 102.716 45.7812C102.642 45.7093 102.605 45.6231 102.605 45.5227C102.605 45.4223 102.642 45.3371 102.716 45.267C102.79 45.1951 102.879 45.1591 102.983 45.1591C103.087 45.1591 103.176 45.1951 103.25 45.267C103.324 45.3371 103.361 45.4223 103.361 45.5227C103.361 45.6231 103.324 45.7093 103.25 45.7812C103.176 45.8513 103.087 45.8864 102.983 45.8864ZM106.267 51.0909C105.89 51.0909 105.556 50.9953 105.267 50.804C104.979 50.6127 104.753 50.3485 104.59 50.0114C104.428 49.6723 104.346 49.2812 104.346 48.8381C104.346 48.3911 104.428 47.9981 104.59 47.6591C104.753 47.3182 104.979 47.053 105.267 46.8636C105.556 46.6723 105.89 46.5767 106.267 46.5767C106.643 46.5767 106.976 46.6723 107.264 46.8636C107.552 47.0549 107.777 47.3201 107.94 47.6591C108.105 47.9981 108.187 48.3911 108.187 48.8381C108.187 49.2812 108.106 49.6723 107.943 50.0114C107.78 50.3485 107.553 50.6127 107.264 50.804C106.976 50.9953 106.643 51.0909 106.267 51.0909ZM106.267 50.6278C106.57 50.6278 106.826 50.5464 107.036 50.3835C107.247 50.2206 107.406 50.0038 107.514 49.733C107.624 49.4621 107.678 49.1638 107.678 48.8381C107.678 48.5123 107.624 48.2131 107.514 47.9403C107.406 47.6676 107.247 47.4489 107.036 47.2841C106.826 47.1193 106.57 47.0369 106.267 47.0369C105.965 47.0369 105.709 47.1193 105.497 47.2841C105.286 47.4489 105.126 47.6676 105.017 47.9403C104.909 48.2131 104.855 48.5123 104.855 48.8381C104.855 49.1638 104.909 49.4621 105.017 49.733C105.126 50.0038 105.286 50.2206 105.497 50.3835C105.707 50.5464 105.964 50.6278 106.267 50.6278ZM109.803 48.2727V51H109.297V46.6364H109.789V47.321H109.834C109.936 47.0975 110.095 46.9186 110.311 46.7841C110.529 46.6477 110.798 46.5795 111.118 46.5795C111.412 46.5795 111.669 46.6411 111.891 46.7642C112.114 46.8854 112.288 47.0644 112.411 47.3011C112.536 47.5379 112.598 47.8286 112.598 48.1733V51H112.093V48.2045C112.093 47.8466 111.992 47.5634 111.791 47.3551C111.593 47.1468 111.326 47.0426 110.99 47.0426C110.761 47.0426 110.558 47.0919 110.379 47.1903C110.201 47.2888 110.06 47.4309 109.956 47.6165C109.854 47.8002 109.803 48.0189 109.803 48.2727Z" fill="#555555"/>
<path d="M151.434 53.0909C151.057 53.0909 150.724 52.9953 150.434 52.804C150.146 52.6127 149.921 52.3485 149.758 52.0114C149.595 51.6723 149.513 51.2812 149.513 50.8381C149.513 50.3911 149.595 49.9981 149.758 49.6591C149.921 49.3182 150.146 49.053 150.434 48.8636C150.724 48.6723 151.057 48.5767 151.434 48.5767C151.811 48.5767 152.143 48.6723 152.431 48.8636C152.719 49.0549 152.944 49.3201 153.107 49.6591C153.272 49.9981 153.354 50.3911 153.354 50.8381C153.354 51.2812 153.273 51.6723 153.11 52.0114C152.947 52.3485 152.721 52.6127 152.431 52.804C152.143 52.9953 151.811 53.0909 151.434 53.0909ZM151.434 52.6278C151.737 52.6278 151.994 52.5464 152.204 52.3835C152.414 52.2206 152.573 52.0038 152.681 51.733C152.791 51.4621 152.846 51.1638 152.846 50.8381C152.846 50.5123 152.791 50.2131 152.681 49.9403C152.573 49.6676 152.414 49.4489 152.204 49.2841C151.994 49.1193 151.737 49.0369 151.434 49.0369C151.133 49.0369 150.876 49.1193 150.664 49.2841C150.454 49.4489 150.294 49.6676 150.184 49.9403C150.076 50.2131 150.022 50.5123 150.022 50.8381C150.022 51.1638 150.076 51.4621 150.184 51.733C150.294 52.0038 150.454 52.2206 150.664 52.3835C150.874 52.5464 151.131 52.6278 151.434 52.6278ZM157.237 51.3324V48.6364H157.743V53H157.237V52.2756H157.197C157.095 52.4991 156.933 52.6856 156.712 52.8352C156.49 52.983 156.219 53.0568 155.899 53.0568C155.621 53.0568 155.374 52.9962 155.158 52.875C154.942 52.7519 154.772 52.572 154.649 52.3352C154.526 52.0985 154.464 51.8078 154.464 51.4631V48.6364H154.97V51.4318C154.97 51.7727 155.071 52.0473 155.271 52.2557C155.472 52.4621 155.73 52.5653 156.044 52.5653C156.241 52.5653 156.43 52.518 156.612 52.4233C156.794 52.3286 156.944 52.1903 157.061 52.0085C157.179 51.8248 157.237 51.5994 157.237 51.3324ZM160.8 48.6364V49.0767H158.718V48.6364H160.8ZM159.369 47.5909H159.877V51.8608C159.877 52.0426 159.908 52.1856 159.971 52.2898C160.033 52.392 160.115 52.465 160.215 52.5085C160.316 52.5502 160.423 52.571 160.536 52.571C160.603 52.571 160.659 52.5672 160.707 52.5597C160.754 52.5502 160.796 52.5407 160.832 52.5312L160.94 52.9886C160.89 53.0076 160.83 53.0246 160.758 53.0398C160.686 53.0568 160.597 53.0653 160.491 53.0653C160.305 53.0653 160.126 53.0246 159.954 52.9432C159.783 52.8617 159.643 52.7405 159.533 52.5795C159.424 52.4186 159.369 52.2188 159.369 51.9801V47.5909ZM163.607 53.0909C163.216 53.0909 162.876 52.9934 162.587 52.7983C162.299 52.6032 162.075 52.3362 161.916 51.9972C161.757 51.6581 161.678 51.2718 161.678 50.8381C161.678 50.4006 161.758 50.0114 161.919 49.6705C162.082 49.3295 162.307 49.0625 162.595 48.8693C162.883 48.6742 163.217 48.5767 163.598 48.5767C163.89 48.5767 164.154 48.6335 164.391 48.7472C164.627 48.8589 164.822 49.017 164.976 49.2216C165.131 49.4242 165.229 49.661 165.268 49.9318H164.757C164.704 49.6856 164.576 49.4754 164.374 49.3011C164.173 49.125 163.917 49.0369 163.607 49.0369C163.328 49.0369 163.082 49.1127 162.868 49.2642C162.654 49.4138 162.486 49.6231 162.365 49.892C162.246 50.1591 162.186 50.4687 162.186 50.821C162.186 51.1752 162.245 51.4886 162.362 51.7614C162.48 52.0322 162.644 52.2443 162.857 52.3977C163.071 52.5511 163.321 52.6278 163.607 52.6278C163.8 52.6278 163.976 52.5919 164.135 52.5199C164.296 52.446 164.43 52.3419 164.538 52.2074C164.648 52.0729 164.722 51.9129 164.76 51.7273H165.271C165.233 51.9905 165.14 52.2254 164.99 52.4318C164.842 52.6364 164.65 52.7973 164.413 52.9148C164.179 53.0322 163.91 53.0909 163.607 53.0909ZM168.051 53.0909C167.674 53.0909 167.341 52.9953 167.051 52.804C166.763 52.6127 166.538 52.3485 166.375 52.0114C166.212 51.6723 166.131 51.2812 166.131 50.8381C166.131 50.3911 166.212 49.9981 166.375 49.6591C166.538 49.3182 166.763 49.053 167.051 48.8636C167.341 48.6723 167.674 48.5767 168.051 48.5767C168.428 48.5767 168.76 48.6723 169.048 48.8636C169.336 49.0549 169.562 49.3201 169.724 49.6591C169.889 49.9981 169.972 50.3911 169.972 50.8381C169.972 51.2812 169.89 51.6723 169.727 52.0114C169.564 52.3485 169.338 52.6127 169.048 52.804C168.76 52.9953 168.428 53.0909 168.051 53.0909ZM168.051 52.6278C168.354 52.6278 168.611 52.5464 168.821 52.3835C169.031 52.2206 169.19 52.0038 169.298 51.733C169.408 51.4621 169.463 51.1638 169.463 50.8381C169.463 50.5123 169.408 50.2131 169.298 49.9403C169.19 49.6676 169.031 49.4489 168.821 49.2841C168.611 49.1193 168.354 49.0369 168.051 49.0369C167.75 49.0369 167.493 49.1193 167.281 49.2841C167.071 49.4489 166.911 49.6676 166.801 49.9403C166.693 50.2131 166.639 50.5123 166.639 50.8381C166.639 51.1638 166.693 51.4621 166.801 51.733C166.911 52.0038 167.071 52.2206 167.281 52.3835C167.491 52.5464 167.748 52.6278 168.051 52.6278ZM171.082 53V48.6364H171.573V49.3068H171.619C171.706 49.0814 171.851 48.9044 172.053 48.7756C172.258 48.6449 172.503 48.5795 172.789 48.5795C173.09 48.5795 173.337 48.6506 173.531 48.7926C173.726 48.9328 173.871 49.1259 173.968 49.3722H174.005C174.103 49.1297 174.263 48.9375 174.485 48.7955C174.709 48.6515 174.979 48.5795 175.298 48.5795C175.703 48.5795 176.023 48.7074 176.258 48.9631C176.493 49.2169 176.61 49.5881 176.61 50.0767V53H176.104V50.0767C176.104 49.732 176.016 49.4735 175.84 49.3011C175.664 49.1288 175.432 49.0426 175.144 49.0426C174.811 49.0426 174.554 49.1449 174.374 49.3494C174.194 49.554 174.104 49.8134 174.104 50.1278V53H173.587V50.0312C173.587 49.7358 173.505 49.4972 173.34 49.3153C173.175 49.1335 172.943 49.0426 172.644 49.0426C172.443 49.0426 172.263 49.0919 172.102 49.1903C171.942 49.2888 171.817 49.4261 171.724 49.6023C171.633 49.7765 171.587 49.9773 171.587 50.2045V53H171.082ZM179.713 53.0909C179.306 53.0909 178.954 52.9962 178.656 52.8068C178.359 52.6155 178.129 52.3513 177.966 52.0142C177.805 51.6752 177.724 51.285 177.724 50.8438C177.724 50.4044 177.805 50.0142 177.966 49.6733C178.129 49.3305 178.353 49.0625 178.639 48.8693C178.927 48.6742 179.259 48.5767 179.636 48.5767C179.873 48.5767 180.101 48.6203 180.321 48.7074C180.541 48.7926 180.738 48.9242 180.912 49.1023C181.088 49.2784 181.227 49.5009 181.33 49.7699C181.432 50.0369 181.483 50.3532 181.483 50.7188V50.9688H178.074V50.5227H180.966C180.966 50.2424 180.909 49.9905 180.795 49.767C180.684 49.5417 180.527 49.3636 180.327 49.233C180.128 49.1023 179.898 49.0369 179.636 49.0369C179.36 49.0369 179.116 49.1108 178.906 49.2585C178.696 49.4062 178.531 49.6013 178.412 49.8438C178.295 50.0862 178.235 50.3513 178.233 50.6392V50.9062C178.233 51.2528 178.293 51.5559 178.412 51.8153C178.533 52.0729 178.705 52.2727 178.926 52.4148C179.148 52.5568 179.41 52.6278 179.713 52.6278C179.92 52.6278 180.1 52.5956 180.256 52.5312C180.413 52.4669 180.545 52.3807 180.651 52.2727C180.759 52.1629 180.84 52.0426 180.895 51.9119L181.375 52.0682C181.309 52.2519 181.2 52.4214 181.048 52.5767C180.899 52.732 180.711 52.857 180.486 52.9517C180.262 53.0445 180.005 53.0909 179.713 53.0909Z" fill="#555555"/>
<path d="M7.87607 53.0909C7.48591 53.0909 7.14595 52.9934 6.85618 52.7983C6.5683 52.6032 6.34482 52.3362 6.18572 51.9972C6.02663 51.6581 5.94709 51.2718 5.94709 50.8381C5.94709 50.4006 6.02758 50.0114 6.18857 49.6705C6.35144 49.3295 6.57682 49.0625 6.8647 48.8693C7.15258 48.6742 7.48686 48.5767 7.86754 48.5767C8.15921 48.5767 8.42341 48.6335 8.66016 48.7472C8.8969 48.8589 9.09197 49.017 9.24538 49.2216C9.40069 49.4242 9.49822 49.661 9.538 49.9318H9.02663C8.9736 49.6856 8.84576 49.4754 8.64311 49.3011C8.44235 49.125 8.18667 49.0369 7.87607 49.0369C7.59766 49.0369 7.35144 49.1127 7.13743 49.2642C6.92341 49.4138 6.7558 49.6231 6.63459 49.892C6.51527 50.1591 6.45561 50.4687 6.45561 50.821C6.45561 51.1752 6.51432 51.4886 6.63175 51.7614C6.74917 52.0322 6.91394 52.2443 7.12607 52.3977C7.34008 52.5511 7.59008 52.6278 7.87607 52.6278C8.06925 52.6278 8.24538 52.5919 8.40447 52.5199C8.56546 52.446 8.69993 52.3419 8.80788 52.2074C8.91773 52.0729 8.9916 51.9129 9.02947 51.7273H9.54084C9.50296 51.9905 9.40921 52.2254 9.25959 52.4318C9.11186 52.6364 8.91963 52.7973 8.68288 52.9148C8.44804 53.0322 8.1791 53.0909 7.87607 53.0909ZM11.1303 50.2727V53H10.6246V47.1818H11.1303V49.321H11.1758C11.2781 49.0956 11.4362 48.9157 11.6502 48.7812C11.8661 48.6468 12.1388 48.5795 12.4684 48.5795C12.7638 48.5795 13.0233 48.6402 13.2468 48.7614C13.4703 48.8826 13.6445 49.0616 13.7695 49.2983C13.8945 49.535 13.957 49.8267 13.957 50.1733V53H13.4485V50.2045C13.4485 49.8447 13.3481 49.5616 13.1474 49.3551C12.9485 49.1468 12.6796 49.0426 12.3406 49.0426C12.1076 49.0426 11.9002 49.0919 11.7184 49.1903C11.5366 49.2888 11.3926 49.4309 11.2866 49.6165C11.1824 49.8002 11.1303 50.0189 11.1303 50.2727ZM16.5075 53.0994C16.2442 53.0994 16.0037 53.0483 15.7859 52.946C15.5681 52.8419 15.3948 52.6922 15.266 52.4972C15.1372 52.3002 15.0728 52.0616 15.0728 51.7812C15.0728 51.5653 15.1135 51.3835 15.195 51.2358C15.2764 51.0881 15.3919 50.9669 15.5415 50.8722C15.6912 50.7775 15.8683 50.7027 16.0728 50.6477C16.2773 50.5928 16.5027 50.5502 16.7489 50.5199C16.9933 50.4896 17.1997 50.4631 17.3683 50.4403C17.5387 50.4176 17.6684 50.3816 17.7575 50.3324C17.8465 50.2831 17.891 50.2036 17.891 50.0938V49.9915C17.891 49.6941 17.802 49.4602 17.6239 49.2898C17.4478 49.1174 17.194 49.0312 16.8626 49.0312C16.5482 49.0312 16.2915 49.1004 16.0927 49.2386C15.8957 49.3769 15.7575 49.5398 15.6779 49.7273L15.1978 49.554C15.2963 49.3153 15.4326 49.125 15.6069 48.983C15.7811 48.839 15.9762 48.7358 16.1921 48.6733C16.408 48.6089 16.6268 48.5767 16.8484 48.5767C17.015 48.5767 17.1883 48.5985 17.3683 48.642C17.5501 48.6856 17.7186 48.7614 17.8739 48.8693C18.0292 48.9754 18.1552 49.1241 18.2518 49.3153C18.3484 49.5047 18.3967 49.7453 18.3967 50.0369V53H17.891V52.3097H17.8597C17.7991 52.4384 17.7092 52.5634 17.5898 52.6847C17.4705 52.8059 17.3209 52.9053 17.141 52.983C16.9611 53.0606 16.7499 53.0994 16.5075 53.0994ZM16.5756 52.6364C16.8446 52.6364 17.0775 52.5767 17.2745 52.4574C17.4715 52.3381 17.623 52.1799 17.729 51.983C17.837 51.7841 17.891 51.5653 17.891 51.3267V50.696C17.8531 50.732 17.7897 50.7642 17.7006 50.7926C17.6135 50.821 17.5122 50.8466 17.3967 50.8693C17.283 50.8902 17.1694 50.9081 17.0558 50.9233C16.9421 50.9384 16.8398 50.9517 16.7489 50.9631C16.5027 50.9934 16.2925 51.0407 16.1183 51.1051C15.944 51.1695 15.8105 51.2585 15.7177 51.3722C15.6249 51.4839 15.5785 51.6278 15.5785 51.804C15.5785 52.0691 15.6732 52.2746 15.8626 52.4205C16.052 52.5644 16.2897 52.6364 16.5756 52.6364ZM20.2475 47.1818V53H19.7418V47.1818H20.2475ZM22.0913 47.1818V53H21.5856V47.1818H22.0913ZM25.1935 53.0909C24.7863 53.0909 24.4341 52.9962 24.1367 52.8068C23.8394 52.6155 23.6093 52.3513 23.4464 52.0142C23.2854 51.6752 23.2049 51.285 23.2049 50.8438C23.2049 50.4044 23.2854 50.0142 23.4464 49.6733C23.6093 49.3305 23.8337 49.0625 24.1197 48.8693C24.4076 48.6742 24.7399 48.5767 25.1168 48.5767C25.3536 48.5767 25.5818 48.6203 25.8015 48.7074C26.0212 48.7926 26.2182 48.9242 26.3924 49.1023C26.5685 49.2784 26.7077 49.5009 26.81 49.7699C26.9123 50.0369 26.9634 50.3532 26.9634 50.7188V50.9688H23.5543V50.5227H26.4464C26.4464 50.2424 26.3896 49.9905 26.2759 49.767C26.1642 49.5417 26.0079 49.3636 25.8072 49.233C25.6083 49.1023 25.3782 49.0369 25.1168 49.0369C24.8403 49.0369 24.5969 49.1108 24.3867 49.2585C24.1765 49.4062 24.0117 49.6013 23.8924 49.8438C23.775 50.0862 23.7153 50.3513 23.7134 50.6392V50.9062C23.7134 51.2528 23.7731 51.5559 23.8924 51.8153C24.0136 52.0729 24.185 52.2727 24.4066 52.4148C24.6282 52.5568 24.8905 52.6278 25.1935 52.6278C25.4 52.6278 25.5808 52.5956 25.7362 52.5312C25.8933 52.4669 26.025 52.3807 26.131 52.2727C26.239 52.1629 26.3204 52.0426 26.3754 51.9119L26.8555 52.0682C26.7892 52.2519 26.6803 52.4214 26.5288 52.5767C26.3791 52.732 26.1916 52.857 25.9663 52.9517C25.7428 53.0445 25.4852 53.0909 25.1935 53.0909ZM28.5835 50.2727V53H28.0778V48.6364H28.5692V49.321H28.6147C28.717 49.0975 28.8761 48.9186 29.092 48.7841C29.3098 48.6477 29.5787 48.5795 29.8988 48.5795C30.1924 48.5795 30.4499 48.6411 30.6715 48.7642C30.895 48.8854 31.0683 49.0644 31.1914 49.3011C31.3164 49.5379 31.3789 49.8286 31.3789 50.1733V53H30.8732V50.2045C30.8732 49.8466 30.7728 49.5634 30.5721 49.3551C30.3732 49.1468 30.1062 49.0426 29.771 49.0426C29.5418 49.0426 29.3382 49.0919 29.1602 49.1903C28.9821 49.2888 28.841 49.4309 28.7369 49.6165C28.6346 49.8002 28.5835 50.0189 28.5835 50.2727ZM34.3754 54.7273C34.078 54.7273 33.8176 54.6884 33.5941 54.6108C33.3706 54.535 33.1822 54.4309 33.0288 54.2983C32.8754 54.1657 32.756 54.017 32.6708 53.8523L33.0856 53.5795C33.1481 53.6894 33.2314 53.7973 33.3356 53.9034C33.4416 54.0095 33.579 54.0975 33.7475 54.1676C33.918 54.2377 34.1272 54.2727 34.3754 54.2727C34.7617 54.2727 35.0733 54.1761 35.31 53.983C35.5487 53.7898 35.668 53.4896 35.668 53.0824V52.0994H35.6225C35.5638 52.232 35.4795 52.3646 35.3697 52.4972C35.2598 52.6278 35.1159 52.7367 34.9379 52.8239C34.7617 52.911 34.543 52.9545 34.2816 52.9545C33.9331 52.9545 33.6235 52.8684 33.3526 52.696C33.0837 52.5237 32.8716 52.2775 32.7163 51.9574C32.5629 51.6354 32.4862 51.2519 32.4862 50.8068C32.4862 50.3655 32.561 49.9773 32.7106 49.642C32.8621 49.3068 33.0733 49.0455 33.3441 48.858C33.6149 48.6705 33.9303 48.5767 34.2901 48.5767C34.5572 48.5767 34.7788 48.6241 34.9549 48.7188C35.131 48.8116 35.2721 48.9271 35.3782 49.0653C35.4862 49.2036 35.5704 49.3381 35.631 49.4688H35.6822V48.6364H36.1765V53.1136C36.1765 53.483 36.0979 53.7869 35.9407 54.0256C35.7835 54.2642 35.5695 54.4403 35.2987 54.554C35.0278 54.6695 34.7201 54.7273 34.3754 54.7273ZM34.3413 52.4915C34.6216 52.4915 34.8612 52.4242 35.06 52.2898C35.2589 52.1534 35.4113 51.9583 35.5174 51.7045C35.6235 51.4508 35.6765 51.1487 35.6765 50.7983C35.6765 50.4574 35.6244 50.1553 35.5202 49.892C35.4161 49.6269 35.2646 49.4186 35.0657 49.267C34.8687 49.1136 34.6272 49.0369 34.3413 49.0369C34.0496 49.0369 33.8034 49.1155 33.6026 49.2727C33.4019 49.4299 33.2504 49.642 33.1481 49.9091C33.0458 50.1742 32.9947 50.4706 32.9947 50.7983C32.9947 51.1316 33.0468 51.4261 33.1509 51.6818C33.2551 51.9356 33.4076 52.1345 33.6083 52.2784C33.8091 52.4205 34.0534 52.4915 34.3413 52.4915ZM39.2795 53.0909C38.8723 53.0909 38.52 52.9962 38.2227 52.8068C37.9253 52.6155 37.6952 52.3513 37.5323 52.0142C37.3713 51.6752 37.2908 51.285 37.2908 50.8438C37.2908 50.4044 37.3713 50.0142 37.5323 49.6733C37.6952 49.3305 37.9196 49.0625 38.2056 48.8693C38.4935 48.6742 38.8259 48.5767 39.2028 48.5767C39.4395 48.5767 39.6677 48.6203 39.8874 48.7074C40.1071 48.7926 40.3041 48.9242 40.4783 49.1023C40.6545 49.2784 40.7937 49.5009 40.896 49.7699C40.9982 50.0369 41.0494 50.3532 41.0494 50.7188V50.9688H37.6403V50.5227H40.5323C40.5323 50.2424 40.4755 49.9905 40.3619 49.767C40.2501 49.5417 40.0939 49.3636 39.8931 49.233C39.6942 49.1023 39.4641 49.0369 39.2028 49.0369C38.9263 49.0369 38.6829 49.1108 38.4727 49.2585C38.2624 49.4062 38.0977 49.6013 37.9783 49.8438C37.8609 50.0862 37.8013 50.3513 37.7994 50.6392V50.9062C37.7994 51.2528 37.859 51.5559 37.9783 51.8153C38.0996 52.0729 38.271 52.2727 38.4925 52.4148C38.7141 52.5568 38.9764 52.6278 39.2795 52.6278C39.4859 52.6278 39.6668 52.5956 39.8221 52.5312C39.9793 52.4669 40.1109 52.3807 40.217 52.2727C40.3249 52.1629 40.4064 52.0426 40.4613 51.9119L40.9414 52.0682C40.8751 52.2519 40.7662 52.4214 40.6147 52.5767C40.4651 52.732 40.2776 52.857 40.0522 52.9517C39.8287 53.0445 39.5711 53.0909 39.2795 53.0909Z" fill="#555555"/>
<line x1="67.1792" y1="13.4018" x2="67.1792" y2="67.5783" stroke="#555555" stroke-width="0.7" stroke-dasharray="1.4 1.4"/>
<line x1="123.314" y1="13.4018" x2="123.314" y2="67.5783" stroke="#555555" stroke-width="0.7" stroke-dasharray="1.4 1.4"/>
</svg>
