<svg width="216" height="85" viewBox="0 0 216 85" fill="none" xmlns="http://www.w3.org/2000/svg">
<path d="M89.051 6.28353L84.5635 2V4.44773C80.269 4.44773 79.2601 7.52703 79.2601 10.5671C80.4995 8.98011 81.5956 8.11933 84.5635 8.11933V10.5671L89.051 6.28353Z" stroke="#555555" stroke-width="0.5" stroke-linejoin="round"/>
<rect x="84.1078" y="68.6399" width="38.4637" height="38.4637" transform="rotate(-135 84.1078 68.6399)" stroke="#999999" stroke-width="0.7"/>
<rect x="140.242" y="69.9454" width="38.4637" height="38.4637" transform="rotate(-135 140.242 69.9454)" stroke="#999999" stroke-width="0.7"/>
<path d="M43.2386 8.09091C42.8807 8.09091 42.5672 7.99621 42.2983 7.80682C42.0294 7.61742 41.8191 7.35322 41.6676 7.0142C41.518 6.67519 41.4432 6.2803 41.4432 5.82955C41.4432 5.38068 41.518 4.98769 41.6676 4.65057C41.8191 4.31155 42.0303 4.0483 42.3011 3.8608C42.572 3.6714 42.8873 3.5767 43.2472 3.5767C43.5123 3.5767 43.733 3.62405 43.9091 3.71875C44.0852 3.81155 44.2263 3.92708 44.3324 4.06534C44.4384 4.2036 44.5208 4.33807 44.5795 4.46875H44.625V2.18182H45.1335V8H44.6392V7.19034H44.5795C44.5208 7.32292 44.4375 7.45928 44.3295 7.59943C44.2216 7.73769 44.0786 7.85417 43.9006 7.94886C43.7244 8.04356 43.5038 8.09091 43.2386 8.09091ZM43.2983 7.62784C43.5805 7.62784 43.821 7.55114 44.0199 7.39773C44.2188 7.24242 44.3703 7.02936 44.4744 6.75852C44.5805 6.4858 44.6335 6.1733 44.6335 5.82102C44.6335 5.47254 44.5814 5.16477 44.4773 4.89773C44.3731 4.62879 44.2216 4.41856 44.0227 4.26705C43.8239 4.11364 43.5824 4.03693 43.2983 4.03693C43.0066 4.03693 42.7604 4.11648 42.5597 4.27557C42.3608 4.43277 42.2093 4.64583 42.1051 4.91477C42.0028 5.18371 41.9517 5.4858 41.9517 5.82102C41.9517 6.16004 42.0038 6.46591 42.108 6.73864C42.2121 7.01136 42.3636 7.22822 42.5625 7.3892C42.7633 7.5483 43.0085 7.62784 43.2983 7.62784ZM46.5795 8V3.63636H47.0881V8H46.5795ZM46.8381 2.88636C46.7339 2.88636 46.6449 2.85133 46.571 2.78125C46.4972 2.70928 46.4602 2.62311 46.4602 2.52273C46.4602 2.42235 46.4972 2.33712 46.571 2.26705C46.6449 2.19508 46.7339 2.15909 46.8381 2.15909C46.9422 2.15909 47.0313 2.19508 47.1051 2.26705C47.179 2.33712 47.2159 2.42235 47.2159 2.52273C47.2159 2.62311 47.179 2.70928 47.1051 2.78125C47.0313 2.85133 46.9422 2.88636 46.8381 2.88636ZM51.3572 4.59375L50.8942 4.72443C50.8487 4.59375 50.7843 4.47538 50.701 4.36932C50.6177 4.26326 50.5088 4.17898 50.3743 4.11648C50.2417 4.05398 50.0769 4.02273 49.88 4.02273C49.5845 4.02273 49.3421 4.0928 49.1527 4.23295C48.9633 4.37311 48.8686 4.55398 48.8686 4.77557C48.8686 4.96307 48.933 5.11553 49.0618 5.23295C49.1925 5.34848 49.3932 5.44034 49.6641 5.50852L50.3232 5.67045C50.6887 5.75947 50.9624 5.90057 51.1442 6.09375C51.3279 6.28693 51.4197 6.52936 51.4197 6.82102C51.4197 7.06723 51.3516 7.28598 51.2152 7.47727C51.0788 7.66856 50.8885 7.81913 50.6442 7.92898C50.4018 8.03693 50.1205 8.09091 49.8004 8.09091C49.3743 8.09091 49.023 7.99527 48.7464 7.80398C48.4699 7.6108 48.2929 7.33239 48.2152 6.96875L48.701 6.84943C48.7635 7.1089 48.8857 7.30492 49.0675 7.4375C49.2512 7.57008 49.4927 7.63636 49.7919 7.63636C50.1271 7.63636 50.3951 7.56155 50.5959 7.41193C50.7966 7.26042 50.897 7.07102 50.897 6.84375C50.897 6.66761 50.8383 6.51989 50.7209 6.40057C50.6035 6.27936 50.4254 6.19034 50.1868 6.13352L49.4737 5.96307C49.0949 5.87216 48.8146 5.72822 48.6328 5.53125C48.451 5.33428 48.3601 5.08996 48.3601 4.7983C48.3601 4.55777 48.4254 4.34659 48.5561 4.16477C48.6868 3.98106 48.8667 3.83712 49.0959 3.73295C49.325 3.62879 49.5864 3.5767 49.88 3.5767C50.2796 3.5767 50.5987 3.66761 50.8374 3.84943C51.0779 4.02936 51.2512 4.27746 51.3572 4.59375ZM54.2315 8.09091C53.8414 8.09091 53.5014 7.99337 53.2116 7.7983C52.9238 7.60322 52.7003 7.33617 52.5412 6.99716C52.3821 6.65814 52.3026 6.27178 52.3026 5.83807C52.3026 5.40057 52.383 5.01136 52.544 4.67045C52.7069 4.32955 52.9323 4.0625 53.2202 3.86932C53.508 3.67424 53.8423 3.5767 54.223 3.5767C54.5147 3.5767 54.7789 3.63352 55.0156 3.74716C55.2524 3.8589 55.4474 4.01705 55.6009 4.22159C55.7562 4.42424 55.8537 4.66098 55.8935 4.93182H55.3821C55.3291 4.68561 55.2012 4.47538 54.9986 4.30114C54.7978 4.125 54.5421 4.03693 54.2315 4.03693C53.9531 4.03693 53.7069 4.11269 53.4929 4.2642C53.2789 4.41383 53.1113 4.62311 52.9901 4.89205C52.8707 5.15909 52.8111 5.46875 52.8111 5.82102C52.8111 6.17519 52.8698 6.48864 52.9872 6.76136C53.1046 7.0322 53.2694 7.24432 53.4815 7.39773C53.6955 7.55114 53.9455 7.62784 54.2315 7.62784C54.4247 7.62784 54.6009 7.59186 54.7599 7.51989C54.9209 7.44602 55.0554 7.34186 55.1634 7.20739C55.2732 7.07292 55.3471 6.91288 55.3849 6.72727H55.8963C55.8584 6.99053 55.7647 7.22538 55.6151 7.43182C55.4673 7.63636 55.2751 7.79735 55.0384 7.91477C54.8035 8.0322 54.5346 8.09091 54.2315 8.09091ZM58.6761 8.09091C58.2992 8.09091 57.9659 7.99527 57.6761 7.80398C57.3883 7.61269 57.1629 7.34848 57 7.01136C56.8371 6.67235 56.7557 6.28125 56.7557 5.83807C56.7557 5.3911 56.8371 4.99811 57 4.65909C57.1629 4.31818 57.3883 4.05303 57.6761 3.86364C57.9659 3.67235 58.2992 3.5767 58.6761 3.5767C59.053 3.5767 59.3854 3.67235 59.6733 3.86364C59.9612 4.05492 60.1866 4.32008 60.3494 4.65909C60.5142 4.99811 60.5966 5.3911 60.5966 5.83807C60.5966 6.28125 60.5152 6.67235 60.3523 7.01136C60.1894 7.34848 59.9631 7.61269 59.6733 7.80398C59.3854 7.99527 59.053 8.09091 58.6761 8.09091ZM58.6761 7.62784C58.9792 7.62784 59.2358 7.5464 59.446 7.38352C59.6563 7.22064 59.8153 7.00379 59.9233 6.73295C60.0331 6.46212 60.0881 6.16383 60.0881 5.83807C60.0881 5.51231 60.0331 5.21307 59.9233 4.94034C59.8153 4.66761 59.6563 4.44886 59.446 4.28409C59.2358 4.11932 58.9792 4.03693 58.6761 4.03693C58.375 4.03693 58.1184 4.11932 57.9062 4.28409C57.696 4.44886 57.536 4.66761 57.4261 4.94034C57.3182 5.21307 57.2642 5.51231 57.2642 5.83807C57.2642 6.16383 57.3182 6.46212 57.4261 6.73295C57.536 7.00379 57.696 7.22064 57.9062 7.38352C58.1165 7.5464 58.3731 7.62784 58.6761 7.62784ZM64.9283 3.63636L63.3345 8H62.7947L61.201 3.63636H61.7493L63.0447 7.33239H63.0845L64.38 3.63636H64.9283ZM67.5256 8.09091C67.1184 8.09091 66.7661 7.99621 66.4688 7.80682C66.1714 7.61553 65.9413 7.35133 65.7784 7.0142C65.6174 6.67519 65.5369 6.28504 65.5369 5.84375C65.5369 5.40436 65.6174 5.0142 65.7784 4.6733C65.9413 4.33049 66.1657 4.0625 66.4517 3.86932C66.7396 3.67424 67.072 3.5767 67.4489 3.5767C67.6856 3.5767 67.9138 3.62027 68.1335 3.70739C68.3532 3.79261 68.5502 3.92424 68.7244 4.10227C68.9006 4.27841 69.0398 4.50095 69.142 4.76989C69.2443 5.03693 69.2955 5.35322 69.2955 5.71875V5.96875H65.8864V5.52273H68.7784C68.7784 5.24242 68.7216 4.99053 68.608 4.76705C68.4962 4.54167 68.34 4.36364 68.1392 4.23295C67.9403 4.10227 67.7102 4.03693 67.4489 4.03693C67.1723 4.03693 66.929 4.1108 66.7188 4.25852C66.5085 4.40625 66.3438 4.60133 66.2244 4.84375C66.107 5.08617 66.0473 5.35133 66.0455 5.6392V5.90625C66.0455 6.25284 66.1051 6.55587 66.2244 6.81534C66.3456 7.07292 66.517 7.27273 66.7386 7.41477C66.9602 7.55682 67.2225 7.62784 67.5256 7.62784C67.732 7.62784 67.9129 7.59564 68.0682 7.53125C68.2254 7.46686 68.357 7.38068 68.4631 7.27273C68.571 7.16288 68.6525 7.04261 68.7074 6.91193L69.1875 7.06818C69.1212 7.25189 69.0123 7.4214 68.8608 7.5767C68.7112 7.73201 68.5237 7.85701 68.2983 7.9517C68.0748 8.04451 67.8172 8.09091 67.5256 8.09091ZM70.4098 8V3.63636H70.9013V4.30682H70.9382C71.0253 4.08712 71.1768 3.91004 71.3928 3.77557C71.6106 3.6392 71.8568 3.57102 72.1314 3.57102C72.1731 3.57102 72.2195 3.57197 72.2706 3.57386C72.3217 3.57576 72.3643 3.57765 72.3984 3.57955V4.09375C72.3757 4.08996 72.3359 4.08428 72.2791 4.0767C72.2223 4.06913 72.1607 4.06534 72.0945 4.06534C71.8672 4.06534 71.6645 4.11364 71.4865 4.21023C71.3104 4.30492 71.1712 4.43655 71.0689 4.60511C70.9666 4.77367 70.9155 4.96591 70.9155 5.18182V8H70.4098ZM73.7464 9.63636C73.6461 9.63636 73.5523 9.62689 73.4652 9.60795C73.3781 9.58902 73.3089 9.56818 73.2578 9.54545L73.3942 9.09943C73.5665 9.15246 73.7199 9.1714 73.8544 9.15625C73.9889 9.14299 74.1082 9.08239 74.2124 8.97443C74.3165 8.86837 74.4093 8.70549 74.4908 8.4858L74.6499 8.04261L73.0447 3.63636H73.593L74.8885 7.33239H74.9283L76.2237 3.63636H76.772L74.9254 8.69034C74.8478 8.90057 74.7521 9.07576 74.6385 9.21591C74.5249 9.35795 74.3932 9.46307 74.2436 9.53125C74.0959 9.60133 73.9302 9.63636 73.7464 9.63636Z" fill="#555555"/>
<path d="M106.239 78.0909C105.881 78.0909 105.567 77.9962 105.298 77.8068C105.029 77.6174 104.819 77.3532 104.668 77.0142C104.518 76.6752 104.443 76.2803 104.443 75.8295C104.443 75.3807 104.518 74.9877 104.668 74.6506C104.819 74.3116 105.03 74.0483 105.301 73.8608C105.572 73.6714 105.887 73.5767 106.247 73.5767C106.512 73.5767 106.733 73.6241 106.909 73.7188C107.085 73.8116 107.226 73.9271 107.332 74.0653C107.438 74.2036 107.521 74.3381 107.58 74.4688H107.625V72.1818H108.134V78H107.639V77.1903H107.58C107.521 77.3229 107.438 77.4593 107.33 77.5994C107.222 77.7377 107.079 77.8542 106.901 77.9489C106.724 78.0436 106.504 78.0909 106.239 78.0909ZM106.298 77.6278C106.58 77.6278 106.821 77.5511 107.02 77.3977C107.219 77.2424 107.37 77.0294 107.474 76.7585C107.58 76.4858 107.634 76.1733 107.634 75.821C107.634 75.4725 107.581 75.1648 107.477 74.8977C107.373 74.6288 107.222 74.4186 107.023 74.267C106.824 74.1136 106.582 74.0369 106.298 74.0369C106.007 74.0369 105.76 74.1165 105.56 74.2756C105.361 74.4328 105.209 74.6458 105.105 74.9148C105.003 75.1837 104.952 75.4858 104.952 75.821C104.952 76.16 105.004 76.4659 105.108 76.7386C105.212 77.0114 105.364 77.2282 105.562 77.3892C105.763 77.5483 106.009 77.6278 106.298 77.6278ZM111.338 78.0909C110.931 78.0909 110.579 77.9962 110.281 77.8068C109.984 77.6155 109.754 77.3513 109.591 77.0142C109.43 76.6752 109.349 76.285 109.349 75.8438C109.349 75.4044 109.43 75.0142 109.591 74.6733C109.754 74.3305 109.978 74.0625 110.264 73.8693C110.552 73.6742 110.884 73.5767 111.261 73.5767C111.498 73.5767 111.726 73.6203 111.946 73.7074C112.166 73.7926 112.363 73.9242 112.537 74.1023C112.713 74.2784 112.852 74.5009 112.955 74.7699C113.057 75.0369 113.108 75.3532 113.108 75.7188V75.9688H109.699V75.5227H112.591C112.591 75.2424 112.534 74.9905 112.42 74.767C112.309 74.5417 112.152 74.3636 111.952 74.233C111.753 74.1023 111.523 74.0369 111.261 74.0369C110.985 74.0369 110.741 74.1108 110.531 74.2585C110.321 74.4062 110.156 74.6013 110.037 74.8438C109.92 75.0862 109.86 75.3513 109.858 75.6392V75.9062C109.858 76.2528 109.918 76.5559 110.037 76.8153C110.158 77.0729 110.33 77.2727 110.551 77.4148C110.773 77.5568 111.035 77.6278 111.338 77.6278C111.545 77.6278 111.725 77.5956 111.881 77.5312C112.038 77.4669 112.17 77.3807 112.276 77.2727C112.384 77.1629 112.465 77.0426 112.52 76.9119L113 77.0682C112.934 77.2519 112.825 77.4214 112.673 77.5767C112.524 77.732 112.336 77.857 112.111 77.9517C111.887 78.0445 111.63 78.0909 111.338 78.0909ZM117.467 73.6364L115.874 78H115.334L113.74 73.6364H114.288L115.584 77.3324H115.624L116.919 73.6364H117.467ZM120.065 78.0909C119.657 78.0909 119.305 77.9962 119.008 77.8068C118.71 77.6155 118.48 77.3513 118.317 77.0142C118.156 76.6752 118.076 76.285 118.076 75.8438C118.076 75.4044 118.156 75.0142 118.317 74.6733C118.48 74.3305 118.705 74.0625 118.991 73.8693C119.279 73.6742 119.611 73.5767 119.988 73.5767C120.225 73.5767 120.453 73.6203 120.673 73.7074C120.892 73.7926 121.089 73.9242 121.263 74.1023C121.44 74.2784 121.579 74.5009 121.681 74.7699C121.783 75.0369 121.835 75.3532 121.835 75.7188V75.9688H118.425V75.5227H121.317C121.317 75.2424 121.261 74.9905 121.147 74.767C121.035 74.5417 120.879 74.3636 120.678 74.233C120.479 74.1023 120.249 74.0369 119.988 74.0369C119.711 74.0369 119.468 74.1108 119.258 74.2585C119.048 74.4062 118.883 74.6013 118.763 74.8438C118.646 75.0862 118.586 75.3513 118.585 75.6392V75.9062C118.585 76.2528 118.644 76.5559 118.763 76.8153C118.885 77.0729 119.056 77.2727 119.278 77.4148C119.499 77.5568 119.762 77.6278 120.065 77.6278C120.271 77.6278 120.452 77.5956 120.607 77.5312C120.764 77.4669 120.896 77.3807 121.002 77.2727C121.11 77.1629 121.192 77.0426 121.246 76.9119L121.727 77.0682C121.66 77.2519 121.551 77.4214 121.4 77.5767C121.25 77.732 121.063 77.857 120.837 77.9517C120.614 78.0445 120.356 78.0909 120.065 78.0909ZM123.455 72.1818V78H122.949V72.1818H123.455ZM126.489 78.0909C126.112 78.0909 125.778 77.9953 125.489 77.804C125.201 77.6127 124.975 77.3485 124.812 77.0114C124.65 76.6723 124.568 76.2812 124.568 75.8381C124.568 75.3911 124.65 74.9981 124.812 74.6591C124.975 74.3182 125.201 74.053 125.489 73.8636C125.778 73.6723 126.112 73.5767 126.489 73.5767C126.866 73.5767 127.198 73.6723 127.486 73.8636C127.774 74.0549 127.999 74.3201 128.162 74.6591C128.327 74.9981 128.409 75.3911 128.409 75.8381C128.409 76.2812 128.328 76.6723 128.165 77.0114C128.002 77.3485 127.776 77.6127 127.486 77.804C127.198 77.9953 126.866 78.0909 126.489 78.0909ZM126.489 77.6278C126.792 77.6278 127.048 77.5464 127.259 77.3835C127.469 77.2206 127.628 77.0038 127.736 76.733C127.846 76.4621 127.901 76.1638 127.901 75.8381C127.901 75.5123 127.846 75.2131 127.736 74.9403C127.628 74.6676 127.469 74.4489 127.259 74.2841C127.048 74.1193 126.792 74.0369 126.489 74.0369C126.188 74.0369 125.931 74.1193 125.719 74.2841C125.509 74.4489 125.348 74.6676 125.239 74.9403C125.131 75.2131 125.077 75.5123 125.077 75.8381C125.077 76.1638 125.131 76.4621 125.239 76.733C125.348 77.0038 125.509 77.2206 125.719 77.3835C125.929 77.5464 126.186 77.6278 126.489 77.6278ZM129.519 79.6364V73.6364H130.011V74.4688H130.07C130.131 74.3381 130.214 74.2045 130.32 74.0682C130.426 73.9299 130.567 73.8134 130.741 73.7188C130.917 73.6241 131.138 73.5767 131.406 73.5767C131.765 73.5767 132.08 73.6714 132.349 73.8608C132.62 74.0483 132.83 74.3116 132.979 74.6506C133.131 74.9877 133.207 75.3807 133.207 75.8295C133.207 76.2803 133.131 76.6752 132.979 77.0142C132.83 77.3532 132.62 77.6174 132.349 77.8068C132.08 77.9962 131.767 78.0909 131.411 78.0909C131.148 78.0909 130.927 78.0436 130.749 77.9489C130.573 77.8542 130.43 77.7377 130.32 77.5994C130.212 77.4593 130.129 77.3229 130.07 77.1903H130.025V79.6364H129.519ZM130.019 75.821C130.019 76.1733 130.071 76.4858 130.175 76.7585C130.281 77.0294 130.433 77.2424 130.63 77.3977C130.829 77.5511 131.069 77.6278 131.352 77.6278C131.641 77.6278 131.886 77.5483 132.085 77.3892C132.285 77.2282 132.438 77.0114 132.542 76.7386C132.648 76.4659 132.701 76.16 132.701 75.821C132.701 75.4858 132.649 75.1837 132.545 74.9148C132.442 74.6458 132.291 74.4328 132.09 74.2756C131.889 74.1165 131.643 74.0369 131.352 74.0369C131.067 74.0369 130.826 74.1136 130.627 74.267C130.428 74.4186 130.277 74.6288 130.173 74.8977C130.07 75.1648 130.019 75.4725 130.019 75.821Z" fill="#555555"/>
<path d="M95.2386 8.09091C94.8807 8.09091 94.5672 7.99621 94.2983 7.80682C94.0294 7.61742 93.8191 7.35322 93.6676 7.0142C93.518 6.67519 93.4432 6.2803 93.4432 5.82955C93.4432 5.38068 93.518 4.98769 93.6676 4.65057C93.8191 4.31155 94.0303 4.0483 94.3011 3.8608C94.572 3.6714 94.8873 3.5767 95.2472 3.5767C95.5123 3.5767 95.733 3.62405 95.9091 3.71875C96.0852 3.81155 96.2263 3.92708 96.3324 4.06534C96.4384 4.2036 96.5208 4.33807 96.5795 4.46875H96.625V2.18182H97.1335V8H96.6392V7.19034H96.5795C96.5208 7.32292 96.4375 7.45928 96.3295 7.59943C96.2216 7.73769 96.0786 7.85417 95.9006 7.94886C95.7244 8.04356 95.5038 8.09091 95.2386 8.09091ZM95.2983 7.62784C95.5805 7.62784 95.821 7.55114 96.0199 7.39773C96.2188 7.24242 96.3703 7.02936 96.4744 6.75852C96.5805 6.4858 96.6335 6.1733 96.6335 5.82102C96.6335 5.47254 96.5814 5.16477 96.4773 4.89773C96.3731 4.62879 96.2216 4.41856 96.0227 4.26705C95.8239 4.11364 95.5824 4.03693 95.2983 4.03693C95.0066 4.03693 94.7604 4.11648 94.5597 4.27557C94.3608 4.43277 94.2093 4.64583 94.1051 4.91477C94.0028 5.18371 93.9517 5.4858 93.9517 5.82102C93.9517 6.16004 94.0038 6.46591 94.108 6.73864C94.2121 7.01136 94.3636 7.22822 94.5625 7.3892C94.7633 7.5483 95.0085 7.62784 95.2983 7.62784ZM100.338 8.09091C99.9309 8.09091 99.5786 7.99621 99.2812 7.80682C98.9839 7.61553 98.7538 7.35133 98.5909 7.0142C98.4299 6.67519 98.3494 6.28504 98.3494 5.84375C98.3494 5.40436 98.4299 5.0142 98.5909 4.6733C98.7538 4.33049 98.9782 4.0625 99.2642 3.86932C99.5521 3.67424 99.8845 3.5767 100.261 3.5767C100.498 3.5767 100.726 3.62027 100.946 3.70739C101.166 3.79261 101.363 3.92424 101.537 4.10227C101.713 4.27841 101.852 4.50095 101.955 4.76989C102.057 5.03693 102.108 5.35322 102.108 5.71875V5.96875H98.6989V5.52273H101.591C101.591 5.24242 101.534 4.99053 101.42 4.76705C101.309 4.54167 101.152 4.36364 100.952 4.23295C100.753 4.10227 100.523 4.03693 100.261 4.03693C99.9848 4.03693 99.7415 4.1108 99.5312 4.25852C99.321 4.40625 99.1563 4.60133 99.0369 4.84375C98.9195 5.08617 98.8598 5.35133 98.858 5.6392V5.90625C98.858 6.25284 98.9176 6.55587 99.0369 6.81534C99.1581 7.07292 99.3295 7.27273 99.5511 7.41477C99.7727 7.55682 100.035 7.62784 100.338 7.62784C100.545 7.62784 100.725 7.59564 100.881 7.53125C101.038 7.46686 101.17 7.38068 101.276 7.27273C101.384 7.16288 101.465 7.04261 101.52 6.91193L102 7.06818C101.934 7.25189 101.825 7.4214 101.673 7.5767C101.524 7.73201 101.336 7.85701 101.111 7.9517C100.887 8.04451 100.63 8.09091 100.338 8.09091ZM105.018 3.63636V4.0767H102.873V3.63636H105.018ZM103.543 8V2.99716C103.543 2.76231 103.597 2.56439 103.705 2.40341C103.815 2.24242 103.958 2.12026 104.134 2.03693C104.31 1.9536 104.497 1.91193 104.694 1.91193C104.826 1.91193 104.936 1.9233 105.023 1.94602C105.112 1.96686 105.183 1.98769 105.234 2.00852L105.086 2.4517C105.048 2.44034 105.002 2.42708 104.947 2.41193C104.892 2.39678 104.823 2.3892 104.739 2.3892C104.52 2.3892 104.35 2.45076 104.231 2.57386C104.112 2.69697 104.052 2.87311 104.052 3.10227L104.049 8H103.543ZM106.033 8V3.63636H106.541V8H106.033ZM106.291 2.88636C106.187 2.88636 106.098 2.85133 106.024 2.78125C105.95 2.70928 105.913 2.62311 105.913 2.52273C105.913 2.42235 105.95 2.33712 106.024 2.26705C106.098 2.19508 106.187 2.15909 106.291 2.15909C106.395 2.15909 106.484 2.19508 106.558 2.26705C106.632 2.33712 106.669 2.42235 106.669 2.52273C106.669 2.62311 106.632 2.70928 106.558 2.78125C106.484 2.85133 106.395 2.88636 106.291 2.88636ZM108.384 5.27273V8H107.879V3.63636H108.37V4.32102H108.415C108.518 4.09754 108.677 3.91856 108.893 3.78409C109.111 3.64773 109.379 3.57955 109.7 3.57955C109.993 3.57955 110.251 3.6411 110.472 3.7642C110.696 3.88542 110.869 4.06439 110.992 4.30114C111.117 4.53788 111.18 4.8286 111.18 5.1733V8H110.674V5.20455C110.674 4.84659 110.574 4.56345 110.373 4.35511C110.174 4.14678 109.907 4.04261 109.572 4.04261C109.343 4.04261 109.139 4.09186 108.961 4.19034C108.783 4.28883 108.642 4.43087 108.538 4.61648C108.435 4.80019 108.384 5.01894 108.384 5.27273ZM114.276 8.09091C113.868 8.09091 113.516 7.99621 113.219 7.80682C112.921 7.61553 112.691 7.35133 112.528 7.0142C112.367 6.67519 112.287 6.28504 112.287 5.84375C112.287 5.40436 112.367 5.0142 112.528 4.6733C112.691 4.33049 112.916 4.0625 113.202 3.86932C113.49 3.67424 113.822 3.5767 114.199 3.5767C114.436 3.5767 114.664 3.62027 114.884 3.70739C115.103 3.79261 115.3 3.92424 115.474 4.10227C115.651 4.27841 115.79 4.50095 115.892 4.76989C115.994 5.03693 116.045 5.35322 116.045 5.71875V5.96875H112.636V5.52273H115.528C115.528 5.24242 115.472 4.99053 115.358 4.76705C115.246 4.54167 115.09 4.36364 114.889 4.23295C114.69 4.10227 114.46 4.03693 114.199 4.03693C113.922 4.03693 113.679 4.1108 113.469 4.25852C113.259 4.40625 113.094 4.60133 112.974 4.84375C112.857 5.08617 112.797 5.35133 112.795 5.6392V5.90625C112.795 6.25284 112.855 6.55587 112.974 6.81534C113.096 7.07292 113.267 7.27273 113.489 7.41477C113.71 7.55682 113.973 7.62784 114.276 7.62784C114.482 7.62784 114.663 7.59564 114.818 7.53125C114.975 7.46686 115.107 7.38068 115.213 7.27273C115.321 7.16288 115.402 7.04261 115.457 6.91193L115.938 7.06818C115.871 7.25189 115.762 7.4214 115.611 7.5767C115.461 7.73201 115.274 7.85701 115.048 7.9517C114.825 8.04451 114.567 8.09091 114.276 8.09091Z" fill="#555555"/>
<path d="M149.239 78.0909C148.881 78.0909 148.567 77.9962 148.298 77.8068C148.029 77.6174 147.819 77.3532 147.668 77.0142C147.518 76.6752 147.443 76.2803 147.443 75.8295C147.443 75.3807 147.518 74.9877 147.668 74.6506C147.819 74.3116 148.03 74.0483 148.301 73.8608C148.572 73.6714 148.887 73.5767 149.247 73.5767C149.512 73.5767 149.733 73.6241 149.909 73.7188C150.085 73.8116 150.226 73.9271 150.332 74.0653C150.438 74.2036 150.521 74.3381 150.58 74.4688H150.625V72.1818H151.134V78H150.639V77.1903H150.58C150.521 77.3229 150.438 77.4593 150.33 77.5994C150.222 77.7377 150.079 77.8542 149.901 77.9489C149.724 78.0436 149.504 78.0909 149.239 78.0909ZM149.298 77.6278C149.58 77.6278 149.821 77.5511 150.02 77.3977C150.219 77.2424 150.37 77.0294 150.474 76.7585C150.58 76.4858 150.634 76.1733 150.634 75.821C150.634 75.4725 150.581 75.1648 150.477 74.8977C150.373 74.6288 150.222 74.4186 150.023 74.267C149.824 74.1136 149.582 74.0369 149.298 74.0369C149.007 74.0369 148.76 74.1165 148.56 74.2756C148.361 74.4328 148.209 74.6458 148.105 74.9148C148.003 75.1837 147.952 75.4858 147.952 75.821C147.952 76.16 148.004 76.4659 148.108 76.7386C148.212 77.0114 148.364 77.2282 148.562 77.3892C148.763 77.5483 149.009 77.6278 149.298 77.6278ZM154.338 78.0909C153.931 78.0909 153.579 77.9962 153.281 77.8068C152.984 77.6155 152.754 77.3513 152.591 77.0142C152.43 76.6752 152.349 76.285 152.349 75.8438C152.349 75.4044 152.43 75.0142 152.591 74.6733C152.754 74.3305 152.978 74.0625 153.264 73.8693C153.552 73.6742 153.884 73.5767 154.261 73.5767C154.498 73.5767 154.726 73.6203 154.946 73.7074C155.166 73.7926 155.363 73.9242 155.537 74.1023C155.713 74.2784 155.852 74.5009 155.955 74.7699C156.057 75.0369 156.108 75.3532 156.108 75.7188V75.9688H152.699V75.5227H155.591C155.591 75.2424 155.534 74.9905 155.42 74.767C155.309 74.5417 155.152 74.3636 154.952 74.233C154.753 74.1023 154.523 74.0369 154.261 74.0369C153.985 74.0369 153.741 74.1108 153.531 74.2585C153.321 74.4062 153.156 74.6013 153.037 74.8438C152.92 75.0862 152.86 75.3513 152.858 75.6392V75.9062C152.858 76.2528 152.918 76.5559 153.037 76.8153C153.158 77.0729 153.33 77.2727 153.551 77.4148C153.773 77.5568 154.035 77.6278 154.338 77.6278C154.545 77.6278 154.725 77.5956 154.881 77.5312C155.038 77.4669 155.17 77.3807 155.276 77.2727C155.384 77.1629 155.465 77.0426 155.52 76.9119L156 77.0682C155.934 77.2519 155.825 77.4214 155.673 77.5767C155.524 77.732 155.336 77.857 155.111 77.9517C154.887 78.0445 154.63 78.0909 154.338 78.0909ZM157.728 72.1818V78H157.222V72.1818H157.728ZM159.072 78V73.6364H159.58V78H159.072ZM159.33 72.8864C159.226 72.8864 159.137 72.8513 159.063 72.7812C158.989 72.7093 158.952 72.6231 158.952 72.5227C158.952 72.4223 158.989 72.3371 159.063 72.267C159.137 72.1951 159.226 72.1591 159.33 72.1591C159.434 72.1591 159.523 72.1951 159.597 72.267C159.671 72.3371 159.708 72.4223 159.708 72.5227C159.708 72.6231 159.671 72.7093 159.597 72.7812C159.523 72.8513 159.434 72.8864 159.33 72.8864ZM164.295 73.6364L162.702 78H162.162L160.568 73.6364H161.116L162.412 77.3324H162.452L163.747 73.6364H164.295ZM166.893 78.0909C166.486 78.0909 166.133 77.9962 165.836 77.8068C165.539 77.6155 165.308 77.3513 165.146 77.0142C164.985 76.6752 164.904 76.285 164.904 75.8438C164.904 75.4044 164.985 75.0142 165.146 74.6733C165.308 74.3305 165.533 74.0625 165.819 73.8693C166.107 73.6742 166.439 73.5767 166.816 73.5767C167.053 73.5767 167.281 73.6203 167.501 73.7074C167.72 73.7926 167.917 73.9242 168.092 74.1023C168.268 74.2784 168.407 74.5009 168.509 74.7699C168.612 75.0369 168.663 75.3532 168.663 75.7188V75.9688H165.254V75.5227H168.146C168.146 75.2424 168.089 74.9905 167.975 74.767C167.863 74.5417 167.707 74.3636 167.506 74.233C167.308 74.1023 167.077 74.0369 166.816 74.0369C166.54 74.0369 166.296 74.1108 166.086 74.2585C165.876 74.4062 165.711 74.6013 165.592 74.8438C165.474 75.0862 165.415 75.3513 165.413 75.6392V75.9062C165.413 76.2528 165.472 76.5559 165.592 76.8153C165.713 77.0729 165.884 77.2727 166.106 77.4148C166.327 77.5568 166.59 77.6278 166.893 77.6278C167.099 77.6278 167.28 77.5956 167.435 77.5312C167.593 77.4669 167.724 77.3807 167.83 77.2727C167.938 77.1629 168.02 77.0426 168.075 76.9119L168.555 77.0682C168.488 77.2519 168.379 77.4214 168.228 77.5767C168.078 77.732 167.891 77.857 167.665 77.9517C167.442 78.0445 167.184 78.0909 166.893 78.0909ZM169.777 78V73.6364H170.268V74.3068H170.305C170.393 74.0871 170.544 73.91 170.76 73.7756C170.978 73.6392 171.224 73.571 171.499 73.571C171.54 73.571 171.587 73.572 171.638 73.5739C171.689 73.5758 171.732 73.5777 171.766 73.5795V74.0938C171.743 74.09 171.703 74.0843 171.646 74.0767C171.589 74.0691 171.528 74.0653 171.462 74.0653C171.234 74.0653 171.032 74.1136 170.854 74.2102C170.678 74.3049 170.538 74.4366 170.436 74.6051C170.334 74.7737 170.283 74.9659 170.283 75.1818V78H169.777Z" fill="#555555"/>
<circle cx="111.896" cy="42.4691" r="6.52728" fill="#999999"/>
<circle cx="170.527" cy="41.5273" r="6.52728" fill="#999999"/>
<circle cx="53.5273" cy="40.5273" r="6.52728" fill="#999999"/>
<path d="M97.4606 36.6364V30.6364H97.952V31.4688H98.0117C98.0723 31.3381 98.1556 31.2045 98.2617 31.0682C98.3678 30.9299 98.5079 30.8134 98.6822 30.7188C98.8583 30.6241 99.0799 30.5767 99.3469 30.5767C99.7068 30.5767 100.021 30.6714 100.29 30.8608C100.561 31.0483 100.771 31.3116 100.921 31.6506C101.072 31.9877 101.148 32.3807 101.148 32.8295C101.148 33.2803 101.072 33.6752 100.921 34.0142C100.771 34.3532 100.561 34.6174 100.29 34.8068C100.021 34.9962 99.7087 35.0909 99.3526 35.0909C99.0893 35.0909 98.8687 35.0436 98.6907 34.9489C98.5145 34.8542 98.3715 34.7377 98.2617 34.5994C98.1537 34.4593 98.0704 34.3229 98.0117 34.1903H97.9662V36.6364H97.4606ZM97.9606 32.821C97.9606 33.1733 98.0126 33.4858 98.1168 33.7585C98.2229 34.0294 98.3744 34.2424 98.5714 34.3977C98.7702 34.5511 99.0107 34.6278 99.2929 34.6278C99.5827 34.6278 99.827 34.5483 100.026 34.3892C100.227 34.2282 100.379 34.0114 100.483 33.7386C100.589 33.4659 100.642 33.16 100.642 32.821C100.642 32.4858 100.59 32.1837 100.486 31.9148C100.384 31.6458 100.232 31.4328 100.032 31.2756C99.8308 31.1165 99.5846 31.0369 99.2929 31.0369C99.0089 31.0369 98.7674 31.1136 98.5685 31.267C98.3697 31.4186 98.2181 31.6288 98.114 31.8977C98.0117 32.1648 97.9606 32.4725 97.9606 32.821ZM102.257 35V30.6364H102.749V31.3068H102.786C102.873 31.0871 103.024 30.91 103.24 30.7756C103.458 30.6392 103.704 30.571 103.979 30.571C104.021 30.571 104.067 30.572 104.118 30.5739C104.169 30.5758 104.212 30.5777 104.246 30.5795V31.0938C104.223 31.09 104.184 31.0843 104.127 31.0767C104.07 31.0691 104.008 31.0653 103.942 31.0653C103.715 31.0653 103.512 31.1136 103.334 31.2102C103.158 31.3049 103.019 31.4366 102.917 31.6051C102.814 31.7737 102.763 31.9659 102.763 32.1818V35H102.257ZM106.672 35.0909C106.295 35.0909 105.962 34.9953 105.672 34.804C105.384 34.6127 105.159 34.3485 104.996 34.0114C104.833 33.6723 104.752 33.2812 104.752 32.8381C104.752 32.3911 104.833 31.9981 104.996 31.6591C105.159 31.3182 105.384 31.053 105.672 30.8636C105.962 30.6723 106.295 30.5767 106.672 30.5767C107.049 30.5767 107.381 30.6723 107.669 30.8636C107.957 31.0549 108.183 31.3201 108.346 31.6591C108.51 31.9981 108.593 32.3911 108.593 32.8381C108.593 33.2812 108.511 33.6723 108.348 34.0114C108.185 34.3485 107.959 34.6127 107.669 34.804C107.381 34.9953 107.049 35.0909 106.672 35.0909ZM106.672 34.6278C106.975 34.6278 107.232 34.5464 107.442 34.3835C107.652 34.2206 107.811 34.0038 107.919 33.733C108.029 33.4621 108.084 33.1638 108.084 32.8381C108.084 32.5123 108.029 32.2131 107.919 31.9403C107.811 31.6676 107.652 31.4489 107.442 31.2841C107.232 31.1193 106.975 31.0369 106.672 31.0369C106.371 31.0369 106.114 31.1193 105.902 31.2841C105.692 31.4489 105.532 31.6676 105.422 31.9403C105.314 32.2131 105.26 32.5123 105.26 32.8381C105.26 33.1638 105.314 33.4621 105.422 33.733C105.532 34.0038 105.692 34.2206 105.902 34.3835C106.113 34.5464 106.369 34.6278 106.672 34.6278ZM109.808 35V29.1818H110.316V31.4688H110.362C110.419 31.3381 110.5 31.2036 110.606 31.0653C110.714 30.9271 110.855 30.8116 111.029 30.7188C111.206 30.6241 111.427 30.5767 111.694 30.5767C112.052 30.5767 112.367 30.6714 112.637 30.8608C112.908 31.0483 113.119 31.3116 113.271 31.6506C113.422 31.9877 113.498 32.3807 113.498 32.8295C113.498 33.2803 113.422 33.6752 113.271 34.0142C113.121 34.3532 112.911 34.6174 112.64 34.8068C112.371 34.9962 112.059 35.0909 111.703 35.0909C111.438 35.0909 111.216 35.0436 111.038 34.9489C110.862 34.8542 110.72 34.7377 110.612 34.5994C110.504 34.4593 110.421 34.3229 110.362 34.1903H110.299V35H109.808ZM110.308 32.821C110.308 33.1733 110.36 33.4858 110.464 33.7585C110.57 34.0294 110.722 34.2424 110.919 34.3977C111.118 34.5511 111.358 34.6278 111.64 34.6278C111.93 34.6278 112.175 34.5483 112.376 34.3892C112.577 34.2282 112.729 34.0114 112.833 33.7386C112.938 33.4659 112.99 33.16 112.99 32.821C112.99 32.4858 112.938 32.1837 112.833 31.9148C112.731 31.6458 112.58 31.4328 112.379 31.2756C112.178 31.1165 111.932 31.0369 111.64 31.0369C111.356 31.0369 111.115 31.1136 110.916 31.267C110.719 31.4186 110.568 31.6288 110.464 31.8977C110.36 32.1648 110.308 32.4725 110.308 32.821ZM115.115 29.1818V35H114.609V29.1818H115.115ZM118.217 35.0909C117.81 35.0909 117.457 34.9962 117.16 34.8068C116.863 34.6155 116.633 34.3513 116.47 34.0142C116.309 33.6752 116.228 33.285 116.228 32.8438C116.228 32.4044 116.309 32.0142 116.47 31.6733C116.633 31.3305 116.857 31.0625 117.143 30.8693C117.431 30.6742 117.763 30.5767 118.14 30.5767C118.377 30.5767 118.605 30.6203 118.825 30.7074C119.045 30.7926 119.242 30.9242 119.416 31.1023C119.592 31.2784 119.731 31.5009 119.833 31.7699C119.936 32.0369 119.987 32.3532 119.987 32.7188V32.9688H116.578V32.5227H119.47C119.47 32.2424 119.413 31.9905 119.299 31.767C119.188 31.5417 119.031 31.3636 118.831 31.233C118.632 31.1023 118.402 31.0369 118.14 31.0369C117.864 31.0369 117.62 31.1108 117.41 31.2585C117.2 31.4062 117.035 31.6013 116.916 31.8438C116.798 32.0862 116.739 32.3513 116.737 32.6392V32.9062C116.737 33.2528 116.796 33.5559 116.916 33.8153C117.037 34.0729 117.208 34.2727 117.43 34.4148C117.652 34.5568 117.914 34.6278 118.217 34.6278C118.423 34.6278 118.604 34.5956 118.76 34.5312C118.917 34.4669 119.048 34.3807 119.154 34.2727C119.262 34.1629 119.344 34.0426 119.399 33.9119L119.879 34.0682C119.813 34.2519 119.704 34.4214 119.552 34.5767C119.403 34.732 119.215 34.857 118.99 34.9517C118.766 35.0445 118.509 35.0909 118.217 35.0909ZM121.101 35V30.6364H121.593V31.3068H121.638C121.725 31.0814 121.87 30.9044 122.073 30.7756C122.277 30.6449 122.523 30.5795 122.809 30.5795C123.11 30.5795 123.357 30.6506 123.55 30.7926C123.745 30.9328 123.891 31.1259 123.988 31.3722H124.024C124.123 31.1297 124.283 30.9375 124.505 30.7955C124.728 30.6515 124.999 30.5795 125.317 30.5795C125.722 30.5795 126.042 30.7074 126.277 30.9631C126.512 31.2169 126.63 31.5881 126.63 32.0767V35H126.124V32.0767C126.124 31.732 126.036 31.4735 125.86 31.3011C125.684 31.1288 125.452 31.0426 125.164 31.0426C124.83 31.0426 124.574 31.1449 124.394 31.3494C124.214 31.554 124.124 31.8134 124.124 32.1278V35H123.607V32.0312C123.607 31.7358 123.524 31.4972 123.36 31.3153C123.195 31.1335 122.963 31.0426 122.664 31.0426C122.463 31.0426 122.282 31.0919 122.121 31.1903C121.962 31.2888 121.836 31.4261 121.743 31.6023C121.652 31.7765 121.607 31.9773 121.607 32.2045V35H121.101ZM98.0238 55.0909C97.6658 55.0909 97.3524 54.9962 97.0834 54.8068C96.8145 54.6174 96.6043 54.3532 96.4527 54.0142C96.3031 53.6752 96.2283 53.2803 96.2283 52.8295C96.2283 52.3807 96.3031 51.9877 96.4527 51.6506C96.6043 51.3116 96.8154 51.0483 97.0863 50.8608C97.3571 50.6714 97.6724 50.5767 98.0323 50.5767C98.2974 50.5767 98.5181 50.6241 98.6942 50.7188C98.8704 50.8116 99.0115 50.9271 99.1175 51.0653C99.2236 51.2036 99.306 51.3381 99.3647 51.4688H99.4101V49.1818H99.9187V55H99.4243V54.1903H99.3647C99.306 54.3229 99.2226 54.4593 99.1147 54.5994C99.0067 54.7377 98.8637 54.8542 98.6857 54.9489C98.5096 55.0436 98.2889 55.0909 98.0238 55.0909ZM98.0834 54.6278C98.3656 54.6278 98.6062 54.5511 98.805 54.3977C99.0039 54.2424 99.1554 54.0294 99.2596 53.7585C99.3656 53.4858 99.4187 53.1733 99.4187 52.821C99.4187 52.4725 99.3666 52.1648 99.2624 51.8977C99.1582 51.6288 99.0067 51.4186 98.8079 51.267C98.609 51.1136 98.3675 51.0369 98.0834 51.0369C97.7918 51.0369 97.5456 51.1165 97.3448 51.2756C97.1459 51.4328 96.9944 51.6458 96.8902 51.9148C96.788 52.1837 96.7368 52.4858 96.7368 52.821C96.7368 53.16 96.7889 53.4659 96.8931 53.7386C96.9973 54.0114 97.1488 54.2282 97.3476 54.3892C97.5484 54.5483 97.7937 54.6278 98.0834 54.6278ZM103.123 55.0909C102.716 55.0909 102.364 54.9962 102.066 54.8068C101.769 54.6155 101.539 54.3513 101.376 54.0142C101.215 53.6752 101.135 53.285 101.135 52.8438C101.135 52.4044 101.215 52.0142 101.376 51.6733C101.539 51.3305 101.763 51.0625 102.049 50.8693C102.337 50.6742 102.67 50.5767 103.046 50.5767C103.283 50.5767 103.511 50.6203 103.731 50.7074C103.951 50.7926 104.148 50.9242 104.322 51.1023C104.498 51.2784 104.637 51.5009 104.74 51.7699C104.842 52.0369 104.893 52.3532 104.893 52.7188V52.9688H101.484V52.5227H104.376C104.376 52.2424 104.319 51.9905 104.206 51.767C104.094 51.5417 103.938 51.3636 103.737 51.233C103.538 51.1023 103.308 51.0369 103.046 51.0369C102.77 51.0369 102.527 51.1108 102.316 51.2585C102.106 51.4062 101.941 51.6013 101.822 51.8438C101.705 52.0862 101.645 52.3513 101.643 52.6392V52.9062C101.643 53.2528 101.703 53.5559 101.822 53.8153C101.943 54.0729 102.115 54.2727 102.336 54.4148C102.558 54.5568 102.82 54.6278 103.123 54.6278C103.33 54.6278 103.511 54.5956 103.666 54.5312C103.823 54.4669 103.955 54.3807 104.061 54.2727C104.169 54.1629 104.25 54.0426 104.305 53.9119L104.785 54.0682C104.719 54.2519 104.61 54.4214 104.458 54.5767C104.309 54.732 104.121 54.857 103.896 54.9517C103.672 55.0445 103.415 55.0909 103.123 55.0909ZM107.803 50.6364V51.0767H105.658V50.6364H107.803ZM106.328 55V49.9972C106.328 49.7623 106.382 49.5644 106.49 49.4034C106.6 49.2424 106.743 49.1203 106.919 49.0369C107.096 48.9536 107.282 48.9119 107.479 48.9119C107.612 48.9119 107.721 48.9233 107.809 48.946C107.898 48.9669 107.968 48.9877 108.019 49.0085L107.871 49.4517C107.833 49.4403 107.787 49.4271 107.732 49.4119C107.677 49.3968 107.608 49.3892 107.524 49.3892C107.305 49.3892 107.135 49.4508 107.016 49.5739C106.897 49.697 106.837 49.8731 106.837 50.1023L106.834 55H106.328ZM108.818 55V50.6364H109.326V55H108.818ZM109.076 49.8864C108.972 49.8864 108.883 49.8513 108.809 49.7812C108.735 49.7093 108.698 49.6231 108.698 49.5227C108.698 49.4223 108.735 49.3371 108.809 49.267C108.883 49.1951 108.972 49.1591 109.076 49.1591C109.18 49.1591 109.27 49.1951 109.343 49.267C109.417 49.3371 109.454 49.4223 109.454 49.5227C109.454 49.6231 109.417 49.7093 109.343 49.7812C109.27 49.8513 109.18 49.8864 109.076 49.8864ZM111.169 52.2727V55H110.664V50.6364H111.155V51.321H111.201C111.303 51.0975 111.462 50.9186 111.678 50.7841C111.896 50.6477 112.165 50.5795 112.485 50.5795C112.778 50.5795 113.036 50.6411 113.257 50.7642C113.481 50.8854 113.654 51.0644 113.777 51.3011C113.902 51.5379 113.965 51.8286 113.965 52.1733V55H113.459V52.2045C113.459 51.8466 113.359 51.5634 113.158 51.3551C112.959 51.1468 112.692 51.0426 112.357 51.0426C112.128 51.0426 111.924 51.0919 111.746 51.1903C111.568 51.2888 111.427 51.4309 111.323 51.6165C111.221 51.8002 111.169 52.0189 111.169 52.2727ZM115.302 55V50.6364H115.811V55H115.302ZM115.561 49.8864C115.457 49.8864 115.368 49.8513 115.294 49.7812C115.22 49.7093 115.183 49.6231 115.183 49.5227C115.183 49.4223 115.22 49.3371 115.294 49.267C115.368 49.1951 115.457 49.1591 115.561 49.1591C115.665 49.1591 115.754 49.1951 115.828 49.267C115.902 49.3371 115.939 49.4223 115.939 49.5227C115.939 49.6231 115.902 49.7093 115.828 49.7812C115.754 49.8513 115.665 49.8864 115.561 49.8864ZM118.867 50.6364V51.0767H116.784V50.6364H118.867ZM117.435 49.5909H117.944V53.8608C117.944 54.0426 117.975 54.1856 118.037 54.2898C118.1 54.392 118.181 54.465 118.282 54.5085C118.382 54.5502 118.489 54.571 118.603 54.571C118.669 54.571 118.726 54.5672 118.773 54.5597C118.82 54.5502 118.862 54.5407 118.898 54.5312L119.006 54.9886C118.957 55.0076 118.896 55.0246 118.824 55.0398C118.752 55.0568 118.663 55.0653 118.557 55.0653C118.372 55.0653 118.193 55.0246 118.02 54.9432C117.85 54.8617 117.71 54.7405 117.6 54.5795C117.49 54.4186 117.435 54.2188 117.435 53.9801V49.5909ZM120.021 55V50.6364H120.529V55H120.021ZM120.279 49.8864C120.175 49.8864 120.086 49.8513 120.012 49.7812C119.939 49.7093 119.902 49.6231 119.902 49.5227C119.902 49.4223 119.939 49.3371 120.012 49.267C120.086 49.1951 120.175 49.1591 120.279 49.1591C120.384 49.1591 120.473 49.1951 120.546 49.267C120.62 49.3371 120.657 49.4223 120.657 49.5227C120.657 49.6231 120.62 49.7093 120.546 49.7812C120.473 49.8513 120.384 49.8864 120.279 49.8864ZM123.563 55.0909C123.186 55.0909 122.853 54.9953 122.563 54.804C122.275 54.6127 122.05 54.3485 121.887 54.0114C121.724 53.6723 121.642 53.2812 121.642 52.8381C121.642 52.3911 121.724 51.9981 121.887 51.6591C122.05 51.3182 122.275 51.053 122.563 50.8636C122.853 50.6723 123.186 50.5767 123.563 50.5767C123.94 50.5767 124.272 50.6723 124.56 50.8636C124.848 51.0549 125.073 51.3201 125.236 51.6591C125.401 51.9981 125.483 52.3911 125.483 52.8381C125.483 53.2812 125.402 53.6723 125.239 54.0114C125.076 54.3485 124.85 54.6127 124.56 54.804C124.272 54.9953 123.94 55.0909 123.563 55.0909ZM123.563 54.6278C123.866 54.6278 124.122 54.5464 124.333 54.3835C124.543 54.2206 124.702 54.0038 124.81 53.733C124.92 53.4621 124.975 53.1638 124.975 52.8381C124.975 52.5123 124.92 52.2131 124.81 51.9403C124.702 51.6676 124.543 51.4489 124.333 51.2841C124.122 51.1193 123.866 51.0369 123.563 51.0369C123.262 51.0369 123.005 51.1193 122.793 51.2841C122.583 51.4489 122.423 51.6676 122.313 51.9403C122.205 52.2131 122.151 52.5123 122.151 52.8381C122.151 53.1638 122.205 53.4621 122.313 53.733C122.423 54.0038 122.583 54.2206 122.793 54.3835C123.003 54.5464 123.26 54.6278 123.563 54.6278ZM127.099 52.2727V55H126.593V50.6364H127.085V51.321H127.13C127.233 51.0975 127.392 50.9186 127.608 50.7841C127.825 50.6477 128.094 50.5795 128.414 50.5795C128.708 50.5795 128.966 50.6411 129.187 50.7642C129.411 50.8854 129.584 51.0644 129.707 51.3011C129.832 51.5379 129.895 51.8286 129.895 52.1733V55H129.389V52.2045C129.389 51.8466 129.288 51.5634 129.088 51.3551C128.889 51.1468 128.622 51.0426 128.287 51.0426C128.057 51.0426 127.854 51.0919 127.676 51.1903C127.498 51.2888 127.357 51.4309 127.252 51.6165C127.15 51.8002 127.099 52.0189 127.099 52.2727Z" fill="#555555"/>
<path d="M185.434 44.0909C185.057 44.0909 184.724 43.9953 184.434 43.804C184.146 43.6127 183.921 43.3485 183.758 43.0114C183.595 42.6723 183.513 42.2812 183.513 41.8381C183.513 41.3911 183.595 40.9981 183.758 40.6591C183.921 40.3182 184.146 40.053 184.434 39.8636C184.724 39.6723 185.057 39.5767 185.434 39.5767C185.811 39.5767 186.143 39.6723 186.431 39.8636C186.719 40.0549 186.944 40.3201 187.107 40.6591C187.272 40.9981 187.354 41.3911 187.354 41.8381C187.354 42.2812 187.273 42.6723 187.11 43.0114C186.947 43.3485 186.721 43.6127 186.431 43.804C186.143 43.9953 185.811 44.0909 185.434 44.0909ZM185.434 43.6278C185.737 43.6278 185.994 43.5464 186.204 43.3835C186.414 43.2206 186.573 43.0038 186.681 42.733C186.791 42.4621 186.846 42.1638 186.846 41.8381C186.846 41.5123 186.791 41.2131 186.681 40.9403C186.573 40.6676 186.414 40.4489 186.204 40.2841C185.994 40.1193 185.737 40.0369 185.434 40.0369C185.133 40.0369 184.876 40.1193 184.664 40.2841C184.454 40.4489 184.294 40.6676 184.184 40.9403C184.076 41.2131 184.022 41.5123 184.022 41.8381C184.022 42.1638 184.076 42.4621 184.184 42.733C184.294 43.0038 184.454 43.2206 184.664 43.3835C184.874 43.5464 185.131 43.6278 185.434 43.6278ZM191.237 42.3324V39.6364H191.743V44H191.237V43.2756H191.197C191.095 43.4991 190.933 43.6856 190.712 43.8352C190.49 43.983 190.219 44.0568 189.899 44.0568C189.621 44.0568 189.374 43.9962 189.158 43.875C188.942 43.7519 188.772 43.572 188.649 43.3352C188.526 43.0985 188.464 42.8078 188.464 42.4631V39.6364H188.97V42.4318C188.97 42.7727 189.071 43.0473 189.271 43.2557C189.472 43.4621 189.73 43.5653 190.044 43.5653C190.241 43.5653 190.43 43.518 190.612 43.4233C190.794 43.3286 190.944 43.1903 191.061 43.0085C191.179 42.8248 191.237 42.5994 191.237 42.3324ZM194.8 39.6364V40.0767H192.718V39.6364H194.8ZM193.369 38.5909H193.877V42.8608C193.877 43.0426 193.908 43.1856 193.971 43.2898C194.033 43.392 194.115 43.465 194.215 43.5085C194.316 43.5502 194.423 43.571 194.536 43.571C194.603 43.571 194.659 43.5672 194.707 43.5597C194.754 43.5502 194.796 43.5407 194.832 43.5312L194.94 43.9886C194.89 44.0076 194.83 44.0246 194.758 44.0398C194.686 44.0568 194.597 44.0653 194.491 44.0653C194.305 44.0653 194.126 44.0246 193.954 43.9432C193.783 43.8617 193.643 43.7405 193.533 43.5795C193.424 43.4186 193.369 43.2188 193.369 42.9801V38.5909ZM197.607 44.0909C197.216 44.0909 196.876 43.9934 196.587 43.7983C196.299 43.6032 196.075 43.3362 195.916 42.9972C195.757 42.6581 195.678 42.2718 195.678 41.8381C195.678 41.4006 195.758 41.0114 195.919 40.6705C196.082 40.3295 196.307 40.0625 196.595 39.8693C196.883 39.6742 197.217 39.5767 197.598 39.5767C197.89 39.5767 198.154 39.6335 198.391 39.7472C198.627 39.8589 198.822 40.017 198.976 40.2216C199.131 40.4242 199.229 40.661 199.268 40.9318H198.757C198.704 40.6856 198.576 40.4754 198.374 40.3011C198.173 40.125 197.917 40.0369 197.607 40.0369C197.328 40.0369 197.082 40.1127 196.868 40.2642C196.654 40.4138 196.486 40.6231 196.365 40.892C196.246 41.1591 196.186 41.4687 196.186 41.821C196.186 42.1752 196.245 42.4886 196.362 42.7614C196.48 43.0322 196.644 43.2443 196.857 43.3977C197.071 43.5511 197.321 43.6278 197.607 43.6278C197.8 43.6278 197.976 43.5919 198.135 43.5199C198.296 43.446 198.43 43.3419 198.538 43.2074C198.648 43.0729 198.722 42.9129 198.76 42.7273H199.271C199.233 42.9905 199.14 43.2254 198.99 43.4318C198.842 43.6364 198.65 43.7973 198.413 43.9148C198.179 44.0322 197.91 44.0909 197.607 44.0909ZM202.051 44.0909C201.674 44.0909 201.341 43.9953 201.051 43.804C200.763 43.6127 200.538 43.3485 200.375 43.0114C200.212 42.6723 200.131 42.2812 200.131 41.8381C200.131 41.3911 200.212 40.9981 200.375 40.6591C200.538 40.3182 200.763 40.053 201.051 39.8636C201.341 39.6723 201.674 39.5767 202.051 39.5767C202.428 39.5767 202.76 39.6723 203.048 39.8636C203.336 40.0549 203.562 40.3201 203.724 40.6591C203.889 40.9981 203.972 41.3911 203.972 41.8381C203.972 42.2812 203.89 42.6723 203.727 43.0114C203.564 43.3485 203.338 43.6127 203.048 43.804C202.76 43.9953 202.428 44.0909 202.051 44.0909ZM202.051 43.6278C202.354 43.6278 202.611 43.5464 202.821 43.3835C203.031 43.2206 203.19 43.0038 203.298 42.733C203.408 42.4621 203.463 42.1638 203.463 41.8381C203.463 41.5123 203.408 41.2131 203.298 40.9403C203.19 40.6676 203.031 40.4489 202.821 40.2841C202.611 40.1193 202.354 40.0369 202.051 40.0369C201.75 40.0369 201.493 40.1193 201.281 40.2841C201.071 40.4489 200.911 40.6676 200.801 40.9403C200.693 41.2131 200.639 41.5123 200.639 41.8381C200.639 42.1638 200.693 42.4621 200.801 42.733C200.911 43.0038 201.071 43.2206 201.281 43.3835C201.491 43.5464 201.748 43.6278 202.051 43.6278ZM205.082 44V39.6364H205.573V40.3068H205.619C205.706 40.0814 205.851 39.9044 206.053 39.7756C206.258 39.6449 206.503 39.5795 206.789 39.5795C207.09 39.5795 207.337 39.6506 207.531 39.7926C207.726 39.9328 207.871 40.1259 207.968 40.3722H208.005C208.103 40.1297 208.263 39.9375 208.485 39.7955C208.709 39.6515 208.979 39.5795 209.298 39.5795C209.703 39.5795 210.023 39.7074 210.258 39.9631C210.493 40.2169 210.61 40.5881 210.61 41.0767V44H210.104V41.0767C210.104 40.732 210.016 40.4735 209.84 40.3011C209.664 40.1288 209.432 40.0426 209.144 40.0426C208.811 40.0426 208.554 40.1449 208.374 40.3494C208.194 40.554 208.104 40.8134 208.104 41.1278V44H207.587V41.0312C207.587 40.7358 207.505 40.4972 207.34 40.3153C207.175 40.1335 206.943 40.0426 206.644 40.0426C206.443 40.0426 206.263 40.0919 206.102 40.1903C205.942 40.2888 205.817 40.4261 205.724 40.6023C205.633 40.7765 205.587 40.9773 205.587 41.2045V44H205.082ZM213.713 44.0909C213.306 44.0909 212.954 43.9962 212.656 43.8068C212.359 43.6155 212.129 43.3513 211.966 43.0142C211.805 42.6752 211.724 42.285 211.724 41.8438C211.724 41.4044 211.805 41.0142 211.966 40.6733C212.129 40.3305 212.353 40.0625 212.639 39.8693C212.927 39.6742 213.259 39.5767 213.636 39.5767C213.873 39.5767 214.101 39.6203 214.321 39.7074C214.541 39.7926 214.738 39.9242 214.912 40.1023C215.088 40.2784 215.227 40.5009 215.33 40.7699C215.432 41.0369 215.483 41.3532 215.483 41.7188V41.9688H212.074V41.5227H214.966C214.966 41.2424 214.909 40.9905 214.795 40.767C214.684 40.5417 214.527 40.3636 214.327 40.233C214.128 40.1023 213.898 40.0369 213.636 40.0369C213.36 40.0369 213.116 40.1108 212.906 40.2585C212.696 40.4062 212.531 40.6013 212.412 40.8438C212.295 41.0862 212.235 41.3513 212.233 41.6392V41.9062C212.233 42.2528 212.293 42.5559 212.412 42.8153C212.533 43.0729 212.705 43.2727 212.926 43.4148C213.148 43.5568 213.41 43.6278 213.713 43.6278C213.92 43.6278 214.1 43.5956 214.256 43.5312C214.413 43.4669 214.545 43.3807 214.651 43.2727C214.759 43.1629 214.84 43.0426 214.895 42.9119L215.375 43.0682C215.309 43.2519 215.2 43.4214 215.048 43.5767C214.899 43.732 214.711 43.857 214.486 43.9517C214.262 44.0445 214.005 44.0909 213.713 44.0909Z" fill="#555555"/>
<path d="M7.87607 44.0909C7.48591 44.0909 7.14595 43.9934 6.85618 43.7983C6.5683 43.6032 6.34482 43.3362 6.18572 42.9972C6.02663 42.6581 5.94709 42.2718 5.94709 41.8381C5.94709 41.4006 6.02758 41.0114 6.18857 40.6705C6.35144 40.3295 6.57682 40.0625 6.8647 39.8693C7.15258 39.6742 7.48686 39.5767 7.86754 39.5767C8.15921 39.5767 8.42341 39.6335 8.66016 39.7472C8.8969 39.8589 9.09197 40.017 9.24538 40.2216C9.40069 40.4242 9.49822 40.661 9.538 40.9318H9.02663C8.9736 40.6856 8.84576 40.4754 8.64311 40.3011C8.44235 40.125 8.18667 40.0369 7.87607 40.0369C7.59766 40.0369 7.35144 40.1127 7.13743 40.2642C6.92341 40.4138 6.7558 40.6231 6.63459 40.892C6.51527 41.1591 6.45561 41.4687 6.45561 41.821C6.45561 42.1752 6.51432 42.4886 6.63175 42.7614C6.74917 43.0322 6.91394 43.2443 7.12607 43.3977C7.34008 43.5511 7.59008 43.6278 7.87607 43.6278C8.06925 43.6278 8.24538 43.5919 8.40447 43.5199C8.56546 43.446 8.69993 43.3419 8.80788 43.2074C8.91773 43.0729 8.9916 42.9129 9.02947 42.7273H9.54084C9.50296 42.9905 9.40921 43.2254 9.25959 43.4318C9.11186 43.6364 8.91963 43.7973 8.68288 43.9148C8.44804 44.0322 8.1791 44.0909 7.87607 44.0909ZM11.1303 41.2727V44H10.6246V38.1818H11.1303V40.321H11.1758C11.2781 40.0956 11.4362 39.9157 11.6502 39.7812C11.8661 39.6468 12.1388 39.5795 12.4684 39.5795C12.7638 39.5795 13.0233 39.6402 13.2468 39.7614C13.4703 39.8826 13.6445 40.0616 13.7695 40.2983C13.8945 40.535 13.957 40.8267 13.957 41.1733V44H13.4485V41.2045C13.4485 40.8447 13.3481 40.5616 13.1474 40.3551C12.9485 40.1468 12.6796 40.0426 12.3406 40.0426C12.1076 40.0426 11.9002 40.0919 11.7184 40.1903C11.5366 40.2888 11.3926 40.4309 11.2866 40.6165C11.1824 40.8002 11.1303 41.0189 11.1303 41.2727ZM16.5075 44.0994C16.2442 44.0994 16.0037 44.0483 15.7859 43.946C15.5681 43.8419 15.3948 43.6922 15.266 43.4972C15.1372 43.3002 15.0728 43.0616 15.0728 42.7812C15.0728 42.5653 15.1135 42.3835 15.195 42.2358C15.2764 42.0881 15.3919 41.9669 15.5415 41.8722C15.6912 41.7775 15.8683 41.7027 16.0728 41.6477C16.2773 41.5928 16.5027 41.5502 16.7489 41.5199C16.9933 41.4896 17.1997 41.4631 17.3683 41.4403C17.5387 41.4176 17.6684 41.3816 17.7575 41.3324C17.8465 41.2831 17.891 41.2036 17.891 41.0938V40.9915C17.891 40.6941 17.802 40.4602 17.6239 40.2898C17.4478 40.1174 17.194 40.0312 16.8626 40.0312C16.5482 40.0312 16.2915 40.1004 16.0927 40.2386C15.8957 40.3769 15.7575 40.5398 15.6779 40.7273L15.1978 40.554C15.2963 40.3153 15.4326 40.125 15.6069 39.983C15.7811 39.839 15.9762 39.7358 16.1921 39.6733C16.408 39.6089 16.6268 39.5767 16.8484 39.5767C17.015 39.5767 17.1883 39.5985 17.3683 39.642C17.5501 39.6856 17.7186 39.7614 17.8739 39.8693C18.0292 39.9754 18.1552 40.1241 18.2518 40.3153C18.3484 40.5047 18.3967 40.7453 18.3967 41.0369V44H17.891V43.3097H17.8597C17.7991 43.4384 17.7092 43.5634 17.5898 43.6847C17.4705 43.8059 17.3209 43.9053 17.141 43.983C16.9611 44.0606 16.7499 44.0994 16.5075 44.0994ZM16.5756 43.6364C16.8446 43.6364 17.0775 43.5767 17.2745 43.4574C17.4715 43.3381 17.623 43.1799 17.729 42.983C17.837 42.7841 17.891 42.5653 17.891 42.3267V41.696C17.8531 41.732 17.7897 41.7642 17.7006 41.7926C17.6135 41.821 17.5122 41.8466 17.3967 41.8693C17.283 41.8902 17.1694 41.9081 17.0558 41.9233C16.9421 41.9384 16.8398 41.9517 16.7489 41.9631C16.5027 41.9934 16.2925 42.0407 16.1183 42.1051C15.944 42.1695 15.8105 42.2585 15.7177 42.3722C15.6249 42.4839 15.5785 42.6278 15.5785 42.804C15.5785 43.0691 15.6732 43.2746 15.8626 43.4205C16.052 43.5644 16.2897 43.6364 16.5756 43.6364ZM20.2475 38.1818V44H19.7418V38.1818H20.2475ZM22.0913 38.1818V44H21.5856V38.1818H22.0913ZM25.1935 44.0909C24.7863 44.0909 24.4341 43.9962 24.1367 43.8068C23.8394 43.6155 23.6093 43.3513 23.4464 43.0142C23.2854 42.6752 23.2049 42.285 23.2049 41.8438C23.2049 41.4044 23.2854 41.0142 23.4464 40.6733C23.6093 40.3305 23.8337 40.0625 24.1197 39.8693C24.4076 39.6742 24.7399 39.5767 25.1168 39.5767C25.3536 39.5767 25.5818 39.6203 25.8015 39.7074C26.0212 39.7926 26.2182 39.9242 26.3924 40.1023C26.5685 40.2784 26.7077 40.5009 26.81 40.7699C26.9123 41.0369 26.9634 41.3532 26.9634 41.7188V41.9688H23.5543V41.5227H26.4464C26.4464 41.2424 26.3896 40.9905 26.2759 40.767C26.1642 40.5417 26.0079 40.3636 25.8072 40.233C25.6083 40.1023 25.3782 40.0369 25.1168 40.0369C24.8403 40.0369 24.5969 40.1108 24.3867 40.2585C24.1765 40.4062 24.0117 40.6013 23.8924 40.8438C23.775 41.0862 23.7153 41.3513 23.7134 41.6392V41.9062C23.7134 42.2528 23.7731 42.5559 23.8924 42.8153C24.0136 43.0729 24.185 43.2727 24.4066 43.4148C24.6282 43.5568 24.8905 43.6278 25.1935 43.6278C25.4 43.6278 25.5808 43.5956 25.7362 43.5312C25.8933 43.4669 26.025 43.3807 26.131 43.2727C26.239 43.1629 26.3204 43.0426 26.3754 42.9119L26.8555 43.0682C26.7892 43.2519 26.6803 43.4214 26.5288 43.5767C26.3791 43.732 26.1916 43.857 25.9663 43.9517C25.7428 44.0445 25.4852 44.0909 25.1935 44.0909ZM28.5835 41.2727V44H28.0778V39.6364H28.5692V40.321H28.6147C28.717 40.0975 28.8761 39.9186 29.092 39.7841C29.3098 39.6477 29.5787 39.5795 29.8988 39.5795C30.1924 39.5795 30.4499 39.6411 30.6715 39.7642C30.895 39.8854 31.0683 40.0644 31.1914 40.3011C31.3164 40.5379 31.3789 40.8286 31.3789 41.1733V44H30.8732V41.2045C30.8732 40.8466 30.7728 40.5634 30.5721 40.3551C30.3732 40.1468 30.1062 40.0426 29.771 40.0426C29.5418 40.0426 29.3382 40.0919 29.1602 40.1903C28.9821 40.2888 28.841 40.4309 28.7369 40.6165C28.6346 40.8002 28.5835 41.0189 28.5835 41.2727ZM34.3754 45.7273C34.078 45.7273 33.8176 45.6884 33.5941 45.6108C33.3706 45.535 33.1822 45.4309 33.0288 45.2983C32.8754 45.1657 32.756 45.017 32.6708 44.8523L33.0856 44.5795C33.1481 44.6894 33.2314 44.7973 33.3356 44.9034C33.4416 45.0095 33.579 45.0975 33.7475 45.1676C33.918 45.2377 34.1272 45.2727 34.3754 45.2727C34.7617 45.2727 35.0733 45.1761 35.31 44.983C35.5487 44.7898 35.668 44.4896 35.668 44.0824V43.0994H35.6225C35.5638 43.232 35.4795 43.3646 35.3697 43.4972C35.2598 43.6278 35.1159 43.7367 34.9379 43.8239C34.7617 43.911 34.543 43.9545 34.2816 43.9545C33.9331 43.9545 33.6235 43.8684 33.3526 43.696C33.0837 43.5237 32.8716 43.2775 32.7163 42.9574C32.5629 42.6354 32.4862 42.2519 32.4862 41.8068C32.4862 41.3655 32.561 40.9773 32.7106 40.642C32.8621 40.3068 33.0733 40.0455 33.3441 39.858C33.6149 39.6705 33.9303 39.5767 34.2901 39.5767C34.5572 39.5767 34.7788 39.6241 34.9549 39.7188C35.131 39.8116 35.2721 39.9271 35.3782 40.0653C35.4862 40.2036 35.5704 40.3381 35.631 40.4688H35.6822V39.6364H36.1765V44.1136C36.1765 44.483 36.0979 44.7869 35.9407 45.0256C35.7835 45.2642 35.5695 45.4403 35.2987 45.554C35.0278 45.6695 34.7201 45.7273 34.3754 45.7273ZM34.3413 43.4915C34.6216 43.4915 34.8612 43.4242 35.06 43.2898C35.2589 43.1534 35.4113 42.9583 35.5174 42.7045C35.6235 42.4508 35.6765 42.1487 35.6765 41.7983C35.6765 41.4574 35.6244 41.1553 35.5202 40.892C35.4161 40.6269 35.2646 40.4186 35.0657 40.267C34.8687 40.1136 34.6272 40.0369 34.3413 40.0369C34.0496 40.0369 33.8034 40.1155 33.6026 40.2727C33.4019 40.4299 33.2504 40.642 33.1481 40.9091C33.0458 41.1742 32.9947 41.4706 32.9947 41.7983C32.9947 42.1316 33.0468 42.4261 33.1509 42.6818C33.2551 42.9356 33.4076 43.1345 33.6083 43.2784C33.8091 43.4205 34.0534 43.4915 34.3413 43.4915ZM39.2795 44.0909C38.8723 44.0909 38.52 43.9962 38.2227 43.8068C37.9253 43.6155 37.6952 43.3513 37.5323 43.0142C37.3713 42.6752 37.2908 42.285 37.2908 41.8438C37.2908 41.4044 37.3713 41.0142 37.5323 40.6733C37.6952 40.3305 37.9196 40.0625 38.2056 39.8693C38.4935 39.6742 38.8259 39.5767 39.2028 39.5767C39.4395 39.5767 39.6677 39.6203 39.8874 39.7074C40.1071 39.7926 40.3041 39.9242 40.4783 40.1023C40.6545 40.2784 40.7937 40.5009 40.896 40.7699C40.9982 41.0369 41.0494 41.3532 41.0494 41.7188V41.9688H37.6403V41.5227H40.5323C40.5323 41.2424 40.4755 40.9905 40.3619 40.767C40.2501 40.5417 40.0939 40.3636 39.8931 40.233C39.6942 40.1023 39.4641 40.0369 39.2028 40.0369C38.9263 40.0369 38.6829 40.1108 38.4727 40.2585C38.2624 40.4062 38.0977 40.6013 37.9783 40.8438C37.8609 41.0862 37.8013 41.3513 37.7994 41.6392V41.9062C37.7994 42.2528 37.859 42.5559 37.9783 42.8153C38.0996 43.0729 38.271 43.2727 38.4925 43.4148C38.7141 43.5568 38.9764 43.6278 39.2795 43.6278C39.4859 43.6278 39.6668 43.5956 39.8221 43.5312C39.9793 43.4669 40.1109 43.3807 40.217 43.2727C40.3249 43.1629 40.4064 43.0426 40.4613 42.9119L40.9414 43.0682C40.8751 43.2519 40.7662 43.4214 40.6147 43.5767C40.4651 43.732 40.2776 43.857 40.0522 43.9517C39.8287 44.0445 39.5711 44.0909 39.2795 44.0909Z" fill="#555555"/>
<line x1="84.1792" y1="14.4018" x2="84.1792" y2="68.5783" stroke="#999999" stroke-width="0.7" stroke-dasharray="1.4 1.4"/>
<line x1="140.35" y1="16" x2="140.35" y2="69" stroke="#999999" stroke-width="0.7" stroke-dasharray="1.4 1.4"/>
<path d="M140.875 76L140.875 78.25C138.147 78.25 137.139 77.4587 136 76C136 78.7944 136.927 81.625 140.875 81.625L140.875 83.875L145 79.9375L140.875 76Z" stroke="#555555" stroke-width="0.5" stroke-linejoin="round"/>
</svg>
