<svg width="245" height="155" viewBox="0 0 245 155" fill="none" xmlns="http://www.w3.org/2000/svg">
<path d="M12.7887 69.1506L0.577349 48L12.7887 26.8494L37.2113 26.8494L49.4226 48L37.2113 69.1506L12.7887 69.1506Z" stroke="#292562"/>
<path d="M51.7887 128.151L39.5773 107L51.7887 85.8494L76.2113 85.8494L88.4226 107L76.2113 128.151L51.7887 128.151Z" stroke="#292562"/>
<path d="M51.7887 46.1506L39.5773 25L51.7887 3.84936L76.2113 3.84936L88.4226 25L76.2113 46.1506L51.7887 46.1506Z" stroke="#292562"/>
<path d="M83 89L93 71.6795L113 71.6795L123 89L113 106.321L93 106.321L83 89Z" fill="#FFDD06"/>
<path d="M122 66L132 48.6795L152 48.6795L162 66L152 83.3205L132 83.3205L122 66Z" fill="#FFDD06"/>
<path d="M161 89L171 71.6795L191 71.6795L201 89L191 106.321L171 106.321L161 89Z" fill="#FFDD06"/>
<path d="M207.789 88.8013L195.577 67.6506L207.789 46.5L232.211 46.5L244.423 67.6506L232.211 88.8013H207.789Z" stroke="#292562"/>
<path d="M90.7887 69.1506L78.5773 48L90.7887 26.8494L115.211 26.8494L127.423 48L115.211 69.1506L90.7887 69.1506Z" stroke="#292562"/>
<path d="M44 66L54 48.6795L74 48.6795L84 66L74 83.3205L54 83.3205L44 66Z" fill="#FFDD06"/>
<path d="M90.7887 151.151L78.5773 130L90.7887 108.849L115.211 108.849L127.423 130L115.211 151.151L90.7887 151.151Z" stroke="#292562"/>
<path d="M129.789 128.151L117.577 107L129.789 85.8494L154.211 85.8494L166.423 107L154.211 128.151L129.789 128.151Z" stroke="#292562"/>
<path d="M168.789 151.151L156.577 130L168.789 108.849L193.211 108.849L205.423 130L193.211 151.151L168.789 151.151Z" stroke="#292562"/>
<path d="M200 109L210 91.6795L230 91.6795L240 109L230 126.321L210 126.321L200 109Z" fill="#FFDD06"/>
</svg>
