<svg width="245" height="165" viewBox="0 0 245 165" fill="none" xmlns="http://www.w3.org/2000/svg">
<path d="M12.7887 69.1506L0.577349 48L12.7887 26.8494L37.2113 26.8494L49.4226 48L37.2113 69.1506L12.7887 69.1506Z" fill="white" stroke="#292562"/>
<path d="M51.7887 138.151L39.5773 117L51.7887 95.8494L76.2113 95.8494L88.4226 117L76.2113 138.151L51.7887 138.151Z" fill="white" stroke="#292562"/>
<path d="M51.7887 46.1506L39.5773 25L51.7887 3.84936L76.2113 3.84936L88.4226 25L76.2113 46.1506L51.7887 46.1506Z" fill="white" stroke="#292562"/>
<path d="M78 94L90.5 72.3494L115.5 72.3494L128 94L115.5 115.651L90.5 115.651L78 94Z" fill="#FFDD06"/>
<path d="M117 71L129.5 49.3494L154.5 49.3494L167 71L154.5 92.6506L129.5 92.6506L117 71Z" fill="#FFDD06"/>
<path d="M156 94L168.5 72.3494L193.5 72.3494L206 94L193.5 115.651L168.5 115.651L156 94Z" fill="#FFDD06"/>
<path d="M207.789 92.1506L195.577 71L207.789 49.8494L232.211 49.8494L244.423 71L232.211 92.1506L207.789 92.1506Z" fill="white" stroke="#292562"/>
<path d="M90.7887 69.1506L78.5773 48L90.7887 26.8494L115.211 26.8494L127.423 48L115.211 69.1506L90.7887 69.1506Z" fill="white" stroke="#292562"/>
<path d="M39 71L51.5 49.3494L76.5 49.3494L89 71L76.5 92.6506L51.5 92.6506L39 71Z" fill="#FFDD06"/>
<path d="M90.7887 161.151L78.5773 140L90.7887 118.849L115.211 118.849L127.423 140L115.211 161.151L90.7887 161.151Z" fill="white" stroke="#292562"/>
<path d="M129.789 138.151L117.577 117L129.789 95.8494L154.211 95.8494L166.423 117L154.211 138.151L129.789 138.151Z" fill="white" stroke="#292562"/>
<path d="M168.789 161.151L156.577 140L168.789 118.849L193.211 118.849L205.423 140L193.211 161.151L168.789 161.151Z" fill="white" stroke="#292562"/>
<path d="M195 117L207.5 95.3494L232.5 95.3494L245 117L232.5 138.651L207.5 138.651L195 117Z" fill="#FFDD06"/>
</svg>
