<svg width="298" height="182" viewBox="0 0 298 182" fill="none" xmlns="http://www.w3.org/2000/svg">
<path d="M283.842 107.45L295.999 131.765" stroke="#FCDC4A" stroke-width="2" stroke-linecap="round"/>
<path d="M239.917 131.765L252.074 156.08" stroke="#FCDC4A" stroke-width="2" stroke-linecap="round"/>
<path d="M251.999 107.218H283.999" stroke="#FCDC4A" stroke-width="2" stroke-linecap="round"/>
<line x1="296.437" y1="132.66" x2="284.736" y2="155.643" stroke="#FCDC4A" stroke-width="2" stroke-linecap="round"/>
<line x1="252.512" y1="108.345" x2="240.811" y2="131.328" stroke="#FCDC4A" stroke-width="2" stroke-linecap="round"/>
<line x1="251.999" y1="155.218" x2="283.999" y2="155.218" stroke="#FCDC4A" stroke-width="2"/>
<path d="M283.375 54.4502L295.532 78.7652" stroke="#292562" stroke-linecap="round"/>
<path d="M239.45 78.7651L251.608 103.08" stroke="#292562" stroke-linecap="round"/>
<path d="M251.532 54.2183H283.532" stroke="#292562" stroke-linecap="round"/>
<line x1="295.751" y1="78.9874" x2="283.597" y2="102.861" stroke="#292562" stroke-linecap="round"/>
<line x1="251.826" y1="54.6724" x2="239.672" y2="78.5465" stroke="#292562" stroke-linecap="round"/>
<line x1="251.532" y1="102.718" x2="283.532" y2="102.718" stroke="#292562"/>
<path d="M93.375 54.4502L105.532 78.7652" stroke="#FCDC4A" stroke-width="2" stroke-linecap="round"/>
<path d="M49.4512 78.7651L61.6087 103.08" stroke="#FCDC4A" stroke-width="2" stroke-linecap="round"/>
<path d="M61.5332 54.2183H93.5332" stroke="#FCDC4A" stroke-width="2" stroke-linecap="round"/>
<line x1="105.971" y1="79.6598" x2="94.2703" y2="102.643" stroke="#FCDC4A" stroke-width="2" stroke-linecap="round"/>
<line x1="62.0449" y1="55.3448" x2="50.3445" y2="78.3278" stroke="#FCDC4A" stroke-width="2" stroke-linecap="round"/>
<line x1="61.5332" y1="102.218" x2="93.5332" y2="102.218" stroke="#FCDC4A" stroke-width="2"/>
<path d="M141.375 28.4502L153.532 52.7652" stroke="#292562" stroke-linecap="round"/>
<path d="M97.4512 52.7651L109.609 77.0801" stroke="#292562" stroke-linecap="round"/>
<path d="M109.533 28.2183H141.533" stroke="#292562" stroke-linecap="round"/>
<line x1="153.752" y1="52.9874" x2="141.598" y2="76.8614" stroke="#292562" stroke-linecap="round"/>
<line x1="109.826" y1="28.6724" x2="97.6721" y2="52.5465" stroke="#292562" stroke-linecap="round"/>
<line x1="109.533" y1="76.7183" x2="141.533" y2="76.7183" stroke="#292562"/>
<path d="M189.375 54.4502L201.532 78.7652" stroke="#FCDC4A" stroke-width="2" stroke-linecap="round"/>
<path d="M145.451 78.7651L157.609 103.08" stroke="#FCDC4A" stroke-width="2" stroke-linecap="round"/>
<path d="M157.533 54.2183H189.533" stroke="#FCDC4A" stroke-width="2" stroke-linecap="round"/>
<line x1="201.971" y1="79.6598" x2="190.27" y2="102.643" stroke="#FCDC4A" stroke-width="2" stroke-linecap="round"/>
<line x1="158.045" y1="55.3448" x2="146.345" y2="78.3278" stroke="#FCDC4A" stroke-width="2" stroke-linecap="round"/>
<line x1="157.533" y1="102.218" x2="189.533" y2="102.218" stroke="#FCDC4A" stroke-width="2"/>
<path d="M236.375 80.4502L248.532 104.765" stroke="#FCDC4A" stroke-width="2" stroke-linecap="round"/>
<path d="M192.451 104.765L204.609 129.08" stroke="#FCDC4A" stroke-width="2" stroke-linecap="round"/>
<path d="M204.533 80.2183H236.533" stroke="#FCDC4A" stroke-width="2" stroke-linecap="round"/>
<line x1="248.97" y1="105.66" x2="237.269" y2="128.643" stroke="#FCDC4A" stroke-width="2" stroke-linecap="round"/>
<line x1="205.045" y1="81.3448" x2="193.345" y2="104.328" stroke="#FCDC4A" stroke-width="2" stroke-linecap="round"/>
<line x1="204.533" y1="128.218" x2="236.533" y2="128.218" stroke="#FCDC4A" stroke-width="2"/>
<path d="M141.375 80.4502L153.532 104.765" stroke="#FCDC4A" stroke-width="2" stroke-linecap="round"/>
<path d="M97.4512 104.765L109.609 129.08" stroke="#FCDC4A" stroke-width="2" stroke-linecap="round"/>
<path d="M109.533 80.2183H141.533" stroke="#FCDC4A" stroke-width="2" stroke-linecap="round"/>
<line x1="153.971" y1="105.66" x2="142.27" y2="128.643" stroke="#FCDC4A" stroke-width="2" stroke-linecap="round"/>
<line x1="110.045" y1="81.3448" x2="98.3445" y2="104.328" stroke="#FCDC4A" stroke-width="2" stroke-linecap="round"/>
<line x1="109.533" y1="128.218" x2="141.533" y2="128.218" stroke="#FCDC4A" stroke-width="2"/>
<path d="M236.375 132.45L248.532 156.765" stroke="#292562" stroke-linecap="round"/>
<path d="M192.451 156.765L204.609 181.08" stroke="#292562" stroke-linecap="round"/>
<path d="M204.533 132.218H236.533" stroke="#292562" stroke-linecap="round"/>
<line x1="248.751" y1="156.987" x2="236.597" y2="180.861" stroke="#292562" stroke-linecap="round"/>
<line x1="204.826" y1="132.672" x2="192.672" y2="156.546" stroke="#292562" stroke-linecap="round"/>
<line x1="204.533" y1="180.718" x2="236.533" y2="180.718" stroke="#292562"/>
<path d="M93.375 107.45L105.532 131.765" stroke="#292562" stroke-linecap="round"/>
<path d="M49.4512 131.765L61.6087 156.08" stroke="#292562" stroke-linecap="round"/>
<path d="M61.5332 107.218H93.5332" stroke="#292562" stroke-linecap="round"/>
<line x1="105.752" y1="131.987" x2="93.5979" y2="155.861" stroke="#292562" stroke-linecap="round"/>
<line x1="61.8262" y1="107.672" x2="49.6721" y2="131.546" stroke="#292562" stroke-linecap="round"/>
<line x1="61.5332" y1="155.718" x2="93.5332" y2="155.718" stroke="#292562"/>
<path d="M188.375 107.45L200.532 131.765" stroke="#292562" stroke-linecap="round"/>
<path d="M144.451 131.765L156.609 156.08" stroke="#292562" stroke-linecap="round"/>
<path d="M156.533 107.218H188.533" stroke="#292562" stroke-linecap="round"/>
<line x1="200.752" y1="131.987" x2="188.598" y2="155.861" stroke="#292562" stroke-linecap="round"/>
<line x1="156.826" y1="107.672" x2="144.672" y2="131.546" stroke="#292562" stroke-linecap="round"/>
<line x1="156.533" y1="155.718" x2="188.533" y2="155.718" stroke="#292562"/>
<path d="M141.375 132.45L153.532 156.765" stroke="#292562" stroke-linecap="round"/>
<path d="M97.4512 156.765L109.609 181.08" stroke="#292562" stroke-linecap="round"/>
<path d="M109.533 132.218H141.533" stroke="#292562" stroke-linecap="round"/>
<line x1="153.752" y1="156.987" x2="141.598" y2="180.861" stroke="#292562" stroke-linecap="round"/>
<line x1="109.826" y1="132.672" x2="97.6721" y2="156.546" stroke="#292562" stroke-linecap="round"/>
<line x1="109.533" y1="180.718" x2="141.533" y2="180.718" stroke="#292562"/>
<path d="M94.375 1.4502L106.532 25.7652" stroke="#292562" stroke-linecap="round"/>
<path d="M50.4512 25.7651L62.6087 50.0801" stroke="#292562" stroke-linecap="round"/>
<path d="M62.5332 1.21826H94.5332" stroke="#292562" stroke-linecap="round"/>
<line x1="106.752" y1="25.9874" x2="94.5979" y2="49.8614" stroke="#292562" stroke-linecap="round"/>
<line x1="62.8262" y1="1.67242" x2="50.6721" y2="25.5465" stroke="#292562" stroke-linecap="round"/>
<line x1="62.5332" y1="49.7183" x2="94.5332" y2="49.7183" stroke="#292562"/>
<path d="M45.375 28.4502L57.5325 52.7652" stroke="#292562" stroke-linecap="round"/>
<path d="M1.45117 52.7651L13.6087 77.0801" stroke="#292562" stroke-linecap="round"/>
<path d="M13.5332 28.2183H45.5332" stroke="#292562" stroke-linecap="round"/>
<line x1="57.7519" y1="52.9874" x2="45.5979" y2="76.8614" stroke="#292562" stroke-linecap="round"/>
<line x1="13.8262" y1="28.6724" x2="1.67209" y2="52.5465" stroke="#292562" stroke-linecap="round"/>
<line x1="13.5332" y1="76.7183" x2="45.5332" y2="76.7183" stroke="#292562"/>
</svg>
