<svg width="206" height="96" viewBox="0 0 206 96" fill="none" xmlns="http://www.w3.org/2000/svg">
<path d="M51.7881 26.8496L76.2109 26.8496L88.4229 48L76.2109 69.1504L51.7881 69.1504L39.5762 48L51.7881 26.8496Z" fill="white" stroke="white"/>
<path d="M90.7881 3.84961L115.211 3.84961L127.423 25L115.211 46.1504L90.7881 46.1504L78.5762 25L90.7881 3.84961Z" fill="white" stroke="white"/>
<path d="M129.788 26.8496L154.211 26.8496L166.423 48L154.211 69.1504L129.788 69.1504L117.576 48L129.788 26.8496Z" fill="white" stroke="white"/>
<path d="M12.7881 3.84961L37.2109 3.84961L49.4229 25L37.2109 46.1504L12.7881 46.1504L0.576171 25L12.7881 3.84961Z" fill="white" stroke="white"/>
<path d="M168.788 49.8496L193.211 49.8496L205.423 71L193.211 92.1504L168.788 92.1504L156.576 71L168.788 49.8496Z" fill="white" stroke="white"/>
</svg>
