<svg width="100" height="101" viewBox="0 0 100 101" fill="none" xmlns="http://www.w3.org/2000/svg">
<rect width="100" height="100" fill="white"/>
<path d="M45.8829 19.0601L44.5557 21.0969L44.5492 21.7726L44.2524 22.1303L44.15 22.8407L43.5843 24.0132L43.6653 24.9223L42.5597 28.8022L42.7715 29.6567L42.5478 30.3274L42.4414 34.8283L42.5856 35.7375L42.944 36.3187L42.9962 37.9432L43.284 38.763L44.6446 40.7203L44.9697 41.5053L46.8225 43.6713L47.7402 45.266L48.6802 46.1056L52.692 47.0793L55.8163 47.1936L56.5312 47.0296L59.6238 45.0375L61.4402 43.0106L63.0171 41.7537L63.5768 40.9489L63.7558 40.2732L64.232 39.7715L65.0657 37.9582L66.4124 32.2251L66.213 31.5793L66.4084 30.4615L66.2031 28.9612L66.2812 27.2374L65.6737 24.3112L65.2864 23.8045L65.6752 22.6668L65.1477 21.9614L65.1875 21.4198L64.8599 21.2808L64.9081 20.8436L64.3687 20.3369L63.1786 17.4058" stroke="black" stroke-width="1.5068" stroke-linecap="round" stroke-linejoin="round"/>
<path d="M46.3465 16.7354L45.4393 18.2208L45.067 18.4245L45.2012 18.4443L45.0133 18.6629L45.1957 19.8601L44.7722 20.4265L44.7617 20.9084L44.9268 20.9581" stroke="black" stroke-width="1.5068" stroke-linecap="round" stroke-linejoin="round"/>
<path d="M45.9668 19.9297L46.0289 20.2775L46.2004 20.1731L46.3287 20.2725L46.2019 20.352L46.4545 20.3421L46.356 20.6848L46.7706 21.122L46.8472 21.5195L47.2394 21.6834L47.3423 21.8423L47.1937 21.8871L47.5163 22.1454L47.4462 22.5875L48.0129 22.7912L48.167 23.1986L52.4432 26.1695L53.3629 26.9296L53.441 27.3369L53.9391 27.3866L57.4169 30.3574L58.7198 31.0678L59.3845 31.1275L61.2397 31.8577L62.9717 31.8329L64.2527 32.0912L65.0794 31.9969L67.3567 31.1076" stroke="black" stroke-width="1.5068" stroke-linecap="round" stroke-linejoin="round"/>
<path d="M56.2676 19.1948L56.973 19.7463L59.0181 20.6306L59.5605 21.6092L60.2281 22.4389L60.8783 22.7966L61.2969 23.5318L62.4035 25.5489L62.9498 27.3572L63.3082 27.7894L63.1119 28.1918L63.5295 28.6935L63.7467 29.8958L64.1702 30.1839L63.9977 30.3677L64.4347 30.6956L64.9726 30.4323L64.4889 30.3181" stroke="black" stroke-width="1.5068" stroke-linecap="round" stroke-linejoin="round"/>
<path d="M52.0928 20.9385L54.4963 23.4821L55.5656 25.7574L57.9165 27.7545L59.1623 28.4251L59.4198 28.9766L60.0258 29.5181L61.3247 29.8411" stroke="black" stroke-width="1.5068" stroke-linecap="round" stroke-linejoin="round"/>
<path d="M47.0444 43.7363L46.1746 44.0606L46.2458 44.2009L46.3765 43.9541L46.2617 43.9444L46.4061 44.0606L46.255 44.2687L46.3784 44.5398L46.2704 45.3867L46.6162 46.2046L46.6685 46.6306L46.4937 46.6789L46.5136 46.8096L46.8894 47.2355L46.5848 48.0535L46.7678 48.3051L46.7068 48.852L46.8807 49.0699L46.7857 50.3621L46.9761 50.8171L46.7446 51.03L46.917 51.5672L46.7252 52.1867L46.931 52.6272L46.6671 52.7239L46.1353 54.2485L45.7072 54.6454L45.6326 55.0955L45.2927 55.623L44.9406 55.7779L44.1647 56.5571L43.7313 56.7459L43.5903 57.1283L43.06 57.346L42.5244 57.8106L42.4609 58.0672L41.8599 58.6141L42.0202 58.706L41.3214 59.1223L41.0153 59.4853L40.378 59.6304L40.6061 59.6111L38.8185 61.0631L38.9522 61.1212L38.2015 62.0311L38.494 61.9536L38.1972 61.8665L38.3681 61.9391L38.0083 62.1568L37.8901 62.7715L37.3472 63.2846L36.6203 65.1188L36.5253 65.0414L36.3292 65.206L36.0144 66.1788L35.8251 66.2369L35.9418 66.2707L35.8711 66.5031L34.932 67.4226L35.1185 67.534L34.9707 67.6356L34.9722 68.1196L34.4482 68.9182L33.9997 70.2152L33.7639 70.4331L33.544 71.5801L33.0573 72.0447L33.1875 72.4609L32.8442 73.5838L32.5173 73.7629L32.0097 74.7405L32.0872 74.9583L31.2392 77.112L30.1912 79.2464L29.8129 79.6675L29.4144 80.9162L28.7983 81.618L28.4705 82.4311L28.4051 83.1813L28.0564 83.5975L27.8951 84.3089L27.0413 85.3495L27.3164 85.606L27.265 85.7367L26.787 85.9932L25.9632 86.9999L25.9618 87.3387L25.7027 87.784L25.8218 87.7598L25.647 87.8227L25.6315 88.1615L24.9355 89.415" stroke="black" stroke-width="1.20544" stroke-linecap="round" stroke-linejoin="round"/>
<path d="M48.436 14.644L48.5289 14.7881L48.5697 14.6739L48.1223 14.7037L47.5909 15.0961L47.4974 15.3346L47.5859 15.2104L47.2991 15.2452L47.0505 15.439L47.1912 15.4588L47.0754 15.5929L46.7229 15.6029L46.6598 15.6972H46.8482L46.3998 16.045L46.3943 16.358L46.1865 16.5666L46.2705 16.676L45.9932 16.6262L46.2606 16.6561L45.855 17.0386L45.9777 17.2324L45.6198 17.6596L45.763 17.8037L45.5333 18.9612L45.6656 19.3239L45.3613 19.463L45.6029 19.5872L45.4409 19.8505L45.5766 20.1336L45.419 20.0691L45.7461 20.7894L45.6322 21.3657" stroke="black" stroke-width="1.20544" stroke-linecap="round" stroke-linejoin="round"/>
<path d="M44.7765 14.3066L44.6064 14.2867L44.8311 14.2818L44.7899 13.9986L44.6154 13.9787L44.8381 13.9141L44.6228 13.8992L44.8679 13.8844L44.677 13.9042L44.851 13.8794L45.1911 14.2768L45.8318 14.4904L45.9621 14.7935L46.6242 15.2903L46.8822 15.9162L47.2953 15.8268" stroke="black" stroke-width="1.20544" stroke-linecap="round" stroke-linejoin="round"/>
<path d="M44.2862 13.9637L44.3682 13.6606L44.4835 14.0283L44.6108 14.0183L44.399 14.0134L44.3642 14.381L43.9034 14.8033L44.0331 15.0219L43.6921 15.5187L43.7841 15.9509L43.4669 16.3086L43.3088 17.2376L43.0349 17.5456L43.2695 17.8337L42.927 18.3802L42.7844 18.9814L42.935 19.3738L42.7864 19.4682L42.7824 19.9998L42.5607 20.3475L42.7257 20.6456L42.6143 21.0579L42.7317 21.2467L42.5472 21.7535L42.4578 22.8762L42.5815 23.1296L42.4235 23.2239L42.6417 23.2687L42.4901 23.6065L42.498 23.4972L42.3514 23.5668L42.3643 23.9791L42.1908 24.0784L42.4125 24.1828L42.2385 24.1679L42.1466 24.6647L42.3688 24.8634L41.982 25.0124L42.2932 24.9926L42.0675 25.0919L42.2873 25.1664L42.072 25.3403L42.3489 25.4198L42.0437 25.3652L42.1744 25.5688L42.3892 25.5142L42.0869 25.5043L41.9775 26.2942L42.0655 26.1501L42.0024 26.5475L42.2669 26.8705L42.0024 26.8953L42.2057 26.9847L41.992 27.1139L42.1853 27.1586L42.1784 28.182L42.0233 28.2813L42.4314 28.3559L42.2375 28.3757L42.1525 28.639L42.3822 28.9222H42.1689L42.6819 29.9555L42.6238 30.6361" stroke="black" stroke-width="1.20544" stroke-linecap="round" stroke-linejoin="round"/>
<path d="M45.7427 13.4709L45.3565 13.61L45.694 13.5653L45.4211 13.615L45.5707 13.5007L45.2451 13.451L45.5677 13.4312L45.3888 13.292L45.5846 13.2871L45.3614 13.302L45.4246 13.0933L45.1909 13.0237L45.3644 12.9443L45.0378 12.7456L44.7783 12.8648L45.5663 12.7356L45.7268 12.5171L46.4472 12.1842L47.1695 12.1892L48.1741 11.8017L48.4699 11.8265L49.6371 11.2651H51.4591L53.1369 11.6824L54.0645 12.1395L54.2285 12.2587L54.1465 12.3382L54.4428 12.3183L54.7231 12.5618L55.4783 12.7456L55.6229 12.9592L56.5844 13.3914L56.5118 13.4609L58.02 13.9677L58.9616 14.4098L58.97 14.5291L59.5044 14.6334L59.4577 14.7576L59.9384 14.7973L60.343 15.2246L61.293 15.5425" stroke="black" stroke-width="1.20544" stroke-linecap="round" stroke-linejoin="round"/>
<path d="M50.9556 14.6641L50.8145 14.9671L50.8314 14.8429L50.9959 14.8727L50.9288 15.0069L51.5547 15.7968L52.4321 16.7904L53.0719 17.2325L53.0932 17.5057L53.7509 18.4049L53.7375 18.6235L54.0104 18.7427L54.1148 19.1651L54.7059 19.5525L55.1587 20.4219L55.4844 20.6952L55.4202 20.9883L56.0019 21.2168L55.8786 21.3162L55.9959 21.6838L56.588 22.3843L56.4861 22.578L56.9981 22.8215L56.9419 22.9506L57.1154 22.9556L58.4999 24.5254L58.3681 24.7391L59.1774 25.3054L59.9972 26.6865L60.3014 26.7412L60.1856 26.8256L60.5415 27.074L60.6429 27.3671L60.5241 27.4317L60.9879 27.7198L61.2842 28.2564L61.8117 28.7234L62.2591 28.7482L62.2312 28.4898L62.5713 28.2266L62.3704 27.9732" stroke="black" stroke-width="1.20544" stroke-linecap="round" stroke-linejoin="round"/>
<path d="M46.0045 13.4772H45.8896L46.1059 13.5567L45.8787 13.1195L45.7559 13.199L45.8717 13.2288L45.8335 12.9903H45.6008L45.9011 12.9854L45.5605 13.0698L45.7057 13.035L45.9617 13.3282L46.4057 14.3416L47.0534 15.0024L48.1127 16.6815L48.3613 16.8305L48.6571 17.6105L49.1975 17.993L49.2308 18.4004L49.7453 19.0164L49.8213 19.5828L50.0903 19.7567L49.88 19.7666L50.9478 20.631L51.3674 20.7304L51.2118 20.8595L52.123 21.3415L52.0966 21.6445L52.3238 21.6196L52.4809 21.8581L53.0456 22.0966L53.072 22.4691" stroke="black" stroke-width="1.20544" stroke-linecap="round" stroke-linejoin="round"/>
<path d="M56.0442 47.7207L55.6654 48.0585L55.5163 48.0237L55.3468 48.3268L54.957 48.3019L55.128 48.2175L55.1638 47.9293L55.2061 48.2274L55.0326 48.3168L55.4218 48.4758L55.0405 48.8484L55.4313 49.6483L55.2682 49.7228L55.2071 50.0755L55.3527 50.2047L55.222 50.3835L55.224 51.0939L55.4248 51.1635L55.1947 51.2479L55.1559 51.4764L55.3383 51.5361L55.2831 51.7298L55.5148 52.013L55.3582 52.0279L55.4666 52.1322L55.2921 52.3409L55.4909 52.4949L55.3726 52.6538L55.4994 52.7284L55.2812 52.8824L55.4537 53.0563L55.3423 52.9917L55.4492 53.0811L55.3443 53.4189L55.5322 53.6922L55.2339 53.5928L55.4467 53.6822L55.5183 53.9257L55.3691 54.03L55.5352 54.2188L55.2991 54.2833L55.9523 54.8199L55.8573 54.9193L56.2312 55.2472L56.163 55.3812L56.3201 55.5502L56.6795 55.6048L56.6656 55.7737L57.6932 56.4096L58.407 56.3699L58.2594 56.4792L59.1452 56.7375L59.0165 56.8319L59.3406 56.812L59.7403 57.13L60.8315 57.4976L61.7814 57.284L61.8257 57.4579" stroke="black" stroke-width="1.20544" stroke-linecap="round" stroke-linejoin="round"/>
<path d="M26.9639 87.5423L26.0661 87.7311L26.5039 87.6198L26.2031 87.6246L26.5111 87.3923L26.3649 87.4746L26.2317 87.3052L26.0878 87.7649L25.544 88.2683L25.5043 88.6651L24.9076 89.4589L24.8907 89.8848L24.3623 90.3979L24.2877 90.8044L23.815 91.1625L23.6121 91.7578L22.7103 93.2146L22.7525 93.4324L22.5089 93.6744L22.5926 93.8922L22.1253 94.5214L21.9262 94.5891L22.0589 95.0296L21.5659 95.6103L21.1727 96.7962L20.8661 96.9462L21.1325 96.9413L20.7818 97.3866L20.6336 98.2868L20.4084 98.3013L20.547 98.3546L20.2147 98.7321L20.376 98.7418L20.174 98.7273L20.2787 98.6934L20.2816 98.8337L20.0384 99.0031L20.2627 99.0322L20.0351 98.9886L20.2089 99.0612L20.2336 99.429L20.0743 99.3177L20.0757 99.6032L19.8384 99.8549L20.0762 99.8356L19.8883 100L20.0404 99.9372L19.9266 99.9614L19.9513 99.5162L19.4873 99.7678" stroke="black" stroke-width="1.20544" stroke-linecap="round" stroke-linejoin="round"/>
<path d="M62.4717 72.4009L69.0108 91.3139" stroke="black" stroke-width="1.20544" stroke-linecap="round" stroke-linejoin="round"/>
<path d="M43.3166 68.2744L38.4736 83.278" stroke="black" stroke-width="1.20544" stroke-linecap="round" stroke-linejoin="round"/>
<path d="M44.813 55.5357L44.6818 55.4463H44.8622H44.6465L44.8394 55.4712L44.6654 55.496L44.9587 55.7046L44.7275 55.9779L44.9383 56.1071L45.4528 57.3341L45.7138 57.4931L45.7903 57.7564L46.1393 57.7514L46.6091 58.3923L46.97 58.5115L46.8721 58.6158L49.0887 59.2269L49.2558 59.4256L49.7708 59.4058L49.5769 59.4455L50.2709 59.7138L52.2439 59.8827L52.2464 59.987L52.1887 59.843L52.7743 59.9324L53.3595 59.8877L53.7184 59.674L53.9823 59.7485L54.9974 59.371L54.8056 59.3462L55.6641 58.9984L55.6089 58.8692L55.9112 58.909L56.1418 58.6705L56.3819 58.6507L56.2059 58.5811L56.7349 58.437L56.7707 58.2284L57.1206 58.1886L56.891 58.1588L57.0227 58.0644L57.3627 58.0098L57.3334 57.7962L57.5854 57.8011L57.7684 57.6868L57.6615 57.6272L57.8385 57.7167L57.6108 57.5825L58.0487 57.4534L57.9473 57.2397L57.8603 57.3242H58.177L58.1636 57.1801L57.9722 57.2596L58.001 57.3838L58.0582 57.2447L57.8956 57.2149L58.1681 57.0957L58.2173 56.7628L58.0905 56.8373L58.2988 56.8671L57.7187 57.0559" stroke="black" stroke-width="1.20544" stroke-linecap="round" stroke-linejoin="round"/>
<path d="M43.2331 56.8218L42.9885 57.1149L43.1193 57.2689L42.9199 57.244L43.0651 57.4229L43.2256 57.2342L43.168 57.3186L43.3847 57.3881L43.1899 57.5173L43.6005 58.2178L43.4404 58.3966L43.3787 59.0673L43.5682 59.2908L43.6164 60.1851L44.2656 60.4782L44.0653 60.518L44.3526 60.7763L44.4411 61.1687L44.6742 61.2184L44.7458 61.5016L45.4766 61.7748L45.2733 61.8096L45.6963 61.8593L45.6431 62.1276L45.8504 62.2468L47.0341 62.376L47.8598 62.8777L49.025 62.8529L49.1677 62.7883L48.9897 62.7386L50.1386 62.5896L50.6357 62.1623L50.7783 61.7053L50.9568 61.7351L50.8455 61.5116L51.1765 61.283L51.1745 60.6173L51.4658 60.6819L51.2213 60.6422L51.2257 60.7514L51.5116 60.6372L51.2774 60.5875L51.4122 60.5328L51.2988 60.6074L51.5146 60.6471L51.2695 60.5279L51.4062 60.2795L51.5668 60.2745L51.3495 60.4186L51.3823 60.2696L51.4007 60.3987" stroke="black" stroke-width="1.20544" stroke-linecap="round" stroke-linejoin="round"/>
<path d="M49.6271 68.5367L48.6374 68.5814L48.8725 68.5565L48.1109 69.4507L48.1055 69.8581L48.535 69.6246L48.4395 69.5054L48.8342 69.1179L49.1857 68.3975L49.0893 68.6261L48.7806 68.7056L48.4574 69.2917L48.7 69.1974L48.8919 69.4011L49.1608 69.4061L48.9192 69.2321L49.0599 68.6062L48.7572 68.2783L48.9163 68.323L48.6821 68.6509" stroke="black" stroke-width="1.20544" stroke-linecap="round" stroke-linejoin="round"/>
<path d="M57.3666 67.776L56.0319 67.7461L55.4731 68.3224L55.2568 68.9484L55.3811 69.1024L55.6287 69.0875L56.1323 68.6453L56.2829 68.1336L56.7417 67.6169L56.5324 67.453L56.948 67.2295L56.4788 67.3139" stroke="black" stroke-width="1.20544" stroke-linecap="round" stroke-linejoin="round"/>
<path d="M55.0811 75.9382L55.1034 75.7395L55.1288 75.968L55.3421 76.0723L56.1036 76.1767L56.04 76.0773L56.3666 75.7146L56.296 75.5557L55.7785 75.188L55.6234 75.2973" stroke="black" stroke-width="1.20544" stroke-linecap="round" stroke-linejoin="round"/>
<path d="M45.3657 76.0525L45.4916 75.733L45.3308 75.6992L45.125 75.7717L45.3487 75.9363L45.1279 76.0041L45.6272 76.1783L46.1788 76.1541L46.1396 75.9605L45.9866 75.9556L45.9178 76.1299L46.0762 75.975L45.7483 75.9412L46.1081 75.8492L46.1895 75.491L46.5978 75.2007L46.8971 75.1426L46.9862 75.2829" stroke="black" stroke-width="1.20544" stroke-linecap="round" stroke-linejoin="round"/>
<path d="M47.1777 84.4497L46.3578 84.6287L45.5703 84.4835L46.6614 83.7479L46.7709 84.1544L46.7791 83.7285L46.6779 83.7575" stroke="black" stroke-width="1.20544" stroke-linecap="round" stroke-linejoin="round"/>
<path d="M41.9072 89.1873L42.3649 88.4855L42.6114 88.4081L43.6565 88.9647L43.4986 88.9743L42.9015 87.9531L43.0715 87.8467" stroke="black" stroke-width="1.20544" stroke-linecap="round" stroke-linejoin="round"/>
<path d="M45.6083 97.9478L45.7115 98.0882L45.5182 98.2237L44.5869 97.8462L44.293 97.459L44.2988 97.6477" stroke="black" stroke-width="1.20544" stroke-linecap="round" stroke-linejoin="round"/>
<path d="M53.0299 98.9158L53.0731 98.3793L52.8579 97.8179L52.6083 98.2451L52.7903 98.2352L52.7321 98.4239L52.2275 98.1607L52.4562 97.9421" stroke="black" stroke-width="1.20544" stroke-linecap="round" stroke-linejoin="round"/>
<path d="M52.9394 82.8545L52.2693 82.9787L51.7195 83.6394L51.4347 83.6047L51.7523 83.3762L51.636 83.5003L51.9238 83.5698L51.1543 83.4109L51.5525 83.4407L51.3959 83.6494" stroke="black" stroke-width="1.20544" stroke-linecap="round" stroke-linejoin="round"/>
<path d="M50.6367 90.3606L51.626 89.2031L51.7244 89.3174L51.4018 89.4714L51.4932 89.5558L52.9945 88.8852L52.9712 88.6914L53.2237 88.6417L52.5884 88.9498L52.4582 88.6069" stroke="black" stroke-width="1.20544" stroke-linecap="round" stroke-linejoin="round"/>
<path d="M49.2655 13.1781L49.4593 12.3037L49.3216 12.3087L49.4241 12.4329L49.2496 12.6217L48.9419 14.7182L49.176 16.8991L49.0209 18.8217L49.1939 19.5818L48.7892 21.0821L48.9155 21.8521L48.8882 22.1453L48.6883 22.3142L48.8131 22.493L48.6297 22.2595L49.4211 20.7989L49.6855 18.2057L49.3798 16.8295L49.4285 16.3874L49.0602 15.8708L49.0383 14.9715L49.3738 13.4166L49.514 13.3719L49.3023 13.3768L49.8874 13.5258L50.0231 13.4712L49.8988 13.3818L50.0251 13.1682L48.148 11.8169L47.6076 11.8318L46.6695 12.2392L45.3681 13.0788L43.8852 14.4598L43.8176 14.7579L42.8174 15.8012L42.5604 16.5166L41.5194 18.0715L41.1799 18.9708L40.2607 20.5058L40.2065 21.1964L39.4146 22.5973L39.5096 23.2978L39.001 24.4057L39.0423 25.131L38.5978 26.0997L38.0933 28.082L37.6807 32.6624L37.8437 33.8944L38.0808 34.4707L37.9635 34.7291L37.9715 37.3025L38.2335 40.0696L39.1268 44.3222L39.529 45.5244L40.0892 46.3789L40.1155 47.0297L41.0993 49.3498L41.1088 49.8962L41.5005 50.0552L41.4747 50.2936L42.0647 51.779L42.5335 51.8139L42.2099 52.0176L42.5455 52.2461L42.4495 52.5094L42.7662 52.8174L42.9934 53.806L42.8159 55.5249L42.4306 55.7385L42.5211 55.8826L42.5972 55.7037L42.4823 55.7336L42.7577 55.7634L42.4952 55.7733L42.7443 55.6888L42.544 55.7534L42.6822 55.7087L42.5281 55.6242" stroke="black" stroke-width="1.20544" stroke-linecap="round" stroke-linejoin="round"/>
<path d="M40.8226 29.1006L40.2509 31.7336L39.0544 39.7568L37.4248 44.2975" stroke="black" stroke-width="1.20544" stroke-linecap="round" stroke-linejoin="round"/>
<path d="M41.1846 25.4739L41.5883 25.459L41.2672 26.7308L41.5555 30.4468L41.3517 32.2651L41.4675 35.5539L41.3139 36.3139L41.1926 40.0151L40.4012 43.8255L39.6605 46.3293L39.1748 47.169" stroke="black" stroke-width="1.20544" stroke-linecap="round" stroke-linejoin="round"/>
<path d="M43.4096 38.8584L42.8539 39.4546L42.9956 39.6036L42.8693 40.2793L41.458 45.7042L40.0511 48.9583L38.4102 51.636" stroke="black" stroke-width="1.20544" stroke-linecap="round" stroke-linejoin="round"/>
<path d="M64.6426 37.2134L64.0207 38.3162L64.064 38.823L63.2979 40.522L62.2783 43.9797L62.851 51.2628L63.2651 52.2464L64.14 52.301" stroke="black" stroke-width="1.20544" stroke-linecap="round" stroke-linejoin="round"/>
<path d="M57.2324 25.772L57.5744 26.2936L58.2455 28.3305L58.7143 29.0011L59.1712 32.434L59.8169 33.5071L59.8816 34.1182L60.3265 34.5454L60.4259 34.8435L60.3429 35.4993L60.503 37.8689L60.7739 38.8029L60.7694 40.7802L61.3525 41.3962L65.6019 44.0987L66.3297 44.1087L67.7112 43.0108" stroke="black" stroke-width="1.20544" stroke-linecap="round" stroke-linejoin="round"/>
<path d="M61.1842 30.606L60.9561 31.9821L61.1047 35.6335L61.8205 38.2169L62.089 39.8911L63.8647 42.8172L65.4097 44.1585L66.0077 44.4268" stroke="black" stroke-width="1.20544" stroke-linecap="round" stroke-linejoin="round"/>
<path d="M62.561 30.2485L62.1514 32.3252L62.9229 34.8339L64.6544 38.7189L65.2146 39.4343L65.83 39.9063L67.5446 40.5421" stroke="black" stroke-width="1.20544" stroke-linecap="round" stroke-linejoin="round"/>
<path d="M63.3754 33.6465L63.3545 34.8041L64.4099 36.4236L65.6432 38.843L66.6245 39.3944L67.8206 39.2653" stroke="black" stroke-width="1.20544" stroke-linecap="round" stroke-linejoin="round"/>
<path d="M63.2646 26.4429L63.29 27.7892L63.6619 29.051L64.3752 30.4272L66.5779 33.403L67.6582 34.1631L69.6973 34.5705" stroke="black" stroke-width="1.20544" stroke-linecap="round" stroke-linejoin="round"/>
<path d="M63.9521 21.4251L64.2549 21.0823L64.6411 20.9531L64.4597 22.523L64.6446 24.0978L65.3709 25.5485L66.0545 26.5073L67.6726 28.1666L69.7048 29.657L70.7139 29.9997" stroke="black" stroke-width="1.20544" stroke-linecap="round" stroke-linejoin="round"/>
<path d="M63.9093 21.9275L64.1733 21.6344L64.6465 21.5151L64.3895 21.9424L64.3805 22.2703L64.728 22.7124L67.0436 23.5123L68.356 24.1879L69.9522 24.5406L70.3102 24.794L70.589 24.6897L69.1981 26.6073L68.6592 27.0494L64.7743 34.0095L63.5971 34.6206L62.7759 35.3012L61.9656 35.4949L60.9544 35.0875L60.7168 35.1273L60.8073 35.2763" stroke="black" stroke-width="1.20544" stroke-linecap="round" stroke-linejoin="round"/>
<path d="M62.4644 29.98L62.5161 31.4853L63.8011 33.5172L64.8918 36.4682L66.1226 38.2219L67.176 39.2154L67.7452 40.0948L69.0382 40.2686L68.3602 40.3779L67.6095 40.7406L66.6158 41.5156L64.3047 44.2728L63.9681 44.4914L63.8319 44.7199L63.9025 45.2117L63.6609 45.3558L63.7956 45.4452L63.1966 45.5595L62.434 46.0761L62.0274 45.475L62.3326 45.0379L64.0343 43.781L64.2694 43.7959L63.8613 43.9946L62.6229 45.5644L61.7833 46.1805L61.5576 46.6425" stroke="black" stroke-width="1.20544" stroke-linecap="round" stroke-linejoin="round"/>
<path d="M48.2099 17.8729L48.032 17.8779L47.8088 17.1973L47.1277 17.2569L46.2563 17.7338L45.432 18.6529L45.4425 18.9857L44.6362 19.418L44.0386 20.0936L43.2964 21.5194L43.2258 22.046L42.7387 22.7166L42.7914 23.6556L42.4628 24.371L42.4841 26.5271L42.3057 27.2226L42.5493 28.0423L42.5164 31.2267L42.8252 31.8229L42.5671 32.1657L42.9937 33.1146L43.3059 32.9507" stroke="black" stroke-width="1.20544" stroke-linecap="round" stroke-linejoin="round"/>
<path d="M42.8501 27.1484L42.6289 29.1406L42.8203 29.8212L42.6985 30.2335L43.2314 32.6827L43.3398 34.2079L43.5988 34.5209L43.6395 36.0112L44.1645 37.3824" stroke="black" stroke-width="1.20544" stroke-linecap="round" stroke-linejoin="round"/>
<path d="M49.2179 26.6666L47.0922 26.4033L46.0726 26.1201L44.7423 26.2493L42.4715 27.7794L41.0477 29.4188L40.4209 30.8148L40.484 31.4408L40.3145 31.9673L40.5456 32.3648L40.2578 33.7161L41.0264 35.3009L41.2138 36.2746L41.6294 36.5329L41.9803 37.1092L42.4093 37.4719L44.614 37.6159L45.4229 37.8395L45.392 37.9537L47.6882 38.0134L47.7702 37.8643L48.3066 37.7401L48.6919 37.303L49.4689 36.831L49.4798 36.672L50.2419 36.3044L50.4114 35.9765L50.7162 35.8274L51.3838 34.6948L52.124 32.8666L52.3427 31.4109L52.3164 30.7254L52.0842 30.5962L52.1871 30.1441L51.691 29.5828L51.5449 29.1555L51.4072 29.1853L51.5463 29.0363L51.4758 28.6189L51.2252 28.5445L51.5901 28.5196H51.3405L51.3709 28.4252L51.2963 28.5395L51.3077 28.2215L50.9279 28.2662L51.2824 28.2066L50.9394 28.2166L51.1089 28.147L51.0746 27.8639L50.8921 27.7744L50.995 27.6204L50.7336 27.6055L51.0448 27.5459L50.6331 27.7893" stroke="black" stroke-width="1.20544" stroke-linecap="round" stroke-linejoin="round"/>
<path d="M64.6007 26.1401L62.475 25.8818L61.4549 25.5986L60.1246 25.7278L57.8543 27.2529L56.4301 28.8974L55.8037 30.2933L55.8668 30.9193L55.6968 31.4459L55.9285 31.8433L55.6406 33.1897L56.4087 34.7794L56.5961 35.7482L57.0117 36.0065L57.3626 36.5877L57.7921 36.9454L59.9964 37.0945L60.8052 37.313L60.7748 37.4323L63.0705 37.4919L63.1526 37.3379L63.6894 37.2187L64.0747 36.7815L64.8512 36.3046L64.8622 36.1456L65.6242 35.778L65.7942 35.4501L66.099 35.306L66.7661 34.1733L67.5063 32.3451L67.725 30.8845L67.6992 30.199L67.4665 30.0748L67.5694 29.6227L67.0738 29.0563L66.9272 28.634L66.7895 28.6639L66.9287 28.5148L66.8581 28.0926L66.6075 28.023L66.9729 27.9981H66.7228L66.7532 27.9038L66.6786 28.018L66.6905 27.6951L66.3102 27.7448L66.6652 27.6802L66.3217 27.6901L66.4912 27.6255L66.4569 27.3374L66.2745 27.248L66.3779 27.094L66.1164 27.084L66.4276 27.0244L66.0155 27.2679" stroke="black" stroke-width="1.20544" stroke-linecap="round" stroke-linejoin="round"/>
<path d="M52.2508 31.0086L52.3259 31.1229L51.9779 30.9987L53.0462 31.0086L53.95 30.79L54.7628 31.1229L55.3037 30.9838L54.7151 31.0633L54.9129 31.0434L54.7101 31.0037L54.9074 30.949L54.7971 30.3926L54.5838 30.3528L54.5013 30.2386L54.6181 30.1542L53.8859 29.6076L53.2973 29.6425L52.3771 30.03L51.708 30.0448L51.9277 30.0151L51.8815 30.1094L52.052 30.0051L51.879 30.02L51.9794 29.856L52.6326 29.7915L54.5172 29.1754L54.5585 29.2898L54.8105 29.2351L55.327 28.9867L54.1523 29.0761L53.95 28.8973L52.9334 28.927L54.5008 28.167" stroke="black" stroke-width="1.20544" stroke-linecap="round" stroke-linejoin="round"/>
<path d="M62.8851 28.5246L63.1347 28.2414L63.1019 27.9682L63.248 27.9732L63.1223 28.003L63.0551 27.7099L62.2275 27.6999L62.04 27.531L59.725 27.6354L57.7643 28.8078L57.6644 28.8873L57.8891 28.9568L57.2722 29.1704L56.8993 29.5928L56.6513 30.2038L56.2973 30.3876L56.5926 30.6608L56.1696 30.7702L56.2213 30.9937L56.0731 31.0384L56.1497 31.3365L55.9966 31.9823L56.1487 31.9923L55.8718 32.3847L56.0115 32.4642L55.8718 32.6033L56.0478 32.6928L55.749 32.8616L55.8842 33.9099L56.3466 34.5855L56.2307 34.7842L56.5658 34.983L56.4823 35.1867L56.9873 35.3307L57.0977 35.4698L56.9217 35.6189L57.1146 35.7878L57.902 36.1157L58.0437 36.3293L60.9593 37.0645L61.8511 36.9602L63.3738 36.1305L63.7964 36.1504L64.624 35.445L65.5924 35.0326L65.7764 34.5805L66.0528 34.5756L66.535 34.0093L66.4256 33.895L66.71 33.7609L66.8576 33.2789L66.9093 32.4891L66.4982 31.6246L66.6697 31.1974L66.2998 30.0896L66.2541 29.1655L65.9494 29.0413L66.1035 29.0314L65.6029 28.4302L65.6357 28.1868L65.4443 27.9533L64.9686 27.7099L65.1689 27.7198L65.2256 27.536L64.283 27.3572L64.1284 27.1435L63.5801 27.0193L63.4996 26.8405L63.6984 26.8057L63.1899 26.7064L63.1571 26.5424L62.4899 26.3536L62.0863 26.0257L60.5681 25.6929L58.686 27.0392L57.9865 27.8391L57.8692 28.3359L56.9695 29.4785L57.0092 30.3876L56.7378 30.7155L56.872 31.1378L56.709 31.2421L56.5171 32.3649L56.8407 32.7077L56.4236 33.4379L56.6846 33.6665L56.5504 33.6863L56.8959 33.6913L56.8989 33.8453L56.6031 33.9447L56.783 34.049L56.5524 34.6054" stroke="black" stroke-width="1.20544" stroke-linecap="round" stroke-linejoin="round"/>
<path d="M50.5451 32.1165L51.082 31.4856L51.6731 31.2819L51.5513 31.2273L51.8192 30.184L51.5299 29.8909L51.6075 29.4289L50.9045 27.9633L50.0818 27.1337L49.2188 26.5425L48.3613 26.4829L48.2504 26.5574L48.3543 26.6071L47.4879 26.8207L45.4556 28.0726L43.6248 28.7781L43.2932 29.0116L42.3636 30.2635L42.1637 30.2735L42.2771 30.2337L42.0106 30.5516L42.1657 30.7354L41.9709 30.8299L42.031 30.9789L41.6234 31.2074L41.8824 31.4012L41.595 32.1315L41.695 32.7822L41.3857 33.1548L41.7183 34.0789L41.7084 35.2563L42.122 35.6041L42.029 35.8971L42.37 36.5728L43.1833 37.1739L43.2643 37.313L43.1192 37.4521L43.2534 37.4968L45.5779 37.7701L46.8406 37.5912L48.1659 36.995L49.1552 36.1555L49.7741 35.4252L49.872 35.0874L50.401 34.9085L50.1474 34.7048L50.9587 33.9249L51.0999 33.0505L51.3758 32.5587L51.2172 31.9128L51.3524 31.5055L51.176 31.2869L51.4345 30.9391L51.077 29.9058L50.4014 29.101L50.3716 28.5098L50.2066 28.2316L48.4856 26.6419L47.6976 26.5276L46.5801 26.7214L45.8146 27.2579L45.4248 27.2132L44.8914 27.402L44.5931 27.8292L42.9263 27.9981L43.0188 28.0975L42.461 28.3359L42.0285 28.3608L40.573 29.563L40.7619 29.8214L40.6495 30.035L39.1428 31.6347L38.9131 33.0704L39.2755 33.7957L40.0997 34.2875L40.4805 34.7993" stroke="black" stroke-width="1.20544" stroke-linecap="round" stroke-linejoin="round"/>
<path d="M46.949 27.9922H45.6178L45.7192 28.1512L46.1924 28.0767L45.4199 29.1398L44.6111 29.8503L41.4102 34.4058" stroke="black" stroke-width="1.20544" stroke-linecap="round" stroke-linejoin="round"/>
<path d="M48.2016 28.5249H46.8997L47.3322 28.5895L46.9469 28.7484L46.9534 29.2254L45.4715 31.9528L42.9004 35.6539" stroke="black" stroke-width="1.20544" stroke-linecap="round" stroke-linejoin="round"/>
<path d="M49.5523 30.4272L46.3369 34.4712" stroke="black" stroke-width="1.20544" stroke-linecap="round" stroke-linejoin="round"/>
<path d="M62.7423 29.3945L61.6656 30.6514L60.5645 32.7479" stroke="black" stroke-width="1.20544" stroke-linecap="round" stroke-linejoin="round"/>
<path d="M52.8712 29.3638L52.6962 29.4333L52.5685 29.7861L52.5466 30.8641L52.8911 33.1345L53.1949 33.4673L52.9945 34.138L53.2456 34.2075L53.1785 34.6149L53.333 34.8285L53.1392 35.2309L53.3321 35.7228L53.1859 36.2841L53.3345 36.6121L53.0189 37.6007L52.7663 37.7099L52.9503 37.7845L52.5342 38.2813L52.6043 38.5048L52.7897 38.2564" stroke="black" stroke-width="1.20544" stroke-linecap="round" stroke-linejoin="round"/>
<path d="M53.3485 37.159L53.4603 37.0348L53.248 37.1043L53.4827 37.0298L53.69 36.3193" stroke="black" stroke-width="1.20544" stroke-linecap="round" stroke-linejoin="round"/>
<path d="M53.7746 34.6L53.5414 33.6959L53.7333 32.8613L53.6553 32.136L53.4162 32.0366L53.5017 31.9621L53.1432 31.9521L53.2258 32.121L52.8554 33.6263L52.8037 34.8783L52.9379 35.1863L52.8196 35.4694L53.1716 36.6021L53.3456 39.1904L53.4549 39.2451L53.2128 39.2749L53.4748 39.1805L53.3128 39.1308L53.2491 39.2799" stroke="black" stroke-width="1.20544" stroke-linecap="round" stroke-linejoin="round"/>
<path d="M51.1889 41.7439L51.1377 41.5303L50.6973 42.1414L51.3375 42.6332L52.5689 42.8915L52.806 43.0803L54.27 42.8368" stroke="black" stroke-width="1.20544" stroke-linecap="round" stroke-linejoin="round"/>
<path d="M55.4092 42.4947L56.8697 41.8141L57.4548 41.7296L57.939 41.3471L57.6293 41.3968L57.9698 41.4315L57.7988 41.367L58.0707 41.3024L57.8948 41.1931L58.1423 41.0888L58.032 41.0391L57.933 41.1931L58.1463 41.1534" stroke="black" stroke-width="1.20544" stroke-linecap="round" stroke-linejoin="round"/>
<path d="M67.2471 85.6158L67.9077 85.0047L69.0794 84.2545L69.8475 83.2858L71.7291 82.0091L72.3823 81.9643L72.5712 81.6911L73.116 81.6066L73.8548 80.926L74.2137 80.9608L74.7073 80.5385L75.4311 80.3696L73.6683 81.4626L71.5059 82.2326L70.8373 82.173L70.0344 82.476L69.58 82.4661" stroke="black" stroke-width="1.20544" stroke-linecap="round" stroke-linejoin="round"/>
<path d="M68.634 62.2322L68.5704 61.9142L67.6045 61.1839L67.0959 59.4998L66.8548 59.4849L66.8479 59.2961L66.6455 59.2564L65.7219 58.223L65.2019 58.0044L64.5288 57.2393L64.0148 57.0108L63.8448 56.6035L63.2373 56.2259L63.2005 55.9427L61.6754 55.0882L60.8153 54.0698H60.3848L60.016 52.8279L59.6218 52.4553L59.7083 52.3857L59.4781 52.2069L59.3996 51.8094L58.7031 51.099L58.283 51.094L57.8595 50.6668L57.9783 50.5774L57.777 50.2793L57.8838 49.9017L57.2898 49.6285H57.4528L57.3365 48.5355L57.4459 47.3631L57.331 47.0352L57.4419 46.2751L58.5097 44.9984L58.8811 44.8543L58.6981 44.9934L59.243 45.2964L60.2625 44.3326L61.1066 43.3043L60.9819 43.2198L61.813 42.1815L61.9612 41.6996L61.8926 42.0722L62.1511 41.9083L62.0353 41.8636L62.1779 41.7294L62.1501 41.4363L62.7665 40.7607L62.4185 40.7408L62.7675 40.7309L62.5985 40.6862L62.6154 40.3931L62.6477 40.562L60.8919 42.7975L59.7018 44.8791L57.4325 47.691L55.1507 49.4347L55.5613 49.3403L55.524 49.0274L57.9679 46.8911L60.5071 43.9998L60.2615 43.8954L58.5927 46.3646L57.514 47.6413L57.2967 48.2673L55.6573 49.4745L56.1226 49.2758L56.6321 48.5355L59.6586 45.5895L59.8107 45.4952L59.7997 45.669L59.2504 47.055L57.3196 50.2197L54.928 53.573L54.667 54.04L54.7416 54.2238L55.1944 54.1295L55.361 53.732L58.4779 50.632L61.2369 47.2091L61.0281 47.6115L60.1174 48.4113L59.0655 50.329L56.4899 53.8115L55.9848 54.2537L56.6972 54.045L57.6696 53.4587L59.9086 51.2281L60.9605 50.2991L61.7589 49.8272L61.5009 50.781L60.3446 52.4354L60.1427 52.9968L59.0993 54.358L58.8477 54.5517L58.7642 54.4474L59.3175 53.9953L59.6869 53.9903L60.1074 53.7618L62.5776 51.9237L63.1041 51.7647L63.5072 51.9038L63.6121 52.023L63.3864 52.6589" stroke="black" stroke-width="1.20544" stroke-linecap="round" stroke-linejoin="round"/>
<path d="M41.4301 43.6668L41.9068 42.4199L41.4614 42.1119L41.1114 42.2709L40.2957 43.17L39.0176 45.351L43.3166 39.7322L43.1218 39.8862L43.5309 39.8962L43.8506 40.5022L43.6353 42.2807L43.5379 42.251L43.7074 42.1615L43.8953 40.4327L43.7253 38.0033L42.9841 36.2944L41.6543 34.2178L41.7214 34.337L41.5668 34.3966L42.0868 34.6103L42.3935 34.5606L42.4497 34.3519" stroke="black" stroke-width="1.20544" stroke-linecap="round" stroke-linejoin="round"/>
<path d="M47.3312 30.1195L46.6373 30.1841L45.9716 29.9903L46.6139 29.7171L46.2853 29.4141L45.9513 29.5233L42.9715 32.8568L42.5947 33.7212" stroke="black" stroke-width="1.20544" stroke-linecap="round" stroke-linejoin="round"/>
<path d="M46.5551 28.6582L46.4044 28.7228L46.3642 29.1848L45.703 30.5212L44.3986 31.9271L42.7695 34.4757" stroke="black" stroke-width="1.20544" stroke-linecap="round" stroke-linejoin="round"/>
<path d="M47.7102 27.6904L47.5293 27.9041L47.6476 28.0482L47.3096 28.1078L44.911 31.2425L43.9033 32.9664" stroke="black" stroke-width="1.20544" stroke-linecap="round" stroke-linejoin="round"/>
<path d="M48.7629 28.5396L48.1956 29.2251L47.9839 29.8063L46.4826 31.6544L46.4463 32.2655" stroke="black" stroke-width="1.20544" stroke-linecap="round" stroke-linejoin="round"/>
<path d="M49.9741 30.6611L46.6459 34.2927L45.4131 36.1657" stroke="black" stroke-width="1.20544" stroke-linecap="round" stroke-linejoin="round"/>
<path d="M57.0046 28.9214L54.7646 31.619" stroke="black" stroke-width="1.20544" stroke-linecap="round" stroke-linejoin="round"/>
<path d="M58.2818 17.3014L60.4249 17.9075L61.6448 18.6775L62.7037 19.9046L64.0509 22.3141L64.3611 22.5724L64.5818 22.4879L64.7175 21.4695L64.3109 19.9444L63.0631 17.6243L61.8825 16.4122L60.6223 16.1339L59.1105 16.1289L54.5236 15.5428L52.0559 14.9665L50.8112 14.4299L49.5405 14.2262H48.2505L45.1053 14.6337L44.7464 14.7081L44.461 15.1453L44.97 15.1602L45.413 14.8175L47.6848 11.4243L47.7256 11.5386L45.5621 12.9246L44.2602 14.0971L41.7477 17.987L40.0451 21.3205L39.7632 22.4582L39.6832 23.8889L39.5947 23.8144L39.9904 23.3374L40.2365 22.2197L40.7406 21.2211L41.5295 18.6428L42.7708 16.3426L43.7611 14.9814L44.3193 14.4995L45.327 13.9629L47.0331 13.4264L45.1689 15.0708L43.2088 17.2965L42.1057 18.8862L41.2114 20.9727L41.0334 22.0508L40.5711 23.0692L40.7033 23.8691L40.6009 24.1771L40.7719 24.1324L40.8266 23.6207L42.5148 20.1133L44.0325 16.4022L45.3369 14.3554L46.091 12.3385L46.5086 12.3235L46.3023 12.403L46.4624 12.4279L46.5225 12.7607L46.2874 13.4264L44.6067 15.2397L40.7774 20.8237L39.7682 23.1835L39.8239 23.9783L40.321 24.5347L40.2892 24.7931" stroke="black" stroke-width="1.20544" stroke-linecap="round" stroke-linejoin="round"/>
<path d="M50.7395 12.6466L50.6391 12.1249L49.9963 12.0454L48.2703 13.655L43.6297 20.7195L42.9561 22.3539L42.9512 23.4617" stroke="black" stroke-width="1.20544" stroke-linecap="round" stroke-linejoin="round"/>
<path d="M50.8114 12.2894L50.8561 11.9863L50.8914 12.1602L49.5949 12.9601L48.201 14.4604L45.789 17.7491L43.6758 21.6738" stroke="black" stroke-width="1.20544" stroke-linecap="round" stroke-linejoin="round"/>
<path d="M48.714 13.3524L48.2025 13.3027L47.7278 13.8492L44.4523 18.6929L42.0949 23.0896L40.4893 27.1385" stroke="black" stroke-width="1.20544" stroke-linecap="round" stroke-linejoin="round"/>
<path d="M49.489 13.501L49.0918 16.8593L49.0361 21.3056L50.0746 24.2715" stroke="black" stroke-width="1.20544" stroke-linecap="round" stroke-linejoin="round"/>
<path d="M49.2929 15.479L47.6768 15.8963L49.0866 17.6749L50.563 20.4122L52.4819 22.3249L54.3769 23.1694" stroke="black" stroke-width="1.20544" stroke-linecap="round" stroke-linejoin="round"/>
<path d="M49.2211 18.8568L48.4495 18.9213L47.6621 18.7822L48.122 18.8319L50.7457 20.1682L51.651 20.9184L53.4381 21.8872L54.4652 22.3641L55.6473 22.5529" stroke="black" stroke-width="1.20544" stroke-linecap="round" stroke-linejoin="round"/>
<path d="M51.7508 16.8203L51.0961 17.1234L50.25 17.804L50.3037 18.6833L51.377 20.3476L52.9389 21.4058L54.6316 22.0019L57.9732 22.9409L59.1031 23.0104" stroke="black" stroke-width="1.20544" stroke-linecap="round" stroke-linejoin="round"/>
<path d="M60.2564 48.9675L60.2539 47.8149L60.2594 48.2223L60.6929 48.3813L61.181 48.2968L61.9163 48.5601L65.3732 48.7837L67.4532 49.5985L68.1223 49.7078" stroke="black" stroke-width="1.20544" stroke-linecap="round" stroke-linejoin="round"/>
<path d="M43.8909 41.7393L43.6433 42.0473L43.442 43.4681L41.3531 48.6149L42.5626 47.2437L44.9418 43.1949L45.0507 42.7478L44.9547 42.554L44.652 42.6633L44.5824 42.9763L43.2392 44.8939L40.0129 49.1465L39.5625 49.9314L39.7882 50.0705L40.3728 49.7128" stroke="black" stroke-width="1.20544" stroke-linecap="round" stroke-linejoin="round"/>
<path d="M62.2451 45.4702L62.5185 47.3679L63.9771 49.4049L65.542 50.2841L66.6421 50.5723L66.9568 51.0939L67.015 51.9882L66.6928 54.1393L66.8196 55.5253L67.8039 57.1052L67.6607 57.5225L67.9456 57.6218L67.7 57.8354L67.8774 58.2428L67.9351 58.2826" stroke="black" stroke-width="1.20544" stroke-linecap="round" stroke-linejoin="round"/>
<path d="M40.7757 21.8271L40.4909 22.0159L39.6622 23.3423L38.3831 25.8711L38.0664 26.969L38.3244 27.1131V26.8149L39.002 25.3891L39.4877 24.8973L39.5851 24.9768L39.3564 25.7319L38.9105 26.8298L38.657 26.9491L38.8176 26.7305L39.856 26.2337L39.9202 25.9505L40.3715 25.8909L40.029 26.0002L40.2045 27.0782L40.6897 27.3018L41.1331 27.2223L40.9656 27.1428L41.2763 26.8398L41.0198 26.8547L41.0894 26.5517L41.7535 25.9257" stroke="black" stroke-width="1.20544" stroke-linecap="round" stroke-linejoin="round"/>
<path d="M45.9619 18.6328L45.8968 18.4688L47.3111 17.4802L47.9538 16.8294L51.4068 14.7975L53.3719 13.1929L47.576 17.2566L45.3489 19.3034L45.253 19.5071L45.3857 19.5966L48.3555 17.4404L51.5475 15.4533L51.9989 14.9913L52.0749 14.574L51.8219 14.4746L50.7615 14.6833L45.7034 17.4355L45.3007 17.5349L45.5533 17.2418L45.5209 16.3624L46.6032 14.2212L47.6849 13.0786L48.3983 11.9658L47.6809 12.5868L44.2946 14.6684L43.6836 14.8969L46.4197 13.64L47.7614 12.6663L47.1127 13.0389L48.4654 13.6251L48.6657 14.0523" stroke="black" stroke-width="1.20544" stroke-linecap="round" stroke-linejoin="round"/>
<path d="M64.1511 67.0665L63.4785 67.0268L63.6848 66.9721L63.8176 67.2403L64.263 67.459L64.0248 67.3248L64.173 67.2553L64.1337 67.0317L64.7029 66.6045" stroke="black" stroke-width="1.20544" stroke-linecap="round" stroke-linejoin="round"/>
<path d="M37.9702 83.9644L37.887 84.7372L37.7755 84.6384L37.7103 84.7237L38.03 84.7776L37.735 84.8226L37.4221 85.8651L37.2238 86.0223L37.3007 86.274L36.8726 87.1502L37.0296 87.3344L36.7144 87.6085L36.5646 88.3499L36.2629 88.4443L36.3839 88.5881L35.9689 88.8397L36.2013 88.943L35.7481 89.3339L35.8951 89.4059L35.6384 89.4823L35.8331 89.5047L35.5256 89.6664L35.8075 89.9316L35.6231 89.999L35.3731 90.4484L35.4864 90.637L35.356 91.1448L35.084 91.4728L35.2666 91.5402L34.7931 91.8098L34.8911 91.8413L34.7126 92.012L34.8943 92.1289L34.4024 92.9062L34.3502 92.8163L34.4046 93.1264L34.16 93.2927L33.9037 93.8723L33.6749 93.9487L33.7423 94.2138L33.5305 94.2812L33.6375 94.3217L33.4271 94.5778L33.5382 94.5418L33.1794 94.7215L33.2001 94.9507L33.08 94.9867L33.178 95.0091L32.9577 95.1754L33.1106 95.2563L32.9469 95.3282L32.7815 95.7505L32.6758 96.5054L32.2621 96.8379L32.424 96.9098L32.152 97.1255L32.268 97.2693L31.7783 97.5928L31.9577 97.7051L31.9011 97.9074L32.0598 97.9029" stroke="black" stroke-width="1.20544" stroke-linecap="round" stroke-linejoin="round"/>
<path d="M38.533 84.4357L38.8019 84.8761L38.667 84.2739L38.6571 84.8671L38.4017 85.1412L38.6634 85.4827L38.4854 85.9589L38.5533 87.0689L38.4346 87.5092L38.6018 87.689L38.2938 88.1472L38.4296 88.4303L38.2794 88.5966L38.5074 88.8033L38.2826 89.1313L38.444 89.3605L38.0803 91.1938L38.2561 91.3645L38.0753 91.4948L38.2111 91.6386L38.0268 92.0565L38.1814 92.2183L37.8856 92.3845L37.9656 92.8024L37.8536 92.9058H38.0816L37.8154 93.2473L37.8491 93.5214L37.6297 93.7056L37.85 93.9033L37.5587 93.9527L37.6468 94.1325L37.5281 94.2673L37.685 94.3751L37.475 94.6357L37.5888 94.9143L37.2714 95.1255L37.3105 95.3007L37.4849 95.2872L37.3262 95.3681L37.3716 95.7052L37.2224 95.9298L37.4768 96.0017L37.284 95.9882L37.0758 96.2848L37.3393 96.2398L37.0407 96.4556L37.2457 96.7297L37.0214 96.9678L37.0034 97.4576L36.8042 97.6103L37.0681 97.6733L36.8829 97.8036L36.9368 97.9608L36.668 98.5495" stroke="black" stroke-width="1.20544" stroke-linecap="round" stroke-linejoin="round"/>
<path d="M28.5537 78.5786L37.7554 85.3544" stroke="black" stroke-width="1.20544" stroke-linecap="round" stroke-linejoin="round"/>
<path d="M67.7056 73.6784L66.943 74.3242L66.6338 74.2795L66.691 73.9367L66.519 73.4498L66.6433 73.0574L66.4678 72.814L66.5955 72.958L66.4827 73.1319L66.8113 73.261L67.2472 73.2362L66.8978 73.2163L67.209 73.0077L66.9371 72.8487" stroke="black" stroke-width="1.20544" stroke-linecap="round" stroke-linejoin="round"/>
<path d="M61.8799 73.0923L67.8798 99.3824" stroke="black" stroke-width="1.20544" stroke-linecap="round" stroke-linejoin="round"/>
<path d="M68.3418 88.313L72.4956 98.4601" stroke="black" stroke-width="1.20544" stroke-linecap="round" stroke-linejoin="round"/>
<path d="M61.0066 54.9199L60.48 54.7908L60.0004 54.4126L60.1887 54.6201L60.0203 54.7124L59.8255 54.6801L59.8846 54.5233L59.6455 54.5141L59.9787 54.4587L59.8823 54.6247L60.1246 54.9061L61.6269 55.5979L62.9985 56.9355L63.7416 56.9125L64.534 57.4567L65.6625 59.5922L66.106 60.2195L66.6621 60.6761L66.9081 61.4741L67.9572 63.2221L68.0246 64.0062L68.7718 65.9157L69.0261 66.2293L69.2878 67.1656L69.6713 67.4331L69.7124 68.065L70.1753 68.3879L70.3318 69.0013L70.9571 69.8407L70.8805 70.3619L71.3282 70.7171L71.409 71.1414L71.5964 71.3029L71.4962 71.4828L71.6425 71.5427L71.4939 71.8148L72.105 72.3222L72.0394 72.4329L72.8028 74.4577L72.9773 74.513L73.0866 74.8451L73.5745 75.334L73.4189 75.4171L73.5643 75.5692L73.5034 75.7168L73.7462 75.952L74.4158 78.0784L74.9245 78.5903L74.8977 78.8025L75.4852 80.057L75.4612 80.3061L75.9043 80.8134L75.8927 81.1409L76.5315 82.4462L76.6884 83.3733L76.9307 83.5439L76.8504 83.7653L77.1444 84.1758L77.0433 84.2496L77.1712 84.7385L77.7615 85.8362L77.6369 86.0115L77.9705 86.3482L77.8529 86.505L78.0896 86.9847L78.3333 87.1231L78.397 87.4459L78.2516 87.7596L78.7118 88.4514L78.8175 89.3785L79.1498 89.6737L79.0464 90.0334L79.2158 90.1626L79.0939 90.1811L79.3768 90.3886L79.351 90.6884L79.6122 90.9006L79.4862 90.9744L79.7253 91.8876L80.101 92.2243L79.9039 92.5933L80.0543 92.7132L80.0124 92.9346L80.6636 93.9447L80.5796 94.1615L80.8643 94.4566L80.6788 94.595L81 94.6872L80.7425 94.8671L81.0056 94.8902L81.019 95.0101L80.7993 94.9824L81.1214 95.2361L81.0563 95.3607L81.3282 95.7619L81.2123 95.8449L81.4422 95.8957L81.3217 96.0202H81.6249L81.3836 96.2047L81.6494 96.3523L81.8345 97.0442L82.038 97.1964L81.8262 97.3024L82.0879 97.367L82.1552 97.985L82.3634 98.0635L82.1991 98.1419L82.3039 98.3217L82.6048 98.3725L82.2614 98.3679L82.6975 98.6123L82.4954 98.6861L82.6518 98.6907L82.5448 98.6861L82.8909 99.235L82.6168 99.2258L82.9094 99.3134L82.7225 99.6086" stroke="black" stroke-width="1.20544" stroke-linecap="round" stroke-linejoin="round"/>
<path d="M51.3159 60.0165L51.4994 59.9519L51.4646 59.8227L51.2971 60.0264L51.4213 60.0214L51.1768 60.0115H51.3761L51.1837 60.0165L51.3289 60.1208L51.485 60.0165L51.2583 60.0661L51.303 60.1754L51.7291 60.394L52.6134 61.4025L52.857 61.3826L52.7601 61.472L53.1483 61.5913L53.5202 61.9688L53.8279 61.9092L54.0551 62.0831L54.935 61.9987L55.3953 62.0632L55.5136 62.2719L56.1221 62.3315L57.5528 61.7353L57.4921 61.5863L57.9152 61.482L57.8953 61.328L58.386 61.0547L58.4928 60.7517L58.8577 60.4983L59.8107 59.2265L59.8858 58.8738L59.754 58.9086L60.0289 58.8639L59.7441 58.8738L59.9509 58.9136L59.8102 58.7993L60.4087 58.4665L60.4167 58.3373H60.2501L60.4291 58.3273L60.3267 58.3025L60.3883 57.7014L60.5693 57.3536L60.4291 57.1599L60.6245 57.2393L60.529 56.8071L61.0063 56.7773L60.8596 57.1996" stroke="black" stroke-width="1.20544" stroke-linecap="round" stroke-linejoin="round"/>
<path d="M45.5782 44.874L45.4181 45.2814L45.7671 45.1174L45.8919 45.2168L45.5275 45.2963L45.693 45.3658L45.5056 45.7931L45.5131 46.3395L45.2745 46.424L45.1591 47.2338L44.6198 48.1032L44.7192 48.2721L44.1062 49.1713L43.7856 50.3338L43.5281 50.6567L43.7289 51.0492L43.4113 51.5758L43.5077 51.9185L43.3849 52.2961L42.9619 52.4452L42.8028 53.1009L42.6045 53.5331L42.2724 53.7666L42.3062 54.0249L42.079 54.4174L41.7748 54.5317L41.8454 54.6261L41.296 55.2769L41.0559 55.3117L41.0023 55.7091L40.7547 55.8432L40.9416 55.9327L40.6239 56.0817L40.4077 56.5388L40.5364 56.658L40.3013 56.812L40.0249 57.4926L39.667 60.6025L39.9001 61.1142L39.751 62.4059L39.9444 62.535" stroke="black" stroke-width="1.20544" stroke-linecap="round" stroke-linejoin="round"/>
<path d="M44.6679 46.6626L44.6261 46.5086L44.8398 46.29L45.331 46.5434L44.7374 47.0054L43.9629 48.2623L43.3714 48.62L42.7848 49.6732L42.147 50.2694L41.631 51.3027L40.6447 52.6788L40.84 53.0514L40.3409 53.891L40.07 55.436L39.6405 55.9279L39.7762 56.5786L39.4655 57.9349L39.5361 58.2578L39.2637 58.5907L39.206 59.5445L39.3497 59.7731L39.1146 60.4785L39.2408 60.861L39.0703 61.3876L39.4526 62.1378L39.721 62.0831" stroke="black" stroke-width="1.20544" stroke-linecap="round" stroke-linejoin="round"/>
<path d="M47.2319 48.0786L46.1 53.7321L44.7707 57.3786L44.3914 57.935L43.7451 58.3672" stroke="black" stroke-width="1.20544" stroke-linecap="round" stroke-linejoin="round"/>
<path d="M46.4457 49.0024L45.4852 51.089L44.487 53.9207L43.9352 54.656L42.3877 58.2428" stroke="black" stroke-width="1.20544" stroke-linecap="round" stroke-linejoin="round"/>
<path d="M43.7293 46.7622L43.4355 47.9744L42.7167 49.733L41.7692 51.442L41.2596 52.0232L40.9753 53.3298L40.2828 54.2837L40.1202 55.0537L39.8394 55.3766L39.6216 56.0225L39.6813 56.6335L39.1499 57.0459L39.0857 57.5874L38.4126 58.1984L38.5344 58.4518L38.2734 58.9139L38.4126 59.8478L38.3028 60.0217L38.6975 60.7172L38.5826 60.8612L38.7522 61.2637L38.6184 61.6413L38.8158 62.6249L39.5103 62.9329" stroke="black" stroke-width="1.20544" stroke-linecap="round" stroke-linejoin="round"/>
<path d="M42.8927 40.2783L42.1679 40.7801L39.8126 44.8389L38.5628 48.8927L38.3516 51.019L38.6454 51.4264" stroke="black" stroke-width="1.20544" stroke-linecap="round" stroke-linejoin="round"/>
<path d="M42.2427 39.7021L41.4587 40.2287L40.0409 41.6397L38.6967 44.0839L38.0579 46.3741L38.0445 48.1278L37.8477 48.4954" stroke="black" stroke-width="1.20544" stroke-linecap="round" stroke-linejoin="round"/>
<path d="M39.9428 35.6636L38.5907 37.9687L37.665 40.2838" stroke="black" stroke-width="1.20544" stroke-linecap="round" stroke-linejoin="round"/>
<path d="M40.1842 27.5513L40.0952 27.4072L40.1449 27.6308L39.7174 28.1474L39.2347 29.3795L38.3195 30.5221L37.0205 32.6285" stroke="black" stroke-width="1.20544" stroke-linecap="round" stroke-linejoin="round"/>
<path d="M67.0222 36.1606L66.8975 36.7717L67.403 37.502L67.5034 38.277L68.0572 39.4643L69.2185 40.1002L70.8938 40.2642" stroke="black" stroke-width="1.20544" stroke-linecap="round" stroke-linejoin="round"/>
<path d="M64.8155 43.5581H64.5918L64.6778 43.7667L65.4493 44.2735L66.9824 44.6312L70.6318 45.9825L70.8843 46.206" stroke="black" stroke-width="1.20544" stroke-linecap="round" stroke-linejoin="round"/>
<path d="M65.0858 43.1603H64.8438L65.0988 43.0063L65.5288 43.4286L66.2292 43.682L67.3592 44.606L68.0755 44.9041L70.1957 45.2916L71.9187 45.0779" stroke="black" stroke-width="1.20544" stroke-linecap="round" stroke-linejoin="round"/>
<path d="M66.3544 45.4302L65.4099 45.7829L65.4193 45.9667L65.0967 45.9717L65.2881 45.9418L65.8896 46.6722L67.2263 47.4471L70.5202 48.8233" stroke="black" stroke-width="1.20544" stroke-linecap="round" stroke-linejoin="round"/>
<path d="M64.7653 49.3705L64.7757 49.2612L64.5381 49.3655L64.7568 49.8127L65.1893 50.2747L65.7192 50.5429L69.201 51.6607L71.106 51.7949" stroke="black" stroke-width="1.20544" stroke-linecap="round" stroke-linejoin="round"/>
<path d="M63.7209 51.2329L63.4639 51.3571L65.853 52.8475L70.8306 54.0249" stroke="black" stroke-width="1.20544" stroke-linecap="round" stroke-linejoin="round"/>
<path d="M63.0312 54.8697L63.6576 54.4971L63.8336 54.8845L64.445 55.436L65.0406 55.6794L66.26 56.5389L66.691 57.2741L67.0872 57.607L69.1179 58.6204" stroke="black" stroke-width="1.20544" stroke-linecap="round" stroke-linejoin="round"/>
<path d="M65.9707 45.0581L67.1295 45.4208L66.5553 46.4193L66.7984 49.9912L67.1832 53.0267L68.5179 55.9578L68.6228 57.935" stroke="black" stroke-width="1.20544" stroke-linecap="round" stroke-linejoin="round"/>
<path d="M64.1123 46.5781L65.7488 51.3623L66.5412 52.793L66.9513 54.9889L67.6741 56.5935L68.221 60.8262L68.1693 65.8289" stroke="black" stroke-width="1.20544" stroke-linecap="round" stroke-linejoin="round"/>
<path d="M62.7518 53.8208L62.7031 54.0841L63.5219 55.336L64.2114 55.9123L66.3872 58.5652L67.4277 60.0406L67.5117 60.3834" stroke="black" stroke-width="1.20544" stroke-linecap="round" stroke-linejoin="round"/>
<path d="M58.8545 48.8382L59.5167 48.704L60.3061 48.2917L60.7291 46.5032L61.3008 45.0674L63.0263 43.443L63.768 41.9923L64.6742 40.9491L64.6593 40.6112L65.0819 40.2535L65.0799 40.0946L66.3465 39.7667L66.7263 39.2649L67.2349 38.3309L67.1966 37.8441L67.383 37.4814L67.1971 37.1685" stroke="black" stroke-width="1.20544" stroke-linecap="round" stroke-linejoin="round"/>
<path d="M49.1934 12.1099L51.6218 12.1844L53.0495 12.7855L54.6358 13.0786L58.1226 14.6684L61.2569 17.2368L62.6692 18.6179L63.4437 19.8102L63.7246 20.4958L63.7773 21.226" stroke="black" stroke-width="1.20544" stroke-linecap="round" stroke-linejoin="round"/>
<path d="M53.3896 14.5103L55.7375 15.171L57.1131 16.2788L60.3299 20.119L61.091 21.6492L61.8103 22.6378L62.3432 24.0288" stroke="black" stroke-width="1.20544" stroke-linecap="round" stroke-linejoin="round"/>
<path d="M54.9219 15.2598L54.5908 15.5181L54.6594 16.9539L55.0601 18.1958L56.2825 20.7295L58.5926 23.3675L60.3092 24.843L60.7163 25.5683" stroke="black" stroke-width="1.20544" stroke-linecap="round" stroke-linejoin="round"/>
<path d="M53.917 15.9805L55.8642 17.0585L57.8268 18.6433L59.353 19.6021L62.6851 20.7696" stroke="black" stroke-width="1.20544" stroke-linecap="round" stroke-linejoin="round"/>
</svg>
