<svg width="118" height="118" viewBox="0 0 118 118" fill="none" xmlns="http://www.w3.org/2000/svg">
<g filter="url(#filter0_d_893_406)">
<rect x="4" width="110" height="110" fill="#F8E8B2"/>
<path d="M22.5825 33.1136C22.135 33.1136 21.7432 32.9953 21.407 32.7585C21.0709 32.5218 20.8081 32.1915 20.6187 31.7678C20.4317 31.344 20.3382 30.8504 20.3382 30.2869C20.3382 29.7259 20.4317 29.2346 20.6187 28.8132C20.8081 28.3894 21.0721 28.0604 21.4106 27.826C21.7491 27.5893 22.1433 27.4709 22.5931 27.4709C22.9246 27.4709 23.2004 27.5301 23.4205 27.6484C23.6407 27.7644 23.8171 27.9089 23.9497 28.0817C24.0822 28.2545 24.1852 28.4226 24.2586 28.5859H24.3154V25.7273H24.9511V33H24.3332V31.9879H24.2586C24.1852 32.1536 24.0811 32.3241 23.9461 32.4993C23.8112 32.6721 23.6324 32.8177 23.4099 32.9361C23.1897 33.0545 22.9139 33.1136 22.5825 33.1136ZM22.657 32.5348C23.0098 32.5348 23.3105 32.4389 23.559 32.2472C23.8076 32.053 23.997 31.7867 24.1272 31.4482C24.2598 31.1072 24.3261 30.7166 24.3261 30.2763C24.3261 29.8407 24.261 29.456 24.1308 29.1222C24.0006 28.786 23.8112 28.5232 23.5626 28.3338C23.314 28.142 23.0122 28.0462 22.657 28.0462C22.2925 28.0462 21.9847 28.1456 21.7338 28.3445C21.4852 28.541 21.2958 28.8073 21.1656 29.1435C21.0377 29.4796 20.9738 29.8572 20.9738 30.2763C20.9738 30.7 21.0389 31.0824 21.1691 31.4233C21.2993 31.7642 21.4887 32.0353 21.7373 32.2365C21.9883 32.4354 22.2948 32.5348 22.657 32.5348ZM26.7586 33V27.5455H27.3943V33H26.7586ZM27.0818 26.608C26.9516 26.608 26.8403 26.5642 26.748 26.4766C26.6556 26.3866 26.6095 26.2789 26.6095 26.1534C26.6095 26.0279 26.6556 25.9214 26.748 25.8338C26.8403 25.7438 26.9516 25.6989 27.0818 25.6989C27.212 25.6989 27.3232 25.7438 27.4156 25.8338C27.5079 25.9214 27.5541 26.0279 27.5541 26.1534C27.5541 26.2789 27.5079 26.3866 27.4156 26.4766C27.3232 26.5642 27.212 26.608 27.0818 26.608ZM33.2883 27.5455L31.2961 33H30.6214L28.6292 27.5455H29.3145L30.9339 32.1655H30.9836L32.6029 27.5455H33.2883ZM36.5349 33.1136C36.0259 33.1136 35.5856 32.9953 35.2139 32.7585C34.8422 32.5194 34.5545 32.1892 34.3509 31.7678C34.1497 31.344 34.0491 30.8563 34.0491 30.3047C34.0491 29.7554 34.1497 29.2678 34.3509 28.8416C34.5545 28.4131 34.8351 28.0781 35.1926 27.8366C35.5524 27.5928 35.9679 27.4709 36.439 27.4709C36.7349 27.4709 37.0202 27.5253 37.2948 27.6342C37.5695 27.7408 37.8157 27.9053 38.0335 28.1278C38.2536 28.348 38.4276 28.6262 38.5555 28.9624C38.6833 29.2962 38.7472 29.6915 38.7472 30.1484V30.4609H34.4859V29.9034H38.1009C38.1009 29.553 38.0299 29.2382 37.8879 28.9588C37.7482 28.6771 37.5529 28.4545 37.3019 28.2912C37.0534 28.1278 36.7657 28.0462 36.439 28.0462C36.0934 28.0462 35.7892 28.1385 35.5264 28.3232C35.2636 28.5078 35.0576 28.7517 34.9085 29.0547C34.7617 29.3577 34.6871 29.6892 34.6847 30.049V30.3828C34.6847 30.8161 34.7593 31.1948 34.9085 31.5192C35.06 31.8411 35.2742 32.0909 35.5512 32.2685C35.8282 32.446 36.1561 32.5348 36.5349 32.5348C36.7929 32.5348 37.019 32.4946 37.2132 32.4141C37.4097 32.3336 37.5742 32.2259 37.7068 32.0909C37.8417 31.9536 37.9435 31.8033 38.0122 31.6399L38.6123 31.8352C38.5294 32.0649 38.3933 32.2768 38.2039 32.4709C38.0169 32.665 37.7825 32.8213 37.5008 32.9396C37.2214 33.0556 36.8995 33.1136 36.5349 33.1136ZM40.1402 33V27.5455H40.7545V28.3835H40.8007C40.9096 28.1089 41.099 27.8875 41.3689 27.7195C41.6411 27.549 41.9489 27.4638 42.2922 27.4638C42.3443 27.4638 42.4023 27.465 42.4662 27.4673C42.5301 27.4697 42.5834 27.4721 42.626 27.4744V28.1172C42.5976 28.1125 42.5479 28.1054 42.4768 28.0959C42.4058 28.0864 42.3289 28.0817 42.246 28.0817C41.9619 28.0817 41.7086 28.142 41.4861 28.2628C41.2659 28.3812 41.0919 28.5457 40.964 28.7564C40.8362 28.9671 40.7723 29.2074 40.7723 29.4773V33H40.1402ZM47.3694 28.7422L46.7906 28.9055C46.7338 28.7422 46.6533 28.5942 46.5491 28.4616C46.4449 28.3291 46.3088 28.2237 46.1407 28.1456C45.975 28.0675 45.769 28.0284 45.5228 28.0284C45.1535 28.0284 44.8505 28.116 44.6137 28.2912C44.377 28.4664 44.2586 28.6925 44.2586 28.9695C44.2586 29.2038 44.3391 29.3944 44.5001 29.5412C44.6634 29.6856 44.9144 29.8004 45.2529 29.8857L46.0768 30.0881C46.5337 30.1993 46.8758 30.3757 47.1031 30.6172C47.3327 30.8587 47.4475 31.1617 47.4475 31.5263C47.4475 31.834 47.3623 32.1075 47.1919 32.3466C47.0214 32.5857 46.7835 32.7739 46.4781 32.9112C46.175 33.0462 45.8235 33.1136 45.4234 33.1136C44.8907 33.1136 44.4516 32.9941 44.1059 32.755C43.7603 32.5135 43.5389 32.1655 43.4419 31.7109L44.0491 31.5618C44.1272 31.8861 44.2799 32.1312 44.5072 32.2969C44.7368 32.4626 45.0387 32.5455 45.4127 32.5455C45.8318 32.5455 46.1668 32.4519 46.4177 32.2649C46.6686 32.0755 46.7941 31.8388 46.7941 31.5547C46.7941 31.3345 46.7207 31.1499 46.574 31.0007C46.4272 30.8492 46.2046 30.7379 45.9063 30.6669L45.015 30.4538C44.5415 30.3402 44.1911 30.1603 43.9639 29.9141C43.7366 29.6679 43.623 29.3625 43.623 28.9979C43.623 28.6972 43.7046 28.4332 43.868 28.206C44.0313 27.9763 44.2562 27.7964 44.5427 27.6662C44.8292 27.536 45.1559 27.4709 45.5228 27.4709C46.0223 27.4709 46.4213 27.5845 46.7195 27.8118C47.0202 28.0367 47.2368 28.3468 47.3694 28.7422ZM51.0368 33.1136C50.5278 33.1136 50.0875 32.9953 49.7158 32.7585C49.3441 32.5194 49.0565 32.1892 48.8529 31.7678C48.6517 31.344 48.551 30.8563 48.551 30.3047C48.551 29.7554 48.6517 29.2678 48.8529 28.8416C49.0565 28.4131 49.337 28.0781 49.6945 27.8366C50.0544 27.5928 50.4698 27.4709 50.941 27.4709C51.2369 27.4709 51.5222 27.5253 51.7968 27.6342C52.0714 27.7408 52.3176 27.9053 52.5354 28.1278C52.7556 28.348 52.9296 28.6262 53.0574 28.9624C53.1853 29.2962 53.2492 29.6915 53.2492 30.1484V30.4609H48.9878V29.9034H52.6029C52.6029 29.553 52.5319 29.2382 52.3898 28.9588C52.2501 28.6771 52.0548 28.4545 51.8039 28.2912C51.5553 28.1278 51.2677 28.0462 50.941 28.0462C50.5953 28.0462 50.2911 28.1385 50.0283 28.3232C49.7655 28.5078 49.5596 28.7517 49.4104 29.0547C49.2636 29.3577 49.1891 29.6892 49.1867 30.049V30.3828C49.1867 30.8161 49.2613 31.1948 49.4104 31.5192C49.5619 31.8411 49.7762 32.0909 50.0532 32.2685C50.3302 32.446 50.6581 32.5348 51.0368 32.5348C51.2949 32.5348 51.521 32.4946 51.7151 32.4141C51.9116 32.3336 52.0761 32.2259 52.2087 32.0909C52.3437 31.9536 52.4455 31.8033 52.5141 31.6399L53.1143 31.8352C53.0314 32.0649 52.8953 32.2768 52.7059 32.4709C52.5189 32.665 52.2845 32.8213 52.0028 32.9396C51.7234 33.0556 51.4014 33.1136 51.0368 33.1136ZM57.4546 35.0455V27.5455H58.069V28.5859H58.1436C58.2193 28.4226 58.3235 28.2557 58.4561 28.0852C58.5886 27.9124 58.7638 27.7668 58.9816 27.6484C59.2018 27.5301 59.4788 27.4709 59.8126 27.4709C60.2624 27.4709 60.6554 27.5893 60.9916 27.826C61.3301 28.0604 61.5929 28.3894 61.7799 28.8132C61.9693 29.2346 62.064 29.7259 62.064 30.2869C62.064 30.8504 61.9693 31.344 61.7799 31.7678C61.5929 32.1915 61.3301 32.5218 60.9916 32.7585C60.6554 32.9953 60.2648 33.1136 59.8197 33.1136C59.4906 33.1136 59.2148 33.0545 58.9923 32.9361C58.7721 32.8177 58.5934 32.6721 58.4561 32.4993C58.3211 32.3241 58.2169 32.1536 58.1436 31.9879H58.0867V35.0455H57.4546ZM58.0796 30.2763C58.0796 30.7166 58.1447 31.1072 58.2749 31.4482C58.4075 31.7867 58.5969 32.053 58.8431 32.2472C59.0917 32.4389 59.3924 32.5348 59.7451 32.5348C60.1073 32.5348 60.4127 32.4354 60.6613 32.2365C60.9123 32.0353 61.1028 31.7642 61.233 31.4233C61.3656 31.0824 61.4319 30.7 61.4319 30.2763C61.4319 29.8572 61.3668 29.4796 61.2366 29.1435C61.1088 28.8073 60.9194 28.541 60.6684 28.3445C60.4175 28.1456 60.1097 28.0462 59.7451 28.0462C59.39 28.0462 59.0882 28.142 58.8396 28.3338C58.591 28.5232 58.4016 28.786 58.2714 29.1222C58.1436 29.456 58.0796 29.8407 58.0796 30.2763ZM64.9742 33.1243C64.6451 33.1243 64.3444 33.0604 64.0722 32.9325C63.7999 32.8023 63.5833 32.6153 63.4223 32.3714C63.2613 32.1252 63.1808 31.8269 63.1808 31.4766C63.1808 31.2067 63.2317 30.9794 63.3335 30.7947C63.4353 30.6101 63.5798 30.4586 63.7668 30.3402C63.9538 30.2218 64.1752 30.1283 64.4308 30.0597C64.6865 29.991 64.9682 29.9377 65.276 29.8999C65.5814 29.862 65.8395 29.8288 66.0502 29.8004C66.2632 29.772 66.4254 29.727 66.5367 29.6655C66.6479 29.6039 66.7036 29.5045 66.7036 29.3672V29.2393C66.7036 28.8677 66.5923 28.5753 66.3698 28.3622C66.1496 28.1468 65.8324 28.0391 65.4181 28.0391C65.0251 28.0391 64.7043 28.1255 64.4557 28.2983C64.2095 28.4711 64.0367 28.6747 63.9372 28.9091L63.3371 28.6925C63.4602 28.3942 63.6307 28.1562 63.8485 27.9787C64.0663 27.7988 64.3101 27.6697 64.58 27.5916C64.8499 27.5111 65.1233 27.4709 65.4003 27.4709C65.6086 27.4709 65.8253 27.4981 66.0502 27.5526C66.2774 27.607 66.4881 27.7017 66.6823 27.8366C66.8764 27.9692 67.0338 28.1551 67.1546 28.3942C67.2753 28.6309 67.3357 28.9316 67.3357 29.2962V33H66.7036V32.1371H66.6645C66.5887 32.2981 66.4763 32.4543 66.3271 32.6058C66.178 32.7573 65.991 32.8816 65.7661 32.9787C65.5412 33.0758 65.2772 33.1243 64.9742 33.1243ZM65.0594 32.5455C65.3956 32.5455 65.6868 32.4709 65.933 32.3217C66.1792 32.1726 66.3686 31.9749 66.5012 31.7287C66.6361 31.4801 66.7036 31.2067 66.7036 30.9084V30.12C66.6562 30.165 66.5769 30.2053 66.4656 30.2408C66.3567 30.2763 66.2301 30.3082 66.0857 30.3366C65.9436 30.3627 65.8016 30.3852 65.6595 30.4041C65.5175 30.4231 65.3896 30.4396 65.276 30.4538C64.9682 30.4917 64.7055 30.5509 64.4877 30.6314C64.2699 30.7119 64.103 30.8232 63.9869 30.9652C63.8709 31.1049 63.8129 31.2848 63.8129 31.505C63.8129 31.8364 63.9313 32.0933 64.1681 32.2756C64.4048 32.4555 64.7019 32.5455 65.0594 32.5455ZM69.2622 35.0455C69.1367 35.0455 69.0195 35.0336 68.9106 35.0099C68.8017 34.9863 68.7153 34.9602 68.6514 34.9318L68.8218 34.3743C69.0373 34.4406 69.229 34.4643 69.3971 34.4453C69.5652 34.4287 69.7143 34.353 69.8445 34.218C69.9748 34.0855 70.0908 33.8819 70.1926 33.6072L70.3914 33.0533L68.385 27.5455H69.0704L70.6897 32.1655H70.7394L72.3588 27.5455H73.0441L70.7359 33.8629C70.6388 34.1257 70.5193 34.3447 70.3772 34.5199C70.2352 34.6974 70.0706 34.8288 69.8836 34.9141C69.699 35.0017 69.4918 35.0455 69.2622 35.0455ZM74.2808 33V27.5455H74.8952V28.3835H74.952C75.0609 28.1018 75.242 27.8804 75.4953 27.7195C75.751 27.5561 76.0576 27.4744 76.415 27.4744C76.7915 27.4744 77.1004 27.5632 77.3419 27.7408C77.5857 27.916 77.768 28.1574 77.8888 28.4652H77.9349C78.058 28.1622 78.2581 27.9219 78.5351 27.7443C78.8144 27.5644 79.153 27.4744 79.5507 27.4744C80.0573 27.4744 80.4574 27.6342 80.751 27.9538C81.0445 28.2711 81.1913 28.7351 81.1913 29.3459V33H80.5592V29.3459C80.5592 28.915 80.4491 28.5919 80.229 28.3764C80.0088 28.161 79.7188 28.0533 79.3589 28.0533C78.9423 28.0533 78.6215 28.1811 78.3966 28.4368C78.1717 28.6925 78.0592 29.0168 78.0592 29.4098V33H77.4129V29.2891C77.4129 28.9197 77.3099 28.6214 77.104 28.3942C76.898 28.1669 76.608 28.0533 76.2339 28.0533C75.983 28.0533 75.7569 28.1148 75.5557 28.2379C75.3568 28.361 75.1994 28.5327 75.0834 28.7528C74.9697 28.9706 74.9129 29.2216 74.9129 29.5057V33H74.2808ZM85.07 33.1136C84.561 33.1136 84.1207 32.9953 83.749 32.7585C83.3773 32.5194 83.0897 32.1892 82.8861 31.7678C82.6849 31.344 82.5843 30.8563 82.5843 30.3047C82.5843 29.7554 82.6849 29.2678 82.8861 28.8416C83.0897 28.4131 83.3702 28.0781 83.7277 27.8366C84.0876 27.5928 84.503 27.4709 84.9742 27.4709C85.2701 27.4709 85.5554 27.5253 85.83 27.6342C86.1046 27.7408 86.3508 27.9053 86.5686 28.1278C86.7888 28.348 86.9628 28.6262 87.0906 28.9624C87.2185 29.2962 87.2824 29.6915 87.2824 30.1484V30.4609H83.021V29.9034H86.6361C86.6361 29.553 86.5651 29.2382 86.423 28.9588C86.2834 28.6771 86.088 28.4545 85.8371 28.2912C85.5885 28.1278 85.3009 28.0462 84.9742 28.0462C84.6285 28.0462 84.3243 28.1385 84.0615 28.3232C83.7987 28.5078 83.5928 28.7517 83.4436 29.0547C83.2968 29.3577 83.2223 29.6892 83.2199 30.049V30.3828C83.2199 30.8161 83.2945 31.1948 83.4436 31.5192C83.5951 31.8411 83.8094 32.0909 84.0864 32.2685C84.3634 32.446 84.6913 32.5348 85.07 32.5348C85.3281 32.5348 85.5542 32.4946 85.7483 32.4141C85.9448 32.3336 86.1093 32.2259 86.2419 32.0909C86.3769 31.9536 86.4787 31.8033 86.5473 31.6399L87.1475 31.8352C87.0646 32.0649 86.9285 32.2768 86.7391 32.4709C86.5521 32.665 86.3177 32.8213 86.036 32.9396C85.7566 33.0556 85.4346 33.1136 85.07 33.1136ZM89.3074 29.5909V33H88.6753V27.5455H89.2897V28.4013H89.3465C89.4743 28.1219 89.6732 27.8982 89.9431 27.7301C90.2153 27.5597 90.5515 27.4744 90.9516 27.4744C91.3186 27.4744 91.6405 27.5514 91.9175 27.7053C92.1969 27.8568 92.4135 28.0805 92.5674 28.3764C92.7236 28.6723 92.8018 29.0357 92.8018 29.4666V33H92.1697V29.5057C92.1697 29.0582 92.0442 28.7043 91.7932 28.4439C91.5447 28.1835 91.2108 28.0533 90.7918 28.0533C90.5054 28.0533 90.2509 28.1148 90.0283 28.2379C89.8058 28.361 89.6294 28.5386 89.4992 28.7706C89.3714 29.0002 89.3074 29.2737 89.3074 29.5909ZM96.6148 27.5455V28.0959H94.0118V27.5455H96.6148ZM94.825 26.2386H95.4607V31.576C95.4607 31.8033 95.4997 31.982 95.5779 32.1122C95.656 32.2401 95.7578 32.3312 95.8833 32.3857C96.0087 32.4377 96.1425 32.4638 96.2845 32.4638C96.3674 32.4638 96.4384 32.459 96.4976 32.4496C96.5568 32.4377 96.6089 32.4259 96.6539 32.4141L96.7888 32.9858C96.7272 33.0095 96.6515 33.0308 96.5615 33.0497C96.4716 33.071 96.3603 33.0817 96.2277 33.0817C95.9957 33.0817 95.772 33.0308 95.5566 32.929C95.3435 32.8272 95.1683 32.6757 95.031 32.4744C94.8937 32.2732 94.825 32.0234 94.825 31.7251V26.2386ZM16.3169 45V39.5455H16.9313V40.3835H16.9881C17.097 40.1018 17.2781 39.8804 17.5314 39.7195C17.7871 39.5561 18.0937 39.4744 18.4512 39.4744C18.8276 39.4744 19.1365 39.5632 19.378 39.7408C19.6219 39.916 19.8042 40.1574 19.9249 40.4652H19.9711C20.0942 40.1622 20.2942 39.9219 20.5712 39.7443C20.8506 39.5644 21.1891 39.4744 21.5868 39.4744C22.0935 39.4744 22.4935 39.6342 22.7871 39.9538C23.0807 40.2711 23.2275 40.7351 23.2275 41.3459V45H22.5953V41.3459C22.5953 40.915 22.4853 40.5919 22.2651 40.3764C22.0449 40.161 21.7549 40.0533 21.3951 40.0533C20.9784 40.0533 20.6576 40.1811 20.4327 40.4368C20.2078 40.6925 20.0953 41.0168 20.0953 41.4098V45H19.449V41.2891C19.449 40.9197 19.3461 40.6214 19.1401 40.3942C18.9341 40.1669 18.6441 40.0533 18.2701 40.0533C18.0191 40.0533 17.793 40.1148 17.5918 40.2379C17.3929 40.361 17.2355 40.5327 17.1195 40.7528C17.0059 40.9706 16.949 41.2216 16.949 41.5057V45H16.3169ZM27.1062 45.1136C26.5972 45.1136 26.1568 44.9953 25.7852 44.7585C25.4135 44.5194 25.1258 44.1892 24.9222 43.7678C24.721 43.344 24.6204 42.8563 24.6204 42.3047C24.6204 41.7554 24.721 41.2678 24.9222 40.8416C25.1258 40.4131 25.4064 40.0781 25.7638 39.8366C26.1237 39.5928 26.5392 39.4709 27.0103 39.4709C27.3062 39.4709 27.5915 39.5253 27.8661 39.6342C28.1407 39.7408 28.387 39.9053 28.6048 40.1278C28.8249 40.348 28.9989 40.6262 29.1268 40.9624C29.2546 41.2962 29.3185 41.6915 29.3185 42.1484V42.4609H25.0572V41.9034H28.6722C28.6722 41.553 28.6012 41.2382 28.4592 40.9588C28.3195 40.6771 28.1242 40.4545 27.8732 40.2912C27.6246 40.1278 27.337 40.0462 27.0103 40.0462C26.6647 40.0462 26.3604 40.1385 26.0977 40.3232C25.8349 40.5078 25.6289 40.7517 25.4798 41.0547C25.333 41.3577 25.2584 41.6892 25.256 42.049V42.3828C25.256 42.8161 25.3306 43.1948 25.4798 43.5192C25.6313 43.8411 25.8455 44.0909 26.1225 44.2685C26.3995 44.446 26.7274 44.5348 27.1062 44.5348C27.3642 44.5348 27.5903 44.4946 27.7844 44.4141C27.9809 44.3336 28.1455 44.2259 28.2781 44.0909C28.413 43.9536 28.5148 43.8033 28.5835 43.6399L29.1836 43.8352C29.1007 44.0649 28.9646 44.2768 28.7752 44.4709C28.5882 44.665 28.3538 44.8213 28.0721 44.9396C27.7927 45.0556 27.4708 45.1136 27.1062 45.1136ZM32.8599 39.5455V40.0959H30.2569V39.5455H32.8599ZM31.0701 38.2386H31.7058V43.576C31.7058 43.8033 31.7449 43.982 31.823 44.1122C31.9011 44.2401 32.0029 44.3312 32.1284 44.3857C32.2538 44.4377 32.3876 44.4638 32.5297 44.4638C32.6125 44.4638 32.6835 44.459 32.7427 44.4496C32.8019 44.4377 32.854 44.4259 32.899 44.4141L33.0339 44.9858C32.9724 45.0095 32.8966 45.0308 32.8066 45.0497C32.7167 45.071 32.6054 45.0817 32.4728 45.0817C32.2408 45.0817 32.0171 45.0308 31.8017 44.929C31.5886 44.8272 31.4134 44.6757 31.2761 44.4744C31.1388 44.2732 31.0701 44.0234 31.0701 43.7251V38.2386ZM35.0447 41.5909V45H34.4126V37.7273H35.0447V40.4013H35.1016C35.2294 40.1196 35.4271 39.8946 35.6946 39.7266C35.9645 39.5585 36.3054 39.4744 36.7173 39.4744C37.0866 39.4744 37.411 39.5502 37.6903 39.7017C37.9697 39.8532 38.1875 40.0769 38.3438 40.3729C38.5 40.6688 38.5781 41.0334 38.5781 41.4666V45H37.9425V41.5057C37.9425 41.0559 37.817 40.7019 37.5661 40.4439C37.3175 40.1835 36.9813 40.0533 36.5575 40.0533C36.2663 40.0533 36.0071 40.1148 35.7798 40.2379C35.5526 40.361 35.3726 40.5386 35.2401 40.7706C35.1098 41.0002 35.0447 41.2737 35.0447 41.5909ZM42.3627 45.1136C41.8916 45.1136 41.475 44.9941 41.1127 44.755C40.7529 44.5159 40.4712 44.1856 40.2676 43.7642C40.064 43.3404 39.9622 42.8516 39.9622 42.2976C39.9622 41.7389 40.064 41.2476 40.2676 40.8239C40.4712 40.3977 40.7529 40.0663 41.1127 39.8295C41.475 39.5904 41.8916 39.4709 42.3627 39.4709C42.8339 39.4709 43.2493 39.5904 43.6092 39.8295C43.969 40.0687 44.2508 40.4001 44.4544 40.8239C44.6603 41.2476 44.7633 41.7389 44.7633 42.2976C44.7633 42.8516 44.6615 43.3404 44.4579 43.7642C44.2543 44.1856 43.9714 44.5159 43.6092 44.755C43.2493 44.9941 42.8339 45.1136 42.3627 45.1136ZM42.3627 44.5348C42.7415 44.5348 43.0623 44.433 43.3251 44.2294C43.5879 44.0258 43.7868 43.7547 43.9217 43.4162C44.059 43.0777 44.1277 42.7048 44.1277 42.2976C44.1277 41.8904 44.059 41.5163 43.9217 41.1754C43.7868 40.8345 43.5879 40.5611 43.3251 40.3551C43.0623 40.1491 42.7415 40.0462 42.3627 40.0462C41.9863 40.0462 41.6655 40.1491 41.4004 40.3551C41.1376 40.5611 40.9376 40.8345 40.8002 41.1754C40.6653 41.5163 40.5978 41.8904 40.5978 42.2976C40.5978 42.7048 40.6653 43.0777 40.8002 43.4162C40.9376 43.7547 41.1376 44.0258 41.4004 44.2294C41.6632 44.433 41.984 44.5348 42.3627 44.5348ZM48.1147 45.1136C47.6673 45.1136 47.2754 44.9953 46.9393 44.7585C46.6031 44.5218 46.3403 44.1915 46.1509 43.7678C45.9639 43.344 45.8704 42.8504 45.8704 42.2869C45.8704 41.7259 45.9639 41.2346 46.1509 40.8132C46.3403 40.3894 46.6043 40.0604 46.9428 39.826C47.2814 39.5893 47.6755 39.4709 48.1254 39.4709C48.4568 39.4709 48.7326 39.5301 48.9528 39.6484C49.1729 39.7644 49.3493 39.9089 49.4819 40.0817C49.6145 40.2545 49.7174 40.4226 49.7908 40.5859H49.8477V37.7273H50.4833V45H49.8654V43.9879H49.7908C49.7174 44.1536 49.6133 44.3241 49.4783 44.4993C49.3434 44.6721 49.1647 44.8177 48.9421 44.9361C48.7219 45.0545 48.4461 45.1136 48.1147 45.1136ZM48.1893 44.5348C48.542 44.5348 48.8427 44.4389 49.0913 44.2472C49.3398 44.053 49.5292 43.7867 49.6594 43.4482C49.792 43.1072 49.8583 42.7166 49.8583 42.2763C49.8583 41.8407 49.7932 41.456 49.663 41.1222C49.5328 40.786 49.3434 40.5232 49.0948 40.3338C48.8462 40.142 48.5444 40.0462 48.1893 40.0462C47.8247 40.0462 47.5169 40.1456 47.266 40.3445C47.0174 40.541 46.828 40.8073 46.6978 41.1435C46.57 41.4796 46.506 41.8572 46.506 42.2763C46.506 42.7 46.5711 43.0824 46.7013 43.4233C46.8316 43.7642 47.021 44.0353 47.2695 44.2365C47.5205 44.4354 47.8271 44.5348 48.1893 44.5348ZM55.9485 40.7422L55.3697 40.9055C55.3129 40.7422 55.2324 40.5942 55.1282 40.4616C55.024 40.3291 54.8879 40.2237 54.7198 40.1456C54.5541 40.0675 54.3481 40.0284 54.1019 40.0284C53.7326 40.0284 53.4296 40.116 53.1928 40.2912C52.9561 40.4664 52.8377 40.6925 52.8377 40.9695C52.8377 41.2038 52.9182 41.3944 53.0792 41.5412C53.2425 41.6856 53.4935 41.8004 53.832 41.8857L54.6559 42.0881C55.1128 42.1993 55.4549 42.3757 55.6822 42.6172C55.9118 42.8587 56.0266 43.1617 56.0266 43.5263C56.0266 43.834 55.9414 44.1075 55.771 44.3466C55.6005 44.5857 55.3626 44.7739 55.0572 44.9112C54.7541 45.0462 54.4026 45.1136 54.0025 45.1136C53.4698 45.1136 53.0307 44.9941 52.685 44.755C52.3394 44.5135 52.118 44.1655 52.021 43.7109L52.6282 43.5618C52.7063 43.8861 52.859 44.1312 53.0863 44.2969C53.3159 44.4626 53.6178 44.5455 53.9918 44.5455C54.4109 44.5455 54.7459 44.4519 54.9968 44.2649C55.2478 44.0755 55.3732 43.8388 55.3732 43.5547C55.3732 43.3345 55.2998 43.1499 55.1531 43.0007C55.0063 42.8492 54.7837 42.7379 54.4854 42.6669L53.5941 42.4538C53.1206 42.3402 52.7702 42.1603 52.543 41.9141C52.3157 41.6679 52.2021 41.3625 52.2021 40.9979C52.2021 40.6972 52.2837 40.4332 52.4471 40.206C52.6104 39.9763 52.8353 39.7964 53.1218 39.6662C53.4083 39.536 53.735 39.4709 54.1019 39.4709C54.6014 39.4709 55.0004 39.5845 55.2987 39.8118C55.5993 40.0367 55.8159 40.3468 55.9485 40.7422ZM60.2303 45V39.5455H60.8659V45H60.2303ZM60.5534 38.608C60.4232 38.608 60.312 38.5642 60.2196 38.4766C60.1273 38.3866 60.0811 38.2789 60.0811 38.1534C60.0811 38.0279 60.1273 37.9214 60.2196 37.8338C60.312 37.7438 60.4232 37.6989 60.5534 37.6989C60.6837 37.6989 60.7949 37.7438 60.8873 37.8338C60.9796 37.9214 61.0257 38.0279 61.0257 38.1534C61.0257 38.2789 60.9796 38.3866 60.8873 38.4766C60.7949 38.5642 60.6837 38.608 60.5534 38.608ZM66.2024 40.7422L65.6236 40.9055C65.5668 40.7422 65.4863 40.5942 65.3821 40.4616C65.2779 40.3291 65.1418 40.2237 64.9737 40.1456C64.808 40.0675 64.602 40.0284 64.3558 40.0284C63.9865 40.0284 63.6835 40.116 63.4467 40.2912C63.21 40.4664 63.0916 40.6925 63.0916 40.9695C63.0916 41.2038 63.1721 41.3944 63.3331 41.5412C63.4964 41.6856 63.7474 41.8004 64.0859 41.8857L64.9098 42.0881C65.3667 42.1993 65.7088 42.3757 65.9361 42.6172C66.1657 42.8587 66.2805 43.1617 66.2805 43.5263C66.2805 43.834 66.1953 44.1075 66.0249 44.3466C65.8544 44.5857 65.6165 44.7739 65.3111 44.9112C65.008 45.0462 64.6565 45.1136 64.2564 45.1136C63.7237 45.1136 63.2846 44.9941 62.9389 44.755C62.5933 44.5135 62.3719 44.1655 62.2749 43.7109L62.8821 43.5618C62.9602 43.8861 63.1129 44.1312 63.3402 44.2969C63.5698 44.4626 63.8717 44.5455 64.2457 44.5455C64.6648 44.5455 64.9998 44.4519 65.2507 44.2649C65.5017 44.0755 65.6271 43.8388 65.6271 43.5547C65.6271 43.3345 65.5537 43.1499 65.407 43.0007C65.2602 42.8492 65.0376 42.7379 64.7393 42.6669L63.848 42.4538C63.3745 42.3402 63.0241 42.1603 62.7969 41.9141C62.5696 41.6679 62.456 41.3625 62.456 40.9979C62.456 40.6972 62.5376 40.4332 62.701 40.206C62.8643 39.9763 63.0893 39.7964 63.3757 39.6662C63.6622 39.536 63.9889 39.4709 64.3558 39.4709C64.8554 39.4709 65.2543 39.5845 65.5526 39.8118C65.8532 40.0367 66.0698 40.3468 66.2024 40.7422ZM72.0005 45.1243C71.6715 45.1243 71.3708 45.0604 71.0985 44.9325C70.8263 44.8023 70.6097 44.6153 70.4487 44.3714C70.2877 44.1252 70.2072 43.8269 70.2072 43.4766C70.2072 43.2067 70.2581 42.9794 70.3599 42.7947C70.4617 42.6101 70.6061 42.4586 70.7931 42.3402C70.9802 42.2218 71.2015 42.1283 71.4572 42.0597C71.7129 41.991 71.9946 41.9377 72.3024 41.8999C72.6078 41.862 72.8658 41.8288 73.0765 41.8004C73.2896 41.772 73.4518 41.727 73.563 41.6655C73.6743 41.6039 73.7299 41.5045 73.7299 41.3672V41.2393C73.7299 40.8677 73.6187 40.5753 73.3961 40.3622C73.176 40.1468 72.8587 40.0391 72.4444 40.0391C72.0514 40.0391 71.7306 40.1255 71.4821 40.2983C71.2359 40.4711 71.063 40.6747 70.9636 40.9091L70.3635 40.6925C70.4866 40.3942 70.657 40.1562 70.8748 39.9787C71.0926 39.7988 71.3365 39.6697 71.6064 39.5916C71.8762 39.5111 72.1497 39.4709 72.4267 39.4709C72.635 39.4709 72.8516 39.4981 73.0765 39.5526C73.3038 39.607 73.5145 39.7017 73.7086 39.8366C73.9028 39.9692 74.0602 40.1551 74.1809 40.3942C74.3017 40.6309 74.362 40.9316 74.362 41.2962V45H73.7299V44.1371H73.6909C73.6151 44.2981 73.5027 44.4543 73.3535 44.6058C73.2044 44.7573 73.0173 44.8816 72.7924 44.9787C72.5675 45.0758 72.3036 45.1243 72.0005 45.1243ZM72.0858 44.5455C72.4219 44.5455 72.7131 44.4709 72.9593 44.3217C73.2056 44.1726 73.3949 43.9749 73.5275 43.7287C73.6625 43.4801 73.7299 43.2067 73.7299 42.9084V42.12C73.6826 42.165 73.6033 42.2053 73.492 42.2408C73.3831 42.2763 73.2565 42.3082 73.112 42.3366C72.97 42.3627 72.8279 42.3852 72.6859 42.4041C72.5439 42.4231 72.416 42.4396 72.3024 42.4538C71.9946 42.4917 71.7318 42.5509 71.514 42.6314C71.2962 42.7119 71.1293 42.8232 71.0133 42.9652C70.8973 43.1049 70.8393 43.2848 70.8393 43.505C70.8393 43.8364 70.9577 44.0933 71.1944 44.2756C71.4312 44.4555 71.7283 44.5455 72.0858 44.5455ZM76.6756 37.7273V45H76.0435V37.7273H76.6756ZM79.5591 45L77.9114 39.5455H78.579L79.8716 44.0447H79.9178L81.2069 39.5455H81.878L83.1564 44.0341H83.2061L84.4988 39.5455H85.1664L83.5186 45H82.8652L81.5726 40.5291H81.5051L80.2125 45H79.5591ZM87.9185 45.1243C87.5894 45.1243 87.2888 45.0604 87.0165 44.9325C86.7443 44.8023 86.5276 44.6153 86.3667 44.3714C86.2057 44.1252 86.1252 43.8269 86.1252 43.4766C86.1252 43.2067 86.1761 42.9794 86.2779 42.7947C86.3797 42.6101 86.5241 42.4586 86.7111 42.3402C86.8981 42.2218 87.1195 42.1283 87.3752 42.0597C87.6309 41.991 87.9126 41.9377 88.2203 41.8999C88.5257 41.862 88.7838 41.8288 88.9945 41.8004C89.2076 41.772 89.3697 41.727 89.481 41.6655C89.5923 41.6039 89.6479 41.5045 89.6479 41.3672V41.2393C89.6479 40.8677 89.5366 40.5753 89.3141 40.3622C89.0939 40.1468 88.7767 40.0391 88.3624 40.0391C87.9694 40.0391 87.6486 40.1255 87.4 40.2983C87.1538 40.4711 86.981 40.6747 86.8816 40.9091L86.2814 40.6925C86.4045 40.3942 86.575 40.1562 86.7928 39.9787C87.0106 39.7988 87.2544 39.6697 87.5243 39.5916C87.7942 39.5111 88.0676 39.4709 88.3446 39.4709C88.553 39.4709 88.7696 39.4981 88.9945 39.5526C89.2218 39.607 89.4325 39.7017 89.6266 39.8366C89.8207 39.9692 89.9782 40.1551 90.0989 40.3942C90.2196 40.6309 90.28 40.9316 90.28 41.2962V45H89.6479V44.1371H89.6088C89.5331 44.2981 89.4206 44.4543 89.2715 44.6058C89.1223 44.7573 88.9353 44.8816 88.7104 44.9787C88.4855 45.0758 88.2215 45.1243 87.9185 45.1243ZM88.0037 44.5455C88.3399 44.5455 88.6311 44.4709 88.8773 44.3217C89.1235 44.1726 89.3129 43.9749 89.4455 43.7287C89.5804 43.4801 89.6479 43.2067 89.6479 42.9084V42.12C89.6006 42.165 89.5212 42.2053 89.41 42.2408C89.3011 42.2763 89.1744 42.3082 89.03 42.3366C88.888 42.3627 88.7459 42.3852 88.6039 42.4041C88.4618 42.4231 88.334 42.4396 88.2203 42.4538C87.9126 42.4917 87.6498 42.5509 87.432 42.6314C87.2142 42.7119 87.0473 42.8232 86.9313 42.9652C86.8153 43.1049 86.7573 43.2848 86.7573 43.505C86.7573 43.8364 86.8757 44.0933 87.1124 44.2756C87.3491 44.4555 87.6462 44.5455 88.0037 44.5455ZM92.2065 47.0455C92.081 47.0455 91.9638 47.0336 91.8549 47.0099C91.746 46.9863 91.6596 46.9602 91.5957 46.9318L91.7662 46.3743C91.9816 46.4406 92.1734 46.4643 92.3414 46.4453C92.5095 46.4287 92.6587 46.353 92.7889 46.218C92.9191 46.0855 93.0351 45.8819 93.1369 45.6072L93.3358 45.0533L91.3294 39.5455H92.0147L93.6341 44.1655H93.6838L95.3031 39.5455H95.9885L93.6802 45.8629C93.5832 46.1257 93.4636 46.3447 93.3216 46.5199C93.1795 46.6974 93.015 46.8288 92.8279 46.9141C92.6433 47.0017 92.4361 47.0455 92.2065 47.0455ZM100.89 40.7422L100.311 40.9055C100.254 40.7422 100.174 40.5942 100.07 40.4616C99.9654 40.3291 99.8293 40.2237 99.6612 40.1456C99.4955 40.0675 99.2895 40.0284 99.0433 40.0284C98.674 40.0284 98.371 40.116 98.1342 40.2912C97.8975 40.4664 97.7791 40.6925 97.7791 40.9695C97.7791 41.2038 97.8596 41.3944 98.0206 41.5412C98.1839 41.6856 98.4349 41.8004 98.7734 41.8857L99.5973 42.0881C100.054 42.1993 100.396 42.3757 100.624 42.6172C100.853 42.8587 100.968 43.1617 100.968 43.5263C100.968 43.834 100.883 44.1075 100.712 44.3466C100.542 44.5857 100.304 44.7739 99.9986 44.9112C99.6955 45.0462 99.344 45.1136 98.9439 45.1136C98.4112 45.1136 97.9721 44.9941 97.6264 44.755C97.2808 44.5135 97.0594 44.1655 96.9624 43.7109L97.5696 43.5618C97.6477 43.8861 97.8004 44.1312 98.0277 44.2969C98.2573 44.4626 98.5592 44.5455 98.9332 44.5455C99.3523 44.5455 99.6873 44.4519 99.9382 44.2649C100.189 44.0755 100.315 43.8388 100.315 43.5547C100.315 43.3345 100.241 43.1499 100.094 43.0007C99.9477 42.8492 99.7251 42.7379 99.4268 42.6669L98.5355 42.4538C98.062 42.3402 97.7116 42.1603 97.4844 41.9141C97.2571 41.6679 97.1435 41.3625 97.1435 40.9979C97.1435 40.6972 97.2251 40.4332 97.3885 40.206C97.5518 39.9763 97.7768 39.7964 98.0632 39.6662C98.3497 39.536 98.6764 39.4709 99.0433 39.4709C99.5429 39.4709 99.9418 39.5845 100.24 39.8118C100.541 40.0367 100.757 40.3468 100.89 40.7422ZM21.6734 57.1243C21.3443 57.1243 21.0436 57.0604 20.7714 56.9325C20.4991 56.8023 20.2825 56.6153 20.1215 56.3714C19.9606 56.1252 19.8801 55.8269 19.8801 55.4766C19.8801 55.2067 19.931 54.9794 20.0328 54.7947C20.1346 54.6101 20.279 54.4586 20.466 54.3402C20.653 54.2218 20.8744 54.1283 21.1301 54.0597C21.3857 53.991 21.6675 53.9377 21.9752 53.8999C22.2806 53.862 22.5387 53.8288 22.7494 53.8004C22.9624 53.772 23.1246 53.727 23.2359 53.6655C23.3472 53.6039 23.4028 53.5045 23.4028 53.3672V53.2393C23.4028 52.8677 23.2915 52.5753 23.069 52.3622C22.8488 52.1468 22.5316 52.0391 22.1173 52.0391C21.7243 52.0391 21.4035 52.1255 21.1549 52.2983C20.9087 52.4711 20.7359 52.6747 20.6365 52.9091L20.0363 52.6925C20.1594 52.3942 20.3299 52.1562 20.5477 51.9787C20.7655 51.7988 21.0093 51.6697 21.2792 51.5916C21.5491 51.5111 21.8225 51.4709 22.0995 51.4709C22.3079 51.4709 22.5245 51.4981 22.7494 51.5526C22.9767 51.607 23.1874 51.7017 23.3815 51.8366C23.5756 51.9692 23.733 52.1551 23.8538 52.3942C23.9745 52.6309 24.0349 52.9316 24.0349 53.2962V57H23.4028V56.1371H23.3637C23.288 56.2981 23.1755 56.4543 23.0264 56.6058C22.8772 56.7573 22.6902 56.8816 22.4653 56.9787C22.2404 57.0758 21.9764 57.1243 21.6734 57.1243ZM21.7586 56.5455C22.0948 56.5455 22.386 56.4709 22.6322 56.3217C22.8784 56.1726 23.0678 55.9749 23.2004 55.7287C23.3353 55.4801 23.4028 55.2067 23.4028 54.9084V54.12C23.3554 54.165 23.2761 54.2053 23.1649 54.2408C23.056 54.2763 22.9293 54.3082 22.7849 54.3366C22.6428 54.3627 22.5008 54.3852 22.3588 54.4041C22.2167 54.4231 22.0889 54.4396 21.9752 54.4538C21.6675 54.4917 21.4047 54.5509 21.1869 54.6314C20.9691 54.7119 20.8022 54.8232 20.6862 54.9652C20.5702 55.1049 20.5122 55.2848 20.5122 55.505C20.5122 55.8364 20.6305 56.0933 20.8673 56.2756C21.104 56.4555 21.4011 56.5455 21.7586 56.5455ZM27.6801 57.1136C27.2327 57.1136 26.8409 56.9953 26.5047 56.7585C26.1685 56.5218 25.9057 56.1915 25.7164 55.7678C25.5293 55.344 25.4358 54.8504 25.4358 54.2869C25.4358 53.7259 25.5293 53.2346 25.7164 52.8132C25.9057 52.3894 26.1697 52.0604 26.5083 51.826C26.8468 51.5893 27.241 51.4709 27.6908 51.4709C28.0222 51.4709 28.298 51.5301 28.5182 51.6484C28.7384 51.7644 28.9147 51.9089 29.0473 52.0817C29.1799 52.2545 29.2829 52.4226 29.3563 52.5859H29.4131V49.7273H30.0487V57H29.4308V55.9879H29.3563C29.2829 56.1536 29.1787 56.3241 29.0438 56.4993C28.9088 56.6721 28.7301 56.8177 28.5075 56.9361C28.2874 57.0545 28.0116 57.1136 27.6801 57.1136ZM27.7547 56.5348C28.1075 56.5348 28.4081 56.4389 28.6567 56.2472C28.9053 56.053 29.0947 55.7867 29.2249 55.4482C29.3575 55.1072 29.4237 54.7166 29.4237 54.2763C29.4237 53.8407 29.3586 53.456 29.2284 53.1222C29.0982 52.786 28.9088 52.5232 28.6602 52.3338C28.4117 52.142 28.1098 52.0462 27.7547 52.0462C27.3901 52.0462 27.0824 52.1456 26.8314 52.3445C26.5828 52.541 26.3934 52.8073 26.2632 53.1435C26.1354 53.4796 26.0715 53.8572 26.0715 54.2763C26.0715 54.7 26.1366 55.0824 26.2668 55.4233C26.397 55.7642 26.5864 56.0353 26.835 56.2365C27.0859 56.4354 27.3925 56.5348 27.7547 56.5348ZM36.0715 51.5455L34.0793 57H33.4046L31.4124 51.5455H32.0977L33.7171 56.1655H33.7668L35.3861 51.5455H36.0715ZM38.6656 57.1243C38.3365 57.1243 38.0358 57.0604 37.7636 56.9325C37.4913 56.8023 37.2747 56.6153 37.1137 56.3714C36.9527 56.1252 36.8722 55.8269 36.8722 55.4766C36.8722 55.2067 36.9231 54.9794 37.0249 54.7947C37.1267 54.6101 37.2712 54.4586 37.4582 54.3402C37.6452 54.2218 37.8666 54.1283 38.1222 54.0597C38.3779 53.991 38.6597 53.9377 38.9674 53.8999C39.2728 53.862 39.5309 53.8288 39.7416 53.8004C39.9546 53.772 40.1168 53.727 40.2281 53.6655C40.3393 53.6039 40.395 53.5045 40.395 53.3672V53.2393C40.395 52.8677 40.2837 52.5753 40.0612 52.3622C39.841 52.1468 39.5238 52.0391 39.1095 52.0391C38.7165 52.0391 38.3957 52.1255 38.1471 52.2983C37.9009 52.4711 37.7281 52.6747 37.6286 52.9091L37.0285 52.6925C37.1516 52.3942 37.3221 52.1562 37.5399 51.9787C37.7577 51.7988 38.0015 51.6697 38.2714 51.5916C38.5413 51.5111 38.8147 51.4709 39.0917 51.4709C39.3 51.4709 39.5167 51.4981 39.7416 51.5526C39.9688 51.607 40.1795 51.7017 40.3737 51.8366C40.5678 51.9692 40.7252 52.1551 40.846 52.3942C40.9667 52.6309 41.0271 52.9316 41.0271 53.2962V57H40.395V56.1371H40.3559C40.2802 56.2981 40.1677 56.4543 40.0186 56.6058C39.8694 56.7573 39.6824 56.8816 39.4575 56.9787C39.2326 57.0758 38.9686 57.1243 38.6656 57.1243ZM38.7508 56.5455C39.087 56.5455 39.3782 56.4709 39.6244 56.3217C39.8706 56.1726 40.06 55.9749 40.1926 55.7287C40.3275 55.4801 40.395 55.2067 40.395 54.9084V54.12C40.3476 54.165 40.2683 54.2053 40.157 54.2408C40.0481 54.2763 39.9215 54.3082 39.7771 54.3366C39.635 54.3627 39.493 54.3852 39.3509 54.4041C39.2089 54.4231 39.0811 54.4396 38.9674 54.4538C38.6597 54.4917 38.3969 54.5509 38.1791 54.6314C37.9613 54.7119 37.7944 54.8232 37.6784 54.9652C37.5624 55.1049 37.5044 55.2848 37.5044 55.505C37.5044 55.8364 37.6227 56.0933 37.8595 56.2756C38.0962 56.4555 38.3933 56.5455 38.7508 56.5455ZM43.3406 53.5909V57H42.7085V51.5455H43.3229V52.4013H43.3797C43.5075 52.1219 43.7064 51.8982 43.9763 51.7301C44.2485 51.5597 44.5847 51.4744 44.9848 51.4744C45.3518 51.4744 45.6737 51.5514 45.9507 51.7053C46.2301 51.8568 46.4467 52.0805 46.6006 52.3764C46.7568 52.6723 46.835 53.0357 46.835 53.4666V57H46.2029V53.5057C46.2029 53.0582 46.0774 52.7043 45.8264 52.4439C45.5779 52.1835 45.2441 52.0533 44.825 52.0533C44.5386 52.0533 44.2841 52.1148 44.0615 52.2379C43.839 52.361 43.6626 52.5386 43.5324 52.7706C43.4046 53.0002 43.3406 53.2737 43.3406 53.5909ZM50.648 51.5455V52.0959H48.045V51.5455H50.648ZM48.8582 50.2386H49.4939V55.576C49.4939 55.8033 49.5329 55.982 49.6111 56.1122C49.6892 56.2401 49.791 56.3312 49.9165 56.3857C50.0419 56.4377 50.1757 56.4638 50.3177 56.4638C50.4006 56.4638 50.4716 56.459 50.5308 56.4496C50.59 56.4377 50.6421 56.4259 50.6871 56.4141L50.822 56.9858C50.7604 57.0095 50.6847 57.0308 50.5947 57.0497C50.5048 57.071 50.3935 57.0817 50.2609 57.0817C50.0289 57.0817 49.8052 57.0308 49.5898 56.929C49.3767 56.8272 49.2015 56.6757 49.0642 56.4744C48.9269 56.2732 48.8582 56.0234 48.8582 55.7251V50.2386ZM53.607 57.1243C53.2779 57.1243 52.9772 57.0604 52.705 56.9325C52.4327 56.8023 52.2161 56.6153 52.0551 56.3714C51.8941 56.1252 51.8137 55.8269 51.8137 55.4766C51.8137 55.2067 51.8646 54.9794 51.9664 54.7947C52.0682 54.6101 52.2126 54.4586 52.3996 54.3402C52.5866 54.2218 52.808 54.1283 53.0637 54.0597C53.3193 53.991 53.6011 53.9377 53.9088 53.8999C54.2142 53.862 54.4723 53.8288 54.683 53.8004C54.896 53.772 55.0582 53.727 55.1695 53.6655C55.2807 53.6039 55.3364 53.5045 55.3364 53.3672V53.2393C55.3364 52.8677 55.2251 52.5753 55.0026 52.3622C54.7824 52.1468 54.4652 52.0391 54.0509 52.0391C53.6579 52.0391 53.3371 52.1255 53.0885 52.2983C52.8423 52.4711 52.6695 52.6747 52.57 52.9091L51.9699 52.6925C52.093 52.3942 52.2635 52.1562 52.4813 51.9787C52.6991 51.7988 52.9429 51.6697 53.2128 51.5916C53.4827 51.5111 53.7561 51.4709 54.0331 51.4709C54.2414 51.4709 54.4581 51.4981 54.683 51.5526C54.9102 51.607 55.1209 51.7017 55.3151 51.8366C55.5092 51.9692 55.6666 52.1551 55.7874 52.3942C55.9081 52.6309 55.9685 52.9316 55.9685 53.2962V57H55.3364V56.1371H55.2973C55.2216 56.2981 55.1091 56.4543 54.96 56.6058C54.8108 56.7573 54.6238 56.8816 54.3989 56.9787C54.174 57.0758 53.91 57.1243 53.607 57.1243ZM53.6922 56.5455C54.0284 56.5455 54.3196 56.4709 54.5658 56.3217C54.812 56.1726 55.0014 55.9749 55.134 55.7287C55.2689 55.4801 55.3364 55.2067 55.3364 54.9084V54.12C55.289 54.165 55.2097 54.2053 55.0985 54.2408C54.9896 54.2763 54.8629 54.3082 54.7185 54.3366C54.5764 54.3627 54.4344 54.3852 54.2923 54.4041C54.1503 54.4231 54.0225 54.4396 53.9088 54.4538C53.6011 54.4917 53.3383 54.5509 53.1205 54.6314C52.9027 54.7119 52.7358 54.8232 52.6198 54.9652C52.5038 55.1049 52.4458 55.2848 52.4458 55.505C52.4458 55.8364 52.5641 56.0933 52.8009 56.2756C53.0376 56.4555 53.3347 56.5455 53.6922 56.5455ZM59.7309 59.1591C59.3592 59.1591 59.0337 59.1106 58.7544 59.0135C58.475 58.9188 58.2394 58.7886 58.0477 58.6229C57.8559 58.4571 57.7068 58.2713 57.6002 58.0653L58.1187 57.7244C58.1968 57.8617 58.301 57.9967 58.4312 58.1293C58.5638 58.2618 58.7354 58.3719 58.9461 58.4595C59.1592 58.5471 59.4208 58.5909 59.7309 58.5909C60.2139 58.5909 60.6033 58.4702 60.8992 58.2287C61.1975 57.9872 61.3467 57.612 61.3467 57.103V55.8743H61.2899C61.2165 56.04 61.1111 56.2057 60.9738 56.3714C60.8365 56.5348 60.6566 56.6709 60.434 56.7798C60.2139 56.8887 59.9404 56.9432 59.6137 56.9432C59.1781 56.9432 58.791 56.8355 58.4525 56.62C58.1163 56.4046 57.8512 56.0968 57.657 55.6967C57.4653 55.2943 57.3694 54.8149 57.3694 54.2585C57.3694 53.7069 57.4629 53.2216 57.6499 52.8026C57.8393 52.3835 58.1033 52.0568 58.4419 51.8224C58.7804 51.5881 59.1746 51.4709 59.6244 51.4709C59.9582 51.4709 60.2352 51.5301 60.4553 51.6484C60.6755 51.7644 60.8519 51.9089 60.9845 52.0817C61.1194 52.2545 61.2248 52.4226 61.3005 52.5859H61.3644V51.5455H61.9823V57.142C61.9823 57.6037 61.8841 57.9837 61.6876 58.282C61.4911 58.5803 61.2236 58.8004 60.885 58.9425C60.5465 59.0869 60.1618 59.1591 59.7309 59.1591ZM59.6883 56.3643C60.0387 56.3643 60.3382 56.2803 60.5867 56.1122C60.8353 55.9418 61.0259 55.6979 61.1585 55.3807C61.291 55.0634 61.3573 54.6858 61.3573 54.2479C61.3573 53.8217 61.2922 53.4441 61.162 53.1151C61.0318 52.7836 60.8424 52.5232 60.5938 52.3338C60.3476 52.142 60.0458 52.0462 59.6883 52.0462C59.3237 52.0462 59.016 52.1444 58.765 52.3409C58.5141 52.5374 58.3247 52.8026 58.1968 53.1364C58.069 53.4678 58.0051 53.8383 58.0051 54.2479C58.0051 54.6645 58.0702 55.0327 58.2004 55.3523C58.3306 55.6695 58.5212 55.9181 58.7721 56.098C59.0231 56.2756 59.3285 56.3643 59.6883 56.3643ZM65.8611 57.1136C65.3521 57.1136 64.9117 56.9953 64.54 56.7585C64.1684 56.5194 63.8807 56.1892 63.6771 55.7678C63.4759 55.344 63.3753 54.8563 63.3753 54.3047C63.3753 53.7554 63.4759 53.2678 63.6771 52.8416C63.8807 52.4131 64.1613 52.0781 64.5187 51.8366C64.8786 51.5928 65.2941 51.4709 65.7652 51.4709C66.0611 51.4709 66.3464 51.5253 66.621 51.6342C66.8956 51.7408 67.1418 51.9053 67.3596 52.1278C67.5798 52.348 67.7538 52.6262 67.8817 52.9624C68.0095 53.2962 68.0734 53.6915 68.0734 54.1484V54.4609H63.8121V53.9034H67.4271C67.4271 53.553 67.3561 53.2382 67.214 52.9588C67.0744 52.6771 66.8791 52.4545 66.6281 52.2912C66.3795 52.1278 66.0919 52.0462 65.7652 52.0462C65.4195 52.0462 65.1153 52.1385 64.8525 52.3232C64.5898 52.5078 64.3838 52.7517 64.2346 53.0547C64.0879 53.3577 64.0133 53.6892 64.0109 54.049V54.3828C64.0109 54.8161 64.0855 55.1948 64.2346 55.5192C64.3862 55.8411 64.6004 56.0909 64.8774 56.2685C65.1544 56.446 65.4823 56.5348 65.8611 56.5348C66.1191 56.5348 66.3452 56.4946 66.5393 56.4141C66.7358 56.3336 66.9004 56.2259 67.0329 56.0909C67.1679 55.9536 67.2697 55.8033 67.3383 55.6399L67.9385 55.8352C67.8556 56.0649 67.7195 56.2768 67.5301 56.4709C67.3431 56.665 67.1087 56.8213 66.827 56.9396C66.5476 57.0556 66.2256 57.1136 65.8611 57.1136ZM71.5864 57.1136C71.1153 57.1136 70.6986 56.9941 70.3364 56.755C69.9765 56.5159 69.6948 56.1856 69.4912 55.7642C69.2876 55.3404 69.1858 54.8516 69.1858 54.2976C69.1858 53.7389 69.2876 53.2476 69.4912 52.8239C69.6948 52.3977 69.9765 52.0663 70.3364 51.8295C70.6986 51.5904 71.1153 51.4709 71.5864 51.4709C72.0575 51.4709 72.473 51.5904 72.8328 51.8295C73.1927 52.0687 73.4744 52.4001 73.678 52.8239C73.884 53.2476 73.9869 53.7389 73.9869 54.2976C73.9869 54.8516 73.8852 55.3404 73.6816 55.7642C73.478 56.1856 73.195 56.5159 72.8328 56.755C72.473 56.9941 72.0575 57.1136 71.5864 57.1136ZM71.5864 56.5348C71.9652 56.5348 72.286 56.433 72.5487 56.2294C72.8115 56.0258 73.0104 55.7547 73.1453 55.4162C73.2826 55.0777 73.3513 54.7048 73.3513 54.2976C73.3513 53.8904 73.2826 53.5163 73.1453 53.1754C73.0104 52.8345 72.8115 52.5611 72.5487 52.3551C72.286 52.1491 71.9652 52.0462 71.5864 52.0462C71.21 52.0462 70.8892 52.1491 70.624 52.3551C70.3612 52.5611 70.1612 52.8345 70.0239 53.1754C69.8889 53.5163 69.8215 53.8904 69.8215 54.2976C69.8215 54.7048 69.8889 55.0777 70.0239 55.4162C70.1612 55.7547 70.3612 56.0258 70.624 56.2294C70.8868 56.433 71.2076 56.5348 71.5864 56.5348ZM78.8405 54.9155V51.5455H79.4726V57H78.8405V56.0945H78.7907C78.6629 56.3738 78.4605 56.607 78.1835 56.794C77.9065 56.9787 77.568 57.071 77.1679 57.071C76.8199 57.071 76.5109 56.9953 76.241 56.8438C75.9711 56.6899 75.7593 56.465 75.6054 56.169C75.4515 55.8731 75.3746 55.5097 75.3746 55.0788V51.5455H76.0067V55.0398C76.0067 55.4659 76.1321 55.8092 76.3831 56.0696C76.634 56.3277 76.956 56.4567 77.349 56.4567C77.5952 56.4567 77.8319 56.3975 78.0592 56.2791C78.2865 56.1607 78.4735 55.9879 78.6203 55.7607C78.7671 55.531 78.8405 55.2493 78.8405 54.9155ZM84.8108 52.7422L84.232 52.9055C84.1752 52.7422 84.0947 52.5942 83.9905 52.4616C83.8863 52.3291 83.7502 52.2237 83.5821 52.1456C83.4164 52.0675 83.2104 52.0284 82.9642 52.0284C82.5949 52.0284 82.2919 52.116 82.0551 52.2912C81.8184 52.4664 81.7 52.6925 81.7 52.9695C81.7 53.2038 81.7805 53.3944 81.9415 53.5412C82.1048 53.6856 82.3558 53.8004 82.6943 53.8857L83.5182 54.0881C83.9751 54.1993 84.3172 54.3757 84.5445 54.6172C84.7741 54.8587 84.8889 55.1617 84.8889 55.5263C84.8889 55.834 84.8037 56.1075 84.6333 56.3466C84.4628 56.5857 84.2249 56.7739 83.9195 56.9112C83.6164 57.0462 83.2649 57.1136 82.8648 57.1136C82.3321 57.1136 81.893 56.9941 81.5473 56.755C81.2017 56.5135 80.9803 56.1655 80.8833 55.7109L81.4905 55.5618C81.5686 55.8861 81.7213 56.1312 81.9486 56.2969C82.1782 56.4626 82.4801 56.5455 82.8541 56.5455C83.2732 56.5455 83.6082 56.4519 83.8591 56.2649C84.1101 56.0755 84.2355 55.8388 84.2355 55.5547C84.2355 55.3345 84.1621 55.1499 84.0154 55.0007C83.8686 54.8492 83.646 54.7379 83.3477 54.6669L82.4564 54.4538C81.9829 54.3402 81.6325 54.1603 81.4053 53.9141C81.178 53.6679 81.0644 53.3625 81.0644 52.9979C81.0644 52.6972 81.146 52.4332 81.3094 52.206C81.4727 51.9763 81.6977 51.7964 81.9841 51.6662C82.2706 51.536 82.5973 51.4709 82.9642 51.4709C83.4637 51.4709 83.8627 51.5845 84.161 51.8118C84.4616 52.0367 84.6782 52.3468 84.8108 52.7422ZM91.2339 51.5455V52.0959H88.6309V51.5455H91.2339ZM89.4442 50.2386H90.0798V55.576C90.0798 55.8033 90.1189 55.982 90.197 56.1122C90.2751 56.2401 90.3769 56.3312 90.5024 56.3857C90.6279 56.4377 90.7616 56.4638 90.9037 56.4638C90.9865 56.4638 91.0576 56.459 91.1167 56.4496C91.1759 56.4377 91.228 56.4259 91.273 56.4141L91.4079 56.9858C91.3464 57.0095 91.2706 57.0308 91.1807 57.0497C91.0907 57.071 90.9794 57.0817 90.8469 57.0817C90.6148 57.0817 90.3911 57.0308 90.1757 56.929C89.9626 56.8272 89.7874 56.6757 89.6501 56.4744C89.5128 56.2732 89.4442 56.0234 89.4442 55.7251V50.2386ZM94.7309 57.1136C94.2598 57.1136 93.8431 56.9941 93.4809 56.755C93.1211 56.5159 92.8393 56.1856 92.6357 55.7642C92.4321 55.3404 92.3303 54.8516 92.3303 54.2976C92.3303 53.7389 92.4321 53.2476 92.6357 52.8239C92.8393 52.3977 93.1211 52.0663 93.4809 51.8295C93.8431 51.5904 94.2598 51.4709 94.7309 51.4709C95.202 51.4709 95.6175 51.5904 95.9774 51.8295C96.3372 52.0687 96.6189 52.4001 96.8225 52.8239C97.0285 53.2476 97.1315 53.7389 97.1315 54.2976C97.1315 54.8516 97.0297 55.3404 96.8261 55.7642C96.6225 56.1856 96.3396 56.5159 95.9774 56.755C95.6175 56.9941 95.202 57.1136 94.7309 57.1136ZM94.7309 56.5348C95.1097 56.5348 95.4305 56.433 95.6933 56.2294C95.9561 56.0258 96.1549 55.7547 96.2899 55.4162C96.4272 55.0777 96.4958 54.7048 96.4958 54.2976C96.4958 53.8904 96.4272 53.5163 96.2899 53.1754C96.1549 52.8345 95.9561 52.5611 95.6933 52.3551C95.4305 52.1491 95.1097 52.0462 94.7309 52.0462C94.3545 52.0462 94.0337 52.1491 93.7686 52.3551C93.5058 52.5611 93.3057 52.8345 93.1684 53.1754C93.0335 53.5163 92.966 53.8904 92.966 54.2976C92.966 54.7048 93.0335 55.0777 93.1684 55.4162C93.3057 55.7547 93.5058 56.0258 93.7686 56.2294C94.0313 56.433 94.3521 56.5348 94.7309 56.5348ZM19.8667 69V63.5455H20.4811V64.3835H20.5273C20.6362 64.1089 20.8256 63.8875 21.0954 63.7195C21.3677 63.549 21.6755 63.4638 22.0187 63.4638C22.0708 63.4638 22.1288 63.465 22.1927 63.4673C22.2567 63.4697 22.3099 63.4721 22.3525 63.4744V64.1172C22.3241 64.1125 22.2744 64.1054 22.2034 64.0959C22.1324 64.0864 22.0554 64.0817 21.9726 64.0817C21.6885 64.0817 21.4352 64.142 21.2126 64.2628C20.9925 64.3812 20.8184 64.5457 20.6906 64.7564C20.5628 64.9671 20.4988 65.2074 20.4988 65.4773V69H19.8667ZM25.4704 69.1136C24.9614 69.1136 24.5211 68.9953 24.1494 68.7585C23.7777 68.5194 23.4901 68.1892 23.2865 67.7678C23.0853 67.344 22.9846 66.8563 22.9846 66.3047C22.9846 65.7554 23.0853 65.2678 23.2865 64.8416C23.4901 64.4131 23.7706 64.0781 24.1281 63.8366C24.488 63.5928 24.9034 63.4709 25.3746 63.4709C25.6705 63.4709 25.9558 63.5253 26.2304 63.6342C26.505 63.7408 26.7512 63.9053 26.969 64.1278C27.1892 64.348 27.3632 64.6262 27.491 64.9624C27.6189 65.2962 27.6828 65.6915 27.6828 66.1484V66.4609H23.4214V65.9034H27.0365C27.0365 65.553 26.9655 65.2382 26.8234 64.9588C26.6837 64.6771 26.4884 64.4545 26.2375 64.2912C25.9889 64.1278 25.7013 64.0462 25.3746 64.0462C25.0289 64.0462 24.7247 64.1385 24.4619 64.3232C24.1991 64.5078 23.9932 64.7517 23.844 65.0547C23.6972 65.3577 23.6227 65.6892 23.6203 66.049V66.3828C23.6203 66.8161 23.6949 67.1948 23.844 67.5192C23.9955 67.8411 24.2098 68.0909 24.4868 68.2685C24.7638 68.446 25.0916 68.5348 25.4704 68.5348C25.7285 68.5348 25.9546 68.4946 26.1487 68.4141C26.3452 68.3336 26.5097 68.2259 26.6423 68.0909C26.7773 67.9536 26.8791 67.8033 26.9477 67.6399L27.5479 67.8352C27.465 68.0649 27.3289 68.2768 27.1395 68.4709C26.9524 68.665 26.7181 68.8213 26.4363 68.9396C26.157 69.0556 25.835 69.1136 25.4704 69.1136ZM30.5992 69.1243C30.2701 69.1243 29.9694 69.0604 29.6972 68.9325C29.4249 68.8023 29.2083 68.6153 29.0473 68.3714C28.8863 68.1252 28.8058 67.8269 28.8058 67.4766C28.8058 67.2067 28.8567 66.9794 28.9585 66.7947C29.0603 66.6101 29.2048 66.4586 29.3918 66.3402C29.5788 66.2218 29.8002 66.1283 30.0558 66.0597C30.3115 65.991 30.5932 65.9377 30.901 65.8999C31.2064 65.862 31.4645 65.8288 31.6752 65.8004C31.8882 65.772 32.0504 65.727 32.1617 65.6655C32.2729 65.6039 32.3286 65.5045 32.3286 65.3672V65.2393C32.3286 64.8677 32.2173 64.5753 31.9948 64.3622C31.7746 64.1468 31.4574 64.0391 31.0431 64.0391C30.6501 64.0391 30.3293 64.1255 30.0807 64.2983C29.8345 64.4711 29.6617 64.6747 29.5622 64.9091L28.9621 64.6925C29.0852 64.3942 29.2557 64.1562 29.4735 63.9787C29.6913 63.7988 29.9351 63.6697 30.205 63.5916C30.4749 63.5111 30.7483 63.4709 31.0253 63.4709C31.2336 63.4709 31.4503 63.4981 31.6752 63.5526C31.9024 63.607 32.1131 63.7017 32.3073 63.8366C32.5014 63.9692 32.6588 64.1551 32.7796 64.3942C32.9003 64.6309 32.9607 64.9316 32.9607 65.2962V69H32.3286V68.1371H32.2895C32.2137 68.2981 32.1013 68.4543 31.9521 68.6058C31.803 68.7573 31.616 68.8816 31.3911 68.9787C31.1662 69.0758 30.9022 69.1243 30.5992 69.1243ZM30.6844 68.5455C31.0206 68.5455 31.3118 68.4709 31.558 68.3217C31.8042 68.1726 31.9936 67.9749 32.1262 67.7287C32.2611 67.4801 32.3286 67.2067 32.3286 66.9084V66.12C32.2812 66.165 32.2019 66.2053 32.0906 66.2408C31.9817 66.2763 31.8551 66.3082 31.7107 66.3366C31.5686 66.3627 31.4266 66.3852 31.2845 66.4041C31.1425 66.4231 31.0146 66.4396 30.901 66.4538C30.5932 66.4917 30.3305 66.5509 30.1127 66.6314C29.8949 66.7119 29.728 66.8232 29.6119 66.9652C29.4959 67.1049 29.4379 67.2848 29.4379 67.505C29.4379 67.8364 29.5563 68.0933 29.7931 68.2756C30.0298 68.4555 30.3269 68.5455 30.6844 68.5455ZM36.7728 69.1136C36.2851 69.1136 35.8602 68.9917 35.498 68.7479C35.1381 68.504 34.8588 68.1702 34.6599 67.7464C34.461 67.3227 34.3616 66.8397 34.3616 66.2976C34.3616 65.7507 34.4622 65.2642 34.6634 64.8381C34.867 64.4119 35.1488 64.0781 35.5086 63.8366C35.8685 63.5928 36.2863 63.4709 36.7622 63.4709C37.1267 63.4709 37.457 63.5419 37.7529 63.6839C38.0489 63.8236 38.2927 64.0213 38.4845 64.277C38.6786 64.5303 38.8005 64.8262 38.8502 65.1648H38.211C38.1447 64.857 37.9849 64.5942 37.7316 64.3764C37.4807 64.1562 37.1611 64.0462 36.7728 64.0462C36.4248 64.0462 36.117 64.1409 35.8495 64.3303C35.582 64.5173 35.3725 64.7789 35.221 65.1151C35.0718 65.4489 34.9972 65.8359 34.9972 66.2763C34.9972 66.719 35.0706 67.1108 35.2174 67.4517C35.3642 67.7902 35.5702 68.0554 35.8353 68.2472C36.1028 68.4389 36.4153 68.5348 36.7728 68.5348C37.0143 68.5348 37.2345 68.4898 37.4333 68.3999C37.6346 68.3075 37.8026 68.1773 37.9376 68.0092C38.0749 67.8411 38.1672 67.6411 38.2146 67.4091H38.8538C38.8064 67.7382 38.6892 68.0317 38.5022 68.2898C38.3176 68.5455 38.0773 68.7467 37.7813 68.8935C37.4878 69.0402 37.1516 69.1136 36.7728 69.1136ZM40.8406 65.5909V69H40.2085V61.7273H40.8406V64.4013H40.8975C41.0253 64.1196 41.223 63.8946 41.4905 63.7266C41.7604 63.5585 42.1013 63.4744 42.5132 63.4744C42.8825 63.4744 43.2069 63.5502 43.4862 63.7017C43.7656 63.8532 43.9834 64.0769 44.1396 64.3729C44.2959 64.6688 44.374 65.0334 44.374 65.4666V69H43.7384V65.5057C43.7384 65.0559 43.6129 64.7019 43.3619 64.4439C43.1134 64.1835 42.7772 64.0533 42.3534 64.0533C42.0622 64.0533 41.803 64.1148 41.5757 64.2379C41.3485 64.361 41.1685 64.5386 41.036 64.7706C40.9057 65.0002 40.8406 65.2737 40.8406 65.5909ZM50.9996 63.5455V64.0959H48.3966V63.5455H50.9996ZM49.2098 62.2386H49.8454V67.576C49.8454 67.8033 49.8845 67.982 49.9626 68.1122C50.0407 68.2401 50.1425 68.3312 50.268 68.3857C50.3935 68.4377 50.5273 68.4638 50.6693 68.4638C50.7522 68.4638 50.8232 68.459 50.8824 68.4496C50.9416 68.4377 50.9936 68.4259 51.0386 68.4141L51.1736 68.9858C51.112 69.0095 51.0363 69.0308 50.9463 69.0497C50.8563 69.071 50.7451 69.0817 50.6125 69.0817C50.3805 69.0817 50.1568 69.0308 49.9413 68.929C49.7282 68.8272 49.5531 68.6757 49.4157 68.4744C49.2784 68.2732 49.2098 68.0234 49.2098 67.7251V62.2386ZM53.1844 65.5909V69H52.5523V61.7273H53.1844V64.4013H53.2412C53.3691 64.1196 53.5667 63.8946 53.8343 63.7266C54.1041 63.5585 54.445 63.4744 54.857 63.4744C55.2263 63.4744 55.5506 63.5502 55.83 63.7017C56.1093 63.8532 56.3271 64.0769 56.4834 64.3729C56.6396 64.6688 56.7178 65.0334 56.7178 65.4666V69H56.0821V65.5057C56.0821 65.0559 55.9566 64.7019 55.7057 64.4439C55.4571 64.1835 55.1209 64.0533 54.6972 64.0533C54.406 64.0533 54.1468 64.1148 53.9195 64.2379C53.6922 64.361 53.5123 64.5386 53.3797 64.7706C53.2495 65.0002 53.1844 65.2737 53.1844 65.5909ZM60.5876 69.1136C60.0786 69.1136 59.6383 68.9953 59.2666 68.7585C58.8949 68.5194 58.6073 68.1892 58.4037 67.7678C58.2024 67.344 58.1018 66.8563 58.1018 66.3047C58.1018 65.7554 58.2024 65.2678 58.4037 64.8416C58.6073 64.4131 58.8878 64.0781 59.2453 63.8366C59.6051 63.5928 60.0206 63.4709 60.4917 63.4709C60.7877 63.4709 61.0729 63.5253 61.3476 63.6342C61.6222 63.7408 61.8684 63.9053 62.0862 64.1278C62.3064 64.348 62.4804 64.6262 62.6082 64.9624C62.7361 65.2962 62.8 65.6915 62.8 66.1484V66.4609H58.5386V65.9034H62.1537C62.1537 65.553 62.0827 65.2382 61.9406 64.9588C61.8009 64.6771 61.6056 64.4545 61.3547 64.2912C61.1061 64.1278 60.8184 64.0462 60.4917 64.0462C60.1461 64.0462 59.8419 64.1385 59.5791 64.3232C59.3163 64.5078 59.1104 64.7517 58.9612 65.0547C58.8144 65.3577 58.7398 65.6892 58.7375 66.049V66.3828C58.7375 66.8161 58.8121 67.1948 58.9612 67.5192C59.1127 67.8411 59.327 68.0909 59.604 68.2685C59.8809 68.446 60.2088 68.5348 60.5876 68.5348C60.8457 68.5348 61.0718 68.4946 61.2659 68.4141C61.4624 68.3336 61.6269 68.2259 61.7595 68.0909C61.8944 67.9536 61.9962 67.8033 62.0649 67.6399L62.665 67.8352C62.5822 68.0649 62.4461 68.2768 62.2567 68.4709C62.0696 68.665 61.8353 68.8213 61.5535 68.9396C61.2742 69.0556 60.9522 69.1136 60.5876 69.1136ZM67.6375 61.7273V69H67.0054V61.7273H67.6375ZM70.8335 69.1243C70.5045 69.1243 70.2038 69.0604 69.9316 68.9325C69.6593 68.8023 69.4427 68.6153 69.2817 68.3714C69.1207 68.1252 69.0402 67.8269 69.0402 67.4766C69.0402 67.2067 69.0911 66.9794 69.1929 66.7947C69.2947 66.6101 69.4391 66.4586 69.6262 66.3402C69.8132 66.2218 70.0345 66.1283 70.2902 66.0597C70.5459 65.991 70.8276 65.9377 71.1354 65.8999C71.4408 65.862 71.6988 65.8288 71.9095 65.8004C72.1226 65.772 72.2848 65.727 72.396 65.6655C72.5073 65.6039 72.5629 65.5045 72.5629 65.3672V65.2393C72.5629 64.8677 72.4517 64.5753 72.2291 64.3622C72.009 64.1468 71.6917 64.0391 71.2774 64.0391C70.8844 64.0391 70.5637 64.1255 70.3151 64.2983C70.0689 64.4711 69.896 64.6747 69.7966 64.9091L69.1965 64.6925C69.3196 64.3942 69.49 64.1562 69.7078 63.9787C69.9256 63.7988 70.1695 63.6697 70.4394 63.5916C70.7093 63.5111 70.9827 63.4709 71.2597 63.4709C71.468 63.4709 71.6846 63.4981 71.9095 63.5526C72.1368 63.607 72.3475 63.7017 72.5416 63.8366C72.7358 63.9692 72.8932 64.1551 73.0139 64.3942C73.1347 64.6309 73.195 64.9316 73.195 65.2962V69H72.5629V68.1371H72.5239C72.4481 68.2981 72.3357 68.4543 72.1865 68.6058C72.0374 68.7573 71.8503 68.8816 71.6254 68.9787C71.4005 69.0758 71.1366 69.1243 70.8335 69.1243ZM70.9188 68.5455C71.2549 68.5455 71.5461 68.4709 71.7923 68.3217C72.0386 68.1726 72.228 67.9749 72.3605 67.7287C72.4955 67.4801 72.5629 67.2067 72.5629 66.9084V66.12C72.5156 66.165 72.4363 66.2053 72.325 66.2408C72.2161 66.2763 72.0895 66.3082 71.945 66.3366C71.803 66.3627 71.661 66.3852 71.5189 66.4041C71.3769 66.4231 71.249 66.4396 71.1354 66.4538C70.8276 66.4917 70.5648 66.5509 70.347 66.6314C70.1292 66.7119 69.9623 66.8232 69.8463 66.9652C69.7303 67.1049 69.6723 67.2848 69.6723 67.505C69.6723 67.8364 69.7907 68.0933 70.0274 68.2756C70.2642 68.4555 70.5613 68.5455 70.9188 68.5455ZM74.8765 69V63.5455H75.4909V64.3835H75.537C75.6459 64.1089 75.8353 63.8875 76.1052 63.7195C76.3775 63.549 76.6852 63.4638 77.0285 63.4638C77.0806 63.4638 77.1386 63.465 77.2025 63.4673C77.2664 63.4697 77.3197 63.4721 77.3623 63.4744V64.1172C77.3339 64.1125 77.2842 64.1054 77.2132 64.0959C77.1421 64.0864 77.0652 64.0817 76.9823 64.0817C76.6982 64.0817 76.4449 64.142 76.2224 64.2628C76.0022 64.3812 75.8282 64.5457 75.7004 64.7564C75.5725 64.9671 75.5086 65.2074 75.5086 65.4773V69H74.8765ZM80.3559 71.1591C79.9842 71.1591 79.6587 71.1106 79.3794 71.0135C79.1 70.9188 78.8644 70.7886 78.6727 70.6229C78.4809 70.4571 78.3318 70.2713 78.2252 70.0653L78.7437 69.7244C78.8218 69.8617 78.926 69.9967 79.0562 70.1293C79.1888 70.2618 79.3604 70.3719 79.5711 70.4595C79.7842 70.5471 80.0458 70.5909 80.3559 70.5909C80.8389 70.5909 81.2283 70.4702 81.5242 70.2287C81.8225 69.9872 81.9717 69.612 81.9717 69.103V67.8743H81.9149C81.8415 68.04 81.7361 68.2057 81.5988 68.3714C81.4615 68.5348 81.2816 68.6709 81.059 68.7798C80.8389 68.8887 80.5654 68.9432 80.2387 68.9432C79.8031 68.9432 79.416 68.8355 79.0775 68.62C78.7413 68.4046 78.4762 68.0968 78.282 67.6967C78.0903 67.2943 77.9944 66.8149 77.9944 66.2585C77.9944 65.7069 78.0879 65.2216 78.2749 64.8026C78.4643 64.3835 78.7283 64.0568 79.0669 63.8224C79.4054 63.5881 79.7996 63.4709 80.2494 63.4709C80.5832 63.4709 80.8602 63.5301 81.0803 63.6484C81.3005 63.7644 81.4769 63.9089 81.6095 64.0817C81.7444 64.2545 81.8498 64.4226 81.9255 64.5859H81.9894V63.5455H82.6073V69.142C82.6073 69.6037 82.5091 69.9837 82.3126 70.282C82.1161 70.5803 81.8486 70.8004 81.51 70.9425C81.1715 71.0869 80.7868 71.1591 80.3559 71.1591ZM80.3133 68.3643C80.6637 68.3643 80.9632 68.2803 81.2117 68.1122C81.4603 67.9418 81.6509 67.6979 81.7835 67.3807C81.916 67.0634 81.9823 66.6858 81.9823 66.2479C81.9823 65.8217 81.9172 65.4441 81.787 65.1151C81.6568 64.7836 81.4674 64.5232 81.2188 64.3338C80.9726 64.142 80.6708 64.0462 80.3133 64.0462C79.9487 64.0462 79.641 64.1444 79.39 64.3409C79.1391 64.5374 78.9497 64.8026 78.8218 65.1364C78.694 65.4678 78.6301 65.8383 78.6301 66.2479C78.6301 66.6645 78.6952 67.0327 78.8254 67.3523C78.9556 67.6695 79.1462 67.9181 79.3971 68.098C79.6481 68.2756 79.9535 68.3643 80.3133 68.3643ZM86.4861 69.1136C85.9771 69.1136 85.5367 68.9953 85.165 68.7585C84.7934 68.5194 84.5057 68.1892 84.3021 67.7678C84.1009 67.344 84.0003 66.8563 84.0003 66.3047C84.0003 65.7554 84.1009 65.2678 84.3021 64.8416C84.5057 64.4131 84.7863 64.0781 85.1437 63.8366C85.5036 63.5928 85.9191 63.4709 86.3902 63.4709C86.6861 63.4709 86.9714 63.5253 87.246 63.6342C87.5206 63.7408 87.7668 63.9053 87.9846 64.1278C88.2048 64.348 88.3788 64.6262 88.5067 64.9624C88.6345 65.2962 88.6984 65.6915 88.6984 66.1484V66.4609H84.4371V65.9034H88.0521C88.0521 65.553 87.9811 65.2382 87.839 64.9588C87.6994 64.6771 87.5041 64.4545 87.2531 64.2912C87.0045 64.1278 86.7169 64.0462 86.3902 64.0462C86.0445 64.0462 85.7403 64.1385 85.4775 64.3232C85.2148 64.5078 85.0088 64.7517 84.8596 65.0547C84.7129 65.3577 84.6383 65.6892 84.6359 66.049V66.3828C84.6359 66.8161 84.7105 67.1948 84.8596 67.5192C85.0112 67.8411 85.2254 68.0909 85.5024 68.2685C85.7794 68.446 86.1073 68.5348 86.4861 68.5348C86.7441 68.5348 86.9702 68.4946 87.1643 68.4141C87.3608 68.3336 87.5254 68.2259 87.6579 68.0909C87.7929 67.9536 87.8947 67.8033 87.9633 67.6399L88.5635 67.8352C88.4806 68.0649 88.3445 68.2768 88.1551 68.4709C87.9681 68.665 87.7337 68.8213 87.452 68.9396C87.1726 69.0556 86.8506 69.1136 86.4861 69.1136ZM93.7561 64.7422L93.1773 64.9055C93.1205 64.7422 93.04 64.5942 92.9358 64.4616C92.8316 64.3291 92.6955 64.2237 92.5274 64.1456C92.3617 64.0675 92.1557 64.0284 91.9095 64.0284C91.5402 64.0284 91.2372 64.116 91.0004 64.2912C90.7637 64.4664 90.6453 64.6925 90.6453 64.9695C90.6453 65.2038 90.7258 65.3944 90.8868 65.5412C91.0502 65.6856 91.3011 65.8004 91.6396 65.8857L92.4635 66.0881C92.9204 66.1993 93.2625 66.3757 93.4898 66.6172C93.7194 66.8587 93.8343 67.1617 93.8343 67.5263C93.8343 67.834 93.749 68.1075 93.5786 68.3466C93.4081 68.5857 93.1702 68.7739 92.8648 68.9112C92.5618 69.0462 92.2102 69.1136 91.8101 69.1136C91.2774 69.1136 90.8383 68.9941 90.4926 68.755C90.147 68.5135 89.9256 68.1655 89.8286 67.7109L90.4358 67.5618C90.5139 67.8861 90.6666 68.1312 90.8939 68.2969C91.1236 68.4626 91.4254 68.5455 91.7994 68.5455C92.2185 68.5455 92.5535 68.4519 92.8044 68.2649C93.0554 68.0755 93.1808 67.8388 93.1808 67.5547C93.1808 67.3345 93.1075 67.1499 92.9607 67.0007C92.8139 66.8492 92.5914 66.7379 92.2931 66.6669L91.4017 66.4538C90.9282 66.3402 90.5779 66.1603 90.3506 65.9141C90.1233 65.6679 90.0097 65.3625 90.0097 64.9979C90.0097 64.6972 90.0914 64.4332 90.2547 64.206C90.4181 63.9763 90.643 63.7964 90.9294 63.6662C91.2159 63.536 91.5426 63.4709 91.9095 63.4709C92.4091 63.4709 92.808 63.5845 93.1063 63.8118C93.4069 64.0367 93.6236 64.3468 93.7561 64.7422ZM97.3667 63.5455V64.0959H94.7638V63.5455H97.3667ZM95.577 62.2386H96.2126V67.576C96.2126 67.8033 96.2517 67.982 96.3298 68.1122C96.4079 68.2401 96.5097 68.3312 96.6352 68.3857C96.7607 68.4377 96.8944 68.4638 97.0365 68.4638C97.1193 68.4638 97.1904 68.459 97.2496 68.4496C97.3087 68.4377 97.3608 68.4259 97.4058 68.4141L97.5407 68.9858C97.4792 69.0095 97.4034 69.0308 97.3135 69.0497C97.2235 69.071 97.1122 69.0817 96.9797 69.0817C96.7477 69.0817 96.5239 69.0308 96.3085 68.929C96.0954 68.8272 95.9202 68.6757 95.7829 68.4744C95.6456 68.2732 95.577 68.0234 95.577 67.7251V62.2386ZM18.7069 77.5909V81H18.0748V75.5455H18.6891V76.4013H18.7459C18.8738 76.1219 19.0726 75.8982 19.3425 75.7301C19.6148 75.5597 19.9509 75.4744 20.351 75.4744C20.718 75.4744 21.04 75.5514 21.3169 75.7053C21.5963 75.8568 21.8129 76.0805 21.9668 76.3764C22.123 76.6723 22.2012 77.0357 22.2012 77.4666V81H21.5691V77.5057C21.5691 77.0582 21.4436 76.7043 21.1926 76.4439C20.9441 76.1835 20.6103 76.0533 20.1912 76.0533C19.9048 76.0533 19.6503 76.1148 19.4277 76.2379C19.2052 76.361 19.0288 76.5386 18.8986 76.7706C18.7708 77.0002 18.7069 77.2737 18.7069 77.5909ZM27.3317 78.9155V75.5455H27.9638V81H27.3317V80.0945H27.282C27.1541 80.3738 26.9517 80.607 26.6747 80.794C26.3977 80.9787 26.0592 81.071 25.6591 81.071C25.3111 81.071 25.0021 80.9953 24.7322 80.8438C24.4624 80.6899 24.2505 80.465 24.0966 80.169C23.9427 79.8731 23.8658 79.5097 23.8658 79.0788V75.5455H24.4979V79.0398C24.4979 79.4659 24.6233 79.8092 24.8743 80.0696C25.1252 80.3277 25.4472 80.4567 25.8402 80.4567C26.0864 80.4567 26.3232 80.3975 26.5504 80.2791C26.7777 80.1607 26.9647 79.9879 27.1115 79.7607C27.2583 79.531 27.3317 79.2493 27.3317 78.9155ZM29.6373 81V75.5455H30.2516V76.3835H30.3084C30.4173 76.1018 30.5984 75.8804 30.8517 75.7195C31.1074 75.5561 31.414 75.4744 31.7715 75.4744C32.1479 75.4744 32.4569 75.5632 32.6983 75.7408C32.9422 75.916 33.1245 76.1574 33.2452 76.4652H33.2914C33.4145 76.1622 33.6145 75.9219 33.8915 75.7443C34.1709 75.5644 34.5094 75.4744 34.9071 75.4744C35.4138 75.4744 35.8139 75.6342 36.1074 75.9538C36.401 76.2711 36.5478 76.7351 36.5478 77.3459V81H35.9157V77.3459C35.9157 76.915 35.8056 76.5919 35.5854 76.3764C35.3652 76.161 35.0752 76.0533 34.7154 76.0533C34.2987 76.0533 33.9779 76.1811 33.753 76.4368C33.5281 76.6925 33.4157 77.0168 33.4157 77.4098V81H32.7694V77.2891C32.7694 76.9197 32.6664 76.6214 32.4604 76.3942C32.2544 76.1669 31.9644 76.0533 31.5904 76.0533C31.3394 76.0533 31.1133 76.1148 30.9121 76.2379C30.7132 76.361 30.5558 76.5327 30.4398 76.7528C30.3262 76.9706 30.2694 77.2216 30.2694 77.5057V81H29.6373ZM38.3526 81V73.7273H38.9883V76.5859H39.0451C39.1161 76.4226 39.2179 76.2545 39.3505 76.0817C39.4854 75.9089 39.6618 75.7644 39.8796 75.6484C40.0998 75.5301 40.3768 75.4709 40.7106 75.4709C41.158 75.4709 41.551 75.5893 41.8896 75.826C42.2281 76.0604 42.4921 76.3894 42.6815 76.8132C42.8709 77.2346 42.9656 77.7259 42.9656 78.2869C42.9656 78.8504 42.8709 79.344 42.6815 79.7678C42.4944 80.1915 42.2317 80.5218 41.8931 80.7585C41.5569 80.9953 41.1663 81.1136 40.7212 81.1136C40.3898 81.1136 40.1128 81.0545 39.8903 80.9361C39.6701 80.8177 39.4925 80.6721 39.3576 80.4993C39.2227 80.3241 39.1185 80.1536 39.0451 79.9879H38.967V81H38.3526ZM38.9776 78.2763C38.9776 78.7166 39.0427 79.1072 39.1729 79.4482C39.3055 79.7867 39.4949 80.053 39.7411 80.2472C39.9897 80.4389 40.2904 80.5348 40.6431 80.5348C41.0053 80.5348 41.3119 80.4354 41.5629 80.2365C41.8138 80.0353 42.0044 79.7642 42.1346 79.4233C42.2648 79.0824 42.3299 78.7 42.3299 78.2763C42.3299 77.8572 42.2648 77.4796 42.1346 77.1435C42.0067 76.8073 41.8174 76.541 41.5664 76.3445C41.3155 76.1456 41.0077 76.0462 40.6431 76.0462C40.288 76.0462 39.9862 76.142 39.7376 76.3338C39.4914 76.5232 39.3031 76.786 39.1729 77.1222C39.0427 77.456 38.9776 77.8407 38.9776 78.2763ZM46.5593 81.1136C46.0503 81.1136 45.61 80.9953 45.2383 80.7585C44.8666 80.5194 44.579 80.1892 44.3754 79.7678C44.1741 79.344 44.0735 78.8563 44.0735 78.3047C44.0735 77.7554 44.1741 77.2678 44.3754 76.8416C44.579 76.4131 44.8595 76.0781 45.217 75.8366C45.5768 75.5928 45.9923 75.4709 46.4634 75.4709C46.7594 75.4709 47.0446 75.5253 47.3192 75.6342C47.5939 75.7408 47.8401 75.9053 48.0579 76.1278C48.2781 76.348 48.4521 76.6262 48.5799 76.9624C48.7077 77.2962 48.7717 77.6915 48.7717 78.1484V78.4609H44.5103V77.9034H48.1254C48.1254 77.553 48.0543 77.2382 47.9123 76.9588C47.7726 76.6771 47.5773 76.4545 47.3263 76.2912C47.0778 76.1278 46.7901 76.0462 46.4634 76.0462C46.1178 76.0462 45.8136 76.1385 45.5508 76.3232C45.288 76.5078 45.082 76.7517 44.9329 77.0547C44.7861 77.3577 44.7115 77.6892 44.7092 78.049V78.3828C44.7092 78.8161 44.7837 79.1948 44.9329 79.5192C45.0844 79.8411 45.2987 80.0909 45.5756 80.2685C45.8526 80.446 46.1805 80.5348 46.5593 80.5348C46.8174 80.5348 47.0434 80.4946 47.2376 80.4141C47.4341 80.3336 47.5986 80.2259 47.7312 80.0909C47.8661 79.9536 47.9679 79.8033 48.0366 79.6399L48.6367 79.8352C48.5539 80.0649 48.4177 80.2768 48.2283 80.4709C48.0413 80.665 47.8069 80.8213 47.5252 80.9396C47.2459 81.0556 46.9239 81.1136 46.5593 81.1136ZM50.1646 81V75.5455H50.7789V76.3835H50.8251C50.934 76.1089 51.1234 75.8875 51.3933 75.7195C51.6655 75.549 51.9733 75.4638 52.3166 75.4638C52.3687 75.4638 52.4267 75.465 52.4906 75.4673C52.5545 75.4697 52.6078 75.4721 52.6504 75.4744V76.1172C52.622 76.1125 52.5723 76.1054 52.5012 76.0959C52.4302 76.0864 52.3533 76.0817 52.2704 76.0817C51.9863 76.0817 51.733 76.142 51.5105 76.2628C51.2903 76.3812 51.1163 76.5457 50.9885 76.7564C50.8606 76.9671 50.7967 77.2074 50.7967 77.4773V81H50.1646ZM58.6616 81.1136C58.1905 81.1136 57.7738 80.9941 57.4116 80.755C57.0517 80.5159 56.77 80.1856 56.5664 79.7642C56.3628 79.3404 56.261 78.8516 56.261 78.2976C56.261 77.7389 56.3628 77.2476 56.5664 76.8239C56.77 76.3977 57.0517 76.0663 57.4116 75.8295C57.7738 75.5904 58.1905 75.4709 58.6616 75.4709C59.1327 75.4709 59.5482 75.5904 59.908 75.8295C60.2679 76.0687 60.5496 76.4001 60.7532 76.8239C60.9592 77.2476 61.0621 77.7389 61.0621 78.2976C61.0621 78.8516 60.9603 79.3404 60.7567 79.7642C60.5531 80.1856 60.2702 80.5159 59.908 80.755C59.5482 80.9941 59.1327 81.1136 58.6616 81.1136ZM58.6616 80.5348C59.0404 80.5348 59.3612 80.433 59.6239 80.2294C59.8867 80.0258 60.0856 79.7547 60.2205 79.4162C60.3578 79.0777 60.4265 78.7048 60.4265 78.2976C60.4265 77.8904 60.3578 77.5163 60.2205 77.1754C60.0856 76.8345 59.8867 76.5611 59.6239 76.3551C59.3612 76.1491 59.0404 76.0462 58.6616 76.0462C58.2852 76.0462 57.9644 76.1491 57.6992 76.3551C57.4364 76.5611 57.2364 76.8345 57.0991 77.1754C56.9641 77.5163 56.8967 77.8904 56.8967 78.2976C56.8967 78.7048 56.9641 79.0777 57.0991 79.4162C57.2364 79.7547 57.4364 80.0258 57.6992 80.2294C57.962 80.433 58.2828 80.5348 58.6616 80.5348ZM64.6941 75.5455V76.0959H62.013V75.5455H64.6941ZM62.851 81V74.7464C62.851 74.4529 62.9185 74.2055 63.0534 74.0043C63.1908 73.803 63.3695 73.6503 63.5897 73.5462C63.8098 73.442 64.043 73.3899 64.2892 73.3899C64.455 73.3899 64.5923 73.4041 64.7012 73.4325C64.8124 73.4586 64.9 73.4846 64.964 73.5107L64.7793 74.0646C64.7319 74.0504 64.6739 74.0339 64.6053 74.0149C64.5366 73.996 64.4502 73.9865 64.3461 73.9865C64.0714 73.9865 63.8596 74.0634 63.7104 74.2173C63.5613 74.3712 63.4867 74.5914 63.4867 74.8778L63.4831 81H62.851ZM68.7681 83.0455V75.5455H69.3825V76.5859H69.457C69.5328 76.4226 69.637 76.2557 69.7695 76.0852C69.9021 75.9124 70.0773 75.7668 70.2951 75.6484C70.5153 75.5301 70.7923 75.4709 71.1261 75.4709C71.5759 75.4709 71.9689 75.5893 72.305 75.826C72.6436 76.0604 72.9064 76.3894 73.0934 76.8132C73.2828 77.2346 73.3775 77.7259 73.3775 78.2869C73.3775 78.8504 73.2828 79.344 73.0934 79.7678C72.9064 80.1915 72.6436 80.5218 72.305 80.7585C71.9689 80.9953 71.5782 81.1136 71.1332 81.1136C70.8041 81.1136 70.5283 81.0545 70.3058 80.9361C70.0856 80.8177 69.9068 80.6721 69.7695 80.4993C69.6346 80.3241 69.5304 80.1536 69.457 79.9879H69.4002V83.0455H68.7681ZM69.3931 78.2763C69.3931 78.7166 69.4582 79.1072 69.5884 79.4482C69.721 79.7867 69.9104 80.053 70.1566 80.2472C70.4052 80.4389 70.7058 80.5348 71.0586 80.5348C71.4208 80.5348 71.7262 80.4354 71.9748 80.2365C72.2257 80.0353 72.4163 79.7642 72.5465 79.4233C72.6791 79.0824 72.7454 78.7 72.7454 78.2763C72.7454 77.8572 72.6803 77.4796 72.5501 77.1435C72.4222 76.8073 72.2328 76.541 71.9819 76.3445C71.7309 76.1456 71.4232 76.0462 71.0586 76.0462C70.7035 76.0462 70.4016 76.142 70.1531 76.3338C69.9045 76.5232 69.7151 76.786 69.5849 77.1222C69.457 77.456 69.3931 77.8407 69.3931 78.2763ZM76.9695 81.1136C76.4605 81.1136 76.0201 80.9953 75.6484 80.7585C75.2768 80.5194 74.9891 80.1892 74.7855 79.7678C74.5843 79.344 74.4837 78.8563 74.4837 78.3047C74.4837 77.7554 74.5843 77.2678 74.7855 76.8416C74.9891 76.4131 75.2696 76.0781 75.6271 75.8366C75.987 75.5928 76.4025 75.4709 76.8736 75.4709C77.1695 75.4709 77.4548 75.5253 77.7294 75.6342C78.004 75.7408 78.2502 75.9053 78.468 76.1278C78.6882 76.348 78.8622 76.6262 78.9901 76.9624C79.1179 77.2962 79.1818 77.6915 79.1818 78.1484V78.4609H74.9205V77.9034H78.5355C78.5355 77.553 78.4645 77.2382 78.3224 76.9588C78.1828 76.6771 77.9875 76.4545 77.7365 76.2912C77.4879 76.1278 77.2003 76.0462 76.8736 76.0462C76.5279 76.0462 76.2237 76.1385 75.9609 76.3232C75.6982 76.5078 75.4922 76.7517 75.343 77.0547C75.1963 77.3577 75.1217 77.6892 75.1193 78.049V78.3828C75.1193 78.8161 75.1939 79.1948 75.343 79.5192C75.4946 79.8411 75.7088 80.0909 75.9858 80.2685C76.2628 80.446 76.5907 80.5348 76.9695 80.5348C77.2275 80.5348 77.4536 80.4946 77.6477 80.4141C77.8442 80.3336 78.0088 80.2259 78.1413 80.0909C78.2763 79.9536 78.3781 79.8033 78.4467 79.6399L79.0469 79.8352C78.964 80.0649 78.8279 80.2768 78.6385 80.4709C78.4515 80.665 78.2171 80.8213 77.9354 80.9396C77.656 81.0556 77.334 81.1136 76.9695 81.1136ZM82.6948 81.1136C82.2237 81.1136 81.807 80.9941 81.4448 80.755C81.0849 80.5159 80.8032 80.1856 80.5996 79.7642C80.396 79.3404 80.2942 78.8516 80.2942 78.2976C80.2942 77.7389 80.396 77.2476 80.5996 76.8239C80.8032 76.3977 81.0849 76.0663 81.4448 75.8295C81.807 75.5904 82.2237 75.4709 82.6948 75.4709C83.1659 75.4709 83.5814 75.5904 83.9412 75.8295C84.3011 76.0687 84.5828 76.4001 84.7864 76.8239C84.9924 77.2476 85.0953 77.7389 85.0953 78.2976C85.0953 78.8516 84.9935 79.3404 84.79 79.7642C84.5864 80.1856 84.3034 80.5159 83.9412 80.755C83.5814 80.9941 83.1659 81.1136 82.6948 81.1136ZM82.6948 80.5348C83.0736 80.5348 83.3944 80.433 83.6571 80.2294C83.9199 80.0258 84.1188 79.7547 84.2537 79.4162C84.391 79.0777 84.4597 78.7048 84.4597 78.2976C84.4597 77.8904 84.391 77.5163 84.2537 77.1754C84.1188 76.8345 83.9199 76.5611 83.6571 76.3551C83.3944 76.1491 83.0736 76.0462 82.6948 76.0462C82.3184 76.0462 81.9976 76.1491 81.7324 76.3551C81.4696 76.5611 81.2696 76.8345 81.1323 77.1754C80.9973 77.5163 80.9299 77.8904 80.9299 78.2976C80.9299 78.7048 80.9973 79.0777 81.1323 79.4162C81.2696 79.7547 81.4696 80.0258 81.7324 80.2294C81.9952 80.433 82.316 80.5348 82.6948 80.5348ZM86.483 83.0455V75.5455H87.0973V76.5859H87.1719C87.2476 76.4226 87.3518 76.2557 87.4844 76.0852C87.617 75.9124 87.7921 75.7668 88.0099 75.6484C88.2301 75.5301 88.5071 75.4709 88.8409 75.4709C89.2907 75.4709 89.6837 75.5893 90.0199 75.826C90.3584 76.0604 90.6212 76.3894 90.8082 76.8132C90.9976 77.2346 91.0923 77.7259 91.0923 78.2869C91.0923 78.8504 90.9976 79.344 90.8082 79.7678C90.6212 80.1915 90.3584 80.5218 90.0199 80.7585C89.6837 80.9953 89.2931 81.1136 88.848 81.1136C88.5189 81.1136 88.2431 81.0545 88.0206 80.9361C87.8004 80.8177 87.6217 80.6721 87.4844 80.4993C87.3494 80.3241 87.2453 80.1536 87.1719 79.9879H87.1151V83.0455H86.483ZM87.108 78.2763C87.108 78.7166 87.1731 79.1072 87.3033 79.4482C87.4358 79.7867 87.6252 80.053 87.8714 80.2472C88.12 80.4389 88.4207 80.5348 88.7734 80.5348C89.1357 80.5348 89.4411 80.4354 89.6896 80.2365C89.9406 80.0353 90.1312 79.7642 90.2614 79.4233C90.3939 79.0824 90.4602 78.7 90.4602 78.2763C90.4602 77.8572 90.3951 77.4796 90.2649 77.1435C90.1371 76.8073 89.9477 76.541 89.6967 76.3445C89.4458 76.1456 89.138 76.0462 88.7734 76.0462C88.4183 76.0462 88.1165 76.142 87.8679 76.3338C87.6193 76.5232 87.4299 76.786 87.2997 77.1222C87.1719 77.456 87.108 77.8407 87.108 78.2763ZM93.1112 73.7273V81H92.479V73.7273H93.1112ZM96.989 81.1136C96.48 81.1136 96.0397 80.9953 95.668 80.7585C95.2963 80.5194 95.0086 80.1892 94.805 79.7678C94.6038 79.344 94.5032 78.8563 94.5032 78.3047C94.5032 77.7554 94.6038 77.2678 94.805 76.8416C95.0086 76.4131 95.2892 76.0781 95.6467 75.8366C96.0065 75.5928 96.422 75.4709 96.8931 75.4709C97.189 75.4709 97.4743 75.5253 97.7489 75.6342C98.0236 75.7408 98.2698 75.9053 98.4876 76.1278C98.7077 76.348 98.8817 76.6262 99.0096 76.9624C99.1374 77.2962 99.2013 77.6915 99.2013 78.1484V78.4609H94.94V77.9034H98.555C98.555 77.553 98.484 77.2382 98.342 76.9588C98.2023 76.6771 98.007 76.4545 97.756 76.2912C97.5075 76.1278 97.2198 76.0462 96.8931 76.0462C96.5475 76.0462 96.2433 76.1385 95.9805 76.3232C95.7177 76.5078 95.5117 76.7517 95.3626 77.0547C95.2158 77.3577 95.1412 77.6892 95.1388 78.049V78.3828C95.1388 78.8161 95.2134 79.1948 95.3626 79.5192C95.5141 79.8411 95.7283 80.0909 96.0053 80.2685C96.2823 80.446 96.6102 80.5348 96.989 80.5348C97.247 80.5348 97.4731 80.4946 97.6673 80.4141C97.8638 80.3336 98.0283 80.2259 98.1609 80.0909C98.2958 79.9536 98.3976 79.8033 98.4663 79.6399L99.0664 79.8352C98.9835 80.0649 98.8474 80.2768 98.658 80.4709C98.471 80.665 98.2366 80.8213 97.9549 80.9396C97.6755 81.0556 97.3536 81.1136 96.989 81.1136Z" fill="#222222"/>
</g>
<defs>
<filter id="filter0_d_893_406" x="0" y="0" width="118" height="118" filterUnits="userSpaceOnUse" color-interpolation-filters="sRGB">
<feFlood flood-opacity="0" result="BackgroundImageFix"/>
<feColorMatrix in="SourceAlpha" type="matrix" values="0 0 0 0 0 0 0 0 0 0 0 0 0 0 0 0 0 0 127 0" result="hardAlpha"/>
<feOffset dy="4"/>
<feGaussianBlur stdDeviation="2"/>
<feComposite in2="hardAlpha" operator="out"/>
<feColorMatrix type="matrix" values="0 0 0 0 0 0 0 0 0 0 0 0 0 0 0 0 0 0 0.25 0"/>
<feBlend mode="normal" in2="BackgroundImageFix" result="effect1_dropShadow_893_406"/>
<feBlend mode="normal" in="SourceGraphic" in2="effect1_dropShadow_893_406" result="shape"/>
</filter>
</defs>
</svg>
