<svg width="110" height="110" viewBox="0 0 110 110" fill="none" xmlns="http://www.w3.org/2000/svg">
<rect width="110" height="110" fill="#F8E8B2"/>
<path d="M27.0882 58.1136C26.6006 58.1136 26.1756 57.9917 25.8134 57.7479C25.4535 57.504 25.1742 57.1702 24.9753 56.7464C24.7765 56.3227 24.677 55.8397 24.677 55.2976C24.677 54.7507 24.7776 54.2642 24.9789 53.8381C25.1825 53.4119 25.4642 53.0781 25.824 52.8366C26.1839 52.5928 26.6017 52.4709 27.0776 52.4709C27.4422 52.4709 27.7724 52.5419 28.0684 52.6839C28.3643 52.8236 28.6081 53.0213 28.7999 53.277C28.994 53.5303 29.1159 53.8262 29.1657 54.1648H28.5265C28.4602 53.857 28.3004 53.5942 28.0471 53.3764C27.7961 53.1562 27.4765 53.0462 27.0882 53.0462C26.7402 53.0462 26.4325 53.1409 26.165 53.3303C25.8974 53.5173 25.6879 53.7789 25.5364 54.1151C25.3873 54.4489 25.3127 54.8359 25.3127 55.2763C25.3127 55.719 25.3861 56.1108 25.5328 56.4517C25.6796 56.7902 25.8856 57.0554 26.1507 57.2472C26.4183 57.4389 26.7308 57.5348 27.0882 57.5348C27.3297 57.5348 27.5499 57.4898 27.7488 57.3999C27.95 57.3075 28.1181 57.1773 28.253 57.0092C28.3903 56.8411 28.4827 56.6411 28.53 56.4091H29.1692C29.1219 56.7382 29.0047 57.0317 28.8176 57.2898C28.633 57.5455 28.3927 57.7467 28.0968 57.8935C27.8032 58.0402 27.467 58.1136 27.0882 58.1136ZM32.644 58.1136C32.1729 58.1136 31.7562 57.9941 31.394 57.755C31.0342 57.5159 30.7524 57.1856 30.5488 56.7642C30.3452 56.3404 30.2434 55.8516 30.2434 55.2976C30.2434 54.7389 30.3452 54.2476 30.5488 53.8239C30.7524 53.3977 31.0342 53.0663 31.394 52.8295C31.7562 52.5904 32.1729 52.4709 32.644 52.4709C33.1151 52.4709 33.5306 52.5904 33.8904 52.8295C34.2503 53.0687 34.532 53.4001 34.7356 53.8239C34.9416 54.2476 35.0446 54.7389 35.0446 55.2976C35.0446 55.8516 34.9428 56.3404 34.7392 56.7642C34.5356 57.1856 34.2527 57.5159 33.8904 57.755C33.5306 57.9941 33.1151 58.1136 32.644 58.1136ZM32.644 57.5348C33.0228 57.5348 33.3436 57.433 33.6064 57.2294C33.8691 57.0258 34.068 56.7547 34.2029 56.4162C34.3403 56.0777 34.4089 55.7048 34.4089 55.2976C34.4089 54.8904 34.3403 54.5163 34.2029 54.1754C34.068 53.8345 33.8691 53.5611 33.6064 53.3551C33.3436 53.1491 33.0228 53.0462 32.644 53.0462C32.2676 53.0462 31.9468 53.1491 31.6816 53.3551C31.4189 53.5611 31.2188 53.8345 31.0815 54.1754C30.9466 54.5163 30.8791 54.8904 30.8791 55.2976C30.8791 55.7048 30.9466 56.0777 31.0815 56.4162C31.2188 56.7547 31.4189 57.0258 31.6816 57.2294C31.9444 57.433 32.2652 57.5348 32.644 57.5348ZM39.8981 55.9155V52.5455H40.5302V58H39.8981V57.0945H39.8484C39.7205 57.3738 39.5181 57.607 39.2411 57.794C38.9641 57.9787 38.6256 58.071 38.2255 58.071C37.8775 58.071 37.5685 57.9953 37.2987 57.8438C37.0288 57.6899 36.8169 57.465 36.663 57.169C36.5091 56.8731 36.4322 56.5097 36.4322 56.0788V52.5455H37.0643V56.0398C37.0643 56.4659 37.1897 56.8092 37.4407 57.0696C37.6916 57.3277 38.0136 57.4567 38.4066 57.4567C38.6528 57.4567 38.8896 57.3975 39.1168 57.2791C39.3441 57.1607 39.5311 56.9879 39.6779 56.7607C39.8247 56.531 39.8981 56.2493 39.8981 55.9155ZM42.2037 58V52.5455H42.818V53.3835H42.8642C42.9731 53.1089 43.1625 52.8875 43.4324 52.7195C43.7046 52.549 44.0124 52.4638 44.3556 52.4638C44.4077 52.4638 44.4657 52.465 44.5297 52.4673C44.5936 52.4697 44.6468 52.4721 44.6895 52.4744V53.1172C44.661 53.1125 44.6113 53.1054 44.5403 53.0959C44.4693 53.0864 44.3923 53.0817 44.3095 53.0817C44.0254 53.0817 43.7721 53.142 43.5495 53.2628C43.3294 53.3812 43.1554 53.5457 43.0275 53.7564C42.8997 53.9671 42.8358 54.2074 42.8358 54.4773V58H42.2037ZM49.4329 53.7422L48.854 53.9055C48.7972 53.7422 48.7167 53.5942 48.6126 53.4616C48.5084 53.3291 48.3723 53.2237 48.2042 53.1456C48.0385 53.0675 47.8325 53.0284 47.5863 53.0284C47.217 53.0284 46.9139 53.116 46.6772 53.2912C46.4405 53.4664 46.3221 53.6925 46.3221 53.9695C46.3221 54.2038 46.4026 54.3944 46.5636 54.5412C46.7269 54.6856 46.9779 54.8004 47.3164 54.8857L48.1403 55.0881C48.5972 55.1993 48.9393 55.3757 49.1665 55.6172C49.3962 55.8587 49.511 56.1617 49.511 56.5263C49.511 56.834 49.4258 57.1075 49.2553 57.3466C49.0849 57.5857 48.8469 57.7739 48.5415 57.9112C48.2385 58.0462 47.887 58.1136 47.4869 58.1136C46.9542 58.1136 46.515 57.9941 46.1694 57.755C45.8237 57.5135 45.6024 57.1655 45.5053 56.7109L46.1126 56.5618C46.1907 56.8861 46.3434 57.1312 46.5707 57.2969C46.8003 57.4626 47.1022 57.5455 47.4762 57.5455C47.8952 57.5455 48.2302 57.4519 48.4812 57.2649C48.7321 57.0755 48.8576 56.8388 48.8576 56.5547C48.8576 56.3345 48.7842 56.1499 48.6374 56.0007C48.4906 55.8492 48.2681 55.7379 47.9698 55.6669L47.0785 55.4538C46.605 55.3402 46.2546 55.1603 46.0273 54.9141C45.8001 54.6679 45.6864 54.3625 45.6864 53.9979C45.6864 53.6972 45.7681 53.4332 45.9315 53.206C46.0948 52.9763 46.3197 52.7964 46.6062 52.6662C46.8926 52.536 47.2193 52.4709 47.5863 52.4709C48.0858 52.4709 48.4847 52.5845 48.783 52.8118C49.0837 53.0367 49.3003 53.3468 49.4329 53.7422ZM53.1003 58.1136C52.5913 58.1136 52.151 57.9953 51.7793 57.7585C51.4076 57.5194 51.12 57.1892 50.9164 56.7678C50.7151 56.344 50.6145 55.8563 50.6145 55.3047C50.6145 54.7554 50.7151 54.2678 50.9164 53.8416C51.12 53.4131 51.4005 53.0781 51.758 52.8366C52.1178 52.5928 52.5333 52.4709 53.0044 52.4709C53.3004 52.4709 53.5856 52.5253 53.8603 52.6342C54.1349 52.7408 54.3811 52.9053 54.5989 53.1278C54.8191 53.348 54.9931 53.6262 55.1209 53.9624C55.2488 54.2962 55.3127 54.6915 55.3127 55.1484V55.4609H51.0513V54.9034H54.6664C54.6664 54.553 54.5953 54.2382 54.4533 53.9588C54.3136 53.6771 54.1183 53.4545 53.8674 53.2912C53.6188 53.1278 53.3311 53.0462 53.0044 53.0462C52.6588 53.0462 52.3546 53.1385 52.0918 53.3232C51.829 53.5078 51.623 53.7517 51.4739 54.0547C51.3271 54.3577 51.2525 54.6892 51.2502 55.049V55.3828C51.2502 55.8161 51.3248 56.1948 51.4739 56.5192C51.6254 56.8411 51.8397 57.0909 52.1167 57.2685C52.3936 57.446 52.7215 57.5348 53.1003 57.5348C53.3584 57.5348 53.5845 57.4946 53.7786 57.4141C53.9751 57.3336 54.1396 57.2259 54.2722 57.0909C54.4071 56.9536 54.5089 56.8033 54.5776 56.6399L55.1777 56.8352C55.0949 57.0649 54.9587 57.2768 54.7694 57.4709C54.5823 57.665 54.348 57.8213 54.0662 57.9396C53.7869 58.0556 53.4649 58.1136 53.1003 58.1136ZM60.3704 53.7422L59.7915 53.9055C59.7347 53.7422 59.6542 53.5942 59.5501 53.4616C59.4459 53.3291 59.3098 53.2237 59.1417 53.1456C58.976 53.0675 58.77 53.0284 58.5238 53.0284C58.1545 53.0284 57.8514 53.116 57.6147 53.2912C57.378 53.4664 57.2596 53.6925 57.2596 53.9695C57.2596 54.2038 57.3401 54.3944 57.5011 54.5412C57.6644 54.6856 57.9154 54.8004 58.2539 54.8857L59.0778 55.0881C59.5347 55.1993 59.8768 55.3757 60.104 55.6172C60.3337 55.8587 60.4485 56.1617 60.4485 56.5263C60.4485 56.834 60.3633 57.1075 60.1928 57.3466C60.0224 57.5857 59.7844 57.7739 59.479 57.9112C59.176 58.0462 58.8245 58.1136 58.4244 58.1136C57.8917 58.1136 57.4525 57.9941 57.1069 57.755C56.7612 57.5135 56.5399 57.1655 56.4428 56.7109L57.0501 56.5618C57.1282 56.8861 57.2809 57.1312 57.5082 57.2969C57.7378 57.4626 58.0397 57.5455 58.4137 57.5455C58.8327 57.5455 59.1677 57.4519 59.4187 57.2649C59.6696 57.0755 59.7951 56.8388 59.7951 56.5547C59.7951 56.3345 59.7217 56.1499 59.5749 56.0007C59.4281 55.8492 59.2056 55.7379 58.9073 55.6669L58.016 55.4538C57.5425 55.3402 57.1921 55.1603 56.9648 54.9141C56.7376 54.6679 56.6239 54.3625 56.6239 53.9979C56.6239 53.6972 56.7056 53.4332 56.869 53.206C57.0323 52.9763 57.2572 52.7964 57.5437 52.6662C57.8301 52.536 58.1568 52.4709 58.5238 52.4709C59.0233 52.4709 59.4222 52.5845 59.7205 52.8118C60.0212 53.0367 60.2378 53.3468 60.3704 53.7422ZM64.6451 58V52.5455H65.2594V53.3835H65.3162C65.4251 53.1018 65.6062 52.8804 65.8596 52.7195C66.1152 52.5561 66.4218 52.4744 66.7793 52.4744C67.1557 52.4744 67.4647 52.5632 67.7061 52.7408C67.95 52.916 68.1323 53.1574 68.253 53.4652H68.2992C68.4223 53.1622 68.6223 52.9219 68.8993 52.7443C69.1787 52.5644 69.5172 52.4744 69.915 52.4744C70.4216 52.4744 70.8217 52.6342 71.1152 52.9538C71.4088 53.2711 71.5556 53.7351 71.5556 54.3459V58H70.9235V54.3459C70.9235 53.915 70.8134 53.5919 70.5932 53.3764C70.373 53.161 70.083 53.0533 69.7232 53.0533C69.3065 53.0533 68.9857 53.1811 68.7608 53.4368C68.5359 53.6925 68.4235 54.0168 68.4235 54.4098V58H67.7772V54.2891C67.7772 53.9197 67.6742 53.6214 67.4682 53.3942C67.2623 53.1669 66.9722 53.0533 66.5982 53.0533C66.3472 53.0533 66.1212 53.1148 65.9199 53.2379C65.7211 53.361 65.5636 53.5327 65.4476 53.7528C65.334 53.9706 65.2772 54.2216 65.2772 54.5057V58H64.6451ZM76.695 55.9155V52.5455H77.3271V58H76.695V57.0945H76.6452C76.5174 57.3738 76.315 57.607 76.038 57.794C75.761 57.9787 75.4225 58.071 75.0224 58.071C74.6744 58.071 74.3654 57.9953 74.0955 57.8438C73.8256 57.6899 73.6138 57.465 73.4599 57.169C73.306 56.8731 73.229 56.5097 73.229 56.0788V52.5455H73.8612V56.0398C73.8612 56.4659 73.9866 56.8092 74.2376 57.0696C74.4885 57.3277 74.8105 57.4567 75.2035 57.4567C75.4497 57.4567 75.6864 57.3975 75.9137 57.2791C76.141 57.1607 76.328 56.9879 76.4748 56.7607C76.6216 56.531 76.695 56.2493 76.695 55.9155ZM82.6653 53.7422L82.0865 53.9055C82.0297 53.7422 81.9492 53.5942 81.845 53.4616C81.7408 53.3291 81.6047 53.2237 81.4366 53.1456C81.2709 53.0675 81.0649 53.0284 80.8187 53.0284C80.4494 53.0284 80.1464 53.116 79.9096 53.2912C79.6729 53.4664 79.5545 53.6925 79.5545 53.9695C79.5545 54.2038 79.635 54.3944 79.796 54.5412C79.9593 54.6856 80.2103 54.8004 80.5488 54.8857L81.3727 55.0881C81.8296 55.1993 82.1717 55.3757 82.399 55.6172C82.6286 55.8587 82.7434 56.1617 82.7434 56.5263C82.7434 56.834 82.6582 57.1075 82.4877 57.3466C82.3173 57.5857 82.0794 57.7739 81.774 57.9112C81.4709 58.0462 81.1194 58.1136 80.7193 58.1136C80.1866 58.1136 79.7475 57.9941 79.4018 57.755C79.0562 57.5135 78.8348 57.1655 78.7377 56.7109L79.345 56.5618C79.4231 56.8861 79.5758 57.1312 79.8031 57.2969C80.0327 57.4626 80.3346 57.5455 80.7086 57.5455C81.1277 57.5455 81.4627 57.4519 81.7136 57.2649C81.9645 57.0755 82.09 56.8388 82.09 56.5547C82.09 56.3345 82.0166 56.1499 81.8699 56.0007C81.7231 55.8492 81.5005 55.7379 81.2022 55.6669L80.3109 55.4538C79.8374 55.3402 79.487 55.1603 79.2598 54.9141C79.0325 54.6679 78.9189 54.3625 78.9189 53.9979C78.9189 53.6972 79.0005 53.4332 79.1639 53.206C79.3272 52.9763 79.5521 52.7964 79.8386 52.6662C80.1251 52.536 80.4518 52.4709 80.8187 52.4709C81.3182 52.4709 81.7172 52.5845 82.0154 52.8118C82.3161 53.0367 82.5327 53.3468 82.6653 53.7422ZM86.2759 52.5455V53.0959H83.6729V52.5455H86.2759ZM84.4862 51.2386H85.1218V56.576C85.1218 56.8033 85.1609 56.982 85.239 57.1122C85.3171 57.2401 85.4189 57.3312 85.5444 57.3857C85.6699 57.4377 85.8036 57.4638 85.9457 57.4638C86.0285 57.4638 86.0996 57.459 86.1587 57.4496C86.2179 57.4377 86.27 57.4259 86.315 57.4141L86.4499 57.9858C86.3884 58.0095 86.3126 58.0308 86.2227 58.0497C86.1327 58.071 86.0214 58.0817 85.8888 58.0817C85.6568 58.0817 85.4331 58.0308 85.2177 57.929C85.0046 57.8272 84.8294 57.6757 84.6921 57.4744C84.5548 57.2732 84.4862 57.0234 84.4862 56.7251V51.2386ZM30.2749 70L28.6272 64.5455H29.2948L30.5874 69.0447H30.6336L31.9227 64.5455H32.5938L33.8722 69.0341H33.922L35.2146 64.5455H35.8822L34.2345 70H33.5811L32.2884 65.5291H32.221L30.9284 70H30.2749ZM39.0454 70.1136C38.5742 70.1136 38.1576 69.9941 37.7954 69.755C37.4355 69.5159 37.1538 69.1856 36.9502 68.7642C36.7466 68.3404 36.6448 67.8516 36.6448 67.2976C36.6448 66.7389 36.7466 66.2476 36.9502 65.8239C37.1538 65.3977 37.4355 65.0663 37.7954 64.8295C38.1576 64.5904 38.5742 64.4709 39.0454 64.4709C39.5165 64.4709 39.932 64.5904 40.2918 64.8295C40.6517 65.0687 40.9334 65.4001 41.137 65.8239C41.343 66.2476 41.4459 66.7389 41.4459 67.2976C41.4459 67.8516 41.3441 68.3404 41.1405 68.7642C40.9369 69.1856 40.654 69.5159 40.2918 69.755C39.932 69.9941 39.5165 70.1136 39.0454 70.1136ZM39.0454 69.5348C39.4242 69.5348 39.7449 69.433 40.0077 69.2294C40.2705 69.0258 40.4694 68.7547 40.6043 68.4162C40.7416 68.0777 40.8103 67.7048 40.8103 67.2976C40.8103 66.8904 40.7416 66.5163 40.6043 66.1754C40.4694 65.8345 40.2705 65.5611 40.0077 65.3551C39.7449 65.1491 39.4242 65.0462 39.0454 65.0462C38.6689 65.0462 38.3482 65.1491 38.083 65.3551C37.8202 65.5611 37.6202 65.8345 37.4829 66.1754C37.3479 66.5163 37.2805 66.8904 37.2805 67.2976C37.2805 67.7048 37.3479 68.0777 37.4829 68.4162C37.6202 68.7547 37.8202 69.0258 38.083 69.2294C38.3458 69.433 38.6666 69.5348 39.0454 69.5348ZM42.8335 70V64.5455H43.4479V65.3835H43.4941C43.603 65.1089 43.7923 64.8875 44.0622 64.7195C44.3345 64.549 44.6423 64.4638 44.9855 64.4638C45.0376 64.4638 45.0956 64.465 45.1595 64.4673C45.2235 64.4697 45.2767 64.4721 45.3193 64.4744V65.1172C45.2909 65.1125 45.2412 65.1054 45.1702 65.0959C45.0992 65.0864 45.0222 65.0817 44.9394 65.0817C44.6553 65.0817 44.402 65.142 44.1794 65.2628C43.9593 65.3812 43.7852 65.5457 43.6574 65.7564C43.5296 65.9671 43.4656 66.2074 43.4656 66.4773V70H42.8335ZM46.9733 67.9403L46.9662 67.1129H47.1082L49.665 64.5455H50.464L47.9392 67.0739L47.8824 67.0845L46.9733 67.9403ZM46.398 70V62.7273H47.0301V70H46.398ZM49.7964 70L47.5805 67.1982L48.0351 66.7614L50.6061 70H49.7964ZM56.5844 70.1136C56.1133 70.1136 55.6966 69.9941 55.3344 69.755C54.9746 69.5159 54.6929 69.1856 54.4893 68.7642C54.2857 68.3404 54.1839 67.8516 54.1839 67.2976C54.1839 66.7389 54.2857 66.2476 54.4893 65.8239C54.6929 65.3977 54.9746 65.0663 55.3344 64.8295C55.6966 64.5904 56.1133 64.4709 56.5844 64.4709C57.0555 64.4709 57.471 64.5904 57.8309 64.8295C58.1907 65.0687 58.4724 65.4001 58.676 65.8239C58.882 66.2476 58.985 66.7389 58.985 67.2976C58.985 67.8516 58.8832 68.3404 58.6796 68.7642C58.476 69.1856 58.1931 69.5159 57.8309 69.755C57.471 69.9941 57.0555 70.1136 56.5844 70.1136ZM56.5844 69.5348C56.9632 69.5348 57.284 69.433 57.5468 69.2294C57.8096 69.0258 58.0084 68.7547 58.1434 68.4162C58.2807 68.0777 58.3493 67.7048 58.3493 67.2976C58.3493 66.8904 58.2807 66.5163 58.1434 66.1754C58.0084 65.8345 57.8096 65.5611 57.5468 65.3551C57.284 65.1491 56.9632 65.0462 56.5844 65.0462C56.208 65.0462 55.8872 65.1491 55.6221 65.3551C55.3593 65.5611 55.1592 65.8345 55.0219 66.1754C54.887 66.5163 54.8195 66.8904 54.8195 67.2976C54.8195 67.7048 54.887 68.0777 55.0219 68.4162C55.1592 68.7547 55.3593 69.0258 55.6221 69.2294C55.8849 69.433 56.2056 69.5348 56.5844 69.5348ZM62.6169 64.5455V65.0959H59.9358V64.5455H62.6169ZM60.7739 70V63.7464C60.7739 63.4529 60.8414 63.2055 60.9763 63.0043C61.1136 62.803 61.2923 62.6503 61.5125 62.5462C61.7327 62.442 61.9659 62.3899 62.2121 62.3899C62.3778 62.3899 62.5151 62.4041 62.624 62.4325C62.7353 62.4586 62.8229 62.4846 62.8868 62.5107L62.7021 63.0646C62.6548 63.0504 62.5968 63.0339 62.5281 63.0149C62.4595 62.996 62.3731 62.9865 62.2689 62.9865C61.9943 62.9865 61.7824 63.0634 61.6333 63.2173C61.4841 63.3712 61.4095 63.5914 61.4095 63.8778L61.406 70H60.7739ZM66.1228 64.5455V65.0959H63.4417V64.5455H66.1228ZM64.2797 70V63.7464C64.2797 63.4529 64.3472 63.2055 64.4822 63.0043C64.6195 62.803 64.7982 62.6503 65.0184 62.5462C65.2385 62.442 65.4717 62.3899 65.718 62.3899C65.8837 62.3899 66.021 62.4041 66.1299 62.4325C66.2412 62.4586 66.3287 62.4846 66.3927 62.5107L66.208 63.0646C66.1607 63.0504 66.1027 63.0339 66.034 63.0149C65.9653 62.996 65.8789 62.9865 65.7748 62.9865C65.5001 62.9865 65.2883 63.0634 65.1391 63.2173C64.99 63.3712 64.9154 63.5914 64.9154 63.8778L64.9118 70H64.2797ZM68.0164 62.7273V70H67.3843V62.7273H68.0164ZM69.6961 70V64.5455H70.3318V70H69.6961ZM70.0193 63.608C69.8891 63.608 69.7778 63.5642 69.6855 63.4766C69.5931 63.3866 69.547 63.2789 69.547 63.1534C69.547 63.0279 69.5931 62.9214 69.6855 62.8338C69.7778 62.7438 69.8891 62.6989 70.0193 62.6989C70.1495 62.6989 70.2607 62.7438 70.3531 62.8338C70.4454 62.9214 70.4916 63.0279 70.4916 63.1534C70.4916 63.2789 70.4454 63.3866 70.3531 63.4766C70.2607 63.5642 70.1495 63.608 70.0193 63.608ZM72.6356 66.5909V70H72.0035V64.5455H72.6178V65.4013H72.6746C72.8025 65.1219 73.0013 64.8982 73.2712 64.7301C73.5435 64.5597 73.8796 64.4744 74.2797 64.4744C74.6467 64.4744 74.9687 64.5514 75.2456 64.7053C75.525 64.8568 75.7416 65.0805 75.8955 65.3764C76.0518 65.6723 76.1299 66.0357 76.1299 66.4666V70H75.4978V66.5057C75.4978 66.0582 75.3723 65.7043 75.1214 65.4439C74.8728 65.1835 74.539 65.0533 74.1199 65.0533C73.8335 65.0533 73.579 65.1148 73.3564 65.2379C73.1339 65.361 72.9575 65.5386 72.8273 65.7706C72.6995 66.0002 72.6356 66.2737 72.6356 66.5909ZM79.9997 70.1136C79.4907 70.1136 79.0504 69.9953 78.6787 69.7585C78.307 69.5194 78.0194 69.1892 77.8158 68.7678C77.6146 68.344 77.5139 67.8563 77.5139 67.3047C77.5139 66.7554 77.6146 66.2678 77.8158 65.8416C78.0194 65.4131 78.2999 65.0781 78.6574 64.8366C79.0173 64.5928 79.4327 64.4709 79.9039 64.4709C80.1998 64.4709 80.4851 64.5253 80.7597 64.6342C81.0343 64.7408 81.2805 64.9053 81.4983 65.1278C81.7185 65.348 81.8925 65.6262 82.0203 65.9624C82.1482 66.2962 82.2121 66.6915 82.2121 67.1484V67.4609H77.9507V66.9034H81.5658C81.5658 66.553 81.4948 66.2382 81.3527 65.9588C81.213 65.6771 81.0177 65.4545 80.7668 65.2912C80.5182 65.1278 80.2306 65.0462 79.9039 65.0462C79.5582 65.0462 79.254 65.1385 78.9912 65.3232C78.7284 65.5078 78.5225 65.7517 78.3733 66.0547C78.2265 66.3577 78.152 66.6892 78.1496 67.049V67.3828C78.1496 67.8161 78.2242 68.1948 78.3733 68.5192C78.5248 68.8411 78.7391 69.0909 79.0161 69.2685C79.2931 69.446 79.6209 69.5348 79.9997 69.5348C80.2578 69.5348 80.4839 69.4946 80.678 69.4141C80.8745 69.3336 81.039 69.2259 81.1716 69.0909C81.3066 68.9536 81.4084 68.8033 81.477 68.6399L82.0771 68.8352C81.9943 69.0649 81.8582 69.2768 81.6688 69.4709C81.4817 69.665 81.2474 69.8213 80.9656 69.9396C80.6863 70.0556 80.3643 70.1136 79.9997 70.1136Z" fill="#222222"/>
</svg>
