<svg width="118" height="118" viewBox="0 0 118 118" fill="none" xmlns="http://www.w3.org/2000/svg">
<g filter="url(#filter0_d_893_413)">
<rect x="4" width="110" height="110" fill="#FCDC4A"/>
<path d="M20.3972 22.5455V23.0959H17.7161V22.5455H20.3972ZM18.5542 28V21.7464C18.5542 21.4529 18.6216 21.2055 18.7566 21.0043C18.8939 20.803 19.0726 20.6503 19.2928 20.5462C19.513 20.442 19.7462 20.3899 19.9924 20.3899C20.1581 20.3899 20.2954 20.4041 20.4043 20.4325C20.5156 20.4586 20.6032 20.4846 20.6671 20.5107L20.4824 21.0646C20.4351 21.0504 20.3771 21.0339 20.3084 21.0149C20.2398 20.996 20.1534 20.9865 20.0492 20.9865C19.7746 20.9865 19.5627 21.0634 19.4135 21.2173C19.2644 21.3712 19.1898 21.5914 19.1898 21.8778L19.1863 28H18.5542ZM23.5542 28.1136C23.083 28.1136 22.6664 27.9941 22.3042 27.755C21.9443 27.5159 21.6626 27.1856 21.459 26.7642C21.2554 26.3404 21.1536 25.8516 21.1536 25.2976C21.1536 24.7389 21.2554 24.2476 21.459 23.8239C21.6626 23.3977 21.9443 23.0663 22.3042 22.8295C22.6664 22.5904 23.083 22.4709 23.5542 22.4709C24.0253 22.4709 24.4408 22.5904 24.8006 22.8295C25.1605 23.0687 25.4422 23.4001 25.6458 23.8239C25.8517 24.2476 25.9547 24.7389 25.9547 25.2976C25.9547 25.8516 25.8529 26.3404 25.6493 26.7642C25.4457 27.1856 25.1628 27.5159 24.8006 27.755C24.4408 27.9941 24.0253 28.1136 23.5542 28.1136ZM23.5542 27.5348C23.9329 27.5348 24.2537 27.433 24.5165 27.2294C24.7793 27.0258 24.9782 26.7547 25.1131 26.4162C25.2504 26.0777 25.3191 25.7048 25.3191 25.2976C25.3191 24.8904 25.2504 24.5163 25.1131 24.1754C24.9782 23.8345 24.7793 23.5611 24.5165 23.3551C24.2537 23.1491 23.9329 23.0462 23.5542 23.0462C23.1777 23.0462 22.8569 23.1491 22.5918 23.3551C22.329 23.5611 22.129 23.8345 21.9917 24.1754C21.8567 24.5163 21.7892 24.8904 21.7892 25.2976C21.7892 25.7048 21.8567 26.0777 21.9917 26.4162C22.129 26.7547 22.329 27.0258 22.5918 27.2294C22.8546 27.433 23.1754 27.5348 23.5542 27.5348ZM31.3693 22.5455L29.3771 28H28.7024L26.7102 22.5455H27.3956L29.0149 27.1655H29.0646L30.6839 22.5455H31.3693ZM34.6159 28.1136C34.1069 28.1136 33.6666 27.9953 33.2949 27.7585C32.9232 27.5194 32.6356 27.1892 32.432 26.7678C32.2308 26.344 32.1301 25.8563 32.1301 25.3047C32.1301 24.7554 32.2308 24.2678 32.432 23.8416C32.6356 23.4131 32.9161 23.0781 33.2736 22.8366C33.6335 22.5928 34.0489 22.4709 34.5201 22.4709C34.816 22.4709 35.1013 22.5253 35.3759 22.6342C35.6505 22.7408 35.8967 22.9053 36.1145 23.1278C36.3347 23.348 36.5087 23.6262 36.6365 23.9624C36.7644 24.2962 36.8283 24.6915 36.8283 25.1484V25.4609H32.5669V24.9034H36.182C36.182 24.553 36.111 24.2382 35.9689 23.9588C35.8292 23.6771 35.6339 23.4545 35.383 23.2912C35.1344 23.1278 34.8468 23.0462 34.5201 23.0462C34.1744 23.0462 33.8702 23.1385 33.6074 23.3232C33.3446 23.5078 33.1387 23.7517 32.9895 24.0547C32.8427 24.3577 32.7682 24.6892 32.7658 25.049V25.3828C32.7658 25.8161 32.8404 26.1948 32.9895 26.5192C33.141 26.8411 33.3553 27.0909 33.6323 27.2685C33.9093 27.446 34.2372 27.5348 34.6159 27.5348C34.874 27.5348 35.1001 27.4946 35.2942 27.4141C35.4907 27.3336 35.6552 27.2259 35.7878 27.0909C35.9228 26.9536 36.0246 26.8033 36.0932 26.6399L36.6934 26.8352C36.6105 27.0649 36.4744 27.2768 36.285 27.4709C36.098 27.665 35.8636 27.8213 35.5819 27.9396C35.3025 28.0556 34.9805 28.1136 34.6159 28.1136ZM42.2775 22.5455L40.2853 28H39.6106L37.6184 22.5455H38.3038L39.9231 27.1655H39.9728L41.5922 22.5455H42.2775ZM45.5241 28.1136C45.0152 28.1136 44.5748 27.9953 44.2031 27.7585C43.8314 27.5194 43.5438 27.1892 43.3402 26.7678C43.139 26.344 43.0384 25.8563 43.0384 25.3047C43.0384 24.7554 43.139 24.2678 43.3402 23.8416C43.5438 23.4131 43.8243 23.0781 44.1818 22.8366C44.5417 22.5928 44.9571 22.4709 45.4283 22.4709C45.7242 22.4709 46.0095 22.5253 46.2841 22.6342C46.5587 22.7408 46.8049 22.9053 47.0227 23.1278C47.2429 23.348 47.4169 23.6262 47.5447 23.9624C47.6726 24.2962 47.7365 24.6915 47.7365 25.1484V25.4609H43.4751V24.9034H47.0902C47.0902 24.553 47.0192 24.2382 46.8771 23.9588C46.7375 23.6771 46.5421 23.4545 46.2912 23.2912C46.0426 23.1278 45.755 23.0462 45.4283 23.0462C45.0826 23.0462 44.7784 23.1385 44.5156 23.3232C44.2528 23.5078 44.0469 23.7517 43.8977 24.0547C43.7509 24.3577 43.6764 24.6892 43.674 25.049V25.3828C43.674 25.8161 43.7486 26.1948 43.8977 26.5192C44.0492 26.8411 44.2635 27.0909 44.5405 27.2685C44.8175 27.446 45.1454 27.5348 45.5241 27.5348C45.7822 27.5348 46.0083 27.4946 46.2024 27.4141C46.3989 27.3336 46.5634 27.2259 46.696 27.0909C46.831 26.9536 46.9328 26.8033 47.0014 26.6399L47.6016 26.8352C47.5187 27.0649 47.3826 27.2768 47.1932 27.4709C47.0062 27.665 46.7718 27.8213 46.4901 27.9396C46.2107 28.0556 45.8887 28.1136 45.5241 28.1136ZM49.1294 28V22.5455H49.7438V23.3835H49.79C49.8989 23.1089 50.0882 22.8875 50.3581 22.7195C50.6304 22.549 50.9382 22.4638 51.2814 22.4638C51.3335 22.4638 51.3915 22.465 51.4554 22.4673C51.5194 22.4697 51.5726 22.4721 51.6152 22.4744V23.1172C51.5868 23.1125 51.5371 23.1054 51.4661 23.0959C51.3951 23.0864 51.3181 23.0817 51.2353 23.0817C50.9512 23.0817 50.6979 23.142 50.4753 23.2628C50.2551 23.3812 50.0811 23.5457 49.9533 23.7564C49.8255 23.9671 49.7615 24.2074 49.7615 24.4773V28H49.1294ZM57.0298 28.1243C56.7008 28.1243 56.4001 28.0604 56.1278 27.9325C55.8556 27.8023 55.639 27.6153 55.478 27.3714C55.317 27.1252 55.2365 26.8269 55.2365 26.4766C55.2365 26.2067 55.2874 25.9794 55.3892 25.7947C55.491 25.6101 55.6354 25.4586 55.8224 25.3402C56.0095 25.2218 56.2308 25.1283 56.4865 25.0597C56.7422 24.991 57.0239 24.9377 57.3317 24.8999C57.6371 24.862 57.8951 24.8288 58.1058 24.8004C58.3189 24.772 58.4811 24.727 58.5923 24.6655C58.7036 24.6039 58.7592 24.5045 58.7592 24.3672V24.2393C58.7592 23.8677 58.648 23.5753 58.4254 23.3622C58.2053 23.1468 57.888 23.0391 57.4737 23.0391C57.0807 23.0391 56.7599 23.1255 56.5114 23.2983C56.2652 23.4711 56.0923 23.6747 55.9929 23.9091L55.3928 23.6925C55.5159 23.3942 55.6863 23.1562 55.9041 22.9787C56.1219 22.7988 56.3658 22.6697 56.6357 22.5916C56.9055 22.5111 57.179 22.4709 57.456 22.4709C57.6643 22.4709 57.8809 22.4981 58.1058 22.5526C58.3331 22.607 58.5438 22.7017 58.7379 22.8366C58.9321 22.9692 59.0895 23.1551 59.2102 23.3942C59.331 23.6309 59.3913 23.9316 59.3913 24.2962V28H58.7592V27.1371H58.7202C58.6444 27.2981 58.532 27.4543 58.3828 27.6058C58.2337 27.7573 58.0466 27.8816 57.8217 27.9787C57.5968 28.0758 57.3329 28.1243 57.0298 28.1243ZM57.1151 27.5455C57.4512 27.5455 57.7424 27.4709 57.9886 27.3217C58.2348 27.1726 58.4242 26.9749 58.5568 26.7287C58.6918 26.4801 58.7592 26.2067 58.7592 25.9084V25.12C58.7119 25.165 58.6326 25.2053 58.5213 25.2408C58.4124 25.2763 58.2857 25.3082 58.1413 25.3366C57.9993 25.3627 57.8572 25.3852 57.7152 25.4041C57.5732 25.4231 57.4453 25.4396 57.3317 25.4538C57.0239 25.4917 56.7611 25.5509 56.5433 25.6314C56.3255 25.7119 56.1586 25.8232 56.0426 25.9652C55.9266 26.1049 55.8686 26.2848 55.8686 26.505C55.8686 26.8364 55.987 27.0933 56.2237 27.2756C56.4605 27.4555 56.7576 27.5455 57.1151 27.5455ZM63.2035 28.1136C62.7158 28.1136 62.2908 27.9917 61.9286 27.7479C61.5688 27.504 61.2894 27.1702 61.0906 26.7464C60.8917 26.3227 60.7923 25.8397 60.7923 25.2976C60.7923 24.7507 60.8929 24.2642 61.0941 23.8381C61.2977 23.4119 61.5794 23.0781 61.9393 22.8366C62.2991 22.5928 62.717 22.4709 63.1928 22.4709C63.5574 22.4709 63.8877 22.5419 64.1836 22.6839C64.4795 22.8236 64.7234 23.0213 64.9151 23.277C65.1093 23.5303 65.2312 23.8262 65.2809 24.1648H64.6417C64.5754 23.857 64.4156 23.5942 64.1623 23.3764C63.9113 23.1562 63.5917 23.0462 63.2035 23.0462C62.8555 23.0462 62.5477 23.1409 62.2802 23.3303C62.0127 23.5173 61.8031 23.7789 61.6516 24.1151C61.5025 24.4489 61.4279 24.8359 61.4279 25.2763C61.4279 25.719 61.5013 26.1108 61.6481 26.4517C61.7949 26.7902 62.0008 27.0554 62.266 27.2472C62.5335 27.4389 62.846 27.5348 63.2035 27.5348C63.445 27.5348 63.6651 27.4898 63.864 27.3999C64.0652 27.3075 64.2333 27.1773 64.3683 27.0092C64.5056 26.8411 64.5979 26.6411 64.6452 26.4091H65.2844C65.2371 26.7382 65.1199 27.0317 64.9329 27.2898C64.7482 27.5455 64.5079 27.7467 64.212 27.8935C63.9184 28.0402 63.5823 28.1136 63.2035 28.1136ZM68.7699 28.1136C68.2822 28.1136 67.8572 27.9917 67.495 27.7479C67.1352 27.504 66.8558 27.1702 66.657 26.7464C66.4581 26.3227 66.3587 25.8397 66.3587 25.2976C66.3587 24.7507 66.4593 24.2642 66.6605 23.8381C66.8641 23.4119 67.1458 23.0781 67.5057 22.8366C67.8655 22.5928 68.2834 22.4709 68.7592 22.4709C69.1238 22.4709 69.4541 22.5419 69.75 22.6839C70.0459 22.8236 70.2898 23.0213 70.4815 23.277C70.6757 23.5303 70.7976 23.8262 70.8473 24.1648H70.2081C70.1418 23.857 69.982 23.5942 69.7287 23.3764C69.4777 23.1562 69.1581 23.0462 68.7699 23.0462C68.4219 23.0462 68.1141 23.1409 67.8466 23.3303C67.5791 23.5173 67.3696 23.7789 67.218 24.1151C67.0689 24.4489 66.9943 24.8359 66.9943 25.2763C66.9943 25.719 67.0677 26.1108 67.2145 26.4517C67.3613 26.7902 67.5672 27.0554 67.8324 27.2472C68.0999 27.4389 68.4124 27.5348 68.7699 27.5348C69.0114 27.5348 69.2315 27.4898 69.4304 27.3999C69.6316 27.3075 69.7997 27.1773 69.9347 27.0092C70.072 26.8411 70.1643 26.6411 70.2116 26.4091H70.8509C70.8035 26.7382 70.6863 27.0317 70.4993 27.2898C70.3146 27.5455 70.0743 27.7467 69.7784 27.8935C69.4848 28.0402 69.1487 28.1136 68.7699 28.1136ZM74.4109 28.1136C73.9019 28.1136 73.4615 27.9953 73.0898 27.7585C72.7182 27.5194 72.4305 27.1892 72.2269 26.7678C72.0257 26.344 71.9251 25.8563 71.9251 25.3047C71.9251 24.7554 72.0257 24.2678 72.2269 23.8416C72.4305 23.4131 72.7111 23.0781 73.0685 22.8366C73.4284 22.5928 73.8439 22.4709 74.315 22.4709C74.6109 22.4709 74.8962 22.5253 75.1708 22.6342C75.4454 22.7408 75.6916 22.9053 75.9094 23.1278C76.1296 23.348 76.3036 23.6262 76.4315 23.9624C76.5593 24.2962 76.6232 24.6915 76.6232 25.1484V25.4609H72.3619V24.9034H75.9769C75.9769 24.553 75.9059 24.2382 75.7638 23.9588C75.6242 23.6771 75.4289 23.4545 75.1779 23.2912C74.9293 23.1278 74.6417 23.0462 74.315 23.0462C73.9693 23.0462 73.6651 23.1385 73.4023 23.3232C73.1396 23.5078 72.9336 23.7517 72.7844 24.0547C72.6377 24.3577 72.5631 24.6892 72.5607 25.049V25.3828C72.5607 25.8161 72.6353 26.1948 72.7844 26.5192C72.936 26.8411 73.1502 27.0909 73.4272 27.2685C73.7042 27.446 74.0321 27.5348 74.4109 27.5348C74.6689 27.5348 74.895 27.4946 75.0891 27.4141C75.2856 27.3336 75.4502 27.2259 75.5827 27.0909C75.7177 26.9536 75.8195 26.8033 75.8881 26.6399L76.4883 26.8352C76.4054 27.0649 76.2693 27.2768 76.0799 27.4709C75.8929 27.665 75.6585 27.8213 75.3768 27.9396C75.0974 28.0556 74.7754 28.1136 74.4109 28.1136ZM81.6809 23.7422L81.1021 23.9055C81.0453 23.7422 80.9648 23.5942 80.8606 23.4616C80.7565 23.3291 80.6203 23.2237 80.4522 23.1456C80.2865 23.0675 80.0806 23.0284 79.8343 23.0284C79.465 23.0284 79.162 23.116 78.9252 23.2912C78.6885 23.4664 78.5701 23.6925 78.5701 23.9695C78.5701 24.2038 78.6506 24.3944 78.8116 24.5412C78.975 24.6856 79.2259 24.8004 79.5645 24.8857L80.3883 25.0881C80.8452 25.1993 81.1873 25.3757 81.4146 25.6172C81.6442 25.8587 81.7591 26.1617 81.7591 26.5263C81.7591 26.834 81.6738 27.1075 81.5034 27.3466C81.3329 27.5857 81.095 27.7739 80.7896 27.9112C80.4866 28.0462 80.135 28.1136 79.7349 28.1136C79.2022 28.1136 78.7631 27.9941 78.4174 27.755C78.0718 27.5135 77.8504 27.1655 77.7534 26.7109L78.3606 26.5618C78.4387 26.8861 78.5914 27.1312 78.8187 27.2969C79.0484 27.4626 79.3502 27.5455 79.7243 27.5455C80.1433 27.5455 80.4783 27.4519 80.7292 27.2649C80.9802 27.0755 81.1056 26.8388 81.1056 26.5547C81.1056 26.3345 81.0323 26.1499 80.8855 26.0007C80.7387 25.8492 80.5162 25.7379 80.2179 25.6669L79.3265 25.4538C78.853 25.3402 78.5027 25.1603 78.2754 24.9141C78.0481 24.6679 77.9345 24.3625 77.9345 23.9979C77.9345 23.6972 78.0162 23.4332 78.1795 23.206C78.3429 22.9763 78.5678 22.7964 78.8542 22.6662C79.1407 22.536 79.4674 22.4709 79.8343 22.4709C80.3339 22.4709 80.7328 22.5845 81.0311 22.8118C81.3317 23.0367 81.5484 23.3468 81.6809 23.7422ZM86.8079 23.7422L86.229 23.9055C86.1722 23.7422 86.0917 23.5942 85.9876 23.4616C85.8834 23.3291 85.7473 23.2237 85.5792 23.1456C85.4135 23.0675 85.2075 23.0284 84.9613 23.0284C84.592 23.0284 84.2889 23.116 84.0522 23.2912C83.8155 23.4664 83.6971 23.6925 83.6971 23.9695C83.6971 24.2038 83.7776 24.3944 83.9386 24.5412C84.1019 24.6856 84.3529 24.8004 84.6914 24.8857L85.5153 25.0881C85.9722 25.1993 86.3143 25.3757 86.5415 25.6172C86.7712 25.8587 86.886 26.1617 86.886 26.5263C86.886 26.834 86.8008 27.1075 86.6303 27.3466C86.4599 27.5857 86.2219 27.7739 85.9165 27.9112C85.6135 28.0462 85.262 28.1136 84.8619 28.1136C84.3292 28.1136 83.89 27.9941 83.5444 27.755C83.1987 27.5135 82.9774 27.1655 82.8803 26.7109L83.4876 26.5618C83.5657 26.8861 83.7184 27.1312 83.9457 27.2969C84.1753 27.4626 84.4772 27.5455 84.8512 27.5455C85.2702 27.5455 85.6052 27.4519 85.8562 27.2649C86.1071 27.0755 86.2326 26.8388 86.2326 26.5547C86.2326 26.3345 86.1592 26.1499 86.0124 26.0007C85.8656 25.8492 85.6431 25.7379 85.3448 25.6669L84.4535 25.4538C83.98 25.3402 83.6296 25.1603 83.4023 24.9141C83.1751 24.6679 83.0614 24.3625 83.0614 23.9979C83.0614 23.6972 83.1431 23.4332 83.3065 23.206C83.4698 22.9763 83.6947 22.7964 83.9812 22.6662C84.2676 22.536 84.5943 22.4709 84.9613 22.4709C85.4608 22.4709 85.8597 22.5845 86.158 22.8118C86.4587 23.0367 86.6753 23.3468 86.8079 23.7422ZM93.231 22.5455V23.0959H90.628V22.5455H93.231ZM91.4412 21.2386H92.0769V26.576C92.0769 26.8033 92.1159 26.982 92.1941 27.1122C92.2722 27.2401 92.374 27.3312 92.4995 27.3857C92.6249 27.4377 92.7587 27.4638 92.9007 27.4638C92.9836 27.4638 93.0546 27.459 93.1138 27.4496C93.173 27.4377 93.2251 27.4259 93.2701 27.4141L93.405 27.9858C93.3435 28.0095 93.2677 28.0308 93.1777 28.0497C93.0878 28.071 92.9765 28.0817 92.8439 28.0817C92.6119 28.0817 92.3882 28.0308 92.1728 27.929C91.9597 27.8272 91.7845 27.6757 91.6472 27.4744C91.5099 27.2732 91.4412 27.0234 91.4412 26.7251V21.2386ZM96.728 28.1136C96.2569 28.1136 95.8402 27.9941 95.478 27.755C95.1181 27.5159 94.8364 27.1856 94.6328 26.7642C94.4292 26.3404 94.3274 25.8516 94.3274 25.2976C94.3274 24.7389 94.4292 24.2476 94.6328 23.8239C94.8364 23.3977 95.1181 23.0663 95.478 22.8295C95.8402 22.5904 96.2569 22.4709 96.728 22.4709C97.1991 22.4709 97.6146 22.5904 97.9744 22.8295C98.3343 23.0687 98.616 23.4001 98.8196 23.8239C99.0256 24.2476 99.1286 24.7389 99.1286 25.2976C99.1286 25.8516 99.0268 26.3404 98.8232 26.7642C98.6196 27.1856 98.3366 27.5159 97.9744 27.755C97.6146 27.9941 97.1991 28.1136 96.728 28.1136ZM96.728 27.5348C97.1068 27.5348 97.4276 27.433 97.6903 27.2294C97.9531 27.0258 98.152 26.7547 98.2869 26.4162C98.4242 26.0777 98.4929 25.7048 98.4929 25.2976C98.4929 24.8904 98.4242 24.5163 98.2869 24.1754C98.152 23.8345 97.9531 23.5611 97.6903 23.3551C97.4276 23.1491 97.1068 23.0462 96.728 23.0462C96.3516 23.0462 96.0308 23.1491 95.7656 23.3551C95.5028 23.5611 95.3028 23.8345 95.1655 24.1754C95.0305 24.5163 94.9631 24.8904 94.9631 25.2976C94.9631 25.7048 95.0305 26.0777 95.1655 26.4162C95.3028 26.7547 95.5028 27.0258 95.7656 27.2294C96.0284 27.433 96.3492 27.5348 96.728 27.5348ZM33.1986 40.1136C32.7109 40.1136 32.286 39.9917 31.9237 39.7479C31.5639 39.504 31.2845 39.1702 31.0857 38.7464C30.8868 38.3227 30.7874 37.8397 30.7874 37.2976C30.7874 36.7507 30.888 36.2642 31.0892 35.8381C31.2928 35.4119 31.5745 35.0781 31.9344 34.8366C32.2942 34.5928 32.7121 34.4709 33.1879 34.4709C33.5525 34.4709 33.8828 34.5419 34.1787 34.6839C34.4746 34.8236 34.7185 35.0213 34.9102 35.277C35.1044 35.5303 35.2263 35.8262 35.276 36.1648H34.6368C34.5705 35.857 34.4107 35.5942 34.1574 35.3764C33.9065 35.1562 33.5869 35.0462 33.1986 35.0462C32.8506 35.0462 32.5428 35.1409 32.2753 35.3303C32.0078 35.5173 31.7983 35.7789 31.6468 36.1151C31.4976 36.4489 31.423 36.8359 31.423 37.2763C31.423 37.719 31.4964 38.1108 31.6432 38.4517C31.79 38.7902 31.9959 39.0554 32.2611 39.2472C32.5286 39.4389 32.8411 39.5348 33.1986 39.5348C33.4401 39.5348 33.6602 39.4898 33.8591 39.3999C34.0603 39.3075 34.2284 39.1773 34.3634 39.0092C34.5007 38.8411 34.593 38.6411 34.6404 38.4091H35.2796C35.2322 38.7382 35.115 39.0317 34.928 39.2898C34.7433 39.5455 34.503 39.7467 34.2071 39.8935C33.9136 40.0402 33.5774 40.1136 33.1986 40.1136ZM38.7544 40.1136C38.2832 40.1136 37.8666 39.9941 37.5044 39.755C37.1445 39.5159 36.8628 39.1856 36.6592 38.7642C36.4556 38.3404 36.3538 37.8516 36.3538 37.2976C36.3538 36.7389 36.4556 36.2476 36.6592 35.8239C36.8628 35.3977 37.1445 35.0663 37.5044 34.8295C37.8666 34.5904 38.2832 34.4709 38.7544 34.4709C39.2255 34.4709 39.641 34.5904 40.0008 34.8295C40.3606 35.0687 40.6424 35.4001 40.846 35.8239C41.0519 36.2476 41.1549 36.7389 41.1549 37.2976C41.1549 37.8516 41.0531 38.3404 40.8495 38.7642C40.6459 39.1856 40.363 39.5159 40.0008 39.755C39.641 39.9941 39.2255 40.1136 38.7544 40.1136ZM38.7544 39.5348C39.1331 39.5348 39.4539 39.433 39.7167 39.2294C39.9795 39.0258 40.1784 38.7547 40.3133 38.4162C40.4506 38.0777 40.5193 37.7048 40.5193 37.2976C40.5193 36.8904 40.4506 36.5163 40.3133 36.1754C40.1784 35.8345 39.9795 35.5611 39.7167 35.3551C39.4539 35.1491 39.1331 35.0462 38.7544 35.0462C38.3779 35.0462 38.0571 35.1491 37.792 35.3551C37.5292 35.5611 37.3292 35.8345 37.1919 36.1754C37.0569 36.5163 36.9894 36.8904 36.9894 37.2976C36.9894 37.7048 37.0569 38.0777 37.1919 38.4162C37.3292 38.7547 37.5292 39.0258 37.792 39.2294C38.0548 39.433 38.3756 39.5348 38.7544 39.5348ZM46.0084 37.9155V34.5455H46.6405V40H46.0084V39.0945H45.9587C45.8309 39.3738 45.6285 39.607 45.3515 39.794C45.0745 39.9787 44.7359 40.071 44.3358 40.071C43.9878 40.071 43.6789 39.9953 43.409 39.8438C43.1391 39.6899 42.9272 39.465 42.7733 39.169C42.6195 38.8731 42.5425 38.5097 42.5425 38.0788V34.5455H43.1746V38.0398C43.1746 38.4659 43.3001 38.8092 43.551 39.0696C43.802 39.3277 44.124 39.4567 44.517 39.4567C44.7632 39.4567 44.9999 39.3975 45.2272 39.2791C45.4545 39.1607 45.6415 38.9879 45.7883 38.7607C45.935 38.531 46.0084 38.2493 46.0084 37.9155ZM48.314 40V34.5455H48.9284V35.3835H48.9745C49.0834 35.1089 49.2728 34.8875 49.5427 34.7195C49.815 34.549 50.1227 34.4638 50.466 34.4638C50.5181 34.4638 50.5761 34.465 50.64 34.4673C50.7039 34.4697 50.7572 34.4721 50.7998 34.4744V35.1172C50.7714 35.1125 50.7217 35.1054 50.6507 35.0959C50.5796 35.0864 50.5027 35.0817 50.4198 35.0817C50.1357 35.0817 49.8824 35.142 49.6599 35.2628C49.4397 35.3812 49.2657 35.5457 49.1379 35.7564C49.01 35.9671 48.9461 36.2074 48.9461 36.4773V40H48.314ZM55.5432 35.7422L54.9644 35.9055C54.9076 35.7422 54.8271 35.5942 54.7229 35.4616C54.6188 35.3291 54.4826 35.2237 54.3145 35.1456C54.1488 35.0675 53.9429 35.0284 53.6966 35.0284C53.3273 35.0284 53.0243 35.116 52.7876 35.2912C52.5508 35.4664 52.4324 35.6925 52.4324 35.9695C52.4324 36.2038 52.5129 36.3944 52.6739 36.5412C52.8373 36.6856 53.0882 36.8004 53.4268 36.8857L54.2506 37.0881C54.7075 37.1993 55.0496 37.3757 55.2769 37.6172C55.5065 37.8587 55.6214 38.1617 55.6214 38.5263C55.6214 38.834 55.5361 39.1075 55.3657 39.3466C55.1952 39.5857 54.9573 39.7739 54.6519 39.9112C54.3489 40.0462 53.9973 40.1136 53.5972 40.1136C53.0645 40.1136 52.6254 39.9941 52.2797 39.755C51.9341 39.5135 51.7127 39.1655 51.6157 38.7109L52.2229 38.5618C52.301 38.8861 52.4537 39.1312 52.681 39.2969C52.9107 39.4626 53.2125 39.5455 53.5866 39.5455C54.0056 39.5455 54.3406 39.4519 54.5915 39.2649C54.8425 39.0755 54.968 38.8388 54.968 38.5547C54.968 38.3345 54.8946 38.1499 54.7478 38.0007C54.601 37.8492 54.3785 37.7379 54.0802 37.6669L53.1888 37.4538C52.7153 37.3402 52.365 37.1603 52.1377 36.9141C51.9104 36.6679 51.7968 36.3625 51.7968 35.9979C51.7968 35.6972 51.8785 35.4332 52.0418 35.206C52.2052 34.9763 52.4301 34.7964 52.7165 34.6662C53.003 34.536 53.3297 34.4709 53.6966 34.4709C54.1962 34.4709 54.5951 34.5845 54.8934 34.8118C55.194 35.0367 55.4107 35.3468 55.5432 35.7422ZM59.2107 40.1136C58.7017 40.1136 58.2613 39.9953 57.8896 39.7585C57.518 39.5194 57.2303 39.1892 57.0267 38.7678C56.8255 38.344 56.7249 37.8563 56.7249 37.3047C56.7249 36.7554 56.8255 36.2678 57.0267 35.8416C57.2303 35.4131 57.5109 35.0781 57.8683 34.8366C58.2282 34.5928 58.6437 34.4709 59.1148 34.4709C59.4107 34.4709 59.696 34.5253 59.9706 34.6342C60.2452 34.7408 60.4914 34.9053 60.7093 35.1278C60.9294 35.348 61.1034 35.6262 61.2313 35.9624C61.3591 36.2962 61.423 36.6915 61.423 37.1484V37.4609H57.1617V36.9034H60.7767C60.7767 36.553 60.7057 36.2382 60.5637 35.9588C60.424 35.6771 60.2287 35.4545 59.9777 35.2912C59.7291 35.1278 59.4415 35.0462 59.1148 35.0462C58.7691 35.0462 58.4649 35.1385 58.2021 35.3232C57.9394 35.5078 57.7334 35.7517 57.5843 36.0547C57.4375 36.3577 57.3629 36.6892 57.3605 37.049V37.3828C57.3605 37.8161 57.4351 38.1948 57.5843 38.5192C57.7358 38.8411 57.95 39.0909 58.227 39.2685C58.504 39.446 58.8319 39.5348 59.2107 39.5348C59.4687 39.5348 59.6948 39.4946 59.8889 39.4141C60.0854 39.3336 60.25 39.2259 60.3825 39.0909C60.5175 38.9536 60.6193 38.8033 60.6879 38.6399L61.2881 38.8352C61.2052 39.0649 61.0691 39.2768 60.8797 39.4709C60.6927 39.665 60.4583 39.8213 60.1766 39.9396C59.8972 40.0556 59.5753 40.1136 59.2107 40.1136ZM67.1519 40.1243C66.8228 40.1243 66.5222 40.0604 66.2499 39.9325C65.9777 39.8023 65.761 39.6153 65.6001 39.3714C65.4391 39.1252 65.3586 38.8269 65.3586 38.4766C65.3586 38.2067 65.4095 37.9794 65.5113 37.7947C65.6131 37.6101 65.7575 37.4586 65.9445 37.3402C66.1315 37.2218 66.3529 37.1283 66.6086 37.0597C66.8643 36.991 67.146 36.9377 67.4537 36.8999C67.7591 36.862 68.0172 36.8288 68.2279 36.8004C68.441 36.772 68.6031 36.727 68.7144 36.6655C68.8257 36.6039 68.8813 36.5045 68.8813 36.3672V36.2393C68.8813 35.8677 68.77 35.5753 68.5475 35.3622C68.3273 35.1468 68.0101 35.0391 67.5958 35.0391C67.2028 35.0391 66.882 35.1255 66.6334 35.2983C66.3872 35.4711 66.2144 35.6747 66.115 35.9091L65.5148 35.6925C65.6379 35.3942 65.8084 35.1562 66.0262 34.9787C66.244 34.7988 66.4878 34.6697 66.7577 34.5916C67.0276 34.5111 67.301 34.4709 67.578 34.4709C67.7864 34.4709 68.003 34.4981 68.2279 34.5526C68.4552 34.607 68.6659 34.7017 68.86 34.8366C69.0541 34.9692 69.2116 35.1551 69.3323 35.3942C69.453 35.6309 69.5134 35.9316 69.5134 36.2962V40H68.8813V39.1371H68.8422C68.7665 39.2981 68.654 39.4543 68.5049 39.6058C68.3557 39.7573 68.1687 39.8816 67.9438 39.9787C67.7189 40.0758 67.4549 40.1243 67.1519 40.1243ZM67.2371 39.5455C67.5733 39.5455 67.8645 39.4709 68.1107 39.3217C68.3569 39.1726 68.5463 38.9749 68.6789 38.7287C68.8138 38.4801 68.8813 38.2067 68.8813 37.9084V37.12C68.834 37.165 68.7546 37.2053 68.6434 37.2408C68.5345 37.2763 68.4078 37.3082 68.2634 37.3366C68.1214 37.3627 67.9793 37.3852 67.8373 37.4041C67.6952 37.4231 67.5674 37.4396 67.4537 37.4538C67.146 37.4917 66.8832 37.5509 66.6654 37.6314C66.4476 37.7119 66.2807 37.8232 66.1647 37.9652C66.0487 38.1049 65.9907 38.2848 65.9907 38.505C65.9907 38.8364 66.109 39.0933 66.3458 39.2756C66.5825 39.4555 66.8796 39.5455 67.2371 39.5455ZM73.4392 34.5455V35.0959H70.7581V34.5455H73.4392ZM71.5961 40V33.7464C71.5961 33.4529 71.6636 33.2055 71.7986 33.0043C71.9359 32.803 72.1146 32.6503 72.3348 32.5462C72.555 32.442 72.7881 32.3899 73.0344 32.3899C73.2001 32.3899 73.3374 32.4041 73.4463 32.4325C73.5576 32.4586 73.6452 32.4846 73.7091 32.5107L73.5244 33.0646C73.4771 33.0504 73.4191 33.0339 73.3504 33.0149C73.2818 32.996 73.1953 32.9865 73.0912 32.9865C72.8166 32.9865 72.6047 33.0634 72.4555 33.2173C72.3064 33.3712 72.2318 33.5914 72.2318 33.8778L72.2282 40H71.5961ZM76.8492 34.5455V35.0959H74.2462V34.5455H76.8492ZM75.0594 33.2386H75.695V38.576C75.695 38.8033 75.7341 38.982 75.8122 39.1122C75.8904 39.2401 75.9922 39.3312 76.1176 39.3857C76.2431 39.4377 76.3769 39.4638 76.5189 39.4638C76.6018 39.4638 76.6728 39.459 76.732 39.4496C76.7912 39.4377 76.8432 39.4259 76.8882 39.4141L77.0232 39.9858C76.9616 40.0095 76.8859 40.0308 76.7959 40.0497C76.7059 40.071 76.5947 40.0817 76.4621 40.0817C76.2301 40.0817 76.0064 40.0308 75.7909 39.929C75.5779 39.8272 75.4027 39.6757 75.2654 39.4744C75.128 39.2732 75.0594 39.0234 75.0594 38.7251V33.2386ZM80.4314 40.1136C79.9224 40.1136 79.482 39.9953 79.1104 39.7585C78.7387 39.5194 78.451 39.1892 78.2474 38.7678C78.0462 38.344 77.9456 37.8563 77.9456 37.3047C77.9456 36.7554 78.0462 36.2678 78.2474 35.8416C78.451 35.4131 78.7316 35.0781 79.089 34.8366C79.4489 34.5928 79.8644 34.4709 80.3355 34.4709C80.6314 34.4709 80.9167 34.5253 81.1913 34.6342C81.4659 34.7408 81.7122 34.9053 81.93 35.1278C82.1501 35.348 82.3241 35.6262 82.452 35.9624C82.5798 36.2962 82.6437 36.6915 82.6437 37.1484V37.4609H78.3824V36.9034H81.9974C81.9974 36.553 81.9264 36.2382 81.7844 35.9588C81.6447 35.6771 81.4494 35.4545 81.1984 35.2912C80.9498 35.1278 80.6622 35.0462 80.3355 35.0462C79.9898 35.0462 79.6856 35.1385 79.4229 35.3232C79.1601 35.5078 78.9541 35.7517 78.805 36.0547C78.6582 36.3577 78.5836 36.6892 78.5812 37.049V37.3828C78.5812 37.8161 78.6558 38.1948 78.805 38.5192C78.9565 38.8411 79.1707 39.0909 79.4477 39.2685C79.7247 39.446 80.0526 39.5348 80.4314 39.5348C80.6894 39.5348 80.9155 39.4946 81.1096 39.4141C81.3061 39.3336 81.4707 39.2259 81.6032 39.0909C81.7382 38.9536 81.84 38.8033 81.9086 38.6399L82.5088 38.8352C82.4259 39.0649 82.2898 39.2768 82.1004 39.4709C81.9134 39.665 81.679 39.8213 81.3973 39.9396C81.1179 40.0556 80.796 40.1136 80.4314 40.1136ZM84.0367 40V34.5455H84.651V35.3835H84.6972C84.8061 35.1089 84.9955 34.8875 85.2654 34.7195C85.5376 34.549 85.8454 34.4638 86.1887 34.4638C86.2407 34.4638 86.2987 34.465 86.3627 34.4673C86.4266 34.4697 86.4798 34.4721 86.5225 34.4744V35.1172C86.4941 35.1125 86.4443 35.1054 86.3733 35.0959C86.3023 35.0864 86.2253 35.0817 86.1425 35.0817C85.8584 35.0817 85.6051 35.142 85.3825 35.2628C85.1624 35.3812 84.9884 35.5457 84.8605 35.7564C84.7327 35.9671 84.6688 36.2074 84.6688 36.4773V40H84.0367ZM25.1566 52.1136C24.6689 52.1136 24.244 51.9917 23.8817 51.7479C23.5219 51.504 23.2425 51.1702 23.0437 50.7464C22.8448 50.3227 22.7454 49.8397 22.7454 49.2976C22.7454 48.7507 22.846 48.2642 23.0472 47.8381C23.2508 47.4119 23.5326 47.0781 23.8924 46.8366C24.2522 46.5928 24.6701 46.4709 25.146 46.4709C25.5105 46.4709 25.8408 46.5419 26.1367 46.6839C26.4326 46.8236 26.6765 47.0213 26.8683 47.277C27.0624 47.5303 27.1843 47.8262 27.234 48.1648H26.5948C26.5285 47.857 26.3687 47.5942 26.1154 47.3764C25.8645 47.1562 25.5449 47.0462 25.1566 47.0462C24.8086 47.0462 24.5008 47.1409 24.2333 47.3303C23.9658 47.5173 23.7563 47.7789 23.6048 48.1151C23.4556 48.4489 23.381 48.8359 23.381 49.2763C23.381 49.719 23.4544 50.1108 23.6012 50.4517C23.748 50.7902 23.954 51.0554 24.2191 51.2472C24.4866 51.4389 24.7991 51.5348 25.1566 51.5348C25.3981 51.5348 25.6183 51.4898 25.8171 51.3999C26.0183 51.3075 26.1864 51.1773 26.3214 51.0092C26.4587 50.8411 26.551 50.6411 26.5984 50.4091H27.2376C27.1902 50.7382 27.073 51.0317 26.886 51.2898C26.7013 51.5455 26.4611 51.7467 26.1651 51.8935C25.8716 52.0402 25.5354 52.1136 25.1566 52.1136ZM30.7124 52.1136C30.2412 52.1136 29.8246 51.9941 29.4624 51.755C29.1025 51.5159 28.8208 51.1856 28.6172 50.7642C28.4136 50.3404 28.3118 49.8516 28.3118 49.2976C28.3118 48.7389 28.4136 48.2476 28.6172 47.8239C28.8208 47.3977 29.1025 47.0663 29.4624 46.8295C29.8246 46.5904 30.2412 46.4709 30.7124 46.4709C31.1835 46.4709 31.599 46.5904 31.9588 46.8295C32.3187 47.0687 32.6004 47.4001 32.804 47.8239C33.0099 48.2476 33.1129 48.7389 33.1129 49.2976C33.1129 49.8516 33.0111 50.3404 32.8075 50.7642C32.6039 51.1856 32.321 51.5159 31.9588 51.755C31.599 51.9941 31.1835 52.1136 30.7124 52.1136ZM30.7124 51.5348C31.0911 51.5348 31.4119 51.433 31.6747 51.2294C31.9375 51.0258 32.1364 50.7547 32.2713 50.4162C32.4086 50.0777 32.4773 49.7048 32.4773 49.2976C32.4773 48.8904 32.4086 48.5163 32.2713 48.1754C32.1364 47.8345 31.9375 47.5611 31.6747 47.3551C31.4119 47.1491 31.0911 47.0462 30.7124 47.0462C30.3359 47.0462 30.0152 47.1491 29.75 47.3551C29.4872 47.5611 29.2872 47.8345 29.1499 48.1754C29.0149 48.5163 28.9474 48.8904 28.9474 49.2976C28.9474 49.7048 29.0149 50.0777 29.1499 50.4162C29.2872 50.7547 29.4872 51.0258 29.75 51.2294C30.0128 51.433 30.3336 51.5348 30.7124 51.5348ZM34.5005 52V46.5455H35.1149V47.3835H35.1717C35.2806 47.1018 35.4617 46.8804 35.715 46.7195C35.9707 46.5561 36.2773 46.4744 36.6348 46.4744C37.0112 46.4744 37.3201 46.5632 37.5616 46.7408C37.8055 46.916 37.9877 47.1574 38.1085 47.4652H38.1547C38.2778 47.1622 38.4778 46.9219 38.7548 46.7443C39.0342 46.5644 39.3727 46.4744 39.7704 46.4744C40.277 46.4744 40.6771 46.6342 40.9707 46.9538C41.2643 47.2711 41.411 47.7351 41.411 48.3459V52H40.7789V48.3459C40.7789 47.915 40.6689 47.5919 40.4487 47.3764C40.2285 47.161 39.9385 47.0533 39.5787 47.0533C39.162 47.0533 38.8412 47.1811 38.6163 47.4368C38.3914 47.6925 38.2789 48.0168 38.2789 48.4098V52H37.6326V48.2891C37.6326 47.9197 37.5297 47.6214 37.3237 47.3942C37.1177 47.1669 36.8277 47.0533 36.4537 47.0533C36.2027 47.0533 35.9766 47.1148 35.7754 47.2379C35.5765 47.361 35.4191 47.5327 35.3031 47.7528C35.1895 47.9706 35.1326 48.2216 35.1326 48.5057V52H34.5005ZM43.0845 54.0455V46.5455H43.6989V47.5859H43.7734C43.8492 47.4226 43.9534 47.2557 44.0859 47.0852C44.2185 46.9124 44.3937 46.7668 44.6115 46.6484C44.8317 46.5301 45.1087 46.4709 45.4425 46.4709C45.8923 46.4709 46.2853 46.5893 46.6214 46.826C46.96 47.0604 47.2228 47.3894 47.4098 47.8132C47.5992 48.2346 47.6939 48.7259 47.6939 49.2869C47.6939 49.8504 47.5992 50.344 47.4098 50.7678C47.2228 51.1915 46.96 51.5218 46.6214 51.7585C46.2853 51.9953 45.8946 52.1136 45.4496 52.1136C45.1205 52.1136 44.8447 52.0545 44.6222 51.9361C44.402 51.8177 44.2232 51.6721 44.0859 51.4993C43.951 51.3241 43.8468 51.1536 43.7734 50.9879H43.7166V54.0455H43.0845ZM43.7095 49.2763C43.7095 49.7166 43.7746 50.1072 43.9048 50.4482C44.0374 50.7867 44.2268 51.053 44.473 51.2472C44.7216 51.4389 45.0223 51.5348 45.375 51.5348C45.7372 51.5348 46.0426 51.4354 46.2912 51.2365C46.5421 51.0353 46.7327 50.7642 46.8629 50.4233C46.9955 50.0824 47.0618 49.7 47.0618 49.2763C47.0618 48.8572 46.9967 48.4796 46.8665 48.1435C46.7386 47.8073 46.5492 47.541 46.2983 47.3445C46.0473 47.1456 45.7396 47.0462 45.375 47.0462C45.0199 47.0462 44.718 47.142 44.4695 47.3338C44.2209 47.5232 44.0315 47.786 43.9013 48.1222C43.7734 48.456 43.7095 48.8407 43.7095 49.2763ZM49.7127 44.7273V52H49.0806V44.7273H49.7127ZM53.5906 52.1136C53.0816 52.1136 52.6412 51.9953 52.2695 51.7585C51.8978 51.5194 51.6102 51.1892 51.4066 50.7678C51.2054 50.344 51.1048 49.8563 51.1048 49.3047C51.1048 48.7554 51.2054 48.2678 51.4066 47.8416C51.6102 47.4131 51.8907 47.0781 52.2482 46.8366C52.6081 46.5928 53.0236 46.4709 53.4947 46.4709C53.7906 46.4709 54.0759 46.5253 54.3505 46.6342C54.6251 46.7408 54.8713 46.9053 55.0891 47.1278C55.3093 47.348 55.4833 47.6262 55.6112 47.9624C55.739 48.2962 55.8029 48.6915 55.8029 49.1484V49.4609H51.5415V48.9034H55.1566C55.1566 48.553 55.0856 48.2382 54.9435 47.9588C54.8039 47.6771 54.6085 47.4545 54.3576 47.2912C54.109 47.1278 53.8214 47.0462 53.4947 47.0462C53.149 47.0462 52.8448 47.1385 52.582 47.3232C52.3192 47.5078 52.1133 47.7517 51.9641 48.0547C51.8174 48.3577 51.7428 48.6892 51.7404 49.049V49.3828C51.7404 49.8161 51.815 50.1948 51.9641 50.5192C52.1156 50.8411 52.3299 51.0909 52.6069 51.2685C52.8839 51.446 53.2118 51.5348 53.5906 51.5348C53.8486 51.5348 54.0747 51.4946 54.2688 51.4141C54.4653 51.3336 54.6299 51.2259 54.7624 51.0909C54.8974 50.9536 54.9992 50.8033 55.0678 50.6399L55.668 50.8352C55.5851 51.0649 55.449 51.2768 55.2596 51.4709C55.0726 51.665 54.8382 51.8213 54.5565 51.9396C54.2771 52.0556 53.9551 52.1136 53.5906 52.1136ZM59.3443 46.5455V47.0959H56.7413V46.5455H59.3443ZM57.5545 45.2386H58.1902V50.576C58.1902 50.8033 58.2292 50.982 58.3074 51.1122C58.3855 51.2401 58.4873 51.3312 58.6127 51.3857C58.7382 51.4377 58.872 51.4638 59.014 51.4638C59.0969 51.4638 59.1679 51.459 59.2271 51.4496C59.2863 51.4377 59.3384 51.4259 59.3833 51.4141L59.5183 51.9858C59.4567 52.0095 59.381 52.0308 59.291 52.0497C59.2011 52.071 59.0898 52.0817 58.9572 52.0817C58.7252 52.0817 58.5015 52.0308 58.286 51.929C58.073 51.8272 57.8978 51.6757 57.7605 51.4744C57.6232 51.2732 57.5545 51.0234 57.5545 50.7251V45.2386ZM60.7869 52V46.5455H61.4226V52H60.7869ZM61.1101 45.608C60.9799 45.608 60.8686 45.5642 60.7763 45.4766C60.6839 45.3866 60.6378 45.2789 60.6378 45.1534C60.6378 45.0279 60.6839 44.9214 60.7763 44.8338C60.8686 44.7438 60.9799 44.6989 61.1101 44.6989C61.2403 44.6989 61.3516 44.7438 61.4439 44.8338C61.5362 44.9214 61.5824 45.0279 61.5824 45.1534C61.5824 45.2789 61.5362 45.3866 61.4439 45.4766C61.3516 45.5642 61.2403 45.608 61.1101 45.608ZM65.2143 52.1136C64.7432 52.1136 64.3265 51.9941 63.9643 51.755C63.6045 51.5159 63.3227 51.1856 63.1191 50.7642C62.9155 50.3404 62.8137 49.8516 62.8137 49.2976C62.8137 48.7389 62.9155 48.2476 63.1191 47.8239C63.3227 47.3977 63.6045 47.0663 63.9643 46.8295C64.3265 46.5904 64.7432 46.4709 65.2143 46.4709C65.6854 46.4709 66.1009 46.5904 66.4608 46.8295C66.8206 47.0687 67.1023 47.4001 67.3059 47.8239C67.5119 48.2476 67.6149 48.7389 67.6149 49.2976C67.6149 49.8516 67.5131 50.3404 67.3095 50.7642C67.1059 51.1856 66.823 51.5159 66.4608 51.755C66.1009 51.9941 65.6854 52.1136 65.2143 52.1136ZM65.2143 51.5348C65.5931 51.5348 65.9139 51.433 66.1767 51.2294C66.4395 51.0258 66.6383 50.7547 66.7733 50.4162C66.9106 50.0777 66.9792 49.7048 66.9792 49.2976C66.9792 48.8904 66.9106 48.5163 66.7733 48.1754C66.6383 47.8345 66.4395 47.5611 66.1767 47.3551C65.9139 47.1491 65.5931 47.0462 65.2143 47.0462C64.8379 47.0462 64.5171 47.1491 64.252 47.3551C63.9892 47.5611 63.7891 47.8345 63.6518 48.1754C63.5169 48.5163 63.4494 48.8904 63.4494 49.2976C63.4494 49.7048 63.5169 50.0777 63.6518 50.4162C63.7891 50.7547 63.9892 51.0258 64.252 51.2294C64.5147 51.433 64.8355 51.5348 65.2143 51.5348ZM69.6346 48.5909V52H69.0025V46.5455H69.6168V47.4013H69.6737C69.8015 47.1219 70.0004 46.8982 70.2702 46.7301C70.5425 46.5597 70.8787 46.4744 71.2788 46.4744C71.6457 46.4744 71.9677 46.5514 72.2447 46.7053C72.524 46.8568 72.7406 47.0805 72.8945 47.3764C73.0508 47.6723 73.1289 48.0357 73.1289 48.4666V52H72.4968V48.5057C72.4968 48.0582 72.3713 47.7043 72.1204 47.4439C71.8718 47.1835 71.538 47.0533 71.119 47.0533C70.8325 47.0533 70.578 47.1148 70.3555 47.2379C70.1329 47.361 69.9566 47.5386 69.8263 47.7706C69.6985 48.0002 69.6346 48.2737 69.6346 48.5909ZM80.5499 48.5838V49.1804H77.5243V48.5838H80.5499ZM86.4732 52.1243C86.1441 52.1243 85.8435 52.0604 85.5712 51.9325C85.2989 51.8023 85.0823 51.6153 84.9213 51.3714C84.7604 51.1252 84.6799 50.8269 84.6799 50.4766C84.6799 50.2067 84.7308 49.9794 84.8326 49.7947C84.9344 49.6101 85.0788 49.4586 85.2658 49.3402C85.4528 49.2218 85.6742 49.1283 85.9299 49.0597C86.1855 48.991 86.4673 48.9377 86.775 48.8999C87.0804 48.862 87.3385 48.8288 87.5492 48.8004C87.7623 48.772 87.9244 48.727 88.0357 48.6655C88.147 48.6039 88.2026 48.5045 88.2026 48.3672V48.2393C88.2026 47.8677 88.0913 47.5753 87.8688 47.3622C87.6486 47.1468 87.3314 47.0391 86.9171 47.0391C86.5241 47.0391 86.2033 47.1255 85.9547 47.2983C85.7085 47.4711 85.5357 47.6747 85.4363 47.9091L84.8361 47.6925C84.9592 47.3942 85.1297 47.1562 85.3475 46.9787C85.5653 46.7988 85.8091 46.6697 86.079 46.5916C86.3489 46.5111 86.6223 46.4709 86.8993 46.4709C87.1077 46.4709 87.3243 46.4981 87.5492 46.5526C87.7765 46.607 87.9872 46.7017 88.1813 46.8366C88.3754 46.9692 88.5328 47.1551 88.6536 47.3942C88.7743 47.6309 88.8347 47.9316 88.8347 48.2962V52H88.2026V51.1371H88.1635C88.0878 51.2981 87.9753 51.4543 87.8262 51.6058C87.677 51.7573 87.49 51.8816 87.2651 51.9787C87.0402 52.0758 86.7762 52.1243 86.4732 52.1243ZM86.5584 51.5455C86.8946 51.5455 87.1858 51.4709 87.432 51.3217C87.6782 51.1726 87.8676 50.9749 88.0002 50.7287C88.1351 50.4801 88.2026 50.2067 88.2026 49.9084V49.12C88.1552 49.165 88.0759 49.2053 87.9647 49.2408C87.8558 49.2763 87.7291 49.3082 87.5847 49.3366C87.4426 49.3627 87.3006 49.3852 87.1586 49.4041C87.0165 49.4231 86.8887 49.4396 86.775 49.4538C86.4673 49.4917 86.2045 49.5509 85.9867 49.6314C85.7689 49.7119 85.602 49.8232 85.486 49.9652C85.37 50.1049 85.312 50.2848 85.312 50.505C85.312 50.8364 85.4303 51.0933 85.6671 51.2756C85.9038 51.4555 86.2009 51.5455 86.5584 51.5455ZM94.1809 47.7422L93.6021 47.9055C93.5453 47.7422 93.4648 47.5942 93.3606 47.4616C93.2565 47.3291 93.1203 47.2237 92.9522 47.1456C92.7865 47.0675 92.5806 47.0284 92.3343 47.0284C91.965 47.0284 91.662 47.116 91.4252 47.2912C91.1885 47.4664 91.0701 47.6925 91.0701 47.9695C91.0701 48.2038 91.1506 48.3944 91.3116 48.5412C91.475 48.6856 91.7259 48.8004 92.0645 48.8857L92.8883 49.0881C93.3452 49.1993 93.6873 49.3757 93.9146 49.6172C94.1442 49.8587 94.2591 50.1617 94.2591 50.5263C94.2591 50.834 94.1738 51.1075 94.0034 51.3466C93.8329 51.5857 93.595 51.7739 93.2896 51.9112C92.9866 52.0462 92.635 52.1136 92.2349 52.1136C91.7022 52.1136 91.2631 51.9941 90.9174 51.755C90.5718 51.5135 90.3504 51.1655 90.2534 50.7109L90.8606 50.5618C90.9387 50.8861 91.0914 51.1312 91.3187 51.2969C91.5484 51.4626 91.8502 51.5455 92.2243 51.5455C92.6433 51.5455 92.9783 51.4519 93.2292 51.2649C93.4802 51.0755 93.6056 50.8388 93.6056 50.5547C93.6056 50.3345 93.5323 50.1499 93.3855 50.0007C93.2387 49.8492 93.0162 49.7379 92.7179 49.6669L91.8265 49.4538C91.353 49.3402 91.0027 49.1603 90.7754 48.9141C90.5481 48.6679 90.4345 48.3625 90.4345 47.9979C90.4345 47.6972 90.5162 47.4332 90.6795 47.206C90.8429 46.9763 91.0678 46.7964 91.3542 46.6662C91.6407 46.536 91.9674 46.4709 92.3343 46.4709C92.8339 46.4709 93.2328 46.5845 93.5311 46.8118C93.8317 47.0367 94.0484 47.3468 94.1809 47.7422ZM20.9578 56.7273V64H20.3257V56.7273H20.9578ZM24.7504 64.1136C24.2793 64.1136 23.8627 63.9941 23.5004 63.755C23.1406 63.5159 22.8589 63.1856 22.6553 62.7642C22.4517 62.3404 22.3499 61.8516 22.3499 61.2976C22.3499 60.7389 22.4517 60.2476 22.6553 59.8239C22.8589 59.3977 23.1406 59.0663 23.5004 58.8295C23.8627 58.5904 24.2793 58.4709 24.7504 58.4709C25.2216 58.4709 25.637 58.5904 25.9969 58.8295C26.3567 59.0687 26.6385 59.4001 26.8421 59.8239C27.048 60.2476 27.151 60.7389 27.151 61.2976C27.151 61.8516 27.0492 62.3404 26.8456 62.7642C26.642 63.1856 26.3591 63.5159 25.9969 63.755C25.637 63.9941 25.2216 64.1136 24.7504 64.1136ZM24.7504 63.5348C25.1292 63.5348 25.45 63.433 25.7128 63.2294C25.9756 63.0258 26.1744 62.7547 26.3094 62.4162C26.4467 62.0777 26.5154 61.7048 26.5154 61.2976C26.5154 60.8904 26.4467 60.5163 26.3094 60.1754C26.1744 59.8345 25.9756 59.5611 25.7128 59.3551C25.45 59.1491 25.1292 59.0462 24.7504 59.0462C24.374 59.0462 24.0532 59.1491 23.7881 59.3551C23.5253 59.5611 23.3253 59.8345 23.1879 60.1754C23.053 60.5163 22.9855 60.8904 22.9855 61.2976C22.9855 61.7048 23.053 62.0777 23.1879 62.4162C23.3253 62.7547 23.5253 63.0258 23.7881 63.2294C24.0509 63.433 24.3717 63.5348 24.7504 63.5348ZM29.1707 60.5909V64H28.5386V58.5455H29.153V59.4013H29.2098C29.3376 59.1219 29.5365 58.8982 29.8064 58.7301C30.0786 58.5597 30.4148 58.4744 30.8149 58.4744C31.1818 58.4744 31.5038 58.5514 31.7808 58.7053C32.0602 58.8568 32.2768 59.0805 32.4307 59.3764C32.5869 59.6723 32.665 60.0357 32.665 60.4666V64H32.0329V60.5057C32.0329 60.0582 31.9075 59.7043 31.6565 59.4439C31.4079 59.1835 31.0741 59.0533 30.6551 59.0533C30.3686 59.0533 30.1141 59.1148 29.8916 59.2379C29.6691 59.361 29.4927 59.5386 29.3625 59.7706C29.2346 60.0002 29.1707 60.2737 29.1707 60.5909ZM36.4106 66.1591C36.0389 66.1591 35.7134 66.1106 35.434 66.0135C35.1547 65.9188 34.9191 65.7886 34.7274 65.6229C34.5356 65.4571 34.3865 65.2713 34.2799 65.0653L34.7984 64.7244C34.8765 64.8617 34.9807 64.9967 35.1109 65.1293C35.2435 65.2618 35.4151 65.3719 35.6258 65.4595C35.8389 65.5471 36.1005 65.5909 36.4106 65.5909C36.8936 65.5909 37.283 65.4702 37.5789 65.2287C37.8772 64.9872 38.0264 64.612 38.0264 64.103V62.8743H37.9695C37.8962 63.04 37.7908 63.2057 37.6535 63.3714C37.5162 63.5348 37.3363 63.6709 37.1137 63.7798C36.8936 63.8887 36.6201 63.9432 36.2934 63.9432C35.8578 63.9432 35.4707 63.8355 35.1322 63.62C34.796 63.4046 34.5309 63.0968 34.3367 62.6967C34.145 62.2943 34.0491 61.8149 34.0491 61.2585C34.0491 60.7069 34.1426 60.2216 34.3296 59.8026C34.519 59.3835 34.783 59.0568 35.1215 58.8224C35.4601 58.5881 35.8543 58.4709 36.3041 58.4709C36.6379 58.4709 36.9149 58.5301 37.135 58.6484C37.3552 58.7644 37.5316 58.9089 37.6642 59.0817C37.7991 59.2545 37.9044 59.4226 37.9802 59.5859H38.0441V58.5455H38.662V64.142C38.662 64.6037 38.5638 64.9837 38.3673 65.282C38.1708 65.5803 37.9033 65.8004 37.5647 65.9425C37.2262 66.0869 36.8415 66.1591 36.4106 66.1591ZM36.368 63.3643C36.7184 63.3643 37.0178 63.2803 37.2664 63.1122C37.515 62.9418 37.7056 62.6979 37.8382 62.3807C37.9707 62.0634 38.037 61.6858 38.037 61.2479C38.037 60.8217 37.9719 60.4441 37.8417 60.1151C37.7115 59.7836 37.5221 59.5232 37.2735 59.3338C37.0273 59.142 36.7255 59.0462 36.368 59.0462C36.0034 59.0462 35.6956 59.1444 35.4447 59.3409C35.1937 59.5374 35.0044 59.8026 34.8765 60.1364C34.7487 60.4678 34.6847 60.8383 34.6847 61.2479C34.6847 61.6645 34.7499 62.0327 34.8801 62.3523C35.0103 62.6695 35.2008 62.9181 35.4518 63.098C35.7027 63.2756 36.0081 63.3643 36.368 63.3643ZM44.6714 64.1243C44.3424 64.1243 44.0417 64.0604 43.7694 63.9325C43.4972 63.8023 43.2806 63.6153 43.1196 63.3714C42.9586 63.1252 42.8781 62.8269 42.8781 62.4766C42.8781 62.2067 42.929 61.9794 43.0308 61.7947C43.1326 61.6101 43.277 61.4586 43.464 61.3402C43.6511 61.2218 43.8724 61.1283 44.1281 61.0597C44.3838 60.991 44.6655 60.9377 44.9733 60.8999C45.2787 60.862 45.5367 60.8288 45.7474 60.8004C45.9605 60.772 46.1227 60.727 46.2339 60.6655C46.3452 60.6039 46.4008 60.5045 46.4008 60.3672V60.2393C46.4008 59.8677 46.2896 59.5753 46.067 59.3622C45.8469 59.1468 45.5296 59.0391 45.1153 59.0391C44.7223 59.0391 44.4015 59.1255 44.153 59.2983C43.9068 59.4711 43.7339 59.6747 43.6345 59.9091L43.0344 59.6925C43.1575 59.3942 43.3279 59.1562 43.5457 58.9787C43.7635 58.7988 44.0074 58.6697 44.2773 58.5916C44.5471 58.5111 44.8206 58.4709 45.0976 58.4709C45.3059 58.4709 45.5225 58.4981 45.7474 58.5526C45.9747 58.607 46.1854 58.7017 46.3795 58.8366C46.5737 58.9692 46.7311 59.1551 46.8518 59.3942C46.9726 59.6309 47.0329 59.9316 47.0329 60.2962V64H46.4008V63.1371H46.3618C46.286 63.2981 46.1736 63.4543 46.0244 63.6058C45.8753 63.7573 45.6882 63.8816 45.4633 63.9787C45.2384 64.0758 44.9745 64.1243 44.6714 64.1243ZM44.7567 63.5455C45.0928 63.5455 45.384 63.4709 45.6302 63.3217C45.8765 63.1726 46.0658 62.9749 46.1984 62.7287C46.3334 62.4801 46.4008 62.2067 46.4008 61.9084V61.12C46.3535 61.165 46.2742 61.2053 46.1629 61.2408C46.054 61.2763 45.9273 61.3082 45.7829 61.3366C45.6409 61.3627 45.4988 61.3852 45.3568 61.4041C45.2148 61.4231 45.0869 61.4396 44.9733 61.4538C44.6655 61.4917 44.4027 61.5509 44.1849 61.6314C43.9671 61.7119 43.8002 61.8232 43.6842 61.9652C43.5682 62.1049 43.5102 62.2848 43.5102 62.505C43.5102 62.8364 43.6286 63.0933 43.8653 63.2756C44.1021 63.4555 44.3992 63.5455 44.7567 63.5455ZM52.3792 59.7422L51.8003 59.9055C51.7435 59.7422 51.663 59.5942 51.5589 59.4616C51.4547 59.3291 51.3186 59.2237 51.1505 59.1456C50.9848 59.0675 50.7788 59.0284 50.5326 59.0284C50.1633 59.0284 49.8602 59.116 49.6235 59.2912C49.3867 59.4664 49.2684 59.6925 49.2684 59.9695C49.2684 60.2038 49.3489 60.3944 49.5099 60.5412C49.6732 60.6856 49.9242 60.8004 50.2627 60.8857L51.0866 61.0881C51.5435 61.1993 51.8856 61.3757 52.1128 61.6172C52.3425 61.8587 52.4573 62.1617 52.4573 62.5263C52.4573 62.834 52.3721 63.1075 52.2016 63.3466C52.0312 63.5857 51.7932 63.7739 51.4878 63.9112C51.1848 64.0462 50.8332 64.1136 50.4331 64.1136C49.9005 64.1136 49.4613 63.9941 49.1157 63.755C48.77 63.5135 48.5487 63.1655 48.4516 62.7109L49.0589 62.5618C49.137 62.8861 49.2897 63.1312 49.517 63.2969C49.7466 63.4626 50.0484 63.5455 50.4225 63.5455C50.8415 63.5455 51.1765 63.4519 51.4275 63.2649C51.6784 63.0755 51.8039 62.8388 51.8039 62.5547C51.8039 62.3345 51.7305 62.1499 51.5837 62.0007C51.4369 61.8492 51.2144 61.7379 50.9161 61.6669L50.0248 61.4538C49.5513 61.3402 49.2009 61.1603 48.9736 60.9141C48.7464 60.6679 48.6327 60.3625 48.6327 59.9979C48.6327 59.6972 48.7144 59.4332 48.8778 59.206C49.0411 58.9763 49.266 58.7964 49.5525 58.6662C49.8389 58.536 50.1656 58.4709 50.5326 58.4709C51.0321 58.4709 51.431 58.5845 51.7293 58.8118C52.03 59.0367 52.2466 59.3468 52.3792 59.7422ZM56.7852 64V56.7273H57.4493V63.4034H60.9152V64H56.7852ZM64.4841 64.1136C63.9751 64.1136 63.5348 63.9953 63.1631 63.7585C62.7914 63.5194 62.5038 63.1892 62.3002 62.7678C62.0989 62.344 61.9983 61.8563 61.9983 61.3047C61.9983 60.7554 62.0989 60.2678 62.3002 59.8416C62.5038 59.4131 62.7843 59.0781 63.1418 58.8366C63.5016 58.5928 63.9171 58.4709 64.3882 58.4709C64.6842 58.4709 64.9694 58.5253 65.2441 58.6342C65.5187 58.7408 65.7649 58.9053 65.9827 59.1278C66.2029 59.348 66.3769 59.6262 66.5047 59.9624C66.6325 60.2962 66.6965 60.6915 66.6965 61.1484V61.4609H62.4351V60.9034H66.0502C66.0502 60.553 65.9791 60.2382 65.8371 59.9588C65.6974 59.6771 65.5021 59.4545 65.2512 59.2912C65.0026 59.1278 64.7149 59.0462 64.3882 59.0462C64.0426 59.0462 63.7384 59.1385 63.4756 59.3232C63.2128 59.5078 63.0068 59.7517 62.8577 60.0547C62.7109 60.3577 62.6363 60.6892 62.634 61.049V61.3828C62.634 61.8161 62.7085 62.1948 62.8577 62.5192C63.0092 62.8411 63.2235 63.0909 63.5004 63.2685C63.7774 63.446 64.1053 63.5348 64.4841 63.5348C64.7422 63.5348 64.9682 63.4946 65.1624 63.4141C65.3589 63.3336 65.5234 63.2259 65.656 63.0909C65.7909 62.9536 65.8927 62.8033 65.9614 62.6399L66.5615 62.8352C66.4787 63.0649 66.3425 63.2768 66.1531 63.4709C65.9661 63.665 65.7317 63.8213 65.45 63.9396C65.1707 64.0556 64.8487 64.1136 64.4841 64.1136ZM70.2201 64.1136C69.7324 64.1136 69.3074 63.9917 68.9452 63.7479C68.5854 63.504 68.306 63.1702 68.1072 62.7464C67.9083 62.3227 67.8089 61.8397 67.8089 61.2976C67.8089 60.7507 67.9095 60.2642 68.1107 59.8381C68.3143 59.4119 68.596 59.0781 68.9559 58.8366C69.3157 58.5928 69.7336 58.4709 70.2094 58.4709C70.574 58.4709 70.9043 58.5419 71.2002 58.6839C71.4961 58.8236 71.74 59.0213 71.9317 59.277C72.1259 59.5303 72.2478 59.8262 72.2975 60.1648H71.6583C71.592 59.857 71.4322 59.5942 71.1789 59.3764C70.9279 59.1562 70.6083 59.0462 70.2201 59.0462C69.8721 59.0462 69.5643 59.1409 69.2968 59.3303C69.0293 59.5173 68.8198 59.7789 68.6682 60.1151C68.5191 60.4489 68.4445 60.8359 68.4445 61.2763C68.4445 61.719 68.5179 62.1108 68.6647 62.4517C68.8115 62.7902 69.0174 63.0554 69.2826 63.2472C69.5501 63.4389 69.8626 63.5348 70.2201 63.5348C70.4616 63.5348 70.6817 63.4898 70.8806 63.3999C71.0818 63.3075 71.2499 63.1773 71.3849 63.0092C71.5222 62.8411 71.6145 62.6411 71.6618 62.4091H72.301C72.2537 62.7382 72.1365 63.0317 71.9495 63.2898C71.7648 63.5455 71.5245 63.7467 71.2286 63.8935C70.935 64.0402 70.5989 64.1136 70.2201 64.1136ZM75.8042 58.5455V59.0959H73.2013V58.5455H75.8042ZM74.0145 57.2386H74.6501V62.576C74.6501 62.8033 74.6892 62.982 74.7673 63.1122C74.8454 63.2401 74.9472 63.3312 75.0727 63.3857C75.1982 63.4377 75.3319 63.4638 75.474 63.4638C75.5568 63.4638 75.6279 63.459 75.6871 63.4496C75.7462 63.4377 75.7983 63.4259 75.8433 63.4141L75.9782 63.9858C75.9167 64.0095 75.8409 64.0308 75.751 64.0497C75.661 64.071 75.5497 64.0817 75.4172 64.0817C75.1852 64.0817 74.9614 64.0308 74.746 63.929C74.5329 63.8272 74.3577 63.6757 74.2204 63.4744C74.0831 63.2732 74.0145 63.0234 74.0145 62.7251V57.2386ZM80.7057 61.9155V58.5455H81.3378V64H80.7057V63.0945H80.656C80.5281 63.3738 80.3257 63.607 80.0487 63.794C79.7718 63.9787 79.4332 64.071 79.0331 64.071C78.6851 64.071 78.3762 63.9953 78.1063 63.8438C77.8364 63.6899 77.6245 63.465 77.4706 63.169C77.3167 62.8731 77.2398 62.5097 77.2398 62.0788V58.5455H77.8719V62.0398C77.8719 62.4659 77.9974 62.8092 78.2483 63.0696C78.4993 63.3277 78.8212 63.4567 79.2142 63.4567C79.4604 63.4567 79.6972 63.3975 79.9244 63.2791C80.1517 63.1607 80.3387 62.9879 80.4855 62.7607C80.6323 62.531 80.7057 62.2493 80.7057 61.9155ZM83.0113 64V58.5455H83.6256V59.3835H83.6718C83.7807 59.1089 83.9701 58.8875 84.24 58.7195C84.5122 58.549 84.82 58.4638 85.1633 58.4638C85.2153 58.4638 85.2733 58.465 85.3373 58.4673C85.4012 58.4697 85.4545 58.4721 85.4971 58.4744V59.1172C85.4687 59.1125 85.4189 59.1054 85.3479 59.0959C85.2769 59.0864 85.2 59.0817 85.1171 59.0817C84.833 59.0817 84.5797 59.142 84.3572 59.2628C84.137 59.3812 83.963 59.5457 83.8351 59.7564C83.7073 59.9671 83.6434 60.2074 83.6434 60.4773V64H83.0113ZM88.615 64.1136C88.106 64.1136 87.6656 63.9953 87.2939 63.7585C86.9223 63.5194 86.6346 63.1892 86.431 62.7678C86.2298 62.344 86.1292 61.8563 86.1292 61.3047C86.1292 60.7554 86.2298 60.2678 86.431 59.8416C86.6346 59.4131 86.9152 59.0781 87.2726 58.8366C87.6325 58.5928 88.048 58.4709 88.5191 58.4709C88.815 58.4709 89.1003 58.5253 89.3749 58.6342C89.6495 58.7408 89.8957 58.9053 90.1135 59.1278C90.3337 59.348 90.5077 59.6262 90.6356 59.9624C90.7634 60.2962 90.8273 60.6915 90.8273 61.1484V61.4609H86.566V60.9034H90.181C90.181 60.553 90.11 60.2382 89.968 59.9588C89.8283 59.6771 89.633 59.4545 89.382 59.2912C89.1334 59.1278 88.8458 59.0462 88.5191 59.0462C88.1734 59.0462 87.8692 59.1385 87.6064 59.3232C87.3437 59.5078 87.1377 59.7517 86.9885 60.0547C86.8418 60.3577 86.7672 60.6892 86.7648 61.049V61.3828C86.7648 61.8161 86.8394 62.1948 86.9885 62.5192C87.1401 62.8411 87.3543 63.0909 87.6313 63.2685C87.9083 63.446 88.2362 63.5348 88.615 63.5348C88.873 63.5348 89.0991 63.4946 89.2932 63.4141C89.4897 63.3336 89.6543 63.2259 89.7868 63.0909C89.9218 62.9536 90.0236 62.8033 90.0922 62.6399L90.6924 62.8352C90.6095 63.0649 90.4734 63.2768 90.284 63.4709C90.097 63.665 89.8626 63.8213 89.5809 63.9396C89.3015 64.0556 88.9796 64.1136 88.615 64.1136ZM92.7955 56.7273V57.3665C92.7955 57.5606 92.76 57.7678 92.689 57.9879C92.6204 58.2057 92.5186 58.4176 92.3836 58.6236C92.251 58.8272 92.0901 59.0047 91.9007 59.1562L91.5562 58.8544C91.7338 58.6461 91.8841 58.4152 92.0072 58.1619C92.1303 57.9062 92.1919 57.6446 92.1919 57.3771V56.7273H92.7955ZM96.8811 59.7422L96.3023 59.9055C96.2455 59.7422 96.165 59.5942 96.0608 59.4616C95.9566 59.3291 95.8205 59.2237 95.6524 59.1456C95.4867 59.0675 95.2807 59.0284 95.0345 59.0284C94.6652 59.0284 94.3622 59.116 94.1254 59.2912C93.8887 59.4664 93.7703 59.6925 93.7703 59.9695C93.7703 60.2038 93.8508 60.3944 94.0118 60.5412C94.1752 60.6856 94.4261 60.8004 94.7646 60.8857L95.5885 61.0881C96.0454 61.1993 96.3875 61.3757 96.6148 61.6172C96.8444 61.8587 96.9593 62.1617 96.9593 62.5263C96.9593 62.834 96.874 63.1075 96.7036 63.3466C96.5331 63.5857 96.2952 63.7739 95.9898 63.9112C95.6868 64.0462 95.3352 64.1136 94.9351 64.1136C94.4024 64.1136 93.9633 63.9941 93.6176 63.755C93.272 63.5135 93.0506 63.1655 92.9536 62.7109L93.5608 62.5618C93.6389 62.8861 93.7916 63.1312 94.0189 63.2969C94.2486 63.4626 94.5504 63.5455 94.9244 63.5455C95.3435 63.5455 95.6785 63.4519 95.9294 63.2649C96.1804 63.0755 96.3058 62.8388 96.3058 62.5547C96.3058 62.3345 96.2325 62.1499 96.0857 62.0007C95.9389 61.8492 95.7164 61.7379 95.4181 61.6669L94.5267 61.4538C94.0532 61.3402 93.7029 61.1603 93.4756 60.9141C93.2483 60.6679 93.1347 60.3625 93.1347 59.9979C93.1347 59.6972 93.2164 59.4332 93.3797 59.206C93.5431 58.9763 93.768 58.7964 94.0544 58.6662C94.3409 58.536 94.6676 58.4709 95.0345 58.4709C95.5341 58.4709 95.933 58.5845 96.2313 58.8118C96.5319 59.0367 96.7486 59.3468 96.8811 59.7422ZM22.2789 76.1243C21.9498 76.1243 21.6491 76.0604 21.3769 75.9325C21.1046 75.8023 20.888 75.6153 20.727 75.3714C20.566 75.1252 20.4855 74.8269 20.4855 74.4766C20.4855 74.2067 20.5364 73.9794 20.6382 73.7947C20.74 73.6101 20.8844 73.4586 21.0715 73.3402C21.2585 73.2218 21.4798 73.1283 21.7355 73.0597C21.9912 72.991 22.2729 72.9377 22.5807 72.8999C22.8861 72.862 23.1441 72.8288 23.3548 72.8004C23.5679 72.772 23.7301 72.727 23.8414 72.6655C23.9526 72.6039 24.0083 72.5045 24.0083 72.3672V72.2393C24.0083 71.8677 23.897 71.5753 23.6744 71.3622C23.4543 71.1468 23.137 71.0391 22.7227 71.0391C22.3298 71.0391 22.009 71.1255 21.7604 71.2983C21.5142 71.4711 21.3414 71.6747 21.2419 71.9091L20.6418 71.6925C20.7649 71.3942 20.9353 71.1562 21.1531 70.9787C21.3709 70.7988 21.6148 70.6697 21.8847 70.5916C22.1546 70.5111 22.428 70.4709 22.705 70.4709C22.9133 70.4709 23.1299 70.4981 23.3548 70.5526C23.5821 70.607 23.7928 70.7017 23.9869 70.8366C24.1811 70.9692 24.3385 71.1551 24.4593 71.3942C24.58 71.6309 24.6404 71.9316 24.6404 72.2962V76H24.0083V75.1371H23.9692C23.8934 75.2981 23.781 75.4543 23.6318 75.6058C23.4827 75.7573 23.2957 75.8816 23.0708 75.9787C22.8459 76.0758 22.5819 76.1243 22.2789 76.1243ZM22.3641 75.5455C22.7003 75.5455 22.9914 75.4709 23.2377 75.3217C23.4839 75.1726 23.6733 74.9749 23.8058 74.7287C23.9408 74.4801 24.0083 74.2067 24.0083 73.9084V73.12C23.9609 73.165 23.8816 73.2053 23.7703 73.2408C23.6614 73.2763 23.5348 73.3082 23.3904 73.3366C23.2483 73.3627 23.1063 73.3852 22.9642 73.4041C22.8222 73.4231 22.6943 73.4396 22.5807 73.4538C22.2729 73.4917 22.0102 73.5509 21.7923 73.6314C21.5745 73.7119 21.4076 73.8232 21.2916 73.9652C21.1756 74.1049 21.1176 74.2848 21.1176 74.505C21.1176 74.8364 21.236 75.0933 21.4727 75.2756C21.7095 75.4555 22.0066 75.5455 22.3641 75.5455ZM28.4525 76.1136C27.9648 76.1136 27.5399 75.9917 27.1776 75.7479C26.8178 75.504 26.5384 75.1702 26.3396 74.7464C26.1407 74.3227 26.0413 73.8397 26.0413 73.2976C26.0413 72.7507 26.1419 72.2642 26.3431 71.8381C26.5467 71.4119 26.8285 71.0781 27.1883 70.8366C27.5481 70.5928 27.966 70.4709 28.4419 70.4709C28.8064 70.4709 29.1367 70.5419 29.4326 70.6839C29.7285 70.8236 29.9724 71.0213 30.1642 71.277C30.3583 71.5303 30.4802 71.8262 30.5299 72.1648H29.8907C29.8244 71.857 29.6646 71.5942 29.4113 71.3764C29.1604 71.1562 28.8408 71.0462 28.4525 71.0462C28.1045 71.0462 27.7967 71.1409 27.5292 71.3303C27.2617 71.5173 27.0522 71.7789 26.9007 72.1151C26.7515 72.4489 26.6769 72.8359 26.6769 73.2763C26.6769 73.719 26.7503 74.1108 26.8971 74.4517C27.0439 74.7902 27.2499 75.0554 27.515 75.2472C27.7825 75.4389 28.095 75.5348 28.4525 75.5348C28.694 75.5348 28.9142 75.4898 29.113 75.3999C29.3142 75.3075 29.4823 75.1773 29.6173 75.0092C29.7546 74.8411 29.8469 74.6411 29.8943 74.4091H30.5335C30.4861 74.7382 30.3689 75.0317 30.1819 75.2898C29.9972 75.5455 29.757 75.7467 29.461 75.8935C29.1675 76.0402 28.8313 76.1136 28.4525 76.1136ZM34.0189 76.1136C33.5312 76.1136 33.1063 75.9917 32.7441 75.7479C32.3842 75.504 32.1048 75.1702 31.906 74.7464C31.7071 74.3227 31.6077 73.8397 31.6077 73.2976C31.6077 72.7507 31.7083 72.2642 31.9095 71.8381C32.1131 71.4119 32.3949 71.0781 32.7547 70.8366C33.1146 70.5928 33.5324 70.4709 34.0083 70.4709C34.3728 70.4709 34.7031 70.5419 34.999 70.6839C35.295 70.8236 35.5388 71.0213 35.7306 71.277C35.9247 71.5303 36.0466 71.8262 36.0963 72.1648H35.4571C35.3908 71.857 35.231 71.5942 34.9777 71.3764C34.7268 71.1562 34.4072 71.0462 34.0189 71.0462C33.6709 71.0462 33.3631 71.1409 33.0956 71.3303C32.8281 71.5173 32.6186 71.7789 32.4671 72.1151C32.3179 72.4489 32.2433 72.8359 32.2433 73.2763C32.2433 73.719 32.3167 74.1108 32.4635 74.4517C32.6103 74.7902 32.8163 75.0554 33.0814 75.2472C33.3489 75.4389 33.6614 75.5348 34.0189 75.5348C34.2604 75.5348 34.4806 75.4898 34.6794 75.3999C34.8807 75.3075 35.0487 75.1773 35.1837 75.0092C35.321 74.8411 35.4133 74.6411 35.4607 74.4091H36.0999C36.0525 74.7382 35.9353 75.0317 35.7483 75.2898C35.5637 75.5455 35.3234 75.7467 35.0274 75.8935C34.7339 76.0402 34.3977 76.1136 34.0189 76.1136ZM39.5747 76.1136C39.1035 76.1136 38.6869 75.9941 38.3247 75.755C37.9648 75.5159 37.6831 75.1856 37.4795 74.7642C37.2759 74.3404 37.1741 73.8516 37.1741 73.2976C37.1741 72.7389 37.2759 72.2476 37.4795 71.8239C37.6831 71.3977 37.9648 71.0663 38.3247 70.8295C38.6869 70.5904 39.1035 70.4709 39.5747 70.4709C40.0458 70.4709 40.4613 70.5904 40.8211 70.8295C41.181 71.0687 41.4627 71.4001 41.6663 71.8239C41.8722 72.2476 41.9752 72.7389 41.9752 73.2976C41.9752 73.8516 41.8734 74.3404 41.6698 74.7642C41.4662 75.1856 41.1833 75.5159 40.8211 75.755C40.4613 75.9941 40.0458 76.1136 39.5747 76.1136ZM39.5747 75.5348C39.9535 75.5348 40.2742 75.433 40.537 75.2294C40.7998 75.0258 40.9987 74.7547 41.1336 74.4162C41.2709 74.0777 41.3396 73.7048 41.3396 73.2976C41.3396 72.8904 41.2709 72.5163 41.1336 72.1754C40.9987 71.8345 40.7998 71.5611 40.537 71.3551C40.2742 71.1491 39.9535 71.0462 39.5747 71.0462C39.1982 71.0462 38.8775 71.1491 38.6123 71.3551C38.3495 71.5611 38.1495 71.8345 38.0122 72.1754C37.8772 72.5163 37.8097 72.8904 37.8097 73.2976C37.8097 73.7048 37.8772 74.0777 38.0122 74.4162C38.1495 74.7547 38.3495 75.0258 38.6123 75.2294C38.8751 75.433 39.1959 75.5348 39.5747 75.5348ZM46.8287 73.9155V70.5455H47.4608V76H46.8287V75.0945H46.779C46.6512 75.3738 46.4488 75.607 46.1718 75.794C45.8948 75.9787 45.5563 76.071 45.1562 76.071C44.8081 76.071 44.4992 75.9953 44.2293 75.8438C43.9594 75.6899 43.7475 75.465 43.5937 75.169C43.4398 74.8731 43.3628 74.5097 43.3628 74.0788V70.5455H43.9949V74.0398C43.9949 74.4659 44.1204 74.8092 44.3714 75.0696C44.6223 75.3277 44.9443 75.4567 45.3373 75.4567C45.5835 75.4567 45.8202 75.3975 46.0475 75.2791C46.2748 75.1607 46.4618 74.9879 46.6086 74.7607C46.7554 74.531 46.8287 74.2493 46.8287 73.9155ZM49.7664 72.5909V76H49.1343V70.5455H49.7487V71.4013H49.8055C49.9333 71.1219 50.1322 70.8982 50.4021 70.7301C50.6743 70.5597 51.0105 70.4744 51.4106 70.4744C51.7776 70.4744 52.0995 70.5514 52.3765 70.7053C52.6559 70.8568 52.8725 71.0805 53.0264 71.3764C53.1826 71.6723 53.2607 72.0357 53.2607 72.4666V76H52.6286V72.5057C52.6286 72.0582 52.5032 71.7043 52.2522 71.4439C52.0036 71.1835 51.6698 71.0533 51.2508 71.0533C50.9643 71.0533 50.7098 71.1148 50.4873 71.2379C50.2648 71.361 50.0884 71.5386 49.9582 71.7706C49.8303 72.0002 49.7664 72.2737 49.7664 72.5909ZM57.0738 70.5455V71.0959H54.4708V70.5455H57.0738ZM55.284 69.2386H55.9197V74.576C55.9197 74.8033 55.9587 74.982 56.0368 75.1122C56.115 75.2401 56.2168 75.3312 56.3422 75.3857C56.4677 75.4377 56.6015 75.4638 56.7435 75.4638C56.8264 75.4638 56.8974 75.459 56.9566 75.4496C57.0158 75.4377 57.0679 75.4259 57.1128 75.4141L57.2478 75.9858C57.1862 76.0095 57.1105 76.0308 57.0205 76.0497C56.9305 76.071 56.8193 76.0817 56.6867 76.0817C56.4547 76.0817 56.231 76.0308 56.0155 75.929C55.8025 75.8272 55.6273 75.6757 55.49 75.4744C55.3527 75.2732 55.284 75.0234 55.284 74.7251V69.2386ZM61.3218 76V70.5455H61.9362V71.3835H61.9823C62.0912 71.1089 62.2806 70.8875 62.5505 70.7195C62.8228 70.549 63.1305 70.4638 63.4738 70.4638C63.5259 70.4638 63.5839 70.465 63.6478 70.4673C63.7117 70.4697 63.765 70.4721 63.8076 70.4744V71.1172C63.7792 71.1125 63.7295 71.1054 63.6585 71.0959C63.5874 71.0864 63.5105 71.0817 63.4276 71.0817C63.1436 71.0817 62.8902 71.142 62.6677 71.2628C62.4475 71.3812 62.2735 71.5457 62.1457 71.7564C62.0178 71.9671 61.9539 72.2074 61.9539 72.4773V76H61.3218ZM66.9255 76.1136C66.4165 76.1136 65.9762 75.9953 65.6045 75.7585C65.2328 75.5194 64.9452 75.1892 64.7416 74.7678C64.5403 74.344 64.4397 73.8563 64.4397 73.3047C64.4397 72.7554 64.5403 72.2678 64.7416 71.8416C64.9452 71.4131 65.2257 71.0781 65.5832 70.8366C65.943 70.5928 66.3585 70.4709 66.8296 70.4709C67.1256 70.4709 67.4108 70.5253 67.6855 70.6342C67.9601 70.7408 68.2063 70.9053 68.4241 71.1278C68.6443 71.348 68.8183 71.6262 68.9461 71.9624C69.074 72.2962 69.1379 72.6915 69.1379 73.1484V73.4609H64.8765V72.9034H68.4916C68.4916 72.553 68.4205 72.2382 68.2785 71.9588C68.1388 71.6771 67.9435 71.4545 67.6926 71.2912C67.444 71.1278 67.1563 71.0462 66.8296 71.0462C66.484 71.0462 66.1798 71.1385 65.917 71.3232C65.6542 71.5078 65.4482 71.7517 65.2991 72.0547C65.1523 72.3577 65.0777 72.6892 65.0754 73.049V73.3828C65.0754 73.8161 65.1499 74.1948 65.2991 74.5192C65.4506 74.8411 65.6649 75.0909 65.9419 75.2685C66.2188 75.446 66.5467 75.5348 66.9255 75.5348C67.1836 75.5348 67.4097 75.4946 67.6038 75.4141C67.8003 75.3336 67.9648 75.2259 68.0974 75.0909C68.2323 74.9536 68.3341 74.8033 68.4028 74.6399L69.0029 74.8352C68.9201 75.0649 68.7839 75.2768 68.5945 75.4709C68.4075 75.665 68.1731 75.8213 67.8914 75.9396C67.6121 76.0556 67.2901 76.1136 66.9255 76.1136ZM70.5308 76V70.5455H71.1452V71.3835H71.202C71.3109 71.1018 71.492 70.8804 71.7453 70.7195C72.001 70.5561 72.3076 70.4744 72.665 70.4744C73.0415 70.4744 73.3504 70.5632 73.5919 70.7408C73.8357 70.916 74.018 71.1574 74.1388 71.4652H74.1849C74.308 71.1622 74.5081 70.9219 74.7851 70.7443C75.0644 70.5644 75.403 70.4744 75.8007 70.4744C76.3073 70.4744 76.7074 70.6342 77.001 70.9538C77.2945 71.2711 77.4413 71.7351 77.4413 72.3459V76H76.8092V72.3459C76.8092 71.915 76.6991 71.5919 76.479 71.3764C76.2588 71.161 75.9688 71.0533 75.6089 71.0533C75.1923 71.0533 74.8715 71.1811 74.6466 71.4368C74.4217 71.6925 74.3092 72.0168 74.3092 72.4098V76H73.6629V72.2891C73.6629 71.9197 73.5599 71.6214 73.354 71.3942C73.148 71.1669 72.858 71.0533 72.4839 71.0533C72.233 71.0533 72.0069 71.1148 71.8057 71.2379C71.6068 71.361 71.4494 71.5327 71.3334 71.7528C71.2197 71.9706 71.1629 72.2216 71.1629 72.5057V76H70.5308ZM80.6382 76.1243C80.3092 76.1243 80.0085 76.0604 79.7362 75.9325C79.464 75.8023 79.2474 75.6153 79.0864 75.3714C78.9254 75.1252 78.8449 74.8269 78.8449 74.4766C78.8449 74.2067 78.8958 73.9794 78.9976 73.7947C79.0994 73.6101 79.2438 73.4586 79.4308 73.3402C79.6179 73.2218 79.8392 73.1283 80.0949 73.0597C80.3506 72.991 80.6323 72.9377 80.9401 72.8999C81.2455 72.862 81.5035 72.8288 81.7142 72.8004C81.9273 72.772 82.0895 72.727 82.2007 72.6655C82.312 72.6039 82.3676 72.5045 82.3676 72.3672V72.2393C82.3676 71.8677 82.2564 71.5753 82.0338 71.3622C81.8137 71.1468 81.4964 71.0391 81.0821 71.0391C80.6891 71.0391 80.3683 71.1255 80.1198 71.2983C79.8735 71.4711 79.7007 71.6747 79.6013 71.9091L79.0012 71.6925C79.1243 71.3942 79.2947 71.1562 79.5125 70.9787C79.7303 70.7988 79.9742 70.6697 80.2441 70.5916C80.5139 70.5111 80.7874 70.4709 81.0644 70.4709C81.2727 70.4709 81.4893 70.4981 81.7142 70.5526C81.9415 70.607 82.1522 70.7017 82.3463 70.8366C82.5405 70.9692 82.6979 71.1551 82.8186 71.3942C82.9394 71.6309 82.9997 71.9316 82.9997 72.2962V76H82.3676V75.1371H82.3286C82.2528 75.2981 82.1404 75.4543 81.9912 75.6058C81.8421 75.7573 81.655 75.8816 81.4301 75.9787C81.2052 76.0758 80.9413 76.1243 80.6382 76.1243ZM80.7235 75.5455C81.0596 75.5455 81.3508 75.4709 81.597 75.3217C81.8432 75.1726 82.0326 74.9749 82.1652 74.7287C82.3002 74.4801 82.3676 74.2067 82.3676 73.9084V73.12C82.3203 73.165 82.241 73.2053 82.1297 73.2408C82.0208 73.2763 81.8941 73.3082 81.7497 73.3366C81.6077 73.3627 81.4656 73.3852 81.3236 73.4041C81.1816 73.4231 81.0537 73.4396 80.9401 73.4538C80.6323 73.4917 80.3695 73.5509 80.1517 73.6314C79.9339 73.7119 79.767 73.8232 79.651 73.9652C79.535 74.1049 79.477 74.2848 79.477 74.505C79.477 74.8364 79.5954 75.0933 79.8321 75.2756C80.0689 75.4555 80.366 75.5455 80.7235 75.5455ZM84.6883 76V70.5455H85.324V76H84.6883ZM85.0115 69.608C84.8812 69.608 84.77 69.5642 84.6776 69.4766C84.5853 69.3866 84.5392 69.2789 84.5392 69.1534C84.5392 69.0279 84.5853 68.9214 84.6776 68.8338C84.77 68.7438 84.8812 68.6989 85.0115 68.6989C85.1417 68.6989 85.2529 68.7438 85.3453 68.8338C85.4376 68.9214 85.4838 69.0279 85.4838 69.1534C85.4838 69.2789 85.4376 69.3866 85.3453 69.4766C85.2529 69.5642 85.1417 69.608 85.0115 69.608ZM87.6278 72.5909V76H86.9956V70.5455H87.61V71.4013H87.6668C87.7947 71.1219 87.9935 70.8982 88.2634 70.7301C88.5357 70.5597 88.8718 70.4744 89.2719 70.4744C89.6389 70.4744 89.9608 70.5514 90.2378 70.7053C90.5172 70.8568 90.7338 71.0805 90.8877 71.3764C91.0439 71.6723 91.1221 72.0357 91.1221 72.4666V76H90.49V72.5057C90.49 72.0582 90.3645 71.7043 90.1135 71.4439C89.865 71.1835 89.5312 71.0533 89.1121 71.0533C88.8257 71.0533 88.5712 71.1148 88.3486 71.2379C88.1261 71.361 87.9497 71.5386 87.8195 71.7706C87.6917 72.0002 87.6278 72.2737 87.6278 72.5909ZM96.4514 71.7422L95.8726 71.9055C95.8158 71.7422 95.7353 71.5942 95.6311 71.4616C95.527 71.3291 95.3908 71.2237 95.2227 71.1456C95.057 71.0675 94.8511 71.0284 94.6048 71.0284C94.2355 71.0284 93.9325 71.116 93.6958 71.2912C93.459 71.4664 93.3406 71.6925 93.3406 71.9695C93.3406 72.2038 93.4211 72.3944 93.5821 72.5412C93.7455 72.6856 93.9964 72.8004 94.335 72.8857L95.1588 73.0881C95.6157 73.1993 95.9578 73.3757 96.1851 73.6172C96.4147 73.8587 96.5296 74.1617 96.5296 74.5263C96.5296 74.834 96.4443 75.1075 96.2739 75.3466C96.1034 75.5857 95.8655 75.7739 95.5601 75.9112C95.2571 76.0462 94.9055 76.1136 94.5054 76.1136C93.9727 76.1136 93.5336 75.9941 93.1879 75.755C92.8423 75.5135 92.6209 75.1655 92.5239 74.7109L93.1311 74.5618C93.2093 74.8861 93.3619 75.1312 93.5892 75.2969C93.8189 75.4626 94.1207 75.5455 94.4948 75.5455C94.9138 75.5455 95.2488 75.4519 95.4997 75.2649C95.7507 75.0755 95.8762 74.8388 95.8762 74.5547C95.8762 74.3345 95.8028 74.1499 95.656 74.0007C95.5092 73.8492 95.2867 73.7379 94.9884 73.6669L94.097 73.4538C93.6235 73.3402 93.2732 73.1603 93.0459 72.9141C92.8186 72.6679 92.705 72.3625 92.705 71.9979C92.705 71.6972 92.7867 71.4332 92.95 71.206C93.1134 70.9763 93.3383 70.7964 93.6247 70.6662C93.9112 70.536 94.2379 70.4709 94.6048 70.4709C95.1044 70.4709 95.5033 70.5845 95.8016 70.8118C96.1022 71.0367 96.3189 71.3468 96.4514 71.7422ZM46.8052 88.1243C46.4761 88.1243 46.1755 88.0604 45.9032 87.9325C45.631 87.8023 45.4144 87.6153 45.2534 87.3714C45.0924 87.1252 45.0119 86.8269 45.0119 86.4766C45.0119 86.2067 45.0628 85.9794 45.1646 85.7947C45.2664 85.6101 45.4108 85.4586 45.5978 85.3402C45.7849 85.2218 46.0062 85.1283 46.2619 85.0597C46.5176 84.991 46.7993 84.9377 47.1071 84.8999C47.4125 84.862 47.6705 84.8288 47.8812 84.8004C48.0943 84.772 48.2565 84.727 48.3677 84.6655C48.479 84.6039 48.5346 84.5045 48.5346 84.3672V84.2393C48.5346 83.8677 48.4234 83.5753 48.2008 83.3622C47.9806 83.1468 47.6634 83.0391 47.2491 83.0391C46.8561 83.0391 46.5353 83.1255 46.2868 83.2983C46.0405 83.4711 45.8677 83.6747 45.7683 83.9091L45.1681 83.6925C45.2913 83.3942 45.4617 83.1562 45.6795 82.9787C45.8973 82.7988 46.1412 82.6697 46.411 82.5916C46.6809 82.5111 46.9544 82.4709 47.2314 82.4709C47.4397 82.4709 47.6563 82.4981 47.8812 82.5526C48.1085 82.607 48.3192 82.7017 48.5133 82.8366C48.7074 82.9692 48.8649 83.1551 48.9856 83.3942C49.1064 83.6309 49.1667 83.9316 49.1667 84.2962V88H48.5346V87.1371H48.4956C48.4198 87.2981 48.3074 87.4543 48.1582 87.6058C48.0091 87.7573 47.822 87.8816 47.5971 87.9787C47.3722 88.0758 47.1083 88.1243 46.8052 88.1243ZM46.8904 87.5455C47.2266 87.5455 47.5178 87.4709 47.764 87.3217C48.0102 87.1726 48.1996 86.9749 48.3322 86.7287C48.4672 86.4801 48.5346 86.2067 48.5346 85.9084V85.12C48.4873 85.165 48.408 85.2053 48.2967 85.2408C48.1878 85.2763 48.0611 85.3082 47.9167 85.3366C47.7747 85.3627 47.6326 85.3852 47.4906 85.4041C47.3485 85.4231 47.2207 85.4396 47.1071 85.4538C46.7993 85.4917 46.5365 85.5509 46.3187 85.6314C46.1009 85.7119 45.934 85.8232 45.818 85.9652C45.702 86.1049 45.644 86.2848 45.644 86.505C45.644 86.8364 45.7624 87.0933 45.9991 87.2756C46.2359 87.4555 46.533 87.5455 46.8904 87.5455ZM52.9789 88.1136C52.4912 88.1136 52.0662 87.9917 51.704 87.7479C51.3442 87.504 51.0648 87.1702 50.8659 86.7464C50.6671 86.3227 50.5676 85.8397 50.5676 85.2976C50.5676 84.7507 50.6683 84.2642 50.8695 83.8381C51.0731 83.4119 51.3548 83.0781 51.7147 82.8366C52.0745 82.5928 52.4924 82.4709 52.9682 82.4709C53.3328 82.4709 53.6631 82.5419 53.959 82.6839C54.2549 82.8236 54.4988 83.0213 54.6905 83.277C54.8846 83.5303 55.0066 83.8262 55.0563 84.1648H54.4171C54.3508 83.857 54.191 83.5942 53.9377 83.3764C53.6867 83.1562 53.3671 83.0462 52.9789 83.0462C52.6309 83.0462 52.3231 83.1409 52.0556 83.3303C51.7881 83.5173 51.5785 83.7789 51.427 84.1151C51.2779 84.4489 51.2033 84.8359 51.2033 85.2763C51.2033 85.719 51.2767 86.1108 51.4235 86.4517C51.5703 86.7902 51.7762 87.0554 52.0414 87.2472C52.3089 87.4389 52.6214 87.5348 52.9789 87.5348C53.2203 87.5348 53.4405 87.4898 53.6394 87.3999C53.8406 87.3075 54.0087 87.1773 54.1436 87.0092C54.281 86.8411 54.3733 86.6411 54.4206 86.4091H55.0598C55.0125 86.7382 54.8953 87.0317 54.7083 87.2898C54.5236 87.5455 54.2833 87.7467 53.9874 87.8935C53.6938 88.0402 53.3577 88.1136 52.9789 88.1136ZM58.563 82.5455V83.0959H55.96V82.5455H58.563ZM56.7733 81.2386H57.4089V86.576C57.4089 86.8033 57.448 86.982 57.5261 87.1122C57.6042 87.2401 57.706 87.3312 57.8315 87.3857C57.957 87.4377 58.0907 87.4638 58.2328 87.4638C58.3156 87.4638 58.3867 87.459 58.4458 87.4496C58.505 87.4377 58.5571 87.4259 58.6021 87.4141L58.737 87.9858C58.6755 88.0095 58.5997 88.0308 58.5098 88.0497C58.4198 88.071 58.3085 88.0817 58.176 88.0817C57.944 88.0817 57.7202 88.0308 57.5048 87.929C57.2917 87.8272 57.1165 87.6757 56.9792 87.4744C56.8419 87.2732 56.7733 87.0234 56.7733 86.7251V81.2386ZM60.0057 88V82.5455H60.6413V88H60.0057ZM60.3288 81.608C60.1986 81.608 60.0874 81.5642 59.995 81.4766C59.9027 81.3866 59.8565 81.2789 59.8565 81.1534C59.8565 81.0279 59.9027 80.9214 59.995 80.8338C60.0874 80.7438 60.1986 80.6989 60.3288 80.6989C60.459 80.6989 60.5703 80.7438 60.6626 80.8338C60.755 80.9214 60.8011 81.0279 60.8011 81.1534C60.8011 81.2789 60.755 81.3866 60.6626 81.4766C60.5703 81.5642 60.459 81.608 60.3288 81.608ZM66.5353 82.5455L64.5431 88H63.8684L61.8762 82.5455H62.5616L64.1809 87.1655H64.2306L65.85 82.5455H66.5353ZM69.782 88.1136C69.273 88.1136 68.8326 87.9953 68.4609 87.7585C68.0893 87.5194 67.8016 87.1892 67.598 86.7678C67.3968 86.344 67.2962 85.8563 67.2962 85.3047C67.2962 84.7554 67.3968 84.2678 67.598 83.8416C67.8016 83.4131 68.0821 83.0781 68.4396 82.8366C68.7995 82.5928 69.215 82.4709 69.6861 82.4709C69.982 82.4709 70.2673 82.5253 70.5419 82.6342C70.8165 82.7408 71.0627 82.9053 71.2805 83.1278C71.5007 83.348 71.6747 83.6262 71.8026 83.9624C71.9304 84.2962 71.9943 84.6915 71.9943 85.1484V85.4609H67.733V84.9034H71.348C71.348 84.553 71.277 84.2382 71.1349 83.9588C70.9953 83.6771 70.8 83.4545 70.549 83.2912C70.3004 83.1278 70.0128 83.0462 69.6861 83.0462C69.3404 83.0462 69.0362 83.1385 68.7734 83.3232C68.5107 83.5078 68.3047 83.7517 68.1555 84.0547C68.0088 84.3577 67.9342 84.6892 67.9318 85.049V85.3828C67.9318 85.8161 68.0064 86.1948 68.1555 86.5192C68.3071 86.8411 68.5213 87.0909 68.7983 87.2685C69.0753 87.446 69.4032 87.5348 69.782 87.5348C70.04 87.5348 70.2661 87.4946 70.4602 87.4141C70.6567 87.3336 70.8213 87.2259 70.9538 87.0909C71.0888 86.9536 71.1906 86.8033 71.2592 86.6399L71.8594 86.8352C71.7765 87.0649 71.6404 87.2768 71.451 87.4709C71.264 87.665 71.0296 87.8213 70.7479 87.9396C70.4685 88.0556 70.1465 88.1136 69.782 88.1136Z" fill="#333333"/>
</g>
<defs>
<filter id="filter0_d_893_413" x="0" y="0" width="118" height="118" filterUnits="userSpaceOnUse" color-interpolation-filters="sRGB">
<feFlood flood-opacity="0" result="BackgroundImageFix"/>
<feColorMatrix in="SourceAlpha" type="matrix" values="0 0 0 0 0 0 0 0 0 0 0 0 0 0 0 0 0 0 127 0" result="hardAlpha"/>
<feOffset dy="4"/>
<feGaussianBlur stdDeviation="2"/>
<feComposite in2="hardAlpha" operator="out"/>
<feColorMatrix type="matrix" values="0 0 0 0 0 0 0 0 0 0 0 0 0 0 0 0 0 0 0.25 0"/>
<feBlend mode="normal" in2="BackgroundImageFix" result="effect1_dropShadow_893_413"/>
<feBlend mode="normal" in="SourceGraphic" in2="effect1_dropShadow_893_413" result="shape"/>
</filter>
</defs>
</svg>
