<svg width="118" height="118" viewBox="0 0 118 118" fill="none" xmlns="http://www.w3.org/2000/svg">
<g filter="url(#filter0_d_893_410)">
<rect x="4" width="110" height="110" fill="#FCDC4A"/>
<path d="M32.9917 23.1591C32.62 23.1591 32.2944 23.1106 32.0151 23.0135C31.7357 22.9188 31.5002 22.7886 31.3084 22.6229C31.1167 22.4571 30.9675 22.2713 30.861 22.0653L31.3794 21.7244C31.4576 21.8617 31.5617 21.9967 31.6919 22.1293C31.8245 22.2618 31.9962 22.3719 32.2069 22.4595C32.4199 22.5471 32.6815 22.5909 32.9917 22.5909C33.4746 22.5909 33.8641 22.4702 34.16 22.2287C34.4583 21.9872 34.6074 21.612 34.6074 21.103V19.8743H34.5506C34.4772 20.04 34.3719 20.2057 34.2346 20.3714C34.0972 20.5348 33.9173 20.6709 33.6948 20.7798C33.4746 20.8887 33.2012 20.9432 32.8745 20.9432C32.4389 20.9432 32.0518 20.8355 31.7132 20.62C31.3771 20.4046 31.1119 20.0968 30.9178 19.6967C30.726 19.2943 30.6301 18.8149 30.6301 18.2585C30.6301 17.7069 30.7237 17.2216 30.9107 16.8026C31.1001 16.3835 31.3641 16.0568 31.7026 15.8224C32.0411 15.5881 32.4353 15.4709 32.8851 15.4709C33.2189 15.4709 33.4959 15.5301 33.7161 15.6484C33.9363 15.7644 34.1126 15.9089 34.2452 16.0817C34.3801 16.2545 34.4855 16.4226 34.5613 16.5859H34.6252V15.5455H35.2431V21.142C35.2431 21.6037 35.1448 21.9837 34.9483 22.282C34.7518 22.5803 34.4843 22.8004 34.1458 22.9425C33.8072 23.0869 33.4225 23.1591 32.9917 23.1591ZM32.949 20.3643C33.2994 20.3643 33.5989 20.2803 33.8475 20.1122C34.0961 19.9418 34.2866 19.6979 34.4192 19.3807C34.5518 19.0634 34.6181 18.6858 34.6181 18.2479C34.6181 17.8217 34.553 17.4441 34.4228 17.1151C34.2926 16.7836 34.1032 16.5232 33.8546 16.3338C33.6084 16.142 33.3065 16.0462 32.949 16.0462C32.5845 16.0462 32.2767 16.1444 32.0257 16.3409C31.7748 16.5374 31.5854 16.8026 31.4576 17.1364C31.3297 17.4678 31.2658 17.8383 31.2658 18.2479C31.2658 18.6645 31.3309 19.0327 31.4611 19.3523C31.5913 19.6695 31.7819 19.9181 32.0328 20.098C32.2838 20.2756 32.5892 20.3643 32.949 20.3643ZM36.9165 21V15.5455H37.5309V16.3835H37.5771C37.686 16.1089 37.8754 15.8875 38.1452 15.7195C38.4175 15.549 38.7253 15.4638 39.0685 15.4638C39.1206 15.4638 39.1786 15.465 39.2425 15.4673C39.3065 15.4697 39.3597 15.4721 39.4023 15.4744V16.1172C39.3739 16.1125 39.3242 16.1054 39.2532 16.0959C39.1822 16.0864 39.1052 16.0817 39.0224 16.0817C38.7383 16.0817 38.485 16.142 38.2624 16.2628C38.0423 16.3812 37.8683 16.5457 37.7404 16.7564C37.6126 16.9671 37.5487 17.2074 37.5487 17.4773V21H36.9165ZM42.5202 21.1136C42.0112 21.1136 41.5709 20.9953 41.1992 20.7585C40.8275 20.5194 40.5399 20.1892 40.3363 19.7678C40.1351 19.344 40.0344 18.8563 40.0344 18.3047C40.0344 17.7554 40.1351 17.2678 40.3363 16.8416C40.5399 16.4131 40.8204 16.0781 41.1779 15.8366C41.5378 15.5928 41.9532 15.4709 42.4244 15.4709C42.7203 15.4709 43.0056 15.5253 43.2802 15.6342C43.5548 15.7408 43.801 15.9053 44.0188 16.1278C44.239 16.348 44.413 16.6262 44.5408 16.9624C44.6687 17.2962 44.7326 17.6915 44.7326 18.1484V18.4609H40.4712V17.9034H44.0863C44.0863 17.553 44.0153 17.2382 43.8732 16.9588C43.7335 16.6771 43.5382 16.4545 43.2873 16.2912C43.0387 16.1278 42.7511 16.0462 42.4244 16.0462C42.0787 16.0462 41.7745 16.1385 41.5117 16.3232C41.2489 16.5078 41.043 16.7517 40.8938 17.0547C40.747 17.3577 40.6725 17.6892 40.6701 18.049V18.3828C40.6701 18.8161 40.7447 19.1948 40.8938 19.5192C41.0453 19.8411 41.2596 20.0909 41.5366 20.2685C41.8136 20.446 42.1415 20.5348 42.5202 20.5348C42.7783 20.5348 43.0044 20.4946 43.1985 20.4141C43.395 20.3336 43.5595 20.2259 43.6921 20.0909C43.8271 19.9536 43.9289 19.8033 43.9975 19.6399L44.5977 19.8352C44.5148 20.0649 44.3787 20.2768 44.1893 20.4709C44.0022 20.665 43.7679 20.8213 43.4862 20.9396C43.2068 21.0556 42.8848 21.1136 42.5202 21.1136ZM47.649 21.1243C47.3199 21.1243 47.0192 21.0604 46.747 20.9325C46.4747 20.8023 46.2581 20.6153 46.0971 20.3714C45.9361 20.1252 45.8556 19.8269 45.8556 19.4766C45.8556 19.2067 45.9065 18.9794 46.0083 18.7947C46.1101 18.6101 46.2546 18.4586 46.4416 18.3402C46.6286 18.2218 46.85 18.1283 47.1056 18.0597C47.3613 17.991 47.6431 17.9377 47.9508 17.8999C48.2562 17.862 48.5143 17.8288 48.725 17.8004C48.938 17.772 49.1002 17.727 49.2115 17.6655C49.3227 17.6039 49.3784 17.5045 49.3784 17.3672V17.2393C49.3784 16.8677 49.2671 16.5753 49.0446 16.3622C48.8244 16.1468 48.5072 16.0391 48.0929 16.0391C47.6999 16.0391 47.3791 16.1255 47.1305 16.2983C46.8843 16.4711 46.7115 16.6747 46.612 16.9091L46.0119 16.6925C46.135 16.3942 46.3055 16.1562 46.5233 15.9787C46.7411 15.7988 46.9849 15.6697 47.2548 15.5916C47.5247 15.5111 47.7981 15.4709 48.0751 15.4709C48.2834 15.4709 48.5001 15.4981 48.725 15.5526C48.9522 15.607 49.1629 15.7017 49.3571 15.8366C49.5512 15.9692 49.7086 16.1551 49.8294 16.3942C49.9501 16.6309 50.0105 16.9316 50.0105 17.2962V21H49.3784V20.1371H49.3393C49.2636 20.2981 49.1511 20.4543 49.002 20.6058C48.8528 20.7573 48.6658 20.8816 48.4409 20.9787C48.216 21.0758 47.952 21.1243 47.649 21.1243ZM47.7342 20.5455C48.0704 20.5455 48.3616 20.4709 48.6078 20.3217C48.854 20.1726 49.0434 19.9749 49.176 19.7287C49.3109 19.4801 49.3784 19.2067 49.3784 18.9084V18.12C49.331 18.165 49.2517 18.2053 49.1404 18.2408C49.0315 18.2763 48.9049 18.3082 48.7605 18.3366C48.6184 18.3627 48.4764 18.3852 48.3343 18.4041C48.1923 18.4231 48.0645 18.4396 47.9508 18.4538C47.6431 18.4917 47.3803 18.5509 47.1625 18.6314C46.9447 18.7119 46.7778 18.8232 46.6618 18.9652C46.5458 19.1049 46.4877 19.2848 46.4877 19.505C46.4877 19.8364 46.6061 20.0933 46.8429 20.2756C47.0796 20.4555 47.3767 20.5455 47.7342 20.5455ZM53.8404 15.5455V16.0959H51.2374V15.5455H53.8404ZM52.0506 14.2386H52.6863V19.576C52.6863 19.8033 52.7253 19.982 52.8034 20.1122C52.8816 20.2401 52.9834 20.3312 53.1088 20.3857C53.2343 20.4377 53.3681 20.4638 53.5101 20.4638C53.593 20.4638 53.664 20.459 53.7232 20.4496C53.7824 20.4377 53.8345 20.4259 53.8794 20.4141L54.0144 20.9858C53.9528 21.0095 53.8771 21.0308 53.7871 21.0497C53.6971 21.071 53.5859 21.0817 53.4533 21.0817C53.2213 21.0817 52.9976 21.0308 52.7821 20.929C52.5691 20.8272 52.3939 20.6757 52.2566 20.4744C52.1193 20.2732 52.0506 20.0234 52.0506 19.7251V14.2386ZM57.4226 21.1136C56.9136 21.1136 56.4732 20.9953 56.1016 20.7585C55.7299 20.5194 55.4422 20.1892 55.2386 19.7678C55.0374 19.344 54.9368 18.8563 54.9368 18.3047C54.9368 17.7554 55.0374 17.2678 55.2386 16.8416C55.4422 16.4131 55.7228 16.0781 56.0803 15.8366C56.4401 15.5928 56.8556 15.4709 57.3267 15.4709C57.6226 15.4709 57.9079 15.5253 58.1825 15.6342C58.4571 15.7408 58.7034 15.9053 58.9212 16.1278C59.1413 16.348 59.3153 16.6262 59.4432 16.9624C59.571 17.2962 59.6349 17.6915 59.6349 18.1484V18.4609H55.3736V17.9034H58.9886C58.9886 17.553 58.9176 17.2382 58.7756 16.9588C58.6359 16.6771 58.4406 16.4545 58.1896 16.2912C57.9411 16.1278 57.6534 16.0462 57.3267 16.0462C56.9811 16.0462 56.6768 16.1385 56.4141 16.3232C56.1513 16.5078 55.9453 16.7517 55.7962 17.0547C55.6494 17.3577 55.5748 17.6892 55.5724 18.049V18.3828C55.5724 18.8161 55.647 19.1948 55.7962 19.5192C55.9477 19.8411 56.1619 20.0909 56.4389 20.2685C56.7159 20.446 57.0438 20.5348 57.4226 20.5348C57.6806 20.5348 57.9067 20.4946 58.1009 20.4141C58.2973 20.3336 58.4619 20.2259 58.5945 20.0909C58.7294 19.9536 58.8312 19.8033 58.8999 19.6399L59.5 19.8352C59.4171 20.0649 59.281 20.2768 59.0916 20.4709C58.9046 20.665 58.6702 20.8213 58.3885 20.9396C58.1091 21.0556 57.7872 21.1136 57.4226 21.1136ZM61.0279 21V15.5455H61.6422V16.3835H61.6884C61.7973 16.1089 61.9867 15.8875 62.2566 15.7195C62.5288 15.549 62.8366 15.4638 63.1799 15.4638C63.2319 15.4638 63.29 15.465 63.3539 15.4673C63.4178 15.4697 63.4711 15.4721 63.5137 15.4744V16.1172C63.4853 16.1125 63.4355 16.1054 63.3645 16.0959C63.2935 16.0864 63.2166 16.0817 63.1337 16.0817C62.8496 16.0817 62.5963 16.142 62.3738 16.2628C62.1536 16.3812 61.9796 16.5457 61.8517 16.7564C61.7239 16.9671 61.66 17.2074 61.66 17.4773V21H61.0279ZM69.5533 15.5455V16.0959H66.9503V15.5455H69.5533ZM67.7635 14.2386H68.3991V19.576C68.3991 19.8033 68.4382 19.982 68.5163 20.1122C68.5945 20.2401 68.6963 20.3312 68.8217 20.3857C68.9472 20.4377 69.081 20.4638 69.223 20.4638C69.3059 20.4638 69.3769 20.459 69.4361 20.4496C69.4953 20.4377 69.5473 20.4259 69.5923 20.4141L69.7273 20.9858C69.6657 21.0095 69.59 21.0308 69.5 21.0497C69.41 21.071 69.2988 21.0817 69.1662 21.0817C68.9342 21.0817 68.7105 21.0308 68.495 20.929C68.282 20.8272 68.1068 20.6757 67.9695 20.4744C67.8321 20.2732 67.7635 20.0234 67.7635 19.7251V14.2386ZM74.4547 18.9155V15.5455H75.0868V21H74.4547V20.0945H74.405C74.2772 20.3738 74.0748 20.607 73.7978 20.794C73.5208 20.9787 73.1822 21.071 72.7821 21.071C72.4341 21.071 72.1252 20.9953 71.8553 20.8438C71.5854 20.6899 71.3735 20.465 71.2196 20.169C71.0658 19.8731 70.9888 19.5097 70.9888 19.0788V15.5455H71.6209V19.0398C71.6209 19.4659 71.7464 19.8092 71.9973 20.0696C72.2483 20.3277 72.5703 20.4567 72.9632 20.4567C73.2095 20.4567 73.4462 20.3975 73.6735 20.2791C73.9007 20.1607 74.0878 19.9879 74.2346 19.7607C74.3813 19.531 74.4547 19.2493 74.4547 18.9155ZM78.9087 15.5455V16.0959H76.3058V15.5455H78.9087ZM77.119 14.2386H77.7546V19.576C77.7546 19.8033 77.7937 19.982 77.8718 20.1122C77.9499 20.2401 78.0517 20.3312 78.1772 20.3857C78.3027 20.4377 78.4364 20.4638 78.5785 20.4638C78.6613 20.4638 78.7324 20.459 78.7915 20.4496C78.8507 20.4377 78.9028 20.4259 78.9478 20.4141L79.0827 20.9858C79.0212 21.0095 78.9454 21.0308 78.8555 21.0497C78.7655 21.071 78.6542 21.0817 78.5217 21.0817C78.2897 21.0817 78.0659 21.0308 77.8505 20.929C77.6374 20.8272 77.4622 20.6757 77.3249 20.4744C77.1876 20.2732 77.119 20.0234 77.119 19.7251V14.2386ZM82.4057 21.1136C81.9346 21.1136 81.5179 20.9941 81.1557 20.755C80.7959 20.5159 80.5141 20.1856 80.3105 19.7642C80.1069 19.3404 80.0051 18.8516 80.0051 18.2976C80.0051 17.7389 80.1069 17.2476 80.3105 16.8239C80.5141 16.3977 80.7959 16.0663 81.1557 15.8295C81.5179 15.5904 81.9346 15.4709 82.4057 15.4709C82.8768 15.4709 83.2923 15.5904 83.6522 15.8295C84.012 16.0687 84.2937 16.4001 84.4973 16.8239C84.7033 17.2476 84.8063 17.7389 84.8063 18.2976C84.8063 18.8516 84.7045 19.3404 84.5009 19.7642C84.2973 20.1856 84.0144 20.5159 83.6522 20.755C83.2923 20.9941 82.8768 21.1136 82.4057 21.1136ZM82.4057 20.5348C82.7845 20.5348 83.1053 20.433 83.3681 20.2294C83.6309 20.0258 83.8297 19.7547 83.9647 19.4162C84.102 19.0777 84.1706 18.7048 84.1706 18.2976C84.1706 17.8904 84.102 17.5163 83.9647 17.1754C83.8297 16.8345 83.6309 16.5611 83.3681 16.3551C83.1053 16.1491 82.7845 16.0462 82.4057 16.0462C82.0293 16.0462 81.7085 16.1491 81.4434 16.3551C81.1806 16.5611 80.9805 16.8345 80.8432 17.1754C80.7083 17.5163 80.6408 17.8904 80.6408 18.2976C80.6408 18.7048 80.7083 19.0777 80.8432 19.4162C80.9805 19.7547 81.1806 20.0258 81.4434 20.2294C81.7061 20.433 82.0269 20.5348 82.4057 20.5348ZM86.1939 21V15.5455H86.8082V16.3835H86.8544C86.9633 16.1089 87.1527 15.8875 87.4226 15.7195C87.6948 15.549 88.0026 15.4638 88.3459 15.4638C88.398 15.4638 88.456 15.465 88.5199 15.4673C88.5838 15.4697 88.6371 15.4721 88.6797 15.4744V16.1172C88.6513 16.1125 88.6016 16.1054 88.5305 16.0959C88.4595 16.0864 88.3826 16.0817 88.2997 16.0817C88.0156 16.0817 87.7623 16.142 87.5398 16.2628C87.3196 16.3812 87.1456 16.5457 87.0178 16.7564C86.8899 16.9671 86.826 17.2074 86.826 17.4773V21H86.1939ZM34.1187 33V27.5455H34.733V28.3835H34.7899C34.8988 28.1018 35.0799 27.8804 35.3332 27.7195C35.5889 27.5561 35.8954 27.4744 36.2529 27.4744C36.6294 27.4744 36.9383 27.5632 37.1798 27.7408C37.4236 27.916 37.6059 28.1574 37.7267 28.4652H37.7728C37.8959 28.1622 38.096 27.9219 38.373 27.7443C38.6523 27.5644 38.9909 27.4744 39.3886 27.4744C39.8952 27.4744 40.2953 27.6342 40.5889 27.9538C40.8824 28.2711 41.0292 28.7351 41.0292 29.3459V33H40.3971V29.3459C40.3971 28.915 40.287 28.5919 40.0669 28.3764C39.8467 28.161 39.5567 28.0533 39.1968 28.0533C38.7802 28.0533 38.4594 28.1811 38.2345 28.4368C38.0096 28.6925 37.8971 29.0168 37.8971 29.4098V33H37.2508V29.2891C37.2508 28.9197 37.1478 28.6214 36.9419 28.3942C36.7359 28.1669 36.4459 28.0533 36.0718 28.0533C35.8209 28.0533 35.5948 28.1148 35.3936 28.2379C35.1947 28.361 35.0373 28.5327 34.9213 28.7528C34.8076 28.9706 34.7508 29.2216 34.7508 29.5057V33H34.1187ZM44.8227 33.1136C44.3516 33.1136 43.9349 32.9941 43.5727 32.755C43.2129 32.5159 42.9311 32.1856 42.7275 31.7642C42.5239 31.3404 42.4221 30.8516 42.4221 30.2976C42.4221 29.7389 42.5239 29.2476 42.7275 28.8239C42.9311 28.3977 43.2129 28.0663 43.5727 27.8295C43.9349 27.5904 44.3516 27.4709 44.8227 27.4709C45.2938 27.4709 45.7093 27.5904 46.0692 27.8295C46.429 28.0687 46.7107 28.4001 46.9143 28.8239C47.1203 29.2476 47.2233 29.7389 47.2233 30.2976C47.2233 30.8516 47.1215 31.3404 46.9179 31.7642C46.7143 32.1856 46.4314 32.5159 46.0692 32.755C45.7093 32.9941 45.2938 33.1136 44.8227 33.1136ZM44.8227 32.5348C45.2015 32.5348 45.5223 32.433 45.7851 32.2294C46.0479 32.0258 46.2467 31.7547 46.3817 31.4162C46.519 31.0777 46.5876 30.7048 46.5876 30.2976C46.5876 29.8904 46.519 29.5163 46.3817 29.1754C46.2467 28.8345 46.0479 28.5611 45.7851 28.3551C45.5223 28.1491 45.2015 28.0462 44.8227 28.0462C44.4463 28.0462 44.1255 28.1491 43.8604 28.3551C43.5976 28.5611 43.3975 28.8345 43.2602 29.1754C43.1253 29.5163 43.0578 29.8904 43.0578 30.2976C43.0578 30.7048 43.1253 31.0777 43.2602 31.4162C43.3975 31.7547 43.5976 32.0258 43.8604 32.2294C44.1231 32.433 44.4439 32.5348 44.8227 32.5348ZM49.243 29.5909V33H48.6109V27.5455H49.2252V28.4013H49.282C49.4099 28.1219 49.6088 27.8982 49.8786 27.7301C50.1509 27.5597 50.4871 27.4744 50.8872 27.4744C51.2541 27.4744 51.5761 27.5514 51.8531 27.7053C52.1324 27.8568 52.349 28.0805 52.5029 28.3764C52.6592 28.6723 52.7373 29.0357 52.7373 29.4666V33H52.1052V29.5057C52.1052 29.0582 51.9797 28.7043 51.7288 28.4439C51.4802 28.1835 51.1464 28.0533 50.7274 28.0533C50.4409 28.0533 50.1864 28.1148 49.9639 28.2379C49.7413 28.361 49.565 28.5386 49.4347 28.7706C49.3069 29.0002 49.243 29.2737 49.243 29.5909ZM54.409 33V27.5455H55.0447V33H54.409ZM54.7322 26.608C54.6019 26.608 54.4907 26.5642 54.3983 26.4766C54.306 26.3866 54.2599 26.2789 54.2599 26.1534C54.2599 26.0279 54.306 25.9214 54.3983 25.8338C54.4907 25.7438 54.6019 25.6989 54.7322 25.6989C54.8624 25.6989 54.9736 25.7438 55.066 25.8338C55.1583 25.9214 55.2045 26.0279 55.2045 26.1534C55.2045 26.2789 55.1583 26.3866 55.066 26.4766C54.9736 26.5642 54.8624 26.608 54.7322 26.608ZM58.8648 27.5455V28.0959H56.2618V27.5455H58.8648ZM57.075 26.2386H57.7107V31.576C57.7107 31.8033 57.7497 31.982 57.8279 32.1122C57.906 32.2401 58.0078 32.3312 58.1333 32.3857C58.2587 32.4377 58.3925 32.4638 58.5345 32.4638C58.6174 32.4638 58.6884 32.459 58.7476 32.4496C58.8068 32.4377 58.8589 32.4259 58.9039 32.4141L59.0388 32.9858C58.9772 33.0095 58.9015 33.0308 58.8115 33.0497C58.7216 33.071 58.6103 33.0817 58.4777 33.0817C58.2457 33.0817 58.022 33.0308 57.8066 32.929C57.5935 32.8272 57.4183 32.6757 57.281 32.4744C57.1437 32.2732 57.075 32.0234 57.075 31.7251V26.2386ZM62.3618 33.1136C61.8907 33.1136 61.474 32.9941 61.1118 32.755C60.7519 32.5159 60.4702 32.1856 60.2666 31.7642C60.063 31.3404 59.9612 30.8516 59.9612 30.2976C59.9612 29.7389 60.063 29.2476 60.2666 28.8239C60.4702 28.3977 60.7519 28.0663 61.1118 27.8295C61.474 27.5904 61.8907 27.4709 62.3618 27.4709C62.8329 27.4709 63.2484 27.5904 63.6082 27.8295C63.9681 28.0687 64.2498 28.4001 64.4534 28.8239C64.6594 29.2476 64.7623 29.7389 64.7623 30.2976C64.7623 30.8516 64.6605 31.3404 64.4569 31.7642C64.2533 32.1856 63.9704 32.5159 63.6082 32.755C63.2484 32.9941 62.8329 33.1136 62.3618 33.1136ZM62.3618 32.5348C62.7406 32.5348 63.0613 32.433 63.3241 32.2294C63.5869 32.0258 63.7858 31.7547 63.9207 31.4162C64.058 31.0777 64.1267 30.7048 64.1267 30.2976C64.1267 29.8904 64.058 29.5163 63.9207 29.1754C63.7858 28.8345 63.5869 28.5611 63.3241 28.3551C63.0613 28.1491 62.7406 28.0462 62.3618 28.0462C61.9854 28.0462 61.6646 28.1491 61.3994 28.3551C61.1366 28.5611 60.9366 28.8345 60.7993 29.1754C60.6643 29.5163 60.5969 29.8904 60.5969 30.2976C60.5969 30.7048 60.6643 31.0777 60.7993 31.4162C60.9366 31.7547 61.1366 32.0258 61.3994 32.2294C61.6622 32.433 61.983 32.5348 62.3618 32.5348ZM66.1499 33V27.5455H66.7643V28.3835H66.8105C66.9194 28.1089 67.1088 27.8875 67.3786 27.7195C67.6509 27.549 67.9587 27.4638 68.3019 27.4638C68.354 27.4638 68.412 27.465 68.4759 27.4673C68.5399 27.4697 68.5931 27.4721 68.6357 27.4744V28.1172C68.6073 28.1125 68.5576 28.1054 68.4866 28.0959C68.4156 28.0864 68.3386 28.0817 68.2558 28.0817C67.9717 28.0817 67.7184 28.142 67.4958 28.2628C67.2757 28.3812 67.1017 28.5457 66.9738 28.7564C66.846 28.9671 66.782 29.2074 66.782 29.4773V33H66.1499ZM69.7215 33V27.5455H70.3572V33H69.7215ZM70.0447 26.608C69.9144 26.608 69.8032 26.5642 69.7108 26.4766C69.6185 26.3866 69.5724 26.2789 69.5724 26.1534C69.5724 26.0279 69.6185 25.9214 69.7108 25.8338C69.8032 25.7438 69.9144 25.6989 70.0447 25.6989C70.1749 25.6989 70.2861 25.7438 70.3785 25.8338C70.4708 25.9214 70.517 26.0279 70.517 26.1534C70.517 26.2789 70.4708 26.3866 70.3785 26.4766C70.2861 26.5642 70.1749 26.608 70.0447 26.608ZM72.661 29.5909V33H72.0289V27.5455H72.6432V28.4013H72.7C72.8279 28.1219 73.0267 27.8982 73.2966 27.7301C73.5689 27.5597 73.905 27.4744 74.3051 27.4744C74.6721 27.4744 74.9941 27.5514 75.271 27.7053C75.5504 27.8568 75.767 28.0805 75.9209 28.3764C76.0771 28.6723 76.1553 29.0357 76.1553 29.4666V33H75.5232V29.5057C75.5232 29.0582 75.3977 28.7043 75.1468 28.4439C74.8982 28.1835 74.5644 28.0533 74.1453 28.0533C73.8589 28.0533 73.6044 28.1148 73.3818 28.2379C73.1593 28.361 72.9829 28.5386 72.8527 28.7706C72.7249 29.0002 72.661 29.2737 72.661 29.5909ZM79.9008 35.1591C79.5291 35.1591 79.2036 35.1106 78.9243 35.0135C78.6449 34.9188 78.4094 34.7886 78.2176 34.6229C78.0258 34.4571 77.8767 34.2713 77.7702 34.0653L78.2886 33.7244C78.3667 33.8617 78.4709 33.9967 78.6011 34.1293C78.7337 34.2618 78.9053 34.3719 79.116 34.4595C79.3291 34.5471 79.5907 34.5909 79.9008 34.5909C80.3838 34.5909 80.7732 34.4702 81.0692 34.2287C81.3675 33.9872 81.5166 33.612 81.5166 33.103V31.8743H81.4598C81.3864 32.04 81.281 32.2057 81.1437 32.3714C81.0064 32.5348 80.8265 32.6709 80.604 32.7798C80.3838 32.8887 80.1104 32.9432 79.7836 32.9432C79.348 32.9432 78.961 32.8355 78.6224 32.62C78.2863 32.4046 78.0211 32.0968 77.827 31.6967C77.6352 31.2943 77.5393 30.8149 77.5393 30.2585C77.5393 29.7069 77.6328 29.2216 77.8199 28.8026C78.0093 28.3835 78.2732 28.0568 78.6118 27.8224C78.9503 27.5881 79.3445 27.4709 79.7943 27.4709C80.1281 27.4709 80.4051 27.5301 80.6253 27.6484C80.8454 27.7644 81.0218 27.9089 81.1544 28.0817C81.2893 28.2545 81.3947 28.4226 81.4704 28.5859H81.5344V27.5455H82.1523V33.142C82.1523 33.6037 82.054 33.9837 81.8575 34.282C81.661 34.5803 81.3935 34.8004 81.055 34.9425C80.7164 35.0869 80.3317 35.1591 79.9008 35.1591ZM79.8582 32.3643C80.2086 32.3643 80.5081 32.2803 80.7567 32.1122C81.0052 31.9418 81.1958 31.6979 81.3284 31.3807C81.461 31.0634 81.5273 30.6858 81.5273 30.2479C81.5273 29.8217 81.4622 29.4441 81.3319 29.1151C81.2017 28.7836 81.0123 28.5232 80.7638 28.3338C80.5175 28.142 80.2157 28.0462 79.8582 28.0462C79.4936 28.0462 79.1859 28.1444 78.9349 28.3409C78.684 28.5374 78.4946 28.8026 78.3667 29.1364C78.2389 29.4678 78.175 29.8383 78.175 30.2479C78.175 30.6645 78.2401 31.0327 78.3703 31.3523C78.5005 31.6695 78.6911 31.9181 78.942 32.098C79.193 32.2756 79.4984 32.3643 79.8582 32.3643ZM84.8769 32.0057L84.8129 32.3857C84.7727 32.6413 84.7159 32.9231 84.6425 33.2308C84.5691 33.5386 84.4933 33.831 84.4152 34.108C84.3371 34.3849 84.2696 34.6075 84.2128 34.7756H83.7263C83.7571 34.6146 83.7961 34.4098 83.8435 34.1612C83.8932 33.9126 83.9441 33.6368 83.9962 33.3338C84.0483 33.0331 84.0956 32.723 84.1382 32.4034L84.1879 32.0057H84.8769ZM38.772 47.0455V39.5455H39.3864V40.5859H39.4609C39.5367 40.4226 39.6409 40.2557 39.7734 40.0852C39.906 39.9124 40.0812 39.7668 40.299 39.6484C40.5192 39.5301 40.7962 39.4709 41.13 39.4709C41.5798 39.4709 41.9728 39.5893 42.3089 39.826C42.6475 40.0604 42.9103 40.3894 43.0973 40.8132C43.2867 41.2346 43.3814 41.7259 43.3814 42.2869C43.3814 42.8504 43.2867 43.344 43.0973 43.7678C42.9103 44.1915 42.6475 44.5218 42.3089 44.7585C41.9728 44.9953 41.5821 45.1136 41.1371 45.1136C40.808 45.1136 40.5322 45.0545 40.3097 44.9361C40.0895 44.8177 39.9107 44.6721 39.7734 44.4993C39.6385 44.3241 39.5343 44.1536 39.4609 43.9879H39.4041V47.0455H38.772ZM39.397 42.2763C39.397 42.7166 39.4621 43.1072 39.5923 43.4482C39.7249 43.7867 39.9143 44.053 40.1605 44.2472C40.4091 44.4389 40.7098 44.5348 41.0625 44.5348C41.4247 44.5348 41.7301 44.4354 41.9787 44.2365C42.2296 44.0353 42.4202 43.7642 42.5504 43.4233C42.683 43.0824 42.7493 42.7 42.7493 42.2763C42.7493 41.8572 42.6842 41.4796 42.554 41.1435C42.4261 40.8073 42.2367 40.541 41.9858 40.3445C41.7348 40.1456 41.4271 40.0462 41.0625 40.0462C40.7074 40.0462 40.4055 40.142 40.157 40.3338C39.9084 40.5232 39.719 40.786 39.5888 41.1222C39.4609 41.456 39.397 41.8407 39.397 42.2763ZM44.7681 45V39.5455H45.3825V40.3835H45.4286C45.5375 40.1089 45.7269 39.8875 45.9968 39.7195C46.2691 39.549 46.5768 39.4638 46.9201 39.4638C46.9722 39.4638 47.0302 39.465 47.0941 39.4673C47.158 39.4697 47.2113 39.4721 47.2539 39.4744V40.1172C47.2255 40.1125 47.1758 40.1054 47.1048 40.0959C47.0337 40.0864 46.9568 40.0817 46.8739 40.0817C46.5898 40.0817 46.3365 40.142 46.114 40.2628C45.8938 40.3812 45.7198 40.5457 45.592 40.7564C45.4641 40.9671 45.4002 41.2074 45.4002 41.4773V45H44.7681ZM50.2866 45.1136C49.8155 45.1136 49.3988 44.9941 49.0366 44.755C48.6767 44.5159 48.395 44.1856 48.1914 43.7642C47.9878 43.3404 47.886 42.8516 47.886 42.2976C47.886 41.7389 47.9878 41.2476 48.1914 40.8239C48.395 40.3977 48.6767 40.0663 49.0366 39.8295C49.3988 39.5904 49.8155 39.4709 50.2866 39.4709C50.7577 39.4709 51.1732 39.5904 51.533 39.8295C51.8929 40.0687 52.1746 40.4001 52.3782 40.8239C52.5842 41.2476 52.6871 41.7389 52.6871 42.2976C52.6871 42.8516 52.5853 43.3404 52.3817 43.7642C52.1781 44.1856 51.8952 44.5159 51.533 44.755C51.1732 44.9941 50.7577 45.1136 50.2866 45.1136ZM50.2866 44.5348C50.6654 44.5348 50.9862 44.433 51.2489 44.2294C51.5117 44.0258 51.7106 43.7547 51.8455 43.4162C51.9828 43.0777 52.0515 42.7048 52.0515 42.2976C52.0515 41.8904 51.9828 41.5163 51.8455 41.1754C51.7106 40.8345 51.5117 40.5611 51.2489 40.3551C50.9862 40.1491 50.6654 40.0462 50.2866 40.0462C49.9102 40.0462 49.5894 40.1491 49.3242 40.3551C49.0614 40.5611 48.8614 40.8345 48.7241 41.1754C48.5891 41.5163 48.5217 41.8904 48.5217 42.2976C48.5217 42.7048 48.5891 43.0777 48.7241 43.4162C48.8614 43.7547 49.0614 44.0258 49.3242 44.2294C49.587 44.433 49.9078 44.5348 50.2866 44.5348ZM58.1017 39.5455L56.1096 45H55.4348L53.4426 39.5455H54.128L55.7473 44.1655H55.7971L57.4164 39.5455H58.1017ZM59.3455 45V39.5455H59.9812V45H59.3455ZM59.6687 38.608C59.5385 38.608 59.4272 38.5642 59.3349 38.4766C59.2425 38.3866 59.1964 38.2789 59.1964 38.1534C59.1964 38.0279 59.2425 37.9214 59.3349 37.8338C59.4272 37.7438 59.5385 37.6989 59.6687 37.6989C59.7989 37.6989 59.9102 37.7438 60.0025 37.8338C60.0948 37.9214 60.141 38.0279 60.141 38.1534C60.141 38.2789 60.0948 38.3866 60.0025 38.4766C59.9102 38.5642 59.7989 38.608 59.6687 38.608ZM63.6167 45.1136C63.1692 45.1136 62.7774 44.9953 62.4412 44.7585C62.1051 44.5218 61.8423 44.1915 61.6529 43.7678C61.4658 43.344 61.3723 42.8504 61.3723 42.2869C61.3723 41.7259 61.4658 41.2346 61.6529 40.8132C61.8423 40.3894 62.1062 40.0604 62.4448 39.826C62.7833 39.5893 63.1775 39.4709 63.6273 39.4709C63.9587 39.4709 64.2346 39.5301 64.4547 39.6484C64.6749 39.7644 64.8513 39.9089 64.9838 40.0817C65.1164 40.2545 65.2194 40.4226 65.2928 40.5859H65.3496V37.7273H65.9853V45H65.3674V43.9879H65.2928C65.2194 44.1536 65.1152 44.3241 64.9803 44.4993C64.8453 44.6721 64.6666 44.8177 64.4441 44.9361C64.2239 45.0545 63.9481 45.1136 63.6167 45.1136ZM63.6912 44.5348C64.044 44.5348 64.3446 44.4389 64.5932 44.2472C64.8418 44.053 65.0312 43.7867 65.1614 43.4482C65.294 43.1072 65.3603 42.7166 65.3603 42.2763C65.3603 41.8407 65.2952 41.456 65.165 41.1222C65.0347 40.786 64.8453 40.5232 64.5968 40.3338C64.3482 40.142 64.0463 40.0462 63.6912 40.0462C63.3266 40.0462 63.0189 40.1456 62.7679 40.3445C62.5194 40.541 62.33 40.8073 62.1998 41.1435C62.0719 41.4796 62.008 41.8572 62.008 42.2763C62.008 42.7 62.0731 43.0824 62.2033 43.4233C62.3335 43.7642 62.5229 44.0353 62.7715 44.2365C63.0224 44.4354 63.329 44.5348 63.6912 44.5348ZM67.7928 45V39.5455H68.4284V45H67.7928ZM68.1159 38.608C67.9857 38.608 67.8745 38.5642 67.7821 38.4766C67.6898 38.3866 67.6436 38.2789 67.6436 38.1534C67.6436 38.0279 67.6898 37.9214 67.7821 37.8338C67.8745 37.7438 67.9857 37.6989 68.1159 37.6989C68.2462 37.6989 68.3574 37.7438 68.4498 37.8338C68.5421 37.9214 68.5882 38.0279 68.5882 38.1534C68.5882 38.2789 68.5421 38.3866 68.4498 38.4766C68.3574 38.5642 68.2462 38.608 68.1159 38.608ZM70.7322 41.5909V45H70.1001V39.5455H70.7145V40.4013H70.7713C70.8991 40.1219 71.098 39.8982 71.3679 39.7301C71.6402 39.5597 71.9763 39.4744 72.3764 39.4744C72.7434 39.4744 73.0653 39.5514 73.3423 39.7053C73.6217 39.8568 73.8383 40.0805 73.9922 40.3764C74.1484 40.6723 74.2266 41.0357 74.2266 41.4666V45H73.5945V41.5057C73.5945 41.0582 73.469 40.7043 73.218 40.4439C72.9695 40.1835 72.6357 40.0533 72.2166 40.0533C71.9302 40.0533 71.6757 40.1148 71.4531 40.2379C71.2306 40.361 71.0542 40.5386 70.924 40.7706C70.7962 41.0002 70.7322 41.2737 70.7322 41.5909ZM77.9721 47.1591C77.6004 47.1591 77.2749 47.1106 76.9956 47.0135C76.7162 46.9188 76.4806 46.7886 76.2889 46.6229C76.0971 46.4571 75.948 46.2713 75.8414 46.0653L76.3599 45.7244C76.438 45.8617 76.5422 45.9967 76.6724 46.1293C76.805 46.2618 76.9766 46.3719 77.1873 46.4595C77.4004 46.5471 77.662 46.5909 77.9721 46.5909C78.4551 46.5909 78.8445 46.4702 79.1404 46.2287C79.4387 45.9872 79.5879 45.612 79.5879 45.103V43.8743H79.5311C79.4577 44.04 79.3523 44.2057 79.215 44.3714C79.0777 44.5348 78.8978 44.6709 78.6752 44.7798C78.4551 44.8887 78.1816 44.9432 77.8549 44.9432C77.4193 44.9432 77.0323 44.8355 76.6937 44.62C76.3575 44.4046 76.0924 44.0968 75.8983 43.6967C75.7065 43.2943 75.6106 42.8149 75.6106 42.2585C75.6106 41.7069 75.7041 41.2216 75.8912 40.8026C76.0806 40.3835 76.3445 40.0568 76.6831 39.8224C77.0216 39.5881 77.4158 39.4709 77.8656 39.4709C78.1994 39.4709 78.4764 39.5301 78.6966 39.6484C78.9167 39.7644 79.0931 39.9089 79.2257 40.0817C79.3606 40.2545 79.466 40.4226 79.5417 40.5859H79.6056V39.5455H80.2235V45.142C80.2235 45.6037 80.1253 45.9837 79.9288 46.282C79.7323 46.5803 79.4648 46.8004 79.1262 46.9425C78.7877 47.0869 78.403 47.1591 77.9721 47.1591ZM77.9295 44.3643C78.2799 44.3643 78.5794 44.2803 78.8279 44.1122C79.0765 43.9418 79.2671 43.6979 79.3997 43.3807C79.5323 43.0634 79.5985 42.6858 79.5985 42.2479C79.5985 41.8217 79.5334 41.4441 79.4032 41.1151C79.273 40.7836 79.0836 40.5232 78.835 40.3338C78.5888 40.142 78.287 40.0462 77.9295 40.0462C77.5649 40.0462 77.2572 40.1444 77.0062 40.3409C76.7553 40.5374 76.5659 40.8026 76.438 41.1364C76.3102 41.4678 76.2463 41.8383 76.2463 42.2479C76.2463 42.6645 76.3114 43.0327 76.4416 43.3523C76.5718 43.6695 76.7624 43.9181 77.0133 44.098C77.2643 44.2756 77.5697 44.3643 77.9295 44.3643ZM17.0262 57V51.5455H17.6618V57H17.0262ZM17.3493 50.608C17.2191 50.608 17.1079 50.5642 17.0155 50.4766C16.9232 50.3866 16.877 50.2789 16.877 50.1534C16.877 50.0279 16.9232 49.9214 17.0155 49.8338C17.1079 49.7438 17.2191 49.6989 17.3493 49.6989C17.4796 49.6989 17.5908 49.7438 17.6831 49.8338C17.7755 49.9214 17.8216 50.0279 17.8216 50.1534C17.8216 50.2789 17.7755 50.3866 17.6831 50.4766C17.5908 50.5642 17.4796 50.608 17.3493 50.608ZM19.9656 53.5909V57H19.3335V51.5455H19.9479V52.4013H20.0047C20.1325 52.1219 20.3314 51.8982 20.6013 51.7301C20.8735 51.5597 21.2097 51.4744 21.6098 51.4744C21.9768 51.4744 22.2987 51.5514 22.5757 51.7053C22.8551 51.8568 23.0717 52.0805 23.2256 52.3764C23.3818 52.6723 23.46 53.0357 23.46 53.4666V57H22.8279V53.5057C22.8279 53.0582 22.7024 52.7043 22.4514 52.4439C22.2029 52.1835 21.8691 52.0533 21.45 52.0533C21.1636 52.0533 20.9091 52.1148 20.6865 52.2379C20.464 52.361 20.2876 52.5386 20.1574 52.7706C20.0296 53.0002 19.9656 53.2737 19.9656 53.5909ZM27.2552 57.1136C26.7675 57.1136 26.3426 56.9917 25.9804 56.7479C25.6205 56.504 25.3412 56.1702 25.1423 55.7464C24.9434 55.3227 24.844 54.8397 24.844 54.2976C24.844 53.7507 24.9446 53.2642 25.1459 52.8381C25.3495 52.4119 25.6312 52.0781 25.991 51.8366C26.3509 51.5928 26.7687 51.4709 27.2446 51.4709C27.6092 51.4709 27.9394 51.5419 28.2354 51.6839C28.5313 51.8236 28.7751 52.0213 28.9669 52.277C29.161 52.5303 29.2829 52.8262 29.3327 53.1648H28.6934C28.6272 52.857 28.4674 52.5942 28.214 52.3764C27.9631 52.1562 27.6435 52.0462 27.2552 52.0462C26.9072 52.0462 26.5995 52.1409 26.3319 52.3303C26.0644 52.5173 25.8549 52.7789 25.7034 53.1151C25.5542 53.4489 25.4797 53.8359 25.4797 54.2763C25.4797 54.719 25.5531 55.1108 25.6998 55.4517C25.8466 55.7902 26.0526 56.0554 26.3177 56.2472C26.5853 56.4389 26.8978 56.5348 27.2552 56.5348C27.4967 56.5348 27.7169 56.4898 27.9157 56.3999C28.117 56.3075 28.2851 56.1773 28.42 56.0092C28.5573 55.8411 28.6497 55.6411 28.697 55.4091H29.3362C29.2889 55.7382 29.1717 56.0317 28.9846 56.2898C28.8 56.5455 28.5597 56.7467 28.2638 56.8935C27.9702 57.0402 27.634 57.1136 27.2552 57.1136ZM32.8962 57.1136C32.3872 57.1136 31.9469 56.9953 31.5752 56.7585C31.2035 56.5194 30.9159 56.1892 30.7123 55.7678C30.511 55.344 30.4104 54.8563 30.4104 54.3047C30.4104 53.7554 30.511 53.2678 30.7123 52.8416C30.9159 52.4131 31.1964 52.0781 31.5539 51.8366C31.9137 51.5928 32.3292 51.4709 32.8003 51.4709C33.0963 51.4709 33.3815 51.5253 33.6562 51.6342C33.9308 51.7408 34.177 51.9053 34.3948 52.1278C34.615 52.348 34.789 52.6262 34.9168 52.9624C35.0447 53.2962 35.1086 53.6915 35.1086 54.1484V54.4609H30.8472V53.9034H34.4623C34.4623 53.553 34.3912 53.2382 34.2492 52.9588C34.1095 52.6771 33.9142 52.4545 33.6633 52.2912C33.4147 52.1278 33.127 52.0462 32.8003 52.0462C32.4547 52.0462 32.1505 52.1385 31.8877 52.3232C31.6249 52.5078 31.4189 52.7517 31.2698 53.0547C31.123 53.3577 31.0484 53.6892 31.0461 54.049V54.3828C31.0461 54.8161 31.1206 55.1948 31.2698 55.5192C31.4213 55.8411 31.6356 56.0909 31.9126 56.2685C32.1895 56.446 32.5174 56.5348 32.8962 56.5348C33.1543 56.5348 33.3804 56.4946 33.5745 56.4141C33.771 56.3336 33.9355 56.2259 34.0681 56.0909C34.203 55.9536 34.3048 55.8033 34.3735 55.6399L34.9736 55.8352C34.8908 56.0649 34.7546 56.2768 34.5653 56.4709C34.3782 56.665 34.1439 56.8213 33.8621 56.9396C33.5828 57.0556 33.2608 57.1136 32.8962 57.1136ZM37.1336 53.5909V57H36.5015V51.5455H37.1159V52.4013H37.1727C37.3005 52.1219 37.4994 51.8982 37.7693 51.7301C38.0415 51.5597 38.3777 51.4744 38.7778 51.4744C39.1447 51.4744 39.4667 51.5514 39.7437 51.7053C40.0231 51.8568 40.2397 52.0805 40.3936 52.3764C40.5498 52.6723 40.6279 53.0357 40.6279 53.4666V57H39.9958V53.5057C39.9958 53.0582 39.8704 52.7043 39.6194 52.4439C39.3708 52.1835 39.037 52.0533 38.618 52.0533C38.3315 52.0533 38.077 52.1148 37.8545 52.2379C37.632 52.361 37.4556 52.5386 37.3254 52.7706C37.1975 53.0002 37.1336 53.2737 37.1336 53.5909ZM44.441 51.5455V52.0959H41.838V51.5455H44.441ZM42.6512 50.2386H43.2868V55.576C43.2868 55.8033 43.3259 55.982 43.404 56.1122C43.4822 56.2401 43.584 56.3312 43.7094 56.3857C43.8349 56.4377 43.9687 56.4638 44.1107 56.4638C44.1936 56.4638 44.2646 56.459 44.3238 56.4496C44.383 56.4377 44.435 56.4259 44.48 56.4141L44.615 56.9858C44.5534 57.0095 44.4777 57.0308 44.3877 57.0497C44.2977 57.071 44.1865 57.0817 44.0539 57.0817C43.8219 57.0817 43.5982 57.0308 43.3827 56.929C43.1697 56.8272 42.9945 56.6757 42.8572 56.4744C42.7198 56.2732 42.6512 56.0234 42.6512 55.7251V50.2386ZM45.8836 57V51.5455H46.5193V57H45.8836ZM46.2068 50.608C46.0766 50.608 45.9653 50.5642 45.873 50.4766C45.7806 50.3866 45.7345 50.2789 45.7345 50.1534C45.7345 50.0279 45.7806 49.9214 45.873 49.8338C45.9653 49.7438 46.0766 49.6989 46.2068 49.6989C46.337 49.6989 46.4482 49.7438 46.5406 49.8338C46.6329 49.9214 46.6791 50.0279 46.6791 50.1534C46.6791 50.2789 46.6329 50.3866 46.5406 50.4766C46.4482 50.5642 46.337 50.608 46.2068 50.608ZM52.4133 51.5455L50.4211 57H49.7464L47.7542 51.5455H48.4395L50.0589 56.1655H50.1086L51.7279 51.5455H52.4133ZM55.6599 57.1136C55.1509 57.1136 54.7106 56.9953 54.3389 56.7585C53.9672 56.5194 53.6795 56.1892 53.4759 55.7678C53.2747 55.344 53.1741 54.8563 53.1741 54.3047C53.1741 53.7554 53.2747 53.2678 53.4759 52.8416C53.6795 52.4131 53.9601 52.0781 54.3176 51.8366C54.6774 51.5928 55.0929 51.4709 55.564 51.4709C55.8599 51.4709 56.1452 51.5253 56.4198 51.6342C56.6945 51.7408 56.9407 51.9053 57.1585 52.1278C57.3786 52.348 57.5526 52.6262 57.6805 52.9624C57.8083 53.2962 57.8722 53.6915 57.8722 54.1484V54.4609H53.6109V53.9034H57.2259C57.2259 53.553 57.1549 53.2382 57.0129 52.9588C56.8732 52.6771 56.6779 52.4545 56.4269 52.2912C56.1784 52.1278 55.8907 52.0462 55.564 52.0462C55.2184 52.0462 54.9142 52.1385 54.6514 52.3232C54.3886 52.5078 54.1826 52.7517 54.0335 53.0547C53.8867 53.3577 53.8121 53.6892 53.8097 54.049V54.3828C53.8097 54.8161 53.8843 55.1948 54.0335 55.5192C54.185 55.8411 54.3992 56.0909 54.6762 56.2685C54.9532 56.446 55.2811 56.5348 55.6599 56.5348C55.9179 56.5348 56.144 56.4946 56.3382 56.4141C56.5347 56.3336 56.6992 56.2259 56.8318 56.0909C56.9667 55.9536 57.0685 55.8033 57.1372 55.6399L57.7373 55.8352C57.6544 56.0649 57.5183 56.2768 57.3289 56.4709C57.1419 56.665 56.9075 56.8213 56.6258 56.9396C56.3464 57.0556 56.0245 57.1136 55.6599 57.1136ZM62.93 52.7422L62.3511 52.9055C62.2943 52.7422 62.2138 52.5942 62.1096 52.4616C62.0055 52.3291 61.8693 52.2237 61.7013 52.1456C61.5355 52.0675 61.3296 52.0284 61.0834 52.0284C60.714 52.0284 60.411 52.116 60.1743 52.2912C59.9375 52.4664 59.8192 52.6925 59.8192 52.9695C59.8192 53.2038 59.8997 53.3944 60.0606 53.5412C60.224 53.6856 60.4749 53.8004 60.8135 53.8857L61.6373 54.0881C62.0943 54.1993 62.4363 54.3757 62.6636 54.6172C62.8933 54.8587 63.0081 55.1617 63.0081 55.5263C63.0081 55.834 62.9229 56.1075 62.7524 56.3466C62.5819 56.5857 62.344 56.7739 62.0386 56.9112C61.7356 57.0462 61.384 57.1136 60.9839 57.1136C60.4513 57.1136 60.0121 56.9941 59.6665 56.755C59.3208 56.5135 59.0995 56.1655 59.0024 55.7109L59.6096 55.5618C59.6878 55.8861 59.8405 56.1312 60.0677 56.2969C60.2974 56.4626 60.5992 56.5455 60.9733 56.5455C61.3923 56.5455 61.7273 56.4519 61.9782 56.2649C62.2292 56.0755 62.3547 55.8388 62.3547 55.5547C62.3547 55.3345 62.2813 55.1499 62.1345 55.0007C61.9877 54.8492 61.7652 54.7379 61.4669 54.6669L60.5756 54.4538C60.1021 54.3402 59.7517 54.1603 59.5244 53.9141C59.2971 53.6679 59.1835 53.3625 59.1835 52.9979C59.1835 52.6972 59.2652 52.4332 59.4285 52.206C59.5919 51.9763 59.8168 51.7964 60.1032 51.6662C60.3897 51.536 60.7164 51.4709 61.0834 51.4709C61.5829 51.4709 61.9818 51.5845 62.2801 51.8118C62.5808 52.0367 62.7974 52.3468 62.93 52.7422ZM69.3531 51.5455V52.0959H66.7501V51.5455H69.3531ZM67.5633 50.2386H68.199V55.576C68.199 55.8033 68.238 55.982 68.3161 56.1122C68.3943 56.2401 68.4961 56.3312 68.6215 56.3857C68.747 56.4377 68.8808 56.4638 69.0228 56.4638C69.1057 56.4638 69.1767 56.459 69.2359 56.4496C69.2951 56.4377 69.3472 56.4259 69.3921 56.4141L69.5271 56.9858C69.4655 57.0095 69.3898 57.0308 69.2998 57.0497C69.2098 57.071 69.0986 57.0817 68.966 57.0817C68.734 57.0817 68.5103 57.0308 68.2948 56.929C68.0818 56.8272 67.9066 56.6757 67.7693 56.4744C67.632 56.2732 67.5633 56.0234 67.5633 55.7251V50.2386ZM71.5379 53.5909V57H70.9058V49.7273H71.5379V52.4013H71.5947C71.7226 52.1196 71.9202 51.8946 72.1878 51.7266C72.4577 51.5585 72.7986 51.4744 73.2105 51.4744C73.5798 51.4744 73.9041 51.5502 74.1835 51.7017C74.4629 51.8532 74.6807 52.0769 74.8369 52.3729C74.9932 52.6688 75.0713 53.0334 75.0713 53.4666V57H74.4356V53.5057C74.4356 53.0559 74.3102 52.7019 74.0592 52.4439C73.8106 52.1835 73.4745 52.0533 73.0507 52.0533C72.7595 52.0533 72.5003 52.1148 72.273 52.2379C72.0457 52.361 71.8658 52.5386 71.7332 52.7706C71.603 53.0002 71.5379 53.2737 71.5379 53.5909ZM76.7359 57V51.5455H77.3502V52.3835H77.3964C77.5053 52.1089 77.6947 51.8875 77.9646 51.7195C78.2368 51.549 78.5446 51.4638 78.8879 51.4638C78.94 51.4638 78.998 51.465 79.0619 51.4673C79.1258 51.4697 79.1791 51.4721 79.2217 51.4744V52.1172C79.1933 52.1125 79.1436 52.1054 79.0725 52.0959C79.0015 52.0864 78.9246 52.0817 78.8417 52.0817C78.5576 52.0817 78.3043 52.142 78.0818 52.2628C77.8616 52.3812 77.6876 52.5457 77.5597 52.7564C77.4319 52.9671 77.368 53.2074 77.368 53.4773V57H76.7359ZM82.2544 57.1136C81.7832 57.1136 81.3666 56.9941 81.0044 56.755C80.6445 56.5159 80.3628 56.1856 80.1592 55.7642C79.9556 55.3404 79.8538 54.8516 79.8538 54.2976C79.8538 53.7389 79.9556 53.2476 80.1592 52.8239C80.3628 52.3977 80.6445 52.0663 81.0044 51.8295C81.3666 51.5904 81.7832 51.4709 82.2544 51.4709C82.7255 51.4709 83.141 51.5904 83.5008 51.8295C83.8606 52.0687 84.1424 52.4001 84.346 52.8239C84.5519 53.2476 84.6549 53.7389 84.6549 54.2976C84.6549 54.8516 84.5531 55.3404 84.3495 55.7642C84.1459 56.1856 83.863 56.5159 83.5008 56.755C83.141 56.9941 82.7255 57.1136 82.2544 57.1136ZM82.2544 56.5348C82.6331 56.5348 82.9539 56.433 83.2167 56.2294C83.4795 56.0258 83.6784 55.7547 83.8133 55.4162C83.9506 55.0777 84.0193 54.7048 84.0193 54.2976C84.0193 53.8904 83.9506 53.5163 83.8133 53.1754C83.6784 52.8345 83.4795 52.5611 83.2167 52.3551C82.9539 52.1491 82.6331 52.0462 82.2544 52.0462C81.8779 52.0462 81.5571 52.1491 81.292 52.3551C81.0292 52.5611 80.8292 52.8345 80.6919 53.1754C80.5569 53.5163 80.4894 53.8904 80.4894 54.2976C80.4894 54.7048 80.5569 55.0777 80.6919 55.4162C80.8292 55.7547 81.0292 56.0258 81.292 56.2294C81.5548 56.433 81.8756 56.5348 82.2544 56.5348ZM89.5084 54.9155V51.5455H90.1405V57H89.5084V56.0945H89.4587C89.3309 56.3738 89.1285 56.607 88.8515 56.794C88.5745 56.9787 88.2359 57.071 87.8358 57.071C87.4878 57.071 87.1789 56.9953 86.909 56.8438C86.6391 56.6899 86.4272 56.465 86.2733 56.169C86.1195 55.8731 86.0425 55.5097 86.0425 55.0788V51.5455H86.6746V55.0398C86.6746 55.4659 86.8001 55.8092 87.051 56.0696C87.302 56.3277 87.624 56.4567 88.017 56.4567C88.2632 56.4567 88.4999 56.3975 88.7272 56.2791C88.9545 56.1607 89.1415 55.9879 89.2883 55.7607C89.435 55.531 89.5084 55.2493 89.5084 54.9155ZM93.895 59.1591C93.5233 59.1591 93.1978 59.1106 92.9184 59.0135C92.6391 58.9188 92.4035 58.7886 92.2117 58.6229C92.02 58.4571 91.8708 58.2713 91.7643 58.0653L92.2828 57.7244C92.3609 57.8617 92.4651 57.9967 92.5953 58.1293C92.7278 58.2618 92.8995 58.3719 93.1102 58.4595C93.3232 58.5471 93.5848 58.5909 93.895 58.5909C94.3779 58.5909 94.7674 58.4702 95.0633 58.2287C95.3616 57.9872 95.5107 57.612 95.5107 57.103V55.8743H95.4539C95.3805 56.04 95.2752 56.2057 95.1379 56.3714C95.0006 56.5348 94.8206 56.6709 94.5981 56.7798C94.3779 56.8887 94.1045 56.9432 93.7778 56.9432C93.3422 56.9432 92.9551 56.8355 92.6166 56.62C92.2804 56.4046 92.0152 56.0968 91.8211 55.6967C91.6294 55.2943 91.5335 54.8149 91.5335 54.2585C91.5335 53.7069 91.627 53.2216 91.814 52.8026C92.0034 52.3835 92.2674 52.0568 92.6059 51.8224C92.9445 51.5881 93.3386 51.4709 93.7884 51.4709C94.1222 51.4709 94.3992 51.5301 94.6194 51.6484C94.8396 51.7644 95.016 51.9089 95.1485 52.0817C95.2835 52.2545 95.3888 52.4226 95.4646 52.5859H95.5285V51.5455H96.1464V57.142C96.1464 57.6037 96.0481 57.9837 95.8517 58.282C95.6552 58.5803 95.3876 58.8004 95.0491 58.9425C94.7106 59.0869 94.3258 59.1591 93.895 59.1591ZM93.8524 56.3643C94.2027 56.3643 94.5022 56.2803 94.7508 56.1122C94.9994 55.9418 95.19 55.6979 95.3225 55.3807C95.4551 55.0634 95.5214 54.6858 95.5214 54.2479C95.5214 53.8217 95.4563 53.4441 95.3261 53.1151C95.1959 52.7836 95.0065 52.5232 94.7579 52.3338C94.5117 52.142 94.2098 52.0462 93.8524 52.0462C93.4878 52.0462 93.18 52.1444 92.9291 52.3409C92.6781 52.5374 92.4887 52.8026 92.3609 53.1364C92.233 53.4678 92.1691 53.8383 92.1691 54.2479C92.1691 54.6645 92.2342 55.0327 92.3644 55.3523C92.4946 55.6695 92.6852 55.9181 92.9362 56.098C93.1871 56.2756 93.4925 56.3643 93.8524 56.3643ZM98.452 53.5909V57H97.8199V49.7273H98.452V52.4013H98.5088C98.6366 52.1196 98.8343 51.8946 99.1018 51.7266C99.3717 51.5585 99.7126 51.4744 100.125 51.4744C100.494 51.4744 100.818 51.5502 101.098 51.7017C101.377 51.8532 101.595 52.0769 101.751 52.3729C101.907 52.6688 101.985 53.0334 101.985 53.4666V57H101.35V53.5057C101.35 53.0559 101.224 52.7019 100.973 52.4439C100.725 52.1835 100.389 52.0533 99.9648 52.0533C99.6736 52.0533 99.4143 52.1148 99.1871 52.2379C98.9598 52.361 98.7799 52.5386 98.6473 52.7706C98.5171 53.0002 98.452 53.2737 98.452 53.5909ZM28.8484 69.1136C28.3394 69.1136 27.899 68.9953 27.5273 68.7585C27.1557 68.5194 26.868 68.1892 26.6644 67.7678C26.4632 67.344 26.3626 66.8563 26.3626 66.3047C26.3626 65.7554 26.4632 65.2678 26.6644 64.8416C26.868 64.4131 27.1486 64.0781 27.506 63.8366C27.8659 63.5928 28.2814 63.4709 28.7525 63.4709C29.0484 63.4709 29.3337 63.5253 29.6083 63.6342C29.8829 63.7408 30.1291 63.9053 30.3469 64.1278C30.5671 64.348 30.7411 64.6262 30.869 64.9624C30.9968 65.2962 31.0607 65.6915 31.0607 66.1484V66.4609H26.7994V65.9034H30.4144C30.4144 65.553 30.3434 65.2382 30.2013 64.9588C30.0617 64.6771 29.8664 64.4545 29.6154 64.2912C29.3668 64.1278 29.0792 64.0462 28.7525 64.0462C28.4068 64.0462 28.1026 64.1385 27.8398 64.3232C27.5771 64.5078 27.3711 64.7517 27.2219 65.0547C27.0752 65.3577 27.0006 65.6892 26.9982 66.049V66.3828C26.9982 66.8161 27.0728 67.1948 27.2219 67.5192C27.3735 67.8411 27.5877 68.0909 27.8647 68.2685C28.1417 68.446 28.4696 68.5348 28.8484 68.5348C29.1064 68.5348 29.3325 68.4946 29.5266 68.4141C29.7231 68.3336 29.8877 68.2259 30.0202 68.0909C30.1552 67.9536 30.257 67.8033 30.3256 67.6399L30.9258 67.8352C30.8429 68.0649 30.7068 68.2768 30.5174 68.4709C30.3304 68.665 30.096 68.8213 29.8143 68.9396C29.5349 69.0556 29.2129 69.1136 28.8484 69.1136ZM36.5099 63.5455L34.5178 69H33.843L31.8509 63.5455H32.5362L34.1555 68.1655H34.2053L35.8246 63.5455H36.5099ZM39.104 69.1243C38.775 69.1243 38.4743 69.0604 38.2021 68.9325C37.9298 68.8023 37.7132 68.6153 37.5522 68.3714C37.3912 68.1252 37.3107 67.8269 37.3107 67.4766C37.3107 67.2067 37.3616 66.9794 37.4634 66.7947C37.5652 66.6101 37.7096 66.4586 37.8967 66.3402C38.0837 66.2218 38.305 66.1283 38.5607 66.0597C38.8164 65.991 39.0981 65.9377 39.4059 65.8999C39.7113 65.862 39.9693 65.8288 40.18 65.8004C40.3931 65.772 40.5553 65.727 40.6665 65.6655C40.7778 65.6039 40.8335 65.5045 40.8335 65.3672V65.2393C40.8335 64.8677 40.7222 64.5753 40.4996 64.3622C40.2795 64.1468 39.9622 64.0391 39.5479 64.0391C39.1549 64.0391 38.8342 64.1255 38.5856 64.2983C38.3394 64.4711 38.1665 64.6747 38.0671 64.9091L37.467 64.6925C37.5901 64.3942 37.7605 64.1562 37.9783 63.9787C38.1961 63.7988 38.44 63.6697 38.7099 63.5916C38.9798 63.5111 39.2532 63.4709 39.5302 63.4709C39.7385 63.4709 39.9551 63.4981 40.18 63.5526C40.4073 63.607 40.618 63.7017 40.8121 63.8366C41.0063 63.9692 41.1637 64.1551 41.2844 64.3942C41.4052 64.6309 41.4656 64.9316 41.4656 65.2962V69H40.8335V68.1371H40.7944C40.7186 68.2981 40.6062 68.4543 40.457 68.6058C40.3079 68.7573 40.1209 68.8816 39.896 68.9787C39.671 69.0758 39.4071 69.1243 39.104 69.1243ZM39.1893 68.5455C39.5254 68.5455 39.8166 68.4709 40.0629 68.3217C40.3091 68.1726 40.4985 67.9749 40.631 67.7287C40.766 67.4801 40.8335 67.2067 40.8335 66.9084V66.12C40.7861 66.165 40.7068 66.2053 40.5955 66.2408C40.4866 66.2763 40.36 66.3082 40.2156 66.3366C40.0735 66.3627 39.9315 66.3852 39.7894 66.4041C39.6474 66.4231 39.5195 66.4396 39.4059 66.4538C39.0981 66.4917 38.8353 66.5509 38.6175 66.6314C38.3997 66.7119 38.2328 66.8232 38.1168 66.9652C38.0008 67.1049 37.9428 67.2848 37.9428 67.505C37.9428 67.8364 38.0612 68.0933 38.2979 68.2756C38.5347 68.4555 38.8318 68.5455 39.1893 68.5455ZM43.7791 61.7273V69H43.147V61.7273H43.7791ZM48.9176 66.9155V63.5455H49.5497V69H48.9176V68.0945H48.8679C48.7401 68.3738 48.5376 68.607 48.2607 68.794C47.9837 68.9787 47.6451 69.071 47.245 69.071C46.897 69.071 46.5881 68.9953 46.3182 68.8438C46.0483 68.6899 45.8364 68.465 45.6825 68.169C45.5286 67.8731 45.4517 67.5097 45.4517 67.0788V63.5455H46.0838V67.0398C46.0838 67.4659 46.2093 67.8092 46.4602 68.0696C46.7112 68.3277 47.0331 68.4567 47.4261 68.4567C47.6723 68.4567 47.9091 68.3975 48.1364 68.2791C48.3636 68.1607 48.5507 67.9879 48.6974 67.7607C48.8442 67.531 48.9176 67.2493 48.9176 66.9155ZM52.7466 69.1243C52.4176 69.1243 52.1169 69.0604 51.8446 68.9325C51.5724 68.8023 51.3558 68.6153 51.1948 68.3714C51.0338 68.1252 50.9533 67.8269 50.9533 67.4766C50.9533 67.2067 51.0042 66.9794 51.106 66.7947C51.2078 66.6101 51.3522 66.4586 51.5392 66.3402C51.7263 66.2218 51.9476 66.1283 52.2033 66.0597C52.459 65.991 52.7407 65.9377 53.0485 65.8999C53.3539 65.862 53.6119 65.8288 53.8226 65.8004C54.0357 65.772 54.1979 65.727 54.3091 65.6655C54.4204 65.6039 54.476 65.5045 54.476 65.3672V65.2393C54.476 64.8677 54.3648 64.5753 54.1422 64.3622C53.9221 64.1468 53.6048 64.0391 53.1905 64.0391C52.7975 64.0391 52.4767 64.1255 52.2282 64.2983C51.9819 64.4711 51.8091 64.6747 51.7097 64.9091L51.1096 64.6925C51.2327 64.3942 51.4031 64.1562 51.6209 63.9787C51.8387 63.7988 52.0826 63.6697 52.3525 63.5916C52.6223 63.5111 52.8958 63.4709 53.1728 63.4709C53.3811 63.4709 53.5977 63.4981 53.8226 63.5526C54.0499 63.607 54.2606 63.7017 54.4547 63.8366C54.6489 63.9692 54.8063 64.1551 54.927 64.3942C55.0478 64.6309 55.1081 64.9316 55.1081 65.2962V69H54.476V68.1371H54.437C54.3612 68.2981 54.2488 68.4543 54.0996 68.6058C53.9505 68.7573 53.7634 68.8816 53.5385 68.9787C53.3136 69.0758 53.0497 69.1243 52.7466 69.1243ZM52.8319 68.5455C53.168 68.5455 53.4592 68.4709 53.7054 68.3217C53.9516 68.1726 54.141 67.9749 54.2736 67.7287C54.4086 67.4801 54.476 67.2067 54.476 66.9084V66.12C54.4287 66.165 54.3494 66.2053 54.2381 66.2408C54.1292 66.2763 54.0025 66.3082 53.8581 66.3366C53.7161 66.3627 53.574 66.3852 53.432 66.4041C53.29 66.4231 53.1621 66.4396 53.0485 66.4538C52.7407 66.4917 52.4779 66.5509 52.2601 66.6314C52.0423 66.7119 51.8754 66.8232 51.7594 66.9652C51.6434 67.1049 51.5854 67.2848 51.5854 67.505C51.5854 67.8364 51.7038 68.0933 51.9405 68.2756C52.1773 68.4555 52.4744 68.5455 52.8319 68.5455ZM58.938 63.5455V64.0959H56.335V63.5455H58.938ZM57.1483 62.2386H57.7839V67.576C57.7839 67.8033 57.823 67.982 57.9011 68.1122C57.9792 68.2401 58.081 68.3312 58.2065 68.3857C58.332 68.4377 58.4657 68.4638 58.6078 68.4638C58.6906 68.4638 58.7617 68.459 58.8208 68.4496C58.88 68.4377 58.9321 68.4259 58.9771 68.4141L59.112 68.9858C59.0505 69.0095 58.9747 69.0308 58.8848 69.0497C58.7948 69.071 58.6835 69.0817 58.551 69.0817C58.319 69.0817 58.0952 69.0308 57.8798 68.929C57.6667 68.8272 57.4915 68.6757 57.3542 68.4744C57.2169 68.2732 57.1483 68.0234 57.1483 67.7251V62.2386ZM60.3807 69V63.5455H61.0163V69H60.3807ZM60.7038 62.608C60.5736 62.608 60.4624 62.5642 60.37 62.4766C60.2777 62.3866 60.2315 62.2789 60.2315 62.1534C60.2315 62.0279 60.2777 61.9214 60.37 61.8338C60.4624 61.7438 60.5736 61.6989 60.7038 61.6989C60.834 61.6989 60.9453 61.7438 61.0376 61.8338C61.13 61.9214 61.1761 62.0279 61.1761 62.1534C61.1761 62.2789 61.13 62.3866 61.0376 62.4766C60.9453 62.5642 60.834 62.608 60.7038 62.608ZM64.8081 69.1136C64.3369 69.1136 63.9203 68.9941 63.5581 68.755C63.1982 68.5159 62.9165 68.1856 62.7129 67.7642C62.5093 67.3404 62.4075 66.8516 62.4075 66.2976C62.4075 65.7389 62.5093 65.2476 62.7129 64.8239C62.9165 64.3977 63.1982 64.0663 63.5581 63.8295C63.9203 63.5904 64.3369 63.4709 64.8081 63.4709C65.2792 63.4709 65.6947 63.5904 66.0545 63.8295C66.4144 64.0687 66.6961 64.4001 66.8997 64.8239C67.1056 65.2476 67.2086 65.7389 67.2086 66.2976C67.2086 66.8516 67.1068 67.3404 66.9032 67.7642C66.6996 68.1856 66.4167 68.5159 66.0545 68.755C65.6947 68.9941 65.2792 69.1136 64.8081 69.1136ZM64.8081 68.5348C65.1868 68.5348 65.5076 68.433 65.7704 68.2294C66.0332 68.0258 66.2321 67.7547 66.367 67.4162C66.5043 67.0777 66.573 66.7048 66.573 66.2976C66.573 65.8904 66.5043 65.5163 66.367 65.1754C66.2321 64.8345 66.0332 64.5611 65.7704 64.3551C65.5076 64.1491 65.1868 64.0462 64.8081 64.0462C64.4316 64.0462 64.1109 64.1491 63.8457 64.3551C63.5829 64.5611 63.3829 64.8345 63.2456 65.1754C63.1106 65.5163 63.0431 65.8904 63.0431 66.2976C63.0431 66.7048 63.1106 67.0777 63.2456 67.4162C63.3829 67.7547 63.5829 68.0258 63.8457 68.2294C64.1085 68.433 64.4293 68.5348 64.8081 68.5348ZM69.2283 65.5909V69H68.5962V63.5455H69.2106V64.4013H69.2674C69.3952 64.1219 69.5941 63.8982 69.864 63.7301C70.1362 63.5597 70.4724 63.4744 70.8725 63.4744C71.2395 63.4744 71.5614 63.5514 71.8384 63.7053C72.1178 63.8568 72.3344 64.0805 72.4883 64.3764C72.6445 64.6723 72.7227 65.0357 72.7227 65.4666V69H72.0906V65.5057C72.0906 65.0582 71.9651 64.7043 71.7141 64.4439C71.4656 64.1835 71.1317 64.0533 70.7127 64.0533C70.4263 64.0533 70.1718 64.1148 69.9492 64.2379C69.7267 64.361 69.5503 64.5386 69.4201 64.7706C69.2923 65.0002 69.2283 65.2737 69.2283 65.5909ZM78.052 64.7422L77.4732 64.9055C77.4164 64.7422 77.3359 64.5942 77.2317 64.4616C77.1275 64.3291 76.9914 64.2237 76.8233 64.1456C76.6576 64.0675 76.4516 64.0284 76.2054 64.0284C75.8361 64.0284 75.5331 64.116 75.2963 64.2912C75.0596 64.4664 74.9412 64.6925 74.9412 64.9695C74.9412 65.2038 75.0217 65.3944 75.1827 65.5412C75.3461 65.6856 75.597 65.8004 75.9355 65.8857L76.7594 66.0881C77.2163 66.1993 77.5584 66.3757 77.7857 66.6172C78.0153 66.8587 78.1301 67.1617 78.1301 67.5263C78.1301 67.834 78.0449 68.1075 77.8745 68.3466C77.704 68.5857 77.4661 68.7739 77.1607 68.9112C76.8577 69.0462 76.5061 69.1136 76.106 69.1136C75.5733 69.1136 75.1342 68.9941 74.7885 68.755C74.4429 68.5135 74.2215 68.1655 74.1245 67.7109L74.7317 67.5618C74.8098 67.8861 74.9625 68.1312 75.1898 68.2969C75.4194 68.4626 75.7213 68.5455 76.0953 68.5455C76.5144 68.5455 76.8494 68.4519 77.1003 68.2649C77.3513 68.0755 77.4767 67.8388 77.4767 67.5547C77.4767 67.3345 77.4034 67.1499 77.2566 67.0007C77.1098 66.8492 76.8873 66.7379 76.589 66.6669L75.6976 66.4538C75.2241 66.3402 74.8738 66.1603 74.6465 65.9141C74.4192 65.6679 74.3056 65.3625 74.3056 64.9979C74.3056 64.6972 74.3873 64.4332 74.5506 64.206C74.714 63.9763 74.9389 63.7964 75.2253 63.6662C75.5118 63.536 75.8385 63.4709 76.2054 63.4709C76.705 63.4709 77.1039 63.5845 77.4022 63.8118C77.7028 64.0367 77.9194 64.3468 78.052 64.7422ZM84.4467 69.1136C83.9756 69.1136 83.5589 68.9941 83.1967 68.755C82.8369 68.5159 82.5552 68.1856 82.3516 67.7642C82.148 67.3404 82.0462 66.8516 82.0462 66.2976C82.0462 65.7389 82.148 65.2476 82.3516 64.8239C82.5552 64.3977 82.8369 64.0663 83.1967 63.8295C83.5589 63.5904 83.9756 63.4709 84.4467 63.4709C84.9179 63.4709 85.3333 63.5904 85.6932 63.8295C86.053 64.0687 86.3348 64.4001 86.5384 64.8239C86.7443 65.2476 86.8473 65.7389 86.8473 66.2976C86.8473 66.8516 86.7455 67.3404 86.5419 67.7642C86.3383 68.1856 86.0554 68.5159 85.6932 68.755C85.3333 68.9941 84.9179 69.1136 84.4467 69.1136ZM84.4467 68.5348C84.8255 68.5348 85.1463 68.433 85.4091 68.2294C85.6719 68.0258 85.8707 67.7547 86.0057 67.4162C86.143 67.0777 86.2116 66.7048 86.2116 66.2976C86.2116 65.8904 86.143 65.5163 86.0057 65.1754C85.8707 64.8345 85.6719 64.5611 85.4091 64.3551C85.1463 64.1491 84.8255 64.0462 84.4467 64.0462C84.0703 64.0462 83.7495 64.1491 83.4844 64.3551C83.2216 64.5611 83.0215 64.8345 82.8842 65.1754C82.7493 65.5163 82.6818 65.8904 82.6818 66.2976C82.6818 66.7048 82.7493 67.0777 82.8842 67.4162C83.0215 67.7547 83.2216 68.0258 83.4844 68.2294C83.7472 68.433 84.0679 68.5348 84.4467 68.5348ZM88.867 65.5909V69H88.2349V63.5455H88.8493V64.4013H88.9061C89.0339 64.1219 89.2328 63.8982 89.5027 63.7301C89.7749 63.5597 90.1111 63.4744 90.5112 63.4744C90.8781 63.4744 91.2001 63.5514 91.4771 63.7053C91.7565 63.8568 91.9731 64.0805 92.127 64.3764C92.2832 64.6723 92.3613 65.0357 92.3613 65.4666V69H91.7292V65.5057C91.7292 65.0582 91.6038 64.7043 91.3528 64.4439C91.1042 64.1835 90.7704 64.0533 90.3514 64.0533C90.0649 64.0533 89.8104 64.1148 89.5879 64.2379C89.3654 64.361 89.189 64.5386 89.0588 64.7706C88.9309 65.0002 88.867 65.2737 88.867 65.5909ZM40.92 81V73.7273H41.5841V80.4034H45.05V81H40.92ZM46.4207 81V75.5455H47.0564V81H46.4207ZM46.7439 74.608C46.6137 74.608 46.5024 74.5642 46.4101 74.4766C46.3177 74.3866 46.2716 74.2789 46.2716 74.1534C46.2716 74.0279 46.3177 73.9214 46.4101 73.8338C46.5024 73.7438 46.6137 73.6989 46.7439 73.6989C46.8741 73.6989 46.9854 73.7438 47.0777 73.8338C47.17 73.9214 47.2162 74.0279 47.2162 74.1534C47.2162 74.2789 47.17 74.3866 47.0777 74.4766C46.9854 74.5642 46.8741 74.608 46.7439 74.608ZM49.3602 77.5909V81H48.7281V75.5455H49.3424V76.4013H49.3992C49.5271 76.1219 49.7259 75.8982 49.9958 75.7301C50.2681 75.5597 50.6043 75.4744 51.0044 75.4744C51.3713 75.4744 51.6933 75.5514 51.9703 75.7053C52.2496 75.8568 52.4662 76.0805 52.6201 76.3764C52.7764 76.6723 52.8545 77.0357 52.8545 77.4666V81H52.2224V77.5057C52.2224 77.0582 52.0969 76.7043 51.846 76.4439C51.5974 76.1835 51.2636 76.0533 50.8445 76.0533C50.5581 76.0533 50.3036 76.1148 50.0811 76.2379C49.8585 76.361 49.6821 76.5386 49.5519 76.7706C49.4241 77.0002 49.3602 77.2737 49.3602 77.5909ZM55.0944 78.9403L55.0873 78.1129H55.2293L57.7861 75.5455H58.5851L56.0603 78.0739L56.0035 78.0845L55.0944 78.9403ZM54.5191 81V73.7273H55.1512V81H54.5191ZM57.9175 81L55.7016 78.1982L56.1562 77.7614L58.7272 81H57.9175ZM61.7536 81.1136C61.2446 81.1136 60.8043 80.9953 60.4326 80.7585C60.0609 80.5194 59.7733 80.1892 59.5697 79.7678C59.3685 79.344 59.2678 78.8563 59.2678 78.3047C59.2678 77.7554 59.3685 77.2678 59.5697 76.8416C59.7733 76.4131 60.0538 76.0781 60.4113 75.8366C60.7712 75.5928 61.1866 75.4709 61.6578 75.4709C61.9537 75.4709 62.239 75.5253 62.5136 75.6342C62.7882 75.7408 63.0344 75.9053 63.2522 76.1278C63.4724 76.348 63.6464 76.6262 63.7742 76.9624C63.9021 77.2962 63.966 77.6915 63.966 78.1484V78.4609H59.7046V77.9034H63.3197C63.3197 77.553 63.2487 77.2382 63.1066 76.9588C62.9669 76.6771 62.7716 76.4545 62.5207 76.2912C62.2721 76.1278 61.9845 76.0462 61.6578 76.0462C61.3121 76.0462 61.0079 76.1385 60.7451 76.3232C60.4823 76.5078 60.2764 76.7517 60.1272 77.0547C59.9804 77.3577 59.9059 77.6892 59.9035 78.049V78.3828C59.9035 78.8161 59.9781 79.1948 60.1272 79.5192C60.2787 79.8411 60.493 80.0909 60.77 80.2685C61.047 80.446 61.3749 80.5348 61.7536 80.5348C62.0117 80.5348 62.2378 80.4946 62.4319 80.4141C62.6284 80.3336 62.7929 80.2259 62.9255 80.0909C63.0605 79.9536 63.1623 79.8033 63.2309 79.6399L63.8311 79.8352C63.7482 80.0649 63.6121 80.2768 63.4227 80.4709C63.2356 80.665 63.0013 80.8213 62.7195 80.9396C62.4402 81.0556 62.1182 81.1136 61.7536 81.1136ZM67.3227 81.1136C66.8753 81.1136 66.4835 80.9953 66.1473 80.7585C65.8111 80.5218 65.5483 80.1915 65.3589 79.7678C65.1719 79.344 65.0784 78.8504 65.0784 78.2869C65.0784 77.7259 65.1719 77.2346 65.3589 76.8132C65.5483 76.3894 65.8123 76.0604 66.1508 75.826C66.4894 75.5893 66.8836 75.4709 67.3334 75.4709C67.6648 75.4709 67.9406 75.5301 68.1608 75.6484C68.3809 75.7644 68.5573 75.9089 68.6899 76.0817C68.8225 76.2545 68.9255 76.4226 68.9988 76.5859H69.0557V73.7273H69.6913V81H69.0734V79.9879H68.9988C68.9255 80.1536 68.8213 80.3241 68.6863 80.4993C68.5514 80.6721 68.3727 80.8177 68.1501 80.9361C67.93 81.0545 67.6541 81.1136 67.3227 81.1136ZM67.3973 80.5348C67.75 80.5348 68.0507 80.4389 68.2993 80.2472C68.5479 80.053 68.7372 79.7867 68.8675 79.4482C69 79.1072 69.0663 78.7166 69.0663 78.2763C69.0663 77.8407 69.0012 77.456 68.871 77.1222C68.7408 76.786 68.5514 76.5232 68.3028 76.3338C68.0542 76.142 67.7524 76.0462 67.3973 76.0462C67.0327 76.0462 66.7249 76.1456 66.474 76.3445C66.2254 76.541 66.036 76.8073 65.9058 77.1435C65.778 77.4796 65.714 77.8572 65.714 78.2763C65.714 78.7 65.7791 79.0824 65.9094 79.4233C66.0396 79.7642 66.229 80.0353 66.4775 80.2365C66.7285 80.4354 67.0351 80.5348 67.3973 80.5348ZM72.2872 73.7273V81H71.6231V73.7273H72.2872ZM74.7215 77.5909V81H74.0894V75.5455H74.7037V76.4013H74.7606C74.8884 76.1219 75.0873 75.8982 75.3572 75.7301C75.6294 75.5597 75.9656 75.4744 76.3657 75.4744C76.7326 75.4744 77.0546 75.5514 77.3316 75.7053C77.6109 75.8568 77.8276 76.0805 77.9814 76.3764C78.1377 76.6723 78.2158 77.0357 78.2158 77.4666V81H77.5837V77.5057C77.5837 77.0582 77.4582 76.7043 77.2073 76.4439C76.9587 76.1835 76.6249 76.0533 76.2059 76.0533C75.9194 76.0533 75.6649 76.1148 75.4424 76.2379C75.2198 76.361 75.0435 76.5386 74.9133 76.7706C74.7854 77.0002 74.7215 77.2737 74.7215 77.5909Z" fill="#333333"/>
</g>
<defs>
<filter id="filter0_d_893_410" x="0" y="0" width="118" height="118" filterUnits="userSpaceOnUse" color-interpolation-filters="sRGB">
<feFlood flood-opacity="0" result="BackgroundImageFix"/>
<feColorMatrix in="SourceAlpha" type="matrix" values="0 0 0 0 0 0 0 0 0 0 0 0 0 0 0 0 0 0 127 0" result="hardAlpha"/>
<feOffset dy="4"/>
<feGaussianBlur stdDeviation="2"/>
<feComposite in2="hardAlpha" operator="out"/>
<feColorMatrix type="matrix" values="0 0 0 0 0 0 0 0 0 0 0 0 0 0 0 0 0 0 0.25 0"/>
<feBlend mode="normal" in2="BackgroundImageFix" result="effect1_dropShadow_893_410"/>
<feBlend mode="normal" in="SourceGraphic" in2="effect1_dropShadow_893_410" result="shape"/>
</filter>
</defs>
</svg>
