<svg width="110" height="110" viewBox="0 0 110 110" fill="none" xmlns="http://www.w3.org/2000/svg">
<rect width="110" height="110" fill="#F8E8B2"/>
<path d="M13.2918 37.5909V41H12.6597V33.7273H13.2918V36.4013H13.3486C13.4765 36.1196 13.6742 35.8946 13.9417 35.7266C14.2116 35.5585 14.5525 35.4744 14.9644 35.4744C15.3337 35.4744 15.6581 35.5502 15.9374 35.7017C16.2168 35.8532 16.4346 36.0769 16.5908 36.3729C16.7471 36.6688 16.8252 37.0334 16.8252 37.4666V41H16.1895V37.5057C16.1895 37.0559 16.0641 36.7019 15.8131 36.4439C15.5645 36.1835 15.2284 36.0533 14.8046 36.0533C14.5134 36.0533 14.2542 36.1148 14.0269 36.2379C13.7996 36.361 13.6197 36.5386 13.4871 36.7706C13.3569 37.0002 13.2918 37.2737 13.2918 37.5909ZM20.0132 41.1243C19.6842 41.1243 19.3835 41.0604 19.1112 40.9325C18.839 40.8023 18.6224 40.6153 18.4614 40.3714C18.3004 40.1252 18.2199 39.8269 18.2199 39.4766C18.2199 39.2067 18.2708 38.9794 18.3726 38.7947C18.4744 38.6101 18.6188 38.4586 18.8058 38.3402C18.9929 38.2218 19.2142 38.1283 19.4699 38.0597C19.7256 37.991 20.0073 37.9377 20.3151 37.8999C20.6205 37.862 20.8785 37.8288 21.0892 37.8004C21.3023 37.772 21.4645 37.727 21.5757 37.6655C21.687 37.6039 21.7426 37.5045 21.7426 37.3672V37.2393C21.7426 36.8677 21.6314 36.5753 21.4088 36.3622C21.1887 36.1468 20.8714 36.0391 20.4571 36.0391C20.0641 36.0391 19.7433 36.1255 19.4948 36.2983C19.2485 36.4711 19.0757 36.6747 18.9763 36.9091L18.3762 36.6925C18.4993 36.3942 18.6697 36.1562 18.8875 35.9787C19.1053 35.7988 19.3492 35.6697 19.6191 35.5916C19.8889 35.5111 20.1624 35.4709 20.4394 35.4709C20.6477 35.4709 20.8643 35.4981 21.0892 35.5526C21.3165 35.607 21.5272 35.7017 21.7213 35.8366C21.9155 35.9692 22.0729 36.1551 22.1936 36.3942C22.3144 36.6309 22.3747 36.9316 22.3747 37.2962V41H21.7426V40.1371H21.7036C21.6278 40.2981 21.5154 40.4543 21.3662 40.6058C21.2171 40.7573 21.03 40.8816 20.8051 40.9787C20.5802 41.0758 20.3163 41.1243 20.0132 41.1243ZM20.0985 40.5455C20.4346 40.5455 20.7258 40.4709 20.972 40.3217C21.2182 40.1726 21.4076 39.9749 21.5402 39.7287C21.6752 39.4801 21.7426 39.2067 21.7426 38.9084V38.12C21.6953 38.165 21.616 38.2053 21.5047 38.2408C21.3958 38.2763 21.2691 38.3082 21.1247 38.3366C20.9827 38.3627 20.8406 38.3852 20.6986 38.4041C20.5566 38.4231 20.4287 38.4396 20.3151 38.4538C20.0073 38.4917 19.7445 38.5509 19.5267 38.6314C19.3089 38.7119 19.142 38.8232 19.026 38.9652C18.91 39.1049 18.852 39.2848 18.852 39.505C18.852 39.8364 18.9704 40.0933 19.2071 40.2756C19.4439 40.4555 19.741 40.5455 20.0985 40.5455ZM28.0832 35.5455L26.091 41H25.4163L23.4241 35.5455H24.1095L25.7288 40.1655H25.7785L27.3978 35.5455H28.0832ZM31.3298 41.1136C30.8208 41.1136 30.3805 40.9953 30.0088 40.7585C29.6371 40.5194 29.3495 40.1892 29.1459 39.7678C28.9446 39.344 28.844 38.8563 28.844 38.3047C28.844 37.7554 28.9446 37.2678 29.1459 36.8416C29.3495 36.4131 29.63 36.0781 29.9875 35.8366C30.3473 35.5928 30.7628 35.4709 31.2339 35.4709C31.5299 35.4709 31.8151 35.5253 32.0898 35.6342C32.3644 35.7408 32.6106 35.9053 32.8284 36.1278C33.0486 36.348 33.2226 36.6262 33.3504 36.9624C33.4782 37.2962 33.5422 37.6915 33.5422 38.1484V38.4609H29.2808V37.9034H32.8959C32.8959 37.553 32.8248 37.2382 32.6828 36.9588C32.5431 36.6771 32.3478 36.4545 32.0969 36.2912C31.8483 36.1278 31.5606 36.0462 31.2339 36.0462C30.8883 36.0462 30.5841 36.1385 30.3213 36.3232C30.0585 36.5078 29.8525 36.7517 29.7034 37.0547C29.5566 37.3577 29.482 37.6892 29.4797 38.049V38.3828C29.4797 38.8161 29.5542 39.1948 29.7034 39.5192C29.8549 39.8411 30.0692 40.0909 30.3461 40.2685C30.6231 40.446 30.951 40.5348 31.3298 40.5348C31.5879 40.5348 31.814 40.4946 32.0081 40.4141C32.2046 40.3336 32.3691 40.2259 32.5017 40.0909C32.6366 39.9536 32.7384 39.8033 32.8071 39.6399L33.4072 39.8352C33.3244 40.0649 33.1882 40.2768 32.9988 40.4709C32.8118 40.665 32.5774 40.8213 32.2957 40.9396C32.0164 41.0556 31.6944 41.1136 31.3298 41.1136ZM37.7476 41V35.5455H38.3619V36.3835H38.4188C38.5277 36.1018 38.7088 35.8804 38.9621 35.7195C39.2178 35.5561 39.5244 35.4744 39.8818 35.4744C40.2583 35.4744 40.5672 35.5632 40.8087 35.7408C41.0525 35.916 41.2348 36.1574 41.3556 36.4652H41.4017C41.5248 36.1622 41.7249 35.9219 42.0019 35.7443C42.2812 35.5644 42.6198 35.4744 43.0175 35.4744C43.5241 35.4744 43.9242 35.6342 44.2178 35.9538C44.5113 36.2711 44.6581 36.7351 44.6581 37.3459V41H44.026V37.3459C44.026 36.915 43.9159 36.5919 43.6958 36.3764C43.4756 36.161 43.1856 36.0533 42.8257 36.0533C42.4091 36.0533 42.0883 36.1811 41.8634 36.4368C41.6385 36.6925 41.526 37.0168 41.526 37.4098V41H40.8797V37.2891C40.8797 36.9197 40.7767 36.6214 40.5708 36.3942C40.3648 36.1669 40.0748 36.0533 39.7007 36.0533C39.4498 36.0533 39.2237 36.1148 39.0225 36.2379C38.8236 36.361 38.6662 36.5327 38.5502 36.7528C38.4365 36.9706 38.3797 37.2216 38.3797 37.5057V41H37.7476ZM48.4516 41.1136C47.9805 41.1136 47.5638 40.9941 47.2016 40.755C46.8418 40.5159 46.56 40.1856 46.3564 39.7642C46.1528 39.3404 46.051 38.8516 46.051 38.2976C46.051 37.7389 46.1528 37.2476 46.3564 36.8239C46.56 36.3977 46.8418 36.0663 47.2016 35.8295C47.5638 35.5904 47.9805 35.4709 48.4516 35.4709C48.9227 35.4709 49.3382 35.5904 49.6981 35.8295C50.0579 36.0687 50.3396 36.4001 50.5432 36.8239C50.7492 37.2476 50.8522 37.7389 50.8522 38.2976C50.8522 38.8516 50.7504 39.3404 50.5468 39.7642C50.3432 40.1856 50.0603 40.5159 49.6981 40.755C49.3382 40.9941 48.9227 41.1136 48.4516 41.1136ZM48.4516 40.5348C48.8304 40.5348 49.1512 40.433 49.414 40.2294C49.6768 40.0258 49.8756 39.7547 50.0106 39.4162C50.1479 39.0777 50.2165 38.7048 50.2165 38.2976C50.2165 37.8904 50.1479 37.5163 50.0106 37.1754C49.8756 36.8345 49.6768 36.5611 49.414 36.3551C49.1512 36.1491 48.8304 36.0462 48.4516 36.0462C48.0752 36.0462 47.7544 36.1491 47.4893 36.3551C47.2265 36.5611 47.0264 36.8345 46.8891 37.1754C46.7542 37.5163 46.6867 37.8904 46.6867 38.2976C46.6867 38.7048 46.7542 39.0777 46.8891 39.4162C47.0264 39.7547 47.2265 40.0258 47.4893 40.2294C47.752 40.433 48.0728 40.5348 48.4516 40.5348ZM52.2398 41V35.5455H52.8541V36.3835H52.9003C53.0092 36.1089 53.1986 35.8875 53.4685 35.7195C53.7407 35.549 54.0485 35.4638 54.3918 35.4638C54.4439 35.4638 54.5019 35.465 54.5658 35.4673C54.6297 35.4697 54.683 35.4721 54.7256 35.4744V36.1172C54.6972 36.1125 54.6475 36.1054 54.5764 36.0959C54.5054 36.0864 54.4285 36.0817 54.3456 36.0817C54.0615 36.0817 53.8082 36.142 53.5857 36.2628C53.3655 36.3812 53.1915 36.5457 53.0637 36.7564C52.9358 36.9671 52.8719 37.2074 52.8719 37.4773V41H52.2398ZM57.8435 41.1136C57.3345 41.1136 56.8941 40.9953 56.5225 40.7585C56.1508 40.5194 55.8631 40.1892 55.6595 39.7678C55.4583 39.344 55.3577 38.8563 55.3577 38.3047C55.3577 37.7554 55.4583 37.2678 55.6595 36.8416C55.8631 36.4131 56.1437 36.0781 56.5012 35.8366C56.861 35.5928 57.2765 35.4709 57.7476 35.4709C58.0435 35.4709 58.3288 35.5253 58.6034 35.6342C58.878 35.7408 59.1243 35.9053 59.3421 36.1278C59.5622 36.348 59.7362 36.6262 59.8641 36.9624C59.9919 37.2962 60.0558 37.6915 60.0558 38.1484V38.4609H55.7945V37.9034H59.4095C59.4095 37.553 59.3385 37.2382 59.1965 36.9588C59.0568 36.6771 58.8615 36.4545 58.6105 36.2912C58.3619 36.1278 58.0743 36.0462 57.7476 36.0462C57.402 36.0462 57.0977 36.1385 56.835 36.3232C56.5722 36.5078 56.3662 36.7517 56.2171 37.0547C56.0703 37.3577 55.9957 37.6892 55.9933 38.049V38.3828C55.9933 38.8161 56.0679 39.1948 56.2171 39.5192C56.3686 39.8411 56.5828 40.0909 56.8598 40.2685C57.1368 40.446 57.4647 40.5348 57.8435 40.5348C58.1015 40.5348 58.3276 40.4946 58.5218 40.4141C58.7182 40.3336 58.8828 40.2259 59.0154 40.0909C59.1503 39.9536 59.2521 39.8033 59.3208 39.6399L59.9209 39.8352C59.838 40.0649 59.7019 40.2768 59.5125 40.4709C59.3255 40.665 59.0911 40.8213 58.8094 40.9396C58.53 41.0556 58.2081 41.1136 57.8435 41.1136ZM66.392 41.1136C65.9043 41.1136 65.4793 40.9917 65.1171 40.7479C64.7573 40.504 64.4779 40.1702 64.279 39.7464C64.0802 39.3227 63.9807 38.8397 63.9807 38.2976C63.9807 37.7507 64.0814 37.2642 64.2826 36.8381C64.4862 36.4119 64.7679 36.0781 65.1278 35.8366C65.4876 35.5928 65.9055 35.4709 66.3813 35.4709C66.7459 35.4709 67.0761 35.5419 67.3721 35.6839C67.668 35.8236 67.9118 36.0213 68.1036 36.277C68.2977 36.5303 68.4197 36.8262 68.4694 37.1648H67.8302C67.7639 36.857 67.6041 36.5942 67.3508 36.3764C67.0998 36.1562 66.7802 36.0462 66.392 36.0462C66.0439 36.0462 65.7362 36.1409 65.4687 36.3303C65.2011 36.5173 64.9916 36.7789 64.8401 37.1151C64.691 37.4489 64.6164 37.8359 64.6164 38.2763C64.6164 38.719 64.6898 39.1108 64.8366 39.4517C64.9833 39.7902 65.1893 40.0554 65.4545 40.2472C65.722 40.4389 66.0345 40.5348 66.392 40.5348C66.6334 40.5348 66.8536 40.4898 67.0525 40.3999C67.2537 40.3075 67.4218 40.1773 67.5567 40.0092C67.694 39.8411 67.7864 39.6411 67.8337 39.4091H68.4729C68.4256 39.7382 68.3084 40.0317 68.1214 40.2898C67.9367 40.5455 67.6964 40.7467 67.4005 40.8935C67.1069 41.0402 66.7707 41.1136 66.392 41.1136ZM71.9477 41.1136C71.4766 41.1136 71.0599 40.9941 70.6977 40.755C70.3379 40.5159 70.0561 40.1856 69.8525 39.7642C69.6489 39.3404 69.5471 38.8516 69.5471 38.2976C69.5471 37.7389 69.6489 37.2476 69.8525 36.8239C70.0561 36.3977 70.3379 36.0663 70.6977 35.8295C71.0599 35.5904 71.4766 35.4709 71.9477 35.4709C72.4188 35.4709 72.8343 35.5904 73.1942 35.8295C73.554 36.0687 73.8357 36.4001 74.0393 36.8239C74.2453 37.2476 74.3483 37.7389 74.3483 38.2976C74.3483 38.8516 74.2465 39.3404 74.0429 39.7642C73.8393 40.1856 73.5564 40.5159 73.1942 40.755C72.8343 40.9941 72.4188 41.1136 71.9477 41.1136ZM71.9477 40.5348C72.3265 40.5348 72.6473 40.433 72.9101 40.2294C73.1729 40.0258 73.3717 39.7547 73.5067 39.4162C73.644 39.0777 73.7126 38.7048 73.7126 38.2976C73.7126 37.8904 73.644 37.5163 73.5067 37.1754C73.3717 36.8345 73.1729 36.5611 72.9101 36.3551C72.6473 36.1491 72.3265 36.0462 71.9477 36.0462C71.5713 36.0462 71.2505 36.1491 70.9854 36.3551C70.7226 36.5611 70.5225 36.8345 70.3852 37.1754C70.2503 37.5163 70.1828 37.8904 70.1828 38.2976C70.1828 38.7048 70.2503 39.0777 70.3852 39.4162C70.5225 39.7547 70.7226 40.0258 70.9854 40.2294C71.2481 40.433 71.5689 40.5348 71.9477 40.5348ZM79.2018 38.9155V35.5455H79.8339V41H79.2018V40.0945H79.1521C79.0242 40.3738 78.8218 40.607 78.5448 40.794C78.2678 40.9787 77.9293 41.071 77.5292 41.071C77.1812 41.071 76.8722 40.9953 76.6024 40.8438C76.3325 40.6899 76.1206 40.465 75.9667 40.169C75.8128 39.8731 75.7359 39.5097 75.7359 39.0788V35.5455H76.368V39.0398C76.368 39.4659 76.4935 39.8092 76.7444 40.0696C76.9954 40.3277 77.3173 40.4567 77.7103 40.4567C77.9565 40.4567 78.1933 40.3975 78.4205 40.2791C78.6478 40.1607 78.8348 39.9879 78.9816 39.7607C79.1284 39.531 79.2018 39.2493 79.2018 38.9155ZM81.5074 41V35.5455H82.1217V36.3835H82.1679C82.2768 36.1089 82.4662 35.8875 82.7361 35.7195C83.0083 35.549 83.3161 35.4638 83.6594 35.4638C83.7114 35.4638 83.7694 35.465 83.8334 35.4673C83.8973 35.4697 83.9506 35.4721 83.9932 35.4744V36.1172C83.9648 36.1125 83.915 36.1054 83.844 36.0959C83.773 36.0864 83.6961 36.0817 83.6132 36.0817C83.3291 36.0817 83.0758 36.142 82.8532 36.2628C82.6331 36.3812 82.4591 36.5457 82.3312 36.7564C82.2034 36.9671 82.1395 37.2074 82.1395 37.4773V41H81.5074ZM88.7366 36.7422L88.1578 36.9055C88.1009 36.7422 88.0204 36.5942 87.9163 36.4616C87.8121 36.3291 87.676 36.2237 87.5079 36.1456C87.3422 36.0675 87.1362 36.0284 86.89 36.0284C86.5207 36.0284 86.2177 36.116 85.9809 36.2912C85.7442 36.4664 85.6258 36.6925 85.6258 36.9695C85.6258 37.2038 85.7063 37.3944 85.8673 37.5412C86.0306 37.6856 86.2816 37.8004 86.6201 37.8857L87.444 38.0881C87.9009 38.1993 88.243 38.3757 88.4703 38.6172C88.6999 38.8587 88.8147 39.1617 88.8147 39.5263C88.8147 39.834 88.7295 40.1075 88.559 40.3466C88.3886 40.5857 88.1507 40.7739 87.8453 40.9112C87.5422 41.0462 87.1907 41.1136 86.7906 41.1136C86.2579 41.1136 85.8187 40.9941 85.4731 40.755C85.1275 40.5135 84.9061 40.1655 84.809 39.7109L85.4163 39.5618C85.4944 39.8861 85.6471 40.1312 85.8744 40.2969C86.104 40.4626 86.4059 40.5455 86.7799 40.5455C87.199 40.5455 87.5339 40.4519 87.7849 40.2649C88.0358 40.0755 88.1613 39.8388 88.1613 39.5547C88.1613 39.3345 88.0879 39.1499 87.9411 39.0007C87.7944 38.8492 87.5718 38.7379 87.2735 38.6669L86.3822 38.4538C85.9087 38.3402 85.5583 38.1603 85.3311 37.9141C85.1038 37.6679 84.9901 37.3625 84.9901 36.9979C84.9901 36.6972 85.0718 36.4332 85.2352 36.206C85.3985 35.9763 85.6234 35.7964 85.9099 35.6662C86.1963 35.536 86.5231 35.4709 86.89 35.4709C87.3895 35.4709 87.7884 35.5845 88.0867 35.8118C88.3874 36.0367 88.604 36.3468 88.7366 36.7422ZM92.404 41.1136C91.895 41.1136 91.4547 40.9953 91.083 40.7585C90.7113 40.5194 90.4237 40.1892 90.2201 39.7678C90.0189 39.344 89.9182 38.8563 89.9182 38.3047C89.9182 37.7554 90.0189 37.2678 90.2201 36.8416C90.4237 36.4131 90.7042 36.0781 91.0617 35.8366C91.4215 35.5928 91.837 35.4709 92.3081 35.4709C92.6041 35.4709 92.8894 35.5253 93.164 35.6342C93.4386 35.7408 93.6848 35.9053 93.9026 36.1278C94.1228 36.348 94.2968 36.6262 94.4246 36.9624C94.5525 37.2962 94.6164 37.6915 94.6164 38.1484V38.4609H90.355V37.9034H93.9701C93.9701 37.553 93.8991 37.2382 93.757 36.9588C93.6173 36.6771 93.422 36.4545 93.1711 36.2912C92.9225 36.1278 92.6349 36.0462 92.3081 36.0462C91.9625 36.0462 91.6583 36.1385 91.3955 36.3232C91.1327 36.5078 90.9268 36.7517 90.7776 37.0547C90.6308 37.3577 90.5563 37.6892 90.5539 38.049V38.3828C90.5539 38.8161 90.6285 39.1948 90.7776 39.5192C90.9291 39.8411 91.1434 40.0909 91.4204 40.2685C91.6974 40.446 92.0252 40.5348 92.404 40.5348C92.6621 40.5348 92.8882 40.4946 93.0823 40.4141C93.2788 40.3336 93.4433 40.2259 93.5759 40.0909C93.7108 39.9536 93.8126 39.8033 93.8813 39.6399L94.4814 39.8352C94.3986 40.0649 94.2625 40.2768 94.0731 40.4709C93.886 40.665 93.6517 40.8213 93.3699 40.9396C93.0906 41.0556 92.7686 41.1136 92.404 41.1136ZM15.6018 48.7422L15.023 48.9055C14.9662 48.7422 14.8857 48.5942 14.7815 48.4616C14.6773 48.3291 14.5412 48.2237 14.3731 48.1456C14.2074 48.0675 14.0015 48.0284 13.7552 48.0284C13.3859 48.0284 13.0829 48.116 12.8461 48.2912C12.6094 48.4664 12.491 48.6925 12.491 48.9695C12.491 49.2038 12.5715 49.3944 12.7325 49.5412C12.8959 49.6856 13.1468 49.8004 13.4854 49.8857L14.3092 50.0881C14.7661 50.1993 15.1082 50.3757 15.3355 50.6172C15.5651 50.8587 15.68 51.1617 15.68 51.5263C15.68 51.834 15.5947 52.1075 15.4243 52.3466C15.2538 52.5857 15.0159 52.7739 14.7105 52.9112C14.4075 53.0462 14.0559 53.1136 13.6558 53.1136C13.1231 53.1136 12.684 52.9941 12.3383 52.755C11.9927 52.5135 11.7713 52.1655 11.6743 51.7109L12.2815 51.5618C12.3596 51.8861 12.5123 52.1312 12.7396 52.2969C12.9693 52.4626 13.2711 52.5455 13.6452 52.5455C14.0642 52.5455 14.3992 52.4519 14.6501 52.2649C14.9011 52.0755 15.0265 51.8388 15.0265 51.5547C15.0265 51.3345 14.9532 51.1499 14.8064 51.0007C14.6596 50.8492 14.4371 50.7379 14.1388 50.6669L13.2474 50.4538C12.7739 50.3402 12.4236 50.1603 12.1963 49.9141C11.969 49.6679 11.8554 49.3625 11.8554 48.9979C11.8554 48.6972 11.9371 48.4332 12.1004 48.206C12.2638 47.9763 12.4887 47.7964 12.7751 47.6662C13.0616 47.536 13.3883 47.4709 13.7552 47.4709C14.2548 47.4709 14.6537 47.5845 14.952 47.8118C15.2526 48.0367 15.4693 48.3468 15.6018 48.7422ZM17.064 55.0455V47.5455H17.6784V48.5859H17.7529C17.8287 48.4226 17.9329 48.2557 18.0654 48.0852C18.198 47.9124 18.3732 47.7668 18.591 47.6484C18.8112 47.5301 19.0882 47.4709 19.422 47.4709C19.8718 47.4709 20.2648 47.5893 20.6009 47.826C20.9395 48.0604 21.2023 48.3894 21.3893 48.8132C21.5787 49.2346 21.6734 49.7259 21.6734 50.2869C21.6734 50.8504 21.5787 51.344 21.3893 51.7678C21.2023 52.1915 20.9395 52.5218 20.6009 52.7585C20.2648 52.9953 19.8741 53.1136 19.4291 53.1136C19.1 53.1136 18.8242 53.0545 18.6017 52.9361C18.3815 52.8177 18.2027 52.6721 18.0654 52.4993C17.9305 52.3241 17.8263 52.1536 17.7529 51.9879H17.6961V55.0455H17.064ZM17.689 50.2763C17.689 50.7166 17.7541 51.1072 17.8843 51.4482C18.0169 51.7867 18.2063 52.053 18.4525 52.2472C18.7011 52.4389 19.0017 52.5348 19.3545 52.5348C19.7167 52.5348 20.0221 52.4354 20.2707 52.2365C20.5216 52.0353 20.7122 51.7642 20.8424 51.4233C20.975 51.0824 21.0413 50.7 21.0413 50.2763C21.0413 49.8572 20.9762 49.4796 20.846 49.1435C20.7181 48.8073 20.5287 48.541 20.2778 48.3445C20.0268 48.1456 19.7191 48.0462 19.3545 48.0462C18.9994 48.0462 18.6975 48.142 18.449 48.3338C18.2004 48.5232 18.011 48.786 17.8808 49.1222C17.7529 49.456 17.689 49.8407 17.689 50.2763ZM25.2654 53.1136C24.7564 53.1136 24.316 52.9953 23.9443 52.7585C23.5727 52.5194 23.285 52.1892 23.0814 51.7678C22.8802 51.344 22.7796 50.8563 22.7796 50.3047C22.7796 49.7554 22.8802 49.2678 23.0814 48.8416C23.285 48.4131 23.5655 48.0781 23.923 47.8366C24.2829 47.5928 24.6984 47.4709 25.1695 47.4709C25.4654 47.4709 25.7507 47.5253 26.0253 47.6342C26.2999 47.7408 26.5461 47.9053 26.7639 48.1278C26.9841 48.348 27.1581 48.6262 27.286 48.9624C27.4138 49.2962 27.4777 49.6915 27.4777 50.1484V50.4609H23.2164V49.9034H26.8314C26.8314 49.553 26.7604 49.2382 26.6183 48.9588C26.4787 48.6771 26.2834 48.4545 26.0324 48.2912C25.7838 48.1278 25.4962 48.0462 25.1695 48.0462C24.8238 48.0462 24.5196 48.1385 24.2568 48.3232C23.9941 48.5078 23.7881 48.7517 23.6389 49.0547C23.4922 49.3577 23.4176 49.6892 23.4152 50.049V50.3828C23.4152 50.8161 23.4898 51.1948 23.6389 51.5192C23.7905 51.8411 24.0047 52.0909 24.2817 52.2685C24.5587 52.446 24.8866 52.5348 25.2654 52.5348C25.5234 52.5348 25.7495 52.4946 25.9436 52.4141C26.1401 52.3336 26.3047 52.2259 26.4372 52.0909C26.5722 51.9536 26.674 51.8033 26.7426 51.6399L27.3428 51.8352C27.2599 52.0649 27.1238 52.2768 26.9344 52.4709C26.7474 52.665 26.513 52.8213 26.2313 52.9396C25.9519 53.0556 25.6299 53.1136 25.2654 53.1136ZM31.0013 53.1136C30.5136 53.1136 30.0887 52.9917 29.7265 52.7479C29.3666 52.504 29.0873 52.1702 28.8884 51.7464C28.6895 51.3227 28.5901 50.8397 28.5901 50.2976C28.5901 49.7507 28.6907 49.2642 28.892 48.8381C29.0956 48.4119 29.3773 48.0781 29.7371 47.8366C30.097 47.5928 30.5148 47.4709 30.9907 47.4709C31.3553 47.4709 31.6855 47.5419 31.9814 47.6839C32.2774 47.8236 32.5212 48.0213 32.713 48.277C32.9071 48.5303 33.029 48.8262 33.0787 49.1648H32.4395C32.3733 48.857 32.2135 48.5942 31.9601 48.3764C31.7092 48.1562 31.3896 48.0462 31.0013 48.0462C30.6533 48.0462 30.3456 48.1409 30.078 48.3303C29.8105 48.5173 29.601 48.7789 29.4495 49.1151C29.3003 49.4489 29.2258 49.8359 29.2258 50.2763C29.2258 50.719 29.2992 51.1108 29.4459 51.4517C29.5927 51.7902 29.7987 52.0554 30.0638 52.2472C30.3314 52.4389 30.6439 52.5348 31.0013 52.5348C31.2428 52.5348 31.463 52.4898 31.6618 52.3999C31.8631 52.3075 32.0312 52.1773 32.1661 52.0092C32.3034 51.8411 32.3957 51.6411 32.4431 51.4091H33.0823C33.0349 51.7382 32.9178 52.0317 32.7307 52.2898C32.5461 52.5455 32.3058 52.7467 32.0099 52.8935C31.7163 53.0402 31.3801 53.1136 31.0013 53.1136ZM34.4442 53V47.5455H35.0798V53H34.4442ZM34.7673 46.608C34.6371 46.608 34.5258 46.5642 34.4335 46.4766C34.3412 46.3866 34.295 46.2789 34.295 46.1534C34.295 46.0279 34.3412 45.9214 34.4335 45.8338C34.5258 45.7438 34.6371 45.6989 34.7673 45.6989C34.8975 45.6989 35.0088 45.7438 35.1011 45.8338C35.1934 45.9214 35.2396 46.0279 35.2396 46.1534C35.2396 46.2789 35.1934 46.3866 35.1011 46.4766C35.0088 46.5642 34.8975 46.608 34.7673 46.608ZM38.9958 47.5455V48.0959H36.3147V47.5455H38.9958ZM37.1528 53V46.7464C37.1528 46.4529 37.2203 46.2055 37.3552 46.0043C37.4925 45.803 37.6713 45.6503 37.8914 45.5462C38.1116 45.442 38.3448 45.3899 38.591 45.3899C38.7567 45.3899 38.894 45.4041 39.0029 45.4325C39.1142 45.4586 39.2018 45.4846 39.2657 45.5107L39.0811 46.0646C39.0337 46.0504 38.9757 46.0339 38.907 46.0149C38.8384 45.996 38.752 45.9865 38.6478 45.9865C38.3732 45.9865 38.1613 46.0634 38.0122 46.2173C37.863 46.3712 37.7884 46.5914 37.7884 46.8778L37.7849 53H37.1528ZM40.2645 53V47.5455H40.9001V53H40.2645ZM40.5876 46.608C40.4574 46.608 40.3461 46.5642 40.2538 46.4766C40.1615 46.3866 40.1153 46.2789 40.1153 46.1534C40.1153 46.0279 40.1615 45.9214 40.2538 45.8338C40.3461 45.7438 40.4574 45.6989 40.5876 45.6989C40.7178 45.6989 40.8291 45.7438 40.9214 45.8338C41.0138 45.9214 41.0599 46.0279 41.0599 46.1534C41.0599 46.2789 41.0138 46.3866 40.9214 46.4766C40.8291 46.5642 40.7178 46.608 40.5876 46.608ZM44.7025 53.1136C44.2148 53.1136 43.7899 52.9917 43.4276 52.7479C43.0678 52.504 42.7884 52.1702 42.5896 51.7464C42.3907 51.3227 42.2913 50.8397 42.2913 50.2976C42.2913 49.7507 42.3919 49.2642 42.5931 48.8381C42.7967 48.4119 43.0785 48.0781 43.4383 47.8366C43.7981 47.5928 44.216 47.4709 44.6919 47.4709C45.0564 47.4709 45.3867 47.5419 45.6826 47.6839C45.9785 47.8236 46.2224 48.0213 46.4142 48.277C46.6083 48.5303 46.7302 48.8262 46.7799 49.1648H46.1407C46.0744 48.857 45.9146 48.5942 45.6613 48.3764C45.4104 48.1562 45.0908 48.0462 44.7025 48.0462C44.3545 48.0462 44.0467 48.1409 43.7792 48.3303C43.5117 48.5173 43.3022 48.7789 43.1507 49.1151C43.0015 49.4489 42.9269 49.8359 42.9269 50.2763C42.9269 50.719 43.0003 51.1108 43.1471 51.4517C43.2939 51.7902 43.4999 52.0554 43.765 52.2472C44.0325 52.4389 44.345 52.5348 44.7025 52.5348C44.944 52.5348 45.1642 52.4898 45.363 52.3999C45.5642 52.3075 45.7323 52.1773 45.8673 52.0092C46.0046 51.8411 46.0969 51.6411 46.1443 51.4091H46.7835C46.7361 51.7382 46.6189 52.0317 46.4319 52.2898C46.2472 52.5455 46.007 52.7467 45.711 52.8935C45.4175 53.0402 45.0813 53.1136 44.7025 53.1136ZM49.6617 53.1243C49.3326 53.1243 49.0319 53.0604 48.7597 52.9325C48.4874 52.8023 48.2708 52.6153 48.1098 52.3714C47.9488 52.1252 47.8683 51.8269 47.8683 51.4766C47.8683 51.2067 47.9192 50.9794 48.021 50.7947C48.1228 50.6101 48.2673 50.4586 48.4543 50.3402C48.6413 50.2218 48.8627 50.1283 49.1183 50.0597C49.374 49.991 49.6557 49.9377 49.9635 49.8999C50.2689 49.862 50.527 49.8288 50.7377 49.8004C50.9507 49.772 51.1129 49.727 51.2242 49.6655C51.3354 49.6039 51.3911 49.5045 51.3911 49.3672V49.2393C51.3911 48.8677 51.2798 48.5753 51.0573 48.3622C50.8371 48.1468 50.5199 48.0391 50.1056 48.0391C49.7126 48.0391 49.3918 48.1255 49.1432 48.2983C48.897 48.4711 48.7242 48.6747 48.6247 48.9091L48.0246 48.6925C48.1477 48.3942 48.3182 48.1562 48.536 47.9787C48.7538 47.7988 48.9976 47.6697 49.2675 47.5916C49.5374 47.5111 49.8108 47.4709 50.0878 47.4709C50.2961 47.4709 50.5128 47.4981 50.7377 47.5526C50.9649 47.607 51.1756 47.7017 51.3698 47.8366C51.5639 47.9692 51.7213 48.1551 51.8421 48.3942C51.9628 48.6309 52.0232 48.9316 52.0232 49.2962V53H51.3911V52.1371H51.352C51.2762 52.2981 51.1638 52.4543 51.0146 52.6058C50.8655 52.7573 50.6785 52.8816 50.4536 52.9787C50.2287 53.0758 49.9647 53.1243 49.6617 53.1243ZM49.7469 52.5455C50.0831 52.5455 50.3743 52.4709 50.6205 52.3217C50.8667 52.1726 51.0561 51.9749 51.1887 51.7287C51.3236 51.4801 51.3911 51.2067 51.3911 50.9084V50.12C51.3437 50.165 51.2644 50.2053 51.1531 50.2408C51.0442 50.2763 50.9176 50.3082 50.7732 50.3366C50.6311 50.3627 50.4891 50.3852 50.347 50.4041C50.205 50.4231 50.0771 50.4396 49.9635 50.4538C49.6557 50.4917 49.393 50.5509 49.1752 50.6314C48.9574 50.7119 48.7905 50.8232 48.6744 50.9652C48.5584 51.1049 48.5004 51.2848 48.5004 51.505C48.5004 51.8364 48.6188 52.0933 48.8556 52.2756C49.0923 52.4555 49.3894 52.5455 49.7469 52.5455ZM55.8531 47.5455V48.0959H53.2501V47.5455H55.8531ZM54.0633 46.2386H54.699V51.576C54.699 51.8033 54.738 51.982 54.8161 52.1122C54.8943 52.2401 54.9961 52.3312 55.1215 52.3857C55.247 52.4377 55.3808 52.4638 55.5228 52.4638C55.6057 52.4638 55.6767 52.459 55.7359 52.4496C55.7951 52.4377 55.8472 52.4259 55.8921 52.4141L56.0271 52.9858C55.9655 53.0095 55.8898 53.0308 55.7998 53.0497C55.7098 53.071 55.5986 53.0817 55.466 53.0817C55.234 53.0817 55.0103 53.0308 54.7948 52.929C54.5818 52.8272 54.4066 52.6757 54.2693 52.4744C54.132 52.2732 54.0633 52.0234 54.0633 51.7251V46.2386ZM57.2957 53V47.5455H57.9314V53H57.2957ZM57.6189 46.608C57.4887 46.608 57.3774 46.5642 57.2851 46.4766C57.1927 46.3866 57.1466 46.2789 57.1466 46.1534C57.1466 46.0279 57.1927 45.9214 57.2851 45.8338C57.3774 45.7438 57.4887 45.6989 57.6189 45.6989C57.7491 45.6989 57.8604 45.7438 57.9527 45.8338C58.045 45.9214 58.0912 46.0279 58.0912 46.1534C58.0912 46.2789 58.045 46.3866 57.9527 46.4766C57.8604 46.5642 57.7491 46.608 57.6189 46.608ZM61.7231 53.1136C61.252 53.1136 60.8353 52.9941 60.4731 52.755C60.1133 52.5159 59.8315 52.1856 59.6279 51.7642C59.4243 51.3404 59.3225 50.8516 59.3225 50.2976C59.3225 49.7389 59.4243 49.2476 59.6279 48.8239C59.8315 48.3977 60.1133 48.0663 60.4731 47.8295C60.8353 47.5904 61.252 47.4709 61.7231 47.4709C62.1942 47.4709 62.6097 47.5904 62.9695 47.8295C63.3294 48.0687 63.6111 48.4001 63.8147 48.8239C64.0207 49.2476 64.1237 49.7389 64.1237 50.2976C64.1237 50.8516 64.0219 51.3404 63.8183 51.7642C63.6147 52.1856 63.3318 52.5159 62.9695 52.755C62.6097 52.9941 62.1942 53.1136 61.7231 53.1136ZM61.7231 52.5348C62.1019 52.5348 62.4227 52.433 62.6855 52.2294C62.9482 52.0258 63.1471 51.7547 63.282 51.4162C63.4194 51.0777 63.488 50.7048 63.488 50.2976C63.488 49.8904 63.4194 49.5163 63.282 49.1754C63.1471 48.8345 62.9482 48.5611 62.6855 48.3551C62.4227 48.1491 62.1019 48.0462 61.7231 48.0462C61.3467 48.0462 61.0259 48.1491 60.7607 48.3551C60.498 48.5611 60.2979 48.8345 60.1606 49.1754C60.0257 49.5163 59.9582 49.8904 59.9582 50.2976C59.9582 50.7048 60.0257 51.0777 60.1606 51.4162C60.2979 51.7547 60.498 52.0258 60.7607 52.2294C61.0235 52.433 61.3443 52.5348 61.7231 52.5348ZM66.1434 49.5909V53H65.5113V47.5455H66.1256V48.4013H66.1824C66.3103 48.1219 66.5091 47.8982 66.779 47.7301C67.0513 47.5597 67.3875 47.4744 67.7876 47.4744C68.1545 47.4744 68.4765 47.5514 68.7535 47.7053C69.0328 47.8568 69.2494 48.0805 69.4033 48.3764C69.5596 48.6723 69.6377 49.0357 69.6377 49.4666V53H69.0056V49.5057C69.0056 49.0582 68.8801 48.7043 68.6292 48.4439C68.3806 48.1835 68.0468 48.0533 67.6278 48.0533C67.3413 48.0533 67.0868 48.1148 66.8643 48.2379C66.6417 48.361 66.4653 48.5386 66.3351 48.7706C66.2073 49.0002 66.1434 49.2737 66.1434 49.5909ZM74.9671 48.7422L74.3882 48.9055C74.3314 48.7422 74.2509 48.5942 74.1468 48.4616C74.0426 48.3291 73.9065 48.2237 73.7384 48.1456C73.5727 48.0675 73.3667 48.0284 73.1205 48.0284C72.7512 48.0284 72.4481 48.116 72.2114 48.2912C71.9746 48.4664 71.8563 48.6925 71.8563 48.9695C71.8563 49.2038 71.9368 49.3944 72.0977 49.5412C72.2611 49.6856 72.512 49.8004 72.8506 49.8857L73.6744 50.0881C74.1314 50.1993 74.4735 50.3757 74.7007 50.6172C74.9304 50.8587 75.0452 51.1617 75.0452 51.5263C75.0452 51.834 74.96 52.1075 74.7895 52.3466C74.6191 52.5857 74.3811 52.7739 74.0757 52.9112C73.7727 53.0462 73.4211 53.1136 73.021 53.1136C72.4884 53.1136 72.0492 52.9941 71.7036 52.755C71.3579 52.5135 71.1366 52.1655 71.0395 51.7109L71.6468 51.5618C71.7249 51.8861 71.8776 52.1312 72.1048 52.2969C72.3345 52.4626 72.6363 52.5455 73.0104 52.5455C73.4294 52.5455 73.7644 52.4519 74.0154 52.2649C74.2663 52.0755 74.3918 51.8388 74.3918 51.5547C74.3918 51.3345 74.3184 51.1499 74.1716 51.0007C74.0248 50.8492 73.8023 50.7379 73.504 50.6669L72.6127 50.4538C72.1392 50.3402 71.7888 50.1603 71.5615 49.9141C71.3343 49.6679 71.2206 49.3625 71.2206 48.9979C71.2206 48.6972 71.3023 48.4332 71.4656 48.206C71.629 47.9763 71.8539 47.7964 72.1404 47.6662C72.4268 47.536 72.7535 47.4709 73.1205 47.4709C73.62 47.4709 74.0189 47.5845 74.3172 47.8118C74.6179 48.0367 74.8345 48.3468 74.9671 48.7422ZM80.7652 53.1243C80.4361 53.1243 80.1354 53.0604 79.8632 52.9325C79.5909 52.8023 79.3743 52.6153 79.2133 52.3714C79.0523 52.1252 78.9719 51.8269 78.9719 51.4766C78.9719 51.2067 79.0228 50.9794 79.1246 50.7947C79.2264 50.6101 79.3708 50.4586 79.5578 50.3402C79.7448 50.2218 79.9662 50.1283 80.2219 50.0597C80.4775 49.991 80.7593 49.9377 81.067 49.8999C81.3724 49.862 81.6305 49.8288 81.8412 49.8004C82.0542 49.772 82.2164 49.727 82.3277 49.6655C82.439 49.6039 82.4946 49.5045 82.4946 49.3672V49.2393C82.4946 48.8677 82.3833 48.5753 82.1608 48.3622C81.9406 48.1468 81.6234 48.0391 81.2091 48.0391C80.8161 48.0391 80.4953 48.1255 80.2467 48.2983C80.0005 48.4711 79.8277 48.6747 79.7282 48.9091L79.1281 48.6925C79.2512 48.3942 79.4217 48.1562 79.6395 47.9787C79.8573 47.7988 80.1011 47.6697 80.371 47.5916C80.6409 47.5111 80.9143 47.4709 81.1913 47.4709C81.3997 47.4709 81.6163 47.4981 81.8412 47.5526C82.0684 47.607 82.2791 47.7017 82.4733 47.8366C82.6674 47.9692 82.8248 48.1551 82.9456 48.3942C83.0663 48.6309 83.1267 48.9316 83.1267 49.2962V53H82.4946V52.1371H82.4555C82.3798 52.2981 82.2673 52.4543 82.1182 52.6058C81.969 52.7573 81.782 52.8816 81.5571 52.9787C81.3322 53.0758 81.0682 53.1243 80.7652 53.1243ZM80.8504 52.5455C81.1866 52.5455 81.4778 52.4709 81.724 52.3217C81.9702 52.1726 82.1596 51.9749 82.2922 51.7287C82.4271 51.4801 82.4946 51.2067 82.4946 50.9084V50.12C82.4472 50.165 82.3679 50.2053 82.2567 50.2408C82.1478 50.2763 82.0211 50.3082 81.8767 50.3366C81.7346 50.3627 81.5926 50.3852 81.4506 50.4041C81.3085 50.4231 81.1807 50.4396 81.067 50.4538C80.7593 50.4917 80.4965 50.5509 80.2787 50.6314C80.0609 50.7119 79.894 50.8232 79.778 50.9652C79.662 51.1049 79.604 51.2848 79.604 51.505C79.604 51.8364 79.7223 52.0933 79.9591 52.2756C80.1958 52.4555 80.4929 52.5455 80.8504 52.5455ZM85.4403 49.5909V53H84.8081V47.5455H85.4225V48.4013H85.4793C85.6072 48.1219 85.806 47.8982 86.0759 47.7301C86.3482 47.5597 86.6843 47.4744 87.0844 47.4744C87.4514 47.4744 87.7733 47.5514 88.0503 47.7053C88.3297 47.8568 88.5463 48.0805 88.7002 48.3764C88.8564 48.6723 88.9346 49.0357 88.9346 49.4666V53H88.3025V49.5057C88.3025 49.0582 88.177 48.7043 87.926 48.4439C87.6775 48.1835 87.3437 48.0533 86.9246 48.0533C86.6382 48.0533 86.3837 48.1148 86.1611 48.2379C85.9386 48.361 85.7622 48.5386 85.632 48.7706C85.5042 49.0002 85.4403 49.2737 85.4403 49.5909ZM92.5629 53.1136C92.1155 53.1136 91.7237 52.9953 91.3875 52.7585C91.0513 52.5218 90.7886 52.1915 90.5992 51.7678C90.4121 51.344 90.3186 50.8504 90.3186 50.2869C90.3186 49.7259 90.4121 49.2346 90.5992 48.8132C90.7886 48.3894 91.0525 48.0604 91.3911 47.826C91.7296 47.5893 92.1238 47.4709 92.5736 47.4709C92.905 47.4709 93.1808 47.5301 93.401 47.6484C93.6212 47.7644 93.7976 47.9089 93.9301 48.0817C94.0627 48.2545 94.1657 48.4226 94.2391 48.5859H94.2959V45.7273H94.9316V53H94.3137V51.9879H94.2391C94.1657 52.1536 94.0615 52.3241 93.9266 52.4993C93.7916 52.6721 93.6129 52.8177 93.3904 52.9361C93.1702 53.0545 92.8944 53.1136 92.5629 53.1136ZM92.6375 52.5348C92.9903 52.5348 93.2909 52.4389 93.5395 52.2472C93.7881 52.053 93.9775 51.7867 94.1077 51.4482C94.2403 51.1072 94.3066 50.7166 94.3066 50.2763C94.3066 49.8407 94.2414 49.456 94.1112 49.1222C93.981 48.786 93.7916 48.5232 93.5431 48.3338C93.2945 48.142 92.9926 48.0462 92.6375 48.0462C92.2729 48.0462 91.9652 48.1456 91.7142 48.3445C91.4656 48.541 91.2762 48.8073 91.146 49.1435C91.0182 49.4796 90.9543 49.8572 90.9543 50.2763C90.9543 50.7 91.0194 51.0824 91.1496 51.4233C91.2798 51.7642 91.4692 52.0353 91.7178 52.2365C91.9687 52.4354 92.2753 52.5348 92.6375 52.5348ZM29.5161 65.1136C29.0686 65.1136 28.6768 64.9953 28.3406 64.7585C28.0045 64.5218 27.7417 64.1915 27.5523 63.7678C27.3653 63.344 27.2718 62.8504 27.2718 62.2869C27.2718 61.7259 27.3653 61.2346 27.5523 60.8132C27.7417 60.3894 28.0057 60.0604 28.3442 59.826C28.6827 59.5893 29.0769 59.4709 29.5267 59.4709C29.8582 59.4709 30.134 59.5301 30.3541 59.6484C30.5743 59.7644 30.7507 59.9089 30.8833 60.0817C31.0158 60.2545 31.1188 60.4226 31.1922 60.5859H31.249V57.7273H31.8847V65H31.2668V63.9879H31.1922C31.1188 64.1536 31.0146 64.3241 30.8797 64.4993C30.7448 64.6721 30.566 64.8177 30.3435 64.9361C30.1233 65.0545 29.8475 65.1136 29.5161 65.1136ZM29.5906 64.5348C29.9434 64.5348 30.2441 64.4389 30.4926 64.2472C30.7412 64.053 30.9306 63.7867 31.0608 63.4482C31.1934 63.1072 31.2597 62.7166 31.2597 62.2763C31.2597 61.8407 31.1946 61.456 31.0644 61.1222C30.9342 60.786 30.7448 60.5232 30.4962 60.3338C30.2476 60.142 29.9458 60.0462 29.5906 60.0462C29.2261 60.0462 28.9183 60.1456 28.6673 60.3445C28.4188 60.541 28.2294 60.8073 28.0992 61.1435C27.9713 61.4796 27.9074 61.8572 27.9074 62.2763C27.9074 62.7 27.9725 63.0824 28.1027 63.4233C28.2329 63.7642 28.4223 64.0353 28.6709 64.2365C28.9218 64.4354 29.2284 64.5348 29.5906 64.5348ZM35.8904 65.1136C35.3814 65.1136 34.941 64.9953 34.5693 64.7585C34.1977 64.5194 33.91 64.1892 33.7064 63.7678C33.5052 63.344 33.4046 62.8563 33.4046 62.3047C33.4046 61.7554 33.5052 61.2678 33.7064 60.8416C33.91 60.4131 34.1905 60.0781 34.548 59.8366C34.9079 59.5928 35.3234 59.4709 35.7945 59.4709C36.0904 59.4709 36.3757 59.5253 36.6503 59.6342C36.9249 59.7408 37.1711 59.9053 37.3889 60.1278C37.6091 60.348 37.7831 60.6262 37.911 60.9624C38.0388 61.2962 38.1027 61.6915 38.1027 62.1484V62.4609H33.8414V61.9034H37.4564C37.4564 61.553 37.3854 61.2382 37.2433 60.9588C37.1037 60.6771 36.9084 60.4545 36.6574 60.2912C36.4088 60.1278 36.1212 60.0462 35.7945 60.0462C35.4488 60.0462 35.1446 60.1385 34.8818 60.3232C34.6191 60.5078 34.4131 60.7517 34.2639 61.0547C34.1172 61.3577 34.0426 61.6892 34.0402 62.049V62.3828C34.0402 62.8161 34.1148 63.1948 34.2639 63.5192C34.4155 63.8411 34.6297 64.0909 34.9067 64.2685C35.1837 64.446 35.5116 64.5348 35.8904 64.5348C36.1484 64.5348 36.3745 64.4946 36.5686 64.4141C36.7651 64.3336 36.9297 64.2259 37.0622 64.0909C37.1972 63.9536 37.299 63.8033 37.3676 63.6399L37.9678 63.8352C37.8849 64.0649 37.7488 64.2768 37.5594 64.4709C37.3724 64.665 37.138 64.8213 36.8563 64.9396C36.5769 65.0556 36.2549 65.1136 35.8904 65.1136ZM41.6441 59.5455V60.0959H39.0411V59.5455H41.6441ZM39.8543 58.2386H40.49V63.576C40.49 63.8033 40.529 63.982 40.6072 64.1122C40.6853 64.2401 40.7871 64.3312 40.9126 64.3857C41.038 64.4377 41.1718 64.4638 41.3138 64.4638C41.3967 64.4638 41.4677 64.459 41.5269 64.4496C41.5861 64.4377 41.6382 64.4259 41.6831 64.4141L41.8181 64.9858C41.7565 65.0095 41.6808 65.0308 41.5908 65.0497C41.5009 65.071 41.3896 65.0817 41.257 65.0817C41.025 65.0817 40.8013 65.0308 40.5858 64.929C40.3728 64.8272 40.1976 64.6757 40.0603 64.4744C39.923 64.2732 39.8543 64.0234 39.8543 63.7251V58.2386ZM44.6031 65.1243C44.274 65.1243 43.9733 65.0604 43.7011 64.9325C43.4288 64.8023 43.2122 64.6153 43.0512 64.3714C42.8902 64.1252 42.8097 63.8269 42.8097 63.4766C42.8097 63.2067 42.8606 62.9794 42.9624 62.7947C43.0642 62.6101 43.2087 62.4586 43.3957 62.3402C43.5827 62.2218 43.8041 62.1283 44.0597 62.0597C44.3154 61.991 44.5972 61.9377 44.9049 61.8999C45.2103 61.862 45.4684 61.8288 45.6791 61.8004C45.8921 61.772 46.0543 61.727 46.1656 61.6655C46.2768 61.6039 46.3325 61.5045 46.3325 61.3672V61.2393C46.3325 60.8677 46.2212 60.5753 45.9987 60.3622C45.7785 60.1468 45.4613 60.0391 45.047 60.0391C44.654 60.0391 44.3332 60.1255 44.0846 60.2983C43.8384 60.4711 43.6656 60.6747 43.5661 60.9091L42.966 60.6925C43.0891 60.3942 43.2596 60.1562 43.4774 59.9787C43.6952 59.7988 43.939 59.6697 44.2089 59.5916C44.4788 59.5111 44.7522 59.4709 45.0292 59.4709C45.2375 59.4709 45.4542 59.4981 45.6791 59.5526C45.9063 59.607 46.117 59.7017 46.3112 59.8366C46.5053 59.9692 46.6627 60.1551 46.7835 60.3942C46.9042 60.6309 46.9646 60.9316 46.9646 61.2962V65H46.3325V64.1371H46.2934C46.2177 64.2981 46.1052 64.4543 45.9561 64.6058C45.8069 64.7573 45.6199 64.8816 45.395 64.9787C45.1701 65.0758 44.9061 65.1243 44.6031 65.1243ZM44.6883 64.5455C45.0245 64.5455 45.3157 64.4709 45.5619 64.3217C45.8081 64.1726 45.9975 63.9749 46.1301 63.7287C46.265 63.4801 46.3325 63.2067 46.3325 62.9084V62.12C46.2851 62.165 46.2058 62.2053 46.0945 62.2408C45.9856 62.2763 45.859 62.3082 45.7146 62.3366C45.5725 62.3627 45.4305 62.3852 45.2884 62.4041C45.1464 62.4231 45.0186 62.4396 44.9049 62.4538C44.5972 62.4917 44.3344 62.5509 44.1166 62.6314C43.8988 62.7119 43.7319 62.8232 43.6159 62.9652C43.4999 63.1049 43.4419 63.2848 43.4419 63.505C43.4419 63.8364 43.5602 64.0933 43.797 64.2756C44.0337 64.4555 44.3308 64.5455 44.6883 64.5455ZM48.6531 65V59.5455H49.2888V65H48.6531ZM48.9763 58.608C48.8461 58.608 48.7348 58.5642 48.6425 58.4766C48.5502 58.3866 48.504 58.2789 48.504 58.1534C48.504 58.0279 48.5502 57.9214 48.6425 57.8338C48.7348 57.7438 48.8461 57.6989 48.9763 57.6989C49.1065 57.6989 49.2178 57.7438 49.3101 57.8338C49.4024 57.9214 49.4486 58.0279 49.4486 58.1534C49.4486 58.2789 49.4024 58.3866 49.3101 58.4766C49.2178 58.5642 49.1065 58.608 48.9763 58.608ZM54.6253 60.7422L54.0464 60.9055C53.9896 60.7422 53.9091 60.5942 53.805 60.4616C53.7008 60.3291 53.5647 60.2237 53.3966 60.1456C53.2309 60.0675 53.0249 60.0284 52.7787 60.0284C52.4094 60.0284 52.1063 60.116 51.8696 60.2912C51.6328 60.4664 51.5145 60.6925 51.5145 60.9695C51.5145 61.2038 51.595 61.3944 51.7559 61.5412C51.9193 61.6856 52.1702 61.8004 52.5088 61.8857L53.3327 62.0881C53.7896 62.1993 54.1317 62.3757 54.3589 62.6172C54.5886 62.8587 54.7034 63.1617 54.7034 63.5263C54.7034 63.834 54.6182 64.1075 54.4477 64.3466C54.2773 64.5857 54.0393 64.7739 53.7339 64.9112C53.4309 65.0462 53.0793 65.1136 52.6792 65.1136C52.1466 65.1136 51.7074 64.9941 51.3618 64.755C51.0161 64.5135 50.7948 64.1655 50.6977 63.7109L51.305 63.5618C51.3831 63.8861 51.5358 64.1312 51.7631 64.2969C51.9927 64.4626 52.2945 64.5455 52.6686 64.5455C53.0876 64.5455 53.4226 64.4519 53.6736 64.2649C53.9245 64.0755 54.05 63.8388 54.05 63.5547C54.05 63.3345 53.9766 63.1499 53.8298 63.0007C53.683 62.8492 53.4605 62.7379 53.1622 62.6669L52.2709 62.4538C51.7974 62.3402 51.447 62.1603 51.2197 61.9141C50.9925 61.6679 50.8788 61.3625 50.8788 60.9979C50.8788 60.6972 50.9605 60.4332 51.1238 60.206C51.2872 59.9763 51.5121 59.7964 51.7986 59.6662C52.085 59.536 52.4117 59.4709 52.7787 59.4709C53.2782 59.4709 53.6771 59.5845 53.9754 59.8118C54.2761 60.0367 54.4927 60.3468 54.6253 60.7422ZM56.7195 57.7273V65H56.0874V57.7273H56.7195ZM59.4433 64.0057L59.3794 64.3857C59.3391 64.6413 59.2823 64.9231 59.2089 65.2308C59.1355 65.5386 59.0597 65.831 58.9816 66.108C58.9035 66.3849 58.836 66.6075 58.7792 66.7756H58.2927C58.3235 66.6146 58.3625 66.4098 58.4099 66.1612C58.4596 65.9126 58.5105 65.6368 58.5626 65.3338C58.6147 65.0331 58.662 64.723 58.7046 64.4034L58.7544 64.0057H59.4433ZM66.1345 65.1136C65.6255 65.1136 65.1852 64.9953 64.8135 64.7585C64.4418 64.5194 64.1541 64.1892 63.9506 63.7678C63.7493 63.344 63.6487 62.8563 63.6487 62.3047C63.6487 61.7554 63.7493 61.2678 63.9506 60.8416C64.1541 60.4131 64.4347 60.0781 64.7922 59.8366C65.152 59.5928 65.5675 59.4709 66.0386 59.4709C66.3345 59.4709 66.6198 59.5253 66.8944 59.6342C67.1691 59.7408 67.4153 59.9053 67.6331 60.1278C67.8532 60.348 68.0273 60.6262 68.1551 60.9624C68.2829 61.2962 68.3469 61.6915 68.3469 62.1484V62.4609H64.0855V61.9034H67.7006C67.7006 61.553 67.6295 61.2382 67.4875 60.9588C67.3478 60.6771 67.1525 60.4545 66.9015 60.2912C66.653 60.1278 66.3653 60.0462 66.0386 60.0462C65.693 60.0462 65.3888 60.1385 65.126 60.3232C64.8632 60.5078 64.6572 60.7517 64.5081 61.0547C64.3613 61.3577 64.2867 61.6892 64.2844 62.049V62.3828C64.2844 62.8161 64.3589 63.1948 64.5081 63.5192C64.6596 63.8411 64.8738 64.0909 65.1508 64.2685C65.4278 64.446 65.7557 64.5348 66.1345 64.5348C66.3925 64.5348 66.6186 64.4946 66.8128 64.4141C67.0093 64.3336 67.1738 64.2259 67.3064 64.0909C67.4413 63.9536 67.5431 63.8033 67.6118 63.6399L68.2119 63.8352C68.1291 64.0649 67.9929 64.2768 67.8035 64.4709C67.6165 64.665 67.3821 64.8213 67.1004 64.9396C66.8211 65.0556 66.4991 65.1136 66.1345 65.1136ZM70.2441 65.0533C70.1044 65.0533 69.9836 65.0036 69.8818 64.9041C69.7824 64.8023 69.7327 64.6816 69.7327 64.5419C69.7327 64.3999 69.7824 64.2791 69.8818 64.1797C69.9836 64.0803 70.1044 64.0305 70.2441 64.0305C70.3861 64.0305 70.5068 64.0803 70.6063 64.1797C70.7057 64.2791 70.7554 64.3999 70.7554 64.5419C70.7554 64.6342 70.7317 64.7195 70.6844 64.7976C70.6394 64.8757 70.5779 64.9384 70.4997 64.9858C70.424 65.0308 70.3387 65.0533 70.2441 65.0533ZM74.5063 67.1591C74.1346 67.1591 73.8091 67.1106 73.5297 67.0135C73.2504 66.9188 73.0148 66.7886 72.8231 66.6229C72.6313 66.4571 72.4822 66.2713 72.3756 66.0653L72.8941 65.7244C72.9722 65.8617 73.0764 65.9967 73.2066 66.1293C73.3392 66.2618 73.5108 66.3719 73.7215 66.4595C73.9346 66.5471 74.1962 66.5909 74.5063 66.5909C74.9893 66.5909 75.3787 66.4702 75.6746 66.2287C75.9729 65.9872 76.1221 65.612 76.1221 65.103V63.8743H76.0653C75.9919 64.04 75.8865 64.2057 75.7492 64.3714C75.6119 64.5348 75.432 64.6709 75.2094 64.7798C74.9893 64.8887 74.7158 64.9432 74.3891 64.9432C73.9535 64.9432 73.5664 64.8355 73.2279 64.62C72.8917 64.4046 72.6266 64.0968 72.4324 63.6967C72.2407 63.2943 72.1448 62.8149 72.1448 62.2585C72.1448 61.7069 72.2383 61.2216 72.4253 60.8026C72.6147 60.3835 72.8787 60.0568 73.2172 59.8224C73.5558 59.5881 73.95 59.4709 74.3998 59.4709C74.7336 59.4709 75.0106 59.5301 75.2307 59.6484C75.4509 59.7644 75.6273 59.9089 75.7599 60.0817C75.8948 60.2545 76.0001 60.4226 76.0759 60.5859H76.1398V59.5455H76.7577V65.142C76.7577 65.6037 76.6595 65.9837 76.463 66.282C76.2665 66.5803 75.999 66.8004 75.6604 66.9425C75.3219 67.0869 74.9372 67.1591 74.5063 67.1591ZM74.4637 64.3643C74.8141 64.3643 75.1135 64.2803 75.3621 64.1122C75.6107 63.9418 75.8013 63.6979 75.9339 63.3807C76.0664 63.0634 76.1327 62.6858 76.1327 62.2479C76.1327 61.8217 76.0676 61.4441 75.9374 61.1151C75.8072 60.7836 75.6178 60.5232 75.3692 60.3338C75.123 60.142 74.8212 60.0462 74.4637 60.0462C74.0991 60.0462 73.7913 60.1444 73.5404 60.3409C73.2894 60.5374 73.1001 60.8026 72.9722 61.1364C72.8444 61.4678 72.7805 61.8383 72.7805 62.2479C72.7805 62.6645 72.8456 63.0327 72.9758 63.3523C73.106 63.6695 73.2965 63.9181 73.5475 64.098C73.7984 64.2756 74.1038 64.3643 74.4637 64.3643ZM78.9355 65.0533C78.7958 65.0533 78.675 65.0036 78.5732 64.9041C78.4738 64.8023 78.4241 64.6816 78.4241 64.5419C78.4241 64.3999 78.4738 64.2791 78.5732 64.1797C78.675 64.0803 78.7958 64.0305 78.9355 64.0305C79.0775 64.0305 79.1982 64.0803 79.2977 64.1797C79.3971 64.2791 79.4468 64.3999 79.4468 64.5419C79.4468 64.6342 79.4231 64.7195 79.3758 64.7976C79.3308 64.8757 79.2693 64.9384 79.1911 64.9858C79.1154 65.0308 79.0302 65.0533 78.9355 65.0533ZM18.1782 77.1136C17.7307 77.1136 17.3389 76.9953 17.0028 76.7585C16.6666 76.5218 16.4038 76.1915 16.2144 75.7678C16.0274 75.344 15.9339 74.8504 15.9339 74.2869C15.9339 73.7259 16.0274 73.2346 16.2144 72.8132C16.4038 72.3894 16.6678 72.0604 17.0063 71.826C17.3448 71.5893 17.739 71.4709 18.1888 71.4709C18.5203 71.4709 18.7961 71.5301 19.0162 71.6484C19.2364 71.7644 19.4128 71.9089 19.5454 72.0817C19.6779 72.2545 19.7809 72.4226 19.8543 72.5859H19.9111V69.7273H20.5468V77H19.9289V75.9879H19.8543C19.7809 76.1536 19.6768 76.3241 19.5418 76.4993C19.4069 76.6721 19.2281 76.8177 19.0056 76.9361C18.7854 77.0545 18.5096 77.1136 18.1782 77.1136ZM18.2528 76.5348C18.6055 76.5348 18.9062 76.4389 19.1547 76.2472C19.4033 76.053 19.5927 75.7867 19.7229 75.4482C19.8555 75.1072 19.9218 74.7166 19.9218 74.2763C19.9218 73.8407 19.8567 73.456 19.7265 73.1222C19.5963 72.786 19.4069 72.5232 19.1583 72.3338C18.9097 72.142 18.6079 72.0462 18.2528 72.0462C17.8882 72.0462 17.5804 72.1456 17.3295 72.3445C17.0809 72.541 16.8915 72.8073 16.7613 73.1435C16.6334 73.4796 16.5695 73.8572 16.5695 74.2763C16.5695 74.7 16.6346 75.0824 16.7648 75.4233C16.895 75.7642 17.0844 76.0353 17.333 76.2365C17.584 76.4354 17.8905 76.5348 18.2528 76.5348ZM22.3543 77V71.5455H22.99V77H22.3543ZM22.6775 70.608C22.5473 70.608 22.436 70.5642 22.3437 70.4766C22.2513 70.3866 22.2052 70.2789 22.2052 70.1534C22.2052 70.0279 22.2513 69.9214 22.3437 69.8338C22.436 69.7438 22.5473 69.6989 22.6775 69.6989C22.8077 69.6989 22.9189 69.7438 23.0113 69.8338C23.1036 69.9214 23.1498 70.0279 23.1498 70.1534C23.1498 70.2789 23.1036 70.3866 23.0113 70.4766C22.9189 70.5642 22.8077 70.608 22.6775 70.608ZM26.906 71.5455V72.0959H24.2249V71.5455H26.906ZM25.0629 77V70.7464C25.0629 70.4529 25.1304 70.2055 25.2654 70.0043C25.4027 69.803 25.5814 69.6503 25.8016 69.5462C26.0218 69.442 26.2549 69.3899 26.5012 69.3899C26.6669 69.3899 26.8042 69.4041 26.9131 69.4325C27.0244 69.4586 27.1119 69.4846 27.1759 69.5107L26.9912 70.0646C26.9439 70.0504 26.8859 70.0339 26.8172 70.0149C26.7486 69.996 26.6621 69.9865 26.558 69.9865C26.2834 69.9865 26.0715 70.0634 25.9223 70.2173C25.7732 70.3712 25.6986 70.5914 25.6986 70.8778L25.695 77H25.0629ZM30.4118 71.5455V72.0959H27.7307V71.5455H30.4118ZM28.5688 77V70.7464C28.5688 70.4529 28.6363 70.2055 28.7712 70.0043C28.9085 69.803 29.0873 69.6503 29.3074 69.5462C29.5276 69.442 29.7608 69.3899 30.007 69.3899C30.1727 69.3899 30.31 69.4041 30.4189 69.4325C30.5302 69.4586 30.6178 69.4846 30.6817 69.5107L30.4971 70.0646C30.4497 70.0504 30.3917 70.0339 30.3231 70.0149C30.2544 69.996 30.168 69.9865 30.0638 69.9865C29.7892 69.9865 29.5773 70.0634 29.4282 70.2173C29.279 70.3712 29.2045 70.5914 29.2045 70.8778L29.2009 77H28.5688ZM31.6805 77V71.5455H32.3161V77H31.6805ZM32.0036 70.608C31.8734 70.608 31.7622 70.5642 31.6698 70.4766C31.5775 70.3866 31.5313 70.2789 31.5313 70.1534C31.5313 70.0279 31.5775 69.9214 31.6698 69.8338C31.7622 69.7438 31.8734 69.6989 32.0036 69.6989C32.1338 69.6989 32.2451 69.7438 32.3374 69.8338C32.4298 69.9214 32.4759 70.0279 32.4759 70.1534C32.4759 70.2789 32.4298 70.3866 32.3374 70.4766C32.2451 70.5642 32.1338 70.608 32.0036 70.608ZM36.1185 77.1136C35.6308 77.1136 35.2059 76.9917 34.8437 76.7479C34.4838 76.504 34.2045 76.1702 34.0056 75.7464C33.8067 75.3227 33.7073 74.8397 33.7073 74.2976C33.7073 73.7507 33.8079 73.2642 34.0091 72.8381C34.2127 72.4119 34.4945 72.0781 34.8543 71.8366C35.2142 71.5928 35.632 71.4709 36.1079 71.4709C36.4724 71.4709 36.8027 71.5419 37.0986 71.6839C37.3946 71.8236 37.6384 72.0213 37.8302 72.277C38.0243 72.5303 38.1462 72.8262 38.1959 73.1648H37.5567C37.4904 72.857 37.3306 72.5942 37.0773 72.3764C36.8264 72.1562 36.5068 72.0462 36.1185 72.0462C35.7705 72.0462 35.4627 72.1409 35.1952 72.3303C34.9277 72.5173 34.7182 72.7789 34.5667 73.1151C34.4175 73.4489 34.343 73.8359 34.343 74.2763C34.343 74.719 34.4163 75.1108 34.5631 75.4517C34.7099 75.7902 34.9159 76.0554 35.181 76.2472C35.4485 76.4389 35.761 76.5348 36.1185 76.5348C36.36 76.5348 36.5802 76.4898 36.779 76.3999C36.9803 76.3075 37.1483 76.1773 37.2833 76.0092C37.4206 75.8411 37.5129 75.6411 37.5603 75.4091H38.1995C38.1521 75.7382 38.0349 76.0317 37.8479 76.2898C37.6633 76.5455 37.423 76.7467 37.127 76.8935C36.8335 77.0402 36.4973 77.1136 36.1185 77.1136ZM43.0202 74.9155V71.5455H43.6523V77H43.0202V76.0945H42.9704C42.8426 76.3738 42.6402 76.607 42.3632 76.794C42.0862 76.9787 41.7477 77.071 41.3476 77.071C40.9996 77.071 40.6906 76.9953 40.4207 76.8438C40.1508 76.6899 39.939 76.465 39.7851 76.169C39.6312 75.8731 39.5542 75.5097 39.5542 75.0788V71.5455H40.1863V75.0398C40.1863 75.4659 40.3118 75.8092 40.5628 76.0696C40.8137 76.3277 41.1357 76.4567 41.5287 76.4567C41.7749 76.4567 42.0116 76.3975 42.2389 76.2791C42.4662 76.1607 42.6532 75.9879 42.8 75.7607C42.9468 75.531 43.0202 75.2493 43.0202 74.9155ZM45.9578 69.7273V77H45.3257V69.7273H45.9578ZM49.7789 71.5455V72.0959H47.1759V71.5455H49.7789ZM47.9891 70.2386H48.6247V75.576C48.6247 75.8033 48.6638 75.982 48.7419 76.1122C48.82 76.2401 48.9218 76.3312 49.0473 76.3857C49.1728 76.4377 49.3066 76.4638 49.4486 76.4638C49.5315 76.4638 49.6025 76.459 49.6617 76.4496C49.7209 76.4377 49.7729 76.4259 49.8179 76.4141L49.9529 76.9858C49.8913 77.0095 49.8155 77.0308 49.7256 77.0497C49.6356 77.071 49.5244 77.0817 49.3918 77.0817C49.1598 77.0817 48.936 77.0308 48.7206 76.929C48.5075 76.8272 48.3324 76.6757 48.195 76.4744C48.0577 76.2732 47.9891 76.0234 47.9891 75.7251V70.2386ZM51.6547 79.0455C51.5293 79.0455 51.4121 79.0336 51.3032 79.0099C51.1943 78.9863 51.1079 78.9602 51.0439 78.9318L51.2144 78.3743C51.4298 78.4406 51.6216 78.4643 51.7897 78.4453C51.9578 78.4287 52.1069 78.353 52.2371 78.218C52.3673 78.0855 52.4833 77.8819 52.5851 77.6072L52.784 77.0533L50.7776 71.5455H51.463L53.0823 76.1655H53.132L54.7513 71.5455H55.4367L53.1285 77.8629C53.0314 78.1257 52.9118 78.3447 52.7698 78.5199C52.6278 78.6974 52.4632 78.8288 52.2762 78.9141C52.0915 79.0017 51.8844 79.0455 51.6547 79.0455ZM61.4497 77.1136C61.0022 77.1136 60.6104 76.9953 60.2742 76.7585C59.9381 76.5218 59.6753 76.1915 59.4859 75.7678C59.2989 75.344 59.2053 74.8504 59.2053 74.2869C59.2053 73.7259 59.2989 73.2346 59.4859 72.8132C59.6753 72.3894 59.9392 72.0604 60.2778 71.826C60.6163 71.5893 61.0105 71.4709 61.4603 71.4709C61.7918 71.4709 62.0676 71.5301 62.2877 71.6484C62.5079 71.7644 62.6843 71.9089 62.8169 72.0817C62.9494 72.2545 63.0524 72.4226 63.1258 72.5859H63.1826V69.7273H63.8183V77H63.2004V75.9879H63.1258C63.0524 76.1536 62.9482 76.3241 62.8133 76.4993C62.6784 76.6721 62.4996 76.8177 62.2771 76.9361C62.0569 77.0545 61.7811 77.1136 61.4497 77.1136ZM61.5242 76.5348C61.877 76.5348 62.1776 76.4389 62.4262 76.2472C62.6748 76.053 62.8642 75.7867 62.9944 75.4482C63.127 75.1072 63.1933 74.7166 63.1933 74.2763C63.1933 73.8407 63.1282 73.456 62.998 73.1222C62.8677 72.786 62.6784 72.5232 62.4298 72.3338C62.1812 72.142 61.8794 72.0462 61.5242 72.0462C61.1597 72.0462 60.8519 72.1456 60.6009 72.3445C60.3524 72.541 60.163 72.8073 60.0328 73.1435C59.9049 73.4796 59.841 73.8572 59.841 74.2763C59.841 74.7 59.9061 75.0824 60.0363 75.4233C60.1665 75.7642 60.3559 76.0353 60.6045 76.2365C60.8554 76.4354 61.162 76.5348 61.5242 76.5348ZM67.824 77.1136C67.315 77.1136 66.8746 76.9953 66.5029 76.7585C66.1312 76.5194 65.8436 76.1892 65.64 75.7678C65.4388 75.344 65.3382 74.8563 65.3382 74.3047C65.3382 73.7554 65.4388 73.2678 65.64 72.8416C65.8436 72.4131 66.1241 72.0781 66.4816 71.8366C66.8415 71.5928 67.257 71.4709 67.7281 71.4709C68.024 71.4709 68.3093 71.5253 68.5839 71.6342C68.8585 71.7408 69.1047 71.9053 69.3225 72.1278C69.5427 72.348 69.7167 72.6262 69.8445 72.9624C69.9724 73.2962 70.0363 73.6915 70.0363 74.1484V74.4609H65.7749V73.9034H69.39C69.39 73.553 69.319 73.2382 69.1769 72.9588C69.0373 72.6771 68.8419 72.4545 68.591 72.2912C68.3424 72.1278 68.0548 72.0462 67.7281 72.0462C67.3824 72.0462 67.0782 72.1385 66.8154 72.3232C66.5526 72.5078 66.3467 72.7517 66.1975 73.0547C66.0508 73.3577 65.9762 73.6892 65.9738 74.049V74.3828C65.9738 74.8161 66.0484 75.1948 66.1975 75.5192C66.349 75.8411 66.5633 76.0909 66.8403 76.2685C67.1173 76.446 67.4452 76.5348 67.824 76.5348C68.082 76.5348 68.3081 76.4946 68.5022 76.4141C68.6987 76.3336 68.8633 76.2259 68.9958 76.0909C69.1308 75.9536 69.2326 75.8033 69.3012 75.6399L69.9014 75.8352C69.8185 76.0649 69.6824 76.2768 69.493 76.4709C69.306 76.665 69.0716 76.8213 68.7899 76.9396C68.5105 77.0556 68.1885 77.1136 67.824 77.1136ZM73.5102 79.1591C73.1385 79.1591 72.813 79.1106 72.5336 79.0135C72.2543 78.9188 72.0187 78.7886 71.827 78.6229C71.6352 78.4571 71.4861 78.2713 71.3795 78.0653L71.898 77.7244C71.9761 77.8617 72.0803 77.9967 72.2105 78.1293C72.3431 78.2618 72.5147 78.3719 72.7254 78.4595C72.9385 78.5471 73.2001 78.5909 73.5102 78.5909C73.9932 78.5909 74.3826 78.4702 74.6785 78.2287C74.9768 77.9872 75.126 77.612 75.126 77.103V75.8743H75.0692C74.9958 76.04 74.8904 76.2057 74.7531 76.3714C74.6158 76.5348 74.4359 76.6709 74.2133 76.7798C73.9932 76.8887 73.7197 76.9432 73.393 76.9432C72.9574 76.9432 72.5703 76.8355 72.2318 76.62C71.8956 76.4046 71.6305 76.0968 71.4363 75.6967C71.2446 75.2943 71.1487 74.8149 71.1487 74.2585C71.1487 73.7069 71.2422 73.2216 71.4292 72.8026C71.6186 72.3835 71.8826 72.0568 72.2211 71.8224C72.5597 71.5881 72.9539 71.4709 73.4037 71.4709C73.7375 71.4709 74.0145 71.5301 74.2346 71.6484C74.4548 71.7644 74.6312 71.9089 74.7638 72.0817C74.8987 72.2545 75.0041 72.4226 75.0798 72.5859H75.1437V71.5455H75.7616V77.142C75.7616 77.6037 75.6634 77.9837 75.4669 78.282C75.2704 78.5803 75.0029 78.8004 74.6643 78.9425C74.3258 79.0869 73.9411 79.1591 73.5102 79.1591ZM73.4676 76.3643C73.818 76.3643 74.1175 76.2803 74.366 76.1122C74.6146 75.9418 74.8052 75.6979 74.9378 75.3807C75.0703 75.0634 75.1366 74.6858 75.1366 74.2479C75.1366 73.8217 75.0715 73.4441 74.9413 73.1151C74.8111 72.7836 74.6217 72.5232 74.3731 72.3338C74.1269 72.142 73.8251 72.0462 73.4676 72.0462C73.103 72.0462 72.7952 72.1444 72.5443 72.3409C72.2934 72.5374 72.104 72.8026 71.9761 73.1364C71.8483 73.4678 71.7844 73.8383 71.7844 74.2479C71.7844 74.6645 71.8495 75.0327 71.9797 75.3523C72.1099 75.6695 72.3005 75.9181 72.5514 76.098C72.8023 76.2756 73.1077 76.3643 73.4676 76.3643ZM77.4351 77V71.5455H78.0494V72.3835H78.0956C78.2045 72.1089 78.3939 71.8875 78.6638 71.7195C78.936 71.549 79.2438 71.4638 79.5871 71.4638C79.6392 71.4638 79.6972 71.465 79.7611 71.4673C79.825 71.4697 79.8783 71.4721 79.9209 71.4744V72.1172C79.8925 72.1125 79.8428 72.1054 79.7718 72.0959C79.7007 72.0864 79.6238 72.0817 79.5409 72.0817C79.2568 72.0817 79.0035 72.142 78.781 72.2628C78.5608 72.3812 78.3868 72.5457 78.259 72.7564C78.1311 72.9671 78.0672 73.2074 78.0672 73.4773V77H77.4351ZM83.0388 77.1136C82.5298 77.1136 82.0895 76.9953 81.7178 76.7585C81.3461 76.5194 81.0584 76.1892 80.8548 75.7678C80.6536 75.344 80.553 74.8563 80.553 74.3047C80.553 73.7554 80.6536 73.2678 80.8548 72.8416C81.0584 72.4131 81.339 72.0781 81.6965 71.8366C82.0563 71.5928 82.4718 71.4709 82.9429 71.4709C83.2388 71.4709 83.5241 71.5253 83.7987 71.6342C84.0734 71.7408 84.3196 71.9053 84.5374 72.1278C84.7575 72.348 84.9316 72.6262 85.0594 72.9624C85.1872 73.2962 85.2512 73.6915 85.2512 74.1484V74.4609H80.9898V73.9034H84.6048C84.6048 73.553 84.5338 73.2382 84.3918 72.9588C84.2521 72.6771 84.0568 72.4545 83.8058 72.2912C83.5573 72.1278 83.2696 72.0462 82.9429 72.0462C82.5973 72.0462 82.2931 72.1385 82.0303 72.3232C81.7675 72.5078 81.5615 72.7517 81.4124 73.0547C81.2656 73.3577 81.191 73.6892 81.1887 74.049V74.3828C81.1887 74.8161 81.2632 75.1948 81.4124 75.5192C81.5639 75.8411 81.7781 76.0909 82.0551 76.2685C82.3321 76.446 82.66 76.5348 83.0388 76.5348C83.2968 76.5348 83.5229 76.4946 83.7171 76.4141C83.9136 76.3336 84.0781 76.2259 84.2107 76.0909C84.3456 75.9536 84.4474 75.8033 84.5161 75.6399L85.1162 75.8352C85.0334 76.0649 84.8972 76.2768 84.7078 76.4709C84.5208 76.665 84.2864 76.8213 84.0047 76.9396C83.7253 77.0556 83.4034 77.1136 83.0388 77.1136ZM88.8493 77.1136C88.3403 77.1136 87.9 76.9953 87.5283 76.7585C87.1566 76.5194 86.869 76.1892 86.6654 75.7678C86.4642 75.344 86.3635 74.8563 86.3635 74.3047C86.3635 73.7554 86.4642 73.2678 86.6654 72.8416C86.869 72.4131 87.1495 72.0781 87.507 71.8366C87.8669 71.5928 88.2823 71.4709 88.7535 71.4709C89.0494 71.4709 89.3347 71.5253 89.6093 71.6342C89.8839 71.7408 90.1301 71.9053 90.3479 72.1278C90.5681 72.348 90.7421 72.6262 90.8699 72.9624C90.9978 73.2962 91.0617 73.6915 91.0617 74.1484V74.4609H86.8003V73.9034H90.4154C90.4154 73.553 90.3444 73.2382 90.2023 72.9588C90.0626 72.6771 89.8673 72.4545 89.6164 72.2912C89.3678 72.1278 89.0802 72.0462 88.7535 72.0462C88.4078 72.0462 88.1036 72.1385 87.8408 72.3232C87.578 72.5078 87.3721 72.7517 87.2229 73.0547C87.0761 73.3577 87.0016 73.6892 86.9992 74.049V74.3828C86.9992 74.8161 87.0738 75.1948 87.2229 75.5192C87.3744 75.8411 87.5887 76.0909 87.8657 76.2685C88.1427 76.446 88.4706 76.5348 88.8493 76.5348C89.1074 76.5348 89.3335 76.4946 89.5276 76.4141C89.7241 76.3336 89.8886 76.2259 90.0212 76.0909C90.1562 75.9536 90.258 75.8033 90.3266 75.6399L90.9268 75.8352C90.8439 76.0649 90.7078 76.2768 90.5184 76.4709C90.3314 76.665 90.097 76.8213 89.8153 76.9396C89.5359 77.0556 89.2139 77.1136 88.8493 77.1136Z" fill="#222222"/>
</svg>
