<svg width="118" height="118" viewBox="0 0 118 118" fill="none" xmlns="http://www.w3.org/2000/svg">
<g filter="url(#filter0_d_893_411)">
<rect x="4" width="110" height="110" fill="#FCDC4A"/>
<path d="M24.4815 20.7273H25.2486L27.8871 27.0625H27.951L30.5895 20.7273H31.3565V28H30.7315V22.13H30.6747L28.2209 28H27.6172L25.1634 22.13H25.1065V28H24.4815V20.7273ZM35.2788 28.1136C34.8076 28.1136 34.391 27.9941 34.0288 27.755C33.6689 27.5159 33.3872 27.1856 33.1836 26.7642C32.98 26.3404 32.8782 25.8516 32.8782 25.2976C32.8782 24.7389 32.98 24.2476 33.1836 23.8239C33.3872 23.3977 33.6689 23.0663 34.0288 22.8295C34.391 22.5904 34.8076 22.4709 35.2788 22.4709C35.7499 22.4709 36.1654 22.5904 36.5252 22.8295C36.8851 23.0687 37.1668 23.4001 37.3704 23.8239C37.5763 24.2476 37.6793 24.7389 37.6793 25.2976C37.6793 25.8516 37.5775 26.3404 37.3739 26.7642C37.1703 27.1856 36.8874 27.5159 36.5252 27.755C36.1654 27.9941 35.7499 28.1136 35.2788 28.1136ZM35.2788 27.5348C35.6576 27.5348 35.9783 27.433 36.2411 27.2294C36.5039 27.0258 36.7028 26.7547 36.8377 26.4162C36.975 26.0777 37.0437 25.7048 37.0437 25.2976C37.0437 24.8904 36.975 24.5163 36.8377 24.1754C36.7028 23.8345 36.5039 23.5611 36.2411 23.3551C35.9783 23.1491 35.6576 23.0462 35.2788 23.0462C34.9023 23.0462 34.5816 23.1491 34.3164 23.3551C34.0536 23.5611 33.8536 23.8345 33.7163 24.1754C33.5813 24.5163 33.5138 24.8904 33.5138 25.2976C33.5138 25.7048 33.5813 26.0777 33.7163 26.4162C33.8536 26.7547 34.0536 27.0258 34.3164 27.2294C34.5792 27.433 34.9 27.5348 35.2788 27.5348ZM42.7317 23.7422L42.1529 23.9055C42.0961 23.7422 42.0156 23.5942 41.9114 23.4616C41.8072 23.3291 41.6711 23.2237 41.503 23.1456C41.3373 23.0675 41.1313 23.0284 40.8851 23.0284C40.5158 23.0284 40.2128 23.116 39.976 23.2912C39.7393 23.4664 39.6209 23.6925 39.6209 23.9695C39.6209 24.2038 39.7014 24.3944 39.8624 24.5412C40.0257 24.6856 40.2767 24.8004 40.6152 24.8857L41.4391 25.0881C41.896 25.1993 42.2381 25.3757 42.4654 25.6172C42.695 25.8587 42.8098 26.1617 42.8098 26.5263C42.8098 26.834 42.7246 27.1075 42.5542 27.3466C42.3837 27.5857 42.1458 27.7739 41.8404 27.9112C41.5373 28.0462 41.1858 28.1136 40.7857 28.1136C40.253 28.1136 39.8139 27.9941 39.4682 27.755C39.1226 27.5135 38.9012 27.1655 38.8042 26.7109L39.4114 26.5618C39.4895 26.8861 39.6422 27.1312 39.8695 27.2969C40.0991 27.4626 40.401 27.5455 40.775 27.5455C41.1941 27.5455 41.5291 27.4519 41.78 27.2649C42.031 27.0755 42.1564 26.8388 42.1564 26.5547C42.1564 26.3345 42.083 26.1499 41.9363 26.0007C41.7895 25.8492 41.5669 25.7379 41.2686 25.6669L40.3773 25.4538C39.9038 25.3402 39.5534 25.1603 39.3262 24.9141C39.0989 24.6679 38.9853 24.3625 38.9853 23.9979C38.9853 23.6972 39.0669 23.4332 39.2303 23.206C39.3936 22.9763 39.6185 22.7964 39.905 22.6662C40.1915 22.536 40.5182 22.4709 40.8851 22.4709C41.3846 22.4709 41.7836 22.5845 42.0819 22.8118C42.3825 23.0367 42.5991 23.3468 42.7317 23.7422ZM46.3423 22.5455V23.0959H43.7393V22.5455H46.3423ZM44.5526 21.2386H45.1882V26.576C45.1882 26.8033 45.2273 26.982 45.3054 27.1122C45.3835 27.2401 45.4853 27.3312 45.6108 27.3857C45.7363 27.4377 45.87 27.4638 46.0121 27.4638C46.0949 27.4638 46.166 27.459 46.2251 27.4496C46.2843 27.4377 46.3364 27.4259 46.3814 27.4141L46.5163 27.9858C46.4548 28.0095 46.379 28.0308 46.2891 28.0497C46.1991 28.071 46.0878 28.0817 45.9553 28.0817C45.7232 28.0817 45.4995 28.0308 45.2841 27.929C45.071 27.8272 44.8958 27.6757 44.7585 27.4744C44.6212 27.2732 44.5526 27.0234 44.5526 26.7251V21.2386ZM52.7211 28.1136C52.2334 28.1136 51.8084 27.9917 51.4462 27.7479C51.0864 27.504 50.807 27.1702 50.6081 26.7464C50.4093 26.3227 50.3098 25.8397 50.3098 25.2976C50.3098 24.7507 50.4105 24.2642 50.6117 23.8381C50.8153 23.4119 51.097 23.0781 51.4569 22.8366C51.8167 22.5928 52.2346 22.4709 52.7104 22.4709C53.075 22.4709 53.4052 22.5419 53.7012 22.6839C53.9971 22.8236 54.2409 23.0213 54.4327 23.277C54.6268 23.5303 54.7488 23.8262 54.7985 24.1648H54.1593C54.093 23.857 53.9332 23.5942 53.6799 23.3764C53.4289 23.1562 53.1093 23.0462 52.7211 23.0462C52.373 23.0462 52.0653 23.1409 51.7978 23.3303C51.5302 23.5173 51.3207 23.7789 51.1692 24.1151C51.0201 24.4489 50.9455 24.8359 50.9455 25.2763C50.9455 25.719 51.0189 26.1108 51.1657 26.4517C51.3124 26.7902 51.5184 27.0554 51.7836 27.2472C52.0511 27.4389 52.3636 27.5348 52.7211 27.5348C52.9625 27.5348 53.1827 27.4898 53.3816 27.3999C53.5828 27.3075 53.7509 27.1773 53.8858 27.0092C54.0231 26.8411 54.1155 26.6411 54.1628 26.4091H54.802C54.7547 26.7382 54.6375 27.0317 54.4505 27.2898C54.2658 27.5455 54.0255 27.7467 53.7296 27.8935C53.436 28.0402 53.0998 28.1136 52.7211 28.1136ZM58.2768 28.1136C57.8057 28.1136 57.389 27.9941 57.0268 27.755C56.667 27.5159 56.3852 27.1856 56.1816 26.7642C55.978 26.3404 55.8762 25.8516 55.8762 25.2976C55.8762 24.7389 55.978 24.2476 56.1816 23.8239C56.3852 23.3977 56.667 23.0663 57.0268 22.8295C57.389 22.5904 57.8057 22.4709 58.2768 22.4709C58.7479 22.4709 59.1634 22.5904 59.5233 22.8295C59.8831 23.0687 60.1648 23.4001 60.3684 23.8239C60.5744 24.2476 60.6774 24.7389 60.6774 25.2976C60.6774 25.8516 60.5756 26.3404 60.372 26.7642C60.1684 27.1856 59.8855 27.5159 59.5233 27.755C59.1634 27.9941 58.7479 28.1136 58.2768 28.1136ZM58.2768 27.5348C58.6556 27.5348 58.9764 27.433 59.2392 27.2294C59.502 27.0258 59.7008 26.7547 59.8358 26.4162C59.9731 26.0777 60.0417 25.7048 60.0417 25.2976C60.0417 24.8904 59.9731 24.5163 59.8358 24.1754C59.7008 23.8345 59.502 23.5611 59.2392 23.3551C58.9764 23.1491 58.6556 23.0462 58.2768 23.0462C57.9004 23.0462 57.5796 23.1491 57.3145 23.3551C57.0517 23.5611 56.8516 23.8345 56.7143 24.1754C56.5794 24.5163 56.5119 24.8904 56.5119 25.2976C56.5119 25.7048 56.5794 26.0777 56.7143 26.4162C56.8516 26.7547 57.0517 27.0258 57.3145 27.2294C57.5772 27.433 57.898 27.5348 58.2768 27.5348ZM65.5309 25.9155V22.5455H66.163V28H65.5309V27.0945H65.4812C65.3533 27.3738 65.1509 27.607 64.8739 27.794C64.5969 27.9787 64.2584 28.071 63.8583 28.071C63.5103 28.071 63.2013 27.9953 62.9315 27.8438C62.6616 27.6899 62.4497 27.465 62.2958 27.169C62.1419 26.8731 62.065 26.5097 62.065 26.0788V22.5455H62.6971V26.0398C62.6971 26.4659 62.8226 26.8092 63.0735 27.0696C63.3245 27.3277 63.6464 27.4567 64.0394 27.4567C64.2856 27.4567 64.5224 27.3975 64.7496 27.2791C64.9769 27.1607 65.1639 26.9879 65.3107 26.7607C65.4575 26.531 65.5309 26.2493 65.5309 25.9155ZM67.8365 28V22.5455H68.4508V23.3835H68.497C68.6059 23.1089 68.7953 22.8875 69.0652 22.7195C69.3374 22.549 69.6452 22.4638 69.9885 22.4638C70.0405 22.4638 70.0985 22.465 70.1625 22.4673C70.2264 22.4697 70.2797 22.4721 70.3223 22.4744V23.1172C70.2939 23.1125 70.2441 23.1054 70.1731 23.0959C70.1021 23.0864 70.0252 23.0817 69.9423 23.0817C69.6582 23.0817 69.4049 23.142 69.1824 23.2628C68.9622 23.3812 68.7882 23.5457 68.6603 23.7564C68.5325 23.9671 68.4686 24.2074 68.4686 24.4773V28H67.8365ZM75.0657 23.7422L74.4869 23.9055C74.43 23.7422 74.3496 23.5942 74.2454 23.4616C74.1412 23.3291 74.0051 23.2237 73.837 23.1456C73.6713 23.0675 73.4653 23.0284 73.2191 23.0284C72.8498 23.0284 72.5468 23.116 72.31 23.2912C72.0733 23.4664 71.9549 23.6925 71.9549 23.9695C71.9549 24.2038 72.0354 24.3944 72.1964 24.5412C72.3597 24.6856 72.6107 24.8004 72.9492 24.8857L73.7731 25.0881C74.23 25.1993 74.5721 25.3757 74.7994 25.6172C75.029 25.8587 75.1438 26.1617 75.1438 26.5263C75.1438 26.834 75.0586 27.1075 74.8881 27.3466C74.7177 27.5857 74.4798 27.7739 74.1744 27.9112C73.8713 28.0462 73.5198 28.1136 73.1197 28.1136C72.587 28.1136 72.1478 27.9941 71.8022 27.755C71.4566 27.5135 71.2352 27.1655 71.1381 26.7109L71.7454 26.5618C71.8235 26.8861 71.9762 27.1312 72.2035 27.2969C72.4331 27.4626 72.735 27.5455 73.109 27.5455C73.5281 27.5455 73.863 27.4519 74.114 27.2649C74.3649 27.0755 74.4904 26.8388 74.4904 26.5547C74.4904 26.3345 74.417 26.1499 74.2702 26.0007C74.1235 25.8492 73.9009 25.7379 73.6026 25.6669L72.7113 25.4538C72.2378 25.3402 71.8874 25.1603 71.6602 24.9141C71.4329 24.6679 71.3192 24.3625 71.3192 23.9979C71.3192 23.6972 71.4009 23.4332 71.5643 23.206C71.7276 22.9763 71.9525 22.7964 72.239 22.6662C72.5254 22.536 72.8522 22.4709 73.2191 22.4709C73.7186 22.4709 74.1175 22.5845 74.4158 22.8118C74.7165 23.0367 74.9331 23.3468 75.0657 23.7422ZM78.7331 28.1136C78.2241 28.1136 77.7838 27.9953 77.4121 27.7585C77.0404 27.5194 76.7528 27.1892 76.5492 26.7678C76.348 26.344 76.2473 25.8563 76.2473 25.3047C76.2473 24.7554 76.348 24.2678 76.5492 23.8416C76.7528 23.4131 77.0333 23.0781 77.3908 22.8366C77.7507 22.5928 78.1661 22.4709 78.6373 22.4709C78.9332 22.4709 79.2185 22.5253 79.4931 22.6342C79.7677 22.7408 80.0139 22.9053 80.2317 23.1278C80.4519 23.348 80.6259 23.6262 80.7537 23.9624C80.8816 24.2962 80.9455 24.6915 80.9455 25.1484V25.4609H76.6841V24.9034H80.2992C80.2992 24.553 80.2282 24.2382 80.0861 23.9588C79.9464 23.6771 79.7511 23.4545 79.5002 23.2912C79.2516 23.1278 78.964 23.0462 78.6373 23.0462C78.2916 23.0462 77.9874 23.1385 77.7246 23.3232C77.4618 23.5078 77.2559 23.7517 77.1067 24.0547C76.9599 24.3577 76.8854 24.6892 76.883 25.049V25.3828C76.883 25.8161 76.9576 26.1948 77.1067 26.5192C77.2582 26.8411 77.4725 27.0909 77.7495 27.2685C78.0265 27.446 78.3543 27.5348 78.7331 27.5348C78.9912 27.5348 79.2173 27.4946 79.4114 27.4141C79.6079 27.3336 79.7724 27.2259 79.905 27.0909C80.04 26.9536 80.1417 26.8033 80.2104 26.6399L80.8105 26.8352C80.7277 27.0649 80.5916 27.2768 80.4022 27.4709C80.2151 27.665 79.9808 27.8213 79.699 27.9396C79.4197 28.0556 79.0977 28.1136 78.7331 28.1136ZM86.0032 23.7422L85.4244 23.9055C85.3675 23.7422 85.2871 23.5942 85.1829 23.4616C85.0787 23.3291 84.9426 23.2237 84.7745 23.1456C84.6088 23.0675 84.4028 23.0284 84.1566 23.0284C83.7873 23.0284 83.4843 23.116 83.2475 23.2912C83.0108 23.4664 82.8924 23.6925 82.8924 23.9695C82.8924 24.2038 82.9729 24.3944 83.1339 24.5412C83.2972 24.6856 83.5482 24.8004 83.8867 24.8857L84.7106 25.0881C85.1675 25.1993 85.5096 25.3757 85.7369 25.6172C85.9665 25.8587 86.0813 26.1617 86.0813 26.5263C86.0813 26.834 85.9961 27.1075 85.8256 27.3466C85.6552 27.5857 85.4173 27.7739 85.1119 27.9112C84.8088 28.0462 84.4573 28.1136 84.0572 28.1136C83.5245 28.1136 83.0853 27.9941 82.7397 27.755C82.3941 27.5135 82.1727 27.1655 82.0756 26.7109L82.6829 26.5618C82.761 26.8861 82.9137 27.1312 83.141 27.2969C83.3706 27.4626 83.6725 27.5455 84.0465 27.5455C84.4656 27.5455 84.8005 27.4519 85.0515 27.2649C85.3024 27.0755 85.4279 26.8388 85.4279 26.5547C85.4279 26.3345 85.3545 26.1499 85.2077 26.0007C85.061 25.8492 84.8384 25.7379 84.5401 25.6669L83.6488 25.4538C83.1753 25.3402 82.8249 25.1603 82.5977 24.9141C82.3704 24.6679 82.2567 24.3625 82.2567 23.9979C82.2567 23.6972 82.3384 23.4332 82.5018 23.206C82.6651 22.9763 82.89 22.7964 83.1765 22.6662C83.4629 22.536 83.7897 22.4709 84.1566 22.4709C84.6561 22.4709 85.055 22.5845 85.3533 22.8118C85.654 23.0367 85.8706 23.3468 86.0032 23.7422ZM92.2417 28.1136C91.7942 28.1136 91.4024 27.9953 91.0662 27.7585C90.7301 27.5218 90.4673 27.1915 90.2779 26.7678C90.0908 26.344 89.9973 25.8504 89.9973 25.2869C89.9973 24.7259 90.0908 24.2346 90.2779 23.8132C90.4673 23.3894 90.7312 23.0604 91.0698 22.826C91.4083 22.5893 91.8025 22.4709 92.2523 22.4709C92.5837 22.4709 92.8596 22.5301 93.0797 22.6484C93.2999 22.7644 93.4763 22.9089 93.6088 23.0817C93.7414 23.2545 93.8444 23.4226 93.9178 23.5859H93.9746V20.7273H94.6103V28H93.9924V26.9879H93.9178C93.8444 27.1536 93.7402 27.3241 93.6053 27.4993C93.4703 27.6721 93.2916 27.8177 93.0691 27.9361C92.8489 28.0545 92.5731 28.1136 92.2417 28.1136ZM92.3162 27.5348C92.669 27.5348 92.9696 27.4389 93.2182 27.2472C93.4668 27.053 93.6562 26.7867 93.7864 26.4482C93.919 26.1072 93.9853 25.7166 93.9853 25.2763C93.9853 24.8407 93.9202 24.456 93.79 24.1222C93.6597 23.786 93.4703 23.5232 93.2218 23.3338C92.9732 23.142 92.6713 23.0462 92.3162 23.0462C91.9516 23.0462 91.6439 23.1456 91.3929 23.3445C91.1444 23.541 90.955 23.8073 90.8248 24.1435C90.6969 24.4796 90.633 24.8572 90.633 25.2763C90.633 25.7 90.6981 26.0824 90.8283 26.4233C90.9585 26.7642 91.1479 27.0353 91.3965 27.2365C91.6474 27.4354 91.954 27.5348 92.3162 27.5348ZM98.5307 28.1136C98.0596 28.1136 97.6429 27.9941 97.2807 27.755C96.9209 27.5159 96.6391 27.1856 96.4355 26.7642C96.2319 26.3404 96.1301 25.8516 96.1301 25.2976C96.1301 24.7389 96.2319 24.2476 96.4355 23.8239C96.6391 23.3977 96.9209 23.0663 97.2807 22.8295C97.6429 22.5904 98.0596 22.4709 98.5307 22.4709C99.0018 22.4709 99.4173 22.5904 99.7772 22.8295C100.137 23.0687 100.419 23.4001 100.622 23.8239C100.828 24.2476 100.931 24.7389 100.931 25.2976C100.931 25.8516 100.829 26.3404 100.626 26.7642C100.422 27.1856 100.139 27.5159 99.7772 27.755C99.4173 27.9941 99.0018 28.1136 98.5307 28.1136ZM98.5307 27.5348C98.9095 27.5348 99.2303 27.433 99.4931 27.2294C99.7559 27.0258 99.9547 26.7547 100.09 26.4162C100.227 26.0777 100.296 25.7048 100.296 25.2976C100.296 24.8904 100.227 24.5163 100.09 24.1754C99.9547 23.8345 99.7559 23.5611 99.4931 23.3551C99.2303 23.1491 98.9095 23.0462 98.5307 23.0462C98.1543 23.0462 97.8335 23.1491 97.5684 23.3551C97.3056 23.5611 97.1055 23.8345 96.9682 24.1754C96.8333 24.5163 96.7658 24.8904 96.7658 25.2976C96.7658 25.7048 96.8333 26.0777 96.9682 26.4162C97.1055 26.7547 97.3056 27.0258 97.5684 27.2294C97.8311 27.433 98.1519 27.5348 98.5307 27.5348ZM43.7811 36.5909V40H43.149V34.5455H43.7633V35.4013H43.8201C43.948 35.1219 44.1468 34.8982 44.4167 34.7301C44.689 34.5597 45.0252 34.4744 45.4252 34.4744C45.7922 34.4744 46.1142 34.5514 46.3912 34.7053C46.6705 34.8568 46.8871 35.0805 47.041 35.3764C47.1973 35.6723 47.2754 36.0357 47.2754 36.4666V40H46.6433V36.5057C46.6433 36.0582 46.5178 35.7043 46.2669 35.4439C46.0183 35.1835 45.6845 35.0533 45.2654 35.0533C44.979 35.0533 44.7245 35.1148 44.502 35.2379C44.2794 35.361 44.103 35.5386 43.9728 35.7706C43.845 36.0002 43.7811 36.2737 43.7811 36.5909ZM51.06 40.1136C50.5889 40.1136 50.1722 39.9941 49.81 39.755C49.4502 39.5159 49.1684 39.1856 48.9648 38.7642C48.7612 38.3404 48.6594 37.8516 48.6594 37.2976C48.6594 36.7389 48.7612 36.2476 48.9648 35.8239C49.1684 35.3977 49.4502 35.0663 49.81 34.8295C50.1722 34.5904 50.5889 34.4709 51.06 34.4709C51.5311 34.4709 51.9466 34.5904 52.3065 34.8295C52.6663 35.0687 52.948 35.4001 53.1516 35.8239C53.3576 36.2476 53.4606 36.7389 53.4606 37.2976C53.4606 37.8516 53.3588 38.3404 53.1552 38.7642C52.9516 39.1856 52.6687 39.5159 52.3065 39.755C51.9466 39.9941 51.5311 40.1136 51.06 40.1136ZM51.06 39.5348C51.4388 39.5348 51.7596 39.433 52.0224 39.2294C52.2852 39.0258 52.484 38.7547 52.619 38.4162C52.7563 38.0777 52.8249 37.7048 52.8249 37.2976C52.8249 36.8904 52.7563 36.5163 52.619 36.1754C52.484 35.8345 52.2852 35.5611 52.0224 35.3551C51.7596 35.1491 51.4388 35.0462 51.06 35.0462C50.6836 35.0462 50.3628 35.1491 50.0977 35.3551C49.8349 35.5611 49.6348 35.8345 49.4975 36.1754C49.3626 36.5163 49.2951 36.8904 49.2951 37.2976C49.2951 37.7048 49.3626 38.0777 49.4975 38.4162C49.6348 38.7547 49.8349 39.0258 50.0977 39.2294C50.3604 39.433 50.6812 39.5348 51.06 39.5348ZM56.9966 34.5455V35.0959H54.3936V34.5455H56.9966ZM55.2069 33.2386H55.8425V38.576C55.8425 38.8033 55.8816 38.982 55.9597 39.1122C56.0378 39.2401 56.1396 39.3312 56.2651 39.3857C56.3906 39.4377 56.5243 39.4638 56.6664 39.4638C56.7492 39.4638 56.8203 39.459 56.8794 39.4496C56.9386 39.4377 56.9907 39.4259 57.0357 39.4141L57.1706 39.9858C57.1091 40.0095 57.0333 40.0308 56.9434 40.0497C56.8534 40.071 56.7421 40.0817 56.6096 40.0817C56.3775 40.0817 56.1538 40.0308 55.9384 39.929C55.7253 39.8272 55.5501 39.6757 55.4128 39.4744C55.2755 39.2732 55.2069 39.0234 55.2069 38.7251V33.2386ZM61.8768 36.5909V40H61.2447V32.7273H61.8768V35.4013H61.9336C62.0614 35.1196 62.2591 34.8946 62.5266 34.7266C62.7965 34.5585 63.1374 34.4744 63.5494 34.4744C63.9187 34.4744 64.243 34.5502 64.5224 34.7017C64.8017 34.8532 65.0195 35.0769 65.1758 35.3729C65.332 35.6688 65.4102 36.0334 65.4102 36.4666V40H64.7745V36.5057C64.7745 36.0559 64.649 35.7019 64.3981 35.4439C64.1495 35.1835 63.8133 35.0533 63.3896 35.0533C63.0984 35.0533 62.8391 35.1148 62.6119 35.2379C62.3846 35.361 62.2047 35.5386 62.0721 35.7706C61.9419 36.0002 61.8768 36.2737 61.8768 36.5909ZM68.5982 40.1243C68.2691 40.1243 67.9685 40.0604 67.6962 39.9325C67.4239 39.8023 67.2073 39.6153 67.0463 39.3714C66.8854 39.1252 66.8049 38.8269 66.8049 38.4766C66.8049 38.2067 66.8558 37.9794 66.9576 37.7947C67.0594 37.6101 67.2038 37.4586 67.3908 37.3402C67.5778 37.2218 67.7992 37.1283 68.0549 37.0597C68.3105 36.991 68.5923 36.9377 68.9 36.8999C69.2054 36.862 69.4635 36.8288 69.6742 36.8004C69.8873 36.772 70.0494 36.727 70.1607 36.6655C70.272 36.6039 70.3276 36.5045 70.3276 36.3672V36.2393C70.3276 35.8677 70.2163 35.5753 69.9938 35.3622C69.7736 35.1468 69.4564 35.0391 69.0421 35.0391C68.6491 35.0391 68.3283 35.1255 68.0797 35.2983C67.8335 35.4711 67.6607 35.6747 67.5613 35.9091L66.9611 35.6925C67.0842 35.3942 67.2547 35.1562 67.4725 34.9787C67.6903 34.7988 67.9341 34.6697 68.204 34.5916C68.4739 34.5111 68.7473 34.4709 69.0243 34.4709C69.2327 34.4709 69.4493 34.4981 69.6742 34.5526C69.9015 34.607 70.1122 34.7017 70.3063 34.8366C70.5004 34.9692 70.6578 35.1551 70.7786 35.3942C70.8993 35.6309 70.9597 35.9316 70.9597 36.2962V40H70.3276V39.1371H70.2885C70.2128 39.2981 70.1003 39.4543 69.9512 39.6058C69.802 39.7573 69.615 39.8816 69.3901 39.9787C69.1652 40.0758 68.9012 40.1243 68.5982 40.1243ZM68.6834 39.5455C69.0196 39.5455 69.3108 39.4709 69.557 39.3217C69.8032 39.1726 69.9926 38.9749 70.1252 38.7287C70.2601 38.4801 70.3276 38.2067 70.3276 37.9084V37.12C70.2802 37.165 70.2009 37.2053 70.0897 37.2408C69.9808 37.2763 69.8541 37.3082 69.7097 37.3366C69.5676 37.3627 69.4256 37.3852 69.2836 37.4041C69.1415 37.4231 69.0137 37.4396 68.9 37.4538C68.5923 37.4917 68.3295 37.5509 68.1117 37.6314C67.8939 37.7119 67.727 37.8232 67.611 37.9652C67.495 38.1049 67.437 38.2848 67.437 38.505C67.437 38.8364 67.5553 39.0933 67.7921 39.2756C68.0288 39.4555 68.3259 39.5455 68.6834 39.5455ZM76.6681 34.5455L74.676 40H74.0012L72.0091 34.5455H72.6944L74.3137 39.1655H74.3635L75.9828 34.5455H76.6681ZM79.9148 40.1136C79.4058 40.1136 78.9654 39.9953 78.5938 39.7585C78.2221 39.5194 77.9344 39.1892 77.7308 38.7678C77.5296 38.344 77.429 37.8563 77.429 37.3047C77.429 36.7554 77.5296 36.2678 77.7308 35.8416C77.9344 35.4131 78.215 35.0781 78.5724 34.8366C78.9323 34.5928 79.3478 34.4709 79.8189 34.4709C80.1148 34.4709 80.4001 34.5253 80.6747 34.6342C80.9493 34.7408 81.1955 34.9053 81.4134 35.1278C81.6335 35.348 81.8075 35.6262 81.9354 35.9624C82.0632 36.2962 82.1271 36.6915 82.1271 37.1484V37.4609H77.8658V36.9034H81.4808C81.4808 36.553 81.4098 36.2382 81.2678 35.9588C81.1281 35.6771 80.9328 35.4545 80.6818 35.2912C80.4332 35.1278 80.1456 35.0462 79.8189 35.0462C79.4732 35.0462 79.169 35.1385 78.9062 35.3232C78.6435 35.5078 78.4375 35.7517 78.2884 36.0547C78.1416 36.3577 78.067 36.6892 78.0646 37.049V37.3828C78.0646 37.8161 78.1392 38.1948 78.2884 38.5192C78.4399 38.8411 78.6541 39.0909 78.9311 39.2685C79.2081 39.446 79.536 39.5348 79.9148 39.5348C80.1728 39.5348 80.3989 39.4946 80.593 39.4141C80.7895 39.3336 80.9541 39.2259 81.0866 39.0909C81.2216 38.9536 81.3234 38.8033 81.392 38.6399L81.9922 38.8352C81.9093 39.0649 81.7732 39.2768 81.5838 39.4709C81.3968 39.665 81.1624 39.8213 80.8807 39.9396C80.6013 40.0556 80.2794 40.1136 79.9148 40.1136ZM22.1871 52V46.5455H22.8014V47.3835H22.8582C22.9671 47.1018 23.1482 46.8804 23.4015 46.7195C23.6572 46.5561 23.9638 46.4744 24.3213 46.4744C24.6977 46.4744 25.0067 46.5632 25.2481 46.7408C25.492 46.916 25.6743 47.1574 25.795 47.4652H25.8412C25.9643 47.1622 26.1643 46.9219 26.4413 46.7443C26.7207 46.5644 27.0592 46.4744 27.4569 46.4744C27.9636 46.4744 28.3637 46.6342 28.6572 46.9538C28.9508 47.2711 29.0976 47.7351 29.0976 48.3459V52H28.4655V48.3459C28.4655 47.915 28.3554 47.5919 28.1352 47.3764C27.915 47.161 27.625 47.0533 27.2652 47.0533C26.8485 47.0533 26.5277 47.1811 26.3028 47.4368C26.0779 47.6925 25.9655 48.0168 25.9655 48.4098V52H25.3192V48.2891C25.3192 47.9197 25.2162 47.6214 25.0102 47.3942C24.8042 47.1669 24.5142 47.0533 24.1402 47.0533C23.8892 47.0533 23.6631 47.1148 23.4619 47.2379C23.2631 47.361 23.1056 47.5327 22.9896 47.7528C22.876 47.9706 22.8192 48.2216 22.8192 48.5057V52H22.1871ZM32.9763 52.1136C32.4673 52.1136 32.027 51.9953 31.6553 51.7585C31.2836 51.5194 30.9959 51.1892 30.7923 50.7678C30.5911 50.344 30.4905 49.8563 30.4905 49.3047C30.4905 48.7554 30.5911 48.2678 30.7923 47.8416C30.9959 47.4131 31.2765 47.0781 31.634 46.8366C31.9938 46.5928 32.4093 46.4709 32.8804 46.4709C33.1763 46.4709 33.4616 46.5253 33.7362 46.6342C34.0109 46.7408 34.2571 46.9053 34.4749 47.1278C34.695 47.348 34.8691 47.6262 34.9969 47.9624C35.1247 48.2962 35.1887 48.6915 35.1887 49.1484V49.4609H30.9273V48.9034H34.5423C34.5423 48.553 34.4713 48.2382 34.3293 47.9588C34.1896 47.6771 33.9943 47.4545 33.7433 47.2912C33.4948 47.1278 33.2071 47.0462 32.8804 47.0462C32.5348 47.0462 32.2306 47.1385 31.9678 47.3232C31.705 47.5078 31.499 47.7517 31.3499 48.0547C31.2031 48.3577 31.1285 48.6892 31.1262 49.049V49.3828C31.1262 49.8161 31.2007 50.1948 31.3499 50.5192C31.5014 50.8411 31.7156 51.0909 31.9926 51.2685C32.2696 51.446 32.5975 51.5348 32.9763 51.5348C33.2343 51.5348 33.4604 51.4946 33.6546 51.4141C33.8511 51.3336 34.0156 51.2259 34.1482 51.0909C34.2831 50.9536 34.3849 50.8033 34.4536 50.6399L35.0537 50.8352C34.9709 51.0649 34.8347 51.2768 34.6453 51.4709C34.4583 51.665 34.2239 51.8213 33.9422 51.9396C33.6628 52.0556 33.3409 52.1136 32.9763 52.1136ZM37.2137 48.5909V52H36.5816V46.5455H37.1959V47.4013H37.2528C37.3806 47.1219 37.5795 46.8982 37.8493 46.7301C38.1216 46.5597 38.4578 46.4744 38.8579 46.4744C39.2248 46.4744 39.5468 46.5514 39.8238 46.7053C40.1031 46.8568 40.3198 47.0805 40.4736 47.3764C40.6299 47.6723 40.708 48.0357 40.708 48.4666V52H40.0759V48.5057C40.0759 48.0582 39.9504 47.7043 39.6995 47.4439C39.4509 47.1835 39.1171 47.0533 38.6981 47.0533C38.4116 47.0533 38.1571 47.1148 37.9346 47.2379C37.712 47.361 37.5357 47.5386 37.4055 47.7706C37.2776 48.0002 37.2137 48.2737 37.2137 48.5909ZM44.521 46.5455V47.0959H41.9181V46.5455H44.521ZM42.7313 45.2386H43.3669V50.576C43.3669 50.8033 43.406 50.982 43.4841 51.1122C43.5622 51.2401 43.664 51.3312 43.7895 51.3857C43.915 51.4377 44.0487 51.4638 44.1908 51.4638C44.2736 51.4638 44.3447 51.459 44.4039 51.4496C44.463 51.4377 44.5151 51.4259 44.5601 51.4141L44.695 51.9858C44.6335 52.0095 44.5577 52.0308 44.4678 52.0497C44.3778 52.071 44.2665 52.0817 44.134 52.0817C43.902 52.0817 43.6782 52.0308 43.4628 51.929C43.2497 51.8272 43.0745 51.6757 42.9372 51.4744C42.7999 51.2732 42.7313 51.0234 42.7313 50.7251V45.2386ZM48.018 52.1136C47.5469 52.1136 47.1302 51.9941 46.768 51.755C46.4082 51.5159 46.1265 51.1856 45.9229 50.7642C45.7193 50.3404 45.6175 49.8516 45.6175 49.2976C45.6175 48.7389 45.7193 48.2476 45.9229 47.8239C46.1265 47.3977 46.4082 47.0663 46.768 46.8295C47.1302 46.5904 47.5469 46.4709 48.018 46.4709C48.4891 46.4709 48.9046 46.5904 49.2645 46.8295C49.6243 47.0687 49.906 47.4001 50.1096 47.8239C50.3156 48.2476 50.4186 48.7389 50.4186 49.2976C50.4186 49.8516 50.3168 50.3404 50.1132 50.7642C49.9096 51.1856 49.6267 51.5159 49.2645 51.755C48.9046 51.9941 48.4891 52.1136 48.018 52.1136ZM48.018 51.5348C48.3968 51.5348 48.7176 51.433 48.9804 51.2294C49.2432 51.0258 49.442 50.7547 49.577 50.4162C49.7143 50.0777 49.7829 49.7048 49.7829 49.2976C49.7829 48.8904 49.7143 48.5163 49.577 48.1754C49.442 47.8345 49.2432 47.5611 48.9804 47.3551C48.7176 47.1491 48.3968 47.0462 48.018 47.0462C47.6416 47.0462 47.3208 47.1491 47.0557 47.3551C46.7929 47.5611 46.5928 47.8345 46.4555 48.1754C46.3206 48.5163 46.2531 48.8904 46.2531 49.2976C46.2531 49.7048 46.3206 50.0777 46.4555 50.4162C46.5928 50.7547 46.7929 51.0258 47.0557 51.2294C47.3184 51.433 47.6392 51.5348 48.018 51.5348ZM51.8062 52V46.5455H52.4205V47.3835H52.4667C52.5756 47.1089 52.765 46.8875 53.0349 46.7195C53.3071 46.549 53.6149 46.4638 53.9582 46.4638C54.0103 46.4638 54.0683 46.465 54.1322 46.4673C54.1961 46.4697 54.2494 46.4721 54.292 46.4744V47.1172C54.2636 47.1125 54.2139 47.1054 54.1428 47.0959C54.0718 47.0864 53.9949 47.0817 53.912 47.0817C53.6279 47.0817 53.3746 47.142 53.1521 47.2628C52.9319 47.3812 52.7579 47.5457 52.6301 47.7564C52.5022 47.9671 52.4383 48.2074 52.4383 48.4773V52H51.8062ZM55.3778 52V46.5455H56.0134V52H55.3778ZM55.7009 45.608C55.5707 45.608 55.4594 45.5642 55.3671 45.4766C55.2748 45.3866 55.2286 45.2789 55.2286 45.1534C55.2286 45.0279 55.2748 44.9214 55.3671 44.8338C55.4594 44.7438 55.5707 44.6989 55.7009 44.6989C55.8311 44.6989 55.9424 44.7438 56.0347 44.8338C56.127 44.9214 56.1732 45.0279 56.1732 45.1534C56.1732 45.2789 56.127 45.3866 56.0347 45.4766C55.9424 45.5642 55.8311 45.608 55.7009 45.608ZM58.3172 48.5909V52H57.6851V46.5455H58.2994V47.4013H58.3563C58.4841 47.1219 58.683 46.8982 58.9529 46.7301C59.2251 46.5597 59.5613 46.4744 59.9614 46.4744C60.3283 46.4744 60.6503 46.5514 60.9273 46.7053C61.2066 46.8568 61.4233 47.0805 61.5771 47.3764C61.7334 47.6723 61.8115 48.0357 61.8115 48.4666V52H61.1794V48.5057C61.1794 48.0582 61.0539 47.7043 60.803 47.4439C60.5544 47.1835 60.2206 47.0533 59.8016 47.0533C59.5151 47.0533 59.2606 47.1148 59.0381 47.2379C58.8155 47.361 58.6392 47.5386 58.509 47.7706C58.3811 48.0002 58.3172 48.2737 58.3172 48.5909ZM65.5571 54.1591C65.1854 54.1591 64.8599 54.1106 64.5805 54.0135C64.3012 53.9188 64.0656 53.7886 63.8738 53.6229C63.6821 53.4571 63.5329 53.2713 63.4264 53.0653L63.9449 52.7244C64.023 52.8617 64.1272 52.9967 64.2574 53.1293C64.3899 53.2618 64.5616 53.3719 64.7723 53.4595C64.9854 53.5471 65.247 53.5909 65.5571 53.5909C66.04 53.5909 66.4295 53.4702 66.7254 53.2287C67.0237 52.9872 67.1729 52.612 67.1729 52.103V50.8743H67.116C67.0426 51.04 66.9373 51.2057 66.8 51.3714C66.6627 51.5348 66.4827 51.6709 66.2602 51.7798C66.04 51.8887 65.7666 51.9432 65.4399 51.9432C65.0043 51.9432 64.6172 51.8355 64.2787 51.62C63.9425 51.4046 63.6773 51.0968 63.4832 50.6967C63.2915 50.2943 63.1956 49.8149 63.1956 49.2585C63.1956 48.7069 63.2891 48.2216 63.4761 47.8026C63.6655 47.3835 63.9295 47.0568 64.268 46.8224C64.6066 46.5881 65.0007 46.4709 65.4506 46.4709C65.7844 46.4709 66.0613 46.5301 66.2815 46.6484C66.5017 46.7644 66.6781 46.9089 66.8106 47.0817C66.9456 47.2545 67.0509 47.4226 67.1267 47.5859H67.1906V46.5455H67.8085V52.142C67.8085 52.6037 67.7103 52.9837 67.5138 53.282C67.3173 53.5803 67.0497 53.8004 66.7112 53.9425C66.3727 54.0869 65.988 54.1591 65.5571 54.1591ZM65.5145 51.3643C65.8648 51.3643 66.1643 51.2803 66.4129 51.1122C66.6615 50.9418 66.8521 50.6979 66.9846 50.3807C67.1172 50.0634 67.1835 49.6858 67.1835 49.2479C67.1835 48.8217 67.1184 48.4441 66.9882 48.1151C66.858 47.7836 66.6686 47.5232 66.42 47.3338C66.1738 47.142 65.872 47.0462 65.5145 47.0462C65.1499 47.0462 64.8421 47.1444 64.5912 47.3409C64.3402 47.5374 64.1508 47.8026 64.023 48.1364C63.8952 48.4678 63.8312 48.8383 63.8312 49.2479C63.8312 49.6645 63.8963 50.0327 64.0265 50.3523C64.1568 50.6695 64.3473 50.9181 64.5983 51.098C64.8492 51.2756 65.1546 51.3643 65.5145 51.3643ZM74.4429 46.5455V47.0959H71.8399V46.5455H74.4429ZM72.6531 45.2386H73.2888V50.576C73.2888 50.8033 73.3279 50.982 73.406 51.1122C73.4841 51.2401 73.5859 51.3312 73.7114 51.3857C73.8369 51.4377 73.9706 51.4638 74.1127 51.4638C74.1955 51.4638 74.2665 51.459 74.3257 51.4496C74.3849 51.4377 74.437 51.4259 74.482 51.4141L74.6169 51.9858C74.5554 52.0095 74.4796 52.0308 74.3896 52.0497C74.2997 52.071 74.1884 52.0817 74.0558 52.0817C73.8238 52.0817 73.6001 52.0308 73.3847 51.929C73.1716 51.8272 72.9964 51.6757 72.8591 51.4744C72.7218 51.2732 72.6531 51.0234 72.6531 50.7251V45.2386ZM77.9399 52.1136C77.4688 52.1136 77.0521 51.9941 76.6899 51.755C76.33 51.5159 76.0483 51.1856 75.8447 50.7642C75.6411 50.3404 75.5393 49.8516 75.5393 49.2976C75.5393 48.7389 75.6411 48.2476 75.8447 47.8239C76.0483 47.3977 76.33 47.0663 76.6899 46.8295C77.0521 46.5904 77.4688 46.4709 77.9399 46.4709C78.411 46.4709 78.8265 46.5904 79.1863 46.8295C79.5462 47.0687 79.8279 47.4001 80.0315 47.8239C80.2375 48.2476 80.3405 48.7389 80.3405 49.2976C80.3405 49.8516 80.2387 50.3404 80.0351 50.7642C79.8315 51.1856 79.5486 51.5159 79.1863 51.755C78.8265 51.9941 78.411 52.1136 77.9399 52.1136ZM77.9399 51.5348C78.3187 51.5348 78.6395 51.433 78.9023 51.2294C79.165 51.0258 79.3639 50.7547 79.4988 50.4162C79.6362 50.0777 79.7048 49.7048 79.7048 49.2976C79.7048 48.8904 79.6362 48.5163 79.4988 48.1754C79.3639 47.8345 79.165 47.5611 78.9023 47.3551C78.6395 47.1491 78.3187 47.0462 77.9399 47.0462C77.5635 47.0462 77.2427 47.1491 76.9775 47.3551C76.7148 47.5611 76.5147 47.8345 76.3774 48.1754C76.2425 48.5163 76.175 48.8904 76.175 49.2976C76.175 49.7048 76.2425 50.0777 76.3774 50.4162C76.5147 50.7547 76.7148 51.0258 76.9775 51.2294C77.2403 51.433 77.5611 51.5348 77.9399 51.5348ZM85.1727 48.5909V52H84.5406V44.7273H85.1727V47.4013H85.2295C85.3573 47.1196 85.555 46.8946 85.8225 46.7266C86.0924 46.5585 86.4333 46.4744 86.8453 46.4744C87.2146 46.4744 87.5389 46.5502 87.8183 46.7017C88.0976 46.8532 88.3154 47.0769 88.4717 47.3729C88.6279 47.6688 88.7061 48.0334 88.7061 48.4666V52H88.0704V48.5057C88.0704 48.0559 87.9449 47.7019 87.694 47.4439C87.4454 47.1835 87.1092 47.0533 86.6855 47.0533C86.3943 47.0533 86.135 47.1148 85.9078 47.2379C85.6805 47.361 85.5006 47.5386 85.368 47.7706C85.2378 48.0002 85.1727 48.2737 85.1727 48.5909ZM92.5759 52.1136C92.0669 52.1136 91.6266 51.9953 91.2549 51.7585C90.8832 51.5194 90.5956 51.1892 90.392 50.7678C90.1907 50.344 90.0901 49.8563 90.0901 49.3047C90.0901 48.7554 90.1907 48.2678 90.392 47.8416C90.5956 47.4131 90.8761 47.0781 91.2336 46.8366C91.5934 46.5928 92.0089 46.4709 92.48 46.4709C92.776 46.4709 93.0612 46.5253 93.3358 46.6342C93.6105 46.7408 93.8567 46.9053 94.0745 47.1278C94.2947 47.348 94.4687 47.6262 94.5965 47.9624C94.7243 48.2962 94.7883 48.6915 94.7883 49.1484V49.4609H90.5269V48.9034H94.142C94.142 48.553 94.0709 48.2382 93.9289 47.9588C93.7892 47.6771 93.5939 47.4545 93.343 47.2912C93.0944 47.1278 92.8067 47.0462 92.48 47.0462C92.1344 47.0462 91.8302 47.1385 91.5674 47.3232C91.3046 47.5078 91.0986 47.7517 90.9495 48.0547C90.8027 48.3577 90.7281 48.6892 90.7258 49.049V49.3828C90.7258 49.8161 90.8003 50.1948 90.9495 50.5192C91.101 50.8411 91.3153 51.0909 91.5922 51.2685C91.8692 51.446 92.1971 51.5348 92.5759 51.5348C92.834 51.5348 93.06 51.4946 93.2542 51.4141C93.4507 51.3336 93.6152 51.2259 93.7478 51.0909C93.8827 50.9536 93.9845 50.8033 94.0532 50.6399L94.6533 50.8352C94.5705 51.0649 94.4343 51.2768 94.2449 51.4709C94.0579 51.665 93.8235 51.8213 93.5418 51.9396C93.2625 52.0556 92.9405 52.1136 92.5759 52.1136ZM96.8133 44.7273V52H96.1812V44.7273H96.8133ZM98.4859 54.0455V46.5455H99.1002V47.5859H99.1748C99.2506 47.4226 99.3547 47.2557 99.4873 47.0852C99.6199 46.9124 99.7951 46.7668 100.013 46.6484C100.233 46.5301 100.51 46.4709 100.844 46.4709C101.294 46.4709 101.687 46.5893 102.023 46.826C102.361 47.0604 102.624 47.3894 102.811 47.8132C103.001 48.2346 103.095 48.7259 103.095 49.2869C103.095 49.8504 103.001 50.344 102.811 50.7678C102.624 51.1915 102.361 51.5218 102.023 51.7585C101.687 51.9953 101.296 52.1136 100.851 52.1136C100.522 52.1136 100.246 52.0545 100.024 51.9361C99.8034 51.8177 99.6246 51.6721 99.4873 51.4993C99.3524 51.3241 99.2482 51.1536 99.1748 50.9879H99.118V54.0455H98.4859ZM99.1109 49.2763C99.1109 49.7166 99.176 50.1072 99.3062 50.4482C99.4388 50.7867 99.6282 51.053 99.8744 51.2472C100.123 51.4389 100.424 51.5348 100.776 51.5348C101.139 51.5348 101.444 51.4354 101.693 51.2365C101.944 51.0353 102.134 50.7642 102.264 50.4233C102.397 50.0824 102.463 49.7 102.463 49.2763C102.463 48.8572 102.398 48.4796 102.268 48.1435C102.14 47.8073 101.951 47.541 101.7 47.3445C101.449 47.1456 101.141 47.0462 100.776 47.0462C100.421 47.0462 100.119 47.142 99.8708 47.3338C99.6222 47.5232 99.4329 47.786 99.3026 48.1222C99.1748 48.456 99.1109 48.8407 99.1109 49.2763ZM23.6057 59.7422L23.0269 59.9055C22.9701 59.7422 22.8896 59.5942 22.7854 59.4616C22.6813 59.3291 22.5451 59.2237 22.377 59.1456C22.2113 59.0675 22.0054 59.0284 21.7591 59.0284C21.3898 59.0284 21.0868 59.116 20.8501 59.2912C20.6133 59.4664 20.4949 59.6925 20.4949 59.9695C20.4949 60.2038 20.5754 60.3944 20.7364 60.5412C20.8998 60.6856 21.1507 60.8004 21.4893 60.8857L22.3131 61.0881C22.77 61.1993 23.1121 61.3757 23.3394 61.6172C23.569 61.8587 23.6839 62.1617 23.6839 62.5263C23.6839 62.834 23.5986 63.1075 23.4282 63.3466C23.2577 63.5857 23.0198 63.7739 22.7144 63.9112C22.4114 64.0462 22.0598 64.1136 21.6597 64.1136C21.127 64.1136 20.6879 63.9941 20.3422 63.755C19.9966 63.5135 19.7752 63.1655 19.6782 62.7109L20.2854 62.5618C20.3635 62.8861 20.5162 63.1312 20.7435 63.2969C20.9732 63.4626 21.275 63.5455 21.6491 63.5455C22.0681 63.5455 22.4031 63.4519 22.654 63.2649C22.905 63.0755 23.0305 62.8388 23.0305 62.5547C23.0305 62.3345 22.9571 62.1499 22.8103 62.0007C22.6635 61.8492 22.441 61.7379 22.1427 61.6669L21.2513 61.4538C20.7778 61.3402 20.4275 61.1603 20.2002 60.9141C19.9729 60.6679 19.8593 60.3625 19.8593 59.9979C19.8593 59.6972 19.941 59.4332 20.1043 59.206C20.2677 58.9763 20.4926 58.7964 20.779 58.6662C21.0655 58.536 21.3922 58.4709 21.7591 58.4709C22.2587 58.4709 22.6576 58.5845 22.9559 58.8118C23.2565 59.0367 23.4732 59.3468 23.6057 59.7422ZM27.2164 58.5455V59.0959H24.6134V58.5455H27.2164ZM25.4266 57.2386H26.0622V62.576C26.0622 62.8033 26.1013 62.982 26.1794 63.1122C26.2575 63.2401 26.3593 63.3312 26.4848 63.3857C26.6103 63.4377 26.7441 63.4638 26.8861 63.4638C26.969 63.4638 27.04 63.459 27.0992 63.4496C27.1584 63.4377 27.2104 63.4259 27.2554 63.4141L27.3904 63.9858C27.3288 64.0095 27.253 64.0308 27.1631 64.0497C27.0731 64.071 26.9619 64.0817 26.8293 64.0817C26.5973 64.0817 26.3735 64.0308 26.1581 63.929C25.945 63.8272 25.7699 63.6757 25.6325 63.4744C25.4952 63.2732 25.4266 63.0234 25.4266 62.7251V57.2386ZM32.1178 61.9155V58.5455H32.7499V64H32.1178V63.0945H32.0681C31.9403 63.3738 31.7378 63.607 31.4608 63.794C31.1839 63.9787 30.8453 64.071 30.4452 64.071C30.0972 64.071 29.7883 63.9953 29.5184 63.8438C29.2485 63.6899 29.0366 63.465 28.8827 63.169C28.7288 62.8731 28.6519 62.5097 28.6519 62.0788V58.5455H29.284V62.0398C29.284 62.4659 29.4095 62.8092 29.6604 63.0696C29.9114 63.3277 30.2333 63.4567 30.6263 63.4567C30.8725 63.4567 31.1093 63.3975 31.3366 63.2791C31.5638 63.1607 31.7509 62.9879 31.8976 62.7607C32.0444 62.531 32.1178 62.2493 32.1178 61.9155ZM36.3872 64.1136C35.9397 64.1136 35.5479 63.9953 35.2117 63.7585C34.8756 63.5218 34.6128 63.1915 34.4234 62.7678C34.2364 62.344 34.1428 61.8504 34.1428 61.2869C34.1428 60.7259 34.2364 60.2346 34.4234 59.8132C34.6128 59.3894 34.8767 59.0604 35.2153 58.826C35.5538 58.5893 35.948 58.4709 36.3978 58.4709C36.7293 58.4709 37.0051 58.5301 37.2252 58.6484C37.4454 58.7644 37.6218 58.9089 37.7544 59.0817C37.8869 59.2545 37.9899 59.4226 38.0633 59.5859H38.1201V56.7273H38.7558V64H38.1379V62.9879H38.0633C37.9899 63.1536 37.8857 63.3241 37.7508 63.4993C37.6159 63.6721 37.4371 63.8177 37.2146 63.9361C36.9944 64.0545 36.7186 64.1136 36.3872 64.1136ZM36.4617 63.5348C36.8145 63.5348 37.1151 63.4389 37.3637 63.2472C37.6123 63.053 37.8017 62.7867 37.9319 62.4482C38.0645 62.1072 38.1308 61.7166 38.1308 61.2763C38.1308 60.8407 38.0657 60.456 37.9355 60.1222C37.8052 59.786 37.6159 59.5232 37.3673 59.3338C37.1187 59.142 36.8169 59.0462 36.4617 59.0462C36.0972 59.0462 35.7894 59.1456 35.5384 59.3445C35.2899 59.541 35.1005 59.8073 34.9703 60.1435C34.8424 60.4796 34.7785 60.8572 34.7785 61.2763C34.7785 61.7 34.8436 62.0824 34.9738 62.4233C35.104 62.7642 35.2934 63.0353 35.542 63.2365C35.7929 63.4354 36.0995 63.5348 36.4617 63.5348ZM42.7615 64.1136C42.2525 64.1136 41.8121 63.9953 41.4404 63.7585C41.0687 63.5194 40.7811 63.1892 40.5775 62.7678C40.3763 62.344 40.2757 61.8563 40.2757 61.3047C40.2757 60.7554 40.3763 60.2678 40.5775 59.8416C40.7811 59.4131 41.0616 59.0781 41.4191 58.8366C41.779 58.5928 42.1945 58.4709 42.6656 58.4709C42.9615 58.4709 43.2468 58.5253 43.5214 58.6342C43.796 58.7408 44.0422 58.9053 44.26 59.1278C44.4802 59.348 44.6542 59.6262 44.782 59.9624C44.9099 60.2962 44.9738 60.6915 44.9738 61.1484V61.4609H40.7124V60.9034H44.3275C44.3275 60.553 44.2565 60.2382 44.1144 59.9588C43.9748 59.6771 43.7794 59.4545 43.5285 59.2912C43.2799 59.1278 42.9923 59.0462 42.6656 59.0462C42.3199 59.0462 42.0157 59.1385 41.7529 59.3232C41.4901 59.5078 41.2842 59.7517 41.135 60.0547C40.9883 60.3577 40.9137 60.6892 40.9113 61.049V61.3828C40.9113 61.8161 40.9859 62.1948 41.135 62.5192C41.2865 62.8411 41.5008 63.0909 41.7778 63.2685C42.0548 63.446 42.3827 63.5348 42.7615 63.5348C43.0195 63.5348 43.2456 63.4946 43.4397 63.4141C43.6362 63.3336 43.8008 63.2259 43.9333 63.0909C44.0683 62.9536 44.1701 62.8033 44.2387 62.6399L44.8389 62.8352C44.756 63.0649 44.6199 63.2768 44.4305 63.4709C44.2435 63.665 44.0091 63.8213 43.7274 63.9396C43.448 64.0556 43.126 64.1136 42.7615 64.1136ZM46.9988 60.5909V64H46.3667V58.5455H46.9811V59.4013H47.0379C47.1657 59.1219 47.3646 58.8982 47.6345 58.7301C47.9068 58.5597 48.2429 58.4744 48.643 58.4744C49.01 58.4744 49.3319 58.5514 49.6089 58.7053C49.8883 58.8568 50.1049 59.0805 50.2588 59.3764C50.415 59.6723 50.4932 60.0357 50.4932 60.4666V64H49.8611V60.5057C49.8611 60.0582 49.7356 59.7043 49.4846 59.4439C49.2361 59.1835 48.9023 59.0533 48.4832 59.0533C48.1968 59.0533 47.9423 59.1148 47.7197 59.2379C47.4972 59.361 47.3208 59.5386 47.1906 59.7706C47.0628 60.0002 46.9988 60.2737 46.9988 60.5909ZM54.3062 58.5455V59.0959H51.7032V58.5455H54.3062ZM52.5164 57.2386H53.1521V62.576C53.1521 62.8033 53.1911 62.982 53.2693 63.1122C53.3474 63.2401 53.4492 63.3312 53.5747 63.3857C53.7001 63.4377 53.8339 63.4638 53.9759 63.4638C54.0588 63.4638 54.1298 63.459 54.189 63.4496C54.2482 63.4377 54.3003 63.4259 54.3453 63.4141L54.4802 63.9858C54.4186 64.0095 54.3429 64.0308 54.2529 64.0497C54.163 64.071 54.0517 64.0817 53.9191 64.0817C53.6871 64.0817 53.4634 64.0308 53.248 63.929C53.0349 63.8272 52.8597 63.6757 52.7224 63.4744C52.5851 63.2732 52.5164 63.0234 52.5164 62.7251V57.2386ZM59.3089 59.7422L58.73 59.9055C58.6732 59.7422 58.5927 59.5942 58.4885 59.4616C58.3844 59.3291 58.2483 59.2237 58.0802 59.1456C57.9144 59.0675 57.7085 59.0284 57.4623 59.0284C57.093 59.0284 56.7899 59.116 56.5532 59.2912C56.3164 59.4664 56.1981 59.6925 56.1981 59.9695C56.1981 60.2038 56.2786 60.3944 56.4395 60.5412C56.6029 60.6856 56.8538 60.8004 57.1924 60.8857L58.0162 61.0881C58.4732 61.1993 58.8153 61.3757 59.0425 61.6172C59.2722 61.8587 59.387 62.1617 59.387 62.5263C59.387 62.834 59.3018 63.1075 59.1313 63.3466C58.9608 63.5857 58.7229 63.7739 58.4175 63.9112C58.1145 64.0462 57.7629 64.1136 57.3628 64.1136C56.8302 64.1136 56.391 63.9941 56.0454 63.755C55.6997 63.5135 55.4784 63.1655 55.3813 62.7109L55.9885 62.5618C56.0667 62.8861 56.2194 63.1312 56.4466 63.2969C56.6763 63.4626 56.9781 63.5455 57.3522 63.5455C57.7712 63.5455 58.1062 63.4519 58.3572 63.2649C58.6081 63.0755 58.7336 62.8388 58.7336 62.5547C58.7336 62.3345 58.6602 62.1499 58.5134 62.0007C58.3666 61.8492 58.1441 61.7379 57.8458 61.6669L56.9545 61.4538C56.481 61.3402 56.1306 61.1603 55.9033 60.9141C55.676 60.6679 55.5624 60.3625 55.5624 59.9979C55.5624 59.6972 55.6441 59.4332 55.8074 59.206C55.9708 58.9763 56.1957 58.7964 56.4822 58.6662C56.7686 58.536 57.0953 58.4709 57.4623 58.4709C57.9618 58.4709 58.3607 58.5845 58.659 58.8118C58.9597 59.0367 59.1763 59.3468 59.3089 59.7422ZM63.5835 64V58.5455H64.1979V59.3835H64.2547C64.3636 59.1018 64.5447 58.8804 64.798 58.7195C65.0537 58.5561 65.3603 58.4744 65.7178 58.4744C66.0942 58.4744 66.4031 58.5632 66.6446 58.7408C66.8885 58.916 67.0708 59.1574 67.1915 59.4652H67.2377C67.3608 59.1622 67.5608 58.9219 67.8378 58.7443C68.1172 58.5644 68.4557 58.4744 68.8534 58.4744C69.3601 58.4744 69.7602 58.6342 70.0537 58.9538C70.3473 59.2711 70.4941 59.7351 70.4941 60.3459V64H69.8619V60.3459C69.8619 59.915 69.7519 59.5919 69.5317 59.3764C69.3115 59.161 69.0215 59.0533 68.6617 59.0533C68.245 59.0533 67.9242 59.1811 67.6993 59.4368C67.4744 59.6925 67.3619 60.0168 67.3619 60.4098V64H66.7156V60.2891C66.7156 59.9197 66.6127 59.6214 66.4067 59.3942C66.2007 59.1669 65.9107 59.0533 65.5367 59.0533C65.2857 59.0533 65.0596 59.1148 64.8584 59.2379C64.6595 59.361 64.5021 59.5327 64.3861 59.7528C64.2725 59.9706 64.2156 60.2216 64.2156 60.5057V64H63.5835ZM73.691 64.1243C73.3619 64.1243 73.0612 64.0604 72.789 63.9325C72.5167 63.8023 72.3001 63.6153 72.1391 63.3714C71.9781 63.1252 71.8976 62.8269 71.8976 62.4766C71.8976 62.2067 71.9485 61.9794 72.0503 61.7947C72.1521 61.6101 72.2965 61.4586 72.4836 61.3402C72.6706 61.2218 72.892 61.1283 73.1476 61.0597C73.4033 60.991 73.685 60.9377 73.9928 60.8999C74.2982 60.862 74.5563 60.8288 74.767 60.8004C74.98 60.772 75.1422 60.727 75.2535 60.6655C75.3647 60.6039 75.4204 60.5045 75.4204 60.3672V60.2393C75.4204 59.8677 75.3091 59.5753 75.0866 59.3622C74.8664 59.1468 74.5492 59.0391 74.1349 59.0391C73.7419 59.0391 73.4211 59.1255 73.1725 59.2983C72.9263 59.4711 72.7535 59.6747 72.654 59.9091L72.0539 59.6925C72.177 59.3942 72.3474 59.1562 72.5653 58.9787C72.7831 58.7988 73.0269 58.6697 73.2968 58.5916C73.5667 58.5111 73.8401 58.4709 74.1171 58.4709C74.3254 58.4709 74.5421 58.4981 74.767 58.5526C74.9942 58.607 75.2049 58.7017 75.3991 58.8366C75.5932 58.9692 75.7506 59.1551 75.8714 59.3942C75.9921 59.6309 76.0525 59.9316 76.0525 60.2962V64H75.4204V63.1371H75.3813C75.3055 63.2981 75.1931 63.4543 75.0439 63.6058C74.8948 63.7573 74.7078 63.8816 74.4829 63.9787C74.258 64.0758 73.994 64.1243 73.691 64.1243ZM73.7762 63.5455C74.1124 63.5455 74.4036 63.4709 74.6498 63.3217C74.896 63.1726 75.0854 62.9749 75.218 62.7287C75.3529 62.4801 75.4204 62.2067 75.4204 61.9084V61.12C75.373 61.165 75.2937 61.2053 75.1824 61.2408C75.0735 61.2763 74.9469 61.3082 74.8025 61.3366C74.6604 61.3627 74.5184 61.3852 74.3763 61.4041C74.2343 61.4231 74.1064 61.4396 73.9928 61.4538C73.685 61.4917 73.4223 61.5509 73.2045 61.6314C72.9867 61.7119 72.8198 61.8232 72.7037 61.9652C72.5877 62.1049 72.5297 62.2848 72.5297 62.505C72.5297 62.8364 72.6481 63.0933 72.8849 63.2756C73.1216 63.4555 73.4187 63.5455 73.7762 63.5455ZM78.3092 61.9403L78.3021 61.1129H78.4442L81.001 58.5455H81.8L79.2751 61.0739L79.2183 61.0845L78.3092 61.9403ZM77.7339 64V56.7273H78.366V64H77.7339ZM81.1324 64L78.9165 61.1982L79.371 60.7614L81.942 64H81.1324ZM84.9685 64.1136C84.4595 64.1136 84.0191 63.9953 83.6475 63.7585C83.2758 63.5194 82.9881 63.1892 82.7845 62.7678C82.5833 62.344 82.4827 61.8563 82.4827 61.3047C82.4827 60.7554 82.5833 60.2678 82.7845 59.8416C82.9881 59.4131 83.2687 59.0781 83.6262 58.8366C83.986 58.5928 84.4015 58.4709 84.8726 58.4709C85.1685 58.4709 85.4538 58.5253 85.7284 58.6342C86.003 58.7408 86.2493 58.9053 86.4671 59.1278C86.6872 59.348 86.8612 59.6262 86.9891 59.9624C87.1169 60.2962 87.1808 60.6915 87.1808 61.1484V61.4609H82.9195V60.9034H86.5345C86.5345 60.553 86.4635 60.2382 86.3215 59.9588C86.1818 59.6771 85.9865 59.4545 85.7355 59.2912C85.4869 59.1278 85.1993 59.0462 84.8726 59.0462C84.527 59.0462 84.2227 59.1385 83.96 59.3232C83.6972 59.5078 83.4912 59.7517 83.3421 60.0547C83.1953 60.3577 83.1207 60.6892 83.1183 61.049V61.3828C83.1183 61.8161 83.1929 62.1948 83.3421 62.5192C83.4936 62.8411 83.7078 63.0909 83.9848 63.2685C84.2618 63.446 84.5897 63.5348 84.9685 63.5348C85.2265 63.5348 85.4526 63.4946 85.6468 63.4141C85.8432 63.3336 86.0078 63.2259 86.1404 63.0909C86.2753 62.9536 86.3771 62.8033 86.4458 62.6399L87.0459 62.8352C86.963 63.0649 86.8269 63.2768 86.6375 63.4709C86.4505 63.665 86.2161 63.8213 85.9344 63.9396C85.655 64.0556 85.3331 64.1136 84.9685 64.1136ZM93.5347 58.5455V59.0959H90.9317V58.5455H93.5347ZM91.7449 57.2386H92.3806V62.576C92.3806 62.8033 92.4197 62.982 92.4978 63.1122C92.5759 63.2401 92.6777 63.3312 92.8032 63.3857C92.9287 63.4377 93.0624 63.4638 93.2045 63.4638C93.2873 63.4638 93.3583 63.459 93.4175 63.4496C93.4767 63.4377 93.5288 63.4259 93.5738 63.4141L93.7087 63.9858C93.6472 64.0095 93.5714 64.0308 93.4814 64.0497C93.3915 64.071 93.2802 64.0817 93.1476 64.0817C92.9156 64.0817 92.6919 64.0308 92.4765 63.929C92.2634 63.8272 92.0882 63.6757 91.9509 63.4744C91.8136 63.2732 91.7449 63.0234 91.7449 62.7251V57.2386ZM95.7195 60.5909V64H95.0874V56.7273H95.7195V59.4013H95.7764C95.9042 59.1196 96.1019 58.8946 96.3694 58.7266C96.6393 58.5585 96.9802 58.4744 97.3921 58.4744C97.7615 58.4744 98.0858 58.5502 98.3651 58.7017C98.6445 58.8532 98.8623 59.0769 99.0186 59.3729C99.1748 59.6688 99.2529 60.0334 99.2529 60.4666V64H98.6173V60.5057C98.6173 60.0559 98.4918 59.7019 98.2409 59.4439C97.9923 59.1835 97.6561 59.0533 97.2323 59.0533C96.9411 59.0533 96.6819 59.1148 96.4546 59.2379C96.2274 59.361 96.0474 59.5386 95.9149 59.7706C95.7847 60.0002 95.7195 60.2737 95.7195 60.5909ZM103.123 64.1136C102.614 64.1136 102.173 63.9953 101.802 63.7585C101.43 63.5194 101.142 63.1892 100.939 62.7678C100.738 62.344 100.637 61.8563 100.637 61.3047C100.637 60.7554 100.738 60.2678 100.939 59.8416C101.142 59.4131 101.423 59.0781 101.78 58.8366C102.14 58.5928 102.556 58.4709 103.027 58.4709C103.323 58.4709 103.608 58.5253 103.883 58.6342C104.157 58.7408 104.404 58.9053 104.621 59.1278C104.842 59.348 105.016 59.6262 105.143 59.9624C105.271 60.2962 105.335 60.6915 105.335 61.1484V61.4609H101.074V60.9034H104.689C104.689 60.553 104.618 60.2382 104.476 59.9588C104.336 59.6771 104.141 59.4545 103.89 59.2912C103.641 59.1278 103.354 59.0462 103.027 59.0462C102.681 59.0462 102.377 59.1385 102.114 59.3232C101.851 59.5078 101.646 59.7517 101.496 60.0547C101.35 60.3577 101.275 60.6892 101.273 61.049V61.3828C101.273 61.8161 101.347 62.1948 101.496 62.5192C101.648 62.8411 101.862 63.0909 102.139 63.2685C102.416 63.446 102.744 63.5348 103.123 63.5348C103.381 63.5348 103.607 63.4946 103.801 63.4141C103.998 63.3336 104.162 63.2259 104.295 63.0909C104.43 62.9536 104.531 62.8033 104.6 62.6399L105.2 62.8352C105.117 63.0649 104.981 63.2768 104.792 63.4709C104.605 63.665 104.37 63.8213 104.089 63.9396C103.809 64.0556 103.487 64.1136 103.123 64.1136ZM28.097 76.1136C27.6093 76.1136 27.1844 75.9917 26.8222 75.7479C26.4623 75.504 26.183 75.1702 25.9841 74.7464C25.7852 74.3227 25.6858 73.8397 25.6858 73.2976C25.6858 72.7507 25.7864 72.2642 25.9877 71.8381C26.1913 71.4119 26.473 71.0781 26.8328 70.8366C27.1927 70.5928 27.6105 70.4709 28.0864 70.4709C28.451 70.4709 28.7812 70.5419 29.0771 70.6839C29.3731 70.8236 29.6169 71.0213 29.8087 71.277C30.0028 71.5303 30.1247 71.8262 30.1744 72.1648H29.5352C29.469 71.857 29.3092 71.5942 29.0558 71.3764C28.8049 71.1562 28.4853 71.0462 28.097 71.0462C27.749 71.0462 27.4413 71.1409 27.1737 71.3303C26.9062 71.5173 26.6967 71.7789 26.5452 72.1151C26.396 72.4489 26.3215 72.8359 26.3215 73.2763C26.3215 73.719 26.3949 74.1108 26.5416 74.4517C26.6884 74.7902 26.8944 75.0554 27.1595 75.2472C27.4271 75.4389 27.7396 75.5348 28.097 75.5348C28.3385 75.5348 28.5587 75.4898 28.7575 75.3999C28.9588 75.3075 29.1269 75.1773 29.2618 75.0092C29.3991 74.8411 29.4914 74.6411 29.5388 74.4091H30.178C30.1307 74.7382 30.0135 75.0317 29.8264 75.2898C29.6418 75.5455 29.4015 75.7467 29.1056 75.8935C28.812 76.0402 28.4758 76.1136 28.097 76.1136ZM33.6528 76.1136C33.1817 76.1136 32.765 75.9941 32.4028 75.755C32.0429 75.5159 31.7612 75.1856 31.5576 74.7642C31.354 74.3404 31.2522 73.8516 31.2522 73.2976C31.2522 72.7389 31.354 72.2476 31.5576 71.8239C31.7612 71.3977 32.0429 71.0663 32.4028 70.8295C32.765 70.5904 33.1817 70.4709 33.6528 70.4709C34.1239 70.4709 34.5394 70.5904 34.8992 70.8295C35.2591 71.0687 35.5408 71.4001 35.7444 71.8239C35.9504 72.2476 36.0534 72.7389 36.0534 73.2976C36.0534 73.8516 35.9516 74.3404 35.748 74.7642C35.5444 75.1856 35.2615 75.5159 34.8992 75.755C34.5394 75.9941 34.1239 76.1136 33.6528 76.1136ZM33.6528 75.5348C34.0316 75.5348 34.3524 75.433 34.6151 75.2294C34.8779 75.0258 35.0768 74.7547 35.2117 74.4162C35.349 74.0777 35.4177 73.7048 35.4177 73.2976C35.4177 72.8904 35.349 72.5163 35.2117 72.1754C35.0768 71.8345 34.8779 71.5611 34.6151 71.3551C34.3524 71.1491 34.0316 71.0462 33.6528 71.0462C33.2764 71.0462 32.9556 71.1491 32.6904 71.3551C32.4276 71.5611 32.2276 71.8345 32.0903 72.1754C31.9553 72.5163 31.8879 72.8904 31.8879 73.2976C31.8879 73.7048 31.9553 74.0777 32.0903 74.4162C32.2276 74.7547 32.4276 75.0258 32.6904 75.2294C32.9532 75.433 33.274 75.5348 33.6528 75.5348ZM38.0731 72.5909V76H37.441V70.5455H38.0553V71.4013H38.1121C38.24 71.1219 38.4388 70.8982 38.7087 70.7301C38.981 70.5597 39.3171 70.4744 39.7172 70.4744C40.0842 70.4744 40.4062 70.5514 40.6831 70.7053C40.9625 70.8568 41.1791 71.0805 41.333 71.3764C41.4893 71.6723 41.5674 72.0357 41.5674 72.4666V76H40.9353V72.5057C40.9353 72.0582 40.8098 71.7043 40.5589 71.4439C40.3103 71.1835 39.9765 71.0533 39.5574 71.0533C39.271 71.0533 39.0165 71.1148 38.7939 71.2379C38.5714 71.361 38.395 71.5386 38.2648 71.7706C38.137 72.0002 38.0731 72.2737 38.0731 72.5909ZM43.8641 72.5909V76H43.232V70.5455H43.8463V71.4013H43.9031C44.031 71.1219 44.2298 70.8982 44.4997 70.7301C44.772 70.5597 45.1082 70.4744 45.5083 70.4744C45.8752 70.4744 46.1972 70.5514 46.4742 70.7053C46.7535 70.8568 46.9701 71.0805 47.124 71.3764C47.2803 71.6723 47.3584 72.0357 47.3584 72.4666V76H46.7263V72.5057C46.7263 72.0582 46.6008 71.7043 46.3499 71.4439C46.1013 71.1835 45.7675 71.0533 45.3485 71.0533C45.062 71.0533 44.8075 71.1148 44.585 71.2379C44.3624 71.361 44.1861 71.5386 44.0558 71.7706C43.928 72.0002 43.8641 72.2737 43.8641 72.5909ZM51.2282 76.1136C50.7193 76.1136 50.2789 75.9953 49.9072 75.7585C49.5355 75.5194 49.2479 75.1892 49.0443 74.7678C48.8431 74.344 48.7425 73.8563 48.7425 73.3047C48.7425 72.7554 48.8431 72.2678 49.0443 71.8416C49.2479 71.4131 49.5284 71.0781 49.8859 70.8366C50.2458 70.5928 50.6613 70.4709 51.1324 70.4709C51.4283 70.4709 51.7136 70.5253 51.9882 70.6342C52.2628 70.7408 52.509 70.9053 52.7268 71.1278C52.947 71.348 53.121 71.6262 53.2488 71.9624C53.3767 72.2962 53.4406 72.6915 53.4406 73.1484V73.4609H49.1792V72.9034H52.7943C52.7943 72.553 52.7233 72.2382 52.5812 71.9588C52.4416 71.6771 52.2462 71.4545 51.9953 71.2912C51.7467 71.1278 51.4591 71.0462 51.1324 71.0462C50.7867 71.0462 50.4825 71.1385 50.2197 71.3232C49.9569 71.5078 49.751 71.7517 49.6018 72.0547C49.455 72.3577 49.3805 72.6892 49.3781 73.049V73.3828C49.3781 73.8161 49.4527 74.1948 49.6018 74.5192C49.7533 74.8411 49.9676 75.0909 50.2446 75.2685C50.5216 75.446 50.8495 75.5348 51.2282 75.5348C51.4863 75.5348 51.7124 75.4946 51.9065 75.4141C52.103 75.3336 52.2675 75.2259 52.4001 75.0909C52.5351 74.9536 52.6369 74.8033 52.7055 74.6399L53.3057 74.8352C53.2228 75.0649 53.0867 75.2768 52.8973 75.4709C52.7103 75.665 52.4759 75.8213 52.1942 75.9396C51.9148 76.0556 51.5928 76.1136 51.2282 76.1136ZM56.9642 76.1136C56.4765 76.1136 56.0516 75.9917 55.6894 75.7479C55.3295 75.504 55.0502 75.1702 54.8513 74.7464C54.6524 74.3227 54.553 73.8397 54.553 73.2976C54.553 72.7507 54.6536 72.2642 54.8548 71.8381C55.0584 71.4119 55.3402 71.0781 55.7 70.8366C56.0599 70.5928 56.4777 70.4709 56.9536 70.4709C57.3182 70.4709 57.6484 70.5419 57.9443 70.6839C58.2403 70.8236 58.4841 71.0213 58.6759 71.277C58.87 71.5303 58.9919 71.8262 59.0416 72.1648H58.4024C58.3361 71.857 58.1763 71.5942 57.923 71.3764C57.6721 71.1562 57.3525 71.0462 56.9642 71.0462C56.6162 71.0462 56.3084 71.1409 56.0409 71.3303C55.7734 71.5173 55.5639 71.7789 55.4124 72.1151C55.2632 72.4489 55.1887 72.8359 55.1887 73.2763C55.1887 73.719 55.262 74.1108 55.4088 74.4517C55.5556 74.7902 55.7616 75.0554 56.0267 75.2472C56.2942 75.4389 56.6067 75.5348 56.9642 75.5348C57.2057 75.5348 57.4259 75.4898 57.6247 75.3999C57.826 75.3075 57.9941 75.1773 58.129 75.0092C58.2663 74.8411 58.3586 74.6411 58.406 74.4091H59.0452C58.9978 74.7382 58.8807 75.0317 58.6936 75.2898C58.509 75.5455 58.2687 75.7467 57.9727 75.8935C57.6792 76.0402 57.343 76.1136 56.9642 76.1136ZM62.5484 70.5455V71.0959H59.9454V70.5455H62.5484ZM60.7586 69.2386H61.3943V74.576C61.3943 74.8033 61.4333 74.982 61.5115 75.1122C61.5896 75.2401 61.6914 75.3312 61.8169 75.3857C61.9423 75.4377 62.0761 75.4638 62.2181 75.4638C62.301 75.4638 62.372 75.459 62.4312 75.4496C62.4904 75.4377 62.5425 75.4259 62.5874 75.4141L62.7224 75.9858C62.6608 76.0095 62.5851 76.0308 62.4951 76.0497C62.4052 76.071 62.2939 76.0817 62.1613 76.0817C61.9293 76.0817 61.7056 76.0308 61.4901 75.929C61.2771 75.8272 61.1019 75.6757 60.9646 75.4744C60.8273 75.2732 60.7586 75.0234 60.7586 74.7251V69.2386ZM63.991 76V70.5455H64.6267V76H63.991ZM64.3142 69.608C64.184 69.608 64.0727 69.5642 63.9804 69.4766C63.8881 69.3866 63.8419 69.2789 63.8419 69.1534C63.8419 69.0279 63.8881 68.9214 63.9804 68.8338C64.0727 68.7438 64.184 68.6989 64.3142 68.6989C64.4444 68.6989 64.5557 68.7438 64.648 68.8338C64.7403 68.9214 64.7865 69.0279 64.7865 69.1534C64.7865 69.2789 64.7403 69.3866 64.648 69.4766C64.5557 69.5642 64.4444 69.608 64.3142 69.608ZM68.4184 76.1136C67.9473 76.1136 67.5306 75.9941 67.1684 75.755C66.8086 75.5159 66.5268 75.1856 66.3232 74.7642C66.1196 74.3404 66.0178 73.8516 66.0178 73.2976C66.0178 72.7389 66.1196 72.2476 66.3232 71.8239C66.5268 71.3977 66.8086 71.0663 67.1684 70.8295C67.5306 70.5904 67.9473 70.4709 68.4184 70.4709C68.8895 70.4709 69.305 70.5904 69.6649 70.8295C70.0247 71.0687 70.3064 71.4001 70.51 71.8239C70.716 72.2476 70.819 72.7389 70.819 73.2976C70.819 73.8516 70.7172 74.3404 70.5136 74.7642C70.31 75.1856 70.0271 75.5159 69.6649 75.755C69.305 75.9941 68.8895 76.1136 68.4184 76.1136ZM68.4184 75.5348C68.7972 75.5348 69.118 75.433 69.3808 75.2294C69.6436 75.0258 69.8424 74.7547 69.9774 74.4162C70.1147 74.0777 70.1833 73.7048 70.1833 73.2976C70.1833 72.8904 70.1147 72.5163 69.9774 72.1754C69.8424 71.8345 69.6436 71.5611 69.3808 71.3551C69.118 71.1491 68.7972 71.0462 68.4184 71.0462C68.042 71.0462 67.7212 71.1491 67.4561 71.3551C67.1933 71.5611 66.9932 71.8345 66.8559 72.1754C66.721 72.5163 66.6535 72.8904 66.6535 73.2976C66.6535 73.7048 66.721 74.0777 66.8559 74.4162C66.9932 74.7547 67.1933 75.0258 67.4561 75.2294C67.7188 75.433 68.0396 75.5348 68.4184 75.5348ZM72.8387 72.5909V76H72.2066V70.5455H72.8209V71.4013H72.8778C73.0056 71.1219 73.2045 70.8982 73.4743 70.7301C73.7466 70.5597 74.0828 70.4744 74.4829 70.4744C74.8498 70.4744 75.1718 70.5514 75.4488 70.7053C75.7281 70.8568 75.9448 71.0805 76.0986 71.3764C76.2549 71.6723 76.333 72.0357 76.333 72.4666V76H75.7009V72.5057C75.7009 72.0582 75.5754 71.7043 75.3245 71.4439C75.0759 71.1835 74.7421 71.0533 74.3231 71.0533C74.0366 71.0533 73.7821 71.1148 73.5596 71.2379C73.337 71.361 73.1607 71.5386 73.0305 71.7706C72.9026 72.0002 72.8387 72.2737 72.8387 72.5909ZM82.021 76L80.3733 70.5455H81.0409L82.3335 75.0447H82.3797L83.6688 70.5455H84.3399L85.6183 75.0341H85.6681L86.9607 70.5455H87.6283L85.9806 76H85.3271L84.0345 71.5291H83.9671L82.6744 76H82.021ZM88.8641 76V70.5455H89.4997V76H88.8641ZM89.1872 69.608C89.057 69.608 88.9458 69.5642 88.8534 69.4766C88.7611 69.3866 88.7149 69.2789 88.7149 69.1534C88.7149 69.0279 88.7611 68.9214 88.8534 68.8338C88.9458 68.7438 89.057 68.6989 89.1872 68.6989C89.3174 68.6989 89.4287 68.7438 89.521 68.8338C89.6134 68.9214 89.6595 69.0279 89.6595 69.1534C89.6595 69.2789 89.6134 69.3866 89.521 69.4766C89.4287 69.5642 89.3174 69.608 89.1872 69.608ZM93.3199 70.5455V71.0959H90.7169V70.5455H93.3199ZM91.5301 69.2386H92.1657V74.576C92.1657 74.8033 92.2048 74.982 92.2829 75.1122C92.3611 75.2401 92.4629 75.3312 92.5883 75.3857C92.7138 75.4377 92.8476 75.4638 92.9896 75.4638C93.0725 75.4638 93.1435 75.459 93.2027 75.4496C93.2619 75.4377 93.314 75.4259 93.3589 75.4141L93.4939 75.9858C93.4323 76.0095 93.3566 76.0308 93.2666 76.0497C93.1766 76.071 93.0654 76.0817 92.9328 76.0817C92.7008 76.0817 92.4771 76.0308 92.2616 75.929C92.0486 75.8272 91.8734 75.6757 91.7361 75.4744C91.5988 75.2732 91.5301 75.0234 91.5301 74.7251V69.2386ZM95.5047 72.5909V76H94.8726V68.7273H95.5047V71.4013H95.5615C95.6894 71.1196 95.887 70.8946 96.1546 70.7266C96.4244 70.5585 96.7654 70.4744 97.1773 70.4744C97.5466 70.4744 97.8709 70.5502 98.1503 70.7017C98.4297 70.8532 98.6475 71.0769 98.8037 71.3729C98.96 71.6688 99.0381 72.0334 99.0381 72.4666V76H98.4024V72.5057C98.4024 72.0559 98.277 71.7019 98.026 71.4439C97.7774 71.1835 97.4413 71.0533 97.0175 71.0533C96.7263 71.0533 96.4671 71.1148 96.2398 71.2379C96.0125 71.361 95.8326 71.5386 95.7 71.7706C95.5698 72.0002 95.5047 72.2737 95.5047 72.5909ZM31.7525 82.5455V83.0959H29.1495V82.5455H31.7525ZM29.9627 81.2386H30.5984V86.576C30.5984 86.8033 30.6374 86.982 30.7156 87.1122C30.7937 87.2401 30.8955 87.3312 31.021 87.3857C31.1464 87.4377 31.2802 87.4638 31.4222 87.4638C31.5051 87.4638 31.5761 87.459 31.6353 87.4496C31.6945 87.4377 31.7466 87.4259 31.7915 87.4141L31.9265 87.9858C31.8649 88.0095 31.7892 88.0308 31.6992 88.0497C31.6093 88.071 31.498 88.0817 31.3654 88.0817C31.1334 88.0817 30.9097 88.0308 30.6942 87.929C30.4812 87.8272 30.306 87.6757 30.1687 87.4744C30.0314 87.2732 29.9627 87.0234 29.9627 86.7251V81.2386ZM33.9373 84.5909V88H33.3052V80.7273H33.9373V83.4013H33.9941C34.122 83.1196 34.3197 82.8946 34.5872 82.7266C34.8571 82.5585 35.198 82.4744 35.6099 82.4744C35.9792 82.4744 36.3036 82.5502 36.5829 82.7017C36.8623 82.8532 37.0801 83.0769 37.2363 83.3729C37.3926 83.6688 37.4707 84.0334 37.4707 84.4666V88H36.835V84.5057C36.835 84.0559 36.7096 83.7019 36.4586 83.4439C36.21 83.1835 35.8739 83.0533 35.4501 83.0533C35.1589 83.0533 34.8997 83.1148 34.6724 83.2379C34.4451 83.361 34.2652 83.5386 34.1326 83.7706C34.0024 84.0002 33.9373 84.2737 33.9373 84.5909ZM41.3406 88.1136C40.8316 88.1136 40.3912 87.9953 40.0195 87.7585C39.6478 87.5194 39.3602 87.1892 39.1566 86.7678C38.9554 86.344 38.8548 85.8563 38.8548 85.3047C38.8548 84.7554 38.9554 84.2678 39.1566 83.8416C39.3602 83.4131 39.6407 83.0781 39.9982 82.8366C40.3581 82.5928 40.7736 82.4709 41.2447 82.4709C41.5406 82.4709 41.8259 82.5253 42.1005 82.6342C42.3751 82.7408 42.6213 82.9053 42.8391 83.1278C43.0593 83.348 43.2333 83.6262 43.3612 83.9624C43.489 84.2962 43.5529 84.6915 43.5529 85.1484V85.4609H39.2915V84.9034H42.9066C42.9066 84.553 42.8356 84.2382 42.6935 83.9588C42.5539 83.6771 42.3585 83.4545 42.1076 83.2912C41.859 83.1278 41.5714 83.0462 41.2447 83.0462C40.899 83.0462 40.5948 83.1385 40.332 83.3232C40.0692 83.5078 39.8633 83.7517 39.7141 84.0547C39.5674 84.3577 39.4928 84.6892 39.4904 85.049V85.3828C39.4904 85.8161 39.565 86.1948 39.7141 86.5192C39.8656 86.8411 40.0799 87.0909 40.3569 87.2685C40.6339 87.446 40.9618 87.5348 41.3406 87.5348C41.5986 87.5348 41.8247 87.4946 42.0188 87.4141C42.2153 87.3336 42.3799 87.2259 42.5124 87.0909C42.6474 86.9536 42.7492 86.8033 42.8178 86.6399L43.418 86.8352C43.3351 87.0649 43.199 87.2768 43.0096 87.4709C42.8226 87.665 42.5882 87.8213 42.3065 87.9396C42.0271 88.0556 41.7051 88.1136 41.3406 88.1136ZM47.7654 82.5455H48.4011V88.5291C48.4011 88.8393 48.3431 89.1068 48.2271 89.3317C48.1135 89.5589 47.9477 89.7341 47.7299 89.8572C47.5121 89.9827 47.2493 90.0455 46.9416 90.0455C46.9179 90.0455 46.8942 90.0455 46.8706 90.0455C46.8469 90.0455 46.8208 90.0443 46.7924 90.0419L46.7995 89.4489C46.8232 89.4489 46.8457 89.4489 46.867 89.4489C46.8883 89.4489 46.9108 89.4489 46.9345 89.4489C47.1949 89.4489 47.3985 89.3684 47.5453 89.2074C47.6921 89.0464 47.7654 88.8203 47.7654 88.5291V82.5455ZM48.0779 81.608C47.9501 81.608 47.8388 81.5642 47.7441 81.4766C47.6518 81.3866 47.6056 81.2789 47.6056 81.1534C47.6056 81.0279 47.6518 80.9214 47.7441 80.8338C47.8388 80.7438 47.9501 80.6989 48.0779 80.6989C48.2082 80.6989 48.3194 80.7438 48.4118 80.8338C48.5065 80.9214 48.5538 81.0279 48.5538 81.1534C48.5538 81.2789 48.5065 81.3866 48.4118 81.4766C48.3194 81.5642 48.2082 81.608 48.0779 81.608ZM52.1928 88.1136C51.7217 88.1136 51.305 87.9941 50.9428 87.755C50.583 87.5159 50.3013 87.1856 50.0977 86.7642C49.8941 86.3404 49.7923 85.8516 49.7923 85.2976C49.7923 84.7389 49.8941 84.2476 50.0977 83.8239C50.3013 83.3977 50.583 83.0663 50.9428 82.8295C51.305 82.5904 51.7217 82.4709 52.1928 82.4709C52.6639 82.4709 53.0794 82.5904 53.4393 82.8295C53.7991 83.0687 54.0808 83.4001 54.2844 83.8239C54.4904 84.2476 54.5934 84.7389 54.5934 85.2976C54.5934 85.8516 54.4916 86.3404 54.288 86.7642C54.0844 87.1856 53.8015 87.5159 53.4393 87.755C53.0794 87.9941 52.6639 88.1136 52.1928 88.1136ZM52.1928 87.5348C52.5716 87.5348 52.8924 87.433 53.1552 87.2294C53.418 87.0258 53.6168 86.7547 53.7518 86.4162C53.8891 86.0777 53.9577 85.7048 53.9577 85.2976C53.9577 84.8904 53.8891 84.5163 53.7518 84.1754C53.6168 83.8345 53.418 83.5611 53.1552 83.3551C52.8924 83.1491 52.5716 83.0462 52.1928 83.0462C51.8164 83.0462 51.4956 83.1491 51.2305 83.3551C50.9677 83.5611 50.7676 83.8345 50.6303 84.1754C50.4954 84.5163 50.4279 84.8904 50.4279 85.2976C50.4279 85.7048 50.4954 86.0777 50.6303 86.4162C50.7676 86.7547 50.9677 87.0258 51.2305 87.2294C51.4933 87.433 51.814 87.5348 52.1928 87.5348ZM56.1124 88V80.7273H56.748V83.5859H56.8049C56.8759 83.4226 56.9777 83.2545 57.1103 83.0817C57.2452 82.9089 57.4216 82.7644 57.6394 82.6484C57.8596 82.5301 58.1365 82.4709 58.4703 82.4709C58.9178 82.4709 59.3108 82.5893 59.6493 82.826C59.9879 83.0604 60.2518 83.3894 60.4412 83.8132C60.6306 84.2346 60.7253 84.7259 60.7253 85.2869C60.7253 85.8504 60.6306 86.344 60.4412 86.7678C60.2542 87.1915 59.9914 87.5218 59.6529 87.7585C59.3167 87.9953 58.9261 88.1136 58.481 88.1136C58.1496 88.1136 57.8726 88.0545 57.65 87.9361C57.4299 87.8177 57.2523 87.6721 57.1174 87.4993C56.9824 87.3241 56.8783 87.1536 56.8049 86.9879H56.7267V88H56.1124ZM56.7374 85.2763C56.7374 85.7166 56.8025 86.1072 56.9327 86.4482C57.0653 86.7867 57.2547 87.053 57.5009 87.2472C57.7495 87.4389 58.0501 87.5348 58.4029 87.5348C58.7651 87.5348 59.0717 87.4354 59.3226 87.2365C59.5736 87.0353 59.7641 86.7642 59.8944 86.4233C60.0246 86.0824 60.0897 85.7 60.0897 85.2763C60.0897 84.8572 60.0246 84.4796 59.8944 84.1435C59.7665 83.8073 59.5771 83.541 59.3262 83.3445C59.0752 83.1456 58.7675 83.0462 58.4029 83.0462C58.0478 83.0462 57.7459 83.142 57.4973 83.3338C57.2511 83.5232 57.0629 83.786 56.9327 84.1222C56.8025 84.456 56.7374 84.8407 56.7374 85.2763ZM64.9263 88V82.5455H65.5407V83.3835H65.5975C65.7064 83.1018 65.8875 82.8804 66.1408 82.7195C66.3965 82.5561 66.7031 82.4744 67.0605 82.4744C67.437 82.4744 67.7459 82.5632 67.9874 82.7408C68.2312 82.916 68.4135 83.1574 68.5343 83.4652H68.5804C68.7035 83.1622 68.9036 82.9219 69.1806 82.7443C69.4599 82.5644 69.7985 82.4744 70.1962 82.4744C70.7028 82.4744 71.1029 82.6342 71.3965 82.9538C71.69 83.2711 71.8368 83.7351 71.8368 84.3459V88H71.2047V84.3459C71.2047 83.915 71.0946 83.5919 70.8745 83.3764C70.6543 83.161 70.3643 83.0533 70.0044 83.0533C69.5878 83.0533 69.267 83.1811 69.0421 83.4368C68.8172 83.6925 68.7047 84.0168 68.7047 84.4098V88H68.0584V84.2891C68.0584 83.9197 67.9554 83.6214 67.7495 83.3942C67.5435 83.1669 67.2535 83.0533 66.8794 83.0533C66.6285 83.0533 66.4024 83.1148 66.2012 83.2379C66.0023 83.361 65.8449 83.5327 65.7289 83.7528C65.6152 83.9706 65.5584 84.2216 65.5584 84.5057V88H64.9263ZM75.0337 88.1243C74.7047 88.1243 74.404 88.0604 74.1317 87.9325C73.8595 87.8023 73.6429 87.6153 73.4819 87.3714C73.3209 87.1252 73.2404 86.8269 73.2404 86.4766C73.2404 86.2067 73.2913 85.9794 73.3931 85.7947C73.4949 85.6101 73.6393 85.4586 73.8263 85.3402C74.0134 85.2218 74.2347 85.1283 74.4904 85.0597C74.7461 84.991 75.0278 84.9377 75.3356 84.8999C75.641 84.862 75.899 84.8288 76.1097 84.8004C76.3228 84.772 76.485 84.727 76.5962 84.6655C76.7075 84.6039 76.7631 84.5045 76.7631 84.3672V84.2393C76.7631 83.8677 76.6519 83.5753 76.4293 83.3622C76.2092 83.1468 75.8919 83.0391 75.4776 83.0391C75.0846 83.0391 74.7638 83.1255 74.5153 83.2983C74.2691 83.4711 74.0962 83.6747 73.9968 83.9091L73.3967 83.6925C73.5198 83.3942 73.6902 83.1562 73.908 82.9787C74.1258 82.7988 74.3697 82.6697 74.6396 82.5916C74.9094 82.5111 75.1829 82.4709 75.4599 82.4709C75.6682 82.4709 75.8848 82.4981 76.1097 82.5526C76.337 82.607 76.5477 82.7017 76.7418 82.8366C76.936 82.9692 77.0934 83.1551 77.2141 83.3942C77.3349 83.6309 77.3952 83.9316 77.3952 84.2962V88H76.7631V87.1371H76.7241C76.6483 87.2981 76.5359 87.4543 76.3867 87.6058C76.2376 87.7573 76.0505 87.8816 75.8256 87.9787C75.6007 88.0758 75.3368 88.1243 75.0337 88.1243ZM75.119 87.5455C75.4551 87.5455 75.7463 87.4709 75.9925 87.3217C76.2388 87.1726 76.4281 86.9749 76.5607 86.7287C76.6957 86.4801 76.7631 86.2067 76.7631 85.9084V85.12C76.7158 85.165 76.6365 85.2053 76.5252 85.2408C76.4163 85.2763 76.2897 85.3082 76.1452 85.3366C76.0032 85.3627 75.8612 85.3852 75.7191 85.4041C75.5771 85.4231 75.4492 85.4396 75.3356 85.4538C75.0278 85.4917 74.765 85.5509 74.5472 85.6314C74.3294 85.7119 74.1625 85.8232 74.0465 85.9652C73.9305 86.1049 73.8725 86.2848 73.8725 86.505C73.8725 86.8364 73.9909 87.0933 74.2276 87.2756C74.4644 87.4555 74.7615 87.5455 75.119 87.5455ZM79.0767 88V82.5455H79.6911V83.3835H79.7372C79.8461 83.1089 80.0355 82.8875 80.3054 82.7195C80.5777 82.549 80.8854 82.4638 81.2287 82.4638C81.2808 82.4638 81.3388 82.465 81.4027 82.4673C81.4666 82.4697 81.5199 82.4721 81.5625 82.4744V83.1172C81.5341 83.1125 81.4844 83.1054 81.4134 83.0959C81.3423 83.0864 81.2654 83.0817 81.1825 83.0817C80.8984 83.0817 80.6451 83.142 80.4226 83.2628C80.2024 83.3812 80.0284 83.5457 79.9006 83.7564C79.7727 83.9671 79.7088 84.2074 79.7088 84.4773V88H79.0767ZM83.2164 85.9403L83.2093 85.1129H83.3514L85.9082 82.5455H86.7072L84.1824 85.0739L84.1255 85.0845L83.2164 85.9403ZM82.6412 88V80.7273H83.2733V88H82.6412ZM86.0396 88L83.8237 85.1982L84.2782 84.7614L86.8493 88H86.0396ZM89.8757 88.1136C89.3667 88.1136 88.9264 87.9953 88.5547 87.7585C88.183 87.5194 87.8954 87.1892 87.6918 86.7678C87.4905 86.344 87.3899 85.8563 87.3899 85.3047C87.3899 84.7554 87.4905 84.2678 87.6918 83.8416C87.8954 83.4131 88.1759 83.0781 88.5334 82.8366C88.8932 82.5928 89.3087 82.4709 89.7798 82.4709C90.0758 82.4709 90.361 82.5253 90.6357 82.6342C90.9103 82.7408 91.1565 82.9053 91.3743 83.1278C91.5945 83.348 91.7685 83.6262 91.8963 83.9624C92.0241 84.2962 92.0881 84.6915 92.0881 85.1484V85.4609H87.8267V84.9034H91.4418C91.4418 84.553 91.3707 84.2382 91.2287 83.9588C91.089 83.6771 90.8937 83.4545 90.6428 83.2912C90.3942 83.1278 90.1065 83.0462 89.7798 83.0462C89.4342 83.0462 89.13 83.1385 88.8672 83.3232C88.6044 83.5078 88.3984 83.7517 88.2493 84.0547C88.1025 84.3577 88.0279 84.6892 88.0256 85.049V85.3828C88.0256 85.8161 88.1001 86.1948 88.2493 86.5192C88.4008 86.8411 88.6151 87.0909 88.892 87.2685C89.169 87.446 89.4969 87.5348 89.8757 87.5348C90.1338 87.5348 90.3598 87.4946 90.554 87.4141C90.7505 87.3336 90.915 87.2259 91.0476 87.0909C91.1825 86.9536 91.2843 86.8033 91.353 86.6399L91.9531 86.8352C91.8703 87.0649 91.7341 87.2768 91.5447 87.4709C91.3577 87.665 91.1233 87.8213 90.8416 87.9396C90.5623 88.0556 90.2403 88.1136 89.8757 88.1136ZM95.6294 82.5455V83.0959H93.0265V82.5455H95.6294ZM93.8397 81.2386H94.4753V86.576C94.4753 86.8033 94.5144 86.982 94.5925 87.1122C94.6706 87.2401 94.7724 87.3312 94.8979 87.3857C95.0234 87.4377 95.1571 87.4638 95.2992 87.4638C95.382 87.4638 95.4531 87.459 95.5123 87.4496C95.5714 87.4377 95.6235 87.4259 95.6685 87.4141L95.8034 87.9858C95.7419 88.0095 95.6661 88.0308 95.5762 88.0497C95.4862 88.071 95.3749 88.0817 95.2424 88.0817C95.0104 88.0817 94.7866 88.0308 94.5712 87.929C94.3581 87.8272 94.1829 87.6757 94.0456 87.4744C93.9083 87.2732 93.8397 87.0234 93.8397 86.7251V81.2386Z" fill="#333333"/>
</g>
<defs>
<filter id="filter0_d_893_411" x="0" y="0" width="118" height="118" filterUnits="userSpaceOnUse" color-interpolation-filters="sRGB">
<feFlood flood-opacity="0" result="BackgroundImageFix"/>
<feColorMatrix in="SourceAlpha" type="matrix" values="0 0 0 0 0 0 0 0 0 0 0 0 0 0 0 0 0 0 127 0" result="hardAlpha"/>
<feOffset dy="4"/>
<feGaussianBlur stdDeviation="2"/>
<feComposite in2="hardAlpha" operator="out"/>
<feColorMatrix type="matrix" values="0 0 0 0 0 0 0 0 0 0 0 0 0 0 0 0 0 0 0.25 0"/>
<feBlend mode="normal" in2="BackgroundImageFix" result="effect1_dropShadow_893_411"/>
<feBlend mode="normal" in="SourceGraphic" in2="effect1_dropShadow_893_411" result="shape"/>
</filter>
</defs>
</svg>
