<svg width="118" height="118" viewBox="0 0 118 118" fill="none" xmlns="http://www.w3.org/2000/svg">
<g filter="url(#filter0_d_893_409)">
<rect x="4" width="110" height="110" fill="#FCDC4A"/>
<path d="M16.0347 23V17.5455H16.6491V18.3835H16.7059C16.8148 18.1018 16.9959 17.8804 17.2492 17.7195C17.5049 17.5561 17.8115 17.4744 18.1689 17.4744C18.5454 17.4744 18.8543 17.5632 19.0958 17.7408C19.3396 17.916 19.5219 18.1574 19.6427 18.4652H19.6888C19.8119 18.1622 20.012 17.9219 20.289 17.7443C20.5683 17.5644 20.9069 17.4744 21.3046 17.4744C21.8112 17.4744 22.2113 17.6342 22.5049 17.9538C22.7984 18.2711 22.9452 18.7351 22.9452 19.3459V23H22.3131V19.3459C22.3131 18.915 22.203 18.5919 21.9829 18.3764C21.7627 18.161 21.4727 18.0533 21.1128 18.0533C20.6962 18.0533 20.3754 18.1811 20.1505 18.4368C19.9256 18.6925 19.8131 19.0168 19.8131 19.4098V23H19.1668V19.2891C19.1668 18.9197 19.0638 18.6214 18.8579 18.3942C18.6519 18.1669 18.3619 18.0533 17.9878 18.0533C17.7369 18.0533 17.5108 18.1148 17.3096 18.2379C17.1107 18.361 16.9533 18.5327 16.8373 18.7528C16.7236 18.9706 16.6668 19.2216 16.6668 19.5057V23H16.0347ZM24.6258 23V17.5455H25.2615V23H24.6258ZM24.949 16.608C24.8187 16.608 24.7075 16.5642 24.6151 16.4766C24.5228 16.3866 24.4767 16.2789 24.4767 16.1534C24.4767 16.0279 24.5228 15.9214 24.6151 15.8338C24.7075 15.7438 24.8187 15.6989 24.949 15.6989C25.0792 15.6989 25.1904 15.7438 25.2828 15.8338C25.3751 15.9214 25.4213 16.0279 25.4213 16.1534C25.4213 16.2789 25.3751 16.3866 25.2828 16.4766C25.1904 16.5642 25.0792 16.608 24.949 16.608ZM29.0141 25.1591C28.6424 25.1591 28.3169 25.1106 28.0376 25.0135C27.7582 24.9188 27.5226 24.7886 27.3309 24.6229C27.1391 24.4571 26.99 24.2713 26.8834 24.0653L27.4019 23.7244C27.48 23.8617 27.5842 23.9967 27.7144 24.1293C27.847 24.2618 28.0186 24.3719 28.2293 24.4595C28.4424 24.5471 28.704 24.5909 29.0141 24.5909C29.4971 24.5909 29.8865 24.4702 30.1824 24.2287C30.4807 23.9872 30.6299 23.612 30.6299 23.103V21.8743H30.5731C30.4997 22.04 30.3943 22.2057 30.257 22.3714C30.1197 22.5348 29.9398 22.6709 29.7172 22.7798C29.4971 22.8887 29.2236 22.9432 28.8969 22.9432C28.4613 22.9432 28.0742 22.8355 27.7357 22.62C27.3995 22.4046 27.1344 22.0968 26.9403 21.6967C26.7485 21.2943 26.6526 20.8149 26.6526 20.2585C26.6526 19.7069 26.7461 19.2216 26.9331 18.8026C27.1225 18.3835 27.3865 18.0568 27.7251 17.8224C28.0636 17.5881 28.4578 17.4709 28.9076 17.4709C29.2414 17.4709 29.5184 17.5301 29.7385 17.6484C29.9587 17.7644 30.1351 17.9089 30.2677 18.0817C30.4026 18.2545 30.508 18.4226 30.5837 18.5859H30.6476V17.5455H31.2655V23.142C31.2655 23.6037 31.1673 23.9837 30.9708 24.282C30.7743 24.5803 30.5068 24.8004 30.1682 24.9425C29.8297 25.0869 29.445 25.1591 29.0141 25.1591ZM28.9715 22.3643C29.3219 22.3643 29.6214 22.2803 29.8699 22.1122C30.1185 21.9418 30.3091 21.6979 30.4417 21.3807C30.5742 21.0634 30.6405 20.6858 30.6405 20.2479C30.6405 19.8217 30.5754 19.4441 30.4452 19.1151C30.315 18.7836 30.1256 18.5232 29.877 18.3338C29.6308 18.142 29.329 18.0462 28.9715 18.0462C28.6069 18.0462 28.2992 18.1444 28.0482 18.3409C27.7973 18.5374 27.6079 18.8026 27.48 19.1364C27.3522 19.4678 27.2883 19.8383 27.2883 20.2479C27.2883 20.6645 27.3534 21.0327 27.4836 21.3523C27.6138 21.6695 27.8044 21.9181 28.0553 22.098C28.3063 22.2756 28.6117 22.3643 28.9715 22.3643ZM33.5711 19.5909V23H32.939V15.7273H33.5711V18.4013H33.6279C33.7558 18.1196 33.9535 17.8946 34.221 17.7266C34.4909 17.5585 34.8318 17.4744 35.2437 17.4744C35.613 17.4744 35.9374 17.5502 36.2167 17.7017C36.4961 17.8532 36.7139 18.0769 36.8701 18.3729C37.0264 18.6688 37.1045 19.0334 37.1045 19.4666V23H36.4688V19.5057C36.4688 19.0559 36.3434 18.7019 36.0924 18.4439C35.8438 18.1835 35.5077 18.0533 35.0839 18.0533C34.7927 18.0533 34.5335 18.1148 34.3062 18.2379C34.0789 18.361 33.899 18.5386 33.7664 18.7706C33.6362 19.0002 33.5711 19.2737 33.5711 19.5909ZM40.9175 17.5455V18.0959H38.3145V17.5455H40.9175ZM39.1278 16.2386H39.7634V21.576C39.7634 21.8033 39.8025 21.982 39.8806 22.1122C39.9587 22.2401 40.0605 22.3312 40.186 22.3857C40.3115 22.4377 40.4452 22.4638 40.5873 22.4638C40.6701 22.4638 40.7412 22.459 40.8003 22.4496C40.8595 22.4377 40.9116 22.4259 40.9566 22.4141L41.0915 22.9858C41.03 23.0095 40.9542 23.0308 40.8643 23.0497C40.7743 23.071 40.663 23.0817 40.5305 23.0817C40.2984 23.0817 40.0747 23.0308 39.8593 22.929C39.6462 22.8272 39.471 22.6757 39.3337 22.4744C39.1964 22.2732 39.1278 22.0234 39.1278 21.7251V16.2386ZM45.1656 23V17.5455H45.7799V18.3835H45.8367C45.9456 18.1018 46.1267 17.8804 46.3801 17.7195C46.6357 17.5561 46.9423 17.4744 47.2998 17.4744C47.6762 17.4744 47.9852 17.5632 48.2267 17.7408C48.4705 17.916 48.6528 18.1574 48.7735 18.4652H48.8197C48.9428 18.1622 49.1428 17.9219 49.4198 17.7443C49.6992 17.5644 50.0377 17.4744 50.4355 17.4744C50.9421 17.4744 51.3422 17.6342 51.6357 17.9538C51.9293 18.2711 52.0761 18.7351 52.0761 19.3459V23H51.444V19.3459C51.444 18.915 51.3339 18.5919 51.1137 18.3764C50.8936 18.161 50.6035 18.0533 50.2437 18.0533C49.827 18.0533 49.5062 18.1811 49.2813 18.4368C49.0564 18.6925 48.944 19.0168 48.944 19.4098V23H48.2977V19.2891C48.2977 18.9197 48.1947 18.6214 47.9887 18.3942C47.7828 18.1669 47.4927 18.0533 47.1187 18.0533C46.8677 18.0533 46.6417 18.1148 46.4404 18.2379C46.2416 18.361 46.0841 18.5327 45.9681 18.7528C45.8545 18.9706 45.7977 19.2216 45.7977 19.5057V23H45.1656ZM55.273 23.1243C54.9439 23.1243 54.6433 23.0604 54.371 22.9325C54.0988 22.8023 53.8821 22.6153 53.7211 22.3714C53.5602 22.1252 53.4797 21.8269 53.4797 21.4766C53.4797 21.2067 53.5306 20.9794 53.6324 20.7947C53.7342 20.6101 53.8786 20.4586 54.0656 20.3402C54.2526 20.2218 54.474 20.1283 54.7297 20.0597C54.9854 19.991 55.2671 19.9377 55.5748 19.8999C55.8802 19.862 56.1383 19.8288 56.349 19.8004C56.5621 19.772 56.7242 19.727 56.8355 19.6655C56.9468 19.6039 57.0024 19.5045 57.0024 19.3672V19.2393C57.0024 18.8677 56.8911 18.5753 56.6686 18.3622C56.4484 18.1468 56.1312 18.0391 55.7169 18.0391C55.3239 18.0391 55.0031 18.1255 54.7545 18.2983C54.5083 18.4711 54.3355 18.6747 54.2361 18.9091L53.6359 18.6925C53.759 18.3942 53.9295 18.1562 54.1473 17.9787C54.3651 17.7988 54.6089 17.6697 54.8788 17.5916C55.1487 17.5111 55.4221 17.4709 55.6991 17.4709C55.9075 17.4709 56.1241 17.4981 56.349 17.5526C56.5763 17.607 56.787 17.7017 56.9811 17.8366C57.1752 17.9692 57.3327 18.1551 57.4534 18.3942C57.5741 18.6309 57.6345 18.9316 57.6345 19.2962V23H57.0024V22.1371H56.9633C56.8876 22.2981 56.7751 22.4543 56.626 22.6058C56.4768 22.7573 56.2898 22.8816 56.0649 22.9787C55.84 23.0758 55.576 23.1243 55.273 23.1243ZM55.3582 22.5455C55.6944 22.5455 55.9856 22.4709 56.2318 22.3217C56.478 22.1726 56.6674 21.9749 56.8 21.7287C56.9349 21.4801 57.0024 21.2067 57.0024 20.9084V20.12C56.955 20.165 56.8757 20.2053 56.7645 20.2408C56.6556 20.2763 56.5289 20.3082 56.3845 20.3366C56.2425 20.3627 56.1004 20.3852 55.9584 20.4041C55.8163 20.4231 55.6885 20.4396 55.5748 20.4538C55.2671 20.4917 55.0043 20.5509 54.7865 20.6314C54.5687 20.7119 54.4018 20.8232 54.2858 20.9652C54.1698 21.1049 54.1118 21.2848 54.1118 21.505C54.1118 21.8364 54.2301 22.0933 54.4669 22.2756C54.7036 22.4555 55.0007 22.5455 55.3582 22.5455ZM59.8912 20.9403L59.8841 20.1129H60.0262L62.583 17.5455H63.382L60.8572 20.0739L60.8003 20.0845L59.8912 20.9403ZM59.316 23V15.7273H59.9481V23H59.316ZM62.7144 23L60.4985 20.1982L60.953 19.7614L63.5241 23H62.7144ZM66.5505 23.1136C66.0415 23.1136 65.6012 22.9953 65.2295 22.7585C64.8578 22.5194 64.5702 22.1892 64.3666 21.7678C64.1653 21.344 64.0647 20.8563 64.0647 20.3047C64.0647 19.7554 64.1653 19.2678 64.3666 18.8416C64.5702 18.4131 64.8507 18.0781 65.2082 17.8366C65.568 17.5928 65.9835 17.4709 66.4546 17.4709C66.7506 17.4709 67.0358 17.5253 67.3105 17.6342C67.5851 17.7408 67.8313 17.9053 68.0491 18.1278C68.2693 18.348 68.4433 18.6262 68.5711 18.9624C68.699 19.2962 68.7629 19.6915 68.7629 20.1484V20.4609H64.5015V19.9034H68.1166C68.1166 19.553 68.0455 19.2382 67.9035 18.9588C67.7638 18.6771 67.5685 18.4545 67.3176 18.2912C67.069 18.1278 66.7813 18.0462 66.4546 18.0462C66.109 18.0462 65.8048 18.1385 65.542 18.3232C65.2792 18.5078 65.0732 18.7517 64.9241 19.0547C64.7773 19.3577 64.7027 19.6892 64.7004 20.049V20.3828C64.7004 20.8161 64.7749 21.1948 64.9241 21.5192C65.0756 21.8411 65.2899 22.0909 65.5669 22.2685C65.8438 22.446 66.1717 22.5348 66.5505 22.5348C66.8086 22.5348 67.0347 22.4946 67.2288 22.4141C67.4253 22.3336 67.5898 22.2259 67.7224 22.0909C67.8573 21.9536 67.9591 21.8033 68.0278 21.6399L68.6279 21.8352C68.5451 22.0649 68.4089 22.2768 68.2195 22.4709C68.0325 22.665 67.7981 22.8213 67.5164 22.9396C67.2371 23.0556 66.9151 23.1136 66.5505 23.1136ZM76.6331 18.7422L76.0542 18.9055C75.9974 18.7422 75.9169 18.5942 75.8128 18.4616C75.7086 18.3291 75.5725 18.2237 75.4044 18.1456C75.2387 18.0675 75.0327 18.0284 74.7865 18.0284C74.4172 18.0284 74.1141 18.116 73.8774 18.2912C73.6407 18.4664 73.5223 18.6925 73.5223 18.9695C73.5223 19.2038 73.6028 19.3944 73.7638 19.5412C73.9271 19.6856 74.1781 19.8004 74.5166 19.8857L75.3405 20.0881C75.7974 20.1993 76.1395 20.3757 76.3667 20.6172C76.5964 20.8587 76.7112 21.1617 76.7112 21.5263C76.7112 21.834 76.626 22.1075 76.4555 22.3466C76.2851 22.5857 76.0471 22.7739 75.7417 22.9112C75.4387 23.0462 75.0872 23.1136 74.6871 23.1136C74.1544 23.1136 73.7152 22.9941 73.3696 22.755C73.0239 22.5135 72.8026 22.1655 72.7055 21.7109L73.3128 21.5618C73.3909 21.8861 73.5436 22.1312 73.7709 22.2969C74.0005 22.4626 74.3023 22.5455 74.6764 22.5455C75.0954 22.5455 75.4304 22.4519 75.6814 22.2649C75.9323 22.0755 76.0578 21.8388 76.0578 21.5547C76.0578 21.3345 75.9844 21.1499 75.8376 21.0007C75.6908 20.8492 75.4683 20.7379 75.17 20.6669L74.2787 20.4538C73.8052 20.3402 73.4548 20.1603 73.2275 19.9141C73.0003 19.6679 72.8866 19.3625 72.8866 18.9979C72.8866 18.6972 72.9683 18.4332 73.1317 18.206C73.295 17.9763 73.5199 17.7964 73.8064 17.6662C74.0928 17.536 74.4195 17.4709 74.7865 17.4709C75.286 17.4709 75.6849 17.5845 75.9832 17.8118C76.2839 18.0367 76.5005 18.3468 76.6331 18.7422ZM80.3005 23.1136C79.7915 23.1136 79.3512 22.9953 78.9795 22.7585C78.6078 22.5194 78.3202 22.1892 78.1166 21.7678C77.9153 21.344 77.8147 20.8563 77.8147 20.3047C77.8147 19.7554 77.9153 19.2678 78.1166 18.8416C78.3202 18.4131 78.6007 18.0781 78.9582 17.8366C79.318 17.5928 79.7335 17.4709 80.2046 17.4709C80.5006 17.4709 80.7858 17.5253 81.0605 17.6342C81.3351 17.7408 81.5813 17.9053 81.7991 18.1278C82.0193 18.348 82.1933 18.6262 82.3211 18.9624C82.449 19.2962 82.5129 19.6915 82.5129 20.1484V20.4609H78.2515V19.9034H81.8666C81.8666 19.553 81.7955 19.2382 81.6535 18.9588C81.5138 18.6771 81.3185 18.4545 81.0676 18.2912C80.819 18.1278 80.5313 18.0462 80.2046 18.0462C79.859 18.0462 79.5548 18.1385 79.292 18.3232C79.0292 18.5078 78.8232 18.7517 78.6741 19.0547C78.5273 19.3577 78.4527 19.6892 78.4504 20.049V20.3828C78.4504 20.8161 78.5249 21.1948 78.6741 21.5192C78.8256 21.8411 79.0399 22.0909 79.3169 22.2685C79.5938 22.446 79.9217 22.5348 80.3005 22.5348C80.5586 22.5348 80.7847 22.4946 80.9788 22.4141C81.1753 22.3336 81.3398 22.2259 81.4724 22.0909C81.6073 21.9536 81.7091 21.8033 81.7778 21.6399L82.3779 21.8352C82.2951 22.0649 82.1589 22.2768 81.9695 22.4709C81.7825 22.665 81.5481 22.8213 81.2664 22.9396C80.9871 23.0556 80.6651 23.1136 80.3005 23.1136ZM84.5379 19.5909V23H83.9058V17.5455H84.5202V18.4013H84.577C84.7048 18.1219 84.9037 17.8982 85.1736 17.7301C85.4458 17.5597 85.782 17.4744 86.1821 17.4744C86.549 17.4744 86.871 17.5514 87.148 17.7053C87.4273 17.8568 87.644 18.0805 87.7979 18.3764C87.9541 18.6723 88.0322 19.0357 88.0322 19.4666V23H87.4001V19.5057C87.4001 19.0582 87.2747 18.7043 87.0237 18.4439C86.7751 18.1835 86.4413 18.0533 86.0223 18.0533C85.7358 18.0533 85.4813 18.1148 85.2588 18.2379C85.0363 18.361 84.8599 18.5386 84.7297 18.7706C84.6018 19.0002 84.5379 19.2737 84.5379 19.5909ZM93.3616 18.7422L92.7828 18.9055C92.7259 18.7422 92.6454 18.5942 92.5413 18.4616C92.4371 18.3291 92.301 18.2237 92.1329 18.1456C91.9672 18.0675 91.7612 18.0284 91.515 18.0284C91.1457 18.0284 90.8427 18.116 90.6059 18.2912C90.3692 18.4664 90.2508 18.6925 90.2508 18.9695C90.2508 19.2038 90.3313 19.3944 90.4923 19.5412C90.6556 19.6856 90.9066 19.8004 91.2451 19.8857L92.069 20.0881C92.5259 20.1993 92.868 20.3757 93.0953 20.6172C93.3249 20.8587 93.4397 21.1617 93.4397 21.5263C93.4397 21.834 93.3545 22.1075 93.184 22.3466C93.0136 22.5857 92.7757 22.7739 92.4703 22.9112C92.1672 23.0462 91.8157 23.1136 91.4156 23.1136C90.8829 23.1136 90.4437 22.9941 90.0981 22.755C89.7525 22.5135 89.5311 22.1655 89.434 21.7109L90.0413 21.5618C90.1194 21.8861 90.2721 22.1312 90.4994 22.2969C90.729 22.4626 91.0309 22.5455 91.4049 22.5455C91.824 22.5455 92.1589 22.4519 92.4099 22.2649C92.6608 22.0755 92.7863 21.8388 92.7863 21.5547C92.7863 21.3345 92.7129 21.1499 92.5661 21.0007C92.4194 20.8492 92.1968 20.7379 91.8985 20.6669L91.0072 20.4538C90.5337 20.3402 90.1833 20.1603 89.9561 19.9141C89.7288 19.6679 89.6151 19.3625 89.6151 18.9979C89.6151 18.6972 89.6968 18.4332 89.8602 18.206C90.0235 17.9763 90.2484 17.7964 90.5349 17.6662C90.8213 17.536 91.1481 17.4709 91.515 17.4709C92.0145 17.4709 92.4134 17.5845 92.7117 17.8118C93.0124 18.0367 93.229 18.3468 93.3616 18.7422ZM97.029 23.1136C96.52 23.1136 96.0797 22.9953 95.708 22.7585C95.3363 22.5194 95.0487 22.1892 94.8451 21.7678C94.6439 21.344 94.5432 20.8563 94.5432 20.3047C94.5432 19.7554 94.6439 19.2678 94.8451 18.8416C95.0487 18.4131 95.3292 18.0781 95.6867 17.8366C96.0465 17.5928 96.462 17.4709 96.9331 17.4709C97.2291 17.4709 97.5144 17.5253 97.789 17.6342C98.0636 17.7408 98.3098 17.9053 98.5276 18.1278C98.7478 18.348 98.9218 18.6262 99.0496 18.9624C99.1775 19.2962 99.2414 19.6915 99.2414 20.1484V20.4609H94.98V19.9034H98.5951C98.5951 19.553 98.5241 19.2382 98.382 18.9588C98.2423 18.6771 98.047 18.4545 97.7961 18.2912C97.5475 18.1278 97.2599 18.0462 96.9331 18.0462C96.5875 18.0462 96.2833 18.1385 96.0205 18.3232C95.7577 18.5078 95.5518 18.7517 95.4026 19.0547C95.2558 19.3577 95.1813 19.6892 95.1789 20.049V20.3828C95.1789 20.8161 95.2535 21.1948 95.4026 21.5192C95.5541 21.8411 95.7684 22.0909 96.0454 22.2685C96.3224 22.446 96.6502 22.5348 97.029 22.5348C97.2871 22.5348 97.5132 22.4946 97.7073 22.4141C97.9038 22.3336 98.0683 22.2259 98.2009 22.0909C98.3358 21.9536 98.4376 21.8033 98.5063 21.6399L99.1064 21.8352C99.0236 22.0649 98.8875 22.2768 98.6981 22.4709C98.511 22.665 98.2767 22.8213 97.9949 22.9396C97.7156 23.0556 97.3936 23.1136 97.029 23.1136ZM11.3161 29.5455V30.0959H8.63503V29.5455H11.3161ZM9.4731 35V28.7464C9.4731 28.4529 9.54057 28.2055 9.67551 28.0043C9.81283 27.803 9.99157 27.6503 10.2117 27.5462C10.4319 27.442 10.6651 27.3899 10.9113 27.3899C11.077 27.3899 11.2143 27.4041 11.3232 27.4325C11.4345 27.4586 11.5221 27.4846 11.586 27.5107L11.4014 28.0646C11.354 28.0504 11.296 28.0339 11.2274 28.0149C11.1587 27.996 11.0723 27.9865 10.9681 27.9865C10.6935 27.9865 10.4816 28.0634 10.3325 28.2173C10.1833 28.3712 10.1088 28.5914 10.1088 28.8778L10.1052 35H9.4731ZM14.4731 35.1136C14.002 35.1136 13.5853 34.9941 13.2231 34.755C12.8633 34.5159 12.5815 34.1856 12.3779 33.7642C12.1743 33.3404 12.0725 32.8516 12.0725 32.2976C12.0725 31.7389 12.1743 31.2476 12.3779 30.8239C12.5815 30.3977 12.8633 30.0663 13.2231 29.8295C13.5853 29.5904 14.002 29.4709 14.4731 29.4709C14.9442 29.4709 15.3597 29.5904 15.7195 29.8295C16.0794 30.0687 16.3611 30.4001 16.5647 30.8239C16.7707 31.2476 16.8737 31.7389 16.8737 32.2976C16.8737 32.8516 16.7719 33.3404 16.5683 33.7642C16.3647 34.1856 16.0818 34.5159 15.7195 34.755C15.3597 34.9941 14.9442 35.1136 14.4731 35.1136ZM14.4731 34.5348C14.8519 34.5348 15.1727 34.433 15.4355 34.2294C15.6982 34.0258 15.8971 33.7547 16.032 33.4162C16.1694 33.0777 16.238 32.7048 16.238 32.2976C16.238 31.8904 16.1694 31.5163 16.032 31.1754C15.8971 30.8345 15.6982 30.5611 15.4355 30.3551C15.1727 30.1491 14.8519 30.0462 14.4731 30.0462C14.0967 30.0462 13.7759 30.1491 13.5107 30.3551C13.248 30.5611 13.0479 30.8345 12.9106 31.1754C12.7757 31.5163 12.7082 31.8904 12.7082 32.2976C12.7082 32.7048 12.7757 33.0777 12.9106 33.4162C13.0479 33.7547 13.248 34.0258 13.5107 34.2294C13.7735 34.433 14.0943 34.5348 14.4731 34.5348ZM18.2613 35V29.5455H18.8756V30.3835H18.9218C19.0307 30.1089 19.2201 29.8875 19.49 29.7195C19.7622 29.549 20.07 29.4638 20.4133 29.4638C20.4653 29.4638 20.5233 29.465 20.5873 29.4673C20.6512 29.4697 20.7045 29.4721 20.7471 29.4744V30.1172C20.7187 30.1125 20.6689 30.1054 20.5979 30.0959C20.5269 30.0864 20.45 30.0817 20.3671 30.0817C20.083 30.0817 19.8297 30.142 19.6072 30.2628C19.387 30.3812 19.213 30.5457 19.0851 30.7564C18.9573 30.9671 18.8934 31.2074 18.8934 31.4773V35H18.2613ZM24.7696 35V27.7273H25.4337V34.4034H28.8996V35H24.7696ZM32.4685 35.1136C31.9595 35.1136 31.5191 34.9953 31.1475 34.7585C30.7758 34.5194 30.4881 34.1892 30.2845 33.7678C30.0833 33.344 29.9827 32.8563 29.9827 32.3047C29.9827 31.7554 30.0833 31.2678 30.2845 30.8416C30.4881 30.4131 30.7687 30.0781 31.1262 29.8366C31.486 29.5928 31.9015 29.4709 32.3726 29.4709C32.6685 29.4709 32.9538 29.5253 33.2284 29.6342C33.503 29.7408 33.7493 29.9053 33.9671 30.1278C34.1872 30.348 34.3612 30.6262 34.4891 30.9624C34.6169 31.2962 34.6808 31.6915 34.6808 32.1484V32.4609H30.4195V31.9034H34.0345C34.0345 31.553 33.9635 31.2382 33.8215 30.9588C33.6818 30.6771 33.4865 30.4545 33.2355 30.2912C32.9869 30.1278 32.6993 30.0462 32.3726 30.0462C32.027 30.0462 31.7227 30.1385 31.46 30.3232C31.1972 30.5078 30.9912 30.7517 30.8421 31.0547C30.6953 31.3577 30.6207 31.6892 30.6183 32.049V32.3828C30.6183 32.8161 30.6929 33.1948 30.8421 33.5192C30.9936 33.8411 31.2078 34.0909 31.4848 34.2685C31.7618 34.446 32.0897 34.5348 32.4685 34.5348C32.7265 34.5348 32.9526 34.4946 33.1468 34.4141C33.3432 34.3336 33.5078 34.2259 33.6404 34.0909C33.7753 33.9536 33.8771 33.8033 33.9458 33.6399L34.5459 33.8352C34.463 34.0649 34.3269 34.2768 34.1375 34.4709C33.9505 34.665 33.7161 34.8213 33.4344 34.9396C33.155 35.0556 32.8331 35.1136 32.4685 35.1136ZM38.2045 35.1136C37.7168 35.1136 37.2918 34.9917 36.9296 34.7479C36.5698 34.504 36.2904 34.1702 36.0915 33.7464C35.8927 33.3227 35.7932 32.8397 35.7932 32.2976C35.7932 31.7507 35.8939 31.2642 36.0951 30.8381C36.2987 30.4119 36.5804 30.0781 36.9403 29.8366C37.3001 29.5928 37.718 29.4709 38.1938 29.4709C38.5584 29.4709 38.8886 29.5419 39.1846 29.6839C39.4805 29.8236 39.7243 30.0213 39.9161 30.277C40.1102 30.5303 40.2322 30.8262 40.2819 31.1648H39.6427C39.5764 30.857 39.4166 30.5942 39.1633 30.3764C38.9123 30.1562 38.5927 30.0462 38.2045 30.0462C37.8564 30.0462 37.5487 30.1409 37.2812 30.3303C37.0136 30.5173 36.8041 30.7789 36.6526 31.1151C36.5035 31.4489 36.4289 31.8359 36.4289 32.2763C36.4289 32.719 36.5023 33.1108 36.6491 33.4517C36.7958 33.7902 37.0018 34.0554 37.267 34.2472C37.5345 34.4389 37.847 34.5348 38.2045 34.5348C38.4459 34.5348 38.6661 34.4898 38.865 34.3999C39.0662 34.3075 39.2343 34.1773 39.3692 34.0092C39.5065 33.8411 39.5989 33.6411 39.6462 33.4091H40.2854C40.2381 33.7382 40.1209 34.0317 39.9339 34.2898C39.7492 34.5455 39.5089 34.7467 39.213 34.8935C38.9194 35.0402 38.5832 35.1136 38.2045 35.1136ZM43.7886 29.5455V30.0959H41.1856V29.5455H43.7886ZM41.9988 28.2386H42.6345V33.576C42.6345 33.8033 42.6736 33.982 42.7517 34.1122C42.8298 34.2401 42.9316 34.3312 43.0571 34.3857C43.1826 34.4377 43.3163 34.4638 43.4584 34.4638C43.5412 34.4638 43.6122 34.459 43.6714 34.4496C43.7306 34.4377 43.7827 34.4259 43.8277 34.4141L43.9626 34.9858C43.9011 35.0095 43.8253 35.0308 43.7354 35.0497C43.6454 35.071 43.5341 35.0817 43.4015 35.0817C43.1695 35.0817 42.9458 35.0308 42.7304 34.929C42.5173 34.8272 42.3421 34.6757 42.2048 34.4744C42.0675 34.2732 41.9988 34.0234 41.9988 33.7251V28.2386ZM48.6901 32.9155V29.5455H49.3222V35H48.6901V34.0945H48.6404C48.5125 34.3738 48.3101 34.607 48.0331 34.794C47.7561 34.9787 47.4176 35.071 47.0175 35.071C46.6695 35.071 46.3605 34.9953 46.0906 34.8438C45.8208 34.6899 45.6089 34.465 45.455 34.169C45.3011 33.8731 45.2242 33.5097 45.2242 33.0788V29.5455H45.8563V33.0398C45.8563 33.4659 45.9817 33.8092 46.2327 34.0696C46.4836 34.3277 46.8056 34.4567 47.1986 34.4567C47.4448 34.4567 47.6816 34.3975 47.9088 34.2791C48.1361 34.1607 48.3231 33.9879 48.4699 33.7607C48.6167 33.531 48.6901 33.2493 48.6901 32.9155ZM50.9956 35V29.5455H51.61V30.3835H51.6562C51.7651 30.1089 51.9545 29.8875 52.2243 29.7195C52.4966 29.549 52.8044 29.4638 53.1476 29.4638C53.1997 29.4638 53.2577 29.465 53.3216 29.4673C53.3856 29.4697 53.4388 29.4721 53.4814 29.4744V30.1172C53.453 30.1125 53.4033 30.1054 53.3323 30.0959C53.2613 30.0864 53.1843 30.0817 53.1015 30.0817C52.8174 30.0817 52.5641 30.142 52.3415 30.2628C52.1214 30.3812 51.9474 30.5457 51.8195 30.7564C51.6917 30.9671 51.6278 31.2074 51.6278 31.4773V35H50.9956ZM56.5993 35.1136C56.0903 35.1136 55.65 34.9953 55.2783 34.7585C54.9066 34.5194 54.619 34.1892 54.4154 33.7678C54.2142 33.344 54.1135 32.8563 54.1135 32.3047C54.1135 31.7554 54.2142 31.2678 54.4154 30.8416C54.619 30.4131 54.8995 30.0781 55.257 29.8366C55.6169 29.5928 56.0323 29.4709 56.5035 29.4709C56.7994 29.4709 57.0847 29.5253 57.3593 29.6342C57.6339 29.7408 57.8801 29.9053 58.0979 30.1278C58.3181 30.348 58.4921 30.6262 58.6199 30.9624C58.7478 31.2962 58.8117 31.6915 58.8117 32.1484V32.4609H54.5503V31.9034H58.1654C58.1654 31.553 58.0944 31.2382 57.9523 30.9588C57.8126 30.6771 57.6173 30.4545 57.3664 30.2912C57.1178 30.1278 56.8302 30.0462 56.5035 30.0462C56.1578 30.0462 55.8536 30.1385 55.5908 30.3232C55.328 30.5078 55.1221 30.7517 54.9729 31.0547C54.8261 31.3577 54.7516 31.6892 54.7492 32.049V32.3828C54.7492 32.8161 54.8238 33.1948 54.9729 33.5192C55.1244 33.8411 55.3387 34.0909 55.6157 34.2685C55.8927 34.446 56.2206 34.5348 56.5993 34.5348C56.8574 34.5348 57.0835 34.4946 57.2776 34.4141C57.4741 34.3336 57.6386 34.2259 57.7712 34.0909C57.9062 33.9536 58.008 33.8033 58.0766 33.6399L58.6768 33.8352C58.5939 34.0649 58.4578 34.2768 58.2684 34.4709C58.0814 34.665 57.847 34.8213 57.5653 34.9396C57.2859 35.0556 56.9639 35.1136 56.5993 35.1136ZM65.961 31.5838V32.1804H62.9355V31.5838H65.961ZM72.5093 29.5455V30.0959H69.9063V29.5455H72.5093ZM70.7195 28.2386H71.3552V33.576C71.3552 33.8033 71.3943 33.982 71.4724 34.1122C71.5505 34.2401 71.6523 34.3312 71.7778 34.3857C71.9033 34.4377 72.037 34.4638 72.1791 34.4638C72.2619 34.4638 72.3329 34.459 72.3921 34.4496C72.4513 34.4377 72.5034 34.4259 72.5484 34.4141L72.6833 34.9858C72.6218 35.0095 72.546 35.0308 72.4561 35.0497C72.3661 35.071 72.2548 35.0817 72.1222 35.0817C71.8902 35.0817 71.6665 35.0308 71.4511 34.929C71.238 34.8272 71.0628 34.6757 70.9255 34.4744C70.7882 34.2732 70.7195 34.0234 70.7195 33.7251V28.2386ZM76.0063 35.1136C75.5352 35.1136 75.1185 34.9941 74.7563 34.755C74.3965 34.5159 74.1147 34.1856 73.9111 33.7642C73.7075 33.3404 73.6057 32.8516 73.6057 32.2976C73.6057 31.7389 73.7075 31.2476 73.9111 30.8239C74.1147 30.3977 74.3965 30.0663 74.7563 29.8295C75.1185 29.5904 75.5352 29.4709 76.0063 29.4709C76.4774 29.4709 76.8929 29.5904 77.2528 29.8295C77.6126 30.0687 77.8943 30.4001 78.0979 30.8239C78.3039 31.2476 78.4069 31.7389 78.4069 32.2976C78.4069 32.8516 78.3051 33.3404 78.1015 33.7642C77.8979 34.1856 77.615 34.5159 77.2528 34.755C76.8929 34.9941 76.4774 35.1136 76.0063 35.1136ZM76.0063 34.5348C76.3851 34.5348 76.7059 34.433 76.9687 34.2294C77.2314 34.0258 77.4303 33.7547 77.5653 33.4162C77.7026 33.0777 77.7712 32.7048 77.7712 32.2976C77.7712 31.8904 77.7026 31.5163 77.5653 31.1754C77.4303 30.8345 77.2314 30.5611 76.9687 30.3551C76.7059 30.1491 76.3851 30.0462 76.0063 30.0462C75.6299 30.0462 75.3091 30.1491 75.0439 30.3551C74.7812 30.5611 74.5811 30.8345 74.4438 31.1754C74.3089 31.5163 74.2414 31.8904 74.2414 32.2976C74.2414 32.7048 74.3089 33.0777 74.4438 33.4162C74.5811 33.7547 74.7812 34.0258 75.0439 34.2294C75.3067 34.433 75.6275 34.5348 76.0063 34.5348ZM82.607 35V29.5455H83.2213V30.3835H83.2781C83.387 30.1018 83.5682 29.8804 83.8215 29.7195C84.0771 29.5561 84.3837 29.4744 84.7412 29.4744C85.1176 29.4744 85.4266 29.5632 85.6681 29.7408C85.9119 29.916 86.0942 30.1574 86.2149 30.4652H86.2611C86.3842 30.1622 86.5843 29.9219 86.8612 29.7443C87.1406 29.5644 87.4791 29.4744 87.8769 29.4744C88.3835 29.4744 88.7836 29.6342 89.0771 29.9538C89.3707 30.2711 89.5175 30.7351 89.5175 31.3459V35H88.8854V31.3459C88.8854 30.915 88.7753 30.5919 88.5551 30.3764C88.335 30.161 88.045 30.0533 87.6851 30.0533C87.2684 30.0533 86.9477 30.1811 86.7227 30.4368C86.4978 30.6925 86.3854 31.0168 86.3854 31.4098V35H85.7391V31.2891C85.7391 30.9197 85.6361 30.6214 85.4301 30.3942C85.2242 30.1669 84.9342 30.0533 84.5601 30.0533C84.3092 30.0533 84.0831 30.1148 83.8818 30.2379C83.683 30.361 83.5255 30.5327 83.4095 30.7528C83.2959 30.9706 83.2391 31.2216 83.2391 31.5057V35H82.607ZM92.7144 35.1243C92.3853 35.1243 92.0847 35.0604 91.8124 34.9325C91.5402 34.8023 91.3235 34.6153 91.1626 34.3714C91.0016 34.1252 90.9211 33.8269 90.9211 33.4766C90.9211 33.2067 90.972 32.9794 91.0738 32.7947C91.1756 32.6101 91.32 32.4586 91.507 32.3402C91.694 32.2218 91.9154 32.1283 92.1711 32.0597C92.4268 31.991 92.7085 31.9377 93.0162 31.8999C93.3216 31.862 93.5797 31.8288 93.7904 31.8004C94.0035 31.772 94.1656 31.727 94.2769 31.6655C94.3882 31.6039 94.4438 31.5045 94.4438 31.3672V31.2393C94.4438 30.8677 94.3325 30.5753 94.11 30.3622C93.8898 30.1468 93.5726 30.0391 93.1583 30.0391C92.7653 30.0391 92.4445 30.1255 92.1959 30.2983C91.9497 30.4711 91.7769 30.6747 91.6775 30.9091L91.0773 30.6925C91.2004 30.3942 91.3709 30.1562 91.5887 29.9787C91.8065 29.7988 92.0503 29.6697 92.3202 29.5916C92.5901 29.5111 92.8635 29.4709 93.1405 29.4709C93.3489 29.4709 93.5655 29.4981 93.7904 29.5526C94.0177 29.607 94.2284 29.7017 94.4225 29.8366C94.6166 29.9692 94.7741 30.1551 94.8948 30.3942C95.0155 30.6309 95.0759 30.9316 95.0759 31.2962V35H94.4438V34.1371H94.4047C94.329 34.2981 94.2165 34.4543 94.0674 34.6058C93.9182 34.7573 93.7312 34.8816 93.5063 34.9787C93.2814 35.0758 93.0174 35.1243 92.7144 35.1243ZM92.7996 34.5455C93.1358 34.5455 93.427 34.4709 93.6732 34.3217C93.9194 34.1726 94.1088 33.9749 94.2414 33.7287C94.3763 33.4801 94.4438 33.2067 94.4438 32.9084V32.12C94.3965 32.165 94.3171 32.2053 94.2059 32.2408C94.097 32.2763 93.9703 32.3082 93.8259 32.3366C93.6839 32.3627 93.5418 32.3852 93.3998 32.4041C93.2577 32.4231 93.1299 32.4396 93.0162 32.4538C92.7085 32.4917 92.4457 32.5509 92.2279 32.6314C92.0101 32.7119 91.8432 32.8232 91.7272 32.9652C91.6112 33.1049 91.5532 33.2848 91.5532 33.505C91.5532 33.8364 91.6715 34.0933 91.9083 34.2756C92.145 34.4555 92.4421 34.5455 92.7996 34.5455ZM97.3327 32.9403L97.3256 32.1129H97.4676L100.024 29.5455H100.823L98.2986 32.0739L98.2417 32.0845L97.3327 32.9403ZM96.7574 35V27.7273H97.3895V35H96.7574ZM100.156 35L97.9399 32.1982L98.3944 31.7614L100.965 35H100.156ZM103.992 35.1136C103.483 35.1136 103.043 34.9953 102.671 34.7585C102.299 34.5194 102.012 34.1892 101.808 33.7678C101.607 33.344 101.506 32.8563 101.506 32.3047C101.506 31.7554 101.607 31.2678 101.808 30.8416C102.012 30.4131 102.292 30.0781 102.65 29.8366C103.009 29.5928 103.425 29.4709 103.896 29.4709C104.192 29.4709 104.477 29.5253 104.752 29.6342C105.026 29.7408 105.273 29.9053 105.491 30.1278C105.711 30.348 105.885 30.6262 106.013 30.9624C106.14 31.2962 106.204 31.6915 106.204 32.1484V32.4609H101.943V31.9034H105.558C105.558 31.553 105.487 31.2382 105.345 30.9588C105.205 30.6771 105.01 30.4545 104.759 30.2912C104.51 30.1278 104.223 30.0462 103.896 30.0462C103.55 30.0462 103.246 30.1385 102.983 30.3232C102.721 30.5078 102.515 30.7517 102.366 31.0547C102.219 31.3577 102.144 31.6892 102.142 32.049V32.3828C102.142 32.8161 102.216 33.1948 102.366 33.5192C102.517 33.8411 102.731 34.0909 103.008 34.2685C103.285 34.446 103.613 34.5348 103.992 34.5348C104.25 34.5348 104.476 34.4946 104.67 34.4141C104.867 34.3336 105.031 34.2259 105.164 34.0909C105.299 33.9536 105.401 33.8033 105.469 33.6399L106.069 33.8352C105.986 34.0649 105.85 34.2768 105.661 34.4709C105.474 34.665 105.24 34.8213 104.958 34.9396C104.678 35.0556 104.357 35.1136 103.992 35.1136ZM12.5972 47V41.5455H13.2116V42.3835H13.2684C13.3773 42.1018 13.5584 41.8804 13.8117 41.7195C14.0674 41.5561 14.374 41.4744 14.7314 41.4744C15.1079 41.4744 15.4168 41.5632 15.6583 41.7408C15.9021 41.916 16.0844 42.1574 16.2052 42.4652H16.2513C16.3744 42.1622 16.5745 41.9219 16.8515 41.7443C17.1308 41.5644 17.4694 41.4744 17.8671 41.4744C18.3737 41.4744 18.7738 41.6342 19.0674 41.9538C19.3609 42.2711 19.5077 42.7351 19.5077 43.3459V47H18.8756V43.3459C18.8756 42.915 18.7655 42.5919 18.5454 42.3764C18.3252 42.161 18.0352 42.0533 17.6753 42.0533C17.2587 42.0533 16.9379 42.1811 16.713 42.4368C16.4881 42.6925 16.3756 43.0168 16.3756 43.4098V47H15.7293V43.2891C15.7293 42.9197 15.6263 42.6214 15.4204 42.3942C15.2144 42.1669 14.9244 42.0533 14.5503 42.0533C14.2994 42.0533 14.0733 42.1148 13.8721 42.2379C13.6732 42.361 13.5158 42.5327 13.3998 42.7528C13.2861 42.9706 13.2293 43.2216 13.2293 43.5057V47H12.5972ZM23.3012 47.1136C22.8301 47.1136 22.4134 46.9941 22.0512 46.755C21.6914 46.5159 21.4097 46.1856 21.2061 45.7642C21.0025 45.3404 20.9007 44.8516 20.9007 44.2976C20.9007 43.7389 21.0025 43.2476 21.2061 42.8239C21.4097 42.3977 21.6914 42.0663 22.0512 41.8295C22.4134 41.5904 22.8301 41.4709 23.3012 41.4709C23.7723 41.4709 24.1878 41.5904 24.5477 41.8295C24.9075 42.0687 25.1892 42.4001 25.3928 42.8239C25.5988 43.2476 25.7018 43.7389 25.7018 44.2976C25.7018 44.8516 25.6 45.3404 25.3964 45.7642C25.1928 46.1856 24.9099 46.5159 24.5477 46.755C24.1878 46.9941 23.7723 47.1136 23.3012 47.1136ZM23.3012 46.5348C23.68 46.5348 24.0008 46.433 24.2636 46.2294C24.5264 46.0258 24.7252 45.7547 24.8602 45.4162C24.9975 45.0777 25.0661 44.7048 25.0661 44.2976C25.0661 43.8904 24.9975 43.5163 24.8602 43.1754C24.7252 42.8345 24.5264 42.5611 24.2636 42.3551C24.0008 42.1491 23.68 42.0462 23.3012 42.0462C22.9248 42.0462 22.604 42.1491 22.3389 42.3551C22.0761 42.5611 21.876 42.8345 21.7387 43.1754C21.6038 43.5163 21.5363 43.8904 21.5363 44.2976C21.5363 44.7048 21.6038 45.0777 21.7387 45.4162C21.876 45.7547 22.0761 46.0258 22.3389 46.2294C22.6017 46.433 22.9224 46.5348 23.3012 46.5348ZM29.0532 47.1136C28.6057 47.1136 28.2139 46.9953 27.8778 46.7585C27.5416 46.5218 27.2788 46.1915 27.0894 45.7678C26.9024 45.344 26.8089 44.8504 26.8089 44.2869C26.8089 43.7259 26.9024 43.2346 27.0894 42.8132C27.2788 42.3894 27.5428 42.0604 27.8813 41.826C28.2198 41.5893 28.614 41.4709 29.0638 41.4709C29.3953 41.4709 29.6711 41.5301 29.8912 41.6484C30.1114 41.7644 30.2878 41.9089 30.4204 42.0817C30.5529 42.2545 30.6559 42.4226 30.7293 42.5859H30.7861V39.7273H31.4218V47H30.8039V45.9879H30.7293C30.6559 46.1536 30.5518 46.3241 30.4168 46.4993C30.2819 46.6721 30.1031 46.8177 29.8806 46.9361C29.6604 47.0545 29.3846 47.1136 29.0532 47.1136ZM29.1278 46.5348C29.4805 46.5348 29.7812 46.4389 30.0297 46.2472C30.2783 46.053 30.4677 45.7867 30.5979 45.4482C30.7305 45.1072 30.7968 44.7166 30.7968 44.2763C30.7968 43.8407 30.7317 43.456 30.6015 43.1222C30.4713 42.786 30.2819 42.5232 30.0333 42.3338C29.7847 42.142 29.4829 42.0462 29.1278 42.0462C28.7632 42.0462 28.4554 42.1456 28.2045 42.3445C27.9559 42.541 27.7665 42.8073 27.6363 43.1435C27.5084 43.4796 27.4445 43.8572 27.4445 44.2763C27.4445 44.7 27.5096 45.0824 27.6398 45.4233C27.77 45.7642 27.9594 46.0353 28.208 46.2365C28.459 46.4354 28.7655 46.5348 29.1278 46.5348ZM36.6881 44.9155V41.5455H37.3202V47H36.6881V46.0945H36.6384C36.5106 46.3738 36.3081 46.607 36.0312 46.794C35.7542 46.9787 35.4156 47.071 35.0155 47.071C34.6675 47.071 34.3586 46.9953 34.0887 46.8438C33.8188 46.6899 33.6069 46.465 33.453 46.169C33.2992 45.8731 33.2222 45.5097 33.2222 45.0788V41.5455H33.8543V45.0398C33.8543 45.4659 33.9798 45.8092 34.2307 46.0696C34.4817 46.3277 34.8037 46.4567 35.1966 46.4567C35.4429 46.4567 35.6796 46.3975 35.9069 46.2791C36.1341 46.1607 36.3212 45.9879 36.468 45.7607C36.6147 45.531 36.6881 45.2493 36.6881 44.9155ZM39.6258 39.7273V47H38.9937V39.7273H39.6258ZM43.5036 47.1136C42.9946 47.1136 42.5543 46.9953 42.1826 46.7585C41.8109 46.5194 41.5233 46.1892 41.3197 45.7678C41.1185 45.344 41.0178 44.8563 41.0178 44.3047C41.0178 43.7554 41.1185 43.2678 41.3197 42.8416C41.5233 42.4131 41.8038 42.0781 42.1613 41.8366C42.5212 41.5928 42.9366 41.4709 43.4078 41.4709C43.7037 41.4709 43.989 41.5253 44.2636 41.6342C44.5382 41.7408 44.7844 41.9053 45.0022 42.1278C45.2224 42.348 45.3964 42.6262 45.5242 42.9624C45.6521 43.2962 45.716 43.6915 45.716 44.1484V44.4609H41.4546V43.9034H45.0697C45.0697 43.553 44.9987 43.2382 44.8566 42.9588C44.7169 42.6771 44.5216 42.4545 44.2707 42.2912C44.0221 42.1278 43.7345 42.0462 43.4078 42.0462C43.0621 42.0462 42.7579 42.1385 42.4951 42.3232C42.2323 42.5078 42.0264 42.7517 41.8772 43.0547C41.7304 43.3577 41.6559 43.6892 41.6535 44.049V44.3828C41.6535 44.8161 41.7281 45.1948 41.8772 45.5192C42.0287 45.8411 42.243 46.0909 42.52 46.2685C42.797 46.446 43.1249 46.5348 43.5036 46.5348C43.7617 46.5348 43.9878 46.4946 44.1819 46.4141C44.3784 46.3336 44.5429 46.2259 44.6755 46.0909C44.8105 45.9536 44.9123 45.8033 44.9809 45.6399L45.5811 45.8352C45.4982 46.0649 45.3621 46.2768 45.1727 46.4709C44.9856 46.665 44.7513 46.8213 44.4695 46.9396C44.1902 47.0556 43.8682 47.1136 43.5036 47.1136ZM50.7737 42.7422L50.1949 42.9055C50.1381 42.7422 50.0576 42.5942 49.9534 42.4616C49.8492 42.3291 49.7131 42.2237 49.545 42.1456C49.3793 42.0675 49.1733 42.0284 48.9271 42.0284C48.5578 42.0284 48.2548 42.116 48.018 42.2912C47.7813 42.4664 47.6629 42.6925 47.6629 42.9695C47.6629 43.2038 47.7434 43.3944 47.9044 43.5412C48.0677 43.6856 48.3187 43.8004 48.6572 43.8857L49.4811 44.0881C49.938 44.1993 50.2801 44.3757 50.5074 44.6172C50.737 44.8587 50.8518 45.1617 50.8518 45.5263C50.8518 45.834 50.7666 46.1075 50.5961 46.3466C50.4257 46.5857 50.1878 46.7739 49.8824 46.9112C49.5793 47.0462 49.2278 47.1136 48.8277 47.1136C48.295 47.1136 47.8559 46.9941 47.5102 46.755C47.1646 46.5135 46.9432 46.1655 46.8461 45.7109L47.4534 45.5618C47.5315 45.8861 47.6842 46.1312 47.9115 46.2969C48.1411 46.4626 48.443 46.5455 48.817 46.5455C49.2361 46.5455 49.5711 46.4519 49.822 46.2649C50.0729 46.0755 50.1984 45.8388 50.1984 45.5547C50.1984 45.3345 50.125 45.1499 49.9782 45.0007C49.8315 44.8492 49.6089 44.7379 49.3106 44.6669L48.4193 44.4538C47.9458 44.3402 47.5954 44.1603 47.3682 43.9141C47.1409 43.6679 47.0273 43.3625 47.0273 42.9979C47.0273 42.6972 47.1089 42.4332 47.2723 42.206C47.4356 41.9763 47.6605 41.7964 47.947 41.6662C48.2335 41.536 48.5602 41.4709 48.9271 41.4709C49.4266 41.4709 49.8256 41.5845 50.1238 41.8118C50.4245 42.0367 50.6411 42.3468 50.7737 42.7422ZM57.2927 41.5455V42.0959H54.6116V41.5455H57.2927ZM55.4497 47V40.7464C55.4497 40.4529 55.5171 40.2055 55.6521 40.0043C55.7894 39.803 55.9681 39.6503 56.1883 39.5462C56.4085 39.442 56.6417 39.3899 56.8879 39.3899C57.0536 39.3899 57.1909 39.4041 57.2998 39.4325C57.4111 39.4586 57.4987 39.4846 57.5626 39.5107L57.3779 40.0646C57.3306 40.0504 57.2726 40.0339 57.2039 40.0149C57.1353 39.996 57.0489 39.9865 56.9447 39.9865C56.6701 39.9865 56.4582 40.0634 56.309 40.2173C56.1599 40.3712 56.0853 40.5914 56.0853 40.8778L56.0818 47H55.4497ZM58.5542 47V41.5455H59.1686V42.3835H59.2148C59.3237 42.1089 59.5131 41.8875 59.7829 41.7195C60.0552 41.549 60.363 41.4638 60.7062 41.4638C60.7583 41.4638 60.8163 41.465 60.8802 41.4673C60.9442 41.4697 60.9974 41.4721 61.04 41.4744V42.1172C61.0116 42.1125 60.9619 42.1054 60.8909 42.0959C60.8199 42.0864 60.7429 42.0817 60.6601 42.0817C60.376 42.0817 60.1227 42.142 59.9001 42.2628C59.68 42.3812 59.5059 42.5457 59.3781 42.7564C59.2503 42.9671 59.1863 43.2074 59.1863 43.4773V47H58.5542ZM64.0727 47.1136C63.6016 47.1136 63.1849 46.9941 62.8227 46.755C62.4629 46.5159 62.1811 46.1856 61.9775 45.7642C61.7739 45.3404 61.6721 44.8516 61.6721 44.2976C61.6721 43.7389 61.7739 43.2476 61.9775 42.8239C62.1811 42.3977 62.4629 42.0663 62.8227 41.8295C63.1849 41.5904 63.6016 41.4709 64.0727 41.4709C64.5438 41.4709 64.9593 41.5904 65.3192 41.8295C65.679 42.0687 65.9607 42.4001 66.1643 42.8239C66.3703 43.2476 66.4733 43.7389 66.4733 44.2976C66.4733 44.8516 66.3715 45.3404 66.1679 45.7642C65.9643 46.1856 65.6814 46.5159 65.3192 46.755C64.9593 46.9941 64.5438 47.1136 64.0727 47.1136ZM64.0727 46.5348C64.4515 46.5348 64.7723 46.433 65.0351 46.2294C65.2979 46.0258 65.4967 45.7547 65.6317 45.4162C65.769 45.0777 65.8376 44.7048 65.8376 44.2976C65.8376 43.8904 65.769 43.5163 65.6317 43.1754C65.4967 42.8345 65.2979 42.5611 65.0351 42.3551C64.7723 42.1491 64.4515 42.0462 64.0727 42.0462C63.6963 42.0462 63.3755 42.1491 63.1104 42.3551C62.8476 42.5611 62.6475 42.8345 62.5102 43.1754C62.3753 43.5163 62.3078 43.8904 62.3078 44.2976C62.3078 44.7048 62.3753 45.0777 62.5102 45.4162C62.6475 45.7547 62.8476 46.0258 63.1104 46.2294C63.3731 46.433 63.6939 46.5348 64.0727 46.5348ZM67.8609 47V41.5455H68.4752V42.3835H68.532C68.641 42.1018 68.8221 41.8804 69.0754 41.7195C69.3311 41.5561 69.6376 41.4744 69.9951 41.4744C70.3715 41.4744 70.6805 41.5632 70.922 41.7408C71.1658 41.916 71.3481 42.1574 71.4688 42.4652H71.515C71.6381 42.1622 71.8382 41.9219 72.1151 41.7443C72.3945 41.5644 72.733 41.4744 73.1308 41.4744C73.6374 41.4744 74.0375 41.6342 74.3311 41.9538C74.6246 42.2711 74.7714 42.7351 74.7714 43.3459V47H74.1393V43.3459C74.1393 42.915 74.0292 42.5919 73.809 42.3764C73.5889 42.161 73.2989 42.0533 72.939 42.0533C72.5223 42.0533 72.2016 42.1811 71.9767 42.4368C71.7517 42.6925 71.6393 43.0168 71.6393 43.4098V47H70.993V43.2891C70.993 42.9197 70.89 42.6214 70.684 42.3942C70.4781 42.1669 70.1881 42.0533 69.814 42.0533C69.5631 42.0533 69.337 42.1148 69.1357 42.2379C68.9369 42.361 68.7794 42.5327 68.6634 42.7528C68.5498 42.9706 68.493 43.2216 68.493 43.5057V47H67.8609ZM81.3774 47.1136C80.9063 47.1136 80.4896 46.9941 80.1274 46.755C79.7675 46.5159 79.4858 46.1856 79.2822 45.7642C79.0786 45.3404 78.9768 44.8516 78.9768 44.2976C78.9768 43.7389 79.0786 43.2476 79.2822 42.8239C79.4858 42.3977 79.7675 42.0663 80.1274 41.8295C80.4896 41.5904 80.9063 41.4709 81.3774 41.4709C81.8485 41.4709 82.264 41.5904 82.6238 41.8295C82.9837 42.0687 83.2654 42.4001 83.469 42.8239C83.675 43.2476 83.778 43.7389 83.778 44.2976C83.778 44.8516 83.6762 45.3404 83.4726 45.7642C83.269 46.1856 82.9861 46.5159 82.6238 46.755C82.264 46.9941 81.8485 47.1136 81.3774 47.1136ZM81.3774 46.5348C81.7562 46.5348 82.077 46.433 82.3398 46.2294C82.6025 46.0258 82.8014 45.7547 82.9363 45.4162C83.0737 45.0777 83.1423 44.7048 83.1423 44.2976C83.1423 43.8904 83.0737 43.5163 82.9363 43.1754C82.8014 42.8345 82.6025 42.5611 82.3398 42.3551C82.077 42.1491 81.7562 42.0462 81.3774 42.0462C81.001 42.0462 80.6802 42.1491 80.415 42.3551C80.1523 42.5611 79.9522 42.8345 79.8149 43.1754C79.68 43.5163 79.6125 43.8904 79.6125 44.2976C79.6125 44.7048 79.68 45.0777 79.8149 45.4162C79.9522 45.7547 80.1523 46.0258 80.415 46.2294C80.6778 46.433 80.9986 46.5348 81.3774 46.5348ZM87.314 41.5455V42.0959H84.711V41.5455H87.314ZM85.5242 40.2386H86.1599V45.576C86.1599 45.8033 86.199 45.982 86.2771 46.1122C86.3552 46.2401 86.457 46.3312 86.5825 46.3857C86.7079 46.4377 86.8417 46.4638 86.9838 46.4638C87.0666 46.4638 87.1376 46.459 87.1968 46.4496C87.256 46.4377 87.3081 46.4259 87.3531 46.4141L87.488 46.9858C87.4265 47.0095 87.3507 47.0308 87.2607 47.0497C87.1708 47.071 87.0595 47.0817 86.9269 47.0817C86.6949 47.0817 86.4712 47.0308 86.2558 46.929C86.0427 46.8272 85.8675 46.6757 85.7302 46.4744C85.5929 46.2732 85.5242 46.0234 85.5242 45.7251V40.2386ZM89.4988 43.5909V47H88.8667V39.7273H89.4988V42.4013H89.5557C89.6835 42.1196 89.8812 41.8946 90.1487 41.7266C90.4186 41.5585 90.7595 41.4744 91.1714 41.4744C91.5407 41.4744 91.8651 41.5502 92.1444 41.7017C92.4238 41.8532 92.6416 42.0769 92.7979 42.3729C92.9541 42.6688 93.0322 43.0334 93.0322 43.4666V47H92.3966V43.5057C92.3966 43.0559 92.2711 42.7019 92.0202 42.4439C91.7716 42.1835 91.4354 42.0533 91.0116 42.0533C90.7204 42.0533 90.4612 42.1148 90.2339 42.2379C90.0067 42.361 89.8267 42.5386 89.6942 42.7706C89.564 43.0002 89.4988 43.2737 89.4988 43.5909ZM96.9021 47.1136C96.3931 47.1136 95.9527 46.9953 95.5811 46.7585C95.2094 46.5194 94.9217 46.1892 94.7181 45.7678C94.5169 45.344 94.4163 44.8563 94.4163 44.3047C94.4163 43.7554 94.5169 43.2678 94.7181 42.8416C94.9217 42.4131 95.2023 42.0781 95.5597 41.8366C95.9196 41.5928 96.3351 41.4709 96.8062 41.4709C97.1021 41.4709 97.3874 41.5253 97.662 41.6342C97.9366 41.7408 98.1829 41.9053 98.4007 42.1278C98.6208 42.348 98.7948 42.6262 98.9227 42.9624C99.0505 43.2962 99.1144 43.6915 99.1144 44.1484V44.4609H94.8531V43.9034H98.4681C98.4681 43.553 98.3971 43.2382 98.2551 42.9588C98.1154 42.6771 97.9201 42.4545 97.6691 42.2912C97.4205 42.1278 97.1329 42.0462 96.8062 42.0462C96.4606 42.0462 96.1563 42.1385 95.8936 42.3232C95.6308 42.5078 95.4248 42.7517 95.2757 43.0547C95.1289 43.3577 95.0543 43.6892 95.0519 44.049V44.3828C95.0519 44.8161 95.1265 45.1948 95.2757 45.5192C95.4272 45.8411 95.6414 46.0909 95.9184 46.2685C96.1954 46.446 96.5233 46.5348 96.9021 46.5348C97.1601 46.5348 97.3862 46.4946 97.5803 46.4141C97.7768 46.3336 97.9414 46.2259 98.074 46.0909C98.2089 45.9536 98.3107 45.8033 98.3794 45.6399L98.9795 45.8352C98.8966 46.0649 98.7605 46.2768 98.5711 46.4709C98.3841 46.665 98.1497 46.8213 97.868 46.9396C97.5886 47.0556 97.2667 47.1136 96.9021 47.1136ZM100.507 47V41.5455H101.122V42.3835H101.168C101.277 42.1089 101.466 41.8875 101.736 41.7195C102.008 41.549 102.316 41.4638 102.659 41.4638C102.711 41.4638 102.769 41.465 102.833 41.4673C102.897 41.4697 102.951 41.4721 102.993 41.4744V42.1172C102.965 42.1125 102.915 42.1054 102.844 42.0959C102.773 42.0864 102.696 42.0817 102.613 42.0817C102.329 42.0817 102.076 42.142 101.853 42.2628C101.633 42.3812 101.459 42.5457 101.331 42.7564C101.203 42.9671 101.139 43.2074 101.139 43.4773V47H100.507ZM12.5062 59.1136C12.0185 59.1136 11.5936 58.9917 11.2314 58.7479C10.8715 58.504 10.5922 58.1702 10.3933 57.7464C10.1944 57.3227 10.095 56.8397 10.095 56.2976C10.095 55.7507 10.1956 55.2642 10.3968 54.8381C10.6004 54.4119 10.8822 54.0781 11.242 53.8366C11.6019 53.5928 12.0197 53.4709 12.4956 53.4709C12.8601 53.4709 13.1904 53.5419 13.4863 53.6839C13.7823 53.8236 14.0261 54.0213 14.2179 54.277C14.412 54.5303 14.5339 54.8262 14.5836 55.1648H13.9444C13.8781 54.857 13.7183 54.5942 13.465 54.3764C13.2141 54.1562 12.8945 54.0462 12.5062 54.0462C12.1582 54.0462 11.8504 54.1409 11.5829 54.3303C11.3154 54.5173 11.1059 54.7789 10.9544 55.1151C10.8052 55.4489 10.7306 55.8359 10.7306 56.2763C10.7306 56.719 10.804 57.1108 10.9508 57.4517C11.0976 57.7902 11.3036 58.0554 11.5687 58.2472C11.8362 58.4389 12.1487 58.5348 12.5062 58.5348C12.7477 58.5348 12.9679 58.4898 13.1667 58.3999C13.368 58.3075 13.536 58.1773 13.671 58.0092C13.8083 57.8411 13.9006 57.6411 13.948 57.4091H14.5872C14.5398 57.7382 14.4226 58.0317 14.2356 58.2898C14.051 58.5455 13.8107 58.7467 13.5147 58.8935C13.2212 59.0402 12.885 59.1136 12.5062 59.1136ZM18.062 59.1136C17.5908 59.1136 17.1742 58.9941 16.812 58.755C16.4521 58.5159 16.1704 58.1856 15.9668 57.7642C15.7632 57.3404 15.6614 56.8516 15.6614 56.2976C15.6614 55.7389 15.7632 55.2476 15.9668 54.8239C16.1704 54.3977 16.4521 54.0663 16.812 53.8295C17.1742 53.5904 17.5908 53.4709 18.062 53.4709C18.5331 53.4709 18.9486 53.5904 19.3084 53.8295C19.6683 54.0687 19.95 54.4001 20.1536 54.8239C20.3596 55.2476 20.4625 55.7389 20.4625 56.2976C20.4625 56.8516 20.3607 57.3404 20.1571 57.7642C19.9535 58.1856 19.6706 58.5159 19.3084 58.755C18.9486 58.9941 18.5331 59.1136 18.062 59.1136ZM18.062 58.5348C18.4408 58.5348 18.7615 58.433 19.0243 58.2294C19.2871 58.0258 19.486 57.7547 19.6209 57.4162C19.7582 57.0777 19.8269 56.7048 19.8269 56.2976C19.8269 55.8904 19.7582 55.5163 19.6209 55.1754C19.486 54.8345 19.2871 54.5611 19.0243 54.3551C18.7615 54.1491 18.4408 54.0462 18.062 54.0462C17.6855 54.0462 17.3648 54.1491 17.0996 54.3551C16.8368 54.5611 16.6368 54.8345 16.4995 55.1754C16.3645 55.5163 16.2971 55.8904 16.2971 56.2976C16.2971 56.7048 16.3645 57.0777 16.4995 57.4162C16.6368 57.7547 16.8368 58.0258 17.0996 58.2294C17.3624 58.433 17.6832 58.5348 18.062 58.5348ZM25.3161 56.9155V53.5455H25.9482V59H25.3161V58.0945H25.2663C25.1385 58.3738 24.9361 58.607 24.6591 58.794C24.3821 58.9787 24.0436 59.071 23.6435 59.071C23.2955 59.071 22.9865 58.9953 22.7166 58.8438C22.4467 58.6899 22.2348 58.465 22.081 58.169C21.9271 57.8731 21.8501 57.5097 21.8501 57.0788V53.5455H22.4822V57.0398C22.4822 57.4659 22.6077 57.8092 22.8587 58.0696C23.1096 58.3277 23.4316 58.4567 23.8246 58.4567C24.0708 58.4567 24.3075 58.3975 24.5348 58.2791C24.7621 58.1607 24.9491 57.9879 25.0959 57.7607C25.2427 57.531 25.3161 57.2493 25.3161 56.9155ZM27.6216 59V53.5455H28.236V54.3835H28.2821C28.391 54.1089 28.5804 53.8875 28.8503 53.7195C29.1226 53.549 29.4303 53.4638 29.7736 53.4638C29.8257 53.4638 29.8837 53.465 29.9476 53.4673C30.0115 53.4697 30.0648 53.4721 30.1074 53.4744V54.1172C30.079 54.1125 30.0293 54.1054 29.9583 54.0959C29.8873 54.0864 29.8103 54.0817 29.7275 54.0817C29.4434 54.0817 29.19 54.142 28.9675 54.2628C28.7473 54.3812 28.5733 54.5457 28.4455 54.7564C28.3176 54.9671 28.2537 55.2074 28.2537 55.4773V59H27.6216ZM34.8509 54.7422L34.272 54.9055C34.2152 54.7422 34.1347 54.5942 34.0305 54.4616C33.9264 54.3291 33.7902 54.2237 33.6222 54.1456C33.4564 54.0675 33.2505 54.0284 33.0043 54.0284C32.6349 54.0284 32.3319 54.116 32.0952 54.2912C31.8584 54.4664 31.7401 54.6925 31.7401 54.9695C31.7401 55.2038 31.8205 55.3944 31.9815 55.5412C32.1449 55.6856 32.3958 55.8004 32.7344 55.8857L33.5582 56.0881C34.0152 56.1993 34.3572 56.3757 34.5845 56.6172C34.8142 56.8587 34.929 57.1617 34.929 57.5263C34.929 57.834 34.8438 58.1075 34.6733 58.3466C34.5028 58.5857 34.2649 58.7739 33.9595 58.9112C33.6565 59.0462 33.3049 59.1136 32.9048 59.1136C32.3722 59.1136 31.933 58.9941 31.5874 58.755C31.2417 58.5135 31.0204 58.1655 30.9233 57.7109L31.5305 57.5618C31.6087 57.8861 31.7614 58.1312 31.9886 58.2969C32.2183 58.4626 32.5201 58.5455 32.8942 58.5455C33.3132 58.5455 33.6482 58.4519 33.8991 58.2649C34.1501 58.0755 34.2756 57.8388 34.2756 57.5547C34.2756 57.3345 34.2022 57.1499 34.0554 57.0007C33.9086 56.8492 33.6861 56.7379 33.3878 56.6669L32.4964 56.4538C32.023 56.3402 31.6726 56.1603 31.4453 55.9141C31.218 55.6679 31.1044 55.3625 31.1044 54.9979C31.1044 54.6972 31.1861 54.4332 31.3494 54.206C31.5128 53.9763 31.7377 53.7964 32.0241 53.6662C32.3106 53.536 32.6373 53.4709 33.0043 53.4709C33.5038 53.4709 33.9027 53.5845 34.201 53.8118C34.5017 54.0367 34.7183 54.3468 34.8509 54.7422ZM38.5183 59.1136C38.0093 59.1136 37.569 58.9953 37.1973 58.7585C36.8256 58.5194 36.5379 58.1892 36.3343 57.7678C36.1331 57.344 36.0325 56.8563 36.0325 56.3047C36.0325 55.7554 36.1331 55.2678 36.3343 54.8416C36.5379 54.4131 36.8185 54.0781 37.176 53.8366C37.5358 53.5928 37.9513 53.4709 38.4224 53.4709C38.7183 53.4709 39.0036 53.5253 39.2782 53.6342C39.5529 53.7408 39.7991 53.9053 40.0169 54.1278C40.237 54.348 40.411 54.6262 40.5389 54.9624C40.6667 55.2962 40.7306 55.6915 40.7306 56.1484V56.4609H36.4693V55.9034H40.0843C40.0843 55.553 40.0133 55.2382 39.8713 54.9588C39.7316 54.6771 39.5363 54.4545 39.2853 54.2912C39.0368 54.1278 38.7491 54.0462 38.4224 54.0462C38.0768 54.0462 37.7725 54.1385 37.5098 54.3232C37.247 54.5078 37.041 54.7517 36.8919 55.0547C36.7451 55.3577 36.6705 55.6892 36.6681 56.049V56.3828C36.6681 56.8161 36.7427 57.1948 36.8919 57.5192C37.0434 57.8411 37.2576 58.0909 37.5346 58.2685C37.8116 58.446 38.1395 58.5348 38.5183 58.5348C38.7763 58.5348 39.0024 58.4946 39.1966 58.4141C39.3931 58.3336 39.5576 58.2259 39.6902 58.0909C39.8251 57.9536 39.9269 57.8033 39.9956 57.6399L40.5957 57.8352C40.5128 58.0649 40.3767 58.2768 40.1873 58.4709C40.0003 58.665 39.7659 58.8213 39.4842 58.9396C39.2048 59.0556 38.8829 59.1136 38.5183 59.1136ZM45.7884 54.7422L45.2095 54.9055C45.1527 54.7422 45.0722 54.5942 44.968 54.4616C44.8639 54.3291 44.7277 54.2237 44.5597 54.1456C44.3939 54.0675 44.188 54.0284 43.9418 54.0284C43.5724 54.0284 43.2694 54.116 43.0327 54.2912C42.7959 54.4664 42.6776 54.6925 42.6776 54.9695C42.6776 55.2038 42.758 55.3944 42.919 55.5412C43.0824 55.6856 43.3333 55.8004 43.6719 55.8857L44.4957 56.0881C44.9527 56.1993 45.2947 56.3757 45.522 56.6172C45.7517 56.8587 45.8665 57.1617 45.8665 57.5263C45.8665 57.834 45.7813 58.1075 45.6108 58.3466C45.4403 58.5857 45.2024 58.7739 44.897 58.9112C44.594 59.0462 44.2424 59.1136 43.8423 59.1136C43.3097 59.1136 42.8705 58.9941 42.5249 58.755C42.1792 58.5135 41.9579 58.1655 41.8608 57.7109L42.468 57.5618C42.5462 57.8861 42.6989 58.1312 42.9261 58.2969C43.1558 58.4626 43.4576 58.5455 43.8317 58.5455C44.2507 58.5455 44.5857 58.4519 44.8366 58.2649C45.0876 58.0755 45.2131 57.8388 45.2131 57.5547C45.2131 57.3345 45.1397 57.1499 44.9929 57.0007C44.8461 56.8492 44.6236 56.7379 44.3253 56.6669L43.4339 56.4538C42.9605 56.3402 42.6101 56.1603 42.3828 55.9141C42.1555 55.6679 42.0419 55.3625 42.0419 54.9979C42.0419 54.6972 42.1236 54.4332 42.2869 54.206C42.4503 53.9763 42.6752 53.7964 42.9616 53.6662C43.2481 53.536 43.5748 53.4709 43.9418 53.4709C44.4413 53.4709 44.8402 53.5845 45.1385 53.8118C45.4392 54.0367 45.6558 54.3468 45.7884 54.7422ZM51.5865 59.1243C51.2574 59.1243 50.9567 59.0604 50.6845 58.9325C50.4122 58.8023 50.1956 58.6153 50.0346 58.3714C49.8736 58.1252 49.7931 57.8269 49.7931 57.4766C49.7931 57.2067 49.844 56.9794 49.9458 56.7947C50.0476 56.6101 50.1921 56.4586 50.3791 56.3402C50.5661 56.2218 50.7875 56.1283 51.0431 56.0597C51.2988 55.991 51.5806 55.9377 51.8883 55.8999C52.1937 55.862 52.4518 55.8288 52.6625 55.8004C52.8755 55.772 53.0377 55.727 53.149 55.6655C53.2602 55.6039 53.3159 55.5045 53.3159 55.3672V55.2393C53.3159 54.8677 53.2046 54.5753 52.9821 54.3622C52.7619 54.1468 52.4447 54.0391 52.0304 54.0391C51.6374 54.0391 51.3166 54.1255 51.068 54.2983C50.8218 54.4711 50.649 54.6747 50.5495 54.9091L49.9494 54.6925C50.0725 54.3942 50.243 54.1562 50.4608 53.9787C50.6786 53.7988 50.9224 53.6697 51.1923 53.5916C51.4622 53.5111 51.7356 53.4709 52.0126 53.4709C52.2209 53.4709 52.4376 53.4981 52.6625 53.5526C52.8897 53.607 53.1004 53.7017 53.2946 53.8366C53.4887 53.9692 53.6461 54.1551 53.7669 54.3942C53.8876 54.6309 53.948 54.9316 53.948 55.2962V59H53.3159V58.1371H53.2768C53.2011 58.2981 53.0886 58.4543 52.9395 58.6058C52.7903 58.7573 52.6033 58.8816 52.3784 58.9787C52.1535 59.0758 51.8895 59.1243 51.5865 59.1243ZM51.6717 58.5455C52.0079 58.5455 52.2991 58.4709 52.5453 58.3217C52.7915 58.1726 52.9809 57.9749 53.1135 57.7287C53.2484 57.4801 53.3159 57.2067 53.3159 56.9084V56.12C53.2685 56.165 53.1892 56.2053 53.0779 56.2408C52.969 56.2763 52.8424 56.3082 52.698 56.3366C52.5559 56.3627 52.4139 56.3852 52.2718 56.4041C52.1298 56.4231 52.002 56.4396 51.8883 56.4538C51.5806 56.4917 51.3178 56.5509 51.1 56.6314C50.8822 56.7119 50.7153 56.8232 50.5993 56.9652C50.4833 57.1049 50.4252 57.2848 50.4252 57.505C50.4252 57.8364 50.5436 58.0933 50.7804 58.2756C51.0171 58.4555 51.3142 58.5455 51.6717 58.5455ZM59.6564 53.5455L57.6642 59H56.9895L54.9973 53.5455H55.6827L57.302 58.1655H57.3517L58.9711 53.5455H59.6564ZM62.2505 59.1243C61.9215 59.1243 61.6208 59.0604 61.3485 58.9325C61.0763 58.8023 60.8597 58.6153 60.6987 58.3714C60.5377 58.1252 60.4572 57.8269 60.4572 57.4766C60.4572 57.2067 60.5081 56.9794 60.6099 56.7947C60.7117 56.6101 60.8561 56.4586 61.0431 56.3402C61.2302 56.2218 61.4515 56.1283 61.7072 56.0597C61.9629 55.991 62.2446 55.9377 62.5524 55.8999C62.8578 55.862 63.1158 55.8288 63.3265 55.8004C63.5396 55.772 63.7018 55.727 63.813 55.6655C63.9243 55.6039 63.9799 55.5045 63.9799 55.3672V55.2393C63.9799 54.8677 63.8687 54.5753 63.6461 54.3622C63.426 54.1468 63.1087 54.0391 62.6944 54.0391C62.3014 54.0391 61.9806 54.1255 61.7321 54.2983C61.4859 54.4711 61.313 54.6747 61.2136 54.9091L60.6135 54.6925C60.7366 54.3942 60.907 54.1562 61.1248 53.9787C61.3426 53.7988 61.5865 53.6697 61.8564 53.5916C62.1262 53.5111 62.3997 53.4709 62.6767 53.4709C62.885 53.4709 63.1016 53.4981 63.3265 53.5526C63.5538 53.607 63.7645 53.7017 63.9586 53.8366C64.1528 53.9692 64.3102 54.1551 64.4309 54.3942C64.5517 54.6309 64.612 54.9316 64.612 55.2962V59H63.9799V58.1371H63.9409C63.8651 58.2981 63.7527 58.4543 63.6035 58.6058C63.4544 58.7573 63.2673 58.8816 63.0424 58.9787C62.8175 59.0758 62.5536 59.1243 62.2505 59.1243ZM62.3358 58.5455C62.6719 58.5455 62.9631 58.4709 63.2093 58.3217C63.4556 58.1726 63.6449 57.9749 63.7775 57.7287C63.9125 57.4801 63.9799 57.2067 63.9799 56.9084V56.12C63.9326 56.165 63.8533 56.2053 63.742 56.2408C63.6331 56.2763 63.5065 56.3082 63.362 56.3366C63.22 56.3627 63.0779 56.3852 62.9359 56.4041C62.7939 56.4231 62.666 56.4396 62.5524 56.4538C62.2446 56.4917 61.9818 56.5509 61.764 56.6314C61.5462 56.7119 61.3793 56.8232 61.2633 56.9652C61.1473 57.1049 61.0893 57.2848 61.0893 57.505C61.0893 57.8364 61.2077 58.0933 61.4444 58.2756C61.6812 58.4555 61.9783 58.5455 62.3358 58.5455ZM66.3006 59V53.5455H66.9363V59H66.3006ZM66.6238 52.608C66.4935 52.608 66.3823 52.5642 66.29 52.4766C66.1976 52.3866 66.1515 52.2789 66.1515 52.1534C66.1515 52.0279 66.1976 51.9214 66.29 51.8338C66.3823 51.7438 66.4935 51.6989 66.6238 51.6989C66.754 51.6989 66.8652 51.7438 66.9576 51.8338C67.0499 51.9214 67.0961 52.0279 67.0961 52.1534C67.0961 52.2789 67.0499 52.3866 66.9576 52.4766C66.8652 52.5642 66.754 52.608 66.6238 52.608ZM69.2401 51.7273V59H68.608V51.7273H69.2401ZM72.4361 59.1243C72.107 59.1243 71.8063 59.0604 71.5341 58.9325C71.2618 58.8023 71.0452 58.6153 70.8842 58.3714C70.7232 58.1252 70.6428 57.8269 70.6428 57.4766C70.6428 57.2067 70.6937 56.9794 70.7955 56.7947C70.8973 56.6101 71.0417 56.4586 71.2287 56.3402C71.4157 56.2218 71.6371 56.1283 71.8928 56.0597C72.1484 55.991 72.4302 55.9377 72.7379 55.8999C73.0433 55.862 73.3014 55.8288 73.5121 55.8004C73.7251 55.772 73.8873 55.727 73.9986 55.6655C74.1098 55.6039 74.1655 55.5045 74.1655 55.3672V55.2393C74.1655 54.8677 74.0542 54.5753 73.8317 54.3622C73.6115 54.1468 73.2943 54.0391 72.88 54.0391C72.487 54.0391 72.1662 54.1255 71.9176 54.2983C71.6714 54.4711 71.4986 54.6747 71.3991 54.9091L70.799 54.6925C70.9221 54.3942 71.0926 54.1562 71.3104 53.9787C71.5282 53.7988 71.772 53.6697 72.0419 53.5916C72.3118 53.5111 72.5852 53.4709 72.8622 53.4709C73.0705 53.4709 73.2872 53.4981 73.5121 53.5526C73.7393 53.607 73.95 53.7017 74.1442 53.8366C74.3383 53.9692 74.4957 54.1551 74.6165 54.3942C74.7372 54.6309 74.7976 54.9316 74.7976 55.2962V59H74.1655V58.1371H74.1264C74.0507 58.2981 73.9382 58.4543 73.7891 58.6058C73.6399 58.7573 73.4529 58.8816 73.228 58.9787C73.0031 59.0758 72.7391 59.1243 72.4361 59.1243ZM72.5213 58.5455C72.8575 58.5455 73.1487 58.4709 73.3949 58.3217C73.6411 58.1726 73.8305 57.9749 73.9631 57.7287C74.098 57.4801 74.1655 57.2067 74.1655 56.9084V56.12C74.1181 56.165 74.0388 56.2053 73.9276 56.2408C73.8187 56.2763 73.692 56.3082 73.5476 56.3366C73.4055 56.3627 73.2635 56.3852 73.1214 56.4041C72.9794 56.4231 72.8516 56.4396 72.7379 56.4538C72.4302 56.4917 72.1674 56.5509 71.9496 56.6314C71.7318 56.7119 71.5649 56.8232 71.4489 56.9652C71.3329 57.1049 71.2749 57.2848 71.2749 57.505C71.2749 57.8364 71.3932 58.0933 71.63 58.2756C71.8667 58.4555 72.1638 58.5455 72.5213 58.5455ZM76.6104 59V51.7273H77.2461V54.5859H77.3029C77.3739 54.4226 77.4757 54.2545 77.6083 54.0817C77.7433 53.9089 77.9196 53.7644 78.1374 53.6484C78.3576 53.5301 78.6346 53.4709 78.9684 53.4709C79.4158 53.4709 79.8088 53.5893 80.1474 53.826C80.4859 54.0604 80.7499 54.3894 80.9393 54.8132C81.1287 55.2346 81.2234 55.7259 81.2234 56.2869C81.2234 56.8504 81.1287 57.344 80.9393 57.7678C80.7522 58.1915 80.4895 58.5218 80.1509 58.7585C79.8147 58.9953 79.4241 59.1136 78.979 59.1136C78.6476 59.1136 78.3706 59.0545 78.1481 58.9361C77.9279 58.8177 77.7504 58.6721 77.6154 58.4993C77.4805 58.3241 77.3763 58.1536 77.3029 57.9879H77.2248V59H76.6104ZM77.2354 56.2763C77.2354 56.7166 77.3005 57.1072 77.4308 57.4482C77.5633 57.7867 77.7527 58.053 77.9989 58.2472C78.2475 58.4389 78.5482 58.5348 78.9009 58.5348C79.2631 58.5348 79.5697 58.4354 79.8207 58.2365C80.0716 58.0353 80.2622 57.7642 80.3924 57.4233C80.5226 57.0824 80.5877 56.7 80.5877 56.2763C80.5877 55.8572 80.5226 55.4796 80.3924 55.1435C80.2646 54.8073 80.0752 54.541 79.8242 54.3445C79.5733 54.1456 79.2655 54.0462 78.9009 54.0462C78.5458 54.0462 78.244 54.142 77.9954 54.3338C77.7492 54.5232 77.561 54.786 77.4308 55.1222C77.3005 55.456 77.2354 55.8407 77.2354 56.2763ZM83.244 51.7273V59H82.6119V51.7273H83.244ZM87.1218 59.1136C86.6128 59.1136 86.1725 58.9953 85.8008 58.7585C85.4291 58.5194 85.1415 58.1892 84.9379 57.7678C84.7366 57.344 84.636 56.8563 84.636 56.3047C84.636 55.7554 84.7366 55.2678 84.9379 54.8416C85.1415 54.4131 85.422 54.0781 85.7795 53.8366C86.1393 53.5928 86.5548 53.4709 87.0259 53.4709C87.3219 53.4709 87.6071 53.5253 87.8817 53.6342C88.1564 53.7408 88.4026 53.9053 88.6204 54.1278C88.8406 54.348 89.0146 54.6262 89.1424 54.9624C89.2702 55.2962 89.3342 55.6915 89.3342 56.1484V56.4609H85.0728V55.9034H88.6879C88.6879 55.553 88.6168 55.2382 88.4748 54.9588C88.3351 54.6771 88.1398 54.4545 87.8888 54.2912C87.6403 54.1278 87.3526 54.0462 87.0259 54.0462C86.6803 54.0462 86.3761 54.1385 86.1133 54.3232C85.8505 54.5078 85.6445 54.7517 85.4954 55.0547C85.3486 55.3577 85.274 55.6892 85.2717 56.049V56.3828C85.2717 56.8161 85.3462 57.1948 85.4954 57.5192C85.6469 57.8411 85.8612 58.0909 86.1381 58.2685C86.4151 58.446 86.743 58.5348 87.1218 58.5348C87.3799 58.5348 87.6059 58.4946 87.8001 58.4141C87.9966 58.3336 88.1611 58.2259 88.2937 58.0909C88.4286 57.9536 88.5304 57.8033 88.5991 57.6399L89.1992 57.8352C89.1164 58.0649 88.9802 58.2768 88.7908 58.4709C88.6038 58.665 88.3694 58.8213 88.0877 58.9396C87.8084 59.0556 87.4864 59.1136 87.1218 59.1136ZM95.7839 53.5455V54.0959H93.1028V53.5455H95.7839ZM93.9409 59V52.7464C93.9409 52.4529 94.0083 52.2055 94.1433 52.0043C94.2806 51.803 94.4593 51.6503 94.6795 51.5462C94.8997 51.442 95.1329 51.3899 95.3791 51.3899C95.5448 51.3899 95.6821 51.4041 95.791 51.4325C95.9023 51.4586 95.9899 51.4846 96.0538 51.5107L95.8691 52.0646C95.8218 52.0504 95.7638 52.0339 95.6951 52.0149C95.6265 51.996 95.5401 51.9865 95.4359 51.9865C95.1613 51.9865 94.9494 52.0634 94.8002 52.2173C94.6511 52.3712 94.5765 52.5914 94.5765 52.8778L94.573 59H93.9409ZM98.9409 59.1136C98.4698 59.1136 98.0531 58.9941 97.6909 58.755C97.331 58.5159 97.0493 58.1856 96.8457 57.7642C96.6421 57.3404 96.5403 56.8516 96.5403 56.2976C96.5403 55.7389 96.6421 55.2476 96.8457 54.8239C97.0493 54.3977 97.331 54.0663 97.6909 53.8295C98.0531 53.5904 98.4698 53.4709 98.9409 53.4709C99.412 53.4709 99.8275 53.5904 100.187 53.8295C100.547 54.0687 100.829 54.4001 101.032 54.8239C101.238 55.2476 101.341 55.7389 101.341 56.2976C101.341 56.8516 101.24 57.3404 101.036 57.7642C100.832 58.1856 100.55 58.5159 100.187 58.755C99.8275 58.9941 99.412 59.1136 98.9409 59.1136ZM98.9409 58.5348C99.3197 58.5348 99.6404 58.433 99.9032 58.2294C100.166 58.0258 100.365 57.7547 100.5 57.4162C100.637 57.0777 100.706 56.7048 100.706 56.2976C100.706 55.8904 100.637 55.5163 100.5 55.1754C100.365 54.8345 100.166 54.5611 99.9032 54.3551C99.6404 54.1491 99.3197 54.0462 98.9409 54.0462C98.5645 54.0462 98.2437 54.1491 97.9785 54.3551C97.7157 54.5611 97.5157 54.8345 97.3784 55.1754C97.2434 55.5163 97.176 55.8904 97.176 56.2976C97.176 56.7048 97.2434 57.0777 97.3784 57.4162C97.5157 57.7547 97.7157 58.0258 97.9785 58.2294C98.2413 58.433 98.5621 58.5348 98.9409 58.5348ZM102.729 59V53.5455H103.343V54.3835H103.39C103.498 54.1089 103.688 53.8875 103.958 53.7195C104.23 53.549 104.538 53.4638 104.881 53.4638C104.933 53.4638 104.991 53.465 105.055 53.4673C105.119 53.4697 105.172 53.4721 105.215 53.4744V54.1172C105.186 54.1125 105.137 54.1054 105.066 54.0959C104.995 54.0864 104.918 54.0817 104.835 54.0817C104.551 54.0817 104.297 54.142 104.075 54.2628C103.855 54.3812 103.681 54.5457 103.553 54.7564C103.425 54.9671 103.361 55.2074 103.361 55.4773V59H102.729ZM28.4841 65.5455V66.0959H25.803V65.5455H28.4841ZM26.6411 71V64.7464C26.6411 64.4529 26.7085 64.2055 26.8435 64.0043C26.9808 63.803 27.1595 63.6503 27.3797 63.5462C27.5999 63.442 27.8331 63.3899 28.0793 63.3899C28.245 63.3899 28.3823 63.4041 28.4912 63.4325C28.6025 63.4586 28.6901 63.4846 28.754 63.5107L28.5693 64.0646C28.522 64.0504 28.464 64.0339 28.3953 64.0149C28.3267 63.996 28.2403 63.9865 28.1361 63.9865C27.8615 63.9865 27.6496 64.0634 27.5004 64.2173C27.3513 64.3712 27.2767 64.5914 27.2767 64.8778L27.2732 71H26.6411ZM29.7456 71V65.5455H30.36V66.3835H30.4062C30.5151 66.1089 30.7045 65.8875 30.9743 65.7195C31.2466 65.549 31.5544 65.4638 31.8976 65.4638C31.9497 65.4638 32.0077 65.465 32.0716 65.4673C32.1356 65.4697 32.1888 65.4721 32.2314 65.4744V66.1172C32.203 66.1125 32.1533 66.1054 32.0823 66.0959C32.0113 66.0864 31.9343 66.0817 31.8515 66.0817C31.5674 66.0817 31.3141 66.142 31.0915 66.2628C30.8714 66.3812 30.6974 66.5457 30.5695 66.7564C30.4417 66.9671 30.3778 67.2074 30.3778 67.4773V71H29.7456ZM35.3493 71.1136C34.8403 71.1136 34.4 70.9953 34.0283 70.7585C33.6566 70.5194 33.369 70.1892 33.1654 69.7678C32.9642 69.344 32.8635 68.8563 32.8635 68.3047C32.8635 67.7554 32.9642 67.2678 33.1654 66.8416C33.369 66.4131 33.6495 66.0781 34.007 65.8366C34.3669 65.5928 34.7823 65.4709 35.2535 65.4709C35.5494 65.4709 35.8347 65.5253 36.1093 65.6342C36.3839 65.7408 36.6301 65.9053 36.8479 66.1278C37.0681 66.348 37.2421 66.6262 37.3699 66.9624C37.4978 67.2962 37.5617 67.6915 37.5617 68.1484V68.4609H33.3003V67.9034H36.9154C36.9154 67.553 36.8444 67.2382 36.7023 66.9588C36.5626 66.6771 36.3673 66.4545 36.1164 66.2912C35.8678 66.1278 35.5802 66.0462 35.2535 66.0462C34.9078 66.0462 34.6036 66.1385 34.3408 66.3232C34.078 66.5078 33.8721 66.7517 33.7229 67.0547C33.5761 67.3577 33.5016 67.6892 33.4992 68.049V68.3828C33.4992 68.8161 33.5738 69.1948 33.7229 69.5192C33.8744 69.8411 34.0887 70.0909 34.3657 70.2685C34.6427 70.446 34.9706 70.5348 35.3493 70.5348C35.6074 70.5348 35.8335 70.4946 36.0276 70.4141C36.2241 70.3336 36.3886 70.2259 36.5212 70.0909C36.6562 69.9536 36.758 69.8033 36.8266 69.6399L37.4268 69.8352C37.3439 70.0649 37.2078 70.2768 37.0184 70.4709C36.8314 70.665 36.597 70.8213 36.3153 70.9396C36.0359 71.0556 35.7139 71.1136 35.3493 71.1136ZM41.1599 71.1136C40.6509 71.1136 40.2106 70.9953 39.8389 70.7585C39.4672 70.5194 39.1795 70.1892 38.9759 69.7678C38.7747 69.344 38.6741 68.8563 38.6741 68.3047C38.6741 67.7554 38.7747 67.2678 38.9759 66.8416C39.1795 66.4131 39.4601 66.0781 39.8176 65.8366C40.1774 65.5928 40.5929 65.4709 41.064 65.4709C41.3599 65.4709 41.6452 65.5253 41.9198 65.6342C42.1945 65.7408 42.4407 65.9053 42.6585 66.1278C42.8786 66.348 43.0526 66.6262 43.1805 66.9624C43.3083 67.2962 43.3722 67.6915 43.3722 68.1484V68.4609H39.1109V67.9034H42.7259C42.7259 67.553 42.6549 67.2382 42.5129 66.9588C42.3732 66.6771 42.1779 66.4545 41.9269 66.2912C41.6784 66.1278 41.3907 66.0462 41.064 66.0462C40.7184 66.0462 40.4142 66.1385 40.1514 66.3232C39.8886 66.5078 39.6826 66.7517 39.5335 67.0547C39.3867 67.3577 39.3121 67.6892 39.3097 68.049V68.3828C39.3097 68.8161 39.3843 69.1948 39.5335 69.5192C39.685 69.8411 39.8992 70.0909 40.1762 70.2685C40.4532 70.446 40.7811 70.5348 41.1599 70.5348C41.4179 70.5348 41.644 70.4946 41.8382 70.4141C42.0347 70.3336 42.1992 70.2259 42.3318 70.0909C42.4667 69.9536 42.5685 69.8033 42.6372 69.6399L43.2373 69.8352C43.1544 70.0649 43.0183 70.2768 42.8289 70.4709C42.6419 70.665 42.4075 70.8213 42.1258 70.9396C41.8464 71.0556 41.5245 71.1136 41.1599 71.1136ZM45.8163 70.0057L45.7524 70.3857C45.7122 70.6413 45.6553 70.9231 45.5819 71.2308C45.5086 71.5386 45.4328 71.831 45.3547 72.108C45.2765 72.3849 45.2091 72.6075 45.1523 72.7756H44.6657C44.6965 72.6146 44.7356 72.4098 44.7829 72.1612C44.8327 71.9126 44.8836 71.6368 44.9356 71.3338C44.9877 71.0331 45.0351 70.723 45.0777 70.4034L45.1274 70.0057H45.8163ZM51.8257 71.1243C51.4967 71.1243 51.196 71.0604 50.9237 70.9325C50.6515 70.8023 50.4349 70.6153 50.2739 70.3714C50.1129 70.1252 50.0324 69.8269 50.0324 69.4766C50.0324 69.2067 50.0833 68.9794 50.1851 68.7947C50.2869 68.6101 50.4313 68.4586 50.6183 68.3402C50.8054 68.2218 51.0267 68.1283 51.2824 68.0597C51.5381 67.991 51.8198 67.9377 52.1276 67.8999C52.433 67.862 52.691 67.8288 52.9017 67.8004C53.1148 67.772 53.277 67.727 53.3882 67.6655C53.4995 67.6039 53.5551 67.5045 53.5551 67.3672V67.2393C53.5551 66.8677 53.4439 66.5753 53.2213 66.3622C53.0012 66.1468 52.6839 66.0391 52.2696 66.0391C51.8766 66.0391 51.5558 66.1255 51.3073 66.2983C51.061 66.4711 50.8882 66.6747 50.7888 66.9091L50.1887 66.6925C50.3118 66.3942 50.4822 66.1562 50.7 65.9787C50.9178 65.7988 51.1617 65.6697 51.4316 65.5916C51.7014 65.5111 51.9749 65.4709 52.2519 65.4709C52.4602 65.4709 52.6768 65.4981 52.9017 65.5526C53.129 65.607 53.3397 65.7017 53.5338 65.8366C53.728 65.9692 53.8854 66.1551 54.0061 66.3942C54.1269 66.6309 54.1872 66.9316 54.1872 67.2962V71H53.5551V70.1371H53.5161C53.4403 70.2981 53.3279 70.4543 53.1787 70.6058C53.0296 70.7573 52.8425 70.8816 52.6176 70.9787C52.3927 71.0758 52.1288 71.1243 51.8257 71.1243ZM51.911 70.5455C52.2471 70.5455 52.5383 70.4709 52.7845 70.3217C53.0307 70.1726 53.2201 69.9749 53.3527 69.7287C53.4877 69.4801 53.5551 69.2067 53.5551 68.9084V68.12C53.5078 68.165 53.4285 68.2053 53.3172 68.2408C53.2083 68.2763 53.0816 68.3082 52.9372 68.3366C52.7952 68.3627 52.6531 68.3852 52.5111 68.4041C52.3691 68.4231 52.2412 68.4396 52.1276 68.4538C51.8198 68.4917 51.557 68.5509 51.3392 68.6314C51.1214 68.7119 50.9545 68.8232 50.8385 68.9652C50.7225 69.1049 50.6645 69.2848 50.6645 69.505C50.6645 69.8364 50.7829 70.0933 51.0196 70.2756C51.2564 70.4555 51.5535 70.5455 51.911 70.5455ZM58.113 65.5455V66.0959H55.4319V65.5455H58.113ZM56.27 71V64.7464C56.27 64.4529 56.3374 64.2055 56.4724 64.0043C56.6097 63.803 56.7884 63.6503 57.0086 63.5462C57.2288 63.442 57.462 63.3899 57.7082 63.3899C57.8739 63.3899 58.0112 63.4041 58.1201 63.4325C58.2314 63.4586 58.319 63.4846 58.3829 63.5107L58.1982 64.0646C58.1509 64.0504 58.0929 64.0339 58.0242 64.0149C57.9556 63.996 57.8692 63.9865 57.765 63.9865C57.4904 63.9865 57.2785 64.0634 57.1294 64.2173C56.9802 64.3712 56.9056 64.5914 56.9056 64.8778L56.9021 71H56.27ZM61.523 65.5455V66.0959H58.92V65.5455H61.523ZM59.7332 64.2386H60.3689V69.576C60.3689 69.8033 60.4079 69.982 60.4861 70.1122C60.5642 70.2401 60.666 70.3312 60.7915 70.3857C60.9169 70.4377 61.0507 70.4638 61.1927 70.4638C61.2756 70.4638 61.3466 70.459 61.4058 70.4496C61.465 70.4377 61.5171 70.4259 61.5621 70.4141L61.697 70.9858C61.6354 71.0095 61.5597 71.0308 61.4697 71.0497C61.3798 71.071 61.2685 71.0817 61.1359 71.0817C60.9039 71.0817 60.6802 71.0308 60.4648 70.929C60.2517 70.8272 60.0765 70.6757 59.9392 70.4744C59.8019 70.2732 59.7332 70.0234 59.7332 69.7251V64.2386ZM65.1052 71.1136C64.5962 71.1136 64.1559 70.9953 63.7842 70.7585C63.4125 70.5194 63.1249 70.1892 62.9213 69.7678C62.72 69.344 62.6194 68.8563 62.6194 68.3047C62.6194 67.7554 62.72 67.2678 62.9213 66.8416C63.1249 66.4131 63.4054 66.0781 63.7629 65.8366C64.1227 65.5928 64.5382 65.4709 65.0093 65.4709C65.3052 65.4709 65.5905 65.5253 65.8651 65.6342C66.1398 65.7408 66.386 65.9053 66.6038 66.1278C66.824 66.348 66.998 66.6262 67.1258 66.9624C67.2536 67.2962 67.3176 67.6915 67.3176 68.1484V68.4609H63.0562V67.9034H66.6713C66.6713 67.553 66.6002 67.2382 66.4582 66.9588C66.3185 66.6771 66.1232 66.4545 65.8722 66.2912C65.6237 66.1278 65.336 66.0462 65.0093 66.0462C64.6637 66.0462 64.3595 66.1385 64.0967 66.3232C63.8339 66.5078 63.6279 66.7517 63.4788 67.0547C63.332 67.3577 63.2574 67.6892 63.2551 68.049V68.3828C63.2551 68.8161 63.3296 69.1948 63.4788 69.5192C63.6303 69.8411 63.8445 70.0909 64.1215 70.2685C64.3985 70.446 64.7264 70.5348 65.1052 70.5348C65.3633 70.5348 65.5893 70.4946 65.7835 70.4141C65.98 70.3336 66.1445 70.2259 66.2771 70.0909C66.412 69.9536 66.5138 69.8033 66.5825 69.6399L67.1826 69.8352C67.0998 70.0649 66.9636 70.2768 66.7742 70.4709C66.5872 70.665 66.3528 70.8213 66.0711 70.9396C65.7918 71.0556 65.4698 71.1136 65.1052 71.1136ZM68.7105 71V65.5455H69.3248V66.3835H69.371C69.4799 66.1089 69.6693 65.8875 69.9392 65.7195C70.2114 65.549 70.5192 65.4638 70.8625 65.4638C70.9146 65.4638 70.9726 65.465 71.0365 65.4673C71.1004 65.4697 71.1537 65.4721 71.1963 65.4744V66.1172C71.1679 66.1125 71.1182 66.1054 71.0471 66.0959C70.9761 66.0864 70.8992 66.0817 70.8163 66.0817C70.5322 66.0817 70.2789 66.142 70.0564 66.2628C69.8362 66.3812 69.6622 66.5457 69.5344 66.7564C69.4065 66.9671 69.3426 67.2074 69.3426 67.4773V71H68.7105ZM77.2359 65.5455V66.0959H74.6329V65.5455H77.2359ZM75.4461 64.2386H76.0818V69.576C76.0818 69.8033 76.1208 69.982 76.199 70.1122C76.2771 70.2401 76.3789 70.3312 76.5044 70.3857C76.6298 70.4377 76.7636 70.4638 76.9056 70.4638C76.9885 70.4638 77.0595 70.459 77.1187 70.4496C77.1779 70.4377 77.23 70.4259 77.2749 70.4141L77.4099 70.9858C77.3483 71.0095 77.2726 71.0308 77.1826 71.0497C77.0927 71.071 76.9814 71.0817 76.8488 71.0817C76.6168 71.0817 76.3931 71.0308 76.1776 70.929C75.9646 70.8272 75.7894 70.6757 75.6521 70.4744C75.5148 70.2732 75.4461 70.0234 75.4461 69.7251V64.2386ZM79.4207 67.5909V71H78.7886V63.7273H79.4207V66.4013H79.4775C79.6054 66.1196 79.8031 65.8946 80.0706 65.7266C80.3405 65.5585 80.6814 65.4744 81.0933 65.4744C81.4626 65.4744 81.787 65.5502 82.0663 65.7017C82.3457 65.8532 82.5635 66.0769 82.7197 66.3729C82.876 66.6688 82.9541 67.0334 82.9541 67.4666V71H82.3184V67.5057C82.3184 67.0559 82.193 66.7019 81.942 66.4439C81.6934 66.1835 81.3573 66.0533 80.9335 66.0533C80.6423 66.0533 80.3831 66.1148 80.1558 66.2379C79.9285 66.361 79.7486 66.5386 79.616 66.7706C79.4858 67.0002 79.4207 67.2737 79.4207 67.5909ZM86.824 71.1136C86.315 71.1136 85.8746 70.9953 85.5029 70.7585C85.1312 70.5194 84.8436 70.1892 84.64 69.7678C84.4388 69.344 84.3382 68.8563 84.3382 68.3047C84.3382 67.7554 84.4388 67.2678 84.64 66.8416C84.8436 66.4131 85.1241 66.0781 85.4816 65.8366C85.8415 65.5928 86.257 65.4709 86.7281 65.4709C87.024 65.4709 87.3093 65.5253 87.5839 65.6342C87.8585 65.7408 88.1047 65.9053 88.3225 66.1278C88.5427 66.348 88.7167 66.6262 88.8445 66.9624C88.9724 67.2962 89.0363 67.6915 89.0363 68.1484V68.4609H84.7749V67.9034H88.39C88.39 67.553 88.319 67.2382 88.1769 66.9588C88.0373 66.6771 87.8419 66.4545 87.591 66.2912C87.3424 66.1278 87.0548 66.0462 86.7281 66.0462C86.3824 66.0462 86.0782 66.1385 85.8154 66.3232C85.5526 66.5078 85.3467 66.7517 85.1975 67.0547C85.0508 67.3577 84.9762 67.6892 84.9738 68.049V68.3828C84.9738 68.8161 85.0484 69.1948 85.1975 69.5192C85.349 69.8411 85.5633 70.0909 85.8403 70.2685C86.1173 70.446 86.4452 70.5348 86.824 70.5348C87.082 70.5348 87.3081 70.4946 87.5022 70.4141C87.6987 70.3336 87.8633 70.2259 87.9958 70.0909C88.1308 69.9536 88.2326 69.8033 88.3012 69.6399L88.9014 69.8352C88.8185 70.0649 88.6824 70.2768 88.493 70.4709C88.306 70.665 88.0716 70.8213 87.7899 70.9396C87.5105 71.0556 87.1885 71.1136 86.824 71.1136ZM18.307 83.1136C17.8193 83.1136 17.3944 82.9917 17.0321 82.7479C16.6723 82.504 16.3929 82.1702 16.1941 81.7464C15.9952 81.3227 15.8958 80.8397 15.8958 80.2976C15.8958 79.7507 15.9964 79.2642 16.1976 78.8381C16.4012 78.4119 16.6829 78.0781 17.0428 77.8366C17.4026 77.5928 17.8205 77.4709 18.2963 77.4709C18.6609 77.4709 18.9912 77.5419 19.2871 77.6839C19.583 77.8236 19.8269 78.0213 20.0186 78.277C20.2128 78.5303 20.3347 78.8262 20.3844 79.1648H19.7452C19.6789 78.857 19.5191 78.5942 19.2658 78.3764C19.0149 78.1562 18.6953 78.0462 18.307 78.0462C17.959 78.0462 17.6512 78.1409 17.3837 78.3303C17.1162 78.5173 16.9067 78.7789 16.7551 79.1151C16.606 79.4489 16.5314 79.8359 16.5314 80.2763C16.5314 80.719 16.6048 81.1108 16.7516 81.4517C16.8984 81.7902 17.1043 82.0554 17.3695 82.2472C17.637 82.4389 17.9495 82.5348 18.307 82.5348C18.5485 82.5348 18.7686 82.4898 18.9675 82.3999C19.1687 82.3075 19.3368 82.1773 19.4718 82.0092C19.6091 81.8411 19.7014 81.6411 19.7488 81.4091H20.388C20.3406 81.7382 20.2234 82.0317 20.0364 82.2898C19.8517 82.5455 19.6114 82.7467 19.3155 82.8935C19.022 83.0402 18.6858 83.1136 18.307 83.1136ZM23.8627 83.1136C23.3916 83.1136 22.975 82.9941 22.6127 82.755C22.2529 82.5159 21.9712 82.1856 21.7676 81.7642C21.564 81.3404 21.4622 80.8516 21.4622 80.2976C21.4622 79.7389 21.564 79.2476 21.7676 78.8239C21.9712 78.3977 22.2529 78.0663 22.6127 77.8295C22.975 77.5904 23.3916 77.4709 23.8627 77.4709C24.3339 77.4709 24.7493 77.5904 25.1092 77.8295C25.469 78.0687 25.7508 78.4001 25.9544 78.8239C26.1603 79.2476 26.2633 79.7389 26.2633 80.2976C26.2633 80.8516 26.1615 81.3404 25.9579 81.7642C25.7543 82.1856 25.4714 82.5159 25.1092 82.755C24.7493 82.9941 24.3339 83.1136 23.8627 83.1136ZM23.8627 82.5348C24.2415 82.5348 24.5623 82.433 24.8251 82.2294C25.0879 82.0258 25.2868 81.7547 25.4217 81.4162C25.559 81.0777 25.6277 80.7048 25.6277 80.2976C25.6277 79.8904 25.559 79.5163 25.4217 79.1754C25.2868 78.8345 25.0879 78.5611 24.8251 78.3551C24.5623 78.1491 24.2415 78.0462 23.8627 78.0462C23.4863 78.0462 23.1655 78.1491 22.9004 78.3551C22.6376 78.5611 22.4376 78.8345 22.3002 79.1754C22.1653 79.5163 22.0978 79.8904 22.0978 80.2976C22.0978 80.7048 22.1653 81.0777 22.3002 81.4162C22.4376 81.7547 22.6376 82.0258 22.9004 82.2294C23.1632 82.433 23.484 82.5348 23.8627 82.5348ZM27.6509 83V77.5455H28.2653V78.3835H28.3221C28.431 78.1018 28.6121 77.8804 28.8654 77.7195C29.1211 77.5561 29.4277 77.4744 29.7852 77.4744C30.1616 77.4744 30.4705 77.5632 30.712 77.7408C30.9558 77.916 31.1381 78.1574 31.2589 78.4652H31.305C31.4281 78.1622 31.6282 77.9219 31.9052 77.7443C32.1845 77.5644 32.5231 77.4744 32.9208 77.4744C33.4274 77.4744 33.8275 77.6342 34.1211 77.9538C34.4147 78.2711 34.5614 78.7351 34.5614 79.3459V83H33.9293V79.3459C33.9293 78.915 33.8192 78.5919 33.5991 78.3764C33.3789 78.161 33.0889 78.0533 32.729 78.0533C32.3124 78.0533 31.9916 78.1811 31.7667 78.4368C31.5418 78.6925 31.4293 79.0168 31.4293 79.4098V83H30.783V79.2891C30.783 78.9197 30.68 78.6214 30.4741 78.3942C30.2681 78.1669 29.9781 78.0533 29.604 78.0533C29.3531 78.0533 29.127 78.1148 28.9258 78.2379C28.7269 78.361 28.5695 78.5327 28.4535 78.7528C28.3398 78.9706 28.283 79.2216 28.283 79.5057V83H27.6509ZM36.2349 85.0455V77.5455H36.8493V78.5859H36.9238C36.9996 78.4226 37.1038 78.2557 37.2363 78.0852C37.3689 77.9124 37.5441 77.7668 37.7619 77.6484C37.9821 77.5301 38.2591 77.4709 38.5929 77.4709C39.0427 77.4709 39.4357 77.5893 39.7718 77.826C40.1104 78.0604 40.3732 78.3894 40.5602 78.8132C40.7496 79.2346 40.8443 79.7259 40.8443 80.2869C40.8443 80.8504 40.7496 81.344 40.5602 81.7678C40.3732 82.1915 40.1104 82.5218 39.7718 82.7585C39.4357 82.9953 39.045 83.1136 38.6 83.1136C38.2709 83.1136 37.9951 83.0545 37.7725 82.9361C37.5524 82.8177 37.3736 82.6721 37.2363 82.4993C37.1014 82.3241 36.9972 82.1536 36.9238 81.9879H36.867V85.0455H36.2349ZM36.8599 80.2763C36.8599 80.7166 36.925 81.1072 37.0552 81.4482C37.1878 81.7867 37.3772 82.053 37.6234 82.2472C37.872 82.4389 38.1726 82.5348 38.5254 82.5348C38.8876 82.5348 39.193 82.4354 39.4416 82.2365C39.6925 82.0353 39.8831 81.7642 40.0133 81.4233C40.1459 81.0824 40.2122 80.7 40.2122 80.2763C40.2122 79.8572 40.1471 79.4796 40.0169 79.1435C39.889 78.8073 39.6996 78.541 39.4487 78.3445C39.1977 78.1456 38.89 78.0462 38.5254 78.0462C38.1703 78.0462 37.8684 78.142 37.6199 78.3338C37.3713 78.5232 37.1819 78.786 37.0517 79.1222C36.9238 79.456 36.8599 79.8407 36.8599 80.2763ZM42.8631 75.7273V83H42.231V75.7273H42.8631ZM46.7409 83.1136C46.2319 83.1136 45.7916 82.9953 45.4199 82.7585C45.0482 82.5194 44.7606 82.1892 44.557 81.7678C44.3558 81.344 44.2551 80.8563 44.2551 80.3047C44.2551 79.7554 44.3558 79.2678 44.557 78.8416C44.7606 78.4131 45.0411 78.0781 45.3986 77.8366C45.7585 77.5928 46.1739 77.4709 46.6451 77.4709C46.941 77.4709 47.2263 77.5253 47.5009 77.6342C47.7755 77.7408 48.0217 77.9053 48.2395 78.1278C48.4597 78.348 48.6337 78.6262 48.7615 78.9624C48.8894 79.2962 48.9533 79.6915 48.9533 80.1484V80.4609H44.6919V79.9034H48.307C48.307 79.553 48.236 79.2382 48.0939 78.9588C47.9542 78.6771 47.7589 78.4545 47.508 78.2912C47.2594 78.1278 46.9718 78.0462 46.6451 78.0462C46.2994 78.0462 45.9952 78.1385 45.7324 78.3232C45.4696 78.5078 45.2637 78.7517 45.1145 79.0547C44.9677 79.3577 44.8932 79.6892 44.8908 80.049V80.3828C44.8908 80.8161 44.9654 81.1948 45.1145 81.5192C45.266 81.8411 45.4803 82.0909 45.7573 82.2685C46.0343 82.446 46.3622 82.5348 46.7409 82.5348C46.999 82.5348 47.2251 82.4946 47.4192 82.4141C47.6157 82.3336 47.7802 82.2259 47.9128 82.0909C48.0478 81.9536 48.1496 81.8033 48.2182 81.6399L48.8184 81.8352C48.7355 82.0649 48.5994 82.2768 48.41 82.4709C48.223 82.665 47.9886 82.8213 47.7069 82.9396C47.4275 83.0556 47.1055 83.1136 46.7409 83.1136ZM52.4947 77.5455V78.0959H49.8917V77.5455H52.4947ZM50.7049 76.2386H51.3406V81.576C51.3406 81.8033 51.3796 81.982 51.4577 82.1122C51.5359 82.2401 51.6377 82.3312 51.7631 82.3857C51.8886 82.4377 52.0224 82.4638 52.1644 82.4638C52.2473 82.4638 52.3183 82.459 52.3775 82.4496C52.4367 82.4377 52.4888 82.4259 52.5337 82.4141L52.6687 82.9858C52.6071 83.0095 52.5314 83.0308 52.4414 83.0497C52.3514 83.071 52.2402 83.0817 52.1076 83.0817C51.8756 83.0817 51.6519 83.0308 51.4364 82.929C51.2234 82.8272 51.0482 82.6757 50.9109 82.4744C50.7736 82.2732 50.7049 82.0234 50.7049 81.7251V76.2386ZM53.9373 83V77.5455H54.573V83H53.9373ZM54.2605 76.608C54.1303 76.608 54.019 76.5642 53.9267 76.4766C53.8343 76.3866 53.7882 76.2789 53.7882 76.1534C53.7882 76.0279 53.8343 75.9214 53.9267 75.8338C54.019 75.7438 54.1303 75.6989 54.2605 75.6989C54.3907 75.6989 54.502 75.7438 54.5943 75.8338C54.6866 75.9214 54.7328 76.0279 54.7328 76.1534C54.7328 76.2789 54.6866 76.3866 54.5943 76.4766C54.502 76.5642 54.3907 76.608 54.2605 76.608ZM58.3647 83.1136C57.8936 83.1136 57.4769 82.9941 57.1147 82.755C56.7549 82.5159 56.4731 82.1856 56.2695 81.7642C56.0659 81.3404 55.9641 80.8516 55.9641 80.2976C55.9641 79.7389 56.0659 79.2476 56.2695 78.8239C56.4731 78.3977 56.7549 78.0663 57.1147 77.8295C57.4769 77.5904 57.8936 77.4709 58.3647 77.4709C58.8358 77.4709 59.2513 77.5904 59.6112 77.8295C59.971 78.0687 60.2527 78.4001 60.4563 78.8239C60.6623 79.2476 60.7653 79.7389 60.7653 80.2976C60.7653 80.8516 60.6635 81.3404 60.4599 81.7642C60.2563 82.1856 59.9734 82.5159 59.6112 82.755C59.2513 82.9941 58.8358 83.1136 58.3647 83.1136ZM58.3647 82.5348C58.7435 82.5348 59.0643 82.433 59.3271 82.2294C59.5898 82.0258 59.7887 81.7547 59.9237 81.4162C60.061 81.0777 60.1296 80.7048 60.1296 80.2976C60.1296 79.8904 60.061 79.5163 59.9237 79.1754C59.7887 78.8345 59.5898 78.5611 59.3271 78.3551C59.0643 78.1491 58.7435 78.0462 58.3647 78.0462C57.9883 78.0462 57.6675 78.1491 57.4023 78.3551C57.1396 78.5611 56.9395 78.8345 56.8022 79.1754C56.6673 79.5163 56.5998 79.8904 56.5998 80.2976C56.5998 80.7048 56.6673 81.0777 56.8022 81.4162C56.9395 81.7547 57.1396 82.0258 57.4023 82.2294C57.6651 82.433 57.9859 82.5348 58.3647 82.5348ZM62.785 79.5909V83H62.1529V77.5455H62.7672V78.4013H62.824C62.9519 78.1219 63.1507 77.8982 63.4206 77.7301C63.6929 77.5597 64.0291 77.4744 64.4292 77.4744C64.7961 77.4744 65.1181 77.5514 65.3951 77.7053C65.6744 77.8568 65.891 78.0805 66.0449 78.3764C66.2012 78.6723 66.2793 79.0357 66.2793 79.4666V83H65.6472V79.5057C65.6472 79.0582 65.5217 78.7043 65.2708 78.4439C65.0222 78.1835 64.6884 78.0533 64.2694 78.0533C63.9829 78.0533 63.7284 78.1148 63.5059 78.2379C63.2833 78.361 63.1069 78.5386 62.9767 78.7706C62.8489 79.0002 62.785 79.2737 62.785 79.5909ZM72.8764 83.1136C72.4053 83.1136 71.9886 82.9941 71.6264 82.755C71.2666 82.5159 70.9848 82.1856 70.7812 81.7642C70.5777 81.3404 70.4759 80.8516 70.4759 80.2976C70.4759 79.7389 70.5777 79.2476 70.7812 78.8239C70.9848 78.3977 71.2666 78.0663 71.6264 77.8295C71.9886 77.5904 72.4053 77.4709 72.8764 77.4709C73.3475 77.4709 73.763 77.5904 74.1229 77.8295C74.4827 78.0687 74.7644 78.4001 74.968 78.8239C75.174 79.2476 75.277 79.7389 75.277 80.2976C75.277 80.8516 75.1752 81.3404 74.9716 81.7642C74.768 82.1856 74.4851 82.5159 74.1229 82.755C73.763 82.9941 73.3475 83.1136 72.8764 83.1136ZM72.8764 82.5348C73.2552 82.5348 73.576 82.433 73.8388 82.2294C74.1016 82.0258 74.3004 81.7547 74.4354 81.4162C74.5727 81.0777 74.6413 80.7048 74.6413 80.2976C74.6413 79.8904 74.5727 79.5163 74.4354 79.1754C74.3004 78.8345 74.1016 78.5611 73.8388 78.3551C73.576 78.1491 73.2552 78.0462 72.8764 78.0462C72.5 78.0462 72.1792 78.1491 71.9141 78.3551C71.6513 78.5611 71.4512 78.8345 71.3139 79.1754C71.179 79.5163 71.1115 79.8904 71.1115 80.2976C71.1115 80.7048 71.179 81.0777 71.3139 81.4162C71.4512 81.7547 71.6513 82.0258 71.9141 82.2294C72.1768 82.433 72.4976 82.5348 72.8764 82.5348ZM78.9089 77.5455V78.0959H76.2278V77.5455H78.9089ZM77.0659 83V76.7464C77.0659 76.4529 77.1333 76.2055 77.2683 76.0043C77.4056 75.803 77.5843 75.6503 77.8045 75.5462C78.0247 75.442 78.2579 75.3899 78.5041 75.3899C78.6698 75.3899 78.8071 75.4041 78.916 75.4325C79.0273 75.4586 79.1149 75.4846 79.1788 75.5107L78.9941 76.0646C78.9468 76.0504 78.8888 76.0339 78.8201 76.0149C78.7515 75.996 78.6651 75.9865 78.5609 75.9865C78.2863 75.9865 78.0744 76.0634 77.9252 76.2173C77.7761 76.3712 77.7015 76.5914 77.7015 76.8778L77.698 83H77.0659ZM85.103 83.1136C84.6319 83.1136 84.2152 82.9941 83.853 82.755C83.4931 82.5159 83.2114 82.1856 83.0078 81.7642C82.8042 81.3404 82.7024 80.8516 82.7024 80.2976C82.7024 79.7389 82.8042 79.2476 83.0078 78.8239C83.2114 78.3977 83.4931 78.0663 83.853 77.8295C84.2152 77.5904 84.6319 77.4709 85.103 77.4709C85.5741 77.4709 85.9896 77.5904 86.3494 77.8295C86.7093 78.0687 86.991 78.4001 87.1946 78.8239C87.4006 79.2476 87.5036 79.7389 87.5036 80.2976C87.5036 80.8516 87.4018 81.3404 87.1982 81.7642C86.9946 82.1856 86.7116 82.5159 86.3494 82.755C85.9896 82.9941 85.5741 83.1136 85.103 83.1136ZM85.103 82.5348C85.4818 82.5348 85.8026 82.433 86.0653 82.2294C86.3281 82.0258 86.527 81.7547 86.6619 81.4162C86.7992 81.0777 86.8679 80.7048 86.8679 80.2976C86.8679 79.8904 86.7992 79.5163 86.6619 79.1754C86.527 78.8345 86.3281 78.5611 86.0653 78.3551C85.8026 78.1491 85.4818 78.0462 85.103 78.0462C84.7266 78.0462 84.4058 78.1491 84.1406 78.3551C83.8778 78.5611 83.6778 78.8345 83.5405 79.1754C83.4055 79.5163 83.3381 79.8904 83.3381 80.2976C83.3381 80.7048 83.4055 81.0777 83.5405 81.4162C83.6778 81.7547 83.8778 82.0258 84.1406 82.2294C84.4034 82.433 84.7242 82.5348 85.103 82.5348ZM89.5233 79.5909V83H88.8912V77.5455H89.5055V78.4013H89.5623C89.6902 78.1219 89.889 77.8982 90.1589 77.7301C90.4312 77.5597 90.7673 77.4744 91.1674 77.4744C91.5344 77.4744 91.8564 77.5514 92.1333 77.7053C92.4127 77.8568 92.6293 78.0805 92.7832 78.3764C92.9395 78.6723 93.0176 79.0357 93.0176 79.4666V83H92.3855V79.5057C92.3855 79.0582 92.26 78.7043 92.0091 78.4439C91.7605 78.1835 91.4267 78.0533 91.0076 78.0533C90.7212 78.0533 90.4667 78.1148 90.2441 78.2379C90.0216 78.361 89.8452 78.5386 89.715 78.7706C89.5872 79.0002 89.5233 79.2737 89.5233 79.5909ZM96.8874 83.1136C96.3784 83.1136 95.9381 82.9953 95.5664 82.7585C95.1947 82.5194 94.9071 82.1892 94.7035 81.7678C94.5022 81.344 94.4016 80.8563 94.4016 80.3047C94.4016 79.7554 94.5022 79.2678 94.7035 78.8416C94.9071 78.4131 95.1876 78.0781 95.5451 77.8366C95.9049 77.5928 96.3204 77.4709 96.7915 77.4709C97.0875 77.4709 97.3728 77.5253 97.6474 77.6342C97.922 77.7408 98.1682 77.9053 98.386 78.1278C98.6062 78.348 98.7802 78.6262 98.908 78.9624C99.0359 79.2962 99.0998 79.6915 99.0998 80.1484V80.4609H94.8384V79.9034H98.4535C98.4535 79.553 98.3825 79.2382 98.2404 78.9588C98.1007 78.6771 97.9054 78.4545 97.6545 78.2912C97.4059 78.1278 97.1183 78.0462 96.7915 78.0462C96.4459 78.0462 96.1417 78.1385 95.8789 78.3232C95.6161 78.5078 95.4102 78.7517 95.261 79.0547C95.1142 79.3577 95.0397 79.6892 95.0373 80.049V80.3828C95.0373 80.8161 95.1119 81.1948 95.261 81.5192C95.4125 81.8411 95.6268 82.0909 95.9038 82.2685C96.1808 82.446 96.5086 82.5348 96.8874 82.5348C97.1455 82.5348 97.3716 82.4946 97.5657 82.4141C97.7622 82.3336 97.9267 82.2259 98.0593 82.0909C98.1942 81.9536 98.296 81.8033 98.3647 81.6399L98.9648 81.8352C98.882 82.0649 98.7459 82.2768 98.5565 82.4709C98.3694 82.665 98.1351 82.8213 97.8533 82.9396C97.574 83.0556 97.252 83.1136 96.8874 83.1136ZM44.5912 95.1136C44.1035 95.1136 43.6785 94.9917 43.3163 94.7479C42.9565 94.504 42.6771 94.1702 42.4782 93.7464C42.2794 93.3227 42.18 92.8397 42.18 92.2976C42.18 91.7507 42.2806 91.2642 42.4818 90.8381C42.6854 90.4119 42.9671 90.0781 43.327 89.8366C43.6868 89.5928 44.1047 89.4709 44.5805 89.4709C44.9451 89.4709 45.2754 89.5419 45.5713 89.6839C45.8672 89.8236 46.1111 90.0213 46.3028 90.277C46.497 90.5303 46.6189 90.8262 46.6686 91.1648H46.0294C45.9631 90.857 45.8033 90.5942 45.55 90.3764C45.299 90.1562 44.9794 90.0462 44.5912 90.0462C44.2432 90.0462 43.9354 90.1409 43.6679 90.3303C43.4004 90.5173 43.1908 90.7789 43.0393 91.1151C42.8902 91.4489 42.8156 91.8359 42.8156 92.2763C42.8156 92.719 42.889 93.1108 43.0358 93.4517C43.1826 93.7902 43.3885 94.0554 43.6537 94.2472C43.9212 94.4389 44.2337 94.5348 44.5912 94.5348C44.8327 94.5348 45.0528 94.4898 45.2517 94.3999C45.4529 94.3075 45.621 94.1773 45.7559 94.0092C45.8933 93.8411 45.9856 93.6411 46.0329 93.4091H46.6721C46.6248 93.7382 46.5076 94.0317 46.3206 94.2898C46.1359 94.5455 45.8956 94.7467 45.5997 94.8935C45.3061 95.0402 44.97 95.1136 44.5912 95.1136ZM50.1469 95.1136C49.6758 95.1136 49.2591 94.9941 48.8969 94.755C48.5371 94.5159 48.2554 94.1856 48.0518 93.7642C47.8482 93.3404 47.7464 92.8516 47.7464 92.2976C47.7464 91.7389 47.8482 91.2476 48.0518 90.8239C48.2554 90.3977 48.5371 90.0663 48.8969 89.8295C49.2591 89.5904 49.6758 89.4709 50.1469 89.4709C50.618 89.4709 51.0335 89.5904 51.3934 89.8295C51.7532 90.0687 52.0349 90.4001 52.2385 90.8239C52.4445 91.2476 52.5475 91.7389 52.5475 92.2976C52.5475 92.8516 52.4457 93.3404 52.2421 93.7642C52.0385 94.1856 51.7556 94.5159 51.3934 94.755C51.0335 94.9941 50.618 95.1136 50.1469 95.1136ZM50.1469 94.5348C50.5257 94.5348 50.8465 94.433 51.1093 94.2294C51.3721 94.0258 51.5709 93.7547 51.7059 93.4162C51.8432 93.0777 51.9118 92.7048 51.9118 92.2976C51.9118 91.8904 51.8432 91.5163 51.7059 91.1754C51.5709 90.8345 51.3721 90.5611 51.1093 90.3551C50.8465 90.1491 50.5257 90.0462 50.1469 90.0462C49.7705 90.0462 49.4497 90.1491 49.1846 90.3551C48.9218 90.5611 48.7217 90.8345 48.5844 91.1754C48.4495 91.5163 48.382 91.8904 48.382 92.2976C48.382 92.7048 48.4495 93.0777 48.5844 93.4162C48.7217 93.7547 48.9218 94.0258 49.1846 94.2294C49.4474 94.433 49.7681 94.5348 50.1469 94.5348ZM57.401 92.9155V89.5455H58.0331V95H57.401V94.0945H57.3513C57.2235 94.3738 57.021 94.607 56.7441 94.794C56.4671 94.9787 56.1285 95.071 55.7284 95.071C55.3804 95.071 55.0715 94.9953 54.8016 94.8438C54.5317 94.6899 54.3198 94.465 54.1659 94.169C54.012 93.8731 53.9351 93.5097 53.9351 93.0788V89.5455H54.5672V93.0398C54.5672 93.4659 54.6927 93.8092 54.9436 94.0696C55.1946 94.3277 55.5165 94.4567 55.9095 94.4567C56.1557 94.4567 56.3925 94.3975 56.6198 94.2791C56.847 94.1607 57.0341 93.9879 57.1808 93.7607C57.3276 93.531 57.401 93.2493 57.401 92.9155ZM59.7066 95V89.5455H60.3209V90.3835H60.3671C60.476 90.1089 60.6654 89.8875 60.9353 89.7195C61.2075 89.549 61.5153 89.4638 61.8586 89.4638C61.9107 89.4638 61.9687 89.465 62.0326 89.4673C62.0965 89.4697 62.1498 89.4721 62.1924 89.4744V90.1172C62.164 90.1125 62.1143 90.1054 62.0432 90.0959C61.9722 90.0864 61.8953 90.0817 61.8124 90.0817C61.5283 90.0817 61.275 90.142 61.0525 90.2628C60.8323 90.3812 60.6583 90.5457 60.5305 90.7564C60.4026 90.9671 60.3387 91.2074 60.3387 91.4773V95H59.7066ZM66.9358 90.7422L66.357 90.9055C66.3002 90.7422 66.2197 90.5942 66.1155 90.4616C66.0113 90.3291 65.8752 90.2237 65.7071 90.1456C65.5414 90.0675 65.3354 90.0284 65.0892 90.0284C64.7199 90.0284 64.4169 90.116 64.1801 90.2912C63.9434 90.4664 63.825 90.6925 63.825 90.9695C63.825 91.2038 63.9055 91.3944 64.0665 91.5412C64.2298 91.6856 64.4808 91.8004 64.8193 91.8857L65.6432 92.0881C66.1001 92.1993 66.4422 92.3757 66.6695 92.6172C66.8991 92.8587 67.0139 93.1617 67.0139 93.5263C67.0139 93.834 66.9287 94.1075 66.7583 94.3466C66.5878 94.5857 66.3499 94.7739 66.0445 94.9112C65.7414 95.0462 65.3899 95.1136 64.9898 95.1136C64.4571 95.1136 64.018 94.9941 63.6723 94.755C63.3267 94.5135 63.1053 94.1655 63.0083 93.7109L63.6155 93.5618C63.6936 93.8861 63.8463 94.1312 64.0736 94.2969C64.3032 94.4626 64.6051 94.5455 64.9791 94.5455C65.3982 94.5455 65.7332 94.4519 65.9841 94.2649C66.2351 94.0755 66.3605 93.8388 66.3605 93.5547C66.3605 93.3345 66.2871 93.1499 66.1404 93.0007C65.9936 92.8492 65.771 92.7379 65.4727 92.6669L64.5814 92.4538C64.1079 92.3402 63.7575 92.1603 63.5303 91.9141C63.303 91.6679 63.1894 91.3625 63.1894 90.9979C63.1894 90.6972 63.271 90.4332 63.4344 90.206C63.5977 89.9763 63.8227 89.7964 64.1091 89.6662C64.3956 89.536 64.7223 89.4709 65.0892 89.4709C65.5887 89.4709 65.9877 89.5845 66.286 89.8118C66.5866 90.0367 66.8032 90.3468 66.9358 90.7422ZM70.6032 95.1136C70.0943 95.1136 69.6539 94.9953 69.2822 94.7585C68.9105 94.5194 68.6229 94.1892 68.4193 93.7678C68.2181 93.344 68.1175 92.8563 68.1175 92.3047C68.1175 91.7554 68.2181 91.2678 68.4193 90.8416C68.6229 90.4131 68.9034 90.0781 69.2609 89.8366C69.6208 89.5928 70.0363 89.4709 70.5074 89.4709C70.8033 89.4709 71.0886 89.5253 71.3632 89.6342C71.6378 89.7408 71.884 89.9053 72.1018 90.1278C72.322 90.348 72.496 90.6262 72.6238 90.9624C72.7517 91.2962 72.8156 91.6915 72.8156 92.1484V92.4609H68.5542V91.9034H72.1693C72.1693 91.553 72.0983 91.2382 71.9562 90.9588C71.8166 90.6771 71.6212 90.4545 71.3703 90.2912C71.1217 90.1278 70.8341 90.0462 70.5074 90.0462C70.1617 90.0462 69.8575 90.1385 69.5947 90.3232C69.3319 90.5078 69.126 90.7517 68.9768 91.0547C68.83 91.3577 68.7555 91.6892 68.7531 92.049V92.3828C68.7531 92.8161 68.8277 93.1948 68.9768 93.5192C69.1283 93.8411 69.3426 94.0909 69.6196 94.2685C69.8966 94.446 70.2245 94.5348 70.6032 94.5348C70.8613 94.5348 71.0874 94.4946 71.2815 94.4141C71.478 94.3336 71.6425 94.2259 71.7751 94.0909C71.9101 93.9536 72.0119 93.8033 72.0805 93.6399L72.6807 93.8352C72.5978 94.0649 72.4617 94.2768 72.2723 94.4709C72.0853 94.665 71.8509 94.8213 71.5692 94.9396C71.2898 95.0556 70.9678 95.1136 70.6032 95.1136Z" fill="#333333"/>
</g>
<defs>
<filter id="filter0_d_893_409" x="0" y="0" width="118" height="118" filterUnits="userSpaceOnUse" color-interpolation-filters="sRGB">
<feFlood flood-opacity="0" result="BackgroundImageFix"/>
<feColorMatrix in="SourceAlpha" type="matrix" values="0 0 0 0 0 0 0 0 0 0 0 0 0 0 0 0 0 0 127 0" result="hardAlpha"/>
<feOffset dy="4"/>
<feGaussianBlur stdDeviation="2"/>
<feComposite in2="hardAlpha" operator="out"/>
<feColorMatrix type="matrix" values="0 0 0 0 0 0 0 0 0 0 0 0 0 0 0 0 0 0 0.25 0"/>
<feBlend mode="normal" in2="BackgroundImageFix" result="effect1_dropShadow_893_409"/>
<feBlend mode="normal" in="SourceGraphic" in2="effect1_dropShadow_893_409" result="shape"/>
</filter>
</defs>
</svg>
