<svg width="110" height="110" viewBox="0 0 110 110" fill="none" xmlns="http://www.w3.org/2000/svg">
<rect width="110" height="110" fill="#F8E8B2"/>
<path d="M27.0882 51.1136C26.6006 51.1136 26.1756 50.9917 25.8134 50.7479C25.4535 50.504 25.1742 50.1702 24.9753 49.7464C24.7765 49.3227 24.677 48.8397 24.677 48.2976C24.677 47.7507 24.7776 47.2642 24.9789 46.8381C25.1825 46.4119 25.4642 46.0781 25.824 45.8366C26.1839 45.5928 26.6017 45.4709 27.0776 45.4709C27.4422 45.4709 27.7724 45.5419 28.0684 45.6839C28.3643 45.8236 28.6081 46.0213 28.7999 46.277C28.994 46.5303 29.1159 46.8262 29.1657 47.1648H28.5265C28.4602 46.857 28.3004 46.5942 28.0471 46.3764C27.7961 46.1562 27.4765 46.0462 27.0882 46.0462C26.7402 46.0462 26.4325 46.1409 26.165 46.3303C25.8974 46.5173 25.6879 46.7789 25.5364 47.1151C25.3873 47.4489 25.3127 47.8359 25.3127 48.2763C25.3127 48.719 25.3861 49.1108 25.5328 49.4517C25.6796 49.7902 25.8856 50.0554 26.1507 50.2472C26.4183 50.4389 26.7308 50.5348 27.0882 50.5348C27.3297 50.5348 27.5499 50.4898 27.7488 50.3999C27.95 50.3075 28.1181 50.1773 28.253 50.0092C28.3903 49.8411 28.4827 49.6411 28.53 49.4091H29.1692C29.1219 49.7382 29.0047 50.0317 28.8176 50.2898C28.633 50.5455 28.3927 50.7467 28.0968 50.8935C27.8032 51.0402 27.467 51.1136 27.0882 51.1136ZM32.644 51.1136C32.1729 51.1136 31.7562 50.9941 31.394 50.755C31.0342 50.5159 30.7524 50.1856 30.5488 49.7642C30.3452 49.3404 30.2434 48.8516 30.2434 48.2976C30.2434 47.7389 30.3452 47.2476 30.5488 46.8239C30.7524 46.3977 31.0342 46.0663 31.394 45.8295C31.7562 45.5904 32.1729 45.4709 32.644 45.4709C33.1151 45.4709 33.5306 45.5904 33.8904 45.8295C34.2503 46.0687 34.532 46.4001 34.7356 46.8239C34.9416 47.2476 35.0446 47.7389 35.0446 48.2976C35.0446 48.8516 34.9428 49.3404 34.7392 49.7642C34.5356 50.1856 34.2527 50.5159 33.8904 50.755C33.5306 50.9941 33.1151 51.1136 32.644 51.1136ZM32.644 50.5348C33.0228 50.5348 33.3436 50.433 33.6064 50.2294C33.8691 50.0258 34.068 49.7547 34.2029 49.4162C34.3403 49.0777 34.4089 48.7048 34.4089 48.2976C34.4089 47.8904 34.3403 47.5163 34.2029 47.1754C34.068 46.8345 33.8691 46.5611 33.6064 46.3551C33.3436 46.1491 33.0228 46.0462 32.644 46.0462C32.2676 46.0462 31.9468 46.1491 31.6816 46.3551C31.4189 46.5611 31.2188 46.8345 31.0815 47.1754C30.9466 47.5163 30.8791 47.8904 30.8791 48.2976C30.8791 48.7048 30.9466 49.0777 31.0815 49.4162C31.2188 49.7547 31.4189 50.0258 31.6816 50.2294C31.9444 50.433 32.2652 50.5348 32.644 50.5348ZM39.8981 48.9155V45.5455H40.5302V51H39.8981V50.0945H39.8484C39.7205 50.3738 39.5181 50.607 39.2411 50.794C38.9641 50.9787 38.6256 51.071 38.2255 51.071C37.8775 51.071 37.5685 50.9953 37.2987 50.8438C37.0288 50.6899 36.8169 50.465 36.663 50.169C36.5091 49.8731 36.4322 49.5097 36.4322 49.0788V45.5455H37.0643V49.0398C37.0643 49.4659 37.1897 49.8092 37.4407 50.0696C37.6916 50.3277 38.0136 50.4567 38.4066 50.4567C38.6528 50.4567 38.8896 50.3975 39.1168 50.2791C39.3441 50.1607 39.5311 49.9879 39.6779 49.7607C39.8247 49.531 39.8981 49.2493 39.8981 48.9155ZM42.2037 51V45.5455H42.818V46.3835H42.8642C42.9731 46.1089 43.1625 45.8875 43.4324 45.7195C43.7046 45.549 44.0124 45.4638 44.3556 45.4638C44.4077 45.4638 44.4657 45.465 44.5297 45.4673C44.5936 45.4697 44.6468 45.4721 44.6895 45.4744V46.1172C44.661 46.1125 44.6113 46.1054 44.5403 46.0959C44.4693 46.0864 44.3923 46.0817 44.3095 46.0817C44.0254 46.0817 43.7721 46.142 43.5495 46.2628C43.3294 46.3812 43.1554 46.5457 43.0275 46.7564C42.8997 46.9671 42.8358 47.2074 42.8358 47.4773V51H42.2037ZM49.4329 46.7422L48.854 46.9055C48.7972 46.7422 48.7167 46.5942 48.6126 46.4616C48.5084 46.3291 48.3723 46.2237 48.2042 46.1456C48.0385 46.0675 47.8325 46.0284 47.5863 46.0284C47.217 46.0284 46.9139 46.116 46.6772 46.2912C46.4405 46.4664 46.3221 46.6925 46.3221 46.9695C46.3221 47.2038 46.4026 47.3944 46.5636 47.5412C46.7269 47.6856 46.9779 47.8004 47.3164 47.8857L48.1403 48.0881C48.5972 48.1993 48.9393 48.3757 49.1665 48.6172C49.3962 48.8587 49.511 49.1617 49.511 49.5263C49.511 49.834 49.4258 50.1075 49.2553 50.3466C49.0849 50.5857 48.8469 50.7739 48.5415 50.9112C48.2385 51.0462 47.887 51.1136 47.4869 51.1136C46.9542 51.1136 46.515 50.9941 46.1694 50.755C45.8237 50.5135 45.6024 50.1655 45.5053 49.7109L46.1126 49.5618C46.1907 49.8861 46.3434 50.1312 46.5707 50.2969C46.8003 50.4626 47.1022 50.5455 47.4762 50.5455C47.8952 50.5455 48.2302 50.4519 48.4812 50.2649C48.7321 50.0755 48.8576 49.8388 48.8576 49.5547C48.8576 49.3345 48.7842 49.1499 48.6374 49.0007C48.4906 48.8492 48.2681 48.7379 47.9698 48.6669L47.0785 48.4538C46.605 48.3402 46.2546 48.1603 46.0273 47.9141C45.8001 47.6679 45.6864 47.3625 45.6864 46.9979C45.6864 46.6972 45.7681 46.4332 45.9315 46.206C46.0948 45.9763 46.3197 45.7964 46.6062 45.6662C46.8926 45.536 47.2193 45.4709 47.5863 45.4709C48.0858 45.4709 48.4847 45.5845 48.783 45.8118C49.0837 46.0367 49.3003 46.3468 49.4329 46.7422ZM53.1003 51.1136C52.5913 51.1136 52.151 50.9953 51.7793 50.7585C51.4076 50.5194 51.12 50.1892 50.9164 49.7678C50.7151 49.344 50.6145 48.8563 50.6145 48.3047C50.6145 47.7554 50.7151 47.2678 50.9164 46.8416C51.12 46.4131 51.4005 46.0781 51.758 45.8366C52.1178 45.5928 52.5333 45.4709 53.0044 45.4709C53.3004 45.4709 53.5856 45.5253 53.8603 45.6342C54.1349 45.7408 54.3811 45.9053 54.5989 46.1278C54.8191 46.348 54.9931 46.6262 55.1209 46.9624C55.2488 47.2962 55.3127 47.6915 55.3127 48.1484V48.4609H51.0513V47.9034H54.6664C54.6664 47.553 54.5953 47.2382 54.4533 46.9588C54.3136 46.6771 54.1183 46.4545 53.8674 46.2912C53.6188 46.1278 53.3311 46.0462 53.0044 46.0462C52.6588 46.0462 52.3546 46.1385 52.0918 46.3232C51.829 46.5078 51.623 46.7517 51.4739 47.0547C51.3271 47.3577 51.2525 47.6892 51.2502 48.049V48.3828C51.2502 48.8161 51.3248 49.1948 51.4739 49.5192C51.6254 49.8411 51.8397 50.0909 52.1167 50.2685C52.3936 50.446 52.7215 50.5348 53.1003 50.5348C53.3584 50.5348 53.5845 50.4946 53.7786 50.4141C53.9751 50.3336 54.1396 50.2259 54.2722 50.0909C54.4071 49.9536 54.5089 49.8033 54.5776 49.6399L55.1777 49.8352C55.0949 50.0649 54.9587 50.2768 54.7694 50.4709C54.5823 50.665 54.348 50.8213 54.0662 50.9396C53.7869 51.0556 53.4649 51.1136 53.1003 51.1136ZM60.3704 46.7422L59.7915 46.9055C59.7347 46.7422 59.6542 46.5942 59.5501 46.4616C59.4459 46.3291 59.3098 46.2237 59.1417 46.1456C58.976 46.0675 58.77 46.0284 58.5238 46.0284C58.1545 46.0284 57.8514 46.116 57.6147 46.2912C57.378 46.4664 57.2596 46.6925 57.2596 46.9695C57.2596 47.2038 57.3401 47.3944 57.5011 47.5412C57.6644 47.6856 57.9154 47.8004 58.2539 47.8857L59.0778 48.0881C59.5347 48.1993 59.8768 48.3757 60.104 48.6172C60.3337 48.8587 60.4485 49.1617 60.4485 49.5263C60.4485 49.834 60.3633 50.1075 60.1928 50.3466C60.0224 50.5857 59.7844 50.7739 59.479 50.9112C59.176 51.0462 58.8245 51.1136 58.4244 51.1136C57.8917 51.1136 57.4525 50.9941 57.1069 50.755C56.7612 50.5135 56.5399 50.1655 56.4428 49.7109L57.0501 49.5618C57.1282 49.8861 57.2809 50.1312 57.5082 50.2969C57.7378 50.4626 58.0397 50.5455 58.4137 50.5455C58.8327 50.5455 59.1677 50.4519 59.4187 50.2649C59.6696 50.0755 59.7951 49.8388 59.7951 49.5547C59.7951 49.3345 59.7217 49.1499 59.5749 49.0007C59.4281 48.8492 59.2056 48.7379 58.9073 48.6669L58.016 48.4538C57.5425 48.3402 57.1921 48.1603 56.9648 47.9141C56.7376 47.6679 56.6239 47.3625 56.6239 46.9979C56.6239 46.6972 56.7056 46.4332 56.869 46.206C57.0323 45.9763 57.2572 45.7964 57.5437 45.6662C57.8301 45.536 58.1568 45.4709 58.5238 45.4709C59.0233 45.4709 59.4222 45.5845 59.7205 45.8118C60.0212 46.0367 60.2378 46.3468 60.3704 46.7422ZM64.6451 51V45.5455H65.2594V46.3835H65.3162C65.4251 46.1018 65.6062 45.8804 65.8596 45.7195C66.1152 45.5561 66.4218 45.4744 66.7793 45.4744C67.1557 45.4744 67.4647 45.5632 67.7061 45.7408C67.95 45.916 68.1323 46.1574 68.253 46.4652H68.2992C68.4223 46.1622 68.6223 45.9219 68.8993 45.7443C69.1787 45.5644 69.5172 45.4744 69.915 45.4744C70.4216 45.4744 70.8217 45.6342 71.1152 45.9538C71.4088 46.2711 71.5556 46.7351 71.5556 47.3459V51H70.9235V47.3459C70.9235 46.915 70.8134 46.5919 70.5932 46.3764C70.373 46.161 70.083 46.0533 69.7232 46.0533C69.3065 46.0533 68.9857 46.1811 68.7608 46.4368C68.5359 46.6925 68.4235 47.0168 68.4235 47.4098V51H67.7772V47.2891C67.7772 46.9197 67.6742 46.6214 67.4682 46.3942C67.2623 46.1669 66.9722 46.0533 66.5982 46.0533C66.3472 46.0533 66.1212 46.1148 65.9199 46.2379C65.7211 46.361 65.5636 46.5327 65.4476 46.7528C65.334 46.9706 65.2772 47.2216 65.2772 47.5057V51H64.6451ZM76.695 48.9155V45.5455H77.3271V51H76.695V50.0945H76.6452C76.5174 50.3738 76.315 50.607 76.038 50.794C75.761 50.9787 75.4225 51.071 75.0224 51.071C74.6744 51.071 74.3654 50.9953 74.0955 50.8438C73.8256 50.6899 73.6138 50.465 73.4599 50.169C73.306 49.8731 73.229 49.5097 73.229 49.0788V45.5455H73.8612V49.0398C73.8612 49.4659 73.9866 49.8092 74.2376 50.0696C74.4885 50.3277 74.8105 50.4567 75.2035 50.4567C75.4497 50.4567 75.6864 50.3975 75.9137 50.2791C76.141 50.1607 76.328 49.9879 76.4748 49.7607C76.6216 49.531 76.695 49.2493 76.695 48.9155ZM82.6653 46.7422L82.0865 46.9055C82.0297 46.7422 81.9492 46.5942 81.845 46.4616C81.7408 46.3291 81.6047 46.2237 81.4366 46.1456C81.2709 46.0675 81.0649 46.0284 80.8187 46.0284C80.4494 46.0284 80.1464 46.116 79.9096 46.2912C79.6729 46.4664 79.5545 46.6925 79.5545 46.9695C79.5545 47.2038 79.635 47.3944 79.796 47.5412C79.9593 47.6856 80.2103 47.8004 80.5488 47.8857L81.3727 48.0881C81.8296 48.1993 82.1717 48.3757 82.399 48.6172C82.6286 48.8587 82.7434 49.1617 82.7434 49.5263C82.7434 49.834 82.6582 50.1075 82.4877 50.3466C82.3173 50.5857 82.0794 50.7739 81.774 50.9112C81.4709 51.0462 81.1194 51.1136 80.7193 51.1136C80.1866 51.1136 79.7475 50.9941 79.4018 50.755C79.0562 50.5135 78.8348 50.1655 78.7377 49.7109L79.345 49.5618C79.4231 49.8861 79.5758 50.1312 79.8031 50.2969C80.0327 50.4626 80.3346 50.5455 80.7086 50.5455C81.1277 50.5455 81.4627 50.4519 81.7136 50.2649C81.9645 50.0755 82.09 49.8388 82.09 49.5547C82.09 49.3345 82.0166 49.1499 81.8699 49.0007C81.7231 48.8492 81.5005 48.7379 81.2022 48.6669L80.3109 48.4538C79.8374 48.3402 79.487 48.1603 79.2598 47.9141C79.0325 47.6679 78.9189 47.3625 78.9189 46.9979C78.9189 46.6972 79.0005 46.4332 79.1639 46.206C79.3272 45.9763 79.5521 45.7964 79.8386 45.6662C80.1251 45.536 80.4518 45.4709 80.8187 45.4709C81.3182 45.4709 81.7172 45.5845 82.0154 45.8118C82.3161 46.0367 82.5327 46.3468 82.6653 46.7422ZM86.2759 45.5455V46.0959H83.6729V45.5455H86.2759ZM84.4862 44.2386H85.1218V49.576C85.1218 49.8033 85.1609 49.982 85.239 50.1122C85.3171 50.2401 85.4189 50.3312 85.5444 50.3857C85.6699 50.4377 85.8036 50.4638 85.9457 50.4638C86.0285 50.4638 86.0996 50.459 86.1587 50.4496C86.2179 50.4377 86.27 50.4259 86.315 50.4141L86.4499 50.9858C86.3884 51.0095 86.3126 51.0308 86.2227 51.0497C86.1327 51.071 86.0214 51.0817 85.8888 51.0817C85.6568 51.0817 85.4331 51.0308 85.2177 50.929C85.0046 50.8272 84.8294 50.6757 84.6921 50.4744C84.5548 50.2732 84.4862 50.0234 84.4862 49.7251V44.2386ZM30.2749 63L28.6272 57.5455H29.2948L30.5874 62.0447H30.6336L31.9227 57.5455H32.5938L33.8722 62.0341H33.922L35.2146 57.5455H35.8822L34.2345 63H33.5811L32.2884 58.5291H32.221L30.9284 63H30.2749ZM39.0454 63.1136C38.5742 63.1136 38.1576 62.9941 37.7954 62.755C37.4355 62.5159 37.1538 62.1856 36.9502 61.7642C36.7466 61.3404 36.6448 60.8516 36.6448 60.2976C36.6448 59.7389 36.7466 59.2476 36.9502 58.8239C37.1538 58.3977 37.4355 58.0663 37.7954 57.8295C38.1576 57.5904 38.5742 57.4709 39.0454 57.4709C39.5165 57.4709 39.932 57.5904 40.2918 57.8295C40.6517 58.0687 40.9334 58.4001 41.137 58.8239C41.343 59.2476 41.4459 59.7389 41.4459 60.2976C41.4459 60.8516 41.3441 61.3404 41.1405 61.7642C40.9369 62.1856 40.654 62.5159 40.2918 62.755C39.932 62.9941 39.5165 63.1136 39.0454 63.1136ZM39.0454 62.5348C39.4242 62.5348 39.7449 62.433 40.0077 62.2294C40.2705 62.0258 40.4694 61.7547 40.6043 61.4162C40.7416 61.0777 40.8103 60.7048 40.8103 60.2976C40.8103 59.8904 40.7416 59.5163 40.6043 59.1754C40.4694 58.8345 40.2705 58.5611 40.0077 58.3551C39.7449 58.1491 39.4242 58.0462 39.0454 58.0462C38.6689 58.0462 38.3482 58.1491 38.083 58.3551C37.8202 58.5611 37.6202 58.8345 37.4829 59.1754C37.3479 59.5163 37.2805 59.8904 37.2805 60.2976C37.2805 60.7048 37.3479 61.0777 37.4829 61.4162C37.6202 61.7547 37.8202 62.0258 38.083 62.2294C38.3458 62.433 38.6666 62.5348 39.0454 62.5348ZM42.8335 63V57.5455H43.4479V58.3835H43.4941C43.603 58.1089 43.7923 57.8875 44.0622 57.7195C44.3345 57.549 44.6423 57.4638 44.9855 57.4638C45.0376 57.4638 45.0956 57.465 45.1595 57.4673C45.2235 57.4697 45.2767 57.4721 45.3193 57.4744V58.1172C45.2909 58.1125 45.2412 58.1054 45.1702 58.0959C45.0992 58.0864 45.0222 58.0817 44.9394 58.0817C44.6553 58.0817 44.402 58.142 44.1794 58.2628C43.9593 58.3812 43.7852 58.5457 43.6574 58.7564C43.5296 58.9671 43.4656 59.2074 43.4656 59.4773V63H42.8335ZM46.9733 60.9403L46.9662 60.1129H47.1082L49.665 57.5455H50.464L47.9392 60.0739L47.8824 60.0845L46.9733 60.9403ZM46.398 63V55.7273H47.0301V63H46.398ZM49.7964 63L47.5805 60.1982L48.0351 59.7614L50.6061 63H49.7964ZM56.5844 63.1136C56.1133 63.1136 55.6966 62.9941 55.3344 62.755C54.9746 62.5159 54.6929 62.1856 54.4893 61.7642C54.2857 61.3404 54.1839 60.8516 54.1839 60.2976C54.1839 59.7389 54.2857 59.2476 54.4893 58.8239C54.6929 58.3977 54.9746 58.0663 55.3344 57.8295C55.6966 57.5904 56.1133 57.4709 56.5844 57.4709C57.0555 57.4709 57.471 57.5904 57.8309 57.8295C58.1907 58.0687 58.4724 58.4001 58.676 58.8239C58.882 59.2476 58.985 59.7389 58.985 60.2976C58.985 60.8516 58.8832 61.3404 58.6796 61.7642C58.476 62.1856 58.1931 62.5159 57.8309 62.755C57.471 62.9941 57.0555 63.1136 56.5844 63.1136ZM56.5844 62.5348C56.9632 62.5348 57.284 62.433 57.5468 62.2294C57.8096 62.0258 58.0084 61.7547 58.1434 61.4162C58.2807 61.0777 58.3493 60.7048 58.3493 60.2976C58.3493 59.8904 58.2807 59.5163 58.1434 59.1754C58.0084 58.8345 57.8096 58.5611 57.5468 58.3551C57.284 58.1491 56.9632 58.0462 56.5844 58.0462C56.208 58.0462 55.8872 58.1491 55.6221 58.3551C55.3593 58.5611 55.1592 58.8345 55.0219 59.1754C54.887 59.5163 54.8195 59.8904 54.8195 60.2976C54.8195 60.7048 54.887 61.0777 55.0219 61.4162C55.1592 61.7547 55.3593 62.0258 55.6221 62.2294C55.8849 62.433 56.2056 62.5348 56.5844 62.5348ZM62.6169 57.5455V58.0959H59.9358V57.5455H62.6169ZM60.7739 63V56.7464C60.7739 56.4529 60.8414 56.2055 60.9763 56.0043C61.1136 55.803 61.2923 55.6503 61.5125 55.5462C61.7327 55.442 61.9659 55.3899 62.2121 55.3899C62.3778 55.3899 62.5151 55.4041 62.624 55.4325C62.7353 55.4586 62.8229 55.4846 62.8868 55.5107L62.7021 56.0646C62.6548 56.0504 62.5968 56.0339 62.5281 56.0149C62.4595 55.996 62.3731 55.9865 62.2689 55.9865C61.9943 55.9865 61.7824 56.0634 61.6333 56.2173C61.4841 56.3712 61.4095 56.5914 61.4095 56.8778L61.406 63H60.7739ZM66.1228 57.5455V58.0959H63.4417V57.5455H66.1228ZM64.2797 63V56.7464C64.2797 56.4529 64.3472 56.2055 64.4822 56.0043C64.6195 55.803 64.7982 55.6503 65.0184 55.5462C65.2385 55.442 65.4717 55.3899 65.718 55.3899C65.8837 55.3899 66.021 55.4041 66.1299 55.4325C66.2412 55.4586 66.3287 55.4846 66.3927 55.5107L66.208 56.0646C66.1607 56.0504 66.1027 56.0339 66.034 56.0149C65.9653 55.996 65.8789 55.9865 65.7748 55.9865C65.5001 55.9865 65.2883 56.0634 65.1391 56.2173C64.99 56.3712 64.9154 56.5914 64.9154 56.8778L64.9118 63H64.2797ZM68.0164 55.7273V63H67.3843V55.7273H68.0164ZM69.6961 63V57.5455H70.3318V63H69.6961ZM70.0193 56.608C69.8891 56.608 69.7778 56.5642 69.6855 56.4766C69.5931 56.3866 69.547 56.2789 69.547 56.1534C69.547 56.0279 69.5931 55.9214 69.6855 55.8338C69.7778 55.7438 69.8891 55.6989 70.0193 55.6989C70.1495 55.6989 70.2607 55.7438 70.3531 55.8338C70.4454 55.9214 70.4916 56.0279 70.4916 56.1534C70.4916 56.2789 70.4454 56.3866 70.3531 56.4766C70.2607 56.5642 70.1495 56.608 70.0193 56.608ZM72.6356 59.5909V63H72.0035V57.5455H72.6178V58.4013H72.6746C72.8025 58.1219 73.0013 57.8982 73.2712 57.7301C73.5435 57.5597 73.8796 57.4744 74.2797 57.4744C74.6467 57.4744 74.9687 57.5514 75.2456 57.7053C75.525 57.8568 75.7416 58.0805 75.8955 58.3764C76.0518 58.6723 76.1299 59.0357 76.1299 59.4666V63H75.4978V59.5057C75.4978 59.0582 75.3723 58.7043 75.1214 58.4439C74.8728 58.1835 74.539 58.0533 74.1199 58.0533C73.8335 58.0533 73.579 58.1148 73.3564 58.2379C73.1339 58.361 72.9575 58.5386 72.8273 58.7706C72.6995 59.0002 72.6356 59.2737 72.6356 59.5909ZM79.9997 63.1136C79.4907 63.1136 79.0504 62.9953 78.6787 62.7585C78.307 62.5194 78.0194 62.1892 77.8158 61.7678C77.6146 61.344 77.5139 60.8563 77.5139 60.3047C77.5139 59.7554 77.6146 59.2678 77.8158 58.8416C78.0194 58.4131 78.2999 58.0781 78.6574 57.8366C79.0173 57.5928 79.4327 57.4709 79.9039 57.4709C80.1998 57.4709 80.4851 57.5253 80.7597 57.6342C81.0343 57.7408 81.2805 57.9053 81.4983 58.1278C81.7185 58.348 81.8925 58.6262 82.0203 58.9624C82.1482 59.2962 82.2121 59.6915 82.2121 60.1484V60.4609H77.9507V59.9034H81.5658C81.5658 59.553 81.4948 59.2382 81.3527 58.9588C81.213 58.6771 81.0177 58.4545 80.7668 58.2912C80.5182 58.1278 80.2306 58.0462 79.9039 58.0462C79.5582 58.0462 79.254 58.1385 78.9912 58.3232C78.7284 58.5078 78.5225 58.7517 78.3733 59.0547C78.2265 59.3577 78.152 59.6892 78.1496 60.049V60.3828C78.1496 60.8161 78.2242 61.1948 78.3733 61.5192C78.5248 61.8411 78.7391 62.0909 79.0161 62.2685C79.2931 62.446 79.6209 62.5348 79.9997 62.5348C80.2578 62.5348 80.4839 62.4946 80.678 62.4141C80.8745 62.3336 81.039 62.2259 81.1716 62.0909C81.3066 61.9536 81.4084 61.8033 81.477 61.6399L82.0771 61.8352C81.9943 62.0649 81.8582 62.2768 81.6688 62.4709C81.4817 62.665 81.2474 62.8213 80.9656 62.9396C80.6863 63.0556 80.3643 63.1136 79.9997 63.1136Z" fill="#222222"/>
</svg>
