<svg width="110" height="110" viewBox="0 0 110 110" fill="none" xmlns="http://www.w3.org/2000/svg">
<rect width="110" height="110" fill="#F8E8B2"/>
<path d="M33.6102 43.5909V47H32.9781V39.7273H33.6102V42.4013H33.667C33.7948 42.1196 33.9925 41.8946 34.26 41.7266C34.5299 41.5585 34.8708 41.4744 35.2828 41.4744C35.6521 41.4744 35.9764 41.5502 36.2558 41.7017C36.5351 41.8532 36.7529 42.0769 36.9092 42.3729C37.0654 42.6688 37.1436 43.0334 37.1436 43.4666V47H36.5079V43.5057C36.5079 43.0559 36.3824 42.7019 36.1315 42.4439C35.8829 42.1835 35.5467 42.0533 35.123 42.0533C34.8318 42.0533 34.5725 42.1148 34.3453 42.2379C34.118 42.361 33.9381 42.5386 33.8055 42.7706C33.6753 43.0002 33.6102 43.2737 33.6102 43.5909ZM40.3316 47.1243C40.0025 47.1243 39.7019 47.0604 39.4296 46.9325C39.1573 46.8023 38.9407 46.6153 38.7797 46.3714C38.6188 46.1252 38.5383 45.8269 38.5383 45.4766C38.5383 45.2067 38.5892 44.9794 38.691 44.7947C38.7928 44.6101 38.9372 44.4586 39.1242 44.3402C39.3112 44.2218 39.5326 44.1283 39.7883 44.0597C40.0439 43.991 40.3257 43.9377 40.6334 43.8999C40.9388 43.862 41.1969 43.8288 41.4076 43.8004C41.6206 43.772 41.7828 43.727 41.8941 43.6655C42.0054 43.6039 42.061 43.5045 42.061 43.3672V43.2393C42.061 42.8677 41.9497 42.5753 41.7272 42.3622C41.507 42.1468 41.1898 42.0391 40.7755 42.0391C40.3825 42.0391 40.0617 42.1255 39.8131 42.2983C39.5669 42.4711 39.3941 42.6747 39.2947 42.9091L38.6945 42.6925C38.8176 42.3942 38.9881 42.1562 39.2059 41.9787C39.4237 41.7988 39.6675 41.6697 39.9374 41.5916C40.2073 41.5111 40.4807 41.4709 40.7577 41.4709C40.9661 41.4709 41.1827 41.4981 41.4076 41.5526C41.6349 41.607 41.8456 41.7017 42.0397 41.8366C42.2338 41.9692 42.3912 42.1551 42.512 42.3942C42.6327 42.6309 42.6931 42.9316 42.6931 43.2962V47H42.061V46.1371H42.0219C41.9462 46.2981 41.8337 46.4543 41.6846 46.6058C41.5354 46.7573 41.3484 46.8816 41.1235 46.9787C40.8986 47.0758 40.6346 47.1243 40.3316 47.1243ZM40.4168 46.5455C40.753 46.5455 41.0442 46.4709 41.2904 46.3217C41.5366 46.1726 41.726 45.9749 41.8586 45.7287C41.9935 45.4801 42.061 45.2067 42.061 44.9084V44.12C42.0136 44.165 41.9343 44.2053 41.8231 44.2408C41.7142 44.2763 41.5875 44.3082 41.4431 44.3366C41.301 44.3627 41.159 44.3852 41.017 44.4041C40.8749 44.4231 40.7471 44.4396 40.6334 44.4538C40.3257 44.4917 40.0629 44.5509 39.8451 44.6314C39.6273 44.7119 39.4604 44.8232 39.3444 44.9652C39.2284 45.1049 39.1704 45.2848 39.1704 45.505C39.1704 45.8364 39.2887 46.0933 39.5255 46.2756C39.7622 46.4555 40.0593 46.5455 40.4168 46.5455ZM48.4015 41.5455L46.4094 47H45.7346L43.7425 41.5455H44.4278L46.0471 46.1655H46.0969L47.7162 41.5455H48.4015ZM51.6482 47.1136C51.1392 47.1136 50.6988 46.9953 50.3271 46.7585C49.9555 46.5194 49.6678 46.1892 49.4642 45.7678C49.263 45.344 49.1624 44.8563 49.1624 44.3047C49.1624 43.7554 49.263 43.2678 49.4642 42.8416C49.6678 42.4131 49.9484 42.0781 50.3058 41.8366C50.6657 41.5928 51.0812 41.4709 51.5523 41.4709C51.8482 41.4709 52.1335 41.5253 52.4081 41.6342C52.6827 41.7408 52.9289 41.9053 53.1468 42.1278C53.3669 42.348 53.5409 42.6262 53.6688 42.9624C53.7966 43.2962 53.8605 43.6915 53.8605 44.1484V44.4609H49.5992V43.9034H53.2142C53.2142 43.553 53.1432 43.2382 53.0012 42.9588C52.8615 42.6771 52.6662 42.4545 52.4152 42.2912C52.1666 42.1278 51.879 42.0462 51.5523 42.0462C51.2066 42.0462 50.9024 42.1385 50.6396 42.3232C50.3769 42.5078 50.1709 42.7517 50.0218 43.0547C49.875 43.3577 49.8004 43.6892 49.798 44.049V44.3828C49.798 44.8161 49.8726 45.1948 50.0218 45.5192C50.1733 45.8411 50.3875 46.0909 50.6645 46.2685C50.9415 46.446 51.2694 46.5348 51.6482 46.5348C51.9062 46.5348 52.1323 46.4946 52.3264 46.4141C52.5229 46.3336 52.6875 46.2259 52.82 46.0909C52.955 45.9536 53.0568 45.8033 53.1254 45.6399L53.7256 45.8352C53.6427 46.0649 53.5066 46.2768 53.3172 46.4709C53.1302 46.665 52.8958 46.8213 52.6141 46.9396C52.3347 47.0556 52.0128 47.1136 51.6482 47.1136ZM62.2883 41.5455L60.2961 47H59.6214L57.6292 41.5455H58.3145L59.9339 46.1655H59.9836L61.6029 41.5455H62.2883ZM63.532 47V41.5455H64.1677V47H63.532ZM63.8552 40.608C63.725 40.608 63.6137 40.5642 63.5214 40.4766C63.4291 40.3866 63.3829 40.2789 63.3829 40.1534C63.3829 40.0279 63.4291 39.9214 63.5214 39.8338C63.6137 39.7438 63.725 39.6989 63.8552 39.6989C63.9854 39.6989 64.0967 39.7438 64.189 39.8338C64.2813 39.9214 64.3275 40.0279 64.3275 40.1534C64.3275 40.2789 64.2813 40.3866 64.189 40.4766C64.0967 40.5642 63.9854 40.608 63.8552 40.608ZM67.8032 47.1136C67.3557 47.1136 66.9639 46.9953 66.6278 46.7585C66.2916 46.5218 66.0288 46.1915 65.8394 45.7678C65.6524 45.344 65.5589 44.8504 65.5589 44.2869C65.5589 43.7259 65.6524 43.2346 65.8394 42.8132C66.0288 42.3894 66.2928 42.0604 66.6313 41.826C66.9698 41.5893 67.364 41.4709 67.8138 41.4709C68.1453 41.4709 68.4211 41.5301 68.6412 41.6484C68.8614 41.7644 69.0378 41.9089 69.1704 42.0817C69.3029 42.2545 69.4059 42.4226 69.4793 42.5859H69.5361V39.7273H70.1718V47H69.5539V45.9879H69.4793C69.4059 46.1536 69.3018 46.3241 69.1668 46.4993C69.0319 46.6721 68.8531 46.8177 68.6306 46.9361C68.4104 47.0545 68.1346 47.1136 67.8032 47.1136ZM67.8778 46.5348C68.2305 46.5348 68.5312 46.4389 68.7797 46.2472C69.0283 46.053 69.2177 45.7867 69.3479 45.4482C69.4805 45.1072 69.5468 44.7166 69.5468 44.2763C69.5468 43.8407 69.4817 43.456 69.3515 43.1222C69.2213 42.786 69.0319 42.5232 68.7833 42.3338C68.5347 42.142 68.2329 42.0462 67.8778 42.0462C67.5132 42.0462 67.2054 42.1456 66.9545 42.3445C66.7059 42.541 66.5165 42.8073 66.3863 43.1435C66.2584 43.4796 66.1945 43.8572 66.1945 44.2763C66.1945 44.7 66.2596 45.0824 66.3898 45.4233C66.52 45.7642 66.7094 46.0353 66.958 46.2365C67.209 46.4354 67.5155 46.5348 67.8778 46.5348ZM74.1775 47.1136C73.6685 47.1136 73.2281 46.9953 72.8564 46.7585C72.4848 46.5194 72.1971 46.1892 71.9935 45.7678C71.7923 45.344 71.6917 44.8563 71.6917 44.3047C71.6917 43.7554 71.7923 43.2678 71.9935 42.8416C72.1971 42.4131 72.4777 42.0781 72.8351 41.8366C73.195 41.5928 73.6105 41.4709 74.0816 41.4709C74.3775 41.4709 74.6628 41.5253 74.9374 41.6342C75.212 41.7408 75.4582 41.9053 75.676 42.1278C75.8962 42.348 76.0702 42.6262 76.1981 42.9624C76.3259 43.2962 76.3898 43.6915 76.3898 44.1484V44.4609H72.1285V43.9034H75.7435C75.7435 43.553 75.6725 43.2382 75.5305 42.9588C75.3908 42.6771 75.1955 42.4545 74.9445 42.2912C74.6959 42.1278 74.4083 42.0462 74.0816 42.0462C73.7359 42.0462 73.4317 42.1385 73.1689 42.3232C72.9062 42.5078 72.7002 42.7517 72.551 43.0547C72.4043 43.3577 72.3297 43.6892 72.3273 44.049V44.3828C72.3273 44.8161 72.4019 45.1948 72.551 45.5192C72.7026 45.8411 72.9168 46.0909 73.1938 46.2685C73.4708 46.446 73.7987 46.5348 74.1775 46.5348C74.4355 46.5348 74.6616 46.4946 74.8557 46.4141C75.0522 46.3336 75.2168 46.2259 75.3493 46.0909C75.4843 45.9536 75.5861 45.8033 75.6547 45.6399L76.2549 45.8352C76.172 46.0649 76.0359 46.2768 75.8465 46.4709C75.6595 46.665 75.4251 46.8213 75.1434 46.9396C74.864 47.0556 74.5421 47.1136 74.1775 47.1136ZM79.9028 47.1136C79.4317 47.1136 79.015 46.9941 78.6528 46.755C78.2929 46.5159 78.0112 46.1856 77.8076 45.7642C77.604 45.3404 77.5022 44.8516 77.5022 44.2976C77.5022 43.7389 77.604 43.2476 77.8076 42.8239C78.0112 42.3977 78.2929 42.0663 78.6528 41.8295C79.015 41.5904 79.4317 41.4709 79.9028 41.4709C80.3739 41.4709 80.7894 41.5904 81.1492 41.8295C81.5091 42.0687 81.7908 42.4001 81.9944 42.8239C82.2004 43.2476 82.3034 43.7389 82.3034 44.2976C82.3034 44.8516 82.2016 45.3404 81.998 45.7642C81.7944 46.1856 81.5115 46.5159 81.1492 46.755C80.7894 46.9941 80.3739 47.1136 79.9028 47.1136ZM79.9028 46.5348C80.2816 46.5348 80.6024 46.433 80.8651 46.2294C81.1279 46.0258 81.3268 45.7547 81.4617 45.4162C81.599 45.0777 81.6677 44.7048 81.6677 44.2976C81.6677 43.8904 81.599 43.5163 81.4617 43.1754C81.3268 42.8345 81.1279 42.5611 80.8651 42.3551C80.6024 42.1491 80.2816 42.0462 79.9028 42.0462C79.5264 42.0462 79.2056 42.1491 78.9404 42.3551C78.6776 42.5611 78.4776 42.8345 78.3403 43.1754C78.2053 43.5163 78.1379 43.8904 78.1379 44.2976C78.1379 44.7048 78.2053 45.0777 78.3403 45.4162C78.4776 45.7547 78.6776 46.0258 78.9404 46.2294C79.2032 46.433 79.524 46.5348 79.9028 46.5348ZM22.2869 59V53.5455H22.9226V59H22.2869ZM22.6101 52.608C22.4799 52.608 22.3686 52.5642 22.2763 52.4766C22.1839 52.3866 22.1378 52.2789 22.1378 52.1534C22.1378 52.0279 22.1839 51.9214 22.2763 51.8338C22.3686 51.7438 22.4799 51.6989 22.6101 51.6989C22.7403 51.6989 22.8516 51.7438 22.9439 51.8338C23.0362 51.9214 23.0824 52.0279 23.0824 52.1534C23.0824 52.2789 23.0362 52.3866 22.9439 52.4766C22.8516 52.5642 22.7403 52.608 22.6101 52.608ZM25.2264 55.5909V59H24.5943V53.5455H25.2086V54.4013H25.2654C25.3933 54.1219 25.5922 53.8982 25.862 53.7301C26.1343 53.5597 26.4705 53.4744 26.8706 53.4744C27.2375 53.4744 27.5595 53.5514 27.8365 53.7053C28.1158 53.8568 28.3324 54.0805 28.4863 54.3764C28.6426 54.6723 28.7207 55.0357 28.7207 55.4666V59H28.0886V55.5057C28.0886 55.0582 27.9631 54.7043 27.7122 54.4439C27.4636 54.1835 27.1298 54.0533 26.7108 54.0533C26.4243 54.0533 26.1698 54.1148 25.9473 54.2379C25.7247 54.361 25.5484 54.5386 25.4181 54.7706C25.2903 55.0002 25.2264 55.2737 25.2264 55.5909ZM32.5337 53.5455V54.0959H29.9308V53.5455H32.5337ZM30.744 52.2386H31.3796V57.576C31.3796 57.8033 31.4187 57.982 31.4968 58.1122C31.5749 58.2401 31.6767 58.3312 31.8022 58.3857C31.9277 58.4377 32.0614 58.4638 32.2035 58.4638C32.2863 58.4638 32.3574 58.459 32.4165 58.4496C32.4757 58.4377 32.5278 58.4259 32.5728 58.4141L32.7077 58.9858C32.6462 59.0095 32.5704 59.0308 32.4805 59.0497C32.3905 59.071 32.2792 59.0817 32.1467 59.0817C31.9147 59.0817 31.6909 59.0308 31.4755 58.929C31.2624 58.8272 31.0872 58.6757 30.9499 58.4744C30.8126 58.2732 30.744 58.0234 30.744 57.7251V52.2386ZM33.9693 59V53.5455H34.5836V54.3835H34.6298C34.7387 54.1089 34.9281 53.8875 35.198 53.7195C35.4702 53.549 35.778 53.4638 36.1213 53.4638C36.1734 53.4638 36.2314 53.465 36.2953 53.4673C36.3592 53.4697 36.4125 53.4721 36.4551 53.4744V54.1172C36.4267 54.1125 36.377 54.1054 36.3059 54.0959C36.2349 54.0864 36.158 54.0817 36.0751 54.0817C35.791 54.0817 35.5377 54.142 35.3152 54.2628C35.095 54.3812 34.921 54.5457 34.7931 54.7564C34.6653 54.9671 34.6014 55.2074 34.6014 55.4773V59H33.9693ZM39.4877 59.1136C39.0166 59.1136 38.6 58.9941 38.2377 58.755C37.8779 58.5159 37.5962 58.1856 37.3926 57.7642C37.189 57.3404 37.0872 56.8516 37.0872 56.2976C37.0872 55.7389 37.189 55.2476 37.3926 54.8239C37.5962 54.3977 37.8779 54.0663 38.2377 53.8295C38.6 53.5904 39.0166 53.4709 39.4877 53.4709C39.9589 53.4709 40.3743 53.5904 40.7342 53.8295C41.094 54.0687 41.3758 54.4001 41.5794 54.8239C41.7853 55.2476 41.8883 55.7389 41.8883 56.2976C41.8883 56.8516 41.7865 57.3404 41.5829 57.7642C41.3793 58.1856 41.0964 58.5159 40.7342 58.755C40.3743 58.9941 39.9589 59.1136 39.4877 59.1136ZM39.4877 58.5348C39.8665 58.5348 40.1873 58.433 40.4501 58.2294C40.7129 58.0258 40.9118 57.7547 41.0467 57.4162C41.184 57.0777 41.2527 56.7048 41.2527 56.2976C41.2527 55.8904 41.184 55.5163 41.0467 55.1754C40.9118 54.8345 40.7129 54.5611 40.4501 54.3551C40.1873 54.1491 39.8665 54.0462 39.4877 54.0462C39.1113 54.0462 38.7905 54.1491 38.5254 54.3551C38.2626 54.5611 38.0626 54.8345 37.9252 55.1754C37.7903 55.5163 37.7228 55.8904 37.7228 56.2976C37.7228 56.7048 37.7903 57.0777 37.9252 57.4162C38.0626 57.7547 38.2626 58.0258 38.5254 58.2294C38.7882 58.433 39.109 58.5348 39.4877 58.5348ZM45.2397 59.1136C44.7923 59.1136 44.4004 58.9953 44.0643 58.7585C43.7281 58.5218 43.4653 58.1915 43.2759 57.7678C43.0889 57.344 42.9954 56.8504 42.9954 56.2869C42.9954 55.7259 43.0889 55.2346 43.2759 54.8132C43.4653 54.3894 43.7293 54.0604 44.0678 53.826C44.4064 53.5893 44.8005 53.4709 45.2504 53.4709C45.5818 53.4709 45.8576 53.5301 46.0778 53.6484C46.2979 53.7644 46.4743 53.9089 46.6069 54.0817C46.7395 54.2545 46.8424 54.4226 46.9158 54.5859H46.9727V51.7273H47.6083V59H46.9904V57.9879H46.9158C46.8424 58.1536 46.7383 58.3241 46.6033 58.4993C46.4684 58.6721 46.2897 58.8177 46.0671 58.9361C45.8469 59.0545 45.5711 59.1136 45.2397 59.1136ZM45.3143 58.5348C45.667 58.5348 45.9677 58.4389 46.2163 58.2472C46.4648 58.053 46.6542 57.7867 46.7844 57.4482C46.917 57.1072 46.9833 56.7166 46.9833 56.2763C46.9833 55.8407 46.9182 55.456 46.788 55.1222C46.6578 54.786 46.4684 54.5232 46.2198 54.3338C45.9712 54.142 45.6694 54.0462 45.3143 54.0462C44.9497 54.0462 44.6419 54.1456 44.391 54.3445C44.1424 54.541 43.953 54.8073 43.8228 55.1435C43.695 55.4796 43.631 55.8572 43.631 56.2763C43.631 56.7 43.6961 57.0824 43.8263 57.4233C43.9566 57.7642 44.146 58.0353 44.3945 58.2365C44.6455 58.4354 44.9521 58.5348 45.3143 58.5348ZM52.8746 56.9155V53.5455H53.5067V59H52.8746V58.0945H52.8249C52.6971 58.3738 52.4947 58.607 52.2177 58.794C51.9407 58.9787 51.6022 59.071 51.2021 59.071C50.854 59.071 50.5451 58.9953 50.2752 58.8438C50.0053 58.6899 49.7934 58.465 49.6396 58.169C49.4857 57.8731 49.4087 57.5097 49.4087 57.0788V53.5455H50.0408V57.0398C50.0408 57.4659 50.1663 57.8092 50.4173 58.0696C50.6682 58.3277 50.9902 58.4567 51.3832 58.4567C51.6294 58.4567 51.8661 58.3975 52.0934 58.2791C52.3207 58.1607 52.5077 57.9879 52.6545 57.7607C52.8013 57.531 52.8746 57.2493 52.8746 56.9155ZM57.3109 59.1136C56.8232 59.1136 56.3983 58.9917 56.036 58.7479C55.6762 58.504 55.3968 58.1702 55.198 57.7464C54.9991 57.3227 54.8997 56.8397 54.8997 56.2976C54.8997 55.7507 55.0003 55.2642 55.2015 54.8381C55.4051 54.4119 55.6868 54.0781 56.0467 53.8366C56.4065 53.5928 56.8244 53.4709 57.3002 53.4709C57.6648 53.4709 57.9951 53.5419 58.291 53.6839C58.5869 53.8236 58.8308 54.0213 59.0225 54.277C59.2167 54.5303 59.3386 54.8262 59.3883 55.1648H58.7491C58.6828 54.857 58.523 54.5942 58.2697 54.3764C58.0188 54.1562 57.6992 54.0462 57.3109 54.0462C56.9629 54.0462 56.6551 54.1409 56.3876 54.3303C56.1201 54.5173 55.9106 54.7789 55.7591 55.1151C55.6099 55.4489 55.5353 55.8359 55.5353 56.2763C55.5353 56.719 55.6087 57.1108 55.7555 57.4517C55.9023 57.7902 56.1083 58.0554 56.3734 58.2472C56.6409 58.4389 56.9534 58.5348 57.3109 58.5348C57.5524 58.5348 57.7725 58.4898 57.9714 58.3999C58.1726 58.3075 58.3407 58.1773 58.4757 58.0092C58.613 57.8411 58.7053 57.6411 58.7527 57.4091H59.3919C59.3445 57.7382 59.2273 58.0317 59.0403 58.2898C58.8556 58.5455 58.6154 58.7467 58.3194 58.8935C58.0259 59.0402 57.6897 59.1136 57.3109 59.1136ZM62.8951 53.5455V54.0959H60.2921V53.5455H62.8951ZM61.1053 52.2386H61.7409V57.576C61.7409 57.8033 61.78 57.982 61.8581 58.1122C61.9363 58.2401 62.0381 58.3312 62.1635 58.3857C62.289 58.4377 62.4228 58.4638 62.5648 58.4638C62.6477 58.4638 62.7187 58.459 62.7779 58.4496C62.8371 58.4377 62.8891 58.4259 62.9341 58.4141L63.0691 58.9858C63.0075 59.0095 62.9318 59.0308 62.8418 59.0497C62.7518 59.071 62.6406 59.0817 62.508 59.0817C62.276 59.0817 62.0523 59.0308 61.8368 58.929C61.6238 58.8272 61.4486 58.6757 61.3113 58.4744C61.1739 58.2732 61.1053 58.0234 61.1053 57.7251V52.2386ZM64.3377 59V53.5455H64.9734V59H64.3377ZM64.6609 52.608C64.5307 52.608 64.4194 52.5642 64.3271 52.4766C64.2347 52.3866 64.1886 52.2789 64.1886 52.1534C64.1886 52.0279 64.2347 51.9214 64.3271 51.8338C64.4194 51.7438 64.5307 51.6989 64.6609 51.6989C64.7911 51.6989 64.9023 51.7438 64.9947 51.8338C65.087 51.9214 65.1332 52.0279 65.1332 52.1534C65.1332 52.2789 65.087 52.3866 64.9947 52.4766C64.9023 52.5642 64.7911 52.608 64.6609 52.608ZM68.7651 59.1136C68.294 59.1136 67.8773 58.9941 67.5151 58.755C67.1552 58.5159 66.8735 58.1856 66.6699 57.7642C66.4663 57.3404 66.3645 56.8516 66.3645 56.2976C66.3645 55.7389 66.4663 55.2476 66.6699 54.8239C66.8735 54.3977 67.1552 54.0663 67.5151 53.8295C67.8773 53.5904 68.294 53.4709 68.7651 53.4709C69.2362 53.4709 69.6517 53.5904 70.0115 53.8295C70.3714 54.0687 70.6531 54.4001 70.8567 54.8239C71.0627 55.2476 71.1657 55.7389 71.1657 56.2976C71.1657 56.8516 71.0639 57.3404 70.8603 57.7642C70.6567 58.1856 70.3738 58.5159 70.0115 58.755C69.6517 58.9941 69.2362 59.1136 68.7651 59.1136ZM68.7651 58.5348C69.1439 58.5348 69.4647 58.433 69.7275 58.2294C69.9902 58.0258 70.1891 57.7547 70.324 57.4162C70.4614 57.0777 70.53 56.7048 70.53 56.2976C70.53 55.8904 70.4614 55.5163 70.324 55.1754C70.1891 54.8345 69.9902 54.5611 69.7275 54.3551C69.4647 54.1491 69.1439 54.0462 68.7651 54.0462C68.3887 54.0462 68.0679 54.1491 67.8027 54.3551C67.54 54.5611 67.3399 54.8345 67.2026 55.1754C67.0676 55.5163 67.0002 55.8904 67.0002 56.2976C67.0002 56.7048 67.0676 57.0777 67.2026 57.4162C67.3399 57.7547 67.54 58.0258 67.8027 58.2294C68.0655 58.433 68.3863 58.5348 68.7651 58.5348ZM73.1854 55.5909V59H72.5533V53.5455H73.1676V54.4013H73.2244C73.3523 54.1219 73.5511 53.8982 73.821 53.7301C74.0933 53.5597 74.4295 53.4744 74.8295 53.4744C75.1965 53.4744 75.5185 53.5514 75.7955 53.7053C76.0748 53.8568 76.2914 54.0805 76.4453 54.3764C76.6016 54.6723 76.6797 55.0357 76.6797 55.4666V59H76.0476V55.5057C76.0476 55.0582 75.9221 54.7043 75.6712 54.4439C75.4226 54.1835 75.0888 54.0533 74.6697 54.0533C74.3833 54.0533 74.1288 54.1148 73.9062 54.2379C73.6837 54.361 73.5073 54.5386 73.3771 54.7706C73.2493 55.0002 73.1854 55.2737 73.1854 55.5909ZM82.0091 54.7422L81.4302 54.9055C81.3734 54.7422 81.2929 54.5942 81.1887 54.4616C81.0846 54.3291 80.9484 54.2237 80.7804 54.1456C80.6146 54.0675 80.4087 54.0284 80.1625 54.0284C79.7931 54.0284 79.4901 54.116 79.2534 54.2912C79.0166 54.4664 78.8983 54.6925 78.8983 54.9695C78.8983 55.2038 78.9788 55.3944 79.1397 55.5412C79.3031 55.6856 79.554 55.8004 79.8926 55.8857L80.7164 56.0881C81.1734 56.1993 81.5154 56.3757 81.7427 56.6172C81.9724 56.8587 82.0872 57.1617 82.0872 57.5263C82.0872 57.834 82.002 58.1075 81.8315 58.3466C81.661 58.5857 81.4231 58.7739 81.1177 58.9112C80.8147 59.0462 80.4631 59.1136 80.063 59.1136C79.5304 59.1136 79.0912 58.9941 78.7456 58.755C78.3999 58.5135 78.1786 58.1655 78.0815 57.7109L78.6887 57.5618C78.7669 57.8861 78.9196 58.1312 79.1468 58.2969C79.3765 58.4626 79.6783 58.5455 80.0524 58.5455C80.4714 58.5455 80.8064 58.4519 81.0574 58.2649C81.3083 58.0755 81.4338 57.8388 81.4338 57.5547C81.4338 57.3345 81.3604 57.1499 81.2136 57.0007C81.0668 56.8492 80.8443 56.7379 80.546 56.6669L79.6547 56.4538C79.1812 56.3402 78.8308 56.1603 78.6035 55.9141C78.3762 55.6679 78.2626 55.3625 78.2626 54.9979C78.2626 54.6972 78.3443 54.4332 78.5076 54.206C78.671 53.9763 78.8959 53.7964 79.1824 53.6662C79.4688 53.536 79.7955 53.4709 80.1625 53.4709C80.662 53.4709 81.0609 53.5845 81.3592 53.8118C81.6599 54.0367 81.8765 54.3468 82.0091 54.7422ZM86.2908 59V53.5455H86.9265V59H86.2908ZM86.614 52.608C86.4838 52.608 86.3725 52.5642 86.2802 52.4766C86.1879 52.3866 86.1417 52.2789 86.1417 52.1534C86.1417 52.0279 86.1879 51.9214 86.2802 51.8338C86.3725 51.7438 86.4838 51.6989 86.614 51.6989C86.7442 51.6989 86.8555 51.7438 86.9478 51.8338C87.0401 51.9214 87.0863 52.0279 87.0863 52.1534C87.0863 52.2789 87.0401 52.3866 86.9478 52.4766C86.8555 52.5642 86.7442 52.608 86.614 52.608ZM89.2303 55.5909V59H88.5982V53.5455H89.2125V54.4013H89.2694C89.3972 54.1219 89.5961 53.8982 89.8659 53.7301C90.1382 53.5597 90.4744 53.4744 90.8745 53.4744C91.2414 53.4744 91.5634 53.5514 91.8404 53.7053C92.1197 53.8568 92.3364 54.0805 92.4902 54.3764C92.6465 54.6723 92.7246 55.0357 92.7246 55.4666V59H92.0925V55.5057C92.0925 55.0582 91.967 54.7043 91.7161 54.4439C91.4675 54.1835 91.1337 54.0533 90.7147 54.0533C90.4282 54.0533 90.1737 54.1148 89.9512 54.2379C89.7286 54.361 89.5523 54.5386 89.4221 54.7706C89.2942 55.0002 89.2303 55.2737 89.2303 55.5909ZM31.8728 71.1136C31.3638 71.1136 30.9234 70.9953 30.5518 70.7585C30.1801 70.5194 29.8924 70.1892 29.6888 69.7678C29.4876 69.344 29.387 68.8563 29.387 68.3047C29.387 67.7554 29.4876 67.2678 29.6888 66.8416C29.8924 66.4131 30.173 66.0781 30.5305 65.8366C30.8903 65.5928 31.3058 65.4709 31.7769 65.4709C32.0728 65.4709 32.3581 65.5253 32.6327 65.6342C32.9073 65.7408 33.1536 65.9053 33.3714 66.1278C33.5915 66.348 33.7655 66.6262 33.8934 66.9624C34.0212 67.2962 34.0851 67.6915 34.0851 68.1484V68.4609H29.8238V67.9034H33.4388C33.4388 67.553 33.3678 67.2382 33.2258 66.9588C33.0861 66.6771 32.8908 66.4545 32.6398 66.2912C32.3912 66.1278 32.1036 66.0462 31.7769 66.0462C31.4313 66.0462 31.127 66.1385 30.8643 66.3232C30.6015 66.5078 30.3955 66.7517 30.2464 67.0547C30.0996 67.3577 30.025 67.6892 30.0226 68.049V68.3828C30.0226 68.8161 30.0972 69.1948 30.2464 69.5192C30.3979 69.8411 30.6121 70.0909 30.8891 70.2685C31.1661 70.446 31.494 70.5348 31.8728 70.5348C32.1308 70.5348 32.3569 70.4946 32.551 70.4141C32.7475 70.3336 32.9121 70.2259 33.0447 70.0909C33.1796 69.9536 33.2814 69.8033 33.3501 69.6399L33.9502 69.8352C33.8673 70.0649 33.7312 70.2768 33.5418 70.4709C33.3548 70.665 33.1204 70.8213 32.8387 70.9396C32.5593 71.0556 32.2374 71.1136 31.8728 71.1136ZM37.0015 71.1243C36.6724 71.1243 36.3718 71.0604 36.0995 70.9325C35.8273 70.8023 35.6106 70.6153 35.4497 70.3714C35.2887 70.1252 35.2082 69.8269 35.2082 69.4766C35.2082 69.2067 35.2591 68.9794 35.3609 68.7947C35.4627 68.6101 35.6071 68.4586 35.7941 68.3402C35.9811 68.2218 36.2025 68.1283 36.4582 68.0597C36.7139 67.991 36.9956 67.9377 37.3034 67.8999C37.6088 67.862 37.8668 67.8288 38.0775 67.8004C38.2906 67.772 38.4527 67.727 38.564 67.6655C38.6753 67.6039 38.7309 67.5045 38.7309 67.3672V67.2393C38.7309 66.8677 38.6196 66.5753 38.3971 66.3622C38.1769 66.1468 37.8597 66.0391 37.4454 66.0391C37.0524 66.0391 36.7316 66.1255 36.483 66.2983C36.2368 66.4711 36.064 66.6747 35.9646 66.9091L35.3644 66.6925C35.4875 66.3942 35.658 66.1562 35.8758 65.9787C36.0936 65.7988 36.3374 65.6697 36.6073 65.5916C36.8772 65.5111 37.1507 65.4709 37.4276 65.4709C37.636 65.4709 37.8526 65.4981 38.0775 65.5526C38.3048 65.607 38.5155 65.7017 38.7096 65.8366C38.9037 65.9692 39.0612 66.1551 39.1819 66.3942C39.3026 66.6309 39.363 66.9316 39.363 67.2962V71H38.7309V70.1371H38.6919C38.6161 70.2981 38.5036 70.4543 38.3545 70.6058C38.2053 70.7573 38.0183 70.8816 37.7934 70.9787C37.5685 71.0758 37.3045 71.1243 37.0015 71.1243ZM37.0867 70.5455C37.4229 70.5455 37.7141 70.4709 37.9603 70.3217C38.2065 70.1726 38.3959 69.9749 38.5285 69.7287C38.6634 69.4801 38.7309 69.2067 38.7309 68.9084V68.12C38.6836 68.165 38.6043 68.2053 38.493 68.2408C38.3841 68.2763 38.2574 68.3082 38.113 68.3366C37.971 68.3627 37.8289 68.3852 37.6869 68.4041C37.5448 68.4231 37.417 68.4396 37.3034 68.4538C36.9956 68.4917 36.7328 68.5509 36.515 68.6314C36.2972 68.7119 36.1303 68.8232 36.0143 68.9652C35.8983 69.1049 35.8403 69.2848 35.8403 69.505C35.8403 69.8364 35.9587 70.0933 36.1954 70.2756C36.4321 70.4555 36.7293 70.5455 37.0867 70.5455ZM43.1752 71.1136C42.6875 71.1136 42.2625 70.9917 41.9003 70.7479C41.5405 70.504 41.2611 70.1702 41.0622 69.7464C40.8634 69.3227 40.7639 68.8397 40.7639 68.2976C40.7639 67.7507 40.8646 67.2642 41.0658 66.8381C41.2694 66.4119 41.5511 66.0781 41.911 65.8366C42.2708 65.5928 42.6887 65.4709 43.1645 65.4709C43.5291 65.4709 43.8593 65.5419 44.1553 65.6839C44.4512 65.8236 44.695 66.0213 44.8868 66.277C45.0809 66.5303 45.2029 66.8262 45.2526 67.1648H44.6134C44.5471 66.857 44.3873 66.5942 44.134 66.3764C43.883 66.1562 43.5634 66.0462 43.1752 66.0462C42.8271 66.0462 42.5194 66.1409 42.2519 66.3303C41.9843 66.5173 41.7748 66.7789 41.6233 67.1151C41.4742 67.4489 41.3996 67.8359 41.3996 68.2763C41.3996 68.719 41.473 69.1108 41.6198 69.4517C41.7665 69.7902 41.9725 70.0554 42.2377 70.2472C42.5052 70.4389 42.8177 70.5348 43.1752 70.5348C43.4166 70.5348 43.6368 70.4898 43.8357 70.3999C44.0369 70.3075 44.205 70.1773 44.3399 70.0092C44.4772 69.8411 44.5696 69.6411 44.6169 69.4091H45.2561C45.2088 69.7382 45.0916 70.0317 44.9046 70.2898C44.7199 70.5455 44.4796 70.7467 44.1837 70.8935C43.8901 71.0402 43.5539 71.1136 43.1752 71.1136ZM47.243 67.5909V71H46.6109V63.7273H47.243V66.4013H47.2998C47.4276 66.1196 47.6253 65.8946 47.8928 65.7266C48.1627 65.5585 48.5036 65.4744 48.9156 65.4744C49.2849 65.4744 49.6092 65.5502 49.8886 65.7017C50.1679 65.8532 50.3857 66.0769 50.542 66.3729C50.6982 66.6688 50.7764 67.0334 50.7764 67.4666V71H50.1407V67.5057C50.1407 67.0559 50.0152 66.7019 49.7643 66.4439C49.5157 66.1835 49.1795 66.0533 48.7558 66.0533C48.4646 66.0533 48.2053 66.1148 47.9781 66.2379C47.7508 66.361 47.5709 66.5386 47.4383 66.7706C47.3081 67.0002 47.243 67.2737 47.243 67.5909ZM57.3841 71.1136C56.8965 71.1136 56.4715 70.9917 56.1093 70.7479C55.7494 70.504 55.4701 70.1702 55.2712 69.7464C55.0724 69.3227 54.9729 68.8397 54.9729 68.2976C54.9729 67.7507 55.0735 67.2642 55.2748 66.8381C55.4784 66.4119 55.7601 66.0781 56.1199 65.8366C56.4798 65.5928 56.8976 65.4709 57.3735 65.4709C57.7381 65.4709 58.0683 65.5419 58.3643 65.6839C58.6602 65.8236 58.904 66.0213 59.0958 66.277C59.2899 66.5303 59.4118 66.8262 59.4616 67.1648H58.8224C58.7561 66.857 58.5963 66.5942 58.343 66.3764C58.092 66.1562 57.7724 66.0462 57.3841 66.0462C57.0361 66.0462 56.7284 66.1409 56.4608 66.3303C56.1933 66.5173 55.9838 66.7789 55.8323 67.1151C55.6831 67.4489 55.6086 67.8359 55.6086 68.2763C55.6086 68.719 55.682 69.1108 55.8287 69.4517C55.9755 69.7902 56.1815 70.0554 56.4466 70.2472C56.7142 70.4389 57.0267 70.5348 57.3841 70.5348C57.6256 70.5348 57.8458 70.4898 58.0447 70.3999C58.2459 70.3075 58.414 70.1773 58.5489 70.0092C58.6862 69.8411 58.7786 69.6411 58.8259 69.4091H59.4651C59.4178 69.7382 59.3006 70.0317 59.1135 70.2898C58.9289 70.5455 58.6886 70.7467 58.3927 70.8935C58.0991 71.0402 57.7629 71.1136 57.3841 71.1136ZM62.9399 71.1136C62.4688 71.1136 62.0521 70.9941 61.6899 70.755C61.33 70.5159 61.0483 70.1856 60.8447 69.7642C60.6411 69.3404 60.5393 68.8516 60.5393 68.2976C60.5393 67.7389 60.6411 67.2476 60.8447 66.8239C61.0483 66.3977 61.33 66.0663 61.6899 65.8295C62.0521 65.5904 62.4688 65.4709 62.9399 65.4709C63.411 65.4709 63.8265 65.5904 64.1863 65.8295C64.5462 66.0687 64.8279 66.4001 65.0315 66.8239C65.2375 67.2476 65.3405 67.7389 65.3405 68.2976C65.3405 68.8516 65.2387 69.3404 65.0351 69.7642C64.8315 70.1856 64.5486 70.5159 64.1863 70.755C63.8265 70.9941 63.411 71.1136 62.9399 71.1136ZM62.9399 70.5348C63.3187 70.5348 63.6395 70.433 63.9023 70.2294C64.165 70.0258 64.3639 69.7547 64.4988 69.4162C64.6362 69.0777 64.7048 68.7048 64.7048 68.2976C64.7048 67.8904 64.6362 67.5163 64.4988 67.1754C64.3639 66.8345 64.165 66.5611 63.9023 66.3551C63.6395 66.1491 63.3187 66.0462 62.9399 66.0462C62.5635 66.0462 62.2427 66.1491 61.9775 66.3551C61.7148 66.5611 61.5147 66.8345 61.3774 67.1754C61.2425 67.5163 61.175 67.8904 61.175 68.2976C61.175 68.7048 61.2425 69.0777 61.3774 69.4162C61.5147 69.7547 61.7148 70.0258 61.9775 70.2294C62.2403 70.433 62.5611 70.5348 62.9399 70.5348ZM70.194 68.9155V65.5455H70.8261V71H70.194V70.0945H70.1443C70.0164 70.3738 69.814 70.607 69.537 70.794C69.26 70.9787 68.9215 71.071 68.5214 71.071C68.1734 71.071 67.8644 70.9953 67.5945 70.8438C67.3247 70.6899 67.1128 70.465 66.9589 70.169C66.805 69.8731 66.7281 69.5097 66.7281 69.0788V65.5455H67.3602V69.0398C67.3602 69.4659 67.4856 69.8092 67.7366 70.0696C67.9875 70.3277 68.3095 70.4567 68.7025 70.4567C68.9487 70.4567 69.1855 70.3975 69.4127 70.2791C69.64 70.1607 69.827 69.9879 69.9738 69.7607C70.1206 69.531 70.194 69.2493 70.194 68.9155ZM72.4996 71V65.5455H73.1139V66.3835H73.1601C73.269 66.1089 73.4584 65.8875 73.7282 65.7195C74.0005 65.549 74.3083 65.4638 74.6515 65.4638C74.7036 65.4638 74.7616 65.465 74.8256 65.4673C74.8895 65.4697 74.9427 65.4721 74.9854 65.4744V66.1172C74.9569 66.1125 74.9072 66.1054 74.8362 66.0959C74.7652 66.0864 74.6882 66.0817 74.6054 66.0817C74.3213 66.0817 74.068 66.142 73.8454 66.2628C73.6253 66.3812 73.4513 66.5457 73.3234 66.7564C73.1956 66.9671 73.1317 67.2074 73.1317 67.4773V71H72.4996ZM79.7288 66.7422L79.1499 66.9055C79.0931 66.7422 79.0126 66.5942 78.9085 66.4616C78.8043 66.3291 78.6682 66.2237 78.5001 66.1456C78.3344 66.0675 78.1284 66.0284 77.8822 66.0284C77.5129 66.0284 77.2098 66.116 76.9731 66.2912C76.7364 66.4664 76.618 66.6925 76.618 66.9695C76.618 67.2038 76.6985 67.3944 76.8595 67.5412C77.0228 67.6856 77.2738 67.8004 77.6123 67.8857L78.4362 68.0881C78.8931 68.1993 79.2352 68.3757 79.4624 68.6172C79.6921 68.8587 79.8069 69.1617 79.8069 69.5263C79.8069 69.834 79.7217 70.1075 79.5512 70.3466C79.3808 70.5857 79.1428 70.7739 78.8374 70.9112C78.5344 71.0462 78.1829 71.1136 77.7828 71.1136C77.2501 71.1136 76.8109 70.9941 76.4653 70.755C76.1196 70.5135 75.8983 70.1655 75.8012 69.7109L76.4085 69.5618C76.4866 69.8861 76.6393 70.1312 76.8666 70.2969C77.0962 70.4626 77.3981 70.5455 77.7721 70.5455C78.1911 70.5455 78.5261 70.4519 78.7771 70.2649C79.028 70.0755 79.1535 69.8388 79.1535 69.5547C79.1535 69.3345 79.0801 69.1499 78.9333 69.0007C78.7865 68.8492 78.564 68.7379 78.2657 68.6669L77.3744 68.4538C76.9009 68.3402 76.5505 68.1603 76.3232 67.9141C76.096 67.6679 75.9823 67.3625 75.9823 66.9979C75.9823 66.6972 76.064 66.4332 76.2274 66.206C76.3907 65.9763 76.6156 65.7964 76.9021 65.6662C77.1885 65.536 77.5152 65.4709 77.8822 65.4709C78.3817 65.4709 78.7806 65.5845 79.0789 65.8118C79.3796 66.0367 79.5962 66.3468 79.7288 66.7422ZM83.3962 71.1136C82.8872 71.1136 82.4469 70.9953 82.0752 70.7585C81.7035 70.5194 81.4159 70.1892 81.2123 69.7678C81.011 69.344 80.9104 68.8563 80.9104 68.3047C80.9104 67.7554 81.011 67.2678 81.2123 66.8416C81.4159 66.4131 81.6964 66.0781 82.0539 65.8366C82.4137 65.5928 82.8292 65.4709 83.3003 65.4709C83.5963 65.4709 83.8815 65.5253 84.1562 65.6342C84.4308 65.7408 84.677 65.9053 84.8948 66.1278C85.115 66.348 85.289 66.6262 85.4168 66.9624C85.5447 67.2962 85.6086 67.6915 85.6086 68.1484V68.4609H81.3472V67.9034H84.9623C84.9623 67.553 84.8912 67.2382 84.7492 66.9588C84.6095 66.6771 84.4142 66.4545 84.1633 66.2912C83.9147 66.1278 83.627 66.0462 83.3003 66.0462C82.9547 66.0462 82.6505 66.1385 82.3877 66.3232C82.1249 66.5078 81.9189 66.7517 81.7698 67.0547C81.623 67.3577 81.5484 67.6892 81.5461 68.049V68.3828C81.5461 68.8161 81.6206 69.1948 81.7698 69.5192C81.9213 69.8411 82.1356 70.0909 82.4126 70.2685C82.6895 70.446 83.0174 70.5348 83.3962 70.5348C83.6543 70.5348 83.8804 70.4946 84.0745 70.4141C84.271 70.3336 84.4355 70.2259 84.5681 70.0909C84.703 69.9536 84.8048 69.8033 84.8735 69.6399L85.4736 69.8352C85.3908 70.0649 85.2546 70.2768 85.0653 70.4709C84.8782 70.665 84.6439 70.8213 84.3621 70.9396C84.0828 71.0556 83.7608 71.1136 83.3962 71.1136Z" fill="#222222"/>
</svg>
