<svg width="110" height="110" viewBox="0 0 110 110" fill="none" xmlns="http://www.w3.org/2000/svg">
<rect width="110" height="110" fill="#F8E8B2"/>
<path d="M19.4598 44.7273V52H18.8277V44.7273H19.4598ZM21.1395 52V46.5455H21.7751V52H21.1395ZM21.4626 45.608C21.3324 45.608 21.2211 45.5642 21.1288 45.4766C21.0365 45.3866 20.9903 45.2789 20.9903 45.1534C20.9903 45.0279 21.0365 44.9214 21.1288 44.8338C21.2211 44.7438 21.3324 44.6989 21.4626 44.6989C21.5928 44.6989 21.7041 44.7438 21.7964 44.8338C21.8888 44.9214 21.9349 45.0279 21.9349 45.1534C21.9349 45.2789 21.8888 45.3866 21.7964 45.4766C21.7041 45.5642 21.5928 45.608 21.4626 45.608ZM27.6691 46.5455L25.6769 52H25.0022L23.01 46.5455H23.6954L25.3147 51.1655H25.3644L26.9838 46.5455H27.6691ZM30.9157 52.1136C30.4068 52.1136 29.9664 51.9953 29.5947 51.7585C29.223 51.5194 28.9354 51.1892 28.7318 50.7678C28.5306 50.344 28.43 49.8563 28.43 49.3047C28.43 48.7554 28.5306 48.2678 28.7318 47.8416C28.9354 47.4131 29.2159 47.0781 29.5734 46.8366C29.9333 46.5928 30.3488 46.4709 30.8199 46.4709C31.1158 46.4709 31.4011 46.5253 31.6757 46.6342C31.9503 46.7408 32.1965 46.9053 32.4143 47.1278C32.6345 47.348 32.8085 47.6262 32.9363 47.9624C33.0642 48.2962 33.1281 48.6915 33.1281 49.1484V49.4609H28.8667V48.9034H32.4818C32.4818 48.553 32.4108 48.2382 32.2687 47.9588C32.1291 47.6771 31.9337 47.4545 31.6828 47.2912C31.4342 47.1278 31.1466 47.0462 30.8199 47.0462C30.4742 47.0462 30.17 47.1385 29.9072 47.3232C29.6444 47.5078 29.4385 47.7517 29.2893 48.0547C29.1425 48.3577 29.068 48.6892 29.0656 49.049V49.3828C29.0656 49.8161 29.1402 50.1948 29.2893 50.5192C29.4408 50.8411 29.6551 51.0909 29.9321 51.2685C30.2091 51.446 30.537 51.5348 30.9157 51.5348C31.1738 51.5348 31.3999 51.4946 31.594 51.4141C31.7905 51.3336 31.955 51.2259 32.0876 51.0909C32.2226 50.9536 32.3244 50.8033 32.393 50.6399L32.9932 50.8352C32.9103 51.0649 32.7742 51.2768 32.5848 51.4709C32.3978 51.665 32.1634 51.8213 31.8817 51.9396C31.6023 52.0556 31.2803 52.1136 30.9157 52.1136ZM39.4642 52.1136C38.9765 52.1136 38.5516 51.9917 38.1894 51.7479C37.8295 51.504 37.5502 51.1702 37.3513 50.7464C37.1524 50.3227 37.053 49.8397 37.053 49.2976C37.053 48.7507 37.1536 48.2642 37.3548 47.8381C37.5584 47.4119 37.8402 47.0781 38.2 46.8366C38.5599 46.5928 38.9777 46.4709 39.4536 46.4709C39.8182 46.4709 40.1484 46.5419 40.4443 46.6839C40.7403 46.8236 40.9841 47.0213 41.1759 47.277C41.37 47.5303 41.4919 47.8262 41.5416 48.1648H40.9024C40.8361 47.857 40.6763 47.5942 40.423 47.3764C40.1721 47.1562 39.8525 47.0462 39.4642 47.0462C39.1162 47.0462 38.8084 47.1409 38.5409 47.3303C38.2734 47.5173 38.0639 47.7789 37.9124 48.1151C37.7632 48.4489 37.6887 48.8359 37.6887 49.2763C37.6887 49.719 37.762 50.1108 37.9088 50.4517C38.0556 50.7902 38.2616 51.0554 38.5267 51.2472C38.7942 51.4389 39.1067 51.5348 39.4642 51.5348C39.7057 51.5348 39.9259 51.4898 40.1247 51.3999C40.326 51.3075 40.4941 51.1773 40.629 51.0092C40.7663 50.8411 40.8586 50.6411 40.906 50.4091H41.5452C41.4978 50.7382 41.3807 51.0317 41.1936 51.2898C41.009 51.5455 40.7687 51.7467 40.4727 51.8935C40.1792 52.0402 39.843 52.1136 39.4642 52.1136ZM43.532 44.7273V52H42.8999V44.7273H43.532ZM46.7281 52.1243C46.399 52.1243 46.0983 52.0604 45.8261 51.9325C45.5538 51.8023 45.3372 51.6153 45.1762 51.3714C45.0152 51.1252 44.9347 50.8269 44.9347 50.4766C44.9347 50.2067 44.9856 49.9794 45.0874 49.7947C45.1892 49.6101 45.3337 49.4586 45.5207 49.3402C45.7077 49.2218 45.9291 49.1283 46.1847 49.0597C46.4404 48.991 46.7222 48.9377 47.0299 48.8999C47.3353 48.862 47.5934 48.8288 47.8041 48.8004C48.0171 48.772 48.1793 48.727 48.2906 48.6655C48.4018 48.6039 48.4575 48.5045 48.4575 48.3672V48.2393C48.4575 47.8677 48.3462 47.5753 48.1237 47.3622C47.9035 47.1468 47.5863 47.0391 47.172 47.0391C46.779 47.0391 46.4582 47.1255 46.2096 47.2983C45.9634 47.4711 45.7906 47.6747 45.6911 47.9091L45.091 47.6925C45.2141 47.3942 45.3846 47.1562 45.6024 46.9787C45.8202 46.7988 46.064 46.6697 46.3339 46.5916C46.6038 46.5111 46.8772 46.4709 47.1542 46.4709C47.3625 46.4709 47.5792 46.4981 47.8041 46.5526C48.0313 46.607 48.242 46.7017 48.4362 46.8366C48.6303 46.9692 48.7877 47.1551 48.9085 47.3942C49.0292 47.6309 49.0896 47.9316 49.0896 48.2962V52H48.4575V51.1371H48.4184C48.3427 51.2981 48.2302 51.4543 48.0811 51.6058C47.9319 51.7573 47.7449 51.8816 47.52 51.9787C47.2951 52.0758 47.0311 52.1243 46.7281 52.1243ZM46.8133 51.5455C47.1495 51.5455 47.4407 51.4709 47.6869 51.3217C47.9331 51.1726 48.1225 50.9749 48.2551 50.7287C48.39 50.4801 48.4575 50.2067 48.4575 49.9084V49.12C48.4101 49.165 48.3308 49.2053 48.2195 49.2408C48.1106 49.2763 47.984 49.3082 47.8396 49.3366C47.6975 49.3627 47.5555 49.3852 47.4134 49.4041C47.2714 49.4231 47.1436 49.4396 47.0299 49.4538C46.7222 49.4917 46.4594 49.5509 46.2416 49.6314C46.0238 49.7119 45.8569 49.8232 45.7409 49.9652C45.6249 50.1049 45.5669 50.2848 45.5669 50.505C45.5669 50.8364 45.6852 51.0933 45.922 51.2756C46.1587 51.4555 46.4558 51.5455 46.8133 51.5455ZM54.4358 47.7422L53.857 47.9055C53.8002 47.7422 53.7197 47.5942 53.6155 47.4616C53.5113 47.3291 53.3752 47.2237 53.2071 47.1456C53.0414 47.0675 52.8354 47.0284 52.5892 47.0284C52.2199 47.0284 51.9169 47.116 51.6801 47.2912C51.4434 47.4664 51.325 47.6925 51.325 47.9695C51.325 48.2038 51.4055 48.3944 51.5665 48.5412C51.7298 48.6856 51.9808 48.8004 52.3193 48.8857L53.1432 49.0881C53.6001 49.1993 53.9422 49.3757 54.1695 49.6172C54.3991 49.8587 54.5139 50.1617 54.5139 50.5263C54.5139 50.834 54.4287 51.1075 54.2583 51.3466C54.0878 51.5857 53.8499 51.7739 53.5445 51.9112C53.2414 52.0462 52.8899 52.1136 52.4898 52.1136C51.9571 52.1136 51.518 51.9941 51.1723 51.755C50.8267 51.5135 50.6053 51.1655 50.5083 50.7109L51.1155 50.5618C51.1936 50.8861 51.3463 51.1312 51.5736 51.2969C51.8032 51.4626 52.1051 51.5455 52.4791 51.5455C52.8982 51.5455 53.2332 51.4519 53.4841 51.2649C53.7351 51.0755 53.8605 50.8388 53.8605 50.5547C53.8605 50.3345 53.7871 50.1499 53.6404 50.0007C53.4936 49.8492 53.271 49.7379 52.9727 49.6669L52.0814 49.4538C51.6079 49.3402 51.2575 49.1603 51.0303 48.9141C50.803 48.6679 50.6894 48.3625 50.6894 47.9979C50.6894 47.6972 50.771 47.4332 50.9344 47.206C51.0977 46.9763 51.3227 46.7964 51.6091 46.6662C51.8956 46.536 52.2223 46.4709 52.5892 46.4709C53.0887 46.4709 53.4877 46.5845 53.786 46.8118C54.0866 47.0367 54.3032 47.3468 54.4358 47.7422ZM59.5628 47.7422L58.9839 47.9055C58.9271 47.7422 58.8466 47.5942 58.7425 47.4616C58.6383 47.3291 58.5022 47.2237 58.3341 47.1456C58.1684 47.0675 57.9624 47.0284 57.7162 47.0284C57.3469 47.0284 57.0438 47.116 56.8071 47.2912C56.5703 47.4664 56.452 47.6925 56.452 47.9695C56.452 48.2038 56.5325 48.3944 56.6934 48.5412C56.8568 48.6856 57.1077 48.8004 57.4463 48.8857L58.2702 49.0881C58.7271 49.1993 59.0692 49.3757 59.2964 49.6172C59.5261 49.8587 59.6409 50.1617 59.6409 50.5263C59.6409 50.834 59.5557 51.1075 59.3852 51.3466C59.2148 51.5857 58.9768 51.7739 58.6714 51.9112C58.3684 52.0462 58.0168 52.1136 57.6167 52.1136C57.0841 52.1136 56.6449 51.9941 56.2993 51.755C55.9536 51.5135 55.7323 51.1655 55.6352 50.7109L56.2425 50.5618C56.3206 50.8861 56.4733 51.1312 56.7006 51.2969C56.9302 51.4626 57.232 51.5455 57.6061 51.5455C58.0251 51.5455 58.3601 51.4519 58.6111 51.2649C58.862 51.0755 58.9875 50.8388 58.9875 50.5547C58.9875 50.3345 58.9141 50.1499 58.7673 50.0007C58.6205 49.8492 58.398 49.7379 58.0997 49.6669L57.2084 49.4538C56.7349 49.3402 56.3845 49.1603 56.1572 48.9141C55.93 48.6679 55.8163 48.3625 55.8163 47.9979C55.8163 47.6972 55.898 47.4332 56.0613 47.206C56.2247 46.9763 56.4496 46.7964 56.7361 46.6662C57.0225 46.536 57.3492 46.4709 57.7162 46.4709C58.2157 46.4709 58.6146 46.5845 58.9129 46.8118C59.2136 47.0367 59.4302 47.3468 59.5628 47.7422ZM63.2302 52.1136C62.7212 52.1136 62.2809 51.9953 61.9092 51.7585C61.5375 51.5194 61.2499 51.1892 61.0463 50.7678C60.845 50.344 60.7444 49.8563 60.7444 49.3047C60.7444 48.7554 60.845 48.2678 61.0463 47.8416C61.2499 47.4131 61.5304 47.0781 61.8879 46.8366C62.2477 46.5928 62.6632 46.4709 63.1343 46.4709C63.4302 46.4709 63.7155 46.5253 63.9901 46.6342C64.2648 46.7408 64.511 46.9053 64.7288 47.1278C64.949 47.348 65.123 47.6262 65.2508 47.9624C65.3786 48.2962 65.4426 48.6915 65.4426 49.1484V49.4609H61.1812V48.9034H64.7963C64.7963 48.553 64.7252 48.2382 64.5832 47.9588C64.4435 47.6771 64.2482 47.4545 63.9972 47.2912C63.7487 47.1278 63.461 47.0462 63.1343 47.0462C62.7887 47.0462 62.4845 47.1385 62.2217 47.3232C61.9589 47.5078 61.7529 47.7517 61.6038 48.0547C61.457 48.3577 61.3824 48.6892 61.3801 49.049V49.3828C61.3801 49.8161 61.4546 50.1948 61.6038 50.5192C61.7553 50.8411 61.9695 51.0909 62.2465 51.2685C62.5235 51.446 62.8514 51.5348 63.2302 51.5348C63.4883 51.5348 63.7143 51.4946 63.9085 51.4141C64.105 51.3336 64.2695 51.2259 64.4021 51.0909C64.537 50.9536 64.6388 50.8033 64.7075 50.6399L65.3076 50.8352C65.2248 51.0649 65.0886 51.2768 64.8992 51.4709C64.7122 51.665 64.4778 51.8213 64.1961 51.9396C63.9168 52.0556 63.5948 52.1136 63.2302 52.1136ZM70.5003 47.7422L69.9214 47.9055C69.8646 47.7422 69.7841 47.5942 69.68 47.4616C69.5758 47.3291 69.4397 47.2237 69.2716 47.1456C69.1059 47.0675 68.8999 47.0284 68.6537 47.0284C68.2844 47.0284 67.9813 47.116 67.7446 47.2912C67.5078 47.4664 67.3895 47.6925 67.3895 47.9695C67.3895 48.2038 67.47 48.3944 67.6309 48.5412C67.7943 48.6856 68.0452 48.8004 68.3838 48.8857L69.2077 49.0881C69.6646 49.1993 70.0067 49.3757 70.2339 49.6172C70.4636 49.8587 70.5784 50.1617 70.5784 50.5263C70.5784 50.834 70.4932 51.1075 70.3227 51.3466C70.1523 51.5857 69.9143 51.7739 69.6089 51.9112C69.3059 52.0462 68.9543 52.1136 68.5542 52.1136C68.0216 52.1136 67.5824 51.9941 67.2368 51.755C66.8911 51.5135 66.6698 51.1655 66.5727 50.7109L67.18 50.5618C67.2581 50.8861 67.4108 51.1312 67.6381 51.2969C67.8677 51.4626 68.1695 51.5455 68.5436 51.5455C68.9626 51.5455 69.2976 51.4519 69.5486 51.2649C69.7995 51.0755 69.925 50.8388 69.925 50.5547C69.925 50.3345 69.8516 50.1499 69.7048 50.0007C69.558 49.8492 69.3355 49.7379 69.0372 49.6669L68.1459 49.4538C67.6724 49.3402 67.322 49.1603 67.0947 48.9141C66.8675 48.6679 66.7538 48.3625 66.7538 47.9979C66.7538 47.6972 66.8355 47.4332 66.9988 47.206C67.1622 46.9763 67.3871 46.7964 67.6736 46.6662C67.96 46.536 68.2867 46.4709 68.6537 46.4709C69.1532 46.4709 69.5521 46.5845 69.8504 46.8118C70.1511 47.0367 70.3677 47.3468 70.5003 47.7422ZM74.7749 52V46.5455H75.3893V47.3835H75.4461C75.555 47.1018 75.7361 46.8804 75.9894 46.7195C76.2451 46.5561 76.5517 46.4744 76.9092 46.4744C77.2856 46.4744 77.5945 46.5632 77.836 46.7408C78.0799 46.916 78.2622 47.1574 78.3829 47.4652H78.4291C78.5522 47.1622 78.7522 46.9219 79.0292 46.7443C79.3086 46.5644 79.6471 46.4744 80.0448 46.4744C80.5515 46.4744 80.9516 46.6342 81.2451 46.9538C81.5387 47.2711 81.6855 47.7351 81.6855 48.3459V52H81.0534V48.3459C81.0534 47.915 80.9433 47.5919 80.7231 47.3764C80.5029 47.161 80.2129 47.0533 79.8531 47.0533C79.4364 47.0533 79.1156 47.1811 78.8907 47.4368C78.6658 47.6925 78.5534 48.0168 78.5534 48.4098V52H77.907V48.2891C77.907 47.9197 77.8041 47.6214 77.5981 47.3942C77.3921 47.1669 77.1021 47.0533 76.7281 47.0533C76.4771 47.0533 76.251 47.1148 76.0498 47.2379C75.8509 47.361 75.6935 47.5327 75.5775 47.7528C75.4639 47.9706 75.407 48.2216 75.407 48.5057V52H74.7749ZM86.8248 49.9155V46.5455H87.4569V52H86.8248V51.0945H86.7751C86.6473 51.3738 86.4449 51.607 86.1679 51.794C85.8909 51.9787 85.5523 52.071 85.1523 52.071C84.8042 52.071 84.4953 51.9953 84.2254 51.8438C83.9555 51.6899 83.7436 51.465 83.5898 51.169C83.4359 50.8731 83.3589 50.5097 83.3589 50.0788V46.5455H83.991V50.0398C83.991 50.4659 84.1165 50.8092 84.3675 51.0696C84.6184 51.3277 84.9404 51.4567 85.3334 51.4567C85.5796 51.4567 85.8163 51.3975 86.0436 51.2791C86.2709 51.1607 86.4579 50.9879 86.6047 50.7607C86.7515 50.531 86.8248 50.2493 86.8248 49.9155ZM92.7952 47.7422L92.2164 47.9055C92.1595 47.7422 92.079 47.5942 91.9749 47.4616C91.8707 47.3291 91.7346 47.2237 91.5665 47.1456C91.4008 47.0675 91.1948 47.0284 90.9486 47.0284C90.5793 47.0284 90.2762 47.116 90.0395 47.2912C89.8028 47.4664 89.6844 47.6925 89.6844 47.9695C89.6844 48.2038 89.7649 48.3944 89.9259 48.5412C90.0892 48.6856 90.3402 48.8004 90.6787 48.8857L91.5026 49.0881C91.9595 49.1993 92.3016 49.3757 92.5289 49.6172C92.7585 49.8587 92.8733 50.1617 92.8733 50.5263C92.8733 50.834 92.7881 51.1075 92.6176 51.3466C92.4472 51.5857 92.2093 51.7739 91.9039 51.9112C91.6008 52.0462 91.2493 52.1136 90.8492 52.1136C90.3165 52.1136 89.8773 51.9941 89.5317 51.755C89.186 51.5135 88.9647 51.1655 88.8676 50.7109L89.4749 50.5618C89.553 50.8861 89.7057 51.1312 89.933 51.2969C90.1626 51.4626 90.4645 51.5455 90.8385 51.5455C91.2575 51.5455 91.5925 51.4519 91.8435 51.2649C92.0944 51.0755 92.2199 50.8388 92.2199 50.5547C92.2199 50.3345 92.1465 50.1499 91.9997 50.0007C91.853 49.8492 91.6304 49.7379 91.3321 49.6669L90.4408 49.4538C89.9673 49.3402 89.6169 49.1603 89.3896 48.9141C89.1624 48.6679 89.0487 48.3625 89.0487 47.9979C89.0487 47.6972 89.1304 47.4332 89.2938 47.206C89.4571 46.9763 89.682 46.7964 89.9685 46.6662C90.2549 46.536 90.5816 46.4709 90.9486 46.4709C91.4481 46.4709 91.847 46.5845 92.1453 46.8118C92.446 47.0367 92.6626 47.3468 92.7952 47.7422ZM96.4058 46.5455V47.0959H93.8028V46.5455H96.4058ZM94.616 45.2386H95.2517V50.576C95.2517 50.8033 95.2907 50.982 95.3689 51.1122C95.447 51.2401 95.5488 51.3312 95.6743 51.3857C95.7997 51.4377 95.9335 51.4638 96.0756 51.4638C96.1584 51.4638 96.2294 51.459 96.2886 51.4496C96.3478 51.4377 96.3999 51.4259 96.4449 51.4141L96.5798 51.9858C96.5183 52.0095 96.4425 52.0308 96.3525 52.0497C96.2626 52.071 96.1513 52.0817 96.0187 52.0817C95.7867 52.0817 95.563 52.0308 95.3476 51.929C95.1345 51.8272 94.9593 51.6757 94.822 51.4744C94.6847 51.2732 94.616 51.0234 94.616 50.7251V45.2386ZM30.0089 64V56.7273H30.6445V59.5859H30.7013C30.7724 59.4226 30.8742 59.2545 31.0067 59.0817C31.1417 58.9089 31.3181 58.7644 31.5359 58.6484C31.756 58.5301 32.033 58.4709 32.3668 58.4709C32.8143 58.4709 33.2073 58.5893 33.5458 58.826C33.8844 59.0604 34.1483 59.3894 34.3377 59.8132C34.5271 60.2346 34.6218 60.7259 34.6218 61.2869C34.6218 61.8504 34.5271 62.344 34.3377 62.7678C34.1507 63.1915 33.8879 63.5218 33.5494 63.7585C33.2132 63.9953 32.8226 64.1136 32.3775 64.1136C32.046 64.1136 31.7691 64.0545 31.5465 63.9361C31.3263 63.8177 31.1488 63.6721 31.0138 63.4993C30.8789 63.3241 30.7747 63.1536 30.7013 62.9879H30.6232V64H30.0089ZM30.6339 61.2763C30.6339 61.7166 30.699 62.1072 30.8292 62.4482C30.9618 62.7867 31.1512 63.053 31.3974 63.2472C31.646 63.4389 31.9466 63.5348 32.2994 63.5348C32.6616 63.5348 32.9682 63.4354 33.2191 63.2365C33.4701 63.0353 33.6606 62.7642 33.7908 62.4233C33.921 62.0824 33.9862 61.7 33.9862 61.2763C33.9862 60.8572 33.921 60.4796 33.7908 60.1435C33.663 59.8073 33.4736 59.541 33.2227 59.3445C32.9717 59.1456 32.6639 59.0462 32.2994 59.0462C31.9442 59.0462 31.6424 59.142 31.3938 59.3338C31.1476 59.5232 30.9594 59.786 30.8292 60.1222C30.699 60.456 30.6339 60.8407 30.6339 61.2763ZM38.2156 64.1136C37.7066 64.1136 37.2662 63.9953 36.8945 63.7585C36.5228 63.5194 36.2352 63.1892 36.0316 62.7678C35.8304 62.344 35.7298 61.8563 35.7298 61.3047C35.7298 60.7554 35.8304 60.2678 36.0316 59.8416C36.2352 59.4131 36.5157 59.0781 36.8732 58.8366C37.2331 58.5928 37.6486 58.4709 38.1197 58.4709C38.4156 58.4709 38.7009 58.5253 38.9755 58.6342C39.2501 58.7408 39.4963 58.9053 39.7141 59.1278C39.9343 59.348 40.1083 59.6262 40.2362 59.9624C40.364 60.2962 40.4279 60.6915 40.4279 61.1484V61.4609H36.1665V60.9034H39.7816C39.7816 60.553 39.7106 60.2382 39.5685 59.9588C39.4289 59.6771 39.2335 59.4545 38.9826 59.2912C38.734 59.1278 38.4464 59.0462 38.1197 59.0462C37.774 59.0462 37.4698 59.1385 37.207 59.3232C36.9442 59.5078 36.7383 59.7517 36.5891 60.0547C36.4424 60.3577 36.3678 60.6892 36.3654 61.049V61.3828C36.3654 61.8161 36.44 62.1948 36.5891 62.5192C36.7406 62.8411 36.9549 63.0909 37.2319 63.2685C37.5089 63.446 37.8368 63.5348 38.2156 63.5348C38.4736 63.5348 38.6997 63.4946 38.8938 63.4141C39.0903 63.3336 39.2549 63.2259 39.3874 63.0909C39.5224 62.9536 39.6242 62.8033 39.6928 62.6399L40.293 62.8352C40.2101 63.0649 40.074 63.2768 39.8846 63.4709C39.6976 63.665 39.4632 63.8213 39.1815 63.9396C38.9021 64.0556 38.5801 64.1136 38.2156 64.1136ZM44.6333 64V58.5455H45.2477V59.3835H45.2939C45.4028 59.1089 45.5922 58.8875 45.862 58.7195C46.1343 58.549 46.4421 58.4638 46.7853 58.4638C46.8374 58.4638 46.8954 58.465 46.9593 58.4673C47.0233 58.4697 47.0765 58.4721 47.1191 58.4744V59.1172C47.0907 59.1125 47.041 59.1054 46.97 59.0959C46.899 59.0864 46.822 59.0817 46.7392 59.0817C46.4551 59.0817 46.2018 59.142 45.9792 59.2628C45.7591 59.3812 45.585 59.5457 45.4572 59.7564C45.3294 59.9671 45.2654 60.2074 45.2654 60.4773V64H44.6333ZM50.237 64.1136C49.728 64.1136 49.2877 63.9953 48.916 63.7585C48.5443 63.5194 48.2567 63.1892 48.0531 62.7678C47.8519 62.344 47.7512 61.8563 47.7512 61.3047C47.7512 60.7554 47.8519 60.2678 48.0531 59.8416C48.2567 59.4131 48.5372 59.0781 48.8947 58.8366C49.2546 58.5928 49.67 58.4709 50.1412 58.4709C50.4371 58.4709 50.7224 58.5253 50.997 58.6342C51.2716 58.7408 51.5178 58.9053 51.7356 59.1278C51.9558 59.348 52.1298 59.6262 52.2576 59.9624C52.3855 60.2962 52.4494 60.6915 52.4494 61.1484V61.4609H48.188V60.9034H51.8031C51.8031 60.553 51.7321 60.2382 51.59 59.9588C51.4503 59.6771 51.255 59.4545 51.0041 59.2912C50.7555 59.1278 50.4679 59.0462 50.1412 59.0462C49.7955 59.0462 49.4913 59.1385 49.2285 59.3232C48.9657 59.5078 48.7598 59.7517 48.6106 60.0547C48.4638 60.3577 48.3893 60.6892 48.3869 61.049V61.3828C48.3869 61.8161 48.4615 62.1948 48.6106 62.5192C48.7621 62.8411 48.9764 63.0909 49.2534 63.2685C49.5304 63.446 49.8583 63.5348 50.237 63.5348C50.4951 63.5348 50.7212 63.4946 50.9153 63.4141C51.1118 63.3336 51.2763 63.2259 51.4089 63.0909C51.5439 62.9536 51.6457 62.8033 51.7143 62.6399L52.3145 62.8352C52.2316 63.0649 52.0955 63.2768 51.9061 63.4709C51.719 63.665 51.4847 63.8213 51.2029 63.9396C50.9236 64.0556 50.6016 64.1136 50.237 64.1136ZM55.973 64.1136C55.4853 64.1136 55.0604 63.9917 54.6982 63.7479C54.3383 63.504 54.0589 63.1702 53.8601 62.7464C53.6612 62.3227 53.5618 61.8397 53.5618 61.2976C53.5618 60.7507 53.6624 60.2642 53.8636 59.8381C54.0672 59.4119 54.349 59.0781 54.7088 58.8366C55.0687 58.5928 55.4865 58.4709 55.9624 58.4709C56.3269 58.4709 56.6572 58.5419 56.9531 58.6839C57.2491 58.8236 57.4929 59.0213 57.6847 59.277C57.8788 59.5303 58.0007 59.8262 58.0504 60.1648H57.4112C57.3449 59.857 57.1851 59.5942 56.9318 59.3764C56.6809 59.1562 56.3613 59.0462 55.973 59.0462C55.625 59.0462 55.3172 59.1409 55.0497 59.3303C54.7822 59.5173 54.5727 59.7789 54.4212 60.1151C54.272 60.4489 54.1974 60.8359 54.1974 61.2763C54.1974 61.719 54.2708 62.1108 54.4176 62.4517C54.5644 62.7902 54.7704 63.0554 55.0355 63.2472C55.303 63.4389 55.6155 63.5348 55.973 63.5348C56.2145 63.5348 56.4347 63.4898 56.6335 63.3999C56.8348 63.3075 57.0028 63.1773 57.1378 63.0092C57.2751 62.8411 57.3674 62.6411 57.4148 62.4091H58.054C58.0066 62.7382 57.8894 63.0317 57.7024 63.2898C57.5178 63.5455 57.2775 63.7467 56.9815 63.8935C56.688 64.0402 56.3518 64.1136 55.973 64.1136ZM61.5288 64.1136C61.0576 64.1136 60.641 63.9941 60.2788 63.755C59.9189 63.5159 59.6372 63.1856 59.4336 62.7642C59.23 62.3404 59.1282 61.8516 59.1282 61.2976C59.1282 60.7389 59.23 60.2476 59.4336 59.8239C59.6372 59.3977 59.9189 59.0663 60.2788 58.8295C60.641 58.5904 61.0576 58.4709 61.5288 58.4709C61.9999 58.4709 62.4154 58.5904 62.7752 58.8295C63.1351 59.0687 63.4168 59.4001 63.6204 59.8239C63.8263 60.2476 63.9293 60.7389 63.9293 61.2976C63.9293 61.8516 63.8275 62.3404 63.6239 62.7642C63.4203 63.1856 63.1374 63.5159 62.7752 63.755C62.4154 63.9941 61.9999 64.1136 61.5288 64.1136ZM61.5288 63.5348C61.9076 63.5348 62.2283 63.433 62.4911 63.2294C62.7539 63.0258 62.9528 62.7547 63.0877 62.4162C63.225 62.0777 63.2937 61.7048 63.2937 61.2976C63.2937 60.8904 63.225 60.5163 63.0877 60.1754C62.9528 59.8345 62.7539 59.5611 62.4911 59.3551C62.2283 59.1491 61.9076 59.0462 61.5288 59.0462C61.1523 59.0462 60.8316 59.1491 60.5664 59.3551C60.3036 59.5611 60.1036 59.8345 59.9663 60.1754C59.8313 60.5163 59.7638 60.8904 59.7638 61.2976C59.7638 61.7048 59.8313 62.0777 59.9663 62.4162C60.1036 62.7547 60.3036 63.0258 60.5664 63.2294C60.8292 63.433 61.15 63.5348 61.5288 63.5348ZM65.3169 64V58.5455H65.9313V59.3835H65.9775C66.0864 59.1089 66.2757 58.8875 66.5456 58.7195C66.8179 58.549 67.1257 58.4638 67.4689 58.4638C67.521 58.4638 67.579 58.465 67.6429 58.4673C67.7069 58.4697 67.7601 58.4721 67.8027 58.4744V59.1172C67.7743 59.1125 67.7246 59.1054 67.6536 59.0959C67.5826 59.0864 67.5056 59.0817 67.4228 59.0817C67.1387 59.0817 66.8854 59.142 66.6628 59.2628C66.4426 59.3812 66.2686 59.5457 66.1408 59.7564C66.013 59.9671 65.949 60.2074 65.949 60.4773V64H65.3169ZM70.6792 64.1136C70.2317 64.1136 69.8399 63.9953 69.5037 63.7585C69.1676 63.5218 68.9048 63.1915 68.7154 62.7678C68.5283 62.344 68.4348 61.8504 68.4348 61.2869C68.4348 60.7259 68.5283 60.2346 68.7154 59.8132C68.9048 59.3894 69.1687 59.0604 69.5073 58.826C69.8458 58.5893 70.24 58.4709 70.6898 58.4709C71.0212 58.4709 71.2971 58.5301 71.5172 58.6484C71.7374 58.7644 71.9138 58.9089 72.0463 59.0817C72.1789 59.2545 72.2819 59.4226 72.3553 59.5859H72.4121V56.7273H73.0478V64H72.4299V62.9879H72.3553C72.2819 63.1536 72.1777 63.3241 72.0428 63.4993C71.9078 63.6721 71.7291 63.8177 71.5066 63.9361C71.2864 64.0545 71.0106 64.1136 70.6792 64.1136ZM70.7537 63.5348C71.1065 63.5348 71.4071 63.4389 71.6557 63.2472C71.9043 63.053 72.0937 62.7867 72.2239 62.4482C72.3565 62.1072 72.4228 61.7166 72.4228 61.2763C72.4228 60.8407 72.3577 60.456 72.2275 60.1222C72.0972 59.786 71.9078 59.5232 71.6593 59.3338C71.4107 59.142 71.1088 59.0462 70.7537 59.0462C70.3891 59.0462 70.0814 59.1456 69.8304 59.3445C69.5819 59.541 69.3925 59.8073 69.2623 60.1435C69.1344 60.4796 69.0705 60.8572 69.0705 61.2763C69.0705 61.7 69.1356 62.0824 69.2658 62.4233C69.396 62.7642 69.5854 63.0353 69.834 63.2365C70.0849 63.4354 70.3915 63.5348 70.7537 63.5348ZM77.0534 64.1136C76.5444 64.1136 76.1041 63.9953 75.7324 63.7585C75.3607 63.5194 75.0731 63.1892 74.8695 62.7678C74.6683 62.344 74.5676 61.8563 74.5676 61.3047C74.5676 60.7554 74.6683 60.2678 74.8695 59.8416C75.0731 59.4131 75.3536 59.0781 75.7111 58.8366C76.071 58.5928 76.4864 58.4709 76.9576 58.4709C77.2535 58.4709 77.5388 58.5253 77.8134 58.6342C78.088 58.7408 78.3342 58.9053 78.552 59.1278C78.7722 59.348 78.9462 59.6262 79.074 59.9624C79.2019 60.2962 79.2658 60.6915 79.2658 61.1484V61.4609H75.0044V60.9034H78.6195C78.6195 60.553 78.5485 60.2382 78.4064 59.9588C78.2667 59.6771 78.0714 59.4545 77.8205 59.2912C77.5719 59.1278 77.2843 59.0462 76.9576 59.0462C76.6119 59.0462 76.3077 59.1385 76.0449 59.3232C75.7821 59.5078 75.5762 59.7517 75.427 60.0547C75.2802 60.3577 75.2057 60.6892 75.2033 61.049V61.3828C75.2033 61.8161 75.2779 62.1948 75.427 62.5192C75.5785 62.8411 75.7928 63.0909 76.0698 63.2685C76.3468 63.446 76.6747 63.5348 77.0534 63.5348C77.3115 63.5348 77.5376 63.4946 77.7317 63.4141C77.9282 63.3336 78.0927 63.2259 78.2253 63.0909C78.3603 62.9536 78.4621 62.8033 78.5307 62.6399L79.1309 62.8352C79.048 63.0649 78.9119 63.2768 78.7225 63.4709C78.5355 63.665 78.3011 63.8213 78.0194 63.9396C77.74 64.0556 77.418 64.1136 77.0534 64.1136ZM82.6225 64.1136C82.1751 64.1136 81.7833 63.9953 81.4471 63.7585C81.1109 63.5218 80.8481 63.1915 80.6587 62.7678C80.4717 62.344 80.3782 61.8504 80.3782 61.2869C80.3782 60.7259 80.4717 60.2346 80.6587 59.8132C80.8481 59.3894 81.1121 59.0604 81.4506 58.826C81.7892 58.5893 82.1834 58.4709 82.6332 58.4709C82.9646 58.4709 83.2404 58.5301 83.4606 58.6484C83.6808 58.7644 83.8571 58.9089 83.9897 59.0817C84.1223 59.2545 84.2253 59.4226 84.2987 59.5859H84.3555V56.7273H84.9911V64H84.3732V62.9879H84.2987C84.2253 63.1536 84.1211 63.3241 83.9862 63.4993C83.8512 63.6721 83.6725 63.8177 83.4499 63.9361C83.2298 64.0545 82.954 64.1136 82.6225 64.1136ZM82.6971 63.5348C83.0498 63.5348 83.3505 63.4389 83.5991 63.2472C83.8477 63.053 84.0371 62.7867 84.1673 62.4482C84.2998 62.1072 84.3661 61.7166 84.3661 61.2763C84.3661 60.8407 84.301 60.456 84.1708 60.1222C84.0406 59.786 83.8512 59.5232 83.6026 59.3338C83.354 59.142 83.0522 59.0462 82.6971 59.0462C82.3325 59.0462 82.0247 59.1456 81.7738 59.3445C81.5252 59.541 81.3358 59.8073 81.2056 60.1435C81.0778 60.4796 81.0138 60.8572 81.0138 61.2763C81.0138 61.7 81.079 62.0824 81.2092 62.4233C81.3394 62.7642 81.5288 63.0353 81.7773 63.2365C82.0283 63.4354 82.3349 63.5348 82.6971 63.5348Z" fill="#222222"/>
</svg>
