<svg width="110" height="110" viewBox="0 0 110 110" fill="none" xmlns="http://www.w3.org/2000/svg">
<rect width="110" height="110" fill="#F8E8B2"/>
<path d="M26.325 45.5909V49H25.6929V41.7273H26.325V44.4013H26.3818C26.5097 44.1196 26.7074 43.8946 26.9749 43.7266C27.2448 43.5585 27.5857 43.4744 27.9976 43.4744C28.3669 43.4744 28.6913 43.5502 28.9706 43.7017C29.25 43.8532 29.4678 44.0769 29.624 44.3729C29.7803 44.6688 29.8584 45.0334 29.8584 45.4666V49H29.2227V45.5057C29.2227 45.0559 29.0973 44.7019 28.8463 44.4439C28.5977 44.1835 28.2616 44.0533 27.8378 44.0533C27.5466 44.0533 27.2874 44.1148 27.0601 44.2379C26.8328 44.361 26.6529 44.5386 26.5203 44.7706C26.3901 45.0002 26.325 45.2737 26.325 45.5909ZM33.0464 49.1243C32.7174 49.1243 32.4167 49.0604 32.1444 48.9325C31.8722 48.8023 31.6556 48.6153 31.4946 48.3714C31.3336 48.1252 31.2531 47.8269 31.2531 47.4766C31.2531 47.2067 31.304 46.9794 31.4058 46.7947C31.5076 46.6101 31.652 46.4586 31.839 46.3402C32.0261 46.2218 32.2474 46.1283 32.5031 46.0597C32.7588 45.991 33.0405 45.9377 33.3483 45.8999C33.6537 45.862 33.9117 45.8288 34.1224 45.8004C34.3355 45.772 34.4977 45.727 34.6089 45.6655C34.7202 45.6039 34.7758 45.5045 34.7758 45.3672V45.2393C34.7758 44.8677 34.6646 44.5753 34.442 44.3622C34.2219 44.1468 33.9046 44.0391 33.4903 44.0391C33.0973 44.0391 32.7765 44.1255 32.528 44.2983C32.2818 44.4711 32.1089 44.6747 32.0095 44.9091L31.4094 44.6925C31.5325 44.3942 31.7029 44.1562 31.9207 43.9787C32.1385 43.7988 32.3824 43.6697 32.6523 43.5916C32.9221 43.5111 33.1956 43.4709 33.4726 43.4709C33.6809 43.4709 33.8975 43.4981 34.1224 43.5526C34.3497 43.607 34.5604 43.7017 34.7545 43.8366C34.9487 43.9692 35.1061 44.1551 35.2268 44.3942C35.3476 44.6309 35.4079 44.9316 35.4079 45.2962V49H34.7758V48.1371H34.7368C34.661 48.2981 34.5486 48.4543 34.3994 48.6058C34.2503 48.7573 34.0632 48.8816 33.8383 48.9787C33.6134 49.0758 33.3495 49.1243 33.0464 49.1243ZM33.1317 48.5455C33.4678 48.5455 33.759 48.4709 34.0052 48.3217C34.2515 48.1726 34.4408 47.9749 34.5734 47.7287C34.7084 47.4801 34.7758 47.2067 34.7758 46.9084V46.12C34.7285 46.165 34.6492 46.2053 34.5379 46.2408C34.429 46.2763 34.3023 46.3082 34.1579 46.3366C34.0159 46.3627 33.8738 46.3852 33.7318 46.4041C33.5898 46.4231 33.4619 46.4396 33.3483 46.4538C33.0405 46.4917 32.7777 46.5509 32.5599 46.6314C32.3421 46.7119 32.1752 46.8232 32.0592 46.9652C31.9432 47.1049 31.8852 47.2848 31.8852 47.505C31.8852 47.8364 32.0036 48.0933 32.2403 48.2756C32.4771 48.4555 32.7742 48.5455 33.1317 48.5455ZM41.1164 43.5455L39.1242 49H38.4495L36.4573 43.5455H37.1427L38.762 48.1655H38.8117L40.431 43.5455H41.1164ZM44.363 49.1136C43.854 49.1136 43.4137 48.9953 43.042 48.7585C42.6703 48.5194 42.3827 48.1892 42.1791 47.7678C41.9778 47.344 41.8772 46.8563 41.8772 46.3047C41.8772 45.7554 41.9778 45.2678 42.1791 44.8416C42.3827 44.4131 42.6632 44.0781 43.0207 43.8366C43.3805 43.5928 43.796 43.4709 44.2671 43.4709C44.5631 43.4709 44.8483 43.5253 45.123 43.6342C45.3976 43.7408 45.6438 43.9053 45.8616 44.1278C46.0818 44.348 46.2558 44.6262 46.3836 44.9624C46.5115 45.2962 46.5754 45.6915 46.5754 46.1484V46.4609H42.314V45.9034H45.9291C45.9291 45.553 45.858 45.2382 45.716 44.9588C45.5763 44.6771 45.381 44.4545 45.1301 44.2912C44.8815 44.1278 44.5938 44.0462 44.2671 44.0462C43.9215 44.0462 43.6173 44.1385 43.3545 44.3232C43.0917 44.5078 42.8857 44.7517 42.7366 45.0547C42.5898 45.3577 42.5152 45.6892 42.5129 46.049V46.3828C42.5129 46.8161 42.5874 47.1948 42.7366 47.5192C42.8881 47.8411 43.1024 48.0909 43.3794 48.2685C43.6563 48.446 43.9842 48.5348 44.363 48.5348C44.6211 48.5348 44.8472 48.4946 45.0413 48.4141C45.2378 48.3336 45.4023 48.2259 45.5349 48.0909C45.6698 47.9536 45.7716 47.8033 45.8403 47.6399L46.4404 47.8352C46.3576 48.0649 46.2214 48.2768 46.032 48.4709C45.845 48.665 45.6106 48.8213 45.3289 48.9396C45.0496 49.0556 44.7276 49.1136 44.363 49.1136ZM52.7446 49.1136C52.2971 49.1136 51.9053 48.9953 51.5692 48.7585C51.233 48.5218 50.9702 48.1915 50.7808 47.7678C50.5938 47.344 50.5003 46.8504 50.5003 46.2869C50.5003 45.7259 50.5938 45.2346 50.7808 44.8132C50.9702 44.3894 51.2342 44.0604 51.5727 43.826C51.9113 43.5893 52.3054 43.4709 52.7552 43.4709C53.0867 43.4709 53.3625 43.5301 53.5827 43.6484C53.8028 43.7644 53.9792 43.9089 54.1118 44.0817C54.2443 44.2545 54.3473 44.4226 54.4207 44.5859H54.4775V41.7273H55.1132V49H54.4953V47.9879H54.4207C54.3473 48.1536 54.2432 48.3241 54.1082 48.4993C53.9733 48.6721 53.7945 48.8177 53.572 48.9361C53.3518 49.0545 53.076 49.1136 52.7446 49.1136ZM52.8192 48.5348C53.1719 48.5348 53.4726 48.4389 53.7211 48.2472C53.9697 48.053 54.1591 47.7867 54.2893 47.4482C54.4219 47.1072 54.4882 46.7166 54.4882 46.2763C54.4882 45.8407 54.4231 45.456 54.2929 45.1222C54.1627 44.786 53.9733 44.5232 53.7247 44.3338C53.4761 44.142 53.1743 44.0462 52.8192 44.0462C52.4546 44.0462 52.1468 44.1456 51.8959 44.3445C51.6473 44.541 51.4579 44.8073 51.3277 45.1435C51.1998 45.4796 51.1359 45.8572 51.1359 46.2763C51.1359 46.7 51.201 47.0824 51.3312 47.4233C51.4614 47.7642 51.6508 48.0353 51.8994 48.2365C52.1504 48.4354 52.4569 48.5348 52.8192 48.5348ZM56.9207 49V43.5455H57.5564V49H56.9207ZM57.2439 42.608C57.1137 42.608 57.0024 42.5642 56.9101 42.4766C56.8177 42.3866 56.7716 42.2789 56.7716 42.1534C56.7716 42.0279 56.8177 41.9214 56.9101 41.8338C57.0024 41.7438 57.1137 41.6989 57.2439 41.6989C57.3741 41.6989 57.4854 41.7438 57.5777 41.8338C57.67 41.9214 57.7162 42.0279 57.7162 42.1534C57.7162 42.2789 57.67 42.3866 57.5777 42.4766C57.4854 42.5642 57.3741 42.608 57.2439 42.608ZM62.8928 44.7422L62.314 44.9055C62.2572 44.7422 62.1767 44.5942 62.0725 44.4616C61.9684 44.3291 61.8322 44.2237 61.6642 44.1456C61.4984 44.0675 61.2925 44.0284 61.0463 44.0284C60.6769 44.0284 60.3739 44.116 60.1372 44.2912C59.9004 44.4664 59.782 44.6925 59.782 44.9695C59.782 45.2038 59.8625 45.3944 60.0235 45.5412C60.1869 45.6856 60.4378 45.8004 60.7764 45.8857L61.6002 46.0881C62.0571 46.1993 62.3992 46.3757 62.6265 46.6172C62.8561 46.8587 62.971 47.1617 62.971 47.5263C62.971 47.834 62.8857 48.1075 62.7153 48.3466C62.5448 48.5857 62.3069 48.7739 62.0015 48.9112C61.6985 49.0462 61.3469 49.1136 60.9468 49.1136C60.4142 49.1136 59.975 48.9941 59.6294 48.755C59.2837 48.5135 59.0624 48.1655 58.9653 47.7109L59.5725 47.5618C59.6507 47.8861 59.8034 48.1312 60.0306 48.2969C60.2603 48.4626 60.5621 48.5455 60.9362 48.5455C61.3552 48.5455 61.6902 48.4519 61.9411 48.2649C62.1921 48.0755 62.3176 47.8388 62.3176 47.5547C62.3176 47.3345 62.2442 47.1499 62.0974 47.0007C61.9506 46.8492 61.7281 46.7379 61.4298 46.6669L60.5384 46.4538C60.065 46.3402 59.7146 46.1603 59.4873 45.9141C59.26 45.6679 59.1464 45.3625 59.1464 44.9979C59.1464 44.6972 59.2281 44.4332 59.3914 44.206C59.5548 43.9763 59.7797 43.7964 60.0661 43.6662C60.3526 43.536 60.6793 43.4709 61.0463 43.4709C61.5458 43.4709 61.9447 43.5845 62.243 43.8118C62.5436 44.0367 62.7603 44.3468 62.8928 44.7422ZM66.4857 49.1136C65.998 49.1136 65.5731 48.9917 65.2108 48.7479C64.851 48.504 64.5716 48.1702 64.3728 47.7464C64.1739 47.3227 64.0745 46.8397 64.0745 46.2976C64.0745 45.7507 64.1751 45.2642 64.3763 44.8381C64.5799 44.4119 64.8617 44.0781 65.2215 43.8366C65.5814 43.5928 65.9992 43.4709 66.4751 43.4709C66.8396 43.4709 67.1699 43.5419 67.4658 43.6839C67.7617 43.8236 68.0056 44.0213 68.1974 44.277C68.3915 44.5303 68.5134 44.8262 68.5631 45.1648H67.9239C67.8576 44.857 67.6978 44.5942 67.4445 44.3764C67.1936 44.1562 66.874 44.0462 66.4857 44.0462C66.1377 44.0462 65.8299 44.1409 65.5624 44.3303C65.2949 44.5173 65.0854 44.7789 64.9339 45.1151C64.7847 45.4489 64.7101 45.8359 64.7101 46.2763C64.7101 46.719 64.7835 47.1108 64.9303 47.4517C65.0771 47.7902 65.2831 48.0554 65.5482 48.2472C65.8157 48.4389 66.1282 48.5348 66.4857 48.5348C66.7272 48.5348 66.9474 48.4898 67.1462 48.3999C67.3474 48.3075 67.5155 48.1773 67.6505 48.0092C67.7878 47.8411 67.8801 47.6411 67.9275 47.4091H68.5667C68.5193 47.7382 68.4021 48.0317 68.2151 48.2898C68.0305 48.5455 67.7902 48.7467 67.4942 48.8935C67.2007 49.0402 66.8645 49.1136 66.4857 49.1136ZM72.0415 49.1136C71.5703 49.1136 71.1537 48.9941 70.7915 48.755C70.4316 48.5159 70.1499 48.1856 69.9463 47.7642C69.7427 47.3404 69.6409 46.8516 69.6409 46.2976C69.6409 45.7389 69.7427 45.2476 69.9463 44.8239C70.1499 44.3977 70.4316 44.0663 70.7915 43.8295C71.1537 43.5904 71.5703 43.4709 72.0415 43.4709C72.5126 43.4709 72.9281 43.5904 73.2879 43.8295C73.6478 44.0687 73.9295 44.4001 74.1331 44.8239C74.339 45.2476 74.442 45.7389 74.442 46.2976C74.442 46.8516 74.3402 47.3404 74.1366 47.7642C73.933 48.1856 73.6501 48.5159 73.2879 48.755C72.9281 48.9941 72.5126 49.1136 72.0415 49.1136ZM72.0415 48.5348C72.4202 48.5348 72.741 48.433 73.0038 48.2294C73.2666 48.0258 73.4655 47.7547 73.6004 47.4162C73.7377 47.0777 73.8064 46.7048 73.8064 46.2976C73.8064 45.8904 73.7377 45.5163 73.6004 45.1754C73.4655 44.8345 73.2666 44.5611 73.0038 44.3551C72.741 44.1491 72.4202 44.0462 72.0415 44.0462C71.665 44.0462 71.3443 44.1491 71.0791 44.3551C70.8163 44.5611 70.6163 44.8345 70.479 45.1754C70.344 45.5163 70.2765 45.8904 70.2765 46.2976C70.2765 46.7048 70.344 47.0777 70.479 47.4162C70.6163 47.7547 70.8163 48.0258 71.0791 48.2294C71.3419 48.433 71.6627 48.5348 72.0415 48.5348ZM79.2955 46.9155V43.5455H79.9276V49H79.2955V48.0945H79.2458C79.118 48.3738 78.9156 48.607 78.6386 48.794C78.3616 48.9787 78.0231 49.071 77.623 49.071C77.2749 49.071 76.966 48.9953 76.6961 48.8438C76.4262 48.6899 76.2143 48.465 76.0605 48.169C75.9066 47.8731 75.8296 47.5097 75.8296 47.0788V43.5455H76.4617V47.0398C76.4617 47.4659 76.5872 47.8092 76.8382 48.0696C77.0891 48.3277 77.4111 48.4567 77.8041 48.4567C78.0503 48.4567 78.287 48.3975 78.5143 48.2791C78.7416 48.1607 78.9286 47.9879 79.0754 47.7607C79.2222 47.531 79.2955 47.2493 79.2955 46.9155ZM82.2332 45.5909V49H81.6011V43.5455H82.2155V44.4013H82.2723C82.4001 44.1219 82.599 43.8982 82.8689 43.7301C83.1411 43.5597 83.4773 43.4744 83.8774 43.4744C84.2443 43.4744 84.5663 43.5514 84.8433 43.7053C85.1227 43.8568 85.3393 44.0805 85.4932 44.3764C85.6494 44.6723 85.7275 45.0357 85.7275 45.4666V49H85.0954V45.5057C85.0954 45.0582 84.97 44.7043 84.719 44.4439C84.4704 44.1835 84.1366 44.0533 83.7176 44.0533C83.4311 44.0533 83.1766 44.1148 82.9541 44.2379C82.7316 44.361 82.5552 44.5386 82.425 44.7706C82.2971 45.0002 82.2332 45.2737 82.2332 45.5909ZM89.5406 43.5455V44.0959H86.9376V43.5455H89.5406ZM87.7508 42.2386H88.3865V47.576C88.3865 47.8033 88.4255 47.982 88.5036 48.1122C88.5818 48.2401 88.6836 48.3312 88.809 48.3857C88.9345 48.4377 89.0683 48.4638 89.2103 48.4638C89.2932 48.4638 89.3642 48.459 89.4234 48.4496C89.4826 48.4377 89.5347 48.4259 89.5796 48.4141L89.7146 48.9858C89.653 49.0095 89.5773 49.0308 89.4873 49.0497C89.3973 49.071 89.2861 49.0817 89.1535 49.0817C88.9215 49.0817 88.6978 49.0308 88.4823 48.929C88.2693 48.8272 88.0941 48.6757 87.9568 48.4744C87.8195 48.2732 87.7508 48.0234 87.7508 47.7251V42.2386ZM40.431 61.1136C39.9433 61.1136 39.5184 60.9917 39.1562 60.7479C38.7963 60.504 38.517 60.1702 38.3181 59.7464C38.1192 59.3227 38.0198 58.8397 38.0198 58.2976C38.0198 57.7507 38.1204 57.2642 38.3216 56.8381C38.5252 56.4119 38.807 56.0781 39.1668 55.8366C39.5267 55.5928 39.9445 55.4709 40.4204 55.4709C40.7849 55.4709 41.1152 55.5419 41.4111 55.6839C41.7071 55.8236 41.9509 56.0213 42.1427 56.277C42.3368 56.5303 42.4587 56.8262 42.5084 57.1648H41.8692C41.8029 56.857 41.6431 56.5942 41.3898 56.3764C41.1389 56.1562 40.8193 56.0462 40.431 56.0462C40.083 56.0462 39.7752 56.1409 39.5077 56.3303C39.2402 56.5173 39.0307 56.7789 38.8792 57.1151C38.73 57.4489 38.6555 57.8359 38.6555 58.2763C38.6555 58.719 38.7288 59.1108 38.8756 59.4517C39.0224 59.7902 39.2284 60.0554 39.4935 60.2472C39.761 60.4389 40.0735 60.5348 40.431 60.5348C40.6725 60.5348 40.8927 60.4898 41.0915 60.3999C41.2928 60.3075 41.4608 60.1773 41.5958 60.0092C41.7331 59.8411 41.8254 59.6411 41.8728 59.4091H42.512C42.4646 59.7382 42.3474 60.0317 42.1604 60.2898C41.9758 60.5455 41.7355 60.7467 41.4395 60.8935C41.146 61.0402 40.8098 61.1136 40.431 61.1136ZM45.9868 61.1136C45.5157 61.1136 45.099 60.9941 44.7368 60.755C44.3769 60.5159 44.0952 60.1856 43.8916 59.7642C43.688 59.3404 43.5862 58.8516 43.5862 58.2976C43.5862 57.7389 43.688 57.2476 43.8916 56.8239C44.0952 56.3977 44.3769 56.0663 44.7368 55.8295C45.099 55.5904 45.5157 55.4709 45.9868 55.4709C46.4579 55.4709 46.8734 55.5904 47.2332 55.8295C47.5931 56.0687 47.8748 56.4001 48.0784 56.8239C48.2844 57.2476 48.3873 57.7389 48.3873 58.2976C48.3873 58.8516 48.2855 59.3404 48.0819 59.7642C47.8783 60.1856 47.5954 60.5159 47.2332 60.755C46.8734 60.9941 46.4579 61.1136 45.9868 61.1136ZM45.9868 60.5348C46.3656 60.5348 46.6863 60.433 46.9491 60.2294C47.2119 60.0258 47.4108 59.7547 47.5457 59.4162C47.683 59.0777 47.7517 58.7048 47.7517 58.2976C47.7517 57.8904 47.683 57.5163 47.5457 57.1754C47.4108 56.8345 47.2119 56.5611 46.9491 56.3551C46.6863 56.1491 46.3656 56.0462 45.9868 56.0462C45.6104 56.0462 45.2896 56.1491 45.0244 56.3551C44.7616 56.5611 44.5616 56.8345 44.4243 57.1754C44.2893 57.5163 44.2219 57.8904 44.2219 58.2976C44.2219 58.7048 44.2893 59.0777 44.4243 59.4162C44.5616 59.7547 44.7616 60.0258 45.0244 60.2294C45.2872 60.433 45.608 60.5348 45.9868 60.5348ZM53.2409 58.9155V55.5455H53.873V61H53.2409V60.0945H53.1911C53.0633 60.3738 52.8609 60.607 52.5839 60.794C52.3069 60.9787 51.9684 61.071 51.5683 61.071C51.2203 61.071 50.9113 60.9953 50.6414 60.8438C50.3715 60.6899 50.1597 60.465 50.0058 60.169C49.8519 59.8731 49.7749 59.5097 49.7749 59.0788V55.5455H50.407V59.0398C50.407 59.4659 50.5325 59.8092 50.7835 60.0696C51.0344 60.3277 51.3564 60.4567 51.7494 60.4567C51.9956 60.4567 52.2323 60.3975 52.4596 60.2791C52.6869 60.1607 52.8739 59.9879 53.0207 59.7607C53.1675 59.531 53.2409 59.2493 53.2409 58.9155ZM55.5464 63.0455V55.5455H56.1608V56.5859H56.2354C56.3111 56.4226 56.4153 56.2557 56.5479 56.0852C56.6804 55.9124 56.8556 55.7668 57.0734 55.6484C57.2936 55.5301 57.5706 55.4709 57.9044 55.4709C58.3542 55.4709 58.7472 55.5893 59.0834 55.826C59.4219 56.0604 59.6847 56.3894 59.8717 56.8132C60.0611 57.2346 60.1558 57.7259 60.1558 58.2869C60.1558 58.8504 60.0611 59.344 59.8717 59.7678C59.6847 60.1915 59.4219 60.5218 59.0834 60.7585C58.7472 60.9953 58.3566 61.1136 57.9115 61.1136C57.5824 61.1136 57.3066 61.0545 57.0841 60.9361C56.8639 60.8177 56.6852 60.6721 56.5479 60.4993C56.4129 60.3241 56.3087 60.1536 56.2354 59.9879H56.1785V63.0455H55.5464ZM56.1714 58.2763C56.1714 58.7166 56.2365 59.1072 56.3667 59.4482C56.4993 59.7867 56.6887 60.053 56.9349 60.2472C57.1835 60.4389 57.4842 60.5348 57.8369 60.5348C58.1991 60.5348 58.5045 60.4354 58.7531 60.2365C59.0041 60.0353 59.1946 59.7642 59.3248 59.4233C59.4574 59.0824 59.5237 58.7 59.5237 58.2763C59.5237 57.8572 59.4586 57.4796 59.3284 57.1435C59.2006 56.8073 59.0112 56.541 58.7602 56.3445C58.5093 56.1456 58.2015 56.0462 57.8369 56.0462C57.4818 56.0462 57.18 56.142 56.9314 56.3338C56.6828 56.5232 56.4934 56.786 56.3632 57.1222C56.2354 57.456 56.1714 57.8407 56.1714 58.2763ZM63.6626 61.1136C63.1914 61.1136 62.7748 60.9941 62.4126 60.755C62.0527 60.5159 61.771 60.1856 61.5674 59.7642C61.3638 59.3404 61.262 58.8516 61.262 58.2976C61.262 57.7389 61.3638 57.2476 61.5674 56.8239C61.771 56.3977 62.0527 56.0663 62.4126 55.8295C62.7748 55.5904 63.1914 55.4709 63.6626 55.4709C64.1337 55.4709 64.5492 55.5904 64.909 55.8295C65.2689 56.0687 65.5506 56.4001 65.7542 56.8239C65.9601 57.2476 66.0631 57.7389 66.0631 58.2976C66.0631 58.8516 65.9613 59.3404 65.7577 59.7642C65.5541 60.1856 65.2712 60.5159 64.909 60.755C64.5492 60.9941 64.1337 61.1136 63.6626 61.1136ZM63.6626 60.5348C64.0413 60.5348 64.3621 60.433 64.6249 60.2294C64.8877 60.0258 65.0866 59.7547 65.2215 59.4162C65.3588 59.0777 65.4275 58.7048 65.4275 58.2976C65.4275 57.8904 65.3588 57.5163 65.2215 57.1754C65.0866 56.8345 64.8877 56.5611 64.6249 56.3551C64.3621 56.1491 64.0413 56.0462 63.6626 56.0462C63.2861 56.0462 62.9653 56.1491 62.7002 56.3551C62.4374 56.5611 62.2374 56.8345 62.1001 57.1754C61.9651 57.5163 61.8976 57.8904 61.8976 58.2976C61.8976 58.7048 61.9651 59.0777 62.1001 59.4162C62.2374 59.7547 62.4374 60.0258 62.7002 60.2294C62.963 60.433 63.2838 60.5348 63.6626 60.5348ZM68.0828 57.5909V61H67.4507V55.5455H68.0651V56.4013H68.1219C68.2497 56.1219 68.4486 55.8982 68.7185 55.7301C68.9907 55.5597 69.3269 55.4744 69.727 55.4744C70.094 55.4744 70.4159 55.5514 70.6929 55.7053C70.9723 55.8568 71.1889 56.0805 71.3428 56.3764C71.499 56.6723 71.5771 57.0357 71.5771 57.4666V61H70.945V57.5057C70.945 57.0582 70.8196 56.7043 70.5686 56.4439C70.32 56.1835 69.9862 56.0533 69.5672 56.0533C69.2807 56.0533 69.0262 56.1148 68.8037 56.2379C68.5812 56.361 68.4048 56.5386 68.2746 56.7706C68.1468 57.0002 68.0828 57.2737 68.0828 57.5909ZM76.9065 56.7422L76.3277 56.9055C76.2709 56.7422 76.1904 56.5942 76.0862 56.4616C75.982 56.3291 75.8459 56.2237 75.6778 56.1456C75.5121 56.0675 75.3061 56.0284 75.0599 56.0284C74.6906 56.0284 74.3876 56.116 74.1508 56.2912C73.9141 56.4664 73.7957 56.6925 73.7957 56.9695C73.7957 57.2038 73.8762 57.3944 74.0372 57.5412C74.2006 57.6856 74.4515 57.8004 74.79 57.8857L75.6139 58.0881C76.0708 58.1993 76.4129 58.3757 76.6402 58.6172C76.8698 58.8587 76.9846 59.1617 76.9846 59.5263C76.9846 59.834 76.8994 60.1075 76.729 60.3466C76.5585 60.5857 76.3206 60.7739 76.0152 60.9112C75.7122 61.0462 75.3606 61.1136 74.9605 61.1136C74.4278 61.1136 73.9887 60.9941 73.643 60.755C73.2974 60.5135 73.076 60.1655 72.979 59.7109L73.5862 59.5618C73.6643 59.8861 73.817 60.1312 74.0443 60.2969C74.2739 60.4626 74.5758 60.5455 74.9498 60.5455C75.3689 60.5455 75.7039 60.4519 75.9548 60.2649C76.2058 60.0755 76.3312 59.8388 76.3312 59.5547C76.3312 59.3345 76.2578 59.1499 76.1111 59.0007C75.9643 58.8492 75.7417 58.7379 75.4434 58.6669L74.5521 58.4538C74.0786 58.3402 73.7282 58.1603 73.501 57.9141C73.2737 57.6679 73.1601 57.3625 73.1601 56.9979C73.1601 56.6972 73.2417 56.4332 73.4051 56.206C73.5684 55.9763 73.7934 55.7964 74.0798 55.6662C74.3663 55.536 74.693 55.4709 75.0599 55.4709C75.5595 55.4709 75.9584 55.5845 76.2567 55.8118C76.5573 56.0367 76.7739 56.3468 76.9065 56.7422Z" fill="#222222"/>
</svg>
