<svg width="118" height="118" viewBox="0 0 118 118" fill="none" xmlns="http://www.w3.org/2000/svg">
<g filter="url(#filter0_d_893_407)">
<rect x="4" width="110" height="110" fill="#F8E8B2"/>
<path d="M25.1903 24.5909V28H24.5581V20.7273H25.1903V23.4013H25.2471C25.3749 23.1196 25.5726 22.8946 25.8401 22.7266C26.11 22.5585 26.4509 22.4744 26.8628 22.4744C27.2322 22.4744 27.5565 22.5502 27.8358 22.7017C28.1152 22.8532 28.333 23.0769 28.4893 23.3729C28.6455 23.6688 28.7236 24.0334 28.7236 24.4666V28H28.088V24.5057C28.088 24.0559 27.9625 23.7019 27.7116 23.4439C27.463 23.1835 27.1268 23.0533 26.703 23.0533C26.4118 23.0533 26.1526 23.1148 25.9253 23.2379C25.6981 23.361 25.5181 23.5386 25.3856 23.7706C25.2554 24.0002 25.1903 24.2737 25.1903 24.5909ZM31.9117 28.1243C31.5826 28.1243 31.2819 28.0604 31.0097 27.9325C30.7374 27.8023 30.5208 27.6153 30.3598 27.3714C30.1988 27.1252 30.1183 26.8269 30.1183 26.4766C30.1183 26.2067 30.1692 25.9794 30.271 25.7947C30.3728 25.6101 30.5173 25.4586 30.7043 25.3402C30.8913 25.2218 31.1127 25.1283 31.3683 25.0597C31.624 24.991 31.9057 24.9377 32.2135 24.8999C32.5189 24.862 32.777 24.8288 32.9877 24.8004C33.2007 24.772 33.3629 24.727 33.4742 24.6655C33.5854 24.6039 33.6411 24.5045 33.6411 24.3672V24.2393C33.6411 23.8677 33.5298 23.5753 33.3073 23.3622C33.0871 23.1468 32.7699 23.0391 32.3556 23.0391C31.9626 23.0391 31.6418 23.1255 31.3932 23.2983C31.147 23.4711 30.9742 23.6747 30.8747 23.9091L30.2746 23.6925C30.3977 23.3942 30.5682 23.1562 30.786 22.9787C31.0038 22.7988 31.2476 22.6697 31.5175 22.5916C31.7874 22.5111 32.0608 22.4709 32.3378 22.4709C32.5461 22.4709 32.7628 22.4981 32.9877 22.5526C33.2149 22.607 33.4256 22.7017 33.6198 22.8366C33.8139 22.9692 33.9713 23.1551 34.0921 23.3942C34.2128 23.6309 34.2732 23.9316 34.2732 24.2962V28H33.6411V27.1371H33.602C33.5262 27.2981 33.4138 27.4543 33.2646 27.6058C33.1155 27.7573 32.9285 27.8816 32.7036 27.9787C32.4787 28.0758 32.2147 28.1243 31.9117 28.1243ZM31.9969 27.5455C32.3331 27.5455 32.6243 27.4709 32.8705 27.3217C33.1167 27.1726 33.3061 26.9749 33.4387 26.7287C33.5736 26.4801 33.6411 26.2067 33.6411 25.9084V25.12C33.5937 25.165 33.5144 25.2053 33.4031 25.2408C33.2942 25.2763 33.1676 25.3082 33.0232 25.3366C32.8811 25.3627 32.7391 25.3852 32.597 25.4041C32.455 25.4231 32.3271 25.4396 32.2135 25.4538C31.9057 25.4917 31.643 25.5509 31.4252 25.6314C31.2074 25.7119 31.0405 25.8232 30.9244 25.9652C30.8084 26.1049 30.7504 26.2848 30.7504 26.505C30.7504 26.8364 30.8688 27.0933 31.1056 27.2756C31.3423 27.4555 31.6394 27.5455 31.9969 27.5455ZM39.9816 22.5455L37.9894 28H37.3147L35.3225 22.5455H36.0079L37.6272 27.1655H37.6769L39.2963 22.5455H39.9816ZM43.2282 28.1136C42.7193 28.1136 42.2789 27.9953 41.9072 27.7585C41.5355 27.5194 41.2479 27.1892 41.0443 26.7678C40.8431 26.344 40.7425 25.8563 40.7425 25.3047C40.7425 24.7554 40.8431 24.2678 41.0443 23.8416C41.2479 23.4131 41.5284 23.0781 41.8859 22.8366C42.2458 22.5928 42.6613 22.4709 43.1324 22.4709C43.4283 22.4709 43.7136 22.5253 43.9882 22.6342C44.2628 22.7408 44.509 22.9053 44.7268 23.1278C44.947 23.348 45.121 23.6262 45.2488 23.9624C45.3767 24.2962 45.4406 24.6915 45.4406 25.1484V25.4609H41.1792V24.9034H44.7943C44.7943 24.553 44.7233 24.2382 44.5812 23.9588C44.4416 23.6771 44.2462 23.4545 43.9953 23.2912C43.7467 23.1278 43.4591 23.0462 43.1324 23.0462C42.7867 23.0462 42.4825 23.1385 42.2197 23.3232C41.9569 23.5078 41.751 23.7517 41.6018 24.0547C41.455 24.3577 41.3805 24.6892 41.3781 25.049V25.3828C41.3781 25.8161 41.4527 26.1948 41.6018 26.5192C41.7533 26.8411 41.9676 27.0909 42.2446 27.2685C42.5216 27.446 42.8495 27.5348 43.2282 27.5348C43.4863 27.5348 43.7124 27.4946 43.9065 27.4141C44.103 27.3336 44.2675 27.2259 44.4001 27.0909C44.5351 26.9536 44.6369 26.8033 44.7055 26.6399L45.3057 26.8352C45.2228 27.0649 45.0867 27.2768 44.8973 27.4709C44.7103 27.665 44.4759 27.8213 44.1942 27.9396C43.9148 28.0556 43.5928 28.1136 43.2282 28.1136ZM51.1695 28.1243C50.8404 28.1243 50.5397 28.0604 50.2675 27.9325C49.9952 27.8023 49.7786 27.6153 49.6176 27.3714C49.4566 27.1252 49.3762 26.8269 49.3762 26.4766C49.3762 26.2067 49.4271 25.9794 49.5289 25.7947C49.6307 25.6101 49.7751 25.4586 49.9621 25.3402C50.1491 25.2218 50.3705 25.1283 50.6262 25.0597C50.8818 24.991 51.1636 24.9377 51.4713 24.8999C51.7767 24.862 52.0348 24.8288 52.2455 24.8004C52.4585 24.772 52.6207 24.727 52.732 24.6655C52.8432 24.6039 52.8989 24.5045 52.8989 24.3672V24.2393C52.8989 23.8677 52.7876 23.5753 52.5651 23.3622C52.3449 23.1468 52.0277 23.0391 51.6134 23.0391C51.2204 23.0391 50.8996 23.1255 50.651 23.2983C50.4048 23.4711 50.232 23.6747 50.1325 23.9091L49.5324 23.6925C49.6555 23.3942 49.826 23.1562 50.0438 22.9787C50.2616 22.7988 50.5054 22.6697 50.7753 22.5916C51.0452 22.5111 51.3186 22.4709 51.5956 22.4709C51.8039 22.4709 52.0206 22.4981 52.2455 22.5526C52.4727 22.607 52.6834 22.7017 52.8776 22.8366C53.0717 22.9692 53.2291 23.1551 53.3499 23.3942C53.4706 23.6309 53.531 23.9316 53.531 24.2962V28H52.8989V27.1371H52.8598C52.7841 27.2981 52.6716 27.4543 52.5225 27.6058C52.3733 27.7573 52.1863 27.8816 51.9614 27.9787C51.7365 28.0758 51.4725 28.1243 51.1695 28.1243ZM51.2547 27.5455C51.5909 27.5455 51.8821 27.4709 52.1283 27.3217C52.3745 27.1726 52.5639 26.9749 52.6965 26.7287C52.8314 26.4801 52.8989 26.2067 52.8989 25.9084V25.12C52.8515 25.165 52.7722 25.2053 52.661 25.2408C52.5521 25.2763 52.4254 25.3082 52.281 25.3366C52.1389 25.3627 51.9969 25.3852 51.8548 25.4041C51.7128 25.4231 51.585 25.4396 51.4713 25.4538C51.1636 25.4917 50.9008 25.5509 50.683 25.6314C50.4652 25.7119 50.2983 25.8232 50.1823 25.9652C50.0663 26.1049 50.0083 26.2848 50.0083 26.505C50.0083 26.8364 50.1266 27.0933 50.3634 27.2756C50.6001 27.4555 50.8972 27.5455 51.2547 27.5455ZM55.2124 28V22.5455H55.8268V23.3835H55.873C55.9819 23.1089 56.1713 22.8875 56.4411 22.7195C56.7134 22.549 57.0212 22.4638 57.3644 22.4638C57.4165 22.4638 57.4745 22.465 57.5384 22.4673C57.6024 22.4697 57.6556 22.4721 57.6982 22.4744V23.1172C57.6698 23.1125 57.6201 23.1054 57.5491 23.0959C57.4781 23.0864 57.4011 23.0817 57.3183 23.0817C57.0342 23.0817 56.7809 23.142 56.5583 23.2628C56.3382 23.3812 56.1642 23.5457 56.0363 23.7564C55.9085 23.9671 55.8445 24.2074 55.8445 24.4773V28H55.2124ZM61.2671 22.5455V23.0959H58.6642V22.5455H61.2671ZM59.4774 21.2386H60.113V26.576C60.113 26.8033 60.1521 26.982 60.2302 27.1122C60.3083 27.2401 60.4101 27.3312 60.5356 27.3857C60.6611 27.4377 60.7948 27.4638 60.9369 27.4638C61.0197 27.4638 61.0908 27.459 61.1499 27.4496C61.2091 27.4377 61.2612 27.4259 61.3062 27.4141L61.4411 27.9858C61.3796 28.0095 61.3038 28.0308 61.2139 28.0497C61.1239 28.071 61.0126 28.0817 60.8801 28.0817C60.6481 28.0817 60.4243 28.0308 60.2089 27.929C59.9958 27.8272 59.8206 27.6757 59.6833 27.4744C59.546 27.2732 59.4774 27.0234 59.4774 26.7251V21.2386ZM62.7098 28V22.5455H63.3454V28H62.7098ZM63.0329 21.608C62.9027 21.608 62.7915 21.5642 62.6991 21.4766C62.6068 21.3866 62.5606 21.2789 62.5606 21.1534C62.5606 21.0279 62.6068 20.9214 62.6991 20.8338C62.7915 20.7438 62.9027 20.6989 63.0329 20.6989C63.1631 20.6989 63.2744 20.7438 63.3667 20.8338C63.4591 20.9214 63.5052 21.0279 63.5052 21.1534C63.5052 21.2789 63.4591 21.3866 63.3667 21.4766C63.2744 21.5642 63.1631 21.608 63.0329 21.608ZM67.1478 28.1136C66.6601 28.1136 66.2352 27.9917 65.873 27.7479C65.5131 27.504 65.2338 27.1702 65.0349 26.7464C64.836 26.3227 64.7366 25.8397 64.7366 25.2976C64.7366 24.7507 64.8372 24.2642 65.0384 23.8381C65.242 23.4119 65.5238 23.0781 65.8836 22.8366C66.2435 22.5928 66.6613 22.4709 67.1372 22.4709C67.5017 22.4709 67.832 22.5419 68.1279 22.6839C68.4239 22.8236 68.6677 23.0213 68.8595 23.277C69.0536 23.5303 69.1755 23.8262 69.2252 24.1648H68.586C68.5197 23.857 68.3599 23.5942 68.1066 23.3764C67.8557 23.1562 67.5361 23.0462 67.1478 23.0462C66.7998 23.0462 66.492 23.1409 66.2245 23.3303C65.957 23.5173 65.7475 23.7789 65.596 24.1151C65.4468 24.4489 65.3722 24.8359 65.3722 25.2763C65.3722 25.719 65.4456 26.1108 65.5924 26.4517C65.7392 26.7902 65.9452 27.0554 66.2103 27.2472C66.4778 27.4389 66.7903 27.5348 67.1478 27.5348C67.3893 27.5348 67.6095 27.4898 67.8083 27.3999C68.0096 27.3075 68.1776 27.1773 68.3126 27.0092C68.4499 26.8411 68.5422 26.6411 68.5896 26.4091H69.2288C69.1814 26.7382 69.0642 27.0317 68.8772 27.2898C68.6926 27.5455 68.4523 27.7467 68.1563 27.8935C67.8628 28.0402 67.5266 28.1136 67.1478 28.1136ZM71.2156 20.7273V28H70.5835V20.7273H71.2156ZM75.0935 28.1136C74.5845 28.1136 74.1441 27.9953 73.7725 27.7585C73.4008 27.5194 73.1131 27.1892 72.9095 26.7678C72.7083 26.344 72.6077 25.8563 72.6077 25.3047C72.6077 24.7554 72.7083 24.2678 72.9095 23.8416C73.1131 23.4131 73.3937 23.0781 73.7512 22.8366C74.111 22.5928 74.5265 22.4709 74.9976 22.4709C75.2935 22.4709 75.5788 22.5253 75.8534 22.6342C76.128 22.7408 76.3743 22.9053 76.5921 23.1278C76.8122 23.348 76.9862 23.6262 77.1141 23.9624C77.2419 24.2962 77.3058 24.6915 77.3058 25.1484V25.4609H73.0445V24.9034H76.6595C76.6595 24.553 76.5885 24.2382 76.4465 23.9588C76.3068 23.6771 76.1115 23.4545 75.8605 23.2912C75.6119 23.1278 75.3243 23.0462 74.9976 23.0462C74.652 23.0462 74.3477 23.1385 74.085 23.3232C73.8222 23.5078 73.6162 23.7517 73.4671 24.0547C73.3203 24.3577 73.2457 24.6892 73.2433 25.049V25.3828C73.2433 25.8161 73.3179 26.1948 73.4671 26.5192C73.6186 26.8411 73.8328 27.0909 74.1098 27.2685C74.3868 27.446 74.7147 27.5348 75.0935 27.5348C75.3515 27.5348 75.5776 27.4946 75.7718 27.4141C75.9682 27.3336 76.1328 27.2259 76.2654 27.0909C76.4003 26.9536 76.5021 26.8033 76.5708 26.6399L77.1709 26.8352C77.088 27.0649 76.9519 27.2768 76.7625 27.4709C76.5755 27.665 76.3411 27.8213 76.0594 27.9396C75.78 28.0556 75.4581 28.1136 75.0935 28.1136ZM82.3635 23.7422L81.7847 23.9055C81.7279 23.7422 81.6474 23.5942 81.5432 23.4616C81.4391 23.3291 81.3029 23.2237 81.1349 23.1456C80.9691 23.0675 80.7632 23.0284 80.517 23.0284C80.1476 23.0284 79.8446 23.116 79.6079 23.2912C79.3711 23.4664 79.2528 23.6925 79.2528 23.9695C79.2528 24.2038 79.3332 24.3944 79.4942 24.5412C79.6576 24.6856 79.9085 24.8004 80.2471 24.8857L81.0709 25.0881C81.5278 25.1993 81.8699 25.3757 82.0972 25.6172C82.3269 25.8587 82.4417 26.1617 82.4417 26.5263C82.4417 26.834 82.3564 27.1075 82.186 27.3466C82.0155 27.5857 81.7776 27.7739 81.4722 27.9112C81.1692 28.0462 80.8176 28.1136 80.4175 28.1136C79.8849 28.1136 79.4457 27.9941 79.1001 27.755C78.7544 27.5135 78.5331 27.1655 78.436 26.7109L79.0432 26.5618C79.1214 26.8861 79.2741 27.1312 79.5013 27.2969C79.731 27.4626 80.0328 27.5455 80.4069 27.5455C80.8259 27.5455 81.1609 27.4519 81.4118 27.2649C81.6628 27.0755 81.7883 26.8388 81.7883 26.5547C81.7883 26.3345 81.7149 26.1499 81.5681 26.0007C81.4213 25.8492 81.1988 25.7379 80.9005 25.6669L80.0091 25.4538C79.5357 25.3402 79.1853 25.1603 78.958 24.9141C78.7307 24.6679 78.6171 24.3625 78.6171 23.9979C78.6171 23.6972 78.6988 23.4332 78.8621 23.206C79.0255 22.9763 79.2504 22.7964 79.5368 22.6662C79.8233 22.536 80.15 22.4709 80.517 22.4709C81.0165 22.4709 81.4154 22.5845 81.7137 22.8118C82.0144 23.0367 82.231 23.3468 82.3635 23.7422ZM88.7583 28.1136C88.2871 28.1136 87.8705 27.9941 87.5083 27.755C87.1484 27.5159 86.8667 27.1856 86.6631 26.7642C86.4595 26.3404 86.3577 25.8516 86.3577 25.2976C86.3577 24.7389 86.4595 24.2476 86.6631 23.8239C86.8667 23.3977 87.1484 23.0663 87.5083 22.8295C87.8705 22.5904 88.2871 22.4709 88.7583 22.4709C89.2294 22.4709 89.6449 22.5904 90.0047 22.8295C90.3646 23.0687 90.6463 23.4001 90.8499 23.8239C91.0558 24.2476 91.1588 24.7389 91.1588 25.2976C91.1588 25.8516 91.057 26.3404 90.8534 26.7642C90.6498 27.1856 90.3669 27.5159 90.0047 27.755C89.6449 27.9941 89.2294 28.1136 88.7583 28.1136ZM88.7583 27.5348C89.137 27.5348 89.4578 27.433 89.7206 27.2294C89.9834 27.0258 90.1823 26.7547 90.3172 26.4162C90.4545 26.0777 90.5232 25.7048 90.5232 25.2976C90.5232 24.8904 90.4545 24.5163 90.3172 24.1754C90.1823 23.8345 89.9834 23.5611 89.7206 23.3551C89.4578 23.1491 89.137 23.0462 88.7583 23.0462C88.3818 23.0462 88.061 23.1491 87.7959 23.3551C87.5331 23.5611 87.3331 23.8345 87.1958 24.1754C87.0608 24.5163 86.9933 24.8904 86.9933 25.2976C86.9933 25.7048 87.0608 26.0777 87.1958 26.4162C87.3331 26.7547 87.5331 27.0258 87.7959 27.2294C88.0587 27.433 88.3795 27.5348 88.7583 27.5348ZM92.5464 28V22.5455H93.1608V23.3835H93.2069C93.3158 23.1089 93.5052 22.8875 93.7751 22.7195C94.0474 22.549 94.3551 22.4638 94.6984 22.4638C94.7505 22.4638 94.8085 22.465 94.8724 22.4673C94.9363 22.4697 94.9896 22.4721 95.0322 22.4744V23.1172C95.0038 23.1125 94.9541 23.1054 94.8831 23.0959C94.8121 23.0864 94.7351 23.0817 94.6523 23.0817C94.3682 23.0817 94.1148 23.142 93.8923 23.2628C93.6721 23.3812 93.4981 23.5457 93.3703 23.7564C93.2425 23.9671 93.1785 24.2074 93.1785 24.4773V28H92.5464ZM18.8328 32.7273V40H18.2007V32.7273H18.8328ZM20.5125 40V34.5455H21.1482V40H20.5125ZM20.8357 33.608C20.7055 33.608 20.5942 33.5642 20.5019 33.4766C20.4095 33.3866 20.3634 33.2789 20.3634 33.1534C20.3634 33.0279 20.4095 32.9214 20.5019 32.8338C20.5942 32.7438 20.7055 32.6989 20.8357 32.6989C20.9659 32.6989 21.0771 32.7438 21.1695 32.8338C21.2618 32.9214 21.308 33.0279 21.308 33.1534C21.308 33.2789 21.2618 33.3866 21.1695 33.4766C21.0771 33.5642 20.9659 33.608 20.8357 33.608ZM23.452 36.5909V40H22.8199V34.5455H23.4342V35.4013H23.491C23.6189 35.1219 23.8177 34.8982 24.0876 34.7301C24.3599 34.5597 24.6961 34.4744 25.0961 34.4744C25.4631 34.4744 25.7851 34.5514 26.0621 34.7053C26.3414 34.8568 26.558 35.0805 26.7119 35.3764C26.8682 35.6723 26.9463 36.0357 26.9463 36.4666V40H26.3142V36.5057C26.3142 36.0582 26.1887 35.7043 25.9378 35.4439C25.6892 35.1835 25.3554 35.0533 24.9363 35.0533C24.6499 35.0533 24.3954 35.1148 24.1729 35.2379C23.9503 35.361 23.7739 35.5386 23.6437 35.7706C23.5159 36.0002 23.452 36.2737 23.452 36.5909ZM29.1862 37.9403L29.1791 37.1129H29.3211L31.8779 34.5455H32.6769L30.1521 37.0739L30.0953 37.0845L29.1862 37.9403ZM28.6109 40V32.7273H29.243V40H28.6109ZM32.0093 40L29.7934 37.1982L30.248 36.7614L32.819 40H32.0093ZM37.5296 35.7422L36.9507 35.9055C36.8939 35.7422 36.8134 35.5942 36.7093 35.4616C36.6051 35.3291 36.469 35.2237 36.3009 35.1456C36.1352 35.0675 35.9292 35.0284 35.683 35.0284C35.3137 35.0284 35.0106 35.116 34.7739 35.2912C34.5371 35.4664 34.4188 35.6925 34.4188 35.9695C34.4188 36.2038 34.4993 36.3944 34.6602 36.5412C34.8236 36.6856 35.0745 36.8004 35.4131 36.8857L36.2369 37.0881C36.6939 37.1993 37.036 37.3757 37.2632 37.6172C37.4929 37.8587 37.6077 38.1617 37.6077 38.5263C37.6077 38.834 37.5225 39.1075 37.352 39.3466C37.1816 39.5857 36.9436 39.7739 36.6382 39.9112C36.3352 40.0462 35.9836 40.1136 35.5835 40.1136C35.0509 40.1136 34.6117 39.9941 34.2661 39.755C33.9204 39.5135 33.6991 39.1655 33.602 38.7109L34.2093 38.5618C34.2874 38.8861 34.4401 39.1312 34.6673 39.2969C34.897 39.4626 35.1988 39.5455 35.5729 39.5455C35.9919 39.5455 36.3269 39.4519 36.5779 39.2649C36.8288 39.0755 36.9543 38.8388 36.9543 38.5547C36.9543 38.3345 36.8809 38.1499 36.7341 38.0007C36.5873 37.8492 36.3648 37.7379 36.0665 37.6669L35.1752 37.4538C34.7017 37.3402 34.3513 37.1603 34.124 36.9141C33.8968 36.6679 33.7831 36.3625 33.7831 35.9979C33.7831 35.6972 33.8648 35.4332 34.0281 35.206C34.1915 34.9763 34.4164 34.7964 34.7029 34.6662C34.9893 34.536 35.316 34.4709 35.683 34.4709C36.1825 34.4709 36.5814 34.5845 36.8797 34.8118C37.1804 35.0367 37.397 35.3468 37.5296 35.7422ZM41.8113 40V34.5455H42.447V40H41.8113ZM42.1345 33.608C42.0043 33.608 41.893 33.5642 41.8007 33.4766C41.7084 33.3866 41.6622 33.2789 41.6622 33.1534C41.6622 33.0279 41.7084 32.9214 41.8007 32.8338C41.893 32.7438 42.0043 32.6989 42.1345 32.6989C42.2647 32.6989 42.376 32.7438 42.4683 32.8338C42.5606 32.9214 42.6068 33.0279 42.6068 33.1534C42.6068 33.2789 42.5606 33.3866 42.4683 33.4766C42.376 33.5642 42.2647 33.608 42.1345 33.608ZM44.1187 40V34.5455H44.733V35.3835H44.7899C44.8988 35.1018 45.0799 34.8804 45.3332 34.7195C45.5889 34.5561 45.8954 34.4744 46.2529 34.4744C46.6294 34.4744 46.9383 34.5632 47.1798 34.7408C47.4236 34.916 47.6059 35.1574 47.7267 35.4652H47.7728C47.8959 35.1622 48.096 34.9219 48.373 34.7443C48.6523 34.5644 48.9909 34.4744 49.3886 34.4744C49.8952 34.4744 50.2953 34.6342 50.5889 34.9538C50.8824 35.2711 51.0292 35.7351 51.0292 36.3459V40H50.3971V36.3459C50.3971 35.915 50.287 35.5919 50.0669 35.3764C49.8467 35.161 49.5567 35.0533 49.1968 35.0533C48.7802 35.0533 48.4594 35.1811 48.2345 35.4368C48.0096 35.6925 47.8971 36.0168 47.8971 36.4098V40H47.2508V36.2891C47.2508 35.9197 47.1478 35.6214 46.9419 35.3942C46.7359 35.1669 46.4459 35.0533 46.0718 35.0533C45.8209 35.0533 45.5948 35.1148 45.3936 35.2379C45.1947 35.361 45.0373 35.5327 44.9213 35.7528C44.8076 35.9706 44.7508 36.2216 44.7508 36.5057V40H44.1187ZM52.7027 42.0455V34.5455H53.317V35.5859H53.3916C53.4674 35.4226 53.5715 35.2557 53.7041 35.0852C53.8367 34.9124 54.0119 34.7668 54.2297 34.6484C54.4498 34.5301 54.7268 34.4709 55.0606 34.4709C55.5104 34.4709 55.9034 34.5893 56.2396 34.826C56.5782 35.0604 56.8409 35.3894 57.028 35.8132C57.2174 36.2346 57.3121 36.7259 57.3121 37.2869C57.3121 37.8504 57.2174 38.344 57.028 38.7678C56.8409 39.1915 56.5782 39.5218 56.2396 39.7585C55.9034 39.9953 55.5128 40.1136 55.0677 40.1136C54.7387 40.1136 54.4629 40.0545 54.2403 39.9361C54.0202 39.8177 53.8414 39.6721 53.7041 39.4993C53.5692 39.3241 53.465 39.1536 53.3916 38.9879H53.3348V42.0455H52.7027ZM53.3277 37.2763C53.3277 37.7166 53.3928 38.1072 53.523 38.4482C53.6556 38.7867 53.845 39.053 54.0912 39.2472C54.3398 39.4389 54.6404 39.5348 54.9932 39.5348C55.3554 39.5348 55.6608 39.4354 55.9094 39.2365C56.1603 39.0353 56.3509 38.7642 56.4811 38.4233C56.6137 38.0824 56.68 37.7 56.68 37.2763C56.68 36.8572 56.6148 36.4796 56.4846 36.1435C56.3568 35.8073 56.1674 35.541 55.9165 35.3445C55.6655 35.1456 55.3577 35.0462 54.9932 35.0462C54.6381 35.0462 54.3362 35.142 54.0876 35.3338C53.839 35.5232 53.6497 35.786 53.5194 36.1222C53.3916 36.456 53.3277 36.8407 53.3277 37.2763ZM59.3309 32.7273V40H58.6988V32.7273H59.3309ZM63.2087 40.1136C62.6997 40.1136 62.2594 39.9953 61.8877 39.7585C61.516 39.5194 61.2284 39.1892 61.0248 38.7678C60.8235 38.344 60.7229 37.8563 60.7229 37.3047C60.7229 36.7554 60.8235 36.2678 61.0248 35.8416C61.2284 35.4131 61.5089 35.0781 61.8664 34.8366C62.2262 34.5928 62.6417 34.4709 63.1128 34.4709C63.4088 34.4709 63.694 34.5253 63.9687 34.6342C64.2433 34.7408 64.4895 34.9053 64.7073 35.1278C64.9275 35.348 65.1015 35.6262 65.2293 35.9624C65.3572 36.2962 65.4211 36.6915 65.4211 37.1484V37.4609H61.1597V36.9034H64.7748C64.7748 36.553 64.7037 36.2382 64.5617 35.9588C64.422 35.6771 64.2267 35.4545 63.9758 35.2912C63.7272 35.1278 63.4395 35.0462 63.1128 35.0462C62.7672 35.0462 62.463 35.1385 62.2002 35.3232C61.9374 35.5078 61.7314 35.7517 61.5823 36.0547C61.4355 36.3577 61.3609 36.6892 61.3586 37.049V37.3828C61.3586 37.8161 61.4331 38.1948 61.5823 38.5192C61.7338 38.8411 61.9481 39.0909 62.2251 39.2685C62.502 39.446 62.8299 39.5348 63.2087 39.5348C63.4668 39.5348 63.6929 39.4946 63.887 39.4141C64.0835 39.3336 64.248 39.2259 64.3806 39.0909C64.5155 38.9536 64.6173 38.8033 64.686 38.6399L65.2861 38.8352C65.2033 39.0649 65.0671 39.2768 64.8778 39.4709C64.6907 39.665 64.4564 39.8213 64.1746 39.9396C63.8953 40.0556 63.5733 40.1136 63.2087 40.1136ZM66.814 40V34.5455H67.4284V35.3835H67.4852C67.5941 35.1018 67.7752 34.8804 68.0285 34.7195C68.2842 34.5561 68.5908 34.4744 68.9482 34.4744C69.3247 34.4744 69.6336 34.5632 69.8751 34.7408C70.1189 34.916 70.3012 35.1574 70.422 35.4652H70.4681C70.5912 35.1622 70.7913 34.9219 71.0683 34.7443C71.3476 34.5644 71.6862 34.4744 72.0839 34.4744C72.5905 34.4744 72.9906 34.6342 73.2842 34.9538C73.5777 35.2711 73.7245 35.7351 73.7245 36.3459V40H73.0924V36.3459C73.0924 35.915 72.9823 35.5919 72.7622 35.3764C72.542 35.161 72.252 35.0533 71.8921 35.0533C71.4755 35.0533 71.1547 35.1811 70.9298 35.4368C70.7049 35.6925 70.5924 36.0168 70.5924 36.4098V40H69.9461V36.2891C69.9461 35.9197 69.8431 35.6214 69.6372 35.3942C69.4312 35.1669 69.1412 35.0533 68.7671 35.0533C68.5162 35.0533 68.2901 35.1148 68.0889 35.2379C67.89 35.361 67.7326 35.5327 67.6166 35.7528C67.5029 35.9706 67.4461 36.2216 67.4461 36.5057V40H66.814ZM77.6032 40.1136C77.0943 40.1136 76.6539 39.9953 76.2822 39.7585C75.9105 39.5194 75.6229 39.1892 75.4193 38.7678C75.2181 38.344 75.1175 37.8563 75.1175 37.3047C75.1175 36.7554 75.2181 36.2678 75.4193 35.8416C75.6229 35.4131 75.9034 35.0781 76.2609 34.8366C76.6208 34.5928 77.0363 34.4709 77.5074 34.4709C77.8033 34.4709 78.0886 34.5253 78.3632 34.6342C78.6378 34.7408 78.884 34.9053 79.1018 35.1278C79.322 35.348 79.496 35.6262 79.6238 35.9624C79.7517 36.2962 79.8156 36.6915 79.8156 37.1484V37.4609H75.5542V36.9034H79.1693C79.1693 36.553 79.0983 36.2382 78.9562 35.9588C78.8166 35.6771 78.6212 35.4545 78.3703 35.2912C78.1217 35.1278 77.8341 35.0462 77.5074 35.0462C77.1617 35.0462 76.8575 35.1385 76.5947 35.3232C76.3319 35.5078 76.126 35.7517 75.9768 36.0547C75.83 36.3577 75.7555 36.6892 75.7531 37.049V37.3828C75.7531 37.8161 75.8277 38.1948 75.9768 38.5192C76.1283 38.8411 76.3426 39.0909 76.6196 39.2685C76.8966 39.446 77.2245 39.5348 77.6032 39.5348C77.8613 39.5348 78.0874 39.4946 78.2815 39.4141C78.478 39.3336 78.6425 39.2259 78.7751 39.0909C78.9101 38.9536 79.0119 38.8033 79.0805 38.6399L79.6807 38.8352C79.5978 39.0649 79.4617 39.2768 79.2723 39.4709C79.0853 39.665 78.8509 39.8213 78.5692 39.9396C78.2898 40.0556 77.9678 40.1136 77.6032 40.1136ZM81.8406 36.5909V40H81.2085V34.5455H81.8229V35.4013H81.8797C82.0075 35.1219 82.2064 34.8982 82.4763 34.7301C82.7485 34.5597 83.0847 34.4744 83.4848 34.4744C83.8518 34.4744 84.1737 34.5514 84.4507 34.7053C84.7301 34.8568 84.9467 35.0805 85.1006 35.3764C85.2568 35.6723 85.335 36.0357 85.335 36.4666V40H84.7029V36.5057C84.7029 36.0582 84.5774 35.7043 84.3264 35.4439C84.0779 35.1835 83.7441 35.0533 83.325 35.0533C83.0386 35.0533 82.7841 35.1148 82.5615 35.2379C82.339 35.361 82.1626 35.5386 82.0324 35.7706C81.9046 36.0002 81.8406 36.2737 81.8406 36.5909ZM89.148 34.5455V35.0959H86.545V34.5455H89.148ZM87.3582 33.2386H87.9939V38.576C87.9939 38.8033 88.0329 38.982 88.1111 39.1122C88.1892 39.2401 88.291 39.3312 88.4165 39.3857C88.5419 39.4377 88.6757 39.4638 88.8177 39.4638C88.9006 39.4638 88.9716 39.459 89.0308 39.4496C89.09 39.4377 89.1421 39.4259 89.1871 39.4141L89.322 39.9858C89.2604 40.0095 89.1847 40.0308 89.0947 40.0497C89.0048 40.071 88.8935 40.0817 88.7609 40.0817C88.5289 40.0817 88.3052 40.0308 88.0898 39.929C87.8767 39.8272 87.7015 39.6757 87.5642 39.4744C87.4269 39.2732 87.3582 39.0234 87.3582 38.7251V33.2386ZM92.7302 40.1136C92.2212 40.1136 91.7809 39.9953 91.4092 39.7585C91.0375 39.5194 90.7499 39.1892 90.5463 38.7678C90.345 38.344 90.2444 37.8563 90.2444 37.3047C90.2444 36.7554 90.345 36.2678 90.5463 35.8416C90.7499 35.4131 91.0304 35.0781 91.3879 34.8366C91.7477 34.5928 92.1632 34.4709 92.6343 34.4709C92.9302 34.4709 93.2155 34.5253 93.4901 34.6342C93.7648 34.7408 94.011 34.9053 94.2288 35.1278C94.449 35.348 94.623 35.6262 94.7508 35.9624C94.8786 36.2962 94.9426 36.6915 94.9426 37.1484V37.4609H90.6812V36.9034H94.2963C94.2963 36.553 94.2252 36.2382 94.0832 35.9588C93.9435 35.6771 93.7482 35.4545 93.4972 35.2912C93.2487 35.1278 92.961 35.0462 92.6343 35.0462C92.2887 35.0462 91.9845 35.1385 91.7217 35.3232C91.4589 35.5078 91.2529 35.7517 91.1038 36.0547C90.957 36.3577 90.8824 36.6892 90.8801 37.049V37.3828C90.8801 37.8161 90.9546 38.1948 91.1038 38.5192C91.2553 38.8411 91.4695 39.0909 91.7465 39.2685C92.0235 39.446 92.3514 39.5348 92.7302 39.5348C92.9883 39.5348 93.2143 39.4946 93.4085 39.4141C93.605 39.3336 93.7695 39.2259 93.9021 39.0909C94.037 38.9536 94.1388 38.8033 94.2075 38.6399L94.8076 38.8352C94.7248 39.0649 94.5886 39.2768 94.3992 39.4709C94.2122 39.665 93.9778 39.8213 93.6961 39.9396C93.4168 40.0556 93.0948 40.1136 92.7302 40.1136ZM98.2993 40.1136C97.8518 40.1136 97.46 39.9953 97.1238 39.7585C96.7877 39.5218 96.5249 39.1915 96.3355 38.7678C96.1485 38.344 96.055 37.8504 96.055 37.2869C96.055 36.7259 96.1485 36.2346 96.3355 35.8132C96.5249 35.3894 96.7889 35.0604 97.1274 34.826C97.4659 34.5893 97.8601 34.4709 98.3099 34.4709C98.6414 34.4709 98.9172 34.5301 99.1373 34.6484C99.3575 34.7644 99.5339 34.9089 99.6665 35.0817C99.799 35.2545 99.902 35.4226 99.9754 35.5859H100.032V32.7273H100.668V40H100.05V38.9879H99.9754C99.902 39.1536 99.7979 39.3241 99.6629 39.4993C99.528 39.6721 99.3492 39.8177 99.1267 39.9361C98.9065 40.0545 98.6307 40.1136 98.2993 40.1136ZM98.3738 39.5348C98.7266 39.5348 99.0273 39.4389 99.2758 39.2472C99.5244 39.053 99.7138 38.7867 99.844 38.4482C99.9766 38.1072 100.043 37.7166 100.043 37.2763C100.043 36.8407 99.9778 36.456 99.8476 36.1222C99.7174 35.786 99.528 35.5232 99.2794 35.3338C99.0308 35.142 98.729 35.0462 98.3738 35.0462C98.0093 35.0462 97.7015 35.1456 97.4506 35.3445C97.202 35.541 97.0126 35.8073 96.8824 36.1435C96.7545 36.4796 96.6906 36.8572 96.6906 37.2763C96.6906 37.7 96.7557 38.0824 96.8859 38.4233C97.0161 38.7642 97.2055 39.0353 97.4541 39.2365C97.705 39.4354 98.0116 39.5348 98.3738 39.5348ZM35.1254 52.1136C34.6543 52.1136 34.2377 51.9941 33.8754 51.755C33.5156 51.5159 33.2339 51.1856 33.0303 50.7642C32.8267 50.3404 32.7249 49.8516 32.7249 49.2976C32.7249 48.7389 32.8267 48.2476 33.0303 47.8239C33.2339 47.3977 33.5156 47.0663 33.8754 46.8295C34.2377 46.5904 34.6543 46.4709 35.1254 46.4709C35.5966 46.4709 36.012 46.5904 36.3719 46.8295C36.7317 47.0687 37.0135 47.4001 37.2171 47.8239C37.423 48.2476 37.526 48.7389 37.526 49.2976C37.526 49.8516 37.4242 50.3404 37.2206 50.7642C37.017 51.1856 36.7341 51.5159 36.3719 51.755C36.012 51.9941 35.5966 52.1136 35.1254 52.1136ZM35.1254 51.5348C35.5042 51.5348 35.825 51.433 36.0878 51.2294C36.3506 51.0258 36.5494 50.7547 36.6844 50.4162C36.8217 50.0777 36.8904 49.7048 36.8904 49.2976C36.8904 48.8904 36.8217 48.5163 36.6844 48.1754C36.5494 47.8345 36.3506 47.5611 36.0878 47.3551C35.825 47.1491 35.5042 47.0462 35.1254 47.0462C34.749 47.0462 34.4282 47.1491 34.1631 47.3551C33.9003 47.5611 33.7003 47.8345 33.5629 48.1754C33.428 48.5163 33.3605 48.8904 33.3605 49.2976C33.3605 49.7048 33.428 50.0777 33.5629 50.4162C33.7003 50.7547 33.9003 51.0258 34.1631 51.2294C34.4259 51.433 34.7467 51.5348 35.1254 51.5348ZM39.5457 48.5909V52H38.9136V46.5455H39.528V47.4013H39.5848C39.7126 47.1219 39.9115 46.8982 40.1814 46.7301C40.4536 46.5597 40.7898 46.4744 41.1899 46.4744C41.5568 46.4744 41.8788 46.5514 42.1558 46.7053C42.4352 46.8568 42.6518 47.0805 42.8057 47.3764C42.9619 47.6723 43.04 48.0357 43.04 48.4666V52H42.4079V48.5057C42.4079 48.0582 42.2825 47.7043 42.0315 47.4439C41.7829 47.1835 41.4491 47.0533 41.0301 47.0533C40.7436 47.0533 40.4891 47.1148 40.2666 47.2379C40.0441 47.361 39.8677 47.5386 39.7375 47.7706C39.6096 48.0002 39.5457 48.2737 39.5457 48.5909ZM47.6485 44.7273H48.4156L51.0541 51.0625H51.118L53.7565 44.7273H54.5235V52H53.8985V46.13H53.8417L51.3879 52H50.7842L48.3303 46.13H48.2735V52H47.6485V44.7273ZM58.531 52.1136C58.022 52.1136 57.5816 51.9953 57.21 51.7585C56.8383 51.5194 56.5506 51.1892 56.347 50.7678C56.1458 50.344 56.0452 49.8563 56.0452 49.3047C56.0452 48.7554 56.1458 48.2678 56.347 47.8416C56.5506 47.4131 56.8312 47.0781 57.1887 46.8366C57.5485 46.5928 57.964 46.4709 58.4351 46.4709C58.731 46.4709 59.0163 46.5253 59.2909 46.6342C59.5655 46.7408 59.8118 46.9053 60.0296 47.1278C60.2497 47.348 60.4237 47.6262 60.5516 47.9624C60.6794 48.2962 60.7433 48.6915 60.7433 49.1484V49.4609H56.482V48.9034H60.097C60.097 48.553 60.026 48.2382 59.884 47.9588C59.7443 47.6771 59.549 47.4545 59.298 47.2912C59.0494 47.1278 58.7618 47.0462 58.4351 47.0462C58.0895 47.0462 57.7852 47.1385 57.5225 47.3232C57.2597 47.5078 57.0537 47.7517 56.9046 48.0547C56.7578 48.3577 56.6832 48.6892 56.6808 49.049V49.3828C56.6808 49.8161 56.7554 50.1948 56.9046 50.5192C57.0561 50.8411 57.2703 51.0909 57.5473 51.2685C57.8243 51.446 58.1522 51.5348 58.531 51.5348C58.789 51.5348 59.0151 51.4946 59.2093 51.4141C59.4057 51.3336 59.5703 51.2259 59.7029 51.0909C59.8378 50.9536 59.9396 50.8033 60.0083 50.6399L60.6084 50.8352C60.5255 51.0649 60.3894 51.2768 60.2 51.4709C60.013 51.665 59.7786 51.8213 59.4969 51.9396C59.2175 52.0556 58.8956 52.1136 58.531 52.1136ZM64.1001 52.1136C63.6526 52.1136 63.2608 51.9953 62.9246 51.7585C62.5885 51.5218 62.3257 51.1915 62.1363 50.7678C61.9492 50.344 61.8557 49.8504 61.8557 49.2869C61.8557 48.7259 61.9492 48.2346 62.1363 47.8132C62.3257 47.3894 62.5896 47.0604 62.9282 46.826C63.2667 46.5893 63.6609 46.4709 64.1107 46.4709C64.4421 46.4709 64.718 46.5301 64.9381 46.6484C65.1583 46.7644 65.3347 46.9089 65.4672 47.0817C65.5998 47.2545 65.7028 47.4226 65.7762 47.5859H65.833V44.7273H66.4687V52H65.8508V50.9879H65.7762C65.7028 51.1536 65.5986 51.3241 65.4637 51.4993C65.3287 51.6721 65.15 51.8177 64.9275 51.9361C64.7073 52.0545 64.4315 52.1136 64.1001 52.1136ZM64.1746 51.5348C64.5274 51.5348 64.828 51.4389 65.0766 51.2472C65.3252 51.053 65.5146 50.7867 65.6448 50.4482C65.7774 50.1072 65.8437 49.7166 65.8437 49.2763C65.8437 48.8407 65.7786 48.456 65.6483 48.1222C65.5181 47.786 65.3287 47.5232 65.0802 47.3338C64.8316 47.142 64.5297 47.0462 64.1746 47.0462C63.81 47.0462 63.5023 47.1456 63.2513 47.3445C63.0028 47.541 62.8134 47.8073 62.6831 48.1435C62.5553 48.4796 62.4914 48.8572 62.4914 49.2763C62.4914 49.7 62.5565 50.0824 62.6867 50.4233C62.8169 50.7642 63.0063 51.0353 63.2549 51.2365C63.5058 51.4354 63.8124 51.5348 64.1746 51.5348ZM68.2762 52V46.5455H68.9118V52H68.2762ZM68.5993 45.608C68.4691 45.608 68.3579 45.5642 68.2655 45.4766C68.1732 45.3866 68.127 45.2789 68.127 45.1534C68.127 45.0279 68.1732 44.9214 68.2655 44.8338C68.3579 44.7438 68.4691 44.6989 68.5993 44.6989C68.7296 44.6989 68.8408 44.7438 68.9331 44.8338C69.0255 44.9214 69.0716 45.0279 69.0716 45.1534C69.0716 45.2789 69.0255 45.3866 68.9331 45.4766C68.8408 45.5642 68.7296 45.608 68.5993 45.608ZM74.0494 49.9155V46.5455H74.6816V52H74.0494V51.0945H73.9997C73.8719 51.3738 73.6695 51.607 73.3925 51.794C73.1155 51.9787 72.777 52.071 72.3769 52.071C72.0289 52.071 71.7199 51.9953 71.45 51.8438C71.1801 51.6899 70.9682 51.465 70.8144 51.169C70.6605 50.8731 70.5835 50.5097 70.5835 50.0788V46.5455H71.2156V50.0398C71.2156 50.4659 71.3411 50.8092 71.5921 51.0696C71.843 51.3277 72.165 51.4567 72.558 51.4567C72.8042 51.4567 73.0409 51.3975 73.2682 51.2791C73.4955 51.1607 73.6825 50.9879 73.8293 50.7607C73.9761 50.531 74.0494 50.2493 74.0494 49.9155ZM76.355 52V46.5455H76.9694V47.3835H77.0262C77.1351 47.1018 77.3162 46.8804 77.5695 46.7195C77.8252 46.5561 78.1318 46.4744 78.4893 46.4744C78.8657 46.4744 79.1746 46.5632 79.4161 46.7408C79.6599 46.916 79.8422 47.1574 79.963 47.4652H80.0091C80.1323 47.1622 80.3323 46.9219 80.6093 46.7443C80.8886 46.5644 81.2272 46.4744 81.6249 46.4744C82.1315 46.4744 82.5316 46.6342 82.8252 46.9538C83.1188 47.2711 83.2655 47.7351 83.2655 48.3459V52H82.6334V48.3459C82.6334 47.915 82.5233 47.5919 82.3032 47.3764C82.083 47.161 81.793 47.0533 81.4332 47.0533C81.0165 47.0533 80.6957 47.1811 80.4708 47.4368C80.2459 47.6925 80.1334 48.0168 80.1334 48.4098V52H79.4871V48.2891C79.4871 47.9197 79.3841 47.6214 79.1782 47.3942C78.9722 47.1669 78.6822 47.0533 78.3081 47.0533C78.0572 47.0533 77.8311 47.1148 77.6299 47.2379C77.431 47.361 77.2736 47.5327 77.1576 47.7528C77.0439 47.9706 76.9871 48.2216 76.9871 48.5057V52H76.355ZM85.9901 51.0057L85.9262 51.3857C85.886 51.6413 85.8292 51.9231 85.7558 52.2308C85.6824 52.5386 85.6066 52.831 85.5285 53.108C85.4504 53.3849 85.3829 53.6075 85.3261 53.7756H84.8396C84.8704 53.6146 84.9094 53.4098 84.9568 53.1612C85.0065 52.9126 85.0574 52.6368 85.1095 52.3338C85.1615 52.0331 85.2089 51.723 85.2515 51.4034L85.3012 51.0057H85.9901ZM17.4923 64V56.7273H19.8396C20.3557 56.7273 20.7865 56.8208 21.1322 57.0078C21.4802 57.1925 21.7418 57.4493 21.917 57.7784C22.0945 58.1051 22.1833 58.4804 22.1833 58.9041C22.1833 59.3279 22.0945 59.7019 21.917 60.0263C21.7418 60.3506 21.4814 60.6039 21.1357 60.7862C20.7901 60.9685 20.3616 61.0597 19.8502 61.0597H17.8509V60.4524H19.8325C20.2113 60.4524 20.5261 60.3897 20.7771 60.2642C21.0304 60.1387 21.2186 59.96 21.3417 59.728C21.4672 59.496 21.5299 59.2214 21.5299 58.9041C21.5299 58.5869 21.4672 58.3099 21.3417 58.0732C21.2162 57.834 21.0268 57.6494 20.7735 57.5192C20.5226 57.389 20.2053 57.3239 19.8218 57.3239H18.1563V64H17.4923ZM20.699 60.7188L22.4887 64H21.7217L19.9497 60.7188H20.699ZM25.8161 64.1136C25.3071 64.1136 24.8668 63.9953 24.4951 63.7585C24.1234 63.5194 23.8358 63.1892 23.6322 62.7678C23.431 62.344 23.3303 61.8563 23.3303 61.3047C23.3303 60.7554 23.431 60.2678 23.6322 59.8416C23.8358 59.4131 24.1163 59.0781 24.4738 58.8366C24.8337 58.5928 25.2491 58.4709 25.7203 58.4709C26.0162 58.4709 26.3015 58.5253 26.5761 58.6342C26.8507 58.7408 27.0969 58.9053 27.3147 59.1278C27.5349 59.348 27.7089 59.6262 27.8367 59.9624C27.9646 60.2962 28.0285 60.6915 28.0285 61.1484V61.4609H23.7671V60.9034H27.3822C27.3822 60.553 27.3112 60.2382 27.1691 59.9588C27.0294 59.6771 26.8341 59.4545 26.5832 59.2912C26.3346 59.1278 26.047 59.0462 25.7203 59.0462C25.3746 59.0462 25.0704 59.1385 24.8076 59.3232C24.5448 59.5078 24.3389 59.7517 24.1897 60.0547C24.0429 60.3577 23.9684 60.6892 23.966 61.049V61.3828C23.966 61.8161 24.0406 62.1948 24.1897 62.5192C24.3412 62.8411 24.5555 63.0909 24.8325 63.2685C25.1095 63.446 25.4374 63.5348 25.8161 63.5348C26.0742 63.5348 26.3003 63.4946 26.4944 63.4141C26.6909 63.3336 26.8554 63.2259 26.988 63.0909C27.123 62.9536 27.2248 62.8033 27.2934 62.6399L27.8936 62.8352C27.8107 63.0649 27.6746 63.2768 27.4852 63.4709C27.2981 63.665 27.0638 63.8213 26.782 63.9396C26.5027 64.0556 26.1807 64.1136 25.8161 64.1136ZM31.3852 64.1136C30.9378 64.1136 30.546 63.9953 30.2098 63.7585C29.8736 63.5218 29.6108 63.1915 29.4214 62.7678C29.2344 62.344 29.1409 61.8504 29.1409 61.2869C29.1409 60.7259 29.2344 60.2346 29.4214 59.8132C29.6108 59.3894 29.8748 59.0604 30.2133 58.826C30.5519 58.5893 30.9461 58.4709 31.3959 58.4709C31.7273 58.4709 32.0031 58.5301 32.2233 58.6484C32.4434 58.7644 32.6198 58.9089 32.7524 59.0817C32.885 59.2545 32.988 59.4226 33.0613 59.5859H33.1182V56.7273H33.7538V64H33.1359V62.9879H33.0613C32.988 63.1536 32.8838 63.3241 32.7488 63.4993C32.6139 63.6721 32.4352 63.8177 32.2126 63.9361C31.9925 64.0545 31.7166 64.1136 31.3852 64.1136ZM31.4598 63.5348C31.8125 63.5348 32.1132 63.4389 32.3618 63.2472C32.6104 63.053 32.7997 62.7867 32.93 62.4482C33.0625 62.1072 33.1288 61.7166 33.1288 61.2763C33.1288 60.8407 33.0637 60.456 32.9335 60.1222C32.8033 59.786 32.6139 59.5232 32.3653 59.3338C32.1167 59.142 31.8149 59.0462 31.4598 59.0462C31.0952 59.0462 30.7874 59.1456 30.5365 59.3445C30.2879 59.541 30.0985 59.8073 29.9683 60.1435C29.8405 60.4796 29.7765 60.8572 29.7765 61.2763C29.7765 61.7 29.8416 62.0824 29.9719 62.4233C30.1021 62.7642 30.2915 63.0353 30.54 63.2365C30.791 63.4354 31.0976 63.5348 31.4598 63.5348ZM37.518 64.1136C37.0706 64.1136 36.6788 63.9953 36.3426 63.7585C36.0064 63.5218 35.7436 63.1915 35.5542 62.7678C35.3672 62.344 35.2737 61.8504 35.2737 61.2869C35.2737 60.7259 35.3672 60.2346 35.5542 59.8132C35.7436 59.3894 36.0076 59.0604 36.3461 58.826C36.6847 58.5893 37.0789 58.4709 37.5287 58.4709C37.8601 58.4709 38.1359 58.5301 38.3561 58.6484C38.5763 58.7644 38.7526 58.9089 38.8852 59.0817C39.0178 59.2545 39.1208 59.4226 39.1942 59.5859H39.251V56.7273H39.8866V64H39.2687V62.9879H39.1942C39.1208 63.1536 39.0166 63.3241 38.8817 63.4993C38.7467 63.6721 38.568 63.8177 38.3454 63.9361C38.1253 64.0545 37.8495 64.1136 37.518 64.1136ZM37.5926 63.5348C37.9453 63.5348 38.246 63.4389 38.4946 63.2472C38.7432 63.053 38.9326 62.7867 39.0628 62.4482C39.1953 62.1072 39.2616 61.7166 39.2616 61.2763C39.2616 60.8407 39.1965 60.456 39.0663 60.1222C38.9361 59.786 38.7467 59.5232 38.4981 59.3338C38.2496 59.142 37.9477 59.0462 37.5926 59.0462C37.228 59.0462 36.9202 59.1456 36.6693 59.3445C36.4207 59.541 36.2313 59.8073 36.1011 60.1435C35.9733 60.4796 35.9094 60.8572 35.9094 61.2763C35.9094 61.7 35.9745 62.0824 36.1047 62.4233C36.2349 62.7642 36.4243 63.0353 36.6729 63.2365C36.9238 63.4354 37.2304 63.5348 37.5926 63.5348ZM41.6942 64V58.5455H42.3298V64H41.6942ZM42.0173 57.608C41.8871 57.608 41.7758 57.5642 41.6835 57.4766C41.5912 57.3866 41.545 57.2789 41.545 57.1534C41.545 57.0279 41.5912 56.9214 41.6835 56.8338C41.7758 56.7438 41.8871 56.6989 42.0173 56.6989C42.1475 56.6989 42.2588 56.7438 42.3511 56.8338C42.4434 56.9214 42.4896 57.0279 42.4896 57.1534C42.4896 57.2789 42.4434 57.3866 42.3511 57.4766C42.2588 57.5642 42.1475 57.608 42.0173 57.608ZM46.1499 58.5455V59.0959H43.547V58.5455H46.1499ZM44.3602 57.2386H44.9958V62.576C44.9958 62.8033 45.0349 62.982 45.113 63.1122C45.1911 63.2401 45.2929 63.3312 45.4184 63.3857C45.5439 63.4377 45.6776 63.4638 45.8197 63.4638C45.9026 63.4638 45.9736 63.459 46.0328 63.4496C46.0919 63.4377 46.144 63.4259 46.189 63.4141L46.324 63.9858C46.2624 64.0095 46.1866 64.0308 46.0967 64.0497C46.0067 64.071 45.8954 64.0817 45.7629 64.0817C45.5309 64.0817 45.3071 64.0308 45.0917 63.929C44.8786 63.8272 44.7035 63.6757 44.5661 63.4744C44.4288 63.2732 44.3602 63.0234 44.3602 62.7251V57.2386ZM52.518 64.1136C52.0469 64.1136 51.6302 63.9941 51.268 63.755C50.9082 63.5159 50.6265 63.1856 50.4229 62.7642C50.2193 62.3404 50.1175 61.8516 50.1175 61.2976C50.1175 60.7389 50.2193 60.2476 50.4229 59.8239C50.6265 59.3977 50.9082 59.0663 51.268 58.8295C51.6302 58.5904 52.0469 58.4709 52.518 58.4709C52.9891 58.4709 53.4046 58.5904 53.7645 58.8295C54.1243 59.0687 54.406 59.4001 54.6096 59.8239C54.8156 60.2476 54.9186 60.7389 54.9186 61.2976C54.9186 61.8516 54.8168 62.3404 54.6132 62.7642C54.4096 63.1856 54.1267 63.5159 53.7645 63.755C53.4046 63.9941 52.9891 64.1136 52.518 64.1136ZM52.518 63.5348C52.8968 63.5348 53.2176 63.433 53.4804 63.2294C53.7432 63.0258 53.942 62.7547 54.077 62.4162C54.2143 62.0777 54.2829 61.7048 54.2829 61.2976C54.2829 60.8904 54.2143 60.5163 54.077 60.1754C53.942 59.8345 53.7432 59.5611 53.4804 59.3551C53.2176 59.1491 52.8968 59.0462 52.518 59.0462C52.1416 59.0462 51.8208 59.1491 51.5557 59.3551C51.2929 59.5611 51.0928 59.8345 50.9555 60.1754C50.8206 60.5163 50.7531 60.8904 50.7531 61.2976C50.7531 61.7048 50.8206 62.0777 50.9555 62.4162C51.0928 62.7547 51.2929 63.0258 51.5557 63.2294C51.8184 63.433 52.1392 63.5348 52.518 63.5348ZM56.3062 64V58.5455H56.9205V59.3835H56.9667C57.0756 59.1089 57.265 58.8875 57.5349 58.7195C57.8071 58.549 58.1149 58.4638 58.4582 58.4638C58.5103 58.4638 58.5683 58.465 58.6322 58.4673C58.6961 58.4697 58.7494 58.4721 58.792 58.4744V59.1172C58.7636 59.1125 58.7139 59.1054 58.6428 59.0959C58.5718 59.0864 58.4949 59.0817 58.412 59.0817C58.1279 59.0817 57.8746 59.142 57.6521 59.2628C57.4319 59.3812 57.2579 59.5457 57.1301 59.7564C57.0022 59.9671 56.9383 60.2074 56.9383 60.4773V64H56.3062ZM65.5383 61.7273H66.2769L67.2073 62.9595L67.3635 63.1655L68.507 64.6818H67.7684L66.9303 63.5632L66.7812 63.3643L65.5383 61.7273ZM68.7769 60.3636C68.7769 61.1212 68.642 61.7805 68.3721 62.3416C68.1022 62.9003 67.7305 63.3336 67.257 63.6413C66.7859 63.9467 66.2438 64.0994 65.6306 64.0994C65.0174 64.0994 64.4741 63.9467 64.0006 63.6413C63.5295 63.3336 63.159 62.9003 62.8891 62.3416C62.6216 61.7805 62.4878 61.1212 62.4878 60.3636C62.4878 59.6061 62.6216 58.9479 62.8891 58.3892C63.159 57.8281 63.5307 57.3949 64.0042 57.0895C64.4777 56.7817 65.0198 56.6278 65.6306 56.6278C66.2438 56.6278 66.7859 56.7817 67.257 57.0895C67.7305 57.3949 68.1022 57.8281 68.3721 58.3892C68.642 58.9479 68.7769 59.6061 68.7769 60.3636ZM68.1306 60.3636C68.1306 59.7126 68.0217 59.1551 67.8039 58.6911C67.5861 58.2247 67.289 57.8684 66.9126 57.6222C66.5361 57.3759 66.1088 57.2528 65.6306 57.2528C65.1547 57.2528 64.7286 57.3759 64.3522 57.6222C63.9758 57.8684 63.6775 58.2235 63.4573 58.6875C63.2395 59.1515 63.1306 59.7102 63.1306 60.3636C63.1306 61.0147 63.2395 61.5722 63.4573 62.0362C63.6751 62.5002 63.9722 62.8565 64.3486 63.1051C64.7251 63.3513 65.1524 63.4744 65.6306 63.4744C66.1088 63.4744 66.5361 63.3513 66.9126 63.1051C67.2913 62.8589 67.5896 62.5038 67.8074 62.0398C68.0252 61.5734 68.133 61.0147 68.1306 60.3636ZM73.7174 61.9155V58.5455H74.3495V64H73.7174V63.0945H73.6677C73.5399 63.3738 73.3374 63.607 73.0605 63.794C72.7835 63.9787 72.4449 64.071 72.0448 64.071C71.6968 64.071 71.3879 63.9953 71.118 63.8438C70.8481 63.6899 70.6362 63.465 70.4823 63.169C70.3285 62.8731 70.2515 62.5097 70.2515 62.0788V58.5455H70.8836V62.0398C70.8836 62.4659 71.0091 62.8092 71.26 63.0696C71.511 63.3277 71.8329 63.4567 72.2259 63.4567C72.4722 63.4567 72.7089 63.3975 72.9362 63.2791C73.1634 63.1607 73.3505 62.9879 73.4972 62.7607C73.644 62.531 73.7174 62.2493 73.7174 61.9155ZM78.143 64.1136C77.6719 64.1136 77.2552 63.9941 76.893 63.755C76.5332 63.5159 76.2515 63.1856 76.0479 62.7642C75.8443 62.3404 75.7425 61.8516 75.7425 61.2976C75.7425 60.7389 75.8443 60.2476 76.0479 59.8239C76.2515 59.3977 76.5332 59.0663 76.893 58.8295C77.2552 58.5904 77.6719 58.4709 78.143 58.4709C78.6141 58.4709 79.0296 58.5904 79.3895 58.8295C79.7493 59.0687 80.031 59.4001 80.2346 59.8239C80.4406 60.2476 80.5436 60.7389 80.5436 61.2976C80.5436 61.8516 80.4418 62.3404 80.2382 62.7642C80.0346 63.1856 79.7517 63.5159 79.3895 63.755C79.0296 63.9941 78.6141 64.1136 78.143 64.1136ZM78.143 63.5348C78.5218 63.5348 78.8426 63.433 79.1054 63.2294C79.3682 63.0258 79.567 62.7547 79.702 62.4162C79.8393 62.0777 79.9079 61.7048 79.9079 61.2976C79.9079 60.8904 79.8393 60.5163 79.702 60.1754C79.567 59.8345 79.3682 59.5611 79.1054 59.3551C78.8426 59.1491 78.5218 59.0462 78.143 59.0462C77.7666 59.0462 77.4458 59.1491 77.1807 59.3551C76.9179 59.5611 76.7178 59.8345 76.5805 60.1754C76.4456 60.5163 76.3781 60.8904 76.3781 61.2976C76.3781 61.7048 76.4456 62.0777 76.5805 62.4162C76.7178 62.7547 76.9179 63.0258 77.1807 63.2294C77.4434 63.433 77.7642 63.5348 78.143 63.5348ZM81.9312 64V58.5455H82.5455V59.3835H82.5917C82.7006 59.1089 82.89 58.8875 83.1599 58.7195C83.4321 58.549 83.7399 58.4638 84.0832 58.4638C84.1353 58.4638 84.1933 58.465 84.2572 58.4673C84.3211 58.4697 84.3744 58.4721 84.417 58.4744V59.1172C84.3886 59.1125 84.3389 59.1054 84.2678 59.0959C84.1968 59.0864 84.1199 59.0817 84.037 59.0817C83.7529 59.0817 83.4996 59.142 83.2771 59.2628C83.0569 59.3812 82.8829 59.5457 82.7551 59.7564C82.6272 59.9671 82.5633 60.2074 82.5633 60.4773V64H81.9312ZM87.0191 64.1243C86.69 64.1243 86.3894 64.0604 86.1171 63.9325C85.8448 63.8023 85.6282 63.6153 85.4672 63.3714C85.3063 63.1252 85.2258 62.8269 85.2258 62.4766C85.2258 62.2067 85.2767 61.9794 85.3785 61.7947C85.4803 61.6101 85.6247 61.4586 85.8117 61.3402C85.9987 61.2218 86.2201 61.1283 86.4758 61.0597C86.7314 60.991 87.0132 60.9377 87.3209 60.8999C87.6263 60.862 87.8844 60.8288 88.0951 60.8004C88.3081 60.772 88.4703 60.727 88.5816 60.6655C88.6929 60.6039 88.7485 60.5045 88.7485 60.3672V60.2393C88.7485 59.8677 88.6372 59.5753 88.4147 59.3622C88.1945 59.1468 87.8773 59.0391 87.463 59.0391C87.07 59.0391 86.7492 59.1255 86.5006 59.2983C86.2544 59.4711 86.0816 59.6747 85.9822 59.9091L85.382 59.6925C85.5051 59.3942 85.6756 59.1562 85.8934 58.9787C86.1112 58.7988 86.355 58.6697 86.6249 58.5916C86.8948 58.5111 87.1682 58.4709 87.4452 58.4709C87.6536 58.4709 87.8702 58.4981 88.0951 58.5526C88.3224 58.607 88.5331 58.7017 88.7272 58.8366C88.9213 58.9692 89.0787 59.1551 89.1995 59.3942C89.3202 59.6309 89.3806 59.9316 89.3806 60.2962V64H88.7485V63.1371H88.7094C88.6337 63.2981 88.5212 63.4543 88.3721 63.6058C88.2229 63.7573 88.0359 63.8816 87.811 63.9787C87.5861 64.0758 87.3221 64.1243 87.0191 64.1243ZM87.1043 63.5455C87.4405 63.5455 87.7317 63.4709 87.9779 63.3217C88.2241 63.1726 88.4135 62.9749 88.5461 62.7287C88.681 62.4801 88.7485 62.2067 88.7485 61.9084V61.12C88.7011 61.165 88.6218 61.2053 88.5106 61.2408C88.4017 61.2763 88.275 61.3082 88.1306 61.3366C87.9885 61.3627 87.8465 61.3852 87.7045 61.4041C87.5624 61.4231 87.4346 61.4396 87.3209 61.4538C87.0132 61.4917 86.7504 61.5509 86.5326 61.6314C86.3148 61.7119 86.1479 61.8232 86.0319 61.9652C85.9159 62.1049 85.8579 62.2848 85.8579 62.505C85.8579 62.8364 85.9762 63.0933 86.213 63.2756C86.4497 63.4555 86.7468 63.5455 87.1043 63.5455ZM96.023 58.5455V59.0959H93.42V58.5455H96.023ZM94.2332 57.2386H94.8689V62.576C94.8689 62.8033 94.9079 62.982 94.9861 63.1122C95.0642 63.2401 95.166 63.3312 95.2915 63.3857C95.4169 63.4377 95.5507 63.4638 95.6927 63.4638C95.7756 63.4638 95.8466 63.459 95.9058 63.4496C95.965 63.4377 96.0171 63.4259 96.0621 63.4141L96.197 63.9858C96.1354 64.0095 96.0597 64.0308 95.9697 64.0497C95.8798 64.071 95.7685 64.0817 95.6359 64.0817C95.4039 64.0817 95.1802 64.0308 94.9648 63.929C94.7517 63.8272 94.5765 63.6757 94.4392 63.4744C94.3019 63.2732 94.2332 63.0234 94.2332 62.7251V57.2386ZM99.52 64.1136C99.0489 64.1136 98.6322 63.9941 98.27 63.755C97.9101 63.5159 97.6284 63.1856 97.4248 62.7642C97.2212 62.3404 97.1194 61.8516 97.1194 61.2976C97.1194 60.7389 97.2212 60.2476 97.4248 59.8239C97.6284 59.3977 97.9101 59.0663 98.27 58.8295C98.6322 58.5904 99.0489 58.4709 99.52 58.4709C99.9911 58.4709 100.407 58.5904 100.766 58.8295C101.126 59.0687 101.408 59.4001 101.612 59.8239C101.818 60.2476 101.921 60.7389 101.921 61.2976C101.921 61.8516 101.819 62.3404 101.615 62.7642C101.412 63.1856 101.129 63.5159 100.766 63.755C100.407 63.9941 99.9911 64.1136 99.52 64.1136ZM99.52 63.5348C99.8988 63.5348 100.22 63.433 100.482 63.2294C100.745 63.0258 100.944 62.7547 101.079 62.4162C101.216 62.0777 101.285 61.7048 101.285 61.2976C101.285 60.8904 101.216 60.5163 101.079 60.1754C100.944 59.8345 100.745 59.5611 100.482 59.3551C100.22 59.1491 99.8988 59.0462 99.52 59.0462C99.1436 59.0462 98.8228 59.1491 98.5576 59.3551C98.2948 59.5611 98.0948 59.8345 97.9575 60.1754C97.8225 60.5163 97.7551 60.8904 97.7551 61.2976C97.7551 61.7048 97.8225 62.0777 97.9575 62.4162C98.0948 62.7547 98.2948 63.0258 98.5576 63.2294C98.8204 63.433 99.1412 63.5348 99.52 63.5348ZM36.4478 76.1243C36.1187 76.1243 35.8181 76.0604 35.5458 75.9325C35.2736 75.8023 35.0569 75.6153 34.896 75.3714C34.735 75.1252 34.6545 74.8269 34.6545 74.4766C34.6545 74.2067 34.7054 73.9794 34.8072 73.7947C34.909 73.6101 35.0534 73.4586 35.2404 73.3402C35.4274 73.2218 35.6488 73.1283 35.9045 73.0597C36.1602 72.991 36.4419 72.9377 36.7496 72.8999C37.055 72.862 37.3131 72.8288 37.5238 72.8004C37.7369 72.772 37.899 72.727 38.0103 72.6655C38.1216 72.6039 38.1772 72.5045 38.1772 72.3672V72.2393C38.1772 71.8677 38.0659 71.5753 37.8434 71.3622C37.6232 71.1468 37.306 71.0391 36.8917 71.0391C36.4987 71.0391 36.1779 71.1255 35.9293 71.2983C35.6831 71.4711 35.5103 71.6747 35.4109 71.9091L34.8107 71.6925C34.9338 71.3942 35.1043 71.1562 35.3221 70.9787C35.5399 70.7988 35.7837 70.6697 36.0536 70.5916C36.3235 70.5111 36.5969 70.4709 36.8739 70.4709C37.0823 70.4709 37.2989 70.4981 37.5238 70.5526C37.7511 70.607 37.9618 70.7017 38.1559 70.8366C38.35 70.9692 38.5075 71.1551 38.6282 71.3942C38.7489 71.6309 38.8093 71.9316 38.8093 72.2962V76H38.1772V75.1371H38.1381C38.0624 75.2981 37.9499 75.4543 37.8008 75.6058C37.6516 75.7573 37.4646 75.8816 37.2397 75.9787C37.0148 76.0758 36.7508 76.1243 36.4478 76.1243ZM36.533 75.5455C36.8692 75.5455 37.1604 75.4709 37.4066 75.3217C37.6528 75.1726 37.8422 74.9749 37.9748 74.7287C38.1097 74.4801 38.1772 74.2067 38.1772 73.9084V73.12C38.1299 73.165 38.0505 73.2053 37.9393 73.2408C37.8304 73.2763 37.7037 73.3082 37.5593 73.3366C37.4173 73.3627 37.2752 73.3852 37.1332 73.4041C36.9911 73.4231 36.8633 73.4396 36.7496 73.4538C36.4419 73.4917 36.1791 73.5509 35.9613 73.6314C35.7435 73.7119 35.5766 73.8232 35.4606 73.9652C35.3446 74.1049 35.2866 74.2848 35.2866 74.505C35.2866 74.8364 35.4049 75.0933 35.6417 75.2756C35.8784 75.4555 36.1755 75.5455 36.533 75.5455ZM42.6214 76.1136C42.1338 76.1136 41.7088 75.9917 41.3466 75.7479C40.9867 75.504 40.7074 75.1702 40.5085 74.7464C40.3097 74.3227 40.2102 73.8397 40.2102 73.2976C40.2102 72.7507 40.3108 72.2642 40.5121 71.8381C40.7157 71.4119 40.9974 71.0781 41.3572 70.8366C41.7171 70.5928 42.1349 70.4709 42.6108 70.4709C42.9754 70.4709 43.3056 70.5419 43.6016 70.6839C43.8975 70.8236 44.1413 71.0213 44.3331 71.277C44.5272 71.5303 44.6491 71.8262 44.6989 72.1648H44.0597C43.9934 71.857 43.8336 71.5942 43.5803 71.3764C43.3293 71.1562 43.0097 71.0462 42.6214 71.0462C42.2734 71.0462 41.9657 71.1409 41.6982 71.3303C41.4306 71.5173 41.2211 71.7789 41.0696 72.1151C40.9205 72.4489 40.8459 72.8359 40.8459 73.2763C40.8459 73.719 40.9193 74.1108 41.0661 74.4517C41.2128 74.7902 41.4188 75.0554 41.6839 75.2472C41.9515 75.4389 42.264 75.5348 42.6214 75.5348C42.8629 75.5348 43.0831 75.4898 43.282 75.3999C43.4832 75.3075 43.6513 75.1773 43.7862 75.0092C43.9235 74.8411 44.0159 74.6411 44.0632 74.4091H44.7024C44.6551 74.7382 44.5379 75.0317 44.3509 75.2898C44.1662 75.5455 43.9259 75.7467 43.63 75.8935C43.3364 76.0402 43.0002 76.1136 42.6214 76.1136ZM48.1879 76.1136C47.7002 76.1136 47.2752 75.9917 46.913 75.7479C46.5531 75.504 46.2738 75.1702 46.0749 74.7464C45.8761 74.3227 45.7766 73.8397 45.7766 73.2976C45.7766 72.7507 45.8772 72.2642 46.0785 71.8381C46.2821 71.4119 46.5638 71.0781 46.9237 70.8366C47.2835 70.5928 47.7013 70.4709 48.1772 70.4709C48.5418 70.4709 48.872 70.5419 49.168 70.6839C49.4639 70.8236 49.7077 71.0213 49.8995 71.277C50.0936 71.5303 50.2156 71.8262 50.2653 72.1648H49.6261C49.5598 71.857 49.4 71.5942 49.1467 71.3764C48.8957 71.1562 48.5761 71.0462 48.1879 71.0462C47.8398 71.0462 47.5321 71.1409 47.2646 71.3303C46.997 71.5173 46.7875 71.7789 46.636 72.1151C46.4869 72.4489 46.4123 72.8359 46.4123 73.2763C46.4123 73.719 46.4857 74.1108 46.6325 74.4517C46.7792 74.7902 46.9852 75.0554 47.2504 75.2472C47.5179 75.4389 47.8304 75.5348 48.1879 75.5348C48.4293 75.5348 48.6495 75.4898 48.8484 75.3999C49.0496 75.3075 49.2177 75.1773 49.3526 75.0092C49.4899 74.8411 49.5823 74.6411 49.6296 74.4091H50.2688C50.2215 74.7382 50.1043 75.0317 49.9173 75.2898C49.7326 75.5455 49.4923 75.7467 49.1964 75.8935C48.9028 76.0402 48.5666 76.1136 48.1879 76.1136ZM53.8288 76.1136C53.3198 76.1136 52.8795 75.9953 52.5078 75.7585C52.1361 75.5194 51.8485 75.1892 51.6449 74.7678C51.4437 74.344 51.343 73.8563 51.343 73.3047C51.343 72.7554 51.4437 72.2678 51.6449 71.8416C51.8485 71.4131 52.129 71.0781 52.4865 70.8366C52.8464 70.5928 53.2618 70.4709 53.733 70.4709C54.0289 70.4709 54.3142 70.5253 54.5888 70.6342C54.8634 70.7408 55.1096 70.9053 55.3274 71.1278C55.5476 71.348 55.7216 71.6262 55.8494 71.9624C55.9773 72.2962 56.0412 72.6915 56.0412 73.1484V73.4609H51.7798V72.9034H55.3949C55.3949 72.553 55.3239 72.2382 55.1818 71.9588C55.0421 71.6771 54.8468 71.4545 54.5959 71.2912C54.3473 71.1278 54.0597 71.0462 53.733 71.0462C53.3873 71.0462 53.0831 71.1385 52.8203 71.3232C52.5575 71.5078 52.3516 71.7517 52.2024 72.0547C52.0556 72.3577 51.9811 72.6892 51.9787 73.049V73.3828C51.9787 73.8161 52.0533 74.1948 52.2024 74.5192C52.3539 74.8411 52.5682 75.0909 52.8452 75.2685C53.1222 75.446 53.45 75.5348 53.8288 75.5348C54.0869 75.5348 54.313 75.4946 54.5071 75.4141C54.7036 75.3336 54.8681 75.2259 55.0007 75.0909C55.1357 74.9536 55.2375 74.8033 55.3061 74.6399L55.9062 74.8352C55.8234 75.0649 55.6873 75.2768 55.4979 75.4709C55.3108 75.665 55.0765 75.8213 54.7947 75.9396C54.5154 76.0556 54.1934 76.1136 53.8288 76.1136ZM61.0989 71.7422L60.5201 71.9055C60.4632 71.7422 60.3828 71.5942 60.2786 71.4616C60.1744 71.3291 60.0383 71.2237 59.8702 71.1456C59.7045 71.0675 59.4985 71.0284 59.2523 71.0284C58.883 71.0284 58.58 71.116 58.3432 71.2912C58.1065 71.4664 57.9881 71.6925 57.9881 71.9695C57.9881 72.2038 58.0686 72.3944 58.2296 72.5412C58.3929 72.6856 58.6439 72.8004 58.9824 72.8857L59.8063 73.0881C60.2632 73.1993 60.6053 73.3757 60.8326 73.6172C61.0622 73.8587 61.177 74.1617 61.177 74.5263C61.177 74.834 61.0918 75.1075 60.9213 75.3466C60.7509 75.5857 60.513 75.7739 60.2076 75.9112C59.9045 76.0462 59.553 76.1136 59.1529 76.1136C58.6202 76.1136 58.181 75.9941 57.8354 75.755C57.4898 75.5135 57.2684 75.1655 57.1713 74.7109L57.7786 74.5618C57.8567 74.8861 58.0094 75.1312 58.2367 75.2969C58.4663 75.4626 58.7682 75.5455 59.1422 75.5455C59.5613 75.5455 59.8962 75.4519 60.1472 75.2649C60.3981 75.0755 60.5236 74.8388 60.5236 74.5547C60.5236 74.3345 60.4502 74.1499 60.3034 74.0007C60.1567 73.8492 59.9341 73.7379 59.6358 73.6669L58.7445 73.4538C58.271 73.3402 57.9206 73.1603 57.6934 72.9141C57.4661 72.6679 57.3525 72.3625 57.3525 71.9979C57.3525 71.6972 57.4341 71.4332 57.5975 71.206C57.7608 70.9763 57.9857 70.7964 58.2722 70.6662C58.5587 70.536 58.8854 70.4709 59.2523 70.4709C59.7518 70.4709 60.1507 70.5845 60.449 70.8118C60.7497 71.0367 60.9663 71.3468 61.0989 71.7422ZM66.2259 71.7422L65.647 71.9055C65.5902 71.7422 65.5097 71.5942 65.4055 71.4616C65.3014 71.3291 65.1652 71.2237 64.9972 71.1456C64.8314 71.0675 64.6255 71.0284 64.3793 71.0284C64.0099 71.0284 63.7069 71.116 63.4702 71.2912C63.2334 71.4664 63.1151 71.6925 63.1151 71.9695C63.1151 72.2038 63.1955 72.3944 63.3565 72.5412C63.5199 72.6856 63.7708 72.8004 64.1094 72.8857L64.9332 73.0881C65.3902 73.1993 65.7322 73.3757 65.9595 73.6172C66.1892 73.8587 66.304 74.1617 66.304 74.5263C66.304 74.834 66.2188 75.1075 66.0483 75.3466C65.8778 75.5857 65.6399 75.7739 65.3345 75.9112C65.0315 76.0462 64.6799 76.1136 64.2798 76.1136C63.7472 76.1136 63.308 75.9941 62.9624 75.755C62.6167 75.5135 62.3954 75.1655 62.2983 74.7109L62.9055 74.5618C62.9837 74.8861 63.1364 75.1312 63.3636 75.2969C63.5933 75.4626 63.8951 75.5455 64.2692 75.5455C64.6882 75.5455 65.0232 75.4519 65.2741 75.2649C65.5251 75.0755 65.6506 74.8388 65.6506 74.5547C65.6506 74.3345 65.5772 74.1499 65.4304 74.0007C65.2836 73.8492 65.0611 73.7379 64.7628 73.6669L63.8714 73.4538C63.398 73.3402 63.0476 73.1603 62.8203 72.9141C62.593 72.6679 62.4794 72.3625 62.4794 71.9979C62.4794 71.6972 62.5611 71.4332 62.7244 71.206C62.8878 70.9763 63.1127 70.7964 63.3991 70.6662C63.6856 70.536 64.0123 70.4709 64.3793 70.4709C64.8788 70.4709 65.2777 70.5845 65.576 70.8118C65.8767 71.0367 66.0933 71.3468 66.2259 71.7422ZM72.6206 76.1136C72.1494 76.1136 71.7328 75.9941 71.3706 75.755C71.0107 75.5159 70.729 75.1856 70.5254 74.7642C70.3218 74.3404 70.22 73.8516 70.22 73.2976C70.22 72.7389 70.3218 72.2476 70.5254 71.8239C70.729 71.3977 71.0107 71.0663 71.3706 70.8295C71.7328 70.5904 72.1494 70.4709 72.6206 70.4709C73.0917 70.4709 73.5072 70.5904 73.867 70.8295C74.2269 71.0687 74.5086 71.4001 74.7122 71.8239C74.9181 72.2476 75.0211 72.7389 75.0211 73.2976C75.0211 73.8516 74.9193 74.3404 74.7157 74.7642C74.5121 75.1856 74.2292 75.5159 73.867 75.755C73.5072 75.9941 73.0917 76.1136 72.6206 76.1136ZM72.6206 75.5348C72.9993 75.5348 73.3201 75.433 73.5829 75.2294C73.8457 75.0258 74.0446 74.7547 74.1795 74.4162C74.3168 74.0777 74.3855 73.7048 74.3855 73.2976C74.3855 72.8904 74.3168 72.5163 74.1795 72.1754C74.0446 71.8345 73.8457 71.5611 73.5829 71.3551C73.3201 71.1491 72.9993 71.0462 72.6206 71.0462C72.2441 71.0462 71.9234 71.1491 71.6582 71.3551C71.3954 71.5611 71.1954 71.8345 71.0581 72.1754C70.9231 72.5163 70.8556 72.8904 70.8556 73.2976C70.8556 73.7048 70.9231 74.0777 71.0581 74.4162C71.1954 74.7547 71.3954 75.0258 71.6582 75.2294C71.921 75.433 72.2418 75.5348 72.6206 75.5348ZM79.8746 73.9155V70.5455H80.5067V76H79.8746V75.0945H79.8249C79.6971 75.3738 79.4947 75.607 79.2177 75.794C78.9407 75.9787 78.6022 76.071 78.2021 76.071C77.854 76.071 77.5451 75.9953 77.2752 75.8438C77.0053 75.6899 76.7934 75.465 76.6396 75.169C76.4857 74.8731 76.4087 74.5097 76.4087 74.0788V70.5455H77.0408V74.0398C77.0408 74.4659 77.1663 74.8092 77.4173 75.0696C77.6682 75.3277 77.9902 75.4567 78.3832 75.4567C78.6294 75.4567 78.8661 75.3975 79.0934 75.2791C79.3207 75.1607 79.5077 74.9879 79.6545 74.7607C79.8013 74.531 79.8746 74.2493 79.8746 73.9155ZM82.1802 76V70.5455H82.7946V71.3835H82.8407C82.9496 71.1089 83.139 70.8875 83.4089 70.7195C83.6812 70.549 83.9889 70.4638 84.3322 70.4638C84.3843 70.4638 84.4423 70.465 84.5062 70.4673C84.5701 70.4697 84.6234 70.4721 84.666 70.4744V71.1172C84.6376 71.1125 84.5879 71.1054 84.5169 71.0959C84.4458 71.0864 84.3689 71.0817 84.286 71.0817C84.002 71.0817 83.7486 71.142 83.5261 71.2628C83.3059 71.3812 83.1319 71.5457 83.0041 71.7564C82.8762 71.9671 82.8123 72.2074 82.8123 72.4773V76H82.1802ZM40.94 90.0455V82.5455H41.5543V83.5859H41.6289C41.7047 83.4226 41.8088 83.2557 41.9414 83.0852C42.074 82.9124 42.2492 82.7668 42.467 82.6484C42.6871 82.5301 42.9641 82.4709 43.2979 82.4709C43.7478 82.4709 44.1407 82.5893 44.4769 82.826C44.8155 83.0604 45.0782 83.3894 45.2653 83.8132C45.4547 84.2346 45.5494 84.7259 45.5494 85.2869C45.5494 85.8504 45.4547 86.344 45.2653 86.7678C45.0782 87.1915 44.8155 87.5218 44.4769 87.7585C44.1407 87.9953 43.7501 88.1136 43.305 88.1136C42.976 88.1136 42.7002 88.0545 42.4776 87.9361C42.2575 87.8177 42.0787 87.6721 41.9414 87.4993C41.8065 87.3241 41.7023 87.1536 41.6289 86.9879H41.5721V90.0455H40.94ZM41.565 85.2763C41.565 85.7166 41.6301 86.1072 41.7603 86.4482C41.8929 86.7867 42.0823 87.053 42.3285 87.2472C42.5771 87.4389 42.8777 87.5348 43.2305 87.5348C43.5927 87.5348 43.8981 87.4354 44.1467 87.2365C44.3976 87.0353 44.5882 86.7642 44.7184 86.4233C44.851 86.0824 44.9173 85.7 44.9173 85.2763C44.9173 84.8572 44.8522 84.4796 44.7219 84.1435C44.5941 83.8073 44.4047 83.541 44.1538 83.3445C43.9028 83.1456 43.5951 83.0462 43.2305 83.0462C42.8754 83.0462 42.5735 83.142 42.3249 83.3338C42.0763 83.5232 41.887 83.786 41.7567 84.1222C41.6289 84.456 41.565 84.8407 41.565 85.2763ZM47.5682 80.7273V88H46.9361V80.7273H47.5682ZM50.7642 88.1243C50.4351 88.1243 50.1345 88.0604 49.8622 87.9325C49.59 87.8023 49.3733 87.6153 49.2124 87.3714C49.0514 87.1252 48.9709 86.8269 48.9709 86.4766C48.9709 86.2067 49.0218 85.9794 49.1236 85.7947C49.2254 85.6101 49.3698 85.4586 49.5568 85.3402C49.7438 85.2218 49.9652 85.1283 50.2209 85.0597C50.4766 84.991 50.7583 84.9377 51.0661 84.8999C51.3714 84.862 51.6295 84.8288 51.8402 84.8004C52.0533 84.772 52.2154 84.727 52.3267 84.6655C52.438 84.6039 52.4936 84.5045 52.4936 84.3672V84.2393C52.4936 83.8677 52.3823 83.5753 52.1598 83.3622C51.9396 83.1468 51.6224 83.0391 51.2081 83.0391C50.8151 83.0391 50.4943 83.1255 50.2457 83.2983C49.9995 83.4711 49.8267 83.6747 49.7273 83.9091L49.1271 83.6925C49.2502 83.3942 49.4207 83.1562 49.6385 82.9787C49.8563 82.7988 50.1001 82.6697 50.37 82.5916C50.6399 82.5111 50.9134 82.4709 51.1903 82.4709C51.3987 82.4709 51.6153 82.4981 51.8402 82.5526C52.0675 82.607 52.2782 82.7017 52.4723 82.8366C52.6664 82.9692 52.8239 83.1551 52.9446 83.3942C53.0653 83.6309 53.1257 83.9316 53.1257 84.2962V88H52.4936V87.1371H52.4545C52.3788 87.2981 52.2663 87.4543 52.1172 87.6058C51.968 87.7573 51.781 87.8816 51.5561 87.9787C51.3312 88.0758 51.0672 88.1243 50.7642 88.1243ZM50.8494 87.5455C51.1856 87.5455 51.4768 87.4709 51.723 87.3217C51.9692 87.1726 52.1586 86.9749 52.2912 86.7287C52.4261 86.4801 52.4936 86.2067 52.4936 85.9084V85.12C52.4463 85.165 52.367 85.2053 52.2557 85.2408C52.1468 85.2763 52.0201 85.3082 51.8757 85.3366C51.7337 85.3627 51.5916 85.3852 51.4496 85.4041C51.3075 85.4231 51.1797 85.4396 51.0661 85.4538C50.7583 85.4917 50.4955 85.5509 50.2777 85.6314C50.0599 85.7119 49.893 85.8232 49.777 85.9652C49.661 86.1049 49.603 86.2848 49.603 86.505C49.603 86.8364 49.7214 87.0933 49.9581 87.2756C50.1948 87.4555 50.492 87.5455 50.8494 87.5455ZM56.9556 82.5455V83.0959H54.3526V82.5455H56.9556ZM55.1658 81.2386H55.8015V86.576C55.8015 86.8033 55.8406 86.982 55.9187 87.1122C55.9968 87.2401 56.0986 87.3312 56.2241 87.3857C56.3496 87.4377 56.4833 87.4638 56.6254 87.4638C56.7082 87.4638 56.7792 87.459 56.8384 87.4496C56.8976 87.4377 56.9497 87.4259 56.9947 87.4141L57.1296 87.9858C57.0681 88.0095 56.9923 88.0308 56.9023 88.0497C56.8124 88.071 56.7011 88.0817 56.5685 88.0817C56.3365 88.0817 56.1128 88.0308 55.8974 87.929C55.6843 87.8272 55.5091 87.6757 55.3718 87.4744C55.2345 87.2732 55.1658 87.0234 55.1658 86.7251V81.2386ZM60.6355 82.5455V83.0959H57.9544V82.5455H60.6355ZM58.7924 88V81.7464C58.7924 81.4529 58.8599 81.2055 58.9949 81.0043C59.1322 80.803 59.3109 80.6503 59.5311 80.5462C59.7512 80.442 59.9844 80.3899 60.2306 80.3899C60.3964 80.3899 60.5337 80.4041 60.6426 80.4325C60.7538 80.4586 60.8414 80.4846 60.9054 80.5107L60.7207 81.0646C60.6734 81.0504 60.6154 81.0339 60.5467 81.0149C60.478 80.996 60.3916 80.9865 60.2875 80.9865C60.0128 80.9865 59.801 81.0634 59.6518 81.2173C59.5027 81.3712 59.4281 81.5914 59.4281 81.8778L59.4245 88H58.7924ZM63.7924 88.1136C63.3213 88.1136 62.9047 87.9941 62.5424 87.755C62.1826 87.5159 61.9009 87.1856 61.6973 86.7642C61.4937 86.3404 61.3919 85.8516 61.3919 85.2976C61.3919 84.7389 61.4937 84.2476 61.6973 83.8239C61.9009 83.3977 62.1826 83.0663 62.5424 82.8295C62.9047 82.5904 63.3213 82.4709 63.7924 82.4709C64.2636 82.4709 64.679 82.5904 65.0389 82.8295C65.3987 83.0687 65.6805 83.4001 65.8841 83.8239C66.09 84.2476 66.193 84.7389 66.193 85.2976C66.193 85.8516 66.0912 86.3404 65.8876 86.7642C65.684 87.1856 65.4011 87.5159 65.0389 87.755C64.679 87.9941 64.2636 88.1136 63.7924 88.1136ZM63.7924 87.5348C64.1712 87.5348 64.492 87.433 64.7548 87.2294C65.0176 87.0258 65.2164 86.7547 65.3514 86.4162C65.4887 86.0777 65.5574 85.7048 65.5574 85.2976C65.5574 84.8904 65.4887 84.5163 65.3514 84.1754C65.2164 83.8345 65.0176 83.5611 64.7548 83.3551C64.492 83.1491 64.1712 83.0462 63.7924 83.0462C63.416 83.0462 63.0952 83.1491 62.8301 83.3551C62.5673 83.5611 62.3672 83.8345 62.2299 84.1754C62.095 84.5163 62.0275 84.8904 62.0275 85.2976C62.0275 85.7048 62.095 86.0777 62.2299 86.4162C62.3672 86.7547 62.5673 87.0258 62.8301 87.2294C63.0929 87.433 63.4136 87.5348 63.7924 87.5348ZM67.5806 88V82.5455H68.195V83.3835H68.2411C68.35 83.1089 68.5394 82.8875 68.8093 82.7195C69.0816 82.549 69.3893 82.4638 69.7326 82.4638C69.7847 82.4638 69.8427 82.465 69.9066 82.4673C69.9705 82.4697 70.0238 82.4721 70.0664 82.4744V83.1172C70.038 83.1125 69.9883 83.1054 69.9173 83.0959C69.8462 83.0864 69.7693 83.0817 69.6864 83.0817C69.4023 83.0817 69.149 83.142 68.9265 83.2628C68.7063 83.3812 68.5323 83.5457 68.4045 83.7564C68.2766 83.9671 68.2127 84.2074 68.2127 84.4773V88H67.5806ZM71.1451 88V82.5455H71.7594V83.3835H71.8162C71.9251 83.1018 72.1062 82.8804 72.3596 82.7195C72.6152 82.5561 72.9218 82.4744 73.2793 82.4744C73.6557 82.4744 73.9647 82.5632 74.2061 82.7408C74.45 82.916 74.6323 83.1574 74.753 83.4652H74.7992C74.9223 83.1622 75.1223 82.9219 75.3993 82.7443C75.6787 82.5644 76.0172 82.4744 76.415 82.4744C76.9216 82.4744 77.3217 82.6342 77.6152 82.9538C77.9088 83.2711 78.0556 83.7351 78.0556 84.3459V88H77.4235V84.3459C77.4235 83.915 77.3134 83.5919 77.0932 83.3764C76.873 83.161 76.583 83.0533 76.2232 83.0533C75.8065 83.0533 75.4857 83.1811 75.2608 83.4368C75.0359 83.6925 74.9235 84.0168 74.9235 84.4098V88H74.2772V84.2891C74.2772 83.9197 74.1742 83.6214 73.9682 83.3942C73.7623 83.1669 73.4722 83.0533 73.0982 83.0533C72.8472 83.0533 72.6212 83.1148 72.4199 83.2379C72.2211 83.361 72.0636 83.5327 71.9476 83.7528C71.834 83.9706 71.7772 84.2216 71.7772 84.5057V88H71.1451Z" fill="#222222"/>
</g>
<defs>
<filter id="filter0_d_893_407" x="0" y="0" width="118" height="118" filterUnits="userSpaceOnUse" color-interpolation-filters="sRGB">
<feFlood flood-opacity="0" result="BackgroundImageFix"/>
<feColorMatrix in="SourceAlpha" type="matrix" values="0 0 0 0 0 0 0 0 0 0 0 0 0 0 0 0 0 0 127 0" result="hardAlpha"/>
<feOffset dy="4"/>
<feGaussianBlur stdDeviation="2"/>
<feComposite in2="hardAlpha" operator="out"/>
<feColorMatrix type="matrix" values="0 0 0 0 0 0 0 0 0 0 0 0 0 0 0 0 0 0 0.25 0"/>
<feBlend mode="normal" in2="BackgroundImageFix" result="effect1_dropShadow_893_407"/>
<feBlend mode="normal" in="SourceGraphic" in2="effect1_dropShadow_893_407" result="shape"/>
</filter>
</defs>
</svg>
