<svg width="208" height="196" viewBox="0 0 208 196" fill="none" xmlns="http://www.w3.org/2000/svg">
<rect x="98" y="86" width="110" height="110" fill="#F8E8B2"/>
<g filter="url(#filter0_d_928_14853)">
<rect x="4" width="110" height="110" fill="#F8E8B2"/>
</g>
<path d="M185.176 176.159C184.46 176.159 183.844 175.99 183.327 175.652C182.81 175.314 182.412 174.848 182.134 174.255C181.855 173.662 181.716 172.984 181.716 172.222C181.716 171.446 181.858 170.762 182.143 170.168C182.432 169.572 182.833 169.106 183.347 168.771C183.864 168.433 184.467 168.264 185.156 168.264C185.693 168.264 186.177 168.364 186.608 168.562C187.039 168.761 187.392 169.04 187.667 169.398C187.942 169.756 188.113 170.173 188.179 170.651H187.006C186.916 170.303 186.717 169.994 186.409 169.726C186.104 169.454 185.693 169.318 185.176 169.318C184.719 169.318 184.318 169.437 183.973 169.676C183.632 169.911 183.365 170.245 183.173 170.675C182.984 171.103 182.889 171.605 182.889 172.182C182.889 172.772 182.982 173.286 183.168 173.723C183.357 174.161 183.622 174.5 183.963 174.742C184.308 174.984 184.712 175.105 185.176 175.105C185.481 175.105 185.758 175.052 186.006 174.946C186.255 174.84 186.465 174.688 186.638 174.489C186.81 174.29 186.933 174.051 187.006 173.773H188.179C188.113 174.223 187.949 174.629 187.687 174.991C187.428 175.349 187.085 175.634 186.658 175.846C186.233 176.055 185.74 176.159 185.176 176.159Z" fill="#555555"/>
<path d="M97.1761 83.1591C96.4602 83.1591 95.8438 82.9901 95.3267 82.652C94.8097 82.3139 94.4119 81.8482 94.1335 81.255C93.8551 80.6617 93.7159 79.9839 93.7159 79.2216C93.7159 78.446 93.8584 77.7616 94.1435 77.1683C94.4318 76.5717 94.8329 76.1061 95.3466 75.7713C95.8636 75.4332 96.4669 75.2642 97.1562 75.2642C97.6932 75.2642 98.1771 75.3636 98.608 75.5625C99.0388 75.7614 99.3918 76.0398 99.6669 76.3977C99.942 76.7557 100.113 77.1733 100.179 77.6506H99.0057C98.9162 77.3026 98.7173 76.9943 98.4091 76.7259C98.1042 76.4541 97.6932 76.3182 97.1761 76.3182C96.7188 76.3182 96.3177 76.4375 95.973 76.6761C95.6316 76.9115 95.3648 77.2446 95.1726 77.6754C94.9837 78.103 94.8892 78.6051 94.8892 79.1818C94.8892 79.7718 94.982 80.2855 95.1676 80.723C95.3565 81.1605 95.6217 81.5002 95.9631 81.7422C96.3078 81.9841 96.7121 82.1051 97.1761 82.1051C97.4811 82.1051 97.7578 82.0521 98.0064 81.946C98.255 81.84 98.4654 81.6875 98.6378 81.4886C98.8101 81.2898 98.9328 81.0511 99.0057 80.7727H100.179C100.113 81.2235 99.9486 81.6295 99.6868 81.9908C99.4283 82.3487 99.0852 82.6338 98.6577 82.8459C98.2334 83.0547 97.7396 83.1591 97.1761 83.1591Z" fill="#555555"/>
<path d="M139.957 171.159C139.321 171.159 138.759 170.998 138.272 170.677C137.785 170.352 137.404 169.895 137.129 169.305C136.853 168.711 136.716 168.01 136.716 167.202C136.716 166.4 136.853 165.704 137.129 165.114C137.404 164.524 137.786 164.068 138.277 163.746C138.768 163.425 139.334 163.264 139.977 163.264C140.474 163.264 140.867 163.347 141.156 163.513C141.447 163.675 141.669 163.861 141.822 164.07C141.978 164.275 142.098 164.444 142.185 164.577H142.284V160.818H143.457V171H142.324V169.827H142.185C142.098 169.966 141.976 170.142 141.817 170.354C141.658 170.562 141.431 170.75 141.136 170.915C140.841 171.078 140.448 171.159 139.957 171.159ZM140.116 170.105C140.587 170.105 140.985 169.982 141.31 169.737C141.634 169.489 141.881 169.146 142.05 168.708C142.219 168.267 142.304 167.759 142.304 167.182C142.304 166.612 142.221 166.113 142.055 165.685C141.89 165.254 141.644 164.92 141.32 164.681C140.995 164.439 140.594 164.318 140.116 164.318C139.619 164.318 139.205 164.446 138.874 164.701C138.545 164.953 138.299 165.296 138.133 165.73C137.97 166.161 137.889 166.645 137.889 167.182C137.889 167.725 137.972 168.219 138.138 168.663C138.307 169.104 138.555 169.455 138.884 169.717C139.215 169.976 139.626 170.105 140.116 170.105Z" fill="#555555"/>
<path d="M56.9574 93.1591C56.321 93.1591 55.7592 92.9983 55.272 92.6768C54.7848 92.352 54.4036 91.8946 54.1286 91.3047C53.8535 90.7114 53.7159 90.0104 53.7159 89.2017C53.7159 88.3996 53.8535 87.7036 54.1286 87.1136C54.4036 86.5237 54.7865 86.0679 55.277 85.7464C55.7675 85.425 56.3343 85.2642 56.9773 85.2642C57.4744 85.2642 57.8672 85.3471 58.1555 85.5128C58.4472 85.6752 58.6693 85.8608 58.8217 86.0696C58.9775 86.2751 59.0985 86.4441 59.1847 86.5767H59.2841V82.8182H60.4574V93H59.3239V91.8267H59.1847C59.0985 91.9659 58.9759 92.1416 58.8168 92.3537C58.6577 92.5625 58.4306 92.7498 58.1357 92.9155C57.8407 93.0779 57.4479 93.1591 56.9574 93.1591ZM57.1165 92.1051C57.5871 92.1051 57.9848 91.9825 58.3097 91.7372C58.6345 91.4886 58.8814 91.1456 59.0504 90.7081C59.2195 90.2673 59.304 89.7585 59.304 89.1818C59.304 88.6117 59.2211 88.1129 59.0554 87.6854C58.8897 87.2545 58.6444 86.9197 58.3196 86.6811C57.9948 86.4392 57.5938 86.3182 57.1165 86.3182C56.6193 86.3182 56.205 86.4458 55.8736 86.701C55.5455 86.9529 55.2985 87.2959 55.1328 87.7301C54.9704 88.161 54.8892 88.6449 54.8892 89.1818C54.8892 89.7254 54.9721 90.2192 55.1378 90.6634C55.3068 91.1042 55.5554 91.4555 55.8835 91.7173C56.215 91.9759 56.6259 92.1051 57.1165 92.1051Z" fill="#555555"/>
<path d="M188.483 107.074L187.429 107.372C187.363 107.196 187.265 107.026 187.136 106.86C187.01 106.691 186.837 106.552 186.619 106.442C186.4 106.333 186.12 106.278 185.778 106.278C185.311 106.278 184.922 106.386 184.61 106.602C184.302 106.814 184.148 107.084 184.148 107.412C184.148 107.704 184.254 107.934 184.466 108.103C184.678 108.272 185.009 108.413 185.46 108.526L186.594 108.804C187.277 108.97 187.785 109.223 188.12 109.565C188.455 109.903 188.622 110.339 188.622 110.872C188.622 111.31 188.496 111.701 188.244 112.045C187.996 112.39 187.648 112.662 187.2 112.861C186.753 113.06 186.232 113.159 185.639 113.159C184.86 113.159 184.216 112.99 183.705 112.652C183.195 112.314 182.872 111.82 182.736 111.17L183.849 110.892C183.955 111.303 184.156 111.611 184.451 111.817C184.749 112.022 185.139 112.125 185.619 112.125C186.166 112.125 186.6 112.009 186.922 111.777C187.247 111.542 187.409 111.26 187.409 110.932C187.409 110.667 187.316 110.445 187.131 110.266C186.945 110.083 186.66 109.947 186.276 109.858L185.003 109.56C184.304 109.394 183.79 109.137 183.462 108.789C183.137 108.438 182.974 107.999 182.974 107.472C182.974 107.041 183.095 106.66 183.337 106.328C183.583 105.997 183.916 105.737 184.337 105.548C184.761 105.359 185.241 105.264 185.778 105.264C186.534 105.264 187.127 105.43 187.558 105.761C187.992 106.093 188.301 106.53 188.483 107.074Z" fill="#555555"/>
<path d="M39.483 20.0739L38.429 20.3722C38.3627 20.1965 38.2649 20.0258 38.1357 19.8601C38.0097 19.6911 37.8374 19.5518 37.6186 19.4425C37.3999 19.3331 37.1198 19.2784 36.7784 19.2784C36.3111 19.2784 35.9216 19.3861 35.6101 19.6016C35.3018 19.8137 35.1477 20.0838 35.1477 20.4119C35.1477 20.7036 35.2538 20.9339 35.4659 21.103C35.678 21.272 36.0095 21.4129 36.4602 21.5256L37.5938 21.804C38.2765 21.9697 38.7853 22.2232 39.12 22.5646C39.4548 22.9027 39.6222 23.3385 39.6222 23.8722C39.6222 24.3097 39.4962 24.7008 39.2443 25.0455C38.9957 25.3902 38.6477 25.6619 38.2003 25.8608C37.7528 26.0597 37.2325 26.1591 36.6392 26.1591C35.8603 26.1591 35.2157 25.9901 34.7053 25.652C34.1948 25.3139 33.8717 24.8201 33.7358 24.1705L34.8494 23.892C34.9555 24.303 35.156 24.6113 35.451 24.8168C35.7493 25.0223 36.1387 25.125 36.6193 25.125C37.1662 25.125 37.6004 25.009 37.9219 24.777C38.2467 24.5417 38.4091 24.2599 38.4091 23.9318C38.4091 23.6667 38.3163 23.4446 38.1307 23.2656C37.9451 23.0833 37.66 22.9474 37.2756 22.858L36.0028 22.5597C35.3035 22.3939 34.7898 22.1371 34.4616 21.7891C34.1368 21.4377 33.9744 20.9986 33.9744 20.4716C33.9744 20.0407 34.0954 19.6596 34.3374 19.3281C34.5826 18.9967 34.9157 18.7365 35.3366 18.5476C35.7609 18.3587 36.2415 18.2642 36.7784 18.2642C37.5341 18.2642 38.1274 18.4299 38.5582 18.7614C38.9924 19.0928 39.3007 19.5303 39.483 20.0739Z" fill="#555555"/>
<path d="M109.915 136.159C109.544 136.159 109.218 136.111 108.939 136.013C108.66 135.919 108.424 135.789 108.232 135.623C108.04 135.457 107.891 135.271 107.785 135.065L108.303 134.724C108.381 134.862 108.486 134.997 108.616 135.129C108.748 135.262 108.92 135.372 109.131 135.46C109.344 135.547 109.605 135.591 109.915 135.591C110.398 135.591 110.788 135.47 111.084 135.229C111.382 134.987 111.531 134.612 111.531 134.103V132.874H111.474C111.401 133.04 111.296 133.206 111.158 133.371C111.021 133.535 110.841 133.671 110.619 133.78C110.398 133.889 110.125 133.943 109.798 133.943C109.363 133.943 108.976 133.835 108.637 133.62C108.301 133.405 108.036 133.097 107.842 132.697C107.65 132.294 107.554 131.815 107.554 131.259C107.554 130.707 107.647 130.222 107.835 129.803C108.024 129.384 108.288 129.057 108.626 128.822C108.965 128.588 109.359 128.471 109.809 128.471C110.143 128.471 110.42 128.53 110.64 128.648C110.86 128.764 111.036 128.909 111.169 129.082C111.304 129.254 111.409 129.423 111.485 129.586H111.549V128.545H112.167V134.142C112.167 134.604 112.069 134.984 111.872 135.282C111.676 135.58 111.408 135.8 111.07 135.942C110.731 136.087 110.346 136.159 109.915 136.159ZM109.873 133.364C110.223 133.364 110.523 133.28 110.771 133.112C111.02 132.942 111.21 132.698 111.343 132.381C111.476 132.063 111.542 131.686 111.542 131.248C111.542 130.822 111.477 130.444 111.347 130.115C111.216 129.784 111.027 129.523 110.778 129.334C110.532 129.142 110.23 129.046 109.873 129.046C109.508 129.046 109.201 129.144 108.95 129.341C108.699 129.537 108.509 129.803 108.381 130.136C108.254 130.468 108.19 130.838 108.19 131.248C108.19 131.665 108.255 132.033 108.385 132.352C108.515 132.67 108.706 132.918 108.957 133.098C109.208 133.276 109.513 133.364 109.873 133.364ZM113.84 134V128.545H114.455V129.384H114.501C114.61 129.109 114.799 128.888 115.069 128.719C115.341 128.549 115.649 128.464 115.992 128.464C116.044 128.464 116.102 128.465 116.166 128.467C116.23 128.47 116.284 128.472 116.326 128.474V129.117C116.298 129.112 116.248 129.105 116.177 129.096C116.106 129.086 116.029 129.082 115.946 129.082C115.662 129.082 115.409 129.142 115.186 129.263C114.966 129.381 114.792 129.546 114.664 129.756C114.536 129.967 114.472 130.207 114.472 130.477V134H113.84ZM118.928 134.124C118.599 134.124 118.299 134.06 118.026 133.933C117.754 133.802 117.537 133.615 117.376 133.371C117.215 133.125 117.135 132.827 117.135 132.477C117.135 132.207 117.186 131.979 117.288 131.795C117.389 131.61 117.534 131.459 117.721 131.34C117.908 131.222 118.129 131.128 118.385 131.06C118.641 130.991 118.922 130.938 119.23 130.9C119.536 130.862 119.794 130.829 120.004 130.8C120.217 130.772 120.379 130.727 120.491 130.665C120.602 130.604 120.658 130.504 120.658 130.367V130.239C120.658 129.868 120.546 129.575 120.324 129.362C120.104 129.147 119.786 129.039 119.372 129.039C118.979 129.039 118.658 129.125 118.41 129.298C118.164 129.471 117.991 129.675 117.891 129.909L117.291 129.692C117.414 129.394 117.585 129.156 117.803 128.979C118.02 128.799 118.264 128.67 118.534 128.592C118.804 128.511 119.077 128.471 119.354 128.471C119.563 128.471 119.779 128.498 120.004 128.553C120.232 128.607 120.442 128.702 120.636 128.837C120.83 128.969 120.988 129.155 121.109 129.394C121.229 129.631 121.29 129.932 121.29 130.296V134H120.658V133.137H120.619C120.543 133.298 120.43 133.454 120.281 133.606C120.132 133.757 119.945 133.882 119.72 133.979C119.495 134.076 119.231 134.124 118.928 134.124ZM119.013 133.545C119.35 133.545 119.641 133.471 119.887 133.322C120.133 133.173 120.323 132.975 120.455 132.729C120.59 132.48 120.658 132.207 120.658 131.908V131.12C120.61 131.165 120.531 131.205 120.42 131.241C120.311 131.276 120.184 131.308 120.04 131.337C119.898 131.363 119.756 131.385 119.614 131.404C119.472 131.423 119.344 131.44 119.23 131.454C118.922 131.492 118.66 131.551 118.442 131.631C118.224 131.712 118.057 131.823 117.941 131.965C117.825 132.105 117.767 132.285 117.767 132.505C117.767 132.836 117.885 133.093 118.122 133.276C118.359 133.455 118.656 133.545 119.013 133.545ZM124.935 134.114C124.488 134.114 124.096 133.995 123.76 133.759C123.423 133.522 123.161 133.192 122.971 132.768C122.784 132.344 122.691 131.85 122.691 131.287C122.691 130.726 122.784 130.235 122.971 129.813C123.161 129.389 123.425 129.06 123.763 128.826C124.102 128.589 124.496 128.471 124.946 128.471C125.277 128.471 125.553 128.53 125.773 128.648C125.993 128.764 126.17 128.909 126.302 129.082C126.435 129.254 126.538 129.423 126.611 129.586H126.668V126.727H127.304V134H126.686V132.988H126.611C126.538 133.154 126.434 133.324 126.299 133.499C126.164 133.672 125.985 133.818 125.762 133.936C125.542 134.054 125.266 134.114 124.935 134.114ZM125.01 133.535C125.362 133.535 125.663 133.439 125.912 133.247C126.16 133.053 126.35 132.787 126.48 132.448C126.612 132.107 126.679 131.717 126.679 131.276C126.679 130.841 126.614 130.456 126.483 130.122C126.353 129.786 126.164 129.523 125.915 129.334C125.667 129.142 125.365 129.046 125.01 129.046C124.645 129.046 124.337 129.146 124.086 129.344C123.838 129.541 123.648 129.807 123.518 130.143C123.39 130.48 123.326 130.857 123.326 131.276C123.326 131.7 123.391 132.082 123.522 132.423C123.652 132.764 123.841 133.035 124.09 133.237C124.341 133.435 124.647 133.535 125.01 133.535ZM132.57 131.915V128.545H133.202V134H132.57V133.094H132.52C132.392 133.374 132.19 133.607 131.913 133.794C131.636 133.979 131.297 134.071 130.897 134.071C130.549 134.071 130.24 133.995 129.971 133.844C129.701 133.69 129.489 133.465 129.335 133.169C129.181 132.873 129.104 132.51 129.104 132.079V128.545H129.736V132.04C129.736 132.466 129.862 132.809 130.113 133.07C130.364 133.328 130.685 133.457 131.078 133.457C131.325 133.457 131.561 133.397 131.789 133.279C132.016 133.161 132.203 132.988 132.35 132.761C132.497 132.531 132.57 132.249 132.57 131.915ZM136.399 134.124C136.07 134.124 135.769 134.06 135.497 133.933C135.225 133.802 135.008 133.615 134.847 133.371C134.686 133.125 134.606 132.827 134.606 132.477C134.606 132.207 134.657 131.979 134.758 131.795C134.86 131.61 135.005 131.459 135.192 131.34C135.379 131.222 135.6 131.128 135.856 131.06C136.111 130.991 136.393 130.938 136.701 130.9C137.006 130.862 137.264 130.829 137.475 130.8C137.688 130.772 137.85 130.727 137.961 130.665C138.073 130.604 138.128 130.504 138.128 130.367V130.239C138.128 129.868 138.017 129.575 137.795 129.362C137.574 129.147 137.257 129.039 136.843 129.039C136.45 129.039 136.129 129.125 135.881 129.298C135.634 129.471 135.461 129.675 135.362 129.909L134.762 129.692C134.885 129.394 135.055 129.156 135.273 128.979C135.491 128.799 135.735 128.67 136.005 128.592C136.275 128.511 136.548 128.471 136.825 128.471C137.033 128.471 137.25 128.498 137.475 128.553C137.702 128.607 137.913 128.702 138.107 128.837C138.301 128.969 138.459 129.155 138.579 129.394C138.7 129.631 138.76 129.932 138.76 130.296V134H138.128V133.137H138.089C138.014 133.298 137.901 133.454 137.752 133.606C137.603 133.757 137.416 133.882 137.191 133.979C136.966 134.076 136.702 134.124 136.399 134.124ZM136.484 133.545C136.82 133.545 137.112 133.471 137.358 133.322C137.604 133.173 137.793 132.975 137.926 132.729C138.061 132.48 138.128 132.207 138.128 131.908V131.12C138.081 131.165 138.002 131.205 137.89 131.241C137.782 131.276 137.655 131.308 137.51 131.337C137.368 131.363 137.226 131.385 137.084 131.404C136.942 131.423 136.814 131.44 136.701 131.454C136.393 131.492 136.13 131.551 135.912 131.631C135.695 131.712 135.528 131.823 135.412 131.965C135.296 132.105 135.238 132.285 135.238 132.505C135.238 132.836 135.356 133.093 135.593 133.276C135.83 133.455 136.127 133.545 136.484 133.545ZM142.59 128.545V129.096H139.987V128.545H142.59ZM140.801 127.239H141.436V132.576C141.436 132.803 141.475 132.982 141.553 133.112C141.632 133.24 141.733 133.331 141.859 133.386C141.984 133.438 142.118 133.464 142.26 133.464C142.343 133.464 142.414 133.459 142.473 133.45C142.532 133.438 142.584 133.426 142.629 133.414L142.764 133.986C142.703 134.009 142.627 134.031 142.537 134.05C142.447 134.071 142.336 134.082 142.203 134.082C141.971 134.082 141.748 134.031 141.532 133.929C141.319 133.827 141.144 133.676 141.007 133.474C140.869 133.273 140.801 133.023 140.801 132.725V127.239ZM146.173 134.114C145.664 134.114 145.223 133.995 144.852 133.759C144.48 133.519 144.192 133.189 143.989 132.768C143.787 132.344 143.687 131.856 143.687 131.305C143.687 130.755 143.787 130.268 143.989 129.842C144.192 129.413 144.473 129.078 144.83 128.837C145.19 128.593 145.606 128.471 146.077 128.471C146.373 128.471 146.658 128.525 146.933 128.634C147.207 128.741 147.453 128.905 147.671 129.128C147.891 129.348 148.065 129.626 148.193 129.962C148.321 130.296 148.385 130.692 148.385 131.148V131.461H144.124V130.903H147.739C147.739 130.553 147.668 130.238 147.526 129.959C147.386 129.677 147.191 129.455 146.94 129.291C146.691 129.128 146.403 129.046 146.077 129.046C145.731 129.046 145.427 129.138 145.164 129.323C144.901 129.508 144.695 129.752 144.546 130.055C144.399 130.358 144.325 130.689 144.322 131.049V131.383C144.322 131.816 144.397 132.195 144.546 132.519C144.698 132.841 144.912 133.091 145.189 133.268C145.466 133.446 145.794 133.535 146.173 133.535C146.431 133.535 146.657 133.495 146.851 133.414C147.047 133.334 147.212 133.226 147.344 133.091C147.479 132.954 147.581 132.803 147.65 132.64L148.25 132.835C148.167 133.065 148.031 133.277 147.842 133.471C147.655 133.665 147.42 133.821 147.138 133.94C146.859 134.056 146.537 134.114 146.173 134.114ZM153.443 129.742L152.864 129.906C152.807 129.742 152.727 129.594 152.622 129.462C152.518 129.329 152.382 129.224 152.214 129.146C152.048 129.067 151.842 129.028 151.596 129.028C151.227 129.028 150.924 129.116 150.687 129.291C150.45 129.466 150.332 129.692 150.332 129.969C150.332 130.204 150.412 130.394 150.573 130.541C150.737 130.686 150.988 130.8 151.326 130.886L152.15 131.088C152.607 131.199 152.949 131.376 153.176 131.617C153.406 131.859 153.521 132.162 153.521 132.526C153.521 132.834 153.436 133.107 153.265 133.347C153.095 133.586 152.857 133.774 152.551 133.911C152.248 134.046 151.897 134.114 151.497 134.114C150.964 134.114 150.525 133.994 150.179 133.755C149.834 133.513 149.612 133.165 149.515 132.711L150.122 132.562C150.2 132.886 150.353 133.131 150.58 133.297C150.81 133.463 151.112 133.545 151.486 133.545C151.905 133.545 152.24 133.452 152.491 133.265C152.742 133.076 152.867 132.839 152.867 132.555C152.867 132.335 152.794 132.15 152.647 132.001C152.5 131.849 152.278 131.738 151.98 131.667L151.088 131.454C150.615 131.34 150.264 131.16 150.037 130.914C149.81 130.668 149.696 130.362 149.696 129.998C149.696 129.697 149.778 129.433 149.941 129.206C150.105 128.976 150.329 128.796 150.616 128.666C150.902 128.536 151.229 128.471 151.596 128.471C152.096 128.471 152.494 128.585 152.793 128.812C153.093 129.037 153.31 129.347 153.443 129.742ZM157.724 134V128.545H158.36V134H157.724ZM158.048 127.608C157.917 127.608 157.806 127.564 157.714 127.477C157.621 127.387 157.575 127.279 157.575 127.153C157.575 127.028 157.621 126.921 157.714 126.834C157.806 126.744 157.917 126.699 158.048 126.699C158.178 126.699 158.289 126.744 158.381 126.834C158.474 126.921 158.52 127.028 158.52 127.153C158.52 127.279 158.474 127.387 158.381 127.477C158.289 127.564 158.178 127.608 158.048 127.608ZM160.664 130.591V134H160.032V128.545H160.646V129.401H160.703C160.831 129.122 161.03 128.898 161.3 128.73C161.572 128.56 161.908 128.474 162.308 128.474C162.675 128.474 162.997 128.551 163.274 128.705C163.553 128.857 163.77 129.08 163.924 129.376C164.08 129.672 164.158 130.036 164.158 130.467V134H163.526V130.506C163.526 130.058 163.401 129.704 163.15 129.444C162.901 129.183 162.567 129.053 162.148 129.053C161.862 129.053 161.607 129.115 161.385 129.238C161.162 129.361 160.986 129.539 160.856 129.771C160.728 130 160.664 130.274 160.664 130.591ZM170.159 134.124C169.83 134.124 169.529 134.06 169.257 133.933C168.984 133.802 168.768 133.615 168.607 133.371C168.446 133.125 168.365 132.827 168.365 132.477C168.365 132.207 168.416 131.979 168.518 131.795C168.62 131.61 168.764 131.459 168.951 131.34C169.138 131.222 169.36 131.128 169.615 131.06C169.871 130.991 170.153 130.938 170.461 130.9C170.766 130.862 171.024 130.829 171.235 130.8C171.448 130.772 171.61 130.727 171.721 130.665C171.833 130.604 171.888 130.504 171.888 130.367V130.239C171.888 129.868 171.777 129.575 171.554 129.362C171.334 129.147 171.017 129.039 170.603 129.039C170.21 129.039 169.889 129.125 169.64 129.298C169.394 129.471 169.221 129.675 169.122 129.909L168.522 129.692C168.645 129.394 168.815 129.156 169.033 128.979C169.251 128.799 169.495 128.67 169.765 128.592C170.034 128.511 170.308 128.471 170.585 128.471C170.793 128.471 171.01 128.498 171.235 128.553C171.462 128.607 171.673 128.702 171.867 128.837C172.061 128.969 172.218 129.155 172.339 129.394C172.46 129.631 172.52 129.932 172.52 130.296V134H171.888V133.137H171.849C171.773 133.298 171.661 133.454 171.512 133.606C171.363 133.757 171.176 133.882 170.951 133.979C170.726 134.076 170.462 134.124 170.159 134.124ZM170.244 133.545C170.58 133.545 170.871 133.471 171.118 133.322C171.364 133.173 171.553 132.975 171.686 132.729C171.821 132.48 171.888 132.207 171.888 131.908V131.12C171.841 131.165 171.761 131.205 171.65 131.241C171.541 131.276 171.415 131.308 171.27 131.337C171.128 131.363 170.986 131.385 170.844 131.404C170.702 131.423 170.574 131.44 170.461 131.454C170.153 131.492 169.89 131.551 169.672 131.631C169.454 131.712 169.288 131.823 169.172 131.965C169.056 132.105 168.998 132.285 168.998 132.505C168.998 132.836 169.116 133.093 169.353 133.276C169.589 133.455 169.886 133.545 170.244 133.545ZM174.202 134V128.545H174.816V129.384H174.862C174.971 129.109 175.161 128.888 175.43 128.719C175.703 128.549 176.01 128.464 176.354 128.464C176.406 128.464 176.464 128.465 176.528 128.467C176.592 128.47 176.645 128.472 176.688 128.474V129.117C176.659 129.112 176.609 129.105 176.538 129.096C176.467 129.086 176.39 129.082 176.308 129.082C176.023 129.082 175.77 129.142 175.548 129.263C175.327 129.381 175.153 129.546 175.026 129.756C174.898 129.967 174.834 130.207 174.834 130.477V134H174.202ZM180.256 128.545V129.096H177.653V128.545H180.256ZM178.467 127.239H179.102V132.576C179.102 132.803 179.141 132.982 179.219 133.112C179.298 133.24 179.399 133.331 179.525 133.386C179.65 133.438 179.784 133.464 179.926 133.464C180.009 133.464 180.08 133.459 180.139 133.45C180.198 133.438 180.25 133.426 180.295 133.414L180.43 133.986C180.369 134.009 180.293 134.031 180.203 134.05C180.113 134.071 180.002 134.082 179.869 134.082C179.637 134.082 179.414 134.031 179.198 133.929C178.985 133.827 178.81 133.676 178.673 133.474C178.535 133.273 178.467 133.023 178.467 132.725V127.239ZM107.835 146V140.545H108.449V141.384H108.495C108.604 141.109 108.793 140.888 109.063 140.719C109.335 140.549 109.643 140.464 109.987 140.464C110.039 140.464 110.097 140.465 110.161 140.467C110.224 140.47 110.278 140.472 110.32 140.474V141.117C110.292 141.112 110.242 141.105 110.171 141.096C110.1 141.086 110.023 141.082 109.94 141.082C109.656 141.082 109.403 141.142 109.18 141.263C108.96 141.381 108.786 141.546 108.658 141.756C108.531 141.967 108.467 142.207 108.467 142.477V146H107.835ZM113.438 146.114C112.929 146.114 112.489 145.995 112.117 145.759C111.746 145.519 111.458 145.189 111.254 144.768C111.053 144.344 110.952 143.856 110.952 143.305C110.952 142.755 111.053 142.268 111.254 141.842C111.458 141.413 111.738 141.078 112.096 140.837C112.456 140.593 112.871 140.471 113.342 140.471C113.638 140.471 113.924 140.525 114.198 140.634C114.473 140.741 114.719 140.905 114.937 141.128C115.157 141.348 115.331 141.626 115.459 141.962C115.587 142.296 115.651 142.692 115.651 143.148V143.461H111.389V142.903H115.004C115.004 142.553 114.933 142.238 114.791 141.959C114.652 141.677 114.456 141.455 114.205 141.291C113.957 141.128 113.669 141.046 113.342 141.046C112.997 141.046 112.692 141.138 112.43 141.323C112.167 141.508 111.961 141.752 111.812 142.055C111.665 142.358 111.59 142.689 111.588 143.049V143.383C111.588 143.816 111.663 144.195 111.812 144.519C111.963 144.841 112.178 145.091 112.455 145.268C112.732 145.446 113.059 145.535 113.438 145.535C113.696 145.535 113.922 145.495 114.116 145.414C114.313 145.334 114.478 145.226 114.61 145.091C114.745 144.954 114.847 144.803 114.915 144.64L115.516 144.835C115.433 145.065 115.297 145.277 115.107 145.471C114.92 145.665 114.686 145.821 114.404 145.94C114.125 146.056 113.803 146.114 113.438 146.114ZM117.676 138.727V146H117.044V138.727H117.676ZM120.872 146.124C120.543 146.124 120.242 146.06 119.97 145.933C119.697 145.802 119.481 145.615 119.32 145.371C119.159 145.125 119.078 144.827 119.078 144.477C119.078 144.207 119.129 143.979 119.231 143.795C119.333 143.61 119.477 143.459 119.664 143.34C119.851 143.222 120.073 143.128 120.328 143.06C120.584 142.991 120.866 142.938 121.173 142.9C121.479 142.862 121.737 142.829 121.948 142.8C122.161 142.772 122.323 142.727 122.434 142.665C122.545 142.604 122.601 142.504 122.601 142.367V142.239C122.601 141.868 122.49 141.575 122.267 141.362C122.047 141.147 121.73 141.039 121.316 141.039C120.923 141.039 120.602 141.125 120.353 141.298C120.107 141.471 119.934 141.675 119.835 141.909L119.235 141.692C119.358 141.394 119.528 141.156 119.746 140.979C119.964 140.799 120.208 140.67 120.477 140.592C120.747 140.511 121.021 140.471 121.298 140.471C121.506 140.471 121.723 140.498 121.948 140.553C122.175 140.607 122.386 140.702 122.58 140.837C122.774 140.969 122.931 141.155 123.052 141.394C123.173 141.631 123.233 141.932 123.233 142.296V146H122.601V145.137H122.562C122.486 145.298 122.374 145.454 122.225 145.606C122.075 145.757 121.888 145.882 121.664 145.979C121.439 146.076 121.175 146.124 120.872 146.124ZM120.957 145.545C121.293 145.545 121.584 145.471 121.83 145.322C122.077 145.173 122.266 144.975 122.399 144.729C122.534 144.48 122.601 144.207 122.601 143.908V143.12C122.554 143.165 122.474 143.205 122.363 143.241C122.254 143.276 122.128 143.308 121.983 143.337C121.841 143.363 121.699 143.385 121.557 143.404C121.415 143.423 121.287 143.44 121.173 143.454C120.866 143.492 120.603 143.551 120.385 143.631C120.167 143.712 120 143.823 119.884 143.965C119.768 144.105 119.71 144.285 119.71 144.505C119.71 144.836 119.829 145.093 120.066 145.276C120.302 145.455 120.599 145.545 120.957 145.545ZM127.063 140.545V141.096H124.46V140.545H127.063ZM125.273 139.239H125.909V144.576C125.909 144.803 125.948 144.982 126.026 145.112C126.104 145.24 126.206 145.331 126.331 145.386C126.457 145.438 126.591 145.464 126.733 145.464C126.816 145.464 126.887 145.459 126.946 145.45C127.005 145.438 127.057 145.426 127.102 145.414L127.237 145.986C127.175 146.009 127.1 146.031 127.01 146.05C126.92 146.071 126.809 146.082 126.676 146.082C126.444 146.082 126.22 146.031 126.005 145.929C125.792 145.827 125.617 145.676 125.479 145.474C125.342 145.273 125.273 145.023 125.273 144.725V139.239ZM130.645 146.114C130.136 146.114 129.696 145.995 129.324 145.759C128.953 145.519 128.665 145.189 128.461 144.768C128.26 144.344 128.159 143.856 128.159 143.305C128.159 142.755 128.26 142.268 128.461 141.842C128.665 141.413 128.945 141.078 129.303 140.837C129.663 140.593 130.078 140.471 130.549 140.471C130.845 140.471 131.131 140.525 131.405 140.634C131.68 140.741 131.926 140.905 132.144 141.128C132.364 141.348 132.538 141.626 132.666 141.962C132.794 142.296 132.858 142.692 132.858 143.148V143.461H128.596V142.903H132.211C132.211 142.553 132.14 142.238 131.998 141.959C131.859 141.677 131.663 141.455 131.412 141.291C131.164 141.128 130.876 141.046 130.549 141.046C130.204 141.046 129.9 141.138 129.637 141.323C129.374 141.508 129.168 141.752 129.019 142.055C128.872 142.358 128.797 142.689 128.795 143.049V143.383C128.795 143.816 128.87 144.195 129.019 144.519C129.17 144.841 129.385 145.091 129.662 145.268C129.939 145.446 130.266 145.535 130.645 145.535C130.903 145.535 131.129 145.495 131.324 145.414C131.52 145.334 131.685 145.226 131.817 145.091C131.952 144.954 132.054 144.803 132.123 144.64L132.723 144.835C132.64 145.065 132.504 145.277 132.314 145.471C132.127 145.665 131.893 145.821 131.611 145.94C131.332 146.056 131.01 146.114 130.645 146.114ZM136.214 146.114C135.767 146.114 135.375 145.995 135.039 145.759C134.703 145.522 134.44 145.192 134.251 144.768C134.064 144.344 133.97 143.85 133.97 143.287C133.97 142.726 134.064 142.235 134.251 141.813C134.44 141.389 134.704 141.06 135.042 140.826C135.381 140.589 135.775 140.471 136.225 140.471C136.556 140.471 136.832 140.53 137.052 140.648C137.273 140.764 137.449 140.909 137.581 141.082C137.714 141.254 137.817 141.423 137.89 141.586H137.947V138.727H138.583V146H137.965V144.988H137.89C137.817 145.154 137.713 145.324 137.578 145.499C137.443 145.672 137.264 145.818 137.042 145.936C136.822 146.054 136.546 146.114 136.214 146.114ZM136.289 145.535C136.642 145.535 136.942 145.439 137.191 145.247C137.439 145.053 137.629 144.787 137.759 144.448C137.892 144.107 137.958 143.717 137.958 143.276C137.958 142.841 137.893 142.456 137.763 142.122C137.632 141.786 137.443 141.523 137.194 141.334C136.946 141.142 136.644 141.046 136.289 141.046C135.924 141.046 135.617 141.146 135.366 141.344C135.117 141.541 134.928 141.807 134.797 142.143C134.67 142.48 134.606 142.857 134.606 143.276C134.606 143.7 134.671 144.082 134.801 144.423C134.931 144.764 135.121 145.035 135.369 145.237C135.62 145.435 135.927 145.535 136.289 145.535ZM145.327 146.114C144.839 146.114 144.414 145.992 144.052 145.748C143.692 145.504 143.412 145.17 143.214 144.746C143.015 144.323 142.915 143.84 142.915 143.298C142.915 142.751 143.016 142.264 143.217 141.838C143.421 141.412 143.702 141.078 144.062 140.837C144.422 140.593 144.84 140.471 145.316 140.471C145.68 140.471 146.011 140.542 146.307 140.684C146.603 140.824 146.846 141.021 147.038 141.277C147.232 141.53 147.354 141.826 147.404 142.165H146.765C146.698 141.857 146.539 141.594 146.285 141.376C146.034 141.156 145.715 141.046 145.327 141.046C144.979 141.046 144.671 141.141 144.403 141.33C144.136 141.517 143.926 141.779 143.775 142.115C143.626 142.449 143.551 142.836 143.551 143.276C143.551 143.719 143.624 144.111 143.771 144.452C143.918 144.79 144.124 145.055 144.389 145.247C144.657 145.439 144.969 145.535 145.327 145.535C145.568 145.535 145.788 145.49 145.987 145.4C146.188 145.308 146.356 145.177 146.491 145.009C146.629 144.841 146.721 144.641 146.768 144.409H147.407C147.36 144.738 147.243 145.032 147.056 145.29C146.871 145.545 146.631 145.747 146.335 145.893C146.041 146.04 145.705 146.114 145.327 146.114ZM150.882 146.114C150.411 146.114 149.994 145.994 149.632 145.755C149.272 145.516 148.991 145.186 148.787 144.764C148.584 144.34 148.482 143.852 148.482 143.298C148.482 142.739 148.584 142.248 148.787 141.824C148.991 141.398 149.272 141.066 149.632 140.83C149.994 140.59 150.411 140.471 150.882 140.471C151.353 140.471 151.769 140.59 152.129 140.83C152.489 141.069 152.77 141.4 152.974 141.824C153.18 142.248 153.283 142.739 153.283 143.298C153.283 143.852 153.181 144.34 152.977 144.764C152.774 145.186 152.491 145.516 152.129 145.755C151.769 145.994 151.353 146.114 150.882 146.114ZM150.882 145.535C151.261 145.535 151.582 145.433 151.845 145.229C152.107 145.026 152.306 144.755 152.441 144.416C152.579 144.078 152.647 143.705 152.647 143.298C152.647 142.89 152.579 142.516 152.441 142.175C152.306 141.835 152.107 141.561 151.845 141.355C151.582 141.149 151.261 141.046 150.882 141.046C150.506 141.046 150.185 141.149 149.92 141.355C149.657 141.561 149.457 141.835 149.32 142.175C149.185 142.516 149.117 142.89 149.117 143.298C149.117 143.705 149.185 144.078 149.32 144.416C149.457 144.755 149.657 145.026 149.92 145.229C150.183 145.433 150.503 145.535 150.882 145.535ZM158.136 143.915V140.545H158.768V146H158.136V145.094H158.087C157.959 145.374 157.756 145.607 157.479 145.794C157.202 145.979 156.864 146.071 156.464 146.071C156.116 146.071 155.807 145.995 155.537 145.844C155.267 145.69 155.055 145.465 154.901 145.169C154.747 144.873 154.67 144.51 154.67 144.079V140.545H155.303V144.04C155.303 144.466 155.428 144.809 155.679 145.07C155.93 145.328 156.252 145.457 156.645 145.457C156.891 145.457 157.128 145.397 157.355 145.279C157.582 145.161 157.769 144.988 157.916 144.761C158.063 144.531 158.136 144.249 158.136 143.915ZM160.442 146V140.545H161.056V141.384H161.102C161.211 141.109 161.401 140.888 161.671 140.719C161.943 140.549 162.251 140.464 162.594 140.464C162.646 140.464 162.704 140.465 162.768 140.467C162.832 140.47 162.885 140.472 162.928 140.474V141.117C162.899 141.112 162.85 141.105 162.779 141.096C162.708 141.086 162.631 141.082 162.548 141.082C162.264 141.082 162.01 141.142 161.788 141.263C161.568 141.381 161.394 141.546 161.266 141.756C161.138 141.967 161.074 142.207 161.074 142.477V146H160.442ZM167.671 141.742L167.092 141.906C167.036 141.742 166.955 141.594 166.851 141.462C166.747 141.329 166.611 141.224 166.442 141.146C166.277 141.067 166.071 141.028 165.825 141.028C165.455 141.028 165.152 141.116 164.915 141.291C164.679 141.466 164.56 141.692 164.56 141.969C164.56 142.204 164.641 142.394 164.802 142.541C164.965 142.686 165.216 142.8 165.555 142.886L166.379 143.088C166.835 143.199 167.178 143.376 167.405 143.617C167.634 143.859 167.749 144.162 167.749 144.526C167.749 144.834 167.664 145.107 167.494 145.347C167.323 145.586 167.085 145.774 166.78 145.911C166.477 146.046 166.125 146.114 165.725 146.114C165.192 146.114 164.753 145.994 164.408 145.755C164.062 145.513 163.841 145.165 163.744 144.711L164.351 144.562C164.429 144.886 164.582 145.131 164.809 145.297C165.039 145.463 165.34 145.545 165.714 145.545C166.134 145.545 166.469 145.452 166.719 145.265C166.97 145.076 167.096 144.839 167.096 144.555C167.096 144.335 167.022 144.15 166.876 144.001C166.729 143.849 166.506 143.738 166.208 143.667L165.317 143.454C164.843 143.34 164.493 143.16 164.266 142.914C164.038 142.668 163.925 142.362 163.925 141.998C163.925 141.697 164.006 141.433 164.17 141.206C164.333 140.976 164.558 140.796 164.844 140.666C165.131 140.536 165.458 140.471 165.825 140.471C166.324 140.471 166.723 140.585 167.021 140.812C167.322 141.037 167.539 141.347 167.671 141.742ZM171.339 146.114C170.83 146.114 170.389 145.995 170.018 145.759C169.646 145.519 169.358 145.189 169.155 144.768C168.953 144.344 168.853 143.856 168.853 143.305C168.853 142.755 168.953 142.268 169.155 141.842C169.358 141.413 169.639 141.078 169.996 140.837C170.356 140.593 170.772 140.471 171.243 140.471C171.539 140.471 171.824 140.525 172.099 140.634C172.373 140.741 172.619 140.905 172.837 141.128C173.057 141.348 173.231 141.626 173.359 141.962C173.487 142.296 173.551 142.692 173.551 143.148V143.461H169.29V142.903H172.905C172.905 142.553 172.834 142.238 172.692 141.959C172.552 141.677 172.357 141.455 172.106 141.291C171.857 141.128 171.569 141.046 171.243 141.046C170.897 141.046 170.593 141.138 170.33 141.323C170.067 141.508 169.861 141.752 169.712 142.055C169.565 142.358 169.491 142.689 169.488 143.049V143.383C169.488 143.816 169.563 144.195 169.712 144.519C169.864 144.841 170.078 145.091 170.355 145.268C170.632 145.446 170.96 145.535 171.339 145.535C171.597 145.535 171.823 145.495 172.017 145.414C172.213 145.334 172.378 145.226 172.51 145.091C172.645 144.954 172.747 144.803 172.816 144.64L173.416 144.835C173.333 145.065 173.197 145.277 173.008 145.471C172.821 145.665 172.586 145.821 172.305 145.94C172.025 146.056 171.703 146.114 171.339 146.114ZM178.609 141.742L178.03 141.906C177.973 141.742 177.893 141.594 177.788 141.462C177.684 141.329 177.548 141.224 177.38 141.146C177.214 141.067 177.008 141.028 176.762 141.028C176.393 141.028 176.09 141.116 175.853 141.291C175.616 141.466 175.498 141.692 175.498 141.969C175.498 142.204 175.578 142.394 175.739 142.541C175.903 142.686 176.154 142.8 176.492 142.886L177.316 143.088C177.773 143.199 178.115 143.376 178.342 143.617C178.572 143.859 178.687 144.162 178.687 144.526C178.687 144.834 178.602 145.107 178.431 145.347C178.261 145.586 178.023 145.774 177.717 145.911C177.414 146.046 177.063 146.114 176.663 146.114C176.13 146.114 175.691 145.994 175.345 145.755C175 145.513 174.778 145.165 174.681 144.711L175.288 144.562C175.366 144.886 175.519 145.131 175.746 145.297C175.976 145.463 176.278 145.545 176.652 145.545C177.071 145.545 177.406 145.452 177.657 145.265C177.908 145.076 178.033 144.839 178.033 144.555C178.033 144.335 177.96 144.15 177.813 144.001C177.666 143.849 177.444 143.738 177.146 143.667L176.254 143.454C175.781 143.34 175.43 143.16 175.203 142.914C174.976 142.668 174.862 142.362 174.862 141.998C174.862 141.697 174.944 141.433 175.107 141.206C175.271 140.976 175.496 140.796 175.782 140.666C176.068 140.536 176.395 140.471 176.762 140.471C177.262 140.471 177.661 140.585 177.959 140.812C178.259 141.037 178.476 141.347 178.609 141.742Z" fill="#222222"/>
<path d="M5.83452 51.0455V43.5455H6.44886V44.5859H6.52344C6.5992 44.4226 6.70336 44.2557 6.83594 44.0852C6.96851 43.9124 7.1437 43.7668 7.36151 43.6484C7.58168 43.5301 7.85866 43.4709 8.19247 43.4709C8.64228 43.4709 9.03527 43.5893 9.37145 43.826C9.70999 44.0604 9.97277 44.3894 10.1598 44.8132C10.3492 45.2346 10.4439 45.7259 10.4439 46.2869C10.4439 46.8504 10.3492 47.344 10.1598 47.7678C9.97277 48.1915 9.70999 48.5218 9.37145 48.7585C9.03527 48.9953 8.64465 49.1136 8.19957 49.1136C7.8705 49.1136 7.5947 49.0545 7.37216 48.9361C7.15199 48.8177 6.97325 48.6721 6.83594 48.4993C6.70099 48.3241 6.59683 48.1536 6.52344 47.9879H6.46662V51.0455H5.83452ZM6.45952 46.2763C6.45952 46.7166 6.52462 47.1072 6.65483 47.4482C6.78741 47.7867 6.9768 48.053 7.22301 48.2472C7.47159 48.4389 7.77225 48.5348 8.125 48.5348C8.48722 48.5348 8.79261 48.4354 9.04119 48.2365C9.29214 48.0353 9.48272 47.7642 9.61293 47.4233C9.7455 47.0824 9.81179 46.7 9.81179 46.2763C9.81179 45.8572 9.74669 45.4796 9.61648 45.1435C9.48864 44.8073 9.29924 44.541 9.0483 44.3445C8.79735 44.1456 8.48958 44.0462 8.125 44.0462C7.76989 44.0462 7.46804 44.142 7.21946 44.3338C6.97088 44.5232 6.78149 44.786 6.65128 45.1222C6.52344 45.456 6.45952 45.8407 6.45952 46.2763ZM14.0359 49.1136C13.5269 49.1136 13.0865 48.9953 12.7148 48.7585C12.3432 48.5194 12.0555 48.1892 11.8519 47.7678C11.6507 47.344 11.5501 46.8563 11.5501 46.3047C11.5501 45.7554 11.6507 45.2678 11.8519 44.8416C12.0555 44.4131 12.3361 44.0781 12.6935 43.8366C13.0534 43.5928 13.4689 43.4709 13.94 43.4709C14.2359 43.4709 14.5212 43.5253 14.7958 43.6342C15.0704 43.7408 15.3166 43.9053 15.5344 44.1278C15.7546 44.348 15.9286 44.6262 16.0565 44.9624C16.1843 45.2962 16.2482 45.6915 16.2482 46.1484V46.4609H11.9869V45.9034H15.6019C15.6019 45.553 15.5309 45.2382 15.3888 44.9588C15.2492 44.6771 15.0539 44.4545 14.8029 44.2912C14.5543 44.1278 14.2667 44.0462 13.94 44.0462C13.5943 44.0462 13.2901 44.1385 13.0273 44.3232C12.7646 44.5078 12.5586 44.7517 12.4094 45.0547C12.2627 45.3577 12.1881 45.6892 12.1857 46.049V46.3828C12.1857 46.8161 12.2603 47.1948 12.4094 47.5192C12.561 47.8411 12.7752 48.0909 13.0522 48.2685C13.3292 48.446 13.6571 48.5348 14.0359 48.5348C14.2939 48.5348 14.52 48.4946 14.7141 48.4141C14.9106 48.3336 15.0752 48.2259 15.2077 48.0909C15.3427 47.9536 15.4445 47.8033 15.5131 47.6399L16.1133 47.8352C16.0304 48.0649 15.8943 48.2768 15.7049 48.4709C15.5179 48.665 15.2835 48.8213 15.0018 48.9396C14.7224 49.0556 14.4004 49.1136 14.0359 49.1136ZM19.7612 49.1136C19.2901 49.1136 18.8734 48.9941 18.5112 48.755C18.1513 48.5159 17.8696 48.1856 17.666 47.7642C17.4624 47.3404 17.3606 46.8516 17.3606 46.2976C17.3606 45.7389 17.4624 45.2476 17.666 44.8239C17.8696 44.3977 18.1513 44.0663 18.5112 43.8295C18.8734 43.5904 19.2901 43.4709 19.7612 43.4709C20.2323 43.4709 20.6478 43.5904 21.0076 43.8295C21.3675 44.0687 21.6492 44.4001 21.8528 44.8239C22.0588 45.2476 22.1618 45.7389 22.1618 46.2976C22.1618 46.8516 22.06 47.3404 21.8564 47.7642C21.6528 48.1856 21.3699 48.5159 21.0076 48.755C20.6478 48.9941 20.2323 49.1136 19.7612 49.1136ZM19.7612 48.5348C20.14 48.5348 20.4608 48.433 20.7235 48.2294C20.9863 48.0258 21.1852 47.7547 21.3201 47.4162C21.4574 47.0777 21.5261 46.7048 21.5261 46.2976C21.5261 45.8904 21.4574 45.5163 21.3201 45.1754C21.1852 44.8345 20.9863 44.5611 20.7235 44.3551C20.4608 44.1491 20.14 44.0462 19.7612 44.0462C19.3848 44.0462 19.064 44.1491 18.7988 44.3551C18.536 44.5611 18.336 44.8345 18.1987 45.1754C18.0637 45.5163 17.9963 45.8904 17.9963 46.2976C17.9963 46.7048 18.0637 47.0777 18.1987 47.4162C18.336 47.7547 18.536 48.0258 18.7988 48.2294C19.0616 48.433 19.3824 48.5348 19.7612 48.5348ZM23.5494 51.0455V43.5455H24.1637V44.5859H24.2383C24.314 44.4226 24.4182 44.2557 24.5508 44.0852C24.6834 43.9124 24.8585 43.7668 25.0763 43.6484C25.2965 43.5301 25.5735 43.4709 25.9073 43.4709C26.3571 43.4709 26.7501 43.5893 27.0863 43.826C27.4248 44.0604 27.6876 44.3894 27.8746 44.8132C28.064 45.2346 28.1587 45.7259 28.1587 46.2869C28.1587 46.8504 28.064 47.344 27.8746 47.7678C27.6876 48.1915 27.4248 48.5218 27.0863 48.7585C26.7501 48.9953 26.3595 49.1136 25.9144 49.1136C25.5853 49.1136 25.3095 49.0545 25.087 48.9361C24.8668 48.8177 24.6881 48.6721 24.5508 48.4993C24.4158 48.3241 24.3117 48.1536 24.2383 47.9879H24.1815V51.0455H23.5494ZM24.1744 46.2763C24.1744 46.7166 24.2395 47.1072 24.3697 47.4482C24.5022 47.7867 24.6916 48.053 24.9379 48.2472C25.1864 48.4389 25.4871 48.5348 25.8398 48.5348C26.2021 48.5348 26.5075 48.4354 26.756 48.2365C27.007 48.0353 27.1976 47.7642 27.3278 47.4233C27.4603 47.0824 27.5266 46.7 27.5266 46.2763C27.5266 45.8572 27.4615 45.4796 27.3313 45.1435C27.2035 44.8073 27.0141 44.541 26.7631 44.3445C26.5122 44.1456 26.2044 44.0462 25.8398 44.0462C25.4847 44.0462 25.1829 44.142 24.9343 44.3338C24.6857 44.5232 24.4963 44.786 24.3661 45.1222C24.2383 45.456 24.1744 45.8407 24.1744 46.2763ZM30.1776 41.7273V49H29.5455V41.7273H30.1776ZM34.0554 49.1136C33.5464 49.1136 33.1061 48.9953 32.7344 48.7585C32.3627 48.5194 32.075 48.1892 31.8714 47.7678C31.6702 47.344 31.5696 46.8563 31.5696 46.3047C31.5696 45.7554 31.6702 45.2678 31.8714 44.8416C32.075 44.4131 32.3556 44.0781 32.7131 43.8366C33.0729 43.5928 33.4884 43.4709 33.9595 43.4709C34.2554 43.4709 34.5407 43.5253 34.8153 43.6342C35.09 43.7408 35.3362 43.9053 35.554 44.1278C35.7741 44.348 35.9482 44.6262 36.076 44.9624C36.2038 45.2962 36.2678 45.6915 36.2678 46.1484V46.4609H32.0064V45.9034H35.6214C35.6214 45.553 35.5504 45.2382 35.4084 44.9588C35.2687 44.6771 35.0734 44.4545 34.8224 44.2912C34.5739 44.1278 34.2862 44.0462 33.9595 44.0462C33.6139 44.0462 33.3097 44.1385 33.0469 44.3232C32.7841 44.5078 32.5781 44.7517 32.429 45.0547C32.2822 45.3577 32.2076 45.6892 32.2053 46.049V46.3828C32.2053 46.8161 32.2798 47.1948 32.429 47.5192C32.5805 47.8411 32.7947 48.0909 33.0717 48.2685C33.3487 48.446 33.6766 48.5348 34.0554 48.5348C34.3134 48.5348 34.5395 48.4946 34.7337 48.4141C34.9302 48.3336 35.0947 48.2259 35.2273 48.0909C35.3622 47.9536 35.464 47.8033 35.5327 47.6399L36.1328 47.8352C36.05 48.0649 35.9138 48.2768 35.7244 48.4709C35.5374 48.665 35.303 48.8213 35.0213 48.9396C34.742 49.0556 34.42 49.1136 34.0554 49.1136ZM41.6841 49L40.0364 43.5455H40.704L41.9966 48.0447H42.0428L43.3319 43.5455H44.003L45.2814 48.0341H45.3311L46.6238 43.5455H47.2914L45.6436 49H44.9902L43.6976 44.5291H43.6301L42.3375 49H41.6841ZM49.1522 45.5909V49H48.5201V41.7273H49.1522V44.4013H49.209C49.3368 44.1196 49.5345 43.8946 49.802 43.7266C50.0719 43.5585 50.4128 43.4744 50.8248 43.4744C51.1941 43.4744 51.5184 43.5502 51.7978 43.7017C52.0771 43.8532 52.2949 44.0769 52.4512 44.3729C52.6074 44.6688 52.6855 45.0334 52.6855 45.4666V49H52.0499V45.5057C52.0499 45.0559 51.9244 44.7019 51.6735 44.4439C51.4249 44.1835 51.0887 44.0533 50.665 44.0533C50.3738 44.0533 50.1145 44.1148 49.8873 44.2379C49.66 44.361 49.4801 44.5386 49.3475 44.7706C49.2173 45.0002 49.1522 45.2737 49.1522 45.5909ZM56.4702 49.1136C55.9991 49.1136 55.5824 48.9941 55.2202 48.755C54.8603 48.5159 54.5786 48.1856 54.375 47.7642C54.1714 47.3404 54.0696 46.8516 54.0696 46.2976C54.0696 45.7389 54.1714 45.2476 54.375 44.8239C54.5786 44.3977 54.8603 44.0663 55.2202 43.8295C55.5824 43.5904 55.9991 43.4709 56.4702 43.4709C56.9413 43.4709 57.3568 43.5904 57.7166 43.8295C58.0765 44.0687 58.3582 44.4001 58.5618 44.8239C58.7678 45.2476 58.8707 45.7389 58.8707 46.2976C58.8707 46.8516 58.7689 47.3404 58.5653 47.7642C58.3617 48.1856 58.0788 48.5159 57.7166 48.755C57.3568 48.9941 56.9413 49.1136 56.4702 49.1136ZM56.4702 48.5348C56.849 48.5348 57.1697 48.433 57.4325 48.2294C57.6953 48.0258 57.8942 47.7547 58.0291 47.4162C58.1664 47.0777 58.2351 46.7048 58.2351 46.2976C58.2351 45.8904 58.1664 45.5163 58.0291 45.1754C57.8942 44.8345 57.6953 44.5611 57.4325 44.3551C57.1697 44.1491 56.849 44.0462 56.4702 44.0462C56.0938 44.0462 55.773 44.1491 55.5078 44.3551C55.245 44.5611 55.045 44.8345 54.9077 45.1754C54.7727 45.5163 54.7053 45.8904 54.7053 46.2976C54.7053 46.7048 54.7727 47.0777 54.9077 47.4162C55.045 47.7547 55.245 48.0258 55.5078 48.2294C55.7706 48.433 56.0914 48.5348 56.4702 48.5348ZM63.7029 41.7273V49H63.0708V41.7273H63.7029ZM65.3826 49V43.5455H66.0183V49H65.3826ZM65.7058 42.608C65.5756 42.608 65.4643 42.5642 65.372 42.4766C65.2797 42.3866 65.2335 42.2789 65.2335 42.1534C65.2335 42.0279 65.2797 41.9214 65.372 41.8338C65.4643 41.7438 65.5756 41.6989 65.7058 41.6989C65.836 41.6989 65.9473 41.7438 66.0396 41.8338C66.1319 41.9214 66.1781 42.0279 66.1781 42.1534C66.1781 42.2789 66.1319 42.3866 66.0396 42.4766C65.9473 42.5642 65.836 42.608 65.7058 42.608ZM71.9123 43.5455L69.9201 49H69.2454L67.2532 43.5455H67.9386L69.5579 48.1655H69.6076L71.2269 43.5455H71.9123ZM75.1589 49.1136C74.6499 49.1136 74.2096 48.9953 73.8379 48.7585C73.4662 48.5194 73.1786 48.1892 72.975 47.7678C72.7737 47.344 72.6731 46.8563 72.6731 46.3047C72.6731 45.7554 72.7737 45.2678 72.975 44.8416C73.1786 44.4131 73.4591 44.0781 73.8166 43.8366C74.1764 43.5928 74.5919 43.4709 75.063 43.4709C75.359 43.4709 75.6442 43.5253 75.9189 43.6342C76.1935 43.7408 76.4397 43.9053 76.6575 44.1278C76.8777 44.348 77.0517 44.6262 77.1795 44.9624C77.3074 45.2962 77.3713 45.6915 77.3713 46.1484V46.4609H73.1099V45.9034H76.725C76.725 45.553 76.6539 45.2382 76.5119 44.9588C76.3722 44.6771 76.1769 44.4545 75.926 44.2912C75.6774 44.1278 75.3897 44.0462 75.063 44.0462C74.7174 44.0462 74.4132 44.1385 74.1504 44.3232C73.8876 44.5078 73.6816 44.7517 73.5325 45.0547C73.3857 45.3577 73.3111 45.6892 73.3088 46.049V46.3828C73.3088 46.8161 73.3833 47.1948 73.5325 47.5192C73.684 47.8411 73.8983 48.0909 74.1752 48.2685C74.4522 48.446 74.7801 48.5348 75.1589 48.5348C75.417 48.5348 75.6431 48.4946 75.8372 48.4141C76.0337 48.3336 76.1982 48.2259 76.3308 48.0909C76.4657 47.9536 76.5675 47.8033 76.6362 47.6399L77.2363 47.8352C77.1535 48.0649 77.0173 48.2768 76.8279 48.4709C76.6409 48.665 76.4065 48.8213 76.1248 48.9396C75.8455 49.0556 75.5235 49.1136 75.1589 49.1136ZM5.84162 61V55.5455H6.47727V61H5.84162ZM6.16477 54.608C6.03456 54.608 5.9233 54.5642 5.83097 54.4766C5.73864 54.3866 5.69247 54.2789 5.69247 54.1534C5.69247 54.0279 5.73864 53.9214 5.83097 53.8338C5.9233 53.7438 6.03456 53.6989 6.16477 53.6989C6.29498 53.6989 6.40625 53.7438 6.49858 53.8338C6.59091 53.9214 6.63707 54.0279 6.63707 54.1534C6.63707 54.2789 6.59091 54.3866 6.49858 54.4766C6.40625 54.5642 6.29498 54.608 6.16477 54.608ZM8.78107 57.5909V61H8.14897V55.5455H8.76332V56.4013H8.82013C8.94798 56.1219 9.14684 55.8982 9.41673 55.7301C9.68898 55.5597 10.0252 55.4744 10.4252 55.4744C10.7922 55.4744 11.1142 55.5514 11.3912 55.7053C11.6705 55.8568 11.8871 56.0805 12.041 56.3764C12.1973 56.6723 12.2754 57.0357 12.2754 57.4666V61H11.6433V57.5057C11.6433 57.0582 11.5178 56.7043 11.2669 56.4439C11.0183 56.1835 10.6845 56.0533 10.2654 56.0533C9.97899 56.0533 9.72449 56.1148 9.50195 56.2379C9.27942 56.361 9.10304 56.5386 8.97283 56.7706C8.84499 57.0002 8.78107 57.2737 8.78107 57.5909ZM16.7525 63.0455V55.5455H17.3668V56.5859H17.4414C17.5172 56.4226 17.6213 56.2557 17.7539 56.0852C17.8865 55.9124 18.0617 55.7668 18.2795 55.6484C18.4996 55.5301 18.7766 55.4709 19.1104 55.4709C19.5603 55.4709 19.9532 55.5893 20.2894 55.826C20.628 56.0604 20.8907 56.3894 21.0778 56.8132C21.2672 57.2346 21.3619 57.7259 21.3619 58.2869C21.3619 58.8504 21.2672 59.344 21.0778 59.7678C20.8907 60.1915 20.628 60.5218 20.2894 60.7585C19.9532 60.9953 19.5626 61.1136 19.1175 61.1136C18.7885 61.1136 18.5127 61.0545 18.2901 60.9361C18.07 60.8177 17.8912 60.6721 17.7539 60.4993C17.619 60.3241 17.5148 60.1536 17.4414 59.9879H17.3846V63.0455H16.7525ZM17.3775 58.2763C17.3775 58.7166 17.4426 59.1072 17.5728 59.4482C17.7054 59.7867 17.8948 60.053 18.141 60.2472C18.3896 60.4389 18.6902 60.5348 19.043 60.5348C19.4052 60.5348 19.7106 60.4354 19.9592 60.2365C20.2101 60.0353 20.4007 59.7642 20.5309 59.4233C20.6635 59.0824 20.7298 58.7 20.7298 58.2763C20.7298 57.8572 20.6647 57.4796 20.5344 57.1435C20.4066 56.8073 20.2172 56.541 19.9663 56.3445C19.7153 56.1456 19.4076 56.0462 19.043 56.0462C18.6879 56.0462 18.386 56.142 18.1374 56.3338C17.8888 56.5232 17.6995 56.786 17.5692 57.1222C17.4414 57.456 17.3775 57.8407 17.3775 58.2763ZM23.3807 53.7273V61H22.7486V53.7273H23.3807ZM26.5767 61.1243C26.2476 61.1243 25.947 61.0604 25.6747 60.9325C25.4025 60.8023 25.1858 60.6153 25.0249 60.3714C24.8639 60.1252 24.7834 59.8269 24.7834 59.4766C24.7834 59.2067 24.8343 58.9794 24.9361 58.7947C25.0379 58.6101 25.1823 58.4586 25.3693 58.3402C25.5563 58.2218 25.7777 58.1283 26.0334 58.0597C26.2891 57.991 26.5708 57.9377 26.8786 57.8999C27.1839 57.862 27.442 57.8288 27.6527 57.8004C27.8658 57.772 28.0279 57.727 28.1392 57.6655C28.2505 57.6039 28.3061 57.5045 28.3061 57.3672V57.2393C28.3061 56.8677 28.1948 56.5753 27.9723 56.3622C27.7521 56.1468 27.4349 56.0391 27.0206 56.0391C26.6276 56.0391 26.3068 56.1255 26.0582 56.2983C25.812 56.4711 25.6392 56.6747 25.5398 56.9091L24.9396 56.6925C25.0627 56.3942 25.2332 56.1562 25.451 55.9787C25.6688 55.7988 25.9126 55.6697 26.1825 55.5916C26.4524 55.5111 26.7259 55.4709 27.0028 55.4709C27.2112 55.4709 27.4278 55.4981 27.6527 55.5526C27.88 55.607 28.0907 55.7017 28.2848 55.8366C28.4789 55.9692 28.6364 56.1551 28.7571 56.3942C28.8778 56.6309 28.9382 56.9316 28.9382 57.2962V61H28.3061V60.1371H28.267C28.1913 60.2981 28.0788 60.4543 27.9297 60.6058C27.7805 60.7573 27.5935 60.8816 27.3686 60.9787C27.1437 61.0758 26.8797 61.1243 26.5767 61.1243ZM26.6619 60.5455C26.9981 60.5455 27.2893 60.4709 27.5355 60.3217C27.7817 60.1726 27.9711 59.9749 28.1037 59.7287C28.2386 59.4801 28.3061 59.2067 28.3061 58.9084V58.12C28.2588 58.165 28.1795 58.2053 28.0682 58.2408C27.9593 58.2763 27.8326 58.3082 27.6882 58.3366C27.5462 58.3627 27.4041 58.3852 27.2621 58.4041C27.12 58.4231 26.9922 58.4396 26.8786 58.4538C26.5708 58.4917 26.308 58.5509 26.0902 58.6314C25.8724 58.7119 25.7055 58.8232 25.5895 58.9652C25.4735 59.1049 25.4155 59.2848 25.4155 59.505C25.4155 59.8364 25.5339 60.0933 25.7706 60.2756C26.0073 60.4555 26.3045 60.5455 26.6619 60.5455ZM32.7504 61.1136C32.2627 61.1136 31.8377 60.9917 31.4755 60.7479C31.1156 60.504 30.8363 60.1702 30.6374 59.7464C30.4386 59.3227 30.3391 58.8397 30.3391 58.2976C30.3391 57.7507 30.4397 57.2642 30.641 56.8381C30.8446 56.4119 31.1263 56.0781 31.4862 55.8366C31.846 55.5928 32.2638 55.4709 32.7397 55.4709C33.1043 55.4709 33.4345 55.5419 33.7305 55.6839C34.0264 55.8236 34.2702 56.0213 34.462 56.277C34.6561 56.5303 34.7781 56.8262 34.8278 57.1648H34.1886C34.1223 56.857 33.9625 56.5942 33.7092 56.3764C33.4582 56.1562 33.1386 56.0462 32.7504 56.0462C32.4023 56.0462 32.0946 56.1409 31.8271 56.3303C31.5595 56.5173 31.35 56.7789 31.1985 57.1151C31.0494 57.4489 30.9748 57.8359 30.9748 58.2763C30.9748 58.719 31.0482 59.1108 31.195 59.4517C31.3417 59.7902 31.5477 60.0554 31.8129 60.2472C32.0804 60.4389 32.3929 60.5348 32.7504 60.5348C32.9918 60.5348 33.212 60.4898 33.4109 60.3999C33.6121 60.3075 33.7802 60.1773 33.9151 60.0092C34.0524 59.8411 34.1448 59.6411 34.1921 59.4091H34.8313C34.784 59.7382 34.6668 60.0317 34.4798 60.2898C34.2951 60.5455 34.0548 60.7467 33.7589 60.8935C33.4653 61.0402 33.1291 61.1136 32.7504 61.1136ZM38.3913 61.1136C37.8823 61.1136 37.442 60.9953 37.0703 60.7585C36.6986 60.5194 36.411 60.1892 36.2074 59.7678C36.0062 59.344 35.9055 58.8563 35.9055 58.3047C35.9055 57.7554 36.0062 57.2678 36.2074 56.8416C36.411 56.4131 36.6915 56.0781 37.049 55.8366C37.4089 55.5928 37.8243 55.4709 38.2955 55.4709C38.5914 55.4709 38.8767 55.5253 39.1513 55.6342C39.4259 55.7408 39.6721 55.9053 39.8899 56.1278C40.1101 56.348 40.2841 56.6262 40.4119 56.9624C40.5398 57.2962 40.6037 57.6915 40.6037 58.1484V58.4609H36.3423V57.9034H39.9574C39.9574 57.553 39.8864 57.2382 39.7443 56.9588C39.6046 56.6771 39.4093 56.4545 39.1584 56.2912C38.9098 56.1278 38.6222 56.0462 38.2955 56.0462C37.9498 56.0462 37.6456 56.1385 37.3828 56.3232C37.12 56.5078 36.9141 56.7517 36.7649 57.0547C36.6181 57.3577 36.5436 57.6892 36.5412 58.049V58.3828C36.5412 58.8161 36.6158 59.1948 36.7649 59.5192C36.9164 59.8411 37.1307 60.0909 37.4077 60.2685C37.6847 60.446 38.0125 60.5348 38.3913 60.5348C38.6494 60.5348 38.8755 60.4946 39.0696 60.4141C39.2661 60.3336 39.4306 60.2259 39.5632 60.0909C39.6982 59.9536 39.8 59.8033 39.8686 59.6399L40.4688 59.8352C40.3859 60.0649 40.2498 60.2768 40.0604 60.4709C39.8733 60.665 39.639 60.8213 39.3572 60.9396C39.0779 61.0556 38.7559 61.1136 38.3913 61.1136ZM45.6614 56.7422L45.0826 56.9055C45.0257 56.7422 44.9453 56.5942 44.8411 56.4616C44.7369 56.3291 44.6008 56.2237 44.4327 56.1456C44.267 56.0675 44.061 56.0284 43.8148 56.0284C43.4455 56.0284 43.1425 56.116 42.9057 56.2912C42.669 56.4664 42.5506 56.6925 42.5506 56.9695C42.5506 57.2038 42.6311 57.3944 42.7921 57.5412C42.9554 57.6856 43.2064 57.8004 43.5449 57.8857L44.3688 58.0881C44.8257 58.1993 45.1678 58.3757 45.3951 58.6172C45.6247 58.8587 45.7395 59.1617 45.7395 59.5263C45.7395 59.834 45.6543 60.1075 45.4838 60.3466C45.3134 60.5857 45.0755 60.7739 44.7701 60.9112C44.467 61.0462 44.1155 61.1136 43.7154 61.1136C43.1827 61.1136 42.7435 60.9941 42.3979 60.755C42.0523 60.5135 41.8309 60.1655 41.7338 59.7109L42.3411 59.5618C42.4192 59.8861 42.5719 60.1312 42.7992 60.2969C43.0288 60.4626 43.3307 60.5455 43.7047 60.5455C44.1238 60.5455 44.4587 60.4519 44.7097 60.2649C44.9606 60.0755 45.0861 59.8388 45.0861 59.5547C45.0861 59.3345 45.0127 59.1499 44.8659 59.0007C44.7192 58.8492 44.4966 58.7379 44.1983 58.6669L43.307 58.4538C42.8335 58.3402 42.4831 58.1603 42.2559 57.9141C42.0286 57.6679 41.915 57.3625 41.915 56.9979C41.915 56.6972 41.9966 56.4332 42.16 56.206C42.3233 55.9763 42.5482 55.7964 42.8347 55.6662C43.1212 55.536 43.4479 55.4709 43.8148 55.4709C44.3143 55.4709 44.7132 55.5845 45.0115 55.8118C45.3122 56.0367 45.5288 56.3468 45.6614 56.7422ZM51.147 61L49.4993 55.5455H50.1669L51.4595 60.0447H51.5057L52.7947 55.5455H53.4659L54.7443 60.0341H54.794L56.0866 55.5455H56.7543L55.1065 61H54.4531L53.1605 56.5291H53.093L51.8004 61H51.147ZM57.9901 61V55.5455H58.6257V61H57.9901ZM58.3132 54.608C58.183 54.608 58.0717 54.5642 57.9794 54.4766C57.8871 54.3866 57.8409 54.2789 57.8409 54.1534C57.8409 54.0279 57.8871 53.9214 57.9794 53.8338C58.0717 53.7438 58.183 53.6989 58.3132 53.6989C58.4434 53.6989 58.5547 53.7438 58.647 53.8338C58.7393 53.9214 58.7855 54.0279 58.7855 54.1534C58.7855 54.2789 58.7393 54.3866 58.647 54.4766C58.5547 54.5642 58.4434 54.608 58.3132 54.608ZM62.4458 55.5455V56.0959H59.8429V55.5455H62.4458ZM60.6561 54.2386H61.2917V59.576C61.2917 59.8033 61.3308 59.982 61.4089 60.1122C61.487 60.2401 61.5888 60.3312 61.7143 60.3857C61.8398 60.4377 61.9735 60.4638 62.1156 60.4638C62.1984 60.4638 62.2695 60.459 62.3287 60.4496C62.3878 60.4377 62.4399 60.4259 62.4849 60.4141L62.6199 60.9858C62.5583 61.0095 62.4825 61.0308 62.3926 61.0497C62.3026 61.071 62.1913 61.0817 62.0588 61.0817C61.8268 61.0817 61.603 61.0308 61.3876 60.929C61.1745 60.8272 60.9993 60.6757 60.862 60.4744C60.7247 60.2732 60.6561 60.0234 60.6561 59.7251V54.2386ZM64.6307 57.5909V61H63.9986V53.7273H64.6307V56.4013H64.6875C64.8153 56.1196 65.013 55.8946 65.2805 55.7266C65.5504 55.5585 65.8913 55.4744 66.3033 55.4744C66.6726 55.4744 66.9969 55.5502 67.2763 55.7017C67.5556 55.8532 67.7734 56.0769 67.9297 56.3729C68.0859 56.6688 68.1641 57.0334 68.1641 57.4666V61H67.5284V57.5057C67.5284 57.0559 67.4029 56.7019 67.152 56.4439C66.9034 56.1835 66.5672 56.0533 66.1435 56.0533C65.8523 56.0533 65.593 56.1148 65.3658 56.2379C65.1385 56.361 64.9586 56.5386 64.826 56.7706C64.6958 57.0002 64.6307 57.2737 64.6307 57.5909ZM73.2733 53.7273V61H72.6412V53.7273H73.2733ZM77.0659 61.1136C76.5948 61.1136 76.1781 60.9941 75.8159 60.755C75.456 60.5159 75.1743 60.1856 74.9707 59.7642C74.7671 59.3404 74.6653 58.8516 74.6653 58.2976C74.6653 57.7389 74.7671 57.2476 74.9707 56.8239C75.1743 56.3977 75.456 56.0663 75.8159 55.8295C76.1781 55.5904 76.5948 55.4709 77.0659 55.4709C77.537 55.4709 77.9525 55.5904 78.3123 55.8295C78.6722 56.0687 78.9539 56.4001 79.1575 56.8239C79.3635 57.2476 79.4664 57.7389 79.4664 58.2976C79.4664 58.8516 79.3646 59.3404 79.161 59.7642C78.9574 60.1856 78.6745 60.5159 78.3123 60.755C77.9525 60.9941 77.537 61.1136 77.0659 61.1136ZM77.0659 60.5348C77.4447 60.5348 77.7654 60.433 78.0282 60.2294C78.291 60.0258 78.4899 59.7547 78.6248 59.4162C78.7621 59.0777 78.8308 58.7048 78.8308 58.2976C78.8308 57.8904 78.7621 57.5163 78.6248 57.1754C78.4899 56.8345 78.291 56.5611 78.0282 56.3551C77.7654 56.1491 77.4447 56.0462 77.0659 56.0462C76.6895 56.0462 76.3687 56.1491 76.1035 56.3551C75.8407 56.5611 75.6407 56.8345 75.5034 57.1754C75.3684 57.5163 75.301 57.8904 75.301 58.2976C75.301 58.7048 75.3684 59.0777 75.5034 59.4162C75.6407 59.7547 75.8407 60.0258 76.1035 60.2294C76.3663 60.433 76.6871 60.5348 77.0659 60.5348ZM81.8794 61L80.2317 55.5455H80.8993L82.1919 60.0447H82.2381L83.5272 55.5455H84.1983L85.4767 60.0341H85.5265L86.8191 55.5455H87.4867L85.839 61H85.1855L83.8929 56.5291H83.8255L82.5328 61H81.8794ZM93.6479 61.1136C93.1768 61.1136 92.7601 60.9941 92.3979 60.755C92.0381 60.5159 91.7563 60.1856 91.5527 59.7642C91.3491 59.3404 91.2473 58.8516 91.2473 58.2976C91.2473 57.7389 91.3491 57.2476 91.5527 56.8239C91.7563 56.3977 92.0381 56.0663 92.3979 55.8295C92.7601 55.5904 93.1768 55.4709 93.6479 55.4709C94.119 55.4709 94.5345 55.5904 94.8944 55.8295C95.2542 56.0687 95.5359 56.4001 95.7395 56.8239C95.9455 57.2476 96.0485 57.7389 96.0485 58.2976C96.0485 58.8516 95.9467 59.3404 95.7431 59.7642C95.5395 60.1856 95.2566 60.5159 94.8944 60.755C94.5345 60.9941 94.119 61.1136 93.6479 61.1136ZM93.6479 60.5348C94.0267 60.5348 94.3475 60.433 94.6103 60.2294C94.873 60.0258 95.0719 59.7547 95.2069 59.4162C95.3442 59.0777 95.4128 58.7048 95.4128 58.2976C95.4128 57.8904 95.3442 57.5163 95.2069 57.1754C95.0719 56.8345 94.873 56.5611 94.6103 56.3551C94.3475 56.1491 94.0267 56.0462 93.6479 56.0462C93.2715 56.0462 92.9507 56.1491 92.6855 56.3551C92.4228 56.5611 92.2227 56.8345 92.0854 57.1754C91.9505 57.5163 91.883 57.8904 91.883 58.2976C91.883 58.7048 91.9505 59.0777 92.0854 59.4162C92.2227 59.7547 92.4228 60.0258 92.6855 60.2294C92.9483 60.433 93.2691 60.5348 93.6479 60.5348ZM99.6804 55.5455V56.0959H96.9993V55.5455H99.6804ZM97.8374 61V54.7464C97.8374 54.4529 97.9048 54.2055 98.0398 54.0043C98.1771 53.803 98.3558 53.6503 98.576 53.5462C98.7962 53.442 99.0294 53.3899 99.2756 53.3899C99.4413 53.3899 99.5786 53.4041 99.6875 53.4325C99.7988 53.4586 99.8864 53.4846 99.9503 53.5107L99.7656 54.0646C99.7183 54.0504 99.6603 54.0339 99.5916 54.0149C99.523 53.996 99.4366 53.9865 99.3324 53.9865C99.0578 53.9865 98.8459 54.0634 98.6967 54.2173C98.5476 54.3712 98.473 54.5914 98.473 54.8778L98.4695 61H97.8374ZM103.186 55.5455V56.0959H100.505V55.5455H103.186ZM101.343 61V54.7464C101.343 54.4529 101.411 54.2055 101.546 54.0043C101.683 53.803 101.862 53.6503 102.082 53.5462C102.302 53.442 102.535 53.3899 102.781 53.3899C102.947 53.3899 103.084 53.4041 103.193 53.4325C103.305 53.4586 103.392 53.4846 103.456 53.5107L103.271 54.0646C103.224 54.0504 103.166 54.0339 103.097 54.0149C103.029 53.996 102.942 53.9865 102.838 53.9865C102.564 53.9865 102.352 54.0634 102.203 54.2173C102.053 54.3712 101.979 54.5914 101.979 54.8778L101.975 61H101.343ZM106.428 61.1136C105.919 61.1136 105.479 60.9953 105.107 60.7585C104.736 60.5194 104.448 60.1892 104.244 59.7678C104.043 59.344 103.943 58.8563 103.943 58.3047C103.943 57.7554 104.043 57.2678 104.244 56.8416C104.448 56.4131 104.729 56.0781 105.086 55.8366C105.446 55.5928 105.861 55.4709 106.333 55.4709C106.628 55.4709 106.914 55.5253 107.188 55.6342C107.463 55.7408 107.709 55.9053 107.927 56.1278C108.147 56.348 108.321 56.6262 108.449 56.9624C108.577 57.2962 108.641 57.6915 108.641 58.1484V58.4609H104.379V57.9034H107.994C107.994 57.553 107.923 57.2382 107.781 56.9588C107.642 56.6771 107.446 56.4545 107.195 56.2912C106.947 56.1278 106.659 56.0462 106.333 56.0462C105.987 56.0462 105.683 56.1385 105.42 56.3232C105.157 56.5078 104.951 56.7517 104.802 57.0547C104.655 57.3577 104.581 57.6892 104.578 58.049V58.3828C104.578 58.8161 104.653 59.1948 104.802 59.5192C104.954 59.8411 105.168 60.0909 105.445 60.2685C105.722 60.446 106.05 60.5348 106.428 60.5348C106.686 60.5348 106.913 60.4946 107.107 60.4141C107.303 60.3336 107.468 60.2259 107.6 60.0909C107.735 59.9536 107.837 59.8033 107.906 59.6399L108.506 59.8352C108.423 60.0649 108.287 60.2768 108.097 60.4709C107.91 60.665 107.676 60.8213 107.394 60.9396C107.115 61.0556 106.793 61.1136 106.428 61.1136ZM110.034 61V55.5455H110.648V56.3835H110.694C110.803 56.1089 110.993 55.8875 111.262 55.7195C111.535 55.549 111.842 55.4638 112.186 55.4638C112.238 55.4638 112.296 55.465 112.36 55.4673C112.424 55.4697 112.477 55.4721 112.52 55.4744V56.1172C112.491 56.1125 112.441 56.1054 112.37 56.0959C112.299 56.0864 112.222 56.0817 112.14 56.0817C111.855 56.0817 111.602 56.142 111.38 56.2628C111.159 56.3812 110.985 56.5457 110.858 56.7564C110.73 56.9671 110.666 57.2074 110.666 57.4773V61H110.034Z" fill="#222222"/>
<circle cx="185" cy="172" r="13.5" stroke="#555555" stroke-width="3"/>
<circle cx="97" cy="79" r="13.5" stroke="#555555" stroke-width="3"/>
<circle cx="140" cy="166" r="14" stroke="#555555" stroke-width="2"/>
<circle cx="57" cy="88" r="14" stroke="#555555" stroke-width="2"/>
<circle cx="185" cy="109" r="14.5" stroke="#555555"/>
<circle cx="36" cy="22" r="14.5" stroke="#555555"/>
<defs>
<filter id="filter0_d_928_14853" x="0" y="0" width="118" height="118" filterUnits="userSpaceOnUse" color-interpolation-filters="sRGB">
<feFlood flood-opacity="0" result="BackgroundImageFix"/>
<feColorMatrix in="SourceAlpha" type="matrix" values="0 0 0 0 0 0 0 0 0 0 0 0 0 0 0 0 0 0 127 0" result="hardAlpha"/>
<feOffset dy="4"/>
<feGaussianBlur stdDeviation="2"/>
<feComposite in2="hardAlpha" operator="out"/>
<feColorMatrix type="matrix" values="0 0 0 0 0 0 0 0 0 0 0 0 0 0 0 0 0 0 0.25 0"/>
<feBlend mode="normal" in2="BackgroundImageFix" result="effect1_dropShadow_928_14853"/>
<feBlend mode="normal" in="SourceGraphic" in2="effect1_dropShadow_928_14853" result="shape"/>
</filter>
</defs>
</svg>
