<svg width="100" height="101" viewBox="0 0 100 101" fill="none" xmlns="http://www.w3.org/2000/svg">
<rect width="100" height="100" fill="white"/>
<path d="M36.6914 80.7705V98.9743" stroke="black" stroke-width="1.20544" stroke-linecap="round" stroke-linejoin="round"/>
<path d="M44.2033 50.7344L43.998 51.7955L43.5684 52.608L43.4178 53.7802L43.2747 53.8557V54.0998L42.826 54.4373L42.8859 54.5661L42.5598 55.2187L41.6763 55.4807L41.1373 55.9735L40.2513 56.3109L39.6242 56.8215L39.6566 57.119L39.0528 57.674L39.0282 57.8738L38.6761 57.9981L38.1614 58.4954L37.6882 58.6286L37.101 59.1126L37.2249 59.1481L36.824 59.1747L36.3091 59.45L35.6178 60.0094L35.7234 60.0405L35.4974 60.0805L35.5966 60.2003L35.1353 60.4312L34.7829 60.8708L34.1723 61.3147L34.0054 61.2926L33.5941 61.9053L32.9117 62.3803L32.4093 63.366L32.0611 63.4016L31.9312 63.7079L31.5607 63.9299L31.6839 64.103L31.2565 64.4005L31.1104 65.0976L30.5318 66.2609L30.5133 66.6116L30.2253 66.8958L30.3784 66.9224L30.3254 67.1666L29.9435 67.9658L30.0989 67.9702L29.9741 67.9436L29.6313 69.6974L29.2074 70.8784L29.2167 71.6021L28.7926 72.6455L28.5005 74.9187L28.356 74.9898L28.3826 75.5093L28.1435 76.122L28.181 76.5305L27.9394 76.9301L27.9201 77.4895L27.6099 78.1644L27.6192 78.7638L27.4352 79.0568L27.6217 79.3054L27.2907 79.9448L27.078 80.9349L26.8534 81.1791L26.7679 82.6532L26.5713 83.0305L26.5479 83.6699L26.3449 84.1982L26.5025 84.4291L26.2041 85.0596L26.2864 85.2816L26.0568 86.0408L26.1258 86.3206L25.7831 88.1498L25.9542 88.4606L25.7976 88.838L25.8916 89.3352L25.7322 89.5928L25.9194 89.8547L25.9097 90.1433L25.7292 90.3165L25.8642 90.7827L25.6641 91.351L25.9105 91.3909L25.6641 91.9726L25.8891 92.3322L25.6785 92.6475L25.6421 93.0293L25.7853 93.3312L25.5375 93.7841L25.6435 93.8817L25.5052 94.3968L25.6239 94.5389L25.4805 95.3958L25.5324 96.1506L25.3362 96.2971L25.5471 96.4525L25.3423 96.6168L25.4639 96.9054L25.3989 97.4071L25.5057 97.4381L25.2489 97.5625L25.3305 97.6469L25.1979 97.8777L25.3777 98.0287L25.2235 98.042L25.2838 98.1574L25.1082 98.3439L25.2223 98.6325L25.0644 98.7257L25.225 98.7613L25.1759 98.9566L25.3203 99.0277L25.0469 99.001L25.2115 99.1076L24.9805 99.2941L25.0878 99.4938L24.9697 99.7247L25.2985 100" stroke="black" stroke-width="1.20544" stroke-linecap="round" stroke-linejoin="round"/>
<path d="M65.4092 84.874L65.4092 98.874" stroke="black" stroke-width="1.20544" stroke-linecap="round" stroke-linejoin="round"/>
<path d="M43.321 17.3552L43.242 17.4396L41.6027 19.9584L41.5953 20.7185L41.2622 21.1209L41.147 21.9158L40.5118 23.2323L40.6028 24.2557L39.3618 28.6126L39.5993 29.5664L39.3483 30.3216L39.2285 35.3789L39.3906 36.3974L39.793 37.0531L39.8517 38.8764L40.1746 39.7954L41.7025 41.9913L42.0677 42.8755L44.1484 45.3098L45.1789 47.0983L46.2348 48.0372L50.7392 49.1352L54.2478 49.2594L55.0502 49.0756L58.523 46.84L60.5632 44.5646L62.3339 43.1488L62.9623 42.2496L63.1631 41.4895L63.698 40.9281L64.6341 38.8913L66.1463 32.4528L65.9221 31.7275L66.1418 30.4755L65.9112 28.7914L65.9987 26.8539L65.3171 23.5701L64.8821 22.9988L65.3186 21.722L64.7265 20.9272L64.7713 20.3211L64.4029 20.1621L64.4571 19.6752L63.8516 19.1039L62.3354 15.368L61.6916 14.5036L59.0336 13.2914L58.0751 12.4866L56.5579 12.4468L53.1561 11.2794L52.3339 11.4881L50.9201 11.2446L47.8176 11.6569L46.7095 12.0644L45.6755 12.7598L44.7544 14.2651L44.0842 14.29L42.5932 16.7293L42.1752 16.9528L42.3255 16.9826L42.1147 17.2261L42.3198 18.5674L41.8441 19.2033L41.832 19.7448L42.0175 19.8044" stroke="black" stroke-width="1.65749" stroke-linecap="round" stroke-linejoin="round"/>
<path d="M54.8883 32.4619L54.2236 35.0403L54.8535 36.4363" stroke="black" stroke-width="1.65749" stroke-linecap="round" stroke-linejoin="round"/>
<path d="M47.02 24.9709L47.0736 24.7374L46.673 24.5983L46.4179 24.9759L45.1274 25.6962L43.8024 27.7877L44.0186 28.0063L43.7627 28.4485L44.0338 29.0099L43.7759 29.6557L44.0478 30.0531L44.0007 30.4207L45.281 31.9807L46.2489 32.2142L48.0848 32.1099L49.8431 31.2007L51.2842 29.2632L51.493 28.5876L51.2996 27.902L51.5512 27.2462L51.0903 26.4315L50.2905 25.9645L50.0121 25.4329L49.4066 25.0355L47.7308 24.4741L45.9124 24.8368L44.7501 26.1185L44.5379 28.9651L44.8928 29.4868L44.9609 30.2419L46.2802 31.7472L49.0164 32.2539L49.8953 32.1894L51.1311 31.1958L51.6446 31.0567L52.6776 30.1177L53.3348 28.4186L53.1076 27.6685L53.3597 27.1618L53.3617 26.2477L53.0684 25.3037L52.7373 25.1448L52.8944 25.0901L52.6006 24.6877L51.5213 24.5735L48.818 25.3633L48.3239 25.7409L48.5217 26.0241L48.2319 26.4265L47.9197 26.4563L47.8656 25.885L47.5514 25.7111L47.71 25.8751L47.1298 26.2179" stroke="black" stroke-width="1.65749" stroke-linecap="round" stroke-linejoin="round"/>
<path d="M51.7607 28.8705L50.4727 29.2481L51.7592 29.0046L53.4012 27.8868L54.3815 27.708L55.5945 27.9812L56.3227 28.5426L56.2546 28.9052L56.4962 29.1189L56.3347 29.0394L56.7224 28.9599L56.1671 28.9351" stroke="black" stroke-width="1.65749" stroke-linecap="round" stroke-linejoin="round"/>
<path d="M58.1883 27.7472L57.0465 28.4427L56.4907 28.4378L55.8991 29.0339L55.3399 31.2794L55.754 32.1389L57.0967 32.7599L58.8202 32.9586L60.6829 32.6406L61.5752 31.97L62.5118 30.6088L62.8125 29.4314L62.7012 28.9942L61.7631 27.6727L59.4361 26.8033L57.4317 26.8828L55.2047 27.7075L55.224 28.4874L54.9521 28.6862L55.1003 28.9097L54.803 29.4661L55.0157 31.0509L56.346 32.427L57.4198 32.9486L59.7095 33.52L60.4577 33.4554L61.4226 32.7351L62.5928 30.7031L62.6858 29.173L62.3517 27.7273L62.4601 27.0815L61.7924 26.1525L60.567 25.3924L58.3613 25.154L56.0294 25.9289L55.484 25.7551L54.6583 27.3647L54.5967 27.623L55.2106 28.5471L55.577 29.6102L57.4123 31.7365L59.6374 32.6307L60.7455 32.7947L62.1285 31.9749L62.8269 30.9963L63.7894 28.1546L63.0854 26.4009L62.4104 25.924L61.6264 24.8111L60.1122 23.9368L58.3996 23.7778L57.7827 24.0561L56.8839 25.0546" stroke="black" stroke-width="1.65749" stroke-linecap="round" stroke-linejoin="round"/>
<path d="M39.3764 27.2903L38.9219 27.4195L39.0864 27.1959L38.9524 27.0171L38.6191 27.3251L39.6461 27.6132L39.3858 27.6431L40.0457 28.0554L42.7201 29.049L44.8014 29.3123L45.127 29.5308" stroke="black" stroke-width="1.65749" stroke-linecap="round" stroke-linejoin="round"/>
<path d="M62.0513 28.4284L61.333 28.8557L61.3857 29.0444L61.5985 29.0246L61.4702 28.8805L61.8967 28.9848L65.3084 27.3156L66.4086 27.1914" stroke="black" stroke-width="1.65749" stroke-linecap="round" stroke-linejoin="round"/>
<path d="M47.1623 27.8622L47.054 27.3803L46.8526 27.3952L46.708 27.0723L46.7607 27.4399L46.0344 27.7678L43.2354 30.8082L44.3939 30.3561L45.9886 28.6769L46.7711 28.1553L47.0008 27.6883L47.9503 27.2064L45.4726 31.7123L45.6372 32.0402L47.1777 30.9125L49.0464 28.816L49.291 28.0261L47.7514 30.0034L46.9376 31.5782L46.9386 32.1495L47.39 32.2687L48.9211 31.2851" stroke="black" stroke-width="1.65749" stroke-linecap="round" stroke-linejoin="round"/>
<path d="M57.4162 27.1064L57.2636 27.8516L56.1982 29.963L59.9336 28.11L60.1568 28.1547L59.6771 28.3385L59.7332 28.8751L58.995 30.5145L59.0706 30.7728L59.2307 30.7032L59.0378 30.5294L60.8189 29.5358" stroke="black" stroke-width="1.65749" stroke-linecap="round" stroke-linejoin="round"/>
<path d="M45.2109 12.2827L45.6902 13.9718L45.8965 14.1854L45.8343 14.3841L46.2768 14.6028L46.412 14.4289" stroke="black" stroke-width="1.20544" stroke-linecap="round" stroke-linejoin="round"/>
<path d="M57.1843 9.68426L55.8143 12.5259L55.7273 13.4897L55.3301 14.6969L55.5931 14.7565L55.4608 14.6771L55.7626 14.4684L55.9092 13.9467L57.1341 12.4862L57.5885 11.5671L58.9277 9.67432L57.5149 12.0937L57.1729 13.0625L56.4973 13.902L56.3825 14.4535L56.4988 14.6721L57.6054 12.7644L58.7 11.3535" stroke="black" stroke-width="1.20544" stroke-linecap="round" stroke-linejoin="round"/>
<path d="M58.7147 11.7412L57.5778 13.3757L57.4316 14.4786L57.6802 14.3742L58.9379 12.695" stroke="black" stroke-width="1.20544" stroke-linecap="round" stroke-linejoin="round"/>
<path d="M59.0025 12.8589L58.7366 13.2762L58.5039 13.9171L59.183 13.1669" stroke="black" stroke-width="1.20544" stroke-linecap="round" stroke-linejoin="round"/>
<path d="M59.7347 13.6685L59.6691 13.8324L59.1943 14.354L59.331 14.503L60.0608 13.7181" stroke="black" stroke-width="1.20544" stroke-linecap="round" stroke-linejoin="round"/>
<path d="M60.362 13.9268L60.3257 14.0012L60.4375 14.3341L60.2979 14.3987L60.445 14.1801" stroke="black" stroke-width="1.20544" stroke-linecap="round" stroke-linejoin="round"/>
<path d="M61.0864 14.4285L60.3438 15.5413L60.4904 15.6009L62.6598 13.6833L62.7324 13.6138" stroke="black" stroke-width="1.20544" stroke-linecap="round" stroke-linejoin="round"/>
<path d="M62.9808 15.0045L62.7482 15.4516L62.4668 15.4665L63.1404 14.8853" stroke="black" stroke-width="1.20544" stroke-linecap="round" stroke-linejoin="round"/>
<path d="M63.2728 14.9058L61.5041 16.8383L61.259 17.4145L61.0537 17.5487L61.2774 17.5437L61.4877 17.0768L62.8508 16.1875L63.5895 15.5417" stroke="black" stroke-width="1.20544" stroke-linecap="round" stroke-linejoin="round"/>
<path d="M63.9649 15.6309L62.3328 17.4889L62.1777 17.8963L63.9982 16.4506" stroke="black" stroke-width="1.20544" stroke-linecap="round" stroke-linejoin="round"/>
<path d="M63.7412 17.2261L63.5928 17.43L63.7377 17.5146L63.7805 17.4649" stroke="black" stroke-width="1.20544" stroke-linecap="round" stroke-linejoin="round"/>
<path d="M64.1523 18.9201L64.1182 18.9553L64.3116 18.8599" stroke="black" stroke-width="1.20544" stroke-linecap="round" stroke-linejoin="round"/>
<path d="M64.95 19.6851L64.2207 20.2564L64.2744 20.5048L65.025 19.7646" stroke="black" stroke-width="1.20544" stroke-linecap="round" stroke-linejoin="round"/>
<path d="M65.8385 19.9825L65.0898 20.5339L65.7982 19.9825L65.9886 19.9478" stroke="black" stroke-width="1.20544" stroke-linecap="round" stroke-linejoin="round"/>
<path d="M66.6234 20.3706L66.6025 20.3954L65.5253 21.3791L65.655 21.5877L65.3165 21.6374L65.4368 21.7517L65.3463 21.6275L66.1611 21.4387L66.7491 21.1009L66.7616 20.8128L67.0668 20.8028L65.6689 22.8993L64.9744 23.6594L65.2165 23.6147L65.0873 23.5153L65.1733 23.411L65.9458 23.3315L65.8434 23.2023L66.5881 22.8645L65.2782 24.1413L64.9317 24.7275L66.0318 24.802L67.0464 24.5934L66.0363 25.3485L65.3721 26.1036L65.2394 26.0837L66.2486 25.423L66.4534 24.9163L67.0976 24.494L66.9425 24.4642L67.0489 24.5735L66.0706 26.1483L64.5882 27.3804L66.2655 26.3569L66.8361 25.8552L66.5419 25.8701L66.7283 25.9745L66.7019 26.1384L64.5574 28.2398L65.9861 26.6799L66.3241 26.2477L66.1591 26.3172L66.0328 26.7991L64.1731 28.4733L64.3426 28.6323L64.5186 28.5528L64.5121 28.3392L64.8104 28.2845L64.6185 28.2199L65.0565 28.1603L64.872 28.0809L64.9118 27.9467L64.7229 28.5925L64.8874 28.4832L64.71 28.2348L65.1698 28.2746L63.8092 30.3611L65.4954 28.985L65.8315 28.9751L65.7554 29.1341L64.9864 29.2682L64.9108 29.5812L64.0394 30.4058L64.0046 30.7934L63.7148 30.8778L65.3274 29.3229L64.886 30.073L64.015 31.0616L63.4438 32.3136L63.2708 32.4229L63.6581 32.0254L63.9608 31.9608L65.1097 30.7089L64.9287 31.0666L64.5246 31.2305L64.6444 31.3001L64.2198 31.6578L64.2243 31.9261L63.8271 32.6713L64.7125 32.0602L64.528 32.1695L64.1209 33.1332L63.8952 33.2873L64.5176 33.1382L64.3043 33.1184L64.3297 32.8104L65.1087 32.0751L63.4548 34.425L63.1038 34.872L63.0486 34.7677L64.4793 33.173L64.4351 33.0588L64.9158 32.8848L64.5956 33.0289L64.282 34.0821L62.899 36.5711L63.072 36.5462L63.1853 36.1389L64.369 35.4732L64.5733 35.1949L64.4848 35.0509L64.8248 34.7677L64.4435 35.7414L63.666 36.7996L63.6496 37.356L63.7838 37.0282L64.1761 36.8791L65.0913 35.9749L65.4194 35.9153L65.307 35.9551L65.4581 36.2084L65.0421 36.2928L64.886 37.0927L64.3913 37.51L64.1825 38.0962L63.8808 38.4191L64.0279 38.5384L65.044 37.3659L64.9501 37.6094L63.6437 39.1991L63.0948 40.2771L62.891 40.0834L63.3673 39.8648L63.2773 39.7655L63.7162 39.2786L63.9499 39.2637L62.8284 39.3382L63.1113 39.8946L63.6944 39.7853L64.019 39.2985L63.848 39.2538L62.5783 40.0337L61.9609 39.8201L62.4685 40.1132L63.3618 39.9543L63.2773 39.8698L63.4533 39.8251L63.24 39.7754L63.4558 39.8748L61.8973 40.4461L61.6552 40.6895L61.6179 41.0422L61.3301 41.2062L62.8851 40.7243L63.5442 40.3467L63.2962 40.3318L63.3707 40.4063L63.0088 40.5454" stroke="black" stroke-width="1.20544" stroke-linecap="round" stroke-linejoin="round"/>
<path d="M40.6447 40.2619L40.3367 40.3811L40.2909 40.5699L40.0994 40.5301L40.1313 40.4208L40.5625 40.2619L42.0211 40.2817L41.815 40.3016L41.4198 39.8793L40.4029 39.4521L41.9744 39.4968L42.6994 39.1441L42.8275 38.8907L41.8805 38.4535L40.226 38.5479L41.6296 38.1008L42.4804 37.445L40.7652 37.4301L39.6746 37.8574L39.831 37.7282L41.3271 37.7928L41.9835 37.6189L41.6122 37.445L39.2249 37.2215L41.065 36.3223L39.9305 35.9447L39.3203 36.0639L38.8518 35.9497L39.2802 35.4032L40.0254 35.0406L40.7649 34.9412L40.8743 34.7872L38.9833 34.4593L38.748 34.2358L40.1675 33.7141L40.5765 33.3664L40.1076 32.7404L40.1732 32.651L39.1293 32.5317L39.0375 32.2933L40.4783 32.1343L40.7689 31.4487L40.5638 31.1705L40.1444 31.1904L41.0223 31.0662L41.518 30.7929L41.1887 30.8029L40.7253 30.4601L39.5429 30.4104L39.6068 30.2067L39.1621 29.9583L39.5133 29.9385L39.4654 30.1173" stroke="black" stroke-width="1.20544" stroke-linecap="round" stroke-linejoin="round"/>
<path d="M38.6572 24.5583L38.6882 24.7818L38.5954 24.747L38.8119 24.7322L39.0111 25.1048L40.2158 25.1842L40.7071 25.0004L40.7241 24.5036L40.8723 24.3496L40.8255 24.1162L39.6924 23.202L38.839 23.1126L39.0859 23.1325L38.8137 23.371L39.314 24.0664L39.9656 24.131L40.0182 23.4604L38.3936 21.1304L39.8789 21.9302L40.8838 22.0892L41.6107 21.9948L41.5963 21.339L40.5995 19.9878L39.3654 19.1879L39.2898 19.2972L39.4955 19.3171L39.4519 19.4711L39.8609 20.102L40.7049 20.887L41.4279 21.1304L41.1516 20.8025L41.1769 20.2561L40.8722 19.6152L40.8392 19.0339L39.8664 17.782L40.5107 19.0438L41.8506 20.1219L41.8662 19.645L41.0385 17.9559L40.7579 16.8381L40.7131 17.0964L40.9846 17.325L41.3394 18.1148L42.0964 19.0787L42.5071 19.3717L42.3609 19.4711L42.4933 19.3618L42.2198 19.2277L42.334 18.9545L42.1651 17.7125L41.0836 16.2916L40.4559 15.0894L40.7822 15.3527L41.7308 16.9424L42.3317 17.1163L42.0512 17.0467L42.1455 16.848L41.9858 15.9885L40.9198 13.8623" stroke="black" stroke-width="1.20544" stroke-linecap="round" stroke-linejoin="round"/>
<path d="M41.1006 13.4948L41.4565 13.8376L41.8424 14.9206L42.7011 16.2123L42.6615 15.9241L42.5171 15.8695L42.8126 15.2336L42.6268 13.5942L41.9898 12.1286L42.0713 12.0591L42.1267 12.2131L41.9545 12.3174L42.6739 13.5842L43.476 14.4089L43.4848 14.8908L43.7752 14.9554L43.6786 14.5132L43.8678 13.8376L43.6006 12.5658" stroke="black" stroke-width="1.20544" stroke-linecap="round" stroke-linejoin="round"/>
<path d="M43.0576 11.7803L43.4437 12.4957L43.6064 13.2756L44.2377 14.1749L44.0889 14.0208L44.181 12.605" stroke="black" stroke-width="1.20544" stroke-linecap="round" stroke-linejoin="round"/>
<path d="M44.3643 12.5356L44.9673 13.3404L45.1591 14.1651L45.5807 12.784L45.5384 12.3418" stroke="black" stroke-width="1.20544" stroke-linecap="round" stroke-linejoin="round"/>
<path d="M45.7031 12.0596L46.9887 14.1262L47.0846 12.1092L46.9777 10.9219" stroke="black" stroke-width="1.20544" stroke-linecap="round" stroke-linejoin="round"/>
<path d="M47.042 11.1353L47.2224 11.3389L47.1568 11.7015L47.5421 11.9549L48.5338 13.1721" stroke="black" stroke-width="1.20544" stroke-linecap="round" stroke-linejoin="round"/>
<path d="M42.2002 35.0698L41.6245 35.5965L41.7606 35.4921L41.5816 35.7405L41.6228 35.9691L41.3008 36.5105L41.2725 37.1862L40.6381 38.3934L39.085 40.4303" stroke="black" stroke-width="1.20544" stroke-linecap="round" stroke-linejoin="round"/>
<path d="M42.9763 36.5454L42.7138 37.0472L41.5661 38.1998L40.7843 39.243L40.6279 40.1124L40.7646 39.8591" stroke="black" stroke-width="1.20544" stroke-linecap="round" stroke-linejoin="round"/>
<path d="M41.07 33.9528L40.7243 33.9378L40.6738 34.1415L40.6427 36.2231L40.8381 37.9023L41.2059 39.1393L41.4882 39.492L41.3322 39.0797L41.6638 37.8924L41.6598 37.0577L41.1619 34.4545L40.7663 33.5951L40.3007 33.4609L40.0887 33.61L39.8789 34.4545L40.0145 34.8321L40.0726 37.3657L40.6341 40.0733L40.6945 41.3004L41.0743 42.7361L41.1539 43.8837L41.2839 43.4465L41.2145 42.5771" stroke="black" stroke-width="1.20544" stroke-linecap="round" stroke-linejoin="round"/>
<path d="M59.1182 48.3442L58.9551 48.5778L59.1137 48.5629L58.9427 48.5479L59.1077 48.6175L59.0749 48.9553L59.2464 49.2534L58.9228 49.4819L59.1913 50.2818L58.9462 50.7885L58.9268 51.2456L59.0456 51.2952L58.7598 51.5635L58.9169 51.7324L58.8328 52.0156L59.0207 52.413L58.9188 52.7011L59.1033 52.8104L58.9521 52.7757L58.8418 52.9694L59.0546 53.0688L58.8647 53.7047L59.0421 53.9531L58.9109 54.3107L59.0988 54.3306L58.884 54.4946L59.0491 54.5393L58.9253 54.738L59.235 54.9715L58.9616 55.0063L59.1276 55.0361L59.4547 55.6173L59.2539 55.7714L59.6531 55.9253L59.5164 55.9949L59.7202 56.2831L59.6223 56.5612L59.8654 56.5961L59.8957 57.0928L59.6904 57.2816L60.0886 57.3661L60.1552 57.6641" stroke="black" stroke-width="1.20544" stroke-linecap="round" stroke-linejoin="round"/>
<path d="M44.4055 53.0297L44.2479 52.9304L44.3881 52.9402L44.3762 52.6471L44.6566 52.4087L44.4353 52.1504L44.3966 51.4697L44.1035 51.5592L44.2266 51.5144L44.4005 51.753L44.2971 52.3838L44.6223 52.8906L45.1229 53.2632L45.6051 54.2369L46.2026 54.4158L46.0659 54.4256L46.0992 54.6045L46.296 54.848L47.1506 55.1261L47.2918 55.3845L48.283 55.469L48.9661 55.8416L48.9397 55.9856L49.5611 56.0601L50.0891 56.5222L50.4733 56.5321L51.4074 56.9196L51.9895 56.9941L53.4451 56.7159L55.3023 56.9494L56.1022 56.8948L57.0258 56.6116L57.5155 56.3234L57.4518 56.1396L57.7422 56.1595L58.2438 55.7422L58.5231 55.772L58.2149 55.8266L58.4401 55.921L58.4173 55.7372L57.9539 55.5733L58.0613 55.2454L57.8361 54.3462L57.8764 53.5265L57.7019 53.293L58.3372 52.4236L58.2472 52.2596L58.0131 52.2497L58.1727 52.2895L58.3899 51.4002L58.291 51.127L58.4709 51.2164L58.1433 51.281L58.2154 51.1866L57.9176 50.958L57.7725 50.9978L57.9703 51.0127L57.8749 50.9133L56.6609 51.5046L55.4594 51.5592L54.8067 51.738L54.5139 51.9964L53.7558 52.046L51.3333 51.6685L50.2158 51.6585L50.0702 51.4896L49.5919 51.4101L48.6012 51.4797L48.2999 51.266L47.2943 51.0773L47.4335 50.9084L47.2346 50.8488H46.3512L46.4432 50.7891L46.1524 50.496L44.9817 50.1681L45.1606 50.0886L45.0552 50.0489L44.7157 50.0638L44.8286 50.0589L44.7843 49.885L44.4801 49.9247L44.5099 50.0241L44.4761 49.8452L44.6133 49.9247L44.3737 49.9297L44.4736 50.0142L44.5646 49.9197L44.4343 49.8751L44.6049 49.88L44.3931 50.0638L44.5785 50.3023L44.6049 50.7891" stroke="black" stroke-width="1.20544" stroke-linecap="round" stroke-linejoin="round"/>
<path d="M45.2938 47.4005L44.9747 46.9683L44.9314 47.2117L44.7793 47.2017L45.0651 47.2167L45.0119 47.3309L45.2615 47.4948L45.009 47.8227L45.3778 48.1655L45.2347 49.6261L45.0433 49.9391L45.441 49.9788" stroke="black" stroke-width="1.20544" stroke-linecap="round" stroke-linejoin="round"/>
<path d="M43.283 51.7425L42.8786 51.4842L43.1086 51.4692L42.901 51.5338L43.2434 52.5224L42.9234 53.0292L43.2515 53.4514L43.0086 53.6849L43.0266 54.296L42.5892 54.6686L43.0174 54.8673L42.6927 54.9766L42.7506 55.2498L42.4208 55.4585L42.5216 55.6075L41.9875 56.0348L42.0909 56.5664L41.786 56.8594L41.889 57.1029L41.5684 57.8282L41.2949 57.9425L41.3284 58.1462L41.4805 58.176L41.3509 58.2058L41.6225 58.2704L41.5424 58.3797L42.8889 58.3598L43.9457 58.8069L44.8213 59.418L45.8419 59.6962L46.4533 60.1482L47.6976 60.6053L47.9024 60.9233L48.2897 60.8884L48.2772 61.1518L48.6292 61.2412L48.5059 61.3256L49.2705 61.8672L49.9724 61.892L50.6952 62.19L51.7769 62.2249L54.5011 61.8473L56.9544 61.0922L58.2121 60.4066L58.0555 60.3172L59.2068 60.0787L59.1889 59.9644L59.7417 59.7806L59.9679 59.4825" stroke="black" stroke-width="1.20544" stroke-linecap="round" stroke-linejoin="round"/>
<path d="M59.9768 58.0667L59.9648 58.0171L60.0856 56.0349L60.3526 55.9951L60.115 55.8212L60.4873 55.5977L60.4167 55.3443L60.2865 55.3592L60.4774 55.3443L59.7148 55.3344L59.8629 55.2499L59.5358 55.0462L59.6174 54.9866L59.1729 54.8425L59.3425 54.5593L59.1575 54.5146L59.2584 53.7844L59.1307 53.1733L59.5995 52.8802L59.6392 52.7212L59.4722 52.7361L59.4826 52.8404L59.8177 52.6964L59.6233 52.7113L59.7501 52.3138L59.4633 52.2592L59.6954 52.1449L59.6502 51.9412L59.8311 51.7823L59.7088 51.519L59.9112 51.4395L59.8043 51.2706L59.9773 51.0172L59.8948 50.7937L60.0936 49.8298L59.9688 49.5765L60.0926 49.4424L59.2102 49.8448L59.2361 49.9789L58.7086 50.3614L58.127 51.5885L58.0291 52.4678L55.9213 53.6899L54.852 53.6949L53.7991 54.2066L52.8228 53.844L52.0363 54.2414L51.2633 54.0278H51.0153L50.7657 54.2563L50.2989 54.1867L49.8798 53.9235L49.5274 53.9433L49.7342 53.9086L48.7564 53.6254L47.6662 53.0093L47.0204 53.0193L46.8842 52.756L46.5835 52.7162L46.7376 52.6864L45.892 52.9895L44.7983 52.9348L44.1908 52.3735L44.1406 52.0754L43.5117 51.1911L43.5453 51.0271" stroke="black" stroke-width="1.20544" stroke-linecap="round" stroke-linejoin="round"/>
<path d="M60.0225 59.7311L60.107 59.5771L59.6611 59.6566L60.1692 59.6516L59.7964 59.592L60.0161 59.6368L59.9072 59.8106L60.3258 60.0242L60.367 60.367L60.7941 60.5806" stroke="black" stroke-width="1.20544" stroke-linecap="round" stroke-linejoin="round"/>
<path d="M63.6174 57.8519L63.4521 57.9131L63.3574 57.5459L63.4587 57.7671L63.2764 57.8566L63.5797 57.866L63.4474 58.0684L64.5101 59.0335L65.1136 59.3348L65.3774 59.8103L66.3228 60.3705L67.1425 61.3215L67.7577 62.1218L67.9947 63.0916L68.3993 63.3458L68.7474 64.3439L69.3415 64.7393L69.4314 65.2901L69.9779 66.1563L70.0636 66.7306L70.4749 67.2155L70.522 68.0582L70.9827 68.9386L70.9572 69.3104L71.1838 69.5976L71.3228 70.5156L71.5805 70.8687L71.5649 71.1841L72.1656 72.8083L72.33 73.9052L72.5113 74.0606L72.7596 74.8373L72.6413 75.1527L73.0813 75.986L73.1355 76.9134L73.4318 78.0856L73.6391 78.3916L73.5312 78.6223L74.0824 80.9856L74.0343 81.4705L74.1921 81.9883L74.447 82.2519L74.3579 83.1276L74.5158 83.6642L74.4017 84.1774L74.6331 84.3422L74.5393 85.1707L74.7499 85.5662L74.6076 85.9569L74.9261 86.7761L74.9675 87.8918L75.1286 88.0424L75.0094 88.2967L75.1998 88.838L75.0189 89.2193L75.2973 89.6007L75.1046 89.7466L75.2728 90.4198L75.1046 91.4179L75.2803 91.8698L74.9473 93.8282L75.1249 94.5155L75.0405 94.7603L75.172 94.8545L74.8724 94.9439L75.229 95.1228L75.2078 95.2782L75.1277 95.2122L75.3387 95.6924L75.1969 95.7725L75.2511 96.5634L75.4815 96.8647L75.3788 97.8533L75.5366 98.0463L75.4141 98.357L75.5856 98.4794L75.4188 98.6442L75.6553 98.776L75.3802 98.9313L75.4744 99.4727L75.3109 99.7834L75.5031 99.9435L75.3279 100L75.2902 99.8164" stroke="black" stroke-width="1.20544" stroke-linecap="round" stroke-linejoin="round"/>
<path d="M64.4199 33.9821L64.823 34.295L64.3756 35.0899L64.3125 35.8351L64.8578 37.862L64.6227 38.5675L64.6978 39.5412L64.3617 39.6654L64.5327 38.9748L64.6749 36.0189L64.4915 36.9827L64.5775 38.17L64.8046 38.955L64.6008 39.9486L64.9682 40.2218L64.923 39.9386L65.2898 38.8904L65.8665 32.5811L65.7641 36.9032L66.3437 38.2744L66.299 39.7399L66.4591 40.1472L66.8135 38.2396L66.644 37.8024" stroke="black" stroke-width="1.20544" stroke-linecap="round" stroke-linejoin="round"/>
<path d="M47.834 9.52051L48.2028 11.6269L48.4887 12.3075" stroke="black" stroke-width="1.20544" stroke-linecap="round" stroke-linejoin="round"/>
<path d="M50.1759 8.89941L50.0068 8.9888L50.2082 8.97886L50.1396 9.30179L50.4741 10.7574L50.5164 11.6466L51.2113 12.9234L51.1895 13.2464" stroke="black" stroke-width="1.20544" stroke-linecap="round" stroke-linejoin="round"/>
<path d="M53.012 8.80957L52.9424 13.1565L53.3421 14.7115" stroke="black" stroke-width="1.20544" stroke-linecap="round" stroke-linejoin="round"/>
<path d="M54.2483 8.89896L54.2274 8.29283L54.395 7.73145L54.4944 7.86559L54.1419 8.32266L53.7393 13.0372L54.2508 13.7625L54.7335 13.8619" stroke="black" stroke-width="1.20544" stroke-linecap="round" stroke-linejoin="round"/>
<path d="M50.4878 9.38109L50.3242 9.22705L50.4669 9.33142L50.356 9.90766L50.6876 11.9446L51.6799 14.2149" stroke="black" stroke-width="1.20544" stroke-linecap="round" stroke-linejoin="round"/>
<path d="M49.3232 12.1035L49.7234 13.4151L49.8676 14.6074L50.0923 14.9302L49.9069 14.9402" stroke="black" stroke-width="1.20544" stroke-linecap="round" stroke-linejoin="round"/>
<path d="M47.46 10.812L47.6737 12.357L48.0386 13.0029L48.1336 14.1902L48.3329 14.6771L48.2688 15.0596" stroke="black" stroke-width="1.20544" stroke-linecap="round" stroke-linejoin="round"/>
<path d="M43.0693 11.2886L43.4345 11.4575L44.3041 12.9677" stroke="black" stroke-width="1.20544" stroke-linecap="round" stroke-linejoin="round"/>
<path d="M58.9106 11.7409L58.6476 10.7622L58.5954 11.7359L57.9531 14.7366L57.9536 15.4768L58.3782 16.6442" stroke="black" stroke-width="1.20544" stroke-linecap="round" stroke-linejoin="round"/>
<path d="M61.6288 11.8251L61.5145 11.7108L61.6084 11.3283L61.4056 11.1743L61.5642 11.2935L61.0074 11.6413L60.1027 12.7591L59.2432 15.2977L59.3187 16.1224" stroke="black" stroke-width="1.20544" stroke-linecap="round" stroke-linejoin="round"/>
<path d="M62.6651 11.8706L62.5264 11.96L62.5785 12.1538L62.1888 12.3525L60.6487 14.6924L60.2744 15.6909" stroke="black" stroke-width="1.20544" stroke-linecap="round" stroke-linejoin="round"/>
<path d="M63.7051 13.092L63.9268 13.0522L63.7344 13.0622L63.2647 14.3836L62.2197 16.0827L61.8076 17.8711" stroke="black" stroke-width="1.20544" stroke-linecap="round" stroke-linejoin="round"/>
<path d="M65.6884 14.7061L65.502 15.3569L64.5336 16.7827L64.4461 17.2646L63.7099 18.0743L63.5771 18.5959" stroke="black" stroke-width="1.20544" stroke-linecap="round" stroke-linejoin="round"/>
<path d="M64.2714 20.5641L64.084 20.6386L64.2132 19.789L64.7347 18.403L66.3394 15.7451" stroke="black" stroke-width="1.20544" stroke-linecap="round" stroke-linejoin="round"/>
<path d="M64.7734 20.3907L66.1534 17.0224L67.0855 15.4873" stroke="black" stroke-width="1.20544" stroke-linecap="round" stroke-linejoin="round"/>
<path d="M64.757 17.4146L64.2624 15.1691L64.0605 10.7725" stroke="black" stroke-width="1.20544" stroke-linecap="round" stroke-linejoin="round"/>
<path d="M63.6884 15.998L62.9164 14.4529L62.6494 12.4956" stroke="black" stroke-width="1.20544" stroke-linecap="round" stroke-linejoin="round"/>
<path d="M41.1187 12.67L40.9111 11.438L40.9655 12.4663L41.3644 14.1107L42.0333 18.9247" stroke="black" stroke-width="1.20544" stroke-linecap="round" stroke-linejoin="round"/>
<path d="M40.8633 12.2974L40.8587 13.3655L41.1 14.0411L41.1638 15.4917L41.0176 18.085L40.7988 19.163" stroke="black" stroke-width="1.20544" stroke-linecap="round" stroke-linejoin="round"/>
<path d="M63.3848 14.3687L63.868 15.1833L64.7886 18.4374" stroke="black" stroke-width="1.20544" stroke-linecap="round" stroke-linejoin="round"/>
<path d="M63.9863 16.9868L64.2513 19.7142" stroke="black" stroke-width="1.20544" stroke-linecap="round" stroke-linejoin="round"/>
<path d="M45.4363 8.98907L45.2275 9.03377L45.3667 8.84498L45.2444 8.81521L45.2106 8.41775L45.0998 8.33333L45.1043 8.43764L45.3881 8.53697L44.8975 8.28857L45.1843 8.36311L45.0695 11.2495L46.1015 15.7853L46.3525 18.2643" stroke="black" stroke-width="1.20544" stroke-linecap="round" stroke-linejoin="round"/>
<path d="M47.0963 7.79139L46.976 6.43515L46.8268 6.43018L46.8403 6.95183L46.453 7.44366L46.3894 7.76659L46.2949 8.8794L46.5231 9.79846L46.3576 10.2356L46.537 10.7871L46.3665 11.9943L46.5708 13.0077L47.2742 14.6522" stroke="black" stroke-width="1.20544" stroke-linecap="round" stroke-linejoin="round"/>
<path d="M49.0439 8.41767L49.2403 7.63276L49.206 7.06641L49.3059 7.60292L49.1821 8.04508L49.7593 9.29701L49.9631 10.9365L50.7232 13.4651" stroke="black" stroke-width="1.20544" stroke-linecap="round" stroke-linejoin="round"/>
<path d="M51.7805 7.21499L51.7666 6.58903L52.1469 5.92334L52.2592 6.0624L51.8954 6.49958L51.959 7.15538L52.2523 8.52157L52.4959 11.4824L53.2391 15.2034" stroke="black" stroke-width="1.20544" stroke-linecap="round" stroke-linejoin="round"/>
<path d="M56.4336 10.0074L56.3516 9.83845L56.5121 9.46094L56.3839 9.55033L56.533 9.59502L56.4346 10.3651L56.9749 13.7383" stroke="black" stroke-width="1.20544" stroke-linecap="round" stroke-linejoin="round"/>
<path d="M58.3795 11.0754L58.0847 10.4793L58.0037 9.89307L58.213 10.5935L58.0022 10.9959L57.9043 11.8951L57.9873 13.4104L58.3268 14.2301" stroke="black" stroke-width="1.20544" stroke-linecap="round" stroke-linejoin="round"/>
<path d="M49.2923 37.5542L48.0302 40.3661L48.0088 40.9374" stroke="black" stroke-width="1.20544" stroke-linecap="round" stroke-linejoin="round"/>
<path d="M50.1734 37.5391L49.2796 39.412L48.6045 41.7122L48.6149 41.9804L48.9987 42.3828L48.8774 42.4424" stroke="black" stroke-width="1.20544" stroke-linecap="round" stroke-linejoin="round"/>
<path d="M50.8037 38.841L50.9245 38.7715L50.7346 38.8311L50.8007 39.0298L50.587 39.0745L50.579 40.8829L50.3633 41.787L50.6208 42.7955" stroke="black" stroke-width="1.20544" stroke-linecap="round" stroke-linejoin="round"/>
<path d="M52.3491 38.3198L52.3242 39.4823L52.5504 39.8897L52.3829 40.0139L52.4003 40.928L52.6309 42.16L52.8879 42.5426" stroke="black" stroke-width="1.20544" stroke-linecap="round" stroke-linejoin="round"/>
<path d="M53.7016 38.2251L53.5172 38.3841L53.5107 38.6623L53.7454 38.7815L53.7325 39.0448L53.9845 39.164L54.0084 39.3827L53.6291 39.8795L53.645 40.1626L53.9666 41.032L53.9412 42.0008L54.2708 42.7211" stroke="black" stroke-width="1.20544" stroke-linecap="round" stroke-linejoin="round"/>
<path d="M54.7861 37.9517L54.6514 38.0262L54.886 38.1007L54.8547 39.0247L55.6297 40.2468L55.7714 41.002L56.0577 41.5335" stroke="black" stroke-width="1.20544" stroke-linecap="round" stroke-linejoin="round"/>
<path d="M56.6083 38.0806L56.4646 38.165L56.6157 38.5575L56.3145 38.5823L56.7007 38.4432L57.0199 39.0046L57.258 40.1472L57.1476 40.3857L57.4872 40.9669L57.765 42.0748" stroke="black" stroke-width="1.20544" stroke-linecap="round" stroke-linejoin="round"/>
<path d="M53.3035 34.7129L53.29 35.8803L53.5287 37.6937L53.909 38.3593L53.989 38.876" stroke="black" stroke-width="1.20544" stroke-linecap="round" stroke-linejoin="round"/>
<path d="M51.087 36.4766L50.5139 37.9967L50.1182 39.9143" stroke="black" stroke-width="1.20544" stroke-linecap="round" stroke-linejoin="round"/>
<path d="M50.2624 36.5205L49.9368 36.7043L49.3666 37.678L49.1797 39.4069L49.2945 40.4452" stroke="black" stroke-width="1.20544" stroke-linecap="round" stroke-linejoin="round"/>
<path d="M55.1914 36.7793L56.3114 38.7217L56.2075 38.9701" stroke="black" stroke-width="1.20544" stroke-linecap="round" stroke-linejoin="round"/>
<path d="M55.5802 37.9072L55.0721 37.9768L54.6993 38.4388L54.8519 38.7568L54.7783 38.9704L53.9531 39.6808L54.1952 39.8696L54.142 40.1826" stroke="black" stroke-width="1.20544" stroke-linecap="round" stroke-linejoin="round"/>
<path d="M53.4296 37.1962H51.9388L51.9795 37.3601L52.319 37.3999L52.0824 37.3701L52.2763 37.2161L52.0427 37.1565L52.1997 37.1465L51.9452 37.1167L52.0755 37.1465L51.8408 38.8058L52.2266 40.5098" stroke="black" stroke-width="1.20544" stroke-linecap="round" stroke-linejoin="round"/>
<path d="M52.3364 37.5092H52.1763L52.2051 37.3403L52.1251 37.4744L51.9372 37.4198L51.625 39.6107L51.6643 40.5844L52.0048 41.9754" stroke="black" stroke-width="1.20544" stroke-linecap="round" stroke-linejoin="round"/>
<path d="M51.3778 40.7193L51.2773 40.9677L51.3633 40.7144L52.026 40.9628L53.9687 42.165L55.5282 42.3637L56.6238 42.1302" stroke="black" stroke-width="1.20544" stroke-linecap="round" stroke-linejoin="round"/>
<path d="M50.9052 35.7803L50.6089 35.8349L50.6342 35.9641L50.0511 36.3068L49.8488 36.7887L49.3507 37.2707L49.1334 38.0159L48.6721 38.3388L48.8004 38.453L48.3848 38.9697L48.4653 39.1634L48.1337 39.2777L47.404 39.9335L47.5272 40.1173L47.1181 40.6836L47.2081 40.9966L46.8825 41.25L46.6071 42.0697L46.4579 42.1492L46.4838 42.949L46.3516 43.0434L46.5395 43.2719" stroke="black" stroke-width="1.20544" stroke-linecap="round" stroke-linejoin="round"/>
<path d="M55.4294 37.7731L54.5883 38.1705L54.9154 37.9221L54.8239 37.7383L54.5645 37.8078L54.7618 37.8824L54.7404 37.7781L54.6997 38.0165" stroke="black" stroke-width="1.20544" stroke-linecap="round" stroke-linejoin="round"/>
<path d="M47.4906 41.011L47.4424 40.8223L48.2313 41.3985L49.2539 41.473L50.8914 41.3836L53.2089 40.9514" stroke="black" stroke-width="1.20544" stroke-linecap="round" stroke-linejoin="round"/>
<path d="M47.3037 42.165L53.9835 42.1948" stroke="black" stroke-width="1.20544" stroke-linecap="round" stroke-linejoin="round"/>
<path d="M61.9745 42.3439L61.379 42.6618L61.4709 42.4184L61.191 42.2197L61.278 42.0209L61.2761 42.1302L61.535 42.0706L61.0797 42.011L60.8545 41.8868L61.0424 41.7229L60.8699 41.7279L61.1254 42.0408L63.009 42.0706L65.6015 41.6533" stroke="black" stroke-width="1.20544" stroke-linecap="round" stroke-linejoin="round"/>
<path d="M38.644 40.48L38.3321 40.5396L38.2376 40.1471L38.1025 40.2266L38.356 40.2067L38.1731 40.0577L38.3777 40.0677L38.6067 39.7596L40.7991 39.8838L42.1863 39.6553" stroke="black" stroke-width="1.20544" stroke-linecap="round" stroke-linejoin="round"/>
</svg>
