<svg width="373" height="216" viewBox="0 0 373 216" fill="none" xmlns="http://www.w3.org/2000/svg">
<path d="M171.021 13.24L169.04 14.87L169.354 15.05L168.596 17.4301L168.83 18.1801L167.223 19.53L167.682 20.76L165.979 22.87L165.735 25.5699L164.432 27.26L163.295 30.59L161.938 41.16L161.052 44.01L161.274 46.74L160.836 47.75L161.28 48.29L161.352 49.8199L160.91 53.1801L161.486 54.51L160.766 56.22L161.357 60.9399L161.249 63.48L160.722 65L161.446 66.11L161.052 66.34L161.462 66.91L160.881 68.25L161.76 70.77L162.509 72.1801L163.903 73.27L165.265 75.78L167.995 77.84L168.218 78.98L170.528 80.8L172.361 81.3199L172.226 81.92L173.7 83.15L176.417 84.5L176.853 85.62L179.023 86.61L179.254 87.5699L180.816 88.86L185.685 89.0699L186.278 88.72L191.009 90.49L192.648 89.91L196.264 90.2L197.875 90.01L199.498 88.98L199.308 88.64L204.298 87.15L204.257 86.8L206.216 86.13L207.181 84.9399L209.57 83.33L210.891 81.0699L210.945 79.52L214.047 75.84L214.847 72.5601L216.031 70.99L215.874 68.76L216.67 65.15L218.358 61.4399L217.954 61.6L218.323 61.27L218.175 57.54L218.814 55.85L218.649 55.22L219.03 55.23L218.794 54.48L219.486 48.9L218.945 47.85L220.153 45.4301L219.778 44.13L220.205 43.47L219.913 42.77L220.346 42.6899L220.027 38.72L219.154 36.98L219.795 35.76L219.367 35.33L219.293 32.9301L218.674 31.8199L219.042 31.16L217.915 29.96L218.358 29.9301L217.922 29.51L218.334 29.11L217.34 25.79L215.315 22.83L215.325 22.12L214.591 21.54L215.041 21.4399L212.843 20.4399L211.625 19.02L209.669 18.16L206.61 15.29L205.512 15.33L205.263 15.15L205.793 14.84L202.978 13.84L202.151 12.23L199.173 11.46L199.106 10.98L197.695 10.86L196.548 10.0699L194.087 9.81995L193.539 9.35999L192.676 9.56995L192.495 9.23999L189.838 9.67004L181.308 8.51001L179.232 9.43994L176.042 9.32996L176.73 9.31995L174.92 10.23L174.037 11.37L174.543 11.47H173.2L173.989 11.6L173.5 11.61L173.746 11.99" stroke="#292562" stroke-width="2.75" stroke-linecap="round" stroke-linejoin="round"/>
<path d="M162.835 35.3799L162.269 36.5499L164.182 35.9398L163.746 36.3599L164.619 36.4099L164.006 36.5599L163.838 37.4598L162.491 38.7098L162.73 39.0698L161.311 40.7799L160.919 40.7299L161.573 40.8398L160.372 42.2599L160.338 41.8899L161.051 41.6499L160.516 41.5599L161.919 41.2999L160.99 41.3499L161.925 40.7299L161.395 40.5999L161.458 39.6499L161.113 39.5299L161.759 39.8699L160.926 39.6399L161.305 39.3398L160.854 39.5599L161.355 39.3799L161.234 37.5698L161.452 38.2899L160.942 38.2499L161.601 38.0199L160.822 38.0099L161.483 38.1799L161.084 38.0299L164.444 36.3999L171.009 36.2599L180.194 38.1299L187.176 37.6799L191.53 36.4999L196.764 36.1998L203.481 36.1499L211.172 36.7098L212.172 36.3398L214.677 36.5199L215.169 37.2098L216.929 37.9099L218.382 37.4799L218.187 37.7599L218.569 37.7098L218.121 37.6599L218.585 37.8398L217.96 37.7899L218.545 37.9999L218.463 37.6998L217.919 37.9299L218.387 38.0599L217.972 38.0399L217.231 39.7699L217.253 39.4199L217.723 39.5399H216.898L217.804 39.4099L216.996 39.4398L217.721 39.3198L217.172 39.5199L217.348 39.1299L218.183 39.2999L217.07 39.1898L217.748 38.4999L217.034 38.6799L217.967 38.5399L217.207 38.5499L218.765 36.0399" stroke="#292562" stroke-width="2.75" stroke-linecap="round" stroke-linejoin="round"/>
<path d="M179.661 16.9099L179.271 17.1199L179.504 16.8398L179.723 17.4099L179.508 17.1099L179.691 17.8298L179.267 17.7499L179.684 18.1499L179.522 18.6299L175.444 22.5698L173.703 26.4099L170.094 31.2799L168.44 35.7899" stroke="#292562" stroke-width="2.75" stroke-linecap="round" stroke-linejoin="round"/>
<path d="M179.371 19.6602L177.638 20.8002L172.173 33.4601L171.758 35.3901L172.285 35.8002" stroke="#292562" stroke-width="2.75" stroke-linecap="round" stroke-linejoin="round"/>
<path d="M180.064 19.4399L178.931 23.1L177.819 24.4399L177.689 28.8199L175.597 34.1899L175.408 35.61L176.386 36.91L176.677 36.97L176.426 36.72L176.899 35.66" stroke="#292562" stroke-width="2.75" stroke-linecap="round" stroke-linejoin="round"/>
<path d="M182.205 20.55L182.473 20.96L180.372 31.24L180.435 34.73L179.606 37.74L180.057 39.4L179.723 39.52L181.76 37.13" stroke="#292562" stroke-width="2.75" stroke-linecap="round" stroke-linejoin="round"/>
<path d="M183.954 21.4601L184.947 20.6201L183.897 22.5201L183.95 27.2601L182.74 31.4202L181.847 37.0602L182.103 39.6101L181.877 39.9801L181.759 39.1901" stroke="#292562" stroke-width="2.75" stroke-linecap="round" stroke-linejoin="round"/>
<path d="M186.466 25.3501L184.984 32.9302L184.688 36.3701L185.014 38.1001" stroke="#292562" stroke-width="2.75" stroke-linecap="round" stroke-linejoin="round"/>
<path d="M189.364 23.24L189.129 29.14L187.747 37.36L188.251 37.37L188.551 37.98" stroke="#292562" stroke-width="2.75" stroke-linecap="round" stroke-linejoin="round"/>
<path d="M191.507 22.8L191.269 26.97L189.527 35.96L190.036 40.41L190.678 41.39" stroke="#292562" stroke-width="2.75" stroke-linecap="round" stroke-linejoin="round"/>
<path d="M193.397 21.9899L194.372 21.3599L194.78 21.3699L194.819 21.8999L193.049 31.4698L193.405 33.9498L192.998 37.9099L193.309 37.8999L193.024 37.1699L193.501 36.1799" stroke="#292562" stroke-width="2.75" stroke-linecap="round" stroke-linejoin="round"/>
<path d="M196.426 19.0801L195.204 25.9102L195.598 28.1501L195.256 31.6702L195.953 33.5201L195.902 35.5001L196.072 34.1901" stroke="#292562" stroke-width="2.75" stroke-linecap="round" stroke-linejoin="round"/>
<path d="M199.024 16.96L198.294 21.66L198.307 27.77L197.551 30.55L197.818 35.66L198.021 36.22L198.033 34.86L200.641 27.78L200.397 25.72L202.505 21.86L202.093 19.17L202.324 17.85L202.066 22.64L200.77 25.12L201.152 32.59L202.515 29.1899L202.308 26.47L204.15 22.26L203.728 20.01L204.502 18.4L202.209 30.53L202.491 37.4301L202.165 37.47L202.89 37.25L203.676 33.23" stroke="#292562" stroke-width="2.75" stroke-linecap="round" stroke-linejoin="round"/>
<path d="M204.974 22.9199L205.428 23.5599L204.783 27.4999L204.922 32.9199L205.574 34.7799L206.595 35.7499L205.732 35.3899" stroke="#292562" stroke-width="2.75" stroke-linecap="round" stroke-linejoin="round"/>
<path d="M207.584 25.02L206.599 27.9L206.506 34.48L205.97 37.37L206.876 39.1899L206.713 38.83L207.281 38.6899L206.931 38.04L208.02 36.41L208.01 33.89L209.716 28.8L209.766 23.64L209.96 25.0699L209.474 26.17L210.203 29.29L209.568 30.62L210.608 35.04L211.361 35.38L210.51 34.55L211.193 33.7L212.22 30.2L212.389 25.27L213.351 23.8101L212.828 23.88L212.732 24.3101L213.198 24.41L213.291 28.04L212.628 32.25L213.177 34.23L212.7 35.52L213.504 36.11L214.337 34.86L215.133 28.03L214.811 23.87L215.83 21.95L215.403 22.1801L215.365 24.9301L214.568 29.11L214.656 30.77L215.2 30.85L214.592 31.09L215.027 31.41L214.753 31.05L215.221 30.92" stroke="#292562" stroke-width="2.75" stroke-linecap="round" stroke-linejoin="round"/>
<path d="M190.854 17.0299L189.996 16.8198L189.034 17.2599L188.238 18.6199L186.667 23.5999L185.983 27.6898L186.321 31.5999L185.921 32.8499L186.402 36.9099L187.862 36.8999L189.193 31.3198" stroke="#292562" stroke-width="2.75" stroke-linecap="round" stroke-linejoin="round"/>
<path d="M187.144 22.98L184.908 21.0601L184.987 20.55L183.918 22.38L182.787 27.23L183.154 27.73L183.293 27.39" stroke="#292562" stroke-width="2.75" stroke-linecap="round" stroke-linejoin="round"/>
<path d="M184.286 16.1499L183.408 16.5199L182.673 17.9199L181.341 22.0798L179.688 29.5299L179.774 31.8499" stroke="#292562" stroke-width="2.75" stroke-linecap="round" stroke-linejoin="round"/>
<path d="M177.843 19.8999L177.067 20.0798L176.384 21.0798L175.334 23.7999L175.227 25.5999L174.145 27.9199L174.738 29.9199L174.185 30.3198L174.297 30.8799" stroke="#292562" stroke-width="2.75" stroke-linecap="round" stroke-linejoin="round"/>
<path d="M170.42 20.2L168.989 23.58" stroke="#292562" stroke-width="2.75" stroke-linecap="round" stroke-linejoin="round"/>
<path d="M195.477 5.53015L195.371 4.12012L196.164 4.93018L199.452 4.33008L201.434 5.15015L205.152 5.13013L210.396 6.20007L212.625 6.21008L216.364 9.2301L218.488 12.2501L219.578 14.8701L221.347 16.5001L223.382 17.3701L224.283 20.5701L226.719 22.7701L227.103 24.1001L229.068 26.8501L230.254 30.1001L231.053 30.5701L231.619 32.3201L230.99 34.1001L231.574 34.5602L231.784 37.0302L232.337 37.6702L231.976 38.7802L232.387 40.1101L230.109 43.3801L230.135 44.2902L229.254 45.3301L229.165 46.8801L228.2 48.5801L229.129 48.6301L228.589 48.7601L227.992 50.2701L228.182 52.3301L227.767 55.1201L227.006 55.8601H228.012L227.282 56.2902L227.935 58.4302L227.208 59.1101L228.116 61.9501L226.371 64.7401L226.652 65.6001L226.23 66.0001L226.93 66.6501L226.301 67.4801L227.077 67.8201L227.472 68.9001L229.541 71.3102L229.277 71.5101L230.462 71.6301L231.382 72.7001L232.067 74.2201L234.127 74.6501L237.213 76.2101L238.583 77.6501L237.923 78.9302L238.814 79.2201L238.501 79.6201L239.036 80.1101L238.512 80.2701L239.156 80.9001L238.718 82.8102L239.108 84.0801L237.755 86.0302L236.929 88.7301" stroke="#292562" stroke-width="2.75" stroke-linecap="round" stroke-linejoin="round"/>
<path d="M230.37 106.6L228.376 108.65L228.464 109.87L227.024 110.47L227.427 111.01L226.825 111.09L225.815 112.9L225.667 115.58L224.547 117.29L224.505 118.6L225.732 120.5L225.887 121.46" stroke="#292562" stroke-width="2.75" stroke-linecap="round" stroke-linejoin="round"/>
<path d="M223.004 122.03L222.948 121.72L220.511 118.91L219.953 117.09L218.856 115.9L219.419 115.25L219.278 112.77L218.185 111.01L218.062 109.42L217.093 108.94L217.497 106.56L218.798 105.08L219.318 102.33L220.377 100.97L220.372 99.2699L221.646 95.6199L221.466 95.1399L223.283 93.4199L224.02 89.9698L222.523 90.6499L222.219 91.8999L219.329 94.1799L218.821 93.8398L217.915 94.2399L212.002 90.9598L212.449 90.3298L211.697 90.1799L211.739 88.6199L211.076 87.4398L211.808 85.7899L211.026 83.3099L209.937 82.0199L210.309 81.8699L209.586 81.8198L210.213 81.7999L210.107 81.0099L210.656 80.4199L210.341 81.2799H211.04" stroke="#292562" stroke-width="2.75" stroke-linecap="round" stroke-linejoin="round"/>
<path d="M190.174 6.77991L190.101 8.50989L188.857 8.7699L189.88 8.80994L189.306 8.82983L191.486 6.6499L191.467 5.97986L190.396 5.31982L190.624 4.1499L189.808 3.36987L185.151 3.06982L182.405 3.72986L176.698 3.49988L174.464 4.10986L171.799 4.15991L170.034 5.22986L167.123 5.72986L164.085 7.41992L163.853 8.08984L161.891 8.6499L158.838 12.3099L154.23 15.6599L151.776 18.8999L151.209 23.0399L151.572 27.2499L149.543 36.2799L150.024 40.0898L150.967 41.4999L151.312 42.9799L150.927 45.2299L151.813 46.4899L151.17 47.7399L151.253 49.4999L150.477 51.1099L149.718 51.7799L149.188 53.2999L148.336 53.8298L148.463 54.5499L147.887 55.7699L147.083 56.2799L147.512 56.6399L146.325 58.7198L146.937 58.6499L146.326 58.4799L145.245 59.4398L145.321 60.0698L144.383 60.7198L144.903 60.7999L144.375 61.3799L144.583 61.7699L144.179 61.7799L145.121 61.5999L147.884 62.4899L147.936 63.7098L151.005 69.4099L151.538 74.9698L152.394 77.6998L154.756 78.4199L154.819 79.1799L156.491 80.7198L157.486 80.8398L157.213 81.2098L158.011 81.8799L158.181 83.6199L156.952 86.7799L155.593 87.7399L155.367 89.4899L153.723 92.5199L151.444 94.9299L151.63 95.8198L150.678 99.0798L150.677 101.66L150.023 101.83L150.695 102.41L151.036 104.43L151.907 104.78L150.814 106.34L150.394 108.41L150.765 109.71L148.608 116.35L148.63 119.3L148.164 120.31" stroke="#292562" stroke-width="2.75" stroke-linecap="round" stroke-linejoin="round"/>
<path d="M176.881 91.0302L176.161 87.6201L175.794 88.7301L176.44 89.4202L175.727 89.4401L176.533 89.5302L175.67 89.6802L176.349 89.3701L175.687 89.3601L176.172 89.5101L176.349 93.5402L175.822 94.5101L176.383 96.1201L175.56 97.8002L175.943 100.27L175.487 101.24L176.293 101.79L176.098 102.25L175.422 102.14L175.679 104.18L175.371 104.87L175.733 105.19L175.337 105.5L175.869 106.09L175.812 107.06L175.143 107.36L176.113 107.86L175.493 110.51L176.12 110.43L176.276 111.44L175.899 114.28L174.942 114.88L174.338 117.31L174.657 117.4L173.968 117.48L174.289 117.73L173.895 117.94L174.528 118.25L173.637 119.37L173.05 119.42L173.174 120.17" stroke="#292562" stroke-width="2.75" stroke-linecap="round" stroke-linejoin="round"/>
<path d="M196.436 88.3799L196.54 90.1499L197.061 90.6499L196.361 93.0898L197.582 95.3499L196.697 96.4398L197.213 97.1499L196.57 98.7399L197.145 99.1998L196.642 100.06L197.077 100.54L196.466 101.11L197.421 101.13L196.756 101.93L197.164 101.94L197.041 102.7L197.682 103.31L196.935 104.1L197.46 104.29L197.745 105.91L197.706 106.59L197.333 106.68L198.084 106.86L197.176 108.26L197.461 108.97L196.976 109.7L198.515 110.82L198.303 111.19L199.026 111.58L198.726 111.84L199.563 112L201.101 115.66L204.951 116.47L204.693 116.6L205.292 116.61L205.407 117.05L205.742 116.79L207.234 117.75L207.303 118.21L208.358 118.4L208.798 119.11L208.496 119.3L211.509 119.65L211.169 120.01L212.61 120.45L212.273 120.76L212.505 120.4L212.009 120.49L212.663 120.92L212.557 121.51" stroke="#292562" stroke-width="2.75" stroke-linecap="round" stroke-linejoin="round"/>
<path d="M180.492 10.3599L178.201 11.4799L175.826 14.0099L171.219 21.0599L167.304 28.1998L165.487 30.7399L162.821 33.3499L161.154 37.5898L163.474 32.9199L164.46 29.8099L167.324 25.7399L170.339 18.8899L170.122 18.1998L169.673 18.2699L166.727 20.4799L160.291 32.5399L159.748 34.4598L159.651 38.5898L158.918 39.6799L159.407 39.2299L158.891 38.9498L159.243 38.5599L159.116 37.3099L160.565 35.1099L160.944 33.7399L163.735 21.3799L163.708 19.7299L163.073 18.9698L162.027 18.7198L159.184 20.1299L156.819 23.6799L153.147 30.9899L152.958 30.0399L155.38 26.7499L159.746 17.9099L158.449 17.5299L158.652 17.8699L152.179 26.9999L149.349 29.6599L152.593 27.1199L156.408 22.4799L156.914 21.0798L159.564 18.7198L159.428 18.0599L156.537 22.7098L155.692 22.6299L157.29 20.9099L159.494 17.0499L160.193 16.5299L160.425 16.9099L159.871 16.7599L161.675 14.8599L161.947 13.6998L163.275 13.4199L163.341 12.7399L163.851 12.6399L162.013 16.5099L158.72 21.9698L155.004 27.0399L155.057 28.2599L155.505 28.5999L156.707 27.7499L159.615 23.5698L161.091 20.3099L163.397 17.3999L166.809 10.8599L164.775 12.7399L160.721 19.9999L155.74 27.4099L152.077 34.9099L151.987 35.4199L153.766 34.5599L156.747 31.5898L161.378 24.4598L164.521 16.7299L166.631 12.7699L166.173 12.7399L166.073 13.8499L162.453 21.4398L158.153 32.2799L155.879 36.0599L155.478 37.4799L154.987 37.4698L158.261 33.4099L163.367 24.4899L165.364 18.6599L167.217 16.1599L166.853 15.3198L162.045 26.5299L157.537 34.0599L155.566 38.9598L155.508 41.9598L156.043 42.3599L156.778 41.9199L156.519 41.5199L158.072 40.4799L161.89 34.4598L164.414 28.9698L165.554 27.5698L157.245 41.6099L153.627 49.9899L153.762 51.8198L155.98 49.5599L158.145 45.4398L162.078 39.6199L163.066 36.8699L162.345 37.4698L161.649 39.3298L157.008 46.9598L156.977 49.6299L155.371 52.0599L156.183 51.9598L156.011 50.9899L157.466 48.6799L156.373 50.8398L155.944 52.9698L152.746 57.5299L151.705 63.9799L150.119 67.2399L150.532 67.2499L150.295 66.2499L151.934 65.2699L154.987 61.0698L156.061 58.8699L156.441 58.9799L154.957 59.4698L154.904 60.2098L153.39 62.2499L151.354 66.4199L149.715 67.8499L147.75 70.8499L148.501 70.6599L149.033 71.3198L154.119 63.1399L154.689 63.4799L151.204 68.9899L150.853 70.5299L148.992 74.1099L149.114 73.5399L151.538 72.8198L153.035 70.3799L154.151 69.4899L153.659 69.3799L153.898 69.7799H155.548L157.202 68.1399L152.321 76.7098L153.293 76.8999L156.063 74.2999L158.54 71.0698L160.039 70.4799L158.984 71.2999L159.076 71.8099L157.116 74.3099L156.998 75.4999L157.822 75.1599L158.157 77.1099L156.592 80.0399L155.788 80.4299L156.464 80.7098L158.924 80.0099L161.832 77.7599L160.265 79.3499L158.969 82.5898L157.887 83.4398L158.457 83.9299L158.37 83.5698L161.604 82.3899L160.081 86.4999L161.631 86.4899L162.434 86.0399L164.843 83.0299L163.411 85.4999L162.063 89.9799L158.789 95.1898L159.309 94.7198L159.84 95.4899L161.449 94.6099L166.397 87.4299L168.44 85.7799L165.776 88.9598L162.195 96.1599L160.664 98.1199L160.755 98.8699L164.888 94.9899L168.446 90.2399L173.438 87.1998L171.537 92.5499L169.312 96.9799L165.39 102.41L167.609 100.99L172.834 95.6299L175.847 90.7799L174.829 92.4999L174.742 94.3099L173.346 95.0399L173.788 95.5499L172.411 97.0299L175.872 94.6599L177.174 92.8799L175.801 97.5798L165.702 110.09L164.971 113.83L174.038 103.01L171.971 104.66L170.477 106.82L163.363 114.01L159.253 119.72" stroke="#292562" stroke-width="2.75" stroke-linecap="round" stroke-linejoin="round"/>
<path d="M160.896 119.55L166.391 112.19L170.655 108.39L170.849 108.88L169.292 109.88L164.826 117.5L162.201 121.27" stroke="#292562" stroke-width="2.75" stroke-linecap="round" stroke-linejoin="round"/>
<path d="M164.868 119.74L168.452 115.44L172.067 112.68L173.397 111.12L174.406 110.71L172.905 113.36L167.925 119.62" stroke="#292562" stroke-width="2.75" stroke-linecap="round" stroke-linejoin="round"/>
<path d="M170.591 119.66L172.31 118L172.605 116.99L171.939 117.04L172.508 117.88L171.384 119.58" stroke="#292562" stroke-width="2.75" stroke-linecap="round" stroke-linejoin="round"/>
<path d="M167.182 119.89L168.455 118.09L168.459 117.7L167.553 117.94L166.218 119.64" stroke="#292562" stroke-width="2.75" stroke-linecap="round" stroke-linejoin="round"/>
<path d="M160.519 119.71L161.701 117.86L163.988 112.05L163.151 112.47L163.137 113.31L158.02 119.28L156.021 121.07" stroke="#292562" stroke-width="2.75" stroke-linecap="round" stroke-linejoin="round"/>
<path d="M151.03 119.83L152.908 117.44L155.559 112.21L158.735 108.31L160.648 104.98L152.566 114.72L149.602 119.65L148.113 120.89L147.733 120.8L147.836 120.08L149.82 118.5L152.29 114.35L154.179 112.11L154.856 109.17L159.072 103.61L160.514 99.6702L160.065 99.2401L154.73 106.37L149.679 112.18L148.085 113.34L147.616 113.33L154.055 104.69L155.637 101.35L160.542 93.9701L160.039 92.9302L157.914 93.2501L155.834 96.2701L151.591 100.95L149.688 102.42L149.652 102.88L150.464 102.3L150.035 103.16" stroke="#292562" stroke-width="2.75" stroke-linecap="round" stroke-linejoin="round"/>
<path d="M160.22 80.42L158.127 80.98L158.714 79.77L158.292 80.85L161.221 84.96L163.082 86.62L163.642 86.85L163.471 85.85L162.519 83.9301L158.45 78.22L157.361 75.64L157.151 76.01L159.63 77.9301L162.563 81.76L163.85 85.76L165.131 85.72L164.578 85.41L165.225 84.4301L165.268 83.12L162.164 77.8101L161.644 74.6801L159.739 72.1L159.88 71.72L161.287 75.58L164.841 78.38L166.21 80.05L168.02 81.16L167.296 80.97L167.819 80.7L166.358 78.76L161.942 73.85L161.286 71.74L158.405 69.25L157.867 69.55L156.696 68.87L156.744 69.73L157.571 70.1899L160.794 74.63L162.655 75.83L162.819 76.61L165.409 78.12L166.118 79.1899L167.704 79.62L167.837 79.13L166.881 78.55L166.967 79.3L169.464 81.64L158.88 73.9301L157.264 71.77L155.201 67.55L154.51 63.33L154.879 60.6L154.206 59L155.578 55.12L156.705 49.9L156.219 46.3199L156.667 45.14L155.906 42.77L155.714 48.83L156.182 50.2L156.277 53.4L155.717 60.64L156.122 61.9399L156.797 61.55L156.597 60.13L158.081 53.59L156.703 47.02L155.88 48.03L156.368 48.29L154.796 51.97L155.079 51.52L154.379 49.97L155.018 43.16" stroke="#292562" stroke-width="2.75" stroke-linecap="round" stroke-linejoin="round"/>
<path d="M169.932 5.5199L170.401 5.49988L169.973 5.70984L169.907 6.87988L168.181 9.85986L168.298 9.19983L168.019 9.25989L171.089 7.33984L174.438 4.40991L175.727 2.22986L176.402 1.8999L175.327 2.20984L175.551 2.70984L172.082 4.84985L170.12 7.28992L171.155 6.78992L170.909 6.44983L173.618 5.09985L175.552 4.77991L173.273 6.46985L172.283 7.65991L173.036 7.70984L173.382 7.38989L172.788 7.46985L173.78 7.08984L176.792 3.66992L178.484 2.98987L178.138 3.36987L178.6 4.18982L176.814 7.35986L173.25 11.1299L171.828 13.8599L170.034 15.5099L175.037 13.5698L176.509 11.4598L180.088 8.04993L184.862 4.55994L184.212 5.72986L184.158 7.92993L182.332 11.4199L179.438 15.4099L175.118 19.7999L175.02 21.2599L175.243 20.4498L181.063 14.1799L184.502 11.6898L189.332 5.06982L187.166 12.1699L186.553 13.4398L184.179 16.0599L183.627 17.6299L184.045 16.7999L186.396 15.6199L191.914 8.31982L195.506 4.94983L198.363 3.23987L197.21 8.37988L195.419 13.4698L194.434 15.0199L194.616 14.3899L196.801 12.4299L201.365 6.05994L204.257 3.91992L204.452 4.40991L203.472 4.98987L201.989 9.48987L199.101 14.2999L198.953 15.3599L199.047 14.5898L201.673 11.5199L204.097 7.30994L206.933 4.83984L206.694 4.60986L207.683 4.71985L207.515 5.1499L208.855 6.5199L209.137 7.8999L210.437 10.1499L209.858 11.8799L210.208 12.6998L210.345 11.5199L211.11 10.7699L211.785 8.71985L212.848 7.60986L212.599 7.3999L210.619 14.7799L209.353 15.7599L210.045 15.9398L210.291 14.8599L214.679 10.0898L216.862 7.02991L218.268 6.97986L217.013 7.74988L216.916 9.17993L214.554 15.1299L211.943 19.3899L213.982 19.0698L219.208 14.5499L221.814 12.9598L222.528 13.0599L221.467 13.5798L219.762 16.5199L219.465 18.2299L216.439 24.0898L220.435 21.2098L220.943 20.7098L220.802 19.9199L221.394 20.2699L221.46 21.9698L218.957 26.1299L217.657 30.2399L223.907 25.5399L223.169 26.3099L222.975 28.2999L220.481 35.2599L226.668 29.1699L225.79 29.7399L226.247 30.7899L223.206 36.1099L222.108 39.2399L223.768 38.6199L223.699 38.2599L227.687 35.4199L228.291 35.3999L227.47 35.4398L227.416 35.7899L227.954 35.8099L227.222 36.1299L227.574 36.8198L227.332 37.5199L226.102 39.0399L223.22 44.4799L223.213 44.0499L224.621 43.3499L230.31 37.6998L229.464 38.2299L224.527 45.9899L224.474 46.9299L227.59 43.5399L228.996 41.2299L228.486 41.0798L228.636 41.8198L227.372 42.5299L225.516 44.6499L222.591 49.4299L221.015 53.5999L221.661 53.6799L225.891 49.1399L225.75 48.3298L226.295 48.3899L225.806 49.7499L225.009 50.4299L224.61 53.0099L222.862 56.7799L222.335 59.1299L220.171 63.4598L219.85 65.0999L219.381 65.1699L221.746 63.5999L222.164 62.1199L225.638 57.6299" stroke="#292562" stroke-width="2.75" stroke-linecap="round" stroke-linejoin="round"/>
<path d="M225.177 58.4299L219.912 66.7899L220.017 67.3298L220.485 65.3298L222.12 63.3799L225.019 57.8398L226.676 56.5199L225.993 55.8599L225.018 56.9999L224.889 58.7999L222.665 63.1799L221.499 66.6399L220.072 69.2499L219.221 69.5599L219.854 69.0999L219.726 69.3899H220.887L223.808 65.8398L223.074 67.0099L223.145 69.0199L221.825 72.7098L218.437 78.8499L218.831 79.5399L219.811 79.2299L219.935 78.5499L222.134 76.2299L222.91 76.2399L222.003 76.4299L216.391 88.4199L215.477 89.5798L221.43 80.9498L220.267 81.9398L220.101 82.9498L216.592 87.9799L212.06 96.2098L212.18 96.7599L211.574 96.8699L211.486 96.2599L212.282 95.5499L212.46 94.1099L214.269 90.3899L215.157 87.1199L216.169 85.8999L216.009 85.5798L215.245 86.0099L213.415 87.5099L210.606 91.1998L209.686 93.7799L208.701 94.6099L208.246 94.4199L208.766 93.4999L208.834 90.8099L210.996 87.8198L211.51 85.8999L212.49 84.6898L212.134 83.6199L210.346 86.2999L209.465 89.2399L207.775 92.4698L207.397 92.2098L208.155 91.5698L208.503 90.1998L208.143 90.0499L208.604 89.4799L206.592 90.0798L206.844 89.9299L206.118 89.5299L206.624 89.0099L205.869 88.8099L205.55 86.4299L204.935 87.2599L202.949 88.3398L202.521 90.0099L200.731 90.8799L201.196 91.0199L200.467 91.0499L200.8 91.1799L199.84 92.1898L200.651 93.9999L199.876 94.7699L200.152 96.3499L199.639 97.4099L200.141 101.84L199.623 102.02L200.075 102.03L204.475 98.3099L204.477 97.8198L205.639 97.0199L207.191 94.9698L209.353 93.0199L209.988 93.0499L210.162 94.4698L208.444 98.0798L203.017 106.07L202.749 107.24L207.398 101.82L218.307 86.2899L219.76 85.3899L218.715 86.8899L216.312 92.6099L208.982 103.83L206.119 107.19L209.326 103.15L212.529 98.0898L217.761 91.8398L221.35 86.1599L225.859 80.2799L227.62 79.0299L226.845 80.7999L226.563 83.3499L219.579 94.9899L214.254 101.61L210.759 105.13L211.191 105.26L213.43 103.52L216.207 99.0499L222.417 92.3999L224.662 88.3599L227.546 84.6099L232.912 78.7599L234.979 77.2999L233.812 78.1699L229.087 87.0999L220.588 100.05L214.574 106.62L227.316 92.4299L233.396 84.0499L234.33 83.8398L233.644 84.5399L232.15 88.2999L227.853 96.3799L219.573 106.18L220.25 106.67L219.78 106.11L221.742 105.36L225.785 99.2098L231.527 92.7399L229.767 94.3198L226.496 99.7899L217.307 109.05L216.171 110.86L214.923 111.81L215.426 111.7L215.857 109.12L216.624 108.56L216.08 109.15L212.953 108.82L212.95 108.38L211.594 107.42L208.271 106.3L206.44 104.27L204.061 103.05L202.856 103.26L201.768 104.9L202.22 105.71L201.714 106.39L201.915 107.88L204.911 108.3L209.065 107.74L209.954 108.11L210.422 108.66L210.828 111.47L211.622 112.4L214.97 112.14L217.03 115.2L217.32 116.63L217.802 117.14L218.746 117.04L220.481 118.26L219.864 119.2L220.231 119.16L220.461 120.14L222.533 121.05L222.271 120.82L223.412 119.99" stroke="#292562" stroke-width="2.75" stroke-linecap="round" stroke-linejoin="round"/>
<path d="M171.521 104.23H201.278" stroke="#292562" stroke-width="2.75" stroke-linecap="round" stroke-linejoin="round"/>
<path d="M117.677 119.82H259.373" stroke="#292562" stroke-width="2.75" stroke-linecap="round" stroke-linejoin="round"/>
<path d="M255.122 124.07V206.25" stroke="#292562" stroke-width="2.75" stroke-linecap="round" stroke-linejoin="round"/>
<path d="M116.26 122.65V206.25" stroke="#292562" stroke-width="2.75" stroke-linecap="round" stroke-linejoin="round"/>
<path d="M2.3623 210.51H371.362" stroke="#292562" stroke-width="2.75" stroke-linecap="round" stroke-linejoin="round"/>
<path d="M85.4699 207.3L84.9509 207.32L85.5139 206.47L85.0059 206.01L85.4519 205.03L84.7549 203.06L85.1679 202.06L84.1649 201.37L84.4539 201.07L83.8999 200.95L82.6479 198.15L81.4539 198.05L81.6339 197.81L80.8199 197.2L79.5509 197.07L77.6739 195.31L74.8119 195.02L75.2119 194.66L72.3669 194.56L71.0339 195.59L69.8259 195.85L69.4229 196.57L69.7129 196.64L69.0539 196.46L69.3559 196.4L68.9669 197.18L68.2739 197.03L67.8879 197.74L67.4569 197.67L65.5129 200.23L65.5559 200.95L65.0069 201.25L65.6659 201.09L64.8699 201.23L64.4659 202.96L63.8669 203.01L64.5209 203.31L63.8439 203.38L64.4429 203.51L63.6069 204.47L63.9469 204.99L63.2459 205.24L62.7729 207.26L63.1669 208.49L62.5859 209.55L63.2419 209.81L62.7979 210.48L63.2629 211.05L62.5989 211.65L62.7749 211.4L63.2249 211.92L63.0649 212.73L63.4979 213.51L62.9059 213.73L63.6609 213.51L64.2449 214.2" stroke="#292562" stroke-width="2.75" stroke-linecap="round" stroke-linejoin="round"/>
<path d="M59.3277 190.6L57.8047 192.29L58.4825 191.97L58.5335 189.56L59.4444 188.96L59.561 188.1L61.064 185.88L61.0471 186.34L63.6447 185L64.1927 185.2L64.6337 184.67L66.8837 184.94L68.0467 184.45L70.4387 184.82L71.4387 183.95L71.6587 184.47L72.7037 184.59L74.2227 187.01L73.5447 187.27L74.2257 188.89L75.3597 188.58L76.0877 188.92L75.5667 189.17L76.9217 189.62L79.5677 188.63L80.4447 188.71L83.2227 190.62L83.9057 190.69L84.1747 191.37L86.7007 191.34L87.0777 191.85L89.1567 192.34L89.9507 193.45L89.6177 193.59L90.3787 194.98L90.4737 196.86L89.7717 201.84L89.0447 202.56L88.9957 203.24" stroke="#292562" stroke-width="2.75" stroke-linecap="round" stroke-linejoin="round"/>
<path d="M94.7109 181.75L97.2519 182.77L98.5639 184.44L99.1249 186.22L100.891 188.9L102.361 193.47L103.092 193.95L102.548 194.43L103.486 195.06L103.211 196.07L103.836 196.17L103.181 197.13L104.047 197.31L103.323 197.72L103.801 197.85L103.386 197.49L104.22 197.07L103.647 196.95L103.811 195.46L105.376 190.08L104.885 188.01L105.307 187.42L104.069 183.86L102.3 181.22L100.801 180.49L101.038 180.13L98.6989 178.66L98.0059 177.82L98.4449 177.75L97.9379 177.79L99.8899 177.98L100.586 177.63" stroke="#292562" stroke-width="2.75" stroke-linecap="round" stroke-linejoin="round"/>
<path d="M100.803 168.25L102.793 166.16L103.923 163.42L104.424 163.11L104.328 162.6L105.623 161.48L105.956 160.15L106.68 159.48L106.093 158.61L106.661 156.63L107.273 155.97L106.905 155.37L108.132 154.8L107.556 154.19L108.032 153.7L107.57 153.55L108.217 153.06L107.457 152.25L108.162 152.38L108.327 152.02L108.601 149.72L109.561 147.87L109.027 147.89L109.853 147.71L109.424 147.75L110.102 147.42L109.716 146.64L111.183 145.7L110.63 144.92L111.005 144.8L110.566 144.81L111.043 144.91L110.54 144.96L110.782 144.57L111.773 144.17L110.89 144.34L111.777 143.98L112.456 141.56L112.059 140.85L113.055 140.73L112.762 140.21L113.185 139.8" stroke="#292562" stroke-width="2.75" stroke-linecap="round" stroke-linejoin="round"/>
<path d="M158.67 15.6802L158.102 16.0502L157.543 15.6001L157.139 16.2201L157.612 16.2601" stroke="#292562" stroke-width="2.75" stroke-linecap="round" stroke-linejoin="round"/>
<path d="M162.044 51.05L162 51.37L163.581 51.42L174.71 49.7L175.987 49.0699L179.512 48.29L180.151 47.9301L179.989 47.73L181.158 48.03L181.793 48.73L182.387 48.86L182.124 48.95L183.331 49.03L184.675 49.72L185.68 49.8101L185.494 50.13L185.952 50.21L185.715 51.2L186.082 51.67L185.984 52.26L186.694 52.74L186.174 53.08L186.549 53.27L186.926 54.29L186.451 54.63L186.822 55.1801L186.827 56.66L186.437 56.96L186.753 57.22L186.58 58.16L186.934 58.73L186.607 58.87L186.807 59.3199L186.483 60.11L186.859 60.5699L186.195 60.6L186.03 60.99L186.526 61.78L185.893 61.95L186.152 62.47L185.85 62.79L186.017 63.51L185.674 63.8101L185.958 64.09L184.94 64.0601L183.33 65.52L182.214 65.63L181.036 66.38L179.628 66.76L178.155 66.86L177.054 67.6899L175.814 67.29H171.331L170.331 67.13L168.734 66.1801L166.766 66.22L166.364 65.72L166.647 65.49L165.117 64.96L164.237 64.99L162.405 64.1L162.151 63.6L159.864 63.47L159.765 63.02L158.696 62.04L158.101 60.84L158.253 60.0601L157.777 59.05L158.546 57.63L158.243 57.03L158.886 56.5L158.634 55.99L159.115 55.4L159.224 53.89L159.747 52.88L161.748 50.47L163.888 49.59L164.305 49.2L164.085 49.03L166.117 48.27L168.041 48.4301L169.44 47.88L171.805 47.89L173.581 47.0601L175.457 47.42L178.384 47.03L178.153 47.17L178.399 47.25L180.35 47.33L180.555 47.9399L181.291 48.08L181.632 48.88L183.123 49.16L185.811 50.36L185.492 50.55L186.383 51.25L186.937 52.37L186.671 52.35L187.581 52.85L187.25 53.3101" stroke="#292562" stroke-width="2" stroke-linecap="round" stroke-linejoin="round"/>
<path d="M196.588 49.1802L196.784 49.2802L196.3 49.4801L196.757 49.3901L196.341 49.3601L196.235 49.8501L195.877 49.9001L196.188 49.9401L195.454 50.4001L195.467 50.9001L195.05 51.1201L195.259 51.4102L194.375 53.9001L194.807 54.2101L194.549 54.6301L195.245 56.5602L195.186 57.2701L195.654 57.9001L195.319 58.5302L195.697 59.0602L195.555 58.6901L196.039 58.9001L195.334 59.0101L195.978 59.2101L195.473 59.8201L195.997 60.5901L195.688 60.9501L196.164 61.1501L195.663 61.3701H195.936L195.973 61.9102L196.391 62.1301L195.874 62.1201L196.623 62.2301L196.272 62.3901L196.727 63.0502L197.147 63.4701L197.594 63.4601L197.223 63.6401L200.545 65.2101L200.546 65.7101L201.331 65.7601L201.337 66.2101L202.31 66.5402L202.058 66.9001L202.937 67.0302L202.638 67.1401L203.81 67.6401L205.053 67.2601L207.45 67.9601L210.213 67.3102L213.834 67.3201L215.446 67.1001L216.689 66.2201L219.568 66.4202L220.605 66.3201L221.455 65.7401L220.842 65.8801" stroke="#292562" stroke-width="2" stroke-linecap="round" stroke-linejoin="round"/>
<path d="M197.18 50.42L196.755 49.6899L197.783 49.61L198.846 48.9L201.116 48.09L202.068 47.33L204.389 46.8199L207.403 47.4L210.173 47.03L211.593 46.59L211.28 46.49L212.404 46.71L213.764 47.5601L217.749 48.14L218.19 48.52L219.615 48.85L219.836 49.33L220.873 49.5601L220.57 49.71L220.932 49.59L218.253 49.75L211.209 50.96L209.157 50.61L205.882 50.59L205.932 50.3L206.257 50.35L205.54 50.1801L205.587 49.89L205.01 49.5699L203.679 50.01L202.266 49.99L201.362 50.42L200.695 50.14L199.27 50.17L198.46 49.76L204.941 49.8101L207.542 50.14L213.293 49.52L219.137 51.03L220.245 52.1L221.89 52.92L223.899 52.89L224.814 55.36L224.413 55.75L224.619 56.4399L224.112 56.73L223.461 58.03L223.73 58.34L223.445 58.6801L224.354 58.85L224.032 58.73L224.288 59.4399L224.789 59.84L224.304 60.2L225.086 60.66L224.717 60.8L225.301 60.98L223.2 61.9301L223.695 61.61L223.338 57.34L223.013 56.53L222.321 55.92L222.56 55.3L222.15 54.17L221.412 53.8101L221.667 54.27L222.076 54.1899L221.038 54.4L222.25 56.8199L222.319 57.3101L221.8 57.53L222.27 57.92L222.936 60.8101L222.173 61.63L222.329 62.23L222.264 61.88L222.663 62.0699L222.097 62.0601L222.667 62.1L222.959 62.8101L222.672 63.11L223.278 63.35L222.131 64.77L220.513 65.5699L220.828 65.12L220.524 65.05L221.092 64.95L220.583 65.11" stroke="#292562" stroke-width="2" stroke-linecap="round" stroke-linejoin="round"/>
<path d="M178.761 51.3199L178.564 50.28L178.697 49.38L178.931 49.61L178.665 50.26L178.487 50.16L178.827 49.9399L177.588 49.5601L176.766 48.62L175.48 48.39L175.453 47.73L174.198 46.37L171.728 45.79L171.174 45.25L169.752 45.66L168.36 45.33L166.966 45.5699L163.536 45.33L159.519 45.79L157.465 46.39L157.485 46.6801L156.988 46.83L157.058 47.13L156.52 47.36L156.143 48.39L155.387 48.52L155.616 48.6L155.172 50.49L154.326 51.04L154.486 51.76L154.265 51.97L154.544 52.35L154.079 53" stroke="#292562" stroke-width="2" stroke-linecap="round" stroke-linejoin="round"/>
<path d="M152.109 56.51L152.064 58.76L152.71 60.3199" stroke="#292562" stroke-width="2" stroke-linecap="round" stroke-linejoin="round"/>
<path d="M154.638 48.5601L154.065 49.47L153.769 50.75L154.176 56.5601L153.812 57.42L153.849 59.0601L154.08 59.24L153.859 59.83L154.268 60.39L154.591 62.22L154.361 62.49L154.805 62.61L154.628 63.3L154.993 63.48L154.829 63.3101L154.633 63.63L155.527 64.21L155.463 63.92L155.59 64.42L156.771 65.05L156.734 65.41L157.34 65.35L157.523 65.95L158.227 66.26L160.925 66.14L162.468 66.4399L164.247 66.16L166.948 66.83L170.19 67.0699L171.017 66.85" stroke="#292562" stroke-width="2" stroke-linecap="round" stroke-linejoin="round"/>
<path d="M196.003 49L196.823 50.7L197.498 49.66L198.315 49.23L201.847 49.36L204.94 48.66L205.909 47.8101L209.223 46.97L211.3 47.48L213.319 47.1801L217.798 47.48L217.725 47.7L218.785 47.85L219.862 48.67L220.349 48.53L220.398 48.8101L221.03 48.76L222.342 49.35L222.213 49.1801L222.688 48.91L222.545 48.64L223.94 48.04L223.659 48.2L224.61 48.42L224.473 48.7L224.651 48.41L225.031 48.6899L225.012 48.4399L222.392 48.33L220.995 47.23L219.688 46.7L216.434 47.11L216.471 47.38L215.948 47.6L214.189 47.9399L220.629 47.5601L222.957 47.78L225.37 49.26L226.038 51.54L226.06 53.67L226.6 54.3101L226.3 55.09L226.65 55.52L226.237 55.8101L226.32 56.63L225.504 58.62L225.739 59.3199L225.435 59.53L225.109 61.37L224.975 63.17L225.549 64.22L225.534 65.75" stroke="#292562" stroke-width="2" stroke-linecap="round" stroke-linejoin="round"/>
<path d="M224.861 61.6499L224.629 62.1399L225.351 62.2599L224.25 62.7198L223.582 64.0499L221.914 65.2198L221.289 65.3099L221.714 65.1898L221.494 65.4698" stroke="#292562" stroke-width="2" stroke-linecap="round" stroke-linejoin="round"/>
<path d="M157.258 49.1799L157.814 48.1299L156.535 49.9099L156.178 51.1299L153.585 54.0099L153.516 54.7899L152.602 56.0199L154.848 53.2499L157.327 49.5499L157.071 49.4299L156.831 51.5698L155.13 52.8599L155.885 52.6299L155.598 52.1499L156.088 52.2499L156.24 52.8198L156.595 52.7198L155.986 52.9899L156.587 53.5599L156.194 54.2499" stroke="#292562" stroke-width="2" stroke-linecap="round" stroke-linejoin="round"/>
<path d="M186.279 58.5601L185.015 58.5699L184.858 58.34L185.315 57.9L185.336 57.0699L185.858 57.46L187.243 57.5601L188.849 57.5L190.019 56.98L191.643 57.55L192.85 57.26L192.81 57.01L192.279 57.4399L190.681 57.39L187.775 56.8L186.47 57.5601L185.76 58.8101H186.254L186.132 58.59L188.619 57.02L189.956 55.24L193.186 54.2L193.691 54.36L190.736 53.36L188.472 53.48L185.451 54.59L186.218 54.2L187.253 52.96L188.568 52.5L188.846 52.83L190.489 52.64L190.095 52.61L190.494 52.02L190.408 51.39L186.079 51.88L186.565 51.4L186.515 51.0601L187.039 50.84L186.089 50.9301L186.403 50.77L186.286 50.52L185.413 49.85L182.784 50.15L181.353 49.84L180.282 49.12L178.832 49.58L177.309 48.9L175.272 48.92L174.739 49.04L175.07 49.0601L174.691 49.37L173.516 49.34L171.56 48.45L169.983 48.8199L170.306 48.8101L170.031 49.8199" stroke="#292562" stroke-width="2" stroke-linecap="round" stroke-linejoin="round"/>
<path d="M182.4 51.2301L181.034 50.9001L180.586 50.0201L178.081 49.8901H178.517L178.363 50.0602L179.624 51.7802L181.545 53.5402L181.51 54.5302L181.96 54.7101L181.893 55.2201L182.796 56.6401L182.696 57.0402L183.29 57.4601L183.174 57.8501L183.573 58.4601L183.394 59.1201L183.756 59.1802L183.685 59.6702L183.388 59.5201L183.095 60.1201L183.488 60.2802L182.76 60.1901L183.369 60.1101L183.343 59.2902L183.765 58.8201L183.725 56.5502L182.109 52.6301L181.609 52.1901L181.539 51.4801L181.132 51.4701L181.587 51.6101L181.192 52.1901L184.498 54.5001L184.132 55.2902L184.377 55.5701L184.246 56.0801L184.502 56.1702L184.382 56.5201L183.941 56.5502L184.415 56.5001L184.515 56.0101L184.409 56.3901" stroke="#292562" stroke-width="2" stroke-linecap="round" stroke-linejoin="round"/>
<path d="M200.792 52.6602L199.662 52.6901L199.899 52.9601L197.923 53.9501L195.558 55.6501L194.768 57.5101L194.82 58.3901L195.294 59.0201L195.254 58.7101L195.716 58.4202L195.436 57.9801L197.98 56.0602L199.381 53.1901L199.159 53.0502L198.939 53.5502L197.139 54.8201L194.975 55.8801L194.675 55.6101L195.057 55.2701L195.031 54.6802L194.466 54.9102L195.292 54.3601L195.535 55.0801" stroke="#292562" stroke-width="2" stroke-linecap="round" stroke-linejoin="round"/>
<path d="M176.56 51.2L172.842 57.26L172.903 57.89L169.972 61.3101L170.37 62.45L170.059 62.3101L170.11 62.75L169.333 63.54L169.536 63.65L169.058 64.15L168.995 64.77L168.341 65.27L169.137 64.9301L168.525 65.13L169.038 65.4399" stroke="#292562" stroke-width="2" stroke-linecap="round" stroke-linejoin="round"/>
<path d="M177.552 48.4401L176.881 48.1001L177.372 48.1101L176.851 48.2001L177.105 48.2301L174.833 50.2401L174.297 51.8501L172.551 52.8401L171.518 54.7501L169.729 55.5701L168.812 56.7701L168.607 57.8701L167.787 59.0801L167.493 60.8201L166.426 61.6602L165.563 63.4102L164.545 64.0801L164.485 64.4202L165.097 64.6602L164.327 65.6101L165.742 64.5001" stroke="#292562" stroke-width="2" stroke-linecap="round" stroke-linejoin="round"/>
<path d="M176.792 52.6602L176.528 53.6301L175.829 54.2601L173.921 58.0801L172.843 60.8901L172.077 61.6401L172.637 61.5602L172.668 61.2201" stroke="#292562" stroke-width="2" stroke-linecap="round" stroke-linejoin="round"/>
<path d="M204.797 52.45L202.616 55.71L201.939 57.3199" stroke="#292562" stroke-width="2" stroke-linecap="round" stroke-linejoin="round"/>
<path d="M205.152 52.1802L201.293 57.2902L200.366 59.4102L198.472 61.6501" stroke="#292562" stroke-width="2" stroke-linecap="round" stroke-linejoin="round"/>
<path d="M207.358 57.3L204.572 61.0699L202.953 62.5699" stroke="#292562" stroke-width="2" stroke-linecap="round" stroke-linejoin="round"/>
<path d="M215.747 53.53L211.97 58.4399L210.393 62.66" stroke="#292562" stroke-width="2" stroke-linecap="round" stroke-linejoin="round"/>
<path d="M165.576 52.0101L165.913 51.1401L166.535 51.1901L165.537 53.1901L160.788 61.0502" stroke="#292562" stroke-width="2" stroke-linecap="round" stroke-linejoin="round"/>
<path d="M175.307 59.6099L171.659 63.7499L171.649 64.1099L172.016 64.2098" stroke="#292562" stroke-width="2" stroke-linecap="round" stroke-linejoin="round"/>
<path d="M212.211 59.77L212.393 60.78" stroke="#292562" stroke-width="2" stroke-linecap="round" stroke-linejoin="round"/>
<path d="M190.437 47.4399L189.801 48.15L189.463 47.76L189.938 47.87L189.005 48.12L188.68 48.58L189.045 48.6L188.34 49.23L187.154 49.47L187.803 49.59L187.473 50.52L187.962 51.5601L187.961 52.9399L188.671 54.0699L188.687 55.1L189.401 55.6801L189.288 56.59L190.695 60.21L190.778 61.13L190.498 61.52L190.753 61.76L190.634 62.47L191.009 62.76L190.6 63.3199L190.847 65.13L190.314 66.4399L190.596 67.17L190.371 68.66L190.767 69.63L190.426 69.8101L190.851 69.8199L190.612 70.05L190.879 70.8101L190.365 70.73L190.41 71.5601L190.7 71.55L190.763 71.88L190.51 72.03L190.673 72.1801L190.554 71.86L190.805 71.85L190.379 71.91L190.772 72.08L190.415 71.83L190.654 72.0699L190.563 71.8L190.98 71.88L190.433 71.97L190.753 71.67" stroke="#292562" stroke-width="2" stroke-linecap="round" stroke-linejoin="round"/>
<path d="M57.5588 196.02L57.1124 196.21L57.4164 196.22L56.6049 198.03L56.8523 199.12L56.4069 199.33L56.437 200.62L56.9118 201.66L56.2354 201.95L56.5829 202.04L57.3109 203.89L57.6081 203.95L57.6194 205.31L58.0642 205.79L57.9419 206.1L58.854 206.63L58.7999 207.31L61.0485 208.99L62.0446 208.84L62.0217 208.3L61.2957 208.58" stroke="#292562" stroke-width="2" stroke-linecap="round" stroke-linejoin="round"/>
<path d="M56.5809 197.89L56.3951 200.3L56.3271 199.51L57.7871 198.43L60.08 199.24L61.5563 200.29" stroke="#292562" stroke-width="2" stroke-linecap="round" stroke-linejoin="round"/>
<path d="M60.4707 195.3L61.3589 194.16L62.0158 192.45L64.7658 190.66L65.1948 189.89L65.7008 189.79L67.9308 190.29L70.0608 193.17L69.9638 193.69L70.5998 194.55" stroke="#292562" stroke-width="2" stroke-linecap="round" stroke-linejoin="round"/>
<path d="M71.8125 191.82L72.0465 190.17L74.8125 189.27L78.0685 191.4L78.8115 192.46L79.4455 194.7" stroke="#292562" stroke-width="2" stroke-linecap="round" stroke-linejoin="round"/>
<path d="M84.0527 191.27L85.4997 190.71L86.3207 190.73L86.6157 191.2L88.2147 195.78L87.9347 198.62" stroke="#292562" stroke-width="2" stroke-linecap="round" stroke-linejoin="round"/>
<path d="M228.671 43.21L228.507 40.76L228.066 43.5L227.941 56.5L228.423 59.05L229.771 62.4L231.815 65.37L232.35 68.28L232.773 68.65L233.038 69.9301L233.443 70.14L234.31 72.84L235.49 73.4301L235.509 73.86L236.768 73.97L237.8 74.85L237.347 75.15L237.298 80.38L238.622 82.48L239.108 82.65L239.313 83.5699L240.739 84.21L241.229 85.85L240.94 87.96L239.901 89.21L239.783 90L238.517 90.9L237.096 92.63L236.17 93.12L236.018 93.75L235.167 94.03L234.831 95.2L233.661 97.11L234.455 98.7L235.655 99.23L236.446 100.05L236.796 101.86L237.797 103.12L238.162 105.7L239.105 107.38L239.579 109.57L239.341 109.83L239.469 111.63L239.242 111.99L239.754 112.05L239.779 111.81L238.971 112.03L239.789 112.34L239.529 113.17L239.901 113.16L239.35 113.07L240.277 112.93L239.524 113.01L239.954 113.87L239.699 115.48L239.952 115.82L239.726 115.95L239.959 115.93L239.574 115.8L239.852 115.39L238.873 117.21L238.738 116.86L239.101 116.75L238.542 117.1L239.048 116.94L238.005 116.27L237.535 115.21L236.28 111.31L236.527 111.19L235.994 113.5L236.06 115.53L235.516 116.17L236.252 115.96L235.779 115.59L236.152 114.02L235.866 112.31L236.108 112.07L235.681 112.86L235.978 113.25L235.364 115.39L235.516 115.99L235.123 115.97L235.551 115.99L235.275 115.96L235.382 115.13L235.049 114.41L235.28 112.98L234.956 110.17L235.348 109.42L235.025 109.3L235.298 110.11L234.533 111.11L234.723 111.78L234.113 113.56L234.394 114.85L233.745 116.63L234.118 116.29L233.948 115.27L234.456 114.67L234.496 113.21L235.285 111.61L235.591 109.22L235.98 109.5L234.579 115.71L234.267 115.46L234.652 115.12L234.121 114.65L234.103 114.23L234.44 109.4L233.971 105.27L234.226 101.84L233.868 102.17L234.146 103.99L232.851 111.97L232.407 115.96L232.7 115.53L232.39 113.58L232.875 112.37L232.93 110.23L233.612 108.87L233.119 107.96L233.312 108.99L232.553 110.51L231.231 116.99L231.219 115.77L231.752 114.82L231.325 112.37L231.897 109.78L231.774 107.59L232.15 105.81L230.145 113.96L228.96 116.53L229.221 115.72L228.588 114.64L228.819 113.05L228.522 111.22L228.914 107.63L228.682 105.36L228.981 104.59L228.76 104.41L228.971 105.24L228.06 107.57L227.699 111.46L225.854 117.79L225.358 118.45L225.932 117.35L225.631 116.26L225.726 106.25L225.35 104.84L225.531 106.46L222.523 115.83L222.248 115.84L222.543 115.61L222.251 114.59L222.717 112.94L222.457 111.23L223.097 108.52L222.772 107.24L222.69 108.11L219.526 112.68L218.867 113.45L217.671 113.82L215.629 112.35L215.387 111.66L213.917 110.79L212.592 109.03L212.686 109.39L211.925 110.01L210.255 113.08L208.819 114.45L208.949 113.14L207.801 110.8H206.817L206.274 110.34L205.767 110.36L204.649 111.43L203.566 111.55L202.65 110.59L201.854 108.8L201.62 109.06L201.539 111.51L201.897 112.21L202.437 112L201.626 111.26L201.908 110.78L201.139 110.82L201.575 111.07L201.805 111.79L203.586 112.8L203.441 113.13L204.046 113.29L204.627 112.67L204.427 113.17L204.703 113.37L204.419 113.13L203.404 113.48L202.589 112.63L202.839 112.67L202.427 112.9L203.461 113.85L205.876 114.53L206.465 115.22L209.146 116.64L209.634 117.52L209.46 117.8L209.602 117.57L207.82 116.62L206.058 114.99L203.964 110.07L203.189 105.35L203.232 103.42L203.55 103.21L203.183 102.7L203.64 100.25L203.481 99.0601L203.132 99.11L202.883 98.64L203.171 98.12L202.597 96.51L202.656 95.02L202.147 94.25L201.844 92.62L202.356 92.0699L201.995 92.03L202.165 91.77L201.908 91.37L203.424 91.09L205.498 87.76L206.377 87.46L206.405 88.02L206.989 88.09L206.67 87.95L208.11 87.62L209.493 86.21L209.361 85.74L211.397 83.27L212.875 80.41L213.734 76.58L214.211 76.12L214.377 75.13L215.528 73.0601L215.518 72.03L215.99 71.85L216.822 69.9399L217.073 69.92L216.919 69.6L217.318 69.47L217.439 68.99L217.08 69.08H217.775L217.225 69.05L218.019 68.58L218.279 68.0699L217.972 67.95L216.038 77.54L213.984 81.8101L214.243 81.21L214.067 80.39L214.826 80.15L215.29 79.54L219.035 70.86L220.281 65.17L221.077 64.34L217.239 74.26L214.031 80.91L214.442 80.99L214.319 80.45L215.02 80.1899L215.798 79.23L218.703 72.4L219.362 69.65L220.827 67.89L220.426 68.63L217.383 81.6899L215.516 87.28L214.587 91.75L217.24 86.04L218.285 82.47L221.922 73.92L224.217 65.72L224.592 65.51L223.237 70L223.013 71.92L218.519 86.45L218.808 87.4L218.737 86.09L220.318 82.84L221.053 79.96L224.122 72.08L225.43 70.25L224.529 72.77L222.484 81.95L220.888 86.14L219.515 91.78L219.571 93.01L219.849 91.53L221.189 89.72L222.334 86.67L224.314 79.4301L229.845 66.99L229.789 68.8L228.809 72.92L228.135 78.63L225.807 84.51L224.475 89.78L224.887 89.9399L224.318 89.96L225.289 88.8199L226.116 85.73L227.487 83.52L227.405 83.25L227.129 83.98L225.483 92.3199L224.147 95.99L224.371 96.13L225.513 94.11L229.302 85.1L231.695 80.46L230.084 87.7L228.311 92.38L228.305 93.29L228.423 92.29L234.382 81.73L232.508 88.9399L228.935 98.95L228.96 99.39L229.24 99.41L229.557 98.09L232.284 92.67L233.057 89.54L234.933 85.8101L233.79 88.37L232.868 92.91L231.017 96.54L229.437 102.9L229.875 102.45L233.871 93.76L235.516 91.03L234.073 94.4L233.685 97.85L232.077 101.97L231.682 103.32L231.792 103.55L231.936 103.27L231.536 102.53L232.284 102.57L231.612 102.89L231.733 103.08L231.918 102.59" stroke="#292562" stroke-width="2" stroke-linecap="round" stroke-linejoin="round"/>
<path d="M160.572 10.5801L159.726 11.3102L158.06 16.2201L155.865 19.1001L156.024 19.8401L154.421 22.3601L153.963 26.6901L152.841 29.4401L151.901 34.8901L149.742 39.6401L149.856 42.3002L149.595 43.2902L149.932 45.0402L149.873 46.6101L149.511 46.9801L149.89 48.0001L149.586 48.5602L149.652 50.2701L151.501 56.1702L151.681 58.6401L152.292 60.1001L152.061 63.3801L152.622 64.4801L153.166 67.5901L152.726 69.3401L153.048 69.7001L153.492 71.9701L154.479 73.8601L154.188 74.1401L154.506 74.5901L153.994 74.8401L152.914 77.1802L152.61 79.8102L153.044 82.5001L152.843 85.0402L153.09 86.8201L153.436 87.1901L152.781 87.7301L153.123 87.7501L152.047 90.0201L151.997 91.8201L150.458 94.5402L150.446 95.0701L149.888 95.6602L150.201 96.4601L149.122 95.9801L147.296 96.8501L146.534 96.9601L145.938 96.6901L145.667 96.8301L145.975 96.9202L145.49 97.0402L146.652 97.8801" stroke="#292562" stroke-width="2" stroke-linecap="round" stroke-linejoin="round"/>
<path d="M160.861 16.6602L160.867 16.2201L160.262 16.3901L160.1 16.1602L157.61 17.5201L155.892 17.7301L153.53 19.8901L152.462 22.2601L152.602 23.4701L152.13 24.6301L152.216 25.6001L151.468 26.8102L150.535 29.6301L150.944 30.0402L150.177 30.6201L150.399 30.6802L149.856 32.9202L148.853 34.4701L147.786 38.0801L148.086 38.6201L147.799 39.1201L147.777 40.5101L146.88 41.8801L147.201 42.9102L146.256 45.6401L146.395 48.3401L146.142 48.9102L146.274 49.9102L146.979 51.2601L146.411 52.4001L146.743 53.1201L146.586 56.8002L145.938 58.3301L146.409 62.3601L146.026 63.4601L146.494 64.0901L146.377 65.4701L146.914 67.2902L150.62 72.8102L151.402 74.4901L152.575 78.6001L151.522 81.4501L149.309 83.0101L148.302 84.3501L147.338 84.8201L146.054 86.7201L145.059 87.5001L144.046 89.2201L143.349 89.4501L143.31 89.9102L142.599 90.1401L142.176 90.6702L142.309 90.9901L141.624 91.6802L141.948 91.9701L140.873 93.9302L141.043 94.4102L140.207 94.9501L140.659 94.9302L140.267 95.3601L140.738 96.4202L139.99 96.9001L140.43 97.5302L140.17 98.5101L140.591 98.8102L140.513 99.0801L139.584 99.6001L139.871 101.76L139.753 104.39L140.103 104.81L139.897 105.18L140.458 106.55L140.402 107.45L141.183 109.12L140.877 109.98L141.252 110.86L140.876 111L140.811 110.74L141.106 110.77L140.721 110.76L141.266 110.86L140.54 111.09L140.857 111.46L140.538 111.77L139.461 111.85L139.929 111.92L139.295 112.58L139.806 112.39L139.838 112.14L139.501 112.22L139.785 111.74L139.447 111.68L139.868 111.38L139.756 110.82" stroke="#292562" stroke-width="2" stroke-linecap="round" stroke-linejoin="round"/>
<path d="M142.018 95.4L141.749 95.42L143.037 92.75L143.377 91.3101L144.973 88.0699L146.449 86.45L147.939 83.89L147.985 83.12L148.768 81.83L148.52 81.75L149.854 79.78L150.529 77.3L150.815 75.11L150.32 73.0699L150.564 72.9399L149.89 72.4L150.156 71.9301L149.573 69.67L149.74 68.79L148.824 67.51L149.065 67.3199L148.543 66.49L148.726 65.73H148.465L148.092 66.75L146.883 67.71L147.341 67.9301L146.633 68.89L146.29 71.37L146.807 74.95L146.753 82.02L146.166 83.51L146.274 83.92L145.66 84.99L145.793 85.49L145.097 85.78L145.841 84.55L146.846 81.09L147.84 79.5699L147.56 79L147.964 78.3101L147.803 77.48L148.332 76.3101L148.945 73.1L148.613 70.83L148.78 68.65L147.831 63.6L147.733 61.4301L146.99 60.52L146.395 60.66L146.491 63.48L146.155 64.12L146.952 66.87L147.147 69.66L148.938 75.3101L149.257 80.05L149.086 81.38L148.09 83.1L148.233 85.1899L147.905 87.12L147.085 88.67L145.754 89.1801L143.178 91.24L141.934 91.51L140.405 92.37L140.614 92.46L140.19 93.49L139.542 93.9399L139.846 94.04L138.647 94.72L138.704 98.99L138.253 101.76L138.684 103.56L138.052 105.38L138.496 107.16L139.386 108.22L139.348 109.57L139.791 110.4L141.048 110.9L143.341 110.96L143.703 110.6L146.264 111.25L147.053 111L148.513 111.32L151.514 113.62L152.283 113.64L152.221 113.88L150.338 112.5L149.529 112.43L149.517 112.16" stroke="#292562" stroke-width="2" stroke-linecap="round" stroke-linejoin="round"/>
<path d="M142.34 104.33L141.896 100.31L142.32 99.0101L144.302 96.0402L144.44 95.0101L144.93 95.1401L144.709 97.3002L143.963 101.78L143.098 103.3L143.493 103.65L143.22 103.38L143.382 102.48L145.01 96.5001L145.757 95.1001L146.087 93.4401L147.268 92.1602L146.3 93.8901L144.269 103.63L143.796 104.69L143.663 107.09L145.387 104.27L148.019 97.2902L148.336 95.5101L150.155 92.4001L150.346 91.9901L149.915 92.2601L149.51 93.9901L147.842 97.5801L147.48 100L146.222 103.78L145.889 104.44L145.668 104.62L145.706 104.24L147.171 101.82L148.87 96.9601L150.038 95.3401L151.378 91.1802L151.419 90.1401L152.734 88.0901L148.128 100.65L147.486 102.62L147.495 103.1L147.882 102.81L154.294 86.8701L155.17 82.1401L154.827 82.5502L154.779 84.2101L152.177 91.1401L147.301 102.83L147.785 101.32L149.745 98.0801L150.512 95.7601L153.716 89.3601L154.665 85.6101L154.552 84.3102L154.113 84.4701L152.095 89.7201L146.55 101.52L146.913 100.88L146.891 100.03L149.024 96.7501L149.308 95.4401L152.488 88.5901L153.039 86.2401L152.932 85.2701L149.905 89.3201L144.748 99.6101L144.613 98.8601L146.86 95.9102L150.588 88.9501L151.102 88.5901L150.381 89.2501L147.451 95.1401L145.955 97.7101L146.047 97.1702L147.559 95.4901L148.733 92.3401L153.457 82.8801L153.791 82.8701L153.185 83.5502L152.89 85.8201L148.166 100.43L147.95 102.48L155.37 90.0201L156.147 87.9302L158.039 85.8401L157.779 85.6401L157.943 85.8501L157.19 87.2201L156.71 89.4001L152.62 99.6901L151.909 102.23L154.786 98.2701L156.448 94.5502L159.064 91.3002L160.449 88.3601L161.813 86.7101L161.831 85.8601L162.133 86.2001L155.005 101.55L153.493 106.02L154.055 105.01L155.802 103.24L160.16 94.0701L164.872 85.4501L163.99 87.9701L154.934 106.22L155.64 105.61L155.57 104.76L157.81 101.88L159.549 98.0801L161.09 95.7201L155.801 109.14L156.205 109.32L158.148 107.37L166.025 91.9901L163.644 96.6702L158.147 111.96L158.364 111.2L160.902 108.59L162.448 104.91L167.531 95.8301L169.581 90.9501L170.854 89.0001L164.978 101.04L162.277 107.64L161.205 111.63L161.307 111.84L161.711 111.45L164.436 105.31L168.501 97.8102L168.469 97.2301L169.747 96.0302L169.566 95.7001L169.225 95.7701L166.372 103.26L162.544 111.31L164.88 106.49L164.382 107.51L164.547 107.94L164.155 107.62L164.472 107.56L164.045 107.82L162.624 110.71L162.93 109.71L162.9 107.97L162.224 107.27L162.55 106.41L162.599 104.31L163.136 102.89L164.869 100.26L165.416 100.71L165.414 101.67L166.755 103.32L166.744 103.71L167.28 103.83L169.557 97.8102L170.472 94.3002L170.335 90.8002L169.877 90.5602L169.272 88.2401L169.855 86.9202L169.466 86.2802L169.679 87.5502L170.759 88.4801L171.348 89.6901L171.622 89.6802L171.204 89.3301L171.889 87.9202L172.099 85.6901L171.68 84.4401L170.833 83.3102L168.88 83.4202L169.279 83.6501L169.541 86.7101L170.505 87.9001L171.051 88.0001L171.397 87.0901L171.17 85.3501L171.509 83.7201L171.38 82.8501L170.864 82.2301L169.936 82.3301L170.069 82.6602L169.504 83.2401L169.475 83.6802L169.828 83.9801L169.663 84.3102L170.895 84.9202L172.095 87.9102L172.182 87.5201L171.961 87.5402L171.418 85.9501L171.763 86.7701L172.873 87.5901L173.975 89.7301L174.628 91.8501L174.19 95.0402L174.529 95.0302L173.854 95.5602L174.194 96.2701L174.018 97.1501L173.281 98.6501L172.685 100.96L172.522 103.1L172.78 103.45L172.21 106.54L171.296 108.53L171.604 108.94L170.301 109.43L169.273 110.58L168.043 111.36L165.616 111.78L161.953 115.03L160.768 114.35L159.308 114.5L157.919 115.1L155.175 114.07L154.955 114.41L155.145 114.28L156.032 115.24L156.754 115.51L160.525 115.85L161.1 115.31L160.473 115.05L159.611 113.75L156.816 113.33L155.424 113.7L155.211 113.84L155.416 114L155.199 113.73L156.8 114L160.818 113.12L160.968 113.42L159.358 115.29L158.006 114.73L157.347 115L157.698 114.71L158.035 113.03L160.082 110.67L160.108 109.81L160.024 110.29L158.24 111.49L156.579 113.76L156.082 115.19L156.355 114.77L155.911 114.95L156.416 114.87L160.743 110.59" stroke="#292562" stroke-width="2" stroke-linecap="round" stroke-linejoin="round"/>
<path d="M85.3242 188.72L88.4132 188.79L88.7212 189.34L90.5902 189.44L91.7812 188.82L92.5932 188.98L93.6222 188.53L93.2362 188.59L93.9082 188.89" stroke="#292562" stroke-width="2" stroke-linecap="round" stroke-linejoin="round"/>
</svg>
