<svg width="550" height="225" viewBox="0 0 550 225" fill="none" xmlns="http://www.w3.org/2000/svg">
<path d="M24.0224 59.2045C23.1062 59.2045 22.3136 58.9915 21.6445 58.5653C20.9755 58.1349 20.4577 57.5405 20.0913 56.782C19.729 56.0192 19.5479 55.1413 19.5479 54.1484C19.5479 53.1598 19.729 52.282 20.0913 51.5149C20.4577 50.7436 20.9627 50.1406 21.6062 49.706C22.2539 49.267 23.0018 49.0476 23.8498 49.0476C24.3825 49.0476 24.896 49.1456 25.3903 49.3416C25.8846 49.5334 26.3278 49.8295 26.7198 50.2301C27.1161 50.6264 27.4293 51.1271 27.6594 51.7322C27.8896 52.3331 28.0046 53.0447 28.0046 53.8672V54.4297H20.3342V53.4261H26.8413C26.8413 52.7955 26.7134 52.2287 26.4577 51.7259C26.2063 51.2187 25.8548 50.8182 25.4031 50.5241C24.9556 50.2301 24.4379 50.0831 23.8498 50.0831C23.2276 50.0831 22.68 50.2493 22.207 50.5817C21.734 50.9141 21.3633 51.353 21.0948 51.8984C20.8306 52.4439 20.6964 53.0405 20.6921 53.6882V54.2891C20.6921 55.0689 20.8263 55.7507 21.0948 56.3345C21.3675 56.9141 21.7532 57.3636 22.2518 57.6832C22.7504 58.0028 23.3406 58.1626 24.0224 58.1626C24.4869 58.1626 24.8938 58.0902 25.2433 57.9453C25.5969 57.8004 25.8931 57.6065 26.1317 57.3636C26.3746 57.1165 26.5579 56.8459 26.6815 56.5518L27.7617 56.9034C27.6126 57.3168 27.3675 57.6982 27.0266 58.0476C26.69 58.397 26.2681 58.6783 25.761 58.8913C25.2582 59.1001 24.6786 59.2045 24.0224 59.2045ZM30.5119 59V49.1818H31.6177V50.6903H31.72C31.916 50.1832 32.242 49.7848 32.698 49.495C33.1582 49.201 33.71 49.054 34.3535 49.054C35.0311 49.054 35.5872 49.2138 36.0218 49.5334C36.4608 49.8487 36.7889 50.2834 37.0062 50.8374H37.0893C37.3109 50.2919 37.671 49.8594 38.1696 49.5398C38.6724 49.2159 39.2818 49.054 39.9977 49.054C40.9096 49.054 41.6298 49.3416 42.1582 49.9169C42.6866 50.4879 42.9508 51.3232 42.9508 52.4226V59H41.813V52.4226C41.813 51.647 41.6149 51.0653 41.2186 50.6776C40.8223 50.2898 40.3002 50.0959 39.6525 50.0959C38.9025 50.0959 38.3251 50.326 37.9203 50.7862C37.5154 51.2464 37.313 51.8303 37.313 52.5376V59H36.1497V52.3203C36.1497 51.6555 35.9643 51.1186 35.5936 50.7095C35.2228 50.3004 34.7008 50.0959 34.0275 50.0959C33.5758 50.0959 33.1689 50.2067 32.8066 50.4283C32.4487 50.6499 32.1653 50.9588 31.9565 51.3551C31.752 51.7472 31.6497 52.1989 31.6497 52.7102V59H30.5119ZM45.9631 62.6818V49.1818H47.0689V51.0547H47.2031C47.3395 50.7607 47.527 50.4602 47.7656 50.1534C48.0043 49.8423 48.3196 49.5803 48.7116 49.3672C49.108 49.1541 49.6065 49.0476 50.2074 49.0476C51.017 49.0476 51.7244 49.2607 52.3295 49.6868C52.9389 50.1087 53.4119 50.701 53.7486 51.4638C54.0895 52.2223 54.2599 53.1065 54.2599 54.1165C54.2599 55.1307 54.0895 56.0192 53.7486 56.782C53.4119 57.5447 52.9389 58.1392 52.3295 58.5653C51.7244 58.9915 51.0213 59.2045 50.2202 59.2045C49.6278 59.2045 49.1314 59.098 48.7308 58.8849C48.3345 58.6719 48.0128 58.4098 47.7656 58.0987C47.5227 57.7834 47.3352 57.4766 47.2031 57.1783H47.1009V62.6818H45.9631ZM47.0881 54.0973C47.0881 54.8899 47.2053 55.593 47.4396 56.2067C47.6783 56.8161 48.0192 57.2955 48.4624 57.6449C48.9098 57.9901 49.451 58.1626 50.0859 58.1626C50.7379 58.1626 51.2876 57.9837 51.7351 57.6257C52.1868 57.2635 52.5298 56.7756 52.7642 56.1619C53.0028 55.5483 53.1222 54.8601 53.1222 54.0973C53.1222 53.343 53.005 52.6634 52.7706 52.0582C52.5405 51.4531 52.1996 50.9737 51.7479 50.62C51.2962 50.2621 50.7422 50.0831 50.0859 50.0831C49.4467 50.0831 48.9034 50.2557 48.456 50.6009C48.0085 50.9418 47.6676 51.4148 47.4332 52.0199C47.2031 52.6207 47.0881 53.3132 47.0881 54.0973ZM59.4982 59.2237C58.9059 59.2237 58.3647 59.1087 57.8746 58.8786C57.3846 58.6442 56.9947 58.3075 56.7049 57.8686C56.4151 57.4254 56.2702 56.8885 56.2702 56.2578C56.2702 55.772 56.3619 55.3629 56.5451 55.0305C56.7283 54.6982 56.9883 54.4254 57.3249 54.2124C57.6616 53.9993 58.06 53.831 58.5202 53.7074C58.9805 53.5838 59.4876 53.4879 60.0415 53.4197C60.5913 53.3516 61.0558 53.2919 61.435 53.2408C61.8185 53.1896 62.1104 53.1087 62.3107 52.9979C62.511 52.8871 62.6112 52.7081 62.6112 52.4609V52.2308C62.6112 51.5618 62.4109 51.0355 62.0103 50.652C61.614 50.2642 61.043 50.0703 60.2972 50.0703C59.5898 50.0703 59.0124 50.2259 58.565 50.5369C58.1218 50.848 57.8107 51.2145 57.6317 51.6364L56.5515 51.2464C56.7731 50.7095 57.0799 50.2812 57.4719 49.9616C57.864 49.6378 58.3029 49.4055 58.7887 49.2649C59.2745 49.12 59.7667 49.0476 60.2653 49.0476C60.6403 49.0476 61.0302 49.0966 61.435 49.1946C61.8441 49.2926 62.2234 49.4631 62.5728 49.706C62.9222 49.9446 63.2056 50.2791 63.4229 50.7095C63.6403 51.1357 63.7489 51.6768 63.7489 52.3331V59H62.6112V57.4467H62.5408C62.4045 57.7365 62.2021 58.0178 61.9336 58.2905C61.6651 58.5632 61.3285 58.7869 60.9237 58.9616C60.5188 59.1364 60.0437 59.2237 59.4982 59.2237ZM59.6516 58.1818C60.2567 58.1818 60.7809 58.0476 61.2241 57.7791C61.6673 57.5107 62.0082 57.1548 62.2468 56.7116C62.4897 56.2642 62.6112 55.772 62.6112 55.2351V53.8161C62.5259 53.897 62.3832 53.9695 62.1829 54.0334C61.9869 54.0973 61.7589 54.1548 61.4989 54.206C61.2433 54.2528 60.9876 54.2933 60.7319 54.3274C60.4762 54.3615 60.2461 54.3913 60.0415 54.4169C59.4876 54.4851 59.0146 54.5916 58.6225 54.7365C58.2305 54.8814 57.93 55.0817 57.7212 55.3374C57.5124 55.5888 57.408 55.9126 57.408 56.3089C57.408 56.9055 57.6211 57.3679 58.0472 57.696C58.4734 58.0199 59.0082 58.1818 59.6516 58.1818ZM70.6428 49.1818V50.1726H65.9574V49.1818H70.6428ZM67.4212 46.8295H68.5653V56.4368C68.5653 56.8459 68.6357 57.1676 68.7763 57.402C68.9169 57.6321 69.1001 57.7962 69.326 57.8942C69.5518 57.9879 69.7926 58.0348 70.0483 58.0348C70.1974 58.0348 70.3253 58.0263 70.4318 58.0092C70.5384 57.9879 70.6321 57.9666 70.7131 57.9453L70.956 58.9744C70.8452 59.017 70.7088 59.0554 70.5469 59.0895C70.3849 59.1278 70.1847 59.147 69.946 59.147C69.5284 59.147 69.1257 59.0554 68.7379 58.8722C68.3544 58.6889 68.0391 58.4162 67.7919 58.054C67.5447 57.6918 67.4212 57.2422 67.4212 56.7053V46.8295ZM74.5755 52.8636V59H73.4377V45.9091H74.5755V50.7223H74.6777C74.9078 50.2152 75.2637 49.8104 75.7452 49.5078C76.231 49.2053 76.8446 49.054 77.5861 49.054C78.2509 49.054 78.8347 49.1903 79.3375 49.4631C79.8404 49.7358 80.2324 50.1385 80.5137 50.6712C80.7949 51.2038 80.9355 51.8601 80.9355 52.6399V59H79.7914V52.7102C79.7914 51.9006 79.5655 51.2635 79.1138 50.799C78.6664 50.3303 78.0613 50.0959 77.2985 50.0959C76.7743 50.0959 76.3077 50.2067 75.8986 50.4283C75.4895 50.6499 75.1657 50.9695 74.927 51.3871C74.6926 51.8004 74.5755 52.2926 74.5755 52.8636ZM83.9446 59V49.1818H85.0888V59H83.9446ZM84.5263 47.4943C84.2919 47.4943 84.0916 47.4155 83.9254 47.2578C83.7592 47.0959 83.6761 46.902 83.6761 46.6761C83.6761 46.4503 83.7592 46.2585 83.9254 46.1009C84.0916 45.9389 84.2919 45.858 84.5263 45.858C84.7607 45.858 84.9609 45.9389 85.1271 46.1009C85.2933 46.2585 85.3764 46.4503 85.3764 46.6761C85.3764 46.902 85.2933 47.0959 85.1271 47.2578C84.9609 47.4155 84.7607 47.4943 84.5263 47.4943ZM87.791 59V58.0987L93.4672 50.3388V50.2557H88.0339V49.1818H94.9309V50.1214L89.3571 57.843V57.9261H95.1355V59H87.791ZM101.331 59.2045C100.415 59.2045 99.6222 58.9915 98.9531 58.5653C98.2841 58.1349 97.7663 57.5405 97.3999 56.782C97.0376 56.0192 96.8565 55.1413 96.8565 54.1484C96.8565 53.1598 97.0376 52.282 97.3999 51.5149C97.7663 50.7436 98.2713 50.1406 98.9148 49.706C99.5625 49.267 100.31 49.0476 101.158 49.0476C101.691 49.0476 102.205 49.1456 102.699 49.3416C103.193 49.5334 103.636 49.8295 104.028 50.2301C104.425 50.6264 104.738 51.1271 104.968 51.7322C105.198 52.3331 105.313 53.0447 105.313 53.8672V54.4297H97.6428V53.4261H104.15C104.15 52.7955 104.022 52.2287 103.766 51.7259C103.515 51.2187 103.163 50.8182 102.712 50.5241C102.264 50.2301 101.746 50.0831 101.158 50.0831C100.536 50.0831 99.9886 50.2493 99.5156 50.5817C99.0426 50.9141 98.6719 51.353 98.4034 51.8984C98.1392 52.4439 98.005 53.0405 98.0007 53.6882V54.2891C98.0007 55.0689 98.1349 55.7507 98.4034 56.3345C98.6761 56.9141 99.0618 57.3636 99.5604 57.6832C100.059 58.0028 100.649 58.1626 101.331 58.1626C101.795 58.1626 102.202 58.0902 102.552 57.9453C102.906 57.8004 103.202 57.6065 103.44 57.3636C103.683 57.1165 103.866 56.8459 103.99 56.5518L105.07 56.9034C104.921 57.3168 104.676 57.6982 104.335 58.0476C103.999 58.397 103.577 58.6783 103.07 58.8913C102.567 59.1001 101.987 59.2045 101.331 59.2045Z" fill="#555555"/>
<path d="M150.037 117.205C149.232 117.205 148.526 116.991 147.921 116.565C147.316 116.139 146.843 115.545 146.502 114.782C146.165 114.019 145.997 113.131 145.997 112.116C145.997 111.107 146.165 110.222 146.502 109.464C146.843 108.701 147.318 108.109 147.928 107.687C148.537 107.261 149.246 107.048 150.056 107.048C150.653 107.048 151.149 107.154 151.545 107.367C151.942 107.576 152.259 107.836 152.498 108.147C152.737 108.458 152.922 108.761 153.054 109.055H153.156V103.909H154.3V117H153.188V115.178H153.054C152.922 115.477 152.734 115.783 152.491 116.099C152.249 116.41 151.927 116.672 151.526 116.885C151.13 117.098 150.634 117.205 150.037 117.205ZM150.171 116.163C150.806 116.163 151.347 115.99 151.795 115.645C152.242 115.295 152.583 114.816 152.817 114.207C153.056 113.593 153.175 112.89 153.175 112.097C153.175 111.313 153.058 110.621 152.824 110.02C152.589 109.415 152.249 108.942 151.801 108.601C151.354 108.256 150.81 108.083 150.171 108.083C149.515 108.083 148.961 108.262 148.509 108.62C148.062 108.974 147.721 109.453 147.487 110.058C147.256 110.663 147.141 111.343 147.141 112.097C147.141 112.86 147.259 113.548 147.493 114.162C147.727 114.776 148.068 115.263 148.516 115.626C148.967 115.984 149.519 116.163 150.171 116.163ZM161.511 117.205C160.594 117.205 159.802 116.991 159.133 116.565C158.464 116.135 157.946 115.54 157.58 114.782C157.217 114.019 157.036 113.141 157.036 112.148C157.036 111.16 157.217 110.282 157.58 109.515C157.946 108.744 158.451 108.141 159.094 107.706C159.742 107.267 160.49 107.048 161.338 107.048C161.871 107.048 162.384 107.146 162.879 107.342C163.373 107.533 163.816 107.83 164.208 108.23C164.604 108.626 164.918 109.127 165.148 109.732C165.378 110.333 165.493 111.045 165.493 111.867V112.43H157.822V111.426H164.33C164.33 110.795 164.202 110.229 163.946 109.726C163.695 109.219 163.343 108.818 162.891 108.524C162.444 108.23 161.926 108.083 161.338 108.083C160.716 108.083 160.168 108.249 159.695 108.582C159.222 108.914 158.852 109.353 158.583 109.898C158.319 110.444 158.185 111.04 158.18 111.688V112.289C158.18 113.069 158.315 113.751 158.583 114.335C158.856 114.914 159.241 115.364 159.74 115.683C160.239 116.003 160.829 116.163 161.511 116.163C161.975 116.163 162.382 116.09 162.732 115.945C163.085 115.8 163.381 115.607 163.62 115.364C163.863 115.116 164.046 114.846 164.17 114.552L165.25 114.903C165.101 115.317 164.856 115.698 164.515 116.048C164.178 116.397 163.756 116.678 163.249 116.891C162.746 117.1 162.167 117.205 161.511 117.205ZM172.04 107.182V108.173H167.214V107.182H172.04ZM168.722 117V105.744C168.722 105.215 168.844 104.77 169.087 104.408C169.334 104.045 169.656 103.771 170.052 103.583C170.448 103.396 170.868 103.302 171.311 103.302C171.61 103.302 171.857 103.327 172.053 103.379C172.253 103.425 172.411 103.472 172.526 103.519L172.193 104.516C172.108 104.491 172.004 104.461 171.88 104.427C171.757 104.393 171.601 104.376 171.414 104.376C170.919 104.376 170.538 104.514 170.269 104.791C170.001 105.068 169.867 105.464 169.867 105.98L169.86 117H168.722ZM174.324 117V107.182H175.468V117H174.324ZM174.905 105.494C174.671 105.494 174.471 105.415 174.304 105.258C174.138 105.096 174.055 104.902 174.055 104.676C174.055 104.45 174.138 104.259 174.304 104.101C174.471 103.939 174.671 103.858 174.905 103.858C175.14 103.858 175.34 103.939 175.506 104.101C175.672 104.259 175.755 104.45 175.755 104.676C175.755 104.902 175.672 105.096 175.506 105.258C175.34 105.415 175.14 105.494 174.905 105.494ZM179.615 110.864V117H178.477V107.182H179.583V108.722H179.685C179.915 108.219 180.273 107.817 180.759 107.514C181.249 107.207 181.854 107.054 182.574 107.054C183.235 107.054 183.814 107.192 184.313 107.469C184.816 107.742 185.205 108.145 185.482 108.678C185.764 109.21 185.904 109.864 185.904 110.64V117H184.767V110.71C184.767 109.905 184.541 109.268 184.089 108.799C183.642 108.33 183.041 108.096 182.286 108.096C181.771 108.096 181.313 108.207 180.912 108.428C180.512 108.65 180.194 108.969 179.96 109.387C179.73 109.8 179.615 110.293 179.615 110.864ZM192.87 117.205C191.954 117.205 191.161 116.991 190.492 116.565C189.823 116.135 189.305 115.54 188.939 114.782C188.577 114.019 188.396 113.141 188.396 112.148C188.396 111.16 188.577 110.282 188.939 109.515C189.305 108.744 189.81 108.141 190.454 107.706C191.102 107.267 191.849 107.048 192.697 107.048C193.23 107.048 193.744 107.146 194.238 107.342C194.732 107.533 195.175 107.83 195.567 108.23C195.964 108.626 196.277 109.127 196.507 109.732C196.737 110.333 196.852 111.045 196.852 111.867V112.43H189.182V111.426H195.689C195.689 110.795 195.561 110.229 195.305 109.726C195.054 109.219 194.702 108.818 194.251 108.524C193.803 108.23 193.286 108.083 192.697 108.083C192.075 108.083 191.528 108.249 191.055 108.582C190.582 108.914 190.211 109.353 189.942 109.898C189.678 110.444 189.544 111.04 189.54 111.688V112.289C189.54 113.069 189.674 113.751 189.942 114.335C190.215 114.914 190.601 115.364 191.099 115.683C191.598 116.003 192.188 116.163 192.87 116.163C193.335 116.163 193.741 116.09 194.091 115.945C194.445 115.8 194.741 115.607 194.979 115.364C195.222 115.116 195.406 114.846 195.529 114.552L196.609 114.903C196.46 115.317 196.215 115.698 195.874 116.048C195.538 116.397 195.116 116.678 194.609 116.891C194.106 117.1 193.526 117.205 192.87 117.205Z" fill="#555555"/>
<path d="M248.515 58V48.1818H249.659V58H248.515ZM249.097 46.4943C248.862 46.4943 248.662 46.4155 248.496 46.2578C248.33 46.0959 248.246 45.902 248.246 45.6761C248.246 45.4503 248.33 45.2585 248.496 45.1009C248.662 44.9389 248.862 44.858 249.097 44.858C249.331 44.858 249.531 44.9389 249.697 45.1009C249.864 45.2585 249.947 45.4503 249.947 45.6761C249.947 45.902 249.864 46.0959 249.697 46.2578C249.531 46.4155 249.331 46.4943 249.097 46.4943ZM256.203 58.2045C255.398 58.2045 254.692 57.9915 254.087 57.5653C253.482 57.1392 253.009 56.5447 252.668 55.782C252.331 55.0192 252.163 54.1307 252.163 53.1165C252.163 52.1065 252.331 51.2223 252.668 50.4638C253.009 49.701 253.484 49.1087 254.094 48.6868C254.703 48.2607 255.412 48.0476 256.222 48.0476C256.819 48.0476 257.315 48.1541 257.711 48.3672C258.108 48.576 258.425 48.8359 258.664 49.147C258.903 49.4581 259.088 49.7607 259.22 50.0547H259.322V44.9091H260.466V58H259.354V56.1783H259.22C259.088 56.4766 258.9 56.7834 258.657 57.0987C258.415 57.4098 258.093 57.6719 257.692 57.8849C257.296 58.098 256.8 58.2045 256.203 58.2045ZM256.337 57.1626C256.972 57.1626 257.513 56.9901 257.961 56.6449C258.408 56.2955 258.749 55.8161 258.983 55.2067C259.222 54.593 259.341 53.8899 259.341 53.0973C259.341 52.3132 259.224 51.6207 258.99 51.0199C258.756 50.4148 258.415 49.9418 257.967 49.6009C257.52 49.2557 256.976 49.0831 256.337 49.0831C255.681 49.0831 255.127 49.2621 254.675 49.62C254.228 49.9737 253.887 50.4531 253.653 51.0582C253.422 51.6634 253.307 52.343 253.307 53.0973C253.307 53.8601 253.425 54.5483 253.659 55.1619C253.893 55.7756 254.234 56.2635 254.682 56.6257C255.133 56.9837 255.685 57.1626 256.337 57.1626ZM267.677 58.2045C266.76 58.2045 265.968 57.9915 265.299 57.5653C264.63 57.1349 264.112 56.5405 263.746 55.782C263.383 55.0192 263.202 54.1413 263.202 53.1484C263.202 52.1598 263.383 51.282 263.746 50.5149C264.112 49.7436 264.617 49.1406 265.26 48.706C265.908 48.267 266.656 48.0476 267.504 48.0476C268.037 48.0476 268.55 48.1456 269.045 48.3416C269.539 48.5334 269.982 48.8295 270.374 49.2301C270.77 49.6264 271.084 50.1271 271.314 50.7322C271.544 51.3331 271.659 52.0447 271.659 52.8672V53.4297H263.988V52.4261H270.496C270.496 51.7955 270.368 51.2287 270.112 50.7259C269.861 50.2187 269.509 49.8182 269.057 49.5241C268.61 49.2301 268.092 49.0831 267.504 49.0831C266.882 49.0831 266.334 49.2493 265.861 49.5817C265.388 49.9141 265.018 50.353 264.749 50.8984C264.485 51.4439 264.351 52.0405 264.346 52.6882V53.2891C264.346 54.0689 264.481 54.7507 264.749 55.3345C265.022 55.9141 265.407 56.3636 265.906 56.6832C266.405 57.0028 266.995 57.1626 267.677 57.1626C268.141 57.1626 268.548 57.0902 268.898 56.9453C269.251 56.8004 269.547 56.6065 269.786 56.3636C270.029 56.1165 270.212 55.8459 270.336 55.5518L271.416 55.9034C271.267 56.3168 271.022 56.6982 270.681 57.0476C270.344 57.397 269.922 57.6783 269.415 57.8913C268.912 58.1001 268.333 58.2045 267.677 58.2045ZM276.908 58.2237C276.316 58.2237 275.775 58.1087 275.285 57.8786C274.795 57.6442 274.405 57.3075 274.115 56.8686C273.825 56.4254 273.68 55.8885 273.68 55.2578C273.68 54.772 273.772 54.3629 273.955 54.0305C274.138 53.6982 274.398 53.4254 274.735 53.2124C275.072 52.9993 275.47 52.831 275.93 52.7074C276.391 52.5838 276.898 52.4879 277.452 52.4197C278.001 52.3516 278.466 52.2919 278.845 52.2408C279.229 52.1896 279.521 52.1087 279.721 51.9979C279.921 51.8871 280.021 51.7081 280.021 51.4609V51.2308C280.021 50.5618 279.821 50.0355 279.42 49.652C279.024 49.2642 278.453 49.0703 277.707 49.0703C277 49.0703 276.423 49.2259 275.975 49.5369C275.532 49.848 275.221 50.2145 275.042 50.6364L273.962 50.2464C274.183 49.7095 274.49 49.2812 274.882 48.9616C275.274 48.6378 275.713 48.4055 276.199 48.2649C276.685 48.12 277.177 48.0476 277.675 48.0476C278.05 48.0476 278.44 48.0966 278.845 48.1946C279.254 48.2926 279.634 48.4631 279.983 48.706C280.332 48.9446 280.616 49.2791 280.833 49.7095C281.05 50.1357 281.159 50.6768 281.159 51.3331V58H280.021V56.4467H279.951C279.815 56.7365 279.612 57.0178 279.344 57.2905C279.075 57.5632 278.739 57.7869 278.334 57.9616C277.929 58.1364 277.454 58.2237 276.908 58.2237ZM277.062 57.1818C277.667 57.1818 278.191 57.0476 278.634 56.7791C279.077 56.5107 279.418 56.1548 279.657 55.7116C279.9 55.2642 280.021 54.772 280.021 54.2351V52.8161C279.936 52.897 279.793 52.9695 279.593 53.0334C279.397 53.0973 279.169 53.1548 278.909 53.206C278.653 53.2528 278.398 53.2933 278.142 53.3274C277.886 53.3615 277.656 53.3913 277.452 53.4169C276.898 53.4851 276.425 53.5916 276.033 53.7365C275.641 53.8814 275.34 54.0817 275.131 54.3374C274.923 54.5888 274.818 54.9126 274.818 55.3089C274.818 55.9055 275.031 56.3679 275.457 56.696C275.884 57.0199 276.418 57.1818 277.062 57.1818ZM288.053 48.1818V49.1726H283.368V48.1818H288.053ZM284.831 45.8295H285.975V55.4368C285.975 55.8459 286.046 56.1676 286.186 56.402C286.327 56.6321 286.51 56.7962 286.736 56.8942C286.962 56.9879 287.203 57.0348 287.458 57.0348C287.608 57.0348 287.735 57.0263 287.842 57.0092C287.949 56.9879 288.042 56.9666 288.123 56.9453L288.366 57.9744C288.255 58.017 288.119 58.0554 287.957 58.0895C287.795 58.1278 287.595 58.147 287.356 58.147C286.939 58.147 286.536 58.0554 286.148 57.8722C285.765 57.6889 285.449 57.4162 285.202 57.054C284.955 56.6918 284.831 56.2422 284.831 55.7053V45.8295ZM294.501 58.2045C293.585 58.2045 292.792 57.9915 292.123 57.5653C291.454 57.1349 290.936 56.5405 290.57 55.782C290.208 55.0192 290.026 54.1413 290.026 53.1484C290.026 52.1598 290.208 51.282 290.57 50.5149C290.936 49.7436 291.441 49.1406 292.085 48.706C292.732 48.267 293.48 48.0476 294.328 48.0476C294.861 48.0476 295.374 48.1456 295.869 48.3416C296.363 48.5334 296.806 48.8295 297.198 49.2301C297.595 49.6264 297.908 50.1271 298.138 50.7322C298.368 51.3331 298.483 52.0447 298.483 52.8672V53.4297H290.813V52.4261H297.32C297.32 51.7955 297.192 51.2287 296.936 50.7259C296.685 50.2187 296.333 49.8182 295.882 49.5241C295.434 49.2301 294.916 49.0831 294.328 49.0831C293.706 49.0831 293.159 49.2493 292.686 49.5817C292.213 49.9141 291.842 50.353 291.573 50.8984C291.309 51.4439 291.175 52.0405 291.171 52.6882V53.2891C291.171 54.0689 291.305 54.7507 291.573 55.3345C291.846 55.9141 292.232 56.3636 292.73 56.6832C293.229 57.0028 293.819 57.1626 294.501 57.1626C294.965 57.1626 295.372 57.0902 295.722 56.9453C296.075 56.8004 296.372 56.6065 296.61 56.3636C296.853 56.1165 297.036 55.8459 297.16 55.5518L298.24 55.9034C298.091 56.3168 297.846 56.6982 297.505 57.0476C297.169 57.397 296.747 57.6783 296.24 57.8913C295.737 58.1001 295.157 58.2045 294.501 58.2045Z" fill="#555555"/>
<path d="M341.502 121.682V108.182H342.608V110.055H342.742C342.879 109.761 343.066 109.46 343.305 109.153C343.543 108.842 343.859 108.58 344.251 108.367C344.647 108.154 345.146 108.048 345.746 108.048C346.556 108.048 347.263 108.261 347.869 108.687C348.478 109.109 348.951 109.701 349.288 110.464C349.629 111.222 349.799 112.107 349.799 113.116C349.799 114.131 349.629 115.019 349.288 115.782C348.951 116.545 348.478 117.139 347.869 117.565C347.263 117.991 346.56 118.205 345.759 118.205C345.167 118.205 344.67 118.098 344.27 117.885C343.874 117.672 343.552 117.41 343.305 117.099C343.062 116.783 342.874 116.477 342.742 116.178H342.64V121.682H341.502ZM342.627 113.097C342.627 113.89 342.744 114.593 342.979 115.207C343.217 115.816 343.558 116.295 344.001 116.645C344.449 116.99 344.99 117.163 345.625 117.163C346.277 117.163 346.827 116.984 347.274 116.626C347.726 116.263 348.069 115.776 348.303 115.162C348.542 114.548 348.661 113.86 348.661 113.097C348.661 112.343 348.544 111.663 348.31 111.058C348.08 110.453 347.739 109.974 347.287 109.62C346.835 109.262 346.281 109.083 345.625 109.083C344.986 109.083 344.442 109.256 343.995 109.601C343.548 109.942 343.207 110.415 342.972 111.02C342.742 111.621 342.627 112.313 342.627 113.097ZM352.295 118V108.182H353.401V109.69H353.484C353.68 109.196 354.021 108.798 354.507 108.495C354.997 108.188 355.551 108.035 356.169 108.035C356.262 108.035 356.367 108.037 356.482 108.041C356.597 108.045 356.693 108.05 356.77 108.054V109.211C356.718 109.202 356.629 109.19 356.501 109.173C356.373 109.156 356.235 109.147 356.086 109.147C355.574 109.147 355.118 109.256 354.718 109.473C354.321 109.686 354.008 109.982 353.778 110.362C353.548 110.741 353.433 111.173 353.433 111.659V118H352.295ZM362.228 118.205C361.38 118.205 360.63 117.989 359.978 117.559C359.331 117.129 358.824 116.534 358.457 115.776C358.091 115.013 357.907 114.133 357.907 113.136C357.907 112.13 358.091 111.246 358.457 110.483C358.824 109.716 359.331 109.119 359.978 108.693C360.63 108.263 361.38 108.048 362.228 108.048C363.076 108.048 363.824 108.263 364.472 108.693C365.12 109.124 365.627 109.72 365.993 110.483C366.364 111.246 366.549 112.13 366.549 113.136C366.549 114.133 366.366 115.013 366 115.776C365.633 116.534 365.124 117.129 364.472 117.559C363.824 117.989 363.076 118.205 362.228 118.205ZM362.228 117.163C362.91 117.163 363.488 116.979 363.961 116.613C364.434 116.246 364.792 115.759 365.034 115.149C365.282 114.54 365.405 113.869 365.405 113.136C365.405 112.403 365.282 111.729 365.034 111.116C364.792 110.502 364.434 110.01 363.961 109.639C363.488 109.268 362.91 109.083 362.228 109.083C361.551 109.083 360.973 109.268 360.496 109.639C360.023 110.01 359.663 110.502 359.416 111.116C359.173 111.729 359.051 112.403 359.051 113.136C359.051 113.869 359.173 114.54 359.416 115.149C359.663 115.759 360.023 116.246 360.496 116.613C360.969 116.979 361.547 117.163 362.228 117.163ZM372.914 108.182V109.173H368.229V108.182H372.914ZM369.693 105.83H370.837V115.437C370.837 115.846 370.907 116.168 371.048 116.402C371.188 116.632 371.372 116.796 371.597 116.894C371.823 116.988 372.064 117.035 372.32 117.035C372.469 117.035 372.597 117.026 372.703 117.009C372.81 116.988 372.904 116.967 372.985 116.945L373.227 117.974C373.117 118.017 372.98 118.055 372.818 118.089C372.656 118.128 372.456 118.147 372.218 118.147C371.8 118.147 371.397 118.055 371.009 117.872C370.626 117.689 370.311 117.416 370.063 117.054C369.816 116.692 369.693 116.242 369.693 115.705V105.83ZM379.209 118.205C378.361 118.205 377.611 117.989 376.959 117.559C376.311 117.129 375.804 116.534 375.438 115.776C375.071 115.013 374.888 114.133 374.888 113.136C374.888 112.13 375.071 111.246 375.438 110.483C375.804 109.716 376.311 109.119 376.959 108.693C377.611 108.263 378.361 108.048 379.209 108.048C380.057 108.048 380.805 108.263 381.452 108.693C382.1 109.124 382.607 109.72 382.974 110.483C383.344 111.246 383.53 112.13 383.53 113.136C383.53 114.133 383.347 115.013 382.98 115.776C382.614 116.534 382.104 117.129 381.452 117.559C380.805 117.989 380.057 118.205 379.209 118.205ZM379.209 117.163C379.891 117.163 380.468 116.979 380.941 116.613C381.414 116.246 381.772 115.759 382.015 115.149C382.262 114.54 382.386 113.869 382.386 113.136C382.386 112.403 382.262 111.729 382.015 111.116C381.772 110.502 381.414 110.01 380.941 109.639C380.468 109.268 379.891 109.083 379.209 109.083C378.531 109.083 377.954 109.268 377.477 109.639C377.004 110.01 376.643 110.502 376.396 111.116C376.153 111.729 376.032 112.403 376.032 113.136C376.032 113.869 376.153 114.54 376.396 115.149C376.643 115.759 377.004 116.246 377.477 116.613C377.95 116.979 378.527 117.163 379.209 117.163ZM389.895 108.182V109.173H385.209V108.182H389.895ZM386.673 105.83H387.817V115.437C387.817 115.846 387.888 116.168 388.028 116.402C388.169 116.632 388.352 116.796 388.578 116.894C388.804 116.988 389.045 117.035 389.3 117.035C389.449 117.035 389.577 117.026 389.684 117.009C389.79 116.988 389.884 116.967 389.965 116.945L390.208 117.974C390.097 118.017 389.961 118.055 389.799 118.089C389.637 118.128 389.437 118.147 389.198 118.147C388.78 118.147 388.378 118.055 387.99 117.872C387.606 117.689 387.291 117.416 387.044 117.054C386.797 116.692 386.673 116.242 386.673 115.705V105.83ZM393.271 121.682C393.045 121.682 392.835 121.661 392.638 121.618C392.442 121.575 392.287 121.528 392.172 121.477L392.479 120.474C392.866 120.593 393.212 120.636 393.514 120.602C393.817 120.572 394.085 120.435 394.32 120.192C394.554 119.954 394.763 119.587 394.946 119.093L395.304 118.096L391.692 108.182H392.926L395.841 116.498H395.93L398.845 108.182H400.079L395.924 119.553C395.749 120.026 395.534 120.42 395.278 120.736C395.023 121.055 394.727 121.292 394.39 121.445C394.058 121.603 393.685 121.682 393.271 121.682ZM402.305 121.682V108.182H403.411V110.055H403.545C403.681 109.761 403.869 109.46 404.107 109.153C404.346 108.842 404.661 108.58 405.053 108.367C405.45 108.154 405.948 108.048 406.549 108.048C407.359 108.048 408.066 108.261 408.671 108.687C409.281 109.109 409.754 109.701 410.09 110.464C410.431 111.222 410.602 112.107 410.602 113.116C410.602 114.131 410.431 115.019 410.09 115.782C409.754 116.545 409.281 117.139 408.671 117.565C408.066 117.991 407.363 118.205 406.562 118.205C405.97 118.205 405.473 118.098 405.073 117.885C404.676 117.672 404.355 117.41 404.107 117.099C403.865 116.783 403.677 116.477 403.545 116.178H403.443V121.682H402.305ZM403.43 113.097C403.43 113.89 403.547 114.593 403.781 115.207C404.02 115.816 404.361 116.295 404.804 116.645C405.252 116.99 405.793 117.163 406.428 117.163C407.08 117.163 407.629 116.984 408.077 116.626C408.529 116.263 408.872 115.776 409.106 115.162C409.345 114.548 409.464 113.86 409.464 113.097C409.464 112.343 409.347 111.663 409.112 111.058C408.882 110.453 408.541 109.974 408.09 109.62C407.638 109.262 407.084 109.083 406.428 109.083C405.789 109.083 405.245 109.256 404.798 109.601C404.35 109.942 404.009 110.415 403.775 111.02C403.545 111.621 403.43 112.313 403.43 113.097ZM417.067 118.205C416.151 118.205 415.358 117.991 414.689 117.565C414.02 117.135 413.503 116.54 413.136 115.782C412.774 115.019 412.593 114.141 412.593 113.148C412.593 112.16 412.774 111.282 413.136 110.515C413.503 109.744 414.008 109.141 414.651 108.706C415.299 108.267 416.047 108.048 416.895 108.048C417.427 108.048 417.941 108.146 418.435 108.342C418.93 108.533 419.373 108.83 419.765 109.23C420.161 109.626 420.474 110.127 420.704 110.732C420.934 111.333 421.05 112.045 421.05 112.867V113.43H413.379V112.426H419.886C419.886 111.795 419.758 111.229 419.503 110.726C419.251 110.219 418.9 109.818 418.448 109.524C418.001 109.23 417.483 109.083 416.895 109.083C416.273 109.083 415.725 109.249 415.252 109.582C414.779 109.914 414.408 110.353 414.14 110.898C413.876 111.444 413.741 112.04 413.737 112.688V113.289C413.737 114.069 413.871 114.751 414.14 115.335C414.412 115.914 414.798 116.364 415.297 116.683C415.795 117.003 416.385 117.163 417.067 117.163C417.532 117.163 417.939 117.09 418.288 116.945C418.642 116.8 418.938 116.607 419.177 116.364C419.42 116.116 419.603 115.846 419.726 115.552L420.807 115.903C420.657 116.317 420.412 116.698 420.072 117.048C419.735 117.397 419.313 117.678 418.806 117.891C418.303 118.1 417.724 118.205 417.067 118.205Z" fill="#555555"/>
<path d="M472.369 163.182V164.173H467.684V163.182H472.369ZM469.148 160.83H470.292V170.437C470.292 170.846 470.362 171.168 470.503 171.402C470.643 171.632 470.827 171.796 471.053 171.894C471.278 171.988 471.519 172.035 471.775 172.035C471.924 172.035 472.052 172.026 472.158 172.009C472.265 171.988 472.359 171.967 472.44 171.945L472.683 172.974C472.572 173.017 472.435 173.055 472.273 173.089C472.112 173.128 471.911 173.147 471.673 173.147C471.255 173.147 470.852 173.055 470.464 172.872C470.081 172.689 469.766 172.416 469.518 172.054C469.271 171.692 469.148 171.242 469.148 170.705V160.83ZM478.817 173.205C477.901 173.205 477.108 172.991 476.439 172.565C475.77 172.135 475.253 171.54 474.886 170.782C474.524 170.019 474.343 169.141 474.343 168.148C474.343 167.16 474.524 166.282 474.886 165.515C475.253 164.744 475.758 164.141 476.401 163.706C477.049 163.267 477.797 163.048 478.645 163.048C479.177 163.048 479.691 163.146 480.185 163.342C480.68 163.533 481.123 163.83 481.515 164.23C481.911 164.626 482.224 165.127 482.454 165.732C482.684 166.333 482.8 167.045 482.8 167.867V168.43H475.129V167.426H481.636C481.636 166.795 481.508 166.229 481.253 165.726C481.001 165.219 480.65 164.818 480.198 164.524C479.751 164.23 479.233 164.083 478.645 164.083C478.023 164.083 477.475 164.249 477.002 164.582C476.529 164.914 476.158 165.353 475.89 165.898C475.626 166.444 475.491 167.04 475.487 167.688V168.289C475.487 169.069 475.621 169.751 475.89 170.335C476.162 170.914 476.548 171.364 477.047 171.683C477.545 172.003 478.135 172.163 478.817 172.163C479.282 172.163 479.689 172.09 480.038 171.945C480.392 171.8 480.688 171.607 480.927 171.364C481.17 171.116 481.353 170.846 481.476 170.552L482.557 170.903C482.407 171.317 482.162 171.698 481.822 172.048C481.485 172.397 481.063 172.678 480.556 172.891C480.053 173.1 479.474 173.205 478.817 173.205ZM491.903 165.336L490.862 165.63C490.759 165.336 490.614 165.07 490.427 164.831C490.239 164.592 489.994 164.403 489.692 164.262C489.393 164.121 489.023 164.051 488.58 164.051C487.915 164.051 487.369 164.209 486.943 164.524C486.517 164.839 486.304 165.246 486.304 165.745C486.304 166.167 486.449 166.51 486.739 166.774C487.033 167.034 487.484 167.241 488.094 167.394L489.577 167.759C490.399 167.959 491.015 168.276 491.424 168.711C491.837 169.146 492.044 169.691 492.044 170.347C492.044 170.901 491.891 171.393 491.584 171.824C491.277 172.254 490.849 172.593 490.299 172.84C489.754 173.083 489.121 173.205 488.401 173.205C487.442 173.205 486.651 172.989 486.029 172.559C485.407 172.124 485.009 171.498 484.834 170.68L485.927 170.411C486.067 170.995 486.342 171.436 486.751 171.734C487.165 172.033 487.708 172.182 488.381 172.182C489.136 172.182 489.739 172.013 490.19 171.677C490.642 171.336 490.868 170.91 490.868 170.398C490.868 170.002 490.736 169.67 490.472 169.401C490.207 169.129 489.807 168.928 489.27 168.8L487.665 168.417C486.813 168.212 486.183 167.888 485.773 167.445C485.364 167.002 485.16 166.452 485.16 165.796C485.16 165.255 485.307 164.78 485.601 164.371C485.895 163.957 486.3 163.634 486.815 163.399C487.331 163.165 487.919 163.048 488.58 163.048C489.479 163.048 490.197 163.252 490.734 163.661C491.275 164.066 491.665 164.624 491.903 165.336ZM498.403 163.182V164.173H493.717V163.182H498.403ZM495.181 160.83H496.325V170.437C496.325 170.846 496.395 171.168 496.536 171.402C496.677 171.632 496.86 171.796 497.086 171.894C497.312 171.988 497.552 172.035 497.808 172.035C497.957 172.035 498.085 172.026 498.192 172.009C498.298 171.988 498.392 171.967 498.473 171.945L498.716 172.974C498.605 173.017 498.469 173.055 498.307 173.089C498.145 173.128 497.944 173.147 497.706 173.147C497.288 173.147 496.885 173.055 496.498 172.872C496.114 172.689 495.799 172.416 495.552 172.054C495.305 171.692 495.181 171.242 495.181 170.705V160.83Z" fill="#555555"/>
<path d="M98.5508 2L125.551 56" stroke="#333333" stroke-linecap="round"/>
<path d="M205.551 60L232.551 114" stroke="#333333" stroke-linecap="round"/>
<path d="M312.551 1L339.551 55" stroke="#333333" stroke-linecap="round"/>
<path d="M415.551 61L442.551 115" stroke="#333333" stroke-linecap="round"/>
<path d="M521.551 116L548.551 170" stroke="#333333" stroke-linecap="round"/>
<path d="M1 56L28 110" stroke="#333333" stroke-linecap="round"/>
<path d="M108 114L135 168" stroke="#333333" stroke-linecap="round"/>
<path d="M215 55L242 109" stroke="#333333" stroke-linecap="round"/>
<path d="M318 115L345 169" stroke="#333333" stroke-linecap="round"/>
<path d="M424 170L451 224" stroke="#333333" stroke-linecap="round"/>
<path d="M27.5508 2H98.5508" stroke="#333333" stroke-linecap="round"/>
<path d="M134.551 60H205.551" stroke="#333333" stroke-linecap="round"/>
<path d="M241.551 1H312.551" stroke="#333333" stroke-linecap="round"/>
<path d="M344.551 61H415.551" stroke="#333333" stroke-linecap="round"/>
<path d="M451 115H522" stroke="#333333" stroke-linecap="round"/>
<line x1="125.77" y1="55.6724" x2="98.2232" y2="109.781" stroke="#333333" stroke-linecap="round"/>
<line x1="232.77" y1="113.672" x2="205.223" y2="167.781" stroke="#333333" stroke-linecap="round"/>
<line x1="339.77" y1="54.6724" x2="312.223" y2="108.781" stroke="#333333" stroke-linecap="round"/>
<line x1="442.77" y1="114.672" x2="415.223" y2="168.781" stroke="#333333" stroke-linecap="round"/>
<line x1="548.77" y1="169.672" x2="521.223" y2="223.781" stroke="#333333" stroke-linecap="round"/>
<line x1="28.2187" y1="1.67242" x2="0.672422" y2="55.7813" stroke="#333333" stroke-linecap="round"/>
<line x1="135.219" y1="59.6724" x2="107.672" y2="113.781" stroke="#333333" stroke-linecap="round"/>
<line x1="242.219" y1="0.672423" x2="214.672" y2="54.7813" stroke="#333333" stroke-linecap="round"/>
<line x1="345.219" y1="60.6724" x2="317.672" y2="114.781" stroke="#333333" stroke-linecap="round"/>
<line x1="451.219" y1="115.672" x2="423.672" y2="169.781" stroke="#333333" stroke-linecap="round"/>
<line x1="28.5508" y1="109.5" x2="98.5508" y2="109.5" stroke="#333333"/>
<line x1="135.551" y1="167.5" x2="205.551" y2="167.5" stroke="#333333"/>
<line x1="242.551" y1="108.5" x2="312.551" y2="108.5" stroke="#333333"/>
<line x1="345.551" y1="168.5" x2="415.551" y2="168.5" stroke="#333333"/>
<line x1="451.551" y1="223.5" x2="521.551" y2="223.5" stroke="#333333"/>
</svg>
