<svg width="293" height="137" viewBox="0 0 293 137" fill="none" xmlns="http://www.w3.org/2000/svg">
<path d="M18.5398 67.6099L0.577359 36.5L18.5398 5.39008L54.4647 5.39008L72.4272 36.5L54.4647 67.6099L18.5398 67.6099Z" fill="#555555" stroke="#555555"/>
<path d="M128.54 67.6099L110.577 36.5L128.54 5.39008L164.465 5.39008L182.427 36.5L164.465 67.6099L128.54 67.6099Z" stroke="#555555"/>
<path d="M183.54 99.6099L165.577 68.5L183.54 37.3901L219.465 37.3901L237.427 68.5L219.465 99.6099L183.54 99.6099Z" stroke="#555555"/>
<path d="M238.54 131.61L220.577 100.5L238.54 69.3901L274.465 69.3901L292.427 100.5L274.465 131.61H238.54Z" stroke="#555555"/>
<path d="M73.5398 99.6099L55.5774 68.5L73.5398 37.3901L109.465 37.3901L127.427 68.5L109.465 99.6099L73.5398 99.6099Z" stroke="#555555"/>
<path d="M11.6477 39.1364C11.0369 39.1364 10.5085 38.9943 10.0625 38.7102C9.61648 38.4233 9.27131 38.027 9.02699 37.5213C8.78551 37.0128 8.66477 36.4276 8.66477 35.7656C8.66477 35.1065 8.78551 34.5213 9.02699 34.0099C9.27131 33.4957 9.60795 33.0937 10.0369 32.804C10.4688 32.5114 10.9673 32.3651 11.5327 32.3651C11.8878 32.3651 12.2301 32.4304 12.5597 32.5611C12.8892 32.6889 13.1847 32.8864 13.446 33.1534C13.7102 33.4176 13.919 33.7514 14.0724 34.1548C14.2259 34.5554 14.3026 35.0298 14.3026 35.5781V35.9531H9.18892V35.2841H13.527C13.527 34.8636 13.4418 34.4858 13.2713 34.1506C13.1037 33.8125 12.8693 33.5455 12.5682 33.3494C12.2699 33.1534 11.9247 33.0554 11.5327 33.0554C11.1179 33.0554 10.7528 33.1662 10.4375 33.3878C10.1222 33.6094 9.875 33.902 9.69602 34.2656C9.51989 34.6293 9.4304 35.027 9.42756 35.4588V35.8594C9.42756 36.3793 9.51705 36.8338 9.69602 37.223C9.87784 37.6094 10.1349 37.9091 10.4673 38.1222C10.7997 38.3352 11.1932 38.4418 11.6477 38.4418C11.9574 38.4418 12.2287 38.3935 12.4616 38.2969C12.6974 38.2003 12.8949 38.071 13.054 37.9091C13.2159 37.7443 13.3381 37.5639 13.4205 37.3679L14.1406 37.6023C14.0412 37.8778 13.8778 38.1321 13.6506 38.3651C13.4261 38.598 13.1449 38.7855 12.8068 38.9276C12.4716 39.0668 12.0852 39.1364 11.6477 39.1364ZM15.9741 39V32.4545H16.7113V33.4602H16.7795C16.9102 33.1222 17.1275 32.8565 17.4315 32.6634C17.7383 32.4673 18.1062 32.3693 18.5352 32.3693C18.9869 32.3693 19.3576 32.4759 19.6474 32.6889C19.94 32.8991 20.1587 33.1889 20.3036 33.5582H20.359C20.5067 33.1946 20.7468 32.9062 21.0792 32.6932C21.4144 32.4773 21.8207 32.3693 22.2979 32.3693C22.9059 32.3693 23.386 32.5611 23.7383 32.9446C24.0906 33.3253 24.2667 33.8821 24.2667 34.6151V39H23.5082V34.6151C23.5082 34.098 23.3761 33.7102 23.1119 33.4517C22.8477 33.1932 22.4996 33.0639 22.0678 33.0639C21.5678 33.0639 21.1829 33.2173 20.913 33.5241C20.6431 33.831 20.5082 34.2202 20.5082 34.6918V39H19.7326V34.5469C19.7326 34.1037 19.609 33.7457 19.3619 33.473C19.1147 33.2003 18.7667 33.0639 18.3178 33.0639C18.0167 33.0639 17.7454 33.1378 17.5039 33.2855C17.2653 33.4332 17.0763 33.6392 16.9371 33.9034C16.8008 34.1648 16.7326 34.4659 16.7326 34.8068V39H15.9741ZM26.2749 41.4545V32.4545H27.0121V33.7031H27.1016C27.1925 33.5071 27.3175 33.3068 27.4766 33.1023C27.6357 32.8949 27.8459 32.7202 28.1072 32.5781C28.3714 32.4361 28.7038 32.3651 29.1044 32.3651C29.6442 32.3651 30.1158 32.5071 30.5192 32.7912C30.9254 33.0724 31.2408 33.4673 31.4652 33.9759C31.6925 34.4815 31.8061 35.071 31.8061 35.7443C31.8061 36.4205 31.6925 37.0128 31.4652 37.5213C31.2408 38.0298 30.9254 38.4261 30.5192 38.7102C30.1158 38.9943 29.647 39.1364 29.1129 39.1364C28.718 39.1364 28.3871 39.0653 28.12 38.9233C27.8558 38.7812 27.6413 38.6065 27.4766 38.3991C27.3146 38.1889 27.1896 37.9844 27.1016 37.7855H27.0334V41.4545H26.2749ZM27.0249 35.7315C27.0249 36.2599 27.103 36.7287 27.2592 37.1378C27.4183 37.544 27.6456 37.8636 27.9411 38.0966C28.2393 38.3267 28.6001 38.4418 29.0234 38.4418C29.4581 38.4418 29.8246 38.3224 30.1229 38.0838C30.424 37.8423 30.6527 37.517 30.8089 37.108C30.968 36.6989 31.0476 36.2401 31.0476 35.7315C31.0476 35.2287 30.9695 34.7756 30.8132 34.3722C30.6598 33.9687 30.4325 33.6491 30.1314 33.4134C29.8303 33.1747 29.4609 33.0554 29.0234 33.0554C28.5973 33.0554 28.2351 33.1705 27.9368 33.4006C27.6385 33.6278 27.4112 33.9432 27.255 34.3466C27.1016 34.7472 27.0249 35.2088 27.0249 35.7315ZM35.2983 39.1491C34.9034 39.1491 34.5426 39.0724 34.2159 38.919C33.8892 38.7628 33.6293 38.5384 33.4361 38.2457C33.2429 37.9503 33.1463 37.5923 33.1463 37.1719C33.1463 36.848 33.2074 36.5753 33.3295 36.3537C33.4517 36.1321 33.625 35.9503 33.8494 35.8082C34.0739 35.6662 34.3395 35.554 34.6463 35.4716C34.9531 35.3892 35.2912 35.3253 35.6605 35.2798C36.027 35.2344 36.3366 35.1946 36.5895 35.1605C36.8452 35.1264 37.0398 35.0724 37.1733 34.9986C37.3068 34.9247 37.3736 34.8054 37.3736 34.6406V34.4872C37.3736 34.0412 37.2401 33.6903 36.973 33.4347C36.7088 33.1761 36.3281 33.0469 35.831 33.0469C35.3594 33.0469 34.9744 33.1506 34.6761 33.358C34.3807 33.5653 34.1733 33.8097 34.054 34.0909L33.3338 33.831C33.4815 33.473 33.6861 33.1875 33.9474 32.9744C34.2088 32.7585 34.5014 32.6037 34.8253 32.5099C35.1491 32.4134 35.4773 32.3651 35.8097 32.3651C36.0597 32.3651 36.3196 32.3977 36.5895 32.4631C36.8622 32.5284 37.1151 32.642 37.348 32.804C37.581 32.9631 37.7699 33.1861 37.9148 33.473C38.0597 33.7571 38.1321 34.1179 38.1321 34.5554V39H37.3736V37.9645H37.3267C37.2358 38.1577 37.1009 38.3452 36.9219 38.527C36.7429 38.7088 36.5185 38.858 36.2486 38.9744C35.9787 39.0909 35.6619 39.1491 35.2983 39.1491ZM35.4006 38.4545C35.804 38.4545 36.1534 38.3651 36.4489 38.1861C36.7443 38.0071 36.9716 37.7699 37.1307 37.4744C37.2926 37.1761 37.3736 36.848 37.3736 36.4901V35.544C37.3168 35.598 37.2216 35.6463 37.0881 35.6889C36.9574 35.7315 36.8054 35.7699 36.6321 35.804C36.4616 35.8352 36.2912 35.8622 36.1207 35.8849C35.9503 35.9077 35.7969 35.9276 35.6605 35.9446C35.2912 35.9901 34.9759 36.0611 34.7145 36.1577C34.4531 36.2543 34.2528 36.3878 34.1136 36.5582C33.9744 36.7259 33.9048 36.9418 33.9048 37.206C33.9048 37.6037 34.0469 37.9119 34.331 38.1307C34.6151 38.3466 34.9716 38.4545 35.4006 38.4545ZM42.728 32.4545V33.1151H39.6044V32.4545H42.728ZM40.5803 30.8864H41.343V37.2912C41.343 37.5639 41.3899 37.7784 41.4837 37.9347C41.5774 38.0881 41.6996 38.1974 41.8501 38.2628C42.0007 38.3253 42.1612 38.3565 42.3317 38.3565C42.4311 38.3565 42.5163 38.3509 42.5874 38.3395C42.6584 38.3253 42.7209 38.3111 42.7749 38.2969L42.9368 38.983C42.8629 39.0114 42.772 39.0369 42.6641 39.0597C42.5561 39.0852 42.4226 39.098 42.2635 39.098C41.9851 39.098 41.7166 39.0369 41.4581 38.9148C41.2024 38.7926 40.9922 38.6108 40.8274 38.3693C40.6626 38.1278 40.5803 37.8281 40.5803 37.4702V30.8864ZM45.3498 34.9091V39H44.5913V30.2727H45.3498V33.4815H45.418C45.5714 33.1435 45.8086 32.8736 46.1296 32.6719C46.4535 32.4702 46.8626 32.3693 47.3569 32.3693C47.8001 32.3693 48.1893 32.4602 48.5245 32.642C48.8597 32.8239 49.1211 33.0923 49.3086 33.4474C49.4961 33.8026 49.5898 34.2401 49.5898 34.7599V39H48.8271V34.8068C48.8271 34.267 48.6765 33.8423 48.3754 33.5327C48.0771 33.2202 47.6737 33.0639 47.1651 33.0639C46.8157 33.0639 46.5046 33.1378 46.2319 33.2855C45.9592 33.4332 45.7433 33.6463 45.5842 33.9247C45.4279 34.2003 45.3498 34.5284 45.3498 34.9091ZM51.5959 39V32.4545H52.3587V39H51.5959ZM51.9837 31.3295C51.8274 31.3295 51.6939 31.277 51.5831 31.1719C51.4723 31.0639 51.4169 30.9347 51.4169 30.7841C51.4169 30.6335 51.4723 30.5057 51.5831 30.4006C51.6939 30.2926 51.8274 30.2386 51.9837 30.2386C52.1399 30.2386 52.2734 30.2926 52.3842 30.4006C52.495 30.5057 52.5504 30.6335 52.5504 30.7841C52.5504 30.9347 52.495 31.0639 52.3842 31.1719C52.2734 31.277 52.1399 31.3295 51.9837 31.3295ZM54.1602 39V38.3991L57.9442 33.2259V33.1705H54.3221V32.4545H58.9201V33.081L55.2042 38.2287V38.2841H59.0565V39H54.1602ZM63.1868 39.1364C62.576 39.1364 62.0476 38.9943 61.6016 38.7102C61.1555 38.4233 60.8104 38.027 60.5661 37.5213C60.3246 37.0128 60.2038 36.4276 60.2038 35.7656C60.2038 35.1065 60.3246 34.5213 60.5661 34.0099C60.8104 33.4957 61.147 33.0937 61.576 32.804C62.0078 32.5114 62.5064 32.3651 63.0717 32.3651C63.4268 32.3651 63.7692 32.4304 64.0987 32.5611C64.4283 32.6889 64.7237 32.8864 64.9851 33.1534C65.2493 33.4176 65.4581 33.7514 65.6115 34.1548C65.7649 34.5554 65.8416 35.0298 65.8416 35.5781V35.9531H60.728V35.2841H65.0661C65.0661 34.8636 64.9808 34.4858 64.8104 34.1506C64.6428 33.8125 64.4084 33.5455 64.1072 33.3494C63.8089 33.1534 63.4638 33.0554 63.0717 33.0554C62.657 33.0554 62.2919 33.1662 61.9766 33.3878C61.6612 33.6094 61.4141 33.902 61.2351 34.2656C61.0589 34.6293 60.9695 35.027 60.9666 35.4588V35.8594C60.9666 36.3793 61.0561 36.8338 61.2351 37.223C61.4169 37.6094 61.674 37.9091 62.0064 38.1222C62.3388 38.3352 62.7322 38.4418 63.1868 38.4418C63.4964 38.4418 63.7678 38.3935 64.0007 38.2969C64.2365 38.2003 64.4339 38.071 64.593 37.9091C64.755 37.7443 64.8771 37.5639 64.9595 37.3679L65.6797 37.6023C65.5803 37.8778 65.4169 38.1321 65.1896 38.3651C64.9652 38.598 64.6839 38.7855 64.3459 38.9276C64.0107 39.0668 63.6243 39.1364 63.1868 39.1364Z" fill="white"/>
<path d="M76.358 69.1364C75.821 69.1364 75.3509 68.9943 74.9474 68.7102C74.544 68.4261 74.2287 68.0298 74.0014 67.5213C73.777 67.0128 73.6648 66.4205 73.6648 65.7443C73.6648 65.071 73.777 64.4815 74.0014 63.9759C74.2287 63.4673 74.5455 63.0724 74.9517 62.7912C75.358 62.5071 75.831 62.3651 76.3707 62.3651C76.7685 62.3651 77.0994 62.4361 77.3636 62.5781C77.6278 62.7173 77.8395 62.8906 77.9986 63.098C78.1577 63.3054 78.2813 63.5071 78.3693 63.7031H78.4375V60.2727H79.2003V69H78.4588V67.7855H78.3693C78.2813 67.9844 78.1563 68.1889 77.9943 68.3991C77.8324 68.6065 77.6179 68.7812 77.3509 68.9233C77.0866 69.0653 76.7557 69.1364 76.358 69.1364ZM76.4474 68.4418C76.8707 68.4418 77.2315 68.3267 77.5298 68.0966C77.8281 67.8636 78.0554 67.544 78.2116 67.1378C78.3707 66.7287 78.4503 66.2599 78.4503 65.7315C78.4503 65.2088 78.3722 64.7472 78.2159 64.3466C78.0597 63.9432 77.8324 63.6278 77.5341 63.4006C77.2358 63.1705 76.8736 63.0554 76.4474 63.0554C76.0099 63.0554 75.6406 63.1747 75.3395 63.4134C75.0412 63.6491 74.8139 63.9687 74.6577 64.3722C74.5043 64.7756 74.4276 65.2287 74.4276 65.7315C74.4276 66.2401 74.5057 66.6989 74.6619 67.108C74.8182 67.517 75.0455 67.8423 75.3438 68.0838C75.6449 68.3224 76.0128 68.4418 76.4474 68.4418ZM84.0071 69.1364C83.3963 69.1364 82.8679 68.9943 82.4219 68.7102C81.9759 68.4233 81.6307 68.027 81.3864 67.5213C81.1449 67.0128 81.0241 66.4276 81.0241 65.7656C81.0241 65.1065 81.1449 64.5213 81.3864 64.0099C81.6307 63.4957 81.9673 63.0937 82.3963 62.804C82.8281 62.5114 83.3267 62.3651 83.892 62.3651C84.2472 62.3651 84.5895 62.4304 84.919 62.5611C85.2486 62.6889 85.544 62.8864 85.8054 63.1534C86.0696 63.4176 86.2784 63.7514 86.4318 64.1548C86.5852 64.5554 86.6619 65.0298 86.6619 65.5781V65.9531H81.5483V65.2841H85.8864C85.8864 64.8636 85.8011 64.4858 85.6307 64.1506C85.4631 63.8125 85.2287 63.5455 84.9276 63.3494C84.6293 63.1534 84.2841 63.0554 83.892 63.0554C83.4773 63.0554 83.1122 63.1662 82.7969 63.3878C82.4815 63.6094 82.2344 63.902 82.0554 64.2656C81.8793 64.6293 81.7898 65.027 81.7869 65.4588V65.8594C81.7869 66.3793 81.8764 66.8338 82.0554 67.223C82.2372 67.6094 82.4943 67.9091 82.8267 68.1222C83.1591 68.3352 83.5526 68.4418 84.0071 68.4418C84.3168 68.4418 84.5881 68.3935 84.821 68.2969C85.0568 68.2003 85.2543 68.071 85.4134 67.9091C85.5753 67.7443 85.6974 67.5639 85.7798 67.3679L86.5 67.6023C86.4006 67.8778 86.2372 68.1321 86.0099 68.3651C85.7855 68.598 85.5043 68.7855 85.1662 68.9276C84.831 69.0668 84.4446 69.1364 84.0071 69.1364ZM91.0266 62.4545V63.1151H87.8093V62.4545H91.0266ZM88.815 69V61.4957C88.815 61.1435 88.896 60.8466 89.0579 60.6051C89.2227 60.3636 89.4371 60.1804 89.7013 60.0554C89.9656 59.9304 90.2454 59.8679 90.5408 59.8679C90.7397 59.8679 90.9045 59.8849 91.0352 59.919C91.1687 59.9503 91.2738 59.9815 91.3505 60.0128L91.1289 60.6776C91.0721 60.6605 91.0025 60.6406 90.9201 60.6179C90.8377 60.5952 90.734 60.5838 90.609 60.5838C90.2795 60.5838 90.0252 60.6761 89.8462 60.8608C89.6673 61.0455 89.5778 61.3097 89.5778 61.6534L89.5735 69H88.815ZM92.549 69V62.4545H93.3118V69H92.549ZM92.9368 61.3295C92.7805 61.3295 92.647 61.277 92.5362 61.1719C92.4254 61.0639 92.37 60.9347 92.37 60.7841C92.37 60.6335 92.4254 60.5057 92.5362 60.4006C92.647 60.2926 92.7805 60.2386 92.9368 60.2386C93.093 60.2386 93.2266 60.2926 93.3374 60.4006C93.4482 60.5057 93.5036 60.6335 93.5036 60.7841C93.5036 60.9347 93.4482 61.0639 93.3374 61.1719C93.2266 61.277 93.093 61.3295 92.9368 61.3295ZM96.0763 64.9091V69H95.3178V62.4545H96.055V63.4815H96.1232C96.2766 63.1463 96.5153 62.8778 96.8391 62.6761C97.1658 62.4716 97.5692 62.3693 98.0494 62.3693C98.4897 62.3693 98.8761 62.4616 99.2085 62.6463C99.5437 62.8281 99.8036 63.0966 99.9883 63.4517C100.176 63.8068 100.27 64.2429 100.27 64.7599V69H99.511V64.8068C99.511 64.2699 99.3604 63.8452 99.0593 63.5327C98.761 63.2202 98.3604 63.0639 97.8576 63.0639C97.5138 63.0639 97.2085 63.1378 96.9414 63.2855C96.6744 63.4332 96.4627 63.6463 96.3065 63.9247C96.1531 64.2003 96.0763 64.5284 96.0763 64.9091ZM104.913 69.1364C104.303 69.1364 103.774 68.9943 103.328 68.7102C102.882 68.4233 102.537 68.027 102.293 67.5213C102.051 67.0128 101.93 66.4276 101.93 65.7656C101.93 65.1065 102.051 64.5213 102.293 64.0099C102.537 63.4957 102.874 63.0937 103.303 62.804C103.734 62.5114 104.233 62.3651 104.798 62.3651C105.153 62.3651 105.496 62.4304 105.825 62.5611C106.155 62.6889 106.45 62.8864 106.712 63.1534C106.976 63.4176 107.185 63.7514 107.338 64.1548C107.491 64.5554 107.568 65.0298 107.568 65.5781V65.9531H102.455V65.2841H106.793C106.793 64.8636 106.707 64.4858 106.537 64.1506C106.369 63.8125 106.135 63.5455 105.834 63.3494C105.536 63.1534 105.19 63.0554 104.798 63.0554C104.384 63.0554 104.018 63.1662 103.703 63.3878C103.388 63.6094 103.141 63.902 102.962 64.2656C102.786 64.6293 102.696 65.027 102.693 65.4588V65.8594C102.693 66.3793 102.783 66.8338 102.962 67.223C103.143 67.6094 103.401 67.9091 103.733 68.1222C104.065 68.3352 104.459 68.4418 104.913 68.4418C105.223 68.4418 105.494 68.3935 105.727 68.2969C105.963 68.2003 106.161 68.071 106.32 67.9091C106.482 67.7443 106.604 67.5639 106.686 67.3679L107.406 67.6023C107.307 67.8778 107.143 68.1321 106.916 68.3651C106.692 68.598 106.411 68.7855 106.072 68.9276C105.737 69.0668 105.351 69.1364 104.913 69.1364Z" fill="#555555"/>
<path d="M131.01 39V32.4545H131.773V39H131.01ZM131.398 31.3295C131.241 31.3295 131.108 31.277 130.997 31.1719C130.886 31.0639 130.831 30.9347 130.831 30.7841C130.831 30.6335 130.886 30.5057 130.997 30.4006C131.108 30.2926 131.241 30.2386 131.398 30.2386C131.554 30.2386 131.688 30.2926 131.798 30.4006C131.909 30.5057 131.964 30.6335 131.964 30.7841C131.964 30.9347 131.909 31.0639 131.798 31.1719C131.688 31.277 131.554 31.3295 131.398 31.3295ZM136.135 39.1364C135.598 39.1364 135.128 38.9943 134.725 38.7102C134.321 38.4261 134.006 38.0298 133.779 37.5213C133.554 37.0128 133.442 36.4205 133.442 35.7443C133.442 35.071 133.554 34.4815 133.779 33.9759C134.006 33.4673 134.323 33.0724 134.729 32.7912C135.135 32.5071 135.608 32.3651 136.148 32.3651C136.546 32.3651 136.877 32.4361 137.141 32.5781C137.405 32.7173 137.617 32.8906 137.776 33.098C137.935 33.3054 138.059 33.5071 138.147 33.7031H138.215V30.2727H138.978V39H138.236V37.7855H138.147C138.059 37.9844 137.934 38.1889 137.772 38.3991C137.61 38.6065 137.395 38.7812 137.128 38.9233C136.864 39.0653 136.533 39.1364 136.135 39.1364ZM136.225 38.4418C136.648 38.4418 137.009 38.3267 137.307 38.0966C137.605 37.8636 137.833 37.544 137.989 37.1378C138.148 36.7287 138.228 36.2599 138.228 35.7315C138.228 35.2088 138.15 34.7472 137.993 34.3466C137.837 33.9432 137.61 33.6278 137.311 33.4006C137.013 33.1705 136.651 33.0554 136.225 33.0554C135.787 33.0554 135.418 33.1747 135.117 33.4134C134.819 33.6491 134.591 33.9687 134.435 34.3722C134.282 34.7756 134.205 35.2287 134.205 35.7315C134.205 36.2401 134.283 36.6989 134.439 37.108C134.596 37.517 134.823 37.8423 135.121 38.0838C135.422 38.3224 135.79 38.4418 136.225 38.4418ZM143.784 39.1364C143.174 39.1364 142.645 38.9943 142.199 38.7102C141.753 38.4233 141.408 38.027 141.164 37.5213C140.922 37.0128 140.801 36.4276 140.801 35.7656C140.801 35.1065 140.922 34.5213 141.164 34.0099C141.408 33.4957 141.745 33.0937 142.174 32.804C142.605 32.5114 143.104 32.3651 143.669 32.3651C144.025 32.3651 144.367 32.4304 144.696 32.5611C145.026 32.6889 145.321 32.8864 145.583 33.1534C145.847 33.4176 146.056 33.7514 146.209 34.1548C146.363 34.5554 146.439 35.0298 146.439 35.5781V35.9531H141.326V35.2841H145.664C145.664 34.8636 145.578 34.4858 145.408 34.1506C145.24 33.8125 145.006 33.5455 144.705 33.3494C144.407 33.1534 144.061 33.0554 143.669 33.0554C143.255 33.0554 142.89 33.1662 142.574 33.3878C142.259 33.6094 142.012 33.902 141.833 34.2656C141.657 34.6293 141.567 35.027 141.564 35.4588V35.8594C141.564 36.3793 141.654 36.8338 141.833 37.223C142.015 37.6094 142.272 37.9091 142.604 38.1222C142.936 38.3352 143.33 38.4418 143.784 38.4418C144.094 38.4418 144.365 38.3935 144.598 38.2969C144.834 38.2003 145.032 38.071 145.191 37.9091C145.353 37.7443 145.475 37.5639 145.557 37.3679L146.277 37.6023C146.178 37.8778 146.015 38.1321 145.787 38.3651C145.563 38.598 145.282 38.7855 144.944 38.9276C144.608 39.0668 144.222 39.1364 143.784 39.1364ZM149.939 39.1491C149.544 39.1491 149.183 39.0724 148.857 38.919C148.53 38.7628 148.27 38.5384 148.077 38.2457C147.884 37.9503 147.787 37.5923 147.787 37.1719C147.787 36.848 147.848 36.5753 147.97 36.3537C148.092 36.1321 148.266 35.9503 148.49 35.8082C148.714 35.6662 148.98 35.554 149.287 35.4716C149.594 35.3892 149.932 35.3253 150.301 35.2798C150.668 35.2344 150.977 35.1946 151.23 35.1605C151.486 35.1264 151.68 35.0724 151.814 34.9986C151.947 34.9247 152.014 34.8054 152.014 34.6406V34.4872C152.014 34.0412 151.881 33.6903 151.614 33.4347C151.349 33.1761 150.969 33.0469 150.472 33.0469C150 33.0469 149.615 33.1506 149.317 33.358C149.021 33.5653 148.814 33.8097 148.695 34.0909L147.974 33.831C148.122 33.473 148.327 33.1875 148.588 32.9744C148.849 32.7585 149.142 32.6037 149.466 32.5099C149.79 32.4134 150.118 32.3651 150.45 32.3651C150.7 32.3651 150.96 32.3977 151.23 32.4631C151.503 32.5284 151.756 32.642 151.989 32.804C152.222 32.9631 152.411 33.1861 152.555 33.473C152.7 33.7571 152.773 34.1179 152.773 34.5554V39H152.014V37.9645H151.967C151.876 38.1577 151.741 38.3452 151.562 38.527C151.384 38.7088 151.159 38.858 150.889 38.9744C150.619 39.0909 150.303 39.1491 149.939 39.1491ZM150.041 38.4545C150.445 38.4545 150.794 38.3651 151.089 38.1861C151.385 38.0071 151.612 37.7699 151.771 37.4744C151.933 37.1761 152.014 36.848 152.014 36.4901V35.544C151.957 35.598 151.862 35.6463 151.729 35.6889C151.598 35.7315 151.446 35.7699 151.273 35.804C151.102 35.8352 150.932 35.8622 150.761 35.8849C150.591 35.9077 150.438 35.9276 150.301 35.9446C149.932 35.9901 149.616 36.0611 149.355 36.1577C149.094 36.2543 148.893 36.3878 148.754 36.5582C148.615 36.7259 148.545 36.9418 148.545 37.206C148.545 37.6037 148.688 37.9119 148.972 38.1307C149.256 38.3466 149.612 38.4545 150.041 38.4545ZM157.369 32.4545V33.1151H154.245V32.4545H157.369ZM155.221 30.8864H155.984V37.2912C155.984 37.5639 156.031 37.7784 156.124 37.9347C156.218 38.0881 156.34 38.1974 156.491 38.2628C156.641 38.3253 156.802 38.3565 156.972 38.3565C157.072 38.3565 157.157 38.3509 157.228 38.3395C157.299 38.3253 157.362 38.3111 157.415 38.2969L157.577 38.983C157.504 39.0114 157.413 39.0369 157.305 39.0597C157.197 39.0852 157.063 39.098 156.904 39.098C156.626 39.098 156.357 39.0369 156.099 38.9148C155.843 38.7926 155.633 38.6108 155.468 38.3693C155.303 38.1278 155.221 37.8281 155.221 37.4702V30.8864ZM161.667 39.1364C161.056 39.1364 160.528 38.9943 160.082 38.7102C159.636 38.4233 159.291 38.027 159.047 37.5213C158.805 37.0128 158.684 36.4276 158.684 35.7656C158.684 35.1065 158.805 34.5213 159.047 34.0099C159.291 33.4957 159.627 33.0937 160.056 32.804C160.488 32.5114 160.987 32.3651 161.552 32.3651C161.907 32.3651 162.25 32.4304 162.579 32.5611C162.909 32.6889 163.204 32.8864 163.466 33.1534C163.73 33.4176 163.939 33.7514 164.092 34.1548C164.245 34.5554 164.322 35.0298 164.322 35.5781V35.9531H159.208V35.2841H163.547C163.547 34.8636 163.461 34.4858 163.291 34.1506C163.123 33.8125 162.889 33.5455 162.588 33.3494C162.289 33.1534 161.944 33.0554 161.552 33.0554C161.137 33.0554 160.772 33.1662 160.457 33.3878C160.142 33.6094 159.895 33.902 159.716 34.2656C159.539 34.6293 159.45 35.027 159.447 35.4588V35.8594C159.447 36.3793 159.537 36.8338 159.716 37.223C159.897 37.6094 160.154 37.9091 160.487 38.1222C160.819 38.3352 161.213 38.4418 161.667 38.4418C161.977 38.4418 162.248 38.3935 162.481 38.2969C162.717 38.2003 162.914 38.071 163.074 37.9091C163.235 37.7443 163.358 37.5639 163.44 37.3679L164.16 37.6023C164.061 37.8778 163.897 38.1321 163.67 38.3651C163.446 38.598 163.164 38.7855 162.826 38.9276C162.491 39.0668 162.105 39.1364 161.667 39.1364Z" fill="#555555"/>
<path d="M176.001 71.4545V62.4545H176.739V63.7031H176.828C176.919 63.5071 177.044 63.3068 177.203 63.1023C177.362 62.8949 177.572 62.7202 177.834 62.5781C178.098 62.4361 178.43 62.3651 178.831 62.3651C179.371 62.3651 179.842 62.5071 180.246 62.7912C180.652 63.0724 180.967 63.4673 181.192 63.9759C181.419 64.4815 181.533 65.071 181.533 65.7443C181.533 66.4205 181.419 67.0128 181.192 67.5213C180.967 68.0298 180.652 68.4261 180.246 68.7102C179.842 68.9943 179.374 69.1364 178.839 69.1364C178.445 69.1364 178.114 69.0653 177.847 68.9233C177.582 68.7812 177.368 68.6065 177.203 68.3991C177.041 68.1889 176.916 67.9844 176.828 67.7855H176.76V71.4545H176.001ZM176.751 65.7315C176.751 66.2599 176.83 66.7287 176.986 67.1378C177.145 67.544 177.372 67.8636 177.668 68.0966C177.966 68.3267 178.327 68.4418 178.75 68.4418C179.185 68.4418 179.551 68.3224 179.849 68.0838C180.151 67.8423 180.379 67.517 180.536 67.108C180.695 66.6989 180.774 66.2401 180.774 65.7315C180.774 65.2287 180.696 64.7756 180.54 64.3722C180.386 63.9687 180.159 63.6491 179.858 63.4134C179.557 63.1747 179.188 63.0554 178.75 63.0554C178.324 63.0554 177.962 63.1705 177.663 63.4006C177.365 63.6278 177.138 63.9432 176.982 64.3466C176.828 64.7472 176.751 65.2088 176.751 65.7315ZM183.197 69V62.4545H183.934V63.4602H183.989C184.12 63.1307 184.347 62.8651 184.671 62.6634C184.998 62.4588 185.367 62.3565 185.779 62.3565C185.842 62.3565 185.911 62.358 185.988 62.3608C186.065 62.3636 186.129 62.3665 186.18 62.3693V63.1406C186.146 63.1349 186.086 63.1264 186.001 63.1151C185.915 63.1037 185.823 63.098 185.724 63.098C185.383 63.098 185.079 63.1705 184.812 63.3153C184.548 63.4574 184.339 63.6548 184.185 63.9077C184.032 64.1605 183.955 64.4489 183.955 64.7727V69H183.197ZM189.819 69.1364C189.254 69.1364 188.754 68.9929 188.319 68.706C187.887 68.419 187.549 68.0227 187.305 67.517C187.06 67.0085 186.938 66.4219 186.938 65.7571C186.938 65.0866 187.06 64.4972 187.305 63.9886C187.549 63.4773 187.887 63.0795 188.319 62.7955C188.754 62.5085 189.254 62.3651 189.819 62.3651C190.384 62.3651 190.883 62.5085 191.315 62.7955C191.746 63.0824 192.085 63.4801 192.329 63.9886C192.576 64.4972 192.7 65.0866 192.7 65.7571C192.7 66.4219 192.577 67.0085 192.333 67.517C192.089 68.0227 191.749 68.419 191.315 68.706C190.883 68.9929 190.384 69.1364 189.819 69.1364ZM189.819 68.4418C190.273 68.4418 190.658 68.3196 190.974 68.0753C191.289 67.831 191.528 67.5057 191.69 67.0994C191.854 66.6932 191.937 66.2457 191.937 65.7571C191.937 65.2685 191.854 64.8196 191.69 64.4105C191.528 64.0014 191.289 63.6733 190.974 63.4261C190.658 63.179 190.273 63.0554 189.819 63.0554C189.367 63.0554 188.982 63.179 188.664 63.4261C188.349 63.6733 188.109 64.0014 187.944 64.4105C187.782 64.8196 187.701 65.2685 187.701 65.7571C187.701 66.2457 187.782 66.6932 187.944 67.0994C188.109 67.5057 188.349 67.831 188.664 68.0753C188.979 68.3196 189.364 68.4418 189.819 68.4418ZM196.943 62.4545V63.1151H193.819V62.4545H196.943ZM194.795 60.8864H195.558V67.2912C195.558 67.5639 195.605 67.7784 195.699 67.9347C195.792 68.0881 195.914 68.1974 196.065 68.2628C196.216 68.3253 196.376 68.3565 196.547 68.3565C196.646 68.3565 196.731 68.3509 196.802 68.3395C196.873 68.3253 196.936 68.3111 196.99 68.2969L197.152 68.983C197.078 69.0114 196.987 69.0369 196.879 69.0597C196.771 69.0852 196.637 69.098 196.478 69.098C196.2 69.098 195.931 69.0369 195.673 68.9148C195.417 68.7926 195.207 68.6108 195.042 68.3693C194.877 68.1278 194.795 67.8281 194.795 67.4702V60.8864ZM201.139 69.1364C200.574 69.1364 200.074 68.9929 199.639 68.706C199.207 68.419 198.869 68.0227 198.625 67.517C198.381 67.0085 198.259 66.4219 198.259 65.7571C198.259 65.0866 198.381 64.4972 198.625 63.9886C198.869 63.4773 199.207 63.0795 199.639 62.7955C200.074 62.5085 200.574 62.3651 201.139 62.3651C201.705 62.3651 202.203 62.5085 202.635 62.7955C203.067 63.0824 203.405 63.4801 203.649 63.9886C203.896 64.4972 204.02 65.0866 204.02 65.7571C204.02 66.4219 203.898 67.0085 203.653 67.517C203.409 68.0227 203.07 68.419 202.635 68.706C202.203 68.9929 201.705 69.1364 201.139 69.1364ZM201.139 68.4418C201.594 68.4418 201.979 68.3196 202.294 68.0753C202.609 67.831 202.848 67.5057 203.01 67.0994C203.175 66.6932 203.257 66.2457 203.257 65.7571C203.257 65.2685 203.175 64.8196 203.01 64.4105C202.848 64.0014 202.609 63.6733 202.294 63.4261C201.979 63.179 201.594 63.0554 201.139 63.0554C200.688 63.0554 200.303 63.179 199.984 63.4261C199.669 63.6733 199.429 64.0014 199.264 64.4105C199.102 64.8196 199.021 65.2685 199.021 65.7571C199.021 66.2457 199.102 66.6932 199.264 67.0994C199.429 67.5057 199.669 67.831 199.984 68.0753C200.3 68.3196 200.685 68.4418 201.139 68.4418ZM208.263 62.4545V63.1151H205.14V62.4545H208.263ZM206.115 60.8864H206.878V67.2912C206.878 67.5639 206.925 67.7784 207.019 67.9347C207.113 68.0881 207.235 68.1974 207.385 68.2628C207.536 68.3253 207.696 68.3565 207.867 68.3565C207.966 68.3565 208.051 68.3509 208.123 68.3395C208.194 68.3253 208.256 68.3111 208.31 68.2969L208.472 68.983C208.398 69.0114 208.307 69.0369 208.199 69.0597C208.091 69.0852 207.958 69.098 207.799 69.098C207.52 69.098 207.252 69.0369 206.993 68.9148C206.738 68.7926 206.527 68.6108 206.363 68.3693C206.198 68.1278 206.115 67.8281 206.115 67.4702V60.8864ZM210.514 71.4545C210.364 71.4545 210.223 71.4403 210.092 71.4119C209.962 71.3835 209.858 71.3523 209.781 71.3182L209.986 70.6491C210.244 70.7287 210.474 70.7571 210.676 70.7344C210.878 70.7145 211.057 70.6236 211.213 70.4616C211.369 70.3026 211.509 70.0582 211.631 69.7287L211.869 69.0639L209.462 62.4545H210.284L212.227 67.9986H212.287L214.23 62.4545H215.053L212.283 70.0355C212.166 70.3509 212.023 70.6136 211.852 70.8239C211.682 71.0369 211.484 71.1946 211.26 71.2969C211.038 71.402 210.79 71.4545 210.514 71.4545ZM216.537 71.4545V62.4545H217.274V63.7031H217.363C217.454 63.5071 217.579 63.3068 217.738 63.1023C217.897 62.8949 218.108 62.7202 218.369 62.5781C218.633 62.4361 218.966 62.3651 219.366 62.3651C219.906 62.3651 220.377 62.5071 220.781 62.7912C221.187 63.0724 221.502 63.4673 221.727 63.9759C221.954 64.4815 222.068 65.071 222.068 65.7443C222.068 66.4205 221.954 67.0128 221.727 67.5213C221.502 68.0298 221.187 68.4261 220.781 68.7102C220.377 68.9943 219.909 69.1364 219.375 69.1364C218.98 69.1364 218.649 69.0653 218.382 68.9233C218.118 68.7812 217.903 68.6065 217.738 68.3991C217.576 68.1889 217.451 67.9844 217.363 67.7855H217.295V71.4545H216.537ZM217.287 65.7315C217.287 66.2599 217.365 66.7287 217.521 67.1378C217.68 67.544 217.907 67.8636 218.203 68.0966C218.501 68.3267 218.862 68.4418 219.285 68.4418C219.72 68.4418 220.086 68.3224 220.385 68.0838C220.686 67.8423 220.914 67.517 221.071 67.108C221.23 66.6989 221.309 66.2401 221.309 65.7315C221.309 65.2287 221.231 64.7756 221.075 64.3722C220.922 63.9687 220.694 63.6491 220.393 63.4134C220.092 63.1747 219.723 63.0554 219.285 63.0554C218.859 63.0554 218.497 63.1705 218.199 63.4006C217.9 63.6278 217.673 63.9432 217.517 64.3466C217.363 64.7472 217.287 65.2088 217.287 65.7315ZM226.378 69.1364C225.767 69.1364 225.239 68.9943 224.793 68.7102C224.347 68.4233 224.002 68.027 223.757 67.5213C223.516 67.0128 223.395 66.4276 223.395 65.7656C223.395 65.1065 223.516 64.5213 223.757 64.0099C224.002 63.4957 224.338 63.0937 224.767 62.804C225.199 62.5114 225.698 62.3651 226.263 62.3651C226.618 62.3651 226.961 62.4304 227.29 62.5611C227.62 62.6889 227.915 62.8864 228.176 63.1534C228.441 63.4176 228.65 63.7514 228.803 64.1548C228.956 64.5554 229.033 65.0298 229.033 65.5781V65.9531H223.919V65.2841H228.257C228.257 64.8636 228.172 64.4858 228.002 64.1506C227.834 63.8125 227.6 63.5455 227.299 63.3494C227 63.1534 226.655 63.0554 226.263 63.0554C225.848 63.0554 225.483 63.1662 225.168 63.3878C224.853 63.6094 224.605 63.902 224.426 64.2656C224.25 64.6293 224.161 65.027 224.158 65.4588V65.8594C224.158 66.3793 224.248 66.8338 224.426 67.223C224.608 67.6094 224.865 67.9091 225.198 68.1222C225.53 68.3352 225.924 68.4418 226.378 68.4418C226.688 68.4418 226.959 68.3935 227.192 68.2969C227.428 68.2003 227.625 68.071 227.784 67.9091C227.946 67.7443 228.069 67.5639 228.151 67.3679L228.871 67.6023C228.772 67.8778 228.608 68.1321 228.381 68.3651C228.157 68.598 227.875 68.7855 227.537 68.9276C227.202 69.0668 226.816 69.1364 226.378 69.1364Z" fill="#555555"/>
<path d="M249.58 95.4545V96.1151H246.456V95.4545H249.58ZM247.432 93.8864H248.195V100.291C248.195 100.564 248.241 100.778 248.335 100.935C248.429 101.088 248.551 101.197 248.702 101.263C248.852 101.325 249.013 101.357 249.183 101.357C249.283 101.357 249.368 101.351 249.439 101.339C249.51 101.325 249.572 101.311 249.626 101.297L249.788 101.983C249.714 102.011 249.624 102.037 249.516 102.06C249.408 102.085 249.274 102.098 249.115 102.098C248.837 102.098 248.568 102.037 248.31 101.915C248.054 101.793 247.844 101.611 247.679 101.369C247.514 101.128 247.432 100.828 247.432 100.47V93.8864ZM253.878 102.136C253.267 102.136 252.739 101.994 252.293 101.71C251.847 101.423 251.502 101.027 251.257 100.521C251.016 100.013 250.895 99.4276 250.895 98.7656C250.895 98.1065 251.016 97.5213 251.257 97.0099C251.502 96.4957 251.838 96.0937 252.267 95.804C252.699 95.5114 253.198 95.3651 253.763 95.3651C254.118 95.3651 254.461 95.4304 254.79 95.5611C255.12 95.6889 255.415 95.8864 255.676 96.1534C255.941 96.4176 256.15 96.7514 256.303 97.1548C256.456 97.5554 256.533 98.0298 256.533 98.5781V98.9531H251.419V98.2841H255.757C255.757 97.8636 255.672 97.4858 255.502 97.1506C255.334 96.8125 255.1 96.5455 254.799 96.3494C254.5 96.1534 254.155 96.0554 253.763 96.0554C253.348 96.0554 252.983 96.1662 252.668 96.3878C252.353 96.6094 252.105 96.902 251.926 97.2656C251.75 97.6293 251.661 98.027 251.658 98.4588V98.8594C251.658 99.3793 251.748 99.8338 251.926 100.223C252.108 100.609 252.365 100.909 252.698 101.122C253.03 101.335 253.424 101.442 253.878 101.442C254.188 101.442 254.459 101.393 254.692 101.297C254.928 101.2 255.125 101.071 255.284 100.909C255.446 100.744 255.569 100.564 255.651 100.368L256.371 100.602C256.272 100.878 256.108 101.132 255.881 101.365C255.657 101.598 255.375 101.786 255.037 101.928C254.702 102.067 254.316 102.136 253.878 102.136ZM262.602 96.8906L261.908 97.0866C261.839 96.8906 261.743 96.7131 261.618 96.554C261.493 96.3949 261.33 96.2685 261.128 96.1747C260.929 96.081 260.682 96.0341 260.386 96.0341C259.943 96.0341 259.58 96.1392 259.295 96.3494C259.011 96.5597 258.869 96.831 258.869 97.1634C258.869 97.4446 258.966 97.6733 259.159 97.8494C259.355 98.0227 259.656 98.1605 260.062 98.2628L261.051 98.5057C261.599 98.6392 262.01 98.8509 262.283 99.1406C262.558 99.4304 262.696 99.794 262.696 100.232C262.696 100.601 262.594 100.929 262.389 101.216C262.185 101.503 261.899 101.729 261.533 101.893C261.169 102.055 260.747 102.136 260.267 102.136C259.628 102.136 259.101 101.993 258.686 101.706C258.271 101.416 258.006 100.999 257.889 100.453L258.618 100.274C258.712 100.663 258.895 100.957 259.168 101.156C259.443 101.355 259.805 101.455 260.254 101.455C260.757 101.455 261.159 101.342 261.46 101.118C261.761 100.891 261.912 100.607 261.912 100.266C261.912 100.001 261.824 99.7798 261.648 99.6009C261.472 99.419 261.205 99.2855 260.847 99.2003L259.777 98.9446C259.209 98.8082 258.788 98.5923 258.516 98.2969C258.243 98.0014 258.107 97.6349 258.107 97.1974C258.107 96.8366 258.205 96.5199 258.401 96.2472C258.597 95.9716 258.866 95.7557 259.21 95.5994C259.554 95.4432 259.946 95.3651 260.386 95.3651C260.986 95.3651 261.464 95.5014 261.822 95.7741C262.183 96.044 262.443 96.4162 262.602 96.8906ZM266.935 95.4545V96.1151H263.811V95.4545H266.935ZM264.787 93.8864H265.55V100.291C265.55 100.564 265.597 100.778 265.691 100.935C265.784 101.088 265.907 101.197 266.057 101.263C266.208 101.325 266.368 101.357 266.539 101.357C266.638 101.357 266.723 101.351 266.794 101.339C266.865 101.325 266.928 101.311 266.982 101.297L267.144 101.983C267.07 102.011 266.979 102.037 266.871 102.06C266.763 102.085 266.63 102.098 266.471 102.098C266.192 102.098 265.924 102.037 265.665 101.915C265.409 101.793 265.199 101.611 265.034 101.369C264.87 101.128 264.787 100.828 264.787 100.47V93.8864Z" fill="#555555"/>
</svg>
