<svg width="73" height="73" viewBox="0 0 73 73" fill="none" xmlns="http://www.w3.org/2000/svg">
<path d="M18.5398 67.6099L0.577359 36.5L18.5398 5.39008L54.4647 5.39008L72.4272 36.5L54.4647 67.6099L18.5398 67.6099Z" stroke="#555555"/>
<path d="M11.0014 39.4545V30.4545H11.7386V31.7031H11.8281C11.919 31.5071 12.044 31.3068 12.2031 31.1023C12.3622 30.8949 12.5724 30.7202 12.8338 30.5781C13.098 30.4361 13.4304 30.3651 13.831 30.3651C14.3707 30.3651 14.8423 30.5071 15.2457 30.7912C15.652 31.0724 15.9673 31.4673 16.1918 31.9759C16.419 32.4815 16.5327 33.071 16.5327 33.7443C16.5327 34.4205 16.419 35.0128 16.1918 35.5213C15.9673 36.0298 15.652 36.4261 15.2457 36.7102C14.8423 36.9943 14.3736 37.1364 13.8395 37.1364C13.4446 37.1364 13.1136 37.0653 12.8466 36.9233C12.5824 36.7812 12.3679 36.6065 12.2031 36.3991C12.0412 36.1889 11.9162 35.9844 11.8281 35.7855H11.7599V39.4545H11.0014ZM11.7514 33.7315C11.7514 34.2599 11.8295 34.7287 11.9858 35.1378C12.1449 35.544 12.3722 35.8636 12.6676 36.0966C12.9659 36.3267 13.3267 36.4418 13.75 36.4418C14.1847 36.4418 14.5511 36.3224 14.8494 36.0838C15.1506 35.8423 15.3793 35.517 15.5355 35.108C15.6946 34.6989 15.7741 34.2401 15.7741 33.7315C15.7741 33.2287 15.696 32.7756 15.5398 32.3722C15.3864 31.9687 15.1591 31.6491 14.858 31.4134C14.5568 31.1747 14.1875 31.0554 13.75 31.0554C13.3239 31.0554 12.9616 31.1705 12.6634 31.4006C12.3651 31.6278 12.1378 31.9432 11.9815 32.3466C11.8281 32.7472 11.7514 33.2088 11.7514 33.7315ZM18.1967 37V30.4545H18.9339V31.4602H18.9893C19.12 31.1307 19.3473 30.8651 19.6712 30.6634C19.9979 30.4588 20.3672 30.3565 20.7791 30.3565C20.8416 30.3565 20.9112 30.358 20.9879 30.3608C21.0646 30.3636 21.1286 30.3665 21.1797 30.3693V31.1406C21.1456 31.1349 21.0859 31.1264 21.0007 31.1151C20.9155 31.1037 20.8232 31.098 20.7237 31.098C20.3828 31.098 20.0788 31.1705 19.8118 31.3153C19.5476 31.4574 19.3388 31.6548 19.1854 31.9077C19.032 32.1605 18.9553 32.4489 18.9553 32.7727V37H18.1967ZM24.8189 37.1364C24.2536 37.1364 23.7536 36.9929 23.3189 36.706C22.8871 36.419 22.549 36.0227 22.3047 35.517C22.0604 35.0085 21.9382 34.4219 21.9382 33.7571C21.9382 33.0866 22.0604 32.4972 22.3047 31.9886C22.549 31.4773 22.8871 31.0795 23.3189 30.7955C23.7536 30.5085 24.2536 30.3651 24.8189 30.3651C25.3842 30.3651 25.8828 30.5085 26.3146 30.7955C26.7464 31.0824 27.0845 31.4801 27.3288 31.9886C27.576 32.4972 27.6996 33.0866 27.6996 33.7571C27.6996 34.4219 27.5774 35.0085 27.3331 35.517C27.0888 36.0227 26.7493 36.419 26.3146 36.706C25.8828 36.9929 25.3842 37.1364 24.8189 37.1364ZM24.8189 36.4418C25.2734 36.4418 25.6584 36.3196 25.9737 36.0753C26.2891 35.831 26.5277 35.5057 26.6896 35.0994C26.8544 34.6932 26.9368 34.2457 26.9368 33.7571C26.9368 33.2685 26.8544 32.8196 26.6896 32.4105C26.5277 32.0014 26.2891 31.6733 25.9737 31.4261C25.6584 31.179 25.2734 31.0554 24.8189 31.0554C24.3672 31.0554 23.9822 31.179 23.6641 31.4261C23.3487 31.6733 23.1087 32.0014 22.9439 32.4105C22.782 32.8196 22.701 33.2685 22.701 33.7571C22.701 34.2457 22.782 34.6932 22.9439 35.0994C23.1087 35.5057 23.3487 35.831 23.6641 36.0753C23.9794 36.3196 24.3643 36.4418 24.8189 36.4418ZM31.9428 30.4545V31.1151H28.8192V30.4545H31.9428ZM29.7951 28.8864H30.5579V35.2912C30.5579 35.5639 30.6048 35.7784 30.6985 35.9347C30.7923 36.0881 30.9144 36.1974 31.065 36.2628C31.2156 36.3253 31.3761 36.3565 31.5465 36.3565C31.646 36.3565 31.7312 36.3509 31.8022 36.3395C31.8732 36.3253 31.9357 36.3111 31.9897 36.2969L32.1516 36.983C32.0778 37.0114 31.9869 37.0369 31.8789 37.0597C31.771 37.0852 31.6374 37.098 31.4783 37.098C31.1999 37.098 30.9315 37.0369 30.6729 36.9148C30.4173 36.7926 30.207 36.6108 30.0423 36.3693C29.8775 36.1278 29.7951 35.8281 29.7951 35.4702V28.8864ZM36.1392 37.1364C35.5739 37.1364 35.0739 36.9929 34.6392 36.706C34.2074 36.419 33.8693 36.0227 33.625 35.517C33.3807 35.0085 33.2585 34.4219 33.2585 33.7571C33.2585 33.0866 33.3807 32.4972 33.625 31.9886C33.8693 31.4773 34.2074 31.0795 34.6392 30.7955C35.0739 30.5085 35.5739 30.3651 36.1392 30.3651C36.7045 30.3651 37.2031 30.5085 37.6349 30.7955C38.0668 31.0824 38.4048 31.4801 38.6491 31.9886C38.8963 32.4972 39.0199 33.0866 39.0199 33.7571C39.0199 34.4219 38.8977 35.0085 38.6534 35.517C38.4091 36.0227 38.0696 36.419 37.6349 36.706C37.2031 36.9929 36.7045 37.1364 36.1392 37.1364ZM36.1392 36.4418C36.5938 36.4418 36.9787 36.3196 37.294 36.0753C37.6094 35.831 37.848 35.5057 38.0099 35.0994C38.1747 34.6932 38.2571 34.2457 38.2571 33.7571C38.2571 33.2685 38.1747 32.8196 38.0099 32.4105C37.848 32.0014 37.6094 31.6733 37.294 31.4261C36.9787 31.179 36.5938 31.0554 36.1392 31.0554C35.6875 31.0554 35.3026 31.179 34.9844 31.4261C34.669 31.6733 34.429 32.0014 34.2642 32.4105C34.1023 32.8196 34.0213 33.2685 34.0213 33.7571C34.0213 34.2457 34.1023 34.6932 34.2642 35.0994C34.429 35.5057 34.669 35.831 34.9844 36.0753C35.2997 36.3196 35.6847 36.4418 36.1392 36.4418ZM43.2631 30.4545V31.1151H40.1396V30.4545H43.2631ZM41.1154 28.8864H41.8782V35.2912C41.8782 35.5639 41.9251 35.7784 42.0188 35.9347C42.1126 36.0881 42.2347 36.1974 42.3853 36.2628C42.5359 36.3253 42.6964 36.3565 42.8668 36.3565C42.9663 36.3565 43.0515 36.3509 43.1225 36.3395C43.1935 36.3253 43.256 36.3111 43.31 36.2969L43.4719 36.983C43.3981 37.0114 43.3072 37.0369 43.1992 37.0597C43.0913 37.0852 42.9577 37.098 42.7987 37.098C42.5202 37.098 42.2518 37.0369 41.9933 36.9148C41.7376 36.7926 41.5273 36.6108 41.3626 36.3693C41.1978 36.1278 41.1154 35.8281 41.1154 35.4702V28.8864ZM45.5142 39.4545C45.3636 39.4545 45.223 39.4403 45.0923 39.4119C44.9616 39.3835 44.858 39.3523 44.7812 39.3182L44.9858 38.6491C45.2443 38.7287 45.4744 38.7571 45.6761 38.7344C45.8778 38.7145 46.0568 38.6236 46.2131 38.4616C46.3693 38.3026 46.5085 38.0582 46.6307 37.7287L46.8693 37.0639L44.4616 30.4545H45.2841L47.2273 35.9986H47.2869L49.2301 30.4545H50.0526L47.2827 38.0355C47.1662 38.3509 47.0227 38.6136 46.8523 38.8239C46.6818 39.0369 46.4844 39.1946 46.2599 39.2969C46.0384 39.402 45.7898 39.4545 45.5142 39.4545ZM51.5366 39.4545V30.4545H52.2738V31.7031H52.3633C52.4542 31.5071 52.5792 31.3068 52.7383 31.1023C52.8974 30.8949 53.1076 30.7202 53.369 30.5781C53.6332 30.4361 53.9656 30.3651 54.3661 30.3651C54.9059 30.3651 55.3775 30.5071 55.7809 30.7912C56.1871 31.0724 56.5025 31.4673 56.7269 31.9759C56.9542 32.4815 57.0678 33.071 57.0678 33.7443C57.0678 34.4205 56.9542 35.0128 56.7269 35.5213C56.5025 36.0298 56.1871 36.4261 55.7809 36.7102C55.3775 36.9943 54.9087 37.1364 54.3746 37.1364C53.9798 37.1364 53.6488 37.0653 53.3817 36.9233C53.1175 36.7812 52.9031 36.6065 52.7383 36.3991C52.5763 36.1889 52.4513 35.9844 52.3633 35.7855H52.2951V39.4545H51.5366ZM52.2866 33.7315C52.2866 34.2599 52.3647 34.7287 52.521 35.1378C52.68 35.544 52.9073 35.8636 53.2028 36.0966C53.5011 36.3267 53.8619 36.4418 54.2852 36.4418C54.7198 36.4418 55.0863 36.3224 55.3846 36.0838C55.6857 35.8423 55.9144 35.517 56.0707 35.108C56.2298 34.6989 56.3093 34.2401 56.3093 33.7315C56.3093 33.2287 56.2312 32.7756 56.0749 32.3722C55.9215 31.9687 55.6942 31.6491 55.3931 31.4134C55.092 31.1747 54.7227 31.0554 54.2852 31.0554C53.859 31.0554 53.4968 31.1705 53.1985 31.4006C52.9002 31.6278 52.6729 31.9432 52.5167 32.3466C52.3633 32.7472 52.2866 33.2088 52.2866 33.7315ZM61.3782 37.1364C60.7674 37.1364 60.239 36.9943 59.793 36.7102C59.3469 36.4233 59.0018 36.027 58.7575 35.5213C58.516 35.0128 58.3952 34.4276 58.3952 33.7656C58.3952 33.1065 58.516 32.5213 58.7575 32.0099C59.0018 31.4957 59.3384 31.0937 59.7674 30.804C60.1992 30.5114 60.6978 30.3651 61.2631 30.3651C61.6183 30.3651 61.9606 30.4304 62.2901 30.5611C62.6197 30.6889 62.9151 30.8864 63.1765 31.1534C63.4407 31.4176 63.6495 31.7514 63.8029 32.1548C63.9563 32.5554 64.033 33.0298 64.033 33.5781V33.9531H58.9194V33.2841H63.2575C63.2575 32.8636 63.1722 32.4858 63.0018 32.1506C62.8342 31.8125 62.5998 31.5455 62.2987 31.3494C62.0004 31.1534 61.6552 31.0554 61.2631 31.0554C60.8484 31.0554 60.4833 31.1662 60.168 31.3878C59.8526 31.6094 59.6055 31.902 59.4265 32.2656C59.2504 32.6293 59.1609 33.027 59.158 33.4588V33.8594C59.158 34.3793 59.2475 34.8338 59.4265 35.223C59.6083 35.6094 59.8654 35.9091 60.1978 36.1222C60.5302 36.3352 60.9237 36.4418 61.3782 36.4418C61.6879 36.4418 61.9592 36.3935 62.1921 36.2969C62.4279 36.2003 62.6254 36.071 62.7844 35.9091C62.9464 35.7443 63.0685 35.5639 63.1509 35.3679L63.8711 35.6023C63.7717 35.8778 63.6083 36.1321 63.381 36.3651C63.1566 36.598 62.8754 36.7855 62.5373 36.9276C62.2021 37.0668 61.8157 37.1364 61.3782 37.1364Z" fill="#555555"/>
</svg>
