<svg width="73" height="73" viewBox="0 0 73 73" fill="none" xmlns="http://www.w3.org/2000/svg">
<path d="M18.5398 67.6099L0.577359 36.5L18.5398 5.39008L54.4647 5.39008L72.4272 36.5L54.4647 67.6099L18.5398 67.6099Z" fill="#555555" stroke="#555555"/>
<path d="M21.358 37.1364C20.821 37.1364 20.3509 36.9943 19.9474 36.7102C19.544 36.4261 19.2287 36.0298 19.0014 35.5213C18.777 35.0128 18.6648 34.4205 18.6648 33.7443C18.6648 33.071 18.777 32.4815 19.0014 31.9759C19.2287 31.4673 19.5455 31.0724 19.9517 30.7912C20.358 30.5071 20.831 30.3651 21.3707 30.3651C21.7685 30.3651 22.0994 30.4361 22.3636 30.5781C22.6278 30.7173 22.8395 30.8906 22.9986 31.098C23.1577 31.3054 23.2813 31.5071 23.3693 31.7031H23.4375V28.2727H24.2003V37H23.4588V35.7855H23.3693C23.2813 35.9844 23.1563 36.1889 22.9943 36.3991C22.8324 36.6065 22.6179 36.7812 22.3509 36.9233C22.0866 37.0653 21.7557 37.1364 21.358 37.1364ZM21.4474 36.4418C21.8707 36.4418 22.2315 36.3267 22.5298 36.0966C22.8281 35.8636 23.0554 35.544 23.2116 35.1378C23.3707 34.7287 23.4503 34.2599 23.4503 33.7315C23.4503 33.2088 23.3722 32.7472 23.2159 32.3466C23.0597 31.9432 22.8324 31.6278 22.5341 31.4006C22.2358 31.1705 21.8736 31.0554 21.4474 31.0554C21.0099 31.0554 20.6406 31.1747 20.3395 31.4134C20.0412 31.6491 19.8139 31.9687 19.6577 32.3722C19.5043 32.7756 19.4276 33.2287 19.4276 33.7315C19.4276 34.2401 19.5057 34.6989 19.6619 35.108C19.8182 35.517 20.0455 35.8423 20.3438 36.0838C20.6449 36.3224 21.0128 36.4418 21.4474 36.4418ZM29.0071 37.1364C28.3963 37.1364 27.8679 36.9943 27.4219 36.7102C26.9759 36.4233 26.6307 36.027 26.3864 35.5213C26.1449 35.0128 26.0241 34.4276 26.0241 33.7656C26.0241 33.1065 26.1449 32.5213 26.3864 32.0099C26.6307 31.4957 26.9673 31.0937 27.3963 30.804C27.8281 30.5114 28.3267 30.3651 28.892 30.3651C29.2472 30.3651 29.5895 30.4304 29.919 30.5611C30.2486 30.6889 30.544 30.8864 30.8054 31.1534C31.0696 31.4176 31.2784 31.7514 31.4318 32.1548C31.5852 32.5554 31.6619 33.0298 31.6619 33.5781V33.9531H26.5483V33.2841H30.8864C30.8864 32.8636 30.8011 32.4858 30.6307 32.1506C30.4631 31.8125 30.2287 31.5455 29.9276 31.3494C29.6293 31.1534 29.2841 31.0554 28.892 31.0554C28.4773 31.0554 28.1122 31.1662 27.7969 31.3878C27.4815 31.6094 27.2344 31.902 27.0554 32.2656C26.8793 32.6293 26.7898 33.027 26.7869 33.4588V33.8594C26.7869 34.3793 26.8764 34.8338 27.0554 35.223C27.2372 35.6094 27.4943 35.9091 27.8267 36.1222C28.1591 36.3352 28.5526 36.4418 29.0071 36.4418C29.3168 36.4418 29.5881 36.3935 29.821 36.2969C30.0568 36.2003 30.2543 36.071 30.4134 35.9091C30.5753 35.7443 30.6974 35.5639 30.7798 35.3679L31.5 35.6023C31.4006 35.8778 31.2372 36.1321 31.0099 36.3651C30.7855 36.598 30.5043 36.7855 30.1662 36.9276C29.831 37.0668 29.4446 37.1364 29.0071 37.1364ZM36.0266 30.4545V31.1151H32.8093V30.4545H36.0266ZM33.815 37V29.4957C33.815 29.1435 33.896 28.8466 34.0579 28.6051C34.2227 28.3636 34.4371 28.1804 34.7013 28.0554C34.9656 27.9304 35.2454 27.8679 35.5408 27.8679C35.7397 27.8679 35.9045 27.8849 36.0352 27.919C36.1687 27.9503 36.2738 27.9815 36.3505 28.0128L36.1289 28.6776C36.0721 28.6605 36.0025 28.6406 35.9201 28.6179C35.8377 28.5952 35.734 28.5838 35.609 28.5838C35.2795 28.5838 35.0252 28.6761 34.8462 28.8608C34.6673 29.0455 34.5778 29.3097 34.5778 29.6534L34.5735 37H33.815ZM37.549 37V30.4545H38.3118V37H37.549ZM37.9368 29.3295C37.7805 29.3295 37.647 29.277 37.5362 29.1719C37.4254 29.0639 37.37 28.9347 37.37 28.7841C37.37 28.6335 37.4254 28.5057 37.5362 28.4006C37.647 28.2926 37.7805 28.2386 37.9368 28.2386C38.093 28.2386 38.2266 28.2926 38.3374 28.4006C38.4482 28.5057 38.5036 28.6335 38.5036 28.7841C38.5036 28.9347 38.4482 29.0639 38.3374 29.1719C38.2266 29.277 38.093 29.3295 37.9368 29.3295ZM41.0763 32.9091V37H40.3178V30.4545H41.055V31.4815H41.1232C41.2766 31.1463 41.5153 30.8778 41.8391 30.6761C42.1658 30.4716 42.5692 30.3693 43.0494 30.3693C43.4897 30.3693 43.8761 30.4616 44.2085 30.6463C44.5437 30.8281 44.8036 31.0966 44.9883 31.4517C45.1758 31.8068 45.2695 32.2429 45.2695 32.7599V37H44.511V32.8068C44.511 32.2699 44.3604 31.8452 44.0593 31.5327C43.761 31.2202 43.3604 31.0639 42.8576 31.0639C42.5138 31.0639 42.2085 31.1378 41.9414 31.2855C41.6744 31.4332 41.4627 31.6463 41.3065 31.9247C41.1531 32.2003 41.0763 32.5284 41.0763 32.9091ZM49.9134 37.1364C49.3026 37.1364 48.7741 36.9943 48.3281 36.7102C47.8821 36.4233 47.5369 36.027 47.2926 35.5213C47.0511 35.0128 46.9304 34.4276 46.9304 33.7656C46.9304 33.1065 47.0511 32.5213 47.2926 32.0099C47.5369 31.4957 47.8736 31.0937 48.3026 30.804C48.7344 30.5114 49.233 30.3651 49.7983 30.3651C50.1534 30.3651 50.4957 30.4304 50.8253 30.5611C51.1548 30.6889 51.4503 30.8864 51.7116 31.1534C51.9759 31.4176 52.1847 31.7514 52.3381 32.1548C52.4915 32.5554 52.5682 33.0298 52.5682 33.5781V33.9531H47.4545V33.2841H51.7926C51.7926 32.8636 51.7074 32.4858 51.5369 32.1506C51.3693 31.8125 51.1349 31.5455 50.8338 31.3494C50.5355 31.1534 50.1903 31.0554 49.7983 31.0554C49.3835 31.0554 49.0185 31.1662 48.7031 31.3878C48.3878 31.6094 48.1406 31.902 47.9616 32.2656C47.7855 32.6293 47.696 33.027 47.6932 33.4588V33.8594C47.6932 34.3793 47.7827 34.8338 47.9616 35.223C48.1435 35.6094 48.4006 35.9091 48.733 36.1222C49.0653 36.3352 49.4588 36.4418 49.9134 36.4418C50.223 36.4418 50.4943 36.3935 50.7273 36.2969C50.9631 36.2003 51.1605 36.071 51.3196 35.9091C51.4815 35.7443 51.6037 35.5639 51.6861 35.3679L52.4062 35.6023C52.3068 35.8778 52.1435 36.1321 51.9162 36.3651C51.6918 36.598 51.4105 36.7855 51.0724 36.9276C50.7372 37.0668 50.3509 37.1364 49.9134 37.1364Z" fill="white"/>
</svg>
