<svg width="73" height="73" viewBox="0 0 73 73" fill="none" xmlns="http://www.w3.org/2000/svg">
<path d="M18.5398 67.6099L0.577359 36.5L18.5398 5.39008L54.4647 5.39008L72.4272 36.5L54.4647 67.6099L18.5398 67.6099Z" stroke="#555555"/>
<path d="M21.0099 39V32.4545H21.7727V39H21.0099ZM21.3977 31.3295C21.2415 31.3295 21.108 31.277 20.9972 31.1719C20.8864 31.0639 20.831 30.9347 20.831 30.7841C20.831 30.6335 20.8864 30.5057 20.9972 30.4006C21.108 30.2926 21.2415 30.2386 21.3977 30.2386C21.554 30.2386 21.6875 30.2926 21.7983 30.4006C21.9091 30.5057 21.9645 30.6335 21.9645 30.7841C21.9645 30.9347 21.9091 31.0639 21.7983 31.1719C21.6875 31.277 21.554 31.3295 21.3977 31.3295ZM26.1353 39.1364C25.5984 39.1364 25.1282 38.9943 24.7248 38.7102C24.3214 38.4261 24.006 38.0298 23.7788 37.5213C23.5543 37.0128 23.4421 36.4205 23.4421 35.7443C23.4421 35.071 23.5543 34.4815 23.7788 33.9759C24.006 33.4673 24.3228 33.0724 24.729 32.7912C25.1353 32.5071 25.6083 32.3651 26.1481 32.3651C26.5458 32.3651 26.8768 32.4361 27.141 32.5781C27.4052 32.7173 27.6168 32.8906 27.7759 33.098C27.935 33.3054 28.0586 33.5071 28.1467 33.7031H28.2148V30.2727H28.9776V39H28.2362V37.7855H28.1467C28.0586 37.9844 27.9336 38.1889 27.7717 38.3991C27.6097 38.6065 27.3952 38.7812 27.1282 38.9233C26.864 39.0653 26.533 39.1364 26.1353 39.1364ZM26.2248 38.4418C26.6481 38.4418 27.0089 38.3267 27.3072 38.0966C27.6055 37.8636 27.8327 37.544 27.989 37.1378C28.1481 36.7287 28.2276 36.2599 28.2276 35.7315C28.2276 35.2088 28.1495 34.7472 27.9933 34.3466C27.837 33.9432 27.6097 33.6278 27.3114 33.4006C27.0131 33.1705 26.6509 33.0554 26.2248 33.0554C25.7873 33.0554 25.418 33.1747 25.1168 33.4134C24.8185 33.6491 24.5913 33.9687 24.435 34.3722C24.2816 34.7756 24.2049 35.2287 24.2049 35.7315C24.2049 36.2401 24.283 36.6989 24.4393 37.108C24.5955 37.517 24.8228 37.8423 25.1211 38.0838C25.4222 38.3224 25.7901 38.4418 26.2248 38.4418ZM33.7844 39.1364C33.1737 39.1364 32.6452 38.9943 32.1992 38.7102C31.7532 38.4233 31.408 38.027 31.1637 37.5213C30.9222 37.0128 30.8015 36.4276 30.8015 35.7656C30.8015 35.1065 30.9222 34.5213 31.1637 34.0099C31.408 33.4957 31.7447 33.0937 32.1737 32.804C32.6055 32.5114 33.104 32.3651 33.6694 32.3651C34.0245 32.3651 34.3668 32.4304 34.6964 32.5611C35.0259 32.6889 35.3214 32.8864 35.5827 33.1534C35.8469 33.4176 36.0558 33.7514 36.2092 34.1548C36.3626 34.5554 36.4393 35.0298 36.4393 35.5781V35.9531H31.3256V35.2841H35.6637C35.6637 34.8636 35.5785 34.4858 35.408 34.1506C35.2404 33.8125 35.006 33.5455 34.7049 33.3494C34.4066 33.1534 34.0614 33.0554 33.6694 33.0554C33.2546 33.0554 32.8896 33.1662 32.5742 33.3878C32.2589 33.6094 32.0117 33.902 31.8327 34.2656C31.6566 34.6293 31.5671 35.027 31.5643 35.4588V35.8594C31.5643 36.3793 31.6538 36.8338 31.8327 37.223C32.0146 37.6094 32.2717 37.9091 32.604 38.1222C32.9364 38.3352 33.3299 38.4418 33.7844 38.4418C34.0941 38.4418 34.3654 38.3935 34.5984 38.2969C34.8342 38.2003 35.0316 38.071 35.1907 37.9091C35.3526 37.7443 35.4748 37.5639 35.5572 37.3679L36.2773 37.6023C36.1779 37.8778 36.0146 38.1321 35.7873 38.3651C35.5629 38.598 35.2816 38.7855 34.9435 38.9276C34.6083 39.0668 34.2219 39.1364 33.7844 39.1364ZM39.9389 39.1491C39.544 39.1491 39.1832 39.0724 38.8565 38.919C38.5298 38.7628 38.2699 38.5384 38.0767 38.2457C37.8835 37.9503 37.7869 37.5923 37.7869 37.1719C37.7869 36.848 37.848 36.5753 37.9702 36.3537C38.0923 36.1321 38.2656 35.9503 38.4901 35.8082C38.7145 35.6662 38.9801 35.554 39.2869 35.4716C39.5938 35.3892 39.9318 35.3253 40.3011 35.2798C40.6676 35.2344 40.9773 35.1946 41.2301 35.1605C41.4858 35.1264 41.6804 35.0724 41.8139 34.9986C41.9474 34.9247 42.0142 34.8054 42.0142 34.6406V34.4872C42.0142 34.0412 41.8807 33.6903 41.6136 33.4347C41.3494 33.1761 40.9688 33.0469 40.4716 33.0469C40 33.0469 39.6151 33.1506 39.3168 33.358C39.0213 33.5653 38.8139 33.8097 38.6946 34.0909L37.9744 33.831C38.1222 33.473 38.3267 33.1875 38.5881 32.9744C38.8494 32.7585 39.142 32.6037 39.4659 32.5099C39.7898 32.4134 40.1179 32.3651 40.4503 32.3651C40.7003 32.3651 40.9602 32.3977 41.2301 32.4631C41.5028 32.5284 41.7557 32.642 41.9886 32.804C42.2216 32.9631 42.4105 33.1861 42.5554 33.473C42.7003 33.7571 42.7727 34.1179 42.7727 34.5554V39H42.0142V37.9645H41.9673C41.8764 38.1577 41.7415 38.3452 41.5625 38.527C41.3835 38.7088 41.1591 38.858 40.8892 38.9744C40.6193 39.0909 40.3026 39.1491 39.9389 39.1491ZM40.0412 38.4545C40.4446 38.4545 40.794 38.3651 41.0895 38.1861C41.3849 38.0071 41.6122 37.7699 41.7713 37.4744C41.9332 37.1761 42.0142 36.848 42.0142 36.4901V35.544C41.9574 35.598 41.8622 35.6463 41.7287 35.6889C41.598 35.7315 41.446 35.7699 41.2727 35.804C41.1023 35.8352 40.9318 35.8622 40.7614 35.8849C40.5909 35.9077 40.4375 35.9276 40.3011 35.9446C39.9318 35.9901 39.6165 36.0611 39.3551 36.1577C39.0938 36.2543 38.8935 36.3878 38.7543 36.5582C38.6151 36.7259 38.5455 36.9418 38.5455 37.206C38.5455 37.6037 38.6875 37.9119 38.9716 38.1307C39.2557 38.3466 39.6122 38.4545 40.0412 38.4545ZM47.3686 32.4545V33.1151H44.245V32.4545H47.3686ZM45.2209 30.8864H45.9837V37.2912C45.9837 37.5639 46.0305 37.7784 46.1243 37.9347C46.218 38.0881 46.3402 38.1974 46.4908 38.2628C46.6413 38.3253 46.8018 38.3565 46.9723 38.3565C47.0717 38.3565 47.157 38.3509 47.228 38.3395C47.299 38.3253 47.3615 38.3111 47.4155 38.2969L47.5774 38.983C47.5036 39.0114 47.4126 39.0369 47.3047 39.0597C47.1967 39.0852 47.0632 39.098 46.9041 39.098C46.6257 39.098 46.3572 39.0369 46.0987 38.9148C45.843 38.7926 45.6328 38.6108 45.468 38.3693C45.3033 38.1278 45.2209 37.8281 45.2209 37.4702V30.8864ZM51.6673 39.1364C51.0565 39.1364 50.5281 38.9943 50.082 38.7102C49.636 38.4233 49.2908 38.027 49.0465 37.5213C48.805 37.0128 48.6843 36.4276 48.6843 35.7656C48.6843 35.1065 48.805 34.5213 49.0465 34.0099C49.2908 33.4957 49.6275 33.0937 50.0565 32.804C50.4883 32.5114 50.9869 32.3651 51.5522 32.3651C51.9073 32.3651 52.2496 32.4304 52.5792 32.5611C52.9087 32.6889 53.2042 32.8864 53.4656 33.1534C53.7298 33.4176 53.9386 33.7514 54.092 34.1548C54.2454 34.5554 54.3221 35.0298 54.3221 35.5781V35.9531H49.2085V35.2841H53.5465C53.5465 34.8636 53.4613 34.4858 53.2908 34.1506C53.1232 33.8125 52.8888 33.5455 52.5877 33.3494C52.2894 33.1534 51.9442 33.0554 51.5522 33.0554C51.1374 33.0554 50.7724 33.1662 50.457 33.3878C50.1417 33.6094 49.8945 33.902 49.7156 34.2656C49.5394 34.6293 49.4499 35.027 49.4471 35.4588V35.8594C49.4471 36.3793 49.5366 36.8338 49.7156 37.223C49.8974 37.6094 50.1545 37.9091 50.4869 38.1222C50.8192 38.3352 51.2127 38.4418 51.6673 38.4418C51.9769 38.4418 52.2482 38.3935 52.4812 38.2969C52.717 38.2003 52.9144 38.071 53.0735 37.9091C53.2354 37.7443 53.3576 37.5639 53.44 37.3679L54.1602 37.6023C54.0607 37.8778 53.8974 38.1321 53.6701 38.3651C53.4457 38.598 53.1644 38.7855 52.8263 38.9276C52.4911 39.0668 52.1048 39.1364 51.6673 39.1364Z" fill="#555555"/>
</svg>
