<svg width="73" height="73" viewBox="0 0 73 73" fill="none" xmlns="http://www.w3.org/2000/svg">
<path d="M18.5398 67.6099L0.577359 36.5L18.5398 5.39008L54.4647 5.39008L72.4272 36.5L54.4647 67.6099L18.5398 67.6099Z" stroke="#555555"/>
<path d="M11.6477 39.1364C11.0369 39.1364 10.5085 38.9943 10.0625 38.7102C9.61648 38.4233 9.27131 38.027 9.02699 37.5213C8.78551 37.0128 8.66477 36.4276 8.66477 35.7656C8.66477 35.1065 8.78551 34.5213 9.02699 34.0099C9.27131 33.4957 9.60795 33.0937 10.0369 32.804C10.4688 32.5114 10.9673 32.3651 11.5327 32.3651C11.8878 32.3651 12.2301 32.4304 12.5597 32.5611C12.8892 32.6889 13.1847 32.8864 13.446 33.1534C13.7102 33.4176 13.919 33.7514 14.0724 34.1548C14.2259 34.5554 14.3026 35.0298 14.3026 35.5781V35.9531H9.18892V35.2841H13.527C13.527 34.8636 13.4418 34.4858 13.2713 34.1506C13.1037 33.8125 12.8693 33.5455 12.5682 33.3494C12.2699 33.1534 11.9247 33.0554 11.5327 33.0554C11.1179 33.0554 10.7528 33.1662 10.4375 33.3878C10.1222 33.6094 9.875 33.902 9.69602 34.2656C9.51989 34.6293 9.4304 35.027 9.42756 35.4588V35.8594C9.42756 36.3793 9.51705 36.8338 9.69602 37.223C9.87784 37.6094 10.1349 37.9091 10.4673 38.1222C10.7997 38.3352 11.1932 38.4418 11.6477 38.4418C11.9574 38.4418 12.2287 38.3935 12.4616 38.2969C12.6974 38.2003 12.8949 38.071 13.054 37.9091C13.2159 37.7443 13.3381 37.5639 13.4205 37.3679L14.1406 37.6023C14.0412 37.8778 13.8778 38.1321 13.6506 38.3651C13.4261 38.598 13.1449 38.7855 12.8068 38.9276C12.4716 39.0668 12.0852 39.1364 11.6477 39.1364ZM15.9741 39V32.4545H16.7113V33.4602H16.7795C16.9102 33.1222 17.1275 32.8565 17.4315 32.6634C17.7383 32.4673 18.1062 32.3693 18.5352 32.3693C18.9869 32.3693 19.3576 32.4759 19.6474 32.6889C19.94 32.8991 20.1587 33.1889 20.3036 33.5582H20.359C20.5067 33.1946 20.7468 32.9062 21.0792 32.6932C21.4144 32.4773 21.8207 32.3693 22.2979 32.3693C22.9059 32.3693 23.386 32.5611 23.7383 32.9446C24.0906 33.3253 24.2667 33.8821 24.2667 34.6151V39H23.5082V34.6151C23.5082 34.098 23.3761 33.7102 23.1119 33.4517C22.8477 33.1932 22.4996 33.0639 22.0678 33.0639C21.5678 33.0639 21.1829 33.2173 20.913 33.5241C20.6431 33.831 20.5082 34.2202 20.5082 34.6918V39H19.7326V34.5469C19.7326 34.1037 19.609 33.7457 19.3619 33.473C19.1147 33.2003 18.7667 33.0639 18.3178 33.0639C18.0167 33.0639 17.7454 33.1378 17.5039 33.2855C17.2653 33.4332 17.0763 33.6392 16.9371 33.9034C16.8008 34.1648 16.7326 34.4659 16.7326 34.8068V39H15.9741ZM26.2749 41.4545V32.4545H27.0121V33.7031H27.1016C27.1925 33.5071 27.3175 33.3068 27.4766 33.1023C27.6357 32.8949 27.8459 32.7202 28.1072 32.5781C28.3714 32.4361 28.7038 32.3651 29.1044 32.3651C29.6442 32.3651 30.1158 32.5071 30.5192 32.7912C30.9254 33.0724 31.2408 33.4673 31.4652 33.9759C31.6925 34.4815 31.8061 35.071 31.8061 35.7443C31.8061 36.4205 31.6925 37.0128 31.4652 37.5213C31.2408 38.0298 30.9254 38.4261 30.5192 38.7102C30.1158 38.9943 29.647 39.1364 29.1129 39.1364C28.718 39.1364 28.3871 39.0653 28.12 38.9233C27.8558 38.7812 27.6413 38.6065 27.4766 38.3991C27.3146 38.1889 27.1896 37.9844 27.1016 37.7855H27.0334V41.4545H26.2749ZM27.0249 35.7315C27.0249 36.2599 27.103 36.7287 27.2592 37.1378C27.4183 37.544 27.6456 37.8636 27.9411 38.0966C28.2393 38.3267 28.6001 38.4418 29.0234 38.4418C29.4581 38.4418 29.8246 38.3224 30.1229 38.0838C30.424 37.8423 30.6527 37.517 30.8089 37.108C30.968 36.6989 31.0476 36.2401 31.0476 35.7315C31.0476 35.2287 30.9695 34.7756 30.8132 34.3722C30.6598 33.9687 30.4325 33.6491 30.1314 33.4134C29.8303 33.1747 29.4609 33.0554 29.0234 33.0554C28.5973 33.0554 28.2351 33.1705 27.9368 33.4006C27.6385 33.6278 27.4112 33.9432 27.255 34.3466C27.1016 34.7472 27.0249 35.2088 27.0249 35.7315ZM35.2983 39.1491C34.9034 39.1491 34.5426 39.0724 34.2159 38.919C33.8892 38.7628 33.6293 38.5384 33.4361 38.2457C33.2429 37.9503 33.1463 37.5923 33.1463 37.1719C33.1463 36.848 33.2074 36.5753 33.3295 36.3537C33.4517 36.1321 33.625 35.9503 33.8494 35.8082C34.0739 35.6662 34.3395 35.554 34.6463 35.4716C34.9531 35.3892 35.2912 35.3253 35.6605 35.2798C36.027 35.2344 36.3366 35.1946 36.5895 35.1605C36.8452 35.1264 37.0398 35.0724 37.1733 34.9986C37.3068 34.9247 37.3736 34.8054 37.3736 34.6406V34.4872C37.3736 34.0412 37.2401 33.6903 36.973 33.4347C36.7088 33.1761 36.3281 33.0469 35.831 33.0469C35.3594 33.0469 34.9744 33.1506 34.6761 33.358C34.3807 33.5653 34.1733 33.8097 34.054 34.0909L33.3338 33.831C33.4815 33.473 33.6861 33.1875 33.9474 32.9744C34.2088 32.7585 34.5014 32.6037 34.8253 32.5099C35.1491 32.4134 35.4773 32.3651 35.8097 32.3651C36.0597 32.3651 36.3196 32.3977 36.5895 32.4631C36.8622 32.5284 37.1151 32.642 37.348 32.804C37.581 32.9631 37.7699 33.1861 37.9148 33.473C38.0597 33.7571 38.1321 34.1179 38.1321 34.5554V39H37.3736V37.9645H37.3267C37.2358 38.1577 37.1009 38.3452 36.9219 38.527C36.7429 38.7088 36.5185 38.858 36.2486 38.9744C35.9787 39.0909 35.6619 39.1491 35.2983 39.1491ZM35.4006 38.4545C35.804 38.4545 36.1534 38.3651 36.4489 38.1861C36.7443 38.0071 36.9716 37.7699 37.1307 37.4744C37.2926 37.1761 37.3736 36.848 37.3736 36.4901V35.544C37.3168 35.598 37.2216 35.6463 37.0881 35.6889C36.9574 35.7315 36.8054 35.7699 36.6321 35.804C36.4616 35.8352 36.2912 35.8622 36.1207 35.8849C35.9503 35.9077 35.7969 35.9276 35.6605 35.9446C35.2912 35.9901 34.9759 36.0611 34.7145 36.1577C34.4531 36.2543 34.2528 36.3878 34.1136 36.5582C33.9744 36.7259 33.9048 36.9418 33.9048 37.206C33.9048 37.6037 34.0469 37.9119 34.331 38.1307C34.6151 38.3466 34.9716 38.4545 35.4006 38.4545ZM42.728 32.4545V33.1151H39.6044V32.4545H42.728ZM40.5803 30.8864H41.343V37.2912C41.343 37.5639 41.3899 37.7784 41.4837 37.9347C41.5774 38.0881 41.6996 38.1974 41.8501 38.2628C42.0007 38.3253 42.1612 38.3565 42.3317 38.3565C42.4311 38.3565 42.5163 38.3509 42.5874 38.3395C42.6584 38.3253 42.7209 38.3111 42.7749 38.2969L42.9368 38.983C42.8629 39.0114 42.772 39.0369 42.6641 39.0597C42.5561 39.0852 42.4226 39.098 42.2635 39.098C41.9851 39.098 41.7166 39.0369 41.4581 38.9148C41.2024 38.7926 40.9922 38.6108 40.8274 38.3693C40.6626 38.1278 40.5803 37.8281 40.5803 37.4702V30.8864ZM45.3498 34.9091V39H44.5913V30.2727H45.3498V33.4815H45.418C45.5714 33.1435 45.8086 32.8736 46.1296 32.6719C46.4535 32.4702 46.8626 32.3693 47.3569 32.3693C47.8001 32.3693 48.1893 32.4602 48.5245 32.642C48.8597 32.8239 49.1211 33.0923 49.3086 33.4474C49.4961 33.8026 49.5898 34.2401 49.5898 34.7599V39H48.8271V34.8068C48.8271 34.267 48.6765 33.8423 48.3754 33.5327C48.0771 33.2202 47.6737 33.0639 47.1651 33.0639C46.8157 33.0639 46.5046 33.1378 46.2319 33.2855C45.9592 33.4332 45.7433 33.6463 45.5842 33.9247C45.4279 34.2003 45.3498 34.5284 45.3498 34.9091ZM51.5959 39V32.4545H52.3587V39H51.5959ZM51.9837 31.3295C51.8274 31.3295 51.6939 31.277 51.5831 31.1719C51.4723 31.0639 51.4169 30.9347 51.4169 30.7841C51.4169 30.6335 51.4723 30.5057 51.5831 30.4006C51.6939 30.2926 51.8274 30.2386 51.9837 30.2386C52.1399 30.2386 52.2734 30.2926 52.3842 30.4006C52.495 30.5057 52.5504 30.6335 52.5504 30.7841C52.5504 30.9347 52.495 31.0639 52.3842 31.1719C52.2734 31.277 52.1399 31.3295 51.9837 31.3295ZM54.1602 39V38.3991L57.9442 33.2259V33.1705H54.3221V32.4545H58.9201V33.081L55.2042 38.2287V38.2841H59.0565V39H54.1602ZM63.1868 39.1364C62.576 39.1364 62.0476 38.9943 61.6016 38.7102C61.1555 38.4233 60.8104 38.027 60.5661 37.5213C60.3246 37.0128 60.2038 36.4276 60.2038 35.7656C60.2038 35.1065 60.3246 34.5213 60.5661 34.0099C60.8104 33.4957 61.147 33.0937 61.576 32.804C62.0078 32.5114 62.5064 32.3651 63.0717 32.3651C63.4268 32.3651 63.7692 32.4304 64.0987 32.5611C64.4283 32.6889 64.7237 32.8864 64.9851 33.1534C65.2493 33.4176 65.4581 33.7514 65.6115 34.1548C65.7649 34.5554 65.8416 35.0298 65.8416 35.5781V35.9531H60.728V35.2841H65.0661C65.0661 34.8636 64.9808 34.4858 64.8104 34.1506C64.6428 33.8125 64.4084 33.5455 64.1072 33.3494C63.8089 33.1534 63.4638 33.0554 63.0717 33.0554C62.657 33.0554 62.2919 33.1662 61.9766 33.3878C61.6612 33.6094 61.4141 33.902 61.2351 34.2656C61.0589 34.6293 60.9695 35.027 60.9666 35.4588V35.8594C60.9666 36.3793 61.0561 36.8338 61.2351 37.223C61.4169 37.6094 61.674 37.9091 62.0064 38.1222C62.3388 38.3352 62.7322 38.4418 63.1868 38.4418C63.4964 38.4418 63.7678 38.3935 64.0007 38.2969C64.2365 38.2003 64.4339 38.071 64.593 37.9091C64.755 37.7443 64.8771 37.5639 64.9595 37.3679L65.6797 37.6023C65.5803 37.8778 65.4169 38.1321 65.1896 38.3651C64.9652 38.598 64.6839 38.7855 64.3459 38.9276C64.0107 39.0668 63.6243 39.1364 63.1868 39.1364Z" fill="#555555"/>
</svg>
