<svg width="208" height="210" viewBox="0 0 208 210" fill="none" xmlns="http://www.w3.org/2000/svg">
<rect width="208" height="208" fill="white"/>
<path d="M105.351 35.8099L101.837 34.08L102.248 34.22L101.562 34.27L100.74 34.87" stroke="black" stroke-width="2.5" stroke-linecap="round" stroke-linejoin="round"/>
<path d="M93.3331 43.41L90.6631 47.51L90.6501 48.88L90.0531 49.6L89.8471 51.03L88.7091 53.39L88.8721 55.22L86.6491 63.03L87.0742 64.74L86.6252 66.09L86.4102 75.16L86.7001 76.99L87.4211 78.16L87.5262 81.4299L88.1051 83.0699L90.8421 87.02L91.4962 88.6L95.2242 92.96L97.0692 96.17L98.9612 97.85L107.03 99.8199L113.315 100.04L114.753 99.71L120.974 95.7L124.629 91.63L127.8 89.09L128.926 87.48L129.286 86.12L130.245 85.11L131.921 81.46L134.63 69.91L134.229 68.62L134.622 66.37L134.209 63.35L134.366 59.88L133.145 53.99L132.366 52.97L133.147 50.6799L132.087 49.25L132.167 48.17L131.507 47.89L131.604 47.01L130.52 45.99L127.803 39.29L126.65 37.74L121.889 35.5699L120.171 34.13L117.454 34.0499L111.36 31.96L109.887 32.33L107.355 31.9L101.797 32.64L99.8121 33.37L97.9591 34.61L97.9142 34.6899" stroke="black" stroke-width="2.5" stroke-linecap="round" stroke-linejoin="round"/>
<path d="M94.2632 38.74L92.4372 41.73L91.6892 42.13L91.9582 42.1799L91.5802 42.62L91.9482 45.03L91.0962 46.17L91.0742 47.14L91.4062 47.24" stroke="black" stroke-width="2.5" stroke-linecap="round" stroke-linejoin="round"/>
<path d="M106.539 37.89L105.939 38.45" stroke="black" stroke-width="2.5" stroke-linecap="round" stroke-linejoin="round"/>
<path d="M93.5 45.17L93.624 45.86L93.969 45.66L94.228 45.86L93.972 46.01L94.481 45.99L94.283 46.6799L95.116 47.5699L95.27 48.37L96.059 48.6899L96.266 49.02L95.967 49.11L96.616 49.63L96.475 50.52L97.615 50.92L97.926 51.75L106.527 57.72L108.377 59.26L108.534 60.08L109.536 60.17L116.532 66.16L119.154 67.59L120.491 67.71L124.222 69.1799L127.706 69.13L130.283 69.65L131.946 69.45L137.242 67.38L138.485 66.09L139.229 65.98L139.496 65.42L141.533 64.49L140.739 64.03L140.484 64.3099L141.29 64.52L140.547 64.54L141.376 64.1L140.735 64.12L141.296 64.08L141.81 63.46L141.151 64.1799L141.901 64.33H140.855L142.042 64.4299L140.822 64.5599L141.426 64.1L141.007 64.0499L139.83 58.16L139.264 57.0499L139.513 55.91L137.999 54.5599L137.725 53.28L136.441 52.36L136.744 51.6799L135.525 51.01L135.38 50.1899L133.206 47.95L130.76 44.2999L129.434 43.89L129.106 43.0599L127.387 41.67L127.405 41.26L126.099 40.4399L125.935 39.95L123.927 38.96" stroke="black" stroke-width="2.5" stroke-linecap="round" stroke-linejoin="round"/>
<path d="M106.499 38.42H106.439L105.908 38.6899" stroke="black" stroke-width="2.5" stroke-linecap="round" stroke-linejoin="round"/>
<path d="M107.041 39.63L108.945 39.5499" stroke="black" stroke-width="2.5" stroke-linecap="round" stroke-linejoin="round"/>
<path d="M114.223 43.6899L115.642 44.79L119.756 46.58L120.847 48.54L122.191 50.21L123.498 50.9299L124.341 52.41L126.567 56.47L127.665 60.11L128.386 60.98L127.992 61.7999L128.831 62.7999L129.268 65.23L130.12 65.8099L129.773 66.17L130.652 66.84L131.735 66.2999L130.761 66.0699" stroke="black" stroke-width="2.5" stroke-linecap="round" stroke-linejoin="round"/>
<path d="M105.824 47.2L110.659 52.3199L112.81 56.9L117.539 60.91L120.045 62.26L120.563 63.37L121.782 64.47L124.395 65.12" stroke="black" stroke-width="2.5" stroke-linecap="round" stroke-linejoin="round"/>
<path d="M92.1219 63.86L91.8359 68.85L92.7069 70.5499L92.2739 71.62L92.5189 73.99L92.2249 74.8099L92.8109 76.33L92.6989 77.96L93.2339 78.23L92.6249 78.4399L93.3379 78.25L93.0449 78.38L93.1779 79.09L93.7689 79.01L93.1439 78.89L93.5999 78.95L93.0239 79.21L94.3949 78.7999L101.618 79.4399L102.767 79.12L103.592 78.39L104.416 78.6L105.465 78.34L105.076 78.37L105.377 78.1L108.279 77.89L109.368 78.5699L108.751 78.4399L109.02 77.08L108.25 74.77L108.889 73.6799L108.497 72.78L109.024 71.73L108.557 71.13L108.424 69.8199L108.921 68.76L108.399 68.47L108.625 67.6899L108.146 66.96L108.684 66.39L108.056 66.24L108.955 65.89L108.597 65.76L108.808 65.14L109.554 64.5499L109.123 64.52L109.458 64.53L109.222 64.1899L109.739 63.58L109.411 63.6L109.827 63.45L109.2 63.25L109.396 63.5499L108.619 63.91L108.84 64.3099L106.365 64.99L104.168 63.92L101.57 63.76L100.434 62.78L97.4779 62.1L97.3329 61.78L95.4049 62.14L94.2899 61.24L93.4489 61.26L93.9469 61.14L93.4429 60.91L92.8259 61.2L93.6879 61.03L93.9939 61.27L93.4999 61.6" stroke="black" stroke-width="2.5" stroke-linecap="round" stroke-linejoin="round"/>
<path d="M106.708 71.7999L105.914 73.23L107.177 72.38L113.202 72.41L115.487 71.67L116.088 72.5499L117.792 71.67" stroke="black" stroke-width="2.5" stroke-linecap="round" stroke-linejoin="round"/>
<path d="M116.894 66.5599L115.781 67.9L116.218 68.64L115.812 69.2999L115.684 71.5499L116.117 72.3099L115.841 73.11L116.219 74.16L116.034 75.86L116.693 77.54L116.268 78.6799L116.634 79.39L116.218 79.2999L116.832 79.54L116.98 80.8199L117.727 80.83L116.837 80.7L117.748 80.87L117.306 81.6899L117.827 81.35L117.42 81.54L118.958 82.28L118.509 82.1899L118.841 81.86L123.297 80.79L126.339 81.5L129.298 80.72L128.438 80.75L129.133 80.62L128.676 80.63L129.029 80.47L128.774 79.74" stroke="black" stroke-width="2.5" stroke-linecap="round" stroke-linejoin="round"/>
<path d="M127.369 80.97L128.903 80.8199L128.786 79.39L129.559 75.91L129.586 73.42L129.167 72.79L129.408 71.78" stroke="black" stroke-width="2.5" stroke-linecap="round" stroke-linejoin="round"/>
<path d="M96.3609 66.21L96.9299 66.09L97.2869 66.78L98.4569 67.3099L102.01 65.5L104.404 65.48L104.033 65.36L104.143 64.96L101.979 64.37L95.8059 63.9L96.2599 63.96L95.7559 64.25L96.4209 64.39L99.0319 64.58L104.848 63.6899L105.397 63.2999L105.066 63.5499L105.275 63.17L104.766 63.27L106.988 63.01L107.398 62.5499L107.708 62.78L107.202 62.96L107.394 63.17L106.91 63.14L107.602 63.1899L107.137 62.52L107.275 62.8099L106.749 62.73L107.064 62.72L106.569 63.4" stroke="black" stroke-width="2.5" stroke-linecap="round" stroke-linejoin="round"/>
<path d="M99.0342 64.98L99.8962 62.01L100.238 61.46L100.124 61.84L100.492 61.89L99.8212 63.1899L99.5972 65.53L98.0742 71.58L96.7012 73.41L97.4492 73.1799L96.7502 73.86L97.2562 73.9399L96.4492 73.46" stroke="black" stroke-width="2.5" stroke-linecap="round" stroke-linejoin="round"/>
<path d="M105.249 65.16L105.374 65.7999L104.26 67.67L103.792 69.64L102.701 70.91L97.7988 79.83L99.5258 78.95" stroke="black" stroke-width="2.5" stroke-linecap="round" stroke-linejoin="round"/>
<path d="M105.804 69.09L103.136 71.5699L103.041 72.88L101.324 75.45L101.382 75.79L102.062 75.8099" stroke="black" stroke-width="2.5" stroke-linecap="round" stroke-linejoin="round"/>
<path d="M124.148 71.47L122.358 74.3099L120.44 79.41L119.672 80.16L120.242 78.9399L124.766 73.83L126.172 72.88L128.443 72.2L127.808 73.22L128.055 74.61L127.381 75.0599L128.4 75.4L128.334 76.1L130.521 75.1L131.231 74.16" stroke="black" stroke-width="2.5" stroke-linecap="round" stroke-linejoin="round"/>
<path d="M96.3971 93.09L94.6021 93.76L94.7491 94.0499L95.0181 93.54L94.7821 93.51L95.0801 93.76L94.7671 94.1799L95.0231 94.75L94.7991 96.49L95.5131 98.1899L95.6221 99.0699L95.2601 99.16L95.3011 99.4399L96.0771 100.31L95.4491 102.01L95.8271 102.53L95.7001 103.65L96.0591 104.11L95.8641 106.78L96.2561 107.71L95.7781 108.15L96.1351 109.26L95.7381 110.54L96.1631 111.46L95.6181 111.66L94.5201 114.81L93.6371 115.63L93.4821 116.55L92.7801 117.64L92.0531 117.96L90.4511 119.58L89.5571 119.96L89.2651 120.75L88.1701 121.2L87.0651 122.17L86.9331 122.7L85.6921 123.82L86.0231 124.02L84.5801 124.88L83.9481 125.63L82.6331 125.92L83.1031 125.89L79.4121 128.89L79.6881 129.01L78.1391 130.89L78.7431 130.72L78.1291 130.54L78.4831 130.7L77.7391 131.15L77.4951 132.42L76.3741 133.48L74.8731 137.27L74.6771 137.1L74.2731 137.45L73.6231 139.46L73.2311 139.58L73.4721 139.65L73.3261 140.12L71.3871 142.02L71.7721 142.26L71.4671 142.46L71.4701 143.47L70.3881 145.12L69.4621 147.8L68.9761 148.25L68.5211 150.62L67.5161 151.57L67.7861 152.44L67.0761 154.76L66.4021 155.13L65.3531 157.15L65.5131 157.6L63.7621 162.04L61.5991 166.46L60.8171 167.33L59.9951 169.91L58.7221 171.36L58.0461 173.03L57.9111 174.59L57.1901 175.45L56.8571 176.92L55.0951 179.06L55.6621 179.59L55.5561 179.87L54.5691 180.4L52.8691 182.48L52.8651 183.18L52.3301 184.1L52.5761 184.05L52.2151 184.18L52.1831 184.88L50.7461 187.47" stroke="black" stroke-width="2" stroke-linecap="round" stroke-linejoin="round"/>
<path d="M98.4643 34.52L98.6513 34.8199L98.7333 34.59L97.8333 34.64L96.7643 35.4299L96.5773 35.92L96.7543 35.66L96.1773 35.74L95.6773 36.12L95.9603 36.17L95.7273 36.4299L95.0183 36.46L94.8913 36.64H95.2703L94.3683 37.35L94.3573 37.98L93.9403 38.4L94.1083 38.61L93.5503 38.52L94.0883 38.58L93.2723 39.35L93.5193 39.74L92.7993 40.6L93.0873 40.89L92.6253 43.22L92.8913 43.95L92.2793 44.23L92.7653 44.48L92.4403 45.01L92.7123 45.58L92.3953 45.4399L93.0543 46.9L92.8243 48.0599" stroke="black" stroke-width="2" stroke-linecap="round" stroke-linejoin="round"/>
<path d="M91.1018 33.84L90.7598 33.7999H91.2118L91.1288 33.22L90.7778 33.1899L91.2258 33.0599L90.7928 33.03L91.2858 33L90.9018 33.04L91.2518 32.98L91.9358 33.79L93.2248 34.22L93.4868 34.8199L94.8198 35.83L95.3378 37.09L96.1688 36.9" stroke="black" stroke-width="2" stroke-linecap="round" stroke-linejoin="round"/>
<path d="M90.1206 33.16L90.2856 32.5499L90.5176 33.29L90.7736 33.26L90.3476 33.25L90.2776 33.99L89.3506 34.85L89.6116 35.28L88.9256 36.28L89.1106 37.16L88.4736 37.88L88.1556 39.74L87.6036 40.37L88.0756 40.95L87.3876 42.0499L87.0996 43.26L87.4036 44.04L87.1046 44.23L87.0966 45.3099L86.6506 46.01L86.9816 46.6L86.7576 47.4399L86.9936 47.8099L86.6226 48.84L86.4436 51.1L86.6916 51.61L86.3736 51.7999L86.8126 51.89L86.5076 52.5699L86.5246 52.35L86.2286 52.49L86.2546 53.3199L85.9066 53.51L86.3516 53.73L86.0016 53.7L85.8176 54.7L86.2636 55.09L85.4856 55.4L86.1116 55.35L85.6576 55.5499L86.0996 55.7L85.6676 56.0499L86.2236 56.22L85.6096 56.11L85.8726 56.52L86.3046 56.4L85.6966 56.39L85.4766 57.98L85.6536 57.6799L85.5276 58.49L86.0586 59.14L85.5266 59.1899L85.9366 59.37L85.5056 59.63L85.8956 59.72L85.8806 61.78L85.5686 61.97L86.3906 62.13L86.0006 62.17L85.8296 62.7L86.2906 63.26L85.8626 63.27L86.8936 65.35L86.7766 66.71" stroke="black" stroke-width="2" stroke-linecap="round" stroke-linejoin="round"/>
<path d="M93.0474 32.17L92.2704 32.4399L92.9494 32.36L92.4004 32.46L92.7014 32.22L92.0464 32.13L92.6954 32.09L92.3364 31.8099L92.7304 31.7999L92.2814 31.8199L92.4074 31.41L91.9374 31.26L92.2864 31.11L91.6304 30.71L91.1074 30.95L92.6934 30.6899L93.0164 30.24L94.4644 29.5699L95.9174 29.59L97.9394 28.8099L98.5334 28.86L100.881 27.73H104.546L107.921 28.5599L109.787 29.48L110.117 29.73L109.952 29.89L110.548 29.84L111.112 30.33L112.631 30.71L112.922 31.14L114.856 32L114.71 32.15L117.744 33.17L119.638 34.0499L119.655 34.2999L120.731 34.5L120.636 34.75L121.604 34.83L122.417 35.6899L124.401 36.36L125.632 37.4L126.762 37.7999L126.845 38.37L127.692 38.97L128.82 39.35L128.389 39.7L130.036 40.6899L131.644 43.1799L132.45 43.2999L132.285 43.97L133.072 44.59L132.95 44.99L134.109 46.3099L134.219 46.12L134.336 46.65L135.217 47.35L135.246 48.13L136.321 48.49L136.005 48.59L136.145 48.86L137.068 48.9399L136.493 49.25L136.751 49.64L136.516 49.78L138.452 51.25L138.203 51.67L139.234 52.14L139.098 52.6L139.693 53.04L139.704 53.6799L140.517 54.17L140.088 54.29L140.659 54.88L140.974 56L141.388 56.23L141.126 56.65L141.597 57.21L141.522 58.16L142.169 58.89L142.27 59.5699L142.772 59.9L142.573 60.2999L143.704 61.28L143.193 61.27H143.531L143.147 61.04L143.374 60.79L141.714 59.61L141.723 58.72" stroke="black" stroke-width="2" stroke-linecap="round" stroke-linejoin="round"/>
<path d="M103.536 34.5599L103.252 35.1799L103.286 34.92L103.617 34.99L103.482 35.26L104.741 36.84L106.506 38.85L107.793 39.73L107.836 40.28L109.159 42.09L109.133 42.53L109.681 42.77L109.891 43.63L111.08 44.41L111.991 46.16L112.646 46.71L112.517 47.29L113.687 47.76L113.44 47.95L113.675 48.7L114.866 50.11L114.661 50.49L115.692 50.98L115.578 51.25L115.928 51.26L118.712 54.42L118.447 54.84L120.075 55.99L121.724 58.76L122.336 58.87L122.103 59.0499L122.819 59.54L123.023 60.14L122.784 60.27L123.717 60.84L124.314 61.92L125.374 62.87L126.274 62.92L126.218 62.4L126.902 61.86L126.498 61.35" stroke="black" stroke-width="2" stroke-linecap="round" stroke-linejoin="round"/>
<path d="M108.439 34L107.437 34.08L107.441 33.3199L107.346 33.66L105.873 33.7999L105.934 34L112.286 37.29L116.585 40.64L117.654 40.88L117.892 41.39L118.93 41.91L119.12 42.61L120.36 43.09L120.653 43.78L122.159 44.9299L122.199 45.46L123.272 46.24L123.618 47.24L124.67 47.9399L125.022 48.5499L124.819 48.84L127.888 50.04L127.664 50.15L128.457 50.41L129.683 51.74L132.871 53.85L133.662 54.98L134.591 55.13L134.244 55.2999L134.342 55.78L134.931 56.12L135.123 56.51L134.898 56.5699L135.962 57L135.667 57.2999L135.767 57.8199L136.77 58.53L136.761 59.0699L137.398 59.27L137.188 59.51L138.348 60.22L138.119 60.4299L138.884 60.51L138.634 60.78L139.466 61.4L139.203 61.5L140.286 61.4299L140.259 61.64" stroke="black" stroke-width="2" stroke-linecap="round" stroke-linejoin="round"/>
<path d="M93.5757 32.17H93.3437L93.7787 32.34L93.3227 31.45L93.0757 31.61L93.3076 31.6799L93.2317 31.2L92.7627 31.1899L93.3676 31.1799L92.6816 31.36L92.9737 31.28L93.4886 31.88L94.3817 33.92L95.6857 35.25L97.8156 38.63L98.3156 38.9299L98.9106 40.5L99.9977 41.27L100.065 42.08L101.1 43.3199L101.253 44.46L101.794 44.8099L101.372 44.84L103.519 46.58L104.364 46.77L104.05 47.04L105.883 48.01L105.83 48.61L106.287 48.5699L106.604 49.0499L107.739 49.52L107.792 50.28" stroke="black" stroke-width="2" stroke-linecap="round" stroke-linejoin="round"/>
<path d="M95.3407 69.15L94.6407 67.5699L94.9677 68.89L95.0237 72.46L96.1477 76.03L95.9427 75.54L96.3207 75.11L95.9187 74.29L95.7037 72.28L95.9987 71.09L95.7777 69.51L96.2787 68.42L95.9747 67.6899L95.2927 71.3199L95.2127 73.2L95.7247 72.84L95.2357 72.77L95.9347 71.02L95.2577 69.5499L95.5667 69.1899L95.5337 68.33L95.6647 70.83L95.0607 73.1799L95.3597 73.2L95.5017 73.75L95.2417 73.64L95.4537 73.29L94.2827 70.26L94.5017 71.14L93.8997 72.5699L93.5957 75.73L93.8827 76.1L94.6967 73.09L94.9787 69.1L95.6157 67.64L95.6927 65.48L95.2177 65.6L95.6907 66.47L94.9417 70.28L94.9737 77.3199L94.6967 77.13L95.1677 76.54L94.9117 76.4299L95.3877 75.95L96.1227 73.64L96.3847 69.85L96.2177 67.17L95.4747 69.78L95.0967 75.2L95.8287 76.54L96.2277 74.7L97.2767 73.3099L97.3997 72.5599L96.7767 69.17L96.0887 69.11L95.2367 73.52L95.4367 76.09L95.9547 77.92L96.3997 78.35L96.4507 78.12L95.8087 77.85L96.3027 77.24L96.7747 75.53L96.0417 69.5599L95.4797 67.5699L94.6507 67.02L94.2147 67.5L94.6747 67.87L94.1287 70.33L94.7547 74.45L95.4397 76.16L96.7267 76.84L96.4337 76.76L96.8937 76.49L97.3977 74.89L97.1967 69.62L96.9907 69.88L97.4137 71.4L97.7227 75.5L98.2887 76.92L98.6567 79.51L99.0257 79.48L98.8227 79.17L99.4287 78.7L100.326 76.6L101.132 70.2L101.821 68.6899L101.818 68.46L101.534 68.5599L101.606 71.36L102.053 73.12L101.826 74.5499L102.016 75.59L101.903 74.58L102.486 73.99L103.443 71.21L103.319 69.09L104.261 68.3099L103.967 68.0699L103.772 68.51L104.108 68.75L104.041 70.9L104.522 73.3199L104.209 75.4299L104.546 75.04L104.418 74.7L104.259 74.89L105.2 73.9399L105.787 70.8099L105.904 66.76L106.571 73.21L107.978 73.23L108.01 72.54" stroke="black" stroke-width="2" stroke-linecap="round" stroke-linejoin="round"/>
<path d="M119.071 71.77L118.238 70.9L118.914 70.9399L118.574 72.58L118.817 78.48L119.043 78.36L119.049 77.77L118.72 77.48L119.362 75.7L118.801 69.38L118.493 70.34L119.045 70.83L118.528 72.3099L118.066 78.1799L118.214 78.42L118.62 78.25L118.873 71.54L118.978 71.34L119.258 71.6L118.71 72.03L118.935 73.64L118.721 76.1799L119.203 79.91L120.214 77.2999L120.772 72.27L120.495 72.52L120.861 72.9L120.424 76.09L120.452 76.98L120.736 77.02L120.795 76.58L120.508 76.54L121.604 75.45L122.281 72.14L121.741 72.62L122.17 73.3099L121.806 76.29L121.984 77.78L122.468 77.66L122.098 77.6L123.174 76.14L123.673 72.62L123.213 78.83L123.559 80.66L123.629 80.03L124.462 79.71L124.753 78.96L125.752 74.59L125.831 75.54L125.155 78.72L125.636 79.2L125.01 78.75L125.529 78.5699L125.242 78.26L125.923 77.83L126.407 76.9L126.945 74.75L127.026 80.88L126.864 80L127.612 79.83L128.255 79.12L130.517 74.83L130.767 73.35L130.692 76L130.383 75.7999L130.786 75.5L130.46 75.49L130.167 76.54L130.336 76.83L131.204 76.24" stroke="black" stroke-width="2" stroke-linecap="round" stroke-linejoin="round"/>
<path d="M138.07 129.62L139.528 132.14L142.68 140.35L144.905 144.5L145.024 145.63L145.62 146.41L147.232 151.27L148.041 155.01L153.692 169.48L153.967 171.48L155.773 175.72L158.852 185.76L159.304 186.2L159.661 189.81L160.409 192.69L161.294 194.71L161.814 197.33L162.504 197.84L162.207 198.18L162.66 199.94L163.076 200.25L162.636 200.71L162.568 201.77L163.162 202.11L163.3 204.48L163.903 204.42L163.088 204.97H163.622L163.663 206.21L164.258 206.69L164.167 207.09L163.716 207.15L164.678 207.06L163.651 207.23L164.335 207.18L163.676 206.8" stroke="black" stroke-width="2.5" stroke-linecap="round" stroke-linejoin="round"/>
<path d="M122.914 121.03L122.979 121.05L123.244 121.52L124.047 121.41L123.885 121.62L125.294 122.16L126.48 122.17L128.624 122.91L128.604 123.15L130.296 123.21L130.807 123.82L131.462 123.81L132.535 124.33L132.049 124.41L133.085 124.59L133.335 125.16L134.69 125.74L134.598 125.99L135.079 126.27L134.956 126.58L135.514 126.72L136.476 127.8L137.402 128.13L138.167 129.28L138.689 129.53L138.904 129.99L138.669 130.07L140.301 130.98L139.75 131.12L140.819 132.87L140.459 132.75L140.4 133.22L140.955 133.58L140.803 134.06L141.605 134.66L141.856 136.21L142.297 136.55L141.987 136.98L142.662 138.48L143.011 139.89L142.839 140.26L144.027 141.39L143.707 142.23L144.31 142.91L144.315 143.52L145.667 146.06L145.309 146.48L145.924 146.92L147.302 151.44L147.214 152.14L148.818 155.71L148.986 156.58" stroke="black" stroke-width="2" stroke-linecap="round" stroke-linejoin="round"/>
<path d="M113.774 101.11L113.012 101.78L112.712 101.72L112.372 102.32L111.588 102.28L111.931 102.1L112.003 101.52L112.088 102.13L111.74 102.31L112.522 102.63L111.755 103.38L112.542 104.99L112.213 105.14L112.09 105.84L112.383 106.11L112.12 106.47L112.124 107.89L112.528 108.03L112.065 108.21L111.987 108.67L112.354 108.79L112.244 109.17L112.71 109.74L112.394 109.78L112.612 109.99L112.261 110.4L112.661 110.72L112.423 111.04L112.678 111.19L112.239 111.5L112.586 111.85L112.362 111.72L112.577 111.89L112.366 112.58L112.744 113.12L112.144 112.93L112.572 113.1L112.716 113.6L112.416 113.81L112.75 114.19L112.275 114.31L113.589 115.4L113.398 115.6L114.151 116.25L114.013 116.52L114.329 116.86L115.052 116.98L115.024 117.32L117.092 118.59L118.527 118.52L118.231 118.74L120.012 119.25L119.753 119.45L120.405 119.41L121.21 120.05L123.405 120.79L125.315 120.36L125.404 120.71" stroke="black" stroke-width="2" stroke-linecap="round" stroke-linejoin="round"/>
<path d="M94.6992 110.78H113.699" stroke="black" stroke-width="2" stroke-linecap="round" stroke-linejoin="round"/>
<path d="M93.6992 118.78H120.699" stroke="black" stroke-width="2" stroke-linecap="round" stroke-linejoin="round"/>
<path d="M105.895 111.32L105.895 208.32" stroke="black" stroke-width="2" stroke-linecap="round" stroke-linejoin="round"/>
<path d="M54.54 183.575L52.7816 183.945L53.6394 183.727L53.0502 183.736L53.6537 183.271L53.3671 183.433L53.1052 183.11L52.8234 184.011L51.7577 184.989L51.6809 185.776L50.5118 187.323L50.4776 188.158L49.4424 189.174L49.2963 189.971L48.3701 190.673L47.9725 191.83L46.2057 194.687L46.2882 195.114L45.8109 195.588L45.9751 196.015L45.0603 197.258L44.6703 197.391L44.9303 198.255L43.9634 199.393L43.1928 201.718L42.5922 202.012L43.115 202.003L42.4271 202.876L42.1367 204.641L41.6954 204.66L41.9678 204.774L41.3159 205.504L41.6319 205.523L41.2362 205.495L41.4412 205.428L41.4468 205.713L40.9705 206.045L41.4098 206.093L40.9638 206.017L41.3055 206.159L41.3538 206.88L41.0416 206.653L41.0436 207.212L40.5786 207.706L41.0445 207.677L40.6763 208L40.9743 207.867L40.7522 207.915L40.7997 207.042L39.8906 207.535" stroke="black" stroke-width="2" stroke-linecap="round" stroke-linejoin="round"/>
<path d="M126.699 150.78L145.699 205.78" stroke="black" stroke-width="2" stroke-linecap="round" stroke-linejoin="round"/>
<path d="M108.548 135.66L106.912 136.86L107.593 136.45L107.384 136.65L107.908 136.96L107.663 136.89L107.824 137.42" stroke="black" stroke-width="2" stroke-linecap="round" stroke-linejoin="round"/>
<path d="M109.044 149.96L108.368 150.81L107.838 150.77L108.09 150.97L107.84 151.09L108.416 150.99" stroke="black" stroke-width="2" stroke-linecap="round" stroke-linejoin="round"/>
<path d="M109.353 164.32L109.204 164.1L109.159 164.43L108.58 164.62L109.004 164.57L108.949 164.17L109.031 164.49" stroke="black" stroke-width="2" stroke-linecap="round" stroke-linejoin="round"/>
<path d="M77.3742 173.4L77.7252 173.71L77.5152 174.32L77.8072 174.3L77.4512 174.41L77.9592 174.86L77.1702 175.77L76.1982 180.69L75.7072 181.7L74.7402 182.66L74.8962 183.03L74.3462 185.3L73.4312 186.15L73.3532 187.33L71.3642 191.09L71.1062 192.02L71.3312 192.4L70.5252 193.03L70.5922 193.48L70.1262 194.19L70.0972 195.78L69.4262 196.51L67.8272 200.02L68.1882 200.11L67.7702 200.38L67.6222 201.27L66.6372 202.74L66.8822 202.87L66.5632 203.29L66.8132 203.74L65.2152 206.29L65.5522 206.56L65.7402 206.23L65.1602 206.32L65.7442 206.27L65.5662 206.02L66.0772 205.9L65.8632 205.81L66.2682 204.98L67.5042 203.76" stroke="black" stroke-width="2" stroke-linecap="round" stroke-linejoin="round"/>
<path d="M88.6992 143.78L78.6992 174.78" stroke="black" stroke-width="2" stroke-linecap="round" stroke-linejoin="round"/>
<path d="M108.936 179.24L109.342 179.28L108.981 179.89L109.351 180.03L109.739 179.72" stroke="black" stroke-width="2" stroke-linecap="round" stroke-linejoin="round"/>
</svg>
