<svg width="264" height="429" viewBox="0 0 264 429" fill="none" xmlns="http://www.w3.org/2000/svg">
<rect x="116" y="321" width="54" height="54" fill="#BFBED0"/>
<path d="M26.8379 267.789V353.789" stroke="#555555" stroke-width="2" stroke-linecap="round" stroke-linejoin="round"/>
<path d="M69.8379 266.789V346.789" stroke="#555555" stroke-width="2" stroke-linecap="round" stroke-linejoin="round"/>
<path d="M18.8379 172.789V267.789" stroke="#555555" stroke-width="2" stroke-linecap="round" stroke-linejoin="round"/>
<path d="M73.5508 169.608V264.608" stroke="#555555" stroke-width="2" stroke-linecap="round" stroke-linejoin="round"/>
<path d="M11.8379 265.789V353.789" stroke="#555555" stroke-width="2" stroke-linecap="round" stroke-linejoin="round"/>
<path d="M83.7031 267.757V355.757" stroke="#555555" stroke-width="2" stroke-linecap="round" stroke-linejoin="round"/>
<path d="M2.83789 276.789V363.789" stroke="#555555" stroke-width="2" stroke-linecap="round" stroke-linejoin="round"/>
<path d="M91.5723 277.144V364.144" stroke="#555555" stroke-width="2" stroke-linecap="round" stroke-linejoin="round"/>
<path d="M13.8379 267.789H81.8377" stroke="#555555" stroke-width="2" stroke-linecap="round" stroke-linejoin="round"/>
<path d="M12.4675 266.033L11.9199 265.207" stroke="#555555" stroke-width="2" stroke-linecap="round" stroke-linejoin="round"/>
<path d="M84.3331 268.001L83.7852 267.175" stroke="#555555" stroke-width="2" stroke-linecap="round" stroke-linejoin="round"/>
<path d="M15.3184 172.272H33.5615" stroke="#555555" stroke-width="2" stroke-linecap="round" stroke-linejoin="round"/>
<path d="M60.7109 172.272H74.1039" stroke="#555555" stroke-width="2" stroke-linecap="round" stroke-linejoin="round"/>
<path d="M23.2109 236.034H74.8363" stroke="#555555" stroke-width="2" stroke-linecap="round" stroke-linejoin="round"/>
<path d="M21.8421 234.279L21.2949 233.453" stroke="#555555" stroke-width="2" stroke-linecap="round" stroke-linejoin="round"/>
<path d="M32.209 171.634L32.4556 174.243L32.8062 175.45" stroke="#555555" stroke-width="1.5" stroke-linecap="round" stroke-linejoin="round"/>
<path d="M60.0179 172.03L60.0549 171.634L59.8089 169.025L59.0779 166.508L57.3959 163.45L55.6629 161.484L53.5926 159.878L51.2577 158.689L48.7411 157.957L46.1322 157.711L43.5232 157.957L41.0067 158.689L38.6718 159.878L36.6011 161.484L34.3764 164.174L33.1867 166.508L32.4556 169.025L32.209 171.634" stroke="#555555" stroke-width="1.5" stroke-linecap="round" stroke-linejoin="round"/>
<path d="M8.87305 177.583H36.873" stroke="#555555" stroke-width="2" stroke-linecap="round" stroke-linejoin="round"/>
<path d="M57.8926 177.492H85.8926" stroke="#555555" stroke-width="2" stroke-linecap="round" stroke-linejoin="round"/>
<path d="M40.3066 196.619V225.619" stroke="#555555" stroke-width="2" stroke-linecap="round" stroke-linejoin="round"/>
<path d="M55.3789 194.618V223.618" stroke="#555555" stroke-width="2" stroke-linecap="round" stroke-linejoin="round"/>
<path d="M38.3066 196.619H58.3062" stroke="#555555" stroke-width="2" stroke-linecap="round" stroke-linejoin="round"/>
<path d="M37.2715 220.85H57.2716" stroke="#555555" stroke-width="2" stroke-linecap="round" stroke-linejoin="round"/>
<path d="M23.7305 102.042V172.042" stroke="#555555" stroke-width="2" stroke-linecap="round" stroke-linejoin="round"/>
<path d="M19.6953 101.652H72.6952" stroke="#555555" stroke-width="2" stroke-linecap="round" stroke-linejoin="round"/>
<path d="M47.3589 101.287L50.9284 100.254L53.8669 97.979L55.7621 94.783L56.3061 92.357L56.3081 90.491L55.2747 86.921L52.9999 83.983L50.9455 82.584L49.2108 81.895L45.5116 81.542L41.942 82.575L39.0035 84.85L37.1088 88.047L36.6429 89.854L36.5625 92.338L37.5958 95.908L38.5943 97.485L40.3501 99.244L43.6596 100.934L47.3589 101.287Z" stroke="#555555" stroke-width="2" stroke-linecap="round" stroke-linejoin="round"/>
<path d="M68.1094 101.369V171.369" stroke="#555555" stroke-width="2" stroke-linecap="round" stroke-linejoin="round"/>
<path d="M63.2852 62.449V100.333" stroke="#555555" stroke-width="2" stroke-linecap="round" stroke-linejoin="round"/>
<path d="M29.0156 61.667V98.724" stroke="#555555" stroke-width="2" stroke-linecap="round" stroke-linejoin="round"/>
<path d="M20.3027 118.886H73.3031" stroke="#555555" stroke-width="2" stroke-linecap="round" stroke-linejoin="round"/>
<path d="M22.8027 73.4431H69.0077" stroke="#555555" stroke-width="2" stroke-linecap="round" stroke-linejoin="round"/>
<path d="M24.3262 61.103V76.103" stroke="#555555" stroke-width="2" stroke-linecap="round" stroke-linejoin="round"/>
<path d="M67.998 61.994V76.994" stroke="#555555" stroke-width="2" stroke-linecap="round" stroke-linejoin="round"/>
<path d="M34.0566 20.4741V61.2311" stroke="#555555" stroke-width="2" stroke-linecap="round" stroke-linejoin="round"/>
<path d="M57.7305 24.207V60.066" stroke="#555555" stroke-width="2" stroke-linecap="round" stroke-linejoin="round"/>
<path d="M20.4805 63.4601H69.3797" stroke="#555555" stroke-width="2" stroke-linecap="round" stroke-linejoin="round"/>
<path d="M30.1738 25.6581H60.1567" stroke="#555555" stroke-width="2" stroke-linecap="round" stroke-linejoin="round"/>
<path d="M39.8203 35.2111V55.2111" stroke="#555555" stroke-width="2" stroke-linecap="round" stroke-linejoin="round"/>
<path d="M41.8203 36.2111H52.8203" stroke="#555555" stroke-width="2" stroke-linecap="round" stroke-linejoin="round"/>
<path d="M51.8203 37.2111V55.2111" stroke="#555555" stroke-width="2" stroke-linecap="round" stroke-linejoin="round"/>
<path d="M40.5664 53.0511L40.8993 52.3011L40.2793 52.3661L41.2269 52.3491L40.6087 52.234L41.1675 51.997L41.0664 51.804L41.2305 52.1121L43.154 51.592L50.4125 51.774L51.8637 52.2451L51.2833 52.3391L51.7035 52.3361L51.382 52.338L51.5567 52.653L51.3036 52.497L51.6828 52.61L51.3325 52.5201L51.6566 52.523L51.5701 52.294L51.73 52.5001L51.2896 52.523L51.6068 52.6121L51.5518 52.3321L50.9771 53.4911L51.1311 53.2101L50.6902 53.2201L50.7551 53.4821L51.3267 53.381L50.5258 53.028L51.063 52.9181" stroke="#555555" stroke-width="2" stroke-linecap="round" stroke-linejoin="round"/>
<path d="M37.2977 19.75L37.291 19.207L37.9672 18.827L37.7255 18.437L39.396 14.057L39.9903 13.455L39.7384 13.373L41.2224 12.671L40.715 12.013L41.7086 11.282L41.4783 10.835L42.2018 10.514L42.3115 9.64899L42.7461 9.362L42.3175 9.39499L43.5078 8.59698L44.5038 7.009L45.2269 6.742L44.9663 6.61398L45.37 5.64099L45.1574 5.46399L46.0545 4.94299L45.5197 4.72699L46.0786 4.19598L45.8544 3.82098L45.6561 3.944L46.2528 2.96698L46.1962 1.45099L46.5244 1.37598L46.518 1.02399L46.8856 1.07999L46.2553 1.233L46.5421 1" stroke="#555555" stroke-width="2" stroke-linecap="round" stroke-linejoin="round"/>
<path d="M48.8203 3.21106L54.8203 20.2111" stroke="#555555" stroke-width="2" stroke-linecap="round" stroke-linejoin="round"/>
<path d="M57.0527 268.123V349.123" stroke="#555555" stroke-width="2" stroke-linecap="round" stroke-linejoin="round"/>
<path d="M39.3801 299.37L39.1235 299.126L37.986 299.355L37.6602 300.079L38.4537 299.907L37.885 300.09L38.2954 299.984L39.8698 300.668L42.8564 300.596L47.1816 299.889L48.5083 300.131L48.5592 300.366L50.4841 300.131L51.4283 300.401L53.3669 299.915L53.8624 299.997L53.545 300.149L55.9058 299.854L55.5968 300.019L56.1958 300.116L55.5558 300.085L56.5868 300.073L56.1618 300.319L56.9928 300.466L56.4858 300.359L57.0118 300.457L56.5008 300.353L56.8528 300.454L56.7938 300.198L56.5528 300.365L56.9348 300.451L56.5368 300.345L56.8788 300.127L56.7488 300.451L56.9288 300.234L56.4728 300.269L56.8148 300.221L56.7528 300.465L56.9618 300.385L56.5408 300.407L56.6678 300.149L56.8748 300.399L56.5628 300.302L56.7858 300.358L56.6748 300.105L55.7038 300.071L55.9538 299.838L55.3221 299.98" stroke="#555555" stroke-width="2" stroke-linecap="round" stroke-linejoin="round"/>
<path d="M37.4277 270.676V346.676" stroke="#555555" stroke-width="2" stroke-linecap="round" stroke-linejoin="round"/>
<path d="M25.8203 350.211H69.8202" stroke="#555555" stroke-width="2" stroke-linecap="round" stroke-linejoin="round"/>
<path d="M17.498 358.497H61.4983" stroke="#555555" stroke-width="2" stroke-linecap="round" stroke-linejoin="round"/>
<path d="M11.9277 366.337H55.9279" stroke="#555555" stroke-width="2" stroke-linecap="round" stroke-linejoin="round"/>
<path d="M1 375.336H45" stroke="#555555" stroke-width="2" stroke-linecap="round" stroke-linejoin="round"/>
<path d="M109.213 321.84V420.84" stroke="#555555" stroke-width="2" stroke-linecap="round" stroke-linejoin="round"/>
<path d="M175.213 315.84V424.84" stroke="#555555" stroke-width="2" stroke-linecap="round" stroke-linejoin="round"/>
<path d="M110.213 316.84H175.213" stroke="#555555" stroke-width="2" stroke-linecap="round" stroke-linejoin="round"/>
<path d="M111.693 408.608H176.693" stroke="#555555" stroke-width="2" stroke-linecap="round" stroke-linejoin="round"/>
<path d="M90.8184 427.211H262.818" stroke="#555555" stroke-width="2" stroke-linecap="round" stroke-linejoin="round"/>
<path d="M120.908 328.215V372.215" stroke="#555555" stroke-width="2" stroke-linecap="round" stroke-linejoin="round"/>
<path d="M162.391 329.232V373.232" stroke="#555555" stroke-width="2" stroke-linecap="round" stroke-linejoin="round"/>
<path d="M123.908 330.215H162.908" stroke="#555555" stroke-width="2" stroke-linecap="round" stroke-linejoin="round"/>
<path d="M123.408 367.84H162.408" stroke="#555555" stroke-width="2" stroke-linecap="round" stroke-linejoin="round"/>
<path d="M124.48 334.301V344.301" stroke="#555555" stroke-width="2" stroke-linecap="round" stroke-linejoin="round"/>
<path d="M126.766 332.136L125.943 333.204L126.438 333.058L125.979 333.235L127.429 333.84L129.6 333.569L131.54 333.764L132.741 333.571L133.456 333.035L133.341 333.226L134.387 333.19L134.099 333.439L134.473 333.167L133.963 333.357L134.592 333.414L134.159 333.298L134.512 333.368L134.022 333.406L134.4 333.489L134.151 333.586L134.403 333.518L133.951 333.447L134.17 333.263L134.093 333.501L134.448 333.518L133.926 333.498L134.211 333.587L134.172 333.308L134.121 333.604L134.394 333.331L134.206 333.575L134.008 333.384L134.393 333.274L134.111 333.314L134.369 333.521L134.318 333.246L134.24 333.528L133.993 333.377L134.226 333.252L133.856 333.351L133.349 334.022" stroke="#555555" stroke-width="2" stroke-linecap="round" stroke-linejoin="round"/>
<path d="M134.84 335.182L134.952 337.101L134.405 338.384L134.824 338.85L134.436 339.861L135.037 340.597L134.575 341.48L134.35 343.78L134.62 345L134.977 344.873L134.53 344.878L134.812 344.955L134.509 345.331L135.123 345.208L134.743 345.286L134.994 345.216L135.439 346.007L135.818 346.065H135.199L136.11 345.85L135.568 345.822L136.002 345.677L135.612 345.565L136.11 345.612L135.655 345.713L136.105 345.531L135.919 345.28L136.079 345.49L135.651 345.435L136.113 345.409L135.649 345.264L136.246 345.111L135.766 345.269L136.167 345.29L135.939 345.312L136.17 345.143L135.949 345.164L136.203 343.739L135.911 344.262L136.185 343.982L135.849 344.122L136.069 343.911L135.731 343.893L135.796 343.049L136.372 343.107L135.821 343.214L136.114 343.223L135.859 342.346L136.042 342.639L135.768 342.41L135.603 342.915L135.905 342.954L135.098 342.704L135.653 342.495L135.289 342.421L135.391 341.975L134.793 342.209L134.614 343.232" stroke="#555555" stroke-width="2" stroke-linecap="round" stroke-linejoin="round"/>
<path d="M125.28 344.368L125.543 344.619L125.341 344.693L126.413 344.657L124.574 344.981L124.849 344.697L130.6 344.726L132.281 344.244L132.246 343.968L132.968 344L133.897 343.457L135.589 343.146L136.454 342.537L136.257 342.332L136.856 342.392L136.123 342.418L136.608 342.621L136.171 342.577L136.518 342.565L136.19 342.766L136.525 342.889L135.703 343.003L136.421 342.969L136.068 342.879L136.354 342.728L135.84 342.768L136.394 342.646L136.092 342.659L136.142 342.983L135.766 342.771L136.12 342.668L135.871 342.507L136.13 342.284L135.808 342.743" stroke="#555555" stroke-width="2" stroke-linecap="round" stroke-linejoin="round"/>
<path d="M148.828 352.929V362.929" stroke="#555555" stroke-width="2" stroke-linecap="round" stroke-linejoin="round"/>
<path d="M151.116 350.764L150.293 351.832L150.788 351.685L150.329 351.863L151.778 352.468L153.949 352.197L155.889 352.392L157.09 352.199L157.805 351.663L157.691 351.854L158.736 351.818L158.448 352.067L158.823 351.795L158.312 351.985L158.941 352.042L158.508 351.926L158.861 351.996L158.371 352.034L158.749 352.117L158.501 352.214L158.753 352.146L158.301 352.075L158.519 351.891L158.443 352.129L158.797 352.146L158.276 352.125L158.561 352.215L158.521 351.936L158.47 352.232L158.743 351.959L158.555 352.203L158.357 352.012L158.742 351.902L158.46 351.942L158.718 352.149L158.668 351.874L158.59 352.156L158.342 352.005L158.576 351.88L158.205 351.979L157.698 352.65" stroke="#555555" stroke-width="2" stroke-linecap="round" stroke-linejoin="round"/>
<path d="M159.188 353.81L159.3 355.729L158.753 357.012L159.173 357.478L158.784 358.489L159.385 359.225L158.924 360.108L158.699 362.408L158.969 363.628L159.325 363.501L158.878 363.506L159.16 363.583L158.857 363.959L159.472 363.836L159.091 363.914L159.343 363.844L159.787 364.635L160.166 364.693H159.548L160.459 364.478L159.916 364.45L160.35 364.305L159.96 364.192L160.458 364.24L160.004 364.341L160.453 364.159L160.267 363.908L160.427 364.118L160 364.063L160.461 364.037L159.998 363.892L160.594 363.739L160.114 363.897L160.516 363.918L160.287 363.94L160.519 363.771L160.297 363.792L160.551 362.367L160.259 362.89L160.533 362.61L160.198 362.75L160.417 362.539L160.079 362.521L160.144 361.677L160.721 361.735L160.169 361.842L160.463 361.851L160.207 360.974L160.39 361.267L160.117 361.038L159.951 361.543L160.253 361.582L159.447 361.332L160.001 361.123L159.637 361.049L159.739 360.603L159.142 360.837L158.962 361.86" stroke="#555555" stroke-width="2" stroke-linecap="round" stroke-linejoin="round"/>
<path d="M149.629 362.996L149.891 363.247L149.689 363.321L150.761 363.285L148.922 363.609L149.197 363.325L154.948 363.353L156.629 362.872L156.595 362.596L157.316 362.628L158.245 362.085L159.937 361.774L160.802 361.165L160.605 360.96L161.204 361.02L160.471 361.046L160.956 361.249L160.519 361.205L160.867 361.193L160.538 361.394L160.874 361.517L160.052 361.631L160.769 361.597L160.416 361.507L160.703 361.356L160.189 361.396L160.742 361.274L160.44 361.287L160.49 361.611L160.115 361.399L160.468 361.296L160.219 361.135L160.479 360.912L160.156 361.371" stroke="#555555" stroke-width="2" stroke-linecap="round" stroke-linejoin="round"/>
<path d="M140.818 340.211H158.818" stroke="#555555" stroke-width="2" stroke-linecap="round" stroke-linejoin="round"/>
<path d="M142.818 336.211H160.818" stroke="#555555" stroke-width="2" stroke-linecap="round" stroke-linejoin="round"/>
<path d="M144.818 337.211V365.211" stroke="#555555" stroke-width="2" stroke-linecap="round" stroke-linejoin="round"/>
<path d="M154.144 338.386L153.923 338.232L153.807 338.803L153.755 338.565L153.36 338.742L153.55 338.91L152.917 338.955L153.393 339.014L152.876 339.006L153.226 339.109L153.035 340.213L153.575 343.013L153.18 345.083L153.6 345.522L153.213 345.64L153.72 346.035L153.412 346.139L153.861 346.013L153.397 346.755L153.861 347.07L153.454 347.04L153.963 347.633L153.641 347.555L153.438 348.049L153.638 348.773L154.081 349.008L153.612 349.239L153.706 350.088L153.58 349.841L153.967 349.884L153.529 349.902L154.081 349.876L153.311 349.919L154.118 349.878L153.454 349.831L154.018 349.84L153.768 349.64L153.461 349.915L153.754 349.637L153.47 349.839L153.722 349.805L153.044 349.41L152.799 349.557L153.288 349.431L152.854 349.64L153.501 349.627L153.098 349.659L153.32 349.303L153.085 349.649L152.788 349.554L153.088 349.543L153.12 349.178L151.891 349.951" stroke="#555555" stroke-width="2" stroke-linecap="round" stroke-linejoin="round"/>
<path d="M127.818 354.211H145.818" stroke="#555555" stroke-width="2" stroke-linecap="round" stroke-linejoin="round"/>
<path d="M128.818 360.211H142.818" stroke="#555555" stroke-width="2" stroke-linecap="round" stroke-linejoin="round"/>
<path d="M126.818 351.211V365.211" stroke="#555555" stroke-width="2" stroke-linecap="round" stroke-linejoin="round"/>
<path d="M137.818 351.211V370.211" stroke="#555555" stroke-width="2" stroke-linecap="round" stroke-linejoin="round"/>
<path d="M121.818 328.211V367.211" stroke="#555555" stroke-width="4" stroke-linecap="round" stroke-linejoin="round"/>
<path d="M125.818 326.211H162.818" stroke="#555555" stroke-width="4" stroke-linecap="round" stroke-linejoin="round"/>
<path d="M163.818 328.211V371.211" stroke="#555555" stroke-width="4" stroke-linecap="round" stroke-linejoin="round"/>
<path d="M123.818 368.211H163.818" stroke="#555555" stroke-width="4" stroke-linecap="round" stroke-linejoin="round"/>
<path d="M127.898 336.779L128.542 335.459L128.819 335.515L128.461 335.551L129.007 335.42L128.504 335.546L128.841 335.493L128.621 335.615L128.77 339.927L129.748 341.046L129.543 340.898L130.693 340.492L131.028 339.901L130.846 338.895L131.359 338.476L131.159 338.187L131.422 336.524L131.101 336.099L130.613 336.136L130.925 335.721L130.07 335.436L130.548 335.653L130.259 335.623L131.821 334.553L131.355 334.623L131.307 334.835L131.599 334.718L131.405 334.841L131.128 334.596L131.653 334.632L131.904 334.296L132.113 334.553L131.755 334.46L132.336 334.267L130.067 333.79L127.902 334.972L128.782 337.934L129.853 338.925L130.76 339.268L132.027 339.135L133.568 337.732L132.74 335.598" stroke="#555555" stroke-width="4" stroke-linecap="round" stroke-linejoin="round"/>
<path d="M148.458 352.759L148.123 356.31L148.621 358.151L150.069 358.459L149.802 358.404L150.925 357.376L151.392 356.242L151.398 356.586L151.034 356.604L151.479 356.68L152.062 358.866L152.223 358.355L151.924 358.245L153.163 356.902L154.954 352.314L154.316 352.881L154.464 353.242L153.333 357.813L153.474 358.374L153.279 358.204L153.64 358.693L153.39 358.651L155.078 356.414L156.188 354.379L155.949 354.368L155.648 354.693L156.05 354.97L157.27 357.471L156.82 357.324L158 356.727L158.075 356.419L157.758 356.486" stroke="#555555" stroke-width="4" stroke-linecap="round" stroke-linejoin="round"/>
</svg>
