<svg width="153" height="84" viewBox="0 0 153 84" fill="none" xmlns="http://www.w3.org/2000/svg">
<path d="M45.4668 3.61963V83.0003" stroke="black" stroke-width="0.886944" stroke-linecap="round" stroke-linejoin="round"/>
<path d="M4.26172 80.2461H44.6179" stroke="black" stroke-width="0.886944" stroke-linecap="round" stroke-linejoin="round"/>
<path d="M1 1.44336V80.8249" stroke="black" stroke-width="0.886944" stroke-linecap="round" stroke-linejoin="round"/>
<path d="M5.76758 5.54102V73.8357" stroke="black" stroke-width="0.886944" stroke-linecap="round" stroke-linejoin="round"/>
<path d="M41.1094 6.94922V75.2439" stroke="black" stroke-width="0.886944" stroke-linecap="round" stroke-linejoin="round"/>
<path d="M3.21875 1H43.5749" stroke="black" stroke-width="0.886944" stroke-linecap="round" stroke-linejoin="round"/>
<path d="M8.81641 6.12549H38.4381" stroke="black" stroke-width="0.886944" stroke-linecap="round" stroke-linejoin="round"/>
<path d="M9.63281 69.2817H39.2544" stroke="black" stroke-width="0.886944" stroke-linecap="round" stroke-linejoin="round"/>
<path d="M25.7642 78.0898L26.7504 77.3598L27.3986 76.3181L27.6096 74.9056L27.2939 73.7198L26.564 72.7335L25.3281 72.0173L24.1096 71.8745L22.9239 72.1903L21.9377 72.9202L21.2895 73.9619L21.0703 75.169L21.3942 76.5602L22.1242 77.5465L23.1659 78.1944L24.5786 78.4055L25.7642 78.0898Z" stroke="black" stroke-width="0.886944" stroke-linecap="round" stroke-linejoin="round"/>
<path d="M26.6189 14.0896L26.2761 13.545L26.0879 12.8647L26.3875 12.9157L26.3189 13.3543L26.4665 13.2914L26.4838 13.4146L27.1504 13.937L27.3723 14.3792L28.0599 15.2803L28.7399 15.9695L28.7811 16.1802L29.3577 17.0547L30.0649 17.7487L30.4601 17.9598L30.3868 17.9922L30.5327 17.9531L30.4236 17.8866L30.5871 17.9398L30.3749 17.9381L30.655 17.8649L30.334 17.8915L30.5752 17.88L30.3756 17.8556L30.4607 17.8143L30.4715 17.9004L30.64 17.8702L30.402 17.8808L30.5159 17.8578L30.4478 17.793L30.4968 17.8547L30.4182 17.8622L30.5276 17.8849L30.4096 17.8795L30.5054 17.8418L30.4678 17.9119L30.5486 17.9172L30.4041 17.9079L30.6916 18.0893L30.7571 18.1709L30.6825 18.2064L30.7971 18.2073L30.6741 18.2086L30.8066 18.209L30.6433 18.237L30.8623 18.2658L30.6745 18.3057L30.7814 18.3075L30.8685 18.6578L31.0195 18.5997L30.786 18.6175L30.9954 18.5199L30.8842 18.3133L30.5049 18.0542L30.4537 17.8684L30.6144 17.6808L30.4619 17.9199" stroke="black" stroke-width="0.55434" stroke-linecap="round" stroke-linejoin="round"/>
<path d="M26.6621 19.4115L30.3278 13.3018" stroke="black" stroke-width="0.55434" stroke-linecap="round" stroke-linejoin="round"/>
<path d="M50.2773 12.4966H55.7758" stroke="black" stroke-width="0.55434" stroke-linecap="round" stroke-linejoin="round"/>
<path d="M53.334 12.2451V17.7438" stroke="black" stroke-width="0.55434" stroke-linecap="round" stroke-linejoin="round"/>
<path d="M42.3281 12.6367V19.3571" stroke="black" stroke-width="0.55434" stroke-linecap="round" stroke-linejoin="round"/>
<path d="M42.6846 12.3984L42.2672 12.6832L42.5664 12.5803L42.8352 12.6818L43.176 12.5115L43.3949 12.5811L43.8654 12.5342L44.642 12.9271L44.9489 12.8858L45.1497 13.08L45.4895 13.1865L45.357 13.2645L45.5573 13.3523L45.673 13.6867L45.512 13.7346L45.5701 13.8366L45.4658 14.4233L45.3226 14.6131L45.3849 14.7293L44.2213 15.1112L43.3901 15.1865L43.3709 15.2451L43.4855 15.2247L43.3292 15.2659L43.5022 15.2021L43.3581 15.2096L43.4774 15.2313L43.3108 15.3059L43.3837 15.3396L43.2898 15.4149L43.37 15.4145L43.2606 15.3901L43.4395 15.3671L43.2113 15.3493L43.2594 15.391L43.111 15.4677L44.1415 15.54L44.2367 15.6331L44.7123 15.6761L44.9667 16.0278L45.2965 16.175L45.4381 16.4784L45.5951 16.5635L45.5235 16.6198L45.6253 16.729L45.5376 16.854L45.6203 16.9383L45.6858 17.525L45.5948 17.5441L45.6933 17.5427L45.6432 17.6926L45.717 17.823L45.633 17.8917L45.7931 17.9764L45.612 18.0062L45.5909 18.3254L45.3705 18.6177L44.5569 18.6723L44.4872 18.7867L44.0247 18.9068L43.4048 18.9924L42.5386 18.9508L42.3171 18.8665L42.4485 18.8621L42.2874 18.9015L42.3301 18.8204L42.2001 18.8075L42.265 18.7046L42.1621 18.7086" stroke="black" stroke-width="0.55434" stroke-linecap="round" stroke-linejoin="round"/>
<path d="M62.2606 13.5792L61.8033 13.542L61.3394 13.8267L60.7725 14.428L60.7283 14.6666L60.4134 15.127L60.2592 15.8121L59.992 16.2126L60.0027 16.7133L59.9023 17.0246L60.0211 17.3918L59.9457 17.6082L60.2518 17.7559L60.3406 17.8761L60.2977 17.9905L60.4902 18.2242L61.0492 18.3962L61.7286 18.441L62.1227 18.3586L62.7174 18.0539L62.7769 17.8206L63.1201 17.5687L63.3821 17.1909L63.3389 16.8441L63.555 16.3235L63.6091 15.9088L63.2663 15.4698L63.245 15.1948L62.8773 14.7873L62.6321 14.068L62.0772 13.8183L61.9942 13.8586" stroke="black" stroke-width="0.55434" stroke-linecap="round" stroke-linejoin="round"/>
<path d="M22.0759 13.4028L21.601 13.4973L21.5859 13.4254L21.7723 13.4303L21.6378 13.468L21.5956 13.6228L21.5219 13.5288L21.6971 13.5434L21.565 13.4388L21.3984 13.5567L21.5624 13.5846L21.4658 13.758L21.5417 14.6645L21.4703 15.6659L21.6315 16.3541L21.5086 17.0322L21.5796 17.3768L21.4877 17.5346L21.5269 18.6141L21.7578 18.7138L21.6252 18.8788L21.7785 18.9954L21.5937 19.0198L21.7205 19.0771L21.6472 19.0868L21.7027 18.9702L21.5716 18.9054L21.6272 18.8012L21.5404 18.8695L21.7227 18.8744L21.5394 18.8562L21.6696 18.9028L21.5756 18.8939L21.6572 18.9484L21.507 18.9977L21.6278 19.0243L21.5395 19.0557L21.737 19.0105L21.5854 19.0487L21.6766 19.0203L21.6501 18.9595L21.6256 19.0456L21.5619 19.0207L21.7337 19.0198L21.5514 19.0203L21.709 18.9715L21.5998 18.9711L21.72 18.9489L21.6542 18.8243L21.6293 18.9693L21.5157 18.8894" stroke="black" stroke-width="0.55434" stroke-linecap="round" stroke-linejoin="round"/>
<path d="M21.625 13.5752H24.9548" stroke="black" stroke-width="0.55434" stroke-linecap="round" stroke-linejoin="round"/>
<path d="M21.9961 18.7339H25.3259" stroke="black" stroke-width="0.55434" stroke-linecap="round" stroke-linejoin="round"/>
<path d="M21.7969 15.8887H23.8545" stroke="black" stroke-width="0.55434" stroke-linecap="round" stroke-linejoin="round"/>
<path d="M48.6328 13.4707V20.1911" stroke="black" stroke-width="0.55434" stroke-linecap="round" stroke-linejoin="round"/>
<path d="M57.1855 13.7964V19.0005" stroke="black" stroke-width="0.55434" stroke-linecap="round" stroke-linejoin="round"/>
<path d="M69.2754 12.9336V18.6384" stroke="black" stroke-width="0.55434" stroke-linecap="round" stroke-linejoin="round"/>
<path d="M64.8203 11.9048L69.0969 18.6252" stroke="black" stroke-width="0.55434" stroke-linecap="round" stroke-linejoin="round"/>
<path d="M65.3848 13.3262V18.5299" stroke="black" stroke-width="0.55434" stroke-linecap="round" stroke-linejoin="round"/>
<path d="M32.8418 12.1484V18.8688" stroke="black" stroke-width="0.55434" stroke-linecap="round" stroke-linejoin="round"/>
<path d="M33.127 15.4375H36.111" stroke="black" stroke-width="0.55434" stroke-linecap="round" stroke-linejoin="round"/>
<path d="M36.0059 12.4541V19.1745" stroke="black" stroke-width="0.55434" stroke-linecap="round" stroke-linejoin="round"/>
<path d="M39.4004 12.8057V19.526" stroke="black" stroke-width="0.55434" stroke-linecap="round" stroke-linejoin="round"/>
<path d="M26.4704 14.6697L26.1276 14.1251L25.9395 13.4448L26.239 13.4958L26.1705 13.9344L26.318 13.871L26.3354 13.9947L27.0019 14.5167L27.2239 14.9593L27.9114 15.8604L28.5915 16.5496L28.6327 16.7602L29.2093 17.6347L29.9165 18.3288L30.3116 18.5399L30.2383 18.5722L30.3842 18.5332L30.2752 18.4667L30.4386 18.5199L30.2265 18.5181L30.5065 18.445L30.1856 18.4716L30.4268 18.46L30.2271 18.4356L30.3123 18.3944L30.323 18.4804L30.4915 18.4503L30.2535 18.4605L30.3674 18.4379L30.2993 18.3731L30.3484 18.4348L30.2697 18.4423L30.3791 18.4649L30.2611 18.4592L30.3569 18.4215L30.3193 18.492L30.4001 18.4968L30.2557 18.4875L30.5432 18.6689L30.6086 18.751L30.5341 18.7864L30.6487 18.7873L30.5257 18.7887L30.6582 18.7891L30.4948 18.817L30.7138 18.8459L30.5261 18.8858L30.6329 18.8871L30.7201 19.2379L30.871 19.1798L30.6376 19.1971L30.847 19.1L30.7357 18.8933L30.3565 18.6343L30.3053 18.4485L30.466 18.2609L30.3135 18.5" stroke="black" stroke-width="0.55434" stroke-linecap="round" stroke-linejoin="round"/>
<path d="M26.5137 19.9916L30.1794 13.8818" stroke="black" stroke-width="0.55434" stroke-linecap="round" stroke-linejoin="round"/>
<path d="M50.1309 13.0757H55.6294" stroke="black" stroke-width="0.55434" stroke-linecap="round" stroke-linejoin="round"/>
<path d="M53.1875 12.8247V18.3229" stroke="black" stroke-width="0.55434" stroke-linecap="round" stroke-linejoin="round"/>
<path d="M42.1816 13.2158V19.9362" stroke="black" stroke-width="0.55434" stroke-linecap="round" stroke-linejoin="round"/>
<path d="M42.5381 12.9785L42.1207 13.2632L42.4199 13.1604L42.6887 13.2619L43.0295 13.0916L43.2484 13.1612L43.719 13.1142L44.4955 13.5071L44.8024 13.4659L45.0033 13.6601L45.343 13.7661L45.2105 13.8446L45.4108 13.932L45.5265 14.2668L45.3655 14.3147L45.4236 14.4167L45.3193 15.0034L45.176 15.1928L45.2383 15.3094L44.0748 15.6912L43.2436 15.7666L43.2244 15.8252L43.3389 15.8048L43.1827 15.8456L43.3558 15.7822L43.2116 15.7897L43.3309 15.8114L43.1644 15.8859L43.2371 15.9192L43.1433 15.995L43.2235 15.9946L43.1141 15.9702L43.293 15.9471L43.0648 15.9294L43.1129 15.9711L42.9645 16.0478L43.9949 16.1201L44.0901 16.2132L44.5657 16.2562L44.8202 16.6079L45.15 16.7551L45.2916 17.058L45.4486 17.1436L45.377 17.1999L45.4788 17.309L45.3911 17.4336L45.4738 17.5183L45.5392 18.1051L45.4483 18.1241L45.5468 18.1228L45.4967 18.2727L45.5705 18.4031L45.4865 18.4718L45.6466 18.5565L45.4655 18.5862L45.4445 18.9055L45.224 19.1978L44.4104 19.2523L44.3407 19.3667L43.8782 19.4865L43.2582 19.5725L42.392 19.5304L42.1707 19.4461L42.3021 19.4421L42.1409 19.4816L42.1836 19.4004L42.0536 19.3876L42.1185 19.2847L42.0156 19.2887" stroke="black" stroke-width="0.55434" stroke-linecap="round" stroke-linejoin="round"/>
<path d="M62.1122 14.1588L61.6549 14.1216L61.191 14.4067L60.624 15.0076L60.5798 15.2467L60.265 15.707L60.1108 16.3922L59.8435 16.7926L59.8542 17.2933L59.7539 17.6046L59.8727 17.9718L59.7973 18.1882L60.1034 18.3354L60.1922 18.4561L60.1492 18.5705L60.3417 18.8038L60.9008 18.9758L61.5801 19.0211L61.9743 18.9381L62.569 18.6339L62.6285 18.4006L62.9717 18.1488L63.2337 17.7709L63.1904 17.4237L63.4066 16.903L63.4607 16.4888L63.1178 16.0498L63.0965 15.7748L62.7289 15.3673L62.4836 14.648L61.9287 14.3983L61.8457 14.4386" stroke="black" stroke-width="0.55434" stroke-linecap="round" stroke-linejoin="round"/>
<path d="M21.9274 13.9824L21.4525 14.0769L21.4375 14.0051L21.6238 14.0099L21.4894 14.0476L21.4471 14.2024L21.3735 14.1079L21.5486 14.123L21.4165 14.0184L21.25 14.1363L21.4139 14.1638L21.3173 14.3377L21.3932 15.2441L21.3219 16.2455L21.483 16.9337L21.3601 17.6118L21.4312 17.9564L21.3393 18.1138L21.3784 19.1937L21.6093 19.2935L21.4767 19.4584L21.63 19.5751L21.4453 19.5994L21.572 19.6567L21.4987 19.6664L21.5542 19.5498L21.4231 19.485L21.4787 19.3808L21.3919 19.4491L21.5743 19.454L21.3909 19.4354L21.5211 19.4819L21.4271 19.4735L21.5087 19.528L21.3585 19.5773L21.4794 19.6035L21.391 19.6349L21.5886 19.5901L21.4369 19.6283L21.5281 19.5999L21.5016 19.5391L21.4771 19.6252L21.4134 19.5999L21.5853 19.5994L21.4029 19.5999L21.5605 19.5511L21.4513 19.5507L21.5715 19.528L21.5057 19.4039L21.4809 19.5489L21.3672 19.4691" stroke="black" stroke-width="0.55434" stroke-linecap="round" stroke-linejoin="round"/>
<path d="M21.4766 14.1548H24.8064" stroke="black" stroke-width="0.55434" stroke-linecap="round" stroke-linejoin="round"/>
<path d="M21.8496 19.3135H25.1794" stroke="black" stroke-width="0.55434" stroke-linecap="round" stroke-linejoin="round"/>
<path d="M21.6504 16.4688H23.708" stroke="black" stroke-width="0.55434" stroke-linecap="round" stroke-linejoin="round"/>
<path d="M48.4863 14.0508V20.7712" stroke="black" stroke-width="0.55434" stroke-linecap="round" stroke-linejoin="round"/>
<path d="M57.0391 14.3765V19.5806" stroke="black" stroke-width="0.55434" stroke-linecap="round" stroke-linejoin="round"/>
<path d="M69.127 13.5127V19.2175" stroke="black" stroke-width="0.55434" stroke-linecap="round" stroke-linejoin="round"/>
<path d="M64.6719 12.4844L68.9485 19.2047" stroke="black" stroke-width="0.55434" stroke-linecap="round" stroke-linejoin="round"/>
<path d="M65.2383 13.9053V19.1094" stroke="black" stroke-width="0.55434" stroke-linecap="round" stroke-linejoin="round"/>
<path d="M32.6953 12.7285V19.4489" stroke="black" stroke-width="0.55434" stroke-linecap="round" stroke-linejoin="round"/>
<path d="M32.9785 16.0171H35.9626" stroke="black" stroke-width="0.55434" stroke-linecap="round" stroke-linejoin="round"/>
<path d="M35.8574 13.0337V19.7541" stroke="black" stroke-width="0.55434" stroke-linecap="round" stroke-linejoin="round"/>
<path d="M39.2539 13.3857V20.1057" stroke="black" stroke-width="0.55434" stroke-linecap="round" stroke-linejoin="round"/>
<path d="M9.92383 38.4028H17.5118" stroke="black" stroke-width="0.332604" stroke-linecap="round" stroke-linejoin="round"/>
<path d="M10.3047 37.4533L13.9092 32.521" stroke="black" stroke-width="0.332604" stroke-linecap="round" stroke-linejoin="round"/>
<path d="M14.2891 32.5215L17.8936 37.8329" stroke="black" stroke-width="0.332604" stroke-linecap="round" stroke-linejoin="round"/>
<path d="M10.0859 38.0918H17.6743" stroke="black" stroke-width="0.332604" stroke-linecap="round" stroke-linejoin="round"/>
<path d="M10.4648 37.1428L14.0694 32.2104" stroke="black" stroke-width="0.332604" stroke-linecap="round" stroke-linejoin="round"/>
<path d="M14.4492 32.2104L18.0537 37.5224" stroke="black" stroke-width="0.332604" stroke-linecap="round" stroke-linejoin="round"/>
<path d="M10.4785 38.3188H18.0667" stroke="black" stroke-width="0.332604" stroke-linecap="round" stroke-linejoin="round"/>
<path d="M10.8613 37.3703L14.4654 32.438" stroke="black" stroke-width="0.332604" stroke-linecap="round" stroke-linejoin="round"/>
<path d="M14.8438 32.4375L18.4481 37.7494" stroke="black" stroke-width="0.332604" stroke-linecap="round" stroke-linejoin="round"/>
<path d="M10.6406 38.0078H18.2287" stroke="black" stroke-width="0.332604" stroke-linecap="round" stroke-linejoin="round"/>
<path d="M11.0215 37.0597L14.626 32.1274" stroke="black" stroke-width="0.332604" stroke-linecap="round" stroke-linejoin="round"/>
<path d="M15.0039 32.1274L18.6082 37.4393" stroke="black" stroke-width="0.332604" stroke-linecap="round" stroke-linejoin="round"/>
<path d="M25.3503 33.1335L25.3589 32.9264L25.0859 32.7148L25.374 32.9432L25.2529 32.9965L25.3354 33.0772L25.3087 33.2652L25.5585 33.4204L25.7971 33.8763L26.1204 34.8564L26.0685 35.0222L26.4986 35.5345L26.5207 35.6183L26.4238 35.6387L26.6652 35.7358L26.5853 35.7992L26.8318 36.2839L27.0357 36.4307L26.9419 36.4777L27.142 36.491L26.8827 36.4839L27.0759 36.4866L26.898 36.4884L27.0331 36.4977L26.8471 36.7518L27.0655 36.7784L26.8969 36.758L26.9168 36.9478" stroke="black" stroke-width="0.55434" stroke-linecap="round" stroke-linejoin="round"/>
<path d="M26.5794 38.6959L26.0662 38.6964L26.1257 38.8649L25.8709 39.2064L25.7383 39.2144L25.886 39.1101L25.8008 39.041L25.9763 38.9962L26.3863 38.0622L27.3299 36.7744L27.433 36.3615L27.8589 35.9553L28.3448 34.9991L28.6957 34.6829L28.7433 34.5082L29.3212 34.1198L29.2043 34.0896L29.2223 33.9308L29.4375 33.9104L29.325 33.8546L29.5607 33.7756L29.3333 33.7335L29.6921 33.5286L29.6247 33.4976L29.5998 33.6466L29.5337 33.5827L29.6951 33.6484L29.5624 33.6665L29.5688 33.5973L29.655 33.6488L29.4539 33.726L29.7075 33.6865L29.5445 33.667L29.683 33.7135L29.6608 33.6426L29.5222 33.7299L29.5897 33.6993L29.5336 33.7885L29.6285 33.757L29.5719 33.7193L29.5477 33.8009L29.6176 33.7974L29.539 33.7073L29.6054 33.671L29.6806 33.7113L29.5172 33.7348L29.6055 33.7974L29.5038 33.7641L29.6081 33.7947L29.5098 33.7872L29.645 33.9925L29.5452 33.9517L29.6353 33.945L29.512 33.9836L29.6346 34.0408L29.5246 34.032L29.6935 33.9663L29.5633 33.9526L29.6647 33.9299L29.5009 33.7783L29.645 33.8036L29.4707 33.792L29.6531 33.7211L29.487 33.6022L29.5927 33.5108L29.4802 33.6341L29.5886 33.6195L29.5218 33.5982L29.6086 33.5317L29.3872 33.5809L29.573 33.5978L29.4944 33.5987L29.5328 33.8133L29.4276 33.9703" stroke="black" stroke-width="0.55434" stroke-linecap="round" stroke-linejoin="round"/>
<path d="M25.2019 33.7131L25.2105 33.5065L24.9375 33.2949L25.2255 33.5233L25.1044 33.5761L25.187 33.6568L25.1603 33.8453L25.4101 34.0005L25.6487 34.4564L25.972 35.4365L25.9201 35.6023L26.3501 36.1145L26.3723 36.1983L26.2753 36.2187L26.5168 36.3154L26.4369 36.3793L26.6834 36.864L26.8873 37.0108L26.7934 37.0578L26.9936 37.0711L26.7343 37.0635L26.9274 37.0667L26.7496 37.0684L26.8847 37.0778L26.6986 37.3319L26.9171 37.358L26.7484 37.3381L26.7683 37.5274" stroke="black" stroke-width="0.55434" stroke-linecap="round" stroke-linejoin="round"/>
<path d="M26.4329 39.2745L25.9197 39.275L25.9792 39.4435L25.7244 39.785L25.5918 39.793L25.7395 39.6888L25.6543 39.6196L25.8299 39.5748L26.2398 38.6408L27.1835 37.353L27.2865 36.9401L27.7125 36.5339L28.1984 35.5778L28.5492 35.2616L28.5969 35.0868L29.1747 34.6984L29.0578 34.6682L29.0758 34.5094L29.2911 34.489L29.1785 34.4332L29.4142 34.3542L29.1868 34.3117L29.5457 34.1072L29.4782 34.0762L29.4533 34.2252L29.3872 34.1609L29.5486 34.2269L29.416 34.2451L29.4223 34.1759L29.5085 34.2274L29.3074 34.3046L29.5611 34.2651L29.398 34.2456L29.5366 34.2917L29.5144 34.2207L29.3757 34.3085L29.4433 34.278L29.3871 34.3671L29.482 34.3356L29.4254 34.2979L29.4012 34.3795L29.4712 34.3759L29.3925 34.2855L29.459 34.2491L29.5341 34.2895L29.3707 34.3134L29.4591 34.3759L29.3573 34.3427L29.4616 34.3733L29.3634 34.3658L29.4986 34.5711L29.3987 34.5303L29.4888 34.5236L29.3656 34.5622L29.4881 34.6194L29.3781 34.6106L29.5471 34.5445L29.4169 34.5312L29.5182 34.5085L29.3544 34.3569L29.4985 34.3822L29.3242 34.3706L29.5066 34.2997L29.3406 34.1808L29.4463 34.089L29.3337 34.2128L29.4421 34.1981L29.3753 34.1768L29.4621 34.1103L29.2407 34.1591L29.4266 34.1764L29.348 34.1773L29.3863 34.3915L29.2812 34.5489" stroke="black" stroke-width="0.55434" stroke-linecap="round" stroke-linejoin="round"/>
<path d="M33.7189 33.8037L33.6239 33.8471L33.206 33.5198L32.9626 33.5704L31.912 34.3473L31.7029 34.7713L31.4803 34.8707L30.9697 35.5088L31.0444 35.9873L30.9004 36.4867L31.1027 37.0104L31.0555 37.3266L31.1334 37.5359L31.7585 38.4326L32.2243 38.7976L32.4075 38.8863L32.8618 38.7404L33.9215 37.7519L34.5491 35.6818L34.437 34.6751L34.1987 34.2808L33.8791 34.0777L33.5163 33.5593L32.5056 33.1846L31.6774 33.4387L31.396 33.7757L31.2796 34.2325L30.9247 34.8862" stroke="black" stroke-width="0.55434" stroke-linecap="round" stroke-linejoin="round"/>
<path d="M33.5704 34.3832L33.4755 34.4267L33.0576 34.0994L32.8141 34.15L31.7636 34.9269L31.5544 35.3509L31.3319 35.4502L30.8213 36.0884L30.8959 36.5669L30.752 37.0662L30.9543 37.59L30.907 37.9062L30.985 38.1155L31.61 39.0122L32.0758 39.3767L32.2591 39.4659L32.7134 39.32L33.773 38.3315L34.4006 36.2613L34.2886 35.2547L34.0503 34.8604L33.7307 34.6573L33.3679 34.1384L32.3571 33.7642L31.5289 34.0178L31.2475 34.3549L31.1311 34.8116L30.7762 35.4658" stroke="black" stroke-width="0.55434" stroke-linecap="round" stroke-linejoin="round"/>
<path d="M40.4102 32.9346V39.172" stroke="black" stroke-width="0.665208" stroke-linecap="round" stroke-linejoin="round"/>
<path d="M36.3965 32.7969V38.4871" stroke="black" stroke-width="0.665208" stroke-linecap="round" stroke-linejoin="round"/>
<path d="M37.4062 38.0884H39.7442" stroke="black" stroke-width="0.665208" stroke-linecap="round" stroke-linejoin="round"/>
<path d="M41.0703 33.6006V39.838" stroke="black" stroke-width="0.665208" stroke-linecap="round" stroke-linejoin="round"/>
<path d="M37.0586 33.4634V39.1536" stroke="black" stroke-width="0.665208" stroke-linecap="round" stroke-linejoin="round"/>
<path d="M38.0645 38.7539H40.4024" stroke="black" stroke-width="0.665208" stroke-linecap="round" stroke-linejoin="round"/>
<path d="M57.2759 32.87L57.2934 32.7773L57.0817 32.9614L56.0705 32.8988L55.7486 33.0181L55.7045 33.1357L54.7826 33.2075L54.4653 33.3942L54.2083 33.7388L54.1647 34.1401L53.5121 34.7455L53.3247 35.0794L53.3059 35.5836L52.9785 36.5947L53.2042 36.8058L53.2307 37.4852L53.5211 37.9655L53.4463 38.0236L53.6459 38.1065L53.7361 38.4525L54.1654 38.6751L54.0462 38.7735L54.4651 39.0126L54.8662 39.0205L56.0919 39.4073L56.6477 39.3137L56.931 39.1389L57.8607 39.0618L58.1472 38.8511L58.0965 38.9421" stroke="black" stroke-width="0.665208" stroke-linecap="round" stroke-linejoin="round"/>
<path d="M76.8053 32.8662L76.275 32.9713L76.2582 32.8915L76.4663 32.8968L76.3162 32.9385L76.269 33.1114L76.1867 33.0063L76.3823 33.0232L76.2348 32.9061L76.0488 33.0378L76.2319 33.0689L76.124 33.2627L76.2088 34.2747L76.1291 35.3927L76.3091 36.1612L76.1718 36.9187L76.2511 37.3031L76.1485 37.4796L76.1922 38.685L76.4501 38.7963L76.302 38.9808L76.4731 39.1107L76.2669 39.1378L76.4085 39.2021L76.3266 39.2127L76.3886 39.0823L76.2422 39.0105L76.3043 38.8939L76.2073 38.9702L76.411 38.9755L76.2063 38.9551L76.3516 39.007L76.2466 38.9977L76.3378 39.0584L76.17 39.1134L76.305 39.1427L76.2063 39.1781L76.4269 39.1276L76.2575 39.1702L76.3594 39.1387L76.3298 39.0704L76.3025 39.1666L76.2313 39.1387L76.4233 39.1378L76.2196 39.1387L76.3956 39.0841L76.2736 39.0837L76.4079 39.0584L76.3344 38.9196L76.3067 39.0815L76.1797 38.9923" stroke="black" stroke-width="0.55434" stroke-linecap="round" stroke-linejoin="round"/>
<path d="M76.3027 33.0581H80.0209" stroke="black" stroke-width="0.55434" stroke-linecap="round" stroke-linejoin="round"/>
<path d="M76.7168 38.8179H80.4349" stroke="black" stroke-width="0.55434" stroke-linecap="round" stroke-linejoin="round"/>
<path d="M76.4961 35.6421H78.7937" stroke="black" stroke-width="0.55434" stroke-linecap="round" stroke-linejoin="round"/>
<path d="M71.1172 33.4478V39.2586" stroke="black" stroke-width="0.665208" stroke-linecap="round" stroke-linejoin="round"/>
<path d="M72.1465 38.8506H74.5342" stroke="black" stroke-width="0.665208" stroke-linecap="round" stroke-linejoin="round"/>
<path d="M65.834 33.4487V39.2596" stroke="black" stroke-width="0.665208" stroke-linecap="round" stroke-linejoin="round"/>
<path d="M66.8633 38.8516H69.2509" stroke="black" stroke-width="0.665208" stroke-linecap="round" stroke-linejoin="round"/>
<path d="M83.5557 34.0996L81.168 39.898" stroke="black" stroke-width="0.665208" stroke-linecap="round" stroke-linejoin="round"/>
<path d="M83.6699 32.4429L86.3987 39.2648" stroke="black" stroke-width="0.665208" stroke-linecap="round" stroke-linejoin="round"/>
<path d="M83.5566 38.1934H86.6265" stroke="black" stroke-width="0.665208" stroke-linecap="round" stroke-linejoin="round"/>
<path d="M95.4941 39.0308H97.8818" stroke="black" stroke-width="0.665208" stroke-linecap="round" stroke-linejoin="round"/>
<path d="M98.5977 33.1582V39.5287" stroke="black" stroke-width="0.665208" stroke-linecap="round" stroke-linejoin="round"/>
<path d="M91.6236 32.4901L91.641 32.397L91.4294 32.5815L90.4181 32.5185L90.0962 32.6378L90.0522 32.7558L89.1303 32.8272L88.8129 33.0143L88.556 33.3584L88.5124 33.7602L87.8598 34.3651L87.6724 34.6995L87.6536 35.2037L87.3262 36.2148L87.5519 36.4255L87.5783 37.1049L87.8687 37.5856L87.7939 37.6437L87.9936 37.7262L88.0838 38.0721L88.513 38.2951L88.3938 38.3936L88.8128 38.6322L89.2138 38.6402L90.4396 39.0269L90.9954 38.9333L91.2786 38.759L92.2084 38.6819L92.4949 38.4712L92.4442 38.5621" stroke="black" stroke-width="0.665208" stroke-linecap="round" stroke-linejoin="round"/>
<path d="M89.5273 36.3628H92.5972" stroke="black" stroke-width="0.665208" stroke-linecap="round" stroke-linejoin="round"/>
<path d="M92.5977 37.0454V42.5028" stroke="black" stroke-width="0.665208" stroke-linecap="round" stroke-linejoin="round"/>
<path d="M94.707 33.4756V39.2864" stroke="black" stroke-width="0.665208" stroke-linecap="round" stroke-linejoin="round"/>
<path d="M109.163 33.0644L108.861 33.0648L108.538 32.8302L108.181 32.8267L107.598 33.0976L106.895 33.9052L106.749 34.2976L106.912 34.3722L106.73 34.8311L107.242 35.9172L108.404 36.1953L108.767 36.5899L108.89 36.9589L108.768 36.9802L108.912 37.0631L108.955 37.4756L108.893 38.2179L108.706 38.4299L108.784 38.6557L108.436 39.0117L108.39 39.2237L108.236 39.3448L108.298 39.39L107.394 39.6495L106.322 39.5949L105.848 39.3288L105.727 39.4127" stroke="black" stroke-width="0.665208" stroke-linecap="round" stroke-linejoin="round"/>
<path d="M57.8365 32.6459L57.8539 32.5532L57.6423 32.7373L56.6311 32.6743L56.3092 32.7936L56.2651 32.9116L55.3432 32.983L55.0258 33.1701L54.7689 33.5147L54.7253 33.916L54.0727 34.5214L53.8853 34.8553L53.8665 35.3595L53.5391 36.3706L53.7648 36.5817L53.7913 37.2611L54.0816 37.7414L54.0069 37.7995L54.2065 37.8824L54.2967 38.2279L54.726 38.451L54.6068 38.5494L55.0257 38.7884L55.4267 38.7964L56.6525 39.1827L57.2083 39.0896L57.4915 38.9148L58.4213 38.8377L58.7078 38.627L58.6571 38.7179" stroke="black" stroke-width="0.665208" stroke-linecap="round" stroke-linejoin="round"/>
<path d="M77.3658 32.6411L76.8355 32.7462L76.8187 32.6664L77.0268 32.6717L76.8767 32.7134L76.8295 32.8864L76.7473 32.7813L76.9428 32.7981L76.7953 32.6806L76.6094 32.8123L76.7924 32.8438L76.6845 33.0376L76.7693 34.0496L76.6897 35.1676L76.8696 35.9361L76.7324 36.6936L76.8116 37.0781L76.7091 37.2541L76.7528 38.4599L77.0107 38.5712L76.8626 38.7553L77.0336 38.8856L76.8274 38.9127L76.969 38.977L76.8871 38.9872L76.9491 38.8573L76.8027 38.785L76.8648 38.6688L76.7679 38.7446L76.9715 38.7504L76.7668 38.73L76.9121 38.7819L76.8072 38.7721L76.8983 38.8333L76.7306 38.8883L76.8656 38.9176L76.7669 38.9526L76.9875 38.9025L76.8181 38.9451L76.92 38.9136L76.8904 38.8453L76.863 38.9415L76.7919 38.9136L76.9838 38.9127L76.7802 38.9136L76.9561 38.859L76.8342 38.8582L76.9684 38.8333L76.8949 38.6945L76.8672 38.8564L76.7403 38.7673" stroke="black" stroke-width="0.55434" stroke-linecap="round" stroke-linejoin="round"/>
<path d="M76.8613 32.833H80.5795" stroke="black" stroke-width="0.55434" stroke-linecap="round" stroke-linejoin="round"/>
<path d="M77.2773 38.5938H80.9955" stroke="black" stroke-width="0.55434" stroke-linecap="round" stroke-linejoin="round"/>
<path d="M77.0566 35.4175H79.3543" stroke="black" stroke-width="0.55434" stroke-linecap="round" stroke-linejoin="round"/>
<path d="M71.6797 33.2231V39.034" stroke="black" stroke-width="0.665208" stroke-linecap="round" stroke-linejoin="round"/>
<path d="M72.709 38.626H75.0966" stroke="black" stroke-width="0.665208" stroke-linecap="round" stroke-linejoin="round"/>
<path d="M66.3945 33.2236V39.0345" stroke="black" stroke-width="0.665208" stroke-linecap="round" stroke-linejoin="round"/>
<path d="M67.4258 38.627H69.8135" stroke="black" stroke-width="0.665208" stroke-linecap="round" stroke-linejoin="round"/>
<path d="M84.1162 33.876L81.7285 39.6744" stroke="black" stroke-width="0.665208" stroke-linecap="round" stroke-linejoin="round"/>
<path d="M84.2324 32.2192L86.9612 39.0412" stroke="black" stroke-width="0.665208" stroke-linecap="round" stroke-linejoin="round"/>
<path d="M84.1172 37.9683H87.187" stroke="black" stroke-width="0.665208" stroke-linecap="round" stroke-linejoin="round"/>
<path d="M96.0547 38.8066H98.4423" stroke="black" stroke-width="0.665208" stroke-linecap="round" stroke-linejoin="round"/>
<path d="M99.1562 32.9346V39.3046" stroke="black" stroke-width="0.665208" stroke-linecap="round" stroke-linejoin="round"/>
<path d="M92.1841 32.265L92.2016 32.1724L91.9899 32.3569L90.9787 32.2939L90.6568 32.4132L90.6127 32.5307L89.6908 32.6025L89.3735 32.7897L89.1165 33.1338L89.0729 33.5352L88.4203 34.1405L88.2329 34.4749L88.2141 34.9787L87.8867 35.9898L88.1124 36.2009L88.1388 36.8803L88.4292 37.361L88.3545 37.4186L88.5541 37.5016L88.6443 37.8475L89.0736 38.0705L88.9544 38.169L89.3733 38.4076L89.7744 38.4156L91.0001 38.8023L91.5559 38.7087L91.8392 38.5344L92.7689 38.4573L93.0554 38.2466L93.0047 38.3371" stroke="black" stroke-width="0.665208" stroke-linecap="round" stroke-linejoin="round"/>
<path d="M90.0879 36.1392H93.1578" stroke="black" stroke-width="0.665208" stroke-linecap="round" stroke-linejoin="round"/>
<path d="M93.1582 36.8208V42.2786" stroke="black" stroke-width="0.665208" stroke-linecap="round" stroke-linejoin="round"/>
<path d="M95.2695 33.251V39.0622" stroke="black" stroke-width="0.665208" stroke-linecap="round" stroke-linejoin="round"/>
<path d="M109.724 32.8393L109.422 32.8402L109.099 32.6056L108.741 32.6021L108.158 32.8726L107.456 33.6806L107.31 34.0731L107.472 34.1476L107.291 34.6066L107.803 35.6922L108.965 35.9707L109.328 36.3654L109.45 36.7343L109.329 36.7556L109.473 36.8386L109.516 37.251L109.454 37.9934L109.267 38.2053L109.345 38.4306L108.997 38.7872L108.951 38.9992L108.797 39.1202L108.858 39.1655L107.954 39.4249L106.882 39.3703L106.409 39.1043L106.287 39.1881" stroke="black" stroke-width="0.665208" stroke-linecap="round" stroke-linejoin="round"/>
<path d="M44.0974 33.563L43.1758 33.6193L43.5423 33.5674L43.4502 33.571L43.5204 33.637L43.3949 33.7213L43.5074 33.8579L43.3865 33.9546L43.6115 34.2956L43.6861 34.6837L43.6151 34.9231L43.7407 36.1449L43.519 36.8247L43.4965 37.7808L43.679 37.96L43.8861 37.4904" stroke="black" stroke-width="0.55434" stroke-linecap="round" stroke-linejoin="round"/>
<path d="M44.1915 33.0818L44.1155 32.9816L44.158 32.4122L44.0918 32.3155L44.5478 31.739L44.801 31.5634L45.2622 31.4365L45.8071 31.558L46.3083 32.0485L46.4529 32.6663L46.0797 33.657L45.1094 34.7706L44.6919 34.8863L44.8592 34.7994L45.1825 34.9258L45.8142 35.5267L46.2342 36.3369L46.5993 36.7737L46.6627 37.5023L46.8791 38.038L46.9632 37.9551L46.8991 37.9378" stroke="black" stroke-width="0.55434" stroke-linecap="round" stroke-linejoin="round"/>
<path d="M43.9489 34.1426L43.0273 34.1993L43.3939 34.1475L43.3017 34.151L43.372 34.2171L43.2465 34.3013L43.359 34.4375L43.2381 34.5346L43.4631 34.8756L43.5377 35.2637L43.4667 35.5031L43.5922 36.7249L43.3706 37.4047L43.3481 38.3609L43.5306 38.54L43.7377 38.0704" stroke="black" stroke-width="0.55434" stroke-linecap="round" stroke-linejoin="round"/>
<path d="M44.0451 33.6609L43.969 33.5612L44.0115 32.9913L43.9453 32.8946L44.4013 32.3186L44.6546 32.143L45.1157 32.0161L45.6607 32.1372L46.1618 32.6276L46.3064 33.2459L45.9332 34.2366L44.9629 35.3501L44.5455 35.4654L44.7127 35.3785L45.0361 35.5053L45.6677 36.1062L46.0877 36.9165L46.4528 37.3533L46.5163 38.0819L46.7326 38.6172L46.8167 38.5347L46.7526 38.5174" stroke="black" stroke-width="0.55434" stroke-linecap="round" stroke-linejoin="round"/>
<path d="M101.704 33.3452L101.173 33.4503L101.157 33.3705L101.365 33.3758L101.215 33.4175L101.167 33.5904L101.085 33.4853L101.281 33.5022L101.133 33.3847L100.947 33.5164L101.13 33.5479L101.022 33.7417L101.107 34.7537L101.028 35.8717L101.207 36.6402L101.07 37.3977L101.15 37.7822L101.047 37.9582L101.091 39.164L101.349 39.2753L101.2 39.4594L101.372 39.5897L101.165 39.6168L101.307 39.6811L101.225 39.6917L101.287 39.5614L101.141 39.4891L101.203 39.3729L101.106 39.4492L101.309 39.4545L101.105 39.4341L101.25 39.486L101.145 39.4762L101.236 39.5374L101.068 39.5924L101.203 39.6217L101.105 39.6567L101.325 39.6066L101.156 39.6492L101.258 39.6177L101.228 39.5494L101.201 39.6456L101.13 39.6177L101.322 39.6168L101.118 39.6177L101.294 39.5631L101.172 39.5622L101.306 39.5374L101.233 39.3986L101.205 39.5605L101.078 39.4713" stroke="black" stroke-width="0.55434" stroke-linecap="round" stroke-linejoin="round"/>
<path d="M101.199 33.5371H104.917" stroke="black" stroke-width="0.55434" stroke-linecap="round" stroke-linejoin="round"/>
<path d="M101.615 39.2974H105.334" stroke="black" stroke-width="0.55434" stroke-linecap="round" stroke-linejoin="round"/>
<path d="M101.393 36.1211H103.69" stroke="black" stroke-width="0.55434" stroke-linecap="round" stroke-linejoin="round"/>
<path d="M101.629 36.2856H104.158" stroke="black" stroke-width="0.665208" stroke-linecap="round" stroke-linejoin="round"/>
<path d="M102.264 33.1211L101.734 33.2262L101.717 33.1459L101.925 33.1517L101.775 33.1934L101.728 33.3664L101.646 33.2612L101.841 33.2777L101.694 33.1606L101.508 33.2923L101.691 33.3233L101.583 33.5176L101.668 34.5291L101.588 35.6476L101.768 36.4161L101.631 37.1731L101.71 37.558L101.608 37.7341L101.651 38.9399L101.909 39.0512L101.761 39.2353L101.932 39.3656L101.726 39.3927L101.867 39.457L101.786 39.4672L101.848 39.3373L101.701 39.265L101.763 39.1483L101.666 39.2246L101.87 39.2304L101.665 39.21L101.811 39.2619L101.706 39.2521L101.797 39.3133L101.629 39.3683L101.764 39.3976L101.665 39.4326L101.886 39.3825L101.717 39.4251L101.818 39.3931L101.789 39.3253L101.761 39.4215L101.69 39.3936L101.882 39.3927L101.679 39.3931L101.855 39.339L101.733 39.3382L101.867 39.3133L101.793 39.1741L101.766 39.3364L101.639 39.2472" stroke="black" stroke-width="0.55434" stroke-linecap="round" stroke-linejoin="round"/>
<path d="M101.762 33.3125H105.48" stroke="black" stroke-width="0.55434" stroke-linecap="round" stroke-linejoin="round"/>
<path d="M102.176 39.0732H105.894" stroke="black" stroke-width="0.55434" stroke-linecap="round" stroke-linejoin="round"/>
<path d="M101.953 35.897H104.251" stroke="black" stroke-width="0.55434" stroke-linecap="round" stroke-linejoin="round"/>
<path d="M102.191 36.062H104.721" stroke="black" stroke-width="0.665208" stroke-linecap="round" stroke-linejoin="round"/>
<path d="M61.272 33.7336L60.7613 33.6919L60.2433 34.0099L59.6103 34.6813L59.5609 34.9482L59.2093 35.4618L59.0372 36.2272L58.7387 36.6742L58.7507 37.233L58.6387 37.5811L58.7713 37.9909L58.6871 38.2326L59.0289 38.3971L59.1281 38.532L59.0801 38.6597L59.295 38.92L59.9193 39.1124L60.6779 39.1626L61.118 39.0703L61.782 38.7302L61.8485 38.4699L62.2317 38.1882L62.5243 37.7665L62.476 37.3789L62.7173 36.798L62.7777 36.335L62.3949 35.8445L62.3711 35.5376L61.9606 35.0826L61.6867 34.2795L61.0671 34.001L60.9745 34.0458" stroke="black" stroke-width="0.665208" stroke-linecap="round" stroke-linejoin="round"/>
<path d="M61.8325 33.509L61.3219 33.4673L60.8039 33.7853L60.1708 34.4567L60.1215 34.7232L59.7699 35.2372L59.5977 36.0022L59.2993 36.4497L59.3113 37.0084L59.1992 37.3565L59.3319 37.7663L59.2477 38.0076L59.5894 38.1725L59.6886 38.3069L59.6406 38.4351L59.8556 38.6954L60.4798 38.8879L61.2384 38.938L61.6785 38.8453L62.3426 38.5056L62.409 38.2452L62.7923 37.9637L63.0848 37.5419L63.0365 37.1543L63.2779 36.5729L63.3383 36.1104L62.9554 35.6199L62.9317 35.313L62.5211 34.858L62.2473 34.0549L61.6277 33.776L61.535 33.8212" stroke="black" stroke-width="0.665208" stroke-linecap="round" stroke-linejoin="round"/>
<path d="M65.7478 45.0396L64.8262 45.0959L65.1927 45.044L65.1005 45.0475L65.1708 45.114L65.0452 45.1979L65.1578 45.3345L65.0369 45.4316L65.2619 45.7722L65.3365 46.1602L65.2655 46.3997L65.3911 47.6214L65.1694 48.3013L65.1469 49.2574L65.3294 49.4366L65.5365 48.9669" stroke="black" stroke-width="0.55434" stroke-linecap="round" stroke-linejoin="round"/>
<path d="M65.84 44.5584L65.7639 44.4581L65.8064 43.8887L65.7402 43.7921L66.1962 43.2155L66.4495 43.0399L66.9106 42.9131L67.4555 43.0346L67.9568 43.5251L68.1013 44.1428L67.7281 45.134L66.7578 46.2476L66.3404 46.3629L66.5076 46.2759L66.831 46.4023L67.4626 47.0032L67.8826 47.8135L68.2478 48.2503L68.3112 48.9789L68.5275 49.5146L68.6116 49.4317L68.5475 49.4148" stroke="black" stroke-width="0.55434" stroke-linecap="round" stroke-linejoin="round"/>
<path d="M65.5993 45.6191L64.6777 45.6754L65.0443 45.6236L64.9521 45.6271L65.0224 45.6932L64.8968 45.7775L65.0094 45.914L64.8885 46.0107L65.1135 46.3517L65.1881 46.7398L65.1171 46.9793L65.2426 48.201L65.021 48.8809L64.9984 49.837L65.181 50.0162L65.3881 49.5465" stroke="black" stroke-width="0.55434" stroke-linecap="round" stroke-linejoin="round"/>
<path d="M65.6935 45.1375L65.6174 45.0372L65.66 44.4678L65.5938 44.3711L66.0497 43.7946L66.303 43.619L66.7641 43.4922L67.3091 43.6133L67.8103 44.1037L67.9548 44.7219L67.5817 45.7127L66.6113 46.8262L66.1939 46.9415L66.3612 46.855L66.6845 46.9814L67.3161 47.5823L67.7362 48.3926L68.1013 48.8294L68.1647 49.558L68.381 50.0937L68.4651 50.0108L68.401 49.9935" stroke="black" stroke-width="0.55434" stroke-linecap="round" stroke-linejoin="round"/>
<path d="M60.9176 44.3828L58.7793 49.5759" stroke="black" stroke-width="0.55434" stroke-linecap="round" stroke-linejoin="round"/>
<path d="M61.0215 42.8999L63.4653 49.0096" stroke="black" stroke-width="0.55434" stroke-linecap="round" stroke-linejoin="round"/>
<path d="M60.916 48.0493H63.6653" stroke="black" stroke-width="0.55434" stroke-linecap="round" stroke-linejoin="round"/>
<path d="M60.7691 44.9629L58.6309 50.156" stroke="black" stroke-width="0.55434" stroke-linecap="round" stroke-linejoin="round"/>
<path d="M60.873 43.479L63.3168 49.5883" stroke="black" stroke-width="0.55434" stroke-linecap="round" stroke-linejoin="round"/>
<path d="M60.7676 48.6284H63.5168" stroke="black" stroke-width="0.55434" stroke-linecap="round" stroke-linejoin="round"/>
<path d="M71.6119 43.6016L71.0816 43.7071L71.0649 43.6268L71.273 43.6322L71.1228 43.6739L71.0756 43.8468L70.9934 43.7417L71.1889 43.7586L71.0414 43.6415L70.8555 43.7732L71.0385 43.8042L70.9306 43.998L71.0155 45.01L70.9358 46.128L71.1157 46.8966L70.9784 47.654L71.0578 48.0385L70.9552 48.215L70.9989 49.4204L71.2568 49.5317L71.1086 49.7162L71.2798 49.8461L71.0735 49.8732L71.2151 49.9375L71.1333 49.9481L71.1952 49.8177L71.0488 49.7459L71.1109 49.6293L71.014 49.7055L71.2176 49.7108L71.0129 49.6905L71.1582 49.7423L71.0533 49.733L71.1444 49.7938L70.9767 49.8488L71.1117 49.878L71.0129 49.9135L71.2336 49.863L71.0642 49.9055L71.1661 49.8741L71.1365 49.8058L71.1091 49.902L71.038 49.8741L71.2299 49.8732L71.0262 49.8741L71.2022 49.8195L71.0803 49.8191L71.2145 49.7938L71.141 49.655L71.1133 49.8168L70.9864 49.7277" stroke="black" stroke-width="0.55434" stroke-linecap="round" stroke-linejoin="round"/>
<path d="M71.1074 43.7935H74.8256" stroke="black" stroke-width="0.55434" stroke-linecap="round" stroke-linejoin="round"/>
<path d="M71.5234 49.5537H75.2416" stroke="black" stroke-width="0.55434" stroke-linecap="round" stroke-linejoin="round"/>
<path d="M71.3027 46.3774H73.6003" stroke="black" stroke-width="0.55434" stroke-linecap="round" stroke-linejoin="round"/>
<path d="M71.5391 46.5415H74.0685" stroke="black" stroke-width="0.665208" stroke-linecap="round" stroke-linejoin="round"/>
<path d="M72.1724 43.377L71.6422 43.4821L71.6254 43.4022L71.8335 43.4076L71.6833 43.4493L71.6362 43.6222L71.5539 43.5171L71.7495 43.5339L71.602 43.4164L71.416 43.5481L71.5991 43.5796L71.4912 43.7734L71.576 44.7854L71.4963 45.9034L71.6762 46.6719L71.539 47.4294L71.6183 47.8139L71.5157 47.9899L71.5594 49.1958L71.8173 49.3071L71.6692 49.4911L71.8403 49.6215L71.6341 49.6486L71.7757 49.7128L71.6938 49.7235L71.7558 49.5931L71.6094 49.5208L71.6715 49.4046L71.5745 49.4809L71.7782 49.4862L71.5734 49.4658L71.7188 49.5177L71.6138 49.508L71.705 49.5692L71.5372 49.6242L71.6722 49.6534L71.5735 49.6884L71.7941 49.6383L71.6247 49.6809L71.7266 49.6494L71.697 49.5811L71.6697 49.6774L71.5985 49.6494L71.7905 49.6486L71.5868 49.6494L71.7628 49.5949L71.6408 49.594L71.7751 49.5692L71.7016 49.4304L71.6739 49.5922L71.5469 49.5031" stroke="black" stroke-width="0.55434" stroke-linecap="round" stroke-linejoin="round"/>
<path d="M71.6699 43.5693H75.3881" stroke="black" stroke-width="0.55434" stroke-linecap="round" stroke-linejoin="round"/>
<path d="M72.084 49.3296H75.8021" stroke="black" stroke-width="0.55434" stroke-linecap="round" stroke-linejoin="round"/>
<path d="M71.8652 46.1528H74.1628" stroke="black" stroke-width="0.55434" stroke-linecap="round" stroke-linejoin="round"/>
<path d="M72.0996 46.3179H74.629" stroke="black" stroke-width="0.665208" stroke-linecap="round" stroke-linejoin="round"/>
<path d="M84.5049 43.5971L84.5215 43.5088L84.3199 43.684L83.3569 43.6241L83.0503 43.7376L83.0083 43.8498L82.1303 43.9181L81.8281 44.0964L81.5834 44.4241L81.5419 44.8064L80.9204 45.3829L80.7419 45.7013L80.724 46.1812L80.4121 47.1444L80.6271 47.3453L80.6523 47.9923L80.9288 48.45L80.8576 48.5049L81.0478 48.5839L81.1336 48.9134L81.5425 49.1258L81.4289 49.2194L81.8279 49.4469L82.2099 49.4544L83.3773 49.8225L83.9066 49.7334L84.1763 49.5675L85.0619 49.4939L85.3347 49.2934L85.2864 49.3799" stroke="black" stroke-width="0.665208" stroke-linecap="round" stroke-linejoin="round"/>
<path d="M82.5098 47.2856H85.4334" stroke="black" stroke-width="0.665208" stroke-linecap="round" stroke-linejoin="round"/>
<path d="M84.415 43.3963L84.4316 43.3081L84.2301 43.4837L83.267 43.4238L82.9604 43.5374L82.9184 43.6496L82.0405 43.7179L81.7382 43.8957L81.4934 44.2239L81.452 44.6061L80.8305 45.1827L80.652 45.5006L80.6341 45.9809L80.3223 46.9437L80.5373 47.1446L80.5624 47.7916L80.839 48.2497L80.7678 48.3047L80.9579 48.3836L81.0438 48.7127L81.4526 48.9251L81.3391 49.0191L81.7381 49.2466L82.12 49.2542L83.2874 49.6223L83.8167 49.5331L84.0865 49.3668L84.972 49.2936L85.2448 49.0927L85.1965 49.1797" stroke="black" stroke-width="0.665208" stroke-linecap="round" stroke-linejoin="round"/>
<path d="M82.4219 47.0854H85.3456" stroke="black" stroke-width="0.665208" stroke-linecap="round" stroke-linejoin="round"/>
<path d="M90.0532 44.1901L89.5426 44.1484L89.0246 44.4669L88.3915 45.1378L88.3422 45.4048L87.9906 45.9188L87.8184 46.6838L87.52 47.1308L87.532 47.6896L87.4199 48.0377L87.5526 48.4475L87.4683 48.6892L87.8102 48.8537L87.9093 48.9885L87.8614 49.1162L88.0763 49.377L88.7005 49.569L89.4591 49.6191L89.8992 49.5269L90.5633 49.1872L90.6297 48.9264L91.013 48.6453L91.3055 48.2231L91.2572 47.8359L91.4986 47.2545L91.559 46.7915L91.1761 46.3011L91.1524 45.9946L90.7418 45.5392L90.468 44.736L89.8484 44.4575L89.7557 44.5023" stroke="black" stroke-width="0.665208" stroke-linecap="round" stroke-linejoin="round"/>
<path d="M90.6138 43.966L90.1031 43.9243L89.5851 44.2423L88.9521 44.9137L88.9027 45.1807L88.5511 45.6942L88.379 46.4596L88.0806 46.9067L88.0925 47.4654L87.9805 47.8136L88.1131 48.2233L88.0289 48.465L88.3707 48.6296L88.4698 48.7644L88.4219 48.8921L88.6368 49.1524L89.2611 49.3449L90.0197 49.395L90.4597 49.3027L91.1238 48.9626L91.1903 48.7023L91.5735 48.4211L91.866 47.9989L91.8177 47.6114L92.0591 47.0304L92.1195 46.5674L91.7367 46.0769L91.7129 45.77L91.3024 45.315L91.0285 44.5119L90.4089 44.2334L90.3162 44.2782" stroke="black" stroke-width="0.665208" stroke-linecap="round" stroke-linejoin="round"/>
<path d="M93.8789 43.8921V50.6125" stroke="black" stroke-width="0.55434" stroke-linecap="round" stroke-linejoin="round"/>
<path d="M100.297 44.1567V49.8616" stroke="black" stroke-width="0.55434" stroke-linecap="round" stroke-linejoin="round"/>
<path d="M95.8418 43.1274L100.118 49.8478" stroke="black" stroke-width="0.55434" stroke-linecap="round" stroke-linejoin="round"/>
<path d="M96.4082 44.5483V49.7525" stroke="black" stroke-width="0.55434" stroke-linecap="round" stroke-linejoin="round"/>
<path d="M93.7344 44.4717V51.1921" stroke="black" stroke-width="0.55434" stroke-linecap="round" stroke-linejoin="round"/>
<path d="M100.15 44.7358V50.4406" stroke="black" stroke-width="0.55434" stroke-linecap="round" stroke-linejoin="round"/>
<path d="M95.6934 43.707L99.9699 50.427" stroke="black" stroke-width="0.55434" stroke-linecap="round" stroke-linejoin="round"/>
<path d="M96.2617 45.1284V50.3326" stroke="black" stroke-width="0.55434" stroke-linecap="round" stroke-linejoin="round"/>
<path d="M107.562 43.7001L107.578 43.6118L107.376 43.787L106.414 43.7276L106.107 43.8411L106.065 43.9533L105.187 44.0212L104.885 44.1994L104.64 44.5272L104.598 44.9099L103.977 45.4859L103.798 45.8044L103.781 46.2846L103.469 47.2474L103.684 47.4483L103.709 48.0953L103.985 48.553L103.914 48.6084L104.104 48.6869L104.19 49.0164L104.599 49.2288L104.486 49.3224L104.884 49.5499L105.266 49.5575L106.434 49.926L106.963 49.8368L107.233 49.6705L108.119 49.5969L108.391 49.3965L108.343 49.483" stroke="black" stroke-width="0.665208" stroke-linecap="round" stroke-linejoin="round"/>
<path d="M105.564 47.3887H108.488" stroke="black" stroke-width="0.665208" stroke-linecap="round" stroke-linejoin="round"/>
<path d="M107.472 43.4998L107.488 43.4111L107.287 43.5867L106.324 43.5269L106.017 43.6404L105.975 43.7526L105.097 43.8209L104.795 43.9992L104.55 44.3269L104.509 44.7092L103.887 45.2857L103.709 45.6041L103.691 46.0839L103.379 47.0472L103.594 47.248L103.619 47.8951L103.896 48.3527L103.824 48.4077L104.015 48.4867L104.1 48.8162L104.509 49.0286L104.396 49.1222L104.795 49.3497L105.176 49.3572L106.344 49.7253L106.874 49.6361L107.143 49.4703L108.029 49.3967L108.302 49.1962L108.253 49.2827" stroke="black" stroke-width="0.665208" stroke-linecap="round" stroke-linejoin="round"/>
<path d="M105.473 47.1885H108.396" stroke="black" stroke-width="0.665208" stroke-linecap="round" stroke-linejoin="round"/>
<path d="M85.4336 47.936V53.1335" stroke="black" stroke-width="0.665208" stroke-linecap="round" stroke-linejoin="round"/>
<path d="M85.3438 47.7358V52.9333" stroke="black" stroke-width="0.665208" stroke-linecap="round" stroke-linejoin="round"/>
<path d="M108.574 47.4092V52.6067" stroke="black" stroke-width="0.665208" stroke-linecap="round" stroke-linejoin="round"/>
<path d="M108.486 47.209V52.4069" stroke="black" stroke-width="0.665208" stroke-linecap="round" stroke-linejoin="round"/>
<path d="M112.109 49.7227L112.376 50.2677L111.962 51.6992L111.447 52.4279L110.909 54.4612L110.361 55.2993" stroke="black" stroke-width="0.886944" stroke-linecap="round" stroke-linejoin="round"/>
<path d="M60.748 61.6063L61.4483 61.5318L61.1411 61.389L61.424 60.3845L61.4057 59.6736L61.5229 59.5477L61.6496 58.988L61.3796 58.1902L61.5941 57.9366L61.3988 56.988L61.5708 56.7317L61.3824 56.3427L61.463 56.246L61.3903 56.2305L61.5243 56.2172L61.4673 56.1693L61.5715 56.0633L61.2792 55.8656L61.4996 55.7267L61.4376 55.4873L61.6515 55.458L61.4688 55.5059L61.5179 55.5449L61.3054 55.6815L61.3747 55.6886L61.2668 55.6877L61.4818 55.5746L61.5128 55.6797L61.2343 55.6434L61.5065 55.6349L61.5485 55.5777L61.4323 55.5458L61.5511 55.5689L61.4513 55.6057L61.5555 55.54L61.4892 55.5165L61.5725 55.5378L61.4253 55.5187L61.5713 55.5467L61.5031 55.6017L61.6737 55.5307" stroke="black" stroke-width="0.665208" stroke-linecap="round" stroke-linejoin="round"/>
<path d="M60.9256 61.0634L61.1051 61.0341L60.9747 60.9747L61.1184 60.9529L60.8162 60.7392L60.8135 60.4908L60.5887 60.3103L60.657 60.2203L60.5888 60.0983L60.2139 59.9165L59.8065 59.1542L59.2501 58.4757L59.2477 58.3546L58.9777 58.3258L58.7794 58.1724L58.5703 58.3435L58.7831 58.3613L58.7004 58.4074" stroke="black" stroke-width="0.665208" stroke-linecap="round" stroke-linejoin="round"/>
<path d="M57.1035 60.9821L57.5544 60.7186L57.5161 60.5989L58.0715 59.6503L58.4629 58.6964L58.7492 58.3682L58.6969 58.2596L58.8415 58.0906L58.9562 58.1354L58.8404 58.0547" stroke="black" stroke-width="0.665208" stroke-linecap="round" stroke-linejoin="round"/>
<path d="M56.9008 61.0725L56.9743 60.7235L56.9369 60.0432L56.7764 59.1159L56.5969 58.7837L56.6162 58.3252L56.2771 57.7509L56.1684 57.7017L56.2557 57.2653L56.1065 57.2112L55.9899 56.7557L56.0276 56.1881L55.9609 56.0985L56.0029 56.1482L55.9969 55.9615L56.1012 55.8511L55.9882 55.871L56.0364 55.9335L56.1063 55.8528" stroke="black" stroke-width="0.665208" stroke-linecap="round" stroke-linejoin="round"/>
<path d="M68.6887 57.187L66.5137 62.4692" stroke="black" stroke-width="0.665208" stroke-linecap="round" stroke-linejoin="round"/>
<path d="M68.791 55.6782L71.2767 61.8926" stroke="black" stroke-width="0.665208" stroke-linecap="round" stroke-linejoin="round"/>
<path d="M68.6875 60.9155H71.4839" stroke="black" stroke-width="0.665208" stroke-linecap="round" stroke-linejoin="round"/>
<path d="M63.1504 54.7832V61.6189" stroke="black" stroke-width="0.665208" stroke-linecap="round" stroke-linejoin="round"/>
<path d="M63.4434 58.1294H66.4786" stroke="black" stroke-width="0.55434" stroke-linecap="round" stroke-linejoin="round"/>
<path d="M66.3691 55.0947V61.9304" stroke="black" stroke-width="0.665208" stroke-linecap="round" stroke-linejoin="round"/>
<path d="M77.3301 55.8428V61.6456" stroke="black" stroke-width="0.665208" stroke-linecap="round" stroke-linejoin="round"/>
<path d="M72.8008 54.7969L77.1507 61.6326" stroke="black" stroke-width="0.665208" stroke-linecap="round" stroke-linejoin="round"/>
<path d="M73.375 56.2422V61.5355" stroke="black" stroke-width="0.665208" stroke-linecap="round" stroke-linejoin="round"/>
<path d="M78.9121 56.1675H84.5049" stroke="black" stroke-width="0.665208" stroke-linecap="round" stroke-linejoin="round"/>
<path d="M82.0195 55.9126V61.5052" stroke="black" stroke-width="0.665208" stroke-linecap="round" stroke-linejoin="round"/>
<path d="M99.2249 56.9898L98.7598 56.9517L98.2879 57.2417L97.7112 57.8528L97.6663 58.0958L97.346 58.5641L97.1892 59.2608L96.9173 59.6684L96.9283 60.1775L96.8262 60.4946L96.947 60.8675L96.8703 61.0879L97.1817 61.2378L97.272 61.3602L97.2283 61.4769L97.4241 61.7141L97.9927 61.8893L98.6837 61.935L99.0846 61.8507L99.6895 61.5412L99.7501 61.3039L100.099 61.0476L100.366 60.6635L100.322 60.3105L100.542 59.781L100.597 59.3593L100.248 58.9127L100.226 58.6333L99.8522 58.2187L99.6028 57.4869L99.0383 57.2333L98.9539 57.2741" stroke="black" stroke-width="0.665208" stroke-linecap="round" stroke-linejoin="round"/>
<path d="M89.8535 56.6084H95.4463" stroke="black" stroke-width="0.665208" stroke-linecap="round" stroke-linejoin="round"/>
<path d="M92.959 56.353V61.9461" stroke="black" stroke-width="0.665208" stroke-linecap="round" stroke-linejoin="round"/>
<path d="M109.514 56.2543L109.53 56.1709L109.34 56.3363L108.434 56.28L108.145 56.3869L108.106 56.4924L107.279 56.5567L106.995 56.7243L106.765 57.033L106.726 57.3927L106.141 57.935L105.973 58.2348L105.956 58.6867L105.662 59.5932L105.864 59.7821L105.888 60.391L106.149 60.8221L106.082 60.8739L106.26 60.948L106.341 61.258L106.726 61.458L106.619 61.5462L106.995 61.76L107.354 61.7675L108.453 62.1139L108.951 62.0301L109.205 61.8735L110.038 61.8043L110.295 61.6159L110.25 61.697" stroke="black" stroke-width="0.55434" stroke-linecap="round" stroke-linejoin="round"/>
<path d="M113.097 57.028L112.639 56.9907L112.175 57.2759L111.607 57.8777L111.563 58.1167L111.248 58.5775L111.094 59.2631L110.826 59.664L110.837 60.1651L110.736 60.4769L110.855 60.8441L110.78 61.0605L111.086 61.2081L111.175 61.3288L111.132 61.4436L111.325 61.6769L111.884 61.8494L112.564 61.8942L112.959 61.8117L113.554 61.5071L113.614 61.2738L113.957 61.0214L114.219 60.6432L114.176 60.2959L114.392 59.7748L114.446 59.3597L114.104 58.9203L114.082 58.6453L113.714 58.2373L113.469 57.5176L112.913 57.2675L112.83 57.3078" stroke="black" stroke-width="0.55434" stroke-linecap="round" stroke-linejoin="round"/>
<path d="M119.656 56.8569V62.5671" stroke="black" stroke-width="0.55434" stroke-linecap="round" stroke-linejoin="round"/>
<path d="M115.195 55.8271L119.476 62.5533" stroke="black" stroke-width="0.55434" stroke-linecap="round" stroke-linejoin="round"/>
<path d="M115.762 57.25V62.4586" stroke="black" stroke-width="0.55434" stroke-linecap="round" stroke-linejoin="round"/>
<path d="M120.555 56.9521H126.058" stroke="black" stroke-width="0.55434" stroke-linecap="round" stroke-linejoin="round"/>
<path d="M123.609 56.7017V62.2051" stroke="black" stroke-width="0.55434" stroke-linecap="round" stroke-linejoin="round"/>
<path d="M135.79 56.287L135.805 56.2036L135.616 56.3686L134.709 56.3127L134.421 56.4196L134.381 56.5251L133.555 56.589L133.27 56.7566L133.04 57.0653L133.001 57.4254L132.416 57.9677L132.248 58.2675L132.231 58.7194L131.938 59.6254L132.14 59.8148L132.164 60.4237L132.424 60.8543L132.357 60.9062L132.536 60.9807L132.616 61.2907L133.001 61.4902L132.895 61.5785L133.27 61.7927L133.629 61.7998L134.728 62.1466L135.226 62.0628L135.48 61.9062L136.314 61.837L136.57 61.6481L136.525 61.7297" stroke="black" stroke-width="0.55434" stroke-linecap="round" stroke-linejoin="round"/>
<path d="M136.639 56.9961H142.142" stroke="black" stroke-width="0.55434" stroke-linecap="round" stroke-linejoin="round"/>
<path d="M139.695 56.7456V62.2491" stroke="black" stroke-width="0.55434" stroke-linecap="round" stroke-linejoin="round"/>
<path d="M61.3203 61.5291L62.0206 61.4542L61.7134 61.3118L61.9962 60.3069L61.978 59.5965L62.0951 59.4705L62.2218 58.9109L61.9519 58.113L62.1664 57.8589L61.971 56.9108L62.143 56.654L61.9547 56.2656L62.0352 56.1689L61.9625 56.1534L62.0966 56.14L62.0396 56.0922L62.1438 55.9862L61.8515 55.7879L62.0719 55.6491L62.0098 55.4101L62.2238 55.3804L62.0411 55.4287L62.0901 55.4673L61.8777 55.6039L61.947 55.6114L61.8391 55.6106L62.0541 55.497L62.0851 55.6026L61.8066 55.5658L62.0787 55.5578L62.1207 55.5001L62.0046 55.4682L62.1233 55.4912L62.0235 55.5281L62.1277 55.4629L62.0615 55.4394L62.1448 55.4607L61.9976 55.4416L62.1436 55.4695L62.0754 55.5245L62.2459 55.4536" stroke="black" stroke-width="0.665208" stroke-linecap="round" stroke-linejoin="round"/>
<path d="M61.496 60.9867L61.6754 60.9574L61.5451 60.8976L61.6887 60.8758L61.3865 60.6625L61.3838 60.4138L61.159 60.2337L61.2273 60.1432L61.1591 60.0213L60.7842 59.8399L60.3768 59.0776L59.8205 58.3986L59.818 58.278L59.548 58.2491L59.3498 58.0957L59.1406 58.2669L59.3534 58.2846L59.2707 58.3308" stroke="black" stroke-width="0.665208" stroke-linecap="round" stroke-linejoin="round"/>
<path d="M57.6777 60.9063L58.1286 60.6429L58.0903 60.5232L58.6457 59.5746L59.0371 58.6207L59.3235 58.2925L59.2711 58.1834L59.4157 58.0149L59.5305 58.0593L59.4146 57.979" stroke="black" stroke-width="0.665208" stroke-linecap="round" stroke-linejoin="round"/>
<path d="M57.4731 60.9959L57.5466 60.6473L57.5092 59.967L57.3487 59.0397L57.1691 58.7076L57.1885 58.249L56.8494 57.6743L56.7407 57.6251L56.828 57.1891L56.6788 57.1346L56.5622 56.6796L56.5999 56.1115L56.5332 56.0224L56.5752 56.072L56.5691 55.8849L56.6735 55.7749L56.5604 55.7949L56.6087 55.8574L56.6786 55.7767" stroke="black" stroke-width="0.665208" stroke-linecap="round" stroke-linejoin="round"/>
<path d="M69.257 57.1104L67.082 62.3926" stroke="black" stroke-width="0.665208" stroke-linecap="round" stroke-linejoin="round"/>
<path d="M69.3633 55.6016L71.849 61.8159" stroke="black" stroke-width="0.665208" stroke-linecap="round" stroke-linejoin="round"/>
<path d="M69.2578 60.8389H72.0542" stroke="black" stroke-width="0.665208" stroke-linecap="round" stroke-linejoin="round"/>
<path d="M63.7227 54.708V61.5437" stroke="black" stroke-width="0.665208" stroke-linecap="round" stroke-linejoin="round"/>
<path d="M64.0117 58.0522H67.0469" stroke="black" stroke-width="0.55434" stroke-linecap="round" stroke-linejoin="round"/>
<path d="M66.9414 55.0181V61.8537" stroke="black" stroke-width="0.665208" stroke-linecap="round" stroke-linejoin="round"/>
<path d="M77.9023 55.7666V61.5694" stroke="black" stroke-width="0.665208" stroke-linecap="round" stroke-linejoin="round"/>
<path d="M73.373 54.7212L77.723 61.5569" stroke="black" stroke-width="0.665208" stroke-linecap="round" stroke-linejoin="round"/>
<path d="M73.9473 56.166V61.4589" stroke="black" stroke-width="0.665208" stroke-linecap="round" stroke-linejoin="round"/>
<path d="M79.4844 56.0908H85.0771" stroke="black" stroke-width="0.665208" stroke-linecap="round" stroke-linejoin="round"/>
<path d="M82.5879 55.8359V61.429" stroke="black" stroke-width="0.665208" stroke-linecap="round" stroke-linejoin="round"/>
<path d="M99.7971 56.9132L99.332 56.8755L98.8602 57.1651L98.2835 57.7766L98.2386 58.0197L97.9183 58.488L97.7615 59.1847L97.4896 59.5918L97.5005 60.1013L97.3984 60.418L97.5193 60.7914L97.4426 61.0113L97.7539 61.1617L97.8442 61.2841L97.8005 61.4007L97.9963 61.6379L98.565 61.8131L99.256 61.8588L99.6569 61.7745L100.262 61.465L100.322 61.2277L100.671 60.9714L100.938 60.5869L100.894 60.2344L101.114 59.7044L101.169 59.2831L100.82 58.8365L100.798 58.5567L100.424 58.1421L100.175 57.4108L99.6106 57.1567L99.5262 57.1979" stroke="black" stroke-width="0.665208" stroke-linecap="round" stroke-linejoin="round"/>
<path d="M90.4277 56.5322H96.0205" stroke="black" stroke-width="0.665208" stroke-linecap="round" stroke-linejoin="round"/>
<path d="M93.5312 56.2769V61.8695" stroke="black" stroke-width="0.665208" stroke-linecap="round" stroke-linejoin="round"/>
<path d="M110.086 56.1781L110.102 56.0947L109.912 56.2597L109.006 56.2038L108.717 56.3107L108.678 56.4162L107.851 56.4801L107.567 56.6477L107.336 56.9564L107.297 57.3165L106.712 57.8589L106.544 58.1586L106.528 58.6106L106.234 59.5166L106.437 59.7059L106.46 60.3148L106.72 60.7454L106.653 60.7973L106.833 60.8718L106.913 61.1818L107.298 61.3818L107.191 61.4696L107.567 61.6838L107.926 61.6909L109.025 62.0377L109.523 61.9539L109.777 61.7973L110.611 61.7282L110.867 61.5392L110.822 61.6208" stroke="black" stroke-width="0.55434" stroke-linecap="round" stroke-linejoin="round"/>
<path d="M113.669 56.9518L113.211 56.9146L112.747 57.1997L112.179 57.8015L112.135 58.0405L111.82 58.5009L111.666 59.1869L111.398 59.5873L111.409 60.0885L111.309 60.4007L111.427 60.7679L111.352 60.9843L111.658 61.132L111.747 61.2526L111.704 61.3675L111.897 61.6007L112.456 61.7732L113.136 61.818L113.531 61.7351L114.126 61.4309L114.185 61.1972L114.529 60.9448L114.791 60.567L114.748 60.2193L114.965 59.6982L115.019 59.2836L114.675 58.8441L114.654 58.5692L114.286 58.1612L114.041 57.441L113.485 57.1913L113.402 57.2316" stroke="black" stroke-width="0.55434" stroke-linecap="round" stroke-linejoin="round"/>
<path d="M120.227 56.7808V62.4905" stroke="black" stroke-width="0.55434" stroke-linecap="round" stroke-linejoin="round"/>
<path d="M115.768 55.75L120.048 62.4766" stroke="black" stroke-width="0.55434" stroke-linecap="round" stroke-linejoin="round"/>
<path d="M116.334 57.1733V62.3819" stroke="black" stroke-width="0.55434" stroke-linecap="round" stroke-linejoin="round"/>
<path d="M121.127 56.8765H126.63" stroke="black" stroke-width="0.55434" stroke-linecap="round" stroke-linejoin="round"/>
<path d="M124.184 56.625V62.1285" stroke="black" stroke-width="0.55434" stroke-linecap="round" stroke-linejoin="round"/>
<path d="M136.358 56.2099L136.374 56.127L136.184 56.2919L135.278 56.2356L134.989 56.3425L134.949 56.4481L134.123 56.5123L133.839 56.68L133.608 56.9886L133.569 57.3487L132.984 57.8911L132.816 58.1904L132.799 58.6424L132.506 59.5488L132.709 59.7377L132.732 60.3466L132.992 60.7777L132.925 60.8295L133.104 60.9036L133.185 61.2136L133.57 61.4136L133.463 61.5019L133.838 61.716L134.198 61.7231L135.297 62.0695L135.795 61.9857L136.049 61.8296L136.882 61.7604L137.139 61.5715L137.094 61.6531" stroke="black" stroke-width="0.55434" stroke-linecap="round" stroke-linejoin="round"/>
<path d="M137.211 56.9199H142.714" stroke="black" stroke-width="0.55434" stroke-linecap="round" stroke-linejoin="round"/>
<path d="M140.268 56.6689V62.1725" stroke="black" stroke-width="0.55434" stroke-linecap="round" stroke-linejoin="round"/>
<path d="M148.05 53.3774L147.833 52.3294L147.736 52.6824L147.997 52.7193L148.208 52.1427L148.559 52.1308L149.836 51.6514L150.651 51.7516L151.047 51.9427L151.52 52.7769L151.901 52.9082L151.747 53.0505L151.912 53.2031L151.891 53.5982L152.062 53.7162L151.42 54.5193L151.611 54.7322L151.287 55.306L151.068 55.3282L151.183 55.3956L150.943 55.53L151.081 55.5686L150.837 56.028L150.557 56.0143L150.725 56.0058L150.681 56.1074L149.861 56.8879L150.08 57.13L149.849 57.3699L150.09 57.499L149.881 57.8241L149.943 58.1939L150.07 58.0551L149.977 57.9757L149.941 58.0946L150.038 58.5624L149.946 58.6436L150.025 58.5868L149.866 58.4449L150.074 58.5021L149.739 58.8099" stroke="black" stroke-width="0.886944" stroke-linecap="round" stroke-linejoin="round"/>
<path d="M149.369 63.5794L149.274 63.3342L149.229 63.4987L149.398 63.5253L149.075 63.5089L149.573 63.2934L149.802 62.9852L149.539 63.2429L149.761 63.2704L149.514 63.2974L149.169 63.0575L149.084 63.2717L149.475 63.1603L149.506 63.0411L149.322 63.0677L148.746 63.6792L148.971 63.5418L148.916 63.8934L149.135 64.1901L148.996 64.3183L149.167 64.0327L149.051 63.7963L149.747 63.1307L149.806 62.9493L149.68 62.8109L149.79 62.7661L149.468 62.8561L149.524 62.9927L149.063 63.4287" stroke="black" stroke-width="0.886944" stroke-linecap="round" stroke-linejoin="round"/>
<path d="M11.666 53.2131L11.8891 55.5705L12.5499 57.8447L13.6248 59.9547L15.6351 62.385L17.5064 63.8364L19.6164 64.9114L21.8905 65.5722L24.2482 65.7953L26.6058 65.5722L28.8799 64.9114L30.9899 63.8364L32.8611 62.385L34.4272 60.6084L35.9466 57.8447L36.6073 55.5705L36.8301 53.2131L36.6073 50.8556L35.9466 48.5814L34.4272 45.8173L32.8611 44.0412L30.9899 42.5897L28.8799 41.5147L26.6058 40.8539L24.2482 40.6309L21.8905 40.8539L19.6164 41.5147L17.5064 42.5897L15.6351 44.0412L13.6248 46.4714L12.5499 48.5814L11.8891 50.8556L11.666 53.2131Z" stroke="black" stroke-width="1.33042" stroke-linecap="round" stroke-linejoin="round"/>
<path d="M10.4863 10.6533L16.2515 17.3054" stroke="black" stroke-width="0.886944" stroke-linecap="round" stroke-linejoin="round"/>
<path d="M11.373 18.1927L15.3643 11.0972" stroke="black" stroke-width="0.886944" stroke-linecap="round" stroke-linejoin="round"/>
<path d="M28.9453 44.0698L33.6029 49.4438" stroke="black" stroke-width="0.665208" stroke-linecap="round" stroke-linejoin="round"/>
<path d="M29.6621 50.1606L32.8866 44.4282" stroke="black" stroke-width="0.665208" stroke-linecap="round" stroke-linejoin="round"/>
<path d="M127.91 57.5972L125.77 62.7951" stroke="black" stroke-width="0.55434" stroke-linecap="round" stroke-linejoin="round"/>
<path d="M128.012 56.1118L130.458 62.2269" stroke="black" stroke-width="0.55434" stroke-linecap="round" stroke-linejoin="round"/>
<path d="M127.906 61.2656H130.658" stroke="black" stroke-width="0.55434" stroke-linecap="round" stroke-linejoin="round"/>
<path d="M128.48 57.5205L126.34 62.718" stroke="black" stroke-width="0.55434" stroke-linecap="round" stroke-linejoin="round"/>
<path d="M128.582 56.0356L131.028 62.1507" stroke="black" stroke-width="0.55434" stroke-linecap="round" stroke-linejoin="round"/>
<path d="M128.48 61.189H131.232" stroke="black" stroke-width="0.55434" stroke-linecap="round" stroke-linejoin="round"/>
<path d="M17.1748 52.9893L16.4427 53.0678L16.7638 53.2168L16.4682 54.2674L16.4872 55.0102L16.3647 55.1419L16.2322 55.7268L16.5145 56.5614L16.2902 56.8266L16.4945 57.8182L16.3146 58.0861L16.5116 58.4927L16.4273 58.5939L16.5034 58.6098L16.3632 58.624L16.4228 58.6737L16.3138 58.785L16.6195 58.9916L16.389 59.1371L16.4539 59.3868L16.2303 59.4178L16.4212 59.3677L16.3699 59.3269L16.5921 59.1841L16.5196 59.1766L16.6324 59.1775L16.4077 59.2959L16.3752 59.1859L16.6664 59.224L16.3818 59.2329L16.3379 59.2928L16.4594 59.326L16.3352 59.3021L16.4395 59.2635L16.3306 59.3322L16.3999 59.3566L16.3128 59.334L16.4667 59.354L16.3141 59.3251L16.3854 59.2675L16.207 59.3415" stroke="black" stroke-width="0.665208" stroke-linecap="round" stroke-linejoin="round"/>
<path d="M16.9887 53.5562L16.801 53.5872L16.9374 53.6493L16.7871 53.6719L17.1031 53.8954L17.1059 54.1553L17.341 54.3438L17.2696 54.4378L17.3409 54.5655L17.7328 54.7553L18.1588 55.5522L18.7404 56.2618L18.743 56.3882L19.0253 56.4183L19.2326 56.5788L19.4512 56.4002L19.2287 56.3815L19.3152 56.3332" stroke="black" stroke-width="0.665208" stroke-linecap="round" stroke-linejoin="round"/>
<path d="M20.9839 53.6411L20.5125 53.9165L20.5526 54.0416L19.9719 55.0332L19.5626 56.0305L19.2633 56.3738L19.318 56.4873L19.1668 56.6643L19.0469 56.6173L19.168 56.7015" stroke="black" stroke-width="0.665208" stroke-linecap="round" stroke-linejoin="round"/>
<path d="M21.1979 53.5469L21.1211 53.9114L21.1602 54.6227L21.328 55.5922L21.5157 55.9394L21.4955 56.4188L21.85 57.0197L21.9637 57.0712L21.8724 57.527L22.0284 57.5838L22.1503 58.0597L22.1109 58.6535L22.1806 58.747L22.1367 58.6951L22.143 58.8907L22.0339 59.0056L22.1522 58.9847L22.1017 58.9195L22.0286 59.0038" stroke="black" stroke-width="0.665208" stroke-linecap="round" stroke-linejoin="round"/>
<path d="M17.085 52.7891L16.3528 52.8671L16.674 53.0166L16.3783 54.0667L16.3973 54.81L16.2749 54.9417L16.1424 55.5266L16.4246 56.3608L16.2004 56.626L16.4046 57.618L16.2248 57.8859L16.4218 58.2921L16.3375 58.3937L16.4135 58.4096L16.2734 58.4234L16.3329 58.4735L16.224 58.5844L16.5296 58.7914L16.2991 58.9365L16.3641 59.1866L16.1404 59.2176L16.3314 59.1671L16.2801 59.1267L16.5023 58.9839L16.4298 58.9764L16.5426 58.9773L16.3178 59.0957L16.2854 58.9857L16.5766 59.0238L16.292 59.0323L16.2481 59.0921L16.3695 59.1258L16.2454 59.1019L16.3497 59.0633L16.2408 59.1316L16.3101 59.156L16.223 59.1338L16.3769 59.1538L16.2242 59.1249L16.2956 59.0673L16.1172 59.1413" stroke="black" stroke-width="0.665208" stroke-linecap="round" stroke-linejoin="round"/>
<path d="M16.8988 53.356L16.7112 53.3865L16.8475 53.4491L16.6973 53.4717L17.0133 53.6952L17.0161 53.9546L17.2511 54.1431L17.1798 54.2376L17.251 54.3648L17.643 54.5551L18.0689 55.352L18.6506 56.0616L18.6532 56.188L18.9354 56.2181L19.1427 56.3787L19.3613 56.1995L19.1389 56.1809L19.2254 56.133" stroke="black" stroke-width="0.665208" stroke-linecap="round" stroke-linejoin="round"/>
<path d="M20.896 53.4414L20.4247 53.7164L20.4647 53.8418L19.8841 54.8335L19.4748 55.8308L19.1754 56.1741L19.2302 56.2876L19.0789 56.4641L18.959 56.4175L19.0801 56.5018" stroke="black" stroke-width="0.665208" stroke-linecap="round" stroke-linejoin="round"/>
<path d="M21.1062 53.3467L21.0293 53.7117L21.0684 54.423L21.2362 55.3924L21.4239 55.7397L21.4037 56.2191L21.7582 56.8195L21.8719 56.871L21.7806 57.3273L21.9366 57.3841L22.0586 57.8599L22.0191 58.4537L22.0888 58.5468L22.0449 58.495L22.0512 58.6905L21.9421 58.8058L22.0604 58.785L22.0099 58.7198L21.9368 58.8036" stroke="black" stroke-width="0.665208" stroke-linecap="round" stroke-linejoin="round"/>
<path d="M24.7203 54.166L22.5801 59.3635" stroke="black" stroke-width="0.55434" stroke-linecap="round" stroke-linejoin="round"/>
<path d="M24.8262 52.6807L27.2721 58.7957" stroke="black" stroke-width="0.55434" stroke-linecap="round" stroke-linejoin="round"/>
<path d="M24.7207 57.8345H27.4724" stroke="black" stroke-width="0.55434" stroke-linecap="round" stroke-linejoin="round"/>
<path d="M25.2926 54.0889L23.1523 59.2868" stroke="black" stroke-width="0.55434" stroke-linecap="round" stroke-linejoin="round"/>
<path d="M25.3965 52.6045L27.8425 58.7195" stroke="black" stroke-width="0.55434" stroke-linecap="round" stroke-linejoin="round"/>
<path d="M25.293 57.7583H28.0447" stroke="black" stroke-width="0.55434" stroke-linecap="round" stroke-linejoin="round"/>
<path d="M30.334 52.6203L30.4522 52.7702L31.001 52.7396L31.4013 52.4292L32.0087 52.58L32.7049 52.5223L32.7893 52.6766L33.2021 52.7463L33.2738 52.9135L33.4569 52.9773L33.4187 53.1024L34.0214 53.3112L34.1121 53.5419L34.2442 53.5884L34.1535 53.6709L34.444 53.8128L34.3624 53.9627L34.5008 53.98L34.505 54.129L34.3868 54.2004L34.4294 54.5676L34.2951 54.8288L34.0278 55.0102L34.1422 55.149L33.8495 55.2466L33.8819 55.3091L33.2233 55.5747L32.7428 55.6031L32.5107 55.7091L32.5958 55.7388L31.8318 55.9801L31.7487 55.9158L31.8202 55.8989L31.2251 55.9605L31.2606 56.0209L30.9502 56.0337L31.0077 56.1184L30.7665 56.0652L30.9403 55.9991L31.0543 56.0803" stroke="black" stroke-width="0.665208" stroke-linecap="round" stroke-linejoin="round"/>
<path d="M29.9121 52.2671V59.6198" stroke="black" stroke-width="0.665208" stroke-linecap="round" stroke-linejoin="round"/>
<path d="M31.0547 52.7971L31.1728 52.9475L31.7217 52.9169L32.1219 52.6064L32.7293 52.7568L33.4256 52.6991L33.5099 52.8539L33.9228 52.9235L33.9946 53.0903L34.1776 53.1541L34.1394 53.2792L34.7421 53.4881L34.8328 53.7187L34.9649 53.7652L34.8741 53.8482L35.1647 53.9896L35.0831 54.14L35.2214 54.1573L35.2256 54.3063L35.1074 54.3772L35.15 54.7449L35.0157 55.0056L34.7485 55.187L34.8628 55.3263L34.5702 55.4238L34.6025 55.4864L33.944 55.752L33.4635 55.7799L33.2314 55.8864L33.3165 55.9156L32.5525 56.1569L32.4694 56.093L32.5409 56.0757L31.9458 56.1374L31.9813 56.1977L31.6708 56.211L31.7284 56.2952L31.4872 56.242L31.661 56.176L31.775 56.2571" stroke="black" stroke-width="0.665208" stroke-linecap="round" stroke-linejoin="round"/>
<path d="M30.6309 52.4438V59.7966" stroke="black" stroke-width="0.665208" stroke-linecap="round" stroke-linejoin="round"/>
<path d="M17.8965 60.1655L22.5541 65.5395" stroke="black" stroke-width="0.665208" stroke-linecap="round" stroke-linejoin="round"/>
<path d="M18.6113 66.2558L21.8358 60.5234" stroke="black" stroke-width="0.665208" stroke-linecap="round" stroke-linejoin="round"/>
</svg>
