<svg width="343" height="187" viewBox="0 0 343 187" fill="none" xmlns="http://www.w3.org/2000/svg">
<path d="M101.268 6.90625V185.904" stroke="black" stroke-width="2" stroke-linecap="round" stroke-linejoin="round"/>
<path d="M8.35742 179.694H99.3578" stroke="black" stroke-width="2" stroke-linecap="round" stroke-linejoin="round"/>
<path d="M1 2V181" stroke="black" stroke-width="2" stroke-linecap="round" stroke-linejoin="round"/>
<path d="M11.75 11.2393V165.239" stroke="black" stroke-width="2" stroke-linecap="round" stroke-linejoin="round"/>
<path d="M91.4473 14.415V168.415" stroke="black" stroke-width="2" stroke-linecap="round" stroke-linejoin="round"/>
<path d="M6 1H97.0004" stroke="black" stroke-width="2" stroke-linecap="round" stroke-linejoin="round"/>
<path d="M18.623 12.5581H85.4179" stroke="black" stroke-width="2" stroke-linecap="round" stroke-linejoin="round"/>
<path d="M20.4609 154.97H87.2555" stroke="black" stroke-width="2" stroke-linecap="round" stroke-linejoin="round"/>
<path d="M56.8423 174.831L59.0661 173.185L60.5277 170.836L61.0034 167.651L60.2916 164.977L58.6456 162.753L55.8589 161.138L53.1111 160.816L50.4375 161.528L48.2138 163.174L46.7521 165.523L46.2578 168.245L46.9882 171.382L48.6342 173.606L50.9832 175.067L54.1687 175.543L56.8423 174.831Z" stroke="black" stroke-width="2" stroke-linecap="round" stroke-linejoin="round"/>
<path d="M58.7637 30.5164L57.9907 29.2884L57.5664 27.7544L58.2419 27.8694L58.0874 28.8584L58.4201 28.7164L58.4592 28.9944L59.9623 30.1724L60.4627 31.1694L62.0131 33.2014L63.5466 34.7554L63.6394 35.2304L64.9397 37.2024L66.5344 38.7674L67.4254 39.2434L67.2601 39.3164L67.5892 39.2284L67.3432 39.0784L67.7118 39.1984L67.2334 39.1944L67.8649 39.0294L67.1412 39.0894L67.685 39.0634L67.2349 39.0084L67.4269 38.9154L67.4512 39.1094L67.8311 39.0414L67.2944 39.0654L67.5512 39.0134L67.3977 38.8674L67.5083 39.0064L67.331 39.0234L67.5776 39.0744L67.3116 39.0624L67.5275 38.9774L67.4428 39.1354L67.6249 39.1474L67.2992 39.1264L67.9475 39.5354L68.0952 39.7194L67.927 39.7994L68.1854 39.8014L67.908 39.8044L68.2068 39.8054L67.8385 39.8684L68.3323 39.9333L67.9089 40.0234L68.15 40.0274L68.3464 40.8174L68.6869 40.6864L68.1604 40.7264L68.6325 40.5064L68.3818 40.0404L67.5265 39.4564L67.4111 39.0374L67.7734 38.6144L67.4296 39.1534" stroke="black" stroke-width="1.25" stroke-linecap="round" stroke-linejoin="round"/>
<path d="M58.8652 42.5173L67.131 28.7402" stroke="black" stroke-width="1.25" stroke-linecap="round" stroke-linejoin="round"/>
<path d="M112.119 26.9233H124.518" stroke="black" stroke-width="1.25" stroke-linecap="round" stroke-linejoin="round"/>
<path d="M119.008 26.3574V38.7565" stroke="black" stroke-width="1.25" stroke-linecap="round" stroke-linejoin="round"/>
<path d="M94.1895 27.2393V42.3932" stroke="black" stroke-width="1.25" stroke-linecap="round" stroke-linejoin="round"/>
<path d="M94.9965 26.7031L94.0554 27.3452L94.73 27.1132L95.3362 27.3422L96.1047 26.9581L96.5983 27.1151L97.6593 27.0092L99.4104 27.8951L100.102 27.8021L100.555 28.2401L101.321 28.4802L101.023 28.6561L101.474 28.8541L101.735 29.6082L101.372 29.7161L101.503 29.9461L101.268 31.2692L100.945 31.6971L101.085 31.9591L98.4618 32.8201L96.5875 32.9901L96.5441 33.1221L96.8025 33.0761L96.45 33.1691L96.8403 33.0251L96.5153 33.0421L96.7843 33.0911L96.4087 33.2592L96.5729 33.3351L96.3612 33.5051L96.5421 33.5042L96.2955 33.4492L96.6989 33.3972L96.1842 33.3571L96.2927 33.4511L95.9581 33.6241L98.2817 33.7871L98.4964 33.9971L99.5688 34.0941L100.143 34.8871L100.886 35.2191L101.206 35.9031L101.56 36.0952L101.398 36.2221L101.628 36.4681L101.43 36.7501L101.616 36.9401L101.764 38.2631L101.559 38.3062L101.781 38.3032L101.668 38.6411L101.834 38.9351L101.645 39.0901L102.006 39.2811L101.598 39.3481L101.55 40.0681L101.053 40.7271L99.2185 40.8502L99.0614 41.1082L98.0184 41.3792L96.6205 41.5721L94.6673 41.4781L94.168 41.2881L94.4643 41.2781L94.101 41.3671L94.1972 41.1841L93.9041 41.1552L94.0504 40.9232L93.8184 40.9321" stroke="black" stroke-width="1.25" stroke-linecap="round" stroke-linejoin="round"/>
<path d="M139.138 29.3652L138.107 29.2812L137.061 29.9233L135.782 31.2792L135.683 31.8173L134.973 32.8553L134.625 34.4003L134.022 35.3033L134.047 36.4323L133.82 37.1343L134.088 37.9623L133.918 38.4503L134.608 38.7833L134.809 39.0543L134.712 39.3123L135.146 39.8392L136.406 40.2272L137.938 40.3282L138.827 40.1423L140.168 39.4553L140.302 38.9293L141.076 38.3613L141.667 37.5093L141.569 36.7272L142.057 35.5533L142.179 34.6183L141.406 33.6282L141.358 33.0082L140.529 32.0892L139.976 30.4673L138.724 29.9042L138.537 29.9952" stroke="black" stroke-width="1.25" stroke-linecap="round" stroke-linejoin="round"/>
<path d="M48.5276 28.9673L47.4567 29.1802L47.4228 29.0182L47.8431 29.0292L47.5398 29.1143L47.4446 29.4633L47.2784 29.2513L47.6734 29.2842L47.3755 29.0483L47 29.3143L47.3697 29.3773L47.1518 29.7682L47.323 31.8123L47.1621 34.0703L47.5255 35.6223L47.2483 37.1512L47.4085 37.9283L47.2013 38.2842L47.2896 40.7183L47.8103 40.9432L47.5113 41.3152L47.8569 41.5782L47.4404 41.6332L47.7263 41.7623L47.5609 41.7842L47.6861 41.5212L47.3905 41.3752L47.5158 41.1403L47.3201 41.2943L47.7313 41.3052L47.3179 41.2643L47.6114 41.3693L47.3995 41.3492L47.5835 41.4722L47.2448 41.5833L47.5173 41.6432L47.318 41.7142L47.7635 41.6122L47.4215 41.6982L47.6273 41.6343L47.5675 41.4973L47.5122 41.6913L47.3685 41.6353L47.7561 41.6332L47.3449 41.6343L47.7002 41.5242L47.454 41.5233L47.725 41.4733L47.5767 41.1923L47.5206 41.5193L47.2644 41.3392" stroke="black" stroke-width="1.25" stroke-linecap="round" stroke-linejoin="round"/>
<path d="M47.5098 29.3564H55.0183" stroke="black" stroke-width="1.25" stroke-linecap="round" stroke-linejoin="round"/>
<path d="M48.3477 40.9883H55.8563" stroke="black" stroke-width="1.25" stroke-linecap="round" stroke-linejoin="round"/>
<path d="M47.9004 34.5742H52.5403" stroke="black" stroke-width="1.25" stroke-linecap="round" stroke-linejoin="round"/>
<path d="M108.408 29.1211V44.2751" stroke="black" stroke-width="1.25" stroke-linecap="round" stroke-linejoin="round"/>
<path d="M127.697 29.8564V41.5914" stroke="black" stroke-width="1.25" stroke-linecap="round" stroke-linejoin="round"/>
<path d="M154.953 27.9082V40.7722" stroke="black" stroke-width="1.25" stroke-linecap="round" stroke-linejoin="round"/>
<path d="M144.91 25.5894L154.554 40.7434" stroke="black" stroke-width="1.25" stroke-linecap="round" stroke-linejoin="round"/>
<path d="M146.184 28.7944V40.5284" stroke="black" stroke-width="1.25" stroke-linecap="round" stroke-linejoin="round"/>
<path d="M72.8008 26.1392V41.2932" stroke="black" stroke-width="1.25" stroke-linecap="round" stroke-linejoin="round"/>
<path d="M73.4453 33.5562H80.1741" stroke="black" stroke-width="1.25" stroke-linecap="round" stroke-linejoin="round"/>
<path d="M79.9336 26.8281V41.9821" stroke="black" stroke-width="1.25" stroke-linecap="round" stroke-linejoin="round"/>
<path d="M87.5957 27.6211V42.7751" stroke="black" stroke-width="1.25" stroke-linecap="round" stroke-linejoin="round"/>
<path d="M58.4317 31.8235L57.6586 30.5955L57.2344 29.0615L57.9098 29.1765L57.7553 30.1655L58.088 30.0225L58.1272 30.3015L59.6302 31.4785L60.1307 32.4765L61.681 34.5085L63.2145 36.0625L63.3074 36.5375L64.6077 38.5095L66.2023 40.0745L67.0933 40.5505L66.9281 40.6235L67.2571 40.5355L67.0112 40.3855L67.3797 40.5055L66.9014 40.5015L67.5328 40.3365L66.8092 40.3965L67.353 40.3705L66.9028 40.3155L67.0948 40.2225L67.1191 40.4165L67.499 40.3485L66.9623 40.3715L67.2191 40.3205L67.0656 40.1745L67.1762 40.3135L66.9989 40.3305L67.2456 40.3815L66.9795 40.3685L67.1955 40.2835L67.1107 40.4425L67.2928 40.4535L66.9672 40.4325L67.6155 40.8415L67.7631 41.0265L67.595 41.1065L67.8534 41.1085L67.576 41.1115L67.8748 41.1125L67.5065 41.1755L68.0002 41.2405L67.5769 41.3305L67.8179 41.3335L68.0144 42.1245L68.3548 41.9935L67.8283 42.0325L68.3005 41.8135L68.0497 41.3475L67.1945 40.7635L67.0791 40.3445L67.4414 39.9215L67.0976 40.4605" stroke="black" stroke-width="1.25" stroke-linecap="round" stroke-linejoin="round"/>
<path d="M58.5312 43.8244L66.7971 30.0474" stroke="black" stroke-width="1.25" stroke-linecap="round" stroke-linejoin="round"/>
<path d="M111.787 28.2295H124.186" stroke="black" stroke-width="1.25" stroke-linecap="round" stroke-linejoin="round"/>
<path d="M118.676 27.6641V40.0621" stroke="black" stroke-width="1.25" stroke-linecap="round" stroke-linejoin="round"/>
<path d="M93.8574 28.5464V43.7004" stroke="black" stroke-width="1.25" stroke-linecap="round" stroke-linejoin="round"/>
<path d="M94.6644 28.0103L93.7233 28.6523L94.3978 28.4203L95.004 28.6492L95.7725 28.2653L96.2662 28.4222L97.3272 28.3163L99.0782 29.2023L99.7703 29.1093L100.223 29.5472L100.989 29.7863L100.691 29.9633L101.142 30.1603L101.403 30.9153L101.04 31.0233L101.171 31.2532L100.936 32.5762L100.613 33.0032L100.753 33.2662L98.1296 34.1273L96.2554 34.2972L96.212 34.4293L96.4703 34.3832L96.1179 34.4753L96.5082 34.3323L96.1831 34.3492L96.4522 34.3983L96.0766 34.5663L96.2407 34.6412L96.0291 34.8123L96.2099 34.8113L95.9633 34.7563L96.3667 34.7043L95.8521 34.6642L95.9606 34.7582L95.626 34.9313L97.9495 35.0942L98.1642 35.3043L99.2366 35.4012L99.8104 36.1943L100.554 36.5262L100.874 37.2092L101.228 37.4023L101.066 37.5292L101.296 37.7753L101.098 38.0563L101.284 38.2473L101.432 39.5703L101.227 39.6133L101.449 39.6102L101.336 39.9482L101.502 40.2422L101.313 40.3973L101.674 40.5883L101.266 40.6553L101.218 41.3752L100.721 42.0342L98.8863 42.1573L98.7292 42.4153L97.6862 42.6852L96.2883 42.8793L94.3351 42.7842L93.8359 42.5942L94.1322 42.5853L93.7688 42.6743L93.865 42.4913L93.572 42.4623L93.7183 42.2303L93.4863 42.2393" stroke="black" stroke-width="1.25" stroke-linecap="round" stroke-linejoin="round"/>
<path d="M138.806 30.6714L137.775 30.5874L136.729 31.2304L135.45 32.5854L135.351 33.1244L134.641 34.1624L134.293 35.7074L133.69 36.6104L133.715 37.7394L133.488 38.4414L133.756 39.2694L133.586 39.7574L134.276 40.0894L134.477 40.3614L134.38 40.6194L134.814 41.1454L136.074 41.5334L137.606 41.6354L138.495 41.4484L139.836 40.7624L139.97 40.2364L140.744 39.6684L141.335 38.8164L141.237 38.0334L141.725 36.8594L141.847 35.9254L141.074 34.9354L141.026 34.3154L140.197 33.3964L139.644 31.7744L138.392 31.2114L138.205 31.3024" stroke="black" stroke-width="1.25" stroke-linecap="round" stroke-linejoin="round"/>
<path d="M48.1935 30.2744L47.1227 30.4874L47.0888 30.3254L47.509 30.3364L47.2058 30.4214L47.1105 30.7704L46.9444 30.5574L47.3393 30.5914L47.0414 30.3555L46.666 30.6215L47.0356 30.6834L46.8178 31.0754L46.989 33.1194L46.8281 35.3774L47.1914 36.9294L46.9143 38.4584L47.0745 39.2354L46.8673 39.5905L46.9556 42.0255L47.4763 42.2504L47.1772 42.6224L47.5228 42.8854L47.1063 42.9404L47.3922 43.0695L47.2269 43.0914L47.352 42.8284L47.0564 42.6824L47.1818 42.4474L46.986 42.6014L47.3973 42.6124L46.9838 42.5704L47.2773 42.6754L47.0654 42.6564L47.2494 42.7794L46.9107 42.8904L47.1833 42.9495L46.9839 43.0204L47.4295 42.9194L47.0874 43.0054L47.2932 42.9415L47.2334 42.8044L47.1782 42.9984L47.0345 42.9415L47.4221 42.9404L47.0108 42.9415L47.3662 42.8314L47.1199 42.8304L47.391 42.7794L47.2426 42.4995L47.1866 42.8264L46.9303 42.6464" stroke="black" stroke-width="1.25" stroke-linecap="round" stroke-linejoin="round"/>
<path d="M47.1758 30.6621H54.6844" stroke="black" stroke-width="1.25" stroke-linecap="round" stroke-linejoin="round"/>
<path d="M48.0137 42.2954H55.5222" stroke="black" stroke-width="1.25" stroke-linecap="round" stroke-linejoin="round"/>
<path d="M47.5664 35.8813H52.2062" stroke="black" stroke-width="1.25" stroke-linecap="round" stroke-linejoin="round"/>
<path d="M108.076 30.4282V45.5822" stroke="black" stroke-width="1.25" stroke-linecap="round" stroke-linejoin="round"/>
<path d="M127.365 31.1631V42.8981" stroke="black" stroke-width="1.25" stroke-linecap="round" stroke-linejoin="round"/>
<path d="M154.619 29.2153V42.0793" stroke="black" stroke-width="1.25" stroke-linecap="round" stroke-linejoin="round"/>
<path d="M144.576 26.8965L154.22 42.0505" stroke="black" stroke-width="1.25" stroke-linecap="round" stroke-linejoin="round"/>
<path d="M145.85 30.1001V41.8351" stroke="black" stroke-width="1.25" stroke-linecap="round" stroke-linejoin="round"/>
<path d="M72.4668 27.4463V42.6003" stroke="black" stroke-width="1.25" stroke-linecap="round" stroke-linejoin="round"/>
<path d="M73.1113 34.8633H79.8401" stroke="black" stroke-width="1.25" stroke-linecap="round" stroke-linejoin="round"/>
<path d="M79.6016 28.1343V43.2883" stroke="black" stroke-width="1.25" stroke-linecap="round" stroke-linejoin="round"/>
<path d="M87.2637 28.9282V44.0812" stroke="black" stroke-width="1.25" stroke-linecap="round" stroke-linejoin="round"/>
<path d="M21.123 85.3403H38.2334" stroke="black" stroke-width="0.75" stroke-linecap="round" stroke-linejoin="round"/>
<path d="M21.9785 83.201L30.1065 72.0791" stroke="black" stroke-width="0.75" stroke-linecap="round" stroke-linejoin="round"/>
<path d="M30.9629 72.0791L39.091 84.0561" stroke="black" stroke-width="0.75" stroke-linecap="round" stroke-linejoin="round"/>
<path d="M21.4863 84.6382H38.5975" stroke="black" stroke-width="0.75" stroke-linecap="round" stroke-linejoin="round"/>
<path d="M22.3418 82.4995L30.4698 71.3774" stroke="black" stroke-width="0.75" stroke-linecap="round" stroke-linejoin="round"/>
<path d="M31.3242 71.3774L39.4521 83.3555" stroke="black" stroke-width="0.75" stroke-linecap="round" stroke-linejoin="round"/>
<path d="M22.3789 85.1514H39.4898" stroke="black" stroke-width="0.75" stroke-linecap="round" stroke-linejoin="round"/>
<path d="M23.2344 83.0121L31.3614 71.8901" stroke="black" stroke-width="0.75" stroke-linecap="round" stroke-linejoin="round"/>
<path d="M32.2188 71.8901L40.3462 83.8682" stroke="black" stroke-width="0.75" stroke-linecap="round" stroke-linejoin="round"/>
<path d="M22.7422 84.4502H39.8529" stroke="black" stroke-width="0.75" stroke-linecap="round" stroke-linejoin="round"/>
<path d="M23.5977 82.3115L31.7257 71.1895" stroke="black" stroke-width="0.75" stroke-linecap="round" stroke-linejoin="round"/>
<path d="M32.5801 71.1895L40.7075 83.1674" stroke="black" stroke-width="0.75" stroke-linecap="round" stroke-linejoin="round"/>
<path d="M55.9027 73.4601L55.9221 72.9932L55.3066 72.5161L55.9561 73.0311L55.683 73.1511L55.8692 73.3331L55.809 73.7571L56.3722 74.1071L56.9102 75.1351L57.6393 77.3452L57.5223 77.7191L58.492 78.8741L58.5419 79.0631L58.3233 79.1091L58.8677 79.3281L58.6876 79.4711L59.2434 80.5641L59.7032 80.8951L59.4916 81.0012L59.9429 81.0311L59.3581 81.0151L59.7938 81.0211L59.3927 81.0251L59.6974 81.0461L59.2778 81.6191L59.7704 81.6791L59.3901 81.6331L59.435 82.0612" stroke="black" stroke-width="1.25" stroke-linecap="round" stroke-linejoin="round"/>
<path d="M58.6799 86.0003L57.5227 86.0013L57.6568 86.3813L57.0822 87.1513L56.7832 87.1693L57.1162 86.9343L56.9241 86.7783L57.32 86.6773L58.2445 84.5713L60.3723 81.6673L60.6046 80.7363L61.5651 79.8203L62.6608 77.6643L63.4519 76.9513L63.5593 76.5573L64.8625 75.6813L64.5988 75.6133L64.6394 75.2553L65.1247 75.2093L64.8709 75.0833L65.4025 74.9053L64.8897 74.8103L65.6989 74.3483L65.5468 74.2783L65.4907 74.6143L65.3416 74.4703L65.7055 74.6183L65.4064 74.6593L65.4207 74.5033L65.6151 74.6193L65.1616 74.7933L65.7336 74.7043L65.366 74.6603L65.6783 74.7653L65.6283 74.6053L65.3157 74.8023L65.4679 74.7333L65.3414 74.9343L65.5553 74.8633L65.4277 74.7783L65.3732 74.9623L65.5308 74.9543L65.3536 74.7513L65.5033 74.6693L65.6728 74.7603L65.3044 74.8133L65.5036 74.9543L65.2741 74.8793L65.5093 74.9483L65.2878 74.9313L65.5926 75.3943L65.3675 75.3023L65.5707 75.2873L65.2927 75.3743L65.5691 75.5033L65.321 75.4833L65.702 75.3353L65.4084 75.3043L65.637 75.2533L65.2676 74.9113L65.5926 74.9683L65.1996 74.9423L65.6108 74.7823L65.2364 74.5143L65.4747 74.3083L65.221 74.5863L65.4654 74.5533L65.3148 74.5053L65.5104 74.3553L65.0112 74.4663L65.4303 74.5043L65.2531 74.5063L65.3395 74.9903L65.1024 75.3443" stroke="black" stroke-width="1.25" stroke-linecap="round" stroke-linejoin="round"/>
<path d="M55.5708 74.7662L55.5901 74.3002L54.9746 73.8232L55.6241 74.3383L55.351 74.4573L55.5372 74.6393L55.4771 75.0643L56.0402 75.4142L56.5782 76.4423L57.3074 78.6523L57.1903 79.0262L58.16 80.1813L58.21 80.3702L57.9913 80.4163L58.5358 80.6343L58.3556 80.7783L58.9115 81.8713L59.3712 82.2023L59.1596 82.3082L59.6109 82.3383L59.0262 82.3212L59.4618 82.3282L59.0607 82.3323L59.3655 82.3533L58.9458 82.9263L59.4385 82.9852L59.0581 82.9402L59.103 83.3672" stroke="black" stroke-width="1.25" stroke-linecap="round" stroke-linejoin="round"/>
<path d="M58.3479 87.3074L57.1907 87.3084L57.3248 87.6884L56.7502 88.4584L56.4512 88.4764L56.7842 88.2415L56.5921 88.0854L56.988 87.9844L57.9125 85.8784L60.0404 82.9744L60.2726 82.0435L61.2332 81.1274L62.3288 78.9714L63.1199 78.2584L63.2274 77.8644L64.5305 76.9885L64.2668 76.9205L64.3075 76.5624L64.7928 76.5164L64.5389 76.3904L65.0705 76.2125L64.5577 76.1165L65.367 75.6555L65.2148 75.5854L65.1587 75.9214L65.0096 75.7764L65.3735 75.9254L65.0745 75.9664L65.0887 75.8104L65.2831 75.9265L64.8296 76.1005L65.4016 76.0114L65.034 75.9675L65.3464 76.0714L65.2963 75.9114L64.9837 76.1094L65.136 76.0405L65.0094 76.2415L65.2234 76.1705L65.0958 76.0854L65.0412 76.2695L65.1989 76.2614L65.0216 76.0574L65.1714 75.9755L65.3409 76.0665L64.9724 76.1204L65.1717 76.2614L64.9422 76.1865L65.1773 76.2554L64.9558 76.2385L65.2607 76.7014L65.0356 76.6094L65.2387 76.5944L64.9608 76.6815L65.2371 76.8104L64.989 76.7905L65.3701 76.6414L65.0765 76.6115L65.305 76.5604L64.9356 76.2184L65.2606 76.2755L64.8676 76.2495L65.2788 76.0894L64.9044 75.8214L65.1428 75.6144L64.889 75.8934L65.1334 75.8604L64.9828 75.8124L65.1784 75.6624L64.6793 75.7725L65.0984 75.8115L64.9212 75.8134L65.0075 76.2964L64.7705 76.6514" stroke="black" stroke-width="1.25" stroke-linecap="round" stroke-linejoin="round"/>
<path d="M74.7813 74.9702L74.5671 75.0682L73.6249 74.3302L73.0759 74.4442L70.707 76.1962L70.2353 77.1522L69.7335 77.3762L68.5821 78.8152L68.7505 79.8942L68.4258 81.0202L68.8821 82.2012L68.7756 82.9142L68.9513 83.3862L70.3608 85.4082L71.4111 86.2312L71.8242 86.4312L72.8487 86.1022L75.2381 83.8732L76.6533 79.2052L76.4007 76.9352L75.8633 76.0462L75.1427 75.5882L74.3245 74.4192L72.0454 73.5742L70.1779 74.1472L69.5433 74.9072L69.2809 75.9372L68.4806 77.4112" stroke="black" stroke-width="1.25" stroke-linecap="round" stroke-linejoin="round"/>
<path d="M74.4473 76.2773L74.2331 76.3753L73.2908 75.6373L72.7418 75.7513L70.3729 77.5033L69.9012 78.4593L69.3995 78.6833L68.2481 80.1223L68.4165 81.2013L68.0918 82.3273L68.5481 83.5083L68.4415 84.2213L68.6172 84.6933L70.0267 86.7153L71.077 87.5373L71.4902 87.7383L72.5147 87.4093L74.9041 85.1803L76.3193 80.5123L76.0666 78.2423L75.5293 77.3533L74.8086 76.8953L73.9905 75.7253L71.7114 74.8813L69.8438 75.4533L69.2093 76.2133L68.9468 77.2433L68.1465 78.7183" stroke="black" stroke-width="1.25" stroke-linecap="round" stroke-linejoin="round"/>
<path d="M89.8672 73.0103V87.0753" stroke="black" stroke-width="1.5" stroke-linecap="round" stroke-linejoin="round"/>
<path d="M80.8164 72.7002V85.5312" stroke="black" stroke-width="1.5" stroke-linecap="round" stroke-linejoin="round"/>
<path d="M83.0898 84.6304H88.3618" stroke="black" stroke-width="1.5" stroke-linecap="round" stroke-linejoin="round"/>
<path d="M91.3574 74.5122V88.5772" stroke="black" stroke-width="1.5" stroke-linecap="round" stroke-linejoin="round"/>
<path d="M82.3047 74.2021V87.0331" stroke="black" stroke-width="1.5" stroke-linecap="round" stroke-linejoin="round"/>
<path d="M84.5781 86.1323H89.8501" stroke="black" stroke-width="1.5" stroke-linecap="round" stroke-linejoin="round"/>
<path d="M127.893 72.8643L127.933 72.6553L127.456 73.0703L125.175 72.9293L124.449 73.1982L124.35 73.4633L122.271 73.6252L121.556 74.0463L120.976 74.8232L120.878 75.7283L119.406 77.0933L118.984 77.8463L118.941 78.9833L118.203 81.2632L118.712 81.7393L118.772 83.2712L119.427 84.3542L119.258 84.4852L119.708 84.6722L119.911 85.4523L120.879 85.9543L120.611 86.1763L121.555 86.7153L122.46 86.7333L125.224 87.6053L126.477 87.3943L127.116 87.0002L129.212 86.8262L129.858 86.3513L129.744 86.5563" stroke="black" stroke-width="1.5" stroke-linecap="round" stroke-linejoin="round"/>
<path d="M171.936 72.8555L170.74 73.0925L170.703 72.9124L171.172 72.9244L170.833 73.0184L170.727 73.4084L170.541 73.1714L170.982 73.2094L170.65 72.9454L170.23 73.2424L170.643 73.3124L170.4 73.7495L170.591 76.0314L170.412 78.5524L170.817 80.2855L170.508 81.9935L170.687 82.8604L170.455 83.2584L170.554 85.9764L171.135 86.2274L170.801 86.6434L171.187 86.9365L170.722 86.9974L171.041 87.1425L170.857 87.1664L170.997 86.8724L170.666 86.7104L170.806 86.4474L170.588 86.6194L171.047 86.6315L170.585 86.5854L170.913 86.7025L170.676 86.6815L170.882 86.8184L170.504 86.9424L170.808 87.0084L170.586 87.0884L171.083 86.9744L170.701 87.0704L170.931 86.9995L170.864 86.8455L170.802 87.0624L170.642 86.9995L171.075 86.9974L170.616 86.9995L171.012 86.8765L170.737 86.8754L171.04 86.8184L170.874 86.5054L170.812 86.8704L170.526 86.6694" stroke="black" stroke-width="1.25" stroke-linecap="round" stroke-linejoin="round"/>
<path d="M170.801 73.2881H179.185" stroke="black" stroke-width="1.25" stroke-linecap="round" stroke-linejoin="round"/>
<path d="M171.736 86.2773H180.12" stroke="black" stroke-width="1.25" stroke-linecap="round" stroke-linejoin="round"/>
<path d="M171.236 79.1152H176.417" stroke="black" stroke-width="1.25" stroke-linecap="round" stroke-linejoin="round"/>
<path d="M159.113 74.167V87.27" stroke="black" stroke-width="1.5" stroke-linecap="round" stroke-linejoin="round"/>
<path d="M161.434 86.3501H166.818" stroke="black" stroke-width="1.5" stroke-linecap="round" stroke-linejoin="round"/>
<path d="M147.195 74.1694V87.2725" stroke="black" stroke-width="1.5" stroke-linecap="round" stroke-linejoin="round"/>
<path d="M149.518 86.3521H154.902" stroke="black" stroke-width="1.5" stroke-linecap="round" stroke-linejoin="round"/>
<path d="M187.158 75.6382L181.773 88.7132" stroke="black" stroke-width="1.5" stroke-linecap="round" stroke-linejoin="round"/>
<path d="M187.42 71.9023L193.573 87.2853" stroke="black" stroke-width="1.5" stroke-linecap="round" stroke-linejoin="round"/>
<path d="M187.158 84.8682H194.081" stroke="black" stroke-width="1.5" stroke-linecap="round" stroke-linejoin="round"/>
<path d="M214.08 86.7573H219.464" stroke="black" stroke-width="1.5" stroke-linecap="round" stroke-linejoin="round"/>
<path d="M221.072 73.5161V87.8812" stroke="black" stroke-width="1.5" stroke-linecap="round" stroke-linejoin="round"/>
<path d="M205.349 72.0074L205.388 71.7974L204.911 72.2134L202.63 72.0714L201.905 72.3404L201.805 72.6064L199.726 72.7674L199.011 73.1894L198.431 73.9654L198.333 74.8714L196.862 76.2354L196.439 76.9894L196.397 78.1264L195.658 80.4064L196.167 80.8814L196.227 82.4134L196.882 83.4974L196.713 83.6284L197.163 83.8144L197.367 84.5944L198.335 85.0974L198.066 85.3194L199.01 85.8574L199.915 85.8754L202.679 86.7474L203.932 86.5364L204.571 86.1434L206.667 85.9694L207.313 85.4944L207.199 85.6994" stroke="black" stroke-width="1.5" stroke-linecap="round" stroke-linejoin="round"/>
<path d="M200.623 80.7412H207.545" stroke="black" stroke-width="1.5" stroke-linecap="round" stroke-linejoin="round"/>
<path d="M207.545 82.2803V94.5862" stroke="black" stroke-width="1.5" stroke-linecap="round" stroke-linejoin="round"/>
<path d="M212.309 74.2314V87.3344" stroke="black" stroke-width="1.5" stroke-linecap="round" stroke-linejoin="round"/>
<path d="M244.9 73.3031L244.221 73.3041L243.491 72.7751L242.686 72.7671L241.371 73.3781L239.786 75.1991L239.457 76.084L239.824 76.2521L239.415 77.287L240.57 79.7361L243.19 80.3631L244.008 81.2531L244.285 82.0851L244.01 82.1331L244.335 82.3201L244.431 83.2501L244.293 84.9241L243.871 85.4021L244.047 85.9111L243.262 86.7141L243.159 87.1921L242.811 87.4651L242.95 87.5671L240.911 88.1521L238.494 88.0291L237.426 87.4291L237.152 87.6181" stroke="black" stroke-width="1.5" stroke-linecap="round" stroke-linejoin="round"/>
<path d="M129.159 72.3585L129.199 72.1494L128.721 72.5645L126.441 72.4224L125.715 72.6915L125.616 72.9575L123.537 73.1185L122.821 73.5405L122.242 74.3174L122.144 75.2224L120.672 76.5875L120.25 77.3405L120.207 78.4774L119.469 80.7574L119.978 81.2335L120.037 82.7654L120.692 83.8484L120.524 83.9794L120.974 84.1664L121.177 84.9454L122.145 85.4484L121.876 85.6705L122.821 86.2094L123.725 86.2274L126.489 87.0984L127.743 86.8884L128.381 86.4944L130.478 86.3204L131.124 85.8455L131.009 86.0504" stroke="black" stroke-width="1.5" stroke-linecap="round" stroke-linejoin="round"/>
<path d="M173.202 72.3491L172.006 72.5861L171.968 72.4061L172.437 72.4182L172.099 72.5121L171.992 72.9022L171.807 72.6652L172.248 72.7031L171.915 72.4381L171.496 72.7351L171.909 72.8062L171.666 73.2432L171.857 75.5251L171.677 78.0461L172.083 79.7791L171.773 81.4871L171.952 82.3541L171.721 82.7512L171.819 85.4702L172.401 85.7211L172.067 86.1361L172.453 86.4301L171.988 86.4911L172.307 86.6361L172.122 86.6591L172.262 86.3661L171.932 86.2031L172.072 85.9412L171.853 86.1121L172.313 86.1251L171.851 86.0792L172.179 86.1961L171.942 86.1741L172.148 86.3121L171.769 86.4362L172.074 86.5021L171.851 86.5811L172.349 86.4681L171.967 86.5641L172.196 86.4932L172.13 86.3391L172.068 86.5562L171.908 86.4932L172.34 86.4911L171.881 86.4932L172.278 86.3701L172.003 86.3682L172.306 86.3121L172.14 85.9991L172.077 86.3641L171.791 86.1631" stroke="black" stroke-width="1.25" stroke-linecap="round" stroke-linejoin="round"/>
<path d="M172.064 72.7822H180.449" stroke="black" stroke-width="1.25" stroke-linecap="round" stroke-linejoin="round"/>
<path d="M173 85.7715H181.384" stroke="black" stroke-width="1.25" stroke-linecap="round" stroke-linejoin="round"/>
<path d="M172.502 78.6094H177.683" stroke="black" stroke-width="1.25" stroke-linecap="round" stroke-linejoin="round"/>
<path d="M160.379 73.6611V86.7642" stroke="black" stroke-width="1.5" stroke-linecap="round" stroke-linejoin="round"/>
<path d="M162.699 85.8442H168.083" stroke="black" stroke-width="1.5" stroke-linecap="round" stroke-linejoin="round"/>
<path d="M148.461 73.6621V86.7651" stroke="black" stroke-width="1.5" stroke-linecap="round" stroke-linejoin="round"/>
<path d="M150.783 85.8462H156.167" stroke="black" stroke-width="1.5" stroke-linecap="round" stroke-linejoin="round"/>
<path d="M188.423 75.1323L183.039 88.2073" stroke="black" stroke-width="1.5" stroke-linecap="round" stroke-linejoin="round"/>
<path d="M188.686 71.3965L194.839 86.7795" stroke="black" stroke-width="1.5" stroke-linecap="round" stroke-linejoin="round"/>
<path d="M188.424 84.3613H195.346" stroke="black" stroke-width="1.5" stroke-linecap="round" stroke-linejoin="round"/>
<path d="M215.346 86.2515H220.73" stroke="black" stroke-width="1.5" stroke-linecap="round" stroke-linejoin="round"/>
<path d="M222.336 73.0103V87.3743" stroke="black" stroke-width="1.5" stroke-linecap="round" stroke-linejoin="round"/>
<path d="M206.614 71.5L206.654 71.291L206.176 71.707L203.896 71.565L203.17 71.834L203.071 72.099L200.992 72.261L200.276 72.683L199.697 73.459L199.599 74.364L198.127 75.729L197.705 76.483L197.662 77.619L196.924 79.899L197.433 80.375L197.492 81.907L198.147 82.991L197.979 83.121L198.429 83.308L198.632 84.088L199.6 84.591L199.331 84.813L200.276 85.351L201.18 85.369L203.944 86.241L205.198 86.03L205.836 85.637L207.933 85.463L208.579 84.988L208.464 85.192" stroke="black" stroke-width="1.5" stroke-linecap="round" stroke-linejoin="round"/>
<path d="M201.889 80.2354H208.811" stroke="black" stroke-width="1.5" stroke-linecap="round" stroke-linejoin="round"/>
<path d="M208.811 81.7734V94.0804" stroke="black" stroke-width="1.5" stroke-linecap="round" stroke-linejoin="round"/>
<path d="M213.574 73.7241V86.8281" stroke="black" stroke-width="1.5" stroke-linecap="round" stroke-linejoin="round"/>
<path d="M246.167 72.7963L245.487 72.7983L244.758 72.2693L243.952 72.2612L242.637 72.8713L241.053 74.6932L240.724 75.5782L241.09 75.7463L240.681 76.7812L241.836 79.2292L244.457 79.8572L245.274 80.7473L245.551 81.5793L245.277 81.6273L245.601 81.8143L245.698 82.7443L245.559 84.4183L245.137 84.8962L245.314 85.4042L244.529 86.2083L244.426 86.6863L244.077 86.9592L244.216 87.0613L242.177 87.6462L239.76 87.5233L238.692 86.9233L238.418 87.1122" stroke="black" stroke-width="1.5" stroke-linecap="round" stroke-linejoin="round"/>
<path d="M98.1836 74.4272L96.1055 74.5543L96.932 74.4373L96.7242 74.4453L96.8826 74.5942L96.5996 74.7842L96.8533 75.0923L96.5806 75.3102L97.0881 76.0793L97.2563 76.9543L97.0962 77.4943L97.3793 80.2493L96.8795 81.7823L96.8287 83.9382L97.2402 84.3423L97.7073 83.2833" stroke="black" stroke-width="1.25" stroke-linecap="round" stroke-linejoin="round"/>
<path d="M98.3929 73.3423L98.2214 73.1163L98.3173 71.8323L98.168 71.6143L99.1962 70.3143L99.7673 69.9183L100.807 69.6323L102.036 69.9063L103.166 71.0123L103.492 72.4053L102.651 74.6393L100.463 77.1503L99.5213 77.4113L99.8984 77.2153L100.627 77.5003L102.052 78.8553L102.999 80.6823L103.822 81.6673L103.965 83.3103L104.453 84.5183L104.643 84.3313L104.498 84.2923" stroke="black" stroke-width="1.25" stroke-linecap="round" stroke-linejoin="round"/>
<path d="M97.8496 75.7334L95.7715 75.8614L96.598 75.7444L96.3902 75.7524L96.5487 75.9014L96.2656 76.0914L96.5193 76.3984L96.2467 76.6174L96.7542 77.3864L96.9223 78.2614L96.7622 78.8014L97.0453 81.5564L96.5456 83.0894L96.4947 85.2454L96.9063 85.6494L97.3734 84.5904" stroke="black" stroke-width="1.25" stroke-linecap="round" stroke-linejoin="round"/>
<path d="M98.0609 74.6484L97.8893 74.4235L97.9852 73.1384L97.8359 72.9205L98.8641 71.6215L99.4353 71.2255L100.475 70.9395L101.704 71.2125L102.834 72.3184L103.16 73.7125L102.319 75.9464L100.131 78.4575L99.1893 78.7175L99.5664 78.5214L100.296 78.8074L101.72 80.1624L102.667 81.9894L103.49 82.9744L103.633 84.6174L104.121 85.8245L104.311 85.6384L104.166 85.5994" stroke="black" stroke-width="1.25" stroke-linecap="round" stroke-linejoin="round"/>
<path d="M228.077 73.9365L226.881 74.1735L226.843 73.9935L227.312 74.0055L226.974 74.0995L226.867 74.4895L226.682 74.2525L227.123 74.2905L226.79 74.0255L226.371 74.3225L226.784 74.3935L226.54 74.8305L226.732 77.1125L226.552 79.6335L226.958 81.3665L226.648 83.0745L226.827 83.9415L226.596 84.3385L226.694 87.0575L227.276 87.3085L226.942 87.7235L227.328 88.0175L226.863 88.0785L227.182 88.2235L226.997 88.2475L227.137 87.9535L226.807 87.7905L226.947 87.5285L226.728 87.7005L227.188 87.7125L226.726 87.6665L227.054 87.7835L226.817 87.7615L227.023 87.8995L226.644 88.0235L226.949 88.0895L226.726 88.1685L227.224 88.0555L226.842 88.1515L227.071 88.0805L227.005 87.9265L226.943 88.1435L226.782 88.0805L227.215 88.0785L226.756 88.0805L227.153 87.9575L226.878 87.9555L227.181 87.8995L227.015 87.5865L226.952 87.9515L226.666 87.7505" stroke="black" stroke-width="1.25" stroke-linecap="round" stroke-linejoin="round"/>
<path d="M226.939 74.3691H235.324" stroke="black" stroke-width="1.25" stroke-linecap="round" stroke-linejoin="round"/>
<path d="M227.875 87.3584H236.26" stroke="black" stroke-width="1.25" stroke-linecap="round" stroke-linejoin="round"/>
<path d="M227.377 80.1963H232.558" stroke="black" stroke-width="1.25" stroke-linecap="round" stroke-linejoin="round"/>
<path d="M227.914 80.5674H233.618" stroke="black" stroke-width="1.5" stroke-linecap="round" stroke-linejoin="round"/>
<path d="M229.343 73.4302L228.147 73.6672L228.109 73.4862L228.578 73.4992L228.24 73.5932L228.133 73.9832L227.948 73.7462L228.389 73.7832L228.056 73.5192L227.637 73.8162L228.05 73.8862L227.806 74.3242L227.998 76.6052L227.818 79.1272L228.224 80.8602L227.914 82.5672L228.093 83.4352L227.862 83.8322L227.96 86.5512L228.542 86.8022L228.208 87.2172L228.594 87.5112L228.128 87.5722L228.448 87.7172L228.263 87.7402L228.403 87.4472L228.073 87.2842L228.213 87.0212L227.994 87.1932L228.453 87.2062L227.992 87.1602L228.319 87.2772L228.083 87.2552L228.288 87.3932L227.91 87.5172L228.215 87.5832L227.992 87.6622L228.489 87.5492L228.107 87.6452L228.337 87.5732L228.27 87.4202L228.209 87.6372L228.048 87.5742L228.481 87.5722L228.022 87.5732L228.419 87.4512L228.144 87.4492L228.446 87.3932L228.281 87.0792L228.218 87.4452L227.932 87.2442" stroke="black" stroke-width="1.25" stroke-linecap="round" stroke-linejoin="round"/>
<path d="M228.205 73.8633H236.589" stroke="black" stroke-width="1.25" stroke-linecap="round" stroke-linejoin="round"/>
<path d="M229.141 86.8521H237.525" stroke="black" stroke-width="1.25" stroke-linecap="round" stroke-linejoin="round"/>
<path d="M228.643 79.6904H233.824" stroke="black" stroke-width="1.25" stroke-linecap="round" stroke-linejoin="round"/>
<path d="M229.178 80.0615H234.881" stroke="black" stroke-width="1.5" stroke-linecap="round" stroke-linejoin="round"/>
<path d="M136.909 74.8113L135.757 74.7173L134.589 75.4343L133.162 76.9482L133.05 77.5502L132.258 78.7083L131.869 80.4343L131.196 81.4423L131.223 82.7023L130.971 83.4872L131.27 84.4113L131.08 84.9562L131.851 85.3273L132.074 85.6313L131.966 85.9193L132.451 86.5063L133.858 86.9402L135.569 87.0533L136.561 86.8453L138.059 86.0782L138.209 85.4913L139.073 84.8563L139.732 83.9053L139.624 83.0312L140.168 81.7213L140.304 80.6772L139.441 79.5712L139.387 78.8793L138.461 77.8533L137.844 76.0422L136.447 75.4142L136.238 75.5153" stroke="black" stroke-width="1.5" stroke-linecap="round" stroke-linejoin="round"/>
<path d="M138.172 74.3054L137.021 74.2114L135.853 74.9285L134.425 76.4424L134.314 77.0435L133.521 78.2025L133.133 79.9274L132.46 80.9365L132.487 82.1964L132.234 82.9814L132.534 83.9055L132.344 84.4495L133.114 84.8214L133.338 85.1245L133.23 85.4135L133.714 86.0004L135.122 86.4344L136.833 86.5474L137.825 86.3384L139.322 85.5724L139.472 84.9854L140.336 84.3505L140.996 83.3994L140.887 82.5255L141.431 81.2144L141.568 80.1714L140.704 79.0654L140.651 78.3734L139.725 77.3474L139.108 75.5364L137.71 74.9075L137.501 75.0095" stroke="black" stroke-width="1.5" stroke-linecap="round" stroke-linejoin="round"/>
<path d="M147.002 100.306L144.924 100.433L145.75 100.316L145.543 100.324L145.701 100.474L145.418 100.663L145.672 100.971L145.399 101.19L145.906 101.958L146.075 102.833L145.915 103.373L146.198 106.128L145.698 107.661L145.647 109.817L146.059 110.221L146.526 109.162" stroke="black" stroke-width="1.25" stroke-linecap="round" stroke-linejoin="round"/>
<path d="M147.211 99.2213L147.04 98.9952L147.136 97.7112L146.986 97.4933L148.015 96.1932L148.586 95.7972L149.625 95.5112L150.854 95.7853L151.984 96.8912L152.31 98.2842L151.469 100.519L149.281 103.03L148.34 103.29L148.717 103.094L149.446 103.379L150.87 104.734L151.817 106.561L152.641 107.546L152.784 109.189L153.271 110.397L153.461 110.21L153.317 110.172" stroke="black" stroke-width="1.25" stroke-linecap="round" stroke-linejoin="round"/>
<path d="M146.67 101.613L144.592 101.74L145.418 101.623L145.21 101.631L145.369 101.78L145.086 101.97L145.34 102.278L145.067 102.496L145.574 103.265L145.743 104.14L145.582 104.68L145.866 107.435L145.366 108.968L145.315 111.124L145.727 111.528L146.194 110.469" stroke="black" stroke-width="1.25" stroke-linecap="round" stroke-linejoin="round"/>
<path d="M146.879 100.528L146.708 100.302L146.804 99.0184L146.654 98.8004L147.682 97.5004L148.254 97.1044L149.293 96.8184L150.522 97.0914L151.652 98.1974L151.978 99.5914L151.137 101.825L148.949 104.336L148.008 104.596L148.385 104.401L149.114 104.686L150.538 106.041L151.485 107.868L152.309 108.853L152.452 110.496L152.939 111.704L153.129 111.517L152.984 111.478" stroke="black" stroke-width="1.25" stroke-linecap="round" stroke-linejoin="round"/>
<path d="M136.111 98.8262L131.289 110.536" stroke="black" stroke-width="1.25" stroke-linecap="round" stroke-linejoin="round"/>
<path d="M136.344 95.4805L141.854 109.257" stroke="black" stroke-width="1.25" stroke-linecap="round" stroke-linejoin="round"/>
<path d="M136.111 107.092H142.311" stroke="black" stroke-width="1.25" stroke-linecap="round" stroke-linejoin="round"/>
<path d="M135.779 100.133L130.957 111.843" stroke="black" stroke-width="1.25" stroke-linecap="round" stroke-linejoin="round"/>
<path d="M136.012 96.7871L141.522 110.563" stroke="black" stroke-width="1.25" stroke-linecap="round" stroke-linejoin="round"/>
<path d="M135.777 108.398H141.977" stroke="black" stroke-width="1.25" stroke-linecap="round" stroke-linejoin="round"/>
<path d="M160.225 97.0635L159.03 97.3015L158.992 97.1205L159.461 97.1325L159.122 97.2265L159.016 97.6165L158.831 97.3795L159.271 97.4175L158.939 97.1535L158.52 97.4505L158.932 97.5205L158.689 97.9575L158.88 100.24L158.701 102.76L159.106 104.494L158.797 106.201L158.976 107.068L158.744 107.466L158.843 110.185L159.424 110.435L159.09 110.852L159.476 111.145L159.011 111.206L159.331 111.351L159.146 111.375L159.286 111.081L158.956 110.919L159.096 110.656L158.877 110.828L159.336 110.839L158.875 110.794L159.202 110.911L158.966 110.89L159.171 111.026L158.793 111.151L159.097 111.216L158.875 111.297L159.372 111.182L158.99 111.279L159.22 111.208L159.153 111.054L159.092 111.271L158.931 111.208L159.364 111.206L158.905 111.208L159.301 111.084L159.026 111.083L159.329 111.026L159.163 110.714L159.101 111.078L158.815 110.878" stroke="black" stroke-width="1.25" stroke-linecap="round" stroke-linejoin="round"/>
<path d="M159.09 97.4961H167.474" stroke="black" stroke-width="1.25" stroke-linecap="round" stroke-linejoin="round"/>
<path d="M160.025 110.485H168.41" stroke="black" stroke-width="1.25" stroke-linecap="round" stroke-linejoin="round"/>
<path d="M159.525 103.323H164.706" stroke="black" stroke-width="1.25" stroke-linecap="round" stroke-linejoin="round"/>
<path d="M160.062 103.694H165.766" stroke="black" stroke-width="1.5" stroke-linecap="round" stroke-linejoin="round"/>
<path d="M161.491 96.5571L160.295 96.7941L160.257 96.6141L160.726 96.6262L160.388 96.7202L160.282 97.1101L160.096 96.8731L160.537 96.9111L160.204 96.6461L159.785 96.9431L160.198 97.0142L159.955 97.4511L160.146 99.7332L159.966 102.254L160.372 103.987L160.062 105.695L160.241 106.562L160.01 106.959L160.109 109.678L160.69 109.929L160.356 110.344L160.742 110.638L160.277 110.699L160.596 110.844L160.411 110.868L160.551 110.574L160.221 110.411L160.361 110.149L160.143 110.321L160.602 110.333L160.14 110.287L160.468 110.404L160.231 110.382L160.437 110.52L160.058 110.644L160.363 110.71L160.14 110.789L160.638 110.676L160.256 110.772L160.486 110.701L160.419 110.547L160.357 110.764L160.197 110.701L160.63 110.699L160.17 110.701L160.567 110.578L160.292 110.576L160.595 110.52L160.429 110.207L160.367 110.572L160.08 110.371" stroke="black" stroke-width="1.25" stroke-linecap="round" stroke-linejoin="round"/>
<path d="M160.355 96.9902H168.74" stroke="black" stroke-width="1.25" stroke-linecap="round" stroke-linejoin="round"/>
<path d="M161.291 109.979H169.675" stroke="black" stroke-width="1.25" stroke-linecap="round" stroke-linejoin="round"/>
<path d="M160.791 102.817H165.972" stroke="black" stroke-width="1.25" stroke-linecap="round" stroke-linejoin="round"/>
<path d="M161.328 103.188H167.032" stroke="black" stroke-width="1.5" stroke-linecap="round" stroke-linejoin="round"/>
<path d="M189.303 97.0535L189.341 96.8545L188.886 97.2495L186.714 97.1145L186.023 97.3705L185.929 97.6235L183.949 97.7775L183.267 98.1795L182.715 98.9185L182.622 99.7805L181.22 101.081L180.818 101.799L180.777 102.88L180.074 105.052L180.559 105.505L180.616 106.964L181.239 107.997L181.079 108.12L181.508 108.299L181.701 109.042L182.623 109.521L182.367 109.732L183.267 110.245L184.128 110.261L186.761 111.091L187.954 110.891L188.562 110.516L190.559 110.351L191.174 109.898L191.065 110.094" stroke="black" stroke-width="1.5" stroke-linecap="round" stroke-linejoin="round"/>
<path d="M184.801 105.371H191.393" stroke="black" stroke-width="1.5" stroke-linecap="round" stroke-linejoin="round"/>
<path d="M189.098 96.6013L189.135 96.4023L188.681 96.7983L186.509 96.6633L185.818 96.9193L185.723 97.1723L183.744 97.3263L183.062 97.7273L182.51 98.4673L182.417 99.3293L181.015 100.629L180.613 101.346L180.572 102.429L179.869 104.6L180.354 105.053L180.411 106.512L181.034 107.545L180.874 107.669L181.302 107.847L181.496 108.589L182.418 109.068L182.162 109.28L183.062 109.793L183.923 109.81L186.555 110.64L187.749 110.439L188.357 110.064L190.354 109.899L190.969 109.446L190.86 109.642" stroke="black" stroke-width="1.5" stroke-linecap="round" stroke-linejoin="round"/>
<path d="M184.598 104.92H191.19" stroke="black" stroke-width="1.5" stroke-linecap="round" stroke-linejoin="round"/>
<path d="M201.809 98.3914L200.658 98.2974L199.489 99.0154L198.062 100.528L197.951 101.13L197.158 102.289L196.77 104.014L196.097 105.022L196.124 106.282L195.871 107.067L196.17 107.991L195.98 108.536L196.751 108.907L196.975 109.211L196.866 109.499L197.351 110.087L198.759 110.52L200.469 110.633L201.462 110.425L202.959 109.659L203.109 109.071L203.973 108.437L204.633 107.485L204.524 106.612L205.068 105.301L205.204 104.257L204.341 103.151L204.288 102.46L203.362 101.433L202.744 99.6224L201.347 98.9944L201.138 99.0954" stroke="black" stroke-width="1.5" stroke-linecap="round" stroke-linejoin="round"/>
<path d="M203.075 97.885L201.923 97.791L200.755 98.508L199.328 100.022L199.216 100.624L198.424 101.782L198.035 103.508L197.362 104.516L197.389 105.776L197.137 106.561L197.436 107.485L197.246 108.03L198.017 108.401L198.24 108.705L198.132 108.993L198.617 109.58L200.024 110.014L201.735 110.127L202.727 109.919L204.225 109.152L204.375 108.565L205.239 107.931L205.898 106.979L205.79 106.105L206.334 104.795L206.47 103.751L205.607 102.645L205.553 101.953L204.627 100.927L204.01 99.116L202.613 98.488L202.404 98.589" stroke="black" stroke-width="1.5" stroke-linecap="round" stroke-linejoin="round"/>
<path d="M210.441 97.7192V112.873" stroke="black" stroke-width="1.25" stroke-linecap="round" stroke-linejoin="round"/>
<path d="M224.91 98.3145V111.178" stroke="black" stroke-width="1.25" stroke-linecap="round" stroke-linejoin="round"/>
<path d="M214.865 95.9951L224.509 111.149" stroke="black" stroke-width="1.25" stroke-linecap="round" stroke-linejoin="round"/>
<path d="M216.139 99.1992V110.934" stroke="black" stroke-width="1.25" stroke-linecap="round" stroke-linejoin="round"/>
<path d="M210.109 99.0264V114.18" stroke="black" stroke-width="1.25" stroke-linecap="round" stroke-linejoin="round"/>
<path d="M224.576 99.6211V112.485" stroke="black" stroke-width="1.25" stroke-linecap="round" stroke-linejoin="round"/>
<path d="M214.533 97.3022L224.177 112.455" stroke="black" stroke-width="1.25" stroke-linecap="round" stroke-linejoin="round"/>
<path d="M215.807 100.506V112.241" stroke="black" stroke-width="1.25" stroke-linecap="round" stroke-linejoin="round"/>
<path d="M241.288 97.2855L241.325 97.0864L240.87 97.4814L238.699 97.3474L238.008 97.6035L237.913 97.8564L235.933 98.0095L235.252 98.4114L234.7 99.1505L234.606 100.013L233.205 101.312L232.802 102.03L232.762 103.113L232.059 105.284L232.543 105.737L232.6 107.196L233.224 108.228L233.063 108.353L233.492 108.53L233.686 109.273L234.607 109.752L234.351 109.963L235.251 110.476L236.112 110.493L238.745 111.324L239.939 111.123L240.547 110.748L242.544 110.582L243.159 110.13L243.05 110.325" stroke="black" stroke-width="1.5" stroke-linecap="round" stroke-linejoin="round"/>
<path d="M236.787 105.604H243.38" stroke="black" stroke-width="1.5" stroke-linecap="round" stroke-linejoin="round"/>
<path d="M241.085 96.8342L241.122 96.6343L240.668 97.0303L238.496 96.8953L237.805 97.1512L237.71 97.4042L235.73 97.5582L235.049 97.9603L234.496 98.6993L234.403 99.5613L233.001 100.861L232.599 101.579L232.559 102.661L231.855 104.833L232.34 105.286L232.397 106.745L233.021 107.777L232.86 107.901L233.289 108.079L233.482 108.822L234.404 109.301L234.148 109.512L235.048 110.025L235.909 110.042L238.542 110.872L239.736 110.671L240.344 110.297L242.341 110.131L242.956 109.679L242.847 109.874" stroke="black" stroke-width="1.5" stroke-linecap="round" stroke-linejoin="round"/>
<path d="M236.582 105.152H243.175" stroke="black" stroke-width="1.5" stroke-linecap="round" stroke-linejoin="round"/>
<path d="M191.395 106.837V118.557" stroke="black" stroke-width="1.5" stroke-linecap="round" stroke-linejoin="round"/>
<path d="M191.189 106.385V118.105" stroke="black" stroke-width="1.5" stroke-linecap="round" stroke-linejoin="round"/>
<path d="M243.576 105.65V117.37" stroke="black" stroke-width="1.5" stroke-linecap="round" stroke-linejoin="round"/>
<path d="M243.371 105.198V116.919" stroke="black" stroke-width="1.5" stroke-linecap="round" stroke-linejoin="round"/>
<path d="M251.543 110.865L252.144 112.094L251.211 115.322L250.05 116.965L248.836 121.55L247.602 123.44" stroke="black" stroke-width="2" stroke-linecap="round" stroke-linejoin="round"/>
<path d="M135.727 137.662L137.306 137.494L136.613 137.172L137.251 134.907L137.21 133.304L137.474 133.02L137.759 131.758L137.151 129.959L137.634 129.387L137.194 127.248L137.582 126.67L137.157 125.793L137.339 125.575L137.175 125.54L137.477 125.51L137.349 125.402L137.583 125.163L136.924 124.717L137.421 124.404L137.281 123.864L137.764 123.798L137.352 123.906L137.462 123.994L136.983 124.302L137.14 124.318L136.896 124.316L137.381 124.061L137.451 124.298L136.823 124.216L137.437 124.197L137.531 124.068L137.27 123.996L137.537 124.048L137.312 124.131L137.547 123.983L137.398 123.93L137.586 123.978L137.254 123.935L137.583 123.998L137.429 124.122L137.814 123.962" stroke="black" stroke-width="1.5" stroke-linecap="round" stroke-linejoin="round"/>
<path d="M136.126 136.439L136.53 136.373L136.236 136.239L136.56 136.19L135.879 135.708L135.873 135.148L135.366 134.741L135.52 134.538L135.366 134.263L134.521 133.853L133.602 132.134L132.347 130.604L132.342 130.331L131.733 130.266L131.286 129.92L130.814 130.306L131.294 130.346L131.108 130.45" stroke="black" stroke-width="1.5" stroke-linecap="round" stroke-linejoin="round"/>
<path d="M127.51 136.256L128.526 135.662L128.44 135.392L129.692 133.253L130.575 131.102L131.221 130.362L131.103 130.117L131.429 129.736L131.688 129.837L131.426 129.655" stroke="black" stroke-width="1.5" stroke-linecap="round" stroke-linejoin="round"/>
<path d="M127.053 136.461L127.219 135.674L127.134 134.14L126.773 132.049L126.368 131.299L126.411 130.266L125.647 128.971L125.401 128.859L125.598 127.875L125.262 127.753L124.999 126.727L125.084 125.446L124.934 125.245L125.028 125.357L125.015 124.935L125.25 124.687L124.995 124.732L125.104 124.872L125.261 124.69" stroke="black" stroke-width="1.5" stroke-linecap="round" stroke-linejoin="round"/>
<path d="M153.631 127.697L148.727 139.608" stroke="black" stroke-width="1.5" stroke-linecap="round" stroke-linejoin="round"/>
<path d="M153.869 124.294L159.474 138.307" stroke="black" stroke-width="1.5" stroke-linecap="round" stroke-linejoin="round"/>
<path d="M153.631 136.105H159.936" stroke="black" stroke-width="1.5" stroke-linecap="round" stroke-linejoin="round"/>
<path d="M141.145 122.278V137.692" stroke="black" stroke-width="1.5" stroke-linecap="round" stroke-linejoin="round"/>
<path d="M141.801 129.823H148.645" stroke="black" stroke-width="1.25" stroke-linecap="round" stroke-linejoin="round"/>
<path d="M148.402 122.979V138.393" stroke="black" stroke-width="1.5" stroke-linecap="round" stroke-linejoin="round"/>
<path d="M173.121 124.667V137.752" stroke="black" stroke-width="1.5" stroke-linecap="round" stroke-linejoin="round"/>
<path d="M162.904 122.308L172.713 137.722" stroke="black" stroke-width="1.5" stroke-linecap="round" stroke-linejoin="round"/>
<path d="M164.199 125.568V137.504" stroke="black" stroke-width="1.5" stroke-linecap="round" stroke-linejoin="round"/>
<path d="M176.686 125.399H189.297" stroke="black" stroke-width="1.5" stroke-linecap="round" stroke-linejoin="round"/>
<path d="M183.691 124.824V137.435" stroke="black" stroke-width="1.5" stroke-linecap="round" stroke-linejoin="round"/>
<path d="M222.491 127.253L221.442 127.167L220.378 127.821L219.078 129.199L218.976 129.747L218.254 130.803L217.901 132.374L217.288 133.293L217.312 134.441L217.082 135.156L217.355 135.997L217.182 136.494L217.884 136.832L218.087 137.108L217.989 137.371L218.43 137.906L219.713 138.301L221.271 138.404L222.175 138.214L223.539 137.516L223.675 136.981L224.462 136.403L225.063 135.537L224.964 134.741L225.46 133.547L225.584 132.596L224.798 131.589L224.749 130.959L223.906 130.024L223.343 128.374L222.07 127.802L221.88 127.894" stroke="black" stroke-width="1.5" stroke-linecap="round" stroke-linejoin="round"/>
<path d="M201.357 126.393H213.969" stroke="black" stroke-width="1.5" stroke-linecap="round" stroke-linejoin="round"/>
<path d="M208.363 125.817V138.429" stroke="black" stroke-width="1.5" stroke-linecap="round" stroke-linejoin="round"/>
<path d="M245.692 125.594L245.728 125.406L245.3 125.779L243.256 125.652L242.605 125.893L242.516 126.131L240.653 126.276L240.011 126.654L239.492 127.35L239.404 128.161L238.085 129.384L237.706 130.06L237.668 131.079L237.006 133.123L237.462 133.549L237.516 134.922L238.103 135.894L237.952 136.011L238.355 136.178L238.537 136.877L239.405 137.328L239.164 137.527L240.011 138.009L240.822 138.026L243.299 138.807L244.423 138.618L244.995 138.265L246.874 138.109L247.453 137.684L247.351 137.867" stroke="black" stroke-width="1.25" stroke-linecap="round" stroke-linejoin="round"/>
<path d="M253.77 127.339L252.738 127.255L251.691 127.898L250.411 129.255L250.311 129.794L249.601 130.833L249.253 132.379L248.65 133.283L248.674 134.413L248.447 135.116L248.715 135.944L248.545 136.432L249.236 136.765L249.436 137.037L249.34 137.296L249.774 137.822L251.036 138.211L252.569 138.312L253.459 138.126L254.801 137.439L254.935 136.913L255.71 136.344L256.301 135.491L256.203 134.708L256.691 133.533L256.813 132.597L256.04 131.606L255.992 130.986L255.162 130.066L254.608 128.443L253.356 127.879L253.169 127.97" stroke="black" stroke-width="1.25" stroke-linecap="round" stroke-linejoin="round"/>
<path d="M268.559 126.953V139.829" stroke="black" stroke-width="1.25" stroke-linecap="round" stroke-linejoin="round"/>
<path d="M258.506 124.632L268.158 139.799" stroke="black" stroke-width="1.25" stroke-linecap="round" stroke-linejoin="round"/>
<path d="M259.779 127.839V139.584" stroke="black" stroke-width="1.25" stroke-linecap="round" stroke-linejoin="round"/>
<path d="M270.586 127.169H282.996" stroke="black" stroke-width="1.25" stroke-linecap="round" stroke-linejoin="round"/>
<path d="M277.479 126.604V139.013" stroke="black" stroke-width="1.25" stroke-linecap="round" stroke-linejoin="round"/>
<path d="M304.936 125.668L304.972 125.48L304.544 125.852L302.5 125.726L301.849 125.967L301.76 126.205L299.897 126.349L299.255 126.727L298.736 127.423L298.648 128.235L297.329 129.458L296.95 130.134L296.912 131.153L296.25 133.196L296.706 133.623L296.76 134.996L297.347 135.967L297.196 136.084L297.599 136.252L297.781 136.951L298.649 137.401L298.408 137.6L299.255 138.083L300.065 138.099L302.543 138.881L303.666 138.692L304.239 138.339L306.118 138.183L306.697 137.757L306.595 137.941" stroke="black" stroke-width="1.25" stroke-linecap="round" stroke-linejoin="round"/>
<path d="M306.855 127.268H319.265" stroke="black" stroke-width="1.25" stroke-linecap="round" stroke-linejoin="round"/>
<path d="M313.748 126.702V139.112" stroke="black" stroke-width="1.25" stroke-linecap="round" stroke-linejoin="round"/>
<path d="M137.016 137.49L138.595 137.321L137.902 137L138.54 134.734L138.499 133.132L138.763 132.848L139.049 131.586L138.44 129.787L138.923 129.214L138.483 127.076L138.871 126.497L138.446 125.621L138.628 125.403L138.464 125.368L138.766 125.338L138.638 125.23L138.873 124.991L138.213 124.544L138.71 124.231L138.57 123.692L139.053 123.625L138.641 123.734L138.752 123.821L138.272 124.129L138.429 124.146L138.185 124.144L138.67 123.888L138.74 124.126L138.112 124.043L138.726 124.025L138.821 123.895L138.559 123.823L138.826 123.875L138.601 123.958L138.836 123.811L138.687 123.758L138.875 123.806L138.543 123.763L138.872 123.826L138.718 123.95L139.103 123.79" stroke="black" stroke-width="1.5" stroke-linecap="round" stroke-linejoin="round"/>
<path d="M137.417 136.267L137.821 136.201L137.527 136.066L137.851 136.017L137.17 135.536L137.164 134.975L136.657 134.569L136.811 134.365L136.657 134.09L135.812 133.681L134.893 131.962L133.638 130.431L133.633 130.159L133.024 130.094L132.577 129.748L132.105 130.134L132.585 130.174L132.399 130.278" stroke="black" stroke-width="1.5" stroke-linecap="round" stroke-linejoin="round"/>
<path d="M128.799 136.084L129.816 135.49L129.729 135.22L130.981 133.081L131.864 130.93L132.51 130.19L132.392 129.944L132.718 129.564L132.977 129.664L132.715 129.483" stroke="black" stroke-width="1.5" stroke-linecap="round" stroke-linejoin="round"/>
<path d="M128.344 136.287L128.51 135.501L128.425 133.967L128.064 131.876L127.659 131.127L127.702 130.093L126.938 128.797L126.692 128.686L126.889 127.703L126.553 127.58L126.29 126.554L126.375 125.273L126.225 125.072L126.319 125.184L126.306 124.762L126.541 124.514L126.286 124.559L126.395 124.7L126.552 124.518" stroke="black" stroke-width="1.5" stroke-linecap="round" stroke-linejoin="round"/>
<path d="M154.92 127.525L150.016 139.436" stroke="black" stroke-width="1.5" stroke-linecap="round" stroke-linejoin="round"/>
<path d="M155.158 124.122L160.763 138.135" stroke="black" stroke-width="1.5" stroke-linecap="round" stroke-linejoin="round"/>
<path d="M154.922 135.933H161.228" stroke="black" stroke-width="1.5" stroke-linecap="round" stroke-linejoin="round"/>
<path d="M142.436 122.106V137.52" stroke="black" stroke-width="1.5" stroke-linecap="round" stroke-linejoin="round"/>
<path d="M143.092 129.65H149.936" stroke="black" stroke-width="1.25" stroke-linecap="round" stroke-linejoin="round"/>
<path d="M149.691 122.806V138.22" stroke="black" stroke-width="1.5" stroke-linecap="round" stroke-linejoin="round"/>
<path d="M174.41 124.495V137.58" stroke="black" stroke-width="1.5" stroke-linecap="round" stroke-linejoin="round"/>
<path d="M164.195 122.136L174.004 137.55" stroke="black" stroke-width="1.5" stroke-linecap="round" stroke-linejoin="round"/>
<path d="M165.49 125.396V137.331" stroke="black" stroke-width="1.5" stroke-linecap="round" stroke-linejoin="round"/>
<path d="M177.975 125.227H190.586" stroke="black" stroke-width="1.5" stroke-linecap="round" stroke-linejoin="round"/>
<path d="M184.98 124.651V137.263" stroke="black" stroke-width="1.5" stroke-linecap="round" stroke-linejoin="round"/>
<path d="M223.782 127.08L222.733 126.995L221.669 127.648L220.369 129.027L220.267 129.575L219.545 130.631L219.192 132.202L218.579 133.12L218.603 134.269L218.373 134.983L218.646 135.825L218.473 136.321L219.175 136.66L219.378 136.936L219.28 137.199L219.721 137.734L221.004 138.129L222.562 138.232L223.466 138.042L224.83 137.344L224.966 136.809L225.753 136.231L226.354 135.364L226.255 134.569L226.751 133.374L226.875 132.424L226.089 131.417L226.04 130.786L225.197 129.851L224.634 128.202L223.361 127.629L223.171 127.722" stroke="black" stroke-width="1.5" stroke-linecap="round" stroke-linejoin="round"/>
<path d="M202.648 126.22H215.26" stroke="black" stroke-width="1.5" stroke-linecap="round" stroke-linejoin="round"/>
<path d="M209.654 125.646V138.257" stroke="black" stroke-width="1.5" stroke-linecap="round" stroke-linejoin="round"/>
<path d="M246.983 125.422L247.018 125.234L246.59 125.606L244.546 125.48L243.896 125.721L243.807 125.959L241.943 126.103L241.302 126.481L240.782 127.177L240.694 127.989L239.375 129.212L238.996 129.888L238.958 130.907L238.297 132.95L238.753 133.377L238.806 134.75L239.393 135.721L239.242 135.838L239.646 136.006L239.828 136.705L240.696 137.156L240.455 137.354L241.301 137.837L242.112 137.853L244.59 138.635L245.713 138.446L246.285 138.093L248.165 137.937L248.744 137.511L248.641 137.695" stroke="black" stroke-width="1.25" stroke-linecap="round" stroke-linejoin="round"/>
<path d="M255.06 127.167L254.028 127.083L252.981 127.726L251.701 129.083L251.602 129.622L250.891 130.66L250.543 132.207L249.94 133.11L249.964 134.24L249.738 134.944L250.006 135.772L249.836 136.26L250.526 136.593L250.727 136.865L250.63 137.124L251.064 137.65L252.326 138.039L253.859 138.14L254.749 137.953L256.091 137.267L256.225 136.74L257 136.171L257.591 135.319L257.494 134.535L257.982 133.36L258.104 132.425L257.33 131.434L257.282 130.814L256.452 129.894L255.899 128.27L254.646 127.707L254.459 127.798" stroke="black" stroke-width="1.25" stroke-linecap="round" stroke-linejoin="round"/>
<path d="M269.848 126.781V139.656" stroke="black" stroke-width="1.25" stroke-linecap="round" stroke-linejoin="round"/>
<path d="M259.795 124.459L269.447 139.627" stroke="black" stroke-width="1.25" stroke-linecap="round" stroke-linejoin="round"/>
<path d="M261.07 127.667V139.412" stroke="black" stroke-width="1.25" stroke-linecap="round" stroke-linejoin="round"/>
<path d="M271.875 126.997H284.285" stroke="black" stroke-width="1.25" stroke-linecap="round" stroke-linejoin="round"/>
<path d="M278.77 126.431V138.841" stroke="black" stroke-width="1.25" stroke-linecap="round" stroke-linejoin="round"/>
<path d="M306.228 125.495L306.263 125.308L305.835 125.68L303.791 125.553L303.14 125.794L303.051 126.032L301.188 126.177L300.547 126.555L300.027 127.251L299.939 128.063L298.62 129.286L298.241 129.961L298.203 130.98L297.541 133.024L297.998 133.45L298.051 134.823L298.638 135.795L298.487 135.912L298.89 136.079L299.073 136.778L299.94 137.229L299.699 137.428L300.546 137.911L301.357 137.927L303.834 138.708L304.958 138.519L305.53 138.167L307.41 138.011L307.989 137.585L307.886 137.769" stroke="black" stroke-width="1.25" stroke-linecap="round" stroke-linejoin="round"/>
<path d="M308.145 127.095H320.555" stroke="black" stroke-width="1.25" stroke-linecap="round" stroke-linejoin="round"/>
<path d="M315.039 126.529V138.939" stroke="black" stroke-width="1.25" stroke-linecap="round" stroke-linejoin="round"/>
<path d="M332.588 119.108L332.099 116.745L331.881 117.541L332.469 117.624L332.944 116.324L333.735 116.297L336.616 115.216L338.453 115.442L339.347 115.873L340.414 117.754L341.272 118.05L340.925 118.371L341.297 118.715L341.249 119.606L341.636 119.872L340.187 121.683L340.619 122.163L339.887 123.457L339.393 123.507L339.653 123.659L339.111 123.962L339.423 124.049L338.873 125.085L338.241 125.054L338.62 125.035L338.522 125.264L336.672 127.024L337.165 127.57L336.646 128.111L337.188 128.402L336.716 129.135L336.857 129.969L337.144 129.656L336.933 129.477L336.853 129.745L337.071 130.8L336.864 130.983L337.042 130.855L336.684 130.535L337.152 130.664L336.396 131.358" stroke="black" stroke-width="2" stroke-linecap="round" stroke-linejoin="round"/>
<path d="M335.559 142.112L335.345 141.559L335.243 141.93L335.624 141.99L334.896 141.953L336.018 141.467L336.536 140.772L335.942 141.353L336.442 141.415L335.885 141.476L335.108 140.935L334.917 141.418L335.797 141.167L335.868 140.898L335.453 140.958L334.154 142.337L334.661 142.027L334.537 142.82L335.031 143.489L334.718 143.778L335.103 143.134L334.841 142.601L336.411 141.1L336.543 140.691L336.261 140.379L336.507 140.278L335.781 140.481L335.907 140.789L334.868 141.772" stroke="black" stroke-width="2" stroke-linecap="round" stroke-linejoin="round"/>
<path d="M25.0566 118.736L25.5596 124.052L27.0496 129.18L29.4736 133.938L34.0066 139.418L38.2262 142.691L42.9841 145.115L48.1122 146.605L53.4285 147.108L58.7447 146.605L63.8728 145.115L68.6307 142.691L72.8501 139.418L76.3816 135.412L79.8077 129.18L81.2975 124.052L81.8 118.736L81.2975 113.42L79.8077 108.292L76.3816 102.059L72.8501 98.0543L68.6307 94.7812L63.8728 92.3572L58.7447 90.8672L53.4285 90.3643L48.1122 90.8672L42.9841 92.3572L38.2262 94.7812L34.0066 98.0543L29.4736 103.534L27.0496 108.292L25.5596 113.42L25.0566 118.736Z" stroke="black" stroke-width="3" stroke-linecap="round" stroke-linejoin="round"/>
<path d="M22.3926 22.7681L35.3926 37.7681" stroke="black" stroke-width="2" stroke-linecap="round" stroke-linejoin="round"/>
<path d="M24.3926 39.7681L33.3926 23.7681" stroke="black" stroke-width="2" stroke-linecap="round" stroke-linejoin="round"/>
<path d="M64.0156 98.1191L74.5181 110.237" stroke="black" stroke-width="1.5" stroke-linecap="round" stroke-linejoin="round"/>
<path d="M65.6309 111.853L72.9019 98.9272" stroke="black" stroke-width="1.5" stroke-linecap="round" stroke-linejoin="round"/>
<path d="M287.17 128.622L282.344 140.343" stroke="black" stroke-width="1.25" stroke-linecap="round" stroke-linejoin="round"/>
<path d="M287.402 125.273L292.918 139.062" stroke="black" stroke-width="1.25" stroke-linecap="round" stroke-linejoin="round"/>
<path d="M287.168 136.896H293.373" stroke="black" stroke-width="1.25" stroke-linecap="round" stroke-linejoin="round"/>
<path d="M288.461 128.45L283.635 140.17" stroke="black" stroke-width="1.25" stroke-linecap="round" stroke-linejoin="round"/>
<path d="M288.693 125.101L294.208 138.89" stroke="black" stroke-width="1.25" stroke-linecap="round" stroke-linejoin="round"/>
<path d="M288.461 136.723H294.666" stroke="black" stroke-width="1.25" stroke-linecap="round" stroke-linejoin="round"/>
<path d="M37.4753 118.231L35.8244 118.408L36.5485 118.744L35.8818 121.113L35.9247 122.788L35.6485 123.085L35.3498 124.404L35.9863 126.286L35.4806 126.884L35.9412 129.12L35.5356 129.724L35.9798 130.641L35.7898 130.869L35.9612 130.905L35.6452 130.937L35.7795 131.049L35.5338 131.3L36.223 131.766L35.7033 132.094L35.8497 132.657L35.3454 132.727L35.776 132.614L35.6603 132.522L36.1613 132.2L35.9979 132.183L36.2522 132.185L35.7454 132.452L35.6723 132.204L36.3289 132.29L35.6872 132.31L35.5882 132.445L35.862 132.52L35.5821 132.466L35.8173 132.379L35.5717 132.534L35.7278 132.589L35.5315 132.538L35.8786 132.583L35.5344 132.518L35.6952 132.388L35.293 132.555" stroke="black" stroke-width="1.5" stroke-linecap="round" stroke-linejoin="round"/>
<path d="M37.0561 119.51L36.633 119.58L36.9404 119.72L36.6016 119.771L37.3142 120.275L37.3205 120.861L37.8506 121.286L37.6896 121.498L37.8503 121.786L38.7341 122.214L39.6946 124.011L41.0062 125.611L41.012 125.896L41.6485 125.964L42.1159 126.326L42.6089 125.923L42.1073 125.881L42.3023 125.772" stroke="black" stroke-width="1.5" stroke-linecap="round" stroke-linejoin="round"/>
<path d="M46.0651 119.702L45.0022 120.323L45.0925 120.605L43.7832 122.841L42.8603 125.09L42.1853 125.864L42.3087 126.12L41.9677 126.519L41.6973 126.413L41.9704 126.603" stroke="black" stroke-width="1.5" stroke-linecap="round" stroke-linejoin="round"/>
<path d="M46.5424 119.489L46.3691 120.311L46.4572 121.915L46.8356 124.101L47.259 124.884L47.2133 125.965L48.0128 127.32L48.2691 127.436L48.0633 128.464L48.415 128.592L48.6899 129.665L48.6011 131.004L48.7582 131.215L48.6592 131.098L48.6735 131.539L48.4274 131.798L48.6941 131.751L48.5803 131.604L48.4154 131.794" stroke="black" stroke-width="1.5" stroke-linecap="round" stroke-linejoin="round"/>
<path d="M37.2702 117.78L35.6193 117.956L36.3434 118.293L35.6767 120.661L35.7196 122.337L35.4435 122.634L35.1448 123.953L35.7812 125.834L35.2755 126.432L35.7361 128.669L35.3305 129.273L35.7747 130.189L35.5846 130.418L35.7561 130.454L35.4401 130.485L35.5744 130.598L35.3288 130.848L36.0179 131.315L35.4982 131.642L35.6446 132.206L35.1402 132.276L35.5709 132.162L35.4552 132.071L35.9562 131.749L35.7928 131.732L36.0471 131.734L35.5403 132.001L35.4672 131.753L36.1238 131.839L35.4822 131.858L35.3831 131.993L35.6569 132.069L35.377 132.015L35.6122 131.928L35.3666 132.082L35.5228 132.137L35.3264 132.087L35.6735 132.132L35.3293 132.067L35.4901 131.937L35.0879 132.104" stroke="black" stroke-width="1.5" stroke-linecap="round" stroke-linejoin="round"/>
<path d="M36.8529 119.059L36.4298 119.128L36.7372 119.269L36.3984 119.32L37.111 119.824L37.1173 120.409L37.6473 120.834L37.4864 121.047L37.6471 121.334L38.5309 121.763L39.4914 123.56L40.803 125.16L40.8088 125.445L41.4453 125.513L41.9127 125.875L42.4057 125.471L41.9041 125.429L42.0991 125.321" stroke="black" stroke-width="1.5" stroke-linecap="round" stroke-linejoin="round"/>
<path d="M45.862 119.251L44.7991 119.871L44.8894 120.154L43.5801 122.39L42.6573 124.639L41.9822 125.413L42.1056 125.669L41.7646 126.067L41.4941 125.962L41.7673 126.152" stroke="black" stroke-width="1.5" stroke-linecap="round" stroke-linejoin="round"/>
<path d="M46.3393 119.037L46.166 119.86L46.2541 121.464L46.6325 123.65L47.0559 124.433L47.0102 125.514L47.8097 126.868L48.066 126.984L47.8602 128.013L48.2119 128.141L48.4869 129.214L48.398 130.553L48.5551 130.763L48.4561 130.646L48.4704 131.087L48.2243 131.347L48.491 131.3L48.3771 131.153L48.2123 131.342" stroke="black" stroke-width="1.5" stroke-linecap="round" stroke-linejoin="round"/>
<path d="M54.4882 120.885L49.6621 132.605" stroke="black" stroke-width="1.25" stroke-linecap="round" stroke-linejoin="round"/>
<path d="M54.7227 117.536L60.2382 131.325" stroke="black" stroke-width="1.25" stroke-linecap="round" stroke-linejoin="round"/>
<path d="M54.4883 129.158H60.6933" stroke="black" stroke-width="1.25" stroke-linecap="round" stroke-linejoin="round"/>
<path d="M55.7792 120.712L50.9531 132.433" stroke="black" stroke-width="1.25" stroke-linecap="round" stroke-linejoin="round"/>
<path d="M56.0117 117.364L61.5272 131.153" stroke="black" stroke-width="1.25" stroke-linecap="round" stroke-linejoin="round"/>
<path d="M55.7773 128.986H61.9822" stroke="black" stroke-width="1.25" stroke-linecap="round" stroke-linejoin="round"/>
<path d="M67.1484 117.401L67.4149 117.739L68.6525 117.67L69.5551 116.97L70.9247 117.31L72.4947 117.18L72.6849 117.528L73.6159 117.685L73.7776 118.062L74.1904 118.206L74.1043 118.488L75.4633 118.959L75.6679 119.479L75.9656 119.584L75.7611 119.77L76.4161 120.09L76.2323 120.428L76.5442 120.467L76.5537 120.803L76.2872 120.964L76.3832 121.792L76.0804 122.381L75.4777 122.79L75.7356 123.103L75.0756 123.323L75.1486 123.464L73.6636 124.063L72.5802 124.127L72.0568 124.366L72.2487 124.433L70.5259 124.977L70.3386 124.832L70.4998 124.794L69.1578 124.933L69.2379 125.069L68.5379 125.098L68.6675 125.289L68.1236 125.169L68.5156 125.02L68.7727 125.203" stroke="black" stroke-width="1.5" stroke-linecap="round" stroke-linejoin="round"/>
<path d="M66.1953 116.604V133.183" stroke="black" stroke-width="1.5" stroke-linecap="round" stroke-linejoin="round"/>
<path d="M68.7715 117.799L69.0379 118.138L70.2756 118.069L71.1781 117.369L72.5477 117.708L74.1177 117.578L74.3079 117.927L75.2389 118.084L75.4007 118.46L75.8135 118.604L75.7273 118.886L77.0863 119.357L77.2909 119.877L77.5887 119.982L77.3841 120.169L78.0392 120.488L77.8554 120.827L78.1672 120.866L78.1767 121.202L77.9102 121.362L78.0062 122.191L77.7034 122.779L77.1007 123.188L77.3586 123.502L76.6987 123.722L76.7716 123.863L75.2866 124.462L74.2032 124.525L73.6799 124.765L73.8718 124.831L72.1489 125.375L71.9616 125.231L72.1229 125.192L70.7809 125.331L70.861 125.467L70.1609 125.497L70.2906 125.687L69.7467 125.567L70.1386 125.418L70.3957 125.601" stroke="black" stroke-width="1.5" stroke-linecap="round" stroke-linejoin="round"/>
<path d="M67.8184 117.002V133.582" stroke="black" stroke-width="1.5" stroke-linecap="round" stroke-linejoin="round"/>
<path d="M39.0977 134.414L49.6002 146.532" stroke="black" stroke-width="1.5" stroke-linecap="round" stroke-linejoin="round"/>
<path d="M40.7129 148.148L47.9838 135.222" stroke="black" stroke-width="1.5" stroke-linecap="round" stroke-linejoin="round"/>
</svg>
