<svg width="140" height="110" viewBox="0 0 140 110" fill="none" xmlns="http://www.w3.org/2000/svg">
<path d="M139 1.96191V109.62" stroke="black" stroke-width="0.720124" stroke-linecap="round" stroke-linejoin="round"/>
<path d="M1 2.05469H138.351" stroke="black" stroke-width="0.720124" stroke-linecap="round" stroke-linejoin="round"/>
<path d="M132.402 9.96826V63.9775" stroke="black" stroke-width="0.720124" stroke-linecap="round" stroke-linejoin="round"/>
<path d="M42.8672 10.3843V64.3935" stroke="black" stroke-width="0.720124" stroke-linecap="round" stroke-linejoin="round"/>
<path d="M41.9824 9.67285H132.718" stroke="black" stroke-width="0.720124" stroke-linecap="round" stroke-linejoin="round"/>
<path d="M41.6719 64.4395H132.407" stroke="black" stroke-width="0.720124" stroke-linecap="round" stroke-linejoin="round"/>
<path d="M74.8535 18.7236V23.9993" stroke="black" stroke-width="0.630108" stroke-linecap="round" stroke-linejoin="round"/>
<path d="M71.6857 18.9807L71.2223 18.9429L70.7521 19.2316L70.1771 19.8412L70.1324 20.0832L69.813 20.5498L69.6568 21.2447L69.386 21.6505L69.3968 22.1579L69.2949 22.474L69.4155 22.8459L69.3392 23.0652L69.6492 23.2146L69.7392 23.3371L69.6957 23.453L69.8908 23.6896L70.4579 23.8642L71.1464 23.9096L71.546 23.8257L72.1488 23.5171L72.2093 23.2809L72.5571 23.0252L72.8228 22.6421L72.7789 22.2904L72.9982 21.7625L73.0529 21.3423L72.7054 20.8973L72.6838 20.619L72.3112 20.2056L72.0624 19.4765L71.4999 19.2234L71.4157 19.2644" stroke="black" stroke-width="0.630108" stroke-linecap="round" stroke-linejoin="round"/>
<path d="M80.9395 19.0581V24.8414" stroke="black" stroke-width="0.630108" stroke-linecap="round" stroke-linejoin="round"/>
<path d="M76.4199 18.0151L80.7554 24.8282" stroke="black" stroke-width="0.630108" stroke-linecap="round" stroke-linejoin="round"/>
<path d="M76.9941 19.4561V24.7317" stroke="black" stroke-width="0.630108" stroke-linecap="round" stroke-linejoin="round"/>
<path d="M86.6946 18.4065L86.7104 18.3223L86.5182 18.4893L85.6 18.4324L85.308 18.5408L85.268 18.6474L84.4309 18.7126L84.1428 18.8825L83.9095 19.195L83.8699 19.5594L83.2772 20.1089L83.1073 20.4124L83.0904 20.8701L82.793 21.7879L82.9978 21.9794L83.022 22.5962L83.2855 23.0326L83.2175 23.0852L83.3989 23.1604L83.4807 23.4744L83.8706 23.6767L83.7622 23.7664L84.1425 23.9832L84.5069 23.9903L85.6194 24.3414L86.1243 24.2564L86.3813 24.098L87.2253 24.0278L87.4856 23.8366L87.4396 23.9191" stroke="black" stroke-width="0.630108" stroke-linecap="round" stroke-linejoin="round"/>
<path d="M84.7969 21.9238H87.5838" stroke="black" stroke-width="0.630108" stroke-linecap="round" stroke-linejoin="round"/>
<path d="M87.584 22.5425V27.4973" stroke="black" stroke-width="0.630108" stroke-linecap="round" stroke-linejoin="round"/>
<path d="M54.7852 19.0083V24.7916" stroke="black" stroke-width="0.630108" stroke-linecap="round" stroke-linejoin="round"/>
<path d="M50.2656 17.9648L54.6011 24.7779" stroke="black" stroke-width="0.630108" stroke-linecap="round" stroke-linejoin="round"/>
<path d="M50.8418 19.4058V24.6814" stroke="black" stroke-width="0.630108" stroke-linecap="round" stroke-linejoin="round"/>
<path d="M47.6701 19.6628L47.2064 19.625L46.7361 19.9138L46.1615 20.523L46.1164 20.7653L45.7974 21.232L45.6412 21.9265L45.37 22.3323L45.3808 22.84L45.2793 23.1558L45.3996 23.5277L45.3232 23.7473L45.6336 23.8968L45.7236 24.0188L45.68 24.1351L45.8752 24.3717L46.4419 24.546L47.1307 24.5917L47.53 24.5078L48.1331 24.1992L48.1933 23.9627L48.5415 23.7074L48.8068 23.3243L48.7633 22.9725L48.9822 22.4446L49.0373 22.0245L48.6894 21.5794L48.6678 21.3007L48.2952 20.8874L48.0467 20.1583L47.484 19.9051L47.4001 19.9462" stroke="black" stroke-width="0.630108" stroke-linecap="round" stroke-linejoin="round"/>
<path d="M66.7219 18.6184L66.7378 18.5342L66.5455 18.7016L65.6277 18.6447L65.3353 18.7527L65.2954 18.8597L64.4582 18.9248L64.1702 19.0944L63.9369 19.4073L63.8973 19.7717L63.305 20.3212L63.1347 20.6243L63.1177 21.0823L62.8203 22.0001L63.0252 22.1917L63.0493 22.8085L63.3129 23.2449L63.2452 23.2974L63.4263 23.3727L63.5084 23.6867L63.898 23.889L63.7896 23.9783L64.1702 24.1951L64.5342 24.2026L65.6472 24.5533L66.1516 24.4687L66.4087 24.3103L67.253 24.2401L67.513 24.0489L67.4669 24.1313" stroke="black" stroke-width="0.630108" stroke-linecap="round" stroke-linejoin="round"/>
<path d="M64.8164 22.1353H67.6036" stroke="black" stroke-width="0.630108" stroke-linecap="round" stroke-linejoin="round"/>
<path d="M67.6055 22.7549V27.7097" stroke="black" stroke-width="0.630108" stroke-linecap="round" stroke-linejoin="round"/>
<path d="M103.156 20.2624L102.693 20.2246L102.222 20.5134L101.648 21.123L101.603 21.3649L101.284 21.8316L101.127 22.5261L100.857 22.9319L100.868 23.4396L100.766 23.7554L100.886 24.1273L100.81 24.347L101.12 24.4964L101.21 24.6184L101.166 24.7347L101.362 24.9713L101.928 25.1456L102.617 25.1913L103.017 25.1074L103.619 24.7988L103.68 24.5626L104.028 24.307L104.294 23.9239L104.25 23.5721L104.469 23.0443L104.524 22.6241L104.176 22.179L104.155 21.9003L103.781 21.487L103.533 20.7582L102.971 20.5051L102.886 20.5458" stroke="black" stroke-width="0.630108" stroke-linecap="round" stroke-linejoin="round"/>
<path d="M99.5266 19.4778L99.5425 19.3936L99.3502 19.5606L98.432 19.5037L98.14 19.6121L98.1001 19.7187L97.2629 19.7839L96.9749 19.9538L96.7415 20.2663L96.7019 20.6307L96.1096 21.1802L95.9393 21.4837L95.9224 21.9413L95.625 22.8595L95.8299 23.0507L95.854 23.6675L96.1176 24.1039L96.0499 24.1565L96.231 24.2317L96.3127 24.5457L96.7027 24.748L96.5943 24.8377L96.9745 25.0544L97.3389 25.0616L98.4515 25.4127L98.9563 25.3277L99.2134 25.1693L100.058 25.0991L100.318 24.9079L100.272 24.9904" stroke="black" stroke-width="0.630108" stroke-linecap="round" stroke-linejoin="round"/>
<path d="M113.044 20.9321L112.109 20.9897L112.481 20.9368L112.387 20.9404L112.459 21.0077L112.332 21.0927L112.445 21.2313L112.323 21.3296L112.551 21.6749L112.627 22.0685L112.555 22.3112L112.682 23.5498L112.457 24.2393L112.435 25.2086L112.62 25.3901L112.829 24.9137" stroke="black" stroke-width="0.630108" stroke-linecap="round" stroke-linejoin="round"/>
<path d="M113.134 20.4447L113.057 20.3435L113.1 19.7659L113.033 19.668L113.496 19.0836L113.752 18.9058L114.22 18.7769L114.772 18.9L115.28 19.3972L115.427 20.0238L115.048 21.0283L114.065 22.1571L113.642 22.2741L113.811 22.1859L114.139 22.3141L114.779 22.9237L115.205 23.745L115.575 24.1879L115.64 24.9264L115.859 25.4693L115.944 25.3854L115.879 25.3681" stroke="black" stroke-width="0.630108" stroke-linecap="round" stroke-linejoin="round"/>
<path d="M109.613 19.8501V25.6334" stroke="black" stroke-width="0.630108" stroke-linecap="round" stroke-linejoin="round"/>
<path d="M105.889 19.7231V24.9988" stroke="black" stroke-width="0.630108" stroke-linecap="round" stroke-linejoin="round"/>
<path d="M106.824 24.6274H108.992" stroke="black" stroke-width="0.630108" stroke-linecap="round" stroke-linejoin="round"/>
<path d="M121.315 19.1092L121.042 19.1099L120.748 18.8968L120.423 18.8936L119.894 19.1395L119.256 19.8729L119.124 20.229L119.271 20.2967L119.106 20.7137L119.571 21.6992L120.626 21.9519L120.956 22.3102L121.067 22.6454L120.957 22.6648L121.087 22.7397L121.126 23.1142L121.07 23.7886L120.9 23.9809L120.972 24.1854L120.656 24.5091L120.614 24.7013L120.474 24.8115L120.53 24.8526L119.709 25.088L118.735 25.0387L118.306 24.7968L118.195 24.8731" stroke="black" stroke-width="0.630108" stroke-linecap="round" stroke-linejoin="round"/>
<path d="M123.846 18.709L123.316 18.8141L123.299 18.7342L123.507 18.7396L123.357 18.7814L123.31 18.9538L123.227 18.849L123.423 18.8656L123.276 18.7486L123.09 18.8804L123.273 18.9113L123.165 19.1054L123.25 20.1165L123.17 21.2341L123.35 22.0021L123.213 22.759L123.292 23.1435L123.189 23.3196L123.233 24.5247L123.491 24.6356L123.343 24.8199L123.514 24.9503L123.308 24.9773L123.449 25.0414L123.367 25.0518L123.429 24.9218L123.283 24.8498L123.345 24.7332L123.248 24.8095L123.452 24.8149L123.247 24.7944L123.392 24.8466L123.288 24.8369L123.379 24.8977L123.211 24.9528L123.346 24.982L123.247 25.0173L123.468 24.9672L123.298 25.0093L123.4 24.978L123.371 24.91L123.343 25.0061L123.272 24.978L123.464 24.9773L123.261 24.978L123.436 24.9236L123.315 24.9229L123.448 24.8981L123.375 24.7591L123.347 24.9208L123.221 24.8318" stroke="black" stroke-width="0.630108" stroke-linecap="round" stroke-linejoin="round"/>
<path d="M123.346 18.9009H127.062" stroke="black" stroke-width="0.630108" stroke-linecap="round" stroke-linejoin="round"/>
<path d="M123.758 24.6567H127.474" stroke="black" stroke-width="0.630108" stroke-linecap="round" stroke-linejoin="round"/>
<path d="M123.535 21.4829H125.831" stroke="black" stroke-width="0.630108" stroke-linecap="round" stroke-linejoin="round"/>
<path d="M84.666 30.8975V42.4194" stroke="black" stroke-width="0.720124" stroke-linecap="round" stroke-linejoin="round"/>
<path d="M85.7441 30.8975L94.3856 37.3786" stroke="black" stroke-width="0.720124" stroke-linecap="round" stroke-linejoin="round"/>
<path d="M85.3848 44.9398L94.0262 38.0986" stroke="black" stroke-width="0.720124" stroke-linecap="round" stroke-linejoin="round"/>
<path d="M43.4043 98.2642H134.14" stroke="black" stroke-width="0.720124" stroke-linecap="round" stroke-linejoin="round"/>
<path d="M133.436 76.1602V99.9343" stroke="black" stroke-width="0.720124" stroke-linecap="round" stroke-linejoin="round"/>
<path d="M43.0605 77.4102V99.0409" stroke="black" stroke-width="0.720124" stroke-linecap="round" stroke-linejoin="round"/>
<path d="M44.1406 98.2474L70.7852 77.3638" stroke="black" stroke-width="0.720124" stroke-linecap="round" stroke-linejoin="round"/>
<path d="M72.3496 77.1328V97.6563" stroke="black" stroke-width="0.720124" stroke-linecap="round" stroke-linejoin="round"/>
<path d="M73.5664 97.6497L100.211 76.7661" stroke="black" stroke-width="0.720124" stroke-linecap="round" stroke-linejoin="round"/>
<path d="M101.773 76.5342V97.0577" stroke="black" stroke-width="0.720124" stroke-linecap="round" stroke-linejoin="round"/>
<path d="M101.746 97.5789L128.391 76.6953" stroke="black" stroke-width="0.720124" stroke-linecap="round" stroke-linejoin="round"/>
<path d="M129.953 76.4644V96.9879" stroke="black" stroke-width="0.720124" stroke-linecap="round" stroke-linejoin="round"/>
<path d="M122.207 84.0508L126.507 88.351" stroke="black" stroke-width="0.630108" stroke-linecap="round" stroke-linejoin="round"/>
<path d="M127.102 88.2314L122.213 93.3648" stroke="black" stroke-width="0.630108" stroke-linecap="round" stroke-linejoin="round"/>
<path d="M122.098 83.9966L126.398 88.2968" stroke="black" stroke-width="0.630108" stroke-linecap="round" stroke-linejoin="round"/>
<path d="M126.996 88.1763L122.107 93.3097" stroke="black" stroke-width="0.630108" stroke-linecap="round" stroke-linejoin="round"/>
<path d="M44.7402 76.8052H133.183" stroke="black" stroke-width="0.720124" stroke-linecap="round" stroke-linejoin="round"/>
<path d="M58.756 67.1167L57.9563 67.202L58.307 67.3651L57.9844 68.5119L58.0049 69.3235L57.8713 69.4672L57.7266 70.1059L58.0348 71.0172L57.7899 71.3067L58.0128 72.3898L57.8166 72.6825L58.0316 73.1261L57.9397 73.2367L58.0225 73.2543L57.8695 73.2698L57.9347 73.3242L57.8159 73.4455L58.1496 73.6716L57.898 73.83L57.9689 74.103L57.7244 74.1368L57.9329 74.0817L57.8771 74.0374L58.1198 73.8815L58.0406 73.8733L58.1637 73.8743L57.9181 74.0036L57.8828 73.8833L58.2008 73.9251L57.8901 73.9345L57.8422 74L57.9747 74.0364L57.8393 74.0101L57.9531 73.9679L57.8342 74.0432L57.9099 74.0695L57.8148 74.0454L57.9826 74.067L57.8159 74.0353L57.894 73.9723L57.6992 74.0536" stroke="black" stroke-width="0.630108" stroke-linecap="round" stroke-linejoin="round"/>
<path d="M58.5559 67.7363L58.3511 67.7698L58.5001 67.8379L58.3359 67.8627L58.6812 68.1065L58.6841 68.3902L58.9408 68.5962L58.8627 68.6991L58.9408 68.8381L59.3686 69.0455L59.8338 69.9158L60.4689 70.691L60.4718 70.8289L60.78 70.8617L61.0065 71.037L61.2452 70.8419L61.0022 70.8213L61.0969 70.7688" stroke="black" stroke-width="0.630108" stroke-linecap="round" stroke-linejoin="round"/>
<path d="M62.9197 67.8281L62.4052 68.1288L62.4487 68.2656L61.8147 69.3487L61.3678 70.4378L61.0409 70.8127L61.1007 70.9369L60.9354 71.1295L60.8047 71.0788L60.9368 71.1706" stroke="black" stroke-width="0.630108" stroke-linecap="round" stroke-linejoin="round"/>
<path d="M63.1875 67.6606V72.7224" stroke="black" stroke-width="0.630108" stroke-linecap="round" stroke-linejoin="round"/>
<path d="M66.254 67.8853L65.4544 67.9706L65.8051 68.1333L65.4824 69.2805L65.503 70.0921L65.3694 70.2357L65.2246 70.8745L65.5328 71.7858L65.288 72.0753L65.5109 73.1584L65.3147 73.4511L65.5296 73.8947L65.4378 74.0052L65.5206 74.0229L65.3676 74.0384L65.4328 74.0927L65.3139 74.2141L65.6477 74.4398L65.396 74.5982L65.4666 74.8715L65.2225 74.9054L65.431 74.8503L65.3751 74.806L65.6175 74.6501L65.5386 74.6418L65.6617 74.6429L65.4162 74.7722L65.3809 74.6519L65.6988 74.6937L65.3881 74.703L65.3402 74.7686L65.4727 74.8049L65.3373 74.7786L65.4511 74.7365L65.3323 74.8114L65.4079 74.838L65.3129 74.8139L65.4806 74.8355L65.3139 74.8038L65.3921 74.7408L65.1973 74.8218" stroke="black" stroke-width="0.630108" stroke-linecap="round" stroke-linejoin="round"/>
<path d="M66.052 68.5049L65.8472 68.5384L65.9962 68.6064L65.832 68.6313L66.1773 68.875L66.1802 69.1588L66.4369 69.3647L66.3588 69.4677L66.4369 69.6067L66.8647 69.8141L67.3299 70.6843L67.965 71.4595L67.9679 71.5975L68.2761 71.6302L68.5026 71.8056L68.7413 71.6101L68.4983 71.5899L68.593 71.5373" stroke="black" stroke-width="0.630108" stroke-linecap="round" stroke-linejoin="round"/>
<path d="M70.4099 68.5967L69.8954 68.8973L69.939 69.0342L69.3049 70.1172L68.8581 71.2064L68.5311 71.5812L68.5909 71.7055L68.4256 71.8981L68.2949 71.8469L68.4271 71.9391" stroke="black" stroke-width="0.630108" stroke-linecap="round" stroke-linejoin="round"/>
<path d="M70.6797 68.4307V73.4924" stroke="black" stroke-width="0.630108" stroke-linecap="round" stroke-linejoin="round"/>
<path d="M83.8047 67.7993V73.7072" stroke="black" stroke-width="0.630108" stroke-linecap="round" stroke-linejoin="round"/>
<path d="M79.1914 66.7358L83.6202 73.6955" stroke="black" stroke-width="0.630108" stroke-linecap="round" stroke-linejoin="round"/>
<path d="M79.7734 68.2065V73.596" stroke="black" stroke-width="0.630108" stroke-linecap="round" stroke-linejoin="round"/>
<path d="M87.0586 67.8047V74.1184" stroke="black" stroke-width="0.720124" stroke-linecap="round" stroke-linejoin="round"/>
<path d="M91.4375 68.1357V73.8301" stroke="black" stroke-width="0.630108" stroke-linecap="round" stroke-linejoin="round"/>
<path d="M50.3586 67.7281L50.3748 67.6421L50.1785 67.8131L49.2406 67.7548L48.9421 67.8653L48.9014 67.9744L48.0463 68.041L47.7517 68.2146L47.5137 68.534L47.473 68.9063L46.8678 69.4672L46.6942 69.7773L46.6766 70.245L46.373 71.1826L46.5822 71.3784L46.6067 72.0086L46.8761 72.4543L46.8069 72.508L46.992 72.5847L47.0755 72.9055L47.4738 73.1121L47.3632 73.2036L47.7517 73.425L48.1237 73.4326L49.2604 73.7909L49.776 73.7041L50.0388 73.5424L50.9012 73.4708L51.1665 73.2756L51.1197 73.3599" stroke="black" stroke-width="0.630108" stroke-linecap="round" stroke-linejoin="round"/>
<path d="M96.4693 68.6539L96.478 68.4396L96.1953 68.2207L96.4938 68.4569L96.3681 68.512L96.4538 68.5955L96.4261 68.7903L96.685 68.9509L96.932 69.4233L97.2669 70.4383L97.2129 70.6097L97.6583 71.1404L97.6813 71.2272L97.5808 71.2481L97.8311 71.3486L97.7483 71.4144L98.0035 71.9167L98.2145 72.0683L98.1173 72.1173L98.3247 72.131L98.0561 72.1234L98.2563 72.1267L98.072 72.1285L98.212 72.1378L98.0194 72.401L98.2455 72.4284L98.0709 72.4075L98.0914 72.6037" stroke="black" stroke-width="0.630108" stroke-linecap="round" stroke-linejoin="round"/>
<path d="M97.7421 74.4131L97.2106 74.4138L97.2722 74.5881L97.0083 74.942L96.8711 74.9499L97.0241 74.8419L96.9359 74.7706L97.1177 74.7242L97.5423 73.7567L98.5195 72.4234L98.626 71.9953L99.0671 71.5747L99.5705 70.5845L99.9338 70.2572L99.9831 70.0765L100.582 69.6739L100.461 69.6426L100.479 69.4781L100.702 69.4572L100.585 69.3992L100.83 69.3178L100.594 69.2735L100.966 69.0618L100.896 69.0298L100.87 69.1839L100.802 69.1176L100.969 69.1857L100.831 69.2048L100.838 69.1331L100.927 69.186L100.719 69.2663L100.982 69.2253L100.813 69.2051L100.956 69.253L100.933 69.1796L100.79 69.2703L100.859 69.2386L100.802 69.3308L100.9 69.2984L100.841 69.2595L100.816 69.3438L100.889 69.3398L100.807 69.2465L100.876 69.2091L100.954 69.2509L100.785 69.2753L100.876 69.3402L100.771 69.3056L100.879 69.3376L100.777 69.3297L100.917 69.5422L100.813 69.5L100.907 69.4928L100.779 69.5328L100.906 69.5922L100.792 69.5832L100.967 69.5148L100.832 69.5011L100.937 69.4777L100.768 69.3204L100.917 69.3466L100.736 69.3348L100.925 69.2609L100.753 69.1382L100.863 69.0431L100.746 69.1709L100.858 69.1558L100.789 69.1338L100.879 69.0651L100.65 69.1158L100.843 69.1335L100.761 69.1346L100.801 69.3564L100.692 69.5191" stroke="black" stroke-width="0.630108" stroke-linecap="round" stroke-linejoin="round"/>
<path d="M77.1172 68.3252V74.2334" stroke="black" stroke-width="0.630108" stroke-linecap="round" stroke-linejoin="round"/>
<path d="M73.3105 68.1963V73.5857" stroke="black" stroke-width="0.630108" stroke-linecap="round" stroke-linejoin="round"/>
<path d="M73.7031 73.9692H75.9175" stroke="black" stroke-width="0.630108" stroke-linecap="round" stroke-linejoin="round"/>
<path d="M88.3594 68.1973H94.0538" stroke="black" stroke-width="0.630108" stroke-linecap="round" stroke-linejoin="round"/>
<path d="M54.4325 68.9873L53.9576 68.9775L53.496 69.3012L52.9476 69.958L52.9167 70.2079L52.6203 70.7033L52.5037 71.4213L52.2527 71.8519L52.2952 72.3686L52.2109 72.697L52.3568 73.0689L52.2923 73.2976L52.6182 73.4308L52.7175 73.5496L52.6801 73.6709L52.894 73.8999L53.4827 74.0429L54.1877 74.0465L54.5899 73.9363L55.1854 73.5845L55.2326 73.3397L55.5714 73.0574L55.8184 72.6505L55.7521 72.2944L55.9426 71.7428L55.9729 71.3111L55.5908 70.8787L55.5516 70.596L55.1458 70.1974L54.8473 69.4697L54.2579 69.2461L54.1747 69.2933" stroke="black" stroke-width="0.630108" stroke-linecap="round" stroke-linejoin="round"/>
<path d="M13.3066 29.2778V34.7609" stroke="black" stroke-width="0.630108" stroke-linecap="round" stroke-linejoin="round"/>
<path d="M9.77734 29.1567V34.1584" stroke="black" stroke-width="0.630108" stroke-linecap="round" stroke-linejoin="round"/>
<path d="M10.1426 34.5151H12.1978" stroke="black" stroke-width="0.630108" stroke-linecap="round" stroke-linejoin="round"/>
<path d="M17.813 29.127L17.5538 29.1277L17.2751 28.9261L16.9676 28.9229L16.4657 29.1558L15.8608 29.8511L15.7351 30.1888L15.8752 30.2533L15.7193 30.6483L16.16 31.583L17.1602 31.8224L17.4724 32.162L17.5783 32.4799L17.4731 32.4983L17.597 32.5696L17.6341 32.9242L17.5811 33.5637L17.4198 33.7459L17.4875 33.94L17.1876 34.2471L17.1483 34.4293L17.0155 34.5337L17.0684 34.5726L16.2903 34.7955L15.3675 34.749L14.9599 34.5197L14.8555 34.592" stroke="black" stroke-width="0.630108" stroke-linecap="round" stroke-linejoin="round"/>
<path d="M20.211 28.7471L19.7087 28.8468L19.6925 28.7708L19.8898 28.7759L19.7476 28.8158L19.703 28.9793L19.6248 28.8799L19.8103 28.8958L19.6706 28.7849L19.4941 28.9095L19.6677 28.939L19.5654 29.123L19.6457 30.0818L19.5705 31.1415L19.7408 31.8695L19.6108 32.5871L19.6861 32.9519L19.5888 33.1186L19.6302 34.2611L19.8747 34.3662L19.7343 34.5412L19.8963 34.6643L19.7008 34.6903L19.8351 34.7511L19.7574 34.7608L19.8164 34.6377L19.6774 34.5693L19.7365 34.4587L19.6447 34.5311L19.8373 34.5365L19.6436 34.5171L19.7811 34.566L19.6817 34.557L19.7681 34.615L19.609 34.6668L19.7372 34.6946L19.6436 34.7281L19.8524 34.6805L19.6922 34.7209L19.7887 34.6906L19.7606 34.6265L19.7347 34.7176L19.6673 34.691L19.8492 34.6903L19.6562 34.6906L19.8229 34.6391L19.7073 34.6388L19.8344 34.615L19.7649 34.4832L19.7386 34.6366L19.6184 34.5524" stroke="black" stroke-width="0.630108" stroke-linecap="round" stroke-linejoin="round"/>
<path d="M19.7363 28.9292H23.2599" stroke="black" stroke-width="0.630108" stroke-linecap="round" stroke-linejoin="round"/>
<path d="M20.1289 34.3877H23.6525" stroke="black" stroke-width="0.630108" stroke-linecap="round" stroke-linejoin="round"/>
<path d="M19.9219 31.3794H22.0992" stroke="black" stroke-width="0.630108" stroke-linecap="round" stroke-linejoin="round"/>
<path d="M25.2139 30.605L24.3281 30.6594L24.6806 30.6093L24.5921 30.6129L24.6594 30.6766L24.5388 30.7573L24.6471 30.8883L24.5308 30.9816L24.7472 31.3093L24.8189 31.6823L24.7505 31.9124L24.8711 33.0869L24.6583 33.7404L24.6363 34.6593L24.812 34.8317L25.0112 34.3799" stroke="black" stroke-width="0.630108" stroke-linecap="round" stroke-linejoin="round"/>
<path d="M25.2989 30.1424L25.2258 30.0463L25.2669 29.4986L25.2031 29.4057L25.6413 28.8516L25.8847 28.6831L26.328 28.561L26.8519 28.6777L27.3336 29.149L27.4726 29.7431L27.114 30.6955L26.1811 31.7659L25.7799 31.8768L25.9405 31.7933L26.2516 31.9147L26.8587 32.4926L27.2623 33.271L27.6134 33.6912L27.6742 34.3912L27.882 34.906L27.963 34.8265L27.9014 34.8099" stroke="black" stroke-width="0.630108" stroke-linecap="round" stroke-linejoin="round"/>
<path d="M11.7569 40.2148L10.8711 40.2696L11.2236 40.2195L11.135 40.2228L11.2024 40.2865L11.0817 40.3672L11.1901 40.4986L11.0738 40.5918L11.2899 40.9195L11.3619 41.2925L11.2935 41.5226L11.4141 42.6968L11.2013 43.3503L11.1793 44.2695L11.355 44.4416L11.5541 43.9901" stroke="black" stroke-width="0.630108" stroke-linecap="round" stroke-linejoin="round"/>
<path d="M11.8497 39.7528L11.7766 39.6566L11.8176 39.109L11.7539 39.0161L12.1921 38.4623L12.4355 38.2934L12.8787 38.1714L13.4026 38.288L13.8844 38.7594L14.0234 39.3535L13.6644 40.3058L12.7318 41.3763L12.3307 41.4872L12.4913 41.4037L12.8024 41.525L13.4095 42.1029L13.8131 42.8817L14.1642 43.3016L14.225 44.0019L14.4328 44.5164L14.5138 44.4368L14.4522 44.4206" stroke="black" stroke-width="0.630108" stroke-linecap="round" stroke-linejoin="round"/>
<path d="M18.5528 39.1983L18.4614 39.2401L18.0599 38.9254L17.8259 38.974L16.8159 39.7208L16.615 40.1284L16.4011 40.2242L15.9104 40.8373L15.982 41.2971L15.8438 41.7775L16.0382 42.2805L15.9928 42.5844L16.0677 42.7856L16.6687 43.6473L17.1162 43.998L17.2923 44.0837L17.729 43.9432L18.7473 42.9934L19.3507 41.0033L19.2431 40.0358L19.0141 39.6571L18.7069 39.4615L18.3581 38.9632L17.3866 38.6035L16.5905 38.8473L16.3201 39.1713L16.2081 39.6103L15.8672 40.2389" stroke="black" stroke-width="0.630108" stroke-linecap="round" stroke-linejoin="round"/>
<path d="M21.8028 39.1699L21.3002 39.2697L21.2843 39.1937L21.4813 39.1987L21.3391 39.2387L21.2944 39.4022L21.2167 39.3028L21.4017 39.3186L21.262 39.2077L21.0859 39.3323L21.2591 39.3618L21.1572 39.5458L21.2375 40.5047L21.1619 41.5643L21.3326 42.2924L21.2022 43.01L21.2775 43.3747L21.1803 43.5414L21.2217 44.6839L21.4662 44.7894L21.3257 44.964L21.4878 45.0872L21.2926 45.1131L21.4266 45.1739L21.3491 45.1837L21.4078 45.0605L21.2692 44.9921L21.3279 44.8816L21.2361 44.954L21.4291 44.9594L21.235 44.9399L21.3729 44.9889L21.2732 44.9799L21.3596 45.0378L21.2008 45.0897L21.3286 45.1174L21.235 45.1509L21.4442 45.1034L21.2836 45.1437L21.3801 45.1135L21.352 45.0494L21.3261 45.1405L21.2588 45.1138L21.4406 45.1131L21.2476 45.1135L21.4143 45.062L21.2987 45.0616L21.4262 45.0378L21.3564 44.9061L21.3301 45.0595L21.2098 44.9752" stroke="black" stroke-width="0.630108" stroke-linecap="round" stroke-linejoin="round"/>
<path d="M21.3262 39.353H24.8494" stroke="black" stroke-width="0.630108" stroke-linecap="round" stroke-linejoin="round"/>
<path d="M21.5059 41.8018H23.6832" stroke="black" stroke-width="0.630108" stroke-linecap="round" stroke-linejoin="round"/>
<path d="M26.873 38.6118V45.0713" stroke="black" stroke-width="0.630108" stroke-linecap="round" stroke-linejoin="round"/>
<path d="M29.9489 39.1938L29.4467 39.2936L29.4308 39.2176L29.6278 39.2226L29.4855 39.2626L29.4409 39.4261L29.3628 39.3267L29.5482 39.3426L29.4085 39.2317L29.2324 39.3562L29.4056 39.3858L29.3034 39.5698L29.384 40.5286L29.3084 41.5883L29.4787 42.3163L29.3487 43.0339L29.424 43.3987L29.3268 43.5654L29.3682 44.7078L29.6126 44.8133L29.4722 44.988L29.6342 45.1115L29.4387 45.137L29.573 45.1979L29.4956 45.2076L29.5543 45.0845L29.4153 45.0161L29.4744 44.9055L29.3826 44.9779L29.5756 44.9833L29.3815 44.9638L29.519 45.0128L29.4197 45.0038L29.5061 45.0618L29.3473 45.1136L29.4751 45.1413L29.3815 45.1748L29.5907 45.1273L29.4301 45.1676L29.5266 45.1374L29.4985 45.0733L29.4726 45.1644L29.4052 45.1377L29.5871 45.137L29.3941 45.1374L29.5608 45.0859L29.4452 45.0855L29.5723 45.0618L29.5028 44.93L29.4765 45.0834L29.3563 44.9991" stroke="black" stroke-width="0.630108" stroke-linecap="round" stroke-linejoin="round"/>
<path d="M29.8613 44.835H33.3845" stroke="black" stroke-width="0.630108" stroke-linecap="round" stroke-linejoin="round"/>
<path d="M35.1583 39.2515L34.656 39.3512L34.6398 39.2756L34.8371 39.2806L34.6949 39.3202L34.6502 39.4841L34.5721 39.3843L34.7575 39.4002L34.6178 39.2893L34.4414 39.4138L34.615 39.4434L34.5127 39.6274L34.593 40.5862L34.5177 41.6459L34.688 42.3739L34.5581 43.0915L34.6333 43.4563L34.5361 43.623L34.5775 44.7654L34.8216 44.8709L34.6816 45.0456L34.8436 45.1691L34.6481 45.1946L34.7824 45.2555L34.7046 45.2656L34.7633 45.1421L34.6247 45.0737L34.6837 44.9635L34.5919 45.0355L34.7845 45.0409L34.5908 45.0215L34.7284 45.0708L34.629 45.0618L34.7154 45.1194L34.5563 45.1716L34.6845 45.1993L34.5908 45.2324L34.7997 45.1849L34.6394 45.2253L34.7359 45.1954L34.7079 45.1309L34.6819 45.222L34.6146 45.1954L34.7964 45.1946L34.6034 45.1954L34.7702 45.1435L34.6546 45.1432L34.7817 45.1194L34.7122 44.9876L34.6859 45.141L34.5656 45.0567" stroke="black" stroke-width="0.630108" stroke-linecap="round" stroke-linejoin="round"/>
<path d="M34.6777 39.4341H38.2013" stroke="black" stroke-width="0.630108" stroke-linecap="round" stroke-linejoin="round"/>
<path d="M35.0723 44.8926H38.5958" stroke="black" stroke-width="0.630108" stroke-linecap="round" stroke-linejoin="round"/>
<path d="M34.8633 41.8828H37.0406" stroke="black" stroke-width="0.630108" stroke-linecap="round" stroke-linejoin="round"/>
<path d="M2.01367 108.624H137.463" stroke="black" stroke-width="0.720124" stroke-linecap="round" stroke-linejoin="round"/>
<path d="M1.74414 1V107.338" stroke="black" stroke-width="0.720124" stroke-linecap="round" stroke-linejoin="round"/>
<path d="M13.7852 17.1882L13.9004 18.4052L14.2413 19.5793L14.7962 20.6685L15.8343 21.923L16.7999 22.6723L17.8895 23.2271L19.0633 23.5681L20.2803 23.6833L21.4973 23.5681L22.6711 23.2271L23.7603 22.6723L24.7263 21.923L25.5347 21.0059L26.3193 19.5793L26.6602 18.4052L26.7751 17.1882L26.6602 15.9711L26.3193 14.7973L25.5347 13.3704L24.7263 12.4537L23.7603 11.7044L22.6711 11.1492L21.4973 10.8082L20.2803 10.6934L19.0633 10.8082L17.8895 11.1492L16.7999 11.7044L15.8343 12.4537L14.7962 13.7082L14.2413 14.7973L13.9004 15.9711L13.7852 17.1882Z" stroke="black" stroke-width="0.720124" stroke-linecap="round" stroke-linejoin="round"/>
<path d="M5.80273 38.5618L5.90679 38.6936L6.38891 38.6666L6.74034 38.394L7.27395 38.5262L7.8857 38.4754L7.95987 38.6115L8.32244 38.6724L8.38547 38.8193L8.5464 38.8751L8.51293 38.9853L9.04221 39.1685L9.12179 39.3712L9.23809 39.4119L9.15816 39.4847L9.41344 39.6093L9.3418 39.741L9.46348 39.7562L9.46708 39.8872L9.36303 39.9499L9.40047 40.2725L9.28275 40.5018L9.04797 40.661L9.14843 40.7834L8.89135 40.8691L8.91978 40.9238L8.34117 41.1572L7.91882 41.182L7.71504 41.2753L7.78991 41.3012L7.11877 41.5133L7.04568 41.4567L7.10868 41.442L6.58551 41.496L6.61683 41.5493L6.34428 41.5604L6.39467 41.6346L6.1826 41.5882L6.33564 41.5298L6.43572 41.6011" stroke="black" stroke-width="0.630108" stroke-linecap="round" stroke-linejoin="round"/>
<path d="M5.43359 38.2505V44.7096" stroke="black" stroke-width="0.630108" stroke-linecap="round" stroke-linejoin="round"/>
</svg>
