<svg width="386" height="304" viewBox="0 0 386 304" fill="none" xmlns="http://www.w3.org/2000/svg">
<path d="M384.268 3.67188V302.672" stroke="black" stroke-width="2" stroke-linecap="round" stroke-linejoin="round"/>
<path d="M1 3.92773H382.465" stroke="black" stroke-width="2" stroke-linecap="round" stroke-linejoin="round"/>
<path d="M365.939 25.9077V175.908" stroke="black" stroke-width="2" stroke-linecap="round" stroke-linejoin="round"/>
<path d="M117.277 27.064V177.064" stroke="black" stroke-width="2" stroke-linecap="round" stroke-linejoin="round"/>
<path d="M114.814 25.0859H366.814" stroke="black" stroke-width="2" stroke-linecap="round" stroke-linejoin="round"/>
<path d="M113.957 177.192H365.957" stroke="black" stroke-width="2" stroke-linecap="round" stroke-linejoin="round"/>
<path d="M206.109 50.2241V64.8761" stroke="black" stroke-width="1.75" stroke-linecap="round" stroke-linejoin="round"/>
<path d="M197.312 50.937L196.025 50.832L194.719 51.634L193.122 53.327L192.998 53.999L192.111 55.295L191.677 57.225L190.925 58.352L190.955 59.761L190.672 60.639L191.007 61.672L190.795 62.281L191.656 62.696L191.906 63.036L191.785 63.358L192.327 64.015L193.902 64.5L195.814 64.626L196.924 64.393L198.598 63.536L198.766 62.88L199.732 62.17L200.47 61.106L200.348 60.129L200.957 58.663L201.109 57.496L200.144 56.26L200.084 55.487L199.049 54.339L198.358 52.314L196.796 51.611L196.562 51.725" stroke="black" stroke-width="1.75" stroke-linecap="round" stroke-linejoin="round"/>
<path d="M223.014 51.1509V67.2129" stroke="black" stroke-width="1.75" stroke-linecap="round" stroke-linejoin="round"/>
<path d="M210.473 48.2549L222.514 67.1769" stroke="black" stroke-width="1.75" stroke-linecap="round" stroke-linejoin="round"/>
<path d="M212.064 52.2568V66.9088" stroke="black" stroke-width="1.75" stroke-linecap="round" stroke-linejoin="round"/>
<path d="M239.01 49.3429L239.054 49.1089L238.52 49.5729L235.97 49.4149L235.159 49.7159L235.048 50.0119L232.723 50.1929L231.923 50.6649L231.275 51.5329L231.165 52.5449L229.519 54.0709L229.047 54.9139L229 56.1849L228.174 58.7339L228.743 59.2659L228.81 60.9789L229.542 62.1909L229.353 62.3369L229.857 62.5459L230.084 63.4179L231.167 63.9799L230.866 64.2289L231.922 64.8309L232.934 64.8509L236.024 65.8259L237.426 65.5899L238.14 65.1499L240.484 64.9549L241.207 64.4239L241.079 64.6529" stroke="black" stroke-width="1.75" stroke-linecap="round" stroke-linejoin="round"/>
<path d="M233.727 59.1099H241.467" stroke="black" stroke-width="1.75" stroke-linecap="round" stroke-linejoin="round"/>
<path d="M241.467 60.8301V74.5911" stroke="black" stroke-width="1.75" stroke-linecap="round" stroke-linejoin="round"/>
<path d="M150.369 51.0132V67.0752" stroke="black" stroke-width="1.75" stroke-linecap="round" stroke-linejoin="round"/>
<path d="M137.828 48.1167L149.869 67.0387" stroke="black" stroke-width="1.75" stroke-linecap="round" stroke-linejoin="round"/>
<path d="M139.418 52.1191V66.7711" stroke="black" stroke-width="1.75" stroke-linecap="round" stroke-linejoin="round"/>
<path d="M130.622 52.8321L129.334 52.7271L128.028 53.5291L126.432 55.2211L126.307 55.894L125.421 57.1901L124.987 59.119L124.234 60.2461L124.264 61.6561L123.982 62.5331L124.316 63.5661L124.104 64.1761L124.966 64.5911L125.216 64.9301L125.095 65.2531L125.637 65.9101L127.211 66.394L129.124 66.5211L130.233 66.2881L131.908 65.4311L132.075 64.774L133.042 64.0651L133.779 63.0011L133.658 62.024L134.266 60.558L134.419 59.3911L133.453 58.1551L133.393 57.381L132.358 56.2331L131.668 54.2081L130.105 53.5051L129.872 53.619" stroke="black" stroke-width="1.75" stroke-linecap="round" stroke-linejoin="round"/>
<path d="M183.529 49.9308L183.573 49.6968L183.039 50.1618L180.49 50.0038L179.678 50.3038L179.567 50.6008L177.242 50.7818L176.442 51.2528L175.794 52.1218L175.684 53.1338L174.039 54.6598L173.566 55.5018L173.519 56.7738L172.693 59.3228L173.262 59.8548L173.329 61.5678L174.061 62.7798L173.873 62.9258L174.376 63.1348L174.604 64.0068L175.686 64.5688L175.385 64.8168L176.442 65.4188L177.453 65.4398L180.544 66.4138L181.945 66.1788L182.659 65.7388L185.004 65.5438L185.726 65.0128L185.598 65.2418" stroke="black" stroke-width="1.75" stroke-linecap="round" stroke-linejoin="round"/>
<path d="M178.244 59.6987H185.985" stroke="black" stroke-width="1.75" stroke-linecap="round" stroke-linejoin="round"/>
<path d="M185.986 61.4189V75.1799" stroke="black" stroke-width="1.75" stroke-linecap="round" stroke-linejoin="round"/>
<path d="M284.714 54.4971L283.427 54.3921L282.12 55.1941L280.524 56.8871L280.4 57.5591L279.513 58.8551L279.079 60.7841L278.327 61.9111L278.357 63.3211L278.074 64.1981L278.409 65.2311L278.196 65.8411L279.058 66.2561L279.308 66.5951L279.187 66.9181L279.729 67.5751L281.303 68.0591L283.216 68.1861L284.326 67.9531L286 67.0961L286.168 66.4401L287.134 65.7301L287.872 64.6661L287.75 63.6891L288.359 62.2231L288.511 61.0561L287.546 59.8201L287.486 59.0461L286.45 57.8981L285.76 55.8741L284.198 55.1711L283.964 55.2841" stroke="black" stroke-width="1.75" stroke-linecap="round" stroke-linejoin="round"/>
<path d="M274.635 52.3199L274.679 52.0859L274.145 52.5499L271.595 52.3919L270.784 52.6929L270.673 52.9889L268.348 53.1699L267.548 53.6419L266.9 54.5099L266.79 55.5219L265.145 57.0479L264.672 57.8909L264.625 59.1619L263.799 61.7119L264.368 62.2429L264.435 63.9559L265.167 65.1679L264.979 65.3139L265.482 65.5229L265.709 66.3949L266.792 66.9569L266.491 67.2059L267.547 67.8079L268.559 67.8279L271.649 68.8029L273.051 68.5669L273.765 68.1269L276.11 67.9319L276.832 67.4009L276.704 67.6299" stroke="black" stroke-width="1.75" stroke-linecap="round" stroke-linejoin="round"/>
<path d="M312.175 56.3569L309.58 56.5169L310.612 56.3699L310.352 56.3799L310.55 56.5669L310.197 56.8029L310.513 57.1879L310.173 57.4609L310.807 58.4199L311.017 59.5129L310.817 60.1869L311.17 63.6269L310.546 65.5419L310.483 68.2339L310.997 68.7379L311.58 67.4149" stroke="black" stroke-width="1.75" stroke-linecap="round" stroke-linejoin="round"/>
<path d="M312.437 55.0021L312.223 54.7211L312.342 53.1171L312.156 52.8451L313.44 51.2221L314.153 50.7281L315.451 50.3701L316.986 50.7121L318.397 52.0931L318.804 53.8331L317.753 56.6231L315.021 59.7581L313.846 60.0831L314.317 59.8381L315.227 60.1941L317.005 61.8871L318.188 64.1681L319.216 65.3981L319.395 67.4491L320.004 68.9571L320.241 68.7241L320.06 68.6761" stroke="black" stroke-width="1.75" stroke-linecap="round" stroke-linejoin="round"/>
<path d="M302.648 53.353V69.415" stroke="black" stroke-width="1.75" stroke-linecap="round" stroke-linejoin="round"/>
<path d="M292.311 53V67.652" stroke="black" stroke-width="1.75" stroke-linecap="round" stroke-linejoin="round"/>
<path d="M294.906 66.623H300.927" stroke="black" stroke-width="1.75" stroke-linecap="round" stroke-linejoin="round"/>
<path d="M335.15 51.2938L334.391 51.2958L333.575 50.7038L332.674 50.6948L331.203 51.3778L329.432 53.4148L329.064 54.4038L329.474 54.5918L329.016 55.7498L330.308 58.4868L333.238 59.1888L334.153 60.1838L334.462 61.1148L334.155 61.1688L334.518 61.3768L334.626 62.4168L334.471 64.2898L333.999 64.8238L334.197 65.3918L333.319 66.2908L333.203 66.8248L332.814 67.1308L332.969 67.2448L330.689 67.8988L327.986 67.7618L326.793 67.0898L326.486 67.3018" stroke="black" stroke-width="1.75" stroke-linecap="round" stroke-linejoin="round"/>
<path d="M342.183 50.1821L340.712 50.4741L340.665 50.2521L341.242 50.2671L340.826 50.3831L340.695 50.8621L340.466 50.5711L341.009 50.6171L340.6 50.2921L340.084 50.6581L340.592 50.7441L340.292 51.2831L340.528 54.0911L340.307 57.1951L340.806 59.3281L340.425 61.4301L340.645 62.4981L340.36 62.9871L340.482 66.3341L341.198 66.6421L340.786 67.1541L341.261 67.5161L340.689 67.5911L341.082 67.7691L340.855 67.7981L341.027 67.4371L340.62 67.2371L340.793 66.9131L340.524 67.1251L341.089 67.1401L340.521 67.0831L340.924 67.2281L340.633 67.2011L340.886 67.3701L340.42 67.5231L340.795 67.6041L340.521 67.7021L341.133 67.5631L340.663 67.6801L340.946 67.5931L340.864 67.4041L340.788 67.6711L340.59 67.5931L341.123 67.5911L340.558 67.5931L341.046 67.4421L340.708 67.4401L341.08 67.3711L340.876 66.9851L340.799 67.4341L340.447 67.1871" stroke="black" stroke-width="1.75" stroke-linecap="round" stroke-linejoin="round"/>
<path d="M340.785 50.7148H351.106" stroke="black" stroke-width="1.75" stroke-linecap="round" stroke-linejoin="round"/>
<path d="M341.936 66.7051H352.257" stroke="black" stroke-width="1.75" stroke-linecap="round" stroke-linejoin="round"/>
<path d="M341.322 57.8882H347.699" stroke="black" stroke-width="1.75" stroke-linecap="round" stroke-linejoin="round"/>
<path d="M233.367 84.0337V116.034" stroke="black" stroke-width="2" stroke-linecap="round" stroke-linejoin="round"/>
<path d="M236.367 84.0337L260.367 102.034" stroke="black" stroke-width="2" stroke-linecap="round" stroke-linejoin="round"/>
<path d="M235.367 123.034L259.367 104.034" stroke="black" stroke-width="2" stroke-linecap="round" stroke-linejoin="round"/>
<path d="M118.762 271.13H370.762" stroke="black" stroke-width="2" stroke-linecap="round" stroke-linejoin="round"/>
<path d="M368.814 209.743V275.771" stroke="black" stroke-width="2" stroke-linecap="round" stroke-linejoin="round"/>
<path d="M117.814 213.214V273.289" stroke="black" stroke-width="2" stroke-linecap="round" stroke-linejoin="round"/>
<path d="M120.814 271.086L194.814 213.086" stroke="black" stroke-width="2" stroke-linecap="round" stroke-linejoin="round"/>
<path d="M199.152 212.444V269.444" stroke="black" stroke-width="2" stroke-linecap="round" stroke-linejoin="round"/>
<path d="M202.539 269.425L276.539 211.425" stroke="black" stroke-width="2" stroke-linecap="round" stroke-linejoin="round"/>
<path d="M280.877 210.782V267.782" stroke="black" stroke-width="2" stroke-linecap="round" stroke-linejoin="round"/>
<path d="M280.807 269.229L354.807 211.229" stroke="black" stroke-width="2" stroke-linecap="round" stroke-linejoin="round"/>
<path d="M359.145 210.586V267.586" stroke="black" stroke-width="2" stroke-linecap="round" stroke-linejoin="round"/>
<path d="M337.631 231.658L349.574 243.601" stroke="black" stroke-width="1.75" stroke-linecap="round" stroke-linejoin="round"/>
<path d="M351.225 243.268L337.646 257.525" stroke="black" stroke-width="1.75" stroke-linecap="round" stroke-linejoin="round"/>
<path d="M337.33 231.506L349.273 243.449" stroke="black" stroke-width="1.75" stroke-linecap="round" stroke-linejoin="round"/>
<path d="M350.924 243.116L337.346 257.373" stroke="black" stroke-width="1.75" stroke-linecap="round" stroke-linejoin="round"/>
<path d="M122.486 211.533H368.119" stroke="black" stroke-width="2" stroke-linecap="round" stroke-linejoin="round"/>
<path d="M161.41 184.626L159.189 184.863L160.163 185.316L159.267 188.501L159.324 190.755L158.953 191.154L158.551 192.928L159.407 195.459L158.727 196.263L159.346 199.271L158.801 200.084L159.398 201.316L159.143 201.623L159.373 201.672L158.948 201.715L159.129 201.866L158.799 202.203L159.726 202.831L159.027 203.271L159.224 204.029L158.545 204.123L159.124 203.97L158.969 203.847L159.643 203.414L159.423 203.391L159.765 203.394L159.083 203.753L158.985 203.419L159.868 203.535L159.005 203.561L158.872 203.743L159.24 203.844L158.864 203.771L159.18 203.654L158.85 203.863L159.06 203.936L158.796 203.869L159.262 203.929L158.799 203.841L159.016 203.666L158.475 203.892" stroke="black" stroke-width="1.75" stroke-linecap="round" stroke-linejoin="round"/>
<path d="M160.847 186.346L160.278 186.439L160.692 186.628L160.236 186.697L161.195 187.374L161.203 188.162L161.916 188.734L161.699 189.02L161.916 189.406L163.104 189.982L164.396 192.399L166.16 194.552L166.168 194.935L167.024 195.026L167.653 195.513L168.316 194.971L167.641 194.914L167.904 194.768" stroke="black" stroke-width="1.75" stroke-linecap="round" stroke-linejoin="round"/>
<path d="M172.966 186.603L171.537 187.438L171.658 187.818L169.897 190.826L168.656 193.851L167.748 194.892L167.914 195.237L167.455 195.772L167.092 195.631L167.459 195.886" stroke="black" stroke-width="1.75" stroke-linecap="round" stroke-linejoin="round"/>
<path d="M173.709 186.139V200.197" stroke="black" stroke-width="1.75" stroke-linecap="round" stroke-linejoin="round"/>
<path d="M182.222 186.761L180.001 186.998L180.975 187.45L180.079 190.636L180.136 192.89L179.765 193.289L179.363 195.063L180.219 197.594L179.539 198.398L180.158 201.406L179.613 202.219L180.21 203.451L179.955 203.758L180.185 203.807L179.76 203.85L179.941 204.001L179.611 204.338L180.538 204.965L179.839 205.405L180.035 206.164L179.357 206.258L179.936 206.105L179.781 205.982L180.454 205.549L180.235 205.526L180.577 205.529L179.895 205.888L179.797 205.554L180.68 205.67L179.817 205.696L179.684 205.878L180.052 205.979L179.676 205.906L179.992 205.789L179.662 205.997L179.872 206.071L179.608 206.004L180.074 206.064L179.611 205.976L179.828 205.801L179.287 206.026" stroke="black" stroke-width="1.75" stroke-linecap="round" stroke-linejoin="round"/>
<path d="M181.66 188.481L181.091 188.574L181.505 188.763L181.049 188.832L182.008 189.509L182.016 190.297L182.729 190.869L182.512 191.155L182.729 191.541L183.917 192.117L185.209 194.534L186.973 196.687L186.981 197.07L187.837 197.161L188.466 197.648L189.129 197.105L188.454 197.049L188.717 196.903" stroke="black" stroke-width="1.75" stroke-linecap="round" stroke-linejoin="round"/>
<path d="M193.778 188.738L192.349 189.573L192.47 189.953L190.709 192.961L189.468 195.986L188.56 197.027L188.726 197.372L188.267 197.907L187.904 197.765L188.271 198.021" stroke="black" stroke-width="1.75" stroke-linecap="round" stroke-linejoin="round"/>
<path d="M194.521 188.274V202.332" stroke="black" stroke-width="1.75" stroke-linecap="round" stroke-linejoin="round"/>
<path d="M230.973 186.524V202.932" stroke="black" stroke-width="1.75" stroke-linecap="round" stroke-linejoin="round"/>
<path d="M218.162 183.566L230.462 202.895" stroke="black" stroke-width="1.75" stroke-linecap="round" stroke-linejoin="round"/>
<path d="M219.787 187.653V202.621" stroke="black" stroke-width="1.75" stroke-linecap="round" stroke-linejoin="round"/>
<path d="M240.014 186.535V204.07" stroke="black" stroke-width="2" stroke-linecap="round" stroke-linejoin="round"/>
<path d="M252.172 187.456V203.271" stroke="black" stroke-width="1.75" stroke-linecap="round" stroke-linejoin="round"/>
<path d="M138.079 186.326L138.124 186.087L137.579 186.562L134.974 186.4L134.145 186.707L134.032 187.01L131.657 187.195L130.839 187.677L130.178 188.564L130.065 189.598L128.384 191.156L127.902 192.017L127.853 193.316L127.01 195.92L127.591 196.464L127.659 198.214L128.407 199.452L128.215 199.601L128.729 199.814L128.961 200.705L130.067 201.279L129.76 201.533L130.839 202.148L131.872 202.169L135.029 203.164L136.461 202.923L137.191 202.474L139.586 202.275L140.323 201.733L140.193 201.967" stroke="black" stroke-width="1.75" stroke-linecap="round" stroke-linejoin="round"/>
<path d="M266.144 188.896L266.168 188.301L265.383 187.693L266.212 188.349L265.863 188.502L266.101 188.734L266.024 189.275L266.743 189.721L267.429 191.033L268.359 193.852L268.209 194.328L269.446 195.802L269.51 196.043L269.231 196.101L269.926 196.38L269.696 196.563L270.405 197.958L270.991 198.379L270.721 198.515L271.297 198.553L270.551 198.532L271.107 198.541L270.595 198.546L270.984 198.572L270.449 199.303L271.077 199.379L270.592 199.321L270.649 199.866" stroke="black" stroke-width="1.75" stroke-linecap="round" stroke-linejoin="round"/>
<path d="M269.685 204.891L268.209 204.893L268.38 205.377L267.647 206.36L267.266 206.382L267.691 206.082L267.446 205.884L267.951 205.755L269.13 203.068L271.844 199.365L272.14 198.176L273.365 197.008L274.763 194.258L275.772 193.349L275.909 192.847L277.571 191.729L277.235 191.642L277.287 191.185L277.906 191.127L277.582 190.966L278.26 190.74L277.606 190.617L278.638 190.029L278.444 189.94L278.372 190.368L278.182 190.184L278.646 190.373L278.265 190.426L278.283 190.227L278.531 190.374L277.953 190.597L278.682 190.483L278.213 190.427L278.612 190.56L278.548 190.356L278.149 190.608L278.343 190.52L278.182 190.776L278.455 190.686L278.292 190.578L278.223 190.812L278.424 190.801L278.198 190.542L278.389 190.438L278.605 190.554L278.135 190.622L278.389 190.802L278.096 190.706L278.396 190.795L278.114 190.773L278.503 191.363L278.215 191.246L278.474 191.226L278.12 191.337L278.472 191.502L278.156 191.477L278.642 191.287L278.268 191.249L278.559 191.184L278.088 190.747L278.502 190.82L278.001 190.787L278.526 190.582L278.048 190.241L278.352 189.977L278.028 190.332L278.34 190.29L278.148 190.229L278.398 190.038L277.761 190.179L278.296 190.228L278.069 190.231L278.18 190.847L277.877 191.299" stroke="black" stroke-width="1.75" stroke-linecap="round" stroke-linejoin="round"/>
<path d="M212.391 187.983V204.392" stroke="black" stroke-width="1.75" stroke-linecap="round" stroke-linejoin="round"/>
<path d="M201.832 187.622V202.59" stroke="black" stroke-width="1.75" stroke-linecap="round" stroke-linejoin="round"/>
<path d="M202.916 203.657H209.066" stroke="black" stroke-width="1.75" stroke-linecap="round" stroke-linejoin="round"/>
<path d="M243.621 187.629H259.436" stroke="black" stroke-width="1.75" stroke-linecap="round" stroke-linejoin="round"/>
<path d="M149.4 189.82L148.081 189.793L146.799 190.692L145.276 192.516L145.19 193.21L144.367 194.586L144.043 196.58L143.346 197.776L143.464 199.211L143.23 200.123L143.635 201.156L143.456 201.791L144.361 202.161L144.637 202.491L144.533 202.828L145.127 203.464L146.762 203.861L148.72 203.871L149.837 203.565L151.491 202.588L151.622 201.908L152.563 201.124L153.249 199.994L153.065 199.005L153.594 197.473L153.678 196.274L152.617 195.073L152.508 194.288L151.381 193.181L150.552 191.16L148.915 190.539L148.684 190.67" stroke="black" stroke-width="1.75" stroke-linecap="round" stroke-linejoin="round"/>
<path d="M35.1777 79.5352V94.7632" stroke="black" stroke-width="1.75" stroke-linecap="round" stroke-linejoin="round"/>
<path d="M25.377 79.1997V93.0907" stroke="black" stroke-width="1.75" stroke-linecap="round" stroke-linejoin="round"/>
<path d="M26.3828 94.082H32.0908" stroke="black" stroke-width="1.75" stroke-linecap="round" stroke-linejoin="round"/>
<path d="M47.6925 79.1168L46.9725 79.1188L46.1985 78.5588L45.3445 78.5498L43.9505 79.1968L42.2705 81.1278L41.9215 82.0658L42.3105 82.2448L41.8775 83.3418L43.1015 85.9378L45.8795 86.6028L46.7465 87.5458L47.0405 88.4288L46.7485 88.4798L47.0925 88.6778L47.1955 89.6628L47.0485 91.4388L46.6005 91.9448L46.7885 92.4838L45.9555 93.3368L45.8465 93.8428L45.4775 94.1328L45.6245 94.2408L43.4635 94.8598L40.9005 94.7308L39.7685 94.0938L39.4785 94.2948" stroke="black" stroke-width="1.75" stroke-linecap="round" stroke-linejoin="round"/>
<path d="M54.3621 78.063L52.9671 78.34L52.9221 78.129L53.4701 78.143L53.0751 78.254L52.9511 78.708L52.7341 78.432L53.2491 78.476L52.8611 78.168L52.3711 78.514L52.8531 78.596L52.5691 79.107L52.7921 81.77L52.5831 84.713L53.0561 86.735L52.6951 88.728L52.9041 89.741L52.6341 90.204L52.7491 93.377L53.4281 93.669L53.0381 94.155L53.4881 94.497L52.9451 94.569L53.3181 94.738L53.1021 94.765L53.2661 94.423L52.8801 94.233L53.0441 93.926L52.7891 94.127L53.3241 94.142L52.7861 94.088L53.1681 94.224L52.8921 94.199L53.1321 94.36L52.6901 94.504L53.0461 94.581L52.7861 94.674L53.3661 94.542L52.9211 94.654L53.1891 94.57L53.1111 94.392L53.0391 94.645L52.8521 94.571L53.3571 94.569L52.8211 94.57L53.2841 94.427L52.9631 94.426L53.3161 94.36L53.1231 93.994L53.0501 94.42L52.7161 94.186" stroke="black" stroke-width="1.75" stroke-linecap="round" stroke-linejoin="round"/>
<path d="M53.0352 78.5688H62.8212" stroke="black" stroke-width="1.75" stroke-linecap="round" stroke-linejoin="round"/>
<path d="M54.127 93.728H63.913" stroke="black" stroke-width="1.75" stroke-linecap="round" stroke-linejoin="round"/>
<path d="M53.5449 85.3701H59.5919" stroke="black" stroke-width="1.75" stroke-linecap="round" stroke-linejoin="round"/>
<path d="M68.2451 83.2212L65.7852 83.3722L66.7642 83.2332L66.5182 83.2432L66.7051 83.4202L66.3701 83.6442L66.6711 84.0082L66.3481 84.2672L66.9492 85.1772L67.1482 86.2132L66.9582 86.8522L67.2932 90.1142L66.7021 91.9292L66.6411 94.4812L67.1292 94.9602L67.6822 93.7052" stroke="black" stroke-width="1.75" stroke-linecap="round" stroke-linejoin="round"/>
<path d="M68.4945 81.9369L68.2915 81.6699L68.4055 80.1489L68.2285 79.8909L69.4455 78.3519L70.1215 77.8839L71.3525 77.5449L72.8075 77.8689L74.1455 79.1779L74.5315 80.8279L73.5355 83.4729L70.9445 86.4459L69.8305 86.7539L70.2765 86.5219L71.1405 86.8589L72.8265 88.4639L73.9475 90.6259L74.9225 91.7929L75.0915 93.7369L75.6685 95.1669L75.8935 94.9459L75.7225 94.8999" stroke="black" stroke-width="1.75" stroke-linecap="round" stroke-linejoin="round"/>
<path d="M30.876 109.912L28.416 110.064L29.395 109.925L29.149 109.934L29.3361 110.111L29.001 110.335L29.3021 110.7L28.979 110.959L29.579 111.869L29.7791 112.905L29.5891 113.544L29.924 116.805L29.333 118.62L29.272 121.173L29.76 121.651L30.313 120.397" stroke="black" stroke-width="1.75" stroke-linecap="round" stroke-linejoin="round"/>
<path d="M31.1254 108.628L30.9224 108.361L31.0364 106.84L30.8594 106.582L32.0764 105.044L32.7524 104.575L33.9834 104.236L35.4384 104.56L36.7764 105.869L37.1624 107.519L36.1654 110.164L33.5754 113.137L32.4614 113.445L32.9074 113.213L33.7714 113.55L35.4574 115.155L36.5784 117.318L37.5534 118.484L37.7224 120.429L38.2994 121.858L38.5244 121.637L38.3534 121.592" stroke="black" stroke-width="1.75" stroke-linecap="round" stroke-linejoin="round"/>
<path d="M49.7525 107.09L49.4985 107.206L48.3835 106.332L47.7335 106.467L44.9285 108.541L44.3705 109.673L43.7765 109.939L42.4135 111.642L42.6125 112.919L42.2285 114.253L42.7685 115.65L42.6425 116.494L42.8505 117.053L44.5195 119.446L45.7625 120.42L46.2515 120.658L47.4645 120.268L50.2925 117.63L51.9685 112.103L51.6695 109.416L51.0335 108.364L50.1805 107.821L49.2115 106.437L46.5135 105.438L44.3025 106.115L43.5515 107.015L43.2405 108.234L42.2935 109.98" stroke="black" stroke-width="1.75" stroke-linecap="round" stroke-linejoin="round"/>
<path d="M58.7762 107.012L57.3802 107.289L57.3362 107.078L57.8832 107.092L57.4882 107.203L57.3642 107.657L57.1482 107.381L57.6622 107.425L57.2742 107.117L56.7852 107.463L57.2662 107.545L56.9832 108.056L57.2062 110.719L56.9962 113.662L57.4702 115.684L57.1082 117.677L57.3172 118.69L57.0472 119.153L57.1622 122.326L57.8412 122.619L57.4512 123.104L57.9012 123.446L57.3592 123.518L57.7312 123.687L57.5162 123.714L57.6792 123.372L57.2942 123.182L57.4572 122.875L57.2022 123.076L57.7382 123.091L57.1992 123.037L57.5822 123.173L57.3052 123.148L57.5452 123.309L57.1042 123.453L57.4592 123.53L57.1992 123.623L57.7802 123.491L57.3342 123.603L57.6022 123.519L57.5242 123.341L57.4522 123.594L57.2652 123.52L57.7702 123.518L57.2342 123.519L57.6972 123.376L57.3762 123.375L57.7302 123.309L57.5362 122.943L57.4632 123.369L57.1292 123.135" stroke="black" stroke-width="1.75" stroke-linecap="round" stroke-linejoin="round"/>
<path d="M57.4492 107.518H67.2343" stroke="black" stroke-width="1.75" stroke-linecap="round" stroke-linejoin="round"/>
<path d="M57.959 114.319H64.006" stroke="black" stroke-width="1.75" stroke-linecap="round" stroke-linejoin="round"/>
<path d="M72.8594 105.461V123.401" stroke="black" stroke-width="1.75" stroke-linecap="round" stroke-linejoin="round"/>
<path d="M81.4041 107.077L80.0091 107.354L79.9651 107.143L80.5121 107.157L80.1171 107.268L79.993 107.722L79.7761 107.446L80.291 107.49L79.903 107.182L79.4141 107.528L79.8951 107.61L79.6111 108.121L79.8351 110.784L79.6251 113.727L80.0981 115.749L79.7371 117.742L79.946 118.755L79.6761 119.218L79.791 122.391L80.4701 122.684L80.08 123.169L80.5301 123.512L79.9871 123.583L80.36 123.752L80.1451 123.779L80.308 123.437L79.9221 123.247L80.0861 122.94L79.8311 123.141L80.3671 123.156L79.8281 123.102L80.2101 123.238L79.9341 123.213L80.1741 123.374L79.7331 123.518L80.088 123.595L79.8281 123.688L80.4091 123.556L79.963 123.668L80.231 123.584L80.153 123.406L80.0811 123.659L79.894 123.585L80.399 123.583L79.8631 123.584L80.326 123.441L80.0051 123.44L80.3581 123.374L80.1651 123.008L80.0921 123.434L79.7581 123.2" stroke="black" stroke-width="1.75" stroke-linecap="round" stroke-linejoin="round"/>
<path d="M81.1699 122.742H90.9549" stroke="black" stroke-width="1.75" stroke-linecap="round" stroke-linejoin="round"/>
<path d="M95.864 107.237L94.4691 107.514L94.4241 107.304L94.972 107.318L94.5771 107.428L94.4531 107.883L94.2361 107.606L94.7511 107.65L94.3631 107.342L93.873 107.688L94.3551 107.77L94.071 108.281L94.2941 110.944L94.0851 113.887L94.558 115.909L94.1971 117.902L94.4061 118.915L94.136 119.378L94.2511 122.551L94.929 122.844L94.5401 123.329L94.9901 123.672L94.4471 123.743L94.8201 123.912L94.6041 123.94L94.7671 123.597L94.382 123.407L94.5461 123.101L94.291 123.301L94.826 123.316L94.2881 123.262L94.67 123.399L94.394 123.374L94.6341 123.534L94.192 123.679L94.5481 123.756L94.2881 123.848L94.868 123.716L94.4231 123.828L94.6911 123.745L94.6131 123.566L94.541 123.819L94.3541 123.745L94.8591 123.743L94.3231 123.745L94.7861 123.601L94.4651 123.6L94.8181 123.534L94.6251 123.168L94.5521 123.594L94.218 123.36" stroke="black" stroke-width="1.75" stroke-linecap="round" stroke-linejoin="round"/>
<path d="M94.5371 107.743H104.323" stroke="black" stroke-width="1.75" stroke-linecap="round" stroke-linejoin="round"/>
<path d="M95.6289 122.903H105.415" stroke="black" stroke-width="1.75" stroke-linecap="round" stroke-linejoin="round"/>
<path d="M95.0469 114.544H101.094" stroke="black" stroke-width="1.75" stroke-linecap="round" stroke-linejoin="round"/>
<path d="M3.81836 299.905H380.001" stroke="black" stroke-width="2" stroke-linecap="round" stroke-linejoin="round"/>
<path d="M3.06836 1V296.334" stroke="black" stroke-width="2" stroke-linecap="round" stroke-linejoin="round"/>
<path d="M36.5117 45.9589L36.8317 49.3389L37.7787 52.5999L39.3197 55.6249L42.2027 59.1089L44.8847 61.1899L47.9107 62.7309L51.1707 63.6779L54.5507 63.9979L57.9307 63.6779L61.1907 62.7309L64.2157 61.1899L66.8987 59.1089L69.1437 56.5619L71.3227 52.5999L72.2697 49.3389L72.5887 45.9589L72.2697 42.5789L71.3227 39.3189L69.1437 35.3559L66.8987 32.8099L64.2157 30.7289L61.1907 29.1869L57.9307 28.2399L54.5507 27.9209L51.1707 28.2399L47.9107 29.1869L44.8847 30.7289L42.2027 32.8099L39.3197 36.2939L37.7787 39.3189L36.8317 42.5789L36.5117 45.9589Z" stroke="black" stroke-width="2" stroke-linecap="round" stroke-linejoin="round"/>
<path d="M14.3477 105.32L14.6367 105.686L15.9756 105.611L16.9517 104.854L18.4337 105.221L20.1327 105.08L20.3387 105.458L21.3456 105.627L21.5207 106.035L21.9677 106.19L21.8747 106.496L23.3447 107.005L23.5657 107.568L23.8887 107.681L23.6667 107.883L24.3757 108.229L24.1767 108.595L24.5146 108.637L24.5247 109.001L24.2357 109.175L24.3397 110.071L24.0127 110.708L23.3607 111.15L23.6396 111.49L22.9257 111.728L23.0046 111.88L21.3976 112.528L20.2247 112.597L19.6587 112.856L19.8666 112.928L18.0027 113.517L17.7997 113.36L17.9747 113.319L16.5217 113.469L16.6086 113.617L15.8517 113.648L15.9916 113.854L15.4026 113.725L15.8277 113.563L16.1057 113.761" stroke="black" stroke-width="1.75" stroke-linecap="round" stroke-linejoin="round"/>
<path d="M13.3164 104.457V122.396" stroke="black" stroke-width="1.75" stroke-linecap="round" stroke-linejoin="round"/>
</svg>
