<svg width="312" height="555" viewBox="0 0 312 555" fill="none" xmlns="http://www.w3.org/2000/svg">
<path d="M20.4082 23.469V479.503" stroke="#555555" stroke-width="4" stroke-linecap="round" stroke-linejoin="round"/>
<path d="M289.348 27.2781V483.312" stroke="#555555" stroke-width="4" stroke-linecap="round" stroke-linejoin="round"/>
<path d="M2.40625 4.26807H308.406" stroke="#555555" stroke-width="4" stroke-linecap="round" stroke-linejoin="round"/>
<path d="M18.4062 27.2681H288.406" stroke="#555555" stroke-width="4" stroke-linecap="round" stroke-linejoin="round"/>
<path d="M18.4062 481.268H289.406" stroke="#555555" stroke-width="4" stroke-linecap="round" stroke-linejoin="round"/>
<path d="M6.69336 550.55H305.693" stroke="#555555" stroke-width="4" stroke-linecap="round" stroke-linejoin="round"/>
<path d="M4.40625 5.26807V552.268" stroke="#555555" stroke-width="4" stroke-linecap="round" stroke-linejoin="round"/>
<path d="M309.641 2V549" stroke="#555555" stroke-width="4" stroke-linecap="round" stroke-linejoin="round"/>
<path d="M169.016 525.427L169.902 521.936L170.119 518.341L169.659 514.77L168.537 511.347L166.085 507.225L163.612 504.606L160.693 502.497L157.43 500.971L153.94 500.085L150.345 499.868L146.773 500.329L143.35 501.45L140.199 503.194L136.609 506.375L134.5 509.294L132.975 512.557L132.088 516.047L131.871 519.643L132.634 524.378L133.968 527.723L135.906 530.759L138.378 533.378L141.297 535.487L144.56 537.013L148.051 537.899L151.646 538.116L155.218 537.655L158.64 536.534L161.792 534.79L164.561 532.487L167.491 528.69L169.016 525.427Z" stroke="#555555" stroke-width="4" stroke-linecap="round" stroke-linejoin="round"/>
<path d="M131.959 236.815L133.697 242.242L136.421 247.247L140.035 251.652L144.411 255.303L147.675 257.252L151.158 258.777L156.672 260.217L162.357 260.598L168.013 259.908L173.44 258.17L178.445 255.445L182.851 251.831L186.502 247.456L188.451 244.192L189.975 240.709L191.415 235.195L191.797 229.51L191.106 223.853L189.368 218.426L186.644 213.421L183.03 209.016L178.654 205.365L175.39 203.416L171.907 201.891L166.394 200.451L160.708 200.07L155.052 200.76L149.625 202.498L144.62 205.223L141.606 207.54L138.906 210.218L135.538 214.814L133.09 219.96L131.65 225.473L131.268 231.159L131.959 236.815Z" stroke="#555555" stroke-width="6" stroke-linecap="round" stroke-linejoin="round"/>
<circle cx="162" cy="230.56" r="26" fill="#292562"/>
</svg>
