<svg width="312" height="555" viewBox="0 0 312 555" fill="none" xmlns="http://www.w3.org/2000/svg">
<path d="M20.1172 23.469V479.503" stroke="#555555" stroke-width="4" stroke-linecap="round" stroke-linejoin="round"/>
<path d="M289.055 27.278V483.312" stroke="#555555" stroke-width="4" stroke-linecap="round" stroke-linejoin="round"/>
<path d="M2.11523 4.26794H308.115" stroke="#555555" stroke-width="4" stroke-linecap="round" stroke-linejoin="round"/>
<path d="M18.1152 27.2679H288.115" stroke="#555555" stroke-width="4" stroke-linecap="round" stroke-linejoin="round"/>
<path d="M18.1152 481.268H289.115" stroke="#555555" stroke-width="4" stroke-linecap="round" stroke-linejoin="round"/>
<path d="M6.40039 550.55H305.401" stroke="#555555" stroke-width="4" stroke-linecap="round" stroke-linejoin="round"/>
<path d="M4.11523 5.26794V552.268" stroke="#555555" stroke-width="4" stroke-linecap="round" stroke-linejoin="round"/>
<path d="M309.348 2V549" stroke="#555555" stroke-width="4" stroke-linecap="round" stroke-linejoin="round"/>
<path d="M168.722 525.427L169.609 521.936L169.826 518.341L169.365 514.77L168.243 511.347L165.791 507.225L163.319 504.606L160.4 502.496L157.137 500.971L153.646 500.085L150.051 499.868L146.479 500.329L143.057 501.45L139.905 503.194L136.315 506.375L134.206 509.294L132.681 512.557L131.794 516.047L131.578 519.642L132.34 524.378L133.675 527.723L135.612 530.759L138.084 533.378L141.004 535.487L144.266 537.012L147.757 537.899L151.352 538.116L154.924 537.655L158.346 536.534L161.498 534.79L164.267 532.487L167.197 528.69L168.722 525.427Z" stroke="#555555" stroke-width="4" stroke-linecap="round" stroke-linejoin="round"/>
<path d="M202.27 325.091L212.476 318.254L217.237 314.369L221.745 310.192L229.93 301.033L236.902 290.919L239.898 285.554L244.852 274.313L246.79 268.482L249.55 256.512L250.788 244.29L250.829 238.145L249.755 225.908L247.155 213.903L245.296 208.046L240.493 196.74L237.568 191.335L230.732 181.129L226.846 176.368L218.219 167.624L208.563 160.031L198.032 153.707L192.489 151.053L180.959 146.815L175.018 145.247L168.989 144.055L156.768 142.817L144.488 143.121L138.386 143.85L132.342 144.962L120.523 148.31L114.795 150.534L103.813 156.037L98.6019 159.295L88.8459 166.759L84.3379 170.935L76.1529 180.095L72.5079 185.042L66.1839 195.574L61.2309 206.814L57.7249 218.588L55.7219 230.707L55.2949 236.837L55.5989 249.118L56.3279 255.219L57.4389 261.263L60.7869 273.082L65.5899 284.388L68.5149 289.793L75.3509 299.999L83.4129 309.267L87.8639 313.504L97.5199 321.097L102.686 324.425L113.594 330.074L119.292 332.375L131.065 335.881L137.093 337.073L149.315 338.31L155.46 338.351L167.697 337.277L173.741 336.166L185.56 332.818L191.288 330.594L202.27 325.091Z" stroke="#555555" stroke-width="4" stroke-linecap="round" stroke-linejoin="round"/>
<path d="M39.5844 376.523L37.1934 376.683L38.1034 376.5L38.2994 377.228L38.6574 377.328L38.8234 379.282L39.8124 381.352L41.9744 390.011L42.4084 390.052L43.2004 387.509L44.5534 384.815L45.0494 382.013L45.8204 380.715L46.6264 378.131L46.4894 377.816L47.2544 377.234L47.2064 377.587L46.6734 377.873L47.6744 378.653L48.5754 381.491L50.9264 385.952L52.1434 387.487L52.8664 389.152L54.0504 389.42L54.4234 389.25L53.6164 388.727L54.1414 388.341L54.9304 386.386L55.9484 385.14L56.5964 383.665L57.2334 380.687L57.3784 377.012L58.3834 371.012L58.1834 368.596L58.4574 368.944L57.5084 372.407" stroke="#555555" stroke-width="2" stroke-linecap="round" stroke-linejoin="round"/>
<path d="M65.0761 355.298L65.1691 356.429L64.5971 358.464L64.3711 361.833L65.3581 376.486L65.8571 379.347L66.9221 382.59L68.7641 386.997L69.5631 388.067L69.7221 388.723L68.8991 388.659L69.1431 388.845L69.0131 389.499L68.6421 389.354L69.3831 389.261L68.8261 387.397L73.2091 376.584L73.4831 376.586L73.0491 377.006L74.6821 378.533L75.5181 380.639L75.6301 384.218L76.5051 385.826L79.3051 389.229L79.9171 389.438L81.1931 388.662L81.3601 388.035L83.0621 386.572L85.4011 380.511L85.4851 378.892L85.0871 377.341L85.3821 376.105L84.4841 374.828L84.4831 375.163L82.8201 376.747L81.7801 378.982L81.6981 381.431L82.0521 383.698L82.4351 385.019L84.0381 386.743L85.3571 387.634L88.1731 388.524L88.3151 388.996" stroke="#555555" stroke-width="2" stroke-linecap="round" stroke-linejoin="round"/>
<path d="M92.6088 377.51L92.0918 378.02L92.5868 378.272L92.2398 378.944L92.3668 379.599L92.9208 380.273L92.9548 381.973L95.2098 388.217L95.6268 391.913L95.3098 390.892" stroke="#555555" stroke-width="2" stroke-linecap="round" stroke-linejoin="round"/>
<path d="M96.8925 375.539L96.1445 374.292L98.5085 374.957L99.7335 375.892L100.735 377.343L100.159 379.219L98.8405 380.44L96.4975 380.242L97.3735 379.936L97.0485 380.015L97.5165 380.13L98.5635 382.478L100.448 384.434L104.576 385.715L106.179 385.016L106.407 383.802L107.684 382.043L109.032 378.728L108.564 376.885L107.12 374.742L106.509 375.164L106.497 375.931L105.686 377.108L105.279 380.082L105.739 381.296L107.474 383.972L108.656 384.956L109.302 385.22L112.88 384.591" stroke="#555555" stroke-width="2" stroke-linecap="round" stroke-linejoin="round"/>
<path d="M134.954 375.716L133.449 374.306L132.368 374.305L130.685 375.106L129.326 376.179L127.157 379.95L126.123 383.23L125.941 386.189L127.228 387.645L129.69 388.676L130.991 388.506L132.103 387.927L133.986 385.793L135.396 382.708L135.599 381.851L135.257 380.274L135.552 378.623L135.332 378.658L135.316 379.908L135.001 380.49L135.199 383.499L137.215 385.689" stroke="#555555" stroke-width="2" stroke-linecap="round" stroke-linejoin="round"/>
<path d="M141.252 377.713L140.461 381.324L140.954 384.434L142.622 387.783L142.577 389.849" stroke="#555555" stroke-width="2" stroke-linecap="round" stroke-linejoin="round"/>
<path d="M145.442 372.148L146.213 371.183L146.349 371.382L146.092 372.548L147.15 374.883L146.828 377.222L144.707 380.278L141.371 381.624L142.272 381.427L143.646 380.517L145.675 379.997L148.099 381.555L148.51 383.86L149.889 385.482L150.708 385.94L151.949 386.052L154.438 385.215L155.755 384.435L156.508 382.751L157.38 381.932L158.167 379.324L157.951 376.886L157.349 375.64L156.345 374.874L155.642 375.034L155.459 375.427L155.732 375.746L154.95 376.89L154.204 379.357L153.991 380.796L154.443 382.811L156.051 385.03L158.281 386.516L160.85 386.472L161.254 386.777" stroke="#555555" stroke-width="2" stroke-linecap="round" stroke-linejoin="round"/>
<path d="M176.482 373.774L176.18 374.829L177.021 378.562L179.072 381.936L180.861 384.071L182.918 384.76L184.965 382.251" stroke="#555555" stroke-width="2" stroke-linecap="round" stroke-linejoin="round"/>
<path d="M188.168 374.45L187.603 374.711L185.433 379.623L184.51 383.812L182.533 388.95L181.443 394.466L180.551 396.143L180.821 398.021L181.481 398.061L181.685 397.665" stroke="#555555" stroke-width="2" stroke-linecap="round" stroke-linejoin="round"/>
<path d="M195.174 380.452L195.281 376.763L195.508 376.833L195.564 376.361L196.475 375.562L196.407 374.759L195.267 374.517L194.604 375.919L191.984 378.69L190.412 382.703L191.755 383.535L195.138 384.833L197.258 384.623L197.773 384.247L198.845 380.026L196.119 374.65L195.059 373.425L195.079 373.032L195.702 372.775" stroke="#555555" stroke-width="2" stroke-linecap="round" stroke-linejoin="round"/>
<path d="M204.278 373.915L204.6 374.325L204.062 375.866L204.495 379.617L205.29 380.353L205.742 381.325L207.167 382.094L208.249 381.772L208.556 381.337L209.527 379.416L209.832 376.821L209.246 372.659L207.665 368.065" stroke="#555555" stroke-width="2" stroke-linecap="round" stroke-linejoin="round"/>
<path d="M220.983 357.121L220.854 356.041L222.147 353.975L226.15 350.887L227.88 350.421L231.103 350.316L232.885 350.787L233.918 351.429L234.699 353.644L234.686 357.509L233.165 359.929L228.543 364.205L228.337 364.89L229.168 365.337" stroke="#555555" stroke-width="2" stroke-linecap="round" stroke-linejoin="round"/>
<path d="M230.56 383.005L230.046 383.286L231.531 383.428L231.021 383.495L231.243 383.568L230.723 383.953L230.884 383.531L229.662 382.813L230.103 382.642H229.424L230.519 383.088L229.538 383.129L229.565 383.364L230.793 382.775L230.512 382.465L230.758 382.694L230.355 382.953L230.504 383.146L229.807 383.27L229.076 384.171L230.059 383.319L229.601 383.873L229.659 383.526L230.578 383.442L230.152 383.055L230.863 382.015L230.339 381.409L230.744 381.526L230.596 382.317L230.156 382.502L230.392 382.662L229.677 382.613L230.515 382.018L230.427 382.321L230.209 382.581L229.76 382.441L230.904 381.026L230.44 381.175" stroke="#555555" stroke-width="2" stroke-linecap="round" stroke-linejoin="round"/>
<circle cx="154" cy="240.631" r="96.5" fill="#292562" fill-opacity="0.32"/>
<circle cx="154" cy="240.631" r="96.5" stroke="black"/>
<circle cx="154" cy="240.631" r="96.5" stroke="#0D0C1F"/>
<rect x="35" y="347.631" width="224" height="60" fill="#292562" fill-opacity="0.3"/>
</svg>
