<svg width="312" height="555" viewBox="0 0 312 555" fill="none" xmlns="http://www.w3.org/2000/svg">
<rect x="69.4199" y="430.089" width="159" height="38" fill="#292562" fill-opacity="0.3"/>
<rect x="84.4199" y="383.089" width="135" height="44" fill="#292562" fill-opacity="0.3"/>
<path d="M20.002 23.469V479.499" stroke="#555555" stroke-width="4" stroke-linecap="round" stroke-linejoin="round"/>
<path d="M288.941 27.278V483.309" stroke="#555555" stroke-width="4" stroke-linecap="round" stroke-linejoin="round"/>
<path d="M2 4.26801H308" stroke="#555555" stroke-width="4" stroke-linecap="round" stroke-linejoin="round"/>
<path d="M18 27.268H288" stroke="#555555" stroke-width="4" stroke-linecap="round" stroke-linejoin="round"/>
<path d="M18 481.269H289" stroke="#555555" stroke-width="4" stroke-linecap="round" stroke-linejoin="round"/>
<path d="M6.28711 550.549H305.287" stroke="#555555" stroke-width="4" stroke-linecap="round" stroke-linejoin="round"/>
<path d="M4 5.26801V552.269" stroke="#555555" stroke-width="4" stroke-linecap="round" stroke-linejoin="round"/>
<path d="M309.234 2V548.999" stroke="#555555" stroke-width="4" stroke-linecap="round" stroke-linejoin="round"/>
<path d="M168.61 525.429L169.496 521.939L169.713 518.339L169.252 514.769L168.131 511.349L165.678 507.229L163.206 504.609L160.287 502.499L157.024 500.969L153.534 500.089L149.939 499.869L146.367 500.329L142.944 501.449L139.793 503.189L136.203 506.379L134.094 509.299L132.568 512.559L131.682 516.049L131.465 519.639L132.228 524.379L133.562 527.719L135.5 530.759L137.972 533.379L140.891 535.489L144.154 537.009L147.644 537.899L151.239 538.119L154.811 537.659L158.234 536.539L161.385 534.789L164.154 532.489L167.085 528.689L168.61 525.429Z" stroke="#555555" stroke-width="4" stroke-linecap="round" stroke-linejoin="round"/>
<path d="M194.602 269.379L205.602 287.379" stroke="#555555" stroke-width="4" stroke-linecap="round" stroke-linejoin="round"/>
<path d="M189.602 289.379L208.602 272.379" stroke="#555555" stroke-width="4" stroke-linecap="round" stroke-linejoin="round"/>
<path d="M185.496 196.179L196.496 214.179" stroke="#555555" stroke-width="4" stroke-linecap="round" stroke-linejoin="round"/>
<path d="M180.496 216.179L199.496 199.179" stroke="#555555" stroke-width="4" stroke-linecap="round" stroke-linejoin="round"/>
<path d="M115.836 289.079L126.836 307.079" stroke="#555555" stroke-width="4" stroke-linecap="round" stroke-linejoin="round"/>
<path d="M110.836 309.079L129.836 292.079" stroke="#555555" stroke-width="4" stroke-linecap="round" stroke-linejoin="round"/>
<path d="M244.062 267.849L246.183 256.909L246.725 251.369L246.761 240.229L246.254 234.679L244.202 223.739L240.793 213.129L238.597 208.009L233.262 198.229L226.744 189.199L223.073 185.009L214.978 177.359L210.586 173.929L201.201 167.939L196.245 165.389L191.138 163.159L180.557 159.689L169.623 157.559L164.078 157.019L158.509 156.829L147.391 157.489L136.444 159.549L125.84 162.949L115.748 167.659L110.943 170.489L101.911 176.999L97.7203 180.669L90.0703 188.769L86.6413 193.159L83.4953 197.759L78.0983 207.499L73.9653 217.849L72.3943 223.189L70.2723 234.119L69.7303 239.669L69.6953 250.809L70.2023 256.359L72.2543 267.299L75.6623 277.909L80.3723 287.999L83.1933 292.799L89.7113 301.839L93.3833 306.029L101.478 313.679L105.869 317.109L110.467 320.249L120.211 325.649L125.317 327.879L135.899 331.349L141.332 332.589L152.378 334.019L163.516 334.049L169.064 333.549L180.011 331.489L185.367 329.959L190.615 328.089L200.708 323.379L210.131 317.439L218.735 310.359L222.687 306.439L229.814 297.879L232.96 293.279L238.357 283.539L240.586 278.429L244.062 267.849Z" stroke="#555555" stroke-width="6" stroke-linecap="round" stroke-linejoin="round"/>
<path d="M168.437 99.2889L167.258 99.5289L167.22 99.349L167.683 99.359L167.349 99.449L167.244 99.839L167.061 99.599L167.496 99.639L167.168 99.379L166.754 99.6689L167.162 99.739L166.922 100.169L167.11 102.419L166.933 104.909L167.333 106.619L167.028 108.309L167.204 109.159L166.976 109.549L167.073 112.239L167.647 112.479L167.318 112.889L167.698 113.179L167.239 113.239L167.554 113.389L167.372 113.409L167.51 113.119L167.184 112.959L167.323 112.699L167.107 112.869L167.56 112.879L167.105 112.839L167.428 112.949L167.194 112.929L167.397 113.069L167.024 113.189L167.324 113.259L167.105 113.329L167.595 113.219L167.219 113.319L167.445 113.249L167.379 113.089L167.319 113.309L167.16 113.249L167.587 113.239L167.134 113.249L167.526 113.119H167.254L167.553 113.069L167.39 112.759L167.328 113.119L167.046 112.919" stroke="#555555" stroke-width="1.5" stroke-linecap="round" stroke-linejoin="round"/>
<path d="M167.316 99.719H175.588" stroke="#555555" stroke-width="1.5" stroke-linecap="round" stroke-linejoin="round"/>
<path d="M167.746 105.469H172.857" stroke="#555555" stroke-width="1.5" stroke-linecap="round" stroke-linejoin="round"/>
<path d="M180.178 102.519L179.146 102.439L178.1 103.079L176.82 104.429L176.72 104.969L176.01 106.009L175.662 107.559L175.059 108.459L175.083 109.589L174.857 110.289L175.125 111.119L174.955 111.609L175.645 111.939L175.846 112.219L175.749 112.469L176.183 112.999L177.445 113.389L178.978 113.489L179.867 113.299L181.209 112.619L181.343 112.089L182.118 111.519L182.709 110.669L182.612 109.889L183.099 108.709L183.221 107.779L182.448 106.789L182.4 106.169L181.57 105.249L181.017 103.619L179.764 103.059L179.577 103.149" stroke="#555555" stroke-width="1.5" stroke-linecap="round" stroke-linejoin="round"/>
<path d="M198.514 98.0289L208.165 113.189" stroke="#555555" stroke-width="1.5" stroke-linecap="round" stroke-linejoin="round"/>
<path d="M199.787 101.229V112.979" stroke="#555555" stroke-width="1.5" stroke-linecap="round" stroke-linejoin="round"/>
<path d="M208.564 100.349V113.219" stroke="#555555" stroke-width="1.5" stroke-linecap="round" stroke-linejoin="round"/>
<path d="M233.574 100.219H245.981" stroke="#555555" stroke-width="1.5" stroke-linecap="round" stroke-linejoin="round"/>
<path d="M240.467 99.6589V112.059" stroke="#555555" stroke-width="1.5" stroke-linecap="round" stroke-linejoin="round"/>
<path d="M272.166 101.789V114.659" stroke="#555555" stroke-width="1.5" stroke-linecap="round" stroke-linejoin="round"/>
<path d="M262.115 99.469L271.766 114.629" stroke="#555555" stroke-width="1.5" stroke-linecap="round" stroke-linejoin="round"/>
<path d="M169.561 127.329L167.819 127.519L168.583 127.879L167.879 130.379L167.925 132.139L167.633 132.459L167.318 133.849L167.99 135.829L167.456 136.469L167.942 138.829L167.514 139.459L167.983 140.429L167.782 140.669L167.963 140.709L167.63 140.739L167.771 140.859L167.512 141.129L168.239 141.619L167.691 141.959L167.845 142.559L167.313 142.629L167.768 142.509L167.646 142.419L168.174 142.079L168.002 142.059H168.27L167.735 142.339L167.658 142.079L168.351 142.169L167.674 142.189L167.57 142.329L167.858 142.409L167.563 142.359L167.811 142.259L167.552 142.429L167.717 142.489L167.51 142.429L167.876 142.479L167.513 142.409L167.682 142.269L167.258 142.449" stroke="#555555" stroke-width="1.5" stroke-linecap="round" stroke-linejoin="round"/>
<path d="M169.119 128.679L168.672 128.759L168.997 128.909L168.639 128.959L169.391 129.489L169.398 130.109L169.957 130.559L169.787 130.779L169.957 131.089L170.889 131.539L171.903 133.429L173.287 135.119L173.293 135.419L173.965 135.499L174.458 135.879L174.978 135.449L174.449 135.409L174.655 135.289" stroke="#555555" stroke-width="1.5" stroke-linecap="round" stroke-linejoin="round"/>
<path d="M178.627 128.889L177.505 129.539L177.601 129.839L176.219 132.199L175.245 134.569L174.533 135.389L174.663 135.659L174.303 136.079L174.018 135.969L174.306 136.169" stroke="#555555" stroke-width="1.5" stroke-linecap="round" stroke-linejoin="round"/>
<path d="M179.209 128.519V139.549" stroke="#555555" stroke-width="1.5" stroke-linecap="round" stroke-linejoin="round"/>
<path d="M186.023 130.389L181.197 142.109" stroke="#555555" stroke-width="1.5" stroke-linecap="round" stroke-linejoin="round"/>
<path d="M186.258 127.039L191.772 140.829" stroke="#555555" stroke-width="1.5" stroke-linecap="round" stroke-linejoin="round"/>
<path d="M186.023 138.659H192.227" stroke="#555555" stroke-width="1.5" stroke-linecap="round" stroke-linejoin="round"/>
<path d="M211.396 127.479L210.17 127.379L208.927 128.139L207.407 129.749L207.288 130.389L206.444 131.629L206.031 133.459L205.314 134.539L205.343 135.879L205.074 136.709L205.393 137.699L205.19 138.279L206.011 138.669L206.249 138.999L206.134 139.299L206.65 139.929L208.149 140.389L209.97 140.509L211.026 140.289L212.621 139.469L212.78 138.849L213.7 138.169L214.403 137.159L214.287 136.229L214.866 134.829L215.011 133.719L214.092 132.539L214.035 131.809L213.049 130.709L212.392 128.789L210.904 128.119L210.682 128.229" stroke="#555555" stroke-width="1.75" stroke-linecap="round" stroke-linejoin="round"/>
<path d="M210.82 136.899L210.703 137.099L210.904 137.209L211.213 138.409L211.81 139.139L211.987 140.349L214.517 143.729L214.48 144.439L215.125 145.439L215.071 146.009L215.408 146.339L215.895 146.399L215.445 146.569L215.518 146.809L215.238 146.749L215.475 146.849L215.333 147.109L215.485 147.079L215.176 147.059H215.551L215.191 147.119H215.475L215.43 147.699" stroke="#555555" stroke-width="1.5" stroke-linecap="round" stroke-linejoin="round"/>
<path d="M195.244 101.039V113.909" stroke="#555555" stroke-width="1.5" stroke-linecap="round" stroke-linejoin="round"/>
<path d="M186.961 100.759V112.499" stroke="#555555" stroke-width="1.5" stroke-linecap="round" stroke-linejoin="round"/>
<path d="M187.811 113.339H192.636" stroke="#555555" stroke-width="1.5" stroke-linecap="round" stroke-linejoin="round"/>
<path d="M218.562 129.159V140.899" stroke="#555555" stroke-width="1.5" stroke-linecap="round" stroke-linejoin="round"/>
<path d="M219.412 141.739H224.237" stroke="#555555" stroke-width="1.5" stroke-linecap="round" stroke-linejoin="round"/>
<path d="M213.95 113.169L213.915 113.359L214.343 112.989L216.386 113.109L217.037 112.869L217.126 112.629L218.989 112.489L219.63 112.109L220.15 111.409L220.238 110.599L221.556 109.379L221.935 108.699L221.973 107.689L222.635 105.639L222.179 105.219L222.125 103.839L221.538 102.869L221.69 102.759L221.286 102.589L221.104 101.889L220.236 101.439L220.477 101.239L219.631 100.759L218.82 100.739L216.343 99.959L215.22 100.149L214.647 100.499L212.768 100.659L212.189 101.079L212.292 100.899" stroke="#555555" stroke-width="1.5" stroke-linecap="round" stroke-linejoin="round"/>
<path d="M213.596 99.999V112.869" stroke="#555555" stroke-width="1.5" stroke-linecap="round" stroke-linejoin="round"/>
<path d="M228.145 102.339L223.32 114.059" stroke="#555555" stroke-width="1.5" stroke-linecap="round" stroke-linejoin="round"/>
<path d="M228.379 98.989L233.894 112.779" stroke="#555555" stroke-width="1.5" stroke-linecap="round" stroke-linejoin="round"/>
<path d="M228.145 110.609H234.349" stroke="#555555" stroke-width="1.5" stroke-linecap="round" stroke-linejoin="round"/>
<path d="M248.812 100.639V113.509" stroke="#555555" stroke-width="1.5" stroke-linecap="round" stroke-linejoin="round"/>
<path d="M195.926 131.309L193.846 131.439L194.674 131.319L194.466 131.329L194.624 131.479L194.341 131.669L194.595 131.979L194.322 132.199L194.83 132.959L194.998 133.839L194.838 134.379L195.121 137.139L194.621 138.669L194.57 140.829L194.982 141.229L195.449 140.169" stroke="#555555" stroke-width="1.5" stroke-linecap="round" stroke-linejoin="round"/>
<path d="M196.135 130.229L195.964 129.999L196.06 128.709L195.91 128.499L196.939 127.199L197.511 126.799L198.551 126.509L199.781 126.789L200.912 127.889L201.238 129.289L200.396 131.519L198.206 134.039L197.265 134.299L197.642 134.099L198.372 134.389L199.797 135.739L200.745 137.569L201.569 138.559L201.712 140.199L202.2 141.409L202.39 141.219L202.245 141.179" stroke="#555555" stroke-width="1.5" stroke-linecap="round" stroke-linejoin="round"/>
<path d="M263.391 102.669V114.419" stroke="#555555" stroke-width="1.5" stroke-linecap="round" stroke-linejoin="round"/>
<path d="M257.695 102.459L256.663 102.369L255.616 103.019L254.337 104.369L254.237 104.909L253.527 105.949L253.179 107.499L252.576 108.399L252.6 109.529L252.373 110.229L252.641 111.059L252.471 111.549L253.162 111.879L253.362 112.159L253.265 112.409L253.7 112.939L254.961 113.329L256.494 113.429L257.384 113.239L258.726 112.559L258.86 112.029L259.635 111.459L260.226 110.609L260.128 109.829L260.616 108.649L260.738 107.719L259.964 106.719L259.916 106.099L259.087 105.179L258.533 103.559L257.281 102.999L257.094 103.089" stroke="#555555" stroke-width="1.5" stroke-linecap="round" stroke-linejoin="round"/>
<path d="M226.848 129.439V142.309" stroke="#555555" stroke-width="1.5" stroke-linecap="round" stroke-linejoin="round"/>
<path d="M232.46 127.269L231.28 127.509L231.243 127.329L231.705 127.339L231.371 127.429L231.266 127.819L231.083 127.579L231.518 127.619L231.19 127.359L230.777 127.649L231.184 127.719L230.944 128.149L231.133 130.399L230.955 132.889L231.356 134.599L231.05 136.289L231.227 137.139L230.998 137.529L231.096 140.219L231.669 140.459L231.34 140.869L231.721 141.159L231.262 141.219L231.577 141.369L231.395 141.389L231.532 141.099L231.207 140.939L231.345 140.679L231.129 140.849L231.582 140.859L231.127 140.819L231.45 140.929L231.217 140.909L231.42 141.049L231.046 141.169L231.347 141.229L231.127 141.309L231.618 141.199L231.241 141.299L231.468 141.229L231.402 141.069L231.341 141.289L231.183 141.229L231.61 141.219L231.157 141.229L231.548 141.099H231.277L231.575 141.049L231.412 140.739L231.35 141.099L231.068 140.899" stroke="#555555" stroke-width="1.5" stroke-linecap="round" stroke-linejoin="round"/>
<path d="M231.338 127.699H239.61" stroke="#555555" stroke-width="1.5" stroke-linecap="round" stroke-linejoin="round"/>
<path d="M232.262 140.509H240.534" stroke="#555555" stroke-width="1.5" stroke-linecap="round" stroke-linejoin="round"/>
<path d="M231.77 133.449H236.881" stroke="#555555" stroke-width="1.5" stroke-linecap="round" stroke-linejoin="round"/>
<path d="M249.542 128.059L248.933 128.069L248.279 127.589L247.557 127.579L246.379 128.129L244.959 129.759L244.664 130.559L244.993 130.709L244.626 131.629L245.661 133.829L248.009 134.389L248.742 135.189L248.991 135.929L248.744 135.979L249.035 136.149L249.122 136.979L248.998 138.479L248.619 138.909L248.778 139.359L248.074 140.079L247.982 140.509L247.669 140.759L247.794 140.849L245.967 141.369L243.8 141.259L242.843 140.719L242.598 140.889" stroke="#555555" stroke-width="1.5" stroke-linecap="round" stroke-linejoin="round"/>
<path d="M168.021 100.399L166.841 100.639L166.804 100.459L167.267 100.469L166.932 100.559L166.828 100.949L166.645 100.709L167.08 100.749L166.751 100.489L166.338 100.779L166.745 100.849L166.505 101.289L166.694 103.539L166.516 106.019L166.917 107.729L166.611 109.419L166.788 110.269L166.56 110.669L166.657 113.349L167.23 113.599L166.901 114.009L167.282 114.299L166.823 114.359L167.138 114.499L166.956 114.519L167.094 114.229L166.768 114.069L166.906 113.809L166.69 113.979L167.143 113.989L166.688 113.949L167.011 114.059L166.778 114.039L166.981 114.179L166.607 114.299L166.908 114.369L166.688 114.439L167.179 114.329L166.802 114.429L167.029 114.359L166.963 114.209L166.902 114.419L166.744 114.359H167.171H166.718L167.109 114.239L166.838 114.229L167.137 114.179L166.973 113.869L166.911 114.229L166.629 114.029" stroke="#555555" stroke-width="1.5" stroke-linecap="round" stroke-linejoin="round"/>
<path d="M166.898 100.829H175.17" stroke="#555555" stroke-width="1.5" stroke-linecap="round" stroke-linejoin="round"/>
<path d="M167.33 106.579H172.442" stroke="#555555" stroke-width="1.5" stroke-linecap="round" stroke-linejoin="round"/>
<path d="M179.761 103.629L178.729 103.549L177.682 104.189L176.403 105.549L176.303 106.079L175.592 107.119L175.244 108.669L174.641 109.569L174.666 110.699L174.439 111.409L174.707 112.229L174.537 112.719L175.228 113.059L175.428 113.329L175.331 113.589L175.766 114.109L177.027 114.499L178.56 114.599L179.45 114.419L180.792 113.729L180.926 113.199L181.7 112.629L182.292 111.779L182.194 110.999L182.682 109.819L182.804 108.889L182.03 107.899L181.982 107.279L181.152 106.359L180.599 104.729L179.347 104.169L179.159 104.259" stroke="#555555" stroke-width="1.5" stroke-linecap="round" stroke-linejoin="round"/>
<path d="M198.098 99.139L207.749 114.299" stroke="#555555" stroke-width="1.5" stroke-linecap="round" stroke-linejoin="round"/>
<path d="M199.371 102.349V114.089" stroke="#555555" stroke-width="1.5" stroke-linecap="round" stroke-linejoin="round"/>
<path d="M208.148 101.459V114.329" stroke="#555555" stroke-width="1.5" stroke-linecap="round" stroke-linejoin="round"/>
<path d="M233.156 101.329H245.564" stroke="#555555" stroke-width="1.5" stroke-linecap="round" stroke-linejoin="round"/>
<path d="M240.051 100.769V113.169" stroke="#555555" stroke-width="1.5" stroke-linecap="round" stroke-linejoin="round"/>
<path d="M271.75 102.899V115.769" stroke="#555555" stroke-width="1.5" stroke-linecap="round" stroke-linejoin="round"/>
<path d="M261.699 100.579L271.349 115.739" stroke="#555555" stroke-width="1.5" stroke-linecap="round" stroke-linejoin="round"/>
<path d="M169.143 128.449L167.401 128.629L168.165 128.989L167.462 131.489L167.507 133.249L167.216 133.569L166.9 134.959L167.572 136.949L167.038 137.579L167.524 139.939L167.096 140.569L167.565 141.539L167.365 141.779L167.546 141.819L167.212 141.849L167.354 141.969L167.095 142.239L167.822 142.729L167.273 143.069L167.428 143.669L166.896 143.739L167.35 143.619L167.228 143.529L167.757 143.189L167.584 143.169H167.853L167.318 143.449L167.241 143.189L167.934 143.279L167.256 143.299L167.152 143.449L167.441 143.519L167.145 143.469L167.394 143.379L167.135 143.539L167.299 143.599L167.092 143.539L167.458 143.589L167.095 143.519L167.265 143.389L166.84 143.559" stroke="#555555" stroke-width="1.5" stroke-linecap="round" stroke-linejoin="round"/>
<path d="M168.703 129.799L168.257 129.869L168.581 130.019L168.223 130.069L168.975 130.599L168.982 131.219L169.541 131.669L169.372 131.889L169.541 132.199L170.474 132.649L171.487 134.549L172.871 136.229L172.878 136.529L173.549 136.609L174.042 136.989L174.563 136.559L174.033 136.519L174.239 136.399" stroke="#555555" stroke-width="1.5" stroke-linecap="round" stroke-linejoin="round"/>
<path d="M178.21 129.999L177.088 130.649L177.183 130.949L175.801 133.309L174.828 135.679L174.115 136.499L174.246 136.769L173.886 137.189L173.6 137.079L173.888 137.279" stroke="#555555" stroke-width="1.5" stroke-linecap="round" stroke-linejoin="round"/>
<path d="M178.793 129.629V140.659" stroke="#555555" stroke-width="1.5" stroke-linecap="round" stroke-linejoin="round"/>
<path d="M185.606 131.499L180.781 143.219" stroke="#555555" stroke-width="1.5" stroke-linecap="round" stroke-linejoin="round"/>
<path d="M185.84 128.149L191.355 141.939" stroke="#555555" stroke-width="1.5" stroke-linecap="round" stroke-linejoin="round"/>
<path d="M185.605 139.769H191.809" stroke="#555555" stroke-width="1.5" stroke-linecap="round" stroke-linejoin="round"/>
<path d="M210.981 128.589L209.755 128.489L208.511 129.249L206.991 130.859L206.873 131.499L206.029 132.739L205.615 134.569L204.899 135.649L204.927 136.989L204.658 137.819L204.977 138.809L204.775 139.389L205.595 139.779L205.833 140.109L205.718 140.409L206.234 141.039L207.733 141.499L209.554 141.619L210.611 141.399L212.205 140.579L212.365 139.959L213.285 139.279L213.987 138.269L213.871 137.339L214.451 135.939L214.596 134.829L213.677 133.659L213.62 132.919L212.634 131.829L211.976 129.899L210.489 129.229L210.266 129.339" stroke="#555555" stroke-width="1.75" stroke-linecap="round" stroke-linejoin="round"/>
<path d="M210.403 138.009L210.285 138.209L210.487 138.319L210.795 139.519L211.393 140.249L211.57 141.469L214.1 144.839L214.063 145.559L214.707 146.549L214.654 147.119L214.99 147.459L215.478 147.519L215.027 147.679L215.1 147.919L214.821 147.859L215.058 147.959L214.915 148.219L215.067 148.189L214.758 148.169H215.133L214.773 148.229H215.057L215.012 148.809" stroke="#555555" stroke-width="1.5" stroke-linecap="round" stroke-linejoin="round"/>
<path d="M194.828 102.149V115.019" stroke="#555555" stroke-width="1.5" stroke-linecap="round" stroke-linejoin="round"/>
<path d="M186.543 101.869V113.609" stroke="#555555" stroke-width="1.5" stroke-linecap="round" stroke-linejoin="round"/>
<path d="M187.393 114.449H192.219" stroke="#555555" stroke-width="1.5" stroke-linecap="round" stroke-linejoin="round"/>
<path d="M218.146 130.269V142.009" stroke="#555555" stroke-width="1.5" stroke-linecap="round" stroke-linejoin="round"/>
<path d="M218.994 142.849H223.82" stroke="#555555" stroke-width="1.5" stroke-linecap="round" stroke-linejoin="round"/>
<path d="M213.534 114.279L213.498 114.469L213.926 114.099L215.97 114.219L216.62 113.979L216.709 113.739L218.572 113.599L219.214 113.219L219.733 112.529L219.821 111.709L221.14 110.489L221.519 109.819L221.557 108.799L222.218 106.749L221.762 106.329L221.709 104.949L221.122 103.979L221.273 103.869L220.869 103.699L220.687 102.999L219.82 102.549L220.061 102.349L219.214 101.869L218.404 101.849L215.926 101.069L214.803 101.259L214.231 101.609L212.352 101.769L211.773 102.189L211.875 102.009" stroke="#555555" stroke-width="1.5" stroke-linecap="round" stroke-linejoin="round"/>
<path d="M213.18 101.109V113.989" stroke="#555555" stroke-width="1.5" stroke-linecap="round" stroke-linejoin="round"/>
<path d="M227.728 103.449L222.902 115.169" stroke="#555555" stroke-width="1.5" stroke-linecap="round" stroke-linejoin="round"/>
<path d="M227.963 100.099L233.477 113.889" stroke="#555555" stroke-width="1.5" stroke-linecap="round" stroke-linejoin="round"/>
<path d="M227.729 111.719H233.933" stroke="#555555" stroke-width="1.5" stroke-linecap="round" stroke-linejoin="round"/>
<path d="M248.396 101.749V114.629" stroke="#555555" stroke-width="1.5" stroke-linecap="round" stroke-linejoin="round"/>
<path d="M195.509 132.419L193.43 132.549L194.257 132.429L194.049 132.439L194.208 132.589L193.924 132.779L194.178 133.089L193.905 133.309L194.413 134.079L194.581 134.949L194.421 135.489L194.705 138.249L194.204 139.779L194.154 141.939L194.565 142.349L195.033 141.289" stroke="#555555" stroke-width="1.5" stroke-linecap="round" stroke-linejoin="round"/>
<path d="M195.719 131.339L195.547 131.109L195.643 129.829L195.494 129.609L196.523 128.309L197.094 127.909L198.135 127.619L199.364 127.899L200.495 128.999L200.822 130.399L199.98 132.639L197.79 135.149L196.848 135.409L197.225 135.209L197.955 135.499L199.38 136.849L200.328 138.679L201.152 139.669L201.295 141.309L201.783 142.519L201.973 142.329L201.829 142.299" stroke="#555555" stroke-width="1.5" stroke-linecap="round" stroke-linejoin="round"/>
<path d="M262.975 103.789V115.529" stroke="#555555" stroke-width="1.5" stroke-linecap="round" stroke-linejoin="round"/>
<path d="M257.278 103.569L256.246 103.489L255.2 104.129L253.92 105.489L253.821 106.019L253.11 107.059L252.762 108.609L252.159 109.509L252.183 110.639L251.957 111.349L252.225 112.169L252.055 112.659L252.745 112.989L252.946 113.269L252.849 113.519L253.283 114.049L254.545 114.439L256.078 114.539L256.967 114.349L258.309 113.669L258.443 113.139L259.218 112.569L259.809 111.719L259.712 110.939L260.199 109.759L260.321 108.829L259.548 107.839L259.5 107.219L258.67 106.299L258.117 104.669L256.864 104.109L256.677 104.199" stroke="#555555" stroke-width="1.5" stroke-linecap="round" stroke-linejoin="round"/>
<path d="M226.43 130.549V143.419" stroke="#555555" stroke-width="1.5" stroke-linecap="round" stroke-linejoin="round"/>
<path d="M232.042 128.379L230.862 128.619L230.825 128.439L231.288 128.449L230.954 128.539L230.849 128.929L230.666 128.689L231.101 128.729L230.773 128.469L230.359 128.759L230.766 128.829L230.526 129.259L230.715 131.519L230.538 133.999L230.938 135.709L230.633 137.399L230.809 138.249L230.581 138.649L230.678 141.329L231.252 141.579L230.922 141.989L231.303 142.279L230.844 142.339L231.159 142.479L230.977 142.499L231.115 142.209L230.789 142.049L230.927 141.789L230.712 141.959L231.165 141.969L230.709 141.929L231.033 142.039L230.799 142.019L231.002 142.159L230.629 142.279L230.929 142.349L230.709 142.419L231.2 142.309L230.823 142.409L231.05 142.339L230.984 142.189L230.923 142.399L230.765 142.339H231.192H230.739L231.13 142.219L230.859 142.209L231.158 142.159L230.994 141.849L230.933 142.209L230.65 142.009" stroke="#555555" stroke-width="1.5" stroke-linecap="round" stroke-linejoin="round"/>
<path d="M230.922 128.809H239.194" stroke="#555555" stroke-width="1.5" stroke-linecap="round" stroke-linejoin="round"/>
<path d="M231.846 141.619H240.117" stroke="#555555" stroke-width="1.5" stroke-linecap="round" stroke-linejoin="round"/>
<path d="M231.352 134.559H236.464" stroke="#555555" stroke-width="1.5" stroke-linecap="round" stroke-linejoin="round"/>
<path d="M249.124 129.169L248.516 129.179L247.862 128.699H247.14L245.961 129.239L244.541 130.869L244.246 131.669L244.575 131.819L244.208 132.749L245.243 134.939L247.592 135.499L248.325 136.299L248.573 137.049L248.327 137.089L248.618 137.259L248.704 138.089L248.58 139.589L248.202 140.019L248.36 140.469L247.656 141.189L247.564 141.619L247.252 141.869L247.377 141.959L245.549 142.479L243.383 142.369L242.426 141.839L242.18 141.999" stroke="#555555" stroke-width="1.5" stroke-linecap="round" stroke-linejoin="round"/>
<path d="M262.487 141.959L262.458 142.109L262.811 141.799L264.499 141.909L265.036 141.709L265.11 141.509L266.649 141.389L267.178 141.079L267.607 140.509L267.68 139.839L268.769 138.829L269.082 138.269L269.113 137.429L269.66 135.739L269.283 135.389L269.239 134.249L268.754 133.449L268.879 133.349L268.546 133.219L268.395 132.639L267.679 132.269L267.878 132.099L267.179 131.699L266.509 131.689L264.463 131.049L263.536 131.199L263.063 131.489L261.511 131.619L261.033 131.969L261.118 131.819" stroke="#555555" stroke-width="1.25" stroke-linecap="round" stroke-linejoin="round"/>
<path d="M274.555 132.089L270.57 141.769" stroke="#555555" stroke-width="1.25" stroke-linecap="round" stroke-linejoin="round"/>
<path d="M274.748 129.329L279.303 140.709" stroke="#555555" stroke-width="1.25" stroke-linecap="round" stroke-linejoin="round"/>
<path d="M274.557 138.919H279.681" stroke="#555555" stroke-width="1.25" stroke-linecap="round" stroke-linejoin="round"/>
<path d="M262.831 141.039L262.802 141.189L263.156 140.889L264.843 140.989L265.381 140.789L265.454 140.589L266.993 140.479L267.523 140.159L267.951 139.589L268.024 138.919L269.113 137.909L269.426 137.349L269.457 136.509L270.004 134.819L269.627 134.469L269.583 133.339L269.098 132.529L269.223 132.439L268.89 132.299L268.739 131.719L268.023 131.349L268.222 131.179L267.523 130.789L266.853 130.769L264.807 130.129L263.88 130.279L263.407 130.569L261.855 130.699L261.377 131.049L261.462 130.899" stroke="#555555" stroke-width="1.25" stroke-linecap="round" stroke-linejoin="round"/>
<path d="M262.539 130.159V140.789" stroke="#555555" stroke-width="1.25" stroke-linecap="round" stroke-linejoin="round"/>
<path d="M274.212 133.009L270.227 142.689" stroke="#555555" stroke-width="1.25" stroke-linecap="round" stroke-linejoin="round"/>
<path d="M274.404 130.239L278.959 141.629" stroke="#555555" stroke-width="1.25" stroke-linecap="round" stroke-linejoin="round"/>
<path d="M274.213 139.839H279.337" stroke="#555555" stroke-width="1.25" stroke-linecap="round" stroke-linejoin="round"/>
<path d="M262.195 131.079V141.709" stroke="#555555" stroke-width="1.25" stroke-linecap="round" stroke-linejoin="round"/>
<path d="M218.596 153.359H217.988L217.334 152.889L216.612 152.879L215.433 153.429L214.013 155.059L213.718 155.849L214.047 155.999L213.68 156.929L214.715 159.119L217.064 159.689L217.797 160.479L218.045 161.229L217.799 161.269L218.089 161.439L218.176 162.269L218.052 163.769L217.673 164.199L217.832 164.659L217.128 165.379L217.036 165.809L216.724 166.049L216.848 166.139L215.021 166.669L212.854 166.559L211.898 166.019L211.652 166.189" stroke="#555555" stroke-width="1.5" stroke-linecap="round" stroke-linejoin="round"/>
<path d="M223.826 154.579V167.449" stroke="#555555" stroke-width="1.5" stroke-linecap="round" stroke-linejoin="round"/>
<path d="M230.342 154.979V166.729" stroke="#555555" stroke-width="1.5" stroke-linecap="round" stroke-linejoin="round"/>
<path d="M231.191 167.559H236.016" stroke="#555555" stroke-width="1.5" stroke-linecap="round" stroke-linejoin="round"/>
<path d="M236.049 152.529L244.321 167.009" stroke="#555555" stroke-width="1.5" stroke-linecap="round" stroke-linejoin="round"/>
<path d="M254.638 156.019L249.812 167.739" stroke="#555555" stroke-width="1.5" stroke-linecap="round" stroke-linejoin="round"/>
<path d="M254.871 152.669L260.385 166.459" stroke="#555555" stroke-width="1.5" stroke-linecap="round" stroke-linejoin="round"/>
<path d="M254.639 164.289H260.843" stroke="#555555" stroke-width="1.5" stroke-linecap="round" stroke-linejoin="round"/>
<path d="M218.18 154.469H217.571L216.917 153.999L216.195 153.989L215.016 154.539L213.596 156.169L213.302 156.959L213.63 157.109L213.264 158.039L214.299 160.229L216.647 160.799L217.38 161.589L217.628 162.339L217.382 162.379L217.673 162.549L217.759 163.379L217.635 164.879L217.257 165.309L217.415 165.769L216.712 166.489L216.619 166.919L216.307 167.159L216.432 167.249L214.604 167.779L212.438 167.669L211.481 167.129L211.236 167.299" stroke="#555555" stroke-width="1.5" stroke-linecap="round" stroke-linejoin="round"/>
<path d="M223.41 155.689V168.559" stroke="#555555" stroke-width="1.5" stroke-linecap="round" stroke-linejoin="round"/>
<path d="M229.926 156.089V167.839" stroke="#555555" stroke-width="1.5" stroke-linecap="round" stroke-linejoin="round"/>
<path d="M230.775 168.669H235.6" stroke="#555555" stroke-width="1.5" stroke-linecap="round" stroke-linejoin="round"/>
<path d="M235.633 153.649L243.904 168.119" stroke="#555555" stroke-width="1.5" stroke-linecap="round" stroke-linejoin="round"/>
<path d="M246.389 168.389V152.529" stroke="#555555" stroke-width="1.5" stroke-linecap="round" stroke-linejoin="round"/>
<path d="M245.971 169.499V153.649" stroke="#555555" stroke-width="1.5" stroke-linecap="round" stroke-linejoin="round"/>
<path d="M254.221 157.129L249.396 168.849" stroke="#555555" stroke-width="1.5" stroke-linecap="round" stroke-linejoin="round"/>
<path d="M254.455 153.779L259.97 167.569" stroke="#555555" stroke-width="1.5" stroke-linecap="round" stroke-linejoin="round"/>
<path d="M254.221 165.399H260.425" stroke="#555555" stroke-width="1.5" stroke-linecap="round" stroke-linejoin="round"/>
<path d="M44.9398 349.419L43.8207 349.649L43.7857 349.479L44.2247 349.489L43.9077 349.579L43.8077 349.939L43.6347 349.719L44.0468 349.759L43.7357 349.509L43.3438 349.789L43.7297 349.849L43.5017 350.259L43.6808 352.399L43.5128 354.759L43.8927 356.379L43.6028 357.979L43.7708 358.789L43.5537 359.159L43.6458 361.709L44.1907 361.939L43.8777 362.329L44.2387 362.609L43.8037 362.669L44.1028 362.799L43.9297 362.819L44.0608 362.549L43.7517 362.399L43.8828 362.149L43.6777 362.309L44.1078 362.319L43.6758 362.279L43.9828 362.389L43.7607 362.369L43.9537 362.499L43.5988 362.609L43.8838 362.679L43.6758 362.749L44.1418 362.639L43.7838 362.729L43.9987 362.669L43.9367 362.519L43.8788 362.729L43.7288 362.669H44.1338H43.7037L44.0757 362.549H43.8177L44.1017 362.499L43.9457 362.199L43.8878 362.549L43.6198 362.359" stroke="#555555" stroke-width="1.25" stroke-linecap="round" stroke-linejoin="round"/>
<path d="M43.875 349.829H51.725" stroke="#555555" stroke-width="1.25" stroke-linecap="round" stroke-linejoin="round"/>
<path d="M44.75 361.989H52.6" stroke="#555555" stroke-width="1.25" stroke-linecap="round" stroke-linejoin="round"/>
<path d="M44.2832 355.289H49.1342" stroke="#555555" stroke-width="1.25" stroke-linecap="round" stroke-linejoin="round"/>
<path d="M39.2472 349.269H38.6702L38.0492 348.819L37.3642 348.809L36.2452 349.329L34.8982 350.879L34.6182 351.629L34.9302 351.769L34.5822 352.649L35.5642 354.739L37.7932 355.269L38.4882 356.029L38.7242 356.739L38.4902 356.779L38.7662 356.939L38.8482 357.729L38.7312 359.149L38.3712 359.559L38.5222 359.989L37.8542 360.669L37.7662 361.079L37.4702 361.309L37.5882 361.399L35.8542 361.889L33.7992 361.789L32.8912 361.279L32.6582 361.439" stroke="#555555" stroke-width="1.25" stroke-linecap="round" stroke-linejoin="round"/>
<path d="M77.7773 350.429L83.0103 363.509" stroke="#555555" stroke-width="1.25" stroke-linecap="round" stroke-linejoin="round"/>
<path d="M77.5547 361.449H83.4417" stroke="#555555" stroke-width="1.25" stroke-linecap="round" stroke-linejoin="round"/>
<path d="M67.2542 353.809L65.2812 353.929L66.0652 353.819L65.8683 353.829L66.0193 353.969L65.7502 354.149L65.9912 354.439L65.7322 354.649L66.2143 355.379L66.3733 356.209L66.2213 356.719L66.4903 359.339L66.0162 360.789L65.9673 362.839L66.3582 363.229L66.8022 362.219" stroke="#555555" stroke-width="1.25" stroke-linecap="round" stroke-linejoin="round"/>
<path d="M67.4542 352.779L67.2912 352.559L67.3822 351.339L67.2402 351.139L68.2162 349.899L68.7592 349.529L69.7462 349.259L70.9132 349.519L71.9862 350.569L72.2962 351.889L71.4972 354.009L69.4192 356.399L68.5252 356.639L68.8832 356.459L69.5762 356.729L70.9282 358.009L71.8282 359.749L72.6092 360.679L72.7452 362.239L73.2082 363.389L73.3892 363.209L73.2512 363.179" stroke="#555555" stroke-width="1.25" stroke-linecap="round" stroke-linejoin="round"/>
<path d="M77.5556 353.599L72.9766 364.719" stroke="#555555" stroke-width="1.25" stroke-linecap="round" stroke-linejoin="round"/>
<path d="M87.166 351.669V362.819" stroke="#555555" stroke-width="1.25" stroke-linecap="round" stroke-linejoin="round"/>
<path d="M87.9727 363.609H92.5516" stroke="#555555" stroke-width="1.25" stroke-linecap="round" stroke-linejoin="round"/>
<path d="M92.582 349.349L100.431 363.089" stroke="#555555" stroke-width="1.25" stroke-linecap="round" stroke-linejoin="round"/>
<path d="M102.395 364.389V349.349" stroke="#555555" stroke-width="1.25" stroke-linecap="round" stroke-linejoin="round"/>
<path d="M77.2305 340.729H84.4465" stroke="#555555" stroke-width="1.25" stroke-linecap="round" stroke-linejoin="round"/>
<path d="M72.932 330.369H72.401L71.831 329.959L71.201 329.949L70.173 330.429L68.934 331.849L68.677 332.539L68.964 332.669L68.644 333.479L69.547 335.399L71.595 335.889L72.235 336.579L72.451 337.229L72.237 337.269L72.49 337.419L72.566 338.139L72.458 339.449L72.127 339.829L72.266 340.229L71.652 340.849L71.571 341.229L71.299 341.439L71.408 341.519L69.813 341.979L67.923 341.879L67.089 341.409L66.875 341.559" stroke="#555555" stroke-width="1.25" stroke-linecap="round" stroke-linejoin="round"/>
<path d="M77.4035 329.179L76.3745 329.379L76.3415 329.229L76.7455 329.239L76.4545 329.319L76.3625 329.659L76.2025 329.449L76.5825 329.479L76.2955 329.259L75.9355 329.509L76.2905 329.569L76.0815 329.949L76.2455 331.909L76.0905 334.079L76.4405 335.569L76.1735 337.039L76.3275 337.789L76.1285 338.129L76.2135 340.469L76.7135 340.689L76.4265 341.049L76.7585 341.299L76.3585 341.349L76.6335 341.479L76.4745 341.499L76.5945 341.239L76.3105 341.099L76.4305 340.879L76.2425 341.029L76.6385 341.039L76.2405 340.999L76.5225 341.099L76.3195 341.079L76.4955 341.199L76.1705 341.299L76.4325 341.359L76.2405 341.429L76.6685 341.329L76.3405 341.409L76.5375 341.349L76.4805 341.219L76.4275 341.409L76.2895 341.349H76.6615H76.2665L76.6085 341.249H76.3715L76.6315 341.199L76.4895 340.929L76.4355 341.239L76.1895 341.069" stroke="#555555" stroke-width="1.25" stroke-linecap="round" stroke-linejoin="round"/>
<path d="M76.4238 329.549H83.6408" stroke="#555555" stroke-width="1.25" stroke-linecap="round" stroke-linejoin="round"/>
<path d="M76.8008 334.569H81.2598" stroke="#555555" stroke-width="1.25" stroke-linecap="round" stroke-linejoin="round"/>
<path d="M62.5977 329.269V341.489" stroke="#555555" stroke-width="1.25" stroke-linecap="round" stroke-linejoin="round"/>
<path d="M55.543 340.939H60.122" stroke="#555555" stroke-width="1.25" stroke-linecap="round" stroke-linejoin="round"/>
<path d="M95.7168 329.309V341.529" stroke="#555555" stroke-width="1.25" stroke-linecap="round" stroke-linejoin="round"/>
<path d="M87.8555 329.039V340.179" stroke="#555555" stroke-width="1.25" stroke-linecap="round" stroke-linejoin="round"/>
<path d="M88.6602 340.979H93.2392" stroke="#555555" stroke-width="1.25" stroke-linecap="round" stroke-linejoin="round"/>
<path d="M102.048 328.689L100.395 328.869L101.12 329.199L100.452 331.579L100.495 333.249L100.219 333.549L99.9203 334.869L100.557 336.759L100.051 337.359L100.512 339.589L100.106 340.199L100.551 341.119L100.36 341.349L100.532 341.379L100.215 341.409L100.35 341.529L100.104 341.779L100.794 342.249L100.274 342.569L100.42 343.139L99.9153 343.209L100.347 343.089L100.231 342.999L100.732 342.679L100.569 342.659H100.823L100.316 342.929L100.243 342.679L100.9 342.769L100.258 342.789L100.158 342.919L100.433 342.999L100.152 342.949L100.388 342.859L100.142 343.009L100.298 343.069L100.102 343.019L100.449 343.059L100.105 342.999L100.266 342.869L99.8633 343.029" stroke="#555555" stroke-width="1.25" stroke-linecap="round" stroke-linejoin="round"/>
<path d="M101.629 329.969L101.206 330.039L101.514 330.179L101.174 330.229L101.888 330.739L101.894 331.319L102.425 331.749L102.264 331.959L102.425 332.249L103.31 332.679L104.272 334.479L105.585 336.079L105.591 336.369L106.228 336.429L106.696 336.799L107.19 336.389L106.688 336.349L106.883 336.239" stroke="#555555" stroke-width="1.25" stroke-linecap="round" stroke-linejoin="round"/>
<path d="M110.651 330.159L109.587 330.789L109.677 331.069L108.366 333.309L107.442 335.559L106.766 336.329L106.89 336.589L106.548 336.989L106.277 336.879L106.551 337.069" stroke="#555555" stroke-width="1.25" stroke-linecap="round" stroke-linejoin="round"/>
<path d="M111.205 329.819V340.279" stroke="#555555" stroke-width="1.25" stroke-linecap="round" stroke-linejoin="round"/>
<path d="M54.7363 328.999V340.149" stroke="#555555" stroke-width="1.25" stroke-linecap="round" stroke-linejoin="round"/>
<path d="M40.1362 328.359L38.4832 328.539L39.2082 328.879L38.5412 331.249L38.5842 332.929L38.3072 333.219L38.0082 334.539L38.6452 336.429L38.1392 337.029L38.6002 339.269L38.1942 339.869L38.6392 340.789L38.4492 341.019L38.6202 341.049L38.3042 341.089L38.4382 341.199L38.1922 341.449L38.8822 341.919L38.3622 342.239L38.5092 342.809L38.0042 342.879L38.4352 342.769L38.3192 342.669L38.8212 342.349L38.6572 342.329L38.9122 342.339L38.4042 342.599L38.3312 342.349L38.9882 342.439L38.3462 342.459L38.2472 342.599L38.5212 342.669L38.2412 342.619L38.4762 342.529L38.2302 342.679L38.3872 342.739L38.1902 342.689L38.5372 342.729L38.1932 342.669L38.3542 342.539L37.9512 342.709" stroke="#555555" stroke-width="1.25" stroke-linecap="round" stroke-linejoin="round"/>
<path d="M39.7187 329.639L39.2947 329.709L39.6027 329.849L39.2637 329.899L39.9767 330.409L39.9827 330.999L40.5137 331.419L40.3527 331.629L40.5137 331.919L41.3987 332.349L42.3607 334.149L43.6737 335.749L43.6797 336.039L44.3167 336.109L44.7847 336.469L45.2787 336.059L44.7767 336.019L44.9717 335.909" stroke="#555555" stroke-width="1.25" stroke-linecap="round" stroke-linejoin="round"/>
<path d="M48.7392 329.839L47.6742 330.459L47.7652 330.739L46.4542 332.979L45.5292 335.229L44.8532 336.009L44.9772 336.259L44.6362 336.659L44.3652 336.559L44.6382 336.749" stroke="#555555" stroke-width="1.25" stroke-linecap="round" stroke-linejoin="round"/>
<path d="M49.293 329.489V339.959" stroke="#555555" stroke-width="1.25" stroke-linecap="round" stroke-linejoin="round"/>
<path d="M109.919 350.089L108.799 350.309L108.764 350.139L109.203 350.159L108.886 350.239L108.787 350.609L108.613 350.389L109.026 350.419L108.714 350.169L108.322 350.449L108.708 350.519L108.481 350.929L108.66 353.059L108.491 355.419L108.871 357.049L108.581 358.649L108.749 359.459L108.532 359.829L108.625 362.379L109.169 362.609L108.856 362.999L109.218 363.269L108.782 363.329L109.081 363.469L108.908 363.489L109.039 363.209L108.73 363.059L108.861 362.819L108.656 362.979L109.086 362.989L108.654 362.949L108.961 363.049L108.739 363.029L108.932 363.159L108.578 363.279L108.863 363.339L108.654 363.419L109.12 363.309L108.762 363.399L108.978 363.329L108.915 363.189L108.857 363.389L108.707 363.329H109.112H108.682L109.054 363.219H108.796L109.08 363.159L108.925 362.869L108.866 363.209L108.598 363.019" stroke="#555555" stroke-width="1.25" stroke-linecap="round" stroke-linejoin="round"/>
<path d="M108.855 350.499H116.705" stroke="#555555" stroke-width="1.25" stroke-linecap="round" stroke-linejoin="round"/>
<path d="M109.732 362.659H117.581" stroke="#555555" stroke-width="1.25" stroke-linecap="round" stroke-linejoin="round"/>
<path d="M109.264 355.949H114.115" stroke="#555555" stroke-width="1.25" stroke-linecap="round" stroke-linejoin="round"/>
<path d="M126.128 350.839H125.55L124.93 350.389H124.245L123.126 350.909L121.779 352.459L121.499 353.209L121.811 353.349L121.463 354.229L122.445 356.309L124.674 356.849L125.369 357.599L125.605 358.309L125.371 358.349L125.647 358.509L125.729 359.299L125.612 360.729L125.252 361.129L125.403 361.569L124.735 362.249L124.647 362.649L124.351 362.889L124.469 362.969L122.735 363.469L120.679 363.369L119.771 362.859L119.539 363.019" stroke="#555555" stroke-width="1.25" stroke-linecap="round" stroke-linejoin="round"/>
<path d="M56.7416 352.609L54.7676 352.729L55.5526 352.619H55.3556L55.5056 352.769L55.2366 352.949L55.4776 353.239L55.2186 353.449L55.7006 354.179L55.8606 355.009L55.7086 355.519L55.9776 358.139L55.5026 359.589L55.4546 361.639L55.8456 362.019L56.2886 361.019" stroke="#555555" stroke-width="1.25" stroke-linecap="round" stroke-linejoin="round"/>
<path d="M56.9395 351.579L56.7766 351.359L56.8676 350.139L56.7266 349.939L57.7025 348.699L58.2446 348.329L59.2325 348.049L60.3996 348.309L61.4726 349.359L61.7816 350.689L60.9825 352.809L58.9055 355.189L58.0116 355.439L58.3696 355.249L59.0616 355.529L60.4146 356.809L61.3136 358.549L62.0956 359.479L62.2316 361.039L62.6945 362.189L62.8745 362.009L62.7375 361.979" stroke="#555555" stroke-width="1.25" stroke-linecap="round" stroke-linejoin="round"/>
<path d="M45.3704 348.309L44.2504 348.529L44.2154 348.359L44.6544 348.369L44.3374 348.459L44.2374 348.819L44.0644 348.599L44.4764 348.639L44.1654 348.389L43.7734 348.669L44.1594 348.729L43.9314 349.139L44.1104 351.279L43.9424 353.639L44.3224 355.259L44.0324 356.859L44.2004 357.669L43.9834 358.049L44.0754 360.589L44.6204 360.829L44.3074 361.209L44.6684 361.489L44.2334 361.549L44.5324 361.679L44.3594 361.699L44.4904 361.429L44.1814 361.279L44.3124 361.029L44.1074 361.189L44.5374 361.199L44.1054 361.159L44.4124 361.269L44.1904 361.249L44.3834 361.379L44.0284 361.489L44.3134 361.559L44.1054 361.629L44.5714 361.529L44.2134 361.609L44.4284 361.549L44.3664 361.399L44.3084 361.609L44.1584 361.549H44.5634H44.1334L44.5054 361.429H44.2474L44.5314 361.379L44.3754 361.089L44.3174 361.429L44.0494 361.239" stroke="#555555" stroke-width="1.25" stroke-linecap="round" stroke-linejoin="round"/>
<path d="M44.3066 348.709H52.1566" stroke="#555555" stroke-width="1.25" stroke-linecap="round" stroke-linejoin="round"/>
<path d="M45.1816 360.869H53.0316" stroke="#555555" stroke-width="1.25" stroke-linecap="round" stroke-linejoin="round"/>
<path d="M44.7148 354.169H49.5658" stroke="#555555" stroke-width="1.25" stroke-linecap="round" stroke-linejoin="round"/>
<path d="M39.6788 348.149H39.1018L38.4808 347.699L37.7958 347.689L36.6768 348.209L35.3298 349.759L35.0498 350.509L35.3618 350.659L35.0138 351.539L35.9958 353.619L38.2248 354.149L38.9198 354.909L39.1558 355.619L38.9218 355.659L39.1978 355.819L39.2798 356.609L39.1628 358.029L38.8038 358.439L38.9538 358.869L38.2858 359.549L38.1978 359.959L37.9018 360.189L38.0208 360.279L36.2858 360.779L34.2308 360.669L33.3228 360.159L33.0898 360.319" stroke="#555555" stroke-width="1.25" stroke-linecap="round" stroke-linejoin="round"/>
<path d="M78.207 349.309L83.44 362.389" stroke="#555555" stroke-width="1.25" stroke-linecap="round" stroke-linejoin="round"/>
<path d="M77.9863 360.329H83.8733" stroke="#555555" stroke-width="1.25" stroke-linecap="round" stroke-linejoin="round"/>
<path d="M67.6859 352.689L65.7129 352.809L66.4979 352.699L66.2999 352.709L66.4509 352.849L66.1819 353.029L66.4229 353.319L66.1639 353.529L66.6459 354.259L66.8049 355.089L66.6539 355.599L66.9219 358.219L66.4479 359.669L66.3989 361.719L66.7899 362.109L67.2339 361.099" stroke="#555555" stroke-width="1.25" stroke-linecap="round" stroke-linejoin="round"/>
<path d="M67.8859 351.659L67.7229 351.439L67.8139 350.229L67.6719 350.019L68.6479 348.779L69.1909 348.409L70.1779 348.139L71.3448 348.399L72.4178 349.449L72.7279 350.769L71.9289 352.889L69.8509 355.279L68.9568 355.519L69.3148 355.339L70.0079 355.609L71.3599 356.889L72.2599 358.629L73.0419 359.569L73.1768 361.129L73.6409 362.269L73.8209 362.089L73.6829 362.059" stroke="#555555" stroke-width="1.25" stroke-linecap="round" stroke-linejoin="round"/>
<path d="M77.9853 352.479L73.4062 363.599" stroke="#555555" stroke-width="1.25" stroke-linecap="round" stroke-linejoin="round"/>
<path d="M87.5977 350.549V361.699" stroke="#555555" stroke-width="1.25" stroke-linecap="round" stroke-linejoin="round"/>
<path d="M88.4043 362.489H92.9833" stroke="#555555" stroke-width="1.25" stroke-linecap="round" stroke-linejoin="round"/>
<path d="M93.0137 348.229L100.863 361.969" stroke="#555555" stroke-width="1.25" stroke-linecap="round" stroke-linejoin="round"/>
<path d="M102.824 363.279V348.229" stroke="#555555" stroke-width="1.25" stroke-linecap="round" stroke-linejoin="round"/>
<path d="M77.6602 339.609H84.8762" stroke="#555555" stroke-width="1.25" stroke-linecap="round" stroke-linejoin="round"/>
<path d="M73.3636 329.249H72.8336L72.2626 328.839L71.6327 328.829L70.6046 329.309L69.3657 330.729L69.1086 331.419L69.3957 331.549L69.0757 332.359L69.9786 334.279L72.0266 334.769L72.6667 335.459L72.8827 336.119L72.6686 336.149L72.9217 336.299L72.9977 337.029L72.8896 338.339L72.5587 338.709L72.6977 339.109L72.0836 339.729L72.0027 340.109L71.7307 340.319L71.8397 340.399L70.2447 340.859L68.3546 340.759L67.5207 340.289L67.3066 340.439" stroke="#555555" stroke-width="1.25" stroke-linecap="round" stroke-linejoin="round"/>
<path d="M77.8332 328.059L76.8042 328.269L76.7712 328.109L77.1752 328.119L76.8842 328.199L76.7922 328.539L76.6322 328.329L77.0122 328.369L76.7262 328.139L76.3652 328.389L76.7202 328.449L76.5112 328.829L76.6752 330.789L76.5212 332.959L76.8702 334.459L76.6032 335.929L76.7572 336.669L76.5582 337.009L76.6432 339.349L77.1432 339.569L76.8562 339.929L77.1882 340.179L76.7882 340.229L77.0632 340.359L76.9042 340.379L77.0242 340.129L76.7402 339.989L76.8602 339.759L76.6722 339.909L77.0682 339.919L76.6702 339.879L76.9522 339.979L76.7492 339.959L76.9252 340.079L76.6002 340.189L76.8622 340.239L76.6702 340.309L77.0992 340.209L76.7702 340.299L76.9682 340.229L76.9102 340.099L76.8572 340.289L76.7192 340.229H77.0912H76.6962L77.0382 340.129H76.8012L77.0622 340.079L76.9192 339.809L76.8652 340.119L76.6192 339.949" stroke="#555555" stroke-width="1.25" stroke-linecap="round" stroke-linejoin="round"/>
<path d="M76.8555 328.429H84.0725" stroke="#555555" stroke-width="1.25" stroke-linecap="round" stroke-linejoin="round"/>
<path d="M77.2305 333.449H81.6905" stroke="#555555" stroke-width="1.25" stroke-linecap="round" stroke-linejoin="round"/>
<path d="M63.0293 328.149V340.369" stroke="#555555" stroke-width="1.25" stroke-linecap="round" stroke-linejoin="round"/>
<path d="M55.9746 339.819H60.5536" stroke="#555555" stroke-width="1.25" stroke-linecap="round" stroke-linejoin="round"/>
<path d="M96.1465 328.189V340.409" stroke="#555555" stroke-width="1.25" stroke-linecap="round" stroke-linejoin="round"/>
<path d="M88.2852 327.919V339.069" stroke="#555555" stroke-width="1.25" stroke-linecap="round" stroke-linejoin="round"/>
<path d="M89.0918 339.859H93.6708" stroke="#555555" stroke-width="1.25" stroke-linecap="round" stroke-linejoin="round"/>
<path d="M102.478 327.569L100.825 327.749L101.55 328.089L100.882 330.459L100.926 332.129L100.649 332.429L100.35 333.749L100.987 335.639L100.481 336.239L100.942 338.479L100.536 339.079L100.981 339.999L100.79 340.229L100.962 340.259L100.646 340.299L100.78 340.409L100.534 340.659L101.224 341.129L100.704 341.449L100.85 342.019L100.345 342.089L100.777 341.969L100.661 341.879L101.162 341.559L100.999 341.539L101.253 341.549L100.746 341.809L100.673 341.559L101.33 341.649L100.688 341.669L100.588 341.809L100.863 341.879L100.582 341.829L100.818 341.739L100.572 341.889L100.728 341.949L100.532 341.899L100.879 341.939L100.535 341.879L100.696 341.749L100.293 341.919" stroke="#555555" stroke-width="1.25" stroke-linecap="round" stroke-linejoin="round"/>
<path d="M102.06 328.849L101.637 328.919L101.945 329.059L101.605 329.109L102.319 329.619L102.325 330.199L102.856 330.629L102.695 330.839L102.856 331.129L103.741 331.559L104.703 333.359L106.016 334.959L106.022 335.249L106.659 335.319L107.127 335.679L107.621 335.269L107.119 335.229L107.314 335.119" stroke="#555555" stroke-width="1.25" stroke-linecap="round" stroke-linejoin="round"/>
<path d="M111.081 329.039L110.017 329.669L110.107 329.949L108.796 332.189L107.872 334.439L107.196 335.219L107.32 335.469L106.978 335.869L106.707 335.769L106.981 335.959" stroke="#555555" stroke-width="1.25" stroke-linecap="round" stroke-linejoin="round"/>
<path d="M111.637 328.699V339.159" stroke="#555555" stroke-width="1.25" stroke-linecap="round" stroke-linejoin="round"/>
<path d="M55.168 327.889V339.029" stroke="#555555" stroke-width="1.25" stroke-linecap="round" stroke-linejoin="round"/>
<path d="M40.5678 327.239L38.9148 327.419L39.6398 327.759L38.9728 330.129L39.0158 331.809L38.7388 332.099L38.4398 333.429L39.0768 335.309L38.5708 335.909L39.0318 338.149L38.6258 338.749L39.0708 339.669L38.8808 339.899L39.0518 339.939L38.7358 339.969L38.8698 340.079L38.6238 340.329L39.3138 340.799L38.7938 341.129L38.9408 341.689L38.4358 341.759L38.8668 341.649L38.7508 341.549L39.2528 341.229L39.0888 341.209L39.3438 341.219L38.8358 341.479L38.7628 341.239L39.4208 341.319L38.7778 341.339L38.6788 341.479L38.9528 341.549L38.6728 341.499L38.9078 341.409L38.6618 341.569L38.8188 341.619L38.6218 341.569L38.9698 341.619L38.6248 341.549L38.7858 341.419L38.3828 341.589" stroke="#555555" stroke-width="1.25" stroke-linecap="round" stroke-linejoin="round"/>
<path d="M40.1484 328.519L39.7244 328.589L40.0324 328.729L39.6934 328.789L40.4064 329.289L40.4124 329.879L40.9434 330.299L40.7824 330.519L40.9434 330.799L41.8284 331.229L42.7904 333.029L44.1034 334.629L44.1094 334.919L44.7474 334.989L45.2154 335.349L45.7084 334.949L45.2064 334.899L45.4014 334.789" stroke="#555555" stroke-width="1.25" stroke-linecap="round" stroke-linejoin="round"/>
<path d="M49.1709 328.719L48.1059 329.339L48.1969 329.619L46.8859 331.859L45.9619 334.109L45.2849 334.889L45.4089 335.139L45.0679 335.539L44.7969 335.439L45.0699 335.629" stroke="#555555" stroke-width="1.25" stroke-linecap="round" stroke-linejoin="round"/>
<path d="M49.7246 328.369V338.839" stroke="#555555" stroke-width="1.25" stroke-linecap="round" stroke-linejoin="round"/>
<path d="M110.351 348.969L109.231 349.189L109.196 349.019L109.635 349.039L109.318 349.119L109.219 349.489L109.045 349.269L109.458 349.299L109.146 349.059L108.754 349.329L109.14 349.399L108.913 349.809L109.092 351.949L108.923 354.309L109.303 355.929L109.014 357.529L109.181 358.339L108.964 358.709L109.057 361.259L109.601 361.489L109.288 361.879L109.65 362.149L109.214 362.209L109.513 362.349L109.34 362.369L109.471 362.089L109.162 361.939L109.293 361.699L109.089 361.859L109.518 361.869L109.086 361.829L109.393 361.939L109.171 361.919L109.364 362.039L109.01 362.159L109.295 362.219L109.086 362.299L109.552 362.189L109.194 362.279L109.41 362.209L109.347 362.069L109.289 362.269L109.139 362.209H109.544H109.114L109.486 362.099H109.228L109.512 362.039L109.357 361.749L109.298 362.089L109.03 361.899" stroke="#555555" stroke-width="1.25" stroke-linecap="round" stroke-linejoin="round"/>
<path d="M109.287 349.379H117.136" stroke="#555555" stroke-width="1.25" stroke-linecap="round" stroke-linejoin="round"/>
<path d="M110.162 361.539H118.011" stroke="#555555" stroke-width="1.25" stroke-linecap="round" stroke-linejoin="round"/>
<path d="M109.695 354.829H114.546" stroke="#555555" stroke-width="1.25" stroke-linecap="round" stroke-linejoin="round"/>
<path d="M126.56 349.719L125.982 349.729L125.362 349.279L124.677 349.269L123.558 349.789L122.211 351.339L121.931 352.089L122.243 352.229L121.895 353.109L122.877 355.189L125.106 355.729L125.801 356.489L126.037 357.189L125.803 357.229L126.079 357.389L126.161 358.179L126.044 359.609L125.684 360.009L125.835 360.449L125.167 361.129L125.079 361.539L124.783 361.769L124.901 361.859L123.167 362.349L121.111 362.249L120.204 361.739L119.971 361.899" stroke="#555555" stroke-width="1.25" stroke-linecap="round" stroke-linejoin="round"/>
<path d="M57.1713 351.489L55.1973 351.609L55.9822 351.499L55.7852 351.509L55.9352 351.649L55.6663 351.829L55.9073 352.119L55.6483 352.329L56.1302 353.059L56.2903 353.889L56.1382 354.399L56.4073 357.019L55.9323 358.469L55.8842 360.519L56.2752 360.899L56.7183 359.899" stroke="#555555" stroke-width="1.25" stroke-linecap="round" stroke-linejoin="round"/>
<path d="M57.3712 350.459L57.2082 350.239L57.2992 349.019L57.1582 348.819L58.1342 347.579L58.6762 347.209L59.6642 346.929L60.8312 347.189L61.9042 348.249L62.2142 349.569L61.4142 351.689L59.3372 354.069L58.4432 354.319L58.8012 354.139L59.4932 354.409L60.8462 355.689L61.7452 357.429L62.5272 358.359L62.6632 359.919L63.1262 361.069L63.3062 360.889L63.1692 360.859" stroke="#555555" stroke-width="1.25" stroke-linecap="round" stroke-linejoin="round"/>
<path d="M213.897 342.249H213.304L212.666 341.789L211.962 341.779L210.813 342.309L209.429 343.909L209.141 344.679L209.462 344.829L209.104 345.729L210.113 347.869L212.403 348.419L213.118 349.199L213.36 349.919L213.119 349.969L213.403 350.129L213.487 350.939L213.367 352.399L212.998 352.819L213.152 353.269L212.466 353.969L212.376 354.379L212.071 354.619L212.193 354.709L210.411 355.219L208.299 355.119L207.367 354.589L207.127 354.759" stroke="#555555" stroke-width="1.25" stroke-linecap="round" stroke-linejoin="round"/>
<path d="M223.432 343.169L222.426 343.089L221.405 343.719L220.158 345.039L220.061 345.559L219.368 346.579L219.029 348.079L218.441 348.969L218.464 350.069L218.244 350.749L218.505 351.559L218.339 352.039L219.012 352.359L219.208 352.629L219.113 352.879L219.537 353.389L220.767 353.769L222.261 353.869L223.128 353.689L224.437 353.019L224.568 352.499L225.323 351.949L225.899 351.119L225.804 350.349L226.28 349.209L226.399 348.299L225.644 347.329L225.597 346.729L224.789 345.829L224.249 344.249L223.028 343.699L222.846 343.789" stroke="#555555" stroke-width="1.25" stroke-linecap="round" stroke-linejoin="round"/>
<path d="M232.512 344.829L227.807 356.259" stroke="#555555" stroke-width="1.25" stroke-linecap="round" stroke-linejoin="round"/>
<path d="M232.74 341.569L238.116 355.009" stroke="#555555" stroke-width="1.25" stroke-linecap="round" stroke-linejoin="round"/>
<path d="M232.512 352.899H238.56" stroke="#555555" stroke-width="1.25" stroke-linecap="round" stroke-linejoin="round"/>
<path d="M247.5 335.389H254.913" stroke="#555555" stroke-width="1.25" stroke-linecap="round" stroke-linejoin="round"/>
<path d="M243.086 324.739H242.541L241.955 324.319L241.308 324.309L240.251 324.799L238.979 326.269L238.714 326.979L239.009 327.109L238.68 327.939L239.608 329.909L241.713 330.409L242.37 331.129L242.592 331.799L242.372 331.839L242.632 331.989L242.71 332.729L242.599 334.079L242.26 334.459L242.402 334.869L241.771 335.519L241.688 335.899L241.408 336.119L241.52 336.199L239.882 336.669L237.94 336.569L237.083 336.089L236.863 336.239" stroke="#555555" stroke-width="1.25" stroke-linecap="round" stroke-linejoin="round"/>
<path d="M247.678 323.519L246.621 323.729L246.588 323.569L247.002 323.579L246.703 323.669L246.609 324.009L246.445 323.799L246.835 323.839L246.541 323.599L246.17 323.859L246.535 323.929L246.32 324.309L246.489 326.329L246.33 328.559L246.689 330.089L246.415 331.599L246.573 332.369L246.369 332.719L246.456 335.129L246.97 335.349L246.675 335.709L247.016 335.969L246.605 336.029L246.887 336.159L246.724 336.179L246.847 335.919L246.556 335.769L246.679 335.539L246.486 335.689L246.892 335.699L246.484 335.659L246.774 335.769L246.564 335.749L246.746 335.869L246.412 335.979L246.681 336.039L246.484 336.109L246.924 336.009L246.586 336.089L246.789 336.029L246.73 335.889L246.676 336.089L246.534 336.029H246.917H246.511L246.861 335.919H246.618L246.886 335.869L246.739 335.589L246.684 335.919L246.431 335.739" stroke="#555555" stroke-width="1.25" stroke-linecap="round" stroke-linejoin="round"/>
<path d="M246.674 323.909H254.088" stroke="#555555" stroke-width="1.25" stroke-linecap="round" stroke-linejoin="round"/>
<path d="M247.059 329.059H251.641" stroke="#555555" stroke-width="1.25" stroke-linecap="round" stroke-linejoin="round"/>
<path d="M232.469 323.619V336.169" stroke="#555555" stroke-width="1.25" stroke-linecap="round" stroke-linejoin="round"/>
<path d="M225.219 335.609H229.924" stroke="#555555" stroke-width="1.25" stroke-linecap="round" stroke-linejoin="round"/>
<path d="M266.494 323.659V336.209" stroke="#555555" stroke-width="1.25" stroke-linecap="round" stroke-linejoin="round"/>
<path d="M258.416 323.379V334.829" stroke="#555555" stroke-width="1.25" stroke-linecap="round" stroke-linejoin="round"/>
<path d="M259.244 335.639H263.949" stroke="#555555" stroke-width="1.25" stroke-linecap="round" stroke-linejoin="round"/>
<path d="M272.999 323.019L271.3 323.199L272.045 323.549L271.36 325.979L271.404 327.709L271.12 328.009L270.812 329.369L271.467 331.309L270.947 331.919L271.421 334.219L271.003 334.839L271.46 335.789L271.265 336.019L271.441 336.059L271.116 336.089L271.254 336.209L271.002 336.469L271.711 336.949L271.176 337.279L271.327 337.859L270.808 337.929L271.251 337.819L271.132 337.719L271.647 337.389L271.479 337.369L271.741 337.379L271.219 337.649L271.144 337.399L271.82 337.479L271.159 337.499L271.057 337.639L271.339 337.719L271.051 337.659L271.293 337.579L271.041 337.729L271.201 337.789L270.999 337.739L271.356 337.789L271.002 337.719L271.168 337.579L270.754 337.759" stroke="#555555" stroke-width="1.25" stroke-linecap="round" stroke-linejoin="round"/>
<path d="M272.57 324.339L272.134 324.409L272.451 324.549L272.102 324.599L272.835 325.119L272.842 325.729L273.387 326.159L273.221 326.379L273.387 326.679L274.296 327.119L275.284 328.969L276.634 330.609L276.64 330.909L277.295 330.979L277.775 331.349L278.283 330.929L277.766 330.889L277.967 330.779" stroke="#555555" stroke-width="1.25" stroke-linecap="round" stroke-linejoin="round"/>
<path d="M281.838 324.529L280.744 325.169L280.837 325.459L279.49 327.759L278.541 330.079L277.846 330.869L277.973 331.139L277.622 331.549L277.344 331.439L277.625 331.629" stroke="#555555" stroke-width="1.25" stroke-linecap="round" stroke-linejoin="round"/>
<path d="M282.406 324.179V334.929" stroke="#555555" stroke-width="1.25" stroke-linecap="round" stroke-linejoin="round"/>
<path d="M224.391 323.339V334.789" stroke="#555555" stroke-width="1.25" stroke-linecap="round" stroke-linejoin="round"/>
<path d="M209.391 322.679L207.693 322.859L208.438 323.209L207.752 325.649L207.796 327.369L207.512 327.679L207.204 329.029L207.859 330.969L207.339 331.579L207.813 333.889L207.395 334.509L207.852 335.449L207.657 335.679L207.833 335.719L207.508 335.749L207.646 335.869L207.394 336.129L208.103 336.609L207.568 336.939L207.719 337.519L207.2 337.599L207.643 337.479L207.524 337.389L208.039 337.049L207.871 337.039H208.133L207.611 337.309L207.536 337.059L208.212 337.149L207.551 337.169L207.45 337.309L207.731 337.379L207.443 337.329L207.685 337.239L207.433 337.399L207.593 337.449L207.391 337.399L207.748 337.449L207.394 337.379L207.56 337.249L207.146 337.419" stroke="#555555" stroke-width="1.25" stroke-linecap="round" stroke-linejoin="round"/>
<path d="M208.96 323.999L208.524 324.069L208.841 324.209L208.492 324.269L209.225 324.789L209.232 325.389L209.777 325.829L209.612 326.039L209.777 326.339L210.686 326.779L211.674 328.629L213.024 330.279L213.03 330.569L213.685 330.639L214.165 331.009L214.673 330.599L214.157 330.549L214.357 330.439" stroke="#555555" stroke-width="1.25" stroke-linecap="round" stroke-linejoin="round"/>
<path d="M218.23 324.199L217.136 324.829L217.229 325.129L215.882 327.429L214.933 329.739L214.238 330.539L214.365 330.799L214.014 331.209L213.736 331.099L214.017 331.299" stroke="#555555" stroke-width="1.25" stroke-linecap="round" stroke-linejoin="round"/>
<path d="M218.799 323.839V334.589" stroke="#555555" stroke-width="1.25" stroke-linecap="round" stroke-linejoin="round"/>
<path d="M242.579 345.919L240.551 346.039L241.358 345.929L241.155 345.939L241.31 346.079L241.033 346.269L241.281 346.569L241.015 346.779L241.51 347.529L241.674 348.389L241.518 348.909L241.794 351.599L241.306 353.099L241.257 355.199L241.658 355.589L242.114 354.559" stroke="#555555" stroke-width="1.25" stroke-linecap="round" stroke-linejoin="round"/>
<path d="M242.783 344.859L242.615 344.639L242.708 343.389L242.562 343.169L243.565 341.909L244.124 341.519L245.137 341.239L246.336 341.509L247.439 342.589L247.758 343.949L246.936 346.129L244.801 348.579L243.883 348.829L244.251 348.639L244.962 348.919L246.353 350.239L247.276 352.019L248.079 352.979L248.219 354.589L248.694 355.759L248.88 355.579L248.738 355.539" stroke="#555555" stroke-width="1.25" stroke-linecap="round" stroke-linejoin="round"/>
<path d="M253.384 342.499L252.234 342.729L252.198 342.549L252.649 342.559L252.323 342.649L252.221 343.029L252.043 342.799L252.467 342.839L252.147 342.579L251.744 342.869L252.141 342.939L251.907 343.359L252.091 345.549L251.918 347.979L252.308 349.639L252.01 351.289L252.182 352.119L251.96 352.499L252.055 355.119L252.614 355.359L252.293 355.759L252.664 356.039L252.217 356.099L252.524 356.239L252.346 356.259L252.48 355.979L252.163 355.819L252.298 355.569L252.087 355.739L252.529 355.749L252.085 355.699L252.4 355.819L252.173 355.799L252.37 355.929L252.006 356.049L252.299 356.109L252.085 356.189L252.564 356.079L252.196 356.169L252.417 356.099L252.353 355.949L252.294 356.159L252.139 356.099H252.556H252.114L252.496 355.979H252.231L252.522 355.929L252.363 355.629L252.303 355.979L252.028 355.779" stroke="#555555" stroke-width="1.25" stroke-linecap="round" stroke-linejoin="round"/>
<path d="M252.291 342.909H260.355" stroke="#555555" stroke-width="1.25" stroke-linecap="round" stroke-linejoin="round"/>
<path d="M253.191 355.409H261.255" stroke="#555555" stroke-width="1.25" stroke-linecap="round" stroke-linejoin="round"/>
<path d="M252.713 348.519H257.696" stroke="#555555" stroke-width="1.25" stroke-linecap="round" stroke-linejoin="round"/>
<path d="M269.738 343.029H269.145L268.507 342.569L267.804 342.559L266.654 343.099L265.27 344.689L264.983 345.459L265.303 345.609L264.946 346.509L265.955 348.649L268.244 349.199L268.959 349.979L269.201 350.699L268.961 350.749L269.244 350.909L269.329 351.719L269.208 353.179L268.839 353.599L268.993 354.049L268.307 354.749L268.217 355.169L267.913 355.399L268.034 355.489L266.253 355.999L264.141 355.899L263.208 355.369L262.969 355.539" stroke="#555555" stroke-width="1.25" stroke-linecap="round" stroke-linejoin="round"/>
<path d="M214.393 342.799H213.8L213.162 342.339L212.459 342.329L211.309 342.859L209.925 344.449L209.637 345.229L209.958 345.369L209.601 346.279L210.61 348.419L212.899 348.969L213.614 349.739L213.856 350.469L213.616 350.509L213.899 350.679L213.984 351.489L213.863 352.949L213.494 353.369L213.648 353.809L212.962 354.519L212.872 354.929L212.568 355.169L212.689 355.259L210.908 355.769L208.796 355.659L207.863 355.139L207.623 355.309" stroke="#555555" stroke-width="1.25" stroke-linecap="round" stroke-linejoin="round"/>
<path d="M223.928 343.719L222.922 343.639L221.901 344.259L220.654 345.589L220.557 346.109L219.864 347.129L219.525 348.629L218.937 349.509L218.96 350.609L218.74 351.299L219.001 352.109L218.835 352.579L219.509 352.909L219.704 353.169L219.609 353.429L220.033 353.939L221.263 354.319L222.757 354.419L223.625 354.229L224.933 353.559L225.064 353.049L225.819 352.499L226.395 351.669L226.3 350.899L226.776 349.759L226.895 348.849L226.14 347.879L226.094 347.269L225.285 346.379L224.745 344.799L223.524 344.249L223.342 344.329" stroke="#555555" stroke-width="1.25" stroke-linecap="round" stroke-linejoin="round"/>
<path d="M233.007 345.379L228.303 356.799" stroke="#555555" stroke-width="1.25" stroke-linecap="round" stroke-linejoin="round"/>
<path d="M233.234 342.109L238.61 355.559" stroke="#555555" stroke-width="1.25" stroke-linecap="round" stroke-linejoin="round"/>
<path d="M233.008 353.439H239.056" stroke="#555555" stroke-width="1.25" stroke-linecap="round" stroke-linejoin="round"/>
<path d="M247.996 335.939H255.41" stroke="#555555" stroke-width="1.25" stroke-linecap="round" stroke-linejoin="round"/>
<path d="M243.581 325.289H243.035L242.449 324.869L241.802 324.859L240.746 325.349L239.473 326.809L239.209 327.519L239.503 327.659L239.175 328.489L240.102 330.459L242.207 330.959L242.864 331.679L243.087 332.349L242.866 332.379L243.126 332.529L243.204 333.279L243.093 334.629L242.754 335.009L242.896 335.419L242.265 336.059L242.182 336.449L241.902 336.669L242.014 336.749L240.376 337.219L238.435 337.119L237.577 336.639L237.357 336.789" stroke="#555555" stroke-width="1.25" stroke-linecap="round" stroke-linejoin="round"/>
<path d="M248.173 324.069L247.115 324.279L247.082 324.119L247.497 324.129L247.197 324.209L247.103 324.559L246.939 324.349L247.329 324.379L247.035 324.149L246.664 324.409L247.029 324.469L246.814 324.859L246.983 326.879L246.824 329.109L247.183 330.639L246.909 332.149L247.068 332.919L246.863 333.269L246.95 335.669L247.464 335.889L247.169 336.259L247.51 336.519L247.099 336.579L247.381 336.699L247.218 336.719L247.342 336.469L247.05 336.319L247.174 336.089L246.98 336.239L247.386 336.249L246.978 336.209L247.268 336.309L247.059 336.299L247.24 336.419L246.906 336.529L247.175 336.589L246.978 336.659L247.418 336.559L247.08 336.639L247.284 336.579L247.225 336.439L247.17 336.629L247.028 336.579H247.411H247.005L247.356 336.469H247.113L247.38 336.419L247.234 336.139L247.178 336.459L246.925 336.289" stroke="#555555" stroke-width="1.25" stroke-linecap="round" stroke-linejoin="round"/>
<path d="M247.168 324.449H254.582" stroke="#555555" stroke-width="1.25" stroke-linecap="round" stroke-linejoin="round"/>
<path d="M247.555 329.609H252.136" stroke="#555555" stroke-width="1.25" stroke-linecap="round" stroke-linejoin="round"/>
<path d="M232.963 324.169V336.719" stroke="#555555" stroke-width="1.25" stroke-linecap="round" stroke-linejoin="round"/>
<path d="M225.715 336.149H230.419" stroke="#555555" stroke-width="1.25" stroke-linecap="round" stroke-linejoin="round"/>
<path d="M266.988 324.199V336.749" stroke="#555555" stroke-width="1.25" stroke-linecap="round" stroke-linejoin="round"/>
<path d="M258.912 323.929V335.379" stroke="#555555" stroke-width="1.25" stroke-linecap="round" stroke-linejoin="round"/>
<path d="M259.74 336.189H264.444" stroke="#555555" stroke-width="1.25" stroke-linecap="round" stroke-linejoin="round"/>
<path d="M273.493 323.569L271.795 323.749L272.54 324.099L271.854 326.529L271.898 328.259L271.614 328.559L271.307 329.919L271.961 331.849L271.441 332.469L271.915 334.769L271.498 335.389L271.955 336.329L271.759 336.569L271.935 336.609L271.61 336.639L271.749 336.759L271.496 337.009L272.205 337.489L271.67 337.829L271.821 338.409L271.302 338.479L271.745 338.359L271.626 338.269L272.141 337.939L271.973 337.919H272.235L271.713 338.199L271.638 337.939L272.314 338.029L271.654 338.049L271.552 338.189L271.833 338.269L271.545 338.209L271.787 338.119L271.535 338.279L271.695 338.339L271.493 338.289L271.85 338.329L271.496 338.269L271.662 338.129L271.248 338.299" stroke="#555555" stroke-width="1.25" stroke-linecap="round" stroke-linejoin="round"/>
<path d="M273.064 324.879L272.629 324.959L272.945 325.099L272.596 325.149L273.33 325.669L273.336 326.269L273.881 326.709L273.716 326.929L273.881 327.229L274.79 327.669L275.778 329.509L277.128 331.159L277.134 331.449L277.789 331.519L278.27 331.899L278.777 331.479L278.261 331.439L278.461 331.329" stroke="#555555" stroke-width="1.25" stroke-linecap="round" stroke-linejoin="round"/>
<path d="M282.334 325.079L281.241 325.719L281.333 326.009L279.986 328.309L279.037 330.619L278.342 331.419L278.469 331.679L278.119 332.089L277.84 331.989L278.121 332.179" stroke="#555555" stroke-width="1.25" stroke-linecap="round" stroke-linejoin="round"/>
<path d="M282.902 324.729V335.479" stroke="#555555" stroke-width="1.25" stroke-linecap="round" stroke-linejoin="round"/>
<path d="M224.887 323.889V335.339" stroke="#555555" stroke-width="1.25" stroke-linecap="round" stroke-linejoin="round"/>
<path d="M209.886 323.229L208.188 323.409L208.933 323.759L208.247 326.199L208.291 327.919L208.007 328.219L207.7 329.579L208.354 331.519L207.834 332.129L208.308 334.429L207.891 335.049L208.348 335.999L208.152 336.229L208.329 336.269L208.003 336.299L208.142 336.419L207.889 336.679L208.598 337.159L208.063 337.489L208.214 338.069L207.695 338.139L208.138 338.029L208.019 337.929L208.534 337.599L208.366 337.579L208.628 337.589L208.106 337.859L208.031 337.609L208.707 337.689L208.047 337.709L207.945 337.849L208.226 337.929L207.939 337.879L208.181 337.789L207.928 337.949L208.089 337.999L207.887 337.949L208.244 337.999L207.889 337.929L208.055 337.799L207.641 337.969" stroke="#555555" stroke-width="1.25" stroke-linecap="round" stroke-linejoin="round"/>
<path d="M209.456 324.549L209.021 324.619L209.337 324.759L208.988 324.819L209.722 325.329L209.728 325.939L210.273 326.369L210.108 326.589L210.273 326.889L211.182 327.329L212.171 329.179L213.52 330.819L213.526 331.119L214.181 331.189L214.662 331.559L215.169 331.139L214.653 331.099L214.853 330.989" stroke="#555555" stroke-width="1.25" stroke-linecap="round" stroke-linejoin="round"/>
<path d="M218.724 324.739L217.631 325.379L217.724 325.669L216.376 327.969L215.427 330.289L214.733 331.079L214.86 331.349L214.509 331.759L214.23 331.649L214.511 331.839" stroke="#555555" stroke-width="1.25" stroke-linecap="round" stroke-linejoin="round"/>
<path d="M219.293 324.389V335.139" stroke="#555555" stroke-width="1.25" stroke-linecap="round" stroke-linejoin="round"/>
<path d="M243.073 346.469L241.045 346.589L241.852 346.479H241.649L241.804 346.629L241.528 346.819L241.775 347.119L241.509 347.329L242.004 348.079L242.168 348.929L242.012 349.459L242.288 352.149L241.801 353.639L241.751 355.749L242.153 356.139L242.608 355.109" stroke="#555555" stroke-width="1.25" stroke-linecap="round" stroke-linejoin="round"/>
<path d="M243.278 345.409L243.111 345.189L243.204 343.929L243.059 343.719L244.062 342.449L244.619 342.069L245.633 341.789L246.832 342.059L247.935 343.129L248.253 344.489L247.432 346.669L245.297 349.119L244.379 349.379L244.747 349.189L245.458 349.469L246.848 350.789L247.772 352.569L248.575 353.529L248.715 355.129L249.191 356.309L249.376 356.129L249.235 356.089" stroke="#555555" stroke-width="1.25" stroke-linecap="round" stroke-linejoin="round"/>
<path d="M253.881 343.039L252.73 343.269L252.694 343.099L253.145 343.109L252.82 343.199L252.717 343.579L252.539 343.349L252.963 343.389L252.643 343.129L252.24 343.419L252.637 343.479L252.403 343.909L252.587 346.099L252.414 348.529L252.804 350.189L252.507 351.829L252.679 352.669L252.456 353.049L252.551 355.669L253.11 355.909L252.789 356.309L253.16 356.589L252.713 356.649L253.02 356.789L252.842 356.809L252.977 356.529L252.659 356.369L252.794 356.119L252.584 356.279L253.025 356.299L252.581 356.249L252.897 356.359L252.669 356.339L252.867 356.479L252.503 356.599L252.796 356.659L252.581 356.739L253.06 356.629L252.693 356.719L252.914 356.649L252.849 356.499L252.79 356.709L252.636 356.649H253.052H252.61L252.992 356.529H252.727L253.019 356.479L252.859 356.169L252.799 356.529L252.524 356.329" stroke="#555555" stroke-width="1.25" stroke-linecap="round" stroke-linejoin="round"/>
<path d="M252.787 343.459H260.852" stroke="#555555" stroke-width="1.25" stroke-linecap="round" stroke-linejoin="round"/>
<path d="M253.688 355.959H261.753" stroke="#555555" stroke-width="1.25" stroke-linecap="round" stroke-linejoin="round"/>
<path d="M253.207 349.069H258.191" stroke="#555555" stroke-width="1.25" stroke-linecap="round" stroke-linejoin="round"/>
<path d="M270.235 343.579H269.641L269.004 343.119L268.3 343.109L267.151 343.639L265.766 345.229L265.479 346.009L265.799 346.149L265.442 347.059L266.451 349.199L268.741 349.749L269.455 350.519L269.697 351.249L269.457 351.289L269.741 351.459L269.825 352.269L269.704 353.729L269.335 354.149L269.49 354.589L268.804 355.299L268.714 355.709L268.409 355.949L268.531 356.039L266.749 356.549L264.637 356.449L263.704 355.919L263.465 356.089" stroke="#555555" stroke-width="1.25" stroke-linecap="round" stroke-linejoin="round"/>
<path d="M244.032 366.739L242.004 366.859L242.811 366.749H242.608L242.763 366.899L242.486 367.079L242.734 367.379L242.468 367.599L242.963 368.349L243.127 369.199L242.971 369.729L243.247 372.419L242.76 373.909L242.71 376.019L243.111 376.409L243.567 375.379" stroke="#555555" stroke-width="1.25" stroke-linecap="round" stroke-linejoin="round"/>
<path d="M244.238 365.679L244.071 365.459L244.164 364.199L244.018 363.989L245.022 362.719L245.579 362.339L246.593 362.059L247.792 362.319L248.895 363.399L249.213 364.759L248.392 366.939L246.257 369.389L245.339 369.649L245.707 369.459L246.418 369.729L247.808 371.059L248.732 372.839L249.535 373.799L249.675 375.399L250.15 376.579L250.336 376.399L250.194 376.359" stroke="#555555" stroke-width="1.25" stroke-linecap="round" stroke-linejoin="round"/>
<path d="M255.618 362.969L254.469 363.199L254.432 363.019L254.884 363.039L254.557 363.129L254.456 363.499L254.277 363.269L254.702 363.309L254.382 363.059L253.979 363.339L254.375 363.409L254.141 363.829L254.324 366.019L254.152 368.449L254.543 370.119L254.245 371.759L254.417 372.589L254.194 372.969L254.289 375.589L254.849 375.829L254.527 376.229L254.898 376.509L254.451 376.569L254.759 376.709L254.581 376.729L254.715 376.449L254.397 376.299L254.531 376.039L254.322 376.209L254.763 376.219L254.319 376.179L254.634 376.289L254.406 376.269L254.604 376.399L254.241 376.519L254.534 376.579L254.319 376.659L254.798 376.549L254.431 376.639L254.651 376.569L254.587 376.429L254.529 376.629L254.374 376.569H254.79H254.349L254.73 376.459L254.466 376.449L254.757 376.399L254.598 376.099L254.538 376.449L254.262 376.259" stroke="#555555" stroke-width="1.25" stroke-linecap="round" stroke-linejoin="round"/>
<path d="M254.525 363.389H262.589" stroke="#555555" stroke-width="1.25" stroke-linecap="round" stroke-linejoin="round"/>
<path d="M255.426 375.879H263.49" stroke="#555555" stroke-width="1.25" stroke-linecap="round" stroke-linejoin="round"/>
<path d="M254.945 368.989H259.928" stroke="#555555" stroke-width="1.25" stroke-linecap="round" stroke-linejoin="round"/>
<path d="M268.266 363.879V376.429" stroke="#555555" stroke-width="1.25" stroke-linecap="round" stroke-linejoin="round"/>
<path d="M279.465 363.109H278.872L278.234 362.649L277.53 362.639L276.381 363.169L274.997 364.769L274.709 365.539L275.03 365.689L274.672 366.589L275.681 368.729L277.971 369.279L278.685 370.059L278.927 370.779L278.687 370.829L278.971 370.989L279.055 371.799L278.934 373.259L278.565 373.679L278.72 374.129L278.034 374.829L277.944 375.239L277.639 375.479L277.761 375.569L275.979 376.079L273.867 375.979L272.934 375.449L272.695 375.619" stroke="#555555" stroke-width="1.25" stroke-linecap="round" stroke-linejoin="round"/>
<path d="M244.527 367.279L242.5 367.409L243.306 367.289L243.103 367.299L243.258 367.449L242.982 367.629L243.229 367.929L242.963 368.149L243.458 368.899L243.622 369.749L243.466 370.279L243.742 372.959L243.255 374.459L243.205 376.559L243.607 376.959L244.062 375.919" stroke="#555555" stroke-width="1.25" stroke-linecap="round" stroke-linejoin="round"/>
<path d="M244.733 366.219L244.566 365.999L244.659 364.749L244.514 364.539L245.517 363.269L246.074 362.879L247.089 362.599L248.287 362.869L249.39 363.949L249.708 365.309L248.887 367.489L246.752 369.939L245.834 370.189L246.202 369.999L246.913 370.279L248.303 371.599L249.227 373.389L250.03 374.349L250.17 375.949L250.646 377.129L250.831 376.949L250.69 376.909" stroke="#555555" stroke-width="1.25" stroke-linecap="round" stroke-linejoin="round"/>
<path d="M256.113 363.519L254.963 363.739L254.927 363.569L255.378 363.579L255.053 363.669L254.95 364.049L254.772 363.819L255.196 363.859L254.876 363.599L254.473 363.889L254.87 363.959L254.636 364.379L254.82 366.569L254.647 368.999L255.037 370.659L254.739 372.309L254.911 373.139L254.689 373.519L254.784 376.139L255.343 376.379L255.022 376.779L255.393 377.059L254.946 377.119L255.253 377.259L255.075 377.279L255.21 376.999L254.892 376.839L255.027 376.589L254.817 376.759L255.258 376.769L254.814 376.719L255.129 376.839L254.902 376.819L255.099 376.949L254.736 377.069L255.028 377.129L254.814 377.209L255.293 377.099L254.925 377.189L255.146 377.119L255.082 376.969L255.023 377.179L254.869 377.119H255.285H254.843L255.225 376.999H254.96L255.251 376.949L255.092 376.649L255.032 376.999L254.757 376.799" stroke="#555555" stroke-width="1.25" stroke-linecap="round" stroke-linejoin="round"/>
<path d="M255.02 363.929H263.085" stroke="#555555" stroke-width="1.25" stroke-linecap="round" stroke-linejoin="round"/>
<path d="M255.92 376.429H263.984" stroke="#555555" stroke-width="1.25" stroke-linecap="round" stroke-linejoin="round"/>
<path d="M255.439 369.539H260.422" stroke="#555555" stroke-width="1.25" stroke-linecap="round" stroke-linejoin="round"/>
<path d="M268.762 364.429V376.979" stroke="#555555" stroke-width="1.25" stroke-linecap="round" stroke-linejoin="round"/>
<path d="M279.959 363.659H279.366L278.728 363.199L278.024 363.189L276.875 363.719L275.491 365.309L275.203 366.089L275.524 366.229L275.166 367.139L276.176 369.279L278.465 369.829L279.18 370.599L279.422 371.329L279.182 371.369L279.465 371.539L279.55 372.349L279.429 373.809L279.06 374.229L279.214 374.669L278.528 375.379L278.438 375.789L278.134 376.029L278.255 376.119L276.474 376.629L274.361 376.519L273.429 375.999L273.189 376.169" stroke="#555555" stroke-width="1.25" stroke-linecap="round" stroke-linejoin="round"/>
<path d="M202.394 374.779L202.364 374.939L202.723 374.629L204.438 374.729L204.984 374.529L205.059 374.329L206.623 374.209L207.161 373.889L207.597 373.309L207.671 372.629L208.778 371.599L209.095 371.029L209.127 370.179L209.683 368.459L209.3 368.109L209.255 366.949L208.762 366.139L208.889 366.039L208.551 365.899L208.398 365.309L207.67 364.939L207.872 364.769L207.161 364.359L206.481 364.349L204.402 363.689L203.459 363.849L202.979 364.149L201.402 364.279L200.916 364.639L201.002 364.479" stroke="#555555" stroke-linecap="round" stroke-linejoin="round"/>
<path d="M202.096 363.729V374.529" stroke="#555555" stroke-linecap="round" stroke-linejoin="round"/>
<path d="M216.806 364.959L215.94 364.889L215.062 365.429L213.988 366.569L213.904 367.019L213.308 367.899L213.016 369.189L212.51 369.949L212.53 370.899L212.34 371.489L212.565 372.189L212.422 372.599L213.002 372.869L213.17 373.099L213.089 373.319L213.453 373.759L214.512 374.089L215.799 374.169L216.545 374.019L217.671 373.439L217.784 372.999L218.434 372.519L218.93 371.799L218.848 371.149L219.258 370.159L219.36 369.379L218.711 368.539L218.671 368.019L217.974 367.249L217.51 365.889L216.459 365.419L216.302 365.489" stroke="#555555" stroke-linecap="round" stroke-linejoin="round"/>
<path d="M226.572 362.929H226.061L225.512 362.539L224.906 362.529L223.917 362.989L222.725 364.359L222.478 365.019L222.754 365.149L222.446 365.929L223.315 367.769L225.286 368.239L225.901 368.909L226.109 369.539L225.903 369.579L226.147 369.719L226.219 370.409L226.115 371.669L225.798 372.029L225.931 372.419L225.34 373.019L225.263 373.379L225 373.589L225.105 373.659L223.571 374.099L221.753 374.009L220.95 373.559L220.744 373.699" stroke="#555555" stroke-linecap="round" stroke-linejoin="round"/>
<path d="M202.82 375.249L202.791 375.409L203.15 375.099L204.865 375.199L205.411 374.999L205.485 374.799L207.049 374.679L207.587 374.359L208.023 373.779L208.097 373.099L209.204 372.069L209.522 371.509L209.554 370.649L210.109 368.939L209.726 368.579L209.681 367.429L209.189 366.609L209.316 366.509L208.977 366.369L208.824 365.789L208.096 365.409L208.298 365.239L207.588 364.839L206.907 364.819L204.828 364.169L203.886 364.319L203.405 364.619L201.828 364.749L201.342 365.109L201.428 364.949" stroke="#555555" stroke-linecap="round" stroke-linejoin="round"/>
<path d="M202.523 364.199V375.009" stroke="#555555" stroke-linecap="round" stroke-linejoin="round"/>
<path d="M217.233 365.439L216.367 365.369L215.488 365.899L214.414 367.039L214.331 367.499L213.734 368.369L213.442 369.669L212.936 370.419L212.956 371.369L212.766 371.959L212.991 372.659L212.848 373.069L213.428 373.349L213.596 373.569L213.515 373.789L213.88 374.229L214.938 374.559L216.225 374.639L216.972 374.489L218.098 373.909L218.211 373.469L218.861 372.989L219.357 372.279L219.275 371.619L219.684 370.629L219.787 369.849L219.137 369.019L219.097 368.499L218.401 367.719L217.936 366.359L216.885 365.889L216.728 365.969" stroke="#555555" stroke-linecap="round" stroke-linejoin="round"/>
<path d="M226.998 363.399L226.488 363.409L225.939 363.009L225.333 362.999L224.344 363.459L223.152 364.829L222.904 365.499L223.18 365.619L222.873 366.399L223.741 368.239L225.712 368.719L226.327 369.379L226.536 370.009L226.329 370.049L226.573 370.189L226.646 370.889L226.542 372.149L226.224 372.509L226.357 372.889L225.766 373.489L225.689 373.849L225.427 374.059L225.531 374.129L223.998 374.569L222.18 374.479L221.376 374.029L221.17 374.169" stroke="#555555" stroke-linecap="round" stroke-linejoin="round"/>
<path d="M79.918 319.399L123.918 297.399" stroke="#555555" stroke-width="2" stroke-linecap="round" stroke-linejoin="round"/>
<path d="M192.918 203.399L207.918 152.399" stroke="#555555" stroke-width="2" stroke-linecap="round" stroke-linejoin="round"/>
<path d="M200.918 285.399L213.918 323.399" stroke="#555555" stroke-width="2" stroke-linecap="round" stroke-linejoin="round"/>
<path d="M274.885 449.669L275.772 446.179L275.988 442.589L275.528 439.019L274.406 435.589L271.954 431.469L269.482 428.849L266.562 426.739L263.3 425.219L259.809 424.329L256.214 424.109L252.642 424.579L249.22 425.699L246.068 427.439L242.478 430.619L240.369 433.539L238.844 436.799L237.957 440.289L237.74 443.889L238.503 448.619L239.837 451.969L241.775 455.009L244.247 457.619L247.167 459.729L250.429 461.259L253.92 462.149L257.515 462.359L261.087 461.899L264.509 460.779L267.661 459.039L270.43 456.729L273.36 452.939L274.885 449.669Z" stroke="#555555" stroke-width="4" stroke-linecap="round" stroke-linejoin="round"/>
<path d="M103.739 403.589L103.535 402.569L103.825 402.829L103.588 403.959L104.78 406.729L107.15 418.669L108.272 420.959L109.413 421.849L110.484 421.129L110.365 420.619L111.425 417.999L112.109 414.339L112.49 414.799L112.322 415.029L113.554 415.919L115.552 419.369L117.055 421.039L117.631 421.519L119.086 420.959L118.866 420.739L119.557 419.979L120.676 416.159L121.496 409.139L121.658 404.129L122.447 404.069L121.857 404.189L121.649 404.649" stroke="#555555" stroke-width="2" stroke-linecap="round" stroke-linejoin="round"/>
<path d="M131.29 390.989L130.687 387.109L129.73 386.219L130.142 387.199L130.224 390.519L132.334 404.809L133.838 419.239L134.671 421.929L135.449 422.609L136.109 422.459L135.499 421.239L136.059 420.629L138.229 414.059L139.609 411.819L139.45 412.749L139.819 413.259L139.904 414.849L140.579 415.549L142.014 419.239L143.202 419.959L144.664 420.299" stroke="#555555" stroke-width="2" stroke-linecap="round" stroke-linejoin="round"/>
<path d="M159.974 408.729L155.985 410.059L153.53 411.639L150.525 415.139L147.635 421.509L147.656 422.169L148.57 422.999L150.039 423.219L151.104 423.009L153.225 421.939L154.791 420.019L156.439 415.169L156.041 416.219L156.364 418.519L157.889 421.589L159.456 423.449" stroke="#555555" stroke-width="2" stroke-linecap="round" stroke-linejoin="round"/>
<path d="M167.447 408.559L166.599 410.249L165.826 413.109L165.463 417.009L165.869 418.949L167.553 419.849L169.109 421.159L171.432 414.769L173.018 413.339L173.081 412.729L173.524 412.849L173.036 413.069L174.133 413.769L175.187 415.599L176.35 418.149L176.52 419.659L177.154 420.279L177.127 420.919L178.612 423.199L179.184 423.549" stroke="#555555" stroke-width="2" stroke-linecap="round" stroke-linejoin="round"/>
<path d="M188.988 390.069L189.277 390.469L188.352 392.329L188.096 394.769L189.035 409.489L190.517 416.339L191.534 419.439L192.605 421.459L192.513 421.999L193.489 421.119L193.522 419.869" stroke="#555555" stroke-width="2" stroke-linecap="round" stroke-linejoin="round"/>
<path d="M182.441 401.529L184.289 402.099L185.843 402.199L192.46 400.949" stroke="#555555" stroke-width="2" stroke-linecap="round" stroke-linejoin="round"/>
<path d="M96.1426 419.179L96.1476 427.409L96.8546 432.639L101.393 442.339L102.796 448.209L103.029 452.009L101.991 455.339" stroke="#555555" stroke-width="2" stroke-linecap="round" stroke-linejoin="round"/>
<path d="M95.3164 446.269L97.5364 446.389L104.41 445.809L109.689 444.769L116.781 441.789L117.219 441.319L116.671 440.959L112.978 446.159L112.421 447.549L112.46 449.359L113.095 450.599L114.122 451.319L116.728 452.299L119.026 452.359L121.193 451.349L121.564 450.269L123.048 448.709L123.629 446.719L121.052 442.859L118.924 442.019L118.158 442.239" stroke="#555555" stroke-width="2" stroke-linecap="round" stroke-linejoin="round"/>
<path d="M135.612 440.109L135.342 440.039L135.668 440.819L137.584 443.819L139.623 447.979L141.759 454.789L141.825 457.679L142.92 462.089L142.974 464.709L142.538 468.479L141.749 470.859L141.595 470.509" stroke="#555555" stroke-width="2" stroke-linecap="round" stroke-linejoin="round"/>
<path d="M152.388 441.979L152.603 441.749L152.378 441.769L151.737 442.149L152.15 442.219L149.377 445.129L148.678 447.929L148.72 451.019L150.182 452.149L152.781 452.839L155.448 452.299L158.266 449.649L158.807 448.669L159.091 445.149L158.701 444.259L158.214 443.469L155.55 441.349L153.765 440.579L151.692 441.009L150.618 442.939" stroke="#555555" stroke-width="2" stroke-linecap="round" stroke-linejoin="round"/>
<path d="M163.351 440.859L162.92 441.139L163.902 441.729L163.767 442.269L165.388 447.299L165.721 454.739L166.652 454.779L166.719 454.519" stroke="#555555" stroke-width="2" stroke-linecap="round" stroke-linejoin="round"/>
<path d="M163.129 428.859L162.428 428.739L163.409 429.189" stroke="#555555" stroke-width="2" stroke-linecap="round" stroke-linejoin="round"/>
<path d="M175.51 440.089L176.656 449.739L177.486 451.729L178.326 451.559L177.812 451.529L178.414 450.079L179.086 445.739L179.681 443.899L180.138 443.029L181.973 441.339L182.394 441.539L182.209 441.639L183.796 441.889L184.054 442.499L185.365 443.549L186.538 446.559L187.031 450.469L188.292 452.879L189.071 453.449L190.042 452.679" stroke="#555555" stroke-width="2" stroke-linecap="round" stroke-linejoin="round"/>
<path d="M204.324 428.229L204.784 427.519L206.342 427.149L213.932 425.689L216.147 425.729L216.034 426.159L216.451 426.339L216.225 427.449L216.498 428.899L215.976 429.699L216.04 430.149L214.449 432.349L211.878 434.589L208.936 438.149L209.368 438.119L209.386 437.699L209.563 437.869" stroke="#555555" stroke-width="2" stroke-linecap="round" stroke-linejoin="round"/>
<path d="M209.535 452.319L210.104 452.799L209.751 453.229L210.179 453.179L209.901 453.019L210.153 451.819L212.529 447.579" stroke="#555555" stroke-width="2" stroke-linecap="round" stroke-linejoin="round"/>
<circle cx="257.42" cy="443.089" r="18" fill="#292562"/>
</svg>
