<svg width="312" height="555" viewBox="0 0 312 555" fill="none" xmlns="http://www.w3.org/2000/svg">
<path d="M20.2891 23.469V479.503" stroke="#555555" stroke-width="4" stroke-linecap="round" stroke-linejoin="round"/>
<path d="M289.227 27.2781V483.312" stroke="#555555" stroke-width="4" stroke-linecap="round" stroke-linejoin="round"/>
<path d="M2.28711 4.26807H308.287" stroke="#555555" stroke-width="4" stroke-linecap="round" stroke-linejoin="round"/>
<path d="M18.2871 27.2681H288.287" stroke="#555555" stroke-width="4" stroke-linecap="round" stroke-linejoin="round"/>
<path d="M18.2871 481.268H289.287" stroke="#555555" stroke-width="4" stroke-linecap="round" stroke-linejoin="round"/>
<path d="M6.57227 550.551H305.572" stroke="#555555" stroke-width="4" stroke-linecap="round" stroke-linejoin="round"/>
<path d="M4.28711 5.26807V552.268" stroke="#555555" stroke-width="4" stroke-linecap="round" stroke-linejoin="round"/>
<path d="M309.52 2V549" stroke="#555555" stroke-width="4" stroke-linecap="round" stroke-linejoin="round"/>
<path d="M168.896 525.427L169.783 521.937L170 518.342L169.539 514.77L168.418 511.347L165.965 507.225L163.493 504.606L160.574 502.497L157.311 500.972L153.82 500.085L150.225 499.868L146.653 500.329L143.231 501.451L140.08 503.194L136.49 506.375L134.38 509.294L132.855 512.557L131.969 516.048L131.752 519.643L132.514 524.378L133.849 527.723L135.787 530.759L138.259 533.378L141.178 535.488L144.441 537.013L147.931 537.899L151.526 538.116L155.098 537.656L158.521 536.534L161.672 534.79L164.441 532.488L167.371 528.69L168.896 525.427Z" stroke="#555555" stroke-width="4" stroke-linecap="round" stroke-linejoin="round"/>
<path d="M91.4473 240.21L92.334 236.72L92.5508 233.125L92.0902 229.553L90.9684 226.13L88.5161 222.008L86.0439 219.389L83.1247 217.28L79.862 215.755L76.3713 214.868L72.7767 214.651L69.2047 215.112L65.7817 216.234L62.6307 217.977L59.0407 221.158L56.9317 224.077L55.4067 227.34L54.5197 230.831L54.3027 234.426L55.0657 239.161L56.3997 242.506L58.3377 245.542L60.8097 248.161L63.7287 250.271L66.9917 251.796L70.4827 252.682L74.0777 252.899L77.6492 252.439L81.0716 251.317L84.2231 249.574L86.9923 247.271L89.9223 243.473L91.4473 240.21Z" stroke="#555555" stroke-width="4" stroke-linecap="round" stroke-linejoin="round"/>
<path d="M256.232 240.191L257.119 236.7L257.336 233.105L256.875 229.533L255.753 226.111L253.301 221.988L250.829 219.369L247.91 217.26L244.647 215.735L241.156 214.848L237.561 214.631L233.989 215.092L230.567 216.214L227.415 217.957L223.826 221.138L221.716 224.057L220.191 227.32L219.305 230.811L219.088 234.406L219.85 239.142L221.185 242.487L223.123 245.523L225.595 248.142L228.514 250.251L231.777 251.776L235.267 252.663L238.862 252.88L242.434 252.419L245.857 251.297L249.008 249.554L251.777 247.251L254.707 243.454L256.232 240.191Z" stroke="#555555" stroke-width="4" stroke-linecap="round" stroke-linejoin="round"/>
<path d="M177.074 241.923L177.961 238.433L178.178 234.838L177.717 231.266L176.595 227.843L174.143 223.721L171.671 221.102L168.752 218.993L165.489 217.468L161.998 216.581L158.403 216.364L154.831 216.825L151.409 217.947L148.257 219.69L144.668 222.871L142.558 225.79L141.033 229.053L140.147 232.544L139.93 236.139L140.692 240.874L142.027 244.22L143.964 247.255L146.437 249.874L149.356 251.984L152.618 253.509L156.109 254.396L159.704 254.612L163.276 254.152L166.699 253.03L169.85 251.287L172.619 248.984L175.549 245.186L177.074 241.923Z" stroke="#555555" stroke-width="4" stroke-linecap="round" stroke-linejoin="round"/>
<path d="M156.633 228.026L154.059 227.304L154.344 226.794L154.736 226.782L154.544 225.718L154.191 224.676L153.597 225.005L149.559 230.117L143.428 239.794L143.213 241.03L143.887 240.392L147.165 233.905L150.046 230.515L152.911 225.054L153.838 222.251L153.661 222.064L150.856 223.787L149.899 224.717L144.926 230.103L143.028 232.729L142.375 234.135L142.722 234.778L143.403 234.614L147.095 231.811L148.506 229.694L151.674 226.454L153.786 222.799L151.538 226.739L149.69 230.897L146.101 236.338L143.119 241.844L144.421 238.192L146.154 235.235L147.114 233.694L149.814 231.1L150.904 229.012L153.5 225.654L154.162 223.521L155.61 222.427L154.998 225.83L152.447 232.221L149.715 237.278L152.559 234.337L161.526 223.288L165.488 220.069L163.525 222.264L153.315 238.672L151.691 241.868L151.406 243.047L151.552 243.858L151.787 243.94L153.033 242.239L163.094 226.539L165.742 223.715L166.212 222.801L158.668 234.644L155.371 242.445L155.649 242.645L156.703 242.273L162.68 232.487L166.316 228.076L168.7 225.704L168.647 225.378L167.873 226.176L165.726 229.952L159.3 239.597L157.627 242.875L157.058 245.142L157.908 245.297L159.873 243.206L161.388 239.672L165.214 233.089L168.965 228.811L169.937 227.182L166.163 234.044L161.221 241.655L158.657 247.248L158.908 247.371L159.614 246.757L162.638 243.366L167.154 235.6L168.482 233.878L168.838 232.552L166.221 238.062L163.505 242.744L162.482 245.694L161.153 247.52L161.184 248.48L161.7 248.502L164.644 245.09L168.597 238.81L170.948 235.704L171.371 235.508L170.637 240.056L167.359 247.519L167.986 247.715L174.207 237.048L174.594 236.795L174.067 237.991L174.963 238.015L174.67 237.824L174.766 237.231L175.583 236.118L175.932 233.973L175.516 232.699L175.448 230.324L174.979 229.016L173.084 226.844L173.049 225.892L171.854 225.476L169.975 223.059L168.78 222.359L168.853 221.931L168.314 221.374L166.62 221.209L163.554 220.267L161.395 220.15L158.732 219.317L156.479 219.539L154.175 220.392L152.923 221.531L152.274 224.063L150.36 225.754L148.767 228.197L149.005 229.104L148.826 230.31L146.51 234.513L145.503 238.121L145.62 239.706L146.902 243.185L147.439 243.602L147.257 244.612L147.929 246.486L149.24 246.582L151.934 247.913L153.039 247.878L155.274 248.461L158.201 248.122L161.296 249.341L164.845 249.079L166.741 248.132L167.458 247.047L168.776 246.24L169.859 244.796L172.61 238.665L173.371 234.029L172.909 230.767L172.151 230.235L172.733 234.685L172.427 238.643L171.526 242.906L170.001 244.739L169.847 245.665L168.75 246.8L167.774 248.717L167.113 249.272L165.742 249.72L164.414 251.302L163.246 251.655L161.742 253.098L161.465 252.894L156.23 254.196L155.349 254.027L153.839 252.942L152.586 251.532L149.703 246.799" stroke="#555555" stroke-width="6" stroke-linecap="round" stroke-linejoin="round"/>
<circle cx="157" cy="235.409" r="22" fill="#292562"/>
</svg>
