<svg width="166" height="130" viewBox="0 0 166 130" fill="none" xmlns="http://www.w3.org/2000/svg">
<path d="M1.42773 1V116.694" stroke="black" stroke-width="0.773871" stroke-linecap="round" stroke-linejoin="round"/>
<path d="M165.162 1.55029V117.244" stroke="black" stroke-width="0.773871" stroke-linecap="round" stroke-linejoin="round"/>
<path d="M1.95312 1.64893H164.466" stroke="black" stroke-width="0.773871" stroke-linecap="round" stroke-linejoin="round"/>
<path d="M1 116.173H163.513" stroke="black" stroke-width="0.773871" stroke-linecap="round" stroke-linejoin="round"/>
<path d="M67.207 77.452L67.2693 76.9854L67.5487 77.0805L67.2333 77.1393L67.4373 77.1761L67.2492 77.3317L67.4423 77.7902L67.2434 78.2704L67.4709 79.5206L67.3641 80.1474L67.563 81.3539L67.5386 82.3703L67.6826 82.7751L67.44 82.9329L67.5889 82.9778L67.6706 83.186L67.5866 83.2974L67.7959 83.4692L67.7464 83.7091L67.8474 83.8953L67.6609 84.0218L67.8869 84.079L67.7983 84.3573L67.914 84.6057L67.7646 84.6111L68.0076 84.8332L67.8706 84.7806L67.9391 84.8757L67.7805 84.9415L67.8764 85.0058L67.8149 85.0781L68.0413 85.1532L67.8308 85.1118L68.1353 85.0708L68.1245 84.5507L68.0029 84.5171" stroke="black" stroke-width="0.773871" stroke-linecap="round" stroke-linejoin="round"/>
<path d="M67.8496 84.9443H71.332" stroke="black" stroke-width="0.773871" stroke-linecap="round" stroke-linejoin="round"/>
<path d="M75.6894 78.7209L75.5691 78.7759L75.0397 78.3615L74.7313 78.4257L73.4007 79.4097L73.1356 79.9468L72.8539 80.0729L72.207 80.8808L72.3018 81.4871L72.1191 82.1198L72.3757 82.783L72.3157 83.1831L72.4144 83.4485L73.206 84.5842L73.7961 85.0466L74.0283 85.1592L74.6037 84.9742L75.9459 83.7225L76.7411 81.0998L76.5991 79.8245L76.2973 79.3257L75.8925 79.068L75.4329 78.411L74.1525 77.937L73.1035 78.2586L72.7471 78.6853L72.5997 79.2638L72.1501 80.0922" stroke="black" stroke-width="0.773871" stroke-linecap="round" stroke-linejoin="round"/>
<path d="M81.7157 78.409L81.6832 78.1118L81.2904 78.2159L80.8013 78.597L80.1431 79.5338L79.7318 80.6172L79.2571 81.3385L78.8516 83.0952L79.0102 83.6264L78.951 84.2598L79.2075 84.7114L79.5008 84.9482L79.4053 85.0875L79.4869 85.3394L79.8131 85.5406L80.7731 85.5963L80.8667 85.5437L80.7622 85.5031L80.9979 85.5247L81.5009 85.3154L81.4088 85.1498L81.6901 84.9439L81.7075 83.6214L81.2498 82.9996L80.6965 82.9497L80.8002 83.0031L80.5301 83.0627L80.546 83.4933L81.0335 83.8791L81.9981 83.8334L81.9617 83.6841L82.1927 83.6291L81.9884 83.6237L82.2074 83.9077L82.1328 84.0343L82.5189 84.3535L82.2756 84.6507L82.4415 85.0012L82.3471 85.789L82.4431 87.3352L82.6698 87.6993L82.7681 88.3854L82.9542 88.1037L82.9426 87.769" stroke="black" stroke-width="0.773871" stroke-linecap="round" stroke-linejoin="round"/>
<path d="M87.7708 79.2299L87.5916 79.2105L87.6303 79.0767L87.6032 79.2523L87.3881 79.1602L87.5827 79.1223L87.6264 79.3154L87.438 79.4439L87.4067 79.6497L87.645 80.1914L87.5893 81.021L87.7363 82.5908L87.3672 83.7497L87.5413 84.012L87.6295 85.1775L87.7402 85.4015L88.2076 84.6439" stroke="black" stroke-width="0.773871" stroke-linecap="round" stroke-linejoin="round"/>
<path d="M90.7924 79.5286L90.571 78.8623L90.8992 79.1602L90.6264 79.4028L90.5513 79.6567L90.5157 80.6585L90.6515 81.4741L90.3613 83.1194L90.7579 84.1544L90.5939 84.5178L90.833 85.0838L90.7997 85.6434L91.0284 85.6646L90.8806 85.4994L91.2575 84.9484" stroke="black" stroke-width="0.773871" stroke-linecap="round" stroke-linejoin="round"/>
<path d="M91.2935 78.7451L91.2285 78.7962L91.3659 78.8767L91.2629 78.9219L91.4723 78.889L92.2431 79.7581L92.8815 80.1698L92.8389 80.585L93.0196 80.7994L93.9885 81.4715L94.945 83.2034L95.6342 83.9351L95.6109 84.4358L96.0919 84.4621L95.746 84.3708L95.9603 84.1754" stroke="black" stroke-width="0.773871" stroke-linecap="round" stroke-linejoin="round"/>
<path d="M96.6922 79.9294L96.8017 79.7436L96.6523 79.4964L97.1074 79.272L96.9247 79.2905L97.0749 79.3714L96.8783 79.5471L96.8369 79.8829L96.845 83.0028L97.206 83.7709L97.1395 84.2921L97.3597 85.0292L97.2552 85.3132L97.658 85.7976L97.8809 86.9364L97.7443 86.9167L98.012 86.8339L97.7427 86.8536L97.8685 86.7131L97.7493 86.6385L97.8538 86.7058L97.8584 86.5986L97.728 86.6559L97.8882 86.7332L97.5841 86.7178L97.7547 86.6946L97.6119 86.623L97.752 86.5796L97.5527 86.6296L97.7775 86.594L97.6046 86.6013L97.7501 86.5963L97.7745 86.286L97.6452 86.4415" stroke="black" stroke-width="0.773871" stroke-linecap="round" stroke-linejoin="round"/>
<path d="M6.41797 120.801V129" stroke="black" stroke-width="1.64448" stroke-linecap="round" stroke-linejoin="round"/>
<path d="M73.5467 60.86L74.2192 62.9599L75.2732 64.8966L76.6716 66.601L78.3648 68.0137L79.6278 68.7679L80.9755 69.3579L83.109 69.9151L85.3087 70.0625L87.4976 69.7956L89.5971 69.1231L91.5338 68.0687L93.2386 66.6703L94.6513 64.9774L95.4054 63.7141L95.9951 62.3664L96.5523 60.2332L96.7001 58.0331L96.4328 55.8446L95.7603 53.7447L94.7063 51.8081L93.3079 50.1036L91.615 48.6909L90.3517 47.9368L89.004 47.3467L86.8708 46.7895L84.6707 46.6421L82.4822 46.9091L80.3823 47.5816L78.4457 48.636L77.2794 49.5325L76.2347 50.5687L74.9315 52.3471L73.9843 54.3382L73.4271 56.4714L73.2793 58.6712L73.5467 60.86Z" stroke="black" stroke-width="2.32161" stroke-linecap="round" stroke-linejoin="round"/>
</svg>
