<svg width="166" height="130" viewBox="0 0 166 130" fill="none" xmlns="http://www.w3.org/2000/svg">
<path d="M1.42969 1V116.579" stroke="black" stroke-width="0.773103" stroke-linecap="round" stroke-linejoin="round"/>
<path d="M165 1.5498V117.129" stroke="black" stroke-width="0.773103" stroke-linecap="round" stroke-linejoin="round"/>
<path d="M1.95312 1.64893H164.305" stroke="black" stroke-width="0.773103" stroke-linecap="round" stroke-linejoin="round"/>
<path d="M1 116.06H163.351" stroke="black" stroke-width="0.773103" stroke-linecap="round" stroke-linejoin="round"/>
<path d="M110.06 74.0922L110.076 74.0063L109.881 74.1764L108.948 74.1185L108.651 74.2286L108.611 74.3372L107.76 74.4029L107.468 74.5757L107.23 74.8935L107.19 75.2638L106.588 75.822L106.415 76.1301L106.398 76.5955L106.096 77.5282L106.304 77.7227L106.328 78.3496L106.596 78.793L106.527 78.8464L106.711 78.9229L106.795 79.2418L107.191 79.4475L107.081 79.5383L107.467 79.7586L107.837 79.766L108.968 80.1227L109.481 80.0362L109.742 79.8754L110.6 79.8042L110.864 79.6098L110.817 79.6937" stroke="black" stroke-width="0.676465" stroke-linecap="round" stroke-linejoin="round"/>
<path d="M118.418 73.4829L117.623 73.568L117.972 73.7299L117.651 74.871L117.671 75.6781L117.538 75.8212L117.395 76.4567L117.701 77.3627L117.458 77.6511L117.68 78.728L117.484 79.0195L117.698 79.4605L117.606 79.5707L117.689 79.5881L117.537 79.6036L117.601 79.6577L117.483 79.7783L117.815 80.0033L117.565 80.1606L117.635 80.4323L117.392 80.466L117.6 80.4111L117.544 80.367L117.785 80.212L117.707 80.2039L117.829 80.2047L117.585 80.3334L117.55 80.2139L117.866 80.2553L117.557 80.265L117.509 80.3299L117.641 80.3658L117.506 80.3399L117.62 80.2982L117.501 80.3728L117.577 80.3991L117.482 80.3747L117.649 80.3964L117.484 80.3651L117.561 80.3024L117.367 80.3832" stroke="black" stroke-width="0.676465" stroke-linecap="round" stroke-linejoin="round"/>
<path d="M118.217 74.0981L118.013 74.1318L118.161 74.1994L117.998 74.2242L118.341 74.4669L118.344 74.7487L118.6 74.9536L118.522 75.056L118.6 75.1948L119.025 75.4008L119.488 76.2667L120.12 77.0375L120.123 77.1747L120.429 77.2072L120.654 77.3819L120.892 77.1875L120.65 77.1674L120.744 77.1148" stroke="black" stroke-width="0.676465" stroke-linecap="round" stroke-linejoin="round"/>
<path d="M122.557 74.1914L122.045 74.4906L122.089 74.6267L121.458 75.704L121.013 76.7871L120.688 77.1601L120.748 77.2834L120.583 77.4755L120.453 77.4245L120.585 77.5161" stroke="black" stroke-width="0.676465" stroke-linecap="round" stroke-linejoin="round"/>
<path d="M122.824 74.0249V79.0597" stroke="black" stroke-width="0.676465" stroke-linecap="round" stroke-linejoin="round"/>
<path d="M125.872 74.2476L125.076 74.3326L125.425 74.4946L125.104 75.6357L125.125 76.4428L124.992 76.5858L124.848 77.2213L125.154 78.1274L124.911 78.4157L125.133 79.4927L124.937 79.7841L125.151 80.2252L125.06 80.3354L125.142 80.3528L124.99 80.3682L125.055 80.4223L124.936 80.5429L125.268 80.7679L125.018 80.9252L125.089 81.197L124.845 81.2306L125.053 81.1757L124.997 81.1317L125.239 80.9767L125.16 80.9685L125.282 80.9697L125.038 81.098L125.003 80.9786L125.319 81.0199L125.01 81.0296L124.963 81.0945L125.094 81.1309L124.959 81.1046L125.073 81.0629L124.954 81.1375L125.03 81.1637L124.935 81.1394L125.102 81.161L124.937 81.1297L125.014 81.0671L124.82 81.1479" stroke="black" stroke-width="0.676465" stroke-linecap="round" stroke-linejoin="round"/>
<path d="M125.67 74.8638L125.466 74.897L125.614 74.9647L125.451 74.9894L125.794 75.2322L125.798 75.5143L126.053 75.7188L125.975 75.8216L126.053 75.96L126.479 76.1661L126.941 77.0319L127.573 77.8027L127.576 77.9399L127.883 77.9728L128.108 78.1471L128.345 77.9527L128.103 77.9326L128.197 77.88" stroke="black" stroke-width="0.676465" stroke-linecap="round" stroke-linejoin="round"/>
<path d="M130.01 74.9561L129.498 75.2553L129.542 75.3913L128.911 76.4686L128.466 77.5518L128.141 77.9248L128.201 78.0485L128.037 78.2402L127.906 78.1896L128.038 78.2808" stroke="black" stroke-width="0.676465" stroke-linecap="round" stroke-linejoin="round"/>
<path d="M130.279 74.7891V79.8239" stroke="black" stroke-width="0.676465" stroke-linecap="round" stroke-linejoin="round"/>
<path d="M136.678 74.6855V80.5623" stroke="black" stroke-width="0.676465" stroke-linecap="round" stroke-linejoin="round"/>
<path d="M132.896 74.5562V79.9169" stroke="black" stroke-width="0.676465" stroke-linecap="round" stroke-linejoin="round"/>
<path d="M133.283 80.2993H135.486" stroke="black" stroke-width="0.676465" stroke-linecap="round" stroke-linejoin="round"/>
<path d="M143.332 74.1631V80.0398" stroke="black" stroke-width="0.676465" stroke-linecap="round" stroke-linejoin="round"/>
<path d="M138.744 73.1035L143.15 80.0263" stroke="black" stroke-width="0.676465" stroke-linecap="round" stroke-linejoin="round"/>
<path d="M139.326 74.5679V79.9286" stroke="black" stroke-width="0.676465" stroke-linecap="round" stroke-linejoin="round"/>
<path d="M146.531 73.4067V78.7674" stroke="black" stroke-width="0.676465" stroke-linecap="round" stroke-linejoin="round"/>
<path d="M148.453 73.856H154.117" stroke="black" stroke-width="0.676465" stroke-linecap="round" stroke-linejoin="round"/>
<path d="M151.602 73.5977V79.2618" stroke="black" stroke-width="0.676465" stroke-linecap="round" stroke-linejoin="round"/>
<path d="M40.0963 71.8359L40.2036 71.8421L39.9136 71.9739L39.6366 72.4134L39.047 73.5839L38.5652 74.8731L38.4414 75.7795L38.1157 76.3806L38.0496 77.2225L37.9077 77.1572L37.7432 77.7424L37.5163 77.9075L37.5819 78.0057L37.5125 78.2109L37.4668 78.158L37.6755 77.9906L37.702 77.7231" stroke="black" stroke-width="0.676465" stroke-linecap="round" stroke-linejoin="round"/>
<path d="M35.5911 82.9652L35.5127 82.8623L35.5565 82.2755L35.4883 82.1758L35.958 81.5821L36.2189 81.4016L36.6939 81.2705L37.2553 81.3958L37.7716 81.901L37.9205 82.5376L37.5361 83.5581L36.5365 84.7054L36.1066 84.8241L36.2788 84.7348L36.6119 84.8651L37.2626 85.4843L37.6953 86.3189L38.0714 86.7688L38.1367 87.5191L38.3595 88.0707L38.4462 87.9857L38.3801 87.9679" stroke="black" stroke-width="0.676465" stroke-linecap="round" stroke-linejoin="round"/>
<path d="M25.8903 81.758L25.4192 81.7197L24.9413 82.0131L24.3573 82.6324L24.3117 82.8786L23.9874 83.3525L23.8286 84.0587L23.5532 84.4708L23.5643 84.9865L23.4609 85.3077L23.5833 85.6857L23.5056 85.9084L23.8209 86.0603L23.9124 86.1848L23.8682 86.3027L24.0664 86.5431L24.6424 86.7202L25.3422 86.7665L25.7482 86.6815L26.3608 86.368L26.4221 86.1276L26.7757 85.8678L27.0455 85.4789L27.001 85.1214L27.2237 84.5849L27.2794 84.1581L26.9262 83.7058L26.9043 83.4225L26.5256 83.0027L26.2729 82.2621L25.7013 82.0046L25.6158 82.0464" stroke="black" stroke-width="0.676465" stroke-linecap="round" stroke-linejoin="round"/>
<path d="M21.3708 81.1942L21.3869 81.1084L21.1916 81.2785L20.2587 81.2205L19.9617 81.3307L19.9211 81.4393L19.0706 81.505L18.7779 81.6778L18.5408 81.9955L18.5006 82.3658L17.8986 82.924L17.7257 83.2325L17.7083 83.6975L17.4062 84.6303L17.6145 84.8247L17.6389 85.4517L17.9068 85.8951L17.8378 85.9484L18.0219 86.0249L18.1052 86.3439L18.5012 86.5495L18.3912 86.6403L18.7777 86.8607L19.1477 86.868L20.2785 87.2248L20.7912 87.1386L21.0526 86.9774L21.9103 86.9063L22.1746 86.7118L22.1278 86.7957" stroke="black" stroke-width="0.676465" stroke-linecap="round" stroke-linejoin="round"/>
<path d="M53.4689 81.6538L53.191 81.6546L52.8926 81.4381L52.5629 81.4351L52.0248 81.6848L51.3765 82.43L51.242 82.7918L51.392 82.8607L51.2246 83.2843L51.6974 84.2859L52.7693 84.5425L53.104 84.9067L53.2173 85.2472L53.1048 85.2669L53.2374 85.3431L53.2768 85.7235L53.2204 86.4088L53.0476 86.604L53.1199 86.8124L52.7987 87.1409L52.7565 87.3361L52.6139 87.4483L52.6711 87.49L51.8369 87.7293L50.8477 87.679L50.4109 87.4336L50.2988 87.5109" stroke="black" stroke-width="0.676465" stroke-linecap="round" stroke-linejoin="round"/>
<path d="M64.5039 74.4794L64.5198 74.3936L64.3246 74.5636L63.3918 74.5057L63.0946 74.6158L63.054 74.7244L62.2036 74.7905L61.9109 74.9629L61.6736 75.2807L61.6334 75.651L61.0315 76.2092L60.8587 76.5177L60.8413 76.9827L60.5391 77.9154L60.7474 78.1102L60.7718 78.7368L61.0396 79.1802L60.9708 79.2336L61.1548 79.3101L61.2383 79.629L61.6342 79.8346L61.5244 79.9255L61.9105 80.1458L62.2805 80.1532L63.4115 80.51L63.9241 80.4238L64.1854 80.2626L65.0432 80.1914L65.3076 79.997L65.2608 80.0809" stroke="black" stroke-width="0.676465" stroke-linecap="round" stroke-linejoin="round"/>
<path d="M73.3047 75.4062V80.7669" stroke="black" stroke-width="0.676465" stroke-linecap="round" stroke-linejoin="round"/>
<path d="M74.2559 80.3901H76.4584" stroke="black" stroke-width="0.676465" stroke-linecap="round" stroke-linejoin="round"/>
<path d="M70.4902 74.3652V80.242" stroke="black" stroke-width="0.676465" stroke-linecap="round" stroke-linejoin="round"/>
<path d="M66.709 74.2358V79.5965" stroke="black" stroke-width="0.676465" stroke-linecap="round" stroke-linejoin="round"/>
<path d="M67.6582 79.2197H69.8608" stroke="black" stroke-width="0.676465" stroke-linecap="round" stroke-linejoin="round"/>
<path d="M86.7734 75.083V80.9597" stroke="black" stroke-width="0.676465" stroke-linecap="round" stroke-linejoin="round"/>
<path d="M82.9922 74.9541V80.3148" stroke="black" stroke-width="0.676465" stroke-linecap="round" stroke-linejoin="round"/>
<path d="M83.9434 79.938H86.1463" stroke="black" stroke-width="0.676465" stroke-linecap="round" stroke-linejoin="round"/>
<path d="M75.5684 74.8223H81.2325" stroke="black" stroke-width="0.676465" stroke-linecap="round" stroke-linejoin="round"/>
<path d="M78.7129 74.5635V80.2272" stroke="black" stroke-width="0.676465" stroke-linecap="round" stroke-linejoin="round"/>
<path d="M83.1016 75.2607V80.6214" stroke="black" stroke-width="0.676465" stroke-linecap="round" stroke-linejoin="round"/>
<path d="M78.6094 74.7153V80.076" stroke="black" stroke-width="0.676465" stroke-linecap="round" stroke-linejoin="round"/>
<path d="M73.25 74.5356V79.8963" stroke="black" stroke-width="0.676465" stroke-linecap="round" stroke-linejoin="round"/>
<path d="M66.7344 74.5698V79.9309" stroke="black" stroke-width="0.676465" stroke-linecap="round" stroke-linejoin="round"/>
<path d="M36.1395 71.9531L35.9998 71.9871L35.9883 72.1769L36.1869 72.8747L36.6569 73.2357L37.5267 74.3984L37.5599 74.5766L38.0176 74.7912" stroke="black" stroke-width="0.676465" stroke-linecap="round" stroke-linejoin="round"/>
<path d="M29.5434 70.7446L28.7481 70.8297L29.097 70.992L28.7758 72.1327L28.7965 72.9399L28.6634 73.0829L28.5196 73.7184L28.8261 74.6248L28.5825 74.9128L28.8044 75.9901L28.609 76.2812L28.823 76.7226L28.7315 76.8328L28.8141 76.8502L28.6618 76.8653L28.7265 76.9194L28.6082 77.04L28.9402 77.265L28.6898 77.4227L28.7603 77.6944L28.5174 77.7277L28.7249 77.6732L28.6691 77.6291L28.9104 77.4741L28.8317 77.4656L28.9542 77.4668L28.7101 77.5955L28.6749 77.4756L28.9912 77.5174L28.6821 77.5267L28.6344 77.592L28.7663 77.628L28.6314 77.602L28.7448 77.5599L28.6264 77.6345L28.7017 77.6608L28.6071 77.6368L28.7743 77.6585L28.6085 77.6272L28.6859 77.5642L28.4922 77.645" stroke="black" stroke-width="0.676465" stroke-linecap="round" stroke-linejoin="round"/>
<path d="M29.342 71.3604L29.1382 71.394L29.2863 71.4616L29.123 71.4864L29.4663 71.7287L29.4694 72.0109L29.7247 72.2158L29.6472 72.3182L29.7246 72.4566L30.1503 72.663L30.613 73.5285L31.2449 74.2997L31.2477 74.4369L31.5543 74.4694L31.7794 74.6437L32.017 74.4497L31.7753 74.4292L31.8692 74.377" stroke="black" stroke-width="0.676465" stroke-linecap="round" stroke-linejoin="round"/>
<path d="M33.6822 71.4531L33.1702 71.7523L33.2137 71.8884L32.583 72.9653L32.1384 74.0488L31.8132 74.4218L31.8727 74.5451L31.7084 74.7369L31.5781 74.6862L31.7097 74.7775" stroke="black" stroke-width="0.676465" stroke-linecap="round" stroke-linejoin="round"/>
<path d="M33.9116 71.3501L33.8281 71.7459L33.8705 72.5186L34.0528 73.572L34.2568 73.9493L34.2348 74.47L34.6199 75.1225L34.7434 75.1781L34.6442 75.6737L34.8137 75.7351L34.9461 76.2523L34.9033 76.8971L34.979 76.9984L34.9313 76.9423L34.9382 77.1546L34.8197 77.2798L34.9481 77.257L34.8933 77.1863L34.8139 77.2775" stroke="black" stroke-width="0.676465" stroke-linecap="round" stroke-linejoin="round"/>
<path d="M89.7072 75.7969L88.7578 75.8552L89.1355 75.8015L89.0404 75.805L89.1127 75.8734L88.9836 75.96L89.0995 76.1007L88.9747 76.2004L89.2066 76.5518L89.2835 76.9515L89.2105 77.1981L89.3396 78.4567L89.1115 79.1572L89.0883 80.1421L89.2762 80.3269L89.4896 79.8425" stroke="black" stroke-width="0.676465" stroke-linecap="round" stroke-linejoin="round"/>
<path d="M89.804 75.302L89.7259 75.1988L89.7696 74.612L89.7012 74.5126L90.1712 73.9185L90.4321 73.738L90.9068 73.6069L91.4685 73.7322L91.9845 74.2374L92.1334 74.8741L91.7491 75.8945L90.7495 77.0418L90.3197 77.1609L90.4917 77.0712L90.8249 77.2015L91.4754 77.8207L91.9084 78.6553L92.2845 79.1052L92.3498 79.8555L92.5725 80.4075L92.6591 80.3221L92.5934 80.3047" stroke="black" stroke-width="0.676465" stroke-linecap="round" stroke-linejoin="round"/>
<path d="M94.5571 74.3862L94.0187 74.4933L94.0017 74.4117L94.2127 74.4176L94.0604 74.4601L94.0125 74.6356L93.929 74.5285L94.1277 74.5455L93.9777 74.4268L93.7891 74.5606L93.975 74.5919L93.8652 74.789L93.9514 75.8169L93.8706 76.9522L94.0531 77.733L93.9139 78.5018L93.9943 78.8927L93.8903 79.0716L93.9344 80.2958L94.1965 80.4087L94.0461 80.5962L94.2197 80.7284L94.0106 80.7558L94.1544 80.8208L94.0709 80.8316L94.1339 80.6994L93.9854 80.6263L94.0484 80.5077L93.9499 80.5854L94.1567 80.5912L93.9487 80.5699L94.0964 80.6229L93.9897 80.6132L94.0825 80.675L93.912 80.7307L94.0492 80.7608L93.9487 80.7964L94.1729 80.7454L94.0009 80.7887L94.1045 80.7566L94.0743 80.6874L94.0465 80.7852L93.9742 80.7566L94.169 80.7558L93.9622 80.7566L94.1412 80.7013L94.0171 80.7006L94.1536 80.6754L94.079 80.534L94.0508 80.6986L93.922 80.6078" stroke="black" stroke-width="0.676465" stroke-linecap="round" stroke-linejoin="round"/>
<path d="M94.0449 74.5811H97.8208" stroke="black" stroke-width="0.676465" stroke-linecap="round" stroke-linejoin="round"/>
<path d="M94.4668 80.4312H98.2426" stroke="black" stroke-width="0.676465" stroke-linecap="round" stroke-linejoin="round"/>
<path d="M94.2402 77.2056H96.5738" stroke="black" stroke-width="0.676465" stroke-linecap="round" stroke-linejoin="round"/>
<path d="M157.031 79.5609L156.502 79.5617L156.563 79.7353L156.301 80.0871L156.164 80.0952L156.316 79.9877L156.229 79.9166L156.41 79.8706L156.832 78.9081L157.804 77.5818L157.91 77.1562L158.349 76.738L158.849 75.7526L159.211 75.4272L159.26 75.2474L159.855 74.8473L159.735 74.816L159.753 74.6521L159.975 74.6313L159.859 74.5737L160.102 74.4925L159.868 74.4488L160.237 74.2381L160.168 74.2061L160.142 74.3595L160.074 74.2934L160.24 74.3615L160.104 74.3804L160.11 74.3089L160.199 74.3618L159.992 74.4415L160.253 74.4005L160.085 74.3808L160.228 74.4283L160.205 74.3553L160.062 74.4457L160.132 74.4136L160.074 74.5056L160.172 74.4736L160.113 74.4345L160.088 74.5188L160.161 74.5149L160.079 74.4221L160.148 74.3846L160.225 74.426L160.057 74.4507L160.148 74.5149L160.043 74.4805L160.151 74.5122L160.049 74.5045L160.189 74.7159L160.086 74.6738L160.179 74.6668L160.052 74.7066L160.178 74.7658L160.065 74.7565L160.239 74.6889L160.105 74.6749L160.209 74.6518L160.04 74.4952L160.188 74.5215L160.009 74.5095L160.197 74.4364L160.026 74.3139L160.135 74.2196L160.019 74.3468L160.13 74.3317L160.062 74.3097L160.151 74.2412L159.923 74.2919L160.115 74.3093L160.033 74.3104L160.073 74.5311L159.965 74.6927" stroke="black" stroke-width="0.676465" stroke-linecap="round" stroke-linejoin="round"/>
<path d="M156.521 74.3095L156.529 74.0965L156.248 73.8789L156.545 74.1139L156.42 74.1684L156.505 74.2515L156.478 74.4456L156.735 74.6052L156.981 75.0749L157.314 76.0846L157.26 76.2554L157.703 76.7831L157.726 76.8697L157.626 76.8905L157.875 76.9903L157.793 77.0556L158.047 77.5554L158.257 77.7061L158.16 77.7548L158.366 77.7684L158.099 77.761L158.298 77.7641L158.115 77.7661L158.254 77.7753L158.063 78.037L158.287 78.0645L158.114 78.0436L158.134 78.2388" stroke="black" stroke-width="0.676465" stroke-linecap="round" stroke-linejoin="round"/>
<path d="M114.582 74.6569L114.111 74.6187L113.633 74.912L113.049 75.5313L113.003 75.7775L112.679 76.2514L112.52 76.9573L112.245 77.3697L112.256 77.8854L112.152 78.2066L112.275 78.5847L112.197 78.8073L112.512 78.9592L112.604 79.0837L112.56 79.2016L112.758 79.4416L113.334 79.6191L114.034 79.6655L114.44 79.5804L115.052 79.2669L115.114 79.0265L115.467 78.7667L115.737 78.3775L115.692 78.0203L115.915 77.4838L115.971 77.057L115.618 76.6048L115.596 76.3214L115.217 75.9016L114.965 75.1606L114.393 74.9035L114.307 74.9453" stroke="black" stroke-width="0.676465" stroke-linecap="round" stroke-linejoin="round"/>
<path d="M29.2383 81.729V87.0897" stroke="black" stroke-width="0.676465" stroke-linecap="round" stroke-linejoin="round"/>
<path d="M30.1914 86.7134H32.3941" stroke="black" stroke-width="0.676465" stroke-linecap="round" stroke-linejoin="round"/>
<path d="M35.4943 83.4614L34.5449 83.5198L34.9225 83.4661L34.8276 83.4695L34.9 83.538L34.7707 83.6245L34.8866 83.7652L34.762 83.865L34.9939 84.2164L35.0707 84.6161L34.9975 84.8627L35.1269 86.1213L34.8986 86.8217L34.8753 87.8066L35.0634 87.991L35.2767 87.5071" stroke="black" stroke-width="0.676465" stroke-linecap="round" stroke-linejoin="round"/>
<path d="M33.0215 81.8584V87.7351" stroke="black" stroke-width="0.676465" stroke-linecap="round" stroke-linejoin="round"/>
<path d="M45.2988 86.7695H49.075" stroke="black" stroke-width="0.676465" stroke-linecap="round" stroke-linejoin="round"/>
<path d="M43.0507 81.3461L42.7729 81.3469L42.4744 81.1304L42.1448 81.127L41.6067 81.3767L40.9585 82.1219L40.8239 82.4837L40.974 82.5529L40.8066 82.9762L41.2791 83.9778L42.3512 84.2348L42.6858 84.5986L42.7991 84.9395L42.6866 84.9588L42.8194 85.0354L42.8589 85.4157L42.8023 86.1007L42.6295 86.2963L42.7019 86.5043L42.3806 86.8332L42.3385 87.0284L42.1959 87.1405L42.2529 87.1823L41.4186 87.4212L40.4297 87.3709L39.9929 87.1254L39.8809 87.2028" stroke="black" stroke-width="0.676465" stroke-linecap="round" stroke-linejoin="round"/>
<path d="M45.3892 80.7246L44.8507 80.8317L44.8337 80.7505L45.0451 80.7559L44.8925 80.7984L44.8445 80.9739L44.761 80.8673L44.9597 80.8843L44.8097 80.7652L44.6211 80.899L44.807 80.9306L44.6972 81.1278L44.7834 82.1552L44.7027 83.2909L44.8855 84.0714L44.7459 84.8406L44.8264 85.231L44.7224 85.41L44.7668 86.6342L45.0285 86.7475L44.8782 86.9346L45.0521 87.0668L44.8426 87.0942L44.9864 87.1595L44.9033 87.1704L44.9659 87.0382L44.8175 86.9647L44.8805 86.8464L44.7819 86.9237L44.9887 86.9295L44.7807 86.9087L44.9284 86.9616L44.8221 86.9516L44.9145 87.0138L44.744 87.0695L44.8812 87.0992L44.7811 87.1348L45.0049 87.0842L44.8329 87.1271L44.9365 87.095L44.9064 87.0258L44.8785 87.1236L44.8063 87.095L45.0015 87.0946L44.7947 87.095L44.9732 87.0397L44.8495 87.0389L44.9856 87.0138L44.911 86.8727L44.8828 87.037L44.7541 86.9465" stroke="black" stroke-width="0.676465" stroke-linecap="round" stroke-linejoin="round"/>
<path d="M44.877 80.9199H48.6528" stroke="black" stroke-width="0.676465" stroke-linecap="round" stroke-linejoin="round"/>
<path d="M45.0742 83.5444H47.4074" stroke="black" stroke-width="0.676465" stroke-linecap="round" stroke-linejoin="round"/>
<path d="M6.79475 121.453L6.40372 121.704L6.63859 121.649L6.87996 121.269L7.32605 121.012L8.66122 120.822L8.96973 120.965L9.31828 121.421L9.24735 121.518L9.48809 121.6L9.42918 122.147L9.13942 122.562L8.87533 123.509L8.6221 123.864L8.62042 124.227L8.09502 124.614L8.04773 124.857L7.11418 125.486L6.40381 126.32L6.47908 126.414L6.38844 126.499L5.75974 126.913L5.83246 127.194L5.57426 127.258L5.49208 127.352L5.59438 127.499L5.37959 127.551L5.55224 127.804L5.25218 128.085L5.33412 128.341L5.15319 128.355L5.2766 128.352L5.0293 128.579L5.27031 128.622L5.03842 128.576L5.37786 128.518L5.13131 128.546L6.02227 128.696L7.19417 128.486L7.16512 128.368L8.63805 128.189L8.94611 128.203L8.88005 128.317L9.35891 128.482L9.87267 128.372L10.2602 128.474L10.0354 128.441L10.4537 128.297L10.1861 128.238L10.1796 128.132L10.5246 127.848" stroke="black" stroke-width="1.64284" stroke-linecap="round" stroke-linejoin="round"/>
<path d="M72.5581 59.9508L73.2299 62.0482L74.2833 63.9829L75.6799 65.6861L77.3715 67.0974L78.6332 67.8508L79.9795 68.4399L82.111 68.9965L84.3085 69.1442L86.4952 68.877L88.593 68.2052L90.5277 67.1523L92.2305 65.7552L93.6418 64.0641L94.3952 62.802L94.9847 61.4556L95.5413 59.3246L95.6886 57.1267L95.4219 54.9403L94.7497 52.8425L93.6967 50.9078L92.2997 49.2047L90.6085 47.7938L89.3464 47.0404L88.0001 46.4509L85.869 45.8943L83.6711 45.7466L81.4848 46.0137L79.3869 46.6855L77.4523 47.7385L76.2872 48.6345L75.2439 49.6693L73.9416 51.4459L72.9953 53.4351L72.4387 55.5665L72.291 57.7641L72.5581 59.9508Z" stroke="black" stroke-width="2.31931" stroke-linecap="round" stroke-linejoin="round"/>
<path d="M32.7252 69.1282L34.9168 68.7331L36.9955 67.9349L38.8878 66.7609L40.5266 65.2534L41.8539 63.4656L42.8227 61.4605L43.3986 59.3094L43.5535 57.8316L43.5222 56.3461L43.1273 54.1547L42.3289 52.0758L41.1551 50.1837L39.6474 48.5447L38.4828 47.622L37.2118 46.8528L35.1499 46.012L32.9669 45.5721L30.7402 45.5493L28.5487 45.944L26.47 46.7426L24.5776 47.9166L22.9388 49.4241L22.0162 50.5888L21.2468 51.8598L20.4059 53.9216L19.9662 56.1045L19.9434 58.3314L20.3381 60.5228L21.1366 62.6016L22.3104 64.4938L23.818 66.1328L25.6061 67.4598L27.6111 68.4285L29.0335 68.858L30.4985 69.1054L32.7252 69.1282Z" stroke="black" stroke-width="0.773103" stroke-linecap="round" stroke-linejoin="round"/>
<path d="M133.694 69.5457L135.885 69.151L137.964 68.3524L139.856 67.1784L141.495 65.6709L142.823 63.8831L143.791 61.878L144.367 59.7269L144.522 58.2491L144.491 56.7636L144.096 54.5722L143.297 52.4933L142.124 50.6012L140.616 48.9622L139.451 48.0399L138.181 47.2702L136.119 46.4295L133.935 45.9896L131.709 45.9668L129.517 46.3615L127.439 47.1601L125.546 48.334L123.907 49.8416L122.985 51.0063L122.216 52.2772L121.374 54.3391L120.935 56.522L120.912 58.7489L121.307 60.9402L122.105 63.0191L123.279 64.9113L124.787 66.5503L126.575 67.8773L128.58 68.846L130.002 69.2754L131.467 69.5228L133.694 69.5457Z" stroke="black" stroke-width="0.773103" stroke-linecap="round" stroke-linejoin="round"/>
</svg>
