<svg width="316" height="22" viewBox="0 0 316 22" fill="none" xmlns="http://www.w3.org/2000/svg">
<path d="M92.0156 7.42782L92.0349 7.3252L91.8006 7.52895L90.6822 7.45952L90.326 7.59158L90.2773 7.72176L89.2574 7.801L88.9065 8.00777L88.622 8.38888L88.5737 8.83298L87.8519 9.50236L87.6447 9.87214L87.624 10.4298L87.2617 11.5482L87.5115 11.7818L87.5406 12.533L87.8617 13.0647L87.779 13.1288L87.9998 13.2205L88.0998 13.6031L88.5744 13.8499L88.4427 13.9586L88.9061 14.2227L89.3498 14.2318L90.706 14.6593L91.3206 14.5559L91.6338 14.3627L92.6624 14.2774L92.9793 14.0446L92.9231 14.145" stroke="black" stroke-width="0.754651" stroke-linecap="round" stroke-linejoin="round"/>
<path d="M99.1758 7.92383V14.9708" stroke="black" stroke-width="0.754651" stroke-linecap="round" stroke-linejoin="round"/>
<path d="M94.6387 7.76953V14.1976" stroke="black" stroke-width="0.754651" stroke-linecap="round" stroke-linejoin="round"/>
<path d="M95.7793 13.7461H98.4206" stroke="black" stroke-width="0.754651" stroke-linecap="round" stroke-linejoin="round"/>
<path d="M102.449 7.91064V14.3388" stroke="black" stroke-width="0.754651" stroke-linecap="round" stroke-linejoin="round"/>
<path d="M103.588 13.8872H106.229" stroke="black" stroke-width="0.754651" stroke-linecap="round" stroke-linejoin="round"/>
<path d="M104.99 7.91895H111.782" stroke="black" stroke-width="0.754651" stroke-linecap="round" stroke-linejoin="round"/>
<path d="M127.269 7.87158L126.623 7.99987L126.603 7.90252L126.856 7.90894L126.673 7.95987L126.616 8.17042L126.516 8.04251L126.754 8.06288L126.574 7.91988L126.348 8.08062L126.571 8.11835L126.439 8.35456L126.542 9.5869L126.445 10.9487L126.665 11.8844L126.497 12.8066L126.594 13.2753L126.469 13.4896L126.522 14.9578L126.836 15.0932L126.656 15.3177L126.864 15.4762L126.613 15.5094L126.786 15.5875L126.686 15.6003L126.762 15.4419L126.583 15.3539L126.659 15.2121L126.541 15.3049L126.789 15.3117L126.539 15.2868L126.716 15.3498L126.588 15.3385L126.7 15.4124L126.495 15.4796L126.66 15.5151L126.539 15.5581L126.808 15.4969L126.602 15.5486L126.726 15.5102L126.69 15.4271L126.657 15.5445L126.57 15.5102L126.804 15.5094L126.556 15.5102L126.77 15.4437L126.622 15.443L126.785 15.4128L126.696 15.2434L126.662 15.4407L126.507 15.3321" stroke="black" stroke-width="0.754651" stroke-linecap="round" stroke-linejoin="round"/>
<path d="M126.656 8.10547H131.184" stroke="black" stroke-width="0.754651" stroke-linecap="round" stroke-linejoin="round"/>
<path d="M127.164 15.1206H131.692" stroke="black" stroke-width="0.754651" stroke-linecap="round" stroke-linejoin="round"/>
<path d="M126.893 11.2529H129.691" stroke="black" stroke-width="0.754651" stroke-linecap="round" stroke-linejoin="round"/>
<path d="M121.457 9.56396L120.318 9.63377L120.771 9.56962L120.657 9.57378L120.744 9.65603L120.589 9.75942L120.728 9.92808L120.578 10.0481L120.856 10.4692L120.948 10.9484L120.861 11.2442L121.016 12.7535L120.742 13.5934L120.715 14.7741L120.94 14.9956L121.196 14.4152" stroke="black" stroke-width="0.754651" stroke-linecap="round" stroke-linejoin="round"/>
<path d="M121.573 8.96977L121.479 8.84601L121.531 8.14268L121.449 8.02306L122.013 7.31105L122.325 7.09447L122.895 6.9375L123.568 7.08729L124.187 7.69328L124.366 8.45661L123.905 9.68065L122.706 11.056L122.191 11.1986L122.397 11.0915L122.797 11.2473L123.577 11.9899L124.096 12.9905L124.547 13.5301L124.625 14.43L124.892 15.0919L124.996 14.9896L124.917 14.9685" stroke="black" stroke-width="0.754651" stroke-linecap="round" stroke-linejoin="round"/>
<path d="M151.921 8.84326L151.498 8.17087L151.266 7.33057L151.635 7.39358L151.551 7.93504L151.733 7.85693L151.755 8.00937L152.578 8.6546L152.852 9.20096L153.701 10.3141L154.541 11.1653L154.592 11.4257L155.305 12.506L156.178 13.3629L156.666 13.6236L156.576 13.664L156.756 13.6157L156.621 13.5334L156.823 13.5991L156.561 13.5972L156.907 13.5066L156.51 13.5395L156.808 13.5255L156.562 13.4949L156.667 13.444L156.68 13.5504L156.888 13.5134L156.594 13.5262L156.735 13.4979L156.651 13.418L156.712 13.4942L156.615 13.5036L156.75 13.5312L156.604 13.5244L156.722 13.4779L156.676 13.5644L156.775 13.5711L156.597 13.5595L156.952 13.7836L157.033 13.8843L156.941 13.9281L157.082 13.9296L156.93 13.9315H157.094L156.892 13.9662L157.163 14.0021L156.931 14.0511L157.063 14.053L157.171 14.4858L157.357 14.4141L157.069 14.436L157.327 14.3156L157.19 14.0602L156.721 13.7406L156.658 13.5108L156.857 13.2795L156.669 13.5745" stroke="black" stroke-width="0.754651" stroke-linecap="round" stroke-linejoin="round"/>
<path d="M151.979 15.4166L156.506 7.87012" stroke="black" stroke-width="0.754651" stroke-linecap="round" stroke-linejoin="round"/>
<path d="M167.717 7.25732V15.5585" stroke="black" stroke-width="0.754651" stroke-linecap="round" stroke-linejoin="round"/>
<path d="M189.684 8.48145V14.9096" stroke="black" stroke-width="0.754651" stroke-linecap="round" stroke-linejoin="round"/>
<path d="M171.328 7.04785V15.349" stroke="black" stroke-width="0.754651" stroke-linecap="round" stroke-linejoin="round"/>
<path d="M171.768 6.75439L171.253 7.10606L171.622 6.9789L171.954 7.10417L172.375 6.894L172.646 6.97966L173.227 6.92155L174.186 7.40717L174.565 7.35623L174.813 7.5962L175.233 7.72751L175.069 7.82411L175.317 7.9324L175.46 8.34557L175.261 8.40481L175.333 8.53047L175.204 9.2553L175.027 9.48962L175.104 9.63338L173.667 10.105L172.64 10.1982L172.616 10.2707L172.758 10.245L172.565 10.296L172.778 10.2171L172.6 10.2265L172.748 10.2537L172.542 10.3454L172.632 10.3869L172.516 10.4805L172.615 10.4793L172.48 10.4495L172.701 10.4209L172.419 10.399L172.478 10.4507L172.295 10.5454L173.568 10.6344L173.686 10.7495L174.273 10.8031L174.587 11.237L174.995 11.4193L175.17 11.7936L175.364 11.8988L175.275 11.9687L175.401 12.1034L175.292 12.2577L175.395 12.3618L175.475 13.0867L175.363 13.1101L175.485 13.1086L175.423 13.2938L175.514 13.4549L175.41 13.5395L175.608 13.6444L175.384 13.681L175.358 14.0753L175.086 14.4364L174.081 14.5039L173.995 14.6454L173.424 14.7933L172.658 14.899L171.588 14.8476L171.315 14.7435L171.477 14.7382L171.278 14.7869L171.33 14.6865L171.17 14.6707L171.25 14.5439L171.123 14.5488" stroke="black" stroke-width="0.754651" stroke-linecap="round" stroke-linejoin="round"/>
<path d="M159.609 6.44531V14.7465" stroke="black" stroke-width="0.754651" stroke-linecap="round" stroke-linejoin="round"/>
<path d="M159.965 10.5088H163.651" stroke="black" stroke-width="0.660319" stroke-linecap="round" stroke-linejoin="round"/>
<path d="M163.518 6.82227V15.1234" stroke="black" stroke-width="0.754651" stroke-linecap="round" stroke-linejoin="round"/>
<path d="M179.117 8.0791V16.3803" stroke="black" stroke-width="0.754651" stroke-linecap="round" stroke-linejoin="round"/>
<path d="M195.948 8.21205L195.383 8.16602L194.81 8.51806L194.11 9.26064L194.055 9.5557L193.666 10.1243L193.476 10.9707L193.146 11.465L193.159 12.0834L193.035 12.4683L193.182 12.9214L193.089 13.189L193.467 13.3712L193.577 13.5199L193.523 13.6614L193.761 13.9497L194.452 14.1621L195.291 14.2176L195.778 14.1157L196.512 13.7399L196.586 13.4516L197.01 13.1403L197.333 12.6735L197.28 12.2449L197.547 11.6019L197.614 11.0899L197.19 10.5473L197.164 10.2081L196.71 9.70475L196.407 8.81614L195.722 8.50787L195.619 8.55768" stroke="black" stroke-width="0.754651" stroke-linecap="round" stroke-linejoin="round"/>
<path d="M204.613 7.41455V14.4611" stroke="black" stroke-width="0.754651" stroke-linecap="round" stroke-linejoin="round"/>
<path d="M199.111 6.14404L204.394 14.4452" stroke="black" stroke-width="0.754651" stroke-linecap="round" stroke-linejoin="round"/>
<path d="M199.811 7.89941V14.3275" stroke="black" stroke-width="0.754651" stroke-linecap="round" stroke-linejoin="round"/>
<path d="M146.313 7.99463L145.727 8.11122L145.708 8.02255L145.938 8.02859L145.772 8.075L145.72 8.26593L145.629 8.14971L145.846 8.1682L145.682 8.03878L145.477 8.18443L145.679 8.21876L145.56 8.43346L145.654 9.55261L145.565 10.7895L145.764 11.64L145.613 12.4776L145.7 12.9033L145.587 13.098L145.635 14.4314L145.921 14.5544L145.757 14.7586L145.946 14.9027L145.718 14.9325L145.874 15.0035L145.784 15.0151L145.852 14.8714L145.691 14.7914L145.759 14.6623L145.652 14.7469L145.877 14.7529L145.651 14.7303L145.812 14.7876L145.695 14.7771L145.796 14.8446L145.611 14.9053L145.76 14.9378L145.651 14.9767L145.895 14.9212L145.707 14.9684L145.82 14.9333L145.787 14.8582L145.757 14.9646L145.678 14.9333L145.891 14.9325L145.666 14.9333L145.86 14.8729L145.725 14.8725L145.874 14.845L145.792 14.691L145.762 14.8703L145.621 14.7714" stroke="black" stroke-width="0.660319" stroke-linecap="round" stroke-linejoin="round"/>
<path d="M145.756 8.20703H149.869" stroke="black" stroke-width="0.660319" stroke-linecap="round" stroke-linejoin="round"/>
<path d="M146.215 14.5796H150.328" stroke="black" stroke-width="0.660319" stroke-linecap="round" stroke-linejoin="round"/>
<path d="M145.971 11.0659H148.512" stroke="black" stroke-width="0.660319" stroke-linecap="round" stroke-linejoin="round"/>
<path d="M181.15 6.87451H187.942" stroke="black" stroke-width="0.754651" stroke-linecap="round" stroke-linejoin="round"/>
<path d="M184.922 6.56494V13.3568" stroke="black" stroke-width="0.754651" stroke-linecap="round" stroke-linejoin="round"/>
<path d="M142.668 2.2876L133.234 21.1539" stroke="black" stroke-width="0.754651" stroke-linecap="round" stroke-linejoin="round"/>
<path d="M87.6577 1L78.2246 19.8663" stroke="black" stroke-width="0.754651" stroke-linecap="round" stroke-linejoin="round"/>
<path d="M215.228 2.41553L205.795 21.2818" stroke="black" stroke-width="0.754651" stroke-linecap="round" stroke-linejoin="round"/>
<path d="M222.305 6.88139L222.227 6.83838L222.299 6.99044L222.214 6.94781L222.316 6.8912L222.259 7.00139L222.424 7.01836L222.138 7.12703L222.299 7.16174L222.303 9.12346L222.217 9.29514L222.247 9.45022L222.553 9.67247L222.571 9.86793L222.249 10.1924L222.37 10.6501L222.28 10.8641L222.547 11.0637L222.266 11.1637L222.361 11.4504L222.28 11.9172L222.449 11.9715L222.349 12.0425L222.47 12.2349L222.302 12.6137L222.38 12.6862L222.229 12.7963L222.336 12.8356L222.25 13.2027L222.333 13.2167L222.155 13.2103L222.434 13.3944L222.288 13.4544L222.294 13.6148L222.075 13.6823L222.276 13.7804L222.139 13.7921L222.256 13.7963L221.834 14.7796L221.644 14.7516L221.814 14.8003L221.621 14.8064L221.503 15.0686L221.24 15.1437L221.041 15.0407L220.639 15.0788L220.398 14.8109L220.118 14.8803L220.186 14.803L220.006 14.4079L219.365 13.5031L219.505 13.434L219.128 13.1956L218.998 12.805L219.151 12.6277L218.967 12.5598L219.197 12.116L219.051 12.1058L219.384 11.8591L219.205 11.8281L219.426 11.5497L219.331 11.6489L219.23 11.364L219.371 11.1199L219.47 11.1746L219.142 11.1969L219.283 11.1584L219.345 10.981L219.269 11.0346L219.464 11.0274L219.211 10.955L219.404 10.8218L219.348 10.5901L219.472 10.6124L219.3 10.5909L219.456 10.5769" stroke="black" stroke-width="0.754651" stroke-linecap="round" stroke-linejoin="round"/>
<path d="M227.718 8.79201L227.153 8.74561L226.58 9.09765L225.879 9.84022L225.825 10.1353L225.436 10.7039L225.246 11.5503L224.915 12.0446L224.929 12.663L224.805 13.0479L224.951 13.501L224.858 13.7686L225.236 13.9508L225.346 14.0995L225.293 14.241L225.531 14.5292L226.221 14.7421L227.06 14.7975L227.547 14.6953L228.282 14.3195L228.355 14.0312L228.779 13.7199L229.103 13.2531L229.05 12.8245L229.317 12.1815L229.383 11.6695L228.96 11.1273L228.934 10.7877L228.479 10.2843L228.177 9.39573L227.491 9.08746L227.389 9.13727" stroke="black" stroke-width="0.754651" stroke-linecap="round" stroke-linejoin="round"/>
<path d="M232.729 9.03564V15.4638" stroke="black" stroke-width="0.754651" stroke-linecap="round" stroke-linejoin="round"/>
<path d="M240.277 8.08789V15.1344" stroke="black" stroke-width="0.754651" stroke-linecap="round" stroke-linejoin="round"/>
<path d="M234.775 6.81836L240.058 15.1195" stroke="black" stroke-width="0.754651" stroke-linecap="round" stroke-linejoin="round"/>
<path d="M235.471 8.57324V15.0014" stroke="black" stroke-width="0.754651" stroke-linecap="round" stroke-linejoin="round"/>
<path d="M108.766 7.60938V14.4012" stroke="black" stroke-width="0.754651" stroke-linecap="round" stroke-linejoin="round"/>
<path d="M117.277 8.24609V15.2926" stroke="black" stroke-width="0.754651" stroke-linecap="round" stroke-linejoin="round"/>
<path d="M112.744 8.09082V14.5189" stroke="black" stroke-width="0.754651" stroke-linecap="round" stroke-linejoin="round"/>
<path d="M113.881 14.0679H116.522" stroke="black" stroke-width="0.754651" stroke-linecap="round" stroke-linejoin="round"/>
<path d="M264.636 5.90967L263.682 6.01155L264.1 6.20587L263.715 7.57405L263.74 8.54189L263.581 8.7132L263.408 9.47539L263.776 10.5621L263.484 10.9073L263.75 12.1993L263.515 12.5483L263.772 13.0777L263.662 13.2094L263.761 13.2305L263.578 13.2486L263.656 13.3135L263.514 13.4584L263.912 13.7279L263.612 13.9169L263.697 14.2425L263.405 14.2829L263.654 14.2172L263.587 14.1644L263.877 13.9784L263.782 13.9686L263.929 13.9697L263.636 14.124L263.594 13.9807L263.973 14.0305L263.603 14.0418L263.546 14.1199L263.704 14.1633L263.542 14.132L263.678 14.0818L263.536 14.1712L263.626 14.2029L263.513 14.1739L263.713 14.1995L263.515 14.1622L263.607 14.0867L263.375 14.1837" stroke="black" stroke-width="0.754651" stroke-linecap="round" stroke-linejoin="round"/>
<path d="M264.393 6.64844L264.149 6.68881L264.327 6.76994L264.131 6.79937L264.543 7.09029L264.546 7.42874L264.852 7.67401L264.759 7.79702L264.852 7.96304L265.363 8.21018L265.917 9.24859L266.675 10.173L266.679 10.3375L267.046 10.3764L267.316 10.5858L267.601 10.3526L267.311 10.3285L267.424 10.2655" stroke="black" stroke-width="0.754651" stroke-linecap="round" stroke-linejoin="round"/>
<path d="M269.599 6.75928L268.985 7.11774L269.038 7.28112L268.281 8.5727L267.748 9.87183L267.358 10.319L267.429 10.4669L267.232 10.697L267.076 10.6359L267.234 10.7457" stroke="black" stroke-width="0.754651" stroke-linecap="round" stroke-linejoin="round"/>
<path d="M269.92 6.55957V12.5968" stroke="black" stroke-width="0.754651" stroke-linecap="round" stroke-linejoin="round"/>
<path d="M273.573 6.82715L272.62 6.92902L273.038 7.12334L272.652 8.49153L272.677 9.45899L272.518 9.63067L272.345 10.3929L272.713 11.4796L272.421 11.8248L272.687 13.1168L272.452 13.4658L272.709 13.9952L272.6 14.1269L272.699 14.148L272.516 14.1661L272.594 14.231L272.452 14.3759L272.85 14.6453L272.549 14.8344L272.634 15.16L272.343 15.2004L272.592 15.1347L272.525 15.0819L272.814 14.8959L272.72 14.8861L272.867 14.8872L272.574 15.0415L272.532 14.8981L272.911 14.9479L272.54 14.9593L272.483 15.0374L272.641 15.0808L272.48 15.0494L272.615 14.9993L272.474 15.0887L272.564 15.1204L272.45 15.0913L272.651 15.117L272.452 15.0796L272.545 15.0042L272.312 15.1011" stroke="black" stroke-width="0.754651" stroke-linecap="round" stroke-linejoin="round"/>
<path d="M273.333 7.56543L273.088 7.60581L273.266 7.68693L273.07 7.71636L273.482 8.00728L273.485 8.34574L273.792 8.591L273.699 8.71401L273.791 8.88003L274.302 9.12718L274.857 10.1656L275.615 11.0897L275.618 11.2545L275.986 11.2934L276.256 11.5028L276.54 11.2696L276.25 11.2455L276.363 11.1825" stroke="black" stroke-width="0.754651" stroke-linecap="round" stroke-linejoin="round"/>
<path d="M278.535 7.67676L277.921 8.03522L277.973 8.1986L277.217 9.49018L276.684 10.7893L276.294 11.2361L276.365 11.3844L276.168 11.6145L276.012 11.5534L276.17 11.6632" stroke="black" stroke-width="0.754651" stroke-linecap="round" stroke-linejoin="round"/>
<path d="M278.855 7.47705V13.5143" stroke="black" stroke-width="0.754651" stroke-linecap="round" stroke-linejoin="round"/>
<path d="M294.512 6.72461V13.7715" stroke="black" stroke-width="0.754651" stroke-linecap="round" stroke-linejoin="round"/>
<path d="M289.01 5.45459L294.292 13.7557" stroke="black" stroke-width="0.754651" stroke-linecap="round" stroke-linejoin="round"/>
<path d="M289.707 7.20996V13.6381" stroke="black" stroke-width="0.754651" stroke-linecap="round" stroke-linejoin="round"/>
<path d="M298.395 6.72998V14.2606" stroke="black" stroke-width="0.848982" stroke-linecap="round" stroke-linejoin="round"/>
<path d="M299.943 7.19971H306.735" stroke="black" stroke-width="0.754651" stroke-linecap="round" stroke-linejoin="round"/>
<path d="M303.613 7.12549V13.9173" stroke="black" stroke-width="0.754651" stroke-linecap="round" stroke-linejoin="round"/>
<path d="M260.038 7.31654L259.473 7.27051L258.9 7.62255L258.2 8.36513L258.145 8.6602L257.756 9.22883L257.566 10.0752L257.236 10.5695L257.249 11.1879L257.125 11.5728L257.272 12.0263L257.179 12.2935L257.557 12.4757L257.666 12.6244L257.613 12.7659L257.851 13.0542L258.541 13.2666L259.381 13.3224L259.867 13.2202L260.602 12.8444L260.676 12.5561L261.1 12.2448L261.423 11.778L261.37 11.3494L261.637 10.7064L261.703 10.1944L261.28 9.65218L261.254 9.31259L260.8 8.80924L260.497 7.92064L259.811 7.61236L259.709 7.66217" stroke="black" stroke-width="0.754651" stroke-linecap="round" stroke-linejoin="round"/>
<path d="M254.615 6.64023L254.634 6.5376L254.4 6.74136L253.281 6.67193L252.926 6.80399L252.877 6.93417L251.857 7.01341L251.506 7.22018L251.222 7.60128L251.173 8.04539L250.451 8.71477L250.244 9.08454L250.223 9.64224L249.861 10.7606L250.111 10.9942L250.14 11.7454L250.461 12.2771L250.379 12.3412L250.599 12.4329L250.699 12.8155L251.174 13.0623L251.042 13.171L251.506 13.4351L251.949 13.4442L253.305 13.8717L253.92 13.7683L254.233 13.5751L255.262 13.4898L255.579 13.257L255.523 13.3574" stroke="black" stroke-width="0.754651" stroke-linecap="round" stroke-linejoin="round"/>
<path d="M309.614 7.74361L309.624 7.48779L309.287 7.22705L309.643 7.50892L309.494 7.57419L309.595 7.67381L309.563 7.90624L309.871 8.0983L310.166 8.66127L310.565 9.87211L310.501 10.0766L311.032 10.7094L311.059 10.8132L310.94 10.8381L311.238 10.9577L311.139 11.0362L311.444 11.6353L311.696 11.8165L311.58 11.8746L311.827 11.8912L311.507 11.8821L311.745 11.8859L311.525 11.8881L311.693 11.8991L311.463 12.213L311.733 12.2459L311.524 12.221L311.549 12.4549" stroke="black" stroke-width="0.754651" stroke-linecap="round" stroke-linejoin="round"/>
<path d="M311.135 14.6128L310.501 14.6136L310.574 14.8219L310.259 15.2437L310.096 15.2535L310.278 15.1245L310.173 15.0392L310.39 14.9841L310.896 13.8303L312.062 12.2395L312.189 11.7293L312.715 11.2279L313.315 10.0464L313.749 9.65591L313.808 9.44046L314.521 8.96051L314.377 8.92315L314.399 8.72694L314.665 8.70203L314.526 8.63261L314.817 8.53526L314.536 8.48319L314.98 8.23038L314.896 8.19189L314.866 8.37603L314.784 8.29679L314.983 8.37829L314.819 8.40093L314.827 8.31528L314.934 8.37829L314.685 8.47413L314.999 8.42508L314.797 8.40131L314.968 8.45828L314.941 8.37075L314.77 8.47904L314.853 8.44093L314.784 8.55111L314.901 8.51262L314.831 8.46583L314.801 8.56658L314.888 8.56205L314.79 8.45074L314.873 8.40584L314.965 8.45564L314.764 8.48507L314.873 8.56205L314.747 8.52092L314.876 8.55903L314.755 8.54997L314.922 8.80316L314.798 8.7526L314.91 8.74467L314.757 8.79222L314.908 8.86278L314.773 8.85221L314.981 8.77071L314.821 8.75411L314.946 8.72619L314.744 8.53865L314.921 8.56997L314.706 8.55563L314.932 8.46809L314.726 8.32132L314.857 8.20812L314.718 8.36056L314.852 8.34245L314.769 8.31641L314.876 8.23415L314.603 8.29453L314.833 8.31566L314.736 8.31679L314.783 8.58167L314.653 8.77562" stroke="black" stroke-width="0.754651" stroke-linecap="round" stroke-linejoin="round"/>
<path d="M286.529 7.35156V14.3985" stroke="black" stroke-width="0.754651" stroke-linecap="round" stroke-linejoin="round"/>
<path d="M281.996 7.19678V13.6249" stroke="black" stroke-width="0.754651" stroke-linecap="round" stroke-linejoin="round"/>
<path d="M282.461 14.0835H285.102" stroke="black" stroke-width="0.754651" stroke-linecap="round" stroke-linejoin="round"/>
<path d="M32.1367 6.12256V14.4237" stroke="black" stroke-width="0.754651" stroke-linecap="round" stroke-linejoin="round"/>
<path d="M32.6152 6.52247L32.7488 6.69189L33.3684 6.65718L33.8204 6.30664L34.506 6.47682L35.292 6.41154L35.3874 6.58624L35.8534 6.66472L35.9346 6.85338L36.141 6.92545L36.098 7.06657L36.7783 7.3024L36.8809 7.56275L37.0299 7.61521L36.9277 7.70878L37.2556 7.86877L37.1635 8.03819L37.3197 8.0578L37.3243 8.22609L37.1907 8.30609L37.239 8.72115L37.0873 9.01583L36.7854 9.22035L36.9149 9.37731L36.5843 9.48749L36.6209 9.55843L35.8772 9.85803L35.335 9.88972L35.0728 10.0097L35.169 10.0429L34.3064 10.3153L34.2125 10.2429L34.2932 10.2237L33.6216 10.2935L33.6616 10.3618L33.311 10.3761L33.3759 10.4716L33.1035 10.4116L33.2997 10.3369L33.4288 10.4285" stroke="black" stroke-width="0.754651" stroke-linecap="round" stroke-linejoin="round"/>
<path d="M40.2634 8.64697L39.125 8.71678L39.5778 8.65263L39.4642 8.65678L39.551 8.73904L39.3959 8.84243L39.5348 9.01147L39.3854 9.13108L39.6634 9.55218L39.7555 10.0314L39.668 10.3272L39.823 11.8365L39.5491 12.6764L39.5212 13.8575L39.7468 14.0786L40.0027 13.4982" stroke="black" stroke-width="0.754651" stroke-linecap="round" stroke-linejoin="round"/>
<path d="M40.3789 8.05278L40.2849 7.92902L40.3374 7.22568L40.2559 7.10607L40.8188 6.39406L41.132 6.17748L41.7014 6.02051L42.3745 6.17031L42.9937 6.77629L43.1722 7.53962L42.7111 8.76366L41.5127 10.139L40.9969 10.2816L41.2037 10.1745L41.6029 10.3303L42.3832 11.0729L42.902 12.0736L43.3529 12.6135L43.4314 13.5134L43.6986 14.1749L43.8027 14.0726L43.7235 14.0515" stroke="black" stroke-width="0.754651" stroke-linecap="round" stroke-linejoin="round"/>
<path d="M48.9972 7.34112L48.8799 7.39508L48.3637 6.99096L48.0629 7.05322L46.7653 8.01276L46.5069 8.53686L46.2322 8.65949L45.6013 9.44773L45.6937 10.0386L45.5156 10.6555L45.7658 11.3027L45.7073 11.6928L45.8035 11.9517L46.5759 13.0591L47.1509 13.5096L47.3773 13.6194L47.9384 13.4391L49.2474 12.2184L50.0228 9.66129L49.8843 8.41763L49.59 7.93088L49.1953 7.67958L48.747 7.03926L47.4985 6.57666L46.4755 6.89022L46.128 7.3064L45.9843 7.87088L45.5458 8.67874" stroke="black" stroke-width="0.754651" stroke-linecap="round" stroke-linejoin="round"/>
<path d="M53.175 7.30518L52.5294 7.43347L52.5086 7.33612L52.7622 7.34253L52.5792 7.39347L52.5218 7.60401L52.4218 7.4761L52.6599 7.49648L52.4803 7.35347L52.2539 7.51383L52.4769 7.55194L52.3452 7.78815L52.4486 9.02049L52.3516 10.3823L52.5709 11.318L52.4037 12.2402L52.5003 12.7089L52.375 12.9232L52.4286 14.3913L52.7425 14.5268L52.5622 14.7513L52.7705 14.9098L52.5192 14.943L52.6916 15.0211L52.592 15.0339L52.6675 14.8754L52.4894 14.7875L52.5648 14.6457L52.4467 14.7385L52.695 14.7453L52.4456 14.7204L52.6225 14.7834L52.4946 14.7721L52.6056 14.846L52.4014 14.9132L52.566 14.9487L52.4456 14.9917L52.7142 14.9305L52.5078 14.9822L52.632 14.9437L52.5961 14.8607L52.5626 14.9781L52.4761 14.9437L52.7097 14.943L52.4618 14.9437L52.6761 14.8773L52.5275 14.8766L52.6908 14.8464L52.6014 14.677L52.5678 14.8743L52.4131 14.7656" stroke="black" stroke-width="0.754651" stroke-linecap="round" stroke-linejoin="round"/>
<path d="M52.5586 7.53857H57.0865" stroke="black" stroke-width="0.754651" stroke-linecap="round" stroke-linejoin="round"/>
<path d="M52.7969 10.6855H55.5947" stroke="black" stroke-width="0.754651" stroke-linecap="round" stroke-linejoin="round"/>
<path d="M59.6895 6.5874V14.8886" stroke="black" stroke-width="0.754651" stroke-linecap="round" stroke-linejoin="round"/>
<path d="M63.6457 7.33545L63.0001 7.46374L62.9797 7.36601L63.2329 7.3728L63.0502 7.42374L62.9929 7.63391L62.8925 7.506L63.1306 7.52637L62.951 7.38374L62.7246 7.54411L62.9476 7.58222L62.8163 7.81843L62.9193 9.05077L62.8223 10.4122L63.0416 11.3483L62.8744 12.2705L62.971 12.7387L62.8461 12.9534L62.8993 14.4216L63.2133 14.5571L63.0329 14.7816L63.2412 14.9401L62.9903 14.9729L63.1627 15.051L63.0631 15.0638L63.1385 14.9053L62.9601 14.8178L63.0355 14.6759L62.9178 14.7684L63.1657 14.7755L62.9163 14.7503L63.0933 14.8137L62.9653 14.802L63.0767 14.8763L62.8721 14.9431L63.0367 14.9789L62.9163 15.0219L63.1849 14.9608L62.9789 15.0125L63.1031 14.9736L63.0668 14.891L63.0336 15.0084L62.9468 14.974L63.1808 14.9733L62.9325 14.9736L63.1468 14.9076L62.9986 14.9069L63.1619 14.8767L63.0725 14.7072L63.0385 14.9042L62.8842 14.7959" stroke="black" stroke-width="0.754651" stroke-linecap="round" stroke-linejoin="round"/>
<path d="M63.5352 14.584H68.0631" stroke="black" stroke-width="0.754651" stroke-linecap="round" stroke-linejoin="round"/>
<path d="M70.3351 7.40918L69.6895 7.53747L69.6688 7.44012L69.9223 7.44653L69.7393 7.49785L69.682 7.70802L69.582 7.5801L69.8201 7.60048L69.6405 7.45785L69.4141 7.61822L69.6367 7.65595L69.5054 7.89216L69.6088 9.1245L69.5118 10.4863L69.7306 11.422L69.5635 12.3442L69.6601 12.8129L69.5352 13.0272L69.5884 14.4953L69.9027 14.6308L69.7223 14.8553L69.9306 15.0142L69.6793 15.047L69.8518 15.1251L69.7521 15.1379L69.8276 14.9795L69.6495 14.8915L69.725 14.7497L69.6069 14.8425L69.8548 14.8493L69.6057 14.8244L69.7827 14.8878L69.6548 14.8761L69.7657 14.9504L69.5616 15.0172L69.7257 15.053L69.6057 15.0957L69.8744 15.0345L69.668 15.0862L69.7921 15.0477L69.7559 14.9651L69.7227 15.0821L69.6359 15.0481L69.8699 15.047L69.622 15.0477L69.8363 14.9813L69.6876 14.9806L69.851 14.9504L69.7616 14.781L69.728 14.9783L69.5733 14.8697" stroke="black" stroke-width="0.754651" stroke-linecap="round" stroke-linejoin="round"/>
<path d="M69.7207 7.64355H74.2486" stroke="black" stroke-width="0.754651" stroke-linecap="round" stroke-linejoin="round"/>
<path d="M70.2266 14.6577H74.7545" stroke="black" stroke-width="0.754651" stroke-linecap="round" stroke-linejoin="round"/>
<path d="M69.957 10.7905H72.7549" stroke="black" stroke-width="0.754651" stroke-linecap="round" stroke-linejoin="round"/>
<path d="M5.5332 8.09912V15.1457" stroke="black" stroke-width="0.754651" stroke-linecap="round" stroke-linejoin="round"/>
<path d="M1 7.94434V14.3724" stroke="black" stroke-width="0.754651" stroke-linecap="round" stroke-linejoin="round"/>
<path d="M1.46289 14.8301H4.10417" stroke="black" stroke-width="0.754651" stroke-linecap="round" stroke-linejoin="round"/>
<path d="M11.3262 7.90617L10.993 7.90693L10.6349 7.64771L10.2399 7.64355L9.59463 7.94315L8.81735 8.83666L8.65586 9.27059L8.83584 9.35322L8.6351 9.8611L9.20184 11.0621L10.4874 11.37L10.8885 11.8066L11.0243 12.2149L10.8896 12.2386L11.0488 12.3299L11.096 12.7861L11.0285 13.6076L10.8213 13.8419L10.9077 14.0913L10.5225 14.4856L10.4723 14.7199L10.3014 14.8542L10.3697 14.9041L9.369 15.1908L8.18345 15.1308L7.65973 14.8361L7.52539 14.9293" stroke="black" stroke-width="0.754651" stroke-linecap="round" stroke-linejoin="round"/>
<path d="M14.4117 7.41797L13.7657 7.54626L13.7453 7.44854L13.9989 7.45532L13.8159 7.50627L13.7585 7.71643L13.6581 7.58852L13.8962 7.6089L13.7166 7.46627L13.4902 7.62663L13.7132 7.66474L13.5819 7.90095L13.6849 9.13329L13.588 10.4951L13.8072 11.4308L13.64 12.353L13.7366 12.8216L13.6117 13.036L13.6649 14.5041L13.9789 14.6396L13.7985 14.8641L14.0072 15.0226L13.7559 15.0554L13.9283 15.1335L13.8287 15.1464L13.9042 14.9879L13.7257 14.9003L13.8015 14.7585L13.6834 14.8509L13.9313 14.8581L13.6819 14.8328L13.8589 14.8962L13.7313 14.8845L13.8423 14.9588L13.6378 15.0256L13.8023 15.0614L13.6819 15.1045L13.9506 15.0433L13.7446 15.095L13.8687 15.0562L13.8325 14.9735L13.7993 15.0909L13.7125 15.0565L13.9464 15.0558L13.6981 15.0562L13.9125 14.9901L13.7642 14.9894L13.9276 14.9592L13.8381 14.7898L13.8042 14.9867L13.6498 14.8784" stroke="black" stroke-width="0.754651" stroke-linecap="round" stroke-linejoin="round"/>
<path d="M13.7969 7.65186H18.3248" stroke="black" stroke-width="0.754651" stroke-linecap="round" stroke-linejoin="round"/>
<path d="M14.3027 14.667H18.8306" stroke="black" stroke-width="0.754651" stroke-linecap="round" stroke-linejoin="round"/>
<path d="M14.0352 10.7993H16.833" stroke="black" stroke-width="0.754651" stroke-linecap="round" stroke-linejoin="round"/>
<path d="M20.8376 9.80469L19.6992 9.87487L20.152 9.81072L20.0384 9.81487L20.1248 9.89675L19.9701 10.0005L20.109 10.1692L19.9596 10.2888L20.2377 10.7099L20.3297 11.1895L20.2422 11.4853L20.3973 12.9946L20.1233 13.8341L20.0954 15.0152L20.3211 15.2367L20.5769 14.6563" stroke="black" stroke-width="0.754651" stroke-linecap="round" stroke-linejoin="round"/>
<path d="M20.9511 9.21049L20.8572 9.08711L20.9096 8.3834L20.8281 8.26416L21.3911 7.55215L21.7043 7.33519L22.2737 7.17822L22.9468 7.3284L23.566 7.934L23.7445 8.69771L23.2834 9.92137L22.085 11.2971L21.5692 11.4394L21.776 11.3322L22.1752 11.4884L22.9555 12.231L23.4743 13.2317L23.9252 13.7712L24.0037 14.6711L24.2709 15.3326L24.375 15.2303L24.2957 15.2092" stroke="black" stroke-width="0.754651" stroke-linecap="round" stroke-linejoin="round"/>
</svg>
