<svg width="295" height="234" viewBox="0 0 295 234" fill="none" xmlns="http://www.w3.org/2000/svg">
<path d="M294.117 1.98291V208.557" stroke="black" stroke-width="1.38177" stroke-linecap="round" stroke-linejoin="round"/>
<path d="M2.70312 2.16016H292.874" stroke="black" stroke-width="1.38177" stroke-linecap="round" stroke-linejoin="round"/>
<path d="M1 206.646H291.171" stroke="black" stroke-width="1.38177" stroke-linecap="round" stroke-linejoin="round"/>
<path d="M89.1992 31.645L89.4438 31.9552L90.5782 31.8917L91.4059 31.2505L92.6612 31.5621L94.1004 31.4426L94.2751 31.7617L95.1284 31.9054L95.2769 32.2509L95.6548 32.3829L95.5761 32.6412L96.8217 33.073L97.0097 33.5497L97.2826 33.6465L97.0953 33.8171L97.6957 34.1101L97.5271 34.4203L97.8132 34.4562L97.8214 34.7643L97.5776 34.9115L97.6653 35.6708L97.3876 36.2104L96.8349 36.5848L97.0718 36.8729L96.4666 37.0746L96.5337 37.2038L95.1719 37.7524L94.1791 37.8111L93.6989 38.0308L93.8751 38.0909L92.2958 38.5904L92.1237 38.4578L92.2716 38.4226L91.0418 38.5497L91.115 38.6747L90.4732 38.7017L90.5921 38.8765L90.0932 38.7666L90.4525 38.6298L90.6888 38.7977" stroke="black" stroke-width="1.38177" stroke-linecap="round" stroke-linejoin="round"/>
<path d="M60.0288 30.187L58.4716 30.3535L59.1549 30.6706L58.5262 32.9042L58.5662 34.485L58.3058 34.7648L58.0246 36.0091L58.6243 37.7833L58.1476 38.3477L58.5821 40.4563L58.1994 41.027L58.6188 41.8906L58.4391 42.1061L58.6008 42.1407L58.303 42.1704L58.4295 42.2761L58.198 42.5124L58.8481 42.9525L58.3576 43.2613L58.4958 43.7932L58.0198 43.8589L58.426 43.7518L58.3168 43.6654L58.7894 43.3622L58.6353 43.3456L58.8751 43.3477L58.3977 43.5991L58.3286 43.3649L58.9476 43.4465L58.3424 43.4651L58.2491 43.5922L58.5075 43.6634L58.2436 43.6123L58.4654 43.53L58.2332 43.6765L58.3811 43.7276L58.1959 43.6807L58.5227 43.7228L58.1987 43.6613L58.35 43.539L57.9707 43.6966" stroke="black" stroke-width="1.38177" stroke-linecap="round" stroke-linejoin="round"/>
<path d="M59.6354 31.3926L59.2367 31.4582L59.5262 31.5902L59.207 31.6385L59.8793 32.1139L59.8848 32.6659L60.385 33.0666L60.233 33.2677L60.3843 33.5385L61.2182 33.9427L62.1239 35.6374L63.3613 37.147L63.3668 37.4157L63.9672 37.4793L64.408 37.8206L64.873 37.4406L64.3997 37.4005L64.5835 37.2983" stroke="black" stroke-width="1.38177" stroke-linecap="round" stroke-linejoin="round"/>
<path d="M68.1295 31.5732L67.127 32.1591L67.212 32.4251L65.9767 34.5343L65.1069 36.6553L64.4699 37.3856L64.5867 37.6275L64.2647 38.0026L64.0098 37.9038L64.2675 38.082" stroke="black" stroke-width="1.38177" stroke-linecap="round" stroke-linejoin="round"/>
<path d="M68.5817 31.3721L68.418 32.1479L68.5009 33.661L68.8581 35.7226L69.2574 36.4611L69.2146 37.4808L69.9683 38.7583L70.2101 38.8675L70.016 39.8375L70.3476 39.9584L70.6067 40.9705L70.5231 42.2335L70.6716 42.4317L70.5777 42.3212L70.5915 42.7371L70.3593 42.9824L70.6108 42.9381L70.5038 42.7993L70.3483 42.9775" stroke="black" stroke-width="1.38177" stroke-linecap="round" stroke-linejoin="round"/>
<path d="M88.3242 30.9141V46.1135" stroke="black" stroke-width="1.38177" stroke-linecap="round" stroke-linejoin="round"/>
<path d="M151.803 187.696L153.359 187.529L152.677 187.212L153.305 184.978L153.265 183.398L153.525 183.117L153.807 181.873L153.207 180.099L153.684 179.535L153.249 177.426L153.632 176.856L153.213 175.992L153.392 175.776L153.231 175.742L153.529 175.712L153.402 175.606L153.634 175.37L152.983 174.93L153.474 174.622L153.336 174.09L153.811 174.024L153.405 174.131L153.514 174.217L153.042 174.521L153.196 174.537L152.956 174.534L153.434 174.283L153.503 174.517L152.884 174.436L153.489 174.418L153.582 174.29L153.324 174.219L153.588 174.27L153.366 174.352L153.598 174.206L153.45 174.155L153.636 174.202L153.308 174.159L153.633 174.221L153.482 174.344L153.861 174.186" stroke="black" stroke-width="1.38177" stroke-linecap="round" stroke-linejoin="round"/>
<path d="M152.199 186.49L152.597 186.424L152.308 186.291L152.627 186.243L151.955 185.768L151.949 185.216L151.449 184.815L151.601 184.614L151.449 184.343L150.616 183.94L149.71 182.244L148.473 180.735L148.467 180.467L147.867 180.402L147.426 180.061L146.961 180.442L147.434 180.481L147.25 180.583" stroke="black" stroke-width="1.38177" stroke-linecap="round" stroke-linejoin="round"/>
<path d="M143.701 186.309L144.704 185.723L144.619 185.457L145.853 183.347L146.724 181.226L147.361 180.497L147.244 180.255L147.566 179.879L147.821 179.979L147.563 179.8" stroke="black" stroke-width="1.38177" stroke-linecap="round" stroke-linejoin="round"/>
<path d="M143.252 186.51L143.416 185.735L143.333 184.221L142.976 182.159L142.576 181.421L142.619 180.402L141.865 179.123L141.624 179.014L141.818 178.044L141.486 177.923L141.227 176.911L141.311 175.649L141.162 175.451L141.256 175.561L141.242 175.145L141.474 174.899L141.223 174.944L141.33 175.083L141.485 174.904" stroke="black" stroke-width="1.38177" stroke-linecap="round" stroke-linejoin="round"/>
<path d="M158.477 173.519V188.718" stroke="black" stroke-width="1.38177" stroke-linecap="round" stroke-linejoin="round"/>
<path d="M166.123 172.174V187.373" stroke="black" stroke-width="1.38177" stroke-linecap="round" stroke-linejoin="round"/>
<path d="M172.961 174.785L171.998 174.976L171.968 174.83L172.346 174.841L172.073 174.917L171.987 175.23L171.838 175.04L172.193 175.07L171.925 174.857L171.588 175.096L171.92 175.153L171.724 175.505L171.878 177.342L171.734 179.371L172.06 180.766L171.811 182.141L171.955 182.839L171.769 183.159L171.848 185.347L172.316 185.549L172.047 185.884L172.358 186.12L171.984 186.169L172.241 186.285L172.092 186.304L172.204 186.068L171.939 185.938L172.051 185.726L171.875 185.864L172.245 185.874L171.873 185.837L172.137 185.931L171.946 185.914L172.112 186.025L171.808 186.125L172.053 186.178L171.873 186.242L172.274 186.15L171.966 186.228L172.152 186.17L172.098 186.047L172.048 186.222L171.919 186.17L172.268 186.169L171.897 186.17L172.217 186.072L171.996 186.07L172.239 186.025L172.106 185.772L172.056 186.067L171.826 185.905" stroke="black" stroke-width="1.20905" stroke-linecap="round" stroke-linejoin="round"/>
<path d="M172.398 179.824H176.569" stroke="black" stroke-width="1.20905" stroke-linecap="round" stroke-linejoin="round"/>
<path d="M159.617 178.923H166.366" stroke="black" stroke-width="1.20905" stroke-linecap="round" stroke-linejoin="round"/>
<path d="M172.803 185.59H179.552" stroke="black" stroke-width="1.20905" stroke-linecap="round" stroke-linejoin="round"/>
<path d="M172.719 174.062H179.468" stroke="black" stroke-width="1.20905" stroke-linecap="round" stroke-linejoin="round"/>
<path d="M183.935 177.566L182.238 177.67L182.913 177.574L182.743 177.58L182.873 177.703L182.642 177.857L182.849 178.109L182.627 178.287L183.04 178.915L183.178 179.63L183.047 180.07L183.278 182.32L182.87 183.572L182.829 185.332L183.165 185.662L183.546 184.797" stroke="black" stroke-width="1.20905" stroke-linecap="round" stroke-linejoin="round"/>
<path d="M184.108 176.679L183.968 176.495L184.046 175.446L183.924 175.268L184.764 174.207L185.23 173.884L186.079 173.65L187.083 173.874L188.005 174.777L188.272 175.915L187.584 177.739L185.798 179.789L185.029 180.001L185.337 179.842L185.932 180.074L187.095 181.181L187.869 182.672L188.541 183.477L188.658 184.818L189.056 185.804L189.211 185.652L189.093 185.62" stroke="black" stroke-width="1.20905" stroke-linecap="round" stroke-linejoin="round"/>
<path d="M192.599 175.043L191.637 175.234L191.607 175.089L191.984 175.098L191.712 175.175L191.626 175.488L191.477 175.297L191.832 175.328L191.564 175.115L191.227 175.354L191.559 175.411L191.363 175.763L191.517 177.599L191.372 179.629L191.698 181.024L191.45 182.399L191.593 183.097L191.408 183.416L191.487 185.605L191.955 185.807L191.686 186.141L191.997 186.378L191.622 186.427L191.879 186.543L191.731 186.563L191.843 186.326L191.578 186.195L191.69 185.984L191.514 186.123L191.884 186.132L191.512 186.095L191.776 186.19L191.585 186.172L191.751 186.283L191.446 186.382L191.692 186.436L191.513 186.5L191.913 186.409L191.605 186.486L191.79 186.428L191.736 186.305L191.687 186.48L191.557 186.429L191.906 186.427L191.536 186.428L191.856 186.329L191.634 186.329L191.878 186.283L191.745 186.031L191.694 186.324L191.464 186.163" stroke="black" stroke-width="1.20905" stroke-linecap="round" stroke-linejoin="round"/>
<path d="M191.686 175.392H198.434" stroke="black" stroke-width="1.20905" stroke-linecap="round" stroke-linejoin="round"/>
<path d="M192.436 185.848H199.185" stroke="black" stroke-width="1.20905" stroke-linecap="round" stroke-linejoin="round"/>
<path d="M192.037 180.083H196.207" stroke="black" stroke-width="1.20905" stroke-linecap="round" stroke-linejoin="round"/>
<path d="M223.844 176.297L223.704 176.114L223.782 175.065L223.66 174.887L224.5 173.825L224.967 173.503L225.815 173.269L226.819 173.492L227.741 174.395L228.008 175.533L227.32 177.357L225.534 179.408L224.766 179.62L225.074 179.46L225.669 179.693L226.831 180.8L227.605 182.291L228.277 183.096L228.394 184.437L228.792 185.423L228.947 185.27L228.829 185.239" stroke="black" stroke-width="1.20905" stroke-linecap="round" stroke-linejoin="round"/>
<path d="M232.336 174.661L231.373 174.852L231.343 174.707L231.721 174.716L231.448 174.792L231.362 175.106L231.213 174.915L231.568 174.946L231.3 174.733L230.963 174.972L231.295 175.029L231.099 175.381L231.253 177.217L231.109 179.247L231.435 180.642L231.186 182.017L231.33 182.715L231.144 183.035L231.223 185.223L231.691 185.425L231.422 185.759L231.733 185.996L231.359 186.045L231.616 186.162L231.467 186.181L231.579 185.945L231.314 185.813L231.426 185.602L231.25 185.74L231.62 185.75L231.248 185.713L231.512 185.808L231.321 185.791L231.487 185.901L231.183 186.001L231.428 186.054L231.248 186.118L231.649 186.027L231.341 186.104L231.527 186.046L231.473 185.923L231.423 186.097L231.294 186.047L231.643 186.045L231.272 186.046L231.592 185.947L231.371 185.947L231.614 185.901L231.481 185.649L231.431 185.943L231.201 185.781" stroke="black" stroke-width="1.20905" stroke-linecap="round" stroke-linejoin="round"/>
<path d="M231.422 175.01H238.17" stroke="black" stroke-width="1.20905" stroke-linecap="round" stroke-linejoin="round"/>
<path d="M232.174 185.466H238.923" stroke="black" stroke-width="1.20905" stroke-linecap="round" stroke-linejoin="round"/>
<path d="M231.773 179.701H235.944" stroke="black" stroke-width="1.20905" stroke-linecap="round" stroke-linejoin="round"/>
<path d="M279.566 163.521L279.648 163.8L279.914 163.451L279.688 163.482L280.556 163.45L280.389 163.3L281.875 162.914L283.688 163.476L283.694 163.79L285.587 164.729L286.584 165.663L287.228 166.758L287.302 167.516L287.856 168.133L287.571 168.337L287.629 169.161L287.414 169.362L287.733 169.718L286.965 170.886L286.941 171.612L286.343 172.844L285.523 173.473L284.291 175.523L283.961 175.743L284.052 176.008L282.888 176.881L282.813 177.375L282.05 177.48L282.224 177.709L281.65 178.373L281.734 178.711L281.31 178.91L281.837 179.078L281.497 179.596L281.616 180.198L281.288 180.861L281.611 181.16L281.151 181.807L281.459 183.043L281.592 183L281.21 183.289L281.419 183.349L281.484 183.907L281.234 183.699L281.665 183.498L280.91 181.755L281.183 180.53L281.021 178.78L281.44 177.649L281.255 175.85L283.919 174.093L283.981 173.559L284.993 173.188L285.383 173.286L286.309 172.539L287.061 170.966L287.076 169.728L287.369 169.104L287.02 168.769L287.431 168.482L287.358 168.085L283.81 165.149L283.46 164.426L283.036 164.615L282.537 165.251L281.739 167.205L280.849 168.301" stroke="black" stroke-width="1.38177" stroke-linecap="round" stroke-linejoin="round"/>
<path d="M279.198 168.146L279.45 167.9L279.517 167.506L279.236 167.813L279.467 167.388L279.96 167.328L279.5 167.374L278.873 170.012L279.482 168.234L279.847 167.554L280.336 167.194L279.944 167.193L280.263 167.437L279.935 168.055" stroke="black" stroke-width="1.38177" stroke-linecap="round" stroke-linejoin="round"/>
<path d="M282.744 190.031L282.113 189.998L280.977 190.927L281.226 191.093L280.84 191.376L281.332 191.65L281.842 191.573L282.571 190.682L282.278 190.166L282.46 190.196L282.103 190.294L281.468 191.312L281.708 191.655L281.92 191.62L281.723 191.492L281.992 190.967L281.674 190.603L281.99 190.525L281.685 190.472L281.592 190.683" stroke="black" stroke-width="1.38177" stroke-linecap="round" stroke-linejoin="round"/>
<path d="M247.232 183.98L246.287 183.982L246.397 184.291L245.927 184.921L245.684 184.935L245.955 184.743L245.798 184.616L246.122 184.533L246.877 182.814L248.614 180.442L248.804 179.682L249.588 178.934L250.482 177.174L251.128 176.592L251.216 176.27L252.28 175.555L252.065 175.499L252.098 175.207L252.494 175.17L252.287 175.067L252.721 174.922L252.302 174.844L252.963 174.466L252.839 174.41L252.793 174.684L252.671 174.566L252.968 174.687L252.724 174.721L252.735 174.593L252.894 174.687L252.524 174.83L252.991 174.757L252.691 174.722L252.946 174.807L252.905 174.676L252.65 174.837L252.774 174.781L252.671 174.945L252.846 174.887L252.742 174.818L252.697 174.968L252.826 174.961L252.681 174.795L252.803 174.728L252.941 174.803L252.641 174.846L252.804 174.962L252.616 174.9L252.808 174.957L252.627 174.943L252.876 175.321L252.693 175.246L252.858 175.233L252.631 175.304L252.857 175.409L252.655 175.393L252.965 175.272L252.726 175.248L252.912 175.206L252.611 174.926L252.876 174.973L252.555 174.952L252.891 174.821L252.586 174.602L252.78 174.433L252.572 174.661L252.772 174.634L252.649 174.595L252.809 174.473L252.402 174.562L252.744 174.594L252.599 174.596L252.67 174.991L252.476 175.279" stroke="black" stroke-width="1.20905" stroke-linecap="round" stroke-linejoin="round"/>
<path d="M246.318 174.595L246.334 174.213L245.832 173.824L246.362 174.245L246.139 174.342L246.291 174.491L246.242 174.837L246.702 175.123L247.141 175.963L247.736 177.767L247.641 178.072L248.433 179.016L248.473 179.17L248.295 179.207L248.739 179.386L248.592 179.503L249.046 180.395L249.421 180.665L249.248 180.752L249.617 180.777L249.14 180.763L249.496 180.769L249.168 180.772L249.417 180.788L249.074 181.257L249.476 181.305L249.166 181.269L249.203 181.617" stroke="black" stroke-width="1.20905" stroke-linecap="round" stroke-linejoin="round"/>
<path d="M259.198 173.889L258.355 173.82L257.502 174.345L256.458 175.452L256.376 175.892L255.796 176.739L255.513 178.001L255.021 178.737L255.041 179.66L254.855 180.233L255.074 180.909L254.936 181.307L255.499 181.579L255.662 181.801L255.584 182.011L255.938 182.441L256.967 182.758L258.218 182.841L258.943 182.688L260.038 182.128L260.148 181.698L260.78 181.235L261.262 180.539L261.183 179.9L261.581 178.941L261.68 178.178L261.049 177.37L261.01 176.864L260.333 176.113L259.882 174.79L258.86 174.329L258.707 174.404" stroke="black" stroke-width="1.20905" stroke-linecap="round" stroke-linejoin="round"/>
<path d="M265.066 172.796V182.377" stroke="black" stroke-width="1.20905" stroke-linecap="round" stroke-linejoin="round"/>
<path d="M266.764 181.705H270.7" stroke="black" stroke-width="1.20905" stroke-linecap="round" stroke-linejoin="round"/>
<path d="M271.824 173.028V183.531" stroke="black" stroke-width="1.20905" stroke-linecap="round" stroke-linejoin="round"/>
<path d="M214.776 176.008L210.5 186.392" stroke="black" stroke-width="1.20905" stroke-linecap="round" stroke-linejoin="round"/>
<path d="M214.984 173.041L219.871 185.258" stroke="black" stroke-width="1.20905" stroke-linecap="round" stroke-linejoin="round"/>
<path d="M214.775 183.338H220.273" stroke="black" stroke-width="1.20905" stroke-linecap="round" stroke-linejoin="round"/>
<path d="M223.671 177.184L221.975 177.288L222.65 177.192L222.48 177.198L222.609 177.32L222.378 177.475L222.585 177.727L222.363 177.905L222.777 178.532L222.914 179.247L222.784 179.688L223.014 181.938L222.607 183.189L222.565 184.95L222.901 185.279L223.282 184.414" stroke="black" stroke-width="1.20905" stroke-linecap="round" stroke-linejoin="round"/>
<path d="M77.9631 32.9873L73.127 44.7323" stroke="black" stroke-width="1.38177" stroke-linecap="round" stroke-linejoin="round"/>
<path d="M78.1953 29.6309L83.7224 43.4485" stroke="black" stroke-width="1.38177" stroke-linecap="round" stroke-linejoin="round"/>
<path d="M77.9609 41.2769H84.1789" stroke="black" stroke-width="1.38177" stroke-linecap="round" stroke-linejoin="round"/>
<path d="M1.76172 1V207.574" stroke="black" stroke-width="1.38177" stroke-linecap="round" stroke-linejoin="round"/>
<path d="M5.68753 218.893L5.50654 219.158L5.36005 219.073L5.82778 218.926L7.27314 219.523L11.4205 220.22L12.1998 220.539L11.9428 220.638L12.0361 220.343L12.6233 220.536L12.0464 220.658L12.2164 220.707L12.0375 221.016L10.8215 221.954L10.4975 222.71L7.20541 225.094L9.28565 225.045L11.3832 225.559L12.7028 226.811L13.0641 228.387L12.5321 228.84L12.8195 229.419L12.5445 229.442L11.6996 230.309L10.7842 230.686L10.4636 231.326L8.48353 231.967L6.67135 231.614L6.46271 231.363L5.70069 231.438L5.49478 231.338L5.58186 231.142L4.76936 231.092L3.91406 230.508L4.32997 230.096L4.09366 229.569L4.23462 229.408L5.33311 229.254" stroke="black" stroke-width="2.93625" stroke-linecap="round" stroke-linejoin="round"/>
<path d="M210.625 118.831L212.091 111.278L212.466 107.446L212.49 99.7516L212.14 95.9179L210.722 88.3548L208.368 81.0287L206.85 77.4913L203.165 70.7366L198.661 64.4966L196.124 61.601L190.532 56.3158L187.498 53.9468L181.014 49.8028L177.589 48.0446L174.062 46.5046L166.751 44.1037L159.197 42.6377L155.366 42.2632L151.519 42.1299L143.838 42.5886L136.274 44.007L128.949 46.3615L121.975 49.6156L118.656 51.5646L112.416 56.0678L109.521 58.6047L104.236 64.1967L101.867 67.2311L99.6924 70.4077L95.9644 77.139L93.109 84.2848L92.0229 87.9783L90.5575 95.5317L90.1831 99.3633L90.1582 107.058L90.5085 110.891L91.9262 118.455L94.2814 125.781L97.5355 132.754L99.4844 136.073L103.988 142.313L106.524 145.208L112.117 150.494L115.151 152.863L118.328 155.036L125.059 158.765L128.587 160.305L135.897 162.706L139.652 163.557L147.283 164.546L154.978 164.57L158.811 164.221L166.374 162.802L170.074 161.74L173.7 160.448L180.673 157.194L187.183 153.091L193.128 148.205L195.858 145.492L200.782 139.578L202.956 136.402L206.685 129.67L208.225 126.142L210.625 118.831Z" stroke="black" stroke-width="4.1453" stroke-linecap="round" stroke-linejoin="round"/>
</svg>
