<svg width="577" height="39" viewBox="0 0 577 39" fill="none" xmlns="http://www.w3.org/2000/svg">
<path d="M167.648 12.7699L167.683 12.582L167.254 12.9551L165.206 12.828L164.554 13.0698L164.465 13.3081L162.597 13.4532L161.955 13.8318L161.434 14.5296L161.346 15.3428L160.024 16.5684L159.645 17.2455L159.607 18.2666L158.943 20.3144L159.401 20.742L159.454 22.1176L160.042 23.0911L159.891 23.2085L160.295 23.3764L160.478 24.0769L161.347 24.5288L161.106 24.7277L161.954 25.2114L162.767 25.228L165.25 26.0107L166.375 25.8214L166.949 25.4677L168.832 25.3115L169.412 24.8853L169.309 25.069" stroke="black" stroke-width="1.38177" stroke-linecap="round" stroke-linejoin="round"/>
<path d="M180.76 13.6777V26.5807" stroke="black" stroke-width="1.38177" stroke-linecap="round" stroke-linejoin="round"/>
<path d="M172.455 13.3945V25.1644" stroke="black" stroke-width="1.38177" stroke-linecap="round" stroke-linejoin="round"/>
<path d="M174.541 24.3379H179.377" stroke="black" stroke-width="1.38177" stroke-linecap="round" stroke-linejoin="round"/>
<path d="M186.756 13.6533V25.4232" stroke="black" stroke-width="1.38177" stroke-linecap="round" stroke-linejoin="round"/>
<path d="M188.838 24.5967H193.674" stroke="black" stroke-width="1.38177" stroke-linecap="round" stroke-linejoin="round"/>
<path d="M191.408 13.6685H203.844" stroke="black" stroke-width="1.38177" stroke-linecap="round" stroke-linejoin="round"/>
<path d="M232.2 13.582L231.018 13.8169L230.981 13.6387L231.444 13.6504L231.11 13.7437L231.005 14.1292L230.821 13.895L231.257 13.9323L230.928 13.6705L230.514 13.9648L230.922 14.0339L230.682 14.4664L230.87 16.7228L230.693 19.2162L231.094 20.9296L230.788 22.6181L230.965 23.4762L230.736 23.8686L230.834 26.5568L231.408 26.8048L231.078 27.2159L231.459 27.5061L231 27.5669L231.316 27.7099L231.133 27.7334L231.272 27.4432L230.945 27.2822L231.083 27.0225L230.867 27.1924L231.321 27.2049L230.865 27.1593L231.189 27.2746L230.954 27.2539L231.158 27.3893L230.784 27.5123L231.085 27.5772L230.865 27.656L231.357 27.5441L230.979 27.6387L231.207 27.5683L231.14 27.4163L231.08 27.6311L230.921 27.5683L231.349 27.5669L230.894 27.5683L231.287 27.4467L231.015 27.4453L231.314 27.39L231.151 27.0798L231.088 27.4411L230.806 27.2422" stroke="black" stroke-width="1.38177" stroke-linecap="round" stroke-linejoin="round"/>
<path d="M231.076 14.0107H239.367" stroke="black" stroke-width="1.38177" stroke-linecap="round" stroke-linejoin="round"/>
<path d="M232.006 26.855H240.296" stroke="black" stroke-width="1.38177" stroke-linecap="round" stroke-linejoin="round"/>
<path d="M231.512 19.7725H236.635" stroke="black" stroke-width="1.38177" stroke-linecap="round" stroke-linejoin="round"/>
<path d="M221.559 16.6807L219.475 16.8085L220.304 16.691L220.095 16.6986L220.254 16.8492L219.97 17.0385L220.224 17.3474L219.951 17.5671L220.46 18.3381L220.628 19.2155L220.468 19.7572L220.752 22.5207L220.25 24.0586L220.2 26.2204L220.612 26.6259L221.081 25.5633" stroke="black" stroke-width="1.38177" stroke-linecap="round" stroke-linejoin="round"/>
<path d="M221.771 15.5932L221.599 15.3666L221.695 14.0788L221.545 13.8597L222.576 12.556L223.149 12.1595L224.192 11.8721L225.424 12.1463L226.558 13.2559L226.885 14.6536L226.041 16.8948L223.846 19.4131L222.903 19.6742L223.28 19.478L224.012 19.7633L225.44 21.123L226.391 22.9552L227.216 23.9432L227.359 25.5909L227.849 26.8027L228.039 26.6155L227.894 26.5768" stroke="black" stroke-width="1.38177" stroke-linecap="round" stroke-linejoin="round"/>
<path d="M277.339 15.3606L276.564 14.1294L276.139 12.5908L276.816 12.7062L276.661 13.6976L276.995 13.5546L277.034 13.8337L278.542 15.0151L279.043 16.0155L280.598 18.0536L282.136 19.6123L282.229 20.089L283.534 22.067L285.133 23.636L286.027 24.1134L285.861 24.1873L286.191 24.0989L285.944 23.9482L286.314 24.0685L285.835 24.065L286.468 23.8992L285.742 23.9593L286.287 23.9337L285.836 23.8778L286.029 23.7845L286.053 23.9793L286.434 23.9116L285.895 23.9351L286.153 23.8833L285.999 23.7368L286.11 23.8764L285.933 23.8937L286.18 23.9441L285.913 23.9317L286.13 23.8467L286.045 24.0049L286.227 24.0173L285.9 23.9959L286.551 24.4063L286.699 24.5908L286.53 24.6709L286.789 24.6737L286.511 24.6771H286.811L286.441 24.7407L286.936 24.8063L286.512 24.8961L286.753 24.8996L286.951 25.692L287.292 25.5608L286.764 25.6008L287.238 25.3804L286.986 24.9127L286.128 24.3275L286.013 23.9068L286.376 23.4833L286.031 24.0235" stroke="black" stroke-width="1.38177" stroke-linecap="round" stroke-linejoin="round"/>
<path d="M277.439 27.3968L285.73 13.5791" stroke="black" stroke-width="1.38177" stroke-linecap="round" stroke-linejoin="round"/>
<path d="M306.258 12.4565V27.656" stroke="black" stroke-width="1.38177" stroke-linecap="round" stroke-linejoin="round"/>
<path d="M346.48 14.6987V26.4686" stroke="black" stroke-width="1.38177" stroke-linecap="round" stroke-linejoin="round"/>
<path d="M312.869 12.0742V27.2736" stroke="black" stroke-width="1.38177" stroke-linecap="round" stroke-linejoin="round"/>
<path d="M313.68 11.5361L312.736 12.18L313.412 11.9472L314.02 12.1766L314.791 11.7918L315.286 11.9486L316.35 11.8422L318.107 12.7314L318.801 12.6381L319.255 13.0775L320.023 13.3179L319.724 13.4948L320.177 13.6931L320.439 14.4496L320.074 14.5581L320.206 14.7881L319.97 16.1153L319.646 16.5443L319.787 16.8076L317.155 17.6712L315.275 17.8418L315.232 17.9745L315.491 17.9275L315.137 18.0208L315.529 17.8764L315.203 17.8936L315.473 17.9434L315.096 18.1113L315.261 18.1873L315.048 18.3586L315.23 18.3565L314.982 18.302L315.387 18.2494L314.871 18.2094L314.98 18.304L314.644 18.4774L316.975 18.6405L317.19 18.8512L318.266 18.9493L318.841 19.7438L319.587 20.0775L319.907 20.7629L320.262 20.9556L320.1 21.0834L320.331 21.3301L320.132 21.6127L320.319 21.8033L320.467 23.1305L320.262 23.1734L320.485 23.1706L320.371 23.5098L320.538 23.8048L320.348 23.9596L320.71 24.1517L320.301 24.2187L320.253 24.9406L319.754 25.6018L317.914 25.7255L317.757 25.9846L316.71 26.2554L315.308 26.4488L313.349 26.3549L312.849 26.1642L313.146 26.1545L312.781 26.2436L312.878 26.0599L312.584 26.0309L312.731 25.7987L312.498 25.8077" stroke="black" stroke-width="1.38177" stroke-linecap="round" stroke-linejoin="round"/>
<path d="M291.416 10.9697V26.1692" stroke="black" stroke-width="1.38177" stroke-linecap="round" stroke-linejoin="round"/>
<path d="M292.062 18.4102H298.812" stroke="black" stroke-width="1.20905" stroke-linecap="round" stroke-linejoin="round"/>
<path d="M298.572 11.6611V26.8606" stroke="black" stroke-width="1.38177" stroke-linecap="round" stroke-linejoin="round"/>
<path d="M327.133 13.9614V29.1609" stroke="black" stroke-width="1.38177" stroke-linecap="round" stroke-linejoin="round"/>
<path d="M357.953 14.2054L356.919 14.1211L355.869 14.7657L354.587 16.1253L354.487 16.6656L353.775 17.7068L353.426 19.2564L352.822 20.1615L352.846 21.2938L352.619 21.9985L352.888 22.8283L352.717 23.3181L353.41 23.6518L353.61 23.924L353.513 24.1831L353.949 24.711L355.213 25.0999L356.75 25.2015L357.641 25.0149L358.986 24.3268L359.121 23.799L359.897 23.229L360.489 22.3744L360.392 21.5895L360.88 20.4123L361.003 19.4747L360.227 18.4813L360.179 17.8602L359.348 16.9385L358.793 15.3115L357.538 14.747L357.35 14.8382" stroke="black" stroke-width="1.38177" stroke-linecap="round" stroke-linejoin="round"/>
<path d="M373.816 12.7451V25.6474" stroke="black" stroke-width="1.38177" stroke-linecap="round" stroke-linejoin="round"/>
<path d="M363.742 10.4185L373.415 25.6179" stroke="black" stroke-width="1.38177" stroke-linecap="round" stroke-linejoin="round"/>
<path d="M365.021 13.6328V25.4027" stroke="black" stroke-width="1.38177" stroke-linecap="round" stroke-linejoin="round"/>
<path d="M267.069 13.8076L265.995 14.0211L265.961 13.8587L266.383 13.8698L266.079 13.9548L265.983 14.3044L265.816 14.0916L266.213 14.1254L265.914 13.8885L265.537 14.1551L265.908 14.218L265.689 14.6111L265.861 16.6603L265.699 18.925L266.064 20.4822L265.787 22.016L265.947 22.7953L265.739 23.1518L265.828 25.5934L266.35 25.8186L266.05 26.1924L266.397 26.4563L265.979 26.5109L266.265 26.6408L266.099 26.6622L266.225 26.399L265.929 26.2525L266.055 26.0162L265.858 26.171L266.271 26.182L265.856 26.1406L266.151 26.2456L265.938 26.2262L266.122 26.3499L265.782 26.4611L266.056 26.5206L265.856 26.5917L266.303 26.4902L265.96 26.5765L266.167 26.5123L266.106 26.3748L266.051 26.5696L265.907 26.5123L266.296 26.5109L265.883 26.5123L266.24 26.4017L265.992 26.401L266.265 26.3506L266.115 26.0687L266.059 26.3969L265.802 26.2159" stroke="black" stroke-width="1.20905" stroke-linecap="round" stroke-linejoin="round"/>
<path d="M266.049 14.1963H273.579" stroke="black" stroke-width="1.20905" stroke-linecap="round" stroke-linejoin="round"/>
<path d="M266.891 25.8643H274.422" stroke="black" stroke-width="1.20905" stroke-linecap="round" stroke-linejoin="round"/>
<path d="M266.441 19.4307H271.095" stroke="black" stroke-width="1.20905" stroke-linecap="round" stroke-linejoin="round"/>
<path d="M330.855 11.7563H343.291" stroke="black" stroke-width="1.38177" stroke-linecap="round" stroke-linejoin="round"/>
<path d="M337.764 11.189V23.6249" stroke="black" stroke-width="1.38177" stroke-linecap="round" stroke-linejoin="round"/>
<path d="M260.393 3.35742L243.121 37.9016" stroke="black" stroke-width="1.38177" stroke-linecap="round" stroke-linejoin="round"/>
<path d="M159.672 1L142.4 35.5442" stroke="black" stroke-width="1.38177" stroke-linecap="round" stroke-linejoin="round"/>
<path d="M393.255 3.59131L375.982 38.1355" stroke="black" stroke-width="1.38177" stroke-linecap="round" stroke-linejoin="round"/>
<path d="M406.209 11.7692L406.066 11.6904L406.199 11.9689L406.044 11.8908L406.231 11.7872L406.126 11.9889L406.428 12.02L405.904 12.219L406.199 12.2825L406.205 15.8744L406.048 16.1888L406.103 16.4727L406.663 16.8797L406.697 17.2375L406.108 17.8317L406.328 18.6697L406.165 19.0615L406.653 19.4269L406.138 19.61L406.312 20.1351L406.163 20.9897L406.473 21.0892L406.29 21.2191L406.512 21.5714L406.204 22.2651L406.348 22.3977L406.071 22.5995L406.266 22.6713L406.109 23.3436L406.262 23.3691L405.935 23.3574L406.447 23.6945L406.178 23.8044L406.19 24.098L405.789 24.2217L406.156 24.4013L405.905 24.4227L406.12 24.4303L405.347 26.2308L405 26.1796L405.311 26.2688L404.957 26.2798L404.741 26.76L404.261 26.8975L403.896 26.7089L403.16 26.7786L402.718 26.2881L402.205 26.4152L402.329 26.2736L402.001 25.5502L400.827 23.8935L401.084 23.7671L400.394 23.3304L400.155 22.6154L400.435 22.2907L400.098 22.1663L400.519 21.3538L400.251 21.3352L400.861 20.8833L400.534 20.8267L400.939 20.3168L400.765 20.4985L400.58 19.9769L400.837 19.5299L401.019 19.6301L400.418 19.6708L400.676 19.6004L400.79 19.2756L400.651 19.3737L401.008 19.3606L400.545 19.228L400.898 18.9841L400.797 18.5599L401.022 18.6006L400.707 18.5613L400.993 18.5357" stroke="black" stroke-width="1.38177" stroke-linecap="round" stroke-linejoin="round"/>
<path d="M416.121 15.2666L415.087 15.1816L414.037 15.8262L412.755 17.1859L412.655 17.7262L411.943 18.7673L411.594 20.317L410.99 21.222L411.014 22.3544L410.787 23.0591L411.056 23.8888L410.885 24.3787L411.578 24.7124L411.778 24.9846L411.681 25.2437L412.117 25.7715L413.381 26.1612L414.917 26.2627L415.809 26.0755L417.154 25.3874L417.289 24.8595L418.065 24.2896L418.657 23.4349L418.559 22.6501L419.048 21.4728L419.171 20.5353L418.395 19.5425L418.347 18.9207L417.516 17.9991L416.961 16.372L415.706 15.8076L415.518 15.8988" stroke="black" stroke-width="1.38177" stroke-linecap="round" stroke-linejoin="round"/>
<path d="M425.293 15.7139V27.4838" stroke="black" stroke-width="1.38177" stroke-linecap="round" stroke-linejoin="round"/>
<path d="M439.115 13.9785V26.8808" stroke="black" stroke-width="1.38177" stroke-linecap="round" stroke-linejoin="round"/>
<path d="M429.041 11.6528L438.714 26.8523" stroke="black" stroke-width="1.38177" stroke-linecap="round" stroke-linejoin="round"/>
<path d="M430.316 14.8662V26.6361" stroke="black" stroke-width="1.38177" stroke-linecap="round" stroke-linejoin="round"/>
<path d="M198.318 13.1016V25.5375" stroke="black" stroke-width="1.38177" stroke-linecap="round" stroke-linejoin="round"/>
<path d="M213.904 14.2676V27.1698" stroke="black" stroke-width="1.38177" stroke-linecap="round" stroke-linejoin="round"/>
<path d="M205.604 13.9834V25.7533" stroke="black" stroke-width="1.38177" stroke-linecap="round" stroke-linejoin="round"/>
<path d="M207.688 24.9268H212.524" stroke="black" stroke-width="1.38177" stroke-linecap="round" stroke-linejoin="round"/>
<path d="M483.716 9.99023L481.971 10.1768L482.736 10.5326L482.031 13.0377L482.076 14.8098L481.785 15.1235L481.468 16.5191L482.142 18.5088L481.607 19.141L482.094 21.5066L481.665 22.1456L482.135 23.1149L481.934 23.3561L482.115 23.3948L481.781 23.4279L481.923 23.5467L481.663 23.812L482.392 24.3053L481.842 24.6515L481.998 25.2477L481.463 25.3216L481.919 25.2014L481.797 25.1047L482.327 24.7641L482.154 24.7461L482.423 24.7482L481.887 25.0308L481.81 24.7682L482.504 24.8594L481.825 24.8802L481.72 25.0232L482.01 25.1026L481.714 25.0453L481.963 24.9534L481.703 25.1171L481.868 25.1752L481.661 25.122L482.028 25.1689L481.664 25.1005L481.834 24.9624L481.408 25.1399" stroke="black" stroke-width="1.38177" stroke-linecap="round" stroke-linejoin="round"/>
<path d="M483.276 11.3428L482.828 11.4167L483.153 11.5652L482.795 11.6191L483.549 12.1518L483.556 12.7715L484.116 13.2206L483.946 13.4458L484.116 13.7498L485.051 14.2023L486.066 16.1037L487.454 17.7963L487.46 18.0975L488.133 18.1687L488.627 18.5521L489.149 18.1252L488.618 18.081L488.824 17.9656" stroke="black" stroke-width="1.38177" stroke-linecap="round" stroke-linejoin="round"/>
<path d="M492.803 11.5454L491.679 12.2017L491.775 12.5009L490.39 14.8658L489.413 17.2445L488.7 18.0632L488.83 18.334L488.47 18.7555L488.184 18.6435L488.472 18.8446" stroke="black" stroke-width="1.38177" stroke-linecap="round" stroke-linejoin="round"/>
<path d="M493.391 11.1802V22.2343" stroke="black" stroke-width="1.38177" stroke-linecap="round" stroke-linejoin="round"/>
<path d="M500.084 11.6689L498.338 11.8555L499.103 12.2113L498.398 14.7164L498.443 16.4878L498.151 16.8022L497.836 18.1978L498.508 20.1875L497.974 20.8197L498.461 23.1853L498.032 23.8243L498.502 24.7936L498.301 25.0348L498.482 25.0735L498.148 25.1066L498.29 25.2255L498.03 25.4908L498.759 25.984L498.209 26.3302L498.364 26.9264L497.831 27.0003L498.287 26.8801L498.164 26.7834L498.694 26.4428L498.521 26.4248L498.79 26.4269L498.254 26.7095L498.177 26.4469L498.871 26.5381L498.193 26.5589L498.088 26.7019L498.377 26.7813L498.081 26.724L498.33 26.6321L498.07 26.7958L498.236 26.8539L498.028 26.8007L498.394 26.8476L498.031 26.7792L498.201 26.6411L497.775 26.8186" stroke="black" stroke-width="1.38177" stroke-linecap="round" stroke-linejoin="round"/>
<path d="M499.641 13.0215L499.193 13.0954L499.519 13.244L499.16 13.2978L499.914 13.8305L499.92 14.4502L500.481 14.8993L500.31 15.1245L500.48 15.4285L501.416 15.8811L502.431 17.7824L503.819 19.4743L503.825 19.7763L504.498 19.8474L504.993 20.2309L505.514 19.8039L504.983 19.7597L505.189 19.6443" stroke="black" stroke-width="1.38177" stroke-linecap="round" stroke-linejoin="round"/>
<path d="M509.169 13.2246L508.045 13.8809L508.14 14.1801L506.756 16.545L505.779 18.9237L505.066 19.7417L505.196 20.0132L504.836 20.4347L504.549 20.3227L504.838 20.5238" stroke="black" stroke-width="1.38177" stroke-linecap="round" stroke-linejoin="round"/>
<path d="M509.756 12.8589V23.913" stroke="black" stroke-width="1.38177" stroke-linecap="round" stroke-linejoin="round"/>
<path d="M538.418 11.4824V24.3854" stroke="black" stroke-width="1.38177" stroke-linecap="round" stroke-linejoin="round"/>
<path d="M528.344 9.15625L538.016 24.3557" stroke="black" stroke-width="1.38177" stroke-linecap="round" stroke-linejoin="round"/>
<path d="M529.621 12.3711V24.141" stroke="black" stroke-width="1.38177" stroke-linecap="round" stroke-linejoin="round"/>
<path d="M545.529 11.4917V25.2803" stroke="black" stroke-width="1.55449" stroke-linecap="round" stroke-linejoin="round"/>
<path d="M548.365 12.3516H560.801" stroke="black" stroke-width="1.38177" stroke-linecap="round" stroke-linejoin="round"/>
<path d="M555.088 12.2158V24.6517" stroke="black" stroke-width="1.38177" stroke-linecap="round" stroke-linejoin="round"/>
<path d="M475.298 12.5657L474.264 12.4814L473.215 13.126L471.932 14.4857L471.833 15.026L471.121 16.0671L470.772 17.6168L470.167 18.5218L470.191 19.6542L469.965 20.3589L470.234 21.1893L470.063 21.6785L470.755 22.0122L470.956 22.2844L470.859 22.5435L471.294 23.0713L472.558 23.4603L474.095 23.5625L474.986 23.3753L476.331 22.6872L476.466 22.1593L477.243 21.5894L477.835 20.7347L477.737 19.9499L478.226 18.7726L478.348 17.8351L477.573 16.8423L477.524 16.2205L476.693 15.2989L476.139 13.6718L474.883 13.1074L474.696 13.1986" stroke="black" stroke-width="1.38177" stroke-linecap="round" stroke-linejoin="round"/>
<path d="M465.37 11.3271L465.406 11.1392L464.977 11.5122L462.928 11.3851L462.277 11.6269L462.188 11.8653L460.32 12.0104L459.677 12.389L459.157 13.0868L459.068 13.8999L457.747 15.1256L457.367 15.8026L457.329 16.8238L456.666 18.8715L457.123 19.2992L457.177 20.6747L457.765 21.6482L457.613 21.7656L458.017 21.9335L458.2 22.6341L459.07 23.0859L458.828 23.2849L459.677 23.7685L460.489 23.7851L462.972 24.5679L464.098 24.3786L464.671 24.0248L466.555 23.8687L467.135 23.4424L467.032 23.6262" stroke="black" stroke-width="1.38177" stroke-linecap="round" stroke-linejoin="round"/>
<path d="M566.073 13.3482L566.092 12.8798L565.475 12.4023L566.126 12.9184L565.853 13.038L566.039 13.2204L565.979 13.6459L566.543 13.9976L567.083 15.0284L567.815 17.2454L567.697 17.6199L568.67 18.7785L568.72 18.9685L568.501 19.0141L569.046 19.2331L568.866 19.3768L569.424 20.4739L569.885 20.8056L569.672 20.912L570.125 20.9424L569.538 20.9258L569.976 20.9327L569.573 20.9368L569.879 20.9569L569.458 21.5317L569.952 21.5918L569.571 21.5462L569.616 21.9745" stroke="black" stroke-width="1.38177" stroke-linecap="round" stroke-linejoin="round"/>
<path d="M568.86 25.9257L567.699 25.9271L567.833 26.3085L567.257 27.0809L566.957 27.0988L567.291 26.8625L567.099 26.7064L567.496 26.6055L568.423 24.4928L570.557 21.58L570.79 20.646L571.754 19.7278L572.852 17.5646L573.646 16.8496L573.754 16.4551L575.06 15.5763L574.796 15.5079L574.837 15.1486L575.324 15.103L575.069 14.9759L575.602 14.7977L575.088 14.7023L575.9 14.2394L575.747 14.1689L575.691 14.5061L575.541 14.361L575.906 14.5102L575.606 14.5517L575.621 14.3949L575.816 14.5102L575.361 14.6857L575.934 14.5959L575.565 14.5524L575.879 14.6567L575.829 14.4964L575.515 14.6947L575.668 14.6249L575.541 14.8267L575.755 14.7562L575.628 14.6705L575.573 14.855L575.731 14.8467L575.553 14.6429L575.704 14.5607L575.874 14.6519L575.504 14.7058L575.704 14.8467L575.474 14.7714L575.709 14.8412L575.487 14.8246L575.793 15.2882L575.568 15.1956L575.771 15.1811L575.492 15.2681L575.769 15.3973L575.521 15.378L575.903 15.2288L575.608 15.1984L575.838 15.1472L575.467 14.8039L575.793 14.8612L575.399 14.8349L575.811 14.6747L575.436 14.4059L575.675 14.1987L575.42 14.4778L575.666 14.4446L575.514 14.3969L575.711 14.2463L575.21 14.3569L575.63 14.3956L575.453 14.3976L575.539 14.8826L575.302 15.2377" stroke="black" stroke-width="1.38177" stroke-linecap="round" stroke-linejoin="round"/>
<path d="M523.807 12.6304V25.5333" stroke="black" stroke-width="1.38177" stroke-linecap="round" stroke-linejoin="round"/>
<path d="M515.502 12.3462V24.1161" stroke="black" stroke-width="1.38177" stroke-linecap="round" stroke-linejoin="round"/>
<path d="M516.355 24.9556H521.192" stroke="black" stroke-width="1.38177" stroke-linecap="round" stroke-linejoin="round"/>
<path d="M58.0137 10.3799V25.5793" stroke="black" stroke-width="1.38177" stroke-linecap="round" stroke-linejoin="round"/>
<path d="M58.8867 11.111L59.1313 11.4212L60.2657 11.3577L61.0934 10.7158L62.3487 11.0274L63.7878 10.9079L63.9626 11.2278L64.8159 11.3715L64.9644 11.7169L65.3423 11.8489L65.2636 12.1073L66.5092 12.5391L66.6971 13.0158L66.9701 13.1118L66.7828 13.2831L67.3832 13.5761L67.2146 13.8863L67.5007 13.9222L67.5089 14.2303L67.2644 14.3768L67.3528 15.1368L67.0751 15.6764L66.5224 16.0508L66.7593 16.3382L66.1541 16.54L66.2211 16.6698L64.8594 17.2184L63.8666 17.2764L63.3864 17.4961L63.5626 17.5569L61.9833 18.0558L61.8112 17.9231L61.9591 17.8879L60.7293 18.0157L60.8025 18.1407L60.1607 18.167L60.2795 18.3418L59.7807 18.2319L60.14 18.0951L60.3763 18.263" stroke="black" stroke-width="1.38177" stroke-linecap="round" stroke-linejoin="round"/>
<path d="M72.891 15.002L70.8066 15.1298L71.6357 15.0123L71.4277 15.0199L71.5866 15.1705L71.3027 15.3598L71.5569 15.6693L71.2834 15.8884L71.7925 16.6594L71.9611 17.5368L71.8008 18.0785L72.0848 20.842L71.5832 22.3799L71.5321 24.5424L71.9452 24.9472L72.4136 23.8846" stroke="black" stroke-width="1.38177" stroke-linecap="round" stroke-linejoin="round"/>
<path d="M73.1022 13.9135L72.9301 13.6869L73.0262 12.3991L72.877 12.1801L73.9077 10.8764L74.4812 10.4798L75.5237 10.1924L76.7563 10.4667L77.89 11.5762L78.2168 12.9739L77.3725 15.2151L75.1783 17.7334L74.2338 17.9945L74.6124 17.7983L75.3434 18.0836L76.7722 19.4433L77.7221 21.2755L78.5477 22.2642L78.6914 23.9119L79.1806 25.1231L79.3713 24.9358L79.2262 24.8971" stroke="black" stroke-width="1.38177" stroke-linecap="round" stroke-linejoin="round"/>
<path d="M88.8826 12.6102L88.6677 12.709L87.7226 11.969L87.1719 12.083L84.796 13.84L84.3228 14.7996L83.8198 15.0241L82.6646 16.4674L82.8339 17.5493L82.5078 18.6789L82.9659 19.8638L82.8588 20.5781L83.035 21.0521L84.4492 23.0798L85.5021 23.9047L85.9166 24.1058L86.944 23.7755L89.3406 21.5405L90.7604 16.8584L90.5068 14.5813L89.968 13.69L89.2453 13.2299L88.4245 12.0575L86.1384 11.2104L84.2654 11.7846L83.6291 12.5466L83.3659 13.5802L82.5631 15.0594" stroke="black" stroke-width="1.38177" stroke-linecap="round" stroke-linejoin="round"/>
<path d="M96.5302 12.5449L95.3481 12.7798L95.3101 12.6016L95.7744 12.6133L95.4393 12.7066L95.3343 13.0921L95.1512 12.8579L95.5872 12.8952L95.2583 12.6333L94.8438 12.927L95.2521 12.9968L95.0109 13.4293L95.2002 15.6857L95.0227 18.1791L95.4241 19.8925L95.118 21.581L95.2949 22.4391L95.0655 22.8315L95.1636 25.5197L95.7385 25.7677L95.4082 26.1788L95.7896 26.469L95.3294 26.5298L95.6452 26.6728L95.4628 26.6963L95.601 26.4061L95.2749 26.2451L95.413 25.9854L95.1968 26.1553L95.6514 26.1677L95.1947 26.1222L95.5187 26.2375L95.2845 26.2168L95.4877 26.3522L95.1139 26.4752L95.4151 26.5401L95.1947 26.6189L95.6866 26.507L95.3087 26.6016L95.536 26.5312L95.4704 26.3792L95.4089 26.594L95.2507 26.5312L95.6783 26.5298L95.2244 26.5312L95.6169 26.4096L95.3446 26.4082L95.6438 26.3529L95.48 26.0427L95.4186 26.404L95.1353 26.2051" stroke="black" stroke-width="1.38177" stroke-linecap="round" stroke-linejoin="round"/>
<path d="M95.4043 12.9727H103.695" stroke="black" stroke-width="1.38177" stroke-linecap="round" stroke-linejoin="round"/>
<path d="M95.8379 18.7349H100.961" stroke="black" stroke-width="1.38177" stroke-linecap="round" stroke-linejoin="round"/>
<path d="M108.461 11.2305V26.4299" stroke="black" stroke-width="1.38177" stroke-linecap="round" stroke-linejoin="round"/>
<path d="M115.702 12.5996L114.52 12.8345L114.483 12.6556L114.946 12.668L114.612 12.7613L114.507 13.1461L114.323 12.9119L114.759 12.9492L114.43 12.688L114.016 12.9817L114.424 13.0514L114.184 13.4839L114.372 15.7404L114.195 18.2331L114.596 19.9471L114.29 21.6357L114.467 22.4931L114.238 22.8862L114.336 25.5744L114.91 25.8224L114.58 26.2335L114.961 26.5237L114.502 26.5838L114.818 26.7268L114.635 26.7503L114.774 26.4601L114.447 26.2998L114.585 26.04L114.369 26.2093L114.823 26.2224L114.367 26.1761L114.691 26.2922L114.456 26.2708L114.66 26.4069L114.286 26.5292L114.587 26.5948L114.367 26.6736L114.859 26.5617L114.481 26.6563L114.709 26.5852L114.642 26.4338L114.581 26.6487L114.423 26.5858L114.851 26.5845L114.396 26.5852L114.789 26.4642L114.517 26.4629L114.816 26.4076L114.653 26.0974L114.59 26.458L114.308 26.2597" stroke="black" stroke-width="1.38177" stroke-linecap="round" stroke-linejoin="round"/>
<path d="M115.502 25.8726H123.793" stroke="black" stroke-width="1.38177" stroke-linecap="round" stroke-linejoin="round"/>
<path d="M127.952 12.7354L126.77 12.9702L126.732 12.792L127.196 12.8037L126.861 12.8977L126.756 13.2825L126.573 13.0483L127.009 13.0856L126.68 12.8245L126.266 13.1181L126.673 13.1872L126.433 13.6197L126.622 15.8761L126.445 18.3695L126.845 20.0829L126.539 21.7714L126.716 22.6295L126.487 23.0219L126.585 25.7101L127.16 25.9582L126.83 26.3692L127.211 26.6601L126.751 26.7202L127.067 26.8632L126.885 26.8867L127.023 26.5965L126.697 26.4356L126.835 26.1758L126.619 26.3457L127.073 26.3582L126.617 26.3126L126.941 26.4287L126.706 26.4072L126.91 26.5433L126.536 26.6656L126.836 26.7313L126.617 26.8093L127.109 26.6974L126.731 26.7921L126.958 26.7216L126.892 26.5703L126.831 26.7845L126.672 26.7223L127.1 26.7202L126.646 26.7216L127.039 26.6L126.767 26.5986L127.066 26.5433L126.902 26.2331L126.84 26.5945L126.557 26.3955" stroke="black" stroke-width="1.38177" stroke-linecap="round" stroke-linejoin="round"/>
<path d="M126.828 13.1641H135.119" stroke="black" stroke-width="1.38177" stroke-linecap="round" stroke-linejoin="round"/>
<path d="M127.752 26.0078H136.043" stroke="black" stroke-width="1.38177" stroke-linecap="round" stroke-linejoin="round"/>
<path d="M127.258 18.9263H132.381" stroke="black" stroke-width="1.38177" stroke-linecap="round" stroke-linejoin="round"/>
<path d="M9.30273 13.999V26.9013" stroke="black" stroke-width="1.38177" stroke-linecap="round" stroke-linejoin="round"/>
<path d="M1 13.7148V25.4847" stroke="black" stroke-width="1.38177" stroke-linecap="round" stroke-linejoin="round"/>
<path d="M1.84766 26.3232H6.68384" stroke="black" stroke-width="1.38177" stroke-linecap="round" stroke-linejoin="round"/>
<path d="M19.9065 13.6454L19.2965 13.6468L18.6408 13.1722L17.9175 13.1646L16.7361 13.7131L15.3128 15.3491L15.0172 16.1436L15.3467 16.2949L14.9791 17.2249L16.0169 19.424L18.3707 19.9877L19.1051 20.7871L19.3538 21.5346L19.1072 21.5781L19.3987 21.7453L19.4851 22.5806L19.3614 24.0847L18.9821 24.5137L19.1403 24.9704L18.4349 25.6923L18.3431 26.1214L18.0301 26.3673L18.1551 26.4585L16.3229 26.9836L14.1522 26.8737L13.1932 26.3342L12.9473 26.5048" stroke="black" stroke-width="1.38177" stroke-linecap="round" stroke-linejoin="round"/>
<path d="M25.5563 12.752L24.3735 12.9869L24.3362 12.8079L24.8004 12.8203L24.4654 12.9136L24.3604 13.2984L24.1766 13.0642L24.6125 13.1015L24.2837 12.8404L23.8691 13.134L24.2775 13.2038L24.037 13.6363L24.2256 15.8927L24.0481 18.3861L24.4495 20.0995L24.1434 21.788L24.3203 22.6461L24.0916 23.0385L24.189 25.7267L24.7638 25.9748L24.4336 26.3858L24.8156 26.676L24.3555 26.7361L24.6713 26.8791L24.4889 26.9026L24.6271 26.6125L24.3002 26.4522L24.4391 26.1924L24.2229 26.3617L24.6768 26.3748L24.2201 26.3285L24.5441 26.4446L24.3106 26.4232L24.5137 26.5593L24.1393 26.6815L24.4405 26.7472L24.2201 26.8259L24.712 26.714L24.3348 26.8087L24.5621 26.7375L24.4958 26.5862L24.435 26.8011L24.2761 26.7382L24.7044 26.7368L24.2498 26.7375L24.6422 26.6166L24.3707 26.6152L24.6699 26.56L24.5061 26.2497L24.444 26.6104L24.1614 26.4121" stroke="black" stroke-width="1.38177" stroke-linecap="round" stroke-linejoin="round"/>
<path d="M24.4336 13.1802H32.7242" stroke="black" stroke-width="1.38177" stroke-linecap="round" stroke-linejoin="round"/>
<path d="M25.3574 26.0244H33.648" stroke="black" stroke-width="1.38177" stroke-linecap="round" stroke-linejoin="round"/>
<path d="M24.8652 18.9424H29.9881" stroke="black" stroke-width="1.38177" stroke-linecap="round" stroke-linejoin="round"/>
<path d="M37.3207 17.1216L35.2363 17.2501L36.0654 17.1326L35.8574 17.1402L36.0157 17.2901L35.7324 17.4801L35.9866 17.789L35.713 18.008L36.2222 18.779L36.3908 19.6571L36.2305 20.1988L36.5145 22.9623L36.0129 24.4995L35.9618 26.662L36.3749 27.0675L36.8433 26.005" stroke="black" stroke-width="1.38177" stroke-linecap="round" stroke-linejoin="round"/>
<path d="M37.5299 16.0336L37.3579 15.8077L37.4539 14.5192L37.3047 14.3009L38.3355 12.9972L38.9089 12.5999L39.9515 12.3125L41.184 12.5875L42.3177 13.6963L42.6445 15.0947L41.8003 17.3352L39.606 19.8542L38.6616 20.1146L39.0402 19.9184L39.7711 20.2045L41.1999 21.5641L42.1499 23.3963L42.9755 24.3843L43.1192 26.032L43.6083 27.2432L43.799 27.0559L43.6539 27.0173" stroke="black" stroke-width="1.38177" stroke-linecap="round" stroke-linejoin="round"/>
</svg>
