<svg width="163" height="129" viewBox="0 0 163 129" fill="none" xmlns="http://www.w3.org/2000/svg">
<path d="M162 1.54004V115.005" stroke="black" stroke-width="0.758961" stroke-linecap="round" stroke-linejoin="round"/>
<path d="M1.93555 1.63721H161.317" stroke="black" stroke-width="0.758961" stroke-linecap="round" stroke-linejoin="round"/>
<path d="M1 113.955H160.382" stroke="black" stroke-width="0.758961" stroke-linecap="round" stroke-linejoin="round"/>
<path d="M49.4453 17.8324L49.5796 18.0028L50.2028 17.9679L50.6574 17.6157L51.3469 17.7869L52.1374 17.7212L52.2334 17.8965L52.702 17.9755L52.7836 18.1652L52.9912 18.2377L52.9479 18.3796L53.6321 18.6168L53.7353 18.8786L53.8852 18.9318L53.7824 19.0255L54.1122 19.1864L54.0196 19.3568L54.1767 19.3765L54.1812 19.5458L54.0473 19.6266L54.0955 20.0436L53.9429 20.34L53.6393 20.5457L53.7695 20.7039L53.4371 20.8147L53.4739 20.8857L52.7259 21.187L52.1806 21.2193L51.9169 21.34L52.0136 21.373L51.1462 21.6473L51.0517 21.5745L51.1329 21.5551L50.4574 21.6249L50.4976 21.6936L50.1451 21.7084L50.2104 21.8044L49.9364 21.7441L50.1337 21.669L50.2635 21.7612" stroke="black" stroke-width="0.758961" stroke-linecap="round" stroke-linejoin="round"/>
<path d="M33.4215 17.0312L32.5661 17.1227L32.9415 17.2969L32.5961 18.5237L32.6181 19.392L32.4751 19.5457L32.3206 20.2291L32.65 21.2036L32.3882 21.5137L32.6269 22.6718L32.4166 22.9853L32.647 23.4596L32.5483 23.578L32.6371 23.597L32.4736 23.6133L32.543 23.6714L32.4159 23.8012L32.773 24.0429L32.5035 24.2125L32.5794 24.5047L32.318 24.5408L32.5411 24.482L32.4811 24.4345L32.7407 24.2679L32.6561 24.2588L32.7878 24.26L32.5255 24.3981L32.4876 24.2694L32.8276 24.3142L32.4952 24.3245L32.444 24.3943L32.5859 24.4334L32.4409 24.4053L32.5627 24.3601L32.4352 24.4406L32.5164 24.4687L32.4147 24.4429L32.5942 24.466L32.4163 24.4323L32.4994 24.3651L32.291 24.4516" stroke="black" stroke-width="0.758961" stroke-linecap="round" stroke-linejoin="round"/>
<path d="M33.2079 17.6934L32.989 17.7294L33.148 17.8019L32.9727 17.8285L33.3419 18.0895L33.3449 18.3927L33.6197 18.6129L33.5362 18.7233L33.6193 18.872L34.0773 19.094L34.5748 20.0249L35.2545 20.8541L35.2575 21.0017L35.5873 21.0366L35.8294 21.224L36.0848 21.0153L35.8248 20.9933L35.9258 20.9372" stroke="black" stroke-width="0.758961" stroke-linecap="round" stroke-linejoin="round"/>
<path d="M37.8722 17.793L37.3216 18.1148L37.3683 18.2609L36.6898 19.4194L36.212 20.5844L35.8621 20.9855L35.9262 21.1184L35.7494 21.3244L35.6094 21.2701L35.7509 21.368" stroke="black" stroke-width="0.758961" stroke-linecap="round" stroke-linejoin="round"/>
<path d="M38.1192 17.6821L38.0293 18.1083L38.0748 18.9393L38.271 20.0717L38.4904 20.4774L38.4668 21.0375L38.8808 21.7391L39.0137 21.7991L38.907 22.3319L39.0892 22.3983L39.2315 22.9543L39.1856 23.6479L39.2672 23.7568L39.2156 23.6961L39.2231 23.9246L39.0956 24.0593L39.2338 24.035L39.175 23.9587L39.0896 24.0566" stroke="black" stroke-width="0.758961" stroke-linecap="round" stroke-linejoin="round"/>
<path d="M48.9648 17.4312V25.7797" stroke="black" stroke-width="0.758961" stroke-linecap="round" stroke-linejoin="round"/>
<path d="M83.8301 103.546L84.685 103.455L84.3101 103.28L84.6554 102.053L84.6331 101.185L84.7761 101.031L84.931 100.348L84.6012 99.3734L84.8634 99.0638L84.6247 97.9052L84.8349 97.5921L84.6046 97.1174L84.7033 96.999L84.6145 96.9804L84.778 96.9641L84.7086 96.9056L84.8357 96.7758L84.4786 96.5341L84.748 96.3649L84.6721 96.0727L84.9332 96.0366L84.7101 96.0955L84.77 96.1425L84.5109 96.3095L84.5955 96.3182L84.4634 96.3171L84.726 96.1789L84.764 96.3076L84.424 96.2628L84.7564 96.2529L84.8076 96.1827L84.6657 96.144L84.8106 96.1717L84.6888 96.2169L84.816 96.1368L84.7351 96.1084L84.8368 96.1345L84.657 96.111L84.8353 96.1448L84.7522 96.2123L84.9605 96.1254" stroke="black" stroke-width="0.758961" stroke-linecap="round" stroke-linejoin="round"/>
<path d="M84.0487 102.884L84.2677 102.848L84.1087 102.775L84.284 102.748L83.9148 102.487L83.9117 102.184L83.637 101.964L83.7205 101.853L83.637 101.705L83.1793 101.483L82.6818 100.552L82.0022 99.7229L81.9991 99.5753L81.6694 99.54L81.4273 99.3525L81.1719 99.5616L81.4318 99.5833L81.3309 99.6394" stroke="black" stroke-width="0.758961" stroke-linecap="round" stroke-linejoin="round"/>
<path d="M79.3809 102.784L79.9315 102.463L79.8848 102.316L80.5629 101.158L81.0411 99.9926L81.391 99.5919L81.3268 99.4591L81.5037 99.2526L81.6437 99.3073L81.5022 99.209" stroke="black" stroke-width="0.758961" stroke-linecap="round" stroke-linejoin="round"/>
<path d="M79.1343 102.894L79.2242 102.468L79.1787 101.637L78.9825 100.505L78.7631 100.099L78.7866 99.5393L78.3726 98.8372L78.2398 98.7773L78.3464 98.2445L78.1643 98.1781L78.022 97.6221L78.0679 96.9288L77.9863 96.8199L78.0379 96.8802L78.0303 96.6518L78.1579 96.5171L78.0197 96.5418L78.0785 96.618L78.1639 96.5198" stroke="black" stroke-width="0.758961" stroke-linecap="round" stroke-linejoin="round"/>
<path d="M87.498 95.7593V104.108" stroke="black" stroke-width="0.758961" stroke-linecap="round" stroke-linejoin="round"/>
<path d="M91.6973 95.02V103.369" stroke="black" stroke-width="0.758961" stroke-linecap="round" stroke-linejoin="round"/>
<path d="M95.4513 96.4541L94.9227 96.5592L94.906 96.4792L95.1136 96.4848L94.9637 96.5266L94.9166 96.6989L94.8346 96.5941L95.0297 96.6108L94.8825 96.494L94.6973 96.6252L94.8798 96.6564L94.772 96.8495L94.8567 97.8586L94.7773 98.9735L94.9565 99.7396L94.8198 100.494L94.8988 100.878L94.7967 101.054L94.8403 102.256L95.0972 102.366L94.9496 102.55L95.1204 102.68L94.9147 102.707L95.0559 102.771L94.9743 102.782L95.0358 102.652L94.89 102.58L94.9519 102.464L94.8551 102.54L95.0582 102.545L94.854 102.525L94.999 102.577L94.8942 102.567L94.9853 102.628L94.8179 102.683L94.9527 102.712L94.854 102.747L95.0741 102.697L94.9052 102.739L95.0069 102.708L94.9773 102.64L94.95 102.736L94.879 102.708L95.0707 102.707L94.8673 102.708L95.043 102.654L94.9212 102.653L95.0551 102.628L94.9819 102.489L94.9542 102.651L94.8278 102.562" stroke="black" stroke-width="0.664091" stroke-linecap="round" stroke-linejoin="round"/>
<path d="M95.1426 99.2222H97.4335" stroke="black" stroke-width="0.664091" stroke-linecap="round" stroke-linejoin="round"/>
<path d="M88.123 98.7271H91.8302" stroke="black" stroke-width="0.664091" stroke-linecap="round" stroke-linejoin="round"/>
<path d="M95.3672 102.39H99.0743" stroke="black" stroke-width="0.664091" stroke-linecap="round" stroke-linejoin="round"/>
<path d="M95.3184 96.0571H99.0255" stroke="black" stroke-width="0.664091" stroke-linecap="round" stroke-linejoin="round"/>
<path d="M101.481 97.9824L100.549 98.0397L100.92 97.987L100.826 97.9904L100.898 98.0576L100.77 98.1426L100.884 98.2807L100.762 98.3786L100.989 98.7235L101.065 99.1159L100.993 99.358L101.12 100.594L100.896 101.281L100.873 102.248L101.058 102.429L101.267 101.954" stroke="black" stroke-width="0.664091" stroke-linecap="round" stroke-linejoin="round"/>
<path d="M101.576 97.4947L101.499 97.3937L101.542 96.8177L101.475 96.7198L101.936 96.1369L102.192 95.9597L102.658 95.8311L103.21 95.954L103.716 96.45L103.863 97.075L103.485 98.0768L102.504 99.2031L102.082 99.3196L102.251 99.2319L102.578 99.3598L103.216 99.9678L103.641 100.787L104.011 101.229L104.075 101.965L104.293 102.507L104.379 102.423L104.314 102.406" stroke="black" stroke-width="0.664091" stroke-linecap="round" stroke-linejoin="round"/>
<path d="M106.238 96.5962L105.71 96.7013L105.693 96.6212L105.901 96.6266L105.751 96.6687L105.704 96.8406L105.622 96.7358L105.817 96.7525L105.67 96.6357L105.484 96.767L105.667 96.7981L105.559 96.9916L105.644 98.0003L105.564 99.1152L105.744 99.8813L105.607 100.637L105.686 101.02L105.584 101.195L105.627 102.398L105.884 102.509L105.737 102.692L105.907 102.822L105.702 102.849L105.843 102.913L105.761 102.924L105.823 102.794L105.677 102.722L105.739 102.606L105.642 102.682L105.845 102.687L105.641 102.667L105.786 102.719L105.681 102.709L105.772 102.77L105.605 102.825L105.74 102.854L105.641 102.889L105.861 102.839L105.692 102.882L105.794 102.85L105.764 102.782L105.737 102.878L105.666 102.85L105.858 102.849L105.654 102.85L105.83 102.795L105.708 102.795L105.842 102.77L105.769 102.631L105.741 102.793L105.615 102.704" stroke="black" stroke-width="0.664091" stroke-linecap="round" stroke-linejoin="round"/>
<path d="M105.736 96.7881H109.443" stroke="black" stroke-width="0.664091" stroke-linecap="round" stroke-linejoin="round"/>
<path d="M106.148 102.531H109.856" stroke="black" stroke-width="0.664091" stroke-linecap="round" stroke-linejoin="round"/>
<path d="M105.932 99.3643H108.222" stroke="black" stroke-width="0.664091" stroke-linecap="round" stroke-linejoin="round"/>
<path d="M123.4 97.2852L123.323 97.1843L123.366 96.6082L123.299 96.5103L123.76 95.9275L124.016 95.7502L124.482 95.6216L125.034 95.7442L125.54 96.2405L125.687 96.8655L125.309 97.8674L124.328 98.9937L123.906 99.1101L124.075 99.0225L124.402 99.1504L125.041 99.7583L125.466 100.577L125.835 101.019L125.899 101.756L126.118 102.297L126.203 102.214L126.138 102.196" stroke="black" stroke-width="0.664091" stroke-linecap="round" stroke-linejoin="round"/>
<path d="M128.067 96.3862L127.538 96.4913L127.521 96.4113L127.729 96.4166L127.579 96.4583L127.532 96.6306L127.45 96.5259L127.645 96.5426L127.498 96.4257L127.312 96.557L127.495 96.5881L127.387 96.7816L127.472 97.7903L127.393 98.9052L127.572 99.6714L127.435 100.427L127.514 100.81L127.412 100.986L127.456 102.188L127.712 102.299L127.565 102.482L127.736 102.612L127.53 102.639L127.671 102.703L127.59 102.714L127.651 102.584L127.505 102.512L127.567 102.396L127.47 102.472L127.673 102.477L127.469 102.457L127.614 102.509L127.509 102.499L127.601 102.56L127.433 102.615L127.568 102.644L127.469 102.679L127.689 102.629L127.52 102.672L127.622 102.64L127.593 102.572L127.565 102.668L127.494 102.64L127.686 102.639L127.483 102.64L127.658 102.585L127.536 102.585L127.67 102.56L127.597 102.421L127.569 102.583L127.443 102.494" stroke="black" stroke-width="0.664091" stroke-linecap="round" stroke-linejoin="round"/>
<path d="M127.564 96.5786H131.271" stroke="black" stroke-width="0.664091" stroke-linecap="round" stroke-linejoin="round"/>
<path d="M127.977 102.321H131.684" stroke="black" stroke-width="0.664091" stroke-linecap="round" stroke-linejoin="round"/>
<path d="M127.758 99.1543H130.049" stroke="black" stroke-width="0.664091" stroke-linecap="round" stroke-linejoin="round"/>
<path d="M154.008 90.2677L154.053 90.421L154.199 90.2293L154.075 90.2464L154.552 90.229L154.459 90.1466L155.276 89.9341L156.271 90.243L156.275 90.4157L157.315 90.931L157.862 91.4444L158.216 92.0459L158.257 92.4622L158.561 92.8007L158.404 92.913L158.436 93.3653L158.318 93.4758L158.493 93.6716L158.072 94.3133L158.058 94.7117L157.73 95.3887L157.28 95.7341L156.603 96.86L156.422 96.981L156.471 97.1264L155.832 97.6061L155.791 97.8774L155.372 97.9351L155.467 98.0607L155.152 98.4253L155.199 98.6109L154.965 98.7202L155.255 98.8128L155.068 99.097L155.133 99.4279L154.953 99.7919L155.131 99.9562L154.878 100.312L155.047 100.991L155.12 100.967L154.911 101.126L155.025 101.159L155.061 101.465L154.924 101.351L155.16 101.24L154.746 100.283L154.896 99.6101L154.807 98.6492L155.037 98.0276L154.935 97.0395L156.399 96.0748L156.433 95.7811L156.989 95.5777L157.203 95.6312L157.711 95.221L158.124 94.3569L158.132 93.6773L158.294 93.3342L158.102 93.1502L158.328 92.9927L158.288 92.7745L156.339 91.1621L156.146 90.7648L155.914 90.8684L155.639 91.2179L155.201 92.291L154.712 92.8933" stroke="black" stroke-width="0.758961" stroke-linecap="round" stroke-linejoin="round"/>
<path d="M153.805 92.8084L153.944 92.6733L153.981 92.4566L153.826 92.6251L153.953 92.3921L154.224 92.3587L153.972 92.3841L153.627 93.8333L153.962 92.8566L154.162 92.4831L154.431 92.2854L154.215 92.2847L154.39 92.4186L154.21 92.7583" stroke="black" stroke-width="0.758961" stroke-linecap="round" stroke-linejoin="round"/>
<path d="M155.753 104.828L155.406 104.811L154.782 105.321L154.919 105.412L154.707 105.567L154.977 105.718L155.257 105.675L155.658 105.186L155.497 104.903L155.597 104.919L155.401 104.973L155.052 105.532L155.184 105.721L155.301 105.701L155.192 105.631L155.34 105.343L155.165 105.143L155.339 105.1L155.171 105.071L155.12 105.187" stroke="black" stroke-width="0.758961" stroke-linecap="round" stroke-linejoin="round"/>
<path d="M136.247 101.505L135.728 101.506L135.788 101.676L135.53 102.022L135.396 102.03L135.546 101.924L135.459 101.855L135.637 101.809L136.052 100.865L137.006 99.5622L137.11 99.1443L137.541 98.7338L138.032 97.7668L138.387 97.4473L138.435 97.2705L139.02 96.8777L138.901 96.847L138.92 96.6865L139.137 96.666L139.024 96.6094L139.262 96.5297L139.032 96.4868L139.395 96.2796L139.327 96.2485L139.301 96.3992L139.235 96.3343L139.398 96.4011L139.264 96.4193L139.27 96.3495L139.357 96.4011L139.154 96.4796L139.41 96.4394L139.246 96.42L139.386 96.4667L139.363 96.395L139.223 96.4834L139.291 96.4523L139.235 96.5426L139.331 96.5107L139.273 96.4728L139.249 96.5551L139.32 96.5514L139.24 96.4603L139.307 96.4235L139.383 96.4644L139.218 96.4884L139.307 96.5517L139.204 96.518L139.31 96.5491L139.21 96.5415L139.347 96.7491L139.246 96.7077L139.337 96.7009L139.213 96.74L139.337 96.7976L139.225 96.7889L139.396 96.7221L139.265 96.7088L139.367 96.6857L139.202 96.5324L139.347 96.5578L139.171 96.5464L139.355 96.4743L139.187 96.3544L139.294 96.2614L139.18 96.3867L139.29 96.3719L139.222 96.3502L139.31 96.2831L139.087 96.3324L139.274 96.3498L139.195 96.3506L139.234 96.5677L139.127 96.7263" stroke="black" stroke-width="0.664091" stroke-linecap="round" stroke-linejoin="round"/>
<path d="M135.746 96.3499L135.754 96.1404L135.479 95.9268L135.77 96.1579L135.647 96.2114L135.73 96.293L135.704 96.4831L135.956 96.6402L136.198 97.1013L136.524 98.0925L136.472 98.2602L136.907 98.7782L136.929 98.8632L136.831 98.8833L137.075 98.9816L136.995 99.0457L137.244 99.536L137.45 99.6844L137.355 99.7322L137.558 99.7455L137.295 99.7379L137.491 99.7413L137.311 99.7428L137.448 99.7519L137.259 100.009L137.48 100.036L137.31 100.016L137.33 100.207" stroke="black" stroke-width="0.664091" stroke-linecap="round" stroke-linejoin="round"/>
<path d="M142.819 95.9624L142.356 95.9248L141.887 96.2132L141.314 96.8208L141.269 97.0625L140.95 97.5281L140.794 98.221L140.524 98.6256L140.535 99.1322L140.434 99.4471L140.554 99.8183L140.478 100.037L140.787 100.186L140.877 100.308L140.834 100.424L141.028 100.66L141.593 100.834L142.281 100.879L142.679 100.796L143.28 100.488L143.341 100.252L143.688 99.9974L143.953 99.6153L143.909 99.2642L144.127 98.7375L144.182 98.3186L143.836 97.8746L143.814 97.5968L143.442 97.1843L143.194 96.4572L142.633 96.2045L142.549 96.2455" stroke="black" stroke-width="0.664091" stroke-linecap="round" stroke-linejoin="round"/>
<path d="M146.043 95.3623V100.625" stroke="black" stroke-width="0.664091" stroke-linecap="round" stroke-linejoin="round"/>
<path d="M146.975 100.256H149.137" stroke="black" stroke-width="0.664091" stroke-linecap="round" stroke-linejoin="round"/>
<path d="M149.754 95.4897V101.259" stroke="black" stroke-width="0.664091" stroke-linecap="round" stroke-linejoin="round"/>
<path d="M118.419 97.126L116.07 102.83" stroke="black" stroke-width="0.664091" stroke-linecap="round" stroke-linejoin="round"/>
<path d="M118.535 95.4966L121.219 102.207" stroke="black" stroke-width="0.664091" stroke-linecap="round" stroke-linejoin="round"/>
<path d="M118.42 101.152H121.439" stroke="black" stroke-width="0.664091" stroke-linecap="round" stroke-linejoin="round"/>
<path d="M123.305 97.772L122.373 97.8293L122.744 97.7765L122.65 97.78L122.721 97.8471L122.595 97.9321L122.709 98.0702L122.586 98.1682L122.814 98.5127L122.889 98.9055L122.817 99.1476L122.944 100.383L122.72 101.071L122.698 102.038L122.882 102.219L123.091 101.744" stroke="black" stroke-width="0.664091" stroke-linecap="round" stroke-linejoin="round"/>
<path d="M43.2735 18.5698L40.6172 25.021" stroke="black" stroke-width="0.758961" stroke-linecap="round" stroke-linejoin="round"/>
<path d="M43.4023 16.7261L46.4382 24.3157" stroke="black" stroke-width="0.758961" stroke-linecap="round" stroke-linejoin="round"/>
<path d="M43.2734 23.1226H46.6888" stroke="black" stroke-width="0.758961" stroke-linecap="round" stroke-linejoin="round"/>
<path d="M1.41797 1V114.465" stroke="black" stroke-width="0.758961" stroke-linecap="round" stroke-linejoin="round"/>
<path d="M3.57372 120.682L3.47431 120.827L3.39385 120.781L3.65075 120.7L4.44464 121.028L6.72266 121.411L7.15071 121.586L7.00954 121.641L7.06077 121.479L7.38332 121.585L7.06647 121.651L7.15981 121.679L7.06154 121.848L6.39365 122.364L6.21567 122.778L4.40744 124.088L5.55005 124.061L6.70216 124.343L7.42696 125.031L7.62543 125.897L7.33325 126.146L7.49109 126.464L7.34006 126.476L6.87597 126.953L6.37315 127.16L6.19707 127.511L5.10947 127.863L4.1141 127.67L3.9995 127.531L3.58094 127.573L3.46785 127.518L3.51568 127.41L3.0694 127.383L2.59961 127.062L2.82805 126.835L2.69825 126.546L2.77568 126.457L3.37904 126.373" stroke="black" stroke-width="1.61279" stroke-linecap="round" stroke-linejoin="round"/>
<path d="M116.14 65.7208L116.945 61.572L117.15 59.4674L117.164 55.2411L116.971 53.1354L116.193 48.9812L114.899 44.9572L114.066 43.0142L112.042 39.3041L109.568 35.8766L108.175 34.2862L105.103 31.3832L103.436 30.0819L99.875 27.8058L97.9939 26.8401L96.0563 25.9942L92.0406 24.6755L87.8914 23.8702L85.7872 23.6645L83.6742 23.5913L79.4552 23.8433L75.3006 24.6223L71.277 25.9156L67.4469 27.703L65.6235 28.7735L62.1964 31.2469L60.606 32.6404L57.703 35.7119L56.4018 37.3786L55.2075 39.1234L53.1599 42.8207L51.5915 46.7457L50.9949 48.7744L50.19 52.9232L49.9844 55.0278L49.9707 59.2545L50.1631 61.3599L50.9418 65.514L52.2354 69.538L54.0228 73.3681L55.0933 75.1915L57.5668 78.6186L58.9598 80.209L62.0317 83.112L63.6984 84.4133L65.4433 85.6071L69.1405 87.6552L71.0782 88.501L75.0938 89.8197L77.1559 90.2876L81.3473 90.8307L85.5739 90.8439L87.6797 90.6519L91.8338 89.8729L93.8659 89.2896L95.8578 88.5796L99.6876 86.7922L103.263 84.5389L106.529 81.8552L108.029 80.3646L110.733 77.1166L111.927 75.3718L113.975 71.6745L114.821 69.7365L116.14 65.7208Z" stroke="black" stroke-width="2.27688" stroke-linecap="round" stroke-linejoin="round"/>
</svg>
