<svg width="296" height="231" viewBox="0 0 296 231" fill="none" xmlns="http://www.w3.org/2000/svg">
<path d="M2.01953 1.09863V207.673" stroke="black" stroke-width="1.38177" stroke-linecap="round" stroke-linejoin="round"/>
<path d="M294.371 2.08105V208.655" stroke="black" stroke-width="1.38177" stroke-linecap="round" stroke-linejoin="round"/>
<path d="M2.95508 2.2583H293.126" stroke="black" stroke-width="1.38177" stroke-linecap="round" stroke-linejoin="round"/>
<path d="M1.25391 206.745H291.425" stroke="black" stroke-width="1.38177" stroke-linecap="round" stroke-linejoin="round"/>
<path d="M196.179 131.736L196.208 131.583L195.86 131.887L194.192 131.783L193.661 131.98L193.589 132.174L192.069 132.292L191.546 132.601L191.121 133.169L191.05 133.83L189.974 134.828L189.665 135.379L189.634 136.211L189.094 137.878L189.466 138.225L189.51 139.346L189.988 140.138L189.865 140.234L190.194 140.37L190.343 140.94L191.051 141.308L190.855 141.47L191.545 141.864L192.206 141.877L194.228 142.515L195.144 142.36L195.611 142.073L197.144 141.946L197.616 141.598L197.533 141.748" stroke="black" stroke-width="1.20905" stroke-linecap="round" stroke-linejoin="round"/>
<path d="M211.115 130.647L209.694 130.799L210.317 131.089L209.743 133.128L209.78 134.571L209.542 134.827L209.285 135.962L209.833 137.582L209.398 138.097L209.795 140.022L209.445 140.543L209.828 141.331L209.664 141.528L209.812 141.559L209.54 141.587L209.655 141.684L209.444 141.899L210.037 142.301L209.589 142.582L209.716 143.068L209.281 143.128L209.652 143.03L209.553 142.951L209.984 142.674L209.843 142.66L210.062 142.661L209.626 142.891L209.562 142.678L210.128 142.752L209.576 142.769L209.491 142.885L209.726 142.949L209.485 142.903L209.687 142.828L209.476 142.962L209.611 143.009L209.442 142.965L209.741 143.004L209.444 142.948L209.582 142.836L209.236 142.98" stroke="black" stroke-width="1.20905" stroke-linecap="round" stroke-linejoin="round"/>
<path d="M210.756 131.748L210.392 131.808L210.657 131.929L210.365 131.973L210.979 132.407L210.984 132.91L211.44 133.276L211.302 133.46L211.44 133.708L212.202 134.076L213.028 135.623L214.157 137.001L214.162 137.246L214.71 137.304L215.113 137.617L215.537 137.269L215.105 137.233L215.273 137.139" stroke="black" stroke-width="1.20905" stroke-linecap="round" stroke-linejoin="round"/>
<path d="M218.512 131.914L217.597 132.448L217.675 132.692L216.548 134.617L215.753 136.553L215.172 137.22L215.278 137.44L214.985 137.783L214.752 137.692L214.987 137.856" stroke="black" stroke-width="1.20905" stroke-linecap="round" stroke-linejoin="round"/>
<path d="M218.99 131.616V140.615" stroke="black" stroke-width="1.20905" stroke-linecap="round" stroke-linejoin="round"/>
<path d="M224.438 132.014L223.016 132.166L223.64 132.456L223.066 134.495L223.102 135.938L222.865 136.193L222.608 137.329L223.156 138.949L222.72 139.464L223.117 141.389L222.767 141.91L223.15 142.698L222.986 142.895L223.134 142.926L222.862 142.954L222.977 143.05L222.766 143.266L223.359 143.668L222.912 143.949L223.038 144.435L222.603 144.495L222.974 144.397L222.875 144.318L223.306 144.041L223.165 144.027L223.384 144.029L222.948 144.258L222.885 144.045L223.451 144.118L222.898 144.136L222.813 144.252L223.048 144.317L222.807 144.27L223.01 144.195L222.798 144.328L222.933 144.375L222.764 144.332L223.063 144.371L222.767 144.315L222.905 144.203L222.559 144.347" stroke="black" stroke-width="1.20905" stroke-linecap="round" stroke-linejoin="round"/>
<path d="M224.079 133.115L223.714 133.175L223.979 133.296L223.688 133.34L224.301 133.774L224.307 134.278L224.763 134.643L224.624 134.827L224.763 135.075L225.524 135.443L226.351 136.99L227.48 138.368L227.485 138.613L228.033 138.672L228.435 138.984L228.859 138.636L228.428 138.6L228.596 138.506" stroke="black" stroke-width="1.20905" stroke-linecap="round" stroke-linejoin="round"/>
<path d="M231.835 133.28L230.92 133.815L230.997 134.058L229.87 135.984L229.075 137.92L228.494 138.586L228.601 138.807L228.307 139.15L228.074 139.06L228.309 139.223" stroke="black" stroke-width="1.20905" stroke-linecap="round" stroke-linejoin="round"/>
<path d="M232.312 132.982V141.981" stroke="black" stroke-width="1.20905" stroke-linecap="round" stroke-linejoin="round"/>
<path d="M243.75 132.797V143.3" stroke="black" stroke-width="1.20905" stroke-linecap="round" stroke-linejoin="round"/>
<path d="M236.99 132.565V142.147" stroke="black" stroke-width="1.20905" stroke-linecap="round" stroke-linejoin="round"/>
<path d="M237.684 142.83H241.62" stroke="black" stroke-width="1.20905" stroke-linecap="round" stroke-linejoin="round"/>
<path d="M255.646 131.863V142.366" stroke="black" stroke-width="1.20905" stroke-linecap="round" stroke-linejoin="round"/>
<path d="M247.443 129.969L255.317 142.342" stroke="black" stroke-width="1.20905" stroke-linecap="round" stroke-linejoin="round"/>
<path d="M248.482 132.586V142.167" stroke="black" stroke-width="1.20905" stroke-linecap="round" stroke-linejoin="round"/>
<path d="M261.361 130.511V140.092" stroke="black" stroke-width="1.20905" stroke-linecap="round" stroke-linejoin="round"/>
<path d="M264.797 131.314H274.92" stroke="black" stroke-width="1.20905" stroke-linecap="round" stroke-linejoin="round"/>
<path d="M270.422 130.853V140.976" stroke="black" stroke-width="1.20905" stroke-linecap="round" stroke-linejoin="round"/>
<path d="M71.1314 127.704L71.3232 127.715L70.8047 127.95L70.3098 128.736L69.2559 130.828L68.3949 133.132L68.1736 134.752L67.5915 135.826L67.4734 137.331L67.2197 137.214L66.9256 138.26L66.5201 138.555L66.6373 138.731L66.5133 139.098L66.4316 139.003L66.8046 138.704L66.852 138.226" stroke="black" stroke-width="1.20905" stroke-linecap="round" stroke-linejoin="round"/>
<path d="M63.0782 147.595L62.9381 147.411L63.0165 146.363L62.8945 146.184L63.734 145.123L64.2004 144.801L65.0493 144.566L66.0527 144.79L66.9754 145.693L67.2416 146.831L66.5546 148.655L64.7681 150.706L63.9996 150.918L64.3075 150.758L64.9028 150.991L66.0657 152.098L66.8391 153.589L67.5113 154.394L67.628 155.735L68.0263 156.72L68.1812 156.568L68.0632 156.537" stroke="black" stroke-width="1.20905" stroke-linecap="round" stroke-linejoin="round"/>
<path d="M45.7404 145.437L44.8984 145.369L44.0443 145.893L43.0005 147L42.9191 147.44L42.3393 148.287L42.0555 149.549L41.5634 150.286L41.5832 151.207L41.3984 151.781L41.6172 152.457L41.4783 152.855L42.0419 153.127L42.2054 153.349L42.1263 153.56L42.4806 153.989L43.51 154.306L44.7608 154.389L45.4864 154.237L46.5814 153.677L46.6909 153.247L47.3228 152.783L47.8052 152.087L47.7255 151.448L48.1236 150.489L48.2231 149.727L47.5919 148.918L47.5527 148.412L46.8758 147.662L46.4243 146.338L45.4026 145.878L45.2498 145.952" stroke="black" stroke-width="1.20905" stroke-linecap="round" stroke-linejoin="round"/>
<path d="M37.66 144.429L37.6888 144.276L37.3398 144.58L35.6725 144.476L35.1416 144.673L35.069 144.867L33.549 144.985L33.0257 145.294L32.602 145.861L32.5301 146.523L31.4541 147.521L31.1451 148.072L31.1141 148.903L30.5742 150.571L30.9464 150.918L30.99 152.039L31.4688 152.831L31.3455 152.926L31.6747 153.063L31.8234 153.633L32.5312 154.001L32.3347 154.163L33.0255 154.557L33.6866 154.57L35.7078 155.208L36.6242 155.054L37.0913 154.766L38.6243 154.638L39.0967 154.291L39.013 154.441" stroke="black" stroke-width="1.20905" stroke-linecap="round" stroke-linejoin="round"/>
<path d="M95.0292 145.251L94.5325 145.253L93.9991 144.866L93.4098 144.86L92.4481 145.307L91.2895 146.639L91.049 147.285L91.3171 147.408L91.0179 148.166L91.8629 149.956L93.7787 150.414L94.377 151.065L94.5795 151.674L94.3784 151.709L94.6154 151.845L94.6858 152.525L94.585 153.75L94.2762 154.099L94.4053 154.471L93.8312 155.058L93.7559 155.407L93.501 155.608L93.6032 155.682L92.1123 156.11L90.3443 156.02L89.5636 155.581L89.3633 155.72" stroke="black" stroke-width="1.20905" stroke-linecap="round" stroke-linejoin="round"/>
<path d="M114.754 132.428L114.783 132.275L114.434 132.579L112.767 132.475L112.235 132.672L112.163 132.866L110.643 132.984L110.12 133.293L109.696 133.86L109.624 134.522L108.548 135.52L108.239 136.071L108.208 136.902L107.668 138.57L108.04 138.918L108.084 140.038L108.563 140.83L108.44 140.925L108.769 141.062L108.918 141.632L109.625 142L109.429 142.162L110.119 142.556L110.78 142.569L112.802 143.207L113.718 143.053L114.185 142.765L115.718 142.637L116.191 142.29L116.107 142.44" stroke="black" stroke-width="1.20905" stroke-linecap="round" stroke-linejoin="round"/>
<path d="M130.484 134.085V143.666" stroke="black" stroke-width="1.20905" stroke-linecap="round" stroke-linejoin="round"/>
<path d="M132.184 142.993H136.12" stroke="black" stroke-width="1.20905" stroke-linecap="round" stroke-linejoin="round"/>
<path d="M125.453 132.224V142.728" stroke="black" stroke-width="1.20905" stroke-linecap="round" stroke-linejoin="round"/>
<path d="M118.693 131.993V141.574" stroke="black" stroke-width="1.20905" stroke-linecap="round" stroke-linejoin="round"/>
<path d="M120.393 140.901H124.329" stroke="black" stroke-width="1.20905" stroke-linecap="round" stroke-linejoin="round"/>
<path d="M154.559 133.507V144.011" stroke="black" stroke-width="1.20905" stroke-linecap="round" stroke-linejoin="round"/>
<path d="M147.799 133.277V142.858" stroke="black" stroke-width="1.20905" stroke-linecap="round" stroke-linejoin="round"/>
<path d="M149.496 142.185H153.433" stroke="black" stroke-width="1.20905" stroke-linecap="round" stroke-linejoin="round"/>
<path d="M134.527 133.041H144.651" stroke="black" stroke-width="1.20905" stroke-linecap="round" stroke-linejoin="round"/>
<path d="M140.15 132.579V142.701" stroke="black" stroke-width="1.20905" stroke-linecap="round" stroke-linejoin="round"/>
<path d="M147.996 133.824V143.405" stroke="black" stroke-width="1.20905" stroke-linecap="round" stroke-linejoin="round"/>
<path d="M139.965 132.85V142.431" stroke="black" stroke-width="1.20905" stroke-linecap="round" stroke-linejoin="round"/>
<path d="M130.389 132.529V142.11" stroke="black" stroke-width="1.20905" stroke-linecap="round" stroke-linejoin="round"/>
<path d="M118.74 132.59V142.172" stroke="black" stroke-width="1.20905" stroke-linecap="round" stroke-linejoin="round"/>
<path d="M64.0612 127.913L63.8116 127.974L63.791 128.313L64.1459 129.56L64.9861 130.205L66.5407 132.284L66.5999 132.602L67.418 132.986" stroke="black" stroke-width="1.20905" stroke-linecap="round" stroke-linejoin="round"/>
<path d="M52.2695 125.753L50.8481 125.905L51.4716 126.196L50.8975 128.234L50.9345 129.677L50.6967 129.933L50.4395 131.068L50.9875 132.688L50.5521 133.203L50.9487 135.129L50.5995 135.649L50.9819 136.438L50.8183 136.635L50.9659 136.666L50.6938 136.693L50.8094 136.79L50.598 137.005L51.1913 137.407L50.7439 137.689L50.8699 138.175L50.4357 138.234L50.8065 138.137L50.7068 138.058L51.1382 137.781L50.9975 137.766L51.2164 137.768L50.7801 137.998L50.7171 137.784L51.2825 137.858L50.7301 137.875L50.6447 137.992L50.8805 138.056L50.6395 138.01L50.842 137.934L50.6306 138.068L50.765 138.115L50.596 138.072L50.8948 138.111L50.5984 138.055L50.7368 137.942L50.3906 138.086" stroke="black" stroke-width="1.20905" stroke-linecap="round" stroke-linejoin="round"/>
<path d="M51.9089 126.854L51.5446 126.914L51.8093 127.035L51.5176 127.079L52.1312 127.512L52.1365 128.016L52.5929 128.382L52.4543 128.566L52.5927 128.813L53.3537 129.182L54.1807 130.729L55.3099 132.107L55.3149 132.352L55.8629 132.41L56.2653 132.722L56.6899 132.375L56.2579 132.338L56.4257 132.245" stroke="black" stroke-width="1.20905" stroke-linecap="round" stroke-linejoin="round"/>
<path d="M59.6689 127.019L58.7537 127.554L58.8315 127.797L57.7042 129.722L56.9096 131.658L56.3284 132.325L56.4347 132.545L56.1411 132.888L55.9082 132.798L56.1434 132.961" stroke="black" stroke-width="1.20905" stroke-linecap="round" stroke-linejoin="round"/>
<path d="M60.0749 126.836L59.9258 127.543L60.0016 128.924L60.3274 130.807L60.692 131.481L60.6526 132.412L61.341 133.578L61.5617 133.678L61.3844 134.563L61.6873 134.673L61.924 135.598L61.8474 136.75L61.9827 136.931L61.8975 136.831L61.9098 137.21L61.698 137.434L61.9275 137.393L61.8295 137.267L61.6876 137.43" stroke="black" stroke-width="1.20905" stroke-linecap="round" stroke-linejoin="round"/>
<path d="M159.802 134.784L158.105 134.888L158.78 134.792L158.61 134.798L158.74 134.92L158.509 135.075L158.716 135.327L158.493 135.505L158.908 136.133L159.045 136.847L158.914 137.288L159.145 139.538L158.738 140.79L158.696 142.55L159.032 142.88L159.413 142.014" stroke="black" stroke-width="1.20905" stroke-linecap="round" stroke-linejoin="round"/>
<path d="M159.971 133.899L159.831 133.714L159.909 132.665L159.787 132.488L160.627 131.426L161.094 131.103L161.942 130.869L162.946 131.093L163.868 131.996L164.134 133.134L163.447 134.958L161.661 137.008L160.893 137.221L161.2 137.061L161.796 137.294L162.958 138.4L163.732 139.892L164.404 140.696L164.521 142.037L164.919 143.024L165.074 142.871L164.956 142.84" stroke="black" stroke-width="1.20905" stroke-linecap="round" stroke-linejoin="round"/>
<path d="M168.467 132.261L167.504 132.453L167.474 132.307L167.851 132.317L167.579 132.393L167.493 132.707L167.344 132.515L167.699 132.546L167.431 132.334L167.094 132.573L167.426 132.629L167.23 132.981L167.384 134.818L167.24 136.847L167.566 138.243L167.317 139.617L167.461 140.316L167.275 140.635L167.354 142.823L167.822 143.025L167.553 143.36L167.863 143.597L167.49 143.646L167.747 143.762L167.597 143.781L167.71 143.545L167.445 143.414L167.557 143.202L167.381 143.341L167.751 143.351L167.379 143.313L167.643 143.408L167.452 143.391L167.618 143.501L167.313 143.601L167.559 143.655L167.379 143.718L167.78 143.627L167.472 143.704L167.658 143.647L167.604 143.523L167.554 143.698L167.425 143.647L167.773 143.646L167.403 143.647L167.723 143.548L167.501 143.547L167.745 143.502L167.612 143.249L167.561 143.543L167.331 143.381" stroke="black" stroke-width="1.20905" stroke-linecap="round" stroke-linejoin="round"/>
<path d="M167.551 132.61H174.299" stroke="black" stroke-width="1.20905" stroke-linecap="round" stroke-linejoin="round"/>
<path d="M168.307 143.066H175.055" stroke="black" stroke-width="1.20905" stroke-linecap="round" stroke-linejoin="round"/>
<path d="M167.902 137.301H172.073" stroke="black" stroke-width="1.20905" stroke-linecap="round" stroke-linejoin="round"/>
<path d="M280.125 141.511L279.18 141.513L279.29 141.823L278.821 142.452L278.576 142.466L278.848 142.274L278.692 142.147L279.015 142.065L279.769 140.344L281.507 137.974L281.697 137.213L282.481 136.466L283.376 134.705L284.022 134.123L284.109 133.802L285.173 133.087L284.958 133.031L284.991 132.738L285.388 132.7L285.18 132.597L285.614 132.452L285.196 132.374L285.856 131.998L285.732 131.94L285.686 132.215L285.564 132.097L285.862 132.218L285.618 132.252L285.629 132.124L285.788 132.219L285.417 132.361L285.884 132.288L285.584 132.253L285.839 132.338L285.799 132.207L285.543 132.369L285.667 132.311L285.564 132.476L285.739 132.419L285.635 132.349L285.59 132.499L285.719 132.492L285.574 132.327L285.696 132.26L285.835 132.334L285.534 132.378L285.696 132.492L285.509 132.431L285.701 132.488L285.52 132.474L285.77 132.852L285.586 132.776L285.752 132.764L285.524 132.835L285.75 132.941L285.548 132.924L285.859 132.803L285.619 132.778L285.806 132.737L285.504 132.457L285.769 132.504L285.448 132.483L285.784 132.352L285.478 132.133L285.673 131.965L285.466 132.192L285.665 132.165L285.542 132.126L285.702 132.003L285.294 132.094L285.637 132.125L285.492 132.127L285.562 132.521L285.369 132.81" stroke="black" stroke-width="1.20905" stroke-linecap="round" stroke-linejoin="round"/>
<path d="M279.216 132.125L279.231 131.744L278.729 131.355L279.259 131.776L279.036 131.873L279.188 132.021L279.139 132.368L279.599 132.654L280.038 133.493L280.633 135.298L280.538 135.603L281.33 136.546L281.37 136.701L281.192 136.738L281.636 136.916L281.489 137.033L281.943 137.926L282.318 138.196L282.146 138.283L282.515 138.307L282.037 138.294L282.393 138.3L282.065 138.303L282.314 138.32L281.972 138.787L282.374 138.836L282.063 138.799L282.099 139.148" stroke="black" stroke-width="1.20905" stroke-linecap="round" stroke-linejoin="round"/>
<path d="M204.258 132.745L203.416 132.677L202.562 133.201L201.518 134.308L201.437 134.748L200.857 135.595L200.573 136.857L200.081 137.594L200.101 138.515L199.916 139.09L200.135 139.765L199.996 140.163L200.559 140.435L200.723 140.657L200.644 140.868L200.999 141.297L202.027 141.614L203.279 141.697L204.004 141.545L205.099 140.985L205.209 140.555L205.84 140.091L206.323 139.395L206.243 138.757L206.641 137.798L206.741 137.035L206.11 136.227L206.07 135.72L205.393 134.97L204.942 133.645L203.92 133.186L203.768 133.261" stroke="black" stroke-width="1.20905" stroke-linecap="round" stroke-linejoin="round"/>
<path d="M51.7266 145.386V154.967" stroke="black" stroke-width="1.20905" stroke-linecap="round" stroke-linejoin="round"/>
<path d="M53.4258 154.294H57.3627" stroke="black" stroke-width="1.20905" stroke-linecap="round" stroke-linejoin="round"/>
<path d="M62.9077 148.481L61.2109 148.586L61.8859 148.49L61.7162 148.496L61.8455 148.618L61.6144 148.773L61.8216 149.024L61.5989 149.203L62.0133 149.831L62.1506 150.545L62.0199 150.986L62.2511 153.235L61.843 154.487L61.8014 156.248L62.1376 156.577L62.5189 155.712" stroke="black" stroke-width="1.20905" stroke-linecap="round" stroke-linejoin="round"/>
<path d="M58.4883 145.617V156.12" stroke="black" stroke-width="1.20905" stroke-linecap="round" stroke-linejoin="round"/>
<path d="M80.4316 154.395H87.1809" stroke="black" stroke-width="1.20905" stroke-linecap="round" stroke-linejoin="round"/>
<path d="M76.4116 144.701L75.9151 144.703L75.3815 144.316L74.7924 144.31L73.8307 144.756L72.6721 146.088L72.4316 146.735L72.6998 146.858L72.4007 147.615L73.2451 149.405L75.1612 149.864L75.7593 150.514L75.9618 151.124L75.7608 151.158L75.9981 151.295L76.0687 151.975L75.9677 153.199L75.6588 153.549L75.7881 153.92L75.2139 154.508L75.1386 154.857L74.8838 155.058L74.9856 155.132L73.4946 155.559L71.727 155.469L70.9464 155.031L70.7461 155.169" stroke="black" stroke-width="1.20905" stroke-linecap="round" stroke-linejoin="round"/>
<path d="M80.5915 143.59L79.6291 143.781L79.5987 143.636L79.9766 143.646L79.7038 143.722L79.6181 144.035L79.4688 143.845L79.824 143.875L79.5559 143.662L79.2188 143.901L79.5511 143.958L79.3549 144.31L79.5089 146.147L79.3645 148.177L79.6913 149.572L79.4419 150.946L79.5856 151.644L79.3998 151.964L79.4792 154.152L79.9469 154.354L79.6782 154.689L79.9891 154.925L79.6146 154.974L79.8716 155.091L79.7231 155.11L79.835 154.874L79.5697 154.743L79.6823 154.531L79.5062 154.67L79.8758 154.68L79.5041 154.643L79.768 154.737L79.578 154.719L79.7431 154.831L79.4385 154.93L79.6837 154.983L79.5048 155.047L79.9048 154.956L79.5974 155.033L79.7825 154.976L79.7286 154.852L79.6789 155.027L79.5497 154.976L79.8986 154.975L79.529 154.976L79.8481 154.877L79.6271 154.875L79.8703 154.831L79.7369 154.578L79.6865 154.872L79.4564 154.71" stroke="black" stroke-width="1.20905" stroke-linecap="round" stroke-linejoin="round"/>
<path d="M79.6758 143.939H86.4243" stroke="black" stroke-width="1.20905" stroke-linecap="round" stroke-linejoin="round"/>
<path d="M80.0273 148.63H84.1975" stroke="black" stroke-width="1.20905" stroke-linecap="round" stroke-linejoin="round"/>
<path d="M11.6105 216.383L10.9116 216.833L11.3314 216.735L11.7628 216.055L12.5601 215.596L14.9464 215.256L15.4978 215.511L16.1208 216.327L15.994 216.5L16.4243 216.647L16.319 217.624L15.8011 218.367L15.3291 220.059L14.8765 220.693L14.8735 221.343L13.9345 222.034L13.8499 222.467L12.1814 223.591L10.9118 225.082L11.0463 225.25L10.8843 225.404L9.7606 226.143L9.89057 226.646L9.4291 226.76L9.28221 226.927L9.46504 227.189L9.08115 227.283L9.38974 227.735L8.85344 228.238L8.99989 228.696L8.6765 228.72L8.89708 228.714L8.45508 229.121L8.88585 229.196L8.47138 229.116L9.07807 229.011L8.63741 229.061L10.2298 229.329L12.3243 228.955L12.2724 228.744L14.905 228.423L15.4556 228.449L15.3375 228.652L16.1934 228.948L17.1116 228.75L17.8043 228.933L17.4026 228.875L18.1502 228.617L17.6717 228.51L17.6601 228.322L18.2768 227.815" stroke="black" stroke-width="2.93625" stroke-linecap="round" stroke-linejoin="round"/>
<path d="M129.149 106.461L130.35 110.21L132.233 113.668L134.729 116.712L137.752 119.234L140.007 120.581L142.414 121.633L146.223 122.628L150.151 122.892L154.059 122.415L157.808 121.214L161.266 119.332L164.31 116.835L166.832 113.813L168.179 111.557L169.232 109.151L170.227 105.342L170.49 101.413L170.014 97.5057L168.812 93.7563L166.93 90.2984L164.433 87.2544L161.411 84.7327L159.155 83.3861L156.749 82.3325L152.94 81.3377L149.011 81.0737L145.104 81.5511L141.354 82.7519L137.897 84.6339L135.814 86.2353L133.95 88.0848L131.622 91.2601L129.931 94.8154L128.936 98.6249L128.672 102.553L129.149 106.461Z" stroke="black" stroke-width="4.1453" stroke-linecap="round" stroke-linejoin="round"/>
<path d="M57.9564 122.864L61.8733 122.158L65.5886 120.731L68.9708 118.633L71.8998 115.938L74.2721 112.743L76.0035 109.159L77.0328 105.315L77.3097 102.673L77.2538 100.018L76.548 96.1016L75.1209 92.386L73.023 89.0042L70.3284 86.0748L68.2469 84.4257L65.9752 83.0508L62.29 81.5482L58.3884 80.7619L54.4086 80.7212L50.4916 81.4266L46.7763 82.8539L43.3942 84.9522L40.4651 87.6466L38.8161 89.7282L37.441 91.9998L35.938 95.685L35.1521 99.5864L35.1113 103.567L35.8169 107.483L37.244 111.199L39.342 114.581L42.0365 117.51L45.2323 119.882L48.8159 121.613L51.3582 122.381L53.9766 122.823L57.9564 122.864Z" stroke="black" stroke-width="1.38177" stroke-linecap="round" stroke-linejoin="round"/>
<path d="M238.417 123.611L242.334 122.905L246.049 121.478L249.431 119.38L252.36 116.685L254.733 113.49L256.464 109.906L257.494 106.062L257.771 103.42L257.714 100.765L257.009 96.8487L255.581 93.1331L253.484 89.7512L250.789 86.8219L248.708 85.1735L246.436 83.7979L242.751 82.2952L238.849 81.509L234.869 81.4683L230.952 82.1737L227.237 83.601L223.855 85.6992L220.926 88.3937L219.277 90.4753L217.902 92.7469L216.399 96.4321L215.613 100.334L215.572 104.314L216.278 108.23L217.704 111.946L219.803 115.328L222.497 118.257L225.693 120.629L229.277 122.36L231.819 123.128L234.438 123.57L238.417 123.611Z" stroke="black" stroke-width="1.38177" stroke-linecap="round" stroke-linejoin="round"/>
</svg>
