<svg width="296" height="232" viewBox="0 0 296 232" fill="none" xmlns="http://www.w3.org/2000/svg">
<path d="M2.08789 1.28076V207.855" stroke="black" stroke-width="1.38177" stroke-linecap="round" stroke-linejoin="round"/>
<path d="M294.439 2.26318V208.837" stroke="black" stroke-width="1.38177" stroke-linecap="round" stroke-linejoin="round"/>
<path d="M3.02344 2.44019H293.194" stroke="black" stroke-width="1.38177" stroke-linecap="round" stroke-linejoin="round"/>
<path d="M1.32227 206.926H291.493" stroke="black" stroke-width="1.38177" stroke-linecap="round" stroke-linejoin="round"/>
<path d="M119.537 137.788L119.648 136.955L120.147 137.125L119.584 137.23L119.948 137.296L119.612 137.573L119.957 138.392L119.602 139.249L120.008 141.482L119.818 142.601L120.173 144.755L120.129 146.57L120.386 147.293L119.953 147.575L120.219 147.655L120.365 148.026L120.215 148.225L120.589 148.532L120.5 148.961L120.681 149.293L120.347 149.519L120.751 149.621L120.593 150.118L120.799 150.561L120.533 150.571L120.967 150.968L120.722 150.874L120.844 151.044L120.561 151.161L120.732 151.276L120.622 151.405L121.027 151.539L120.651 151.465L121.195 151.392L121.175 150.463L120.958 150.403" stroke="black" stroke-width="1.38177" stroke-linecap="round" stroke-linejoin="round"/>
<path d="M120.682 151.166H126.9" stroke="black" stroke-width="1.38177" stroke-linecap="round" stroke-linejoin="round"/>
<path d="M134.679 140.054L134.465 140.152L133.519 139.412L132.969 139.526L130.593 141.283L130.12 142.242L129.617 142.467L128.462 143.91L128.631 144.993L128.305 146.122L128.763 147.306L128.656 148.021L128.832 148.495L130.245 150.522L131.299 151.348L131.713 151.549L132.741 151.219L135.138 148.984L136.557 144.301L136.304 142.024L135.765 141.133L135.042 140.673L134.221 139.5L131.935 138.654L130.062 139.228L129.426 139.99L129.163 141.023L128.36 142.502" stroke="black" stroke-width="1.38177" stroke-linecap="round" stroke-linejoin="round"/>
<path d="M145.444 139.497L145.386 138.966L144.685 139.152L143.811 139.833L142.636 141.505L141.902 143.44L141.054 144.728L140.33 147.864L140.613 148.813L140.508 149.944L140.966 150.75L141.489 151.173L141.319 151.422L141.465 151.871L142.047 152.231L143.761 152.33L143.928 152.236L143.742 152.164L144.162 152.202L145.061 151.828L144.896 151.533L145.398 151.165L145.429 148.804L144.612 147.694L143.624 147.604L143.809 147.7L143.327 147.806L143.355 148.575L144.226 149.264L145.948 149.182L145.883 148.916L146.296 148.818L145.931 148.808L146.322 149.315L146.189 149.541L146.878 150.111L146.444 150.642L146.74 151.267L146.572 152.674L146.743 155.435L147.148 156.085L147.323 157.31L147.656 156.807L147.635 156.209" stroke="black" stroke-width="1.38177" stroke-linecap="round" stroke-linejoin="round"/>
<path d="M156.254 140.963L155.934 140.928L156.003 140.689L155.955 141.003L155.571 140.838L155.918 140.77L155.996 141.115L155.66 141.345L155.604 141.712L156.029 142.679L155.93 144.161L156.192 146.964L155.533 149.033L155.844 149.501L156.002 151.582L156.199 151.982L157.034 150.629" stroke="black" stroke-width="1.38177" stroke-linecap="round" stroke-linejoin="round"/>
<path d="M161.651 141.495L161.255 140.306L161.841 140.838L161.354 141.271L161.22 141.724L161.157 143.513L161.399 144.969L160.881 147.907L161.589 149.755L161.296 150.404L161.723 151.414L161.664 152.413L162.072 152.451L161.808 152.156L162.481 151.173" stroke="black" stroke-width="1.38177" stroke-linecap="round" stroke-linejoin="round"/>
<path d="M162.546 140.097L162.43 140.188L162.675 140.332L162.491 140.412L162.865 140.354L164.241 141.905L165.381 142.64L165.305 143.382L165.628 143.765L167.358 144.965L169.066 148.057L170.296 149.363L170.255 150.257L171.113 150.304L170.496 150.141L170.878 149.793" stroke="black" stroke-width="1.38177" stroke-linecap="round" stroke-linejoin="round"/>
<path d="M172.182 142.211L172.378 141.879L172.111 141.438L172.924 141.037L172.598 141.07L172.866 141.215L172.515 141.528L172.441 142.128L172.455 147.699L173.1 149.07L172.981 150.001L173.374 151.317L173.188 151.824L173.907 152.689L174.305 154.722L174.061 154.687L174.539 154.539L174.058 154.574L174.283 154.323L174.07 154.19L174.257 154.31L174.265 154.119L174.032 154.221L174.318 154.359L173.775 154.332L174.08 154.29L173.825 154.163L174.075 154.085L173.719 154.174L174.12 154.111L173.812 154.124L174.071 154.115L174.115 153.561L173.884 153.838" stroke="black" stroke-width="1.38177" stroke-linecap="round" stroke-linejoin="round"/>
<path d="M10.9941 215.189V229.828" stroke="black" stroke-width="2.93625" stroke-linecap="round" stroke-linejoin="round"/>
<path d="M130.858 108.163L132.059 111.912L133.941 115.37L136.438 118.414L139.461 120.936L141.716 122.282L144.123 123.336L147.932 124.331L151.86 124.594L155.768 124.117L159.517 122.917L162.975 121.034L166.019 118.537L168.541 115.515L169.888 113.259L170.941 110.852L171.935 107.044L172.199 103.115L171.722 99.2077L170.521 95.4582L168.639 92.0004L166.142 88.957L163.12 86.4346L160.864 85.0881L158.458 84.0345L154.649 83.0396L150.72 82.7764L146.813 83.2531L143.063 84.4538L139.606 86.3365L137.523 87.9373L135.658 89.7875L133.331 92.9628L131.64 96.518L130.645 100.327L130.381 104.255L130.858 108.163Z" stroke="black" stroke-width="4.1453" stroke-linecap="round" stroke-linejoin="round"/>
</svg>
