<svg width="91" height="43" viewBox="0 0 91 43" fill="none" xmlns="http://www.w3.org/2000/svg">
<path d="M23.2598 12.5234L33.2822 12.5234L38.2939 21.2051L33.2832 29.8848L23.2588 29.8848L18.2471 21.2051L23.2598 12.5234Z" stroke="#292562" stroke-width="1.76699"/>
<path d="M40.4883 2.36279L50.5107 2.36279L55.5225 11.0444L50.5117 19.7241L40.4873 19.7241L35.4756 11.0444L40.4883 2.36279Z" stroke="#292562" stroke-width="1.76699"/>
<path d="M57.7168 12.5234L67.7393 12.5234L72.751 21.2051L67.7402 29.8848L57.7158 29.8848L52.7041 21.2051L57.7168 12.5234Z" stroke="#292562" stroke-width="1.76699"/>
<path d="M6.03223 2.36279L16.0547 2.36279L21.0664 11.0444L16.0557 19.7241L6.03125 19.7241L1.01953 11.0444L6.03223 2.36279Z" stroke="#292562" stroke-width="1.76699"/>
<path d="M74.9453 22.6836L84.9678 22.6836L89.9795 31.3652L84.9687 40.0449L74.9443 40.0449L69.9326 31.3652L74.9453 22.6836Z" stroke="#292562" stroke-width="1.76699"/>
</svg>
