<svg width="91" height="43" viewBox="0 0 91 43" fill="none" xmlns="http://www.w3.org/2000/svg">
<path d="M23.2598 12.5229L33.2822 12.5229L38.2939 21.2046L33.2832 29.8843L23.2588 29.8843L18.2471 21.2046L23.2598 12.5229Z" stroke="white" stroke-width="1.76699"/>
<path d="M40.4883 2.3623L50.5107 2.3623L55.5225 11.0439L50.5117 19.7236L40.4873 19.7236L35.4756 11.0439L40.4883 2.3623Z" stroke="white" stroke-width="1.76699"/>
<path d="M57.7168 12.5229L67.7393 12.5229L72.751 21.2046L67.7402 29.8843L57.7158 29.8843L52.7041 21.2046L57.7168 12.5229Z" stroke="white" stroke-width="1.76699"/>
<path d="M6.03223 2.3623L16.0547 2.3623L21.0664 11.0439L16.0557 19.7236L6.03125 19.7236L1.01953 11.0439L6.03223 2.3623Z" stroke="white" stroke-width="1.76699"/>
<path d="M74.9453 22.6831L84.9678 22.6831L89.9795 31.3647L84.9687 40.0444L74.9443 40.0444L69.9326 31.3647L74.9453 22.6831Z" stroke="white" stroke-width="1.76699"/>
</svg>
