<svg width="36" height="36" viewBox="0 0 36 36" fill="none" xmlns="http://www.w3.org/2000/svg">
<circle cx="18" cy="18" r="17.5" stroke="#555555"/>
<path d="M9.80238 18.7188V22H8.96431V14.7273H9.80238V17.3977H9.8734C10.0012 17.116 10.193 16.8923 10.4487 16.7266C10.7067 16.5585 11.05 16.4744 11.4785 16.4744C11.8502 16.4744 12.1757 16.549 12.4551 16.6982C12.7344 16.8449 12.9511 17.071 13.1049 17.3764C13.2612 17.6795 13.3393 18.0653 13.3393 18.5341V22H12.5012V18.5909C12.5012 18.1577 12.3888 17.8227 12.1639 17.5859C11.9413 17.3468 11.6324 17.2273 11.237 17.2273C10.9624 17.2273 10.7162 17.2853 10.4984 17.4013C10.283 17.5173 10.1125 17.6866 9.98704 17.9091C9.86393 18.1316 9.80238 18.4015 9.80238 18.7188ZM17.2447 16.5455V17.2557H14.418V16.5455H17.2447ZM15.2418 15.2386H16.0799V20.4375C16.0799 20.6742 16.1142 20.8518 16.1829 20.9702C16.2539 21.0862 16.3439 21.1643 16.4528 21.2045C16.564 21.2424 16.6812 21.2614 16.8043 21.2614C16.8967 21.2614 16.9724 21.2566 17.0316 21.2472C17.0908 21.2353 17.1381 21.2259 17.1737 21.2188L17.3441 21.9716C17.2873 21.9929 17.208 22.0142 17.1062 22.0355C17.0044 22.0592 16.8754 22.071 16.7191 22.071C16.4824 22.071 16.2504 22.0201 16.0231 21.9183C15.7982 21.8165 15.6112 21.6615 15.462 21.4531C15.3152 21.2448 15.2418 20.982 15.2418 20.6648V15.2386ZM18.5053 22V16.5455H19.315V17.3977H19.386C19.4996 17.1065 19.6831 16.8804 19.9364 16.7195C20.1897 16.5561 20.494 16.4744 20.8491 16.4744C21.2089 16.4744 21.5084 16.5561 21.7475 16.7195C21.989 16.8804 22.1772 17.1065 22.3121 17.3977H22.369C22.5086 17.116 22.7182 16.8923 22.9975 16.7266C23.2769 16.5585 23.6119 16.4744 24.0025 16.4744C24.4902 16.4744 24.8891 16.6271 25.1992 16.9325C25.5094 17.2356 25.6644 17.7079 25.6644 18.3494V22H24.8263V18.3494C24.8263 17.947 24.7163 17.6593 24.4961 17.4865C24.2759 17.3137 24.0167 17.2273 23.7184 17.2273C23.3349 17.2273 23.0378 17.3433 22.8271 17.5753C22.6164 17.8049 22.511 18.0961 22.511 18.4489V22H21.6587V18.2642C21.6587 17.9541 21.5581 17.7043 21.3569 17.5149C21.1557 17.3232 20.8964 17.2273 20.5792 17.2273C20.3614 17.2273 20.1578 17.2853 19.9684 17.4013C19.7814 17.5173 19.6299 17.6783 19.5138 17.8842C19.4002 18.0878 19.3434 18.3234 19.3434 18.5909V22H18.5053ZM28.0348 14.7273V22H27.1967V14.7273H28.0348Z" fill="#555555"/>
</svg>
