<svg width="36" height="36" viewBox="0 0 36 36" fill="none" xmlns="http://www.w3.org/2000/svg">
<circle cx="18" cy="18" r="17.5" stroke="#555555"/>
<path d="M16.7393 14.7273H17.62V19.5426C17.62 20.0398 17.5028 20.4837 17.2685 20.8743C17.0365 21.2625 16.7086 21.5691 16.2848 21.794C15.861 22.0166 15.3639 22.1278 14.7933 22.1278C14.2228 22.1278 13.7256 22.0166 13.3018 21.794C12.8781 21.5691 12.549 21.2625 12.3146 20.8743C12.0826 20.4837 11.9666 20.0398 11.9666 19.5426V14.7273H12.8473V19.4716C12.8473 19.8267 12.9254 20.1428 13.0817 20.4197C13.2379 20.6944 13.4605 20.911 13.7493 21.0696C14.0405 21.2259 14.3885 21.304 14.7933 21.304C15.1982 21.304 15.5462 21.2259 15.8374 21.0696C16.1286 20.911 16.3511 20.6944 16.505 20.4197C16.6612 20.1428 16.7393 19.8267 16.7393 19.4716V14.7273ZM19.8049 14.7273L21.6799 17.7528H21.7367L23.6117 14.7273H24.6486L22.3617 18.3636L24.6486 22H23.6117L21.7367 19.0312H21.6799L19.8049 22H18.7679L21.1117 18.3636L18.7679 14.7273H19.8049Z" fill="#555555"/>
</svg>
