<svg width="36" height="36" viewBox="0 0 36 36" fill="none" xmlns="http://www.w3.org/2000/svg">
<circle cx="18" cy="18" r="17.5" stroke="#555555"/>
<path d="M8.49778 16.5455V17.2557H5.55744V16.5455H8.49778ZM6.43812 22V15.7926C6.43812 15.4801 6.51151 15.2197 6.65829 15.0114C6.80507 14.803 6.99565 14.6468 7.23002 14.5426C7.4644 14.4384 7.7118 14.3864 7.97221 14.3864C8.17818 14.3864 8.34627 14.4029 8.47647 14.4361C8.60668 14.4692 8.70375 14.5 8.76767 14.5284L8.52619 15.2528C8.48358 15.2386 8.42439 15.2209 8.34863 15.1996C8.27524 15.1783 8.17818 15.1676 8.05744 15.1676C7.78045 15.1676 7.5804 15.2375 7.4573 15.3771C7.33656 15.5168 7.27619 15.7216 7.27619 15.9915V22H6.43812ZM9.67232 22V16.5455H10.5104V22H9.67232ZM10.0985 15.6364C9.9351 15.6364 9.79424 15.5807 9.67587 15.4695C9.55987 15.3582 9.50186 15.2244 9.50186 15.0682C9.50186 14.9119 9.55987 14.7782 9.67587 14.6669C9.79424 14.5556 9.9351 14.5 10.0985 14.5C10.2618 14.5 10.4015 14.5556 10.5175 14.6669C10.6359 14.7782 10.695 14.9119 10.695 15.0682C10.695 15.2244 10.6359 15.3582 10.5175 15.4695C10.4015 15.5807 10.2618 15.6364 10.0985 15.6364ZM14.2471 24.1591C13.8422 24.1591 13.4942 24.107 13.203 24.0028C12.9118 23.901 12.6692 23.7661 12.4751 23.598C12.2833 23.4323 12.1306 23.2547 12.017 23.0653L12.6846 22.5966C12.7603 22.696 12.8562 22.8097 12.9722 22.9375C13.0882 23.0677 13.2468 23.1802 13.4481 23.2749C13.6517 23.3719 13.918 23.4205 14.2471 23.4205C14.6874 23.4205 15.0508 23.3139 15.3373 23.1009C15.6237 22.8878 15.767 22.554 15.767 22.0994V20.9915H15.6959C15.6344 21.0909 15.5468 21.214 15.4331 21.3608C15.3219 21.5052 15.1609 21.6342 14.9502 21.7479C14.7419 21.8591 14.4601 21.9148 14.105 21.9148C13.6647 21.9148 13.2693 21.8106 12.9189 21.6023C12.5709 21.3939 12.2951 21.0909 12.0915 20.6932C11.8903 20.2955 11.7897 19.8125 11.7897 19.2443C11.7897 18.6856 11.8879 18.1991 12.0844 17.7848C12.2809 17.3681 12.5544 17.0462 12.9047 16.8189C13.2551 16.5893 13.6599 16.4744 14.1192 16.4744C14.4743 16.4744 14.7561 16.5336 14.9644 16.652C15.1751 16.768 15.3361 16.9006 15.4474 17.0497C15.561 17.1965 15.6486 17.3172 15.7101 17.4119H15.7954V16.5455H16.605V22.1562C16.605 22.625 16.4985 23.0062 16.2854 23.2997C16.0747 23.5956 15.7906 23.8123 15.4331 23.9496C15.078 24.0893 14.6827 24.1591 14.2471 24.1591ZM14.2187 21.1619C14.5548 21.1619 14.8389 21.085 15.0709 20.9311C15.3029 20.7772 15.4793 20.5559 15.6001 20.267C15.7208 19.9782 15.7812 19.6326 15.7812 19.2301C15.7812 18.8371 15.722 18.4903 15.6036 18.1896C15.4852 17.889 15.31 17.6534 15.078 17.483C14.846 17.3125 14.5596 17.2273 14.2187 17.2273C13.8635 17.2273 13.5676 17.3172 13.3309 17.4972C13.0965 17.6771 12.9201 17.9186 12.8018 18.2216C12.6858 18.5246 12.6278 18.8608 12.6278 19.2301C12.6278 19.6089 12.6869 19.9439 12.8053 20.2351C12.926 20.5239 13.1036 20.7512 13.338 20.9169C13.5747 21.0803 13.8683 21.1619 14.2187 21.1619ZM18.1391 22V16.5455H18.9488V17.3977H19.0198C19.1334 17.1065 19.3169 16.8804 19.5702 16.7195C19.8235 16.5561 20.1278 16.4744 20.4829 16.4744C20.8427 16.4744 21.1422 16.5561 21.3813 16.7195C21.6228 16.8804 21.811 17.1065 21.9459 17.3977H22.0028C22.1424 17.116 22.3519 16.8923 22.6313 16.7266C22.9107 16.5585 23.2457 16.4744 23.6363 16.4744C24.124 16.4744 24.5229 16.6271 24.833 16.9325C25.1431 17.2356 25.2982 17.7079 25.2982 18.3494V22H24.4601V18.3494C24.4601 17.947 24.3501 17.6593 24.1299 17.4865C23.9097 17.3137 23.6505 17.2273 23.3522 17.2273C22.9687 17.2273 22.6715 17.3433 22.4608 17.5753C22.2501 17.8049 22.1448 18.0961 22.1448 18.4489V22H21.2925V18.2642C21.2925 17.9541 21.1919 17.7043 20.9907 17.5149C20.7894 17.3232 20.5302 17.2273 20.213 17.2273C19.9952 17.2273 19.7916 17.2853 19.6022 17.4013C19.4152 17.5173 19.2636 17.6783 19.1476 17.8842C19.034 18.0878 18.9772 18.3234 18.9772 18.5909V22H18.1391ZM28.4356 22.1278C28.09 22.1278 27.7763 22.0627 27.4946 21.9325C27.2129 21.8 26.9891 21.6094 26.8234 21.3608C26.6577 21.1098 26.5748 20.8068 26.5748 20.4517C26.5748 20.1392 26.6364 19.8859 26.7595 19.6918C26.8826 19.4953 27.0471 19.3414 27.2531 19.2301C27.4591 19.1188 27.6863 19.036 27.9349 18.9815C28.1859 18.9247 28.438 18.8797 28.6913 18.8466C29.0228 18.804 29.2915 18.772 29.4974 18.7507C29.7058 18.727 29.8573 18.688 29.952 18.6335C30.049 18.5791 30.0976 18.4844 30.0976 18.3494V18.321C30.0976 17.9706 30.0017 17.6984 29.8099 17.5043C29.6205 17.3101 29.3329 17.2131 28.947 17.2131C28.5469 17.2131 28.2332 17.3007 28.0059 17.4759C27.7787 17.651 27.6189 17.8381 27.5265 18.0369L26.7311 17.7528C26.8731 17.4214 27.0625 17.1634 27.2993 16.9787C27.5384 16.7917 27.7988 16.6615 28.0805 16.5881C28.3646 16.5123 28.644 16.4744 28.9186 16.4744C29.0938 16.4744 29.295 16.4957 29.5223 16.5384C29.7519 16.5786 29.9733 16.6626 30.1863 16.7905C30.4018 16.9183 30.5805 17.1113 30.7226 17.3693C30.8646 17.6274 30.9356 17.973 30.9356 18.4062V22H30.0976V21.2614H30.055C29.9981 21.3797 29.9034 21.5064 29.7709 21.6413C29.6383 21.7763 29.4619 21.8911 29.2417 21.9858C29.0216 22.0805 28.7529 22.1278 28.4356 22.1278ZM28.5635 21.375C28.8949 21.375 29.1743 21.3099 29.4015 21.1797C29.6312 21.0495 29.804 20.8814 29.92 20.6754C30.0384 20.4695 30.0976 20.2528 30.0976 20.0256V19.2585C30.0621 19.3011 29.9839 19.3402 29.8632 19.3757C29.7448 19.4089 29.6075 19.4384 29.4513 19.4645C29.2974 19.4882 29.147 19.5095 29.0003 19.5284C28.8559 19.545 28.7387 19.5592 28.6487 19.571C28.4309 19.5994 28.2273 19.6456 28.0379 19.7095C27.8509 19.7711 27.6994 19.8646 27.5834 19.9901C27.4697 20.1132 27.4129 20.2812 27.4129 20.4943C27.4129 20.7855 27.5206 21.0057 27.7361 21.1548C27.9539 21.3016 28.2297 21.375 28.5635 21.375Z" fill="#555555"/>
</svg>
