<svg width="36" height="36" viewBox="0 0 36 36" fill="none" xmlns="http://www.w3.org/2000/svg">
<circle cx="18" cy="18" r="17.5" stroke="#555555"/>
<path d="M13.4654 22.1136C12.954 22.1136 12.5137 21.9929 12.1444 21.7514C11.775 21.5099 11.4909 21.1773 11.2921 20.7536C11.0932 20.3298 10.9938 19.8456 10.9938 19.3011C10.9938 18.7472 11.0956 18.2583 11.2992 17.8345C11.5051 17.4084 11.7916 17.0758 12.1586 16.8366C12.5279 16.5952 12.9587 16.4744 13.4512 16.4744C13.8347 16.4744 14.1803 16.5455 14.4881 16.6875C14.7959 16.8295 15.048 17.0284 15.2445 17.2841C15.441 17.5398 15.5629 17.8381 15.6103 18.179H14.7722C14.7083 17.9304 14.5662 17.7102 14.3461 17.5185C14.1283 17.3243 13.8347 17.2273 13.4654 17.2273C13.1387 17.2273 12.8522 17.3125 12.606 17.483C12.3622 17.651 12.1716 17.889 12.0343 18.1967C11.8993 18.5021 11.8319 18.8608 11.8319 19.2727C11.8319 19.6941 11.8981 20.0611 12.0307 20.3736C12.1657 20.6861 12.3551 20.9287 12.5989 21.1016C12.8451 21.2744 13.1339 21.3608 13.4654 21.3608C13.6832 21.3608 13.8809 21.3229 14.0584 21.2472C14.236 21.1714 14.3863 21.0625 14.5094 20.9205C14.6325 20.7784 14.7201 20.608 14.7722 20.4091H15.6103C15.5629 20.7311 15.4457 21.0211 15.2587 21.2791C15.074 21.5348 14.829 21.7384 14.5236 21.8899C14.2206 22.0391 13.8678 22.1136 13.4654 22.1136ZM20.699 17.767L19.9462 17.9801C19.8989 17.8546 19.829 17.7327 19.7367 17.6143C19.6467 17.4936 19.5236 17.3942 19.3674 17.3161C19.2111 17.2379 19.0111 17.1989 18.7672 17.1989C18.4334 17.1989 18.1552 17.2758 17.9327 17.4297C17.7125 17.5812 17.6025 17.7741 17.6025 18.0085C17.6025 18.2169 17.6782 18.3814 17.8297 18.5021C17.9812 18.6229 18.218 18.7235 18.54 18.804L19.3496 19.0028C19.8373 19.1212 20.2007 19.3023 20.4398 19.5462C20.6789 19.7876 20.7985 20.099 20.7985 20.4801C20.7985 20.7926 20.7085 21.072 20.5286 21.3182C20.351 21.5644 20.1025 21.7585 19.7828 21.9006C19.4632 22.0426 19.0916 22.1136 18.6678 22.1136C18.1114 22.1136 17.651 21.9929 17.2864 21.7514C16.9218 21.5099 16.691 21.1572 16.5939 20.6932L17.3894 20.4943C17.4651 20.7879 17.6084 21.008 17.8191 21.1548C18.0321 21.3016 18.3103 21.375 18.6536 21.375C19.0442 21.375 19.3543 21.2921 19.584 21.1264C19.816 20.9583 19.932 20.7571 19.932 20.5227C19.932 20.3333 19.8657 20.1747 19.7331 20.0469C19.6006 19.9167 19.397 19.8196 19.1223 19.7557L18.2132 19.5426C17.7137 19.4242 17.3468 19.2408 17.1124 18.9922C16.8804 18.7412 16.7644 18.4276 16.7644 18.0511C16.7644 17.7434 16.8508 17.4711 17.0236 17.2344C17.1988 16.9976 17.4367 16.8118 17.7374 16.6768C18.0404 16.5419 18.3837 16.4744 18.7672 16.4744C19.307 16.4744 19.7308 16.5928 20.0385 16.8295C20.3487 17.0663 20.5688 17.3788 20.699 17.767ZM25.9237 17.767L25.1708 17.9801C25.1235 17.8546 25.0536 17.7327 24.9613 17.6143C24.8713 17.4936 24.7482 17.3942 24.592 17.3161C24.4357 17.2379 24.2357 17.1989 23.9918 17.1989C23.658 17.1989 23.3799 17.2758 23.1573 17.4297C22.9371 17.5812 22.8271 17.7741 22.8271 18.0085C22.8271 18.2169 22.9028 18.3814 23.0543 18.5021C23.2058 18.6229 23.4426 18.7235 23.7646 18.804L24.5742 19.0028C25.0619 19.1212 25.4253 19.3023 25.6644 19.5462C25.9035 19.7876 26.0231 20.099 26.0231 20.4801C26.0231 20.7926 25.9331 21.072 25.7532 21.3182C25.5756 21.5644 25.3271 21.7585 25.0075 21.9006C24.6879 22.0426 24.3162 22.1136 23.8924 22.1136C23.3361 22.1136 22.8756 21.9929 22.511 21.7514C22.1464 21.5099 21.9156 21.1572 21.8185 20.6932L22.614 20.4943C22.6897 20.7879 22.833 21.008 23.0437 21.1548C23.2567 21.3016 23.5349 21.375 23.8782 21.375C24.2688 21.375 24.579 21.2921 24.8086 21.1264C25.0406 20.9583 25.1566 20.7571 25.1566 20.5227C25.1566 20.3333 25.0903 20.1747 24.9577 20.0469C24.8252 19.9167 24.6216 19.8196 24.3469 19.7557L23.4379 19.5426C22.9383 19.4242 22.5714 19.2408 22.337 18.9922C22.105 18.7412 21.989 18.4276 21.989 18.0511C21.989 17.7434 22.0754 17.4711 22.2482 17.2344C22.4234 16.9976 22.6613 16.8118 22.962 16.6768C23.265 16.5419 23.6083 16.4744 23.9918 16.4744C24.5316 16.4744 24.9554 16.5928 25.2631 16.8295C25.5733 17.0663 25.7934 17.3788 25.9237 17.767Z" fill="#555555"/>
</svg>
