<svg width="36" height="36" viewBox="0 0 36 36" fill="none" xmlns="http://www.w3.org/2000/svg">
<circle cx="18" cy="18" r="17.5" stroke="#555555"/>
<path d="M19.1241 14.7273H20.0048V19.5426C20.0048 20.0398 19.8876 20.4837 19.6532 20.8743C19.4212 21.2625 19.0933 21.5691 18.6696 21.794C18.2458 22.0166 17.7486 22.1278 17.1781 22.1278C16.6075 22.1278 16.1104 22.0166 15.6866 21.794C15.2628 21.5691 14.9338 21.2625 14.6994 20.8743C14.4674 20.4837 14.3514 20.0398 14.3514 19.5426V14.7273H15.2321V19.4716C15.2321 19.8267 15.3102 20.1428 15.4664 20.4197C15.6227 20.6944 15.8452 20.911 16.1341 21.0696C16.4252 21.2259 16.7733 21.304 17.1781 21.304C17.5829 21.304 17.9309 21.2259 18.2221 21.0696C18.5133 20.911 18.7359 20.6944 18.8897 20.4197C19.046 20.1428 19.1241 19.8267 19.1241 19.4716V14.7273ZM22.6442 14.7273V22H21.7635V14.7273H22.6442Z" fill="#555555"/>
</svg>
