<svg width="36" height="36" viewBox="0 0 36 36" fill="none" xmlns="http://www.w3.org/2000/svg">
<circle cx="18" cy="18" r="17.5" stroke="#555555"/>
<path d="M14.9682 16.5455H15.8063V22.3977C15.8063 22.7339 15.7483 23.0251 15.6323 23.2713C15.5186 23.5175 15.3458 23.7081 15.1138 23.843C14.8842 23.978 14.5942 24.0455 14.2438 24.0455C14.2154 24.0455 14.187 24.0455 14.1586 24.0455C14.1301 24.0455 14.1017 24.0455 14.0733 24.0455V23.2642C14.1017 23.2642 14.1278 23.2642 14.1515 23.2642C14.1751 23.2642 14.2012 23.2642 14.2296 23.2642C14.4853 23.2642 14.6723 23.1884 14.7907 23.0369C14.909 22.8878 14.9682 22.6747 14.9682 22.3977V16.5455ZM15.3801 15.6364C15.2168 15.6364 15.0759 15.5807 14.9576 15.4695C14.8416 15.3582 14.7836 15.2244 14.7836 15.0682C14.7836 14.9119 14.8416 14.7782 14.9576 14.6669C15.0759 14.5556 15.2168 14.5 15.3801 14.5C15.5435 14.5 15.6832 14.5556 15.7992 14.6669C15.9176 14.7782 15.9767 14.9119 15.9767 15.0682C15.9767 15.2244 15.9176 15.3582 15.7992 15.4695C15.6832 15.5807 15.5435 15.6364 15.3801 15.6364ZM21.2049 17.767L20.4521 17.9801C20.4047 17.8546 20.3349 17.7327 20.2425 17.6143C20.1526 17.4936 20.0295 17.3942 19.8732 17.3161C19.717 17.2379 19.5169 17.1989 19.2731 17.1989C18.9393 17.1989 18.6611 17.2758 18.4386 17.4297C18.2184 17.5812 18.1083 17.7741 18.1083 18.0085C18.1083 18.2169 18.1841 18.3814 18.3356 18.5021C18.4871 18.6229 18.7238 18.7235 19.0458 18.804L19.8555 19.0028C20.3432 19.1212 20.7066 19.3023 20.9457 19.5462C21.1848 19.7876 21.3043 20.099 21.3043 20.4801C21.3043 20.7926 21.2144 21.072 21.0344 21.3182C20.8569 21.5644 20.6083 21.7585 20.2887 21.9006C19.9691 22.0426 19.5974 22.1136 19.1737 22.1136C18.6173 22.1136 18.1568 21.9929 17.7923 21.7514C17.4277 21.5099 17.1969 21.1572 17.0998 20.6932L17.8952 20.4943C17.971 20.7879 18.1142 21.008 18.3249 21.1548C18.538 21.3016 18.8162 21.375 19.1594 21.375C19.5501 21.375 19.8602 21.2921 20.0898 21.1264C20.3219 20.9583 20.4379 20.7571 20.4379 20.5227C20.4379 20.3333 20.3716 20.1747 20.239 20.0469C20.1064 19.9167 19.9028 19.8196 19.6282 19.7557L18.7191 19.5426C18.2196 19.4242 17.8526 19.2408 17.6183 18.9922C17.3862 18.7412 17.2702 18.4276 17.2702 18.0511C17.2702 17.7434 17.3567 17.4711 17.5295 17.2344C17.7047 16.9976 17.9426 16.8118 18.2433 16.6768C18.5463 16.5419 18.8896 16.4744 19.2731 16.4744C19.8129 16.4744 20.2366 16.5928 20.5444 16.8295C20.8545 17.0663 21.0747 17.3788 21.2049 17.767Z" fill="#555555"/>
</svg>
