<svg width="679" height="597" viewBox="0 0 679 597" fill="none" xmlns="http://www.w3.org/2000/svg">
<path d="M18.7559 23.7061V479.74" stroke="#555555" stroke-width="4" stroke-linecap="round" stroke-linejoin="round"/>
<path d="M287.693 27.5139V483.55" stroke="#555555" stroke-width="4" stroke-linecap="round" stroke-linejoin="round"/>
<path d="M2 2H308" stroke="#555555" stroke-width="4" stroke-linecap="round" stroke-linejoin="round"/>
<path d="M16.7539 27.5039H286.754" stroke="#555555" stroke-width="4" stroke-linecap="round" stroke-linejoin="round"/>
<path d="M16.7539 481.5H287.754" stroke="#555555" stroke-width="4" stroke-linecap="round" stroke-linejoin="round"/>
<path d="M5.03906 550.79H304.039" stroke="#555555" stroke-width="4" stroke-linecap="round" stroke-linejoin="round"/>
<path d="M2.75391 5.50391V552.5" stroke="#555555" stroke-width="4" stroke-linecap="round" stroke-linejoin="round"/>
<path d="M307.986 2.23608V549.24" stroke="#555555" stroke-width="4" stroke-linecap="round" stroke-linejoin="round"/>
<path d="M167.361 525.66L168.248 522.17L168.465 518.58L168.004 515.01L166.882 511.58L164.43 507.46L161.958 504.84L159.039 502.73L155.776 501.21L152.286 500.32L148.691 500.1L145.119 500.57L141.696 501.69L138.545 503.43L134.955 506.61L132.846 509.53L131.32 512.79L130.434 516.28L130.217 519.88L130.98 524.61L132.314 527.96L134.252 531L136.724 533.61L139.643 535.72L142.906 537.25L146.396 538.14L149.991 538.35L153.563 537.89L156.986 536.77L160.137 535.03L162.906 532.72L165.836 528.93L167.361 525.66Z" stroke="#555555" stroke-width="4" stroke-linecap="round" stroke-linejoin="round"/>
<path d="M86.3906 146.089V286.09" stroke="#555555" stroke-width="6" stroke-linecap="round" stroke-linejoin="round"/>
<path d="M238.088 148.692V288.69" stroke="#555555" stroke-width="6" stroke-linecap="round" stroke-linejoin="round"/>
<path d="M89 147H237" stroke="#555555" stroke-width="6" stroke-linecap="round" stroke-linejoin="round"/>
<path d="M91 292H238" stroke="#555555" stroke-width="6" stroke-linecap="round" stroke-linejoin="round"/>
<path d="M98 158V188" stroke="#555555" stroke-width="6" stroke-linecap="round" stroke-linejoin="round"/>
<path d="M102 159H127" stroke="#555555" stroke-width="6" stroke-linecap="round" stroke-linejoin="round"/>
<path d="M128 160V190" stroke="#555555" stroke-width="6" stroke-linecap="round" stroke-linejoin="round"/>
<path d="M97 190H132" stroke="#555555" stroke-width="6" stroke-linecap="round" stroke-linejoin="round"/>
<path d="M196.857 250.36V280.36" stroke="#555555" stroke-width="6" stroke-linecap="round" stroke-linejoin="round"/>
<path d="M200.857 251.36H225.857" stroke="#555555" stroke-width="6" stroke-linecap="round" stroke-linejoin="round"/>
<path d="M226.857 252.36V282.36" stroke="#555555" stroke-width="6" stroke-linecap="round" stroke-linejoin="round"/>
<path d="M195.857 282.36H230.857" stroke="#555555" stroke-width="6" stroke-linecap="round" stroke-linejoin="round"/>
<path d="M140 159V285" stroke="#555555" stroke-width="4" stroke-linecap="round" stroke-linejoin="round"/>
<path d="M104 242H225" stroke="#555555" stroke-width="4" stroke-linecap="round" stroke-linejoin="round"/>
<path d="M151 162V230" stroke="#555555" stroke-width="4" stroke-linecap="round" stroke-linejoin="round"/>
<path d="M150 162H222" stroke="#555555" stroke-width="4" stroke-linecap="round" stroke-linejoin="round"/>
<path d="M225 163V229" stroke="#555555" stroke-width="4" stroke-linecap="round" stroke-linejoin="round"/>
<path d="M148 230H222" stroke="#555555" stroke-width="4" stroke-linecap="round" stroke-linejoin="round"/>
<path d="M158.951 168.225H177.951" stroke="#555555" stroke-width="4" stroke-linecap="round" stroke-linejoin="round"/>
<path d="M177.951 170.225V192.22" stroke="#555555" stroke-width="4" stroke-linecap="round" stroke-linejoin="round"/>
<path d="M157.951 189.22H176.951" stroke="#555555" stroke-width="4" stroke-linecap="round" stroke-linejoin="round"/>
<path d="M157.379 169.26V187.26" stroke="#555555" stroke-width="4" stroke-linecap="round" stroke-linejoin="round"/>
<path d="M155.018 248.02H174.018" stroke="#555555" stroke-width="4" stroke-linecap="round" stroke-linejoin="round"/>
<path d="M174.018 250.02V272.02" stroke="#555555" stroke-width="4" stroke-linecap="round" stroke-linejoin="round"/>
<path d="M154.018 269.02H173.018" stroke="#555555" stroke-width="4" stroke-linecap="round" stroke-linejoin="round"/>
<path d="M153.447 249.05V267.05" stroke="#555555" stroke-width="4" stroke-linecap="round" stroke-linejoin="round"/>
<path d="M108.32 249.75H127.32" stroke="#555555" stroke-width="4" stroke-linecap="round" stroke-linejoin="round"/>
<path d="M127.32 251.75V273.75" stroke="#555555" stroke-width="4" stroke-linecap="round" stroke-linejoin="round"/>
<path d="M107.32 270.75H126.32" stroke="#555555" stroke-width="4" stroke-linecap="round" stroke-linejoin="round"/>
<path d="M106.75 250.79V268.79" stroke="#555555" stroke-width="4" stroke-linecap="round" stroke-linejoin="round"/>
<path d="M189 170V280" stroke="#555555" stroke-width="4" stroke-linecap="round" stroke-linejoin="round"/>
<path d="M203.137 167.832L202.891 169.704L203.253 174.053L205.312 192.05L205.524 207.73L206.643 223.2L206.922 223.26L206.54 222.75" stroke="#555555" stroke-width="4" stroke-linecap="round" stroke-linejoin="round"/>
<path d="M217.573 172.496L217.918 172.715L218.384 171.007L218.718 171.214L218.794 174.996L218.216 180.138L218.286 184.259L216.888 197.44L216.248 211.03L216.383 215.31L217.8 225.55" stroke="#555555" stroke-width="4" stroke-linecap="round" stroke-linejoin="round"/>
<path d="M161 212H223" stroke="#555555" stroke-width="4" stroke-linecap="round" stroke-linejoin="round"/>
<path d="M200 182H225" stroke="#555555" stroke-width="4" stroke-linecap="round" stroke-linejoin="round"/>
<path d="M100 208H155" stroke="#555555" stroke-width="4" stroke-linecap="round" stroke-linejoin="round"/>
<path d="M117.871 229.37L117.886 228.06L117.022 226.66L115.962 226.78L116.291 227.06L115.551 227.35L115.696 227.54L116.165 227.38L115.931 227.31L124.392 226.98L136.987 225.04L137.424 225.27L136.965 225.41L143.257 225.03L143.598 225.07L143.051 225.15L143.345 225.36L142.919 225.16L143.43 225.09L142.909 225.17L143.302 225.16L142.932 225.35L143.212 225.23L143.203 225.48L143.255 225.25L142.934 225.26L143.377 225.25L142.991 225.26L143.347 225.24L143.07 225.25L143.256 221.97" stroke="#555555" stroke-width="4" stroke-linecap="round" stroke-linejoin="round"/>
<path d="M99.2936 315.43L93.9736 317.42L92.5816 319.24L89.8526 326.94L88.6816 335.22L89.0076 337.74L90.0706 339.7L91.2076 340.84L92.7546 341.47L95.6856 341.51L98.6406 340.95L100.048 340.26L101.047 339.47L103.939 335.82L105.886 332.46L108.365 322.73L108.279 321.37L107.269 317.98L103.681 314.11L100.48 313.21L98.3816 313.96L96.4426 316.7L95.4616 320.59L95.5386 321.85L99.7706 334.85L101.31 341.12L103.331 344.57L105.64 347.08L107.325 349.56L109.347 351.11L109.775 351.79L109.148 351.87L109.593 351.74L108.537 350.56L108.489 349.89L108.11 349.79" stroke="#555555" stroke-width="2" stroke-linecap="round" stroke-linejoin="round"/>
<path d="M116.99 324.54L118.597 324.01L118.121 324.29L117.802 325.16L118.832 329.04L119.304 342.91L119.705 344.6L120.094 344.17L119.726 343.3" stroke="#555555" stroke-width="2" stroke-linecap="round" stroke-linejoin="round"/>
<path d="M117.933 317.4L117.699 316.96L119.482 315L123.184 313.58L126.172 313.33L128.256 313.89L129.68 314.95L130.67 317.62L128.704 324.94L125.466 330.27L122.678 333.16L122.017 333.22L121.86 332.87L122.382 329.43L124.18 326.51L127.926 326.52L130.822 328.66L131.46 331.56L133.417 335.01L134.409 337.63L134.668 345.4L135.138 346.32L135.841 346.41" stroke="#555555" stroke-width="2" stroke-linecap="round" stroke-linejoin="round"/>
<path d="M165.3 324.71L165.976 324.88L163.275 327.54L161.761 330.31L160.169 335.65L160.02 338.87L160.998 341.2L162.265 342.41L163.538 343.27L166.539 344.29L169.504 344.47L171.704 343.85L174.509 341.66L174.887 340.61L176.573 338.42L178.469 334.4L178.96 332.44L179.623 331.21L179.448 330.06L178.799 330.83L178.58 332.1L177.488 333.76L176.673 336.49L176.548 338.27L177.175 340.42L177.801 341.34L179.607 341.89L182.88 341.52L185.534 340.05L186.995 338.65L189.143 334.76L189.292 332.49L187.934 331.56L186.772 329.5L183.794 327.18L182.549 326.61L181.528 327.38" stroke="#555555" stroke-width="2" stroke-linecap="round" stroke-linejoin="round"/>
<path d="M201.555 331.95L200.583 331.68L199.597 332.09L197.501 335.47L196.485 337.87L195.496 343.54L195.879 345.17L196.947 345.96L198.309 345.8L199.704 345.04L204.121 340.82L205.484 337.69L206.585 333.45L207.007 327.32L206.736 325.93L204.409 321.95L203.094 316.7" stroke="#555555" stroke-width="2" stroke-linecap="round" stroke-linejoin="round"/>
<path d="M215.614 340.07L214.379 341L217.046 339.4L218.985 337.38L220.123 334.16L220.487 330.99L220.054 329.92L218.313 328.99L216.868 329.07L213.899 330.02L212.146 331.32L209.189 336.83L209.055 340.14L210.366 343.36L212.014 345.07L214.837 346.7L218.021 347.13L221.331 345.79" stroke="#555555" stroke-width="2" stroke-linecap="round" stroke-linejoin="round"/>
<path d="M379.43 246.85H610.43" stroke="#555555" stroke-width="2" stroke-linecap="round" stroke-linejoin="round"/>
<path d="M381.449 259.79L396.449 271.79" stroke="#555555" stroke-width="2" stroke-linecap="round" stroke-linejoin="round"/>
<path d="M396.449 271.79L410.449 259.79" stroke="#555555" stroke-width="2" stroke-linecap="round" stroke-linejoin="round"/>
<path d="M376.965 279.51L375.531 279.79L375.486 279.58L376.049 279.59L375.643 279.7L375.515 280.17L375.293 279.89L375.821 279.93L375.423 279.62L374.92 279.97L375.415 280.06L375.123 280.58L375.352 283.32L375.137 286.34L375.624 288.42L375.252 290.47L375.467 291.51L375.189 291.98L375.308 295.24L376.005 295.54L375.604 296.04L376.067 296.39L375.51 296.47L375.892 296.64L375.671 296.67L375.839 296.32L375.443 296.12L375.611 295.81L375.349 296.01L375.899 296.03L375.346 295.97L375.739 296.11L375.455 296.09L375.701 296.25L375.248 296.4L375.613 296.48L375.346 296.58L375.942 296.44L375.484 296.55L375.76 296.47L375.68 296.29L375.606 296.55L375.413 296.47H375.932H375.382L375.857 296.32H375.528L375.891 296.25L375.692 295.88L375.617 296.31L375.274 296.07" stroke="#555555" stroke-width="1.75" stroke-linecap="round" stroke-linejoin="round"/>
<path d="M376.723 295.6H386.777" stroke="#555555" stroke-width="1.75" stroke-linecap="round" stroke-linejoin="round"/>
<path d="M391.82 279.67L390.386 279.96L390.341 279.74L390.904 279.76L390.498 279.87L390.37 280.34L390.148 280.05L390.676 280.1L390.277 279.78L389.775 280.14L390.27 280.22L389.978 280.75L390.207 283.48L389.992 286.51L390.478 288.58L390.107 290.63L390.322 291.67L390.044 292.15L390.163 295.41L390.86 295.71L390.459 296.21L390.922 296.56L390.364 296.63L390.747 296.81L390.526 296.83L390.693 296.48L390.298 296.29L390.465 295.97L390.203 296.18L390.754 296.19L390.2 296.14L390.593 296.28L390.31 296.25L390.556 296.42L390.102 296.57L390.467 296.65L390.201 296.74L390.797 296.6L390.339 296.72L390.615 296.63L390.535 296.45L390.461 296.71L390.268 296.63H390.787H390.237L390.712 296.49H390.383L390.746 296.42L390.547 296.04L390.472 296.48L390.129 296.24" stroke="#555555" stroke-width="1.75" stroke-linecap="round" stroke-linejoin="round"/>
<path d="M390.457 280.19H400.511" stroke="#555555" stroke-width="1.75" stroke-linecap="round" stroke-linejoin="round"/>
<path d="M391.58 295.77H401.634" stroke="#555555" stroke-width="1.75" stroke-linecap="round" stroke-linejoin="round"/>
<path d="M390.982 287.18H397.194" stroke="#555555" stroke-width="1.75" stroke-linecap="round" stroke-linejoin="round"/>
<path d="M419.109 279.77H434.19" stroke="#555555" stroke-width="1.75" stroke-linecap="round" stroke-linejoin="round"/>
<path d="M427.486 279.08V294.16" stroke="#555555" stroke-width="1.75" stroke-linecap="round" stroke-linejoin="round"/>
<path d="M448.947 280.46V296.11" stroke="#555555" stroke-width="1.75" stroke-linecap="round" stroke-linejoin="round"/>
<path d="M438.879 280.12V294.39" stroke="#555555" stroke-width="1.75" stroke-linecap="round" stroke-linejoin="round"/>
<path d="M441.408 293.39H447.273" stroke="#555555" stroke-width="1.75" stroke-linecap="round" stroke-linejoin="round"/>
<path d="M414.285 279.9L414.328 279.68L413.808 280.13L411.324 279.97L410.533 280.27L410.425 280.56L408.16 280.73L407.381 281.19L406.75 282.04L406.643 283.02L405.04 284.51L404.579 285.33L404.533 286.57L403.729 289.05L404.283 289.57L404.348 291.24L405.062 292.42L404.878 292.56L405.368 292.77L405.59 293.61L406.644 294.16L406.351 294.4L407.381 294.99L408.366 295.01L411.376 295.96L412.742 295.73L413.437 295.3L415.721 295.11L416.425 294.59L416.3 294.82" stroke="#555555" stroke-width="1.75" stroke-linecap="round" stroke-linejoin="round"/>
<path d="M456.758 282.37L454.23 282.52L455.236 282.38L454.983 282.39L455.176 282.57L454.831 282.8L455.14 283.18L454.808 283.44L455.426 284.38L455.63 285.44L455.436 286.1L455.78 289.45L455.172 291.31L455.11 293.94L455.611 294.43L456.179 293.14" stroke="#555555" stroke-width="1.75" stroke-linecap="round" stroke-linejoin="round"/>
<path d="M457.014 281.05L456.805 280.77L456.922 279.21L456.74 278.95L457.991 277.36L458.685 276.88L459.95 276.53L461.445 276.87L462.819 278.21L463.216 279.91L462.192 282.63L459.531 285.68L458.386 286L458.845 285.76L459.732 286.1L461.464 287.75L462.616 289.98L463.618 291.17L463.792 293.17L464.385 294.64L464.616 294.41L464.44 294.37" stroke="#555555" stroke-width="1.75" stroke-linecap="round" stroke-linejoin="round"/>
<path d="M469.667 278.61L468.233 278.89L468.187 278.68L468.75 278.69L468.344 278.81L468.216 279.27L467.994 278.99L468.523 279.03L468.124 278.72L467.621 279.07L468.116 279.16L467.824 279.68L468.054 282.42L467.838 285.44L468.325 287.52L467.954 289.57L468.168 290.61L467.891 291.08L468.009 294.34L468.706 294.64L468.306 295.14L468.768 295.49L468.211 295.57L468.594 295.74L468.372 295.77L468.54 295.42L468.144 295.22L468.312 294.91L468.05 295.11L468.6 295.13L468.047 295.07L468.44 295.21L468.156 295.19L468.402 295.35L467.949 295.5L468.314 295.58L468.047 295.68L468.644 295.54L468.186 295.66L468.461 295.57L468.381 295.39L468.307 295.65L468.115 295.57H468.634H468.083L468.559 295.42H468.229L468.592 295.35L468.393 294.98L468.318 295.42L467.975 295.17" stroke="#555555" stroke-width="1.75" stroke-linecap="round" stroke-linejoin="round"/>
<path d="M468.303 279.13H478.357" stroke="#555555" stroke-width="1.75" stroke-linecap="round" stroke-linejoin="round"/>
<path d="M469.426 294.7H479.48" stroke="#555555" stroke-width="1.75" stroke-linecap="round" stroke-linejoin="round"/>
<path d="M468.826 286.12H475.039" stroke="#555555" stroke-width="1.75" stroke-linecap="round" stroke-linejoin="round"/>
<path d="M375.709 278.9L374.276 279.18L374.23 278.97L374.793 278.98L374.387 279.09L374.259 279.56L374.037 279.28L374.566 279.32L374.167 279.01L373.664 279.36L374.159 279.45L373.867 279.97L374.097 282.71L373.881 285.73L374.368 287.81L373.997 289.86L374.211 290.9L373.934 291.37L374.052 294.63L374.749 294.93L374.349 295.43L374.811 295.78L374.254 295.86L374.637 296.03L374.415 296.06L374.583 295.71L374.187 295.51L374.355 295.2L374.093 295.4L374.643 295.42L374.09 295.36L374.483 295.5L374.199 295.48L374.445 295.64L373.992 295.79L374.357 295.87L374.09 295.96L374.686 295.83L374.228 295.94L374.504 295.86L374.424 295.67L374.35 295.93L374.157 295.86H374.677H374.126L374.602 295.71H374.272L374.635 295.64L374.436 295.27L374.361 295.7L374.018 295.46" stroke="#555555" stroke-width="1.75" stroke-linecap="round" stroke-linejoin="round"/>
<path d="M375.469 294.99H385.523" stroke="#555555" stroke-width="1.75" stroke-linecap="round" stroke-linejoin="round"/>
<path d="M390.566 279.06L389.132 279.35L389.087 279.13L389.65 279.14L389.244 279.26L389.116 279.73L388.894 279.44L389.422 279.49L389.024 279.17L388.521 279.53L389.016 279.61L388.724 280.13L388.953 282.87L388.738 285.89L389.224 287.97L388.853 290.02L389.068 291.06L388.79 291.54L388.909 294.8L389.606 295.1L389.205 295.6L389.668 295.95L389.11 296.02L389.493 296.19L389.272 296.22L389.44 295.87L389.044 295.68L389.212 295.36L388.949 295.57L389.5 295.58L388.947 295.53L389.339 295.67L389.056 295.64L389.302 295.81L388.849 295.95L389.214 296.03L388.947 296.13L389.543 295.99L389.085 296.11L389.361 296.02L389.281 295.84L389.207 296.1L389.014 296.02H389.533H388.983L389.458 295.88L389.129 295.87L389.492 295.81L389.293 295.43L389.218 295.87L388.875 295.63" stroke="#555555" stroke-width="1.75" stroke-linecap="round" stroke-linejoin="round"/>
<path d="M389.203 279.58H399.257" stroke="#555555" stroke-width="1.75" stroke-linecap="round" stroke-linejoin="round"/>
<path d="M390.324 295.16H400.378" stroke="#555555" stroke-width="1.75" stroke-linecap="round" stroke-linejoin="round"/>
<path d="M389.727 286.57H395.94" stroke="#555555" stroke-width="1.75" stroke-linecap="round" stroke-linejoin="round"/>
<path d="M417.854 279.16H432.935" stroke="#555555" stroke-width="1.75" stroke-linecap="round" stroke-linejoin="round"/>
<path d="M426.232 278.47V293.55" stroke="#555555" stroke-width="1.75" stroke-linecap="round" stroke-linejoin="round"/>
<path d="M447.693 279.85V295.5" stroke="#555555" stroke-width="1.75" stroke-linecap="round" stroke-linejoin="round"/>
<path d="M437.625 279.51V293.78" stroke="#555555" stroke-width="1.75" stroke-linecap="round" stroke-linejoin="round"/>
<path d="M440.152 292.78H446.017" stroke="#555555" stroke-width="1.75" stroke-linecap="round" stroke-linejoin="round"/>
<path d="M413.029 279.29L413.072 279.06L412.552 279.52L410.068 279.36L409.277 279.66L409.169 279.94L406.905 280.12L406.125 280.58L405.494 281.43L405.387 282.41L403.784 283.9L403.324 284.72L403.277 285.96L402.473 288.44L403.028 288.96L403.093 290.63L403.806 291.81L403.622 291.95L404.112 292.15L404.334 293L405.388 293.55L405.096 293.79L406.125 294.38L407.11 294.4L410.121 295.35L411.486 295.12L412.182 294.69L414.465 294.5L415.169 293.98L415.044 294.21" stroke="#555555" stroke-width="1.75" stroke-linecap="round" stroke-linejoin="round"/>
<path d="M455.504 281.76L452.977 281.91L453.982 281.77L453.729 281.78L453.922 281.96L453.578 282.19L453.886 282.56L453.555 282.83L454.172 283.77L454.376 284.83L454.182 285.49L454.526 288.84L453.918 290.7L453.856 293.32L454.357 293.82L454.925 292.53" stroke="#555555" stroke-width="1.75" stroke-linecap="round" stroke-linejoin="round"/>
<path d="M455.76 280.44L455.551 280.16L455.668 278.6L455.486 278.33L456.737 276.75L457.432 276.27L458.696 275.92L460.191 276.26L461.566 277.6L461.962 279.3L460.939 282.01L458.277 285.07L457.132 285.39L457.591 285.15L458.478 285.49L460.21 287.14L461.362 289.36L462.364 290.56L462.538 292.56L463.131 294.03L463.362 293.8L463.186 293.76" stroke="#555555" stroke-width="1.75" stroke-linecap="round" stroke-linejoin="round"/>
<path d="M468.411 278L466.977 278.28L466.931 278.07L467.494 278.08L467.088 278.19L466.961 278.66L466.738 278.38L467.267 278.42L466.868 278.11L466.365 278.46L466.86 278.55L466.569 279.07L466.798 281.81L466.582 284.83L467.069 286.91L466.698 288.96L466.912 290L466.635 290.47L466.753 293.73L467.45 294.03L467.05 294.53L467.513 294.88L466.955 294.96L467.338 295.13L467.116 295.16L467.284 294.81L466.888 294.61L467.056 294.3L466.794 294.5L467.345 294.52L466.791 294.46L467.184 294.6L466.9 294.58L467.147 294.74L466.693 294.89L467.058 294.97L466.791 295.07L467.388 294.93L466.93 295.04L467.205 294.96L467.125 294.78L467.051 295.04L466.859 294.96H467.378H466.827L467.303 294.81H466.973L467.336 294.74L467.137 294.37L467.062 294.8L466.719 294.56" stroke="#555555" stroke-width="1.75" stroke-linecap="round" stroke-linejoin="round"/>
<path d="M467.049 278.52H477.103" stroke="#555555" stroke-width="1.75" stroke-linecap="round" stroke-linejoin="round"/>
<path d="M468.172 294.09H478.226" stroke="#555555" stroke-width="1.75" stroke-linecap="round" stroke-linejoin="round"/>
<path d="M467.572 285.51H473.785" stroke="#555555" stroke-width="1.75" stroke-linecap="round" stroke-linejoin="round"/>
<path d="M549.439 298.45H611.277" stroke="#555555" stroke-width="1.5" stroke-linecap="round" stroke-linejoin="round"/>
<path d="M547.029 261.51H609.671" stroke="#555555" stroke-width="1.5" stroke-linecap="round" stroke-linejoin="round"/>
<path d="M577.324 269.11V290.64" stroke="#555555" stroke-linecap="round" stroke-linejoin="round"/>
<path d="M580.016 270.18L594.01 280.41" stroke="#555555" stroke-linecap="round" stroke-linejoin="round"/>
<path d="M594.009 281.49L578.938 291.71" stroke="#555555" stroke-linecap="round" stroke-linejoin="round"/>
<path d="M578.207 269.56V291.09" stroke="#555555" stroke-linecap="round" stroke-linejoin="round"/>
<path d="M580.896 270.64L594.89 280.87" stroke="#555555" stroke-linecap="round" stroke-linejoin="round"/>
<path d="M594.89 281.94L579.82 292.17" stroke="#555555" stroke-linecap="round" stroke-linejoin="round"/>
<path d="M610.86 258.79L611.218 259.07L610.793 259.13L610.815 258.95L611.406 259.08L611.158 259.12L611.794 259.57L612.156 259.43" stroke="#555555" stroke-width="1.5" stroke-linecap="round" stroke-linejoin="round"/>
<path d="M609.24 263.9V299.24" stroke="#555555" stroke-width="1.5" stroke-linecap="round" stroke-linejoin="round"/>
<path d="M554.988 259.5L555.346 259.78L554.92 259.84L554.943 259.66L555.534 259.79L555.286 259.82L555.922 260.28L556.283 260.14" stroke="#555555" stroke-width="1.5" stroke-linecap="round" stroke-linejoin="round"/>
<path d="M553.369 264.61V299.95" stroke="#555555" stroke-width="1.5" stroke-linecap="round" stroke-linejoin="round"/>
<path d="M548.057 297.65H609.896" stroke="#555555" stroke-width="1.5" stroke-linecap="round" stroke-linejoin="round"/>
<path d="M545.648 260.71H608.29" stroke="#555555" stroke-width="1.5" stroke-linecap="round" stroke-linejoin="round"/>
<path d="M575.941 268.31V289.84" stroke="#555555" stroke-linecap="round" stroke-linejoin="round"/>
<path d="M578.633 269.38L592.627 279.61" stroke="#555555" stroke-linecap="round" stroke-linejoin="round"/>
<path d="M592.627 280.69L577.557 290.91" stroke="#555555" stroke-linecap="round" stroke-linejoin="round"/>
<path d="M576.824 268.76V290.29" stroke="#555555" stroke-linecap="round" stroke-linejoin="round"/>
<path d="M579.516 269.84L593.51 280.07" stroke="#555555" stroke-linecap="round" stroke-linejoin="round"/>
<path d="M593.509 281.14L578.439 291.37" stroke="#555555" stroke-linecap="round" stroke-linejoin="round"/>
<path d="M609.478 257.99L609.836 258.27L609.41 258.33L609.433 258.15L610.024 258.28L609.776 258.31L610.412 258.77L610.773 258.63" stroke="#555555" stroke-width="1.5" stroke-linecap="round" stroke-linejoin="round"/>
<path d="M607.859 263.1V298.44" stroke="#555555" stroke-width="1.5" stroke-linecap="round" stroke-linejoin="round"/>
<path d="M553.606 258.7L553.965 258.98L553.539 259.04L553.562 258.86L554.153 258.99L553.905 259.02L554.541 259.48L554.902 259.34" stroke="#555555" stroke-width="1.5" stroke-linecap="round" stroke-linejoin="round"/>
<path d="M551.988 263.81V299.15" stroke="#555555" stroke-width="1.5" stroke-linecap="round" stroke-linejoin="round"/>
<path d="M390.305 371.87V390.29" stroke="#555555" stroke-width="1.75" stroke-linecap="round" stroke-linejoin="round"/>
<path d="M372.318 370.07V388.49" stroke="#555555" stroke-width="1.75" stroke-linecap="round" stroke-linejoin="round"/>
<path d="M373.104 379.09H381.284" stroke="#555555" stroke-width="1.5" stroke-linecap="round" stroke-linejoin="round"/>
<path d="M380.99 370.91V389.33" stroke="#555555" stroke-width="1.75" stroke-linecap="round" stroke-linejoin="round"/>
<path d="M405.816 373.24L405.077 373.25L404.282 372.67L403.406 372.66L401.974 373.33L400.249 375.31L399.891 376.27L400.29 376.46L399.845 377.58L401.102 380.25L403.955 380.93L404.845 381.9L405.146 382.81L404.847 382.86L405.2 383.06L405.306 384.07L405.155 385.9L404.695 386.42L404.888 386.97L404.033 387.85L403.921 388.36L403.542 388.66L403.693 388.77L401.473 389.41L398.842 389.28L397.68 388.62L397.381 388.83" stroke="#555555" stroke-width="1.75" stroke-linecap="round" stroke-linejoin="round"/>
<path d="M410.426 373.8H425.498" stroke="#555555" stroke-width="1.75" stroke-linecap="round" stroke-linejoin="round"/>
<path d="M418.799 373.11V388.18" stroke="#555555" stroke-width="1.75" stroke-linecap="round" stroke-linejoin="round"/>
<path d="M432.651 375.32L431.397 375.22L430.126 376L428.571 377.65L428.45 378.3L427.587 379.56L427.165 381.44L426.432 382.54L426.461 383.91L426.186 384.77L426.512 385.77L426.305 386.36L427.144 386.77L427.388 387.1L427.27 387.41L427.798 388.05L429.33 388.52L431.192 388.65L432.272 388.42L433.903 387.59L434.066 386.95L435.006 386.26L435.725 385.22L435.606 384.27L436.199 382.84L436.347 381.71L435.407 380.5L435.349 379.75L434.341 378.63L433.669 376.66L432.148 375.98L431.92 376.09" stroke="#555555" stroke-width="1.75" stroke-linecap="round" stroke-linejoin="round"/>
<path d="M442.194 378.47L439.668 378.63L440.672 378.49L440.42 378.5L440.612 378.68L440.268 378.91L440.577 379.28L440.245 379.55L440.862 380.48L441.067 381.55L440.872 382.2L441.216 385.55L440.609 387.42L440.547 390.04L441.047 390.53L441.615 389.24" stroke="#555555" stroke-width="1.75" stroke-linecap="round" stroke-linejoin="round"/>
<path d="M442.449 377.16L442.241 376.88L442.357 375.32L442.176 375.06L443.426 373.48L444.12 372.99L445.384 372.65L446.878 372.98L448.251 374.32L448.648 376.02L447.625 378.73L444.965 381.79L443.821 382.1L444.279 381.86L445.166 382.21L446.897 383.86L448.048 386.08L449.049 387.28L449.223 389.27L449.816 390.74L450.046 390.51L449.871 390.47" stroke="#555555" stroke-width="1.75" stroke-linecap="round" stroke-linejoin="round"/>
<path d="M454.704 375.09L454.728 374.52L453.979 373.94L454.769 374.57L454.437 374.71L454.663 374.93L454.59 375.45L455.275 375.87L455.929 377.12L456.815 379.81L456.673 380.26L457.851 381.67L457.912 381.9L457.646 381.95L458.308 382.22L458.089 382.39L458.765 383.72L459.324 384.12L459.067 384.25L459.615 384.29L458.904 384.27L459.434 384.28H458.946L459.317 384.31L458.807 385L459.406 385.08L458.943 385.02L458.998 385.54" stroke="#555555" stroke-width="1.75" stroke-linecap="round" stroke-linejoin="round"/>
<path d="M458.079 390.33H456.672L456.835 390.79L456.137 391.73L455.773 391.75L456.178 391.47L455.945 391.28L456.426 391.15L457.55 388.59L460.136 385.06L460.419 383.93L461.586 382.82L462.918 380.2L463.88 379.33L464.01 378.85L465.594 377.79L465.274 377.7L465.323 377.27L465.913 377.21L465.605 377.06L466.251 376.84L465.627 376.73L466.611 376.17L466.426 376.08L466.358 376.49L466.177 376.31L466.619 376.49L466.256 376.54L466.273 376.35L466.509 376.5L465.958 376.71L466.653 376.6L466.206 376.55L466.586 376.67L466.525 376.48L466.145 376.72L466.33 376.63L466.177 376.88L466.437 376.79L466.282 376.69L466.215 376.91L466.407 376.9L466.191 376.66L466.373 376.56L466.579 376.67L466.132 376.73L466.374 376.9L466.095 376.81L466.381 376.9L466.111 376.88L466.482 377.44L466.208 377.33L466.455 377.31L466.117 377.41L466.453 377.57L466.152 377.55L466.615 377.37L466.258 377.33L466.536 377.27L466.087 376.85L466.482 376.92L466.004 376.89L466.504 376.69L466.049 376.37L466.339 376.12L466.03 376.46L466.327 376.42L466.144 376.36L466.382 376.17L465.775 376.31L466.285 376.36H466.069L466.174 376.95L465.886 377.38" stroke="#555555" stroke-width="1.75" stroke-linecap="round" stroke-linejoin="round"/>
<path d="M487.941 374.76L486.688 374.66L485.416 375.44L483.862 377.09L483.741 377.75L482.878 379.01L482.455 380.89L481.723 381.98L481.752 383.35L481.477 384.21L481.803 385.21L481.596 385.81L482.435 386.21L482.678 386.54L482.561 386.86L483.088 387.5L484.621 387.97L486.483 388.09L487.563 387.86L489.193 387.03L489.356 386.39L490.297 385.7L491.015 384.66L490.897 383.71L491.489 382.29L491.638 381.15L490.698 379.95L490.639 379.19L489.632 378.08L488.959 376.1L487.438 375.42L487.211 375.53" stroke="#555555" stroke-width="1.75" stroke-linecap="round" stroke-linejoin="round"/>
<path d="M497.306 372.79L495.873 373.07L495.828 372.86L496.39 372.87L495.984 372.99L495.857 373.45L495.634 373.17L496.163 373.21L495.764 372.9L495.262 373.25L495.757 373.34L495.465 373.86L495.694 376.6L495.479 379.62L495.965 381.69L495.594 383.74L495.809 384.78L495.531 385.26L495.649 388.51L496.346 388.82L495.946 389.31L496.408 389.67L495.851 389.74L496.234 389.91L496.012 389.94L496.18 389.59L495.784 389.39L495.952 389.08L495.69 389.28L496.24 389.3L495.687 389.24L496.08 389.38L495.796 389.36L496.043 389.52L495.589 389.67L495.954 389.75L495.687 389.85L496.284 389.71L495.826 389.83L496.101 389.74L496.021 389.56L495.947 389.82L495.755 389.74H496.274H495.723L496.199 389.59H495.869L496.232 389.52L496.034 389.15L495.959 389.59L495.616 389.35" stroke="#555555" stroke-width="1.75" stroke-linecap="round" stroke-linejoin="round"/>
<path d="M495.943 373.31H505.99" stroke="#555555" stroke-width="1.75" stroke-linecap="round" stroke-linejoin="round"/>
<path d="M496.467 380.29H502.676" stroke="#555555" stroke-width="1.75" stroke-linecap="round" stroke-linejoin="round"/>
<path d="M544.907 378.91L544.647 379.03L543.502 378.13L542.834 378.27L539.955 380.4L539.381 381.56L538.772 381.83L537.372 383.58L537.577 384.89L537.182 386.26L537.737 387.7L537.607 388.56L537.821 389.14L539.534 391.59L540.811 392.59L541.313 392.84L542.558 392.44L545.463 389.73L547.183 384.05L546.876 381.29L546.223 380.21L545.347 379.66L544.352 378.24L541.582 377.21L539.312 377.91L538.54 378.83L538.221 380.08L537.248 381.87" stroke="#555555" stroke-width="1.75" stroke-linecap="round" stroke-linejoin="round"/>
<path d="M552.93 381.19L550.404 381.35L551.409 381.21H551.156L551.349 381.4L551.005 381.63L551.313 382L550.982 382.27L551.599 383.2L551.803 384.27L551.609 384.92L551.953 388.27L551.345 390.13L551.283 392.75L551.784 393.25L552.351 391.96" stroke="#555555" stroke-width="1.75" stroke-linecap="round" stroke-linejoin="round"/>
<path d="M553.186 379.87L552.977 379.6L553.094 378.04L552.912 377.77L554.162 376.19L554.856 375.71L556.12 375.36L557.614 375.7L558.988 377.04L559.384 378.74L558.361 381.45L555.702 384.5L554.557 384.82L555.016 384.58L555.902 384.93L557.633 386.58L558.785 388.8L559.786 389.99L559.959 391.99L560.552 393.46L560.783 393.23L560.607 393.19" stroke="#555555" stroke-width="1.75" stroke-linecap="round" stroke-linejoin="round"/>
<path d="M562.621 376.43H577.692" stroke="#555555" stroke-width="1.75" stroke-linecap="round" stroke-linejoin="round"/>
<path d="M570.994 375.74V390.81" stroke="#555555" stroke-width="1.75" stroke-linecap="round" stroke-linejoin="round"/>
<path d="M522.971 370.99V389.41" stroke="#555555" stroke-width="1.75" stroke-linecap="round" stroke-linejoin="round"/>
<path d="M524.029 371.87L524.325 372.25L525.7 372.17L526.703 371.39L528.224 371.77L529.969 371.63L530.18 372.01L531.214 372.19L531.394 372.61L531.853 372.77L531.757 373.08L533.267 373.6L533.494 374.18L533.825 374.3L533.598 374.5L534.326 374.86L534.121 375.23L534.468 375.28L534.478 375.65L534.182 375.83L534.289 376.75L533.952 377.4L533.283 377.86L533.569 378.21L532.836 378.45L532.917 378.61L531.267 379.27L530.064 379.34L529.482 379.61L529.696 379.68L527.781 380.29L527.573 380.13L527.752 380.09L526.261 380.24L526.35 380.39L525.573 380.42L525.717 380.64L525.112 380.5L525.548 380.34L525.834 380.54" stroke="#555555" stroke-width="1.75" stroke-linecap="round" stroke-linejoin="round"/>
<path d="M589.885 377.15V392.79" stroke="#555555" stroke-width="1.75" stroke-linecap="round" stroke-linejoin="round"/>
<path d="M579.822 376.81V391.07" stroke="#555555" stroke-width="1.75" stroke-linecap="round" stroke-linejoin="round"/>
<path d="M582.35 390.07H588.211" stroke="#555555" stroke-width="1.75" stroke-linecap="round" stroke-linejoin="round"/>
<path d="M389.564 370.64V389.06" stroke="#555555" stroke-width="1.75" stroke-linecap="round" stroke-linejoin="round"/>
<path d="M371.578 368.84V387.26" stroke="#555555" stroke-width="1.75" stroke-linecap="round" stroke-linejoin="round"/>
<path d="M372.363 377.86H380.543" stroke="#555555" stroke-width="1.5" stroke-linecap="round" stroke-linejoin="round"/>
<path d="M380.25 369.68V388.1" stroke="#555555" stroke-width="1.75" stroke-linecap="round" stroke-linejoin="round"/>
<path d="M405.076 372.01H404.337L403.542 371.44L402.665 371.43L401.234 372.09L399.509 374.08L399.151 375.04L399.55 375.22L399.105 376.35L400.362 379.02L403.214 379.7L404.105 380.67L404.406 381.57L404.107 381.63L404.46 381.83L404.565 382.84L404.415 384.66L403.955 385.18L404.148 385.74L403.293 386.61L403.181 387.13L402.801 387.43L402.953 387.54L400.733 388.18L398.102 388.05L396.939 387.39L396.641 387.6" stroke="#555555" stroke-width="1.75" stroke-linecap="round" stroke-linejoin="round"/>
<path d="M409.686 372.57H424.758" stroke="#555555" stroke-width="1.75" stroke-linecap="round" stroke-linejoin="round"/>
<path d="M418.059 371.88V386.95" stroke="#555555" stroke-width="1.75" stroke-linecap="round" stroke-linejoin="round"/>
<path d="M431.909 374.09L430.656 373.99L429.384 374.77L427.83 376.42L427.709 377.07L426.846 378.33L426.423 380.21L425.691 381.31L425.72 382.68L425.445 383.53L425.771 384.54L425.564 385.13L426.403 385.54L426.647 385.87L426.529 386.18L427.056 386.82L428.589 387.29L430.451 387.42L431.531 387.19L433.161 386.36L433.324 385.72L434.265 385.03L434.983 383.99L434.865 383.04L435.457 381.61L435.606 380.48L434.666 379.27L434.607 378.52L433.6 377.4L432.927 375.43L431.406 374.75L431.179 374.86" stroke="#555555" stroke-width="1.75" stroke-linecap="round" stroke-linejoin="round"/>
<path d="M441.455 377.24L438.928 377.4L439.933 377.26L439.681 377.27L439.873 377.45L439.529 377.68L439.837 378.05L439.506 378.32L440.123 379.25L440.327 380.32L440.133 380.97L440.477 384.32L439.869 386.18L439.808 388.81L440.308 389.3L440.876 388.01" stroke="#555555" stroke-width="1.75" stroke-linecap="round" stroke-linejoin="round"/>
<path d="M441.709 375.92L441.5 375.65L441.617 374.09L441.436 373.82L442.685 372.24L443.38 371.76L444.644 371.42L446.137 371.75L447.511 373.09L447.907 374.79L446.885 377.5L444.225 380.55L443.081 380.87L443.539 380.63L444.425 380.98L446.157 382.63L447.308 384.85L448.309 386.04L448.483 388.04L449.076 389.51L449.306 389.28L449.13 389.24" stroke="#555555" stroke-width="1.75" stroke-linecap="round" stroke-linejoin="round"/>
<path d="M453.963 373.85L453.986 373.29L453.238 372.71L454.028 373.33L453.696 373.48L453.922 373.7L453.849 374.22L454.533 374.64L455.187 375.89L456.074 378.58L455.931 379.03L457.11 380.44L457.171 380.67L456.905 380.72L457.567 380.99L457.348 381.16L458.024 382.49L458.583 382.89L458.325 383.02L458.874 383.06L458.163 383.04L458.693 383.05H458.205L458.576 383.08L458.065 383.77L458.664 383.85L458.202 383.79L458.257 384.31" stroke="#555555" stroke-width="1.75" stroke-linecap="round" stroke-linejoin="round"/>
<path d="M457.339 389.1H455.932L456.095 389.56L455.397 390.5L455.033 390.52L455.438 390.23L455.204 390.04L455.686 389.92L456.81 387.36L459.396 383.83L459.678 382.7L460.846 381.59L462.178 378.97L463.14 378.1L463.27 377.62L464.854 376.56L464.534 376.47L464.583 376.04L465.173 375.98L464.864 375.83L465.511 375.61L464.887 375.5L465.871 374.93L465.686 374.85L465.618 375.26L465.437 375.08L465.879 375.26L465.515 375.31L465.533 375.12L465.769 375.26L465.218 375.48L465.913 375.37L465.466 375.31L465.846 375.44L465.785 375.25L465.405 375.49L465.59 375.4L465.436 375.65L465.696 375.56L465.541 375.46L465.475 375.68L465.667 375.67L465.451 375.42L465.633 375.32L465.839 375.44L465.391 375.5L465.634 375.67L465.355 375.58L465.64 375.66L465.371 375.64L465.742 376.21L465.468 376.09L465.715 376.08L465.377 376.18L465.713 376.34L465.412 376.31L465.875 376.13L465.518 376.1L465.796 376.04L465.347 375.62L465.742 375.69L465.264 375.66L465.764 375.46L465.309 375.14L465.598 374.89L465.29 375.22L465.587 375.18L465.404 375.13L465.642 374.94L465.035 375.08L465.544 375.12L465.329 375.13L465.434 375.71L465.146 376.15" stroke="#555555" stroke-width="1.75" stroke-linecap="round" stroke-linejoin="round"/>
<path d="M487.2 373.53L485.946 373.43L484.675 374.21L483.121 375.86L483 376.51L482.137 377.78L481.714 379.65L480.982 380.75L481.011 382.12L480.736 382.98L481.062 383.98L480.855 384.58L481.694 384.98L481.937 385.31L481.819 385.63L482.347 386.26L483.879 386.74L485.742 386.86L486.822 386.63L488.452 385.8L488.615 385.16L489.556 384.47L490.274 383.43L490.155 382.48L490.748 381.05L490.896 379.92L489.956 378.72L489.898 377.96L488.89 376.84L488.218 374.87L486.697 374.19L486.47 374.3" stroke="#555555" stroke-width="1.75" stroke-linecap="round" stroke-linejoin="round"/>
<path d="M496.565 371.56L495.132 371.84L495.086 371.63L495.649 371.64L495.243 371.75L495.115 372.22L494.893 371.94L495.422 371.98L495.023 371.67L494.521 372.02L495.015 372.11L494.724 372.63L494.953 375.36L494.738 378.39L495.224 380.46L494.853 382.51L495.067 383.55L494.79 384.03L494.908 387.28L495.605 387.58L495.205 388.08L495.667 388.43L495.11 388.51L495.492 388.68L495.271 388.71L495.439 388.36L495.043 388.16L495.211 387.85L494.949 388.05L495.499 388.07L494.946 388.01L495.339 388.15L495.055 388.13L495.301 388.29L494.848 388.44L495.213 388.52L494.946 388.62L495.542 388.48L495.085 388.59L495.36 388.51L495.28 388.33L495.206 388.59L495.014 388.51H495.532H494.982L495.458 388.36H495.128L495.491 388.29L495.292 387.92L495.217 388.35L494.874 388.11" stroke="#555555" stroke-width="1.75" stroke-linecap="round" stroke-linejoin="round"/>
<path d="M495.203 372.08H505.251" stroke="#555555" stroke-width="1.75" stroke-linecap="round" stroke-linejoin="round"/>
<path d="M495.727 379.06H501.936" stroke="#555555" stroke-width="1.75" stroke-linecap="round" stroke-linejoin="round"/>
<path d="M544.166 377.67L543.906 377.79L542.761 376.9L542.093 377.04L539.214 379.17L538.64 380.33L538.03 380.6L536.631 382.35L536.835 383.66L536.441 385.03L536.995 386.47L536.866 387.33L537.079 387.91L538.793 390.36L540.069 391.36L540.572 391.61L541.817 391.21L544.722 388.5L546.442 382.82L546.135 380.06L545.482 378.98L544.606 378.43L543.611 377L540.841 375.98L538.57 376.67L537.799 377.6L537.48 378.85L536.507 380.64" stroke="#555555" stroke-width="1.75" stroke-linecap="round" stroke-linejoin="round"/>
<path d="M552.19 379.96L549.664 380.12L550.669 379.97L550.416 379.98L550.609 380.17L550.265 380.4L550.573 380.77L550.242 381.04L550.858 381.97L551.063 383.03L550.868 383.69L551.212 387.04L550.605 388.9L550.543 391.52L551.043 392.01L551.611 390.73" stroke="#555555" stroke-width="1.75" stroke-linecap="round" stroke-linejoin="round"/>
<path d="M552.445 378.64L552.237 378.37L552.354 376.81L552.172 376.54L553.422 374.96L554.116 374.48L555.38 374.13L556.874 374.47L558.248 375.81L558.644 377.5L557.621 380.22L554.961 383.27L553.817 383.59L554.276 383.35L555.162 383.7L556.893 385.34L558.044 387.57L559.045 388.76L559.219 390.76L559.812 392.23L560.043 392L559.867 391.95" stroke="#555555" stroke-width="1.75" stroke-linecap="round" stroke-linejoin="round"/>
<path d="M561.881 375.2H576.953" stroke="#555555" stroke-width="1.75" stroke-linecap="round" stroke-linejoin="round"/>
<path d="M570.254 374.51V389.58" stroke="#555555" stroke-width="1.75" stroke-linecap="round" stroke-linejoin="round"/>
<path d="M522.23 369.75V388.17" stroke="#555555" stroke-width="1.75" stroke-linecap="round" stroke-linejoin="round"/>
<path d="M523.289 370.64L523.585 371.02L524.96 370.94L525.963 370.16L527.484 370.54L529.229 370.39L529.44 370.78L530.474 370.96L530.654 371.37L531.112 371.53L531.017 371.85L532.527 372.37L532.754 372.95L533.085 373.07L532.858 373.27L533.585 373.63L533.381 374L533.728 374.05L533.738 374.42L533.442 374.6L533.549 375.52L533.212 376.17L532.543 376.63L532.829 376.98L532.096 377.22L532.177 377.38L530.527 378.04L529.323 378.11L528.742 378.38L528.955 378.45L527.041 379.06L526.833 378.9L527.012 378.85L525.521 379.01L525.61 379.16L524.832 379.19L524.976 379.4L524.372 379.27L524.808 379.1L525.093 379.31" stroke="#555555" stroke-width="1.75" stroke-linecap="round" stroke-linejoin="round"/>
<path d="M589.145 375.92V391.56" stroke="#555555" stroke-width="1.75" stroke-linecap="round" stroke-linejoin="round"/>
<path d="M579.082 375.58V389.84" stroke="#555555" stroke-width="1.75" stroke-linecap="round" stroke-linejoin="round"/>
<path d="M581.609 388.84H587.471" stroke="#555555" stroke-width="1.75" stroke-linecap="round" stroke-linejoin="round"/>
<path d="M375.08 407.43L369.219 421.67" stroke="#555555" stroke-width="1.75" stroke-linecap="round" stroke-linejoin="round"/>
<path d="M375.363 403.37L382.062 420.11" stroke="#555555" stroke-width="1.75" stroke-linecap="round" stroke-linejoin="round"/>
<path d="M375.078 417.48H382.614" stroke="#555555" stroke-width="1.75" stroke-linecap="round" stroke-linejoin="round"/>
<path d="M387.631 408.68L385.104 408.83L386.109 408.69L385.857 408.7L386.049 408.88L385.705 409.11L386.013 409.49L385.682 409.75L386.299 410.69L386.503 411.75L386.309 412.41L386.653 415.75L386.045 417.62L385.983 420.24L386.484 420.73L387.052 419.44" stroke="#555555" stroke-width="1.75" stroke-linecap="round" stroke-linejoin="round"/>
<path d="M387.886 407.36L387.677 407.08L387.794 405.52L387.613 405.26L388.862 403.68L389.557 403.2L390.82 402.85L392.314 403.18L393.688 404.53L394.084 406.22L393.061 408.94L390.402 411.99L389.258 412.3L389.716 412.07L390.602 412.41L392.334 414.06L393.485 416.28L394.486 417.48L394.66 419.48L395.253 420.94L395.483 420.72L395.307 420.67" stroke="#555555" stroke-width="1.75" stroke-linecap="round" stroke-linejoin="round"/>
<path d="M408.459 404.81L408.502 404.58L407.983 405.04L405.5 404.88L404.71 405.18L404.602 405.46L402.339 405.64L401.56 406.1L400.929 406.94L400.822 407.93L399.22 409.42L398.76 410.24L398.714 411.47L397.91 413.96L398.465 414.47L398.529 416.14L399.242 417.32L399.059 417.46L399.549 417.67L399.77 418.52L400.824 419.06L400.531 419.3L401.56 419.89L402.544 419.91L405.553 420.86L406.917 420.63L407.613 420.2L409.895 420.01L410.598 419.49L410.474 419.72" stroke="#555555" stroke-width="1.75" stroke-linecap="round" stroke-linejoin="round"/>
<path d="M414.57 403.32V421.74" stroke="#555555" stroke-width="1.75" stroke-linecap="round" stroke-linejoin="round"/>
<path d="M415.355 412.34H423.534" stroke="#555555" stroke-width="1.5" stroke-linecap="round" stroke-linejoin="round"/>
<path d="M423.242 404.16V422.58" stroke="#555555" stroke-width="1.75" stroke-linecap="round" stroke-linejoin="round"/>
<path d="M430.586 404.42V422.84" stroke="#555555" stroke-width="1.75" stroke-linecap="round" stroke-linejoin="round"/>
<path d="M435.189 408.39H450.261" stroke="#555555" stroke-width="1.75" stroke-linecap="round" stroke-linejoin="round"/>
<path d="M443.562 407.7V422.77" stroke="#555555" stroke-width="1.75" stroke-linecap="round" stroke-linejoin="round"/>
<path d="M455.453 407.01L454.151 407.27L454.11 407.07L454.621 407.09L454.252 407.19L454.136 407.61L453.935 407.35L454.415 407.4L454.052 407.11L453.596 407.43L454.045 407.51L453.781 407.98L453.989 410.47L453.793 413.21L454.235 415.1L453.898 416.96L454.093 417.9L453.841 418.34L453.948 421.29L454.581 421.57L454.218 422.02L454.638 422.34L454.131 422.41L454.479 422.56L454.278 422.59L454.43 422.27L454.071 422.09L454.223 421.81L453.985 421.99L454.485 422.01L453.982 421.96L454.339 422.09L454.082 422.06L454.305 422.21L453.894 422.35L454.225 422.42L453.983 422.5L454.524 422.38L454.108 422.49L454.359 422.41L454.286 422.24L454.219 422.48L454.044 422.41H454.515H454.015L454.447 422.27H454.148L454.477 422.21L454.297 421.87L454.229 422.27L453.917 422.05" stroke="#555555" stroke-width="1.5" stroke-linecap="round" stroke-linejoin="round"/>
<path d="M454.215 407.48H463.343" stroke="#555555" stroke-width="1.5" stroke-linecap="round" stroke-linejoin="round"/>
<path d="M455.234 421.62H464.361" stroke="#555555" stroke-width="1.5" stroke-linecap="round" stroke-linejoin="round"/>
<path d="M454.691 413.83H460.331" stroke="#555555" stroke-width="1.5" stroke-linecap="round" stroke-linejoin="round"/>
<path d="M478.061 406.38L478.104 406.15L477.585 406.61L475.102 406.45L474.312 406.75L474.204 407.03L471.941 407.21L471.162 407.67L470.531 408.51L470.424 409.5L468.822 410.99L468.362 411.81L468.316 413.04L467.512 415.53L468.066 416.04L468.131 417.71L468.844 418.89L468.661 419.03L469.151 419.24L469.372 420.08L470.426 420.63L470.133 420.87L471.162 421.46L472.146 421.48L475.155 422.43L476.519 422.2L477.215 421.77L479.497 421.58L480.2 421.06L480.076 421.29" stroke="#555555" stroke-width="1.75" stroke-linecap="round" stroke-linejoin="round"/>
<path d="M481.66 407.91H496.732" stroke="#555555" stroke-width="1.75" stroke-linecap="round" stroke-linejoin="round"/>
<path d="M490.033 407.22V422.29" stroke="#555555" stroke-width="1.75" stroke-linecap="round" stroke-linejoin="round"/>
<path d="M509.254 409.43V425.06" stroke="#555555" stroke-width="1.75" stroke-linecap="round" stroke-linejoin="round"/>
<path d="M499.191 409.08V423.35" stroke="#555555" stroke-width="1.75" stroke-linecap="round" stroke-linejoin="round"/>
<path d="M501.719 422.34H507.58" stroke="#555555" stroke-width="1.75" stroke-linecap="round" stroke-linejoin="round"/>
<path d="M517.604 412.59L515.078 412.74L516.083 412.6L515.83 412.61L516.023 412.79L515.679 413.02L515.987 413.4L515.656 413.66L516.273 414.6L516.477 415.66L516.282 416.32L516.626 419.67L516.019 421.53L515.957 424.15L516.457 424.64L517.025 423.35" stroke="#555555" stroke-width="1.75" stroke-linecap="round" stroke-linejoin="round"/>
<path d="M517.86 411.27L517.651 411L517.768 409.43L517.586 409.17L518.836 407.59L519.53 407.11L520.794 406.76L522.288 407.09L523.662 408.44L524.058 410.13L523.035 412.85L520.375 415.9L519.231 416.22L519.69 415.98L520.576 416.32L522.307 417.97L523.459 420.19L524.459 421.39L524.633 423.39L525.226 424.86L525.457 424.63L525.281 424.58" stroke="#555555" stroke-width="1.75" stroke-linecap="round" stroke-linejoin="round"/>
<path d="M533.884 409.92L532.582 410.18L532.541 409.98L533.051 409.99L532.683 410.1L532.567 410.52L532.365 410.26L532.845 410.3L532.483 410.01L532.027 410.34L532.476 410.41L532.211 410.89L532.419 413.37L532.224 416.12L532.666 418.01L532.329 419.86L532.523 420.81L532.271 421.24L532.379 424.2L533.012 424.47L532.648 424.93L533.068 425.25L532.562 425.31L532.91 425.47L532.709 425.5L532.861 425.18L532.501 425L532.654 424.71L532.416 424.9L532.916 424.91L532.413 424.86L532.77 424.99L532.512 424.97L532.736 425.12L532.324 425.25L532.656 425.32L532.413 425.41L532.955 425.29L532.539 425.39L532.789 425.31L532.717 425.15L532.649 425.38L532.475 425.31H532.946H532.446L532.878 425.18H532.579L532.908 425.12L532.728 424.78L532.66 425.17L532.348 424.96" stroke="#555555" stroke-width="1.5" stroke-linecap="round" stroke-linejoin="round"/>
<path d="M532.646 410.39H541.773" stroke="#555555" stroke-width="1.5" stroke-linecap="round" stroke-linejoin="round"/>
<path d="M533.666 424.53H542.793" stroke="#555555" stroke-width="1.5" stroke-linecap="round" stroke-linejoin="round"/>
<path d="M533.121 416.73H538.762" stroke="#555555" stroke-width="1.5" stroke-linecap="round" stroke-linejoin="round"/>
<path d="M533.707 417.14H539.916" stroke="#555555" stroke-width="1.75" stroke-linecap="round" stroke-linejoin="round"/>
<path d="M374.34 406.2L368.479 420.44" stroke="#555555" stroke-width="1.75" stroke-linecap="round" stroke-linejoin="round"/>
<path d="M374.623 402.13L381.322 418.88" stroke="#555555" stroke-width="1.75" stroke-linecap="round" stroke-linejoin="round"/>
<path d="M374.34 416.25H381.876" stroke="#555555" stroke-width="1.75" stroke-linecap="round" stroke-linejoin="round"/>
<path d="M386.889 407.45L384.363 407.6L385.368 407.46L385.115 407.47L385.308 407.65L384.964 407.88L385.272 408.25L384.941 408.52L385.558 409.45L385.762 410.52L385.568 411.17L385.912 414.52L385.304 416.39L385.242 419.01L385.743 419.5L386.31 418.21" stroke="#555555" stroke-width="1.75" stroke-linecap="round" stroke-linejoin="round"/>
<path d="M387.145 406.13L386.936 405.85L387.053 404.29L386.871 404.03L388.121 402.45L388.815 401.97L390.079 401.62L391.573 401.95L392.947 403.29L393.343 404.99L392.32 407.7L389.66 410.76L388.516 411.07L388.975 410.83L389.861 411.18L391.592 412.83L392.744 415.05L393.745 416.25L393.918 418.24L394.511 419.71L394.742 419.48L394.566 419.44" stroke="#555555" stroke-width="1.75" stroke-linecap="round" stroke-linejoin="round"/>
<path d="M407.719 403.58L407.762 403.35L407.242 403.81L404.76 403.65L403.97 403.94L403.862 404.23L401.599 404.41L400.82 404.87L400.189 405.71L400.082 406.7L398.48 408.18L398.02 409L397.974 410.24L397.17 412.72L397.724 413.24L397.789 414.91L398.502 416.09L398.318 416.23L398.809 416.43L399.03 417.28L400.084 417.83L399.791 418.07L400.819 418.66L401.804 418.68L404.813 419.63L406.177 419.4L406.872 418.97L409.155 418.78L409.858 418.26L409.734 418.49" stroke="#555555" stroke-width="1.75" stroke-linecap="round" stroke-linejoin="round"/>
<path d="M413.83 402.09V420.51" stroke="#555555" stroke-width="1.75" stroke-linecap="round" stroke-linejoin="round"/>
<path d="M414.615 411.11H422.795" stroke="#555555" stroke-width="1.5" stroke-linecap="round" stroke-linejoin="round"/>
<path d="M422.504 402.93V421.35" stroke="#555555" stroke-width="1.75" stroke-linecap="round" stroke-linejoin="round"/>
<path d="M429.844 403.19V421.61" stroke="#555555" stroke-width="1.75" stroke-linecap="round" stroke-linejoin="round"/>
<path d="M434.449 407.15H449.52" stroke="#555555" stroke-width="1.75" stroke-linecap="round" stroke-linejoin="round"/>
<path d="M442.822 406.47V421.54" stroke="#555555" stroke-width="1.75" stroke-linecap="round" stroke-linejoin="round"/>
<path d="M454.712 405.78L453.41 406.04L453.369 405.84L453.88 405.85L453.511 405.96L453.395 406.38L453.193 406.12L453.673 406.16L453.311 405.88L452.855 406.2L453.304 406.28L453.039 406.75L453.248 409.24L453.052 411.98L453.494 413.87L453.157 415.73L453.351 416.67L453.1 417.1L453.207 420.06L453.84 420.34L453.476 420.79L453.896 421.11L453.39 421.17L453.738 421.33L453.537 421.36L453.689 421.04L453.329 420.86L453.482 420.58L453.244 420.76L453.744 420.78L453.241 420.73L453.598 420.85L453.34 420.83L453.564 420.98L453.152 421.11L453.484 421.19L453.241 421.27L453.783 421.15L453.367 421.25L453.617 421.18L453.545 421.01L453.477 421.25L453.303 421.18L453.774 421.17L453.274 421.18L453.706 421.04H453.407L453.736 420.98L453.556 420.64L453.488 421.04L453.176 420.82" stroke="#555555" stroke-width="1.5" stroke-linecap="round" stroke-linejoin="round"/>
<path d="M453.475 406.25H462.602" stroke="#555555" stroke-width="1.5" stroke-linecap="round" stroke-linejoin="round"/>
<path d="M454.494 420.39H463.621" stroke="#555555" stroke-width="1.5" stroke-linecap="round" stroke-linejoin="round"/>
<path d="M453.951 412.59H459.591" stroke="#555555" stroke-width="1.5" stroke-linecap="round" stroke-linejoin="round"/>
<path d="M477.32 405.15L477.363 404.92L476.843 405.37L474.361 405.22L473.571 405.51L473.463 405.8L471.2 405.98L470.421 406.44L469.79 407.28L469.683 408.27L468.081 409.75L467.621 410.57L467.575 411.81L466.771 414.29L467.325 414.81L467.39 416.48L468.103 417.66L467.919 417.8L468.409 418L468.631 418.85L469.684 419.4L469.392 419.64L470.42 420.23L471.405 420.25L474.414 421.2L475.778 420.97L476.473 420.54L478.756 420.35L479.459 419.83L479.334 420.06" stroke="#555555" stroke-width="1.75" stroke-linecap="round" stroke-linejoin="round"/>
<path d="M480.92 406.68H495.992" stroke="#555555" stroke-width="1.75" stroke-linecap="round" stroke-linejoin="round"/>
<path d="M489.293 405.99V421.06" stroke="#555555" stroke-width="1.75" stroke-linecap="round" stroke-linejoin="round"/>
<path d="M508.514 408.19V423.83" stroke="#555555" stroke-width="1.75" stroke-linecap="round" stroke-linejoin="round"/>
<path d="M498.451 407.85V422.11" stroke="#555555" stroke-width="1.75" stroke-linecap="round" stroke-linejoin="round"/>
<path d="M500.979 421.11H506.84" stroke="#555555" stroke-width="1.75" stroke-linecap="round" stroke-linejoin="round"/>
<path d="M516.864 411.36L514.338 411.51L515.343 411.37L515.09 411.38L515.283 411.56L514.938 411.79L515.247 412.17L514.915 412.43L515.532 413.37L515.737 414.43L515.542 415.09L515.886 418.44L515.279 420.3L515.217 422.92L515.717 423.41L516.285 422.12" stroke="#555555" stroke-width="1.75" stroke-linecap="round" stroke-linejoin="round"/>
<path d="M517.119 410.04L516.911 409.76L517.027 408.2L516.846 407.94L518.096 406.36L518.79 405.88L520.054 405.53L521.548 405.86L522.921 407.21L523.318 408.9L522.295 411.62L519.635 414.67L518.491 414.99L518.949 414.75L519.836 415.09L521.567 416.74L522.718 418.96L523.719 420.16L523.893 422.16L524.486 423.62L524.717 423.4L524.541 423.35" stroke="#555555" stroke-width="1.75" stroke-linecap="round" stroke-linejoin="round"/>
<path d="M533.144 408.69L531.843 408.94L531.801 408.75L532.312 408.76L531.944 408.86L531.828 409.29L531.626 409.03L532.106 409.07L531.744 408.78L531.287 409.11L531.737 409.18L531.472 409.66L531.68 412.14L531.485 414.89L531.926 416.77L531.589 418.63L531.784 419.58L531.532 420.01L531.64 422.97L532.273 423.24L531.909 423.7L532.329 424.02L531.823 424.08L532.17 424.24L531.969 424.26L532.121 423.95L531.762 423.77L531.914 423.48L531.677 423.67L532.176 423.68L531.674 423.63L532.031 423.76L531.773 423.74L531.997 423.89L531.585 424.02L531.916 424.09L531.674 424.18L532.216 424.06L531.8 424.16L532.05 424.08L531.977 423.92L531.91 424.15L531.735 424.08H532.207H531.707L532.139 423.95H531.839L532.169 423.89L531.988 423.55L531.92 423.94L531.609 423.72" stroke="#555555" stroke-width="1.5" stroke-linecap="round" stroke-linejoin="round"/>
<path d="M531.906 409.16H541.033" stroke="#555555" stroke-width="1.5" stroke-linecap="round" stroke-linejoin="round"/>
<path d="M532.926 423.3H542.054" stroke="#555555" stroke-width="1.5" stroke-linecap="round" stroke-linejoin="round"/>
<path d="M532.383 415.5H538.023" stroke="#555555" stroke-width="1.5" stroke-linecap="round" stroke-linejoin="round"/>
<path d="M532.967 415.9H539.176" stroke="#555555" stroke-width="1.75" stroke-linecap="round" stroke-linejoin="round"/>
<path d="M605.578 373.98L605.621 373.76L605.101 374.21L602.619 374.05L601.829 374.35L601.721 374.64L599.458 374.81L598.679 375.27L598.048 376.12L597.941 377.1L596.339 378.59L595.879 379.41L595.833 380.64L595.029 383.13L595.583 383.64L595.648 385.31L596.361 386.49L596.177 386.63L596.667 386.84L596.889 387.69L597.943 388.23L597.65 388.47L598.678 389.06L599.663 389.08L602.672 390.03L604.036 389.8L604.731 389.37L607.014 389.18L607.717 388.67L607.592 388.89" stroke="#555555" stroke-width="1.75" stroke-linecap="round" stroke-linejoin="round"/>
<path d="M600.434 383.49H607.969" stroke="#555555" stroke-width="1.75" stroke-linecap="round" stroke-linejoin="round"/>
<path d="M607.969 385.17V398.56" stroke="#555555" stroke-width="1.75" stroke-linecap="round" stroke-linejoin="round"/>
<path d="M622.619 375.78V391.41" stroke="#555555" stroke-width="1.75" stroke-linecap="round" stroke-linejoin="round"/>
<path d="M612.557 375.43V389.7" stroke="#555555" stroke-width="1.75" stroke-linecap="round" stroke-linejoin="round"/>
<path d="M615.082 388.7H620.943" stroke="#555555" stroke-width="1.75" stroke-linecap="round" stroke-linejoin="round"/>
<path d="M630.179 374.86L628.877 375.11L628.836 374.92L629.347 374.93L628.978 375.03L628.863 375.46L628.661 375.2L629.141 375.24L628.779 374.95L628.322 375.28L628.772 375.35L628.507 375.83L628.715 378.31L628.519 381.06L628.961 382.94L628.624 384.8L628.819 385.75L628.567 386.18L628.674 389.14L629.307 389.41L628.944 389.87L629.364 390.19L628.857 390.25L629.205 390.41L629.004 390.43L629.156 390.12L628.797 389.94L628.949 389.65L628.711 389.84L629.211 389.85L628.709 389.8L629.065 389.93L628.808 389.91L629.031 390.06L628.62 390.19L628.951 390.26L628.709 390.35L629.25 390.23L628.834 390.33L629.085 390.25L629.012 390.09L628.945 390.32L628.77 390.25H629.241H628.741L629.173 390.12H628.874L629.203 390.06L629.023 389.72L628.955 390.11L628.644 389.89" stroke="#555555" stroke-width="1.5" stroke-linecap="round" stroke-linejoin="round"/>
<path d="M628.943 375.33H638.07" stroke="#555555" stroke-width="1.5" stroke-linecap="round" stroke-linejoin="round"/>
<path d="M629.961 389.47H639.088" stroke="#555555" stroke-width="1.5" stroke-linecap="round" stroke-linejoin="round"/>
<path d="M629.418 381.67H635.058" stroke="#555555" stroke-width="1.5" stroke-linecap="round" stroke-linejoin="round"/>
<path d="M659.203 375.65L657.901 375.91L657.86 375.71L658.371 375.72L658.002 375.83L657.886 376.25L657.684 375.99L658.164 376.03L657.802 375.75L657.346 376.07L657.795 376.15L657.53 376.62L657.739 379.11L657.543 381.85L657.985 383.74L657.648 385.6L657.842 386.54L657.591 386.97L657.698 389.93L658.331 390.21L657.967 390.66L658.387 390.98L657.881 391.04L658.229 391.2L658.028 391.23L658.18 390.91L657.82 390.73L657.973 390.44L657.735 390.63L658.235 390.65L657.732 390.6L658.089 390.72L657.831 390.7L658.055 390.85L657.643 390.98L657.975 391.06L657.732 391.14L658.274 391.02L657.858 391.12L658.108 391.05L658.036 390.88L657.969 391.12L657.794 391.05L658.265 391.04L657.765 391.05L658.197 390.91H657.898L658.227 390.85L658.047 390.51L657.979 390.91L657.667 390.69" stroke="#555555" stroke-width="1.5" stroke-linecap="round" stroke-linejoin="round"/>
<path d="M657.965 376.12H667.092" stroke="#555555" stroke-width="1.5" stroke-linecap="round" stroke-linejoin="round"/>
<path d="M658.982 390.26H668.109" stroke="#555555" stroke-width="1.5" stroke-linecap="round" stroke-linejoin="round"/>
<path d="M658.439 382.46H664.079" stroke="#555555" stroke-width="1.5" stroke-linecap="round" stroke-linejoin="round"/>
<path d="M651.11 375.59H650.371L649.577 375.01L648.7 375L647.268 375.67L645.543 377.65L645.185 378.61L645.584 378.8L645.139 379.92L646.396 382.59L649.249 383.27L650.139 384.24L650.441 385.15L650.142 385.2L650.495 385.4L650.6 386.42L650.45 388.24L649.99 388.76L650.182 389.31L649.327 390.19L649.215 390.71L648.836 391L648.987 391.12L646.768 391.75L644.136 391.62L642.974 390.97L642.676 391.17" stroke="#555555" stroke-width="1.75" stroke-linecap="round" stroke-linejoin="round"/>
<path d="M604.838 372.75L604.881 372.52L604.361 372.98L601.879 372.82L601.089 373.11L600.981 373.4L598.717 373.58L597.938 374.04L597.308 374.88L597.201 375.87L595.599 377.35L595.139 378.18L595.093 379.41L594.289 381.89L594.843 382.41L594.908 384.08L595.621 385.26L595.437 385.4L595.927 385.61L596.148 386.45L597.202 387L596.91 387.24L597.938 387.83L598.922 387.85L601.932 388.8L603.296 388.57L603.991 388.14L606.273 387.95L606.977 387.43L606.852 387.66" stroke="#555555" stroke-width="1.75" stroke-linecap="round" stroke-linejoin="round"/>
<path d="M599.693 382.26H607.229" stroke="#555555" stroke-width="1.75" stroke-linecap="round" stroke-linejoin="round"/>
<path d="M607.229 383.93V397.33" stroke="#555555" stroke-width="1.75" stroke-linecap="round" stroke-linejoin="round"/>
<path d="M621.879 374.55V390.18" stroke="#555555" stroke-width="1.75" stroke-linecap="round" stroke-linejoin="round"/>
<path d="M611.816 374.2V388.47" stroke="#555555" stroke-width="1.75" stroke-linecap="round" stroke-linejoin="round"/>
<path d="M614.344 387.46H620.205" stroke="#555555" stroke-width="1.75" stroke-linecap="round" stroke-linejoin="round"/>
<path d="M629.439 373.62L628.137 373.88L628.096 373.69L628.607 373.7L628.238 373.8L628.122 374.23L627.92 373.97L628.4 374.01L628.038 373.72L627.582 374.05L628.031 374.12L627.766 374.6L627.975 377.08L627.779 379.83L628.221 381.71L627.884 383.57L628.079 384.52L627.827 384.95L627.934 387.91L628.567 388.18L628.203 388.63L628.623 388.95L628.117 389.02L628.465 389.18L628.264 389.2L628.416 388.88L628.056 388.71L628.209 388.42L627.971 388.61L628.471 388.62L627.968 388.57L628.325 388.7L628.067 388.68L628.291 388.83L627.879 388.96L628.211 389.03L627.968 389.12L628.51 389L628.094 389.1L628.344 389.02L628.272 388.85L628.205 389.09L628.03 389.02H628.501H628.001L628.433 388.89H628.134L628.463 388.83L628.283 388.48L628.215 388.88L627.903 388.66" stroke="#555555" stroke-width="1.5" stroke-linecap="round" stroke-linejoin="round"/>
<path d="M628.201 374.1H637.328" stroke="#555555" stroke-width="1.5" stroke-linecap="round" stroke-linejoin="round"/>
<path d="M629.221 388.24H638.348" stroke="#555555" stroke-width="1.5" stroke-linecap="round" stroke-linejoin="round"/>
<path d="M628.678 380.44H634.318" stroke="#555555" stroke-width="1.5" stroke-linecap="round" stroke-linejoin="round"/>
<path d="M658.461 374.42L657.16 374.68L657.119 374.48L657.629 374.49L657.261 374.6L657.145 375.02L656.943 374.76L657.423 374.8L657.061 374.51L656.605 374.84L657.054 374.91L656.789 375.39L656.997 377.87L656.802 380.62L657.243 382.51L656.906 384.36L657.101 385.31L656.849 385.74L656.957 388.7L657.59 388.97L657.226 389.43L657.646 389.75L657.14 389.81L657.487 389.97L657.286 390L657.439 389.68L657.079 389.5L657.232 389.21L656.994 389.4L657.494 389.41L656.991 389.36L657.348 389.49L657.09 389.47L657.314 389.62L656.902 389.75L657.234 389.82L656.991 389.91L657.533 389.79L657.117 389.89L657.367 389.81L657.294 389.65L657.227 389.88L657.053 389.81H657.524H657.024L657.456 389.68H657.156L657.486 389.62L657.306 389.28L657.238 389.67L656.926 389.46" stroke="#555555" stroke-width="1.5" stroke-linecap="round" stroke-linejoin="round"/>
<path d="M657.225 374.89H666.352" stroke="#555555" stroke-width="1.5" stroke-linecap="round" stroke-linejoin="round"/>
<path d="M658.242 389.03H667.369" stroke="#555555" stroke-width="1.5" stroke-linecap="round" stroke-linejoin="round"/>
<path d="M657.699 381.23H663.339" stroke="#555555" stroke-width="1.5" stroke-linecap="round" stroke-linejoin="round"/>
<path d="M650.37 374.36H649.631L648.837 373.78L647.96 373.77L646.528 374.44L644.803 376.42L644.445 377.38L644.844 377.57L644.399 378.69L645.656 381.36L648.509 382.04L649.399 383.01L649.701 383.92L649.401 383.97L649.755 384.17L649.86 385.18L649.709 387.01L649.249 387.53L649.442 388.08L648.587 388.96L648.475 389.48L648.096 389.77L648.247 389.88L646.027 390.52L643.396 390.39L642.234 389.73L641.936 389.94" stroke="#555555" stroke-width="1.75" stroke-linecap="round" stroke-linejoin="round"/>
<path d="M391.105 342.81V357.81" stroke="#555555" stroke-width="1.5" stroke-linecap="round" stroke-linejoin="round"/>
<path d="M379.396 340.11L390.639 357.77" stroke="#555555" stroke-width="1.5" stroke-linecap="round" stroke-linejoin="round"/>
<path d="M374.238 342.12V359.78" stroke="#555555" stroke-width="1.5" stroke-linecap="round" stroke-linejoin="round"/>
<path d="M380.881 343.84V357.52" stroke="#555555" stroke-width="1.5" stroke-linecap="round" stroke-linejoin="round"/>
<path d="M389.725 342.01V357.01" stroke="#555555" stroke-width="1.5" stroke-linecap="round" stroke-linejoin="round"/>
<path d="M378.016 339.31L389.259 356.97" stroke="#555555" stroke-width="1.5" stroke-linecap="round" stroke-linejoin="round"/>
<path d="M372.855 341.32V358.98" stroke="#555555" stroke-width="1.5" stroke-linecap="round" stroke-linejoin="round"/>
<path d="M379.5 343.04V356.72" stroke="#555555" stroke-width="1.5" stroke-linecap="round" stroke-linejoin="round"/>
<path d="M402.454 343.53L403.217 343.63L402.468 343.54L403.33 343.33L403.117 343.15L404.048 341.88L404.126 341.45L403.794 341.64L403.835 342.17L403.334 342.18L402.795 342.74L402.658 343.42L403.172 343.35L402.904 343.18L402.926 342.58L402.654 343.33L401.949 343.53L402.321 343.47L402.225 343.25L402.478 343.31L403.582 342.09L403.54 340.4L402.929 340.22L402.48 341.1L401.812 341.25L402.102 341.91L401.787 341.96L402.419 342.57L402.257 342.89L403.081 342.74L403.528 341.88L402.802 341.49L401.016 342.58L401.365 343.06L401.399 343.91L401.939 344.02L401.878 343.65L403.447 342.91L404.744 341.36L404.66 341.09L404.108 341.6L402.895 341.52L403.302 341.76L402.853 342.65" stroke="#555555" stroke-width="2" stroke-linecap="round" stroke-linejoin="round"/>
<path d="M405.91 355.09L406.049 353.64L405.694 354.22L405.95 354.36L404.531 354.62L404.812 354.52L404.349 354.36L404.55 353.94L403.989 353.57L404.322 353.73L402.794 354.48L403.227 354.81L402.378 355.27L403.749 355.56L403.372 354.86L403.75 355L403.33 355.52L403.563 355.79H403.257L403.137 357.51L403.208 357.85L403.815 358.14L404.721 356.73L404.944 355.09L405.435 354.17L404.86 353.95L405.003 354.15L404.139 354.3L403.978 355.54L404.444 355.93L404.026 355.66L404.821 355L404.459 354.9L404.465 353.74L403.115 354.23L402.383 355.42L402.348 355.99L402.434 355.73L403.456 356.13L405.017 354.37L405.103 353.78L404.779 353.52L405.115 353.66L404.073 354.31L404.175 354.71" stroke="#555555" stroke-width="2" stroke-linecap="round" stroke-linejoin="round"/>
<path d="M376.859 459L374.972 459.21L375.8 459.59L375.038 462.3L375.087 464.21L374.771 464.55L374.43 466.06L375.157 468.21L374.579 468.89L375.106 471.45L374.642 472.14L375.15 473.19L374.932 473.45L375.128 473.49L374.767 473.53L374.921 473.66L374.64 473.94L375.428 474.48L374.834 474.85L375.001 475.49L374.425 475.57L374.917 475.44L374.785 475.34L375.357 474.97L375.17 474.95H375.461L374.882 475.26L374.798 474.98L375.549 475.07L374.815 475.1L374.702 475.25L375.015 475.34L374.695 475.28L374.964 475.18L374.683 475.35L374.862 475.42L374.637 475.36L375.034 475.41L374.641 475.33L374.824 475.19L374.365 475.38" stroke="#555555" stroke-width="1.75" stroke-linecap="round" stroke-linejoin="round"/>
<path d="M376.38 460.47L375.897 460.55L376.248 460.71L375.861 460.77L376.675 461.34L376.682 462.01L377.288 462.5L377.104 462.74L377.288 463.07L378.298 463.56L379.396 465.61L380.895 467.44L380.902 467.77L381.629 467.84L382.164 468.26L382.727 467.8L382.154 467.75L382.377 467.62" stroke="#555555" stroke-width="1.75" stroke-linecap="round" stroke-linejoin="round"/>
<path d="M386.68 460.69L385.465 461.4L385.568 461.72L384.072 464.27L383.017 466.84L382.245 467.73L382.387 468.02L381.997 468.48L381.688 468.36L381.999 468.57" stroke="#555555" stroke-width="1.75" stroke-linecap="round" stroke-linejoin="round"/>
<path d="M387.224 460.44L387.025 461.38L387.126 463.22L387.559 465.71L388.043 466.61L387.99 467.84L388.904 469.39L389.197 469.53L388.962 470.7L389.364 470.85L389.678 472.07L389.577 473.6L389.756 473.84L389.643 473.71L389.659 474.22L389.378 474.51L389.683 474.46L389.553 474.29L389.365 474.51" stroke="#555555" stroke-width="1.75" stroke-linecap="round" stroke-linejoin="round"/>
<path d="M481.062 457.39V475.81" stroke="#555555" stroke-width="1.75" stroke-linecap="round" stroke-linejoin="round"/>
<path d="M441.592 461.03V475.3" stroke="#555555" stroke-width="1.75" stroke-linecap="round" stroke-linejoin="round"/>
<path d="M455.552 459.6L454.251 459.86L454.209 459.67L454.72 459.68L454.352 459.78L454.236 460.21L454.034 459.95L454.514 459.99L454.152 459.7L453.695 460.03L454.145 460.1L453.88 460.58L454.088 463.06L453.892 465.81L454.334 467.69L453.997 469.55L454.192 470.5L453.94 470.93L454.047 473.89L454.68 474.16L454.317 474.61L454.737 474.93L454.231 475L454.578 475.16L454.377 475.18L454.529 474.86L454.17 474.69L454.322 474.4L454.084 474.59L454.584 474.6L454.082 474.55L454.439 474.68L454.181 474.66L454.405 474.81L453.993 474.94L454.324 475.01L454.082 475.1L454.623 474.98L454.208 475.08L454.458 475L454.385 474.83L454.318 475.07L454.143 475H454.615H454.115L454.546 474.87H454.247L454.577 474.81L454.396 474.46L454.328 474.86L454.017 474.64" stroke="#555555" stroke-width="1.5" stroke-linecap="round" stroke-linejoin="round"/>
<path d="M454.314 460.08H463.441" stroke="#555555" stroke-width="1.5" stroke-linecap="round" stroke-linejoin="round"/>
<path d="M454.789 466.42H460.429" stroke="#555555" stroke-width="1.5" stroke-linecap="round" stroke-linejoin="round"/>
<path d="M400.47 460.42L400.209 460.54L399.064 459.65L398.397 459.78L395.517 461.91L394.944 463.08L394.334 463.35L392.934 465.1L393.139 466.41L392.744 467.78L393.299 469.21L393.169 470.08L393.383 470.65L395.096 473.11L396.373 474.11L396.875 474.36L398.12 473.96L401.025 471.25L402.745 465.57L402.438 462.81L401.785 461.73L400.909 461.17L399.914 459.75L397.144 458.73L394.874 459.42L394.102 460.35L393.783 461.6L392.811 463.39" stroke="#555555" stroke-width="1.75" stroke-linecap="round" stroke-linejoin="round"/>
<path d="M408.941 475.35L408.899 475.58L409.418 475.12L411.9 475.28L412.691 474.98L412.799 474.7L415.062 474.52L415.841 474.06L416.472 473.22L416.579 472.23L418.181 470.74L418.641 469.92L418.687 468.69L419.49 466.2L418.936 465.69L418.871 464.02L418.159 462.84L418.342 462.7L417.852 462.49L417.631 461.64L416.577 461.1L416.87 460.86L415.841 460.27L414.857 460.25L411.848 459.3L410.483 459.53L409.788 459.96L407.506 460.15L406.803 460.67L406.927 460.44" stroke="#555555" stroke-width="1.75" stroke-linecap="round" stroke-linejoin="round"/>
<path d="M408.51 459.35V474.99" stroke="#555555" stroke-width="1.75" stroke-linecap="round" stroke-linejoin="round"/>
<path d="M491.912 471.6L497.773 457.36" stroke="#555555" stroke-width="1.75" stroke-linecap="round" stroke-linejoin="round"/>
<path d="M491.629 475.67L484.93 458.92" stroke="#555555" stroke-width="1.75" stroke-linecap="round" stroke-linejoin="round"/>
<path d="M434.324 461.06V476.7" stroke="#555555" stroke-width="1.75" stroke-linecap="round" stroke-linejoin="round"/>
<path d="M424.262 460.72V474.98" stroke="#555555" stroke-width="1.75" stroke-linecap="round" stroke-linejoin="round"/>
<path d="M376.12 457.77L374.233 457.97L375.061 458.36L374.298 461.07L374.348 462.98L374.032 463.32L373.69 464.83L374.418 466.98L373.84 467.66L374.366 470.22L373.903 470.91L374.41 471.96L374.193 472.22L374.389 472.26L374.028 472.3L374.182 472.42L373.901 472.71L374.688 473.24L374.094 473.62L374.262 474.26L373.685 474.34L374.178 474.21L374.045 474.11L374.618 473.74L374.431 473.72H374.722L374.143 474.03L374.059 473.74L374.81 473.84L374.076 473.87L373.963 474.02L374.276 474.11L373.956 474.04L374.225 473.94L373.944 474.12L374.122 474.18L373.898 474.13L374.295 474.18L373.901 474.1L374.085 473.95L373.625 474.15" stroke="#555555" stroke-width="1.75" stroke-linecap="round" stroke-linejoin="round"/>
<path d="M375.641 459.23L375.157 459.31L375.509 459.47L375.121 459.53L375.936 460.11L375.943 460.78L376.549 461.26L376.365 461.51L376.549 461.84L377.559 462.33L378.657 464.38L380.156 466.21L380.163 466.53L380.89 466.61L381.424 467.03L381.988 466.56L381.415 466.52L381.638 466.39" stroke="#555555" stroke-width="1.75" stroke-linecap="round" stroke-linejoin="round"/>
<path d="M385.939 459.45L384.724 460.16L384.828 460.49L383.331 463.04L382.276 465.61L381.504 466.5L381.645 466.79L381.256 467.25L380.947 467.13L381.259 467.34" stroke="#555555" stroke-width="1.75" stroke-linecap="round" stroke-linejoin="round"/>
<path d="M386.483 459.21L386.285 460.15L386.386 461.98L386.818 464.48L387.302 465.38L387.25 466.61L388.164 468.16L388.457 468.29L388.222 469.47L388.624 469.62L388.938 470.84L388.836 472.37L389.016 472.61L388.903 472.48L388.919 472.98L388.638 473.28L388.943 473.23L388.813 473.06L388.624 473.28" stroke="#555555" stroke-width="1.75" stroke-linecap="round" stroke-linejoin="round"/>
<path d="M480.322 456.16V474.58" stroke="#555555" stroke-width="1.75" stroke-linecap="round" stroke-linejoin="round"/>
<path d="M440.852 459.8V474.07" stroke="#555555" stroke-width="1.75" stroke-linecap="round" stroke-linejoin="round"/>
<path d="M454.812 458.37L453.51 458.63L453.469 458.44L453.98 458.45L453.611 458.55L453.495 458.98L453.294 458.72L453.774 458.76L453.411 458.47L452.955 458.79L453.404 458.87L453.14 459.35L453.348 461.83L453.152 464.58L453.594 466.46L453.257 468.32L453.452 469.27L453.2 469.7L453.307 472.66L453.94 472.93L453.577 473.38L453.997 473.7L453.49 473.77L453.838 473.93L453.637 473.95L453.789 473.63L453.43 473.46L453.582 473.17L453.344 473.36L453.844 473.37L453.341 473.32L453.698 473.45L453.441 473.42L453.664 473.57L453.253 473.71L453.584 473.78L453.342 473.87L453.883 473.74L453.467 473.85L453.718 473.77L453.645 473.6L453.578 473.84L453.403 473.77H453.874H453.374L453.806 473.64H453.507L453.836 473.57L453.656 473.23L453.588 473.63L453.276 473.41" stroke="#555555" stroke-width="1.5" stroke-linecap="round" stroke-linejoin="round"/>
<path d="M453.574 458.84H462.702" stroke="#555555" stroke-width="1.5" stroke-linecap="round" stroke-linejoin="round"/>
<path d="M454.051 465.19H459.691" stroke="#555555" stroke-width="1.5" stroke-linecap="round" stroke-linejoin="round"/>
<path d="M399.731 459.19L399.471 459.31L398.326 458.41L397.658 458.55L394.779 460.68L394.205 461.85L393.595 462.12L392.196 463.87L392.401 465.18L392.006 466.55L392.56 467.98L392.431 468.85L392.645 469.42L394.358 471.88L395.635 472.88L396.137 473.12L397.382 472.72L400.287 470.02L402.007 464.34L401.7 461.58L401.047 460.5L400.171 459.94L399.176 458.52L396.406 457.5L394.136 458.19L393.364 459.12L393.045 460.37L392.072 462.16" stroke="#555555" stroke-width="1.75" stroke-linecap="round" stroke-linejoin="round"/>
<path d="M408.2 474.12L408.157 474.34L408.677 473.89L411.159 474.05L411.949 473.75L412.057 473.46L414.321 473.29L415.1 472.83L415.73 471.98L415.837 471L417.439 469.51L417.899 468.69L417.945 467.45L418.749 464.97L418.195 464.46L418.13 462.79L417.417 461.61L417.601 461.47L417.111 461.26L416.89 460.41L415.836 459.87L416.128 459.62L415.1 459.04L414.116 459.02L411.107 458.07L409.742 458.3L409.047 458.73L406.765 458.92L406.061 459.43L406.186 459.21" stroke="#555555" stroke-width="1.75" stroke-linecap="round" stroke-linejoin="round"/>
<path d="M407.77 458.12V473.76" stroke="#555555" stroke-width="1.75" stroke-linecap="round" stroke-linejoin="round"/>
<path d="M491.174 470.37L497.035 456.13" stroke="#555555" stroke-width="1.75" stroke-linecap="round" stroke-linejoin="round"/>
<path d="M490.888 474.43L484.189 457.69" stroke="#555555" stroke-width="1.75" stroke-linecap="round" stroke-linejoin="round"/>
<path d="M433.586 459.83V475.47" stroke="#555555" stroke-width="1.75" stroke-linecap="round" stroke-linejoin="round"/>
<path d="M423.521 459.49V473.75" stroke="#555555" stroke-width="1.75" stroke-linecap="round" stroke-linejoin="round"/>
<path d="M444.119 474.3H449.98" stroke="#555555" stroke-width="1.75" stroke-linecap="round" stroke-linejoin="round"/>
<path d="M455.332 474.22H464.459" stroke="#555555" stroke-width="1.5" stroke-linecap="round" stroke-linejoin="round"/>
<path d="M426.789 473.98H432.65" stroke="#555555" stroke-width="1.75" stroke-linecap="round" stroke-linejoin="round"/>
<path d="M443.379 473.06H449.241" stroke="#555555" stroke-width="1.75" stroke-linecap="round" stroke-linejoin="round"/>
<path d="M454.594 472.98H463.721" stroke="#555555" stroke-width="1.5" stroke-linecap="round" stroke-linejoin="round"/>
<path d="M426.049 472.75H431.91" stroke="#555555" stroke-width="1.75" stroke-linecap="round" stroke-linejoin="round"/>
<path d="M388.188 192.44L388.231 192.21L387.711 192.66L385.229 192.51L384.439 192.8L384.331 193.09L382.068 193.27L381.289 193.72L380.658 194.57L380.551 195.56L378.949 197.04L378.489 197.86L378.443 199.1L377.639 201.58L378.193 202.1L378.258 203.77L378.971 204.95L378.787 205.09L379.277 205.29L379.499 206.14L380.553 206.69L380.26 206.93L381.288 207.52L382.273 207.54L385.282 208.48L386.646 208.25L387.341 207.83L389.624 207.64L390.327 207.12L390.203 207.34" stroke="#555555" stroke-width="1.75" stroke-linecap="round" stroke-linejoin="round"/>
<path d="M395.287 195.62V209.88" stroke="#555555" stroke-width="1.75" stroke-linecap="round" stroke-linejoin="round"/>
<path d="M438.184 191.58V210" stroke="#555555" stroke-width="1.75" stroke-linecap="round" stroke-linejoin="round"/>
<path d="M454.785 192.54L454.828 192.31L454.309 192.76L451.826 192.61L451.036 192.9L450.928 193.19L448.665 193.36L447.886 193.82L447.255 194.67L447.148 195.65L445.546 197.14L445.086 197.96L445.04 199.2L444.236 201.68L444.79 202.2L444.855 203.86L445.568 205.04L445.385 205.19L445.875 205.39L446.096 206.24L447.15 206.79L446.857 207.03L447.886 207.61L448.87 207.63L451.879 208.58L453.243 208.35L453.939 207.92L456.221 207.74L456.924 207.22L456.8 207.44" stroke="#555555" stroke-width="1.75" stroke-linecap="round" stroke-linejoin="round"/>
<path d="M449.641 202.04H457.177" stroke="#555555" stroke-width="1.75" stroke-linecap="round" stroke-linejoin="round"/>
<path d="M457.178 203.72V217.12" stroke="#555555" stroke-width="1.75" stroke-linecap="round" stroke-linejoin="round"/>
<path d="M470.069 195.09L468.815 194.99L467.544 195.77L465.99 197.42L465.869 198.08L465.006 199.34L464.583 201.22L463.85 202.31L463.88 203.69L463.605 204.54L463.93 205.55L463.724 206.14L464.563 206.54L464.806 206.87L464.688 207.19L465.216 207.83L466.748 208.3L468.61 208.42L469.691 208.19L471.321 207.36L471.484 206.72L472.425 206.03L473.143 204.99L473.024 204.04L473.617 202.62L473.765 201.48L472.825 200.28L472.767 199.52L471.759 198.41L471.087 196.44L469.566 195.75L469.338 195.86" stroke="#555555" stroke-width="1.75" stroke-linecap="round" stroke-linejoin="round"/>
<path d="M491.971 194.42H491.232L490.438 193.85L489.561 193.84L488.129 194.5L486.404 196.48L486.046 197.45L486.445 197.63L486 198.76L487.257 201.42L490.11 202.11L491 203.07L491.302 203.98L491.003 204.03L491.356 204.24L491.461 205.25L491.31 207.07L490.851 207.59L491.043 208.14L490.188 209.02L490.076 209.54L489.697 209.84L489.848 209.95L487.629 210.58L484.997 210.45L483.835 209.8L483.537 210" stroke="#555555" stroke-width="1.75" stroke-linecap="round" stroke-linejoin="round"/>
<path d="M478.77 190.32L478.725 190.72L479.111 190.82L478.969 190.94L479.824 191.93L480.749 194.8L480.501 197.69L481.123 199.93" stroke="#555555" stroke-width="1.75" stroke-linecap="round" stroke-linejoin="round"/>
<path d="M397.814 208.88H403.675" stroke="#555555" stroke-width="1.75" stroke-linecap="round" stroke-linejoin="round"/>
<path d="M409.248 194.19L407.946 194.45L407.905 194.25L408.416 194.27L408.047 194.37L407.931 194.79L407.729 194.53L408.209 194.58L407.847 194.29L407.391 194.61L407.84 194.69L407.575 195.16L407.784 197.65L407.588 200.39L408.03 202.28L407.693 204.14L407.887 205.08L407.636 205.52L407.743 208.47L408.376 208.75L408.012 209.2L408.432 209.52L407.926 209.59L408.274 209.74L408.073 209.77L408.225 209.45L407.865 209.27L408.018 208.99L407.78 209.17L408.28 209.19L407.777 209.14L408.134 209.27L407.876 209.24L408.1 209.39L407.688 209.53L408.02 209.6L407.777 209.68L408.319 209.56L407.903 209.67L408.153 209.59L408.081 209.42L408.014 209.66L407.839 209.59H408.31H407.81L408.242 209.45H407.943L408.272 209.39L408.092 209.05L408.024 209.45L407.712 209.23" stroke="#555555" stroke-width="1.5" stroke-linecap="round" stroke-linejoin="round"/>
<path d="M408.01 194.66H417.137" stroke="#555555" stroke-width="1.5" stroke-linecap="round" stroke-linejoin="round"/>
<path d="M409.029 208.8H418.156" stroke="#555555" stroke-width="1.5" stroke-linecap="round" stroke-linejoin="round"/>
<path d="M408.486 201.01H414.126" stroke="#555555" stroke-width="1.5" stroke-linecap="round" stroke-linejoin="round"/>
<path d="M424.126 196.68L421.6 196.83L422.605 196.69L422.352 196.7L422.545 196.88L422.201 197.11L422.509 197.49L422.178 197.75L422.795 198.69L422.999 199.75L422.804 200.41L423.149 203.76L422.541 205.62L422.479 208.24L422.98 208.73L423.547 207.44" stroke="#555555" stroke-width="1.75" stroke-linecap="round" stroke-linejoin="round"/>
<path d="M424.381 195.36L424.172 195.09L424.289 193.52L424.107 193.26L425.357 191.68L426.051 191.2L427.315 190.85L428.809 191.18L430.183 192.53L430.579 194.22L429.556 196.94L426.896 199.99L425.752 200.31L426.211 200.07L427.097 200.41L428.828 202.06L429.98 204.28L430.981 205.48L431.154 207.48L431.747 208.94L431.978 208.72L431.802 208.67" stroke="#555555" stroke-width="1.75" stroke-linecap="round" stroke-linejoin="round"/>
<path d="M511.357 194.41H526.428" stroke="#555555" stroke-width="1.75" stroke-linecap="round" stroke-linejoin="round"/>
<path d="M519.73 193.72V208.79" stroke="#555555" stroke-width="1.75" stroke-linecap="round" stroke-linejoin="round"/>
<path d="M533.046 196.68L531.793 196.58L530.521 197.36L528.967 199.01L528.846 199.66L527.983 200.92L527.561 202.8L526.828 203.9L526.857 205.27L526.582 206.12L526.908 207.13L526.701 207.72L527.54 208.13L527.784 208.46L527.666 208.77L528.193 209.41L529.726 209.88L531.588 210.01L532.668 209.78L534.298 208.95L534.462 208.31L535.402 207.62L536.12 206.58L536.002 205.63L536.594 204.2L536.743 203.07L535.803 201.86L535.745 201.11L534.737 199.99L534.065 198.02L532.544 197.34L532.316 197.45" stroke="#555555" stroke-width="1.75" stroke-linecap="round" stroke-linejoin="round"/>
<path d="M552.5 209.39L554.387 209.19L553.559 208.8L554.321 206.09L554.272 204.18L554.588 203.84L554.929 202.33L554.202 200.18L554.78 199.5L554.253 196.94L554.717 196.25L554.209 195.2L554.426 194.94L554.23 194.9L554.592 194.87L554.438 194.74L554.719 194.45L553.931 193.92L554.525 193.54L554.358 192.9L554.934 192.82L554.442 192.95L554.574 193.05L554.002 193.42L554.188 193.44H553.898L554.477 193.13L554.561 193.42L553.81 193.32L554.543 193.3L554.657 193.14L554.344 193.06L554.664 193.12L554.395 193.22L554.676 193.04L554.497 192.98L554.721 193.03L554.325 192.98L554.718 193.06L554.534 193.21L554.994 193.02" stroke="#555555" stroke-width="1.75" stroke-linecap="round" stroke-linejoin="round"/>
<path d="M552.98 207.93L553.463 207.85L553.112 207.69L553.499 207.63L552.685 207.05L552.677 206.38L552.072 205.9L552.256 205.65L552.072 205.33L551.062 204.84L549.964 202.78L548.465 200.95L548.458 200.63L547.73 200.55L547.196 200.14L546.633 200.6L547.206 200.64L546.983 200.77" stroke="#555555" stroke-width="1.75" stroke-linecap="round" stroke-linejoin="round"/>
<path d="M542.68 207.71L543.895 207L543.792 206.68L545.289 204.12L546.344 201.55L547.115 200.66L546.974 200.37L547.364 199.92L547.673 200.04L547.361 199.82" stroke="#555555" stroke-width="1.75" stroke-linecap="round" stroke-linejoin="round"/>
<path d="M542.135 207.95L542.333 207.01L542.233 205.18L541.8 202.68L541.316 201.78L541.368 200.55L540.454 199L540.162 198.87L540.397 197.69L539.995 197.55L539.681 196.32L539.782 194.79L539.602 194.55L539.716 194.68L539.699 194.18L539.981 193.88L539.676 193.93L539.806 194.1L539.994 193.89" stroke="#555555" stroke-width="1.75" stroke-linecap="round" stroke-linejoin="round"/>
<path d="M563.268 194.43L561.967 194.69L561.926 194.49L562.436 194.5L562.068 194.61L561.952 195.03L561.75 194.77L562.23 194.81L561.868 194.53L561.412 194.85L561.861 194.93L561.596 195.4L561.804 197.89L561.609 200.63L562.05 202.52L561.714 204.38L561.908 205.32L561.656 205.75L561.764 208.71L562.397 208.99L562.033 209.44L562.453 209.76L561.947 209.82L562.294 209.98L562.093 210.01L562.246 209.69L561.886 209.51L562.039 209.23L561.801 209.41L562.301 209.43L561.798 209.38L562.155 209.5L561.897 209.48L562.121 209.63L561.709 209.76L562.041 209.84L561.798 209.92L562.34 209.8L561.924 209.9L562.174 209.83L562.101 209.66L562.034 209.9L561.86 209.83L562.331 209.82L561.831 209.83L562.263 209.69H561.963L562.293 209.63L562.113 209.29L562.045 209.69L561.733 209.47" stroke="#555555" stroke-width="1.5" stroke-linecap="round" stroke-linejoin="round"/>
<path d="M562.031 194.9H571.158" stroke="#555555" stroke-width="1.5" stroke-linecap="round" stroke-linejoin="round"/>
<path d="M563.051 209.04H572.178" stroke="#555555" stroke-width="1.5" stroke-linecap="round" stroke-linejoin="round"/>
<path d="M562.508 201.24H568.148" stroke="#555555" stroke-width="1.5" stroke-linecap="round" stroke-linejoin="round"/>
<path d="M578.147 196.92L575.621 197.07L576.626 196.93L576.373 196.94L576.566 197.12L576.221 197.35L576.53 197.73L576.198 197.99L576.815 198.93L577.02 199.99L576.825 200.65L577.169 203.99L576.562 205.86L576.5 208.48L577 208.97L577.568 207.68" stroke="#555555" stroke-width="1.75" stroke-linecap="round" stroke-linejoin="round"/>
<path d="M578.404 195.6L578.196 195.32L578.312 193.76L578.131 193.5L579.381 191.92L580.075 191.44L581.339 191.09L582.833 191.42L584.207 192.77L584.603 194.46L583.58 197.18L580.92 200.23L579.776 200.54L580.234 200.31L581.121 200.65L582.852 202.3L584.003 204.52L585.004 205.72L585.178 207.72L585.771 209.18L586.002 208.96L585.826 208.91" stroke="#555555" stroke-width="1.75" stroke-linecap="round" stroke-linejoin="round"/>
<path d="M387.447 191.21L387.49 190.98L386.97 191.43L384.488 191.28L383.698 191.57L383.59 191.86L381.327 192.03L380.547 192.49L379.917 193.34L379.81 194.32L378.208 195.81L377.748 196.63L377.702 197.87L376.898 200.35L377.452 200.87L377.517 202.53L378.23 203.71L378.046 203.86L378.536 204.06L378.758 204.91L379.811 205.46L379.519 205.7L380.547 206.28L381.532 206.3L384.541 207.25L385.905 207.02L386.6 206.59L388.883 206.41L389.586 205.89L389.461 206.11" stroke="#555555" stroke-width="1.75" stroke-linecap="round" stroke-linejoin="round"/>
<path d="M394.547 194.39V208.65" stroke="#555555" stroke-width="1.75" stroke-linecap="round" stroke-linejoin="round"/>
<path d="M437.443 190.35V208.77" stroke="#555555" stroke-width="1.75" stroke-linecap="round" stroke-linejoin="round"/>
<path d="M454.045 191.3L454.088 191.08L453.568 191.53L451.086 191.37L450.296 191.67L450.188 191.96L447.925 192.13L447.146 192.59L446.515 193.44L446.408 194.42L444.806 195.91L444.346 196.73L444.3 197.97L443.496 200.45L444.05 200.97L444.115 202.63L444.828 203.81L444.644 203.96L445.134 204.16L445.356 205.01L446.41 205.55L446.117 205.8L447.145 206.38L448.13 206.4L451.139 207.35L452.503 207.12L453.198 206.69L455.481 206.5L456.184 205.99L456.06 206.21" stroke="#555555" stroke-width="1.75" stroke-linecap="round" stroke-linejoin="round"/>
<path d="M448.9 200.81H456.436" stroke="#555555" stroke-width="1.75" stroke-linecap="round" stroke-linejoin="round"/>
<path d="M456.438 202.49V215.88" stroke="#555555" stroke-width="1.75" stroke-linecap="round" stroke-linejoin="round"/>
<path d="M469.328 193.86L468.074 193.76L466.802 194.54L465.248 196.19L465.127 196.84L464.264 198.11L463.842 199.98L463.109 201.08L463.138 202.45L462.863 203.31L463.189 204.31L462.982 204.91L463.821 205.31L464.065 205.64L463.947 205.96L464.475 206.6L466.007 207.07L467.869 207.19L468.949 206.96L470.58 206.13L470.743 205.49L471.683 204.8L472.402 203.76L472.283 202.81L472.876 201.39L473.024 200.25L472.084 199.05L472.026 198.29L471.018 197.17L470.346 195.2L468.825 194.52L468.597 194.63" stroke="#555555" stroke-width="1.75" stroke-linecap="round" stroke-linejoin="round"/>
<path d="M491.232 193.19H490.493L489.698 192.61L488.822 192.6L487.39 193.27L485.665 195.25L485.307 196.22L485.706 196.4L485.261 197.53L486.518 200.19L489.371 200.87L490.261 201.84L490.562 202.75L490.263 202.8L490.617 203L490.722 204.02L490.571 205.84L490.111 206.36L490.304 206.91L489.449 207.79L489.337 208.31L488.958 208.61L489.109 208.72L486.889 209.35L484.258 209.22L483.096 208.57L482.797 208.77" stroke="#555555" stroke-width="1.75" stroke-linecap="round" stroke-linejoin="round"/>
<path d="M478.029 189.09L477.984 189.49L478.369 189.59L478.228 189.71L479.083 190.7L480.008 193.57L479.76 196.46L480.382 198.7" stroke="#555555" stroke-width="1.75" stroke-linecap="round" stroke-linejoin="round"/>
<path d="M397.074 207.65H402.935" stroke="#555555" stroke-width="1.75" stroke-linecap="round" stroke-linejoin="round"/>
<path d="M408.506 192.96L407.205 193.22L407.164 193.02L407.674 193.03L407.306 193.14L407.19 193.56L406.988 193.3L407.468 193.34L407.106 193.06L406.65 193.38L407.099 193.46L406.834 193.93L407.042 196.42L406.847 199.16L407.288 201.05L406.952 202.91L407.146 203.85L406.894 204.28L407.002 207.24L407.635 207.52L407.271 207.97L407.691 208.29L407.185 208.35L407.532 208.51L407.331 208.54L407.484 208.22L407.124 208.04L407.277 207.76L407.039 207.94L407.539 207.96L407.036 207.91L407.393 208.03L407.135 208.01L407.359 208.16L406.947 208.29L407.279 208.37L407.036 208.45L407.578 208.33L407.162 208.43L407.412 208.36L407.339 208.19L407.272 208.43L407.098 208.36L407.569 208.35L407.069 208.36L407.501 208.22H407.201L407.531 208.16L407.351 207.82L407.283 208.22L406.971 208" stroke="#555555" stroke-width="1.5" stroke-linecap="round" stroke-linejoin="round"/>
<path d="M407.27 193.43H416.397" stroke="#555555" stroke-width="1.5" stroke-linecap="round" stroke-linejoin="round"/>
<path d="M408.289 207.57H417.416" stroke="#555555" stroke-width="1.5" stroke-linecap="round" stroke-linejoin="round"/>
<path d="M407.744 199.77H413.384" stroke="#555555" stroke-width="1.5" stroke-linecap="round" stroke-linejoin="round"/>
<path d="M423.385 195.45L420.859 195.6L421.864 195.46L421.611 195.47L421.804 195.65L421.459 195.88L421.768 196.26L421.436 196.52L422.053 197.46L422.258 198.52L422.063 199.18L422.407 202.53L421.8 204.39L421.738 207.01L422.238 207.5L422.806 206.21" stroke="#555555" stroke-width="1.75" stroke-linecap="round" stroke-linejoin="round"/>
<path d="M423.64 194.13L423.432 193.85L423.548 192.29L423.367 192.03L424.617 190.45L425.311 189.97L426.575 189.62L428.069 189.95L429.443 191.3L429.839 192.99L428.816 195.71L426.156 198.76L425.012 199.07L425.471 198.84L426.357 199.18L428.088 200.83L429.239 203.05L430.24 204.25L430.414 206.25L431.007 207.71L431.238 207.49L431.062 207.44" stroke="#555555" stroke-width="1.75" stroke-linecap="round" stroke-linejoin="round"/>
<path d="M510.617 193.18H525.688" stroke="#555555" stroke-width="1.75" stroke-linecap="round" stroke-linejoin="round"/>
<path d="M518.99 192.49V207.56" stroke="#555555" stroke-width="1.75" stroke-linecap="round" stroke-linejoin="round"/>
<path d="M532.306 195.45L531.053 195.35L529.781 196.13L528.227 197.77L528.106 198.43L527.243 199.69L526.82 201.57L526.088 202.67L526.117 204.04L525.842 204.89L526.168 205.9L525.961 206.49L526.8 206.9L527.043 207.23L526.926 207.54L527.453 208.18L528.986 208.65L530.848 208.78L531.928 208.55L533.558 207.71L533.721 207.08L534.662 206.38L535.38 205.35L535.262 204.4L535.854 202.97L536.002 201.83L535.063 200.63L535.004 199.88L533.997 198.76L533.324 196.79L531.803 196.1L531.576 196.21" stroke="#555555" stroke-width="1.75" stroke-linecap="round" stroke-linejoin="round"/>
<path d="M551.76 208.16L553.647 207.96L552.82 207.57L553.582 204.86L553.533 202.95L553.848 202.61L554.19 201.1L553.462 198.95L554.04 198.27L553.514 195.71L553.978 195.02L553.47 193.97L553.687 193.71L553.491 193.67L553.852 193.63L553.699 193.51L553.98 193.22L553.192 192.69L553.786 192.31L553.619 191.67L554.195 191.59L553.703 191.72L553.835 191.82L553.262 192.19L553.449 192.21H553.158L553.738 191.9L553.821 192.19L553.071 192.09L553.804 192.06L553.917 191.91L553.605 191.82L553.924 191.89L553.656 191.99L553.936 191.81L553.758 191.75L553.982 191.8L553.586 191.75L553.979 191.83L553.795 191.98L554.255 191.78" stroke="#555555" stroke-width="1.75" stroke-linecap="round" stroke-linejoin="round"/>
<path d="M552.238 206.7L552.722 206.62L552.371 206.46L552.758 206.4L551.943 205.82L551.936 205.15L551.33 204.67L551.514 204.42L551.331 204.09L550.32 203.6L549.222 201.55L547.723 199.72L547.717 199.4L546.989 199.32L546.455 198.9L545.891 199.37L546.465 199.41L546.242 199.54" stroke="#555555" stroke-width="1.75" stroke-linecap="round" stroke-linejoin="round"/>
<path d="M541.939 206.48L543.154 205.77L543.051 205.44L544.547 202.89L545.602 200.32L546.374 199.43L546.233 199.14L546.623 198.68L546.932 198.8L546.62 198.59" stroke="#555555" stroke-width="1.75" stroke-linecap="round" stroke-linejoin="round"/>
<path d="M541.394 206.72L541.592 205.78L541.491 203.95L541.059 201.45L540.575 200.55L540.627 199.32L539.713 197.77L539.42 197.64L539.656 196.46L539.253 196.31L538.939 195.09L539.041 193.56L538.861 193.32L538.974 193.45L538.958 192.95L539.239 192.65L538.935 192.7L539.065 192.87L539.253 192.65" stroke="#555555" stroke-width="1.75" stroke-linecap="round" stroke-linejoin="round"/>
<path d="M562.529 193.2L561.228 193.46L561.186 193.26L561.697 193.27L561.329 193.38L561.213 193.8L561.011 193.54L561.491 193.58L561.129 193.3L560.672 193.62L561.122 193.69L560.857 194.17L561.065 196.65L560.869 199.4L561.311 201.29L560.974 203.15L561.169 204.09L560.917 204.52L561.024 207.48L561.657 207.75L561.294 208.21L561.714 208.53L561.208 208.59L561.555 208.75L561.354 208.78L561.506 208.46L561.147 208.28L561.299 207.99L561.061 208.18L561.561 208.19L561.059 208.14L561.416 208.27L561.158 208.25L561.382 208.4L560.97 208.53L561.301 208.6L561.059 208.69L561.6 208.57L561.185 208.67L561.435 208.59L561.362 208.43L561.295 208.66L561.12 208.59H561.592H561.092L561.524 208.46H561.224L561.554 208.4L561.373 208.06L561.305 208.45L560.994 208.24" stroke="#555555" stroke-width="1.5" stroke-linecap="round" stroke-linejoin="round"/>
<path d="M561.293 193.67H570.42" stroke="#555555" stroke-width="1.5" stroke-linecap="round" stroke-linejoin="round"/>
<path d="M562.311 207.81H571.439" stroke="#555555" stroke-width="1.5" stroke-linecap="round" stroke-linejoin="round"/>
<path d="M561.768 200.01H567.408" stroke="#555555" stroke-width="1.5" stroke-linecap="round" stroke-linejoin="round"/>
<path d="M577.409 195.69L574.883 195.84L575.887 195.7L575.635 195.71L575.827 195.89L575.483 196.12L575.792 196.49L575.46 196.76L576.077 197.69L576.281 198.76L576.087 199.41L576.431 202.76L575.824 204.63L575.762 207.25L576.262 207.74L576.83 206.45" stroke="#555555" stroke-width="1.75" stroke-linecap="round" stroke-linejoin="round"/>
<path d="M577.664 194.37L577.456 194.09L577.572 192.53L577.391 192.27L578.641 190.69L579.335 190.21L580.599 189.86L582.093 190.19L583.466 191.53L583.863 193.23L582.84 195.94L580.18 199L579.036 199.31L579.494 199.07L580.381 199.42L582.112 201.07L583.263 203.29L584.264 204.49L584.438 206.48L585.031 207.95L585.261 207.72L585.086 207.68" stroke="#555555" stroke-width="1.75" stroke-linecap="round" stroke-linejoin="round"/>
<path d="M10 569.6L10.1681 569.97L11.2541 570.26L15.5126 569.5L22.1865 569.45L23.2559 569.21L24.753 568" stroke="#555555" stroke-width="2" stroke-linecap="round" stroke-linejoin="round"/>
<path d="M14.1861 571.87L13.4355 571.19L13.7342 571.3L12.7072 571.65L13.0893 571.91L12.635 572.07L13.0743 572.38L12.8534 573.68L13.0851 575.21L13.7798 576.14L14.2924 578.19L14.3019 580.18L14.704 581.21L14.2288 581.65L15.3078 581.5L14.7221 581.48L15.3007 580.99L14.8072 580.25L15.0846 579.74L14.7354 579.72L15.0657 579.6L14.5356 579.62L15.1656 579.57L15.5304 579.1L17.5642 579.12L17.6761 579.53L21.4967 581.39L22.3687 582.11L22.2678 582.41L23.7133 584.37L24.1768 586.05L23.6746 586.9L23.8726 588.2L23.1951 588.83L22.9275 590.26L21.7898 591.53L22.2877 591.98L21.854 592.64L22.2217 592.95L21.641 593.01L21.7507 593.26L21.3451 593.68L20.0913 594.39L18.6771 594.37L16.5756 595.05L16.0109 594.89L16.1903 594.74L13.1982 594.62L11.9651 593.85L11.0358 593.83L11.3717 593.5L10.4922 592.37L10.8944 591.76L11.4598 592.12" stroke="#555555" stroke-width="2" stroke-linecap="round" stroke-linejoin="round"/>
<rect x="365" y="258" width="314" height="242" fill="#FFDD06" fill-opacity="0.3"/>
<rect x="75" y="140" width="171" height="164" fill="#292562" fill-opacity="0.3"/>
</svg>
