<svg width="36" height="36" viewBox="0 0 36 36" fill="none" xmlns="http://www.w3.org/2000/svg">
<path d="M9.1435 33.3439L0.284743 18.001L9.1435 2.65818L26.861 2.65818L35.7198 18.001L26.861 33.3439L9.1435 33.3439Z" stroke="#555555" stroke-width="0.493182"/>
<path d="M15.2183 16H14.3376C14.2855 15.7467 14.1944 15.5241 14.0642 15.3324C13.9363 15.1406 13.7801 14.9796 13.5954 14.8494C13.4131 14.7169 13.2107 14.6174 12.9882 14.5511C12.7657 14.4848 12.5336 14.4517 12.2922 14.4517C11.8518 14.4517 11.4529 14.563 11.0954 14.7855C10.7403 15.008 10.4574 15.3359 10.2467 15.7692C10.0384 16.2024 9.93422 16.7339 9.93422 17.3636C9.93422 17.9934 10.0384 18.5249 10.2467 18.9581C10.4574 19.3913 10.7403 19.7192 11.0954 19.9418C11.4529 20.1643 11.8518 20.2756 12.2922 20.2756C12.5336 20.2756 12.7657 20.2424 12.9882 20.1761C13.2107 20.1098 13.4131 20.0116 13.5954 19.8814C13.7801 19.7488 13.9363 19.5866 14.0642 19.3949C14.1944 19.2008 14.2855 18.9782 14.3376 18.7273H15.2183C15.152 19.099 15.0313 19.4316 14.8561 19.7251C14.6809 20.0187 14.4631 20.2685 14.2027 20.4744C13.9423 20.678 13.6499 20.8331 13.3256 20.9396C13.0036 21.0462 12.6591 21.0994 12.2922 21.0994C11.6719 21.0994 11.1203 20.9479 10.6373 20.6449C10.1544 20.3419 9.77441 19.911 9.49743 19.3523C9.22044 18.7936 9.08194 18.1307 9.08194 17.3636C9.08194 16.5966 9.22044 15.9337 9.49743 15.375C9.77441 14.8163 10.1544 14.3854 10.6373 14.0824C11.1203 13.7794 11.6719 13.6278 12.2922 13.6278C12.6591 13.6278 13.0036 13.6811 13.3256 13.7876C13.6499 13.8942 13.9423 14.0504 14.2027 14.2564C14.4631 14.46 14.6809 14.7086 14.8561 15.0021C15.0313 15.2933 15.152 15.6259 15.2183 16ZM20.6187 15.5455C20.5761 15.1856 20.4033 14.9062 20.1002 14.7074C19.7972 14.5085 19.4255 14.4091 18.9852 14.4091C18.6632 14.4091 18.3815 14.4612 18.14 14.5653C17.9009 14.6695 17.7139 14.8127 17.5789 14.995C17.4463 15.1773 17.3801 15.3845 17.3801 15.6165C17.3801 15.8106 17.4262 15.9775 17.5186 16.1172C17.6133 16.2545 17.734 16.3693 17.8808 16.4616C18.0276 16.5516 18.1814 16.6262 18.3424 16.6854C18.5034 16.7422 18.6514 16.7884 18.7863 16.8239L19.5249 17.0227C19.7143 17.0724 19.925 17.1411 20.157 17.2287C20.3914 17.3163 20.6151 17.4358 20.8282 17.5874C21.0436 17.7365 21.2212 17.9283 21.3609 18.1626C21.5006 18.397 21.5704 18.6847 21.5704 19.0256C21.5704 19.4186 21.4674 19.7737 21.2615 20.0909C21.0579 20.4081 20.7596 20.6603 20.3666 20.8473C19.9759 21.0343 19.5013 21.1278 18.9426 21.1278C18.4217 21.1278 17.9707 21.0438 17.5896 20.8757C17.2108 20.7076 16.9125 20.4732 16.6947 20.1726C16.4793 19.8719 16.3573 19.5227 16.3289 19.125H17.238C17.2617 19.3996 17.354 19.6269 17.515 19.8068C17.6784 19.9844 17.8843 20.117 18.1329 20.2045C18.3838 20.2898 18.6537 20.3324 18.9426 20.3324C19.2787 20.3324 19.5806 20.2779 19.8481 20.169C20.1156 20.0578 20.3275 19.9039 20.4838 19.7074C20.64 19.5085 20.7181 19.2765 20.7181 19.0114C20.7181 18.7699 20.6507 18.5734 20.5157 18.4219C20.3808 18.2704 20.2032 18.1473 19.983 18.0526C19.7629 17.9579 19.5249 17.875 19.2693 17.804L18.3744 17.5483C17.8062 17.3849 17.3564 17.1518 17.0249 16.8487C16.6935 16.5457 16.5278 16.1491 16.5278 15.6591C16.5278 15.2519 16.6379 14.8968 16.858 14.5938C17.0806 14.2884 17.3789 14.0516 17.7529 13.8835C18.1294 13.7131 18.5496 13.6278 19.0136 13.6278C19.4823 13.6278 19.899 13.7119 20.2636 13.88C20.6282 14.0457 20.917 14.273 21.1301 14.5618C21.3455 14.8506 21.4591 15.1785 21.471 15.5455H20.6187ZM26.9956 15.5455C26.953 15.1856 26.7802 14.9062 26.4772 14.7074C26.1742 14.5085 25.8025 14.4091 25.3621 14.4091C25.0402 14.4091 24.7584 14.4612 24.517 14.5653C24.2778 14.6695 24.0908 14.8127 23.9559 14.995C23.8233 15.1773 23.757 15.3845 23.757 15.6165C23.757 15.8106 23.8032 15.9775 23.8955 16.1172C23.9902 16.2545 24.1109 16.3693 24.2577 16.4616C24.4045 16.5516 24.5584 16.6262 24.7194 16.6854C24.8804 16.7422 25.0283 16.7884 25.1633 16.8239L25.9019 17.0227C26.0913 17.0724 26.302 17.1411 26.534 17.2287C26.7684 17.3163 26.9921 17.4358 27.2052 17.5874C27.4206 17.7365 27.5982 17.9283 27.7378 18.1626C27.8775 18.397 27.9474 18.6847 27.9474 19.0256C27.9474 19.4186 27.8444 19.7737 27.6384 20.0909C27.4348 20.4081 27.1365 20.6603 26.7435 20.8473C26.3529 21.0343 25.8782 21.1278 25.3195 21.1278C24.7987 21.1278 24.3477 21.0438 23.9665 20.8757C23.5877 20.7076 23.2894 20.4732 23.0716 20.1726C22.8562 19.8719 22.7343 19.5227 22.7059 19.125H23.615C23.6386 19.3996 23.731 19.6269 23.892 19.8068C24.0553 19.9844 24.2613 20.117 24.5099 20.2045C24.7608 20.2898 25.0307 20.3324 25.3195 20.3324C25.6557 20.3324 25.9575 20.2779 26.2251 20.169C26.4926 20.0578 26.7045 19.9039 26.8607 19.7074C27.017 19.5085 27.0951 19.2765 27.0951 19.0114C27.0951 18.7699 27.0276 18.5734 26.8927 18.4219C26.7577 18.2704 26.5802 18.1473 26.36 18.0526C26.1398 17.9579 25.9019 17.875 25.6462 17.804L24.7513 17.5483C24.1831 17.3849 23.7333 17.1518 23.4019 16.8487C23.0705 16.5457 22.9047 16.1491 22.9047 15.6591C22.9047 15.2519 23.0148 14.8968 23.235 14.5938C23.4575 14.2884 23.7558 14.0516 24.1299 13.8835C24.5063 13.7131 24.9265 13.6278 25.3905 13.6278C25.8593 13.6278 26.276 13.7119 26.6405 13.88C27.0051 14.0457 27.2939 14.273 27.507 14.5618C27.7224 14.8506 27.8361 15.1785 27.8479 15.5455H26.9956Z" fill="#333333"/>
</svg>
