<svg width="36" height="36" viewBox="0 0 36 36" fill="none" xmlns="http://www.w3.org/2000/svg">
<path d="M9.1435 33.3439L0.284743 18.001L9.1435 2.65818L26.861 2.65818L35.7198 18.001L26.861 33.3439L9.1435 33.3439Z" stroke="#555555" stroke-width="0.493182"/>
<path d="M16.7393 13.7273H17.62V18.5426C17.62 19.0398 17.5028 19.4837 17.2685 19.8743C17.0365 20.2625 16.7086 20.5691 16.2848 20.794C15.861 21.0166 15.3639 21.1278 14.7933 21.1278C14.2228 21.1278 13.7256 21.0166 13.3018 20.794C12.8781 20.5691 12.549 20.2625 12.3146 19.8743C12.0826 19.4837 11.9666 19.0398 11.9666 18.5426V13.7273H12.8473V18.4716C12.8473 18.8267 12.9254 19.1428 13.0817 19.4197C13.2379 19.6944 13.4605 19.911 13.7493 20.0696C14.0405 20.2259 14.3885 20.304 14.7933 20.304C15.1982 20.304 15.5462 20.2259 15.8374 20.0696C16.1286 19.911 16.3511 19.6944 16.505 19.4197C16.6612 19.1428 16.7393 18.8267 16.7393 18.4716V13.7273ZM19.8049 13.7273L21.6799 16.7528H21.7367L23.6117 13.7273H24.6486L22.3617 17.3636L24.6486 21H23.6117L21.7367 18.0312H21.6799L19.8049 21H18.7679L21.1117 17.3636L18.7679 13.7273H19.8049Z" fill="#333333"/>
</svg>
