<svg width="36" height="36" viewBox="0 0 36 36" fill="none" xmlns="http://www.w3.org/2000/svg">
<path d="M9.1435 33.3439L0.284743 18.001L9.1435 2.65818L26.861 2.65818L35.7198 18.001L26.861 33.3439L9.1435 33.3439Z" stroke="#555555" stroke-width="0.493182"/>
<path d="M5.21076 21V13.7273H6.09144V16.9659H9.96928V13.7273H10.85V21H9.96928V17.7472H6.09144V21H5.21076ZM12.2154 14.5085V13.7273H17.6699V14.5085H15.383V21H14.5023V14.5085H12.2154ZM19.0291 13.7273H20.0803L22.5518 19.7642H22.6371L25.1087 13.7273H26.1598V21H25.3359V15.4744H25.2649L22.9922 21H22.1967L19.924 15.4744H19.853V21H19.0291V13.7273ZM27.9256 21V13.7273H28.8063V20.2188H32.187V21H27.9256Z" fill="#333333"/>
</svg>
