<svg width="36" height="36" viewBox="0 0 36 36" fill="none" xmlns="http://www.w3.org/2000/svg">
<path d="M9.1435 33.3439L0.284743 18.001L9.1435 2.65818L26.861 2.65818L35.7198 18.001L26.861 33.3439L9.1435 33.3439Z" stroke="#555555" stroke-width="0.493182"/>
<path d="M15.7615 13.7273H16.6421V18.9261C16.6421 19.3902 16.5569 19.7843 16.3865 20.1087C16.216 20.433 15.9757 20.6792 15.6656 20.8473C15.3554 21.0154 14.9897 21.0994 14.5683 21.0994C14.1705 21.0994 13.8166 21.0272 13.5065 20.8828C13.1963 20.736 12.9525 20.5277 12.7749 20.2578C12.5974 19.9879 12.5086 19.6671 12.5086 19.2955H13.3751C13.3751 19.5014 13.426 19.6813 13.5278 19.8352C13.632 19.9867 13.774 20.1051 13.9539 20.1903C14.1338 20.2756 14.3386 20.3182 14.5683 20.3182C14.8216 20.3182 15.037 20.2649 15.2146 20.1584C15.3921 20.0518 15.5271 19.8956 15.6194 19.6896C15.7141 19.4813 15.7615 19.2268 15.7615 18.9261V13.7273ZM22.3843 15.5455C22.3417 15.1856 22.1689 14.9062 21.8659 14.7074C21.5628 14.5085 21.1911 14.4091 20.7508 14.4091C20.4288 14.4091 20.1471 14.4612 19.9056 14.5653C19.6665 14.6695 19.4795 14.8127 19.3445 14.995C19.212 15.1773 19.1457 15.3845 19.1457 15.6165C19.1457 15.8106 19.1919 15.9775 19.2842 16.1172C19.3789 16.2545 19.4996 16.3693 19.6464 16.4616C19.7932 16.5516 19.9471 16.6262 20.108 16.6854C20.269 16.7422 20.417 16.7884 20.5519 16.8239L21.2906 17.0227C21.48 17.0724 21.6907 17.1411 21.9227 17.2287C22.157 17.3163 22.3808 17.4358 22.5938 17.5874C22.8093 17.7365 22.9868 17.9283 23.1265 18.1626C23.2662 18.397 23.336 18.6847 23.336 19.0256C23.336 19.4186 23.233 19.7737 23.0271 20.0909C22.8235 20.4081 22.5252 20.6603 22.1322 20.8473C21.7416 21.0343 21.2669 21.1278 20.7082 21.1278C20.1874 21.1278 19.7364 21.0438 19.3552 20.8757C18.9764 20.7076 18.6781 20.4732 18.4603 20.1726C18.2449 19.8719 18.123 19.5227 18.0945 19.125H19.0036C19.0273 19.3996 19.1196 19.6269 19.2806 19.8068C19.444 19.9844 19.6499 20.117 19.8985 20.2045C20.1495 20.2898 20.4194 20.3324 20.7082 20.3324C21.0444 20.3324 21.3462 20.2779 21.6137 20.169C21.8812 20.0578 22.0931 19.9039 22.2494 19.7074C22.4056 19.5085 22.4838 19.2765 22.4838 19.0114C22.4838 18.7699 22.4163 18.5734 22.2813 18.4219C22.1464 18.2704 21.9688 18.1473 21.7487 18.0526C21.5285 17.9579 21.2906 17.875 21.0349 17.804L20.14 17.5483C19.5718 17.3849 19.122 17.1518 18.7906 16.8487C18.4591 16.5457 18.2934 16.1491 18.2934 15.6591C18.2934 15.2519 18.4035 14.8968 18.6237 14.5938C18.8462 14.2884 19.1445 14.0516 19.5186 13.8835C19.895 13.7131 20.3152 13.6278 20.7792 13.6278C21.248 13.6278 21.6646 13.7119 22.0292 13.88C22.3938 14.0457 22.6826 14.273 22.8957 14.5618C23.1111 14.8506 23.2248 15.1785 23.2366 15.5455H22.3843Z" fill="#333333"/>
</svg>
