<svg width="36" height="36" viewBox="0 0 36 36" fill="none" xmlns="http://www.w3.org/2000/svg">
<path d="M9.1435 33.3439L0.284743 18.001L9.1435 2.65818L26.861 2.65818L35.7198 18.001L26.861 33.3439L9.1435 33.3439Z" stroke="#555555" stroke-width="0.493182"/>
<path d="M19.1241 13.7273H20.0048V18.5426C20.0048 19.0398 19.8876 19.4837 19.6532 19.8743C19.4212 20.2625 19.0933 20.5691 18.6696 20.794C18.2458 21.0166 17.7486 21.1278 17.1781 21.1278C16.6075 21.1278 16.1104 21.0166 15.6866 20.794C15.2628 20.5691 14.9338 20.2625 14.6994 19.8743C14.4674 19.4837 14.3514 19.0398 14.3514 18.5426V13.7273H15.2321V18.4716C15.2321 18.8267 15.3102 19.1428 15.4664 19.4197C15.6227 19.6944 15.8452 19.911 16.1341 20.0696C16.4252 20.2259 16.7733 20.304 17.1781 20.304C17.5829 20.304 17.9309 20.2259 18.2221 20.0696C18.5133 19.911 18.7359 19.6944 18.8897 19.4197C19.046 19.1428 19.1241 18.8267 19.1241 18.4716V13.7273ZM22.6442 13.7273V21H21.7635V13.7273H22.6442Z" fill="#333333"/>
</svg>
