<svg width="172" height="170" viewBox="0 0 172 170" fill="none" xmlns="http://www.w3.org/2000/svg">
<path d="M136.992 7.70093L137.049 7.46191L136.568 7.33392L135.761 7.96295L134.45 8.27997L131.426 8.02692L125.19 8.15094L120.954 7.59094L118.756 6.43591L114.262 5.76392L111.82 5.11993L110.511 4.38391L107.273 3.62897L99.0919 4.00293L86.252 3.19995L80.1549 3.36597L72.3599 4.47693L66.5289 4.46594L60.4609 5.25397L57.9219 5.96497L51.0869 5.97797L47.5669 6.56592L44.3809 6.67395L41.9109 7.41296L37.7259 8.11292L36.5809 9.11493L34.9599 9.72394L32.1689 12.3979L31.2229 13.9699L28.5929 15.603L28.3619 16.129L27.0469 16.955L26.4889 17.9509L24.2739 19.726L23.0739 20.0389L20.4719 22.3969L15.2129 28.7399L15.1809 29.5919L13.7539 31.762L13.5359 34.0359L12.5499 36.8179L12.3039 39.0699L11.7069 39.8619L11.5889 42.8159L10.9429 46.213L11.5439 49.33L11.6199 55.3969L11.9659 56.7609L10.9379 63.937L10.4539 64.864L9.73694 70.257L8.73193 74.7939L9.15094 78.3669L8.96893 80.416L9.31194 82.3809L10.4999 85.5839L11.3379 90.278L12.1329 92.5109L12.0939 96.1819L13.2279 102.675L12.3939 104.48L12.4839 105.706L11.7509 107.06L11.7399 107.929L11.0129 109.005L11.2669 110.136L10.3169 113.081L10.2209 114.693L10.9059 117.218L10.7649 118.324L11.2459 121.064L10.9349 122.832L11.3969 125.345L11.7319 125.738L11.8399 129.47L12.1709 129.993L12.0809 130.882L12.4899 130.789L11.8079 130.77L12.4269 132.249L12.0149 131.812L12.3149 131.653L11.9589 131.661L13.7329 132.14" stroke="#555555" stroke-width="2" stroke-linecap="round" stroke-linejoin="round"/>
<path d="M129.755 9.21509L131.577 8.96509L133.587 10.5201L135.247 11.1801L141.878 12.4971L148.617 15.0431L152.269 17.4401L152.693 18.311L154.194 18.915L155.493 20.9111L156.884 22.0101L156.82 22.527L157.823 23.7801L157.932 24.524L159.389 26.2181L159.811 27.48L159.98 30.0051L160.623 31.2261L161.373 35.9781L161.098 37.0381L161.623 38.1221L161.379 42.4631L160.76 45.5511L160.069 52.3461L160.505 58.0251L161.096 60.3931L160.999 63.454L161.595 68.6411L161.452 69.4501L161.781 70.3121L161.376 71.5341L161.649 73.178L161.333 73.6561L161.673 74.3851L161.293 75.2101L161.932 76.321L161.969 77.8781L162.501 79.889L162.293 82.7811L162.745 86.454L162.344 88.1771L162.42 89.8751L163.467 89.282L165.319 82.092L168.242 74.6271L168.937 71.6801L169.156 68.3041L168.768 67.2441L168.851 65.5311L167.982 62.537L163.436 53.3221L161.136 46.1151L158.209 33.009L156.342 29.6891L156.22 28.4311L156.378 27.998L156.749 28.1501L156.292 28.3921L156.291 28.72L157.476 30.0751L158.702 32.389L161.658 39.9581L163.741 49.9951L163.685 52.3671L164.549 56.759L164.017 66.9051L162.941 71.8981L162.674 75.063L163.241 77.3791L162.992 78.4741L163.607 85.8481V90.2861L164.907 98.608L164.468 105.637L164.807 110.802L164.499 114.732L164.907 117.028L164.498 120.023L164.9 121.56L165.046 125.274L165.919 129.87L165.813 132.344L165.481 132.519L166.159 132.829L166.216 133.206L165.728 133.49L165.688 134.359L165.19 134.788L164.47 136.769L163.57 137.872L163.184 137.867" stroke="#555555" stroke-width="2" stroke-linecap="round" stroke-linejoin="round"/>
<path d="M16.035 129.208L15.82 131.688L14.474 135.099L14.524 137.294L15.672 141.125L17.117 142.582L17.71 143.783L19.408 144.931L20.644 146.312L32.709 155.156L37.384 157.148L53.927 161.583L65.207 162.603L68.719 162.639L79.015 164.977L99.043 164.532L101.879 163.991L107.786 162.018L111.996 161.205L120.069 161.349L126.844 159.872L132.711 160.707L138.219 160.941L144.956 159.884L147.443 159.032L150.834 157.69L158.234 153.958L157.863 153.896L158.755 153.191L158.736 152.255L159.812 151.57L159.642 151.048L162.774 149.436L164.421 147.859L164.779 145.36L164.407 144.176L165.102 141.603L164.617 140.845L164.839 140.879L164.74 139.638L164.531 139.735L164.671 139.992L165.012 139.862L164.48 139.915L164.799 139.904L164.582 139.83L166.36 137.847L165.955 137.606L166.101 135.318L166.44 133.685L166.689 133.605L166.655 133.313L166.353 133.461" stroke="#555555" stroke-width="2" stroke-linecap="round" stroke-linejoin="round"/>
<path d="M23.4771 114.648L30.4361 104.755L36.073 97.823L37.431 95.543L44.306 88.005L46.5201 85.076L51.161 80.503L51.884 79.121L53.799 77.467L56.8111 73.717L59.677 71.305L60.9621 69.651L61.637 68.132L62.361 68.13L61.736 68.143L62.328 68.134L61.9581 68.141L62.241 68.241L61.9621 68.193L61.815 68.705" stroke="#555555" stroke-width="2" stroke-linecap="round" stroke-linejoin="round"/>
<path d="M59.786 61.116L61.34 60.1389L61.643 60.4449L61.266 60.8909L61.967 61.504L63.314 64.1949L65.704 67.3619L68.096 75.4509L70.007 78.6349L70.74 80.869L72.635 84.5999L75.632 88.4999L78.01 93.2499L82.911 99.6229L87.01 103.905L89.515 109.337L92.694 113.711L96.464 121.102L97.459 121.875L97.922 122.987L98.728 123.251L98.424 123.454L99.233 123.844L100.259 123.858L101.233 124.415L101.24 125.751" stroke="#555555" stroke-width="2" stroke-linecap="round" stroke-linejoin="round"/>
<path d="M92.735 121.974L92.982 117.967L91.839 117.78L93.692 116.07L95.934 114.679L96.84 113.472L110.388 104.682L116.568 99.9531L123.687 96.2711L123.994 96.2581L123.771 96.5131L125.585 96.2341L127.006 95.634L126.53 95.8441L127.065 95.6461L126.551 95.8361L127.075 95.9011L126.624 95.8591L125.765 96.79L125.617 96.4771" stroke="#555555" stroke-width="2" stroke-linecap="round" stroke-linejoin="round"/>
<path d="M45.249 6.00708L43.409 7.07007L42.728 6.78406L41.199 7.22406L37.746 9.67505L34.301 10.5001L28.571 11.1381L23.143 12.811L23.195 13.2101L22.613 13.9811L20.84 15.5171L17.832 19.084L15.394 24.368L15.744 26.511L15.246 29.696L16.201 41.8741L15.648 45.545L15.088 46.8571L14.958 49.9561L13.019 62.5861L12.83 68.8671L12.116 76.0181L12.356 82.1401L12.87 86.2991L16.017 100.249L19.095 109.691L18.74 108.824L18.961 103.767" stroke="#555555" stroke-width="2" stroke-linecap="round" stroke-linejoin="round"/>
<path d="M11.306 60.0281L10.778 60.6071L10.471 61.6511L9.89403 69.5931L9.80603 76.4391L10.225 88.1241L10.89 93.524L12.026 97.9911L11.978 100.116L12.993 108.949L14.188 124.848L13.961 129.843L14.741 140.255L15.769 143.287L17.43 146.007L20.771 148.714L23.067 151.141L27.167 154.146L28.337 155.683L29.393 156.442L32.519 157.297L39.058 157.728L43.726 157.7L52.245 156.777L57.043 156.817L67.172 158.367L84.255 157.268L91.576 155.782L101.495 152.892L113.649 148.858L115.428 148.501" stroke="#555555" stroke-width="2" stroke-linecap="round" stroke-linejoin="round"/>
<path d="M157.449 141.589L160.297 141.497L165.339 141.913L164.247 142.186L163.674 143.243L162.66 144.108L159.817 145.791L148.801 151.077" stroke="#555555" stroke-width="2" stroke-linecap="round" stroke-linejoin="round"/>
<path d="M76.6841 161.623L69.1221 161.723L72.4481 161.423L96.5231 155.466L105.591 154.758L119.26 154.673L129.518 155.214L138.649 154.652L144.87 153.656L156.322 150.817L164.987 149.382L170.357 147.63L169.619 147.633L169.996 147.482L166.139 134.129L165.135 128.433L164.204 118.295L164.387 116.348L165.875 110.145L165.976 108.212L166.931 104.572L168.235 92.4011L168.39 87.4861L168.191 84.8571L166.905 80.8061L166.478 78.363L166.211 74.087L167.461 63.191L167.474 58.5181L166.075 51.535L166.328 49.2191L165.807 45.8961L165.959 38.795L165.47 34.3091L164.21 29.6771L164.067 27.05L164.351 26.2551V23.5801L163.845 21.7551L164.018 20.441L162.964 19.7181L162.142 17.9221L161.072 17.4531L159.017 17.3361L156.556 17.8281L153.003 17.8921L141.709 14.8851L137.204 12.7621L129.609 10.1351L121.156 8.47705L116.568 8.84106L113.57 9.64508L108.203 10.483L101.67 10.8061L93.5931 10.694L77.7731 11.212L65.1951 10.1551L52.6861 10.006L49.3191 10.373L46.4221 10.8271L41.4081 12.5441L32.7821 17.009L27.6611 19.0961L21.0821 20.9551L19.1581 21.204L9.07907 20.613L1.41808 21.6271L1.75807 21.4811L1.10107 17.2831" stroke="#555555" stroke-width="2" stroke-linecap="round" stroke-linejoin="round"/>
<path d="M61.428 74.636L62.03 71.996L61.225 71.8051L59.004 73.1041L52.151 79.4301L44.369 87.8641L35.357 99.5231L29.426 106.429L18.801 115.61L14.941 120.048L16.273 118.967L26.493 107.565L35.824 98.5621L41.753 91.701L47.674 83.9551L50.748 80.4191L63.701 67.2101L68.867 62.3611L67.421 63.6921L54.309 79.436L39.656 94.319L33.379 101.471L30.578 104.13L20.408 111.673L19.718 111.927L21.101 110.704L23.31 106.79L26.899 102.396L34.887 94.7151L46.223 81.316L50.728 76.8281L51.366 75.826L51.966 73.6411L51.827 73.3591L51.196 73.699L31.586 99.8561L23.132 107.488L20.313 109.23L21.809 107.966L28.029 100.484L37.562 90.514L45.839 80.8781L52.664 74.5671L55.895 71.1541L57.606 68.8621L58.941 68.0121L57.828 68.7681L49.856 78.7751L40.718 88.9781L32.089 100.476L29.19 103.49L20.653 110.405L14.666 115.823L18.319 112.187L25.95 103.236L37.8 93.1301L48.008 82.0721L54.256 76.524L59.74 72.2971L63.72 68.11L64.246 67.2621L64.28 66.6891L63.976 66.561L63.475 67.368L61.132 68.722L59.15 70.5281L50.461 79.4711L39.685 89.7401L28.988 100.869L25.201 103.906L13.021 112.266L23.762 100.048L29.696 94.514L45.396 78.5521L52.423 72.6L57.198 69.2411L55.882 70.222L50.006 77.6531L40.997 87.1811L31.59 97.8121L28.078 101.499L16.737 110.971L14.237 113.561L12.906 114.251L16.6 110.877L25.207 101.616L37.657 90.4341L42.742 84.5721L47.626 80.204L56.217 74.1721L53.908 75.8751L45.492 84.3961L38.166 91.209L34.178 95.6931L29.561 99.811L27.432 101.257L27.032 101.664L27.288 102.008L28.101 102.047L28.899 101.48" stroke="#555555" stroke-width="2" stroke-linecap="round" stroke-linejoin="round"/>
<path d="M166.056 61.043L165.207 56.8889L163.619 44.572L161.45 38.89L160.586 35.64L160.545 34.0989L160.778 33.348L161.196 33.7869L161.021 34.4069L161.645 38.387L163.838 65.0819L164.247 71.7399L164.398 84.8079L166.518 111.323L166.74 107.991L166.556 104.082L165.572 92.9089L161.804 59.2949L160.92 38.916L161.076 35.007L161.57 32.9959L162.183 31.8569L161.93 34.575L162.244 35.007L162.912 38.8159L163.924 48.335L165.663 59.504L166.178 65.1539L167.754 99.2249L168.349 105.521L167.903 102.915L168.27 101.191L168.659 94.645L168.25 80.549L166.261 55.2849L165.768 43.554L165.897 46.4069L165.338 55.2169L164.726 76.6339L165.597 91.5029L166.159 93.5189L166.469 93.5729L166.655 92.9979L166.257 90.7809L167.39 75.2739L167.139 71.89L167.137 56.689L167.333 53.244L168.036 49.296L168.343 49.1849L168.521 50.0079L165.299 96.489L164.75 84.2239L165.047 74.8649L164.455 68.8909L165.116 64.9039L165.402 64.0939L165.759 64.231L165.857 64.916L165.442 67.3199L165.486 99.4669L165.613 110.589L165.91 111.417L164.754 103.519L164.562 97.265L164.828 87.6049L166.125 76.5779L165.137 91.4039L162.487 115.001L161.689 119.164L161.839 121.034L161.693 119.503L163.016 115.292L165.786 88.978L167.248 78.3929L167.453 77.3839L167.182 80.715L167.371 86.9039L166.728 90.3159L166.441 89.4749L166.839 88.4039L167.078 85.353L167.286 77.4999L166.933 63.072L166.046 57.767L166.117 54.4929L164.557 49.9279L161.841 38.7859L159.332 33.09L158.396 29.0439L158.579 28.887L158.792 29.546L158.414 29.4969L161.586 34.3179L163.981 42.538L164.835 46.6939L164.862 48.7089L164.094 54.8699L161.403 63.041L160.746 64.3019L159.736 65.0339L160.659 62.9359L161.343 57.2479L163.032 51.241L164.042 49.5369L164.595 49.96L163.843 51.593L163.71 60.4529L162.277 74.2039L162.609 92.8879L161.675 110.822L160.494 120.738L160.287 125.023L160.639 130.474L161.663 134.144L162.015 134.773L162.334 134.833L162.377 134.457L161.992 133.465L162.861 116.135L161.963 108.696L161.878 104.738L162.064 93.7939L162.719 86.4189L162.949 85.5449L162.508 88.171L162.778 93.3649L162.656 115.302L163.303 133.897L163.288 144.495L163.482 145.403L163.439 143.23L163.661 143.256L163.796 142.529L163.634 136.931L164.549 123.382L163.697 105.078L164.765 91.7269L164.835 91.309L165.13 91.6819L164.89 93.0859L165.128 93.8229L164.328 137.994L164.698 139.503L165.168 139.726L165.425 138.815L164.985 138.627L165.3 138.83L165.374 137.721L165.228 132.078L165.8 125.431L166.092 112.876L166.409 108.102L166.708 107.335L166.95 107.362L166.5 107.986" stroke="#555555" stroke-width="2" stroke-linecap="round" stroke-linejoin="round"/>
<path d="M19.991 52.635L18.904 42.058L17.204 33.006L15.445 28.183L13.913 26.716L13.332 26.614L13.746 27.046L13.241 29.492L12.291 43.757L12.373 55.929L16.34 113.044L16.644 113.559L17.01 113.457L17.402 111.182L17.428 103.457L17.985 94.207L17.63 84.843L14.357 62.511L13.573 51.224L12.422 43.878L12.483 41.755L12.933 40.141L13.802 42.206L13.242 43.037L14.76 66.562L18.005 106.391L18.304 118.509L17.802 124.985L17.462 124.898L17.796 122.459L17.517 121.367L18.049 117.637L18.738 107.512L18.824 95.636L17.975 84.211L14.276 56.894L13.226 38.826L13.314 35.771L13.876 34.629L13.987 35.071L16.287 66.533L17.565 100.615L17.069 113.734L17.403 120.114L17.271 119.639L17.851 117.649L17.352 116.094L17.416 114.886L18.512 107.074L19.21 91.455L18.805 80.813L17.298 61.853L16.792 48.625L16.984 43.914L17.667 40.41L17.96 41.151L18.341 82.751L19.338 122.804L19.162 132.849L19.222 134.755L19.639 134.79L19.848 129.588L21.244 117.217L21.484 106.17L20.823 96.23L18.184 69.699L17.811 62.413L17.683 48.927L17.97 44.263L18.348 42.363L18.561 42.861L18.351 49.257L18.977 53.186L18.79 58.872L18.016 66.033L17.242 86.86L17.46 110.107L18.499 140.626L18.301 146.293L17.927 146.997L18.668 144.888L19.231 131.049L19.212 116.989L18.8 110.033L15.887 80.17L15.614 73.379L15.946 60.05L16.342 61.706L16.17 63.979L16.583 64.932L16.087 74.365L15.895 95.465L16.616 117.221L17.444 130.76L16.952 138.622L17.173 140.476L17.31 135.408L19.256 123.234L21.502 105.416L22.029 95.106L21.487 89.817" stroke="#555555" stroke-width="2" stroke-linecap="round" stroke-linejoin="round"/>
<path d="M13.0239 44.9991L16.2249 39.2761L18.5069 36.4471L21.3539 31.4221L31.0429 20.795L39.3309 15.4211L44.4159 13.985L46.8899 14.2991L45.9819 14.5751L46.1679 14.3741L44.8549 13.785L40.2009 12.277L36.0109 11.6741L31.1559 13.2141L26.4979 15.6851L25.7279 16.3621L24.8309 17.9211L24.0959 21.842L24.0179 27.217L24.7169 29.946L24.1609 31.014L24.4169 31.519L24.2229 31.1191L24.5899 31.3061L23.8449 31.3101L24.9679 30.5201L25.4639 27.553L27.1389 23.579L28.7799 20.4631L32.3939 15.9521L36.2679 11.579L44.5059 4.71606L45.5529 4.65308L44.6659 5.38507L44.9959 5.88507L44.0089 9.15906L41.9849 12.261L40.8739 13.2491L36.2469 16.3851L24.2339 23.2441L19.0079 27.3221L16.8429 30.1281L14.5979 34.209L14.1589 35.9901L14.2879 38.412L13.8739 39.582L14.4149 40.988L14.2339 41.7101L19.0569 32.8391L21.0489 24.884L23.3009 20.7391L24.5169 19.9051L24.3949 18.933L27.7579 16.6111L30.2659 15.897L29.0359 16.0771L29.5939 16.0981L28.8199 16.3921L29.0379 16.7321L28.2359 16.772L27.6929 17.235L25.6409 19.9261L21.6899 23.9731L20.4659 28.1141L20.6249 30.2321L20.2899 31.433L20.6199 35.2541L20.3759 34.907L20.7239 34.829L20.0799 34.9581L20.6429 34.7631L20.8159 32.3851L20.2419 29.212L20.8049 23.701L21.2179 22.7371L25.4239 18.5361L27.9089 15.407L31.0119 12.688L36.9459 9.41406L41.6609 8.57104L57.2219 9.57104L60.9649 10.47L63.7749 11.85" stroke="#555555" stroke-width="2" stroke-linecap="round" stroke-linejoin="round"/>
<path d="M51.367 10.113L52.946 9.573L56.128 9.21698L61.324 9.755L63.983 9.69897L74.855 8.78601L82.88 8.58002L99.089 8.91901L107.499 9.65002L109.026 9.97601L109.677 10.29L109.477 10.58L100.973 10.575L80.153 11.32L42.717 11.079L30.163 10.479L27.341 10.16L24.465 9.30902L24.924 8.66199L30.038 7.612L49.302 4.79303L72.212 3.18903L103.095 1.88397L114.068 1.82898L120.233 2.26398L121.063 2.66498L120.582 3.02899L86.502 6.16101L44.079 9.50299L28.267 11.115L31.281 10.68L42.623 11.015L104.785 9.18701L109.723 9.70099L110.587 9.98901L110.119 10.14L98.998 9.948L48.855 12.065L38.241 11.972L37.557 11.653L38.004 11.246L39.2 11.008L44.437 11.117L51.428 10.466L70.052 9.56897L92.741 9.09998L105.536 9.18201L118.658 9.95203L121.14 10.522L122.411 11.196L122.708 11.613L121.939 11.979L116.637 12.141L107.73 13.044L94.734 13.595L53.766 14.458L46.755 14.059L45.655 13.77L46.02 13.283L52.062 12.813L64.955 10.305L78.32 9.07397L93.368 8.177L108.181 8.00702L123.959 8.65302L127.738 9.44501L127.576 9.88202L126.674 10.129L123.323 9.93298L114.642 11.636L103.673 13.233L65.313 16.232L63.905 16.328L63.655 16.223L64.469 16.004L72.32 16.418L86.57 15.92L107.254 14.639L134.682 14.713L131.763 14.699L129.751 13.978L123.81 13.482L111.876 13.395L76.685 14.404L60.148 13.891L56.909 13.266L56.964 12.941L60.492 13.059L66.89 11.825L77.416 10.79L104.999 10.028L117.658 10.065L132.548 10.749L133.773 11.08L133.807 11.396L130.876 11.267L117.991 12.591L93.781 13.647L87.487 13.469L84.9 12.993L88.215 12.778L91.819 11.763L99.404 10.575L110.575 9.88501L117.324 9.77899L137.565 10.324L143.104 11.117L147.416 12.237" stroke="#555555" stroke-width="2" stroke-linecap="round" stroke-linejoin="round"/>
<path d="M121.734 15.911L119.613 17.278L128.002 14.894L131.715 14.502L134.945 14.787L138.018 15.513L148.277 17.007L149.911 17.573L151.383 18.609L154.138 22.415L155.121 25.173L154.433 25.92L154.943 25.588L154.548 25.591L154.273 24.651L152.272 22.371L146.706 16.71L145.321 15.692L139.443 11.815L135.899 10.001L126.539 6.14099L123.265 5.15399L129.364 4.90002L137.818 5.59497L154.701 8.84601L161.721 11.056L162.852 11.891L165.468 16.011L165.923 21.03L165.658 22.191L165.869 21.54L165.463 21.568L165.823 21.302L165.456 20.665L161.161 16.551L157.64 13.701L154.405 12.073L146.241 9.414L134.165 8.263L132.874 8.58197L134.139 8.63898L134.273 9.39301L135.209 10.623L138.336 12.471L142.48 16.091L144.664 18.552L148.235 21.124L155.333 26.017L161.921 29.147L163.673 30.596L164.543 31.966L164.533 32.687L163.853 33.71L161.564 34.19L158.907 32.895L151.141 27.159L148.431 23.49L148.063 21.512L153.476 30.235L156.689 33.988L158.613 35.649L157.8 35.166L156.555 31.404L154.691 27.407L153.537 23.904L152.397 18.561L152.685 19.462L152.432 19.835L152.962 20.019L152.598 20.065L154.723 22.477L159.577 30.477L160.885 32.968L161.5 35.071L161.407 34.662L161.854 34.492L161.154 34.494L161.386 33.249L160.949 25.28L161.545 21.262L161.979 20.927L161.395 23.189L161.537 24.654L160.725 28.372L160.825 33.801L162.268 36.078L166.609 37.324" stroke="#555555" stroke-width="2" stroke-linecap="round" stroke-linejoin="round"/>
<path d="M56.8529 168.921L49.3619 164.821L42.1149 162.833L34.6579 161.652L34.4149 161.454L34.8339 161.004L40.5059 159.91L45.0439 159.976L70.0319 163.013L85.9159 164.09L100.095 164.558L107.804 164.464L113.432 164.106L116.458 163.291L114.207 163.205L106.94 161.94L98.0679 161.24L67.2209 160.447L46.9179 159.469L43.9999 159.157L40.6139 158.339L40.4159 157.823L42.2659 157.036L53.1109 156.159L74.8919 156.22L115.961 156.849L128.03 157.565L131.429 158.073L86.9599 160.322L47.3609 162.749L37.9949 162.353L37.3379 161.911L37.8329 161.504L41.9439 161.198L53.9109 158.909L68.0169 157.302L118.938 153.85L144.928 153.371L150.598 153.609L139.366 153.836L119.738 155.365L28.7949 159.892L28.2429 159.697L28.9479 159.385L35.7359 159.109L49.1989 157.148L97.7499 153.474L112.322 152.525L124.552 152.239L131.178 152.564L132.522 152.798L132.307 153.105L81.8999 154.254L48.8019 156.157L47.2449 156.175L46.8599 156.072L47.5479 155.976L50.5499 155.893L52.9779 156.424L59.6759 156.955L69.6099 156.944L117.933 155.423L134.987 155.867L141.048 156.669L142.154 157.152L142.09 157.485L136.784 157.276L117.526 158.301L58.0039 159.298L55.1139 159.154L53.7919 158.648L54.0369 158.356L61.2189 158.211L69.1399 157.25L88.7019 156.146L128.787 154.651L144.893 155.028L149.757 155.84L150.485 156.19L149.93 156.272L145.337 156.038L134.82 157.265L77.4029 160.169L76.4529 160.081L77.7819 159.812L97.5609 158.817L148.013 157.222L155.526 157.338L157.624 157.63L158.542 158.023L158.505 158.281L156.382 158.32L154.667 157.972L149.984 158.628L134.327 159.356L122.06 159.464L105.937 158.996L106.991 158.698L109.918 159.063L125.432 158.665L159.743 156.657L158.997 156.358L159.46 156.519L161.413 154.197L165.38 147.346L165.713 146.089L165.722 138.224L165.738 138.605L162.48 141.799L158.43 146.444L157.662 147.946L156.93 150.807L155.831 152.808L152.712 156.835L148.722 159.71L148.765 160.161L149.334 159.935L148.909 159.904L156.605 152.909L161.574 148.883L162.831 146.622L162.743 145.753L162.218 144.921L161.945 146.006L159.799 148.037L155.994 150.929L149.094 154.026L146.092 156.63L145.978 156.834L146.564 156.841L146.949 156.599L146.65 156.525L146.945 156.133L152.252 151.535L159.384 148.615L160.078 148.012L160.214 147.437L156.641 149.089L147.763 152.306L130.768 157.277L127.595 158.645L126.083 159.854L127.682 159.918L128.544 160.368L132.285 159.34L139.851 156.471L145.932 153.598L149.706 150.653L151.38 148.243" stroke="#555555" stroke-width="2" stroke-linecap="round" stroke-linejoin="round"/>
<path d="M151.325 148.579L150.327 150.66L145.652 156.336L142.752 158.478L130.54 164.262L125.167 165.73L114.467 167.502L102.517 168.42L97.008 168.425L92.704 168.061L84.047 166.664L74.321 164.539L61.306 162.786L53.976 161.37L49.345 160.894L36.168 161.142L29.228 160.186L24.523 158.982L16.943 155.321L15.66 154.41L14.792 152.58L14.813 151.302L15.555 150.194L17.714 148.51L17.145 148.975L17.419 148.854L17.734 149.811L19.812 151L23.856 151.528L29.288 152.833" stroke="#555555" stroke-width="2" stroke-linecap="round" stroke-linejoin="round"/>
<path d="M70.265 81.957L67.276 79.452L67.448 78.659L66.016 77.096L65.697 75.505L67.523 78.097L80.48 102.273L83.169 106.433L85.813 108.678L84.303 106.129L75.943 95.674L73.845 92.518L65.563 78.266L61.276 69.166L60.576 66.891L61.892 69.676L63.662 75.89L66.582 83.445L76.51 105.393L80.131 110.968L85.49 117.629L84.786 116.96L84.621 116.305L83.871 116.038L84.025 115.338L82.328 112.247L75.612 102.648L70.931 94.387L62.574 78.314L61.27 76.684L60.57 76.055L60.538 76.413L78.306 104.88L80.386 107.464L85.102 111.353L88.006 114.353L88.956 115.626L89.809 117.753L78.741 101.58L74.172 93.964L70.387 86.31L72.831 90.707L74.38 95.298L76.217 99.276L83.735 111.505L90.235 120.67L90.616 121.992L91.178 122.818L92.058 123.269L91.134 121.786L91.519 121.426L90.885 121.093L90.237 119.73L86.595 114.707L77.34 100.13L73.686 93.518L71.704 88.905L71.268 87.167L71.547 87.409L72.912 90.25L73.326 90.462L79.337 99.682L84.02 105.537L85.302 106.607L86.998 109.309L85.653 107.832L86.148 107.39L85.582 106.997L83.188 102.331L74.207 87.639L72.957 85.979L72.274 85.431L71.859 85.415L71.922 85.725L73.568 87.984L77.448 96.392L80.538 102.244L83.702 106.857L85.074 107.87L84.074 106.685L84.291 106.282L81.069 96.554L76.566 85.044L74.644 81.648L72.256 78.416" stroke="#555555" stroke-width="2" stroke-linecap="round" stroke-linejoin="round"/>
<path d="M95.664 119.515L95.18 119.127L97.22 116.261L105.411 107.519L112.496 101.169L113.075 100.009L112.543 100.357L112.021 100.846L111.699 101.941L108.665 105.867L97.576 116.873L92.686 120.984L92.029 121.962L90.83 122.517L90.548 122.318L93.606 119.407L97.161 115.297L107.275 106.677L111.034 104.269L111.698 103.641L111.712 103.129L110.089 105.415L99.027 114.788L92.154 119.737L89.743 121.855L89.278 122.166L88.986 121.72L98.259 112.896L109.13 104.88L118.797 99.5211L121.28 98.881L119.734 99.6201L119.356 101.402L113.508 108.145L102.759 117.11L102.673 116.813L104.658 114.449L114.532 104.838L120.529 100.22L123.067 98.535L123.685 98.2501L123.604 98.5391L121.735 100.113L119.813 102.768L117.997 104.632L115.722 106.586L110.648 110.326L106.459 113.979L95.955 121.272L98.707 118.435L106.922 111.301L117.18 103.929L123.109 100.884L122.898 101.21L121.468 101.961L110.955 109.591L101.421 117.133L95.546 121.073L93.047 122.253L94.909 120.696L96.93 118.014L105.76 109.511L116.759 101.054L123.025 97.123L123.308 97.2311L123.099 97.5651L122.095 98.3561L118.281 103.411L112.271 108.654L107.964 113.232L113.663 106.409L117.101 102.985L121.847 99.035L122.033 98.5151L121.732 98.795L122.187 100.089L122.63 100.522" stroke="#555555" stroke-width="2" stroke-linecap="round" stroke-linejoin="round"/>
<path d="M158.294 133.493L159.692 134.22L158.472 133.801L158.852 133.539L158.377 132.879L157.977 132.509" stroke="#555555" stroke-width="2" stroke-linecap="round" stroke-linejoin="round"/>
<path d="M155.438 145.871L156.485 147.471L157.845 148.246L156.815 147.29L156.383 145.676L156.008 144.929" stroke="#555555" stroke-width="2" stroke-linecap="round" stroke-linejoin="round"/>
<path d="M155.616 145.152L159.802 148.881L159.17 148.48L158.458 147.352L156.784 143.786" stroke="#555555" stroke-width="2" stroke-linecap="round" stroke-linejoin="round"/>
<path d="M157.285 142.383L158.591 143.95L161.264 145.702L159.624 144.718L159.973 144.592L159.883 144.294L157.681 140.591" stroke="#555555" stroke-width="2" stroke-linecap="round" stroke-linejoin="round"/>
<path d="M158.067 138.57L161.276 141.685L164.185 144.788L165.08 146.179L163.981 145.182L164.526 144.839L164.078 144.634L163.363 143.453L158.728 134.743L158.034 133.855" stroke="#555555" stroke-width="2" stroke-linecap="round" stroke-linejoin="round"/>
<path d="M157.629 131.612L169.428 145.46L169.731 146.033L169.143 145.847L168.607 145.192L168.942 144.815L167.495 143.79L163.774 137.776L164.528 138.148L165.697 137.809L167.433 138.006" stroke="#555555" stroke-width="2" stroke-linecap="round" stroke-linejoin="round"/>
<path d="M127.155 99.3369L125.712 101.405L126.906 100.274L125.262 97.8519L126.616 98.2599L125.871 98.137L125.428 97.7089L123.096 97.7809L120.383 97.335L118.676 96.1669L116.939 94.1299L117.157 93.549L118.258 93.825L118.25 94.2299L132.188 104.616L145.849 116.643L150.36 121.697L151.939 122.91L150.594 121.568L148.966 119.152L142.626 112.239L136.132 106.506L127.125 97.7599L122.886 93.0399L129.448 97.8729L141.388 107.648L148.286 112.458L151.736 115.601L153.81 116.607L153.042 116.372L152.705 115.916L153.005 115.664L152.255 115.225L152.29 114.946L147.352 109.067L142.194 104.353L136.129 99.577L128.495 94.1779L130.145 95.6229L132.26 98.5219L136.668 102.939L147.057 110.847L150.308 113.735L159.749 123.102L159.547 122.652L158.407 122.107L158.216 121.456L154.348 116.819L147.567 109.806L142.479 104.95L131.887 96.5079L129.342 93.6149L128.078 92.7529L130.011 94.0439L138.096 103.303L158.649 120.294L144.025 107.303L130.324 97.926L131.33 98.8579L133.739 100.036L133.451 100.345L134.057 101.751L136.532 105.926L139.036 108.366L146.11 114.039L153.153 121.658L156.515 126.173L157.729 127.241L156.719 125.828L155.552 124.935L148.684 117.532L142.935 112.229L133.18 104.711L126.066 100.014L125.643 99.892L125.752 100.119L127.68 101.229L127.711 101.656L131.578 104.939L148.342 117.56L158.313 127.031L157.144 126.157L156.86 125.764L157.252 125.497L145.252 112.843L139.216 107.591L135.083 103.533L131.465 100.858L130.041 99.1209L135.224 105.059L146.717 115.869L152.079 122.121L152.374 122.743L152.12 123.124L151.22 121.963L151.421 121.299L151.134 120.829L148.834 117.847L147 115.589L141.986 110.592L128.278 98.8539L126.111 96.491L128.251 98.5079L133.864 105.114L141.299 112.444L144.342 114.755L149.764 119.995L154.73 124.253L153.583 123.261L150.325 119.203L143.001 112.053L128.663 99.7239L130.847 101.604L133.334 105.284L135.332 107.549L148.44 118.998L155.474 125.605L160.904 128.864L161.725 129.036L159.508 127.317L155.277 122.864L149.526 118.083L146.65 115.253L135.071 105.667L134.174 105.107L134.269 105.503L136.756 107.093L138.017 108.518L139.179 110.533L147.486 117.887L151.109 122.012L153.28 123.731L153.193 124.092L152.851 124.036L152.441 123.049L151.9 122.766L151.819 122.295L150.86 121.307L144.383 115.807L134.276 108.452L128.01 102.848L130.335 104.786L130.298 105.469L131.245 106.541L140.485 115.009L148.141 120.213L150.685 122.322L152.901 123.355L151.411 122.57L151.252 121.459L149.94 119.043L145.985 113.871L140.155 108.142L129.049 99.6569L131.03 100.967L130.678 100.869L131.036 100.648L130.191 100.47L130.835 100.551L130.31 100.393L130.609 100.079L130.399 99.0449L129.734 99.0419" stroke="#555555" stroke-width="2" stroke-linecap="round" stroke-linejoin="round"/>
<path d="M114.737 67.062L112.917 65.0359L112.436 63.283L111.495 62.6019L111.145 63.0259L109.557 70.543L109.945 73.4689L111.369 75.3589L113.477 74.6119L114.842 73.1649L115.692 71.687L116.373 67.9269L116.216 64.7239L114.912 61.5049L112.744 59.0829L110.941 58.1049L109.78 61.4529L109.041 65.4409L109.686 68.6569L110.154 69.5109L111.326 70.6909L112.565 71.2949L114.558 71.1519L116.587 68.8489L116.986 67.1459L116.703 64.403L115.212 61.5229L112.741 58.525L111.105 57.0339L110.88 58.184L108.37 63.991L108.435 65.202L109.197 67.012L111.392 68.887L112.766 69.7479L114.706 70.1379L116.617 69.689L118.77 67.6779L119.145 64.9929L118.237 62.0219L117.576 61.1509L114.015 57.8129L113.211 57.3209L112.11 57.2709L111.429 57.9819L111.532 58.939L109.915 62.0239L109.594 65.6039L109.784 66.692L110.331 67.5059L112.492 69.572L114.343 70.2399L116.185 70.486L118.854 69.7999L120.497 68.627L122.621 64.9059L122.658 63.8369L121.503 59.5889L118.617 56.6769L116.73 55.1089L115.62 54.687L113.295 54.6199L111.79 56.6649L108.881 63.1559L108.562 64.528L108.785 67.0519L109.641 68.814L110.381 69.5009L112.195 70.687L114.021 71.4099L115.942 71.4719L117.733 71.14L119.578 70.3709L120.709 69.0949L121.21 68.267L121.983 65.3729L121.987 63.5219L118.945 58.666L117.989 57.6259L113.281 54.7329L110.5 54.1609L109.834 54.3099L110.01 54.9769L107.823 60.4929L107.635 61.978L108.378 66.2789L109.381 68.7349L110.901 70.3359L113.751 71.7109L115.387 71.7739L117.693 70.8369L120.257 67.8729L120.524 65.942L118.711 62.0629L115.201 59.3929L112.234 58.5109L110.709 58.4089L109.142 60.468L106.727 65.5649L105.773 68.749L105.917 70.0059L106.44 71.03L106.739 72.8629L108.02 73.916L109.455 74.533L113.595 74.5009L115.713 73.843L117.733 72.6079L120.273 70.1179L121.025 65.9379L120.434 65.1129L119.952 63.4299L118.437 61.8719L113.883 60.1079L111.05 59.8159L110.042 59.89L108.214 60.7709L107.135 62.236L105.496 65.7119L105.176 67.166L105.791 70.7109L105.532 72.6599L105.954 73.3939L108.213 75.0939L109.016 75.5049L111.405 75.848L113.346 75.0319L116.687 70.892L116.403 68.8409L116.71 67.0689L116.521 66.1489L115.414 63.3709L113.664 60.4139L110.34 57.5569L108.699 57.3149L107.546 57.8749L105.84 59.567L103.184 64.1619L103.551 69.189L103.838 70.038L105.183 71.3829L107.885 72.9569L110.287 73.5309L112.779 73.163L114.638 72.476L115.403 72.0189L116.254 69.9719L116.425 66.9589L115.753 65.2289L114.403 63.0699L111.568 60.2589L110.487 59.5179L108.16 58.8199L106.7 58.96L104.145 63.7199L104.308 66.6099L104.936 68.4479L107.551 70.864L109.51 71.116L112.619 70.7969L114.165 70.0549L115.674 68.528L116.886 66.6179L117.782 64.538L118.059 62.5679L117.897 61.5999L116.7 59.2289L114.379 56.9L112.692 55.9249L111.938 55.6669L110.037 55.866L108.614 56.9569L107.787 58.4789L106.195 60.2629L105.125 63.851L105.741 67.4439L106.38 68.2769L110.211 70.2239L112.261 70.408L114.74 69.9709L115.568 69.489L116.986 68.325L119.552 64.556L119.968 63.4619L120.044 61.314L119.603 59.7979L117.109 56.306L113.758 53.877L111.783 53.606L110.371 54.0139L108.37 55.3339L106.611 57.9349L105.778 60.0939L105.695 62.687L105.955 63.9249L106.976 65.9739L109.139 68.369L111.671 69.1049L114.662 68.8239L116.729 68.0949L119.403 65.817L120.095 64.653L120.505 61.7159L120.971 60.9089L120.739 59.4659L117.095 55.59L115.866 54.9299L113.94 54.5729L111.172 54.3859L109.242 54.7459L108.528 55.3489L106.713 58.7069L105.416 61.791L105.306 62.8629L105.906 64.7689L107.548 67.9619L109.556 69.8879L110.278 70.3979L112.804 70.8619L114.679 70.0399L116.503 68.1179L118.573 63.726L118.519 60.8339L116.811 58.119L114.994 55.9919L112.6 54.739L110.351 55.783L109.026 57.116L107.769 59.166L106.711 61.431L106.228 63.801L106.932 67.4749L108.88 70.3569L111.679 72.1259L113.479 72.3619L115.709 71.9089L117.683 70.3669L119.428 67.3289L120.255 63.5179L120.219 62.3189L119.623 60.3849L117.705 57.5089L115.603 55.0349L114.869 54.6649L114.322 54.9409L113.179 56.658L110.923 61.223L110.653 64.007L111.483 66.452L111.973 67.0529L113.225 68.1229L114.483 68.5829L116.311 68.5529L118.115 67.9249L119.115 67.4449L121.396 65.421L123.079 61.5369L123.141 60.7299L120.983 56.442L118.364 54.757L116.73 54.5759L115.51 54.8149L112.083 61.3719L111.282 64.387L112.126 69.0699L113.219 71.317L115.297 72.296L117.589 72.0909L118.534 71.6829L121.186 69.5139L122.012 68.4269L123.491 63.8469L123.353 61.9449L121.565 59.3759L119.579 57.431L117.426 55.8549L116.406 55.416L114.891 55.3389L114.88 55.642L115.824 55.8289L116.052 56.2319L114.727 57.197L113.988 58.3469L112.712 63.0189L112.674 64.6769L112.943 70.0789L113.44 72.5029L113.797 73.3229L115.313 74.0709L118.33 73.4149L121.505 71.4609L123.605 68.3289L124.678 65.192L124.215 62.1689L123.382 60.476L121.726 58.8109L117.568 55.6849L115.706 55.296L114.458 55.5729L113.878 57.0809L112.191 59.4819L111.897 63.2609L113.426 67.252L115.339 69.4639L116.296 70.0309L117.624 69.8359L119.458 68.1229L120.332 65.8879L119.91 63.754L118.533 61.882L116.641 61.7299L115.393 63.0939" stroke="#555555" stroke-width="2" stroke-linecap="round" stroke-linejoin="round"/>
<path d="M116.313 61.8049L115.652 59.8809L114.264 58.973L113.164 58.9589L111.589 59.6099L110.071 61.3199L108.017 64.796L107.233 67.0339L107.026 68.8599L107.215 70.1439L107.912 71.4489L108.563 73.3239L108.939 73.7469L111.627 75.455L115.365 76.4999L116.892 76.46L119.305 75.5869L123.02 73.043L123.889 72.1619L125.6 69.2039L126.223 66.567L126.288 64.166L125.533 61.6409L123.721 58.6259L121.259 55.4449L119.148 53.1129L115.998 50.7549L112.88 49.2949L110.276 48.877L108.793 49.0319L107.311 49.585L106.51 50.1099L104.919 51.7639L103.807 53.978L102.482 58.322L102.461 60.5449L102.771 62.1389L103.216 63.1429L105.692 67.4069L108.236 70.4959L112.15 73.8749L116.244 75.827L119.141 76.4439L120.68 76.2509L122.229 75.658L122.999 75.2769L124.17 74.1389L125.147 72.6849L125.886 71.077L127.134 67.0529L127.405 63.937L126.551 60.9189L125.716 58.8339L123.022 55.2159L121.622 54.3629L116.989 52.3149L115.103 51.991L114.311 52.1849L113.555 52.4529L112.019 53.4969L109.823 55.809L109.284 56.5949L107.731 60.5609L107.4 61.9479L107.12 64.9669L107.217 66.192L107.924 68.3229L109.356 71.0219L111.232 73.252L112.605 74.3499L115.263 75.223L118.07 75.0709L119.458 74.377L120.024 73.7689L123.174 68.6459L124.208 65.8979L124.61 63.306L124.025 59.8859L122.629 57.374L119.84 53.8619L117.311 52.239L116.153 51.765L114.969 51.5699L111.199 51.7329L108.642 52.3359L105.231 54.3779L104.069 55.3289L102.202 58.5829L101.406 61.306L101.24 64.392L101.591 67.642L102.668 70.8569L104.064 73.1169L105.825 74.749L106.848 75.3749L109.403 76.1619L113.362 76.421L115.753 76.2549L117.707 75.718L120.183 74.424L121.264 73.416L124.108 69.6849L125.152 67.2479L125.467 64.301L125.235 63.4439L121.989 59.5549L120.839 58.45L119.368 57.4929L117.63 56.7039L116.012 56.1259L114.518 55.8779L112.002 55.9769L109.399 56.8369L104.53 60.064L102.593 62.366L101.947 63.5859L101.695 64.9299L101.193 69.2849L101.341 70.3069L101.761 70.994L104.299 73.3809L106.266 74.843L107.518 75.3419L110.437 75.6489L111.953 75.5479L115.064 74.5059L116.496 73.752L119.925 71.1309L122.591 68.0809L123.249 67.0689L123.622 66.1569L123.638 65.2769L123.448 64.4089L122.472 62.8179L120.533 61.0789L118.405 59.7639L116.316 59.267L109.105 59.702L107.713 59.4829L107.254 59.1129L108.37 59.1899L109.85 58.504L114.205 55.481L114.789 55.189L114.753 55.353L103.474 64.283L100.51 66.8839L100.987 66.3909L101.704 66.1729L102.964 65.3229L104.756 63.6859L108.101 61.2209L111.456 59.0389L112.203 58.6669L113.405 58.4589L114.297 58.7329L113.845 58.9799L110.77 62.2979L107.818 64.887L104.327 67.132L102.384 68.7369L102.301 68.5699L102.87 68.2579L104.18 68.0579L106.968 66.3189L117.399 61.129L118.866 60.877L119.479 61.1539L119.198 61.601L117.087 63.3129L108.654 68.991L105.902 70.4119L105.074 70.5919L105.706 70.179L107.538 69.7199L112.332 66.4789L118.36 63.007L121.915 61.515L124.234 60.9999L120.687 64.0089L112.826 69.6719L110.358 71.0059L109.663 71.236L109.474 71.1129L111.711 70.5709L117.266 67.9379L118.486 67.7599L118.863 68.0289L118.775 68.213L117.958 68.5569L115.883 70.5949L115.205 71.007L114.542 72.181" stroke="#555555" stroke-width="1.25" stroke-linecap="round" stroke-linejoin="round"/>
</svg>
