<svg width="732" height="414" viewBox="0 0 732 414" fill="none" xmlns="http://www.w3.org/2000/svg">
<path d="M315.755 80.3669L315.594 80.8839L316.031 86.2509L315.17 88.2439L316.043 89.3089L316.185 92.3029L315.315 98.9139L316.448 101.528L315.032 104.901L316.195 114.176L315.983 119.155L314.947 122.158L315.61 123.176" stroke="black" stroke-width="5.5" stroke-linecap="round" stroke-linejoin="round"/>
<path d="M320.836 66.6251L322.262 65.9351L335.167 65.6601L353.222 69.3291L366.947 68.4411L375.505 66.1211L385.793 65.5421L398.996 65.4351L414.115 66.5341L416.081 65.8141L420.566 66.1431" stroke="black" stroke-width="5.5" stroke-linecap="round" stroke-linejoin="round"/>
<path d="M442.543 230.956L442.733 231.252L443.039 233.135" stroke="black" stroke-width="5.5" stroke-linecap="round" stroke-linejoin="round"/>
<path d="M437.371 234.253L437.26 233.638L434.49 230.449" stroke="black" stroke-width="5.5" stroke-linecap="round" stroke-linejoin="round"/>
<path d="M432 228.938L432.372 230.528L436.445 232.32L435.929 231.874L438.173 230.238" stroke="black" stroke-width="5.5" stroke-linecap="round" stroke-linejoin="round"/>
<path d="M230.334 229.907H508.859" stroke="black" stroke-width="5.5" stroke-linecap="round" stroke-linejoin="round"/>
<path d="M500.506 238.263V399.807" stroke="black" stroke-width="5.5" stroke-linecap="round" stroke-linejoin="round"/>
<path d="M227.549 235.477V399.807" stroke="black" stroke-width="5.5" stroke-linecap="round" stroke-linejoin="round"/>
<path d="M3.66797 408.163H728.992" stroke="black" stroke-width="5.5" stroke-linecap="round" stroke-linejoin="round"/>
<path d="M277.914 285.9L276.753 286.933L276.084 289.803L277.245 304.492L277.299 316.618L276.63 322.622L274.284 336.212L268.934 360.565L269.593 334.579L268.485 323.069L268.575 317.989L269.99 309.134L270.263 297.121L271.194 290.861L265.983 298.333L262.367 324.302L259.847 335.264L258.493 336.214L260.56 328.846L260.219 322.146L262.029 303.523L261.462 287.919L258.338 304.186L257.132 316.801L252.004 340.719L248.948 348.35L246.072 351.295L247.149 342.239L246.383 332.548L247.024 317.836L245.691 307.11L246.6 299.839L246.346 298.821L246.406 300.433L245.113 303.863L243.37 312.477L244.013 325.111L243.404 339.028L242.339 341.402L241.18 341.992L240.949 337.179L238.462 326.795L238.803 315.409L238.075 311.788L239.182 302.13L239.255 303.596L237.548 306.645L235.041 319.193L234.291 330.107L233.804 330.925L233.856 328.922L233.122 327.863L234.365 325.301L235.424 319.823L235.291 313.225L236.359 307.788L235.856 305.679L236.464 301.957L236.121 298.575L236.802 318.511L236.682 315.644L238.691 311.805L240.252 304.936L243.875 322.431L246.172 349.779L248.371 367.156L248.449 373.199L249.124 372.602L250.06 366.167L252.606 360.261L255.881 344.484L260.93 311.988L264.224 296.514L267.389 288.479L268.399 288.471L268.785 289.415L267.272 295.441L268.316 325.902L267.754 332.251L264.455 348.833L264.805 349.742L266.122 346.287L269.28 343.37L270.869 340.193L280.679 303.081L286.398 287.02L287.26 285.566L288.328 285.134L288.724 285.952L287.199 299.327L286.025 327.073L285.344 333.551L282.685 346.495L281.698 356.744L282.058 360.632L283.377 360.954L287.151 357.551L288.259 355.487L294.844 327.057L303.023 302.925L306.254 286.074L306.064 288.965L303.811 295.179L303.175 299.361L301.437 316.109L301.228 326.902L299.693 337.986L300.958 341.237L302.57 341.56L305.172 339.858L307.372 336.555L311.316 321.432L317.956 286.281L320.939 277.887L319.729 288.344L318.958 312.951L315.824 339.596L316.546 341.474L318.37 342.108L319.791 341.769L321.76 338.671L324.436 330.045L325.41 319.997L331.164 284.558L332.931 279.832L333.615 279.138L334.077 279.618L330.848 322.448L325.894 344.084L323.495 364.381L324.099 365.882L325.144 366.306L327.864 364.551L329.325 362.969L333.254 353.461L339.445 325.235L343.416 310.394L351.508 268.295L352.617 264.003L353.583 261.777L354.514 261.271L354.873 262.507L353.571 270.391L349.786 287.933L347.576 313.532L346.176 323.037L342.047 340.162L338.49 358.47L338.809 364.847L341.221 367.812L342.769 368.084L347.092 366.989L350.981 365.205L354.419 358.009L356.328 349.528L362.493 308.908L365.002 299.26L365.026 302.682L360.879 311.95L359.174 321.081L358.488 326.458L358.344 344.635L357.364 353.782L357.529 356.042L358.142 356.705L361.047 356.199L365.042 354.65L368.321 349.915L369.845 346.543L370.679 342.005L375.979 300.712L378.068 289.342L379.445 285.253L379.36 290.988L377.936 296.143L377.168 315.202L374.371 335.052L374.326 351.915L375.63 351.982L375.671 351.338L377.719 350.146L379.911 347.401L381.032 344.623L381.878 334.865L385.528 315.215L386.938 303.3L389.028 293.594L390.74 289.514L391.151 289.122L391.334 289.583L391.152 292.082L388.839 297.836L386.485 306.782L385.864 312.583L386.089 327.754L385.355 335.951L387.254 347.292L389.451 352.338L389.975 350.907L394.17 345.74L398.21 322.934L401.655 297.475L402.208 296.605L402.305 298.394L401.009 315.625L398.406 327.009L395.996 345.403L396.605 348.759L399.333 348.838L399.995 348.339L401.172 344.109L403.08 335.285L404.441 321.426L407.115 308.902L410.776 295.876L412.818 292.702L413.346 294.684L411.108 307.889L408.858 331.166L406.879 342.28L404.991 361.197L405.234 363.17L407.718 365.481L412.149 363.902L413.947 360.904L415.03 354.437L415.504 343.238L418.385 312.25L421.282 292.204L419.793 303.804L420.067 332.985L417.973 357.28L418.418 361.991L418.965 357.95L421.505 354.429L422.494 350.879L427.806 318.438L430.731 305.397L434.238 293.292L432.773 298.63L429.642 330.506L427.487 343.612L427.05 360.571L427.6 360.985L430.511 359.726L433.013 356.229L434.76 350.581L437.107 334.018L439.428 310.233L442.13 293.096L441.02 299.136L439.212 303.972L437.948 313.981L438.134 326.439L437.094 347.453L438.203 366.344L439.013 363.7L443.359 358.251L444.15 355.374L447.966 328.244L449.446 311.969L452.483 291.055L453.939 286.037L454.578 287.707L454.231 290.933L452.046 297.716L451.325 302.619L450.892 321.914L449.031 349.736L448.912 362.75L449.634 363.531L451.737 363.403L453.706 360.801L457.113 347.117L460.429 317.291L461.804 296.449L462.193 300.629L461.087 309.325L459.995 348.689L460.672 359.986L461.935 360.242L461.483 358.645L463.476 357.164L464.29 355.495L466.32 344.559L466.545 327.27L468.309 317.943L468.945 310.575L471.245 302.063L471.499 294.381L471.556 296.244L472.469 297.806L472.088 301.917L472.636 306.602L476.094 324.654L476.685 342.181L477.642 350.256L476.926 355.162L477.525 357.708L478.905 350.041L479.817 319.514L482.603 294.073L482.473 299.022L481.33 303.536L480.355 312.075L479.456 333.999L477.848 345.538L477.929 350.851L476.819 360.145L477.631 360.163L477.677 356.417L480.113 351.509L480.976 347.729L484.795 315.478L488.67 302.105L490.149 300.42L488.384 301.668L489.031 302.806L488.289 302.927L488.57 307.119L489.424 306.887L488.298 306.474L488.679 306.159L487.924 305.167L488.717 304.966L488.171 305.532L486.892 303.025L486.808 299.786L486.188 300.32L484.916 290.328L485.504 289.274L485.033 285.141L485.911 282.056L486.305 277.725L485.88 276.989L487.686 273.587L487.176 268.061L488.121 265.186L486.844 262.899L487.539 259.713L484.856 255.355L485.625 248.495L484.806 248.466L485.178 248.959L485.465 248.289L486 242.337L485.241 241.993L486.388 241.838L485.623 242.172L486.42 241.925L485.808 242.73L486.637 243.16L486.041 242.45L487.079 242.822L483.867 242.817L480.758 243.743L472.335 243.458L467.468 242.6L459.869 243.955L453.251 243.213L438.595 245.54L431.283 245.362L429.905 244.8L426.672 245.34L425.739 244.766L414.852 245.554L410.817 244.712L410.092 243.975L405.786 244.476L392.022 243.443L384.953 243.848L379.202 242.565L377.388 243.007L377.804 243.048L377.472 243.504L374.263 244.018L365.528 243.69L359.492 242.042L356.814 242.334L352.907 240.816L349.525 241.751L336.321 241.907L336.088 241.102L331.359 240.296L322.159 240.527L316.177 238.09L309.975 236.872L301.206 237.579L297.179 235.576L294.428 235.467L293.146 236.327L289.859 236.887L289.169 237.802L285.185 239.472L282.547 239.243L279.1 240.149L274.014 243.408L269.888 243.821L268.35 244.553L257.818 243.487L255.229 241.325L252.001 240.763L246.719 238.55L240.573 239.297L240.02 239.055L240.856 238.83L237.114 238.33L236.511 238.684L237.64 238.811L234.39 238.74L234.853 239.297L233.437 239.683L234.519 240.102L233.563 239.187L232.663 239.53L232.817 240.033L229.939 240.038L231.067 240.559L230.675 242.046L231.569 251.847L231.296 262.258L232.337 266.783L232.605 277.105L233.659 282.109L233.331 298.979L234.42 313.837L233.97 314.884L234.734 312.129L233.667 310.687L234.562 308.151L236.123 284.584L236.369 266.345L237.495 260.301L237.424 256.413L238.414 255.255L237.511 255.358L237.33 257.878L234.955 261.523L234.287 263.748L234.361 269.974L233.102 277.007L232.638 287.761L231.041 300.579L231.603 296.802L233.737 291.725L236.476 270.337L238.481 263.871L240.458 261.457L240.846 259.908L242.554 260.192L244.513 265.8L244.48 296.731L244.463 292.334L247.137 283.845L248.371 275.284L250.554 250.118L252.385 245.983L251.836 250.309L250.541 253.928L250.498 270.801L254.617 293.59L254.597 289.594L257.716 283.12L260.141 270.409L263.45 257.795L265.946 251.113L268.273 246.632L269.165 245.957L268.678 250.725L267.244 255.31L265.599 270.025L265.152 287.584L265.63 297.076L266.145 298.193L267.971 299.034L271.418 297.184L273.589 294.504L280.152 275.989L282.19 273.73L283.112 271.527L283.501 265.538L286.462 259.301L287.249 260.362L287.891 288.045L288.704 288.952L289.349 288.843L292.62 280.231L294.431 268.631L298.187 256.444L299.77 247.798L300.373 246.543L301.105 246.422L301.906 260.654L301.412 282.15L302.196 286.661L302.758 285.462L305.623 284.511L308.259 282.331L315.254 270.655L320.843 257.357L321.799 258.117L322.786 265.272L323.613 288.169L324.538 291.589L325.469 291.919L330.396 282.369L335.464 265.119L344.076 243.01L343.956 242.059L339.446 274.684L338.582 286.997L340.036 287.886L342.624 286.491L343.397 285.43L349.306 270.743L349.991 266.993L353.802 257.075L357.191 253.865L356.204 254.855L358.764 272.073L359.884 285.24L366.649 272.126L373.02 249.74L378.56 237.797L379.157 239.195L378.346 241.356L377.186 251.809L379.614 267.038L382.144 278.196L387.085 285.573L386.317 282.326L388.095 279.503L388.685 276.963L388.299 274.053L391.466 260.699L394.385 242.191L394.853 241.584L394.869 243.046L392.623 248.524L391.89 257.608L392.5 260.254L393.637 260.543L394.846 263.393L397.807 257.553L401.185 243.089L402.018 241.722L402.75 241.426L403.187 242.144L402.389 244.874L403.297 259.34L401.581 291.384L402.006 287.407L405.239 283.339L406.327 280.78L407.36 274.641L409.226 268.514L409.624 261.993L411.672 253.026L412.294 243.878L413.987 240.032L413.203 237.783L414.258 236.228L417.273 248.102L420.273 267.329L421.155 269.99L421.313 278.25L424.473 271.756L429.367 251.039L431.203 247.945L431.431 240.275L430.866 260.012L427.489 281.147L429.035 277.635L429.217 275.706L432.536 270.029L434.317 259.82L439.887 242.596L440.981 248.903L441.882 269.366L440.295 289.611L441.306 289.38L442.625 287.676L447.659 274.309L449.699 252.861L451.848 240.113L453.783 250.822L453.336 262.736L454.12 272.457L451.584 289.104L452.297 284.036L454.258 281.029L456.494 273.301L458.878 261.229L464.986 237.967L463.757 248.46L464.35 254.502L463.517 262.426L464.488 274.993L464.44 286.814L468.294 269.886L472.543 240.347L473.865 237.436L470.448 266.805L467.709 276.08L468.928 283.557L469.738 285.281L469.987 287.209L469.274 288.881L469.917 293.101L468.44 303.878L467.775 304.189L468.182 303.598L467.427 302.88L468.725 301.199L468.946 298.037L468.075 309.794L468.429 311.951L469.238 312.633L468.224 314.742L468.539 318.239L467.897 320.105L468.887 326.141L468.159 329.296L468.545 331.643L467.971 332.435L468.346 334.402L467.502 339.37L466.668 355.45L467.424 366.869L467.268 369.385L466.856 369.406L467.702 369.408L466.857 370.146L467.166 375.773L466.297 379.446L467.368 388.532L466.172 391.479L467.405 390.709L466.514 389.033L467.509 388.078L470.496 375.157L470.611 352.621L471.72 340.178L472.953 333.366L473.417 326.259L472.75 322.436L474.129 320.454L473.709 317.155L474.921 313.537L475.22 309.785L474.412 306.988L475.685 295.713L479.882 285.013L479.902 278.469L481.238 275.529L480.985 272.519L480.946 273.498L480.388 272.769L481.126 271.538L481.723 264.98L481.241 260.885L482.003 259.78L480.963 260L481.598 260.908L479.995 262.055L478.717 265.381L477.768 279.318L478.563 286.169L478.298 290.52L478.438 292.538L480.634 296.944L481.134 299.42L481.463 308.997L482.328 315.012L481.766 317.344L482.807 317.84L482.913 318.587L482.493 322.988L483.625 331.76L483.405 337.987L485.448 344.568L486.418 350.727L486.229 354.262L487.459 360.253L487.379 361.293L486.14 362.378L486.198 364.517L485.22 364.872L484.073 367.721L484.489 369.391L483.253 371.182L481.339 378.998L480.144 381.149L481.01 382.984L479.807 387.302L480.597 388.877L479.937 388.966L478.521 393.513L478.879 394.414L478.097 395.005L477.97 397.428L478.919 396.611L477.68 396.126L480.259 394.243" stroke="#909090" stroke-width="11.75" stroke-linecap="round" stroke-linejoin="round"/>
<path d="M236.215 371.492L233.382 374.442L231.633 384.372L235.095 364.728L235.795 354.103L236.939 354.257L235.684 354.557L236.698 355.077L235.423 363.186L235.187 371.346L234.188 371.417L234.218 368.401L234.677 368.46L234.425 369.769L233.395 371.002L232.553 370.691L233.038 369.419L232.649 369.21L233.046 369.541L232.602 371.502L231.512 372.975L231.195 376.358L231.94 387.07L233.643 392.093L233.241 392.306L232.896 391.01L232.119 390.679L232.119 390.13L234.125 389.187L236.976 379.269L238.491 362.673L238.614 391.113L239.755 389.874L239.727 388.969L242.548 386.66L245.298 378.19L244.655 380.363L246.486 388.707L246.827 394.006L248.828 394.146L248.991 391.717L250.362 389.048L250.956 385.311L252.816 381.352L252.36 381.91L253.461 387.026L252.529 396.336L252.84 400.615L253.323 400.854L254.383 397.677L258.93 389.878L260.316 383.714L262.675 380.726L263.651 381.484L263.437 382.449L265.725 388.449L268.408 392.511L269.572 399.224L270.273 399.326L274.392 389.954L277.087 378.446L281.785 369.539L282.205 367.517L283.642 365.604L284.088 365.937L283.322 369.906L283.25 392.736L283.71 390.713L288.314 387.996L290.625 376.822L290.573 373.912L292.526 369.359L293.241 365.257L294.823 363.167L293.608 381.763L294.435 398.245L294.665 395.676L298.081 391.945L299.654 388.217L300.189 380.697L302.205 374.786L304.126 362.94L305.093 358.778L307.131 355.121L307.567 374.862L309.112 389.302L310.188 388.181L312.644 387.988L313.42 386.8L313.654 384.516L316.189 380.956L317.181 376.518L318.464 374.178L319.368 369.157L319.812 368.653L320.665 369.712L318.785 390.01L317.22 394.308L321.92 385.061L324.94 370.516L327.252 362.558L329.133 359.819L329.833 359.697L330.032 360.45L330.034 368.381L328.848 378.35L329.082 387.473L328.36 391.992L332.372 390.092L334.913 386.189L336.383 377.876L339.462 370.328L339.852 370.521L339.017 376.063L339.68 380.84L338.926 390.459L339.226 390.942L339.572 390.474L339.66 389.042L343.302 387.707L348.663 371.844L351.12 369.225L348.642 381.407L348.861 390.99L347.196 399.934L347.449 398.686L349.963 399.094L351.027 398.46L352.758 394.875L355.782 382.24L361.203 367.467L359.11 382.405L359.574 394.242L359.035 396.327L363.701 389.775L365.816 383.761L366.987 376.856L369.212 370.182L368.068 377.333L368.188 382.184L366.723 390.529L368.028 397.443L371.68 392.101L380.665 366.602L380.58 370.287L382.182 376.976L381.543 384.354L382.616 391.829L383.449 393.527L385.269 392.996L384.751 392.758L386.184 391.861L388.269 384.777L391.649 368.5L392.548 367.264L393.173 369.885L391.761 374.084L392.377 376.705L392.33 385.439L391.417 401.243L391.944 401.102L392.189 398.245L394.829 396.124L396.922 392.082L400.752 373.926L402.65 369.781L403.252 369.878L402.894 370.498L404.065 370.681L402.991 370.873L405.044 378.496L406.252 390.053L406.841 390.647L405.586 388.272L405.818 387.647L408.859 385.357L409.518 379.771L410.569 376.56L410.199 375.33L411.232 386.72L411.676 386.707L411.002 385.004L411.445 383.665L413.374 382.442L414.317 380.925L413.845 383.03L414.641 387.773L413.948 387.793L415.931 388.529L415.257 387.867L416.188 387.566L417.635 380.552L419.399 365.45L419.904 366.132L419.952 369.906L419.036 382.111L419.864 385.566L419.256 385.943L419.962 384.557L419.196 383.124L421.543 382.29L422.154 380.657L423.194 379.835L424.85 370.734L426.613 388.537L427.7 391.958L428.741 390.488L428.445 390.028L429.449 389.66L430.593 387.769L433.265 371.996L435.245 397.361L434.558 394.889L436.564 392.805L439.326 377.345L440.613 373.496L439.546 374.21L440.484 374.201L441.528 377.416L444.817 392.954L444.062 390.426L446.957 387.094L450.782 370.858L454.154 387.61L454.466 396.004L456.006 395.509L457.752 390.448L459.602 376.197L460.41 374.689L461.594 374.825L460.522 376.011L461.548 377.428L463.303 383.509L463.789 386.387L463.357 391.29L463.998 395.224L467.344 387.121L468.294 380.556L469.864 376.922L469.3 376.387L469.819 384.099L470.788 387.953L470.841 390.119L470.129 389.14L472.851 385.944L473.009 384.137" stroke="#909090" stroke-width="11.75" stroke-linecap="round" stroke-linejoin="round"/>
<path d="M485.155 256.714L487.784 262.034L489.039 266.507L488.981 274.403L489.701 279.814L488.768 282.993L488.432 291.209L489.769 309.702L490.427 311.065L489.874 316.503L490.499 317.689L489.154 321.032L488.786 325.78L489.314 327.48L487.773 329.883L487.691 331.076L489.099 333.45L489.295 336.559L488.987 340.288L487.257 342.864L488.034 344.724L487.211 351.755L488.248 353.259L487.113 356.462L487.922 358.692L487.357 361.002L487.94 367.484L487.695 368.377L486.254 369.267L486.859 369.371L486.647 370.546L484.687 373.555L485.308 374.127L484.141 376.931L483.928 382.593" stroke="#909090" stroke-width="11.75" stroke-linecap="round" stroke-linejoin="round"/>
<path d="M390.3 3.98499L389.758 4.11098L389.787 4.36499L390.367 4.42198L390.281 4.66699L390.699 4.33398L390.449 4.24098L393.611 5.78998L398.448 7.02698L404.753 10.023L406.26 10.249L409.625 11.429L411.949 11.641L415.529 12.904L418.618 15.193L422.029 16.179L423.635 17.474L424.885 19.02L425.435 20.374L428.095 22.828L429.251 25.041L429.646 26.543L432.696 30.679L433.701 31.387L435.117 33.234L435.851 35.238L438.262 37.648L438.346 38.426L439.702 41.391L439.936 43.186L440.842 45.192L441.803 49.756L442.746 51.6L442.5 52.021L442.721 53.89L442.985 55.075L443.295 55.279L442.897 56.47L444.541 61.303L444.484 64.386L444.915 64.325L444.488 66.239L444.694 68.556L445.223 69.829L444.793 71.062L445.041 71.372L444.726 71.645L445.196 72.423L444.923 72.759L444.966 77.376L444.745 77.631L445.266 79.75L444.986 81.989L445.491 83.046L445.421 83.809L444.918 84.359L444.82 86.837L444.511 87.43L444.466 89.362L444.713 89.722L444.346 90.587L444.715 90.932L444.35 91.457L444.137 99.449L443.372 101.603L443.008 104.536L442.635 104.808L443.047 106.137L442.515 108.224L443.306 109.963L443.962 113.955L446.269 119.605L447.041 120.402L447.025 121.529L448.145 123.081L448.514 124.729L449.623 125.598L449.921 126.658L451.053 127.82L452.188 130.249L453.123 131.397L454.2 134.187L455.294 135.058L455.59 135.975L456.628 136.951L460.214 141.961L463.944 146.476L464.522 148.357L465.204 149.256L464.961 149.983L467.844 154.874L469.312 156.712L469.343 157.98L470.524 159.33L470.64 163.045L471.11 164.611L470.386 168.31L470.496 173.497L470.128 174.105L470.431 174.393L470.844 176.979L470.878 178.844L471.545 180.64L470.581 181.633L470.799 181.809L469.402 186.553L469.738 187.378L469.124 188.086L469.337 188.494L468.981 190.222L469.225 190.469L468.145 191.057L467.602 193.901L467.826 195.394L467.461 195.573L467.58 197.077L467.161 198.422L467.342 199.254L467.024 199.701L467.269 199.793L466.586 200.055L467.088 200.707L466.703 201.637L466.566 205.547L466.227 205.781L466.688 206.773L465.883 207.212L466.07 207.578L465.772 208.146L466.028 207.927L465.592 208.2L465.937 209.224L465.247 209.799L465.519 210.049L465.071 211.905L465.331 212.49L464.347 213.899L464.201 214.896L464.432 214.864L463.85 215.234L464.287 216.191L464.431 218.824L464.166 219.638L464.864 219.993L464.12 219.82L464.511 219.923L464.437 220.702L465.194 221.322L464.697 221.659L464.936 221.637L465.203 223.529L465.701 224.552L465.232 224.613L465.187 224.97L465.601 225.936L465.936 225.99L465.429 226.11L465.703 226.09L465.523 227.059L465.768 228.342L465.175 228.442L465.957 228.78L465.8 229.299L466.175 229.508L465.704 229.423L466.737 230.089L466.326 230.496L466.553 230.048" stroke="black" stroke-width="6" stroke-linecap="round" stroke-linejoin="round"/>
<path d="M391.842 172.5L394.718 170.679L395.859 169.019L400.601 165.463L400.999 164.786L403.689 162.913L404.538 161.95L405.944 161.35L405.755 161.073L406.227 160.168L408.057 158.225L409.225 157.507L408.647 157.353L411.339 155.175L411.142 154.751L411.999 154.237L412.871 152.889L413.484 152.604L414.036 151.459L415.506 150.538L415.668 149.546L417.77 147.194L417.763 146.541L418.647 145.671L420.365 142.41L421.817 141.03L421.86 140.391L423.842 139.185L424.671 137.838L425.353 137.724L425.494 136.824L427.092 133.693L427.24 133.196L427.008 133.284L427.171 133.424L427.94 132.516L428.306 130.712L428.83 130.298L429.104 129.067L429.903 128.201L429.563 127.961L429.624 127.359L430.321 126.922L430.359 125.298L430.93 124.197L431.478 121.748L432.051 121.229L431.813 120.648L431.991 118.635L431.734 118.27L432.465 115.623L432.186 114.687L432.941 109.575L432.872 103.727L432.369 100.969L433.019 100.037L432.635 99.201L432.227 92.9631L432.617 91.2931L431.881 90.5381L431.602 85.6291L430.843 84.5341L430.792 83.1141L429.955 81.1691L429.71 79.455L429.222 79.0921L429.082 77.9691L428.354 77.2671L428.325 76.7421L426.906 75.1871L427.207 74.7301L426.534 74.1261L426.523 73.5311L426.298 73.6311L426.456 72.481L425.85 72.2191L425.733 71.1271L425.476 71.1971L424.816 70.0251L425.218 69.7211L424.442 69.455L424.472 68.9171L424.018 68.3611L424.358 68.3051L423.971 68.2691L424.272 68.1711L423.71 68.1691L424.56 68.1601L423.582 68.2831L424.476 68.257L423.821 68.3851L424.066 68.2711L423.641 67.9901L422.983 67.8361L423.563 67.6121L422.849 67.9691L423.43 67.912L422.875 67.8251L422.976 68.0391L423.208 67.7791L422.849 68.2421L423.256 67.968L422.844 67.7761L423.2 68.1801L422.934 67.7521L422.994 68.1801L422.71 68.0961L423.133 68.2421L422.625 68.2881L423.701 68.261L422.831 68.1631L423.232 68.2651L422.303 68.5571L423.144 68.3581L423.097 68.5731L422.76 68.2501L422.626 68.4561L422.915 68.4501L422.651 68.6541L422.901 70.1151L421.39 71.1371" stroke="black" stroke-width="6" stroke-linecap="round" stroke-linejoin="round"/>
<path d="M402.673 169.591L401.775 169.444L402.608 169.413L402.389 169.65L402.632 170.03L400.277 174.796L399.837 177.887L398.736 180.764L398.936 183.323L398.437 184.406L397.139 190.766L397.323 193.175L396.988 201.933L398.151 207.666L398.537 208.067L398.486 209.302L398.977 210.069L399.575 214.881L400.164 215.18L400.32 216.906L401.645 218.855L402.352 219.499L402.817 219.431L402.165 219.383L403.029 219.846L402.939 220.965L403.618 221.228L403.402 221.273L403.808 221.766L404.012 222.977L404.085 222.661L404.496 222.697L404.107 222.804L405.663 224.081L405.887 225.16L406.428 225.055L406.839 226.129L407.728 226.46L407.499 226.705L408.362 226.675L408.388 226.957" stroke="black" stroke-width="6" stroke-linecap="round" stroke-linejoin="round"/>
<path d="M376.863 85.5491H425.863" stroke="black" stroke-width="6" stroke-linecap="round" stroke-linejoin="round"/>
<path d="M422.863 88.5491V121.549" stroke="black" stroke-width="6" stroke-linecap="round" stroke-linejoin="round"/>
<path d="M379.863 123.549H422.863" stroke="black" stroke-width="6" stroke-linecap="round" stroke-linejoin="round"/>
<path d="M376.9 89.755V122.755" stroke="black" stroke-width="6" stroke-linecap="round" stroke-linejoin="round"/>
<path d="M318.988 85.88H367.988" stroke="black" stroke-width="6" stroke-linecap="round" stroke-linejoin="round"/>
<path d="M364.988 88.88V121.88" stroke="black" stroke-width="6" stroke-linecap="round" stroke-linejoin="round"/>
<path d="M321.988 123.88H364.988" stroke="black" stroke-width="6" stroke-linecap="round" stroke-linejoin="round"/>
<path d="M367.598 98.97H376.598" stroke="black" stroke-width="6" stroke-linecap="round" stroke-linejoin="round"/>
<path d="M370.012 93.532L369.422 94.113L369.107 93.93L368.953 94.235L368.412 94.182L368.459 94.466L370.793 94.034L372.561 94.063L373.315 94.443L375.442 94.315L375.599 94.01L376.811 93.855L376.409 93.815L377.188 94.101L376.396 94.106L377.121 93.675L376.818 93.631" stroke="black" stroke-width="6" stroke-linecap="round" stroke-linejoin="round"/>
<path d="M429.863 91.5491V105.549" stroke="black" stroke-width="6" stroke-linecap="round" stroke-linejoin="round"/>
<path d="M383.781 5.41306L383.691 5.00206L383.065 5.69907L381.366 5.34006L378.669 3.87106L373.097 3.20006L367.833 3.18506L366.192 3.76607L362.977 4.04207L358.487 3.97206L354.108 4.49106L353.516 4.98506L352.299 5.32106L350.477 5.19806L344.775 6.64906L341.361 7.09706L341.384 7.40306L338.822 8.07906L336.261 9.30406L334.529 9.65706L319.33 17.1851L317.966 18.8571L316.322 20.0311L316.071 20.6491L314.526 21.9781L311.336 23.9491L310.999 24.2651L311.031 24.7781L309.666 25.5251L308.863 27.4051L307.413 29.0561L307.069 30.0421L304.669 31.9781L303.433 34.2701L302.603 35.2401L302.054 35.3641L302.49 35.4881L301.915 36.5591L300.49 38.7531L298.531 40.8921L298.621 41.244L297.372 42.0141L297.582 42.55L297.103 43.1631L297.384 43.5861L296.467 44.8951L296.149 46.7761L294.605 49.5531L294.428 50.7851L293.261 53.0321L293.464 53.5711L291.485 56.4521L291.75 56.9361L291.368 56.9901L290.537 58.0741L289.623 60.1601L288.013 62.1691L288.39 62.3451L288.38 62.9431L287.002 64.5561L285.277 68.136L285.346 69.5191L284.609 70.6421L284.804 71.731L284.271 77.636L284.277 82.6071L284.664 84.5901L284.109 88.0841L284.881 98.8761L284.639 100.754L284.657 111.622L285.139 113.459L284.702 116.242L285.373 124.293L284.957 126.365L285.563 128.894L285.353 131.546L285.71 135.736L286.736 138.965L286.292 140.673L286.801 143.151L286.099 144.734L286.189 149.196L285.865 150.067L285.599 157.367L285.874 160.12L285.405 162.784L284.771 163.523L284.533 166.272L283.652 167.914L283.692 169.296L282.954 170.053L281.814 173.468L280.498 175.394L280.689 176.117L278.537 178.733L277.744 180.37L277.802 181.294L277.153 181.942L277.094 182.568L276.795 182.449L277.221 182.461L276.731 182.63L275.978 184.025L274.613 185.482L273.939 186.912L272.978 187.612L273.363 188.414L272.602 189.567L271.856 193.055L271.077 193.575L271.725 193.919L271.459 194.504L271.09 194.588L270.494 198.487L269.568 200.505L269.662 201.344L268.802 205.524L268.995 206.118L268.402 206.523L268.624 208.505L268.158 209.978L268.581 211.918L268.285 212.952L268.642 214.22L269.103 214.361L268.549 214.653L269.06 215.19L269.078 216.252L269.657 216.969L269.481 217.66L269.886 218.315L270.084 219.844L270.808 221.139L270.524 221.164L270.613 221.446L271.604 222.41L271.549 223.237L272.516 224.116L272.193 224.28L272.896 224.637L273.695 226.137L274.722 227.125L274.678 227.919L275.725 228.379L274.846 228.261L275.227 228.258L274.939 228.255L275.171 228.237L275.125 229.607L275.693 229.673L275.782 229.463L275.304 229.375L275.707 229.144L275.307 229.15L275.662 229.143L275.393 229.147L275.542 229.359L275.497 229.013L275.513 229.246L275.734 229.127L275.301 229.147L275.82 229.252L275.317 229.147L275.71 229.146L275.412 229.149L275.901 228.519" stroke="black" stroke-width="6" stroke-linecap="round" stroke-linejoin="round"/>
<path d="M317.926 144.506L311.325 139.696L308.149 135.451L304.093 127.159L303.135 121.303" stroke="black" stroke-width="5.5" stroke-linecap="round" stroke-linejoin="round"/>
<path d="M319.025 90.0859V123.086" stroke="black" stroke-width="6" stroke-linecap="round" stroke-linejoin="round"/>
<path d="M319.147 62.019L318.516 60.934L318.652 61.659L319.208 62.204L318.726 62.392L319.343 62.8L318.468 63.401L316.221 67.939L315.138 69.325L315.047 70.022L314.154 70.303L313.991 70.694L314.357 71.072L314.141 71.63L312.309 74.271L312.692 74.55L312.243 74.997L312.587 75.854L311.531 77.259L310.872 81.156L311.086 81.647L310.272 82.416L310.24 83.129L309.073 84.164L309.46 85.618L309.147 85.899L309.442 86.188L307.982 89.166L308.111 91.117L307.512 92.713L307.013 95.699L306.06 96.869L306.321 97.128L306.005 97.726L306.431 98.017L305.73 99.991L305.767 100.734L305.357 101.114L306.148 101.689L305.285 102.064L304.671 105.689L304.756 106.042L305.301 106.112L304.488 106.522L305.183 106.913L304.798 107.618L305.071 108.309L304.844 108.496L305.491 110.94L304.493 112.126L305.108 112.492L305.401 113.904L305.043 117.838L305.472 118.623L305.091 118.694L305.609 118.952L305.337 119.247L305.423 119.831L306.459 121.105L306.125 121.884L306.289 123.178L306.9 123.455L307.087 123.738L306.662 124.091L307.571 124.778L306.611 125.942L307.275 126.249L307.894 127.179L310.053 132.377L311.41 134.178L311.169 134.41L311.59 134.998L311.687 136.005L312.215 136.389L312.223 137.419L313.528 138.288L313.909 139.334L314.585 139.812L314.479 140.455L315 140.815L316.133 142.677L316.03 143.048L317.893 144.326L318.138 145.397L318.603 145.932L318.521 145.711L318.872 145.803L319.349 146.581L319.199 147.006L320.309 147.788L320.847 148.872L321.842 149.786L321.706 150.476L322.394 150.721L322.764 151.466L324.254 152.48L323.536 153.155L324.258 153.312L324.385 153.501L323.928 153.584L324.277 153.51L324.33 153.896L325.14 154.438L326.026 156.641L326.659 156.889L326.471 157.15L327.094 157.519L326.801 157.778L327.335 158.062L327.513 158.351L327.284 158.548L328.216 158.914L327.668 159.287L328.366 159.633L328.699 160.528L329.633 161.463L329.62 162.574L330.692 162.952L330.948 164.097L332.009 164.633L332.215 164.941L331.982 165.45L333.519 166.635L333.646 167.38L334.444 167.67L334.704 168.076L334.452 168.418L335.716 168.655L335.904 168.957L335.203 169.059L337.56 170.416L338.182 171.154L341.254 172.505L342.901 172.803L344.377 173.581L344.421 173.884L345.28 173.818L346.458 174.277L349.397 176.124L350.329 176.142L350.539 176.222L350.059 176.182L350.384 176.249L350.167 176.444L351.007 176.509L352.461 177.234L354.079 177.258L357.4 177.941L358.979 178.383L359.243 178.513L358.975 178.7L360.283 179.148L361.749 179.175L362.072 179.308L361.021 179.353L362.733 179.435L364.59 180.219L365.678 180.073L372.494 180.778L374.221 180.19L375.519 180.114L375.201 179.907L377.603 179.427L377.881 179.246L377.527 179.153L379.823 179.243L379.372 179.16L380.08 179.146L380.441 178.79L380.73 178.838L380.431 179.054L382.85 178.523L382.795 178.737L384.145 178.702L384.331 178.544L383.834 178.418L383.815 178.726L384.894 178.509L384.543 178.74L385.129 178.578L385.888 178.831L385.459 178.61L385.726 178.528L385.224 178.566L387.138 178.025L386.754 177.726L387.202 177.796L389.059 175.48" stroke="black" stroke-width="6" stroke-linecap="round" stroke-linejoin="round"/>
<path d="M342.923 178.48L342.668 178.384L342.572 177.251L341.895 176.676L342.122 175.33L341.703 175.59L341.94 175.979L341.546 176.113L341.897 176.146L341.718 176.486L342.076 177.083L342.13 178.225L343.536 181.653L343.582 183.315L344.701 185.854L344.832 187.203L345.735 188.593L346.151 190.553L345.981 192.508L347.259 195.978L347.074 196.743L347.414 197.993L347.178 198.312L347.777 198.771L347.47 199.709L347.716 202.72L347.365 203.273L347.776 203.575L347.383 203.666L347.743 203.8L347.422 203.925L347.625 205.407L347.281 205.563L348.006 206.28L347.532 206.545L347.037 208.241L347.442 209.053L346.998 208.985L347.539 209.545L347.247 209.636L346.839 211.238L347.317 211.381L346.797 211.234L346.812 212.19L346.181 212.706L346.084 213.483L346.431 213.629L346 213.595L345.818 214.597L345.533 214.502L345.98 214.425L345.418 214.501L345.744 214.496L343.934 216.115L343.947 216.653L343.354 216.768L343.755 217.322L343.458 217.451L343.32 218.998L342.77 219.257L342.837 219.751L343.224 219.704L342.838 219.566L342.873 220.129L342.208 220.553L342.589 220.822L341.796 222.049L342.012 222.053L341.537 223.13L341.192 223.28L341.465 223.54L340.891 223.523L341.368 223.48L340.853 223.655L340.532 224.432L340.246 224.195L339.522 225.434L338.9 225.555L339.093 225.722L338.155 226.669L336.376 227.581L336.717 227.698L336.192 227.737L336.479 227.713L336.229 227.719L336.363 228.511L335.67 229.296L335.939 229.496L335.202 230.05L334.905 231.597L334.353 231.976L334.028 232.827L333.59 232.654L334.321 232.628L333.707 232.635L334.17 232.627L333.98 232.387L334.144 232.694L334.012 232.366L333.805 232.544L334.318 232.075L333.936 232.534" stroke="black" stroke-width="6" stroke-linecap="round" stroke-linejoin="round"/>
<path d="M371.598 85.97V136.97" stroke="black" stroke-width="4" stroke-linecap="round" stroke-linejoin="round"/>
<path d="M223.284 245.48L222.22 247.871L221.112 249.241L221.276 249.594L220.959 250.028L220.592 252.59L220.176 253.131L220.413 253.297L220.272 253.735L217.753 258.147L217.318 260.184L215.656 264.594L214.923 265.708L214.607 267.1L213 269.198L207.953 278.61L202.168 286.587L199.641 290.984L198.109 292.292L198.058 293.527L197.576 294.243L193.325 299.427L193.176 300.115L191.738 301.405L191.231 302.505L189.795 303.305L186.919 306.32L182.087 309.274L179.511 311.735L177.48 314.202L174.675 315.873L168.142 321.055L166.802 322.498L165.046 323.445L163.961 324.527L158.445 327.374L157.025 328.632L154.929 329.19L149.188 331.682L145.232 335.117L144.106 335.489L144.126 335.917L142.452 337.358L142.058 338.077L140.535 338.837L140.466 339.303L139.46 339.459L139.09 340.236L138.409 340.635L134.518 346.728L133.281 347.812L132.638 348.978L130.979 349.958L131.479 350.155L130.32 350.295L130.519 350.4L129.96 350.973L129.363 352.662L128.829 352.739L129.563 352.885L128.205 353.855L127.889 354.609L125.666 356.706L126.066 357.187L125.596 357.501L125.727 357.765L124.775 359.198L124.597 360.04L124.419 359.758L124.195 360.179L123.888 361.451L121.906 364.655L122.42 365.347L121.11 366.216L121.553 366.449L120.167 370L120.274 371.18L119.996 370.873L120.191 370.986L119.129 371.725L118.237 371.924L118.667 372.021L118.386 372.563L117.869 372.874L116.659 374.795L115.621 375.2L114.745 376.87L112.704 378.795L112.495 379.478L111.571 379.883L112.004 379.915L110.714 381.808L110.328 383.335L110.885 385.588L110.58 387.172L110.106 387.815L110.569 389.309L110.047 390.314L110.699 391.534L110.978 393.411L111.318 393.655L111.069 394.216L111.507 395.891L111.228 397.201L111.507 398.14L111.158 398.578L111.449 398.826L111.614 400.255L111.947 400.254L112.102 401.406L112.857 401.717L112.615 402.104L113.46 402.453L113.57 403.245L115.389 404.568L115.758 405.713L116.135 405.87L115.772 405.836L116.17 405.926L115.791 405.994L116.314 405.796L115.784 406.052L116.116 405.898L115.903 405.646L116.257 405.73L115.685 405.755L116.263 405.32L115.58 403.456L115.655 402.87L116.089 402.548" stroke="black" stroke-width="6" stroke-linecap="round" stroke-linejoin="round"/>
<path d="M113.144 400.547L113.035 396.314L111.831 393.593L111.381 390.617L112.798 388.214L112.992 386.939L116.791 378.955L119.947 375.567L120.085 374.972L122.538 373.665L125.037 371.559L126.005 371.433L127.459 370.695L129.277 368.759L130.303 368.116L133.769 367.004L134.881 366.96L139.948 364.779L140.904 363.687L142.46 363.693L145.263 364.593L150.158 365.483L152.627 366.848L154.006 366.99L157.433 369.071L162.645 370.653L166.656 372.782L167.148 372.752L168.124 374.056L169.925 375.418L171.8 377.761L173.318 378.743L173.648 380.009L174.007 379.957L174.951 381.54L176.764 386.045L177.574 386.522L177.25 387.097L178.183 388.054L178.029 388.75L178.567 389.059L179.301 390.765L180.429 392.137L181.285 394.72L182.073 395.363L181.802 395.767L182.861 396.883L184.491 402.127L184.478 404.229L184.745 404.848L184.476 405.757L185.087 405.941L184.625 405.806L184.98 406.583L184.977 406.904L184.713 406.796L185.187 406.87L185.216 407.828L184.909 408.157L185.589 408.345L185.136 408.302L185.58 408.609L185.526 409.236L185.735 409.122L185.304 409.098L185.55 409.206L185.328 409.345L185.832 409.003L185.162 409.379L185.729 409.195L185.221 409.325L185.505 409.423L185.267 409.23L185.52 409.3L185.324 409.443L185.686 409.235L185.175 409.435L185.664 409.335L185.247 409.223L185.551 409.102L185.5 409.353L185.296 409.171L185.62 409.37L185.73 408.987L185.467 409.44L185.365 409.127L185.596 409.099L185.199 409.142L185.683 409.144L185.161 409.136L185.529 409.126L185.29 409.252L185.44 409.471L185.383 409.028L185.731 409.055L185.192 409.353L185.437 409.195L185.525 409.412L185.251 409.302L185.54 409.416L185.275 409.373L185.545 409.427L185.23 409.314L185.552 409.205L185.306 409.152L185.274 410.806" stroke="black" stroke-width="6" stroke-linecap="round" stroke-linejoin="round"/>
<path d="M510.104 257.537L510.14 255.609L511.632 261.616L512.743 263.611L513.684 264.526L514.819 267.229L514.742 268.51L515.733 270.448L517.264 276.444L517.249 279.058L517.913 283.806L519.083 286.209L520.733 293.753L523.741 301.075L524.907 302.438L525.698 306.136L526.687 308.127L527.571 311.256L529.079 319.019L528.945 319.828L530.301 323.03L530.805 328.721L531.542 331.517L533.107 335.364L532.93 337.254L533.98 339.31L533.903 341.382L536.773 349.765L537.337 350.507L537.637 352.68L539.201 356.422L539.557 358.526L540.113 359.588L540.857 363.511L541.805 365.981L541.654 366.713L542.507 368.689L543.183 371.503L544.834 384.457L545.234 385.158L545.826 385.482L545.487 386.005L546.601 388.542L546.415 389.196L547.134 389.982L546.721 389.669L547.138 390.013L547.04 389.823L546.582 390.163L546.522 390.695L547.332 393.01L547.068 394.081L547.477 395.357L548.028 395.874L547.95 397.073L548.851 398.968L548.719 399.479L548.445 399.228L548.678 399.493L548.172 400.848L547.314 402.911L546.533 403.852L547.013 403.584L546.509 403.589L546.825 403.342L546.544 403.367L546.714 403.605L545.891 403.489L544.299 404.348L542.711 405.388L540.5 407.486L539.665 408.016L539.341 407.876L539.598 408.289L539.267 408.535L539.298 409.059L539.039 408.882L541.049 409.351" stroke="black" stroke-width="6" stroke-linecap="round" stroke-linejoin="round"/>
<path d="M509.372 258.966L509.415 258.035L508.28 256.479L507.839 255.168L508.05 254.836L507.373 254.464L507.122 253.018L506.46 251.996L505.91 251.819L506.184 251.403L505.49 250.799L504.736 247.998L504.14 247.794L504.633 247.594L504.098 247.449L504.482 247.359L504.142 247.362L504.825 244.207" stroke="black" stroke-width="6" stroke-linecap="round" stroke-linejoin="round"/>
<path d="M438.859 135.672L438.253 135.809L438.333 135.133L438.09 135.217L434.7 138.924L427.691 147.928L425.468 150.112L413.649 160.286L411.893 161.335L426.619 146.23L433.802 135.98L436.099 133.914L435.134 134.311L434.638 135.784L426.72 145.353L421.944 150.303L411.652 159.738L409.066 163.094L409.029 163.402L410.478 162.76L410.701 162.227L420.646 152.114L431.125 142.263L433.056 140.224L437.727 134.181L427.2 147.136L421.775 152.416L411.463 161.493L409.499 163.849L409.731 164.066L410.412 163.903L411.978 163.166L425.351 151.242L432.324 146.591L437.746 140.309L428.053 152.706L420.777 159.468L409.323 172.357L409.072 172.763L409.49 172.747L411.584 171.267L416.904 166.537L423.973 158.834L431.294 152.623L435.499 148.283L442.136 139.634L444.468 137.316L429.311 154.09L426.004 157.234L418.743 162.963L407.216 173.856L403.909 177.462L403.295 178.516L403.755 177.564L406.923 175.507L413.367 168.555L427.164 155.69L428.063 154.342L423.421 157.466L416.624 163.666L413.636 167.22L409.237 170.589L408.803 171.279L407.954 171.544L407.64 171.331L406.712 171.793L404.638 173.167L404.111 173.946" stroke="black" stroke-width="6" stroke-linecap="round" stroke-linejoin="round"/>
<path d="M401.011 177.275L401.744 177.033L402.208 175.98L404.022 174.157L408.842 170.231L418.696 161.179L434.877 148.73L437.674 146.462L438.727 145.157L438.724 145.474L436.012 149.641L434.099 151.961L426.161 160.337L416.055 169.925L409.559 176.598L404.18 182.694L399.967 186.931L399.396 188.519L413.181 176.302L432.215 160.592L443.364 149.871L445.889 148.074L447.643 147.405L444.987 151.135L424.122 174.301L414.559 183.634L411.091 187.59L415.815 183.579L423.795 175.519L439.777 161.983L444.724 157.313L449.298 153.839L455.527 149.726L456.642 148.628L457.082 148.579L453.528 152.96L445.907 161.011L428.055 181.607L421.404 187.847L413.861 193.751L416.882 190.902L419.536 187.412L443.937 164.987L452.523 157.764L456.092 155.639L456.995 155.326L457.312 155.57L445.145 166.811L435.331 176.749L424.733 188.427L414.311 197.948L409.533 203.149L412.57 200.723L418.125 194.448L424.836 188.169L433.29 181.725L447.893 169.868L460.515 161.448L462.688 159.497L464.144 158.711L462.507 159.881L457.475 166.053L449.669 174.05L429.233 194.447L426.935 196.531L420.615 201.292L419.717 201.738L419.339 201.828L419.594 201.538L421.881 199.737L428.964 192.867L431.624 190.801L438.15 183.709L443.282 178.83L453.005 170.58L457.51 167.407L458.261 167.353L454.703 169.964L443.361 181.205L435.564 188.292L423.646 199.907L419.167 203.778L412.311 210.692L406.496 215.045L408.341 213.139L415.661 207.153L423.412 199.763L437.869 188.432L441.663 185.099L448.941 179.622L459.822 172.297L470.137 164.78L446.202 185.801L421.437 210.753L418.305 212.967L417.499 213.3L417.185 213.033L431.491 200.461L436.873 195.075L447.073 185.89L458.871 177.291L434.252 203.304L425.775 212.932L420.083 217.108L429.38 210.213L436.763 203.316L444.326 194.339L447.239 191.672L460.94 181.652L460.866 182.074L459.797 182.695L459.077 183.859L449.442 194.248L444.496 199.021L435.219 209.793L433.576 211.431L430.047 213.859L436.882 207.288L443.168 200.697L458.734 187.22L454.889 191.208L445.862 202.297L441.348 208.357L434.554 215.319L442.728 207.33L446.359 204.269L451.695 198.414L457.774 192.566L462.82 188.784L465.786 187.07L464.329 188.23L461.335 192.357L452.503 201.412L444.858 210.126L440.214 214.553L436.146 217.821L439.709 215.186L445.692 208.931L454.678 201.141L458.464 198.329L460.425 197.634L459.482 199.058L455.706 203.073L452.556 207.536L441.135 220.253L438.4 223.899L438.338 224.432L438.68 224.686L442.181 222.509L449.319 217.319L455.25 212.423L458.372 209.184L461.823 206.257L463.095 204.69L462.397 205.033L461.804 206.363L453.497 215.658L445.643 223.088L446.497 222.62L453.991 215.784L462.591 210.36L461.829 210.89L455.625 221.43L453.774 223.516L455.045 222.18" stroke="black" stroke-width="6" stroke-linecap="round" stroke-linejoin="round"/>
<path d="M399.326 204.595L399.544 204.699L403.768 200.949L407.166 198.531L420.981 190.119L424.237 186.949" stroke="black" stroke-width="6" stroke-linecap="round" stroke-linejoin="round"/>
<path d="M405.197 194.436L405.513 194.285L405.23 193.826L406.178 192.501L411.965 186.424L420.853 180.255" stroke="black" stroke-width="6" stroke-linecap="round" stroke-linejoin="round"/>
<path d="M405.076 191.203L404.65 190.65L404.781 190.313L407.375 187.729L413.236 183.458L417.269 181.157" stroke="black" stroke-width="6" stroke-linecap="round" stroke-linejoin="round"/>
<path d="M405.232 198.613L418.192 189.309" stroke="black" stroke-width="6" stroke-linecap="round" stroke-linejoin="round"/>
<path d="M410.258 201.793L414.805 197.754L419.985 194.679" stroke="black" stroke-width="6" stroke-linecap="round" stroke-linejoin="round"/>
<path d="M414.539 207.697L420.499 202.582" stroke="black" stroke-width="6" stroke-linecap="round" stroke-linejoin="round"/>
<path d="M412.016 218.254L414.058 215.493L419.358 210.869L426.191 207.639" stroke="black" stroke-width="6" stroke-linecap="round" stroke-linejoin="round"/>
<path d="M416.197 224.682L417.328 223.741L419.079 221.398L424.19 216.801L427.743 214.447L430.556 213.431L431.396 212.76" stroke="black" stroke-width="6" stroke-linecap="round" stroke-linejoin="round"/>
<path d="M426.467 222.897L432.037 217.735L434.941 214.388L442.765 210.293" stroke="black" stroke-width="6" stroke-linecap="round" stroke-linejoin="round"/>
<path d="M434.242 223.522H434.739L436.967 220.775L439.346 218.744L440.611 217.144L446.178 213.468" stroke="black" stroke-width="6" stroke-linecap="round" stroke-linejoin="round"/>
<path d="M460.66 180.857L458.424 182.527L455.588 185.256" stroke="black" stroke-width="6" stroke-linecap="round" stroke-linejoin="round"/>
<path d="M466.087 171.733L465.008 171.455L463.462 172.128L460.654 174.33L458.703 176.36" stroke="black" stroke-width="6" stroke-linecap="round" stroke-linejoin="round"/>
<path d="M465.115 158.855L461.876 159.298L458.233 161.596L454.331 165.086L453.247 165.527L452.586 165.348L452.619 165.099" stroke="black" stroke-width="6" stroke-linecap="round" stroke-linejoin="round"/>
<path d="M455.65 146.253L454.25 146.546L451.692 147.862L449.46 149.455L448.692 149.734L448.543 149.485" stroke="black" stroke-width="6" stroke-linecap="round" stroke-linejoin="round"/>
<path d="M453.098 139.508L452.405 138.829L451.141 138.715L450.23 139.758L447.194 141.44L445.996 142.853L445.374 143.096L445.361 142.566" stroke="black" stroke-width="6" stroke-linecap="round" stroke-linejoin="round"/>
<path d="M448.007 132.671L442.51 135.056L441.334 136.008L441.58 135.478" stroke="black" stroke-width="6" stroke-linecap="round" stroke-linejoin="round"/>
<path d="M447.355 124.636L443.621 127.005L435.594 133.312" stroke="black" stroke-width="6" stroke-linecap="round" stroke-linejoin="round"/>
<path d="M441.229 122.369L439.268 122.606L435.361 125.93" stroke="black" stroke-width="6" stroke-linecap="round" stroke-linejoin="round"/>
<path d="M328.793 21.071L327.291 24.0661L325.999 27.944L319.134 51.3551L317.969 59.772L318.354 61.141L319.274 61.302" stroke="black" stroke-width="6" stroke-linecap="round" stroke-linejoin="round"/>
<path d="M327.322 30.231L325.749 29.7271L325.256 30.4521L316.529 54.8501L315.612 57.9211L314.979 63.4801L315.384 63.7281L316.08 63.4731L316.743 62.7391L317.225 60.5061L318.978 56.3511" stroke="black" stroke-width="6" stroke-linecap="round" stroke-linejoin="round"/>
<path d="M333.59 22.98L332.117 25.468L329.386 32.962L325.473 48.068L324.307 53.758L325.263 55.04L325.184 54.747L326.106 53.375" stroke="black" stroke-width="6" stroke-linecap="round" stroke-linejoin="round"/>
<path d="M332.089 30.559L330.877 32.786L329.427 38.56L327.584 44.245L326.204 49.705L325.245 55.324L324.369 65.662L324.601 67.008L325.979 68.135L326.436 67.833L327.103 63.944" stroke="black" stroke-width="6" stroke-linecap="round" stroke-linejoin="round"/>
<path d="M335.495 29.5201L334.273 28.6951L333.967 30.3871L332.628 33.5381L329.81 44.0651L328.056 52.942L327.152 60.3031L327.375 61.994L328.108 63.2081L328.378 61.8881L329.176 60.8031L330.423 57.3081" stroke="black" stroke-width="6" stroke-linecap="round" stroke-linejoin="round"/>
<path d="M338.394 30.276L338.758 28.703L336.635 34.308L334.455 43.51L333.364 46.75L330.592 62.848L330.997 64.492L331.992 63.895L332.306 63.267L332.376 62.41L333.71 59.352L336.087 50.398" stroke="black" stroke-width="6" stroke-linecap="round" stroke-linejoin="round"/>
<path d="M344.201 22.9089L340.486 33.6079L338.28 45.0719L336.261 53.0379L336.074 55.088L336.34 57.7059L337.37 59.4899L338.556 59.2059" stroke="black" stroke-width="6" stroke-linecap="round" stroke-linejoin="round"/>
<path d="M344.404 40.729L342.118 49.07L339.748 55.52L338.326 62.434L338.571 66.017L339.701 65.618L341.102 63.954" stroke="black" stroke-width="6" stroke-linecap="round" stroke-linejoin="round"/>
<path d="M350.719 30.947L349.014 31.365L348.164 32.526L343.755 47.558L343.164 54.713L343.569 59.712L344.523 61.084L345 61.31" stroke="black" stroke-width="6" stroke-linecap="round" stroke-linejoin="round"/>
<path d="M353.302 26.312L351.562 29.04L349.427 38.543L348.388 48.423L348.145 60.098L348.549 64.162L349.284 65.271L350.115 65.831L352.221 60.759L353.11 56.103" stroke="black" stroke-width="6" stroke-linecap="round" stroke-linejoin="round"/>
<path d="M357.451 28.807L356.973 28.545L354.71 36.795L351.903 52.095L351.875 56.13L352.329 59.141L352.603 59.385L353.495 58.998L353.893 58.361L355.182 54.589" stroke="black" stroke-width="6" stroke-linecap="round" stroke-linejoin="round"/>
<path d="M360.9 29.6081L361.231 28.6221L361.179 29.4191L360.318 31.7001L357.865 42.9931L357.574 48.7661L356.152 58.1731L356.868 62.1181L358.105 63.0441L358.595 62.9371L359.213 61.5291" stroke="black" stroke-width="6" stroke-linecap="round" stroke-linejoin="round"/>
<path d="M367.782 27.8L366.045 31.8661L365.283 34.5571L364.106 40.442L363.708 45.7451L362.558 53.2201L362.436 58.8121L363.322 69.5781L363.751 71.8341" stroke="black" stroke-width="6" stroke-linecap="round" stroke-linejoin="round"/>
<path d="M371.521 21.676L371.04 19.63L370.506 19.459L368.997 20.38L367.343 25.416L366.156 32.02L364.9 44.615L364.131 54.846L364.377 57.013L363.979 58.909L364.241 60.506L367.018 63.657L367.622 63.518L368.03 62.846L368.404 60.795" stroke="black" stroke-width="6" stroke-linecap="round" stroke-linejoin="round"/>
<path d="M374.069 33.894L373.133 35.435L370.181 50.809L369.3 57.661L368.113 63.601L368.153 65.52L368.826 66.792L369.36 66.425L370.697 63.989L372.853 58.418L378.161 39.742L379.827 28.767L380.448 26.428L377.686 31.97L377.184 33.776L376.173 38.575L375.383 45.529L375.83 49.277L375.493 51.305L375.653 56.286L376.689 55.917L378.076 53.525L379.642 48.846" stroke="black" stroke-width="6" stroke-linecap="round" stroke-linejoin="round"/>
<path d="M382.213 30.947L381.695 30.515L381.13 30.603L380.871 31.918L378.686 45.417L377.43 50.755L376.678 60.832L377.027 62.566L377.957 64.515L378.742 64.719L379.136 64.462L380.321 62.163L383.423 50.908" stroke="black" stroke-width="6" stroke-linecap="round" stroke-linejoin="round"/>
<path d="M385.975 24.7919L385.613 24.2739L385.02 24.6559L384.907 28.7L383.398 36.907L383.726 45.3609L383.178 50.5809L383.195 52.9189L384.121 58.0899L385.042 59.9919L385.693 59.9049" stroke="black" stroke-width="6" stroke-linecap="round" stroke-linejoin="round"/>
<path d="M390.812 28.343L390.023 28.236L389.134 29.952L388.143 39.755L388.102 45.955L387.73 48.812L388.203 62.486L389.466 67.207L390.117 68.422L391.556 63.987" stroke="black" stroke-width="6" stroke-linecap="round" stroke-linejoin="round"/>
<path d="M395.436 30.517L393.705 30.892L392.78 32.331L392.672 33.157L393.138 38.828L393.171 45.93L393.826 53.306L394.451 57.144L395.318 59.697L396.304 57.458L397.865 51.959L398.525 46.483L399.165 43.886L399.032 39.87L398.578 36.972L398.864 34.083L397.979 31.805L397.421 31.238L397.702 31.872L397.267 36.744L397.464 39.484L400.502 53.995L402.123 59.051L403.323 59.783L403.774 58.533L405.259 51.112L406.123 43.305L406.04 41.063L404.829 35.05L403.364 30.218L403.387 29.261L404.632 35.106L404.467 37.576L405.015 46.327L407.107 55.667L407.872 56.627L408.033 56.317L409.222 48.093L409.154 35.708L408.93 35.642L409.155 40.881L410.173 49.847L411.092 52.623L413.077 61.788L414.788 66.915L415.547 68.512L415.825 68.747L415.914 68.511" stroke="black" stroke-width="6" stroke-linecap="round" stroke-linejoin="round"/>
<path d="M414.832 37.7939L414.193 41.0669L414.48 42.743L416.264 49.14L418.259 53.4479L420.489 59.9639L422.523 64.3719L423.462 70.2679" stroke="black" stroke-width="6" stroke-linecap="round" stroke-linejoin="round"/>
<path d="M421.529 42.598L421.285 43.494L423.04 46.626L425.929 55.636L428.381 71.057L428.579 75.861L428.793 75.626" stroke="black" stroke-width="6" stroke-linecap="round" stroke-linejoin="round"/>
<path d="M426.996 37.645L426.879 38.351L431.514 60.996L435.649 76.343L435.873 81.019" stroke="black" stroke-width="6" stroke-linecap="round" stroke-linejoin="round"/>
<path d="M429.121 44.85L429.177 50.379L432.591 67.233L435.642 88.89L435.701 96.274L436.885 98.716" stroke="black" stroke-width="6" stroke-linecap="round" stroke-linejoin="round"/>
<path d="M432.678 55.037L431.995 55.664V56.259L431.695 56.505L432.396 58.042L433.073 61.409L434.736 66.03L435.259 68.745L438.322 97.087L438.391 102.07L438.626 103.298L439.517 104.866" stroke="black" stroke-width="6" stroke-linecap="round" stroke-linejoin="round"/>
<path d="M434.87 56.2131L434.063 55.1051L434.125 54.4961L433.387 53.326L433.006 51.7101L433.113 50.6001L433.564 49.8831L434.176 50.201L433.918 50.843L434.343 51.2581L435.932 55.1801L438.471 63.916L439.689 75.5291L439.849 84.8501L439.562 93.9671L438.898 99.4141L435.893 112.707" stroke="black" stroke-width="6" stroke-linecap="round" stroke-linejoin="round"/>
<path d="M441.664 101.5L441.504 103.905L442.261 106.213L442.605 124.942L443.54 128.234L444.803 129.799L445.667 129.996" stroke="black" stroke-width="6" stroke-linecap="round" stroke-linejoin="round"/>
<path d="M438.467 104.769L438.286 104.969L438.896 105.674L438.074 110.251L438.432 127.593L440.193 129.168L442.186 130.212" stroke="black" stroke-width="6" stroke-linecap="round" stroke-linejoin="round"/>
<path d="M437.888 109.066L437.297 109.186L437.592 109.5L436.926 112.321L436.719 120.987L437.391 124.848L438.507 127.761L440.67 130.518" stroke="black" stroke-width="6" stroke-linecap="round" stroke-linejoin="round"/>
<path d="M325.758 24.698L325.72 23.161L325.381 23.785L325.44 24.62L323.927 27.301L320.146 36.484L314.268 47.166L307.213 57.341L301.694 63.73L295.631 71.689" stroke="black" stroke-width="6" stroke-linecap="round" stroke-linejoin="round"/>
<path d="M318.27 36.0381L318.048 35.5611L317.376 35.3721L316.637 36.0321L312.661 43.1781L308.858 51.8341L306.634 58.313L303.749 64.6271L302.92 67.576L302.184 68.4351" stroke="black" stroke-width="6" stroke-linecap="round" stroke-linejoin="round"/>
<path d="M310.075 41.126L301.668 51.404L298.732 57.149L298.62 59.517L296.922 61.553" stroke="black" stroke-width="6" stroke-linecap="round" stroke-linejoin="round"/>
<path d="M310.999 33.605L307.576 40.336L303.759 46.935L299.135 56.258L296.207 63.588L295.072 67.263L293.926 73.222L294.403 73.269L294.522 72.962" stroke="black" stroke-width="6" stroke-linecap="round" stroke-linejoin="round"/>
<path d="M307.891 34.113L304.146 40.763L299.158 51.844L297.638 60.01L297.396 64.027L297.637 64.744" stroke="black" stroke-width="6" stroke-linecap="round" stroke-linejoin="round"/>
<path d="M305.939 39.38L301.025 47.874L297.508 55.656L295.301 63.801L288.841 81.425L288.486 83.192L288.579 87.665" stroke="black" stroke-width="6" stroke-linecap="round" stroke-linejoin="round"/>
<path d="M296.756 57.33L294.071 63.796L292.98 67.635L291.077 84.823L289.139 94.416L289.173 97.999L289.759 98.795" stroke="black" stroke-width="6" stroke-linecap="round" stroke-linejoin="round"/>
<path d="M295.463 60.8411L293.183 63.3201L290.572 67.5161L288.495 76.1251L287.912 81.9861L286.955 87.2341L286.773 89.7531L287.46 93.886L289.231 98.1311L289.854 99.0991L290.771 99.718" stroke="black" stroke-width="6" stroke-linecap="round" stroke-linejoin="round"/>
<path d="M289.216 75.111L287.831 76.032L285.628 78.576L285.569 81.148L284.053 85.054L283.51 89.949L284.661 94.885L287.274 100.988L291.512 107.25L294.156 110.48L295.146 111.164" stroke="black" stroke-width="6" stroke-linecap="round" stroke-linejoin="round"/>
<path d="M306.518 48.87L302.324 61.037L296.883 81.016L295.638 86.089L289.464 117.919L289.156 122.475L289.713 125.833L290.468 128.996L290.824 129.523L291.537 129.48" stroke="black" stroke-width="6" stroke-linecap="round" stroke-linejoin="round"/>
<path d="M311.264 53.79L309.231 60.903L307.685 69.472L303.978 79.921L300.417 87.372L299.075 91.357L294.626 112.596L294.312 118.204L295.09 119.164L295.391 119.079L295.241 118.266" stroke="black" stroke-width="6" stroke-linecap="round" stroke-linejoin="round"/>
<path d="M310.895 64.063L308.758 67.529L308.06 69.822L305.585 83.108L302.921 103.667L302.546 113.509L301.72 118.456L302.186 119.21L302.147 119.436L301.686 119.381" stroke="black" stroke-width="6" stroke-linecap="round" stroke-linejoin="round"/>
<path d="M299.72 62.553L297.127 72.516L294.842 86.605L292.599 109.933L292.145 124.694L292.323 129.749L292.598 130.507L292.885 130.461" stroke="black" stroke-width="6" stroke-linecap="round" stroke-linejoin="round"/>
<path d="M301.684 95.6541L298.129 107.995L294.908 120.965L293.398 128.497L289.71 142.205L288.338 150.232L288.576 151.665" stroke="black" stroke-width="6" stroke-linecap="round" stroke-linejoin="round"/>
<path d="M301.071 112.992L299.337 115.828L297.665 121.475L294.72 129.447L289.873 147.361L288.744 154.306L288.903 157.26L289.388 157.236L290.414 156.006L293.129 151.498" stroke="black" stroke-width="6" stroke-linecap="round" stroke-linejoin="round"/>
<path d="M304.338 119.253L302.969 120.269L300.757 123.797L293.439 143.982L289.869 155.202L287.26 160.721L296.718 144.794L298.232 141.445L301.103 138.465L300.74 138.171L296.17 144.891L294.988 147.54L293.319 153.314L292.181 156.124L287.879 164.447L285.125 171.372L285.275 171.679L285.498 171.526L289.657 164.785L295.822 153.44L300.73 146.753L305.203 142.327L306.347 141.851L306.76 141.887L306.71 142.455L301.125 151.893L294.711 160.63L287.051 173.941L294.256 161.922" stroke="black" stroke-width="6" stroke-linecap="round" stroke-linejoin="round"/>
<path d="M310.281 144.653L310.844 139.438L310.22 140.962L306.835 145.064L298.156 159.148L292.173 167.918L290.061 172.134L289.754 173.286L290.174 173.867L294.648 168.446L299.441 160.528L303.235 155.322L306.905 151.335L311.752 147.581L309.315 149.944L308.818 151.203L301.415 161.326L295.188 170.66L291.338 177.288L285.567 185.991L283.348 188.519L284.689 186.134" stroke="black" stroke-width="6" stroke-linecap="round" stroke-linejoin="round"/>
<path d="M307.227 151.407L302.605 154.999L294.216 165.247L288.283 175.252L287.277 177.435L294.099 169.144L301.387 157.913L305.95 152.431L306.43 152.289L292.316 171.506L283.683 185.274L278.964 190.765L284.074 184.309L290.545 174.956L300.842 162.546L307.554 155.245L311.697 151.528L312.438 151.367L312.503 151.736L309.406 154.61L308.433 156.457L302.411 164.174L295.843 175.196L291.496 183.936L278.194 202.571L275.852 206.591L275.719 207.314L276.904 205.851L279.053 201.771L283.331 195.313" stroke="black" stroke-width="6" stroke-linecap="round" stroke-linejoin="round"/>
<path d="M306.728 170.7L299.481 179.828L292.284 190.168L290.657 192.227L288.416 194.215L296.9 186.075L306.381 175.931L316.81 166.821L322.482 161.056L324.16 158.882L324.7 158.836L324.659 159.396L313.58 173.88L302.093 186.605L295.914 194.166L288.217 204.288L285.368 209.087L283.317 211.843L287.586 206.974L295.611 196.486L305.088 185.94L307.341 182.994L324.13 167.36L326.283 166.006L326.493 166.164L326.103 167.5L325.175 169.709L316.366 182.05L311.998 188.706L300.722 201.82L294.291 209.93L297.966 205.784L302.902 198.281L305.726 195.044L311.525 188.782L324.969 175.38L331.136 167.705L323.483 176.73L312.307 191.813L302.366 202.227L296.865 210.142L290.353 217.851L290.599 218.093L291.127 217.761L293.891 215.068L310.208 196.479L319.431 188.206L323.652 183.752L326.673 180.234L328.596 177.349L331.701 174.073L313.557 199.922L300.83 215.082L309.724 205.347L314.619 199.45L325.418 188.779L329.28 184.564L332.851 181.971L334.017 181.426L334.719 181.526L335.081 181.795L335.12 182.333L333.383 184.866L323.444 195.516L321.731 197.777L320.324 200.402L313.609 209.756L309.638 214.408L306.569 217.336L316.394 208.472L326.586 195.09L328.753 192.78L333.035 189.058L340.179 181.404L337.911 184.047L336.454 187.01L333.572 190.421L325.449 203.021L321.425 209.944L317.054 215.44L312.664 220.317L313.718 219.543L314.798 217.725L326.531 204.398L330.369 199.471L335.794 193.755L338.292 191.594L339.921 190.649L340.404 190.652L340.386 190.914L338.842 192.451L335.307 198.478L327.798 209.465L317.183 222.307L324.388 213.751L335.117 203.397L340.701 196.896L341.783 196.213L341.979 196.318L340.065 197.945L336.037 205.262L334.452 208.775L331.491 212.447L328.254 217.508L337.075 207.589L343.836 198.141L344.863 197.085L346.502 196.188L341.659 201.984L336.074 210.837L325.6 223.661L324.774 225.089L333.447 215.187L336.76 211.827L338.22 209.687L341.588 206.16L342.041 205.288L342.264 205.65L341.734 205.993L340.795 208.236L330.728 221.419L333.066 218.352L336.373 214.92L340.89 210.289L344.053 207.613L343.388 208.783L341.654 210.065L338.763 214.318L336.109 217.408L333.973 221.053L334.736 221.236L336.573 220.212L340.266 217.532L341.399 217.054L341.549 216.656L339.992 218.459L339.513 219.262L339.779 219.352L340.695 217.58L342.309 215.615L343.144 215.188L342.944 214.946L342.043 215.532L337.068 220.137L334.321 221.861L332.03 222.911L329.384 223.21L328.887 223.513L325.672 222.457L321.337 222.883L316.604 220.911L315.223 220.743L307.047 221.546L304.139 221.469L301.225 220.842L297.543 221.658L294.582 223.018L291.631 221.383L290.298 221.265L289.425 220.855L289.539 220.659L288.408 220.38L286.716 220.621L284.689 221.937L283.91 221.465L282.964 221.769L278.939 224.388L277.782 224.576L277.338 224.004L277.89 221.23L279.355 217.735L284.209 210.183L293.07 195.001L295.024 192.413L300.82 186.284L304.264 180.42L307.46 176.027L306.583 177.474L305.372 178.371L302.429 181.89L297.264 189.328L285.574 201.808L283.477 203.61L282.835 203.862L282.742 203.66L284.167 202.43L285.72 198.439L288.574 193.173L294.402 184.53L298.21 178.219L305.187 168.616L312.162 160.492L308.867 163.924L294.771 180.534L288.84 187.035L274.607 201.479L276.263 199.976L279.723 194.571L282.153 191.593L292.208 179.951L303.277 168.541L310.63 160.528L312.909 157.601L314.022 156.72L314.599 155.888L314.526 154.217L314.058 153.373L314.045 154.483L313.468 155.479L313.521 155.683L313.984 155.466L312.54 155.669L317.805 146.883L319.68 144.695L318.932 145.026L316.681 145.196L315.103 145.821L309.557 149.471L301.472 155.608L301.363 154.984L303.058 151.969L304.143 148.069L303.644 146.756L301.056 144.246L300.37 142.835L300.585 140.798L300.233 139.235L300.305 137.4L301.166 134.309L301.636 133.709L300.929 135.181L301.013 135.66L299.476 137.7L298.766 139.783" stroke="black" stroke-width="6" stroke-linecap="round" stroke-linejoin="round"/>
<path d="M374.131 17.2011L374.031 14.2541L373.599 12.5891L373.053 11.7811L372.007 11.7931L367.901 14.8571L360.612 22.1901L356.401 25.0601L353.41 26.3771L353.358 25.2661L355.132 22.1891L360.919 16.3071L363.895 12.5441L364.198 12.0261L364.065 11.6031L363.055 11.3441L360.365 12.0731L352.818 14.8461L349.187 16.7081L345.169 19.9101L348.221 16.1311L350.385 14.1651L352.514 9.83707L352.371 9.43906L347.899 12.6341L345.353 15.3461L340.189 19.4331L337.737 20.9941L336.606 21.1171L336.98 20.6041L336.895 20.0611L338.496 17.2201L342.514 12.0181L342.925 10.5701L341.555 9.97406L338.669 11.7611L334.603 15.8511L327.333 22.3051L322.066 26.7661L321.623 26.8241L323.39 25.472L327.216 20.4601L332.082 14.8141L333.716 12.5081L334.653 10.1301L332.167 10.9261L319.179 20.6691L312.445 23.7641L307.537 25.2831L307.762 25.9051L308.087 25.6421L307.958 24.2991L309.982 22.0151L315.925 19.2981L317.931 19.0721L319.47 19.7031L320.22 20.7371L319.69 22.8151L317.514 26.6901L319.71 26.1541L328.602 21.0031L340.323 15.3811L352.964 10.1721L357.288 7.97906L362.575 6.94707L364.494 7.33105L364.763 7.78606L364.166 9.72707L355.61 20.0561L351.202 24.5561L348.486 27.8491L351.573 25.4491L353.973 22.7441L362.444 15.3091L367.694 11.7301L369.109 11.4891L368.803 11.9721L369.287 12.6131L369.215 13.0041L367.693 15.3411L365.383 17.9591L364.232 20.1071L364.33 20.4781L364.88 20.3281L372.715 15.4291L381.845 6.83305L385.043 4.82007L385.502 4.88106L386.005 5.72206L385.101 7.96906L376.762 19.9591L371.942 26.179L372.64 25.9221L374.822 23.9951L391.996 8.04306L392.337 8.12006L392.189 8.46007L390.94 9.66006L379.428 24.2431L379.02 25.8351L381.354 24.5171L392.84 14.3921L397.682 10.7641L397.667 11.3201L390.101 21.9031L386.074 28.3841L392.585 23.0601L399.859 17.7581L402.618 14.7881L406.795 12.3091L407.095 11.8591L407.245 12.4711L406.141 14.9611L401.336 20.2931L395.524 28.2731L399.795 25.744L400.609 24.6831L410.611 16.6671L404.699 24.6821L403.452 26.7241L402.974 28.3441L406.158 26.4871L411.528 21.6831L415.261 19.8581L416.095 20.1641L415.454 20.6211L415.941 20.8601L418.808 20.6291L419.093 21.5561L418.315 23.9381L414.701 29.541L415.333 28.8911L416.461 28.9661L417.609 29.6121L417.057 30.666L419.304 28.6271" stroke="black" stroke-width="6" stroke-linecap="round" stroke-linejoin="round"/>
<path d="M415.244 96.6571H412.525L412.884 96.6541L412.708 97.1481L411.415 98.0881L409.949 99.7631L407.262 103.327L404.075 108.815L398.227 116.003L396.111 119.179L395.846 119.806L396.197 120.205" stroke="black" stroke-width="2" stroke-linecap="round" stroke-linejoin="round"/>
<path d="M409.745 94.157L410.265 92.794L410.802 92.594L410.013 93.737L407.416 95.766L403.697 100.84L399.483 105.047L388.859 117.21" stroke="black" stroke-width="2" stroke-linecap="round" stroke-linejoin="round"/>
<path d="M346.118 94.96L344.178 98.669L341.687 102.483L333.331 113.065L329.255 118.877L327.722 121.729L327.359 123.146" stroke="black" stroke-width="2" stroke-linecap="round" stroke-linejoin="round"/>
<path d="M356.816 90.228L357.406 89.017L357.13 89.3L357.114 89.678L357.427 89.458L357.012 90.782L355.967 92.732L350.703 100.327L337.173 118.591L334.66 122.689L330.805 130.299" stroke="black" stroke-width="2" stroke-linecap="round" stroke-linejoin="round"/>
<path d="M225.527 277.231L226.754 286.494L226.296 287.367L225.86 285.734L226.196 283.075L225.807 281.079L225.693 278.547" stroke="black" stroke-width="2" stroke-linecap="round" stroke-linejoin="round"/>
<path d="M131.436 380.719L133.785 378.075L133.487 378.068L132.032 379.946L125.953 385.831L123.947 388.142L120.987 392.415L118.115 394.875L117.588 395.813L117.786 396.261L118.113 396.137L122.654 391.875L135.437 375.922L134.464 377.362L132.368 382.518L131.187 384.232L126.844 392.48L125.778 395.235L126.115 395.589L126.831 393.876L128.304 392.31L133.232 385.484L137.302 380.883L141.003 377.647L141.97 376.275L144.663 373.872L145.338 373.56L145.618 374.027L144.727 375.253L143.578 378.6L140.459 384.899L130.887 400.028L132.682 398.309L133.531 396.777L136.084 394.057L142.262 385.972L152.521 376.823L156.33 372.951L156.491 372.648L156.074 372.876L146.984 385.226L142.463 392.544L141.261 395.226L141.416 395.85L142.25 394.303L145.835 391.566L150.272 387.021L154.615 381.481L156.888 378.047L159.974 375.252L163.116 372.942L161.384 377.103L153.028 389.87L148.961 397.482L146.487 403.069L146.977 403.379L148.045 401.861L151.013 399.671L159.158 390.126L161.627 388.038L159.747 390.027L157.836 392.881L150.617 404.314L150.237 405.009L150.306 405.292L150.593 405.155L157.549 397.121L163.352 391.579L168.603 387.109L170.22 385.33L168.816 387.305L166.414 392.987L161.229 401.506L162.109 400.453L162.982 400.386L164.447 399.57L171.582 391.541L173.088 390.335L173.683 390.109L174.332 390.285L174.44 390.519L173.16 391.97L171.329 395.418L168.579 402.369L167.379 403.995L167.267 404.593L167.737 404.847L169.163 403.819L171.402 403.387L176.85 401.264L178.509 400.954L178.882 401.196L178.454 402.335L178.98 403.637L179.965 404.161L179.468 404.361L179.581 404.699L180.282 404.933L180.748 405.636L182.449 406.345L183.556 407.589L183.754 407.302L183.403 407.08L183.505 406.794L182.435 408.578" stroke="#909090" stroke-width="6" stroke-linecap="round" stroke-linejoin="round"/>
<path d="M359.166 165.858L396.166 146.858" stroke="black" stroke-width="4" stroke-linecap="round" stroke-linejoin="round"/>
</svg>
