<svg width="825" height="270" viewBox="0 0 825 270" fill="none" xmlns="http://www.w3.org/2000/svg">
<rect width="825" height="270" fill="white"/>
<path d="M362.618 191.815L360.793 192.035L361.637 191.665L361.801 190.935L363.018 189.725L367.152 186.865L369.669 186.115L371.906 185.985L375.008 186.375L376.703 187.865L377.663 189.435L377.979 191.765L377.351 195.595L376.027 197.755L370.155 203.735L365.16 207.635L363.691 208.325L363.291 208.245" stroke="black" stroke-width="2" stroke-linecap="round" stroke-linejoin="round"/>
<path d="M367.078 188.235V227.235" stroke="black" stroke-width="2" stroke-linecap="round" stroke-linejoin="round"/>
<path d="M375.674 204.635L374.598 205.035L376.476 205.025L377.782 204.525L379.001 203.525L381.127 200.345L383.476 194.625L383.565 193.745L383.235 193.395L383.666 193.075L382.664 192.545L381.471 193.165L380.506 194.745L379.569 197.765L379.736 200.375L380.315 202.495L381.664 204.535L384.8 206.405" stroke="black" stroke-width="2" stroke-linecap="round" stroke-linejoin="round"/>
<path d="M393.199 193.385L392.116 193.515L391.46 195.935L392.057 197.235L392.14 198.895L392.759 200.595L393.077 203.155L394.878 206.585L395.63 207.135" stroke="black" stroke-width="2" stroke-linecap="round" stroke-linejoin="round"/>
<path d="M393.078 194.275L394.3 191.585L397.232 190.245L399.173 190.105L401.1 191.325L401.426 192.995L400.623 195.495L397.666 199.155L395.062 201.185L395.21 200.705L394.989 200.725L395.583 200.755L395.83 201.245L397.236 201.435L400.108 202.655L401.396 203.695L402.659 205.265L403.111 206.355L404.896 207.015" stroke="black" stroke-width="2" stroke-linecap="round" stroke-linejoin="round"/>
<path d="M408.729 192.945L407.36 192.115L407.756 192.335L407.539 193.355L407.735 195.075L408.979 197.895L409.997 202.045L411.175 204.345L410.966 205.225L411.945 207.285L412.844 207.375L413.42 207.085L413.386 206.575L414.793 203.845L416.268 195.145L417.39 192.325L417.929 191.665L419.466 196.025L419.585 198.215L420.385 200.675L420.583 204.425L421.406 205.295L421.05 205.155L421.336 204.895L421.211 204.545L423.076 202.205L424.24 199.855L424.551 198.345L427.146 195.525L428.625 198.115L429.645 203.295L430.493 205.965" stroke="black" stroke-width="2" stroke-linecap="round" stroke-linejoin="round"/>
<path d="M434.94 193.835L434.491 193.895L434.901 195.125L436.053 197.015L436.114 202.445L436.607 206.525L437.192 207.075" stroke="black" stroke-width="2" stroke-linecap="round" stroke-linejoin="round"/>
<path d="M438.229 185.085L439.074 183.465L438.686 182.875L438.647 183.545" stroke="black" stroke-width="2" stroke-linecap="round" stroke-linejoin="round"/>
<path d="M451.255 189.375L450.863 189.195L450.82 188.345L449.292 188.735L447.574 190.735L446.627 193.405L446.713 194.175L447.799 196.175L449.947 199.055L450.412 200.755L450.608 202.795L449.794 205.165L448.701 206.495L446.857 206.555L446.396 206.225L445.296 203.465" stroke="black" stroke-width="2" stroke-linecap="round" stroke-linejoin="round"/>
<path d="M463.625 185.375L462.43 186.355L458.964 190.745L456.959 194.085L457.483 195.385L459.968 197.545L464.608 203.135L465.611 205.495L465.669 206.885L464.977 208.565L464.094 208.745L462.338 207.945L460.744 206.305L460.355 205.185L460.509 203.515L462.378 200.075L464.92 196.655L468.026 194.765L469.684 194.925L470.946 196.675L472.853 202.095L472.342 203.215" stroke="black" stroke-width="2" stroke-linecap="round" stroke-linejoin="round"/>
<path d="M473.881 187.045L473.325 186.755L473.216 186.975L473.434 188.235" stroke="black" stroke-width="2" stroke-linecap="round" stroke-linejoin="round"/>
<path d="M494.027 191.425L493.675 190.905L493.952 191.095L493.576 191.515L494.852 193.185L495.842 196.055L497.289 203.435L499.165 200.925L501.194 195.615L503.566 192.065L503.427 192.785L504.165 193.835L506.259 201.645L507.797 203.005" stroke="black" stroke-width="2" stroke-linecap="round" stroke-linejoin="round"/>
<path d="M482.049 196.415L480.044 195.865L480.247 195.465L480.692 195.945L479.351 198.935L479.137 203.235L480.312 205.665L481.622 207.055L483.396 207.865L484.469 207.975L485.888 207.555L486.979 206.585L489.093 202.785L490.522 199.005L490.664 196.515L490.395 195.355L489.914 194.365L488.044 192.515L485.452 190.575L484.56 190.335L483.839 190.345L482.367 191.235L480.653 193.085" stroke="black" stroke-width="2" stroke-linecap="round" stroke-linejoin="round"/>
<path d="M524.65 166.605L525.16 166.855L526.42 173.205L529.279 180.885L531.426 189.965L532.133 196.645L531.298 207.305" stroke="black" stroke-width="2" stroke-linecap="round" stroke-linejoin="round"/>
<path d="M526.946 189.105L530.198 188.275L534.203 187.785L538.08 187.855L541.799 188.655L542.817 189.315L543.161 189.235L541.838 190.475L540.176 193.955L539.765 197.535L540.908 201.165L542.622 202.645L543.58 202.745L546.078 202.435L548.324 200.545L549.66 198.075L550.192 195.275L549.946 193.885L547.397 191.525L545.938 189.335L544.738 188.705L543.831 189.625" stroke="black" stroke-width="2" stroke-linecap="round" stroke-linejoin="round"/>
<path d="M572.995 194.845L569.585 195.395L569.441 196.095L569.872 197.925L569.51 199.315L569.669 201.365L569.409 203.025L570.096 204.475L570.38 207.645L571.159 209.355L572.575 209.925" stroke="black" stroke-width="2" stroke-linecap="round" stroke-linejoin="round"/>
<path d="M571.018 191.375L570.142 190.905L569.721 189.865L573.138 189.165L575.649 189.595L577.277 191.805L578.308 194.935L577.905 197.775L577.417 198.785L574.149 202.935L573.013 203.755L572.477 203.655L572.253 202.875L573.106 200.755L574.394 199.465L575.079 199.345L576.909 201.195L577.509 203.385L578.717 204.775L579.656 205.445L583.201 206.725L585.688 206.955L587.416 206.765L588.718 206.275L590.545 205.015L592.463 202.605L593.634 200.415L593.638 197.355L592.508 195.205L591.767 194.915L591.114 195.185L588.181 198.745L587.653 200.505L587.428 203.105L587.96 205.275L589.486 207.015L591.833 208.585L594.45 209.685L594.657 210.435" stroke="black" stroke-width="2" stroke-linecap="round" stroke-linejoin="round"/>
<path d="M607.423 194.025L603.781 196.415L602.884 197.705L602.254 199.565L602.174 201.595L601.332 202.635L600.483 205.655L602.003 206.935L603.676 207.465L606.47 207.675L610.153 206.605L612.346 204.655L614.324 202.325L616.186 198.995L615.684 199.795L614.906 204.365L616.459 206.225L617.502 206.685L619.149 206.675L620.305 205.975L621.256 205.165L622.167 203.655L622.427 202.115L622.162 201.565L621.166 199.585L618.378 196.635L616.888 195.985L617.264 196.265L616.429 198.035" stroke="black" stroke-width="2" stroke-linecap="round" stroke-linejoin="round"/>
<path d="M629.125 193.995L627.373 193.915L627.882 194.155L628.679 200.295L628.31 206.185L628.977 207.925L629.788 208.795L630.182 208.725" stroke="black" stroke-width="2" stroke-linecap="round" stroke-linejoin="round"/>
<path d="M629.681 197.535L629.079 195.595L630.902 192.605L631.904 191.725L633.923 190.655L635.283 190.525L636.594 191.095L637.659 192.755L637.725 193.475L636.521 197.975L634.938 200.325L632.78 201.665L632.19 201.705L632.928 201.405L636.051 202.765L637.473 203.885L639.581 208.405L640.85 209.195" stroke="black" stroke-width="2" stroke-linecap="round" stroke-linejoin="round"/>
<path d="M654.524 194.615L652.733 194.245L652.528 194.465L653.014 194.585L649.322 197.565L644.982 203.605L644.862 204.375L644.699 206.385L645.26 208.445L646.715 209.285L649.246 209.895L651.86 209.265L653.274 208.475L654.533 207.445L656.329 205.025L656.335 204.145L657.387 201.685L657.552 198.665L655.486 188.735L655.79 187.675L655.526 186.015L655.871 179.255L656.6 178.275" stroke="black" stroke-width="2" stroke-linecap="round" stroke-linejoin="round"/>
<path d="M674.915 161.335L674.404 160.775L674.715 161.225L673.915 163.125L673.896 165.895L674.742 170.965L674.827 173.555L675.503 176.545L675.904 181.525L676.15 187.635L675.964 190.395L676.188 194.285L676.488 194.905L676.004 196.535L676.163 196.795L676.072 196.415L676.861 195.925" stroke="black" stroke-width="2" stroke-linecap="round" stroke-linejoin="round"/>
<path d="M677.703 210.475H676.703" stroke="black" stroke-width="2" stroke-linecap="round" stroke-linejoin="round"/>
<path d="M242.978 67.025L240.592 67.375L240.853 67.0551L240.71 65.895L240.083 65.2051L240.226 64.995L239.625 64.755L240.192 64.845L240.044 65.6851L241.831 72.3251L242.648 77.145L242.572 80.265L242.818 81.365L244.571 83.5851L244.801 83.775L245.187 83.415L245.083 82.3151L245.888 79.875L246.947 74.415L246.809 71.2051L247.296 70.345L247.396 68.655L248.327 66.735L248.589 67.485L248.462 68.4351L250.747 71.755L251.034 80.745L251.794 82.515L252.394 82.785L253.027 81.625L254.876 80.025L257.553 73.795L258.443 73.155L258.373 72.885L258.934 72.845L259.228 72.975L258.71 73.265L258.698 73.595L259.7 74.6951L260.246 76.3051L261.148 82.8151L262.35 85.3051" stroke="black" stroke-width="2" stroke-linecap="round" stroke-linejoin="round"/>
<path d="M272.896 70.755L270.583 71.215L267.173 75.0551L266.193 78.265L266.289 83.615L267.014 84.735L268.613 85.515L270.35 85.3351L271.887 84.015L273.552 81.275L274.805 77.865L275.253 74.115L274.916 72.605L274.357 73.8351L274.167 75.4551L274.587 79.595L275.353 81.425L276.986 83.025L276.947 83.915" stroke="black" stroke-width="2" stroke-linecap="round" stroke-linejoin="round"/>
<path d="M283.572 61.405L282.232 64.2051L283.142 69.905L283.158 73.045L283.777 77.645L285.522 82.965L286.504 83.965L287.33 83.9351" stroke="black" stroke-width="2" stroke-linecap="round" stroke-linejoin="round"/>
<path d="M295.123 48.355L296.044 48.6951L294.733 58.8251L291.38 69.385L290.487 72.8251L290.65 73.465L290.505 73.845L289.626 74.005L290.091 73.725L289.99 73.0651L290.423 72.285L290.203 71.795L290.95 70.405L290.837 69.605L291.289 68.465L293.77 66.495L294.891 66.6951L296.171 69.965L296.53 73.5551L297.719 77.4451L299.486 79.535L302.264 80.165L304.132 79.465L305.765 77.355L306.532 71.175L306.176 70.1951L305.156 70.405L303.897 71.355L301.999 73.5751L301.842 74.095L302.77 77.795L303.078 78.405L305.019 79.995L306.812 80.865L309.479 81.495L310.03 82.5651" stroke="black" stroke-width="2" stroke-linecap="round" stroke-linejoin="round"/>
<path d="M586.241 50.0651L585.504 49.465L584.575 50.485L583.638 52.895L583.123 55.3251L583.376 61.525L589.467 91.1851L590.582 95.395" stroke="black" stroke-width="2" stroke-linecap="round" stroke-linejoin="round"/>
<path d="M578.004 82.025L574.863 84.4351L580.672 83.655L588.841 81.275L590.744 80.105L594.14 76.5651L596.511 72.1951L596.81 70.625L596.054 69.035L595.513 68.9351L595.857 69.035L595.803 69.3051L594.612 69.525L593.437 70.675L592.074 72.895L591.827 73.885L592.295 78.8051L594.049 80.795L595.957 81.275L598.226 80.985L600.838 79.115L602.645 76.9351L602.828 75.425L603.346 74.485L602.794 71.145L602.457 71.355L602.783 71.665L602.438 73.035L601.326 75.0551L601.301 77.655L603.043 79.5651L603.35 80.475L604.001 81.025L604.486 80.985L604.198 81.125L605.809 81.3151L607.358 80.775L608.415 79.915L610.225 76.8151L610.372 75.025L611.448 71.5751L611.969 65.8051L611.4 60.7051L610.378 56.0851L610.29 55.045L610.883 53.175L609.98 52.345L610.153 51.795L609.794 50.395L608.961 49.875L608.772 50.095L609.053 50.415L608.076 52.865L608.064 55.515L607.496 58.745L607.774 66.0551L607.985 67.635L611.13 76.3351L612.803 83.535" stroke="black" stroke-width="2" stroke-linecap="round" stroke-linejoin="round"/>
<path d="M643.877 72.235L645.24 72.5751L646.258 74.3051L644.695 79.505L644.648 81.675L645.484 84.035L647.431 85.525L651.293 85.255L654.46 83.155L656.22 80.535L657.864 76.595L656.679 77.915L656.038 83.2051L656.913 84.8351L658.136 85.735L659.675 86.0851L660.708 85.985L661.887 85.425L662.908 83.775L664.011 80.995L664.105 79.385L663.642 77.965L662.839 76.3251L660.674 73.3051L658.463 73.1951L656.91 74.5851" stroke="black" stroke-width="2" stroke-linecap="round" stroke-linejoin="round"/>
<path d="M666.983 70.025L668.369 69.725L668.005 70.665L669.151 77.5751L670.065 81.225L671.129 83.125L671.912 83.525L672.432 82.885L672.28 82.5651L673.859 79.025L675.531 73.725L676.473 72.465L677.154 72.1951L679.13 74.925L680.543 80.795L681.762 82.025" stroke="black" stroke-width="2" stroke-linecap="round" stroke-linejoin="round"/>
<path d="M698.265 49.495L698.071 50.155L695.482 53.035L694.263 55.2051L692.48 60.9551L692.922 64.985L692.671 68.015L693.061 77.1951L693.935 84.855L693.992 88.3051L694.752 93.775L694.817 96.745" stroke="black" stroke-width="2" stroke-linecap="round" stroke-linejoin="round"/>
<path d="M686.685 80.635L686.191 81.295L693.297 79.015L696.441 78.465L700.182 76.8351L700.334 77.905L699.473 84.355L699.707 86.735L700.945 87.275L702.83 86.965L703.994 86.265L705.321 83.5751L705.927 79.465L704.716 75.605L702.427 73.655L701.504 73.425" stroke="black" stroke-width="2" stroke-linecap="round" stroke-linejoin="round"/>
<path d="M713.201 73.345L714.41 74.405L714.273 75.0551L714.744 77.165L714.275 80.0751L714.646 81.8051L715.474 83.4451L716.051 83.725L716.746 83.4551" stroke="black" stroke-width="2" stroke-linecap="round" stroke-linejoin="round"/>
<path d="M714.661 70.9351L714.984 69.095L716.048 68.385L719.521 68.1951L722.189 69.595L723.548 72.005L723.63 72.755L722.914 75.245L722.007 77.0851L720.628 78.275L719.748 78.005L719.672 77.525L720.069 76.9551L719.747 76.3151L720.682 76.045L720.843 76.5751L722.124 77.365L722.68 78.5851L723.682 79.375L724.371 80.645L726.19 82.175" stroke="black" stroke-width="2" stroke-linecap="round" stroke-linejoin="round"/>
<path d="M735.995 47.155L734 48.7051L733.865 52.115L734.368 54.375L734.333 57.1851L735.752 69.9351L737.3 77.9551L737.646 81.355L738.621 84.8251L739.094 85.1851" stroke="black" stroke-width="2" stroke-linecap="round" stroke-linejoin="round"/>
<path d="M733.339 69.7051L733.35 70.1851L733.721 70.3151L744.744 72.115L750.282 73.475L752.288 73.385L753.856 72.915L754.369 71.995L754.196 71.415L754.422 71.015L753.891 71.735L751.765 72.5651L748.003 76.115L745.042 81.0751L744.666 82.545L744.729 84.165L745.261 84.8151L746.48 85.225L748.785 84.365L749.968 82.985L752.855 76.145L753.238 75.8151L752.789 76.655L753.24 78.385L752.977 81.4451L754.387 85.425L754.088 86.515" stroke="black" stroke-width="2" stroke-linecap="round" stroke-linejoin="round"/>
<path d="M757.864 53.3151L758.594 53.485L759.183 54.275L759.241 56.215L759.978 60.095L760.966 62.735L761.119 65.725L763.434 75.8151L764.032 76.535L765.572 75.6851L767.745 73.475L769.548 72.515L770.672 72.385L772.689 73.895L773.661 79.105L773.102 81.5551L772.384 83.105L769.735 85.275L767.707 85.8351L762.242 84.665L760.49 85.115" stroke="black" stroke-width="2" stroke-linecap="round" stroke-linejoin="round"/>
<path d="M778.536 57.155L780.707 56.745L780.825 57.095L778.859 58.505L777.263 62.0851L776.794 68.045L777.398 71.355L777.579 75.275L778.151 77.345L779.611 78.985L780.105 80.735L780.964 81.8151L786.022 84.8051L788.919 85.985L790.071 85.785L790.397 85.5851L790.352 84.765L791.747 82.015L792.892 77.915L792.73 75.905L792.182 74.675L792.555 73.635L792.016 73.1951L791.618 73.3251L791.771 73.015L791.449 73.125L790.936 72.4451L789.437 74.275L789.814 78.655L790.587 80.905L790.826 83.285L791.147 83.625L792.858 83.9351L793.227 84.375L792.914 85.4351" stroke="black" stroke-width="2" stroke-linecap="round" stroke-linejoin="round"/>
<path d="M388.97 72.235L390.314 79.6851L390.67 85.125L391.486 86.4551" stroke="black" stroke-width="2" stroke-linecap="round" stroke-linejoin="round"/>
<path d="M389.578 57.465L388.666 57.045L387.806 55.385L387.546 55.8051L388.054 56.9551" stroke="black" stroke-width="2" stroke-linecap="round" stroke-linejoin="round"/>
<path d="M396.927 66.3251L396.243 68.145L396.26 68.915L397.173 76.175L398.855 81.275L400.098 82.355L400.482 83.295L401.102 83.545L404.296 75.5751L406.303 71.855L406.884 71.425L406.958 71.895L408.46 73.505L409.216 74.855L409.918 77.995L409.812 80.365L410.798 83.015L412.286 83.845" stroke="black" stroke-width="2" stroke-linecap="round" stroke-linejoin="round"/>
<path d="M420.219 47.595L421.219 47.8251L422.034 49.025L422.342 69.495L422.827 79.995L423.125 81.8051L424.599 85.795" stroke="black" stroke-width="2" stroke-linecap="round" stroke-linejoin="round"/>
<path d="M420.376 79.7051H419.77L419.549 79.1951L421.445 78.485L430.981 73.005L432.328 71.905L433.338 70.3351L433.88 68.385L433.699 67.625L432.492 66.915L430.514 69.125L428.822 72.0651L427.088 76.255L427.08 77.225L427.345 78.905L428.207 80.845L429.819 82.635L431.224 83.105L433.494 83.005" stroke="black" stroke-width="2" stroke-linecap="round" stroke-linejoin="round"/>
<path d="M440.973 72.465L441.755 72.595L442.337 73.345L441.771 73.995L441.797 77.8251L442.511 80.035L442.419 81.8151L443.032 82.345" stroke="black" stroke-width="2" stroke-linecap="round" stroke-linejoin="round"/>
<path d="M443.816 72.295L444.073 71.4551L445.569 69.665L445.513 69.355L447.8 68.405L448.686 68.465L449.486 69.0551L450.198 70.395L450.175 71.035L448.511 74.965L446.413 77.475L444.795 78.9351L444.59 78.755L445.295 78.105L449.779 79.505L454.071 82.0851" stroke="black" stroke-width="2" stroke-linecap="round" stroke-linejoin="round"/>
<path d="M458.146 68.275L460.649 73.965L461.929 75.105L463.016 76.725L464.876 78.2051L468.488 79.855L468.285 79.755L468.947 79.3051L469.675 75.545L469.75 72.355L468.957 66.9551L469.72 64.135" stroke="black" stroke-width="2" stroke-linecap="round" stroke-linejoin="round"/>
<path d="M477.685 70.985L477.51 69.9451L477.428 71.3351L478.138 73.105L478.926 78.7051L479.108 79.395L480.222 80.6951" stroke="black" stroke-width="2" stroke-linecap="round" stroke-linejoin="round"/>
<path d="M487.767 82.295L487.912 82.615L488.578 82.125L491.389 79.005L492.655 77.025L494.538 72.355L494.695 69.765L495.14 69.0551L494.919 67.405L493.503 66.6951L492.107 66.7051L491.218 67.3251L490.584 68.505L489.168 72.515L489.015 74.645L489.364 76.4351L490.6 79.0751L491.713 79.925L493.805 80.395" stroke="black" stroke-width="2" stroke-linecap="round" stroke-linejoin="round"/>
<path d="M499.467 72.905L499.418 73.355L501.297 76.275L504.367 82.345L504.769 82.9451L505.233 82.975L506.195 81.715L507.097 79.025L508.112 77.155L508.871 73.1951L510.203 69.745L509.736 71.285L510.928 73.4551L511.243 76.0651L513.645 80.225L515.726 80.855L516.716 79.625L518.07 76.125L519.062 71.255L520.392 67.375L520.076 67.655" stroke="black" stroke-width="2" stroke-linecap="round" stroke-linejoin="round"/>
<path d="M523.591 83.725L523.234 84.215L523.259 84.875L525.085 84.345L531.225 76.975L531.844 74.735L532.777 72.925L533.252 69.8151L532.588 68.145L531.423 67.845L529.879 68.9551L527.948 71.5551L527.379 73.0851L527.443 74.4351L528.188 76.765L532.098 79.0551L533.934 79.635" stroke="black" stroke-width="2" stroke-linecap="round" stroke-linejoin="round"/>
<path d="M544.471 71.845L543.162 72.215L542.128 73.775L540.837 74.505L539.289 77.865L539.157 78.9351L539.508 80.155L541.024 82.775L544.691 82.645L547.092 81.145L548.76 79.7051L551.486 75.475" stroke="black" stroke-width="2" stroke-linecap="round" stroke-linejoin="round"/>
<path d="M549.897 54.4351L550.652 54.3251L550.879 54.5551L550.334 54.645L548.727 57.425L548.711 61.965L550.984 71.995L552.461 75.525L552.916 81.0651L552.61 82.255L553.151 81.345" stroke="black" stroke-width="2" stroke-linecap="round" stroke-linejoin="round"/>
<path d="M338.891 51.095L336.448 51.905L336.78 52.1851L336.051 55.765L336.128 69.7051L336.362 74.155L337.375 81.165L338.107 83.715L339.329 84.495L339.666 84.5651L339.604 84.3151" stroke="black" stroke-width="2" stroke-linecap="round" stroke-linejoin="round"/>
<path d="M326.007 57.595L325.447 58.0851L329.434 57.415L331.774 56.375L333.812 55.005L337.121 51.235L341.453 47.365L342.296 46.145L343.389 45.295L343.779 45.355L343.522 45.475L343.886 46.485L343.973 50.885L343.542 59.715L343.765 71.095L344.661 78.365L346.446 82.045L346.441 81.6951L347.227 81.4351L346.611 80.965L349.882 74.505L351.396 72.035L353.147 70.175L354.184 72.6951L354.45 76.875L355.145 79.925L355.457 80.915L356.538 82.2051L356.601 82.8251L357.767 84.215L359.153 85.035L361.138 84.635L362.74 83.765L363.728 82.735L364.641 81.005L366.126 77.0751L366.228 73.4451L365.58 70.145L365.092 70.0751L364.283 70.135L362.52 71.755L361.788 76.645L362.072 79.0751L363.481 81.1951L365.456 82.545L368.304 83.365" stroke="black" stroke-width="2" stroke-linecap="round" stroke-linejoin="round"/>
<path d="M135.1 51.5801L135.964 55.15L135.871 67.36L136.364 70.16L135.746 72.3101L136.204 75.37L136.036 84.3301L136.514 85.4501L136.37 86.29L135.773 86.4601L136.326 86.6801L136.601 86.23L136.396 85.61L136.842 85.3101L137.095 84.29L136.497 83.75" stroke="black" stroke-width="2" stroke-linecap="round" stroke-linejoin="round"/>
<path d="M123.764 51.25L123.979 49.23L124.145 50.4301L123.445 51.48L124.042 53.0901L124.112 54.3301L123.9 55.8301L124.189 59.15L124.06 62.8L125.067 68.62L125.817 78.54L125.771 88.16L126.02 90.3201L125.764 90.15L125.775 89.53L126.21 89.48L125.602 89.28L125.916 89.1801L126.088 89.38L125.605 89.53L126.065 89.36L125.82 89.4701L125.551 88.7201" stroke="black" stroke-width="2" stroke-linecap="round" stroke-linejoin="round"/>
<path d="M127.14 48.9301L125.089 49.11L123.759 49.8401L123.508 50.0801L123.702 50.2001L123.195 50.25L122.424 49.8L122.929 49.9301L124.38 49.27L127.428 49.2001L132.64 47.4601L135.17 47L136.03 47.05L135.386 47.0801L135.622 47.41L134.691 47.62L134.639 48.01" stroke="black" stroke-width="2" stroke-linecap="round" stroke-linejoin="round"/>
<path d="M135.009 97.91L135.784 96.5601L135.805 95.86L134.475 93.65L132.428 92.1L130.076 91.77L124.578 91.78L121.254 92.8201L120.236 93.49L117.647 99.4501L117.734 101.48L117.124 104.55L117.164 107.63L117.607 109.87L118.904 111.79L118.863 112.13L119.615 113.17L122.568 115.57L124.129 116.15L127.993 116.02L130.025 115.41L131.288 114.3L132.352 113.98L132.708 113.24L134.408 112.15L136.236 110.05L136.695 109.95L136.798 109.37L137.969 109.05L137.865 108.8L140.642 104.57L140.987 102.64L142.107 101.18L142.163 99.7201L141.001 95.5L140.112 93.9501L139.467 93.61L138.891 92.3101L136.346 91.4701L134.672 89.92L133.283 89.15L131.79 88.6L126.053 88.78L122.875 88.0701L120.204 88.92L118.499 90.79L117.164 93.99L116.944 95.7201L115.688 98.49L115.749 102.98L116.081 104.56L117.736 107.84L121.965 112.15L128.21 116.73L131.13 117.7L134.217 117.39L136.469 116.56L137.835 115.57L141.141 112.62L144.029 109.36L146.766 104.58L147.592 102.04L147.681 99.5901L147.978 98.87L147.372 97.63L147.536 97.1901L145.526 94.79L144.727 92.88L145.092 93.0901L144.496 93.0601L145.06 93.04L144.608 92.9L144.943 92.64L144.594 92.8401L145.342 92.88L144.421 92.86L144.992 92.8301L144.553 92.65L144.953 92.77L144.637 92.89L144.982 92.65L144.717 92.77L144.581 92.49L144.874 92.66L144.379 92.6901L144.87 92.5701L143.625 92.41L143.889 92.3101L143.525 92.3L143.418 91.85L143.003 91.88" stroke="black" stroke-width="2" stroke-linecap="round" stroke-linejoin="round"/>
<path d="M139.121 55.27L138.395 56.0801L138.697 55.5901L138.189 55.41L141.149 55.8401L144.448 57.23L146.84 57.2201L149.968 58.24L150.265 59.67L151.299 61.91L151.254 62.9L153.872 64.25L154.405 64.74L154.686 65.5901L155.659 66.02L156.862 68.4501L157.373 68.79L157.102 68.87L157.612 69.02L158.394 69.89L158.349 70.3201L158.93 70.54L158.687 70.64L159.566 71.3401L159.562 71.8L159.235 71.67L159.552 71.3101L159.347 71.1L159.597 71.17L159.454 71.5L159.771 71.48L159.251 71.64L160.868 73.1801L161.071 74.3201L161.517 74.35L161.657 74.8L161.601 75.98L162.053 75.85L161.301 75.73L161.767 75.6L161.248 76.9501L161.273 77.4701L161.662 77.37L161.106 77.38L161.576 77.0901L161.54 76.7101L161.422 77.05L161.647 76.98L160.907 77.0701L161.547 77.26L160.83 77.48L161.192 78.01L160.934 77.89L160.823 78.74L160.001 79.98L159.753 81.11L159.379 81.4701L159.547 81.8401L157.732 84.14L154.79 86.27L150.21 87.5601L147.745 87.91L146.776 87.74L145.468 86.8101L144.262 86.87L144.657 86.75L144.382 86.6801" stroke="black" stroke-width="2" stroke-linecap="round" stroke-linejoin="round"/>
<path d="M138.001 66.14L140.411 69.9301L142.487 83.4301L142.316 86.63" stroke="black" stroke-width="2" stroke-linecap="round" stroke-linejoin="round"/>
<path d="M139.01 62.64L143.23 69.1801L144.536 72.23L145.924 80.0601L145.787 83.88" stroke="black" stroke-width="2" stroke-linecap="round" stroke-linejoin="round"/>
<path d="M148.828 63.27L149.067 65.13L150.4 68.65L151.394 75.35L150.975 79.1801L151.358 83.15" stroke="black" stroke-width="2" stroke-linecap="round" stroke-linejoin="round"/>
<path d="M151.968 67.5801L154.463 74.01L155.594 82.48L155.872 83.39L156.3 83.3L155.984 83.4" stroke="black" stroke-width="2" stroke-linecap="round" stroke-linejoin="round"/>
<path d="M159.76 81.6L158.591 79.63L157.535 78.8101L154.618 75.0901L154.201 74.05L153.058 72.8101L152.918 72L152.52 71.8L152.893 71.8201L152.848 72.74L153.771 74.17L159.041 79.8401L162.346 86.75L162.343 88.9401L163.1 91.14L163.745 96.87L163.821 102.44L163.587 103.87L163.977 104.82L163.445 108.25L163.689 108.88L164.216 108.65L163.873 108.18L164.049 107.63" stroke="black" stroke-width="2" stroke-linecap="round" stroke-linejoin="round"/>
<path d="M160.552 90.62L160.21 88.01L160.475 87.4701L160.105 87.4401L160.365 87.4601L160.002 87.86L160.32 88.13L159.852 88.8401L160.436 91.86L160.337 94.55L160.805 96.5801L160.616 99.61L161.178 101.46L160.876 103.65L161.335 104.87L160.693 106.07L161.031 109.19L160.256 116.1L160.839 116.5L160.322 116.82L160.72 116.72L160.832 117.06L160.907 117.93L160.566 117.99L161.16 117.84L160.91 117.69L160.663 117.96L161.112 117.74L160.639 117.29L161.127 117.21L160.602 117.23L161.007 117.21L161.005 117.23" stroke="black" stroke-width="2" stroke-linecap="round" stroke-linejoin="round"/>
<path d="M141.765 144.47L142.904 143.92" stroke="black" stroke-width="2" stroke-linecap="round" stroke-linejoin="round"/>
<path d="M127.387 53.12H126.188L124.973 52.63L124.866 53.6L124.506 53.8201L124.604 53.5601L124.053 53.4L124.267 53.1801L121.656 52.9L117.635 54.74L112.81 55.49L110.399 55.42L108.844 56.37L106.612 58.77" stroke="black" stroke-width="2" stroke-linecap="round" stroke-linejoin="round"/>
<path d="M97.8164 87.74L98.3104 88.05" stroke="black" stroke-width="2" stroke-linecap="round" stroke-linejoin="round"/>
<path d="M105.538 58.8301L108.121 57.0801L112.242 55.75L113.133 54.91L112.782 54.5701L112.696 53.03L111.151 52.8201L104.981 56.1901L95.522 63.8401L88.875 76.23L87.637 80.35L87.481 82.5701L87 83.63L87.01 84.85L87.845 87.3101L88.135 92.27L88.673 95.63L90.096 100.82L90.099 101.72L90.563 102.62L90.053 103.26L90.424 103.81L90.125 104.78L91.167 106.82L91.233 108.86L92.204 110.43L92.147 111.68L94.184 115.06L94.298 115.8L95.548 116.68L96.612 117.98L97.669 118.3L98.161 119.73L98.754 120.03L99.488 121.11L100.591 121.56L101.024 122.2L102.612 122.87L104.557 124.42L106.468 124.67L109.998 126.31L110.282 126.18L110.227 126.44L110.806 126.62L110.691 127.02L112.124 127.93L112.343 128.26L112.084 128.53L112.743 128.4L112.628 129.59" stroke="black" stroke-width="2" stroke-linecap="round" stroke-linejoin="round"/>
<path d="M113.966 131.51L115.129 130.99L114.648 130.48L114.928 130.42L114.72 130.51L115.383 131.39L115.768 131.55" stroke="black" stroke-width="2" stroke-linecap="round" stroke-linejoin="round"/>
<path d="M122.608 144.67L123.644 147.06L123.859 147.79" stroke="black" stroke-width="2" stroke-linecap="round" stroke-linejoin="round"/>
<path d="M116.044 158.22L115.146 157.52L115.172 157.24L115.075 157.46L116.011 157.53" stroke="black" stroke-width="2" stroke-linecap="round" stroke-linejoin="round"/>
<path d="M116.427 130.27L115.794 130.33L112.072 131.43L111.437 130.96L112.665 130.79L116.767 129.14" stroke="black" stroke-width="2" stroke-linecap="round" stroke-linejoin="round"/>
<path d="M120.901 126.13L123.749 122.93L127.053 117.64L126.75 117.46L126.753 118.52L125.391 120.83L125.714 121.29L125.454 122.8" stroke="black" stroke-width="2" stroke-linecap="round" stroke-linejoin="round"/>
<path d="M154.491 104.1L155.111 103.41L155.513 104.22L155.575 103.68L155.021 103.55L155.437 103.29L154.349 102.4L153.676 102.37L153.879 102.53L153.323 102.97L152.267 103.36L152.514 103.65L152.279 103.34L152.532 103.33L152.038 103.48L152.087 103.75L151.019 104.19L146.083 104.27L144.339 104.62L141.972 105.59L139.565 107.59L139.745 106.68L139.591 106.95L140.15 106.94L144.446 105.92L152.426 105.22L154.864 105.37L157.659 106.71L158.278 106.95L158.479 106.89L158.257 106.73L157.855 107.78" stroke="black" stroke-width="2" stroke-linecap="round" stroke-linejoin="round"/>
<path d="M159.876 111.21L160.401 109.87L160.742 107.75L160.646 106.15L161.244 104.1L160.523 101.83L160.53 99.98L160.31 105.21L159.537 108.11L159.867 111.23L160.73 110.68L161.062 108.92L162.211 105.91L162.938 102.34L162.654 102.56L163.166 103.1L162.566 103.73L162.073 106.3L161.886 111.52L160.94 114.31L161.242 116.1L160.845 116.31L161.717 100.78L160.926 102.64L160.178 106.23L158.828 108.7L157.677 112.39L156.898 113.34L156.411 113.29L156.494 111.99L155.888 111.02L155.359 108.66L155.677 104.1L155.546 102.91L155.312 103.02L155.51 103.99L154.93 105.02L154.161 110.96L154.503 113.58L154.288 116.64L154.703 117L154.714 115.93L155.526 114.01L156.125 110.74L156.434 106.17L156.294 102.48L155.614 100.52L155.919 100.77L156.025 101.9L155.498 103.41L155.327 105.96L153.923 112.3L154.497 113.96L154.576 112.22L155.479 109.39L156.137 103.88L155.903 101.85L156.308 100.9L156.469 98.77L155.342 107.72L155.693 113.6L156.865 111.21L158.227 105.94L157.926 96.16L157.725 95.5L157.141 95.28L157.503 95.2201L157.738 95.9401L159.365 96.42L162.736 95.9601L166.613 96.52L166.273 96.7101L166.313 97.49L166.683 97.91L166.477 97.74L165.645 99.1901L165.016 101.02L165.172 101.74L163.995 104.64L163.847 106.35L163.351 107.74L163.769 114.34L163.698 114.74" stroke="black" stroke-width="2" stroke-linecap="round" stroke-linejoin="round"/>
<path d="M162.004 115.53L161.347 115.06L157.617 114.57L155.315 115.46L154.46 116.4L155.128 116.22L155.293 116.82L156.047 117.28L157.961 117.93" stroke="black" stroke-width="2" stroke-linecap="round" stroke-linejoin="round"/>
<path d="M159.955 92.24L160.66 93.48L161.36 98.5901L162.69 103.69L162.694 105.2L163.192 105.9L163.615 107.56L164.573 114.28" stroke="black" stroke-width="2" stroke-linecap="round" stroke-linejoin="round"/>
<path d="M139.399 183.58L138.904 187.63L138.949 188" stroke="black" stroke-width="2" stroke-linecap="round" stroke-linejoin="round"/>
<path d="M139.204 188.17L139.223 187.06L138.496 185.66" stroke="black" stroke-width="2" stroke-linecap="round" stroke-linejoin="round"/>
<path d="M114.842 158.66L113.995 158.02L113.392 160.68" stroke="black" stroke-width="2" stroke-linecap="round" stroke-linejoin="round"/>
<path d="M158.614 95.1801L158.921 95.4701L158.828 98.5L159.303 99.89L159.26 100.94L164.321 113.28L164.723 114.81" stroke="black" stroke-width="2" stroke-linecap="round" stroke-linejoin="round"/>
<path d="M166.481 109.46L165.308 110.13L166.178 109.1L166.187 108.4L166.72 108.06L166.413 107.56L166.825 107.42" stroke="black" stroke-width="2" stroke-linecap="round" stroke-linejoin="round"/>
<path d="M165.943 106.78L166.907 105.96L166.561 105.77L166.247 106.3L165.854 106.12L166.019 105.93L166.253 106.09L165.657 106.07L166.348 105.86L165.693 105.97L166.316 106.26L166.087 106.57L167.037 106.91L166.826 107.13L168.69 110.24L169.22 111.69L170.007 112.3L169.863 112.92L170.482 113.3L170.033 114.18L170.509 116.21L170.442 118.32L170.858 119.15L170.676 119.87L171.039 120.02L170.772 120.74L171.267 121.24L171.062 121.69L171.302 121.68L171.569 122.71L170.948 123.33L171.386 123.83L171.083 123.82L170.996 123.23L170.76 123.54" stroke="black" stroke-width="2" stroke-linecap="round" stroke-linejoin="round"/>
<path d="M165.065 105.53L165.692 104.44L165.016 104.77L165.722 104.82L165.153 104.84L166.55 108.81L166.468 110.18L166.823 111.4L168.433 115.88L170.894 120.67L171.128 122.13L171.831 122.93L171.604 124.1L172.015 123.98L171.568 124.02L171.861 124.35L171.492 124.57L171.754 124.55L171.507 124.44L171.747 124.11L171.374 124.19L171.644 124.27L170.865 124.54L170.611 125.04L166.587 128.08L166.155 128.59L165.878 130.01L164.699 130.66L163.82 131.62L163.14 131.46L163.451 131.56L163.497 130.76L163.953 130.71" stroke="black" stroke-width="2" stroke-linecap="round" stroke-linejoin="round"/>
<path d="M115.176 130.97L114.663 131.76L114.91 132.52L115.693 133.17L115.814 134.3L116.908 134.86L116.667 135.2L118.386 135.5L120.693 136.96L122.485 138.41L122.443 138.75L123.655 139.63L124.501 139.83L124.775 140.35L125.414 140.49L125.737 141.28L126.775 141.94L126.78 142.29L130.062 143.26L132.913 144.81" stroke="black" stroke-width="2" stroke-linecap="round" stroke-linejoin="round"/>
<path d="M138.128 147.31L140.524 147.04L141.222 146.7L144.535 146.79L146.768 145.95L147.702 146.2L149.957 145.71L154.3 145.73L154.925 145.38L157.786 145.35L158.078 145.02L159.572 144.98L159.823 144.63L160.522 145.25" stroke="black" stroke-width="2" stroke-linecap="round" stroke-linejoin="round"/>
<path d="M156.675 146.03L156.113 145.88L156.443 146L156.158 146.1L156.269 146.58L155.985 146.57L156.428 146.6L156.053 146.53L158.429 148.68L159.506 148.77L161.237 148.07" stroke="black" stroke-width="2" stroke-linecap="round" stroke-linejoin="round"/>
<path d="M158.172 150.7L158.735 150.6L160.18 148.99L161.881 145.88L163.315 142.69L163.063 142.24L163.122 140.44L162.228 141.24L162.463 141.41L162.417 142.6" stroke="black" stroke-width="2" stroke-linecap="round" stroke-linejoin="round"/>
<path d="M160.398 135.17L159.854 135.88L160.015 136.39L159.37 138.13L159.61 138.44L159.435 139.1L159.824 139.6" stroke="black" stroke-width="2" stroke-linecap="round" stroke-linejoin="round"/>
<path d="M129.145 132.4L130.354 136L129.96 137.47L130.314 142.32L129.57 146.11L130 148.04L129.832 149.28" stroke="black" stroke-width="2" stroke-linecap="round" stroke-linejoin="round"/>
<path d="M133.506 135.57L133.692 136L133.301 136.84L134.089 138.01L134.15 142.02L135.105 148.64L135.392 149.01" stroke="black" stroke-width="2" stroke-linecap="round" stroke-linejoin="round"/>
<path d="M140.307 134.62L140.561 139.73L139.9 145.33L140.014 147.86L140.401 148.13" stroke="black" stroke-width="2" stroke-linecap="round" stroke-linejoin="round"/>
<path d="M145.061 135.69L144.232 146.08L144.403 149.54L145.278 150.15L144.855 150.21" stroke="black" stroke-width="2" stroke-linecap="round" stroke-linejoin="round"/>
<path d="M149.31 135.02L149.61 135.36L149.576 139.06L149.106 140.82L149.402 144.94L149.206 147.9" stroke="black" stroke-width="2" stroke-linecap="round" stroke-linejoin="round"/>
<path d="M153.702 136.6L153.636 149.12L154.233 151.82L154.48 151.76" stroke="black" stroke-width="2" stroke-linecap="round" stroke-linejoin="round"/>
<path d="M157.449 136.9L157.49 141.7L157.8 142.92L157.245 145.81L157.244 147.73L157.68 149.95L157.333 149.87L158.071 147.21" stroke="black" stroke-width="2" stroke-linecap="round" stroke-linejoin="round"/>
<path d="M160.994 136.55L160.696 136.6L161.205 137.1L160.941 137.8L161.194 139L160.961 140.69L161.381 141.7L161.275 146.55L160.784 148.66L161.103 149.27L161.528 148.34" stroke="black" stroke-width="2" stroke-linecap="round" stroke-linejoin="round"/>
<path d="M163.485 139.51L163.83 140.17L163.2 141.37L163.547 142.72L163.664 150.48L164.111 152.64L164.559 153.35L164.31 153.82L164.589 153.89L164.757 153.49" stroke="black" stroke-width="2" stroke-linecap="round" stroke-linejoin="round"/>
<path d="M166.164 145.76L165.729 150.88L165.875 152.67L165.477 154.24L165.834 155.39L165.424 155.9L165.278 157.07L165.558 157.02L165.336 156.8" stroke="black" stroke-width="2" stroke-linecap="round" stroke-linejoin="round"/>
<path d="M148.969 146.78L149.798 154.36" stroke="black" stroke-width="2" stroke-linecap="round" stroke-linejoin="round"/>
<path d="M155.426 148.27L155.957 155.96L155.697 156.64" stroke="black" stroke-width="2" stroke-linecap="round" stroke-linejoin="round"/>
<path d="M160.394 148.48L161.085 150.59L161.255 153.76L161.381 158.24L161.322 158.49" stroke="black" stroke-width="2" stroke-linecap="round" stroke-linejoin="round"/>
<path d="M163.867 151.69L164.057 152.31L163.794 153.98L164.194 156.2L163.482 159.4" stroke="black" stroke-width="2" stroke-linecap="round" stroke-linejoin="round"/>
<path d="M160.802 130.17L160.237 129.46L159.674 129.43L159.305 128.83L158.646 128.62L159.111 128.93L159.552 130.86L161.309 132.62L163.391 134.06" stroke="black" stroke-width="2" stroke-linecap="round" stroke-linejoin="round"/>
<path d="M201.1 141.24L201.932 140.85L202.285 141.38L201.937 141.4L201.821 141.67L202.106 141.58L201.695 141.87L202.282 141.8L201.876 141.66L202.065 141.87L201.352 142.01L202.074 141.76L201.455 141.77L202.059 141.54L201.758 141.19L202.165 140.78L202.064 140.47L200.726 140.64L199.885 141.02L199.259 142.63L197.939 143.73L197.03 146.88L196.881 148.46L197.225 151.78L197.009 152.07L198.345 153.79L198.2 154.25L199.145 156.55L199.718 157.59L200.457 158.17L200.317 158.87L205.806 160.8L208.518 160.7L210.375 159.39L211.326 158.05L212.798 153.4L213.282 150.48L213.203 146.49L212.406 144.46L212.154 142.54L210.328 137.56L209.166 135.73L208.598 135.37L207.463 135.28L204.302 135.82L202.962 137.06L198.24 139.42L198.036 139.87L195.722 141.07L194.578 143.92L194.179 150.02L194.282 152.3L194.635 153.2L194.42 153.7L195.072 154.7L194.957 155.75L196.098 156.5L197.325 158.02L198.869 158.99L201.144 159.54L205.023 159.61L209.09 157.48L211.522 157.2L213.304 156.49L215.227 154.08L216.227 151.13L216.307 149.83L216.012 149.32L216.268 147.08L215.752 144.13L216.046 142.34L215.75 140.34L214.149 137.57L214.337 137.14L213.702 136.69L213.623 135.53L212.119 134.6L210.656 134.23L209.406 134.41L207.674 135.3L207.033 136.04L206.881 136.62L207.719 139.16L207.591 139.95" stroke="black" stroke-width="2" stroke-linecap="round" stroke-linejoin="round"/>
<path d="M217.416 147.49L216.761 146.6L217.092 148.71L219.231 149.79L219.545 150.28L220.991 150.74L228.332 154.61L230.768 154.98L237.158 158.99L239.283 160.01L240.646 160.23L240.438 160.33L241.877 161.05L241.551 161.28L241.739 160.84L240.76 159.95L239.443 160.65" stroke="black" stroke-width="2" stroke-linecap="round" stroke-linejoin="round"/>
<path d="M212.245 161.51L209.162 160.11L208.976 159.65L208.701 159.85L209.138 160.17L208.819 160.1L212.463 160.8L213.407 161.33L219.138 162.28L224.184 163.77L231.679 165.06L241.653 168.61L242.029 168.99L243.143 169.12L244.737 170.27L245.484 170.37L245.06 170.26L245.435 170.47L245.146 170.53L245.797 170.43L245.326 170.44L245.713 170.2L245.638 169.74L245.187 169.9L244.765 170.6" stroke="black" stroke-width="2" stroke-linecap="round" stroke-linejoin="round"/>
<path d="M247.454 162.49L247.312 162.02L247.48 161.61L247.683 161.72L247.62 162.48L247.159 163.01L247.172 164.14L245.474 168.17L245.158 170.23L243.532 173.85L243.055 174.32L243.712 173.84L243.726 173.18L244.36 171.99" stroke="black" stroke-width="2" stroke-linecap="round" stroke-linejoin="round"/>
<path d="M252.829 170.26L251.611 170.38L250.736 169.77L250.215 169.88L250.397 170.58L252.23 170.82L256.219 169.59L257.859 169.57L261.201 170.81L262.683 172.15L262.731 173.89L263.155 175.24L262.963 179.31L263.252 183.24L264.62 186.9L265.79 188.39L266.326 189.9L268.445 192.24L271.827 194.34L274.388 195.45L278.036 196.84L283.764 198.44L291.342 201.49L293.997 202.25L298.785 204.68L304.411 206.49L306.366 207.78L308.912 210.35L310.728 212.82L311.374 214.69L313.133 217.55L314.084 218.34L314.382 216.93L313.495 217.04" stroke="black" stroke-width="2" stroke-linecap="round" stroke-linejoin="round"/>
<path d="M193.282 146.51H192.779L193.083 147.27L195.394 149.36L203.786 154.56L207.827 156.2L209.11 156L209.538 155.61" stroke="black" stroke-width="2" stroke-linecap="round" stroke-linejoin="round"/>
<path d="M197.173 145.27L196.769 145.49L197.106 146.25L199.02 148.28L204.681 151.84L208.194 153.44L210.381 154.04L211.738 153.61" stroke="black" stroke-width="2" stroke-linecap="round" stroke-linejoin="round"/>
<path d="M202.77 140.53L202.015 140.64L205.912 145.39L212.506 150.95" stroke="black" stroke-width="2" stroke-linecap="round" stroke-linejoin="round"/>
<path d="M206.882 138.51L205.773 139.66L204.618 146.43L203.077 158.94L203.167 160.63" stroke="black" stroke-width="2" stroke-linecap="round" stroke-linejoin="round"/>
<path d="M209.989 142.55L209.416 144.26L209.021 151.18L208.148 153.56L207.956 156.05" stroke="black" stroke-width="2" stroke-linecap="round" stroke-linejoin="round"/>
<path d="M119.48 150.26L119.786 148.45L119.552 148.49L119.547 148.94L120.004 149.13L119.566 148.77L120.967 148.36L121.751 147.34L121.362 148L121.474 148.66L121.184 149.05" stroke="black" stroke-width="2" stroke-linecap="round" stroke-linejoin="round"/>
<path d="M116.832 157.94L115.599 159.59L115.35 160.02" stroke="black" stroke-width="2" stroke-linecap="round" stroke-linejoin="round"/>
<path d="M105.632 170.56L103.593 172.63L100.305 176.91L99.1867 179.53L98.1187 185.2L98.2707 186.56L97.9777 187.17L97.9967 188.6L97.6807 189.23L97.8057 192.9L98.1117 193.62L97.9797 196.45L98.5797 199.48" stroke="black" stroke-width="2" stroke-linecap="round" stroke-linejoin="round"/>
<path d="M113.332 157.05L112.113 158.82L109.09 161.74L105.605 167.36L104.239 168.81L103.27 171.12L102.846 173.67L102.14 175.99" stroke="black" stroke-width="2" stroke-linecap="round" stroke-linejoin="round"/>
<path d="M98.4164 190.41L96.4673 197.39L95.0053 206.9L94.2363 214.87" stroke="black" stroke-width="2" stroke-linecap="round" stroke-linejoin="round"/>
<path d="M92.0861 236.4L90.2051 245.88" stroke="black" stroke-width="2" stroke-linecap="round" stroke-linejoin="round"/>
<path d="M114.316 208.7L114.241 210.28L113.487 212.71L113.305 215.84L112.709 217.93L112.764 222.94L113.238 225.04L112.35 230.07L112.632 235.95L112.146 237.94L112.896 240.79L112.469 246.64" stroke="black" stroke-width="2" stroke-linecap="round" stroke-linejoin="round"/>
<path d="M117.703 155.52L118.22 155.13L117.76 154.96L117.517 155.23L116.179 159.02L116.012 159.38" stroke="black" stroke-width="2" stroke-linecap="round" stroke-linejoin="round"/>
<path d="M143.127 185.51L141.133 188.38" stroke="black" stroke-width="2" stroke-linecap="round" stroke-linejoin="round"/>
<path d="M150.244 191.8L150.049 194.2L149.419 196.63L149.446 199.43L148.666 206.56L148.863 207.78L149.348 208.57L149.746 211.15L150.149 216.3L149.904 218.02L150.602 220.45L150.118 223.82L150.387 225.47L150.03 231L150.309 233.97L150.002 234.68L150.203 235.84L149.963 236.67L150.458 238.71L150.15 240.65L151.542 245.43L151.638 246.03" stroke="black" stroke-width="2" stroke-linecap="round" stroke-linejoin="round"/>
<path d="M148.909 188.66L150.393 191.32L155.042 203.81L155.129 206.02L156.721 212.09L157.588 220.26L158.465 224.62L158.37 226.4L158.886 227.29L159.067 230.16L159.536 231.25L159.045 232.78L159.511 234.93L159.303 236.7L160.403 243.69L160.437 246.06" stroke="black" stroke-width="2" stroke-linecap="round" stroke-linejoin="round"/>
<path d="M119.229 216.27L119.822 221.93L120.969 229.47L121.15 233.21L122.301 241.52L122.452 246.52L122.615 247.41" stroke="black" stroke-width="2" stroke-linecap="round" stroke-linejoin="round"/>
<path d="M118.979 216.25L119.787 219.37L120.548 224.25L121.934 228.84L122.565 233.09L123.688 236.87L124.505 243.19L125.264 245.54L125.672 247.64" stroke="black" stroke-width="2" stroke-linecap="round" stroke-linejoin="round"/>
<path d="M117.658 57.5901L119.045 56.0801L118.901 55.88L118.627 56.4701L118.243 56.5L119.151 55.86L118.959 55.4501L119.452 55.5701L118.292 55.98L114.058 58.7101L108.629 63.91L103.752 70.24L99.8224 76.41L92.4524 92.65L90.7324 101.71L90.8824 104.71L91.6074 106.36" stroke="black" stroke-width="2" stroke-linecap="round" stroke-linejoin="round"/>
<path d="M119.282 60.35L120.012 59.8201L120.405 60.3301L118.639 61.61L117.462 63.3201L115.371 65.48L110.071 73.04L108.174 77.6L106.422 83.16L103.929 88.2001L101.289 95L100.323 99.27L99.7021 106.03" stroke="black" stroke-width="2" stroke-linecap="round" stroke-linejoin="round"/>
<path d="M114.667 64.73L115.958 64.61L116.46 65.0801L116.009 66.25L116.384 66.99L116.345 68.9L115.557 71.4L114.416 79.49L111.624 87.85L110.83 93.25L109.06 100.28L108.133 105.67L108.29 108.26" stroke="black" stroke-width="2" stroke-linecap="round" stroke-linejoin="round"/>
<path d="M116.485 77.8201L117.242 73.7101L118.238 70.61L120.01 68.2001L121.552 67.2101L121.082 66.85L121.345 66.38L122.117 65.6L122.158 66.24L120.877 67.87L120.898 68.61L118.002 79.3301L115.53 94.5801" stroke="black" stroke-width="2" stroke-linecap="round" stroke-linejoin="round"/>
<path d="M118.149 53.5701L111.579 55.39L111.137 55.87L108.754 56.88L100.944 65.7201L97.3307 71.48L94.2337 80.16L91.3387 86.4L90.9277 88.1901" stroke="black" stroke-width="2" stroke-linecap="round" stroke-linejoin="round"/>
<path d="M99.7538 64.4601L99.6118 63.3L98.9189 64.99L96.1028 68.78L90.9159 85.4401L89.9639 90.54" stroke="black" stroke-width="2" stroke-linecap="round" stroke-linejoin="round"/>
<path d="M106.395 94.6901L105.769 96.92L104.3 99.0801L100.287 110.37L97.2158 127.55L97.7958 130.84" stroke="black" stroke-width="2" stroke-linecap="round" stroke-linejoin="round"/>
<path d="M99.8208 67.01L100.433 66.8201L99.5658 67.62L97.5498 72.11L96.0378 78.76L95.1088 88.01L94.8018 94.4501L95.5378 104.1L96.6378 111.6L98.7988 119.78L99.4028 120.46L99.2248 121.18" stroke="black" stroke-width="2" stroke-linecap="round" stroke-linejoin="round"/>
<path d="M90.9311 95.73L89.6801 99.36L88.9971 108.57L90.1031 114.84L90.1541 118.26L90.5171 120.05L93.1201 126.74L94.4751 129.47L96.6791 132.65" stroke="black" stroke-width="2" stroke-linecap="round" stroke-linejoin="round"/>
<path d="M104.901 108.12L104.844 107.39L103.982 108.96L103.443 111.37L103.362 119.37L103.66 123.41L104.957 132.6L105.862 135.13L107.32 137.6" stroke="black" stroke-width="2" stroke-linecap="round" stroke-linejoin="round"/>
<path d="M111.168 112.94L110.925 114.83L111.576 116.5L111.797 118.73L112.88 122.57L115.479 127.36L116.636 128.15" stroke="black" stroke-width="2" stroke-linecap="round" stroke-linejoin="round"/>
<path d="M116.086 115.63L114.912 116.01L115.492 116.17L115.372 117.97L116.176 121.38L117.702 125.54L118.715 126.97L120.079 128.13" stroke="black" stroke-width="2" stroke-linecap="round" stroke-linejoin="round"/>
<path d="M100.851 116L100.591 122.75L101.426 126.42L104.219 130.94L108.12 135.25L110.589 137.35L112.779 140.43" stroke="black" stroke-width="2" stroke-linecap="round" stroke-linejoin="round"/>
<path d="M119.388 134.55L118.688 134.08L120.294 139.06L120.332 140.78L120.79 142.42L120.46 143.98L120.616 145.52" stroke="black" stroke-width="2" stroke-linecap="round" stroke-linejoin="round"/>
<path d="M116.878 192.49L116.49 192.77L117.028 192.75L116.757 192.39L117.148 192.14" stroke="black" stroke-width="2" stroke-linecap="round" stroke-linejoin="round"/>
<path d="M135.703 188.52L138.526 188.29L139.773 188.73L139.893 189.17L141.374 189.75L142.484 190.44L142.991 191.28L144.05 191.68L145.156 193.85L145.828 194.51L145.919 195.54L146.975 195.02" stroke="black" stroke-width="2" stroke-linecap="round" stroke-linejoin="round"/>
<path d="M145.847 168.8L145.57 170.79L145.618 172.58L145.993 173.76L145.69 174.8L146.364 176.47H146.646L146.302 176.6L146.987 176.85L146.782 176.93" stroke="black" stroke-width="2" stroke-linecap="round" stroke-linejoin="round"/>
<path d="M150.789 193.44L151.295 194.56L152.131 199.44L153.173 202.48L153.56 205.36L153.982 206.1L153.705 206.63L154.416 209.48L154.19 210.17L154.637 211.13L154.602 215.04L154.859 215.48L154.255 216.5L154.563 217.56L154.127 218.45L154.41 219.29L153.956 219.91L153.925 224.95L154.39 226.43L154.182 228.98L154.894 230.11L154.569 230.85L155.232 231.55L154.958 232.08L155.575 233.11L155.411 235.18L156.093 241.31L156.667 243.38L156.338 245.69L156.416 245.92" stroke="black" stroke-width="2" stroke-linecap="round" stroke-linejoin="round"/>
<path d="M231.022 176.16V247.07" stroke="black" stroke-width="2" stroke-linecap="round" stroke-linejoin="round"/>
<path d="M148.826 192.93L148.442 192.79L148.958 191.62L146.57 186.75L143.483 183.77L143.299 182.86L140.248 181.73L134.048 182.02L131.5 181.61L127.596 181.7L124.265 182.74L124.216 183.2L123.211 183.7L121.881 184.98L120.308 185.68L116.853 190.32L115.126 194.05L113.849 195.7L114.133 196.1L113.844 197.62L112.612 201.48L112.755 202.99L112.033 204.56L112.346 209.95L113.012 211.72L112.521 215.01L113.272 218.73L113.022 220.69L113.504 224.24" stroke="black" stroke-width="2" stroke-linecap="round" stroke-linejoin="round"/>
<path d="M115.445 161.6L114.269 159.79L114.147 160.1L113.674 159.72H112.955L113.747 160.55L115.459 161.34L120.131 165.59L121.459 165.69L124.408 167.5L129.841 168.06L132.434 169.41L133.457 169.62L135.994 169.05L137.626 167.91L140.158 166.88L142.868 167.75L144.739 167.51L145.039 167.6" stroke="black" stroke-width="2" stroke-linecap="round" stroke-linejoin="round"/>
<path d="M225.312 177.85L225.262 180.04L225.243 178.06L226.365 178.52L232.393 177.22L233.675 176.62L233.745 176.24L234.89 175.6L235.712 174.43L236.365 172.2L237.5 170.52L238.717 165.98L239.633 163.83L240.462 155.75L239.247 154.79L238.073 153.28L236.92 152.59L237.055 152.01L236.676 151.81L236.427 150.69L236.121 150.83L236.369 151.25L235.476 151.8L235.548 152.27L235.22 152.18L235.614 152.61L234.948 152.56L235.456 152.58L234.977 152.59L235.236 152.86L234.625 153.26L235.116 153.19H234.755L235.007 152.99L235.278 153.03L235.143 153.25L234.678 153.26L235.102 152.99L234.862 153.37L235.299 153.3L235.219 153.07L234.557 153.21L235.06 153.01L234.775 153.02L235.046 153.32L235.165 152.92L235.006 153.33L235.086 153.01L234.842 153.04H235.161L234.71 153.02L235.039 153.34L234.417 157.42L234.599 157.15L234.361 157.04H234.618H234.274L234.614 157.07L234.622 156.79L234.181 156.56L236.574 154.32" stroke="black" stroke-width="2" stroke-linecap="round" stroke-linejoin="round"/>
<path d="M143.728 155.24L143.263 156L143.815 155.06L143.592 155.44H144.258L143.504 155.82L143.094 158.82L141.255 162.64L141.432 164.47L140.207 166.97L140.119 168.89L139.544 169.26L139.811 170.06L139.436 171.21L139.994 172.21L139.508 172.48L140.084 174.08L140.106 175.26L140.387 175.27L139.893 175.03L140.238 174.78L140.316 172.96L140.746 171.99L140.153 170.99L140.196 170.3L140.64 169.74L141.23 167.2L141.595 163.55L140.969 158.28L142.017 154.1L142.942 151.74L145.035 149.4L145.81 149.67" stroke="black" stroke-width="2" stroke-linecap="round" stroke-linejoin="round"/>
<path d="M94.7971 214.27L94.4781 214.44L94.701 213.64L94.4021 213.75L94.7321 214.12L94.3201 214.09L94.7791 213.97L94.1261 213.43L93.6311 213.76L93.9751 213.91L93.1911 217.69L92.9581 220.48L93.3881 222.72L93.0191 228.31L93.2551 230.63L92.9031 231.36L93.6401 232.29L93.0321 233.19L93.0191 234.24L93.2771 234.41L92.9091 235.11L93.1761 235.37L92.7411 235.83L92.9871 237.77L92.2781 238.5L92.5001 238.69L92.1441 240.37L91.5431 240.91L91.9651 240.9L91.5391 241.03L92.0951 242.19L91.8201 243.14" stroke="black" stroke-width="2" stroke-linecap="round" stroke-linejoin="round"/>
</svg>
