<svg width="207" height="209" viewBox="0 0 207 209" fill="none" xmlns="http://www.w3.org/2000/svg">
<rect width="207" height="207" fill="white"/>
<path d="M105.132 36.73L101.619 35.01L102.03 35.15L101.343 35.1899L100.521 35.79" stroke="black" stroke-width="2.5" stroke-linecap="round" stroke-linejoin="round"/>
<path d="M93.1144 44.34L90.4444 48.4399L90.4314 49.8L89.8344 50.52L89.6284 51.96L88.4904 54.3101L88.6534 56.14L86.4304 63.96L86.8554 65.67L86.4054 67.02L86.1914 76.09L86.4814 77.91L87.2024 79.08L87.3074 82.36L87.8864 84L90.6234 87.9399L91.2774 89.53L95.0044 93.88L96.8504 97.1L98.7414 98.78L106.811 100.74L113.096 100.97L114.534 100.64L120.755 96.63L124.409 92.55L127.581 90.02L128.707 88.4L129.067 87.04L130.025 86.03L131.702 82.38L134.411 70.84L134.01 69.54L134.403 67.29L133.99 64.27L134.147 60.8L132.925 54.92L132.146 53.9L132.928 51.6L131.867 50.1801L131.947 49.09L131.288 48.8101L131.385 47.9399L130.3 46.91L127.906 41.01" stroke="black" stroke-width="2.5" stroke-linecap="round" stroke-linejoin="round"/>
<path d="M124.101 37.6L121.669 36.5L119.952 35.05L117.234 34.98L111.141 32.89L109.668 33.26L107.135 32.8199L101.577 33.5601L99.5933 34.3L97.7403 35.54L97.6953 35.61" stroke="black" stroke-width="2.5" stroke-linecap="round" stroke-linejoin="round"/>
<path d="M94.0435 39.66L92.2184 42.65L91.4705 43.0601L91.7395 43.11L91.3615 43.54L91.7285 45.95L90.8765 47.09L90.8555 48.0601L91.1875 48.17" stroke="black" stroke-width="2.5" stroke-linecap="round" stroke-linejoin="round"/>
<path d="M106.321 38.8199L105.721 39.37" stroke="black" stroke-width="2.5" stroke-linecap="round" stroke-linejoin="round"/>
<path d="M93.2812 46.09L93.4052 46.79L93.7502 46.58L94.0082 46.78L93.7532 46.9399L94.2612 46.92L94.0632 47.61L94.8972 48.49L95.0512 49.29L95.8402 49.62L96.0472 49.9399L95.7482 50.03L96.3972 50.55L96.2563 51.45L97.3962 51.85L97.7062 52.6801L106.308 58.65L108.158 60.1801L108.315 61L109.317 61.1L116.313 67.09L118.934 68.51L120.272 68.63L124.003 70.1L127.487 70.0601L130.064 70.5699L131.727 70.38L136.308 68.59" stroke="black" stroke-width="2.5" stroke-linecap="round" stroke-linejoin="round"/>
<path d="M134.979 50.9301L132.986 48.88L130.539 45.22L129.214 44.8199L128.886 43.99L127.167 42.59L127.185 42.1899L125.879 41.37L125.715 40.87L123.707 39.88" stroke="black" stroke-width="2.5" stroke-linecap="round" stroke-linejoin="round"/>
<path d="M106.279 39.35H106.22L105.689 39.61" stroke="black" stroke-width="2.5" stroke-linecap="round" stroke-linejoin="round"/>
<path d="M106.822 40.5601L108.727 40.47" stroke="black" stroke-width="2.5" stroke-linecap="round" stroke-linejoin="round"/>
<path d="M114.004 44.61L115.423 45.72L119.537 47.5L120.628 49.47L121.971 51.14L123.279 51.86L124.121 53.34L126.347 57.4L127.446 61.04L128.167 61.91L127.773 62.73L128.612 63.73L129.049 66.15L129.901 66.73L129.554 67.1L130.433 67.76L131.516 67.23L130.542 67" stroke="black" stroke-width="2.5" stroke-linecap="round" stroke-linejoin="round"/>
<path d="M105.605 48.13L110.44 53.24L112.591 57.8199L117.32 61.84L119.826 63.1899L120.344 64.3L121.563 65.39L124.176 66.04" stroke="black" stroke-width="2.5" stroke-linecap="round" stroke-linejoin="round"/>
<path d="M96.1783 94.01L94.3823 94.6801L94.5293 94.97L94.7993 94.46L94.5623 94.4399L94.8603 94.6801L94.5483 95.11L94.8033 95.67L94.5803 97.42L95.2943 99.11L95.4023 100L95.0413 100.09L95.0823 100.36L95.8583 101.24L95.2293 102.93L95.6073 103.45L95.4813 104.58L95.8403 105.04L95.6443 107.7L96.0373 108.64L95.5593 109.08L95.9163 110.19L95.5193 111.47L95.9443 112.38L95.3993 112.58L94.3013 115.74L93.4173 116.55L93.2633 117.48L92.5613 118.57L91.8344 118.89L90.2323 120.51L89.3373 120.89L89.0463 121.68L87.9513 122.13L86.8453 123.09L86.7143 123.62L85.4733 124.75L85.8043 124.95L84.3613 125.81L83.7293 126.56L82.4133 126.85L82.8843 126.81L79.1933 129.81L79.4693 129.94L77.9193 131.81L78.5233 131.65L77.9103 131.47L78.2633 131.63L77.5203 132.07L77.2763 133.35L76.1553 134.4L74.6543 138.19L74.4583 138.03L74.0533 138.37L73.4043 140.38L73.0123 140.5L73.2533 140.58L73.1073 141.05L71.1683 142.95L71.5533 143.18L71.2483 143.39L71.2513 144.4L70.1693 146.04L69.2433 148.72L68.7563 149.18L68.3023 151.55L67.2973 152.5L67.5673 153.36L66.8573 155.68L66.1823 156.05L65.1343 158.08L65.2943 158.52L63.5433 162.97L61.3793 167.38L60.5983 168.26L59.7753 170.84L58.5033 172.28L57.8263 173.96L57.6913 175.51L56.9713 176.37L56.6383 177.84L54.8753 179.99L55.4433 180.52L55.3373 180.79L54.3503 181.32L52.6493 183.41L52.6463 184.1L52.1113 185.02L52.3573 184.98L51.9963 185.11L51.9643 185.8L50.5273 188.39" stroke="black" stroke-width="2" stroke-linecap="round" stroke-linejoin="round"/>
<path d="M98.2455 35.45L98.4326 35.74L98.5146 35.51L97.6145 35.5699L96.5455 36.36L96.3575 36.84L96.5356 36.59L95.9586 36.67L95.4586 37.05L95.7415 37.1L95.5085 37.36L94.7995 37.38L94.6725 37.5699H95.0515L94.1495 38.28L94.1385 38.91L93.7206 39.33L93.8896 39.54L93.3315 39.4399L93.8695 39.5L93.0535 40.28L93.3005 40.66L92.5805 41.52L92.8685 41.8101L92.4066 44.14L92.6725 44.87L92.0605 45.15L92.5465 45.4L92.2206 45.9399L92.4935 46.5L92.1765 46.37L92.8345 47.83L92.6055 48.99" stroke="black" stroke-width="2" stroke-linecap="round" stroke-linejoin="round"/>
<path d="M90.885 34.77L90.543 34.73L90.995 34.72L90.912 34.15L90.561 34.11L91.009 33.98L90.576 33.95L91.069 33.92L90.685 33.97L91.035 33.91L91.719 34.71L93.008 35.14L93.27 35.75L94.602 36.75L95.121 38.01L95.952 37.83" stroke="black" stroke-width="2" stroke-linecap="round" stroke-linejoin="round"/>
<path d="M89.9018 34.08L90.0668 33.47L90.2988 34.21L90.5548 34.1899L90.1288 34.1801L90.0588 34.92L89.1318 35.77L89.3928 36.21L88.7068 37.21L88.8918 38.09L88.2538 38.8L87.9358 40.67L87.3848 41.29L87.8568 41.87L87.1688 42.97L86.8808 44.1801L87.1838 44.97L86.8858 45.16L86.8768 46.23L86.4308 46.9399L86.7628 47.53L86.5388 48.36L86.7748 48.74L86.4038 49.76L86.2238 52.03L86.4728 52.53L86.1548 52.72L86.5938 52.8101L86.2888 53.5L86.3048 53.27L86.0098 53.42L86.0358 54.24L85.6878 54.4399L86.1328 54.66L85.7828 54.62L85.5978 55.63L86.0448 56.02L85.2668 56.3199L85.8928 56.28L85.4388 56.48L85.8808 56.63L85.4478 56.98L86.0048 57.14L85.3908 57.03L85.6538 57.4399L86.0858 57.33L85.4778 57.3199L85.2578 58.9L85.4348 58.61L85.3078 59.41L85.8398 60.0699L85.3078 60.12L85.7168 60.3L85.2868 60.5601L85.6758 60.64L85.6618 62.7L85.3498 62.9L86.1708 63.0601L85.7808 63.09L85.6098 63.62L86.0718 64.1899L85.6428 64.2L86.6748 66.27L86.5578 67.64" stroke="black" stroke-width="2" stroke-linecap="round" stroke-linejoin="round"/>
<path d="M92.8287 33.09L92.0517 33.37L92.7307 33.28L92.1817 33.38L92.4827 33.15L91.8277 33.05L92.4767 33.02L92.1167 32.73L92.5117 32.72L92.0627 32.75L92.1887 32.33L91.7187 32.1899L92.0677 32.03L91.4107 31.64L90.8887 31.87L92.4737 31.61L92.7977 31.17L94.2457 30.5L95.6987 30.52L97.7197 29.73L98.3147 29.79L100.663 28.65H104.328L107.703 29.49L109.569 30.41L109.899 30.65L109.734 30.8101L110.33 30.77L110.894 31.26L112.413 31.63L112.704 32.0601L114.638 32.9301L114.492 33.08L117.526 34.09L119.42 34.98L119.437 35.23L120.513 35.4301L120.418 35.6801L121.385 35.76L122.199 36.62L124.11 37.26" stroke="black" stroke-width="2" stroke-linecap="round" stroke-linejoin="round"/>
<path d="M128.489 40.37L128.172 40.63L129.818 41.62L131.231 43.8" stroke="black" stroke-width="2" stroke-linecap="round" stroke-linejoin="round"/>
<path d="M134.047 47.26L134.116 47.58L134.815 48.13" stroke="black" stroke-width="2" stroke-linecap="round" stroke-linejoin="round"/>
<path d="M103.319 35.49L103.035 36.1L103.069 35.85L103.4 35.91L103.265 36.1801L104.524 37.77L106.289 39.78L107.576 40.66L107.619 41.21L108.942 43.02L108.915 43.46L109.464 43.7L109.674 44.55L110.863 45.33L111.774 47.08L112.429 47.63L112.3 48.22L113.47 48.6801L113.222 48.88L113.458 49.62L114.649 51.03L114.444 51.42L115.474 51.91L115.361 52.17L115.71 52.1801L118.495 55.35L118.23 55.77L119.858 56.91L121.507 59.6899L122.119 59.8L121.886 59.97L122.602 60.47L122.806 61.0601L122.567 61.2L123.5 61.77L124.096 62.85L125.157 63.79L126.057 63.84L126.001 63.33L126.685 62.79L126.281 62.28" stroke="black" stroke-width="2" stroke-linecap="round" stroke-linejoin="round"/>
<path d="M108.222 34.92L107.22 35.01L107.224 34.24L107.129 34.58L105.656 34.72L105.717 34.9301L112.069 38.22L116.368 41.5601L117.437 41.8101L117.675 42.3101L118.713 42.83L118.903 43.54L120.143 44.01L120.436 44.71L121.942 45.86L121.982 46.39L123.055 47.16L123.401 48.17L124.452 48.87L124.805 49.48L124.602 49.76L127.671 50.97L127.446 51.08L128.24 51.34L129.466 52.67L132.654 54.78L133.445 55.9L134.374 56.05L134.027 56.22L134.125 56.71L134.418 56.87" stroke="black" stroke-width="2" stroke-linecap="round" stroke-linejoin="round"/>
<path d="M93.3559 33.1H93.1249L93.5599 33.26L93.1029 32.38L92.8559 32.54L93.0889 32.6L93.0129 32.13L92.5439 32.12L93.1479 32.11L92.4629 32.29L92.7549 32.21L93.2699 32.8101L94.1629 34.84L95.4659 36.1801L97.5969 39.5601L98.0969 39.85L98.6919 41.42L99.7789 42.1899L99.8459 43.01L100.881 44.25L101.034 45.39L101.575 45.74L101.152 45.76L103.3 47.51L104.144 47.7L103.831 47.96L105.664 48.9399L105.611 49.54L106.068 49.49L106.385 49.97L107.52 50.45L107.573 51.21" stroke="black" stroke-width="2" stroke-linecap="round" stroke-linejoin="round"/>
<path d="M138.049 130.54L139.485 133.032L142.591 141.111L144.783 145.2L144.9 146.313L145.487 147.091L147.075 151.869L147.872 155.554L153.439 169.809L153.71 171.79L155.49 175.967L158.522 185.858L158.968 186.291L159.32 189.848L160.057 192.675L160.929 194.666L161.441 197.247L162.121 197.759L161.827 198.084L162.273 199.828L162.684 200.123L162.251 200.577L162.184 201.631L162.769 201.966L162.905 204.301L163.499 204.232L162.696 204.783L163.222 204.773L163.263 206.005L163.848 206.468L163.759 206.872L163.315 206.921L164.263 206.842L163.251 207L163.925 206.961L163.274 206.586" stroke="black" stroke-width="2.5" stroke-linecap="round" stroke-linejoin="round"/>
<path d="M122.695 121.96L122.761 121.97L123.026 122.44L123.828 122.34L123.667 122.55L125.075 123.09L126.262 123.1L128.406 123.83L128.385 124.07L130.078 124.13L130.589 124.75L131.244 124.73L132.317 125.26L131.831 125.34L132.867 125.52L133.117 126.09L134.472 126.67L134.38 126.92L134.861 127.2L134.738 127.5L135.296 127.65L136.258 128.72L137.184 129.06L137.949 130.21L138.471 130.46L138.686 130.92L138.45 131L140.083 131.91L139.532 132.05L140.6 133.79L140.24 133.68L140.182 134.15L140.737 134.5L140.585 134.99L141.387 135.58L141.638 137.14L142.079 137.48L141.769 137.9L142.444 139.41L142.793 140.82L142.621 141.18L143.809 142.32L143.488 143.16L144.092 143.84L144.097 144.45L145.448 146.98L145.091 147.41L145.705 147.85L147.084 152.37L146.996 153.07L148.6 156.64L148.768 157.51" stroke="black" stroke-width="2" stroke-linecap="round" stroke-linejoin="round"/>
<path d="M113.554 102.03L112.792 102.71L112.492 102.65L112.151 103.25L111.367 103.2L111.711 103.03L111.783 102.45L111.868 103.05L111.519 103.23L112.302 103.55L111.535 104.3L112.321 105.91L111.993 106.07L111.87 106.77L112.163 107.03L111.9 107.39L111.904 108.82L112.308 108.96L111.845 109.14L111.767 109.59L112.134 109.71L112.023 110.1L112.489 110.67L112.174 110.71L112.392 110.91L112.041 111.33L112.441 111.64L112.203 111.96L112.458 112.12L112.019 112.42L112.366 112.77L112.142 112.65L112.357 112.82L112.146 113.5L112.524 114.05L111.924 113.85L112.352 114.03L112.496 114.52L112.196 114.73L112.53 115.12L112.055 115.24L113.369 116.33L113.178 116.52L113.93 117.18L113.793 117.45L114.109 117.79L114.832 117.9L114.804 118.25L116.871 119.52L118.307 119.45L118.01 119.66L119.792 120.18L119.533 120.37L120.185 120.33L120.989 120.98L123.184 121.72L125.095 121.29L125.184 121.63" stroke="black" stroke-width="2" stroke-linecap="round" stroke-linejoin="round"/>
<path d="M55.457 182.36L53.8101 182.697L54.614 182.493L54.0615 182.511L54.6274 182.076L54.3582 182.227L54.1139 181.925L53.8501 182.76L52.8526 183.683L52.7798 184.412L51.6854 185.868L51.6544 186.65L50.6853 187.592L50.5485 188.338L49.6816 188.995L49.3094 190.088L47.6555 192.761L47.7327 193.161L47.2859 193.605L47.4396 194.005L46.5824 195.16L46.2174 195.284L46.4608 196.092L45.5565 197.158L44.8352 199.334L44.273 199.619L44.7615 199.601L44.1184 200.418L43.8466 202.07L43.4336 202.097L43.6876 202.195L43.0783 202.887L43.3741 202.905L43.0037 202.879L43.1955 202.816L43.2009 203.074L42.755 203.385L43.1662 203.438L42.7487 203.358L43.0676 203.5L43.1138 204.166L42.8216 203.962L42.8234 204.486L42.3881 204.948L42.8243 204.913L42.4796 205.224L42.7585 205.099L42.5498 205.144L42.5951 204.326L41.7441 204.788" stroke="black" stroke-width="2" stroke-linecap="round" stroke-linejoin="round"/>
<path d="M126.48 151.71L145.48 206.71" stroke="black" stroke-width="2" stroke-linecap="round" stroke-linejoin="round"/>
<path d="M77.217 173.927L77.5672 174.226L77.3577 174.835L77.648 174.815L77.2938 174.924L77.8007 175.383L77.0135 176.291L76.0437 181.19L75.5539 182.197L74.5891 183.165L74.7447 183.524L74.196 185.789L73.2831 186.647L73.2053 187.824L71.2209 191.576L70.9635 192.504L71.188 192.883L70.3829 193.511L70.4497 193.95L69.9858 194.669L69.9568 196.245L69.2874 196.983L67.6921 200.475L68.0523 200.565L67.6352 200.834L67.4866 201.732L66.5049 203.199L66.7493 203.329L66.431 203.748L66.6804 204.197L65.0861 206.741L65.4224 207L65.6089 206.681L65.0312 206.771L65.6139 206.711L65.4363 206.471L65.9462 206.351L65.7326 206.262L66.1367 205.434L67.3699 204.207" stroke="black" stroke-width="2" stroke-linecap="round" stroke-linejoin="round"/>
<path d="M88.4805 144.71L78.4805 175.71" stroke="black" stroke-width="2" stroke-linecap="round" stroke-linejoin="round"/>
<path d="M61.2109 163.86L78.2109 172.86" stroke="black" stroke-width="2" stroke-linecap="round" stroke-linejoin="round"/>
<path d="M131.555 174.1L134.481 172.38L136.883 171.95L136.712 171.83L137.027 171.65L138.214 171.35L139.624 169.97L140.924 169.37L141.893 168.5L142.64 168.35L144.074 167.2L145.261 166.77L145.097 166.39L147.058 165.66L147.295 165.13L147.882 165.04L147.966 164.52L149.134 164.27L148.605 164.5L149.912 164.47L149.546 164.23L150.08 164.19H149.562L149.789 164.06L150.071 164.19L149.505 164.18L149.893 164.39L149.16 164.56" stroke="black" stroke-width="2" stroke-linecap="round" stroke-linejoin="round"/>
<path d="M90.96 117.76L90.696 117.58H91.059L90.625 117.59L91.013 117.63L90.663 117.69L91.253 118.11L90.788 118.65L91.212 118.92L92.247 121.38L92.772 121.7L92.926 122.23L93.628 122.22L94.573 123.52L95.299 123.75L95.102 123.96L99.561 125.19L99.897 125.59L100.933 125.55L100.543 125.63L101.939 126.17L105.908 126.51L105.913 126.72L105.797 126.43L106.975 126.61L108.152 126.52L108.874 126.09L109.405 126.25L111.447 125.49L111.061 125.43L112.788 124.74L112.677 124.47L113.285 124.56L113.75 124.07L114.232 124.04L113.878 123.89L114.942 123.6L115.014 123.18L115.718 123.11L115.256 123.04L115.521 122.85L116.205 122.75L116.146 122.32H116.653L117.021 122.09L116.806 121.97L117.162 122.15L116.704 121.88L117.585 121.62L117.381 121.19L117.206 121.36H117.843L117.816 121.08L117.431 121.23L117.49 121.48L117.604 121.2L117.277 121.14L117.825 120.91L117.924 120.23L117.669 120.38L118.089 120.45L116.921 120.82" stroke="black" stroke-width="2" stroke-linecap="round" stroke-linejoin="round"/>
<path d="M61.2109 168.86L80.2109 178.86" stroke="black" stroke-width="2" stroke-linecap="round" stroke-linejoin="round"/>
<path d="M59.0414 165.08L59.6804 164.23L58.7474 164.95L59.0034 165.44L58.3904 165.76L57.8404 166.7L57.8664 168.42L57.6094 168.97L59.1984 167.88L59.6324 167.08L60.6234 166.25L59.8394 167.97L59.8704 169.6L59.4564 170.42L63.0154 166.25L62.8514 166.44L63.3784 166.86L63.6064 168.96L65.2014 170.01L66.7624 170.11L70.5654 171.22L71.6974 171.28L73.2254 172.41L74.6154 172.71L76.4054 173.9L76.2674 174.12L77.1824 174.42L77.0244 174.55L78.1274 174.64L79.1654 175.13L78.6564 175.26L79.7804 175.73L80.8724 175.28" stroke="black" stroke-width="2" stroke-linecap="round" stroke-linejoin="round"/>
<path d="M129.098 176.35L129.174 176.03L129.21 176.37L130.221 176.17L135.049 173.37L136.123 173.23L136.363 173.52L140.992 172.53L144.386 172.48L147.019 171.42L146.983 171.17L148.292 170.94L148.935 170.41L150.997 170.06L151.681 169.05L151.721 168.61L151.053 168.25L151.78 167.83L151.487 166.86L151.84 166.25L151.348 165.17L151.318 163.89L150.879 163.65L150.347 164.43L148.611 165.55L148.48 166.15L146.968 167.71L145.014 168.84L144.027 170.3L143.282 170.43L142.845 171.2L142.283 171.43L141.967 172.2L141.301 172.38L140.692 173.55L139.477 174.51L138.953 175.62L137.6 175.87L136.342 176.62L134.913 178.34L134.255 178.5L134.737 178.75L133.817 179.18L133.013 180.1L133.177 180.29L131.521 180.99L131.386 181.36L131.375 180.96L130.291 181.02L130.716 180.91L130.279 180.41L129.964 180.81" stroke="black" stroke-width="2" stroke-linecap="round" stroke-linejoin="round"/>
<path d="M87.7823 120.35L87.2903 120.94L87.5533 121.25L87.1523 121.2L87.4443 121.56L87.7673 121.18L87.6513 121.36L88.0873 121.49L87.6953 121.75L88.5213 123.17L88.1993 123.52L88.0753 124.87L88.4563 125.32L88.5533 127.12L89.8593 127.71L89.4563 127.79L90.0343 128.31L90.2123 129.1L90.6813 129.21L90.8253 129.78L92.2953 130.32L91.8864 130.39L92.7373 130.49L92.6303 131.04L93.0473 131.27L95.4283 131.53L97.0903 132.55L99.4333 132.49L99.7203 132.36L99.3623 132.26L101.673 131.97L102.673 131.1L102.96 130.19L103.319 130.24L103.095 129.79L103.761 129.33L103.757 127.99L104.343 128.13L103.851 128.04L103.86 128.26L104.435 128.03L103.964 127.94L104.235 127.82L104.007 127.97L104.441 128.05L103.948 127.81L104.223 127.31L104.546 127.3L104.109 127.59L104.175 127.29L104.212 127.55" stroke="black" stroke-width="2" stroke-linecap="round" stroke-linejoin="round"/>
<path d="M103.855 127.31L103.468 127.43L103.842 127.22L103.43 126.95L103.702 127.15L103.496 127.06L103.462 127.71L104.14 128.2L104.223 128.73L104.568 128.74L104.693 129.32L106.688 129.96L106.59 130.21L108.057 130.8L108.885 132.01L111.267 132.64L112.396 131.96L114.275 132.05L114.719 131.7L115.288 131.75L118.419 129.63L117.883 129.54L118.521 129.45L118.511 129.13L119.304 128.49L119.113 128.18L119.339 127.96L119.041 128.08L119.506 128.04L119.667 127.36L120.658 126.67L120.77 126.09L121.371 125.88L121.387 125.47L121.11 125.46L121.4 125.52L121.716 125.09L121.785 123.78L122.243 123.31L121.9 123.17L122.286 122.54L121.861 122.63L122.224 122.59L122.22 122.32L121.544 122.5L122.047 121.93L121.564 121.87L122.046 121.49L121.471 121.73L117.407 126.32L116.274 126.56L113.957 128.84H113.259L111.598 129.9L110.186 130.12L109.873 130.52L108.94 130.63L107.709 131.27L107.453 131.26L107.494 130.89L106.969 131.05L106.665 131.52L107.058 131.36L106.473 131.06L109.461 130.4L113.291 125.78L113.926 125.52L115.032 123.89L116.807 122.98L116.63 123.21L117.259 123.1L115.43 125.53L110.544 127.52L108.04 129.16L106.777 129.29L106.328 128.64L105.858 128.65L106.567 129L107.087 128.9L106.542 129.11L106.5 128.68L106.593 129.05L106.315 128.9L106.726 129.01L106.135 129.28L106.528 129.14L107.352 129.58L109.177 129.43" stroke="black" stroke-width="2" stroke-linecap="round" stroke-linejoin="round"/>
<path d="M88.1105 126.42L88.2395 127.33L87.9995 127.02L88.4255 127.05L87.7315 127.22L88.5395 127.69L88.0825 127.68L88.2645 127.93L87.7285 128.07L88.1175 128.05L87.8945 128.23L89.2455 129.05L92.8335 129.41L96.3095 128.64L97.2315 128.76L98.2765 128.43L98.7375 128.81L98.4945 128.8L98.7865 128.72L96.0735 127.77L93.6325 127.56L91.8665 126.4L90.3025 125.95L89.7875 123.8L89.6025 124L89.9585 124.13L90.0095 123.77L90.5075 123.56L89.9045 124.51L90.1165 124.82L89.7205 126.06L89.7585 127.41L88.9805 129.03L90.8005 124.91L91.3895 124.14L91.8055 124.15L91.1415 125.1L91.3725 125.4L91.1905 125.73L90.0475 126.66L89.8095 127.25L89.6105 129.64L90.2245 129.5L91.6285 127.79L92.8435 126.96L92.7175 126.72L91.8435 130.57L91.8835 130.95L92.4615 131.06L95.4655 128L93.8675 131.94L94.1745 131.22L95.1255 130.58L96.7375 128.68L97.0245 128.78L96.7195 129.3L96.8445 129.83L98.1405 130.09L98.6805 131.08L98.8905 130.61L99.3035 130.57L99.4225 131.96L99.3035 131.61L101.128 129.6L101.687 129.23L102.774 129.25L102.581 129.76" stroke="black" stroke-width="2" stroke-linecap="round" stroke-linejoin="round"/>
<path d="M132.672 174.18L132.861 175.42L132.886 174.35L132.939 174.69L132.385 174.39L132.115 174.99L131.785 174.9L133.547 174.12" stroke="black" stroke-width="2" stroke-linecap="round" stroke-linejoin="round"/>
<path d="M80.4699 140.44L78.6089 139.84L79.1279 139.63L79.5649 139.87L79.0999 139.83L78.0499 140.6L77.1719 141.74L77.9109 141.66L78.5529 141.02L78.7189 140.45L78.3509 140.77L78.5949 140.7L78.4139 140.45L78.6849 140.95L79.6809 140.43L78.9779 139.69L78.3129 139.49L78.4809 140.57" stroke="black" stroke-width="2" stroke-linecap="round" stroke-linejoin="round"/>
<path d="M100.643 143.93L98.652 144.02L99.125 143.97L97.593 145.77L97.582 146.59L98.446 146.12L98.254 145.88L99.048 145.1L99.755 143.65L99.561 144.11L98.94 144.27L98.29 145.45L98.778 145.26L99.164 145.67L99.705 145.68L99.219 145.34L99.502 144.07L98.893 143.42L99.213 143.51L98.742 144.16" stroke="black" stroke-width="2" stroke-linecap="round" stroke-linejoin="round"/>
<path d="M116.215 142.4L113.53 142.34L112.406 143.5L111.971 144.76L112.221 145.07L112.719 145.04L113.732 144.15L114.035 143.12L114.958 142.08L114.537 141.75L115.373 141.31L114.429 141.47" stroke="black" stroke-width="2" stroke-linecap="round" stroke-linejoin="round"/>
<path d="M129.296 136.5L128.5 137.37L128.749 137.64L129.195 137.52L129.836 136.73L129.465 136.61L129.832 136.82L129.672 136.55L130.202 136.39H129.483" stroke="black" stroke-width="2" stroke-linecap="round" stroke-linejoin="round"/>
<path d="M111.613 158.83L111.658 158.44L111.709 158.89L112.138 159.11L113.671 159.31L113.542 159.11L114.199 158.38L114.057 158.06L113.016 157.32L112.704 157.54" stroke="black" stroke-width="2" stroke-linecap="round" stroke-linejoin="round"/>
<path d="M128.521 147.94L127.168 147.85L127.583 147.74L127.849 148.29L128.745 148.73L128.266 148.46L128.565 148.32L128.486 147.86L129.631 147" stroke="black" stroke-width="2" stroke-linecap="round" stroke-linejoin="round"/>
<path d="M138.173 159.1L136.64 160.4L136.018 160.31L136.132 159.62L135.787 158.65L136.037 157.86L135.684 157.37L135.94 157.65L135.714 158L136.375 158.26L137.252 158.22L136.549 158.17L137.175 157.75L136.628 157.43" stroke="black" stroke-width="2" stroke-linecap="round" stroke-linejoin="round"/>
<path d="M118.641 177.04L116.984 177.56L117.888 177.58L117.552 178.14L118.191 180.5L118.102 179.77L119.169 178.61L118.821 178.71L118.621 178.59L118.852 178.48" stroke="black" stroke-width="2" stroke-linecap="round" stroke-linejoin="round"/>
<path d="M92.7119 160.78L92.9718 160.12L92.6398 160.05L92.2148 160.2L92.6768 160.54L92.2208 160.68L93.2528 161.05L94.3908 160.99L94.3098 160.59L93.9938 160.58L93.8518 160.95L94.1788 160.62L93.5028 160.55L94.2448 160.37L94.4128 159.63L95.2558 159.02L95.8738 158.9L96.0578 159.2" stroke="black" stroke-width="2" stroke-linecap="round" stroke-linejoin="round"/>
<path d="M96.4557 178.13L94.7627 178.5L93.1367 178.2L95.3897 176.68L95.6157 177.52L95.6327 176.64L95.4237 176.7" stroke="black" stroke-width="2" stroke-linecap="round" stroke-linejoin="round"/>
<path d="M85.5703 187.93L86.5163 186.47L87.0243 186.32L89.1823 187.46L88.8563 187.48L87.6243 185.37L87.9743 185.15" stroke="black" stroke-width="2" stroke-linecap="round" stroke-linejoin="round"/>
<path d="M78.2053 194.42L77.8613 194.77L78.3563 194.72L78.5833 195.24L79.9173 196.13L81.0893 197.86L80.9623 198.29L80.7453 197.87L79.5563 197.59" stroke="black" stroke-width="2" stroke-linecap="round" stroke-linejoin="round"/>
<path d="M93.2121 206.02L93.4251 206.31L93.0261 206.6L91.1031 205.82L90.4961 205.01L90.5081 205.4" stroke="black" stroke-width="2" stroke-linecap="round" stroke-linejoin="round"/>
<path d="M107.493 205.08L107.58 204L107.147 202.87L106.645 203.73L107.011 203.71L106.894 204.09L105.879 203.57L106.339 203.12" stroke="black" stroke-width="2" stroke-linecap="round" stroke-linejoin="round"/>
<path d="M120.864 191.86L120.311 191.81L120.666 191.96L120.35 192.27L121.536 193.07L122.085 194.34L121.622 195.07L121.731 193.23" stroke="black" stroke-width="2" stroke-linecap="round" stroke-linejoin="round"/>
<path d="M130.884 202.5L129.105 203.17L129.813 203.05L129.718 203.61L131.093 204.5L130.283 204.48L131.248 204.33L130.425 204.18L130.478 203.59" stroke="black" stroke-width="2" stroke-linecap="round" stroke-linejoin="round"/>
<path d="M107.306 172.75L105.958 173L104.852 174.33L104.279 174.26L104.918 173.8L104.684 174.06L105.263 174.19L103.715 173.87L104.516 173.94L104.201 174.35" stroke="black" stroke-width="2" stroke-linecap="round" stroke-linejoin="round"/>
<path d="M102.676 187.86L104.666 185.53L104.865 185.76L104.215 186.07L104.399 186.24L107.419 184.89L107.372 184.5L107.88 184.41L106.602 185.02L106.34 184.33" stroke="black" stroke-width="2" stroke-linecap="round" stroke-linejoin="round"/>
<path d="M99.9173 32.5L100.307 30.74L100.03 30.75L100.236 31.01L99.8853 31.38L99.2663 35.6L99.7373 39.99L99.4253 43.86L99.7733 45.39L98.9593 48.41L99.2133 49.96L99.1583 50.55L98.7563 50.9L99.0073 51.25L98.6383 50.78L100.23 47.84L100.762 42.62L100.147 39.85L100.245 38.96L99.5043 37.92L99.4603 36.11L100.135 32.98L100.417 32.89L99.9913 32.91L101.168 33.2L101.441 33.09L101.191 32.92L101.445 32.49L97.6703 29.77L96.5823 29.79L94.6953 30.61L92.0773 32.3L89.0943 35.08L88.9583 35.6801L86.9463 37.79L86.4293 39.22L84.3363 42.35L83.6523 44.16L81.8033 47.25L81.6943 48.64L80.1013 51.46L80.2923 52.88L79.2693 55.11L79.3523 56.5601L78.4583 58.51L77.4433 62.5L76.6133 71.73L76.9413 74.21L77.4183 75.36L77.1823 75.89L77.1983 81.0699L77.7253 86.63L79.5223 95.1899L80.3313 97.61L81.4583 99.33L81.5113 100.65L83.4903 105.31L83.5093 106.41L84.2973 106.73L84.2453 107.22L85.4323 110.21L86.3753 110.27L85.7243 110.68L86.3993 111.14L86.2063 111.68L86.8433 112.29L87.3003 114.29L86.9433 117.75L86.1683 118.17L86.3503 118.46L86.5033 118.1L86.2723 118.16L86.8263 118.22L86.2983 118.24L86.7993 118.07L86.3963 118.21L86.6743 118.11L86.3643 117.94" stroke="black" stroke-width="2" stroke-linecap="round" stroke-linejoin="round"/>
<path d="M80.9442 106.32L81.1832 109.93L80.8552 112.52L81.2432 116.08L80.8682 120.34L79.7841 121.59L79.5492 123.48L78.7451 124.95L78.6912 125.82L77.9001 126.45L77.9762 127.08L77.0532 127.71L76.4062 129.2L75.6191 129.94L75.7562 130.11L77.0062 128.22" stroke="black" stroke-width="2" stroke-linecap="round" stroke-linejoin="round"/>
<path d="M82.9307 64.55L81.7807 69.86L79.3737 86L76.0957 95.15" stroke="black" stroke-width="2" stroke-linecap="round" stroke-linejoin="round"/>
<path d="M83.6602 57.26L84.4722 57.22L83.8262 59.78L84.4062 67.26L83.9962 70.92L84.2292 77.54L83.9202 79.08L83.6762 86.52L82.0842 94.1899L80.5942 99.23L79.6172 100.92" stroke="black" stroke-width="2" stroke-linecap="round" stroke-linejoin="round"/>
<path d="M88.139 84.1899L87.021 85.4L87.306 85.6899L87.052 87.05L84.213 97.97L81.383 104.52L78.082 109.91" stroke="black" stroke-width="2" stroke-linecap="round" stroke-linejoin="round"/>
<path d="M91.1181 95.5601L89.9492 96.97L89.0602 98.75L88.9991 99.59L88.0732 101.12L87.7611 102.93L86.1361 104.86L83.8762 110.22L80.4371 114.15L79.1602 116.12L77.2852 117.73" stroke="black" stroke-width="2" stroke-linecap="round" stroke-linejoin="round"/>
<path d="M93.4691 100.44L94.6491 99.21L93.4841 102.83L92.3931 104.4L91.1031 108.57L86.5831 115.45L83.9471 118.72L79.9531 122.02" stroke="black" stroke-width="2" stroke-linecap="round" stroke-linejoin="round"/>
<path d="M86.4979 115.45L88.4049 113.72L88.8719 112.59L92.2469 109.46L94.7769 106.12L95.2989 105.87L95.4559 105.65L95.1949 105.64L95.5039 106.11L95.2519 106.89L94.0299 108.58L92.1449 112.66L89.8059 115.45L87.1549 119.51L84.3579 122.75L82.3859 125.75L79.7229 128.08L76.2969 132.51" stroke="black" stroke-width="2" stroke-linecap="round" stroke-linejoin="round"/>
<path d="M130.848 80.88L129.597 83.1L129.684 84.12L128.143 87.54L126.092 94.51L127.244 109.16L128.078 111.15L129.837 111.25" stroke="black" stroke-width="2" stroke-linecap="round" stroke-linejoin="round"/>
<path d="M126.434 105.08L125.133 103.51L124.876 102.58L124.234 102.17L124.091 101.44L122.899 99.62L122.282 99.5L122.711 99.66L122.129 102.2L122.207 104.98L123.58 108.42L124.862 110.06L126.886 114.39L127.634 114.62L127.754 114.15" stroke="black" stroke-width="2" stroke-linecap="round" stroke-linejoin="round"/>
<path d="M120.271 103.12L119.032 103.05L117.638 102.37L117.667 102.9L117.135 103.73L117.774 106.91L118.544 108.76L119.384 112.31L121.77 116.3L123.233 117.27" stroke="black" stroke-width="2" stroke-linecap="round" stroke-linejoin="round"/>
<path d="M115.53 106.87L114.706 106.81L114.527 107.17L115.088 107.41L115.26 109.53L115.894 111.83L117.655 117.11L119.574 120.64L121.637 122.22L124.382 122.93L128.481 122.27" stroke="black" stroke-width="2" stroke-linecap="round" stroke-linejoin="round"/>
<path d="M116.796 115.09L117.128 114.38L116.619 115.84L116.909 117.53L118.067 119.12L123.92 123.12L127.561 124.38L131.523 123.56" stroke="black" stroke-width="2" stroke-linecap="round" stroke-linejoin="round"/>
<path d="M115.941 57.85L116.629 58.9L117.979 63L118.922 64.35L119.841 71.26L121.14 73.42L121.27 74.65L122.165 75.51L122.365 76.11L122.198 77.4301L122.52 82.2L123.065 84.08L123.056 88.0601L124.229 89.3L132.777 94.74L134.241 94.76L137.02 92.55" stroke="black" stroke-width="2" stroke-linecap="round" stroke-linejoin="round"/>
<path d="M123.895 67.58L123.436 70.35L123.735 77.7L125.175 82.9L125.715 86.27L129.287 92.16L132.395 94.86L133.598 95.4" stroke="black" stroke-width="2" stroke-linecap="round" stroke-linejoin="round"/>
<path d="M126.663 66.86L125.84 71.04L127.391 76.09L130.874 83.92L132.001 85.35L133.239 86.3L136.688 87.58" stroke="black" stroke-width="2" stroke-linecap="round" stroke-linejoin="round"/>
<path d="M128.3 73.7L128.258 76.03L130.381 79.3L132.862 84.17L134.836 85.27L137.242 85.01" stroke="black" stroke-width="2" stroke-linecap="round" stroke-linejoin="round"/>
<path d="M128.074 59.2L128.125 61.92L128.873 64.45L130.308 67.22L134.739 73.21L136.912 74.74L141.015 75.5601" stroke="black" stroke-width="2" stroke-linecap="round" stroke-linejoin="round"/>
<path d="M129.461 49.11L130.07 48.42L130.847 48.15L130.482 51.3101L130.854 54.49L132.315 57.4L133.69 59.34L136.945 62.6801L141.033 65.67L143.063 66.36" stroke="black" stroke-width="2" stroke-linecap="round" stroke-linejoin="round"/>
<path d="M130.01 51.4301L129.598 52.83L130.117 53.71L132.461 53.79L134.754 55.97L136.931 57.3199L138.889 57.6801L140.851 57.53" stroke="black" stroke-width="2" stroke-linecap="round" stroke-linejoin="round"/>
<path d="M129.374 50.11L129.905 49.53L130.857 49.28L130.34 50.15L130.322 50.8101L131.021 51.6899L135.679 53.3L138.319 54.66L141.53 55.37L142.25 55.88L142.811 55.6801L140.014 59.54L138.929 60.42L131.114 74.4301L128.746 75.66L127.094 77.03L125.464 77.42L123.43 76.6L122.953 76.6801L123.135 76.98" stroke="black" stroke-width="2" stroke-linecap="round" stroke-linejoin="round"/>
<path d="M126.469 66.3199L126.573 69.35L129.158 73.4399L131.352 79.38L133.828 82.91L135.947 84.91L137.092 86.6801L139.693 87.04L138.329 87.26L136.819 87.98L134.82 89.54L130.172 95.09L129.494 95.54L129.22 95.99L129.362 96.99L128.876 97.27L129.147 97.45L127.942 97.6801L126.408 98.72L125.59 97.52L126.204 96.63L129.627 94.1L130.1 94.13L129.279 94.53L126.788 97.6899L125.099 98.9301L124.645 99.86" stroke="black" stroke-width="2" stroke-linecap="round" stroke-linejoin="round"/>
<path d="M124.438 100.16L123.741 101.18L124.157 101.32L123.693 101.41L124.317 101.44L124.468 101.75L124.52 103.45L126.276 109.45L126.214 111.56L127.507 115.78L129.903 119.57L133.368 119.89L132.69 120.74L132.981 120.81L132.746 120.63L133.024 120.47H132.744L133.337 120.55L132.12 121.17L130.056 123.53L130.228 123.93L129.849 124.36L128.649 124.79L126.981 124.87L126.458 124.31L130.831 120.96L131.523 120.05L131.385 119.82L132.046 120.05L131.753 120.23L131.916 120.56L131.655 120.51L132.016 121.29L131.672 121.43L129.101 120.57L125.061 120.93L124.411 120.66L124.003 119.29L124.689 117.42L125.295 117.17L124.416 117.96L124.13 118.86L122.097 120.13L121.95 120.51L122.438 120.18L122.251 119.69L123.06 118.2L123.329 115.87L122.884 115.67L120.831 116.29L119.796 117.06L119.649 116.7L118.852 116.34L119.089 116.15L118.858 115.9L119.336 113.51L117.17 114.81L117.238 115.02L117.052 114.88L117.4 113.94L117.376 111.42L118.073 108.8L115.751 110.72L116.223 109.84L117.011 109.31L116.909 107.93L117.293 107.62L117.233 108.23L115.556 109.14L115.978 109.03L116.758 105.7L116.63 106.06L115.689 106.4L115.532 105.7L114.105 106.27L113.916 105.8L115.076 104.86L114.377 105.13L113.983 103.84L114.935 101.07L115.998 100.65L117.928 101.21" stroke="black" stroke-width="2" stroke-linecap="round" stroke-linejoin="round"/>
<path d="M84.2101 91.87L85.3461 91.95L83.3641 94.72L79.5801 101.88L82.1331 101.01L85.9401 97.92L88.3011 95.21L89.0451 94.84L88.0371 95.92L84.9651 100.77L84.4961 102.7L83.8491 103.55L85.3561 103.09L88.3191 103.42L89.0691 103.92L89.8091 105.31L90.4111 105.13L91.1181 104.33" stroke="black" stroke-width="2" stroke-linecap="round" stroke-linejoin="round"/>
<path d="M97.795 41.95L97.437 41.97L96.988 40.59L95.618 40.72L93.865 41.6801L92.207 43.52L92.228 44.1899L90.607 45.0601L89.404 46.42L87.9109 49.29L87.769 50.35L86.789 51.7L86.895 53.59L86.2339 55.03L86.277 59.38L85.918 60.78L86.408 62.42L86.3419 68.83L86.963 70.04L86.444 70.72L87.302 72.63L87.93 72.3" stroke="black" stroke-width="2" stroke-linecap="round" stroke-linejoin="round"/>
<path d="M87.0153 60.62L86.5703 64.63L86.9553 66L86.7103 66.84L87.7823 71.76L88.0013 74.83L88.5213 75.47L88.6033 78.46L89.6593 81.22" stroke="black" stroke-width="2" stroke-linecap="round" stroke-linejoin="round"/>
<path d="M99.8189 59.65L95.5429 59.12L93.4919 58.55L90.8159 58.8101L86.2489 61.89L83.3839 65.1899L82.1229 68L82.2499 69.27L81.9089 70.33L82.3739 71.13L81.7949 73.84L83.3409 77.03L83.7179 78.99L84.5539 79.51L85.2599 80.6801L86.1239 81.4L90.5579 81.6899L92.1849 82.14L92.1239 82.37L96.7419 82.49L96.9069 82.1899L97.9859 81.9399L98.7609 81.0699L100.324 80.11L100.346 79.79L101.879 79.05L102.22 78.39L102.833 78.09L104.176 75.8199L105.665 72.13L106.105 69.2L106.052 67.8199L105.585 67.5601L105.792 66.65L104.794 65.52L104.5 64.66L104.223 64.73L104.503 64.4301L104.361 63.58L103.857 63.4301L104.591 63.38L104.089 63.39L104.15 63.1899L104 63.42L104.023 62.78L103.259 62.87L103.973 62.75L103.282 62.77L103.623 62.64L103.554 62.0601L103.187 61.88L103.394 61.5699L102.868 61.54L103.494 61.42L102.666 61.91" stroke="black" stroke-width="2" stroke-linecap="round" stroke-linejoin="round"/>
<path d="M130.766 58.6L126.49 58.0699L124.438 57.5L121.762 57.76L117.195 60.84L114.33 64.14L113.07 66.95L113.197 68.21L112.855 69.27L113.321 70.0699L112.742 72.79L114.287 75.98L114.665 77.9301L115.5 78.46L116.206 79.62L117.07 80.34L121.504 80.64L123.131 81.08L123.07 81.3199L127.688 81.4399L127.853 81.14L128.933 80.89L129.708 80.01L131.27 79.05L131.292 78.73L132.825 78L133.167 77.33L133.78 77.04L135.122 74.76L136.611 71.08L137.051 68.15L136.999 66.76L136.531 66.51L136.739 65.6L135.741 64.47L135.446 63.61L135.169 63.67L135.449 63.37L135.307 62.53L134.803 62.38L135.538 62.33H135.035L135.096 62.14L134.946 62.37L134.97 61.73L134.205 61.8199L134.919 61.6899L134.228 61.72L134.569 61.58L134.5 61.01L134.133 60.83L134.341 60.52L133.815 60.49L134.441 60.37L133.613 60.86" stroke="black" stroke-width="2" stroke-linecap="round" stroke-linejoin="round"/>
<path d="M105.924 68.39L106.075 68.62L105.375 68.37L107.525 68.39L109.342 67.95L110.977 68.62L112.065 68.35L110.881 68.5L111.279 68.47L110.871 68.38L111.268 68.27L111.047 67.15L110.617 67.0699L110.451 66.84L110.686 66.67L109.213 65.5699L108.029 65.64L106.178 66.42L104.832 66.45L105.274 66.39L105.181 66.58L105.524 66.37L105.176 66.41L105.379 66.0699L106.693 65.9399L110.483 64.71L110.566 64.9301L111.073 64.8199L112.112 64.33L109.749 64.5L109.342 64.14L107.297 64.2L110.45 62.67" stroke="black" stroke-width="2" stroke-linecap="round" stroke-linejoin="round"/>
<path d="M127.314 63.39L127.817 62.8199L127.75 62.27L128.044 62.29L127.791 62.34L127.656 61.75L125.991 61.73L125.614 61.39L120.957 61.6L117.013 63.96L116.812 64.12L117.264 64.27L116.023 64.6899L115.273 65.54L114.775 66.77L114.062 67.14L114.656 67.7L113.805 67.91L113.909 68.36L113.611 68.46L113.765 69.05L113.457 70.35L113.763 70.38L113.206 71.16L113.487 71.3199L113.206 71.6L113.56 71.78L112.959 72.12L113.231 74.23L114.161 75.6L113.928 75.99L114.602 76.39L114.434 76.8101L115.45 77.09L115.672 77.38L115.318 77.6801L115.706 78.01L117.29 78.6801L117.575 79.11L123.44 80.58L125.234 80.37L128.297 78.71L129.147 78.74L130.813 77.3199L132.76 76.49L133.13 75.58L133.686 75.5699L134.656 74.4301L134.436 74.2L135.008 73.9301L135.306 72.97L135.41 71.37L134.582 69.64L134.927 68.77L134.183 66.54L134.091 64.6801L133.478 64.4301L133.788 64.41L132.781 63.2L132.847 62.71L132.462 62.24L131.505 61.75L131.908 61.77L132.022 61.4L130.126 61.05L129.815 60.61L128.712 60.37L128.55 60L128.95 59.9399L127.927 59.73L127.861 59.4L126.519 59.02L125.707 58.36L122.653 57.6899L118.867 60.4L117.46 62.01L117.224 63.02L115.414 65.3101L115.494 67.14L114.948 67.8L115.218 68.65L114.89 68.86L114.504 71.12L115.155 71.8199L114.316 73.28L114.841 73.74L114.571 73.78L115.266 73.8L115.272 74.1L114.677 74.3L115.039 74.51L114.575 75.64" stroke="black" stroke-width="2" stroke-linecap="round" stroke-linejoin="round"/>
<path d="M102.493 70.62L103.573 69.35L104.762 68.9399L104.517 68.83L105.056 66.73L104.474 66.14L104.63 65.21L103.216 62.27L101.561 60.59L99.8248 59.4L98.0998 59.28L97.8768 59.4301L98.0858 59.53L96.3427 59.96L92.2548 62.48L88.5717 63.91L87.9048 64.37L86.0348 66.9L85.6328 66.91L85.8607 66.83L85.3248 67.47L85.6367 67.84L85.2448 68.03L85.3658 68.33L84.5457 68.79L85.0667 69.1801L84.4897 70.65L84.6898 71.96L84.0677 72.71L84.7368 74.5699L84.7168 76.9399L85.5488 77.64L85.3618 78.23L86.0478 79.6L87.6837 80.8L87.8467 81.08L87.5547 81.37L87.8248 81.45L92.5008 82L95.0407 81.64L97.7068 80.4399L99.6967 78.76L100.942 77.28L101.139 76.6L102.203 76.24L101.693 75.83L103.325 74.26L103.609 72.5L104.164 71.51L103.845 70.21L104.117 69.39L103.762 68.95L104.282 68.25L103.563 66.17L102.204 64.5601L102.144 63.37L101.812 62.8L98.3498 59.6L96.7648 59.37L94.5168 59.76L92.9778 60.84L92.1927 60.75L91.1198 61.13L90.5197 61.99L87.1667 62.33L87.3528 62.53L86.2307 63.02L85.3607 63.0601L82.4328 65.48L82.8127 66L82.5868 66.4301L79.5558 69.65L79.0938 72.55L79.8228 74L81.4807 74.99L82.2468 76.02" stroke="black" stroke-width="2" stroke-linecap="round" stroke-linejoin="round"/>
<path d="M95.2553 62.3199H92.5773L92.7813 62.64L93.7333 62.49L92.1793 64.63L90.5523 66.0601L84.1133 75.24" stroke="black" stroke-width="2" stroke-linecap="round" stroke-linejoin="round"/>
<path d="M97.7734 63.39H95.1544L96.0244 63.52L95.2494 63.85L95.2624 64.8L92.2814 70.29L87.1094 77.74" stroke="black" stroke-width="2" stroke-linecap="round" stroke-linejoin="round"/>
<path d="M100.495 67.22L94.0273 75.36" stroke="black" stroke-width="2" stroke-linecap="round" stroke-linejoin="round"/>
<path d="M127.029 65.14L124.864 67.67L122.648 71.89" stroke="black" stroke-width="2" stroke-linecap="round" stroke-linejoin="round"/>
<path d="M107.17 65.09L106.818 65.22L106.561 65.9301L106.517 68.1L107.21 72.67L107.821 73.34L107.418 74.6899L107.923 74.83L107.788 75.65L108.099 76.08L107.709 76.89L108.098 77.88L107.803 79.01L108.102 79.6801L107.467 81.66L106.959 81.88L107.329 82.03L106.492 83.03L106.633 83.49L107.006 82.98" stroke="black" stroke-width="2" stroke-linecap="round" stroke-linejoin="round"/>
<path d="M108.128 80.77L108.353 80.52L107.926 80.67L108.398 80.52L108.815 79.08" stroke="black" stroke-width="2" stroke-linecap="round" stroke-linejoin="round"/>
<path d="M108.988 75.62L108.519 73.8L108.905 72.12L108.748 70.66L108.267 70.46L108.439 70.3101L107.718 70.3L107.884 70.63L107.139 73.66L107.035 76.1801L107.305 76.8L107.067 77.37L107.775 79.65L108.125 84.86L108.345 84.97L107.858 85.03L108.385 84.84L108.059 84.74L107.931 85.04" stroke="black" stroke-width="2" stroke-linecap="round" stroke-linejoin="round"/>
<path d="M103.786 90.01L103.683 89.5699L102.797 90.8L104.085 91.79L106.562 92.3101L107.039 92.6899L109.984 92.2" stroke="black" stroke-width="2" stroke-linecap="round" stroke-linejoin="round"/>
<path d="M112.277 91.51L115.215 90.14L116.392 89.97L117.366 89.21L116.743 89.3L117.428 89.37L117.084 89.24L117.631 89.11L117.277 88.89L117.775 88.6899L117.553 88.58L117.354 88.89L117.783 88.8199" stroke="black" stroke-width="2" stroke-linecap="round" stroke-linejoin="round"/>
<path d="M85.4727 121.6L82.6617 122.01L83.6957 121.83L83.3497 121.78L83.6287 121.93L80.5787 125.71L79.7857 127.92L78.3767 129.88L77.2107 132.39L76.3477 133.31L76.4867 133.89L76.9437 133.23" stroke="black" stroke-width="2" stroke-linecap="round" stroke-linejoin="round"/>
<path d="M81.9397 124.47L83.2777 124.04L84.6777 122.95L85.3937 120.34L87.1047 119.04L87.0667 118.7L87.5867 118.27L87.2047 118.09L87.6067 117.2L87.3377 117.11L87.6047 116.9L87.4677 117.12L87.8007 117.23L87.3987 117.38L88.4177 117.2L88.6747 116.4L89.4267 115.78L89.6237 114.45L90.7987 113.64L91.2857 112.27L91.8057 112.08L91.5327 111.89L92.1387 111.65L91.8827 111.11L93.0147 107L92.8277 106.86L93.7367 105.16L93.7237 104.44L94.1387 104.04L93.9017 103.65L93.0637 104.02L93.6397 103.53L93.1357 102.12L92.9117 103.07L92.2587 103.43L92.0617 104L90.7627 104.6L89.0277 106.98L88.6587 108.46L87.7897 109.42L86.9747 113.86L85.7417 118.23L85.3847 118.39L85.5977 118.27L85.4667 119.08L84.4997 119.69L84.5677 120.38L83.2817 121.27L82.2337 123.16L79.5547 126.01L78.3467 128.2L77.3787 128.52L76.6717 130.25L75.6707 131.28L74.2727 136L73.3597 137.73L73.3607 138.48L72.8637 138.68L73.0177 139.12L72.2507 140.96L70.5127 143.28L68.2877 148.18L66.4897 154.91L66.5107 156.44L65.7217 157.35L66.1107 158.21L65.6927 159.61L66.0247 159.31L66.0377 158.43L66.5677 157.63L67.9637 153.43L71.0167 142.7L73.6407 136.89L73.9097 135.59L75.1427 133.22L78.5587 130.93L78.6637 130.5L78.3037 130.65L78.6167 130.6L78.4657 131.04L75.7267 133.76L74.9347 134.07L73.5287 135.71L70.7657 140.33L69.1257 142.05L67.3007 144.77L64.6117 152.36L61.9317 157.76L61.9767 158.53L61.1277 159.69L61.4207 160.19L60.7337 161.59L60.6857 162.44L61.3517 162.88L61.4017 162.57L61.1637 162.59L62.1227 161.92L62.9277 159.85L62.8927 159.15L64.4477 157.45L65.5637 154.72L66.2427 151.57L67.4107 149.79L68.0087 148.08L71.6437 141.84L72.0617 142.06L71.6477 141.97L71.8707 141.99L70.6917 145.37L66.8897 150.02L65.6387 152.59L64.5837 153.76L64.5607 154.82L63.2967 156.66L60.0927 164.25L59.5017 166.04L59.6677 167.08L59.6557 166.44L60.8027 164.42L61.0027 162.46L61.7427 161.47L62.5487 159.08L63.6477 158.17L63.3617 158.1L63.3037 158.64L62.6857 158.98L63.0947 159.02L62.7907 159.06L62.9017 159.55L62.3587 160.05L60.0367 160.58L59.5617 162.04L59.5647 163.43L59.1397 163.15L59.4707 163.25L58.8277 164.52L59.1757 165.5L58.6807 165.86L59.1667 166.12L58.9627 166.59L59.4077 167.03L59.0317 167.17L59.4347 168.05L59.2907 168.71L59.8187 169.84L59.4937 170.34L59.7177 170.97L59.3277 172.3L59.5887 172.48L59.1237 172.51L59.0177 173.32L59.4607 173.93L59.2517 174.23L59.6097 173.72L59.2397 173.96L59.7337 174.52L59.3097 174.73L57.9407 177.38L58.0087 178.02L57.6777 177.6L58.4697 177.29L58.1677 177.04L58.8967 176.36" stroke="black" stroke-width="2" stroke-linecap="round" stroke-linejoin="round"/>
<path d="M73.6562 172.925L74.5176 172.704L75.9453 171.8L79.2189 168.973L80.4126 166.988L81.0099 164.728L79.9278 166.465L79.0789 169.017L78.0659 171.038L77.5892 172.916L76.8288 173.36L74.2039 176.63L73.3912 178.765L73.0252 178.615L73.5623 178.544L73.494 178.881L73.0031 179.191L72.5369 180.157L71.6375 183.515L71.9263 185.199L71.8085 186.13L69.484 191.713L69.5292 193.024L69.2376 193.636L69.7268 194.469L69.538 194.708L70.2559 194.664L70.7105 193.698L71.812 188.265L74.1356 184.038L75.262 178.863L75.5793 178.5L74.818 178.641L74.1507 179.855L73.0004 183.383L72.2285 186.989L71.2139 188.638L70.5226 190.384L70.3684 191.66L68.3382 194.938L67.3234 197.243L67.2632 198.129L67.467 197.801L67.3598 198.297L67.7834 198.138L67.3748 198.031L68.3036 196.835L70.9825 191.793L70.8328 191.11L71.3122 191.208L72.0345 190.215L71.8049 191.146L71.4708 191.429L71.625 194.23L71.3299 195.523L71.3601 195.116L71.6658 195.054L71.3362 195.001L71.4451 195.204L71.2298 195.258L71.5781 195.293L71.1306 195.408L71.2599 196.055L71.5107 195.869L71.1013 195.745L71.2626 196.693L70.6591 200.096L70.7459 200.92L71.3007 198.173L71.6126 194.522L72.2339 191.686L71.8829 192.156L72.163 192.705L71.6871 193.29L71.3716 194.363L70.5528 200.238L70.6183 200.548L70.7628 200.247L70.7637 200.043L70.4375 200.211L70.7495 200.911L70.9728 200.885L70.4898 200.743L70.8186 200.646L70.9126 201.931L70.2284 201.496L67.6106 201.124L65.9924 202.046L66.042 202.454L65.4793 202.586L65.9419 202.329L67.8268 203.393L68.3027 203.774L68.1893 203.96L67.2818 204.217L63.6094 204.261L64.1128 204.155L65.1709 204.669L66.3495 204.589L65.8958 204.563L66.0127 205.023L65.5404 205.883L64.9085 206.459L64.4327 206.503L64.2634 206.043L63.9736 206.06L64.6453 206.468L65.6237 206.521L67.0859 205.564L67.6806 204.501L67.2197 204.731L67.3013 202.967L68.0129 197.774L68.3647 197.172L68.3763 196.826L68.199 196.941L68.4888 196.924L68.83 196.224L68.7068 196.498L69.515 197.26L69.6267 197.845L69.3271 198.598" stroke="black" stroke-width="2" stroke-linecap="round" stroke-linejoin="round"/>
<path d="M130.219 174.38L128.551 175.126L128.682 175.566L131.926 177.65L134.153 181.561L134.309 182.728L134.908 183.761L134.91 185.253L135.771 187.232L135.992 195.246L136.541 195.81L136.844 196.91L137.951 198.622L138.025 199.492L138.624 200.324L138.405 200.238L137.071 201.606L136.045 203.356L136.456 202.944L137.293 203.652L140.476 204.016L139.396 205.307L137.41 206.521H136.912L138.877 206.378L139.669 205.928L141.009 204.245L141.014 204.618L140.673 204.522L141.638 203.949L142.234 202.457L142.447 200.554L141.27 196.212L140.437 195.313L139.779 193.936L139.129 190.245L137.249 185.358L137.172 182.843L136.338 181.303L136.276 180.117L135.746 178.75L134.819 177.134L132.235 174.246L133.742 174.925L135.437 174.494L137.1 172.955L139.354 171.511L140.832 169.646L144.451 167.188L145.708 167.102L146.071 166.576L147.119 166.414L148.54 165.113L149.231 165.17L150.18 164.358L151.573 164.032L148.182 166.146L144.022 167.619L142.736 167.504L141.191 168.087L139.926 168.068L139.336 167.064L138.659 166.892L138.415 166.022L138.119 166.069L140.983 164.826L145.176 163.889L146.552 163.248L146.397 162.799L148.828 160.752L149.72 159.7L150.49 157.73L150.28 157.166L150.62 156.841L150.708 155.588L150.561 152.385L150.141 151.964L149.226 149.554L146.429 146.016L146.582 145.69L145.298 142.917L145.663 141.884L144.653 140.842L144.752 140.268L143.421 137.38L143.29 136.108L142.841 135.869L141.843 133.737L140.014 131.595L139.769 130.724L138.504 129.146L138.375 128.506L136.517 127.1L135.538 123.858L135.075 123.839L135.061 123.466L134.672 123.389L132.895 121.4L131.895 120.98L130.6 119.507L129.611 119.077L129.284 118.283L128.116 117.566L128.045 117.011L125.111 115.366L123.457 113.406H122.628L121.919 111.024L121.16 110.298L121.327 110.173L120.884 109.82L120.733 109.064L119.393 107.687H118.585L117.77 106.855L117.999 106.683L117.612 106.109L117.818 105.382L116.674 104.856L116.988 104.866L116.764 102.752L116.975 100.496L116.754 99.8739L116.967 98.4012L119.021 95.9435L119.735 95.6662L119.384 95.934L120.432 96.5269L122.393 94.6716L124.017 92.6825L123.777 92.5295L125.376 90.5212L125.661 89.5937L125.529 90.3109L126.026 89.9952L125.803 89.9092L126.078 89.651L126.024 89.0868L127.21 87.7862L126.541 87.7479L127.212 87.7384L126.887 87.6523L126.919 87.0881L126.981 87.4037L123.604 91.7166L121.314 95.7235L116.949 101.127L112.559 104.483L113.349 104.302L113.278 103.709L117.979 99.587L122.865 94.0214L122.391 93.8204L119.181 98.5734L117.106 101.031L116.688 102.236L113.534 104.56L114.429 104.177L115.409 102.752L121.231 97.0911L121.524 96.8998L121.503 97.2345L120.446 99.9025L116.732 105.994L112.131 112.459L111.629 113.348L111.772 113.702L112.644 113.53L112.964 112.755L118.96 106.788L124.267 100.199L123.866 100.974L122.114 102.513L120.09 106.214L115.136 112.918L114.164 113.76L115.534 113.367L117.405 112.229L121.712 107.936L123.736 106.147L125.272 105.239L124.775 107.075L122.551 110.259L122.163 111.34L120.155 113.96L119.672 114.333L119.511 114.142L120.575 113.262H121.286L122.095 112.813L126.847 109.284L127.859 108.968L128.635 109.236L128.837 109.475L128.402 110.69" stroke="black" stroke-width="2" stroke-linecap="round" stroke-linejoin="round"/>
<path d="M84.1577 93.87L85.1167 91.36L84.2207 90.74L83.5167 91.0601L81.8757 92.87L79.3047 97.27L87.9527 85.95L87.5617 86.27L88.3837 86.28L89.0267 87.5L88.5937 91.08L88.3977 91.03L88.7387 90.84L89.1167 87.36L88.7747 82.47L87.2837 79.03L84.6087 74.85L84.7437 75.09L84.4327 75.21L85.4787 75.64L86.0957 75.54L86.2087 75.12" stroke="black" stroke-width="2" stroke-linecap="round" stroke-linejoin="round"/>
<path d="M96.0241 66.6L94.6281 66.74L93.2891 66.34L94.5811 65.79L93.9201 65.1899L93.2481 65.4L87.2541 72.12L86.4961 73.86" stroke="black" stroke-width="2" stroke-linecap="round" stroke-linejoin="round"/>
<path d="M94.4626 63.66L94.1597 63.79L94.0786 64.72L92.7487 67.41L90.1247 70.24L86.8477 75.38" stroke="black" stroke-width="2" stroke-linecap="round" stroke-linejoin="round"/>
<path d="M96.7908 61.72L96.4268 62.14L96.6648 62.4301L95.9848 62.5601L91.1598 68.86L89.1328 72.33" stroke="black" stroke-width="2" stroke-linecap="round" stroke-linejoin="round"/>
<path d="M98.9061 63.4301L97.7651 64.8L97.3391 65.97L94.3191 69.7L94.2461 70.92" stroke="black" stroke-width="2" stroke-linecap="round" stroke-linejoin="round"/>
<path d="M101.343 67.6899L94.648 75L92.168 78.77" stroke="black" stroke-width="2" stroke-linecap="round" stroke-linejoin="round"/>
<path d="M115.485 64.1899L110.979 69.63" stroke="black" stroke-width="2" stroke-linecap="round" stroke-linejoin="round"/>
<path d="M98.0156 34.03L99.2386 35.77L104.617 38.33L112.966 45.1801L116.324 49.05L116.85 50.11L116.653 51.65" stroke="black" stroke-width="2" stroke-linecap="round" stroke-linejoin="round"/>
<path d="M107.849 38.48L107.248 36.89L106.406 36.16L104.994 33.1899L104.215 32.25L102.777 31.78L103.105 31.54L105.638 32.4L111.92 37.4L116.196 43.48" stroke="black" stroke-width="2" stroke-linecap="round" stroke-linejoin="round"/>
<path d="M103.627 32.9301L102.555 31.33L105.819 33.3101L110.829 35.5L117.23 39.1899L120.592 41.9301L121.118 42.9L121.066 44.25" stroke="black" stroke-width="2" stroke-linecap="round" stroke-linejoin="round"/>
<path d="M105.884 29.28L105.561 30.12L105.803 30.67L110.386 36.49L120.503 44.34L121.388 45.5" stroke="black" stroke-width="2" stroke-linecap="round" stroke-linejoin="round"/>
<path d="M111.756 34.84L112.691 35.34L113.891 36.6899L114.174 37.9L114.806 38.84L118.237 42.73L123.573 47.78L124.711 49.62L124.813 50.77" stroke="black" stroke-width="2" stroke-linecap="round" stroke-linejoin="round"/>
<path d="M115.221 36.6899L116.003 36.91L116.803 38.42L119.503 41.0699L123.863 47.87L124.99 48.6801L128.83 53.08" stroke="black" stroke-width="2" stroke-linecap="round" stroke-linejoin="round"/>
<path d="M118.056 40.8L122.367 42.02L124.821 43.5699L126.951 46.04L129.661 50.89L130.285 51.41L130.729 51.24L131.002 49.1899L130.184 46.12L127.674 41.45L125.299 39.02L122.764 38.45L119.723 38.4399L110.496 37.26L105.532 36.1L103.028 35.02L100.472 34.61H97.8769L91.5499 35.4301L90.8279 35.58L90.2538 36.46L91.2779 36.49L92.1689 35.8101L96.7389 28.98L96.8209 29.2L92.4688 31.99L89.8499 34.35L84.7959 42.1801L81.3708 48.89L80.8039 51.1899L80.6429 54.0601L80.4648 53.92L81.2609 52.95L81.7559 50.7L82.7699 48.6899L84.3568 43.5L86.8539 38.87L88.8459 36.13L89.9688 35.16L91.9958 34.08L95.4279 33L91.6779 36.3101L87.7349 40.79L85.5159 43.99L83.7169 48.2L83.3589 50.36L82.4289 52.41L82.6949 54.02L82.4889 54.64L82.8329 54.55L82.9438 53.52L86.3389 46.46L89.3918 38.99L92.0159 34.88L93.5329 30.8101L94.3729 30.78L93.9589 30.9399L94.2798 30.99L94.4008 31.66L93.9279 33L90.5468 36.65L82.8438 47.89L80.8138 52.64L80.9258 54.24L81.9258 55.37L81.8618 55.88" stroke="black" stroke-width="2" stroke-linecap="round" stroke-linejoin="round"/>
<path d="M102.882 31.4301L102.68 30.38L101.387 30.22L97.9149 33.46L88.5798 47.6801L87.2249 50.97L87.2148 53.2" stroke="black" stroke-width="2" stroke-linecap="round" stroke-linejoin="round"/>
<path d="M103.026 30.71L103.116 30.1L103.187 30.45L100.579 32.0601L97.7749 35.08L92.9229 41.7L88.6719 49.6" stroke="black" stroke-width="2" stroke-linecap="round" stroke-linejoin="round"/>
<path d="M98.8067 32.85L97.7777 32.75L96.8227 33.85L90.2337 43.6L85.4917 52.45L82.2617 60.61" stroke="black" stroke-width="2" stroke-linecap="round" stroke-linejoin="round"/>
<path d="M100.364 33.15L99.5651 39.91L99.4531 48.86L101.542 54.83" stroke="black" stroke-width="2" stroke-linecap="round" stroke-linejoin="round"/>
<path d="M99.9737 37.13L96.7227 37.97L99.5587 41.5601L102.529 47.0601L106.389 50.91L110.201 52.61" stroke="black" stroke-width="2" stroke-linecap="round" stroke-linejoin="round"/>
<path d="M99.8274 43.9301L98.2754 44.0601L96.6914 43.79L97.6164 43.89L102.894 46.5699L104.715 48.08L108.31 50.03L110.376 50.99L112.754 51.37" stroke="black" stroke-width="2" stroke-linecap="round" stroke-linejoin="round"/>
<path d="M104.506 35.85L102.94 36.16L101.277 37.15L107.592 47.38L109.726 49.26L113.435 50.96L118.767 51.77" stroke="black" stroke-width="2" stroke-linecap="round" stroke-linejoin="round"/>
<path d="M104.916 39.83L103.598 40.45L101.896 41.8101L102.004 43.58L104.163 46.9301L107.305 49.0601L110.71 50.26L117.432 52.15L119.705 52.29" stroke="black" stroke-width="2" stroke-linecap="round" stroke-linejoin="round"/>
<path d="M109.313 39.11L108.883 40.9L109.056 42.1801L110.242 46.05L111.134 47.3199L116.531 51.91L120.457 54.55L123.809 56.33L126.374 56.65" stroke="black" stroke-width="2" stroke-linecap="round" stroke-linejoin="round"/>
<path d="M111.492 45.99L116.01 49.24L127.911 53.59" stroke="black" stroke-width="2" stroke-linecap="round" stroke-linejoin="round"/>
<path d="M117.473 44.1899L117.749 43.6899L118.527 44.03L119.955 46.33L120.88 47.2L127.33 48.58" stroke="black" stroke-width="2" stroke-linecap="round" stroke-linejoin="round"/>
<path d="M83.5204 158.18L83.3425 157.87L82.4245 158.49L82.7425 158.43L81.2574 162.59L81.0074 164.15L78.9805 169.35L79.4505 169.22L79.2265 168.67L80.0015 168.14L79.7815 167.78L80.2955 165.74L81.8675 164L82.9435 162.25L82.8075 162H83.0395L81.7104 163.6L81.3455 165.14L80.0285 166.88L80.5195 166.57L80.4495 166.21L83.9665 160.02L84.7695 157.87L85.0374 156.08L84.9935 155.62L84.7585 155.72L85.0965 155.69L84.8075 155.6L83.9435 159.4L84.3505 163.27L83.7685 165.04" stroke="black" stroke-width="2" stroke-linecap="round" stroke-linejoin="round"/>
<path d="M122.028 104.54L122.023 102.22L122.034 103.04L122.906 103.36L123.888 103.2L125.367 103.72L132.321 104.18L136.505 105.81L137.852 106.04" stroke="black" stroke-width="2" stroke-linecap="round" stroke-linejoin="round"/>
<path d="M126.888 100.55L125.843 100.66L125.192 101.17L124.751 101.82L124.488 103.68L125.683 107.89L127.182 110.89L131.554 114.11L135.342 115.35" stroke="black" stroke-width="2" stroke-linecap="round" stroke-linejoin="round"/>
<path d="M129.283 105.27L128.547 105.47L129.302 106.36L129.428 107.08L132.707 109.34L135.188 110.11L138.095 109.98" stroke="black" stroke-width="2" stroke-linecap="round" stroke-linejoin="round"/>
<path d="M133.051 106.42L132.353 107.55L131.842 107.78L132.001 107.95L131.748 107.84" stroke="black" stroke-width="2" stroke-linecap="round" stroke-linejoin="round"/>
<path d="M126.071 101.33H124.995L124.668 101.65L124.043 103.42L124.21 105.03L128.44 114.28L130.361 117.24L130.299 117.88" stroke="black" stroke-width="2" stroke-linecap="round" stroke-linejoin="round"/>
<path d="M128.136 100.45L127.305 103.01L127.888 106.73L128.412 107.68L129.829 109.57L132.936 111.95L135.581 113.18L137.314 115.62" stroke="black" stroke-width="2" stroke-linecap="round" stroke-linejoin="round"/>
<path d="M129.843 104.02L128.754 105.66L128.82 106.67L130.856 110.18L133.598 113.26L137.228 115.6L139.154 116.03" stroke="black" stroke-width="2" stroke-linecap="round" stroke-linejoin="round"/>
<path d="M131.178 116.53L131.642 118.17L134.32 120.86L138.023 122.07L142.035 122.48L142.78 122.86" stroke="black" stroke-width="2" stroke-linecap="round" stroke-linejoin="round"/>
<path d="M132.777 123.82L131.523 124.22L130.734 125.07L131.48 125.68L136.713 128.25L140.483 128.67L141.074 129.06" stroke="black" stroke-width="2" stroke-linecap="round" stroke-linejoin="round"/>
<path d="M87.2073 94.72L86.0833 95.8199L82.8933 100.62L78.1133 106.75" stroke="black" stroke-width="2" stroke-linecap="round" stroke-linejoin="round"/>
<path d="M89.1054 90L88.6075 90.61L88.2025 93.47L84.0005 103.84L86.4334 101.07L91.2195 92.92L91.4384 92.02L91.2455 91.63L90.6364 91.85L90.4965 92.49L87.7945 96.35L81.3044 104.9L80.3984 106.48L80.8524 106.77L82.0284 106.04" stroke="black" stroke-width="2" stroke-linecap="round" stroke-linejoin="round"/>
<path d="M93.7697 93.5699L92.3887 94.87L80.1507 110.14L78.9487 112.07L78.8887 113.23" stroke="black" stroke-width="2" stroke-linecap="round" stroke-linejoin="round"/>
<path d="M91.4602 100.04L85.5402 108.11L79.1992 115.41" stroke="black" stroke-width="2" stroke-linecap="round" stroke-linejoin="round"/>
<path d="M91.6443 103.87L91.8803 103.81L91.7413 104.18L90.6373 105.78L84.0073 113.33L81.0113 116.25L78.9023 119.05" stroke="black" stroke-width="2" stroke-linecap="round" stroke-linejoin="round"/>
<path d="M93.6114 106.55L92.2424 108.56L85.7964 114.69L81.1654 119.59L79.0874 122.48L78.6914 123.74" stroke="black" stroke-width="2" stroke-linecap="round" stroke-linejoin="round"/>
<path d="M86.6282 117L85.8972 118.45L82.9662 121.72L75.0812 127.46L77.0742 125.75L78.6492 123.82L80.4822 122.92L81.1222 122.82L80.8982 123.29L78.7382 125.88L74.4082 128.71L74.4822 129.18L75.5932 128.67L79.4602 131.66L79.9392 132.17L79.7512 133.35" stroke="black" stroke-width="2" stroke-linecap="round" stroke-linejoin="round"/>
<path d="M85.8678 91.0699L86.0228 91.22L85.6388 91.1801L84.4808 93.79L80.5658 96.86L78.7168 99.8L78.1528 101.69L77.6468 106.48L78.1228 111.35L77.7008 115.83L77.8688 116.98L77.4308 117.33L77.6068 119.94L78.1448 120.79L78.0678 121.23L77.5378 121.66L77.4208 122.47L76.5208 123.81L76.6118 125.04L75.6328 126.35L74.9108 128.28L72.4028 130.5L72.0378 131.17L72.2878 131.16L72.0028 131.13L72.3038 131.17L71.8828 131.16L72.4728 131.15L72.0728 131.08L74.1418 133.93L73.5928 134.57L76.5158 135.42L77.7128 135.39L82.4278 133.13" stroke="black" stroke-width="2" stroke-linecap="round" stroke-linejoin="round"/>
<path d="M126.029 97.5L126.579 101.32L129.513 105.43L132.661 107.2L134.874 107.77L135.507 108.82L135.624 110.63L134.976 114.95L135.231 117.74L137.211 120.93L136.923 121.76L137.496 121.96L137.002 122.4L137.359 123.21L137.913 123.61L138.309 125.16L140.246 126.66V127.28L140.986 128.24L140.605 128.55L141.015 128.88L140.683 128.93L140.547 129.57L141.018 129.53L140.959 129.21H140.563L140.998 129.36H140.626L141.072 128.96L140.567 128.35L140.6 126.28L140.148 125.02L140.921 124.27L141.036 123.05" stroke="black" stroke-width="2" stroke-linecap="round" stroke-linejoin="round"/>
<path d="M82.8396 49.91L82.2666 50.3L80.5996 52.96L78.0266 58.05L77.3906 60.26L77.9086 60.5601V59.96L79.2716 57.08L80.2486 56.09L80.4446 56.25L79.9846 57.77L79.0876 59.99L78.5776 60.22L78.9006 59.78L80.9896 58.78L81.1186 58.21L82.0266 58.09L81.3376 58.3101L81.6906 60.49L82.6666 60.9301L83.5586 60.77L83.2216 60.61L83.8466 60L83.3306 60.03L83.4706 59.42L84.8066 58.16" stroke="black" stroke-width="2" stroke-linecap="round" stroke-linejoin="round"/>
<path d="M93.2705 43.48L93.1395 43.15L95.9845 41.16L97.2775 39.85L104.223 35.76L108.176 32.54L96.5175 40.72L92.0375 44.83L91.8445 45.25L92.1115 45.4301L98.0855 41.08L104.507 37.08L105.414 36.15L105.568 35.3101L105.059 35.11L102.926 35.54L92.7505 41.0699L91.9405 41.27L92.4485 40.6801L92.3835 38.91L94.5605 34.61L96.7365 32.3L98.1715 30.0601L96.7285 31.3101L89.9165 35.5L88.6875 35.97L94.1915 33.4301L96.8915 31.47L95.5855 32.23L98.3065 33.4L98.7095 34.26" stroke="black" stroke-width="2" stroke-linecap="round" stroke-linejoin="round"/>
</svg>
