<svg width="392" height="622" viewBox="0 0 392 622" fill="none" xmlns="http://www.w3.org/2000/svg">
<path d="M164.416 35.384L164.374 35.386L159.266 39.114L153.627 44.572" stroke="black" stroke-width="8.5" stroke-linecap="round" stroke-linejoin="round"/>
<path d="M137.061 65.366L136.568 65.892L126.313 81.647L126.267 86.4089L124.183 88.921L123.463 93.9219L119.489 102.147L120.059 108.548L112.296 135.824L113.781 141.801L112.211 146.525L111.998 155.527" stroke="black" stroke-width="8.5" stroke-linecap="round" stroke-linejoin="round"/>
<path d="M115.045 190.248L115.189 194.716" stroke="black" stroke-width="8.5" stroke-linecap="round" stroke-linejoin="round"/>
<path d="M126.777 219.352L126.937 219.582L129.222 225.112L136.501 233.621" stroke="black" stroke-width="8.5" stroke-linecap="round" stroke-linejoin="round"/>
<path d="M253.35 228.937L255.992 226.826L259.923 221.184L260.133 220.392" stroke="black" stroke-width="8.5" stroke-linecap="round" stroke-linejoin="round"/>
<path d="M278.925 141.009L278.369 136.936L278.916 124.819L274.651 104.256L271.931 100.699L274.661 92.6879L270.957 87.7159L271.236 83.928L268.935 82.949L269.271 79.8879L265.485 76.312L255.999 52.9299L251.974 47.5159L235.347 39.9399L229.351 34.9059L219.861 34.6349L198.584 27.34L193.439 28.626L184.597 27.106L165.19 29.697L158.259 32.2579L151.789 36.6019L146.027 46.0339L141.836 46.1689L132.508 61.433L129.894 62.861L130.834 63.02L129.516 64.5419L130.798 72.9579L127.823 76.941L127.748 80.334L128.908 80.6879" stroke="black" stroke-width="8.5" stroke-linecap="round" stroke-linejoin="round"/>
<path d="M153.332 44.502L159.551 47.611" stroke="black" stroke-width="6.25" stroke-linecap="round" stroke-linejoin="round"/>
<path d="M144.838 16.1279L145.56 21.897L151.876 44.196L153.168 45.52L152.779 46.7859L155.546 48.14L156.393 47.0389" stroke="black" stroke-width="6.25" stroke-linecap="round" stroke-linejoin="round"/>
<path d="M162.82 20.4981L163.899 21.2891L160.072 46.4741L161.752 47.6371L170.7 27.1721L173.041 12.6521L171.939 10.2841L171.227 10.8721L172.25 12.3571L170.46 14.9361L169.226 33.0721L171.698 46.5751L175.443 40.2681L182.538 13.0701L175.212 30.2621L174.325 35.2911L171.279 40.3961L171.305 45.5621L173.064 46.7731L172.965 44.4841L181.886 23.3811L184.403 12.3341L185.431 13.1311L178.07 37.7301L178.841 49.55L187.058 31.1551L190.44 15.5941L188.918 17.675L189.403 21.9811L186.255 29.5521L183.009 47.2831L183.847 47.6191L185.023 46.188L197.643 12.438L197.038 16.8711L193.826 21.1581L191.52 28.6111L190.619 43.1031L197.127 33.0131L204.876 17.4361L205.711 13.8881L207.293 13.1271L205.645 14.5341L205.597 15.6801L206.804 16.5031L205.446 19.4871L203.799 33.3961L201.485 38.8921L201.736 42.8021L200.676 44.4171L200.761 45.8631L201.668 46.2071L209.529 31.1091L217.221 5.21307L216.924 3.25806L217.117 5.01709L213.831 9.01605L210.358 17.576L204.496 37.05L204.516 38.3681L206.194 37.4821L212.341 30.2721L214.25 25.3231" stroke="black" stroke-width="6.25" stroke-linecap="round" stroke-linejoin="round"/>
<path d="M215.553 16.181L213.601 17.622L210.563 29.968L204.539 41.674L205.259 50.028L208.76 46.227" stroke="black" stroke-width="6.25" stroke-linecap="round" stroke-linejoin="round"/>
<path d="M223.763 17.3521L215.194 35.1391L214.651 41.1741L212.164 48.7281L213.811 49.0901L212.981 48.6051L214.871 47.2851L215.788 44.0491L223.45 34.8931L226.292 29.1241L234.67 17.2931L225.83 32.4431L223.691 38.4981L219.467 43.7401L218.746 47.2061L219.475 48.5651L226.397 36.6331L240.934 17.8911L243.839 11.6001L234.839 28.0831L226.225 40.4451L225.311 47.3581L226.867 46.7241L237.6 32.3441L240.695 29.6701L248.178 16.7261L233.481 39.8391L232.025 43.8341L249.522 24.5931L251.035 21.1041L254.07 19.6591L241.155 38.8051L239.319 43.3041L236.347 46.5951L237.203 47.5091L255.953 27.3191L258.826 25.3101L260.021 22.4011L261.264 21.9211L260.755 23.1481L245.287 40.5071L243.421 44.3891L244.119 46.451L243.246 46.8531L245.563 43.4611L265.146 26.261L267.021 21.5791L270.156 18.2021L271.011 18.6851L252.886 39.9901L243.524 54.0261L244.442 54.3941L258.011 42.3961L270.191 30.7431L271.717 27.9691L274.4 26.4851L275.976 26.3051L276.247 27.3151L264.976 41.1481L258.577 53.4461L256.816 53.5521L266.387 45.2921L277.705 32.8241L282.542 31.0701L267.333 44.0331L250.796 62.1421L249.263 65.7361L247.977 66.5881L249.378 66.5521L250.693 63.636L259.217 58.0731L270.737 47.9901L273.72 44.1961L277.093 42.1281L255.981 66.2121L255.01 68.7661L272.583 54.8021L276.709 52.8431L277.329 51.8821L276.151 51.7831L274.041 55.3111L265.618 63.399L263.867 65.8441L264.774 66.3611L271.834 58.4581L281.323 51.1721L272.725 59.3211L265.354 68.7331L266.408 68.6891L267.828 66.024L272.087 63.2481L272.564 61.6411L279.487 58.6341L273.316 61.6311L272.508 64.0191L268.977 68.0521L268.63 70.1271L270.234 68.1471L273.029 67.8051L278.269 63.1921L275.233 63.7211L276.85 64.6111L276.208 65.8651L267.135 75.3911L273.599 72.076L278.219 68.2151L280.511 67.8761L276.329 72.8191L275.461 77.5471L267.791 83.5131L268.128 85.0741L273.315 79.9721L277.031 78.0471L277.748 76.1641L283.297 73.2731L285.777 70.2661L277.694 80.3301L277.905 81.8191L273.218 85.2571L277.65 81.8121L282.333 80.951L287.65 77.8241L290.32 74.7671L282.676 84.3951L275.94 90.5461L276.752 91.8661L274.632 92.1681L275.386 92.9001L274.819 92.1221L279.918 90.9291L283.596 88.8211L283.671 86.9951L285.58 86.9401L276.839 100.054L272.495 104.822L274.008 104.532L273.199 103.918L273.736 103.268L278.569 102.766L277.929 101.97L282.588 99.8461L274.393 107.858L272.227 111.511L279.107 111.982L285.455 110.667L279.137 115.396L274.98 120.132L274.15 119.999L280.465 115.874L281.743 112.686L285.774 110.045L284.805 109.874L285.469 110.548L279.349 120.4L270.079 128.107L280.569 121.71L284.14 118.558L282.297 118.655L283.463 119.323L283.3 120.336L269.883 133.496L278.822 123.738L280.937 121.025L279.905 121.458L279.115 124.486L267.481 134.969L268.541 135.945L269.644 135.444L269.602 134.133L271.467 133.762L270.269 133.377L273.005 132.999L271.852 132.503L272.102 131.651L270.919 135.709L271.948 135.005L270.84 133.478L273.717 133.723L265.206 146.787L275.754 138.161L277.855 138.097L277.377 139.102L272.568 139.922L272.096 141.898L266.643 147.069L266.426 149.494L264.614 150.022L274.7 140.271L271.94 144.983L266.494 151.159L262.92 158.997L261.838 159.669L264.258 157.192L266.152 156.792L273.341 148.94L272.208 151.19L269.679 152.22L270.428 152.66L267.773 154.882L267.801 156.571L265.318 161.23L270.856 157.418L269.7 158.082L267.154 164.135L265.743 165.102L269.636 164.15L268.301 164.048L268.459 162.115L273.332 157.502L262.986 172.206L260.794 175.023L260.447 174.343L269.397 164.37L269.12 163.646L272.125 162.555L270.124 163.475L268.162 170.064L259.51 185.646L260.594 185.493L261.301 182.926L268.707 178.786L269.986 177.031L269.43 176.135L271.556 174.348L269.174 180.454L264.311 187.065L264.207 190.56L265.047 188.515L267.499 187.557L268.888 186.187" stroke="black" stroke-width="6.25" stroke-linecap="round" stroke-linejoin="round"/>
<path d="M270.881 189.8L268.845 191.523L267.541 195.181L265.652 197.222L266.573 197.968L269.555 194.515" stroke="black" stroke-width="6.25" stroke-linecap="round" stroke-linejoin="round"/>
<path d="M269.363 195.774L264.17 202.09L260.739 208.829L259.464 207.628L262.443 206.258L261.88 205.645L264.625 202.584L266.086 202.491L259.07 202.979L260.84 206.443L264.488 205.765L266.518 202.724L265.448 202.447L257.507 207.313L253.644 205.976L256.82 207.83L262.408 206.807L261.88 206.292L262.981 206.018L261.646 205.7L262.996 206.332L253.245 209.887L251.733 211.421L251.5 213.626L249.699 214.67L259.424 211.631L263.55 209.275L261.996 209.175L262.463 209.657L260.199 210.509" stroke="black" stroke-width="6.25" stroke-linecap="round" stroke-linejoin="round"/>
<path d="M127.894 208.86L128.918 208.872L127.629 208.999L125.157 206.338L124.01 205.857" stroke="black" stroke-width="6.25" stroke-linecap="round" stroke-linejoin="round"/>
<path d="M123.17 203.795L128.626 203.951L133.16 201.751L133.962 200.17L128.038 197.434L117.689 198.005L126.469 195.221L131.791 191.117L121.062 191.016L118.068 192.191" stroke="black" stroke-width="6.25" stroke-linecap="round" stroke-linejoin="round"/>
<path d="M119.302 193.057L124.577 193.278L128.683 192.216L126.361 191.113L118.27 190.35" stroke="black" stroke-width="6.25" stroke-linecap="round" stroke-linejoin="round"/>
<path d="M116.626 187.164L122.938 184.08L115.986 181.783" stroke="black" stroke-width="6.25" stroke-linecap="round" stroke-linejoin="round"/>
<path d="M116.514 176.069L121.062 175.458L121.746 174.492L114.846 173.283" stroke="black" stroke-width="6.25" stroke-linecap="round" stroke-linejoin="round"/>
<path d="M113.601 169.132L117.325 167.766L119.883 165.595L116.95 161.67L117.361 161.124L110.831 160.372L110.256 158.885L119.269 157.888L121.086 153.585L119.803 151.854L117.18 151.966L122.672 151.203L125.772 149.482L123.713 149.552L120.814 147.398L113.418 147.084L113.818 145.813L111.036 144.245L113.233 144.119L112.933 145.247" stroke="black" stroke-width="6.25" stroke-linecap="round" stroke-linejoin="round"/>
<path d="M107.881 110.447L108.075 111.858L107.495 111.626L108.849 111.54L110.095 113.88L117.631 114.376L120.703 113.217L120.81 110.118L121.737 109.137L121.444 107.696L114.356 101.973L109.018 101.417L110.563 101.525L108.86 103.026L111.99 107.37L116.065 107.766L116.394 103.589L106.232 89.0071L115.523 94.0021L121.809 95.0001L126.356 94.412L126.266 90.3141L120.031 81.8491L112.311 76.8481L111.838 77.5271L113.125 77.6551L112.852 78.6021L115.41 82.576L120.69 87.4711L125.212 89.0061L123.484 86.9341L123.642 83.5301L121.736 79.5181L121.53 75.8651L115.445 68.0401L119.475 75.9431L127.856 82.6831L127.954 79.7121L122.777 69.136L121.021 62.1351L120.741 63.7421L122.44 65.1811L124.659 70.1191L129.394 76.1541L131.963 77.9951L131.049 78.6021L131.877 77.9351L130.166 77.1001L130.88 75.3921L129.823 67.6011L123.059 58.7171L119.132 51.1811L121.173 52.8361L127.107 62.7901L130.866 63.8721L129.111 63.4291L129.701 62.2091L128.702 56.8121L121.19 41.8061L120.328 35.287L121.311 36.9651L120.287 38.4681L125.393 43.3421L127.807 50.1311L133.178 58.2061L132.931 56.4241L132.028 56.0691L133.876 52.1021L132.714 41.8191L128.729 32.6641L129.239 32.2131L129.586 33.1681L128.508 33.8311L133.008 41.7581L138.025 46.912L138.081 49.938L139.897 50.3621L139.293 47.5871L140.477 43.3541L138.538 34.1111L136.555 28.925L134.018 25.662L134.356 23.2251L133.244 22.7771L134.151 28.1661L137.815 34.9421L138.833 39.8441L142.783 45.4571L141.851 44.4921L142.582 33.274L138.251 24.7491L137.725 19.2241L136.419 17.0481L136.252 18.3891L138.206 21.2121L138.808 26.0201L142.687 34.011L147.356 40.2291L148.556 45.4061L151.194 36.761L150.769 32.326L152.003 26.1901L149.663 23.3061L149.124 18.1481L147.2 17.9481L149.632 21.899L148.52 25.6981L149.013 27.4731L160.004 45.1451L160.602 32.537L159.912 24.8361L158.742 21.8691L159.484 22.4481L159.262 25.2091L161.46 27.7081L161.05 29.9731L163.462 31.576L169.663 39.1761" stroke="black" stroke-width="6.25" stroke-linecap="round" stroke-linejoin="round"/>
<path d="M130.045 176.242L126.443 179.54L127.295 178.892L126.175 180.464L126.432 181.893L124.418 185.264L124.241 189.51L120.273 197.045L119.031 198.678" stroke="black" stroke-width="6.25" stroke-linecap="round" stroke-linejoin="round"/>
<path d="M134.897 185.503L133.255 188.62L126.076 195.847L121.185 202.363L121.158 202.515" stroke="black" stroke-width="6.25" stroke-linecap="round" stroke-linejoin="round"/>
<path d="M131.074 196.775L126.213 202.559" stroke="black" stroke-width="6.25" stroke-linecap="round" stroke-linejoin="round"/>
<path d="M133.655 198.041L131.76 202.54L128.777 206.072" stroke="black" stroke-width="6.25" stroke-linecap="round" stroke-linejoin="round"/>
<path d="M126.089 188.713L124.201 184.107L123.699 183.323L123.258 184.056L124.992 205.578L127.036 210.216L126.643 215.078L127.475 217.631" stroke="black" stroke-width="6.25" stroke-linecap="round" stroke-linejoin="round"/>
<path d="M124.914 190.39L125.571 185.717L125.038 187.563L127.091 206.398" stroke="black" stroke-width="6.25" stroke-linecap="round" stroke-linejoin="round"/>
<path d="M122.97 169.247L120.807 169.161L120.492 170.427L120.297 183.478L121.52 193.985L123.82 201.705L125.586 203.935L124.61 201.345L126.684 193.901L126.659 188.703L123.545 172.382L121.071 167.013L118.158 166.178L116.832 167.125L115.52 172.404L116.368 174.764L116.731 190.613L119.209 202.583" stroke="black" stroke-width="6.25" stroke-linecap="round" stroke-linejoin="round"/>
<path d="M132.712 205.09L129.988 210.217L131.466 214.757L130.604 220.466L133.602 233.194L136.958 240.217L138.738 234.306L138.087 226.58L139.934 212.097L139.238 209.292L136.419 206.042L136.873 207.917L135.293 210.153L135.986 211.59L134.53 215.528L137.328 236.78" stroke="black" stroke-width="6.25" stroke-linecap="round" stroke-linejoin="round"/>
<path d="M140.202 233.998L140.895 220.943L138.299 205.578L137.386 204.895L136.301 205.183L140.457 229.02L140.496 232.073" stroke="black" stroke-width="6.25" stroke-linecap="round" stroke-linejoin="round"/>
<path d="M138.69 233.597L137.934 229.703L133.767 220.141L133.497 213.755L131.105 210.72L131.575 209.978L130.404 210.4L128.484 221.056L129.633 234.119" stroke="black" stroke-width="6.25" stroke-linecap="round" stroke-linejoin="round"/>
<path d="M129.522 234.777L125.089 221.523L124.574 218.445" stroke="black" stroke-width="6.25" stroke-linecap="round" stroke-linejoin="round"/>
<path d="M251.86 196.9L250.941 200.379L251.364 215.787L253.11 228.912L252.494 234.542L251.31 235.259L253.463 233.92" stroke="black" stroke-width="6.25" stroke-linecap="round" stroke-linejoin="round"/>
<path d="M249.323 194.706L251.845 196.669L249.047 201.639L248.652 206.294L252.063 218.981L250.592 223.4L251.06 229.492L248.959 230.285L250.03 225.957L250.917 207.442L249.771 213.495L250.309 220.905L251.73 225.833L250.455 232.064L252.753 233.773L252.471 231.986L254.764 225.434L258.371 185.926L257.731 212.986L259.211 216.489" stroke="black" stroke-width="6.25" stroke-linecap="round" stroke-linejoin="round"/>
<path d="M264.625 196.098L265.59 197.166L264.127 200.311L264.198 202.534L265.832 203.739" stroke="black" stroke-width="6.25" stroke-linecap="round" stroke-linejoin="round"/>
<path d="M271.392 188.863L271.187 181.457L270.488 181.887L271.205 186.208L270.271 190.122" stroke="black" stroke-width="6.25" stroke-linecap="round" stroke-linejoin="round"/>
<path d="M255.812 307.801L256.091 307.654L256.322 309.93L257.107 312.198L259.425 315.895L261.009 317.173L261.627 319.09L262.501 319.978L264.918 324.395L265.936 324.88L267.398 327.028L268.418 329.283L268.325 330.352L269.11 330.883L269.654 331.921L271.351 333.466L272.092 333.762L272.568 334.571L273.666 335.057L274.729 336.543L276.437 338.145L278.774 339.639L279.077 340.319L280.595 341.428L281.635 343.395L282.66 344.298L282.482 344.711L283.047 345.161L283.217 345.782L284.535 346.7L286.762 349.472L293.014 353.534L294.365 354.949L298.376 357.965L304.293 360.635L308.534 364.471L311.094 366.347L314.783 370.759L318.278 373.531L318.661 374.322L320.437 375.735L323.935 379.913L326.609 381.953L329.119 384.667L329.398 385.847L330.661 386.707L331.009 387.677L331.994 388.757L333.016 391.217L333.111 392.587L334.52 394.217L335.878 397.897L338.395 402.857L339.357 403.677L339.666 404.997L341.436 407.257L342.491 409.837L343.829 411.517L343.617 413.037L344.83 414.637L345.584 416.267L347.575 421.717L347.662 422.967L349.108 425.587L351.35 436.757L353.649 442.967L353.56 444.467L354.644 446.857L355.501 450.607L355.569 452.507L356.109 453.487L356.227 454.857L357.987 460.097L357.827 460.947L358.295 462.587L358.228 463.447L360.92 473.517L361.083 475.857L362.191 477.557L362.363 480.037L362.799 481.397L362.642 481.897L363.872 483.347L364.099 484.087L363.95 485.757L365.241 489.177L364.912 489.957L365.168 490.697L365.87 491.337L367.332 498.737L368.486 502.627L368.413 503.977L369.259 505.877L371.12 516.537L371.394 519.967L373.884 530.407L373.92 532.057L374.923 533.577L375.021 536.117L375.814 540.557L376.867 545.497L377.598 547.347L377.113 548.717L377.836 549.057L377.813 551.807L379.506 558.107L380.062 561.487L379.849 562.267L380.225 562.877L380.041 563.767L381.29 566.837L381.218 568.057L381.657 568.987L382.703 574.117L382.878 577.087L383.337 577.667L383.569 579.947L384.213 581.607L384.057 583.367L384.447 584.217L384.2 585.227L384.62 585.817L384.557 587.147L385.255 589.287L384.885 589.527L385.57 592.077L386.135 597.237L386.726 598.717L386.401 599.397L386.427 600.827L387.191 602.587L387.307 604.487L386.805 605.267L387.562 606.097L387.408 608.077L387.679 610.077L387.315 610.137L387.493 609.827L387.823 609.997H387.594L387.834 610.977L388.189 611.207L387.439 611.047L387.971 610.947L388.01 613.127L388.207 613.037L387.817 612.677L388.432 612.597L387.889 612.847L388.539 612.787L388.058 612.957L388.233 613.727L388.507 614.647L389.005 614.797L388.219 614.617L388.845 614.717L388.531 614.897L388.952 615.797L388.458 615.557L388.71 615.037L388.377 613.737" stroke="black" stroke-width="6" stroke-linecap="round" stroke-linejoin="round"/>
<path d="M141.838 298.337L142.19 298.424L142.01 298.753L140.526 298.692L138.061 300.093L138.1 300.87L137.768 301.209L137.211 303.433L137.604 307.077L138.83 308.747L139.747 309.316L142.247 312.249L146.486 314.804L155.185 318.064L157.966 319.57L164.838 321.444L171.789 322.328L181.331 324.658L185.021 324.764L186.841 325.213L203.479 325.096L211.166 323.579L216.831 323.536L228.078 322.007L230.291 321.958L235.697 320.952L237.499 320.282L237.437 320.025L242.108 318.531L244.682 317.392L244.938 316.945L249.632 315.159L251.497 313.568L252.389 313.251L254.05 310.951L255.792 309.857L254.994 309.837L254.933 309.585L255.527 308.692L255.589 307.669L255.642 307.878L255.19 307.843L255.984 307.768L255.213 307.869L254.459 307.149L254.793 307.065L254.002 307.262L254.752 307.338L253.382 306.887L253.018 306.552L253.518 306.767L253.746 306.572L252.973 306.69L254.148 306.738L253.156 306.677L253.729 306.721L253.16 306.647L253.657 306.732L253.091 306.523L253.055 306.151L251.498 305.703L251.329 305.883L250.485 305.218L246.861 304.506L245.118 304.58L245.315 304.905L236.959 306.454L234.058 307.535L228.927 307.507L227.539 307.865L227.179 308.105L227.477 308.213L227.064 308.32L213.003 310.742L206.238 311.314L203.383 311.053L197.42 311.38L193.418 312.022L191.605 311.586L187.575 311.83L184.414 310.689L177.699 309.798L173.27 307.992L172.786 307.609L173.208 307.475L172.541 306.886L172.578 306.263L171.024 305.007L171.72 305.115L170.854 304.624L171.238 304.212L170.753 304.361L171.064 304.341L171.014 304.062L170.455 303.991L170.441 303.557L169.982 303.814L170.679 303.805L170.381 303.997L170.518 303.625L170.865 303.634L171.228 303.911L171.121 304.508" stroke="black" stroke-width="6" stroke-linecap="round" stroke-linejoin="round"/>
<path d="M231.37 265.721L231.238 265.771L231.931 266.508L231.517 267.2L231.777 267.899L231.518 269.392L231.887 270.18L231.917 271.87L232.253 272.195L232.047 273.037L232.464 273.491L231.867 273.973L232.427 274.735L232.458 275.525L232.07 276.063L232.978 276.421L232.876 276.897L233.202 277.154L232.861 277.657L233.397 280.947L233.799 281.389L234.126 283.298L234.68 283.505L234.447 283.771L234.59 284.912L234.051 285.143L233.954 285.53L235.075 286.144L234.728 285.771L234.642 286.377L234.916 288.539L234.58 289.095L234.876 289.276L234.582 289.827L234.777 290.508L234.321 290.6L234.852 291.027" stroke="black" stroke-width="6" stroke-linecap="round" stroke-linejoin="round"/>
<path d="M295.75 488.567L307.75 615.567" stroke="black" stroke-width="6" stroke-linecap="round" stroke-linejoin="round"/>
<path d="M154.464 339.761L154.009 339.285L153.469 339.342L154.272 339.313L157.322 341.133L161.037 342.139L166.133 342.976L174.381 345.237L185.773 346.346L188.6 347.15L191.742 347.189L199.71 348.375L207.286 348.34L213.327 346.783L215.678 346.808L217.518 346.397L223.294 344.246L229.673 342.7L232.985 341.028L236.522 340.048L241.867 337.977L241.995 337.436L243.973 336.379L246.466 334.346L250.659 332.647L251.789 331.688L256.189 329.767L259.343 327.486L259.278 326.873L259.65 326.943L259.221 326.975L259.356 326.695L260.334 326.098L259.693 326.221L259.743 325.889L260.442 325.645L260.871 325.094L260.848 324.75L261.231 324.519L260.93 324.039L261.478 324.034L261.157 323.845L261.595 322.269L261.445 321.361L261.127 321.182L261.414 320.374L260.772 320.053L260.934 319.66L260.488 319.287L260.483 319.04L260.971 319.054L260.51 318.642L260.376 316.88L259.763 316.573L259.937 316.253L259.523 315.765L259.264 315.879L259.743 315.322L259.305 315.334L258.863 314.14L257.603 312.99L257.387 312.317L253.622 312.008L253.818 311.698L253.952 312.241" stroke="black" stroke-width="6" stroke-linecap="round" stroke-linejoin="round"/>
<path d="M97.8406 485.597L78.0156 618.977" stroke="black" stroke-width="6" stroke-linecap="round" stroke-linejoin="round"/>
<path d="M207.771 135.684L208.219 140.426L209.548 145.001L211.711 149.246L215.755 154.134L219.519 157.054L223.764 159.217L228.339 160.546L233.081 160.994L237.824 160.546L242.399 159.217L246.643 157.054L250.407 154.134L254.451 149.246L256.615 145.001L257.944 140.426L258.392 135.684L257.944 130.941L256.615 126.366L254.451 122.122L251.532 118.358L247.958 115.207L243.858 112.782L237.824 110.822L233.081 110.374L228.339 110.822L222.305 112.782L218.204 115.207L214.631 118.358L211.711 122.122L209.548 126.366L208.219 130.941L207.771 135.684Z" stroke="black" stroke-width="6.5" stroke-linecap="round" stroke-linejoin="round"/>
<path d="M194.445 137.018L194.833 136.227L195.18 136.23L197.083 134.491L202.041 131.774L204.318 131.451L204.2 131.248L205.05 131.207L206.631 130.445L208.57 130.5L208.343 130.583L208.757 130.866L209.535 130.999L208.773 131.043L209.241 131.217L208.592 131.255L208.755 131.493L208.899 131.202L208.572 131.347L208.907 131.492L208.477 131.361L208.656 131.588H208.191L206.85 132.84L207.153 132.61L206.962 132.462L206.845 132.828L206.855 132.445L206.805 132.714L207.146 132.478L206.652 132.46L206.997 132.515L207.216 131.947" stroke="black" stroke-width="6" stroke-linecap="round" stroke-linejoin="round"/>
<path d="M261.696 135.045L260.994 134.861L261.454 134.287L261.329 134.959L261.014 135.086L261.822 135.415L265.293 134.838L276.649 130.344" stroke="black" stroke-width="6" stroke-linecap="round" stroke-linejoin="round"/>
<path d="M197.75 118.567V183.567" stroke="black" stroke-width="4" stroke-linecap="round" stroke-linejoin="round"/>
<path d="M186.511 188.791L179.281 190.084L176.526 191.542L176.389 191.925L173.699 192.276L172.598 193.206L170.595 193.928L170.926 194.125L170.676 194.386L169.914 194.583L169.616 194.795L169.752 195.124L168.981 195.538L168.74 196.257L168.256 196.511L168.389 196.819L168.116 196.877L167.675 198.5L166.872 199.154L166.81 199.669L167.223 199.874L166.36 200.26L166.333 200.804L165.374 202.11L165.139 203.346L164.29 204.056L164.463 204.465L163.993 205.228L164.534 205.463L163.952 205.684L164.196 206.7L163.896 208.391L163.443 208.704L163.697 208.973L163.004 209.931L163.396 210.032L163.077 210.309L163.456 210.841L162.992 211.377L162.936 212.041L163.288 212.373L162.862 214.294L163.155 215.74L162.886 217.389L163.244 217.335L162.642 217.119L163.026 217.352L162.727 218.109L163.374 217.921L162.688 217.829L163.344 217.923L162.937 217.752L163.334 218.207L162.637 218.187L163.55 217.891L163.065 217.882L163.095 218.98L162.833 218.869L163.445 218.487L163.187 218.803L163.418 219.053L163.152 219.052L163.67 219.077L163.258 218.696L163.571 218.451L163.686 217.081L163.424 215.67L163.714 215.472L163.781 215.905" stroke="black" stroke-width="6" stroke-linecap="round" stroke-linejoin="round"/>
<path d="M202.194 190.419L202.024 189.571L202 190.111L204.064 190.357L208.027 190.077L210.042 190.541L211.455 190.47L212.128 191.203L213.297 191.76L213.046 192.097L213.918 192.939L214.974 193.162L214.828 193.32L215.222 193.483L214.982 193.728L216.739 194.357L218.181 195.515L218.087 195.929L218.841 196.332L218.527 196.992L219.804 198.013L219.354 198.273L220.02 198.547L220.373 200.639L221.268 202.573L221.18 204.073L221.657 204.367L221.271 204.983L221.573 205.268L221.671 206.955L222.131 207.455L221.814 208.133L222.168 208.513L221.753 208.338L221.667 208.846L221.943 209.042L221.84 210.261L222.153 210.409L221.629 210.746L221.912 210.877L221.948 211.88L221.463 212.218L222.083 212.519L221.618 213.59L221.986 213.696L221.634 215.426L221.897 215.465L221.617 215.75L221.978 215.783L221.811 215.645L221.675 216.008L222.278 216.287L221.442 216.325L221.863 216.611L221.742 217.291L222.011 217.186L221.655 217.265L221.971 217.785L221.501 217.707L222.388 218.078L221.927 218.295L222.328 218.51L221.948 219.147L222.38 219.212L222.285 219.474L221.973 219.341L222.36 219.434L222.169 219.229L222.532 218.974L222.087 218.792L221.476 219.213" stroke="black" stroke-width="6" stroke-linecap="round" stroke-linejoin="round"/>
<path d="M188.359 190.131L188.173 190.989L188.456 191.084L188.48 191.96L187.904 193.844L187.913 195.679L187.367 196.668L187.595 199.295L187.353 200.089L187.688 200.783L187.32 202.237L187.838 203.278L187.215 205.424L187.467 209.518L187.818 210.145L187.294 210.819L187.869 212.505L187.984 214.384L188.314 214.409L188.002 214.202L187.827 214.496L188.245 214.355L187.971 214.753L188.104 215.862L187.779 216.077L188.677 216.423L187.948 216.36L188.194 216.47L188.215 217.386L188.646 217.595L188.238 217.659L188.587 218.394L188.259 218.596L188.536 218.614L188.542 217.59L188.154 217.646" stroke="black" stroke-width="6" stroke-linecap="round" stroke-linejoin="round"/>
<path d="M193.693 192.005L191.189 191.782L191.689 191.616L192.263 192.264L191.75 193.676L192.584 199.174L192.288 201.366L192.574 204.31L193.102 206.403L193.611 211.748L193.995 212.298L193.869 213.901L194.338 215.202L194.075 215.856L194.618 216.073L194.262 218.658L194.413 220.428L194.091 221.082L195.119 218.935" stroke="black" stroke-width="6" stroke-linecap="round" stroke-linejoin="round"/>
<path d="M201.747 194.327L200.958 194.442L201.597 195.152L201.104 195.86L200.848 197.446L200.867 204.599L201.326 206.44L201.01 210.143L201.11 212.46L202.041 214.639L202.254 216.128L201.746 218.125L202.253 221.771L202.876 222.447" stroke="black" stroke-width="6" stroke-linecap="round" stroke-linejoin="round"/>
<path d="M206.945 195.13L204.184 195.022L205.294 195.842L205.329 196.181L204.68 197.204L204.715 197.617L205.415 198.197L205.875 210.61L206.443 212.05L206.073 217.53L206.613 218.792L206.917 218.777L206.767 218.585L207.491 217.886" stroke="black" stroke-width="6" stroke-linecap="round" stroke-linejoin="round"/>
<path d="M211.988 195.258L209.217 195.891L209.465 196.235L210.063 196.181L210.803 197.799L210.636 199.675L211.985 204.485L212.025 207.447L212.84 210.103L212.646 211.555L213.657 213.181L213.973 215.151L214.852 216.993L214.846 218.597L215.523 221.726L215.668 221.15L215.327 220.771L215.824 219.498L215.855 217.902" stroke="black" stroke-width="6" stroke-linecap="round" stroke-linejoin="round"/>
<path d="M216.218 200.935L216.46 201.027L215.809 201.7L216.726 202.959L216.718 204.545L218.119 211.897L218.806 214.977L219.396 216.377L219.496 216.029" stroke="black" stroke-width="6" stroke-linecap="round" stroke-linejoin="round"/>
<path d="M171.94 194.001L169.209 194.36L170.179 195.62L170.209 197.741L169.383 203.427L169.242 209.959L170.24 217.619L170.322 218.668L170.125 218.448L170.855 217.391" stroke="black" stroke-width="6" stroke-linecap="round" stroke-linejoin="round"/>
<path d="M179.475 194.521L176.301 194.601L176.608 195.068L178.271 194.942L177.688 195.411L177.345 197.306L177.075 205.674L177.567 209.092L177.385 211.931L177.941 216.598L178.446 217.344L178.242 216.817L178.457 216.81L178.151 216.788L178.688 216.546L178.413 216.266L178.914 215.519" stroke="black" stroke-width="6" stroke-linecap="round" stroke-linejoin="round"/>
<path d="M184.447 192.925L182.135 193.65L182.657 193.617L182.924 194.045L182.19 197.615L181.721 204.548L183.078 207.427L183.129 210.449L183.862 213.08L183.999 217.624L184.346 219.39L184.069 220.541L184.902 222.477L185.231 221.986L185.277 220.873" stroke="black" stroke-width="6" stroke-linecap="round" stroke-linejoin="round"/>
<path d="M192.324 195.479L189.746 197.226L190.5 200.589L190.653 205.275L189.381 216.009L189.996 217.408L190.916 217.395" stroke="black" stroke-width="6" stroke-linecap="round" stroke-linejoin="round"/>
<path d="M201.146 192.094L197.473 191.823L197.904 192.364L198.96 192.157L199.199 192.908L198.426 194.601L199.191 198.393L198.983 199.158L199.438 202.678L199.113 207.601" stroke="black" stroke-width="6" stroke-linecap="round" stroke-linejoin="round"/>
<path d="M249.109 123.171L248.824 123L248.799 122.214L248.453 122.954L248.305 122.771L245.532 128.028L240.436 135.257L231.048 144.654L223.507 154.048L216.236 161.645L216.232 162.059" stroke="black" stroke-width="2" stroke-linecap="round" stroke-linejoin="round"/>
<path d="M247.162 116.823L246.243 116.689L245.274 117.313L242.169 121.622L230.443 134.093L224.68 141.133" stroke="black" stroke-width="2" stroke-linecap="round" stroke-linejoin="round"/>
<path d="M238.996 116.823L236.49 119.183L233.686 123.538L230 126.969L227.149 130.735L221.851 136.203L217.568 141.175" stroke="black" stroke-width="2" stroke-linecap="round" stroke-linejoin="round"/>
<path d="M234.233 114.768L223.674 127.143L217.49 133.096L213.619 135.941L211.117 138.29" stroke="black" stroke-width="2" stroke-linecap="round" stroke-linejoin="round"/>
<path d="M236.049 111.476L234.963 110.774L234.45 111.036L229.408 118.522L225.3 125.386L220.652 132.072" stroke="black" stroke-width="2" stroke-linecap="round" stroke-linejoin="round"/>
<path d="M245.13 119.6L244.961 118.897L245.34 119.051L244.932 119.331L245.002 119.682L243.948 120.597L242.358 123.123L239.476 126.672L230.97 135.236L229.043 138.152L227.721 139.411L227.756 140.148" stroke="black" stroke-width="2" stroke-linecap="round" stroke-linejoin="round"/>
<path d="M138.742 132.762L139.19 137.505L140.519 142.08L142.682 146.324L146.726 151.213L150.49 154.132L154.735 156.295L159.309 157.624L164.052 158.072L168.795 157.624L173.369 156.295L177.614 154.132L181.378 151.213L185.422 146.324L187.585 142.08L188.914 137.505L189.362 132.762L188.914 128.02L187.585 123.445L185.422 119.201L182.502 115.436L178.929 112.286L174.829 109.861L168.795 107.9L164.052 107.452L159.309 107.9L153.276 109.861L149.175 112.286L145.602 115.436L142.682 119.201L140.519 123.445L139.19 128.02L138.742 132.762Z" stroke="black" stroke-width="6.5" stroke-linecap="round" stroke-linejoin="round"/>
<path d="M167.738 116.116L167.429 116.247L166.976 115.921L157.998 126.665L146.878 138.531L145.719 141.2" stroke="black" stroke-width="2" stroke-linecap="round" stroke-linejoin="round"/>
<path d="M173.522 116.565H174.332L174.274 116.324L173.321 116.63L173.537 116.747L173.404 117.304L172.702 118.239L170.956 119.839L162.884 129.498L155.186 137.588L152.478 139.894L147.122 145.708L145.477 148.111" stroke="black" stroke-width="2" stroke-linecap="round" stroke-linejoin="round"/>
<path d="M178.011 118.433L177.113 119.091L174.195 123.242L164.721 134.681L156.771 142.452" stroke="black" stroke-width="2" stroke-linecap="round" stroke-linejoin="round"/>
<path d="M176.12 127.097L173.733 130.515L165.78 138.911L160.521 145.163L156.664 150.835" stroke="black" stroke-width="2" stroke-linecap="round" stroke-linejoin="round"/>
<path d="M187.263 133.898L183.728 136.72L178.778 142.702L171.111 151.101" stroke="black" stroke-width="2" stroke-linecap="round" stroke-linejoin="round"/>
<path d="M132.98 211.5L128.049 215.812L124.979 220.177" stroke="black" stroke-width="6.25" stroke-linecap="round" stroke-linejoin="round"/>
<path d="M125.307 221.322L125.917 220.084" stroke="black" stroke-width="6.25" stroke-linecap="round" stroke-linejoin="round"/>
<path d="M131.247 207.604L130.562 208.933" stroke="black" stroke-width="6.25" stroke-linecap="round" stroke-linejoin="round"/>
<path d="M126.597 202.608L126.42 215.617L127.192 219.904L126.885 223.947" stroke="black" stroke-width="6.25" stroke-linecap="round" stroke-linejoin="round"/>
<path d="M118.516 201.501L118.477 197.623L117.016 199.597L117.159 200.399" stroke="black" stroke-width="6.25" stroke-linecap="round" stroke-linejoin="round"/>
<path d="M129.655 184.325L129.667 184.67L129.88 184.6L129.544 185.589L129.893 186.502L129.447 188.465L129.95 189.749L130.03 191.738L130.57 193.451L130.15 194.265L130.36 194.311L130.417 198.828L130.851 199.627L131.057 200.699L130.776 201.121L131.482 203.038L130.709 204.624L131.377 204.929L131.545 205.37L131.144 206.955L131.529 209.73L131.934 210.297L132.224 211.785L132.998 212.402L132.486 212.929L132.379 213.878L132.448 215.39L132.823 216.161L132.704 217.764L133.154 219.592L133.168 222.148L133.746 223.496L134.029 225.593L134.604 226.559L134.674 228.805L135.713 233.736L136.941 236.736L136.913 237.55L138.361 240.291" stroke="black" stroke-width="6" stroke-linecap="round" stroke-linejoin="round"/>
<path d="M146.391 251.861L147.068 252.667L150.027 253.985L150.734 254.739L151.91 254.953L153.296 255.723L155.495 255.625L157.595 257.077L158.98 256.881L160.275 257.086L167.073 260.107L172.611 260.781L175.409 262.237L177.808 262.414L177.521 262.807L179.552 264.377L180.86 264.403L183.962 265.657L185.35 265.408L187.5 266.264L188.274 266.293L189.832 265.362L191.683 265.366L193.497 265.944L196.562 264.746L198.212 263.291L199.656 262.904L202.236 263.359L205.156 261.88L207.888 261.176L209.282 260.137L210.746 259.944L212.092 260.201L215.049 259.02L218.228 258.656L219.715 257.775L222.134 257.215L222.313 256.718L223.585 256.296L226.309 255.983L226.675 255.566L228.308 255.378L233.308 252.871L233.686 252.16L235.953 250.747L241.215 245.505L241.577 244.336L242.566 243.43L244.053 241.099L243.995 240.462L244.854 239.899L245.29 238.704L248.037 235.855L248.467 234.03L249.667 233.136L249.577 232.83L251.323 231.191L251.732 230.274L252.642 229.95L252.601 229.477L253.977 227.766L254.087 227.105L257.003 224.472L258.014 222.208L259.073 221.496L260.065 220.314L259.979 220.043L260.583 219.631L260.861 218.954" stroke="black" stroke-width="6" stroke-linecap="round" stroke-linejoin="round"/>
<path d="M267.615 204.749L267.611 204.52" stroke="black" stroke-width="6" stroke-linecap="round" stroke-linejoin="round"/>
<path d="M243.249 197.362L242.875 199.698L243.103 198.996L243.135 199.56L242.918 199.453L243.284 199.29L243.346 199.662L242.83 199.771L243.166 199.783L243.022 200.475L243.76 202.745L243.876 207.752L244.411 210.234L244.307 213.111L244.804 216.198L244.583 219.27L245.135 224.528L245.619 226.209L245.768 230.033L245.53 231.391L245.802 233.44L246.187 233.789L246.125 235.087L245.896 234.922L246.238 234.854L246.015 234.909L246.753 236.958L246.651 237.707L247.282 237.895L246.772 238.147L247.276 239.094L247.437 240.719L247.255 242.805L247.269 242.417L247.034 242.811L247.358 243.241L247.311 244.482L247.469 244.229L247.084 244.02L247.709 244.075L247.197 244.143L247.423 243.903L247.792 245.29L248.162 245.411L247.864 245.424L247.558 245.004L248.006 244.863L247.564 244.944L248.073 244.943L247.786 245.019L248.1 245.149L248.158 245.695" stroke="black" stroke-width="6" stroke-linecap="round" stroke-linejoin="round"/>
<path d="M252.945 180.95L252.705 187.587L254.173 204.49L253.95 207.808L254.348 210.408L254.591 210.74L255.038 210.268" stroke="black" stroke-width="6" stroke-linecap="round" stroke-linejoin="round"/>
<path d="M260.072 170.598L260.281 168.355L260.585 168.903L260.31 169.924L261.176 174.951L260.978 184.916L261.08 185.462L261.591 185.728" stroke="black" stroke-width="6" stroke-linecap="round" stroke-linejoin="round"/>
<path d="M264.706 154.241L263.191 154.302L263.657 154.447L263.425 157.147L264.152 159.421L264.642 169.223L265.481 172.764L265.462 176.309" stroke="black" stroke-width="6" stroke-linecap="round" stroke-linejoin="round"/>
<path d="M139.924 196.56L140.037 198.585L139.93 196.589L140.884 197.515L140.484 198.734L141.845 204.196L141.972 206.663L141.59 212.512L142.169 217.634L142.024 237.473" stroke="black" stroke-width="6" stroke-linecap="round" stroke-linejoin="round"/>
<path d="M147.855 209.772L148.017 209.535L147.764 209.503L148.283 209.304L148.265 209.634L147.876 209.719L148.335 210.011L147.783 218.449L147.834 223.189L148.966 236.352L151.032 249.876" stroke="black" stroke-width="6" stroke-linecap="round" stroke-linejoin="round"/>
<path d="M237.352 208.088L237.169 207.449L237.176 207.992L236.796 207.994L237.291 207.793L236.812 207.807L237.28 207.638L236.964 207.548L236.673 206.563L236.589 206.89L236.982 206.699L235.859 206.56L236.434 206.544L235.809 205.16L235.72 205.461L235.524 205.415L235.812 205.18L235.407 205.068L234.963 205.284L235.932 209.082L235.648 214.015L236.646 222.324L237.931 243.466L239.265 256.824" stroke="black" stroke-width="6" stroke-linecap="round" stroke-linejoin="round"/>
<path d="M230.771 212.181L230.885 217.616L230.436 227.533L230.61 234.846" stroke="black" stroke-width="6" stroke-linecap="round" stroke-linejoin="round"/>
<path d="M147.777 215.932L148.154 220.776L148.088 226.586L147.131 238.759L145.395 251.877" stroke="black" stroke-width="6" stroke-linecap="round" stroke-linejoin="round"/>
<path d="M134.565 221.908L132.947 225.178L133.663 234.247" stroke="black" stroke-width="6" stroke-linecap="round" stroke-linejoin="round"/>
<path d="M115.518 143.997L115.329 140.53L116.158 137.456L116.737 133.562L115.582 126.517L114.202 122.198L113.47 120.959L109.534 116.462L108.942 116.953L108.742 118.328L107.756 120.64L107.035 128.684L107.251 136.01" stroke="black" stroke-width="6" stroke-linecap="round" stroke-linejoin="round"/>
<path d="M282.173 114.868L280.757 114.167L279.836 112.983L281.213 111.924L282.666 111.487L285.404 114.271L286.596 117.121L286.401 123.814L284.592 130.631" stroke="black" stroke-width="6" stroke-linecap="round" stroke-linejoin="round"/>
<path d="M133.102 302.716L132.713 302.842L131.994 304.209L127.109 309.902L124.914 311.819L123.9 313.533L123.644 314.625L121.564 317.582L119.918 322.084L116.887 328.317L113.252 332.105L112.896 333.037L111.958 333.634L111.654 335.142L107.756 339.707L106.966 341.156L104.843 343.327L104.074 344.692L102.649 346.292L100.192 348.294L99.0269 350.019L97.8109 350.772L97.7389 351.479L95.3039 353.45L95.0369 354.204L93.7209 354.828L93.9079 355.234L93.6089 355.488L91.7169 356.363L87.1809 362.208L84.3609 364.797L82.9369 365.358L81.5749 366.362L80.8849 367.319L77.7949 369.844L75.6659 372.129L72.7089 373.268L71.0799 374.477L70.2709 374.539L69.3009 375.783L66.6209 377.866L64.5949 381.505L63.4739 382.301L62.7799 383.902L60.1669 387.297L59.4339 388.807L57.3649 391.107L55.7669 394.207L52.1949 398.387L49.7979 401.927L49.3979 403.777L48.2599 405.307L47.9249 406.657L46.2979 408.957L46.0649 409.907L44.7059 411.987L43.6799 415.057L38.4019 424.027L37.3099 430.187L36.1399 432.657L35.5229 435.317L33.9819 437.617L32.2659 441.647L32.3939 442.497L31.6329 444.167L31.8539 445.467L31.0869 446.877L30.4429 449.687L30.2259 452.617L29.6649 453.547L28.2929 459.747L27.5759 460.927L27.4099 462.047L25.0959 465.727L24.4569 468.877L24.4069 471.027L24.6789 471.657L24.2119 472.267L24.3459 473.997L23.9279 477.507L23.2679 478.317L23.2149 480.257L22.5179 481.727L22.6269 483.117L22.0279 486.137L22.1099 487.457L20.9079 490.207L20.8139 492.527L21.1339 493.957L19.6959 497.987L18.5409 499.857L17.6119 503.177L17.3079 503.327L17.4409 503.867L16.8669 505.097L16.5749 506.807L15.7819 507.897L16.0439 508.137L15.6869 508.557L16.2949 509.137L15.6029 510.867L15.6939 516.757L14.7459 518.987L15.1979 520.887L14.9479 522.867L14.2729 523.667L14.8679 524.377L13.4539 528.987L13.5309 530.097L12.8789 531.167L13.2639 531.627L12.7589 532.657L12.8189 534.397L11.4249 536.347L12.3139 536.947L12.2369 537.477L11.3679 538.447L11.4919 540.387L10.3259 545.167L10.6419 547.487L9.85187 549.507L10.0839 550.027L9.83887 551.357L10.0619 551.547L8.54288 556.857L8.93387 558.577L8.15787 560.407L7.73889 563.337L7.82489 565.477L7.41089 567.947L8.16888 569.517L7.66586 570.837L7.48688 573.147L7.90189 575.467L7.70987 578.757L6.37286 586.667L6.28787 589.747L5.31287 592.477L5.73688 594.367L5.65787 594.717L4.95087 594.587L5.35687 595.587L4.88788 595.897L5.44489 596.887L4.92487 597.887L4.81088 601.457L4.49088 602.637L4.81287 602.887L4.20987 603.787L4.47388 605.427H3.92087L4.13989 605.517L4.20087 607.687L4.09589 608.917L3.63187 609.827L3.60587 610.277L4.03387 610.707L3.84787 610.877L4.13788 610.867L3.64987 610.927L4.06589 612.047L3.80789 612.837L4.15887 612.927L3.78287 612.577L4.05087 612.947L3.58789 612.967L4.57489 612.957H3.62888H4.23389H3.65488L4.01086 612.947L3.74786 612.877L4.17188 612.657L3.71988 612.687L4.20987 612.547L3.92688 612.707L3.93188 612.477L4.30988 612.617L4.21988 612.377L3.80386 612.507L4.22488 612.517L3.80988 612.427L4.30289 612.447L4.23389 612.197L4.05789 612.447L4.40088 612.427L4.06088 612.467L4.73187 612.397L4.03888 612.437L4.23889 612.217L3.87888 612.357L4.53287 612.437L3.85187 612.447L8.65588 617.057" stroke="black" stroke-width="6" stroke-linecap="round" stroke-linejoin="round"/>
<path d="M155.789 257L154.966 257.847L155.388 257.192L154.626 256.503L155.259 256.748L154.874 256.836L155.027 256.517L155.427 256.659L154.873 257.358L155.222 259.018L154.7 259.679L154.991 260.751L154.083 261.19L154.896 260.933L154.568 261.96L154.937 262.843L154.689 263.006L155.003 264.044L154.856 266.401L155.224 266.853L154.87 267.627L155.432 268.559L155.084 268.51L155.21 269.151L154.832 269.328L155.327 269.798L155.559 270.633L155.529 272.601L155.8 272.852L155.478 273.673L155.3 276.327L155.673 276.59L155.536 277.188L155.79 277.353L155.287 282.738L154.982 282.81L155.288 283.744L155.024 286.336L155.377 286.647L154.808 286.785L154.99 287.696L154.519 288.739L155.289 289.072L154.593 289.932L154.288 292.124L154.518 292.265L154.206 292.7L154.394 293.141L154.093 292.99L154.822 293.087L154.239 292.97L153.785 293.603L153.868 294.448" stroke="black" stroke-width="6" stroke-linecap="round" stroke-linejoin="round"/>
<path d="M153.424 275.392L153.046 276.305L153.075 276.027L152.173 275.491L149.45 275.834L146.729 277.263L146.237 277.635L146.485 277.716L145.98 277.532L146.397 277.606L143.939 279.124L143.999 280.392L143.356 280.727L143.589 280.981L143.215 281.344L143.466 281.38L143.068 281.443L143.291 283.008L143.04 283.158L142.927 282.653L143.361 282.816L142.778 282.806L143.207 282.869L142.872 282.905L143.199 283.272L142.875 285.07L143.111 285.851L142.863 286.614L142.527 286.622L143.165 287.308L144.963 287.654L149.064 287.781L148.578 287.901L149.18 287.966L149.221 288.24L151.108 288.477L152.156 289.372L153.216 289.388L153.453 289.5L153.137 289.719L155.604 290.122L155.472 290.39L156.105 290.499L159.154 290.696L162.896 290.508L163.649 290.219L163.537 290.407L165.538 290.567L168.508 291.379L171.422 291.473L175.586 292.609L179.105 292.529L181.612 293.144L186.866 292.018L188.203 292.304L189.25 292.069L190.701 292.522L198.938 292.498L202.501 292.832L206.978 292.79L209.23 293.252L213.974 293.16L214.745 292.722L218.089 292.889L221.646 292.544L222.155 292.321L221.964 292.057L222.185 291.953L223.185 291.998L224.228 291.375L226.147 291.757" stroke="black" stroke-width="6" stroke-linecap="round" stroke-linejoin="round"/>
<path d="M113.466 115.442L109.904 112.256L109.15 112.07L106.67 113.569L105.39 115.459L104.246 116.541L102.832 121.201" stroke="black" stroke-width="6" stroke-linecap="round" stroke-linejoin="round"/>
<path d="M135.284 134.064L135.7 133.815L135.242 134.013L135.633 134.227L134.333 134.65L131.69 133.383L122.473 130.332L121.663 130.442L121.221 131.225" stroke="black" stroke-width="6" stroke-linecap="round" stroke-linejoin="round"/>
<path d="M113.469 117.163L114.19 116.223L116.141 115.726L116.873 115.238L117.031 114.559L118.245 113.723L118.498 113.827L117.622 115.512L116.916 116.18" stroke="black" stroke-width="6" stroke-linecap="round" stroke-linejoin="round"/>
<path d="M224.018 294.051L224.528 294.541L225.45 294.395L227.128 293.817L229.252 292.439L231.5 292.332L232.629 291.985L232.605 291.587L234.084 291.117L235.394 291.12L237.535 290.358L238.12 290.085L237.929 289.682L237.672 289.863L238.125 289.888L238.424 289.74L238.209 289.639L239.05 289.561L238.692 289.578L238.853 289.436L239.131 289.601L241.398 288.893L241.231 288.597L243.724 288.055L243.961 287.583L244.358 287.736L245.907 286.986L245.99 286.672L247.988 286.004L247.819 285.674L248.396 285.57L248.258 285.781L247.99 285.737L248.859 285.212L248.521 285.105L248.691 285.28L249.302 284.693L248.716 284.799L249.098 284.562L248.866 284.855L249.189 284.745L248.807 284.776L250.179 285.883L249.824 286.285L250.083 286.206L249.948 286.532L250.296 287.038L250.124 288.061L250.332 289.565L250.827 290.457L250.704 290.875L251.254 291.341L251.591 292.222L252.182 292.601L251.939 292.773L252.754 294.131L256.275 295.95L257.279 296.142L257.361 296.646L258.751 297.815L258.383 298.297L259.177 298.312L260.81 301.197L261.16 301.223L261.012 301.372L261.647 301.778L261.537 302.084L261.899 302.437L262.456 302.408L262.348 302.833L262.904 303.366L262.594 303.718L263.211 304.307L263.068 305.177L262.656 305.446L262.908 305.68L262.598 305.935L262.846 305.969L262.345 307.131L261.713 307.346L262.009 307.522L261.761 307.931L262.199 308.189L261.485 308.255L261.729 308.591L261.489 308.895L260.831 308.998L261.34 309.07L261.182 308.909L260.426 309.941L261.072 309.875L260.202 309.747L260.678 309.657L260.831 309.98" stroke="black" stroke-width="6" stroke-linecap="round" stroke-linejoin="round"/>
<path d="M141.521 297.89L142.81 297.714L144.679 296.721L144.182 296.555L145.131 296.256L145.342 295.908L144.959 295.84L145.382 295.839L145.555 295.143L146.201 295.028L146.293 294.538L146.646 294.614L146.302 294.601L147.032 293.827L147.721 293.663L147.084 293.627L147.664 293.222L147.334 293.162L148.141 293.022L147.682 293.05L148.144 292.444L147.878 292.525L149.128 291.772L149.581 291.853L149.162 291.992" stroke="black" stroke-width="6" stroke-linecap="round" stroke-linejoin="round"/>
</svg>
