<svg width="212" height="186" viewBox="0 0 212 186" fill="none" xmlns="http://www.w3.org/2000/svg">
<path d="M25.8345 48.0455V40.5455H26.4489V41.5859H26.5234C26.5992 41.4226 26.7034 41.2557 26.8359 41.0852C26.9685 40.9124 27.1437 40.7668 27.3615 40.6484C27.5817 40.5301 27.8587 40.4709 28.1925 40.4709C28.6423 40.4709 29.0353 40.5893 29.3714 40.826C29.71 41.0604 29.9728 41.3894 30.1598 41.8132C30.3492 42.2346 30.4439 42.7259 30.4439 43.2869C30.4439 43.8504 30.3492 44.344 30.1598 44.7678C29.9728 45.1915 29.71 45.5218 29.3714 45.7585C29.0353 45.9953 28.6446 46.1136 28.1996 46.1136C27.8705 46.1136 27.5947 46.0545 27.3722 45.9361C27.152 45.8177 26.9732 45.6721 26.8359 45.4993C26.701 45.3241 26.5968 45.1536 26.5234 44.9879H26.4666V48.0455H25.8345ZM26.4595 43.2763C26.4595 43.7166 26.5246 44.1072 26.6548 44.4482C26.7874 44.7867 26.9768 45.053 27.223 45.2472C27.4716 45.4389 27.7723 45.5348 28.125 45.5348C28.4872 45.5348 28.7926 45.4354 29.0412 45.2365C29.2921 45.0353 29.4827 44.7642 29.6129 44.4233C29.7455 44.0824 29.8118 43.7 29.8118 43.2763C29.8118 42.8572 29.7467 42.4796 29.6165 42.1435C29.4886 41.8073 29.2992 41.541 29.0483 41.3445C28.7973 41.1456 28.4896 41.0462 28.125 41.0462C27.7699 41.0462 27.468 41.142 27.2195 41.3338C26.9709 41.5232 26.7815 41.786 26.6513 42.1222C26.5234 42.456 26.4595 42.8407 26.4595 43.2763ZM34.0359 46.1136C33.5269 46.1136 33.0865 45.9953 32.7148 45.7585C32.3432 45.5194 32.0555 45.1892 31.8519 44.7678C31.6507 44.344 31.5501 43.8563 31.5501 43.3047C31.5501 42.7554 31.6507 42.2678 31.8519 41.8416C32.0555 41.4131 32.3361 41.0781 32.6935 40.8366C33.0534 40.5928 33.4689 40.4709 33.94 40.4709C34.2359 40.4709 34.5212 40.5253 34.7958 40.6342C35.0704 40.7408 35.3166 40.9053 35.5344 41.1278C35.7546 41.348 35.9286 41.6262 36.0565 41.9624C36.1843 42.2962 36.2482 42.6915 36.2482 43.1484V43.4609H31.9869V42.9034H35.6019C35.6019 42.553 35.5309 42.2382 35.3888 41.9588C35.2492 41.6771 35.0539 41.4545 34.8029 41.2912C34.5543 41.1278 34.2667 41.0462 33.94 41.0462C33.5943 41.0462 33.2901 41.1385 33.0273 41.3232C32.7646 41.5078 32.5586 41.7517 32.4094 42.0547C32.2627 42.3577 32.1881 42.6892 32.1857 43.049V43.3828C32.1857 43.8161 32.2603 44.1948 32.4094 44.5192C32.561 44.8411 32.7752 45.0909 33.0522 45.2685C33.3292 45.446 33.6571 45.5348 34.0359 45.5348C34.2939 45.5348 34.52 45.4946 34.7141 45.4141C34.9106 45.3336 35.0752 45.2259 35.2077 45.0909C35.3427 44.9536 35.4445 44.8033 35.5131 44.6399L36.1133 44.8352C36.0304 45.0649 35.8943 45.2768 35.7049 45.4709C35.5179 45.665 35.2835 45.8213 35.0018 45.9396C34.7224 46.0556 34.4004 46.1136 34.0359 46.1136ZM39.7612 46.1136C39.2901 46.1136 38.8734 45.9941 38.5112 45.755C38.1513 45.5159 37.8696 45.1856 37.666 44.7642C37.4624 44.3404 37.3606 43.8516 37.3606 43.2976C37.3606 42.7389 37.4624 42.2476 37.666 41.8239C37.8696 41.3977 38.1513 41.0663 38.5112 40.8295C38.8734 40.5904 39.2901 40.4709 39.7612 40.4709C40.2323 40.4709 40.6478 40.5904 41.0076 40.8295C41.3675 41.0687 41.6492 41.4001 41.8528 41.8239C42.0588 42.2476 42.1618 42.7389 42.1618 43.2976C42.1618 43.8516 42.06 44.3404 41.8564 44.7642C41.6528 45.1856 41.3699 45.5159 41.0076 45.755C40.6478 45.9941 40.2323 46.1136 39.7612 46.1136ZM39.7612 45.5348C40.14 45.5348 40.4608 45.433 40.7235 45.2294C40.9863 45.0258 41.1852 44.7547 41.3201 44.4162C41.4574 44.0777 41.5261 43.7048 41.5261 43.2976C41.5261 42.8904 41.4574 42.5163 41.3201 42.1754C41.1852 41.8345 40.9863 41.5611 40.7235 41.3551C40.4608 41.1491 40.14 41.0462 39.7612 41.0462C39.3848 41.0462 39.064 41.1491 38.7988 41.3551C38.536 41.5611 38.336 41.8345 38.1987 42.1754C38.0637 42.5163 37.9963 42.8904 37.9963 43.2976C37.9963 43.7048 38.0637 44.0777 38.1987 44.4162C38.336 44.7547 38.536 45.0258 38.7988 45.2294C39.0616 45.433 39.3824 45.5348 39.7612 45.5348ZM43.5494 48.0455V40.5455H44.1637V41.5859H44.2383C44.314 41.4226 44.4182 41.2557 44.5508 41.0852C44.6834 40.9124 44.8585 40.7668 45.0763 40.6484C45.2965 40.5301 45.5735 40.4709 45.9073 40.4709C46.3571 40.4709 46.7501 40.5893 47.0863 40.826C47.4248 41.0604 47.6876 41.3894 47.8746 41.8132C48.064 42.2346 48.1587 42.7259 48.1587 43.2869C48.1587 43.8504 48.064 44.344 47.8746 44.7678C47.6876 45.1915 47.4248 45.5218 47.0863 45.7585C46.7501 45.9953 46.3595 46.1136 45.9144 46.1136C45.5853 46.1136 45.3095 46.0545 45.087 45.9361C44.8668 45.8177 44.6881 45.6721 44.5508 45.4993C44.4158 45.3241 44.3117 45.1536 44.2383 44.9879H44.1815V48.0455H43.5494ZM44.1744 43.2763C44.1744 43.7166 44.2395 44.1072 44.3697 44.4482C44.5022 44.7867 44.6916 45.053 44.9379 45.2472C45.1864 45.4389 45.4871 45.5348 45.8398 45.5348C46.2021 45.5348 46.5075 45.4354 46.756 45.2365C47.007 45.0353 47.1976 44.7642 47.3278 44.4233C47.4603 44.0824 47.5266 43.7 47.5266 43.2763C47.5266 42.8572 47.4615 42.4796 47.3313 42.1435C47.2035 41.8073 47.0141 41.541 46.7631 41.3445C46.5122 41.1456 46.2044 41.0462 45.8398 41.0462C45.4847 41.0462 45.1829 41.142 44.9343 41.3338C44.6857 41.5232 44.4963 41.786 44.3661 42.1222C44.2383 42.456 44.1744 42.8407 44.1744 43.2763ZM50.1776 38.7273V46H49.5455V38.7273H50.1776ZM54.0554 46.1136C53.5464 46.1136 53.1061 45.9953 52.7344 45.7585C52.3627 45.5194 52.075 45.1892 51.8714 44.7678C51.6702 44.344 51.5696 43.8563 51.5696 43.3047C51.5696 42.7554 51.6702 42.2678 51.8714 41.8416C52.075 41.4131 52.3556 41.0781 52.7131 40.8366C53.0729 40.5928 53.4884 40.4709 53.9595 40.4709C54.2554 40.4709 54.5407 40.5253 54.8153 40.6342C55.09 40.7408 55.3362 40.9053 55.554 41.1278C55.7741 41.348 55.9482 41.6262 56.076 41.9624C56.2038 42.2962 56.2678 42.6915 56.2678 43.1484V43.4609H52.0064V42.9034H55.6214C55.6214 42.553 55.5504 42.2382 55.4084 41.9588C55.2687 41.6771 55.0734 41.4545 54.8224 41.2912C54.5739 41.1278 54.2862 41.0462 53.9595 41.0462C53.6139 41.0462 53.3097 41.1385 53.0469 41.3232C52.7841 41.5078 52.5781 41.7517 52.429 42.0547C52.2822 42.3577 52.2076 42.6892 52.2053 43.049V43.3828C52.2053 43.8161 52.2798 44.1948 52.429 44.5192C52.5805 44.8411 52.7947 45.0909 53.0717 45.2685C53.3487 45.446 53.6766 45.5348 54.0554 45.5348C54.3134 45.5348 54.5395 45.4946 54.7337 45.4141C54.9302 45.3336 55.0947 45.2259 55.2273 45.0909C55.3622 44.9536 55.464 44.8033 55.5327 44.6399L56.1328 44.8352C56.05 45.0649 55.9138 45.2768 55.7244 45.4709C55.5374 45.665 55.303 45.8213 55.0213 45.9396C54.742 46.0556 54.42 46.1136 54.0554 46.1136ZM61.1053 38.7273V46H60.4732V38.7273H61.1053ZM64.8979 46.1136C64.4268 46.1136 64.0101 45.9941 63.6479 45.755C63.2881 45.5159 63.0063 45.1856 62.8027 44.7642C62.5991 44.3404 62.4973 43.8516 62.4973 43.2976C62.4973 42.7389 62.5991 42.2476 62.8027 41.8239C63.0063 41.3977 63.2881 41.0663 63.6479 40.8295C64.0101 40.5904 64.4268 40.4709 64.8979 40.4709C65.369 40.4709 65.7845 40.5904 66.1444 40.8295C66.5042 41.0687 66.7859 41.4001 66.9895 41.8239C67.1955 42.2476 67.2985 42.7389 67.2985 43.2976C67.2985 43.8516 67.1967 44.3404 66.9931 44.7642C66.7895 45.1856 66.5066 45.5159 66.1444 45.755C65.7845 45.9941 65.369 46.1136 64.8979 46.1136ZM64.8979 45.5348C65.2767 45.5348 65.5975 45.433 65.8603 45.2294C66.123 45.0258 66.3219 44.7547 66.4569 44.4162C66.5942 44.0777 66.6628 43.7048 66.6628 43.2976C66.6628 42.8904 66.5942 42.5163 66.4569 42.1754C66.3219 41.8345 66.123 41.5611 65.8603 41.3551C65.5975 41.1491 65.2767 41.0462 64.8979 41.0462C64.5215 41.0462 64.2007 41.1491 63.9355 41.3551C63.6728 41.5611 63.4727 41.8345 63.3354 42.1754C63.2005 42.5163 63.133 42.8904 63.133 43.2976C63.133 43.7048 63.2005 44.0777 63.3354 44.4162C63.4727 44.7547 63.6728 45.0258 63.9355 45.2294C64.1983 45.433 64.5191 45.5348 64.8979 45.5348ZM70.8061 46.1136C70.335 46.1136 69.9183 45.9941 69.5561 45.755C69.1963 45.5159 68.9145 45.1856 68.7109 44.7642C68.5073 44.3404 68.4055 43.8516 68.4055 43.2976C68.4055 42.7389 68.5073 42.2476 68.7109 41.8239C68.9145 41.3977 69.1963 41.0663 69.5561 40.8295C69.9183 40.5904 70.335 40.4709 70.8061 40.4709C71.2772 40.4709 71.6927 40.5904 72.0526 40.8295C72.4124 41.0687 72.6941 41.4001 72.8977 41.8239C73.1037 42.2476 73.2067 42.7389 73.2067 43.2976C73.2067 43.8516 73.1049 44.3404 72.9013 44.7642C72.6977 45.1856 72.4148 45.5159 72.0526 45.755C71.6927 45.9941 71.2772 46.1136 70.8061 46.1136ZM70.8061 45.5348C71.1849 45.5348 71.5057 45.433 71.7685 45.2294C72.0313 45.0258 72.2301 44.7547 72.3651 44.4162C72.5024 44.0777 72.571 43.7048 72.571 43.2976C72.571 42.8904 72.5024 42.5163 72.3651 42.1754C72.2301 41.8345 72.0313 41.5611 71.7685 41.3551C71.5057 41.1491 71.1849 41.0462 70.8061 41.0462C70.4297 41.0462 70.1089 41.1491 69.8438 41.3551C69.581 41.5611 69.3809 41.8345 69.2436 42.1754C69.1087 42.5163 69.0412 42.8904 69.0412 43.2976C69.0412 43.7048 69.1087 44.0777 69.2436 44.4162C69.3809 44.7547 69.581 45.0258 69.8438 45.2294C70.1065 45.433 70.4273 45.5348 70.8061 45.5348ZM75.1696 43.9403L75.1625 43.1129H75.3045L77.8613 40.5455H78.6603L76.1355 43.0739L76.0787 43.0845L75.1696 43.9403ZM74.5943 46V38.7273H75.2264V46H74.5943ZM77.9927 46L75.7768 43.1982L76.2314 42.7614L78.8024 46H77.9927ZM79.8553 46V40.5455H80.4909V46H79.8553ZM80.1784 39.608C80.0482 39.608 79.937 39.5642 79.8446 39.4766C79.7523 39.3866 79.7061 39.2789 79.7061 39.1534C79.7061 39.0279 79.7523 38.9214 79.8446 38.8338C79.937 38.7438 80.0482 38.6989 80.1784 38.6989C80.3087 38.6989 80.4199 38.7438 80.5123 38.8338C80.6046 38.9214 80.6507 39.0279 80.6507 39.1534C80.6507 39.2789 80.6046 39.3866 80.5123 39.4766C80.4199 39.5642 80.3087 39.608 80.1784 39.608ZM82.7947 42.5909V46H82.1626V40.5455H82.777V41.4013H82.8338C82.9616 41.1219 83.1605 40.8982 83.4304 40.7301C83.7027 40.5597 84.0388 40.4744 84.4389 40.4744C84.8059 40.4744 85.1278 40.5514 85.4048 40.7053C85.6842 40.8568 85.9008 41.0805 86.0547 41.3764C86.2109 41.6723 86.2891 42.0357 86.2891 42.4666V46H85.657V42.5057C85.657 42.0582 85.5315 41.7043 85.2805 41.4439C85.032 41.1835 84.6982 41.0533 84.2791 41.0533C83.9927 41.0533 83.7382 41.1148 83.5156 41.2379C83.2931 41.361 83.1167 41.5386 82.9865 41.7706C82.8587 42.0002 82.7947 42.2737 82.7947 42.5909ZM90.0346 48.1591C89.6629 48.1591 89.3374 48.1106 89.0581 48.0135C88.7787 47.9188 88.5431 47.7886 88.3514 47.6229C88.1596 47.4571 88.0105 47.2713 87.9039 47.0653L88.4224 46.7244C88.5005 46.8617 88.6047 46.9967 88.7349 47.1293C88.8675 47.2618 89.0391 47.3719 89.2498 47.4595C89.4629 47.5471 89.7245 47.5909 90.0346 47.5909C90.5176 47.5909 90.907 47.4702 91.2029 47.2287C91.5012 46.9872 91.6504 46.612 91.6504 46.103V44.8743H91.5936C91.5202 45.04 91.4148 45.2057 91.2775 45.3714C91.1402 45.5348 90.9603 45.6709 90.7377 45.7798C90.5176 45.8887 90.2441 45.9432 89.9174 45.9432C89.4818 45.9432 89.0948 45.8355 88.7562 45.62C88.42 45.4046 88.1549 45.0968 87.9608 44.6967C87.769 44.2943 87.6731 43.8149 87.6731 43.2585C87.6731 42.7069 87.7666 42.2216 87.9537 41.8026C88.1431 41.3835 88.407 41.0568 88.7456 40.8224C89.0841 40.5881 89.4783 40.4709 89.9281 40.4709C90.2619 40.4709 90.5389 40.5301 90.7591 40.6484C90.9792 40.7644 91.1556 40.9089 91.2882 41.0817C91.4231 41.2545 91.5285 41.4226 91.6042 41.5859H91.6681V40.5455H92.286V46.142C92.286 46.6037 92.1878 46.9837 91.9913 47.282C91.7948 47.5803 91.5273 47.8004 91.1887 47.9425C90.8502 48.0869 90.4655 48.1591 90.0346 48.1591ZM89.992 45.3643C90.3424 45.3643 90.6419 45.2803 90.8904 45.1122C91.139 44.9418 91.3296 44.6979 91.4622 44.3807C91.5948 44.0634 91.661 43.6858 91.661 43.2479C91.661 42.8217 91.5959 42.4441 91.4657 42.1151C91.3355 41.7836 91.1461 41.5232 90.8975 41.3338C90.6513 41.142 90.3495 41.0462 89.992 41.0462C89.6274 41.0462 89.3197 41.1444 89.0687 41.3409C88.8178 41.5374 88.6284 41.8026 88.5005 42.1364C88.3727 42.4678 88.3088 42.8383 88.3088 43.2479C88.3088 43.6645 88.3739 44.0327 88.5041 44.3523C88.6343 44.6695 88.8249 44.9181 89.0758 45.098C89.3268 45.2756 89.6322 45.3643 89.992 45.3643ZM28.0788 52.5455V53.0959H25.3977V52.5455H28.0788ZM26.2358 58V51.7464C26.2358 51.4529 26.3033 51.2055 26.4382 51.0043C26.5755 50.803 26.7543 50.6503 26.9744 50.5462C27.1946 50.442 27.4278 50.3899 27.674 50.3899C27.8397 50.3899 27.977 50.4041 28.0859 50.4325C28.1972 50.4586 28.2848 50.4846 28.3487 50.5107L28.1641 51.0646C28.1167 51.0504 28.0587 51.0339 27.9901 51.0149C27.9214 50.996 27.835 50.9865 27.7308 50.9865C27.4562 50.9865 27.2443 51.0634 27.0952 51.2173C26.946 51.3712 26.8714 51.5914 26.8714 51.8778L26.8679 58H26.2358ZM31.2358 58.1136C30.7647 58.1136 30.348 57.9941 29.9858 57.755C29.6259 57.5159 29.3442 57.1856 29.1406 56.7642C28.937 56.3404 28.8352 55.8516 28.8352 55.2976C28.8352 54.7389 28.937 54.2476 29.1406 53.8239C29.3442 53.3977 29.6259 53.0663 29.9858 52.8295C30.348 52.5904 30.7647 52.4709 31.2358 52.4709C31.7069 52.4709 32.1224 52.5904 32.4822 52.8295C32.8421 53.0687 33.1238 53.4001 33.3274 53.8239C33.5334 54.2476 33.6364 54.7389 33.6364 55.2976C33.6364 55.8516 33.5346 56.3404 33.331 56.7642C33.1274 57.1856 32.8445 57.5159 32.4822 57.755C32.1224 57.9941 31.7069 58.1136 31.2358 58.1136ZM31.2358 57.5348C31.6146 57.5348 31.9354 57.433 32.1982 57.2294C32.4609 57.0258 32.6598 56.7547 32.7947 56.4162C32.9321 56.0777 33.0007 55.7048 33.0007 55.2976C33.0007 54.8904 32.9321 54.5163 32.7947 54.1754C32.6598 53.8345 32.4609 53.5611 32.1982 53.3551C31.9354 53.1491 31.6146 53.0462 31.2358 53.0462C30.8594 53.0462 30.5386 53.1491 30.2734 53.3551C30.0107 53.5611 29.8106 53.8345 29.6733 54.1754C29.5384 54.5163 29.4709 54.8904 29.4709 55.2976C29.4709 55.7048 29.5384 56.0777 29.6733 56.4162C29.8106 56.7547 30.0107 57.0258 30.2734 57.2294C30.5362 57.433 30.857 57.5348 31.2358 57.5348ZM35.024 58V52.5455H35.6383V53.3835H35.6845C35.7934 53.1089 35.9828 52.8875 36.2527 52.7195C36.5249 52.549 36.8327 52.4638 37.176 52.4638C37.228 52.4638 37.286 52.465 37.35 52.4673C37.4139 52.4697 37.4672 52.4721 37.5098 52.4744V53.1172C37.4814 53.1125 37.4316 53.1054 37.3606 53.0959C37.2896 53.0864 37.2127 53.0817 37.1298 53.0817C36.8457 53.0817 36.5924 53.142 36.3699 53.2628C36.1497 53.3812 35.9757 53.5457 35.8478 53.7564C35.72 53.9671 35.6561 54.2074 35.6561 54.4773V58H35.024ZM42.9244 58.1243C42.5953 58.1243 42.2946 58.0604 42.0224 57.9325C41.7501 57.8023 41.5335 57.6153 41.3725 57.3714C41.2115 57.1252 41.131 56.8269 41.131 56.4766C41.131 56.2067 41.1819 55.9794 41.2837 55.7947C41.3855 55.6101 41.5299 55.4586 41.717 55.3402C41.904 55.2218 42.1254 55.1283 42.381 55.0597C42.6367 54.991 42.9184 54.9377 43.2262 54.8999C43.5316 54.862 43.7897 54.8288 44.0004 54.8004C44.2134 54.772 44.3756 54.727 44.4869 54.6655C44.5981 54.6039 44.6538 54.5045 44.6538 54.3672V54.2393C44.6538 53.8677 44.5425 53.5753 44.32 53.3622C44.0998 53.1468 43.7826 53.0391 43.3683 53.0391C42.9753 53.0391 42.6545 53.1255 42.4059 53.2983C42.1597 53.4711 41.9869 53.6747 41.8874 53.9091L41.2873 53.6925C41.4104 53.3942 41.5808 53.1562 41.7987 52.9787C42.0165 52.7988 42.2603 52.6697 42.5302 52.5916C42.8001 52.5111 43.0735 52.4709 43.3505 52.4709C43.5588 52.4709 43.7754 52.4981 44.0004 52.5526C44.2276 52.607 44.4383 52.7017 44.6325 52.8366C44.8266 52.9692 44.984 53.1551 45.1048 53.3942C45.2255 53.6309 45.2859 53.9316 45.2859 54.2962V58H44.6538V57.1371H44.6147C44.5389 57.2981 44.4265 57.4543 44.2773 57.6058C44.1282 57.7573 43.9412 57.8816 43.7163 57.9787C43.4914 58.0758 43.2274 58.1243 42.9244 58.1243ZM43.0096 57.5455C43.3458 57.5455 43.637 57.4709 43.8832 57.3217C44.1294 57.1726 44.3188 56.9749 44.4513 56.7287C44.5863 56.4801 44.6538 56.2067 44.6538 55.9084V55.12C44.6064 55.165 44.5271 55.2053 44.4158 55.2408C44.3069 55.2763 44.1803 55.3082 44.0359 55.3366C43.8938 55.3627 43.7518 55.3852 43.6097 55.4041C43.4677 55.4231 43.3398 55.4396 43.2262 55.4538C42.9184 55.4917 42.6557 55.5509 42.4379 55.6314C42.2201 55.7119 42.0531 55.8232 41.9371 55.9652C41.8211 56.1049 41.7631 56.2848 41.7631 56.505C41.7631 56.8364 41.8815 57.0933 42.1183 57.2756C42.355 57.4555 42.6521 57.5455 43.0096 57.5455ZM50.4119 54.5909V58H49.7798V50.7273H50.4119V53.4013H50.4688C50.5966 53.1196 50.7943 52.8946 51.0618 52.7266C51.3317 52.5585 51.6726 52.4744 52.0845 52.4744C52.4538 52.4744 52.7782 52.5502 53.0575 52.7017C53.3369 52.8532 53.5547 53.0769 53.7109 53.3729C53.8672 53.6688 53.9453 54.0334 53.9453 54.4666V58H53.3097V54.5057C53.3097 54.0559 53.1842 53.7019 52.9332 53.4439C52.6847 53.1835 52.3485 53.0533 51.9247 53.0533C51.6335 53.0533 51.3743 53.1148 51.147 53.2379C50.9197 53.361 50.7398 53.5386 50.6072 53.7706C50.477 54.0002 50.4119 54.2737 50.4119 54.5909ZM57.7299 58.1136C57.2588 58.1136 56.8422 57.9941 56.4799 57.755C56.1201 57.5159 55.8384 57.1856 55.6348 56.7642C55.4312 56.3404 55.3294 55.8516 55.3294 55.2976C55.3294 54.7389 55.4312 54.2476 55.6348 53.8239C55.8384 53.3977 56.1201 53.0663 56.4799 52.8295C56.8422 52.5904 57.2588 52.4709 57.7299 52.4709C58.2011 52.4709 58.6165 52.5904 58.9764 52.8295C59.3362 53.0687 59.618 53.4001 59.8216 53.8239C60.0275 54.2476 60.1305 54.7389 60.1305 55.2976C60.1305 55.8516 60.0287 56.3404 59.8251 56.7642C59.6215 57.1856 59.3386 57.5159 58.9764 57.755C58.6165 57.9941 58.2011 58.1136 57.7299 58.1136ZM57.7299 57.5348C58.1087 57.5348 58.4295 57.433 58.6923 57.2294C58.9551 57.0258 59.1539 56.7547 59.2889 56.4162C59.4262 56.0777 59.4949 55.7048 59.4949 55.2976C59.4949 54.8904 59.4262 54.5163 59.2889 54.1754C59.1539 53.8345 58.9551 53.5611 58.6923 53.3551C58.4295 53.1491 58.1087 53.0462 57.7299 53.0462C57.3535 53.0462 57.0327 53.1491 56.7676 53.3551C56.5048 53.5611 56.3047 53.8345 56.1674 54.1754C56.0325 54.5163 55.965 54.8904 55.965 55.2976C55.965 55.7048 56.0325 56.0777 56.1674 56.4162C56.3047 56.7547 56.5048 57.0258 56.7676 57.2294C57.0304 57.433 57.3511 57.5348 57.7299 57.5348ZM61.6495 58V50.7273H62.2852V53.5859H62.342C62.413 53.4226 62.5148 53.2545 62.6474 53.0817C62.7823 52.9089 62.9587 52.7644 63.1765 52.6484C63.3967 52.5301 63.6737 52.4709 64.0075 52.4709C64.4549 52.4709 64.8479 52.5893 65.1864 52.826C65.525 53.0604 65.7889 53.3894 65.9783 53.8132C66.1677 54.2346 66.2624 54.7259 66.2624 55.2869C66.2624 55.8504 66.1677 56.344 65.9783 56.7678C65.7913 57.1915 65.5285 57.5218 65.19 57.7585C64.8538 57.9953 64.4632 58.1136 64.0181 58.1136C63.6867 58.1136 63.4097 58.0545 63.1871 57.9361C62.967 57.8177 62.7894 57.6721 62.6545 57.4993C62.5195 57.3241 62.4154 57.1536 62.342 56.9879H62.2638V58H61.6495ZM62.2745 55.2763C62.2745 55.7166 62.3396 56.1072 62.4698 56.4482C62.6024 56.7867 62.7918 57.053 63.038 57.2472C63.2866 57.4389 63.5872 57.5348 63.94 57.5348C64.3022 57.5348 64.6088 57.4354 64.8597 57.2365C65.1107 57.0353 65.3013 56.7642 65.4315 56.4233C65.5617 56.0824 65.6268 55.7 65.6268 55.2763C65.6268 54.8572 65.5617 54.4796 65.4315 54.1435C65.3036 53.8073 65.1142 53.541 64.8633 53.3445C64.6123 53.1456 64.3046 53.0462 63.94 53.0462C63.5849 53.0462 63.283 53.142 63.0344 53.3338C62.7882 53.5232 62.6 53.786 62.4698 54.1222C62.3396 54.456 62.2745 54.8407 62.2745 55.2763ZM67.7823 58V50.7273H68.418V53.5859H68.4748C68.5458 53.4226 68.6476 53.2545 68.7802 53.0817C68.9151 52.9089 69.0915 52.7644 69.3093 52.6484C69.5295 52.5301 69.8065 52.4709 70.1403 52.4709C70.5877 52.4709 70.9807 52.5893 71.3192 52.826C71.6578 53.0604 71.9218 53.3894 72.1112 53.8132C72.3005 54.2346 72.3952 54.7259 72.3952 55.2869C72.3952 55.8504 72.3005 56.344 72.1112 56.7678C71.9241 57.1915 71.6613 57.5218 71.3228 57.7585C70.9866 57.9953 70.596 58.1136 70.1509 58.1136C69.8195 58.1136 69.5425 58.0545 69.32 57.9361C69.0998 57.8177 68.9222 57.6721 68.7873 57.4993C68.6523 57.3241 68.5482 57.1536 68.4748 56.9879H68.3967V58H67.7823ZM68.4073 55.2763C68.4073 55.7166 68.4724 56.1072 68.6026 56.4482C68.7352 56.7867 68.9246 57.053 69.1708 57.2472C69.4194 57.4389 69.7201 57.5348 70.0728 57.5348C70.435 57.5348 70.7416 57.4354 70.9925 57.2365C71.2435 57.0353 71.4341 56.7642 71.5643 56.4233C71.6945 56.0824 71.7596 55.7 71.7596 55.2763C71.7596 54.8572 71.6945 54.4796 71.5643 54.1435C71.4364 53.8073 71.247 53.541 70.9961 53.3445C70.7451 53.1456 70.4374 53.0462 70.0728 53.0462C69.7177 53.0462 69.4158 53.142 69.1673 53.3338C68.921 53.5232 68.7328 53.786 68.6026 54.1222C68.4724 54.456 68.4073 54.8407 68.4073 55.2763ZM74.0288 60.0455C73.9033 60.0455 73.7861 60.0336 73.6772 60.0099C73.5683 59.9863 73.4819 59.9602 73.418 59.9318L73.5884 59.3743C73.8039 59.4406 73.9956 59.4643 74.1637 59.4453C74.3318 59.4287 74.4809 59.353 74.6112 59.218C74.7414 59.0855 74.8574 58.8819 74.9592 58.6072L75.158 58.0533L73.1516 52.5455H73.837L75.4563 57.1655H75.506L77.1254 52.5455H77.8107L75.5025 58.8629C75.4054 59.1257 75.2859 59.3447 75.1438 59.5199C75.0018 59.6974 74.8372 59.8288 74.6502 59.9141C74.4656 60.0017 74.2584 60.0455 74.0288 60.0455Z" fill="#222222"/>
<rect x="0.5" y="0.5" width="109" height="109" stroke="#555555"/>
<rect x="38.5" y="76.5" width="109" height="109" fill="white" stroke="#555555"/>
<rect x="102.778" y="8.56879" width="109" height="109" transform="rotate(8.55202 102.778 8.56879)" fill="white" stroke="#555555"/>
<path d="M63.4993 130.742L62.9205 130.906C62.8636 130.742 62.7831 130.594 62.679 130.462C62.5748 130.329 62.4387 130.224 62.2706 130.146C62.1049 130.067 61.8989 130.028 61.6527 130.028C61.2834 130.028 60.9804 130.116 60.7436 130.291C60.5069 130.466 60.3885 130.692 60.3885 130.969C60.3885 131.204 60.469 131.394 60.63 131.541C60.7933 131.686 61.0443 131.8 61.3828 131.886L62.2067 132.088C62.6636 132.199 63.0057 132.376 63.233 132.617C63.4626 132.859 63.5774 133.162 63.5774 133.526C63.5774 133.834 63.4922 134.107 63.3217 134.347C63.1513 134.586 62.9134 134.774 62.608 134.911C62.3049 135.046 61.9534 135.114 61.5533 135.114C61.0206 135.114 60.5814 134.994 60.2358 134.755C59.8902 134.513 59.6688 134.165 59.5717 133.711L60.179 133.562C60.2571 133.886 60.4098 134.131 60.6371 134.297C60.8667 134.463 61.1686 134.545 61.5426 134.545C61.9616 134.545 62.2966 134.452 62.5476 134.265C62.7985 134.076 62.924 133.839 62.924 133.555C62.924 133.335 62.8506 133.15 62.7038 133.001C62.5571 132.849 62.3345 132.738 62.0362 132.667L61.1449 132.454C60.6714 132.34 60.321 132.16 60.0938 131.914C59.8665 131.668 59.7528 131.362 59.7528 130.998C59.7528 130.697 59.8345 130.433 59.9979 130.206C60.1612 129.976 60.3861 129.796 60.6726 129.666C60.959 129.536 61.2857 129.471 61.6527 129.471C62.1522 129.471 62.5511 129.585 62.8494 129.812C63.1501 130.037 63.3667 130.347 63.4993 130.742ZM67.1099 129.545V130.096H64.5069V129.545H67.1099ZM65.3201 128.239H65.9558V133.576C65.9558 133.803 65.9949 133.982 66.073 134.112C66.1511 134.24 66.2529 134.331 66.3784 134.386C66.5038 134.438 66.6376 134.464 66.7797 134.464C66.8625 134.464 66.9335 134.459 66.9927 134.45C67.0519 134.438 67.104 134.426 67.149 134.414L67.2839 134.986C67.2224 135.009 67.1466 135.031 67.0566 135.05C66.9667 135.071 66.8554 135.082 66.7228 135.082C66.4908 135.082 66.2671 135.031 66.0517 134.929C65.8386 134.827 65.6634 134.676 65.5261 134.474C65.3888 134.273 65.3201 134.023 65.3201 133.725V128.239ZM72.0114 132.915V129.545H72.6435V135H72.0114V134.094H71.9616C71.8338 134.374 71.6314 134.607 71.3544 134.794C71.0774 134.979 70.7389 135.071 70.3388 135.071C69.9908 135.071 69.6818 134.995 69.4119 134.844C69.142 134.69 68.9302 134.465 68.7763 134.169C68.6224 133.873 68.5455 133.51 68.5455 133.079V129.545H69.1776V133.04C69.1776 133.466 69.303 133.809 69.554 134.07C69.8049 134.328 70.1269 134.457 70.5199 134.457C70.7661 134.457 71.0028 134.397 71.2301 134.279C71.4574 134.161 71.6444 133.988 71.7912 133.761C71.938 133.531 72.0114 133.249 72.0114 132.915ZM76.2807 135.114C75.8333 135.114 75.4415 134.995 75.1053 134.759C74.7691 134.522 74.5063 134.192 74.3169 133.768C74.1299 133.344 74.0364 132.85 74.0364 132.287C74.0364 131.726 74.1299 131.235 74.3169 130.813C74.5063 130.389 74.7703 130.06 75.1088 129.826C75.4474 129.589 75.8416 129.471 76.2914 129.471C76.6228 129.471 76.8986 129.53 77.1188 129.648C77.339 129.764 77.5153 129.909 77.6479 130.082C77.7805 130.254 77.8835 130.423 77.9569 130.586H78.0137V127.727H78.6493V135H78.0314V133.988H77.9569C77.8835 134.154 77.7793 134.324 77.6444 134.499C77.5094 134.672 77.3307 134.818 77.1081 134.936C76.888 135.054 76.6122 135.114 76.2807 135.114ZM76.3553 134.535C76.708 134.535 77.0087 134.439 77.2573 134.247C77.5059 134.053 77.6953 133.787 77.8255 133.448C77.958 133.107 78.0243 132.717 78.0243 132.276C78.0243 131.841 77.9592 131.456 77.829 131.122C77.6988 130.786 77.5094 130.523 77.2608 130.334C77.0123 130.142 76.7104 130.046 76.3553 130.046C75.9907 130.046 75.6829 130.146 75.432 130.344C75.1834 130.541 74.994 130.807 74.8638 131.143C74.736 131.48 74.6721 131.857 74.6721 132.276C74.6721 132.7 74.7372 133.082 74.8674 133.423C74.9976 133.764 75.187 134.035 75.4355 134.237C75.6865 134.435 75.9931 134.535 76.3553 134.535ZM82.655 135.114C82.146 135.114 81.7057 134.995 81.334 134.759C80.9623 134.519 80.6747 134.189 80.4711 133.768C80.2698 133.344 80.1692 132.856 80.1692 132.305C80.1692 131.755 80.2698 131.268 80.4711 130.842C80.6747 130.413 80.9552 130.078 81.3127 129.837C81.6725 129.593 82.088 129.471 82.5591 129.471C82.8551 129.471 83.1403 129.525 83.415 129.634C83.6896 129.741 83.9358 129.905 84.1536 130.128C84.3738 130.348 84.5478 130.626 84.6756 130.962C84.8034 131.296 84.8674 131.692 84.8674 132.148V132.461H80.606V131.903H84.2211C84.2211 131.553 84.15 131.238 84.008 130.959C83.8683 130.677 83.673 130.455 83.4221 130.291C83.1735 130.128 82.8858 130.046 82.5591 130.046C82.2135 130.046 81.9093 130.138 81.6465 130.323C81.3837 130.508 81.1777 130.752 81.0286 131.055C80.8818 131.358 80.8072 131.689 80.8049 132.049V132.383C80.8049 132.816 80.8794 133.195 81.0286 133.519C81.1801 133.841 81.3944 134.091 81.6713 134.268C81.9483 134.446 82.2762 134.535 82.655 134.535C82.9131 134.535 83.1391 134.495 83.3333 134.414C83.5298 134.334 83.6943 134.226 83.8269 134.091C83.9618 133.954 84.0636 133.803 84.1323 133.64L84.7324 133.835C84.6496 134.065 84.5134 134.277 84.324 134.471C84.137 134.665 83.9026 134.821 83.6209 134.94C83.3416 135.056 83.0196 135.114 82.655 135.114ZM86.8924 131.591V135H86.2603V129.545H86.8746V130.401H86.9315C87.0593 130.122 87.2582 129.898 87.5281 129.73C87.8003 129.56 88.1365 129.474 88.5366 129.474C88.9035 129.474 89.2255 129.551 89.5025 129.705C89.7818 129.857 89.9985 130.08 90.1523 130.376C90.3086 130.672 90.3867 131.036 90.3867 131.467V135H89.7546V131.506C89.7546 131.058 89.6291 130.704 89.3782 130.444C89.1296 130.183 88.7958 130.053 88.3768 130.053C88.0903 130.053 87.8358 130.115 87.6133 130.238C87.3907 130.361 87.2144 130.539 87.0842 130.771C86.9563 131 86.8924 131.274 86.8924 131.591ZM94.1998 129.545V130.096H91.5968V129.545H94.1998ZM92.41 128.239H93.0456V133.576C93.0456 133.803 93.0847 133.982 93.1628 134.112C93.2409 134.24 93.3427 134.331 93.4682 134.386C93.5937 134.438 93.7275 134.464 93.8695 134.464C93.9524 134.464 94.0234 134.459 94.0826 134.45C94.1417 134.438 94.1938 134.426 94.2388 134.414L94.3738 134.986C94.3122 135.009 94.2364 135.031 94.1465 135.05C94.0565 135.071 93.9453 135.082 93.8127 135.082C93.5807 135.082 93.3569 135.031 93.1415 134.929C92.9284 134.827 92.7533 134.676 92.6159 134.474C92.4786 134.273 92.41 134.023 92.41 133.725V128.239ZM99.2024 130.742L98.6236 130.906C98.5668 130.742 98.4863 130.594 98.3821 130.462C98.2779 130.329 98.1418 130.224 97.9737 130.146C97.808 130.067 97.602 130.028 97.3558 130.028C96.9865 130.028 96.6835 130.116 96.4467 130.291C96.21 130.466 96.0916 130.692 96.0916 130.969C96.0916 131.204 96.1721 131.394 96.3331 131.541C96.4964 131.686 96.7474 131.8 97.0859 131.886L97.9098 132.088C98.3667 132.199 98.7088 132.376 98.9361 132.617C99.1657 132.859 99.2805 133.162 99.2805 133.526C99.2805 133.834 99.1953 134.107 99.0249 134.347C98.8544 134.586 98.6165 134.774 98.3111 134.911C98.008 135.046 97.6565 135.114 97.2564 135.114C96.7237 135.114 96.2846 134.994 95.9389 134.755C95.5933 134.513 95.3719 134.165 95.2749 133.711L95.8821 133.562C95.9602 133.886 96.1129 134.131 96.3402 134.297C96.5698 134.463 96.8717 134.545 97.2457 134.545C97.6648 134.545 97.9998 134.452 98.2507 134.265C98.5017 134.076 98.6271 133.839 98.6271 133.555C98.6271 133.335 98.5537 133.15 98.407 133.001C98.2602 132.849 98.0376 132.738 97.7393 132.667L96.848 132.454C96.3745 132.34 96.0241 132.16 95.7969 131.914C95.5696 131.668 95.456 131.362 95.456 130.998C95.456 130.697 95.5376 130.433 95.701 130.206C95.8643 129.976 96.0893 129.796 96.3757 129.666C96.6622 129.536 96.9889 129.471 97.3558 129.471C97.8554 129.471 98.2543 129.585 98.5526 129.812C98.8532 130.037 99.0698 130.347 99.2024 130.742ZM105.721 129.545V130.096H103.04V129.545H105.721ZM103.878 135V128.746C103.878 128.453 103.946 128.205 104.081 128.004C104.218 127.803 104.397 127.65 104.617 127.546C104.837 127.442 105.07 127.39 105.317 127.39C105.482 127.39 105.62 127.404 105.729 127.433C105.84 127.459 105.927 127.485 105.991 127.511L105.807 128.065C105.759 128.05 105.701 128.034 105.633 128.015C105.564 127.996 105.478 127.987 105.373 127.987C105.099 127.987 104.887 128.063 104.738 128.217C104.589 128.371 104.514 128.591 104.514 128.878L104.51 135H103.878ZM106.983 135V129.545H107.597V130.384H107.643C107.752 130.109 107.942 129.888 108.212 129.719C108.484 129.549 108.792 129.464 109.135 129.464C109.187 129.464 109.245 129.465 109.309 129.467C109.373 129.47 109.426 129.472 109.469 129.474V130.117C109.44 130.112 109.391 130.105 109.32 130.096C109.249 130.086 109.172 130.082 109.089 130.082C108.805 130.082 108.551 130.142 108.329 130.263C108.109 130.381 107.935 130.546 107.807 130.756C107.679 130.967 107.615 131.207 107.615 131.477V135H106.983ZM112.501 135.114C112.03 135.114 111.614 134.994 111.251 134.755C110.892 134.516 110.61 134.186 110.406 133.764C110.203 133.34 110.101 132.852 110.101 132.298C110.101 131.739 110.203 131.248 110.406 130.824C110.61 130.398 110.892 130.066 111.251 129.83C111.614 129.59 112.03 129.471 112.501 129.471C112.973 129.471 113.388 129.59 113.748 129.83C114.108 130.069 114.389 130.4 114.593 130.824C114.799 131.248 114.902 131.739 114.902 132.298C114.902 132.852 114.8 133.34 114.597 133.764C114.393 134.186 114.11 134.516 113.748 134.755C113.388 134.994 112.973 135.114 112.501 135.114ZM112.501 134.535C112.88 134.535 113.201 134.433 113.464 134.229C113.727 134.026 113.925 133.755 114.06 133.416C114.198 133.078 114.266 132.705 114.266 132.298C114.266 131.89 114.198 131.516 114.06 131.175C113.925 130.835 113.727 130.561 113.464 130.355C113.201 130.149 112.88 130.046 112.501 130.046C112.125 130.046 111.804 130.149 111.539 130.355C111.276 130.561 111.076 130.835 110.939 131.175C110.804 131.516 110.737 131.89 110.737 132.298C110.737 132.705 110.804 133.078 110.939 133.416C111.076 133.755 111.276 134.026 111.539 134.229C111.802 134.433 112.123 134.535 112.501 134.535ZM116.29 135V129.545H116.904V130.384H116.961C117.07 130.102 117.251 129.88 117.504 129.719C117.76 129.556 118.066 129.474 118.424 129.474C118.8 129.474 119.109 129.563 119.351 129.741C119.595 129.916 119.777 130.157 119.898 130.465H119.944C120.067 130.162 120.267 129.922 120.544 129.744C120.823 129.564 121.162 129.474 121.559 129.474C122.066 129.474 122.466 129.634 122.76 129.954C123.053 130.271 123.2 130.735 123.2 131.346V135H122.568V131.346C122.568 130.915 122.458 130.592 122.238 130.376C122.018 130.161 121.728 130.053 121.368 130.053C120.951 130.053 120.63 130.181 120.405 130.437C120.18 130.692 120.068 131.017 120.068 131.41V135H119.422V131.289C119.422 130.92 119.319 130.621 119.113 130.394C118.907 130.167 118.617 130.053 118.243 130.053C117.992 130.053 117.766 130.115 117.564 130.238C117.366 130.361 117.208 130.533 117.092 130.753C116.979 130.971 116.922 131.222 116.922 131.506V135H116.29ZM61.358 147.124C61.0289 147.124 60.7282 147.06 60.456 146.933C60.1837 146.802 59.9671 146.615 59.8061 146.371C59.6451 146.125 59.5646 145.827 59.5646 145.477C59.5646 145.207 59.6155 144.979 59.7173 144.795C59.8191 144.61 59.9635 144.459 60.1506 144.34C60.3376 144.222 60.5589 144.128 60.8146 144.06C61.0703 143.991 61.352 143.938 61.6598 143.9C61.9652 143.862 62.2232 143.829 62.4339 143.8C62.647 143.772 62.8092 143.727 62.9205 143.665C63.0317 143.604 63.0874 143.504 63.0874 143.367V143.239C63.0874 142.868 62.9761 142.575 62.7536 142.362C62.5334 142.147 62.2161 142.039 61.8018 142.039C61.4089 142.039 61.0881 142.125 60.8395 142.298C60.5933 142.471 60.4205 142.675 60.321 142.909L59.7209 142.692C59.844 142.394 60.0144 142.156 60.2322 141.979C60.45 141.799 60.6939 141.67 60.9638 141.592C61.2337 141.511 61.5071 141.471 61.7841 141.471C61.9924 141.471 62.209 141.498 62.4339 141.553C62.6612 141.607 62.8719 141.702 63.0661 141.837C63.2602 141.969 63.4176 142.155 63.5384 142.394C63.6591 142.631 63.7195 142.932 63.7195 143.296V147H63.0874V146.137H63.0483C62.9725 146.298 62.8601 146.454 62.7109 146.606C62.5618 146.757 62.3748 146.882 62.1499 146.979C61.925 147.076 61.661 147.124 61.358 147.124ZM61.4432 146.545C61.7794 146.545 62.0705 146.471 62.3168 146.322C62.563 146.173 62.7524 145.975 62.8849 145.729C63.0199 145.48 63.0874 145.207 63.0874 144.908V144.12C63.04 144.165 62.9607 144.205 62.8494 144.241C62.7405 144.276 62.6139 144.308 62.4695 144.337C62.3274 144.363 62.1854 144.385 62.0433 144.404C61.9013 144.423 61.7734 144.44 61.6598 144.454C61.352 144.492 61.0893 144.551 60.8714 144.631C60.6536 144.712 60.4867 144.823 60.3707 144.965C60.2547 145.105 60.1967 145.285 60.1967 145.505C60.1967 145.836 60.3151 146.093 60.5518 146.276C60.7886 146.455 61.0857 146.545 61.4432 146.545ZM65.4009 147V141.545H66.0153V142.384H66.0614C66.1703 142.109 66.3597 141.888 66.6296 141.719C66.9019 141.549 67.2096 141.464 67.5529 141.464C67.605 141.464 67.663 141.465 67.7269 141.467C67.7908 141.47 67.8441 141.472 67.8867 141.474V142.117C67.8583 142.112 67.8086 142.105 67.7376 142.096C67.6665 142.086 67.5896 142.082 67.5067 142.082C67.2227 142.082 66.9693 142.142 66.7468 142.263C66.5266 142.381 66.3526 142.546 66.2248 142.756C66.0969 142.967 66.033 143.207 66.033 143.477V147H65.4009ZM71.4556 141.545V142.096H68.8526V141.545H71.4556ZM69.6658 140.239H70.3015V145.576C70.3015 145.803 70.3406 145.982 70.4187 146.112C70.4968 146.24 70.5986 146.331 70.7241 146.386C70.8496 146.438 70.9833 146.464 71.1254 146.464C71.2082 146.464 71.2792 146.459 71.3384 146.45C71.3976 146.438 71.4497 146.426 71.4947 146.414L71.6296 146.986C71.5681 147.009 71.4923 147.031 71.4023 147.05C71.3124 147.071 71.2011 147.082 71.0685 147.082C70.8365 147.082 70.6128 147.031 70.3974 146.929C70.1843 146.827 70.0091 146.676 69.8718 146.474C69.7345 146.273 69.6658 146.023 69.6658 145.725V140.239ZM75.7037 147V141.545H76.318V142.384H76.3642C76.4731 142.109 76.6625 141.888 76.9324 141.719C77.2046 141.549 77.5124 141.464 77.8556 141.464C77.9077 141.464 77.9657 141.465 78.0297 141.467C78.0936 141.47 78.1468 141.472 78.1895 141.474V142.117C78.161 142.112 78.1113 142.105 78.0403 142.096C77.9693 142.086 77.8923 142.082 77.8095 142.082C77.5254 142.082 77.2721 142.142 77.0495 142.263C76.8294 142.381 76.6554 142.546 76.5275 142.756C76.3997 142.967 76.3358 143.207 76.3358 143.477V147H75.7037ZM81.3074 147.114C80.7984 147.114 80.358 146.995 79.9863 146.759C79.6146 146.519 79.327 146.189 79.1234 145.768C78.9222 145.344 78.8216 144.856 78.8216 144.305C78.8216 143.755 78.9222 143.268 79.1234 142.842C79.327 142.413 79.6075 142.078 79.965 141.837C80.3249 141.593 80.7404 141.471 81.2115 141.471C81.5074 141.471 81.7927 141.525 82.0673 141.634C82.3419 141.741 82.5881 141.905 82.8059 142.128C83.0261 142.348 83.2001 142.626 83.3279 142.962C83.4558 143.296 83.5197 143.692 83.5197 144.148V144.461H79.2583V143.903H82.8734C82.8734 143.553 82.8024 143.238 82.6603 142.959C82.5207 142.677 82.3253 142.455 82.0744 142.291C81.8258 142.128 81.5382 142.046 81.2115 142.046C80.8658 142.046 80.5616 142.138 80.2988 142.323C80.036 142.508 79.8301 142.752 79.6809 143.055C79.5342 143.358 79.4596 143.689 79.4572 144.049V144.383C79.4572 144.816 79.5318 145.195 79.6809 145.519C79.8324 145.841 80.0467 146.091 80.3237 146.268C80.6007 146.446 80.9286 146.535 81.3074 146.535C81.5654 146.535 81.7915 146.495 81.9856 146.414C82.1821 146.334 82.3467 146.226 82.4792 146.091C82.6142 145.954 82.716 145.803 82.7846 145.64L83.3848 145.835C83.3019 146.065 83.1658 146.277 82.9764 146.471C82.7894 146.665 82.555 146.821 82.2733 146.94C81.9939 147.056 81.6719 147.114 81.3074 147.114ZM85.5447 139.727V147H84.9126V139.727H85.5447ZM88.7408 147.124C88.4117 147.124 88.111 147.06 87.8388 146.933C87.5665 146.802 87.3499 146.615 87.1889 146.371C87.0279 146.125 86.9474 145.827 86.9474 145.477C86.9474 145.207 86.9983 144.979 87.1001 144.795C87.2019 144.61 87.3464 144.459 87.5334 144.34C87.7204 144.222 87.9418 144.128 88.1974 144.06C88.4531 143.991 88.7348 143.938 89.0426 143.9C89.348 143.862 89.6061 143.829 89.8168 143.8C90.0298 143.772 90.192 143.727 90.3033 143.665C90.4145 143.604 90.4702 143.504 90.4702 143.367V143.239C90.4702 142.868 90.3589 142.575 90.1364 142.362C89.9162 142.147 89.599 142.039 89.1847 142.039C88.7917 142.039 88.4709 142.125 88.2223 142.298C87.9761 142.471 87.8033 142.675 87.7038 142.909L87.1037 142.692C87.2268 142.394 87.3973 142.156 87.6151 141.979C87.8329 141.799 88.0767 141.67 88.3466 141.592C88.6165 141.511 88.8899 141.471 89.1669 141.471C89.3752 141.471 89.5919 141.498 89.8168 141.553C90.044 141.607 90.2547 141.702 90.4489 141.837C90.643 141.969 90.8004 142.155 90.9212 142.394C91.0419 142.631 91.1023 142.932 91.1023 143.296V147H90.4702V146.137H90.4311C90.3554 146.298 90.2429 146.454 90.0938 146.606C89.9446 146.757 89.7576 146.882 89.5327 146.979C89.3078 147.076 89.0438 147.124 88.7408 147.124ZM88.826 146.545C89.1622 146.545 89.4534 146.471 89.6996 146.322C89.9458 146.173 90.1352 145.975 90.2678 145.729C90.4027 145.48 90.4702 145.207 90.4702 144.908V144.12C90.4228 144.165 90.3435 144.205 90.2322 144.241C90.1233 144.276 89.9967 144.308 89.8523 144.337C89.7102 144.363 89.5682 144.385 89.4261 144.404C89.2841 144.423 89.1562 144.44 89.0426 144.454C88.7348 144.492 88.4721 144.551 88.2543 144.631C88.0365 144.712 87.8696 144.823 87.7536 144.965C87.6375 145.105 87.5795 145.285 87.5795 145.505C87.5795 145.836 87.6979 146.093 87.9347 146.276C88.1714 146.455 88.4685 146.545 88.826 146.545ZM94.9322 141.545V142.096H92.3292V141.545H94.9322ZM93.1424 140.239H93.7781V145.576C93.7781 145.803 93.8171 145.982 93.8952 146.112C93.9734 146.24 94.0752 146.331 94.2006 146.386C94.3261 146.438 94.4599 146.464 94.6019 146.464C94.6848 146.464 94.7558 146.459 94.815 146.45C94.8742 146.438 94.9263 146.426 94.9712 146.414L95.1062 146.986C95.0446 147.009 94.9689 147.031 94.8789 147.05C94.7889 147.071 94.6777 147.082 94.5451 147.082C94.3131 147.082 94.0894 147.031 93.8739 146.929C93.6609 146.827 93.4857 146.676 93.3484 146.474C93.2111 146.273 93.1424 146.023 93.1424 145.725V140.239ZM98.5144 147.114C98.0054 147.114 97.565 146.995 97.1934 146.759C96.8217 146.519 96.534 146.189 96.3304 145.768C96.1292 145.344 96.0286 144.856 96.0286 144.305C96.0286 143.755 96.1292 143.268 96.3304 142.842C96.534 142.413 96.8146 142.078 97.1721 141.837C97.5319 141.593 97.9474 141.471 98.4185 141.471C98.7144 141.471 98.9997 141.525 99.2743 141.634C99.5489 141.741 99.7952 141.905 100.013 142.128C100.233 142.348 100.407 142.626 100.535 142.962C100.663 143.296 100.727 143.692 100.727 144.148V144.461H96.4654V143.903H100.08C100.08 143.553 100.009 143.238 99.8674 142.959C99.7277 142.677 99.5324 142.455 99.2814 142.291C99.0328 142.128 98.7452 142.046 98.4185 142.046C98.0729 142.046 97.7686 142.138 97.5059 142.323C97.2431 142.508 97.0371 142.752 96.888 143.055C96.7412 143.358 96.6666 143.689 96.6642 144.049V144.383C96.6642 144.816 96.7388 145.195 96.888 145.519C97.0395 145.841 97.2537 146.091 97.5307 146.268C97.8077 146.446 98.1356 146.535 98.5144 146.535C98.7724 146.535 98.9985 146.495 99.1926 146.414C99.3891 146.334 99.5537 146.226 99.6863 146.091C99.8212 145.954 99.923 145.803 99.9917 145.64L100.592 145.835C100.509 146.065 100.373 146.277 100.183 146.471C99.9964 146.665 99.762 146.821 99.4803 146.94C99.2009 147.056 98.879 147.114 98.5144 147.114ZM104.083 147.114C103.636 147.114 103.244 146.995 102.908 146.759C102.572 146.522 102.309 146.192 102.12 145.768C101.933 145.344 101.839 144.85 101.839 144.287C101.839 143.726 101.933 143.235 102.12 142.813C102.309 142.389 102.573 142.06 102.912 141.826C103.25 141.589 103.644 141.471 104.094 141.471C104.426 141.471 104.701 141.53 104.922 141.648C105.142 141.764 105.318 141.909 105.451 142.082C105.583 142.254 105.686 142.423 105.76 142.586H105.816V139.727H106.452V147H105.834V145.988H105.76C105.686 146.154 105.582 146.324 105.447 146.499C105.312 146.672 105.133 146.818 104.911 146.936C104.691 147.054 104.415 147.114 104.083 147.114ZM104.158 146.535C104.511 146.535 104.811 146.439 105.06 146.247C105.309 146.053 105.498 145.787 105.628 145.448C105.761 145.107 105.827 144.717 105.827 144.276C105.827 143.841 105.762 143.456 105.632 143.122C105.502 142.786 105.312 142.523 105.064 142.334C104.815 142.142 104.513 142.046 104.158 142.046C103.793 142.046 103.486 142.146 103.235 142.344C102.986 142.541 102.797 142.807 102.667 143.143C102.539 143.48 102.475 143.857 102.475 144.276C102.475 144.7 102.54 145.082 102.67 145.423C102.8 145.764 102.99 146.035 103.238 146.237C103.489 146.435 103.796 146.535 104.158 146.535ZM113.196 147.114C112.708 147.114 112.283 146.992 111.921 146.748C111.561 146.504 111.282 146.17 111.083 145.746C110.884 145.323 110.784 144.84 110.784 144.298C110.784 143.751 110.885 143.264 111.086 142.838C111.29 142.412 111.572 142.078 111.931 141.837C112.291 141.593 112.709 141.471 113.185 141.471C113.55 141.471 113.88 141.542 114.176 141.684C114.472 141.824 114.716 142.021 114.907 142.277C115.101 142.53 115.223 142.826 115.273 143.165H114.634C114.568 142.857 114.408 142.594 114.154 142.376C113.904 142.156 113.584 142.046 113.196 142.046C112.848 142.046 112.54 142.141 112.272 142.33C112.005 142.517 111.795 142.779 111.644 143.115C111.495 143.449 111.42 143.836 111.42 144.276C111.42 144.719 111.493 145.111 111.64 145.452C111.787 145.79 111.993 146.055 112.258 146.247C112.526 146.439 112.838 146.535 113.196 146.535C113.437 146.535 113.657 146.49 113.856 146.4C114.057 146.308 114.225 146.177 114.36 146.009C114.498 145.841 114.59 145.641 114.637 145.409H115.277C115.229 145.738 115.112 146.032 114.925 146.29C114.74 146.545 114.5 146.747 114.204 146.893C113.911 147.04 113.574 147.114 113.196 147.114ZM118.751 147.114C118.28 147.114 117.864 146.994 117.501 146.755C117.142 146.516 116.86 146.186 116.656 145.764C116.453 145.34 116.351 144.852 116.351 144.298C116.351 143.739 116.453 143.248 116.656 142.824C116.86 142.398 117.142 142.066 117.501 141.83C117.864 141.59 118.28 141.471 118.751 141.471C119.223 141.471 119.638 141.59 119.998 141.83C120.358 142.069 120.639 142.4 120.843 142.824C121.049 143.248 121.152 143.739 121.152 144.298C121.152 144.852 121.05 145.34 120.847 145.764C120.643 146.186 120.36 146.516 119.998 146.755C119.638 146.994 119.223 147.114 118.751 147.114ZM118.751 146.535C119.13 146.535 119.451 146.433 119.714 146.229C119.977 146.026 120.175 145.755 120.31 145.416C120.448 145.078 120.516 144.705 120.516 144.298C120.516 143.89 120.448 143.516 120.31 143.175C120.175 142.835 119.977 142.561 119.714 142.355C119.451 142.149 119.13 142.046 118.751 142.046C118.375 142.046 118.054 142.149 117.789 142.355C117.526 142.561 117.326 142.835 117.189 143.175C117.054 143.516 116.987 143.89 116.987 144.298C116.987 144.705 117.054 145.078 117.189 145.416C117.326 145.755 117.526 146.026 117.789 146.229C118.052 146.433 118.373 146.535 118.751 146.535ZM126.006 144.915V141.545H126.638V147H126.006V146.094H125.956C125.828 146.374 125.626 146.607 125.349 146.794C125.072 146.979 124.733 147.071 124.333 147.071C123.985 147.071 123.676 146.995 123.406 146.844C123.136 146.69 122.924 146.465 122.77 146.169C122.617 145.873 122.54 145.51 122.54 145.079V141.545H123.172V145.04C123.172 145.466 123.297 145.809 123.548 146.07C123.799 146.328 124.121 146.457 124.514 146.457C124.76 146.457 124.997 146.397 125.224 146.279C125.452 146.161 125.639 145.988 125.785 145.761C125.932 145.531 126.006 145.249 126.006 144.915ZM128.311 147V141.545H128.925V142.384H128.972C129.08 142.109 129.27 141.888 129.54 141.719C129.812 141.549 130.12 141.464 130.463 141.464C130.515 141.464 130.573 141.465 130.637 141.467C130.701 141.47 130.754 141.472 130.797 141.474V142.117C130.768 142.112 130.719 142.105 130.648 142.096C130.577 142.086 130.5 142.082 130.417 142.082C130.133 142.082 129.879 142.142 129.657 142.263C129.437 142.381 129.263 142.546 129.135 142.756C129.007 142.967 128.943 143.207 128.943 143.477V147H128.311ZM135.54 142.742L134.961 142.906C134.905 142.742 134.824 142.594 134.72 142.462C134.616 142.329 134.48 142.224 134.312 142.146C134.146 142.067 133.94 142.028 133.694 142.028C133.324 142.028 133.021 142.116 132.785 142.291C132.548 142.466 132.43 142.692 132.43 142.969C132.43 143.204 132.51 143.394 132.671 143.541C132.834 143.686 133.085 143.8 133.424 143.886L134.248 144.088C134.705 144.199 135.047 144.376 135.274 144.617C135.504 144.859 135.618 145.162 135.618 145.526C135.618 145.834 135.533 146.107 135.363 146.347C135.192 146.586 134.954 146.774 134.649 146.911C134.346 147.046 133.994 147.114 133.594 147.114C133.062 147.114 132.622 146.994 132.277 146.755C131.931 146.513 131.71 146.165 131.613 145.711L132.22 145.562C132.298 145.886 132.451 146.131 132.678 146.297C132.908 146.463 133.21 146.545 133.584 146.545C134.003 146.545 134.338 146.452 134.589 146.265C134.84 146.076 134.965 145.839 134.965 145.555C134.965 145.335 134.892 145.15 134.745 145.001C134.598 144.849 134.376 144.738 134.077 144.667L133.186 144.454C132.712 144.34 132.362 144.16 132.135 143.914C131.907 143.668 131.794 143.362 131.794 142.998C131.794 142.697 131.876 142.433 132.039 142.206C132.202 141.976 132.427 141.796 132.714 141.666C133 141.536 133.327 141.471 133.694 141.471C134.193 141.471 134.592 141.585 134.89 141.812C135.191 142.037 135.408 142.347 135.54 142.742ZM139.208 147.114C138.699 147.114 138.258 146.995 137.887 146.759C137.515 146.519 137.227 146.189 137.024 145.768C136.823 145.344 136.722 144.856 136.722 144.305C136.722 143.755 136.823 143.268 137.024 142.842C137.227 142.413 137.508 142.078 137.865 141.837C138.225 141.593 138.641 141.471 139.112 141.471C139.408 141.471 139.693 141.525 139.968 141.634C140.242 141.741 140.489 141.905 140.706 142.128C140.926 142.348 141.1 142.626 141.228 142.962C141.356 143.296 141.42 143.692 141.42 144.148V144.461H137.159V143.903H140.774C140.774 143.553 140.703 143.238 140.561 142.959C140.421 142.677 140.226 142.455 139.975 142.291C139.726 142.128 139.439 142.046 139.112 142.046C138.766 142.046 138.462 142.138 138.199 142.323C137.936 142.508 137.73 142.752 137.581 143.055C137.435 143.358 137.36 143.689 137.358 144.049V144.383C137.358 144.816 137.432 145.195 137.581 145.519C137.733 145.841 137.947 146.091 138.224 146.268C138.501 146.446 138.829 146.535 139.208 146.535C139.466 146.535 139.692 146.495 139.886 146.414C140.083 146.334 140.247 146.226 140.38 146.091C140.515 145.954 140.616 145.803 140.685 145.64L141.285 145.835C141.202 146.065 141.066 146.277 140.877 146.471C140.69 146.665 140.455 146.821 140.174 146.94C139.894 147.056 139.572 147.114 139.208 147.114ZM146.478 142.742L145.899 142.906C145.842 142.742 145.762 142.594 145.657 142.462C145.553 142.329 145.417 142.224 145.249 142.146C145.083 142.067 144.877 142.028 144.631 142.028C144.262 142.028 143.959 142.116 143.722 142.291C143.485 142.466 143.367 142.692 143.367 142.969C143.367 143.204 143.448 143.394 143.608 143.541C143.772 143.686 144.023 143.8 144.361 143.886L145.185 144.088C145.642 144.199 145.984 144.376 146.211 144.617C146.441 144.859 146.556 145.162 146.556 145.526C146.556 145.834 146.471 146.107 146.3 146.347C146.13 146.586 145.892 146.774 145.586 146.911C145.283 147.046 144.932 147.114 144.532 147.114C143.999 147.114 143.56 146.994 143.214 146.755C142.869 146.513 142.647 146.165 142.55 145.711L143.157 145.562C143.236 145.886 143.388 146.131 143.616 146.297C143.845 146.463 144.147 146.545 144.521 146.545C144.94 146.545 145.275 146.452 145.526 146.265C145.777 146.076 145.903 145.839 145.903 145.555C145.903 145.335 145.829 145.15 145.682 145.001C145.536 144.849 145.313 144.738 145.015 144.667L144.123 144.454C143.65 144.34 143.3 144.16 143.072 143.914C142.845 143.668 142.731 143.362 142.731 142.998C142.731 142.697 142.813 142.433 142.976 142.206C143.14 141.976 143.365 141.796 143.651 141.666C143.938 141.536 144.264 141.471 144.631 141.471C145.131 141.471 145.53 141.585 145.828 141.812C146.129 142.037 146.345 142.347 146.478 142.742Z" fill="#222222"/>
<path d="M115.835 72.0455V64.5455H116.449V65.5859H116.523C116.599 65.4226 116.703 65.2557 116.836 65.0852C116.969 64.9124 117.144 64.7668 117.362 64.6484C117.582 64.5301 117.859 64.4709 118.192 64.4709C118.642 64.4709 119.035 64.5893 119.371 64.826C119.71 65.0604 119.973 65.3894 120.16 65.8132C120.349 66.2346 120.444 66.7259 120.444 67.2869C120.444 67.8504 120.349 68.344 120.16 68.7678C119.973 69.1915 119.71 69.5218 119.371 69.7585C119.035 69.9953 118.645 70.1136 118.2 70.1136C117.871 70.1136 117.595 70.0545 117.372 69.9361C117.152 69.8177 116.973 69.6721 116.836 69.4993C116.701 69.3241 116.597 69.1536 116.523 68.9879H116.467V72.0455H115.835ZM116.46 67.2763C116.46 67.7166 116.525 68.1072 116.655 68.4482C116.787 68.7867 116.977 69.053 117.223 69.2472C117.472 69.4389 117.772 69.5348 118.125 69.5348C118.487 69.5348 118.793 69.4354 119.041 69.2365C119.292 69.0353 119.483 68.7642 119.613 68.4233C119.746 68.0824 119.812 67.7 119.812 67.2763C119.812 66.8572 119.747 66.4796 119.616 66.1435C119.489 65.8073 119.299 65.541 119.048 65.3445C118.797 65.1456 118.49 65.0462 118.125 65.0462C117.77 65.0462 117.468 65.142 117.219 65.3338C116.971 65.5232 116.781 65.786 116.651 66.1222C116.523 66.456 116.46 66.8407 116.46 67.2763ZM124.036 70.1136C123.527 70.1136 123.087 69.9953 122.715 69.7585C122.343 69.5194 122.056 69.1892 121.852 68.7678C121.651 68.344 121.55 67.8563 121.55 67.3047C121.55 66.7554 121.651 66.2678 121.852 65.8416C122.056 65.4131 122.336 65.0781 122.694 64.8366C123.053 64.5928 123.469 64.4709 123.94 64.4709C124.236 64.4709 124.521 64.5253 124.796 64.6342C125.07 64.7408 125.317 64.9053 125.534 65.1278C125.755 65.348 125.929 65.6262 126.056 65.9624C126.184 66.2962 126.248 66.6915 126.248 67.1484V67.4609H121.987V66.9034H125.602C125.602 66.553 125.531 66.2382 125.389 65.9588C125.249 65.6771 125.054 65.4545 124.803 65.2912C124.554 65.1278 124.267 65.0462 123.94 65.0462C123.594 65.0462 123.29 65.1385 123.027 65.3232C122.765 65.5078 122.559 65.7517 122.409 66.0547C122.263 66.3577 122.188 66.6892 122.186 67.049V67.3828C122.186 67.8161 122.26 68.1948 122.409 68.5192C122.561 68.8411 122.775 69.0909 123.052 69.2685C123.329 69.446 123.657 69.5348 124.036 69.5348C124.294 69.5348 124.52 69.4946 124.714 69.4141C124.911 69.3336 125.075 69.2259 125.208 69.0909C125.343 68.9536 125.444 68.8033 125.513 68.6399L126.113 68.8352C126.03 69.0649 125.894 69.2768 125.705 69.4709C125.518 69.665 125.283 69.8213 125.002 69.9396C124.722 70.0556 124.4 70.1136 124.036 70.1136ZM129.761 70.1136C129.29 70.1136 128.873 69.9941 128.511 69.755C128.151 69.5159 127.87 69.1856 127.666 68.7642C127.462 68.3404 127.361 67.8516 127.361 67.2976C127.361 66.7389 127.462 66.2476 127.666 65.8239C127.87 65.3977 128.151 65.0663 128.511 64.8295C128.873 64.5904 129.29 64.4709 129.761 64.4709C130.232 64.4709 130.648 64.5904 131.008 64.8295C131.367 65.0687 131.649 65.4001 131.853 65.8239C132.059 66.2476 132.162 66.7389 132.162 67.2976C132.162 67.8516 132.06 68.3404 131.856 68.7642C131.653 69.1856 131.37 69.5159 131.008 69.755C130.648 69.9941 130.232 70.1136 129.761 70.1136ZM129.761 69.5348C130.14 69.5348 130.461 69.433 130.724 69.2294C130.986 69.0258 131.185 68.7547 131.32 68.4162C131.457 68.0777 131.526 67.7048 131.526 67.2976C131.526 66.8904 131.457 66.5163 131.32 66.1754C131.185 65.8345 130.986 65.5611 130.724 65.3551C130.461 65.1491 130.14 65.0462 129.761 65.0462C129.385 65.0462 129.064 65.1491 128.799 65.3551C128.536 65.5611 128.336 65.8345 128.199 66.1754C128.064 66.5163 127.996 66.8904 127.996 67.2976C127.996 67.7048 128.064 68.0777 128.199 68.4162C128.336 68.7547 128.536 69.0258 128.799 69.2294C129.062 69.433 129.382 69.5348 129.761 69.5348ZM133.549 72.0455V64.5455H134.164V65.5859H134.238C134.314 65.4226 134.418 65.2557 134.551 65.0852C134.683 64.9124 134.859 64.7668 135.076 64.6484C135.297 64.5301 135.574 64.4709 135.907 64.4709C136.357 64.4709 136.75 64.5893 137.086 64.826C137.425 65.0604 137.688 65.3894 137.875 65.8132C138.064 66.2346 138.159 66.7259 138.159 67.2869C138.159 67.8504 138.064 68.344 137.875 68.7678C137.688 69.1915 137.425 69.5218 137.086 69.7585C136.75 69.9953 136.359 70.1136 135.914 70.1136C135.585 70.1136 135.31 70.0545 135.087 69.9361C134.867 69.8177 134.688 69.6721 134.551 69.4993C134.416 69.3241 134.312 69.1536 134.238 68.9879H134.181V72.0455H133.549ZM134.174 67.2763C134.174 67.7166 134.239 68.1072 134.37 68.4482C134.502 68.7867 134.692 69.053 134.938 69.2472C135.186 69.4389 135.487 69.5348 135.84 69.5348C136.202 69.5348 136.507 69.4354 136.756 69.2365C137.007 69.0353 137.198 68.7642 137.328 68.4233C137.46 68.0824 137.527 67.7 137.527 67.2763C137.527 66.8572 137.462 66.4796 137.331 66.1435C137.203 65.8073 137.014 65.541 136.763 65.3445C136.512 65.1456 136.204 65.0462 135.84 65.0462C135.485 65.0462 135.183 65.142 134.934 65.3338C134.686 65.5232 134.496 65.786 134.366 66.1222C134.238 66.456 134.174 66.8407 134.174 67.2763ZM140.178 62.7273V70H139.545V62.7273H140.178ZM144.055 70.1136C143.546 70.1136 143.106 69.9953 142.734 69.7585C142.363 69.5194 142.075 69.1892 141.871 68.7678C141.67 68.344 141.57 67.8563 141.57 67.3047C141.57 66.7554 141.67 66.2678 141.871 65.8416C142.075 65.4131 142.356 65.0781 142.713 64.8366C143.073 64.5928 143.488 64.4709 143.96 64.4709C144.255 64.4709 144.541 64.5253 144.815 64.6342C145.09 64.7408 145.336 64.9053 145.554 65.1278C145.774 65.348 145.948 65.6262 146.076 65.9624C146.204 66.2962 146.268 66.6915 146.268 67.1484V67.4609H142.006V66.9034H145.621C145.621 66.553 145.55 66.2382 145.408 65.9588C145.269 65.6771 145.073 65.4545 144.822 65.2912C144.574 65.1278 144.286 65.0462 143.96 65.0462C143.614 65.0462 143.31 65.1385 143.047 65.3232C142.784 65.5078 142.578 65.7517 142.429 66.0547C142.282 66.3577 142.208 66.6892 142.205 67.049V67.3828C142.205 67.8161 142.28 68.1948 142.429 68.5192C142.58 68.8411 142.795 69.0909 143.072 69.2685C143.349 69.446 143.677 69.5348 144.055 69.5348C144.313 69.5348 144.54 69.4946 144.734 69.4141C144.93 69.3336 145.095 69.2259 145.227 69.0909C145.362 68.9536 145.464 68.8033 145.533 68.6399L146.133 68.8352C146.05 69.0649 145.914 69.2768 145.724 69.4709C145.537 69.665 145.303 69.8213 145.021 69.9396C144.742 70.0556 144.42 70.1136 144.055 70.1136ZM151.105 62.7273V70H150.473V62.7273H151.105ZM154.898 70.1136C154.427 70.1136 154.01 69.9941 153.648 69.755C153.288 69.5159 153.006 69.1856 152.803 68.7642C152.599 68.3404 152.497 67.8516 152.497 67.2976C152.497 66.7389 152.599 66.2476 152.803 65.8239C153.006 65.3977 153.288 65.0663 153.648 64.8295C154.01 64.5904 154.427 64.4709 154.898 64.4709C155.369 64.4709 155.785 64.5904 156.144 64.8295C156.504 65.0687 156.786 65.4001 156.99 65.8239C157.195 66.2476 157.298 66.7389 157.298 67.2976C157.298 67.8516 157.197 68.3404 156.993 68.7642C156.789 69.1856 156.507 69.5159 156.144 69.755C155.785 69.9941 155.369 70.1136 154.898 70.1136ZM154.898 69.5348C155.277 69.5348 155.597 69.433 155.86 69.2294C156.123 69.0258 156.322 68.7547 156.457 68.4162C156.594 68.0777 156.663 67.7048 156.663 67.2976C156.663 66.8904 156.594 66.5163 156.457 66.1754C156.322 65.8345 156.123 65.5611 155.86 65.3551C155.597 65.1491 155.277 65.0462 154.898 65.0462C154.521 65.0462 154.201 65.1491 153.936 65.3551C153.673 65.5611 153.473 65.8345 153.335 66.1754C153.2 66.5163 153.133 66.8904 153.133 67.2976C153.133 67.7048 153.2 68.0777 153.335 68.4162C153.473 68.7547 153.673 69.0258 153.936 69.2294C154.198 69.433 154.519 69.5348 154.898 69.5348ZM160.806 70.1136C160.335 70.1136 159.918 69.9941 159.556 69.755C159.196 69.5159 158.915 69.1856 158.711 68.7642C158.507 68.3404 158.406 67.8516 158.406 67.2976C158.406 66.7389 158.507 66.2476 158.711 65.8239C158.915 65.3977 159.196 65.0663 159.556 64.8295C159.918 64.5904 160.335 64.4709 160.806 64.4709C161.277 64.4709 161.693 64.5904 162.053 64.8295C162.412 65.0687 162.694 65.4001 162.898 65.8239C163.104 66.2476 163.207 66.7389 163.207 67.2976C163.207 67.8516 163.105 68.3404 162.901 68.7642C162.698 69.1856 162.415 69.5159 162.053 69.755C161.693 69.9941 161.277 70.1136 160.806 70.1136ZM160.806 69.5348C161.185 69.5348 161.506 69.433 161.768 69.2294C162.031 69.0258 162.23 68.7547 162.365 68.4162C162.502 68.0777 162.571 67.7048 162.571 67.2976C162.571 66.8904 162.502 66.5163 162.365 66.1754C162.23 65.8345 162.031 65.5611 161.768 65.3551C161.506 65.1491 161.185 65.0462 160.806 65.0462C160.43 65.0462 160.109 65.1491 159.844 65.3551C159.581 65.5611 159.381 65.8345 159.244 66.1754C159.109 66.5163 159.041 66.8904 159.041 67.2976C159.041 67.7048 159.109 68.0777 159.244 68.4162C159.381 68.7547 159.581 69.0258 159.844 69.2294C160.107 69.433 160.427 69.5348 160.806 69.5348ZM165.17 67.9403L165.162 67.1129H165.305L167.861 64.5455H168.66L166.135 67.0739L166.079 67.0845L165.17 67.9403ZM164.594 70V62.7273H165.226V70H164.594ZM167.993 70L165.777 67.1982L166.231 66.7614L168.802 70H167.993ZM169.855 70V64.5455H170.491V70H169.855ZM170.178 63.608C170.048 63.608 169.937 63.5642 169.845 63.4766C169.752 63.3866 169.706 63.2789 169.706 63.1534C169.706 63.0279 169.752 62.9214 169.845 62.8338C169.937 62.7438 170.048 62.6989 170.178 62.6989C170.309 62.6989 170.42 62.7438 170.512 62.8338C170.605 62.9214 170.651 63.0279 170.651 63.1534C170.651 63.2789 170.605 63.3866 170.512 63.4766C170.42 63.5642 170.309 63.608 170.178 63.608ZM172.795 66.5909V70H172.163V64.5455H172.777V65.4013H172.834C172.962 65.1219 173.161 64.8982 173.43 64.7301C173.703 64.5597 174.039 64.4744 174.439 64.4744C174.806 64.4744 175.128 64.5514 175.405 64.7053C175.684 64.8568 175.901 65.0805 176.055 65.3764C176.211 65.6723 176.289 66.0357 176.289 66.4666V70H175.657V66.5057C175.657 66.0582 175.531 65.7043 175.281 65.4439C175.032 65.1835 174.698 65.0533 174.279 65.0533C173.993 65.0533 173.738 65.1148 173.516 65.2379C173.293 65.361 173.117 65.5386 172.987 65.7706C172.859 66.0002 172.795 66.2737 172.795 66.5909ZM180.035 72.1591C179.663 72.1591 179.337 72.1106 179.058 72.0135C178.779 71.9188 178.543 71.7886 178.351 71.6229C178.16 71.4571 178.01 71.2713 177.904 71.0653L178.422 70.7244C178.501 70.8617 178.605 70.9967 178.735 71.1293C178.867 71.2618 179.039 71.3719 179.25 71.4595C179.463 71.5471 179.724 71.5909 180.035 71.5909C180.518 71.5909 180.907 71.4702 181.203 71.2287C181.501 70.9872 181.65 70.612 181.65 70.103V68.8743H181.594C181.52 69.04 181.415 69.2057 181.278 69.3714C181.14 69.5348 180.96 69.6709 180.738 69.7798C180.518 69.8887 180.244 69.9432 179.917 69.9432C179.482 69.9432 179.095 69.8355 178.756 69.62C178.42 69.4046 178.155 69.0968 177.961 68.6967C177.769 68.2943 177.673 67.8149 177.673 67.2585C177.673 66.7069 177.767 66.2216 177.954 65.8026C178.143 65.3835 178.407 65.0568 178.746 64.8224C179.084 64.5881 179.478 64.4709 179.928 64.4709C180.262 64.4709 180.539 64.5301 180.759 64.6484C180.979 64.7644 181.156 64.9089 181.288 65.0817C181.423 65.2545 181.528 65.4226 181.604 65.5859H181.668V64.5455H182.286V70.142C182.286 70.6037 182.188 70.9837 181.991 71.282C181.795 71.5803 181.527 71.8004 181.189 71.9425C180.85 72.0869 180.465 72.1591 180.035 72.1591ZM179.992 69.3643C180.342 69.3643 180.642 69.2803 180.89 69.1122C181.139 68.9418 181.33 68.6979 181.462 68.3807C181.595 68.0634 181.661 67.6858 181.661 67.2479C181.661 66.8217 181.596 66.4441 181.466 66.1151C181.336 65.7836 181.146 65.5232 180.898 65.3338C180.651 65.142 180.349 65.0462 179.992 65.0462C179.627 65.0462 179.32 65.1444 179.069 65.3409C178.818 65.5374 178.628 65.8026 178.501 66.1364C178.373 66.4678 178.309 66.8383 178.309 67.2479C178.309 67.6645 178.374 68.0327 178.504 68.3523C178.634 68.6695 178.825 68.9181 179.076 69.098C179.327 69.2756 179.632 69.3643 179.992 69.3643ZM118.079 76.5455V77.0959H115.398V76.5455H118.079ZM116.236 82V75.7464C116.236 75.4529 116.303 75.2055 116.438 75.0043C116.576 74.803 116.754 74.6503 116.974 74.5462C117.195 74.442 117.428 74.3899 117.674 74.3899C117.84 74.3899 117.977 74.4041 118.086 74.4325C118.197 74.4586 118.285 74.4846 118.349 74.5107L118.164 75.0646C118.117 75.0504 118.059 75.0339 117.99 75.0149C117.921 74.996 117.835 74.9865 117.731 74.9865C117.456 74.9865 117.244 75.0634 117.095 75.2173C116.946 75.3712 116.871 75.5914 116.871 75.8778L116.868 82H116.236ZM121.236 82.1136C120.765 82.1136 120.348 81.9941 119.986 81.755C119.626 81.5159 119.344 81.1856 119.141 80.7642C118.937 80.3404 118.835 79.8516 118.835 79.2976C118.835 78.7389 118.937 78.2476 119.141 77.8239C119.344 77.3977 119.626 77.0663 119.986 76.8295C120.348 76.5904 120.765 76.4709 121.236 76.4709C121.707 76.4709 122.122 76.5904 122.482 76.8295C122.842 77.0687 123.124 77.4001 123.327 77.8239C123.533 78.2476 123.636 78.7389 123.636 79.2976C123.636 79.8516 123.535 80.3404 123.331 80.7642C123.127 81.1856 122.844 81.5159 122.482 81.755C122.122 81.9941 121.707 82.1136 121.236 82.1136ZM121.236 81.5348C121.615 81.5348 121.935 81.433 122.198 81.2294C122.461 81.0258 122.66 80.7547 122.795 80.4162C122.932 80.0777 123.001 79.7048 123.001 79.2976C123.001 78.8904 122.932 78.5163 122.795 78.1754C122.66 77.8345 122.461 77.5611 122.198 77.3551C121.935 77.1491 121.615 77.0462 121.236 77.0462C120.859 77.0462 120.539 77.1491 120.273 77.3551C120.011 77.5611 119.811 77.8345 119.673 78.1754C119.538 78.5163 119.471 78.8904 119.471 79.2976C119.471 79.7048 119.538 80.0777 119.673 80.4162C119.811 80.7547 120.011 81.0258 120.273 81.2294C120.536 81.433 120.857 81.5348 121.236 81.5348ZM125.024 82V76.5455H125.638V77.3835H125.684C125.793 77.1089 125.983 76.8875 126.253 76.7195C126.525 76.549 126.833 76.4638 127.176 76.4638C127.228 76.4638 127.286 76.465 127.35 76.4673C127.414 76.4697 127.467 76.4721 127.51 76.4744V77.1172C127.481 77.1125 127.432 77.1054 127.361 77.0959C127.29 77.0864 127.213 77.0817 127.13 77.0817C126.846 77.0817 126.592 77.142 126.37 77.2628C126.15 77.3812 125.976 77.5457 125.848 77.7564C125.72 77.9671 125.656 78.2074 125.656 78.4773V82H125.024ZM132.924 82.1243C132.595 82.1243 132.295 82.0604 132.022 81.9325C131.75 81.8023 131.533 81.6153 131.373 81.3714C131.212 81.1252 131.131 80.8269 131.131 80.4766C131.131 80.2067 131.182 79.9794 131.284 79.7947C131.386 79.6101 131.53 79.4586 131.717 79.3402C131.904 79.2218 132.125 79.1283 132.381 79.0597C132.637 78.991 132.918 78.9377 133.226 78.8999C133.532 78.862 133.79 78.8288 134 78.8004C134.213 78.772 134.376 78.727 134.487 78.6655C134.598 78.6039 134.654 78.5045 134.654 78.3672V78.2393C134.654 77.8677 134.542 77.5753 134.32 77.3622C134.1 77.1468 133.783 77.0391 133.368 77.0391C132.975 77.0391 132.654 77.1255 132.406 77.2983C132.16 77.4711 131.987 77.6747 131.887 77.9091L131.287 77.6925C131.41 77.3942 131.581 77.1562 131.799 76.9787C132.016 76.7988 132.26 76.6697 132.53 76.5916C132.8 76.5111 133.074 76.4709 133.35 76.4709C133.559 76.4709 133.775 76.4981 134 76.5526C134.228 76.607 134.438 76.7017 134.632 76.8366C134.827 76.9692 134.984 77.1551 135.105 77.3942C135.225 77.6309 135.286 77.9316 135.286 78.2962V82H134.654V81.1371H134.615C134.539 81.2981 134.426 81.4543 134.277 81.6058C134.128 81.7573 133.941 81.8816 133.716 81.9787C133.491 82.0758 133.227 82.1243 132.924 82.1243ZM133.01 81.5455C133.346 81.5455 133.637 81.4709 133.883 81.3217C134.129 81.1726 134.319 80.9749 134.451 80.7287C134.586 80.4801 134.654 80.2067 134.654 79.9084V79.12C134.606 79.165 134.527 79.2053 134.416 79.2408C134.307 79.2763 134.18 79.3082 134.036 79.3366C133.894 79.3627 133.752 79.3852 133.61 79.4041C133.468 79.4231 133.34 79.4396 133.226 79.4538C132.918 79.4917 132.656 79.5509 132.438 79.6314C132.22 79.7119 132.053 79.8232 131.937 79.9652C131.821 80.1049 131.763 80.2848 131.763 80.505C131.763 80.8364 131.882 81.0933 132.118 81.2756C132.355 81.4555 132.652 81.5455 133.01 81.5455ZM140.412 78.5909V82H139.78V74.7273H140.412V77.4013H140.469C140.597 77.1196 140.794 76.8946 141.062 76.7266C141.332 76.5585 141.673 76.4744 142.085 76.4744C142.454 76.4744 142.778 76.5502 143.058 76.7017C143.337 76.8532 143.555 77.0769 143.711 77.3729C143.867 77.6688 143.945 78.0334 143.945 78.4666V82H143.31V78.5057C143.31 78.0559 143.184 77.7019 142.933 77.4439C142.685 77.1835 142.348 77.0533 141.925 77.0533C141.634 77.0533 141.374 77.1148 141.147 77.2379C140.92 77.361 140.74 77.5386 140.607 77.7706C140.477 78.0002 140.412 78.2737 140.412 78.5909ZM147.73 82.1136C147.259 82.1136 146.842 81.9941 146.48 81.755C146.12 81.5159 145.838 81.1856 145.635 80.7642C145.431 80.3404 145.329 79.8516 145.329 79.2976C145.329 78.7389 145.431 78.2476 145.635 77.8239C145.838 77.3977 146.12 77.0663 146.48 76.8295C146.842 76.5904 147.259 76.4709 147.73 76.4709C148.201 76.4709 148.617 76.5904 148.976 76.8295C149.336 77.0687 149.618 77.4001 149.822 77.8239C150.028 78.2476 150.131 78.7389 150.131 79.2976C150.131 79.8516 150.029 80.3404 149.825 80.7642C149.622 81.1856 149.339 81.5159 148.976 81.755C148.617 81.9941 148.201 82.1136 147.73 82.1136ZM147.73 81.5348C148.109 81.5348 148.43 81.433 148.692 81.2294C148.955 81.0258 149.154 80.7547 149.289 80.4162C149.426 80.0777 149.495 79.7048 149.495 79.2976C149.495 78.8904 149.426 78.5163 149.289 78.1754C149.154 77.8345 148.955 77.5611 148.692 77.3551C148.43 77.1491 148.109 77.0462 147.73 77.0462C147.354 77.0462 147.033 77.1491 146.768 77.3551C146.505 77.5611 146.305 77.8345 146.167 78.1754C146.032 78.5163 145.965 78.8904 145.965 79.2976C145.965 79.7048 146.032 80.0777 146.167 80.4162C146.305 80.7547 146.505 81.0258 146.768 81.2294C147.03 81.433 147.351 81.5348 147.73 81.5348ZM151.65 82V74.7273H152.285V77.5859H152.342C152.413 77.4226 152.515 77.2545 152.647 77.0817C152.782 76.9089 152.959 76.7644 153.176 76.6484C153.397 76.5301 153.674 76.4709 154.007 76.4709C154.455 76.4709 154.848 76.5893 155.186 76.826C155.525 77.0604 155.789 77.3894 155.978 77.8132C156.168 78.2346 156.262 78.7259 156.262 79.2869C156.262 79.8504 156.168 80.344 155.978 80.7678C155.791 81.1915 155.529 81.5218 155.19 81.7585C154.854 81.9953 154.463 82.1136 154.018 82.1136C153.687 82.1136 153.41 82.0545 153.187 81.9361C152.967 81.8177 152.789 81.6721 152.654 81.4993C152.52 81.3241 152.415 81.1536 152.342 80.9879H152.264V82H151.65ZM152.275 79.2763C152.275 79.7166 152.34 80.1072 152.47 80.4482C152.602 80.7867 152.792 81.053 153.038 81.2472C153.287 81.4389 153.587 81.5348 153.94 81.5348C154.302 81.5348 154.609 81.4354 154.86 81.2365C155.111 81.0353 155.301 80.7642 155.431 80.4233C155.562 80.0824 155.627 79.7 155.627 79.2763C155.627 78.8572 155.562 78.4796 155.431 78.1435C155.304 77.8073 155.114 77.541 154.863 77.3445C154.612 77.1456 154.305 77.0462 153.94 77.0462C153.585 77.0462 153.283 77.142 153.034 77.3338C152.788 77.5232 152.6 77.786 152.47 78.1222C152.34 78.456 152.275 78.8407 152.275 79.2763ZM157.782 82V74.7273H158.418V77.5859H158.475C158.546 77.4226 158.648 77.2545 158.78 77.0817C158.915 76.9089 159.092 76.7644 159.309 76.6484C159.529 76.5301 159.806 76.4709 160.14 76.4709C160.588 76.4709 160.981 76.5893 161.319 76.826C161.658 77.0604 161.922 77.3894 162.111 77.8132C162.301 78.2346 162.395 78.7259 162.395 79.2869C162.395 79.8504 162.301 80.344 162.111 80.7678C161.924 81.1915 161.661 81.5218 161.323 81.7585C160.987 81.9953 160.596 82.1136 160.151 82.1136C159.819 82.1136 159.542 82.0545 159.32 81.9361C159.1 81.8177 158.922 81.6721 158.787 81.4993C158.652 81.3241 158.548 81.1536 158.475 80.9879H158.397V82H157.782ZM158.407 79.2763C158.407 79.7166 158.472 80.1072 158.603 80.4482C158.735 80.7867 158.925 81.053 159.171 81.2472C159.419 81.4389 159.72 81.5348 160.073 81.5348C160.435 81.5348 160.742 81.4354 160.993 81.2365C161.243 81.0353 161.434 80.7642 161.564 80.4233C161.694 80.0824 161.76 79.7 161.76 79.2763C161.76 78.8572 161.694 78.4796 161.564 78.1435C161.436 77.8073 161.247 77.541 160.996 77.3445C160.745 77.1456 160.437 77.0462 160.073 77.0462C159.718 77.0462 159.416 77.142 159.167 77.3338C158.921 77.5232 158.733 77.786 158.603 78.1222C158.472 78.456 158.407 78.8407 158.407 79.2763ZM164.029 84.0455C163.903 84.0455 163.786 84.0336 163.677 84.0099C163.568 83.9863 163.482 83.9602 163.418 83.9318L163.588 83.3743C163.804 83.4406 163.996 83.4643 164.164 83.4453C164.332 83.4287 164.481 83.353 164.611 83.218C164.741 83.0855 164.857 82.8819 164.959 82.6072L165.158 82.0533L163.152 76.5455H163.837L165.456 81.1655H165.506L167.125 76.5455H167.811L165.502 82.8629C165.405 83.1257 165.286 83.3447 165.144 83.5199C165.002 83.6974 164.837 83.8288 164.65 83.9141C164.466 84.0017 164.258 84.0455 164.029 84.0455Z" fill="#222222"/>
</svg>
