<svg width="136" height="136" viewBox="0 0 136 136" fill="none" xmlns="http://www.w3.org/2000/svg">
<path d="M45.9205 63.4545V54.4545H46.892V55.4943H47.0114C47.0852 55.3807 47.1875 55.2358 47.3182 55.0597C47.4517 54.8807 47.642 54.7216 47.8892 54.5824C48.1392 54.4403 48.4773 54.3693 48.9034 54.3693C49.4545 54.3693 49.9403 54.5071 50.3608 54.7827C50.7813 55.0582 51.1094 55.4489 51.3452 55.9545C51.581 56.4602 51.6989 57.0568 51.6989 57.7443C51.6989 58.4375 51.581 59.0384 51.3452 59.5469C51.1094 60.0526 50.7827 60.4446 50.3651 60.723C49.9474 60.9986 49.4659 61.1364 48.9205 61.1364C48.5 61.1364 48.1634 61.0668 47.9105 60.9276C47.6577 60.7855 47.4631 60.625 47.3267 60.446C47.1903 60.2642 47.0852 60.1136 47.0114 59.9943H46.9261V63.4545H45.9205ZM46.9091 57.7273C46.9091 58.2216 46.9815 58.6577 47.1264 59.0355C47.2713 59.4105 47.483 59.7045 47.7614 59.9176C48.0398 60.1278 48.3807 60.233 48.7841 60.233C49.2045 60.233 49.5554 60.1222 49.8366 59.9006C50.1207 59.6761 50.3338 59.375 50.4759 58.9972C50.6207 58.6165 50.6932 58.1932 50.6932 57.7273C50.6932 57.267 50.6222 56.8523 50.4801 56.483C50.3409 56.1108 50.1293 55.8168 49.8452 55.6009C49.5639 55.3821 49.2102 55.2727 48.7841 55.2727C48.375 55.2727 48.0313 55.3764 47.7528 55.5838C47.4744 55.7884 47.2642 56.0753 47.1222 56.4446C46.9801 56.8111 46.9091 57.2386 46.9091 57.7273ZM55.892 61.1364C55.3011 61.1364 54.7827 60.9957 54.3366 60.7145C53.8935 60.4332 53.5469 60.0398 53.2969 59.5341C53.0497 59.0284 52.9261 58.4375 52.9261 57.7614C52.9261 57.0795 53.0497 56.4844 53.2969 55.9759C53.5469 55.4673 53.8935 55.0724 54.3366 54.7912C54.7827 54.5099 55.3011 54.3693 55.892 54.3693C56.483 54.3693 57 54.5099 57.4432 54.7912C57.8892 55.0724 58.2358 55.4673 58.483 55.9759C58.733 56.4844 58.858 57.0795 58.858 57.7614C58.858 58.4375 58.733 59.0284 58.483 59.5341C58.2358 60.0398 57.8892 60.4332 57.4432 60.7145C57 60.9957 56.483 61.1364 55.892 61.1364ZM55.892 60.233C56.3409 60.233 56.7102 60.1179 57 59.8878C57.2898 59.6577 57.5043 59.3551 57.6435 58.9801C57.7827 58.6051 57.8523 58.1989 57.8523 57.7614C57.8523 57.3239 57.7827 56.9162 57.6435 56.5384C57.5043 56.1605 57.2898 55.8551 57 55.6222C56.7102 55.3892 56.3409 55.2727 55.892 55.2727C55.4432 55.2727 55.0739 55.3892 54.7841 55.6222C54.4943 55.8551 54.2798 56.1605 54.1406 56.5384C54.0014 56.9162 53.9318 57.3239 53.9318 57.7614C53.9318 58.1989 54.0014 58.6051 54.1406 58.9801C54.2798 59.3551 54.4943 59.6577 54.7841 59.8878C55.0739 60.1179 55.4432 60.233 55.892 60.233ZM65.0295 55.9205L64.1261 56.1761C64.0692 56.0256 63.9854 55.8793 63.8746 55.7372C63.7667 55.5923 63.619 55.473 63.4315 55.3793C63.244 55.2855 63.0039 55.2386 62.7113 55.2386C62.3107 55.2386 61.9769 55.331 61.7099 55.5156C61.4457 55.6974 61.3136 55.929 61.3136 56.2102C61.3136 56.4602 61.4045 56.6577 61.5863 56.8026C61.7681 56.9474 62.0522 57.0682 62.4386 57.1648L63.4102 57.4034C63.9954 57.5455 64.4315 57.7628 64.7184 58.0554C65.0053 58.3452 65.1488 58.7187 65.1488 59.1761C65.1488 59.5511 65.0408 59.8864 64.8249 60.1818C64.6119 60.4773 64.3136 60.7102 63.93 60.8807C63.5465 61.0511 63.1005 61.1364 62.592 61.1364C61.9244 61.1364 61.3718 60.9915 60.9343 60.7017C60.4968 60.4119 60.2198 59.9886 60.1033 59.4318L61.0579 59.1932C61.1488 59.5455 61.3207 59.8097 61.5735 59.9858C61.8292 60.1619 62.163 60.25 62.5749 60.25C63.0437 60.25 63.4158 60.1506 63.6914 59.9517C63.9698 59.75 64.109 59.5085 64.109 59.2273C64.109 59 64.0295 58.8097 63.8704 58.6562C63.7113 58.5 63.467 58.3835 63.1374 58.3068L62.0465 58.0511C61.4471 57.9091 61.0067 57.6889 60.7255 57.3906C60.4471 57.0895 60.3079 56.7131 60.3079 56.2614C60.3079 55.892 60.4116 55.5653 60.619 55.2812C60.8292 54.9972 61.1147 54.7741 61.4755 54.6122C61.8391 54.4503 62.2511 54.3693 62.7113 54.3693C63.359 54.3693 63.8675 54.5114 64.2369 54.7955C64.609 55.0795 64.8732 55.4545 65.0295 55.9205ZM69.5092 54.4545V55.3068H66.1172V54.4545H69.5092ZM67.1058 52.8864H68.1115V59.125C68.1115 59.4091 68.1527 59.6222 68.2351 59.7642C68.3203 59.9034 68.4283 59.9972 68.5589 60.0455C68.6925 60.0909 68.8331 60.1136 68.9808 60.1136C69.0916 60.1136 69.1825 60.108 69.2536 60.0966C69.3246 60.0824 69.3814 60.071 69.424 60.0625L69.6286 60.9659C69.5604 60.9915 69.4652 61.017 69.343 61.0426C69.2209 61.071 69.0661 61.0852 68.8786 61.0852C68.5945 61.0852 68.3161 61.0241 68.0433 60.902C67.7734 60.7798 67.549 60.5938 67.37 60.3438C67.1939 60.0938 67.1058 59.7784 67.1058 59.3977V52.8864ZM74.5376 56.7898V57.7273H70.7195V56.7898H74.5376ZM76.3072 61V54.4545H77.3129V61H76.3072ZM76.8185 53.3636C76.6225 53.3636 76.4535 53.2969 76.3114 53.1634C76.1722 53.0298 76.1026 52.8693 76.1026 52.6818C76.1026 52.4943 76.1722 52.3338 76.3114 52.2003C76.4535 52.0668 76.6225 52 76.8185 52C77.0146 52 77.1822 52.0668 77.3214 52.2003C77.4634 52.3338 77.5344 52.4943 77.5344 52.6818C77.5344 52.8693 77.4634 53.0298 77.3214 53.1634C77.1822 53.2969 77.0146 53.3636 76.8185 53.3636ZM82.0014 54.4545V55.3068H78.6094V54.4545H82.0014ZM79.598 52.8864H80.6037V59.125C80.6037 59.4091 80.6449 59.6222 80.7273 59.7642C80.8125 59.9034 80.9205 59.9972 81.0511 60.0455C81.1847 60.0909 81.3253 60.1136 81.473 60.1136C81.5838 60.1136 81.6747 60.108 81.7457 60.0966C81.8168 60.0824 81.8736 60.071 81.9162 60.0625L82.1207 60.9659C82.0526 60.9915 81.9574 61.017 81.8352 61.0426C81.7131 61.071 81.5582 61.0852 81.3707 61.0852C81.0866 61.0852 80.8082 61.0241 80.5355 60.902C80.2656 60.7798 80.0412 60.5938 79.8622 60.3438C79.6861 60.0938 79.598 59.7784 79.598 59.3977V52.8864Z" fill="#333333"/>
<rect x="0.5" y="0.5" width="127" height="127" stroke="#333333"/>
<line x1="128" y1="2.5" x2="130" y2="2.5" stroke="#333333"/>
<line x1="130" y1="4.5" x2="132" y2="4.5" stroke="#333333"/>
<line x1="132" y1="6.5" x2="134" y2="6.5" stroke="#333333"/>
<line x1="134" y1="8.5" x2="136" y2="8.5" stroke="#333333"/>
<line x1="129.5" y1="2" x2="129.5" y2="130" stroke="#333333"/>
<line x1="133.5" y1="6" x2="133.5" y2="134" stroke="#333333"/>
<line x1="131.5" y1="4" x2="131.5" y2="132" stroke="#333333"/>
<line x1="135.5" y1="8" x2="135.5" y2="136" stroke="#333333"/>
<line x1="129" y1="129.5" x2="3" y2="129.5" stroke="#333333"/>
<line x1="132" y1="131.5" x2="5" y2="131.5" stroke="#333333"/>
<line x1="134" y1="133.5" x2="7" y2="133.5" stroke="#333333"/>
<line x1="136" y1="135.5" x2="9" y2="135.5" stroke="#333333"/>
<line x1="2.5" y1="130" x2="2.5" y2="128" stroke="black"/>
<line x1="4.5" y1="132" x2="4.5" y2="130" stroke="black"/>
<line x1="6.5" y1="134" x2="6.5" y2="132" stroke="black"/>
<line x1="8.5" y1="136" x2="8.5" y2="134" stroke="black"/>
</svg>
