<svg width="146" height="146" viewBox="0 0 146 146" fill="none" xmlns="http://www.w3.org/2000/svg">
<rect x="19.6818" y="0.56955" width="127" height="127" transform="rotate(8.65526 19.6818 0.56955)" fill="white" stroke="#333333"/>
<path d="M32.9207 68.4545V59.4545H33.8923V60.4943H34.0116C34.0855 60.3807 34.1877 60.2358 34.3184 60.0597C34.4519 59.8807 34.6423 59.7216 34.8894 59.5824C35.1394 59.4403 35.4775 59.3693 35.9037 59.3693C36.4548 59.3693 36.9406 59.5071 37.361 59.7827C37.7815 60.0582 38.1096 60.4489 38.3454 60.9545C38.5812 61.4602 38.6991 62.0568 38.6991 62.7443C38.6991 63.4375 38.5812 64.0384 38.3454 64.5469C38.1096 65.0526 37.7829 65.4446 37.3653 65.723C36.9477 65.9986 36.4662 66.1364 35.9207 66.1364C35.5002 66.1364 35.1636 66.0668 34.9108 65.9276C34.6579 65.7855 34.4633 65.625 34.3269 65.446C34.1906 65.2642 34.0855 65.1136 34.0116 64.9943H33.9264V68.4545H32.9207ZM33.9093 62.7273C33.9093 63.2216 33.9818 63.6577 34.1267 64.0355C34.2716 64.4105 34.4832 64.7045 34.7616 64.9176C35.04 65.1278 35.3809 65.233 35.7843 65.233C36.2048 65.233 36.5556 65.1222 36.8369 64.9006C37.121 64.6761 37.3341 64.375 37.4761 63.9972C37.621 63.6165 37.6934 63.1932 37.6934 62.7273C37.6934 62.267 37.6224 61.8523 37.4804 61.483C37.3412 61.1108 37.1295 60.8168 36.8454 60.6009C36.5642 60.3821 36.2105 60.2727 35.7843 60.2727C35.3752 60.2727 35.0315 60.3764 34.7531 60.5838C34.4747 60.7884 34.2644 61.0753 34.1224 61.4446C33.9804 61.8111 33.9093 62.2386 33.9093 62.7273ZM42.9775 66.1364C42.3468 66.1364 41.8028 65.9972 41.3454 65.7188C40.8909 65.4375 40.54 65.0455 40.2929 64.5426C40.0485 64.0369 39.9264 63.4489 39.9264 62.7784C39.9264 62.108 40.0485 61.517 40.2929 61.0057C40.54 60.4915 40.8838 60.0909 41.3241 59.804C41.7673 59.5142 42.2843 59.3693 42.8752 59.3693C43.2162 59.3693 43.5528 59.4261 43.8852 59.5398C44.2176 59.6534 44.5201 59.8381 44.7929 60.0938C45.0656 60.3466 45.2829 60.6818 45.4448 61.0994C45.6068 61.517 45.6877 62.0312 45.6877 62.642V63.0682H40.6423V62.1989H44.665C44.665 61.8295 44.5912 61.5 44.4434 61.2102C44.2985 60.9205 44.0912 60.6918 43.8213 60.5241C43.5542 60.3565 43.2389 60.2727 42.8752 60.2727C42.4747 60.2727 42.1281 60.3722 41.8355 60.571C41.5457 60.767 41.3227 61.0227 41.1664 61.3381C41.0102 61.6534 40.9321 61.9915 40.9321 62.3523V62.9318C40.9321 63.4261 41.0173 63.8452 41.1877 64.1889C41.361 64.5298 41.6011 64.7898 41.9079 64.9688C42.2147 65.1449 42.5713 65.233 42.9775 65.233C43.2417 65.233 43.4804 65.196 43.6934 65.1222C43.9093 65.0455 44.0954 64.9318 44.2517 64.7812C44.4079 64.6278 44.5287 64.4375 44.6139 64.2102L45.5855 64.483C45.4832 64.8125 45.3113 65.1023 45.0698 65.3523C44.8284 65.5994 44.5301 65.7926 44.175 65.9318C43.8198 66.0682 43.4207 66.1364 42.9775 66.1364ZM49.8767 66.1364C49.2858 66.1364 48.7673 65.9957 48.3213 65.7145C47.8781 65.4332 47.5315 65.0398 47.2815 64.5341C47.0343 64.0284 46.9108 63.4375 46.9108 62.7614C46.9108 62.0795 47.0343 61.4844 47.2815 60.9759C47.5315 60.4673 47.8781 60.0724 48.3213 59.7912C48.7673 59.5099 49.2858 59.3693 49.8767 59.3693C50.4676 59.3693 50.9846 59.5099 51.4278 59.7912C51.8738 60.0724 52.2204 60.4673 52.4676 60.9759C52.7176 61.4844 52.8426 62.0795 52.8426 62.7614C52.8426 63.4375 52.7176 64.0284 52.4676 64.5341C52.2204 65.0398 51.8738 65.4332 51.4278 65.7145C50.9846 65.9957 50.4676 66.1364 49.8767 66.1364ZM49.8767 65.233C50.3255 65.233 50.6948 65.1179 50.9846 64.8878C51.2744 64.6577 51.4889 64.3551 51.6281 63.9801C51.7673 63.6051 51.8369 63.1989 51.8369 62.7614C51.8369 62.3239 51.7673 61.9162 51.6281 61.5384C51.4889 61.1605 51.2744 60.8551 50.9846 60.6222C50.6948 60.3892 50.3255 60.2727 49.8767 60.2727C49.4278 60.2727 49.0585 60.3892 48.7687 60.6222C48.4789 60.8551 48.2644 61.1605 48.1252 61.5384C47.986 61.9162 47.9164 62.3239 47.9164 62.7614C47.9164 63.1989 47.986 63.6051 48.1252 63.9801C48.2644 64.3551 48.4789 64.6577 48.7687 64.8878C49.0585 65.1179 49.4278 65.233 49.8767 65.233ZM54.3777 68.4545V59.4545H55.3493V60.4943H55.4686C55.5425 60.3807 55.6448 60.2358 55.7755 60.0597C55.909 59.8807 56.0993 59.7216 56.3465 59.5824C56.5965 59.4403 56.9345 59.3693 57.3607 59.3693C57.9118 59.3693 58.3976 59.5071 58.8181 59.7827C59.2385 60.0582 59.5667 60.4489 59.8024 60.9545C60.0382 61.4602 60.1561 62.0568 60.1561 62.7443C60.1561 63.4375 60.0382 64.0384 59.8024 64.5469C59.5667 65.0526 59.2399 65.4446 58.8223 65.723C58.4047 65.9986 57.9232 66.1364 57.3777 66.1364C56.9573 66.1364 56.6206 66.0668 56.3678 65.9276C56.1149 65.7855 55.9203 65.625 55.784 65.446C55.6476 65.2642 55.5425 65.1136 55.4686 64.9943H55.3834V68.4545H54.3777ZM55.3664 62.7273C55.3664 63.2216 55.4388 63.6577 55.5837 64.0355C55.7286 64.4105 55.9402 64.7045 56.2186 64.9176C56.497 65.1278 56.838 65.233 57.2414 65.233C57.6618 65.233 58.0127 65.1222 58.2939 64.9006C58.578 64.6761 58.7911 64.375 58.9331 63.9972C59.078 63.6165 59.1505 63.1932 59.1505 62.7273C59.1505 62.267 59.0794 61.8523 58.9374 61.483C58.7982 61.1108 58.5865 60.8168 58.3024 60.6009C58.0212 60.3821 57.6675 60.2727 57.2414 60.2727C56.8323 60.2727 56.4885 60.3764 56.2101 60.5838C55.9317 60.7884 55.7215 61.0753 55.5794 61.4446C55.4374 61.8111 55.3664 62.2386 55.3664 62.7273ZM62.6959 57.2727V66H61.6902V57.2727H62.6959ZM67.2822 66.1364C66.6515 66.1364 66.1075 65.9972 65.6501 65.7188C65.1956 65.4375 64.8447 65.0455 64.5975 64.5426C64.3532 64.0369 64.2311 63.4489 64.2311 62.7784C64.2311 62.108 64.3532 61.517 64.5975 61.0057C64.8447 60.4915 65.1885 60.0909 65.6288 59.804C66.072 59.5142 66.589 59.3693 67.1799 59.3693C67.5208 59.3693 67.8575 59.4261 68.1899 59.5398C68.5223 59.6534 68.8248 59.8381 69.0975 60.0938C69.3703 60.3466 69.5876 60.6818 69.7495 61.0994C69.9115 61.517 69.9924 62.0312 69.9924 62.642V63.0682H64.947V62.1989H68.9697C68.9697 61.8295 68.8958 61.5 68.7481 61.2102C68.6032 60.9205 68.3958 60.6918 68.126 60.5241C67.8589 60.3565 67.5436 60.2727 67.1799 60.2727C66.7794 60.2727 66.4328 60.3722 66.1402 60.571C65.8504 60.767 65.6274 61.0227 65.4711 61.3381C65.3149 61.6534 65.2367 61.9915 65.2367 62.3523V62.9318C65.2367 63.4261 65.322 63.8452 65.4924 64.1889C65.6657 64.5298 65.9058 64.7898 66.2126 64.9688C66.5194 65.1449 66.876 65.233 67.2822 65.233C67.5464 65.233 67.785 65.196 67.9981 65.1222C68.214 65.0455 68.4001 64.9318 68.5564 64.7812C68.7126 64.6278 68.8333 64.4375 68.9186 64.2102L69.8902 64.483C69.7879 64.8125 69.616 65.1023 69.3745 65.3523C69.1331 65.5994 68.8348 65.7926 68.4796 65.9318C68.1245 66.0682 67.7254 66.1364 67.2822 66.1364ZM75.9029 57.2727V66H74.8973V57.2727H75.9029ZM80.404 66.1364C79.8131 66.1364 79.2946 65.9957 78.8486 65.7145C78.4054 65.4332 78.0588 65.0398 77.8088 64.5341C77.5617 64.0284 77.4381 63.4375 77.4381 62.7614C77.4381 62.0795 77.5617 61.4844 77.8088 60.9759C78.0588 60.4673 78.4054 60.0724 78.8486 59.7912C79.2946 59.5099 79.8131 59.3693 80.404 59.3693C80.9949 59.3693 81.512 59.5099 81.9551 59.7912C82.4012 60.0724 82.7478 60.4673 82.9949 60.9759C83.2449 61.4844 83.3699 62.0795 83.3699 62.7614C83.3699 63.4375 83.2449 64.0284 82.9949 64.5341C82.7478 65.0398 82.4012 65.4332 81.9551 65.7145C81.512 65.9957 80.9949 66.1364 80.404 66.1364ZM80.404 65.233C80.8529 65.233 81.2222 65.1179 81.512 64.8878C81.8017 64.6577 82.0162 64.3551 82.1554 63.9801C82.2946 63.6051 82.3642 63.1989 82.3642 62.7614C82.3642 62.3239 82.2946 61.9162 82.1554 61.5384C82.0162 61.1605 81.8017 60.8551 81.512 60.6222C81.2222 60.3892 80.8529 60.2727 80.404 60.2727C79.9551 60.2727 79.5858 60.3892 79.2961 60.6222C79.0063 60.8551 78.7918 61.1605 78.6526 61.5384C78.5134 61.9162 78.4438 62.3239 78.4438 62.7614C78.4438 63.1989 78.5134 63.6051 78.6526 63.9801C78.7918 64.3551 79.0063 64.6577 79.2961 64.8878C79.5858 65.1179 79.9551 65.233 80.404 65.233ZM87.5642 66.1364C86.9733 66.1364 86.4548 65.9957 86.0088 65.7145C85.5656 65.4332 85.219 65.0398 84.969 64.5341C84.7218 64.0284 84.5983 63.4375 84.5983 62.7614C84.5983 62.0795 84.7218 61.4844 84.969 60.9759C85.219 60.4673 85.5656 60.0724 86.0088 59.7912C86.4548 59.5099 86.9733 59.3693 87.5642 59.3693C88.1551 59.3693 88.6721 59.5099 89.1153 59.7912C89.5613 60.0724 89.9079 60.4673 90.1551 60.9759C90.4051 61.4844 90.5301 62.0795 90.5301 62.7614C90.5301 63.4375 90.4051 64.0284 90.1551 64.5341C89.9079 65.0398 89.5613 65.4332 89.1153 65.7145C88.6721 65.9957 88.1551 66.1364 87.5642 66.1364ZM87.5642 65.233C88.013 65.233 88.3823 65.1179 88.6721 64.8878C88.9619 64.6577 89.1764 64.3551 89.3156 63.9801C89.4548 63.6051 89.5244 63.1989 89.5244 62.7614C89.5244 62.3239 89.4548 61.9162 89.3156 61.5384C89.1764 61.1605 88.9619 60.8551 88.6721 60.6222C88.3823 60.3892 88.013 60.2727 87.5642 60.2727C87.1153 60.2727 86.746 60.3892 86.4562 60.6222C86.1664 60.8551 85.9519 61.1605 85.8127 61.5384C85.6735 61.9162 85.6039 62.3239 85.6039 62.7614C85.6039 63.1989 85.6735 63.6051 85.8127 63.9801C85.9519 64.3551 86.1664 64.6577 86.4562 64.8878C86.746 65.1179 87.1153 65.233 87.5642 65.233ZM93.0027 63.6136L92.9857 62.3693H93.1902L96.0539 59.4545H97.2982L94.247 62.5398H94.1618L93.0027 63.6136ZM92.0652 66V57.2727H93.0709V66H92.0652ZM96.2243 66L93.6675 62.7614L94.3834 62.0625L97.5027 66H96.2243ZM98.5926 66V59.4545H99.5983V66H98.5926ZM99.1039 58.3636C98.9079 58.3636 98.7389 58.2969 98.5968 58.1634C98.4576 58.0298 98.388 57.8693 98.388 57.6818C98.388 57.4943 98.4576 57.3338 98.5968 57.2003C98.7389 57.0668 98.9079 57 99.1039 57C99.3 57 99.4676 57.0668 99.6068 57.2003C99.7488 57.3338 99.8198 57.4943 99.8198 57.6818C99.8198 57.8693 99.7488 58.0298 99.6068 58.1634C99.4676 58.2969 99.3 58.3636 99.1039 58.3636ZM102.446 62.0625V66H101.44V59.4545H102.412V60.4773H102.497C102.65 60.1449 102.883 59.8778 103.196 59.6761C103.508 59.4716 103.912 59.3693 104.406 59.3693C104.849 59.3693 105.237 59.4602 105.569 59.642C105.902 59.821 106.16 60.0938 106.345 60.4602C106.53 60.8239 106.622 61.2841 106.622 61.8409V66H105.616V61.9091C105.616 61.3949 105.483 60.9943 105.216 60.7074C104.949 60.4176 104.582 60.2727 104.116 60.2727C103.795 60.2727 103.508 60.3423 103.256 60.4815C103.006 60.6207 102.808 60.8239 102.663 61.0909C102.518 61.358 102.446 61.6818 102.446 62.0625ZM111.102 68.5909C110.616 68.5909 110.198 68.5284 109.849 68.4034C109.5 68.2812 109.208 68.1193 108.975 67.9176C108.745 67.7188 108.562 67.5057 108.426 67.2784L109.227 66.7159C109.318 66.8352 109.433 66.9716 109.572 67.125C109.711 67.2812 109.902 67.4162 110.143 67.5298C110.387 67.6463 110.707 67.7045 111.102 67.7045C111.63 67.7045 112.066 67.5767 112.41 67.321C112.754 67.0653 112.926 66.6648 112.926 66.1193V64.7898H112.84C112.767 64.9091 112.661 65.0568 112.525 65.233C112.392 65.4062 112.198 65.5611 111.946 65.6974C111.696 65.831 111.357 65.8977 110.931 65.8977C110.403 65.8977 109.929 65.7727 109.508 65.5227C109.09 65.2727 108.759 64.9091 108.515 64.4318C108.274 63.9545 108.153 63.375 108.153 62.6932C108.153 62.0227 108.271 61.4389 108.507 60.9418C108.742 60.4418 109.071 60.0554 109.491 59.7827C109.911 59.5071 110.397 59.3693 110.948 59.3693C111.375 59.3693 111.713 59.4403 111.963 59.5824C112.215 59.7216 112.409 59.8807 112.542 60.0597C112.679 60.2358 112.784 60.3807 112.857 60.4943H112.96V59.4545H113.931V66.1875C113.931 66.75 113.804 67.2074 113.548 67.5597C113.295 67.9148 112.954 68.1747 112.525 68.3395C112.099 68.5071 111.625 68.5909 111.102 68.5909ZM111.068 64.9943C111.471 64.9943 111.812 64.902 112.09 64.7173C112.369 64.5327 112.58 64.267 112.725 63.9205C112.87 63.5739 112.943 63.1591 112.943 62.6761C112.943 62.2045 112.872 61.7884 112.73 61.4276C112.588 61.0668 112.377 60.7841 112.099 60.5795C111.821 60.375 111.477 60.2727 111.068 60.2727C110.642 60.2727 110.286 60.3807 110.002 60.5966C109.721 60.8125 109.509 61.1023 109.367 61.4659C109.228 61.8295 109.159 62.233 109.159 62.6761C109.159 63.1307 109.23 63.5327 109.372 63.8821C109.517 64.2287 109.73 64.5014 110.011 64.7003C110.295 64.8963 110.647 64.9943 111.068 64.9943ZM35.8355 74.4545V75.3068H32.3071V74.4545H35.8355ZM33.3639 81V73.5511C33.3639 73.1761 33.4519 72.8636 33.6281 72.6136C33.8042 72.3636 34.0329 72.1761 34.3142 72.0511C34.5954 71.9261 34.8923 71.8636 35.2048 71.8636C35.4519 71.8636 35.6537 71.8835 35.8099 71.9233C35.9662 71.9631 36.0826 72 36.1593 72.0341L35.8696 72.9034C35.8184 72.8864 35.7474 72.8651 35.6565 72.8395C35.5684 72.8139 35.4519 72.8011 35.3071 72.8011C34.9747 72.8011 34.7346 72.8849 34.5869 73.0526C34.442 73.2202 34.3696 73.4659 34.3696 73.7898V81H33.3639ZM39.6345 81.1364C39.0436 81.1364 38.5251 80.9957 38.0791 80.7145C37.6359 80.4332 37.2893 80.0398 37.0393 79.5341C36.7921 79.0284 36.6686 78.4375 36.6686 77.7614C36.6686 77.0795 36.7921 76.4844 37.0393 75.9759C37.2893 75.4673 37.6359 75.0724 38.0791 74.7912C38.5251 74.5099 39.0436 74.3693 39.6345 74.3693C40.2254 74.3693 40.7424 74.5099 41.1856 74.7912C41.6316 75.0724 41.9782 75.4673 42.2254 75.9759C42.4754 76.4844 42.6004 77.0795 42.6004 77.7614C42.6004 78.4375 42.4754 79.0284 42.2254 79.5341C41.9782 80.0398 41.6316 80.4332 41.1856 80.7145C40.7424 80.9957 40.2254 81.1364 39.6345 81.1364ZM39.6345 80.233C40.0833 80.233 40.4527 80.1179 40.7424 79.8878C41.0322 79.6577 41.2467 79.3551 41.3859 78.9801C41.5251 78.6051 41.5947 78.1989 41.5947 77.7614C41.5947 77.3239 41.5251 76.9162 41.3859 76.5384C41.2467 76.1605 41.0322 75.8551 40.7424 75.6222C40.4527 75.3892 40.0833 75.2727 39.6345 75.2727C39.1856 75.2727 38.8163 75.3892 38.5265 75.6222C38.2367 75.8551 38.0223 76.1605 37.8831 76.5384C37.7439 76.9162 37.6742 77.3239 37.6742 77.7614C37.6742 78.1989 37.7439 78.6051 37.8831 78.9801C38.0223 79.3551 38.2367 79.6577 38.5265 79.8878C38.8163 80.1179 39.1856 80.233 39.6345 80.233ZM44.1355 81V74.4545H45.1071V75.4432H45.1753C45.2946 75.1193 45.5105 74.8565 45.823 74.6548C46.1355 74.4531 46.4878 74.3523 46.8799 74.3523C46.9537 74.3523 47.0461 74.3537 47.1568 74.3565C47.2676 74.3594 47.3515 74.3636 47.4083 74.3693V75.392C47.3742 75.3835 47.2961 75.3707 47.1739 75.3537C47.0546 75.3338 46.9282 75.3239 46.7946 75.3239C46.4765 75.3239 46.1924 75.3906 45.9424 75.5241C45.6952 75.6548 45.4992 75.8366 45.3543 76.0696C45.2122 76.2997 45.1412 76.5625 45.1412 76.858V81H44.1355ZM53.9015 81.1534C53.4867 81.1534 53.1103 81.0753 52.7723 80.919C52.4342 80.7599 52.1657 80.5312 51.9669 80.233C51.768 79.9318 51.6686 79.5682 51.6686 79.142C51.6686 78.767 51.7424 78.4631 51.8902 78.2301C52.0379 77.9943 52.2353 77.8097 52.4825 77.6761C52.7296 77.5426 53.0024 77.4432 53.3007 77.3778C53.6018 77.3097 53.9044 77.2557 54.2083 77.2159C54.6061 77.1648 54.9285 77.1264 55.1757 77.1009C55.4257 77.0724 55.6075 77.0256 55.7211 76.9602C55.8376 76.8949 55.8958 76.7812 55.8958 76.6193V76.5852C55.8958 76.1648 55.7808 75.8381 55.5507 75.6051C55.3234 75.3722 54.9782 75.2557 54.5152 75.2557C54.035 75.2557 53.6586 75.3608 53.3859 75.571C53.1132 75.7812 52.9214 76.0057 52.8106 76.2443L51.8561 75.9034C52.0265 75.5057 52.2538 75.196 52.5379 74.9744C52.8248 74.75 53.1373 74.5937 53.4754 74.5057C53.8163 74.4148 54.1515 74.3693 54.4811 74.3693C54.6913 74.3693 54.9328 74.3949 55.2055 74.446C55.4811 74.4943 55.7467 74.5952 56.0024 74.7486C56.2609 74.902 56.4754 75.1335 56.6458 75.4432C56.8163 75.7528 56.9015 76.1676 56.9015 76.6875V81H55.8958V80.1136H55.8447C55.7765 80.2557 55.6629 80.4077 55.5038 80.5696C55.3447 80.7315 55.1331 80.8693 54.8689 80.983C54.6046 81.0966 54.2822 81.1534 53.9015 81.1534ZM54.0549 80.25C54.4527 80.25 54.7879 80.1719 55.0606 80.0156C55.3362 79.8594 55.5436 79.6577 55.6828 79.4105C55.8248 79.1634 55.8958 78.9034 55.8958 78.6307V77.7102C55.8532 77.7614 55.7595 77.8082 55.6146 77.8509C55.4725 77.8906 55.3078 77.9261 55.1203 77.9574C54.9356 77.9858 54.7552 78.0114 54.5791 78.0341C54.4058 78.054 54.2652 78.071 54.1572 78.0852C53.8958 78.1193 53.6515 78.1747 53.4242 78.2514C53.1998 78.3253 53.018 78.4375 52.8788 78.5881C52.7424 78.7358 52.6742 78.9375 52.6742 79.1932C52.6742 79.5426 52.8035 79.8068 53.062 79.9858C53.3234 80.1619 53.6544 80.25 54.0549 80.25ZM63.1178 77.0625V81H62.1121V72.2727H63.1178V75.4773H63.203C63.3564 75.1392 63.5865 74.8707 63.8934 74.6719C64.203 74.4702 64.6149 74.3693 65.1292 74.3693C65.5752 74.3693 65.9658 74.4588 66.301 74.6378C66.6363 74.8139 66.8962 75.0852 67.0809 75.4517C67.2684 75.8153 67.3621 76.2784 67.3621 76.8409V81H66.3564V76.9091C66.3564 76.3892 66.2215 75.9872 65.9516 75.7031C65.6845 75.4162 65.3138 75.2727 64.8394 75.2727C64.5098 75.2727 64.2144 75.3423 63.953 75.4815C63.6945 75.6207 63.4899 75.8239 63.3394 76.0909C63.1917 76.358 63.1178 76.6818 63.1178 77.0625ZM71.861 81.1364C71.2701 81.1364 70.7517 80.9957 70.3056 80.7145C69.8625 80.4332 69.5159 80.0398 69.2659 79.5341C69.0187 79.0284 68.8951 78.4375 68.8951 77.7614C68.8951 77.0795 69.0187 76.4844 69.2659 75.9759C69.5159 75.4673 69.8625 75.0724 70.3056 74.7912C70.7517 74.5099 71.2701 74.3693 71.861 74.3693C72.4519 74.3693 72.969 74.5099 73.4122 74.7912C73.8582 75.0724 74.2048 75.4673 74.4519 75.9759C74.7019 76.4844 74.8269 77.0795 74.8269 77.7614C74.8269 78.4375 74.7019 79.0284 74.4519 79.5341C74.2048 80.0398 73.8582 80.4332 73.4122 80.7145C72.969 80.9957 72.4519 81.1364 71.861 81.1364ZM71.861 80.233C72.3099 80.233 72.6792 80.1179 72.969 79.8878C73.2588 79.6577 73.4733 79.3551 73.6125 78.9801C73.7517 78.6051 73.8213 78.1989 73.8213 77.7614C73.8213 77.3239 73.7517 76.9162 73.6125 76.5384C73.4733 76.1605 73.2588 75.8551 72.969 75.6222C72.6792 75.3892 72.3099 75.2727 71.861 75.2727C71.4122 75.2727 71.0429 75.3892 70.7531 75.6222C70.4633 75.8551 70.2488 76.1605 70.1096 76.5384C69.9704 76.9162 69.9008 77.3239 69.9008 77.7614C69.9008 78.1989 69.9704 78.6051 70.1096 78.9801C70.2488 79.3551 70.4633 79.6577 70.7531 79.8878C71.0429 80.1179 71.4122 80.233 71.861 80.233ZM76.4985 81V72.2727H77.5042V75.4943H77.5894C77.6632 75.3807 77.7655 75.2358 77.8962 75.0597C78.0297 74.8807 78.2201 74.7216 78.4672 74.5824C78.7172 74.4403 79.0553 74.3693 79.4814 74.3693C80.0326 74.3693 80.5184 74.5071 80.9388 74.7827C81.3593 75.0582 81.6874 75.4489 81.9232 75.9545C82.159 76.4602 82.2769 77.0568 82.2769 77.7443C82.2769 78.4375 82.159 79.0384 81.9232 79.5469C81.6874 80.0526 81.3607 80.4446 80.9431 80.723C80.5255 80.9986 80.0439 81.1364 79.4985 81.1364C79.078 81.1364 78.7414 81.0668 78.4885 80.9276C78.2357 80.7855 78.0411 80.625 77.9047 80.446C77.7684 80.2642 77.6632 80.1136 77.5894 79.9943H77.4701V81H76.4985ZM77.4871 77.7273C77.4871 78.2216 77.5595 78.6577 77.7044 79.0355C77.8493 79.4105 78.061 79.7045 78.3394 79.9176C78.6178 80.1278 78.9587 80.233 79.3621 80.233C79.7826 80.233 80.1334 80.1222 80.4147 79.9006C80.6988 79.6761 80.9118 79.375 81.0539 78.9972C81.1988 78.6165 81.2712 78.1932 81.2712 77.7273C81.2712 77.267 81.2002 76.8523 81.0581 76.483C80.9189 76.1108 80.7073 75.8168 80.4232 75.6009C80.1419 75.3821 79.7882 75.2727 79.3621 75.2727C78.953 75.2727 78.6093 75.3764 78.3309 75.5838C78.0524 75.7884 77.8422 76.0753 77.7002 76.4446C77.5581 76.8111 77.4871 77.2386 77.4871 77.7273ZM83.9516 81V72.2727H84.9573V75.4943H85.0425C85.1164 75.3807 85.2186 75.2358 85.3493 75.0597C85.4828 74.8807 85.6732 74.7216 85.9203 74.5824C86.1703 74.4403 86.5084 74.3693 86.9345 74.3693C87.4857 74.3693 87.9715 74.5071 88.3919 74.7827C88.8124 75.0582 89.1405 75.4489 89.3763 75.9545C89.6121 76.4602 89.73 77.0568 89.73 77.7443C89.73 78.4375 89.6121 79.0384 89.3763 79.5469C89.1405 80.0526 88.8138 80.4446 88.3962 80.723C87.9786 80.9986 87.497 81.1364 86.9516 81.1364C86.5311 81.1364 86.1945 81.0668 85.9417 80.9276C85.6888 80.7855 85.4942 80.625 85.3578 80.446C85.2215 80.2642 85.1164 80.1136 85.0425 79.9943H84.9232V81H83.9516ZM84.9402 77.7273C84.9402 78.2216 85.0127 78.6577 85.1576 79.0355C85.3024 79.4105 85.5141 79.7045 85.7925 79.9176C86.0709 80.1278 86.4118 80.233 86.8152 80.233C87.2357 80.233 87.5865 80.1222 87.8678 79.9006C88.1519 79.6761 88.3649 79.375 88.507 78.9972C88.6519 78.6165 88.7243 78.1932 88.7243 77.7273C88.7243 77.267 88.6533 76.8523 88.5113 76.483C88.372 76.1108 88.1604 75.8168 87.8763 75.6009C87.5951 75.3821 87.2414 75.2727 86.8152 75.2727C86.4061 75.2727 86.0624 75.3764 85.784 75.5838C85.5056 75.7884 85.2953 76.0753 85.1533 76.4446C85.0113 76.8111 84.9402 77.2386 84.9402 77.7273ZM91.6817 83.4545C91.5113 83.4545 91.3593 83.4403 91.2257 83.4119C91.0922 83.3864 90.9999 83.3608 90.9488 83.3352L91.2044 82.4489C91.4488 82.5114 91.6647 82.5341 91.8522 82.517C92.0397 82.5 92.2059 82.4162 92.3507 82.2656C92.4985 82.1179 92.6334 81.8778 92.7556 81.5455L92.9431 81.0341L90.5226 74.4545H91.6135L93.4203 79.6705H93.4885L95.2953 74.4545H96.3863L93.6078 81.9545C93.4828 82.2926 93.328 82.5724 93.1434 82.794C92.9587 83.0185 92.7442 83.1847 92.4999 83.2926C92.2584 83.4006 91.9857 83.4545 91.6817 83.4545Z" fill="#333333"/>
</svg>
