<svg width="275" height="186" viewBox="0 0 275 186" fill="none" xmlns="http://www.w3.org/2000/svg">
<rect x="127.5" y="0.5" width="109" height="109" stroke="#555555"/>
<path d="M36.8345 52.0455V44.5455H37.4489V45.5859H37.5234C37.5992 45.4226 37.7034 45.2557 37.8359 45.0852C37.9685 44.9124 38.1437 44.7668 38.3615 44.6484C38.5817 44.5301 38.8587 44.4709 39.1925 44.4709C39.6423 44.4709 40.0353 44.5893 40.3714 44.826C40.71 45.0604 40.9728 45.3894 41.1598 45.8132C41.3492 46.2346 41.4439 46.7259 41.4439 47.2869C41.4439 47.8504 41.3492 48.344 41.1598 48.7678C40.9728 49.1915 40.71 49.5218 40.3714 49.7585C40.0353 49.9953 39.6446 50.1136 39.1996 50.1136C38.8705 50.1136 38.5947 50.0545 38.3722 49.9361C38.152 49.8177 37.9732 49.6721 37.8359 49.4993C37.701 49.3241 37.5968 49.1536 37.5234 48.9879H37.4666V52.0455H36.8345ZM37.4595 47.2763C37.4595 47.7166 37.5246 48.1072 37.6548 48.4482C37.7874 48.7867 37.9768 49.053 38.223 49.2472C38.4716 49.4389 38.7723 49.5348 39.125 49.5348C39.4872 49.5348 39.7926 49.4354 40.0412 49.2365C40.2921 49.0353 40.4827 48.7642 40.6129 48.4233C40.7455 48.0824 40.8118 47.7 40.8118 47.2763C40.8118 46.8572 40.7467 46.4796 40.6165 46.1435C40.4886 45.8073 40.2992 45.541 40.0483 45.3445C39.7973 45.1456 39.4896 45.0462 39.125 45.0462C38.7699 45.0462 38.468 45.142 38.2195 45.3338C37.9709 45.5232 37.7815 45.786 37.6513 46.1222C37.5234 46.456 37.4595 46.8407 37.4595 47.2763ZM44.9506 50.1136C44.4795 50.1136 44.0629 49.9941 43.7006 49.755C43.3408 49.5159 43.0591 49.1856 42.8555 48.7642C42.6519 48.3404 42.5501 47.8516 42.5501 47.2976C42.5501 46.7389 42.6519 46.2476 42.8555 45.8239C43.0591 45.3977 43.3408 45.0663 43.7006 44.8295C44.0629 44.5904 44.4795 44.4709 44.9506 44.4709C45.4218 44.4709 45.8372 44.5904 46.1971 44.8295C46.5569 45.0687 46.8387 45.4001 47.0423 45.8239C47.2482 46.2476 47.3512 46.7389 47.3512 47.2976C47.3512 47.8516 47.2494 48.3404 47.0458 48.7642C46.8422 49.1856 46.5593 49.5159 46.1971 49.755C45.8372 49.9941 45.4218 50.1136 44.9506 50.1136ZM44.9506 49.5348C45.3294 49.5348 45.6502 49.433 45.913 49.2294C46.1758 49.0258 46.3746 48.7547 46.5096 48.4162C46.6469 48.0777 46.7156 47.7048 46.7156 47.2976C46.7156 46.8904 46.6469 46.5163 46.5096 46.1754C46.3746 45.8345 46.1758 45.5611 45.913 45.3551C45.6502 45.1491 45.3294 45.0462 44.9506 45.0462C44.5742 45.0462 44.2534 45.1491 43.9883 45.3551C43.7255 45.5611 43.5254 45.8345 43.3881 46.1754C43.2532 46.5163 43.1857 46.8904 43.1857 47.2976C43.1857 47.7048 43.2532 48.0777 43.3881 48.4162C43.5254 48.7547 43.7255 49.0258 43.9883 49.2294C44.2511 49.433 44.5719 49.5348 44.9506 49.5348ZM52.4036 45.7422L51.8248 45.9055C51.7679 45.7422 51.6874 45.5942 51.5833 45.4616C51.4791 45.3291 51.343 45.2237 51.1749 45.1456C51.0092 45.0675 50.8032 45.0284 50.557 45.0284C50.1877 45.0284 49.8846 45.116 49.6479 45.2912C49.4112 45.4664 49.2928 45.6925 49.2928 45.9695C49.2928 46.2038 49.3733 46.3944 49.5343 46.5412C49.6976 46.6856 49.9486 46.8004 50.2871 46.8857L51.111 47.0881C51.5679 47.1993 51.91 47.3757 52.1373 47.6172C52.3669 47.8587 52.4817 48.1617 52.4817 48.5263C52.4817 48.834 52.3965 49.1075 52.226 49.3466C52.0556 49.5857 51.8176 49.7739 51.5123 49.9112C51.2092 50.0462 50.8577 50.1136 50.4576 50.1136C49.9249 50.1136 49.4857 49.9941 49.1401 49.755C48.7944 49.5135 48.5731 49.1655 48.476 48.7109L49.0833 48.5618C49.1614 48.8861 49.3141 49.1312 49.5414 49.2969C49.771 49.4626 50.0729 49.5455 50.4469 49.5455C50.8659 49.5455 51.2009 49.4519 51.4519 49.2649C51.7028 49.0755 51.8283 48.8388 51.8283 48.5547C51.8283 48.3345 51.7549 48.1499 51.6081 48.0007C51.4614 47.8492 51.2388 47.7379 50.9405 47.6669L50.0492 47.4538C49.5757 47.3402 49.2253 47.1603 48.998 46.9141C48.7708 46.6679 48.6571 46.3625 48.6571 45.9979C48.6571 45.6972 48.7388 45.4332 48.9022 45.206C49.0655 44.9763 49.2904 44.7964 49.5769 44.6662C49.8633 44.536 50.19 44.4709 50.557 44.4709C51.0565 44.4709 51.4554 44.5845 51.7537 44.8118C52.0544 45.0367 52.271 45.3468 52.4036 45.7422ZM56.0142 44.5455V45.0959H53.4112V44.5455H56.0142ZM54.2244 43.2386H54.8601V48.576C54.8601 48.8033 54.8991 48.982 54.9773 49.1122C55.0554 49.2401 55.1572 49.3312 55.2827 49.3857C55.4081 49.4377 55.5419 49.4638 55.6839 49.4638C55.7668 49.4638 55.8378 49.459 55.897 49.4496C55.9562 49.4377 56.0083 49.4259 56.0533 49.4141L56.1882 49.9858C56.1267 50.0095 56.0509 50.0308 55.9609 50.0497C55.871 50.071 55.7597 50.0817 55.6271 50.0817C55.3951 50.0817 55.1714 50.0308 54.956 49.929C54.7429 49.8272 54.5677 49.6757 54.4304 49.4744C54.2931 49.2732 54.2244 49.0234 54.2244 48.7251V43.2386ZM60.1983 46.5838V47.1804H57.1728V46.5838H60.1983ZM61.7928 50V44.5455H62.4284V50H61.7928ZM62.1159 43.608C61.9857 43.608 61.8745 43.5642 61.7821 43.4766C61.6898 43.3866 61.6436 43.2789 61.6436 43.1534C61.6436 43.0279 61.6898 42.9214 61.7821 42.8338C61.8745 42.7438 61.9857 42.6989 62.1159 42.6989C62.2462 42.6989 62.3574 42.7438 62.4498 42.8338C62.5421 42.9214 62.5882 43.0279 62.5882 43.1534C62.5882 43.2789 62.5421 43.3866 62.4498 43.4766C62.3574 43.5642 62.2462 43.608 62.1159 43.608ZM66.2486 44.5455V45.0959H63.6456V44.5455H66.2486ZM64.4588 43.2386H65.0945V48.576C65.0945 48.8033 65.1335 48.982 65.2116 49.1122C65.2898 49.2401 65.3916 49.3312 65.517 49.3857C65.6425 49.4377 65.7763 49.4638 65.9183 49.4638C66.0012 49.4638 66.0722 49.459 66.1314 49.4496C66.1906 49.4377 66.2427 49.4259 66.2876 49.4141L66.4226 49.9858C66.361 50.0095 66.2853 50.0308 66.1953 50.0497C66.1054 50.071 65.9941 50.0817 65.8615 50.0817C65.6295 50.0817 65.4058 50.0308 65.1903 49.929C64.9773 49.8272 64.8021 49.6757 64.6648 49.4744C64.5275 49.2732 64.4588 49.0234 64.4588 48.7251V43.2386Z" fill="#555555"/>
<rect x="0.5" y="0.5" width="102.529" height="102.529" stroke="#555555"/>
<line x1="103.529" y1="1.92627" x2="105.147" y2="1.92627" stroke="#555555"/>
<line x1="105.147" y1="3.54395" x2="106.765" y2="3.54395" stroke="#555555"/>
<line x1="106.765" y1="5.16162" x2="108.382" y2="5.16162" stroke="#555555"/>
<line x1="108.383" y1="6.7793" x2="110" y2="6.7793" stroke="#555555"/>
<line x1="104.838" y1="1.61768" x2="104.838" y2="105.147" stroke="#555555"/>
<line x1="108.073" y1="4.85303" x2="108.073" y2="108.382" stroke="#555555"/>
<line x1="106.456" y1="3.23535" x2="106.456" y2="106.765" stroke="#555555"/>
<line x1="109.691" y1="6.4707" x2="109.691" y2="110" stroke="#555555"/>
<line x1="104.338" y1="104.838" x2="2.42612" y2="104.838" stroke="#555555"/>
<line x1="106.765" y1="106.456" x2="4.04406" y2="106.456" stroke="#555555"/>
<line x1="108.383" y1="108.074" x2="5.66222" y2="108.074" stroke="#555555"/>
<line x1="110" y1="109.691" x2="7.27941" y2="109.691" stroke="#555555"/>
<line x1="1.92676" y1="105.147" x2="1.92676" y2="103.529" stroke="#555555"/>
<line x1="3.54395" y1="106.765" x2="3.54395" y2="105.147" stroke="#555555"/>
<line x1="5.16211" y1="108.382" x2="5.16211" y2="106.765" stroke="#555555"/>
<line x1="6.7793" y1="110" x2="6.7793" y2="108.382" stroke="#555555"/>
<rect x="165.5" y="76.5" width="109" height="109" fill="white" stroke="#555555"/>
</svg>
