<svg width="835" height="56" viewBox="0 0 835 56" fill="none" xmlns="http://www.w3.org/2000/svg">
<path d="M242.207 18.0357L242.259 17.7637L241.638 18.3037L238.673 18.1197L237.73 18.4697L237.601 18.8147L234.898 19.0247L233.967 19.5727L233.214 20.5827L233.086 21.7597L231.173 23.5337L230.624 24.5137L230.569 25.9917L229.609 28.9557L230.27 29.5737L230.348 31.5657L231.199 32.9747L230.98 33.1447L231.565 33.3877L231.83 34.4017L233.088 35.0547L232.739 35.3437L233.967 36.0437L235.143 36.0677L238.736 37.2007L240.366 36.9267L241.196 36.4147L243.922 36.1887L244.762 35.5717L244.613 35.8377" stroke="black" stroke-width="2" stroke-linecap="round" stroke-linejoin="round"/>
<path d="M261.186 19.3507V38.0267" stroke="black" stroke-width="2" stroke-linecap="round" stroke-linejoin="round"/>
<path d="M249.168 18.9398V35.9758" stroke="black" stroke-width="2" stroke-linecap="round" stroke-linejoin="round"/>
<path d="M252.186 34.7797H259.186" stroke="black" stroke-width="2" stroke-linecap="round" stroke-linejoin="round"/>
<path d="M269.863 19.3137V36.3497" stroke="black" stroke-width="2" stroke-linecap="round" stroke-linejoin="round"/>
<path d="M272.883 35.1537H279.883" stroke="black" stroke-width="2" stroke-linecap="round" stroke-linejoin="round"/>
<path d="M276.6 19.3367H294.6" stroke="black" stroke-width="2" stroke-linecap="round" stroke-linejoin="round"/>
<path d="M335.646 19.2117L333.935 19.5517L333.881 19.2927L334.552 19.3107L334.068 19.4457L333.915 20.0037L333.65 19.6637L334.281 19.7177L333.805 19.3397L333.205 19.7647L333.796 19.8657L333.447 20.4917L333.721 23.7577L333.464 27.3667L334.045 29.8467L333.602 32.2907L333.858 33.5327L333.527 34.1007L333.668 37.9917L334.5 38.3507L334.022 38.9457L334.574 39.3657L333.909 39.4537L334.366 39.6607L334.101 39.6937L334.301 39.2747L333.829 39.0417L334.029 38.6657L333.716 38.9117L334.374 38.9297L333.713 38.8627L334.182 39.0307L333.843 38.9997L334.137 39.1967L333.596 39.3737L334.032 39.4687L333.713 39.5827L334.425 39.4207L333.878 39.5577L334.207 39.4547L334.112 39.2357L334.024 39.5467L333.794 39.4557L334.413 39.4537L333.756 39.4547L334.324 39.2797L333.93 39.2777L334.364 39.1977L334.126 38.7487L334.037 39.2707L333.627 38.9837" stroke="black" stroke-width="2" stroke-linecap="round" stroke-linejoin="round"/>
<path d="M334.02 19.8317H346.02" stroke="black" stroke-width="2" stroke-linecap="round" stroke-linejoin="round"/>
<path d="M335.357 38.4227H347.357" stroke="black" stroke-width="2" stroke-linecap="round" stroke-linejoin="round"/>
<path d="M334.645 28.1717H342.061" stroke="black" stroke-width="2" stroke-linecap="round" stroke-linejoin="round"/>
<path d="M320.24 23.6967L317.223 23.8817L318.423 23.7117L318.122 23.7227L318.352 23.9397L317.941 24.2147L318.309 24.6617L317.913 24.9797L318.65 26.0957L318.894 27.3657L318.662 28.1497L319.073 32.1497L318.347 34.3747L318.273 37.5047L318.871 38.0917L319.549 36.5537" stroke="black" stroke-width="2" stroke-linecap="round" stroke-linejoin="round"/>
<path d="M320.545 22.1207L320.296 21.7937L320.436 19.9287L320.219 19.6127L321.712 17.7257L322.541 17.1517L324.05 16.7357L325.834 17.1327L327.475 18.7387L327.948 20.7617L326.727 24.0057L323.55 27.6507L322.184 28.0287L322.731 27.7437L323.79 28.1577L325.857 30.1257L327.232 32.7777L328.428 34.2077L328.635 36.5927L329.343 38.3457L329.619 38.0747L329.409 38.0187" stroke="black" stroke-width="2" stroke-linecap="round" stroke-linejoin="round"/>
<path d="M400.979 21.7857L399.856 20.0037L399.24 17.7757L400.221 17.9427L399.997 19.3787L400.48 19.1717L400.537 19.5757L402.719 21.2857L403.445 22.7327L405.696 25.6837L407.922 27.9397L408.057 28.6287L409.945 31.4927L412.26 33.7637L413.553 34.4547L413.313 34.5607L413.791 34.4337L413.434 34.2147L413.969 34.3897L413.275 34.3837L414.191 34.1447L413.141 34.2307L413.93 34.1937L413.277 34.1137L413.556 33.9787L413.591 34.2607L414.142 34.1627L413.363 34.1957L413.736 34.1217L413.513 33.9097L413.674 34.1117L413.416 34.1357L413.774 34.2097L413.388 34.1917L413.702 34.0687L413.579 34.2977L413.843 34.3147L413.37 34.2847L414.311 34.8787L414.526 35.1457L414.282 35.2617L414.657 35.2657L414.254 35.2697L414.688 35.2707L414.153 35.3617L414.87 35.4567L414.255 35.5867L414.605 35.5927L414.89 36.7397L415.385 36.5497L414.62 36.6077L415.306 36.2887L414.942 35.6117L413.7 34.7647L413.533 34.1557L414.059 33.5417L413.56 34.3247" stroke="black" stroke-width="2" stroke-linecap="round" stroke-linejoin="round"/>
<path d="M401.125 39.2077L413.125 19.2077" stroke="black" stroke-width="2" stroke-linecap="round" stroke-linejoin="round"/>
<path d="M442.836 17.5827V39.5827" stroke="black" stroke-width="2" stroke-linecap="round" stroke-linejoin="round"/>
<path d="M501.055 20.8277V37.8637" stroke="black" stroke-width="2" stroke-linecap="round" stroke-linejoin="round"/>
<path d="M452.408 17.0287V39.0287" stroke="black" stroke-width="2" stroke-linecap="round" stroke-linejoin="round"/>
<path d="M453.579 16.2497L452.213 17.1827L453.193 16.8457L454.073 17.1777L455.188 16.6207L455.905 16.8477L457.445 16.6937L459.987 17.9807L460.992 17.8457L461.65 18.4817L462.762 18.8287L462.328 19.0847L462.984 19.3717L463.363 20.4667L462.835 20.6247L463.026 20.9577L462.684 22.8787L462.215 23.4997L462.419 23.8807L458.61 25.1307L455.889 25.3777L455.826 25.5687L456.201 25.5017L455.69 25.6367L456.256 25.4277L455.784 25.4527L456.175 25.5247L455.63 25.7677L455.868 25.8777L455.561 26.1257L455.823 26.1227L455.465 26.0437L456.051 25.9677L455.304 25.9097L455.461 26.0457L454.975 26.2977L458.349 26.5337L458.66 26.8387L460.217 26.9797L461.05 28.1307L462.13 28.6127L462.594 29.6057L463.108 29.8847L462.873 30.0687L463.206 30.4267L462.919 30.8347L463.19 31.1117L463.404 33.0327L463.106 33.0947L463.429 33.0897L463.265 33.5817L463.506 34.0087L463.231 34.2327L463.756 34.5097L463.163 34.6077L463.094 35.6527L462.372 36.6097L459.709 36.7887L459.481 37.1627L457.966 37.5557L455.937 37.8357L453.101 37.6987L452.377 37.4237L452.807 37.4097L452.279 37.5387L452.419 37.2727L451.994 37.2307L452.206 36.8937L451.869 36.9067" stroke="black" stroke-width="2" stroke-linecap="round" stroke-linejoin="round"/>
<path d="M421.355 15.4307V37.4307" stroke="black" stroke-width="2" stroke-linecap="round" stroke-linejoin="round"/>
<path d="M422.293 26.1987H432.061" stroke="black" stroke-width="1.75" stroke-linecap="round" stroke-linejoin="round"/>
<path d="M431.713 16.4307V38.4307" stroke="black" stroke-width="2" stroke-linecap="round" stroke-linejoin="round"/>
<path d="M473.051 19.7607V41.7607" stroke="black" stroke-width="2" stroke-linecap="round" stroke-linejoin="round"/>
<path d="M517.663 20.1137L516.166 19.9917L514.648 20.9247L512.792 22.8927L512.647 23.6747L511.616 25.1807L511.112 27.4247L510.237 28.7347L510.272 30.3737L509.943 31.3937L510.332 32.5947L510.085 33.3037L511.087 33.7867L511.378 34.1807L511.238 34.5557L511.868 35.3197L513.698 35.8827L515.922 36.0297L517.212 35.7597L519.159 34.7627L519.354 33.9997L520.477 33.1747L521.335 31.9377L521.193 30.8017L521.901 29.0977L522.078 27.7407L520.956 26.3027L520.886 25.4037L519.682 24.0687L518.879 21.7147L517.063 20.8977L516.791 21.0297" stroke="black" stroke-width="2" stroke-linecap="round" stroke-linejoin="round"/>
<path d="M540.623 17.9997V36.6747" stroke="black" stroke-width="2" stroke-linecap="round" stroke-linejoin="round"/>
<path d="M526.041 14.6328L540.041 36.6328" stroke="black" stroke-width="2" stroke-linecap="round" stroke-linejoin="round"/>
<path d="M527.891 19.2847V36.3207" stroke="black" stroke-width="2" stroke-linecap="round" stroke-linejoin="round"/>
<path d="M386.116 19.5377L384.561 19.8467L384.512 19.6117L385.122 19.6267L384.682 19.7497L384.543 20.2567L384.302 19.9487L384.875 19.9977L384.443 19.6537L383.898 20.0397L384.435 20.1317L384.118 20.7007L384.367 23.6667L384.133 26.9447L384.661 29.1977L384.258 31.4177L384.491 32.5457L384.19 33.0627L384.318 36.5967L385.074 36.9227L384.64 37.4637L385.142 37.8457L384.537 37.9247L384.952 38.1127L384.712 38.1437L384.894 37.7617L384.465 37.5507L384.647 37.2087L384.363 37.4317L384.96 37.4487L384.359 37.3887L384.785 37.5407L384.478 37.5127L384.745 37.6917L384.253 37.8527L384.649 37.9387L384.36 38.0417L385.006 37.8947L384.51 38.0197L384.809 37.9267L384.722 37.7267L384.642 38.0087L384.433 37.9267L384.996 37.9247L384.399 37.9267L384.914 37.7667L384.557 37.7647L384.95 37.6917L384.735 37.2847L384.654 37.7587L384.282 37.4977" stroke="black" stroke-width="1.75" stroke-linecap="round" stroke-linejoin="round"/>
<path d="M384.639 20.1007H395.539" stroke="black" stroke-width="1.75" stroke-linecap="round" stroke-linejoin="round"/>
<path d="M385.855 36.9887H396.756" stroke="black" stroke-width="1.75" stroke-linecap="round" stroke-linejoin="round"/>
<path d="M385.207 27.6767H391.943" stroke="black" stroke-width="1.75" stroke-linecap="round" stroke-linejoin="round"/>
<path d="M478.439 16.5687H496.439" stroke="black" stroke-width="2" stroke-linecap="round" stroke-linejoin="round"/>
<path d="M488.439 15.7477V33.7477" stroke="black" stroke-width="2" stroke-linecap="round" stroke-linejoin="round"/>
<path d="M376.453 4.41205L351.453 54.4118" stroke="black" stroke-width="2" stroke-linecap="round" stroke-linejoin="round"/>
<path d="M230.668 1L205.668 50.9997" stroke="black" stroke-width="2" stroke-linecap="round" stroke-linejoin="round"/>
<path d="M568.758 4.75012L543.758 54.7497" stroke="black" stroke-width="2" stroke-linecap="round" stroke-linejoin="round"/>
<path d="M587.508 16.5867L587.302 16.4737L587.494 16.8767L587.269 16.7637L587.539 16.6137L587.388 16.9047L587.824 16.9497L587.067 17.2387L587.493 17.3307L587.503 22.5297L587.275 22.9847L587.355 23.3957L588.165 23.9847L588.214 24.5027L587.362 25.3627L587.68 26.5747L587.444 27.1427L588.15 27.6717L587.405 27.9367L587.657 28.6957L587.442 29.9337L587.89 30.0777L587.625 30.2657L587.946 30.7757L587.501 31.7797L587.709 31.9717L587.308 32.2637L587.591 32.3677L587.363 33.3407L587.584 33.3777L587.111 33.3607L587.852 33.8487L587.463 34.0077L587.481 34.4327L586.9 34.6117L587.431 34.8717L587.068 34.9027L587.379 34.9137L586.26 37.5197L585.758 37.4457L586.208 37.5747L585.696 37.5897L585.383 38.2857L584.688 38.4847L584.16 38.2117L583.094 38.3127L582.455 37.6027L581.712 37.7867L581.892 37.5817L581.417 36.5347L579.718 34.1367L580.09 33.9537L579.091 33.3217L578.745 32.2867L579.151 31.8167L578.662 31.6367L579.272 30.4607L578.884 30.4327L579.767 29.7787L579.293 29.6977L579.88 28.9597L579.628 29.2217L579.36 28.4667L579.732 27.8197L579.996 27.9657L579.126 28.0237L579.5 27.9227L579.665 27.4527L579.464 27.5947L579.98 27.5757L579.31 27.3837L579.821 27.0297L579.674 26.4167L580 26.4757L579.545 26.4187L579.958 26.3817" stroke="black" stroke-width="2" stroke-linecap="round" stroke-linejoin="round"/>
<path d="M601.857 21.6487L600.36 21.5267L598.841 22.4597L596.985 24.4277L596.84 25.2097L595.81 26.7157L595.305 28.9597L594.43 30.2697L594.465 31.9087L594.137 32.9287L594.526 34.1297L594.279 34.8387L595.281 35.3217L595.571 35.7157L595.431 36.0907L596.061 36.8547L597.891 37.4177L600.115 37.5647L601.405 37.2947L603.352 36.2977L603.547 35.5347L604.671 34.7097L605.528 33.4727L605.387 32.3367L606.094 30.6327L606.271 29.2757L605.149 27.8377L605.079 26.9387L603.876 25.6037L603.073 23.2497L601.256 22.4327L600.985 22.5647" stroke="black" stroke-width="2" stroke-linecap="round" stroke-linejoin="round"/>
<path d="M615.133 22.2967V39.3317" stroke="black" stroke-width="2" stroke-linecap="round" stroke-linejoin="round"/>
<path d="M635.137 19.7857V38.4607" stroke="black" stroke-width="2" stroke-linecap="round" stroke-linejoin="round"/>
<path d="M620.557 16.4187L634.557 38.4187" stroke="black" stroke-width="2" stroke-linecap="round" stroke-linejoin="round"/>
<path d="M622.404 21.0707V38.1067" stroke="black" stroke-width="2" stroke-linecap="round" stroke-linejoin="round"/>
<path d="M286.6 18.5147V36.5147" stroke="black" stroke-width="2" stroke-linecap="round" stroke-linejoin="round"/>
<path d="M309.162 20.2037V38.8787" stroke="black" stroke-width="2" stroke-linecap="round" stroke-linejoin="round"/>
<path d="M297.145 19.7927V36.8287" stroke="black" stroke-width="2" stroke-linecap="round" stroke-linejoin="round"/>
<path d="M300.162 35.6328H307.162" stroke="black" stroke-width="2" stroke-linecap="round" stroke-linejoin="round"/>
<path d="M699.696 14.0117L697.169 14.2817L698.277 14.7977L697.256 18.4227L697.322 20.9877L696.899 21.4427L696.442 23.4627L697.416 26.3427L696.642 27.2577L697.347 30.6807L696.727 31.6067L697.407 33.0087L697.116 33.3587L697.378 33.4147L696.894 33.4627L697.1 33.6347L696.724 34.0187L697.779 34.7327L696.983 35.2337L697.207 36.0967L696.435 36.2037L697.095 36.0297L696.918 35.8897L697.684 35.3967L697.434 35.3707L697.824 35.3737L697.048 35.7827L696.936 35.4027L697.941 35.5347L696.959 35.5647L696.807 35.7707L697.226 35.8867L696.798 35.8027L697.158 35.6697L696.782 35.9077L697.021 35.9907L696.72 35.9137L697.252 35.9827L696.725 35.8827L696.971 35.6837L696.355 35.9407" stroke="black" stroke-width="2" stroke-linecap="round" stroke-linejoin="round"/>
<path d="M699.055 15.9697L698.407 16.0767L698.878 16.2917L698.359 16.3697L699.45 17.1407L699.459 18.0377L700.271 18.6877L700.025 19.0137L700.271 19.4537L701.624 20.1087L703.094 22.8607L705.102 25.3097L705.111 25.7457L706.085 25.8497L706.801 26.4047L707.555 25.7867L706.787 25.7227L707.086 25.5557" stroke="black" stroke-width="2" stroke-linecap="round" stroke-linejoin="round"/>
<path d="M712.848 16.2628L711.221 17.2138L711.359 17.6458L709.355 21.0698L707.942 24.5118L706.909 25.6968L707.098 26.0898L706.576 26.6988L706.162 26.5378L706.58 26.8278" stroke="black" stroke-width="2" stroke-linecap="round" stroke-linejoin="round"/>
<path d="M713.695 15.7347V31.7347" stroke="black" stroke-width="2" stroke-linecap="round" stroke-linejoin="round"/>
<path d="M723.384 16.4417L720.856 16.7117L721.965 17.2277L720.944 20.8527L721.01 23.4177L720.587 23.8727L720.13 25.8917L721.104 28.7717L720.33 29.6877L721.035 33.1107L720.414 34.0367L721.094 35.4387L720.803 35.7887L721.066 35.8447L720.582 35.8927L720.788 36.0647L720.412 36.4487L721.467 37.1627L720.671 37.6637L720.895 38.5267L720.123 38.6337L720.782 38.4597L720.605 38.3197L721.372 37.8267L721.122 37.8007L721.511 37.8037L720.735 38.2117L720.623 37.8327L721.629 37.9647L720.646 37.9947L720.495 38.2007L720.914 38.3157L720.485 38.2327L720.846 38.0997L720.47 38.3367L720.709 38.4207L720.408 38.3437L720.939 38.4127L720.412 38.3127L720.659 38.1137L720.043 38.3707" stroke="black" stroke-width="2" stroke-linecap="round" stroke-linejoin="round"/>
<path d="M722.744 18.3997L722.097 18.5067L722.567 18.7207L722.049 18.7997L723.14 19.5707L723.149 20.4677L723.961 21.1177L723.714 21.4437L723.96 21.8837L725.313 22.5387L726.784 25.2897L728.792 27.7397L728.801 28.1757L729.775 28.2797L730.49 28.8347L731.245 28.2167L730.477 28.1527L730.776 27.9857" stroke="black" stroke-width="2" stroke-linecap="round" stroke-linejoin="round"/>
<path d="M736.537 18.6927L734.91 19.6437L735.048 20.0757L733.044 23.4997L731.631 26.9417L730.597 28.1267L730.786 28.5197L730.264 29.1287L729.85 28.9678L730.268 29.2578" stroke="black" stroke-width="2" stroke-linecap="round" stroke-linejoin="round"/>
<path d="M737.383 18.1647V34.1647" stroke="black" stroke-width="2" stroke-linecap="round" stroke-linejoin="round"/>
<path d="M778.871 16.1727V34.8487" stroke="black" stroke-width="2" stroke-linecap="round" stroke-linejoin="round"/>
<path d="M764.291 12.8057L778.291 34.8057" stroke="black" stroke-width="2" stroke-linecap="round" stroke-linejoin="round"/>
<path d="M766.139 17.4587V34.4937" stroke="black" stroke-width="2" stroke-linecap="round" stroke-linejoin="round"/>
<path d="M789.16 16.1857V36.1427" stroke="black" stroke-width="2.25" stroke-linecap="round" stroke-linejoin="round"/>
<path d="M793.268 17.4297H811.268" stroke="black" stroke-width="2" stroke-linecap="round" stroke-linejoin="round"/>
<path d="M803 17.2337V35.2337" stroke="black" stroke-width="2" stroke-linecap="round" stroke-linejoin="round"/>
<path d="M687.507 17.7407L686.01 17.6187L684.491 18.5517L682.635 20.5197L682.49 21.3017L681.46 22.8087L680.955 25.0517L680.08 26.3617L680.115 28.0007L679.787 29.0207L680.176 30.2217L679.929 30.9307L680.931 31.4137L681.221 31.8077L681.081 32.1827L681.711 32.9467L683.541 33.5097L685.765 33.6567L687.055 33.3867L689.002 32.3907L689.197 31.6267L690.32 30.8017L691.178 29.5647L691.036 28.4287L691.744 26.7247L691.921 25.3677L690.799 23.9297L690.729 23.0307L689.526 21.6957L688.723 19.3417L686.906 18.5247L686.634 18.6567" stroke="black" stroke-width="2" stroke-linecap="round" stroke-linejoin="round"/>
<path d="M673.14 15.9477L673.191 15.6757L672.571 16.2157L669.606 16.0317L668.662 16.3817L668.533 16.7267L665.831 16.9367L664.9 17.4847L664.147 18.4947L664.019 19.6717L662.106 21.4457L661.556 22.4257L661.501 23.9037L660.541 26.8677L661.203 27.4857L661.281 29.4777L662.132 30.8867L661.913 31.0567L662.498 31.2997L662.762 32.3137L664.021 32.9667L663.671 33.2557L664.9 33.9557L666.075 33.9797L669.669 35.1127L671.298 34.8387L672.129 34.3267L674.855 34.1007L675.695 33.4827L675.546 33.7497" stroke="black" stroke-width="2" stroke-linecap="round" stroke-linejoin="round"/>
<path d="M818.901 18.8717L818.929 18.1947L818.035 17.5027L818.978 18.2507L818.582 18.4237L818.852 18.6878L818.765 19.3037L819.582 19.8117L820.363 21.3047L821.422 24.5127L821.252 25.0557L822.66 26.7327L822.732 27.0078L822.415 27.0737L823.205 27.3907L822.944 27.5987L823.751 29.1867L824.418 29.6667L824.111 29.8207L824.766 29.8637L823.917 29.8397L824.55 29.8497L823.967 29.8558L824.41 29.8857L823.8 30.7178L824.516 30.8047L823.964 30.7377L824.029 31.3587" stroke="black" stroke-width="2" stroke-linecap="round" stroke-linejoin="round"/>
<path d="M822.934 37.0777L821.254 37.0797L821.448 37.6317L820.614 38.7497L820.18 38.7747L820.663 38.4337L820.385 38.2077L820.959 38.0617L822.302 35.0027L825.391 30.7877L825.728 29.4357L827.122 28.1057L828.713 24.9757L829.861 23.9407L830.017 23.3697L831.909 22.0977L831.526 21.9987L831.585 21.4787L832.29 21.4117L831.921 21.2287L832.693 20.9707L831.949 20.8317L833.124 20.1617L832.903 20.0607L832.821 20.5487L832.605 20.3387L833.133 20.5537L832.699 20.6137L832.72 20.3877L833.002 20.5547L832.344 20.8087L833.174 20.6787L832.64 20.6157L833.094 20.7667L833.021 20.5347L832.567 20.8217L832.788 20.7207L832.605 21.0127L832.915 20.9097L832.73 20.7867L832.651 21.0537L832.88 21.0417L832.622 20.7467L832.84 20.6277L833.086 20.7597L832.551 20.8377L832.84 21.0417L832.507 20.9327L832.848 21.0337L832.527 21.0087L832.969 21.6807L832.642 21.5467L832.937 21.5247L832.534 21.6517L832.935 21.8387L832.575 21.8107L833.128 21.5947L832.702 21.5507L833.034 21.4767L832.497 20.9797L832.969 21.0627L832.399 21.0247L832.996 20.7927L832.452 20.4037L832.798 20.1027L832.43 20.5077L832.785 20.4597L832.566 20.3907L832.85 20.1717L832.125 20.3327L832.734 20.3887L832.476 20.3917L832.602 21.0937L832.258 21.6077" stroke="black" stroke-width="2" stroke-linecap="round" stroke-linejoin="round"/>
<path d="M757.723 17.8337V36.5097" stroke="black" stroke-width="2" stroke-linecap="round" stroke-linejoin="round"/>
<path d="M745.705 17.4227V34.4587" stroke="black" stroke-width="2" stroke-linecap="round" stroke-linejoin="round"/>
<path d="M746.936 35.6727H753.936" stroke="black" stroke-width="2" stroke-linecap="round" stroke-linejoin="round"/>
<path d="M83.5215 14.5757V36.5757" stroke="black" stroke-width="2" stroke-linecap="round" stroke-linejoin="round"/>
<path d="M84.7871 15.6347L85.1411 16.0837L86.7831 15.9917L87.9811 15.0627L89.7981 15.5137L91.8811 15.3407L92.1341 15.8037L93.3691 16.0117L93.5831 16.5117L94.1311 16.7017L94.0171 17.0767L95.8201 17.7017L96.0921 18.3917L96.4871 18.5307L96.2151 18.7777L97.0841 19.2027L96.8411 19.6517L97.2541 19.7027L97.2671 20.1487L96.9131 20.3617L97.0411 21.4617L96.6391 22.2427L95.8391 22.7847L96.1811 23.2007L95.3061 23.4927L95.4031 23.6797L93.4321 24.4747L91.9951 24.5587L91.3001 24.8767L91.5551 24.9647L89.2691 25.6867L89.0201 25.4947L89.2341 25.4437L87.4541 25.6287L87.5601 25.8087L86.6311 25.8477L86.8031 26.1007L86.0811 25.9417L86.6011 25.7437L86.9421 25.9867" stroke="black" stroke-width="2" stroke-linecap="round" stroke-linejoin="round"/>
<path d="M105.056 21.2667L102.039 21.4517L103.239 21.2817L102.937 21.2927L103.167 21.5097L102.756 21.7847L103.125 22.2317L102.729 22.5497L103.466 23.6657L103.71 24.9357L103.477 25.7197L103.888 29.7197L103.163 31.9457L103.089 35.0747L103.687 35.6617L104.365 34.1237" stroke="black" stroke-width="2" stroke-linecap="round" stroke-linejoin="round"/>
<path d="M105.361 19.6917L105.112 19.3637L105.251 17.4987L105.035 17.1827L106.527 15.2957L107.356 14.7217L108.866 14.3057L110.65 14.7027L112.291 16.3087L112.764 18.3317L111.542 21.5757L108.366 25.2207L106.999 25.5987L107.547 25.3137L108.605 25.7277L110.673 27.6957L112.048 30.3477L113.243 31.7777L113.451 34.1627L114.159 35.9157L114.434 35.6447L114.224 35.5897" stroke="black" stroke-width="2" stroke-linecap="round" stroke-linejoin="round"/>
<path d="M128.206 17.8047L127.895 17.9477L126.526 16.8757L125.729 17.0417L122.29 19.5847L121.605 20.9737L120.878 21.2987L119.206 23.3877L119.451 24.9538L118.979 26.5887L119.642 28.3037L119.487 29.3377L119.742 30.0238L121.788 32.9587L123.312 34.1527L123.913 34.4437L125.4 33.9658L128.868 30.7308L130.923 23.9538L130.556 20.6577L129.776 19.3677L128.73 18.7018L127.543 17.0047L124.233 15.7787L121.522 16.6097L120.602 17.7127L120.22 19.2087L119.059 21.3497" stroke="black" stroke-width="2" stroke-linecap="round" stroke-linejoin="round"/>
<path d="M139.271 17.7097L137.56 18.0497L137.505 17.7907L138.177 17.8087L137.692 17.9437L137.54 18.5017L137.275 18.1617L137.906 18.2157L137.43 17.8377L136.83 18.2627L137.42 18.3637L137.072 18.9897L137.346 22.2557L137.089 25.8647L137.669 28.3447L137.226 30.7887L137.482 32.0307L137.151 32.5987L137.292 36.4897L138.125 36.8487L137.647 37.4437L138.199 37.8637L137.533 37.9507L137.99 38.1577L137.726 38.1917L137.926 37.7727L137.454 37.5397L137.654 37.1637L137.341 37.4087L137.998 37.4277L137.338 37.3607L137.807 37.5287L137.468 37.4977L137.762 37.6947L137.221 37.8717L137.656 37.9667L137.338 38.0807L138.05 37.9187L137.503 38.0557L137.832 37.9527L137.736 37.7337L137.648 38.0447L137.418 37.9537L138.038 37.9517L137.381 37.9527L137.949 37.7777L137.555 37.7757L137.988 37.6957L137.751 37.2467L137.662 37.7687L137.252 37.4817" stroke="black" stroke-width="2" stroke-linecap="round" stroke-linejoin="round"/>
<path d="M137.645 18.3297H149.645" stroke="black" stroke-width="2" stroke-linecap="round" stroke-linejoin="round"/>
<path d="M138.27 26.6697H145.685" stroke="black" stroke-width="2" stroke-linecap="round" stroke-linejoin="round"/>
<path d="M156.541 15.8077V37.8077" stroke="black" stroke-width="2" stroke-linecap="round" stroke-linejoin="round"/>
<path d="M167.021 17.7897L165.31 18.1297L165.256 17.8707L165.927 17.8877L165.443 18.0237L165.29 18.5807L165.025 18.2417L165.656 18.2957L165.18 17.9177L164.58 18.3427L165.171 18.4437L164.823 19.0697L165.096 22.3347L164.839 25.9437L165.42 28.4247L164.977 30.8687L165.233 32.1097L164.902 32.6787L165.043 36.5697L165.875 36.9287L165.397 37.5237L165.949 37.9437L165.284 38.0307L165.741 38.2377L165.476 38.2717L165.676 37.8517L165.204 37.6187L165.404 37.2427L165.092 37.4887L165.749 37.5067L165.088 37.4407L165.557 37.6087L165.218 37.5777L165.512 37.7747L164.971 37.9517L165.407 38.0467L165.088 38.1597L165.8 37.9977L165.253 38.1347L165.582 38.0327L165.487 37.8137L165.399 38.1237L165.169 38.0337L165.788 38.0307L165.131 38.0327L165.699 37.8577L165.305 37.8557L165.739 37.7747L165.502 37.3257L165.412 37.8487L165.002 37.5607" stroke="black" stroke-width="2" stroke-linecap="round" stroke-linejoin="round"/>
<path d="M166.732 37.0007H178.732" stroke="black" stroke-width="2" stroke-linecap="round" stroke-linejoin="round"/>
<path d="M184.755 17.9857L183.043 18.3257L182.988 18.0677L183.661 18.0847L183.176 18.2197L183.023 18.7777L182.758 18.4387L183.389 18.4927L182.913 18.1147L182.312 18.5387L182.904 18.6397L182.556 19.2657L182.829 22.5317L182.573 26.1407L183.152 28.6207L182.71 31.0647L182.966 32.3067L182.635 32.8747L182.776 36.7657L183.608 37.1247L183.131 37.7197L183.682 38.1397L183.017 38.2277L183.474 38.4347L183.21 38.4687L183.41 38.0487L182.937 37.8157L183.138 37.4397L182.825 37.6857L183.482 37.7037L182.82 37.6377L183.29 37.8047L182.952 37.7747L183.246 37.9707L182.704 38.1487L183.139 38.2427L182.822 38.3567L183.534 38.1947L182.987 38.3317L183.316 38.2297L183.22 38.0097L183.132 38.3207L182.902 38.2297L183.522 38.2277L182.865 38.2297L183.432 38.0537L183.039 38.0517L183.471 37.9717L183.234 37.5227L183.145 38.0457L182.736 37.7577" stroke="black" stroke-width="2" stroke-linecap="round" stroke-linejoin="round"/>
<path d="M183.127 18.6057H195.127" stroke="black" stroke-width="2" stroke-linecap="round" stroke-linejoin="round"/>
<path d="M184.467 37.1967H196.467" stroke="black" stroke-width="2" stroke-linecap="round" stroke-linejoin="round"/>
<path d="M183.752 26.9457H191.167" stroke="black" stroke-width="2" stroke-linecap="round" stroke-linejoin="round"/>
<path d="M13.0176 19.8148V38.4898" stroke="black" stroke-width="2" stroke-linecap="round" stroke-linejoin="round"/>
<path d="M1 19.4037V36.4388" stroke="black" stroke-width="2" stroke-linecap="round" stroke-linejoin="round"/>
<path d="M2.23047 37.6537H9.23047" stroke="black" stroke-width="2" stroke-linecap="round" stroke-linejoin="round"/>
<path d="M28.367 19.3027L27.484 19.3047L26.535 18.6177L25.488 18.6068L23.778 19.4007L21.718 21.7687L21.29 22.9187L21.767 23.1377L21.235 24.4827L22.7369 27.6667L26.144 28.4827L27.207 29.6397L27.567 30.7217L27.21 30.7837L27.632 31.0267L27.757 32.2347L27.578 34.4128L27.028 35.0337L27.258 35.6947L26.237 36.7397L26.103 37.3607L25.65 37.7158L25.831 37.8487L23.18 38.6087L20.038 38.4497L18.65 37.6687L18.293 37.9147" stroke="black" stroke-width="2" stroke-linecap="round" stroke-linejoin="round"/>
<path d="M36.5426 18.0097L34.8316 18.3497L34.7776 18.0907L35.4486 18.1077L34.9646 18.2437L34.8126 18.8007L34.5466 18.4617L35.1776 18.5157L34.7016 18.1377L34.1016 18.5627L34.6926 18.6637L34.3446 19.2897L34.6176 22.5547L34.3606 26.1637L34.9416 28.6447L34.4986 31.0887L34.7546 32.3297L34.4236 32.8977L34.5646 36.7897L35.3966 37.1477L34.9185 37.7437L35.4706 38.1637L34.8056 38.2507L35.2626 38.4577L34.9976 38.4917L35.1976 38.0717L34.7256 37.8387L34.9256 37.4627L34.6136 37.7087L35.2706 37.7267L34.6096 37.6607L35.0786 37.8287L34.7396 37.7977L35.0346 37.9947L34.4926 38.1717L34.9286 38.2667L34.6096 38.3797L35.3216 38.2187L34.7756 38.3547L35.1046 38.2527L35.0086 38.0337L34.9206 38.3437L34.6906 38.2537L35.3096 38.2507L34.6526 38.2527L35.2206 38.0777L34.8276 38.0757L35.2606 37.9947L35.0236 37.5457L34.9336 38.0687L34.5246 37.7817" stroke="black" stroke-width="2" stroke-linecap="round" stroke-linejoin="round"/>
<path d="M34.916 18.6297H46.916" stroke="black" stroke-width="2" stroke-linecap="round" stroke-linejoin="round"/>
<path d="M36.2559 37.2207H48.2559" stroke="black" stroke-width="2" stroke-linecap="round" stroke-linejoin="round"/>
<path d="M35.541 26.9697H42.957" stroke="black" stroke-width="2" stroke-linecap="round" stroke-linejoin="round"/>
<path d="M53.5697 24.3347L50.5527 24.5207L51.7527 24.3497L51.4507 24.3617L51.6808 24.5787L51.2697 24.8537L51.6387 25.3007L51.2427 25.6177L51.9797 26.7337L52.2238 28.0047L51.9908 28.7877L52.4017 32.7877L51.6768 35.0137L51.6028 38.1437L52.2007 38.7297L52.8788 37.1917" stroke="black" stroke-width="2" stroke-linecap="round" stroke-linejoin="round"/>
<path d="M53.8748 22.7597L53.6258 22.4327L53.7648 20.5677L53.5488 20.2507L55.0408 18.3647L55.8698 17.7897L57.3799 17.3737L59.1638 17.7707L60.8048 19.3767L61.2778 21.3997L60.0558 24.6437L56.8799 28.2897L55.5128 28.6667L56.0609 28.3827L57.1188 28.7967L59.1868 30.7647L60.5618 33.4167L61.7568 34.8467L61.9648 37.2317L62.6729 38.9847L62.9478 38.7137L62.7378 38.6577" stroke="black" stroke-width="2" stroke-linecap="round" stroke-linejoin="round"/>
</svg>
