<svg width="312" height="596" viewBox="0 0 312 596" fill="none" xmlns="http://www.w3.org/2000/svg">
<rect x="70" y="431" width="159" height="38" fill="#292562" fill-opacity="0.3"/>
<rect x="85" y="384" width="135" height="44" fill="#292562" fill-opacity="0.3"/>
<path d="M20.582 24.38V480.41" stroke="#555555" stroke-width="4" stroke-linecap="round" stroke-linejoin="round"/>
<path d="M289.521 28.189V484.22" stroke="#555555" stroke-width="4" stroke-linecap="round" stroke-linejoin="round"/>
<path d="M2.58008 5.17902H308.58" stroke="#555555" stroke-width="4" stroke-linecap="round" stroke-linejoin="round"/>
<path d="M18.5801 28.179H288.58" stroke="#555555" stroke-width="4" stroke-linecap="round" stroke-linejoin="round"/>
<path d="M18.5801 482.18H289.58" stroke="#555555" stroke-width="4" stroke-linecap="round" stroke-linejoin="round"/>
<path d="M6.86719 551.46H305.867" stroke="#555555" stroke-width="4" stroke-linecap="round" stroke-linejoin="round"/>
<path d="M4.58008 6.17902V553.18" stroke="#555555" stroke-width="4" stroke-linecap="round" stroke-linejoin="round"/>
<path d="M309.814 2.91101V549.91" stroke="#555555" stroke-width="4" stroke-linecap="round" stroke-linejoin="round"/>
<path d="M169.19 526.34L170.076 522.85L170.293 519.25L169.832 515.68L168.711 512.26L166.258 508.14L163.786 505.52L160.867 503.41L157.604 501.88L154.114 501L150.519 500.78L146.947 501.24L143.524 502.36L140.373 504.1L136.783 507.29L134.674 510.21L133.148 513.47L132.262 516.96L132.045 520.55L132.808 525.29L134.142 528.63L136.08 531.67L138.552 534.29L141.471 536.4L144.734 537.92L148.224 538.81L151.819 539.03L155.391 538.57L158.814 537.45L161.965 535.7L164.734 533.4L167.665 529.6L169.19 526.34Z" stroke="#555555" stroke-width="4" stroke-linecap="round" stroke-linejoin="round"/>
<path d="M195.182 270.29L206.182 288.29" stroke="#555555" stroke-width="4" stroke-linecap="round" stroke-linejoin="round"/>
<path d="M190.182 290.29L209.182 273.29" stroke="#555555" stroke-width="4" stroke-linecap="round" stroke-linejoin="round"/>
<path d="M186.076 197.09L197.076 215.09" stroke="#555555" stroke-width="4" stroke-linecap="round" stroke-linejoin="round"/>
<path d="M181.076 217.09L200.076 200.09" stroke="#555555" stroke-width="4" stroke-linecap="round" stroke-linejoin="round"/>
<path d="M116.416 289.99L127.416 307.99" stroke="#555555" stroke-width="4" stroke-linecap="round" stroke-linejoin="round"/>
<path d="M111.416 309.99L130.416 292.99" stroke="#555555" stroke-width="4" stroke-linecap="round" stroke-linejoin="round"/>
<path d="M244.642 268.76L246.763 257.82L247.305 252.28L247.341 241.14L246.834 235.59L244.782 224.65L241.373 214.04L239.177 208.92L233.842 199.14L227.324 190.11L223.653 185.92L215.558 178.27L211.166 174.84L201.781 168.85L196.825 166.3L191.718 164.07L181.137 160.6L170.203 158.47L164.658 157.93L159.089 157.74L147.971 158.4L137.024 160.46L126.42 163.86L116.328 168.57L111.523 171.4L102.491 177.91L98.3004 181.58L90.6504 189.68L87.2214 194.07L84.0754 198.67L78.6784 208.41L74.5454 218.76L72.9744 224.1L70.8524 235.03L70.3104 240.58L70.2754 251.72L70.7824 257.27L72.8344 268.21L76.2424 278.82L80.9524 288.91L83.7734 293.71L90.2914 302.75L93.9634 306.94L102.058 314.59L106.449 318.02L111.047 321.16L120.791 326.56L125.897 328.79L136.479 332.26L141.912 333.5L152.958 334.93L164.096 334.96L169.644 334.46L180.591 332.4L185.947 330.87L191.195 329L201.288 324.29L210.711 318.35L219.315 311.27L223.267 307.35L230.394 298.79L233.54 294.19L238.937 284.45L241.166 279.34L244.642 268.76Z" stroke="#555555" stroke-width="6" stroke-linecap="round" stroke-linejoin="round"/>
<path d="M169.017 100.2L167.838 100.44L167.8 100.26L168.263 100.27L167.929 100.36L167.824 100.75L167.641 100.51L168.076 100.55L167.748 100.29L167.334 100.58L167.742 100.65L167.502 101.08L167.69 103.33L167.513 105.82L167.913 107.53L167.608 109.22L167.784 110.07L167.556 110.46L167.653 113.15L168.227 113.39L167.898 113.8L168.278 114.09L167.819 114.15L168.134 114.3L167.952 114.32L168.09 114.03L167.764 113.87L167.903 113.61L167.687 113.78L168.14 113.79L167.685 113.75L168.008 113.86L167.774 113.84L167.977 113.98L167.604 114.1L167.904 114.17L167.685 114.24L168.175 114.13L167.799 114.23L168.025 114.16L167.959 114L167.899 114.22L167.74 114.16L168.167 114.15L167.714 114.16L168.106 114.03H167.834L168.133 113.98L167.97 113.67L167.908 114.03L167.626 113.83" stroke="#555555" stroke-width="1.5" stroke-linecap="round" stroke-linejoin="round"/>
<path d="M167.896 100.63H176.168" stroke="#555555" stroke-width="1.5" stroke-linecap="round" stroke-linejoin="round"/>
<path d="M168.326 106.38H173.437" stroke="#555555" stroke-width="1.5" stroke-linecap="round" stroke-linejoin="round"/>
<path d="M180.758 103.43L179.727 103.35L178.68 103.99L177.4 105.34L177.3 105.88L176.59 106.92L176.242 108.47L175.639 109.37L175.663 110.5L175.438 111.2L175.705 112.03L175.535 112.52L176.225 112.85L176.426 113.13L176.329 113.38L176.763 113.91L178.025 114.3L179.559 114.4L180.447 114.21L181.789 113.53L181.923 113L182.698 112.43L183.289 111.58L183.192 110.8L183.679 109.62L183.801 108.69L183.029 107.7L182.98 107.08L182.15 106.16L181.597 104.53L180.344 103.97L180.158 104.06" stroke="#555555" stroke-width="1.5" stroke-linecap="round" stroke-linejoin="round"/>
<path d="M199.094 98.9399L208.745 114.1" stroke="#555555" stroke-width="1.5" stroke-linecap="round" stroke-linejoin="round"/>
<path d="M200.367 102.14V113.89" stroke="#555555" stroke-width="1.5" stroke-linecap="round" stroke-linejoin="round"/>
<path d="M209.145 101.26V114.13" stroke="#555555" stroke-width="1.5" stroke-linecap="round" stroke-linejoin="round"/>
<path d="M234.154 101.13H246.561" stroke="#555555" stroke-width="1.5" stroke-linecap="round" stroke-linejoin="round"/>
<path d="M241.047 100.57V112.97" stroke="#555555" stroke-width="1.5" stroke-linecap="round" stroke-linejoin="round"/>
<path d="M272.746 102.7V115.57" stroke="#555555" stroke-width="1.5" stroke-linecap="round" stroke-linejoin="round"/>
<path d="M262.695 100.38L272.346 115.54" stroke="#555555" stroke-width="1.5" stroke-linecap="round" stroke-linejoin="round"/>
<path d="M170.141 128.24L168.399 128.43L169.163 128.79L168.459 131.29L168.505 133.05L168.213 133.37L167.898 134.76L168.57 136.74L168.036 137.38L168.522 139.74L168.094 140.37L168.563 141.34L168.362 141.58L168.543 141.62L168.21 141.65L168.351 141.77L168.092 142.04L168.819 142.53L168.271 142.87L168.425 143.47L167.893 143.54L168.348 143.42L168.226 143.33L168.754 142.99L168.582 142.97H168.85L168.315 143.25L168.238 142.99L168.931 143.08L168.254 143.1L168.15 143.24L168.438 143.32L168.143 143.27L168.391 143.17L168.132 143.34L168.297 143.4L168.09 143.34L168.456 143.39L168.093 143.32L168.262 143.18L167.838 143.36" stroke="#555555" stroke-width="1.5" stroke-linecap="round" stroke-linejoin="round"/>
<path d="M169.699 129.59L169.252 129.67L169.577 129.82L169.219 129.87L169.971 130.4L169.978 131.02L170.537 131.47L170.367 131.69L170.537 132L171.469 132.45L172.483 134.34L173.867 136.03L173.873 136.33L174.545 136.41L175.038 136.79L175.558 136.36L175.029 136.32L175.235 136.2" stroke="#555555" stroke-width="1.5" stroke-linecap="round" stroke-linejoin="round"/>
<path d="M179.207 129.8L178.085 130.45L178.181 130.75L176.799 133.11L175.825 135.48L175.113 136.3L175.243 136.57L174.883 136.99L174.598 136.88L174.886 137.08" stroke="#555555" stroke-width="1.5" stroke-linecap="round" stroke-linejoin="round"/>
<path d="M179.789 129.43V140.46" stroke="#555555" stroke-width="1.5" stroke-linecap="round" stroke-linejoin="round"/>
<path d="M186.603 131.3L181.777 143.02" stroke="#555555" stroke-width="1.5" stroke-linecap="round" stroke-linejoin="round"/>
<path d="M186.838 127.95L192.352 141.74" stroke="#555555" stroke-width="1.5" stroke-linecap="round" stroke-linejoin="round"/>
<path d="M186.604 139.57H192.808" stroke="#555555" stroke-width="1.5" stroke-linecap="round" stroke-linejoin="round"/>
<path d="M211.976 128.39L210.75 128.29L209.507 129.05L207.987 130.66L207.868 131.3L207.024 132.54L206.611 134.37L205.894 135.45L205.923 136.79L205.654 137.62L205.973 138.61L205.77 139.19L206.591 139.58L206.829 139.91L206.714 140.21L207.23 140.84L208.729 141.3L210.55 141.42L211.606 141.2L213.201 140.38L213.36 139.76L214.28 139.08L214.983 138.07L214.867 137.14L215.446 135.74L215.591 134.63L214.672 133.45L214.615 132.72L213.629 131.62L212.972 129.7L211.484 129.03L211.262 129.14" stroke="#555555" stroke-width="1.75" stroke-linecap="round" stroke-linejoin="round"/>
<path d="M211.4 137.81L211.283 138.01L211.484 138.12L211.793 139.32L212.39 140.05L212.567 141.26L215.097 144.64L215.06 145.35L215.705 146.35L215.651 146.92L215.988 147.25L216.475 147.31L216.025 147.48L216.098 147.72L215.818 147.66L216.055 147.76L215.913 148.02L216.065 147.99L215.756 147.97H216.131L215.771 148.03H216.055L216.01 148.61" stroke="#555555" stroke-width="1.5" stroke-linecap="round" stroke-linejoin="round"/>
<path d="M195.824 101.95V114.82" stroke="#555555" stroke-width="1.5" stroke-linecap="round" stroke-linejoin="round"/>
<path d="M187.541 101.67V113.41" stroke="#555555" stroke-width="1.5" stroke-linecap="round" stroke-linejoin="round"/>
<path d="M188.391 114.25H193.216" stroke="#555555" stroke-width="1.5" stroke-linecap="round" stroke-linejoin="round"/>
<path d="M219.143 130.07V141.81" stroke="#555555" stroke-width="1.5" stroke-linecap="round" stroke-linejoin="round"/>
<path d="M219.992 142.65H224.817" stroke="#555555" stroke-width="1.5" stroke-linecap="round" stroke-linejoin="round"/>
<path d="M214.531 114.08L214.496 114.27L214.924 113.9L216.967 114.02L217.618 113.78L217.707 113.54L219.57 113.4L220.211 113.02L220.731 112.32L220.819 111.51L222.137 110.29L222.516 109.61L222.554 108.6L223.216 106.55L222.76 106.13L222.706 104.75L222.119 103.78L222.271 103.67L221.867 103.5L221.685 102.8L220.817 102.35L221.058 102.15L220.212 101.67L219.401 101.65L216.924 100.87L215.801 101.06L215.228 101.41L213.349 101.57L212.77 101.99L212.873 101.81" stroke="#555555" stroke-width="1.5" stroke-linecap="round" stroke-linejoin="round"/>
<path d="M214.176 100.91V113.78" stroke="#555555" stroke-width="1.5" stroke-linecap="round" stroke-linejoin="round"/>
<path d="M228.725 103.25L223.9 114.97" stroke="#555555" stroke-width="1.5" stroke-linecap="round" stroke-linejoin="round"/>
<path d="M228.959 99.9L234.474 113.69" stroke="#555555" stroke-width="1.5" stroke-linecap="round" stroke-linejoin="round"/>
<path d="M228.725 111.52H234.929" stroke="#555555" stroke-width="1.5" stroke-linecap="round" stroke-linejoin="round"/>
<path d="M249.393 101.55V114.42" stroke="#555555" stroke-width="1.5" stroke-linecap="round" stroke-linejoin="round"/>
<path d="M196.506 132.22L194.426 132.35L195.254 132.23L195.046 132.24L195.204 132.39L194.921 132.58L195.175 132.89L194.902 133.11L195.41 133.87L195.578 134.75L195.418 135.29L195.701 138.05L195.201 139.58L195.15 141.74L195.562 142.14L196.029 141.08" stroke="#555555" stroke-width="1.5" stroke-linecap="round" stroke-linejoin="round"/>
<path d="M196.715 131.14L196.544 130.91L196.64 129.62L196.49 129.41L197.519 128.11L198.091 127.71L199.131 127.42L200.361 127.7L201.492 128.8L201.818 130.2L200.976 132.43L198.786 134.95L197.845 135.21L198.222 135.01L198.952 135.3L200.377 136.65L201.325 138.48L202.149 139.47L202.292 141.11L202.78 142.32L202.97 142.13L202.825 142.09" stroke="#555555" stroke-width="1.5" stroke-linecap="round" stroke-linejoin="round"/>
<path d="M263.971 103.58V115.33" stroke="#555555" stroke-width="1.5" stroke-linecap="round" stroke-linejoin="round"/>
<path d="M258.275 103.37L257.243 103.28L256.196 103.93L254.917 105.28L254.817 105.82L254.107 106.86L253.759 108.41L253.156 109.31L253.18 110.44L252.953 111.14L253.221 111.97L253.051 112.46L253.742 112.79L253.942 113.07L253.845 113.32L254.28 113.85L255.541 114.24L257.074 114.34L257.964 114.15L259.306 113.47L259.44 112.94L260.215 112.37L260.806 111.52L260.708 110.74L261.196 109.56L261.318 108.63L260.544 107.63L260.496 107.01L259.667 106.09L259.113 104.47L257.861 103.91L257.674 104" stroke="#555555" stroke-width="1.5" stroke-linecap="round" stroke-linejoin="round"/>
<path d="M227.428 130.35V143.22" stroke="#555555" stroke-width="1.5" stroke-linecap="round" stroke-linejoin="round"/>
<path d="M233.04 128.18L231.86 128.42L231.823 128.24L232.285 128.25L231.951 128.34L231.846 128.73L231.663 128.49L232.098 128.53L231.77 128.27L231.357 128.56L231.764 128.63L231.524 129.06L231.713 131.31L231.535 133.8L231.936 135.51L231.63 137.2L231.807 138.05L231.578 138.44L231.676 141.13L232.249 141.37L231.92 141.78L232.301 142.07L231.842 142.13L232.157 142.28L231.975 142.3L232.112 142.01L231.787 141.85L231.925 141.59L231.709 141.76L232.162 141.77L231.707 141.73L232.03 141.84L231.797 141.82L232 141.96L231.626 142.08L231.927 142.14L231.707 142.22L232.198 142.11L231.821 142.21L232.048 142.14L231.982 141.98L231.921 142.2L231.763 142.14L232.19 142.13L231.737 142.14L232.128 142.01H231.857L232.155 141.96L231.992 141.65L231.93 142.01L231.648 141.81" stroke="#555555" stroke-width="1.5" stroke-linecap="round" stroke-linejoin="round"/>
<path d="M231.918 128.61H240.19" stroke="#555555" stroke-width="1.5" stroke-linecap="round" stroke-linejoin="round"/>
<path d="M232.842 141.42H241.114" stroke="#555555" stroke-width="1.5" stroke-linecap="round" stroke-linejoin="round"/>
<path d="M232.35 134.36H237.461" stroke="#555555" stroke-width="1.5" stroke-linecap="round" stroke-linejoin="round"/>
<path d="M250.122 128.97L249.513 128.98L248.859 128.5L248.137 128.49L246.959 129.04L245.539 130.67L245.244 131.47L245.573 131.62L245.206 132.54L246.241 134.74L248.589 135.3L249.322 136.1L249.571 136.84L249.324 136.89L249.615 137.06L249.702 137.89L249.578 139.39L249.199 139.82L249.358 140.27L248.654 140.99L248.562 141.42L248.249 141.67L248.374 141.76L246.547 142.28L244.38 142.17L243.423 141.63L243.178 141.8" stroke="#555555" stroke-width="1.5" stroke-linecap="round" stroke-linejoin="round"/>
<path d="M168.601 101.31L167.421 101.55L167.384 101.37L167.847 101.38L167.512 101.47L167.408 101.86L167.225 101.62L167.66 101.66L167.331 101.4L166.918 101.69L167.325 101.76L167.085 102.2L167.274 104.45L167.096 106.93L167.497 108.64L167.191 110.33L167.368 111.18L167.14 111.58L167.237 114.26L167.81 114.51L167.481 114.92L167.862 115.21L167.403 115.27L167.718 115.41L167.536 115.43L167.674 115.14L167.348 114.98L167.486 114.72L167.27 114.89L167.723 114.9L167.268 114.86L167.591 114.97L167.358 114.95L167.561 115.09L167.187 115.21L167.488 115.28L167.268 115.35L167.759 115.24L167.382 115.34L167.609 115.27L167.543 115.12L167.482 115.33L167.324 115.27H167.751H167.298L167.689 115.15L167.418 115.14L167.717 115.09L167.553 114.78L167.491 115.14L167.209 114.94" stroke="#555555" stroke-width="1.5" stroke-linecap="round" stroke-linejoin="round"/>
<path d="M167.479 101.74H175.751" stroke="#555555" stroke-width="1.5" stroke-linecap="round" stroke-linejoin="round"/>
<path d="M167.91 107.49H173.022" stroke="#555555" stroke-width="1.5" stroke-linecap="round" stroke-linejoin="round"/>
<path d="M180.342 104.54L179.31 104.46L178.263 105.1L176.984 106.46L176.884 106.99L176.173 108.03L175.825 109.58L175.222 110.48L175.247 111.61L175.02 112.32L175.288 113.14L175.118 113.63L175.809 113.97L176.009 114.24L175.912 114.5L176.347 115.02L177.608 115.41L179.141 115.51L180.031 115.33L181.373 114.64L181.507 114.11L182.281 113.54L182.873 112.69L182.775 111.91L183.263 110.73L183.385 109.8L182.611 108.81L182.563 108.19L181.733 107.27L181.18 105.64L179.928 105.08L179.74 105.17" stroke="#555555" stroke-width="1.5" stroke-linecap="round" stroke-linejoin="round"/>
<path d="M198.678 100.05L208.329 115.21" stroke="#555555" stroke-width="1.5" stroke-linecap="round" stroke-linejoin="round"/>
<path d="M199.951 103.26V115" stroke="#555555" stroke-width="1.5" stroke-linecap="round" stroke-linejoin="round"/>
<path d="M208.729 102.37V115.24" stroke="#555555" stroke-width="1.5" stroke-linecap="round" stroke-linejoin="round"/>
<path d="M233.736 102.24H246.144" stroke="#555555" stroke-width="1.5" stroke-linecap="round" stroke-linejoin="round"/>
<path d="M240.631 101.68V114.08" stroke="#555555" stroke-width="1.5" stroke-linecap="round" stroke-linejoin="round"/>
<path d="M272.33 103.81V116.68" stroke="#555555" stroke-width="1.5" stroke-linecap="round" stroke-linejoin="round"/>
<path d="M262.279 101.49L271.929 116.65" stroke="#555555" stroke-width="1.5" stroke-linecap="round" stroke-linejoin="round"/>
<path d="M169.723 129.36L167.981 129.54L168.745 129.9L168.042 132.4L168.087 134.16L167.796 134.48L167.48 135.87L168.152 137.86L167.618 138.49L168.104 140.85L167.676 141.48L168.145 142.45L167.945 142.69L168.126 142.73L167.792 142.76L167.934 142.88L167.675 143.15L168.402 143.64L167.853 143.98L168.008 144.58L167.476 144.65L167.93 144.53L167.808 144.44L168.337 144.1L168.164 144.08H168.433L167.898 144.36L167.821 144.1L168.514 144.19L167.836 144.21L167.732 144.36L168.021 144.43L167.725 144.38L167.974 144.29L167.715 144.45L167.879 144.51L167.672 144.45L168.038 144.5L167.675 144.43L167.845 144.3L167.42 144.47" stroke="#555555" stroke-width="1.5" stroke-linecap="round" stroke-linejoin="round"/>
<path d="M169.283 130.71L168.837 130.78L169.161 130.93L168.803 130.98L169.555 131.51L169.562 132.13L170.121 132.58L169.952 132.8L170.121 133.11L171.054 133.56L172.067 135.46L173.451 137.14L173.458 137.44L174.129 137.52L174.622 137.9L175.143 137.47L174.613 137.43L174.819 137.31" stroke="#555555" stroke-width="1.5" stroke-linecap="round" stroke-linejoin="round"/>
<path d="M178.79 130.91L177.668 131.56L177.763 131.86L176.381 134.22L175.408 136.59L174.695 137.41L174.826 137.68L174.466 138.1L174.18 137.99L174.468 138.19" stroke="#555555" stroke-width="1.5" stroke-linecap="round" stroke-linejoin="round"/>
<path d="M179.373 130.54V141.57" stroke="#555555" stroke-width="1.5" stroke-linecap="round" stroke-linejoin="round"/>
<path d="M186.186 132.41L181.361 144.13" stroke="#555555" stroke-width="1.5" stroke-linecap="round" stroke-linejoin="round"/>
<path d="M186.42 129.06L191.935 142.85" stroke="#555555" stroke-width="1.5" stroke-linecap="round" stroke-linejoin="round"/>
<path d="M186.186 140.68H192.39" stroke="#555555" stroke-width="1.5" stroke-linecap="round" stroke-linejoin="round"/>
<path d="M211.561 129.5L210.335 129.4L209.091 130.16L207.571 131.77L207.453 132.41L206.609 133.65L206.195 135.48L205.479 136.56L205.507 137.9L205.238 138.73L205.557 139.72L205.355 140.3L206.175 140.69L206.413 141.02L206.298 141.32L206.814 141.95L208.313 142.41L210.134 142.53L211.191 142.31L212.785 141.49L212.945 140.87L213.865 140.19L214.567 139.18L214.451 138.25L215.031 136.85L215.176 135.74L214.257 134.57L214.2 133.83L213.214 132.74L212.556 130.81L211.069 130.14L210.846 130.25" stroke="#555555" stroke-width="1.75" stroke-linecap="round" stroke-linejoin="round"/>
<path d="M210.983 138.92L210.865 139.12L211.067 139.23L211.375 140.43L211.973 141.16L212.15 142.38L214.68 145.75L214.643 146.47L215.287 147.46L215.234 148.03L215.57 148.37L216.058 148.43L215.607 148.59L215.68 148.83L215.401 148.77L215.638 148.87L215.495 149.13L215.647 149.1L215.338 149.08H215.713L215.353 149.14H215.637L215.592 149.72" stroke="#555555" stroke-width="1.5" stroke-linecap="round" stroke-linejoin="round"/>
<path d="M195.408 103.06V115.93" stroke="#555555" stroke-width="1.5" stroke-linecap="round" stroke-linejoin="round"/>
<path d="M187.123 102.78V114.52" stroke="#555555" stroke-width="1.5" stroke-linecap="round" stroke-linejoin="round"/>
<path d="M187.973 115.36H192.799" stroke="#555555" stroke-width="1.5" stroke-linecap="round" stroke-linejoin="round"/>
<path d="M218.727 131.18V142.92" stroke="#555555" stroke-width="1.5" stroke-linecap="round" stroke-linejoin="round"/>
<path d="M219.574 143.76H224.4" stroke="#555555" stroke-width="1.5" stroke-linecap="round" stroke-linejoin="round"/>
<path d="M214.115 115.19L214.079 115.38L214.507 115.01L216.551 115.13L217.201 114.89L217.29 114.65L219.153 114.51L219.795 114.13L220.314 113.44L220.402 112.62L221.721 111.4L222.1 110.73L222.138 109.71L222.799 107.66L222.343 107.24L222.29 105.86L221.703 104.89L221.854 104.78L221.45 104.61L221.268 103.91L220.401 103.46L220.642 103.26L219.795 102.78L218.985 102.76L216.507 101.98L215.384 102.17L214.812 102.52L212.933 102.68L212.354 103.1L212.456 102.92" stroke="#555555" stroke-width="1.5" stroke-linecap="round" stroke-linejoin="round"/>
<path d="M213.76 102.02V114.9" stroke="#555555" stroke-width="1.5" stroke-linecap="round" stroke-linejoin="round"/>
<path d="M228.308 104.36L223.482 116.08" stroke="#555555" stroke-width="1.5" stroke-linecap="round" stroke-linejoin="round"/>
<path d="M228.543 101.01L234.057 114.8" stroke="#555555" stroke-width="1.5" stroke-linecap="round" stroke-linejoin="round"/>
<path d="M228.309 112.63H234.513" stroke="#555555" stroke-width="1.5" stroke-linecap="round" stroke-linejoin="round"/>
<path d="M248.977 102.66V115.54" stroke="#555555" stroke-width="1.5" stroke-linecap="round" stroke-linejoin="round"/>
<path d="M196.089 133.33L194.01 133.46L194.837 133.34L194.629 133.35L194.788 133.5L194.504 133.69L194.758 134L194.485 134.22L194.993 134.99L195.161 135.86L195.001 136.4L195.285 139.16L194.784 140.69L194.734 142.85L195.145 143.26L195.613 142.2" stroke="#555555" stroke-width="1.5" stroke-linecap="round" stroke-linejoin="round"/>
<path d="M196.299 132.25L196.127 132.02L196.223 130.74L196.074 130.52L197.103 129.22L197.674 128.82L198.715 128.53L199.944 128.81L201.075 129.91L201.402 131.31L200.56 133.55L198.37 136.06L197.428 136.32L197.805 136.12L198.535 136.41L199.96 137.76L200.908 139.59L201.732 140.58L201.875 142.22L202.363 143.43L202.553 143.24L202.409 143.21" stroke="#555555" stroke-width="1.5" stroke-linecap="round" stroke-linejoin="round"/>
<path d="M263.555 104.7V116.44" stroke="#555555" stroke-width="1.5" stroke-linecap="round" stroke-linejoin="round"/>
<path d="M257.858 104.48L256.826 104.4L255.78 105.04L254.5 106.4L254.401 106.93L253.69 107.97L253.342 109.52L252.739 110.42L252.763 111.55L252.537 112.26L252.805 113.08L252.635 113.57L253.325 113.9L253.526 114.18L253.429 114.43L253.863 114.96L255.125 115.35L256.658 115.45L257.547 115.26L258.889 114.58L259.023 114.05L259.798 113.48L260.389 112.63L260.292 111.85L260.779 110.67L260.901 109.74L260.128 108.75L260.08 108.13L259.25 107.21L258.697 105.58L257.444 105.02L257.257 105.11" stroke="#555555" stroke-width="1.5" stroke-linecap="round" stroke-linejoin="round"/>
<path d="M227.01 131.46V144.33" stroke="#555555" stroke-width="1.5" stroke-linecap="round" stroke-linejoin="round"/>
<path d="M232.622 129.29L231.442 129.53L231.405 129.35L231.868 129.36L231.534 129.45L231.429 129.84L231.246 129.6L231.681 129.64L231.353 129.38L230.939 129.67L231.346 129.74L231.106 130.17L231.295 132.43L231.118 134.91L231.518 136.62L231.213 138.31L231.389 139.16L231.161 139.56L231.258 142.24L231.832 142.49L231.502 142.9L231.883 143.19L231.424 143.25L231.739 143.39L231.557 143.41L231.695 143.12L231.369 142.96L231.507 142.7L231.292 142.87L231.745 142.88L231.289 142.84L231.613 142.95L231.379 142.93L231.582 143.07L231.209 143.19L231.509 143.26L231.289 143.33L231.78 143.22L231.403 143.32L231.63 143.25L231.564 143.1L231.503 143.31L231.345 143.25H231.772H231.319L231.71 143.13L231.439 143.12L231.738 143.07L231.574 142.76L231.513 143.12L231.23 142.92" stroke="#555555" stroke-width="1.5" stroke-linecap="round" stroke-linejoin="round"/>
<path d="M231.502 129.72H239.774" stroke="#555555" stroke-width="1.5" stroke-linecap="round" stroke-linejoin="round"/>
<path d="M232.426 142.53H240.697" stroke="#555555" stroke-width="1.5" stroke-linecap="round" stroke-linejoin="round"/>
<path d="M231.932 135.47H237.044" stroke="#555555" stroke-width="1.5" stroke-linecap="round" stroke-linejoin="round"/>
<path d="M249.704 130.08L249.096 130.09L248.442 129.61H247.72L246.541 130.15L245.121 131.78L244.826 132.58L245.155 132.73L244.788 133.66L245.823 135.85L248.172 136.41L248.905 137.21L249.153 137.96L248.907 138L249.198 138.17L249.284 139L249.16 140.5L248.782 140.93L248.94 141.38L248.236 142.1L248.144 142.53L247.832 142.78L247.957 142.87L246.129 143.39L243.963 143.28L243.006 142.75L242.76 142.91" stroke="#555555" stroke-width="1.5" stroke-linecap="round" stroke-linejoin="round"/>
<path d="M263.067 142.87L263.038 143.02L263.391 142.71L265.079 142.82L265.616 142.62L265.69 142.42L267.229 142.3L267.758 141.99L268.187 141.42L268.26 140.75L269.349 139.74L269.662 139.18L269.693 138.34L270.24 136.65L269.863 136.3L269.819 135.16L269.334 134.36L269.459 134.26L269.126 134.13L268.975 133.55L268.259 133.18L268.458 133.01L267.759 132.61L267.089 132.6L265.043 131.96L264.116 132.11L263.643 132.4L262.091 132.53L261.613 132.88L261.698 132.73" stroke="#555555" stroke-width="1.25" stroke-linecap="round" stroke-linejoin="round"/>
<path d="M275.135 133L271.15 142.68" stroke="#555555" stroke-width="1.25" stroke-linecap="round" stroke-linejoin="round"/>
<path d="M275.328 130.24L279.883 141.62" stroke="#555555" stroke-width="1.25" stroke-linecap="round" stroke-linejoin="round"/>
<path d="M275.137 139.83H280.261" stroke="#555555" stroke-width="1.25" stroke-linecap="round" stroke-linejoin="round"/>
<path d="M263.411 141.95L263.382 142.1L263.736 141.8L265.423 141.9L265.961 141.7L266.034 141.5L267.573 141.39L268.103 141.07L268.531 140.5L268.604 139.83L269.693 138.82L270.006 138.26L270.037 137.42L270.584 135.73L270.207 135.38L270.163 134.25L269.678 133.44L269.803 133.35L269.47 133.21L269.319 132.63L268.603 132.26L268.802 132.09L268.103 131.7L267.433 131.68L265.387 131.04L264.46 131.19L263.987 131.48L262.435 131.61L261.957 131.96L262.042 131.81" stroke="#555555" stroke-width="1.25" stroke-linecap="round" stroke-linejoin="round"/>
<path d="M263.119 131.07V141.7" stroke="#555555" stroke-width="1.25" stroke-linecap="round" stroke-linejoin="round"/>
<path d="M274.792 133.92L270.807 143.6" stroke="#555555" stroke-width="1.25" stroke-linecap="round" stroke-linejoin="round"/>
<path d="M274.984 131.15L279.539 142.54" stroke="#555555" stroke-width="1.25" stroke-linecap="round" stroke-linejoin="round"/>
<path d="M274.793 140.75H279.917" stroke="#555555" stroke-width="1.25" stroke-linecap="round" stroke-linejoin="round"/>
<path d="M262.775 131.99V142.62" stroke="#555555" stroke-width="1.25" stroke-linecap="round" stroke-linejoin="round"/>
<path d="M219.176 154.27H218.568L217.914 153.8L217.192 153.79L216.013 154.34L214.593 155.97L214.298 156.76L214.627 156.91L214.26 157.84L215.295 160.03L217.644 160.6L218.377 161.39L218.625 162.14L218.379 162.18L218.669 162.35L218.756 163.18L218.632 164.68L218.253 165.11L218.412 165.57L217.708 166.29L217.616 166.72L217.304 166.96L217.428 167.05L215.601 167.58L213.434 167.47L212.478 166.93L212.232 167.1" stroke="#555555" stroke-width="1.5" stroke-linecap="round" stroke-linejoin="round"/>
<path d="M224.406 155.49V168.36" stroke="#555555" stroke-width="1.5" stroke-linecap="round" stroke-linejoin="round"/>
<path d="M230.922 155.89V167.64" stroke="#555555" stroke-width="1.5" stroke-linecap="round" stroke-linejoin="round"/>
<path d="M231.771 168.47H236.596" stroke="#555555" stroke-width="1.5" stroke-linecap="round" stroke-linejoin="round"/>
<path d="M236.629 153.44L244.901 167.92" stroke="#555555" stroke-width="1.5" stroke-linecap="round" stroke-linejoin="round"/>
<path d="M255.219 156.93L250.393 168.65" stroke="#555555" stroke-width="1.5" stroke-linecap="round" stroke-linejoin="round"/>
<path d="M255.451 153.58L260.965 167.37" stroke="#555555" stroke-width="1.5" stroke-linecap="round" stroke-linejoin="round"/>
<path d="M255.219 165.2H261.423" stroke="#555555" stroke-width="1.5" stroke-linecap="round" stroke-linejoin="round"/>
<path d="M218.76 155.38H218.151L217.497 154.91L216.775 154.9L215.596 155.45L214.176 157.08L213.882 157.87L214.21 158.02L213.844 158.95L214.879 161.14L217.227 161.71L217.96 162.5L218.208 163.25L217.962 163.29L218.253 163.46L218.339 164.29L218.215 165.79L217.837 166.22L217.995 166.68L217.292 167.4L217.199 167.83L216.887 168.07L217.012 168.16L215.184 168.69L213.018 168.58L212.061 168.04L211.816 168.21" stroke="#555555" stroke-width="1.5" stroke-linecap="round" stroke-linejoin="round"/>
<path d="M223.99 156.6V169.47" stroke="#555555" stroke-width="1.5" stroke-linecap="round" stroke-linejoin="round"/>
<path d="M230.506 157V168.75" stroke="#555555" stroke-width="1.5" stroke-linecap="round" stroke-linejoin="round"/>
<path d="M231.355 169.58H236.18" stroke="#555555" stroke-width="1.5" stroke-linecap="round" stroke-linejoin="round"/>
<path d="M236.213 154.56L244.484 169.03" stroke="#555555" stroke-width="1.5" stroke-linecap="round" stroke-linejoin="round"/>
<path d="M246.969 169.3V153.44" stroke="#555555" stroke-width="1.5" stroke-linecap="round" stroke-linejoin="round"/>
<path d="M246.551 170.41V154.56" stroke="#555555" stroke-width="1.5" stroke-linecap="round" stroke-linejoin="round"/>
<path d="M254.802 158.04L249.977 169.76" stroke="#555555" stroke-width="1.5" stroke-linecap="round" stroke-linejoin="round"/>
<path d="M255.035 154.69L260.55 168.48" stroke="#555555" stroke-width="1.5" stroke-linecap="round" stroke-linejoin="round"/>
<path d="M254.801 166.31H261.005" stroke="#555555" stroke-width="1.5" stroke-linecap="round" stroke-linejoin="round"/>
<path d="M45.5198 350.33L44.4008 350.56L44.3658 350.39L44.8048 350.4L44.4878 350.49L44.3878 350.85L44.2148 350.63L44.6268 350.67L44.3158 350.42L43.9238 350.7L44.3098 350.76L44.0818 351.17L44.2608 353.31L44.0928 355.67L44.4728 357.29L44.1828 358.89L44.3508 359.7L44.1338 360.07L44.2258 362.62L44.7708 362.85L44.4578 363.24L44.8188 363.52L44.3838 363.58L44.6828 363.71L44.5098 363.73L44.6408 363.46L44.3318 363.31L44.4628 363.06L44.2578 363.22L44.6878 363.23L44.2558 363.19L44.5628 363.3L44.3408 363.28L44.5338 363.41L44.1788 363.52L44.4638 363.59L44.2558 363.66L44.7218 363.55L44.3638 363.64L44.5788 363.58L44.5168 363.43L44.4588 363.64L44.3088 363.58H44.7138H44.2838L44.6558 363.46H44.3978L44.6818 363.41L44.5258 363.11L44.4678 363.46L44.1998 363.27" stroke="#555555" stroke-width="1.25" stroke-linecap="round" stroke-linejoin="round"/>
<path d="M44.4551 350.74H52.3051" stroke="#555555" stroke-width="1.25" stroke-linecap="round" stroke-linejoin="round"/>
<path d="M45.3301 362.9H53.1801" stroke="#555555" stroke-width="1.25" stroke-linecap="round" stroke-linejoin="round"/>
<path d="M44.8633 356.2H49.7143" stroke="#555555" stroke-width="1.25" stroke-linecap="round" stroke-linejoin="round"/>
<path d="M39.8273 350.18H39.2503L38.6293 349.73L37.9443 349.72L36.8253 350.24L35.4783 351.79L35.1983 352.54L35.5103 352.68L35.1623 353.56L36.1443 355.65L38.3733 356.18L39.0683 356.94L39.3043 357.65L39.0703 357.69L39.3463 357.85L39.4283 358.64L39.3113 360.06L38.9513 360.47L39.1023 360.9L38.4343 361.58L38.3463 361.99L38.0503 362.22L38.1683 362.31L36.4343 362.8L34.3793 362.7L33.4713 362.19L33.2383 362.35" stroke="#555555" stroke-width="1.25" stroke-linecap="round" stroke-linejoin="round"/>
<path d="M78.3574 351.34L83.5904 364.42" stroke="#555555" stroke-width="1.25" stroke-linecap="round" stroke-linejoin="round"/>
<path d="M78.1348 362.36H84.0218" stroke="#555555" stroke-width="1.25" stroke-linecap="round" stroke-linejoin="round"/>
<path d="M67.8343 354.72L65.8613 354.84L66.6453 354.73L66.4483 354.74L66.5993 354.88L66.3303 355.06L66.5713 355.35L66.3123 355.56L66.7943 356.29L66.9533 357.12L66.8013 357.63L67.0703 360.25L66.5963 361.7L66.5473 363.75L66.9383 364.14L67.3823 363.13" stroke="#555555" stroke-width="1.25" stroke-linecap="round" stroke-linejoin="round"/>
<path d="M68.0343 353.69L67.8713 353.47L67.9623 352.25L67.8203 352.05L68.7963 350.81L69.3393 350.44L70.3263 350.17L71.4933 350.43L72.5663 351.48L72.8763 352.8L72.0773 354.92L69.9993 357.31L69.1053 357.55L69.4633 357.37L70.1563 357.64L71.5083 358.92L72.4083 360.66L73.1893 361.59L73.3253 363.15L73.7883 364.3L73.9693 364.12L73.8313 364.09" stroke="#555555" stroke-width="1.25" stroke-linecap="round" stroke-linejoin="round"/>
<path d="M78.1357 354.51L73.5566 365.63" stroke="#555555" stroke-width="1.25" stroke-linecap="round" stroke-linejoin="round"/>
<path d="M87.7461 352.58V363.73" stroke="#555555" stroke-width="1.25" stroke-linecap="round" stroke-linejoin="round"/>
<path d="M88.5527 364.52H93.1317" stroke="#555555" stroke-width="1.25" stroke-linecap="round" stroke-linejoin="round"/>
<path d="M93.1621 350.26L101.011 364" stroke="#555555" stroke-width="1.25" stroke-linecap="round" stroke-linejoin="round"/>
<path d="M102.975 365.3V350.26" stroke="#555555" stroke-width="1.25" stroke-linecap="round" stroke-linejoin="round"/>
<path d="M77.8105 341.64H85.0266" stroke="#555555" stroke-width="1.25" stroke-linecap="round" stroke-linejoin="round"/>
<path d="M73.5121 331.28H72.9811L72.4111 330.87L71.7811 330.86L70.7531 331.34L69.5141 332.76L69.2571 333.45L69.5441 333.58L69.2241 334.39L70.1271 336.31L72.1751 336.8L72.8151 337.49L73.0311 338.14L72.8171 338.18L73.0701 338.33L73.1461 339.05L73.0381 340.36L72.7071 340.74L72.8461 341.14L72.2321 341.76L72.1511 342.14L71.8791 342.35L71.9881 342.43L70.3931 342.89L68.5031 342.79L67.6691 342.32L67.4551 342.47" stroke="#555555" stroke-width="1.25" stroke-linecap="round" stroke-linejoin="round"/>
<path d="M77.9836 330.09L76.9546 330.29L76.9216 330.14L77.3256 330.15L77.0346 330.23L76.9426 330.57L76.7826 330.36L77.1626 330.39L76.8756 330.17L76.5156 330.42L76.8706 330.48L76.6616 330.86L76.8256 332.82L76.6706 334.99L77.0206 336.48L76.7536 337.95L76.9076 338.7L76.7086 339.04L76.7936 341.38L77.2936 341.6L77.0066 341.96L77.3386 342.21L76.9386 342.26L77.2136 342.39L77.0546 342.41L77.1746 342.15L76.8906 342.01L77.0106 341.79L76.8226 341.94L77.2186 341.95L76.8206 341.91L77.1026 342.01L76.8996 341.99L77.0756 342.11L76.7506 342.21L77.0126 342.27L76.8206 342.34L77.2486 342.24L76.9206 342.32L77.1176 342.26L77.0606 342.13L77.0076 342.32L76.8696 342.26H77.2416H76.8466L77.1886 342.16H76.9516L77.2116 342.11L77.0696 341.84L77.0156 342.15L76.7696 341.98" stroke="#555555" stroke-width="1.25" stroke-linecap="round" stroke-linejoin="round"/>
<path d="M77.0039 330.46H84.2209" stroke="#555555" stroke-width="1.25" stroke-linecap="round" stroke-linejoin="round"/>
<path d="M77.3809 335.48H81.8398" stroke="#555555" stroke-width="1.25" stroke-linecap="round" stroke-linejoin="round"/>
<path d="M63.1777 330.18V342.4" stroke="#555555" stroke-width="1.25" stroke-linecap="round" stroke-linejoin="round"/>
<path d="M56.123 341.85H60.7021" stroke="#555555" stroke-width="1.25" stroke-linecap="round" stroke-linejoin="round"/>
<path d="M96.2969 330.22V342.44" stroke="#555555" stroke-width="1.25" stroke-linecap="round" stroke-linejoin="round"/>
<path d="M88.4355 329.95V341.09" stroke="#555555" stroke-width="1.25" stroke-linecap="round" stroke-linejoin="round"/>
<path d="M89.2402 341.89H93.8192" stroke="#555555" stroke-width="1.25" stroke-linecap="round" stroke-linejoin="round"/>
<path d="M102.628 329.6L100.975 329.78L101.7 330.11L101.032 332.49L101.075 334.16L100.799 334.46L100.5 335.78L101.137 337.67L100.631 338.27L101.092 340.5L100.686 341.11L101.131 342.03L100.94 342.26L101.112 342.29L100.795 342.32L100.93 342.44L100.684 342.69L101.374 343.16L100.854 343.48L101 344.05L100.495 344.12L100.927 344L100.811 343.91L101.312 343.59L101.149 343.57H101.403L100.896 343.84L100.823 343.59L101.48 343.68L100.838 343.7L100.738 343.83L101.013 343.91L100.732 343.86L100.968 343.77L100.722 343.92L100.878 343.98L100.682 343.93L101.029 343.97L100.685 343.91L100.846 343.78L100.443 343.94" stroke="#555555" stroke-width="1.25" stroke-linecap="round" stroke-linejoin="round"/>
<path d="M102.209 330.88L101.786 330.95L102.094 331.09L101.754 331.14L102.468 331.65L102.474 332.23L103.005 332.66L102.844 332.87L103.005 333.16L103.89 333.59L104.852 335.39L106.165 336.99L106.171 337.28L106.808 337.34L107.276 337.71L107.77 337.3L107.268 337.26L107.463 337.15" stroke="#555555" stroke-width="1.25" stroke-linecap="round" stroke-linejoin="round"/>
<path d="M111.231 331.07L110.167 331.7L110.257 331.98L108.946 334.22L108.022 336.47L107.346 337.24L107.47 337.5L107.128 337.9L106.857 337.79L107.131 337.98" stroke="#555555" stroke-width="1.25" stroke-linecap="round" stroke-linejoin="round"/>
<path d="M111.785 330.73V341.19" stroke="#555555" stroke-width="1.25" stroke-linecap="round" stroke-linejoin="round"/>
<path d="M55.3164 329.91V341.06" stroke="#555555" stroke-width="1.25" stroke-linecap="round" stroke-linejoin="round"/>
<path d="M40.7162 329.27L39.0632 329.45L39.7882 329.79L39.1212 332.16L39.1642 333.84L38.8872 334.13L38.5883 335.45L39.2253 337.34L38.7192 337.94L39.1802 340.18L38.7742 340.78L39.2192 341.7L39.0292 341.93L39.2003 341.96L38.8842 342L39.0182 342.11L38.7722 342.36L39.4622 342.83L38.9422 343.15L39.0892 343.72L38.5843 343.79L39.0153 343.68L38.8992 343.58L39.4012 343.26L39.2372 343.24L39.4922 343.25L38.9843 343.51L38.9113 343.26L39.5682 343.35L38.9262 343.37L38.8272 343.51L39.1013 343.58L38.8213 343.53L39.0562 343.44L38.8102 343.59L38.9673 343.65L38.7702 343.6L39.1172 343.64L38.7733 343.58L38.9342 343.45L38.5312 343.62" stroke="#555555" stroke-width="1.25" stroke-linecap="round" stroke-linejoin="round"/>
<path d="M40.2988 330.55L39.8748 330.62L40.1828 330.76L39.8438 330.81L40.5568 331.32L40.5628 331.91L41.0938 332.33L40.9328 332.54L41.0938 332.83L41.9788 333.26L42.9408 335.06L44.2538 336.66L44.2598 336.95L44.8968 337.02L45.3648 337.38L45.8588 336.97L45.3568 336.93L45.5518 336.82" stroke="#555555" stroke-width="1.25" stroke-linecap="round" stroke-linejoin="round"/>
<path d="M49.3193 330.75L48.2543 331.37L48.3453 331.65L47.0343 333.89L46.1093 336.14L45.4333 336.92L45.5573 337.17L45.2163 337.57L44.9453 337.47L45.2183 337.66" stroke="#555555" stroke-width="1.25" stroke-linecap="round" stroke-linejoin="round"/>
<path d="M49.873 330.4V340.87" stroke="#555555" stroke-width="1.25" stroke-linecap="round" stroke-linejoin="round"/>
<path d="M110.499 351L109.379 351.22L109.344 351.05L109.783 351.07L109.466 351.15L109.367 351.52L109.193 351.3L109.606 351.33L109.294 351.08L108.902 351.36L109.288 351.43L109.061 351.84L109.24 353.97L109.071 356.33L109.451 357.96L109.161 359.56L109.329 360.37L109.112 360.74L109.205 363.29L109.749 363.52L109.436 363.91L109.798 364.18L109.362 364.24L109.661 364.38L109.488 364.4L109.619 364.12L109.31 363.97L109.441 363.73L109.236 363.89L109.666 363.9L109.234 363.86L109.541 363.96L109.319 363.94L109.512 364.07L109.158 364.19L109.443 364.25L109.234 364.33L109.7 364.22L109.342 364.31L109.558 364.24L109.495 364.1L109.437 364.3L109.287 364.24H109.692H109.262L109.634 364.13H109.376L109.66 364.07L109.505 363.78L109.446 364.12L109.178 363.93" stroke="#555555" stroke-width="1.25" stroke-linecap="round" stroke-linejoin="round"/>
<path d="M109.436 351.41H117.286" stroke="#555555" stroke-width="1.25" stroke-linecap="round" stroke-linejoin="round"/>
<path d="M110.312 363.57H118.161" stroke="#555555" stroke-width="1.25" stroke-linecap="round" stroke-linejoin="round"/>
<path d="M109.844 356.86H114.695" stroke="#555555" stroke-width="1.25" stroke-linecap="round" stroke-linejoin="round"/>
<path d="M126.708 351.75H126.13L125.51 351.3H124.825L123.706 351.82L122.359 353.37L122.079 354.12L122.391 354.26L122.043 355.14L123.025 357.22L125.254 357.76L125.949 358.51L126.185 359.22L125.951 359.26L126.227 359.42L126.309 360.21L126.192 361.64L125.832 362.04L125.983 362.48L125.315 363.16L125.227 363.56L124.931 363.8L125.049 363.88L123.315 364.38L121.259 364.28L120.351 363.77L120.119 363.93" stroke="#555555" stroke-width="1.25" stroke-linecap="round" stroke-linejoin="round"/>
<path d="M57.3217 353.52L55.3477 353.64L56.1327 353.53H55.9357L56.0857 353.68L55.8167 353.86L56.0577 354.15L55.7987 354.36L56.2807 355.09L56.4407 355.92L56.2887 356.43L56.5577 359.05L56.0827 360.5L56.0347 362.55L56.4257 362.93L56.8687 361.93" stroke="#555555" stroke-width="1.25" stroke-linecap="round" stroke-linejoin="round"/>
<path d="M57.5196 352.49L57.3566 352.27L57.4476 351.05L57.3066 350.85L58.2826 349.61L58.8246 349.24L59.8126 348.96L60.9796 349.22L62.0526 350.27L62.3616 351.6L61.5626 353.72L59.4856 356.1L58.5916 356.35L58.9496 356.16L59.6416 356.44L60.9946 357.72L61.8936 359.46L62.6756 360.39L62.8116 361.95L63.2746 363.1L63.4546 362.92L63.3176 362.89" stroke="#555555" stroke-width="1.25" stroke-linecap="round" stroke-linejoin="round"/>
<path d="M45.9505 349.22L44.8305 349.44L44.7955 349.27L45.2345 349.28L44.9175 349.37L44.8175 349.73L44.6445 349.51L45.0565 349.55L44.7455 349.3L44.3535 349.58L44.7395 349.64L44.5115 350.05L44.6905 352.19L44.5225 354.55L44.9025 356.17L44.6125 357.77L44.7805 358.58L44.5635 358.96L44.6555 361.5L45.2005 361.74L44.8875 362.12L45.2485 362.4L44.8135 362.46L45.1125 362.59L44.9395 362.61L45.0705 362.34L44.7615 362.19L44.8925 361.94L44.6875 362.1L45.1175 362.11L44.6855 362.07L44.9925 362.18L44.7705 362.16L44.9635 362.29L44.6085 362.4L44.8935 362.47L44.6855 362.54L45.1515 362.44L44.7935 362.52L45.0085 362.46L44.9465 362.31L44.8885 362.52L44.7385 362.46H45.1435H44.7135L45.0855 362.34H44.8275L45.1115 362.29L44.9555 362L44.8975 362.34L44.6295 362.15" stroke="#555555" stroke-width="1.25" stroke-linecap="round" stroke-linejoin="round"/>
<path d="M44.8867 349.62H52.7367" stroke="#555555" stroke-width="1.25" stroke-linecap="round" stroke-linejoin="round"/>
<path d="M45.7617 361.78H53.6117" stroke="#555555" stroke-width="1.25" stroke-linecap="round" stroke-linejoin="round"/>
<path d="M45.2949 355.08H50.1459" stroke="#555555" stroke-width="1.25" stroke-linecap="round" stroke-linejoin="round"/>
<path d="M40.2589 349.06H39.6819L39.0609 348.61L38.3759 348.6L37.2569 349.12L35.9099 350.67L35.6299 351.42L35.9419 351.57L35.5939 352.45L36.5759 354.53L38.8049 355.06L39.4999 355.82L39.7359 356.53L39.5019 356.57L39.7779 356.73L39.8599 357.52L39.7429 358.94L39.3839 359.35L39.5339 359.78L38.8659 360.46L38.7779 360.87L38.4819 361.1L38.6009 361.19L36.8659 361.69L34.8109 361.58L33.9029 361.07L33.6699 361.23" stroke="#555555" stroke-width="1.25" stroke-linecap="round" stroke-linejoin="round"/>
<path d="M78.7871 350.22L84.0201 363.3" stroke="#555555" stroke-width="1.25" stroke-linecap="round" stroke-linejoin="round"/>
<path d="M78.5664 361.24H84.4534" stroke="#555555" stroke-width="1.25" stroke-linecap="round" stroke-linejoin="round"/>
<path d="M68.266 353.6L66.293 353.72L67.078 353.61L66.88 353.62L67.031 353.76L66.762 353.94L67.003 354.23L66.744 354.44L67.226 355.17L67.385 356L67.234 356.51L67.502 359.13L67.028 360.58L66.979 362.63L67.37 363.02L67.814 362.01" stroke="#555555" stroke-width="1.25" stroke-linecap="round" stroke-linejoin="round"/>
<path d="M68.4659 352.57L68.3029 352.35L68.394 351.14L68.252 350.93L69.2279 349.69L69.7709 349.32L70.7579 349.05L71.9249 349.31L72.9979 350.36L73.308 351.68L72.5089 353.8L70.4309 356.19L69.5369 356.43L69.8949 356.25L70.588 356.52L71.9399 357.8L72.8399 359.54L73.6219 360.48L73.7569 362.04L74.2209 363.18L74.4009 363L74.2629 362.97" stroke="#555555" stroke-width="1.25" stroke-linecap="round" stroke-linejoin="round"/>
<path d="M78.5653 353.39L73.9863 364.51" stroke="#555555" stroke-width="1.25" stroke-linecap="round" stroke-linejoin="round"/>
<path d="M88.1777 351.46V362.61" stroke="#555555" stroke-width="1.25" stroke-linecap="round" stroke-linejoin="round"/>
<path d="M88.9844 363.4H93.5634" stroke="#555555" stroke-width="1.25" stroke-linecap="round" stroke-linejoin="round"/>
<path d="M93.5938 349.14L101.443 362.88" stroke="#555555" stroke-width="1.25" stroke-linecap="round" stroke-linejoin="round"/>
<path d="M103.404 364.19V349.14" stroke="#555555" stroke-width="1.25" stroke-linecap="round" stroke-linejoin="round"/>
<path d="M78.2402 340.52H85.4562" stroke="#555555" stroke-width="1.25" stroke-linecap="round" stroke-linejoin="round"/>
<path d="M73.9437 330.16H73.4137L72.8427 329.75L72.2127 329.74L71.1847 330.22L69.9457 331.64L69.6887 332.33L69.9757 332.46L69.6557 333.27L70.5587 335.19L72.6067 335.68L73.2467 336.37L73.4627 337.03L73.2487 337.06L73.5017 337.21L73.5777 337.94L73.4697 339.25L73.1387 339.62L73.2777 340.02L72.6637 340.64L72.5827 341.02L72.3107 341.23L72.4197 341.31L70.8247 341.77L68.9347 341.67L68.1007 341.2L67.8867 341.35" stroke="#555555" stroke-width="1.25" stroke-linecap="round" stroke-linejoin="round"/>
<path d="M78.4133 328.97L77.3843 329.18L77.3513 329.02L77.7553 329.03L77.4643 329.11L77.3723 329.45L77.2123 329.24L77.5923 329.28L77.3063 329.05L76.9453 329.3L77.3003 329.36L77.0913 329.74L77.2553 331.7L77.1013 333.87L77.4503 335.37L77.1833 336.84L77.3373 337.58L77.1383 337.92L77.2233 340.26L77.7233 340.48L77.4363 340.84L77.7683 341.09L77.3683 341.14L77.6433 341.27L77.4843 341.29L77.6043 341.04L77.3203 340.9L77.4403 340.67L77.2523 340.82L77.6483 340.83L77.2503 340.79L77.5323 340.89L77.3293 340.87L77.5053 340.99L77.1803 341.1L77.4423 341.15L77.2503 341.22L77.6793 341.12L77.3503 341.21L77.5483 341.14L77.4903 341.01L77.4373 341.2L77.2993 341.14H77.6713H77.2763L77.6183 341.04H77.3813L77.6423 340.99L77.4993 340.72L77.4453 341.03L77.1993 340.86" stroke="#555555" stroke-width="1.25" stroke-linecap="round" stroke-linejoin="round"/>
<path d="M77.4355 329.34H84.6526" stroke="#555555" stroke-width="1.25" stroke-linecap="round" stroke-linejoin="round"/>
<path d="M77.8105 334.36H82.2705" stroke="#555555" stroke-width="1.25" stroke-linecap="round" stroke-linejoin="round"/>
<path d="M63.6094 329.06V341.28" stroke="#555555" stroke-width="1.25" stroke-linecap="round" stroke-linejoin="round"/>
<path d="M56.5547 340.73H61.1337" stroke="#555555" stroke-width="1.25" stroke-linecap="round" stroke-linejoin="round"/>
<path d="M96.7266 329.1V341.32" stroke="#555555" stroke-width="1.25" stroke-linecap="round" stroke-linejoin="round"/>
<path d="M88.8652 328.83V339.98" stroke="#555555" stroke-width="1.25" stroke-linecap="round" stroke-linejoin="round"/>
<path d="M89.6719 340.77H94.2509" stroke="#555555" stroke-width="1.25" stroke-linecap="round" stroke-linejoin="round"/>
<path d="M103.058 328.48L101.405 328.66L102.13 329L101.462 331.37L101.506 333.04L101.229 333.34L100.93 334.66L101.567 336.55L101.061 337.15L101.522 339.39L101.116 339.99L101.561 340.91L101.37 341.14L101.542 341.17L101.226 341.21L101.36 341.32L101.114 341.57L101.804 342.04L101.284 342.36L101.43 342.93L100.925 343L101.357 342.88L101.241 342.79L101.742 342.47L101.579 342.45L101.833 342.46L101.326 342.72L101.253 342.47L101.91 342.56L101.268 342.58L101.168 342.72L101.443 342.79L101.162 342.74L101.398 342.65L101.152 342.8L101.308 342.86L101.112 342.81L101.459 342.85L101.115 342.79L101.276 342.66L100.873 342.83" stroke="#555555" stroke-width="1.25" stroke-linecap="round" stroke-linejoin="round"/>
<path d="M102.641 329.76L102.218 329.83L102.526 329.97L102.186 330.02L102.9 330.53L102.906 331.11L103.437 331.54L103.276 331.75L103.437 332.04L104.322 332.47L105.284 334.27L106.597 335.87L106.603 336.16L107.24 336.23L107.708 336.59L108.202 336.18L107.7 336.14L107.895 336.03" stroke="#555555" stroke-width="1.25" stroke-linecap="round" stroke-linejoin="round"/>
<path d="M111.661 329.95L110.597 330.58L110.687 330.86L109.376 333.1L108.452 335.35L107.776 336.13L107.9 336.38L107.558 336.78L107.287 336.68L107.561 336.87" stroke="#555555" stroke-width="1.25" stroke-linecap="round" stroke-linejoin="round"/>
<path d="M112.217 329.61V340.07" stroke="#555555" stroke-width="1.25" stroke-linecap="round" stroke-linejoin="round"/>
<path d="M55.748 328.8V339.94" stroke="#555555" stroke-width="1.25" stroke-linecap="round" stroke-linejoin="round"/>
<path d="M41.1479 328.15L39.4949 328.33L40.2199 328.67L39.5529 331.04L39.5959 332.72L39.3189 333.01L39.0199 334.34L39.6569 336.22L39.1509 336.82L39.6119 339.06L39.2059 339.66L39.6509 340.58L39.4609 340.81L39.6319 340.85L39.3159 340.88L39.4499 340.99L39.2039 341.24L39.8939 341.71L39.3739 342.04L39.5209 342.6L39.0159 342.67L39.4469 342.56L39.3309 342.46L39.8329 342.14L39.6689 342.12L39.9239 342.13L39.4159 342.39L39.3429 342.15L40.0009 342.23L39.3579 342.25L39.2589 342.39L39.5329 342.46L39.2529 342.41L39.4879 342.32L39.2419 342.48L39.3989 342.53L39.2019 342.48L39.5499 342.53L39.2049 342.46L39.3659 342.33L38.9629 342.5" stroke="#555555" stroke-width="1.25" stroke-linecap="round" stroke-linejoin="round"/>
<path d="M40.7285 329.43L40.3044 329.5L40.6125 329.64L40.2734 329.7L40.9865 330.2L40.9925 330.79L41.5234 331.21L41.3625 331.43L41.5234 331.71L42.4084 332.14L43.3705 333.94L44.6834 335.54L44.6895 335.83L45.3275 335.9L45.7954 336.26L46.2885 335.86L45.7864 335.81L45.9814 335.7" stroke="#555555" stroke-width="1.25" stroke-linecap="round" stroke-linejoin="round"/>
<path d="M49.7509 329.63L48.6859 330.25L48.7769 330.53L47.4659 332.77L46.5419 335.02L45.8649 335.8L45.989 336.05L45.6479 336.45L45.377 336.35L45.6499 336.54" stroke="#555555" stroke-width="1.25" stroke-linecap="round" stroke-linejoin="round"/>
<path d="M50.3047 329.28V339.75" stroke="#555555" stroke-width="1.25" stroke-linecap="round" stroke-linejoin="round"/>
<path d="M110.931 349.88L109.811 350.1L109.776 349.93L110.215 349.95L109.898 350.03L109.799 350.4L109.625 350.18L110.038 350.21L109.726 349.97L109.334 350.24L109.72 350.31L109.493 350.72L109.672 352.86L109.503 355.22L109.883 356.84L109.594 358.44L109.761 359.25L109.544 359.62L109.637 362.17L110.181 362.4L109.868 362.79L110.23 363.06L109.794 363.12L110.093 363.26L109.92 363.28L110.051 363L109.742 362.85L109.873 362.61L109.669 362.77L110.098 362.78L109.666 362.74L109.973 362.85L109.751 362.83L109.944 362.95L109.59 363.07L109.875 363.13L109.666 363.21L110.132 363.1L109.774 363.19L109.99 363.12L109.927 362.98L109.869 363.18L109.719 363.12H110.124H109.694L110.066 363.01H109.808L110.092 362.95L109.937 362.66L109.878 363L109.61 362.81" stroke="#555555" stroke-width="1.25" stroke-linecap="round" stroke-linejoin="round"/>
<path d="M109.867 350.29H117.716" stroke="#555555" stroke-width="1.25" stroke-linecap="round" stroke-linejoin="round"/>
<path d="M110.742 362.45H118.591" stroke="#555555" stroke-width="1.25" stroke-linecap="round" stroke-linejoin="round"/>
<path d="M110.275 355.74H115.126" stroke="#555555" stroke-width="1.25" stroke-linecap="round" stroke-linejoin="round"/>
<path d="M127.14 350.63L126.562 350.64L125.942 350.19L125.257 350.18L124.138 350.7L122.791 352.25L122.511 353L122.823 353.14L122.475 354.02L123.457 356.1L125.686 356.64L126.381 357.4L126.617 358.1L126.383 358.14L126.659 358.3L126.741 359.09L126.624 360.52L126.264 360.92L126.415 361.36L125.747 362.04L125.659 362.45L125.363 362.68L125.481 362.77L123.747 363.26L121.691 363.16L120.784 362.65L120.551 362.81" stroke="#555555" stroke-width="1.25" stroke-linecap="round" stroke-linejoin="round"/>
<path d="M57.7513 352.4L55.7773 352.52L56.5623 352.41L56.3653 352.42L56.5153 352.56L56.2463 352.74L56.4873 353.03L56.2283 353.24L56.7103 353.97L56.8703 354.8L56.7183 355.31L56.9873 357.93L56.5123 359.38L56.4643 361.43L56.8553 361.81L57.2983 360.81" stroke="#555555" stroke-width="1.25" stroke-linecap="round" stroke-linejoin="round"/>
<path d="M57.9513 351.37L57.7883 351.15L57.8793 349.93L57.7383 349.73L58.7143 348.49L59.2563 348.12L60.2443 347.84L61.4113 348.1L62.4843 349.16L62.7943 350.48L61.9943 352.6L59.9173 354.98L59.0233 355.23L59.3813 355.05L60.0733 355.32L61.4263 356.6L62.3253 358.34L63.1073 359.27L63.2433 360.83L63.7063 361.98L63.8863 361.8L63.7493 361.77" stroke="#555555" stroke-width="1.25" stroke-linecap="round" stroke-linejoin="round"/>
<path d="M214.477 343.16H213.884L213.246 342.7L212.542 342.69L211.393 343.22L210.009 344.82L209.721 345.59L210.042 345.74L209.684 346.64L210.693 348.78L212.983 349.33L213.698 350.11L213.94 350.83L213.699 350.88L213.983 351.04L214.067 351.85L213.947 353.31L213.578 353.73L213.732 354.18L213.046 354.88L212.956 355.29L212.651 355.53L212.773 355.62L210.991 356.13L208.879 356.03L207.947 355.5L207.707 355.67" stroke="#555555" stroke-width="1.25" stroke-linecap="round" stroke-linejoin="round"/>
<path d="M224.012 344.08L223.006 344L221.985 344.63L220.738 345.95L220.641 346.47L219.948 347.49L219.609 348.99L219.021 349.88L219.044 350.98L218.824 351.66L219.085 352.47L218.919 352.95L219.592 353.27L219.788 353.54L219.693 353.79L220.117 354.3L221.347 354.68L222.841 354.78L223.708 354.6L225.017 353.93L225.148 353.41L225.903 352.86L226.479 352.03L226.384 351.26L226.86 350.12L226.979 349.21L226.224 348.24L226.177 347.64L225.369 346.74L224.829 345.16L223.608 344.61L223.426 344.7" stroke="#555555" stroke-width="1.25" stroke-linecap="round" stroke-linejoin="round"/>
<path d="M233.092 345.74L228.387 357.17" stroke="#555555" stroke-width="1.25" stroke-linecap="round" stroke-linejoin="round"/>
<path d="M233.32 342.48L238.696 355.92" stroke="#555555" stroke-width="1.25" stroke-linecap="round" stroke-linejoin="round"/>
<path d="M233.092 353.81H239.14" stroke="#555555" stroke-width="1.25" stroke-linecap="round" stroke-linejoin="round"/>
<path d="M248.08 336.3H255.493" stroke="#555555" stroke-width="1.25" stroke-linecap="round" stroke-linejoin="round"/>
<path d="M243.666 325.65H243.121L242.535 325.23L241.888 325.22L240.831 325.71L239.559 327.18L239.294 327.89L239.589 328.02L239.26 328.85L240.188 330.82L242.293 331.32L242.95 332.04L243.172 332.71L242.952 332.75L243.212 332.9L243.29 333.64L243.179 334.99L242.84 335.37L242.982 335.78L242.351 336.43L242.268 336.81L241.988 337.03L242.1 337.11L240.462 337.58L238.52 337.48L237.663 337L237.443 337.15" stroke="#555555" stroke-width="1.25" stroke-linecap="round" stroke-linejoin="round"/>
<path d="M248.258 324.43L247.201 324.64L247.168 324.48L247.582 324.49L247.283 324.58L247.189 324.92L247.025 324.71L247.415 324.75L247.121 324.51L246.75 324.77L247.115 324.84L246.9 325.22L247.069 327.24L246.91 329.47L247.269 331L246.995 332.51L247.153 333.28L246.949 333.63L247.036 336.04L247.55 336.26L247.255 336.62L247.596 336.88L247.185 336.94L247.467 337.07L247.304 337.09L247.427 336.83L247.136 336.68L247.259 336.45L247.066 336.6L247.472 336.61L247.064 336.57L247.354 336.68L247.144 336.66L247.326 336.78L246.992 336.89L247.261 336.95L247.064 337.02L247.504 336.92L247.166 337L247.369 336.94L247.31 336.8L247.256 337L247.114 336.94H247.497H247.091L247.441 336.83H247.198L247.466 336.78L247.319 336.5L247.264 336.83L247.011 336.65" stroke="#555555" stroke-width="1.25" stroke-linecap="round" stroke-linejoin="round"/>
<path d="M247.254 324.82H254.668" stroke="#555555" stroke-width="1.25" stroke-linecap="round" stroke-linejoin="round"/>
<path d="M247.639 329.97H252.221" stroke="#555555" stroke-width="1.25" stroke-linecap="round" stroke-linejoin="round"/>
<path d="M233.049 324.53V337.08" stroke="#555555" stroke-width="1.25" stroke-linecap="round" stroke-linejoin="round"/>
<path d="M225.799 336.52H230.504" stroke="#555555" stroke-width="1.25" stroke-linecap="round" stroke-linejoin="round"/>
<path d="M267.074 324.57V337.12" stroke="#555555" stroke-width="1.25" stroke-linecap="round" stroke-linejoin="round"/>
<path d="M258.996 324.29V335.74" stroke="#555555" stroke-width="1.25" stroke-linecap="round" stroke-linejoin="round"/>
<path d="M259.824 336.55H264.529" stroke="#555555" stroke-width="1.25" stroke-linecap="round" stroke-linejoin="round"/>
<path d="M273.579 323.93L271.88 324.11L272.625 324.46L271.94 326.89L271.984 328.62L271.7 328.92L271.392 330.28L272.047 332.22L271.527 332.83L272.001 335.13L271.583 335.75L272.04 336.7L271.845 336.93L272.021 336.97L271.696 337L271.834 337.12L271.582 337.38L272.291 337.86L271.756 338.19L271.907 338.77L271.388 338.84L271.831 338.73L271.712 338.63L272.227 338.3L272.059 338.28L272.321 338.29L271.799 338.56L271.724 338.31L272.4 338.39L271.739 338.41L271.637 338.55L271.919 338.63L271.631 338.57L271.873 338.49L271.621 338.64L271.781 338.7L271.579 338.65L271.936 338.7L271.582 338.63L271.748 338.49L271.334 338.67" stroke="#555555" stroke-width="1.25" stroke-linecap="round" stroke-linejoin="round"/>
<path d="M273.15 325.25L272.714 325.32L273.031 325.46L272.682 325.51L273.415 326.03L273.422 326.64L273.967 327.07L273.801 327.29L273.967 327.59L274.876 328.03L275.864 329.88L277.214 331.52L277.22 331.82L277.875 331.89L278.355 332.26L278.863 331.84L278.346 331.8L278.547 331.69" stroke="#555555" stroke-width="1.25" stroke-linecap="round" stroke-linejoin="round"/>
<path d="M282.418 325.44L281.324 326.08L281.417 326.37L280.07 328.67L279.121 330.99L278.426 331.78L278.553 332.05L278.202 332.46L277.924 332.35L278.205 332.54" stroke="#555555" stroke-width="1.25" stroke-linecap="round" stroke-linejoin="round"/>
<path d="M282.986 325.09V335.84" stroke="#555555" stroke-width="1.25" stroke-linecap="round" stroke-linejoin="round"/>
<path d="M224.971 324.25V335.7" stroke="#555555" stroke-width="1.25" stroke-linecap="round" stroke-linejoin="round"/>
<path d="M209.972 323.59L208.274 323.77L209.019 324.12L208.333 326.56L208.377 328.28L208.093 328.59L207.785 329.94L208.44 331.88L207.92 332.49L208.394 334.8L207.976 335.42L208.433 336.36L208.238 336.59L208.414 336.63L208.089 336.66L208.227 336.78L207.975 337.04L208.684 337.52L208.149 337.85L208.3 338.43L207.781 338.51L208.224 338.39L208.105 338.3L208.62 337.96L208.452 337.95H208.714L208.192 338.22L208.117 337.97L208.793 338.06L208.132 338.08L208.031 338.22L208.312 338.29L208.024 338.24L208.266 338.15L208.014 338.31L208.174 338.36L207.972 338.31L208.329 338.36L207.975 338.29L208.141 338.16L207.727 338.33" stroke="#555555" stroke-width="1.25" stroke-linecap="round" stroke-linejoin="round"/>
<path d="M209.54 324.91L209.104 324.98L209.421 325.12L209.072 325.18L209.805 325.7L209.812 326.3L210.357 326.74L210.192 326.95L210.357 327.25L211.266 327.69L212.254 329.54L213.604 331.19L213.61 331.48L214.265 331.55L214.745 331.92L215.253 331.51L214.737 331.46L214.937 331.35" stroke="#555555" stroke-width="1.25" stroke-linecap="round" stroke-linejoin="round"/>
<path d="M218.81 325.11L217.716 325.74L217.809 326.04L216.462 328.34L215.513 330.65L214.818 331.45L214.945 331.71L214.594 332.12L214.316 332.01L214.597 332.21" stroke="#555555" stroke-width="1.25" stroke-linecap="round" stroke-linejoin="round"/>
<path d="M219.379 324.75V335.5" stroke="#555555" stroke-width="1.25" stroke-linecap="round" stroke-linejoin="round"/>
<path d="M243.159 346.83L241.131 346.95L241.938 346.84L241.735 346.85L241.89 346.99L241.613 347.18L241.861 347.48L241.595 347.69L242.09 348.44L242.254 349.3L242.098 349.82L242.374 352.51L241.886 354.01L241.837 356.11L242.238 356.5L242.694 355.47" stroke="#555555" stroke-width="1.25" stroke-linecap="round" stroke-linejoin="round"/>
<path d="M243.363 345.77L243.195 345.55L243.289 344.3L243.143 344.08L244.146 342.82L244.704 342.43L245.718 342.15L246.917 342.42L248.02 343.5L248.338 344.86L247.517 347.04L245.382 349.49L244.464 349.74L244.832 349.55L245.543 349.83L246.933 351.15L247.857 352.93L248.66 353.89L248.8 355.5L249.275 356.67L249.461 356.49L249.319 356.45" stroke="#555555" stroke-width="1.25" stroke-linecap="round" stroke-linejoin="round"/>
<path d="M253.964 343.41L252.814 343.64L252.778 343.46L253.229 343.47L252.903 343.56L252.801 343.94L252.623 343.71L253.047 343.75L252.727 343.49L252.324 343.78L252.721 343.85L252.487 344.27L252.671 346.46L252.498 348.89L252.888 350.55L252.59 352.2L252.762 353.03L252.54 353.41L252.635 356.03L253.194 356.27L252.873 356.67L253.244 356.95L252.797 357.01L253.104 357.15L252.926 357.17L253.06 356.89L252.743 356.73L252.878 356.48L252.667 356.65L253.109 356.66L252.665 356.61L252.98 356.73L252.753 356.71L252.95 356.84L252.586 356.96L252.879 357.02L252.665 357.1L253.144 356.99L252.776 357.08L252.997 357.01L252.933 356.86L252.874 357.07L252.719 357.01H253.136H252.694L253.076 356.89H252.811L253.102 356.84L252.943 356.54L252.883 356.89L252.608 356.69" stroke="#555555" stroke-width="1.25" stroke-linecap="round" stroke-linejoin="round"/>
<path d="M252.871 343.82H260.935" stroke="#555555" stroke-width="1.25" stroke-linecap="round" stroke-linejoin="round"/>
<path d="M253.771 356.32H261.835" stroke="#555555" stroke-width="1.25" stroke-linecap="round" stroke-linejoin="round"/>
<path d="M253.293 349.43H258.276" stroke="#555555" stroke-width="1.25" stroke-linecap="round" stroke-linejoin="round"/>
<path d="M270.318 343.94H269.725L269.087 343.48L268.384 343.47L267.234 344.01L265.85 345.6L265.563 346.37L265.883 346.52L265.526 347.42L266.535 349.56L268.824 350.11L269.539 350.89L269.781 351.61L269.541 351.66L269.824 351.82L269.909 352.63L269.788 354.09L269.419 354.51L269.573 354.96L268.887 355.66L268.797 356.08L268.493 356.31L268.614 356.4L266.833 356.91L264.721 356.81L263.788 356.28L263.549 356.45" stroke="#555555" stroke-width="1.25" stroke-linecap="round" stroke-linejoin="round"/>
<path d="M214.973 343.71H214.38L213.742 343.25L213.039 343.24L211.889 343.77L210.505 345.36L210.217 346.14L210.538 346.28L210.181 347.19L211.19 349.33L213.479 349.88L214.194 350.65L214.436 351.38L214.196 351.42L214.479 351.59L214.564 352.4L214.443 353.86L214.074 354.28L214.228 354.72L213.542 355.43L213.452 355.84L213.148 356.08L213.269 356.17L211.488 356.68L209.376 356.57L208.443 356.05L208.203 356.22" stroke="#555555" stroke-width="1.25" stroke-linecap="round" stroke-linejoin="round"/>
<path d="M224.508 344.63L223.502 344.55L222.481 345.17L221.234 346.5L221.137 347.02L220.444 348.04L220.105 349.54L219.517 350.42L219.54 351.52L219.32 352.21L219.581 353.02L219.415 353.49L220.089 353.82L220.284 354.08L220.189 354.34L220.613 354.85L221.843 355.23L223.337 355.33L224.205 355.14L225.513 354.47L225.644 353.96L226.399 353.41L226.975 352.58L226.88 351.81L227.356 350.67L227.475 349.76L226.72 348.79L226.674 348.18L225.865 347.29L225.325 345.71L224.104 345.16L223.922 345.24" stroke="#555555" stroke-width="1.25" stroke-linecap="round" stroke-linejoin="round"/>
<path d="M233.587 346.29L228.883 357.71" stroke="#555555" stroke-width="1.25" stroke-linecap="round" stroke-linejoin="round"/>
<path d="M233.814 343.02L239.19 356.47" stroke="#555555" stroke-width="1.25" stroke-linecap="round" stroke-linejoin="round"/>
<path d="M233.588 354.35H239.636" stroke="#555555" stroke-width="1.25" stroke-linecap="round" stroke-linejoin="round"/>
<path d="M248.576 336.85H255.99" stroke="#555555" stroke-width="1.25" stroke-linecap="round" stroke-linejoin="round"/>
<path d="M244.161 326.2H243.616L243.03 325.78L242.383 325.77L241.327 326.26L240.053 327.72L239.79 328.43L240.084 328.57L239.756 329.4L240.683 331.37L242.788 331.87L243.445 332.59L243.668 333.26L243.447 333.29L243.707 333.44L243.785 334.19L243.674 335.54L243.335 335.92L243.477 336.33L242.846 336.97L242.763 337.36L242.483 337.58L242.595 337.66L240.957 338.13L239.016 338.03L238.158 337.55L237.938 337.7" stroke="#555555" stroke-width="1.25" stroke-linecap="round" stroke-linejoin="round"/>
<path d="M248.753 324.98L247.695 325.19L247.662 325.03L248.077 325.04L247.777 325.12L247.683 325.47L247.519 325.26L247.909 325.29L247.615 325.06L247.244 325.32L247.609 325.38L247.394 325.77L247.563 327.79L247.404 330.02L247.763 331.55L247.489 333.06L247.648 333.83L247.443 334.18L247.53 336.58L248.044 336.8L247.749 337.17L248.09 337.43L247.679 337.49L247.961 337.61L247.798 337.63L247.922 337.38L247.63 337.23L247.754 337L247.56 337.15L247.966 337.16L247.558 337.12L247.848 337.22L247.639 337.21L247.82 337.33L247.486 337.44L247.755 337.5L247.558 337.57L247.998 337.47L247.66 337.55L247.864 337.49L247.805 337.35L247.75 337.54L247.608 337.49H247.991H247.585L247.936 337.38H247.693L247.96 337.33L247.814 337.05L247.758 337.37L247.505 337.2" stroke="#555555" stroke-width="1.25" stroke-linecap="round" stroke-linejoin="round"/>
<path d="M247.748 325.36H255.162" stroke="#555555" stroke-width="1.25" stroke-linecap="round" stroke-linejoin="round"/>
<path d="M248.135 330.52H252.716" stroke="#555555" stroke-width="1.25" stroke-linecap="round" stroke-linejoin="round"/>
<path d="M233.543 325.08V337.63" stroke="#555555" stroke-width="1.25" stroke-linecap="round" stroke-linejoin="round"/>
<path d="M226.295 337.06H230.999" stroke="#555555" stroke-width="1.25" stroke-linecap="round" stroke-linejoin="round"/>
<path d="M267.568 325.11V337.66" stroke="#555555" stroke-width="1.25" stroke-linecap="round" stroke-linejoin="round"/>
<path d="M259.492 324.84V336.29" stroke="#555555" stroke-width="1.25" stroke-linecap="round" stroke-linejoin="round"/>
<path d="M260.32 337.1H265.024" stroke="#555555" stroke-width="1.25" stroke-linecap="round" stroke-linejoin="round"/>
<path d="M274.073 324.48L272.375 324.66L273.12 325.01L272.434 327.44L272.478 329.17L272.194 329.47L271.887 330.83L272.541 332.76L272.021 333.38L272.495 335.68L272.078 336.3L272.535 337.24L272.339 337.48L272.515 337.52L272.19 337.55L272.329 337.67L272.076 337.92L272.785 338.4L272.25 338.74L272.401 339.32L271.882 339.39L272.325 339.27L272.206 339.18L272.721 338.85L272.553 338.83H272.815L272.293 339.11L272.218 338.85L272.894 338.94L272.234 338.96L272.132 339.1L272.413 339.18L272.125 339.12L272.367 339.03L272.115 339.19L272.275 339.25L272.073 339.2L272.43 339.24L272.076 339.18L272.242 339.04L271.828 339.21" stroke="#555555" stroke-width="1.25" stroke-linecap="round" stroke-linejoin="round"/>
<path d="M273.644 325.79L273.209 325.87L273.525 326.01L273.176 326.06L273.91 326.58L273.916 327.18L274.461 327.62L274.296 327.84L274.461 328.14L275.37 328.58L276.358 330.42L277.708 332.07L277.714 332.36L278.369 332.43L278.85 332.81L279.357 332.39L278.841 332.35L279.041 332.24" stroke="#555555" stroke-width="1.25" stroke-linecap="round" stroke-linejoin="round"/>
<path d="M282.914 325.99L281.821 326.63L281.913 326.92L280.566 329.22L279.617 331.53L278.922 332.33L279.049 332.59L278.699 333L278.42 332.9L278.701 333.09" stroke="#555555" stroke-width="1.25" stroke-linecap="round" stroke-linejoin="round"/>
<path d="M283.482 325.64V336.39" stroke="#555555" stroke-width="1.25" stroke-linecap="round" stroke-linejoin="round"/>
<path d="M225.467 324.8V336.25" stroke="#555555" stroke-width="1.25" stroke-linecap="round" stroke-linejoin="round"/>
<path d="M210.466 324.14L208.768 324.32L209.513 324.67L208.827 327.11L208.871 328.83L208.587 329.13L208.28 330.49L208.934 332.43L208.414 333.04L208.888 335.34L208.471 335.96L208.928 336.91L208.732 337.14L208.909 337.18L208.583 337.21L208.722 337.33L208.469 337.59L209.178 338.07L208.643 338.4L208.794 338.98L208.275 339.05L208.718 338.94L208.599 338.84L209.114 338.51L208.946 338.49L209.208 338.5L208.686 338.77L208.611 338.52L209.287 338.6L208.627 338.62L208.525 338.76L208.806 338.84L208.519 338.79L208.761 338.7L208.508 338.86L208.669 338.91L208.467 338.86L208.824 338.91L208.469 338.84L208.635 338.71L208.221 338.88" stroke="#555555" stroke-width="1.25" stroke-linecap="round" stroke-linejoin="round"/>
<path d="M210.036 325.46L209.601 325.53L209.917 325.67L209.568 325.73L210.302 326.24L210.308 326.85L210.853 327.28L210.688 327.5L210.853 327.8L211.762 328.24L212.751 330.09L214.1 331.73L214.106 332.03L214.761 332.1L215.242 332.47L215.749 332.05L215.233 332.01L215.433 331.9" stroke="#555555" stroke-width="1.25" stroke-linecap="round" stroke-linejoin="round"/>
<path d="M219.305 325.65L218.212 326.29L218.305 326.58L216.957 328.88L216.008 331.2L215.314 331.99L215.441 332.26L215.09 332.67L214.811 332.56L215.092 332.75" stroke="#555555" stroke-width="1.25" stroke-linecap="round" stroke-linejoin="round"/>
<path d="M219.873 325.3V336.05" stroke="#555555" stroke-width="1.25" stroke-linecap="round" stroke-linejoin="round"/>
<path d="M243.653 347.38L241.625 347.5L242.432 347.39H242.229L242.384 347.54L242.108 347.73L242.355 348.03L242.089 348.24L242.584 348.99L242.748 349.84L242.592 350.37L242.868 353.06L242.381 354.55L242.331 356.66L242.733 357.05L243.188 356.02" stroke="#555555" stroke-width="1.25" stroke-linecap="round" stroke-linejoin="round"/>
<path d="M243.858 346.32L243.691 346.1L243.784 344.84L243.639 344.63L244.642 343.36L245.199 342.98L246.213 342.7L247.412 342.97L248.515 344.04L248.833 345.4L248.012 347.58L245.877 350.03L244.959 350.29L245.327 350.1L246.038 350.38L247.428 351.7L248.352 353.48L249.155 354.44L249.295 356.04L249.771 357.22L249.956 357.04L249.815 357" stroke="#555555" stroke-width="1.25" stroke-linecap="round" stroke-linejoin="round"/>
<path d="M254.461 343.95L253.31 344.18L253.274 344.01L253.725 344.02L253.4 344.11L253.297 344.49L253.119 344.26L253.543 344.3L253.223 344.04L252.82 344.33L253.217 344.39L252.983 344.82L253.167 347.01L252.994 349.44L253.384 351.1L253.087 352.74L253.259 353.58L253.036 353.96L253.131 356.58L253.69 356.82L253.369 357.22L253.74 357.5L253.293 357.56L253.6 357.7L253.422 357.72L253.557 357.44L253.239 357.28L253.374 357.03L253.164 357.19L253.605 357.21L253.161 357.16L253.477 357.27L253.249 357.25L253.447 357.39L253.083 357.51L253.376 357.57L253.161 357.65L253.64 357.54L253.273 357.63L253.494 357.56L253.429 357.41L253.37 357.62L253.216 357.56H253.632H253.19L253.572 357.44H253.307L253.599 357.39L253.439 357.08L253.379 357.44L253.104 357.24" stroke="#555555" stroke-width="1.25" stroke-linecap="round" stroke-linejoin="round"/>
<path d="M253.367 344.37H261.432" stroke="#555555" stroke-width="1.25" stroke-linecap="round" stroke-linejoin="round"/>
<path d="M254.268 356.87H262.333" stroke="#555555" stroke-width="1.25" stroke-linecap="round" stroke-linejoin="round"/>
<path d="M253.787 349.98H258.771" stroke="#555555" stroke-width="1.25" stroke-linecap="round" stroke-linejoin="round"/>
<path d="M270.815 344.49H270.221L269.584 344.03L268.88 344.02L267.731 344.55L266.346 346.14L266.059 346.92L266.379 347.06L266.022 347.97L267.031 350.11L269.321 350.66L270.035 351.43L270.277 352.16L270.037 352.2L270.321 352.37L270.405 353.18L270.284 354.64L269.915 355.06L270.07 355.5L269.384 356.21L269.294 356.62L268.989 356.86L269.111 356.95L267.329 357.46L265.217 357.36L264.284 356.83L264.045 357" stroke="#555555" stroke-width="1.25" stroke-linecap="round" stroke-linejoin="round"/>
<path d="M244.612 367.65L242.584 367.77L243.391 367.66H243.188L243.343 367.81L243.066 367.99L243.314 368.29L243.048 368.51L243.543 369.26L243.707 370.11L243.551 370.64L243.827 373.33L243.34 374.82L243.29 376.93L243.691 377.32L244.147 376.29" stroke="#555555" stroke-width="1.25" stroke-linecap="round" stroke-linejoin="round"/>
<path d="M244.818 366.59L244.651 366.37L244.744 365.11L244.598 364.9L245.602 363.63L246.159 363.25L247.173 362.97L248.372 363.23L249.475 364.31L249.793 365.67L248.972 367.85L246.837 370.3L245.919 370.56L246.287 370.37L246.998 370.64L248.388 371.97L249.312 373.75L250.115 374.71L250.255 376.31L250.73 377.49L250.916 377.31L250.774 377.27" stroke="#555555" stroke-width="1.25" stroke-linecap="round" stroke-linejoin="round"/>
<path d="M256.199 363.88L255.049 364.11L255.013 363.93L255.464 363.95L255.138 364.04L255.036 364.41L254.858 364.18L255.282 364.22L254.962 363.97L254.559 364.25L254.955 364.32L254.721 364.74L254.905 366.93L254.733 369.36L255.123 371.03L254.825 372.67L254.997 373.5L254.775 373.88L254.87 376.5L255.429 376.74L255.108 377.14L255.479 377.42L255.031 377.48L255.339 377.62L255.161 377.64L255.295 377.36L254.978 377.21L255.112 376.95L254.902 377.12L255.344 377.13L254.9 377.09L255.215 377.2L254.987 377.18L255.185 377.31L254.821 377.43L255.114 377.49L254.9 377.57L255.379 377.46L255.011 377.55L255.232 377.48L255.168 377.34L255.109 377.54L254.954 377.48H255.371H254.929L255.311 377.37L255.046 377.36L255.337 377.31L255.178 377.01L255.118 377.36L254.842 377.17" stroke="#555555" stroke-width="1.25" stroke-linecap="round" stroke-linejoin="round"/>
<path d="M255.105 364.3H263.169" stroke="#555555" stroke-width="1.25" stroke-linecap="round" stroke-linejoin="round"/>
<path d="M256.006 376.79H264.07" stroke="#555555" stroke-width="1.25" stroke-linecap="round" stroke-linejoin="round"/>
<path d="M255.525 369.9H260.508" stroke="#555555" stroke-width="1.25" stroke-linecap="round" stroke-linejoin="round"/>
<path d="M268.846 364.79V377.34" stroke="#555555" stroke-width="1.25" stroke-linecap="round" stroke-linejoin="round"/>
<path d="M280.045 364.02H279.452L278.814 363.56L278.11 363.55L276.961 364.08L275.577 365.68L275.289 366.45L275.61 366.6L275.252 367.5L276.261 369.64L278.551 370.19L279.265 370.97L279.507 371.69L279.267 371.74L279.551 371.9L279.635 372.71L279.514 374.17L279.145 374.59L279.3 375.04L278.614 375.74L278.524 376.15L278.219 376.39L278.341 376.48L276.559 376.99L274.447 376.89L273.514 376.36L273.275 376.53" stroke="#555555" stroke-width="1.25" stroke-linecap="round" stroke-linejoin="round"/>
<path d="M245.107 368.19L243.08 368.32L243.886 368.2L243.683 368.21L243.838 368.36L243.562 368.54L243.809 368.84L243.543 369.06L244.038 369.81L244.202 370.66L244.046 371.19L244.322 373.87L243.835 375.37L243.785 377.47L244.187 377.87L244.642 376.83" stroke="#555555" stroke-width="1.25" stroke-linecap="round" stroke-linejoin="round"/>
<path d="M245.313 367.13L245.146 366.91L245.239 365.66L245.094 365.45L246.097 364.18L246.654 363.79L247.669 363.51L248.867 363.78L249.97 364.86L250.288 366.22L249.467 368.4L247.332 370.85L246.414 371.1L246.782 370.91L247.493 371.19L248.883 372.51L249.807 374.3L250.61 375.26L250.75 376.86L251.226 378.04L251.411 377.86L251.27 377.82" stroke="#555555" stroke-width="1.25" stroke-linecap="round" stroke-linejoin="round"/>
<path d="M256.693 364.43L255.543 364.65L255.507 364.48L255.958 364.49L255.633 364.58L255.53 364.96L255.352 364.73L255.776 364.77L255.456 364.51L255.053 364.8L255.45 364.87L255.216 365.29L255.4 367.48L255.227 369.91L255.617 371.57L255.319 373.22L255.491 374.05L255.269 374.43L255.364 377.05L255.923 377.29L255.602 377.69L255.973 377.97L255.526 378.03L255.833 378.17L255.655 378.19L255.79 377.91L255.472 377.75L255.607 377.5L255.397 377.67L255.838 377.68L255.394 377.63L255.709 377.75L255.482 377.73L255.679 377.86L255.316 377.98L255.608 378.04L255.394 378.12L255.873 378.01L255.505 378.1L255.726 378.03L255.662 377.88L255.603 378.09L255.449 378.03H255.865H255.423L255.805 377.91H255.54L255.831 377.86L255.672 377.56L255.612 377.91L255.337 377.71" stroke="#555555" stroke-width="1.25" stroke-linecap="round" stroke-linejoin="round"/>
<path d="M255.6 364.84H263.665" stroke="#555555" stroke-width="1.25" stroke-linecap="round" stroke-linejoin="round"/>
<path d="M256.5 377.34H264.564" stroke="#555555" stroke-width="1.25" stroke-linecap="round" stroke-linejoin="round"/>
<path d="M256.02 370.45H261.003" stroke="#555555" stroke-width="1.25" stroke-linecap="round" stroke-linejoin="round"/>
<path d="M269.342 365.34V377.89" stroke="#555555" stroke-width="1.25" stroke-linecap="round" stroke-linejoin="round"/>
<path d="M280.54 364.57H279.947L279.309 364.11L278.605 364.1L277.456 364.63L276.072 366.22L275.784 367L276.105 367.14L275.747 368.05L276.757 370.19L279.046 370.74L279.761 371.51L280.003 372.24L279.763 372.28L280.046 372.45L280.131 373.26L280.01 374.72L279.641 375.14L279.795 375.58L279.109 376.29L279.019 376.7L278.715 376.94L278.836 377.03L277.055 377.54L274.942 377.43L274.01 376.91L273.77 377.08" stroke="#555555" stroke-width="1.25" stroke-linecap="round" stroke-linejoin="round"/>
<path d="M202.974 375.69L202.944 375.85L203.303 375.54L205.018 375.64L205.564 375.44L205.639 375.24L207.203 375.12L207.741 374.8L208.177 374.22L208.251 373.54L209.358 372.51L209.675 371.94L209.707 371.09L210.263 369.37L209.88 369.02L209.835 367.86L209.342 367.05L209.469 366.95L209.131 366.81L208.978 366.22L208.25 365.85L208.452 365.68L207.741 365.27L207.061 365.26L204.982 364.6L204.039 364.76L203.559 365.06L201.982 365.19L201.496 365.55L201.582 365.39" stroke="#555555" stroke-linecap="round" stroke-linejoin="round"/>
<path d="M202.676 364.64V375.44" stroke="#555555" stroke-linecap="round" stroke-linejoin="round"/>
<path d="M217.386 365.87L216.52 365.8L215.642 366.34L214.568 367.48L214.484 367.93L213.888 368.81L213.596 370.1L213.09 370.86L213.11 371.81L212.92 372.4L213.145 373.1L213.002 373.51L213.582 373.78L213.75 374.01L213.669 374.23L214.033 374.67L215.092 375L216.379 375.08L217.125 374.93L218.251 374.35L218.364 373.91L219.014 373.43L219.51 372.71L219.428 372.06L219.838 371.07L219.94 370.29L219.291 369.45L219.251 368.93L218.554 368.16L218.09 366.8L217.039 366.33L216.882 366.4" stroke="#555555" stroke-linecap="round" stroke-linejoin="round"/>
<path d="M227.152 363.84H226.641L226.092 363.45L225.486 363.44L224.497 363.9L223.305 365.27L223.058 365.93L223.334 366.06L223.026 366.84L223.895 368.68L225.866 369.15L226.481 369.82L226.689 370.45L226.483 370.49L226.727 370.63L226.799 371.32L226.695 372.58L226.378 372.94L226.511 373.33L225.92 373.93L225.843 374.29L225.58 374.5L225.685 374.57L224.151 375.01L222.333 374.92L221.53 374.47L221.324 374.61" stroke="#555555" stroke-linecap="round" stroke-linejoin="round"/>
<path d="M203.4 376.16L203.371 376.32L203.73 376.01L205.445 376.11L205.991 375.91L206.065 375.71L207.629 375.59L208.167 375.27L208.603 374.69L208.677 374.01L209.784 372.98L210.102 372.42L210.134 371.56L210.689 369.85L210.306 369.49L210.261 368.34L209.769 367.52L209.896 367.42L209.557 367.28L209.404 366.7L208.676 366.32L208.878 366.15L208.168 365.75L207.487 365.73L205.408 365.08L204.466 365.23L203.985 365.53L202.408 365.66L201.922 366.02L202.008 365.86" stroke="#555555" stroke-linecap="round" stroke-linejoin="round"/>
<path d="M203.104 365.11V375.92" stroke="#555555" stroke-linecap="round" stroke-linejoin="round"/>
<path d="M217.813 366.35L216.947 366.28L216.068 366.81L214.994 367.95L214.911 368.41L214.314 369.28L214.022 370.58L213.516 371.33L213.536 372.28L213.346 372.87L213.571 373.57L213.428 373.98L214.008 374.26L214.176 374.48L214.095 374.7L214.46 375.14L215.518 375.47L216.805 375.55L217.552 375.4L218.678 374.82L218.791 374.38L219.441 373.9L219.937 373.19L219.855 372.53L220.264 371.54L220.367 370.76L219.717 369.93L219.677 369.41L218.981 368.63L218.516 367.27L217.465 366.8L217.308 366.88" stroke="#555555" stroke-linecap="round" stroke-linejoin="round"/>
<path d="M227.578 364.31L227.068 364.32L226.519 363.92L225.913 363.91L224.924 364.37L223.732 365.74L223.484 366.41L223.76 366.53L223.453 367.31L224.321 369.15L226.292 369.63L226.907 370.29L227.116 370.92L226.909 370.96L227.153 371.1L227.226 371.8L227.122 373.06L226.804 373.42L226.937 373.8L226.346 374.4L226.269 374.76L226.007 374.97L226.111 375.04L224.578 375.48L222.76 375.39L221.956 374.94L221.75 375.08" stroke="#555555" stroke-linecap="round" stroke-linejoin="round"/>
<path d="M80.498 320.31L124.498 298.31" stroke="#555555" stroke-width="2" stroke-linecap="round" stroke-linejoin="round"/>
<path d="M193.498 204.31L208.498 153.31" stroke="#555555" stroke-width="2" stroke-linecap="round" stroke-linejoin="round"/>
<path d="M201.498 286.31L214.498 324.31" stroke="#555555" stroke-width="2" stroke-linecap="round" stroke-linejoin="round"/>
<path d="M275.465 450.58L276.352 447.09L276.568 443.5L276.108 439.93L274.986 436.5L272.534 432.38L270.062 429.76L267.142 427.65L263.88 426.13L260.389 425.24L256.794 425.02L253.222 425.49L249.8 426.61L246.648 428.35L243.058 431.53L240.949 434.45L239.424 437.71L238.537 441.2L238.32 444.8L239.083 449.53L240.417 452.88L242.355 455.92L244.827 458.53L247.747 460.64L251.009 462.17L254.5 463.06L258.095 463.27L261.667 462.81L265.089 461.69L268.241 459.95L271.01 457.64L273.94 453.85L275.465 450.58Z" stroke="#555555" stroke-width="4" stroke-linecap="round" stroke-linejoin="round"/>
<path d="M20.3262 565.25L14.3262 579.25" stroke="#555555" stroke-width="2" stroke-linecap="round" stroke-linejoin="round"/>
<path d="M15.7422 579.82L16.0712 579.74L15.7622 580.04L16.2792 579.94L15.9322 579.8L16.1522 580.06V579.71L19.3032 578.84L21.5122 579.03L21.4962 579.29L22.7242 579.13L23.2982 578.53L25.6392 577.85L27.8672 578.89L29.9282 579.1L29.9112 578.64L29.6302 578.87" stroke="#555555" stroke-width="2" stroke-linecap="round" stroke-linejoin="round"/>
<path d="M29.2956 576.52L29.0725 576.35L29.5286 576.24L28.2225 576.15L28.5165 576.39L28.1446 576.53L27.6545 579.57L27.6606 581.64L27.2275 582.68L27.1016 584.64L27.7086 589.13L28.6096 589.89L28.0496 590.88L28.7445 591.84L28.3655 593.95L28.1266 593.83L28.3986 593.91L28.0595 593.93L28.6725 593.94L28.0545 593.89L28.6356 594L28.2166 593.84L28.6446 593.91L28.1086 593.93L28.5956 593.86L27.8095 594.52" stroke="#555555" stroke-width="2" stroke-linecap="round" stroke-linejoin="round"/>
<path d="M104.319 404.5L104.115 403.48L104.405 403.74L104.168 404.87L105.36 407.64L107.73 419.58L108.852 421.87L109.993 422.76L111.064 422.04L110.945 421.53L112.005 418.91L112.689 415.25L113.07 415.71L112.902 415.94L114.134 416.83L116.132 420.28L117.635 421.95L118.211 422.43L119.666 421.87L119.446 421.65L120.137 420.89L121.256 417.07L122.076 410.05L122.238 405.04L123.027 404.98L122.437 405.1L122.229 405.56" stroke="#555555" stroke-width="2" stroke-linecap="round" stroke-linejoin="round"/>
<path d="M131.871 391.9L131.268 388.02L130.311 387.13L130.723 388.11L130.805 391.43L132.915 405.72L134.419 420.15L135.252 422.84L136.03 423.52L136.69 423.37L136.08 422.15L136.64 421.54L138.81 414.97L140.19 412.73L140.031 413.66L140.4 414.17L140.485 415.76L141.16 416.46L142.595 420.15L143.783 420.87L145.245 421.21" stroke="#555555" stroke-width="2" stroke-linecap="round" stroke-linejoin="round"/>
<path d="M160.554 409.64L156.565 410.97L154.11 412.55L151.105 416.05L148.215 422.42L148.236 423.08L149.15 423.91L150.619 424.13L151.684 423.92L153.805 422.85L155.371 420.93L157.019 416.08L156.621 417.13L156.944 419.43L158.469 422.5L160.036 424.36" stroke="#555555" stroke-width="2" stroke-linecap="round" stroke-linejoin="round"/>
<path d="M168.027 409.47L167.179 411.16L166.406 414.02L166.043 417.92L166.449 419.86L168.133 420.76L169.689 422.07L172.012 415.68L173.598 414.25L173.661 413.64L174.104 413.76L173.616 413.98L174.713 414.68L175.767 416.51L176.93 419.06L177.1 420.57L177.734 421.19L177.707 421.83L179.192 424.11L179.764 424.46" stroke="#555555" stroke-width="2" stroke-linecap="round" stroke-linejoin="round"/>
<path d="M189.568 390.98L189.857 391.38L188.932 393.24L188.676 395.68L189.615 410.4L191.097 417.25L192.114 420.35L193.185 422.37L193.093 422.91L194.069 422.03L194.102 420.78" stroke="#555555" stroke-width="2" stroke-linecap="round" stroke-linejoin="round"/>
<path d="M183.021 402.44L184.869 403.01L186.423 403.11L193.04 401.86" stroke="#555555" stroke-width="2" stroke-linecap="round" stroke-linejoin="round"/>
<path d="M96.7227 420.09L96.7277 428.32L97.4347 433.55L101.973 443.25L103.376 449.12L103.609 452.92L102.571 456.25" stroke="#555555" stroke-width="2" stroke-linecap="round" stroke-linejoin="round"/>
<path d="M95.8965 447.18L98.1165 447.3L104.99 446.72L110.269 445.68L117.361 442.7L117.799 442.23L117.251 441.87L113.558 447.07L113.001 448.46L113.04 450.27L113.675 451.51L114.702 452.23L117.308 453.21L119.606 453.27L121.773 452.26L122.144 451.18L123.628 449.62L124.209 447.63L121.632 443.77L119.504 442.93L118.738 443.15" stroke="#555555" stroke-width="2" stroke-linecap="round" stroke-linejoin="round"/>
<path d="M136.192 441.02L135.922 440.95L136.248 441.73L138.164 444.73L140.203 448.89L142.339 455.7L142.405 458.59L143.5 463L143.554 465.62L143.118 469.39L142.329 471.77L142.175 471.42" stroke="#555555" stroke-width="2" stroke-linecap="round" stroke-linejoin="round"/>
<path d="M152.968 442.89L153.183 442.66L152.958 442.68L152.317 443.06L152.73 443.13L149.957 446.04L149.258 448.84L149.3 451.93L150.762 453.06L153.361 453.75L156.028 453.21L158.846 450.56L159.387 449.58L159.671 446.06L159.281 445.17L158.794 444.38L156.13 442.26L154.345 441.49L152.272 441.92L151.198 443.85" stroke="#555555" stroke-width="2" stroke-linecap="round" stroke-linejoin="round"/>
<path d="M163.931 441.77L163.5 442.05L164.482 442.64L164.347 443.18L165.968 448.21L166.301 455.65L167.232 455.69L167.299 455.43" stroke="#555555" stroke-width="2" stroke-linecap="round" stroke-linejoin="round"/>
<path d="M163.709 429.77L163.008 429.65L163.989 430.1" stroke="#555555" stroke-width="2" stroke-linecap="round" stroke-linejoin="round"/>
<path d="M176.09 441L177.236 450.65L178.066 452.64L178.906 452.47L178.392 452.44L178.994 450.99L179.666 446.65L180.261 444.81L180.718 443.94L182.553 442.25L182.974 442.45L182.789 442.55L184.376 442.8L184.634 443.41L185.945 444.46L187.118 447.47L187.611 451.38L188.872 453.79L189.651 454.36L190.622 453.59" stroke="#555555" stroke-width="2" stroke-linecap="round" stroke-linejoin="round"/>
<path d="M204.904 429.14L205.364 428.43L206.922 428.06L214.512 426.6L216.727 426.64L216.614 427.07L217.031 427.25L216.805 428.36L217.078 429.81L216.556 430.61L216.62 431.06L215.029 433.26L212.458 435.5L209.516 439.06L209.948 439.03L209.966 438.61L210.143 438.78" stroke="#555555" stroke-width="2" stroke-linecap="round" stroke-linejoin="round"/>
<path d="M210.115 453.23L210.684 453.71L210.331 454.14L210.759 454.09L210.481 453.93L210.733 452.73L213.109 448.49" stroke="#555555" stroke-width="2" stroke-linecap="round" stroke-linejoin="round"/>
<circle cx="258" cy="444" r="18" fill="#292562"/>
</svg>
