<svg width="312" height="590" viewBox="0 0 312 590" fill="none" xmlns="http://www.w3.org/2000/svg">
<path d="M20.2891 24.06V480.094" stroke="#555555" stroke-width="4" stroke-linecap="round" stroke-linejoin="round"/>
<path d="M289.227 27.869V483.903" stroke="#555555" stroke-width="4" stroke-linecap="round" stroke-linejoin="round"/>
<path d="M2.28711 4.85901H308.287" stroke="#555555" stroke-width="4" stroke-linecap="round" stroke-linejoin="round"/>
<path d="M18.2871 27.859H288.287" stroke="#555555" stroke-width="4" stroke-linecap="round" stroke-linejoin="round"/>
<path d="M18.2871 481.859H289.287" stroke="#555555" stroke-width="4" stroke-linecap="round" stroke-linejoin="round"/>
<path d="M6.57227 551.142H305.572" stroke="#555555" stroke-width="4" stroke-linecap="round" stroke-linejoin="round"/>
<path d="M4.28711 5.85901V552.859" stroke="#555555" stroke-width="4" stroke-linecap="round" stroke-linejoin="round"/>
<path d="M309.52 2.591V549.591" stroke="#555555" stroke-width="4" stroke-linecap="round" stroke-linejoin="round"/>
<path d="M168.896 526.018L169.783 522.528L170 518.933L169.539 515.361L168.418 511.938L165.965 507.816L163.493 505.197L160.574 503.088L157.311 501.563L153.82 500.676L150.225 500.459L146.653 500.92L143.231 502.042L140.08 503.785L136.49 506.966L134.38 509.885L132.855 513.148L131.969 516.639L131.752 520.234L132.514 524.969L133.849 528.314L135.787 531.35L138.259 533.969L141.178 536.079L144.441 537.604L147.931 538.49L151.526 538.707L155.098 538.247L158.521 537.125L161.672 535.381L164.441 533.079L167.371 529.281L168.896 526.018Z" stroke="#555555" stroke-width="4" stroke-linecap="round" stroke-linejoin="round"/>
<path d="M91.4473 240.801L92.334 237.311L92.5508 233.716L92.0902 230.144L90.9684 226.721L88.5161 222.599L86.0439 219.98L83.1247 217.871L79.862 216.346L76.3713 215.459L72.7767 215.242L69.2047 215.703L65.7817 216.825L62.6307 218.568L59.0407 221.749L56.9317 224.668L55.4067 227.931L54.5197 231.422L54.3027 235.017L55.0657 239.752L56.3997 243.097L58.3377 246.133L60.8097 248.752L63.7287 250.862L66.9917 252.387L70.4827 253.273L74.0777 253.49L77.6492 253.03L81.0716 251.908L84.2231 250.165L86.9923 247.862L89.9223 244.064L91.4473 240.801Z" stroke="#555555" stroke-width="4" stroke-linecap="round" stroke-linejoin="round"/>
<path d="M256.232 240.782L257.119 237.291L257.336 233.696L256.875 230.124L255.753 226.702L253.301 222.579L250.829 219.96L247.91 217.851L244.647 216.326L241.156 215.439L237.561 215.222L233.989 215.683L230.567 216.805L227.415 218.548L223.826 221.729L221.716 224.648L220.191 227.911L219.305 231.402L219.088 234.997L219.85 239.733L221.185 243.078L223.123 246.114L225.595 248.733L228.514 250.842L231.777 252.367L235.267 253.254L238.862 253.471L242.434 253.01L245.857 251.888L249.008 250.145L251.777 247.842L254.707 244.045L256.232 240.782Z" stroke="#555555" stroke-width="4" stroke-linecap="round" stroke-linejoin="round"/>
<path d="M177.074 242.514L177.961 239.024L178.178 235.429L177.717 231.857L176.595 228.434L174.143 224.312L171.671 221.693L168.752 219.584L165.489 218.059L161.998 217.172L158.403 216.955L154.831 217.416L151.409 218.538L148.257 220.281L144.668 223.462L142.558 226.381L141.033 229.644L140.147 233.135L139.93 236.73L140.692 241.465L142.027 244.811L143.964 247.846L146.437 250.465L149.356 252.575L152.618 254.1L156.109 254.987L159.704 255.203L163.276 254.743L166.699 253.621L169.85 251.878L172.619 249.575L175.549 245.777L177.074 242.514Z" stroke="#555555" stroke-width="4" stroke-linecap="round" stroke-linejoin="round"/>
<path d="M156.633 228.617L154.059 227.895L154.344 227.385L154.736 227.373L154.544 226.309L154.191 225.267L153.597 225.596L149.559 230.708L143.428 240.385L143.213 241.621L143.887 240.983L147.165 234.496L150.046 231.106L152.911 225.645L153.838 222.842L153.661 222.655L150.856 224.378L149.899 225.308L144.926 230.694L143.028 233.32L142.375 234.726L142.722 235.369L143.403 235.205L147.095 232.402L148.506 230.285L151.674 227.045L153.786 223.39L151.538 227.33L149.69 231.488L146.101 236.929L143.119 242.435L144.421 238.783L146.154 235.826L147.114 234.285L149.814 231.691L150.904 229.603L153.5 226.245L154.162 224.112L155.61 223.018L154.998 226.421L152.447 232.812L149.715 237.869L152.559 234.928L161.526 223.879L165.488 220.66L163.525 222.855L153.315 239.263L151.691 242.459L151.406 243.638L151.552 244.449L151.787 244.531L153.033 242.83L163.094 227.13L165.742 224.306L166.212 223.392L158.668 235.235L155.371 243.036L155.649 243.236L156.703 242.864L162.68 233.078L166.316 228.667L168.7 226.295L168.647 225.969L167.873 226.767L165.726 230.543L159.3 240.188L157.627 243.466L157.058 245.733L157.908 245.888L159.873 243.797L161.388 240.263L165.214 233.68L168.965 229.402L169.937 227.773L166.163 234.635L161.221 242.246L158.657 247.839L158.908 247.962L159.614 247.348L162.638 243.957L167.154 236.191L168.482 234.469L168.838 233.143L166.221 238.653L163.505 243.335L162.482 246.285L161.153 248.111L161.184 249.071L161.7 249.093L164.644 245.681L168.597 239.401L170.948 236.295L171.371 236.099L170.637 240.647L167.359 248.11L167.986 248.306L174.207 237.639L174.594 237.386L174.067 238.582L174.963 238.606L174.67 238.415L174.766 237.822L175.583 236.709L175.932 234.564L175.516 233.29L175.448 230.915L174.979 229.607L173.084 227.435L173.049 226.483L171.854 226.067L169.975 223.65L168.78 222.95L168.853 222.522L168.314 221.965L166.62 221.8L163.554 220.858L161.395 220.741L158.732 219.908L156.479 220.13L154.175 220.983L152.923 222.122L152.274 224.654L150.36 226.345L148.767 228.788L149.005 229.695L148.826 230.901L146.51 235.104L145.503 238.712L145.62 240.297L146.902 243.776L147.439 244.193L147.257 245.203L147.929 247.077L149.24 247.173L151.934 248.504L153.039 248.469L155.274 249.052L158.201 248.713L161.296 249.932L164.845 249.67L166.741 248.723L167.458 247.638L168.776 246.831L169.859 245.387L172.61 239.256L173.371 234.62L172.909 231.358L172.151 230.826L172.733 235.276L172.427 239.234L171.526 243.497L170.001 245.33L169.847 246.256L168.75 247.391L167.774 249.308L167.113 249.863L165.742 250.311L164.414 251.893L163.246 252.246L161.742 253.689L161.465 253.485L156.23 254.787L155.349 254.618L153.839 253.533L152.586 252.123L149.703 247.39" stroke="#555555" stroke-width="6" stroke-linecap="round" stroke-linejoin="round"/>
<path d="M12.7095 564.973L12.5695 565.366L12.5275 564.886L12.7965 564.862L12.4945 564.878L13.1875 564.409L16.3605 563.278L19.0005 564.238L21.0415 564.535L20.7265 564.573L22.1145 565.837L22.1185 567.996L21.7955 569.981L18.9375 574.703L17.7855 575.716L15.7165 576.199L12.9155 578.441L12.5945 579.577L11.5145 581.041L12.0855 581.795L10.9915 582.442L9.93352 584.41L9.01051 585.471L8.84451 585.346L9.01152 585.546L8.72852 585.442L9.29253 585.484L8.64452 585.461L9.34651 585.455L9.00452 585.559L9.30052 585.557L9.08952 587.034L8.47852 588.27L9.09552 588.719L8.62852 588.455L9.04951 588.402L8.68951 588.533L8.93253 588.662L8.87552 588.391L8.60152 588.512L9.03252 588.498L8.60551 588.447L8.83752 588.473L8.65251 588.325L9.07951 587.674L9.31451 587.781L9.14752 588.503" stroke="#555555" stroke-width="2" stroke-linecap="round" stroke-linejoin="round"/>
<path d="M11.7617 588.858L12.1517 588.627L12.1627 587.523L12.1037 588.032L12.4707 588.309L12.1767 588.172L12.3577 588.018L15.6607 587.934L16.4177 588.199L20.8907 587.749L21.3977 588.074L21.7397 587.783L22.2007 587.986L21.7157 587.912L21.9997 587.621L22.0197 587.978L22.3657 588.072L21.9707 587.994L23.3527 587.675L22.9337 587.987L23.3787 588.083L22.2997 588.068L23.0937 588.036L22.3837 588L23.0297 587.874L22.7687 587.877L22.9377 587.588L22.6987 587.917L23.0157 587.847L22.9527 587.483L22.7947 588.246L22.8877 587.769L22.6487 587.801L22.7017 588.172L22.8617 587.709L22.6257 587.835L22.8847 588.006L22.6547 587.789L23.0107 586.705L22.7257 587.569" stroke="#555555" stroke-width="2" stroke-linecap="round" stroke-linejoin="round"/>
<path d="M229.279 268.512L229.054 269.159L229.481 269.467L228.992 269.917L230.007 269.587L229.69 269.465L234.93 263.622L237.102 260.37L238.275 259.385L237.577 259.719L237.975 259.666L237.541 259.797L237.835 259.896L237.402 259.802L237.85 260.569" stroke="#555555" stroke-width="2" stroke-linecap="round" stroke-linejoin="round"/>
<path d="M239.174 259.431L238.404 260L237.977 259.88L238.716 259.856L238.329 260.054L238.804 260.127L238.624 260.392L238.844 259.897L238.695 260.381L239.976 261.382L240.357 262.309L242.125 263.508L244.124 265.53L245.559 267.732L245.471 268.731L245.848 268.886L245.903 269.315L246.581 269.471L246.248 269.356L246.614 269.749L246.439 269.96L247.337 270.17L246.592 269.903L246.971 269.872L246.842 268.839" stroke="#555555" stroke-width="2" stroke-linecap="round" stroke-linejoin="round"/>
<path d="M152.921 270.334L152.697 270.981L153.124 271.289L152.635 271.739L153.65 271.409L153.333 271.287L158.573 265.444L160.744 262.192L161.917 261.207L161.219 261.542L161.617 261.488L161.183 261.619L161.477 261.718L161.044 261.624L161.493 262.391" stroke="#555555" stroke-width="2" stroke-linecap="round" stroke-linejoin="round"/>
<path d="M162.818 261.253L162.048 261.823L161.621 261.702L162.361 261.679L161.973 261.876L162.449 261.949L162.268 262.214L162.489 261.719L162.339 262.203L163.621 263.204L164.002 264.131L165.769 265.331L167.769 267.352L169.203 269.554L169.116 270.553L169.493 270.708L169.547 271.137L170.226 271.293L169.893 271.178L170.258 271.571L170.084 271.782L170.981 271.993L170.236 271.726L170.616 271.694L170.487 270.661" stroke="#555555" stroke-width="2" stroke-linecap="round" stroke-linejoin="round"/>
<path d="M166.198 303.734L165.965 304.241L166.197 304.477L166.704 304.226L165.272 303.88L161.529 303.845L159.851 304.968L159.034 306.305L158.822 307.45L157.639 308.285L157.473 309.69L156.588 312.061L157.171 312.301L156.911 312.419L157.465 313.676L157.083 314.099L157.951 314.564L157.716 315.534L159.692 316.429L159.259 316.553L161.194 317.286L161.407 317.813L162.138 317.909L161.74 318.041L162.188 318.042L162.258 317.769L162.766 317.861L162.477 318.006L162.668 318.267L165.661 318.19L166.268 318.392L165.89 318.495L166.73 318.213L166.422 318.2L166.671 318.039L166.503 317.823L167.985 317.5L167.211 317.759L168.101 318.324L168.185 318.134L167.821 318.213L168.65 317.774L168.381 318.069" stroke="#555555" stroke-width="2" stroke-linecap="round" stroke-linejoin="round"/>
<path d="M64.9022 271.012L64.6772 271.659L65.1042 271.967L64.6152 272.416L65.6302 272.087L65.3132 271.965L70.5532 266.122L72.7252 262.87L73.8982 261.885L73.2002 262.219L73.5972 262.166L73.1632 262.297L73.4582 262.396L73.0242 262.301L73.4732 263.069" stroke="#555555" stroke-width="2" stroke-linecap="round" stroke-linejoin="round"/>
<path d="M74.7986 261.931L74.0286 262.5L73.6016 262.379L74.3416 262.356L73.9536 262.553L74.4296 262.627L74.2486 262.892L74.4696 262.397L74.3196 262.88L75.6016 263.882L75.9826 264.808L77.7496 266.008L79.7494 268.03L81.1838 270.232L81.0962 271.231L81.4735 271.386L81.5279 271.814L82.206 271.971L81.8734 271.856L82.2389 272.249L82.0643 272.46L82.9618 272.67L82.2165 272.403L82.5962 272.372L82.4672 271.339" stroke="#555555" stroke-width="2" stroke-linecap="round" stroke-linejoin="round"/>
<path d="M235.533 327.449L235.687 327.763" stroke="#555555" stroke-width="2" stroke-linecap="round" stroke-linejoin="round"/>
<path d="M237.315 325.165L237.548 325.212L237.387 325.422L237.083 325.204L236.426 325.69L236.688 325.803L235.186 326.703L234.581 327.962L233.845 331.411L233.281 332.487L233.514 332.904L233.319 334.089L234.653 335.065L236.516 335.694L241.466 335.768L244.372 333.13L245.031 330.882L244.585 329.317L244.147 328.277L242.588 327.026L241.433 325.589L240.777 325.17L238.491 324.804L237.041 325.191L236.599 326.088" stroke="#555555" stroke-width="2" stroke-linecap="round" stroke-linejoin="round"/>
<path d="M231.922 346.236L231.852 345.951L231.811 346.323L231.113 346.588L231.716 346.637L231.41 346.821L231.709 349.228L233.489 354.583L233.706 356.983L233.069 358.101L233.262 358.523L234.713 353.804L234.742 351.391L237.347 347.528L237.359 347.938L238.651 348.508L239.755 349.437L240.412 350.748L241.094 357.649L240.915 357.168L241.474 356.775L241.811 355.993L242.453 352.298L243.462 350.78L243.94 348.85L244.85 347.945L245.962 347.936L247.307 349.288L247.981 349.519L248.141 349.974L249.238 350.59L249.73 351.868L249.391 352.912L250.302 354.811L250.325 356.57L250.788 356.331L251.532 356.511L250.955 356.912" stroke="#555555" stroke-width="2" stroke-linecap="round" stroke-linejoin="round"/>
<path d="M233.941 367.111L233.871 366.826L233.831 367.198L233.133 367.463L233.735 367.512L233.429 367.697L233.728 370.103L235.509 375.458L235.726 377.859L235.089 378.976L235.281 379.398L236.733 374.679L236.762 372.266L239.367 368.403L239.378 368.814L240.67 369.383L241.775 370.312L242.431 371.624L243.113 378.524L242.935 378.043L243.493 377.65L243.831 376.868L244.472 373.173L245.482 371.656L245.959 369.726L246.87 368.82L247.982 368.811L249.326 370.163L250.001 370.394L250.161 370.849L251.258 371.465L251.75 372.743L251.411 373.788L252.322 375.686L252.345 377.445L252.808 377.206L253.551 377.386L252.975 377.787" stroke="#555555" stroke-width="2" stroke-linecap="round" stroke-linejoin="round"/>
<path d="M243.258 305.933L243.187 306.487L241.294 305.932L235.595 307.085L234.184 310.362L234.043 311.966L234.648 314.919L236.403 317.299L240.699 319.385L243.571 318.027" stroke="#555555" stroke-width="2" stroke-linecap="round" stroke-linejoin="round"/>
<path d="M233.324 395.658L235.19 394.008L236.005 392.745L239.339 385.708L239.372 385.026L239.113 385.857L239.471 386.655L239.578 388.451L239.42 391.252L239.655 392.171L240.342 393.038L242.249 392.893L245.311 390.614L246.143 387.577L247.325 385.321L246.878 385.026L246.458 385.675L246.751 386.784L246.492 390.926L247.293 393.102L247.593 393.612L249.09 394.391L251.793 393.804" stroke="#555555" stroke-width="2" stroke-linecap="round" stroke-linejoin="round"/>
<path d="M237.934 402.231L238.919 402.196L238.334 402.596L237.92 403.877L238.707 406.285L239.144 410.388L240.261 413.883L240.78 413.831L240.353 412.72L240.898 412.573L241.221 410.375L242.14 409.027L241.361 407.75L241.469 407.179L242.162 406.638L242.316 405.618L243.801 403.556L246.093 404.331L245.968 404.625L247.073 405.681L248.107 407.328L248.598 411.099L248.438 412.337L248.885 413.661L249.364 413.814L250.754 411.727" stroke="#555555" stroke-width="2" stroke-linecap="round" stroke-linejoin="round"/>
<path d="M242.011 421.523L241.592 421.977L242.186 422.278L241.757 422.628L242.152 424.43L241.768 425.992L242.244 427.024L241.962 428.148L242.345 428.697L242.262 429.342L241.896 429.712L241.981 430.578L242.243 430.55" stroke="#555555" stroke-width="2" stroke-linecap="round" stroke-linejoin="round"/>
<path d="M244.956 434.381L244.949 435.038L245.24 435.013L244.793 440.894L244.972 443.478L244.324 450.636L244.793 457.581L244.412 458.836L244.988 459.839L244.639 459.943L245.223 460.472L245.111 460.786L244.818 460.79L244.871 460.405L245.66 458.628" stroke="#555555" stroke-width="2" stroke-linecap="round" stroke-linejoin="round"/>
<path d="M239.974 442.404L239.9 443.219L243.82 442.977L252.769 441.298" stroke="#555555" stroke-width="2" stroke-linecap="round" stroke-linejoin="round"/>
<path d="M237.586 464.823L237.096 465.179L238.511 465.427L238.721 466.107L239.312 466.501L239.733 468.141L241.184 470.709L241.881 472.74L242.235 472.966L243.622 471.444" stroke="#555555" stroke-width="2" stroke-linecap="round" stroke-linejoin="round"/>
<path d="M249.709 462.796L249.029 462.973L247.314 464.72L244.539 470.256L239.944 484.39L238.203 487.267L238.68 487.978L238.657 488.343L238.301 488.297L239.411 487.894L238.769 487.276" stroke="#555555" stroke-width="2" stroke-linecap="round" stroke-linejoin="round"/>
<path d="M155.199 337.997L156.178 337.438L159.903 330.416L160.747 328.421L160.083 327.689L160.246 329.465L159.597 332.798L159.916 333.969L161.268 335.364L163.384 335.773L165.865 333.553L166.864 331.974L167.235 330.156L168.256 328.557L168.491 327.212L169.543 326.233L169.214 325.84L169.614 325.753L169.479 325.464L169.73 325.344L169.433 325.266L169.943 325.31L169.527 325.314L169.839 325.553L169.271 325.919L169.574 327.259L169.235 327.873L170.243 330.548L170.157 331.345L174.48 335.649L175.561 335.891L177.856 335.349L180.106 333.593" stroke="#555555" stroke-width="2" stroke-linecap="round" stroke-linejoin="round"/>
<path d="M163 367.194L164.34 367.535L163.304 367.488L164.74 366.894L164.408 365.497L164.67 364.786L166.692 363.415L166.973 361.43L166.546 360.418L166.614 359.387L167.628 358.852L168.147 358.043L168.249 357.166L169.737 353.901L169.604 348.817L168.837 348.043L168.336 345.237L167.361 344.617L167.892 344.753L167.862 344.465L167.013 344.034L167.479 343.564L167.029 343.619L166.553 343.695L165.327 344.965L165.581 345.004L164.676 345.449L164.723 346.778L163.716 348.968L163.724 350.772L164.595 354.584L164.353 356.228L165.152 358.809L166.154 360.22L166.557 362.37L167.807 363.778L169.529 366.942L169.526 368.344L170.002 367.25L169.66 366.336" stroke="#555555" stroke-width="2" stroke-linecap="round" stroke-linejoin="round"/>
<path d="M168.539 373.933L168.995 373.767L169.111 374.12L168.866 374.518L168.683 378.112L169.005 391.268L169.613 394.147L170.483 395.69L170.121 396.037L170.293 396.427L169.763 397.018L169.71 398.01L168.336 401.432L170.557 397.965" stroke="#555555" stroke-width="2" stroke-linecap="round" stroke-linejoin="round"/>
<path d="M161.459 383.248L161.966 383.447L162.207 382.728L163.087 381.834L164.225 379.055L168.841 375.243L171.509 373.624" stroke="#555555" stroke-width="2" stroke-linecap="round" stroke-linejoin="round"/>
<path d="M154.408 420.312L155.387 419.754L159.112 412.732L159.956 410.736L159.292 410.004L159.455 411.781L158.806 415.113L159.125 416.284L160.477 417.679L162.593 418.089L165.074 415.868L166.073 414.289L166.444 412.471L167.465 410.872L167.7 409.527L168.752 408.548L168.423 408.155L168.823 408.068L168.688 407.779L168.939 407.659L168.642 407.581L169.152 407.625L168.736 407.629L169.048 407.868L168.48 408.234L168.783 409.574L168.443 410.189L169.452 412.863L169.366 413.66L173.689 417.964L174.77 418.207L177.065 417.664L179.315 415.908" stroke="#555555" stroke-width="2" stroke-linecap="round" stroke-linejoin="round"/>
<path d="M166.252 459.721L166.833 459.888L170.489 454.969L171.269 453.258L171.702 451.328L171.381 449.381L169.411 448.541L169.101 448.594L169.146 448.89L167.884 449.234L168.23 449.641L167.414 450.417L167.589 452.3L167.105 453.797L168.654 457.417L169.949 458.545L170.255 459.541L171.724 460.406L172.417 461.407L173.513 461.81L175.59 461.49L179.633 459.728L180.368 459.686" stroke="#555555" stroke-width="2" stroke-linecap="round" stroke-linejoin="round"/>
<path d="M162.643 431.905L163.414 430.675L163.24 429.114L162.613 430.171L163.171 431.049L162.705 433.392L163.524 437.188L164.297 438.911L164.495 438.851" stroke="#555555" stroke-width="2" stroke-linecap="round" stroke-linejoin="round"/>
<path d="M164.98 428.066L166.72 426.245L168.944 425.843L169.188 426.254L170.517 426.649L171.759 427.468L171.729 427.983L172.28 428.648L171.409 430.764L170.016 432.492L167.499 434.698L165.612 435.724L166.93 434.241L166.696 434.18L170.207 433.477L171.564 433.975L172.913 434.953L174.488 438.251L174.7 439.561L175.517 440.468L175.891 439.698L178.192 438.101L178.35 438.332L179.831 437.364L180.172 437.524" stroke="#555555" stroke-width="2" stroke-linecap="round" stroke-linejoin="round"/>
<path d="M163.172 262.797V287.797" stroke="#555555" stroke-width="2" stroke-linecap="round" stroke-linejoin="round"/>
<path d="M238.725 260.261V285.261" stroke="#555555" stroke-width="2" stroke-linecap="round" stroke-linejoin="round"/>
<path d="M73.457 264.636V289.636" stroke="#555555" stroke-width="2" stroke-linecap="round" stroke-linejoin="round"/>
<path d="M67.5298 297.235L67.1878 299.06L67.7048 298.772L67.5168 298.67L67.8988 298.796L67.2848 299.058L67.5208 300.085L66.9568 301.899L67.7798 303.933L67.2608 304.641L66.8828 308.054L67.5718 309.962L67.5838 309.348L69.8528 304.242L69.8098 303.321L70.3408 301.954L70.8578 298.695L72.0018 297.087L72.9758 296.845L73.3698 297.166L75.0048 300.988L74.7068 304.705L74.9918 305.486L74.3438 308.428L75.5338 309.529L75.9398 309.263L75.7088 308.737L76.7031 305.389L78.3625 302.75L79.9763 297.483L81.2895 295.471L81.4403 295.734L81.1507 296L81.8017 296.293L81.8659 297L82.6695 297.617L83.0834 299.42L83.605 300.028L84.3477 302.017L84.0495 303.249L85.0655 304.663L84.6425 306.988L84.832 307.893L85.1982 307.623L83.9523 307.903" stroke="#555555" stroke-width="2" stroke-linecap="round" stroke-linejoin="round"/>
<path d="M70.5253 318.841L69.6113 319.128L70.1373 319.187L69.8273 319.63L70.6883 319.443L70.5813 319.046L70.5973 321.496L71.4343 322.752L71.6213 323.996L73.0213 326.511L73.9643 327.164L74.0393 327.521L73.5853 327.696L74.7613 327.144L73.3143 326.861L73.6313 326.615" stroke="#555555" stroke-width="2" stroke-linecap="round" stroke-linejoin="round"/>
<path d="M82.8256 318.292L82.4514 318.387L82.1529 318.982L81.5183 318.971L81.9592 318.805L81.9764 319.263L81.2318 319.68L80.7343 321.162L78.4275 325.181L75.706 328.729L73.597 333.048L72.547 334.342L71.852 336.959L71.625 336.817L71.804 335.849" stroke="#555555" stroke-width="2" stroke-linecap="round" stroke-linejoin="round"/>
<path d="M72.7188 373.618L72.8727 373.932" stroke="#555555" stroke-width="2" stroke-linecap="round" stroke-linejoin="round"/>
<path d="M74.5027 371.333L74.7367 371.381L74.5747 371.591L74.2707 371.373L73.6147 371.859L73.8757 371.972L72.3737 372.872L71.7697 374.131L71.0337 377.579L70.4688 378.656L70.7028 379.073L70.5067 380.257L71.8407 381.234L73.7038 381.862L78.6539 381.937L81.5596 379.299L82.2184 377.051L81.7729 375.486L81.3351 374.446L79.7758 373.195L78.6213 371.758L77.9646 371.339L75.6787 370.972L74.2287 371.359L73.7868 372.257" stroke="#555555" stroke-width="2" stroke-linecap="round" stroke-linejoin="round"/>
<path d="M80.4442 352.101L80.3723 352.656L78.4794 352.101L72.7805 353.254L71.3705 356.53L71.2285 358.134L71.8345 361.087L73.5885 363.468L77.8844 365.553L80.7566 364.196" stroke="#555555" stroke-width="2" stroke-linecap="round" stroke-linejoin="round"/>
<path d="M67.5 399.692L69.365 398.042L70.18 396.779L73.515 389.742L73.547 389.06L73.289 389.891L73.646 390.69L73.753 392.485L73.596 395.287L73.831 396.205L74.517 397.072L76.4243 396.927L79.4869 394.648L80.319 391.612L81.5002 389.356L81.0535 389.06L80.634 389.709L80.9265 390.818L80.6672 394.96L81.4682 397.136L81.769 397.646L83.2654 398.426L85.9688 397.838" stroke="#555555" stroke-width="2" stroke-linecap="round" stroke-linejoin="round"/>
<path d="M72.5739 410.59L73.3449 409.359L73.1709 407.799L72.5449 408.856L73.1019 409.734L72.6359 412.077L73.4559 415.873L74.2289 417.596L74.4259 417.536" stroke="#555555" stroke-width="2" stroke-linecap="round" stroke-linejoin="round"/>
<path d="M74.9121 406.751L76.6516 404.93L78.8757 404.528L79.1201 404.939L80.4484 405.334L81.6908 406.153L81.6611 406.668L82.2117 407.333L81.3411 409.449L79.948 411.177L77.4304 413.383L75.5431 414.409L76.8614 412.927L76.6278 412.865L80.1386 412.162L81.4957 412.66L82.845 413.638L84.4194 416.936L84.6321 418.246L85.4491 419.153L85.8226 418.383L88.1241 416.786L88.2819 417.017L89.7626 416.049L90.1041 416.209" stroke="#555555" stroke-width="2" stroke-linecap="round" stroke-linejoin="round"/>
<path d="M80.7649 422.524L81.4886 422.184L81.0748 422.099L81.1003 421.647L79.8072 421.678L77.8527 422.995L77.4456 424.769L78.141 428.509L80.9431 429.74L82.6535 429.666L84.4223 430.205L84.7379 430.515L84.5504 431.39L85.0904 433.168L84.9483 435.092L82.3982 437.113L79.8496 438.033L75.5586 437.429L75.9616 436.797" stroke="#555555" stroke-width="2" stroke-linecap="round" stroke-linejoin="round"/>
<path d="M74.2676 452.385L74.8486 452.553L78.5037 447.634L79.2841 445.923L79.717 443.993L79.3959 442.046L77.4259 441.206L77.1165 441.258L77.1612 441.555L75.8996 441.899L76.245 442.306L75.4296 443.082L75.6046 444.964L75.1206 446.462L76.6693 450.082L77.9639 451.209L78.2703 452.205L79.7392 453.071L80.4326 454.072L81.5283 454.475L83.6053 454.155L87.6486 452.392L88.3837 452.351" stroke="#555555" stroke-width="2" stroke-linecap="round" stroke-linejoin="round"/>
<path d="M80.4624 461.346L81.1862 461.006L80.7724 460.92L80.7979 460.469L79.5048 460.499L77.5503 461.816L77.1432 463.59L77.8385 467.33L80.6407 468.562L82.3511 468.487L84.1199 469.026L84.4355 469.336L84.248 470.212L84.788 471.99L84.6459 473.914L82.0957 475.934L79.5472 476.855L75.2559 476.25L75.6589 475.618" stroke="#555555" stroke-width="2" stroke-linecap="round" stroke-linejoin="round"/>
<circle cx="157" cy="236" r="22" fill="#292562"/>
</svg>
