<svg width="312" height="590" viewBox="0 0 312 590" fill="none" xmlns="http://www.w3.org/2000/svg">
<path d="M20.4082 23.909V479.943" stroke="#555555" stroke-width="4" stroke-linecap="round" stroke-linejoin="round"/>
<path d="M289.348 27.718V483.752" stroke="#555555" stroke-width="4" stroke-linecap="round" stroke-linejoin="round"/>
<path d="M2.40625 4.70801H308.406" stroke="#555555" stroke-width="4" stroke-linecap="round" stroke-linejoin="round"/>
<path d="M18.4062 27.708H288.406" stroke="#555555" stroke-width="4" stroke-linecap="round" stroke-linejoin="round"/>
<path d="M18.4062 481.708H289.406" stroke="#555555" stroke-width="4" stroke-linecap="round" stroke-linejoin="round"/>
<path d="M6.69336 550.99H305.693" stroke="#555555" stroke-width="4" stroke-linecap="round" stroke-linejoin="round"/>
<path d="M4.40625 5.70801V552.708" stroke="#555555" stroke-width="4" stroke-linecap="round" stroke-linejoin="round"/>
<path d="M309.641 2.44V549.44" stroke="#555555" stroke-width="4" stroke-linecap="round" stroke-linejoin="round"/>
<path d="M169.016 525.867L169.902 522.376L170.119 518.781L169.659 515.21L168.537 511.787L166.085 507.665L163.612 505.046L160.693 502.937L157.43 501.411L153.94 500.525L150.345 500.308L146.773 500.769L143.35 501.89L140.199 503.634L136.609 506.815L134.5 509.734L132.975 512.997L132.088 516.487L131.871 520.083L132.634 524.818L133.968 528.163L135.906 531.199L138.378 533.818L141.297 535.927L144.56 537.453L148.051 538.339L151.646 538.556L155.218 538.095L158.64 536.974L161.792 535.23L164.561 532.927L167.491 529.13L169.016 525.867Z" stroke="#555555" stroke-width="4" stroke-linecap="round" stroke-linejoin="round"/>
<path d="M131.959 237.255L133.697 242.682L136.421 247.687L140.035 252.092L144.411 255.743L147.675 257.692L151.158 259.217L156.672 260.657L162.357 261.038L168.013 260.348L173.44 258.61L178.445 255.885L182.851 252.271L186.502 247.896L188.451 244.632L189.975 241.149L191.415 235.635L191.797 229.95L191.106 224.293L189.368 218.866L186.644 213.861L183.03 209.456L178.654 205.805L175.39 203.856L171.907 202.331L166.394 200.891L160.708 200.51L155.052 201.2L149.625 202.938L144.62 205.663L141.606 207.98L138.906 210.658L135.538 215.254L133.09 220.4L131.65 225.913L131.268 231.599L131.959 237.255Z" stroke="#555555" stroke-width="6" stroke-linecap="round" stroke-linejoin="round"/>
<path d="M125.729 299.541L125.491 299.673L125.266 299.215L125.913 297.509L126.963 295.823L129.043 293.602L130.827 289.88L132.016 286.66L133.812 279.933L134.352 275.115L134.03 272.805L134.328 271.796L134.332 269.57L133.693 265.969L132.926 264.73L132.319 264.687L128.885 272.015L128.383 273.378L127.962 276.035L127.987 278.719L127.705 280.227L127.978 284.83L128.67 288.456L130.298 292.452L131.501 294.201L133.187 295.297L135.469 295.595L136.403 295.516L137.503 295.013L140.757 289.602L141.921 285.575L142.615 284.471L142.701 284.156L142.365 283.991L141.987 284.112L141.849 284.695L139.958 286.513L139.494 288.5L138.658 290.186L138.734 291.614L138.44 293.193L138.494 293.789L139.348 294.989L142.51 296.99L143.321 296.946L144.527 295.365L146.07 291.248L146.065 286.875L145.095 284.324L144.713 283.871L143.569 283.514L142.941 283.981L141.617 286.989" stroke="#555555" stroke-width="1.75" stroke-linecap="round" stroke-linejoin="round"/>
<path d="M152.432 286.85L150.214 288.304L150.133 288.784L149.507 289.151L149.312 291.93L150.129 294.466L150.081 295.286L150.516 296.001L151.826 296.326L152.975 295.936L153.93 294.247L155.145 290.278L155.395 289.197L155.194 286.812L155.065 286.655L154.837 287.301L155.027 287.288L154.734 287.409L155.16 287.88L154.77 288.356L155.35 292.433L156.512 296.947L157.103 301.852L158.026 304.483L157.891 305.391L158.538 307.366L158.549 309.915L159.299 312.65L158.186 318.186L157.77 318.878L156.941 318.96L157.053 318.374L155.559 317.297L153.641 314.242L152.421 310.579L152.441 308.196L154.061 304.842L156.215 302.493L158.6 300.751L160.07 298.874L160.363 298.258L160.314 297.179L161.427 295.215" stroke="#555555" stroke-width="1.75" stroke-linecap="round" stroke-linejoin="round"/>
<path d="M176.617 285.667L175.967 285.89L177.178 284.415L176.873 285.247L176.995 285.776L175.664 288.409L175.748 289.753L175.432 290.527L175.848 290.96L175.436 291.262L175.52 291.678L175.979 292.079L176.491 293.309L177.99 292.158" stroke="#555555" stroke-width="1.75" stroke-linecap="round" stroke-linejoin="round"/>
<path d="M178.037 274.435L176.568 274.843L177.036 274.873L176.754 274.846L177.057 275.081" stroke="#555555" stroke-width="1.75" stroke-linecap="round" stroke-linejoin="round"/>
<path d="M182.289 284.955L181.823 285.537L182.093 285.387L182.324 285.919L182.096 286.663L182.128 289.243L181.707 290.553L182.594 293.982L182.337 295.272L182.588 295.607L182.438 295.493L182.861 295.307L182.395 295.687L182.571 296.705L182.927 296.737L182.426 296.225L182.75 295.953L182.886 294.65L183.903 292.763L183.667 290.864L184.98 288.188L186.431 286.443L186.935 286.468L188.824 285.273L188.713 285.905L189.002 285.942L188.698 286.033L189.893 286.585L189.597 287.008L190.388 287.709L190.781 289.176L190.237 289.656L190.504 289.889L190.278 290.801L190.507 291.679L189.818 292.598L190.216 292.689L190.019 293.241L190.436 294.121L189.769 294.892L190.163 295.425L189.824 296.929L189.82 297.145L190.121 297.137L189.747 296.977L190.239 296.706L190.159 296.422L190.928 296.182" stroke="#555555" stroke-width="1.75" stroke-linecap="round" stroke-linejoin="round"/>
<path d="M20.0234 561.627V588.627" stroke="#555555" stroke-width="2" stroke-linecap="round" stroke-linejoin="round"/>
<path d="M20.9189 560.757L18.7739 561.872L18.9659 562.394L18.5269 562.473L19.304 562.277L18.606 562.284L19.017 562.086L19.028 562.428L18.7089 562.411L18.8519 563.133L16.325 566.162L15.8779 567.973L13.3109 571.998L12.843 573.357L10.918 575.438L11.2069 575.573L11.627 574.932L11.1819 575.135L11.45 575.225L11.2599 575.1L11.7479 574.816L11.3859 574.973L12.0629 575.014L11.4719 574.808L11.9299 573.901L12.9949 572.9" stroke="#555555" stroke-width="2" stroke-linecap="round" stroke-linejoin="round"/>
<circle cx="162" cy="231" r="26" fill="#292562"/>
</svg>
