<svg width="30" height="30" viewBox="0 0 30 30" fill="none" xmlns="http://www.w3.org/2000/svg">
<path d="M15.1761 19.1591C14.4602 19.1591 13.8438 18.9901 13.3267 18.652C12.8097 18.3139 12.4119 17.8482 12.1335 17.255C11.8551 16.6617 11.7159 15.9839 11.7159 15.2216C11.7159 14.446 11.8584 13.7616 12.1435 13.1683C12.4318 12.5717 12.8329 12.1061 13.3466 11.7713C13.8636 11.4332 14.4669 11.2642 15.1562 11.2642C15.6932 11.2642 16.1771 11.3636 16.608 11.5625C17.0388 11.7614 17.3918 12.0398 17.6669 12.3977C17.942 12.7557 18.1127 13.1733 18.179 13.6506H17.0057C16.9162 13.3026 16.7173 12.9943 16.4091 12.7259C16.1042 12.4541 15.6932 12.3182 15.1761 12.3182C14.7188 12.3182 14.3177 12.4375 13.973 12.6761C13.6316 12.9115 13.3648 13.2446 13.1726 13.6754C12.9837 14.103 12.8892 14.6051 12.8892 15.1818C12.8892 15.7718 12.982 16.2855 13.1676 16.723C13.3565 17.1605 13.6217 17.5002 13.9631 17.7422C14.3078 17.9841 14.7121 18.1051 15.1761 18.1051C15.4811 18.1051 15.7578 18.0521 16.0064 17.946C16.255 17.84 16.4654 17.6875 16.6378 17.4886C16.8101 17.2898 16.9328 17.0511 17.0057 16.7727H18.179C18.1127 17.2235 17.9486 17.6295 17.6868 17.9908C17.4283 18.3487 17.0852 18.6338 16.6577 18.8459C16.2334 19.0547 15.7396 19.1591 15.1761 19.1591Z" fill="#555555"/>
<circle cx="15" cy="15" r="13.5" stroke="#555555" stroke-width="3"/>
</svg>
