<svg width="30" height="30" viewBox="0 0 30 30" fill="none" xmlns="http://www.w3.org/2000/svg">
<path d="M14.9574 19.1591C14.321 19.1591 13.7592 18.9983 13.272 18.6768C12.7848 18.352 12.4036 17.8946 12.1286 17.3047C11.8535 16.7114 11.7159 16.0104 11.7159 15.2017C11.7159 14.3996 11.8535 13.7036 12.1286 13.1136C12.4036 12.5237 12.7865 12.0679 13.277 11.7464C13.7675 11.425 14.3343 11.2642 14.9773 11.2642C15.4744 11.2642 15.8672 11.3471 16.1555 11.5128C16.4472 11.6752 16.6693 11.8608 16.8217 12.0696C16.9775 12.2751 17.0985 12.4441 17.1847 12.5767H17.2841V8.81818H18.4574V19H17.3239V17.8267H17.1847C17.0985 17.9659 16.9759 18.1416 16.8168 18.3537C16.6577 18.5625 16.4306 18.7498 16.1357 18.9155C15.8407 19.0779 15.4479 19.1591 14.9574 19.1591ZM15.1165 18.1051C15.5871 18.1051 15.9848 17.9825 16.3097 17.7372C16.6345 17.4886 16.8814 17.1456 17.0504 16.7081C17.2195 16.2673 17.304 15.7585 17.304 15.1818C17.304 14.6117 17.2211 14.1129 17.0554 13.6854C16.8897 13.2545 16.6444 12.9197 16.3196 12.6811C15.9948 12.4392 15.5938 12.3182 15.1165 12.3182C14.6193 12.3182 14.205 12.4458 13.8736 12.701C13.5455 12.9529 13.2985 13.2959 13.1328 13.7301C12.9704 14.161 12.8892 14.6449 12.8892 15.1818C12.8892 15.7254 12.9721 16.2192 13.1378 16.6634C13.3068 17.1042 13.5554 17.4555 13.8835 17.7173C14.215 17.9759 14.6259 18.1051 15.1165 18.1051Z" fill="#555555"/>
<circle cx="15" cy="15" r="14" stroke="#555555" stroke-width="2"/>
</svg>
