<svg width="30" height="30" viewBox="0 0 30 30" fill="none" xmlns="http://www.w3.org/2000/svg">
<path d="M17.483 13.0739L16.429 13.3722C16.3627 13.1965 16.2649 13.0258 16.1357 12.8601C16.0097 12.6911 15.8374 12.5518 15.6186 12.4425C15.3999 12.3331 15.1198 12.2784 14.7784 12.2784C14.3111 12.2784 13.9216 12.3861 13.6101 12.6016C13.3018 12.8137 13.1477 13.0838 13.1477 13.4119C13.1477 13.7036 13.2538 13.9339 13.4659 14.103C13.678 14.272 14.0095 14.4129 14.4602 14.5256L15.5938 14.804C16.2765 14.9697 16.7853 15.2232 17.12 15.5646C17.4548 15.9027 17.6222 16.3385 17.6222 16.8722C17.6222 17.3097 17.4962 17.7008 17.2443 18.0455C16.9957 18.3902 16.6477 18.6619 16.2003 18.8608C15.7528 19.0597 15.2325 19.1591 14.6392 19.1591C13.8603 19.1591 13.2157 18.9901 12.7053 18.652C12.1948 18.3139 11.8717 17.8201 11.7358 17.1705L12.8494 16.892C12.9555 17.303 13.156 17.6113 13.451 17.8168C13.7493 18.0223 14.1387 18.125 14.6193 18.125C15.1662 18.125 15.6004 18.009 15.9219 17.777C16.2467 17.5417 16.4091 17.2599 16.4091 16.9318C16.4091 16.6667 16.3163 16.4446 16.1307 16.2656C15.9451 16.0833 15.66 15.9474 15.2756 15.858L14.0028 15.5597C13.3035 15.3939 12.7898 15.1371 12.4616 14.7891C12.1368 14.4377 11.9744 13.9986 11.9744 13.4716C11.9744 13.0407 12.0954 12.6596 12.3374 12.3281C12.5826 11.9967 12.9157 11.7365 13.3366 11.5476C13.7609 11.3587 14.2415 11.2642 14.7784 11.2642C15.5341 11.2642 16.1274 11.4299 16.5582 11.7614C16.9924 12.0928 17.3007 12.5303 17.483 13.0739Z" fill="#555555"/>
<circle cx="15" cy="15" r="14.5" stroke="#555555"/>
</svg>
