<svg width="207" height="209" viewBox="0 0 207 209" fill="none" xmlns="http://www.w3.org/2000/svg">
<rect width="207" height="206.452" fill="white"/>
<path d="M102.579 23.9464H102.565L100.922 25.1432L99.1094 26.8985" stroke="black" stroke-width="2.75" stroke-linecap="round" stroke-linejoin="round"/>
<path d="M93.7818 33.5608L93.6228 33.7304L90.3248 38.787L90.3098 40.3129L89.6398 41.1208L89.4088 42.7265L88.1308 45.3595L88.3138 47.414L85.8178 56.1608L86.2948 58.0757L85.7898 59.5917L85.5488 69.7447L85.8748 71.7893L86.6848 73.1058L86.8028 76.7661L87.4528 78.6112L90.5258 83.0295L91.2608 84.7947L95.4458 89.6817L97.5188 93.2722L99.6428 95.1572L108.704 97.3614L115.762 97.6107L117.377 97.2417L124.363 92.7536L128.466 88.1857L132.028 85.3532L133.292 83.5381L133.696 82.0221L134.772 80.8851L136.655 76.796L139.697 63.8703L139.247 62.4242L139.688 59.9008L139.225 56.5198L139.401 52.6301L138.029 46.0377L137.154 44.8908L138.032 42.3275L136.841 40.7318L136.931 39.5151L136.191 39.2058L136.299 38.2185L135.081 37.0715L132.031 29.5714L130.736 27.836L125.389 25.4125L123.461 23.7968L120.409 23.707L113.567 21.3632L111.912 21.7821L109.069 21.2935L102.828 22.1212L100.599 22.9391L98.5178 24.3353L96.6648 27.3673L95.3168 27.4072L92.3178 32.3042L91.4768 32.763L91.7788 32.8128L91.3548 33.3016L91.7678 35.9944L90.8108 37.271L90.7868 38.3681L91.1598 38.4778" stroke="black" stroke-width="2.75" stroke-linecap="round" stroke-linejoin="round"/>
<path d="M108.273 68.5977L107.853 70.0837L108.308 70.3132L107.625 70.343L107.661 70.7919L104.963 72.4973L104.431 74.3923L103.871 74.4521L103.762 74.9508L104.173 75.0306L103.66 74.9907L103.953 75.28L103.445 75.3298L103.086 76.6961L102.728 76.6164L103.252 76.6961L102.16 78.3717L102.987 78.3618H102.244L102.916 78.2321L102.75 77.893L103.148 77.8531H102.65L102.75 77.3544L102.255 78.0327L102.716 77.7833" stroke="black" stroke-width="2.75" stroke-linecap="round" stroke-linejoin="round"/>
<path d="M111.141 69.6549H110.494L110.592 70.1935L110.026 70.9614L109.756 70.5924L108.062 73.2653L107.776 75.0506L106.814 75.3697L107.896 74.8113L110.053 72.3977L110.911 70.5027L109.894 74.3325L110.014 75.2401L110.221 74.143L110.955 73.784L112.021 72.0686L115.458 69.3657L114.998 71.0013L117.998 70.363L118.513 69.6849L119.248 69.7946L119.652 71.121L120.845 71.7793L120.662 71.1809L122.579 69.4555L123.293 68.0592L123.131 68.8172L124.372 69.8643L120.69 69.7347" stroke="black" stroke-width="2.75" stroke-linecap="round" stroke-linejoin="round"/>
<path d="M108.384 64.9275L107.343 65.7253L106.488 67.3012L106.052 70.3132L105.342 71.131L105.574 71.5399L106.294 67.7499L107.007 66.6229L106.691 66.6429L105.553 67.9993L103.085 73.016L102.848 76.5665L103.294 76.4668" stroke="black" stroke-width="2.75" stroke-linecap="round" stroke-linejoin="round"/>
<path d="M112.532 65.5658L112.114 65.6356L111.958 66.4035L112.724 66.6728L111.299 70.2233L111.888 71.9289L113.166 71.3803" stroke="black" stroke-width="2.75" stroke-linecap="round" stroke-linejoin="round"/>
<path d="M117.048 63.8903L115.711 69.0666L116.978 71.8691" stroke="black" stroke-width="2.75" stroke-linecap="round" stroke-linejoin="round"/>
<path d="M119.425 67.1516L119.068 68.5579L119.647 72.5673L120.725 73.6144L121.545 72.8166" stroke="black" stroke-width="2.75" stroke-linecap="round" stroke-linejoin="round"/>
<path d="M101.218 48.8503L101.326 48.3815L100.52 48.1022L100.007 48.8602L97.411 50.3063L94.746 54.5151L95.181 54.9441L94.666 55.8417L95.211 56.9587L94.693 58.2552L95.24 59.0531L95.145 59.8011L97.72 62.9229L99.667 63.4016L103.36 63.1922L106.897 61.3669L109.797 57.4674L110.216 56.111L109.827 54.7346L110.333 53.4181L109.406 51.7824L107.797 50.845L107.237 49.7777L106.019 48.9799L102.648 47.8529L98.99 48.581L96.652 51.1641L96.225 56.8689L96.939 57.9161L97.077 59.4321L99.73 62.4541L105.235 63.4714L107.002 63.3418L109.488 61.3471L110.521 61.0678L112.6 59.1828L113.921 55.7818L113.465 54.2658L113.971 53.2486L113.975 51.4134L113.385 49.5184L112.719 49.1993L113.035 49.0896L112.444 48.2817L110.273 48.0523L104.836 49.6381L103.841 50.3961L104.239 50.9746L103.656 51.7724L103.028 51.8323L102.919 50.6853L102.287 50.3363L102.606 50.6754L101.44 51.3536" stroke="black" stroke-width="2.75" stroke-linecap="round" stroke-linejoin="round"/>
<path d="M110.757 56.6793L108.166 57.4373L110.754 56.9586L114.057 54.7046L116.03 54.3456L118.469 54.8941L119.934 56.0211L119.798 56.7491L120.283 57.178L119.958 57.0284L120.738 56.8688L119.621 56.809" stroke="black" stroke-width="2.75" stroke-linecap="round" stroke-linejoin="round"/>
<path d="M123.685 54.4254L121.388 55.8217L120.27 55.8117L119.08 57.0085L117.956 61.5165L118.788 63.2419L121.489 64.4986L124.957 64.8876L128.703 64.2493L130.498 62.9029L132.382 60.1701L132.987 57.8064L132.764 56.9287L130.876 54.2857L126.195 52.5404L122.164 52.69L117.683 54.3456L117.722 55.9114L117.175 56.3204L117.474 56.7592L116.875 57.8762L117.303 61.0578L119.98 63.8205L122.14 64.8776L126.745 66.0146L128.25 65.8849L130.191 64.4388L132.545 60.3596L132.732 57.2878L132.06 54.3855L132.278 53.089L130.936 51.2239L128.47 49.698L124.033 49.2192L119.342 50.7751L118.245 50.426L116.584 53.6574L116.461 54.186L117.695 56.0311L118.432 58.1655L122.124 62.4341L126.601 64.2393L128.83 64.5585L131.611 62.9228L133.016 60.9481L134.952 55.2433L133.537 51.7226L132.178 50.7651L130.602 48.531L127.555 46.7757L124.111 46.4666L122.869 47.0151L121.062 49.0197" stroke="black" stroke-width="2.75" stroke-linecap="round" stroke-linejoin="round"/>
<path d="M85.8453 53.5077L84.9313 53.767L85.2623 53.3282L84.9923 52.9592L84.3223 53.5776L86.3883 54.156L85.8643 54.2259L87.1923 55.0536L92.5713 57.0384L96.7593 57.567L97.4133 58.0058" stroke="black" stroke-width="2.75" stroke-linecap="round" stroke-linejoin="round"/>
<path d="M131.457 55.7917L130.012 56.6594L130.118 57.0284L130.546 56.9886L130.288 56.7093L131.146 56.9088L138.01 53.5577L140.222 53.3083" stroke="black" stroke-width="2.75" stroke-linecap="round" stroke-linejoin="round"/>
<path d="M101.504 54.6547L101.286 53.6873L100.881 53.7173L100.591 53.069L100.696 53.807L99.2355 54.4753L93.6055 60.579L95.9365 59.6614L99.1445 56.2904L100.718 55.2432L101.18 54.3057L103.09 53.3383L98.1055 62.3842L98.4365 63.0425L101.535 60.7785L105.294 56.5697L105.786 54.9839L102.689 58.9633L101.053 62.1149L101.055 63.2619L101.963 63.5012L105.042 61.5265" stroke="black" stroke-width="2.75" stroke-linecap="round" stroke-linejoin="round"/>
<path d="M122.134 53.1388L121.828 54.6348L119.684 58.8736L127.198 55.1535L127.647 55.2433L126.682 55.6123L126.796 56.6994L125.311 59.9807L125.463 60.4992L125.784 60.3596L125.396 60.0106L128.979 58.0159" stroke="black" stroke-width="2.75" stroke-linecap="round" stroke-linejoin="round"/>
<path d="M124.677 93.5016L124.359 93.9535L124.668 93.9246L124.335 93.8958L124.655 94.0304L124.592 94.6843L124.925 95.2613L124.298 95.7036L124.817 97.2517L124.343 98.2326L124.305 99.1077L124.535 99.2135L123.98 99.7328L124.285 100.06L124.123 100.608L124.488 101.377L124.289 101.935L124.648 102.146L124.354 102.079L124.14 102.454L124.552 102.646L124.184 103.877L124.529 104.358L124.275 105.05L124.638 105.089L124.222 105.406L124.543 105.493L124.302 105.877L124.903 106.329L124.373 106.397L124.694 106.454L125.328 107.579L124.939 107.878L125.714 108.166L125.449 108.31L125.844 108.868L125.653 109.406L126.125 109.474L126.185 110.435L125.786 110.801L126.559 110.964L126.751 111.82L127.477 111.935L127.423 112.128L128.606 112.609L128.568 112.849L130.406 113.234L131.123 113.907L133.032 114.609L133.426 115.215L134.824 115.484L134.591 115.57L134.646 116.042L136.383 116.561L136.43 117.205L136.793 117.272L136.577 117.445L137.559 118.321L138.404 118.455L140.857 119.994L143.83 121.263L144.371 122.08L144.904 122.09L144.571 122.244L145.892 123.417L146.045 123.879L147.14 124.388L147.284 125.1L148.5 125.917L148.996 126.715L150.59 127.254L150.1 127.283L151.336 128.446L151.015 128.716L151.773 129.542L151.856 130.658L152.405 130.975L152.44 131.523L152.843 131.648L152.922 132.12L154.92 134.697L154.563 135.197L155.884 136.745L155.555 136.918L155.568 137.485L156.698 138.755L156.883 139.639L158.152 141.947L158.089 142.611L158.708 143.14L158.608 143.88L159.001 144.149L159.117 145.284L160.044 147.12L159.875 147.457L160.507 148.284L160.376 149.313L160.739 149.467L161.103 150.102L160.911 150.236L161.762 151.15L161.596 151.419L162.253 152.063L162.256 152.881L163.395 155.89L163.185 156.044L163.666 156.679L163.347 157.092L163.633 157.419L163.47 158.16L164.01 159.612L164.286 159.708L163.986 160.045L164.034 160.66L164.529 161.323L165.406 164.266L165.907 164.756L165.574 164.997L165.732 166.381L166.271 168.035L166.735 168.314L166.463 169.737L167.613 173.036L167.492 173.459L167.876 173.786L167.143 174.238L168.069 174.68L167.804 174.872L168.127 175.228L167.995 175.69L168.42 177.228L168.237 177.575L169.028 180.863L168.891 181.584L169.722 182.171L169.794 182.661L169.288 183.267L170.014 185.758L169.776 185.921L170.362 186.835L169.93 187.296L169.964 187.7L170.375 187.979L170.667 190.162L170.963 190.306L170.675 190.873L171.14 191.22L170.694 191.441L170.947 191.758L170.643 192.393L171.612 193.104L171.057 193.864L171.672 194.633L170.965 194.807L171.546 194.893L171.682 196.278L171.433 197.037L171.794 197.836L171.368 197.96L171.739 197.807L171.632 198.374L172.078 198.461L171.701 199.586L171.984 199.566L171.75 199.778L172.243 200.278L171.621 200.316L172.267 200.374H171.956L172.024 200.73L172.456 200.922L171.723 200.932L172.297 200.942L171.95 201.047L172.311 201.566L171.892 201.653L172.079 202.595L171.697 202.72L172.426 202.999L172.181 203.124L172.301 203.692L172.054 203.596L172.376 203.624H171.874L172.39 203.98L172.341 204.432L172.001 204.423L172.525 204.269L172.027 204.288L172.355 204.413L172.478 204.999L172.345 205.971L172.602 206.278L172.36 206.346L172.887 206.442L172.221 206.452L172.733 206.24H172.383L172.357 205.451" stroke="black" stroke-width="2" stroke-linecap="round" stroke-linejoin="round"/>
<path d="M95.7591 97.1718L96.0491 97.0621L95.7621 96.9424L95.7721 96.4937L95.6221 96.9724L96.2061 97.3014L95.5842 97.1618L95.7941 97.0222L96.4101 98.1492L96.1051 98.249L96.6751 98.3287L96.4771 99.8747L96.8951 99.8945L96.2411 99.9045L96.2531 99.6652L96.5471 99.7848L96.6561 100.603L96.6281 101.8L96.1641 102.308L96.4801 102.877L96.2061 104.193L95.7271 104.732L95.7672 105.669L95.3761 105.968L95.5391 107.425H95.2741L95.6991 107.474L94.8691 109.429L95.4411 109.768L95.1671 110.078L95.2262 110.157" stroke="black" stroke-width="2" stroke-linecap="round" stroke-linejoin="round"/>
<path d="M61.7447 151.029L61.4517 151.728L60.5671 152.655L60.6041 153.383L59.9062 154.168L60.1935 154.49L59.6171 154.981L59.4056 155.965L58.0441 158.386L57.8431 159.416L57.2591 159.87L56.4854 164.135L55.3675 166.083L53.6514 171.87L53.0778 172.797L53.1631 173.837L52.7469 174.698L52.8133 175.274L52.4568 175.426L52.6815 176.078L52.0244 177.232L51.6063 179.284L51.4963 181.497L50.8487 181.837L50.7207 183.341L49.9129 185.582L49.9584 186.395L49.0615 188.154L49.3469 188.343L48.924 189.449H49.2701L48.9904 189.459L49.0492 191.416L48.3921 192.579L48.7619 193.014L47.9256 196.579L47.9541 197.591L47.48 198.612L47.6867 199.189L46.8647 201.638L47.0164 202.433L46.7803 202.972L46.4522 202.887L46.0815 203.804L46.2664 204.173L45.8521 205.213L45.926 206.083L45.4453 206.452H45.7535L45.5278 206.376L45.7563 206.121L45.4946 206.225L45.798 206.291L45.5572 206.054L46.2673 204.191L46.2958 203.265" stroke="black" stroke-width="2" stroke-linecap="round" stroke-linejoin="round"/>
<path d="M97.741 93.2689L96.1292 94.0231L96.401 93.3644L95.4248 93.2022L95.6382 92.8585L95.4219 92.7535L95.644 92.8012L95.1826 92.8775L95.6957 93.2213L95.4841 93.3739L95.8191 94.949L95.5693 95.999L96.0259 97.2782L95.6564 97.889L95.9991 98.8435L95.8612 99.4927L96.2087 99.5405L95.8679 99.6072L96.1847 100.123L95.8794 100.209L95.4487 101.574L95.3712 103.177L94.9281 103.846L95.1693 104.094L94.438 104.876L94.4132 105.659L94.0801 105.86L94.1155 106.967L93.8638 106.891L93.4254 109.029L92.586 109.382L92.8253 109.611L92.3381 109.821L92.52 110.031L92.0644 110.403L92.2396 110.938L91.1169 112.885L90.4144 113.544L90.6556 113.964L89.4133 115.291L89.2659 116.178L87.0617 119.395L87.4991 119.519L86.8387 119.834L86.1639 121.133L84.9991 121.62L85.0738 121.954L84.1779 122.965L83.7051 123.061L83.4228 123.719L82.4781 124.197L82.3547 124.779L80.7525 125.657L80.4625 126.335L76.4312 129.122L76.4656 129.399L74.7773 130.211L73.3216 131.976L73.3761 132.244L72.6564 132.11L71.4256 132.501L68.9314 134.153L66.6908 137.198L65.928 138.888L64.4636 140.52L63.8463 141.77L63.7927 142.563L62.3819 143.937L61.933 144.93L61.4545 146.791L61.5244 147.927L60.6362 149.464L60.1193 151.774L59.3479 152.528L58.1573 156.318L57.1045 158.074L57.5888 158.217L57.3141 158.265L56.5848 159.917L56.5695 160.613L56.8595 160.785L56.2929 161.921L55.2669 166.417L55.4095 167.706L54.4045 168.861L54.684 169.596L54.1662 170.35L53.8398 171.877L53.3603 172.192L53.2924 173.147L52.6683 174.531L52.9832 174.932L52.4721 175.419L52.0328 176.621L51.739 178.712L51.3102 179.695L51.7486 179.943L51.4471 180.086L50.8766 183.408L50.5857 183.771L50.9829 184.907L50.3206 186.415L50.7637 187.284L50.0315 188.353L50.1617 188.658L49.6573 189.728L49.7157 190.835L49.442 190.825L49.7788 190.94L49.5625 191.217L49.7626 191.847L49.3261 191.971L49.5807 192.333L49.3616 194.328L48.7653 195.426L48.9155 196.839L48.5021 198.051L48.749 200.476L48.1422 201.936L48.3547 201.908L48.2733 202.423L47.746 204.17L48.2733 204.695L47.7402 204.991L48.0379 205.812L47.5 206.451L47.8771 206.194L47.5383 206.089L48.7079 205.669" stroke="black" stroke-width="2" stroke-linecap="round" stroke-linejoin="round"/>
<path d="M104.539 73.2054L102.72 73.4548H103.123L102.944 74.143L101.717 76.4568L101.131 79.5785" stroke="black" stroke-width="2" stroke-linecap="round" stroke-linejoin="round"/>
<path d="M105.445 72.3477L105.098 73.1855L105.386 73.7739L104.112 75.0506L104.321 78.9103L103.75 80.3564L104.357 82.1517" stroke="black" stroke-width="2" stroke-linecap="round" stroke-linejoin="round"/>
<path d="M105.37 72.0586L104.478 73.5944L104.462 75.3598L102.957 79.8379L103.902 81.0746L103.625 81.4137L104.812 81.3838" stroke="black" stroke-width="2" stroke-linecap="round" stroke-linejoin="round"/>
<path d="M108.014 71.9688L107.241 73.2354L106.737 76.3771L106.065 78.302L105.99 79.5487L106.232 79.9177L106.693 79.4988" stroke="black" stroke-width="2" stroke-linecap="round" stroke-linejoin="round"/>
<path d="M109.984 70.722L109.224 71.879L108.719 75.1204L107.527 78.1224L107.686 78.8105L107.375 79.6484L108.156 80.2368L109.021 79.2195" stroke="black" stroke-width="2" stroke-linecap="round" stroke-linejoin="round"/>
<path d="M111.843 71.879L111.227 72.5473L110.811 75.4695L109.953 77.4941L109.814 79.4389L110.338 79.2195L110.544 77.9928" stroke="black" stroke-width="2" stroke-linecap="round" stroke-linejoin="round"/>
<path d="M112.59 73.0459L111.588 75.2899L111.697 76.1776L111.107 77.7533L111.266 78.3517L110.818 80.3764L111.039 80.8551L112.488 79.0898L114.051 75.3896L113.704 77.863L112.94 78.621L113.425 79.4787L112.891 80.0971L113.616 80.0273L113.39 79.9774L113.505 79.6583L116.589 73.6243L116.778 73.8139L116.333 76.3072L115.175 79.6981L115.312 80.6756L116.046 79.6783L118.362 74.0632L117.221 77.1948L117.088 80.0771L116.82 80.4761L117.265 80.137L117.367 79.04L118.626 76.8557L119.24 74.133L119.699 73.4747L119.317 74.2926L118.919 78.3019L118.197 80.1171L118.747 81.1444L118.888 80.0771L119.621 79.2394L119.828 77.6836L120.677 76.0279L120.884 74.861L121.668 73.6243L121.78 74.2227L121.238 75.1103L121.518 77.0153L121.01 78.3817L120.869 80.4861L121.17 80.177L120.812 79.8877L120.941 79.6881L122.035 78.7707L122.912 75.3397L122.645 75.7886L123.246 76.736L123.166 78.5014L123.601 78.9401L123.848 78.9003L123.59 78.4316L124.503 76.2673L124.596 74.6316L124.98 75.24L124.741 75.2799L125.029 75.609L124.888 76.4867L125.768 77.145L125.233 77.6736L125.521 77.7434L125.081 77.6137L125.476 77.105L125.241 76.0777L125.209 77.9129L125.631 77.3743L125.326 77.0453L125.111 75.4594L124.774 75.2999L125.136 74.6516L124.563 72.6269L124.265 72.9262L124.645 74.2826L123.905 75.2699L123.921 75.5492L124.14 75.4494L123.802 75.3197L124.358 74.472L124.554 71.839L124.316 72.1582L124.681 71.9488L124.544 71.3403L124.127 71.2905L124.099 71.5299L124.938 71.6595L123.778 73.5943L123.132 75.7586L123.304 75.9182L122.955 75.988L123.584 75.6489L123.767 73.9833L124.616 74.7413L124.292 75.2899" stroke="black" stroke-width="2" stroke-linecap="round" stroke-linejoin="round"/>
<path d="M99.0137 26.8685L101.014 27.8659" stroke="black" stroke-width="2" stroke-linecap="round" stroke-linejoin="round"/>
<path d="M96.2812 17.7727L96.5143 19.6178L98.5452 26.7688L98.9603 27.1976L98.8353 27.6066L99.7253 28.0355L99.9973 27.6864" stroke="black" stroke-width="2" stroke-linecap="round" stroke-linejoin="round"/>
<path d="M102.066 19.169L102.412 19.4284L101.182 27.5069L101.722 27.8759L104.6 21.3134L105.353 16.6557L104.998 15.8977L104.769 16.0873L105.098 16.566L104.523 17.3837L104.126 23.2082L104.921 27.5368L106.125 25.5122L108.407 16.7854L106.051 22.3007L105.766 23.9164L104.786 25.5521L104.794 27.2076L105.36 27.5966L105.328 26.8686L108.197 20.0965L109.006 16.556L109.337 16.8053L106.97 24.6944L107.218 28.4942L109.86 22.5899L110.948 17.6031L110.458 18.2714L110.614 19.6477L109.602 22.0714L108.558 27.7662L108.828 27.8659L109.206 27.4072L113.264 16.5859L113.07 18.0121L112.037 19.3884L111.295 21.7721L111.005 26.4198L113.098 23.1884L115.59 18.1917L115.859 17.0547L116.368 16.8053L115.838 17.2641L115.822 17.6231L116.21 17.8924L115.773 18.8498L115.244 23.3081L114.5 25.0734L114.58 26.3299L114.24 26.8486L114.267 27.3075L114.559 27.4171L117.087 22.58L119.56 14.272L119.465 13.6437L119.527 14.2023L118.47 15.4888L117.353 18.2315L115.468 24.4849L115.475 24.9038L116.014 24.6145L117.991 22.3107L118.605 20.7149" stroke="black" stroke-width="2" stroke-linecap="round" stroke-linejoin="round"/>
<path d="M119.023 17.7827L118.395 18.2514L117.418 22.2109L115.48 25.9609L115.712 28.6439L116.838 27.4271" stroke="black" stroke-width="2" stroke-linecap="round" stroke-linejoin="round"/>
<path d="M121.664 18.1617L118.908 23.8665L118.734 25.8015L117.934 28.225L118.463 28.3446L118.197 28.1851L118.805 27.7662L119.099 26.7289L121.564 23.7868L122.477 21.9417L125.172 18.1418L122.329 22.9988L121.641 24.9438L120.282 26.6292L120.051 27.7363L120.285 28.1752L122.511 24.3452L127.186 18.3313L128.12 16.3167L125.226 21.6025L122.456 25.5721L122.162 27.7862L122.662 27.5866L126.114 22.9689L127.109 22.1112L129.516 17.9623L124.789 25.3725L124.321 26.6592L129.948 20.4855L130.434 19.3685L131.41 18.8998L127.257 25.0435L126.667 26.4896L125.711 27.5468L125.986 27.836L132.016 21.3632L132.94 20.7149L133.324 19.7874L133.724 19.6278L133.56 20.0268L128.586 25.5919L127.986 26.8386L128.21 27.4969L127.93 27.6266L128.675 26.5395L134.972 21.0241L135.575 19.5181L136.584 18.431L136.858 18.5906L131.03 25.4225L128.019 29.9305L128.314 30.0402L132.678 26.2003L136.595 22.4602L137.085 21.5727L137.948 21.0939L138.455 21.0341L138.542 21.3632L134.918 25.7915L132.86 29.7409L132.294 29.7709L135.371 27.1279L139.011 23.1285L140.567 22.5601L135.675 26.7189L130.358 32.5336L129.865 33.6804L129.451 33.9597L129.902 33.9398L130.324 33.0123L133.066 31.227L136.77 27.9856L137.73 26.7689L138.814 26.1106L132.025 33.8301L131.713 34.6579L137.364 30.1699L138.691 29.5415L138.89 29.2423L138.511 29.2023L137.833 30.3393L135.124 32.9324L134.561 33.7204L134.853 33.88L137.123 31.3467L140.175 29.0129L137.41 31.626L135.039 34.638L135.378 34.628L135.835 33.7703L137.204 32.8826L137.358 32.364L139.584 31.4066L137.6 32.364L137.34 33.132L136.204 34.4284L136.093 35.0867L136.608 34.4584L137.508 34.3487L139.193 32.8627L138.216 33.0323L138.736 33.3214L138.53 33.7204L135.612 36.7823L137.691 35.7151L139.176 34.4784L139.914 34.3687L138.569 35.9544L138.29 37.4704L135.823 39.3854L135.931 39.884L137.6 38.2484L138.794 37.63L139.025 37.0217L140.809 36.0941L141.607 35.1366L139.008 38.3581L139.076 38.8368L137.568 39.9438L138.993 38.8368L140.5 38.5575L142.209 37.5601L143.068 36.5828L140.61 39.6645L138.444 41.6394L138.705 42.0582L138.023 42.1579L138.266 42.3974L138.083 42.1481L139.723 41.7591L140.906 41.0808L140.93 40.5024L141.544 40.4824L138.733 44.6912L137.336 46.2172L137.822 46.1275L137.562 45.9279L137.735 45.7185L139.289 45.5589L139.083 45.2996L140.581 44.6215L137.946 47.1946L137.249 48.3615L139.462 48.5112L141.504 48.0922L139.472 49.6082L138.135 51.1242L137.868 51.0843L139.899 49.7578L140.31 48.7405L141.606 47.8927L141.294 47.8429L141.508 48.0523L139.54 51.2139L136.559 53.6873L139.932 51.6327L141.081 50.6255L140.488 50.6554L140.863 50.8649L140.811 51.194L136.496 55.4127L139.371 52.281L140.05 51.4134L139.719 51.553L139.465 52.5204L135.723 55.8914L136.064 56.2007L136.419 56.0411L136.405 55.6221L137.005 55.5025L136.62 55.3728L137.5 55.2531L137.129 55.0936L137.209 54.8243L136.829 56.1208L137.16 55.9014L136.803 55.4127L137.729 55.4826L134.992 59.6814L138.384 56.9088L139.059 56.8888L138.906 57.208L137.359 57.4773L137.207 58.1057L135.454 59.7712L135.384 60.5491L134.801 60.7187L138.045 57.587L137.157 59.103L135.406 61.0777L134.256 63.5911L133.909 63.8105L134.687 63.0125L135.296 62.8829L137.608 60.3695L137.243 61.0877L136.43 61.4168L136.671 61.5565L135.817 62.2745L135.826 62.8131L135.028 64.3091L136.809 63.0824L136.437 63.3018L135.618 65.2366L135.164 65.5558L136.416 65.2466L135.987 65.2168L136.038 64.5983L137.605 63.1123L134.278 67.8298L133.573 68.7373L133.461 68.5179L136.339 65.3165L136.25 65.0871L137.217 64.7379L136.573 65.0272L135.942 67.1416L133.16 72.1383L133.509 72.0884L133.736 71.2706L136.117 69.9442L136.529 69.3756L136.35 69.0864L137.034 68.5179L136.268 70.4727L134.704 72.5971L134.67 73.7141L134.94 73.0659L135.729 72.7567L137.57 70.9416L138.231 70.8219L138.004 70.9016L138.308 71.4103L137.471 71.5798L137.157 73.1856L136.162 74.0233L135.743 75.2001L135.135 75.8584L135.431 76.0978L137.475 73.7341L137.286 74.2327L134.658 77.4143L133.555 79.5785L133.145 79.1895L134.103 78.7508L133.922 78.5513L134.804 77.5738L135.274 77.544L133.018 77.7035L133.587 78.8105L134.76 78.5912L135.413 77.6138L135.069 77.534L132.515 79.0898L131.273 78.661L132.295 79.2594L134.091 78.9303L133.922 78.7607L134.276 78.671L133.846 78.5712L134.281 78.7707L131.145 79.9177L130.659 80.4064L130.584 81.1145L130.005 81.4535L133.132 80.4762L134.459 79.7182L133.959 79.6882L134.109 79.8378L133.381 80.1171" stroke="black" stroke-width="2" stroke-linecap="round" stroke-linejoin="round"/>
<path d="M88.3931 79.5487L87.7741 79.7881L87.6811 80.1671L87.2961 80.0872L87.3601 79.8678L88.2281 79.5586L91.1621 79.5885L90.7471 79.6284L89.9521 78.7807L87.9071 77.923L91.0681 78.0127L92.5261 77.3047L92.7841 76.796L90.8791 75.9183L87.5511 76.1078L90.3741 75.2101L92.0861 73.8937L88.6361 73.8637L86.4421 74.7214L86.7561 74.4621L89.7661 74.5918L91.0861 74.2527L90.3391 73.8937L85.5371 73.4449L89.2391 71.6397L86.9561 70.8817L85.7291 71.121L84.7871 70.8916L85.6481 69.7946L87.1471 69.0765L88.6351 68.877L88.8551 68.5679L85.0511 67.8996L84.5781 67.4508L87.4331 66.4036L88.2561 65.7055L87.3131 64.4488L87.4451 64.2792L85.3451 64.0299L85.1601 63.5611L88.0581 63.2419L88.6431 61.8556L88.2301 61.3071L87.3871 61.3371L89.1531 61.0977L90.1501 60.5391L89.4871 60.5691L88.5551 59.8709L86.1771 59.7712L86.3051 59.3622L85.4111 58.8635L86.1171 58.8237L86.0211 59.1828" stroke="black" stroke-width="2" stroke-linecap="round" stroke-linejoin="round"/>
<path d="M84.3972 48.0223L84.4602 48.4712L84.2732 48.4013L84.7092 48.3715L85.1092 49.1195L87.5332 49.279L88.5212 48.91L88.5552 47.9126L88.8532 47.6035L88.7592 47.1348L86.4802 45.2996L84.7632 45.1301L85.2602 45.1599L84.7122 45.6388L85.7192 47.035L87.0302 47.1646L87.1352 45.8182L83.8672 41.1407L86.8552 42.7464L88.8762 43.0655L90.3392 42.8761L90.3102 41.5695L88.3052 38.8468L85.8222 37.241L85.6702 37.4604L86.0842 37.5004L85.9962 37.8095L86.8192 39.0861L88.5172 40.652L89.9712 41.1407L89.4152 40.4824L89.4662 39.3854L88.8532 38.0987L88.7872 36.9318L86.8302 34.4186L88.1262 36.9518L90.8212 39.1161L90.8532 38.1685L89.1882 34.7676L88.6232 32.5236L88.5332 33.0422L89.0792 33.501L89.7932 35.0867L91.3162 37.0217L92.1422 37.6101L91.8482 37.8095L92.1142 37.5901L91.5642 37.3308L91.7942 36.7823L91.4542 34.2789L89.2782 31.4265L88.0162 29.0129L88.6722 29.5415L90.5802 32.733L91.7892 33.082L91.2252 32.9424L91.4152 32.5535L91.0932 30.818L88.6772 26.0109L88.4002 23.9165L88.7162 24.4549L88.3872 24.9338L90.0292 26.4996L90.8062 28.6738L92.5332 31.2669L92.4532 30.6984L92.1632 30.5787L92.7572 29.3122L92.3832 26.0109L91.1022 23.0787L91.2662 22.9291L91.3772 23.2382L91.0312 23.4477L92.4782 25.9909L94.0922 27.6465L94.1092 28.6139L94.6942 28.7536L94.4992 27.8559L94.8802 26.4996L94.2562 23.5375L93.6192 21.8718L92.8032 20.8247L92.9122 20.0467L92.5542 19.9071L92.8462 21.6325L94.0242 23.8068L94.3512 25.3725L95.6222 27.1778L95.3222 26.8686L95.5572 23.2682L94.1642 20.5354L93.9952 18.7601L93.5752 18.062L93.5212 18.4908L94.1502 19.3984L94.3432 20.9444L95.5912 23.5075L97.0922 25.5022L97.4782 27.1578L98.3262 24.3852L98.1902 22.9689L98.5872 20.9942L97.8342 20.0767L97.6612 18.421L97.0422 18.3512L97.8242 19.6178L97.4662 20.8445L97.6252 21.4131L101.16 27.078L101.352 23.0288L101.13 20.5654L100.754 19.6078L100.992 19.7974L100.921 20.685L101.628 21.4829L101.496 22.2109L102.272 22.7295L104.266 25.1631" stroke="black" stroke-width="2" stroke-linecap="round" stroke-linejoin="round"/>
<path d="M91.5238 69.1263L90.3658 70.1836L90.6398 69.9741L90.2798 70.4827L90.3628 70.9416L89.7148 72.0187L89.6578 73.385L88.3818 75.7987L85.2578 79.8878" stroke="black" stroke-width="2" stroke-linecap="round" stroke-linejoin="round"/>
<path d="M93.0853 72.0984L92.5573 73.0957L90.2483 75.4097L88.6753 77.5041L88.3613 79.2494L88.6363 78.7508" stroke="black" stroke-width="2" stroke-linecap="round" stroke-linejoin="round"/>
<path d="M91.8549 75.7087L89.8699 78.0625L89.1719 79.8777L88.2299 80.9648L88.1669 81.7927L87.8789 81.9223L88.5589 81.8025L89.3029 80.2367" stroke="black" stroke-width="2" stroke-linecap="round" stroke-linejoin="round"/>
<path d="M92.685 76.1177L92.076 77.5638L89.643 80.4362L88.402 82.8897L88.49 83.5181L88.084 83.6775L88.919 83.5778L89.345 83.1091" stroke="black" stroke-width="2" stroke-linecap="round" stroke-linejoin="round"/>
<path d="M92.468 80.4362L90.882 81.8125L89.136 84.2959L88.798 84.8445L88.795 86.1611L88.709 85.3332L89.546 84.5054L90.197 83.1889" stroke="black" stroke-width="2" stroke-linecap="round" stroke-linejoin="round"/>
<path d="M91.9114 79.1797L91.6914 79.6085" stroke="black" stroke-width="2" stroke-linecap="round" stroke-linejoin="round"/>
<path d="M90.2528 73.1257L89.6458 71.6496L89.4848 71.4003L89.3418 71.6296L89.8998 78.5313L90.5578 80.0174L90.4308 81.5832L90.6988 82.4011" stroke="black" stroke-width="2" stroke-linecap="round" stroke-linejoin="round"/>
<path d="M89.875 73.6642L90.086 72.1682L89.915 72.7566L90.575 78.8006" stroke="black" stroke-width="2" stroke-linecap="round" stroke-linejoin="round"/>
<path d="M89.2495 66.8823L88.5535 66.8523L88.4525 67.2613L88.3895 71.4502L88.7825 74.8113L89.5225 77.2947L90.0905 78.0027L89.7765 77.175L90.4435 74.7913L90.4355 73.1257L89.4345 67.8896L88.6385 66.1642L87.7015 65.8949L87.2755 66.2041L86.8535 67.8896L87.1255 68.6476L87.2425 73.7341L88.3725 79.1797L88.4935 81.6331L89.2575 84.5155L89.4175 86.8193L89.6795 85.9516L89.5395 84.1963" stroke="black" stroke-width="2" stroke-linecap="round" stroke-linejoin="round"/>
<path d="M90.4152 77.5837L90.3582 81.7527L90.6072 83.1291L90.3242 86.8392L90.6982 87.3778L91.1302 86.1611" stroke="black" stroke-width="2" stroke-linecap="round" stroke-linejoin="round"/>
<path d="M92.3834 78.3818L91.5074 80.0174L91.9824 81.4735L91.7054 83.3086L92.6694 87.3879L93.7484 89.6419L94.3214 87.7469L94.1124 85.2735L94.7064 80.6258L94.4824 79.7282L93.5754 78.681L93.7214 79.2794L93.2134 79.9975L93.4364 80.4662L92.9684 81.7229L93.9754 89.3526L94.6654 90.0209L95.0144 83.4583L94.1794 78.5314L93.8864 78.3119L93.5374 78.4117L94.8734 86.0513L94.8964 87.8167L94.6484 88.2156L94.9294 88.5149L95.0734 88.2156L94.3074 87.5275L94.0624 86.2708L92.7224 83.2089L92.6354 81.1544L91.8664 80.1869L92.0174 79.9476L91.6404 80.0772L91.0234 83.4982L91.4174 87.9663L90.9494 91.836L91.1864 92.1651L91.5694 90.8087L91.4414 88.1459L89.9314 83.6478L89.5744 81.5135L89.2174 81.5533L88.5964 84.2262L88.4434 88.824L88.9594 90.0308L88.9914 90.4497L88.6244 90.709L89.0234 90.3999L89.0944 89.552L88.6934 88.6046" stroke="black" stroke-width="2" stroke-linecap="round" stroke-linejoin="round"/>
<path d="M87.8175 77.2247L87.8055 75.978L87.3355 76.6163L87.4835 77.4441L86.9375 80.3564L87.2355 83.0094L88.3005 87.7768L88.6185 87.4376L88.4495 87.0586L88.8045 85.4329" stroke="black" stroke-width="2" stroke-linecap="round" stroke-linejoin="round"/>
<path d="M130.7 75.7487L130.404 76.8657L130.54 81.8125L131.102 86.0214L130.904 87.8266L130.523 88.0559L131.215 87.6271" stroke="black" stroke-width="2" stroke-linecap="round" stroke-linejoin="round"/>
<path d="M129.884 75.0506L130.694 75.6789L129.795 77.2747L129.668 78.7607L130.765 82.8299L130.292 84.2461L130.442 86.2009L129.766 86.4602L130.111 85.0739L130.396 79.1297L130.028 81.0745L130.201 83.4482L130.658 85.0341L130.248 87.0288L130.987 87.5773L130.896 86.9988L131.633 84.9044L132.793 72.228L132.587 80.905L133.753 83.6577L133.664 86.6099L133.985 87.4177L134.698 83.5978L134.358 82.7102" stroke="black" stroke-width="2" stroke-linecap="round" stroke-linejoin="round"/>
<path d="M134.805 75.4894L135.116 75.8384L134.645 76.8458L134.668 77.554L135.931 78.4814L136.176 79.0998L136.018 80.1371L136.435 81.0147L136.093 80.7953L137.107 77.6836L136.915 70.8019L136.691 70.9315L136.921 72.3179L136.347 74.7214L136.267 77.0154L137.404 82.0221L137.1 86.3006L137.348 88.4051L137.592 88.2056L137.369 87.7069L138.444 80.5061L138.264 79.6284" stroke="black" stroke-width="2" stroke-linecap="round" stroke-linejoin="round"/>
<path d="M137.791 69.7446L137.895 72.6469L139.348 77.0552L139.603 78.5313L139.162 79.0798L139.414 79.0997L139.832 77.9428L139.179 75.24L139.588 67.6602L139.447 69.6349L139.809 70.0936L140.334 73.1655L139.928 74.4422L139.112 75.1603L139.441 75.3497L139.22 75.1203L139.55 73.704L139.307 72.1882L139.61 70.4528L139.362 69.4255L139.796 69.6848L139.52 74.6117L139.791 74.482L140.301 75.1902L140.163 76.0678L139.628 76.3072" stroke="black" stroke-width="2" stroke-linecap="round" stroke-linejoin="round"/>
<path d="M93.1972 101.45L92.4942 101.431L92.8242 101.56L92.0792 101.65L91.6962 102.308L91.4222 102.228L90.8042 102.887L91.0582 102.976L90.6782 102.946L90.4082 104.004L91.0002 104.343L90.6152 105.171L91.3832 105.929L91.9182 107.834L92.5192 107.863L92.2552 108.053L92.9862 108.821L93.9272 109.14L93.8102 109.34L95.9022 109.639L96.7222 110.197L98.5332 110.147L99.3962 110.576L106.318 110.816L108.149 110.367L112.644 110.855L115.808 110.796L118.246 110.267L120.395 110.437L121.813 110.117L122.432 109.549L128.447 108.572L129.505 107.794L128.895 107.734L129.524 107.554L129.78 106.128L129.342 105.599L129.471 104.133L128.496 103.475L128.699 103.525L128.482 102.917L128.693 102.847L128.311 102.248L128.706 102.069L127.78 102.159L128.112 102.119L127.472 101.79L127.78 101.73L126.985 101.65L126.721 101.381L127.2 101.251L126.947 100.902L127.178 100.772L126.452 100.912L126.937 101.022L126.056 100.822L126.857 100.682L125.998 100.852L126.412 100.902L126.129 100.952L126.219 101.341L126.831 101.5L127.359 101.929L127.243 102.139L126.97 102.059L127.78 101.411L127.657 100.852L127.39 101.141" stroke="black" stroke-width="4" stroke-linecap="round" stroke-linejoin="round"/>
<path d="M90.9029 111.564L90.6379 111.613L90.4629 110.686" stroke="black" stroke-width="4" stroke-linecap="round" stroke-linejoin="round"/>
<path d="M89.3862 109.32L89.6662 109.26L89.1462 109.389L89.3012 109.12L89.8062 109.08L89.1172 109.19L89.4502 109.28L89.0762 109.679L89.5552 110.726L89.3652 112.601L90.5042 115.024L91.5472 116.002L96.6242 118.595L104.297 120.989L105.687 122.235" stroke="black" stroke-width="4" stroke-linecap="round" stroke-linejoin="round"/>
<path d="M111.731 118.136L110.98 118.585L115.546 117.458L118.262 117.508L120.161 116.65L122.255 116.321L124.522 115.084L125.151 115.373L126.461 115.353L126.832 114.925L126.461 114.984L128.296 113.877L128.629 112.72L128.96 112.88L129.168 112.471L129.574 112.551L128.989 112.591L129.457 112.641L129.902 112.022L129.351 111.972L130.498 111.623L130.495 110.846L130.937 110.985L130.483 110.865L130.919 110.297L130.7 109.898L131.078 110.137L130.38 110.437L130.615 110.536L130.592 111.185L131.075 111.344L131.215 112.95L130.905 113.488" stroke="black" stroke-width="4" stroke-linecap="round" stroke-linejoin="round"/>
<path d="M133.84 115.403L130.454 117.039L131.115 117.029L131.764 117.428L130.954 118.016L131.163 118.864L130.873 119.333L129.706 120.849L127.72 122.115L127.422 122.883L126.457 123.402L125.14 124.958L125.043 124.709L124.688 124.818L126.008 124.838L128.653 123.572L129.939 123.292L134.129 122.943L134.616 123.332L136.809 123.841L138.123 123.512L137.937 123.342L138.018 123.791L141.049 125.477L143.692 124.729L145.68 126.763L145.635 127.282L146.405 127.87L146.355 128.219L147.178 128.469L148.419 130.104L150.975 131.471L151.146 132.229L152.155 132.887L152.939 134.283L154.144 135.38L154.976 137.405L154.913 138.063L156.073 139.609L155.589 139.719L156.04 139.828L156.099 140.427L157.368 141.863L157.182 142.192L157.726 142.422L159.262 144.785L159.489 145.374L159.301 145.803L160.672 146.75L160.777 147.987L161.306 148.705L161.126 149.224L161.979 150.231L162.704 150.54L162.118 150.949L163.377 152.814L163.666 154.829L164.13 155.826L163.596 156.534L163.99 156.993L163.701 157.452L164.198 158.329L164.038 159.137L164.478 160.234L164.28 161.082L164.73 162.069L164.863 164.623L165.352 166.238L165.146 167.545L165.698 168.353L165.885 169.739L165.51 170.447L166.189 171.903L165.896 172.711L166.574 173.728L166.342 174.825L166.652 175.344L167.273 180.889L168.008 181.418L167.555 182.625L167.977 183.532L167.87 184.759L168.588 185.836L168.062 186.604L168.309 188.968L169.118 189.187L168.51 189.616L168.885 191.012L168.406 190.374" stroke="black" stroke-width="4" stroke-linecap="round" stroke-linejoin="round"/>
<path d="M86.3131 116.939L85.5141 117.857L86.0951 117.248L85.9791 116.68L85.8251 117.009L86.2441 117.029L85.6621 117.229L85.9451 117.219L85.1391 117.967L85.2531 118.934L84.3711 119.532L84.6951 121.378L85.3321 122.445L86.3041 122.475L86.9781 122.943L88.1221 122.794L88.4521 123.143L89.6891 123.452L89.8981 123.991L91.8081 124.29L91.5471 124.469L91.6981 124.719L92.5011 125.267L93.0211 124.489" stroke="black" stroke-width="4" stroke-linecap="round" stroke-linejoin="round"/>
<path d="M94.9414 103.934L94.6944 103.904L94.8444 105.38L95.1584 106.048L95.8004 106.028L95.9174 106.387L98.8944 107.365L100.964 106.966L105.52 107.534L105.789 107.833L114.744 107.744L116.352 108.073L120.049 107.624L123.387 107.554L123.718 107.784L124.284 107.445L124.023 107.484L124.501 107.724L125.261 107.694L124.518 107.484L125.909 107.415L125.849 107.165L126.471 107.105L126.389 106.756L127.376 105.968L127.102 105.809L127.57 104.612L127.166 103.744L127.587 103.086L127.198 102.647L127.448 102.159L127.199 101.42L126.635 101.251L126.704 100.892L125.964 100.712L125.701 100.244L125.072 100.164L125.493 99.9844L124.986 99.9444L125.33 100.154L124.831 100.174L125.222 100.194L125.062 100.982L125.326 101.261L123.674 101.849L123.288 102.557L122.771 102.747L123.11 102.946L122.214 103.166L121.812 103.704L122.095 103.804L121.694 103.744L121.885 103.984L121.459 104.133L121.84 104.143L121.189 104.442L121.292 104.682L120.601 105.31L120.814 105.35L120.5 105.24L120.685 105.55L120.005 105.779L119.008 105.26L118.181 105.28L118.585 105.47L117.714 105.719L116.079 105.29L113.052 105.569L111.473 105.031L110.189 105.001L108.106 103.605H106.883L104.498 102.907L103.204 102.966L101.585 102.268L100.924 101.53L99.9764 101.56L99.8374 100.802L98.9944 100.762L99.3784 100.563L99.0034 99.725L98.5804 99.735L99.1704 99.3161L97.5134 98.1392L93.5134 98.2688L92.8594 99.3161L93.2614 100.214L93.0924 101.051" stroke="black" stroke-width="4" stroke-linecap="round" stroke-linejoin="round"/>
<path d="M82.7318 126.005L80.8548 126.165L81.6318 125.776L80.9658 126.504L80.6238 127.501L77.3718 129.476L76.8268 130.443L73.4668 132.259L71.6248 133.924L70.2668 134.034L67.4198 136.338L67.1138 137.225L65.3478 138.771L64.6868 140.088L64.8228 140.796L64.0648 141.604L62.3808 144.476L62.2238 145.314L61.7048 145.773L61.7378 146.331L61.2448 147.019L61.4718 148.396L60.8808 148.775L59.9038 151.488L59.6108 153.392L59.0898 154.28L59.1038 156.285L58.1968 157.741L58.0508 162.578L57.4858 163.785L57.4498 164.842L55.9178 168.502L56.0018 169.001L55.4508 169.609L55.4298 170.946L54.8558 171.674L54.1968 173.529L54.6538 174.097L53.7618 175.045L52.9738 179.184L53.3968 179.962L52.7988 180.83L52.2998 183.882L51.9758 184.29L52.1208 185.168L50.9668 187.612L50.9038 188.729L49.4688 190.853L49.6458 191.431L48.9178 194.084L49.2858 194.214L49.0848 197.545L48.3508 201.335L47.5408 203.559L46.4778 205.035L46.5188 205.963L46.1358 206.053L46.4248 205.235L46.1328 205.085" stroke="black" stroke-width="4" stroke-linecap="round" stroke-linejoin="round"/>
<path d="M71.3272 177.399L69.6522 187.312L69.8402 189.078L69.2872 190.235L69.5862 191.751L69.1392 193.177L69.0962 193.865L69.3472 193.955L68.8902 194.094L69.2722 194.842L68.9802 195.76L69.3872 196.039L69.0002 196.089L68.7062 197.814L68.6832 200.208L68.0442 200.816L68.0272 201.086L68.4392 201.215L68.0172 201.495L68.3472 201.754L67.7962 202.851L67.7072 204.696L67.2832 204.646L67.8222 204.457L67.3692 204.477L67.7512 204.367L67.4352 204.197L67.9402 204.337L67.4592 204.068L68.1922 203.858L67.8342 203.07L67.6352 203.33" stroke="black" stroke-width="4" stroke-linecap="round" stroke-linejoin="round"/>
<path d="M73.4146 182.022L72.0874 182.44L72.5884 181.957L71.4438 184.901L71.6515 187.168L71.264 188.301L71.2901 189.295L71.5062 191.803L71.9393 192.435L71.4671 192.88L72.1842 194.227L72.3379 196.995L71.7828 197.924L72.1647 198.528L71.9802 198.686L72.1349 198.537L71.8899 198.454L72.1181 198.491L71.7856 199.085L71.9393 199.448L71.6375 200.126L71.3469 200.107L71.549 200.117L71.495 200.841L71.1467 200.98L71.4186 200.99L71.3348 201.519L70.5804 202.364L71.1886 202.271L70.4342 202.29L70.9641 202.429L70.4565 202.327H70.7965L70.409 202.755L70.2405 203.916L70.0561 203.767L70.4817 203.823L69.9517 203.851L70.3811 204.269L69.9825 204.25L70.2507 204.241L70.0598 204.984L70.3308 204.975L69.9173 205.179L70.3839 205.151L69.9434 205.17L70.3457 205.253L70.1063 205.643L70.3476 206.117L69.8642 206.136L70.396 206.229L70.3755 205.922L69.9201 206.182L70.2619 206.452L69.8838 206.331L70.2619 205.978L70.0197 205.625L69.3342 205.792L68.9188 205.383L68.0918 205.411L68.604 205.578L70.097 204.975" stroke="black" stroke-width="4" stroke-linecap="round" stroke-linejoin="round"/>
<path d="M143.752 175.085V207" stroke="black" stroke-width="4" stroke-linecap="round" stroke-linejoin="round"/>
<path d="M146.014 180.461V206.392" stroke="black" stroke-width="4" stroke-linecap="round" stroke-linejoin="round"/>
<path d="M167.262 187.758L166.299 188.947L167.322 188.936L167.454 189.892L168.204 190.159L168.203 190.981L168.858 191.659L169.055 192.804L169.827 193.848L169.78 196.171L170.477 196.638L169.788 196.616L170.385 197.572L170.614 199.728L170.871 199.594L170.648 199.461L170.877 199.728L170.469 199.817L170.973 199.783L170.595 199.805L171.132 200.272H170.524L170.821 201.139L170.58 201.584L170.89 201.828L170.558 202.095L170.76 202.928L170.424 203.328L171.046 203.429L171.123 203.64L170.542 203.629L170.884 203.584L170.63 203.529L170.568 204.162L170.879 204.396L170.594 204.362L171.274 204.951L170.658 204.829L171.056 205.151L170.477 205.885L171.011 206.007L171.067 206.363L170.648 206.452L171.007 205.718L170.622 205.796" stroke="black" stroke-width="4" stroke-linecap="round" stroke-linejoin="round"/>
</svg>
