<svg width="240" height="234" viewBox="0 0 240 234" fill="none" xmlns="http://www.w3.org/2000/svg">
<rect width="240" height="234" fill="#FFFDFD"/>
<path d="M147.067 122.041L140.496 120.982C140.072 120.911 139.682 120.706 139.382 120.397C139.083 120.087 138.891 119.691 138.833 119.264C138.707 118.458 138.581 117.649 138.405 116.868C138.32 116.449 138.369 116.013 138.545 115.623C138.722 115.233 139.016 114.909 139.388 114.696L145.205 111.466C145.646 111.241 145.988 110.863 146.169 110.402C146.35 109.942 146.357 109.432 146.188 108.967L145.18 106.195C145.011 105.729 144.676 105.342 144.238 105.11C143.801 104.877 143.292 104.815 142.812 104.936L136.289 106.195C135.865 106.277 135.425 106.221 135.036 106.035C134.646 105.848 134.326 105.542 134.124 105.16C133.746 104.454 133.343 103.748 132.915 103.041C132.689 102.673 132.584 102.244 132.616 101.813C132.647 101.383 132.814 100.973 133.091 100.642L137.448 95.6184C137.785 95.2589 137.98 94.788 137.994 94.2949C138.008 93.8017 137.84 93.3206 137.523 92.9426L135.636 90.675C135.322 90.2937 134.876 90.0434 134.387 89.973C133.898 89.9026 133.4 90.0173 132.991 90.2946L127.274 93.7287C126.906 93.9465 126.479 94.0419 126.054 94.0011C125.629 93.9604 125.227 93.7856 124.908 93.502C124.303 92.9703 123.673 92.4412 123.043 91.9348C122.708 91.6686 122.467 91.3027 122.354 90.8901C122.24 90.4774 122.261 90.0394 122.414 89.6395L124.782 83.4037C124.983 82.9513 125.011 82.4405 124.86 81.9688C124.709 81.4971 124.39 81.0976 123.963 80.8464L121.393 79.3573C120.964 79.1138 120.461 79.0359 119.978 79.1385C119.496 79.2412 119.068 79.5171 118.775 79.9141L114.583 85.1648C114.349 85.4953 114.01 85.7372 113.621 85.8515C113.233 85.9658 112.817 85.9458 112.441 85.7947C112.441 85.7947 111.03 85.2152 109.972 84.86C109.566 84.7247 109.214 84.4638 108.966 84.115C108.718 83.7663 108.588 83.3477 108.594 82.9199L108.695 76.2558C108.724 75.7601 108.572 75.2707 108.265 74.8799C107.959 74.4891 107.52 74.2239 107.032 74.1343L104.112 73.6304C103.623 73.5458 103.12 73.6427 102.698 73.9031C102.275 74.1634 101.963 74.5691 101.819 75.0439L99.6521 81.3553C99.5131 81.7621 99.2476 82.1138 98.8945 82.359C98.5414 82.6043 98.1191 82.7302 97.6894 82.7184H95.2202C94.7911 82.7274 94.3701 82.6004 94.0175 82.3556C93.6649 82.1107 93.3989 81.7606 93.2575 81.3553L91.0907 75.0439C90.9468 74.5691 90.6342 74.1634 90.2119 73.9031C89.7896 73.6427 89.2868 73.5458 88.7979 73.6304L85.8778 74.1343C85.3894 74.2239 84.9506 74.4891 84.6443 74.8799C84.338 75.2707 84.1852 75.7601 84.2149 76.2558L84.3157 82.9199C84.3218 83.3488 84.1909 83.7684 83.9422 84.1177C83.6934 84.4671 83.3397 84.728 82.9325 84.8625C82.353 85.0892 81.0932 85.5705 80.4885 85.7972C79.7831 86.0492 78.9516 85.8476 78.2713 85.0641L74.1116 79.9393C73.8175 79.544 73.3888 79.27 72.9064 79.1693C72.4241 79.0686 71.9216 79.148 71.4938 79.3926L68.9239 80.8816C68.496 81.1281 68.1743 81.524 68.0208 81.9934C67.8673 82.4627 67.8928 82.9722 68.0924 83.4238L70.4608 89.6597C70.6107 90.0599 70.6305 90.4972 70.5174 90.9093C70.4043 91.3214 70.1641 91.6873 69.8309 91.955C69.201 92.4589 68.5711 92.9905 67.9665 93.5221C67.647 93.8057 67.2457 93.9805 66.8205 94.0213C66.3953 94.062 65.9681 93.9667 65.6006 93.7489L59.9669 90.2618C59.5556 89.9912 59.0594 89.8804 58.5721 89.9505C58.0847 90.0206 57.6398 90.2667 57.3214 90.6423L55.4343 92.9099C55.1173 93.2878 54.9499 93.769 54.9638 94.2621C54.9777 94.7552 55.172 95.2261 55.5099 95.5856L59.8662 100.61C60.1494 100.937 60.3195 101.348 60.3513 101.78C60.3831 102.212 60.2748 102.642 60.0425 103.008C59.6142 103.68 59.2111 104.386 58.8332 105.127C58.6277 105.506 58.3077 105.81 57.919 105.996C57.5303 106.182 57.0927 106.24 56.6689 106.163L50.1458 104.903C49.6652 104.786 49.1584 104.849 48.7216 105.082C48.2849 105.314 47.9489 105.699 47.7775 106.163L46.7696 108.934C46.6005 109.399 46.6071 109.909 46.788 110.37C46.969 110.83 47.3119 111.208 47.7523 111.433L53.5623 114.666C53.9374 114.875 54.2355 115.199 54.4124 115.59C54.5894 115.981 54.6358 116.418 54.5449 116.838C54.3937 117.644 54.2426 118.428 54.1166 119.234C54.0561 119.659 53.8627 120.054 53.564 120.363C53.2653 120.672 52.8767 120.878 52.4537 120.952L45.8828 122.01C45.3938 122.071 44.9432 122.306 44.6143 122.673C44.2854 123.04 44.1006 123.513 44.0939 124.006V126.959C44.0878 127.455 44.2682 127.936 44.5995 128.305C44.9308 128.675 45.3888 128.906 45.8828 128.954L52.4537 130.012C52.878 130.084 53.2683 130.289 53.5675 130.598C53.8667 130.908 54.0591 131.304 54.1166 131.731C54.2426 132.537 54.3685 133.346 54.5449 134.127C54.6302 134.546 54.5811 134.982 54.4047 135.372C54.2283 135.762 53.9336 136.086 53.5623 136.299L47.7447 139.534C47.3043 139.759 46.9614 140.137 46.7805 140.598C46.5995 141.058 46.593 141.568 46.7621 142.033L47.7699 144.805C47.9385 145.271 48.2741 145.658 48.7116 145.89C49.1492 146.123 49.6576 146.185 50.1383 146.064L56.6613 144.805C57.0854 144.723 57.5247 144.779 57.9143 144.965C58.304 145.152 58.6234 145.458 58.8256 145.84C59.2035 146.546 59.6067 147.252 60.035 147.959C60.2611 148.327 60.3658 148.756 60.3341 149.187C60.3025 149.617 60.1361 150.027 59.8586 150.358L55.5023 155.387C55.1645 155.746 54.9702 156.217 54.9562 156.71C54.9423 157.203 55.1097 157.684 55.4268 158.062L57.3139 160.33C57.6284 160.711 58.0738 160.962 58.563 161.032C59.0523 161.102 59.5502 160.988 59.9594 160.71L65.6762 157.276C66.0437 157.059 66.4709 156.963 66.8961 157.004C67.3213 157.045 67.7226 157.219 68.042 157.503C68.6467 158.035 69.2766 158.564 69.9065 159.07C70.2415 159.336 70.4832 159.702 70.5964 160.115C70.7096 160.528 70.6886 160.966 70.5364 161.366L68.168 167.601C67.9697 168.054 67.9448 168.564 68.0981 169.035C68.2514 169.505 68.5722 169.902 68.9995 170.151L71.5694 171.64C71.9983 171.884 72.5016 171.962 72.984 171.859C73.4665 171.756 73.8945 171.48 74.1872 171.083L78.4175 165.883C78.9466 165.228 79.8032 164.951 80.4835 165.228C81.3401 165.581 81.9196 165.782 82.9778 166.138C83.3851 166.272 83.7388 166.533 83.9875 166.882C84.2363 167.232 84.3671 167.651 84.3611 168.08L84.2603 174.744C84.2306 175.24 84.3833 175.729 84.6897 176.12C84.996 176.511 85.4347 176.776 85.9232 176.866L88.8433 177.37C89.3321 177.454 89.835 177.357 90.2573 177.097C90.6796 176.837 90.9921 176.431 91.1361 175.956L93.3029 169.657C93.4419 169.251 93.7073 168.899 94.0604 168.654C94.4136 168.408 94.8358 168.282 95.2656 168.294H97.7347C98.1639 168.285 98.5849 168.412 98.9374 168.657C99.29 168.902 99.556 169.252 99.6974 169.657L101.864 175.956C102.008 176.431 102.321 176.837 102.743 177.097C103.165 177.357 103.668 177.454 104.157 177.37L107.077 176.866C107.566 176.776 108.004 176.511 108.311 176.12C108.617 175.729 108.77 175.24 108.74 174.744L108.639 168.08C108.633 167.651 108.764 167.232 109.013 166.882C109.262 166.533 109.615 166.272 110.022 166.138C111.081 165.782 111.786 165.505 112.441 165.253C113.096 165.001 113.903 165.001 114.532 165.782L118.816 171.058C119.11 171.457 119.54 171.733 120.025 171.834C120.509 171.935 121.014 171.855 121.444 171.607L124.013 170.118C124.444 169.872 124.767 169.475 124.921 169.004C125.074 168.533 125.047 168.021 124.845 167.569L122.477 161.333C122.327 160.932 122.307 160.495 122.42 160.082C122.533 159.67 122.773 159.303 123.106 159.035C123.736 158.531 124.366 158.002 124.971 157.47C125.29 157.187 125.692 157.012 126.117 156.971C126.542 156.93 126.969 157.026 127.337 157.244L133.033 160.688C133.445 160.958 133.941 161.069 134.428 160.999C134.916 160.929 135.36 160.683 135.679 160.307L137.566 158.04C137.883 157.662 138.05 157.181 138.037 156.688C138.023 156.194 137.828 155.723 137.49 155.364L133.134 150.34C132.851 150.012 132.681 149.602 132.649 149.17C132.617 148.738 132.726 148.307 132.958 147.941C133.386 147.261 133.789 146.555 134.167 145.823C134.373 145.444 134.693 145.14 135.081 144.954C135.47 144.768 135.908 144.709 136.331 144.787L142.854 146.047C143.335 146.164 143.842 146.1 144.279 145.868C144.715 145.636 145.051 145.251 145.223 144.787L146.231 142.016C146.4 141.551 146.393 141.04 146.212 140.58C146.031 140.12 145.688 139.741 145.248 139.516L139.43 136.286C139.055 136.077 138.757 135.754 138.58 135.363C138.403 134.971 138.357 134.534 138.448 134.114C138.599 133.308 138.75 132.524 138.876 131.718C138.937 131.293 139.13 130.898 139.429 130.589C139.727 130.281 140.116 130.074 140.539 130L147.11 128.942C147.599 128.881 148.05 128.646 148.378 128.279C148.707 127.912 148.892 127.439 148.899 126.946V123.988C148.871 123.5 148.673 123.037 148.338 122.681C148.003 122.325 147.553 122.098 147.067 122.041ZM96.5001 89.2188C104.548 89.2153 112.367 91.8908 118.726 96.8233C125.084 101.756 129.62 108.664 131.617 116.46C131.766 117.054 131.777 117.675 131.65 118.274C131.523 118.874 131.261 119.436 130.883 119.919C130.506 120.402 130.024 120.793 129.473 121.061C128.922 121.33 128.317 121.469 127.705 121.469H101.189C100.477 121.469 99.7774 121.28 99.1618 120.922C98.5462 120.564 98.0364 120.049 97.6843 119.43L84.5576 96.3238C84.2519 95.7866 84.0739 95.1864 84.0372 94.5694C84.0005 93.9524 84.1062 93.3352 84.3461 92.7656C84.586 92.196 84.9536 91.6892 85.4206 91.2843C85.8876 90.8794 86.4414 90.5873 87.0393 90.4307C90.1275 89.6204 93.3075 89.2131 96.5001 89.2188ZM60.2189 125.5C60.2144 120.642 61.1855 115.833 63.0747 111.357C64.9638 106.882 67.7326 102.831 71.2167 99.4455C71.6566 99.01 72.1909 98.6816 72.7783 98.4859C73.3656 98.2902 73.9901 98.2323 74.6033 98.3169C75.2166 98.4014 75.8022 98.6261 76.3146 98.9734C76.8271 99.3208 77.2526 99.7815 77.5583 100.32L90.7203 123.484C91.0681 124.093 91.251 124.782 91.251 125.484C91.251 126.185 91.0681 126.874 90.7203 127.483L77.45 150.587C77.1419 151.124 76.7144 151.582 76.2005 151.927C75.6867 152.272 75.1003 152.494 74.4868 152.576C73.8734 152.658 73.2493 152.598 72.663 152.399C72.0767 152.201 71.5438 151.871 71.1058 151.434C67.6557 148.054 64.9154 144.019 63.0459 139.565C61.1764 135.112 60.2152 130.33 60.2189 125.5ZM96.5001 161.781C93.252 161.79 90.0168 161.37 86.8781 160.534C86.2803 160.375 85.7272 160.081 85.2614 159.674C84.7956 159.267 84.4297 158.759 84.192 158.188C83.9543 157.617 83.8511 156.999 83.8904 156.382C83.9298 155.764 84.1107 155.164 84.419 154.628L97.6667 131.562C98.021 130.948 98.5308 130.439 99.1448 130.085C99.7588 129.731 100.455 129.545 101.164 129.546H127.717C128.33 129.546 128.934 129.686 129.485 129.955C130.035 130.223 130.517 130.614 130.894 131.097C131.271 131.58 131.533 132.142 131.66 132.741C131.787 133.341 131.776 133.961 131.627 134.555C129.626 142.349 125.087 149.255 118.727 154.185C112.367 159.114 104.547 161.787 96.5001 161.781Z" fill="#333333"/>
<path d="M183.467 58.3814L179.443 57.7334C179.184 57.6896 178.945 57.5639 178.761 57.3745C178.578 57.1852 178.46 56.9422 178.425 56.6811C178.348 56.1873 178.271 55.692 178.163 55.2137C178.111 54.9569 178.141 54.6902 178.249 54.4514C178.357 54.2126 178.537 54.014 178.765 53.8837L182.327 51.9056C182.597 51.7677 182.807 51.536 182.918 51.2541C183.029 50.9722 183.033 50.6596 182.929 50.375L182.312 48.6777C182.209 48.3923 182.003 48.1554 181.735 48.0128C181.467 47.8703 181.156 47.8323 180.861 47.9062L176.867 48.6777C176.607 48.728 176.338 48.6935 176.099 48.5793C175.861 48.4651 175.665 48.2773 175.541 48.0435C175.31 47.6115 175.063 47.179 174.801 46.7459C174.662 46.5207 174.598 46.2577 174.617 45.994C174.637 45.7304 174.739 45.4795 174.909 45.277L177.576 42.2003C177.783 41.9802 177.902 41.6918 177.911 41.3898C177.919 41.0878 177.817 40.7932 177.623 40.5617L176.467 39.173C176.274 38.9395 176.002 38.7862 175.702 38.7431C175.402 38.7 175.097 38.7702 174.847 38.94L171.346 41.0431C171.121 41.1765 170.859 41.2349 170.599 41.2099C170.338 41.185 170.093 41.0779 169.897 40.9042C169.527 40.5787 169.141 40.2546 168.755 39.9445C168.55 39.7815 168.402 39.5574 168.333 39.3047C168.263 39.052 168.276 38.7838 168.37 38.5388L169.82 34.72C169.943 34.4429 169.96 34.1301 169.868 33.8413C169.775 33.5524 169.58 33.3077 169.318 33.1539L167.745 32.242C167.482 32.0928 167.174 32.0452 166.878 32.108C166.583 32.1709 166.321 32.3398 166.141 32.583L163.574 35.7985C163.431 36.0009 163.223 36.149 162.985 36.219C162.747 36.289 162.493 36.2768 162.262 36.1843C162.262 36.1843 161.398 35.8294 160.75 35.6118C160.502 35.529 160.286 35.3692 160.134 35.1556C159.983 34.942 159.903 34.6857 159.906 34.4237L159.968 30.3426C159.986 30.039 159.893 29.7393 159.705 29.5C159.517 29.2607 159.249 29.0983 158.95 29.0434L157.161 28.7348C156.862 28.683 156.554 28.7424 156.295 28.9018C156.037 29.0612 155.845 29.3097 155.757 29.6004L154.43 33.4656C154.345 33.7147 154.183 33.9301 153.966 34.0803C153.75 34.2304 153.492 34.3075 153.228 34.3003H151.716C151.453 34.3059 151.196 34.2281 150.98 34.0781C150.764 33.9282 150.601 33.7138 150.514 33.4656L149.187 29.6004C149.099 29.3097 148.908 29.0612 148.649 28.9018C148.391 28.7424 148.083 28.683 147.783 28.7348L145.995 29.0434C145.696 29.0983 145.427 29.2607 145.24 29.5C145.052 29.7393 144.958 30.039 144.977 30.3426L145.038 34.4237C145.042 34.6864 144.962 34.9433 144.81 35.1573C144.657 35.3712 144.441 35.531 144.191 35.6134C143.836 35.7522 143.065 36.047 142.695 36.1858C142.262 36.3401 141.753 36.2167 141.337 35.7368L138.789 32.5984C138.609 32.3563 138.347 32.1885 138.051 32.1268C137.756 32.0652 137.448 32.1138 137.186 32.2636L135.612 33.1755C135.35 33.3264 135.153 33.5689 135.059 33.8563C134.965 34.1437 134.981 34.4557 135.103 34.7323L136.554 38.5512C136.645 38.7963 136.657 39.0641 136.588 39.3164C136.519 39.5688 136.372 39.7929 136.168 39.9568C135.782 40.2654 135.396 40.591 135.026 40.9166C134.83 41.0902 134.585 41.1973 134.324 41.2223C134.064 41.2472 133.802 41.1888 133.577 41.0554L130.127 38.92C129.875 38.7542 129.571 38.6864 129.273 38.7293C128.974 38.7722 128.702 38.9229 128.507 39.1529L127.351 40.5416C127.157 40.7731 127.055 41.0677 127.063 41.3697C127.072 41.6717 127.191 41.9601 127.398 42.1803L130.065 45.2569C130.239 45.4577 130.343 45.7089 130.362 45.9735C130.382 46.2381 130.316 46.5019 130.173 46.7258C129.911 47.1373 129.664 47.5698 129.433 48.0235C129.307 48.2554 129.111 48.4417 128.873 48.5556C128.635 48.6695 128.367 48.7052 128.107 48.6576L124.113 47.8862C123.818 47.8144 123.508 47.8533 123.24 47.9956C122.973 48.1378 122.767 48.3735 122.662 48.6576L122.045 50.3549C121.941 50.6395 121.945 50.9522 122.056 51.2341C122.167 51.516 122.377 51.7476 122.647 51.8855L126.205 53.8652C126.435 53.9929 126.617 54.1912 126.725 54.4308C126.834 54.6703 126.862 54.9383 126.807 55.1952C126.714 55.6889 126.621 56.1688 126.544 56.6626C126.507 56.923 126.389 57.165 126.206 57.354C126.023 57.543 125.785 57.6693 125.526 57.7149L121.502 58.3629C121.202 58.3998 120.926 58.5439 120.725 58.7686C120.524 58.9932 120.41 59.2832 120.406 59.5849V61.3933C120.403 61.6972 120.513 61.9915 120.716 62.2178C120.919 62.4441 121.199 62.586 121.502 62.6153L125.526 63.2634C125.786 63.3071 126.025 63.4329 126.208 63.6222C126.391 63.8116 126.509 64.0546 126.544 64.3157C126.621 64.8094 126.699 65.3047 126.807 65.783C126.859 66.0399 126.829 66.3066 126.721 66.5454C126.613 66.7841 126.432 66.9828 126.205 67.1131L122.642 69.0943C122.372 69.2321 122.162 69.4638 122.052 69.7457C121.941 70.0276 121.937 70.3403 122.04 70.6249L122.658 72.3221C122.761 72.6076 122.966 72.8445 123.234 72.987C123.502 73.1295 123.814 73.1675 124.108 73.0936L128.103 72.3221C128.362 72.2719 128.631 72.3064 128.87 72.4205C129.109 72.5347 129.304 72.7225 129.428 72.9563C129.66 73.3883 129.906 73.8209 130.169 74.2539C130.307 74.4791 130.371 74.7422 130.352 75.0058C130.333 75.2695 130.231 75.5203 130.061 75.7228L127.393 78.8026C127.186 79.0228 127.067 79.3111 127.058 79.6131C127.05 79.9151 127.152 80.2098 127.347 80.4412L128.502 81.8299C128.695 82.0635 128.968 82.2168 129.267 82.2599C129.567 82.3029 129.872 82.2327 130.122 82.0629L133.623 79.9598C133.848 79.8265 134.11 79.7681 134.37 79.793C134.631 79.818 134.877 79.925 135.072 80.0987C135.443 80.4243 135.828 80.7483 136.214 81.0584C136.419 81.2214 136.567 81.4455 136.637 81.6982C136.706 81.951 136.693 82.2192 136.6 82.4641L135.149 86.2829C135.028 86.5603 135.013 86.8727 135.107 87.1606C135.2 87.4486 135.397 87.6919 135.659 87.8444L137.232 88.7563C137.495 88.9055 137.803 88.9531 138.099 88.8903C138.394 88.8274 138.656 88.6585 138.836 88.4153L141.426 85.2306C141.75 84.8295 142.275 84.6597 142.691 84.8294C143.216 85.0455 143.571 85.1689 144.219 85.3865C144.468 85.4688 144.685 85.6286 144.837 85.8426C144.99 86.0565 145.07 86.3135 145.066 86.5761L145.004 90.6572C144.986 90.9608 145.08 91.2605 145.267 91.4998C145.455 91.7392 145.724 91.9016 146.023 91.9564L147.811 92.265C148.11 92.3169 148.418 92.2575 148.677 92.0981C148.936 91.9386 149.127 91.6901 149.215 91.3994L150.542 87.542C150.627 87.2929 150.79 87.0775 151.006 86.9273C151.222 86.7771 151.481 86.7 151.744 86.7072H153.256C153.519 86.7017 153.777 86.7795 153.993 86.9294C154.209 87.0794 154.372 87.2938 154.458 87.542L155.785 91.3994C155.873 91.6901 156.065 91.9386 156.323 92.0981C156.582 92.2575 156.89 92.3169 157.189 92.265L158.977 91.9564C159.277 91.9016 159.545 91.7392 159.733 91.4998C159.92 91.2605 160.014 90.9608 159.996 90.6572L159.934 86.5761C159.93 86.3135 160.011 86.0565 160.163 85.8426C160.315 85.6286 160.532 85.4688 160.781 85.3865C161.429 85.1689 161.861 84.9992 162.262 84.8449C162.664 84.6906 163.157 84.6906 163.543 85.1689L166.166 88.3999C166.346 88.6438 166.61 88.8129 166.907 88.875C167.203 88.937 167.513 88.8876 167.775 88.7362L169.349 87.8244C169.613 87.6736 169.811 87.4303 169.905 87.1417C169.999 86.8532 169.982 86.5399 169.858 86.2629L168.408 82.444C168.316 82.1987 168.304 81.9307 168.374 81.6781C168.443 81.4255 168.59 81.2011 168.794 81.0368C169.18 80.7282 169.565 80.4042 169.936 80.0787C170.131 79.905 170.377 79.7979 170.637 79.773C170.898 79.748 171.159 79.8064 171.384 79.9398L174.873 82.049C175.125 82.2148 175.429 82.2826 175.727 82.2397C176.026 82.1967 176.298 82.0461 176.493 81.816L177.649 80.4274C177.843 80.1959 177.946 79.9012 177.937 79.5993C177.929 79.2973 177.81 79.0089 177.603 78.7887L174.935 75.712C174.761 75.5113 174.657 75.26 174.638 74.9955C174.618 74.7309 174.685 74.4671 174.827 74.2431C175.089 73.8265 175.336 73.394 175.567 72.9455C175.693 72.7135 175.889 72.5273 176.127 72.4134C176.365 72.2995 176.633 72.2638 176.893 72.3113L180.888 73.0828C181.182 73.1546 181.492 73.1157 181.76 72.9734C182.027 72.8311 182.233 72.5955 182.338 72.3113L182.955 70.6141C183.059 70.3294 183.055 70.0168 182.944 69.7349C182.833 69.453 182.623 69.2213 182.353 69.0835L178.791 67.1054C178.561 66.9776 178.378 66.7793 178.27 66.5398C178.162 66.3003 178.133 66.0322 178.189 65.7753C178.282 65.2816 178.374 64.8017 178.451 64.308C178.488 64.0476 178.607 63.8056 178.79 63.6165C178.973 63.4275 179.211 63.3012 179.47 63.2557L183.494 62.6076C183.793 62.5707 184.069 62.4266 184.271 62.2019C184.472 61.9773 184.585 61.6873 184.589 61.3856V59.5741C184.572 59.2751 184.451 58.9916 184.246 58.7735C184.04 58.5554 183.765 58.4165 183.467 58.3814ZM152.5 38.2812C157.428 38.2791 162.217 39.9175 166.111 42.9382C170.005 45.9588 172.783 50.1898 174.006 54.9637C174.097 55.3278 174.104 55.7078 174.026 56.0749C173.948 56.442 173.787 56.7865 173.556 57.0822C173.325 57.3779 173.03 57.6171 172.693 57.7815C172.355 57.946 171.985 58.0313 171.61 58.0312H155.372C154.935 58.0312 154.507 57.9157 154.13 57.6965C153.753 57.4772 153.441 57.162 153.225 56.7829L145.186 42.6323C144.999 42.3034 144.89 41.9357 144.868 41.5579C144.845 41.1801 144.91 40.8021 145.057 40.4533C145.204 40.1044 145.429 39.7941 145.715 39.5461C146.001 39.2982 146.34 39.1193 146.706 39.0233C148.597 38.5272 150.545 38.2777 152.5 38.2812ZM130.281 60.4999C130.279 57.5249 130.873 54.5796 132.03 51.8388C133.187 49.0979 134.883 46.6173 137.016 44.5441C137.286 44.2774 137.613 44.0763 137.973 43.9564C138.332 43.8365 138.715 43.8011 139.09 43.8529C139.466 43.9047 139.825 44.0423 140.138 44.255C140.452 44.4677 140.713 44.7498 140.9 45.0795L148.961 59.2655C149.173 59.6384 149.286 60.0605 149.286 60.4899C149.286 60.9193 149.173 61.3413 148.961 61.7142L140.834 75.8633C140.645 76.192 140.383 76.4729 140.069 76.6841C139.754 76.8954 139.395 77.0313 139.019 77.0814C138.643 77.1316 138.261 77.0945 137.902 76.9732C137.543 76.8518 137.217 76.6494 136.949 76.3817C134.836 74.3118 133.158 71.8407 132.013 69.1135C130.868 66.3862 130.279 63.4577 130.281 60.4999ZM152.5 82.7187C150.511 82.7238 148.53 82.467 146.607 81.9549C146.241 81.8576 145.903 81.6774 145.617 81.4282C145.332 81.1791 145.108 80.8676 144.963 80.5179C144.817 80.1683 144.754 79.7898 144.778 79.4119C144.802 79.0339 144.913 78.6665 145.102 78.3382L153.214 64.2123C153.431 63.8365 153.744 63.5245 154.12 63.3078C154.496 63.0911 154.922 62.9773 155.356 62.9779H171.617C171.993 62.978 172.363 63.0635 172.7 63.2281C173.037 63.3926 173.332 63.6318 173.563 63.9275C173.794 64.2232 173.954 64.5676 174.032 64.9346C174.11 65.3015 174.103 65.6814 174.012 66.0453C172.786 70.8184 170.007 75.0477 166.112 78.0666C162.217 81.0854 157.428 82.7221 152.5 82.7187Z" fill="#333333"/>
<path d="M197.492 115.132L194.894 114.714C194.726 114.686 194.572 114.605 194.454 114.482C194.335 114.36 194.259 114.203 194.236 114.035C194.187 113.716 194.137 113.396 194.067 113.087C194.033 112.922 194.053 112.749 194.123 112.595C194.192 112.441 194.309 112.313 194.456 112.229L196.756 110.952C196.93 110.863 197.065 110.713 197.137 110.531C197.208 110.349 197.211 110.147 197.144 109.964L196.746 108.868C196.679 108.684 196.546 108.531 196.373 108.439C196.2 108.347 195.999 108.322 195.809 108.37L193.23 108.868C193.063 108.9 192.889 108.878 192.735 108.804C192.581 108.731 192.455 108.61 192.375 108.459C192.225 108.18 192.066 107.9 191.897 107.621C191.807 107.476 191.766 107.306 191.778 107.135C191.791 106.965 191.857 106.803 191.966 106.673L193.689 104.686C193.822 104.544 193.899 104.358 193.904 104.163C193.91 103.968 193.844 103.778 193.718 103.629L192.972 102.732C192.848 102.581 192.672 102.482 192.479 102.455C192.285 102.427 192.088 102.472 191.926 102.582L189.666 103.939C189.521 104.025 189.352 104.063 189.184 104.047C189.016 104.031 188.857 103.962 188.731 103.85C188.492 103.639 188.243 103.43 187.994 103.23C187.861 103.125 187.766 102.98 187.721 102.817C187.676 102.654 187.685 102.481 187.745 102.323L188.681 99.8573C188.761 99.6785 188.772 99.4765 188.712 99.2901C188.653 99.1036 188.526 98.9456 188.357 98.8463L187.341 98.2576C187.172 98.1613 186.973 98.1305 186.782 98.1711C186.591 98.2117 186.422 98.3208 186.307 98.4777L184.649 100.554C184.556 100.684 184.423 100.78 184.269 100.825C184.115 100.87 183.951 100.862 183.802 100.803C183.802 100.803 183.245 100.574 182.826 100.433C182.666 100.38 182.526 100.276 182.428 100.139C182.331 100.001 182.279 99.8352 182.281 99.6661L182.321 97.0314C182.333 96.8355 182.273 96.642 182.151 96.4875C182.03 96.333 181.857 96.2281 181.664 96.1927L180.509 95.9935C180.316 95.96 180.117 95.9983 179.95 96.1013C179.783 96.2042 179.66 96.3646 179.603 96.5523L178.746 99.0475C178.691 99.2083 178.586 99.3474 178.447 99.4443C178.307 99.5413 178.14 99.5911 177.97 99.5864H176.994C176.824 99.59 176.658 99.5398 176.519 99.443C176.379 99.3462 176.274 99.2077 176.218 99.0475L175.361 96.5523C175.305 96.3646 175.181 96.2042 175.014 96.1013C174.847 95.9983 174.648 95.96 174.455 95.9935L173.301 96.1927C173.107 96.2281 172.934 96.333 172.813 96.4875C172.692 96.642 172.631 96.8355 172.643 97.0314L172.683 99.6661C172.685 99.8356 172.634 100.002 172.535 100.14C172.437 100.278 172.297 100.381 172.136 100.434C171.907 100.524 171.409 100.714 171.17 100.804C170.891 100.903 170.562 100.824 170.293 100.514L168.649 98.4877C168.532 98.3314 168.363 98.2231 168.172 98.1833C167.982 98.1434 167.783 98.1748 167.614 98.2715L166.598 98.8602C166.429 98.9577 166.301 99.1142 166.241 99.2998C166.18 99.4853 166.19 99.6867 166.269 99.8653L167.205 102.331C167.265 102.489 167.273 102.662 167.228 102.825C167.183 102.988 167.088 103.132 166.956 103.238C166.707 103.437 166.458 103.647 166.219 103.858C166.093 103.97 165.934 104.039 165.766 104.055C165.598 104.071 165.429 104.033 165.284 103.947L163.057 102.569C162.894 102.462 162.698 102.418 162.505 102.446C162.313 102.473 162.137 102.571 162.011 102.719L161.265 103.616C161.139 103.765 161.073 103.955 161.079 104.15C161.084 104.345 161.161 104.531 161.295 104.673L163.017 106.66C163.129 106.789 163.196 106.951 163.209 107.122C163.221 107.293 163.178 107.463 163.087 107.608C162.917 107.874 162.758 108.153 162.608 108.446C162.527 108.595 162.401 108.716 162.247 108.789C162.093 108.863 161.92 108.886 161.753 108.855L159.174 108.357C158.984 108.311 158.784 108.336 158.611 108.428C158.438 108.519 158.305 108.672 158.238 108.855L157.839 109.951C157.772 110.134 157.775 110.336 157.846 110.518C157.918 110.7 158.054 110.85 158.228 110.939L160.525 112.217C160.673 112.299 160.791 112.427 160.861 112.582C160.931 112.737 160.949 112.91 160.913 113.075C160.853 113.394 160.794 113.704 160.744 114.023C160.72 114.191 160.643 114.347 160.525 114.469C160.407 114.591 160.254 114.673 160.086 114.702L157.489 115.12C157.295 115.144 157.117 115.237 156.987 115.382C156.857 115.527 156.784 115.715 156.781 115.909V117.077C156.779 117.273 156.85 117.463 156.981 117.609C157.112 117.755 157.293 117.847 157.489 117.866L160.086 118.284C160.254 118.312 160.408 118.393 160.527 118.516C160.645 118.638 160.721 118.795 160.744 118.963C160.794 119.282 160.843 119.602 160.913 119.911C160.947 120.076 160.927 120.249 160.858 120.403C160.788 120.557 160.671 120.685 160.525 120.769L158.225 122.048C158.051 122.137 157.915 122.287 157.843 122.469C157.772 122.651 157.769 122.853 157.836 123.036L158.235 124.132C158.301 124.316 158.434 124.469 158.607 124.561C158.78 124.653 158.981 124.678 159.171 124.63L161.75 124.132C161.917 124.1 162.091 124.122 162.245 124.196C162.399 124.269 162.526 124.391 162.605 124.542C162.755 124.82 162.914 125.1 163.084 125.379C163.173 125.525 163.214 125.694 163.202 125.865C163.189 126.035 163.124 126.197 163.014 126.328L161.292 128.316C161.158 128.458 161.081 128.644 161.076 128.839C161.07 129.034 161.136 129.224 161.262 129.374L162.008 130.27C162.132 130.421 162.308 130.52 162.502 130.548C162.695 130.575 162.892 130.53 163.054 130.42L165.314 129.063C165.459 128.977 165.628 128.939 165.796 128.955C165.964 128.971 166.123 129.04 166.249 129.152C166.488 129.363 166.737 129.572 166.986 129.772C167.119 129.877 167.214 130.022 167.259 130.185C167.304 130.348 167.296 130.521 167.235 130.679L166.299 133.145C166.221 133.324 166.211 133.526 166.271 133.711C166.332 133.897 166.459 134.054 166.628 134.153L167.644 134.742C167.813 134.838 168.012 134.869 168.203 134.828C168.394 134.787 168.563 134.678 168.679 134.521L170.351 132.465C170.56 132.206 170.899 132.097 171.168 132.206C171.507 132.346 171.736 132.426 172.154 132.566C172.315 132.619 172.455 132.722 172.553 132.861C172.652 132.999 172.703 133.165 172.701 133.334L172.661 135.969C172.649 136.165 172.71 136.358 172.831 136.513C172.952 136.667 173.125 136.772 173.318 136.807L174.473 137.007C174.666 137.04 174.865 137.002 175.032 136.899C175.199 136.796 175.322 136.636 175.379 136.448L176.236 133.958C176.291 133.797 176.396 133.658 176.536 133.561C176.675 133.464 176.842 133.414 177.012 133.419H177.988C178.158 133.415 178.324 133.465 178.464 133.562C178.603 133.659 178.708 133.797 178.764 133.958L179.621 136.448C179.678 136.636 179.801 136.796 179.968 136.899C180.135 137.002 180.334 137.04 180.527 137.007L181.682 136.807C181.875 136.772 182.048 136.667 182.169 136.513C182.29 136.358 182.351 136.165 182.339 135.969L182.299 133.334C182.297 133.165 182.349 132.999 182.447 132.861C182.545 132.722 182.685 132.619 182.846 132.566C183.264 132.426 183.543 132.316 183.802 132.216C184.061 132.117 184.38 132.117 184.629 132.426L186.322 134.511C186.439 134.669 186.609 134.778 186.801 134.818C186.992 134.858 187.192 134.826 187.361 134.729L188.377 134.14C188.547 134.043 188.675 133.886 188.736 133.699C188.797 133.513 188.786 133.311 188.706 133.132L187.77 130.667C187.711 130.508 187.703 130.335 187.748 130.172C187.792 130.009 187.887 129.864 188.019 129.758C188.268 129.559 188.517 129.35 188.756 129.14C188.882 129.027 189.041 128.958 189.209 128.942C189.377 128.926 189.546 128.964 189.691 129.05L191.943 130.412C192.106 130.519 192.302 130.562 192.495 130.535C192.688 130.507 192.863 130.41 192.989 130.261L193.735 129.365C193.861 129.215 193.927 129.025 193.921 128.83C193.916 128.635 193.839 128.449 193.706 128.307L191.983 126.321C191.871 126.191 191.804 126.029 191.791 125.858C191.779 125.687 191.822 125.517 191.914 125.372C192.083 125.103 192.242 124.824 192.392 124.535C192.473 124.385 192.599 124.265 192.753 124.191C192.907 124.118 193.08 124.094 193.247 124.125L195.826 124.623C196.016 124.67 196.217 124.644 196.389 124.553C196.562 124.461 196.695 124.309 196.763 124.125L197.161 123.029C197.228 122.846 197.225 122.644 197.154 122.462C197.082 122.28 196.947 122.13 196.772 122.041L194.473 120.764C194.324 120.682 194.206 120.554 194.136 120.399C194.066 120.245 194.048 120.072 194.084 119.906C194.144 119.587 194.204 119.277 194.253 118.958C194.277 118.79 194.354 118.634 194.472 118.512C194.59 118.39 194.744 118.308 194.911 118.279L197.509 117.861C197.702 117.837 197.88 117.744 198.01 117.599C198.14 117.454 198.213 117.267 198.216 117.072V115.902C198.205 115.709 198.126 115.526 197.994 115.386C197.862 115.245 197.684 115.155 197.492 115.132ZM177.5 102.156C180.682 102.155 183.773 103.213 186.287 105.163C188.801 107.113 190.594 109.844 191.384 112.926C191.442 113.161 191.447 113.406 191.396 113.643C191.346 113.88 191.243 114.103 191.093 114.294C190.944 114.485 190.754 114.639 190.536 114.745C190.318 114.851 190.079 114.906 189.837 114.906H179.354C179.072 114.906 178.796 114.832 178.552 114.69C178.309 114.549 178.107 114.345 177.968 114.1L172.779 104.965C172.658 104.753 172.587 104.516 172.573 104.272C172.558 104.028 172.6 103.784 172.695 103.559C172.79 103.333 172.935 103.133 173.12 102.973C173.304 102.813 173.523 102.697 173.76 102.635C174.981 102.315 176.238 102.154 177.5 102.156ZM163.156 116.5C163.155 114.579 163.538 112.678 164.285 110.909C165.032 109.139 166.127 107.538 167.504 106.199C167.678 106.027 167.889 105.897 168.122 105.82C168.354 105.743 168.601 105.72 168.843 105.753C169.086 105.787 169.317 105.875 169.52 106.013C169.722 106.15 169.891 106.332 170.011 106.545L175.215 115.703C175.353 115.944 175.425 116.216 175.425 116.494C175.425 116.771 175.353 117.043 175.215 117.284L169.969 126.418C169.847 126.63 169.678 126.812 169.475 126.948C169.271 127.084 169.04 127.172 168.797 127.205C168.555 127.237 168.308 127.213 168.076 127.135C167.844 127.056 167.634 126.926 167.46 126.753C166.096 125.417 165.013 123.821 164.274 122.061C163.535 120.3 163.155 118.41 163.156 116.5ZM177.5 130.844C176.216 130.847 174.937 130.681 173.696 130.351C173.46 130.288 173.241 130.172 173.057 130.011C172.873 129.85 172.728 129.649 172.634 129.423C172.54 129.197 172.499 128.953 172.515 128.709C172.53 128.465 172.602 128.228 172.724 128.016L177.961 118.897C178.101 118.654 178.303 118.453 178.546 118.313C178.788 118.173 179.064 118.099 179.344 118.1H189.842C190.084 118.1 190.323 118.155 190.54 118.261C190.758 118.367 190.949 118.522 191.098 118.713C191.247 118.904 191.35 119.126 191.401 119.363C191.451 119.6 191.446 119.845 191.388 120.08C190.596 123.161 188.802 125.892 186.287 127.841C183.773 129.789 180.681 130.846 177.5 130.844Z" fill="#333333"/>
</svg>
