<svg width="657" height="339" viewBox="0 0 657 339" fill="none" xmlns="http://www.w3.org/2000/svg">
<path d="M332.464 14L435.521 192.5C437.061 195.167 435.136 198.5 432.057 198.5H225.943C222.864 198.5 220.939 195.167 222.479 192.5L325.536 14C327.076 11.3333 330.925 11.3334 332.464 14Z" stroke="#FF5100" stroke-width="8" stroke-linejoin="round"/>
<path d="M334.188 78.9091L333.278 145.818H322.733L321.824 78.9091H334.188ZM328.006 172.727C325.763 172.727 323.839 171.924 322.233 170.318C320.627 168.712 319.824 166.788 319.824 164.545C319.824 162.303 320.627 160.379 322.233 158.773C323.839 157.167 325.763 156.364 328.006 156.364C330.248 156.364 332.172 157.167 333.778 158.773C335.384 160.379 336.188 162.303 336.188 164.545C336.188 166.03 335.809 167.394 335.051 168.636C334.324 169.879 333.339 170.879 332.097 171.636C330.884 172.364 329.521 172.727 328.006 172.727Z" fill="black"/>
<path d="M51.5598 264.182H56.1394V289.222C56.1394 291.807 55.53 294.115 54.3113 296.146C53.1048 298.165 51.3998 299.759 49.1962 300.929C46.9926 302.086 44.4074 302.665 41.4405 302.665C38.4737 302.665 35.8884 302.086 33.6848 300.929C31.4812 299.759 29.7701 298.165 28.5513 296.146C27.3449 294.115 26.7417 291.807 26.7417 289.222V264.182H31.3212V288.852C31.3212 290.699 31.7275 292.342 32.54 293.783C33.3525 295.211 34.5096 296.337 36.0115 297.162C37.5257 297.974 39.3354 298.381 41.4405 298.381C43.5456 298.381 45.3553 297.974 46.8695 297.162C48.3837 296.337 49.5409 295.211 50.3411 293.783C51.1536 292.342 51.5598 290.699 51.5598 288.852V264.182ZM95.2733 264.182V302H90.8414L70.2335 272.307H69.8642V302H65.2846V264.182H69.7164L90.3983 293.949H90.7676V264.182H95.2733ZM116.107 302H104.437V264.182H116.624C120.293 264.182 123.432 264.939 126.042 266.453C128.652 267.955 130.652 270.116 132.044 272.935C133.435 275.741 134.13 279.102 134.13 283.017C134.13 286.956 133.428 290.348 132.025 293.192C130.622 296.023 128.578 298.202 125.894 299.729C123.211 301.243 119.948 302 116.107 302ZM109.017 297.938H115.812C118.939 297.938 121.53 297.334 123.586 296.128C125.642 294.921 127.175 293.204 128.184 290.976C129.194 288.748 129.698 286.095 129.698 283.017C129.698 279.964 129.2 277.336 128.203 275.132C127.205 272.916 125.716 271.217 123.734 270.036C121.752 268.841 119.284 268.244 116.329 268.244H109.017V297.938ZM141.812 302V264.182H164.636V268.244H146.392V281.023H163.454V285.085H146.392V297.938H164.931V302H141.812ZM172.89 302V264.182H185.669C188.623 264.182 191.048 264.687 192.944 265.696C194.84 266.693 196.243 268.066 197.154 269.814C198.065 271.562 198.521 273.55 198.521 275.778C198.521 278.007 198.065 279.982 197.154 281.706C196.243 283.429 194.846 284.784 192.963 285.768C191.079 286.741 188.672 287.227 185.742 287.227H175.401V283.091H185.595C187.614 283.091 189.239 282.795 190.47 282.205C191.713 281.614 192.612 280.777 193.166 279.693C193.732 278.598 194.015 277.293 194.015 275.778C194.015 274.264 193.732 272.941 193.166 271.808C192.599 270.676 191.695 269.802 190.451 269.186C189.208 268.558 187.564 268.244 185.521 268.244H177.47V302H172.89ZM190.691 285.011L199.998 302H194.68L185.521 285.011H190.691ZM251.209 276H246.629C246.358 274.683 245.884 273.526 245.207 272.528C244.542 271.531 243.73 270.694 242.77 270.017C241.822 269.328 240.769 268.811 239.612 268.466C238.455 268.121 237.248 267.949 235.993 267.949C233.703 267.949 231.629 268.527 229.77 269.685C227.923 270.842 226.452 272.547 225.356 274.8C224.273 277.053 223.731 279.816 223.731 283.091C223.731 286.366 224.273 289.129 225.356 291.382C226.452 293.635 227.923 295.34 229.77 296.497C231.629 297.654 233.703 298.233 235.993 298.233C237.248 298.233 238.455 298.061 239.612 297.716C240.769 297.371 241.822 296.86 242.77 296.183C243.73 295.494 244.542 294.651 245.207 293.653C245.884 292.644 246.358 291.487 246.629 290.182H251.209C250.864 292.115 250.236 293.844 249.325 295.371C248.414 296.897 247.282 298.196 245.927 299.267C244.573 300.326 243.053 301.132 241.366 301.686C239.692 302.24 237.901 302.517 235.993 302.517C232.767 302.517 229.899 301.729 227.388 300.153C224.876 298.578 222.9 296.337 221.46 293.432C220.02 290.527 219.3 287.08 219.3 283.091C219.3 279.102 220.02 275.655 221.46 272.75C222.9 269.845 224.876 267.604 227.388 266.028C229.899 264.453 232.767 263.665 235.993 263.665C237.901 263.665 239.692 263.942 241.366 264.496C243.053 265.05 244.573 265.862 245.927 266.933C247.282 267.992 248.414 269.285 249.325 270.811C250.236 272.325 250.864 274.055 251.209 276ZM290.518 283.091C290.518 287.08 289.798 290.527 288.357 293.432C286.917 296.337 284.941 298.578 282.43 300.153C279.919 301.729 277.05 302.517 273.825 302.517C270.599 302.517 267.731 301.729 265.22 300.153C262.708 298.578 260.732 296.337 259.292 293.432C257.852 290.527 257.132 287.08 257.132 283.091C257.132 279.102 257.852 275.655 259.292 272.75C260.732 269.845 262.708 267.604 265.22 266.028C267.731 264.453 270.599 263.665 273.825 263.665C277.05 263.665 279.919 264.453 282.43 266.028C284.941 267.604 286.917 269.845 288.357 272.75C289.798 275.655 290.518 279.102 290.518 283.091ZM286.086 283.091C286.086 279.816 285.538 277.053 284.443 274.8C283.359 272.547 281.888 270.842 280.029 269.685C278.183 268.527 276.115 267.949 273.825 267.949C271.535 267.949 269.461 268.527 267.602 269.685C265.755 270.842 264.284 272.547 263.188 274.8C262.105 277.053 261.563 279.816 261.563 283.091C261.563 286.366 262.105 289.129 263.188 291.382C264.284 293.635 265.755 295.34 267.602 296.497C269.461 297.654 271.535 298.233 273.825 298.233C276.115 298.233 278.183 297.654 280.029 296.497C281.888 295.34 283.359 293.635 284.443 291.382C285.538 289.129 286.086 286.366 286.086 283.091ZM328.207 264.182V302H323.775L303.167 272.307H302.798V302H298.218V264.182H302.65L323.332 293.949H323.701V264.182H328.207ZM358.052 273.636C357.831 271.765 356.932 270.312 355.356 269.278C353.781 268.244 351.848 267.727 349.558 267.727C347.884 267.727 346.419 267.998 345.163 268.54C343.92 269.081 342.947 269.826 342.246 270.774C341.556 271.722 341.211 272.799 341.211 274.006C341.211 275.015 341.452 275.883 341.932 276.609C342.424 277.323 343.052 277.92 343.815 278.401C344.578 278.868 345.379 279.256 346.216 279.564C347.053 279.859 347.822 280.099 348.524 280.284L352.365 281.318C353.35 281.577 354.445 281.934 355.652 282.389C356.871 282.845 358.034 283.466 359.142 284.254C360.262 285.03 361.185 286.027 361.912 287.246C362.638 288.464 363.001 289.96 363.001 291.733C363.001 293.777 362.466 295.623 361.395 297.273C360.336 298.922 358.785 300.233 356.741 301.206C354.71 302.179 352.242 302.665 349.336 302.665C346.628 302.665 344.283 302.228 342.301 301.354C340.331 300.48 338.78 299.261 337.648 297.697C336.527 296.134 335.893 294.318 335.746 292.25H340.473C340.596 293.678 341.076 294.86 341.913 295.795C342.763 296.719 343.834 297.408 345.126 297.864C346.431 298.307 347.835 298.528 349.336 298.528C351.085 298.528 352.654 298.245 354.045 297.679C355.436 297.1 356.538 296.3 357.351 295.278C358.163 294.244 358.569 293.038 358.569 291.659C358.569 290.403 358.219 289.382 357.517 288.594C356.815 287.806 355.892 287.166 354.747 286.673C353.602 286.181 352.365 285.75 351.035 285.381L346.382 284.051C343.427 283.202 341.088 281.989 339.365 280.413C337.641 278.838 336.78 276.776 336.78 274.227C336.78 272.11 337.352 270.263 338.497 268.688C339.654 267.099 341.205 265.868 343.15 264.994C345.108 264.108 347.293 263.665 349.706 263.665C352.143 263.665 354.31 264.102 356.206 264.976C358.102 265.838 359.604 267.019 360.711 268.521C361.832 270.023 362.423 271.728 362.484 273.636H358.052ZM368.463 268.244V264.182H396.826V268.244H384.934V302H380.355V268.244H368.463ZM403.894 302V264.182H416.672C419.627 264.182 422.052 264.687 423.948 265.696C425.844 266.693 427.247 268.066 428.158 269.814C429.069 271.562 429.525 273.55 429.525 275.778C429.525 278.007 429.069 279.982 428.158 281.706C427.247 283.429 425.85 284.784 423.966 285.768C422.083 286.741 419.676 287.227 416.746 287.227H406.405V283.091H416.599C418.617 283.091 420.242 282.795 421.474 282.205C422.717 281.614 423.616 280.777 424.17 279.693C424.736 278.598 425.019 277.293 425.019 275.778C425.019 274.264 424.736 272.941 424.17 271.808C423.603 270.676 422.698 269.802 421.455 269.186C420.212 268.558 418.568 268.244 416.525 268.244H408.474V302H403.894ZM421.695 285.011L431.002 302H425.684L416.525 285.011H421.695ZM461.974 264.182H466.553V289.222C466.553 291.807 465.944 294.115 464.725 296.146C463.519 298.165 461.814 299.759 459.61 300.929C457.407 302.086 454.821 302.665 451.855 302.665C448.888 302.665 446.302 302.086 444.099 300.929C441.895 299.759 440.184 298.165 438.965 296.146C437.759 294.115 437.156 291.807 437.156 289.222V264.182H441.735V288.852C441.735 290.699 442.142 292.342 442.954 293.783C443.767 295.211 444.924 296.337 446.426 297.162C447.94 297.974 449.749 298.381 451.855 298.381C453.96 298.381 455.769 297.974 457.284 297.162C458.798 296.337 459.955 295.211 460.755 293.783C461.568 292.342 461.974 290.699 461.974 288.852V264.182ZM506.131 276H501.551C501.28 274.683 500.806 273.526 500.129 272.528C499.464 271.531 498.652 270.694 497.692 270.017C496.744 269.328 495.691 268.811 494.534 268.466C493.377 268.121 492.17 267.949 490.915 267.949C488.625 267.949 486.55 268.527 484.692 269.685C482.845 270.842 481.374 272.547 480.278 274.8C479.195 277.053 478.653 279.816 478.653 283.091C478.653 286.366 479.195 289.129 480.278 291.382C481.374 293.635 482.845 295.34 484.692 296.497C486.55 297.654 488.625 298.233 490.915 298.233C492.17 298.233 493.377 298.061 494.534 297.716C495.691 297.371 496.744 296.86 497.692 296.183C498.652 295.494 499.464 294.651 500.129 293.653C500.806 292.644 501.28 291.487 501.551 290.182H506.131C505.786 292.115 505.158 293.844 504.247 295.371C503.336 296.897 502.203 298.196 500.849 299.267C499.495 300.326 497.975 301.132 496.288 301.686C494.614 302.24 492.823 302.517 490.915 302.517C487.689 302.517 484.821 301.729 482.309 300.153C479.798 298.578 477.822 296.337 476.382 293.432C474.942 290.527 474.221 287.08 474.221 283.091C474.221 279.102 474.942 275.655 476.382 272.75C477.822 269.845 479.798 267.604 482.309 266.028C484.821 264.453 487.689 263.665 490.915 263.665C492.823 263.665 494.614 263.942 496.288 264.496C497.975 265.05 499.495 265.862 500.849 266.933C502.203 267.992 503.336 269.285 504.247 270.811C505.158 272.325 505.786 274.055 506.131 276ZM511.463 268.244V264.182H539.826V268.244H527.934V302H523.355V268.244H511.463ZM551.474 264.182V302H546.894V264.182H551.474ZM592.565 283.091C592.565 287.08 591.845 290.527 590.404 293.432C588.964 296.337 586.988 298.578 584.477 300.153C581.965 301.729 579.097 302.517 575.872 302.517C572.646 302.517 569.778 301.729 567.267 300.153C564.755 298.578 562.779 296.337 561.339 293.432C559.899 290.527 559.178 287.08 559.178 283.091C559.178 279.102 559.899 275.655 561.339 272.75C562.779 269.845 564.755 267.604 567.267 266.028C569.778 264.453 572.646 263.665 575.872 263.665C579.097 263.665 581.965 264.453 584.477 266.028C586.988 267.604 588.964 269.845 590.404 272.75C591.845 275.655 592.565 279.102 592.565 283.091ZM588.133 283.091C588.133 279.816 587.585 277.053 586.49 274.8C585.406 272.547 583.935 270.842 582.076 269.685C580.23 268.527 578.161 267.949 575.872 267.949C573.582 267.949 571.508 268.527 569.649 269.685C567.802 270.842 566.331 272.547 565.235 274.8C564.152 277.053 563.61 279.816 563.61 283.091C563.61 286.366 564.152 289.129 565.235 291.382C566.331 293.635 567.802 295.34 569.649 296.497C571.508 297.654 573.582 298.233 575.872 298.233C578.161 298.233 580.23 297.654 582.076 296.497C583.935 295.34 585.406 293.635 586.49 291.382C587.585 289.129 588.133 286.366 588.133 283.091ZM630.254 264.182V302H625.822L605.214 272.307H604.845V302H600.265V264.182H604.697L625.379 293.949H625.748V264.182H630.254Z" fill="#555555"/>
</svg>
